<svg id="Group_1626" data-name="Group 1626" xmlns="http://www.w3.org/2000/svg" xmlns:xlink="http://www.w3.org/1999/xlink" width="204.858" height="92.74" viewBox="0 0 204.858 92.74">
  <defs>
    <linearGradient id="linear-gradient" y1="0.5" x2="1" y2="0.5" gradientUnits="objectBoundingBox">
      <stop offset="0" stop-color="#3f051f"/>
      <stop offset="0.929" stop-color="#3f051f"/>
    </linearGradient>
  </defs>
  <rect id="Rectangle_584" data-name="Rectangle 584" width="204.858" height="92.74" rx="1" fill="#fff"/>
  <g id="Logo" transform="translate(41.526 30.452)">
    <g id="text" transform="translate(36.376 11.122)">
      <path id="Path_135" data-name="Path 135" d="M84.26,36.821l.659-1.478A5.676,5.676,0,0,0,88.3,36.47c1.6,0,2.268-.571,2.268-1.331,0-2.21-6.087-.761-6.087-4.565,0-1.654,1.319-3.058,4.126-3.058a6.478,6.478,0,0,1,3.406.907l-.6,1.478a5.691,5.691,0,0,0-2.824-.805c-1.582,0-2.224.615-2.224,1.39,0,2.18,6.072.761,6.072,4.522,0,1.639-1.331,3.043-4.141,3.043A6.6,6.6,0,0,1,84.26,36.821Z" transform="translate(-84.26 -27.047)" fill="url(#linear-gradient)"/>
      <path id="Path_136" data-name="Path 136" d="M112.59,36.491v4.58h-1.726V40.12a2.771,2.771,0,0,1-2.458,1.055c-1.785,0-2.912-.981-2.912-2.341,0-1.3.879-2.326,3.248-2.326h2.019v-.118c0-1.068-.644-1.7-1.946-1.7a3.865,3.865,0,0,0-2.37.775l-.717-1.332a5.494,5.494,0,0,1,3.307-.967C111.288,33.17,112.59,34.238,112.59,36.491Zm-1.829,2.137V37.72h-1.887c-1.244,0-1.582.469-1.582,1.039,0,.659.556,1.083,1.494,1.083A1.992,1.992,0,0,0,110.761,38.628Z" transform="translate(-96.161 -30.214)" fill="url(#linear-gradient)"/>
      <path id="Path_137" data-name="Path 137" d="M126.961,26.451h1.829V37.308h-1.829Z" transform="translate(-108.192 -26.451)" fill="url(#linear-gradient)"/>
      <path id="Path_138" data-name="Path 138" d="M135.114,37.17a4.166,4.166,0,1,1,4.156,4.009A3.933,3.933,0,0,1,135.114,37.17Zm6.482,0a2.323,2.323,0,1,0-2.326,2.443A2.275,2.275,0,0,0,141.6,37.17Z" transform="translate(-112.762 -30.22)" fill="url(#linear-gradient)"/>
      <path id="Path_139" data-name="Path 139" d="M165.746,36.593V41.07h-1.827V36.828c0-1.39-.688-2.063-1.858-2.063a2.076,2.076,0,0,0-2.18,2.356v3.951h-1.828V33.256h1.741v1.011a3.4,3.4,0,0,1,2.692-1.1C164.356,33.169,165.746,34.237,165.746,36.593Z" transform="translate(-125.617 -30.213)" fill="url(#linear-gradient)"/>
      <path id="Path_140" data-name="Path 140" d="M194.1,27.849,190.586,38.09h-.293l-3.438-9.833-3.439,9.833h-.293l-3.512-10.241h.322l3.351,9.774,3.424-9.774H187l3.438,9.8,3.351-9.8Z" transform="translate(-137.7 -27.235)" fill="#9a441f"/>
      <path id="Path_141" data-name="Path 141" d="M214.027,37.66a3.675,3.675,0,1,1,7.345,0,3.676,3.676,0,1,1-7.345,0Zm7.052,0a3.384,3.384,0,1,0-6.76,0,3.384,3.384,0,1,0,6.76,0Z" transform="translate(-156.989 -30.593)" fill="#9a441f"/>
      <path id="Path_142" data-name="Path 142" d="M239.622,33.841v.293h-.088c-1.814,0-2.883,1.244-2.883,3.249V41.45h-.293V33.885h.293v1.96A2.875,2.875,0,0,1,239.622,33.841Z" transform="translate(-169.505 -30.593)" fill="#9a441f"/>
      <path id="Path_143" data-name="Path 143" d="M251.3,32.935l-2.239,2.034v2.341h-.292V26.454h.292v8.163l5.341-4.872h.424l-3.293,3.015,3.629,4.551h-.38Z" transform="translate(-176.463 -26.453)" fill="#9a441f"/>
      <path id="Path_144" data-name="Path 144" d="M264.481,40.454l.176-.234a4.105,4.105,0,0,0,2.78,1c1.8,0,2.517-.687,2.517-1.683,0-2.531-5.18-.8-5.18-3.746,0-1.011.8-1.946,2.677-1.946a4.206,4.206,0,0,1,2.5.776l-.176.234a3.8,3.8,0,0,0-2.326-.731c-1.67,0-2.37.731-2.37,1.67,0,2.6,5.165.893,5.165,3.746,0,1.143-.923,1.96-2.81,1.96a4.279,4.279,0,0,1-2.956-1.041Z" transform="translate(-185.266 -30.592)" fill="#9a441f"/>
    </g>
    <g id="icon" transform="translate(0 0)">
      <g id="Group_256" data-name="Group 256" transform="translate(0 0)">
        <g id="Group_134" data-name="Group 134" transform="translate(9.611 1.748)">
          <path id="Path_145" data-name="Path 145" d="M24.26,5.77a7.7,7.7,0,0,1,.592-.641,2.126,2.126,0,0,0-.835.126,2.081,2.081,0,0,0-.651.491c.074,0,.15,0,.228,0C23.808,5.74,24.033,5.752,24.26,5.77Z" transform="translate(-23.366 -5.126)" fill="#9a441f"/>
        </g>
        <g id="Group_135" data-name="Group 135" transform="translate(10.67 1.759)">
          <path id="Path_146" data-name="Path 146" d="M25.776,5.8c.081.008.159.019.239.028q.647-.256,1.323-.453c.025-.025.049-.05.075-.075a6.926,6.926,0,0,0-1.023-.148,7.07,7.07,0,0,0-.614.648Z" transform="translate(-25.776 -5.151)" fill="#9a441f"/>
        </g>
        <g id="Group_136" data-name="Group 136" transform="translate(11.428 1.162)">
          <path id="Path_147" data-name="Path 147" d="M29.182,3.846a3.256,3.256,0,0,0-.539-.054,1.557,1.557,0,0,0-.425.05,2.085,2.085,0,0,0-.718.421,7.974,7.974,0,0,1,1,.16,8.45,8.45,0,0,1,.682-.577Z" transform="translate(-27.5 -3.791)" fill="#9a441f"/>
        </g>
        <g id="Group_137" data-name="Group 137" transform="translate(1.108 12.8)">
          <path id="Path_148" data-name="Path 148" d="M4.687,30.375c-.01-.036-.019-.069-.029-.105a7.539,7.539,0,0,0-.636.8,6.94,6.94,0,0,0,.248.839c.05-.069.1-.132.151-.2C4.489,31.26,4.579,30.814,4.687,30.375Z" transform="translate(-4.022 -30.27)" fill="#9a441f"/>
        </g>
        <g id="Group_138" data-name="Group 138" transform="translate(10.522 2.534)">
          <path id="Path_149" data-name="Path 149" d="M25.557,6.921l-.073-.008c-.016.019-.03.039-.044.058Z" transform="translate(-25.44 -6.913)" fill="#9a441f"/>
        </g>
        <g id="Group_139" data-name="Group 139" transform="translate(7.873 2.528)">
          <path id="Path_150" data-name="Path 150" d="M20.826,6.9a2.032,2.032,0,0,0-.772.215,2.188,2.188,0,0,0-.64.651,7.736,7.736,0,0,1,.853-.083,7.719,7.719,0,0,1,.559-.783Z" transform="translate(-19.414 -6.9)" fill="#9a441f"/>
        </g>
        <g id="Group_140" data-name="Group 140" transform="translate(8.897 2.499)">
          <path id="Path_151" data-name="Path 151" d="M21.933,7.635q.566-.317,1.16-.585c.05-.065.1-.132.15-.195-.189-.014-.379-.022-.563-.022-.127,0-.245,0-.359.012a6.755,6.755,0,0,0-.58.791Z" transform="translate(-21.742 -6.834)" fill="#9a441f"/>
        </g>
        <g id="Group_141" data-name="Group 141" transform="translate(8.94 29.593)">
          <path id="Path_152" data-name="Path 152" d="M21.895,68.507l-.055-.031.018.03Z" transform="translate(-21.84 -68.476)" fill="#9a441f"/>
        </g>
        <g id="Group_142" data-name="Group 142" transform="translate(16.358 1.378)">
          <path id="Path_153" data-name="Path 153" d="M38.718,4.286h.008l0,0Z" transform="translate(-38.718 -4.284)" fill="#9a441f"/>
        </g>
        <g id="Group_143" data-name="Group 143" transform="translate(16.532 31.598)">
          <path id="Path_154" data-name="Path 154" d="M39.13,73.037h-.016l.008,0Z" transform="translate(-39.114 -73.037)" fill="#9a441f"/>
        </g>
        <g id="Group_144" data-name="Group 144" transform="translate(16.508 0.9)">
          <path id="Path_155" data-name="Path 155" d="M39.212,3.681c.442.006.879.028,1.312.071.076-.031.15-.064.229-.094a6.6,6.6,0,0,0-.791-.462,7.218,7.218,0,0,0-.9.4C39.113,3.623,39.161,3.652,39.212,3.681Z" transform="translate(-39.059 -3.196)" fill="#9a441f"/>
        </g>
        <g id="Group_145" data-name="Group 145" transform="translate(13.442 0.752)">
          <path id="Path_156" data-name="Path 156" d="M33.856,2.991a2.545,2.545,0,0,0-.721-.132,1.248,1.248,0,0,0-.171.01,2.251,2.251,0,0,0-.882.388A8.214,8.214,0,0,1,33,3.538a8.252,8.252,0,0,1,.855-.547Z" transform="translate(-32.082 -2.859)" fill="#9a441f"/>
        </g>
        <g id="Group_146" data-name="Group 146" transform="translate(14.488 31.468)">
          <path id="Path_157" data-name="Path 157" d="M34.536,72.8l.088-.035-.162-.021C34.486,72.76,34.51,72.78,34.536,72.8Z" transform="translate(-34.462 -72.742)" fill="#9a441f"/>
        </g>
        <g id="Group_147" data-name="Group 147" transform="translate(14.518 0.946)">
          <path id="Path_158" data-name="Path 158" d="M34.569,3.856q.747-.094,1.513-.113c.051-.029.1-.057.149-.085a7.3,7.3,0,0,0-.822-.357,7.388,7.388,0,0,0-.876.541Z" transform="translate(-34.532 -3.3)" fill="#9a441f"/>
        </g>
        <g id="Group_148" data-name="Group 148" transform="translate(18.255 1.456)">
          <path id="Path_159" data-name="Path 159" d="M43.034,4.495l.156.02-.073-.054Z" transform="translate(-43.034 -4.461)" fill="#9a441f"/>
        </g>
        <g id="Group_149" data-name="Group 149" transform="translate(8.793 3.443)">
          <path id="Path_160" data-name="Path 160" d="M21.553,8.982h-.031l-.015.026Z" transform="translate(-21.507 -8.982)" fill="#9a441f"/>
        </g>
        <g id="Group_150" data-name="Group 150" transform="translate(3.316 8.983)">
          <path id="Path_161" data-name="Path 161" d="M9.046,21.6v.033l.028-.049C9.064,21.592,9.056,21.6,9.046,21.6Z" transform="translate(-9.046 -21.585)" fill="#9a441f"/>
        </g>
        <g id="Group_151" data-name="Group 151" transform="translate(3.467 6.415)">
          <path id="Path_162" data-name="Path 162" d="M10.352,15.743a2.052,2.052,0,0,0-.65.515A2.009,2.009,0,0,0,9.389,17a7.682,7.682,0,0,1,.773-.42,7.827,7.827,0,0,1,.19-.84Z" transform="translate(-9.389 -15.743)" fill="#9a441f"/>
        </g>
        <g id="Group_152" data-name="Group 152" transform="translate(2.478 7.975)">
          <path id="Path_163" data-name="Path 163" d="M7.93,19.292a2.031,2.031,0,0,0-.565.578,2.154,2.154,0,0,0-.225.876,7.508,7.508,0,0,1,.7-.507,7.6,7.6,0,0,1,.087-.947Z" transform="translate(-7.139 -19.292)" fill="#9a441f"/>
        </g>
        <g id="Group_153" data-name="Group 153" transform="translate(1.67 10.931)">
          <path id="Path_164" data-name="Path 164" d="M5.3,26.7a7.227,7.227,0,0,0,.151.9c.025-.027.05-.051.075-.077a14.975,14.975,0,0,1,.5-1.481l0-.028a7.824,7.824,0,0,0-.72.685Z" transform="translate(-5.3 -26.017)" fill="#9a441f"/>
        </g>
        <g id="Group_154" data-name="Group 154" transform="translate(2.494 22.301)">
          <path id="Path_165" data-name="Path 165" d="M7.176,51.96l.06.047-.052-.123C7.182,51.91,7.179,51.935,7.176,51.96Z" transform="translate(-7.176 -51.884)" fill="#9a441f"/>
        </g>
        <g id="Group_155" data-name="Group 155" transform="translate(2.461 9.09)">
          <path id="Path_166" data-name="Path 166" d="M7.155,23.382a14.97,14.97,0,0,1,.659-1.367v-.187a7.007,7.007,0,0,0-.711.524A7.855,7.855,0,0,0,7.137,23.4Z" transform="translate(-7.099 -21.829)" fill="#9a441f"/>
        </g>
        <g id="Group_156" data-name="Group 156" transform="translate(4.351 7.307)">
          <path id="Path_167" data-name="Path 167" d="M11.4,17.912c.036-.047.074-.093.11-.14-.032.015-.064.027-.1.044C11.408,17.847,11.405,17.879,11.4,17.912Z" transform="translate(-11.4 -17.772)" fill="#9a441f"/>
        </g>
        <g id="Group_157" data-name="Group 157" transform="translate(7.265 28.476)">
          <path id="Path_168" data-name="Path 168" d="M18.073,66.033l.1.014c-.048-.036-.095-.076-.143-.113C18.045,65.968,18.058,66,18.073,66.033Z" transform="translate(-18.03 -65.935)" fill="#9a441f"/>
        </g>
        <g id="Group_158" data-name="Group 158" transform="translate(6.18 3.589)">
          <path id="Path_169" data-name="Path 169" d="M16.964,9.314a2.188,2.188,0,0,0-.839.341,2.2,2.2,0,0,0-.564.769,8.339,8.339,0,0,1,.941-.22,8.3,8.3,0,0,1,.462-.89Z" transform="translate(-15.561 -9.314)" fill="#9a441f"/>
        </g>
        <g id="Group_159" data-name="Group 159" transform="translate(4.393 5.943)">
          <path id="Path_170" data-name="Path 170" d="M11.745,15.8q.426-.534.9-1.025c.01-.036.018-.071.029-.108a7.424,7.424,0,0,0-.971.384,7.12,7.12,0,0,0-.207.857C11.579,15.869,11.662,15.837,11.745,15.8Z" transform="translate(-11.495 -14.668)" fill="#9a441f"/>
        </g>
        <g id="Group_160" data-name="Group 160" transform="translate(7.287 3.453)">
          <path id="Path_171" data-name="Path 171" d="M18.13,10q.584-.443,1.209-.829c.032-.055.061-.109.094-.164a7.2,7.2,0,0,0-.871.1,7.635,7.635,0,0,0-.483.9Z" transform="translate(-18.079 -9.003)" fill="#9a441f"/>
        </g>
        <g id="Group_161" data-name="Group 161" transform="translate(5.777 4.634)">
          <path id="Path_172" data-name="Path 172" d="M14.749,12.76A15.341,15.341,0,0,1,15.9,11.742l.021-.051a7.669,7.669,0,0,0-.955.233,7.816,7.816,0,0,0-.321.866Z" transform="translate(-14.645 -11.691)" fill="#9a441f"/>
        </g>
        <g id="Group_162" data-name="Group 162" transform="translate(4.663 4.928)">
          <path id="Path_173" data-name="Path 173" d="M13.371,12.36a2.273,2.273,0,0,0-.839.483,2.1,2.1,0,0,0-.422.732,8.015,8.015,0,0,1,.954-.364,8.586,8.586,0,0,1,.306-.852Z" transform="translate(-12.11 -12.36)" fill="#9a441f"/>
        </g>
        <g id="Group_163" data-name="Group 163" transform="translate(12.588 1.254)">
          <path id="Path_174" data-name="Path 174" d="M30.234,4.6a14.9,14.9,0,0,1,1.517-.308l.026-.021A7.66,7.66,0,0,0,30.839,4a7.586,7.586,0,0,0-.7.577Z" transform="translate(-30.141 -4)" fill="#9a441f"/>
        </g>
        <g id="Group_164" data-name="Group 164" transform="translate(30.551 9.649)">
          <path id="Path_175" data-name="Path 175" d="M71.52,23.75a2.084,2.084,0,0,0-.49-.65,7.821,7.821,0,0,1-.023.9,7.458,7.458,0,0,1,.64.592A2.127,2.127,0,0,0,71.52,23.75Z" transform="translate(-71.007 -23.1)" fill="#9a441f"/>
        </g>
        <g id="Group_165" data-name="Group 165" transform="translate(29.471 8.832)">
          <path id="Path_176" data-name="Path 176" d="M68.577,21.29v-.032l-.027-.016Z" transform="translate(-68.55 -21.242)" fill="#9a441f"/>
        </g>
        <g id="Group_166" data-name="Group 166" transform="translate(31.15 11.468)">
          <path id="Path_177" data-name="Path 177" d="M72.944,28.921a2.248,2.248,0,0,0,.005-.963,2.046,2.046,0,0,0-.422-.718,7.659,7.659,0,0,1-.157,1A8.248,8.248,0,0,1,72.944,28.921Z" transform="translate(-72.37 -27.239)" fill="#9a441f"/>
        </g>
        <g id="Group_167" data-name="Group 167" transform="translate(28.243 6.22)">
          <path id="Path_178" data-name="Path 178" d="M66.868,16.707a2.158,2.158,0,0,0-.345-.841,2.2,2.2,0,0,0-.767-.565,8.645,8.645,0,0,1,.22.942A8.487,8.487,0,0,1,66.868,16.707Z" transform="translate(-65.756 -15.3)" fill="#9a441f"/>
        </g>
        <g id="Group_168" data-name="Group 168" transform="translate(28.488 7.327)">
          <path id="Path_179" data-name="Path 179" d="M66.322,17.868q.44.584.828,1.209c.055.033.11.062.165.1a7.749,7.749,0,0,0-.1-.872,7.886,7.886,0,0,0-.9-.483Z" transform="translate(-66.315 -17.817)" fill="#9a441f"/>
        </g>
        <g id="Group_169" data-name="Group 169" transform="translate(31.512 13.481)">
          <path id="Path_180" data-name="Path 180" d="M73.739,33.6a2.145,2.145,0,0,0,.124-.9,2.262,2.262,0,0,0-.389-.883,8.157,8.157,0,0,1-.281.92A7.827,7.827,0,0,1,73.739,33.6Z" transform="translate(-73.194 -31.818)" fill="#9a441f"/>
        </g>
        <g id="Group_170" data-name="Group 170" transform="translate(28.439 25.533)">
          <path id="Path_181" data-name="Path 181" d="M66.3,59.337c.005-.033.009-.065.014-.1-.036.047-.074.093-.11.14Z" transform="translate(-66.203 -59.239)" fill="#9a441f"/>
        </g>
        <g id="Group_171" data-name="Group 171" transform="translate(31.44 14.558)">
          <path id="Path_182" data-name="Path 182" d="M73.588,35.147a7.5,7.5,0,0,0-.542-.879l-.016.04q.093.742.113,1.5c.029.051.058.1.088.152A7.24,7.24,0,0,0,73.588,35.147Z" transform="translate(-73.03 -34.268)" fill="#9a441f"/>
        </g>
        <g id="Group_172" data-name="Group 172" transform="translate(27.208 5.818)">
          <path id="Path_183" data-name="Path 183" d="M63.43,14.487a15.38,15.38,0,0,1,1.02,1.152l.051.021a7.708,7.708,0,0,0-.233-.955,7.607,7.607,0,0,0-.866-.322C63.412,14.419,63.42,14.452,63.43,14.487Z" transform="translate(-63.401 -14.384)" fill="#9a441f"/>
        </g>
        <g id="Group_173" data-name="Group 173" transform="translate(31.72 15.604)">
          <path id="Path_184" data-name="Path 184" d="M73.667,37.446a8.071,8.071,0,0,1,.4.879,2.075,2.075,0,0,0,.2-.791,2.23,2.23,0,0,0-.242-.885A8.13,8.13,0,0,1,73.667,37.446Z" transform="translate(-73.667 -36.649)" fill="#9a441f"/>
        </g>
        <g id="Group_174" data-name="Group 174" transform="translate(31.485 16.55)">
          <path id="Path_185" data-name="Path 185" d="M73.288,38.8c-.027.051-.056.1-.084.15-.006.442-.028.879-.071,1.312.032.076.064.151.094.229a6.417,6.417,0,0,0,.463-.789A6.9,6.9,0,0,0,73.288,38.8Z" transform="translate(-73.133 -38.8)" fill="#9a441f"/>
        </g>
        <g id="Group_175" data-name="Group 175" transform="translate(31.559 16.397)">
          <path id="Path_186" data-name="Path 186" d="M73.306,38.458l0-.006v.012Z" transform="translate(-73.302 -38.452)" fill="#9a441f"/>
        </g>
        <g id="Group_176" data-name="Group 176" transform="translate(31.13 18.535)">
          <path id="Path_187" data-name="Path 187" d="M72.987,44.158a6.836,6.836,0,0,0-.249-.841c-.049.069-.1.132-.15.2-.068.454-.158.9-.264,1.339.009.036.019.069.028.1a7.259,7.259,0,0,0,.634-.8Z" transform="translate(-72.325 -43.317)" fill="#9a441f"/>
        </g>
        <g id="Group_177" data-name="Group 177" transform="translate(31.43 18.292)">
          <path id="Path_188" data-name="Path 188" d="M73.063,42.849c-.011-.029-.023-.056-.034-.085-.006.053-.013.106-.02.159C73.026,42.9,73.045,42.874,73.063,42.849Z" transform="translate(-73.008 -42.764)" fill="#9a441f"/>
        </g>
        <g id="Group_178" data-name="Group 178" transform="translate(31.087 12.631)">
          <path id="Path_189" data-name="Path 189" d="M72.253,29.884c-.008.033-.017.064-.025.1a15.02,15.02,0,0,1,.308,1.51l.021.028a7.676,7.676,0,0,0,.275-.935A7.722,7.722,0,0,0,72.253,29.884Z" transform="translate(-72.228 -29.884)" fill="#9a441f"/>
        </g>
        <g id="Group_179" data-name="Group 179" transform="translate(19.524 1.065)">
          <path id="Path_190" data-name="Path 190" d="M47.581,4.094a2.226,2.226,0,0,0-.824-.481,1.494,1.494,0,0,0-.352-.041,2.91,2.91,0,0,0-.487.047,8.114,8.114,0,0,1,.778.634A8.09,8.09,0,0,1,47.581,4.094Z" transform="translate(-45.919 -3.572)" fill="#9a441f"/>
        </g>
        <g id="Group_180" data-name="Group 180" transform="translate(22.259 30.386)">
          <path id="Path_191" data-name="Path 191" d="M52.218,70.339c.016-.019.03-.039.044-.059l-.12.051Z" transform="translate(-52.142 -70.28)" fill="#9a441f"/>
        </g>
        <g id="Group_181" data-name="Group 181" transform="translate(23.911 3.358)">
          <path id="Path_192" data-name="Path 192" d="M55.948,8.813l-.016-.026H55.9Z" transform="translate(-55.9 -8.787)" fill="#9a441f"/>
        </g>
        <g id="Group_182" data-name="Group 182" transform="translate(22.284 2.497)">
          <path id="Path_193" data-name="Path 193" d="M52.2,6.87l.014.018a15.023,15.023,0,0,1,1.371.659h.185a7.076,7.076,0,0,0-.527-.712c-.084,0-.17-.007-.261-.007C52.727,6.831,52.461,6.846,52.2,6.87Z" transform="translate(-52.2 -6.829)" fill="#9a441f"/>
        </g>
        <g id="Group_183" data-name="Group 183" transform="translate(26.799 4.705)">
          <path id="Path_194" data-name="Path 194" d="M63.685,13.111a2.286,2.286,0,0,0-.483-.839,2.116,2.116,0,0,0-.731-.42,8.071,8.071,0,0,1,.361.952A8.614,8.614,0,0,1,63.685,13.111Z" transform="translate(-62.471 -11.852)" fill="#9a441f"/>
        </g>
        <g id="Group_184" data-name="Group 184" transform="translate(20.425 1.711)">
          <path id="Path_195" data-name="Path 195" d="M48.045,5.263a14.973,14.973,0,0,1,1.488.5l.024,0a7.731,7.731,0,0,0-.686-.72,7.425,7.425,0,0,0-.9.149C48,5.214,48.019,5.239,48.045,5.263Z" transform="translate(-47.969 -5.04)" fill="#9a441f"/>
        </g>
        <g id="Group_185" data-name="Group 185" transform="translate(18.496 1.15)">
          <path id="Path_196" data-name="Path 196" d="M43.78,4.161c.455.068.9.159,1.342.266l.1-.028a7.265,7.265,0,0,0-.8-.634,6.7,6.7,0,0,0-.841.247C43.65,4.061,43.713,4.111,43.78,4.161Z" transform="translate(-43.581 -3.765)" fill="#9a441f"/>
        </g>
        <g id="Group_186" data-name="Group 186" transform="translate(17.6 0.733)">
          <path id="Path_197" data-name="Path 197" d="M43.116,3.128a2.1,2.1,0,0,0-.779-.308,2.022,2.022,0,0,0-.8.1,7.192,7.192,0,0,1,.76.461,7.576,7.576,0,0,1,.815-.255Z" transform="translate(-41.542 -2.815)" fill="#9a441f"/>
        </g>
        <g id="Group_187" data-name="Group 187" transform="translate(21.508 1.688)">
          <path id="Path_198" data-name="Path 198" d="M51.99,5.663c.047,0,.092,0,.137,0a2.205,2.205,0,0,0-.728-.559,1.923,1.923,0,0,0-.724-.118c-.078,0-.158,0-.24.007a8.549,8.549,0,0,1,.669.717,8.824,8.824,0,0,1,.887-.05Z" transform="translate(-50.434 -4.988)" fill="#9a441f"/>
        </g>
        <g id="Group_188" data-name="Group 188" transform="translate(25.493 4.391)">
          <path id="Path_199" data-name="Path 199" d="M59.64,11.248c-.015-.032-.027-.064-.044-.1l-.1-.014C59.549,11.174,59.594,11.212,59.64,11.248Z" transform="translate(-59.5 -11.139)" fill="#9a441f"/>
        </g>
        <g id="Group_189" data-name="Group 189" transform="translate(25.267 3.511)">
          <path id="Path_200" data-name="Path 200" d="M60.247,10.1a2.058,2.058,0,0,0-.516-.654,2.055,2.055,0,0,0-.744-.308,7.543,7.543,0,0,1,.42.77A7.583,7.583,0,0,1,60.247,10.1Z" transform="translate(-58.987 -9.137)" fill="#9a441f"/>
        </g>
        <g id="Group_190" data-name="Group 190" transform="translate(25.758 4.435)">
          <path id="Path_201" data-name="Path 201" d="M60.209,11.486q.533.427,1.026.9l.109.029a7.427,7.427,0,0,0-.384-.967,6.787,6.787,0,0,0-.857-.207C60.14,11.321,60.174,11.4,60.209,11.486Z" transform="translate(-60.103 -11.239)" fill="#9a441f"/>
        </g>
        <g id="Group_191" data-name="Group 191" transform="translate(23.512 2.517)">
          <path id="Path_202" data-name="Path 202" d="M56.449,7.668a2.063,2.063,0,0,0-.581-.567,2.148,2.148,0,0,0-.876-.226,7.994,7.994,0,0,1,.51.706A7.75,7.75,0,0,1,56.449,7.668Z" transform="translate(-54.993 -6.875)" fill="#9a441f"/>
        </g>
        <g id="Group_192" data-name="Group 192" transform="translate(24.059 29.508)">
          <path id="Path_203" data-name="Path 203" d="M56.271,68.311l.017-.029-.051.029Z" transform="translate(-56.237 -68.282)" fill="#9a441f"/>
        </g>
        <g id="Group_193" data-name="Group 193" transform="translate(24.109 3.363)">
          <path id="Path_204" data-name="Path 204" d="M56.448,8.963c.36.216.709.449,1.05.694.088.011.176.022.264.035a6.764,6.764,0,0,0-.44-.785,6.84,6.84,0,0,0-.971-.106C56.385,8.855,56.416,8.909,56.448,8.963Z" transform="translate(-56.351 -8.8)" fill="#9a441f"/>
        </g>
        <g id="Group_194" data-name="Group 194" transform="translate(15.567 0.619)">
          <path id="Path_205" data-name="Path 205" d="M38.6,2.756a2.082,2.082,0,0,0-.8-.2,2.2,2.2,0,0,0-.883.241,8.242,8.242,0,0,1,.8.363,7.78,7.78,0,0,1,.882-.4Z" transform="translate(-36.918 -2.556)" fill="#9a441f"/>
        </g>
        <g id="Group_195" data-name="Group 195" transform="translate(24.258 28.527)">
          <path id="Path_206" data-name="Path 206" d="M58,66.057q-.584.442-1.209.828c-.032.055-.062.11-.1.165a7.111,7.111,0,0,0,.872-.1,7.38,7.38,0,0,0,.484-.9Z" transform="translate(-56.691 -66.05)" fill="#9a441f"/>
        </g>
        <g id="Group_196" data-name="Group 196" transform="translate(23.616 29.586)">
          <path id="Path_207" data-name="Path 207" d="M55.229,69.325A2.031,2.031,0,0,0,56,69.11a2.2,2.2,0,0,0,.64-.651,7.869,7.869,0,0,1-.855.083A7.418,7.418,0,0,1,55.229,69.325Z" transform="translate(-55.229 -68.459)" fill="#9a441f"/>
        </g>
        <g id="Group_197" data-name="Group 197" transform="translate(1.415 14.528)">
          <path id="Path_208" data-name="Path 208" d="M4.776,34.2c-.018.026-.038.05-.056.076.011.029.024.058.036.088C4.762,34.308,4.769,34.254,4.776,34.2Z" transform="translate(-4.72 -34.2)" fill="#9a441f"/>
        </g>
        <g id="Group_198" data-name="Group 198" transform="translate(21.806 30.588)">
          <path id="Path_209" data-name="Path 209" d="M51.7,70.738a7.5,7.5,0,0,1-.592.642,1.7,1.7,0,0,0,1.488-.615c-.074,0-.151,0-.229,0C52.154,70.765,51.929,70.756,51.7,70.738Z" transform="translate(-51.112 -70.738)" fill="#9a441f"/>
        </g>
        <g id="Group_199" data-name="Group 199" transform="translate(26.976 26.837)">
          <path id="Path_210" data-name="Path 210" d="M62.873,63.421a2.255,2.255,0,0,0,.84-.484,2.083,2.083,0,0,0,.422-.731,8.146,8.146,0,0,1-.955.363A8.557,8.557,0,0,1,62.873,63.421Z" transform="translate(-62.873 -62.206)" fill="#9a441f"/>
        </g>
        <g id="Group_200" data-name="Group 200" transform="translate(25.317 28.282)">
          <path id="Path_211" data-name="Path 211" d="M59.1,66.6a2.194,2.194,0,0,0,.841-.342,2.234,2.234,0,0,0,.564-.768,8.54,8.54,0,0,1-.943.22A7.985,7.985,0,0,1,59.1,66.6Z" transform="translate(-59.1 -65.492)" fill="#9a441f"/>
        </g>
        <g id="Group_201" data-name="Group 201" transform="translate(25.846 27.248)">
          <path id="Path_212" data-name="Path 212" d="M61.475,63.169a15.242,15.242,0,0,1-1.151,1.018l-.021.051a7.559,7.559,0,0,0,.955-.232,7.979,7.979,0,0,0,.321-.866Z" transform="translate(-60.303 -63.14)" fill="#9a441f"/>
        </g>
        <g id="Group_202" data-name="Group 202" transform="translate(22.502 29.678)">
          <path id="Path_213" data-name="Path 213" d="M54,68.67q-.564.316-1.158.584c-.05.065-.1.132-.151.2.189.014.379.022.563.022.128,0,.246,0,.36-.012a6.821,6.821,0,0,0,.579-.791Z" transform="translate(-52.696 -68.668)" fill="#9a441f"/>
        </g>
        <g id="Group_203" data-name="Group 203" transform="translate(15.66 31.758)">
          <path id="Path_214" data-name="Path 214" d="M37.129,73.806a2.073,2.073,0,0,0,.791.2,2.218,2.218,0,0,0,.883-.241,8.205,8.205,0,0,1-.794-.362,7.776,7.776,0,0,1-.88.4Z" transform="translate(-37.129 -73.401)" fill="#9a441f"/>
        </g>
        <g id="Group_204" data-name="Group 204" transform="translate(13.726 31.679)">
          <path id="Path_215" data-name="Path 215" d="M32.729,73.476a2.073,2.073,0,0,0,.779.31,2.022,2.022,0,0,0,.8-.1,7.185,7.185,0,0,1-.76-.463A7.541,7.541,0,0,1,32.729,73.476Z" transform="translate(-32.729 -73.222)" fill="#9a441f"/>
        </g>
        <g id="Group_205" data-name="Group 205" transform="translate(14.699 31.524)">
          <path id="Path_216" data-name="Path 216" d="M36.48,72.939c-.44-.006-.876-.028-1.306-.071-.077.032-.152.065-.231.1a6.581,6.581,0,0,0,.791.463,7.12,7.12,0,0,0,.9-.4C36.581,73,36.531,72.97,36.48,72.939Z" transform="translate(-34.942 -72.868)" fill="#9a441f"/>
        </g>
        <g id="Group_206" data-name="Group 206" transform="translate(20.593 30.543)">
          <path id="Path_217" data-name="Path 217" d="M49.991,70.664c-.082-.008-.16-.019-.241-.028q-.646.255-1.319.452c-.027.026-.051.052-.078.078a7.078,7.078,0,0,0,1.024.147A7.268,7.268,0,0,0,49.991,70.664Z" transform="translate(-48.353 -70.636)" fill="#9a441f"/>
        </g>
        <g id="Group_207" data-name="Group 207" transform="translate(19.79 31.188)">
          <path id="Path_218" data-name="Path 218" d="M46.525,72.679a3.278,3.278,0,0,0,.54.055,1.555,1.555,0,0,0,.425-.049,2.083,2.083,0,0,0,.719-.422,7.95,7.95,0,0,1-1-.16A7.926,7.926,0,0,1,46.525,72.679Z" transform="translate(-46.525 -72.103)" fill="#9a441f"/>
        </g>
        <g id="Group_208" data-name="Group 208" transform="translate(17.683 31.552)">
          <path id="Path_219" data-name="Path 219" d="M41.732,73.476a2.59,2.59,0,0,0,.722.134,1.244,1.244,0,0,0,.171-.011,2.245,2.245,0,0,0,.883-.387,8.232,8.232,0,0,1-.92-.281,8.175,8.175,0,0,1-.856.545Z" transform="translate(-41.732 -72.931)" fill="#9a441f"/>
        </g>
        <g id="Group_209" data-name="Group 209" transform="translate(18.677 31.125)">
          <path id="Path_220" data-name="Path 220" d="M45.534,71.961a14.971,14.971,0,0,1-1.513.308l-.029.022a7.9,7.9,0,0,0,.938.274,7.866,7.866,0,0,0,.7-.578Z" transform="translate(-43.992 -71.961)" fill="#9a441f"/>
        </g>
        <g id="Group_210" data-name="Group 210" transform="translate(16.687 31.478)">
          <path id="Path_221" data-name="Path 221" d="M41.12,72.763q-.741.093-1.5.113c-.052.029-.1.059-.153.088a7.486,7.486,0,0,0,.818.358,7.3,7.3,0,0,0,.876-.543Z" transform="translate(-39.465 -72.763)" fill="#9a441f"/>
        </g>
        <g id="Group_211" data-name="Group 211" transform="translate(29.639 8.937)">
          <path id="Path_222" data-name="Path 222" d="M68.933,21.481c0,.065,0,.128,0,.193q.316.564.583,1.158c.065.05.129.1.193.149a6.623,6.623,0,0,0,.012-.923,6.716,6.716,0,0,0-.791-.578Z" transform="translate(-68.933 -21.481)" fill="#9a441f"/>
        </g>
        <g id="Group_212" data-name="Group 212" transform="translate(30.509 20.464)">
          <path id="Path_223" data-name="Path 223" d="M71.634,48.606a7.2,7.2,0,0,0-.15-.9l-.076.077a14.974,14.974,0,0,1-.5,1.479c0,.01,0,.019,0,.029A8.058,8.058,0,0,0,71.634,48.606Z" transform="translate(-70.911 -47.706)" fill="#9a441f"/>
        </g>
        <g id="Group_213" data-name="Group 213" transform="translate(30.507 10.71)">
          <path id="Path_224" data-name="Path 224" d="M71.435,27.152a7.2,7.2,0,0,0,.148-1.022,7.048,7.048,0,0,0-.647-.615c-.008.083-.019.162-.029.243q.255.644.451,1.316C71.384,27.1,71.41,27.125,71.435,27.152Z" transform="translate(-70.908 -25.514)" fill="#9a441f"/>
        </g>
        <g id="Group_214" data-name="Group 214" transform="translate(30.53 21.546)">
          <path id="Path_225" data-name="Path 225" d="M70.959,50.837a8.714,8.714,0,0,1,.048,1.025,2.22,2.22,0,0,0,.556-.727,2.252,2.252,0,0,0,.112-.967A8.385,8.385,0,0,1,70.959,50.837Z" transform="translate(-70.959 -50.168)" fill="#9a441f"/>
        </g>
        <g id="Group_215" data-name="Group 215">
          <path id="Path_226" data-name="Path 226" d="M17.991,1.148a16.49,16.49,0,1,0,16.491,16.49A16.49,16.49,0,0,0,17.991,1.148ZM33.839,19.6a2.417,2.417,0,0,1-.4.95,2.455,2.455,0,0,1,.03,1.032,2.556,2.556,0,0,1-.595.976,2.57,2.57,0,0,1-.112,1.154,2.519,2.519,0,0,1-.692.868,2.461,2.461,0,0,1-.254,1.062,2.362,2.362,0,0,1-.716.7A1.874,1.874,0,0,1,29.914,27.9a2.45,2.45,0,0,1-.5.912,2.581,2.581,0,0,1-1.014.563,2.555,2.555,0,0,1-.66.932,2.449,2.449,0,0,1-1.027.4,2.509,2.509,0,0,1-.756.8,2.345,2.345,0,0,1-.967.248,2.409,2.409,0,0,1-.791.626,2.283,2.283,0,0,1-.905.138c-.041,0-.084,0-.126-.006a2.41,2.41,0,0,1-.871.54,1.743,1.743,0,0,1-.463.055,3.616,3.616,0,0,1-.687-.082A2.568,2.568,0,0,1,20.1,33.5a1.189,1.189,0,0,1-.189.012,2.88,2.88,0,0,1-.889-.182,2.524,2.524,0,0,1-1.066.312,2.4,2.4,0,0,1-.974-.269,2.608,2.608,0,0,1-.851.16,1.142,1.142,0,0,1-.136-.01,2.407,2.407,0,0,1-.951-.4,3.139,3.139,0,0,1-.648.074h0a1.607,1.607,0,0,1-.385-.044,2.555,2.555,0,0,1-.977-.6c-.129.011-.256.018-.377.018a2.11,2.11,0,0,1-.775-.129,2.527,2.527,0,0,1-.869-.693A2.451,2.451,0,0,1,9.95,31.5a2.365,2.365,0,0,1-.7-.719,2.356,2.356,0,0,1-.934-.365,2.408,2.408,0,0,1-.619-.821,2.417,2.417,0,0,1-.911-.5,2.59,2.59,0,0,1-.563-1.011,2.536,2.536,0,0,1-.933-.659,2.505,2.505,0,0,1-.4-1.031,2.483,2.483,0,0,1-.8-.758,2.33,2.33,0,0,1-.248-.969,2.392,2.392,0,0,1-.627-.791,2.432,2.432,0,0,1-.132-1.031,2.4,2.4,0,0,1-.538-.872,2.547,2.547,0,0,1,.025-1.151,2.568,2.568,0,0,1-.48-1.046,2.468,2.468,0,0,1,.168-1.08,2.536,2.536,0,0,1-.31-1.065,2.4,2.4,0,0,1,.27-.975,2.357,2.357,0,0,1-.153-.987,2.412,2.412,0,0,1,.405-.949A2.437,2.437,0,0,1,2.437,13.7a2.563,2.563,0,0,1,.593-.977,2.606,2.606,0,0,1,.113-1.154,2.528,2.528,0,0,1,.692-.867,2.447,2.447,0,0,1,.254-1.064,2.366,2.366,0,0,1,.717-.7A2.374,2.374,0,0,1,5.174,8a2.38,2.38,0,0,1,.818-.618,2.434,2.434,0,0,1,.5-.912A2.558,2.558,0,0,1,7.5,5.9a2.53,2.53,0,0,1,.659-.934,2.461,2.461,0,0,1,1.028-.4,2.489,2.489,0,0,1,.757-.8,2.33,2.33,0,0,1,.967-.247,2.39,2.39,0,0,1,.791-.627,2.262,2.262,0,0,1,.905-.138c.04,0,.085,0,.126.006a2.4,2.4,0,0,1,.871-.54,1.68,1.68,0,0,1,.462-.055,3.6,3.6,0,0,1,.687.081,2.572,2.572,0,0,1,1.047-.483A1.4,1.4,0,0,1,16,1.76a2.9,2.9,0,0,1,.888.182A2.519,2.519,0,0,1,17.95,1.63a2.407,2.407,0,0,1,.978.271,2.357,2.357,0,0,1,.983-.152,2.4,2.4,0,0,1,.951.4,3.135,3.135,0,0,1,.647-.075,1.6,1.6,0,0,1,.385.044,2.554,2.554,0,0,1,.979.6c.129-.011.254-.018.377-.017a2.121,2.121,0,0,1,.775.127,2.535,2.535,0,0,1,.869.693,2.445,2.445,0,0,1,1.061.253,2.344,2.344,0,0,1,.7.719,2.382,2.382,0,0,1,.935.365,2.415,2.415,0,0,1,.618.82,2.426,2.426,0,0,1,.91.5,2.6,2.6,0,0,1,.563,1.014,2.528,2.528,0,0,1,.934.659,2.505,2.505,0,0,1,.4,1.027,2.5,2.5,0,0,1,.8.757,2.364,2.364,0,0,1,.248.97,2.4,2.4,0,0,1,.626.791,2.424,2.424,0,0,1,.132,1.03,2.389,2.389,0,0,1,.54.873,2.559,2.559,0,0,1-.025,1.15,2.593,2.593,0,0,1,.48,1.046,2.487,2.487,0,0,1-.168,1.08,2.515,2.515,0,0,1,.31,1.064,2.39,2.39,0,0,1-.27.976A2.321,2.321,0,0,1,33.839,19.6Z" transform="translate(-1.501 -1.148)" fill="#9a441f"/>
        </g>
        <g id="Group_217" data-name="Group 217" transform="translate(31.64 17.639)">
          <path id="Path_227" data-name="Path 227" d="M73.485,42.039a7.33,7.33,0,0,1,.254.817,2.094,2.094,0,0,0,.311-.781,2.017,2.017,0,0,0-.1-.8,6.971,6.971,0,0,1-.462.76Z" transform="translate(-73.485 -41.279)" fill="#9a441f"/>
        </g>
        <g id="Group_218" data-name="Group 218" transform="translate(31.194 19.56)">
          <path id="Path_228" data-name="Path 228" d="M72.471,46.431a7.893,7.893,0,0,1,.158.885,2.222,2.222,0,0,0,.483-.825,2.113,2.113,0,0,0,0-.841A8.025,8.025,0,0,1,72.471,46.431Z" transform="translate(-72.471 -45.65)" fill="#9a441f"/>
        </g>
        <g id="Group_219" data-name="Group 219" transform="translate(28.47 25.304)">
          <path id="Path_229" data-name="Path 229" d="M66.273,59.979a2.065,2.065,0,0,0,.651-.515,2.028,2.028,0,0,0,.313-.747,7.3,7.3,0,0,1-.774.421A7.462,7.462,0,0,1,66.273,59.979Z" transform="translate(-66.273 -58.717)" fill="#9a441f"/>
        </g>
        <g id="Group_220" data-name="Group 220" transform="translate(29.554 23.946)">
          <path id="Path_230" data-name="Path 230" d="M68.771,55.663v-.035l-.031.054Z" transform="translate(-68.74 -55.628)" fill="#9a441f"/>
        </g>
        <g id="Group_221" data-name="Group 221" transform="translate(30.347 10.558)">
          <path id="Path_231" data-name="Path 231" d="M70.6,25.214l-.059-.046.051.12C70.6,25.263,70.6,25.239,70.6,25.214Z" transform="translate(-70.544 -25.168)" fill="#9a441f"/>
        </g>
        <g id="Group_222" data-name="Group 222" transform="translate(29.549 7.915)">
          <path id="Path_232" data-name="Path 232" d="M69.592,20.566a2.036,2.036,0,0,0-.215-.773,2.2,2.2,0,0,0-.649-.638,7.868,7.868,0,0,1,.084.854A7.548,7.548,0,0,1,69.592,20.566Z" transform="translate(-68.727 -19.155)" fill="#9a441f"/>
        </g>
        <g id="Group_223" data-name="Group 223" transform="translate(28.688 24.149)">
          <path id="Path_233" data-name="Path 233" d="M66.805,57.229c-.012.09-.022.179-.036.27a6.687,6.687,0,0,0,.786-.443,6.9,6.9,0,0,0,.1-.967c-.056.035-.11.065-.166.1C67.279,56.544,67.046,56.891,66.805,57.229Z" transform="translate(-66.769 -56.089)" fill="#9a441f"/>
        </g>
        <g id="Group_224" data-name="Group 224" transform="translate(29.724 22.322)">
          <path id="Path_234" data-name="Path 234" d="M69.786,51.948a15.1,15.1,0,0,1-.659,1.367V53.5a7,7,0,0,0,.709-.523,7.577,7.577,0,0,0-.033-1.044Z" transform="translate(-69.127 -51.934)" fill="#9a441f"/>
        </g>
        <g id="Group_225" data-name="Group 225" transform="translate(29.633 23.552)">
          <path id="Path_235" data-name="Path 235" d="M68.919,56.185a2.072,2.072,0,0,0,.563-.578,2.16,2.16,0,0,0,.225-.875,7.9,7.9,0,0,1-.7.506A7.768,7.768,0,0,1,68.919,56.185Z" transform="translate(-68.919 -54.732)" fill="#9a441f"/>
        </g>
        <g id="Group_226" data-name="Group 226" transform="translate(27.331 25.797)">
          <path id="Path_236" data-name="Path 236" d="M64.608,59.946q-.426.533-.9,1.025c-.01.037-.019.073-.029.11a7.329,7.329,0,0,0,.969-.385,6.7,6.7,0,0,0,.207-.857C64.774,59.877,64.691,59.91,64.608,59.946Z" transform="translate(-63.681 -59.839)" fill="#9a441f"/>
        </g>
        <g id="Group_227" data-name="Group 227" transform="translate(2.487 23.654)">
          <path id="Path_237" data-name="Path 237" d="M7.16,54.963a2.025,2.025,0,0,0,.216.773,2.2,2.2,0,0,0,.647.638,7.878,7.878,0,0,1-.083-.853A7.582,7.582,0,0,1,7.16,54.963Z" transform="translate(-7.16 -54.963)" fill="#9a441f"/>
        </g>
        <g id="Group_228" data-name="Group 228" transform="translate(0.691 13.764)">
          <path id="Path_238" data-name="Path 238" d="M3.643,33.28a7.467,7.467,0,0,1-.254-.817,2.092,2.092,0,0,0-.311.781,2.045,2.045,0,0,0,.1.8A7.376,7.376,0,0,1,3.643,33.28Z" transform="translate(-3.073 -32.463)" fill="#9a441f"/>
        </g>
        <g id="Group_229" data-name="Group 229" transform="translate(12.761 31.169)">
          <path id="Path_239" data-name="Path 239" d="M31.976,72.324c-.453-.068-.9-.158-1.338-.264l-.105.028a7.389,7.389,0,0,0,.8.635,6.875,6.875,0,0,0,.841-.25C32.107,72.424,32.043,72.374,31.976,72.324Z" transform="translate(-30.533 -72.06)" fill="#9a441f"/>
        </g>
        <g id="Group_230" data-name="Group 230" transform="translate(0.714 17.722)">
          <path id="Path_240" data-name="Path 240" d="M3.254,41.467a2.137,2.137,0,0,0-.124.894,2.258,2.258,0,0,0,.388.882,8.2,8.2,0,0,1,.281-.92,7.887,7.887,0,0,1-.545-.856Z" transform="translate(-3.124 -41.467)" fill="#9a441f"/>
        </g>
        <g id="Group_231" data-name="Group 231" transform="translate(1.71 21.845)">
          <path id="Path_241" data-name="Path 241" d="M5.518,51.684a2.062,2.062,0,0,0,.492.652,7.824,7.824,0,0,1,.024-.9,7.49,7.49,0,0,1-.64-.592,2.11,2.11,0,0,0,.124.836Z" transform="translate(-5.391 -50.848)" fill="#9a441f"/>
        </g>
        <g id="Group_232" data-name="Group 232" transform="translate(2.46 22.541)">
          <path id="Path_242" data-name="Path 242" d="M7.9,53.735q-.315-.563-.582-1.154c-.065-.051-.132-.1-.2-.151a6.9,6.9,0,0,0-.011.923,6.865,6.865,0,0,0,.791.581C7.9,53.867,7.9,53.8,7.9,53.735Z" transform="translate(-7.098 -52.43)" fill="#9a441f"/>
        </g>
        <g id="Group_233" data-name="Group 233" transform="translate(1.719 20.633)">
          <path id="Path_243" data-name="Path 243" d="M5.558,48.09a7.192,7.192,0,0,0-.147,1.022,6.679,6.679,0,0,0,.647.615c.008-.083.019-.162.028-.243q-.254-.644-.451-1.315C5.61,48.141,5.582,48.117,5.558,48.09Z" transform="translate(-5.411 -48.09)" fill="#9a441f"/>
        </g>
        <g id="Group_234" data-name="Group 234" transform="translate(1.122 19.831)">
          <path id="Path_244" data-name="Path 244" d="M4.108,46.265a2.239,2.239,0,0,0,0,.963,2.022,2.022,0,0,0,.421.718,7.571,7.571,0,0,1,.157-1A8.413,8.413,0,0,1,4.108,46.265Z" transform="translate(-4.054 -46.265)" fill="#9a441f"/>
        </g>
        <g id="Group_235" data-name="Group 235" transform="translate(1.338 16.571)">
          <path id="Path_245" data-name="Path 245" d="M4.549,38.863v-.015l0,.007Z" transform="translate(-4.545 -38.848)" fill="#9a441f"/>
        </g>
        <g id="Group_236" data-name="Group 236" transform="translate(0.86 14.74)">
          <path id="Path_246" data-name="Path 246" d="M3.857,36.373c.028-.052.057-.1.085-.153.006-.44.028-.879.071-1.309-.032-.077-.064-.151-.095-.23a6.36,6.36,0,0,0-.462.789,6.966,6.966,0,0,0,.4.9Z" transform="translate(-3.457 -34.682)" fill="#9a441f"/>
        </g>
        <g id="Group_237" data-name="Group 237" transform="translate(1.026 11.754)">
          <path id="Path_247" data-name="Path 247" d="M4.515,28.773a7.923,7.923,0,0,1-.157-.884,2.242,2.242,0,0,0-.483.825,2.091,2.091,0,0,0,.007.84,7.911,7.911,0,0,1,.633-.782Z" transform="translate(-3.836 -27.889)" fill="#9a441f"/>
        </g>
        <g id="Group_238" data-name="Group 238" transform="translate(0.903 16.725)">
          <path id="Path_248" data-name="Path 248" d="M4.1,40.9c0-.013.01-.025.015-.038A15.038,15.038,0,0,1,4,39.353c-.029-.051-.059-.1-.088-.153a7.473,7.473,0,0,0-.358.818A7.268,7.268,0,0,0,4.1,40.9Z" transform="translate(-3.556 -39.2)" fill="#9a441f"/>
        </g>
        <g id="Group_239" data-name="Group 239" transform="translate(1.645 9.74)">
          <path id="Path_249" data-name="Path 249" d="M5.968,24.333a8.922,8.922,0,0,1-.044-1.026,2.215,2.215,0,0,0-.558.728A2.268,2.268,0,0,0,5.254,25a8.484,8.484,0,0,1,.713-.667Z" transform="translate(-5.243 -23.307)" fill="#9a441f"/>
        </g>
        <g id="Group_240" data-name="Group 240" transform="translate(1.21 18.715)">
          <path id="Path_250" data-name="Path 250" d="M4.833,45.36c.007-.033.017-.063.025-.1a14.988,14.988,0,0,1-.308-1.509l-.022-.028a7.825,7.825,0,0,0-.275.935,7.194,7.194,0,0,0,.579.7Z" transform="translate(-4.254 -43.727)" fill="#9a441f"/>
        </g>
        <g id="Group_241" data-name="Group 241" transform="translate(0.58 15.7)">
          <path id="Path_251" data-name="Path 251" d="M3.421,37.745a8.024,8.024,0,0,1-.4-.879,2.086,2.086,0,0,0-.2.791,2.212,2.212,0,0,0,.242.885,8.532,8.532,0,0,1,.359-.8Z" transform="translate(-2.82 -36.866)" fill="#9a441f"/>
        </g>
        <g id="Group_242" data-name="Group 242" transform="translate(7.934 29.67)">
          <path id="Path_252" data-name="Path 252" d="M19.551,68.651a2.027,2.027,0,0,0,.579.566,2.178,2.178,0,0,0,.876.227,8.062,8.062,0,0,1-.51-.706A7.48,7.48,0,0,1,19.551,68.651Z" transform="translate(-19.551 -68.651)" fill="#9a441f"/>
        </g>
        <g id="Group_243" data-name="Group 243" transform="translate(7.381 28.725)">
          <path id="Path_253" data-name="Path 253" d="M19.606,67.227c-.359-.215-.706-.447-1.045-.691-.088-.012-.176-.022-.268-.036a6.612,6.612,0,0,0,.44.786,6.872,6.872,0,0,0,.971.107C19.671,67.335,19.639,67.282,19.606,67.227Z" transform="translate(-18.293 -66.5)" fill="#9a441f"/>
        </g>
        <g id="Group_244" data-name="Group 244" transform="translate(9.048 29.761)">
          <path id="Path_254" data-name="Path 254" d="M23.656,69.536l-.015-.018a14.7,14.7,0,0,1-1.367-.659h-.188a6.975,6.975,0,0,0,.527.711c.084,0,.17.007.26.007A6.731,6.731,0,0,0,23.656,69.536Z" transform="translate(-22.087 -68.858)" fill="#9a441f"/>
        </g>
        <g id="Group_245" data-name="Group 245" transform="translate(10.887 30.545)">
          <path id="Path_255" data-name="Path 255" d="M27.781,71.14a14.825,14.825,0,0,1-1.483-.5l-.027,0a7.785,7.785,0,0,0,.687.72,7.579,7.579,0,0,0,.9-.149Z" transform="translate(-26.271 -70.642)" fill="#9a441f"/>
        </g>
        <g id="Group_246" data-name="Group 246" transform="translate(9.698 30.567)">
          <path id="Path_256" data-name="Path 256" d="M23.7,70.739h-.137a2.228,2.228,0,0,0,.73.558,1.968,1.968,0,0,0,.724.119c.078,0,.158,0,.24-.008a8.265,8.265,0,0,1-.668-.717C24.293,70.721,23.991,70.739,23.7,70.739Z" transform="translate(-23.565 -70.691)" fill="#9a441f"/>
        </g>
        <g id="Group_247" data-name="Group 247" transform="translate(11.715 31.235)">
          <path id="Path_257" data-name="Path 257" d="M28.153,72.368a2.212,2.212,0,0,0,.825.483,1.5,1.5,0,0,0,.352.04,2.926,2.926,0,0,0,.487-.047,7.961,7.961,0,0,1-.78-.634A7.965,7.965,0,0,1,28.153,72.368Z" transform="translate(-28.153 -72.211)" fill="#9a441f"/>
        </g>
        <g id="Group_248" data-name="Group 248" transform="translate(3.323 7.422)">
          <path id="Path_258" data-name="Path 258" d="M9.915,18.3c.011-.088.022-.178.035-.269a6.889,6.889,0,0,0-.788.442,7.031,7.031,0,0,0-.1.967c.055-.034.109-.065.164-.1C9.441,18.985,9.672,18.64,9.915,18.3Z" transform="translate(-9.061 -18.033)" fill="#9a441f"/>
        </g>
        <g id="Group_249" data-name="Group 249" transform="translate(6.373 28.505)">
          <path id="Path_259" data-name="Path 259" d="M16,66a2.058,2.058,0,0,0,.516.654,2.036,2.036,0,0,0,.743.308,8.067,8.067,0,0,1-.419-.771A7.474,7.474,0,0,1,16,66Z" transform="translate(-16 -66)" fill="#9a441f"/>
        </g>
        <g id="Group_250" data-name="Group 250" transform="translate(3.411 24.298)">
          <path id="Path_260" data-name="Path 260" d="M10.255,57.732q-.44-.582-.826-1.206c-.057-.033-.112-.062-.168-.1a7.507,7.507,0,0,0,.1.871,7.481,7.481,0,0,0,.9.483C10.26,57.766,10.258,57.749,10.255,57.732Z" transform="translate(-9.261 -56.429)" fill="#9a441f"/>
        </g>
        <g id="Group_251" data-name="Group 251" transform="translate(3.403 24.098)">
          <path id="Path_261" data-name="Path 261" d="M9.243,55.974v.034l.029.017C9.262,56.008,9.253,55.991,9.243,55.974Z" transform="translate(-9.243 -55.974)" fill="#9a441f"/>
        </g>
        <g id="Group_252" data-name="Group 252" transform="translate(3.546 25.354)">
          <path id="Path_262" data-name="Path 262" d="M9.569,58.832a2.154,2.154,0,0,0,.344.841,2.225,2.225,0,0,0,.768.564,8.166,8.166,0,0,1-.22-.942A8.194,8.194,0,0,1,9.569,58.832Z" transform="translate(-9.569 -58.832)" fill="#9a441f"/>
        </g>
        <g id="Group_253" data-name="Group 253" transform="translate(4.887 27.016)">
          <path id="Path_263" data-name="Path 263" d="M12.619,62.612a2.282,2.282,0,0,0,.486.84,2.11,2.11,0,0,0,.732.42,8.279,8.279,0,0,1-.364-.953A8.281,8.281,0,0,1,12.619,62.612Z" transform="translate(-12.619 -62.612)" fill="#9a441f"/>
        </g>
        <g id="Group_254" data-name="Group 254" transform="translate(5.902 27.371)">
          <path id="Path_264" data-name="Path 264" d="M16.062,64.344q-.531-.425-1.022-.895l-.11-.03a7.392,7.392,0,0,0,.384.967,6.85,6.85,0,0,0,.856.209C16.131,64.51,16.1,64.428,16.062,64.344Z" transform="translate(-14.929 -63.419)" fill="#9a441f"/>
        </g>
        <g id="Group_255" data-name="Group 255" transform="translate(4.594 25.885)">
          <path id="Path_265" data-name="Path 265" d="M13.02,61.209a15.239,15.239,0,0,1-1.015-1.147l-.053-.022a7.643,7.643,0,0,0,.233.954,7.85,7.85,0,0,0,.865.322C13.039,61.281,13.031,61.246,13.02,61.209Z" transform="translate(-11.952 -60.04)" fill="#9a441f"/>
        </g>
      </g>
      <g id="Group_260" data-name="Group 260" transform="translate(6.763 11.482)">
        <path id="Path_266" data-name="Path 266" d="M16.887,38.988l.261-.491a3.29,3.29,0,0,0,2.136.773c1.249,0,1.749-.479,1.749-1.2,0-1.866-3.93-.491-3.93-3.008,0-.97.747-1.756,2.249-1.756a3.445,3.445,0,0,1,2.033.626l-.264.491a2.893,2.893,0,0,0-1.783-.578c-1.158,0-1.67.516-1.67,1.2,0,1.927,3.93.565,3.93,3.008,0,1.043-.829,1.756-2.34,1.756A3.542,3.542,0,0,1,16.887,38.988Z" transform="translate(-16.887 -30.651)" fill="url(#linear-gradient)"/>
        <path id="Path_267" data-name="Path 267" d="M33.582,27.27h.535V38.762h-.535Z" transform="translate(-26.244 -27.27)" fill="url(#linear-gradient)"/>
        <path id="Path_268" data-name="Path 268" d="M49.711,33.413l-2.249,6.411h-.534l-2-5.563-2.01,5.563H42.4l-2.249-6.411h.545l1.978,5.721,2.022-5.721h.489l2.008,5.707,2-5.709Z" transform="translate(-29.923 -30.712)" fill="url(#linear-gradient)"/>
      </g>
    </g>
  </g>
</svg>
