<svg id="Group_1621" data-name="Group 1621" xmlns="http://www.w3.org/2000/svg" xmlns:xlink="http://www.w3.org/1999/xlink" width="204.858" height="92.74" viewBox="0 0 204.858 92.74">
  <defs>
    <clipPath id="clip-path">
      <rect id="Rectangle_527" data-name="Rectangle 527" width="64.162" height="57.917" fill="none"/>
    </clipPath>
  </defs>
  <rect id="Rectangle_586" data-name="Rectangle 586" width="204.858" height="92.74" rx="1" fill="#fff"/>
  <g id="Group_935" data-name="Group 935" transform="translate(70.593 17.994)">
    <g id="Group_914" data-name="Group 914">
      <g id="Group_913" data-name="Group 913">
        <g id="Group_912" data-name="Group 912" clip-path="url(#clip-path)">
          <path id="Path_14129" data-name="Path 14129" d="M489.5,527.125a17.277,17.277,0,0,1-32.39,8.354l-2.8,2.475c.676-.112,1.752-.718,1.923-.456a19.075,19.075,0,0,0,35.077-10.39,13.358,13.358,0,0,1,.951-2.7Z" transform="translate(-440.12 -508.025)" fill="#e2832d"/>
          <path id="Path_14130" data-name="Path 14130" d="M418.771,19.083a17.277,17.277,0,0,1,33.66-5.485l2.947-2.814c-1.19.349-1.908.512-2.113.084A19.077,19.077,0,0,0,417.9,24.984c.128.391-.611,1.844-.725,2.47l2.512-2.809a17.246,17.246,0,0,1-.92-5.562" transform="translate(-403.942)" fill="#0284d3"/>
          <path id="Path_14131" data-name="Path 14131" d="M566.344,806.718a16.49,16.49,0,0,0,5.015,5.65V807.06l-3.117-2.032Z" transform="translate(-548.655 -779.885)" fill="#e2832d"/>
          <path id="Path_14132" data-name="Path 14132" d="M553.6,534.482v-5.21a.808.808,0,0,0-.808-.808h-3.971a.808.808,0,0,0-.808.808v5.836l2.237-2.447Z" transform="translate(-530.894 -511.959)" fill="#0284d3"/>
          <path id="Path_14133" data-name="Path 14133" d="M785.254,449.985V443.27a.808.808,0,0,0-.809-.808h-3.971a.808.808,0,0,0-.808.808v8.791l2.466,1.34Z" transform="translate(-755.315 -428.643)" fill="#0284d3"/>
          <path id="Path_14134" data-name="Path 14134" d="M779.663,885.066v5.257a16.266,16.266,0,0,0,5.587,1.808V884.44l-2.466,2.661Z" transform="translate(-755.312 -856.816)" fill="#e2832d"/>
          <path id="Path_14135" data-name="Path 14135" d="M1016.908,363.277v-6.009a.808.808,0,0,0-.808-.808h-3.971a.808.808,0,0,0-.808.808v7.6l3.055-3.344Z" transform="translate(-979.733 -345.327)" fill="#0284d3"/>
          <path id="Path_14136" data-name="Path 14136" d="M1011.32,714.336v9.6c.173.005.345.013.519.013a16.319,16.319,0,0,0,5.068-.806V712.09l-2.2-1.4Z" transform="translate(-979.733 -688.489)" fill="#e2832d"/>
          <path id="Path_14137" data-name="Path 14137" d="M1247.752,270.459h-3.97a.809.809,0,0,0-.809.808V281.1l2.52,1.746,3.067-3.108v-8.475a.808.808,0,0,0-.808-.808" transform="translate(-1204.151 -262.012)" fill="#0284d3"/>
          <path id="Path_14138" data-name="Path 14138" d="M1242.973,767.617v9.367a16.455,16.455,0,0,0,5.587-4.139V766.92l-2.638,2.575Z" transform="translate(-1204.151 -742.967)" fill="#e2832d"/>
          <path id="Path_14139" data-name="Path 14139" d="M325.264,302.783,334.7,292.5l7.416,4.091,7.857-8.5,6.536,4.594,11.191-11.3-1.02-1.125,5.315-.873-1.329,5.239-1.063-1.215-12.887,12.6-6.831-4.394-7.473,8.076-7.738-5.014Z" transform="translate(-315.105 -270.666)" fill="#fff"/>
          <path id="Path_14140" data-name="Path 14140" d="M3.194,1422.806a3.071,3.071,0,0,1-2.29-.922,3.315,3.315,0,0,1,0-4.55,3.08,3.08,0,0,1,2.29-.917,3.127,3.127,0,0,1,1.54.391,2.854,2.854,0,0,1,1.1,1.057l-1.044.6a1.618,1.618,0,0,0-.649-.645,1.925,1.925,0,0,0-.948-.232,1.927,1.927,0,0,0-1.444.561,2.2,2.2,0,0,0,0,2.9,1.925,1.925,0,0,0,1.444.561,1.956,1.956,0,0,0,.952-.232,1.571,1.571,0,0,0,.645-.637l1.044.606a2.865,2.865,0,0,1-1.1,1.058,3.124,3.124,0,0,1-1.544.39" transform="translate(0 -1372.179)" fill="#0284d3"/>
          <path id="Path_14141" data-name="Path 14141" d="M215.519,1426.495h-1.4l-2.194-2.877v2.877h-1.211v-6.142h1.211v2.707l2.106-2.707h1.4l-2.273,2.983Z" transform="translate(-204.138 -1375.99)" fill="#0284d3"/>
          <rect id="Rectangle_526" data-name="Rectangle 526" width="1.211" height="6.142" transform="translate(14.172 44.362)" fill="#0284d3"/>
          <path id="Path_14142" data-name="Path 14142" d="M532.588,1420.352H533.8v6.142h-.921l-2.633-3.756v3.756h-1.211v-6.142h.92l2.634,3.742Z" transform="translate(-512.511 -1375.99)" fill="#0284d3"/>
          <path id="Path_14143" data-name="Path 14143" d="M702.755,1426.495l-2.062-6.142h1.316l1.5,4.722,1.49-4.722h1.325l-2.071,6.142Z" transform="translate(-678.808 -1375.99)" fill="#0284d3"/>
          <path id="Path_14144" data-name="Path 14144" d="M901.095,1425.336h2.589v1.158h-3.8v-6.142h3.756v1.158h-2.545v1.308h2.325v1.141h-2.325Z" transform="translate(-871.778 -1375.99)" fill="#0284d3"/>
          <path id="Path_14145" data-name="Path 14145" d="M1041.086,1422.8a2.746,2.746,0,0,1-1.536-.408,2.184,2.184,0,0,1-.877-1.11l1.036-.606a1.378,1.378,0,0,0,1.413.939,1.218,1.218,0,0,0,.746-.184.58.58,0,0,0-.053-.969,4.436,4.436,0,0,0-1.035-.391,6.365,6.365,0,0,1-.7-.246,2.975,2.975,0,0,1-.57-.329,1.34,1.34,0,0,1-.434-.522,1.707,1.707,0,0,1-.149-.738,1.644,1.644,0,0,1,.592-1.329,2.15,2.15,0,0,1,1.426-.5,2.375,2.375,0,0,1,1.312.364,2.449,2.449,0,0,1,.882,1.014l-1.018.588a1.226,1.226,0,0,0-1.176-.79.927.927,0,0,0-.593.171.54.54,0,0,0-.215.443.558.558,0,0,0,.241.469,3.36,3.36,0,0,0,.925.391c.187.058.329.1.426.136s.228.082.395.149a2.483,2.483,0,0,1,.387.189,3.09,3.09,0,0,1,.311.237,1.226,1.226,0,0,1,.268.307,1.733,1.733,0,0,1,.158.382,1.716,1.716,0,0,1,.066.487,1.648,1.648,0,0,1-.619,1.352,2.48,2.48,0,0,1-1.61.5" transform="translate(-1006.232 -1372.174)" fill="#0284d3"/>
          <path id="Path_14146" data-name="Path 14146" d="M1195.467,1420.352v1.158h-1.659v4.984h-1.21v-4.984h-1.65v-1.158Z" transform="translate(-1153.751 -1375.99)" fill="#0284d3"/>
          <path id="Path_14147" data-name="Path 14147" d="M1363.283,1420.352v6.142h-1.2v-3.984l-1.733,2.85-.141,0-1.724-2.84v3.969h-1.211v-6.142h1.246l1.762,2.9,1.752-2.9Z" transform="translate(-1314.88 -1375.99)" fill="#0284d3"/>
          <path id="Path_14148" data-name="Path 14148" d="M1587.459,1425.336h2.589v1.158h-3.8v-6.142H1590v1.158h-2.545v1.308h2.325v1.141h-2.325Z" transform="translate(-1536.705 -1375.99)" fill="#0284d3"/>
          <path id="Path_14149" data-name="Path 14149" d="M1738.7,1420.352h1.211v6.142h-.921l-2.633-3.756v3.756h-1.211v-6.142h.92l2.634,3.742v-3.742Z" transform="translate(-1680.953 -1375.99)" fill="#0284d3"/>
          <path id="Path_14150" data-name="Path 14150" d="M1914.135,1420.352v1.158h-1.658v4.984h-1.211v-4.984h-1.65v-1.158Z" transform="translate(-1849.973 -1375.99)" fill="#0284d3"/>
          <path id="Path_14151" data-name="Path 14151" d="M749.466,1690.011a2.6,2.6,0,0,1-1.925-.768,2.672,2.672,0,0,1,3.227-4.189,2.378,2.378,0,0,1,.915.918l-.454.264a1.821,1.821,0,0,0-.717-.747,2.036,2.036,0,0,0-1.046-.278,2.152,2.152,0,1,0,0,4.3,2.037,2.037,0,0,0,1.046-.278,1.821,1.821,0,0,0,.717-.746l.454.256a2.347,2.347,0,0,1-.911.922,2.563,2.563,0,0,1-1.306.345" transform="translate(-723.456 -1632.095)" fill="#0284d3"/>
          <path id="Path_14152" data-name="Path 14152" d="M931.221,1692.169h2.342v.483h-2.854v-5.123h.512v4.64Z" transform="translate(-901.64 -1634.823)" fill="#0284d3"/>
          <path id="Path_14153" data-name="Path 14153" d="M1044.108,1692.242a2.152,2.152,0,0,1-2.751,0,1.747,1.747,0,0,1-.527-1.332v-3.381h.512v3.381a1.3,1.3,0,0,0,.365.973,1.643,1.643,0,0,0,2.049,0,1.3,1.3,0,0,0,.365-.973v-3.381h.513v3.381a1.747,1.747,0,0,1-.527,1.332" transform="translate(-1008.321 -1634.823)" fill="#0284d3"/>
          <path id="Path_14154" data-name="Path 14154" d="M1200.651,1690a1.362,1.362,0,0,1,.6.486,1.286,1.286,0,0,1,.223.743,1.426,1.426,0,0,1-1.427,1.428h-2.232v-5.123h2.064a1.381,1.381,0,0,1,1.376,1.376,1.206,1.206,0,0,1-.6,1.09m-.776-1.983h-1.552v1.785h1.552a.82.82,0,0,0,.611-.259.915.915,0,0,0,0-1.263.815.815,0,0,0-.611-.263m.169,4.157a.87.87,0,0,0,.648-.274.968.968,0,0,0,0-1.335.866.866,0,0,0-.648-.278h-1.72v1.888Z" transform="translate(-1160.4 -1634.824)" fill="#0284d3"/>
          <line id="Line_39" data-name="Line 39" x1="15.435" transform="translate(5.925 55.422)" fill="#0284d3"/>
          <line id="Line_40" data-name="Line 40" x1="15.435" transform="translate(42.687 55.422)" fill="#0284d3"/>
        </g>
      </g>
    </g>
  </g>
</svg>
