<svg id="Group_1603" data-name="Group 1603" xmlns="http://www.w3.org/2000/svg" xmlns:xlink="http://www.w3.org/1999/xlink" width="204.707" height="92.671" viewBox="0 0 204.707 92.671">
  <defs>
    <clipPath id="clip-path">
      <rect id="Rectangle_516" data-name="Rectangle 516" width="108.473" height="34.776" fill="none"/>
    </clipPath>
    <clipPath id="clip-path-2">
      <rect id="Rectangle_515" data-name="Rectangle 515" width="26.307" height="27.213" fill="none"/>
    </clipPath>
  </defs>
  <rect id="Rectangle_585" data-name="Rectangle 585" width="204.707" height="92.671" rx="1" fill="#fff"/>
  <g id="Group_947" data-name="Group 947" transform="translate(48.41 29.046)">
    <g id="Group_899" data-name="Group 899">
      <g id="Group_898" data-name="Group 898" clip-path="url(#clip-path)">
        <path id="Path_14088" data-name="Path 14088" d="M955.716,150.971v4.749a12.049,12.049,0,0,1-.223,3.037,2.129,2.129,0,0,1-.827,1.039,2.342,2.342,0,0,1-1.367.419,1.84,1.84,0,0,1-1.1-.313,1.584,1.584,0,0,1-.6-.848,14.3,14.3,0,0,1-.164-2.91v-5.173H949.8c-.445,1.438-.9,3.054-1.348,4.836v2.286a6.245,6.245,0,0,0,.4,2.491,2.942,2.942,0,0,0,1.3,1.4,4.134,4.134,0,0,0,2.035.5,4.534,4.534,0,0,0,2.115-.519,4.341,4.341,0,0,0,1.616-1.42v1.685h2.766V150.971Z" transform="translate(-895.949 -142.613)"/>
        <path id="Path_14089" data-name="Path 14089" d="M1153.707,83.146V85.52h-2.035v4.537a11.208,11.208,0,0,0,.059,1.606.651.651,0,0,0,.265.376.839.839,0,0,0,.5.148,3.853,3.853,0,0,0,1.2-.286l.254,2.311a5.921,5.921,0,0,1-2.353.445,3.728,3.728,0,0,1-1.452-.27,2.116,2.116,0,0,1-.949-.7,2.758,2.758,0,0,1-.419-1.161,14.468,14.468,0,0,1-.1-2.1V85.52h-1.367V83.146h1.367V80.909l2.989-1.738v3.975Z" transform="translate(-1083.8 -74.788)"/>
        <path id="Path_14090" data-name="Path 14090" d="M1268.053,152.1a6.087,6.087,0,0,1,.731-2.872,5.02,5.02,0,0,1,2.072-2.12,6.152,6.152,0,0,1,2.995-.731,5.62,5.62,0,0,1,4.187,1.659,5.731,5.731,0,0,1,1.633,4.192,5.8,5.8,0,0,1-1.648,4.235,5.571,5.571,0,0,1-4.15,1.68,6.536,6.536,0,0,1-2.952-.7,4.8,4.8,0,0,1-2.136-2.051,6.837,6.837,0,0,1-.731-3.291m3.053.159a3.728,3.728,0,0,0,.8,2.565,2.6,2.6,0,0,0,3.917,0,3.781,3.781,0,0,0,.79-2.586,3.712,3.712,0,0,0-.79-2.544,2.6,2.6,0,0,0-3.917,0,3.728,3.728,0,0,0-.8,2.565" transform="translate(-1197.854 -138.273)"/>
        <path id="Path_14091" data-name="Path 14091" d="M1637.095,404.545c-.031.143-.068.3-.1.452-.021,0-.03-.043-.047-.059a.923.923,0,0,0-.033.293c-.027.02-.037-.028-.059-.032-.036.06-.062.122-.091.183-.025-.022-.036-.093-.065-.136a1.251,1.251,0,0,0-.12.231c-.065-.1-.067-.24-.138-.364-.049.066-.022.154-.024.229a1.635,1.635,0,0,0,0,.235c-.162.07-.153.181-.22.273-.029-.04-.067-.039-.1-.077a1.877,1.877,0,0,0-.069.345.435.435,0,0,1-.089-.159.765.765,0,0,0-.131.15c-.082-.062-.15-.185-.231-.247a3.6,3.6,0,0,0-.031.39c-.035-.006-.06-.05-.089-.081a2.132,2.132,0,0,0,0,.439c-.04,0-.072-.038-.109-.05,0,.126.018.257.024.385a.079.079,0,0,1-.061-.013.086.086,0,0,0-.053-.015,2.237,2.237,0,0,0,.018.281.408.408,0,0,1-.051-.193.611.611,0,0,0-.106.017c-.035-.107-.075-.214-.123-.324a.573.573,0,0,0-.112.118c-.084-.072-.157-.187-.237-.272-.034.038-.039.083-.071.122-.122-.079-.247-.145-.37-.22a3.008,3.008,0,0,0,.08.429c-.006.019-.02.012-.035.005a.049.049,0,0,0-.025-.007,3.452,3.452,0,0,0,.031.459,1.083,1.083,0,0,0-.13.042,1.818,1.818,0,0,0,.082.32c-.074.025-.137,0-.21.023.138.154.283.281.423.431-.159.035-.315.058-.475.1.052.062.075.153.138.207s.147.047.216.081a1.413,1.413,0,0,1,.368.357,1.377,1.377,0,0,0,.631.01c-.415.324-.886.635-1.332.952.005.01.011.019.017.028a.7.7,0,0,1,.133.073c.434-.327.875-.653,1.3-.982.044.239.234.3.389.393a3.546,3.546,0,0,1,.3.215c.022-.029-.027-.074-.028-.109a3.181,3.181,0,0,1,.6.154.487.487,0,0,0-.039-.142c.082,0,.151.058.238.038-.02-.061-.1-.08-.145-.125a1.45,1.45,0,0,1,.273.016.576.576,0,0,0-.043-.149c.151-.033.292-.028.441-.059-.047-.03-.1-.049-.145-.076a2.376,2.376,0,0,1,.341-.016l.028-.018a.655.655,0,0,1-.068-.124c.1-.025.2-.036.3-.057,0-.046-.056-.069-.074-.12.134-.032.272-.083.406-.115,0-.036-.059-.086-.044-.119a.412.412,0,0,0,.271-.177c-.021-.057-.058-.043-.08-.1.116-.057.225-.087.338-.131-.029-.056-.123-.054-.173-.107.091-.039.18-.065.27-.1-.147-.032-.3-.053-.447-.075a.463.463,0,0,0,.017-.1.831.831,0,0,0-.242-.013.515.515,0,0,1-.37-.077c.085-.068.135-.145.219-.213-.038-.035-.087-.022-.125-.059.086-.046.137-.1.221-.147.007-.031-.078-.023-.072-.053.069-.056.132-.114.208-.168,0-.033-.044-.02-.06-.05.095-.1.172-.2.259-.307a.625.625,0,0,0-.139-.051.235.235,0,0,1,.047-.1,1.4,1.4,0,0,0-.273-.016c-.021-.023,0-.037-.017-.058a1.656,1.656,0,0,0-.2.019.428.428,0,0,1,.082-.119c-.025,0-.048-.017-.073-.023.043-.068.1-.133.15-.2a.49.49,0,0,0-.145,0c.014-.129.041-.255.065-.382a3.131,3.131,0,0,0-.255.217,2.118,2.118,0,0,0-.076-.265,1.228,1.228,0,0,0-.028-.47.085.085,0,0,0-.065.021c.017-.09.014-.185.035-.275-.136-.012-.117-.171-.152-.277a.748.748,0,0,0-.161-.008c-.014-.1,0-.2-.02-.3-.055.015-.052.091-.062.136" transform="translate(-1543.494 -382.021)" fill="#ec1e24"/>
        <path id="Path_14092" data-name="Path 14092" d="M7.865,81.73H0V78.179L7.865,68.83h3.763v9.55h1.95v3.349h-1.95v2.9H7.865Zm0-3.349V73.49L3.709,78.38Z" transform="translate(0 -65.02)" fill="#ec1e24"/>
        <path id="Path_14093" data-name="Path 14093" d="M249.982,76.8q0-4.43,1.6-6.2a6.217,6.217,0,0,1,4.86-1.77,7.273,7.273,0,0,1,2.576.387,4.763,4.763,0,0,1,1.643,1.007,5.365,5.365,0,0,1,1,1.3,6.793,6.793,0,0,1,.588,1.6,14.893,14.893,0,0,1,.435,3.625q0,4.229-1.431,6.19T256.32,84.9a6.9,6.9,0,0,1-3.169-.626,5.13,5.13,0,0,1-1.982-1.834,6.9,6.9,0,0,1-.875-2.348,16.053,16.053,0,0,1-.313-3.291m4.282.011a10.542,10.542,0,0,0,.525,4.054,1.648,1.648,0,0,0,1.521,1.086,1.594,1.594,0,0,0,1.139-.461,2.86,2.86,0,0,0,.71-1.457,15.273,15.273,0,0,0,.228-3.106,10.848,10.848,0,0,0-.525-4.16,1.679,1.679,0,0,0-1.574-1.065,1.605,1.605,0,0,0-1.548,1.086,11.394,11.394,0,0,0-.477,4.022" transform="translate(-236.143 -65.02)" fill="#ec1e24"/>
        <path id="Path_14094" data-name="Path 14094" d="M502.994,68.83v15.8h-4.367V74.278a13.269,13.269,0,0,1-2.051,1.3,16.029,16.029,0,0,1-2.486.954V73a10.5,10.5,0,0,0,3.424-1.707,6.966,6.966,0,0,0,1.908-2.459Z" transform="translate(-466.738 -65.02)" fill="#ec1e24"/>
        <path id="Path_14095" data-name="Path 14095" d="M331.8,0,316.238,15.105v4.962h-5.112L295.971,34.776l9.045-.9,10.4-11.328,9.05-1.864L322.8,29.2l5.879-.3c1.507-17.841,7.03-28.9,7.03-28.9Zm-5.833,15.576-4.858.865,8.335-9.733Z" transform="translate(-279.586)"/>
        <path id="Path_14096" data-name="Path 14096" d="M951.043,389.618a11.854,11.854,0,0,1-2.648.31,5.982,5.982,0,0,1-3.224-.747,2.47,2.47,0,0,1-1.2-2.106c.013-1.686,1.778-2.919,4.669-2.919a7.813,7.813,0,0,1,2.149.26l-.269.6a6.541,6.541,0,0,0-1.906-.243c-2.1,0-3.467.856-3.467,2.273,0,1.434,1.318,2.282,3.326,2.282a5.36,5.36,0,0,0,1.484-.151v-1.686H948.2V386.9h2.84Z" transform="translate(-891.711 -362.89)" fill="#ec1e24"/>
        <path id="Path_14097" data-name="Path 14097" d="M1102.486,384.571a17.565,17.565,0,0,1,2.136-.117,4.9,4.9,0,0,1,2.495.461,1.238,1.238,0,0,1,.678,1.074c0,.747-.716,1.242-1.624,1.443v.025a1.65,1.65,0,0,1,1.266,1.141,6.852,6.852,0,0,0,.665,1.552h-1.151a5.592,5.592,0,0,1-.576-1.351c-.255-.78-.716-1.074-1.727-1.1H1103.6v2.45h-1.113Zm1.113,2.575h1.139c1.19,0,1.944-.428,1.944-1.074,0-.73-.806-1.049-1.983-1.057a6.9,6.9,0,0,0-1.1.067Z" transform="translate(-1041.453 -363.17)" fill="#ec1e24"/>
        <path id="Path_14098" data-name="Path 14098" d="M1226.137,386.414c0,1.946-1.8,2.978-4,2.978-2.277,0-3.876-1.158-3.876-2.869,0-1.8,1.7-2.97,4-2.97,2.354,0,3.876,1.183,3.876,2.861m-6.69.092c0,1.208,1,2.29,2.751,2.29s2.763-1.065,2.763-2.349c0-1.124-.9-2.3-2.75-2.3S1219.446,385.264,1219.446,386.506Z" transform="translate(-1150.815 -362.32)" fill="#ec1e24"/>
        <path id="Path_14099" data-name="Path 14099" d="M1387.611,385.218v3.347c0,1.267.857,1.8,2.009,1.8,1.279,0,2.1-.554,2.1-1.8v-3.347h1.126v3.3c0,1.737-1.395,2.45-3.262,2.45-1.765,0-3.1-.663-3.1-2.416v-3.33Z" transform="translate(-1309.73 -363.893)" fill="#ec1e24"/>
        <path id="Path_14100" data-name="Path 14100" d="M1536.222,384.566a19.544,19.544,0,0,1,2.136-.109,4.9,4.9,0,0,1,2.418.47,1.347,1.347,0,0,1,.755,1.183,1.394,1.394,0,0,1-.665,1.208,4.791,4.791,0,0,1-2.635.621,5.793,5.793,0,0,1-.9-.05v2.265h-1.113Zm1.113,2.726a5.622,5.622,0,0,0,.921.059c1.343,0,2.162-.428,2.162-1.208,0-.747-.806-1.107-2.034-1.107a7.048,7.048,0,0,0-1.049.059Z" transform="translate(-1451.178 -363.174)" fill="#ec1e24"/>
        <g id="Group_897" data-name="Group 897" transform="translate(81.759 1.004)" style="isolation: isolate">
          <g id="Group_896" data-name="Group 896">
            <g id="Group_895" data-name="Group 895" clip-path="url(#clip-path-2)">
              <text id="RV" transform="translate(0 9.643)" font-size="13" font-family="Rubik-Regular, Rubik"><tspan x="0" y="0">RV</tspan></text>
            </g>
          </g>
        </g>
        <path id="Path_14101" data-name="Path 14101" d="M1517.154,85h-3.092l-2.649-4.438a9.012,9.012,0,0,0-.644-.963,3.477,3.477,0,0,0-.6-.607,1.919,1.919,0,0,0-.606-.317,2.637,2.637,0,0,0-.769-.1h-1.038V85h-2.6V69.061h4.924a6.876,6.876,0,0,1,1.946.265,4.53,4.53,0,0,1,1.6.831,3.93,3.93,0,0,1,1.077,1.406,4.6,4.6,0,0,1,.386,1.939,4.67,4.67,0,0,1-.262,1.589,4.206,4.206,0,0,1-.748,1.3,4.52,4.52,0,0,1-1.16.969,5.343,5.343,0,0,1-.655.327,4.077,4.077,0,0,1,.564.546,7.2,7.2,0,0,1,.532.71c.167.252.355.548.56.88Zm-2.62-.83h1.123l-2.437-3.906c-.2-.327-.385-.615-.547-.86a6.438,6.438,0,0,0-.469-.628,3.242,3.242,0,0,0-.471-.453,2.788,2.788,0,0,0-.573-.333l-.247-.11v-.633l.311-.081a4.991,4.991,0,0,0,1.279-.52,3.687,3.687,0,0,0,.947-.79,3.377,3.377,0,0,0,.6-1.047,3.86,3.86,0,0,0,.213-1.308,3.782,3.782,0,0,0-.31-1.591,3.1,3.1,0,0,0-.85-1.112,3.7,3.7,0,0,0-1.308-.676,6.048,6.048,0,0,0-1.71-.231h-4.094V84.169h.94V77.742h1.869a3.464,3.464,0,0,1,1.012.139,2.741,2.741,0,0,1,.869.452,4.267,4.267,0,0,1,.743.752,9.666,9.666,0,0,1,.706,1.052Zm-4.787-7.2h-2.817V70.662h2.838a3.78,3.78,0,0,1,2.542.781,2.777,2.777,0,0,1,.929,2.205,3.5,3.5,0,0,1-.265,1.38,3.021,3.021,0,0,1-.745,1.061,3.266,3.266,0,0,1-1.115.658,4.073,4.073,0,0,1-1.366.224m-1.987-.83h1.987a3.244,3.244,0,0,0,1.088-.176,2.437,2.437,0,0,0,.834-.49,2.211,2.211,0,0,0,.54-.773,2.666,2.666,0,0,0,.2-1.054,1.957,1.957,0,0,0-.641-1.577,3,3,0,0,0-2-.578h-2.008Z" transform="translate(-1421.835 -65.238)"/>
        <path id="Path_14102" data-name="Path 14102" d="M1711.05,85h-2.529l-5.779-15.938h2.857l4.232,12.121,4.325-12.121h2.8Zm-1.947-.83h1.369l5.287-14.278h-1.018l-4.169,11.682a6.2,6.2,0,0,0-.327,1.274l-.048.36h-.767l-.05-.358a6.814,6.814,0,0,0-.287-1.26l-4.085-11.7h-1.083Z" transform="translate(-1608.48 -65.238)"/>
        <path id="Path_14103" data-name="Path 14103" d="M8.848,9.1H7.977V8.784H10.1V9.1H9.222v2.564H8.848Z" transform="translate(-7.535 -8.298)"/>
        <path id="Path_14104" data-name="Path 14104" d="M51.272,6h.374V7.3h.009a.7.7,0,0,1,.268-.265.766.766,0,0,1,.382-.107c.276,0,.718.171.718.885V9.039h-.374V7.851c0-.333-.123-.615-.476-.615a.538.538,0,0,0-.5.376.458.458,0,0,0-.025.18V9.039h-.374Z" transform="translate(-48.434 -5.673)"/>
        <path id="Path_14105" data-name="Path 14105" d="M91.545,23.753a.661.661,0,0,0,.705.718,1.345,1.345,0,0,0,.569-.107l.064.269a1.658,1.658,0,0,1-.684.128.958.958,0,0,1-1.011-1.043,1,1,0,0,1,.965-1.115.875.875,0,0,1,.85.974,1.419,1.419,0,0,1-.013.175Zm1.1-.269a.535.535,0,0,0-.518-.611.622.622,0,0,0-.574.611Z" transform="translate(-86.14 -21.352)"/>
      </g>
    </g>
  </g>
</svg>
