<svg id="Group_1606" data-name="Group 1606" xmlns="http://www.w3.org/2000/svg" xmlns:xlink="http://www.w3.org/1999/xlink" width="204.707" height="94.054" viewBox="0 0 204.707 94.054">
  <defs>
    <linearGradient id="linear-gradient" y1="0.505" x2="1" y2="0.505" gradientUnits="objectBoundingBox">
      <stop offset="0" stop-color="#7d0dd7"/>
      <stop offset="1" stop-color="#40ced9"/>
    </linearGradient>
  </defs>
  <rect id="Rectangle_586" data-name="Rectangle 586" width="204.707" height="94.054" rx="1" fill="#fff"/>
  <g id="Layer" transform="translate(58.093 27.663)">
    <g id="Layer-2" data-name="Layer" transform="translate(0 12.095)">
      <path id="Layer-3" data-name="Layer" d="M4.5,68.324l3.543-.331a4.057,4.057,0,0,0,1.3,2.528,4,4,0,0,0,2.622.8,4.161,4.161,0,0,0,2.646-.709,2.122,2.122,0,0,0,.9-1.677A1.486,1.486,0,0,0,15.13,67.9a3.134,3.134,0,0,0-1.3-.756c-.425-.142-1.394-.4-2.906-.756a10.286,10.286,0,0,1-4.11-1.724,4.427,4.427,0,0,1-1.654-3.5,4.341,4.341,0,0,1,.78-2.48,5,5,0,0,1,2.244-1.772,9.245,9.245,0,0,1,3.543-.614,7.691,7.691,0,0,1,5.1,1.441,4.981,4.981,0,0,1,1.8,3.827l-3.638.165A3.1,3.1,0,0,0,14,59.8a3.687,3.687,0,0,0-2.291-.591,4.187,4.187,0,0,0-2.48.638,1.264,1.264,0,0,0-.567,1.087A1.39,1.39,0,0,0,9.2,61.993a9.634,9.634,0,0,0,3.331,1.158A18.249,18.249,0,0,1,16.453,64.4a4.825,4.825,0,0,1,1.984,1.772,5.115,5.115,0,0,1,.709,2.764,4.96,4.96,0,0,1-.85,2.788,5.115,5.115,0,0,1-2.433,1.937,10.48,10.48,0,0,1-3.921.638A8.021,8.021,0,0,1,6.7,72.789,6.638,6.638,0,0,1,4.5,68.324Z" transform="translate(-4.5 -56.3)" fill="#607291"/>
    </g>
    <g id="Layer-4" data-name="Layer" transform="translate(0.118 2.599)">
      <path id="Layer-5" data-name="Layer" d="M5,21.864,6.654,21.7a2.029,2.029,0,0,0,.614,1.228,1.82,1.82,0,0,0,1.228.378,1.858,1.858,0,0,0,1.228-.354,1.021,1.021,0,0,0,.425-.8.7.7,0,0,0-.165-.5A1.359,1.359,0,0,0,9.37,21.3c-.189-.071-.661-.189-1.347-.354a4.879,4.879,0,0,1-1.913-.827,2.172,2.172,0,0,1-.78-1.677,2.235,2.235,0,0,1,.354-1.2,2.192,2.192,0,0,1,1.039-.85A4.321,4.321,0,0,1,8.378,16.1a3.638,3.638,0,0,1,2.386.685,2.414,2.414,0,0,1,.827,1.843l-1.7.071a1.437,1.437,0,0,0-.472-.921,1.679,1.679,0,0,0-1.063-.283A1.872,1.872,0,0,0,7.2,17.8a.572.572,0,0,0-.26.52.7.7,0,0,0,.26.52,4.586,4.586,0,0,0,1.559.567,7.238,7.238,0,0,1,1.819.614,2.3,2.3,0,0,1,.921.85,2.582,2.582,0,0,1,.331,1.347,2.556,2.556,0,0,1-.4,1.347,2.366,2.366,0,0,1-1.134.945,4.574,4.574,0,0,1-1.819.307,3.567,3.567,0,0,1-2.433-.732A3.511,3.511,0,0,1,5,21.864Z" transform="translate(-5 -16.1)" fill="#607291"/>
    </g>
    <g id="Layer-6" data-name="Layer" transform="translate(29.364 3.047)">
      <path id="Layer-7" data-name="Layer" d="M130.926,26.2H128.8V18.189h1.961v1.134a3.067,3.067,0,0,1,.921-1.063A1.685,1.685,0,0,1,132.6,18a2.783,2.783,0,0,1,1.394.4l-.661,1.843a1.817,1.817,0,0,0-.992-.354,1.157,1.157,0,0,0-.756.236,1.6,1.6,0,0,0-.5.9,12.356,12.356,0,0,0-.189,2.693V26.2Z" transform="translate(-128.8 -18)" fill="#607291"/>
    </g>
    <g id="Layer-8" data-name="Layer" transform="translate(32.317 7.394)">
      <path id="Layer-9" data-name="Layer" d="M141.3,36.4h32.128v1.417H141.3Z" transform="translate(-141.3 -36.4)" fill="url(#linear-gradient)"/>
      <path id="Layer-10" data-name="Layer" d="M141.3,46.4h32.128v1.417H141.3Z" transform="translate(-141.3 -44.038)" fill="url(#linear-gradient)"/>
    </g>
    <path id="Layer-11" data-name="Layer" d="M221.811,65.6c0,4.961-3.354,9-7.489,9a6.722,6.722,0,0,1-4.583-1.89V82.16H205.7V56.86h4.04v1.63a6.678,6.678,0,0,1,4.583-1.89C218.457,56.6,221.811,60.616,221.811,65.6Zm-3.425-.047c0-2.929-1.913-5.315-4.276-5.315s-4.276,2.386-4.276,5.315,1.913,5.315,4.276,5.315S218.386,68.482,218.386,65.553Z" transform="translate(-158.17 -44.434)" fill="#607291" fill-rule="evenodd"/>
    <path id="Layer-12" data-name="Layer" d="M96.177,15.3a3.932,3.932,0,0,1,3.732,3.969v1.039H93.555A2.455,2.455,0,0,0,95.8,22.481a2.288,2.288,0,0,0,2.008-1.417l2.008.85a4.408,4.408,0,1,1-3.8-6.615C96.059,15.3,96.13,15.324,96.177,15.3ZM98,18.678a2.2,2.2,0,0,0-4.347,0H98Z" transform="translate(-71.018 -12.89)" fill="#607291" fill-rule="evenodd"/>
    <path id="Layer-13" data-name="Layer" d="M38.577,15.3a3.932,3.932,0,0,1,3.732,3.969v1.039H35.955A2.455,2.455,0,0,0,38.2,22.481a2.288,2.288,0,0,0,2.008-1.417l2.008.85a4.408,4.408,0,1,1-3.8-6.615C38.483,15.3,38.53,15.324,38.577,15.3ZM40.4,18.678a2.2,2.2,0,0,0-4.347,0H40.4Z" transform="translate(-27.025 -12.89)" fill="#607291" fill-rule="evenodd"/>
    <path id="Layer-14" data-name="Layer" d="M310.563,55.624a8.092,8.092,0,0,1,7.678,8.15V65.9H305.224c.52,2.551,2.386,4.441,4.607,4.441a4.7,4.7,0,0,0,4.11-2.929l4.11,1.724A9.036,9.036,0,1,1,310.208,55.6,1.566,1.566,0,0,1,310.563,55.624Zm3.709,6.874a4.49,4.49,0,0,0-8.882,0h8.882Z" transform="translate(-231.094 -43.67)" fill="#607291" fill-rule="evenodd"/>
    <path id="Layer-15" data-name="Layer" d="M280.7,31.9h3.756V54.98H280.7Z" transform="translate(-215.452 -25.569)" fill="#607291"/>
    <path id="Layer-16" data-name="Layer" d="M72,5.1h1.819V16.321H72Z" transform="translate(-56.054 -5.1)" fill="#607291"/>
    <path id="Layer-17" data-name="Layer" d="M81.7,5.1h1.819V16.321H81.7Z" transform="translate(-63.463 -5.1)" fill="#607291"/>
    <path id="Layer-18" data-name="Layer" d="M73.3,78.6h3.756V90.648H73.3Z" transform="translate(-57.047 -61.237)" fill="#607291"/>
    <path id="Layer-19" data-name="Layer" d="M73.3,58.9h3.756v3.331H73.3Z" transform="translate(-57.047 -46.191)" fill="#607291"/>
    <path id="Layer-20" data-name="Layer" d="M120.554,61.022v12.19h-3.189v-11.6a3.168,3.168,0,1,0-6.331,0v11.6h-4.04v-11.6a3.223,3.223,0,0,0-3.166-3.284h-.165a3.3,3.3,0,0,0-3.307,3.307V73.212h-1.37v-.024H96.6V55.4h3.284v2.551a5.262,5.262,0,0,1,4.418-2.433h.165a5.414,5.414,0,0,1,5.292,4.772,5.414,5.414,0,0,1,5.292-4.772h.165A5.431,5.431,0,0,1,120.554,61.022Z" transform="translate(-74.843 -43.518)" fill="#607291"/>
  </g>
</svg>
