<svg id="Group_1634" data-name="Group 1634" xmlns="http://www.w3.org/2000/svg" width="204.858" height="92.74" viewBox="0 0 204.858 92.74">
  <rect id="Rectangle_581" data-name="Rectangle 581" width="204.858" height="92.74" rx="1" fill="#fff"/>
  <g id="Group_950" data-name="Group 950" transform="translate(77.514 22.147)">
    <path id="Path_1" data-name="Path 1" d="M621.58,403.375a20.269,20.269,0,0,1-19.463-15.337,20.589,20.589,0,0,1-.621-4.773.714.714,0,0,1,.4-.7.6.6,0,0,1,.82.547,16.818,16.818,0,0,0,1.019,6.164c2.436,6.562,7.035,10.838,13.845,12.4a19.111,19.111,0,0,0,23.167-15.909,13.3,13.3,0,0,0,.174-2.635.542.542,0,0,1,.571-.6.6.6,0,0,1,.646.646,21.02,21.02,0,0,1-.124,2.163,19.637,19.637,0,0,1-2.262,7.258A20.044,20.044,0,0,1,625.732,403,23.421,23.421,0,0,1,621.58,403.375Z" transform="translate(-597.168 -359.396)" fill="#8bc249"/>
    <path id="Path_2" data-name="Path 2" d="M616.344,405.169a22.232,22.232,0,0,1-21.725-17.8,21.258,21.258,0,0,1-.423-4.176.848.848,0,0,1,.05-.348.533.533,0,0,1,1.043.174,20.058,20.058,0,0,0,3.306,11.31,21.083,21.083,0,0,0,20.134,9.62,20.57,20.57,0,0,0,11.111-4.723,20.778,20.778,0,0,0,7.258-12.354,16.7,16.7,0,0,0,.323-3.853.5.5,0,0,1,.423-.522.511.511,0,0,1,.6.348,2.869,2.869,0,0,1,.05.921,21.321,21.321,0,0,1-2.61,9.694,21.828,21.828,0,0,1-15.138,11.261A23.8,23.8,0,0,1,616.344,405.169Z" transform="translate(-591.683 -359.35)" fill="#8bc249"/>
    <path id="Path_3" data-name="Path 3" d="M611.738,406.895a23.739,23.739,0,0,1-22.744-16.554,22.372,22.372,0,0,1-1.069-6.264c0-.273-.025-.547-.025-.82,0-.224.05-.447.323-.5.3-.075.522.149.522.472a21.891,21.891,0,0,0,2.436,10.241,22.306,22.306,0,0,0,16.033,12.155,22.022,22.022,0,0,0,18.369-4.35,22.327,22.327,0,0,0,8.476-13.869,19.477,19.477,0,0,0,.373-4.176c0-.273.149-.472.4-.472a.411.411,0,0,1,.447.423,9.532,9.532,0,0,1-.049,1.69,22.5,22.5,0,0,1-1.293,6.264,23.46,23.46,0,0,1-17.152,15.213A20.906,20.906,0,0,1,611.738,406.895Z" transform="translate(-586.953 -359.56)" fill="#8bc249"/>
    <path id="Subtraction_1" data-name="Subtraction 1" d="M4.074,10.92a3.866,3.866,0,0,1-1.268-.237.957.957,0,0,1-.265-.051h0l-.08-.022c-.086-.057-.172-.111-.255-.163-.138-.086-.268-.168-.391-.26a9.9,9.9,0,0,1-.722-.722v0a4.1,4.1,0,0,1-.347-.544A1.545,1.545,0,0,1,.469,8.3,6.769,6.769,0,0,1,0,5.985,8.9,8.9,0,0,1,.12,3.822,5.9,5.9,0,0,1,.494,2.53,3.674,3.674,0,0,1,2.11.566,4.035,4.035,0,0,1,4.322-.005,5.053,5.053,0,0,1,5.938.367,4.374,4.374,0,0,1,7.429,1.734a5.153,5.153,0,0,1,.8,2.038,10.333,10.333,0,0,1,.1,2.759,5.076,5.076,0,0,1-.174.919l0,.007c-.024.1-.049.194-.072.293-.079.158-.147.327-.215.491a4.809,4.809,0,0,1-.358.753,3.913,3.913,0,0,1-1.989,1.69,2.713,2.713,0,0,1-.906.2h0c-.084.008-.172.017-.257.028A2.245,2.245,0,0,1,4.074,10.92Zm.081-9.613a1.023,1.023,0,0,0-.653.254,2.133,2.133,0,0,0-.547.7,5.063,5.063,0,0,0-.423,1.565,15.1,15.1,0,0,0-.1,2.363,2.288,2.288,0,0,0,.039.546h0c.014.089.028.182.036.273A4.275,4.275,0,0,0,3,8.818c.025.037.049.08.074.123s.05.088.075.126a1.2,1.2,0,0,0,.973.574,1.087,1.087,0,0,0,.542-.15A1.851,1.851,0,0,0,5.216,8.9l.025-.036a3.559,3.559,0,0,0,.373-.944v0a12.2,12.2,0,0,0,.223-2.308,12.2,12.2,0,0,0-.05-1.342,4.967,4.967,0,0,0-.619-2.312,1.278,1.278,0,0,0-1.012-.652Z" transform="translate(29.585 23.851)" fill="#5c155d"/>
    <path id="Subtraction_3" data-name="Subtraction 3" d="M4.182,10.885h0A5.124,5.124,0,0,1,3.1,10.762a2.839,2.839,0,0,1-1.168-.5,4.7,4.7,0,0,1-.895-.82,4.84,4.84,0,0,1-.7-1.392L.308,7.947l0-.007a2.342,2.342,0,0,1-.14-.683A8.162,8.162,0,0,1,.043,4.92a6.572,6.572,0,0,1,.4-1.989,1.4,1.4,0,0,1,.1-.3c.075-.123.144-.256.21-.384h0c.067-.128.137-.261.211-.385a1.545,1.545,0,0,1,.175-.256c.042-.053.085-.108.123-.166A3.782,3.782,0,0,1,2.2.6,4.306,4.306,0,0,1,3.869,0h.87a.937.937,0,0,1,.123.012.946.946,0,0,0,.125.013A4.223,4.223,0,0,1,6.925.771l.124.123A.646.646,0,0,0,7.119,1a.382.382,0,0,1,.079.143c0,.033.008.067.011.1a.6.6,0,0,1-.16.624.532.532,0,0,1-.344.123,1.148,1.148,0,0,1-.452-.123,3.15,3.15,0,0,0-1.391-.421,1.824,1.824,0,0,0-1.392.547,3.249,3.249,0,0,0-.547.944,3.268,3.268,0,0,0-.273,1.193V4.16c0,.048,0,.092.018.115a.043.043,0,0,0,.032.012.222.222,0,0,0,.1-.037l.092-.068.018-.014L3.1,4.027a3.136,3.136,0,0,1,1.59-.462,2.886,2.886,0,0,1,.473.04.689.689,0,0,0,.162.012.687.687,0,0,1,.162.012,3.624,3.624,0,0,1,1.243.5,2.787,2.787,0,0,1,.945,1.069,3.69,3.69,0,0,1,.447,1.266v0A4.208,4.208,0,0,1,7.6,9.1a3.265,3.265,0,0,1-.969,1.043,3.682,3.682,0,0,1-1.442.621,4.144,4.144,0,0,1-1.006.122Zm-.1-5.9A1.55,1.55,0,0,0,3.3,5.22a2.335,2.335,0,0,0-.472.522c-.02.05-.044.1-.069.152h0a2.081,2.081,0,0,0-.1.245,2.875,2.875,0,0,0-.129,1.123v.005c0,.079,0,.16,0,.239.012.058.024.115.036.172A3.621,3.621,0,0,0,2.8,8.5a2.4,2.4,0,0,0,.6.82.565.565,0,0,0,.348.2,1.069,1.069,0,0,0,.422.088,1.258,1.258,0,0,0,.6-.163c.029-.023.059-.045.092-.069A.877.877,0,0,0,5.136,9.1a1.4,1.4,0,0,0,.2-.323,3.961,3.961,0,0,0,.249-2.087,1.964,1.964,0,0,0-.671-1.417,1.411,1.411,0,0,0-.827-.288Z" transform="translate(20.469 23.944)" fill="#5c155d"/>
    <path id="Path_6" data-name="Path 6" d="M632.848,389.906a25.536,25.536,0,0,0,2.635-2.56.7.7,0,0,0-.373-.05h-1.392a2.033,2.033,0,0,0-1.74.746c-.2.224-.4.423-.621.646a.627.627,0,0,1-.646.124.617.617,0,0,1-.2-.746,15.3,15.3,0,0,1,.7-1.765c.075-.174.149-.373.224-.547.025-.05.074-.1.1-.149a.641.641,0,0,1,.969-.273c.05.025.075.05.124.05a1.488,1.488,0,0,0,.746.149h3.455a5.184,5.184,0,0,1,.621-.025.733.733,0,0,1,.547.273.87.87,0,0,1-.124.969,12.066,12.066,0,0,1-1.342,1.417c-.323.323-.671.646-1.019.969-.05.05-.149.075-.123.174s.149.1.224.124a3.27,3.27,0,0,1,1.317.646,3.541,3.541,0,0,1,.721.77h0a4.676,4.676,0,0,1,.447.944l.074.3c.025.1,0,.224.025.323v.472a1.434,1.434,0,0,0-.025.323,3.97,3.97,0,0,1-.249.77,3.642,3.642,0,0,1-1.914,1.84,4.839,4.839,0,0,1-2.66.273c-.373-.075-.746-.174-1.094-.273a3.406,3.406,0,0,1-1.839-1.641,1.136,1.136,0,0,1-.075-1.218.572.572,0,0,1,.771,0,6.771,6.771,0,0,0,.944.944,2.477,2.477,0,0,0,1.989.447,1.693,1.693,0,0,0,.82-.4,1.789,1.789,0,0,0-.373-2.859,1.4,1.4,0,0,0-1.143-.149.622.622,0,0,1-.87-.447c-.075-.2.05-.3.124-.423C632.649,390.031,632.748,389.981,632.848,389.906Z" transform="translate(-618.727 -361.413)" fill="#5c155d"/>
    <path id="Path_7" data-name="Path 7" d="M612.2,304.408a22.109,22.109,0,0,1,35.322.025H646.3c-.124,0-.174-.1-.249-.2a21.08,21.08,0,0,0-17.7-7.507,20.777,20.777,0,0,0-14.069,6.812,3.713,3.713,0,0,0-.5.572.673.673,0,0,1-.671.323c-.273-.025-.547,0-.845,0C612.275,304.408,612.25,304.408,612.2,304.408Z" transform="translate(-605.213 -294.085)" fill="#8bc249"/>
    <path id="Path_8" data-name="Path 8" d="M621.7,309.921a20.3,20.3,0,0,1,30.623,0h-1.541c-.1,0-.174-.1-.224-.174a18.422,18.422,0,0,0-8.352-4.9,18.763,18.763,0,0,0-17.549,3.828c-.422.348-.8.746-1.218,1.094-.075.075-.123.149-.249.149Z" transform="translate(-612.352 -299.598)" fill="#8bc249"/>
    <path id="Path_9" data-name="Path 9" d="M604.6,299.7c5-6.736,11.633-10.39,20.109-10.218,8.029.174,14.318,3.8,19.016,10.218,0,.025-.025.075-.025.1h-.87c-.124,0-.149-.1-.224-.174a22.868,22.868,0,0,0-27.664-7.408,22.413,22.413,0,0,0-9.1,7.258.636.636,0,0,1-.646.323,3.662,3.662,0,0,0-.522,0A.133.133,0,0,1,604.6,299.7Z" transform="translate(-599.502 -289.472)" fill="#8bc249"/>
    <path id="Path_10" data-name="Path 10" d="M602.387,348.97a2.88,2.88,0,0,1,.721-.648,1.716,1.716,0,0,1,2.635,1.367c.124.8.224,1.565.348,2.363a1,1,0,0,0,.4.646.405.405,0,0,1,.174.5c-.074.2-.248.224-.447.224H604c-.2,0-.4-.025-.472-.249a.368.368,0,0,1,.2-.472A.637.637,0,0,0,604,352c-.075-.5-.149-1.019-.224-1.541a1.246,1.246,0,0,0-.224-.6.58.58,0,0,0-.969,0,1.394,1.394,0,0,0-.224.77,13.415,13.415,0,0,0,0,1.417.7.7,0,0,0,.348.646.377.377,0,0,1,.2.472c-.074.224-.273.249-.447.249H600.3c-.2,0-.4,0-.472-.224a.4.4,0,0,1,.2-.5.714.714,0,0,0,.323-.621v-1.765a.642.642,0,0,0-.348-.6c-.4-.224-.4-.547,0-.77a9.273,9.273,0,0,1,1.765-.77c.348-.124.572.05.6.423C602.362,348.7,602.387,348.8,602.387,348.97Z" transform="translate(-595.822 -333.501)" fill="#5c155d"/>
    <path id="Path_11" data-name="Path 11" d="M670.074,352.73a2.743,2.743,0,0,1-.921.721,1.79,1.79,0,0,1-2.635-1.641v-1.392a.717.717,0,0,0-.422-.746.426.426,0,0,1-.3-.4c0-.224.149-.323.323-.422a11.077,11.077,0,0,1,1.815-.6c.4-.1.6.075.6.547.025.671,0,1.342,0,1.989a4.781,4.781,0,0,0,.025.6.736.736,0,0,0,.671.746.746.746,0,0,0,.771-.646,4.534,4.534,0,0,0,.075-1.293.473.473,0,0,0-.249-.4c-.075-.05-.174-.1-.249-.149-.174-.075-.323-.174-.3-.4,0-.224.149-.3.323-.4a10.971,10.971,0,0,1,1.268-.447c.174-.05.373-.1.547-.149.5-.124.721,0,.721.547,0,.87.025,1.74,0,2.61a.978.978,0,0,0,.5.945c.174.1.3.2.273.422a.423.423,0,0,1-.373.373,12.521,12.521,0,0,1-1.914.422c-.3.05-.448-.1-.472-.4a1.84,1.84,0,0,1-.073-.441Z" transform="translate(-645.488 -333.608)" fill="#5c155d"/>
    <path id="Path_12" data-name="Path 12" d="M698.459,353.233a5.179,5.179,0,0,1-1.068-.1.579.579,0,0,0-.5.1.417.417,0,0,1-.7-.149c-.249-.5-.5-.994-.7-1.516a.432.432,0,0,1,.1-.572c.224-.149.422-.025.6.124a4.278,4.278,0,0,0,1.765,1.118,1.442,1.442,0,0,0,.969,0,.345.345,0,0,0,.249-.3c0-.174-.123-.249-.273-.3-.447-.174-.944-.224-1.417-.373a4.382,4.382,0,0,1-1.119-.447,1.519,1.519,0,0,1-.82-1.442,1.575,1.575,0,0,1,.995-1.367,3.21,3.21,0,0,1,1.989-.149.853.853,0,0,0,.7-.075.378.378,0,0,1,.547.124,6.894,6.894,0,0,1,.82,1.268.422.422,0,0,1-.075.547c-.174.124-.348.025-.522-.1a4.035,4.035,0,0,0-1.864-.944.692.692,0,0,0-.447.025c-.124.05-.249.1-.249.249-.025.149.1.224.224.273a5.143,5.143,0,0,0,.82.249,7.673,7.673,0,0,1,1.467.447,1.566,1.566,0,0,1,1.094,1.516,1.712,1.712,0,0,1-1.267,1.565A2.893,2.893,0,0,1,698.459,353.233Z" transform="translate(-667.759 -333.24)" fill="#5c155d"/>
    <path id="Subtraction_2" data-name="Subtraction 2" d="M3.009,5.682a4.138,4.138,0,0,1-1.148-.17,2.6,2.6,0,0,1-1.37-.979A2.689,2.689,0,0,1,0,2.9,2.676,2.676,0,0,1,1.463.417,3.6,3.6,0,0,1,3.064,0a2.9,2.9,0,0,1,1.63.516,1.9,1.9,0,0,1,.644.683,2.221,2.221,0,0,1,.252.907.482.482,0,0,1-.423.547L4.76,2.78,4.713,2.8C4.068,3,3.4,3.2,2.756,3.424c-.149.046-.238.083-.254.139s.04.131.153.258a1.7,1.7,0,0,0,1.229.548,1.731,1.731,0,0,0,.884-.249,2.169,2.169,0,0,0,.224-.137,2.165,2.165,0,0,1,.223-.137.509.509,0,0,1,.248-.084.3.3,0,0,1,.249.159.3.3,0,0,1,.026.375A2.268,2.268,0,0,1,4.6,5.315a3.6,3.6,0,0,1-1.587.367ZM2.756.987a.56.56,0,0,0-.423.224A1.659,1.659,0,0,0,2.06,2.529c.02.08.054.119.1.119a.157.157,0,0,0,.07-.019c.342-.137.68-.26,1.094-.4a.346.346,0,0,0,.249-.273.914.914,0,0,0-.256-.667.8.8,0,0,0-.564-.3Z" transform="translate(43.53 14.455)" fill="#5c155d"/>
    <path id="Path_14" data-name="Path 14" d="M631.268,353.389a2.686,2.686,0,0,1-2.635-1.467,2.871,2.871,0,0,1,1.84-4.027,2.968,2.968,0,0,1,2.885.6.865.865,0,0,1,.05,1.367,2.18,2.18,0,0,1-.6.472.457.457,0,0,1-.746-.3,8.842,8.842,0,0,1-.224-.87.919.919,0,0,0-.174-.348.56.56,0,0,0-.969.025,1.318,1.318,0,0,0-.2.671,2.452,2.452,0,0,0,.422,1.765,1.573,1.573,0,0,0,2.113.472c.174-.1.348-.224.522-.348a.34.34,0,0,1,.373-.025.356.356,0,0,1,.123.373,1.577,1.577,0,0,1-.671.921A3.083,3.083,0,0,1,631.268,353.389Z" transform="translate(-617.346 -333.273)" fill="#5c155d"/>
    <path id="Path_15" data-name="Path 15" d="M585.782,347.257H584.54a.386.386,0,0,1-.423-.249.374.374,0,0,1,.174-.472.862.862,0,0,0,.4-.845v-4.249a.884.884,0,0,0-.4-.845.388.388,0,0,1-.174-.447.348.348,0,0,1,.373-.273,4.391,4.391,0,0,1,.572,0q.858.037,1.715,0a2.4,2.4,0,0,1,.422.025.34.34,0,0,1,.3.273c.025.149.025.323-.123.4a1.069,1.069,0,0,0-.448,1.043v4.027a.973.973,0,0,0,.423.921.391.391,0,0,1,.149.472c-.05.174-.2.224-.373.224Z" transform="translate(-584.09 -327.339)" fill="#5c155d"/>
    <path id="Path_16" data-name="Path 16" d="M737.027,351.846c.249-.671.5-1.317.746-1.989a.592.592,0,0,0-.2-.77.4.4,0,0,1-.149-.5c.075-.224.273-.224.448-.224a14.438,14.438,0,0,0,1.466,0c.174,0,.373.025.423.249a.391.391,0,0,1-.2.472,1.754,1.754,0,0,0-.646.87c-.422,1.019-.87,2.063-1.293,3.082a.932.932,0,0,1-.945.646h-.422a.828.828,0,0,1-.845-.572c-.447-1.069-.921-2.138-1.367-3.207a1.929,1.929,0,0,0-.621-.845c-.174-.124-.273-.273-.2-.472a.374.374,0,0,1,.447-.224c.8.025,1.616.025,2.411,0,.2,0,.447,0,.521.248.075.224-.074.4-.223.547a.475.475,0,0,0-.174.5,21.5,21.5,0,0,0,.771,2.113C736.978,351.821,737,351.821,737.027,351.846Z" transform="translate(-696.135 -333.717)" fill="#5c155d"/>
    <path id="Path_17" data-name="Path 17" d="M654.451,341.27v2.884a.875.875,0,0,0,.373.82.391.391,0,0,1,.174.472c-.05.2-.224.224-.4.224h-2.312a.33.33,0,0,1-.373-.249.389.389,0,0,1,.149-.447.875.875,0,0,0,.373-.82v-4.1a.757.757,0,0,0-.373-.746.389.389,0,0,1,0-.721,8.388,8.388,0,0,1,1.815-.8c.348-.123.572.075.572.447v3.033Z" transform="translate(-634.986 -325.752)" fill="#5c155d"/>
    <path id="Path_18" data-name="Path 18" d="M722.487,350.645v1.616a.808.808,0,0,0,.348.746.377.377,0,0,1,.2.472.4.4,0,0,1-.422.249h-2.237a.417.417,0,0,1-.447-.249c-.075-.224.05-.348.224-.472a.715.715,0,0,0,.323-.621v-1.765a.6.6,0,0,0-.348-.6c-.373-.224-.4-.572,0-.77a8.623,8.623,0,0,1,1.765-.77c.373-.123.6.05.621.447-.025.547-.025,1.119-.025,1.715Z" transform="translate(-686.093 -333.785)" fill="#5c155d"/>
    <path id="Path_19" data-name="Path 19" d="M722.592,338.6a1.564,1.564,0,0,1,.472.075.772.772,0,0,1,.4,1.193,1.736,1.736,0,0,1-1.889.671.767.767,0,0,1-.4-1.043,1.5,1.5,0,0,1,1.417-.9Z" transform="translate(-687.044 -326.387)" fill="#5c155d"/>
    <path id="Path_20" data-name="Path 20" d="M733.471,398.614c0-.447.174-.87.2-1.317a9.883,9.883,0,0,0-.174-2.958,7.074,7.074,0,0,0-.7-1.739,1.145,1.145,0,0,1,.4.572,7.668,7.668,0,0,1,.6,2.685c0,.5,0,.994-.025,1.492A3.16,3.16,0,0,1,733.471,398.614Z" transform="translate(-695.835 -366.965)" fill="#d3c0d3"/>
    <path id="Path_21" data-name="Path 21" d="M674.2,426.724a5.031,5.031,0,0,0,1.069.423,5.34,5.34,0,0,0,2.262.025,4.838,4.838,0,0,0,1.392-.572,1.643,1.643,0,0,1-.895.522,4.066,4.066,0,0,1-2.038.249,3.884,3.884,0,0,1-1.665-.547C674.25,426.824,674.225,426.774,674.2,426.724Z" transform="translate(-651.801 -392.514)" fill="#ceb9ce"/>
    <path id="Path_22" data-name="Path 22" d="M680.4,390.442c.075-.224.274-.3.472-.373a2.055,2.055,0,0,1,1.79-.025,6.336,6.336,0,0,1,.6.273c.249.1.547.2.746-.05a.634.634,0,0,0,0-.771.15.15,0,0,1-.025-.1.7.7,0,0,1,.149.87.644.644,0,0,1-.771.2,7.651,7.651,0,0,0-1.043-.422A2.129,2.129,0,0,0,680.4,390.442Z" transform="translate(-656.46 -364.559)" fill="#804981"/>
    <path id="Path_23" data-name="Path 23" d="M638.5,428.065c.2-.05.348.075.5.124a6.725,6.725,0,0,0,2.337.1,5.9,5.9,0,0,0,.895-.224,2.323,2.323,0,0,1-1.193.373A4.25,4.25,0,0,1,638.5,428.065Z" transform="translate(-624.976 -393.606)" fill="#966997"/>
    <path id="Path_24" data-name="Path 24" d="M645.27,386.4a1.194,1.194,0,0,0-.82-.249c-1.342.025-2.66,0-4,.025A.727.727,0,0,1,639.9,386a27.2,27.2,0,0,0,4.5.075C644.722,386.075,645.07,386,645.27,386.4Z" transform="translate(-626.028 -362.006)" fill="#966997"/>
    <path id="Path_25" data-name="Path 25" d="M713,428.065c.174-.05.273.075.422.1a5.622,5.622,0,0,0,2.138.124c.149,0,.3-.174.472-.1a3.244,3.244,0,0,1-1.939.224A4.313,4.313,0,0,1,713,428.065Z" transform="translate(-680.956 -393.606)" fill="#9e749e"/>
    <path id="Path_26" data-name="Path 26" d="M703.368,395.7c.075.174-.075.273-.125.423a9.749,9.749,0,0,0-.373,3.057c-.025.025-.05.025-.05,0a7.992,7.992,0,0,1,.373-3.157A3.416,3.416,0,0,1,703.368,395.7Z" transform="translate(-673.289 -369.295)" fill="#855086"/>
    <path id="Path_27" data-name="Path 27" d="M639.676,404.1c-.075.075-.124.149-.2.224a.524.524,0,0,0-.025.646.566.566,0,0,0,.547.224,1.864,1.864,0,0,1,1.218.05.2.2,0,0,1,.124.124,1.933,1.933,0,0,0-1.243-.075.638.638,0,0,1-.8-.447.583.583,0,0,1,.372-.746Z" transform="translate(-625.555 -375.606)" fill="#8f5f90"/>
    <path id="Path_28" data-name="Path 28" d="M681.436,399.765c-.348,0-.671-.075-1.019-.05a4.629,4.629,0,0,0-1.417.4,2.058,2.058,0,0,1,1.069-.447,2.972,2.972,0,0,1,1.616.075A.193.193,0,0,1,681.436,399.765Z" transform="translate(-655.408 -372.216)" fill="#ddcfde"/>
    <path id="Path_29" data-name="Path 29" d="M676.916,385.488a4.578,4.578,0,0,0-1.616.522c.025-.1.1-.124.2-.174a4.259,4.259,0,0,1,2.933-.373.472.472,0,0,1-.323.025h-.224A3.165,3.165,0,0,0,676.916,385.488Z" transform="translate(-652.628 -361.519)" fill="#a37ca4"/>
    <path id="Path_30" data-name="Path 30" d="M702.9,409.6h.05a9.509,9.509,0,0,0,.472,2.337c-.025.025-.05.025-.05,0A6.224,6.224,0,0,1,702.9,409.6Z" transform="translate(-673.367 -379.739)" fill="#926392"/>
    <path id="Path_31" data-name="Path 31" d="M667.047,396.2c-.049.423-.249.77-.323,1.193-.05.348-.124.721-.174,1.069-.025.025-.049.025-.049,0A5.222,5.222,0,0,1,667.047,396.2Z" transform="translate(-646.016 -369.67)" fill="#cfbacf"/>
    <path id="Path_32" data-name="Path 32" d="M639.814,420.872a2.187,2.187,0,0,1-2.014-.472c.149,0,.224.1.323.174a3.038,3.038,0,0,0,1.69.249C639.838,420.847,639.838,420.847,639.814,420.872Z" transform="translate(-624.449 -387.855)" fill="#c1a7c2"/>
    <path id="Path_33" data-name="Path 33" d="M713.712,385.389a4.51,4.51,0,0,0-2.063.5.315.315,0,0,1-.149.025,3.046,3.046,0,0,1,1.715-.6,1.119,1.119,0,0,1,.5,0c.025.025.025.025,0,.075C713.737,385.365,713.737,385.389,713.712,385.389Z" transform="translate(-679.83 -361.47)" fill="#895689"/>
    <path id="Path_34" data-name="Path 34" d="M661.427,412.394v-.522c-.05-.1.025-.2-.05-.3-.1-.1-.025-.2-.05-.3-.025-.075-.05-.123,0-.174a2.858,2.858,0,0,1-.123,2.386c0-.273.174-.5.174-.77C661.452,412.618,661.4,412.494,661.427,412.394Z" transform="translate(-642.037 -380.868)" fill="#b99bb9"/>
    <path id="Path_35" data-name="Path 35" d="M667.028,415.092a5.034,5.034,0,0,0,.8,2.014c.025.025.025.1.05.123a3.525,3.525,0,0,1-.771-1.516,1.124,1.124,0,0,1-.123-.646C667,415.043,667,415.068,667.028,415.092Z" transform="translate(-646.37 -383.84)" fill="#b89ab8"/>
    <path id="Path_36" data-name="Path 36" d="M666.618,407.836h-.05a3.819,3.819,0,0,1-.124-1.069,8.8,8.8,0,0,1,0-1.143V405.4h.05A16.167,16.167,0,0,0,666.618,407.836Z" transform="translate(-645.959 -376.583)" fill="#996d9a"/>
    <path id="Path_37" data-name="Path 37" d="M686.6,385.825a1.415,1.415,0,0,0,.323-.025,3.113,3.113,0,0,1,1.591.721c-.3-.075-.522-.323-.82-.422C687.321,386,686.973,385.924,686.6,385.825Z" transform="translate(-661.119 -361.855)" fill="#8c5b8d"/>
    <path id="Path_38" data-name="Path 38" d="M720.4,385.55v-.05a3.334,3.334,0,0,1,1.616.423c-.174.05-.3-.05-.447-.124A6.1,6.1,0,0,0,720.4,385.55Z" transform="translate(-686.517 -361.63)" fill="#8a578a"/>
    <path id="Path_39" data-name="Path 39" d="M677.2,398.718c0,.075-.025.123-.1.1a.107.107,0,0,1-.1-.1,2.47,2.47,0,0,1,.323-1.318c-.074.348-.149.7-.224,1.069C677.075,398.543,677,398.692,677.2,398.718Z" transform="translate(-653.906 -370.572)" fill="#936493"/>
    <path id="Path_40" data-name="Path 40" d="M636.17,385.163a.791.791,0,0,0-1.069.423C635.3,384.99,635.772,384.815,636.17,385.163Z" transform="translate(-622.421 -361.243)" fill="#8f5f90"/>
    <path id="Path_41" data-name="Path 41" d="M697.789,407.817c-.2-.273-.149-.646-.3-.944-.05-.1-.174-.224-.123-.373A2.506,2.506,0,0,1,697.789,407.817Z" transform="translate(-669.202 -377.41)" fill="#8f5e8f"/>
    <path id="Path_42" data-name="Path 42" d="M688.8,400.3h.248c.323.149.7.174.945.472C689.6,400.6,689.2,400.449,688.8,400.3Z" transform="translate(-662.772 -372.751)" fill="#b697b6"/>
    <path id="Path_43" data-name="Path 43" d="M657.821,405.671c-.249-.249-.472-.522-.721-.771A1.373,1.373,0,0,1,657.821,405.671Z" transform="translate(-638.952 -376.208)" fill="#976997"/>
    <path id="Path_44" data-name="Path 44" d="M707.5,423.6a3.959,3.959,0,0,1,.721.721A2.005,2.005,0,0,1,707.5,423.6Z" transform="translate(-676.824 -390.259)" fill="#906090"/>
    <path id="Path_45" data-name="Path 45" d="M660.422,408.77v.174c-.149-.323-.273-.646-.422-.944A1.806,1.806,0,0,1,660.422,408.77Z" transform="translate(-641.131 -378.537)" fill="#844e84"/>
    <path id="Path_46" data-name="Path 46" d="M645.9,421.1v-.05a7.3,7.3,0,0,0,.77-.348A1.071,1.071,0,0,1,645.9,421.1Z" transform="translate(-630.536 -388.083)" fill="#b99bba"/>
    <path id="Path_47" data-name="Path 47" d="M666.3,406.3v1.143A2.536,2.536,0,0,1,666.3,406.3Z" transform="translate(-645.818 -377.26)" fill="#cfbacf"/>
    <path id="Path_48" data-name="Path 48" d="M631.57,415.979a.775.775,0,0,0-.77,0,.464.464,0,0,1,.77,0Z" transform="translate(-619.19 -384.379)" fill="#916292"/>
    <path id="Path_49" data-name="Path 49" d="M704.8,419h.05a6.084,6.084,0,0,0,.248.6.778.778,0,0,1-.3-.6Z" transform="translate(-674.795 -386.803)" fill="#bfa4c0"/>
    <path id="Path_50" data-name="Path 50" d="M632.2,399.224a.984.984,0,0,0,.646-.124.451.451,0,0,1-.646.124Z" transform="translate(-620.242 -371.85)" fill="#9b6f9b"/>
    <path id="Path_51" data-name="Path 51" d="M782.3,363.773V363.4Q782.561,363.587,782.3,363.773Z" transform="translate(-733.031 -345.024)" fill="#9b6f9b"/>
    <path id="Path_52" data-name="Path 52" d="M670.6,391.4a1.012,1.012,0,0,1-.3.423A.644.644,0,0,1,670.6,391.4Z" transform="translate(-648.871 -366.063)" fill="#b899b8"/>
    <path id="Path_54" data-name="Path 54" d="M724.223,399.411a13.423,13.423,0,0,0,.224-3.157,8.592,8.592,0,0,0-.423-2.386c-.049-.174-.2-.3-.224-.472a2.535,2.535,0,0,1,.522,1.218,8.449,8.449,0,0,1,.224,2.237,6.621,6.621,0,0,1-.2,2.087,1.215,1.215,0,0,0-.025.3C724.247,399.263,724.372,399.411,724.223,399.411Z" transform="translate(-689.073 -367.563)" fill="#bda1be"/>
    <path id="Path_55" data-name="Path 55" d="M713.22,394.5a11.076,11.076,0,0,0-.472,3.928c-.025.025-.05.025-.05,0a10.954,10.954,0,0,1,.075-2.386A3.157,3.157,0,0,1,713.22,394.5Z" transform="translate(-680.704 -368.393)" fill="#a076a0"/>
    <path id="Path_56" data-name="Path 56" d="M712.794,410.4h.049a8.022,8.022,0,0,0,.522,2.635,1.413,1.413,0,0,1-.4-.895A6.9,6.9,0,0,1,712.794,410.4Z" transform="translate(-680.799 -380.341)" fill="#8c5b8d"/>
    <path id="Path_57" data-name="Path 57" d="M724.595,417.074c.05-.05.075-.124.123-.174a1.846,1.846,0,0,1-.423,1.069A7.545,7.545,0,0,1,724.595,417.074Z" transform="translate(-689.445 -385.225)" fill="#8b598c"/>
    <path id="Path_59" data-name="Path 59" d="M686.424,410.772c.075-.273.249-.5.323-.8a5.158,5.158,0,0,0,0-2.138,2.079,2.079,0,0,0-.547-.895.047.047,0,0,1,.075,0,1.98,1.98,0,0,1,.671,1.442,3.862,3.862,0,0,1-.3,2.113A.577.577,0,0,1,686.424,410.772Z" transform="translate(-660.819 -377.73)" fill="#d0bcd0"/>
    <path id="Path_60" data-name="Path 60" d="M681.294,406.021h-.075a1.457,1.457,0,0,0-1.492-.074c-.025.025-.075,0-.123.025A1.346,1.346,0,0,1,681.294,406.021Z" transform="translate(-655.863 -376.807)" fill="#946695"/>
    <path id="Path_61" data-name="Path 61" d="M676.825,408.9a3.912,3.912,0,0,0-.248,1.765c.025.1.05.174,0,.248A2.737,2.737,0,0,1,676.825,408.9Z" transform="translate(-653.531 -379.214)" fill="#986b98"/>
    <path id="Path_62" data-name="Path 62" d="M681.6,423.775a1.793,1.793,0,0,0,1.019-.075A.869.869,0,0,1,681.6,423.775Z" transform="translate(-657.362 -390.335)" fill="#a780a7"/>
    <path id="Path_63" data-name="Path 63" d="M676.8,416.349V416.1c.075.323.149.646.248.969C676.85,416.871,676.875,416.6,676.8,416.349Z" transform="translate(-653.755 -384.624)" fill="#a47ca5"/>
    <path id="Path_64" data-name="Path 64" d="M681.8,385.674a1.533,1.533,0,0,1,.945,0Z" transform="translate(-657.513 -361.705)" fill="#8c5b8d"/>
    <path id="Path_65" data-name="Path 65" d="M680.2,423.3a.971.971,0,0,1,.348.2A.353.353,0,0,1,680.2,423.3Z" transform="translate(-656.31 -390.034)" fill="#a780a7"/>
    <path id="Path_66" data-name="Path 66" d="M661.9,413c.1.075.05.2.05.3C661.875,413.224,661.925,413.1,661.9,413Z" transform="translate(-642.559 -382.294)" fill="#844e84"/>
    <path id="Path_67" data-name="Path 67" d="M661.945,416.3c0,.1.025.224-.05.3A.633.633,0,0,1,661.945,416.3Z" transform="translate(-642.555 -384.774)" fill="#844e84"/>
  </g>
</svg>
