<svg id="Group_1607" data-name="Group 1607" xmlns="http://www.w3.org/2000/svg" width="204.707" height="92.671" viewBox="0 0 204.707 92.671">
  <rect id="Rectangle_581" data-name="Rectangle 581" width="204.707" height="92.671" rx="1" fill="#fff"/>
  <g id="primary-logo_blue_1_" data-name="primary-logo(blue) (1)" transform="translate(55.326 33.196)">
    <path id="Path_14155" data-name="Path 14155" d="M4.987,30.391H3.665v4.031H.074v-13.1H5.743a4.535,4.535,0,0,1,4.85,4.6,4.253,4.253,0,0,1-2.079,3.716L11.1,34.423H7.066ZM3.665,27.368H5.3a1.425,1.425,0,0,0,1.575-1.449A1.381,1.381,0,0,0,5.3,24.534H3.665Z" transform="translate(-0.074 -7.969)" fill="#1d0056"/>
    <path id="Path_14156" data-name="Path 14156" d="M29.534,30.849a4.767,4.767,0,0,1-.063.945h-7.5a2,2,0,0,0,2.079,1.764,2.048,2.048,0,0,0,1.827-.945h3.464a5.266,5.266,0,0,1-5.291,3.716,5.355,5.355,0,1,1,0-10.708A5.13,5.13,0,0,1,29.534,30.849Zm-7.5-1.008h4.094a2.036,2.036,0,0,0-2.079-1.575A2.015,2.015,0,0,0,22.039,29.841Z" transform="translate(-6.922 -9.56)" fill="#1d0056"/>
    <path id="Path_14157" data-name="Path 14157" d="M44.485,31.373V34.4H42.091a3.341,3.341,0,0,1-3.59-3.59V27.027H36.674v-.819l4.535-4.787H41.9v2.96h2.519v2.645H41.965V30.24a1.077,1.077,0,0,0,1.2,1.134Z" transform="translate(-13.621 -8.006)" fill="#1d0056"/>
    <path id="Path_14158" data-name="Path 14158" d="M77.025,25.884v3.149H75.7c-1.26,0-1.764.567-1.764,1.827v5.1H70.474V25.884H72.8l.567,1.134a3.367,3.367,0,0,1,2.771-1.2Z" transform="translate(-26.132 -9.635)" fill="#1d0056"/>
    <path id="Path_14159" data-name="Path 14159" d="M93.026,29.875v6.173H89.562V30.379c0-1.2-.441-1.764-1.323-1.764-1.071,0-1.7.756-1.7,2.016v5.417H83.074V25.969h2.457l.5,1.071a4.268,4.268,0,0,1,3.149-1.323C91.452,25.592,93.026,27.292,93.026,29.875Z" transform="translate(-30.795 -9.594)" fill="#1d0056"/>
    <path id="Path_14160" data-name="Path 14160" d="M105.646,36.329c-2.771,0-4.409-1.449-4.472-3.653h3.338c0,.756.5,1.071,1.2,1.071.5,0,1.008-.252,1.008-.756,0-.567-.756-.756-1.764-.882-1.575-.252-3.653-.756-3.653-3.149,0-2.016,1.7-3.338,4.283-3.338s4.22,1.386,4.283,3.4h-3.275c0-.63-.441-.945-1.071-.945-.567,0-.945.252-.945.756,0,.567.756.693,1.7.882,1.575.252,3.716.63,3.716,3.149C110.118,34.943,108.354,36.329,105.646,36.329Z" transform="translate(-37.494 -9.561)" fill="#1d0056"/>
    <path id="Path_14161" data-name="Path 14161" d="M126.577,31.273v3.149h-8.5v-13.1h8.377v3.086h-4.787V26.36h4.283v2.96h-4.283v1.953Z" transform="translate(-43.75 -7.969)" fill="#1d0056"/>
    <path id="Path_14162" data-name="Path 14162" d="M143.8,31.021V34.36h-10.33V33.6l4.85-8.944h-4.535V21.321h9.826v.819l-4.85,8.881Z" transform="translate(-49.45 -7.969)" fill="#1d0056"/>
    <path id="Path_14163" data-name="Path 14163" d="M84.757,10.956l5.291,2.016L89.985,3.9l-.945.693c-1.89,1.134-2.016,1.008-3.968-.63A16.643,16.643,0,0,0,57.8,16.75h.063v5.291c0,1.071-.567,1.7-1.512,1.7s-1.512-.63-1.512-1.7V16.436H51.374v5.732c0,2.834,2.016,4.661,4.976,4.661a5.029,5.029,0,0,0,3.779-1.449,4.587,4.587,0,0,0,1.2-3.212v-5.48A12.744,12.744,0,0,1,66.554,6.295C72.1,2.264,79.907,3.019,83.938,8c-.756.63-1.575,1.2-2.456,1.89C82.616,10.326,83.686,10.641,84.757,10.956Z" transform="translate(-19.062 -0.123)" fill="#01a3ff"/>
  </g>
</svg>
