<svg id="Group_1619" data-name="Group 1619" xmlns="http://www.w3.org/2000/svg" xmlns:xlink="http://www.w3.org/1999/xlink" width="204.858" height="92.74" viewBox="0 0 204.858 92.74">
  <defs>
    <clipPath id="clip-path">
      <rect id="Rectangle_568" data-name="Rectangle 568" width="100.931" height="39.542" fill="none"/>
    </clipPath>
  </defs>
  <rect id="Rectangle_582" data-name="Rectangle 582" width="204.858" height="92.74" rx="1" fill="#fff"/>
  <g id="Repeat_Grid_1" data-name="Repeat Grid 1" transform="translate(52.599 26.299)" clip-path="url(#clip-path)">
    <g id="Group_6446" data-name="Group 6446" transform="translate(0.001 0.002)">
      <g id="Component_22_52" data-name="Component 22 – 52" transform="translate(44.945 12.113)">
        <g id="Group" transform="translate(0 0)">
          <path id="Path_3827" data-name="Path 3827" d="M.8-8.789a7.846,7.846,0,0,1,.943-3.862,6.846,6.846,0,0,1,2.576-2.658,7.132,7.132,0,0,1,3.661-.952,7.043,7.043,0,0,1,4.159,1.256,6.554,6.554,0,0,1,2.5,3.475H11.373A3.456,3.456,0,0,0,10-13.1a3.92,3.92,0,0,0-2.038-.524,4.1,4.1,0,0,0-2.2.6,4.029,4.029,0,0,0-1.5,1.685A5.7,5.7,0,0,0,3.727-8.79a5.72,5.72,0,0,0,.538,2.543,4.012,4.012,0,0,0,1.5,1.7,4.1,4.1,0,0,0,2.2.6A3.861,3.861,0,0,0,10-4.487a3.52,3.52,0,0,0,1.369-1.58h3.265a6.52,6.52,0,0,1-2.485,3.485A7.075,7.075,0,0,1,7.985-1.337a7.132,7.132,0,0,1-3.661-.952A6.866,6.866,0,0,1,1.748-4.938,7.787,7.787,0,0,1,.8-8.789Zm28.012-7.284V-1.461h-2.84V-7.679H19.912v6.218h-2.84V-16.072h2.84v6.007h6.065v-6.007Zm5.639,0V-1.461h-2.84V-16.072Zm5.639,2.365v3.663h4.767v2.323H40.1v3.872h5.375v2.388H37.258V-16.094h8.215v2.386Zm16.694-2.365v2.365h-5.9v3.746h4.52v2.323h-4.52v6.177h-2.84V-16.072Z" transform="translate(-0.804 16.262)" fill="#103bb5"/>
        </g>
      </g>
      <g id="Group_5926" data-name="Group 5926" transform="translate(0 0)">
        <g id="Group_5927" data-name="Group 5927" transform="translate(1.256 1.312)">
          <g id="Group_5926-2" data-name="Group 5926" transform="translate(0 0)">
            <path id="Path_3591" data-name="Path 3591" d="M1386.116,1758.2s-1.161-1.474-7.011-1.781l-3.611-.676s-3.742.165-3.127,4.413c0,0,1.29,8.615,7.979,11.96,0,0,6.213,4.388,9.968-3.455,0,0-1.271-4.324-1.05-6.6C1389.271,1762.059,1387.237,1762,1386.116,1758.2Zm1.836,4.576c.363.826-.673,1.424-.673,1.424-1.022.821.732,3.6.732,3.6.964,3.009-2.715,3.919-2.715,3.919-1.358.834-2.064.219-2.064.219-.263-.653,1.042-1.982,1.042-1.982a1.958,1.958,0,0,0,.33-3.413c-1.322-2.688,1.775-3.9,1.775-3.9,1.474-.843,1.572.139,1.572.139Z" transform="translate(-1372.299 -1739.058)" fill="#6d86c2"/>
            <path id="Path_3592" data-name="Path 3592" d="M1557.207,1337.864s1.843-.362,4.778-5.431l2.246-2.909s1.554-3.4-2.5-4.793c0,0-8.255-2.771-14.28,1.659,0,0-6.736,3.537-1.462,10.45,0,0,4.431.837,6.355,2.071C1552.333,1338.915,1553.305,1337.136,1557.207,1337.864Zm-4.914-.448c-.9-.054-.962-1.248-.962-1.248-.264-1.277-3.538-.989-3.538-.989-3.119-.512-2.253-4.2-2.253-4.2-.125-1.589.743-1.933.743-1.933.7.064,1.291,1.829,1.291,1.829a1.957,1.957,0,0,0,2.886,1.848c3,.047,2.666,3.356,2.666,3.356.086,1.688-.831,1.335-.831,1.335Z" transform="translate(-1537.328 -1323.875)" fill="#6d86c2"/>
            <path id="Path_3593" data-name="Path 3593" d="M1910.288,1702.943s-.823,1.689,1.451,7.087l.964,3.545s1.778,3.294,5.335.892c0,0,7.188-4.914,7.289-12.391,0,0,1.241-7.506-7.453-7.468,0,0-3.341,3.029-5.485,3.82C1912.391,1698.433,1913.226,1700.28,1910.288,1702.943Zm3.319-3.646c.589-.688,1.572-.015,1.572-.015,1.179.565,2.924-2.23,2.924-2.23,2.29-2.178,4.711.739,4.711.739,1.342.859,1.093,1.758,1.093,1.758-.475.521-2.238-.075-2.238-.075a1.957,1.957,0,0,0-3.216,1.19c-1.844,2.359-4.283.1-4.283.1-1.4-.95-.567-1.466-.567-1.466Z" transform="translate(-1889.363 -1680.283)" fill="#6d86c2"/>
            <path id="Path_3594" data-name="Path 3594" d="M1768.483,1723.993a3.022,3.022,0,1,1-1.105,4.127,3.022,3.022,0,0,1,1.105-4.127Z" transform="translate(-1751.722 -1708.14)" fill="#6d86c2"/>
          </g>
        </g>
        <rect id="Rectangle_1496" data-name="Rectangle 1496" width="22.072" height="7.649" transform="translate(8.767 16.267)" fill="#e60019"/>
        <g id="Group_5929" data-name="Group 5929" transform="translate(9.449 17.912)">
          <g id="Group_5928" data-name="Group 5928" transform="translate(0 0)">
            <path id="Path_3595" data-name="Path 3595" d="M1587.249,1753.829h.972v4.2h-.972V1756.3h-1.906v1.722h-.972v-4.2h.972v1.655h1.906Zm2.254,4.246a.573.573,0,0,1-.582-.59h0a.548.548,0,0,1,.168-.417.58.58,0,0,1,.414-.159h0a.58.58,0,0,1,.414.159.546.546,0,0,1,.168.417h0a.574.574,0,0,1-.582.589Zm2.248-.827h2.285v.776h-3.248v-4.2h3.172v.776h-2.207v.912h1.949v.756h-1.949Zm3.406.827a.574.574,0,0,1-.582-.59h0a.548.548,0,0,1,.168-.417.58.58,0,0,1,.414-.159h0a.581.581,0,0,1,.414.159.545.545,0,0,1,.168.416h0a.574.574,0,0,1-.582.589Zm2.663.024a3.429,3.429,0,0,1-.962-.134,2.255,2.255,0,0,1-.746-.353h0l.329-.732a2.243,2.243,0,0,0,.642.317,2.41,2.41,0,0,0,.744.12h0a1.2,1.2,0,0,0,.611-.123.371.371,0,0,0,.2-.327h0a.315.315,0,0,0-.117-.25.88.88,0,0,0-.3-.159q-.183-.059-.492-.133h0a6.686,6.686,0,0,1-.786-.228,1.272,1.272,0,0,1-.525-.365.987.987,0,0,1-.219-.671h0a1.169,1.169,0,0,1,.2-.662,1.328,1.328,0,0,1,.6-.47,2.424,2.424,0,0,1,.975-.174h0a3.206,3.206,0,0,1,.786.1,2.317,2.317,0,0,1,.671.276h0l-.3.738a2.342,2.342,0,0,0-1.164-.33h0a1.093,1.093,0,0,0-.6.132.4.4,0,0,0-.2.348h0a.341.341,0,0,0,.225.321,3.58,3.58,0,0,0,.688.206h0a6.771,6.771,0,0,1,.786.228,1.3,1.3,0,0,1,.525.361.962.962,0,0,1,.219.665h0a1.15,1.15,0,0,1-.2.656,1.347,1.347,0,0,1-.6.47,2.457,2.457,0,0,1-.978.175Zm2.85-.024a.564.564,0,0,1-.414-.168.572.572,0,0,1-.168-.42h0a.548.548,0,0,1,.168-.417.58.58,0,0,1,.414-.16h0a.581.581,0,0,1,.414.159.547.547,0,0,1,.168.417h0a.574.574,0,0,1-.582.589Zm2.153-.048v-3.406h-1.341v-.792h3.658v.792H1603.8v3.406Z" transform="translate(-1584.371 -1753.752)" fill="#1e4a9b"/>
          </g>
        </g>
        <g id="Group_5932" data-name="Group 5932" transform="translate(32.095 18.187)">
          <g id="Group_5931" data-name="Group 5931" transform="translate(0 0)">
            <g id="Group_5930" data-name="Group 5930">
              <path id="Path_3596" data-name="Path 3596" d="M2175.071,1761.671v.517h-.047v-.611h-.235v.611h-.047v-.1h-.235v.1h-.047v-.424h-.235v.424h-.046v-.752h-.237v.752h-.048v-.707h-.234v.707h-.048v-1.222h-.235v1.222h-.047v-.142h-.235v.142h-.047v-.424h-.236v.424h-.048v-1.222h-.235v1.222h-.047v-.707h-.236v.707h-.047v-.611h-.235v.611h-.048v-.282h-.236v.282h-.047v-.893h-.235v.893h-.046v-1.6h-.236v1.6h-.047v-.611h-.235v.611h-.046v-.282h-.235v.707h.235v-.282h.046v.612h.235v-.612h.047v1.6h.236v-1.6h.046v.893h.235v-.893h.047v.282h.236v-.282h.048v.612h.235v-.612h.047v.706h.236v-.706h.047v1.222h.235v-1.222h.048v.424h.236v-.424h.047v.141h.235v-.141h.047v1.222h.235v-1.222h.048v.706h.234v-.706h.048v.753h.235v-.753h.047v.424h.235v-.424h.047v.1h.234v-.1h.048v.612h.235v-.612h.047v.518h.188v-1.179Z" transform="translate(-2170.553 -1760.589)" fill="#e60019"/>
            </g>
          </g>
        </g>
        <g id="Group_5935" data-name="Group 5935" transform="translate(2.875 17.605)">
          <g id="Group_5934" data-name="Group 5934" transform="translate(0 0)">
            <g id="Group_5933" data-name="Group 5933">
              <path id="Path_3597" data-name="Path 3597" d="M1418.76,1749.706v.282h-4.507v-4.506h.283v4.225Zm-.565-4.225-1.109.182.266.326-2.345,1.918.178.219,2.345-1.918.266.325Zm-.307,1.607-.257-.314v2.653h.565v-3.151Zm-1.947.786v1.554h.565v-2.015Zm-.8.652-.049-.061v.964h.565V1748.1Zm1.64-1.341v2.244h.565v-2.706Z" transform="translate(-1414.254 -1745.48)" fill="#e60019"/>
            </g>
          </g>
        </g>
        <g id="Group_5936" data-name="Group 5936" transform="translate(0 0)">
          <path id="Path_3598" data-name="Path 3598" d="M1359.422,1329.493a19.756,19.756,0,1,1,3.985-.4A19.952,19.952,0,0,1,1359.422,1329.493Zm0-38.864a19.095,19.095,0,1,0,19.095,19.094A19.095,19.095,0,0,0,1359.422,1290.629Z" transform="translate(-1339.651 -1289.95)" fill="#e60019"/>
        </g>
        <g id="Group_5937" data-name="Group 5937" transform="translate(30.839 16.268)">
          <path id="Path_3599" data-name="Path 3599" d="M2145.134,1718.605h-7.147v-7.649h7.147Zm-6.645-.5h6.143v-6.645h-6.141Z" transform="translate(-2137.987 -1710.956)" fill="#1e4a9b"/>
        </g>
        <g id="Group_5938" data-name="Group 5938" transform="translate(1.689 16.268)">
          <path id="Path_3600" data-name="Path 3600" d="M1390.614,1718.605h-7.147v-7.649h7.147Zm-6.645-.5h6.143v-6.645h-6.143Z" transform="translate(-1383.467 -1710.956)" fill="#1e4a9b"/>
        </g>
        <g id="Group_5941" data-name="Group 5941" transform="translate(4.359 24.48)">
          <g id="Group_5940" data-name="Group 5940" transform="translate(0 0)">
            <g id="Group_5939" data-name="Group 5939">
              <path id="Path_3601" data-name="Path 3601" d="M1453.208,1923.547h.3l.009,1.043h-.295v-.407h-.4v.407h-.295l-.009-1.043h.295v.392h.4Zm.912.212a.457.457,0,0,1,.308.089.353.353,0,0,1,.108.283h0v.448h-.264v-.1a.243.243,0,0,1-.238.119h0a.377.377,0,0,1-.162-.031.23.23,0,0,1-.14-.216h0a.207.207,0,0,1,.086-.179.479.479,0,0,1,.271-.066h.161c-.005-.085-.062-.128-.172-.128h0a.378.378,0,0,0-.117.02.3.3,0,0,0-.1.052h0l-.1-.191a.514.514,0,0,1,.162-.07.787.787,0,0,1,.2-.027Zm-.006.656a.154.154,0,0,0,.086-.025.133.133,0,0,0,.053-.071h0v-.071h-.122c-.082,0-.123.028-.123.084h0a.072.072,0,0,0,.029.059.125.125,0,0,0,.078.022Zm.943-.552a.263.263,0,0,1,.112-.085.412.412,0,0,1,.158-.03h0V1924a.4.4,0,0,0-.064,0h0a.177.177,0,0,0-.192.2h0v.372h-.282l-.006-.808h.27Zm.468.706-.006-.808h.283l.006.808Zm.135-.9a.183.183,0,0,1-.126-.042.142.142,0,0,1-.048-.107h0a.139.139,0,0,1,.047-.107.178.178,0,0,1,.125-.044h0a.182.182,0,0,1,.126.04.133.133,0,0,1,.048.1h0a.146.146,0,0,1-.046.112.177.177,0,0,1-.125.044Zm1.229.486v.071h-.589a.165.165,0,0,0,.071.1.233.233,0,0,0,.129.033h0a.274.274,0,0,0,.1-.017.289.289,0,0,0,.085-.054h0l.15.154a.44.44,0,0,1-.343.134h0a.553.553,0,0,1-.25-.052.393.393,0,0,1-.228-.363h0a.408.408,0,0,1,.056-.212.394.394,0,0,1,.158-.149.47.47,0,0,1,.228-.055h0a.481.481,0,0,1,.219.048.383.383,0,0,1,.157.142A.431.431,0,0,1,1456.89,1924.156Zm-.432-.211a.162.162,0,0,0-.164.137h.332a.172.172,0,0,0-.056-.1.164.164,0,0,0-.11-.036Zm1.236-.2h.269v.66a.435.435,0,0,1-.12.338.5.5,0,0,1-.353.114h0a.9.9,0,0,1-.224-.026.519.519,0,0,1-.178-.077h0l.1-.2a.363.363,0,0,0,.125.063.524.524,0,0,0,.148.023h0a.234.234,0,0,0,.164-.05.2.2,0,0,0,.051-.147h0v-.026a.3.3,0,0,1-.24.1h0a.427.427,0,0,1-.2-.047.366.366,0,0,1-.145-.137.391.391,0,0,1-.055-.2h0a.389.389,0,0,1,.052-.2.38.38,0,0,1,.141-.142.42.42,0,0,1,.2-.049h0a.294.294,0,0,1,.254.11h0Zm-.184.542a.177.177,0,0,0,.126-.046.155.155,0,0,0,.049-.12h0a.156.156,0,0,0-.05-.118.178.178,0,0,0-.127-.044h0a.18.18,0,0,0-.127.046.153.153,0,0,0-.049.119h0a.153.153,0,0,0,.051.119.181.181,0,0,0,.126.045Zm1.539-.141v.071h-.59a.164.164,0,0,0,.071.1.234.234,0,0,0,.13.033h0a.277.277,0,0,0,.1-.017.3.3,0,0,0,.085-.054h0l.149.154a.439.439,0,0,1-.344.132h0a.55.55,0,0,1-.25-.052.392.392,0,0,1-.227-.364h0a.4.4,0,0,1,.056-.211.4.4,0,0,1,.158-.149.486.486,0,0,1,.227-.055h0a.482.482,0,0,1,.22.049.385.385,0,0,1,.157.142.421.421,0,0,1,.059.224Zm-.432-.213a.164.164,0,0,0-.109.037.171.171,0,0,0-.056.1h.331a.16.16,0,0,0-.166-.135Zm.641.617-.006-1.105h.282l.006,1.105Zm1.355-.235h.545v.228h-.837V1923.5h.819v.228h-.526v.176h.463v.22h-.464Zm1.3-.6a.333.333,0,0,1,.243.089.362.362,0,0,1,.093.269h0v.462h-.282v-.416c0-.11-.044-.165-.133-.165h0a.149.149,0,0,0-.116.049.2.2,0,0,0-.045.141h0v.393h-.282v-.808h.269v.088a.321.321,0,0,1,.114-.076.385.385,0,0,1,.142-.026Zm1.2.01h.27v.66a.438.438,0,0,1-.121.338.5.5,0,0,1-.353.114h0a.859.859,0,0,1-.224-.027.513.513,0,0,1-.178-.078h0l.1-.2a.361.361,0,0,0,.124.063.494.494,0,0,0,.148.022h0a.228.228,0,0,0,.163-.049.2.2,0,0,0,.051-.146h0v-.027a.3.3,0,0,1-.24.1h0a.415.415,0,0,1-.2-.048.37.37,0,0,1-.145-.137.394.394,0,0,1-.055-.2h0a.385.385,0,0,1,.053-.2.362.362,0,0,1,.14-.137.407.407,0,0,1,.2-.05h0a.3.3,0,0,1,.253.111h0Zm-.184.541a.174.174,0,0,0,.126-.046.153.153,0,0,0,.049-.119h0a.154.154,0,0,0-.049-.119.181.181,0,0,0-.127-.045h0a.18.18,0,0,0-.128.046.155.155,0,0,0-.049.119h0a.152.152,0,0,0,.051.118.179.179,0,0,0,.127.047Zm.713.265v-.808h.282v.808Zm.142-.9a.177.177,0,0,1-.125-.043.142.142,0,0,1-.049-.106h0a.14.14,0,0,1,.047-.107.185.185,0,0,1,.125-.043h0a.184.184,0,0,1,.125.041.133.133,0,0,1,.048.1h0a.146.146,0,0,1-.048.112.173.173,0,0,1-.125.043Zm.927.074a.333.333,0,0,1,.243.088.364.364,0,0,1,.092.271h0v.462h-.283v-.415q0-.166-.134-.165h0a.15.15,0,0,0-.117.048.206.206,0,0,0-.043.142h0v.393h-.283v-.808h.27v.082a.319.319,0,0,1,.113-.076.4.4,0,0,1,.141-.026Zm1.425.416v.071h-.59a.165.165,0,0,0,.071.1.241.241,0,0,0,.13.033h0a.279.279,0,0,0,.1-.015.317.317,0,0,0,.086-.054h0l.149.154a.439.439,0,0,1-.344.132h0a.549.549,0,0,1-.249-.054.394.394,0,0,1-.166-.149.4.4,0,0,1-.059-.216h0a.408.408,0,0,1,.057-.213.4.4,0,0,1,.158-.148.492.492,0,0,1,.228-.054h0a.5.5,0,0,1,.219.049.384.384,0,0,1,.156.142.431.431,0,0,1,.057.224Zm-.43-.217a.162.162,0,0,0-.109.037.172.172,0,0,0-.056.1h.331a.166.166,0,0,0-.056-.1.164.164,0,0,0-.109-.037Zm1.463.216v.071h-.59a.166.166,0,0,0,.071.1.23.23,0,0,0,.129.034h0a.278.278,0,0,0,.1-.016.3.3,0,0,0,.086-.054h0l.149.155a.437.437,0,0,1-.345.131h0a.551.551,0,0,1-.25-.053.393.393,0,0,1-.225-.365h0a.4.4,0,0,1,.216-.362.488.488,0,0,1,.228-.054h0a.484.484,0,0,1,.219.05.384.384,0,0,1,.155.142.424.424,0,0,1,.057.225Zm-.43-.218a.161.161,0,0,0-.165.136h.331a.171.171,0,0,0-.056-.1.173.173,0,0,0-.109-.037Zm.907-.092a.269.269,0,0,1,.113-.082.417.417,0,0,1,.158-.028h0v.254a.555.555,0,0,0-.064,0h0a.176.176,0,0,0-.193.2h0v.371h-.282v-.807h.269Zm.463.712v-.808h.282v.808Zm.142-.9a.183.183,0,0,1-.125-.043.142.142,0,0,1-.049-.107h0a.14.14,0,0,1,.048-.107.178.178,0,0,1,.125-.043h0a.186.186,0,0,1,.125.041.132.132,0,0,1,.048.1h0a.143.143,0,0,1-.048.111.179.179,0,0,1-.125.044Zm.927.077a.331.331,0,0,1,.241.089.363.363,0,0,1,.092.27h0v.462h-.283v-.415c0-.11-.044-.166-.132-.166h0a.15.15,0,0,0-.117.048.2.2,0,0,0-.044.141h0v.393h-.282v-.808h.269v.083a.326.326,0,0,1,.113-.075.375.375,0,0,1,.142-.026Zm1.2.014h.27v.66a.436.436,0,0,1-.123.338.5.5,0,0,1-.353.112h0a.912.912,0,0,1-.224-.027.549.549,0,0,1-.177-.08h0l.1-.2a.37.37,0,0,0,.124.064.5.5,0,0,0,.149.023h0a.228.228,0,0,0,.164-.049.189.189,0,0,0,.052-.146h0v-.027a.294.294,0,0,1-.24.1h0a.409.409,0,0,1-.2-.049.37.37,0,0,1-.141-.137.389.389,0,0,1-.054-.2h0a.385.385,0,0,1,.054-.2.373.373,0,0,1,.141-.137.422.422,0,0,1,.2-.049h0a.294.294,0,0,1,.252.112h0Zm-.187.541a.178.178,0,0,0,.126-.046.154.154,0,0,0,.051-.119h0a.152.152,0,0,0-.048-.119.179.179,0,0,0-.127-.046h0a.181.181,0,0,0-.128.045.155.155,0,0,0-.05.119h0a.154.154,0,0,0,.051.119.183.183,0,0,0,.127.046Zm1.6.295a.955.955,0,0,1-.245-.031.6.6,0,0,1-.2-.083h0l.1-.217a.646.646,0,0,0,.162.075.611.611,0,0,0,.182.029h0c.114,0,.17-.028.17-.084h0a.071.071,0,0,0-.048-.066.855.855,0,0,0-.156-.046h0a1.528,1.528,0,0,1-.2-.055.328.328,0,0,1-.135-.093.255.255,0,0,1-.056-.174h0a.294.294,0,0,1,.052-.172.347.347,0,0,1,.156-.121.634.634,0,0,1,.254-.044h0a.912.912,0,0,1,.2.022.62.62,0,0,1,.174.071h0l-.091.219a.6.6,0,0,0-.289-.081h0a.247.247,0,0,0-.129.025.078.078,0,0,0-.04.071h0a.071.071,0,0,0,.047.063.812.812,0,0,0,.154.044h0a1.544,1.544,0,0,1,.2.055.337.337,0,0,1,.136.092.249.249,0,0,1,.057.173h0a.289.289,0,0,1-.052.169.349.349,0,0,1-.157.121.639.639,0,0,1-.254.045Zm1.065,0a.5.5,0,0,1-.234-.054.4.4,0,0,1-.221-.365h0a.393.393,0,0,1,.222-.363.512.512,0,0,1,.235-.052h0a.517.517,0,0,1,.235.054.393.393,0,0,1,.162.148.4.4,0,0,1,.058.212h0a.406.406,0,0,1-.059.216.4.4,0,0,1-.163.149.5.5,0,0,1-.236.053Zm0-.225a.161.161,0,0,0,.123-.052.2.2,0,0,0,.048-.141h0a.2.2,0,0,0-.047-.142.159.159,0,0,0-.122-.051h0a.16.16,0,0,0-.122.05.2.2,0,0,0-.048.142h0a.2.2,0,0,0,.047.142.159.159,0,0,0,.122.051Zm.663.212v-1.1h.283v1.1Zm1.11-.8h.282v.808h-.269v-.086a.3.3,0,0,1-.107.071.358.358,0,0,1-.133.025h0a.341.341,0,0,1-.25-.093.374.374,0,0,1-.091-.277h0v-.452h.282v.4a.21.21,0,0,0,.033.133.121.121,0,0,0,.1.042h0a.145.145,0,0,0,.109-.046.212.212,0,0,0,.043-.142h0Zm1.026.581.071.2a.262.262,0,0,1-.086.034.509.509,0,0,1-.11.012h0a.351.351,0,0,1-.243-.079.3.3,0,0,1-.085-.232h0v-.271h-.118v-.212h.118v-.211h.283v.211h.185v.212h-.185v.268a.1.1,0,0,0,.023.071.081.081,0,0,0,.062.024h0a.148.148,0,0,0,.086-.024Zm.252.232v-.808h.282v.808Zm.146-.9a.176.176,0,0,1-.125-.044.137.137,0,0,1-.047-.107h0a.142.142,0,0,1,.048-.107.181.181,0,0,1,.126-.042h0a.184.184,0,0,1,.124.042.129.129,0,0,1,.048.1h0a.145.145,0,0,1-.048.111.181.181,0,0,1-.126.043Zm.8.915a.507.507,0,0,1-.234-.055.4.4,0,0,1-.22-.367h0a.4.4,0,0,1,.223-.361.514.514,0,0,1,.235-.052h0a.53.53,0,0,1,.235.054.394.394,0,0,1,.219.365h0a.405.405,0,0,1-.059.216.4.4,0,0,1-.163.148.5.5,0,0,1-.235.052Zm0-.225a.156.156,0,0,0,.122-.051.2.2,0,0,0,.05-.142h0a.194.194,0,0,0-.047-.141.158.158,0,0,0-.121-.051h0a.161.161,0,0,0-.123.05.2.2,0,0,0-.049.142h0a.2.2,0,0,0,.047.142.16.16,0,0,0,.122.051Zm1.193-.6a.331.331,0,0,1,.242.091.359.359,0,0,1,.09.271h0v.461h-.282v-.416q0-.165-.132-.166h0a.154.154,0,0,0-.117.046.2.2,0,0,0-.044.142h0v.393h-.283v-.808h.269v.089a.321.321,0,0,1,.114-.075.39.39,0,0,1,.142-.026Zm1.326.829,0-.809h-.321v-.234l.935.007v.234h-.318l-.006.809Zm1.532-.393v.071h-.59a.166.166,0,0,0,.07.1.236.236,0,0,0,.13.035h0a.282.282,0,0,0,.1-.016.3.3,0,0,0,.085-.053h0l.148.157a.441.441,0,0,1-.345.127h0a.556.556,0,0,1-.248-.055.393.393,0,0,1-.222-.368h0a.393.393,0,0,1,.218-.358.474.474,0,0,1,.228-.051h0a.476.476,0,0,1,.219.051.384.384,0,0,1,.155.145.425.425,0,0,1,.056.225Zm-.429-.22a.16.16,0,0,0-.11.036.169.169,0,0,0-.056.1h.331a.169.169,0,0,0-.055-.1.164.164,0,0,0-.109-.038Zm.961-.2a.457.457,0,0,1,.307.1.351.351,0,0,1,.1.282h0v.448h-.265v-.1a.242.242,0,0,1-.239.116h0a.376.376,0,0,1-.162-.034.247.247,0,0,1-.1-.089.232.232,0,0,1-.034-.127h0a.208.208,0,0,1,.089-.178.477.477,0,0,1,.272-.062h.161c0-.085-.062-.128-.171-.128h0a.382.382,0,0,0-.118.018.311.311,0,0,0-.1.051h0l-.1-.2a.541.541,0,0,1,.164-.07.741.741,0,0,1,.2-.024Zm-.016.656a.16.16,0,0,0,.087-.023.134.134,0,0,0,.054-.072h0v-.07h-.122c-.083,0-.125.027-.125.081h0a.07.07,0,0,0,.029.061.124.124,0,0,0,.077.022Zm1.736-.642a.319.319,0,0,1,.237.092.371.371,0,0,1,.087.27h0v.462h-.282v-.416a.2.2,0,0,0-.031-.126.107.107,0,0,0-.089-.041h0a.127.127,0,0,0-.1.044.2.2,0,0,0-.041.136h0v.4h-.282v-.415c0-.111-.04-.165-.121-.167h0a.13.13,0,0,0-.1.043.2.2,0,0,0-.04.135h0v.4h-.283l.007-.807h.27v.084a.281.281,0,0,1,.107-.071.377.377,0,0,1,.135-.024h0a.35.35,0,0,1,.151.033.257.257,0,0,1,.108.1h0a.316.316,0,0,1,.122-.093.393.393,0,0,1,.16-.031Z" transform="translate(-1452.511 -1923.334)" fill="#e60019"/>
            </g>
          </g>
        </g>
      </g>
    </g>
  </g>
</svg>
