<svg id="Group_1600" data-name="Group 1600" xmlns="http://www.w3.org/2000/svg" xmlns:xlink="http://www.w3.org/1999/xlink" width="204.707" height="92.671" viewBox="0 0 204.707 92.671">
  <defs>
    <clipPath id="clip-path">
      <rect id="Rectangle_508" data-name="Rectangle 508" width="70.477" height="39.26" fill="none"/>
    </clipPath>
  </defs>
  <rect id="Rectangle_586" data-name="Rectangle 586" width="204.707" height="92.671" rx="1" fill="#fff"/>
  <g id="Group_946" data-name="Group 946" transform="translate(67.775 26.28)">
    <g id="Group_893" data-name="Group 893" transform="translate(0 0)" clip-path="url(#clip-path)">
      <path id="Path_14069" data-name="Path 14069" d="M86.8.092V7.477c1.614-1.185,1.86-3.457,3.56-3.852,1.658-.385,3.477-.084,5.522-.084-1.24,1.74-2.276,3.29-3.42,4.757a1.5,1.5,0,0,0,.021,2.194c1.6,2.019,3.083,4.128,4.836,6.5-2.3,0-4.23-.028-6.162.014-.73.016-1.014-.463-1.358-.929L87.146,12.5c-.173.254-.288.344-.293.44-.2,4.185-.2,4.119-4.4,4.093-1.329-.008-1.449-.532-1.448-1.621.007-5.107-.062-10.214-.1-15.321Z" transform="translate(-48.956 -0.056)" fill="#040504"/>
      <path id="Path_14070" data-name="Path 14070" d="M6.363.516c.019,5.059.016,10.118.075,15.177.011.969-.19,1.391-1.268,1.326-1.679-.1-3.368-.048-5.053-.061,0-5.3-.011-10.59.028-15.885C.147.779-.361.124.51.092c-.125.6.316.392.58.394C2.848.5,4.605.507,6.363.516" transform="translate(0 -0.056)" fill="#040504"/>
      <path id="Path_14071" data-name="Path 14071" d="M122.676,72.9c.009-5.228.087-10.458-.013-15.684-.03-1.558.622-1.763,1.839-1.556.359.061.719.31,1.058.276,3.542-.361,4.034.046,4.038,3.457,0,2.745,0,5.49,0,8.235,0,1.581-.8,2.72-2.347,2.4-1.668-.345-1.706.331-1.565,1.519.054.45.09.9.134,1.353Zm3.065-5.13.859-.008c0-3.141,0-6.282-.015-9.423a.566.566,0,0,0-.333-.393c-.317-.11-.5.14-.5.4-.015,3.142-.01,6.284-.01,9.426" transform="translate(-74.226 -33.641)" fill="#040504"/>
      <path id="Path_14072" data-name="Path 14072" d="M169.022,17.56c-1.884-.025-4.344.66-5.492-.27-1.21-.981-.334-3.538-.361-5.4-.051-3.583.01-7.168.024-10.752l5.828-.049Z" transform="translate(-98.568 -0.657)" fill="#040504"/>
      <path id="Path_14073" data-name="Path 14073" d="M.3,56.808A2.6,2.6,0,0,1,3.515,55.77a2.016,2.016,0,0,0,.719.2c2.859-.177,2.864-.183,2.862,2.611,0,3.771-.022,7.542-.021,11.313,0,1.318-.3,2.445-1.669,2.994H1.084c-.663-1.447-.31-2.15,1.391-2,.479.041,1.222.295,1.319-.924-1.324.489-2.336-.346-3.5-.6Zm3.954,6.06q0-2.154,0-4.308c0-.352-.092-.695-.47-.744a.55.55,0,0,0-.606.595q-.034,4.4-.018,8.808a.6.6,0,0,0,.594.647c.4-.006.5-.332.5-.691q0-2.154,0-4.308" transform="translate(-0.18 -33.63)" fill="#040504"/>
      <path id="Path_14074" data-name="Path 14074" d="M34.816.092c.222,1.583-.409,2.15-2.032,1.964a18.253,18.253,0,0,0-4.257,0c-1.621.2-2.355-.372-2.356-1.966Z" transform="translate(-15.837 -0.056)" fill="#040504"/>
      <path id="Path_14075" data-name="Path 14075" d="M169.39.428l-5.828.049L163.5.036c1.768,0,3.537-.008,5.3.009.239,0,.724-.243.59.383" transform="translate(-98.936 0)" fill="#040504"/>
      <path id="Path_14076" data-name="Path 14076" d="M33.016,15.505a29.535,29.535,0,0,0,.02,3.124c.2,1.879-.792,2.807-2.436,3.171a19.841,19.841,0,0,1-8.722-.012,2.989,2.989,0,0,1-2.628-3.478c.127-2.077.087-4.169.01-6.25a2.754,2.754,0,0,1,2.335-3.09,18,18,0,0,1,9.266.075,2.526,2.526,0,0,1,2.176,2.945c-.106,1.163-.021,2.343-.02,3.515m-7.875-.335c0,1.234.026,2.469-.009,3.7-.023.783.215,1.243,1.076,1.254.8.011.969-.439.965-1.118q-.021-3.7,0-7.4c0-.719-.256-1.086-1.022-1.054-.74.032-1.027.4-1.014,1.113.022,1.169.006,2.338,0,3.507" transform="translate(-11.642 -5.083)" fill="#040504"/>
      <path id="Path_14077" data-name="Path 14077" d="M129.569,13.813a7.315,7.315,0,0,1-1.948-.086c-.785-.248-2.144.892-2.329-.769-.173-1.554-.316-3.287,1.691-3.882a17.436,17.436,0,0,1,9.847-.09,2.42,2.42,0,0,1,1.916,2.6c-.036,3.067-.006,6.135-.012,9.2,0,.558.166,1.284-.792,1.183-3.426-.358-6.846.524-10.273.034-1.3-.185-2.551-.483-2.6-2.089-.057-1.706-.519-3.64,1.773-4.45.919-.325,1.826-.685,2.74-1.029.8-.231,1.608-.466,2.413-.694,1.376-.391.975-1.513.962-2.431-.009-.635-.478-.887-1.087-.816-1.217.142-1.2,1.084-1.1,1.917.12.994-.2,1.449-1.2,1.4m3.463,4.126c-.407-.526.678-1.85-.825-1.829-1.258.018-1.488,1.035-1.387,2.132.073.8-.255,1.854,1.1,1.827,1.543-.03.9-1.263,1.108-2.13" transform="translate(-75.634 -5.035)" fill="#040504"/>
      <path id="Path_14078" data-name="Path 14078" d="M167.208,51.7q.033,5.742.064,11.483a2.457,2.457,0,0,1-3.405,1.61c-.247-.077-.536-.287-.732-.221-2.757.937-2.686-.713-2.645-2.663.094-4.423.068-8.85.009-13.274-.015-1.1.291-1.459,1.412-1.45,1.1.009,1.806.176,1.57,1.474-.28,1.543.181,2.24,1.89,1.887a1.69,1.69,0,0,1,1.837,1.155m-3.687,10.981.9,0c0-3.125,0-6.25-.006-9.375a.433.433,0,0,0-.479-.477c-.351.012-.406.3-.408.541-.013,3.1-.008,6.205-.008,9.308" transform="translate(-97.11 -28.55)" fill="#040504"/>
      <path id="Path_14079" data-name="Path 14079" d="M145.045,67.945c.745-.679.477-1.367.483-1.972.03-3.063.068-6.128-.012-9.189-.034-1.272.7-1.125,1.5-1.121s1.546-.16,1.527,1.109c-.059,3.975-.019,7.951-.024,11.927,0,.374.1.787-.29,1.063a28.444,28.444,0,0,1-5.7-.041,2.22,2.22,0,0,1-.922-2.03c.019-3.585.063-7.171-.022-10.754-.03-1.286.61-1.265,1.548-1.3,1.047-.036,1.523.184,1.492,1.372-.078,3-.033,6-.02,8.994a2.4,2.4,0,0,0,.442,1.938" transform="translate(-85.675 -33.668)" fill="#040504"/>
      <path id="Path_14080" data-name="Path 14080" d="M98.859,62.981c0,1.366.058,2.735-.013,4.1-.107,2.063-1.137,2.972-3.287,3.03-2.229.06-3.538-.9-3.607-2.918-.1-2.924-.1-5.857.007-8.78.076-1.991,1.244-2.832,3.455-2.81,2.142.022,3.319.963,3.427,2.892.084,1.491.017,2.992.017,4.488m-3.672,4.833.621-.015c0-3.188,0-6.376-.018-9.563,0-.108-.263-.3-.4-.3-.474,0-.434.412-.437.7-.018,2.091-.044,4.183,0,6.273.021.966-.27,2,.237,2.9" transform="translate(-55.597 -33.646)" fill="#040504"/>
      <path id="Path_14081" data-name="Path 14081" d="M20.2,61.08c-1.823-.113-.977-1.509-1.055-2.358A2.776,2.776,0,0,1,21.077,55.5c2.883-.926,4.8.411,4.844,3.42.045,3.126-.026,6.254.027,9.38.017,1.019-.3,1.452-1.334,1.315a4.008,4.008,0,0,0-1.546-.069c-1.534.439-3.028.73-3.866-1.051-.759-1.613-.085-4.961,1.082-6,.339-.3.712-.567,1.069-.849,1.116-.428,1.875-1.1,1.63-2.43-.1-.525.321-1.427-.37-1.5-.87-.086-.826.923-.73,1.454.263,1.448-.3,1.995-1.686,1.911m2.757,2c-1.375,1.493-.848,2.812-.865,4.031,0,.264.226.525.508.388a.8.8,0,0,0,.341-.6c.034-1.1.016-2.193.016-3.818" transform="translate(-11.425 -33.408)" fill="#040504"/>
      <path id="Path_14082" data-name="Path 14082" d="M41.866,61.3c3.143,1.868,3.7,2.9,3.245,6.057-.274,1.908-1.465,2.81-3.625,2.744-2.08-.064-3.094-.949-3.269-2.875-.036-.389.034-.791-.023-1.175-.205-1.376.176-2.155,1.75-1.86a2.214,2.214,0,0,0,1.133-.169c-2.836-1.294-3.1-3.546-2.7-6.078.3-1.9,1.608-2.349,3.274-2.357s3.012.365,3.287,2.3c.037.258.083.516.1.776.182,2.475.18,2.471-2.242,2.527a9.321,9.321,0,0,0-.964.123,3.149,3.149,0,0,0-.285-3.39,3.261,3.261,0,0,0,.312,3.375m-.2,6.453a3.379,3.379,0,0,0-.508-3.891c.16,1.625-.173,2.777.508,3.891" transform="translate(-23.081 -33.638)" fill="#040504"/>
      <path id="Path_14083" data-name="Path 14083" d="M58.057,58.777c0-1.373.008-2.746-.006-4.118-.006-.558.123-1.081-.75-1.32-.919-.252-.549-1.669-.365-1.715,1.488-.369,1.034-1.48,1.137-2.421.129-1.182,1.093-.587,1.693-.671.631-.088,1.345-.161,1.3.9-.035.891-.373,1.884,1.234,2.063.559.062.785,1.6-.316,1.835-.978.208-.931.686-.931,1.345,0,1.961-.056,3.924.021,5.882.041,1.026-.62,2.426,1.351,2.674.573.072.275,1.171.248,1.792-.03.7-.665.458-1.07.487-2.939.206-3.478-.279-3.544-3.206-.026-1.176,0-2.353-.006-3.53" transform="translate(-34.314 -29.322)" fill="#040504"/>
      <path id="Path_14084" data-name="Path 14084" d="M76.447,63.944c0,1.433-.038,2.866.012,4.3.035,1.005.027,1.649-1.373,1.656-1.426.006-1.54-.575-1.524-1.717q.076-5.567-.016-11.135c-.019-1.095.284-1.556,1.407-1.4a6.854,6.854,0,0,0,1.674.2c1.189-.2,2.4-.617,3.246.49,1.04,1.358.408,3.026.465,4.55.04,1.094-.956.589-1.489.615-.472.024-1.269.411-1.328-.6a4.689,4.689,0,0,0-.017-.779c-.173-.743.522-2.07-.616-2.092-.833-.016-.37,1.3-.415,2-.082,1.3-.023,2.6-.024,3.906" transform="translate(-44.504 -33.647)" fill="#040504"/>
      <path id="Path_14085" data-name="Path 14085" d="M61.709,24.957c-1.042,0-2.085-.025-3.125.009-.741.024-1.26-.052-1.215-1.015.038-.82.453-.935,1.136-.927q3.124.039,6.25,0c.685-.007,1.07.124,1.1.944.042.993-.507,1.012-1.221.994-.976-.024-1.953-.006-2.93-.006" transform="translate(-34.714 -13.932)" fill="#040504"/>
      <path id="Path_14086" data-name="Path 14086" d="M97.727,48.613c-.619-.448-1.983.707-1.972-1.043.011-1.851,1.416-.9,2.144-.944.681-.043,2.017-.779,2.02.893,0,1.834-1.461.64-2.192,1.094" transform="translate(-57.944 -28.091)" fill="#040504"/>
      <path id="Path_14087" data-name="Path 14087" d="M113.333,72.827c-.681,0-1.132,0-1.584,0-.52,0-.868-.169-.814-.781.038-.432-.125-1.074.449-1.121a16.687,16.687,0,0,1,3.457.047c.515.066.379.776.312,1.182-.242,1.463-1.471.11-1.819.674" transform="translate(-67.126 -42.878)" fill="#040504"/>
    </g>
  </g>
</svg>
