<svg id="Group_1608" data-name="Group 1608" xmlns="http://www.w3.org/2000/svg" width="204.707" height="92.671" viewBox="0 0 204.707 92.671">
  <rect id="Rectangle_583" data-name="Rectangle 583" width="204.707" height="92.671" rx="1" fill="#fff"/>
  <g id="MetaDana_1_" data-name="MetaDana (1)" transform="translate(47.027 38.728)">
    <path id="Path_14164" data-name="Path 14164" d="M16.2,15.459a1.652,1.652,0,0,1-.126.642,1.517,1.517,0,0,1-.352.5,1.731,1.731,0,0,1-.529.34,1.561,1.561,0,0,1-.629.126,1.652,1.652,0,0,1-.642-.126,1.777,1.777,0,0,1-.516-.34,1.808,1.808,0,0,1-.352-.5,1.652,1.652,0,0,1-.126-.642v-8.6L9.543,10.8a1.918,1.918,0,0,1-.189.227l-.088.088a.337.337,0,0,1-.088.063l-.076.063-.176.113a1.335,1.335,0,0,1-.881.164,1.505,1.505,0,0,1-.805-.478,1.368,1.368,0,0,1-.113-.1,1.147,1.147,0,0,0-.088-.126L3.627,6.85v8.609A1.652,1.652,0,0,1,3.5,16.1a1.517,1.517,0,0,1-.352.5,1.731,1.731,0,0,1-.529.34,1.561,1.561,0,0,1-.629.126,1.652,1.652,0,0,1-.642-.126,1.777,1.777,0,0,1-.516-.34,1.517,1.517,0,0,1-.352-.5,1.652,1.652,0,0,1-.126-.642V2.571A1.577,1.577,0,0,1,.456,2a1.719,1.719,0,0,1,.3-.491A1.631,1.631,0,0,1,1.2,1.161,1.532,1.532,0,0,1,1.752.985a1.545,1.545,0,0,1,.73.05,1.733,1.733,0,0,1,.68.39L8.284,7.4l5.11-5.978a1.482,1.482,0,0,1,.491-.315,1.93,1.93,0,0,1,.566-.138h.013A.051.051,0,0,1,14.5.96h.063a1.561,1.561,0,0,1,.629.126,1.732,1.732,0,0,1,.529.34,1.486,1.486,0,0,1,.352.516,1.561,1.561,0,0,1,.126.629Zm5.544-2.781a2.591,2.591,0,0,0,1.007.969,3.052,3.052,0,0,0,1.384.315,4.153,4.153,0,0,0,.856-.076,1.932,1.932,0,0,0,.642-.277,2.1,2.1,0,0,1,.856-.378,1.522,1.522,0,0,1,.78.076,1.439,1.439,0,0,1,.453.289,1.522,1.522,0,0,1,.352.415,1.818,1.818,0,0,1,.2.529,1.553,1.553,0,0,1-.164,1.12,1.784,1.784,0,0,1-.428.491,5.949,5.949,0,0,1-.566.39,4.091,4.091,0,0,1-.743.34,5.277,5.277,0,0,1-.969.239,7.163,7.163,0,0,1-1.271.1,5.919,5.919,0,0,1-2.341-.466,6.327,6.327,0,0,1-1.926-1.3,6.212,6.212,0,0,1-1.3-1.9,5.968,5.968,0,0,1,0-4.682,6.016,6.016,0,0,1,1.3-1.9,6.143,6.143,0,0,1,1.926-1.284,5.784,5.784,0,0,1,2.341-.478,5.856,5.856,0,0,1,2.316.466,5.927,5.927,0,0,1,1.913,1.259,6.056,6.056,0,0,1,1.3,1.888,5.743,5.743,0,0,1,.516,2.3,1.47,1.47,0,0,1-.453,1.12,1.591,1.591,0,0,1-1.158.428Zm5.072-2.719a2.218,2.218,0,0,0-1.032-1.108A3.3,3.3,0,0,0,24.2,8.486a3.061,3.061,0,0,0-1.573.39,2.367,2.367,0,0,0-.982,1.082Zm8.208-4.594h3.851a1.522,1.522,0,0,1,.642.138,1.486,1.486,0,0,1,.516.352,1.622,1.622,0,0,1,.352.529,1.44,1.44,0,0,1,.138.629,1.494,1.494,0,0,1-.138.629,1.661,1.661,0,0,1-.352.516,1.756,1.756,0,0,1-.516.352,1.652,1.652,0,0,1-.642.126H35.024v2.605a2.616,2.616,0,0,0,.214,1.057,2.752,2.752,0,0,0,.579.856,2.913,2.913,0,0,0,.868.579,2.616,2.616,0,0,0,1.057.214,3.01,3.01,0,0,0,.931-.138,2.132,2.132,0,0,0,.768-.441,3.009,3.009,0,0,1,.327-.264,1.664,1.664,0,0,1,.365-.189,1.54,1.54,0,0,1,.78-.076,1.411,1.411,0,0,1,.768.378,1.445,1.445,0,0,1,.378.579,1.567,1.567,0,0,1,.1.68,2.058,2.058,0,0,1-.176.692,1.884,1.884,0,0,1-.416.579,5.116,5.116,0,0,1-1.737,1.108,6.138,6.138,0,0,1-4.43-.1,6.327,6.327,0,0,1-1.9-1.284,6.281,6.281,0,0,1-1.284-1.913,5.918,5.918,0,0,1-.466-2.341V3.641A1.652,1.652,0,0,1,31.878,3a1.8,1.8,0,0,1,.365-.529,1.66,1.66,0,0,1,.516-.352,1.522,1.522,0,0,1,.642-.138,1.561,1.561,0,0,1,.629.126,1.486,1.486,0,0,1,.516.352,1.622,1.622,0,0,1,.352.529,1.685,1.685,0,0,1,.126.654Zm7.9,5.852A5.694,5.694,0,0,1,43.4,8.889a6.169,6.169,0,0,1,1.3-1.913,6.033,6.033,0,0,1,1.9-1.284,5.918,5.918,0,0,1,4.632-.013,5.993,5.993,0,0,1,1.888,1.271,5.989,5.989,0,0,1,1.8,4.178V15.4a1.727,1.727,0,0,1-.491,1.183,1.8,1.8,0,0,1-.529.365,1.685,1.685,0,0,1-.654.126,1.511,1.511,0,0,1-1.372-.793,5.863,5.863,0,0,1-1.4.692,4.789,4.789,0,0,1-1.548.252,5.887,5.887,0,0,1-2.328-.466,6.156,6.156,0,0,1-3.2-3.209A5.751,5.751,0,0,1,42.922,11.217Zm3.272,0a2.711,2.711,0,0,0,.214,1.07,3.118,3.118,0,0,0,.592.868,2.912,2.912,0,0,0,.868.579,2.677,2.677,0,0,0,1.057.214,2.616,2.616,0,0,0,1.057-.214,2.714,2.714,0,0,0,.869-.579,2.921,2.921,0,0,0,.579-.868,2.711,2.711,0,0,0,.214-1.07,2.621,2.621,0,0,0-.214-1.057,2.722,2.722,0,0,0-.579-.868,2.692,2.692,0,0,0-1.926-.805,2.677,2.677,0,0,0-1.057.214A2.8,2.8,0,0,0,47,9.292a2.891,2.891,0,0,0-.592.868A2.621,2.621,0,0,0,46.194,11.217Z" transform="translate(-0.355 -0.96)" fill="#ff00a1"/>
    <path id="Path_14165" data-name="Path 14165" d="M138.677,2.571a1.563,1.563,0,0,1,.126-.629,1.49,1.49,0,0,1,.352-.516,1.776,1.776,0,0,1,.516-.34,1.651,1.651,0,0,1,.642-.126h4.317a7.887,7.887,0,0,1,2.14.289,8.379,8.379,0,0,1,3.625,2.089,8.359,8.359,0,0,1,1.3,1.636,8.068,8.068,0,0,1,.843,1.926,7.576,7.576,0,0,1,.3,2.14,7.42,7.42,0,0,1-.667,3.121,8.238,8.238,0,0,1-4.392,4.279,7.982,7.982,0,0,1-3.146.629h-4.317a1.651,1.651,0,0,1-.642-.126,1.776,1.776,0,0,1-.516-.34,1.521,1.521,0,0,1-.352-.5,1.654,1.654,0,0,1-.126-.642Zm3.272,1.661V13.8h2.769a4.65,4.65,0,0,0,1.85-.378,5.115,5.115,0,0,0,1.548-1.019,5,5,0,0,0,1.057-1.51,4.491,4.491,0,0,0,0-3.662,5.063,5.063,0,0,0-2.605-2.605,4.521,4.521,0,0,0-1.85-.39Zm11.862,6.985a5.693,5.693,0,0,1,.478-2.328,6.161,6.161,0,0,1,1.3-1.913,6.033,6.033,0,0,1,1.9-1.284,5.918,5.918,0,0,1,4.632-.013,5.994,5.994,0,0,1,1.888,1.271,5.989,5.989,0,0,1,1.8,4.178V15.4a1.727,1.727,0,0,1-.491,1.183,1.8,1.8,0,0,1-.529.365,1.685,1.685,0,0,1-.654.126,1.511,1.511,0,0,1-1.372-.793,5.862,5.862,0,0,1-1.4.692,4.791,4.791,0,0,1-1.548.252,5.886,5.886,0,0,1-2.328-.466,6.156,6.156,0,0,1-3.2-3.209A5.75,5.75,0,0,1,153.811,11.217Zm3.272,0a2.7,2.7,0,0,0,.214,1.07,3.117,3.117,0,0,0,.592.868,2.912,2.912,0,0,0,.868.579,2.674,2.674,0,0,0,1.057.214,2.617,2.617,0,0,0,1.057-.214,2.719,2.719,0,0,0,.869-.579,2.921,2.921,0,0,0,.579-.868,2.711,2.711,0,0,0,.214-1.07,2.621,2.621,0,0,0-.214-1.057,2.722,2.722,0,0,0-.579-.868,2.692,2.692,0,0,0-1.926-.805,2.674,2.674,0,0,0-1.057.214,2.8,2.8,0,0,0-.868.592,2.891,2.891,0,0,0-.592.868A2.613,2.613,0,0,0,157.083,11.217Zm22.29,4.279a1.564,1.564,0,0,1-.126.629,1.781,1.781,0,0,1-.34.516,1.618,1.618,0,0,1-.5.34,1.712,1.712,0,0,1-.629.113,1.814,1.814,0,0,1-.642-.113,1.9,1.9,0,0,1-.541-.34,1.862,1.862,0,0,1-.365-.516,1.563,1.563,0,0,1-.126-.629V11.016a.271.271,0,0,1,.013-.088,2.562,2.562,0,0,0-.227-.944,2.388,2.388,0,0,0-.516-.78,2.33,2.33,0,0,0-.768-.529,2.537,2.537,0,0,0-1.951.013,2.322,2.322,0,0,0-.768.529,2.443,2.443,0,0,0-.491.805,2.717,2.717,0,0,0-.176.994V15.5a1.564,1.564,0,0,1-.126.629,1.781,1.781,0,0,1-.34.516,1.619,1.619,0,0,1-.5.34,1.713,1.713,0,0,1-.629.113,1.814,1.814,0,0,1-.642-.113,1.732,1.732,0,0,1-.529-.34,1.852,1.852,0,0,1-.365-.516,1.437,1.437,0,0,1-.139-.629V11.016a5.828,5.828,0,0,1,.441-2.265,5.725,5.725,0,0,1,1.208-1.838,5.714,5.714,0,0,1,9.339,1.838,5.836,5.836,0,0,1,.44,2.265V15.5Zm1.5-4.279a5.693,5.693,0,0,1,.478-2.328,6.162,6.162,0,0,1,1.3-1.913,6.033,6.033,0,0,1,1.9-1.284,5.918,5.918,0,0,1,4.632-.013,5.994,5.994,0,0,1,1.888,1.271,5.99,5.99,0,0,1,1.8,4.178V15.4a1.727,1.727,0,0,1-.491,1.183,1.8,1.8,0,0,1-.529.365,1.686,1.686,0,0,1-.655.126,1.511,1.511,0,0,1-1.372-.793,5.863,5.863,0,0,1-1.4.692,4.791,4.791,0,0,1-1.548.252,5.886,5.886,0,0,1-2.328-.466,6.156,6.156,0,0,1-3.2-3.209A5.75,5.75,0,0,1,180.875,11.217Zm3.272,0a2.7,2.7,0,0,0,.214,1.07,3.116,3.116,0,0,0,.592.868,2.912,2.912,0,0,0,.868.579,2.674,2.674,0,0,0,1.057.214,2.616,2.616,0,0,0,1.057-.214,2.719,2.719,0,0,0,.869-.579,2.923,2.923,0,0,0,.579-.868,2.711,2.711,0,0,0,.214-1.07,2.621,2.621,0,0,0-.214-1.057,2.723,2.723,0,0,0-.579-.868,2.692,2.692,0,0,0-1.926-.805,2.674,2.674,0,0,0-1.057.214,2.8,2.8,0,0,0-.868.592,2.89,2.89,0,0,0-.592.868A2.613,2.613,0,0,0,184.148,11.217Z" transform="translate(-81.599 -0.96)"/>
  </g>
</svg>
