<svg id="Group_55227" data-name="Group 55227" xmlns="http://www.w3.org/2000/svg" xmlns:xlink="http://www.w3.org/1999/xlink" width="204.707" height="92.671" viewBox="0 0 204.707 92.671">
  <defs>
    <clipPath id="clip-path">
      <path id="Path_14063" data-name="Path 14063" d="M104.72,35.166a8.618,8.618,0,0,1-2.153-2.667,20.09,20.09,0,0,1-2.135-9.464v-.195h13.123v.195a19.984,19.984,0,0,1-2.136,9.464,8.494,8.494,0,0,1-2.153,2.667,3.435,3.435,0,0,1-4.546,0M99.235,21.6c-.027.47-.035.948-.035,1.435,0,7.86,3.491,14.231,7.807,14.231s7.807-6.371,7.807-14.231c0-.487-.009-.966-.035-1.435Z" transform="translate(-99.2 -21.6)"/>
    </clipPath>
    <clipPath id="clip-path-2">
      <path id="Path_14064" data-name="Path 14064" d="M124.328,51.61a17.331,17.331,0,0,1-1.825-6.77h9.091a17.287,17.287,0,0,1-1.825,6.77c-1.019,1.852-2.074,2.508-2.72,2.508s-1.71-.656-2.72-2.508M121.2,43.6a19.445,19.445,0,0,0,2.038,8.613c1.1,2,2.49,3.155,3.81,3.155s2.712-1.152,3.81-3.155A19.385,19.385,0,0,0,132.9,43.6Z" transform="translate(-121.2 -43.6)"/>
    </clipPath>
  </defs>
  <rect id="Rectangle_581" data-name="Rectangle 581" width="204.707" height="92.671" rx="1" fill="#fff"/>
  <g id="Group_891" data-name="Group 891" transform="translate(53.051 36.493)">
    <path id="Path_14059" data-name="Path 14059" d="M751.586,60.485h-5.219a3.981,3.981,0,0,1-4.032-3.411,3.561,3.561,0,0,1-.035-.532v-7.9a3.852,3.852,0,0,1,3.89-3.943c3.589-.018,7.178-.009,10.766,0a3.9,3.9,0,0,1,3.9,3.952v7.842a3.92,3.92,0,0,1-3.987,4.005h-5.281Zm-.036-11.776c-1.2,0-2.392-.009-3.589,0a1.649,1.649,0,0,0-1.746,1.754v4.156A1.774,1.774,0,0,0,748.1,56.48h6.912a1.772,1.772,0,0,0,1.914-1.923V50.57a1.71,1.71,0,0,0-1.861-1.861c-1.17-.009-2.348,0-3.518,0" transform="translate(-685.315 -42.639)" fill="#1b2129"/>
    <path id="Path_14060" data-name="Path 14060" d="M542.76,54.412c1.187.257,1.488,1.2,1.586,2.215.115,1.232.151,2.472.213,3.7a.486.486,0,0,1-.027.142h-3.881a11.144,11.144,0,0,0-.071-1.214,13.059,13.059,0,0,0-.355-1.949c-.186-.638-.47-.78-1.143-.78h-7.275v3.943H527.9V44.7h12.609a3.93,3.93,0,0,1,4.041,4.058v2.623a2.56,2.56,0,0,1-.665,1.825c-.354.408-.735.789-1.125,1.205m-10.935-1.9c.053.009.089.027.115.027,2.339,0,4.67.009,7.009-.009a1.52,1.52,0,0,0,.691-.2,2.118,2.118,0,0,0,.93-2.33,1.8,1.8,0,0,0-1.843-1.276H532.18c-.115,0-.23.009-.354.018Z" transform="translate(-489.913 -42.653)" fill="#1b2129"/>
    <path id="Path_14061" data-name="Path 14061" d="M981.016,60.755H977.1V45h14.842v3.651H981.026v2.561H991.3v3.172H981.016Z" transform="translate(-899.309 -42.927)" fill="#1b2129"/>
    <path id="Path_14062" data-name="Path 14062" d="M315.6,45h16.517v4.244h-6v11.51H321.67V49.271H315.6Z" transform="translate(-296.425 -42.927)" fill="#1b2129"/>
    <rect id="Rectangle_483" data-name="Rectangle 483" width="3.881" height="15.755" transform="translate(95.017 2.082)" fill="#1b2129"/>
    <g id="Group_890" data-name="Group 890">
      <g id="Group_887" data-name="Group 887">
        <g id="Group_886" data-name="Group 886" clip-path="url(#clip-path)">
          <rect id="Rectangle_484" data-name="Rectangle 484" width="15.613" height="15.666" transform="translate(-0.009)" fill="#0a339d"/>
        </g>
      </g>
      <g id="Group_889" data-name="Group 889" transform="translate(1.949 1.949)">
        <g id="Group_888" data-name="Group 888" clip-path="url(#clip-path-2)">
          <rect id="Rectangle_485" data-name="Rectangle 485" width="11.697" height="11.767" transform="translate(0 0)" fill="#0a339d"/>
        </g>
      </g>
      <path id="Path_14065" data-name="Path 14065" d="M147.456,70.73a13.387,13.387,0,0,1-1.311-3.881h4.643a13.387,13.387,0,0,1-1.311,3.881,6.259,6.259,0,0,1-.753,1.108.345.345,0,0,1-.523,0,6.68,6.68,0,0,1-.744-1.108M144.7,65.6a15.94,15.94,0,0,0,1.666,5.724c.86,1.568,1.568,2.1,2.1,2.082.558-.018,1.241-.505,2.1-2.082a16.064,16.064,0,0,0,1.666-5.724Z" transform="translate(-140.668 -61.701)" fill="#0a339d"/>
      <path id="Path_14066" data-name="Path 14066" d="M140.11,215.318a.9.9,0,0,1,.842.567h-6.663a.9.9,0,0,1,.842-.567h4.98m0-1.418h-4.98a2.333,2.333,0,0,0-2.33,2.33V217.3h9.632V216.23a2.32,2.32,0,0,0-2.322-2.33" transform="translate(-129.823 -196.86)" fill="#0a339d"/>
      <line id="Line_38" data-name="Line 38" x2="0.044" y2="0.009" transform="translate(2.091 4.271)" fill="#fff"/>
    </g>
  </g>
</svg>
