<svg xmlns="http://www.w3.org/2000/svg" width="27.293" height="28.821" viewBox="0 0 27.293 28.821">
  <path id="connection" d="M41.614,17.736A3.046,3.046,0,0,0,40,16.873a3.063,3.063,0,0,0-5.212-.8,3.063,3.063,0,0,0-5.212.8,3.065,3.065,0,0,0-2.337,3.962,3.064,3.064,0,0,0,0,5.076,3.064,3.064,0,0,0,2.337,3.961,3.064,3.064,0,0,0,5.212.8,3.064,3.064,0,0,0,5.212-.8,3.064,3.064,0,0,0,2.337-3.961,3.064,3.064,0,0,0,0-5.076,3.064,3.064,0,0,0-.727-3.1ZM32.424,30.4a1.679,1.679,0,0,1-1.634-1.318.7.7,0,0,0-.668-.551,1.67,1.67,0,0,1-.418-3.277.7.7,0,0,0-.373-1.344,3.045,3.045,0,0,0-1.362.805,1.669,1.669,0,0,1,.422-2.914.7.7,0,0,0,.353-1.028,1.67,1.67,0,0,1,1.379-2.561.7.7,0,0,0,.668-.551,1.67,1.67,0,0,1,3.3.351v.043a2.038,2.038,0,0,0-1.759.222.7.7,0,0,0,.759,1.17.642.642,0,0,1,.35-.1.651.651,0,0,1,.65.65v6.753a.651.651,0,0,1-1,.546.7.7,0,1,0-.752,1.174,2.043,2.043,0,0,0,1.756.218v.045a1.672,1.672,0,0,1-1.67,1.67Zm8.768-5.458a.7.7,0,0,0-.353,1.028,1.67,1.67,0,0,1-1.379,2.561.7.7,0,0,0-.668.551,1.671,1.671,0,0,1-3.3-.351v-.045a2.044,2.044,0,0,0,1.756-.218.7.7,0,1,0-.752-1.174.651.651,0,0,1-1-.546V20a.651.651,0,0,1,.65-.65.642.642,0,0,1,.35.1.7.7,0,1,0,.759-1.17,2.038,2.038,0,0,0-1.759-.222v-.043a1.67,1.67,0,0,1,3.3-.351.7.7,0,0,0,.668.551,1.67,1.67,0,0,1,.417,3.278.7.7,0,1,0,.376,1.343,3.062,3.062,0,0,0,1.36-.805,1.669,1.669,0,0,1-.422,2.914Zm-2.553.017a.7.7,0,0,1-.938.3,2.146,2.146,0,0,1-.093-3.768.7.7,0,0,1,.7,1.208.753.753,0,0,0-.275,1.027.743.743,0,0,0,.3.291.7.7,0,0,1,.3.938Zm8.879,2.8a13.481,13.481,0,0,0-8.337-17.133.7.7,0,1,0-.455,1.318,12.087,12.087,0,0,1,7.516,15.234,2.593,2.593,0,1,0,1.276.581Zm-.634,2.58h0a1.2,1.2,0,0,1-1.636.438,1.2,1.2,0,1,1,1.636-.438ZM22.256,26.486a.7.7,0,0,0,.685-.829,12.086,12.086,0,0,1,9.434-14.124,2.593,2.593,0,1,0-.137-1.395A13.481,13.481,0,0,0,21.572,25.92a.7.7,0,0,0,.684.566ZM34.791,9.394a1.2,1.2,0,1,1-1.2,1.2A1.2,1.2,0,0,1,34.791,9.394ZM42.7,32.47a12.07,12.07,0,0,1-16.945-1.109,2.592,2.592,0,1,0-4.268-.324,2.573,2.573,0,0,0,1.574,1.208,2.606,2.606,0,0,0,.675.09,2.565,2.565,0,0,0,.881-.157,13.464,13.464,0,0,0,19,1.345A.7.7,0,1,0,42.7,32.47ZM23.426,30.9a1.188,1.188,0,0,1-.726-.558h0a1.2,1.2,0,1,1,.727.558Zm8.456-5.633a.7.7,0,1,1-.634-1.242.743.743,0,0,0,.3-.292.753.753,0,0,0-.275-1.027.7.7,0,1,1,.7-1.208,2.146,2.146,0,0,1-.093,3.768Z" transform="translate(-21.145 -7.999)" fill="#fff"/>
</svg>
