<svg xmlns="http://www.w3.org/2000/svg" xmlns:xlink="http://www.w3.org/1999/xlink" width="30.985" height="30.989" viewBox="0 0 30.985 30.989">
  <defs>
    <clipPath id="clip-path">
      <rect id="Rectangle_44177" data-name="Rectangle 44177" width="30.985" height="30.989" fill="#fff"/>
    </clipPath>
  </defs>
  <g id="Group_104217" data-name="Group 104217" clip-path="url(#clip-path)">
    <path id="Path_74483" data-name="Path 74483" d="M30.985,21.184c-.056.264-.106.53-.169.792a6.038,6.038,0,0,1-5.829,4.652c-1.533.012-3.065.006-4.6,0a1.21,1.21,0,1,1,0-2.418h4.447a3.632,3.632,0,0,0,3.73-3.725V6.143A3.628,3.628,0,0,0,24.86,2.425H6.134a3.629,3.629,0,0,0-3.7,3.72q0,7.171,0,14.341a3.632,3.632,0,0,0,3.732,3.723h9.166a1.232,1.232,0,0,1,1.38,1.378v2.979h3.476a1.216,1.216,0,0,1,.444,2.386.245.245,0,0,0-.049.035H10.414a.243.243,0,0,0-.049-.034,1.216,1.216,0,0,1,.443-2.386h3.463V26.631H13.9c-2.641,0-5.283.014-7.924,0A6.026,6.026,0,0,1,.016,20.661q-.027-7.336,0-14.673A6.019,6.019,0,0,1,5.992.01q9.5-.024,18.995,0a6.012,6.012,0,0,1,5.767,4.415c.094.337.155.683.231,1.025V21.184" transform="translate(0 0.001)" fill="#fff"/>
    <path id="Path_74484" data-name="Path 74484" d="M101.463,99.574h1.145a1.211,1.211,0,1,1,0,2.419H88.214a1.211,1.211,0,1,1,.011-2.419h1.139V96.015A1.211,1.211,0,1,1,91.783,96q0,1.6,0,3.206v.347H94.2V93.537a1.2,1.2,0,0,1,.958-1.2,1.176,1.176,0,0,1,1.315.629,1.668,1.668,0,0,1,.139.67c.01,1.855.006,3.71.006,5.565v.35h2.421v-8.4a1.211,1.211,0,1,1,2.417.028v8.393" transform="translate(-79.917 -82.622)" fill="#fff"/>
  </g>
</svg>
