<svg xmlns="http://www.w3.org/2000/svg" width="37" height="37" viewBox="0 0 37 37">
  <g id="Group_59555" data-name="Group 59555" transform="translate(-1567 -1723)">
    <path id="Rectangle_13532" data-name="Rectangle 13532" d="M18.5,1A17.5,17.5,0,0,0,6.126,30.874,17.5,17.5,0,0,0,30.874,6.126,17.385,17.385,0,0,0,18.5,1m0-1A18.5,18.5,0,1,1,0,18.5,18.5,18.5,0,0,1,18.5,0Z" transform="translate(1567 1723)"/>
    <g id="_8666713_arrow_up_right_icon" data-name="8666713_arrow_up_right_icon" transform="translate(1574.402 1729.402)">
      <path id="Line_1" data-name="Line 1" d="M-.067,10.2a.93.93,0,0,1-.66-.273.933.933,0,0,1,0-1.319L8.6-.727a.933.933,0,0,1,1.319,0,.933.933,0,0,1,0,1.319L.593,9.923A.93.93,0,0,1-.067,10.2Z" transform="translate(7 7)"/>
      <path id="Path_11301" data-name="Path 11301" d="M16.263,17.2a.933.933,0,0,1-.933-.933v-8.4h-8.4A.933.933,0,0,1,6.933,6h9.33a.933.933,0,0,1,.933.933v9.33A.933.933,0,0,1,16.263,17.2Z"/>
    </g>
  </g>
</svg>
