<svg xmlns="http://www.w3.org/2000/svg" width="29.193" height="24.642" viewBox="0 0 29.193 24.642">
  <g id="Group_59183" data-name="Group 59183" transform="translate(0.1 0.092)">
    <path id="Path_11688" data-name="Path 11688" d="M686.122,412.088c0,.864-.023,1.729.008,2.592a1.123,1.123,0,0,1-.675,1.155c-1.919,1.022-3.815,2.089-5.734,3.112a.806.806,0,0,0-.485.844c.024,1.52,0,3.041.015,4.562a1.09,1.09,0,0,1-.642,1.075q-3.191,1.719-6.361,3.476a1.227,1.227,0,0,1-1.312-.007q-3.148-1.744-6.316-3.449a1.122,1.122,0,0,1-.666-1.114c.018-1.555,0-3.11.014-4.665a.706.706,0,0,0-.427-.726c-1.916-1.028-3.816-2.088-5.733-3.112a1.108,1.108,0,0,1-.668-1.106c.022-1.8.019-3.594,0-5.391a1.045,1.045,0,0,1,.614-1.034q3.19-1.721,6.36-3.477a1.27,1.27,0,0,1,1.36.019c1.915,1.065,3.846,2.1,5.761,3.171a.722.722,0,0,0,.8,0c1.9-1.057,3.818-2.084,5.715-3.146a1.344,1.344,0,0,1,1.453-.014q3.1,1.728,6.224,3.4a1.159,1.159,0,0,1,.7,1.2C686.1,410.324,686.122,411.207,686.122,412.088Zm-26.563-2.977c1.385.758,2.734,1.425,4,2.218a1.748,1.748,0,0,0,2.349.021.354.354,0,0,1,.09-.051.8.8,0,0,1,1.084.285.788.788,0,0,1-.331,1.069c-.292.183-.614.319-.9.508-.125.082-.278.243-.28.371-.021,1.255-.013,2.51-.013,3.789a.9.9,0,0,0,.192-.043q2.433-1.324,4.86-2.658a.453.453,0,0,0,.229-.3c.016-1.27.01-2.541.01-3.891l-.975.52c-.619.33-1.061.267-1.3-.186s-.054-.832.574-1.186c.26-.146.518-.3.844-.485-1.726-.943-3.37-1.851-5.029-2.731a.724.724,0,0,0-.554.09c-1.46.783-2.911,1.582-4.364,2.378C659.9,408.912,659.757,409,659.559,409.111Zm13.742.014c1.692.927,3.336,1.832,4.987,2.725a.461.461,0,0,0,.376.014c1.664-.9,3.321-1.808,4.995-2.724-.058-.065-.085-.116-.126-.138-1.6-.878-3.2-1.76-4.813-2.616a.694.694,0,0,0-.554.048c-1.5.8-3,1.627-4.494,2.447C673.556,408.943,673.451,409.025,673.3,409.125Zm-6.9,9.621c1.718.938,3.333,1.832,4.965,2.694a.767.767,0,0,0,.6-.065c1.492-.8,2.972-1.615,4.454-2.43.11-.061.21-.141.361-.244-1.375-.751-2.73-1.408-3.993-2.21a1.883,1.883,0,0,0-2.32,0C669.2,417.3,667.828,417.966,666.4,418.746Zm11.309-1.322c0-1.3-.011-2.491.008-3.68a.619.619,0,0,0-.38-.641c-1.5-.8-3-1.631-4.492-2.447-.124-.068-.258-.115-.431-.192,0,1.316-.011,2.557.015,3.8a.661.661,0,0,0,.32.44c.82.474,1.657.918,2.489,1.373Zm-12.186,2.623c0,1.305.01,2.494-.007,3.681a.623.623,0,0,0,.384.642c1.459.779,2.907,1.58,4.359,2.372.16.088.326.165.567.287a17.852,17.852,0,0,1,.02-2.434,2.061,2.061,0,0,0-1.45-2.469C668.092,421.564,666.88,420.788,665.523,420.047ZM664,417.431c0-1.3-.011-2.493.008-3.684a.622.622,0,0,0-.385-.641c-1.5-.806-3-1.634-4.5-2.451-.116-.063-.242-.107-.421-.185,0,1.33-.008,2.6.014,3.877,0,.121.173.277.3.352.688.395,1.388.768,2.084,1.149Zm20.559-7.006c-1.767.968-3.43,1.875-5.087,2.792a.4.4,0,0,0-.2.265c-.013,1.285-.009,2.57-.009,3.946,1.761-.962,3.438-1.874,5.107-2.8a.441.441,0,0,0,.177-.327C684.567,413.045,684.562,411.787,684.562,410.426Zm-12.175,16.619c1.759-.961,3.423-1.867,5.08-2.785a.445.445,0,0,0,.209-.312c.014-1.271.009-2.542.009-3.838a.927.927,0,0,0-.2.044c-1.622.882-3.245,1.763-4.86,2.658a.5.5,0,0,0-.231.347C672.381,424.418,672.387,425.678,672.387,427.045Z" transform="translate(-657.14 -404.633)" fill="#fff" stroke="#08243e" stroke-width="0.2"/>
  </g>
</svg>
