<svg xmlns="http://www.w3.org/2000/svg" width="15.781" height="15.781" viewBox="0 0 15.781 15.781">
  <g id="Layer_93" data-name="Layer 93" transform="translate(-2 -2)">
    <path id="Path_11976" data-name="Path 11976" d="M15.414,4.367h-.789V2.789a.789.789,0,1,0-1.578,0V4.367H6.734V2.789a.789.789,0,0,0-1.578,0V4.367H4.367A2.367,2.367,0,0,0,2,6.734v.789H17.781V6.734A2.367,2.367,0,0,0,15.414,4.367Z" transform="translate(0)" fill="#08243e"/>
    <path id="Path_11977" data-name="Path 11977" d="M2,17.312A2.367,2.367,0,0,0,4.367,19.68H15.414a2.367,2.367,0,0,0,2.367-2.367V11H2Z" transform="translate(0 -1.898)" fill="#08243e"/>
  </g>
</svg>
