<svg xmlns="http://www.w3.org/2000/svg" xmlns:xlink="http://www.w3.org/1999/xlink" width="1918.465" height="1080.241" viewBox="0 0 1918.465 1080.241">
  <defs>
    <clipPath id="clip-path">
      <rect x="628" width="1918.465" height="1080.241" fill="none"/>
    </clipPath>
    <clipPath id="clip-path-2">
      <rect id="Rectangle_1908" data-name="Rectangle 1908" width="613.779" height="76.152" fill="#192336"/>
    </clipPath>
    <clipPath id="clip-path-3">
      <rect id="Rectangle_1907" data-name="Rectangle 1907" width="613.779" height="76.153" fill="#192336"/>
    </clipPath>
    <clipPath id="clip-path-4">
      <rect id="Rectangle_1904" data-name="Rectangle 1904" width="91.67" height="50.456" fill="#192336"/>
    </clipPath>
    <clipPath id="clip-path-5">
      <rect id="Rectangle_1905" data-name="Rectangle 1905" width="47.715" height="26.263" fill="#192336"/>
    </clipPath>
    <clipPath id="clip-path-6">
      <rect id="Rectangle_1906" data-name="Rectangle 1906" width="165.456" height="76.153" fill="#192336"/>
    </clipPath>
    <clipPath id="clip-path-7">
      <rect id="Rectangle_1908-2" data-name="Rectangle 1908" width="1145.425" height="142.114" fill="#192336"/>
    </clipPath>
    <clipPath id="clip-path-8">
      <rect id="Rectangle_1905-2" data-name="Rectangle 1905" width="89.044" height="49.011" fill="#192336"/>
    </clipPath>
    <clipPath id="clip-path-9">
      <rect id="Rectangle_1906-2" data-name="Rectangle 1906" width="308.772" height="142.115" fill="#192336"/>
    </clipPath>
    <clipPath id="clip-path-14">
      <rect id="Rectangle_13526" data-name="Rectangle 13526" width="524.128" height="172.406" transform="translate(-36)" fill="#182234"/>
    </clipPath>
    <clipPath id="clip-path-15">
      <rect id="Rectangle_13504" data-name="Rectangle 13504" width="841.638" height="222.827" fill="none"/>
    </clipPath>
    <clipPath id="clip-path-16">
      <rect id="Rectangle_13501" data-name="Rectangle 13501" width="16.538" height="9.76" fill="none"/>
    </clipPath>
    <clipPath id="clip-path-17">
      <rect id="Rectangle_13502" data-name="Rectangle 13502" width="14.109" height="8.326" fill="#243757"/>
    </clipPath>
    <clipPath id="clip-path-18">
      <rect id="Rectangle_13503" data-name="Rectangle 13503" width="14.109" height="8.326" fill="#2e405d"/>
    </clipPath>
  </defs>
  <g id="ind" transform="translate(-628)" clip-path="url(#clip-path)" style="isolation: isolate">
    <g id="Group_59332" data-name="Group 59332" transform="translate(-14960.768 -4831)">
      <g id="Group_59304" data-name="Group 59304" transform="translate(15586.581 893)">
        <rect id="Rectangle_95" data-name="Rectangle 95" width="1920" height="1080" transform="translate(0 3938)" fill="#111827"/>
        <g id="Contact" transform="translate(-5 -1435)">
          <g id="Group_20314" data-name="Group 20314" transform="translate(36.187 6011.586)">
            <g id="Group_20313" data-name="Group 20313" clip-path="url(#clip-path-2)">
              <g id="Group_20312" data-name="Group 20312" transform="translate(0 0)">
                <g id="Group_20311" data-name="Group 20311" clip-path="url(#clip-path-3)">
                  <g id="Group_20304" data-name="Group 20304" transform="translate(0 4.758)" opacity="0.53">
                    <g id="Group_20303" data-name="Group 20303">
                      <g id="Group_20302" data-name="Group 20302" clip-path="url(#clip-path-4)">
                        <path id="Path_27642" data-name="Path 27642" d="M85.651,26.26c0-.621-.016-1.244-.071-1.874A22.092,22.092,0,0,0,47.8,10.858,19.352,19.352,0,0,0,14.322,21.494c-.152.009-.3,0-.454.017a15.213,15.213,0,1,0,9.776,27.817,15.2,15.2,0,0,0,19.642,2.454A15.165,15.165,0,0,0,64.507,48.4c.3-.012.6-.012.907-.034a9.6,9.6,0,0,0,17.67-4.342c.072,0,.141,0,.212,0A9.179,9.179,0,0,0,85.651,26.26" transform="translate(0 -4.232)" fill="#192336"/>
                      </g>
                    </g>
                  </g>
                  <g id="Group_20307" data-name="Group 20307" transform="translate(566.065 8.032)" opacity="0.53">
                    <g id="Group_20306" data-name="Group 20306">
                      <g id="Group_20305" data-name="Group 20305" clip-path="url(#clip-path-5)">
                        <path id="Path_27643" data-name="Path 27643" d="M548.106,18.61c0-.324-.008-.648-.037-.976A11.5,11.5,0,0,0,528.4,10.593a10.072,10.072,0,0,0-17.424,5.537c-.08,0-.157,0-.237.009a7.918,7.918,0,1,0,5.089,14.479,7.909,7.909,0,0,0,10.224,1.277A7.9,7.9,0,0,0,537.1,30.134c.157-.007.315-.008.472-.018a5,5,0,0,0,9.2-2.26c.037,0,.073,0,.11,0a4.777,4.777,0,0,0,1.225-9.244" transform="translate(-503.523 -7.144)" fill="#192336"/>
                      </g>
                    </g>
                  </g>
                  <g id="Group_20310" data-name="Group 20310" transform="translate(273.587 0)" opacity="0.53">
                    <g id="Group_20309" data-name="Group 20309">
                      <g id="Group_20308" data-name="Group 20308" clip-path="url(#clip-path-6)">
                        <path id="Path_27644" data-name="Path 27644" d="M396.519,36.529c-.025-.59-.058-1.183-.11-1.777A38.064,38.064,0,0,0,332.47,10.283a36.261,36.261,0,0,0-54.806,9.589,9.287,9.287,0,0,0-15.535,9.152c-.021,0-.044,0-.066,0a20.491,20.491,0,1,0,18.748,31.906,36.292,36.292,0,0,0,51.651,4.933,38.047,38.047,0,0,0,54.568-2.617,14.444,14.444,0,1,0,9.489-26.721" transform="translate(-243.36 0)" fill="#192336"/>
                      </g>
                    </g>
                  </g>
                </g>
              </g>
            </g>
          </g>
          <g id="Group_20317" data-name="Group 20317" transform="translate(-620.813 5742.586)">
            <g id="Group_20313-2" data-name="Group 20313" clip-path="url(#clip-path-7)">
              <g id="Group_20312-2" data-name="Group 20312" transform="translate(0 -0.001)">
                <g id="Group_20318" data-name="Group 20318">
                  <g id="Group_20307-2" data-name="Group 20307" transform="translate(1056.38 14.989)" opacity="0.53">
                    <g id="Group_20306-2" data-name="Group 20306">
                      <g id="Group_20305-2" data-name="Group 20305" clip-path="url(#clip-path-8)">
                        <path id="Path_27643-2" data-name="Path 27643" d="M586.723,28.541c0-.6-.015-1.208-.069-1.821a21.459,21.459,0,0,0-36.7-13.14,18.8,18.8,0,0,0-32.516,10.333c-.149.008-.294,0-.443.017a14.777,14.777,0,1,0,9.5,27.02,14.76,14.76,0,0,0,19.079,2.383,14.734,14.734,0,0,0,20.613-3.285c.294-.013.587-.015.881-.034A9.327,9.327,0,0,0,584.23,45.8c.069,0,.136,0,.206,0a8.915,8.915,0,0,0,2.287-17.252" transform="translate(-503.523 -7.144)" fill="#192336"/>
                      </g>
                    </g>
                  </g>
                  <g id="Group_20310-2" data-name="Group 20310" transform="translate(510.564 0)" opacity="0.53">
                    <g id="Group_20309-2" data-name="Group 20309">
                      <g id="Group_20308-2" data-name="Group 20308" clip-path="url(#clip-path-9)">
                        <path id="Path_27644-2" data-name="Path 27644" d="M529.182,68.169c-.046-1.1-.109-2.207-.206-3.317A71.034,71.034,0,0,0,409.656,19.19a67.67,67.67,0,0,0-102.279,17.9,17.331,17.331,0,0,0-28.992,17.08c-.04,0-.082,0-.124.006a38.24,38.24,0,1,0,34.988,59.543,67.727,67.727,0,0,0,96.39,9.206,71,71,0,0,0,101.834-4.884,26.955,26.955,0,1,0,17.709-49.867" transform="translate(-243.36 0.001)" fill="#192336"/>
                      </g>
                    </g>
                  </g>
                </g>
              </g>
            </g>
          </g>
          <g id="Group_20315" data-name="Group 20315" transform="translate(1504.187 5605.586)">
            <g id="Group_20313-3" data-name="Group 20313" clip-path="url(#clip-path-2)">
              <g id="Group_20312-3" data-name="Group 20312" transform="translate(0 0)">
                <g id="Group_20321" data-name="Group 20321">
                  <g id="Group_20304-2" data-name="Group 20304" transform="translate(0 4.758)" opacity="0.53">
                    <g id="Group_20303-2" data-name="Group 20303">
                      <g id="Group_20302-2" data-name="Group 20302" clip-path="url(#clip-path-4)">
                        <path id="Path_27642-2" data-name="Path 27642" d="M85.651,26.26c0-.621-.016-1.244-.071-1.874A22.092,22.092,0,0,0,47.8,10.858,19.352,19.352,0,0,0,14.322,21.494c-.152.009-.3,0-.454.017a15.213,15.213,0,1,0,9.776,27.817,15.2,15.2,0,0,0,19.642,2.454A15.165,15.165,0,0,0,64.507,48.4c.3-.012.6-.012.907-.034a9.6,9.6,0,0,0,17.67-4.342c.072,0,.141,0,.212,0A9.179,9.179,0,0,0,85.651,26.26" transform="translate(0 -4.232)" fill="#192336"/>
                      </g>
                    </g>
                  </g>
                  <g id="Group_20310-3" data-name="Group 20310" transform="translate(273.587 0)" opacity="0.53">
                    <g id="Group_20309-3" data-name="Group 20309">
                      <g id="Group_20308-3" data-name="Group 20308" clip-path="url(#clip-path-6)">
                        <path id="Path_27644-3" data-name="Path 27644" d="M396.519,36.529c-.025-.59-.058-1.183-.11-1.777A38.064,38.064,0,0,0,332.47,10.283a36.261,36.261,0,0,0-54.806,9.589,9.287,9.287,0,0,0-15.535,9.152c-.021,0-.044,0-.066,0a20.491,20.491,0,1,0,18.748,31.906,36.292,36.292,0,0,0,51.651,4.933,38.047,38.047,0,0,0,54.568-2.617,14.444,14.444,0,1,0,9.489-26.721" transform="translate(-243.36 0)" fill="#192336"/>
                      </g>
                    </g>
                  </g>
                </g>
              </g>
              <g id="Group_20316" data-name="Group 20316" transform="translate(255 194)">
                <g id="Group_20319" data-name="Group 20319">
                  <g id="Group_20304-3" data-name="Group 20304" transform="translate(0 4.758)" opacity="0.53">
                    <g id="Group_20303-3" data-name="Group 20303">
                      <g id="Group_20302-3" data-name="Group 20302" clip-path="url(#clip-path-4)">
                        <path id="Path_27642-3" data-name="Path 27642" d="M85.651,26.26c0-.621-.016-1.244-.071-1.874A22.092,22.092,0,0,0,47.8,10.858,19.352,19.352,0,0,0,14.322,21.494c-.152.009-.3,0-.454.017a15.213,15.213,0,1,0,9.776,27.817,15.2,15.2,0,0,0,19.642,2.454A15.165,15.165,0,0,0,64.507,48.4c.3-.012.6-.012.907-.034a9.6,9.6,0,0,0,17.67-4.342c.072,0,.141,0,.212,0A9.179,9.179,0,0,0,85.651,26.26" transform="translate(0 -4.232)" fill="#192336"/>
                      </g>
                    </g>
                  </g>
                </g>
              </g>
            </g>
          </g>
        </g>
        <g id="Group_59329" data-name="Group 59329" opacity="0.59">
          <g id="Group_20274" data-name="Group 20274" transform="translate(-221.5 4710.82)">
            <g id="Group_20299" data-name="Group 20299">
              <path id="Path_27607" data-name="Path 27607" d="M941.852,204.314H938.7v-2.9h-1.48V203.3h-1.853v-2.776H932.03v-2.905h-6.486v-8.333L921.467,185H905.159V170.982h-1.667v-1.389H888.3V170.6h-1.482v3.282h-5.745v25.252h-3.151v-8.46h-3.335V180.7h-7.412V167.825h-4.447v-3.409H858.09V154.191h-1.482v-5.682h-1.853v-4.546h-.927l-1.3-10.226h-.741l-1.3,10.478H849.01v2.905c-9.451,3.409-13.157,6.944-13.157,6.944v27.144H832.7v9.344h-2.222V179.819h-.927v-8.585h-5.559v8.585h-6.484v6.819h-8.155v17.8h-2.224v-2.273h-1.853V165.174H794.342V153.18l-2.594-2.4v-2.9l-3.522-2.275V135.5h-1.482v10.1l-3.151,2.023v-5.809h-1.3v-3.787h-1.728V125.57H758.577v12.459H756.6v3.787h-1.546v38.762h-4.818v-1.389h-2.224v1.768h-8.526v12.5H735.6V174.012h-3.892v-2.4h-3.335V149.771h3.335v-3.537h-7.6v-4.923h-4.447V139.29H705.947v1.768H687.973v36.49h-2.967v26.766h-5v-32.7h-8.648V119.006h-.616v-.61h-.65V117.7h-.925v-3.979h-4.449V117.7h-9.078v.694h-2.687v.61h-2.594l-15.567,10.1v20.206l-33.6-5.731v27.947h-1.978v-2.442H598.1v-5.05h-6.116v5.05h-3.52v2.442h-2.965V153.812h1.667V152.3h-3.706V126.664h-.741v-.755H574v.755h-6.116V152.3h-3.026V139.038h-.741v-.589h-3.212v-1.683H543.86v1.683h-2.965v.589h-.741V152.3H536.2v1.516h1.853v27.9h-2.594V168.582H521.991V134.745h-2.673V117.308h-5.874V104.262h-7.426l-4.437-6.637h-.107l-2.18-22.788h.147v-.955h-3.02l-1.651-31.855h-.612l-1.651,31.855H489.45v.955h.252l-2.18,22.788h-.034l-4.437,6.637H476.2v13.046h-6.159v17.438h-2.673v44.836h-1.782l-6.873-45.452h-2.156V111.321a16.342,16.342,0,0,1-.579-1.869A39.356,39.356,0,0,1,455.239,96h-31.57v38.131h-1.617l-6.873,22.39H402.825V131.6h-.741v-3.369h-9.39V131.6h-6.425v24.915h-3.706v.925h-3.952v1.431h-1.978v18.686h-6.3v-2.146H358.659v2.146H356.99v10.606h-6.3V228.4L469,228.428v-.109l472.664.109Z" transform="translate(344.299 41.26)" fill="#020d21"/>
              <path id="Path_27608" data-name="Path 27608" d="M610.426,180.056c.464-7.9.894-19.685-.343-23.678-1.922-6.207-4.879-16.272-4.879-16.272l-20.48,4.986s-.789.422-1.8,3.151.406,20.365.406,20.365l-1.506-.141-1.466-10.676-1.484-.472-.589-2.679-6.817-.753-1.558-9.312-2.285-.753-20.708,4.328-1.229-16.274-2.027-.377-.608-5.174-16.106-1.881-4.352.753-.525,4.891-1.871.1L517.693,176.4l-4.322-.1-.254-17.4-7.307.283-5.523,5.832-.454-8.183-1.916-.377-2.449-24.362-7.335-.379-.018,18.25-2.061-1.881-8.809-.753-2.479-3.952-4.009-.281-.1,24.269-2.416.188-1.04-.47-3.908-.377-.5-23.611-3.6-.658s-.67-5.832-1.046-6.3-1.413-3.2-1.966-3.2-3.516,6.019-3.637,7.055-.345,6.772-.345,6.772l-2.249-.375-2.388.47-5.038-1.788.105-24.269-5.492-.753-1.134-9.5-18.676-2.164-.721,1.694-6.831.281-.48,5.363-1.871.1-.353,5.549-2.13.846h-3.167v6.516h-8.306l-.83,14.538-7.519-.285L383.9,97.662H371.109l.418,58.72-7.16.285s-.038,15.258-.085,23.389H350.659V161.447H318.673v18.609h-4.154c.034-16.316.24-61.586.24-61.586l-11.685.571-1.546,49.315-12.436.569s.141,6.149.208,11.132H270.684V136.235h-9.966v43.821h-8.754l-.462-36.5-9.758-.856-.03-35.062-9.641-4.56-17.329.571.127,31.924-9.838,1.71.073,21.665-15.824.571s-.19,12.588-.331,20.537h-.343l-1.53-28.228-.925-.234-.133-1.136-.941-.055-.17-.721-6.508-.034-.244,1.35-1.9.063-1.786-63.934-2.7-.222-.236-2.564-1.476-.03-.25-5-.779.1-3.006,4.031-.468-1.036-.731.222-.406,1.518-12.751-.733-.147-4.487-.715.046-3.508,6.879s-5.535,6.076-5.626,6.425-2.265,84.039-2.265,84.039l-5.3.335-2.658,1.859-.137,1.544h-1.09c.369-12.987,1.254-45.06,1.033-45.216a36.995,36.995,0,0,0-4.481-.208l.083-2.812-1.181-.042-.273-.876-2.273.25-.264,1.881-1.027.206-.252,1.468-2.12.2-.242.995-.573.115-.355,3.21-.9.123L116,180.056h-8.218v32.7h507.7v-32.7Z" transform="translate(105.822 77.492)" fill="#020d21" fill-rule="evenodd"/>
              <g id="Group_59328" data-name="Group 59328" transform="translate(265.607 137.131)" clip-path="url(#clip-path-14)">
                <path id="Path_27726" data-name="Path 27726" d="M281.929,115.022h26.409V88.351H281.929Zm7.961-8.305h-6.839V97.389a3.42,3.42,0,1,1,6.839,0Zm8.663,0h-6.839V97.389a3.42,3.42,0,1,1,6.839,0Zm8.663,0h-6.839V97.389a3.419,3.419,0,1,1,6.839,0Z" fill="#182234"/>
                <path id="Path_27727" data-name="Path 27727" d="M308.968,87.2V85.358s.209-1.838-1.1-1.838c-.1-5.354-8.086-10.553-9.765-10.553,0-1.991-2.557-3.261-2.941-3.44V69.5l-.026.011-.025-.011v.024c-.384.179-2.941,1.449-2.941,3.44-1.679,0-9.661,5.2-9.765,10.553-1.313,0-1.1,1.838-1.1,1.838V87.2s-3.465,1.049-5.565,1.941v1.471h38.8V89.137c-2.1-.892-5.565-1.941-5.565-1.941" fill="#182234"/>
                <path id="Path_27728" data-name="Path 27728" d="M317.079,111.295c-.578-2.782-3.517-5.25-3.517-5.25s-3.045,1.891-3.518,5.041c-.289-4.045-4.542-5.855-4.542-5.855s-4.489,1.732-4.489,6.169c-.473-3.937-5.88-6.825-5.88-6.825s-5.407,2.888-5.88,6.825c0-4.437-4.489-6.169-4.489-6.169s-4.252,1.81-4.541,5.855c-.473-3.15-3.518-5.041-3.518-5.041s-2.94,2.468-3.518,5.25a6.764,6.764,0,0,0-3.884-4.987v17.168l25.83,1.155,25.832-1.155V106.308a6.767,6.767,0,0,0-3.886,4.987" fill="#182234"/>
                <path id="Path_27729" data-name="Path 27729" d="M295.838,71.34a.525.525,0,0,1-1.05,0V66.195a.525.525,0,0,1,1.05,0Z" fill="#182234"/>
                <path id="Path_27730" data-name="Path 27730" d="M266.231,172.406h57.805V122.792H266.231Zm17.09-17.956h-14.7V142.008c0-4.176,6.181-5.063,7.242-6.99h.216c1.059,1.927,7.242,2.814,7.242,6.99Zm19.163,0h-14.7V142.008c0-4.176,6.182-5.063,7.242-6.99h.216c1.059,1.927,7.242,2.814,7.242,6.99Zm19.163,0h-14.7V142.008c0-4.176,6.181-5.063,7.242-6.99h.216c1.059,1.927,7.242,2.814,7.242,6.99Z" fill="#182234"/>
                <path id="Path_27731" data-name="Path 27731" d="M413.6,115.022h26.409V88.351H413.6Zm7.961-8.305h-6.839V97.389a3.42,3.42,0,1,1,6.839,0Zm8.663,0h-6.839V97.389a3.42,3.42,0,1,1,6.839,0Zm8.662,0h-6.838V97.389a3.419,3.419,0,1,1,6.838,0Z" fill="#182234"/>
                <path id="Path_27732" data-name="Path 27732" d="M440.636,87.2V85.358s.21-1.838-1.1-1.838c-.1-5.354-8.086-10.553-9.764-10.553,0-1.991-2.558-3.261-2.942-3.44V69.5l-.026.011a.194.194,0,0,1-.025-.011v.024c-.384.179-2.941,1.449-2.941,3.44-1.681,0-9.66,5.2-9.765,10.553-1.313,0-1.1,1.838-1.1,1.838V87.2s-3.465,1.049-5.564,1.941v1.471h38.8V89.137c-2.1-.892-5.565-1.941-5.565-1.941" fill="#182234"/>
                <path id="Path_27733" data-name="Path 27733" d="M448.747,111.295c-.578-2.782-3.518-5.25-3.518-5.25s-3.044,1.891-3.517,5.041c-.288-4.045-4.541-5.855-4.541-5.855s-4.489,1.732-4.489,6.169c-.473-3.937-5.881-6.825-5.881-6.825s-5.408,2.888-5.88,6.825c0-4.437-4.488-6.169-4.488-6.169s-4.253,1.81-4.541,5.855c-.473-3.15-3.519-5.041-3.519-5.041s-2.94,2.468-3.518,5.25a6.764,6.764,0,0,0-3.884-4.987v17.168l25.83,1.155,25.831-1.155V106.308a6.767,6.767,0,0,0-3.885,4.987" fill="#182234"/>
                <path id="Path_27734" data-name="Path 27734" d="M427.506,71.34a.525.525,0,0,1-1.05,0V66.195a.525.525,0,0,1,1.05,0Z" fill="#182234"/>
                <path id="Path_27735" data-name="Path 27735" d="M397.9,172.406H455.7V122.792H397.9Zm17.091-17.956h-14.7V142.008c0-4.176,6.182-5.063,7.242-6.99h.216c1.059,1.927,7.242,2.814,7.242,6.99Zm19.163,0h-14.7V142.008c0-4.176,6.181-5.063,7.243-6.99h.216c1.058,1.927,7.241,2.814,7.241,6.99Zm19.163,0h-14.7V142.008c0-4.176,6.183-5.063,7.243-6.99h.216c1.059,1.927,7.242,2.814,7.242,6.99Z" fill="#182234"/>
                <path id="Path_27736" data-name="Path 27736" d="M340.255,110.927c0,.021-4.933,1.378-3.623,5.407v8.348h2.889V119.9h1.442v4.777h2.889v-8.348c1.309-4.029-3.6-5.407-3.6-5.407" fill="#182234"/>
                <path id="Path_27737" data-name="Path 27737" d="M331.863,110.927c0,.021-4.932,1.378-3.622,5.407v8.348h2.888V119.9h1.443v4.777h2.887v-8.348c1.31-4.029-3.6-5.407-3.6-5.407" fill="#182234"/>
                <path id="Path_27738" data-name="Path 27738" d="M348.647,110.927c0,.021-4.933,1.378-3.622,5.407v8.348h2.887V119.9h1.443v4.777h2.888v-8.348c1.309-4.029-3.6-5.407-3.6-5.407" fill="#182234"/>
                <path id="Path_27739" data-name="Path 27739" d="M357.037,110.927c0,.021-4.932,1.378-3.622,5.407v8.348H356.3V119.9h1.443v4.777h2.888v-8.348c1.309-4.029-3.6-5.407-3.6-5.407" fill="#182234"/>
                <rect id="Rectangle_13506" data-name="Rectangle 13506" width="34.283" height="1.339" transform="translate(327.06 117.279)" fill="#182234"/>
                <rect id="Rectangle_13507" data-name="Rectangle 13507" width="7.035" height="2.101" transform="translate(333.201 93.337)" fill="#182234"/>
                <path id="Path_27740" data-name="Path 27740" d="M338.392,88.509a.665.665,0,0,0-.682-.788c0-.735-.985-.944-.985-.944s-1,.209-1,.944a.665.665,0,0,0-.683.788s-3.518,1.523-1.575,4.829a6.04,6.04,0,0,0,6.5,0c1.944-3.306-1.575-4.829-1.575-4.829" fill="#182234"/>
                <path id="Path_27741" data-name="Path 27741" d="M337.072,87.944a.354.354,0,0,1-.709,0v-2.6a.354.354,0,0,1,.709,0Z" fill="#182234"/>
                <rect id="Rectangle_13508" data-name="Rectangle 13508" width="7.036" height="2.101" transform="translate(341.334 93.337)" fill="#182234"/>
                <path id="Path_27742" data-name="Path 27742" d="M346.526,88.509a.666.666,0,0,0-.684-.788c0-.735-.984-.944-.984-.944s-1,.209-1,.944a.664.664,0,0,0-.682.788s-3.519,1.523-1.576,4.829a6.04,6.04,0,0,0,6.5,0c1.943-3.306-1.574-4.829-1.574-4.829" fill="#182234"/>
                <path id="Path_27743" data-name="Path 27743" d="M345.207,87.944a.355.355,0,0,1-.709,0v-2.6a.355.355,0,0,1,.709,0Z" fill="#182234"/>
                <rect id="Rectangle_13509" data-name="Rectangle 13509" width="7.034" height="2.101" transform="translate(349.469 93.337)" fill="#182234"/>
                <path id="Path_27744" data-name="Path 27744" d="M354.659,88.509a.665.665,0,0,0-.683-.788c0-.735-.983-.944-.983-.944s-1,.209-1,.944a.666.666,0,0,0-.683.788s-3.517,1.523-1.574,4.829a6.04,6.04,0,0,0,6.5,0c1.943-3.306-1.576-4.829-1.576-4.829" fill="#182234"/>
                <path id="Path_27745" data-name="Path 27745" d="M353.341,87.944a.355.355,0,0,1-.709,0v-2.6a.355.355,0,0,1,.709,0Z" fill="#182234"/>
                <rect id="Rectangle_13510" data-name="Rectangle 13510" width="7.036" height="2.101" transform="translate(382.004 93.337)" fill="#182234"/>
                <path id="Path_27746" data-name="Path 27746" d="M383.849,88.509a.665.665,0,0,1,.682-.788c0-.735.985-.944.985-.944s1,.209,1,.944a.665.665,0,0,1,.683.788s3.517,1.523,1.575,4.829a6.04,6.04,0,0,1-6.5,0c-1.944-3.306,1.575-4.829,1.575-4.829" fill="#182234"/>
                <path id="Path_27747" data-name="Path 27747" d="M385.168,87.944a.355.355,0,0,0,.709,0v-2.6a.355.355,0,0,0-.709,0Z" fill="#182234"/>
                <rect id="Rectangle_13511" data-name="Rectangle 13511" width="7.036" height="2.101" transform="translate(373.87 93.337)" fill="#182234"/>
                <path id="Path_27748" data-name="Path 27748" d="M375.715,88.509a.665.665,0,0,1,.683-.788c0-.735.983-.944.983-.944s1,.209,1,.944a.666.666,0,0,1,.683.788s3.518,1.523,1.575,4.829a6.04,6.04,0,0,1-6.5,0c-1.943-3.306,1.575-4.829,1.575-4.829" fill="#182234"/>
                <path id="Path_27749" data-name="Path 27749" d="M377.033,87.944a.355.355,0,0,0,.709,0v-2.6a.355.355,0,0,0-.709,0Z" fill="#182234"/>
                <rect id="Rectangle_13512" data-name="Rectangle 13512" width="7.034" height="2.101" transform="translate(365.737 93.337)" fill="#182234"/>
                <path id="Path_27750" data-name="Path 27750" d="M367.581,88.509a.665.665,0,0,1,.682-.788c0-.735.984-.944.984-.944s1,.209,1,.944a.666.666,0,0,1,.683.788s3.517,1.523,1.574,4.829a6.04,6.04,0,0,1-6.5,0c-1.943-3.306,1.576-4.829,1.576-4.829" fill="#182234"/>
                <path id="Path_27751" data-name="Path 27751" d="M368.9,87.944a.355.355,0,0,0,.709,0v-2.6a.355.355,0,0,0-.709,0Z" fill="#182234"/>
                <rect id="Rectangle_13513" data-name="Rectangle 13513" width="7.035" height="2.101" transform="translate(357.603 93.337)" fill="#182234"/>
                <path id="Path_27752" data-name="Path 27752" d="M359.446,88.509a.666.666,0,0,1,.683-.788c0-.735.984-.944.984-.944s1,.209,1,.944a.665.665,0,0,1,.682.788s3.518,1.523,1.575,4.829a6.04,6.04,0,0,1-6.5,0c-1.942-3.306,1.575-4.829,1.575-4.829" fill="#182234"/>
                <path id="Path_27753" data-name="Path 27753" d="M360.765,87.944a.354.354,0,0,0,.709,0v-2.6a.354.354,0,0,0-.709,0Z" fill="#182234"/>
                <path id="Path_27754" data-name="Path 27754" d="M381.986,110.927c0,.021,4.932,1.378,3.622,5.407v8.348h-2.889V119.9h-1.442v4.777h-2.888v-8.348c-1.31-4.029,3.6-5.407,3.6-5.407" fill="#182234"/>
                <path id="Path_27755" data-name="Path 27755" d="M390.377,110.927c0,.021,4.933,1.378,3.623,5.407v8.348h-2.889V119.9h-1.443v4.777h-2.887v-8.348c-1.309-4.029,3.6-5.407,3.6-5.407" fill="#182234"/>
                <path id="Path_27756" data-name="Path 27756" d="M373.594,110.927c0,.021,4.933,1.378,3.623,5.407v8.348h-2.888V119.9h-1.443v4.777H370v-8.348c-1.309-4.029,3.6-5.407,3.6-5.407" fill="#182234"/>
                <path id="Path_27757" data-name="Path 27757" d="M365.2,110.927c0,.021,4.932,1.378,3.622,5.407v8.348h-2.888V119.9h-1.443v4.777h-2.888v-8.348c-1.309-4.029,3.6-5.407,3.6-5.407" fill="#182234"/>
                <rect id="Rectangle_13514" data-name="Rectangle 13514" width="34.284" height="1.339" transform="translate(360.896 117.279)" fill="#182234"/>
                <path id="Path_27758" data-name="Path 27758" d="M399.7,73.808V72.547h-2.519V68.242l2.1-1.049-1.889-1.681s0-3.779-2.206-3.78h0c-2.2,0-2.2,3.78-2.2,3.78l-1.889,1.681,2.1,1.049v4.305h-2.519v1.261l2.2,2.205V80H391.4v1.156l.525,1v26.933h-2.048V94.755H332.362v14.333h-2.048V82.155l.526-1V80h-1.47V76.013l2.2-2.205V72.547h-2.52V68.242l2.1-1.049-1.89-1.681s0-3.684-2.126-3.776v0l-.039,0-.04,0v0c-2.125.092-2.126,3.776-2.126,3.776l-1.89,1.681,2.1,1.049v4.305h-2.52v1.261l2.205,2.205V80h-1.47v1.156l.277.525h.169V82l.079.15-.079,45.362v44.889h74.553V85.621h.078V82.155l.526-1V80H397.49V76.013Zm-17.745,30.87a3.738,3.738,0,1,1,7.167,0v3.859H381.95Zm-8.138,0a3.737,3.737,0,1,1,7.166,0v3.859h-7.166Zm-8.138,0a3.738,3.738,0,1,1,7.168,0v3.859h-7.168Zm-8.138,0a3.738,3.738,0,1,1,7.167,0v3.859h-7.167Zm-8.138,0a3.738,3.738,0,1,1,7.167,0v3.859H349.4Zm-8.136,0a3.738,3.738,0,1,1,7.166,0v3.859h-7.166Zm-8.138,0a3.738,3.738,0,1,1,7.166,0v3.859h-7.166Zm61.322,22.839H327.794V109.8h66.652Z" fill="#182234"/>
                <path id="Path_27759" data-name="Path 27759" d="M68.267,18.112a1.32,1.32,0,0,1-2.639,0V1.32a1.32,1.32,0,1,1,2.639,0Z" fill="#182234"/>
                <path id="Path_27760" data-name="Path 27760" d="M311.438,18.112a1.32,1.32,0,0,1-2.64,0V1.32a1.32,1.32,0,1,1,2.64,0Z" fill="#182234"/>
                <path id="Path_27761" data-name="Path 27761" d="M165.063,143.262v-1.918a5.757,5.757,0,1,0-11.514,0v1.918Z" fill="#182234"/>
                <path id="Path_27762" data-name="Path 27762" d="M92.617,55.656c-1.2-2.16-9.357-1.92-9.357-1.92V37.423c9.115-1.2,8.876-6,0-6,0-6-1.679-12.953-11.035-14.632,0-2.639-5.278-2.879-5.278-2.879s-5.277.24-5.277,2.879c-9.356,1.679-11.035,8.635-11.035,14.632-8.876,0-9.116,4.8,0,6V53.736s-8.157-.24-9.356,1.92S48,64.051,48,64.051v48.938H85.9V64.051s7.916-6.236,6.718-8.4m-31.846-1.92H53.453V40.962a3.659,3.659,0,1,1,7.318,0Zm9.835,0H63.289V40.962a3.659,3.659,0,1,1,7.317,0Zm9.835,0H73.125V40.962a3.658,3.658,0,1,1,7.316,0Z" fill="#182234"/>
                <path id="Path_27763" data-name="Path 27763" d="M108.662,55.954a.773.773,0,0,1-1.546,0V46.113a.773.773,0,0,1,1.546,0Z" fill="#182234"/>
                <path id="Path_27764" data-name="Path 27764" d="M122.93,77.953c-.7-1.266-5.482-1.124-5.482-1.124v-9.56c5.342-.7,5.2-3.513,0-3.513,0-3.515-.984-7.592-6.466-8.575,0-1.547-3.093-1.687-3.093-1.687s-3.093.14-3.093,1.687c-5.482.983-6.466,5.06-6.466,8.575-5.2,0-5.342,2.81,0,3.513v9.56s-4.78-.142-5.483,1.124,3.937,4.92,3.937,4.92v28.678h22.21V82.873s4.639-3.654,3.936-4.92m-18.661-1.124H99.982V69.344a2.143,2.143,0,1,1,4.287,0Zm5.763,0h-4.286V69.344a2.143,2.143,0,1,1,4.286,0Zm5.764,0h-4.287V69.344a2.143,2.143,0,1,1,4.287,0Z" fill="#182234"/>
                <path id="Path_27765" data-name="Path 27765" d="M341.564,109.394H35.681s-.32,7.037,11.195,8.957v54.055H330.37V118.351c11.515-1.92,11.194-8.957,11.194-8.957m-214.4,55.139H106.05v-22.39c0-6.4,10.556-8.636,10.556-10.874,0,2.238,10.554,4.476,10.554,10.874Zm37.9,0H153.549V148.221h11.514Zm35.985,0h-24.11v-25.57c0-7.307,12.054-9.864,12.054-12.42,0,2.556,12.056,5.113,12.056,12.42Zm22.649,0H212.182V148.221H223.7Zm47.5,0h-21.11v-22.39c0-6.4,10.554-8.636,10.554-10.874,0,2.238,10.556,4.476,10.556,10.874Z" fill="#182234"/>
                <path id="Path_27766" data-name="Path 27766" d="M212.183,143.262v-1.918a5.757,5.757,0,1,1,11.515,0v1.918Z" fill="#182234"/>
                <path id="Path_27767" data-name="Path 27767" d="M291.347,64.052v48.937h37.9V64.052s7.915-6.236,6.716-8.4-9.355-1.92-9.355-1.92V37.423c9.116-1.2,8.876-6,0-6,0-6-1.68-12.953-11.036-14.633,0-2.639-5.277-2.879-5.277-2.879s-5.278.24-5.278,2.879c-9.355,1.68-11.035,8.636-11.035,14.633-8.875,0-9.116,4.8,0,6V53.736s-8.157-.24-9.355,1.92,6.716,8.4,6.716,8.4m25.13-23.09a3.658,3.658,0,0,1,7.316,0V53.736h-7.316Zm-9.837,0a3.658,3.658,0,1,1,7.316,0V53.736H306.64Zm-9.835,0a3.658,3.658,0,0,1,7.316,0V53.736H296.8Z" fill="#182234"/>
                <path id="Path_27768" data-name="Path 27768" d="M268.584,55.954a.773.773,0,0,0,1.547,0V46.113a.773.773,0,0,0-1.547,0Z" fill="#182234"/>
                <path id="Path_27769" data-name="Path 27769" d="M258.252,82.873v28.678h22.212V82.873s4.637-3.654,3.935-4.92-5.483-1.124-5.483-1.124V67.27c5.342-.7,5.2-3.514,0-3.514,0-3.515-.984-7.592-6.467-8.575,0-1.547-3.093-1.687-3.093-1.687s-3.092.14-3.092,1.687c-5.482.983-6.465,5.06-6.465,8.575-5.2,0-5.343,2.811,0,3.514v9.559s-4.781-.141-5.484,1.124,3.937,4.92,3.937,4.92m14.725-13.529a2.143,2.143,0,1,1,4.286,0v7.485h-4.286Zm-5.763,0a2.143,2.143,0,1,1,4.286,0v7.485h-4.286Zm-5.765,0a2.144,2.144,0,1,1,4.288,0v7.485h-4.288Z" fill="#182234"/>
                <path id="Path_27771" data-name="Path 27771" d="M151.949,72.448H136.6s1.679-5.277,6-5.277h11.515Z" fill="#182234"/>
                <path id="Path_27772" data-name="Path 27772" d="M225.6,72.448h15.353s-1.679-5.277-6-5.277H223.438Z" fill="#182234"/>
                <rect id="Rectangle_13516" data-name="Rectangle 13516" width="248.814" height="7.398" transform="translate(216.033 165.008)" fill="#182234"/>
                <path id="Path_27773" data-name="Path 27773" d="M259.2,147.714h-1.432V130.538l1.074-.952v-1.671H257.3V108.234l1.192-1.073V105.73h-1.431v-4.893l.477-.954h.954V98.809h-1.311s.115-2.713-3.64-5.442h-.059c-3.753,2.729-3.638,5.442-3.638,5.442h-1.312v1.074h.954l.477.954v4.893h-1.431v1.431l1.193,1.073v19.681h-1.551v1.671l1.074.952v17.176h-1.432v1.432l1.67.954-.716,18.249h9.484l-.716-18.249,1.67-.954Z" fill="#182234"/>
                <path id="Path_27774" data-name="Path 27774" d="M235.218,140.843h-1.907v-22.9l1.43-1.27v-2.227h-2.066V88.211l1.589-1.431V84.87h-1.908V78.354l.637-1.274h1.271V75.651h-1.75s.156-3.619-4.85-7.256h-.078c-5.006,3.637-4.85,7.256-4.85,7.256h-1.749V77.08h1.272l.636,1.274V84.87h-1.908v1.91l1.591,1.431v26.236H220.51v2.227l1.432,1.27v22.9h-1.909v1.907l2.226,1.271-.954,24.328h12.643l-.955-24.328,2.225-1.271Z" fill="#182234"/>
                <path id="Path_27776" data-name="Path 27776" d="M319.678,166.679s-2.086-62.2-3.756-67.63-6.68-7.634-10.02-10.078c-4.055,2.387-11.272,5.665-11.272,11.866H293.2v2.387h-2.267v11.927h-9.185V106.8h-2.98V98.692h1.31v-.956h-3.218v.836h.953V106.8h-1.789v59.876h4.547V155.138c0-4.684,6.1-7.156,6.1-7.156s6.172,2.472,6.172,7.156v11.541h4.787V155.138c0-4.684,6.1-7.156,6.1-7.156s6.175,2.472,6.175,7.156v11.541ZM292.84,143.093H280.57v-11.54c0-4.687,6.1-7.157,6.1-7.157s6.172,2.47,6.172,7.157Zm14.4-33.757c0-1.2,2.246-2.55,2.624-2.769,0,0,.011-.028.032-.017l.029-.018s2.623,1.605,2.623,2.8v4.8h-5.308Zm-6.857,0c0-1.2,2.245-2.55,2.624-2.769,0,0,.01-.028.03-.017a.274.274,0,0,0,.028-.018s2.625,1.605,2.625,2.8v4.8h-5.307Zm-4.174,4.8h-2.684v-4.8c0-1.2,2.246-2.55,2.622-2.769,0,0,.012-.028.03-.017l.032-.018s2.623,1.605,2.623,2.8v4.8Zm7.588,28.956h-6.173v-11.54c0-4.687,6.1-7.157,6.1-7.157s6.175,2.47,6.175,7.157v11.54Z" fill="#182234"/>
                <path id="Path_27777" data-name="Path 27777" d="M421.674,147.714h1.432V130.538l-1.076-.952v-1.671h1.55V108.234l-1.192-1.073V105.73h1.433v-4.893l-.479-.954h-.954V98.809H423.7s-.116-2.713,3.64-5.442h.057c3.753,2.729,3.637,5.442,3.637,5.442h1.312v1.074H431.4l-.481.954v4.893h1.432v1.431l-1.192,1.073v19.681h1.552v1.671l-1.075.952v17.176h1.432v1.432l-1.668.954.715,18.249h-9.483l.714-18.249-1.668-.954Z" fill="#182234"/>
                <path id="Path_27778" data-name="Path 27778" d="M445.659,140.843h1.908v-22.9l-1.43-1.27v-2.227H448.2V88.211l-1.59-1.431V84.87h1.907V78.354l-.636-1.274h-1.271V75.651h1.749s-.158-3.619,4.848-7.256h.082c5,3.637,4.848,7.256,4.848,7.256h1.749V77.08h-1.272l-.636,1.274V84.87h1.908v1.91L458.3,88.211v26.236h2.068v2.227l-1.431,1.27v22.9h1.909v1.907l-2.227,1.271.955,24.328H446.93l.955-24.328-2.226-1.271Z" fill="#182234"/>
                <path id="Path_27779" data-name="Path 27779" d="M370.98,166.679V155.138c0-4.684,6.171-7.156,6.171-7.156s6.1,2.472,6.1,7.156v11.541h4.785V155.138c0-4.684,6.173-7.156,6.173-7.156s6.1,2.472,6.1,7.156v11.541h4.549V106.8h-1.792V98.572h.955v-.836H400.8v.956h1.312V106.8h-2.983v8.348h-9.183V103.224h-2.268v-2.387h-1.431c0-6.2-7.214-9.479-11.271-11.866-3.339,2.444-8.349,4.651-10.019,10.078s-3.757,67.63-3.757,67.63Zm17.056-35.126c0-4.687,6.173-7.157,6.173-7.157s6.1,2.47,6.1,7.157v11.54H388.036Zm-14.4-17.416h-5.309v-4.8c0-1.2,2.626-2.8,2.626-2.8a.166.166,0,0,0,.029.018c.018-.011.031.017.031.017.376.219,2.623,1.57,2.623,2.769Zm6.86,0h-5.311v-4.8c0-1.2,2.625-2.8,2.625-2.8a.239.239,0,0,0,.029.018c.02-.011.03.017.03.017.38.219,2.627,1.57,2.627,2.769Zm1.547,0v-4.8c0-1.2,2.625-2.8,2.625-2.8l.031.018c.018-.011.029.017.029.017.38.219,2.623,1.57,2.623,2.769v4.8h-5.308ZM370.98,143.093v-11.54c0-4.687,6.171-7.157,6.171-7.157s6.1,2.47,6.1,7.157v11.54H370.98Z" fill="#182234"/>
                <path id="Path_27784" data-name="Path 27784" d="M242,43.165s-31.946,7.968-32.238,36.282h64.513C273.979,51.133,242,43.165,242,43.165" transform="translate(-20.196 -17.823)" fill="#182234"/>
                <path id="Path_27785" data-name="Path 27785" d="M244.617,41a2.6,2.6,0,1,1-2.6-2.6,2.6,2.6,0,0,1,2.6,2.6" fill="#182234"/>
                <path id="Path_27786" data-name="Path 27786" d="M243.205,38.4a1.19,1.19,0,0,1-2.381,0c0-.658.533-18.145,1.19-18.145s1.191,17.487,1.191,18.145" fill="#182234"/>
                <rect id="Rectangle_13517" data-name="Rectangle 13517" width="1.933" height="11.75" transform="translate(152.53 81.379)" fill="#182234"/>
                <rect id="Rectangle_13518" data-name="Rectangle 13518" width="1.636" height="13.98" transform="translate(160.561 81.379)" fill="#182234"/>
                <path id="Path_27787" data-name="Path 27787" d="M160.1,136.858h45.811V91.791H160.1Zm36.867-3.384H175.789v-23.2c0-4.157,10.185-5.739,10.578-7.063h.018c.393,1.324,10.579,2.906,10.579,7.063Z" fill="#182234"/>
                <path id="Path_27788" data-name="Path 27788" d="M152.529,136.858h17.4V91.791h-17.4Zm7.493-13.2h-5.968v-7.14c0-2.986,2.561-3.123,2.956-4.53h.056c.4,1.407,2.956,1.544,2.956,4.53Zm0-15h-5.968v-7.14c0-2.985,2.561-3.123,2.956-4.53h.056c.4,1.407,2.956,1.545,2.956,4.53Z" fill="#182234"/>
                <path id="Path_27789" data-name="Path 27789" d="M199.2,136.858h17.4V91.791H199.2Zm15.877-13.2H209.1v-7.14c0-2.986,2.561-3.123,2.956-4.53h.056c.394,1.407,2.956,1.544,2.956,4.53Zm0-15H209.1v-7.14c0-2.985,2.561-3.123,2.956-4.53h.056c.394,1.407,2.956,1.545,2.956,4.53Z" fill="#182234"/>
                <path id="Path_27790" data-name="Path 27790" d="M196.123,77.512c-3.2-6.676-8.341-5.037-9-9.294h-.115c-.656,4.257-5.8,2.618-9,9.294A9.674,9.674,0,0,0,174,80.933h26.14a9.667,9.667,0,0,0-4.016-3.421" fill="#182234"/>
                <path id="Path_27791" data-name="Path 27791" d="M177.625,95.806h18.889V79H177.625Zm5.346-3.532a1.823,1.823,0,0,1-3.646,0V87.152a1.823,1.823,0,1,1,3.646,0Zm5.921,0a1.823,1.823,0,1,1-3.646,0V87.152a1.823,1.823,0,1,1,3.646,0Zm5.922,0a1.823,1.823,0,1,1-3.646,0V87.152a1.823,1.823,0,1,1,3.646,0Z" fill="#182234"/>
                <path id="Path_27792" data-name="Path 27792" d="M216.432,77.662V132.1h9.424V103.914c0-5.8,15.544-12.022,16.144-13.866h.028c.6,1.844,16.145,8.069,16.145,13.866V132.1H267.6V77.662Z" transform="translate(-20.196 -17.823)" fill="#182234"/>
                <path id="Path_27793" data-name="Path 27793" d="M81.77,172.406H262.481v-42.39H81.77Zm31.587-4.426H92.181v-23.2c0-4.158,10.186-5.74,10.579-7.062h.018c.393,1.322,10.579,2.9,10.579,7.062Zm34.692,0H126.874v-23.2c0-4.158,10.185-5.74,10.578-7.062h.018c.394,1.322,10.579,2.9,10.579,7.062Zm34.692,0H161.566v-23.2c0-4.158,10.185-5.74,10.578-7.062h.019c.393,1.322,10.578,2.9,10.578,7.062Zm34.692,0H196.257v-23.2c0-4.158,10.186-5.74,10.58-7.062h.018c.393,1.322,10.578,2.9,10.578,7.062Zm34.692,0H230.95v-23.2c0-4.158,10.186-5.74,10.578-7.062h.019c.393,1.322,10.578,2.9,10.578,7.062Z" fill="#182234"/>
                <rect id="Rectangle_13519" data-name="Rectangle 13519" width="1.935" height="11.75" transform="translate(329.448 81.379)" fill="#182234"/>
                <rect id="Rectangle_13520" data-name="Rectangle 13520" width="1.636" height="13.98" transform="translate(321.714 81.379)" fill="#182234"/>
                <path id="Path_27795" data-name="Path 27795" d="M313.982,136.858h17.4V91.791h-17.4Zm9.909-20.34c0-2.986,2.56-3.123,2.955-4.53h.056c.395,1.407,2.956,1.544,2.956,4.53v7.14h-5.967Zm0-15c0-2.985,2.56-3.123,2.955-4.53h.056c.395,1.407,2.956,1.545,2.956,4.53v7.14h-5.967Z" fill="#182234"/>
                <path id="Path_27796" data-name="Path 27796" d="M267.316,136.858h17.4V91.791h-17.4Zm1.524-20.34c0-2.986,2.56-3.123,2.955-4.53h.058c.394,1.407,2.955,1.544,2.955,4.53v7.14H268.84Zm0-15c0-2.985,2.56-3.123,2.955-4.53h.058c.394,1.407,2.955,1.545,2.955,4.53v7.14H268.84Z" fill="#182234"/>
                <path id="Path_27797" data-name="Path 27797" d="M287.789,77.512c3.2-6.676,8.341-5.037,9-9.294h.115c.657,4.257,5.8,2.618,9,9.294a9.665,9.665,0,0,1,4.017,3.421h-26.14a9.674,9.674,0,0,1,4.016-3.421" fill="#182234"/>
                <path id="Path_27798" data-name="Path 27798" d="M287.4,95.806h18.889V79H287.4Zm13.542-8.654a1.823,1.823,0,1,1,3.646,0v5.122a1.823,1.823,0,0,1-3.646,0Zm-5.92,0a1.823,1.823,0,1,1,3.646,0v5.122a1.823,1.823,0,1,1-3.646,0Zm-5.922,0a1.823,1.823,0,1,1,3.646,0v5.122a1.823,1.823,0,0,1-3.646,0Z" fill="#182234"/>
                <path id="Path_27799" data-name="Path 27799" d="M260.919,172.406H402.143v-42.39H260.919Zm26.735-4.426H266.478v-23.2c0-4.158,10.187-5.74,10.578-7.062h.02c.392,1.322,10.578,2.9,10.578,7.062Zm34.691,0H301.17v-23.2c0-4.158,10.185-5.74,10.579-7.062h.018c.394,1.322,10.578,2.9,10.578,7.062Zm34.693,0H335.863v-23.2c0-4.158,10.185-5.74,10.578-7.062h.018c.394,1.322,10.579,2.9,10.579,7.062Zm34.693,0H370.554v-23.2c0-4.158,10.187-5.74,10.578-7.062h.02c.393,1.322,10.579,2.9,10.579,7.062Z" fill="#182234"/>
                <rect id="Rectangle_13521" data-name="Rectangle 13521" width="25.92" height="3.023" transform="translate(0.378 169.383)" fill="#182234"/>
                <rect id="Rectangle_13522" data-name="Rectangle 13522" width="25.92" height="3.023" transform="translate(39.312 169.383)" fill="#182234"/>
                <path id="Path_27800" data-name="Path 27800" d="M62.046,145.945l.648-1.3H61.615v-7.668l.918-.918H61.182V122.186l4.374-4.374H61.074V110.63H59.239v-4.1H54.487V99.4h-.864v-3.24H43.686V94.429H39.042l-2.7-1.295a4.538,4.538,0,0,0-7.127,0l-2.7,1.295H21.871v1.728H11.934V99.4h-.865v7.129H6.318v4.1H4.482v7.182H0l4.374,4.374v13.878H3.024l.918.918v7.668H2.862l.649,1.3v18.037H2.646v5.831H24.03V143.137c0-11.447,8.748-11.664,8.748-11.664s8.748.217,8.748,11.664v26.676H62.91v-5.831h-.864Z" transform="translate(-24.015)" fill="#182234"/>
                <path id="Path_27801" data-name="Path 27801" d="M14.8,126.479a2.727,2.727,0,1,1-2.727-2.727,2.726,2.726,0,0,1,2.727,2.727" fill="#182234"/>
                <path id="Path_27802" data-name="Path 27802" d="M21.762,103.475a2.322,2.322,0,1,1-2.321-2.323,2.322,2.322,0,0,1,2.321,2.323" fill="#182234"/>
                <rect id="Rectangle_13523" data-name="Rectangle 13523" width="13.068" height="4.537" transform="translate(7.074 137.521)" fill="#182234"/>
                <path id="Path_27803" data-name="Path 27803" d="M50.814,126.479a2.727,2.727,0,1,0,2.727-2.727,2.726,2.726,0,0,0-2.727,2.727" fill="#182234"/>
                <path id="Path_27804" data-name="Path 27804" d="M43.848,103.475a2.322,2.322,0,1,0,2.322-2.323,2.322,2.322,0,0,0-2.322,2.323" fill="#182234"/>
                <rect id="Rectangle_13524" data-name="Rectangle 13524" width="13.068" height="4.537" transform="translate(45.468 137.521)" fill="#182234"/>
                <rect id="Rectangle_13525" data-name="Rectangle 13525" width="71.333" height="14.666" transform="translate(398.623 157.74)" fill="#182234"/>
                <path id="Path_27805" data-name="Path 27805" d="M484.078,138.651c2.836-3.239,1.755-7.966,1.755-7.966H483s-.81-13.5-1.351-17.281a5.475,5.475,0,0,0,1.756-5h-2.16s-1.621-9.183-1.891-12.827a7.36,7.36,0,0,0,1.756-5.266h-2.3s-.4-4.456-.4-7.156c1.89-2.3.81-3.646.81-3.646h-2.026V74.653l.945-.944v-1.35h-4.995v1.35l.945.944v4.861h-2.025s-1.081,1.35.81,3.646c0,2.7-.4,7.156-.4,7.156h-2.3a7.365,7.365,0,0,0,1.756,5.266c-.271,3.644-1.89,12.827-1.89,12.827h-2.161a5.475,5.475,0,0,0,1.756,5c-.541,3.781-1.351,17.281-1.351,17.281h-2.835s-1.081,4.727,1.755,7.966c-.541,5.4-4.05,33.755-4.05,33.755h24.977s-3.509-28.354-4.05-33.755" fill="#182234"/>
              </g>
            </g>
            <g id="Group_20300" data-name="Group 20300" transform="translate(1198 23.168)">
              <path id="Path_27607-2" data-name="Path 27607" d="M941.852,204.314H938.7v-2.9h-1.48V203.3h-1.853v-2.776H932.03v-2.905h-6.486v-8.333L921.467,185H905.159V170.982h-1.667v-1.389H888.3V170.6h-1.482v3.282h-5.745v25.252h-3.151v-8.46h-3.335V180.7h-7.412V167.825h-4.447v-3.409H858.09V154.191h-1.482v-5.682h-1.853v-4.546h-.927l-1.3-10.226h-.741l-1.3,10.478H849.01v2.905c-9.451,3.409-13.157,6.944-13.157,6.944v27.144H832.7v9.344h-2.222V179.819h-.927v-8.585h-5.559v8.585h-6.484v6.819h-8.155v17.8h-2.224v-2.273h-1.853V165.174H794.342V153.18l-2.594-2.4v-2.9l-3.522-2.275V135.5h-1.482v10.1l-3.151,2.023v-5.809h-1.3v-3.787h-1.728V125.57H758.577v12.459H756.6v3.787h-1.546v38.762h-4.818v-1.389h-2.224v1.768h-8.526v12.5H735.6V174.012h-3.892v-2.4h-3.335V149.771h3.335v-3.537h-7.6v-4.923h-4.447V139.29H705.947v1.768H687.973v36.49h-2.967v26.766h-5v-32.7h-8.648V119.006h-.616v-.61h-.65V117.7h-.925v-3.979h-4.449V117.7h-9.078v.694h-2.687v.61h-2.594l-15.567,10.1v20.206l-33.6-5.731v27.947h-1.978v-2.442H598.1v-5.05h-6.116v5.05h-3.52v2.442h-2.965V153.812h1.667V152.3h-3.706V126.664h-.741v-.755H574v.755h-6.116V152.3h-3.026V139.038h-.741v-.589h-3.212v-1.683H543.86v1.683h-2.965v.589h-.741V152.3H536.2v1.516h1.853v27.9h-2.594V168.582H521.991V134.745h-2.673V117.308h-5.874V104.262h-7.426l-4.437-6.637h-.107l-2.18-22.788h.147v-.955h-3.02l-1.651-31.855h-.612l-1.651,31.855H489.45v.955h.252l-2.18,22.788h-.034l-4.437,6.637H476.2v13.046h-6.159v17.438h-2.673v44.836h-1.782l-6.873-45.452h-2.156V111.321a16.342,16.342,0,0,1-.579-1.869A39.356,39.356,0,0,1,455.239,96h-31.57v38.131h-1.617l-6.873,22.39H402.825V131.6h-.741v-3.369h-9.39V131.6h-6.425v24.915h-3.706v.925h-3.952v1.431h-1.978v18.686h-6.3v-2.146H358.659v2.146H356.99v10.606h-6.3V228.4L469,228.428v-.109l472.664.109Z" transform="translate(344.299 61.817)" fill="#020d21"/>
              <path id="Path_27608-2" data-name="Path 27608" d="M610.426,180.056c.464-7.9.894-19.685-.343-23.678-1.922-6.207-4.879-16.272-4.879-16.272l-20.48,4.986s-.789.422-1.8,3.151.406,20.365.406,20.365l-1.506-.141-1.466-10.676-1.484-.472-.589-2.679-6.817-.753-1.558-9.312-2.285-.753-20.708,4.328-1.229-16.274-2.027-.377-.608-5.174-16.106-1.881-4.352.753-.525,4.891-1.871.1L517.693,176.4l-4.322-.1-.254-17.4-7.307.283-5.523,5.832-.454-8.183-1.916-.377-2.449-24.362-7.335-.379-.018,18.25-2.061-1.881-8.809-.753-2.479-3.952-4.009-.281-.1,24.269-2.416.188-1.04-.47-3.908-.377-.5-23.611-3.6-.658s-.67-5.832-1.046-6.3-1.413-3.2-1.966-3.2-3.516,6.019-3.637,7.055-.345,6.772-.345,6.772l-2.249-.375-2.388.47-5.038-1.788.105-24.269-5.492-.753-1.134-9.5-18.676-2.164-.721,1.694-6.831.281-.48,5.363-1.871.1-.353,5.549-2.13.846h-3.167v6.516h-8.306l-.83,14.538-7.519-.285L383.9,97.662H371.109l.418,58.72-7.16.285s-.038,15.258-.085,23.389H350.659V161.447H318.673v18.609h-4.154c.034-16.316.24-61.586.24-61.586l-11.685.571-1.546,49.315-12.436.569s.141,6.149.208,11.132H270.684V136.235h-9.966v43.821h-8.754l-.462-36.5-9.758-.856-.03-35.062-9.641-4.56-17.329.571.127,31.924-9.838,1.71.073,21.665-15.824.571s-.19,12.588-.331,20.537h-.343l-1.53-28.228-.925-.234-.133-1.136-.941-.055-.17-.721-6.508-.034-.244,1.35-1.9.063-1.786-63.934-2.7-.222-.236-2.564-1.476-.03-.25-5-.779.1-3.006,4.031-.468-1.036-.731.222-.406,1.518-12.751-.733-.147-4.487-.715.046-3.508,6.879s-5.535,6.076-5.626,6.425-2.265,84.039-2.265,84.039l-5.3.335-2.658,1.859-.137,1.544h-1.09c.369-12.987,1.254-45.06,1.033-45.216a36.995,36.995,0,0,0-4.481-.208l.083-2.812-1.181-.042-.273-.876-2.273.25-.264,1.881-1.027.206-.252,1.468-2.12.2-.242.995-.573.115-.355,3.21-.9.123L116,180.056h-8.218v32.7h507.7v-32.7Z" transform="translate(105.822 77.492)" fill="#020d21" fill-rule="evenodd"/>
            </g>
            <path id="Path_27641" data-name="Path 27641" d="M1084.868,174.439l-.006.036.006-.036M1205.594,216.1V248.66H106.677v-61.6l32.541-.246,3.195-37.951,29.842.289.858-30.062,16.774.238.4-11.169,38.341-7.961,34.749,3.922-2.4,49.427,4.392.121,1.2-8.2,37.144-.83-.4,9.15,5.391.355-.2,3.327,3.993.119-.2-18.417,25.761-1.427,11.583,1.189-.3,15.565,7.287.357.7,3.03,4.693.3.7-8.02,36.645.238.3-7.725,5.892-.176.8-2.2,5.192-.3,7.689.535-.2,1.665,7.188-.178,11.883.892v4.812l7.289.3.8-21.387,23.363-.711,11.685,3.86,12.781.059,3.793.832,24.564-.238,2.2,1.011-.1-4.457a44.964,44.964,0,0,1,6.99-.713c3.195,0,14.778.773,14.778.773l.5,4.1,2,.6-.6,20.2,3-.238,1.2-1.9,6.99-.119,4.193,2.557.1,1.839,5.791-.057,2-11.764.9,11.526,1.3.059,6.99,4.4.9-6.831,3.343-.091.252-.86h4.443l.4-4.069,4.394-.3.6,2.555,1.7.178.5,2.555,2.994.178.5,7.723h3.195l.1,12.418h2.893l.6-26.706,8.088-.03.549-1.99,1.1-.446,17.424.03.4-23.526,1.4-1.9,6.99-2.556,18.173.416,2.6,2.14.1,24.18H676.9l.2,6.712h7.339l.25-6.088,1.149-.327.5-1.635,5.39-.059.151,1.486,1.147.087s.05,2.574.05,2.943,10.486.3,10.486.3l.6,8.972,4.992.119.125,4.96,1.048-.046.426,3.565,3.27.073.549.981,3.42.03.05-.951s3.845.091,4.094.151.5-1.694.5-1.694l2.6-.238.25-7.634,4.594-.713,18.072.416.4-11.229,1.3-.535.1-7.961.8-.771-.1-4.754,3.7-1.427s-.5-9.921.6-11.526,2.2-1.306,2.2-1.306a3.669,3.669,0,0,0,.2-1.427,12.452,12.452,0,0,1,1.1-3.327,19.109,19.109,0,0,1,.2-2.612,4.123,4.123,0,0,1,1.4-2.2s.3-.949.7-2.317,2.646-2.346,2.646-2.346a4.136,4.136,0,0,1,.2-1.871,4.756,4.756,0,0,1,1.649-1.99,6.393,6.393,0,0,1,.151-1.962,8.454,8.454,0,0,1,1.447-2.406l2.2-18.684s.4,12.834.7,14.675a18.449,18.449,0,0,1,.1,3.979s.349.178.8,1.07a8.576,8.576,0,0,1,.4,2.941,2.346,2.346,0,0,1,.949,1.128,16.524,16.524,0,0,1,.45,3.032,5.029,5.029,0,0,1,2.1,1.484,6.341,6.341,0,0,1,.547,3.179,8.54,8.54,0,0,1,1.251.951c.648.593.45,3.208.45,3.208s.149.117.747.652.2,3.357.5,3.535.4,2.376.4,2.376a6.956,6.956,0,0,1,.9.713c.2.238-.2,11.7-.2,11.7l5.392.565-.648,23.5,5.84-.059.2,6.09,1.748.03-.075,8.69h1l.426-19.992,2.7-1.455v-2.883l2-.89.9-2.792,6.389.059.4,3.03,6.691.414,7.188-.059,1.7.656,14.328-.089.2.474,7.687-.327,4.893,1.159-.05,3.21,2.445-.061,22.218,1.189v23.111l1.4-.178.5-13.7h6.69l.25-3.771,11.883-.208,9.035.505,0-8.258.8-.416.049-5.822,2.148-.357.45-3.773,2.37-.311.8-1.635,1.572-.711.226-5.852.575-.579v-1.441l.8-.238.9-9.95.349,10.1,1,.268.1,1.187.6.595.3,6.149,1.8.654.2,1.187,2.6.416,0,4.041,2.5.178-.3,19.784,4.094-.119v10.1l4.394.178,12.281.832.1-12.594,5.39.059.3-8.912L959,147.441l23.766,1.722.1,8.02,13.181.416.3,1.249,3.3.119.2-3.922,15.478-.3,7.19.236.1,3.981,13.282,1.011-.1,13.248,6.689.357.1,1.841,1.6.238.1,4.516,3.393.355.6,1.189h6.191l4.592.654.4,1.663,6.79-.206.325-5.2,3.147-.089.549-10.218,14.453-.044s.184,5.65.155,6.157c.1-.5,1.469-6.011,1.469-6.011l3.545-.028,1.548,5.583,4.693.178v1.486l2.295-.059-.4-7.069,1.1-.089.1-5.349,2.947.149.1-1.692h1.548l.25-3.3,11.732.089.2,3.268,3.3.3-.1,1.9,1.9.178.1,2.792,5.392.418v1.99l1.5.206.349,25.636,4.594-.119-.3-11.377,4-.208.3-1.306h5.44l.151,1.217h6.191l.2-1.811,7.489.119.7,23.23,4.891-.119.5-3.862,6.589-.474.2-2.854,20.143.3V216.1Z" transform="translate(930.906 70.761)" fill="#182234" fill-rule="evenodd"/>
            <g id="Group_59323" data-name="Group 59323" transform="translate(633.16 90.588)">
              <g id="Group_59326" data-name="Group 59326">
                <g id="Group_59321" data-name="Group 59321">
                  <g id="Group_59320" data-name="Group 59320" clip-path="url(#clip-path-15)">
                    <path id="Path_27704" data-name="Path 27704" d="M841.638,158.825v-1.754h-2.117v-7.738H836.1l-.172-5.454h.386a1.064,1.064,0,0,0,0-2.128h-.453l-.124-3.95a.108.108,0,0,0-.217,0l-.125,3.95h-.452a1.064,1.064,0,0,0,0,2.128h.385l-.172,5.454h-4.117V134.369s3.384-3.32,3.384-10.178c0-10.051-11.455-13.322-14.962-20.537a7.852,7.852,0,0,1-.42-2.259h.755a.747.747,0,1,0,0-1.494h-.8l-.127-4.015h.5a.747.747,0,1,0,0-1.494h-.548l-.126-4.014h.271a.747.747,0,0,0,0-1.494h-.318l-.087-2.773a.076.076,0,0,0-.153,0l-.088,2.773H818a.747.747,0,0,0,0,1.494h.271l-.126,4.014H817.6a.747.747,0,0,0,0,1.494h.5l-.126,4.015h-.8a.747.747,0,0,0,0,1.494h.755l0,.049a8.021,8.021,0,0,1-.677,2.907c-3.787,6.712-14.666,10.127-14.666,19.84,0,6.859,3.385,10.178,3.385,10.178v14.964h-4.117l-.172-5.454h.386a1.064,1.064,0,0,0,0-2.128h-.453l-.124-3.95a.109.109,0,0,0-.217,0l-.125,3.95h-.452a1.064,1.064,0,0,0,0,2.128h.385l-.172,5.454h-3.422v7.738h-2.117v1.754h2.117V175.81H784.436V161.463a7.21,7.21,0,0,0,1.664-5.005c0-4.942-5.633-6.551-7.358-10.1a3.881,3.881,0,0,1-.206-1.111h.372a.367.367,0,1,0,0-.734h-.395l-.062-1.974h.246a.367.367,0,1,0,0-.734h-.269l-.062-1.974h.133a.367.367,0,1,0,0-.735h-.156l-.043-1.364a.038.038,0,0,0-.075,0l-.043,1.364h-.156a.367.367,0,0,0,0,.735h.133L778.1,141.8h-.269a.367.367,0,1,0,0,.734h.246l-.062,1.974h-.394a.367.367,0,0,0,0,.734h.371v.024a3.947,3.947,0,0,1-.332,1.43c-1.862,3.3-7.212,4.98-7.212,9.756a7.21,7.21,0,0,0,1.664,5.005V175.81h-4.72v-2.093h.714v-2.181h-.714v-1.459h.714V167.9H754.457V151.671a8.154,8.154,0,0,0,1.882-5.661c0-5.589-6.371-7.409-8.321-11.421a4.357,4.357,0,0,1-.233-1.256h.42a.415.415,0,1,0,0-.831h-.446l-.07-2.233h.279a.415.415,0,1,0,0-.831h-.305l-.07-2.232h.151a.415.415,0,0,0,0-.831h-.177l-.048-1.542a.042.042,0,0,0-.084,0l-.049,1.542h-.177a.415.415,0,1,0,0,.831h.151l-.07,2.232h-.3a.415.415,0,1,0,0,.831h.278l-.07,2.233h-.446a.415.415,0,0,0,0,.831h.42v.028a4.466,4.466,0,0,1-.376,1.617c-2.106,3.733-8.156,5.632-8.156,11.033a8.154,8.154,0,0,0,1.882,5.661V167.9H726.342V127.866h3.427v-6.5H726.31c0-.211.032-.416.032-.628,0-12.113-7.5-25.938-18.1-31.81V86.037l-5.91-1.174V74.121h1.929v-1.73h-1.929a4.708,4.708,0,0,0-3.391-4.509c-.143-.672-.259-1.4-.343-2.146a2.081,2.081,0,0,0-.191-3.76l-.035-1.471-.192-8.283-.072-3.082-.192-8.283-.071-3.082-.132-5.721c0-.2-.227-.2-.232,0l-.132,5.721-.072,3.082-.191,8.283-.072,3.082-.192,8.283-.034,1.48a2.082,2.082,0,0,0-.245,3.71c-.13.915-.281,1.768-.365,2.217a4.708,4.708,0,0,0-3.293,4.479h-1.929v1.73h1.929V84.863l-5.91,1.174v2.887c-10.605,5.872-18.1,19.7-18.1,31.81,0,.212.027.417.031.628h-3.459v6.5h3.427V167.9h-13.29V151.671a8.154,8.154,0,0,0,1.882-5.661c0-5.4-6.05-7.3-8.156-11.033a4.458,4.458,0,0,1-.376-1.617v-.028h.42a.415.415,0,1,0,0-.831H648.9l-.07-2.233h.279a.415.415,0,0,0,0-.831h-.3l-.07-2.232h.151a.415.415,0,0,0,0-.831h-.177l-.048-1.542a.043.043,0,0,0-.085,0l-.048,1.542h-.177a.415.415,0,0,0,0,.831h.151l-.07,2.232h-.305a.415.415,0,0,0,0,.831h.279l-.07,2.233h-.446a.415.415,0,0,0,0,.831h.42a4.364,4.364,0,0,1-.233,1.256c-1.951,4.013-8.322,5.832-8.322,11.421a8.154,8.154,0,0,0,1.882,5.661V167.9H627.992v2.181h.714v1.459h-.714v2.181h.714v2.093h-4.721V161.463a7.21,7.21,0,0,0,1.664-5.005c0-4.776-5.349-6.455-7.211-9.756a3.94,3.94,0,0,1-.333-1.43v-.024h.372a.367.367,0,0,0,0-.734h-.395l-.062-1.974h.246a.367.367,0,1,0,0-.734H618l-.062-1.974h.133a.367.367,0,0,0,0-.735h-.157l-.043-1.364a.038.038,0,0,0-.075,0l-.043,1.364h-.157a.367.367,0,0,0,0,.735h.133l-.062,1.974h-.27a.367.367,0,0,0,0,.734h.246l-.062,1.974h-.395a.367.367,0,1,0,0,.734h.371a3.852,3.852,0,0,1-.206,1.111c-1.725,3.548-7.358,5.157-7.358,10.1a7.21,7.21,0,0,0,1.664,5.005V175.81H598.609V158.825h2.117v-1.754h-2.117v-7.738h-3.422l-.172-5.454h.386a1.064,1.064,0,0,0,0-2.128h-.452l-.124-3.95a.109.109,0,0,0-.217,0l-.124,3.95h-.453a1.064,1.064,0,0,0,0,2.128h.385l-.172,5.454h-4.117V134.369s3.384-3.32,3.384-10.178c0-9.713-10.878-13.128-14.665-19.84a8.012,8.012,0,0,1-.677-2.907l0-.049h.755a.747.747,0,0,0,0-1.494h-.8l-.127-4.015h.5a.747.747,0,1,0,0-1.494h-.548l-.127-4.014h.271a.747.747,0,0,0,0-1.494h-.318l-.088-2.773a.076.076,0,0,0-.153,0l-.087,2.773h-.318a.747.747,0,1,0,0,1.494h.271l-.127,4.014h-.548a.747.747,0,1,0,0,1.494h.5L577.1,99.9h-.8a.747.747,0,1,0,0,1.494h.755a7.864,7.864,0,0,1-.42,2.259c-3.507,7.215-14.963,10.487-14.963,20.537,0,6.859,3.384,10.178,3.384,10.178v14.964h-4.118l-.172-5.454h.385a1.064,1.064,0,1,0,0-2.128H560.7l-.124-3.95a.109.109,0,0,0-.217,0l-.124,3.95h-.453a1.064,1.064,0,0,0,0,2.128h.386l-.172,5.454H556.57v7.738h-2.117v1.754h2.117V175.81h-2.117v1.754h2.117V197.41H279.859V143.28h-1.983a6.674,6.674,0,0,1-1.523-4.026H277a.635.635,0,0,0,0-1.271h-.682l-.108-3.415h.426a.635.635,0,1,0,0-1.271h-.466l-.108-3.414h.23a.635.635,0,0,0,0-1.271h-.27l-.074-2.358a.065.065,0,0,0-.13,0l-.074,2.358h-.27a.635.635,0,0,0,0,1.271h.23l-.108,3.414h-.466a.635.635,0,1,0,0,1.271h.426l-.108,3.415h-.682a.635.635,0,1,0,0,1.271h.642l0,.042a6.63,6.63,0,0,1-1.488,3.984h-10.4a7.16,7.16,0,0,1-1.409-4.026h.642a.635.635,0,1,0,0-1.271h-.682l-.108-3.415h.426a.635.635,0,0,0,0-1.271h-.466l-.108-3.414h.23a.635.635,0,0,0,0-1.271h-.27l-.074-2.358a.065.065,0,0,0-.129,0l-.074,2.358h-.27a.635.635,0,1,0,0,1.271h.23l-.108,3.414h-.466a.635.635,0,0,0,0,1.271h.426l-.108,3.415h-.682a.635.635,0,1,0,0,1.271h.642v.042a7.145,7.145,0,0,1-1.374,3.984H243.44V129.545h1.675v-3.539h-1.86a8.637,8.637,0,0,0-6.76-6.688.621.621,0,0,0,.04-.2.635.635,0,0,0-.635-.635h-.682l-.108-3.415h.426a.635.635,0,1,0,0-1.271h-.466l-.108-3.414h.23a.635.635,0,0,0,0-1.271h-.27l-.074-2.358a.065.065,0,0,0-.13,0l-.074,2.358h-.27a.635.635,0,0,0,0,1.271h.23L234.5,113.8h-.466a.635.635,0,1,0,0,1.271h.426l-.108,3.415h-.682a.635.635,0,0,0-.635.635.628.628,0,0,0,.042.21,8.636,8.636,0,0,0-6.724,6.679h-1.859v3.539h1.675V143.28H215.847a7.158,7.158,0,0,1-1.409-4.026h.642a.635.635,0,1,0,0-1.271H214.4l-.108-3.415h.426a.635.635,0,0,0,0-1.271h-.466l-.108-3.414h.23a.635.635,0,1,0,0-1.271h-.27l-.074-2.358a.065.065,0,0,0-.13,0l-.074,2.358h-.27a.635.635,0,0,0,0,1.271h.23l-.108,3.414h-.466a.635.635,0,1,0,0,1.271h.426l-.108,3.415h-.682a.635.635,0,0,0,0,1.271h.642v.042a7.144,7.144,0,0,1-1.374,3.984h-10.2v-31.6a43.814,43.814,0,0,0-41.177-43.732,11.529,11.529,0,0,1-1.847-5.865l0-.068h1.036a1.024,1.024,0,0,0,0-2.049h-1.1l-.174-5.507h.687a1.024,1.024,0,1,0,0-2.049h-.752l-.174-5.506h.371a1.024,1.024,0,1,0,0-2.049h-.436l-.12-3.8a.1.1,0,0,0-.209,0l-.12,3.8h-.436a1.024,1.024,0,0,0,0,2.049h.371l-.174,5.506h-.752a1.024,1.024,0,0,0,0,2.049h.688l-.174,5.507h-1.1a1.024,1.024,0,1,0,0,2.049h1.036a11.526,11.526,0,0,1-1.9,5.932,43.815,43.815,0,0,0-41.179,43.732v31.6h-10.2A7.142,7.142,0,0,1,102.7,139.3v-.042h.642a.635.635,0,1,0,0-1.271h-.683l-.108-3.415h.426a.635.635,0,1,0,0-1.271h-.466l-.108-3.414h.23a.635.635,0,0,0,0-1.271h-.27l-.074-2.358a.065.065,0,0,0-.13,0l-.074,2.358h-.27a.635.635,0,0,0,0,1.271h.23l-.108,3.414h-.466a.635.635,0,1,0,0,1.271h.426l-.108,3.415h-.682a.635.635,0,1,0,0,1.271h.642a7.163,7.163,0,0,1-1.409,4.026H90.027V129.545H91.7v-3.539H89.842a8.637,8.637,0,0,0-6.727-6.679.623.623,0,0,0,.042-.209.635.635,0,0,0-.635-.635H81.84l-.108-3.415h.426a.635.635,0,1,0,0-1.271h-.466l-.108-3.414h.23a.635.635,0,1,0,0-1.271h-.27l-.074-2.358a.065.065,0,0,0-.129,0l-.075,2.358H81a.635.635,0,0,0,0,1.271h.23l-.108,3.414h-.466a.635.635,0,1,0,0,1.271h.426l-.108,3.415h-.682a.635.635,0,0,0-.636.635.616.616,0,0,0,.041.2,8.637,8.637,0,0,0-6.757,6.688h-1.86v3.539h1.675V143.28H56.408a7.144,7.144,0,0,1-1.374-3.984l0-.042h.643a.635.635,0,0,0,0-1.271h-.683l-.108-3.415h.426a.635.635,0,1,0,0-1.271h-.466l-.108-3.414h.23a.635.635,0,0,0,0-1.271H54.7l-.074-2.358a.065.065,0,0,0-.13,0l-.074,2.358h-.27a.635.635,0,0,0,0,1.271h.23l-.108,3.414h-.466a.635.635,0,1,0,0,1.271h.426l-.108,3.415h-.682a.635.635,0,1,0,0,1.271h.642a7.163,7.163,0,0,1-1.409,4.026H35.369a6.632,6.632,0,0,1-1.488-3.984v-.042h.642a.635.635,0,0,0,0-1.271H33.84l-.108-3.415h.426a.635.635,0,1,0,0-1.271h-.466l-.108-3.414h.23a.635.635,0,0,0,0-1.271h-.27l-.074-2.358a.065.065,0,0,0-.13,0l-.074,2.358H33a.635.635,0,0,0,0,1.271h.23l-.108,3.414h-.466a.635.635,0,1,0,0,1.271h.426l-.108,3.415h-.682a.635.635,0,1,0,0,1.271h.642a6.678,6.678,0,0,1-1.523,4.026H29.428V197.41H0v47.344H839.521v-67.19h2.117V175.81h-2.117V158.825Z" transform="translate(0 -21.927)" fill="#1d293e"/>
                    <rect id="Rectangle_13498" data-name="Rectangle 13498" width="156.591" height="84.981" transform="translate(339.543 137.846)" fill="#1f2c43"/>
                    <path id="Path_27705" data-name="Path 27705" d="M1145.265,242.688l-.757-30.2q1.411.085,2.823.2v-2.067q-1.437-.118-2.875-.2l-.766-30.564q1.322.087,2.644.206V178q-1.348-.122-2.7-.209l-.856-34.162q1.112.086,2.224.2V141.76q-1.128-.118-2.257-.2v-9.872q1.128.087,2.257.2v-1.034q-1.137-.119-2.274-.205c.01-.166.017-.332.017-.5,0-3.563-2.355-6.5-5.4-6.942a2.887,2.887,0,0,1-.613-1.69h.259a.256.256,0,1,0,0-.512h-.275l-.043-1.375h.172a.256.256,0,0,0,0-.512h-.188l-.043-1.375h.093a.256.256,0,1,0,0-.512h-.109l-.03-.95a.026.026,0,0,0-.052,0l-.03.95h-.109a.256.256,0,1,0,0,.512h.092l-.043,1.375h-.188a.256.256,0,0,0,0,.512h.172L1136.37,121h-.275a.256.256,0,0,0,0,.512h.259v.017a2.875,2.875,0,0,1-.6,1.675c-3.04.446-5.389,3.382-5.389,6.94,0,.169.007.335.018.5q-1.137.087-2.274.205v1.034q1.128-.118,2.256-.2v9.872q-1.128.087-2.256.2v2.067q1.112-.116,2.224-.2l-.856,34.162q-1.348.089-2.7.209v2.067q1.322-.12,2.644-.206l-.766,30.564q-1.437.087-2.875.2v2.067q1.411-.116,2.823-.2l-.756,30.2-4.492.944v.944h-13.645l-.569-22.712q1.062.064,2.123.151v-1.555q-1.081-.089-2.162-.153l-.576-22.989q.994.066,1.989.155v-1.555q-1.014-.092-2.028-.158l-.644-25.7q.837.065,1.673.152v-1.555q-.848-.089-1.7-.154v-7.425q.848.065,1.7.154v-.778q-.855-.09-1.71-.154c.008-.125.013-.25.013-.377a5.088,5.088,0,0,0-4.063-5.221,2.174,2.174,0,0,1-.461-1.271h.195a.193.193,0,1,0,0-.385h-.207l-.032-1.034h.129a.192.192,0,0,0,0-.385h-.141l-.032-1.034h.07a.193.193,0,0,0,0-.385h-.082l-.022-.714a.02.02,0,0,0-.039,0l-.023.714h-.082a.193.193,0,1,0,0,.385h.07l-.032,1.034h-.141a.192.192,0,1,0,0,.385h.129l-.033,1.034h-.207a.193.193,0,0,0,0,.385h.195v.012a2.162,2.162,0,0,1-.451,1.26,5.09,5.09,0,0,0-4.054,5.22c0,.127.006.252.013.377q-.855.066-1.71.154v.778q.849-.089,1.7-.154v7.425q-.848.065-1.7.154v1.555q.836-.088,1.673-.152l-.644,25.7q-1.014.066-2.028.158v1.555q.995-.09,1.989-.155l-.576,22.989q-1.081.065-2.162.153v1.555q1.062-.087,2.123-.151l-.569,22.712H1074.99v-57.4l.9.1V185.9l-.412-.059v-3.184l-.489-.042V172.27h1.073v-.778h-1.049a3.346,3.346,0,0,1-.688-1.9l-.16-5.062a.026.026,0,0,0-.052,0l-.16,5.079a3.343,3.343,0,0,1-.662,1.887h-1.043v.778h1.073v10.2l-16.168-2.883V169.028h1.073v-.778h-1.054a3.3,3.3,0,0,1-.684-1.9l-.159-5.063a.026.026,0,0,0-.052,0l-.16,5.08a3.3,3.3,0,0,1-.671,1.886h-1.034v.778h1.073v10.707h-4.511v-13.23l1.159.149v-1.546l-1.166-.149a16.74,16.74,0,0,0-6.607-13.277h0a.226.226,0,0,0,.063-.431,16.94,16.94,0,0,1-4.27-2.725,2.877,2.877,0,0,1-.96-2.064h.259a.256.256,0,1,0,0-.512h-.275l-.043-1.375h.172a.256.256,0,0,0,0-.512h-.188l-.043-1.375h.093a.256.256,0,0,0,0-.512h-.109l-.03-.95a.026.026,0,0,0-.052,0l-.03.95h-.109a.256.256,0,0,0,0,.512h.093l-.043,1.375h-.188a.256.256,0,0,0,0,.512h.172l-.043,1.375h-.275a.256.256,0,1,0,0,.512h.259v.017a2.844,2.844,0,0,1-.935,2.038,17.223,17.223,0,0,1-4.3,2.733.226.226,0,0,0,.064.431h.008a19.445,19.445,0,0,0-4.1,4.543V153a37.632,37.632,0,0,0,2.362-13.159c0-14.25-10.161-27.6-21.706-34.613h0v-1.6a2.17,2.17,0,0,0-1.149-1.913,40.76,40.76,0,0,1-9.9-7.177,2.153,2.153,0,0,0-1.533-.636h-.4a3.027,3.027,0,0,0-2.78-3.015l0-.25.006-1.259a1.552,1.552,0,0,0,.012-3.06V85.78a2.511,2.511,0,0,0,0-4.993l-.013-2.4a1.552,1.552,0,0,0-.016-3.065l-.005-1.008c0-.07,0-.14,0-.209a2.634,2.634,0,0,0,.81-.206,2.556,2.556,0,0,0,.856-.616,2.358,2.358,0,0,0,.614-1.9,2.72,2.72,0,0,1-.857,1.654,2.492,2.492,0,0,1-1.426.627q-.006-.748-.02-1.495a.814.814,0,0,0-.044-1.586c-.034-.934-.085-1.868-.164-2.8-.079.934-.13,1.869-.165,2.8a.814.814,0,0,0-.044,1.586q-.014.747-.02,1.494a2.491,2.491,0,0,1-1.425-.627,2.724,2.724,0,0,1-.858-1.654,2.357,2.357,0,0,0,.613,1.9,2.56,2.56,0,0,0,.857.616,2.644,2.644,0,0,0,.81.205q0,.105,0,.209l-.005,1.008a1.552,1.552,0,0,0-.016,3.065l-.012,2.4a2.511,2.511,0,0,0,0,4.993q0,.272,0,.543a1.552,1.552,0,0,0,.012,3.06l.007,1.259,0,.25a3.026,3.026,0,0,0-2.779,3.015h-.4a2.153,2.153,0,0,0-1.533.636,40.765,40.765,0,0,1-9.9,7.177,2.17,2.17,0,0,0-1.149,1.913v1.6h0c-11.544,7.012-21.7,20.362-21.7,34.613a37.63,37.63,0,0,0,2.369,13.179v3.215a19.433,19.433,0,0,0-4.109-4.555h.008a.226.226,0,0,0,.064-.431,17.217,17.217,0,0,1-4.3-2.733,2.844,2.844,0,0,1-.935-2.038v-.017h.259a.256.256,0,0,0,0-.512h-.275l-.043-1.375h.172a.256.256,0,1,0,0-.512h-.187l-.043-1.375h.093a.256.256,0,1,0,0-.512h-.109l-.03-.95a.026.026,0,0,0-.052,0l-.03.95h-.109a.256.256,0,1,0,0,.512h.093l-.044,1.375h-.188a.256.256,0,0,0,0,.512h.172l-.043,1.375h-.275a.256.256,0,0,0,0,.512h.259a2.876,2.876,0,0,1-.96,2.064,16.937,16.937,0,0,1-4.27,2.725.226.226,0,0,0,.063.431h0a16.741,16.741,0,0,0-6.607,13.277l-1.166.149v1.546l1.159-.149v13.23h-4.511V169.028h1.073v-.778h-1.034a3.294,3.294,0,0,1-.671-1.886l-.16-5.08a.026.026,0,0,0-.052,0l-.16,5.063a3.294,3.294,0,0,1-.684,1.9h-1.054v.778h1.074v10.557l-16.168,2.883v-10.2h1.073v-.778h-1.043a3.347,3.347,0,0,1-.662-1.887l-.16-5.079a.026.026,0,0,0-.053,0l-.159,5.062a3.345,3.345,0,0,1-.688,1.9h-1.049v.778h1.073v10.341l-.489.042v3.184l-.412.059v1.383l.9-.1v57.4H891.784l-.569-22.712q1.061.064,2.123.151v-1.555q-1.081-.089-2.162-.153l-.576-22.989q.995.066,1.989.155v-1.555q-1.014-.092-2.028-.158l-.644-25.7q.837.065,1.673.152v-1.555q-.848-.089-1.7-.154v-7.425q.849.065,1.7.154v-.778q-.855-.09-1.71-.154c.007-.125.013-.25.013-.377a5.09,5.09,0,0,0-4.054-5.22,2.162,2.162,0,0,1-.451-1.26v-.012h.194a.193.193,0,0,0,0-.385h-.207l-.032-1.034h.129a.192.192,0,1,0,0-.385h-.141L885.3,150.6h.07a.193.193,0,0,0,0-.385h-.082l-.023-.714a.02.02,0,0,0-.039,0l-.023.714h-.082a.193.193,0,0,0,0,.385h.07l-.033,1.034h-.141a.192.192,0,1,0,0,.385h.129l-.033,1.034h-.206a.193.193,0,0,0,0,.385h.194a2.169,2.169,0,0,1-.461,1.271,5.088,5.088,0,0,0-4.062,5.221c0,.127.005.252.013.377q-.855.066-1.71.154v.778q.849-.089,1.7-.154v7.425q-.849.065-1.7.154v1.555q.836-.088,1.673-.152l-.644,25.7q-1.014.066-2.028.158v1.555q.995-.09,1.989-.155l-.576,22.989q-1.081.065-2.162.153v1.555q1.062-.087,2.123-.151l-.569,22.712H864.824v-.944l-4.491-.944-.757-30.2q1.412.085,2.823.2v-2.067q-1.437-.118-2.875-.2l-.766-30.564q1.322.087,2.645.206V178q-1.349-.122-2.7-.209l-.856-34.162q1.112.086,2.224.2V141.76q-1.128-.118-2.256-.2v-9.872q1.128.087,2.256.2v-1.034q-1.137-.119-2.274-.205c.01-.166.018-.332.018-.5,0-3.558-2.349-6.494-5.39-6.94a2.874,2.874,0,0,1-.6-1.675v-.017h.259a.256.256,0,0,0,0-.512h-.275l-.044-1.375h.172a.256.256,0,0,0,0-.512h-.188l-.043-1.375h.093a.256.256,0,0,0,0-.512h-.109l-.03-.95a.026.026,0,0,0-.052,0l-.03.95h-.109a.256.256,0,0,0,0,.512h.093l-.043,1.375h-.188a.256.256,0,1,0,0,.512h.171L851.462,121h-.275a.256.256,0,1,0,0,.512h.259a2.887,2.887,0,0,1-.613,1.69c-3.046.44-5.4,3.379-5.4,6.942,0,.169.007.335.017.5q-1.137.087-2.274.205v1.034q1.128-.118,2.256-.2v9.872q-1.128.087-2.256.2v2.067q1.112-.116,2.224-.2l-.856,34.162q-1.348.089-2.7.209v2.067q1.322-.12,2.645-.206l-.766,30.564q-1.437.087-2.875.2v2.067q1.411-.116,2.823-.2l-.757,30.2-4.491.944V269.42h311.33V243.632Zm-39.7-78.14a2.393,2.393,0,0,1,.65-1.664c.3.108.6.988.65,1.664v3.335h-1.3Zm-4.011-.281a2.294,2.294,0,0,1,1.612-1.8,2.388,2.388,0,0,1,1.612,1.8v3.616h-3.224Zm-2.088.281a2.392,2.392,0,0,1,.65-1.664c.3.108.6.988.65,1.664v3.335h-1.3Zm-211.83,0c.047-.676.35-1.556.65-1.664a2.393,2.393,0,0,1,.65,1.664v3.335h-1.3Zm-4.011-.281a2.386,2.386,0,0,1,1.612-1.8,2.294,2.294,0,0,1,1.612,1.8v3.616h-3.224Zm-2.088.281c.047-.676.35-1.556.65-1.664a2.392,2.392,0,0,1,.65,1.664v3.335h-1.3ZM854.815,136.29c.063-.9.465-2.069.864-2.212a3.183,3.183,0,0,1,.865,2.212v4.433h-1.729Zm-5.333-.375a3.173,3.173,0,0,1,2.143-2.4,3.05,3.05,0,0,1,2.143,2.4v4.808h-4.286Zm-2.776.375c.063-.9.465-2.069.864-2.212a3.181,3.181,0,0,1,.864,2.212v4.433h-1.729Zm212.755,63.925a8.835,8.835,0,0,1,5.261-7.211c2.428.468,4.88,4.283,5.261,7.211v14.448h-10.521Zm-14.408-26.774a2.428,2.428,0,1,1,4.642,0v6.294h-4.642ZM1036,172.98a4.285,4.285,0,0,1,3.011-3.371,4.459,4.459,0,0,1,3.011,3.371v6.756H1036Zm4.677,19.166c3.591.487,7.216,4.453,7.779,7.5v15.021h-15.557V199.642c0-2.588,3.417-6.385,7.778-7.5m-12.354-18.7a2.428,2.428,0,1,1,4.642,0v6.294h-4.642Zm-72.879,0a2.428,2.428,0,1,1,4.642,0v6.294h-4.642Zm-9.058-.461a4.459,4.459,0,0,1,3.011-3.371,4.286,4.286,0,0,1,3.012,3.371v6.756h-6.023Zm1.346,19.166c4.362,1.112,7.779,4.909,7.779,7.5v15.021H939.949V199.642c.562-3.044,4.187-7.01,7.778-7.5m-9.023-18.7a2.428,2.428,0,1,1,4.642,0v6.294H938.7Zm-20.287,26.774c.38-2.928,2.832-6.742,5.261-7.211a8.835,8.835,0,0,1,5.261,7.211v14.448H918.417Zm0,44.361V229.555c.38-3.044,2.832-7.01,5.261-7.5a9.171,9.171,0,0,1,5.261,7.5v15.021Zm21.531,0V229.555c.562-3.044,4.187-7.01,7.778-7.5,4.362,1.113,7.779,4.909,7.779,7.5v15.021Zm36.324,0V204.005c0-8.265,8.964-10.774,17.927-15.939,8.964,5.166,17.927,7.674,17.927,15.939v40.571Zm56.621,0V229.555c0-2.588,3.417-6.384,7.778-7.5,3.591.487,7.216,4.453,7.779,7.5v15.021Zm26.567,0V229.555a9.171,9.171,0,0,1,5.261-7.5c2.428.487,4.88,4.453,5.261,7.5v15.021Zm80.286-108.286a3.181,3.181,0,0,1,.864-2.212c.4.144.8,1.314.865,2.212v4.433h-1.729Zm-5.333-.375a3.05,3.05,0,0,1,2.143-2.4,3.173,3.173,0,0,1,2.143,2.4v4.808h-4.286Zm-2.776.375a3.181,3.181,0,0,1,.864-2.212c.4.144.8,1.314.865,2.212v4.433h-1.729Z" transform="translate(-576.309 -46.593)" fill="#364560"/>
                    <rect id="Rectangle_13499" data-name="Rectangle 13499" width="85.228" height="90.48" transform="translate(91.04 126.936)" fill="#1f2c43"/>
                    <path id="Path_27709" data-name="Path 27709" d="M291.206,406.027v95.891h24.133V470.937c0-8.52,9.241-11.107,18.481-16.432,9.241,5.325,18.481,7.912,18.481,16.432v30.981h24.133V406.027Zm64.754,2.537h3.56v4.187h-3.56Zm-5.98,0h3.56v4.187h-3.56Zm0,8.213a1.916,1.916,0,0,1,.59-1.383l1.19-1.14,1.19,1.14a1.916,1.916,0,0,1,.59,1.383v3.591h-3.56ZM344,408.564h3.56v4.187H344Zm0,8.213a1.916,1.916,0,0,1,.59-1.383l1.19-1.14,1.19,1.14a1.917,1.917,0,0,1,.59,1.383v3.591H344Zm-5.98-8.213h3.56v4.187h-3.56Zm-5.98,0h3.56v4.187h-3.56Zm0,8.213a1.915,1.915,0,0,1,.59-1.383l1.19-1.14,1.19,1.14a1.916,1.916,0,0,1,.59,1.383v3.591h-3.56Zm-11.961-8.213h3.56v4.187h-3.56Zm0,8.213a1.916,1.916,0,0,1,.591-1.383l1.19-1.14,1.19,1.14a1.916,1.916,0,0,1,.59,1.383v3.591h-3.56Zm-5.98-8.213h3.56v4.187H314.1Zm0,8.213a1.915,1.915,0,0,1,.59-1.383l1.19-1.14,1.19,1.14a1.917,1.917,0,0,1,.59,1.383v3.591H314.1Zm-11.96-8.213h3.56v4.187h-3.56Zm0,8.213a1.916,1.916,0,0,1,.59-1.383l1.19-1.14,1.19,1.14a1.915,1.915,0,0,1,.59,1.383v3.591h-3.56Zm7.987,23.719h-5.531v-5.579a2.977,2.977,0,0,1,.917-2.149L307.36,431l1.848,1.771a2.977,2.977,0,0,1,.917,2.149Zm1.553-20.128h-3.56v-3.591a1.915,1.915,0,0,1,.59-1.383l1.19-1.14,1.19,1.14a1.916,1.916,0,0,1,.59,1.383Zm0-7.617h-3.56v-4.187h3.56Zm1.1,27.745v-5.579a2.977,2.977,0,0,1,.917-2.149L315.544,431l1.849,1.771a2.977,2.977,0,0,1,.917,2.149V440.5Zm13.716,0h-5.531v-5.579a2.977,2.977,0,0,1,.917-2.149L323.729,431l1.848,1.771a2.977,2.977,0,0,1,.917,2.149Zm3.125-20.128h-3.56v-3.591a1.915,1.915,0,0,1,.591-1.383l1.19-1.14,1.19,1.14a1.916,1.916,0,0,1,.59,1.383Zm0-7.617h-3.56v-4.187h3.56Zm4.2,26.083a3.918,3.918,0,1,1,3.919-3.918,3.918,3.918,0,0,1-3.919,3.918m4.2-22.056a1.916,1.916,0,0,1,.59-1.383l1.19-1.14,1.19,1.14a1.915,1.915,0,0,1,.59,1.383v3.591h-3.56Zm3.125,18.14a2.977,2.977,0,0,1,.917-2.149L343.911,431l1.848,1.771a2.977,2.977,0,0,1,.917,2.149V440.5h-5.531Zm13.715,5.579H349.33v-5.579a2.976,2.976,0,0,1,.917-2.149L352.1,431l1.848,1.771a2.976,2.976,0,0,1,.917,2.149Zm1.1-23.719a1.917,1.917,0,0,1,.59-1.383l1.19-1.14,1.19,1.14a1.915,1.915,0,0,1,.591,1.383v3.591h-3.56Zm1.553,18.14a2.977,2.977,0,0,1,.917-2.149L360.28,431l1.848,1.771a2.977,2.977,0,0,1,.917,2.149V440.5h-5.531Zm7.987-14.549h-3.56v-3.591a1.915,1.915,0,0,1,.59-1.383l1.19-1.14,1.19,1.14a1.915,1.915,0,0,1,.59,1.383Zm0-7.617h-3.56v-4.187h3.56Z" transform="translate(-200.166 -279.091)" fill="#364560"/>
                    <path id="Path_27710" data-name="Path 27710" d="M549.673,280.149v-2.422h-.6v-5.969l-5.314-.641V255.6a6.019,6.019,0,0,1,.3-1.858h2.076v-2.147h2.043v-2.422h-1.12V238.151l-5.027-.641v-6.826a6.73,6.73,0,0,1,.418-2.3H544.5v-2.147h1.638v-2.422h-.656v-10.8l-2.585-.641v-7.832a6.062,6.062,0,0,0,1.2-3.983c0-3.533-3.846-5.578-5.491-6.291a2.939,2.939,0,0,1-.536-1.574v-.018h.265a.262.262,0,0,0,0-.524h-.281l-.045-1.409h.176a.262.262,0,0,0,0-.524H538l-.044-1.409h.095a.262.262,0,0,0,0-.524h-.112l-.031-.973a.027.027,0,0,0-.054,0l-.03.973h-.112a.262.262,0,0,0,0,.524h.1l-.044,1.409h-.193a.262.262,0,0,0,0,.524h.176l-.044,1.409h-.281a.262.262,0,1,0,0,.524h.265a2.941,2.941,0,0,1-.551,1.592c-1.645.714-5.491,2.758-5.491,6.291a6.061,6.061,0,0,0,1.2,3.983v7.832l-2.585.641v10.8H529.6v2.422h1.638v2.147h2.047a6.731,6.731,0,0,1,.418,2.3v6.826l-5.026.641v11.021h-1.12v2.422H529.6v2.147h2.075a6.019,6.019,0,0,1,.3,1.858v15.517l-5.314.641v5.969h-.6v2.422h.6V292.09h-.6v2.422h2.339v2.147h1.035a8.36,8.36,0,0,1,.386,2.476v52.427h16.085V299.135a8.357,8.357,0,0,1,.386-2.476h1.035v-2.147h2.339V292.09h-.6V280.149Z" transform="translate(-361.603 -128.736)" fill="#364560"/>
                    <path id="Path_27711" data-name="Path 27711" d="M277.057,280.149v-2.422h-.6v-5.969l-5.314-.641V255.6a6.01,6.01,0,0,1,.3-1.858h2.075v-2.147h2.044v-2.422h-1.12V238.151l-5.027-.641v-6.826a6.724,6.724,0,0,1,.418-2.3h2.046v-2.147h1.638v-2.422h-.656v-10.8l-2.585-.641v-7.832a6.062,6.062,0,0,0,1.2-3.983c0-3.533-3.846-5.578-5.491-6.291a2.938,2.938,0,0,1-.536-1.574v-.018h.265a.262.262,0,0,0,0-.524h-.282l-.044-1.409h.176a.262.262,0,0,0,0-.524h-.193l-.044-1.409h.095a.262.262,0,1,0,0-.524h-.111l-.031-.973a.027.027,0,0,0-.054,0l-.031.973h-.112a.262.262,0,0,0,0,.524h.1l-.044,1.409h-.192a.262.262,0,0,0,0,.524h.176l-.044,1.409H264.8a.262.262,0,1,0,0,.524h.265a2.946,2.946,0,0,1-.551,1.592c-1.645.714-5.491,2.758-5.491,6.291a6.062,6.062,0,0,0,1.2,3.983v7.832l-2.585.641v10.8h-.656v2.422h1.638v2.147h2.046a6.724,6.724,0,0,1,.418,2.3v6.826l-5.026.641v11.021h-1.12v2.422h2.044v2.147h2.075a6.019,6.019,0,0,1,.3,1.858v15.517l-5.314.641v5.969h-.6v2.422h.6V292.09h-.6v2.422h2.339v2.147h1.035a8.359,8.359,0,0,1,.386,2.476v52.427H273.3V299.135a8.349,8.349,0,0,1,.386-2.476h1.035v-2.147h2.339V292.09h-.6V280.149Z" transform="translate(-174.215 -128.736)" fill="#364560"/>
                    <rect id="Rectangle_13500" data-name="Rectangle 13500" width="839.521" height="7.373" transform="translate(0 215.453)" fill="#2a3852"/>
                    <path id="Path_27712" data-name="Path 27712" d="M1335.723,24.991V.238c0-.317.581-.317.581,0V24.991c0,.317-.581.317-.581,0" transform="translate(-918.136 0)" fill="#364560"/>
                    <path id="Path_27713" data-name="Path 27713" d="M1341.008,6.6c2.516,1.7,4.248,1.778,5.989.981s3.334-.918,5.751.681a10.947,10.947,0,0,0,4.879,1.234s-3.407-.651-5.173-2.556-5.159-1.162-6.135-1.162-1.906-.279-4.787-2.556a5.98,5.98,0,0,0-5.81-1.022v3.47a7.232,7.232,0,0,1,5.285.93" transform="translate(-918.136 -1.273)" fill="#354562"/>
                    <path id="Path_27714" data-name="Path 27714" d="M1342.107,18.5c3.557,1.734,4.9-3.23,9.533-1.606,3.838,1.344,5.987.654,5.987.654a10.949,10.949,0,0,1-4.879-1.235c-2.417-1.6-4.01-1.477-5.751-.681s-3.474.714-5.989-.981a7.231,7.231,0,0,0-5.285-.93v3.47s2-.826,6.384,1.308" transform="translate(-918.136 -9.328)" fill="#354562"/>
                    <path id="Path_27715" data-name="Path 27715" d="M1351.641,23.474c-4.637-1.624-5.976,3.34-9.533,1.606-4.38-2.134-6.384-1.308-6.384-1.308v3.471c2.975-1.394,5.112.7,8.041.7s4.553-4.168,7.808-3.44c4.465,1,6.056-.372,6.056-.372s-2.15.69-5.987-.654" transform="translate(-918.136 -15.908)" fill="#354562"/>
                    <g id="Group_59313" data-name="Group 59313" transform="translate(422.954 2.272)" style="mix-blend-mode: multiply;isolation: isolate">
                      <g id="Group_59312" data-name="Group 59312">
                        <g id="Group_59311" data-name="Group 59311" clip-path="url(#clip-path-16)">
                          <path id="Path_27716" data-name="Path 27716" d="M1359.891,9.37c-.773.036-1.426.128-1.772.128-.927,0-1.815-.255-4.369-2.23a12.126,12.126,0,0,0,.259,9.58,7.287,7.287,0,0,0,1.554.18c1.506,0,2.668-1.1,3.884-2.074a8.408,8.408,0,0,1-.162-1.016,10.277,10.277,0,0,1,.606-4.568" transform="translate(-1352.889 -7.268)" fill="#f4f4f4"/>
                          <path id="Path_27717" data-name="Path 27717" d="M1394.606,21.185a11.452,11.452,0,0,1-4.936-2.324c-.023.168-.042.335-.058.5a12.25,12.25,0,0,0-.053,2.388c3.694.593,5.047-.563,5.047-.563" transform="translate(-1378.069 -15.237)" fill="#f4f4f4"/>
                        </g>
                      </g>
                    </g>
                    <path id="Path_27718" data-name="Path 27718" d="M2230.292,40.222a.49.49,0,0,1-.49-.49V18.615a.49.49,0,1,1,.98,0V39.732a.49.49,0,0,1-.49.49" transform="translate(-1532.699 -12.459)" fill="#243757"/>
                    <path id="Path_27719" data-name="Path 27719" d="M2234.758,21.789c2.458,1.943,3.251,2.181,4.084,2.181s3.727-.635,5.234.991a9.39,9.39,0,0,0,4.413,2.181s-1.357,1.17-5.167.317c-2.777-.621-4.164,2.934-6.662,2.934s-4.322-1.784-6.86-.595V20.917a5.1,5.1,0,0,1,4.956.872" transform="translate(-1532.699 -14.175)" fill="#243757"/>
                    <g id="Group_59316" data-name="Group 59316" transform="translate(701.683 7.892)" style="mix-blend-mode: multiply;isolation: isolate">
                      <g id="Group_59315" data-name="Group 59315">
                        <g id="Group_59314" data-name="Group 59314" clip-path="url(#clip-path-17)">
                          <path id="Path_27720" data-name="Path 27720" d="M2250.42,27.038c-.66.031-1.216.109-1.512.109-.791,0-1.548-.218-3.728-1.9a10.346,10.346,0,0,0,.221,8.173,6.224,6.224,0,0,0,1.325.153c1.285,0,2.276-.94,3.314-1.769a7.119,7.119,0,0,1-.139-.867,8.767,8.767,0,0,1,.517-3.9" transform="translate(-2244.447 -25.244)" fill="#d9e4f8"/>
                          <path id="Path_27721" data-name="Path 27721" d="M2280.037,37.117a9.765,9.765,0,0,1-4.211-1.983c-.02.143-.037.286-.05.426a10.431,10.431,0,0,0-.045,2.037c3.151.506,4.306-.48,4.306-.48" transform="translate(-2265.929 -32.042)" fill="#d9e4f8"/>
                        </g>
                      </g>
                    </g>
                    <path id="Path_27722" data-name="Path 27722" d="M504.691,52.214a.49.49,0,0,1-.49-.49V30.607a.49.49,0,0,1,.98,0V51.724a.49.49,0,0,1-.49.49" transform="translate(-346.573 -20.702)" fill="#1c293e"/>
                    <path id="Path_27723" data-name="Path 27723" d="M509.157,33.781c2.458,1.943,3.251,2.181,4.084,2.181s3.727-.635,5.234.991a9.389,9.389,0,0,0,4.413,2.181s-1.357,1.17-5.167.317c-2.777-.621-4.164,2.934-6.661,2.934s-4.322-1.784-6.86-.595V32.909a5.1,5.1,0,0,1,4.956.872" transform="translate(-346.573 -22.418)" fill="#1c293e"/>
                    <g id="Group_59319" data-name="Group 59319" transform="translate(162.207 11.641)" style="mix-blend-mode: multiply;isolation: isolate">
                      <g id="Group_59318" data-name="Group 59318">
                        <g id="Group_59317" data-name="Group 59317" clip-path="url(#clip-path-18)">
                          <path id="Path_27724" data-name="Path 27724" d="M524.819,39.029c-.66.031-1.216.109-1.512.109-.791,0-1.548-.218-3.727-1.9a10.343,10.343,0,0,0,.221,8.173,6.224,6.224,0,0,0,1.326.153c1.285,0,2.276-.94,3.314-1.769a7.1,7.1,0,0,1-.138-.867,8.769,8.769,0,0,1,.517-3.9" transform="translate(-518.845 -37.235)" fill="#bcd3f8"/>
                          <path id="Path_27725" data-name="Path 27725" d="M554.436,49.108a9.766,9.766,0,0,1-4.211-1.983c-.02.143-.037.286-.05.426a10.426,10.426,0,0,0-.045,2.037c3.151.506,4.306-.48,4.306-.48" transform="translate(-540.327 -44.033)" fill="#bcd3f8"/>
                        </g>
                      </g>
                    </g>
                  </g>
                </g>
              </g>
            </g>
          </g>
          <g id="Group_59327" data-name="Group 59327" transform="translate(582.66 4795.609)">
            <path id="Path_27706" data-name="Path 27706" d="M2147.6,497.978h.05l3.906-16.624a46.778,46.778,0,0,0-12.275,3.162q-8.973-28.824-34.222-42.963l3.534,15.809c-4.2-9.344-9.8-16.831-17.483-21.574-6.891-12.995-16.212-22.386-27.9-28.27v9.3a26.719,26.719,0,0,0-5.021-8.481,27.04,27.04,0,0,0-5.022,8.481v-9.3c-11.686,5.884-21.006,15.275-27.9,28.27-7.679,4.743-13.283,12.23-17.483,21.574l3.534-15.809q-25.219,14.165-34.221,42.963a33.337,33.337,0,0,0-12.275-3.162l3.906,16.624v3.856h-3.1v12.913h185.077V501.834h-3.1Z" transform="translate(-1350.564 -280.115)" fill="#2a3852"/>
            <path id="Path_27707" data-name="Path 27707" d="M1980.05,632.563l2.643,11.4h13.594a25.248,25.248,0,0,0-16.237-11.4" transform="translate(-1360.438 -426.101)" fill="#394965"/>
            <path id="Path_27708" data-name="Path 27708" d="M2451.157,632.563l-2.643,11.4H2434.92a25.25,25.25,0,0,1,16.237-11.4" transform="translate(-1655.509 -426.101)" fill="#394965"/>
          </g>
        </g>
      </g>
    </g>
  </g>
</svg>
