<svg xmlns="http://www.w3.org/2000/svg" xmlns:xlink="http://www.w3.org/1999/xlink" width="1920.465" height="1092.241" viewBox="0 0 1920.465 1092.241">
  <defs>
    <clipPath id="clip-path">
      <rect x="621" width="1920.465" height="1092.241" fill="none"/>
    </clipPath>
    <clipPath id="clip-path-2">
      <rect id="Rectangle_1908" data-name="Rectangle 1908" width="613.779" height="76.152" fill="#192336"/>
    </clipPath>
    <clipPath id="clip-path-3">
      <rect id="Rectangle_1907" data-name="Rectangle 1907" width="613.779" height="76.153" fill="#192336"/>
    </clipPath>
    <clipPath id="clip-path-4">
      <rect id="Rectangle_1904" data-name="Rectangle 1904" width="91.67" height="50.456" fill="#192336"/>
    </clipPath>
    <clipPath id="clip-path-5">
      <rect id="Rectangle_1905" data-name="Rectangle 1905" width="47.715" height="26.263" fill="#192336"/>
    </clipPath>
    <clipPath id="clip-path-6">
      <rect id="Rectangle_1906" data-name="Rectangle 1906" width="165.456" height="76.153" fill="#192336"/>
    </clipPath>
    <clipPath id="clip-path-7">
      <rect id="Rectangle_1908-2" data-name="Rectangle 1908" width="1145.425" height="142.114" fill="#192336"/>
    </clipPath>
    <clipPath id="clip-path-8">
      <rect id="Rectangle_1905-2" data-name="Rectangle 1905" width="89.044" height="49.011" fill="#192336"/>
    </clipPath>
    <clipPath id="clip-path-9">
      <rect id="Rectangle_1906-2" data-name="Rectangle 1906" width="308.772" height="142.115" fill="#192336"/>
    </clipPath>
  </defs>
  <g id="usa" transform="translate(-621)" clip-path="url(#clip-path)" style="isolation: isolate">
    <g id="Group_59302" data-name="Group 59302" transform="translate(620.813 -3938)">
      <rect id="Rectangle_95" data-name="Rectangle 95" width="1920" height="1080" transform="translate(0 3938)" fill="#111827"/>
      <g id="Contact" transform="translate(0 -1435)">
        <g id="Group_20274" data-name="Group 20274" transform="translate(-216.5 6145.82)">
          <g id="Group_20299" data-name="Group 20299">
            <path id="Path_27607" data-name="Path 27607" d="M941.852,204.314H938.7v-2.9h-1.48V203.3h-1.853v-2.776H932.03v-2.905h-6.486v-8.333L921.467,185H905.159V170.982h-1.667v-1.389H888.3V170.6h-1.482v3.282h-5.745v25.252h-3.151v-8.46h-3.335V180.7h-7.412V167.825h-4.447v-3.409H858.09V154.191h-1.482v-5.682h-1.853v-4.546h-.927l-1.3-10.226h-.741l-1.3,10.478H849.01v2.905c-9.451,3.409-13.157,6.944-13.157,6.944v27.144H832.7v9.344h-2.222V179.819h-.927v-8.585h-5.559v8.585h-6.484v6.819h-8.155v17.8h-2.224v-2.273h-1.853V165.174H794.342V153.18l-2.594-2.4v-2.9l-3.522-2.275V135.5h-1.482v10.1l-3.151,2.023v-5.809h-1.3v-3.787h-1.728V125.57H758.577v12.459H756.6v3.787h-1.546v38.762h-4.818v-1.389h-2.224v1.768h-8.526v12.5H735.6V174.012h-3.892v-2.4h-3.335V149.771h3.335v-3.537h-7.6v-4.923h-4.447V139.29H705.947v1.768H687.973v36.49h-2.967v26.766h-5v-32.7h-8.648V119.006h-.616v-.61h-.65V117.7h-.925v-3.979h-4.449V117.7h-9.078v.694h-2.687v.61h-2.594l-15.567,10.1v20.206l-33.6-5.731v27.947h-1.978v-2.442H598.1v-5.05h-6.116v5.05h-3.52v2.442h-2.965V153.812h1.667V152.3h-3.706V126.664h-.741v-.755H574v.755h-6.116V152.3h-3.026V139.038h-.741v-.589h-3.212v-1.683H543.86v1.683h-2.965v.589h-.741V152.3H536.2v1.516h1.853v27.9h-2.594V168.582H521.991V134.745h-2.673V117.308h-5.874V104.262h-7.426l-4.437-6.637h-.107l-2.18-22.788h.147v-.955h-3.02l-1.651-31.855h-.612l-1.651,31.855H489.45v.955h.252l-2.18,22.788h-.034l-4.437,6.637H476.2v13.046h-6.159v17.438h-2.673v44.836h-1.782l-6.873-45.452h-2.156V111.321a16.342,16.342,0,0,1-.579-1.869A39.356,39.356,0,0,1,455.239,96h-31.57v38.131h-1.617l-6.873,22.39H402.825V131.6h-.741v-3.369h-9.39V131.6h-6.425v24.915h-3.706v.925h-3.952v1.431h-1.978v18.686h-6.3v-2.146H358.659v2.146H356.99v10.606h-6.3V228.4L469,228.428v-.109l472.664.109Z" transform="translate(344.299 41.26)" fill="#020d21"/>
            <path id="Path_27608" data-name="Path 27608" d="M610.426,180.056c.464-7.9.894-19.685-.343-23.678-1.922-6.207-4.879-16.272-4.879-16.272l-20.48,4.986s-.789.422-1.8,3.151.406,20.365.406,20.365l-1.506-.141-1.466-10.676-1.484-.472-.589-2.679-6.817-.753-1.558-9.312-2.285-.753-20.708,4.328-1.229-16.274-2.027-.377-.608-5.174-16.106-1.881-4.352.753-.525,4.891-1.871.1L517.693,176.4l-4.322-.1-.254-17.4-7.307.283-5.523,5.832-.454-8.183-1.916-.377-2.449-24.362-7.335-.379-.018,18.25-2.061-1.881-8.809-.753-2.479-3.952-4.009-.281-.1,24.269-2.416.188-1.04-.47-3.908-.377-.5-23.611-3.6-.658s-.67-5.832-1.046-6.3-1.413-3.2-1.966-3.2-3.516,6.019-3.637,7.055-.345,6.772-.345,6.772l-2.249-.375-2.388.47-5.038-1.788.105-24.269-5.492-.753-1.134-9.5-18.676-2.164-.721,1.694-6.831.281-.48,5.363-1.871.1-.353,5.549-2.13.846h-3.167v6.516h-8.306l-.83,14.538-7.519-.285L383.9,97.662H371.109l.418,58.72-7.16.285s-.038,15.258-.085,23.389H350.659V161.447H318.673v18.609h-4.154c.034-16.316.24-61.586.24-61.586l-11.685.571-1.546,49.315-12.436.569s.141,6.149.208,11.132H270.684V136.235h-9.966v43.821h-8.754l-.462-36.5-9.758-.856-.03-35.062-9.641-4.56-17.329.571.127,31.924-9.838,1.71.073,21.665-15.824.571s-.19,12.588-.331,20.537h-.343l-1.53-28.228-.925-.234-.133-1.136-.941-.055-.17-.721-6.508-.034-.244,1.35-1.9.063-1.786-63.934-2.7-.222-.236-2.564-1.476-.03-.25-5-.779.1-3.006,4.031-.468-1.036-.731.222-.406,1.518-12.751-.733-.147-4.487-.715.046-3.508,6.879s-5.535,6.076-5.626,6.425-2.265,84.039-2.265,84.039l-5.3.335-2.658,1.859-.137,1.544h-1.09c.369-12.987,1.254-45.06,1.033-45.216a36.995,36.995,0,0,0-4.481-.208l.083-2.812-1.181-.042-.273-.876-2.273.25-.264,1.881-1.027.206-.252,1.468-2.12.2-.242.995-.573.115-.355,3.21-.9.123L116,180.056h-8.218v32.7h507.7v-32.7Z" transform="translate(105.822 77.492)" fill="#020d21" fill-rule="evenodd"/>
          </g>
          <g id="Group_20300" data-name="Group 20300" transform="translate(1198 23.168)">
            <path id="Path_27607-2" data-name="Path 27607" d="M941.852,204.314H938.7v-2.9h-1.48V203.3h-1.853v-2.776H932.03v-2.905h-6.486v-8.333L921.467,185H905.159V170.982h-1.667v-1.389H888.3V170.6h-1.482v3.282h-5.745v25.252h-3.151v-8.46h-3.335V180.7h-7.412V167.825h-4.447v-3.409H858.09V154.191h-1.482v-5.682h-1.853v-4.546h-.927l-1.3-10.226h-.741l-1.3,10.478H849.01v2.905c-9.451,3.409-13.157,6.944-13.157,6.944v27.144H832.7v9.344h-2.222V179.819h-.927v-8.585h-5.559v8.585h-6.484v6.819h-8.155v17.8h-2.224v-2.273h-1.853V165.174H794.342V153.18l-2.594-2.4v-2.9l-3.522-2.275V135.5h-1.482v10.1l-3.151,2.023v-5.809h-1.3v-3.787h-1.728V125.57H758.577v12.459H756.6v3.787h-1.546v38.762h-4.818v-1.389h-2.224v1.768h-8.526v12.5H735.6V174.012h-3.892v-2.4h-3.335V149.771h3.335v-3.537h-7.6v-4.923h-4.447V139.29H705.947v1.768H687.973v36.49h-2.967v26.766h-5v-32.7h-8.648V119.006h-.616v-.61h-.65V117.7h-.925v-3.979h-4.449V117.7h-9.078v.694h-2.687v.61h-2.594l-15.567,10.1v20.206l-33.6-5.731v27.947h-1.978v-2.442H598.1v-5.05h-6.116v5.05h-3.52v2.442h-2.965V153.812h1.667V152.3h-3.706V126.664h-.741v-.755H574v.755h-6.116V152.3h-3.026V139.038h-.741v-.589h-3.212v-1.683H543.86v1.683h-2.965v.589h-.741V152.3H536.2v1.516h1.853v27.9h-2.594V168.582H521.991V134.745h-2.673V117.308h-5.874V104.262h-7.426l-4.437-6.637h-.107l-2.18-22.788h.147v-.955h-3.02l-1.651-31.855h-.612l-1.651,31.855H489.45v.955h.252l-2.18,22.788h-.034l-4.437,6.637H476.2v13.046h-6.159v17.438h-2.673v44.836h-1.782l-6.873-45.452h-2.156V111.321a16.342,16.342,0,0,1-.579-1.869A39.356,39.356,0,0,1,455.239,96h-31.57v38.131h-1.617l-6.873,22.39H402.825V131.6h-.741v-3.369h-9.39V131.6h-6.425v24.915h-3.706v.925h-3.952v1.431h-1.978v18.686h-6.3v-2.146H358.659v2.146H356.99v10.606h-6.3V228.4L469,228.428v-.109l472.664.109Z" transform="translate(344.299 61.817)" fill="#020d21"/>
            <path id="Path_27608-2" data-name="Path 27608" d="M610.426,180.056c.464-7.9.894-19.685-.343-23.678-1.922-6.207-4.879-16.272-4.879-16.272l-20.48,4.986s-.789.422-1.8,3.151.406,20.365.406,20.365l-1.506-.141-1.466-10.676-1.484-.472-.589-2.679-6.817-.753-1.558-9.312-2.285-.753-20.708,4.328-1.229-16.274-2.027-.377-.608-5.174-16.106-1.881-4.352.753-.525,4.891-1.871.1L517.693,176.4l-4.322-.1-.254-17.4-7.307.283-5.523,5.832-.454-8.183-1.916-.377-2.449-24.362-7.335-.379-.018,18.25-2.061-1.881-8.809-.753-2.479-3.952-4.009-.281-.1,24.269-2.416.188-1.04-.47-3.908-.377-.5-23.611-3.6-.658s-.67-5.832-1.046-6.3-1.413-3.2-1.966-3.2-3.516,6.019-3.637,7.055-.345,6.772-.345,6.772l-2.249-.375-2.388.47-5.038-1.788.105-24.269-5.492-.753-1.134-9.5-18.676-2.164-.721,1.694-6.831.281-.48,5.363-1.871.1-.353,5.549-2.13.846h-3.167v6.516h-8.306l-.83,14.538-7.519-.285L383.9,97.662H371.109l.418,58.72-7.16.285s-.038,15.258-.085,23.389H350.659V161.447H318.673v18.609h-4.154c.034-16.316.24-61.586.24-61.586l-11.685.571-1.546,49.315-12.436.569s.141,6.149.208,11.132H270.684V136.235h-9.966v43.821h-8.754l-.462-36.5-9.758-.856-.03-35.062-9.641-4.56-17.329.571.127,31.924-9.838,1.71.073,21.665-15.824.571s-.19,12.588-.331,20.537h-.343l-1.53-28.228-.925-.234-.133-1.136-.941-.055-.17-.721-6.508-.034-.244,1.35-1.9.063-1.786-63.934-2.7-.222-.236-2.564-1.476-.03-.25-5-.779.1-3.006,4.031-.468-1.036-.731.222-.406,1.518-12.751-.733-.147-4.487-.715.046-3.508,6.879s-5.535,6.076-5.626,6.425-2.265,84.039-2.265,84.039l-5.3.335-2.658,1.859-.137,1.544h-1.09c.369-12.987,1.254-45.06,1.033-45.216a36.995,36.995,0,0,0-4.481-.208l.083-2.812-1.181-.042-.273-.876-2.273.25-.264,1.881-1.027.206-.252,1.468-2.12.2-.242.995-.573.115-.355,3.21-.9.123L116,180.056h-8.218v32.7h507.7v-32.7Z" transform="translate(105.822 77.492)" fill="#020d21" fill-rule="evenodd"/>
          </g>
          <path id="Path_27609" data-name="Path 27609" d="M227.4,174.439l.006.036-.006-.036M106.677,216.1V248.66H1205.594v-61.6l-32.541-.246-3.195-37.951-29.842.289-.858-30.062-16.774.238-.4-11.169-38.341-7.961-34.749,3.922,2.4,49.428-4.392.121-1.2-8.2-37.144-.83.4,9.15-5.391.355.2,3.327-3.993.119.2-18.417L974.21,137.75l-11.583,1.189.3,15.565-7.287.357-.7,3.03-4.693.3-.7-8.02-36.645.238-.3-7.725-5.892-.176-.8-2.2-5.192-.3-7.689.535.2,1.665-7.188-.178-11.883.892v4.812l-7.289.3-.8-21.387-23.363-.711-11.685,3.86-12.781.059-3.793.832-24.564-.238-2.2,1.011.1-4.457a44.964,44.964,0,0,0-6.99-.713c-3.195,0-14.778.773-14.778.773l-.5,4.1-2,.6.6,20.2-3-.238-1.2-1.9-6.99-.119-4.193,2.557-.1,1.839-5.791-.057-2-11.764-.9,11.526-1.3.059-6.99,4.4-.9-6.831-3.343-.091-.252-.86h-4.443l-.4-4.069-4.394-.3-.6,2.555-1.7.178-.5,2.555-2.994.178-.5,7.723h-3.195l-.1,12.418h-2.893l-.6-26.706-8.088-.03-.549-1.99-1.1-.446-17.424.03-.4-23.526-1.4-1.9-6.99-2.557L650.744,115l-2.6,2.14-.1,24.18H635.367l-.2,6.712h-7.339l-.25-6.088-1.149-.327-.5-1.635-5.39-.059-.151,1.486-1.147.087s-.05,2.574-.05,2.943-10.486.3-10.486.3l-.6,8.972-4.992.119-.125,4.96-1.048-.046-.426,3.565-3.27.073-.549.981-3.421.03-.05-.951s-3.845.091-4.094.151-.5-1.694-.5-1.694l-2.6-.238-.25-7.634-4.594-.713-18.072.416-.4-11.229-1.3-.535-.1-7.961-.8-.771.1-4.754-3.7-1.427s.5-9.921-.6-11.526-2.2-1.306-2.2-1.306a3.669,3.669,0,0,1-.2-1.427,12.452,12.452,0,0,0-1.1-3.327,19.109,19.109,0,0,0-.2-2.612,4.123,4.123,0,0,0-1.4-2.2s-.3-.949-.7-2.317-2.646-2.346-2.646-2.346a4.136,4.136,0,0,0-.2-1.871,4.756,4.756,0,0,0-1.649-1.99,6.393,6.393,0,0,0-.151-1.962,8.454,8.454,0,0,0-1.447-2.406l-2.2-18.684s-.4,12.834-.7,14.675a18.449,18.449,0,0,0-.1,3.979s-.349.178-.8,1.07a8.576,8.576,0,0,0-.4,2.941,2.346,2.346,0,0,0-.949,1.128,16.524,16.524,0,0,0-.45,3.032,5.029,5.029,0,0,0-2.1,1.484,6.341,6.341,0,0,0-.547,3.179,8.54,8.54,0,0,0-1.251.951c-.648.593-.45,3.208-.45,3.208s-.149.117-.747.652-.2,3.357-.5,3.535-.4,2.376-.4,2.376a6.956,6.956,0,0,0-.9.713c-.2.238.2,11.7.2,11.7l-5.392.565.648,23.5-5.84-.059-.2,6.09-1.748.03.075,8.69h-1l-.426-19.992-2.7-1.455v-2.883l-2-.89-.9-2.792-6.389.059-.4,3.03-6.69.414-7.188-.059-1.7.656L477,141.513l-.2.474-7.687-.327-4.893,1.159.05,3.21-2.445-.061L439.6,147.158v23.111l-1.4-.178-.5-13.7h-6.69l-.25-3.771-11.883-.208-9.035.505,0-8.258-.8-.416L409,138.424l-2.148-.357-.45-3.773-2.37-.311-.8-1.635-1.572-.711-.226-5.852-.575-.579v-1.441l-.8-.238-.9-9.951-.349,10.1-1,.268-.1,1.187-.6.595-.3,6.149-1.8.654-.2,1.187-2.6.416,0,4.041-2.5.178.3,19.784-4.094-.119v10.1l-4.394.178-12.281.832-.1-12.594-5.39.059-.3-8.912-10.184-.238-23.765,1.722-.1,8.02-13.181.416-.3,1.249-3.3.119-.2-3.922-15.478-.3-7.19.236-.1,3.981-13.282,1.011.1,13.248-6.689.357-.1,1.841-1.6.238-.1,4.516-3.393.355-.6,1.189h-6.191l-4.592.654-.4,1.663-6.79-.206-.325-5.2-3.147-.089-.549-10.218-14.453-.044s-.184,5.65-.155,6.157c-.1-.5-1.468-6.011-1.468-6.011l-3.545-.028-1.548,5.583-4.693.178v1.486l-2.295-.059.4-7.069-1.1-.089-.1-5.349-2.947.149-.1-1.692h-1.548l-.25-3.3-11.732.089-.2,3.268-3.3.3.1,1.9-1.9.178-.1,2.792-5.392.418v1.99l-1.5.206-.349,25.636-4.594-.119.3-11.377-4-.208-.3-1.306h-5.44l-.151,1.217h-6.191l-.2-1.811-7.489.119-.7,23.23-4.891-.119-.5-3.862-6.589-.474-.2-2.854-20.143.3V216.1Z" transform="translate(104.733 70.761)" fill="#182234" fill-rule="evenodd"/>
          <path id="Path_27641" data-name="Path 27641" d="M1084.868,174.439l-.006.036.006-.036M1205.594,216.1V248.66H106.677v-61.6l32.541-.246,3.195-37.951,29.842.289.858-30.062,16.774.238.4-11.169,38.341-7.961,34.749,3.922-2.4,49.427,4.392.121,1.2-8.2,37.144-.83-.4,9.15,5.391.355-.2,3.327,3.993.119-.2-18.417,25.761-1.427,11.583,1.189-.3,15.565,7.287.357.7,3.03,4.693.3.7-8.02,36.645.238.3-7.725,5.892-.176.8-2.2,5.192-.3,7.689.535-.2,1.665,7.188-.178,11.883.892v4.812l7.289.3.8-21.387,23.363-.711,11.685,3.86,12.781.059,3.793.832,24.564-.238,2.2,1.011-.1-4.457a44.964,44.964,0,0,1,6.99-.713c3.195,0,14.778.773,14.778.773l.5,4.1,2,.6-.6,20.2,3-.238,1.2-1.9,6.99-.119,4.193,2.557.1,1.839,5.791-.057,2-11.764.9,11.526,1.3.059,6.99,4.4.9-6.831,3.343-.091.252-.86h4.443l.4-4.069,4.394-.3.6,2.555,1.7.178.5,2.555,2.994.178.5,7.723h3.195l.1,12.418h2.893l.6-26.706,8.088-.03.549-1.99,1.1-.446,17.424.03.4-23.526,1.4-1.9,6.99-2.556,18.173.416,2.6,2.14.1,24.18H676.9l.2,6.712h7.339l.25-6.088,1.149-.327.5-1.635,5.39-.059.151,1.486,1.147.087s.05,2.574.05,2.943,10.486.3,10.486.3l.6,8.972,4.992.119.125,4.96,1.048-.046.426,3.565,3.27.073.549.981,3.42.03.05-.951s3.845.091,4.094.151.5-1.694.5-1.694l2.6-.238.25-7.634,4.594-.713,18.072.416.4-11.229,1.3-.535.1-7.961.8-.771-.1-4.754,3.7-1.427s-.5-9.921.6-11.526,2.2-1.306,2.2-1.306a3.669,3.669,0,0,0,.2-1.427,12.452,12.452,0,0,1,1.1-3.327,19.109,19.109,0,0,1,.2-2.612,4.123,4.123,0,0,1,1.4-2.2s.3-.949.7-2.317,2.646-2.346,2.646-2.346a4.136,4.136,0,0,1,.2-1.871,4.756,4.756,0,0,1,1.649-1.99,6.393,6.393,0,0,1,.151-1.962,8.454,8.454,0,0,1,1.447-2.406l2.2-18.684s.4,12.834.7,14.675a18.449,18.449,0,0,1,.1,3.979s.349.178.8,1.07a8.576,8.576,0,0,1,.4,2.941,2.346,2.346,0,0,1,.949,1.128,16.524,16.524,0,0,1,.45,3.032,5.029,5.029,0,0,1,2.1,1.484,6.341,6.341,0,0,1,.547,3.179,8.54,8.54,0,0,1,1.251.951c.648.593.45,3.208.45,3.208s.149.117.747.652.2,3.357.5,3.535.4,2.376.4,2.376a6.956,6.956,0,0,1,.9.713c.2.238-.2,11.7-.2,11.7l5.392.565-.648,23.5,5.84-.059.2,6.09,1.748.03-.075,8.69h1l.426-19.992,2.7-1.455v-2.883l2-.89.9-2.792,6.389.059.4,3.03,6.691.414,7.188-.059,1.7.656,14.328-.089.2.474,7.687-.327,4.893,1.159-.05,3.21,2.445-.061,22.218,1.189v23.111l1.4-.178.5-13.7h6.69l.25-3.771,11.883-.208,9.035.505,0-8.258.8-.416.049-5.822,2.148-.357.45-3.773,2.37-.311.8-1.635,1.572-.711.226-5.852.575-.579v-1.441l.8-.238.9-9.95.349,10.1,1,.268.1,1.187.6.595.3,6.149,1.8.654.2,1.187,2.6.416,0,4.041,2.5.178-.3,19.784,4.094-.119v10.1l4.394.178,12.281.832.1-12.594,5.39.059.3-8.912L959,147.441l23.766,1.722.1,8.02,13.181.416.3,1.249,3.3.119.2-3.922,15.478-.3,7.19.236.1,3.981,13.282,1.011-.1,13.248,6.689.357.1,1.841,1.6.238.1,4.516,3.393.355.6,1.189h6.191l4.592.654.4,1.663,6.79-.206.325-5.2,3.147-.089.549-10.218,14.453-.044s.184,5.65.155,6.157c.1-.5,1.469-6.011,1.469-6.011l3.545-.028,1.548,5.583,4.693.178v1.486l2.295-.059-.4-7.069,1.1-.089.1-5.349,2.947.149.1-1.692h1.548l.25-3.3,11.732.089.2,3.268,3.3.3-.1,1.9,1.9.178.1,2.792,5.392.418v1.99l1.5.206.349,25.636,4.594-.119-.3-11.377,4-.208.3-1.306h5.44l.151,1.217h6.191l.2-1.811,7.489.119.7,23.23,4.891-.119.5-3.862,6.589-.474.2-2.854,20.143.3V216.1Z" transform="translate(930.906 70.761)" fill="#182234" fill-rule="evenodd"/>
        </g>
        <g id="Group_20298" data-name="Group 20298" transform="translate(270 5862.688)">
          <g id="Group_20292" data-name="Group 20292" transform="translate(496.693 38.214)">
            <g id="Group_20295" data-name="Group 20295">
              <path id="Path_27629" data-name="Path 27629" d="M598.155,184.5c-.1-1.06-1.391-1.488-2.438-1.669l2.242-1.188c.255-.135.536-.3.6-.585.179-.815-1.57-1.28-1.144-2,.159-.267.524-.291.819-.387,1.061-.345,1.315-1.744,1.148-2.846s-.562-2.269-.119-3.292a17.488,17.488,0,0,1,1.229-1.744c.361-.613.4-1.558-.229-1.9-.3-.164-.675-.138-.987-.281a1.356,1.356,0,0,1-.644-1.467,3.96,3.96,0,0,1,.755-1.532c.132-.191.262-.389.391-.583-.019-.154-.039-.306-.052-.461s-.02-.343-.031-.516c-.019-.331-.036-.661-.04-1,0-.15,0-.3,0-.449,0-.39.008-.779.023-1.169,0-.045,0-.09.007-.134.031-.774.072-1.546.106-2.3a42.779,42.779,0,0,0-14.271,3.428.792.792,0,0,0-.283.174c-.44.474.484.971.925,1.446.68.732.094,1.929-.627,2.623s-1.642,1.41-1.623,2.409c.025,1.323,1.633,1.98,2.294,3.126,1.121,1.939-.748,4.153-1.586,6.229a7.1,7.1,0,0,0,3.571,8.815c.032.514.128,1.2.239,1.927h0c.506,0,1.013-.016,1.518-.033.13,0,.258-.007.386-.013.577-.027,1.152-.067,1.724-.136a12.875,12.875,0,0,0,4.654-1.507c.17-1.1,1.543-1.868,1.44-2.994" transform="translate(-467.382 2.381)" fill="#182234"/>
              <path id="Path_27630" data-name="Path 27630" d="M559.146,58.958c.008-.028.023-.052.031-.082-.126.08-.254.158-.383.235l.353-.154" transform="translate(-475.824 -31.27)" fill="#182234"/>
              <path id="Path_27631" data-name="Path 27631" d="M628.178,408.383a98.775,98.775,0,0,0,1.487-37.27q-5.6,8.517-11.195,17.032a463.855,463.855,0,0,0,4.794-88.38,140.389,140.389,0,0,0-9.916,44.426c-.112,1.976-.216,4.066-1.309,5.714s-3.57,2.556-5.1,1.3c-1.6-1.309-1.164-3.816-.6-5.8a432.944,432.944,0,0,0,14.94-80.688c-.162.009-.323.02-.481.025q-9.407,34.144-21.544,67.455c-1.48,4.056-4.434,8.954-8.652,8.032,6.758-24.1,16.551-46.995,22.522-71.357,1.026-4.187,2.517-14.164,7.034-15.215-1.061-2.552-3.533-5.01-2.545-7.55.723-1.858,3.2-3.388,2.355-5.193a3.379,3.379,0,0,0-2.147-1.464,95.381,95.381,0,0,0-12.511-3.323c2.693-2.008-.349-6.249-3.5-7.418-.528-.2-1.084-.4-1.645-.6-.186-.068-.369-.136-.553-.207-.23-.088-.456-.182-.683-.275-.156-.064-.311-.128-.466-.2-.233-.1-.46-.208-.684-.318-.136-.067-.268-.138-.4-.208-.223-.119-.442-.242-.652-.373-.112-.071-.215-.147-.322-.222a7.142,7.142,0,0,1-.6-.45c-.071-.06-.127-.131-.194-.194a4.4,4.4,0,0,1-1.034-1.4,5.04,5.04,0,0,0-3.772,2.619,7.392,7.392,0,0,0-1.88-6.265l-5.093,5.569q1.219-6.311,2.434-12.622a37.46,37.46,0,0,1-11.379,17.078c-.776.66-1.947,1.295-2.724.637-.6-.51-.509-1.45-.342-2.219a44.336,44.336,0,0,1,1.659-5.741,35.113,35.113,0,0,1-12.567,12.948l8.281-13.2a32.269,32.269,0,0,1-6.615,1.508c.717-5.518,8.061-8.749,7.875-14.311q-2.788,1.062-5.577,2.123c4.3-5.265,5.521-12.327,6.589-19.042l-4.688,3.346q1.173-2.1,2.2-4.277c.033-.071.064-.142.1-.212q1-2.114,1.895-4.279h0a19.478,19.478,0,0,1-3.994-10.877c-.142-3.7.782-7.388.587-11.088-.25-4.762-2.335-9.266-2.746-14.017-.48-5.55,1.348-11.048,1.436-16.617.107-6.643-2.247-13.406-.506-19.817a20.737,20.737,0,0,0,1.216-5.073c.031-2.752-1.711-5.184-2.408-7.848a21.062,21.062,0,0,1-.426-5.712q.094-5.772.188-11.545a11.041,11.041,0,0,0-5.248-.621,12.071,12.071,0,0,1,6.275-6.929c-3-1.1-3.812-4.891-4.164-8.07q-.375-3.363-.748-6.726a3.76,3.76,0,0,1,.136-1.981,2.273,2.273,0,0,1,.7-.832c-1.076.438-2.178.818-3.276,1.148a8.7,8.7,0,0,1-3.766.482,2.061,2.061,0,0,1,.168.306,4.12,4.12,0,0,1,.158,1.243c.052,2.11.967,7.259.187,9.091-.985,2.311-3.362,1.9-5.3,2.47-1.852.546-7.028,1.81-7.028,5.188a2.44,2.44,0,0,0,.077.588,1.741,1.741,0,0,0-.077.493c0,1.943,3.351,3.65,8.421,4.643a2.834,2.834,0,0,0-.15.909c0,1.2.708,2.164,1.583,2.164h2.984c0,5.026-4.9,10.039-2.732,14.977a10.975,10.975,0,0,1,.914,2.1c.391,1.837-.917,3.8-.4,5.594.867,3.026,3.12,5.032,3.943,8.525a53.919,53.919,0,0,1,1.109,13.182c-.211,12.423.276,24.542.409,36.961a144.89,144.89,0,0,1-.712,18.256c-.6,5.253.633,11.144-2.126,15.73-.872,1.451-2.04,2.579-3.012,3.928a18.236,18.236,0,0,0-2.354,15.037,13.2,13.2,0,0,1,.693,2.934c.122,2.257-1.236,4.169-1.841,6.3-1.121,3.948.513,8.459,3.06,11.179s5.835,4.044,9.029,5.3a22.7,22.7,0,0,0-2.226,7.676c-.178,2.735.6,5.716,2.434,7.225,1.037.854,2.492,1.44,2.7,2.971.3,2.277-2.529,3.539-2.605,5.847-.1,2.983,4.235,3.777,4.171,6.762-.031,1.446-1.126,2.429-2.042,3.313a13.832,13.832,0,0,0-4.114,7.494,15.671,15.671,0,0,0,1.925,9.45c.7,1.26,2.306,2.254,2.794,3.575.822,2.233.1,2.8-.466,5.3a36.988,36.988,0,0,0,2.977,24.145c-6.813,9.628-10.826,24.477-3.591,34.916,7.889,11.383.742,20.656-.971,33.748-3.136,23.98,11.529,44.748,6.988,68.853a64.906,64.906,0,0,1-2.695,9.117l14.7.787c3.12.167,6.444.287,9.144-1.284s4.243-5.521,2.238-7.916c2.776.422,5.26-1.826,6.719-4.227s2.424-5.181,4.495-7.078a33.575,33.575,0,0,1,4.579-2.982,16.783,16.783,0,0,0,7.465-13.126c2.955,1.072,6.333-.8,7.984-3.476,1.51-2.441,1.905-5.368,2.139-8.245a2.25,2.25,0,0,0,2.372,1.589,5.177,5.177,0,0,0,3.158-2.361c4.858-6.481,6.9-14.438,8.13-22.545a48.445,48.445,0,0,1-11.454-.044M574.6,294.593c1.2-6.715,9.22-14.765,12.817-21.268a139.218,139.218,0,0,0,10.934-25.435,197.309,197.309,0,0,1-5.9,24.538A43.257,43.257,0,0,0,602.758,254.7c-2.949,10.023-14.455,42.8-28.158,39.9m14.947,156.033q1.976-10.684,2.985-21.517c.353-3.789.367-8.21-2.557-10.643,2.142,1.781,16.448-8.288,19.724-7.473-2.654,13.6-12.54,28.243-20.152,39.633" transform="translate(-481.326 -30.834)" fill="#182234"/>
              <path id="Path_27632" data-name="Path 27632" d="M556.129,68.7c1.1-.33,2.2-.709,3.275-1.148a6.522,6.522,0,0,1,1.42-.8l1.6-.7c.128-.077.256-.155.383-.235a8.6,8.6,0,0,1,.9-1.94c4.382-7.63,3.452-19.271-2.048-25.667a35.271,35.271,0,0,1-1.519,11.378,19.872,19.872,0,0,1-2.246-7.286,70.175,70.175,0,0,0-3.362,12.774q-1.465-4.92-3.043-9.787a33.807,33.807,0,0,0,.3,14.777c-.661.526-1.394-.494-1.814-1.321s-1.423-1.613-1.862-.8a1.916,1.916,0,0,0-.07,1.168c.448,2.859,2,7.1,3.654,9.133a6.412,6.412,0,0,1,.665.934,8.7,8.7,0,0,0,3.766-.482" transform="translate(-479.455 -38.214)" fill="#182234"/>
              <path id="Path_27633" data-name="Path 27633" d="M628.075,273.784a20.042,20.042,0,0,0-4.572,9.572c.416-.516.83-1.033,1.217-1.567a48.264,48.264,0,0,0,5.207-9.884c-.612.629-1.26,1.233-1.852,1.88" transform="translate(-454.077 40.322)" fill="#182234"/>
              <path id="Path_27634" data-name="Path 27634" d="M614.506,242.859c.028.052.045.108.075.159a12.268,12.268,0,0,0,12.229,5.832,7.827,7.827,0,0,1,3.545-.19c2.456.775,2.768,4.286,1.614,6.587s-3.227,4.079-4.177,6.472c-3.172,7.99,7.391,16.438,7.8,24.139,1.971-4.564,4.239-8.88,7.94-12.142,1.317-1.161,2.865-2.267,3.37-3.949.709-2.365-.938-4.873-.568-7.314.357-2.347,2.44-4,3.567-6.091a19.116,19.116,0,0,0,1.54-5.312c1.669-8.03,5.338-15.418,9.5-22.539l-.047-.076-27.216-17.01L617.4,243.792c.027-.7-.017-1.434-.031-2.152-.011.008-.019.019-.028.027a5.5,5.5,0,0,1-2.839,1.193" transform="translate(-457.1 19.997)" fill="#182234"/>
              <path id="Path_27635" data-name="Path 27635" d="M578.121,330.233c2.925,2.433,2.91,6.854,2.557,10.642q-1.008,10.82-2.985,21.519c7.61-11.39,17.5-26.035,20.152-39.633-3.277-.815-17.584,9.254-19.724,7.473" transform="translate(-469.472 57.398)" fill="#182234"/>
              <path id="Path_27636" data-name="Path 27636" d="M594.664,207.479a43.257,43.257,0,0,1-10.308,17.732,197.348,197.348,0,0,0,5.9-24.538,139.156,139.156,0,0,1-10.933,25.435c-3.6,6.5-11.618,14.552-12.817,21.268,13.7,2.9,25.209-29.873,28.158-39.9" transform="translate(-473.232 16.384)" fill="#182234"/>
              <path id="Path_27637" data-name="Path 27637" d="M595.825,158.525c-.007.208-.02.432-.029.644h0c.009-.214.021-.433.028-.644" transform="translate(-463.388 2.219)" fill="#182234"/>
              <path id="Path_27638" data-name="Path 27638" d="M691,376.231H540.682v17.413H691Z" transform="translate(-481.91 75.383)" fill="#1e293e"/>
              <path id="Path_27639" data-name="Path 27639" d="M654.979,475.5c.939-5.666,1.439-11.708.049-17.2-.059-.232-.126-.461-.19-.691a39.311,39.311,0,0,1-1.158-4.525c-.482-3.09.087-6.278.5-9.386a96.278,96.278,0,0,0-.1-26.045c-.927-6.564-2.533-12.914-3.578-19.445-1.706-10.653.444-21.479-.22-32.063L663.264,334.6a10.432,10.432,0,0,0,2.985-5.892,4.2,4.2,0,0,0,2.426-2.118,12.7,12.7,0,0,0,1.273-3.6,4.479,4.479,0,0,1,.266-.93,3.094,3.094,0,0,1,.736-.919,8.572,8.572,0,0,0,2.722-4.217,2.947,2.947,0,0,1,.184-.633,2.253,2.253,0,0,1,.744-.709c1.269-1.033,2.034-4.3,1.927-6.2,0-.076-.009-.151-.015-.226a12.913,12.913,0,0,0-.943-3.929c-.035-.086-.077-.164-.114-.249l8.444-20.519-2.926-4.7c-4.157,7.121-7.825,14.51-9.494,22.539a19.158,19.158,0,0,1-1.54,5.312c-1.129,2.09-3.212,3.742-3.567,6.091-.37,2.441,1.276,4.949.567,7.314-.5,1.682-2.052,2.788-3.37,3.949-3.7,3.263-5.968,7.578-7.939,12.142-.411-7.7-10.973-16.149-7.8-24.139.949-2.393,3.021-4.171,4.177-6.472s.84-5.812-1.614-6.587a7.834,7.834,0,0,0-3.546.19,12.265,12.265,0,0,1-12.228-5.832c-.029-.051-.047-.107-.075-.159a5.505,5.505,0,0,0,2.839-1.193c.009-.008.017-.019.027-.028-.012-.645.011-1.277-.028-1.932a85.86,85.86,0,0,0-1.5-10.922,19.906,19.906,0,0,0-1.765-5.692c-.906-1.663-2.322-2.929-3.84-2.882.51-.016-1.2-4.992-1.408-5.363-1.035-1.862-2.862-2.138-3.842-3.539-2-2.857-1.741-7.354-4.482-9.978a11.084,11.084,0,0,1-2.021-2.005c-.919-1.466-.791-3.569-.37-5.356a25.631,25.631,0,0,0,1.128-5.386,7,7,0,0,0-2.6-5.722c-.764-.541-1.677-.871-2.2-1.752a6.115,6.115,0,0,1-.3-3.859,87.591,87.591,0,0,1,1.244-8.952c.5-1.975,1.844-3.893,1.892-6.026a16.12,16.12,0,0,0-.148-1.825c-.012-.131-.021-.263-.025-.4a18.9,18.9,0,0,1,.088-2.476c.143-1.519.416-3.006.656-4.5l23.663-2.862-22.72-2.748c.032-.269.069-.534.092-.807a14.171,14.171,0,0,0-.144-3.451l23.586-9.751-25.282,4.682a15.914,15.914,0,0,0-3-4.1l13.009-24.777L608.8,182.082c-.232-.08-.469-.136-.7-.2a16.116,16.116,0,0,0-2.357-.529l-.087-4.957-.528-29.784-5.041,34.64a19.755,19.755,0,0,0-5.738,1.327L576.942,160l12.234,25.8a21,21,0,0,0-1.6,1.57,34.171,34.171,0,0,0-2.819,3.6l-15.468-9.485-1.116-.684q-.878-13.117-1.492-26.262c-.051-1.082-.1-2.162-.152-3.244-.478-10.831-2.76-21.054-1.686-32.05.731-7.478,2.728-11.827-.282-19.4-.111-.275-.232-.55-.362-.82a6.737,6.737,0,0,0-1.732-2.386V89.314h1.722c.875,0,1.585-.97,1.585-2.164a2.846,2.846,0,0,0-.083-.66c5.847-.937,9.82-2.776,9.82-4.891a1.732,1.732,0,0,0-.076-.493,2.449,2.449,0,0,0,.076-.589c0-4.147-7.323-5.334-9.479-5.777-2.858-.589-4.209.17-5.1-3.114-.719-2.652.091-6.867-.4-9.823a7.7,7.7,0,0,1-.158-2.624c.016-.086.063-.156.084-.239l-1.953.852a3.8,3.8,0,0,0-2.122,1.63,3.766,3.766,0,0,0-.136,1.983q.375,3.361.748,6.724c.353,3.179,1.161,6.97,4.164,8.07a12.077,12.077,0,0,0-6.275,6.93,11.007,11.007,0,0,1,5.248.621l-.188,11.544a21.071,21.071,0,0,0,.426,5.713c.7,2.663,2.438,5.094,2.408,7.848a20.751,20.751,0,0,1-1.216,5.073c-1.741,6.41.613,13.174.506,19.815-.088,5.57-1.915,11.068-1.436,16.617.41,4.751,2.5,9.255,2.746,14.018.2,3.7-.728,7.386-.587,11.087a19.478,19.478,0,0,0,3.994,10.877h0c-.593,1.444-1.221,2.873-1.895,4.281-.032.069-.063.142-.1.211-.7,1.446-1.423,2.875-2.2,4.277l4.688-3.346c-1.069,6.716-2.286,13.776-6.589,19.042q2.79-1.06,5.577-2.123c.186,5.562-7.157,8.793-7.875,14.311A32.336,32.336,0,0,0,565,223.487l-8.281,13.2a35.126,35.126,0,0,0,12.567-12.949,44.4,44.4,0,0,0-1.659,5.741c-.167.771-.26,1.71.342,2.219.778.657,1.948.023,2.724-.636a37.464,37.464,0,0,0,11.379-17.079q-1.216,6.311-2.434,12.622l5.093-5.569a7.393,7.393,0,0,1,1.88,6.265,5.04,5.04,0,0,1,3.772-2.619,4.371,4.371,0,0,0,1.034,1.4c.067.064.123.134.194.2a7.429,7.429,0,0,0,.6.449c.107.075.21.152.322.222.21.131.429.254.652.374.134.069.266.14.4.207.224.11.452.218.684.319.155.067.31.132.466.2.227.092.453.186.683.274.184.071.369.139.553.207.561.207,1.118.406,1.645.6,3.15,1.168,6.193,5.408,3.5,7.418a95.582,95.582,0,0,1,12.511,3.321,3.379,3.379,0,0,1,2.147,1.464c.847,1.805-1.633,3.335-2.355,5.193-.987,2.54,1.484,5,2.545,7.55-4.517,1.052-6.008,11.028-7.034,15.215-5.971,24.363-15.764,47.257-22.522,71.357,4.218.923,7.172-3.976,8.652-8.031q12.149-33.27,21.544-67.457c.158-.005.319-.015.481-.025a432.81,432.81,0,0,1-14.94,80.688c-.568,1.987-1,4.495.6,5.8,1.531,1.253,4.008.347,5.1-1.3s1.2-3.738,1.309-5.713a140.372,140.372,0,0,1,9.916-44.426,463.945,463.945,0,0,1-4.793,88.378l11.194-17.031a98.769,98.769,0,0,1-1.487,37.268,48.515,48.515,0,0,0,11.454.045c-1.229,8.106-3.272,16.064-8.13,22.544a5.177,5.177,0,0,1-3.158,2.361,2.247,2.247,0,0,1-2.372-1.589c-.234,2.877-.629,5.8-2.139,8.245-1.651,2.673-5.029,4.549-7.984,3.478a16.783,16.783,0,0,1-7.465,13.124,33.583,33.583,0,0,0-4.579,2.983c-2.071,1.9-3.037,4.678-4.495,7.078s-3.943,4.648-6.719,4.227c2.005,2.4.462,6.345-2.238,7.916s-6.024,1.45-9.144,1.283l-14.7-.786c-.357,1.059-.691,2.106-.958,3.154h92.276c.449-2.454.931-4.9,1.34-7.366M566.788,188.334q.681-1.661,1.3-3.348-.619,1.687-1.3,3.348m25.075,34.736c.184-.027.369-.048.553-.068-.184.02-.369.041-.553.068m1.905-.184c.176-.009.35-.024.526-.031-.176.007-.35.021-.526.031m2.191-.065c.737,0,1.478,0,2.218-.005-.74,0-1.48,0-2.218.005m14.285-18.4a17.334,17.334,0,0,0-1.229,1.744c-.444,1.022-.049,2.188.119,3.291s-.087,2.5-1.146,2.847c-.3.095-.661.12-.82.386-.426.716,1.323,1.182,1.144,2-.063.282-.343.45-.6.585l-2.242,1.189c1.047.179,2.341.608,2.438,1.667.1,1.128-1.271,1.891-1.44,2.994a12.877,12.877,0,0,1-4.654,1.508c-.572.068-1.146.108-1.724.135-.128.007-.257.009-.385.013-.506.019-1.011.031-1.519.033h0c-.111-.727-.207-1.412-.239-1.925a7.105,7.105,0,0,1-3.571-8.817c.838-2.076,2.707-4.289,1.586-6.229-.661-1.145-2.269-1.8-2.294-3.126-.019-1,.9-1.714,1.623-2.408s1.307-1.892.627-2.624c-.441-.474-1.363-.971-.925-1.446a.811.811,0,0,1,.283-.174,42.78,42.78,0,0,1,14.269-3.428c.009-.212.023-.436.029-.644-.007.211-.019.429-.028.644h0c-.033.758-.073,1.522-.1,2.3,0,.044,0,.09-.005.134-.016.39-.02.78-.024,1.169,0,.15,0,.3,0,.449,0,.335.021.667.04,1,.011.172.016.346.031.516.013.152.043.3.061.448l-.009.013c-.13.2-.259.391-.391.583a3.974,3.974,0,0,0-.755,1.534,1.357,1.357,0,0,0,.644,1.467c.313.142.685.115.987.279.625.342.589,1.285.229,1.9m36.318,150.5a20.043,20.043,0,0,1,4.572-9.572c.592-.647,1.24-1.251,1.852-1.88a48.264,48.264,0,0,1-5.207,9.884c-.389.534-.8,1.051-1.217,1.567" transform="translate(-477.137 -31.249)" fill="#1e293e"/>
              <path id="Path_27640" data-name="Path 27640" d="M757.526,389.264H496.693V406h33.487v78.578H731.065V406h26.461Z" transform="translate(-496.693 79.763)" fill="#1e293e"/>
              <rect id="Rectangle_1901" data-name="Rectangle 1901" width="29.606" height="68.786" transform="translate(72.162 495.553)" fill="#182234"/>
              <rect id="Rectangle_1902" data-name="Rectangle 1902" width="29.606" height="68.786" transform="translate(119.126 495.553)" fill="#182234"/>
              <rect id="Rectangle_1903" data-name="Rectangle 1903" width="29.606" height="68.786" transform="translate(166.299 495.553)" fill="#182234"/>
            </g>
          </g>
        </g>
        <g id="Group_20314" data-name="Group 20314" transform="translate(36.187 6011.586)">
          <g id="Group_20313" data-name="Group 20313" clip-path="url(#clip-path-2)">
            <g id="Group_20312" data-name="Group 20312" transform="translate(0 0)">
              <g id="Group_20311" data-name="Group 20311" clip-path="url(#clip-path-3)">
                <g id="Group_20304" data-name="Group 20304" transform="translate(0 4.758)" opacity="0.53">
                  <g id="Group_20303" data-name="Group 20303">
                    <g id="Group_20302" data-name="Group 20302" clip-path="url(#clip-path-4)">
                      <path id="Path_27642" data-name="Path 27642" d="M85.651,26.26c0-.621-.016-1.244-.071-1.874A22.092,22.092,0,0,0,47.8,10.858,19.352,19.352,0,0,0,14.322,21.494c-.152.009-.3,0-.454.017a15.213,15.213,0,1,0,9.776,27.817,15.2,15.2,0,0,0,19.642,2.454A15.165,15.165,0,0,0,64.507,48.4c.3-.012.6-.012.907-.034a9.6,9.6,0,0,0,17.67-4.342c.072,0,.141,0,.212,0A9.179,9.179,0,0,0,85.651,26.26" transform="translate(0 -4.232)" fill="#192336"/>
                    </g>
                  </g>
                </g>
                <g id="Group_20307" data-name="Group 20307" transform="translate(566.065 8.032)" opacity="0.53">
                  <g id="Group_20306" data-name="Group 20306">
                    <g id="Group_20305" data-name="Group 20305" clip-path="url(#clip-path-5)">
                      <path id="Path_27643" data-name="Path 27643" d="M548.106,18.61c0-.324-.008-.648-.037-.976A11.5,11.5,0,0,0,528.4,10.593a10.072,10.072,0,0,0-17.424,5.537c-.08,0-.157,0-.237.009a7.918,7.918,0,1,0,5.089,14.479,7.909,7.909,0,0,0,10.224,1.277A7.9,7.9,0,0,0,537.1,30.134c.157-.007.315-.008.472-.018a5,5,0,0,0,9.2-2.26c.037,0,.073,0,.11,0a4.777,4.777,0,0,0,1.225-9.244" transform="translate(-503.523 -7.144)" fill="#192336"/>
                    </g>
                  </g>
                </g>
                <g id="Group_20310" data-name="Group 20310" transform="translate(273.587 0)" opacity="0.53">
                  <g id="Group_20309" data-name="Group 20309">
                    <g id="Group_20308" data-name="Group 20308" clip-path="url(#clip-path-6)">
                      <path id="Path_27644" data-name="Path 27644" d="M396.519,36.529c-.025-.59-.058-1.183-.11-1.777A38.064,38.064,0,0,0,332.47,10.283a36.261,36.261,0,0,0-54.806,9.589,9.287,9.287,0,0,0-15.535,9.152c-.021,0-.044,0-.066,0a20.491,20.491,0,1,0,18.748,31.906,36.292,36.292,0,0,0,51.651,4.933,38.047,38.047,0,0,0,54.568-2.617,14.444,14.444,0,1,0,9.489-26.721" transform="translate(-243.36 0)" fill="#192336"/>
                    </g>
                  </g>
                </g>
              </g>
            </g>
          </g>
        </g>
        <g id="Group_20317" data-name="Group 20317" transform="translate(-620.813 5742.586)">
          <g id="Group_20313-2" data-name="Group 20313" clip-path="url(#clip-path-7)">
            <g id="Group_20312-2" data-name="Group 20312" transform="translate(0 -0.001)">
              <g id="Group_20318" data-name="Group 20318">
                <g id="Group_20307-2" data-name="Group 20307" transform="translate(1056.38 14.989)" opacity="0.53">
                  <g id="Group_20306-2" data-name="Group 20306">
                    <g id="Group_20305-2" data-name="Group 20305" clip-path="url(#clip-path-8)">
                      <path id="Path_27643-2" data-name="Path 27643" d="M586.723,28.541c0-.6-.015-1.208-.069-1.821a21.459,21.459,0,0,0-36.7-13.14,18.8,18.8,0,0,0-32.516,10.333c-.149.008-.294,0-.443.017a14.777,14.777,0,1,0,9.5,27.02,14.76,14.76,0,0,0,19.079,2.383,14.734,14.734,0,0,0,20.613-3.285c.294-.013.587-.015.881-.034A9.327,9.327,0,0,0,584.23,45.8c.069,0,.136,0,.206,0a8.915,8.915,0,0,0,2.287-17.252" transform="translate(-503.523 -7.144)" fill="#192336"/>
                    </g>
                  </g>
                </g>
                <g id="Group_20310-2" data-name="Group 20310" transform="translate(510.564 0)" opacity="0.53">
                  <g id="Group_20309-2" data-name="Group 20309">
                    <g id="Group_20308-2" data-name="Group 20308" clip-path="url(#clip-path-9)">
                      <path id="Path_27644-2" data-name="Path 27644" d="M529.182,68.169c-.046-1.1-.109-2.207-.206-3.317A71.034,71.034,0,0,0,409.656,19.19a67.67,67.67,0,0,0-102.279,17.9,17.331,17.331,0,0,0-28.992,17.08c-.04,0-.082,0-.124.006a38.24,38.24,0,1,0,34.988,59.543,67.727,67.727,0,0,0,96.39,9.206,71,71,0,0,0,101.834-4.884,26.955,26.955,0,1,0,17.709-49.867" transform="translate(-243.36 0.001)" fill="#192336"/>
                    </g>
                  </g>
                </g>
              </g>
            </g>
          </g>
        </g>
        <g id="Group_20315" data-name="Group 20315" transform="translate(1504.187 5605.586)">
          <g id="Group_20313-3" data-name="Group 20313" clip-path="url(#clip-path-2)">
            <g id="Group_20312-3" data-name="Group 20312" transform="translate(0 0)">
              <g id="Group_20321" data-name="Group 20321">
                <g id="Group_20304-2" data-name="Group 20304" transform="translate(0 4.758)" opacity="0.53">
                  <g id="Group_20303-2" data-name="Group 20303">
                    <g id="Group_20302-2" data-name="Group 20302" clip-path="url(#clip-path-4)">
                      <path id="Path_27642-2" data-name="Path 27642" d="M85.651,26.26c0-.621-.016-1.244-.071-1.874A22.092,22.092,0,0,0,47.8,10.858,19.352,19.352,0,0,0,14.322,21.494c-.152.009-.3,0-.454.017a15.213,15.213,0,1,0,9.776,27.817,15.2,15.2,0,0,0,19.642,2.454A15.165,15.165,0,0,0,64.507,48.4c.3-.012.6-.012.907-.034a9.6,9.6,0,0,0,17.67-4.342c.072,0,.141,0,.212,0A9.179,9.179,0,0,0,85.651,26.26" transform="translate(0 -4.232)" fill="#192336"/>
                    </g>
                  </g>
                </g>
                <g id="Group_20310-3" data-name="Group 20310" transform="translate(273.587 0)" opacity="0.53">
                  <g id="Group_20309-3" data-name="Group 20309">
                    <g id="Group_20308-3" data-name="Group 20308" clip-path="url(#clip-path-6)">
                      <path id="Path_27644-3" data-name="Path 27644" d="M396.519,36.529c-.025-.59-.058-1.183-.11-1.777A38.064,38.064,0,0,0,332.47,10.283a36.261,36.261,0,0,0-54.806,9.589,9.287,9.287,0,0,0-15.535,9.152c-.021,0-.044,0-.066,0a20.491,20.491,0,1,0,18.748,31.906,36.292,36.292,0,0,0,51.651,4.933,38.047,38.047,0,0,0,54.568-2.617,14.444,14.444,0,1,0,9.489-26.721" transform="translate(-243.36 0)" fill="#192336"/>
                    </g>
                  </g>
                </g>
              </g>
            </g>
            <g id="Group_20316" data-name="Group 20316" transform="translate(255 194)">
              <g id="Group_20319" data-name="Group 20319">
                <g id="Group_20304-3" data-name="Group 20304" transform="translate(0 4.758)" opacity="0.53">
                  <g id="Group_20303-3" data-name="Group 20303">
                    <g id="Group_20302-3" data-name="Group 20302" clip-path="url(#clip-path-4)">
                      <path id="Path_27642-3" data-name="Path 27642" d="M85.651,26.26c0-.621-.016-1.244-.071-1.874A22.092,22.092,0,0,0,47.8,10.858,19.352,19.352,0,0,0,14.322,21.494c-.152.009-.3,0-.454.017a15.213,15.213,0,1,0,9.776,27.817,15.2,15.2,0,0,0,19.642,2.454A15.165,15.165,0,0,0,64.507,48.4c.3-.012.6-.012.907-.034a9.6,9.6,0,0,0,17.67-4.342c.072,0,.141,0,.212,0A9.179,9.179,0,0,0,85.651,26.26" transform="translate(0 -4.232)" fill="#192336"/>
                    </g>
                  </g>
                </g>
              </g>
            </g>
          </g>
        </g>
      </g>
    </g>
  </g>
</svg>
