<svg xmlns="http://www.w3.org/2000/svg" xmlns:xlink="http://www.w3.org/1999/xlink" width="1917.091" height="1080.241" viewBox="0 0 1917.091 1080.241">
  <defs>
    <clipPath id="clip-path">
      <rect x="8" width="1917.091" height="1080.241" fill="none"/>
    </clipPath>
    <clipPath id="clip-path-2">
      <rect id="Rectangle_1908" data-name="Rectangle 1908" width="613.779" height="76.152" fill="#192336"/>
    </clipPath>
    <clipPath id="clip-path-3">
      <rect id="Rectangle_1907" data-name="Rectangle 1907" width="613.779" height="76.153" fill="#192336"/>
    </clipPath>
    <clipPath id="clip-path-4">
      <rect id="Rectangle_1904" data-name="Rectangle 1904" width="91.67" height="50.456" fill="#192336"/>
    </clipPath>
    <clipPath id="clip-path-5">
      <rect id="Rectangle_1905" data-name="Rectangle 1905" width="47.715" height="26.263" fill="#192336"/>
    </clipPath>
    <clipPath id="clip-path-6">
      <rect id="Rectangle_1906" data-name="Rectangle 1906" width="165.456" height="76.153" fill="#192336"/>
    </clipPath>
    <clipPath id="clip-path-7">
      <rect id="Rectangle_1908-2" data-name="Rectangle 1908" width="1145.425" height="142.114" fill="#192336"/>
    </clipPath>
    <clipPath id="clip-path-8">
      <rect id="Rectangle_1905-2" data-name="Rectangle 1905" width="89.044" height="49.011" fill="#192336"/>
    </clipPath>
    <clipPath id="clip-path-9">
      <rect id="Rectangle_1906-2" data-name="Rectangle 1906" width="308.772" height="142.115" fill="#192336"/>
    </clipPath>
    <clipPath id="clip-path-14">
      <rect id="Rectangle_13497" data-name="Rectangle 13497" width="681.512" height="283.44" fill="#26344d"/>
    </clipPath>
  </defs>
  <g id="aus" transform="translate(-8)" clip-path="url(#clip-path)" style="isolation: isolate">
    <g id="Group_59331" data-name="Group 59331" transform="translate(-15581.491 -3496)">
      <g id="Group_59303" data-name="Group 59303" transform="translate(15586.581 -442)">
        <rect id="Rectangle_95" data-name="Rectangle 95" width="1920" height="1080" transform="translate(0 3938)" fill="#111827"/>
        <g id="Contact" transform="translate(0 -1435)">
          <g id="Group_20314" data-name="Group 20314" transform="translate(36.187 6011.586)">
            <g id="Group_20313" data-name="Group 20313" clip-path="url(#clip-path-2)">
              <g id="Group_20312" data-name="Group 20312" transform="translate(0 0)">
                <g id="Group_20311" data-name="Group 20311" clip-path="url(#clip-path-3)">
                  <g id="Group_20304" data-name="Group 20304" transform="translate(0 4.758)" opacity="0.53">
                    <g id="Group_20303" data-name="Group 20303">
                      <g id="Group_20302" data-name="Group 20302" clip-path="url(#clip-path-4)">
                        <path id="Path_27642" data-name="Path 27642" d="M85.651,26.26c0-.621-.016-1.244-.071-1.874A22.092,22.092,0,0,0,47.8,10.858,19.352,19.352,0,0,0,14.322,21.494c-.152.009-.3,0-.454.017a15.213,15.213,0,1,0,9.776,27.817,15.2,15.2,0,0,0,19.642,2.454A15.165,15.165,0,0,0,64.507,48.4c.3-.012.6-.012.907-.034a9.6,9.6,0,0,0,17.67-4.342c.072,0,.141,0,.212,0A9.179,9.179,0,0,0,85.651,26.26" transform="translate(0 -4.232)" fill="#192336"/>
                      </g>
                    </g>
                  </g>
                  <g id="Group_20307" data-name="Group 20307" transform="translate(566.065 8.032)" opacity="0.53">
                    <g id="Group_20306" data-name="Group 20306">
                      <g id="Group_20305" data-name="Group 20305" clip-path="url(#clip-path-5)">
                        <path id="Path_27643" data-name="Path 27643" d="M548.106,18.61c0-.324-.008-.648-.037-.976A11.5,11.5,0,0,0,528.4,10.593a10.072,10.072,0,0,0-17.424,5.537c-.08,0-.157,0-.237.009a7.918,7.918,0,1,0,5.089,14.479,7.909,7.909,0,0,0,10.224,1.277A7.9,7.9,0,0,0,537.1,30.134c.157-.007.315-.008.472-.018a5,5,0,0,0,9.2-2.26c.037,0,.073,0,.11,0a4.777,4.777,0,0,0,1.225-9.244" transform="translate(-503.523 -7.144)" fill="#192336"/>
                      </g>
                    </g>
                  </g>
                  <g id="Group_20310" data-name="Group 20310" transform="translate(273.587 0)" opacity="0.53">
                    <g id="Group_20309" data-name="Group 20309">
                      <g id="Group_20308" data-name="Group 20308" clip-path="url(#clip-path-6)">
                        <path id="Path_27644" data-name="Path 27644" d="M396.519,36.529c-.025-.59-.058-1.183-.11-1.777A38.064,38.064,0,0,0,332.47,10.283a36.261,36.261,0,0,0-54.806,9.589,9.287,9.287,0,0,0-15.535,9.152c-.021,0-.044,0-.066,0a20.491,20.491,0,1,0,18.748,31.906,36.292,36.292,0,0,0,51.651,4.933,38.047,38.047,0,0,0,54.568-2.617,14.444,14.444,0,1,0,9.489-26.721" transform="translate(-243.36 0)" fill="#192336"/>
                      </g>
                    </g>
                  </g>
                </g>
              </g>
            </g>
          </g>
          <g id="Group_20317" data-name="Group 20317" transform="translate(395.187 5742.586)">
            <g id="Group_20313-2" data-name="Group 20313" clip-path="url(#clip-path-7)">
              <g id="Group_20312-2" data-name="Group 20312" transform="translate(0 -0.001)">
                <g id="Group_20318" data-name="Group 20318">
                  <g id="Group_20307-2" data-name="Group 20307" transform="translate(1056.38 14.989)" opacity="0.53">
                    <g id="Group_20306-2" data-name="Group 20306">
                      <g id="Group_20305-2" data-name="Group 20305" clip-path="url(#clip-path-8)">
                        <path id="Path_27643-2" data-name="Path 27643" d="M586.723,28.541c0-.6-.015-1.208-.069-1.821a21.459,21.459,0,0,0-36.7-13.14,18.8,18.8,0,0,0-32.516,10.333c-.149.008-.294,0-.443.017a14.777,14.777,0,1,0,9.5,27.02,14.76,14.76,0,0,0,19.079,2.383,14.734,14.734,0,0,0,20.613-3.285c.294-.013.587-.015.881-.034A9.327,9.327,0,0,0,584.23,45.8c.069,0,.136,0,.206,0a8.915,8.915,0,0,0,2.287-17.252" transform="translate(-503.523 -7.144)" fill="#192336"/>
                      </g>
                    </g>
                  </g>
                  <g id="Group_20310-2" data-name="Group 20310" transform="translate(510.564 0)" opacity="0.53">
                    <g id="Group_20309-2" data-name="Group 20309">
                      <g id="Group_20308-2" data-name="Group 20308" clip-path="url(#clip-path-9)">
                        <path id="Path_27644-2" data-name="Path 27644" d="M529.182,68.169c-.046-1.1-.109-2.207-.206-3.317A71.034,71.034,0,0,0,409.656,19.19a67.67,67.67,0,0,0-102.279,17.9,17.331,17.331,0,0,0-28.992,17.08c-.04,0-.082,0-.124.006a38.24,38.24,0,1,0,34.988,59.543,67.727,67.727,0,0,0,96.39,9.206,71,71,0,0,0,101.834-4.884,26.955,26.955,0,1,0,17.709-49.867" transform="translate(-243.36 0.001)" fill="#192336"/>
                      </g>
                    </g>
                  </g>
                </g>
              </g>
            </g>
          </g>
          <g id="Group_20315" data-name="Group 20315" transform="translate(-5.09 5605.586)">
            <g id="Group_20313-3" data-name="Group 20313" clip-path="url(#clip-path-2)">
              <g id="Group_20312-3" data-name="Group 20312" transform="translate(0 0)">
                <g id="Group_20321" data-name="Group 20321">
                  <g id="Group_20304-2" data-name="Group 20304" transform="translate(0 4.758)" opacity="0.53">
                    <g id="Group_20303-2" data-name="Group 20303">
                      <g id="Group_20302-2" data-name="Group 20302" clip-path="url(#clip-path-4)">
                        <path id="Path_27642-2" data-name="Path 27642" d="M85.651,26.26c0-.621-.016-1.244-.071-1.874A22.092,22.092,0,0,0,47.8,10.858,19.352,19.352,0,0,0,14.322,21.494c-.152.009-.3,0-.454.017a15.213,15.213,0,1,0,9.776,27.817,15.2,15.2,0,0,0,19.642,2.454A15.165,15.165,0,0,0,64.507,48.4c.3-.012.6-.012.907-.034a9.6,9.6,0,0,0,17.67-4.342c.072,0,.141,0,.212,0A9.179,9.179,0,0,0,85.651,26.26" transform="translate(0 -4.232)" fill="#192336"/>
                      </g>
                    </g>
                  </g>
                  <g id="Group_20310-3" data-name="Group 20310" transform="translate(273.587 0)" opacity="0.53">
                    <g id="Group_20309-3" data-name="Group 20309">
                      <g id="Group_20308-3" data-name="Group 20308" clip-path="url(#clip-path-6)">
                        <path id="Path_27644-3" data-name="Path 27644" d="M396.519,36.529c-.025-.59-.058-1.183-.11-1.777A38.064,38.064,0,0,0,332.47,10.283a36.261,36.261,0,0,0-54.806,9.589,9.287,9.287,0,0,0-15.535,9.152c-.021,0-.044,0-.066,0a20.491,20.491,0,1,0,18.748,31.906,36.292,36.292,0,0,0,51.651,4.933,38.047,38.047,0,0,0,54.568-2.617,14.444,14.444,0,1,0,9.489-26.721" transform="translate(-243.36 0)" fill="#192336"/>
                      </g>
                    </g>
                  </g>
                </g>
              </g>
              <g id="Group_20316" data-name="Group 20316" transform="translate(255 194)">
                <g id="Group_20319" data-name="Group 20319">
                  <g id="Group_20304-3" data-name="Group 20304" transform="translate(0 4.758)" opacity="0.53">
                    <g id="Group_20303-3" data-name="Group 20303">
                      <g id="Group_20302-3" data-name="Group 20302" clip-path="url(#clip-path-4)">
                        <path id="Path_27642-3" data-name="Path 27642" d="M85.651,26.26c0-.621-.016-1.244-.071-1.874A22.092,22.092,0,0,0,47.8,10.858,19.352,19.352,0,0,0,14.322,21.494c-.152.009-.3,0-.454.017a15.213,15.213,0,1,0,9.776,27.817,15.2,15.2,0,0,0,19.642,2.454A15.165,15.165,0,0,0,64.507,48.4c.3-.012.6-.012.907-.034a9.6,9.6,0,0,0,17.67-4.342c.072,0,.141,0,.212,0A9.179,9.179,0,0,0,85.651,26.26" transform="translate(0 -4.232)" fill="#192336"/>
                      </g>
                    </g>
                  </g>
                </g>
              </g>
            </g>
          </g>
        </g>
      </g>
      <g id="Group_59330" data-name="Group 59330" opacity="0.635">
        <g id="Group_20274" data-name="Group 20274" transform="translate(15370.081 4268.82)">
          <g id="Group_20299" data-name="Group 20299">
            <path id="Path_27607" data-name="Path 27607" d="M941.852,204.314H938.7v-2.9h-1.48V203.3h-1.853v-2.776H932.03v-2.905h-6.486v-8.333L921.467,185H905.159V170.982h-1.667v-1.389H888.3V170.6h-1.482v3.282h-5.745v25.252h-3.151v-8.46h-3.335V180.7h-7.412V167.825h-4.447v-3.409H858.09V154.191h-1.482v-5.682h-1.853v-4.546h-.927l-1.3-10.226h-.741l-1.3,10.478H849.01v2.905c-9.451,3.409-13.157,6.944-13.157,6.944v27.144H832.7v9.344h-2.222V179.819h-.927v-8.585h-5.559v8.585h-6.484v6.819h-8.155v17.8h-2.224v-2.273h-1.853V165.174H794.342V153.18l-2.594-2.4v-2.9l-3.522-2.275V135.5h-1.482v10.1l-3.151,2.023v-5.809h-1.3v-3.787h-1.728V125.57H758.577v12.459H756.6v3.787h-1.546v38.762h-4.818v-1.389h-2.224v1.768h-8.526v12.5H735.6V174.012h-3.892v-2.4h-3.335V149.771h3.335v-3.537h-7.6v-4.923h-4.447V139.29H705.947v1.768H687.973v36.49h-2.967v26.766h-5v-32.7h-8.648V119.006h-.616v-.61h-.65V117.7h-.925v-3.979h-4.449V117.7h-9.078v.694h-2.687v.61h-2.594l-15.567,10.1v20.206l-33.6-5.731v27.947h-1.978v-2.442H598.1v-5.05h-6.116v5.05h-3.52v2.442h-2.965V153.812h1.667V152.3h-3.706V126.664h-.741v-.755H574v.755h-6.116V152.3h-3.026V139.038h-.741v-.589h-3.212v-1.683H543.86v1.683h-2.965v.589h-.741V152.3H536.2v1.516h1.853v27.9h-2.594V168.582H521.991V134.745h-2.673V117.308h-5.874V104.262h-7.426l-4.437-6.637h-.107l-2.18-22.788h.147v-.955h-3.02l-1.651-31.855h-.612l-1.651,31.855H489.45v.955h.252l-2.18,22.788h-.034l-4.437,6.637H476.2v13.046h-6.159v17.438h-2.673v44.836h-1.782l-6.873-45.452h-2.156V111.321a16.342,16.342,0,0,1-.579-1.869A39.356,39.356,0,0,1,455.239,96h-31.57v38.131h-1.617l-6.873,22.39H402.825V131.6h-.741v-3.369h-9.39V131.6h-6.425v24.915h-3.706v.925h-3.952v1.431h-1.978v18.686h-6.3v-2.146H358.659v2.146H356.99v10.606h-6.3V228.4L469,228.428v-.109l472.664.109Z" transform="translate(1178.299 41.26)" fill="#020d21"/>
            <path id="Path_27608" data-name="Path 27608" d="M610.426,180.056c.464-7.9.894-19.685-.343-23.678-1.922-6.207-4.879-16.272-4.879-16.272l-20.48,4.986s-.789.422-1.8,3.151.406,20.365.406,20.365l-1.506-.141-1.466-10.676-1.484-.472-.589-2.679-6.817-.753-1.558-9.312-2.285-.753-20.708,4.328-1.229-16.274-2.027-.377-.608-5.174-16.106-1.881-4.352.753-.525,4.891-1.871.1L517.693,176.4l-4.322-.1-.254-17.4-7.307.283-5.523,5.832-.454-8.183-1.916-.377-2.449-24.362-7.335-.379-.018,18.25-2.061-1.881-8.809-.753-2.479-3.952-4.009-.281-.1,24.269-2.416.188-1.04-.47-3.908-.377-.5-23.611-3.6-.658s-.67-5.832-1.046-6.3-1.413-3.2-1.966-3.2-3.516,6.019-3.637,7.055-.345,6.772-.345,6.772l-2.249-.375-2.388.47-5.038-1.788.105-24.269-5.492-.753-1.134-9.5-18.676-2.164-.721,1.694-6.831.281-.48,5.363-1.871.1-.353,5.549-2.13.846h-3.167v6.516h-8.306l-.83,14.538-7.519-.285L383.9,97.662H371.109l.418,58.72-7.16.285s-.038,15.258-.085,23.389H350.659V161.447H318.673v18.609h-4.154c.034-16.316.24-61.586.24-61.586l-11.685.571-1.546,49.315-12.436.569s.141,6.149.208,11.132H270.684V136.235h-9.966v43.821h-8.754l-.462-36.5-9.758-.856-.03-35.062-9.641-4.56-17.329.571.127,31.924-9.838,1.71.073,21.665-15.824.571s-.19,12.588-.331,20.537h-.343l-1.53-28.228-.925-.234-.133-1.136-.941-.055-.17-.721-6.508-.034-.244,1.35-1.9.063-1.786-63.934-2.7-.222-.236-2.564-1.476-.03-.25-5-.779.1-3.006,4.031-.468-1.036-.731.222-.406,1.518-12.751-.733-.147-4.487-.715.046-3.508,6.879s-5.535,6.076-5.626,6.425-2.265,84.039-2.265,84.039l-5.3.335-2.658,1.859-.137,1.544h-1.09c.369-12.987,1.254-45.06,1.033-45.216a36.995,36.995,0,0,0-4.481-.208l.083-2.812-1.181-.042-.273-.876-2.273.25-.264,1.881-1.027.206-.252,1.468-2.12.2-.242.995-.573.115-.355,3.21-.9.123L116,180.056h-8.218v32.7h507.7v-32.7Z" transform="translate(694.822 77.492)" fill="#020d21" fill-rule="evenodd"/>
          </g>
          <g id="Group_20300" data-name="Group 20300" transform="translate(1198 23.168)">
            <path id="Path_27607-2" data-name="Path 27607" d="M941.852,204.314H938.7v-2.9h-1.48V203.3h-1.853v-2.776H932.03v-2.905h-6.486v-8.333L921.467,185H905.159V170.982h-1.667v-1.389H888.3V170.6h-1.482v3.282h-5.745v25.252h-3.151v-8.46h-3.335V180.7h-7.412V167.825h-4.447v-3.409H858.09V154.191h-1.482v-5.682h-1.853v-4.546h-.927l-1.3-10.226h-.741l-1.3,10.478H849.01v2.905c-9.451,3.409-13.157,6.944-13.157,6.944v27.144H832.7v9.344h-2.222V179.819h-.927v-8.585h-5.559v8.585h-6.484v6.819h-8.155v17.8h-2.224v-2.273h-1.853V165.174H794.342V153.18l-2.594-2.4v-2.9l-3.522-2.275V135.5h-1.482v10.1l-3.151,2.023v-5.809h-1.3v-3.787h-1.728V125.57H758.577v12.459H756.6v3.787h-1.546v38.762h-4.818v-1.389h-2.224v1.768h-8.526v12.5H735.6V174.012h-3.892v-2.4h-3.335V149.771h3.335v-3.537h-7.6v-4.923h-4.447V139.29H705.947v1.768H687.973v36.49h-2.967v26.766h-5v-32.7h-8.648V119.006h-.616v-.61h-.65V117.7h-.925v-3.979h-4.449V117.7h-9.078v.694h-2.687v.61h-2.594l-15.567,10.1v20.206l-33.6-5.731v27.947h-1.978v-2.442H598.1v-5.05h-6.116v5.05h-3.52v2.442h-2.965V153.812h1.667V152.3h-3.706V126.664h-.741v-.755H574v.755h-6.116V152.3h-3.026V139.038h-.741v-.589h-3.212v-1.683H543.86v1.683h-2.965v.589h-.741V152.3H536.2v1.516h1.853v27.9h-2.594V168.582H521.991V134.745h-2.673V117.308h-5.874V104.262h-7.426l-4.437-6.637h-.107l-2.18-22.788h.147v-.955h-3.02l-1.651-31.855h-.612l-1.651,31.855H489.45v.955h.252l-2.18,22.788h-.034l-4.437,6.637H476.2v13.046h-6.159v17.438h-2.673v44.836h-1.782l-6.873-45.452h-2.156V111.321a16.342,16.342,0,0,1-.579-1.869A39.356,39.356,0,0,1,455.239,96h-31.57v38.131h-1.617l-6.873,22.39H402.825V131.6h-.741v-3.369h-9.39V131.6h-6.425v24.915h-3.706v.925h-3.952v1.431h-1.978v18.686h-6.3v-2.146H358.659v2.146H356.99v10.606h-6.3V228.4L469,228.428v-.109l472.664.109Z" transform="translate(-1325.701 61.817)" fill="#020d21"/>
            <path id="Path_27608-2" data-name="Path 27608" d="M610.426,180.056c.464-7.9.894-19.685-.343-23.678-1.922-6.207-4.879-16.272-4.879-16.272l-20.48,4.986s-.789.422-1.8,3.151.406,20.365.406,20.365l-1.506-.141-1.466-10.676-1.484-.472-.589-2.679-6.817-.753-1.558-9.312-2.285-.753-20.708,4.328-1.229-16.274-2.027-.377-.608-5.174-16.106-1.881-4.352.753-.525,4.891-1.871.1L517.693,176.4l-4.322-.1-.254-17.4-7.307.283-5.523,5.832-.454-8.183-1.916-.377-2.449-24.362-7.335-.379-.018,18.25-2.061-1.881-8.809-.753-2.479-3.952-4.009-.281-.1,24.269-2.416.188-1.04-.47-3.908-.377-.5-23.611-3.6-.658s-.67-5.832-1.046-6.3-1.413-3.2-1.966-3.2-3.516,6.019-3.637,7.055-.345,6.772-.345,6.772l-2.249-.375-2.388.47-5.038-1.788.105-24.269-5.492-.753-1.134-9.5-18.676-2.164-.721,1.694-6.831.281-.48,5.363-1.871.1-.353,5.549-2.13.846h-3.167v6.516h-8.306l-.83,14.538-7.519-.285L383.9,97.662H371.109l.418,58.72-7.16.285s-.038,15.258-.085,23.389H350.659V161.447H318.673v18.609h-4.154c.034-16.316.24-61.586.24-61.586l-11.685.571-1.546,49.315-12.436.569s.141,6.149.208,11.132H270.684V136.235h-9.966v43.821h-8.754l-.462-36.5-9.758-.856-.03-35.062-9.641-4.56-17.329.571.127,31.924-9.838,1.71.073,21.665-15.824.571s-.19,12.588-.331,20.537h-.343l-1.53-28.228-.925-.234-.133-1.136-.941-.055-.17-.721-6.508-.034-.244,1.35-1.9.063-1.786-63.934-2.7-.222-.236-2.564-1.476-.03-.25-5-.779.1-3.006,4.031-.468-1.036-.731.222-.406,1.518-12.751-.733-.147-4.487-.715.046-3.508,6.879s-5.535,6.076-5.626,6.425-2.265,84.039-2.265,84.039l-5.3.335-2.658,1.859-.137,1.544h-1.09c.369-12.987,1.254-45.06,1.033-45.216a36.995,36.995,0,0,0-4.481-.208l.083-2.812-1.181-.042-.273-.876-2.273.25-.264,1.881-1.027.206-.252,1.468-2.12.2-.242.995-.573.115-.355,3.21-.9.123L116,180.056h-8.218v32.7h507.7v-32.7Z" transform="translate(105.822 77.492)" fill="#020d21" fill-rule="evenodd"/>
          </g>
          <path id="Path_27609" data-name="Path 27609" d="M227.4,174.439l.006.036-.006-.036M106.677,216.1V248.66H1205.594v-61.6l-32.541-.246-3.195-37.951-29.842.289-.858-30.062-16.774.238-.4-11.169-38.341-7.961-34.749,3.922,2.4,49.428-4.392.121-1.2-8.2-37.144-.83.4,9.15-5.391.355.2,3.327-3.993.119.2-18.417L974.21,137.75l-11.583,1.189.3,15.565-7.287.357-.7,3.03-4.693.3-.7-8.02-36.645.238-.3-7.725-5.892-.176-.8-2.2-5.192-.3-7.689.535.2,1.665-7.188-.178-11.883.892v4.812l-7.289.3-.8-21.387-23.363-.711-11.685,3.86-12.781.059-3.793.832-24.564-.238-2.2,1.011.1-4.457a44.964,44.964,0,0,0-6.99-.713c-3.195,0-14.778.773-14.778.773l-.5,4.1-2,.6.6,20.2-3-.238-1.2-1.9-6.99-.119-4.193,2.557-.1,1.839-5.791-.057-2-11.764-.9,11.526-1.3.059-6.99,4.4-.9-6.831-3.343-.091-.252-.86h-4.443l-.4-4.069-4.394-.3-.6,2.555-1.7.178-.5,2.555-2.994.178-.5,7.723h-3.195l-.1,12.418h-2.893l-.6-26.706-8.088-.03-.549-1.99-1.1-.446-17.424.03-.4-23.526-1.4-1.9-6.99-2.557L650.744,115l-2.6,2.14-.1,24.18H635.367l-.2,6.712h-7.339l-.25-6.088-1.149-.327-.5-1.635-5.39-.059-.151,1.486-1.147.087s-.05,2.574-.05,2.943-10.486.3-10.486.3l-.6,8.972-4.992.119-.125,4.96-1.048-.046-.426,3.565-3.27.073-.549.981-3.421.03-.05-.951s-3.845.091-4.094.151-.5-1.694-.5-1.694l-2.6-.238-.25-7.634-4.594-.713-18.072.416-.4-11.229-1.3-.535-.1-7.961-.8-.771.1-4.754-3.7-1.427s.5-9.921-.6-11.526-2.2-1.306-2.2-1.306a3.669,3.669,0,0,1-.2-1.427,12.452,12.452,0,0,0-1.1-3.327,19.109,19.109,0,0,0-.2-2.612,4.123,4.123,0,0,0-1.4-2.2s-.3-.949-.7-2.317-2.646-2.346-2.646-2.346a4.136,4.136,0,0,0-.2-1.871,4.756,4.756,0,0,0-1.649-1.99,6.393,6.393,0,0,0-.151-1.962,8.454,8.454,0,0,0-1.447-2.406l-2.2-18.684s-.4,12.834-.7,14.675a18.449,18.449,0,0,0-.1,3.979s-.349.178-.8,1.07a8.576,8.576,0,0,0-.4,2.941,2.346,2.346,0,0,0-.949,1.128,16.524,16.524,0,0,0-.45,3.032,5.029,5.029,0,0,0-2.1,1.484,6.341,6.341,0,0,0-.547,3.179,8.54,8.54,0,0,0-1.251.951c-.648.593-.45,3.208-.45,3.208s-.149.117-.747.652-.2,3.357-.5,3.535-.4,2.376-.4,2.376a6.956,6.956,0,0,0-.9.713c-.2.238.2,11.7.2,11.7l-5.392.565.648,23.5-5.84-.059-.2,6.09-1.748.03.075,8.69h-1l-.426-19.992-2.7-1.455v-2.883l-2-.89-.9-2.792-6.389.059-.4,3.03-6.69.414-7.188-.059-1.7.656L477,141.513l-.2.474-7.687-.327-4.893,1.159.05,3.21-2.445-.061L439.6,147.158v23.111l-1.4-.178-.5-13.7h-6.69l-.25-3.771-11.883-.208-9.035.505,0-8.258-.8-.416L409,138.424l-2.148-.357-.45-3.773-2.37-.311-.8-1.635-1.572-.711-.226-5.852-.575-.579v-1.441l-.8-.238-.9-9.951-.349,10.1-1,.268-.1,1.187-.6.595-.3,6.149-1.8.654-.2,1.187-2.6.416,0,4.041-2.5.178.3,19.784-4.094-.119v10.1l-4.394.178-12.281.832-.1-12.594-5.39.059-.3-8.912-10.184-.238-23.765,1.722-.1,8.02-13.181.416-.3,1.249-3.3.119-.2-3.922-15.478-.3-7.19.236-.1,3.981-13.282,1.011.1,13.248-6.689.357-.1,1.841-1.6.238-.1,4.516-3.393.355-.6,1.189h-6.191l-4.592.654-.4,1.663-6.79-.206-.325-5.2-3.147-.089-.549-10.218-14.453-.044s-.184,5.65-.155,6.157c-.1-.5-1.468-6.011-1.468-6.011l-3.545-.028-1.548,5.583-4.693.178v1.486l-2.295-.059.4-7.069-1.1-.089-.1-5.349-2.947.149-.1-1.692h-1.548l-.25-3.3-11.732.089-.2,3.268-3.3.3.1,1.9-1.9.178-.1,2.792-5.392.418v1.99l-1.5.206-.349,25.636-4.594-.119.3-11.377-4-.208-.3-1.306h-5.44l-.151,1.217h-6.191l-.2-1.811-7.489.119-.7,23.23-4.891-.119-.5-3.862-6.589-.474-.2-2.854-20.143.3V216.1Z" transform="translate(104.733 70.761)" fill="#172134" fill-rule="evenodd"/>
          <path id="Path_27641" data-name="Path 27641" d="M1084.868,174.439l-.006.036.006-.036M1205.594,216.1V248.66H106.677v-61.6l32.541-.246,3.195-37.951,29.842.289.858-30.062,16.774.238.4-11.169,38.341-7.961,34.749,3.922-2.4,49.427,4.392.121,1.2-8.2,37.144-.83-.4,9.15,5.391.355-.2,3.327,3.993.119-.2-18.417,25.761-1.427,11.583,1.189-.3,15.565,7.287.357.7,3.03,4.693.3.7-8.02,36.645.238.3-7.725,5.892-.176.8-2.2,5.192-.3,7.689.535-.2,1.665,7.188-.178,11.883.892v4.812l7.289.3.8-21.387,23.363-.711,11.685,3.86,12.781.059,3.793.832,24.564-.238,2.2,1.011-.1-4.457a44.964,44.964,0,0,1,6.99-.713c3.195,0,14.778.773,14.778.773l.5,4.1,2,.6-.6,20.2,3-.238,1.2-1.9,6.99-.119,4.193,2.557.1,1.839,5.791-.057,2-11.764.9,11.526,1.3.059,6.99,4.4.9-6.831,3.343-.091.252-.86h4.443l.4-4.069,4.394-.3.6,2.555,1.7.178.5,2.555,2.994.178.5,7.723h3.195l.1,12.418h2.893l.6-26.706,8.088-.03.549-1.99,1.1-.446,17.424.03.4-23.526,1.4-1.9,6.99-2.556,18.173.416,2.6,2.14.1,24.18H676.9l.2,6.712h7.339l.25-6.088,1.149-.327.5-1.635,5.39-.059.151,1.486,1.147.087s.05,2.574.05,2.943,10.486.3,10.486.3l.6,8.972,4.992.119.125,4.96,1.048-.046.426,3.565,3.27.073.549.981,3.42.03.05-.951s3.845.091,4.094.151.5-1.694.5-1.694l2.6-.238.25-7.634,4.594-.713,18.072.416.4-11.229,1.3-.535.1-7.961.8-.771-.1-4.754,3.7-1.427s-.5-9.921.6-11.526,2.2-1.306,2.2-1.306a3.669,3.669,0,0,0,.2-1.427,12.452,12.452,0,0,1,1.1-3.327,19.109,19.109,0,0,1,.2-2.612,4.123,4.123,0,0,1,1.4-2.2s.3-.949.7-2.317,2.646-2.346,2.646-2.346a4.136,4.136,0,0,1,.2-1.871,4.756,4.756,0,0,1,1.649-1.99,6.393,6.393,0,0,1,.151-1.962,8.454,8.454,0,0,1,1.447-2.406l2.2-18.684s.4,12.834.7,14.675a18.449,18.449,0,0,1,.1,3.979s.349.178.8,1.07a8.576,8.576,0,0,1,.4,2.941,2.346,2.346,0,0,1,.949,1.128,16.524,16.524,0,0,1,.45,3.032,5.029,5.029,0,0,1,2.1,1.484,6.341,6.341,0,0,1,.547,3.179,8.54,8.54,0,0,1,1.251.951c.648.593.45,3.208.45,3.208s.149.117.747.652.2,3.357.5,3.535.4,2.376.4,2.376a6.956,6.956,0,0,1,.9.713c.2.238-.2,11.7-.2,11.7l5.392.565-.648,23.5,5.84-.059.2,6.09,1.748.03-.075,8.69h1l.426-19.992,2.7-1.455v-2.883l2-.89.9-2.792,6.389.059.4,3.03,6.691.414,7.188-.059,1.7.656,14.328-.089.2.474,7.687-.327,4.893,1.159-.05,3.21,2.445-.061,22.218,1.189v23.111l1.4-.178.5-13.7h6.69l.25-3.771,11.883-.208,9.035.505,0-8.258.8-.416.049-5.822,2.148-.357.45-3.773,2.37-.311.8-1.635,1.572-.711.226-5.852.575-.579v-1.441l.8-.238.9-9.95.349,10.1,1,.268.1,1.187.6.595.3,6.149,1.8.654.2,1.187,2.6.416,0,4.041,2.5.178-.3,19.784,4.094-.119v10.1l4.394.178,12.281.832.1-12.594,5.39.059.3-8.912L959,147.441l23.766,1.722.1,8.02,13.181.416.3,1.249,3.3.119.2-3.922,15.478-.3,7.19.236.1,3.981,13.282,1.011-.1,13.248,6.689.357.1,1.841,1.6.238.1,4.516,3.393.355.6,1.189h6.191l4.592.654.4,1.663,6.79-.206.325-5.2,3.147-.089.549-10.218,14.453-.044s.184,5.65.155,6.157c.1-.5,1.469-6.011,1.469-6.011l3.545-.028,1.548,5.583,4.693.178v1.486l2.295-.059-.4-7.069,1.1-.089.1-5.349,2.947.149.1-1.692h1.548l.25-3.3,11.732.089.2,3.268,3.3.3-.1,1.9,1.9.178.1,2.792,5.392.418v1.99l1.5.206.349,25.636,4.594-.119-.3-11.377,4-.208.3-1.306h5.44l.151,1.217h6.191l.2-1.811,7.489.119.7,23.23,4.891-.119.5-3.862,6.589-.474.2-2.854,20.143.3V216.1Z" transform="translate(930.906 70.761)" fill="#182234" fill-rule="evenodd"/>
          <g id="Group_59310" data-name="Group 59310" transform="translate(573.919 73.31)">
            <path id="Path_27702" data-name="Path 27702" d="M106.943,43.649c-.06-.893-2.384-1.684-5.944-2.176h.3l-.448-9.391c0-.425-.7-.814-1.866-1.122V29.169c1.3-.225,2.09-.516,2.09-.836V24.57c0-.36-1.007-.684-2.625-.919.14-.071.22-.145.22-.221,0-.474-2.832-.859-6.327-.859s-6.327.385-6.327.859c0,.076.08.15.22.221-1.619.235-2.625.559-2.625.919v3.763c0,.319.789.61,2.09.836v1.792c-1.166.307-1.866.7-1.866,1.122l-.448,9.391h.3c-3.559.492-5.884,1.283-5.944,2.176H77.7l2.35,17.337c0,1.254,3.862,2.31,9.106,2.62v.264c-1.694.2-2.824.553-2.824.957s1.13.758,2.824.958v84.327c-3.061.2-5.22.687-5.22,1.253s2.159,1.052,5.22,1.253v70.6h-.592V224.3H87.9v14.1H96.78V224.3h-.661v-1.087h-.593v-70.6c3.061-.2,5.22-.686,5.22-1.253s-2.159-1.05-5.22-1.253V65.785c1.694-.2,2.825-.553,2.825-.958s-1.131-.755-2.825-.957v-.264c5.243-.31,9.106-1.366,9.106-2.62l2.35-17.337Z" transform="translate(26.537 7.709)" fill="#182234"/>
            <path id="Path_27703" data-name="Path 27703" d="M88.943,0,87.637,30.28h2.612Z" transform="translate(29.933)" fill="#182234"/>
          </g>
        </g>
        <g id="Group_59306" data-name="Group 59306" transform="translate(16178.547 4374.588)">
          <path id="Path_27645" data-name="Path 27645" d="M288.645,58.737s26.878,1.68,62.715,14c0,0,35.276,29.118,35.276,75.034H320.562S308.8,92.334,288.645,58.737" transform="translate(111.884 22.767)" fill="#1f2c43"/>
          <path id="Path_27646" data-name="Path 27646" d="M320.562,147.769h24.9c-6.307-52.038-41.018-81.482-50.056-88.339-4.345-.543-6.76-.694-6.76-.694,20.158,33.6,31.917,89.032,31.917,89.032" transform="translate(111.884 22.767)" fill="#2a3852"/>
          <path id="Path_27647" data-name="Path 27647" d="M48.609,171.4l6.626-52.322,41.623-1.121,9.706-27.375,39.382,3.858,5.6-45.356,69.434,58.795,36.956-24.639L286.5,54.68l28-47.6s28.559,21.838,61.595,69.994,37.33,95.626,37.33,95.626L48.609,171.4" transform="translate(18.842 2.746)" fill="#1e293e"/>
          <path id="Path_27648" data-name="Path 27648" d="M53.788,134.092s5.6-22.771,13.439-32.85c0,0,23.144,6.346,50.022,32.477Z" transform="translate(20.849 39.243)" fill="#1f2c43"/>
          <path id="Path_27649" data-name="Path 27649" d="M287.821,161.769h60.626C316.972,66.33,261.661,31.924,261.661,31.924s-12.693,13.937-18.913,30.611l56.165,61,15.26,23.363c-51.392-67.256-84.18-81.319-84.18-81.319S219.913,71,208.342,85.929l48.9,41.064Z" transform="translate(80.757 12.374)" fill="#2a3852"/>
          <path id="Path_27650" data-name="Path 27650" d="M145.054,150.159l12.669-4.415,9.394.189,2.552-2.18,16.177-38.823L165.686,61.876,143.04,80.541l-33.1,3.981L95.756,100.7l25.492,49.46Z" transform="translate(37.117 23.984)" fill="#2f405d"/>
          <path id="Path_27651" data-name="Path 27651" d="M157.84,131.295l10.488-25.171.493-1.207L148.667,61.875l-9,7.418c4.676,8.945,16.284,33.683,18.174,62" transform="translate(54.137 23.984)" fill="#2a3852"/>
          <path id="Path_27652" data-name="Path 27652" d="M120.136,77.094l-12.715,1.529-5.165,5.889a215.3,215.3,0,0,1,33.711,59.748h6.566l12.669-4.415L121.234,77.38Z" transform="translate(39.636 29.883)" fill="#2a3852"/>
          <path id="Path_27653" data-name="Path 27653" d="M152.25,167.7s28-57.862,57.861-72.047l15.679-7.094s14.559-18.665,25.758-22.024c0,0,6.533-25.385,30.05-50.583L266.48,5.874,238.732,56.082l-6.347,1.991L209.614,84.827l-16.425,1.741s-38.7,47.908-40.939,81.131" transform="translate(59.015 2.277)" fill="#34425c"/>
          <path id="Path_27654" data-name="Path 27654" d="M130.486,95.443s7.964-36.833,11.448-42.805L121.277,30.489l-5.972,57.489Z" transform="translate(44.694 11.818)" fill="#2a3852"/>
          <path id="Path_27655" data-name="Path 27655" d="M97.317,102.712S101.8,82.8,107.272,76.58L91.345,64.386,83.38,95.743Z" transform="translate(32.32 24.957)" fill="#2a3852"/>
          <path id="Path_27656" data-name="Path 27656" d="M56.663,142.1c1.418-11.67,4.486-31.353,10.184-45.229L47.062,82.68,49.306,142.1Z" transform="translate(18.242 32.048)" fill="#2a3852"/>
          <path id="Path_27657" data-name="Path 27657" d="M244.015,13.564s32.1,17.545,66.821,73.168c21.737,34.825,31.1,65.39,35.021,87.412h7.819C336.515,60.718,243.393,0,243.393,0c-22.149,29.366-28.371,55.5-28.371,55.5l7.342,5.849c3.359-16.052,21.651-47.783,21.651-47.783" transform="translate(83.347 0)" fill="#2a3852"/>
          <path id="Path_27658" data-name="Path 27658" d="M222.351,49.543C278.76,82.3,310.09,130.418,325.118,160.1h8.961C294.845,78.014,221.044,36.229,221.044,36.229c-20.655,20.406-28.62,34.344-28.62,34.344l6.783,7.715c4.292-7.467,23.144-28.745,23.144-28.745" transform="translate(74.587 14.043)" fill="#364560"/>
          <path id="Path_27659" data-name="Path 27659" d="M118.95,30.464l-1.493-6.969s46.29,15.182,78.393,66.447l-14.932,33.349-1.991.5s-7.964-22.4-25.384-51.019S118.95,30.464,118.95,30.464" transform="translate(45.529 9.107)" fill="#1f2c43"/>
          <path id="Path_27660" data-name="Path 27660" d="M182.5,122.886C167.567,75.1,119.194,23.495,119.194,23.495c-5.474,20.158-6.221,65.2-6.221,65.2l7.964,3.236s.747-34.842,4.231-53.756c0,0,43.178,45.668,53.382,90.961Z" transform="translate(43.79 9.107)" fill="#364560"/>
          <path id="Path_27661" data-name="Path 27661" d="M156.547,151.793h12.927l.772-4.227c-1.539-36.79-17.809-62.314-17.809-62.314C125.212,65.461,87.685,57.661,87.685,57.661a478.775,478.775,0,0,1,40.933,48.826,362.991,362.991,0,0,1,27.929,45.306" transform="translate(33.988 22.35)" fill="#1f2c43"/>
          <path id="Path_27662" data-name="Path 27662" d="M95.45,70.975S123,93.646,140.03,120.356c8.005,12.559,14.015,23.435,18.138,31.437h5.005c-3.459-6.533-8.478-15.59-15.744-28.013C126.535,88.055,91.717,57.661,91.717,57.661c-3.623,13.918-14.434,65.576-14.434,65.576l4.728,5.476C84.549,112.07,95.45,70.975,95.45,70.975" transform="translate(29.956 22.35)" fill="#364560"/>
          <path id="Path_27663" data-name="Path 27663" d="M120.561,142.93h23.133c-10.216-31.049-28.611-49.46-28.611-49.46C84.222,80.031,45.9,80.529,45.9,80.529a478.515,478.515,0,0,1,50.52,38.823c9.347,8.32,17.431,16.393,24.143,23.578" transform="translate(17.791 31.213)" fill="#1f2c43"/>
          <path id="Path_27664" data-name="Path 27664" d="M49.7,142.929C48.944,121.976,48.678,87,48.678,87s35.588,21.9,57.986,44.3c4.084,4.084,7.815,7.982,11.2,11.632h5.822c-2.7-2.988-5.7-6.272-9.054-9.891C86.506,102.677,45.94,80.528,45.94,80.528c-.393,10.672.037,45.285.286,62.4Z" transform="translate(17.746 31.214)" fill="#364560"/>
          <path id="Path_27665" data-name="Path 27665" d="M294.724,150.846h5.456c-16.725-36.752-74.733-82.488-89.156-87.537-14.932-5.227-29.989-2.489-29.989-2.489s22.4,10.453,54.876,36.21c25.824,20.481,49.992,44.737,58.813,53.816" transform="translate(70.172 23.297)" fill="#1f2c43"/>
          <path id="Path_27666" data-name="Path 27666" d="M197.517,69.58c60.837,27.911,94.536,68.723,103.761,81.066H308.8c-39.93-55.7-114.646-90.026-114.646-90.026-37.331,33.972-46.975,85.8-46.975,85.8l7.031.06c11.946-45.73,43.3-76.9,43.3-76.9" transform="translate(57.051 23.497)" fill="#364560"/>
          <path id="Path_27667" data-name="Path 27667" d="M152.25,136.885s15.679-32.477,55.435-51.515c0,0,54.875,14,90.152,53.755Z" transform="translate(59.015 33.091)" fill="#2a3852"/>
          <path id="Path_27668" data-name="Path 27668" d="M53.932,134.092l9.924-.058,7.067-.812-3.733-31.979c-7.157,9.2-12.447,28.983-13.313,32.354Z" transform="translate(20.884 39.244)" fill="#2a3852"/>
          <path id="Path_27669" data-name="Path 27669" d="M152.25,136.885l52.595.809c-1.554-31.43,2.84-52.324,2.84-52.324-39.757,19.038-55.435,51.515-55.435,51.515" transform="translate(59.015 33.091)" fill="#364560"/>
          <path id="Path_27670" data-name="Path 27670" d="M165.348,133.485s9.8-20.3,34.647-32.2c0,0,34.3,8.749,56.344,33.6Z" transform="translate(64.092 39.261)" fill="#1f2c43"/>
          <path id="Path_27671" data-name="Path 27671" d="M165.348,133.485l32.871.505c.717-12.731,1.776-32.7,1.776-32.7-24.848,11.9-34.647,32.2-34.647,32.2" transform="translate(64.092 39.261)" fill="#2a3852"/>
          <rect id="Rectangle_13406" data-name="Rectangle 13406" width="485.433" height="10.661" transform="translate(27.48 169.917)" fill="#344460"/>
          <rect id="Rectangle_13407" data-name="Rectangle 13407" width="87.969" height="11.065" transform="translate(27.184 169.917)" fill="#30405d"/>
          <rect id="Rectangle_13408" data-name="Rectangle 13408" width="5.888" height="4.51" transform="translate(30.958 176.472)" fill="#364560"/>
          <rect id="Rectangle_13409" data-name="Rectangle 13409" width="5.888" height="4.51" transform="translate(41.605 176.472)" fill="#4e5f80"/>
          <rect id="Rectangle_13410" data-name="Rectangle 13410" width="5.888" height="4.51" transform="translate(52.253 176.472)" fill="#364560"/>
          <rect id="Rectangle_13411" data-name="Rectangle 13411" width="5.888" height="4.51" transform="translate(62.901 176.472)" fill="#4e5f80"/>
          <rect id="Rectangle_13412" data-name="Rectangle 13412" width="5.888" height="4.51" transform="translate(73.549 176.472)" fill="#364560"/>
          <rect id="Rectangle_13413" data-name="Rectangle 13413" width="5.888" height="4.51" transform="translate(84.197 176.472)" fill="#364560"/>
          <rect id="Rectangle_13414" data-name="Rectangle 13414" width="5.888" height="4.51" transform="translate(94.845 176.472)" fill="#364560"/>
          <rect id="Rectangle_13415" data-name="Rectangle 13415" width="5.888" height="4.51" transform="translate(105.492 176.472)" fill="#364560"/>
          <rect id="Rectangle_13416" data-name="Rectangle 13416" width="221.796" height="30.297" transform="translate(113.64 176.263)" fill="#364560"/>
          <rect id="Rectangle_13417" data-name="Rectangle 13417" width="14.846" height="12.348" transform="translate(123.154 194.212)" fill="#2a3852"/>
          <rect id="Rectangle_13418" data-name="Rectangle 13418" width="14.846" height="12.348" transform="translate(150 194.212)" fill="#384764"/>
          <rect id="Rectangle_13419" data-name="Rectangle 13419" width="14.846" height="12.348" transform="translate(176.846 194.212)" fill="#1c2a43"/>
          <rect id="Rectangle_13420" data-name="Rectangle 13420" width="14.846" height="12.348" transform="translate(203.693 194.212)" fill="#384764"/>
          <rect id="Rectangle_13421" data-name="Rectangle 13421" width="14.846" height="12.348" transform="translate(230.539 194.212)" fill="#1c2a43"/>
          <rect id="Rectangle_13422" data-name="Rectangle 13422" width="14.846" height="12.348" transform="translate(257.384 194.212)" fill="#2a3852"/>
          <rect id="Rectangle_13423" data-name="Rectangle 13423" width="14.846" height="12.348" transform="translate(284.231 194.212)" fill="#0c3e87"/>
          <rect id="Rectangle_13424" data-name="Rectangle 13424" width="14.846" height="12.348" transform="translate(311.077 194.212)" fill="#0071e3"/>
          <rect id="Rectangle_13425" data-name="Rectangle 13425" width="411.197" height="7.092" transform="translate(113.64 206.561)" fill="#2a3852"/>
          <rect id="Rectangle_13426" data-name="Rectangle 13426" width="117.408" height="14.768" transform="translate(12.463 180.981)" fill="#263753"/>
          <rect id="Rectangle_13427" data-name="Rectangle 13427" width="7.858" height="6.019" transform="translate(17.501 189.73)" fill="#2e415d"/>
          <rect id="Rectangle_13428" data-name="Rectangle 13428" width="7.858" height="6.019" transform="translate(31.712 189.73)" fill="#435371"/>
          <rect id="Rectangle_13429" data-name="Rectangle 13429" width="7.858" height="6.019" transform="translate(45.923 189.73)" fill="#2e415d"/>
          <rect id="Rectangle_13430" data-name="Rectangle 13430" width="7.858" height="6.019" transform="translate(60.134 189.73)" fill="#435371"/>
          <rect id="Rectangle_13431" data-name="Rectangle 13431" width="7.858" height="6.019" transform="translate(74.344 189.73)" fill="#2e415d"/>
          <rect id="Rectangle_13432" data-name="Rectangle 13432" width="7.858" height="6.019" transform="translate(88.556 189.73)" fill="#435371"/>
          <rect id="Rectangle_13433" data-name="Rectangle 13433" width="7.858" height="6.019" transform="translate(102.767 189.73)" fill="#2e415d"/>
          <rect id="Rectangle_13434" data-name="Rectangle 13434" width="7.858" height="6.019" transform="translate(116.979 189.73)" fill="#435371"/>
          <rect id="Rectangle_13435" data-name="Rectangle 13435" width="142.336" height="17.903" transform="translate(0 195.75)" fill="#30405d"/>
          <rect id="Rectangle_13436" data-name="Rectangle 13436" width="9.527" height="7.297" transform="translate(6.104 206.355)" fill="#465571"/>
          <rect id="Rectangle_13437" data-name="Rectangle 13437" width="9.527" height="7.297" transform="translate(23.333 206.355)" fill="#5a6a88"/>
          <rect id="Rectangle_13438" data-name="Rectangle 13438" width="9.527" height="7.297" transform="translate(40.561 206.355)" fill="#465571"/>
          <rect id="Rectangle_13439" data-name="Rectangle 13439" width="9.527" height="7.297" transform="translate(57.79 206.355)" fill="#5a6a88"/>
          <rect id="Rectangle_13440" data-name="Rectangle 13440" width="9.527" height="7.297" transform="translate(75.019 206.355)" fill="#5a6a88"/>
          <rect id="Rectangle_13441" data-name="Rectangle 13441" width="9.527" height="7.297" transform="translate(92.247 206.355)" fill="#465571"/>
          <rect id="Rectangle_13442" data-name="Rectangle 13442" width="9.527" height="7.297" transform="translate(109.476 206.355)" fill="#5a6a88"/>
          <rect id="Rectangle_13443" data-name="Rectangle 13443" width="9.527" height="7.297" transform="translate(126.705 206.355)" fill="#465571"/>
          <rect id="Rectangle_13444" data-name="Rectangle 13444" width="255.234" height="32.104" transform="translate(257.681 174.457)" fill="#273753"/>
          <rect id="Rectangle_13445" data-name="Rectangle 13445" width="17.084" height="13.085" transform="translate(268.628 193.476)" fill="#384764"/>
          <rect id="Rectangle_13446" data-name="Rectangle 13446" width="17.084" height="13.085" transform="translate(299.521 193.476)" fill="#1c2a43"/>
          <rect id="Rectangle_13447" data-name="Rectangle 13447" width="17.084" height="13.085" transform="translate(330.414 193.476)" fill="#384764"/>
          <rect id="Rectangle_13448" data-name="Rectangle 13448" width="17.084" height="13.085" transform="translate(361.308 193.476)" fill="#1c2a43"/>
          <rect id="Rectangle_13449" data-name="Rectangle 13449" width="17.084" height="13.085" transform="translate(392.203 193.476)" fill="#384764"/>
          <rect id="Rectangle_13450" data-name="Rectangle 13450" width="17.084" height="13.085" transform="translate(423.096 193.476)" fill="#1c2a43"/>
          <rect id="Rectangle_13451" data-name="Rectangle 13451" width="17.084" height="13.085" transform="translate(453.99 193.476)" fill="#384764"/>
          <rect id="Rectangle_13452" data-name="Rectangle 13452" width="17.084" height="13.085" transform="translate(484.885 193.476)" fill="#1c2a43"/>
          <rect id="Rectangle_13453" data-name="Rectangle 13453" width="524.837" height="213.653" fill="none"/>
        </g>
        <g id="Group_59309" data-name="Group 59309" transform="translate(16537 4304.802)">
          <g id="Group_59308" data-name="Group 59308" clip-path="url(#clip-path-14)">
            <path id="Path_27672" data-name="Path 27672" d="M467.926,116.388c0,1.556-9.027,2.819-20.157,2.819s-20.161-1.262-20.161-2.819,9.027-2.817,20.161-2.817,20.157,1.261,20.157,2.817" transform="translate(146.049 38.79)" fill="#26344d"/>
            <path id="Path_27673" data-name="Path 27673" d="M460.2,107.574H434.23l-4.995,5.636v3.952h35.952V113.21Z" transform="translate(146.604 36.742)" fill="#26344d"/>
            <path id="Path_27674" data-name="Path 27674" d="M451.386,102.843H437.292l-2.709,3.06v3.285H454.1V105.9Z" transform="translate(148.431 35.126)" fill="#26344d"/>
            <path id="Path_27675" data-name="Path 27675" d="M447.293,100.146h-8.039l-1.547,1.745v1.873h11.128v-1.873Z" transform="translate(149.498 34.205)" fill="#26344d"/>
            <path id="Path_27676" data-name="Path 27676" d="M445.364,98.406h-5.185l-1,1.126v1.209h7.179V99.532Z" transform="translate(150.001 33.61)" fill="#26344d"/>
            <path id="Path_27677" data-name="Path 27677" d="M442.064,89.578l-.817,11.843h1.634Z" transform="translate(150.707 30.595)" fill="#26344d"/>
            <path id="Path_27678" data-name="Path 27678" d="M475.175,127.994V121.03a17.164,17.164,0,0,0-5.38-1.751v-3.609H429.478v3.7c-2.533.25-5.042.567-7.344.973v6.916a19.466,19.466,0,0,1,2.051-.317v2.133c-.762.07-1.457.148-2.051.232v2.164a19.466,19.466,0,0,1,2.051-.317v2.134c-.762.07-1.457.148-2.051.232v2.163a20.366,20.366,0,0,1,2.051-.315v2.134c-.762.071-1.457.148-2.051.232V139.9a19.466,19.466,0,0,1,2.051-.317v2.134c-.762.071-1.457.148-2.051.232v2.165a19.465,19.465,0,0,1,2.051-.317v2.134c-.762.071-1.457.148-2.051.232v2.165a19.98,19.98,0,0,1,2.051-.317v2.136c-.762.07-1.457.146-2.051.231v2.165a19.47,19.47,0,0,1,2.051-.317v2.134c-.762.071-1.457.149-2.051.232v2.165a19.98,19.98,0,0,1,2.051-.317v2.136c-.762.07-1.457.146-2.051.231v2.165a19.329,19.329,0,0,1,2.051-.315V162.8c-.762.071-1.457.149-2.051.232V165.2a19.971,19.971,0,0,1,2.051-.317v2.134c-.762.071-1.457.148-2.051.232v2.165a19.981,19.981,0,0,1,2.051-.317v2.136c-.762.07-1.457.146-2.051.231v2.165a19.468,19.468,0,0,1,2.051-.317v2.134c-.762.071-1.457.149-2.051.232v2.165a19.981,19.981,0,0,1,2.051-.317v2.136c-.762.071-1.457.146-2.051.232v2.164a19.329,19.329,0,0,1,2.051-.315v2.133c-.762.071-1.457.149-2.051.232v2.167a19.606,19.606,0,0,1,2.051-.318v2.136c-.762.071-1.457.146-2.051.231v2.165a19.831,19.831,0,0,1,2.051-.315v2.134c-.762.07-1.457.148-2.051.231V194.7a19.606,19.606,0,0,1,2.051-.318v2.136c-.762.071-1.457.148-2.051.231v2.165a19.825,19.825,0,0,1,2.051-.315v2.134c-.762.071-1.457.148-2.051.232v2.165a19.334,19.334,0,0,1,2.051-.315v2.133c-.762.071-1.457.149-2.051.231v2.165a20.36,20.36,0,0,1,2.051-.315v2.134c-.762.071-1.457.148-2.051.232v2.165a19.974,19.974,0,0,1,2.051-.317v2.136c-.762.07-1.457.146-2.051.229v2.167a19.468,19.468,0,0,1,2.051-.317V217.6c-.762.07-1.457.146-2.051.231v2.165a19.821,19.821,0,0,1,2.051-.315v2.133c-.762.071-1.457.148-2.051.233v2.164a19.465,19.465,0,0,1,2.051-.317v2.136c-.762.07-1.457.148-2.051.231v2.165a19.829,19.829,0,0,1,2.051-.315v2.133c-.762.072-1.457.148-2.051.233v2.164a19.468,19.468,0,0,1,2.051-.317v2.136c-.762.07-1.457.148-2.051.229v2.168a19.468,19.468,0,0,1,2.051-.317v2.133c-.762.071-1.457.148-2.051.233v5.027h53.041v-6.96c-.225-.062-.472-.123-.767-.193v-1.973c.251.054.51.111.767.169v-1.967c-.225-.06-.472-.122-.767-.192v-1.972c.251.052.51.11.767.168v-1.967c-.225-.059-.472-.122-.767-.19v-1.973c.251.054.51.111.767.169v-1.967c-.225-.06-.472-.122-.767-.192V222.92c.251.054.51.111.767.169v-1.967c-.225-.06-.472-.123-.767-.193v-1.971c.251.052.51.11.767.168v-1.967c-.225-.059-.472-.123-.767-.192V215c.251.054.51.111.767.168V213.2c-.225-.06-.472-.123-.767-.193v-1.972c.251.054.51.111.767.169v-1.965c-.225-.06-.472-.123-.767-.193v-1.973c.251.054.51.11.767.168v-1.964c-.225-.059-.472-.123-.767-.192v-1.973c.251.052.51.11.767.168V201.31c-.225-.059-.472-.122-.767-.191v-1.975c.251.054.51.111.767.168v-1.965c-.225-.06-.472-.122-.767-.192v-1.973c.251.054.51.111.767.169v-1.965c-.225-.06-.472-.123-.767-.192V191.22c.251.054.51.11.767.168v-1.965c-.225-.059-.472-.123-.767-.191v-1.973c.251.052.51.11.767.168v-1.965c-.225-.06-.472-.123-.767-.193V183.3c.251.054.51.111.767.168V181.5c-.225-.06-.472-.125-.767-.193v-1.972c.251.054.51.11.767.168v-1.965c-.225-.06-.472-.123-.767-.193v-1.972c.251.054.51.111.767.169v-1.965c-.225-.06-.472-.123-.767-.193v-1.973c.251.054.51.11.767.168v-1.964c-.225-.059-.472-.123-.767-.192v-1.973c.251.052.51.11.767.168v-1.965c-.225-.059-.472-.122-.767-.192v-1.973c.251.054.51.111.767.168v-1.965c-.225-.059-.472-.122-.767-.191v-1.973c.251.054.51.11.767.168v-1.965c-.225-.06-.472-.123-.767-.192v-1.973c.251.054.51.111.767.169v-1.965c-.225-.06-.472-.125-.767-.192V151.6c.251.052.51.11.767.168V149.8c-.225-.06-.472-.123-.767-.193v-1.972c.251.054.51.111.767.169v-1.965c-.225-.06-.472-.123-.767-.193v-1.972c.251.054.51.11.767.168v-1.965c-.225-.059-.472-.123-.767-.192V139.71c.251.054.51.11.767.168v-1.964c-.225-.06-.472-.123-.767-.193v-1.973c.251.054.51.111.767.169v-1.964c-.225-.062-.472-.125-.767-.193v-1.972c.251.052.51.11.767.168v-1.964c-.225-.06-.472-.123-.767-.193v-1.971c.251.054.51.111.767.168m-40.97,110.133c-2.773.09-5.578.215-7.971.381v-2.181c1.842-.162,4.426-.333,7.971-.461Zm0-4.215c-2.773.091-5.578.213-7.971.381v-2.18c1.842-.165,4.426-.334,7.971-.462Zm0-4.215c-2.773.09-5.578.215-7.971.381V227.9c1.842-.162,4.426-.333,7.971-.461Zm0-4.216c-2.773.091-5.578.213-7.971.382v-2.18c1.842-.165,4.426-.334,7.971-.461Zm0-4.215c-2.773.091-5.578.216-7.971.382v-2.18c1.842-.164,4.426-.334,7.971-.463Zm0-4.215c-2.773.091-5.578.213-7.971.382v-2.18c1.842-.165,4.426-.334,7.971-.463Zm0-4.215c-2.773.091-5.578.215-7.971.381v-2.18c1.842-.162,4.426-.334,7.971-.462Zm0-4.214c-2.773.09-5.578.213-7.971.381v-2.181c1.842-.162,4.426-.333,7.971-.462Zm0-4.216c-2.773.091-5.578.215-7.971.382v-2.181c1.842-.164,4.426-.334,7.971-.462Zm0-4.214c-2.773.09-5.578.213-7.971.381v-2.181c1.842-.162,4.426-.333,7.971-.461Zm0-4.216c-2.773.091-5.578.213-7.971.382v-2.181c1.842-.164,4.426-.334,7.971-.461Zm0-4.215c-2.773.091-5.578.215-7.971.382v-2.181c1.842-.164,4.426-.333,7.971-.461Zm0-4.215c-2.773.09-5.578.215-7.971.382v-2.181c1.842-.164,4.426-.334,7.971-.461Zm0-4.215c-2.773.091-5.578.213-7.971.381v-2.181c1.842-.162,4.426-.333,7.971-.46Zm0-4.215c-2.773.09-5.578.215-7.971.382v-2.181c1.842-.164,4.426-.334,7.971-.463Zm0-4.215c-2.773.09-5.578.213-7.971.381V173.1c1.842-.164,4.426-.334,7.971-.463Zm0-4.215c-2.773.09-5.578.215-7.971.381v-2.18c1.842-.164,4.426-.334,7.971-.462Zm0-4.215c-2.773.09-5.578.213-7.971.381v-2.18c1.842-.164,4.426-.334,7.971-.463Zm0-4.216c-2.773.093-5.578.215-7.971.382v-2.181c1.842-.164,4.426-.333,7.971-.46Zm0-4.214c-2.773.09-5.578.215-7.971.381v-2.18c1.842-.164,4.426-.334,7.971-.463Zm0-4.216c-2.773.091-5.578.215-7.971.382v-2.181c1.842-.164,4.426-.333,7.971-.462Zm0-4.215c-2.773.091-5.578.215-7.971.382v-2.18c1.842-.164,4.426-.334,7.971-.463Zm0-4.215c-2.773.091-5.578.215-7.971.382v-2.18c1.842-.164,4.426-.334,7.971-.463Zm0-4.215c-2.773.091-5.578.213-7.971.381v-2.18c1.842-.164,4.426-.334,7.971-.461Zm0-4.214c-2.773.09-5.578.213-7.971.381v-2.18c1.842-.164,4.426-.334,7.971-.463Zm0-4.215c-2.773.091-5.578.215-7.971.382v-2.18c1.842-.164,4.426-.334,7.971-.461Zm0-4.214c-2.773.091-5.578.215-7.971.382v-2.18c1.842-.164,4.426-.333,7.971-.462Zm9.11,109.388c-1.949.027-4.434.071-7.059.144V235.8c2.059-.058,4.4-.1,7.059-.125Zm0-4.218c-1.949.028-4.434.074-7.059.146v-2.266c2.059-.058,4.4-.1,7.059-.125Zm0-4.214c-1.949.028-4.434.072-7.059.144V227.37c2.059-.059,4.4-.1,7.059-.125Zm0-4.215c-1.949.027-4.434.071-7.059.145v-2.266c2.059-.058,4.4-.1,7.059-.123Zm0-4.215c-1.949.027-4.434.072-7.059.145v-2.266c2.059-.059,4.4-.1,7.059-.126Zm0-4.215c-1.949.027-4.434.071-7.059.145v-2.266c2.059-.056,4.4-.1,7.059-.125Zm0-4.216c-1.949.028-4.434.072-7.059.146v-2.266c2.059-.058,4.4-.1,7.059-.126Zm0-4.215c-1.949.028-4.434.074-7.059.146v-2.266c2.059-.059,4.4-.1,7.059-.125Zm0-4.214c-1.949.027-4.434.072-7.059.144v-2.265c2.059-.058,4.4-.1,7.059-.125Zm0-4.216c-1.949.028-4.434.072-7.059.146v-2.266c2.059-.059,4.4-.1,7.059-.126Zm0-4.214c-1.949.025-4.434.071-7.059.144v-2.265c2.059-.058,4.4-.1,7.059-.125Zm0-4.216c-1.949.028-4.434.072-7.059.145v-2.265c2.059-.059,4.4-.1,7.059-.126Zm0-4.215c-1.949.028-4.434.072-7.059.145v-2.266c2.059-.058,4.4-.1,7.059-.123Zm0-4.215c-1.949.027-4.434.072-7.059.145V181c2.059-.059,4.4-.1,7.059-.125Zm0-4.215c-1.949.028-4.434.072-7.059.145v-2.266c2.059-.058,4.4-.1,7.059-.125Zm0-4.215c-1.949.027-4.434.071-7.059.145v-2.265c2.059-.058,4.4-.1,7.059-.126Zm0-4.215c-1.949.028-4.434.072-7.059.145v-2.266c2.059-.058,4.4-.1,7.059-.125Zm0-4.216c-1.949.028-4.434.072-7.059.146v-2.266c2.059-.059,4.4-.1,7.059-.125Zm0-4.214c-1.949.027-4.434.072-7.059.145v-2.266c2.059-.058,4.4-.1,7.059-.125Zm0-4.216c-1.949.03-4.434.074-7.059.146v-2.266c2.059-.059,4.4-.1,7.059-.125Zm0-4.214c-1.949.027-4.434.071-7.059.145V151.5c2.059-.058,4.4-.1,7.059-.125Zm0-4.215c-1.949.028-4.434.072-7.059.145v-2.266c2.059-.058,4.4-.1,7.059-.125Zm0-4.215c-1.949.027-4.434.071-7.059.144v-2.266c2.059-.056,4.4-.1,7.059-.123Zm0-4.215c-1.949.025-4.434.072-7.059.144V138.85c2.059-.058,4.4-.1,7.059-.125Zm0-4.216c-1.949.028-4.434.072-7.059.146v-2.266c2.059-.059,4.4-.1,7.059-.125Zm0-4.214c-1.949.028-4.434.072-7.059.145v-2.265c2.059-.058,4.4-.1,7.059-.125Zm0-4.212c-1.949.027-4.434.071-7.059.145v-2.265c2.059-.059,4.4-.1,7.059-.126Zm4.014,109.551s-.739,0-1.963.016v-2.232q.956,0,1.963,0Zm0-4.215s-.739,0-1.963.016v-2.234q.956,0,1.963,0Zm0-4.215s-.739,0-1.963.016v-2.231q.956-.006,1.963-.005Zm0-4.215s-.739,0-1.963.016v-2.234q.956,0,1.963,0Zm0-4.215s-.739,0-1.963.016V218.8q.956-.006,1.963-.005Zm0-4.215s-.739,0-1.963.016v-2.234l1.963,0Zm0-4.215s-.739,0-1.963.015v-2.232q.956,0,1.963,0Zm0-4.215s-.739,0-1.963.016v-2.234c.637,0,1.292,0,1.963,0Zm0-4.215s-.739,0-1.963.015v-2.232c.637,0,1.292,0,1.963,0Zm0-4.215s-.739,0-1.963.016v-2.234c.637,0,1.292,0,1.963,0Zm0-4.216s-.739,0-1.963.016V193.51q.956,0,1.963,0Zm0-4.215s-.739,0-1.963.016V189.3q.956,0,1.963,0Zm0-4.215s-.739,0-1.963.017V185.08q.956,0,1.963,0Zm0-4.214s-.739,0-1.963.015v-2.232q.956,0,1.963,0Zm0-4.216s-.739,0-1.963.017V176.65q.956,0,1.963,0Zm0-4.215s-.739,0-1.963.016v-2.232q.956,0,1.963,0Zm0-4.215s-.739,0-1.963.017v-2.235l1.963,0Zm0-4.215s-.739,0-1.963.016V164q.956,0,1.963,0Zm0-4.215s-.739,0-1.963.015v-2.232q.956,0,1.963,0Zm0-4.215s-.739,0-1.963.016v-2.232q.956,0,1.963,0Zm0-4.215s-.739,0-1.963.016v-2.232c.637,0,1.292,0,1.963,0Zm0-4.215s-.739,0-1.963.016v-2.232q.956,0,1.963,0Zm0-4.215s-.739,0-1.963.016v-2.232q.956,0,1.963-.005Zm0-4.215s-.739,0-1.963.015v-2.232q.956,0,1.963,0Zm0-4.215s-.739,0-1.963.016V134.5c.637,0,1.292,0,1.963,0Zm0-4.215s-.739,0-1.963.016v-2.231q.956,0,1.963,0Zm0-4.212s-.739,0-1.963.016v-2.231q.956,0,1.963,0Zm16.827,106.947-1.2-.126v-1.854s.431.011,1.2.062Zm0-3.963c-.388-.042-.784-.082-1.2-.125v-1.855s.431.012,1.2.063Zm0-3.963c-.388-.042-.784-.082-1.2-.123v-1.855s.431.012,1.2.062Zm0-3.962c-.388-.042-.784-.082-1.2-.125v-1.855s.431.011,1.2.063Zm0-3.962-1.2-.126V217.4s.431.011,1.2.062Zm0-3.963c-.388-.042-.784-.082-1.2-.125V213.44s.431.013,1.2.063Zm0-3.962c-.388-.042-.784-.085-1.2-.126v-1.855s.431.011,1.2.063Zm0-3.963c-.388-.042-.784-.083-1.2-.125v-1.855s.431.012,1.2.063Zm0-3.962c-.388-.043-.784-.085-1.2-.126v-1.855s.431.012,1.2.063Zm0-3.963c-.388-.043-.784-.083-1.2-.125v-1.855s.431.011,1.2.063Zm0-3.963c-.388-.042-.784-.083-1.2-.125V193.63s.431.012,1.2.063Zm0-3.963c-.388-.042-.784-.082-1.2-.123v-1.855s.431.012,1.2.063Zm0-3.962-1.2-.126v-1.854s.431.011,1.2.063Zm0-3.962-1.2-.126v-1.854s.431.011,1.2.062Zm0-3.963c-.388-.042-.784-.083-1.2-.125v-1.855s.431.011,1.2.062Zm0-3.962c-.388-.042-.784-.085-1.2-.126v-1.855s.431.012,1.2.063Zm0-3.963c-.388-.042-.784-.083-1.2-.125v-1.855s.431.011,1.2.062Zm0-3.962c-.388-.043-.784-.085-1.2-.126v-1.855s.431.012,1.2.063Zm0-3.962c-.388-.044-.784-.085-1.2-.126v-1.855s.431.012,1.2.063Zm0-3.964c-.388-.042-.784-.082-1.2-.125V157.97s.431.011,1.2.062Zm0-3.962c-.388-.042-.784-.083-1.2-.125v-1.855s.431.011,1.2.063Zm0-3.963c-.388-.042-.784-.083-1.2-.125v-1.854s.431.009,1.2.062Zm0-3.962-1.2-.126v-1.854s.431.011,1.2.062Zm0-3.962c-.388-.043-.784-.085-1.2-.126V142.12s.431.012,1.2.063Zm0-3.963-1.2-.126v-1.855s.431.012,1.2.063Zm0-3.962c-.388-.043-.784-.085-1.2-.126V134.2s.431.011,1.2.063Zm0-3.962c-.388-.043-.784-.085-1.2-.125v-1.854s.431.009,1.2.06Zm0-3.96c-.388-.042-.784-.085-1.2-.126v-1.854s.431.012,1.2.063Zm4.954,107.588c-1.048-.149-2.238-.3-3.587-.457v-1.957c.965.089,2.176.225,3.587.428Zm0-3.963c-1.048-.149-2.238-.3-3.587-.456v-1.959c.965.09,2.176.225,3.587.429Zm0-3.963c-1.048-.148-2.238-.3-3.587-.455V225.5c.965.09,2.176.225,3.587.428Zm0-3.962c-1.048-.148-2.238-.3-3.587-.456v-1.959c.965.09,2.176.227,3.587.429Zm0-3.963c-1.048-.148-2.238-.3-3.587-.457v-1.957c.965.09,2.176.227,3.587.429Zm0-3.963c-1.048-.148-2.238-.3-3.587-.456v-1.957c.965.09,2.176.224,3.587.429Zm0-3.96c-1.048-.149-2.238-.3-3.587-.457v-1.959c.965.091,2.176.225,3.587.429Zm0-3.963c-1.048-.148-2.238-.3-3.587-.456v-1.959c.965.09,2.176.225,3.587.428Zm0-3.962c-1.048-.15-2.238-.3-3.587-.457V201.73c.965.089,2.176.225,3.587.427Zm0-3.963c-1.048-.149-2.238-.3-3.587-.457v-1.959c.965.09,2.176.227,3.587.429Zm0-3.963c-1.048-.149-2.238-.3-3.587-.456V193.8c.965.089,2.176.227,3.587.429Zm0-3.963c-1.048-.148-2.238-.3-3.587-.455v-1.959c.965.089,2.176.225,3.587.428Zm0-3.962c-1.048-.148-2.238-.3-3.587-.456V185.88c.965.09,2.176.225,3.587.429Zm0-3.963c-1.048-.148-2.238-.3-3.587-.456v-1.959c.965.09,2.176.225,3.587.429Zm0-3.962c-1.048-.148-2.238-.3-3.587-.457v-1.959c.965.091,2.176.227,3.587.431Zm0-3.963c-1.048-.148-2.238-.3-3.587-.456v-1.959c.965.09,2.176.225,3.587.431Zm0-3.962c-1.048-.148-2.238-.3-3.587-.456v-1.959c.965.089,2.176.225,3.587.428Zm0-3.962c-1.048-.15-2.238-.3-3.587-.457v-1.959c.965.09,2.176.225,3.587.429Zm0-3.963c-1.048-.149-2.238-.3-3.587-.456v-1.959c.965.089,2.176.225,3.587.428Zm0-3.962c-1.048-.149-2.238-.3-3.587-.457v-1.959c.965.089,2.176.225,3.587.429Zm0-3.964c-1.048-.148-2.238-.3-3.587-.455v-1.959c.965.089,2.176.225,3.587.429Zm0-3.962c-1.048-.148-2.238-.3-3.587-.456V150.22c.965.089,2.176.224,3.587.428Zm0-3.963c-1.048-.148-2.238-.3-3.587-.456v-1.959c.965.091,2.176.225,3.587.431Zm0-3.962c-1.048-.148-2.238-.3-3.587-.456v-1.959c.965.09,2.176.225,3.587.429Zm0-3.962c-1.048-.148-2.238-.3-3.587-.457v-1.959c.965.09,2.176.225,3.587.429Zm0-3.963c-1.048-.148-2.238-.3-3.587-.456v-1.959c.965.089,2.176.225,3.587.428Zm0-3.963c-1.048-.146-2.238-.3-3.587-.455v-1.959c.965.091,2.176.227,3.587.431Zm0-3.959c-1.048-.149-2.238-.3-3.587-.456v-1.957c.965.089,2.176.225,3.587.429Zm3.928,107.626c-.71-.138-1.559-.287-2.56-.443v-1.979c.8.13,1.661.283,2.56.459Zm0-3.963c-.71-.138-1.559-.287-2.56-.443V230.1c.8.131,1.661.283,2.56.46Zm0-3.962c-.71-.14-1.559-.287-2.56-.444v-1.977c.8.132,1.661.283,2.56.46Zm0-3.962c-.71-.14-1.559-.287-2.56-.444v-1.979c.8.131,1.661.284,2.56.46Zm0-3.963c-.71-.14-1.559-.287-2.56-.443v-1.979c.8.131,1.661.284,2.56.46Zm0-3.963c-.71-.14-1.559-.287-2.56-.443v-1.977c.8.131,1.661.283,2.56.46Zm0-3.962c-.71-.138-1.559-.287-2.56-.444v-1.977c.8.13,1.661.284,2.56.46Zm0-3.963c-.71-.138-1.559-.287-2.56-.444v-1.976c.8.13,1.661.283,2.56.459Zm0-3.962c-.71-.138-1.559-.288-2.56-.444V202.37c.8.13,1.661.282,2.56.457Zm0-3.963c-.71-.138-1.559-.288-2.56-.444v-1.977c.8.131,1.661.283,2.56.459Zm0-3.963c-.71-.138-1.559-.287-2.56-.443v-1.977c.8.131,1.661.282,2.56.459Zm0-3.962c-.71-.14-1.559-.287-2.56-.444v-1.977c.8.131,1.661.283,2.56.46Zm0-3.962c-.71-.14-1.559-.288-2.56-.444v-1.977c.8.13,1.661.283,2.56.459Zm0-3.963c-.71-.139-1.559-.287-2.56-.443v-1.977c.8.13,1.661.283,2.56.459Zm0-3.962c-.71-.14-1.559-.288-2.56-.444v-1.977c.8.131,1.661.283,2.56.459Zm0-3.964c-.71-.138-1.559-.286-2.56-.443v-1.977c.8.13,1.661.283,2.56.46Zm0-3.962c-.71-.138-1.559-.288-2.56-.444V170.67c.8.13,1.661.283,2.56.459Zm0-3.963c-.71-.137-1.559-.287-2.56-.443v-1.976c.8.129,1.661.282,2.56.457Zm0-3.962c-.71-.138-1.559-.287-2.56-.444v-1.977c.8.131,1.661.283,2.56.46Zm0-3.962c-.71-.14-1.559-.288-2.56-.444v-1.977c.8.131,1.661.283,2.56.459Zm0-3.963c-.71-.14-1.559-.287-2.56-.443V154.82c.8.131,1.661.283,2.56.46Zm0-3.962c-.71-.14-1.559-.288-2.56-.444v-1.977c.8.131,1.661.283,2.56.46Zm0-3.963c-.71-.14-1.559-.287-2.56-.443V146.9c.8.131,1.661.283,2.56.46Zm0-3.962c-.71-.14-1.559-.287-2.56-.445v-1.976c.8.13,1.661.283,2.56.46Zm0-3.963c-.71-.138-1.559-.287-2.56-.444v-1.976c.8.13,1.661.283,2.56.457Zm0-3.963c-.71-.138-1.559-.287-2.56-.443v-1.977c.8.13,1.661.283,2.56.459Zm0-3.96c-.71-.14-1.559-.288-2.56-.444v-1.976c.8.13,1.661.282,2.56.457Zm0-3.962c-.71-.14-1.559-.287-2.56-.444v-1.976c.8.13,1.661.283,2.56.46Z" transform="translate(144.179 39.507)" fill="#26344d"/>
            <path id="Path_27682" data-name="Path 27682" d="M165.844,49.537,158.27,56.22v210.3h7.574Z" transform="translate(54.057 16.919)" fill="#26344d"/>
            <path id="Path_27683" data-name="Path 27683" d="M163.916,49.537V266.52H165.7V52.433h3.34V266.52h1.449V52.433h3.342V266.52h1.449V52.433h3.34V266.52h1.449V52.433h3.342V266.52h1.448V52.433H188.2V266.52h1.448V52.433h3.342V266.52h1.448V52.433h3.342V266.52h1.448V52.433h3.342V266.52h1.449V52.433h3.342V266.52h1.783V49.537Z" transform="translate(55.985 16.919)" fill="#26344d"/>
            <rect id="Rectangle_13454" data-name="Rectangle 13454" width="42.664" height="2.004" transform="translate(221.182 75.09)" fill="#26344d"/>
            <rect id="Rectangle_13455" data-name="Rectangle 13455" width="42.664" height="2.004" transform="translate(221.182 80.102)" fill="#26344d"/>
            <rect id="Rectangle_13456" data-name="Rectangle 13456" width="42.664" height="2.006" transform="translate(221.182 85.115)" fill="#26344d"/>
            <rect id="Rectangle_13457" data-name="Rectangle 13457" width="42.664" height="2.006" transform="translate(221.182 90.127)" fill="#26344d"/>
            <rect id="Rectangle_13458" data-name="Rectangle 13458" width="42.664" height="2.004" transform="translate(221.182 95.141)" fill="#26344d"/>
            <rect id="Rectangle_13459" data-name="Rectangle 13459" width="42.664" height="2.004" transform="translate(221.182 100.153)" fill="#26344d"/>
            <rect id="Rectangle_13460" data-name="Rectangle 13460" width="42.664" height="2.004" transform="translate(221.182 105.165)" fill="#26344d"/>
            <rect id="Rectangle_13461" data-name="Rectangle 13461" width="42.664" height="2.006" transform="translate(221.182 110.179)" fill="#26344d"/>
            <rect id="Rectangle_13462" data-name="Rectangle 13462" width="42.664" height="2.006" transform="translate(221.182 115.191)" fill="#26344d"/>
            <rect id="Rectangle_13463" data-name="Rectangle 13463" width="42.664" height="2.004" transform="translate(221.182 120.204)" fill="#26344d"/>
            <rect id="Rectangle_13464" data-name="Rectangle 13464" width="42.664" height="2.004" transform="translate(221.182 125.217)" fill="#26344d"/>
            <rect id="Rectangle_13465" data-name="Rectangle 13465" width="42.664" height="2.004" transform="translate(221.182 130.229)" fill="#26344d"/>
            <rect id="Rectangle_13466" data-name="Rectangle 13466" width="42.664" height="2.006" transform="translate(221.182 135.241)" fill="#26344d"/>
            <rect id="Rectangle_13467" data-name="Rectangle 13467" width="42.664" height="2.006" transform="translate(221.182 140.255)" fill="#26344d"/>
            <rect id="Rectangle_13468" data-name="Rectangle 13468" width="42.664" height="2.004" transform="translate(221.182 145.268)" fill="#26344d"/>
            <rect id="Rectangle_13469" data-name="Rectangle 13469" width="42.664" height="2.003" transform="translate(221.182 150.279)" fill="#26344d"/>
            <rect id="Rectangle_13470" data-name="Rectangle 13470" width="42.664" height="2.003" transform="translate(221.182 155.29)" fill="#26344d"/>
            <rect id="Rectangle_13471" data-name="Rectangle 13471" width="42.664" height="2.006" transform="translate(221.182 160.299)" fill="#26344d"/>
            <rect id="Rectangle_13472" data-name="Rectangle 13472" width="42.664" height="2.006" transform="translate(221.182 165.308)" fill="#26344d"/>
            <rect id="Rectangle_13473" data-name="Rectangle 13473" width="42.664" height="2.003" transform="translate(221.182 170.32)" fill="#26344d"/>
            <rect id="Rectangle_13474" data-name="Rectangle 13474" width="42.664" height="2.004" transform="translate(221.182 175.331)" fill="#26344d"/>
            <rect id="Rectangle_13475" data-name="Rectangle 13475" width="42.664" height="2.006" transform="translate(221.182 180.343)" fill="#26344d"/>
            <rect id="Rectangle_13476" data-name="Rectangle 13476" width="42.664" height="2.006" transform="translate(221.182 185.356)" fill="#26344d"/>
            <rect id="Rectangle_13477" data-name="Rectangle 13477" width="42.664" height="2.006" transform="translate(221.182 190.368)" fill="#26344d"/>
            <rect id="Rectangle_13478" data-name="Rectangle 13478" width="42.664" height="2.004" transform="translate(221.182 195.382)" fill="#26344d"/>
            <rect id="Rectangle_13479" data-name="Rectangle 13479" width="42.664" height="2.004" transform="translate(221.182 200.395)" fill="#26344d"/>
            <rect id="Rectangle_13480" data-name="Rectangle 13480" width="42.664" height="2.006" transform="translate(221.182 205.407)" fill="#26344d"/>
            <rect id="Rectangle_13481" data-name="Rectangle 13481" width="42.664" height="2.006" transform="translate(221.182 210.419)" fill="#26344d"/>
            <rect id="Rectangle_13482" data-name="Rectangle 13482" width="42.664" height="2.006" transform="translate(221.182 215.432)" fill="#26344d"/>
            <rect id="Rectangle_13483" data-name="Rectangle 13483" width="42.664" height="2.004" transform="translate(221.182 220.446)" fill="#26344d"/>
            <rect id="Rectangle_13484" data-name="Rectangle 13484" width="42.664" height="2.004" transform="translate(221.182 225.459)" fill="#26344d"/>
            <rect id="Rectangle_13485" data-name="Rectangle 13485" width="42.664" height="2.006" transform="translate(221.182 230.471)" fill="#26344d"/>
            <rect id="Rectangle_13486" data-name="Rectangle 13486" width="42.664" height="2.006" transform="translate(221.182 235.483)" fill="#26344d"/>
            <rect id="Rectangle_13487" data-name="Rectangle 13487" width="42.664" height="2.006" transform="translate(221.182 240.495)" fill="#26344d"/>
            <rect id="Rectangle_13488" data-name="Rectangle 13488" width="42.664" height="2.004" transform="translate(221.182 245.51)" fill="#26344d"/>
            <rect id="Rectangle_13489" data-name="Rectangle 13489" width="42.664" height="2.006" transform="translate(221.182 250.522)" fill="#26344d"/>
            <rect id="Rectangle_13490" data-name="Rectangle 13490" width="42.664" height="2.004" transform="translate(221.182 255.535)" fill="#26344d"/>
            <rect id="Rectangle_13491" data-name="Rectangle 13491" width="42.664" height="2.004" transform="translate(221.182 260.549)" fill="#26344d"/>
            <rect id="Rectangle_13492" data-name="Rectangle 13492" width="42.664" height="2.004" transform="translate(221.182 265.561)" fill="#26344d"/>
            <rect id="Rectangle_13493" data-name="Rectangle 13493" width="42.664" height="2.006" transform="translate(221.182 270.573)" fill="#26344d"/>
            <rect id="Rectangle_13494" data-name="Rectangle 13494" width="42.664" height="2.006" transform="translate(221.182 275.586)" fill="#26344d"/>
            <rect id="Rectangle_13495" data-name="Rectangle 13495" width="42.664" height="2.006" transform="translate(221.182 281.434)" fill="#26344d"/>
            <path id="Path_27684" data-name="Path 27684" d="M470.025,106.815l-.005-.005-.009-.066-.016-.11,0-.007-2.25-18.093-.3,43.156-4.811,61.557.318,2.833,9.542,57.12h.074l.013-.068,12.8-59.192Z" transform="translate(158.012 30.239)" fill="#26344d"/>
            <path id="Path_27685" data-name="Path 27685" d="M462.634,225.312h9.21l-9.21-55.123Z" transform="translate(158.012 58.128)" fill="#26344d"/>
            <path id="Path_27686" data-name="Path 27686" d="M467.659,111.008l.421.712,2.451,19.687,33.19-56.243-.05-.812-8.976.282V70c0-1.366-5.369-2.485-12.22-2.607h.038l-1.283-54.059L479.944,67.39h.042c-6.853.122-12.221,1.241-12.221,2.607v5.236a.608.608,0,0,0,.062.241l-5.192.162Z" transform="translate(158.012 4.553)" fill="#26344d"/>
            <path id="Path_27687" data-name="Path 27687" d="M501.2,152.682l-32.389-49.506,14.937,84.752Z" transform="translate(160.12 35.24)" fill="#26344d"/>
            <path id="Path_27688" data-name="Path 27688" d="M470.525,225.94h22.6l-10.147-57.589Z" transform="translate(160.707 57.5)" fill="#26344d"/>
            <path id="Path_27689" data-name="Path 27689" d="M480.31,168.433l10.13,57.479h2.71L497.3,198.4Z" transform="translate(164.049 57.528)" fill="#26344d"/>
            <path id="Path_27690" data-name="Path 27690" d="M494.2,217.752V192.324l-3.841,25.428Z" transform="translate(167.482 65.688)" fill="#26344d"/>
            <path id="Path_27691" data-name="Path 27691" d="M497.7,207.2V140.6l-17.6,35.555Z" transform="translate(163.978 48.021)" fill="#26344d"/>
            <path id="Path_27692" data-name="Path 27692" d="M501.73,60.278l-33.077,56.061,33,50.446,3.487-47.876Z" transform="translate(160.067 20.588)" fill="#26344d"/>
            <path id="Path_27693" data-name="Path 27693" d="M480.09,167.187l.028-.059-.058-.1Z" transform="translate(163.964 57.048)" fill="#26344d"/>
            <path id="Path_27694" data-name="Path 27694" d="M501.644,227.847l-1.435-37.563h-.6v-6.46h-11v1.4h-8.139v4.933h-.6l-.33,8.626h-1.826l-.2-3.7-.443-.165c-5.982-2.2-34.781-13.909-35.064-14.025-45.287-18.929-82.908-19.4-91.151-19.247-8.242-.153-45.866.318-91.151,19.247-.284.115-29.082,11.822-35.063,14.025l-.443.165-.2,3.7h-1.829l-.329-8.626h-.6v-4.933H213.1v-1.4H202.1v6.46h-.6l-1.435,37.563h15.072l-.005-.131h7.3l-.028.522.5-.522h.37l-.013-.37.479-.5a133.622,133.622,0,0,1,10.333-9.235.358.358,0,0,0,.306.178.342.342,0,0,0,.072-.008.359.359,0,0,0,.284-.351v-.361a208.13,208.13,0,0,1,20.495-14.624h.243v.385a.36.36,0,1,0,.719,0v-.385H445.517v.385a.359.359,0,1,0,.718,0v-.385h.243a207.776,207.776,0,0,1,20.494,14.624v.361a.362.362,0,0,0,.286.351.352.352,0,0,0,.072.008.362.362,0,0,0,.307-.178,133.744,133.744,0,0,1,10.331,9.235l.479.5-.015.37h.372l.5.522-.026-.522h7.3l-.005.131Zm-5.761-27.394H493.17v-2.711a1.356,1.356,0,0,1,2.713,0Zm-19.611-1.674h-.448l.4-.92Zm-.135-2.521-1.093,2.521h-7.354v-5.987c3.624,1.442,6.7,2.651,8.44,3.306Zm-8.448,6.189h5.759L467.689,215.7ZM252.978,185.164c.893-.361,1.728-.7,2.494-1.012v4.809Zm2.494,5.106v8.508H252.6V185.89Zm-3.593,8.508h-2.3l-2.644-4.047V187.6l4.941-1.995Zm-4.941-2.735,1.787,2.735h-1.787Zm-.716,2.735h-3.347v-8.959l3.347,5.125Zm0-5.146-2.967-4.541,2.967-1.2Zm-4.065,5.146h-3.991v-7.645c1.311-.525,2.651-1.062,3.991-1.6Zm0,3.668v6.037l-2.686-6.037Zm-4.709-4.549L235,192.4l2.446-.978Zm-.394.881h-2.32v-5.212Zm1.633,3.668,3.237,7.281q-1.972,1.443-3.758,2.812V202.446Zm4.188,0h3.347v4.221q-1.731,1.2-3.347,2.369Zm4.064,0h4.183l.424.647q-2.395,1.558-4.607,3.079Zm9.253-3.668v-7.415l4.148,6.319c-.631.368-1.25.731-1.859,1.1ZM279.8,175.269l8.193,8.987q-4.242,1.676-8.193,3.45Zm9.571-2.635,7.164,8.472q-3.67,1.258-7.164,2.605Zm8.351-2.6,8.234,8.112q-4.216,1.2-8.234,2.552Zm9.542-2.1,7.315,7.974c-2.482.581-4.926,1.2-7.315,1.866Zm8.6-1.659,7.593,7.784q-3.864.7-7.593,1.555Zm8.962-1.429,8.487,7.513v.2q-4.316.531-8.487,1.262Zm10.072-1.185c2.535-.207,4.834-.347,6.87-.439v8.193Zm6.222,8.106q-3.5.274-6.917.677a.291.291,0,0,0,.013-.083v-8.389Zm-7.808-.366-7.659-6.78c2.73-.343,5.287-.612,7.659-.825Zm-9.253,2.247-7.506-7.7c2.67-.445,5.18-.816,7.506-1.126Zm-8.932,1.8-7.239-7.888q3.781-.773,7.239-1.363Zm-8.613,2.248-8.13-8.009q4.21-1.028,8.13-1.846Zm-9.568,2.794-7.212-8.531q3.691-1.036,7.212-1.917Zm-8.471,3.24-8.138-8.931q4.153-1.342,8.138-2.483Zm-9.412,3.877-7.722-9.718q3.922-1.429,7.722-2.676Zm-.423.621q-4.051,1.841-7.77,3.738V178.444Zm-8.811,3.339-5.185-6.509v-4.624q2.614-1.034,5.185-1.991Zm-.126,1q-2.614,1.344-5.059,2.688v-9.041Zm-5.777-8.406-2.069-2.6q1.038-.427,2.069-.838Zm0,1.152v10.343q-1.288.712-2.523,1.423V182.135Zm0,11.985v1.489h-2.613c.851-.494,1.725-.991,2.613-1.489m.718-.4q2.5-1.387,5.185-2.782v4.673h-5.185Zm5.9-3.149c2.709-1.391,5.551-2.778,8.532-4.137v9.176h-8.532Zm9.25-4.461q4.254-1.922,8.853-3.74v13.24H279.8Zm9.571-4.023q3.683-1.437,7.578-2.774v16.3h-7.578Zm8.293-3.018q4.306-1.459,8.853-2.757v19.3h-8.853Zm9.571-2.962q3.864-1.085,7.9-2.023v21.526h-7.9Zm8.613-2.188c2.688-.614,5.424-1.182,8.214-1.684v23.375h-8.214Zm8.933-1.806q4.192-.734,8.534-1.28v24.777h-8.534Zm9.251-1.371q3.813-.461,7.738-.754v25.622h-7.738Zm8.453-10.707,7.866,7.938-.138.142c-.33-.005-.659-.017-.989-.02v.07q-3.407.1-6.739.338Zm10,8.13,0-.07c-.33,0-.655.015-.985.02l-.14-.142,7.863-7.938v8.468q-3.332-.233-6.736-.338M440.3,197.07q-1.234-.708-2.523-1.423V185.3l2.523-3.169Zm-72.8-24.629q-3.415-.4-6.917-.677l6.9-7.794v8.389a.29.29,0,0,0,.013.083m.891-.086,8.487-7.513v8.975q-4.174-.724-8.487-1.262Zm17.445,3.255q-3.729-.847-7.591-1.555l7.591-7.784Zm8.6,2.161c-2.389-.664-4.834-1.285-7.315-1.866l7.315-7.974Zm9.542,2.929q-4.013-1.346-8.237-2.552l8.237-8.112Zm8.351,3.012q-3.485-1.348-7.164-2.605l7.164-8.472Zm9.569,4q-3.946-1.765-8.191-3.45l8.191-8.987Zm8.929,4.254q-3.723-1.888-7.772-3.738l7.772-9.779Zm6.226,3.285q-2.441-1.34-5.06-2.688l5.06-6.352Zm.715-11.095v-3.436c.69.275,1.378.554,2.07.838Zm-.715.9-5.186,6.509V178.438q2.572.954,5.186,1.991ZM422.643,187.6V175.207q3.8,1.248,7.725,2.676Zm-9.41-3.877V172.311q3.978,1.141,8.138,2.483Zm-8.471-3.24V170.037q3.514.879,7.214,1.917Zm-9.569-2.794v-9.855q3.914.823,8.13,1.846Zm-8.615-2.248v-9.251q3.459.594,7.242,1.363Zm-8.929-1.8v-8.822c2.326.31,4.836.68,7.506,1.126ZM368.4,171.4v-7.605c2.372.213,4.929.482,7.659.825Zm-8.454.015v-8.193c2.035.091,4.333.232,6.87.439Zm7.737,2.5v24.868h-7.737V173.156q3.922.292,7.737.754m.718.091q4.339.541,8.532,1.28v23.5H368.4Zm9.253,1.4c2.788.5,5.526,1.069,8.214,1.684v21.691h-8.214Zm8.929,1.849q4.029.94,7.9,2.023v19.5h-7.9Zm8.615,2.228q4.544,1.292,8.852,2.757v16.541h-8.852Zm9.569,3q3.89,1.334,7.577,2.774v13.523h-7.577Zm8.295,3.057q4.594,1.813,8.852,3.74v9.5h-8.852Zm9.572,4.064c2.98,1.359,5.822,2.746,8.531,4.137v5.039h-8.531Zm9.249,4.5q2.688,1.393,5.186,2.782v1.89h-5.186Zm5.9,3.183q1.336.747,2.615,1.489h-2.615Zm3.59.393,4.148-6.319v7.415h-2.29c-.609-.365-1.226-.728-1.858-1.1m18.182,4.764h2.684l-2.684,6.037Zm3.99-3.668h-3.99v-9.247c1.337.539,2.679,1.077,3.99,1.6Zm.718-7.358,2.446.978-2.446,5.5Zm-8.772,3.524,3.346-5.125v8.959h-3.346Zm-.718,3.834h-1.787l1.787-2.735Zm.718-5.146v-5.739l2.966,1.2Zm-.718,1.1-2.644,4.047h-2.3V185.609l4.94,1.995Zm-5.657-8.841v12.888h-2.876V190.27Zm-2.876,3.072v-4.809c.765.313,1.6.651,2.494,1.012Zm4.352,13.484h4.182v3.725q-2.214-1.521-4.607-3.079Zm4.9,0h3.346v6.59c-1.073-.778-2.192-1.568-3.346-2.369Zm7.533,0h.522v10.092q-1.785-1.366-3.758-2.812Zm3.952-8.88v5.212h-2.32Zm-21.454-9.7v6.194l-4.494,6.846V182.036c.144.06.288.119.435.18.068.027,1.625.66,4.06,1.646m-87.252-20.712-7.008,7.075v-7.142c.762.02,1.174.042,1.191.043l.005-.072c1.473-.007,3.422.012,5.812.1m-9.013-.1,0,.072c.02,0,.432-.023,1.194-.043v7.142l-7.008-7.075c2.389-.085,4.339-.1,5.812-.1m-89,19.163.436-.18V196.9l-4.494-6.846v-6.194c2.434-.986,3.991-1.619,4.058-1.646m-26.231,10.575v5.987h-7.353l-1.1-2.521.009-.161c1.74-.655,4.816-1.863,8.44-3.306m0,9.655V215.7l-5.761-13.259Zm-8.535-4.588.4.92h-.449Zm-19.656-.117a1.356,1.356,0,1,1,2.711,0v2.711h-2.711Zm17.1,20.822-.616-16.117H223.8Zm1.115,5.974,1.194-22.091h2.242l6,13.8c-4.567,3.724-7.768,6.685-9.432,8.288m10.695-22.091h2.714v10.647c-.946.73-1.853,1.446-2.714,2.134Zm107.748-3.668V173.109q3.934-.276,7.967-.368v26.037h-7.967Zm8.775,0V172.741q4.033.091,7.965.368v25.669h-7.965Zm113,14.314V202.446h2.713v12.781c-.86-.688-1.767-1.4-2.713-2.134m3.975,3.157,6-13.8h2.24l1.194,22.091c-1.664-1.6-4.866-4.564-9.432-8.288m9.677-13.8H479.4l-.616,16.117Z" transform="translate(68.332 55.202)" fill="#26344d"/>
            <rect id="Rectangle_13496" data-name="Rectangle 13496" width="670.774" height="8.438" transform="translate(10.738 275.001)" fill="#26344d"/>
          </g>
        </g>
      </g>
    </g>
  </g>
</svg>
