<svg xmlns="http://www.w3.org/2000/svg" width="24.262" height="24.262" viewBox="0 0 24.262 24.262">
  <g id="Page-1" transform="translate(0 -0.003)">
    <g id="_027---Design" data-name="027---Design" transform="translate(0 0.003)">
      <path id="Shape" d="M53.779.543l-.753,2.481L50.78.777,53.261.024a.414.414,0,0,1,.519.519Z" transform="translate(-29.537 -0.004)" fill="#3f5c6c"/>
      <path id="Shape-2" data-name="Shape" d="M47.6,4.1l-.933,3.071A2.072,2.072,0,0,1,46.177,8L41.45,3.272a2.072,2.072,0,0,1,.832-.489l3.071-.933Z" transform="translate(-24.11 -1.077)" fill="#fdd7ad"/>
      <path id="Shape-3" data-name="Shape" d="M25.136,7.614,11.708,21.042,9.34,18.674,22.731,5.288a.376.376,0,0,1,.042-.038Z" transform="translate(-5.433 -3.055)" fill="#f29c1f"/>
      <path id="Shape-4" data-name="Shape" d="M30.792,13.264a.377.377,0,0,1-.038.042L17.368,26.7,15,24.328,28.428,10.9Z" transform="translate(-8.725 -6.341)" fill="#f0c419"/>
      <path id="Shape-5" data-name="Shape" d="M11.167,42.076l-.138.138L9.076,44.167,4.34,39.432,6.432,37.34,8.8,39.708Z" transform="translate(-2.525 -21.721)" fill="#95a5a5"/>
      <path id="Shape-6" data-name="Shape" d="M6.551,47.076l-.443.439-.887.887a1.677,1.677,0,0,1-2.368,0L.49,46.038a1.677,1.677,0,0,1,0-2.368l.887-.887.439-.443Z" transform="translate(0 -24.629)" fill="#ff5364"/>
      <path id="Shape-7" data-name="Shape" d="M39.943,35.8,35.8,39.943a1.255,1.255,0,0,1-1.774,0l-.226-.226h0l-.59-.594-.59-.59-.594-.594-.59-.59-.59-.59h0l-.59-.594-.59-.59-.594-.594-.59-.59-.887-.887,5.915-5.915,6.438,6.438a1.255,1.255,0,0,1,0,1.774Z" transform="translate(-16.048 -16.049)" fill="#3b97d3"/>
      <path id="Shape-8" data-name="Shape" d="M12.723,6.808,6.808,12.723l-.887-.887-.59-.59-.594-.594-.59-.59-.59-.59h0l-.59-.594-.59-.59-.594-.594L1.19,7.1.6,6.511.37,6.285a1.255,1.255,0,0,1,0-1.774L4.511.37a1.255,1.255,0,0,1,1.774,0Z" transform="translate(-0.002 -0.003)" fill="#3b97d3"/>
      <g id="Group_59316" data-name="Group 59316" transform="translate(0.594 5.818)">
        <path id="Shape-9" data-name="Shape" d="M30.894,42.858l-.594.59-.59-.59.59-.59a.419.419,0,1,1,.594.59Z" transform="translate(-17.875 -30.333)" fill="#2980ba"/>
        <path id="Shape-10" data-name="Shape" d="M34.017,45.01l-.887.887-.59-.59.887-.887a.418.418,0,0,1,.59.59Z" transform="translate(-19.521 -31.598)" fill="#2980ba"/>
        <path id="Shape-11" data-name="Shape" d="M36.55,48.515l-.59.59-.59-.59.59-.594a.419.419,0,0,1,.59.594Z" transform="translate(-21.168 -33.622)" fill="#2980ba"/>
        <path id="Shape-12" data-name="Shape" d="M39.671,50.633l-.887.887-.594-.594.887-.887a.42.42,0,1,1,.594.594Z" transform="translate(-22.808 -34.853)" fill="#2980ba"/>
        <path id="Shape-13" data-name="Shape" d="M42.2,54.2l-.59.594h0l-.59-.594.594-.59a.418.418,0,0,1,.59.59Z" transform="translate(-24.454 -36.944)" fill="#2980ba"/>
        <path id="Shape-14" data-name="Shape" d="M2.6,14.6l-.59.594L1.42,14.6l.594-.59a.418.418,0,0,1,.59.59Z" transform="translate(-1.42 -13.91)" fill="#2980ba"/>
        <path id="Shape-15" data-name="Shape" d="M5.731,16.693l-.887.887-.594-.594.887-.887a.42.42,0,1,1,.594.594Z" transform="translate(-3.066 -15.111)" fill="#2980ba"/>
        <path id="Shape-16" data-name="Shape" d="M8.264,20.23l-.59.594h0l-.59-.594.59-.59a.419.419,0,0,1,.594.59Z" transform="translate(-4.712 -17.172)" fill="#2980ba"/>
        <path id="Shape-17" data-name="Shape" d="M11.387,22.317,10.5,23.2l-.59-.59.887-.887a.418.418,0,1,1,.59.59Z" transform="translate(-6.358 -18.371)" fill="#2980ba"/>
        <path id="Shape-18" data-name="Shape" d="M13.92,25.885l-.59.59-.59-.59.59-.594a.419.419,0,1,1,.59.594Z" transform="translate(-8.004 -20.459)" fill="#2980ba"/>
      </g>
    </g>
  </g>
</svg>
