<svg xmlns="http://www.w3.org/2000/svg" width="28.667" height="28.667" viewBox="0 0 28.667 28.667">
  <g id="Group_59187" data-name="Group 59187" transform="translate(0 0)">
    <g id="Group_59179" data-name="Group 59179">
      <path id="Path_11709" data-name="Path 11709" d="M768,461.021c.225-.316.225-.316,1.175-.433,0-.111.014-.228.015-.345q0-7.195,0-14.389a1.894,1.894,0,0,1,.647-1.544,1.71,1.71,0,0,1,1.13-.421q2.66,0,5.319,0a.609.609,0,0,1,.674.592.6.6,0,0,1-.667.595q-2.534.005-5.067,0c-.652,0-.829.178-.829.832q0,7.181,0,14.361v.344h.349q3.877-.009,7.754-.016c.289,0,.578.02.867.036a.536.536,0,0,1,.555.383,1.034,1.034,0,0,0,1.269.8c.955-.074,1.921-.027,2.882-.012a.369.369,0,0,0,.416-.269c.065-.173.17-.331.249-.5a.713.713,0,0,1,.735-.433c2.445.011,4.89.006,7.334.006h1.452c.006-.12.016-.218.016-.317q0-7.223,0-14.445c0-.577-.2-.774-.773-.775q-1.582,0-3.164,0c-.084,0-.168,0-.252,0a.59.59,0,0,1-.582-.593.579.579,0,0,1,.561-.586c1.269-.009,2.539-.037,3.807.013a1.745,1.745,0,0,1,1.6,1.722c.007.112,0,.224,0,.336q0,7.125,0,14.249v.389c.448.027.94-.1,1.19.416v1.792c-.02.059-.044.117-.058.178a2.963,2.963,0,0,1-2.018,2.251c-.164.057-.333.1-.5.146H770.575c-.059-.02-.117-.044-.178-.058a2.968,2.968,0,0,1-2.252-2.018c-.057-.164-.1-.333-.146-.5Zm1.19.784c0,.2,0,.356,0,.513a1.8,1.8,0,0,0,1.892,1.879q11.25,0,22.5,0a1.872,1.872,0,0,0,1.852-2.392h-.327c-2.873,0-5.747.02-8.62-.016-.6-.008-.991.106-1.154.716a.665.665,0,0,1-.749.488c-1.315,0-2.63.02-3.945,0-1.118-.016-.971.218-1.545-.963a.358.358,0,0,0-.383-.23q-4.6.008-9.207,0Z" transform="translate(-768 -436.722)" fill="#fff"/>
      <path id="Path_11710" data-name="Path 11710" d="M992.792,348a.724.724,0,0,1,.453.755c-.014.932,0,1.864-.006,2.8a.578.578,0,0,1-.391.586.528.528,0,0,1-.634-.156.71.71,0,0,1-.155-.4c-.013-.988,0-1.976-.01-2.964a.718.718,0,0,1,.407-.615Z" transform="translate(-975.324 -348)" fill="#fff"/>
      <path id="Path_11713" data-name="Path 11713" d="M859.008,404.394a9.425,9.425,0,0,1,1.652-.386,2.963,2.963,0,0,1,2.751,4.33.325.325,0,0,0,.077.468c.373.352.732.72,1.091,1.086a1.794,1.794,0,0,1-2.092,2.882.467.467,0,0,0-.288-.044,15.081,15.081,0,0,0-4.513,1.9l-.108.069,3.429,2.666c.483.376.508.7.082,1.135-.485.492-.978.974-1.458,1.47a.723.723,0,0,1-.908.16q-2.729-1.186-5.469-2.345c-.281-.119-.586-.179-.875-.283a3.571,3.571,0,0,1-1.408-5.8c.433-.463.89-.905,1.359-1.331a.766.766,0,0,1,.5-.169.306.306,0,0,0,.328-.17,15.811,15.811,0,0,0,1.849-4.386.626.626,0,0,0-.041-.39A1.8,1.8,0,0,1,855.5,403a1.763,1.763,0,0,1,2.3.148C858.25,403.576,858.669,404.04,859.008,404.394Zm2.162,7.3-5.139-5.154a.163.163,0,0,0-.02.044,18.692,18.692,0,0,1-1.989,4.358c-.1.159-.021.23.075.326.8.794,1.605,1.586,2.4,2.39.144.146.238.131.4.038.573-.329,1.142-.672,1.742-.946C859.489,412.357,860.368,412.023,861.17,411.692ZM856.054,415l-3.341-3.34c-.257.257-.553.529-.822.826A2.382,2.382,0,0,0,855.2,415.9,11.85,11.85,0,0,0,856.054,415Zm7.917-3.851a4.23,4.23,0,0,0-.379-.531q-3.249-3.262-6.508-6.514c-.059-.059-.113-.152-.183-.167a1.553,1.553,0,0,0-.6-.071.441.441,0,0,0-.346.484,1.01,1.01,0,0,0,.261.554q3.272,3.3,6.564,6.576a1.131,1.131,0,0,0,.188.166.5.5,0,0,0,.6.013A2.889,2.889,0,0,0,863.971,411.153Zm-4.054,6.875-2.86-2.219-1.724,1.557c1.135.487,2.305.991,3.481,1.486a.307.307,0,0,0,.262-.05C859.353,418.565,859.613,418.311,859.918,418.027Zm2.486-10.348a1.764,1.764,0,0,0-.438-2.067,1.7,1.7,0,0,0-1.884-.271Z" transform="translate(-843.885 -398.557)" fill="#fff"/>
      <path id="Path_11714" data-name="Path 11714" d="M1040.7,367.554c-.353,0-.549-.112-.651-.35a.588.588,0,0,1,.143-.691l1.778-1.779c.191-.191.377-.388.575-.571a.593.593,0,0,1,.853-.016.579.579,0,0,1,0,.851q-1.188,1.2-2.4,2.381A1.146,1.146,0,0,1,1040.7,367.554Z" transform="translate(-1019.684 -362.781)" fill="#fff"/>
    </g>
  </g>
</svg>
