<svg xmlns="http://www.w3.org/2000/svg" xmlns:xlink="http://www.w3.org/1999/xlink" width="28.504" height="31.35" viewBox="0 0 28.504 31.35">
  <defs>
    <clipPath id="clip-path">
      <rect id="Rectangle_44176" data-name="Rectangle 44176" width="28.504" height="31.35" fill="#fff" stroke="#fff" stroke-width="0.5"/>
    </clipPath>
  </defs>
  <g id="Group_104216" data-name="Group 104216" transform="translate(-921.21 -5112.65)">
    <g id="Group_104215" data-name="Group 104215" transform="translate(921.21 5112.65)">
      <g id="Group_104214" data-name="Group 104214" clip-path="url(#clip-path)">
        <path id="Path_74475" data-name="Path 74475" d="M8.839,4.6c.666-.322,1.282-.652,1.924-.921a13.6,13.6,0,0,1,1.631-.543.321.321,0,0,0,.283-.388c-.015-.417-.011-.836,0-1.254A1.483,1.483,0,0,1,14.174,0c.334-.005.669,0,1,0a.947.947,0,0,1,1.05,1.047q.005,3.495,0,6.99v2.288c0,.414-.123.556-.515.668a4.786,4.786,0,0,0-3.524,3.592c-.106.4-.355.6-.678.528s-.5-.374-.39-.79a5.841,5.841,0,0,1,3.722-4.208c.178-.069.294-.121.293-.359-.01-2.81-.006-5.621-.007-8.431,0-.061-.007-.123-.015-.223a9.373,9.373,0,0,0-.994.008c-.274.029-.358.254-.357.51v1.5a.925.925,0,0,1-.785.983A12.173,12.173,0,0,0,9.41,5.59a.959.959,0,0,1-1.258-.146c-.274-.261-.529-.535-.8-.8a.821.821,0,0,0-1.247-.012q-.741.722-1.46,1.46a.821.821,0,0,0,.009,1.249c.255.263.519.515.774.778a.959.959,0,0,1,.152,1.305A11.922,11.922,0,0,0,4.134,12.91a.971.971,0,0,1-1.1.85c-.355,0-.711,0-1.066,0A.821.821,0,0,0,1.1,14.6q-.026,1.065,0,2.131a.821.821,0,0,0,.887.847c.386,0,.773,0,1.16,0a.93.93,0,0,1,.954.748,12.468,12.468,0,0,0,1.52,3.656.923.923,0,0,1-.16,1.2c-.269.274-.548.548-.821.821a.813.813,0,0,0-.012,1.225q.73.753,1.485,1.485A.81.81,0,0,0,7.339,26.7c.274-.269.543-.548.821-.821a.942.942,0,0,1,1.232-.141,12.132,12.132,0,0,0,3.629,1.5.925.925,0,0,1,.738.959c0,.491,0,.982,0,1.473,0,.429.14.566.559.568.24,0,.48,0,.72-.007.018,0,.036-.016.086-.04V29.9q0-4.137,0-8.275a.351.351,0,0,0-.274-.4,5.735,5.735,0,0,1-2.591-1.851.565.565,0,0,1-.048-.77.542.542,0,0,1,.886.057,4.849,4.849,0,0,0,2.4,1.625c.707.213.724.235.724.982v8.9c0,.84-.34,1.176-1.179,1.176-.293,0-.585.005-.878,0a1.5,1.5,0,0,1-1.5-1.5c-.008-.439-.009-.878,0-1.316a.253.253,0,0,0-.225-.3,12.886,12.886,0,0,1-3.614-1.537c-.224.249-.447.521-.7.769a1.922,1.922,0,0,1-2.822.02q-.739-.723-1.46-1.46a1.917,1.917,0,0,1-.005-2.779c.246-.255.511-.492.777-.747-.063-.117-.11-.207-.16-.295a12.139,12.139,0,0,1-1.31-3.176c-.068-.274-.183-.365-.465-.345a5.408,5.408,0,0,1-1.062-.033,1.865,1.865,0,0,1-1.615-1.8q-.028-1.175,0-2.35a1.882,1.882,0,0,1,1.8-1.825c.344-.018.69,0,1.033-.02a.34.34,0,0,0,.25-.183,13.644,13.644,0,0,1,1.538-3.6c-.246-.238-.495-.473-.736-.716a1.928,1.928,0,0,1,0-2.868q.706-.712,1.418-1.418a1.921,1.921,0,0,1,2.806-.012c.254.247.494.508.72.743" transform="translate(0 0)" fill="#fff" stroke="#fff" stroke-width="0.5"/>
        <path id="Path_74476" data-name="Path 74476" d="M283.237,138.646c0-.324-.006-.648,0-.971a1.439,1.439,0,0,1,1.437-1.436c.658-.009,1.315-.011,1.973,0a1.433,1.433,0,0,1,1.413,1.4q.025,1.017,0,2.036a1.428,1.428,0,0,1-1.388,1.387q-1.017.029-2.035,0a1.435,1.435,0,0,1-1.4-1.411c-.01-.334,0-.668,0-1m3.721.015h0v-.938a.341.341,0,0,0-.365-.381c-.625-.008-1.251,0-1.876,0a.34.34,0,0,0-.373.371q-.007.938,0,1.876a.334.334,0,0,0,.375.365h1.845a.35.35,0,0,0,.39-.387c.005-.3,0-.605,0-.907" transform="translate(-265.477 -127.691)" fill="#fff" stroke="#fff" stroke-width="0.5"/>
        <path id="Path_74477" data-name="Path 74477" d="M283.23,388.629c0-.324-.009-.648,0-.971a1.439,1.439,0,0,1,1.427-1.412q.987-.014,1.973,0a1.436,1.436,0,0,1,1.422,1.419c.014.657.012,1.316,0,1.973a1.437,1.437,0,0,1-1.413,1.428q-1,.024-2.008,0a1.434,1.434,0,0,1-1.4-1.4c-.012-.344,0-.689,0-1.033Zm3.721.032v-.876c-.006-.325-.111-.436-.432-.44q-.875-.01-1.751,0c-.319,0-.427.116-.431.443-.005.584,0,1.167,0,1.751,0,.281.129.424.418.423q.892-.005,1.782,0a.367.367,0,0,0,.416-.424c0-.28,0-.584,0-.876" transform="translate(-265.471 -362.025)" fill="#fff" stroke="#fff" stroke-width="0.5"/>
        <path id="Path_74478" data-name="Path 74478" d="M285.6,20.953c.334,0,.668-.008,1,0a1.432,1.432,0,0,1,1.416,1.423c.012.647.01,1.294,0,1.941a1.428,1.428,0,0,1-1.39,1.448c-.677.025-1.357.022-2.035,0a1.424,1.424,0,0,1-1.4-1.438q-.016-.971,0-1.941a1.427,1.427,0,0,1,1.435-1.433c.323-.008.647,0,.971,0m-1.3,2.4v.907a.371.371,0,0,0,.428.415h1.752c.28,0,.433-.123.434-.41V22.448a.365.365,0,0,0-.412-.4h-1.783a.373.373,0,0,0-.42.427v.876" transform="translate(-265.429 -19.636)" fill="#fff" stroke="#fff" stroke-width="0.5"/>
        <path id="Path_74479" data-name="Path 74479" d="M285.592,270.962c.334,0,.668-.009,1,0a1.431,1.431,0,0,1,1.406,1.43q.016.971,0,1.941a1.42,1.42,0,0,1-1.369,1.436q-1.047.044-2.1,0a1.413,1.413,0,0,1-1.357-1.412q-.02-.986,0-1.972a1.426,1.426,0,0,1,1.412-1.424c.334-.01.668,0,1,0m.008,1.1h-.907a.365.365,0,0,0-.411.4q0,.907,0,1.814c0,.286.154.411.435.409h1.752a.371.371,0,0,0,.427-.418v-1.783a.372.372,0,0,0-.42-.425H285.6" transform="translate(-265.415 -253.972)" fill="#fff" stroke="#fff" stroke-width="0.5"/>
        <path id="Path_74480" data-name="Path 74480" d="M382.237,213.8c0,.345.011.689,0,1.033a1.416,1.416,0,0,1-1.369,1.369c-.688.019-1.378.017-2.067,0a1.432,1.432,0,0,1-1.385-1.425c-.021-.657-.022-1.316,0-1.973a1.447,1.447,0,0,1,1.486-1.425q.924-.009,1.848,0a1.442,1.442,0,0,1,1.488,1.481Zm-3.715.018v.876a.365.365,0,0,0,.4.415q.907.011,1.815,0a.365.365,0,0,0,.408-.381q.014-.939,0-1.878a.346.346,0,0,0-.384-.365h-1.846c-.274,0-.392.154-.39.42v.908" transform="translate(-353.737 -198.123)" fill="#fff" stroke="#fff" stroke-width="0.5"/>
        <path id="Path_74481" data-name="Path 74481" d="M382.26,341.511v.846a1.523,1.523,0,0,1-1.479,1.552c-.625.025-1.253.026-1.878,0a1.532,1.532,0,0,1-1.467-1.543q-.024-.861,0-1.722a1.534,1.534,0,0,1,1.583-1.552q.845-.012,1.691,0a1.52,1.52,0,0,1,1.552,1.574q0,.423,0,.845m-3.717,0v.783c.008.34.162.5.494.508q.814.01,1.629,0a.442.442,0,0,0,.5-.476q.017-.83,0-1.66a.444.444,0,0,0-.468-.481q-.845-.016-1.691,0a.434.434,0,0,0-.462.48c-.008.282,0,.564,0,.846" transform="translate(-353.761 -317.827)" fill="#fff" stroke="#fff" stroke-width="0.5"/>
        <path id="Path_74482" data-name="Path 74482" d="M379.822,89.124c.3,0,.606-.009.908,0a1.512,1.512,0,0,1,1.476,1.489c.013.6.009,1.186,0,1.785a1.528,1.528,0,0,1-1.52,1.552c-.584.016-1.169.012-1.753,0a1.534,1.534,0,0,1-1.545-1.5c-.026-.6-.028-1.212,0-1.816a1.528,1.528,0,0,1,1.589-1.512h.845Zm-.032,3.717h.815a.456.456,0,0,0,.512-.5c.009-.532.008-1.065,0-1.6a.463.463,0,0,0-.519-.526q-.8-.011-1.6,0a.447.447,0,0,0-.506.5q-.009.814,0,1.629a.435.435,0,0,0,.481.489c.274.007.543,0,.814,0" transform="translate(-353.71 -83.533)" fill="#fff" stroke="#fff" stroke-width="0.5"/>
      </g>
    </g>
  </g>
</svg>
