<svg xmlns="http://www.w3.org/2000/svg" width="39.121" height="23.984" viewBox="0 0 39.121 23.984">
  <g id="Group_2440" data-name="Group 2440" transform="translate(-516.184 -1407.546)">
    <path id="Path_22089" data-name="Path 22089" d="M154.695,112.079h-.4v-.91h.4a3.058,3.058,0,0,0,.54-.046.041.041,0,0,0,.022,0,6.116,6.116,0,0,0,2.289-.769,6.217,6.217,0,0,0-.946-11.242.45.45,0,0,1-.3-.4c-.018-.237-.05-.473-.09-.71v-.018a.035.035,0,0,0,0-.018,8.888,8.888,0,0,0-15.853-3.777.455.455,0,0,1-.36.18.47.47,0,0,1-.246-.07,6.719,6.719,0,0,0-10.146,7.3.459.459,0,0,1-.077.382.45.45,0,0,1-.345.18,4.51,4.51,0,0,0-.07,9.005c.1,0,.2.009.291.009h1.87v.91h-1.884c-.109,0-.228,0-.345-.009a5.418,5.418,0,0,1-.45-10.766,7.866,7.866,0,0,1-.119-1.428,7.627,7.627,0,0,1,11.4-6.557,9.8,9.8,0,0,1,17.222,4.49.227.227,0,0,1,.009.055c.028.164.05.332.07.5A7.131,7.131,0,0,1,158,111.154a7.04,7.04,0,0,1-2.616.878,4.984,4.984,0,0,1-.687.05Z" transform="translate(392.961 1318.618)" fill="#fff" stroke="#fff" stroke-width="1.5"/>
    <g id="Group_2381" data-name="Group 2381" transform="translate(527.544 1428.747)">
      <circle id="Ellipse_20" data-name="Ellipse 20" cx="1.391" cy="1.391" r="1.391" transform="translate(0 0)" fill="#fff"/>
      <circle id="Ellipse_21" data-name="Ellipse 21" cx="1.391" cy="1.391" r="1.391" transform="translate(4.451 0)" fill="#fff"/>
      <circle id="Ellipse_22" data-name="Ellipse 22" cx="1.391" cy="1.391" r="1.391" transform="translate(8.902 0)" fill="#fff"/>
      <circle id="Ellipse_23" data-name="Ellipse 23" cx="1.391" cy="1.391" r="1.391" transform="translate(13.354 0)" fill="#fff"/>
    </g>
  </g>
</svg>
