<svg id="teamwork" xmlns="http://www.w3.org/2000/svg" width="71.155" height="71.155" viewBox="0 0 71.155 71.155">
  <path id="Path_11983" data-name="Path 11983" d="M185.8,458.487a1.042,1.042,0,0,1-.083-2.081,12.077,12.077,0,0,0,7.848-3.793,8.737,8.737,0,0,1,5.134-2.692,1.042,1.042,0,1,1,.29,2.065,6.646,6.646,0,0,0-3.9,2.053,14.158,14.158,0,0,1-9.2,4.446C185.859,458.486,185.83,458.487,185.8,458.487Z" transform="translate(-159.081 -387.377)" fill="#3977f0"/>
  <path id="Path_11984" data-name="Path 11984" d="M21.858,246.9H12.45a4.893,4.893,0,0,1-4.9-4.683,4.786,4.786,0,0,1,.853-2.876,4.978,4.978,0,0,1-3.253-1.479,4.746,4.746,0,0,1-.513-6.073A4.891,4.891,0,0,1,0,227.113a4.832,4.832,0,0,1,3-4.606,4.775,4.775,0,0,1-1.114-3.22,4.89,4.89,0,0,1,4.9-4.683H22.307l-2-4.334a4.338,4.338,0,0,1,7.732-3.923l5.275,9.507a10.279,10.279,0,0,0,1.192,1.712,1.042,1.042,0,0,1-1.58,1.361,12.372,12.372,0,0,1-1.435-2.06l-5.275-9.508A2.253,2.253,0,0,0,22.2,209.4l2.066,4.479a1.983,1.983,0,0,1-1.8,2.813H6.786a2.792,2.792,0,0,0-2.812,2.655,2.733,2.733,0,0,0,2.733,2.811,1.042,1.042,0,1,1,0,2.085H4.818a2.734,2.734,0,0,0-2.732,2.813A2.8,2.8,0,0,0,4.9,229.709h3.7a1.042,1.042,0,0,1,0,2.085,2.746,2.746,0,0,0-2.733,2.679,2.666,2.666,0,0,0,.781,1.928,2.874,2.874,0,0,0,2.038.861h3.69a1.042,1.042,0,1,1,0,2.085,2.735,2.735,0,0,0-2.733,2.812,2.793,2.793,0,0,0,2.812,2.655h9.408a1.042,1.042,0,0,1,0,2.085Z" transform="translate(0 -175.743)" fill="#3977f0"/>
  <path id="Line_69" data-name="Line 69" d="M-6.457-5.415A1.042,1.042,0,0,1-7.5-6.457,1.042,1.042,0,0,1-6.458-7.5H1.095A1.042,1.042,0,0,1,2.137-6.458,1.042,1.042,0,0,1,1.095-5.415Z" transform="translate(18.828 69.018)" fill="#3977f0"/>
  <path id="Line_70" data-name="Line 70" d="M-6.458-5.415A1.042,1.042,0,0,1-7.5-6.457,1.042,1.042,0,0,1-6.458-7.5H3.927A1.042,1.042,0,0,1,4.969-6.458,1.042,1.042,0,0,1,3.927-5.415Z" transform="translate(15.053 61.466)" fill="#3977f0"/>
  <path id="Line_71" data-name="Line 71" d="M-6.458-5.415A1.042,1.042,0,0,1-7.5-6.457,1.042,1.042,0,0,1-6.458-7.5H5.815A1.042,1.042,0,0,1,6.857-6.458,1.042,1.042,0,0,1,5.815-5.415Z" transform="translate(13.164 53.914)" fill="#3977f0"/>
  <path id="Path_11985" data-name="Path 11985" d="M226.974,296.62a4.832,4.832,0,0,1-4.466-3,4.775,4.775,0,0,1-3.22,1.114,4.89,4.89,0,0,1-4.683-4.9V274.313l-4.334,2a4.338,4.338,0,0,1-3.923-7.732l9.507-5.275a10.279,10.279,0,0,0,1.712-1.192,1.042,1.042,0,1,1,1.361,1.58,12.368,12.368,0,0,1-2.06,1.435l-9.508,5.275a2.253,2.253,0,0,0,2.037,4.016l4.479-2.066a1.983,1.983,0,0,1,2.813,1.8v15.681a2.792,2.792,0,0,0,2.655,2.812,2.733,2.733,0,0,0,2.811-2.733,1.042,1.042,0,0,1,2.085,0V291.8a2.734,2.734,0,0,0,2.813,2.732,2.8,2.8,0,0,0,2.655-2.812v-3.7a1.042,1.042,0,1,1,2.085,0,2.746,2.746,0,0,0,2.679,2.733,2.666,2.666,0,0,0,1.928-.781,2.874,2.874,0,0,0,.861-2.038v-3.69a1.042,1.042,0,1,1,2.085,0,2.735,2.735,0,0,0,2.812,2.733,2.793,2.793,0,0,0,2.655-2.812v-5.25a1.042,1.042,0,0,1,2.085,0v5.25a4.893,4.893,0,0,1-4.683,4.9,4.787,4.787,0,0,1-2.876-.853,4.978,4.978,0,0,1-1.478,3.253,4.746,4.746,0,0,1-6.073.513,4.891,4.891,0,0,1-4.674,4.638Z" transform="translate(-175.743 -225.465)" fill="#3977f0"/>
  <path id="Path_11986" data-name="Path 11986" d="M457.489,237.627a1.042,1.042,0,0,1-1.042-1.042V233.51a12.007,12.007,0,0,0-3.835-8.848,8.737,8.737,0,0,1-2.692-5.134,1.042,1.042,0,0,1,2.065-.29,6.646,6.646,0,0,0,2.053,3.9,14.262,14.262,0,0,1,4.494,10.369v3.074A1.042,1.042,0,0,1,457.489,237.627Z" transform="translate(-387.377 -187.993)" fill="#3977f0"/>
  <path id="Line_72" data-name="Line 72" d="M-6.457,2.137A1.042,1.042,0,0,1-7.5,1.095V-6.457A1.042,1.042,0,0,1-6.458-7.5,1.042,1.042,0,0,1-5.415-6.458V1.095A1.042,1.042,0,0,1-6.457,2.137Z" transform="translate(69.018 57.69)" fill="#3977f0"/>
  <path id="Line_73" data-name="Line 73" d="M-6.457,4.969A1.042,1.042,0,0,1-7.5,3.927V-6.458A1.042,1.042,0,0,1-6.458-7.5,1.042,1.042,0,0,1-5.415-6.458V3.927A1.042,1.042,0,0,1-6.457,4.969Z" transform="translate(61.466 58.634)" fill="#3977f0"/>
  <path id="Line_74" data-name="Line 74" d="M-6.457,6.857A1.042,1.042,0,0,1-7.5,5.815V-6.458A1.042,1.042,0,0,1-6.458-7.5,1.042,1.042,0,0,1-5.415-6.458V5.815A1.042,1.042,0,0,1-6.457,6.857Z" transform="translate(53.914 58.634)" fill="#3977f0"/>
  <path id="Path_11987" data-name="Path 11987" d="M234.9,42.786a4.325,4.325,0,0,1-3.788-2.236l-5.275-9.507a10.28,10.28,0,0,0-1.192-1.712,1.042,1.042,0,0,1,1.58-1.361,12.372,12.372,0,0,1,1.435,2.06l5.275,9.508a2.253,2.253,0,0,0,4.016-2.037l-2.066-4.479a1.983,1.983,0,0,1,1.8-2.813h15.681a2.792,2.792,0,0,0,2.812-2.655,2.733,2.733,0,0,0-2.733-2.811,1.042,1.042,0,0,1,0-2.085h1.889a2.734,2.734,0,0,0,2.732-2.813,2.8,2.8,0,0,0-2.812-2.655h-3.7a1.042,1.042,0,0,1,0-2.085,2.746,2.746,0,0,0,2.733-2.679,2.666,2.666,0,0,0-.781-1.928,2.874,2.874,0,0,0-2.038-.861h-3.69a1.042,1.042,0,0,1,0-2.085,2.735,2.735,0,0,0,2.733-2.812A2.793,2.793,0,0,0,246.7,2.086H233.51a12.007,12.007,0,0,0-8.848,3.835,8.737,8.737,0,0,1-5.134,2.692,1.042,1.042,0,1,1-.29-2.065,6.646,6.646,0,0,0,3.9-2.053A14.262,14.262,0,0,1,233.51,0H246.7a4.893,4.893,0,0,1,4.9,4.683,4.786,4.786,0,0,1-.853,2.876,4.978,4.978,0,0,1,3.253,1.479,4.747,4.747,0,0,1,.513,6.073,4.891,4.891,0,0,1,4.638,4.674,4.832,4.832,0,0,1-3,4.606,4.775,4.775,0,0,1,1.114,3.22,4.89,4.89,0,0,1-4.9,4.683H236.841l2,4.334a4.343,4.343,0,0,1-3.944,6.159Z" transform="translate(-187.993 -0.001)" fill="#3977f0"/>
  <path id="Line_75" data-name="Line 75" d="M-6.457-5.415A1.042,1.042,0,0,1-7.5-6.457,1.042,1.042,0,0,1-6.458-7.5H1.095A1.042,1.042,0,0,1,2.137-6.458,1.042,1.042,0,0,1,1.095-5.415Z" transform="translate(57.69 15.052)" fill="#3977f0"/>
  <path id="Line_76" data-name="Line 76" d="M-6.457-5.414A1.042,1.042,0,0,1-7.5-6.457,1.042,1.042,0,0,1-6.458-7.5H3.927A1.042,1.042,0,0,1,4.969-6.458,1.042,1.042,0,0,1,3.927-5.415Z" transform="translate(58.634 22.604)" fill="#3977f0"/>
  <path id="Line_77" data-name="Line 77" d="M-6.458-5.415A1.042,1.042,0,0,1-7.5-6.457,1.042,1.042,0,0,1-6.458-7.5H5.815A1.042,1.042,0,0,1,6.857-6.458,1.042,1.042,0,0,1,5.815-5.415Z" transform="translate(58.634 30.156)" fill="#3977f0"/>
  <path id="Path_11988" data-name="Path 11988" d="M200.574,139.8a1.042,1.042,0,0,1-.67-1.842,12.337,12.337,0,0,1,1.924-1.32l9.508-5.275a2.253,2.253,0,0,0-2.037-4.016l-4.479,2.066a1.983,1.983,0,0,1-2.813-1.8v-4.45a1.042,1.042,0,1,1,2.085,0v4.291l4.334-2a4.338,4.338,0,0,1,3.923,7.732l-9.507,5.275a10.242,10.242,0,0,0-1.6,1.1A1.038,1.038,0,0,1,200.574,139.8Z" transform="translate(-171.798 -105.147)" fill="#3977f0"/>
  <path id="Path_11989" data-name="Path 11989" d="M7.551,40.63a1.043,1.043,0,0,1-1.027-.872,6.678,6.678,0,0,0-2.029-3.75A14.261,14.261,0,0,1,0,25.638V12.45a4.893,4.893,0,0,1,4.683-4.9,4.786,4.786,0,0,1,2.876.853A4.978,4.978,0,0,1,9.039,5.153a4.746,4.746,0,0,1,6.073-.513A4.891,4.891,0,0,1,19.786,0a4.832,4.832,0,0,1,4.606,3,4.775,4.775,0,0,1,3.22-1.114,4.89,4.89,0,0,1,4.683,4.9v6.366a1.042,1.042,0,1,1-2.085,0V6.786a2.792,2.792,0,0,0-2.655-2.812,2.733,2.733,0,0,0-2.811,2.733,1.042,1.042,0,0,1-2.085,0V4.818a2.734,2.734,0,0,0-2.813-2.732A2.8,2.8,0,0,0,17.19,4.9v3.7a1.042,1.042,0,0,1-2.085,0,2.746,2.746,0,0,0-2.679-2.733,2.666,2.666,0,0,0-1.928.781A2.874,2.874,0,0,0,9.637,8.68v3.69a1.042,1.042,0,1,1-2.085,0A2.735,2.735,0,0,0,4.741,9.637,2.793,2.793,0,0,0,2.086,12.45V25.638A12.007,12.007,0,0,0,5.92,34.486a8.774,8.774,0,0,1,2.66,4.931,1.043,1.043,0,0,1-1.03,1.213Z" transform="translate(-0.001 0)" fill="#3977f0"/>
  <path id="Line_78" data-name="Line 78" d="M-6.457,2.137A1.042,1.042,0,0,1-7.5,1.095V-6.457A1.042,1.042,0,0,1-6.458-7.5,1.042,1.042,0,0,1-5.415-6.458V1.095A1.042,1.042,0,0,1-6.457,2.137Z" transform="translate(15.052 18.828)" fill="#3977f0"/>
  <path id="Line_79" data-name="Line 79" d="M-6.457,4.969A1.042,1.042,0,0,1-7.5,3.927V-6.457A1.042,1.042,0,0,1-6.458-7.5,1.042,1.042,0,0,1-5.415-6.458V3.927A1.042,1.042,0,0,1-6.457,4.969Z" transform="translate(22.604 15.053)" fill="#3977f0"/>
  <path id="Line_80" data-name="Line 80" d="M-6.457,6.857A1.042,1.042,0,0,1-7.5,5.815V-6.458A1.042,1.042,0,0,1-6.458-7.5,1.042,1.042,0,0,1-5.415-6.458V5.815A1.042,1.042,0,0,1-6.457,6.857Z" transform="translate(30.156 13.164)" fill="#3977f0"/>
</svg>
