<svg id="Group_59184" data-name="Group 59184" xmlns="http://www.w3.org/2000/svg" width="28.264" height="24.729" viewBox="0 0 28.264 24.729">
  <g id="iot">
    <path id="Path_11697" data-name="Path 11697" d="M397.307,158.253h-6.7v1.656h2.513v9.136h1.656v-9.136h2.533Z" transform="translate(-369.042 -151.285)" fill="#fff"/>
    <path id="Path_11698" data-name="Path 11698" d="M5.546,167.389H3.6v-7.48H5.546v-1.656H0v1.656H1.945v7.48H0v1.656H5.546Z" transform="translate(0 -151.285)" fill="#fff"/>
    <path id="Path_11699" data-name="Path 11699" d="M151.137,169.045a5.4,5.4,0,1,0-5.4-5.4A5.4,5.4,0,0,0,151.137,169.045Zm0-9.136a3.74,3.74,0,1,1-3.74,3.74A3.744,3.744,0,0,1,151.137,159.909Z" transform="translate(-137.695 -151.285)" fill="#fff"/>
    <path id="Path_11700" data-name="Path 11700" d="M140.369,95.138a8.849,8.849,0,0,0-6.025,2.363l1.125,1.216a7.207,7.207,0,0,1,9.8,0l1.125-1.216a8.848,8.848,0,0,0-6.025-2.363Z" transform="translate(-126.928 -91.654)" fill="#fff"/>
    <path id="Path_11701" data-name="Path 11701" d="M99.915,33.679a10.669,10.669,0,0,1,7.264,2.85l1.125-1.216a12.34,12.34,0,0,0-16.778,0l1.125,1.216A10.669,10.669,0,0,1,99.915,33.679Z" transform="translate(-86.473 -32.023)" fill="#fff"/>
    <path id="Path_11702" data-name="Path 11702" d="M140.369,355.615a8.848,8.848,0,0,0,6.025-2.363l-1.125-1.216a7.207,7.207,0,0,1-9.8,0l-1.125,1.216A8.849,8.849,0,0,0,140.369,355.615Z" transform="translate(-126.928 -334.37)" fill="#fff"/>
    <path id="Path_11703" data-name="Path 11703" d="M99.915,401.206a10.669,10.669,0,0,1-7.264-2.85l-1.125,1.216a12.339,12.339,0,0,0,16.778,0l-1.125-1.216A10.668,10.668,0,0,1,99.915,401.206Z" transform="translate(-86.473 -378.133)" fill="#fff"/>
  </g>
</svg>
