<svg id="Group_105323" data-name="Group 105323" xmlns="http://www.w3.org/2000/svg" width="28.808" height="28.968" viewBox="0 0 28.808 28.968">
  <path id="Path_78358" data-name="Path 78358" d="M48.5,17.715H31.788a3.791,3.791,0,0,0-3.769,3.442h1.818a1.985,1.985,0,0,1,1.951-1.638H48.5A1.986,1.986,0,0,1,50.481,21.5v9.02a1.987,1.987,0,0,1-1.638,1.952v1.818a3.791,3.791,0,0,0,3.441-3.77V21.5A3.792,3.792,0,0,0,48.5,17.715Z" transform="translate(-23.477 -17.715)" fill="#fff"/>
  <path id="Path_78359" data-name="Path 78359" d="M38.39,27.8H21.684a3.794,3.794,0,0,0-3.791,3.787V40.6a3.793,3.793,0,0,0,3.791,3.786h.263v7.855l1.8-1.8L29.8,44.385h8.59A3.789,3.789,0,0,0,42.175,40.6V31.583A3.79,3.79,0,0,0,38.39,27.8Zm1.983,12.8a1.984,1.984,0,0,1-1.983,1.983H29.051l-1.8,1.8-3.5,3.495v-5.3H21.683A1.988,1.988,0,0,1,19.7,40.6V31.583A1.99,1.99,0,0,1,21.683,29.6H38.389a1.986,1.986,0,0,1,1.983,1.983V40.6Z" transform="translate(-17.893 -23.274)" fill="#fff"/>
</svg>
