<svg xmlns="http://www.w3.org/2000/svg" width="60.252" height="60.252" viewBox="0 0 60.252 60.252">
  <g id="Group_21433" data-name="Group 21433" transform="translate(0 -0.31)">
    <circle id="Ellipse_208" data-name="Ellipse 208" cx="30.126" cy="30.126" r="30.126" transform="translate(0 0.31)" fill="#596c8e"/>
    <g id="Group_21432" data-name="Group 21432" transform="translate(19 22.31)">
      <path id="Path_10507" data-name="Path 10507" d="M274.112,682.343a1.276,1.276,0,0,1-1.32,0l-10.5-6.432v8.55a3.3,3.3,0,0,0,3.3,3.308h15.754a3.3,3.3,0,0,0,3.3-3.308v-8.55Z" transform="translate(-262.291 -671.253)" fill="#fff"/>
      <path id="Path_10508" data-name="Path 10508" d="M284.5,675.413a3.281,3.281,0,0,0-3.192-2.594H265.553a3.281,3.281,0,0,0-3.192,2.594l11.082,6.775Z" transform="translate(-262.256 -672.819)" fill="#fff"/>
    </g>
  </g>
</svg>
