<svg xmlns="http://www.w3.org/2000/svg" width="25.346" height="30.151" viewBox="0 0 25.346 30.151">
  <g id="manager" transform="translate(-11.04 -1)">
    <path id="Path_12002" data-name="Path 12002" d="M52.524,76.87V66.021l-1.76-.824-.478-2.537H44.063L43.585,65.2l-1.7.8V76.87Z" transform="translate(-23.462 -46.905)" fill="#e2b48a"/>
    <path id="Path_12003" data-name="Path 12003" d="M36.386,87.113,35.931,81.3a5.374,5.374,0,0,0-3.077-4.447L27.97,74.566v1.413h-.557v.742H19.22V74.677l-4.648,2.177A5.374,5.374,0,0,0,11.494,81.3l-.454,5.811Z" transform="translate(0 -55.962)" fill="#bac2d3"/>
    <path id="Path_12004" data-name="Path 12004" d="M58.184,83.64H55.845L55.4,84.679l1.343,1.709-.781,3.747,1.495,3.239,1.675-3.484-.7-3.572,1.063-1.748Z" transform="translate(-33.744 -62.865)" fill="#da2a47"/>
    <path id="Path_12005" data-name="Path 12005" d="M35.931,81.945A5.374,5.374,0,0,0,32.854,77.5L28.4,75.412a21.294,21.294,0,0,1-2.162,5.827c-.434.865-.841,1.727-1.224,2.615-.214.492-1.3,3.365-1.3,3.365s-1.768-4.4-2.09-5.235a28.612,28.612,0,0,0-1.35-3.379c-.1-.184-.2-.364-.311-.543a2.316,2.316,0,0,1-1.47-2.4L14.572,77.5a5.374,5.374,0,0,0-3.078,4.447l-.454,5.811H36.386Z" transform="translate(0 -56.606)" fill="#707583"/>
    <path id="Path_12006" data-name="Path 12006" d="M35.931,81.945A5.374,5.374,0,0,0,32.854,77.5L28.4,75.412a21.294,21.294,0,0,1-2.162,5.827c-.434.865-.841,1.727-1.224,2.615-.214.492-1.3,3.365-1.3,3.365s-1.768-4.4-2.09-5.235a28.612,28.612,0,0,0-1.35-3.379c-.1-.184-.2-.364-.311-.543a2.316,2.316,0,0,1-1.47-2.4L14.572,77.5a5.374,5.374,0,0,0-3.078,4.447l-.454,5.811H36.386Z" transform="translate(0 -56.606)" fill="#384868"/>
    <path id="Path_12007" data-name="Path 12007" d="M90.5,87.755H87.071l-.455-5.812a5.377,5.377,0,0,0-3.08-4.446L82.18,76.86a13.88,13.88,0,0,0,.337-1.45L86.971,77.5a5.374,5.374,0,0,1,3.077,4.446Z" transform="translate(-54.117 -56.604)" fill="#2f3a5a"/>
    <ellipse id="Ellipse_1769" data-name="Ellipse 1769" cx="2.017" cy="1.129" rx="2.017" ry="1.129" transform="translate(27.838 13.929) rotate(-76.825)" fill="#e2b48a"/>
    <ellipse id="Ellipse_1770" data-name="Ellipse 1770" cx="1.129" cy="2.017" rx="1.129" ry="2.017" transform="translate(16.432 10.522) rotate(-13.175)" fill="#e2b48a"/>
    <ellipse id="Ellipse_1771" data-name="Ellipse 1771" cx="5.702" cy="7.859" rx="5.702" ry="7.859" transform="translate(17.988 2.21)" fill="#f0c191"/>
    <path id="Path_12008" data-name="Path 12008" d="M47.876,12.78s2.014-3.6,1.577-6.451-2.358-3.754-3.5-3.754c0,0-1.542-2.283-5.351-1.352a6.57,6.57,0,0,0-4.62,7.753c.721,2.639,1.2,3.851,1.2,3.851a16.462,16.462,0,0,1,.06-5.237c.541-1.863,2.162-3.334,2.793-2.824s4.655.341,5.316-.79A4.072,4.072,0,0,1,46.968,6.63c.215,1.712,1.177,2.763,1.087,3.994S47.876,12.78,47.876,12.78Z" transform="translate(-18.842 0)" fill="#2f3a5a"/>
    <path id="Path_12009" data-name="Path 12009" d="M67.425,69.583,64,72.93l3.058,2.1,1.431-4.152Z" transform="translate(-40.287 -52.172)" fill="#d9e2e9"/>
    <path id="Path_12010" data-name="Path 12010" d="M45.242,70.879l1.55,4.055,2.939-2-3.425-3.347Z" transform="translate(-26.018 -52.172)" fill="#d9e2e9"/>
    <path id="Path_12011" data-name="Path 12011" d="M51.18,71.289,49.225,69.57l0,0s-.036,5.135-3.422,13.1c-3.387-7.966-3.422-13.1-3.422-13.1l0,0-1.955,1.719-.344,2.906,1.621-.259-1.215,1.843c.7,1.717,5.32,7.077,5.32,7.077.726-.8,4.724-5.43,5.346-6.947L49.9,73.935l1.814.052Z" transform="translate(-22.086 -52.159)" fill="#43567c"/>
  </g>
</svg>
