<svg xmlns="http://www.w3.org/2000/svg" width="64.991" height="65" viewBox="0 0 64.991 65">
  <g id="Group_59186" data-name="Group 59186" transform="translate(0 0)">
    <g id="Group_59178" data-name="Group 59178">
      <path id="Path_11704" data-name="Path 11704" d="M839.722,409.749c-.486-.759-.886-1.408-1.312-2.04a1.349,1.349,0,0,1-.052-1.46c.409-.873.781-1.767,1.113-2.673a1.347,1.347,0,0,1,1.069-.994c.749-.144,1.49-.331,2.252-.5v-1.86c-.681-.15-1.372-.324-2.072-.449a1.519,1.519,0,0,1-1.3-1.192,12.9,12.9,0,0,0-.977-2.363,1.512,1.512,0,0,1,.08-1.812,10.2,10.2,0,0,0,.9-1.43.736.736,0,0,0-.071-.661c-.932-1.073-.943-1.063-2.131-.3-.228.146-.467.278-.68.442a1.5,1.5,0,0,1-1.813.05,11.941,11.941,0,0,0-2.3-.955,1.533,1.533,0,0,1-1.233-1.335c-.112-.683-.286-1.357-.434-2.042h-.9v6.376a16.266,16.266,0,0,1,2.219.533,6.47,6.47,0,0,1,1.652,11.225,1.76,1.76,0,0,1-1.223.325,1.088,1.088,0,0,1-.692-.781,1.456,1.456,0,0,1,.452-1.089,4.8,4.8,0,0,0,1.819-2.913,4.3,4.3,0,0,0-4.271-4.988v.795q0,10.731,0,21.462c0,3.617-2.251,5.866-5.868,5.866q-11.474,0-22.948,0a5.445,5.445,0,0,1-5.844-5.823q0-9.647,0-19.3v-.881c-.6,0-1.16,0-1.717,0a1.082,1.082,0,0,1-1.163-.915c-.145-.637-.279-1.277-.42-1.915-.019-.088-.046-.174-.068-.262-.148-.6-2.287-1.47-2.815-1.139-.611.383-1.219.773-1.827,1.162a1.107,1.107,0,0,1-1.526-.172q-1.194-1.2-2.394-2.393a1.1,1.1,0,0,1-.161-1.527c.074-.113.145-.228.216-.344.389-.632,1.028-1.24,1.094-1.9.063-.632-.456-1.331-.76-1.982a.814.814,0,0,0-.47-.389c-.716-.195-1.445-.349-2.172-.5a1.13,1.13,0,0,1-.983-1.249c.007-1.083,0-2.167,0-3.25a1.115,1.115,0,0,1,1.033-1.271c.635-.155,1.276-.283,1.912-.431.783-.183,1.652-2.291,1.223-2.961q-.547-.855-1.1-1.706a1.108,1.108,0,0,1,.165-1.528c.795-.8,1.593-1.6,2.385-2.4a1.126,1.126,0,0,1,1.582-.151c.6.4,1.2.8,1.831,1.153a1.121,1.121,0,0,0,.719.049c.257-.055.482-.28.738-.321a1.759,1.759,0,0,0,1.539-1.863,6.679,6.679,0,0,1,.289-1.319,1.059,1.059,0,0,1,1.251-.771,1.038,1.038,0,0,1,.82,1.219c-.21,1.152-.438,2.305-.75,3.432a1.479,1.479,0,0,1-.772.75,27.177,27.177,0,0,1-2.922,1.213,1.9,1.9,0,0,1-1.257-.053c-.593-.255-1.1-.7-1.673-1.013a.775.775,0,0,0-.666.044,11.707,11.707,0,0,0-1.1.925c.476.746.856,1.379,1.276,1.985a1.413,1.413,0,0,1,.081,1.577,25.317,25.317,0,0,0-1.085,2.612,1.392,1.392,0,0,1-1.119,1.03c-.73.14-1.451.324-2.2.5v1.842c.78.181,1.543.371,2.312.532a1.268,1.268,0,0,1,.976.914q.535,1.418,1.167,2.8a1.281,1.281,0,0,1-.046,1.34c-.356.549-.732,1.087-1.04,1.662a.731.731,0,0,0,.056.662c.932,1.086.943,1.076,2.13.317a4.1,4.1,0,0,0,.453-.3,1.738,1.738,0,0,1,2.281-.085,9.022,9.022,0,0,0,2.121.853,1.454,1.454,0,0,1,1.159,1.242c.121.707.3,1.4.454,2.118h.9v-6.412c-.534-.1-1.093-.152-1.624-.305a6.493,6.493,0,0,1-2.373-11.339,2.285,2.285,0,0,1,.618-.408,1.014,1.014,0,0,1,1.273.324.993.993,0,0,1-.048,1.359,4.708,4.708,0,0,1-.567.48,4.333,4.333,0,0,0,2.325,7.638c.128.013.258,0,.446,0v-.841q0-10.731,0-21.462a5.439,5.439,0,0,1,5.821-5.844q11.507,0,23.015,0a5.44,5.44,0,0,1,5.824,5.842q0,9.648,0,19.3v.862c.574,0,1.087,0,1.6,0a1.151,1.151,0,0,1,1.323,1.063c.16.68.292,1.366.45,2.047.126.548,2.294,1.447,2.769,1.15q.917-.574,1.824-1.166a1.131,1.131,0,0,1,1.583.158c.78.784,1.56,1.568,2.347,2.344a1.131,1.131,0,0,1,.186,1.58c-.369.567-.73,1.139-1.1,1.709a3.156,3.156,0,0,0-.177.288,4.394,4.394,0,0,0,1.216,2.616c.7.166,1.408.313,2.107.486a1.12,1.12,0,0,1,1.029,1.276c.009,1.083,0,2.167,0,3.25a1.131,1.131,0,0,1-.989,1.245c-.7.151-1.412.3-2.1.5a1.119,1.119,0,0,0-.551.466c-.154.241-.163.58-.33.808-.612.836-.344,1.508.2,2.279,1.336,1.893,1.306,1.846-.335,3.461-.5.491-.979,1-1.481,1.486a1.122,1.122,0,0,1-1.633.171c-.116-.07-.227-.148-.341-.221-1.834-1.18-1.837-1.187-3.832-.29a.8.8,0,0,0-.381.479c-.183.7-.307,1.409-.474,2.11-.177.744-.673,1.128-1.276,1.02a1.1,1.1,0,0,1-.832-1.45c.2-1.039.392-2.086.694-3.1a1.66,1.66,0,0,1,.817-.864c.925-.456,1.907-.794,2.846-1.223a1.283,1.283,0,0,1,1.34.05c.549.355,1.087.732,1.662,1.039a.767.767,0,0,0,.661-.07A11.819,11.819,0,0,0,839.722,409.749Zm-42.4-17.295q0,13.336,0,26.671c0,2.4,1.282,3.689,3.664,3.689h22.944c2.444,0,3.719-1.269,3.719-3.7q0-26.637,0-53.275c0-2.4-1.276-3.687-3.665-3.688H801.043c-2.449,0-3.718,1.263-3.718,3.7Q797.324,379.152,797.324,392.454Z" transform="translate(-779.993 -359.982)" fill="#3b7bf8"/>
      <path id="Path_11705" data-name="Path 11705" d="M902.57,515.458c1.087,1.085,2.12,2.116,3.151,3.149a4.615,4.615,0,0,1,.507.543,1,1,0,0,1-.1,1.408.979.979,0,0,1-1.406.078,14,14,0,0,1-1.069-1.032c-1.069-1.067-2.14-2.132-3.2-3.206a1.121,1.121,0,0,1,0-1.863q2-2.017,4.017-4.018a1.1,1.1,0,1,1,1.544,1.517C904.884,513.168,903.747,514.287,902.57,515.458Z" transform="translate(-878.298 -482.966)" fill="#3b7bf8"/>
      <path id="Path_11706" data-name="Path 11706" d="M987.91,515.369c-1.1-1.089-2.144-2.118-3.186-3.148a5.08,5.08,0,0,1-.422-.438,1.056,1.056,0,0,1,.047-1.469,1.013,1.013,0,0,1,1.464-.04q2.232,2.168,4.4,4.4a1,1,0,0,1-.033,1.517q-2.13,2.175-4.306,4.3a1.045,1.045,0,0,1-1.521.019,1.059,1.059,0,0,1,.025-1.569c.989-1.019,2-2.013,3.007-3.02C987.546,515.766,987.693,515.6,987.91,515.369Z" transform="translate(-947.197 -482.907)" fill="#3b7bf8"/>
      <path id="Path_11707" data-name="Path 11707" d="M952.527,511.261c-.15.6-.332,1.316-.512,2.035-.541,2.16-1.077,4.321-1.623,6.48-.209.828-.725,1.22-1.36,1.061-.658-.165-.933-.74-.731-1.558q1.031-4.159,2.073-8.315a1.084,1.084,0,0,1,1.222-.915A1.139,1.139,0,0,1,952.527,511.261Z" transform="translate(-917.87 -482.953)" fill="#3b7bf8"/>
      <path id="Path_11708" data-name="Path 11708" d="M940.351,386.146c-1.015,0-2.031.008-3.045,0-.78-.008-1.269-.456-1.249-1.112a1.1,1.1,0,0,1,1.245-1.048q3.079-.012,6.159,0c.782,0,1.27.453,1.25,1.111a1.1,1.1,0,0,1-1.246,1.049C942.427,386.153,941.389,386.146,940.351,386.146Z" transform="translate(-907.888 -379.645)" fill="#3b7bf8"/>
    </g>
  </g>
</svg>
