<svg xmlns="http://www.w3.org/2000/svg" width="58.283" height="64.409" viewBox="0 0 58.283 64.409">
  <g id="Group_59188" data-name="Group 59188" transform="translate(0 0)">
    <g id="Group_59180" data-name="Group 59180" transform="translate(0)">
      <path id="Path_11715" data-name="Path 11715" d="M832.525,412.409H798.3c-.8-.458-1.06-.925-.884-1.6.161-.615.657-.913,1.528-.916.461,0,.922,0,1.383,0h2.253c0-.223,0-.348,0-.474a3.834,3.834,0,0,1,4.178-4.126c.755,0,1.511-.032,2.263.011.484.028.641-.168.739-.609.366-1.655.773-3.3,1.163-4.95.05-.213.084-.429.137-.7h-.825q-9.275,0-18.55,0a5.1,5.1,0,0,1-5.411-5.4q-.013-15.939.008-31.879a6.436,6.436,0,0,1,.278-1.914,5.03,5.03,0,0,1,5.126-3.461q16.57,0,33.14.009a1,1,0,0,0,.966-.509c1.156-1.772,2.35-3.519,3.519-5.282a5.538,5.538,0,0,1,3.622-2.5.912.912,0,0,0,.216-.11h1.635a1.827,1.827,0,0,0,.284.113,5.417,5.417,0,0,1,4.376,5.93,16.042,16.042,0,0,1-.573,2.3,13.438,13.438,0,0,1,1.634.155,5.093,5.093,0,0,1,4.041,5.327q.007,15.877,0,31.753a6.719,6.719,0,0,1-.141,1.5,5.1,5.1,0,0,1-5.266,3.966q-9.307.013-18.613,0h-.8c.489,2.049.947,4,1.44,5.949.034.135.329.282.507.288.984.032,1.972-.022,2.954.036a3.718,3.718,0,0,1,3.549,3.165,13.9,13.9,0,0,1,.106,1.413c1.278,0,2.531,0,3.784,0a1.255,1.255,0,0,1,1.32.858C833.626,411.42,833.341,411.942,832.525,412.409Zm9.514-26.879v-.754q0-11.447,0-22.894a5.961,5.961,0,0,0-.024-.628,2.512,2.512,0,0,0-2.5-2.345c-.712-.023-1.427.023-2.138-.017a1.212,1.212,0,0,0-1.111.523q-5.186,6.36-10.416,12.684a1.7,1.7,0,0,0-.444,1.848,3.974,3.974,0,0,1,.139,1.244,5.929,5.929,0,0,1-5.4,6.3c-1.107.043-2.218.011-3.327-.019a6.081,6.081,0,0,0-4.535,1.462,1.207,1.207,0,0,1-2.024-.656,19.975,19.975,0,0,1-.78-7.018,7.93,7.93,0,0,1,7.935-7.622.946.946,0,0,0,.849-.495c1.688-2.551,3.395-5.089,5.094-7.633.111-.167.208-.343.37-.609H791.756c-1.989,0-2.963.978-2.964,2.979q0,11.447,0,22.894v.716c.253.015.437.035.62.036.985.006,1.972-.021,2.956.018a1.248,1.248,0,1,1-.046,2.494c-.587.018-1.174.005-1.761.005h-1.768c0,1.96-.008,3.8,0,5.646a2.6,2.6,0,0,0,2.815,2.831q23.808.009,47.616,0a2.6,2.6,0,0,0,2.811-2.835c.011-1.7,0-3.4,0-5.094,0-.161-.031-.322-.055-.547h-38.89a6.611,6.611,0,0,1-.816-.025,1.23,1.23,0,0,1-.161-2.408,4.476,4.476,0,0,1,1-.079q19.028-.005,38.055,0ZM827.868,365.7l1.2-1.461q3.549-4.323,7.1-8.645a3.021,3.021,0,0,0,.671-2.982,2.822,2.822,0,0,0-2.454-2.06,2.9,2.9,0,0,0-2.946,1.409q-3.546,5.3-7.091,10.6c-.076.114-.132.241-.206.378Zm-15.589,14.16a10.543,10.543,0,0,1,5.467-.858,15.508,15.508,0,0,0,1.757.032,3.339,3.339,0,0,0,3.383-2.633,8.3,8.3,0,0,0-.066-2.414,1.266,1.266,0,0,0-.493-.74c-1.261-.97-2.545-1.909-3.829-2.849a1.207,1.207,0,0,0-.551-.25,5.442,5.442,0,0,0-5.651,3.79A12.254,12.254,0,0,0,812.279,379.858Zm13.4,30.006c.176-1.543-.271-2.055-1.757-2.055h-17.03c-1.472,0-1.949.564-1.717,2.055Zm-11.993-10.8-1.468,6.186h6.4l-1.474-6.186Zm12.588-31.416-3.56-2.639-2.4,3.585,3.223,2.391Z" transform="translate(-786.273 -348)" fill="#3b7bf8"/>
      <path id="Path_11718" data-name="Path 11718" d="M846.534,574.343a1.239,1.239,0,0,1-1.241-1.237,1.254,1.254,0,1,1,2.507.029A1.234,1.234,0,0,1,846.534,574.343Z" transform="translate(-835.393 -534.307)" fill="#3b7bf8"/>
    </g>
  </g>
</svg>
