<svg xmlns="http://www.w3.org/2000/svg" width="64.576" height="64.576" viewBox="0 0 64.576 64.576">
  <g id="Group_59187" data-name="Group 59187" transform="translate(0 0)">
    <g id="Group_59179" data-name="Group 59179">
      <path id="Path_11709" data-name="Path 11709" d="M768,482.494c.507-.713.507-.713,2.646-.974.011-.25.033-.513.033-.776q0-16.207,0-32.414a4.265,4.265,0,0,1,1.457-3.477,3.852,3.852,0,0,1,2.545-.948q5.991-.011,11.982,0a1.372,1.372,0,0,1,1.517,1.334,1.351,1.351,0,0,1-1.5,1.34q-5.707.012-11.414,0c-1.469,0-1.868.4-1.868,1.873q0,16.175,0,32.351v.776h.786q8.733-.02,17.467-.036c.651,0,1.3.045,1.952.082a1.208,1.208,0,0,1,1.251.864c.414,1.467,1.317,1.932,2.859,1.812,2.152-.167,4.327-.061,6.492-.028a.831.831,0,0,0,.938-.605c.146-.391.384-.746.561-1.126a1.606,1.606,0,0,1,1.656-.976c5.507.026,11.015.014,16.522.014h3.27c.015-.27.037-.492.037-.713q0-16.27,0-32.54c0-1.3-.446-1.744-1.742-1.746q-3.563,0-7.126,0c-.189,0-.379,0-.567-.008a1.329,1.329,0,0,1-1.312-1.336,1.3,1.3,0,0,1,1.265-1.321c2.858-.02,5.72-.083,8.575.03a3.93,3.93,0,0,1,3.611,3.88c.016.251.01.5.01.756q0,16.05,0,32.1v.877c1.009.061,2.118-.218,2.68.937v4.036c-.044.133-.1.264-.131.4A6.675,6.675,0,0,1,827.9,492c-.368.128-.749.221-1.124.329H773.8c-.133-.044-.264-.1-.4-.131a6.686,6.686,0,0,1-5.073-4.545c-.128-.369-.22-.75-.328-1.125Zm2.68,1.766c0,.448,0,.8,0,1.156a4.057,4.057,0,0,0,4.262,4.232q25.343.011,50.686,0a4.217,4.217,0,0,0,4.171-5.387h-.736c-6.472,0-12.945.044-19.417-.036-1.351-.017-2.232.238-2.6,1.614a1.5,1.5,0,0,1-1.687,1.1c-2.962-.009-5.925.046-8.887,0-2.518-.036-2.187.491-3.481-2.17a.805.805,0,0,0-.864-.518q-10.37.018-20.741.009Z" transform="translate(-768 -427.756)" fill="#3b7bf8"/>
      <path id="Path_11710" data-name="Path 11710" d="M993.723,348a1.631,1.631,0,0,1,1.019,1.7c-.032,2.1-.009,4.2-.013,6.3a1.3,1.3,0,0,1-.88,1.321,1.189,1.189,0,0,1-1.427-.352,1.6,1.6,0,0,1-.35-.906c-.03-2.226-.008-4.452-.022-6.678a1.618,1.618,0,0,1,.916-1.386Z" transform="translate(-954.372 -348)" fill="#3b7bf8"/>
      <path id="Path_11713" data-name="Path 11713" d="M870.284,406.6a21.239,21.239,0,0,1,3.721-.87,6.675,6.675,0,0,1,6.2,9.754.733.733,0,0,0,.172,1.055c.84.793,1.648,1.621,2.457,2.446a4.04,4.04,0,0,1-4.713,6.492,1.052,1.052,0,0,0-.648-.1,33.972,33.972,0,0,0-10.165,4.275l-.243.154c2.619,2.036,5.172,4.02,7.725,6.005,1.089.847,1.145,1.583.185,2.558-1.092,1.107-2.2,2.2-3.284,3.312a1.629,1.629,0,0,1-2.046.361q-6.146-2.672-12.32-5.282c-.633-.268-1.321-.4-1.97-.638a8.044,8.044,0,0,1-3.172-13.068c.976-1.042,2-2.039,3.061-3a1.725,1.725,0,0,1,1.129-.381.689.689,0,0,0,.739-.384,35.61,35.61,0,0,0,4.166-9.879,1.41,1.41,0,0,0-.092-.879,4.062,4.062,0,0,1,1.19-5.084,3.972,3.972,0,0,1,5.192.333C868.575,404.754,869.518,405.8,870.284,406.6Zm4.869,16.439-11.577-11.609a.365.365,0,0,0-.046.1,42.1,42.1,0,0,1-4.48,9.817c-.224.357-.047.519.17.734,1.805,1.789,3.616,3.573,5.4,5.383.325.329.536.3.9.085,1.291-.741,2.573-1.513,3.924-2.131C871.367,424.534,873.347,423.781,875.153,423.035Zm-11.524,7.46L856.1,422.97c-.58.579-1.246,1.192-1.852,1.86a5.366,5.366,0,0,0,7.464,7.687A26.62,26.62,0,0,0,863.629,430.495Zm17.835-8.674a9.525,9.525,0,0,0-.854-1.2q-7.318-7.348-14.66-14.673c-.133-.134-.254-.341-.413-.377a3.5,3.5,0,0,0-1.358-.161.992.992,0,0,0-.779,1.091,2.274,2.274,0,0,0,.589,1.247q7.37,7.43,14.787,14.814a2.552,2.552,0,0,0,.424.374,1.137,1.137,0,0,0,1.36.03A6.509,6.509,0,0,0,881.464,421.821Zm-9.131,15.486-6.442-5-3.883,3.507c2.556,1.1,5.193,2.233,7.841,3.347a.69.69,0,0,0,.59-.112C871.06,438.518,871.647,437.945,872.333,437.307Zm5.6-23.311a3.973,3.973,0,0,0-.987-4.657c-.955-.863-2.936-1.458-4.243-.609Z" transform="translate(-836.216 -393.448)" fill="#3b7bf8"/>
      <path id="Path_11714" data-name="Path 11714" d="M1041.58,372.039c-.795-.007-1.237-.251-1.466-.789a1.324,1.324,0,0,1,.323-1.556q2-2,4-4.007c.43-.43.848-.873,1.294-1.287a1.335,1.335,0,0,1,1.922-.037,1.3,1.3,0,0,1,0,1.917q-2.676,2.709-5.406,5.363A2.581,2.581,0,0,1,1041.58,372.039Z" transform="translate(-994.25 -361.288)" fill="#3b7bf8"/>
    </g>
  </g>
</svg>
