<svg xmlns="http://www.w3.org/2000/svg" width="61.482" height="64.923" viewBox="0 0 61.482 64.923">
  <path id="connection" d="M67.254,29.933a6.863,6.863,0,0,0-3.627-1.944,6.9,6.9,0,0,0-11.741-1.81,6.9,6.9,0,0,0-11.741,1.81,6.9,6.9,0,0,0-5.265,8.926,6.9,6.9,0,0,0,0,11.434,6.9,6.9,0,0,0,5.264,8.924,6.9,6.9,0,0,0,11.741,1.81,6.9,6.9,0,0,0,11.742-1.81,6.9,6.9,0,0,0,5.264-8.924,6.9,6.9,0,0,0,0-11.434,6.9,6.9,0,0,0-1.638-6.982Zm-20.7,28.531a3.782,3.782,0,0,1-3.681-2.97,1.571,1.571,0,0,0-1.506-1.241,3.762,3.762,0,0,1-.942-7.383,1.571,1.571,0,0,0-.84-3.027,6.86,6.86,0,0,0-3.068,1.814,3.76,3.76,0,0,1,.95-6.563,1.571,1.571,0,0,0,.794-2.315,3.761,3.761,0,0,1,3.106-5.769,1.571,1.571,0,0,0,1.506-1.242,3.763,3.763,0,0,1,7.442.792v.1a4.59,4.59,0,0,0-3.963.5,1.571,1.571,0,0,0,1.709,2.636,1.446,1.446,0,0,1,.789-.233,1.466,1.466,0,0,1,1.464,1.464V50.236a1.466,1.466,0,0,1-2.261,1.23,1.571,1.571,0,1,0-1.695,2.645,4.6,4.6,0,0,0,3.955.49v.1a3.765,3.765,0,0,1-3.761,3.761Zm19.75-12.3a1.571,1.571,0,0,0-.794,2.315,3.761,3.761,0,0,1-3.106,5.77A1.571,1.571,0,0,0,60.9,55.494a3.763,3.763,0,0,1-7.442-.791v-.1a4.6,4.6,0,0,0,3.955-.49,1.571,1.571,0,1,0-1.695-2.645,1.466,1.466,0,0,1-2.261-1.23V35.023a1.466,1.466,0,0,1,1.464-1.464,1.447,1.447,0,0,1,.789.233,1.571,1.571,0,1,0,1.709-2.636,4.591,4.591,0,0,0-3.963-.5v-.1a3.763,3.763,0,0,1,7.442-.792A1.571,1.571,0,0,0,62.4,31.01a3.762,3.762,0,0,1,.938,7.384,1.571,1.571,0,1,0,.848,3.025A6.9,6.9,0,0,0,67.254,39.6a3.76,3.76,0,0,1-.95,6.564Zm-5.751.039a1.57,1.57,0,0,1-2.113.685,4.835,4.835,0,0,1-.209-8.488,1.571,1.571,0,0,1,1.57,2.721,1.7,1.7,0,0,0-.62,2.314,1.673,1.673,0,0,0,.686.655,1.571,1.571,0,0,1,.685,2.113Zm20,6.305a30.368,30.368,0,0,0-18.78-38.6,1.571,1.571,0,1,0-1.024,2.97A27.227,27.227,0,0,1,77.68,51.205a5.84,5.84,0,1,0,2.873,1.308Zm-1.429,5.813h0a2.7,2.7,0,0,1-3.685.987,2.7,2.7,0,1,1,3.686-.987ZM23.648,49.643a1.572,1.572,0,0,0,1.544-1.868A27.226,27.226,0,0,1,46.444,15.959a5.841,5.841,0,1,0-.308-3.142A30.367,30.367,0,0,0,22.107,48.369a1.571,1.571,0,0,0,1.541,1.274Zm28.238-38.5a2.7,2.7,0,1,1-2.7,2.7A2.7,2.7,0,0,1,51.886,11.141ZM69.712,63.124a27.19,27.19,0,0,1-38.172-2.5,5.839,5.839,0,1,0-9.614-.731,5.8,5.8,0,0,0,3.545,2.722,5.87,5.87,0,0,0,1.522.2,5.778,5.778,0,0,0,1.984-.354,30.329,30.329,0,0,0,42.8,3.03,1.571,1.571,0,1,0-2.061-2.371ZM26.284,59.582a2.675,2.675,0,0,1-1.636-1.256h0a2.7,2.7,0,1,1,1.637,1.257Zm19.048-12.69a1.571,1.571,0,1,1-1.428-2.8,1.674,1.674,0,0,0,.687-.657,1.7,1.7,0,0,0-.621-2.313A1.571,1.571,0,0,1,45.54,38.4a4.835,4.835,0,0,1-.209,8.488Z" transform="translate(-21.145 -7.999)" fill="#3b7bf8"/>
</svg>
