<svg xmlns="http://www.w3.org/2000/svg" width="62.052" height="62.05" viewBox="0 0 62.052 62.05">
  <g id="Group_59185" data-name="Group 59185" transform="translate(0 0)">
    <g id="Group_59177" data-name="Group 59177" transform="translate(0 0)">
      <path id="Path_11689" data-name="Path 11689" d="M816.409,401.693v2.045c0,2.4.017,4.8,0,7.206a6.735,6.735,0,0,1-5.637,6.837,7.531,7.531,0,0,1-1.322.091q-13.277.008-26.555,0a6.686,6.686,0,0,1-6.852-5.6,8.512,8.512,0,0,1-.094-1.51c0-15.93.025-31.861-.025-47.791a6.87,6.87,0,0,1,5.648-7.022,9.519,9.519,0,0,1,1.512-.088c8.725-.005,17.451.058,26.175-.032a6.9,6.9,0,0,1,7.155,7.211c-.008.252,0,.5,0,.845.252.023.486.062.719.062q8.314,0,16.628.006a3.979,3.979,0,0,1,4.109,3.135,5.35,5.35,0,0,1,.1,1.191q.008,14.54,0,29.079a4.006,4.006,0,0,1-4.336,4.332q-8.188.008-16.376,0Zm18.874-26.918H794.815v.671q0,10.9,0,21.809c0,1.306.442,1.751,1.739,1.751h36.987c1.3,0,1.741-.445,1.741-1.75q0-10.9,0-21.809Zm-21.635,26.918h-.81q-8.186,0-16.373,0a4.01,4.01,0,0,1-4.336-4.33q-.006-14.537,0-29.073a5.445,5.445,0,0,1,.1-1.192,3.983,3.983,0,0,1,4.105-3.142q8.281-.014,16.562,0h.723c.576-3.766-1.932-5.466-4.541-5.439-8.681.089-17.362.033-26.044.034a4.064,4.064,0,0,0-4.405,4.406q0,20.351,0,40.7v.719h35.02Zm-.013,5.451H778.628c0,1.244,0,2.443,0,3.641a4.068,4.068,0,0,0,4.407,4.4q9.228,0,18.455,0c2.718,0,5.435.013,8.153,0a3.884,3.884,0,0,0,3.958-3.305A44.711,44.711,0,0,0,813.635,407.143Zm21.648-35.129c0-1.222,0-2.38,0-3.537,0-1.433-.408-1.84-1.84-1.84H796.658a4.792,4.792,0,0,0-.631.012,1.189,1.189,0,0,0-1.164,1.068c-.072,1.42-.022,2.846-.022,4.3Z" transform="translate(-775.92 -355.83)" fill="#3b7bf8"/>
      <path id="Path_11690" data-name="Path 11690" d="M992.219,485.246c-.03.116-.073.344-.145.561q-2.61,7.836-5.225,15.67c-.033.1-.063.2-.1.3a1.35,1.35,0,0,1-1.752.809,1.322,1.322,0,0,1-.774-1.708c.814-2.5,1.647-4.988,2.476-7.48q1.374-4.127,2.754-8.252a4.112,4.112,0,0,1,.278-.7,1.313,1.313,0,0,1,1.513-.624A1.378,1.378,0,0,1,992.219,485.246Z" transform="translate(-949.043 -462.2)" fill="#3b7bf8"/>
      <path id="Path_11691" data-name="Path 11691" d="M931.161,506.812c.6.554,1.174,1.07,1.727,1.612.916.9,1.832,1.8,2.717,2.731a1.338,1.338,0,1,1-1.883,1.9q-2.7-2.654-5.361-5.356a1.278,1.278,0,0,1-.007-1.92q2.656-2.7,5.359-5.358a1.34,1.34,0,1,1,1.889,1.9c-1.277,1.312-2.584,2.6-3.877,3.893C931.564,506.374,931.414,506.543,931.161,506.812Z" transform="translate(-902.301 -475.697)" fill="#3b7bf8"/>
      <path id="Path_11692" data-name="Path 11692" d="M1045,506.875c-1.464-1.461-2.8-2.8-4.141-4.137a3.953,3.953,0,0,1-.541-.614,1.335,1.335,0,0,1,1.813-1.846,2.976,2.976,0,0,1,.528.447q2.439,2.429,4.871,4.866a1.455,1.455,0,0,1,.015,2.43c-1.635,1.641-3.268,3.283-4.922,4.9a2.3,2.3,0,0,1-.943.577,1.211,1.211,0,0,1-1.419-.681,1.318,1.318,0,0,1,.286-1.618q1.691-1.7,3.395-3.394C1044.26,507.5,1044.606,507.225,1045,506.875Z" transform="translate(-995.576 -475.776)" fill="#3b7bf8"/>
      <path id="Path_11693" data-name="Path 11693" d="M810.7,387.861c.421,0,.843-.017,1.263,0a1.363,1.363,0,0,1,1.432,1.366,1.345,1.345,0,0,1-1.4,1.336c-.862.032-1.727.031-2.589,0a1.353,1.353,0,1,1,.027-2.7C809.855,387.844,810.277,387.861,810.7,387.861Z" transform="translate(-802.595 -382.456)" fill="#3b7bf8"/>
      <path id="Path_11694" data-name="Path 11694" d="M858.694,390.523c-.442,0-.886.025-1.326-.006a1.364,1.364,0,0,1-1.349-1.322,1.347,1.347,0,0,1,1.361-1.371c.883-.037,1.769-.035,2.652,0a1.339,1.339,0,0,1,1.376,1.353,1.356,1.356,0,0,1-1.388,1.345c-.44.026-.884,0-1.326,0Z" transform="translate(-842.517 -382.409)" fill="#3b7bf8"/>
      <path id="Path_11695" data-name="Path 11695" d="M1034.792,428.032c.484,0,.97-.025,1.452.006a1.327,1.327,0,0,1,.027,2.647c-.987.046-1.979.047-2.966,0a1.327,1.327,0,0,1,.036-2.647C1033.823,428.007,1034.309,428.032,1034.792,428.032Z" transform="translate(-988.917 -415.853)" fill="#3b7bf8"/>
      <path id="Path_11696" data-name="Path 11696" d="M1082.809,428.032c.484,0,.969-.025,1.451.006a1.327,1.327,0,0,1,.028,2.647c-.987.046-1.98.047-2.966,0a1.327,1.327,0,0,1,.035-2.647C1081.839,428.007,1082.325,428.032,1082.809,428.032Z" transform="translate(-1028.839 -415.853)" fill="#3b7bf8"/>
    </g>
  </g>
</svg>
