<svg xmlns="http://www.w3.org/2000/svg" width="66.111" height="55.862" viewBox="0 0 66.111 55.862">
  <g id="Group_59183" data-name="Group 59183" transform="translate(0.4 0.384)">
    <path id="Path_11688" data-name="Path 11688" d="M722.426,421.426c0,1.946-.051,3.894.018,5.838a2.53,2.53,0,0,1-1.521,2.6c-4.323,2.3-8.593,4.706-12.916,7.009a1.816,1.816,0,0,0-1.093,1.9c.053,3.425,0,6.851.034,10.276a2.455,2.455,0,0,1-1.447,2.422q-7.188,3.872-14.329,7.83a2.764,2.764,0,0,1-2.955-.016q-7.091-3.928-14.229-7.77a2.528,2.528,0,0,1-1.5-2.508c.04-3.5-.011-7.007.032-10.509a1.589,1.589,0,0,0-.962-1.636c-4.316-2.317-8.6-4.7-12.915-7.011a2.5,2.5,0,0,1-1.505-2.491c.049-4.048.042-8.1,0-12.144a2.354,2.354,0,0,1,1.384-2.329q7.185-3.877,14.327-7.833a2.861,2.861,0,0,1,3.064.043c4.315,2.4,8.663,4.74,12.976,7.142a1.627,1.627,0,0,0,1.809-.011c4.281-2.381,8.6-4.694,12.875-7.086a3.028,3.028,0,0,1,3.273-.032q6.976,3.893,14.021,7.664a2.611,2.611,0,0,1,1.573,2.694C722.368,417.454,722.426,419.441,722.426,421.426ZM662.59,414.72c3.12,1.708,6.159,3.211,9.022,5,1.873,1.168,3.509,1.6,5.292.048a.8.8,0,0,1,.2-.114,1.806,1.806,0,0,1,2.442.643,1.775,1.775,0,0,1-.747,2.408c-.657.413-1.382.719-2.03,1.145-.281.185-.627.548-.631.835-.047,2.827-.028,5.655-.028,8.535a2.022,2.022,0,0,0,.433-.1q5.48-2.983,10.948-5.987a1.02,1.02,0,0,0,.515-.67c.035-2.861.023-5.723.023-8.765l-2.2,1.172c-1.4.744-2.39.6-2.938-.42s-.122-1.875,1.293-2.672c.586-.33,1.166-.669,1.9-1.092-3.888-2.125-7.591-4.17-11.328-6.152a1.63,1.63,0,0,0-1.248.2c-3.289,1.763-6.558,3.565-9.831,5.357C663.357,414.273,663.035,414.465,662.59,414.72Zm30.957.032c3.811,2.088,7.515,4.126,11.233,6.138a1.039,1.039,0,0,0,.846.032c3.749-2.022,7.482-4.073,11.252-6.137-.132-.147-.191-.261-.284-.312-3.607-1.977-7.209-3.964-10.841-5.894a1.564,1.564,0,0,0-1.247.108c-3.389,1.81-6.754,3.665-10.123,5.512C694.121,414.342,693.883,414.527,693.546,414.752ZM678,436.426c3.87,2.114,7.509,4.126,11.184,6.069a1.727,1.727,0,0,0,1.363-.147c3.36-1.8,6.694-3.639,10.033-5.474.249-.137.473-.318.814-.55-3.1-1.692-6.151-3.171-8.994-4.979a4.242,4.242,0,0,0-5.226,0C684.3,433.17,681.217,434.667,678,436.426Zm25.474-2.978c0-2.932-.025-5.612.017-8.29a1.394,1.394,0,0,0-.856-1.444c-3.388-1.811-6.747-3.674-10.119-5.513-.279-.152-.581-.26-.972-.432,0,2.965-.025,5.761.033,8.555a1.49,1.49,0,0,0,.72.991c1.848,1.067,3.733,2.069,5.606,3.092Zm-27.45,5.908c0,2.941.023,5.617-.016,8.293a1.4,1.4,0,0,0,.865,1.446c3.288,1.754,6.548,3.56,9.819,5.344.361.2.734.373,1.277.647a40.235,40.235,0,0,1,.046-5.484c.4-2.834-.637-4.426-3.267-5.562C681.811,442.772,679.081,441.024,676.025,439.356Zm-3.424-5.893c0-2.934-.026-5.616.017-8.3a1.4,1.4,0,0,0-.866-1.443c-3.39-1.816-6.754-3.68-10.13-5.522-.261-.142-.546-.241-.947-.416,0,3-.019,5.866.031,8.734,0,.273.39.624.682.792,1.55.889,3.127,1.731,4.694,2.588Zm46.312-15.781c-3.981,2.18-7.726,4.224-11.46,6.289a.893.893,0,0,0-.443.6c-.029,2.894-.02,5.789-.02,8.89,3.968-2.166,7.745-4.221,11.505-6.305a.993.993,0,0,0,.4-.737C718.923,423.583,718.912,420.749,718.912,417.682Zm-27.425,37.438c3.962-2.165,7.71-4.205,11.443-6.273a1,1,0,0,0,.47-.7c.032-2.863.021-5.727.021-8.646a2.092,2.092,0,0,0-.441.1c-3.654,1.987-7.31,3.971-10.949,5.987a1.115,1.115,0,0,0-.521.783C691.473,449.2,691.488,452.041,691.488,455.119Z" transform="translate(-657.139 -404.633)" fill="#3b7bf8" stroke="#f5f9ff" stroke-width="0.8"/>
  </g>
</svg>
