<svg xmlns="http://www.w3.org/2000/svg" width="70.145" height="70.327" viewBox="0 0 70.145 70.327">
  <g id="mission" transform="translate(-4.145 -4)">
    <path id="Path_11979" data-name="Path 11979" d="M39.126,74.327A35.163,35.163,0,0,0,70.238,22.776a1.256,1.256,0,1,0-2.219,1.177,32.558,32.558,0,0,1,3.759,15.21c-1.79,43.31-63.514,43.311-65.3,0C6.172,14.949,33.1-1.282,54.337,10.271a1.256,1.256,0,0,0,1.177-2.219A35.076,35.076,0,0,0,39.126,4C-7.516,5.927-7.515,72.4,39.126,74.327Z" transform="translate(0 0)" fill="#3b7bf8"/>
    <path id="Path_11980" data-name="Path 11980" d="M34.545,24.512a9.789,9.789,0,0,1,3.2.534,1.256,1.256,0,0,0,1.6-.778c.552-2.222-3.36-2.133-4.791-2.268-16.658.688-16.658,24.429,0,25.117A12.572,12.572,0,0,0,47.1,34.558c-.128-1.458-.043-5.328-2.255-4.779a1.255,1.255,0,0,0-.778,1.6,9.746,9.746,0,0,1,.522,3.183c-.5,13.308-19.59,13.308-20.093,0A10.058,10.058,0,0,1,34.545,24.512Z" transform="translate(4.581 4.605)" fill="#3b7bf8"/>
    <path id="Path_11981" data-name="Path 11981" d="M48.86,17.69a1.255,1.255,0,0,0-.489-1.707A23.849,23.849,0,0,0,36.836,13c-31.65,1.308-31.65,46.414,0,47.722a23.847,23.847,0,0,0,20.878-35.4,1.256,1.256,0,1,0-2.2,1.218c7.96,13.805-2.733,31.943-18.682,31.666A21.373,21.373,0,0,1,15.487,36.861C15.213,20.913,33.346,10.218,47.153,18.18a1.253,1.253,0,0,0,1.707-.49Z" transform="translate(2.291 2.303)" fill="#3b7bf8"/>
    <path id="Path_11982" data-name="Path 11982" d="M46.728,16.034l.461,6.023L31.368,37.878a1.256,1.256,0,1,0,1.776,1.776L48.965,23.833l6.023.461a1.255,1.255,0,0,0,.984-.364l9.14-9.14a1.264,1.264,0,0,0-.792-2.14L58.8,12.227,58.372,6.7a1.265,1.265,0,0,0-2.14-.792l-9.14,9.14A1.254,1.254,0,0,0,46.728,16.034Zm9.348-6.417c.5,5.848-.486,4.819,5.329,5.329l-6.8,6.8-4.949-.379-.379-4.949Z" transform="translate(6.871 0.397)" fill="#3b7bf8"/>
  </g>
</svg>
