<svg xmlns="http://www.w3.org/2000/svg" width="23.729" height="30.605" viewBox="0 0 23.729 30.605">
  <g id="Group_104208" data-name="Group 104208" transform="translate(4898.801 -5184.599)">
    <path id="Path_74456" data-name="Path 74456" d="M454.224,203.455a.849.849,0,0,1,0,1.36l-4.051,3.258a.882.882,0,0,1-1.1-1.374l3.2-2.564-3.183-2.564h0a.88.88,0,1,1,1.106-1.361Z" transform="translate(-5329.636 4995.086)" fill="#fff"/>
    <path id="Path_74457" data-name="Path 74457" d="M292.1,201.219a.878.878,0,0,1-.133,1.238l-3.183,2.561,3.183,2.561a.881.881,0,0,1-1.1,1.361l-4.033-3.241a.891.891,0,0,1-.34-.68.88.88,0,0,1,.34-.68l4.033-3.248a.881.881,0,0,1,1.238.129Z" transform="translate(-5177.291 4994.204)" fill="#fff"/>
    <path id="Path_74458" data-name="Path 74458" d="M244.8,448a.881.881,0,1,1,0,1.762h-5.921a.881.881,0,0,1,0-1.762Z" transform="translate(-5131.747 4762.106)" fill="#fff"/>
    <path id="Path_74459" data-name="Path 74459" d="M160.852,30.007a.9.9,0,0,0,.9.9h3.742a.9.9,0,0,0,.9-.9v-.232h-5.542Zm10.73,19.913v4.761a3.9,3.9,0,0,1-3.9,3.928h-9.053a3.9,3.9,0,0,1-3.9-3.911V31.932A3.921,3.921,0,0,1,158.651,28h9.019a3.921,3.921,0,0,1,3.914,3.928v3.286a.881.881,0,0,1-1.762,0V31.932a2.152,2.152,0,0,0-1.66-2.095v.17A2.666,2.666,0,0,1,165.5,32.67h-3.742a2.663,2.663,0,0,1-2.649-2.662v-.232h-.446a2.156,2.156,0,0,0-2.156,2.156V54.718a2.139,2.139,0,0,0,2.139,2.139h9.036A2.139,2.139,0,0,0,169.82,54.7V49.94a.881.881,0,0,1,1.762,0Z" transform="translate(-5053.531 5156.595)" fill="#fff"/>
  </g>
</svg>
