<svg xmlns="http://www.w3.org/2000/svg" xmlns:xlink="http://www.w3.org/1999/xlink" width="30" height="30" viewBox="0 0 30 30">
  <defs>
    <clipPath id="clip-path">
      <rect id="Rectangle_44174" data-name="Rectangle 44174" width="30" height="30" fill="#fff"/>
    </clipPath>
  </defs>
  <g id="Group_104209" data-name="Group 104209" clip-path="url(#clip-path)">
    <path id="Path_74460" data-name="Path 74460" d="M30,.645v28.7A1.129,1.129,0,0,1,28.823,30q-13.852-.016-27.7-.007c-.805,0-1.112-.308-1.112-1.112q0-13.852-.009-27.7A1.13,1.13,0,0,1,.655,0h28.7A1.348,1.348,0,0,1,30,.645M28.224,28.226V5.287a.98.98,0,0,0-.107-.013q-6.252,0-12.5.006a.456.456,0,0,0-.315.186c-.621.911-1.239,1.824-1.839,2.751a1.146,1.146,0,0,1-1.065.575c-3.432-.011-6.852,0-10.28,0H1.782v19.43ZM1.781,7.015c.054.007.072.012.092.012q5.037,0,10.074-.006a.458.458,0,0,0,.314-.192c.622-.911,1.239-1.824,1.839-2.751a1.145,1.145,0,0,1,1.068-.57q6.355.016,12.71.006h.354V1.777H1.781Z" transform="translate(-0.002)" fill="#fff"/>
    <path id="Path_74461" data-name="Path 74461" d="M103.087,148.6c-.354.2-.7.382-1.031.584a.315.315,0,0,0-.123.224c-.013.321,0,.644-.007.966a.872.872,0,0,1-.888.894q-1.742.012-3.484,0a.874.874,0,0,1-.9-.914c0-.352.11-.765-.037-1.036s-.565-.368-.843-.569a.379.379,0,0,0-.514-.022,6.707,6.707,0,0,1-.735.427.858.858,0,0,1-1.215-.332q-.874-1.487-1.726-2.989a.858.858,0,0,1,.335-1.256c.245-.153.5-.3.76-.439a.291.291,0,0,0,.184-.317c-.021-.31.006-.624-.011-.935a.392.392,0,0,0-.146-.27c-.245-.168-.522-.3-.78-.461a.865.865,0,0,1-.344-1.254q.851-1.5,1.726-2.989a.867.867,0,0,1,1.238-.33c.325.178.641.368.946.545.355-.2.7-.382,1.032-.585a.316.316,0,0,0,.123-.226c.013-.321,0-.644.007-.966a.87.87,0,0,1,.888-.894q1.742-.011,3.484,0a.872.872,0,0,1,.9.885c.01.368-.11.805.045,1.093s.593.368.883.574a.336.336,0,0,0,.439,0c.238-.152.49-.289.736-.427a.858.858,0,0,1,1.239.316q.875,1.487,1.726,2.989a.858.858,0,0,1-.333,1.258c-.245.154-.5.3-.759.44a.289.289,0,0,0-.185.316c.021.31-.006.624.011.935a.391.391,0,0,0,.145.27c.259.173.541.311.805.477a.858.858,0,0,1,.333,1.212q-.858,1.53-1.754,3.04a.858.858,0,0,1-1.2.317c-.335-.179-.66-.375-.975-.555m-8.684-1.4c.245-.143.469-.27.689-.393a.944.944,0,0,1,1.138.086,13.705,13.705,0,0,0,1.532.891.954.954,0,0,1,.65.967c0,.245,0,.5,0,.743h1.758V148.7a.944.944,0,0,1,.633-.919,15.087,15.087,0,0,0,1.558-.9.941.941,0,0,1,1.113-.088c.229.123.456.257.7.393.056-.086.107-.156.15-.23.245-.42.484-.842.736-1.28-.254-.148-.49-.281-.723-.423a.951.951,0,0,1-.449-1,12.86,12.86,0,0,0,0-1.774.957.957,0,0,1,.477-1.036c.223-.134.451-.261.694-.4l-.878-1.516c-.245.141-.467.267-.688.39a.945.945,0,0,1-1.138-.085,13.537,13.537,0,0,0-1.532-.89.952.952,0,0,1-.651-.967v-.767H98.413v.805a.875.875,0,0,1-.637.911,5.141,5.141,0,0,0-1.559.906.868.868,0,0,1-1.1.1c-.229-.123-.455-.26-.7-.4l-.875,1.516.368.218c.123.074.255.145.378.223a.87.87,0,0,1,.418.952,4.856,4.856,0,0,0,0,1.833.877.877,0,0,1-.449.99c-.23.141-.466.275-.713.421l.874,1.515" transform="translate(-84.288 -124.851)" fill="#fff"/>
    <path id="Path_74462" data-name="Path 74462" d="M45.9,46.675a.878.878,0,1,1,.885-.858.887.887,0,0,1-.885.858" transform="translate(-41.503 -41.406)" fill="#fff"/>
    <path id="Path_74463" data-name="Path 74463" d="M90.828,46.679a.878.878,0,1,1,.858-.885.889.889,0,0,1-.858.885" transform="translate(-82.898 -41.408)" fill="#fff"/>
    <path id="Path_74464" data-name="Path 74464" d="M135.737,44.923a.878.878,0,1,1-.887.858.888.888,0,0,1,.887-.858" transform="translate(-124.296 -41.407)" fill="#fff"/>
    <path id="Path_74465" data-name="Path 74465" d="M157.011,198.593a3.22,3.22,0,1,1-3.224-3.217,3.22,3.22,0,0,1,3.224,3.217m-3.224,1.471a1.464,1.464,0,1,0-1.464-1.471,1.464,1.464,0,0,0,1.464,1.471" transform="translate(-138.786 -180.092)" fill="#fff"/>
  </g>
</svg>
