<svg xmlns="http://www.w3.org/2000/svg" width="95.5" height="80.607" viewBox="0 0 95.5 80.607">
  <g id="Group_59583" data-name="Group 59583" transform="translate(-1185.948 134.027)">
    <path id="Path_4246" data-name="Path 4246" d="M1186-87.144c.6-6.933-1.052-15.429,1.061-23.792,3.641-14.4,15.01-22.343,29.685-23.069,4.04-.2,6.28,1.231,6.4,5.674.234,8.35.155,8.695-5.511,9.186-10.61.919-14.875,4.746-16.125,14.471-.611,4.765,1.422,7.43,6.216,7.713,3.517.208,7.056.028,10.586.058,7.616.067,12.148,4.559,12.195,12.141.041,6.529.059,13.06-.005,19.588-.07,7.144-4.757,11.681-12.068,11.726q-10.059.062-20.118,0c-7.523-.034-12.129-4.484-12.29-12.1C1185.892-72.251,1186-78.959,1186-87.144Z" transform="translate(0 0)" fill="#57698d"/>
    <path id="Path_4247" data-name="Path 4247" d="M1234-87.042c.612-6.912-1.027-15.4,1.039-23.774,3.639-14.755,15.5-22.674,30.113-23.193,4.291-.152,6.321,1.882,5.912,6.08-.359,3.7,2.176,8.712-5.3,8.93-10.68.312-14.917,4.508-16.214,14.206-.673,5.032,1.416,7.622,6.58,7.85,3.523.155,7.058,0,10.587.043,6.985.093,11.7,4.638,11.78,11.484q.124,10.322,0,20.647a11.122,11.122,0,0,1-11.407,11.311c-6.881.083-13.765.039-20.647.013-7.622-.029-12.231-4.376-12.411-11.98C1233.879-72.127,1234-78.836,1234-87.042Z" transform="translate(2.878 -0.01)" fill="#57698d"/>
  </g>
</svg>
