<svg xmlns="http://www.w3.org/2000/svg" width="24.185" height="24.186" viewBox="0 0 24.185 24.186">
  <g id="search-interface-symbol" transform="translate(-0.006)">
    <g id="_x34__4_" transform="translate(0.006)">
      <g id="Group_59299" data-name="Group 59299" transform="translate(0)">
        <path id="Path_11971" data-name="Path 11971" d="M23.962,22.87l-6.244-6.145a9.877,9.877,0,0,0,2.64-6.712A10.1,10.1,0,0,0,10.182,0,10.1,10.1,0,0,0,.006,10.014,10.1,10.1,0,0,0,10.182,20.028a10.233,10.233,0,0,0,6.4-2.236l6.269,6.169a.791.791,0,0,0,1.107,0A.762.762,0,0,0,23.962,22.87ZM10.182,18.487a8.542,8.542,0,0,1-8.61-8.473,8.542,8.542,0,0,1,8.61-8.473,8.542,8.542,0,0,1,8.61,8.473A8.542,8.542,0,0,1,10.182,18.487Z" transform="translate(-0.006 0)" fill="#08243e"/>
      </g>
    </g>
  </g>
</svg>
