<svg xmlns="http://www.w3.org/2000/svg" width="60.252" height="60.252" viewBox="0 0 60.252 60.252">
  <g id="Group_21435" data-name="Group 21435" transform="translate(0 -0.31)">
    <circle id="Ellipse_208" data-name="Ellipse 208" cx="30.126" cy="30.126" r="30.126" transform="translate(0 0.31)" fill="#596c8e"/>
    <g id="Group_21437" data-name="Group 21437" transform="translate(19 19.31)">
      <path id="Path_10509" data-name="Path 10509" d="M282.763,748.211c-.007.04-.02-.036,0,0a10.771,10.771,0,0,0,.176-1.911,10.525,10.525,0,0,0-12.505-10.358h0a6.236,6.236,0,0,0-8.361,8.541,10.612,10.612,0,0,0-.158,1.818,10.511,10.511,0,0,0,12.356,10.383,6.234,6.234,0,0,0,8.5-8.472m-10.3,4.546c-3.736,0-5.407-1.841-5.407-3.223a1.176,1.176,0,0,1,1.239-1.2c1.6,0,1.183,2.3,4.167,2.3,1.526,0,2.37-.831,2.37-1.684,0-.509-.252-1.078-1.259-1.327l-3.32-.832c-2.676-.672-3.162-2.122-3.162-3.487,0-2.833,2.658-3.9,5.154-3.9,2.3,0,5.009,1.275,5.009,2.973a1.215,1.215,0,0,1-1.346,1.152c-1.364,0-1.111-1.893-3.861-1.893-1.363,0-2.119.618-2.119,1.5s1.078,1.168,2.012,1.381l2.46.549c2.694.6,3.376,2.178,3.376,3.665,0,2.3-1.762,4.019-5.314,4.019" transform="translate(-261.285 -735.211)" fill="#fff"/>
    </g>
  </g>
</svg>
