<svg xmlns="http://www.w3.org/2000/svg" width="20.979" height="20.979" viewBox="0 0 20.979 20.979">
  <g id="_x32_2_x2C__memories_x2C__time_x2C__emotion_x2C__memory_x2C__efficiency_x2C__clock" transform="translate(-1 -1)">
    <g id="Group_59065" data-name="Group 59065" transform="translate(1 1)">
      <path id="Path_11622" data-name="Path 11622" d="M11.489,1A10.409,10.409,0,0,0,5.125,3.15v-.3a.617.617,0,0,0-1.234,0s0,1.663,0,1.659a.618.618,0,0,0,1.053.436,9.226,9.226,0,1,1-1.781,2.5A.617.617,0,0,0,2.055,6.9,10.491,10.491,0,1,0,11.489,1Z" transform="translate(-1 -1)" fill="#08243e"/>
      <path id="Path_11623" data-name="Path 11623" d="M83.4,90.809A7.4,7.4,0,1,0,76,83.4,7.413,7.413,0,0,0,83.4,90.809Zm-3.471-5.418,2.854-2.283V79.7a.617.617,0,0,1,1.234,0v3.7a.617.617,0,0,1-.232.482L80.7,86.354a.617.617,0,1,1-.771-.964Z" transform="translate(-72.915 -72.915)" fill="#08243e"/>
    </g>
  </g>
</svg>
