<svg xmlns="http://www.w3.org/2000/svg" width="79.998" height="79.999" viewBox="0 0 79.998 79.999">
  <g id="light-bulb" transform="translate(-10 -9.999)">
    <path id="Path_11972" data-name="Path 11972" d="M37.927,60.1a5.874,5.874,0,0,0-.055,11.481,5.864,5.864,0,0,0,3.183,9.791,8.951,8.951,0,0,0,17.89,0,5.864,5.864,0,0,0,3.183-9.791A5.874,5.874,0,0,0,62.072,60.1c.394-3.868,2.028-6.04,5.494-9.765a23.993,23.993,0,0,0-19.1-40.285,24.181,24.181,0,0,0-22.444,23A23.846,23.846,0,0,0,32.492,50.4c3.352,3.576,5.037,5.81,5.435,9.7ZM50,88a6.965,6.965,0,0,1-6.94-6.524H56.939A6.965,6.965,0,0,1,50,88Zm7.853-8.524H42.146a3.877,3.877,0,1,1,0-7.753H57.853a3.877,3.877,0,1,1,0,7.753Zm6.877-13.63a3.881,3.881,0,0,1-3.877,3.876H39.146a3.877,3.877,0,1,1,0-7.753H60.853A3.881,3.881,0,0,1,64.73,65.845ZM44.9,41.326h-4.06a4.06,4.06,0,1,1,4.06-4.06Zm2,18.642V43.326H53.1V59.968Zm1.7-47.925A21.993,21.993,0,0,1,66.1,48.97c-3.418,3.673-5.556,6.331-6.022,11H55.1V43.326h4.06a6.06,6.06,0,1,0-6.06-6.06v4.06H46.9v-4.06a6.06,6.06,0,1,0-6.06,6.06H44.9V59.968H39.937c-.457-4.714-2.594-7.32-5.986-10.94a21.86,21.86,0,0,1-5.927-15.907,22.164,22.164,0,0,1,20.57-21.078ZM55.1,41.326v-4.06a4.06,4.06,0,1,1,4.06,4.06Z" transform="translate(0)" fill="#3b7bf8"/>
    <path id="Path_11973" data-name="Path 11973" d="M76.837,23.584a1,1,0,0,0,.5-.134l7.728-4.462a1,1,0,1,0-1-1.732l-7.728,4.462a1,1,0,0,0,.5,1.866Z" transform="translate(-0.002 0)" fill="#3b7bf8"/>
    <path id="Path_11974" data-name="Path 11974" d="M89,33.42H80.076a1,1,0,0,0,0,2H89a1,1,0,0,0,0-2Z" transform="translate(-0.002 -0.001)" fill="#3b7bf8"/>
    <path id="Path_11975" data-name="Path 11975" d="M76.1,45.789a1,1,0,0,0,.366,1.366l7.728,4.462a1,1,0,1,0,1-1.732l-7.728-4.462A1,1,0,0,0,76.1,45.789Z" transform="translate(-0.002 -0.001)" fill="#3b7bf8"/>
    <path id="Path_11976" data-name="Path 11976" d="M14.935,18.989l7.728,4.462a1,1,0,1,0,1-1.732l-7.728-4.462a1,1,0,1,0-1,1.732Z" transform="translate(0 0)" fill="#3b7bf8"/>
    <path id="Path_11977" data-name="Path 11977" d="M11,35.42h8.924a1,1,0,0,0,0-2H11a1,1,0,0,0,0,2Z" transform="translate(0 -0.001)" fill="#3b7bf8"/>
    <path id="Path_11978" data-name="Path 11978" d="M22.536,45.423l-7.728,4.462a1,1,0,0,0,1,1.732l7.728-4.462a1,1,0,0,0-1-1.732Z" transform="translate(0 -0.001)" fill="#3b7bf8"/>
  </g>
</svg>
