<svg xmlns="http://www.w3.org/2000/svg" width="25.873" height="28.592" viewBox="0 0 25.873 28.592">
  <g id="Group_59188" data-name="Group 59188" transform="translate(0 0)">
    <g id="Group_59180" data-name="Group 59180" transform="translate(0)">
      <path id="Path_11715" data-name="Path 11715" d="M806.805,376.592H791.614c-.356-.2-.471-.411-.392-.71.071-.273.292-.405.678-.407h1.614c0-.1,0-.155,0-.21a1.7,1.7,0,0,1,1.854-1.831c.335,0,.671-.014,1,0,.215.012.285-.075.328-.27.163-.735.343-1.465.516-2.2.022-.095.037-.191.061-.312h-.366q-4.117,0-8.235,0a2.266,2.266,0,0,1-2.4-2.4q-.006-7.076,0-14.152a2.858,2.858,0,0,1,.123-.85,2.233,2.233,0,0,1,2.275-1.537q7.356,0,14.711,0a.445.445,0,0,0,.429-.226c.513-.787,1.043-1.562,1.562-2.345a2.458,2.458,0,0,1,1.608-1.108.4.4,0,0,0,.1-.049h.726a.807.807,0,0,0,.126.05,2.4,2.4,0,0,1,1.943,2.633,7.125,7.125,0,0,1-.254,1.02,5.958,5.958,0,0,1,.725.069,2.261,2.261,0,0,1,1.794,2.365q0,7.048,0,14.1a2.988,2.988,0,0,1-.063.665,2.262,2.262,0,0,1-2.338,1.76q-4.131.006-8.263,0h-.354c.217.91.42,1.777.639,2.641.015.06.146.125.225.128.437.014.876-.01,1.311.016a1.65,1.65,0,0,1,1.575,1.4,6.139,6.139,0,0,1,.047.627c.567,0,1.124,0,1.68,0a.557.557,0,0,1,.586.381C807.294,376.154,807.167,376.385,806.805,376.592Zm4.223-11.932v-.335q0-5.082,0-10.163a2.651,2.651,0,0,0-.01-.279,1.115,1.115,0,0,0-1.111-1.041c-.316-.01-.634.01-.949-.008a.538.538,0,0,0-.493.232q-2.3,2.824-4.624,5.631a.757.757,0,0,0-.2.82,1.764,1.764,0,0,1,.062.552,2.632,2.632,0,0,1-2.4,2.8c-.492.019-.985,0-1.477-.008a2.7,2.7,0,0,0-2.013.649.536.536,0,0,1-.9-.291,8.866,8.866,0,0,1-.346-3.115,3.52,3.52,0,0,1,3.523-3.384.42.42,0,0,0,.377-.22c.749-1.132,1.507-2.259,2.261-3.388.049-.074.093-.152.164-.27H788.707a1.161,1.161,0,0,0-1.316,1.322q0,5.082,0,10.163v.318c.112.007.194.015.275.016.437,0,.875-.009,1.312.008a.554.554,0,1,1-.02,1.107c-.26.008-.521,0-.782,0h-.785c0,.87,0,1.688,0,2.506a1.152,1.152,0,0,0,1.25,1.257q10.569,0,21.138,0a1.153,1.153,0,0,0,1.248-1.259c.005-.754,0-1.508,0-2.262,0-.071-.014-.143-.024-.243H793.739a2.938,2.938,0,0,1-.362-.011.546.546,0,0,1-.072-1.069,1.987,1.987,0,0,1,.443-.035q8.447,0,16.894,0Zm-6.291-8.8.533-.649q1.575-1.919,3.152-3.838a1.341,1.341,0,0,0,.3-1.324,1.253,1.253,0,0,0-1.089-.914,1.289,1.289,0,0,0-1.308.625q-1.574,2.352-3.148,4.7c-.034.05-.059.107-.091.168Zm-6.92,6.286a4.68,4.68,0,0,1,2.427-.381,6.884,6.884,0,0,0,.78.014,1.482,1.482,0,0,0,1.5-1.169,3.68,3.68,0,0,0-.029-1.071.562.562,0,0,0-.219-.329c-.56-.431-1.13-.848-1.7-1.265a.535.535,0,0,0-.245-.111,2.416,2.416,0,0,0-2.509,1.683A5.441,5.441,0,0,0,797.818,362.142Zm5.947,13.321c.078-.685-.12-.912-.78-.912h-7.56c-.654,0-.865.25-.762.912Zm-5.324-4.794-.652,2.746h2.843l-.654-2.746Zm5.588-13.946-1.58-1.172-1.066,1.591,1.431,1.061Z" transform="translate(-786.273 -348)" fill="#fff"/>
      <path id="Path_11718" data-name="Path 11718" d="M845.844,572.959a.55.55,0,0,1-.551-.549.557.557,0,1,1,1.113.013A.548.548,0,0,1,845.844,572.959Z" transform="translate(-840.898 -555.186)" fill="#fff"/>
    </g>
  </g>
</svg>
