<svg xmlns="http://www.w3.org/2000/svg" xmlns:xlink="http://www.w3.org/1999/xlink" width="173" height="173" viewBox="0 0 173 173">
  <defs>
    <linearGradient id="linear-gradient" x1="0.5" x2="0.5" y2="1" gradientUnits="objectBoundingBox">
      <stop offset="0" stop-color="#9ae5ff"/>
      <stop offset="1" stop-color="#eff7fd"/>
    </linearGradient>
    <linearGradient id="linear-gradient-2" x1="0.531" y1="0.127" x2="0.328" y2="1.542" gradientUnits="objectBoundingBox">
      <stop offset="0" stop-color="#09005d"/>
      <stop offset="1" stop-color="#1a0f91"/>
    </linearGradient>
    <linearGradient id="linear-gradient-3" x1="0.639" y1="-14.128" x2="0.128" y2="39.266" gradientUnits="objectBoundingBox">
      <stop offset="0" stop-color="#53d8ff"/>
      <stop offset="1" stop-color="#3840f7"/>
    </linearGradient>
    <linearGradient id="linear-gradient-4" x1="0.598" y1="-8.039" x2="0.176" y2="28.078" xlink:href="#linear-gradient-3"/>
    <linearGradient id="linear-gradient-5" x1="0.583" y1="-6.864" x2="0.168" y2="29.22" xlink:href="#linear-gradient-3"/>
    <linearGradient id="linear-gradient-6" x1="0.574" y1="-5.734" x2="0.135" y2="30.691" xlink:href="#linear-gradient-3"/>
    <linearGradient id="linear-gradient-7" x1="0.568" y1="-0.011" x2="0.363" y2="1.078" gradientUnits="objectBoundingBox">
      <stop offset="0" stop-color="#0fa4ff"/>
      <stop offset="1" stop-color="#0090ff"/>
    </linearGradient>
    <linearGradient id="linear-gradient-8" x1="94.026" y1="0.533" x2="95.033" y2="0.533" gradientUnits="objectBoundingBox">
      <stop offset="0" stop-color="#febbba"/>
      <stop offset="1" stop-color="#ff928e"/>
    </linearGradient>
    <linearGradient id="linear-gradient-9" x1="109.607" y1="0.551" x2="110.621" y2="0.551" xlink:href="#linear-gradient-8"/>
    <linearGradient id="linear-gradient-10" x1="18.108" y1="0.495" x2="19.101" y2="0.495" xlink:href="#linear-gradient-8"/>
    <linearGradient id="linear-gradient-11" x1="17.511" y1="1.586" x2="19.491" y2="4.27" xlink:href="#linear-gradient-8"/>
    <linearGradient id="linear-gradient-12" x1="130.572" y1="0.665" x2="132.573" y2="-1.115" xlink:href="#linear-gradient-8"/>
    <linearGradient id="linear-gradient-13" x1="14.436" y1="0.528" x2="15.438" y2="0.528" xlink:href="#linear-gradient-8"/>
    <linearGradient id="linear-gradient-14" x1="36.096" y1="0.519" x2="37.087" y2="0.519" xlink:href="#linear-gradient-8"/>
    <linearGradient id="linear-gradient-15" x1="-12.329" y1="7.734" x2="-12.653" y2="6.669" xlink:href="#linear-gradient-8"/>
    <linearGradient id="linear-gradient-16" x1="-41.338" y1="34.803" x2="-42.285" y2="30.19" xlink:href="#linear-gradient-8"/>
    <linearGradient id="linear-gradient-17" x1="0" y1="0.5" x2="1" y2="0.5" xlink:href="#linear-gradient-8"/>
    <linearGradient id="linear-gradient-19" x1="0.367" y1="0.85" x2="0.601" y2="0.282" xlink:href="#linear-gradient-8"/>
    <linearGradient id="linear-gradient-20" x1="0.766" y1="0.225" x2="11.383" y2="-10.741" xlink:href="#linear-gradient-2"/>
    <linearGradient id="linear-gradient-22" x1="12.523" y1="3.015" x2="11.483" y2="3.766" xlink:href="#linear-gradient-8"/>
    <linearGradient id="linear-gradient-23" x1="50.787" y1="8.296" x2="46.509" y2="10.906" xlink:href="#linear-gradient-8"/>
    <linearGradient id="linear-gradient-24" x1="-1.05" y1="2.829" x2="0.734" y2="-0.03" xlink:href="#linear-gradient-8"/>
    <linearGradient id="linear-gradient-25" x1="0.47" y1="0.997" x2="0.639" y2="-1.153" xlink:href="#linear-gradient-8"/>
    <linearGradient id="linear-gradient-26" x1="0.751" y1="1.908" x2="0.44" y2="0.311" xlink:href="#linear-gradient-8"/>
    <linearGradient id="linear-gradient-27" x1="-14.865" y1="20.427" x2="-13.464" y2="21.18" xlink:href="#linear-gradient-8"/>
    <linearGradient id="linear-gradient-28" x1="-64.909" y1="65.625" x2="-59.04" y2="68.068" xlink:href="#linear-gradient-8"/>
    <linearGradient id="linear-gradient-29" x1="0.623" y1="0.5" x2="1.623" y2="0.5" xlink:href="#linear-gradient-8"/>
    <linearGradient id="linear-gradient-30" x1="0.906" y1="3.328" x2="0.167" y2="5.764" xlink:href="#linear-gradient-2"/>
    <linearGradient id="linear-gradient-31" x1="-59.102" y1="4.474" x2="-59.087" y2="8.118" xlink:href="#linear-gradient-2"/>
    <linearGradient id="linear-gradient-32" x1="-189.32" y1="1.164" x2="-189.582" y2="-0.58" xlink:href="#linear-gradient-8"/>
    <linearGradient id="linear-gradient-33" x1="-113.541" y1="3.704" x2="-113.514" y2="7.135" xlink:href="#linear-gradient-2"/>
    <linearGradient id="linear-gradient-34" x1="-223.399" y1="1.13" x2="-223.684" y2="-0.791" xlink:href="#linear-gradient-8"/>
    <linearGradient id="linear-gradient-35" x1="-965.272" y1="2.369" x2="-963.891" y2="1.878" gradientUnits="objectBoundingBox">
      <stop offset="0" stop-color="#4f52ff"/>
      <stop offset="1" stop-color="#4042e2"/>
    </linearGradient>
    <linearGradient id="linear-gradient-36" x1="-22.88" y1="0.161" x2="-23.473" y2="1.632" gradientUnits="objectBoundingBox">
      <stop offset="0" stop-color="#0fa4ff"/>
      <stop offset="1" stop-color="#4042e2"/>
    </linearGradient>
    <linearGradient id="linear-gradient-37" x1="-53.987" y1="0.5" x2="-52.987" y2="0.5" xlink:href="#linear-gradient-8"/>
    <linearGradient id="linear-gradient-38" x1="-27.458" y1="0.5" x2="-26.458" y2="0.5" xlink:href="#linear-gradient-8"/>
    <linearGradient id="linear-gradient-39" x1="-106.838" y1="1.029" x2="-105.549" y2="0.222" xlink:href="#linear-gradient-8"/>
    <linearGradient id="linear-gradient-40" x1="-85.236" y1="0.175" x2="-86.553" y2="1.493" xlink:href="#linear-gradient-8"/>
    <linearGradient id="linear-gradient-41" x1="-272.262" y1="2.763" x2="-269" y2="0.44" xlink:href="#linear-gradient-8"/>
    <linearGradient id="linear-gradient-42" x1="0.857" y1="-10.915" x2="0.637" y2="-3.932" xlink:href="#linear-gradient-2"/>
  </defs>
  <g id="Group_56587" data-name="Group 56587" transform="translate(-346 -1855)">
    <circle id="Ellipse_727" data-name="Ellipse 727" cx="86.5" cy="86.5" r="86.5" transform="translate(346 1855)" fill="url(#linear-gradient)"/>
    <g id="Group_55762" data-name="Group 55762" transform="translate(-75.266 1428.083)">
      <g id="Group_6430" data-name="Group 6430" transform="translate(455.195 462.336)">
        <g id="Group_6429" data-name="Group 6429" transform="translate(52.251 0)">
          <path id="Path_4037" data-name="Path 4037" d="M2020.142,716.911a10.055,10.055,0,0,0,2.483,2.113l.046,2.308c0,.256.224.157,2.769,1.027.236.076.209-.144,1.6-1.913a10.066,10.066,0,0,0,3.25-.264l1.666,1.6c.185.178.27-.047,2.685-1.231a.19.19,0,0,0,.1-.2l-.326-2.288a10.045,10.045,0,0,0,2.113-2.483c2.205-.09,2.408.062,2.486-.178.8-2.626.983-2.7.783-2.847l-1.846-1.386a10.07,10.07,0,0,0-.264-3.25l1.6-1.666c.177-.185-.048-.269-1.232-2.684-.112-.219-.24-.048-2.483.224a10.065,10.065,0,0,0-2.483-2.113l-.046-2.308c-.005-.257-.224-.157-2.769-1.028-.234-.076-.2.135-1.6,1.913a10.059,10.059,0,0,0-3.25.264l-1.666-1.6a.19.19,0,0,0-.218-.032l-2.467,1.264a.19.19,0,0,0-.1.2l.325,2.287a10.061,10.061,0,0,0-2.113,2.483c-2.205.09-2.408-.062-2.485.178-.8,2.625-.983,2.7-.784,2.847l1.846,1.386a10.062,10.062,0,0,0,.264,3.25c-1.5,1.623-1.748,1.659-1.632,1.884l1.263,2.466C2017.771,717.356,2017.91,717.181,2020.142,716.911Z" transform="translate(-2012.728 -695.304)" fill="#91dbff"/>
          <g id="Group_6428" data-name="Group 6428">
            <g id="Group_6425" data-name="Group 6425" transform="translate(12.237 12.158)">
              <path id="Path_4038" data-name="Path 4038" d="M2265.85,951.2a2.891,2.891,0,1,1,2.7,3.073h0A2.894,2.894,0,0,1,2265.85,951.2Zm2.726,2.643h0Zm-1.867-2.587a2.033,2.033,0,0,0,1.895,2.157h0a2.03,2.03,0,1,0-1.895-2.157Z" transform="translate(-2265.844 -948.496)" fill="#fff"/>
            </g>
            <g id="Group_6426" data-name="Group 6426">
              <path id="Path_4039" data-name="Path 4039" d="M1939.44,1107.086c-.111-.372-.209-.753-.291-1.134a.287.287,0,0,1,.22-.341c.39-.084.335.352.621,1.311a.287.287,0,0,1-.551.164Z" transform="translate(-1938.825 -1087.71)" fill="#8fcce9"/>
              <path id="Path_4040" data-name="Path 4040" d="M1930.442,629.648a15.348,15.348,0,0,1,.282-2.349.287.287,0,0,1,.563.113c-.411,2.057-.09,2.557-.571,2.536A.287.287,0,0,1,1930.442,629.648Zm1.64-5.605a.287.287,0,0,1-.133-.384,15.141,15.141,0,0,1,1.2-2.041.287.287,0,0,1,.471.329,14.606,14.606,0,0,0-1.154,1.963A.292.292,0,0,1,1932.082,624.043Zm3.712-4.789a.287.287,0,0,1-.066-.479,15.26,15.26,0,0,1,1.912-1.394.287.287,0,0,1,.3.489,14.731,14.731,0,0,0-1.84,1.341A.287.287,0,0,1,1935.794,619.254Zm5.307-2.92a.287.287,0,0,1,.036-.536,15.069,15.069,0,0,1,2.31-.513.287.287,0,1,1,.08.569,14.47,14.47,0,0,0-2.222.493A.286.286,0,0,1,1941.1,616.334Zm5.867-.845a.288.288,0,0,1,.318-.253,15.213,15.213,0,0,1,2.324.448.287.287,0,0,1-.153.554,14.607,14.607,0,0,0-2.236-.431A.288.288,0,0,1,1946.969,615.489Z" transform="translate(-1930.442 -615.234)" fill="#fff"/>
              <path id="Path_4041" data-name="Path 4041" d="M2542.257,668.519c-.868-.6-1.251-.66-1.055-1a.284.284,0,0,1,.392-.1c.335.194.667.4.989.626a.287.287,0,0,1-.326.473Z" transform="translate(-2518.871 -665.477)" fill="#fff"/>
            </g>
            <g id="Group_6427" data-name="Group 6427" transform="translate(5.866 11.733)">
              <path id="Path_4042" data-name="Path 4042" d="M2736.56,938.288c-.134-1.049-.343-1.372.037-1.451a.287.287,0,0,1,.34.223c.079.379.144.768.193,1.155a.287.287,0,1,1-.57.073Z" transform="translate(-2712.843 -936.831)" fill="#fff"/>
              <path id="Path_4043" data-name="Path 4043" d="M2208.972,1081.909c.15-.453.489.014,2.537.355a.287.287,0,0,1-.094.567,15.13,15.13,0,0,1-2.26-.559A.287.287,0,0,1,2208.972,1081.909Zm5.9.817a.287.287,0,0,1,.263-.31c2.086-.171,2.444-.609,2.557-.143a.287.287,0,0,1-.212.347,15.073,15.073,0,0,1-2.3.369A.288.288,0,0,1,2214.877,1082.726Zm5.749-1.565c-.224-.422.343-.342,2.01-1.587a.288.288,0,0,1,.344.461,15.246,15.246,0,0,1-1.966,1.245A.288.288,0,0,1,2220.626,1081.161Zm4.673-3.7c-.373-.3.183-.449,1.229-2.247a.287.287,0,0,1,.5.289,15.13,15.13,0,0,1-1.322,1.916A.287.287,0,0,1,2225.3,1077.461Zm2.647-5.592c.568-2.013.284-2.5.76-2.446a.287.287,0,0,1,.25.32,15.168,15.168,0,0,1-.458,2.282.287.287,0,1,1-.553-.156Z" transform="translate(-2204.662 -1064.582)" fill="#fff"/>
              <path id="Path_4044" data-name="Path 4044" d="M2092.3,1345.385c-.327-.211-.649-.436-.959-.671a.288.288,0,0,1-.055-.4c.241-.318.482.048,1.325.591a.287.287,0,1,1-.311.483Z" transform="translate(-2091.231 -1329.331)" fill="#fff"/>
            </g>
            <path id="Path_4045" data-name="Path 4045" d="M2154.913,845.074a.431.431,0,1,1,.417-.755,6.257,6.257,0,1,0-2.542-8.035c-1.314,2.853.172,4.337-.737,4.547a.431.431,0,0,1-.518-.322,7.119,7.119,0,1,1,4.751,5.171h0A7.2,7.2,0,0,1,2154.913,845.074Z" transform="translate(-2143.29 -823.887)" fill="#fff"/>
          </g>
        </g>
        <g id="Group_6424" data-name="Group 6424" transform="translate(0 0.666)">
          <g id="Group_6420" data-name="Group 6420">
            <path id="Path_4028" data-name="Path 4028" d="M498.421,1358.3a.291.291,0,0,1-.17-.261c0-.38.005-.765.02-1.147a.281.281,0,0,1,.3-.268c.386.019.255.4.258,1.423a.28.28,0,0,1-.287.28A.3.3,0,0,1,498.421,1358.3Z" transform="translate(-498.25 -1330.237)" fill="#b2e6ff"/>
            <path id="Path_4029" data-name="Path 4029" d="M508.732,656.571c.122-.719.274-1.442.453-2.148a.283.283,0,0,1,.349-.2c.421.113.126.334-.234,2.452a.282.282,0,0,1-.332.228A.29.29,0,0,1,508.732,656.571Zm1.546-5.539c.269-.681.57-1.364.885-2.006a.29.29,0,0,1,.52.254c-.313.641-.6,1.3-.867,1.966a.29.29,0,0,1-.538-.214Zm2.653-5.1c.4-.607.834-1.206,1.284-1.779a.289.289,0,0,1,.459.352c-.441.562-.864,1.149-1.258,1.743A.29.29,0,0,1,512.932,645.934ZM516.6,641.9a.281.281,0,0,1,0-.4c.521-.511,1.07-1.008,1.632-1.477.289-.241.666.2.378.436-.55.46-1.089.946-1.6,1.447A.291.291,0,0,1,516.6,641.9Zm4.44-3.6a.279.279,0,0,1,.081-.393c.618-.394,1.26-.769,1.908-1.113a.287.287,0,0,1,.281.5c-.635.338-1.264.7-1.87,1.091A.293.293,0,0,1,521.04,638.3Zm5.253-2.468a.291.291,0,0,1-.149-.156.278.278,0,0,1,.16-.367c.689-.261,1.4-.5,2.1-.706a.294.294,0,0,1,.362.192.279.279,0,0,1-.189.353c-.693.2-1.386.435-2.062.691A.293.293,0,0,1,526.293,635.829Zm5.57-1.485a.291.291,0,0,1-.166-.212.279.279,0,0,1,.233-.326c.73-.117,1.474-.207,2.212-.267a.293.293,0,0,1,.316.26.28.28,0,0,1-.258.307c-.723.059-1.452.147-2.167.262A.294.294,0,0,1,531.863,634.344Zm5.61-.6a.281.281,0,0,1,.3-.271c.741.033,1.491.1,2.229.186a.284.284,0,1,1-.061.564c-.723-.088-1.458-.149-2.184-.182A.292.292,0,0,1,537.473,633.742ZM555.49,641.2c-1.632-1.44-2.021-1.446-1.759-1.786a.29.29,0,0,1,.4-.051c.594.448,1.178.924,1.736,1.416A.284.284,0,1,1,555.49,641.2Zm-12.263-6.671a.284.284,0,0,1,.347-.2c.721.181,1.445.393,2.151.629a.283.283,0,1,1-.177.538c-.693-.231-1.4-.439-2.108-.616A.289.289,0,0,1,543.228,634.528Zm7.582,3.318c-1.886-1.082-2.273-1.012-2.087-1.4a.294.294,0,0,1,.383-.131c.674.321,1.343.672,1.987,1.041a.283.283,0,1,1-.284.49Z" transform="translate(-508.345 -633.471)" fill="#b2e6ff"/>
            <path id="Path_4030" data-name="Path 4030" d="M1858.593,903.176c-.611-.753-1.005-1.022-.711-1.272a.291.291,0,0,1,.407.032c.664.754,1,1.059.71,1.288A.329.329,0,0,1,1858.593,903.176Z" transform="translate(-1808.183 -892.045)" fill="#b2e6ff"/>
          </g>
          <g id="Group_6421" data-name="Group 6421" transform="translate(5.548 30.642)">
            <path id="Path_4031" data-name="Path 4031" d="M2046.647,1475.045a.288.288,0,0,1-.168-.3c.047-.37.085-.746.116-1.116a.281.281,0,0,1,.311-.255.292.292,0,0,1,.263.311c-.031.378-.071.761-.118,1.139a.282.282,0,0,1-.322.242A.286.286,0,0,1,2046.647,1475.045Z" transform="translate(-1995.541 -1473.375)" fill="#b2e6ff"/>
            <path id="Path_4032" data-name="Path 4032" d="M748.948,1624.352c-.72-.355-1.433-.745-2.12-1.158a.284.284,0,0,1-.1-.391c.229-.376.366,0,2.472,1.042a.285.285,0,0,1,.134.382A.294.294,0,0,1,748.948,1624.352Zm3.439,1.141c.139-.417.368-.075,2.632.493a.289.289,0,0,1,.214.346.284.284,0,0,1-.347.2c-.775-.194-1.554-.424-2.315-.682A.288.288,0,0,1,752.387,1625.494Zm-8.776-4.541c-.624-.5-1.236-1.034-1.817-1.585a.281.281,0,0,1-.011-.4c.309-.317.358.081,2.188,1.549a.283.283,0,0,1,.046.4A.29.29,0,0,1,743.612,1620.953Zm15.038,6.255a.29.29,0,0,1-.169-.289.282.282,0,0,1,.315-.25c.78.088,1.572.142,2.353.164a.292.292,0,0,1,.285.292.281.281,0,0,1-.291.276c-.8-.022-1.606-.079-2.4-.168A.3.3,0,0,1,758.649,1627.208Zm6.236.012a.291.291,0,0,1-.168-.226.279.279,0,0,1,.25-.313c.776-.084,1.557-.2,2.323-.349a.294.294,0,0,1,.342.224.279.279,0,0,1-.222.333c-.782.151-1.58.271-2.371.356A.294.294,0,0,1,764.885,1627.22Zm6.064-1.336a.292.292,0,0,1-.153-.165.278.278,0,0,1,.173-.361c.736-.249,1.47-.532,2.182-.842a.3.3,0,0,1,.383.146.279.279,0,0,1-.142.374c-.726.316-1.475.6-2.226.859A.292.292,0,0,1,770.95,1625.884Zm5.6-2.612a.293.293,0,0,1-.125-.109.279.279,0,0,1,.089-.391c.661-.4,1.312-.837,1.935-1.293a.292.292,0,0,1,.4.061.279.279,0,0,1-.055.4c-.636.465-1.3.909-1.975,1.319A.291.291,0,0,1,776.552,1623.272Zm4.784-3.823c-.317-.317.085-.348,1.592-2.087a.289.289,0,0,1,.441.374c-.514.593-1.061,1.172-1.626,1.719A.291.291,0,0,1,781.336,1619.449Zm3.942-4.7c-.379-.241,0-.356,1.08-2.388a.29.29,0,0,1,.512.27c-.368.693-.77,1.379-1.195,2.036A.288.288,0,0,1,785.277,1614.747Zm2.758-5.465a.287.287,0,0,1-.153-.357c.264-.725.5-1.468.7-2.206a.284.284,0,0,1,.353-.2.289.289,0,0,1,.2.351c-.2.754-.444,1.511-.713,2.251a.285.285,0,0,1-.369.166Z" transform="translate(-738.37 -1601.655)" fill="#b2e6ff"/>
            <path id="Path_4033" data-name="Path 4033" d="M651.072,1843.189c-.629-.784-.952-1.1-.649-1.318s.455.168,1.1.971a.279.279,0,0,1-.045.4A.293.293,0,0,1,651.072,1843.189Z" transform="translate(-650.309 -1828.367)" fill="#b2e6ff"/>
          </g>
          <g id="Group_6423" data-name="Group 6423" transform="translate(7.54 7.124)">
            <path id="Path_4034" data-name="Path 4034" d="M707.341,860.134l4.13-.217a18.367,18.367,0,0,0,4.171,4.1c-.12,3.959-.409,4.228,0,4.4l4.607,1.906a.34.34,0,0,0,.384-.085l2.712-3.032a18.293,18.293,0,0,0,5.842.041l2.775,3.074a.347.347,0,0,0,.386.09l4.568-1.839a.327.327,0,0,0,.206-.328l-.292-4.073a17.455,17.455,0,0,0,4.091-4.039l4.132.277a.334.334,0,0,0,.333-.2l1.854-4.506a.335.335,0,0,0-.093-.38l-3.125-2.725a17.511,17.511,0,0,0-.06-5.756c2.944-2.682,3.329-2.657,3.157-3.06-1.987-4.414-1.831-4.766-2.283-4.742l-4.13.217a18.369,18.369,0,0,0-4.171-4.1c.12-3.956.409-4.228,0-4.4-4.609-1.815-4.7-2.147-4.991-1.821l-2.712,3.032a18.3,18.3,0,0,0-5.843-.041c-2.74-2.912-2.749-3.33-3.161-3.164-4.489,1.9-4.806,1.727-4.774,2.167l.292,4.073a17.443,17.443,0,0,0-4.091,4.039c-3.95-.184-4.3-.485-4.465-.073-1.754,4.491-2.1,4.591-1.762,4.886l3.125,2.725a17.525,17.525,0,0,0,.06,5.756c-2.934,2.673-3.33,2.655-3.156,3.06C707.045,859.8,706.889,860.157,707.341,860.134Z" transform="translate(-704.913 -828.728)" fill="#91dbff"/>
            <g id="Group_6422" data-name="Group 6422" transform="translate(16.334 16.086)">
              <path id="Path_4035" data-name="Path 4035" d="M1152.678,1273.688a4.741,4.741,0,0,1,5.451-3.989,4.886,4.886,0,0,1,4.144,5.441,4.741,4.741,0,0,1-5.451,3.989h0A4.885,4.885,0,0,1,1152.678,1273.688Zm4.2,5.02h0Zm1.132-8.166a3.888,3.888,0,0,0-4.477,3.276,4.012,4.012,0,0,0,3.4,4.469,3.893,3.893,0,0,0,4.477-3.276A4.012,4.012,0,0,0,1158.012,1270.542Z" transform="translate(-1152.633 -1269.643)" fill="#fff"/>
            </g>
            <path id="Path_4036" data-name="Path 4036" d="M954.888,1087.817h0a12.829,12.829,0,0,1-1.867-1.057.421.421,0,0,1-.116-.594.434.434,0,0,1,.6-.1,11.993,11.993,0,0,0,2.172,1.174h0a11.467,11.467,0,0,0,14.841-5.623q.1-.21.186-.426a11.6,11.6,0,0,0-21.428-8.864c-1.42,3.452-.566,5.9-.729,6.25a.436.436,0,0,1-.822-.122,11.977,11.977,0,0,1,.948-6.918c4.427-9.607,18.516-9.214,22.739.625a11.988,11.988,0,0,1,.095,9.361q-.1.233-.2.462a11.945,11.945,0,0,1-6.45,6.109,12.505,12.505,0,0,1-9.5-.069C955.2,1087.957,955.042,1087.888,954.888,1087.817Z" transform="translate(-938.721 -1055.946)" fill="#fff"/>
          </g>
        </g>
      </g>
      <g id="Group_6432" data-name="Group 6432" transform="translate(506.696 473.077)">
        <path id="Path_4046" data-name="Path 4046" d="M2054.3,1442.109c-.011-.135-.149-.251-.381-.345.253-.14.393-.289.381-.436-.036-.444-1.441-.693-3.14-.556s-3.046.608-3.01,1.051c.011.135.148.251.381.344-.253.14-.393.289-.381.436s.148.251.381.345c-.253.14-.393.289-.381.436s.148.251.381.345c-.253.139-.393.289-.381.435.016.2.3.354.759.458a3.975,3.975,0,0,0,.012.48c.066.818.987,1.459,2.2,1.459s2.27-.874,2.282-1.695a4.123,4.123,0,0,0-.024-.535c.582-.194.937-.432.918-.662-.011-.134-.149-.251-.381-.344.253-.14.393-.289.381-.436s-.149-.251-.381-.345C2054.176,1442.4,2054.316,1442.255,2054.3,1442.109Z" transform="translate(-2043.11 -1421.359)" fill="url(#linear-gradient-2)"/>
        <g id="Group_6431" data-name="Group 6431" transform="translate(5.498 20.446)">
          <path id="Path_4047" data-name="Path 4047" d="M2072.688,1540.384a7.3,7.3,0,0,1-1.347-.11.041.041,0,0,1,.015-.08,8.787,8.787,0,0,0,2.244.071,9.657,9.657,0,0,0,1.883-.324.041.041,0,1,1,.022.078,9.692,9.692,0,0,1-1.9.327C2073.291,1540.371,2072.982,1540.384,2072.688,1540.384Z" transform="translate(-2070.917 -1537.389)" fill="url(#linear-gradient-3)"/>
          <path id="Path_4048" data-name="Path 4048" d="M2064.91,1513.344a6.407,6.407,0,0,1-1.654-.179.041.041,0,1,1,.022-.078,9.438,9.438,0,0,0,5-.4.041.041,0,1,1,.034.074,8.054,8.054,0,0,1-2.493.544C2065.509,1513.332,2065.2,1513.344,2064.91,1513.344Z" transform="translate(-2063.13 -1511.13)" fill="url(#linear-gradient-4)"/>
          <path id="Path_4049" data-name="Path 4049" d="M2062.359,1491.954a5.947,5.947,0,0,1-1.743-.21.039.039,0,0,1-.025-.051.04.04,0,0,1,.051-.026,7.451,7.451,0,0,0,2.629.168,7.98,7.98,0,0,0,2.466-.536.041.041,0,0,1,.054.02.041.041,0,0,1-.02.054,8.06,8.06,0,0,1-2.493.544C2062.962,1491.942,2062.654,1491.954,2062.359,1491.954Z" transform="translate(-2060.589 -1490.52)" fill="url(#linear-gradient-5)"/>
          <path id="Path_4050" data-name="Path 4050" d="M2069.665,1470.718a7.047,7.047,0,0,1-1.469-.134.041.041,0,0,1,.018-.08,8.5,8.5,0,0,0,2.358.094,8.028,8.028,0,0,0,2.452-.531.041.041,0,0,1,.034.074,8.1,8.1,0,0,1-2.479.538C2070.266,1470.7,2069.958,1470.718,2069.665,1470.718Z" transform="translate(-2067.888 -1470.064)" fill="url(#linear-gradient-6)"/>
        </g>
        <path id="Path_4051" data-name="Path 4051" d="M1913.8,926.443a5.739,5.739,0,0,0-1.028-2.008,13.292,13.292,0,0,1-2.863-7.4c-.3-5.144,4.267-7.719,8.43-7.37s8.271,3.449,7.821,8.235a11.048,11.048,0,0,1-3.152,6.461,6.819,6.819,0,0,0-1.636,2.9,3.7,3.7,0,0,1-3.327,3.087C1915.345,930.475,1914.225,927.963,1913.8,926.443Z" transform="translate(-1909.891 -909.632)" fill="url(#linear-gradient-7)"/>
        <path id="Path_4052" data-name="Path 4052" d="M2152.047,1191.146l1.456-9.474c.03-.2.126-.327.216-.294s.136.22.106.416l0,.017-1.659,9.386c-.013.071-.049.115-.081.1S2152.037,1191.214,2152.047,1191.146Z" transform="translate(-2143.21 -1171.458)" fill="#fff"/>
        <path id="Path_4053" data-name="Path 4053" d="M2063.494,1193.208l-1.456-9.474c-.031-.2-.127-.327-.216-.293s-.136.219-.105.415c0,.005,0,.012,0,.017l1.659,9.386c.013.071.048.115.08.1S2063.5,1193.277,2063.494,1193.208Z" transform="translate(-2056.168 -1173.447)" fill="#fff"/>
        <path id="Path_4054" data-name="Path 4054" d="M2078.892,1137a.153.153,0,0,0-.191-.049l-.811.379-.281-.8a.172.172,0,0,0-.1-.1.2.2,0,0,0-.249.077l0,0-.667,1.216-.619-1.731v0a.2.2,0,0,0-.094-.105.243.243,0,0,0-.306.06l-.933,1.284a.113.113,0,0,0,.033.162.156.156,0,0,0,.2-.022l.822-.916.739,1.647v0a.133.133,0,0,0,.066.063.154.154,0,0,0,.193-.05l.713-1.145.268.579,0,.005a.065.065,0,0,0,.006.012.153.153,0,0,0,.191.05l.963-.45A.114.114,0,0,0,2078.892,1137Z" transform="translate(-2068.609 -1127.603)" fill="#fff"/>
        <path id="Path_4055" data-name="Path 4055" d="M2265.3,1242.474a.185.185,0,0,1-.148-.3,10.825,10.825,0,0,0,.676-1.026.185.185,0,1,1,.32.185,11.1,11.1,0,0,1-.7,1.062A.185.185,0,0,1,2265.3,1242.474Z" transform="translate(-2252.154 -1228.969)" fill="#fff"/>
        <path id="Path_4056" data-name="Path 4056" d="M2298.142,1036.722a.188.188,0,0,1-.073-.015.185.185,0,0,1-.1-.244,8.628,8.628,0,0,0,.2-6.55.185.185,0,0,1,.336-.154,8.861,8.861,0,0,1-.2,6.851A.185.185,0,0,1,2298.142,1036.722Z" transform="translate(-2283.799 -1025.273)" fill="#fff"/>
      </g>
      <g id="Group_6459" data-name="Group 6459" transform="translate(453.708 490.257)">
        <g id="Group_6438" data-name="Group 6438" transform="translate(22.908 0)">
          <path id="Path_4057" data-name="Path 4057" d="M1449.24,3070.794s-.24,1.288-.364,2.565a.881.881,0,0,0,.833.961c1.7.087,5.339.26,6.646.214a.286.286,0,0,0,.256-.389h0a.641.641,0,0,0-.325-.349l-5.985-2.82Z" transform="translate(-1435.612 -3009.129)" fill="#004465"/>
          <path id="Path_4058" data-name="Path 4058" d="M1454.049,3044.047l.168,1.545a1.914,1.914,0,0,0,1.773-.045l-.419-1.725Z" transform="translate(-1440.6 -2983.142)" fill="url(#linear-gradient-8)"/>
          <path id="Path_4059" data-name="Path 4059" d="M1338.773,2253.353c-.083.4-.616,20.113,1.407,28.969a.3.3,0,0,1-.179.347,5.221,5.221,0,0,1-1.719.333.516.516,0,0,1-.509-.376,101.357,101.357,0,0,1-3.654-22.167c-.316-10.967,0-.373,0-.373l.311-6.774Z" transform="translate(-1324.91 -2221.469)" fill="#37474f"/>
          <path id="Path_4060" data-name="Path 4060" d="M1249.468,3087.442a9.308,9.308,0,0,0-.737,2.376.537.537,0,0,0,.466.647c.561.061,1.426.139,2.118.142a.536.536,0,0,0,.536-.593,4.514,4.514,0,0,0-1.031-2.486Z" transform="translate(-1242.761 -3025.169)" fill="#004465"/>
          <path id="Path_4061" data-name="Path 4061" d="M1261.032,3030.911l.406,2.339a1.51,1.51,0,0,0,1.259.1l-.18-2.513Z" transform="translate(-1254.625 -2970.627)" fill="url(#linear-gradient-9)"/>
          <path id="Path_4062" data-name="Path 4062" d="M1216.614,2242.2c-1.823,10.385.129,25.712.807,28.715a.466.466,0,0,0,.374.358,3.122,3.122,0,0,0,1.348-.041.428.428,0,0,0,.312-.391c.118-2.421.089-17.292,1.751-23.154a1.335,1.335,0,0,1,.522-.731l3.138-2.186.273-3.58Z" transform="translate(-1211.097 -2209.789)" fill="#37474f"/>
          <g id="Group_6433" data-name="Group 6433" transform="translate(4.948 4.943)">
            <path id="Path_4063" data-name="Path 4063" d="M1232.773,1710.54a48.555,48.555,0,0,0-10.877,1.253c-1.626,8.969-.454,19.343-.454,19.343,3.989,1.087,8.516-.56,8.516-.56.7-3.748,3.9-14.286,3.9-14.286a17.014,17.014,0,0,0,6.334-1.943,11.073,11.073,0,0,1-2.145-4.6A17.321,17.321,0,0,1,1232.773,1710.54Z" transform="translate(-1221.033 -1702.679)" fill="#0fa4ff"/>
            <path id="Path_4064" data-name="Path 4064" d="M1697.459,1516.431a.989.989,0,0,0-1.147-.334c-.791,3.2-4.8,5.769-8.908,7a11.074,11.074,0,0,0,2.146,4.6C1696.382,1523.943,1697.459,1516.431,1697.459,1516.431Z" transform="translate(-1670.39 -1516.032)" fill="url(#linear-gradient-10)"/>
          </g>
          <g id="Group_6434" data-name="Group 6434" transform="translate(30.882)">
            <path id="Path_4065" data-name="Path 4065" d="M1932.9,1386.046c.052.169-.566.421-.921-.273a6.506,6.506,0,0,1,0-2.018,26.4,26.4,0,0,1,3.125-3.2.485.485,0,0,1,.054.675l-1,1.022a4.784,4.784,0,0,1,.567,1.149,1.386,1.386,0,0,1-.148,1.02c-.177.311-.418.716-.645,1.032A1.371,1.371,0,0,1,1932.9,1386.046Z" transform="translate(-1931.886 -1380.549)" fill="url(#linear-gradient-11)"/>
            <path id="Path_4066" data-name="Path 4066" d="M1950.395,1445.312l-.91.756-.29.759.8.9a10.364,10.364,0,0,1,.489-1.834C1950.683,1445.568,1950.581,1445.409,1950.395,1445.312Z" transform="translate(-1948.563 -1442.95)" fill="url(#linear-gradient-12)"/>
          </g>
          <path id="Path_4067" data-name="Path 4067" d="M1096.357,1770.865l-1.933-5.02s-4.856,3.232-5.689,7.38a11.417,11.417,0,0,1,4.183,1.164C1093.293,1772.431,1096.357,1770.865,1096.357,1770.865Z" transform="translate(-1088.613 -1751.788)" fill="#0fa4ff"/>
          <path id="Path_4068" data-name="Path 4068" d="M1097.33,1970.534s-5.446,3.01-7.249.378a2.056,2.056,0,0,1-.362-1.6,11.422,11.422,0,0,0-4.183-1.164,5.738,5.738,0,0,0,.586,3.938c3.146,5.887,11.912-.21,11.912-.21Z" transform="translate(-1085.415 -1946.711)" fill="url(#linear-gradient-13)"/>
          <path id="Path_4069" data-name="Path 4069" d="M1355.633,1615.206l-1.689,4.737a.171.171,0,0,0,.076.207,3.864,3.864,0,0,0,4.01-.231.806.806,0,0,0,.377-.572l.572-4.109Z" transform="translate(-1344.137 -1606.645)" fill="url(#linear-gradient-14)"/>
          <g id="Group_6435" data-name="Group 6435" transform="translate(8.393 1.723)">
            <path id="Path_4070" data-name="Path 4070" d="M1388.1,1495.505s1.772,3.414,1.528,4.784-2.48,1.25-4.423.117l-1.33-3.681Z" transform="translate(-1381.379 -1493.034)" fill="url(#linear-gradient-15)"/>
            <path id="Path_4071" data-name="Path 4071" d="M1319.393,1433.336a.141.141,0,0,0,.063-.2,3.652,3.652,0,0,1-.492-1.071s-.323-.211.831-.475,2.872-.675,3.242-1.651c.361-.951-.54-3.36-2.031-1.462a.14.14,0,0,1-.222,0,1.444,1.444,0,0,0-1.753-.588,1.325,1.325,0,0,0-.919,1.271.139.139,0,0,1-.166.141,1.615,1.615,0,0,0-1.894.861,1.3,1.3,0,0,0,.078,1.56.14.14,0,0,1-.062.231.84.84,0,0,0-.6.953c.041.888,1.034.82,1.317.782a.14.14,0,0,1,.124.045,4.771,4.771,0,0,0,2.5,1.568.141.141,0,0,0,.15-.185l-.5-1.491a.141.141,0,0,1,.078-.174Z" transform="translate(-1315.464 -1427.764)" fill="#37474f"/>
            <path id="Path_4072" data-name="Path 4072" d="M1392.209,1574.544s-1.276-.894-1.378-.152,1.147,1.087,1.769.815Z" transform="translate(-1388.076 -1568.759)" fill="url(#linear-gradient-16)"/>
          </g>
          <g id="Group_6437" data-name="Group 6437" transform="translate(10.79 17.359)">
            <g id="Group_6436" data-name="Group 6436">
              <path id="Path_4073" data-name="Path 4073" d="M1381.172,1867.574l2.967-10.36a.3.3,0,0,1,.255-.217c.538-.063,2.095-.239,3.893-.391a44.175,44.175,0,0,1,6.185-.205.3.3,0,0,1,.248.436c-.855,1.729-4.371,8.764-6.132,11.068a.3.3,0,0,1-.244.12l-6.883-.064A.3.3,0,0,1,1381.172,1867.574Z" transform="translate(-1381.16 -1856.353)" fill="#004bbc"/>
              <path id="Path_4074" data-name="Path 4074" d="M1393.574,2002.022a7.546,7.546,0,0,1-.246-2.3c.167-.6.49-1.378,1.566-1.206a15.767,15.767,0,0,1,2.346.626.616.616,0,0,1-.882.532l.507.393s-.073.629-.764.293l.472.521a.55.55,0,0,1-.805.185C1395.26,2000.732,1395.016,2002.227,1393.574,2002.022Z" transform="translate(-1392.846 -1993.305)" fill="#febbba"/>
            </g>
            <path id="Path_4075" data-name="Path 4075" d="M1571.1,1925.043a.871.871,0,1,0,.871-.871A.871.871,0,0,0,1571.1,1925.043Z" transform="translate(-1564.167 -1921.698)" fill="#91b3fa"/>
            <path id="Path_4076" data-name="Path 4076" d="M1466.138,1877.866l-.222-.065.6-2.049a.932.932,0,0,1,.7-.654,59.5,59.5,0,0,1,7.17-.485l0,.232a60.694,60.694,0,0,0-7.127.479.7.7,0,0,0-.528.493Z" transform="translate(-1462.824 -1873.947)" fill="#91b3fa"/>
          </g>
        </g>
        <g id="Group_6439" data-name="Group 6439" transform="translate(0 47.942)">
          <path id="Path_4077" data-name="Path 4077" d="M462.9,2758.484c-.316.468-1.573,11.062-1.77,14.976a.463.463,0,0,0,.463.485h0a.465.465,0,0,0,.458-.392l2.3-14.732Z" transform="translate(-460.995 -2756.155)" fill="#6dc5ff"/>
          <path id="Path_4078" data-name="Path 4078" d="M748.324,2758.484c.316.468,1.573,11.062,1.77,14.976a.463.463,0,0,1-.463.485h0a.464.464,0,0,1-.458-.392l-2.3-14.732Z" transform="translate(-736.316 -2756.155)" fill="#6dc5ff"/>
          <path id="Path_4079" data-name="Path 4079" d="M457.51,2696.13v.115a1.576,1.576,0,0,0,1.605,1.528l10.626.18a1.588,1.588,0,0,0,1.663-1.441l.006-.106a1.569,1.569,0,0,0-1.6-1.589l-10.63-.19A1.582,1.582,0,0,0,457.51,2696.13Z" transform="translate(-457.508 -2694.627)" fill="#6dc5ff"/>
        </g>
        <g id="Group_6443" data-name="Group 6443" transform="translate(3.156 16.451)">
          <g id="Group_6440" data-name="Group 6440" transform="translate(16.112 46.482)">
            <path id="Path_4080" data-name="Path 4080" d="M989.251,3150.239a9.513,9.513,0,0,1-3.1-.31.716.716,0,0,0,.7.554h6.682a.325.325,0,0,0,.313-.41C993.085,3150.135,991.467,3150.239,989.251,3150.239Z" transform="translate(-986.134 -3148.309)" fill="#91b3fa"/>
            <path id="Path_4081" data-name="Path 4081" d="M993.343,3107.283a.321.321,0,0,0-.055-.114,3.854,3.854,0,0,0-2.923-1.651,23.548,23.548,0,0,1-4.332.013l-.374,1.238a.713.713,0,0,0-.011.37,9.535,9.535,0,0,0,3.1.309C990.963,3107.448,992.581,3107.344,993.343,3107.283Z" transform="translate(-985.63 -3105.518)" fill="#37474f"/>
          </g>
          <path id="Path_4082" data-name="Path 4082" d="M997.162,3069.292l-.458,1.56a2.7,2.7,0,0,0,1.909.092l.176-1.352Z" transform="translate(-980.187 -3024.132)" fill="url(#linear-gradient-17)"/>
          <g id="Group_6441" data-name="Group 6441" transform="translate(27.514 44.227)">
            <path id="Path_4083" data-name="Path 4083" d="M1320.01,3052.1a9.572,9.572,0,0,1-2.608,1.7.717.717,0,0,0,.89-.007l5.21-4.186a.324.324,0,0,0-.012-.515C1322.933,3049.62,1321.737,3050.714,1320.01,3052.1Z" transform="translate(-1316.699 -3048.899)" fill="#91b3fa"/>
            <path id="Path_4084" data-name="Path 4084" d="M1304.947,3043.923a.312.312,0,0,0-.113-.054,3.852,3.852,0,0,0-3.307.55,23.637,23.637,0,0,1-3.369,2.722l.481,1.2a.713.713,0,0,0,.221.294,9.589,9.589,0,0,0,2.609-1.7C1303.2,3045.541,1304.391,3044.448,1304.947,3043.923Z" transform="translate(-1298.157 -3043.727)" fill="#37474f"/>
          </g>
          <path id="Path_4085" data-name="Path 4085" d="M682.907,2582.274s11.309.923,13.629,2.015-1.893,16.4-1.893,16.4a3.033,3.033,0,0,1-2.037-.133s1.441-11.3.369-13.745l-12.245-2Z" transform="translate(-675.742 -2554.882)" fill="#37474f"/>
          <path id="Path_4086" data-name="Path 4086" d="M1267.358,3060.76c.1.1,1.124,2.15,1.124,2.15s1.134-.245,1.365-.963l-1.02-1.854Z" transform="translate(-1240.968 -3015.269)" fill="url(#linear-gradient-17)"/>
          <path id="Path_4087" data-name="Path 4087" d="M544.363,2579.684a5.723,5.723,0,0,0-.353,2.065,3.1,3.1,0,0,0,2.959,3.033l13.369.61a.642.642,0,0,1,.592.482c.314,1.216,1.85,4.947,9.356,12.393a.6.6,0,0,0,.749.082l1.068-.675a.246.246,0,0,0,.081-.332l-7.784-13.293a3.014,3.014,0,0,0-1.831-1.357l-11.394-2.912Z" transform="translate(-544.009 -2552.386)" fill="#37474f"/>
          <path id="Path_4088" data-name="Path 4088" d="M838.45,2010.541a16.821,16.821,0,0,1-2.892,3.759l3.018,1.684s.68-2.68,2.234-3.466Z" transform="translate(-824.921 -2004.007)" fill="url(#linear-gradient-19)"/>
          <path id="Path_4089" data-name="Path 4089" d="M547.055,2119.465a16.537,16.537,0,0,0,7.054,0s4.82-6.48,6.685-8.243a13.262,13.262,0,0,0,9.6,5.359l.369-.825s-5.271-2.43-6.894-6.164-2.275-5.326-3.751-6.3c-.919-.607-1.47-1.021-1.754-1.247a.471.471,0,0,0-.541-.034C556.253,2102.964,548.881,2108.014,547.055,2119.465Z" transform="translate(-546.944 -2092.073)" fill="#0fa4ff"/>
          <path id="Path_4090" data-name="Path 4090" d="M865.062,2258.07a.229.229,0,0,1-.184-.091,14.387,14.387,0,0,1-1.816-3.219.232.232,0,1,1,.432-.166,14.181,14.181,0,0,0,1.751,3.1.231.231,0,0,1-.184.373Z" transform="translate(-851.407 -2239.012)" fill="url(#linear-gradient-20)"/>
          <path id="Path_4091" data-name="Path 4091" d="M1175.762,2448.981l.745-.2,2.263-.524a1.05,1.05,0,0,1,.8.134l1.945,1.224-5.373-.009Z" transform="translate(-1152.714 -2425.73)" fill="url(#linear-gradient-17)"/>
          <g id="Group_6442" data-name="Group 6442" transform="translate(9.805)">
            <path id="Path_4092" data-name="Path 4092" d="M870.142,1906.466a15.874,15.874,0,0,1,1.633,3.592c.241,1.279.629,2.078-.826,2.534a3.194,3.194,0,0,1-3.657-1.314s-1.326-1.837-1.193-2.678S870.142,1906.466,870.142,1906.466Z" transform="translate(-864.145 -1903.73)" fill="url(#linear-gradient-22)"/>
            <path id="Path_4093" data-name="Path 4093" d="M816.308,1838.02l.188-.025s-.985-1.489-.341-1.859,3.273-1.276,3.729-2.311a1.8,1.8,0,0,0-1.012-2.36.1.1,0,0,0-.121.064l-.047.126a.1.1,0,0,1-.189,0h0a.1.1,0,0,0-.185,0c-.141.31-.562.84-1.826,1.249-1.793.581-2.91,1.485-2.773,2.759a.1.1,0,0,1-.146.1c-.147-.065-.369-.075-.627.207-.449.491-.1,1.564,1.128,2.324a.1.1,0,0,1,.017.163c-.183.157-.441.507.388.819a2.085,2.085,0,0,0,1.482.143.1.1,0,0,0,.063-.115l-.218-1.116a.1.1,0,0,1,.087-.121Z" transform="translate(-812.773 -1831.461)" fill="#37474f"/>
            <path id="Path_4094" data-name="Path 4094" d="M873.755,1988.583s-.614-1.514-1.259-.982.6,1.708,1.169,1.693Z" transform="translate(-870.143 -1981.795)" fill="url(#linear-gradient-23)"/>
          </g>
        </g>
        <g id="Group_6446" data-name="Group 6446" transform="translate(23.64 29.876)">
          <g id="Group_6444" data-name="Group 6444" transform="translate(0 10.479)">
            <path id="Path_4095" data-name="Path 4095" d="M1105.974,2487.716H1106l11.478-.011a.513.513,0,1,0,0-1.026l-11.479.011a.513.513,0,0,0-.025,1.026Z" transform="translate(-1105.486 -2486.679)" fill="#004bbc"/>
          </g>
          <g id="Group_6445" data-name="Group 6445" transform="translate(11.549)">
            <path id="Path_4096" data-name="Path 4096" d="M1426.931,2199.729l-.012.023-4.83,10.413a.513.513,0,1,0,.93.431l4.83-10.413a.513.513,0,0,0-.919-.455Z" transform="translate(-1422.042 -2199.455)" fill="#004bbc"/>
          </g>
        </g>
        <g id="Group_6452" data-name="Group 6452" transform="translate(43.639 15.177)">
          <g id="Group_6447" data-name="Group 6447" transform="translate(19.431 33.744)">
            <rect id="Rectangle_441" data-name="Rectangle 441" width="1.211" height="13.102" transform="translate(5.855 2.936)" fill="#6dc5ff"/>
            <path id="Path_4097" data-name="Path 4097" d="M2228.52,3147.143h-10.611a.789.789,0,0,1,.789-.789h9.033a.789.789,0,0,1,.789.789Z" transform="translate(-2216.754 -3130.854)" fill="#6dc5ff"/>
            <rect id="Rectangle_442" data-name="Rectangle 442" width="13.341" height="3.784" rx="1.892" fill="#6dc5ff"/>
          </g>
          <g id="Group_6448" data-name="Group 6448" transform="translate(1.301 25.484)">
            <path id="Path_4098" data-name="Path 4098" d="M2005.216,2562.489a10.538,10.538,0,0,0-3.824,1.632,1.009,1.009,0,0,0-.445.964,42.763,42.763,0,0,0,4.525,14.2,1.531,1.531,0,0,1,.146,1.048l-.571,2.657-1.059.993h2.727l1.816-4.913-.777-.246a1.468,1.468,0,0,1-1.026-1.375l-.091-5.271a6,6,0,0,0-1.44-3.969l4.355-.212Z" transform="translate(-1989.57 -2560.029)" fill="url(#linear-gradient-24)"/>
            <path id="Path_4099" data-name="Path 4099" d="M2054.951,3015.61c-.249.325,2.673.753,4.148.042,0,0,2.046-3.559,2.046-5.392,0,0-.163-.374-1.364-.289,0,0-.687,4.214-1.412,4.687a2.9,2.9,0,0,1-2.03.048A4.256,4.256,0,0,0,2054.951,3015.61Z" transform="translate(-2041.597 -2991.173)" fill="#004465"/>
            <path id="Path_4100" data-name="Path 4100" d="M1741.88,2586.158c-.023-.041-4.689-.561-4.689-.561a10.784,10.784,0,0,1-.324,3.371c-.477,1.953-7.327,10.413-7.327,10.413l.718,2.277a11.551,11.551,0,0,1-6.555.4l4.452-2.672s4.166-14.2,6.718-16.729l4.677-1.618Z" transform="translate(-1722.447 -2577.896)" fill="url(#linear-gradient-25)"/>
            <path id="Path_4101" data-name="Path 4101" d="M2048.562,2495.044s2.688,4,2.908,5.823-.736,2.565-3.556,2.687-10.35.12-10.35.12l-6.427-5.492s4.683-1.672,5.9-2.144S2048.562,2495.044,2048.562,2495.044Z" transform="translate(-2018.667 -2495.044)" fill="#37474f"/>
            <path id="Path_4102" data-name="Path 4102" d="M1696.852,3125.336a1.315,1.315,0,0,1,.251,1.583s-6.126,1.086-7.789.593c0,0,.345-.788,2.218-1.685l-.138.106a.223.223,0,0,0,.148.4A17.217,17.217,0,0,0,1696.852,3125.336Z" transform="translate(-1689.314 -3102.342)" fill="#004465"/>
          </g>
          <g id="Group_6450" data-name="Group 6450" transform="translate(14.586)">
            <path id="Path_4103" data-name="Path 4103" d="M2138.619,1796.666c5.495-.934,8.082,3.547,7.893,4.489a.172.172,0,0,0,.215.2,2.714,2.714,0,0,1,2.889.7,1.7,1.7,0,0,1-.272,2.353.173.173,0,0,0,.145.293c1.16-.146,3.68-.181,4.093,2.18a2.357,2.357,0,0,1-2.057,3,.173.173,0,0,0-.058.316,1.834,1.834,0,0,1,.766,2.055c-.332,1.838-3.937,1.688-4.358,1.664a.172.172,0,0,1-.075-.022l-5.773-3.292a.175.175,0,0,1-.085-.121l-1.165-6.731a.174.174,0,0,1,.045-.15l-3.763-5.312C2135.691,1798.078,2138.554,1796.676,2138.619,1796.666Z" transform="translate(-2133.652 -1796.538)" fill="#37474f"/>
            <path id="Path_4104" data-name="Path 4104" d="M2162.793,2097.771a61.334,61.334,0,0,1-4.671-4.955,4.191,4.191,0,0,1-.709-3.77,52.086,52.086,0,0,1,2.068-5.207c.174-.585,3.684-.56,3.684-.56s6.907,4.482,9.621,12.075l-3.048.948a35.657,35.657,0,0,0-3.585-4.949s3.083,4.073,3.192,5.74Z" transform="translate(-2153.451 -2072.818)" fill="#0fa4ff"/>
            <path id="Path_4105" data-name="Path 4105" d="M2207.052,1965.145c.036.122.952,3.159,1.024,3.222a5.123,5.123,0,0,0,2.921-.456l-2.262-4.425Z" transform="translate(-2201.448 -1957.395)" fill="url(#linear-gradient-26)"/>
            <g id="Group_6449" data-name="Group 6449" transform="translate(0 0.547)">
              <path id="Path_4106" data-name="Path 4106" d="M2104.328,1872.083a6.188,6.188,0,0,0,.782,4.079c1.225,2.34,2.612,2.338,3.37,1.589a4.938,4.938,0,0,0,1.47-4.282C2109.729,1871.207,2104.968,1869.87,2104.328,1872.083Z" transform="translate(-2102.397 -1868.783)" fill="url(#linear-gradient-27)"/>
              <path id="Path_4107" data-name="Path 4107" d="M2059.3,1816.351s-2.032-3.107-3.938-.662l-.034.89s-2.233-.265-1.842-2.312,2.32-3.326,4.8-2.439,3.907,1.8,4.067,3.576-1.256,1.39-1.256,1.39-.462-1.253-1.118-1.384-.487.848-.487.848Z" transform="translate(-2053.438 -1811.542)" fill="#37474f"/>
              <path id="Path_4108" data-name="Path 4108" d="M2216.148,1893.356s-1.054-1.591.026-1.828.913,1.55.8,2.212Z" transform="translate(-2209.768 -1888.589)" fill="url(#linear-gradient-28)"/>
            </g>
            <path id="Path_4109" data-name="Path 4109" d="M2134.689,2416.917l2.3-2.217,3.181,1.344a15.7,15.7,0,0,0,4.979,0l1.813-.49,4.1-1.276.643,1.819a1.094,1.094,0,0,1-.4,1.257,7.189,7.189,0,0,1-1.035.644c-.539.237-13.3-.163-13.3-.163Z" transform="translate(-2131.725 -2391.741)" fill="url(#linear-gradient-29)"/>
          </g>
          <g id="Group_6451" data-name="Group 6451" transform="translate(0 14.108)">
            <path id="Path_4110" data-name="Path 4110" d="M2004.346,2483.339h-.031l-13.342-.015a.6.6,0,1,1,0-1.194l13.342.015a.6.6,0,0,1,.03,1.194Z" transform="translate(-1978.092 -2471.225)" fill="url(#linear-gradient-30)"/>
            <path id="Path_4111" data-name="Path 4111" d="M1654.534,2183.226h11.111a2.118,2.118,0,0,1,1.915,1.215l5.137,10.891h-13.808a1.287,1.287,0,0,1-1.2-.814l-3.983-10.079A.887.887,0,0,1,1654.534,2183.226Z" transform="translate(-1653.646 -2183.226)" fill="#004bbc"/>
            <path id="Path_4112" data-name="Path 4112" d="M1845.7,2306.908c.241.748.063,1.475-.4,1.623s-1.028-.338-1.269-1.086-.063-1.474.4-1.623S1845.459,2306.16,1845.7,2306.908Z" transform="translate(-1836.985 -2301.323)" fill="#fff"/>
          </g>
        </g>
        <g id="Group_6456" data-name="Group 6456" transform="translate(69.74 3.161)">
          <g id="Group_6453" data-name="Group 6453" transform="translate(8.15 29.229)">
            <path id="Path_4113" data-name="Path 4113" d="M2599.687,3107.421a16.335,16.335,0,0,1,.2,1.7.733.733,0,0,1-.66.773,32.41,32.41,0,0,1-6.459.09.333.333,0,0,1-.183-.573,10.311,10.311,0,0,1,6.048-2.57Z" transform="translate(-2592.474 -3076.252)" fill="url(#linear-gradient-31)"/>
            <path id="Path_4114" data-name="Path 4114" d="M2746.517,3055.354l-.69,1.692a.564.564,0,0,1-.579.35,3.062,3.062,0,0,1-.564-.109.741.741,0,0,1-.493-.921l.521-1.743Z" transform="translate(-2738.626 -3025.936)" fill="url(#linear-gradient-32)"/>
            <path id="Path_4115" data-name="Path 4115" d="M3080.6,3159.651a7.251,7.251,0,0,0-1.921,2.641.631.631,0,0,0,.6.838h2.845a.671.671,0,0,0,.663-.785C3082.606,3161.321,3082.083,3159.655,3080.6,3159.651Z" transform="translate(-3060.906 -3127.133)" fill="url(#linear-gradient-33)"/>
            <path id="Path_4116" data-name="Path 4116" d="M3123.281,3112.816s-.279,1.237-.493,2.053a.262.262,0,0,1-.342.178,2.365,2.365,0,0,0-1.035-.188.2.2,0,0,1-.222-.2l-.026-2.052Z" transform="translate(-3101.873 -3081.805)" fill="url(#linear-gradient-34)"/>
            <path id="Path_4117" data-name="Path 4117" d="M2755.631,2271.539l-8.41,25.655a6.341,6.341,0,0,0,2.382,1.012l9.988-20.618s1.748,12.7.9,21.824l2.861.219s4.652-23.308,1.129-31.291Z" transform="translate(-2741.575 -2268.34)" fill="#37474f"/>
            <path id="Path_4118" data-name="Path 4118" d="M3074.03,2443.039h.01a.081.081,0,0,0,.071-.091l-.326-2.59a.082.082,0,0,0-.162.021l.327,2.59A.081.081,0,0,0,3074.03,2443.039Z" transform="translate(-3056.069 -2434.013)" fill="url(#linear-gradient-35)"/>
          </g>
          <path id="Path_4119" data-name="Path 4119" d="M2718.295,1737.226s6.813.6,5.849,5.46a66.174,66.174,0,0,1,5.527,15.437.49.49,0,0,1-.4.583l-11.347,1.943a.61.61,0,0,1-.694-.449l-2.711-10.477-1.056,4.871-3.357-.874,2.825-14.314S2713.328,1737.316,2718.295,1737.226Z" transform="translate(-2697.666 -1727.374)" fill="url(#linear-gradient-36)"/>
          <path id="Path_4120" data-name="Path 4120" d="M2802.282,1947.737l.018,0a.083.083,0,0,0,.064-.1l-.946-4.343a.085.085,0,0,0-.1-.065.086.086,0,0,0-.065.1l.946,4.342A.084.084,0,0,0,2802.282,1947.737Z" transform="translate(-2785.484 -1925.858)" fill="#91b3fa"/>
          <path id="Path_4121" data-name="Path 4121" d="M2786.264,2223.753a1.624,1.624,0,0,1,1.172-.152l.789.2a.287.287,0,0,0,.354-.246l.817-7.271a6.688,6.688,0,0,0,2.981.391l-1.881,8.573h-6.58Z" transform="translate(-2768.783 -2188.951)" fill="url(#linear-gradient-37)"/>
          <path id="Path_4122" data-name="Path 4122" d="M2369.078,1858.228l.2-.661a1.307,1.307,0,0,1,.764-.836l3.6-1.446s.055-.461-.76-.775a1.082,1.082,0,0,1-.624-1.225s1.112.508,2.741,1.312a3.812,3.812,0,0,1,1.731,1.885l8.15,9.936-.956.657a2.556,2.556,0,0,1-3.7-.909l-4.415-8.467A16.462,16.462,0,0,1,2369.078,1858.228Z" transform="translate(-2369.078 -1839.198)" fill="url(#linear-gradient-38)"/>
          <g id="Group_6455" data-name="Group 6455" transform="translate(10.559)">
            <path id="Path_4123" data-name="Path 4123" d="M2816.694,1608.358l2.1,5.865s-1.855,1.451-3.21.96l-1.056-3.362S2815.331,1607.712,2816.694,1608.358Z" transform="translate(-2808.832 -1603.141)" fill="url(#linear-gradient-39)"/>
            <g id="Group_6454" data-name="Group 6454">
              <path id="Path_4124" data-name="Path 4124" d="M2702.581,1521.629c0,.09,2.019,5.714,2.019,5.714l3.187-1.221-1.121-5.614S2702.581,1520.116,2702.581,1521.629Z" transform="translate(-2700.973 -1518.518)" fill="url(#linear-gradient-40)"/>
              <path id="Path_4125" data-name="Path 4125" d="M2663.641,1470.54l.822,2.91a.415.415,0,0,1,.016.114c0,.237-.058,1.054-.89.943a3.791,3.791,0,0,0-1.884.025.422.422,0,0,0-.218.524,18.2,18.2,0,0,0,1.148,2.591.421.421,0,0,0,.542.173,13.593,13.593,0,0,0,2.732-1.607.42.42,0,0,0,.15-.405c-.14-.744-.556-3.008-.574-3.657-.017-.609.667-1.074.967-1.249a.414.414,0,0,0,.2-.262,1.1,1.1,0,0,0-.957-1.475.422.422,0,0,1-.343-.5,1.1,1.1,0,0,0-.825-1.412,1.547,1.547,0,0,0-1.763.7.423.423,0,0,1-.524.14.333.333,0,0,0-.374.067.417.417,0,0,1-.609-.093,1.26,1.26,0,0,0-1.554-.514c-1.44.466-1.371,2.126-.844,3.028s2.06.309,2.786-.289a1.8,1.8,0,0,1,1.762-.026A.418.418,0,0,1,2663.641,1470.54Z" transform="translate(-2658.508 -1467.183)" fill="#37474f"/>
              <path id="Path_4126" data-name="Path 4126" d="M2844.929,1568.864s-.853-1.612-.289-2.118,1.517-.423,1.492.837C2846.1,1569.151,2844.929,1568.864,2844.929,1568.864Z" transform="translate(-2837.664 -1562.834)" fill="url(#linear-gradient-41)"/>
            </g>
          </g>
          <path id="Path_4127" data-name="Path 4127" d="M2923.319,1920.607a7.934,7.934,0,0,0,.833-.04l.06-.006,2.481-11.567a.085.085,0,0,0-.165-.036l-2.455,11.447a6.013,6.013,0,0,1-3.382-.574l2.149-10.05-.448-.845a.085.085,0,0,0-.15.079l.42.791-2.159,10.1.043.032A4.926,4.926,0,0,0,2923.319,1920.607Z" transform="translate(-2900.386 -1892.776)" fill="#91b3fa"/>
        </g>
        <g id="Group_6457" data-name="Group 6457" transform="translate(17.866 42.311)">
          <path id="Path_4128" data-name="Path 4128" d="M947.657,2564.226a.393.393,0,0,1-.171-.039.488.488,0,0,1-.226-.619l9.066-23a.419.419,0,0,1,.568-.246.488.488,0,0,1,.226.619l-9.065,23A.434.434,0,0,1,947.657,2564.226Z" transform="translate(-947.225 -2540.279)" fill="#0a9eff"/>
          <path id="Path_4129" data-name="Path 4129" d="M988.156,2564.224a.433.433,0,0,1-.4-.286l-9.066-23a.489.489,0,0,1,.226-.62.419.419,0,0,1,.568.247l9.066,23a.489.489,0,0,1-.227.62A.4.4,0,0,1,988.156,2564.224Z" transform="translate(-977.511 -2540.277)" fill="#0a9eff"/>
          <path id="Path_4130" data-name="Path 4130" d="M2634.081,2564.226a.4.4,0,0,1-.171-.039.488.488,0,0,1-.226-.619l9.065-23a.419.419,0,0,1,.568-.246.487.487,0,0,1,.226.619l-9.065,23A.434.434,0,0,1,2634.081,2564.226Z" transform="translate(-2572.123 -2540.279)" fill="#0a9eff"/>
          <path id="Path_4131" data-name="Path 4131" d="M2674.578,2564.224a.431.431,0,0,1-.4-.286l-9.066-23a.488.488,0,0,1,.226-.62.419.419,0,0,1,.568.247l9.066,23a.489.489,0,0,1-.226.62A.4.4,0,0,1,2674.578,2564.224Z" transform="translate(-2602.408 -2540.277)" fill="#0a9eff"/>
        </g>
        <g id="Group_6458" data-name="Group 6458" transform="translate(78.109 39.31)">
          <path id="Path_4132" data-name="Path 4132" d="M2609.439,2467.785h13.13v-1.354h-13.13C2609.72,2466.43,2609.72,2467.785,2609.439,2467.785Z" transform="translate(-2609.039 -2466.124)" fill="#91b3fa"/>
          <path id="Path_4133" data-name="Path 4133" d="M2611.872,2459.693a.123.123,0,0,0,.124-.123v-1.109a.124.124,0,0,0-.124-.123h-13.284a.124.124,0,0,1-.124-.123v-.06a.124.124,0,0,1,.124-.123h14.159a.567.567,0,0,1,.567.567v.866a.534.534,0,0,1-.534.534h-14.191a.123.123,0,0,1-.124-.123v-.06a.124.124,0,0,1,.124-.123Z" transform="translate(-2598.464 -2458.032)" fill="url(#linear-gradient-42)"/>
        </g>
        <path id="Path_4134" data-name="Path 4134" d="M899.875,2512.385a.4.4,0,0,0-.164-.426.969.969,0,0,0-.6-.188H820.436a1.065,1.065,0,0,0-.754.274.427.427,0,0,0-.058.568l.853,1.225a1.33,1.33,0,0,0,1.084.459h77.012a.888.888,0,0,0,.888-.486Z" transform="translate(-806.332 -2470.501)" fill="#0a9eff"/>
      </g>
      <g id="Group_56482" data-name="Group 56482" transform="translate(75.267 -1428.083)">
        <g id="Group_56476" data-name="Group 56476" transform="translate(447.586 1914.896)">
          <g id="Group_55766" data-name="Group 55766" transform="translate(0)">
            <g id="Group_55765" data-name="Group 55765">
              <path id="Path_14146" data-name="Path 14146" d="M330.247,75.9c.136-.988-1.258-1.8-2.305-1.884a5.937,5.937,0,0,1-1.491-.129c-1.025-.357-1.435-1.682-2.435-2.1a2.862,2.862,0,0,0-2.334.33,6.089,6.089,0,0,1-2.251.876c-.7.045-1.47-.216-2.086.128-.459.257-.7.786-1.123,1.1a2.68,2.68,0,0,1-1.468.4,4.135,4.135,0,0,0-1.514.247,1.2,1.2,0,0,0-.758,1.215Z" transform="translate(-312.465 -71.642)" fill="#fff"/>
            </g>
          </g>
        </g>
        <g id="Group_56477" data-name="Group 56477" transform="translate(387.026 1908.65)">
          <g id="Group_55769" data-name="Group 55769" transform="translate(0 0)">
            <g id="Group_55768" data-name="Group 55768">
              <path id="Path_14147" data-name="Path 14147" d="M41.707,45.072c.076-.551-.7-1-1.286-1.051a3.313,3.313,0,0,1-.832-.072c-.572-.2-.8-.938-1.359-1.174a1.6,1.6,0,0,0-1.3.184,3.4,3.4,0,0,1-1.256.489c-.393.025-.82-.121-1.164.071-.256.143-.391.438-.627.613a1.494,1.494,0,0,1-.819.222,2.311,2.311,0,0,0-.845.138.668.668,0,0,0-.423.678Z" transform="translate(-31.785 -42.698)" fill="#fff"/>
            </g>
          </g>
        </g>
        <g id="Group_56478" data-name="Group 56478" transform="translate(457.524 1924.334)">
          <g id="Group_55772" data-name="Group 55772" transform="translate(0 0)">
            <g id="Group_55771" data-name="Group 55771">
              <path id="Path_14148" data-name="Path 14148" d="M378.962,120.276c.156-1.135-1.446-2.069-2.65-2.166a6.829,6.829,0,0,1-1.715-.148c-1.178-.411-1.649-1.933-2.8-2.418a3.289,3.289,0,0,0-2.683.38,7,7,0,0,1-2.588,1.007c-.81.052-1.689-.249-2.4.147-.528.295-.8.9-1.291,1.262a3.081,3.081,0,0,1-1.688.458,4.759,4.759,0,0,0-1.74.284,1.376,1.376,0,0,0-.871,1.4Z" transform="translate(-358.522 -115.386)" fill="#fff"/>
            </g>
          </g>
        </g>
        <g id="Group_56479" data-name="Group 56479" transform="translate(461.378 1906.302)">
          <g id="Group_55775" data-name="Group 55775" transform="translate(0 0)">
            <g id="Group_55774" data-name="Group 55774">
              <path id="Path_14149" data-name="Path 14149" d="M390.773,35.258c.11-.8-1.018-1.456-1.865-1.525a4.8,4.8,0,0,1-1.207-.1c-.83-.289-1.161-1.361-1.97-1.7a2.315,2.315,0,0,0-1.888.267,4.929,4.929,0,0,1-1.822.709c-.57.036-1.189-.175-1.688.1-.372.208-.566.636-.909.889a2.17,2.17,0,0,1-1.188.322,3.345,3.345,0,0,0-1.225.2.968.968,0,0,0-.613.983Z" transform="translate(-376.386 -31.816)" fill="#fff"/>
            </g>
          </g>
        </g>
        <g id="Group_56480" data-name="Group 56480" transform="translate(389.49 1926.265)">
          <g id="Group_55778" data-name="Group 55778" transform="translate(0)">
            <g id="Group_55777" data-name="Group 55777">
              <path id="Path_14150" data-name="Path 14150" d="M53.908,126.892c.082-.594-.757-1.084-1.388-1.135a3.568,3.568,0,0,1-.9-.077c-.617-.215-.864-1.013-1.466-1.267a1.722,1.722,0,0,0-1.405.2,3.669,3.669,0,0,1-1.355.527c-.424.027-.885-.13-1.256.077-.276.154-.421.473-.676.661a1.612,1.612,0,0,1-.884.24,2.488,2.488,0,0,0-.911.149.72.72,0,0,0-.456.731Z" transform="translate(-43.203 -124.331)" fill="#fff"/>
            </g>
          </g>
        </g>
      </g>
    </g>
  </g>
</svg>
