<svg xmlns="http://www.w3.org/2000/svg" width="64.667" height="67.971" viewBox="0 0 64.667 67.971">
  <g id="Group_56503" data-name="Group 56503" opacity="0.405" style="mix-blend-mode: normal;isolation: isolate">
    <circle id="Ellipse_171" data-name="Ellipse 171" cx="4" cy="4" r="4" transform="translate(36.667 38.981)" fill="#608eac"/>
    <circle id="Ellipse_161" data-name="Ellipse 161" cx="4" cy="4" r="4" transform="translate(0 0)" fill="#608eac"/>
    <circle id="Ellipse_165" data-name="Ellipse 165" cx="4" cy="4" r="4" transform="translate(0 19.49)" fill="#608eac"/>
    <circle id="Ellipse_169" data-name="Ellipse 169" cx="4" cy="4" r="4" transform="translate(0 38.981)" fill="#608eac"/>
    <circle id="Ellipse_173" data-name="Ellipse 173" cx="4" cy="4" r="4" transform="translate(0 59.971)" fill="#608eac"/>
    <circle id="Ellipse_162" data-name="Ellipse 162" cx="4" cy="4" r="4" transform="translate(18.333 0)" fill="#608eac"/>
    <circle id="Ellipse_166" data-name="Ellipse 166" cx="4" cy="4" r="4" transform="translate(18.333 19.49)" fill="#608eac"/>
    <circle id="Ellipse_170" data-name="Ellipse 170" cx="4" cy="4" r="4" transform="translate(18.333 38.981)" fill="#608eac"/>
    <circle id="Ellipse_174" data-name="Ellipse 174" cx="4" cy="4" r="4" transform="translate(18.333 59.971)" fill="#608eac"/>
    <circle id="Ellipse_163" data-name="Ellipse 163" cx="4" cy="4" r="4" transform="translate(36.667 0)" fill="#608eac" opacity="0.5"/>
    <circle id="Ellipse_167" data-name="Ellipse 167" cx="4" cy="4" r="4" transform="translate(36.667 19.49)" fill="#608eac" opacity="0.5"/>
    <circle id="Ellipse_175" data-name="Ellipse 175" cx="4" cy="4" r="4" transform="translate(36.667 59.971)" fill="#608eac"/>
    <circle id="Ellipse_164" data-name="Ellipse 164" cx="4" cy="4" r="4" transform="translate(56.667 0)" fill="#608eac" opacity="0.5"/>
    <circle id="Ellipse_168" data-name="Ellipse 168" cx="4" cy="4" r="4" transform="translate(56.667 19.49)" fill="#608eac" opacity="0.5"/>
    <circle id="Ellipse_172" data-name="Ellipse 172" cx="4" cy="4" r="4" transform="translate(56.667 38.981)" fill="#608eac"/>
    <circle id="Ellipse_176" data-name="Ellipse 176" cx="4" cy="4" r="4" transform="translate(56.667 59.971)" fill="#608eac"/>
  </g>
</svg>
