<svg xmlns="http://www.w3.org/2000/svg" xmlns:xlink="http://www.w3.org/1999/xlink" width="334" height="401" viewBox="0 0 334 401">
  <defs>
    <linearGradient id="linear-gradient" x1="0.268" y1="0.844" x2="0.704" y2="0.197" gradientUnits="objectBoundingBox">
      <stop offset="0" stop-color="#fff" stop-opacity="0"/>
      <stop offset="1" stop-color="#fff"/>
    </linearGradient>
    <linearGradient id="linear-gradient-2" x1="0.5" y1="1.108" x2="0.5" y2="0.05" gradientUnits="objectBoundingBox">
      <stop offset="0" stop-color="#00eaf9"/>
      <stop offset="1" stop-color="#00bff9"/>
    </linearGradient>
    <linearGradient id="linear-gradient-3" y1="0.5" x2="1" y2="0.5" gradientUnits="objectBoundingBox">
      <stop offset="0" stop-color="#006ee6"/>
      <stop offset="0.979" stop-color="#00bff9"/>
    </linearGradient>
    <linearGradient id="linear-gradient-4" y1="0.5" x2="1" y2="0.5" gradientUnits="objectBoundingBox">
      <stop offset="0" stop-color="#0031ba"/>
      <stop offset="1" stop-color="#0089f9"/>
    </linearGradient>
    <linearGradient id="linear-gradient-5" x1="0.5" y1="1.057" x2="0.5" y2="-0.017" xlink:href="#linear-gradient-2"/>
    <linearGradient id="linear-gradient-8" x1="0.5" y1="1.114" x2="0.5" y2="-0.032" xlink:href="#linear-gradient-2"/>
    <linearGradient id="linear-gradient-11" x1="-4.537" y1="1.159" x2="-5.534" y2="0.207" xlink:href="#linear-gradient-4"/>
    <linearGradient id="linear-gradient-12" x1="-2.662" y1="0.914" x2="-3.287" y2="0.316" xlink:href="#linear-gradient-4"/>
    <linearGradient id="linear-gradient-13" x1="-11.547" y1="2.076" x2="-13.931" y2="-0.201" xlink:href="#linear-gradient-4"/>
    <linearGradient id="linear-gradient-14" x1="-3.372" y1="0.504" x2="-3.723" y2="0.175" xlink:href="#linear-gradient-4"/>
    <linearGradient id="linear-gradient-15" x1="-0.215" y1="1.153" x2="0.665" y2="0.403" xlink:href="#linear-gradient-3"/>
    <linearGradient id="linear-gradient-17" x1="-0.466" y1="1.285" x2="1.317" y2="-0.223" xlink:href="#linear-gradient-4"/>
    <linearGradient id="linear-gradient-18" x1="11.365" y1="2.906" x2="5.817" y2="-2.126" xlink:href="#linear-gradient-3"/>
    <linearGradient id="linear-gradient-19" x1="13.776" y1="2.202" x2="6.06" y2="-4.874" xlink:href="#linear-gradient-4"/>
    <linearGradient id="linear-gradient-20" x1="11.186" y1="8.578" x2="6.37" y2="-2.345" xlink:href="#linear-gradient-4"/>
    <linearGradient id="linear-gradient-21" x1="4.667" y1="0.974" x2="2.376" y2="-0.455" xlink:href="#linear-gradient-4"/>
    <linearGradient id="linear-gradient-22" x1="5.122" y1="3.633" x2="3.029" y2="-0.849" xlink:href="#linear-gradient-4"/>
    <linearGradient id="linear-gradient-23" x1="5.647" y1="1.563" x2="3.006" y2="-0.548" xlink:href="#linear-gradient-4"/>
    <linearGradient id="linear-gradient-24" x1="3.043" y1="1.218" x2="2.319" y2="0.381" xlink:href="#linear-gradient-3"/>
    <linearGradient id="linear-gradient-25" x1="16.638" y1="2.906" x2="11.089" y2="-2.126" xlink:href="#linear-gradient-3"/>
    <linearGradient id="linear-gradient-26" x1="21.105" y1="2.202" x2="13.39" y2="-4.874" xlink:href="#linear-gradient-4"/>
    <linearGradient id="linear-gradient-27" x1="15.762" y1="8.576" x2="10.947" y2="-2.345" xlink:href="#linear-gradient-4"/>
    <linearGradient id="linear-gradient-28" x1="6.844" y1="0.974" x2="4.553" y2="-0.455" xlink:href="#linear-gradient-4"/>
    <linearGradient id="linear-gradient-29" x1="7.111" y1="3.633" x2="5.018" y2="-0.849" xlink:href="#linear-gradient-4"/>
    <linearGradient id="linear-gradient-30" x1="8.157" y1="1.563" x2="5.515" y2="-0.548" xlink:href="#linear-gradient-4"/>
    <linearGradient id="linear-gradient-31" x1="0.924" y1="1.126" x2="0.263" y2="0.15" xlink:href="#linear-gradient-3"/>
    <linearGradient id="linear-gradient-32" x1="0.946" y1="0.998" x2="0.185" y2="0.148" xlink:href="#linear-gradient-3"/>
    <linearGradient id="linear-gradient-33" x1="0.5" y1="1.54" x2="0.5" y2="-0.114" gradientUnits="objectBoundingBox">
      <stop offset="0" stop-color="#0089f9"/>
      <stop offset="1" stop-color="#0031ba"/>
    </linearGradient>
    <linearGradient id="linear-gradient-36" x1="0.5" y1="0.888" x2="0.5" y2="0.09" gradientUnits="objectBoundingBox">
      <stop offset="0" stop-color="#fff"/>
      <stop offset="1" stop-color="#fff" stop-opacity="0"/>
    </linearGradient>
    <radialGradient id="radial-gradient" cx="0.5" cy="0.5" r="0.5" gradientTransform="translate(0)" gradientUnits="objectBoundingBox">
      <stop offset="0" stop-color="#fff"/>
      <stop offset="1"/>
    </radialGradient>
    <radialGradient id="radial-gradient-2" cx="0.5" cy="0.5" r="0.5" xlink:href="#radial-gradient"/>
    <radialGradient id="radial-gradient-3" cx="0.5" cy="0.5" r="0.5" xlink:href="#radial-gradient"/>
    <radialGradient id="radial-gradient-4" cx="0.5" cy="0.5" r="0.5" xlink:href="#radial-gradient"/>
    <radialGradient id="radial-gradient-5" cx="0.5" cy="0.5" r="0.5" xlink:href="#radial-gradient"/>
    <radialGradient id="radial-gradient-6" cx="0.5" cy="0.5" r="0.5" xlink:href="#radial-gradient"/>
    <radialGradient id="radial-gradient-7" cx="0.5" cy="0.5" r="0.5" gradientTransform="matrix(1, 0, 0, 1, 0, 0)" xlink:href="#radial-gradient"/>
    <linearGradient id="linear-gradient-37" x1="0.5" y1="0.887" x2="0.5" y2="0.116" gradientUnits="objectBoundingBox">
      <stop offset="0" stop-color="#fffb03"/>
      <stop offset="1" stop-color="#ff7006"/>
    </linearGradient>
    <linearGradient id="linear-gradient-38" x1="0.5" y1="0.82" x2="0.5" y2="0.358" gradientUnits="objectBoundingBox">
      <stop offset="0.038" stop-color="#fffdf5"/>
      <stop offset="1" stop-color="#efebda"/>
    </linearGradient>
    <radialGradient id="radial-gradient-8" cx="0.494" cy="0.195" r="2.616" gradientTransform="translate(0.41 0.144) scale(0.171 0.261)" gradientUnits="objectBoundingBox">
      <stop offset="0.014" stop-color="#afa477"/>
      <stop offset="0.152" stop-color="#b2a77c"/>
      <stop offset="0.334" stop-color="#bcb38d"/>
      <stop offset="0.54" stop-color="#ccc5a8"/>
      <stop offset="0.765" stop-color="#e2decf"/>
      <stop offset="1" stop-color="#fff"/>
    </radialGradient>
    <linearGradient id="linear-gradient-39" x1="0.876" y1="0.958" x2="0.299" y2="0.11" xlink:href="#linear-gradient-33"/>
    <linearGradient id="linear-gradient-40" x1="1.293" y1="1.063" x2="-0.191" y2="0.022" gradientUnits="objectBoundingBox">
      <stop offset="0.021" stop-color="#00bff9"/>
      <stop offset="1" stop-color="#006ee6"/>
    </linearGradient>
    <linearGradient id="linear-gradient-41" y1="0.5" x2="1" y2="0.5" gradientUnits="objectBoundingBox">
      <stop offset="0.074" stop-color="#bfb89d"/>
      <stop offset="1" stop-color="#efebda"/>
    </linearGradient>
    <linearGradient id="linear-gradient-42" x1="0" y1="0.5" x2="1" y2="0.5" xlink:href="#linear-gradient-38"/>
    <linearGradient id="linear-gradient-43" x1="0.236" y1="0.934" x2="0.611" y2="0.242" xlink:href="#linear-gradient-33"/>
    <linearGradient id="linear-gradient-44" x1="-0.135" y1="1.01" x2="1.035" y2="0.105" xlink:href="#linear-gradient-40"/>
    <linearGradient id="linear-gradient-45" x1="-104.497" y1="0.5" x2="-103.497" y2="0.5" xlink:href="#linear-gradient-38"/>
    <linearGradient id="linear-gradient-46" x1="-0.101" y1="0.381" x2="0.995" y2="0.64" gradientUnits="objectBoundingBox">
      <stop offset="0" stop-color="#fffdf5"/>
      <stop offset="0.038" stop-color="#fffdf5"/>
      <stop offset="1" stop-color="#fff"/>
    </linearGradient>
    <linearGradient id="linear-gradient-47" x1="-0.025" y1="0.5" x2="1.004" y2="0.5" xlink:href="#linear-gradient-4"/>
    <linearGradient id="linear-gradient-48" x1="1.159" y1="0.819" x2="0.241" y2="0.314" xlink:href="#linear-gradient-4"/>
    <linearGradient id="linear-gradient-49" x1="-11.675" y1="0.884" x2="-13.386" y2="-0.297" xlink:href="#linear-gradient-4"/>
    <linearGradient id="linear-gradient-50" x1="-13.308" y1="0.5" x2="-12.308" y2="0.5" xlink:href="#linear-gradient-3"/>
    <linearGradient id="linear-gradient-51" x1="-4.585" y1="0.884" x2="-6.297" y2="-0.297" xlink:href="#linear-gradient-4"/>
    <linearGradient id="linear-gradient-52" x1="-5.853" y1="0.5" x2="-4.853" y2="0.5" xlink:href="#linear-gradient-3"/>
    <linearGradient id="linear-gradient-54" x1="0.036" y1="0.894" x2="0.866" y2="0.19" xlink:href="#linear-gradient-4"/>
    <linearGradient id="linear-gradient-55" x1="-0.167" y1="1.095" x2="0.92" y2="0.024" xlink:href="#linear-gradient-4"/>
    <linearGradient id="linear-gradient-56" x1="-0.048" y1="1.104" x2="1.04" y2="0.033" xlink:href="#linear-gradient-4"/>
    <linearGradient id="linear-gradient-57" x1="1.149" y1="1.16" x2="0.296" y2="0.036" xlink:href="#linear-gradient-4"/>
    <linearGradient id="linear-gradient-58" x1="0.169" y1="0.706" x2="1.904" y2="-0.653" xlink:href="#linear-gradient"/>
    <linearGradient id="linear-gradient-59" x1="0.281" y1="0.727" x2="2.022" y2="-0.636" xlink:href="#linear-gradient"/>
    <linearGradient id="linear-gradient-60" x1="1.086" y1="1.316" x2="0.051" y2="0.228" xlink:href="#linear-gradient-4"/>
    <clipPath id="clip-Img">
      <rect width="334" height="401"/>
    </clipPath>
  </defs>
  <g id="Img" clip-path="url(#clip-Img)">
    <g id="Group_56583" data-name="Group 56583" transform="translate(-499.468 -80.725)">
      <path id="Path_14231" data-name="Path 14231" d="M746.839,359.767c7.858,4.537,7.9,11.893.092,16.431l-70.836,41.165c-7.806,4.537-20.507,4.537-28.365,0L576.43,376.2c-7.857-4.536-7.9-11.893-.092-16.43L647.174,318.6c7.806-4.537,20.507-4.537,28.365,0Z" transform="translate(9.205 38.911)" fill="#020b19" opacity="0.45" style="mix-blend-mode: multiply;isolation: isolate"/>
      <path id="Path_14232" data-name="Path 14232" d="M791.911,213.55l-.435,153.271L585.666,248,586.1,94.725Z" transform="translate(11.88 0)" fill="url(#linear-gradient)" style="mix-blend-mode: overlay;isolation: isolate"/>
      <g id="Group_56550" data-name="Group 56550" transform="translate(518.355 114.74)">
        <g id="Group_56516" data-name="Group 56516" transform="translate(6.103 114.187)">
          <g id="Group_56507" data-name="Group 56507" transform="translate(63.572)" style="isolation: isolate">
            <g id="Group_56504" data-name="Group 56504" transform="translate(21.636 12.573)">
              <path id="Path_14233" data-name="Path 14233" d="M616.943,219.482l.09,92.448-20.975,11.924-.09-92.448Z" transform="translate(-595.968 -219.482)" fill="url(#linear-gradient-2)"/>
            </g>
            <g id="Group_56505" data-name="Group 56505" transform="translate(0 11.924)">
              <path id="Path_14234" data-name="Path 14234" d="M599.3,323.952l-21.636-12.574-.09-92.448L599.213,231.5Z" transform="translate(-577.577 -218.931)" fill="url(#linear-gradient-3)"/>
            </g>
            <g id="Group_56506" data-name="Group 56506">
              <path id="Path_14235" data-name="Path 14235" d="M599.213,233.293l-21.636-12.574L598.552,208.8l21.636,12.573Z" transform="translate(-577.577 -208.795)" fill="url(#linear-gradient-4)"/>
            </g>
          </g>
          <g id="Group_56511" data-name="Group 56511" transform="translate(32.379 49.9)" style="isolation: isolate">
            <g id="Group_56508" data-name="Group 56508" transform="translate(21.636 12.573)">
              <path id="Path_14236" data-name="Path 14236" d="M590.429,261.9l.09,60.566-20.975,11.925-.09-60.566Z" transform="translate(-569.454 -261.897)" fill="url(#linear-gradient-5)"/>
            </g>
            <g id="Group_56509" data-name="Group 56509" transform="translate(0 11.924)">
              <path id="Path_14237" data-name="Path 14237" d="M572.79,334.485l-21.636-12.574-.09-60.566L572.7,273.919Z" transform="translate(-551.064 -261.345)" fill="url(#linear-gradient-3)"/>
            </g>
            <g id="Group_56510" data-name="Group 56510">
              <path id="Path_14238" data-name="Path 14238" d="M572.7,275.708l-21.636-12.574,20.975-11.924,21.636,12.573Z" transform="translate(-551.064 -251.21)" fill="url(#linear-gradient-4)"/>
            </g>
          </g>
          <g id="Group_56515" data-name="Group 56515" transform="translate(0 97.508)" style="isolation: isolate">
            <g id="Group_56512" data-name="Group 56512" transform="translate(21.636 12.573)">
              <path id="Path_14239" data-name="Path 14239" d="M562.907,302.363l.09,31.7-20.975,11.924-.09-31.7Z" transform="translate(-541.932 -302.363)" fill="url(#linear-gradient-8)"/>
            </g>
            <g id="Group_56513" data-name="Group 56513" transform="translate(0 11.924)">
              <path id="Path_14240" data-name="Path 14240" d="M545.268,346.081l-21.636-12.574-.09-31.7,21.636,12.574Z" transform="translate(-523.542 -301.811)" fill="url(#linear-gradient-3)"/>
            </g>
            <g id="Group_56514" data-name="Group 56514">
              <path id="Path_14241" data-name="Path 14241" d="M545.178,316.174,523.542,303.6l20.975-11.924,21.636,12.573Z" transform="translate(-523.542 -291.676)" fill="url(#linear-gradient-4)"/>
            </g>
          </g>
        </g>
        <g id="Group_56522" data-name="Group 56522" transform="translate(187.392 23.496)">
          <g id="Group_56517" data-name="Group 56517" transform="translate(7.388 15.051)">
            <path id="Path_14242" data-name="Path 14242" d="M741.384,198.048c-.052,18.233-12.956,25.6-28.832,16.431s-28.687-31.377-28.636-49.61,12.955-25.586,28.823-16.425S741.436,179.815,741.384,198.048ZM712.572,207.5c12.525,7.231,22.709,1.436,22.75-12.954s-10.078-31.906-22.6-39.138-22.7-1.422-22.741,12.96,10.078,31.906,22.593,39.132" transform="translate(-683.916 -144.503)" fill="#fff"/>
          </g>
          <g id="Group_56518" data-name="Group 56518" transform="translate(20.51 31.93)">
            <path id="Path_14243" data-name="Path 14243" d="M726.294,187.941c-.028,9.912-7.041,13.908-15.667,8.928s-15.585-17.044-15.558-26.956,7.041-13.9,15.659-8.924S726.322,178.037,726.294,187.941Zm-15.647,1.881c5.24,3.026,9.5.6,9.514-5.422s-4.213-13.338-9.453-16.364-9.49-.594-9.506,5.418,4.213,13.348,9.445,16.368" transform="translate(-695.069 -158.85)" fill="#fff"/>
          </g>
          <g id="Group_56519" data-name="Group 56519" transform="translate(13.451 22.851)">
            <path id="Path_14244" data-name="Path 14244" d="M711.662,206.333c12.525,7.231,22.709,1.436,22.75-12.954s-10.078-31.906-22.6-39.137-22.7-1.424-22.742,12.959S699.147,199.107,711.662,206.333Zm.024-8.1c-8.619-4.977-15.585-17.044-15.558-26.956s7.041-13.9,15.659-8.924S727.381,179.4,727.353,189.3s-7.041,13.908-15.667,8.928" transform="translate(-689.069 -151.133)" fill="url(#linear-gradient-11)"/>
          </g>
          <g id="Group_56520" data-name="Group 56520" transform="translate(0 5.549)">
            <path id="Path_14245" data-name="Path 14245" d="M677.636,162.03c-.065,22.93,16.053,50.848,36,62.364s36.179,2.277,36.244-20.654-16.053-50.838-36.009-62.36S677.7,139.108,677.636,162.03ZM713.66,215.9c-15.867-9.161-28.687-31.377-28.636-49.61s12.955-25.586,28.823-16.425,28.7,31.371,28.645,49.6-12.956,25.6-28.832,16.431" transform="translate(-677.636 -136.426)" fill="url(#linear-gradient-12)"/>
          </g>
          <g id="Group_56521" data-name="Group 56521" transform="translate(26.643 39.818)">
            <path id="Path_14246" data-name="Path 14246" d="M700.282,172.271c.017-6.012,4.274-8.438,9.506-5.418s9.471,10.353,9.453,16.364-4.274,8.448-9.514,5.422S700.264,178.292,700.282,172.271Z" transform="translate(-700.282 -165.554)" fill="url(#linear-gradient-13)"/>
          </g>
          <path id="Path_14247" data-name="Path 14247" d="M709.35,140.663q-.866-.42-1.722-.787c-.2-.086-.4-.178-.606-.26-.538-.22-1.071-.421-1.6-.609-.129-.046-.26-.1-.389-.145-.657-.225-1.306-.424-1.95-.6-.381-.1-.758-.193-1.133-.281-.172-.04-.346-.088-.516-.126q-.826-.178-1.634-.3c-.821-.126-1.622-.2-2.413-.241-.16-.009-.32-.02-.479-.026-.709-.026-1.408-.024-2.092.016-.121.007-.238.022-.358.032-.552.041-1.1.106-1.629.191-.167.026-.334.052-.5.082-.613.113-1.218.246-1.8.415-.028.008-.054.02-.082.028-.555.164-1.094.359-1.625.573-.155.062-.309.129-.462.2q-.681.3-1.331.651c-.143.078-.292.146-.433.228l9.561-5.557q.1-.058.2-.113c.076-.044.159-.074.235-.115q.649-.353,1.331-.651c.085-.036.162-.086.248-.121.069-.029.145-.047.214-.075.529-.214,1.068-.409,1.623-.573.024-.007.046-.018.07-.025l.014,0c.586-.169,1.191-.3,1.8-.415.072-.013.139-.036.211-.048.094-.016.194-.019.289-.034q.8-.127,1.631-.191c.088-.007.173-.025.262-.031.031,0,.064,0,.094,0,.684-.04,1.381-.042,2.091-.016.069,0,.135,0,.2,0,.091,0,.186.024.276.028.791.045,1.592.115,2.413.242h0c.536.082,1.08.185,1.627.3.175.038.354.087.531.129.34.079.678.154,1.02.247.034.009.068.022.1.031.643.178,1.293.376,1.95.6.129.045.26.1.391.145.529.189,1.062.389,1.6.609.071.029.14.051.212.08.131.055.265.125.4.181q.854.367,1.72.786c.218.1.434.209.653.319.758.384,1.52.786,2.289,1.231.959.554,1.906,1.156,2.846,1.784.161.107.322.211.481.32q1.345.918,2.659,1.931c.171.132.34.266.509.4.891.7,1.772,1.422,2.637,2.182.075.066.148.135.224.2q1.255,1.112,2.471,2.3c.081.08.167.152.248.232.049.049.1.1.148.152.622.618,1.238,1.245,1.842,1.889.041.044.08.089.121.133q.847.907,1.672,1.851c.054.061.109.119.164.181.068.078.131.162.2.241q1.361,1.576,2.655,3.234c.026.033.053.062.078.094.067.086.128.178.194.264q1.029,1.338,2.009,2.724c.065.093.135.18.2.272.029.044.058.088.087.131q.939,1.343,1.827,2.728c.058.089.12.174.176.264.085.132.162.269.246.4q.718,1.136,1.4,2.3c.071.12.147.236.218.356.027.046.051.093.076.138q.773,1.329,1.5,2.684c.04.074.084.147.124.221.08.149.151.3.229.452q.565,1.078,1.1,2.169c.074.151.155.3.228.449.044.091.081.182.125.272.439.92.865,1.845,1.27,2.775.013.029.028.058.04.087.044.1.081.2.125.3q.54,1.258,1.033,2.528c.054.136.115.272.168.409.044.113.079.228.122.341.379,1,.744,2,1.079,3.007.006.02.014.04.021.06.02.061.036.122.056.184q.512,1.553.948,3.107c.036.131.082.26.119.389.02.071.033.141.052.213q.5,1.807.886,3.612c.024.106.055.213.078.319.034.156.059.312.091.467.1.473.186.945.272,1.417.06.327.12.655.175.982.08.487.151.971.219,1.455.033.229.074.459.1.687.008.06.011.119.018.178q.2,1.56.3,3.1c.015.219.027.436.04.655.061,1.053.1,2.1.1,3.137-.033,11.392-4.053,19.406-10.537,23.174l-9.561,5.557c6.484-3.768,10.5-11.783,10.537-23.174,0-1.035-.039-2.084-.1-3.137-.013-.219-.025-.436-.04-.655q-.109-1.539-.3-3.1c-.037-.289-.08-.58-.121-.871-.068-.484-.139-.966-.219-1.451-.055-.329-.115-.658-.175-.987-.086-.469-.175-.94-.272-1.411q-.081-.394-.168-.789-.394-1.8-.886-3.614c-.054-.2-.113-.4-.169-.594-.294-1.039-.608-2.078-.951-3.114-.026-.08-.049-.16-.077-.24-.335-1.006-.7-2.007-1.079-3.007-.1-.252-.193-.5-.291-.754q-.5-1.267-1.033-2.526c-.056-.131-.108-.261-.165-.391-.4-.931-.831-1.855-1.269-2.775-.115-.241-.234-.48-.352-.721q-.536-1.094-1.1-2.177c-.116-.221-.229-.442-.347-.662q-.725-1.355-1.5-2.687c-.1-.166-.2-.331-.3-.5q-.683-1.158-1.4-2.294c-.14-.221-.279-.444-.421-.664q-.891-1.384-1.828-2.729c-.094-.135-.192-.267-.287-.4q-.979-1.384-2.007-2.721c-.092-.12-.182-.242-.274-.361q-1.292-1.661-2.657-3.234c-.121-.14-.239-.282-.36-.42q-.831-.949-1.685-1.865c-.036-.039-.072-.08-.108-.119q-.907-.967-1.844-1.891c-.131-.129-.264-.254-.4-.382q-1.218-1.189-2.472-2.3c-.074-.066-.148-.136-.222-.2-.866-.759-1.747-1.482-2.638-2.182-.169-.133-.339-.267-.509-.4q-1.313-1.011-2.658-1.931c-.16-.108-.321-.213-.482-.32-.94-.627-1.887-1.231-2.846-1.784-.769-.445-1.532-.848-2.289-1.231C709.783,140.871,709.567,140.768,709.35,140.663Z" transform="translate(-676.055 -131.71)" fill="url(#linear-gradient-14)"/>
        </g>
        <g id="Group_56525" data-name="Group 56525" transform="translate(5.41 72.454)">
          <g id="Group_56524" data-name="Group 56524" style="isolation: isolate">
            <g id="Group_56523" data-name="Group 56523">
              <path id="Path_14248" data-name="Path 14248" d="M587.381,187.924l18.007-14.6-3.594,22.814-5.3-3.013-10.163,17.609-7.848-4.472-22.914,39.695-13.332-7.6-15.858,27.473-3.429-1.954,19.265-33.369L555.55,238.1l22.914-39.689,7.848,4.472,6.761-11.711Z" transform="translate(-522.953 -173.323)" fill="url(#linear-gradient-15)"/>
            </g>
          </g>
        </g>
        <g id="Group_56535" data-name="Group 56535" transform="translate(0 64.627)">
          <g id="Group_56526" data-name="Group 56526" transform="translate(35.629 12.633)">
            <path id="Path_14249" data-name="Path 14249" d="M548.639,178.441q.021-.519.019-1.033C548.659,177.752,548.653,178.1,548.639,178.441Z" transform="translate(-548.639 -177.408)" fill="#127171"/>
          </g>
          <g id="Group_56527" data-name="Group 56527" transform="translate(32.583 20.225)">
            <path id="Path_14250" data-name="Path 14250" d="M546.05,189.6c.248-.568.487-1.14.707-1.712a38.487,38.487,0,0,0,1.315-4.026,37.589,37.589,0,0,1-1.315,4.031Q546.423,188.749,546.05,189.6Z" transform="translate(-546.05 -183.861)" fill="#1bafaf"/>
          </g>
          <g id="Group_56532" data-name="Group 56532" style="isolation: isolate">
            <g id="Group_56528" data-name="Group 56528" transform="translate(30.386 1.166)">
              <path id="Path_14251" data-name="Path 14251" d="M544.183,167.661a8.949,8.949,0,0,1,2.846,2.6A9,9,0,0,0,544.183,167.661Z" transform="translate(-544.183 -167.661)" fill="#1bafaf"/>
            </g>
            <g id="Group_56529" data-name="Group 56529" transform="translate(26.685 0.041)">
              <path id="Path_14252" data-name="Path 14252" d="M541.037,166.7a8.972,8.972,0,0,1,3.7,1.125A9.077,9.077,0,0,0,541.037,166.7Z" transform="translate(-541.037 -166.705)" fill="#1bafaf"/>
            </g>
            <g id="Group_56530" data-name="Group 56530" transform="translate(21.263)">
              <path id="Path_14253" data-name="Path 14253" d="M541.36,166.679a12.57,12.57,0,0,0-3.814.467q-.552.148-1.118.345.565-.2,1.118-.348A12.635,12.635,0,0,1,541.36,166.679Z" transform="translate(-536.428 -166.67)" fill="#1bafaf"/>
            </g>
            <g id="Group_56531" data-name="Group 56531" transform="translate(0 2.444)">
              <path id="Path_14254" data-name="Path 14254" d="M536.12,168.748l.055,19.745,14.5,4.354c-.56,1.219-1.179,2.419-1.853,3.586a42.426,42.426,0,0,1-3.684,5.388,36.951,36.951,0,0,1-4.292,4.532,28.515,28.515,0,0,1-4.613,3.357,19.345,19.345,0,0,1-4.617,1.971,12.348,12.348,0,0,1-4.3.432,8.767,8.767,0,0,1-6.547-3.726,12.246,12.246,0,0,1-1.794-3.917,19.067,19.067,0,0,1-.619-4.949,28.139,28.139,0,0,1,.588-5.651,36.931,36.931,0,0,1,1.766-5.971,43.222,43.222,0,0,1,6.5-11.263,37.066,37.066,0,0,1,4.293-4.532A28.726,28.726,0,0,1,536.12,168.748Z" transform="translate(-518.355 -168.748)" fill="url(#linear-gradient-3)"/>
            </g>
          </g>
          <g id="Group_56533" data-name="Group 56533" transform="translate(33.232 3.768)">
            <path id="Path_14255" data-name="Path 14255" d="M546.6,169.873a11.151,11.151,0,0,1,1.2,2.167A11.416,11.416,0,0,0,546.6,169.873Z" transform="translate(-546.602 -169.873)" fill="#1bafaf"/>
          </g>
          <g id="Group_56534" data-name="Group 56534" transform="translate(17.765 0)">
            <path id="Path_14256" data-name="Path 14256" d="M533.455,169.115a20.264,20.264,0,0,1,3.5-1.624q.565-.2,1.118-.345a12.411,12.411,0,0,1,4.053-.454c.085,0,.168.012.252.019a8.737,8.737,0,0,1,6.547,3.727,11.416,11.416,0,0,1,1.2,2.167,13.7,13.7,0,0,1,.6,1.742,19.31,19.31,0,0,1,.619,4.954c0,.344-.006.688-.02,1.034a29.456,29.456,0,0,1-.568,4.615q-.2.971-.455,1.944a38.5,38.5,0,0,1-1.315,4.026c-.22.572-.459,1.144-.707,1.712-.086.194-.172.388-.26.581l-14.5-4.354Z" transform="translate(-533.455 -166.671)" fill="url(#linear-gradient-17)"/>
          </g>
        </g>
        <g id="Group_56540" data-name="Group 56540" transform="translate(200.502 136.575)">
          <g id="Group_56537" data-name="Group 56537" transform="translate(32.38 36.686)">
            <path id="Path_14257" data-name="Path 14257" d="M725.04,271.661l-8.325,4.838a.842.842,0,0,1,.8.013l8.324-4.838A.84.84,0,0,0,725.04,271.661Z" transform="translate(-716.229 -256.791)" fill="none"/>
            <path id="Path_14258" data-name="Path 14258" d="M736.845,271.153l8.325-4.837a14.645,14.645,0,0,0-6.691-.678l-8.324,4.838A14.657,14.657,0,0,1,736.845,271.153Z" transform="translate(-713.857 -257.861)" fill="none"/>
            <path id="Path_14259" data-name="Path 14259" d="M726.712,264.871l8.325-4.838a2.524,2.524,0,0,0-.831-.814,1.162,1.162,0,0,0-1.168-.093l-8.325,4.838a1.164,1.164,0,0,1,1.169.093A2.51,2.51,0,0,1,726.712,264.871Z" transform="translate(-714.818 -259.007)" fill="none"/>
            <g id="Group_56536" data-name="Group 56536" transform="translate(0.486)">
              <path id="Path_14260" data-name="Path 14260" d="M740.629,301.251c3.556,2.053,6.446.4,6.458-3.682a14.14,14.14,0,0,0-6.415-11.113c-3.555-2.052-6.447-.4-6.458,3.68A14.144,14.144,0,0,0,740.629,301.251Z" transform="translate(-713.627 -254.319)" fill="url(#linear-gradient-18)"/>
              <path id="Path_14261" data-name="Path 14261" d="M743.118,321.894a.832.832,0,0,1-.38.688l8.325-4.838a.833.833,0,0,0,.379-.688l.554-6.251-8.324,4.838Z" transform="translate(-712.122 -249.865)" fill="url(#linear-gradient-19)"/>
              <path id="Path_14262" data-name="Path 14262" d="M725.837,271.674l-.052-.022a1.145,1.145,0,0,0-.147-.051.775.775,0,0,0-.111-.024.885.885,0,0,0-.094-.009q-.044,0-.085,0l-.08.009c-.026,0-.052.011-.077.018s-.049.016-.074.026a.8.8,0,0,0-.072.035l-.007,0-8.325,4.838.008,0c.024-.013.047-.025.072-.035s.048-.019.073-.026.051-.013.077-.018.053-.007.08-.009.056,0,.085,0a.669.669,0,0,1,.1.009.765.765,0,0,1,.109.024.95.95,0,0,1,.147.051l.053.022,5.709,2.685,8.325-4.838Z" transform="translate(-716.715 -256.791)" fill="url(#linear-gradient-20)"/>
              <path id="Path_14263" data-name="Path 14263" d="M774.8,304.31V304.3l0-.026c-.01-.072-.022-.145-.038-.218-.007-.032-.017-.065-.024-.1l-.013-.049-.012-.048c-.015-.058-.033-.115-.052-.172-.012-.035-.025-.071-.038-.1l-.009-.025-.009-.025c-.018-.048-.038-.1-.058-.144s-.04-.089-.061-.134l-.015-.029-.011-.02-.039-.079c-.022-.041-.046-.082-.069-.122s-.045-.075-.068-.113l0,0,0,0q-.039-.06-.081-.12c-.028-.041-.059-.081-.089-.121l-.031-.038-.024-.028c-.016-.021-.033-.042-.051-.062-.045-.052-.091-.1-.139-.147l-.016-.014a2.211,2.211,0,0,0-.28-.233l-5.7-3.9c-.078-.454-.168-.909-.264-1.366-.01-.048-.018-.1-.028-.145-.027-.129-.06-.259-.089-.388-.046-.206-.092-.412-.141-.619-.046-.187-.094-.374-.141-.561-.053-.207-.107-.414-.164-.621-.019-.069-.035-.139-.054-.208s-.037-.115-.053-.173q-.266-.944-.578-1.887c-.008-.027-.015-.053-.025-.08-.019-.056-.041-.114-.061-.171q-.293-.867-.621-1.731c-.012-.029-.021-.06-.032-.089l-.017-.04q-.231-.6-.479-1.2l3.672-2.958a.7.7,0,0,0,.149-.18.8.8,0,0,0,.034-.079,1.019,1.019,0,0,0,.061-.16,1.127,1.127,0,0,0,.019-.113,1.418,1.418,0,0,0,.022-.175c0-.044,0-.091,0-.135,0-.064,0-.126-.011-.193,0-.016,0-.031,0-.047-.009-.073-.022-.148-.039-.225v-.008l0-.015c-.012-.055-.025-.111-.041-.167s-.033-.115-.052-.173l0-.006,0-.007c-.016-.049-.034-.1-.053-.149s-.041-.1-.064-.155l-.022-.047-.013-.031-.034-.074c-.025-.051-.049-.1-.076-.151s-.048-.089-.074-.134l-3.511-6.08-.009-.018c-.031-.052-.062-.1-.094-.153s-.068-.1-.1-.154c-.015-.022-.032-.042-.047-.064l-.025-.034c-.015-.02-.029-.041-.046-.062-.046-.059-.092-.115-.139-.169-.021-.025-.043-.046-.065-.069l-.056-.06c-.021-.022-.042-.046-.064-.067-.047-.047-.1-.085-.142-.126-.031-.027-.061-.056-.092-.081a2.231,2.231,0,0,0-.287-.2,1.724,1.724,0,0,0-.2-.1l-.016,0c-.013-.006-.027-.009-.04-.014-.034-.013-.068-.026-.1-.035s-.047-.009-.071-.014l-.024-.006-.019,0a.876.876,0,0,0-.094-.009.62.62,0,0,0-.081,0h0a.677.677,0,0,0-.139.024c-.016,0-.032.011-.047.016l-4.424,1.655c-.069-.092-.139-.182-.209-.273s-.164-.2-.243-.306c-.154-.194-.307-.388-.462-.58-.119-.146-.24-.291-.36-.435-.155-.186-.312-.372-.469-.555-.055-.065-.109-.131-.165-.194s-.107-.118-.16-.179q-.394-.446-.794-.881c-.079-.084-.155-.169-.234-.253q-.508-.542-1.031-1.059l-.064-.066c-.055-.055-.112-.1-.167-.159q-.438-.429-.885-.839c-.1-.094-.2-.188-.307-.281-.371-.334-.744-.662-1.121-.978l-8.325,4.838c.379.315.752.644,1.122.978l.307.28q.445.411.884.839c.076.075.155.149.232.226q.522.517,1.031,1.059c.078.084.155.169.233.254q.4.432.794.879c.109.125.218.249.326.375q.236.274.467.553c.121.145.242.291.361.436.156.192.309.387.464.581s.3.382.453.578l4.422-1.655a.62.62,0,0,1,.186-.04h0a.789.789,0,0,1,.2.012l.025.006a1.1,1.1,0,0,1,.171.049c.014,0,.027.008.041.014a1.413,1.413,0,0,1,.213.1,2.232,2.232,0,0,1,.287.2c.032.025.061.054.092.081.069.06.139.122.206.193l.056.06a3.83,3.83,0,0,1,.251.3l.025.034a4.5,4.5,0,0,1,.254.388l3.51,6.08c.069.119.129.239.185.358l.014.032a3.73,3.73,0,0,1,.139.352l0,.007a3.265,3.265,0,0,1,.1.346l0,.015a2.774,2.774,0,0,1,.043.28c.007.067.008.129.009.192,0,.046,0,.093,0,.137a1.641,1.641,0,0,1-.022.175c-.007.038-.011.078-.019.112a.931.931,0,0,1-.062.161c-.012.026-.02.055-.033.079a.676.676,0,0,1-.151.18l-3.672,2.957q.249.6.479,1.2c.018.044.032.087.049.131q.33.865.621,1.733c.028.082.058.164.085.246q.312.944.578,1.888c.036.128.073.255.108.384.057.207.109.413.162.62.048.187.1.373.141.56.049.208.1.416.144.624.039.176.079.353.115.528.1.456.186.913.264,1.367l5.7,3.9a2.131,2.131,0,0,1,.279.233,2.337,2.337,0,0,1,.206.224l.024.028a3.33,3.33,0,0,1,.2.282l0,0a3.28,3.28,0,0,1,.178.314l.011.021c.053.107.1.218.144.331l.008.025c.04.107.073.215.1.325l.012.049a2.99,2.99,0,0,1,.061.315l0,.026a2.777,2.777,0,0,1,.024.354v.051l-6.991,4.062a14.458,14.458,0,0,1-2.789,6.08l3.642,7.18a3.029,3.029,0,0,1,.141.328l.007.019a2.844,2.844,0,0,1,.089.322l0,.019c.014.074.022.146.029.218a2.149,2.149,0,0,1,.008.324c0,.019,0,.039,0,.056a1.529,1.529,0,0,1-.071.334c-.009.028-.022.053-.033.079a1.133,1.133,0,0,1-.115.211c-.016.024-.033.048-.052.071a.89.89,0,0,1-.228.2l8.325-4.838a.884.884,0,0,0,.227-.2c.02-.022.035-.047.053-.071a1.062,1.062,0,0,0,.114-.211.771.771,0,0,0,.033-.079,1.413,1.413,0,0,0,.071-.333c0-.019,0-.039,0-.058a1.865,1.865,0,0,0-.008-.322c0-.019,0-.035,0-.054-.007-.054-.016-.109-.028-.165l0-.019,0-.008c-.011-.049-.022-.1-.036-.148s-.025-.087-.039-.129l-.013-.035-.007-.02c-.007-.021-.014-.042-.022-.064-.014-.036-.029-.073-.045-.109s-.032-.072-.049-.107l-.024-.048-3.644-7.18a12.676,12.676,0,0,0,1.448-2.287l-.008,2.654a1.2,1.2,0,0,1-.469,1.088l8.325-4.838a.755.755,0,0,0,.194-.165,1.428,1.428,0,0,0,.275-.924l.015-5.722A2.489,2.489,0,0,0,774.8,304.31Z" transform="translate(-711.962 -256.944)" fill="url(#linear-gradient-21)"/>
              <path id="Path_14264" data-name="Path 14264" d="M755.325,265.894l-.011-.106c-.008-.058-.018-.115-.031-.173l-.008-.038-.007-.028c-.007-.025-.012-.051-.019-.077-.013-.044-.026-.086-.04-.129s-.025-.072-.039-.108l0-.006,0-.007c-.015-.04-.032-.079-.048-.119s-.035-.078-.054-.116-.027-.054-.04-.08l-.008-.016-.012-.022c-.021-.04-.044-.08-.067-.12s-.051-.085-.076-.126l-.026-.038-.016-.026-.046-.067c-.033-.048-.068-.1-.1-.142-.015-.02-.033-.04-.049-.061l-.035-.041c-.015-.019-.029-.038-.045-.055-.059-.068-.12-.133-.182-.2l-.006,0c-.06-.059-.124-.111-.187-.163-.032-.028-.064-.059-.1-.085a2.615,2.615,0,0,0-.3-.2l-4.981-2.875a2.175,2.175,0,0,0-.252-.126c-.021-.008-.041-.013-.062-.021s-.042-.014-.063-.021-.054-.021-.08-.028a1.24,1.24,0,0,0-.152-.032l-.041,0-.026,0-.059-.006c-.036,0-.073,0-.108,0a.882.882,0,0,0-.1.012h-.011c-.026,0-.052.011-.077.018a.459.459,0,0,0-.08.028.538.538,0,0,0-.074.036l-.008,0-8.325,4.838a.77.77,0,0,1,.24-.087h0a.97.97,0,0,1,.269-.008l.026,0a1.386,1.386,0,0,1,.273.065.668.668,0,0,1,.064.021,2.026,2.026,0,0,1,.315.147l2.025,1.168c-.029,0-.061-.007-.091-.008a12.939,12.939,0,0,0-1.387.012q-.528.033-1.036.112l-4.4-6.752c-.02-.031-.04-.06-.06-.088s-.053-.074-.081-.109-.065-.082-.1-.121-.089-.1-.136-.146a2.244,2.244,0,0,0-.454-.349,1.641,1.641,0,0,0-.209-.1,1.414,1.414,0,0,0-.184-.064,1.25,1.25,0,0,0-.145-.031,1.125,1.125,0,0,0-.125-.013c-.038,0-.075,0-.113,0a.994.994,0,0,0-.1.013.982.982,0,0,0-.1.022.872.872,0,0,0-.093.033.912.912,0,0,0-.091.044l-.007,0-3.534,2.014-8.324,4.836,3.533-2.013.008,0a.858.858,0,0,1,.184-.077.916.916,0,0,1,.1-.023c.034,0,.069-.009.1-.012s.074,0,.113,0a1.145,1.145,0,0,1,.125.013,1.291,1.291,0,0,1,.144.031,1.617,1.617,0,0,1,.185.062,1.92,1.92,0,0,1,.209.1,2.278,2.278,0,0,1,.454.349c.046.047.092.1.136.146s.066.079.1.121.054.072.08.109.041.058.06.088l4.4,6.752q.508-.078,1.036-.112a12.926,12.926,0,0,1,1.387-.012,14.58,14.58,0,0,1,1.562.154,16.784,16.784,0,0,1,1.847.393q.425.115.857.253l6.927-4.025.176.1a2.633,2.633,0,0,1,.3.2c.033.025.064.055.1.082.064.054.128.107.188.166a3.425,3.425,0,0,1,.234.254l.034.044c.071.087.138.176.2.269l.018.026a3.522,3.522,0,0,1,.18.306l.008.016a3.093,3.093,0,0,1,.145.321l0,.007a2.793,2.793,0,0,1,.1.314l.007.028a2.029,2.029,0,0,1,.049.316l.517,6.868,8.325-4.838Z" transform="translate(-715.833 -259.007)" fill="url(#linear-gradient-22)"/>
              <path id="Path_14265" data-name="Path 14265" d="M753.624,313.876c-2.485.525-5.488-.061-8.724-1.929-8.514-4.915-15.394-16.833-15.367-26.62.013-4.431,1.444-7.658,3.792-9.414-4.057.858-6.727,4.677-6.745,10.743-.027,9.787,6.854,21.706,15.367,26.622C746.607,315.967,750.786,316,753.624,313.876Z" transform="translate(-714.974 -256.024)" fill="url(#linear-gradient-23)"/>
            </g>
            <path id="Path_14266" data-name="Path 14266" d="M716.3,284.8a3.327,3.327,0,0,0,1.258,2.532l5.707,3.907a43.117,43.117,0,0,0,2.746,9.274l-3.675,2.955c-.459.374-.367,1.429.212,2.427l3.511,6.08a3.413,3.413,0,0,0,1.166,1.255.988.988,0,0,0,.832.145l4.426-1.653a43.678,43.678,0,0,0,6.673,7.038l.513,6.866a3.328,3.328,0,0,0,1.565,2.357l4.98,2.877c.819.472,1.5.233,1.569-.548l.554-6.251a14.67,14.67,0,0,0,6.69.678l4.4,6.75a2.523,2.523,0,0,0,.829.814,1.174,1.174,0,0,0,1.173.094l3.533-2.013c.579-.329.676-1.276.221-2.177l-3.642-7.18a14.457,14.457,0,0,0,2.789-6.08l5.706,2.682c.716.337,1.266-.133,1.268-1.073l.016-5.722a3.32,3.32,0,0,0-1.258-2.532l-5.7-3.9a43.338,43.338,0,0,0-2.746-9.275l3.672-2.957c.459-.374.367-1.429-.208-2.425l-3.509-6.08A3.451,3.451,0,0,0,760.4,282.4a.988.988,0,0,0-.832-.145l-4.422,1.655a43.688,43.688,0,0,0-6.673-7.038l-.517-6.868a3.315,3.315,0,0,0-1.561-2.355l-4.98-2.875c-.819-.473-1.5-.234-1.573.546l-.551,6.252a14.656,14.656,0,0,0-6.69-.676l-4.4-6.752a2.51,2.51,0,0,0-.829-.814,1.164,1.164,0,0,0-1.169-.093l-3.533,2.013c-.582.328-.68,1.274-.226,2.175l3.647,7.182a14.4,14.4,0,0,0-2.789,6.079L717.587,278c-.713-.333-1.266.133-1.268,1.073Zm12.092,4.113c.028-9.782,6.954-13.73,15.469-8.814s15.394,16.834,15.366,26.617-6.95,13.737-15.467,8.819S728.367,298.7,728.394,288.912Z" transform="translate(-716.302 -258.282)" fill="url(#linear-gradient-24)"/>
          </g>
          <g id="Group_56539" data-name="Group 56539" transform="translate(0 0)">
            <path id="Path_14267" data-name="Path 14267" d="M694.1,235.532l-5.069,2.946a.511.511,0,0,1,.486.008l5.069-2.947A.514.514,0,0,0,694.1,235.532Z" transform="translate(-688.735 -226.475)" fill="none"/>
            <path id="Path_14268" data-name="Path 14268" d="M701.29,235.222l5.069-2.947a8.924,8.924,0,0,0-4.074-.412l-5.07,2.946A8.911,8.911,0,0,1,701.29,235.222Z" transform="translate(-687.29 -227.127)" fill="none"/>
            <path id="Path_14269" data-name="Path 14269" d="M695.12,231.4l5.069-2.946a1.535,1.535,0,0,0-.506-.5.71.71,0,0,0-.712-.056l-5.069,2.947a.707.707,0,0,1,.712.055A1.547,1.547,0,0,1,695.12,231.4Z" transform="translate(-687.875 -227.825)" fill="none"/>
            <g id="Group_56538" data-name="Group 56538" transform="translate(0.296 0)">
              <path id="Path_14270" data-name="Path 14270" d="M703.6,253.551c2.166,1.251,3.926.247,3.933-2.242a8.61,8.61,0,0,0-3.907-6.767c-2.165-1.251-3.926-.246-3.933,2.241A8.612,8.612,0,0,0,703.6,253.551Z" transform="translate(-687.15 -224.97)" fill="url(#linear-gradient-25)"/>
              <path id="Path_14271" data-name="Path 14271" d="M705.111,266.124a.5.5,0,0,1-.232.419l5.071-2.946a.507.507,0,0,0,.231-.419l.338-3.807-5.07,2.947Z" transform="translate(-686.234 -222.258)" fill="url(#linear-gradient-26)"/>
              <path id="Path_14272" data-name="Path 14272" d="M694.586,235.539l-.032-.014c-.031-.012-.06-.022-.089-.031a.68.68,0,0,0-.067-.014l-.058-.006h-.052a.319.319,0,0,0-.048.006.3.3,0,0,0-.047.011.337.337,0,0,0-.045.015l-.044.021,0,0-5.069,2.946,0,0,.044-.022.045-.015a.3.3,0,0,1,.047-.011.316.316,0,0,1,.048-.006h.052l.058.006a.677.677,0,0,1,.067.014.74.74,0,0,1,.089.032l.032.014,3.478,1.635,5.069-2.947Z" transform="translate(-689.031 -226.475)" fill="url(#linear-gradient-27)"/>
              <path id="Path_14273" data-name="Path 14273" d="M724.4,255.415v0l0-.015c-.006-.045-.013-.089-.022-.133,0-.02-.009-.04-.014-.06l-.008-.029-.007-.031c-.009-.034-.02-.069-.032-.1s-.015-.044-.022-.065l-.006-.014-.006-.015c-.011-.029-.022-.059-.035-.087s-.025-.055-.038-.082l-.008-.018-.006-.012-.025-.048c-.014-.026-.027-.051-.042-.075s-.027-.046-.041-.068v0l0,0c-.015-.025-.032-.049-.048-.073s-.036-.051-.055-.074l-.019-.023-.014-.017-.031-.039c-.027-.031-.055-.061-.085-.089l-.011-.008a1.357,1.357,0,0,0-.169-.142l-3.474-2.378c-.047-.276-.1-.554-.16-.832-.006-.029-.011-.059-.017-.088-.018-.079-.036-.158-.054-.236-.028-.125-.057-.251-.087-.376s-.056-.228-.086-.342-.065-.252-.1-.378c-.012-.042-.022-.085-.034-.127s-.022-.071-.032-.1q-.162-.575-.352-1.151l-.014-.048c-.012-.034-.026-.069-.038-.1q-.178-.528-.379-1.054l-.02-.054-.009-.025c-.094-.244-.191-.486-.292-.728l2.237-1.8a.416.416,0,0,0,.092-.109c.008-.014.013-.033.02-.048a.6.6,0,0,0,.038-.1c.006-.021.007-.046.012-.068a1.039,1.039,0,0,0,.013-.107c0-.027,0-.055,0-.082a1.025,1.025,0,0,0-.006-.118V243.6c-.006-.045-.014-.091-.023-.138v0l0-.009c-.008-.034-.015-.068-.026-.1s-.02-.071-.032-.106v-.008c-.011-.029-.021-.06-.033-.089s-.025-.064-.039-.1l-.013-.029-.008-.018-.021-.046c-.015-.031-.031-.061-.047-.092s-.029-.054-.045-.081l-2.138-3.7-.006-.011c-.019-.032-.038-.064-.058-.094s-.041-.064-.062-.094l-.029-.039-.014-.02-.028-.038c-.028-.036-.057-.071-.085-.1-.013-.015-.027-.028-.04-.042l-.034-.036-.039-.041c-.028-.028-.058-.052-.087-.076s-.036-.034-.055-.049a1.346,1.346,0,0,0-.175-.122.945.945,0,0,0-.12-.06l-.009,0-.025-.009c-.021-.007-.041-.015-.061-.021l-.044-.008-.014,0-.012,0a.486.486,0,0,0-.056-.006h-.052l-.044,0-.041.009-.028.009-2.694,1.008-.127-.166-.149-.186c-.093-.119-.186-.236-.281-.353l-.219-.266-.286-.338-.1-.119c-.032-.036-.066-.072-.1-.108-.16-.182-.321-.36-.485-.536l-.141-.154q-.31-.33-.628-.646l-.039-.04-.1-.1q-.266-.261-.538-.511l-.187-.172c-.226-.2-.453-.4-.684-.6l-5.069,2.946c.231.193.458.393.684.6.062.055.125.113.186.171.181.167.361.336.539.511l.141.136q.318.316.627.646c.048.051.1.1.142.154.163.176.325.354.484.536.067.075.133.151.2.228.1.111.191.224.285.336.073.088.147.176.22.266.1.116.188.235.282.354s.185.233.275.352l2.694-1.009a.394.394,0,0,1,.113-.024h0a.5.5,0,0,1,.118.007l.015,0a.747.747,0,0,1,.1.031l.025.008a1,1,0,0,1,.129.062,1.438,1.438,0,0,1,.175.122c.019.015.038.033.055.049.042.036.085.075.126.118l.034.036c.052.058.1.118.153.184l.014.021a2.659,2.659,0,0,1,.155.236l2.138,3.7c.041.073.079.146.112.219l.009.019c.032.072.06.144.083.214l0,0a2.182,2.182,0,0,1,.059.211l0,.009c.012.059.02.114.026.171,0,.04,0,.078.006.116s0,.056,0,.082a1,1,0,0,1-.014.107c0,.024-.006.047-.011.068a.485.485,0,0,1-.039.1.464.464,0,0,1-.02.048.412.412,0,0,1-.091.109l-2.236,1.8c.1.242.2.485.292.728.009.026.019.053.029.079.134.351.26.7.379,1.055.016.051.035.1.052.151q.19.574.352,1.149c.021.078.045.155.066.233.034.127.066.253.1.379s.058.227.086.341.059.253.087.38c.024.107.048.214.071.321.059.278.113.555.16.833l3.473,2.378a1.2,1.2,0,0,1,.171.141,1.754,1.754,0,0,1,.126.137l.014.018a1.834,1.834,0,0,1,.124.172l0,0a2.152,2.152,0,0,1,.107.192l.007.013c.032.065.061.133.087.2l.006.015c.024.065.044.131.061.2l.007.029a1.616,1.616,0,0,1,.038.193l0,.015a1.491,1.491,0,0,1,.015.215v.032l-4.258,2.474a8.8,8.8,0,0,1-1.7,3.7l2.219,4.373a1.728,1.728,0,0,1,.085.2l0,.012a1.792,1.792,0,0,1,.055.2v.012a1.05,1.05,0,0,1,.018.133,1.25,1.25,0,0,1,.006.2c0,.012,0,.024,0,.035a.908.908,0,0,1-.044.2.3.3,0,0,1-.02.048.643.643,0,0,1-.069.128c-.011.014-.02.029-.032.044a.539.539,0,0,1-.139.119l5.069-2.946a.522.522,0,0,0,.139-.12.364.364,0,0,0,.032-.042.638.638,0,0,0,.071-.128c.006-.016.014-.031.02-.048a.852.852,0,0,0,.042-.2c0-.011,0-.022,0-.034a1.242,1.242,0,0,0,0-.2c0-.012,0-.021,0-.033,0-.033-.01-.067-.018-.1v-.018c-.006-.029-.014-.06-.022-.089s-.015-.053-.023-.079l-.008-.021,0-.012-.014-.039c-.009-.022-.018-.045-.028-.067a.636.636,0,0,0-.029-.065l-.014-.029-2.219-4.374a7.658,7.658,0,0,0,.881-1.392l0,1.616a.728.728,0,0,1-.286.662l5.071-2.946a.455.455,0,0,0,.118-.1.863.863,0,0,0,.167-.561l.011-3.486A1.62,1.62,0,0,0,724.4,255.415Z" transform="translate(-686.136 -226.568)" fill="url(#linear-gradient-28)"/>
              <path id="Path_14274" data-name="Path 14274" d="M712.545,232.019l-.007-.065q-.007-.053-.018-.106l-.006-.022,0-.016-.01-.047c-.008-.026-.015-.053-.025-.079s-.015-.045-.024-.066v-.008c-.009-.025-.02-.048-.029-.072s-.022-.048-.033-.072l-.025-.048,0-.009-.007-.014c-.013-.025-.027-.049-.041-.074s-.031-.051-.047-.075l-.015-.024-.011-.015-.027-.041-.064-.087-.031-.036-.021-.026-.028-.034c-.035-.041-.073-.08-.111-.119l0,0c-.036-.035-.075-.067-.114-.1-.02-.016-.038-.035-.059-.052a1.793,1.793,0,0,0-.184-.124l-3.034-1.752a1.321,1.321,0,0,0-.153-.076l-.039-.013-.038-.013a.41.41,0,0,0-.049-.016.717.717,0,0,0-.092-.02l-.026,0-.015,0-.035,0a.631.631,0,0,0-.067,0,.482.482,0,0,0-.059.007h-.007a.321.321,0,0,0-.046.011.35.35,0,0,0-.049.018c-.015.006-.031.014-.045.021l0,0-5.071,2.946a.471.471,0,0,1,.146-.053h0a.585.585,0,0,1,.165,0h.015a.821.821,0,0,1,.166.039l.039.013a1.316,1.316,0,0,1,.192.089l1.233.712c-.018,0-.036,0-.054,0a7.754,7.754,0,0,0-.845.007c-.215.014-.425.036-.632.068l-2.681-4.112-.036-.054q-.025-.035-.049-.067l-.06-.073c-.027-.032-.055-.061-.083-.089a1.394,1.394,0,0,0-.277-.213,1.063,1.063,0,0,0-.127-.064.891.891,0,0,0-.112-.038c-.031-.008-.06-.014-.088-.019a.589.589,0,0,0-.077-.008h-.068a.574.574,0,0,0-.063.007.555.555,0,0,0-.06.014.459.459,0,0,0-.056.02.465.465,0,0,0-.055.027l0,0-2.152,1.227-5.07,2.946,2.152-1.226,0,0,.054-.027c.019-.007.038-.014.058-.02a.5.5,0,0,1,.06-.014.519.519,0,0,1,.064-.007.652.652,0,0,1,.068,0c.025,0,.051,0,.076.007a.823.823,0,0,1,.087.019.846.846,0,0,1,.113.038,1.285,1.285,0,0,1,.127.064,1.39,1.39,0,0,1,.276.214c.028.027.056.058.083.088l.06.073.049.067.036.054,2.681,4.112q.309-.048.631-.068a7.757,7.757,0,0,1,.845-.007,9,9,0,0,1,.952.094,10.245,10.245,0,0,1,1.126.239c.172.047.346.1.521.155l4.219-2.452.108.062a1.64,1.64,0,0,1,.184.125c.02.015.039.034.058.051.039.032.079.065.115.1s.1.1.141.155l.022.026c.042.053.084.108.121.165l.011.015c.04.061.077.124.109.186l.006.011c.033.065.062.131.088.2v0a1.554,1.554,0,0,1,.059.192l0,.016a1.126,1.126,0,0,1,.029.193l.315,4.182,5.07-2.946Z" transform="translate(-688.494 -227.825)" fill="url(#linear-gradient-29)"/>
              <path id="Path_14275" data-name="Path 14275" d="M711.509,261.241a7.631,7.631,0,0,1-5.313-1.175c-5.185-2.993-9.375-10.252-9.358-16.213.007-2.7.879-4.664,2.308-5.733-2.469.522-4.1,2.848-4.107,6.542-.016,5.961,4.174,13.219,9.359,16.213C707.236,262.514,709.78,262.533,711.509,261.241Z" transform="translate(-687.971 -226.008)" fill="url(#linear-gradient-30)"/>
            </g>
            <path id="Path_14276" data-name="Path 14276" d="M688.779,243.533a2.026,2.026,0,0,0,.766,1.541l3.477,2.38a26.287,26.287,0,0,0,1.672,5.648l-2.239,1.8c-.279.227-.222.871.129,1.478l2.138,3.7a2.091,2.091,0,0,0,.711.766.607.607,0,0,0,.506.088l2.7-1.007a26.619,26.619,0,0,0,4.064,4.286l.313,4.181a2.028,2.028,0,0,0,.952,1.435L707,271.584c.5.287.914.142.955-.334l.338-3.806a8.939,8.939,0,0,0,4.074.412l2.679,4.111a1.534,1.534,0,0,0,.506.5.718.718,0,0,0,.714.058l2.152-1.227c.353-.2.412-.776.135-1.325l-2.219-4.373a8.8,8.8,0,0,0,1.7-3.7l3.475,1.633c.436.2.771-.08.772-.653l.011-3.486a2.018,2.018,0,0,0-.767-1.541l-3.473-2.378a26.4,26.4,0,0,0-1.672-5.649l2.237-1.8c.279-.227.222-.869-.127-1.477l-2.138-3.7a2.112,2.112,0,0,0-.713-.767.607.607,0,0,0-.506-.088l-2.694,1.009a26.641,26.641,0,0,0-4.064-4.287l-.315-4.182a2.018,2.018,0,0,0-.949-1.434l-3.034-1.752c-.5-.287-.915-.142-.958.333l-.335,3.808a8.911,8.911,0,0,0-4.074-.413l-2.681-4.112a1.548,1.548,0,0,0-.506-.5.707.707,0,0,0-.712-.055l-2.152,1.226c-.355.2-.414.775-.138,1.324l2.221,4.374a8.762,8.762,0,0,0-1.7,3.7l-3.478-1.635c-.434-.2-.771.08-.772.653Zm7.365,2.5c.016-5.958,4.235-8.361,9.42-5.368s9.375,10.253,9.359,16.211-4.233,8.365-9.42,5.371S696.127,252,696.144,246.037Z" transform="translate(-688.779 -227.383)" fill="url(#linear-gradient-31)"/>
          </g>
        </g>
        <g id="Group_56545" data-name="Group 56545" transform="translate(85.327)">
          <g id="Group_56541" data-name="Group 56541" transform="translate(0.067)">
            <path id="Path_14277" data-name="Path 14277" d="M590.944,111.738l-.005,1.865,71.372,41.207.005-1.865Z" transform="translate(-590.939 -111.738)" fill="#8dfff9"/>
          </g>
          <g id="Group_56542" data-name="Group 56542" transform="translate(0.022 15.748)">
            <path id="Path_14278" data-name="Path 14278" d="M590.906,125.123l-.005,1.86,59.057,34.1.005-1.86Z" transform="translate(-590.901 -125.123)" fill="#8dfff9"/>
          </g>
          <g id="Group_56543" data-name="Group 56543" transform="translate(0 23.616)">
            <path id="Path_14279" data-name="Path 14279" d="M590.887,131.811l-.005,1.865,45.051,26.01.005-1.865Z" transform="translate(-590.882 -131.811)" fill="#8dfff9"/>
          </g>
          <g id="Group_56544" data-name="Group 56544" transform="translate(0.045 7.874)">
            <path id="Path_14280" data-name="Path 14280" d="M590.925,118.431l-.005,1.86L662.292,161.5l.005-1.86Z" transform="translate(-590.92 -118.431)" fill="#8dfff9"/>
          </g>
        </g>
        <g id="Group_56549" data-name="Group 56549" transform="translate(244.697 130.693)" style="mix-blend-mode: overlay;isolation: isolate">
          <g id="Group_56546" data-name="Group 56546" transform="translate(23.533)">
            <path id="Path_14281" data-name="Path 14281" d="M746.427,222.825l-.079,27.957,8.609,4.97.079-27.958Z" transform="translate(-746.347 -222.825)" fill="#8dfff9"/>
          </g>
          <g id="Group_56547" data-name="Group 56547" transform="translate(11.721 6.582)">
            <path id="Path_14282" data-name="Path 14282" d="M736.348,228.42,736.306,243l8.609,4.97.042-14.58Z" transform="translate(-736.306 -228.42)" fill="#8dfff9"/>
          </g>
          <g id="Group_56548" data-name="Group 56548" transform="translate(0 4.729)">
            <path id="Path_14283" data-name="Path 14283" d="M726.371,226.844l-.027,9.552,8.609,4.97.027-9.552Z" transform="translate(-726.344 -226.844)" fill="#8dfff9"/>
          </g>
        </g>
      </g>
      <g id="Group_56582" data-name="Group 56582" transform="translate(579.648 128.509)">
        <g id="Group_56553" data-name="Group 56553">
          <g id="Group_56551" data-name="Group 56551" transform="translate(0 205.387)">
            <path id="Path_14284" data-name="Path 14284" d="M746.839,342.584c7.858,4.537,7.9,11.894.092,16.431l-70.836,41.165c-7.806,4.536-20.507,4.536-28.365,0l-71.3-41.165c-7.857-4.535-7.9-11.893-.092-16.43l70.836-41.165c7.806-4.537,20.507-4.537,28.365,0Z" transform="translate(-570.443 -298.018)" fill="url(#linear-gradient-32)"/>
            <path id="Path_14285" data-name="Path 14285" d="M752.754,343.3c-.006.1-.012.2-.022.3s-.02.176-.033.264-.028.2-.047.3-.035.178-.055.267-.045.194-.071.291-.051.178-.079.266-.061.194-.1.291-.064.173-.1.259c-.041.1-.083.2-.128.3-.038.085-.078.169-.119.254-.049.1-.1.2-.155.3-.044.081-.088.162-.135.242-.069.12-.144.239-.22.357-.046.072-.091.143-.14.214-.089.131-.186.26-.284.389-.042.056-.081.112-.126.168-.162.2-.336.406-.52.607-.047.051-.1.1-.147.153-.146.152-.3.3-.454.452-.072.068-.145.135-.219.2-.094.085-.191.168-.289.252s-.182.154-.277.231-.207.164-.314.246-.2.149-.3.224-.225.159-.34.239-.211.145-.319.215-.241.154-.365.231c-.153.1-.3.192-.465.285l-70.836,41.165c-.434.253-.889.486-1.353.711-.121.059-.245.117-.368.173-.419.194-.846.378-1.285.549-.058.022-.112.047-.169.068-.469.179-.952.34-1.44.494-.339.107-.687.2-1.034.3-.262.071-.521.147-.787.212-.365.088-.739.162-1.111.238-.269.054-.535.115-.807.164-.113.02-.228.035-.341.054-.459.075-.922.141-1.387.2-.135.016-.271.034-.407.048q-.81.088-1.628.137l-.3.015c-.366.019-.733.024-1.1.031s-.734.009-1.1,0c-.306,0-.612-.013-.918-.025-.34-.014-.679-.032-1.018-.055-.309-.021-.619-.047-.926-.077q-.5-.049-1-.113-.45-.056-.9-.126c-.358-.055-.712-.119-1.064-.185-.369-.071-.739-.141-1.1-.224l-.261-.059c-.512-.122-1.015-.259-1.512-.406-.141-.042-.281-.087-.422-.132q-.62-.194-1.219-.416c-.117-.042-.234-.082-.348-.127-.365-.141-.716-.3-1.068-.453-.171-.076-.348-.146-.515-.225-.506-.24-1-.5-1.472-.768l-71.3-41.165c-3.954-2.282-5.928-5.28-5.92-8.272l-.067,19.974c-.008,2.993,1.967,5.991,5.92,8.273l71.3,41.165c.473.273.966.527,1.472.767.167.08.345.149.515.225.3.134.6.272.906.394.053.021.108.039.162.06.114.044.232.085.348.127q.6.222,1.219.416c.141.045.281.089.422.132.1.027.187.06.284.087.4.115.814.219,1.228.318.086.021.174.04.261.059.2.046.4.094.6.136.165.034.334.055.5.087.353.067.706.129,1.063.185.142.022.282.054.426.074s.314.033.471.053c.333.042.666.08,1,.112.16.015.318.04.478.054s.3.013.449.024q.508.035,1.017.054c.171.007.34.024.511.027.136,0,.273,0,.408,0,.367,0,.733,0,1.1-.006.182,0,.365,0,.547,0s.369-.019.554-.028c.1,0,.2-.008.3-.014.458-.027.915-.06,1.369-.106.087-.008.173-.021.26-.031l.407-.048c.466-.056.927-.121,1.387-.2.113-.019.228-.035.341-.055.054-.009.109-.015.164-.026.218-.039.428-.094.645-.138.372-.075.744-.148,1.11-.238.266-.064.526-.14.788-.212.347-.094.694-.188,1.033-.3.073-.022.149-.039.221-.062.414-.134.819-.279,1.219-.431.058-.022.112-.047.169-.069.439-.171.866-.355,1.285-.548.123-.058.247-.114.368-.173.464-.225.919-.459,1.353-.712l70.836-41.165.245-.145c.077-.046.146-.093.22-.139.123-.076.246-.153.363-.231s.215-.145.321-.218.228-.156.338-.236.2-.149.3-.225.211-.162.312-.245.187-.154.279-.232.194-.167.287-.251c.039-.035.081-.069.12-.1s.065-.067.1-.1q.236-.222.453-.451c.049-.052.1-.1.148-.154.184-.2.358-.4.52-.607l.022-.026c.038-.047.068-.1.1-.143.1-.128.193-.257.282-.387.049-.072.094-.144.14-.215.077-.118.151-.237.22-.355.019-.033.041-.065.06-.1.027-.049.049-.1.075-.147q.081-.15.155-.3c.041-.085.081-.169.119-.254q.067-.152.128-.3c.018-.046.04-.091.057-.137s.026-.082.041-.122c.034-.1.066-.194.1-.291s.054-.178.079-.266.048-.194.071-.292c.012-.053.028-.106.039-.159.007-.035.009-.072.016-.107.019-.1.033-.2.047-.3s.025-.175.033-.264.017-.2.022-.3c0-.059.011-.118.013-.177s0-.118,0-.176l.067-19.974C752.77,343.066,752.76,343.183,752.754,343.3Z" transform="translate(-570.453 -290.108)" fill="url(#linear-gradient-33)"/>
          </g>
          <g id="Group_56552" data-name="Group 56552" transform="translate(25.872 206.33)">
            <path id="Path_14286" data-name="Path 14286" d="M722.661,331.721c5.8,3.349,5.832,8.78.068,12.13l-52.295,30.391c-5.762,3.348-15.139,3.348-20.94,0L596.856,343.85c-5.8-3.348-5.831-8.78-.068-12.13l52.295-30.39c5.764-3.349,15.14-3.349,20.941,0Z" transform="translate(-592.436 -298.819)" fill="url(#linear-gradient-32)"/>
            <path id="Path_14287" data-name="Path 14287" d="M727.028,332.25c0,.074-.009.148-.016.224s-.015.129-.025.194-.021.148-.034.221-.027.132-.041.2-.033.144-.053.215-.036.132-.058.2-.045.144-.071.214-.047.128-.072.192-.061.149-.1.224-.056.126-.087.187-.075.149-.115.224-.065.119-.1.179c-.052.088-.107.175-.162.262-.034.053-.067.106-.1.159-.066.1-.138.192-.209.287-.032.041-.06.082-.093.124q-.18.228-.384.448c-.035.038-.073.075-.109.113-.107.113-.219.224-.335.334-.053.051-.106.1-.161.149s-.141.125-.214.187-.134.114-.2.169-.153.121-.232.181-.146.111-.22.166-.166.118-.251.175-.155.107-.236.16-.178.114-.268.171c-.113.071-.225.141-.344.209L670.442,368.4c-.32.186-.657.359-1,.524-.089.044-.18.086-.272.128-.309.144-.625.279-.948.4l-.126.052c-.346.132-.7.251-1.062.365-.25.079-.507.148-.763.218-.193.053-.385.108-.581.156-.269.065-.545.12-.82.175-.2.04-.394.086-.6.12-.084.015-.168.027-.253.041q-.508.083-1.023.145c-.1.012-.2.025-.3.035q-.6.065-1.2.1l-.223.011c-.271.014-.541.018-.812.022s-.541.008-.813,0c-.226,0-.452-.011-.676-.019q-.378-.016-.752-.04c-.229-.016-.456-.035-.685-.058-.247-.024-.494-.052-.739-.082-.222-.028-.442-.06-.662-.094q-.4-.062-.785-.136c-.273-.052-.546-.1-.814-.165l-.193-.044c-.378-.089-.749-.191-1.115-.3-.1-.032-.208-.065-.312-.1q-.459-.143-.9-.307c-.085-.032-.172-.061-.256-.094-.269-.1-.528-.22-.788-.335-.126-.055-.256-.107-.381-.165-.373-.178-.736-.366-1.086-.567l-52.637-30.391c-2.919-1.685-4.377-3.9-4.371-6.107l-.049,14.747c-.006,2.209,1.452,4.422,4.371,6.107l52.637,30.39c.349.2.713.389,1.086.567.125.059.255.109.381.166.221.1.44.2.668.291.039.015.08.028.12.045.085.032.172.061.256.093q.443.164.9.308c.1.032.207.066.312.1.069.021.138.045.208.065.3.086.6.162.907.235l.193.044c.148.033.3.069.445.1.121.025.247.041.369.065q.39.074.785.136c.106.016.208.039.314.054s.232.025.348.039c.245.032.492.059.739.082.118.012.234.031.353.04s.221.009.332.018q.374.026.751.04c.126,0,.251.018.376.02.1,0,.2,0,.3,0,.272,0,.541,0,.812,0,.135,0,.269,0,.4,0s.274-.013.411-.02l.222-.012c.338-.02.675-.043,1.011-.078.064-.006.127-.015.192-.022l.3-.036q.515-.062,1.024-.145l.253-.04.12-.019c.161-.029.316-.069.476-.1.274-.055.549-.109.819-.175.2-.047.388-.1.581-.156.256-.069.513-.139.763-.218.054-.016.111-.029.164-.047q.457-.148.9-.318l.126-.051c.324-.127.639-.262.948-.4.092-.042.182-.085.272-.128.342-.166.678-.338,1-.525l52.295-30.391.181-.106c.055-.034.107-.069.162-.1.091-.056.181-.113.268-.169s.159-.107.237-.16.168-.116.249-.176.149-.109.221-.166.156-.119.231-.18.139-.114.206-.171.144-.124.212-.186c.029-.026.06-.051.088-.077s.048-.049.074-.074c.116-.109.228-.22.335-.333.035-.038.074-.075.109-.114q.2-.221.384-.447l.016-.019c.027-.035.05-.072.076-.106.073-.1.144-.191.209-.287.036-.052.069-.106.1-.158.057-.088.111-.175.162-.264.014-.024.031-.047.043-.071s.037-.073.057-.108c.039-.074.078-.148.114-.222s.06-.125.087-.187.065-.149.1-.225c.013-.033.029-.066.042-.1s.019-.061.029-.091q.039-.108.071-.215c.021-.065.04-.131.058-.2s.036-.144.053-.215c.008-.039.02-.078.028-.118s.007-.053.013-.079c.013-.074.024-.148.034-.222s.018-.129.025-.194.012-.149.016-.224c0-.044.007-.087.009-.131s0-.087,0-.131l.049-14.746C727.039,332.076,727.033,332.163,727.028,332.25Z" transform="translate(-592.444 -292.98)" fill="url(#linear-gradient-33)"/>
          </g>
          <path id="Path_14288" data-name="Path 14288" d="M602.384,123.441V368.57c.06,1.769,1.279,3.524,3.613,4.861l43.528,25.139c4.8,2.765,12.547,2.765,17.319,0l43.245-25.139c2.3-1.338,3.494-3.078,3.553-4.817V123.441Z" transform="translate(-564.818 -123.441)" fill="url(#linear-gradient-36)" style="mix-blend-mode: overlay;isolation: isolate"/>
          <path id="Path_14289" data-name="Path 14289" d="M710.488,331.484c4.833,2.791,4.858,7.317.057,10.107l-43.574,25.322c-4.8,2.791-12.615,2.791-17.449,0l-43.858-25.322c-4.833-2.791-4.859-7.317-.056-10.107l43.573-25.322c4.8-2.791,12.614-2.791,17.447,0Z" transform="translate(-564.881 -91.562)" fill="#8dfff9"/>
        </g>
        <g id="Group_56554" data-name="Group 56554" transform="translate(45.459 47.211)">
          <circle id="Ellipse_734" data-name="Ellipse 734" cx="5.277" cy="5.277" r="5.277" transform="translate(76.354 157.105)" fill="url(#radial-gradient)" style="mix-blend-mode: color-dodge;isolation: isolate"/>
          <path id="Path_14290" data-name="Path 14290" d="M689.544,267.339a2.522,2.522,0,1,1-2.522-2.522A2.521,2.521,0,0,1,689.544,267.339Z" transform="translate(-595.785 -145.701)" fill="url(#radial-gradient-2)" style="mix-blend-mode: color-dodge;isolation: isolate"/>
          <path id="Path_14291" data-name="Path 14291" d="M618.515,201.767a4.711,4.711,0,1,1-4.712-4.711A4.712,4.712,0,0,1,618.515,201.767Z" transform="translate(-609.093 -157.66)" fill="url(#radial-gradient-3)" style="mix-blend-mode: color-dodge;isolation: isolate"/>
          <path id="Path_14292" data-name="Path 14292" d="M626.008,175.3a1.729,1.729,0,1,1-1.728-1.729A1.729,1.729,0,0,1,626.008,175.3Z" transform="translate(-606.718 -161.805)" fill="url(#radial-gradient-4)" style="mix-blend-mode: color-dodge;isolation: isolate"/>
          <path id="Path_14293" data-name="Path 14293" d="M670.829,166.071a2.5,2.5,0,1,1-2.5-2.5A2.5,2.5,0,0,1,670.829,166.071Z" transform="translate(-599.081 -163.57)" fill="url(#radial-gradient-5)" style="mix-blend-mode: color-dodge;isolation: isolate"/>
          <path id="Path_14294" data-name="Path 14294" d="M680.572,190.62a2.5,2.5,0,1,1-2.5-2.5A2.5,2.5,0,0,1,680.572,190.62Z" transform="translate(-597.362 -159.238)" fill="url(#radial-gradient-6)" style="mix-blend-mode: color-dodge;isolation: isolate"/>
          <path id="Path_14295" data-name="Path 14295" d="M628.7,292.881a2.515,2.515,0,1,1-2.515-2.515A2.517,2.517,0,0,1,628.7,292.881Z" transform="translate(-606.52 -141.192)" fill="url(#radial-gradient-7)" style="mix-blend-mode: color-dodge;isolation: isolate"/>
        </g>
        <g id="Group_56581" data-name="Group 56581" transform="translate(48.445 42.206)">
          <g id="Group_56556" data-name="Group 56556" transform="translate(25.513 114.903)">
            <g id="Group_56555" data-name="Group 56555" transform="translate(6.717 6.838)">
              <path id="Path_14296" data-name="Path 14296" d="M662.337,283.433c0-11.4-5.219-20.639-11.656-20.639s-11.655,9.24-11.655,20.639,11.655,52.953,11.655,52.953S662.337,294.832,662.337,283.433Z" transform="translate(-639.026 -262.794)" fill="url(#linear-gradient-37)"/>
            </g>
            <path id="Path_14297" data-name="Path 14297" d="M633.317,256.982A43.58,43.58,0,0,0,637,270.054c8.063,4.3,20.469,4.327,28.537.074a43.63,43.63,0,0,0,3.72-13.146Z" transform="translate(-633.317 -256.982)" fill="url(#linear-gradient-38)"/>
            <path id="Path_14298" data-name="Path 14298" d="M634.139,261.518c3.7,2.115,9.867,3.5,16.851,3.5,7.35,0,13.793-1.535,17.412-3.84q.235-1.043.424-2.1c-10.359,4.561-24.829,4.54-35.195-.071C633.78,259.852,633.946,260.689,634.139,261.518Z" transform="translate(-633.262 -256.624)" fill="url(#radial-gradient-8)" style="mix-blend-mode: multiply;isolation: isolate"/>
          </g>
          <g id="Group_56560" data-name="Group 56560" transform="translate(64.66 89.209)">
            <g id="Group_56559" data-name="Group 56559" style="isolation: isolate">
              <path id="Path_14299" data-name="Path 14299" d="M680.229,257.666c-.357-4.345-1.961-6.62-3.893-7.742l-2.7-1.572c1.932,1.124,3.537,3.4,3.893,7.742a1.678,1.678,0,0,0,.732,1.393l2.7,1.571A1.674,1.674,0,0,1,680.229,257.666Z" transform="translate(-665.349 -232.811)" fill="url(#linear-gradient-39)"/>
              <g id="Group_56557" data-name="Group 56557" transform="translate(2.705 1.569)">
                <path id="Path_14300" data-name="Path 14300" d="M668.89,236.585c16.451-1.932,16.147,22.284,16.132,23.558l-1.454.839c-1.307.755-2.386.214-2.5-1.22-.989-12.051-11.575-8.177-12.132-7.972Z" transform="translate(-668.89 -236.476)" fill="url(#linear-gradient-40)"/>
              </g>
              <path id="Path_14301" data-name="Path 14301" d="M674.262,236.638l-.108-.062c-.027-.015-.054-.028-.081-.042-.128-.072-.259-.14-.392-.207l-.129-.065c-.168-.081-.338-.16-.512-.233l-.019-.008c-.025-.011-.051-.019-.074-.029-.139-.056-.279-.111-.421-.161-.053-.02-.107-.039-.161-.058q-.2-.069-.406-.131l-.1-.031-.04-.011c-.179-.052-.361-.1-.547-.144l-.112-.024c-.152-.034-.306-.065-.462-.093-.028,0-.055-.012-.084-.018l-.1-.013c-.151-.025-.3-.047-.456-.067l-.149-.019c-.2-.022-.4-.041-.612-.055l-.031,0-.088,0c-.187-.011-.375-.018-.567-.02l-.185,0c-.231,0-.462,0-.7.014h0c-.115,0-.233.014-.349.022-.071,0-.14.008-.212.014-.191.015-.382.034-.578.058l2.7,1.571c.194-.022.387-.041.576-.058l.208-.013c.119-.008.239-.018.355-.022.236-.012.469-.014.7-.014l.186,0c.191,0,.38.008.566.019l.119.006c.208.014.412.032.612.055l.149.019c.154.02.306.041.456.066.061.011.121.02.181.032.155.028.309.059.461.093l.112.024c.186.044.368.092.548.144l.138.041c.136.041.272.085.4.131l.162.056q.214.078.42.162l.093.038c.174.073.345.152.513.233l.129.065c.132.066.262.135.392.207.062.034.127.068.189.1Z" transform="translate(-666.591 -235.142)" fill="url(#linear-gradient-41)"/>
              <g id="Group_56558" data-name="Group 56558" transform="translate(0.001 0.108)">
                <path id="Path_14302" data-name="Path 14302" d="M669.339,252.009l-2.7-1.571-.043-15.2,2.7,1.572Z" transform="translate(-666.591 -235.234)" fill="url(#linear-gradient-42)"/>
              </g>
            </g>
          </g>
          <g id="Group_56563" data-name="Group 56563" transform="translate(0 89.317)">
            <g id="Group_56562" data-name="Group 56562" style="isolation: isolate">
              <path id="Path_14303" data-name="Path 14303" d="M615.106,257.666c.358-4.345,1.961-6.62,3.894-7.742l2.7-1.572c-1.932,1.124-3.536,3.4-3.893,7.742a1.678,1.678,0,0,1-.732,1.393l-2.7,1.571A1.674,1.674,0,0,0,615.106,257.666Z" transform="translate(-611.147 -232.918)" fill="url(#linear-gradient-43)"/>
              <path id="Path_14304" data-name="Path 14304" d="M627.765,236.585c-16.45-1.932-16.147,22.284-16.132,23.558l1.454.839c1.308.755,2.386.214,2.5-1.22.989-12.051,11.576-8.177,12.133-7.972Z" transform="translate(-611.631 -235.014)" fill="url(#linear-gradient-44)"/>
              <g id="Group_56561" data-name="Group 56561" transform="translate(16.092)">
                <path id="Path_14305" data-name="Path 14305" d="M625.309,252.009l2.7-1.571.043-15.2-2.7,1.572Z" transform="translate(-625.309 -235.234)" fill="url(#linear-gradient-45)"/>
              </g>
            </g>
          </g>
          <path id="Path_14306" data-name="Path 14306" d="M683.541,248.839a74.632,74.632,0,0,1-6.588,25.466c-13.447,7.09-34.125,7.051-47.565-.124a74.661,74.661,0,0,1-6.538-25.443c-1.554-17.81,2.049-36.309,7.254-50.924a113.963,113.963,0,0,1,4.868-11.663c6.978-14.3,14.768-24.405,17.346-26.523a1.384,1.384,0,0,1,1.754,0c2.578,2.118,10.375,12.225,17.354,26.523a112.913,112.913,0,0,1,4.894,11.744C681.522,212.525,685.112,231.029,683.541,248.839Z" transform="translate(-609.715 -159.316)" fill="url(#linear-gradient-46)"/>
          <path id="Path_14307" data-name="Path 14307" d="M672.465,191.772c-.825-1.977-1.674-3.855-2.535-5.62-6.979-14.3-14.777-24.405-17.354-26.523a1.384,1.384,0,0,0-1.754,0c-2.578,2.118-10.368,12.225-17.346,26.523q-1.278,2.619-2.507,5.553C643.2,197.126,660.251,197.15,672.465,191.772Z" transform="translate(-608.218 -159.316)" fill="url(#linear-gradient-47)"/>
          <path id="Path_14308" data-name="Path 14308" d="M652.1,159.377a230.559,230.559,0,0,0-10.688,35.48,46.835,46.835,0,0,1-10.446-3.151c.266-.641.542-1.271.807-1.889.354-.8.707-1.581,1.061-2.344.221-.442.432-.885.641-1.326,6.986-14.292,14.767-24.406,17.353-26.517a1.4,1.4,0,0,1,1.073-.3A1.231,1.231,0,0,1,652.1,159.377Z" transform="translate(-608.219 -159.315)" fill="url(#linear-gradient-48)"/>
          <path id="Path_14309" data-name="Path 14309" d="M653.591,159.382a1.375,1.375,0,0,0-1.273.246c-2.578,2.118-10.368,12.225-17.346,26.523a113.963,113.963,0,0,0-4.868,11.663c-5.2,14.615-8.808,33.115-7.254,50.924a74.662,74.662,0,0,0,6.538,25.443,45.938,45.938,0,0,0,13.326,4.452C628.907,226.788,648.349,172.515,653.591,159.382Z" transform="translate(-609.715 -159.315)" fill="#fff" opacity="0.38" style="mix-blend-mode: multiply;isolation: isolate"/>
          <path id="Path_14310" data-name="Path 14310" d="M637.852,230.8a64.1,64.1,0,0,1-15.21-4.742c-.033-.475-.055-.951-.067-1.436a.021.021,0,0,1,0-.033c.022-.729.055-1.459.111-2.188a59.381,59.381,0,0,0,15.154,5.028v.012C637.829,228.558,637.84,229.674,637.852,230.8Z" transform="translate(-609.701 -148.182)" fill="#0031ba" opacity="0.53" style="mix-blend-mode: multiply;isolation: isolate"/>
          <path id="Path_14311" data-name="Path 14311" d="M638.184,237.748a64.284,64.284,0,0,1-15.53-4.8c-.078-1.2-.121-2.421-.155-3.637v-.122a59,59,0,0,0,15.5,5.162C638.051,235.482,638.106,236.611,638.184,237.748Z" transform="translate(-609.713 -146.983)" fill="#0031ba" opacity="0.53" style="mix-blend-mode: multiply;isolation: isolate"/>
          <g id="Group_56566" data-name="Group 56566" transform="translate(5.318 96.484)">
            <path id="Path_14312" data-name="Path 14312" d="M618.332,292.209c-.028-1.513-.557-30.279,19.283-50.883l-3.448.129s-18.1,16.55-18.014,49.489Z" transform="translate(-616.152 -241.326)" fill="url(#linear-gradient-49)"/>
            <g id="Group_56565" data-name="Group 56565" transform="translate(2.175 0.001)">
              <g id="Group_56564" data-name="Group 56564">
                <path id="Path_14313" data-name="Path 14313" d="M637.29,241.327c-19.841,20.6-19.311,49.369-19.283,50.883l1.758-1.014a6.751,6.751,0,0,0,3.008-4.96c1.109-15.9,15.478-27.133,16.151-27.664Z" transform="translate(-618.001 -241.327)" fill="url(#linear-gradient-50)"/>
              </g>
            </g>
          </g>
          <g id="Group_56569" data-name="Group 56569" transform="translate(56.357 96.484)">
            <path id="Path_14314" data-name="Path 14314" d="M680.207,292.209c.027-1.513.556-30.279-19.283-50.883l3.448.129s18.1,16.55,18.014,49.489Z" transform="translate(-659.289 -241.326)" fill="url(#linear-gradient-51)"/>
            <g id="Group_56568" data-name="Group 56568" transform="translate(0 0.001)">
              <g id="Group_56567" data-name="Group 56567">
                <path id="Path_14315" data-name="Path 14315" d="M661.168,241.327c19.842,20.6,19.311,49.369,19.283,50.883l-1.758-1.014a6.75,6.75,0,0,1-3.008-4.96c-1.109-15.9-15.478-27.133-16.151-27.664Z" transform="translate(-659.534 -241.327)" fill="url(#linear-gradient-52)"/>
              </g>
            </g>
          </g>
          <g id="Group_56573" data-name="Group 56573" transform="translate(20.323 45.47)">
            <g id="Group_56570" data-name="Group 56570" transform="translate(0 1.344)">
              <path id="Path_14316" data-name="Path 14316" d="M639.425,200.546c5.789,3.342,10.471,11.445,10.452,18.1s-4.731,9.333-10.52,5.991-10.471-11.446-10.452-18.1S633.636,197.2,639.425,200.546Z" transform="translate(-628.905 -199.107)" fill="url(#linear-gradient-3)"/>
            </g>
            <g id="Group_56571" data-name="Group 56571" transform="translate(2.398 4.427)">
              <path id="Path_14317" data-name="Path 14317" d="M639.058,202.837c4.465,2.579,8.075,8.828,8.061,13.964s-3.648,7.2-8.114,4.62-8.077-8.828-8.062-13.959S634.592,200.26,639.058,202.837Z" transform="translate(-630.943 -201.728)" fill="url(#linear-gradient-54)"/>
            </g>
            <g id="Group_56572" data-name="Group 56572" transform="translate(2.869 5.693)">
              <path id="Path_14318" data-name="Path 14318" d="M643.129,206.353l-9.514,9.507a18.809,18.809,0,0,1-2.271-5.157l7.9-7.9A15.056,15.056,0,0,1,643.129,206.353Z" transform="translate(-631.344 -202.804)" fill="url(#linear-gradient-55)"/>
              <path id="Path_14319" data-name="Path 14319" d="M646.089,212.527l-7.821,7.821a14.694,14.694,0,0,1-3.918-3.517l9.494-9.494A18.63,18.63,0,0,1,646.089,212.527Z" transform="translate(-630.813 -202.004)" fill="url(#linear-gradient-56)"/>
            </g>
            <path id="Path_14320" data-name="Path 14320" d="M651.724,217.034c0-.168-.013-.338-.023-.508-.006-.076-.013-.154-.019-.232l-.008-.1c0-.059-.008-.118-.014-.178-.016-.171-.035-.342-.056-.514s-.048-.351-.075-.527l0-.015,0-.018c-.027-.166-.055-.331-.086-.5-.034-.182-.072-.365-.111-.547l-.046-.194-.026-.114c-.02-.08-.036-.16-.057-.241-.046-.185-.1-.371-.147-.556-.036-.135-.078-.271-.118-.406l-.022-.074-.021-.074c-.055-.18-.113-.361-.174-.541s-.121-.356-.186-.535c-.012-.033-.025-.065-.038-.1l-.029-.081c-.042-.112-.082-.222-.126-.334q-.1-.256-.2-.509c-.051-.122-.1-.245-.158-.366l-.026-.062-.031-.072c-.075-.168-.152-.338-.231-.506q-.13-.277-.268-.553c-.014-.028-.029-.056-.044-.084s-.038-.073-.055-.109c-.075-.146-.148-.292-.226-.436-.1-.182-.2-.36-.3-.54-.051-.091-.1-.182-.153-.273-.02-.035-.039-.072-.06-.107-.092-.156-.193-.306-.288-.46-.14-.226-.276-.453-.422-.673-.023-.035-.045-.073-.068-.108q-.321-.48-.662-.944h0q-.229-.311-.466-.612-.192-.245-.392-.485l-.007-.008,0-.007q-.2-.24-.406-.474c-.134-.153-.271-.3-.407-.452l-.068-.071-.073-.076c-.1-.1-.191-.2-.288-.3q-.219-.222-.441-.436c-.046-.044-.094-.086-.14-.129s-.069-.065-.1-.1c-.073-.068-.145-.136-.218-.2-.154-.139-.309-.275-.467-.407-.068-.059-.138-.113-.207-.169l-.1-.086c-.052-.042-.1-.085-.154-.126-.153-.12-.306-.238-.46-.351-.112-.082-.225-.161-.338-.24l-.061-.044-.058-.041q-.222-.152-.446-.294c-.147-.094-.294-.185-.444-.272l-.1-.06c-.112-.065-.224-.127-.334-.187-.143-.078-.287-.152-.429-.222-.093-.046-.185-.087-.276-.131l-.067-.031c-.027-.013-.054-.027-.081-.039-.141-.064-.281-.122-.42-.178s-.282-.111-.424-.16l-.071-.024-.064-.02c-.1-.032-.191-.065-.285-.093q-.219-.067-.434-.12c-.069-.018-.136-.031-.2-.046l-.091-.02c-.045-.009-.091-.021-.134-.029-.155-.031-.308-.055-.459-.076-.093-.012-.185-.019-.276-.027-.032,0-.065-.008-.1-.011l-.094-.009c-.166-.012-.331-.016-.493-.016-.072,0-.14.007-.21.011-.054,0-.109,0-.164.007s-.114,0-.169.008a5.879,5.879,0,0,0-.6.087l-.012,0c-.042.009-.082.025-.125.034a5.419,5.419,0,0,0-.6.165l-.066.027-.094.038a5.058,5.058,0,0,0-.688.327h0l-2.312,1.345a4.849,4.849,0,0,1,.688-.327c.032-.013.062-.027.094-.039a5.374,5.374,0,0,1,.664-.192c.042-.009.082-.025.125-.034a5.838,5.838,0,0,1,.785-.1q.081-.005.162-.007a6.49,6.49,0,0,1,.8.015c.033,0,.065.007.1.011a7.773,7.773,0,0,1,.868.133l.091.02a9.305,9.305,0,0,1,.925.259l.062.02c.327.113.66.246,1,.4l.067.032c.342.159.688.336,1.039.539s.7.428,1.049.667l.062.044c.321.225.639.465.951.716.035.028.071.056.1.086q.453.371.892.779l.1.1c.3.278.585.568.868.868.025.026.049.051.073.076q.455.485.887,1l.007.009q.441.531.858,1.1h0c.253.342.5.694.731,1.052.146.22.284.447.422.673.118.189.238.375.349.568.053.089.1.181.153.272.182.322.36.647.528.976l.056.109c.2.4.393.806.572,1.214l.027.062c.174.4.337.8.487,1.209l.031.081q.229.621.419,1.248l.021.073q.18.6.321,1.2l.027.114c.094.414.176.827.241,1.238l0,.019q.1.621.149,1.233l.008.1c.032.408.049.814.048,1.213s-.021.78-.055,1.149c0,.034-.007.066-.009.1-.034.339-.082.664-.144.978l-.025.124a8.906,8.906,0,0,1-.225.872c-.016.052-.034.1-.052.153a7.631,7.631,0,0,1-.292.749c-.012.026-.022.054-.034.08a6.656,6.656,0,0,1-.421.764c-.02.032-.045.059-.065.091a6.051,6.051,0,0,1-.406.536c-.053.061-.107.119-.161.176a5.183,5.183,0,0,1-.393.381c-.056.048-.112.1-.171.147a4.977,4.977,0,0,1-.606.421h0l2.313-1.344a4.924,4.924,0,0,0,.6-.422c.059-.046.114-.1.171-.147a5,5,0,0,0,.393-.38c.054-.058.109-.115.161-.176a5.86,5.86,0,0,0,.406-.536c.021-.032.045-.059.065-.091l.015-.021a6.508,6.508,0,0,0,.4-.716l.011-.026c.013-.026.022-.054.034-.08.073-.159.143-.32.207-.489.031-.085.057-.173.086-.26.017-.051.034-.1.051-.153s.032-.092.046-.139c.052-.174.1-.352.14-.535.014-.065.026-.132.039-.2.009-.041.018-.082.026-.125.012-.064.027-.125.038-.191.028-.164.053-.329.075-.5.012-.094.02-.191.029-.287l.011-.1c0-.04.008-.079.012-.119q.02-.244.031-.494c.007-.166.011-.335.012-.506v-.031C651.731,217.349,651.729,217.191,651.724,217.034Z" transform="translate(-628.446 -197.965)" fill="url(#linear-gradient-57)"/>
            <path id="Path_14321" data-name="Path 14321" d="M643.129,206.353l-9.514,9.507a18.809,18.809,0,0,1-2.271-5.157l7.9-7.9A15.056,15.056,0,0,1,643.129,206.353Z" transform="translate(-628.474 -197.111)" fill="url(#linear-gradient-58)" style="mix-blend-mode: overlay;isolation: isolate"/>
            <path id="Path_14322" data-name="Path 14322" d="M646.089,212.527l-7.821,7.821a14.694,14.694,0,0,1-3.918-3.517l9.494-9.494A18.63,18.63,0,0,1,646.089,212.527Z" transform="translate(-627.944 -196.311)" fill="url(#linear-gradient-59)" style="mix-blend-mode: overlay;isolation: isolate"/>
          </g>
          <g id="Group_56574" data-name="Group 56574" transform="translate(22.745)">
            <path id="Path_14323" data-name="Path 14323" d="M672.465,191.772c-.825-1.977-1.674-3.855-2.535-5.62-6.979-14.3-14.777-24.405-17.354-26.523a1.384,1.384,0,0,0-1.754,0c-2.578,2.118-10.368,12.225-17.346,26.523q-1.278,2.619-2.507,5.553C643.2,197.126,660.251,197.15,672.465,191.772Z" transform="translate(-630.963 -159.316)" fill="url(#linear-gradient-60)"/>
            <path id="Path_14324" data-name="Path 14324" d="M652.1,159.377a230.559,230.559,0,0,0-10.688,35.48,46.835,46.835,0,0,1-10.446-3.151c.266-.641.542-1.271.807-1.889.354-.8.707-1.581,1.061-2.344.221-.442.432-.885.641-1.326,6.986-14.292,14.767-24.406,17.353-26.517a1.4,1.4,0,0,1,1.073-.3A1.231,1.231,0,0,1,652.1,159.377Z" transform="translate(-630.964 -159.315)" fill="#0031ba" opacity="0.53" style="mix-blend-mode: multiply;isolation: isolate"/>
          </g>
          <g id="Group_56577" data-name="Group 56577" transform="translate(12.791 73.541)">
            <g id="Group_56575" data-name="Group 56575" transform="translate(0 8.092)">
              <path id="Path_14325" data-name="Path 14325" d="M683.777,232.5c.065-1.264.1-2.528.116-3.794-8.431,4.593-19.451,7.119-31.212,7.119-11.258,0-21.86-2.314-30.178-6.54.024,1.254.076,2.507.147,3.758C640.555,241.338,666.278,241.158,683.777,232.5Z" transform="translate(-622.503 -228.703)" fill="url(#linear-gradient-3)"/>
            </g>
            <g id="Group_56576" data-name="Group 56576">
              <path id="Path_14326" data-name="Path 14326" d="M683.777,225.619c.065-1.264.1-2.528.116-3.794-8.431,4.593-19.451,7.119-31.212,7.119-11.258,0-21.86-2.314-30.178-6.54.024,1.254.076,2.507.147,3.759C640.555,234.46,666.278,234.28,683.777,225.619Z" transform="translate(-622.503 -221.825)" fill="url(#linear-gradient-3)"/>
            </g>
          </g>
          <g id="Group_56580" data-name="Group 56580" transform="translate(12.786 74.119)" opacity="0.53" style="mix-blend-mode: multiply;isolation: isolate">
            <g id="Group_56578" data-name="Group 56578" transform="translate(0 8.091)" opacity="0.4" style="mix-blend-mode: multiply;isolation: isolate">
              <path id="Path_14327" data-name="Path 14327" d="M638.184,237.748a64.284,64.284,0,0,1-15.53-4.8c-.078-1.2-.121-2.421-.155-3.637v-.122a59,59,0,0,0,15.5,5.162C638.051,235.482,638.106,236.611,638.184,237.748Z" transform="translate(-622.499 -229.193)" fill="#0031ba"/>
            </g>
            <g id="Group_56579" data-name="Group 56579">
              <path id="Path_14328" data-name="Path 14328" d="M637.864,230.816a64.1,64.1,0,0,1-15.21-4.742c-.033-.475-.055-.951-.067-1.436a.021.021,0,0,1,0-.033c-.044-.762-.066-1.526-.088-2.288l.2.1a59.382,59.382,0,0,0,15.154,5.028v.012C637.841,228.573,637.852,229.689,637.864,230.816Z" transform="translate(-622.499 -222.316)" fill="#0031ba" opacity="0.4" style="mix-blend-mode: multiply;isolation: isolate"/>
            </g>
          </g>
        </g>
      </g>
    </g>
  </g>
</svg>
