<svg xmlns="http://www.w3.org/2000/svg" xmlns:xlink="http://www.w3.org/1999/xlink" width="173" height="173" viewBox="0 0 173 173">
  <defs>
    <linearGradient id="linear-gradient" x1="0.5" x2="0.5" y2="1" gradientUnits="objectBoundingBox">
      <stop offset="0" stop-color="#98e4ff"/>
      <stop offset="1" stop-color="#f1f8fd"/>
    </linearGradient>
    <linearGradient id="linear-gradient-2" x1="-6.964" y1="60.658" x2="-7.216" y2="69.645" gradientUnits="objectBoundingBox">
      <stop offset="0" stop-color="#1f8fff"/>
      <stop offset="1" stop-color="#4042e2"/>
    </linearGradient>
    <linearGradient id="linear-gradient-4" x1="-3.932" y1="-18.847" x2="-2.748" y2="-18.847" gradientUnits="objectBoundingBox">
      <stop offset="0" stop-color="#febbba"/>
      <stop offset="1" stop-color="#ff928e"/>
    </linearGradient>
    <linearGradient id="linear-gradient-5" x1="1.023" y1="8.11" x2="2.091" y2="8.307" xlink:href="#linear-gradient-4"/>
    <linearGradient id="linear-gradient-6" x1="-5.455" y1="0.465" x2="-8.306" y2="4.571" xlink:href="#linear-gradient-4"/>
    <linearGradient id="linear-gradient-7" x1="-13.484" y1="26.388" x2="-14.611" y2="27.671" xlink:href="#linear-gradient-4"/>
    <linearGradient id="linear-gradient-8" x1="-44.865" y1="87.153" x2="-42.313" y2="84.556" xlink:href="#linear-gradient-4"/>
    <linearGradient id="linear-gradient-9" x1="-0.108" y1="0.439" x2="1.002" y2="0.564" xlink:href="#linear-gradient-4"/>
  </defs>
  <g id="Group_56584" data-name="Group 56584" transform="translate(-346 -1855)">
    <circle id="Ellipse_727" data-name="Ellipse 727" cx="86.5" cy="86.5" r="86.5" transform="translate(346 1855)" fill="url(#linear-gradient)"/>
    <g id="Group_55738" data-name="Group 55738" transform="translate(378.346 1630.075)">
      <path id="Path_14106" data-name="Path 14106" d="M502.683,533.916a33.044,33.044,0,0,1-5.056,4.257c-16.494,11.834-36.01,8.385-40.158,7.542-6.125-1.244-17.964-3.649-26.524-13.715-12.95-15.229-10.934-39.222-.889-55.06,1.837-2.9,11.543-18.976,31.27-21.555,11.938-1.561,25.855,1.587,35.932,10.03C518.413,483.138,516.907,518.942,502.683,533.916Z" transform="translate(-415.233 -189.365)" fill="#95e2ff"/>
      <g id="Group_55715" data-name="Group 55715" transform="translate(68.362 266.131)">
        <g id="Group_55713" data-name="Group 55713" transform="translate(7.602 9.179)">
          <path id="Path_14107" data-name="Path 14107" d="M2553.414,750.315a.5.5,0,0,0-.97.1c-.677,5.01-2.863,18.092-8,25.591-8.36,12.21-12.469,30.71-4.866,38.928C2539.58,814.939,2573.034,803.807,2553.414,750.315Z" transform="translate(-2535.573 -749.986)" fill="#84d0ff"/>
          <path id="Path_14108" data-name="Path 14108" d="M2713.065,971.4c.01.159.006.291.007.434l-.005.42-.019.839c-.017.559-.042,1.117-.068,1.676q-.082,1.675-.2,3.348c-.162,2.23-.384,4.456-.639,6.678s-.567,4.438-.928,6.645-.758,4.41-1.225,6.6a107.345,107.345,0,0,1-3.555,12.944c-.755,2.108-1.565,4.2-2.5,6.236a58.184,58.184,0,0,1-3.147,5.93.088.088,0,0,1-.152-.089h0a65,65,0,0,0,2.965-5.988c.892-2.042,1.664-4.133,2.381-6.242s1.346-4.248,1.928-6.4,1.073-4.326,1.553-6.5c.941-4.359,1.648-8.766,2.235-13.188q.433-3.318.736-6.652.156-1.666.278-3.335l.107-1.67.045-.835.018-.417c0-.137.01-.284.008-.4v-.02a.087.087,0,0,1,.174-.007Z" transform="translate(-2695.212 -964.056)" fill="#fff" opacity="0.43"/>
        </g>
        <g id="Group_55714" data-name="Group 55714" transform="translate(0 0)">
          <path id="Path_14109" data-name="Path 14109" d="M2307.393,470.327a.481.481,0,0,0-.861.36c.747,4.779,2.31,17.372-.352,25.65-4.335,13.478-3.057,31.565,6.158,37.027C2312.337,533.364,2339.979,514.029,2307.393,470.327Z" transform="translate(-2303.789 -470.132)" fill="#1fa9ff"/>
          <path id="Path_14110" data-name="Path 14110" d="M2467.565,670.35c.052.144.084.266.125.4l.11.386.211.774c.137.517.267,1.036.4,1.555q.382,1.558.729,3.125c.46,2.089.864,4.191,1.236,6.3s.691,4.224.962,6.347.508,4.251.677,6.386a102.773,102.773,0,0,1,.271,12.841c-.118,2.139-.291,4.277-.588,6.4a55.5,55.5,0,0,1-1.27,6.3.086.086,0,0,1-.167-.041h0a62.1,62.1,0,0,0,1.084-6.3c.261-2.116.4-4.244.48-6.373s.076-4.262.023-6.393-.2-4.26-.35-6.387c-.326-4.254-.879-8.488-1.548-12.7q-.508-3.161-1.138-6.3-.311-1.57-.655-3.135l-.357-1.561-.187-.778-.1-.388c-.034-.126-.068-.263-.1-.372l-.006-.018a.085.085,0,0,1,.161-.055Z" transform="translate(-2462.034 -663.729)" fill="#fff" opacity="0.43"/>
        </g>
      </g>
      <g id="Group_55719" data-name="Group 55719" transform="translate(-7.441 259.213)">
        <circle id="Ellipse_728" data-name="Ellipse 728" cx="36.566" cy="36.566" r="36.566" transform="translate(0 51.712) rotate(-45)" fill="#1995e3"/>
        <circle id="Ellipse_729" data-name="Ellipse 729" cx="36.566" cy="36.566" r="36.566" transform="translate(2.449 51.712) rotate(-45)" fill="#fff"/>
        <g id="Group_55716" data-name="Group 55716" transform="translate(21.391 18.941)">
          <circle id="Ellipse_730" data-name="Ellipse 730" cx="31.208" cy="31.208" r="31.208" transform="translate(1.563 1.563)" fill="#1fa9ff"/>
          <path id="Path_14111" data-name="Path 14111" d="M677.53,902.275A32.771,32.771,0,1,1,710.3,869.5,32.808,32.808,0,0,1,677.53,902.275Zm0-63.979A31.208,31.208,0,1,0,708.737,869.5,31.243,31.243,0,0,0,677.53,838.3Z" transform="translate(-644.759 -836.733)" fill="#fff"/>
        </g>
        <g id="Group_55717" data-name="Group 55717" transform="translate(27.255 24.806)">
          <circle id="Ellipse_731" data-name="Ellipse 731" cx="19.026" cy="19.026" r="19.026" transform="translate(0 26.906) rotate(-45)" fill="#1fa9ff"/>
          <path id="Path_14112" data-name="Path 14112" d="M1036.776,1249.347a20.589,20.589,0,1,1,20.589-20.589A20.612,20.612,0,0,1,1036.776,1249.347Zm0-38.051a17.463,17.463,0,1,0,17.463,17.462A17.482,17.482,0,0,0,1036.776,1211.3Z" transform="translate(-1009.869 -1201.851)" fill="#fff"/>
        </g>
        <g id="Group_55718" data-name="Group 55718" transform="translate(43.737 41.288)">
          <circle id="Ellipse_732" data-name="Ellipse 732" cx="7.371" cy="7.371" r="7.371" transform="translate(0 10.424) rotate(-45)" fill="#1fa9ff"/>
          <path id="Path_14113" data-name="Path 14113" d="M1380.471,1581.379a8.934,8.934,0,1,1,8.934-8.934A8.944,8.944,0,0,1,1380.471,1581.379Zm0-14.743a5.808,5.808,0,1,0,5.808,5.808A5.815,5.815,0,0,0,1380.471,1566.636Z" transform="translate(-1370.047 -1562.02)" fill="#fff"/>
        </g>
      </g>
      <g id="Group_55726" data-name="Group 55726" transform="translate(46.22 309.259)">
        <g id="Group_55720" data-name="Group 55720" transform="translate(0 0)">
          <path id="Path_14114" data-name="Path 14114" d="M2900.319,2102.8l1.561,3.152-6.621-1.525a7.428,7.428,0,0,1-4.989-3.94h0Z" transform="translate(-2848.893 -2090.145)" fill="url(#linear-gradient-2)"/>
          <path id="Path_14115" data-name="Path 14115" d="M2906.964,2028.18l2.782-2.151-6.621-1.524a7.428,7.428,0,0,0-6.21,1.362h0Z" transform="translate(-2855.32 -2016.469)" fill="url(#linear-gradient-2)"/>
          <rect id="Rectangle_8888" data-name="Rectangle 8888" width="1.165" height="44.1" transform="matrix(0.224, -0.975, 0.975, 0.224, 8.556, 2.821)" fill="#00436d"/>
          <path id="Path_14116" data-name="Path 14116" d="M1639.5,1786.239c.651.15-.056,3.219-.707,3.069l-9.887-3.558a.328.328,0,0,1,.146-.635Z" transform="translate(-1628.69 -1785.113)" fill="#00436d"/>
        </g>
        <g id="Group_55725" data-name="Group 55725" transform="translate(17.142 5.012)">
          <g id="Group_55721" data-name="Group 55721" transform="translate(0 38.627)">
            <path id="Path_14117" data-name="Path 14117" d="M2155.516,3169.509a3.652,3.652,0,0,1,.554,1.829.462.462,0,0,1-.449.468l-4.063.142a.194.194,0,0,1-.124-.35,17.654,17.654,0,0,1,3.3-2.062Z" transform="translate(-2151.356 -3167.743)" fill="#00436d"/>
            <path id="Path_14118" data-name="Path 14118" d="M2250.987,3116.112l-.1,1.562a.317.317,0,0,1-.337.3,1.148,1.148,0,0,1-.374-.1.363.363,0,0,1-.211-.345l.071-1.884Z" transform="translate(-2246.727 -3115.642)" fill="url(#linear-gradient-4)"/>
          </g>
          <g id="Group_55722" data-name="Group 55722" transform="translate(24.895 33.234)">
            <path id="Path_14119" data-name="Path 14119" d="M2964.668,2954.55a3.659,3.659,0,0,1,1.9-.2.462.462,0,0,1,.374.53l-.632,4.016a.194.194,0,0,1-.367.055,17.692,17.692,0,0,1-1.4-3.635Z" transform="translate(-2962.771 -2954.204)" fill="#00436d"/>
            <path id="Path_14120" data-name="Path 14120" d="M2911.042,2951.231l1.514.4a.316.316,0,0,1,.228.386,1.136,1.136,0,0,1-.169.349.363.363,0,0,1-.379.142l-1.837-.427Z" transform="translate(-2910.399 -2951.231)" fill="#ff928e"/>
          </g>
          <path id="Path_14121" data-name="Path 14121" d="M2242.794,1939.555a1.329,1.329,0,0,1-.115-.5,1.17,1.17,0,0,0-.322-1.012.208.208,0,0,0-.192.221c-.222-.238-.233-.444-.462-.3s-1.093.67-.662,1.015,1.108,1,1.108,1Z" transform="translate(-2237.985 -1937.917)" fill="url(#linear-gradient-5)"/>
          <path id="Path_14122" data-name="Path 14122" d="M2526.034,2622.55s.769,6.136,2.97,6.37,10.633,1.452,10.633,1.452l.234-1.265s-4.871-2.951-7.776-2.9c-1.452-2.155-1.1-8.108-1.1-8.108Z" transform="translate(-2513.746 -2595.787)" fill="#00436d"/>
          <path id="Path_14123" data-name="Path 14123" d="M2295.526,1991.586c-.259,6.841-3.847,7.445-3.847,7.445v8.75h-5.06s-2.454-5.975-2.39-7.972c-3.649-1.543-5.5-10.367-5.882-11.5a6.516,6.516,0,0,0,.644-.427c4.974,7.916,6.188,9.133,6.188,9.133h2.81a7.846,7.846,0,0,0,6.729-5.619Z" transform="translate(-2274.181 -1986.246)" fill="#1fcbff"/>
          <path id="Path_14124" data-name="Path 14124" d="M2249.862,2588.667s.4,4.287-8.043,7.629c-2.061,3.84-4.764,11-4.764,11h-1.78s1.218-10.814,3.372-12.969,4.505-4.579,6.312-5.641C2249.139,2588.25,2249.862,2588.667,2249.862,2588.667Z" transform="translate(-2232.522 -2567.151)" fill="#00436d"/>
          <g id="Group_55724" data-name="Group 55724" transform="translate(10.096 3.79)">
            <path id="Path_14125" data-name="Path 14125" d="M2506.537,2169.123l.931,3.281a5.185,5.185,0,0,1-2.769.624l-.323-2.892Z" transform="translate(-2502.894 -2165.331)" fill="url(#linear-gradient-6)"/>
            <g id="Group_55723" data-name="Group 55723">
              <path id="Path_14126" data-name="Path 14126" d="M2473.051,2092.226c-.034.038-1.3,3.189-1.3,3.189l1.814.685,1.644-2.808S2473.623,2091.583,2473.051,2092.226Z" transform="translate(-2471.338 -2090.816)" fill="url(#linear-gradient-7)"/>
              <path id="Path_14127" data-name="Path 14127" d="M2462.312,2056.328l-.75,1.546a.236.236,0,0,1-.036.054c-.09.1-.423.425-.734.064a2.153,2.153,0,0,0-.81-.7.24.24,0,0,0-.29.14,10.376,10.376,0,0,0-.491,1.534.239.239,0,0,0,.165.278,7.685,7.685,0,0,0,1.767.35.24.24,0,0,0,.217-.115c.222-.369.9-1.488,1.137-1.77.223-.265.688-.2.882-.165a.242.242,0,0,0,.183-.038.622.622,0,0,0,.15-.987.24.24,0,0,1,.044-.343.623.623,0,0,0,.183-.911.879.879,0,0,0-1.015-.368.239.239,0,0,1-.275-.138.19.19,0,0,0-.184-.113.237.237,0,0,1-.224-.27.716.716,0,0,0-.466-.8c-.788-.346-1.385.384-1.5.967s.758.909,1.292.929c.406.015.659.448.758.654A.237.237,0,0,1,2462.312,2056.328Z" transform="translate(-2459.196 -2053.482)" fill="#101010"/>
              <path id="Path_14128" data-name="Path 14128" d="M2551.039,2169.687s.247-1.006.677-1.008.8.393.317.919C2551.428,2170.251,2551.039,2169.687,2551.039,2169.687Z" transform="translate(-2548.027 -2164.901)" fill="url(#linear-gradient-8)"/>
            </g>
          </g>
          <path id="Path_14129" data-name="Path 14129" d="M2778.883,2041.477s-1.093-.484-.952.328-.153,1.405.47,1.468S2779.094,2042.038,2778.883,2041.477Z" transform="translate(-2757.368 -2037.942)" fill="url(#linear-gradient-9)"/>
        </g>
      </g>
      <g id="Group_55737" data-name="Group 55737" transform="translate(8.032 265.639)">
        <g id="Group_55731" data-name="Group 55731" transform="translate(11.638 0)">
          <g id="Group_55727" data-name="Group 55727" opacity="0.3">
            <path id="Path_14130" data-name="Path 14130" d="M819.68,471.505a.348.348,0,0,1-.361-.294c-.061-.389-.106-.786-.134-1.181a.348.348,0,0,1,.323-.372h.007a.348.348,0,0,1,.365.324c.026.375.069.752.127,1.122a.348.348,0,0,1-.29.4Zm-.132-3.033h-.041a.349.349,0,0,1-.325-.371c.026-.394.07-.792.13-1.18a.348.348,0,1,1,.689.105c-.057.37-.1.747-.123,1.122A.348.348,0,0,1,819.548,468.472Zm.539-2.986a.349.349,0,0,1-.351-.448c.113-.378.244-.755.39-1.122a.349.349,0,0,1,.648.257c-.138.348-.263.707-.37,1.066A.349.349,0,0,1,820.087,465.486Zm1.194-2.792a.349.349,0,0,1-.32-.52c.2-.343.407-.682.631-1.007a.348.348,0,1,1,.574.395c-.212.309-.414.631-.6.957A.348.348,0,0,1,821.28,462.694Zm1.786-2.455a.348.348,0,0,1-.275-.583c.266-.291.547-.574.838-.842a.348.348,0,1,1,.473.512c-.276.255-.544.524-.8.8A.348.348,0,0,1,823.066,460.239Zm2.285-2a.348.348,0,0,1-.217-.634c.324-.225.662-.439,1-.636a.348.348,0,1,1,.348.6c-.325.187-.646.39-.953.6A.346.346,0,0,1,825.351,458.24Zm12.71-1.478a.348.348,0,0,1-.145-.024c-.348-.137-.707-.261-1.067-.368a.348.348,0,1,1,.2-.668c.379.113.757.243,1.124.388a.349.349,0,0,1-.11.672Zm-10.041.036a.349.349,0,0,1-.148-.671c.366-.147.743-.281,1.12-.4a.348.348,0,0,1,.2.666c-.358.11-.716.236-1.063.376A.35.35,0,0,1,828.02,456.8Zm7.11-.824a.348.348,0,0,1-.07,0c-.37-.056-.748-.1-1.123-.121a.348.348,0,0,1,.045-.7c.394.026.792.068,1.181.127a.348.348,0,0,1-.034.693Zm-4.185.015a.348.348,0,0,1-.072-.692c.389-.062.786-.107,1.18-.136h.007a.348.348,0,0,1,.043.7c-.374.027-.751.07-1.121.129Z" transform="translate(-819.181 -455.153)" fill="#1fa9ff"/>
            <path id="Path_14131" data-name="Path 14131" d="M1436.557,508.8a.345.345,0,0,1-.2-.052c-.153-.095-.31-.188-.467-.277a.348.348,0,1,1,.344-.606c.165.094.33.192.491.292a.349.349,0,0,1-.167.644Z" transform="translate(-1415.492 -506.087)" fill="#1fa9ff"/>
          </g>
          <g id="Group_55728" data-name="Group 55728" transform="translate(5.851 10.159)" opacity="0.3">
            <path id="Path_14132" data-name="Path 14132" d="M1633.255,766.152a.349.349,0,0,1-.358-.276c-.037-.176-.079-.354-.124-.529a.349.349,0,0,1,.675-.173c.047.184.091.372.13.557a.349.349,0,0,1-.268.413A.379.379,0,0,1,1633.255,766.152Z" transform="translate(-1611.93 -764.913)" fill="#1fa9ff"/>
            <path id="Path_14133" data-name="Path 14133" d="M1068.389,852.6q-.24.012-.483.016a.349.349,0,0,1-.012-.7c.373-.007.745-.028,1.109-.065a.349.349,0,0,1,.069.694C1068.848,852.57,1068.617,852.587,1068.389,852.6Zm-2.32-.078a.344.344,0,0,1-.059,0c-.386-.046-.774-.109-1.154-.187a.348.348,0,1,1,.14-.683c.361.074.73.134,1.1.177a.348.348,0,0,1-.023.694Zm4.812-.283a.348.348,0,0,1-.1-.687c.358-.086.717-.189,1.067-.306a.349.349,0,0,1,.22.661c-.369.123-.747.231-1.124.322A.36.36,0,0,1,1070.881,852.238Zm-7.722-.394a.35.35,0,0,1-.134-.02c-.366-.13-.731-.276-1.085-.436a.348.348,0,1,1,.287-.635c.336.152.682.291,1.03.414a.349.349,0,0,1-.1.677Zm10.528-.624a.349.349,0,0,1-.172-.661c.33-.163.657-.342.974-.533a.348.348,0,1,1,.36.6c-.333.2-.678.39-1.025.561A.345.345,0,0,1,1073.687,851.22Zm2.515-1.609a.348.348,0,0,1-.237-.619c.287-.232.568-.479.834-.733a.349.349,0,0,1,.482.5c-.281.268-.576.527-.878.771A.347.347,0,0,1,1076.2,849.611Zm2.1-2.119a.348.348,0,0,1-.29-.565c.23-.289.45-.591.655-.9a.348.348,0,1,1,.58.387c-.215.322-.447.64-.689.944A.347.347,0,0,1,1078.307,847.491Zm1.592-2.528a.348.348,0,0,1-.331-.5c.161-.332.31-.675.442-1.019a.348.348,0,1,1,.65.25c-.139.362-.3.723-.465,1.073A.348.348,0,0,1,1079.9,844.964Zm1-2.817a.348.348,0,0,1-.357-.427c.084-.359.153-.726.206-1.091a.349.349,0,0,1,.69.1c-.056.384-.129.771-.218,1.148A.349.349,0,0,1,1080.9,842.147Zm.355-2.965h-.021a.348.348,0,0,1-.345-.352c0-.272,0-.546-.017-.817q-.008-.147-.018-.293a.348.348,0,0,1,.322-.373.344.344,0,0,1,.373.322c.007.1.014.205.019.309.015.285.021.574.018.86A.348.348,0,0,1,1081.254,839.182Z" transform="translate(-1059.631 -834.97)" fill="#1fa9ff"/>
            <path id="Path_14134" data-name="Path 14134" d="M998.42,1209.988a.349.349,0,0,1-.2-.053c-.16-.1-.32-.206-.477-.314a.348.348,0,1,1,.4-.574c.149.1.3.2.453.3a.348.348,0,0,1-.168.643Z" transform="translate(-997.588 -1194.42)" fill="#1fa9ff"/>
          </g>
          <g id="Group_55730" data-name="Group 55730" transform="translate(3.405 3.295)">
            <path id="Path_14135" data-name="Path 14135" d="M926.531,574a.163.163,0,0,0,.185.041l1.823-.778a8.634,8.634,0,0,0,2.527,1.2l.551,1.9a.163.163,0,0,0,.148.117l2.375.119a.163.163,0,0,0,.159-.1l.739-1.838a8.636,8.636,0,0,0,2.635-.941l1.736.956a.163.163,0,0,0,.188-.022l1.763-1.6a.163.163,0,0,0,.041-.185l-.778-1.823a8.635,8.635,0,0,0,1.2-2.527l1.9-.551a.163.163,0,0,0,.117-.148l.119-2.375a.163.163,0,0,0-.1-.159l-1.838-.739a8.635,8.635,0,0,0-.941-2.635l.956-1.736a.163.163,0,0,0-.022-.188l-1.595-1.763a.163.163,0,0,0-.185-.04l-1.823.778a8.636,8.636,0,0,0-2.527-1.2l-.551-1.9a.163.163,0,0,0-.148-.117l-2.375-.119a.163.163,0,0,0-.159.1l-.739,1.838a8.633,8.633,0,0,0-2.635.941l-1.736-.956a.163.163,0,0,0-.188.022l-1.763,1.6a.163.163,0,0,0-.041.185l.778,1.823a8.63,8.63,0,0,0-1.2,2.527l-1.9.551a.163.163,0,0,0-.117.148l-.119,2.375a.163.163,0,0,0,.1.159l1.838.739a8.636,8.636,0,0,0,.941,2.635l-.956,1.736a.163.163,0,0,0,.022.188Z" transform="translate(-922.99 -555.63)" fill="#1397ea"/>
            <g id="Group_55729" data-name="Group 55729" transform="translate(8.096 8.095)">
              <path id="Path_14136" data-name="Path 14136" d="M1172.343,807.233a2.392,2.392,0,1,1,.348-.044A2.423,2.423,0,0,1,1172.343,807.233Zm-.21-4.218a1.867,1.867,0,0,0-.27.034,1.825,1.825,0,1,0,.27-.034Z" transform="translate(-1169.832 -802.456)" fill="#fff"/>
            </g>
            <path id="Path_14137" data-name="Path 14137" d="M1070.774,706.79a5.982,5.982,0,0,1-.6,0h0l-.191-.013a5.936,5.936,0,0,1-.929-.152l-.012,0-.035-.009-.068-.018a.139.139,0,0,1-.1-.127.143.143,0,0,1,0-.043.14.14,0,0,1,.171-.1,5.6,5.6,0,0,0,7.048-5.7,5.6,5.6,0,0,0-11.181.016,5.6,5.6,0,0,0,.649,2.91.139.139,0,1,1-.246.131,5.859,5.859,0,0,1-.681-2.458q-.015-.3,0-.6a5.877,5.877,0,0,1,11.738-.017,6.017,6.017,0,0,1,0,.6,5.878,5.878,0,0,1-5.559,5.575Z" transform="translate(-1059.943 -690.472)" fill="#fff"/>
          </g>
        </g>
        <g id="Group_55736" data-name="Group 55736" transform="translate(0 13.62)">
          <g id="Group_55732" data-name="Group 55732" opacity="0.3">
            <path id="Path_14138" data-name="Path 14138" d="M475.086,1223.99a.215.215,0,0,1-.214-.144c-.06-.172-.116-.349-.166-.525a.215.215,0,1,1,.414-.118c.048.168.1.336.158.5a.216.216,0,0,1-.132.274A.223.223,0,0,1,475.086,1223.99Z" transform="translate(-474.358 -1211.482)" fill="#91b3fa"/>
            <path id="Path_14139" data-name="Path 14139" d="M464.656,881.342a.215.215,0,0,1-.223-.182,9.351,9.351,0,0,1-.1-.942q0-.1-.008-.2a.223.223,0,0,1,.209-.222.215.215,0,0,1,.222.209q0,.1.008.19a8.934,8.934,0,0,0,.092.9.215.215,0,0,1-.18.246Zm-.066-2.234h-.031a.215.215,0,0,1-.195-.234,9.348,9.348,0,0,1,.175-1.132.215.215,0,0,1,.421.092,8.919,8.919,0,0,0-.167,1.08A.215.215,0,0,1,464.59,879.108Zm.477-2.183a.215.215,0,0,1-.214-.287,9.289,9.289,0,0,1,.448-1.055.215.215,0,0,1,.385.192,8.858,8.858,0,0,0-.427,1.006A.216.216,0,0,1,465.067,876.925Zm1-2a.215.215,0,0,1-.19-.334,9.319,9.319,0,0,1,.692-.913.215.215,0,0,1,.326.281,8.868,8.868,0,0,0-.66.871A.215.215,0,0,1,466.066,874.926Zm1.457-1.694a.215.215,0,0,1-.156-.374,9.392,9.392,0,0,1,.893-.717.215.215,0,1,1,.249.351,8.965,8.965,0,0,0-.852.684A.215.215,0,0,1,467.523,873.232Zm1.824-1.289a.215.215,0,0,1-.113-.4,9.263,9.263,0,0,1,1.041-.478.215.215,0,0,1,.155.4,8.823,8.823,0,0,0-.992.455A.213.213,0,0,1,469.347,871.942Zm2.083-.8a.215.215,0,0,1-.063-.424,9.364,9.364,0,0,1,1.127-.208.215.215,0,0,1,.052.428,8.85,8.85,0,0,0-1.075.2A.217.217,0,0,1,471.431,871.139Zm3.336-.2a.2.2,0,0,1-.038,0,8.957,8.957,0,0,0-.948-.067l-.143,0a.215.215,0,0,1-.215-.215.213.213,0,0,1,.215-.215l.151,0a9.335,9.335,0,0,1,.993.071.215.215,0,0,1-.016.428Z" transform="translate(-464.328 -870.44)" fill="#1f8fff"/>
          </g>
          <g id="Group_55733" data-name="Group 55733" transform="translate(3.932 12.735)" opacity="0.3">
            <path id="Path_14140" data-name="Path 14140" d="M632.525,1264.581a.215.215,0,0,1-.025-.43,8.937,8.937,0,0,0,1.066-.133.215.215,0,1,1,.079.423,9.371,9.371,0,0,1-1.118.14Zm-1.1,0H631.4a9.466,9.466,0,0,1-1.119-.131.215.215,0,0,1,.075-.424,9.042,9.042,0,0,0,1.068.125.215.215,0,0,1,0,.43Zm3.261-.409a.215.215,0,0,1-.076-.42,8.969,8.969,0,0,0,1-.387.215.215,0,0,1,.179.391,9.382,9.382,0,0,1-1.051.406A.226.226,0,0,1,634.685,1264.176Zm-5.426.022a.217.217,0,0,1-.074-.009,9.2,9.2,0,0,1-1.055-.4.215.215,0,1,1,.176-.393,8.8,8.8,0,0,0,1.006.379.215.215,0,0,1-.053.421Zm7.423-.937a.215.215,0,0,1-.124-.4,8.912,8.912,0,0,0,.88-.617.215.215,0,1,1,.268.337,9.356,9.356,0,0,1-.923.647A.213.213,0,0,1,636.683,1263.261Zm1.72-1.367a.215.215,0,0,1-.164-.366,8.982,8.982,0,0,0,.707-.81.215.215,0,0,1,.341.263,9.4,9.4,0,0,1-.741.849A.215.215,0,0,1,638.4,1261.894Zm1.343-1.74a.213.213,0,0,1-.121-.03.215.215,0,0,1-.075-.295,8.78,8.78,0,0,0,.492-.956.215.215,0,0,1,.394.174,9.342,9.342,0,0,1-.516,1A.215.215,0,0,1,639.746,1260.154Z" transform="translate(-626.567 -1258.745)" fill="#1f8fff"/>
            <path id="Path_14141" data-name="Path 14141" d="M584.894,1376.2a.212.212,0,0,1-.122-.031c-.158-.1-.313-.2-.462-.3a.215.215,0,0,1,.244-.355c.142.1.291.194.441.285a.215.215,0,0,1-.1.4Z" transform="translate(-584.216 -1371.65)" fill="#1f8fff"/>
          </g>
          <g id="Group_55735" data-name="Group 55735" transform="translate(2.277 2.207)">
            <path id="Path_14142" data-name="Path 14142" d="M536.121,950.02a.109.109,0,0,0,.124.027l1.22-.521a5.777,5.777,0,0,0,1.691.8l.369,1.273a.109.109,0,0,0,.1.079l1.589.08a.109.109,0,0,0,.107-.068l.494-1.23a5.778,5.778,0,0,0,1.763-.63l1.162.64a.109.109,0,0,0,.126-.015l1.18-1.067a.109.109,0,0,0,.027-.124l-.521-1.22a5.775,5.775,0,0,0,.8-1.691l1.273-.369a.109.109,0,0,0,.078-.1l.08-1.589a.109.109,0,0,0-.068-.106l-1.23-.494a5.779,5.779,0,0,0-.63-1.763l.64-1.162a.109.109,0,0,0-.015-.126l-1.067-1.18a.109.109,0,0,0-.124-.027l-1.22.521a5.779,5.779,0,0,0-1.691-.8l-.369-1.273a.109.109,0,0,0-.1-.079l-1.589-.08a.109.109,0,0,0-.107.068l-.494,1.23a5.779,5.779,0,0,0-1.763.63l-1.162-.64a.109.109,0,0,0-.126.015l-1.18,1.067a.109.109,0,0,0-.027.124l.521,1.22a5.779,5.779,0,0,0-.8,1.691l-1.273.369a.109.109,0,0,0-.078.1l-.08,1.589a.109.109,0,0,0,.068.107l1.23.494a5.781,5.781,0,0,0,.63,1.763l-.64,1.162a.109.109,0,0,0,.015.126Z" transform="translate(-533.751 -937.727)" fill="#1397ea"/>
            <g id="Group_55734" data-name="Group 55734" transform="translate(5.389 5.389)">
              <path id="Path_14143" data-name="Path 14143" d="M699.758,1105.292a1.634,1.634,0,1,1,.239-.03A1.617,1.617,0,0,1,699.758,1105.292Zm-.14-2.822a1.2,1.2,0,1,0,.295,2.37h0a1.2,1.2,0,0,0-.295-2.37Z" transform="translate(-698.051 -1102.038)" fill="#fff"/>
            </g>
            <path id="Path_14144" data-name="Path 14144" d="M629.044,1035.4a4.109,4.109,0,0,1-.412,0,4.06,4.06,0,0,1-.817-.124l-.036-.009a.215.215,0,0,1-.159-.2.218.218,0,0,1,.007-.067.216.216,0,0,1,.264-.152,3.626,3.626,0,0,0,.762.12h0l.043,0a3.59,3.59,0,0,0,1.736-.367,3.638,3.638,0,0,0,.809-.545l.006-.005.018-.016a3.6,3.6,0,0,0,1.188-2.506,3.674,3.674,0,0,0,0-.373,3.624,3.624,0,1,0-6.819,1.895.212.212,0,0,1,.025.09.215.215,0,0,1-.4.112,4.055,4.055,0,1,1,7.628-2.12,4.149,4.149,0,0,1,0,.417A4.06,4.06,0,0,1,629.044,1035.4Z" transform="translate(-621.795 -1024.358)" fill="#fff"/>
          </g>
        </g>
      </g>
    </g>
  </g>
</svg>
