<svg xmlns="http://www.w3.org/2000/svg" xmlns:xlink="http://www.w3.org/1999/xlink" width="173" height="173" viewBox="0 0 173 173">
  <defs>
    <linearGradient id="linear-gradient" x1="0.5" x2="0.5" y2="1" gradientUnits="objectBoundingBox">
      <stop offset="0" stop-color="#99e4ff"/>
      <stop offset="1" stop-color="#f0f7fd"/>
    </linearGradient>
    <linearGradient id="linear-gradient-2" x1="-6.993" y1="2.838" x2="-5.666" y2="2.838" gradientUnits="objectBoundingBox">
      <stop offset="0" stop-color="#febbba"/>
      <stop offset="1" stop-color="#ff928e"/>
    </linearGradient>
    <linearGradient id="linear-gradient-3" x1="-0.077" y1="1.155" x2="1.843" y2="-1.561" xlink:href="#linear-gradient-2"/>
    <linearGradient id="linear-gradient-4" x1="1.617" y1="-2.421" x2="-0.708" y2="0.113" xlink:href="#linear-gradient-2"/>
    <linearGradient id="linear-gradient-5" x1="0.785" y1="-1.959" x2="0.452" y2="0.617" xlink:href="#linear-gradient-2"/>
    <linearGradient id="linear-gradient-6" x1="0.858" y1="-0.953" x2="0.337" y2="1.229" xlink:href="#linear-gradient-2"/>
    <linearGradient id="linear-gradient-7" x1="-1.707" y1="23.465" x2="-1.987" y2="25.855" xlink:href="#linear-gradient-2"/>
    <linearGradient id="linear-gradient-8" x1="-5.536" y1="74.778" x2="-6.744" y2="82.44" xlink:href="#linear-gradient-2"/>
    <linearGradient id="linear-gradient-9" x1="1.455" y1="-3.954" x2="1.958" y2="-4.175" gradientUnits="objectBoundingBox">
      <stop offset="0" stop-color="#f6b0af"/>
      <stop offset="1" stop-color="#5c0e16"/>
    </linearGradient>
    <linearGradient id="linear-gradient-10" x1="404.314" y1="1325.163" x2="-43.187" y2="-142.91" gradientUnits="objectBoundingBox">
      <stop offset="0" stop-color="#b37cff"/>
      <stop offset="1" stop-color="#f895e7"/>
    </linearGradient>
    <linearGradient id="linear-gradient-11" x1="-60.902" y1="23.208" x2="174.733" y2="-63.822" gradientUnits="objectBoundingBox">
      <stop offset="0" stop-color="#53d8ff"/>
      <stop offset="1" stop-color="#3840f7"/>
    </linearGradient>
    <linearGradient id="linear-gradient-12" x1="0" y1="0.5" x2="1" y2="0.5" xlink:href="#linear-gradient-2"/>
    <linearGradient id="linear-gradient-13" x1="1.175" y1="-0.557" x2="0.442" y2="0.722" xlink:href="#linear-gradient-2"/>
    <linearGradient id="linear-gradient-14" x1="47.054" y1="0.175" x2="45.737" y2="1.493" xlink:href="#linear-gradient-2"/>
    <linearGradient id="linear-gradient-15" x1="148.825" y1="2.7" x2="152.275" y2="0.456" xlink:href="#linear-gradient-2"/>
    <linearGradient id="linear-gradient-16" x1="1.972" y1="0.167" x2="-0.263" y2="0.643" xlink:href="#linear-gradient-2"/>
    <linearGradient id="linear-gradient-17" x1="-0.522" y1="1.498" x2="5.34" y2="-5.024" xlink:href="#linear-gradient-2"/>
    <linearGradient id="linear-gradient-18" x1="3.488" y1="-1.652" x2="7.282" y2="-5.743" xlink:href="#linear-gradient-2"/>
    <linearGradient id="linear-gradient-19" x1="-4.033" y1="2.888" x2="-4.889" y2="2.092" xlink:href="#linear-gradient-2"/>
    <linearGradient id="linear-gradient-20" x1="-14.533" y1="11.622" x2="-17.409" y2="7.957" xlink:href="#linear-gradient-2"/>
  </defs>
  <g id="Group_56586" data-name="Group 56586" transform="translate(-346 -1855)">
    <circle id="Ellipse_727" data-name="Ellipse 727" cx="86.5" cy="86.5" r="86.5" transform="translate(346 1855)" fill="url(#linear-gradient)"/>
    <g id="Group_6974" data-name="Group 6974" transform="translate(-88.426 1427.312)">
      <path id="Path_4332" data-name="Path 4332" d="M563.34,555.378a37.115,37.115,0,0,1-5.68,4.782c-18.529,13.295-40.454,9.419-45.114,8.473-6.881-1.4-20.181-4.1-29.8-15.407-14.548-17.109-12.283-44.062-1-61.855,2.064-3.255,12.967-21.318,35.129-24.215,13.412-1.753,29.045,1.783,40.367,11.268C581.011,498.334,579.319,538.556,563.34,555.378Z" transform="translate(-2.918 -4.04)" fill="#cbe9f8"/>
      <g id="Group_6947" data-name="Group 6947" transform="translate(514.798 462.527)">
        <g id="Group_6942" data-name="Group 6942" transform="translate(13.279 0)">
          <g id="Group_6939" data-name="Group 6939" transform="translate(0 16.521)" opacity="0.3">
            <path id="Path_4333" data-name="Path 4333" d="M2047.968,907.86a.316.316,0,0,1,.405.188c.117.318.248.636.393.945a.316.316,0,0,1-.147.417l-.005,0a.316.316,0,0,1-.42-.153c-.151-.325-.291-.66-.413-1a.316.316,0,0,1,.157-.392Zm1.6,2.59c.185.286.384.568.591.836a.316.316,0,1,1-.5.386c-.218-.282-.427-.578-.622-.88a.316.316,0,0,1,.094-.437l.032-.018A.316.316,0,0,1,2049.569,910.45Zm1.7,2.078c.243.237.5.467.762.683a.316.316,0,0,1-.4.488c-.277-.227-.546-.469-.8-.719a.316.316,0,0,1-.005-.447.324.324,0,0,1,.087-.063A.316.316,0,0,1,2051.265,912.528Zm2.118,1.646c.29.177.592.344.9.5a.316.316,0,1,1-.282.566c-.32-.16-.637-.335-.943-.522a.316.316,0,0,1,.33-.54Zm2.431,1.133c.322.108.653.2.983.285a.316.316,0,1,1-.15.614c-.348-.085-.7-.186-1.035-.3a.316.316,0,0,1,.2-.6Zm2.622.567c.338.034.682.055,1.021.06a.316.316,0,1,1-.01.632c-.358-.006-.72-.027-1.075-.063a.316.316,0,1,1,.064-.629Zm10.9-4.342a.316.316,0,0,1,.043.445c-.227.276-.47.546-.721.8a.316.316,0,1,1-.451-.443c.238-.243.469-.5.685-.761a.315.315,0,0,1,.445-.043Zm-8.221,4.314c.337-.042.677-.1,1.009-.169a.316.316,0,0,1,.131.618c-.35.074-.707.134-1.062.178a.316.316,0,1,1-.078-.627Zm6.291-2.349a.316.316,0,0,1-.057.443c-.284.218-.58.426-.882.62a.316.316,0,0,1-.342-.532c.287-.184.568-.382.838-.589a.314.314,0,0,1,.443.058Zm-3.684,1.723c.319-.116.637-.247.946-.39a.316.316,0,0,1,.271.57l-.006,0c-.325.151-.66.289-1,.411a.316.316,0,0,1-.248-.581Z" transform="translate(-2047.76 -907.841)" fill="#bdd0fb"/>
            <path id="Path_4334" data-name="Path 4334" d="M2642.721,956a.315.315,0,0,0-.137.13c-.079.142-.163.285-.248.425a.316.316,0,1,0,.539.33c.09-.147.178-.3.261-.447a.316.316,0,0,0-.415-.437Z" transform="translate(-2620.233 -954.181)" fill="#bdd0fb"/>
          </g>
          <g id="Group_6940" data-name="Group 6940" transform="translate(0.551)" opacity="0.3">
            <path id="Path_4335" data-name="Path 4335" d="M2677.073,697.787a.316.316,0,0,0-.163.376c.048.156.093.315.134.474a.316.316,0,1,0,.611-.159c-.043-.167-.091-.335-.141-.5a.315.315,0,0,0-.394-.21A.309.309,0,0,0,2677.073,697.787Z" transform="translate(-2654.107 -689.028)" fill="#00b9ff"/>
            <path id="Path_4336" data-name="Path 4336" d="M2098.758,463.548a.316.316,0,1,1,.25.581c-.305.131-.61.278-.908.436a.316.316,0,0,1-.3-.558q.194-.1.39-.2C2098.379,463.716,2098.569,463.629,2098.758,463.548Zm-1.977,1.44a.316.316,0,0,1-.072.441c-.272.2-.538.405-.792.623a.316.316,0,1,1-.411-.48c.267-.229.548-.449.834-.655a.35.35,0,0,1,.046-.028A.316.316,0,0,1,2096.781,464.988Zm3.6-2.01c.339-.093.687-.174,1.033-.238a.316.316,0,0,1,.116.621c-.329.061-.659.137-.981.226a.316.316,0,0,1-.168-.609Zm-5.659,3.775a.316.316,0,0,1,.027.446c-.222.25-.436.513-.635.781a.316.316,0,0,1-.507-.378c.21-.282.436-.559.669-.823a.309.309,0,0,1,.1-.074A.315.315,0,0,1,2094.724,466.752Zm8.4-4.211c.351-.017.708-.018,1.06-.005a.316.316,0,0,1-.023.631c-.335-.012-.673-.011-1.007,0a.316.316,0,1,1-.03-.631Zm2.772.176c.347.061.7.137,1.035.226a.316.316,0,1,1-.16.611c-.324-.085-.655-.157-.984-.215a.316.316,0,0,1,.109-.623Zm2.667.776c.326.135.649.285.962.446a.316.316,0,1,1-.29.562c-.3-.153-.6-.3-.914-.424a.315.315,0,0,1-.171-.413.315.315,0,0,1,.412-.171Zm2.436,1.339c.288.2.571.42.841.646a.316.316,0,1,1-.406.484c-.256-.215-.524-.421-.8-.614a.316.316,0,1,1,.364-.517Zm2.083,1.842c.236.261.463.535.677.815a.316.316,0,0,1-.5.383c-.2-.266-.419-.527-.643-.774a.316.316,0,0,1,.022-.446.321.321,0,0,1,.073-.05A.317.317,0,0,1,2113.083,466.673Zm1.625,2.252c.128.225.25.457.364.69q.062.126.12.253a.312.312,0,0,1-.154.419.316.316,0,0,1-.419-.154c-.037-.08-.075-.161-.114-.241-.108-.221-.224-.441-.346-.656a.316.316,0,0,1,.119-.431l.017-.009A.316.316,0,0,1,2114.707,468.926Z" transform="translate(-2092.399 -462.527)" fill="#00b9ff"/>
            <path id="Path_4337" data-name="Path 4337" d="M2063.035,634.166a.317.317,0,0,0-.138.131c-.082.15-.163.3-.24.459a.316.316,0,0,0,.566.282c.073-.147.15-.294.229-.436a.316.316,0,0,0-.416-.436Z" transform="translate(-2062.624 -627.767)" fill="#00b9ff"/>
          </g>
          <g id="Group_6941" data-name="Group 6941" transform="translate(2.2 2.38)">
            <path id="Path_4338" data-name="Path 4338" d="M2107.068,535.6a.157.157,0,0,0,.07.169l1.624,1.022a8.36,8.36,0,0,0,.439,2.672l-1.21,1.488a.157.157,0,0,0-.011.183l1.215,1.955a.158.158,0,0,0,.169.071l1.87-.426a8.358,8.358,0,0,0,2.2,1.578l.2,1.909a.158.158,0,0,0,.121.137l2.241.524a.158.158,0,0,0,.17-.07l1.021-1.624a8.357,8.357,0,0,0,2.673-.439l1.488,1.21a.158.158,0,0,0,.183.012l1.955-1.215a.158.158,0,0,0,.071-.169l-.426-1.87a8.359,8.359,0,0,0,1.578-2.2l1.909-.2a.158.158,0,0,0,.137-.121l.524-2.241a.158.158,0,0,0-.07-.169l-1.625-1.022a8.345,8.345,0,0,0-.439-2.672l1.21-1.488a.158.158,0,0,0,.012-.183l-1.214-1.955a.158.158,0,0,0-.169-.071l-1.87.426a8.351,8.351,0,0,0-2.2-1.578l-.2-1.909a.158.158,0,0,0-.121-.137l-2.242-.524a.157.157,0,0,0-.169.07l-1.022,1.624a8.353,8.353,0,0,0-2.672.439L2113,527.6a.158.158,0,0,0-.183-.012l-1.955,1.215a.158.158,0,0,0-.071.169l.426,1.87a8.354,8.354,0,0,0-1.578,2.2l-1.909.2a.157.157,0,0,0-.137.121Z" transform="translate(-2107.064 -526.67)" fill="#b2e6ff"/>
            <path id="Path_4339" data-name="Path 4339" d="M2318.754,736.861a2.312,2.312,0,1,1-.315.126A2.316,2.316,0,0,1,2318.754,736.861Zm2.279,3.018a1.773,1.773,0,1,0-1.037.876,1.821,1.821,0,0,0,.244-.1A1.761,1.761,0,0,0,2321.033,739.88Z" transform="translate(-2309.35 -728.958)" fill="#8fcce9"/>
            <path id="Path_4340" data-name="Path 4340" d="M2230.617,646.695a5.831,5.831,0,0,0-.511.283h0c-.052.033-.1.066-.156.1a5.715,5.715,0,0,0-.716.564l-.009.008-.026.024-.05.047a.135.135,0,0,0,.188.194,5.424,5.424,0,0,1,6.122-.987,5.388,5.388,0,0,1,2.252,2.021,5.456,5.456,0,0,1,.27.488,5.419,5.419,0,0,1-9.476,5.232,5.506,5.506,0,0,1-.267-.482,5.405,5.405,0,0,1-.55-2.287.132.132,0,0,0-.013-.057.135.135,0,0,0-.256.061,5.669,5.669,0,0,0,.577,2.4,5.689,5.689,0,0,0,8.115,2.336,5.691,5.691,0,0,0,2.114-7.323q-.128-.261-.284-.512a5.69,5.69,0,0,0-7.323-2.113Z" transform="translate(-2222.954 -641.688)" fill="#8fcce9"/>
          </g>
        </g>
        <g id="Group_6946" data-name="Group 6946" transform="translate(0 4.174)">
          <g id="Group_6943" data-name="Group 6943" transform="translate(0 9.617)" opacity="0.3">
            <path id="Path_4341" data-name="Path 4341" d="M1689.939,834.286a.2.2,0,0,0-.106.208c.028.163.061.328.1.49a.2.2,0,0,0,.38-.089c-.036-.154-.068-.311-.094-.467a.2.2,0,0,0-.278-.142Z" transform="translate(-1689.83 -834.267)" fill="#bdd0fb"/>
            <path id="Path_4342" data-name="Path 4342" d="M1700.417,873.374a.2.2,0,0,1,.25.116c.094.255.2.509.322.753.025.052.051.1.078.154a.2.2,0,0,1-.084.263.2.2,0,0,1-.263-.084c-.028-.054-.055-.108-.081-.161a8.539,8.539,0,0,1-.338-.79.2.2,0,0,1,.1-.243Zm1.157,1.875a8.07,8.07,0,0,0,.607.783.2.2,0,0,1-.293.258,8.507,8.507,0,0,1-.636-.821.2.2,0,0,1,.051-.271l.024-.014A.2.2,0,0,1,1701.574,875.249Zm1.306,1.486a8,8,0,0,0,.781.61.2.2,0,1,1-.221.322,8.436,8.436,0,0,1-.819-.64.2.2,0,0,1-.016-.276.192.192,0,0,1,.06-.046A.2.2,0,0,1,1702.881,876.734Zm1.632,1.119a8.029,8.029,0,0,0,.906.4.2.2,0,0,1-.135.366,8.464,8.464,0,0,1-.951-.42.2.2,0,0,1,.18-.347Zm1.855.687a8.16,8.16,0,0,0,.976.168.2.2,0,1,1-.042.388,8.535,8.535,0,0,1-1.024-.176.2.2,0,0,1,.09-.38Zm1.966.216a7.992,7.992,0,0,0,.987-.075.2.2,0,1,1,.053.387,8.414,8.414,0,0,1-1.035.078.2.2,0,0,1-.088-.37A.192.192,0,0,1,1708.333,878.757Zm1.958-.271a8.05,8.05,0,0,0,.939-.315.2.2,0,0,1,.147.362,8.48,8.48,0,0,1-.985.33.2.2,0,0,1-.136-.364A.2.2,0,0,1,1710.292,878.486Zm2.94-1.236a.2.2,0,0,1-.042.273,8.473,8.473,0,0,1-.756.492l-.119.068a.2.2,0,0,1-.189-.342l.112-.064a8.058,8.058,0,0,0,.723-.47.182.182,0,0,1,.029-.018A.2.2,0,0,1,1713.232,877.25Z" transform="translate(-1699.901 -871.912)" fill="#bdd0fb"/>
          </g>
          <g id="Group_6944" data-name="Group 6944" transform="translate(0.749)" opacity="0.3">
            <path id="Path_4343" data-name="Path 4343" d="M1734.355,575.838a8.451,8.451,0,0,1,.948-.38.2.2,0,1,1,.123.37,8.057,8.057,0,0,0-.9.363.2.2,0,0,1-.169-.352Zm-.627.553a.2.2,0,0,1-.061.269,8.15,8.15,0,0,0-.793.568.2.2,0,0,1-.246-.3,8.516,8.516,0,0,1,.831-.6l.019-.01A.2.2,0,0,1,1733.728,576.391Zm2.563-1.2a8.466,8.466,0,0,1,1.012-.14.2.2,0,0,1,.03.389,8.063,8.063,0,0,0-.966.133.2.2,0,1,1-.077-.383Zm-4.14,2.417a.2.2,0,0,1,.005.276,8.031,8.031,0,0,0-.632.743.2.2,0,0,1-.312-.234,8.383,8.383,0,0,1,.663-.779.2.2,0,0,1,.276-.005Zm6.174-2.573a8.5,8.5,0,0,1,1.016.108.2.2,0,0,1-.064.385,8.041,8.041,0,0,0-.969-.1.2.2,0,0,1,.018-.39Zm2.012.337a8.555,8.555,0,0,1,.961.348.2.2,0,1,1-.155.358,8.179,8.179,0,0,0-.917-.331.2.2,0,0,1,.111-.375Zm1.873.809a8.431,8.431,0,0,1,.85.568.2.2,0,0,1-.236.311,7.97,7.97,0,0,0-.811-.542.2.2,0,0,1-.07-.267.191.191,0,0,1,.083-.077A.2.2,0,0,1,1742.211,576.184Z" transform="translate(-1730.389 -575.039)" fill="#b2e6ff"/>
            <path id="Path_4344" data-name="Path 4344" d="M1710.365,686.148a.194.194,0,0,0-.083.078c-.083.145-.162.293-.236.44a.2.2,0,1,0,.349.174c.07-.14.145-.281.225-.42a.2.2,0,0,0-.255-.272Z" transform="translate(-1710.025 -682.007)" fill="#b2e6ff"/>
          </g>
          <g id="Group_6945" data-name="Group 6945" transform="translate(2.012 2.143)">
            <path id="Path_4345" data-name="Path 4345" d="M1744.053,638.394a.1.1,0,0,0,.044.106l1.018.641a5.237,5.237,0,0,0,.275,1.675l-.759.932a.1.1,0,0,0-.007.115l.761,1.226a.1.1,0,0,0,.106.044l1.172-.267a5.234,5.234,0,0,0,1.38.989l.123,1.2a.1.1,0,0,0,.076.086l1.405.328a.1.1,0,0,0,.106-.044l.64-1.018a5.239,5.239,0,0,0,1.675-.275l.933.759a.1.1,0,0,0,.115.007l1.225-.761a.1.1,0,0,0,.044-.106l-.267-1.172a5.239,5.239,0,0,0,.989-1.38l1.2-.123a.1.1,0,0,0,.086-.076l.328-1.405a.1.1,0,0,0-.043-.106l-1.018-.641a5.244,5.244,0,0,0-.275-1.675l.759-.933a.1.1,0,0,0,.007-.114l-.761-1.226a.1.1,0,0,0-.106-.044l-1.172.267a5.242,5.242,0,0,0-1.38-.989l-.123-1.2a.1.1,0,0,0-.076-.086l-1.405-.328a.1.1,0,0,0-.106.044l-.64,1.018a5.24,5.24,0,0,0-1.675.275l-.932-.759a.1.1,0,0,0-.115-.007l-1.226.761a.1.1,0,0,0-.044.106l.267,1.172a5.247,5.247,0,0,0-.989,1.38l-1.2.123a.1.1,0,0,0-.086.076Z" transform="translate(-1744.051 -632.797)" fill="#b2e6ff"/>
            <path id="Path_4346" data-name="Path 4346" d="M1876.044,763.83a1.472,1.472,0,1,1-.2.082A1.52,1.52,0,0,1,1876.044,763.83Zm1.483,1.077a1.086,1.086,0,0,0-1.365-.7h0a1.086,1.086,0,0,0,.66,2.07,1.107,1.107,0,0,0,.148-.06A1.088,1.088,0,0,0,1877.527,764.906Z" transform="translate(-1870.157 -758.901)" fill="#8fcce9"/>
            <path id="Path_4347" data-name="Path 4347" d="M1818.574,705.122a3.7,3.7,0,0,0-.92.639l-.024.023a.2.2,0,1,0,.271.281,3.292,3.292,0,0,1,.552-.43h0l.033-.02a3.252,3.252,0,0,1,1.538-.472,3.3,3.3,0,0,1,.882.077l.007,0,.022.005a3.265,3.265,0,0,1,2.044,1.466,3.351,3.351,0,0,1,.164.3,3.287,3.287,0,1,1-6.242,1.494.2.2,0,1,0-.39.006,3.677,3.677,0,1,0,6.983-1.671,3.73,3.73,0,0,0-.183-.331A3.682,3.682,0,0,0,1818.574,705.122Z" transform="translate(-1813.822 -702.081)" fill="#8fcce9"/>
          </g>
        </g>
      </g>
      <g id="Group_6956" data-name="Group 6956" transform="translate(493.354 539.355)">
        <g id="Group_6951" data-name="Group 6951" transform="translate(13.394)">
          <g id="Group_6948" data-name="Group 6948" transform="translate(0 16.343)" opacity="0.3">
            <path id="Path_4348" data-name="Path 4348" d="M1473.065,2973.962a.321.321,0,0,1,.4.208c.105.329.227.658.36.979a.322.322,0,0,1-.167.418l-.006,0a.322.322,0,0,1-.421-.173c-.141-.338-.268-.684-.379-1.031a.322.322,0,0,1,.177-.392Zm1.522,2.7c.176.3.366.593.566.875a.322.322,0,0,1-.525.372c-.21-.3-.411-.606-.6-.921a.322.322,0,0,1,.114-.441l.034-.017A.322.322,0,0,1,1474.588,2976.664Zm1.639,2.184c.238.252.489.5.747.727a.322.322,0,0,1-.429.48c-.272-.243-.537-.5-.787-.765a.322.322,0,0,1,.013-.455.311.311,0,0,1,.091-.06A.321.321,0,0,1,1476.226,2978.848Zm2.087,1.763c.288.193.588.375.891.542a.322.322,0,0,1-.311.564c-.319-.176-.635-.368-.938-.57a.322.322,0,0,1-.089-.446.316.316,0,0,1,.138-.116A.321.321,0,0,1,1478.313,2980.611Zm2.427,1.254c.323.123.656.235.989.331a.322.322,0,1,1-.178.618c-.351-.1-.7-.218-1.041-.348a.322.322,0,1,1,.23-.6Zm2.644.686c.343.049.692.084,1.037.1a.322.322,0,0,1-.037.643c-.364-.021-.731-.057-1.092-.109a.322.322,0,0,1-.084-.613A.318.318,0,0,1,1483.385,2982.551Zm11.275-3.966a.322.322,0,0,1,.025.455c-.243.271-.5.535-.767.786a.322.322,0,0,1-.441-.469c.253-.237.5-.489.728-.746a.317.317,0,0,1,.11-.08A.322.322,0,0,1,1494.66,2978.585Zm-8.545,4.049c.345-.029.693-.073,1.034-.13a.322.322,0,0,1,.108.635c-.359.061-.726.107-1.089.137a.322.322,0,0,1-.156-.615A.306.306,0,0,1,1486.114,2982.634Zm6.5-2.13a.322.322,0,0,1-.077.448c-.3.21-.608.41-.922.595a.322.322,0,0,1-.326-.555c.3-.175.594-.365.877-.565a.354.354,0,0,1,.056-.032A.323.323,0,0,1,1492.614,2980.5Zm-3.821,1.6c.33-.1.659-.226.979-.358a.322.322,0,0,1,.253.592l-.006,0c-.337.14-.684.267-1.031.377a.322.322,0,0,1-.227-.6Z" transform="translate(-1472.841 -2973.946)" fill="#8fcce9"/>
            <path id="Path_4349" data-name="Path 4349" d="M2075.841,3047.923a.324.324,0,0,0-.145.126c-.086.142-.177.284-.271.422a.322.322,0,0,0,.535.358c.1-.146.193-.3.284-.444a.322.322,0,0,0-.4-.462Z" transform="translate(-2053.018 -3045.152)" fill="#8fcce9"/>
          </g>
          <g id="Group_6949" data-name="Group 6949" transform="translate(0.964)" opacity="0.3">
            <path id="Path_4350" data-name="Path 4350" d="M2121.991,2786.308a.321.321,0,0,0-.182.375c.042.161.081.325.116.488a.322.322,0,1,0,.629-.137c-.037-.172-.079-.344-.123-.513a.321.321,0,0,0-.393-.23A.3.3,0,0,0,2121.991,2786.308Z" transform="translate(-2098.687 -2776.9)" fill="#bdd0fb"/>
            <path id="Path_4351" data-name="Path 4351" d="M1537.87,2534.271a.322.322,0,1,1,.23.6c-.316.121-.632.257-.942.406a.322.322,0,0,1-.279-.581q.2-.1.405-.186C1537.477,2534.427,1537.674,2534.346,1537.87,2534.271Zm-2.071,1.384a.322.322,0,0,1-.091.446c-.285.188-.565.39-.832.6a.322.322,0,1,1-.4-.505c.281-.221.576-.435.876-.632a.293.293,0,0,1,.048-.026A.321.321,0,0,1,1535.8,2535.655Zm3.749-1.9c.349-.081.706-.148,1.061-.2a.322.322,0,0,1,.092.638c-.338.048-.677.112-1.008.189a.322.322,0,0,1-.2-.608A.346.346,0,0,1,1539.547,2533.759Zm-5.916,3.606a.321.321,0,0,1,.009.455c-.236.246-.465.5-.679.769a.322.322,0,0,1-.5-.405c.226-.279.467-.551.715-.81a.321.321,0,0,1,.455-.008Zm8.725-3.937c.358,0,.721.011,1.079.039a.322.322,0,0,1-.05.642c-.34-.026-.685-.039-1.025-.037a.322.322,0,0,1-.132-.617A.314.314,0,0,1,1542.356,2533.429Zm2.813.294c.351.076.7.168,1.045.273a.322.322,0,1,1-.189.615c-.326-.1-.659-.187-.993-.259a.322.322,0,1,1,.137-.629Zm2.683.9c.326.151.649.317.96.494a.322.322,0,0,1-.318.56c-.3-.168-.6-.326-.912-.469a.322.322,0,0,1,.005-.587A.319.319,0,0,1,1547.852,2534.623Zm2.422,1.464c.285.219.564.451.829.693a.322.322,0,0,1-.434.476c-.252-.229-.516-.45-.787-.658a.322.322,0,0,1-.06-.451.322.322,0,0,1,.451-.06Zm2.042,1.961c.229.275.45.563.655.858a.322.322,0,0,1-.527.369c-.2-.279-.4-.553-.622-.814a.322.322,0,1,1,.495-.412Zm1.561,2.359c.121.235.236.476.342.717.038.087.076.175.112.263a.318.318,0,0,1-.174.42.322.322,0,0,1-.421-.174q-.052-.125-.106-.25c-.1-.229-.21-.458-.325-.682a.322.322,0,0,1,.139-.433l.018-.009A.322.322,0,0,1,1553.877,2540.406Z" transform="translate(-1531.145 -2533.428)" fill="#bdd0fb"/>
            <path id="Path_4352" data-name="Path 4352" d="M1499.282,2696.319a.321.321,0,0,0-.146.127c-.09.149-.179.3-.264.457a.322.322,0,1,0,.564.311c.081-.146.165-.292.25-.434a.322.322,0,0,0-.405-.461Z" transform="translate(-1498.832 -2690.249)" fill="#bdd0fb"/>
          </g>
          <g id="Group_6950" data-name="Group 6950" transform="translate(2.467 2.498)">
            <path id="Path_4353" data-name="Path 4353" d="M1539.347,2609.378a.161.161,0,0,0,.064.175l1.61,1.107a8.517,8.517,0,0,0,.336,2.738l-1.293,1.464a.161.161,0,0,0-.019.186l1.155,2.04a.16.16,0,0,0,.169.079l1.921-.355a8.513,8.513,0,0,0,2.175,1.7l.121,1.951a.162.162,0,0,0,.117.145l2.259.626a.161.161,0,0,0,.175-.064l1.107-1.61a8.515,8.515,0,0,0,2.738-.336l1.464,1.293a.161.161,0,0,0,.185.02l2.04-1.155a.16.16,0,0,0,.079-.169l-.356-1.921a8.515,8.515,0,0,0,1.7-2.174l1.951-.121a.162.162,0,0,0,.145-.117l.626-2.259a.161.161,0,0,0-.064-.175l-1.61-1.107a8.516,8.516,0,0,0-.336-2.738l1.293-1.464a.161.161,0,0,0,.019-.186l-1.155-2.04a.16.16,0,0,0-.169-.079l-1.921.355a8.521,8.521,0,0,0-2.175-1.7l-.121-1.951a.16.16,0,0,0-.117-.145l-2.259-.626a.161.161,0,0,0-.175.064l-1.107,1.611a8.5,8.5,0,0,0-2.738.336l-1.464-1.293a.161.161,0,0,0-.185-.02l-2.04,1.155a.161.161,0,0,0-.079.169l.356,1.921a8.51,8.51,0,0,0-1.7,2.175l-1.951.121a.161.161,0,0,0-.145.117Z" transform="translate(-1539.342 -2600.759)" fill="#b2e6ff"/>
            <path id="Path_4354" data-name="Path 4354" d="M1753.531,2813.3a2.355,2.355,0,1,1-.326.116A2.359,2.359,0,0,1,1753.531,2813.3Zm2.194,3.166a1.807,1.807,0,1,0-1.092.849,1.849,1.849,0,0,0,.253-.09A1.8,1.8,0,0,0,1755.725,2816.466Z" transform="translate(-1743.916 -2805.334)" fill="#8fcce9"/>
            <path id="Path_4355" data-name="Path 4355" d="M1663.846,2721.438a5.8,5.8,0,0,0-.532.267h0c-.055.031-.109.063-.163.1a5.82,5.82,0,0,0-.751.544l-.01.008-.027.023-.052.046a.138.138,0,0,0,.183.205,5.527,5.527,0,0,1,8.733,1.908,5.52,5.52,0,1,1-10.577,2.079.135.135,0,0,0-.011-.059.138.138,0,0,0-.263.052,5.794,5.794,0,1,0,3.471-5.17Z" transform="translate(-1655.883 -2716.491)" fill="#8fcce9"/>
          </g>
        </g>
        <g id="Group_6955" data-name="Group 6955" transform="translate(0 3.549)">
          <g id="Group_6952" data-name="Group 6952" transform="translate(0 9.46)" opacity="0.3">
            <path id="Path_4356" data-name="Path 4356" d="M1111.91,2884.1a.2.2,0,0,0-.117.208c.021.167.049.336.08.5a.2.2,0,1,0,.391-.074c-.03-.158-.056-.319-.077-.479a.2.2,0,0,0-.223-.172A.205.205,0,0,0,1111.91,2884.1Z" transform="translate(-1111.792 -2884.078)" fill="#8fcce9"/>
            <path id="Path_4357" data-name="Path 4357" d="M1120.949,2924.307a.2.2,0,0,1,.25.128,8.262,8.262,0,0,0,.3.78q.035.08.072.16a.2.2,0,0,1-.1.264.206.206,0,0,1-.264-.1c-.026-.056-.051-.112-.076-.168a8.571,8.571,0,0,1-.311-.817.2.2,0,0,1,.109-.243Zm1.1,1.956a8.253,8.253,0,0,0,.585.822.2.2,0,1,1-.309.25,8.522,8.522,0,0,1-.613-.862.2.2,0,0,1,.063-.274l.026-.013A.2.2,0,0,1,1122.049,2926.263Zm1.268,1.566a8.155,8.155,0,0,0,.77.654.2.2,0,0,1-.238.318,8.466,8.466,0,0,1-.807-.686.2.2,0,0,1-.005-.281.206.206,0,0,1,.063-.044A.2.2,0,0,1,1123.317,2927.829Zm1.614,1.207a8.267,8.267,0,0,0,.906.445.2.2,0,0,1-.153.367,8.691,8.691,0,0,1-.95-.467.2.2,0,0,1-.074-.271.2.2,0,0,1,.093-.083A.2.2,0,0,1,1124.931,2929.036Zm1.86.776a8.225,8.225,0,0,0,.987.212.2.2,0,0,1-.06.393,8.529,8.529,0,0,1-1.034-.222.2.2,0,0,1-.026-.374A.2.2,0,0,1,1126.79,2929.813Zm1.992.3a8.114,8.114,0,0,0,1.007-.034.2.2,0,1,1,.038.4,8.386,8.386,0,0,1-1.057.037.2.2,0,0,1-.074-.381A.206.206,0,0,1,1128.782,2930.114Zm2-.194a8.173,8.173,0,0,0,.969-.282.2.2,0,1,1,.134.374,8.618,8.618,0,0,1-1.016.3.2.2,0,0,1-.124-.376A.273.273,0,0,1,1130.786,2929.919Zm3.044-1.135a.2.2,0,0,1-.055.275,8.555,8.555,0,0,1-.79.47l-.124.064a.2.2,0,0,1-.179-.355l.117-.06a8.276,8.276,0,0,0,.755-.448.178.178,0,0,1,.031-.018A.2.2,0,0,1,1133.83,2928.784Z" transform="translate(-1120.477 -2922.805)" fill="#8fcce9"/>
          </g>
          <g id="Group_6953" data-name="Group 6953" transform="translate(0.973)" opacity="0.3">
            <path id="Path_4358" data-name="Path 4358" d="M1164.307,2629.755a8.629,8.629,0,0,1,.981-.348.2.2,0,0,1,.11.382,8.193,8.193,0,0,0-.936.332.2.2,0,0,1-.158-.365Zm-.661.537a.2.2,0,0,1-.073.271,8.337,8.337,0,0,0-.83.545.2.2,0,1,1-.238-.318,8.667,8.667,0,0,1,.87-.571l.019-.01A.2.2,0,0,1,1163.646,2630.292Zm2.658-1.111a8.647,8.647,0,0,1,1.036-.1.2.2,0,0,1,.014.4,8.2,8.2,0,0,0-.988.1.2.2,0,0,1-.111-.378A.191.191,0,0,1,1166.3,2629.181Zm-4.313,2.288a.2.2,0,0,1-.006.281,8.138,8.138,0,0,0-.674.729.2.2,0,0,1-.308-.252,8.495,8.495,0,0,1,.707-.765.209.209,0,0,1,.058-.039A.2.2,0,0,1,1161.99,2631.469Zm6.39-2.362a8.671,8.671,0,0,1,1.03.152.2.2,0,1,1-.081.389,8.28,8.28,0,0,0-.982-.144.2.2,0,0,1-.063-.38A.193.193,0,0,1,1168.38,2629.107Zm2.034.426a8.691,8.691,0,0,1,.964.394.2.2,0,1,1-.172.358,8.326,8.326,0,0,0-.92-.375.2.2,0,0,1,.128-.376Zm1.873.9a8.548,8.548,0,0,1,.842.614.2.2,0,0,1-.253.306,8.18,8.18,0,0,0-.8-.585.2.2,0,0,1,.214-.335Z" transform="translate(-1160.107 -2629.08)" fill="#bdd0fb"/>
            <path id="Path_4359" data-name="Path 4359" d="M1138.384,2734.44a.2.2,0,0,0-.088.076c-.091.144-.177.292-.258.438a.2.2,0,1,0,.349.192c.077-.14.16-.28.246-.418a.2.2,0,0,0-.248-.288Z" transform="translate(-1138.013 -2730.515)" fill="#bdd0fb"/>
          </g>
          <g id="Group_6954" data-name="Group 6954" transform="translate(2.132 2.222)">
            <path id="Path_4360" data-name="Path 4360" d="M1169.269,2694.387a.1.1,0,0,0,.04.11l1.01.694a5.334,5.334,0,0,0,.211,1.716l-.811.917a.1.1,0,0,0-.012.116l.724,1.279a.1.1,0,0,0,.106.05l1.2-.223a5.336,5.336,0,0,0,1.363,1.063l.076,1.223a.1.1,0,0,0,.074.091l1.416.393a.1.1,0,0,0,.11-.04l.694-1.01a5.323,5.323,0,0,0,1.716-.211l.918.811a.1.1,0,0,0,.116.012l1.279-.724a.1.1,0,0,0,.049-.106l-.223-1.2a5.335,5.335,0,0,0,1.064-1.363l1.223-.075a.1.1,0,0,0,.091-.074l.393-1.417a.1.1,0,0,0-.04-.11l-1.009-.694a5.337,5.337,0,0,0-.211-1.716l.811-.917a.1.1,0,0,0,.012-.116l-.724-1.279a.1.1,0,0,0-.106-.049l-1.2.222a5.335,5.335,0,0,0-1.363-1.063l-.076-1.223a.1.1,0,0,0-.074-.091l-1.416-.392a.1.1,0,0,0-.11.04l-.694,1.01a5.332,5.332,0,0,0-1.716.21l-.917-.811a.1.1,0,0,0-.116-.012l-1.279.724a.1.1,0,0,0-.05.106l.223,1.2a5.327,5.327,0,0,0-1.063,1.364l-1.223.075a.1.1,0,0,0-.091.073Z" transform="translate(-1169.265 -2688.984)" fill="#b2e6ff"/>
            <path id="Path_4361" data-name="Path 4361" d="M1302.815,2821.48a1.5,1.5,0,1,1-.21.074A1.493,1.493,0,0,1,1302.815,2821.48Zm1.465,1.157a1.106,1.106,0,0,0-1.359-.774h0a1.106,1.106,0,0,0,.585,2.133,1.13,1.13,0,0,0,.153-.054A1.108,1.108,0,0,0,1304.28,2822.637Z" transform="translate(-1296.796 -2816.512)" fill="#8fcce9"/>
            <path id="Path_4362" data-name="Path 4362" d="M1244.334,2761.663a3.771,3.771,0,0,0-.963.612l-.026.022a.2.2,0,0,0-.05.229.2.2,0,0,0,.034.052.2.2,0,0,0,.281.016,3.366,3.366,0,0,1,.58-.415h0l.034-.019a3.315,3.315,0,0,1,1.585-.417,3.368,3.368,0,0,1,.894.115l.007,0,.022.006a3.324,3.324,0,0,1,2.019,1.576,3.423,3.423,0,0,1,.154.308,3.347,3.347,0,0,1-5.98,2.99,3.344,3.344,0,0,1-.434-1.729.2.2,0,0,0-.017-.085.2.2,0,0,0-.381.075,3.745,3.745,0,1,0,7.176-1.41,3.838,3.838,0,0,0-.172-.344A3.75,3.75,0,0,0,1244.334,2761.663Z" transform="translate(-1239.391 -2758.664)" fill="#8fcce9"/>
          </g>
        </g>
      </g>
      <g id="Group_6973" data-name="Group 6973" transform="translate(469.527 465.755)">
        <path id="Path_4407" data-name="Path 4407" d="M14.542,0A14.542,14.542,0,1,1,0,14.542,14.542,14.542,0,0,1,14.542,0Z" transform="translate(2.049 66.662)" fill="#9bd5f1"/>
        <g id="Group_6957" data-name="Group 6957" transform="translate(22.101 73.467)">
          <path id="Path_4363" data-name="Path 4363" d="M1067.087,2529.853s7.111,6.78,14.451,4.834l.769.929s-9.09,5.486-17.048-.746Z" transform="translate(-1065.258 -2529.853)" fill="#0089de"/>
        </g>
        <path id="Path_4364" data-name="Path 4364" d="M719,2523.688a23.806,23.806,0,0,1-8.031-13.893,8.081,8.081,0,0,1,8.266-9.314,28.148,28.148,0,0,1,6.614,1.084s-3.508,8.491.991,19.865C726.844,2521.43,721.981,2524.241,719,2523.688Z" transform="translate(-701.923 -2428.098)" fill="#009eff"/>
        <path id="Path_4365" data-name="Path 4365" d="M855.831,2364.1l-1.346,5.017a.984.984,0,0,0,.56,1.158,3.353,3.353,0,0,0,3.131-.036,1.338,1.338,0,0,0,.618-1.045l.279-4.18Z" transform="translate(-840.17 -2296.78)" fill="url(#linear-gradient-2)"/>
        <circle id="Ellipse_181" data-name="Ellipse 181" cx="14.542" cy="14.542" r="14.542" transform="translate(0 1.78)" fill="#9bd5f1"/>
        <path id="Path_4406" data-name="Path 4406" d="M14.542,0A14.542,14.542,0,1,1,0,14.542,14.542,14.542,0,0,1,14.542,0Z" transform="translate(73.53 1.78)" fill="#9bd5f1"/>
        <path id="Path_4408" data-name="Path 4408" d="M14.542,0A14.542,14.542,0,1,1,0,14.542,14.542,14.542,0,0,1,14.542,0Z" transform="translate(70.456 70.192)" fill="#9bd5f1"/>
        <g id="Group_6960" data-name="Group 6960" transform="translate(3.103 0.556)">
          <g id="Group_6958" data-name="Group 6958" transform="translate(16.396 12.864)">
            <path id="Path_4366" data-name="Path 4366" d="M995.54,911.256c.743-.168,3.544,9.065,11.891,4.138l.649,1.524s-7.01,7.316-12.949.186Z" transform="translate(-995.131 -911.254)" fill="url(#linear-gradient-3)"/>
            <path id="Path_4367" data-name="Path 4367" d="M1324.2,978.877a1.091,1.091,0,0,0-.518-.791l-2.77-1.671s.017-.387.729-.537a.9.9,0,0,0,.677-.926s-.984.27-2.432.715a3.181,3.181,0,0,0-1.677,1.321l.6,1.126a13.73,13.73,0,0,0,5.466,1.332Z" transform="translate(-1306.219 -972.59)" fill="url(#linear-gradient-4)"/>
          </g>
          <path id="Path_4368" data-name="Path 4368" d="M696.829,874.2c-.255.11,1.264,9.93-.387,16.377a13.6,13.6,0,0,0,6.123,1.342s5.945-9.136,6.1-10.181c.176-1.185-.734-7.26-.734-7.26A12.523,12.523,0,0,0,696.829,874.2Z" transform="translate(-691.127 -861.613)" fill="#0fa4ff"/>
          <path id="Path_4369" data-name="Path 4369" d="M817.775,878.35c2.938.1,3.172-2.418,3-4.1a12.384,12.384,0,0,0-6.667-1.1C814.052,874.583,814.247,878.231,817.775,878.35Z" transform="translate(-804.424 -861.628)" fill="url(#linear-gradient-5)"/>
          <path id="Path_4370" data-name="Path 4370" d="M872.753,756.644s-1.459,3.084-2.312,4.384a.892.892,0,0,0,.181,1.181,3.248,3.248,0,0,0,2.081.665.947.947,0,0,0,.919-.7l.962-3.523Z" transform="translate(-858.53 -749.516)" fill="url(#linear-gradient-6)"/>
          <g id="Group_6959" data-name="Group 6959">
            <path id="Path_4371" data-name="Path 4371" d="M939.885,667.021a5.863,5.863,0,0,1-.118,3.934c-.794,2.373-2.092,2.58-2.913,1.993a4.679,4.679,0,0,1-2.02-3.785C934.7,667.014,938.954,665.047,939.885,667.021Z" transform="translate(-920.671 -662.433)" fill="url(#linear-gradient-7)"/>
            <path id="Path_4372" data-name="Path 4372" d="M899.881,606.959s1.434-3.212,3.585-1.211l.166.827s2.048-.584,1.375-2.44a3.762,3.762,0,0,0-5.311-1.912c-2.191,1.2-2.935,2.62-2.818,4.309s1.384,1.111,1.384,1.111.244-1.242.839-1.463.582.72.582.72Z" transform="translate(-884.115 -600.369)" fill="#37474f"/>
            <path id="Path_4373" data-name="Path 4373" d="M939.52,698.876s.747-1.647-.3-1.706-.62,1.588-.412,2.188Z" transform="translate(-924.248 -692.247)" fill="url(#linear-gradient-8)"/>
            <path id="Path_4374" data-name="Path 4374" d="M567.858,567.554a.735.735,0,0,0,.423-1.231c-1.287-1.406-3.716-2.966-7.176-.572-3.9,2.7-6.007,3.916-6.964,3.66a.738.738,0,0,0-.879,1.033,3.133,3.133,0,0,0,1.493,1.283C561.127,574.871,564.421,567.973,567.858,567.554Z" transform="translate(-553.18 -564.509)" fill="#37474f"/>
          </g>
        </g>
        <path id="Path_4375" data-name="Path 4375" d="M2403.639,875.35s-5.574,10.079-13.559,10.808l-.426,1.2s11,2.149,16.641-6.916Z" transform="translate(-2318.42 -863.263)" fill="#0089de"/>
        <path id="Path_4376" data-name="Path 4376" d="M2439.908,2531.477s-1.746,4.589,1.443,6.956,8.3-3.51,8.3-3.51l-2.823,7.229s-3.772,2.413-7.706-1.6-1.207-9.46-1.207-9.46a2.624,2.624,0,0,1-1.1-3.909.232.232,0,0,1,.425.074,3.834,3.834,0,0,0,1.6,2.635C2440.309,2530.66,2439.908,2531.477,2439.908,2531.477Z" transform="translate(-2363.343 -2453.709)" fill="url(#linear-gradient-9)"/>
        <path id="Path_4377" data-name="Path 4377" d="M2145.886,1164.583l-.142-.044.1.054A.286.286,0,0,0,2145.886,1164.583Z" transform="translate(-2083.558 -1141.723)" fill="url(#linear-gradient-10)"/>
        <path id="Path_4378" data-name="Path 4378" d="M2536.866,1167.663c.2.337.1-.348-.2-1.593A2.026,2.026,0,0,0,2536.866,1167.663Z" transform="translate(-2459.9 -1143.197)" fill="url(#linear-gradient-11)"/>
        <g id="Group_6964" data-name="Group 6964" transform="translate(16.622 11.919)">
          <g id="Group_6961" data-name="Group 6961" transform="translate(0 0.152)">
            <path id="Path_4379" data-name="Path 4379" d="M987.773,922.074a1.915,1.915,0,0,1-1.886-2.537,16.485,16.485,0,0,0,.9-5.635c-.074-5.109-4.386-8.711-9.967-7.563-5.53,1.137-6.571,6.119-5.765,8.465a24.348,24.348,0,0,0,3.189,5.033,1.881,1.881,0,0,1-1.318,3.036l-14.777.794-.773-13.065a1.316,1.316,0,0,0-2.1-1.044,8.069,8.069,0,0,1-6.855,1.367c-6.055-1.3-6.077-7.058-5.078-9.956.843-2.445,6.511-5.672,10.844-2.81a1.339,1.339,0,0,0,2.047-1.269l-.821-16.488a36.342,36.342,0,0,0-32.289,42.3l14.143.168a.677.677,0,0,1,.535,1.141,5.28,5.28,0,0,0-1.476,4.24c.285,4.018,3.911,5.543,7.918,3.849,3.991-1.688,5.035-6.185,1.091-9.328l12.7.255.085,9.969a1.5,1.5,0,0,0,2.295,1.171c4.9-3.081,9.563.676,9.806,3.638.282,3.439-1.641,6.86-5.861,6.444a12.816,12.816,0,0,1-4.368-1.216,1.435,1.435,0,0,0-2.118,1.206l.07,8.617q.489.013.982.014a36.327,36.327,0,0,0,35.957-31.181Z" transform="translate(-922.415 -880.197)" fill="#009eff"/>
            <path id="Path_4380" data-name="Path 4380" d="M954.083,947.759c-.316,0-.648,0-.987-.014l-.18,0-.072-8.8a1.514,1.514,0,0,1,.719-1.3,1.705,1.705,0,0,1,1.667-.08,12.6,12.6,0,0,0,4.3,1.2,4.907,4.907,0,0,0,4.065-1.271,6.275,6.275,0,0,0,1.593-4.972,5.451,5.451,0,0,0-3.1-3.959,6.328,6.328,0,0,0-6.418.464,1.712,1.712,0,0,1-1.731.035,1.568,1.568,0,0,1-.849-1.362l-.083-9.787-11.992-.241a5.613,5.613,0,0,1,2.1,4.963,5.713,5.713,0,0,1-3.644,4.34,6.548,6.548,0,0,1-5.966-.032,4.877,4.877,0,0,1-2.211-3.976,5.486,5.486,0,0,1,1.529-4.383.451.451,0,0,0,.106-.5.544.544,0,0,0-.511-.327l-14.3-.17-.026-.153a36.881,36.881,0,0,1-.524-6.184,36.51,36.51,0,0,1,32.979-36.337l.194-.019.831,16.683a1.587,1.587,0,0,1-.781,1.483,1.453,1.453,0,0,1-1.555-.049,7.246,7.246,0,0,0-6.367-.635c-2,.679-3.763,2.088-4.2,3.35a8.553,8.553,0,0,0,.407,6.633,6.462,6.462,0,0,0,4.533,3.08,7.918,7.918,0,0,0,6.7-1.333,1.438,1.438,0,0,1,1.493-.17,1.575,1.575,0,0,1,.9,1.351l.762,12.88,14.592-.784a1.594,1.594,0,0,0,1.373-.946,1.743,1.743,0,0,0-.193-1.79,22.88,22.88,0,0,1-3.217-5.085,6.662,6.662,0,0,1,.682-5.139,7.441,7.441,0,0,1,5.221-3.569,8.622,8.622,0,0,1,7.279,1.533,7.933,7.933,0,0,1,2.912,6.21,16.615,16.615,0,0,1-.906,5.7,1.727,1.727,0,0,0,.257,1.606,1.692,1.692,0,0,0,1.443.683l7.333-.394-.032.225a36.514,36.514,0,0,1-36.142,31.341Zm-.8-.382c.273.006.541.009.8.009a36.28,36.28,0,0,0,35.74-30.8l-6.88.37-.01-.186.01.186a2.068,2.068,0,0,1-1.761-.831,2.1,2.1,0,0,1-.311-1.953,16.242,16.242,0,0,0,.886-5.572,7.566,7.566,0,0,0-2.773-5.925,8.257,8.257,0,0,0-6.97-1.458,7.079,7.079,0,0,0-4.972,3.388,6.268,6.268,0,0,0-.653,4.833,22.978,22.978,0,0,0,3.161,4.981,2.115,2.115,0,0,1,.235,2.173,1.961,1.961,0,0,1-1.692,1.162l-14.706.79.078,9.149a1.2,1.2,0,0,0,.655,1.038,1.339,1.339,0,0,0,1.354-.024,6.689,6.689,0,0,1,6.783-.481,5.753,5.753,0,0,1,3.308,4.262,6.65,6.65,0,0,1-1.7,5.269,5.266,5.266,0,0,1-4.363,1.376,12.977,12.977,0,0,1-4.431-1.234,1.334,1.334,0,0,0-1.3.06,1.129,1.129,0,0,0-.545.977ZM918.442,917.22l13.987.167a.914.914,0,0,1,.85.559.824.824,0,0,1-.185.9,5.122,5.122,0,0,0-1.423,4.1,4.458,4.458,0,0,0,2.034,3.684,6.188,6.188,0,0,0,5.626.006,5.346,5.346,0,0,0,3.42-4.048,5.436,5.436,0,0,0-2.372-4.963l-.431-.343,13.122.264-.724-12.229a1.188,1.188,0,0,0-.685-1.034,1.072,1.072,0,0,0-1.112.128,8.28,8.28,0,0,1-7.007,1.4,6.818,6.818,0,0,1-4.78-3.261,8.94,8.94,0,0,1-.435-6.938c.477-1.384,2.3-2.857,4.431-3.582a7.61,7.61,0,0,1,6.692.677,1.087,1.087,0,0,0,1.163.037,1.217,1.217,0,0,0,.595-1.14L950.4,875.3a35.97,35.97,0,0,0-32.448,35.947A36.5,36.5,0,0,0,918.442,917.22Z" transform="translate(-917.576 -874.896)" fill="#fff"/>
          </g>
          <g id="Group_6962" data-name="Group 6962" transform="translate(0.521 42.473)">
            <path id="Path_4381" data-name="Path 4381" d="M973.521,2041.04a12.826,12.826,0,0,0,4.368,1.216c4.22.415,6.143-3.006,5.861-6.445-.243-2.962-4.9-6.719-9.806-3.638a1.5,1.5,0,0,1-2.295-1.171l-.085-9.969-12.7-.255c3.943,3.143,2.9,7.64-1.092,9.328-4.007,1.695-7.633.169-7.918-3.849a5.279,5.279,0,0,1,1.476-4.24.677.677,0,0,0-.535-1.142l-14.143-.168a36.331,36.331,0,0,0,34.818,30.155l-.07-8.617A1.435,1.435,0,0,1,973.521,2041.04Z" transform="translate(-936.469 -2020.522)" fill="#00b9ff"/>
            <path id="Path_4382" data-name="Path 4382" d="M966.633,2046.208h-.005a36.559,36.559,0,0,1-35-30.31.187.187,0,0,1,.042-.152.181.181,0,0,1,.144-.065l14.143.168a.914.914,0,0,1,.851.559.825.825,0,0,1-.185.9,5.122,5.122,0,0,0-1.424,4.1,4.457,4.457,0,0,0,2.034,3.684,6.187,6.187,0,0,0,5.626.006,5.345,5.345,0,0,0,3.42-4.047,5.436,5.436,0,0,0-2.372-4.963.186.186,0,0,1,.116-.332h0l12.7.255a.186.186,0,0,1,.183.185l.085,9.969a1.2,1.2,0,0,0,.655,1.038,1.338,1.338,0,0,0,1.354-.024,6.688,6.688,0,0,1,6.783-.481,5.753,5.753,0,0,1,3.308,4.262,6.65,6.65,0,0,1-1.7,5.269,5.266,5.266,0,0,1-4.362,1.376,12.976,12.976,0,0,1-4.431-1.234h0a1.334,1.334,0,0,0-1.3.06,1.129,1.129,0,0,0-.545.978l.07,8.617a.187.187,0,0,1-.186.188Zm-34.6-30.152a36.185,36.185,0,0,0,34.408,29.774l-.069-8.424a1.514,1.514,0,0,1,.719-1.3,1.705,1.705,0,0,1,1.667-.08h0a12.6,12.6,0,0,0,4.3,1.2,4.908,4.908,0,0,0,4.065-1.271,6.276,6.276,0,0,0,1.593-4.972,5.45,5.45,0,0,0-3.1-3.959,6.326,6.326,0,0,0-6.418.464,1.713,1.713,0,0,1-1.732.035,1.568,1.568,0,0,1-.849-1.363l-.083-9.787-11.992-.241a5.613,5.613,0,0,1,2.1,4.963,5.713,5.713,0,0,1-3.644,4.34,6.549,6.549,0,0,1-5.966-.032,4.877,4.877,0,0,1-2.211-3.976,5.484,5.484,0,0,1,1.529-4.383.451.451,0,0,0,.106-.5.545.545,0,0,0-.511-.327Z" transform="translate(-931.629 -2015.679)" fill="#fff"/>
          </g>
          <g id="Group_6963" data-name="Group 6963" transform="translate(20.254)">
            <path id="Path_4383" data-name="Path 4383" d="M1479.837,893.761c-4.333-2.862-10,.364-10.844,2.81-1,2.9-.977,8.655,5.078,9.956a8.069,8.069,0,0,0,6.855-1.367,1.316,1.316,0,0,1,2.1,1.044l.773,13.065,14.777-.794a1.881,1.881,0,0,0,1.318-3.036,24.345,24.345,0,0,1-3.189-5.033c-.806-2.346.235-7.327,5.765-8.464,5.58-1.148,9.893,2.454,9.967,7.563a16.488,16.488,0,0,1-.9,5.636,1.915,1.915,0,0,0,1.886,2.536l7.107-.382a36.349,36.349,0,0,0-25.092-39.807.3.3,0,0,1-.043.01l-.1-.054a36.311,36.311,0,0,0-10.723-1.61c-1.184,0-2.355.059-3.51.169l.822,16.488A1.339,1.339,0,0,1,1479.837,893.761Z" transform="translate(-1468.32 -875.648)" fill="#00b9ff"/>
            <path id="Path_4384" data-name="Path 4384" d="M1478.994,914.616a.186.186,0,0,1-.186-.176l-.773-13.065a1.188,1.188,0,0,0-.685-1.034,1.072,1.072,0,0,0-1.112.128,8.28,8.28,0,0,1-7.007,1.4,6.817,6.817,0,0,1-4.78-3.261,8.94,8.94,0,0,1-.435-6.938c.477-1.384,2.3-2.857,4.431-3.582a7.611,7.611,0,0,1,6.692.677h0a1.087,1.087,0,0,0,1.163.037,1.217,1.217,0,0,0,.595-1.14l-.822-16.49a.187.187,0,0,1,.168-.195c1.179-.113,2.366-.17,3.528-.17a36.515,36.515,0,0,1,10.777,1.618.187.187,0,0,1,.034.014l.04.022a.186.186,0,0,1,.069.008,36.523,36.523,0,0,1,25.587,34.845,36.956,36.956,0,0,1-.365,5.166.187.187,0,0,1-.175.16l-7.107.382a2.068,2.068,0,0,1-1.76-.831,2.1,2.1,0,0,1-.312-1.953,16.239,16.239,0,0,0,.886-5.572,7.566,7.566,0,0,0-2.773-5.925,8.256,8.256,0,0,0-6.97-1.458,7.079,7.079,0,0,0-4.972,3.388,6.269,6.269,0,0,0-.653,4.833,22.98,22.98,0,0,0,3.161,4.981,2.116,2.116,0,0,1,.234,2.173,1.961,1.961,0,0,1-1.692,1.162l-14.777.794Zm-2.1-14.748a1.455,1.455,0,0,1,.609.135,1.575,1.575,0,0,1,.9,1.351l.762,12.88,14.592-.784a1.594,1.594,0,0,0,1.373-.946,1.743,1.743,0,0,0-.193-1.79,22.868,22.868,0,0,1-3.217-5.085,6.661,6.661,0,0,1,.682-5.139,7.441,7.441,0,0,1,5.221-3.569,8.622,8.622,0,0,1,7.279,1.533,7.932,7.932,0,0,1,2.912,6.21,16.612,16.612,0,0,1-.906,5.7,1.726,1.726,0,0,0,.257,1.606,1.692,1.692,0,0,0,1.443.683l6.953-.374a36.582,36.582,0,0,0,.341-4.962,35.978,35.978,0,0,0-25.277-34.474l-.019,0a.185.185,0,0,1-.106-.022l-.083-.045a36.148,36.148,0,0,0-10.65-1.6c-1.092,0-2.207.051-3.315.152l.813,16.31a1.587,1.587,0,0,1-.781,1.483,1.454,1.454,0,0,1-1.555-.049h0a7.246,7.246,0,0,0-6.366-.635c-2,.679-3.763,2.088-4.2,3.35a8.553,8.553,0,0,0,.407,6.633,6.462,6.462,0,0,0,4.533,3.08,7.92,7.92,0,0,0,6.7-1.333A1.455,1.455,0,0,1,1476.9,899.867Z" transform="translate(-1463.518 -870.808)" fill="#fff"/>
          </g>
        </g>
        <g id="Group_6967" data-name="Group 6967" transform="translate(79.889 0)">
          <path id="Path_4385" data-name="Path 4385" d="M2750.108,862.144s-5.68-16.589-1.612-19.8c0,0,6.1-.984,10.529.7v16.344S2754.915,863.2,2750.108,862.144Z" transform="translate(-2742.426 -831.202)" fill="#009eff"/>
          <path id="Path_4386" data-name="Path 4386" d="M2819.128,678.854a17,17,0,0,1,.994,3.436,1.016,1.016,0,0,0,.844.867,4.284,4.284,0,0,0,3.47-.626.713.713,0,0,0,.187-.767c-.393-1.1-2.437-5.684-3.552-6.386Z" transform="translate(-2811.85 -670.708)" fill="url(#linear-gradient-12)"/>
          <g id="Group_6965" data-name="Group 6965" transform="translate(0 11.836)">
            <path id="Path_4387" data-name="Path 4387" d="M2632.858,1173.5c.634-.691-1.7,2.008-1.708,2.015a6.436,6.436,0,0,1-3.476,2.614s-.926-1.539-2.114-1.589c-.865-.036-1.975.98-2.514,1.535a.362.362,0,0,0,.09.572l2.224,1.195s6.723.378,10.169-3.2C2634.919,1174.407,2633.736,1173.582,2632.858,1173.5Z" transform="translate(-2622.944 -1162.081)" fill="url(#linear-gradient-13)"/>
            <path id="Path_4388" data-name="Path 4388" d="M2851.12,868.566c-3.266,1.158-3.406,7.008-3.406,7.008s-2.525,3.084-5,5.994a.168.168,0,0,0,.108.276,3.345,3.345,0,0,1,2.951,2.228.186.186,0,0,0,.3.076.355.355,0,0,1,.042-.03C2855.661,878.485,2851.12,868.566,2851.12,868.566Z" transform="translate(-2834.52 -868.566)" fill="#0089de"/>
          </g>
          <g id="Group_6966" data-name="Group 6966" transform="translate(2.003)">
            <path id="Path_4389" data-name="Path 4389" d="M2722.862,606.29c0,.1,2.139,6.055,2.139,6.055l3.377-1.294-1.188-5.949S2722.862,604.687,2722.862,606.29Z" transform="translate(-2721.158 -602.994)" fill="url(#linear-gradient-14)"/>
            <path id="Path_4390" data-name="Path 4390" d="M2682.375,553.092l.871,3.083a.445.445,0,0,1,.017.12c0,.251-.062,1.117-.943,1a4.024,4.024,0,0,0-2,.027.448.448,0,0,0-.231.556,19.454,19.454,0,0,0,1.216,2.745.447.447,0,0,0,.574.184,14.418,14.418,0,0,0,2.9-1.7.448.448,0,0,0,.158-.43c-.148-.789-.589-3.187-.608-3.875-.018-.645.705-1.138,1.024-1.323a.443.443,0,0,0,.207-.278,1.16,1.16,0,0,0-1.014-1.562.448.448,0,0,1-.364-.533,1.162,1.162,0,0,0-.874-1.5,1.638,1.638,0,0,0-1.868.746.448.448,0,0,1-.555.148.354.354,0,0,0-.4.071.441.441,0,0,1-.645-.1,1.336,1.336,0,0,0-1.647-.544c-1.525.494-1.453,2.253-.893,3.209s2.183.327,2.951-.307a1.914,1.914,0,0,1,1.867-.028A.443.443,0,0,1,2682.375,553.092Z" transform="translate(-2676.936 -549.534)" fill="#364056"/>
            <path id="Path_4391" data-name="Path 4391" d="M2870.252,656.262s-.733-1.73-.136-2.266,1.43-.352,1.4.983C2871.486,656.641,2870.252,656.262,2870.252,656.262Z" transform="translate(-2862.725 -649.851)" fill="url(#linear-gradient-15)"/>
          </g>
        </g>
        <g id="Group_6968" data-name="Group 6968" transform="translate(68.28 68.063)">
          <path id="Path_4392" data-name="Path 4392" d="M2690.588,2387.645s-1.1-4.31,3.909-3.308c0,0,2.4-.465,2.591,1.808a2.121,2.121,0,0,1,.5,2.984s4.569-1.921,6.7,2.071.348,6.275-1.576,6.913a1.934,1.934,0,0,1,.9,2.547c-.692,1.8-4.424,3.171-6.714,1.069,0,0-6.31,1.024-6.315-3.454,0,0-3-1.815-.017-5.6S2690.588,2387.645,2690.588,2387.645Z" transform="translate(-2675.185 -2384.185)" fill="#37474f"/>
          <path id="Path_4393" data-name="Path 4393" d="M2631.115,2740.319a6.82,6.82,0,0,1,6.723,1.5,1.712,1.712,0,0,1,.544,1.692c-.662,2.757-2.44,10.027-.619,13.472,0,0-3.386,2.13-6.52,1.018,0,0-1.412-5.733-3.437-8.512-1.4-1.919,1.922-7.417,2.763-8.746A1.031,1.031,0,0,1,2631.115,2740.319Z" transform="translate(-2615.69 -2726.794)" fill="#009eff"/>
          <path id="Path_4394" data-name="Path 4394" d="M2744.958,2600.089a34.037,34.037,0,0,1,1.765,5.974,3.16,3.16,0,0,1-3.185-.417,46.48,46.48,0,0,0-.54-4.909Z" transform="translate(-2726.935 -2592.079)" fill="#febbba"/>
          <path id="Path_4395" data-name="Path 4395" d="M2680.651,2446.71s-3.7,5.52-1.348,7.022,4.993-2.42,4.993-2.42.809-2.986-.158-3.962S2680.651,2446.71,2680.651,2446.71Z" transform="translate(-2664.847 -2444.337)" fill="#febbba"/>
          <path id="Path_4396" data-name="Path 4396" d="M2731.256,2409.428s-1.762.473-1.987,1.283,2.563,1.474,3.338,1.487l.72,3.222s1.756-3.1.973-4.842S2731.256,2409.428,2731.256,2409.428Z" transform="translate(-2713.702 -2408.399)" fill="#37474f"/>
          <path id="Path_4397" data-name="Path 4397" d="M2813.728,2535.193s1.452-1.785,2.084-.668-1.295,2.028-1.987,1.49Z" transform="translate(-2795.041 -2528.594)" fill="#febbba"/>
          <path id="Path_4398" data-name="Path 4398" d="M2310.009,2600.27s.656.866,1.024.851c.955-.04,2.7.048,3.409.736.982.953,1.515,3.9,2.482,6.3s5.057,5.133,7.609,4.1,3.946-5.616,6.372-5.762,2.317,4.167.274,5.63c-1.325.949-7.792,6.068-12.729,2.5s-4.967-10.727-4.967-10.727a19.826,19.826,0,0,1-2.432-1.178C2310.229,2602.195,2310.009,2600.27,2310.009,2600.27Z" transform="translate(-2310.009 -2592.254)" fill="#febbba"/>
        </g>
        <g id="Group_6970" data-name="Group 6970" transform="translate(8.053 13.122)">
          <path id="Path_4399" data-name="Path 4399" d="M686.612,906.388s-.085,1.837,1.37,8.46c1.538,7,13.79,3.576,13.79,3.576l-.268-1.713s-8.419.095-9.544-1.591c-.825-1.236-.861-4.374-.761-5.931.05-.774-1.889-6.347-3.837-5.935A4.654,4.654,0,0,0,686.612,906.388Z" transform="translate(-686.609 -903.232)" fill="url(#linear-gradient-16)"/>
          <g id="Group_6969" data-name="Group 6969" transform="translate(14.531 12.157)">
            <path id="Path_4400" data-name="Path 4400" d="M1078.6,1234.558a7.767,7.767,0,0,1-.254-2.372c.172-.621.5-1.419,1.614-1.242a16.215,16.215,0,0,1,2.417.645.635.635,0,0,1-.909.548l.523.4s-.075.648-.786.3l.486.536a.567.567,0,0,1-.83.191C1080.337,1233.229,1080.086,1234.769,1078.6,1234.558Z" transform="translate(-1078.306 -1230.919)" fill="url(#linear-gradient-17)"/>
          </g>
        </g>
        <g id="Group_6971" data-name="Group 6971" transform="translate(10.617 75.844)">
          <path id="Path_4401" data-name="Path 4401" d="M781.287,2599.682s-13.5,1.984-18.988-4.176c-5.638-4.289-9.434,1.121-3.848,4.6,0,0,10.367,9.537,22.6.943Z" transform="translate(-755.71 -2593.924)" fill="#0089de"/>
          <path id="Path_4402" data-name="Path 4402" d="M1420.97,2645.4a1.615,1.615,0,0,0,1.409-1.879c-.314-1.7,1.792-2.077.888-3.427a.251.251,0,0,0-.3-.1,4.1,4.1,0,0,0-2.635,4.48Z" transform="translate(-1395.629 -2638.269)" fill="url(#linear-gradient-18)"/>
        </g>
        <g id="Group_6972" data-name="Group 6972" transform="translate(12.718 59.071)">
          <path id="Path_4403" data-name="Path 4403" d="M862.443,2221.738s3.119,5.051,1.162,6.794-5.4-2.957-5.4-2.957S857.277,2219.862,862.443,2221.738Z" transform="translate(-856.444 -2218.408)" fill="url(#linear-gradient-19)"/>
          <path id="Path_4404" data-name="Path 4404" d="M815.288,2150.038a1.415,1.415,0,0,1-2.135.5c-1.232-.893-.939-1.973.111-2.535,0,0-.849-.12-.627-.891a.741.741,0,0,1,.935-.559s-1.523-4.2,2.3-4.695,3.962,1.752,3.926,2.458-1.395,2.206-3.694,1.988a.961.961,0,0,1,.4,1.2c-.294.829-1.653,1.646-1.653,1.646Z" transform="translate(-812.346 -2141.791)" fill="#364056"/>
          <path id="Path_4405" data-name="Path 4405" d="M865.849,2333.625s-.972-1.557-1.627-.668c-.844,1.146,1.374,1.367,1.374,1.367Z" transform="translate(-862.112 -2325.601)" fill="url(#linear-gradient-20)"/>
        </g>
      </g>
    </g>
  </g>
</svg>
