<svg xmlns="http://www.w3.org/2000/svg" width="476.888" height="282.913" viewBox="0 0 476.888 282.913">
  <g id="Group_7176" data-name="Group 7176" transform="translate(0)">
    <ellipse id="Ellipse_20" data-name="Ellipse 20" cx="235" cy="1.5" rx="235" ry="1.5" transform="translate(0 279.913)" fill="#0072b8" opacity="0.16"/>
    <g id="illu_01" data-name="illu 01" transform="translate(256.656 0)">
      <g id="Group_82" data-name="Group 82" transform="translate(0.544)">
        <g id="Group_70" data-name="Group 70" transform="translate(79.666 49.291)">
          <path id="Path_110" data-name="Path 110" d="M403.132,232.38A33.756,33.756,0,0,1,415.6,214.474l2.4-1.774-2.06,42.393L400.1,242.821Z" transform="translate(-352.186 -212.7)" fill="#009eff"/>
          <path id="Path_111" data-name="Path 111" d="M407.3,358.891,410.818,352a7.1,7.1,0,0,1,4.377-3.576l10.355-2.861,26.66-17.02,3-10.441,15.847,12.272-.143,2.975a15.679,15.679,0,0,1-9.44,13.645L435.59,358.147l-12.3.286c-3.976,1.373-5.321,4.777-7.781,3.547-.915-.458,2.66-6.35,2.66-6.35l-5.95,6.551Z" transform="translate(-407.3 -287.95)" fill="#fbbb96"/>
          <rect id="Rectangle_62" data-name="Rectangle 62" width="5.378" height="0.83" transform="matrix(-0.647, -0.762, 0.762, -0.647, 48.073, 44.964)" fill="#d28573"/>
        </g>
        <g id="Group_72" data-name="Group 72" transform="translate(62.188 135.596)">
          <path id="Path_112" data-name="Path 112" d="M516.071,516.208l-19.394-1.716c-12.615-1.115-23.6,9.068-24.2,22.484L468.1,632.459l26.746.83Z" transform="translate(-452.224 -514.408)" fill="#19325a"/>
          <g id="Group_71" data-name="Group 71" transform="translate(0 115.334)">
            <path id="Path_113" data-name="Path 113" d="M590.348,920.2l-.83,26.374H549.9l19.538-16.248,1.23-12.729Z" transform="translate(-549.9 -917.6)" fill="#1a1b43"/>
            <rect id="Rectangle_63" data-name="Rectangle 63" width="10.527" height="1.631" transform="translate(27.388 19.794) rotate(-142.39)" fill="#fff"/>
          </g>
        </g>
        <g id="Group_74" data-name="Group 74" transform="translate(71.198 124.123)">
          <g id="Group_73" data-name="Group 73" transform="translate(0 126.807)">
            <path id="Path_114" data-name="Path 114" d="M558.848,920.2l-.8,26.374H518.4l19.537-16.248,1.23-12.729Z" transform="translate(-518.4 -917.6)" fill="#d3d0e9"/>
            <rect id="Rectangle_64" data-name="Rectangle 64" width="10.527" height="1.631" transform="translate(27.39 19.788) rotate(-142.39)" fill="#fff"/>
          </g>
          <path id="Path_115" data-name="Path 115" d="M199.509,606.313h32.81L255.69,534.4l3.261-10.069,46.741-.2a12.763,12.763,0,0,0,7.981-3.347,19,19,0,0,0,6.379-17.249L315.961,474.3l-69.425,9.039a31.2,31.2,0,0,0-26.517,24.572Z" transform="translate(-188.582 -474.3)" fill="#364d72"/>
          <path id="Path_116" data-name="Path 116" d="M413.7,649.1l6.35,10.069,3.29-10.069Z" transform="translate(-352.943 -599.098)" fill="#1a1b43"/>
        </g>
        <g id="Group_75" data-name="Group 75" transform="translate(135.735 46.831)">
          <path id="Path_117" data-name="Path 117" d="M181.251,276.1c.343,1.344.687,2.718,1.058,4.062l2.46,10.04,32.381-1.344,23.313-.973a10.034,10.034,0,0,0,9.411-12.043l-10.87-52.319a19.888,19.888,0,0,0-17.592-16.677l-26.6-2.746-8.61,2.46c-8.41,4.52-8.41,12.672-8.81,18.05C175.616,248.038,177.79,262.226,181.251,276.1Z" transform="translate(-176.449 -204.1)" fill="#009eff"/>
          <path id="Path_118" data-name="Path 118" d="M244.015,360.228c.343,1.344-21.282,4.377-20.91,5.75l2.46,10.041,32.381-1.345c11.328-8.524,15.561-27.118,19.68-50.374Z" transform="translate(-217.244 -289.916)" fill="#1a1b43" opacity="0.3"/>
          <path id="Path_119" data-name="Path 119" d="M337.2,257a19.437,19.437,0,0,1-4.834,3.833,15.543,15.543,0,0,1-5.778,1.945,9.9,9.9,0,0,1-5.893-.858,6.059,6.059,0,0,1-3.175-4.834l-.315.029a6.739,6.739,0,0,0,.8,3.118,6.211,6.211,0,0,0,2.317,2.317,10.186,10.186,0,0,0,6.35,1.058,16.064,16.064,0,0,0,6.036-2.145,17.2,17.2,0,0,0,4.748-4.234Z" transform="translate(-303.987 -241.868)" fill="#1a1b43"/>
          <path id="Path_120" data-name="Path 120" d="M425.326,293.264l.6-.057c-.6-8.238,0-18.393,1.774-30.121l-.6-.086C425.326,274.785,424.725,284.969,425.326,293.264Z" transform="translate(-425.1 -246.152)" fill="#1a1b43"/>
        </g>
        <g id="Group_76" data-name="Group 76" transform="translate(0 75.208)">
          <rect id="Rectangle_65" data-name="Rectangle 65" width="30.465" height="6.007" transform="translate(80.924 47.828)" fill="#1a1b43"/>
          <path id="Path_121" data-name="Path 121" d="M624.348,357.135h61.244L657.415,303.3H596.2Z" transform="translate(-596.2 -303.3)" fill="#7eceff"/>
        </g>
        <g id="Group_79" data-name="Group 79" transform="translate(132.275)">
          <path id="Path_122" data-name="Path 122" d="M224.211,44.165c7.18-7.065,20.71-4.091,20.51,7.781,14.76,3.89,15.59,20.081,9.64,28.405l-5.12.4-1.116-6.036-2.975,6.15-14.36.915Z" transform="translate(-194.294 -40.384)" fill="#1a1b43"/>
          <path id="Path_123" data-name="Path 123" d="M310.4,146.1v22.6a4.226,4.226,0,0,0,.029.6,7.593,7.593,0,0,0,9.468,6.751,15.257,15.257,0,0,0,11.442-14.9l-.114-15.046Z" transform="translate(-292.467 -115.86)" fill="#fbbb96"/>
          <path id="Path_124" data-name="Path 124" d="M332,174.774v12.815a4.231,4.231,0,0,0,.029.6c6.036-1,13.015-7.981,14.732-15.59Z" transform="translate(-314.069 -134.779)" fill="#f9a889"/>
          <path id="Path_125" data-name="Path 125" d="M310.8,101.924a43.238,43.238,0,0,0,1.287,5.378c1.8,5.721,5.034,10.5,10.841,9.669,13.616-1.945,21.225-15.99,21.225-15.99L334.83,90.31l-6.264-8.41L309.8,90A75.33,75.33,0,0,0,310.8,101.924Z" transform="translate(-305.113 -70.024)" fill="#fbbb96"/>
          <path id="Path_126" data-name="Path 126" d="M326.5,72.081c-5.978-.2-10.613-3.232-12.586-11.9,0,0-13.931,12.014-20.767,5.607-5.721-5.378,3.976-17.764,20.052-19.223a22.652,22.652,0,0,1,16.276,4.977c7.781,6.236,8.524,20.767,1.259,25.773Z" transform="translate(-291.488 -44.73)" fill="#1a1b43"/>
          <path id="Path_127" data-name="Path 127" d="M310.448,58.43a6.332,6.332,0,0,0-.544-4.319,9.68,9.68,0,0,0-2.8-3.461,10.127,10.127,0,0,0-4-1.888,7.157,7.157,0,0,0-4.319.343,27.961,27.961,0,0,1,3.719,1.487,19.451,19.451,0,0,1,5.835,4.548A18.658,18.658,0,0,1,310.448,58.43Z" transform="translate(-268.431 -46.239)" fill="#f9a125"/>
          <g id="Group_77" data-name="Group 77" transform="translate(30.358 21.356)">
            <ellipse id="Ellipse_18" data-name="Ellipse 18" cx="4.663" cy="5.635" rx="4.663" ry="5.635" transform="translate(8.658 13.929) rotate(-158.186)" fill="#fbbb96"/>
            <path id="Path_128" data-name="Path 128" d="M312.689,136.564a6.507,6.507,0,0,1,.172-2.8,7.136,7.136,0,0,1,1.488-2.4l-.2-.257a4.289,4.289,0,0,0-2.06,2.4,4.123,4.123,0,0,0,.286,3.147Z" transform="translate(-306.265 -126.507)" fill="#1a1b43"/>
          </g>
        </g>
        <g id="Group_81" data-name="Group 81" transform="translate(96.002 66.168)">
          <g id="Group_80" data-name="Group 80" transform="translate(0.045 5.75)">
            <path id="Path_136" data-name="Path 136" d="M230.194,291.8l19.537,9.3-6.122,14.532L223.1,306.16Z" transform="translate(-149.661 -291.8)" fill="#009eff"/>
            <path id="Path_137" data-name="Path 137" d="M541.6,465.83c.544-.257.887-.458.887-.458l-.2-.372s-.372.172-.887.458Z" transform="translate(-533.467 -415.456)" fill="#c7c4e2"/>
            <path id="Path_138" data-name="Path 138" d="M244.638,380.116c.629,1.259,5.464-.973,7.723-2.06-1.745.973-4.748,2.861-3.433,3.919,1.087.83,3.461-.944,11.242-4.176-1.173.544-8.152,3.862-6.379,5.12,1.917,1.373,10.1-1.631,10.1-1.631l7.123,3.833h8.21l29.492.2a21.827,21.827,0,0,0,5.464-.686,24.233,24.233,0,0,0,9.583-4.977,23.459,23.459,0,0,0,4.548-5.12,26.676,26.676,0,0,0,2.432-4.548l7.781-18.422L318.039,342.1l-10.7,21.711-35.27,7.666-9.84-2.46c-2.117-.543-5.12.372-6.98,1.487C250.759,373.251,244.037,378.915,244.638,380.116Z" transform="translate(-244.6 -327.712)" fill="#fbbb96"/>
          </g>
          <path id="Path_140" data-name="Path 140" d="M504.2,437.632a66.4,66.4,0,0,0-7.437-2.031,24.607,24.607,0,0,0-3.862-.544,11.371,11.371,0,0,0-1.974.057,9.692,9.692,0,0,0-.973.229c-.315.114-.629.229-.915.343a31.884,31.884,0,0,0-6.522,4.234,75.742,75.742,0,0,0-5.778,5.149l-.086.086-.029.114a1.323,1.323,0,0,0,.658,1.516,1.218,1.218,0,0,0,.515.172,4.217,4.217,0,0,0,1.831-.172,17.351,17.351,0,0,0,3.175-1.344c1-.544,2-1.087,2.946-1.688.973-.572,1.888-1.23,2.86-1.831l-.429-.687a46.261,46.261,0,0,0-4.863,3.232,12.218,12.218,0,0,0-2.2,2.031,2.5,2.5,0,0,0-.429.715,1.334,1.334,0,0,0-.086.486,1.37,1.37,0,0,0,.2.572,1.52,1.52,0,0,0,.829.458,3.853,3.853,0,0,0,.8.114h.086l.086-.029,8.9-3.719-.258-.629a30.905,30.905,0,0,0-4.062,2.2,5.406,5.406,0,0,0-1.773,1.659,1.017,1.017,0,0,0-.086.772,1.065,1.065,0,0,0,.515.544,3.208,3.208,0,0,0,1.23.286,17.383,17.383,0,0,0,4.577-.715q2.231-.6,4.377-1.373l-.114-.315a45.133,45.133,0,0,1-4.377,1.259,15.736,15.736,0,0,1-4.434.572c-.687-.029-1.516-.343-1.2-.8a5.03,5.03,0,0,1,1.573-1.4,29.567,29.567,0,0,1,4-2.088l-.258-.629-8.925,3.661.172-.029a3.717,3.717,0,0,1-.629-.086.852.852,0,0,1-.429-.2c-.114-.057.057-.486.315-.83a12.872,12.872,0,0,1,2.06-1.859,49.594,49.594,0,0,1,4.806-3.147l-.429-.686c-.944.6-1.859,1.259-2.832,1.831-.944.6-1.917,1.144-2.889,1.688a18.525,18.525,0,0,1-3.032,1.287,3.467,3.467,0,0,1-1.487.172l-.172-.029c-.057,0-.086-.057-.114-.057-.086-.029-.114-.114-.2-.143a.763.763,0,0,1-.086-.515l-.114.2a74.147,74.147,0,0,1,5.692-5.12,31.514,31.514,0,0,1,6.293-4.234l.858-.343c.286-.057.6-.143.887-.229a10.029,10.029,0,0,1,1.859-.057,28.334,28.334,0,0,1,3.776.458,65.718,65.718,0,0,1,7.437,1.859Z" transform="translate(-476.6 -388.316)" fill="#d28573"/>
          <path id="Path_141" data-name="Path 141" d="M264.867,301.564l.257-.572L244.9,291.666l8.439-19.709-.572-.257L244.1,291.981Z" transform="translate(-171.017 -271.7)" fill="#1a1b43"/>
        </g>
      </g>
      <g id="Group_83" data-name="Group 83" transform="translate(155.87 173.724)">
        <rect id="Rectangle_66" data-name="Rectangle 66" width="1.087" height="92.395" transform="translate(31.637 8.61)" fill="#1a1b43"/>
        <path id="Path_142" data-name="Path 142" d="M147.05,660.4h51.661a6.336,6.336,0,0,0,6.35-6.35h0a6.336,6.336,0,0,0-6.35-6.35H147.05a6.336,6.336,0,0,0-6.35,6.35h0A6.336,6.336,0,0,0,147.05,660.4Z" transform="translate(-140.7 -647.7)" fill="#7eceff"/>
        <path id="Path_143" data-name="Path 143" d="M177.3,995.313h43.451v-1.058A9.571,9.571,0,0,0,211.2,984.7H186.854a9.571,9.571,0,0,0-9.554,9.554Z" transform="translate(-166.859 -888.301)" fill="#7eceff"/>
      </g>
      <g id="Group_85" data-name="Group 85" transform="translate(0 129.043)">
        <g id="Group_84" data-name="Group 84" transform="translate(33.96 5.619)">
          <rect id="Rectangle_67" data-name="Rectangle 67" width="1.087" height="171.612" transform="translate(0.919 145.722) rotate(-147.753)" fill="#1a1b43"/>
          <rect id="Rectangle_68" data-name="Rectangle 68" width="171.601" height="1.087" transform="matrix(-0.534, -0.846, 0.846, -0.534, 91.604, 145.726)" fill="#1a1b43"/>
        </g>
        <rect id="Rectangle_69" data-name="Rectangle 69" width="160.447" height="12.1" transform="translate(0 0)" fill="#47b6fb"/>
      </g>
    </g>
    <g id="Group_234" data-name="Group 234" transform="translate(141.117 188.374)">
      <path id="Path_256" data-name="Path 256" d="M758.805,299.553A16.5,16.5,0,0,1,742.3,283.048a17.133,17.133,0,0,1,1.485-6.916,16.514,16.514,0,0,1,31.526,6.874,16.765,16.765,0,0,1-2.376,8.571A16.467,16.467,0,0,1,758.805,299.553Z" transform="translate(-730.505 -263.39)" fill="#42a3de"/>
      <path id="Path_257" data-name="Path 257" d="M805.041,309.524A11.553,11.553,0,0,1,793.5,297.983a9.606,9.606,0,0,1,.042-1.1,11.545,11.545,0,1,1,17.821,10.735A11.217,11.217,0,0,1,805.041,309.524Z" transform="translate(-793.5 -274.846)" fill="#42a3de"/>
      <path id="Path_258" data-name="Path 258" d="M795.757,307.5s.934,7.68,1.231,18.118-7.977,10.438-7.977,10.438v38.229h-5.728s.127-38.993-2.715-42.133c-2.886-3.14-2.886-17.99-2.886-17.99l1.655-.976s-2.461,17.609,8.741,20.2,6.959-25.119,6.959-25.119Z" transform="translate(-767.202 -286.993)" fill="#090909"/>
      <path id="Path_259" data-name="Path 259" d="M761.294,285.778c-9.5-1.782-15.742-5.855-19.094-9.547a16.514,16.514,0,0,1,31.526,6.874,16.765,16.765,0,0,1-2.376,8.571C770.883,289.427,768.422,287.094,761.294,285.778Z" transform="translate(-728.877 -263.447)" fill="#7eceff"/>
      <path id="Path_260" data-name="Path 260" d="M801.746,301.166a19.092,19.092,0,0,1-8.146-4.285,11.545,11.545,0,1,1,17.821,10.735C810.275,305.451,807.644,302.863,801.746,301.166Z" transform="translate(-793.6 -274.846)" fill="#7eceff"/>
      <path id="Path_261" data-name="Path 261" d="M752.4,423h38.866l-1.994,7.213h-34.5Z" transform="translate(-750.745 -353.487)" fill="#3e5780"/>
      <path id="Path_262" data-name="Path 262" d="M764.6,440h28.853l-3.988,16.336H767.4Z" transform="translate(-758.108 -363.273)" fill="#7386a5"/>
      <path id="Path_263" data-name="Path 263" d="M825.835,283.675l-.976.3s-1.57-4.243-1.655-4.837C823.077,278.541,825.835,283.675,825.835,283.675Z" transform="translate(-815.354 -270.636)" fill="#3a7672"/>
      <path id="Path_264" data-name="Path 264" d="M833.7,290.6l4.964,1.485s-.042.424-.679.424C837.307,292.552,833.7,290.6,833.7,290.6Z" transform="translate(-832.64 -277.264)" fill="#3a7672"/>
      <path id="Path_265" data-name="Path 265" d="M838.852,315h1.273a6.809,6.809,0,0,1-1.273,3.055C837.834,319.285,838.852,315,838.852,315Z" transform="translate(-836.095 -291.311)" fill="#3a7672"/>
      <path id="Path_266" data-name="Path 266" d="M772.7,259.182c.509.382-1.824,6.025-1.824,6.025h-1.146C769.771,265.25,772.19,258.843,772.7,259.182Z" transform="translate(-739.603 -259.169)" fill="#3a7672"/>
      <path id="Path_267" data-name="Path 267" d="M780.322,264.616c-.212-1.527.976-4.116.976-4.116v3.9C781.34,264.361,780.534,266.143,780.322,264.616Z" transform="translate(-752.615 -259.935)" fill="#3a7672"/>
      <path id="Path_268" data-name="Path 268" d="M760.676,315.028c-.721-.594-.764-5.728-.764-5.728l1.146.424C761.058,309.682,761.4,315.58,760.676,315.028Z" transform="translate(-723.804 -288.03)" fill="#3a7672"/>
      <path id="Path_269" data-name="Path 269" d="M764.6,440h19.306l-3.988,16.336h-6.322C777.159,443.182,764.6,440,764.6,440Z" transform="translate(-748.562 -363.273)" fill="#364d72"/>
    </g>
    <g id="XMLID_292_" transform="translate(340.753 107.49)">
      <path id="XMLID_326_" d="M433.865,565.658a10.765,10.765,0,0,1-2.3,0v-1.971a5.907,5.907,0,0,0,2.3,0c2.217-.328,5.338-1.889,5.666-7.637.246-4.763-3.038-5.173-5.666-3.285a7.64,7.64,0,0,0-2.546,3.2l-.9-1.56a8.372,8.372,0,0,1,3.449-3.777,5.544,5.544,0,0,1,5.009-.328C443.637,552.19,443.062,564.755,433.865,565.658Z" transform="translate(-415.799 -546.606)" fill="#ccecff"/>
      <path id="XMLID_324_" d="M443.549,550.8v2.135a7.639,7.639,0,0,0-2.546,3.2l-.9-1.56A7.864,7.864,0,0,1,443.549,550.8Z" transform="translate(-425.483 -546.776)" fill="#010101"/>
      <path id="XMLID_323_" d="M442.4,566.7v1.971a10.748,10.748,0,0,1-2.3,0V566.7A8.554,8.554,0,0,0,442.4,566.7Z" transform="translate(-424.338 -549.619)" fill="#010101"/>
      <path id="XMLID_1578_" d="M441.4,545.9v19.626a2.646,2.646,0,0,0,2.628,2.628h11.661a2.594,2.594,0,0,0,2.628-2.628V545.9Z" transform="translate(-441.318 -545.9)" fill="#ccecff"/>
      <rect id="XMLID_1574_" width="16.999" height="3.613" transform="translate(0)" fill="#47b6fb"/>
    </g>
    <g id="XMLID_3497_" transform="translate(215.621 254.639)">
      <rect id="XMLID_3500_" width="41.199" height="22.075" transform="translate(2.125 4.84)" fill="#7eceff"/>
      <path id="XMLID_3499_" d="M355.4,552.9v4.958l41.2-2.125V552.9Z" transform="translate(-353.275 -548.06)" fill="#010101"/>
      <rect id="XMLID_3498_" width="45.449" height="6.847" transform="translate(0)" fill="#009eff"/>
    </g>
    <g id="XMLID_3473_" transform="translate(209.378 243.558)">
      <rect id="XMLID_3476_" width="10.624" height="45.803" transform="translate(45.803) rotate(90)" fill="#7386a5"/>
      <rect id="XMLID_3474_" width="5.902" height="21.839" transform="translate(33.88 2.361) rotate(90)" fill="#fff"/>
    </g>
  </g>
</svg>
