<svg xmlns="http://www.w3.org/2000/svg" xmlns:xlink="http://www.w3.org/1999/xlink" width="173" height="173" viewBox="0 0 173 173">
  <defs>
    <linearGradient id="linear-gradient" x1="0.5" x2="0.5" y2="1" gradientUnits="objectBoundingBox">
      <stop offset="0" stop-color="#99e4ff"/>
      <stop offset="1" stop-color="#f1f8fd"/>
    </linearGradient>
  </defs>
  <g id="Group_56585" data-name="Group 56585" transform="translate(-346 -1855)">
    <circle id="Ellipse_727" data-name="Ellipse 727" cx="86.5" cy="86.5" r="86.5" transform="translate(346 1855)" fill="url(#linear-gradient)"/>
    <g id="Group_56475" data-name="Group 56475" transform="translate(372.322 1872.06)">
      <g id="Group_55767" data-name="Group 55767" transform="translate(72.488 38.082)">
        <g id="Group_55766" data-name="Group 55766">
          <g id="Group_55765" data-name="Group 55765">
            <path id="Path_14146" data-name="Path 14146" d="M328.776,75.544c.125-.906-1.154-1.651-2.114-1.728a5.447,5.447,0,0,1-1.368-.118c-.94-.328-1.316-1.543-2.234-1.93a2.625,2.625,0,0,0-2.141.3,5.585,5.585,0,0,1-2.065.8c-.646.041-1.348-.2-1.913.117-.421.235-.642.721-1.03,1.007a2.459,2.459,0,0,1-1.347.365,3.792,3.792,0,0,0-1.389.227,1.1,1.1,0,0,0-.7,1.114Z" transform="translate(-312.465 -71.642)" fill="#fff"/>
          </g>
        </g>
      </g>
      <g id="Group_55770" data-name="Group 55770" transform="translate(16.937 32.353)">
        <g id="Group_55769" data-name="Group 55769" transform="translate(0 0)">
          <g id="Group_55768" data-name="Group 55768">
            <path id="Path_14147" data-name="Path 14147" d="M40.886,44.875c.07-.505-.644-.921-1.18-.964a3.039,3.039,0,0,1-.763-.066c-.525-.183-.734-.861-1.246-1.077a1.464,1.464,0,0,0-1.194.169,3.12,3.12,0,0,1-1.152.448c-.361.023-.752-.111-1.068.066-.235.131-.358.4-.575.562a1.371,1.371,0,0,1-.751.2,2.12,2.12,0,0,0-.775.127.613.613,0,0,0-.388.622Z" transform="translate(-31.785 -42.698)" fill="#fff"/>
          </g>
        </g>
      </g>
      <g id="Group_55773" data-name="Group 55773" transform="translate(81.603 46.739)">
        <g id="Group_55772" data-name="Group 55772" transform="translate(0 0)">
          <g id="Group_55771" data-name="Group 55771">
            <path id="Path_14148" data-name="Path 14148" d="M377.271,119.871c.143-1.041-1.326-1.9-2.431-1.987a6.264,6.264,0,0,1-1.573-.136c-1.081-.377-1.513-1.773-2.568-2.218a3.017,3.017,0,0,0-2.461.348,6.421,6.421,0,0,1-2.374.924c-.743.047-1.55-.228-2.2.135-.484.27-.738.828-1.185,1.158a2.826,2.826,0,0,1-1.548.42,4.365,4.365,0,0,0-1.6.261,1.262,1.262,0,0,0-.8,1.281Z" transform="translate(-358.522 -115.386)" fill="#fff"/>
          </g>
        </g>
      </g>
      <g id="Group_55776" data-name="Group 55776" transform="translate(85.138 30.199)">
        <g id="Group_55775" data-name="Group 55775" transform="translate(0 0)">
          <g id="Group_55774" data-name="Group 55774">
            <path id="Path_14149" data-name="Path 14149" d="M389.583,34.973c.1-.733-.934-1.336-1.711-1.4a4.4,4.4,0,0,1-1.107-.1c-.761-.265-1.065-1.248-1.807-1.561a2.123,2.123,0,0,0-1.732.245,4.521,4.521,0,0,1-1.671.65c-.523.033-1.091-.16-1.548.1-.341.19-.52.583-.834.815a1.991,1.991,0,0,1-1.09.3,3.069,3.069,0,0,0-1.124.184.888.888,0,0,0-.562.9Z" transform="translate(-376.386 -31.816)" fill="#fff"/>
          </g>
        </g>
      </g>
      <g id="Group_55779" data-name="Group 55779" transform="translate(19.197 48.509)">
        <g id="Group_55778" data-name="Group 55778">
          <g id="Group_55777" data-name="Group 55777">
            <path id="Path_14150" data-name="Path 14150" d="M53.023,126.68c.075-.545-.695-.994-1.273-1.041a3.274,3.274,0,0,1-.824-.071c-.566-.2-.792-.929-1.345-1.162a1.58,1.58,0,0,0-1.289.182,3.365,3.365,0,0,1-1.243.484c-.389.025-.812-.12-1.152.071-.254.142-.387.434-.62.606a1.479,1.479,0,0,1-.811.22,2.283,2.283,0,0,0-.836.137.661.661,0,0,0-.419.671Z" transform="translate(-43.203 -124.331)" fill="#fff"/>
          </g>
        </g>
      </g>
      <g id="Group_55782" data-name="Group 55782" transform="translate(28.613 37.529)">
        <g id="Group_55781" data-name="Group 55781" transform="translate(0 0)">
          <g id="Group_55780" data-name="Group 55780">
            <path id="Path_14151" data-name="Path 14151" d="M111.528,73.813c.159-1.152-1.468-2.1-2.69-2.2a6.918,6.918,0,0,1-1.74-.15c-1.2-.417-1.674-1.962-2.841-2.455a3.339,3.339,0,0,0-2.723.385,7.109,7.109,0,0,1-2.627,1.022c-.822.053-1.715-.252-2.434.149-.536.3-.817.917-1.311,1.281a3.126,3.126,0,0,1-1.714.465,4.829,4.829,0,0,0-1.767.289,1.4,1.4,0,0,0-.884,1.417Z" transform="translate(-90.779 -68.849)" fill="#fff"/>
          </g>
        </g>
      </g>
      <g id="Group_55814" data-name="Group 55814" transform="translate(13.939 83.812)">
        <g id="Group_55785" data-name="Group 55785" transform="translate(0)">
          <g id="Group_55784" data-name="Group 55784">
            <g id="Group_55783" data-name="Group 55783">
              <path id="Path_14152" data-name="Path 14152" d="M18.859,302.745s-1.687.239-.728,3.932a44.17,44.17,0,0,0,1.768,5.595s.13.837-.545.813-2.052-.568-2.517.162c-.482.757-.056,1.665,1.005,2.614s3.31,3.114,3.512,3.311.351.6-.112.66-3.748-.318-3.833,1.251,3.306,3.728,3.672,3.971.424.434.343.647-1.174-.018-2.113-.086-2.04.016-2.013.926,1.811,3.2,7,4.9l2.456.627,1.809-1.792c3.637-4.071,4.028-6.95,3.595-7.75s-1.428-.321-2.206.209-1.606,1.279-1.784,1.136-.222-.337-.028-.731,2.043-3.964,1.181-5.278-3.514.66-3.943.842-.5-.248-.428-.515.934-3.273,1.375-4.627.353-2.353-.443-2.766c-.768-.4-1.686.764-2.258,1.124s-.88-.429-.88-.429a44.14,44.14,0,0,0-1.281-5.726c-1.025-3.675-2.641-3.011-2.641-3.011" transform="translate(-16.64 -302.706)" fill="#95e2ff"/>
            </g>
          </g>
        </g>
        <g id="Group_55789" data-name="Group 55789" transform="translate(3.072 3.348)">
          <g id="Group_55788" data-name="Group 55788">
            <g id="Group_55787" data-name="Group 55787">
              <g id="Group_55786" data-name="Group 55786">
                <path id="Path_14153" data-name="Path 14153" d="M39.206,346.245c-.742-2.7-1.981-7.526-3.066-11.662s-2.07-7.877-2.8-10.582l-.866-3.2-.235-.871-.059-.227c-.013-.051-.018-.078-.018-.078s.01.025.025.076l.067.225.249.867c.216.753.52,1.845.89,3.2.742,2.7,1.737,6.442,2.821,10.577s2.315,8.962,3.044,11.667" transform="translate(-32.163 -319.622)" fill="#e0e0e0"/>
              </g>
            </g>
          </g>
        </g>
        <g id="Group_55793" data-name="Group 55793" transform="translate(2.093 11.379)">
          <g id="Group_55792" data-name="Group 55792">
            <g id="Group_55791" data-name="Group 55791">
              <g id="Group_55790" data-name="Group 55790">
                <path id="Path_14154" data-name="Path 14154" d="M27.217,360.2a.821.821,0,0,1,.162.086c.1.06.246.15.424.263.355.227.837.553,1.362.923l1.341.951.408.285a.823.823,0,0,1,.146.111.815.815,0,0,1-.162-.085c-.1-.06-.246-.15-.423-.265-.353-.231-.83-.563-1.355-.933l-1.348-.941-.41-.283A.827.827,0,0,1,27.217,360.2Z" transform="translate(-27.216 -360.202)" fill="#e0e0e0"/>
              </g>
            </g>
          </g>
        </g>
        <g id="Group_55797" data-name="Group 55797" transform="translate(6.141 9.349)">
          <g id="Group_55796" data-name="Group 55796">
            <g id="Group_55795" data-name="Group 55795">
              <g id="Group_55794" data-name="Group 55794">
                <path id="Path_14155" data-name="Path 14155" d="M47.666,354.474c-.018-.012.61-1.035,1.4-2.285s1.452-2.255,1.471-2.243-.61,1.035-1.4,2.286S47.685,354.486,47.666,354.474Z" transform="translate(-47.666 -349.945)" fill="#e0e0e0"/>
              </g>
            </g>
          </g>
        </g>
        <g id="Group_55801" data-name="Group 55801" transform="translate(7.52 17.025)">
          <g id="Group_55800" data-name="Group 55800">
            <g id="Group_55799" data-name="Group 55799">
              <g id="Group_55798" data-name="Group 55798">
                <path id="Path_14156" data-name="Path 14156" d="M54.638,392.007a.856.856,0,0,1,.134-.13l.382-.336c.322-.284.765-.679,1.238-1.132s.888-.876,1.186-1.186l.353-.366a.837.837,0,0,1,.136-.128.865.865,0,0,1-.114.149c-.077.092-.191.224-.335.384-.288.32-.7.751-1.172,1.2s-.924.843-1.256,1.117c-.166.136-.3.245-.4.317A.863.863,0,0,1,54.638,392.007Z" transform="translate(-54.638 -388.729)" fill="#e0e0e0"/>
              </g>
            </g>
          </g>
        </g>
        <g id="Group_55805" data-name="Group 55805" transform="translate(3.362 18.849)">
          <g id="Group_55804" data-name="Group 55804">
            <g id="Group_55803" data-name="Group 55803">
              <g id="Group_55802" data-name="Group 55802">
                <path id="Path_14157" data-name="Path 14157" d="M33.628,397.943a.733.733,0,0,1,.168.04l.45.138c.379.12.9.29,1.474.482s1.093.371,1.467.5l.442.161a.736.736,0,0,1,.159.069.734.734,0,0,1-.168-.04l-.45-.138c-.379-.12-.9-.29-1.475-.482s-1.093-.371-1.467-.5l-.442-.161A.736.736,0,0,1,33.628,397.943Z" transform="translate(-33.628 -397.942)" fill="#e0e0e0"/>
              </g>
            </g>
          </g>
        </g>
        <g id="Group_55809" data-name="Group 55809" transform="translate(3.86 24.676)">
          <g id="Group_55808" data-name="Group 55808">
            <g id="Group_55807" data-name="Group 55807">
              <g id="Group_55806" data-name="Group 55806">
                <path id="Path_14158" data-name="Path 14158" d="M36.141,427.388a1.2,1.2,0,0,1,.215.054l.577.174c.486.15,1.156.363,1.895.6s1.406.461,1.888.625l.569.2a1.212,1.212,0,0,1,.205.083,1.184,1.184,0,0,1-.215-.054L40.7,428.9c-.486-.15-1.156-.363-1.895-.6s-1.406-.461-1.888-.625l-.569-.2A1.178,1.178,0,0,1,36.141,427.388Z" transform="translate(-36.141 -427.387)" fill="#e0e0e0"/>
              </g>
            </g>
          </g>
        </g>
        <g id="Group_55813" data-name="Group 55813" transform="translate(9.092 22.059)">
          <g id="Group_55812" data-name="Group 55812">
            <g id="Group_55811" data-name="Group 55811">
              <g id="Group_55810" data-name="Group 55810">
                <path id="Path_14159" data-name="Path 14159" d="M62.581,418.443a1.333,1.333,0,0,1,.166-.17l.469-.444c.4-.375.939-.895,1.524-1.486s1.1-1.138,1.472-1.538l.439-.473a1.365,1.365,0,0,1,.168-.167,1.388,1.388,0,0,1-.145.188c-.1.118-.24.285-.421.49-.36.409-.871.965-1.457,1.556s-1.136,1.107-1.542,1.471c-.2.182-.369.327-.486.426A1.393,1.393,0,0,1,62.581,418.443Z" transform="translate(-62.581 -414.165)" fill="#e0e0e0"/>
              </g>
            </g>
          </g>
        </g>
      </g>
      <g id="Group_55856" data-name="Group 55856" transform="translate(87.931 84.638)">
        <g id="Group_55820" data-name="Group 55820">
          <g id="Group_55819" data-name="Group 55819">
            <g id="Group_55818" data-name="Group 55818">
              <g id="Group_55817" data-name="Group 55817">
                <g id="Group_55816" data-name="Group 55816">
                  <g id="Group_55815" data-name="Group 55815">
                    <path id="Path_14160" data-name="Path 14160" d="M396.761,336.224c-4.1-2.271-5.643-7.323-6.121-11.989a5.419,5.419,0,0,1-.016-2.314,1.461,1.461,0,0,1,1.689-1.067c.575.2.9.834,1.276,1.347a4.4,4.4,0,0,0,1.935,1.5,1.54,1.54,0,0,0,1.509-.061c.576-.455.525-1.39.417-2.16q-.3-2.155-.606-4.309a7.734,7.734,0,0,1-.091-2.321,2.367,2.367,0,0,1,1.188-1.812,1.354,1.354,0,0,1,1.811.741,7.672,7.672,0,0,1,.15.957c.063.317.25.653.547.7s.559-.208.745-.463a10.479,10.479,0,0,0,1.348-3.017,14.644,14.644,0,0,1,1.22-3.09,3.9,3.9,0,0,1,2.43-1.95,2.355,2.355,0,0,1,2.624,1.374,3.951,3.951,0,0,1-.564,3.206,16.863,16.863,0,0,1-2.893,3.879,1.4,1.4,0,0,0-.474.722c-.087.536.437.984.935,1.087a7.9,7.9,0,0,0,1.711-.029,1.623,1.623,0,0,1,1.506.714c.4.748-.1,1.659-.638,2.284a13.8,13.8,0,0,1-3.743,3.083,4.594,4.594,0,0,0-1.411,1,1.506,1.506,0,0,0-.208,1.694,1.329,1.329,0,0,0,1.56.4,9.356,9.356,0,0,0,1.5-.865,2.428,2.428,0,0,1,2.986.188,2.606,2.606,0,0,1,.533,2.125,5.78,5.78,0,0,1-.837,2.057,14.108,14.108,0,0,1-5.324,5.267,9.039,9.039,0,0,1-6.69,1.116" transform="translate(-390.496 -306.879)" fill="#95e2ff"/>
                  </g>
                </g>
              </g>
            </g>
          </g>
        </g>
        <g id="Group_55827" data-name="Group 55827" transform="translate(6.994 0.503)">
          <g id="Group_55826" data-name="Group 55826">
            <g id="Group_55825" data-name="Group 55825">
              <g id="Group_55824" data-name="Group 55824">
                <g id="Group_55823" data-name="Group 55823">
                  <g id="Group_55822" data-name="Group 55822">
                    <g id="Group_55821" data-name="Group 55821">
                      <path id="Path_14161" data-name="Path 14161" d="M425.836,335.194A73,73,0,0,1,427.4,327.4l.509-2.019c.168-.662.335-1.319.536-1.95a35.638,35.638,0,0,1,1.349-3.553c.481-1.107.975-2.138,1.443-3.1s.925-1.846,1.373-2.633a27.047,27.047,0,0,1,2.368-3.542c.31-.393.559-.689.731-.887l.2-.224a.526.526,0,0,1,.07-.073.562.562,0,0,1-.06.083l-.187.234c-.165.2-.408.506-.711.9a28.673,28.673,0,0,0-2.327,3.56c-.441.789-.889,1.675-1.355,2.636s-.954,1.994-1.43,3.1a36.022,36.022,0,0,0-1.336,3.542c-.2.628-.364,1.279-.532,1.943l-.508,2.018a74.92,74.92,0,0,0-1.572,7.777" transform="translate(-425.836 -309.419)" fill="#e0e0e0"/>
                    </g>
                  </g>
                </g>
              </g>
            </g>
          </g>
        </g>
        <g id="Group_55834" data-name="Group 55834" transform="translate(7.444 6.162)">
          <g id="Group_55833" data-name="Group 55833">
            <g id="Group_55832" data-name="Group 55832">
              <g id="Group_55831" data-name="Group 55831">
                <g id="Group_55830" data-name="Group 55830">
                  <g id="Group_55829" data-name="Group 55829">
                    <g id="Group_55828" data-name="Group 55828">
                      <path id="Path_14162" data-name="Path 14162" d="M430.3,346.356a1.686,1.686,0,0,1-.115-.319c-.066-.208-.154-.512-.256-.889-.205-.754-.456-1.8-.728-2.965s-.536-2.2-.751-2.953c-.107-.375-.2-.677-.26-.885a1.641,1.641,0,0,1-.085-.329,1.614,1.614,0,0,1,.134.311c.079.2.183.5.3.874.239.744.519,1.789.791,2.95l.69,2.973c.085.357.157.658.215.9A1.643,1.643,0,0,1,430.3,346.356Z" transform="translate(-428.107 -338.015)" fill="#e0e0e0"/>
                    </g>
                  </g>
                </g>
              </g>
            </g>
          </g>
        </g>
        <g id="Group_55841" data-name="Group 55841" transform="translate(9.64 11.368)">
          <g id="Group_55840" data-name="Group 55840">
            <g id="Group_55839" data-name="Group 55839">
              <g id="Group_55838" data-name="Group 55838">
                <g id="Group_55837" data-name="Group 55837">
                  <g id="Group_55836" data-name="Group 55836">
                    <g id="Group_55835" data-name="Group 55835">
                      <path id="Path_14163" data-name="Path 14163" d="M448.23,364.322a1.885,1.885,0,0,1-.364.1c-.235.056-.575.134-.993.245-.836.215-1.981.556-3.228.991s-2.358.885-3.153,1.233c-.4.171-.718.319-.939.42a1.879,1.879,0,0,1-.349.145,1.959,1.959,0,0,1,.327-.2c.215-.117.528-.279.923-.463a33.562,33.562,0,0,1,3.147-1.277,31.083,31.083,0,0,1,3.249-.953c.422-.1.766-.162,1-.2A1.873,1.873,0,0,1,448.23,364.322Z" transform="translate(-439.205 -364.32)" fill="#e0e0e0"/>
                    </g>
                  </g>
                </g>
              </g>
            </g>
          </g>
        </g>
        <g id="Group_55848" data-name="Group 55848" transform="translate(0.709 14.058)">
          <g id="Group_55847" data-name="Group 55847">
            <g id="Group_55846" data-name="Group 55846">
              <g id="Group_55845" data-name="Group 55845">
                <g id="Group_55844" data-name="Group 55844">
                  <g id="Group_55843" data-name="Group 55843">
                    <g id="Group_55842" data-name="Group 55842">
                      <path id="Path_14164" data-name="Path 14164" d="M400.454,389.933a.52.52,0,0,1-.08-.112l-.207-.337c-.179-.293-.427-.725-.726-1.262-.6-1.074-1.386-2.586-2.232-4.265s-1.619-3.2-2.2-4.283l-.689-1.284-.186-.351a.539.539,0,0,1-.057-.127.533.533,0,0,1,.08.112l.207.337c.179.293.426.725.726,1.262.6,1.074,1.386,2.586,2.233,4.266s1.618,3.2,2.2,4.283l.689,1.284.186.35A.549.549,0,0,1,400.454,389.933Z" transform="translate(-394.079 -377.911)" fill="#e0e0e0"/>
                    </g>
                  </g>
                </g>
              </g>
            </g>
          </g>
        </g>
        <g id="Group_55855" data-name="Group 55855" transform="translate(7.084 20.133)">
          <g id="Group_55854" data-name="Group 55854">
            <g id="Group_55853" data-name="Group 55853">
              <g id="Group_55852" data-name="Group 55852">
                <g id="Group_55851" data-name="Group 55851">
                  <g id="Group_55850" data-name="Group 55850">
                    <g id="Group_55849" data-name="Group 55849">
                      <path id="Path_14165" data-name="Path 14165" d="M438.04,408.606a.481.481,0,0,1-.115.071l-.341.178-1.258.639c-1.062.54-2.521,1.3-4.132,2.151s-3.079,1.6-4.152,2.114c-.537.258-.973.463-1.277.6l-.351.153a.468.468,0,0,1-.126.044.493.493,0,0,1,.115-.071l.341-.177,1.258-.639c1.062-.54,2.521-1.3,4.133-2.151s3.078-1.6,4.151-2.114c.537-.258.973-.463,1.277-.6l.351-.153A.465.465,0,0,1,438.04,408.606Z" transform="translate(-426.288 -408.605)" fill="#e0e0e0"/>
                    </g>
                  </g>
                </g>
              </g>
            </g>
          </g>
        </g>
      </g>
      <g id="Group_55859" data-name="Group 55859" transform="translate(13.273 118.524)">
        <g id="Group_55858" data-name="Group 55858" transform="translate(0 0)">
          <g id="Group_55857" data-name="Group 55857">
            <path id="Path_14166" data-name="Path 14166" d="M106.581,478.146c0,.028-20.889.051-46.652.051s-46.656-.023-46.656-.051,20.885-.052,46.656-.052S106.581,478.117,106.581,478.146Z" transform="translate(-13.273 -478.094)" fill="#263238"/>
          </g>
        </g>
      </g>
      <g id="Group_55932" data-name="Group 55932" transform="translate(18.818 67.522)">
        <g id="Group_55931" data-name="Group 55931" transform="translate(0 0)">
          <g id="Group_55930" data-name="Group 55930">
            <g id="Group_55929" data-name="Group 55929">
              <g id="Group_55884" data-name="Group 55884">
                <g id="Group_55865" data-name="Group 55865" transform="translate(2.953)">
                  <g id="Group_55864" data-name="Group 55864">
                    <g id="Group_55863" data-name="Group 55863">
                      <g id="Group_55862" data-name="Group 55862">
                        <g id="Group_55861" data-name="Group 55861">
                          <g id="Group_55860" data-name="Group 55860">
                            <rect id="Rectangle_8889" data-name="Rectangle 8889" width="75.547" height="49.958" rx="5" fill="#004976"/>
                          </g>
                        </g>
                      </g>
                    </g>
                  </g>
                </g>
                <g id="Group_55871" data-name="Group 55871" transform="translate(0 46.732)">
                  <g id="Group_55870" data-name="Group 55870">
                    <g id="Group_55869" data-name="Group 55869">
                      <g id="Group_55868" data-name="Group 55868">
                        <g id="Group_55867" data-name="Group 55867">
                          <g id="Group_55866" data-name="Group 55866">
                            <path id="Rectangle_8890" data-name="Rectangle 8890" d="M0,0H81.849a0,0,0,0,1,0,0V0a4.371,4.371,0,0,1-4.371,4.371H4.371A4.371,4.371,0,0,1,0,0V0A0,0,0,0,1,0,0Z" fill="#004976"/>
                          </g>
                        </g>
                      </g>
                    </g>
                  </g>
                </g>
                <g id="Group_55877" data-name="Group 55877" transform="translate(4.98 1.985)">
                  <g id="Group_55876" data-name="Group 55876">
                    <g id="Group_55875" data-name="Group 55875">
                      <g id="Group_55874" data-name="Group 55874">
                        <g id="Group_55873" data-name="Group 55873">
                          <g id="Group_55872" data-name="Group 55872">
                            <rect id="Rectangle_8891" data-name="Rectangle 8891" width="71.28" height="42.189" rx="4" fill="#fff"/>
                          </g>
                        </g>
                      </g>
                    </g>
                  </g>
                </g>
                <g id="Group_55883" data-name="Group 55883" transform="translate(33.279 46.263)">
                  <g id="Group_55882" data-name="Group 55882">
                    <g id="Group_55881" data-name="Group 55881">
                      <g id="Group_55880" data-name="Group 55880">
                        <g id="Group_55879" data-name="Group 55879">
                          <g id="Group_55878" data-name="Group 55878">
                            <path id="Path_14167" data-name="Path 14167" d="M209.434,454.147l1.016,1.616h14.292l.943-1.616Z" transform="translate(-209.434 -454.147)" fill="#6bb5d9"/>
                          </g>
                        </g>
                      </g>
                    </g>
                  </g>
                </g>
              </g>
              <g id="Group_55922" data-name="Group 55922" transform="translate(6.449 3.413)">
                <g id="Group_55921" data-name="Group 55921" transform="translate(0)">
                  <g id="Group_55920" data-name="Group 55920">
                    <g id="Group_55891" data-name="Group 55891">
                      <g id="Group_55890" data-name="Group 55890">
                        <g id="Group_55889" data-name="Group 55889">
                          <g id="Group_55888" data-name="Group 55888">
                            <g id="Group_55887" data-name="Group 55887">
                              <g id="Group_55886" data-name="Group 55886">
                                <g id="Group_55885" data-name="Group 55885">
                                  <rect id="Rectangle_8892" data-name="Rectangle 8892" width="68.49" height="40.626" rx="4" fill="#57c3ef"/>
                                </g>
                              </g>
                            </g>
                          </g>
                        </g>
                      </g>
                    </g>
                    <g id="Group_55905" data-name="Group 55905" transform="translate(4.523 1.022)">
                      <g id="Group_55904" data-name="Group 55904">
                        <g id="Group_55903" data-name="Group 55903">
                          <g id="Group_55902" data-name="Group 55902">
                            <g id="Group_55901" data-name="Group 55901">
                              <g id="Group_55900" data-name="Group 55900">
                                <g id="Group_55899" data-name="Group 55899">
                                  <path id="Path_14169" data-name="Path 14169" d="M97.82,243.349a.547.547,0,1,1-.547-.547A.547.547,0,0,1,97.82,243.349Z" transform="translate(-96.726 -242.802)" fill="#263238"/>
                                </g>
                              </g>
                            </g>
                          </g>
                        </g>
                      </g>
                    </g>
                    <g id="Group_55912" data-name="Group 55912" transform="translate(1.208 1.022)">
                      <g id="Group_55911" data-name="Group 55911">
                        <g id="Group_55910" data-name="Group 55910">
                          <g id="Group_55909" data-name="Group 55909">
                            <g id="Group_55908" data-name="Group 55908">
                              <g id="Group_55907" data-name="Group 55907">
                                <g id="Group_55906" data-name="Group 55906">
                                  <path id="Path_14170" data-name="Path 14170" d="M81.069,243.349a.547.547,0,1,1-.547-.547A.547.547,0,0,1,81.069,243.349Z" transform="translate(-79.975 -242.802)" fill="#263238"/>
                                </g>
                              </g>
                            </g>
                          </g>
                        </g>
                      </g>
                    </g>
                    <g id="Group_55919" data-name="Group 55919" transform="translate(2.799 1.022)">
                      <g id="Group_55918" data-name="Group 55918">
                        <g id="Group_55917" data-name="Group 55917">
                          <g id="Group_55916" data-name="Group 55916">
                            <g id="Group_55915" data-name="Group 55915">
                              <g id="Group_55914" data-name="Group 55914">
                                <g id="Group_55913" data-name="Group 55913">
                                  <path id="Path_14171" data-name="Path 14171" d="M89.109,243.349a.547.547,0,1,1-.547-.547A.547.547,0,0,1,89.109,243.349Z" transform="translate(-88.015 -242.802)" fill="#263238"/>
                                </g>
                              </g>
                            </g>
                          </g>
                        </g>
                      </g>
                    </g>
                  </g>
                </g>
              </g>
              <g id="Group_55928" data-name="Group 55928" transform="translate(2.952 46.215)">
                <g id="Group_55927" data-name="Group 55927">
                  <g id="Group_55926" data-name="Group 55926">
                    <g id="Group_55925" data-name="Group 55925">
                      <g id="Group_55924" data-name="Group 55924">
                        <g id="Group_55923" data-name="Group 55923">
                          <path id="Path_14172" data-name="Path 14172" d="M131.1,453.949c0,.027-16.768.049-37.447.049s-37.451-.022-37.451-.049,16.764-.049,37.451-.049S131.1,453.922,131.1,453.949Z" transform="translate(-56.206 -453.9)" fill="#263238"/>
                        </g>
                      </g>
                    </g>
                  </g>
                </g>
              </g>
            </g>
          </g>
        </g>
      </g>
      <g id="Group_55943" data-name="Group 55943" transform="translate(25.134 73.798)">
        <g id="Group_55938" data-name="Group 55938" transform="translate(0.075)">
          <g id="Group_55934" data-name="Group 55934">
            <g id="Group_55933" data-name="Group 55933">
              <path id="Path_14173" data-name="Path 14173" d="M134.842,268.49a6.835,6.835,0,0,0-2.184,6.8,5.554,5.554,0,0,0-6.539,6.5,4.818,4.818,0,0,0-6.37,1.075,7.237,7.237,0,0,0-.746-3.68,2.492,2.492,0,0,0-3.244-1.059,2.858,2.858,0,0,0-2.88-4.651c-.03-1.522-.994-12.283-1.788-21.364h-6.738c-.781,8.922-1.7,19.17-1.726,20.652a2.858,2.858,0,0,0-2.88,4.651A2.491,2.491,0,0,0,96.5,278.47a7.238,7.238,0,0,0-.746,3.681,4.818,4.818,0,0,0-6.37-1.075,5.555,5.555,0,0,0-6.539-6.5,6.68,6.68,0,0,0-9.265-7.74V289.91h68.339V267.55A6.835,6.835,0,0,0,134.842,268.49Z" transform="translate(-73.583 -252.108)" fill="#4ebaff"/>
            </g>
          </g>
          <g id="Group_55937" data-name="Group 55937" opacity="0.8">
            <g id="Group_55936" data-name="Group 55936">
              <g id="Group_55935" data-name="Group 55935">
                <path id="Path_14174" data-name="Path 14174" d="M134.842,268.49a6.835,6.835,0,0,0-2.184,6.8,5.554,5.554,0,0,0-6.539,6.5,4.818,4.818,0,0,0-6.37,1.075,7.237,7.237,0,0,0-.746-3.68,2.492,2.492,0,0,0-3.244-1.059,2.858,2.858,0,0,0-2.88-4.651c-.03-1.522-.994-12.283-1.788-21.364h-6.738c-.781,8.922-1.7,19.17-1.726,20.652a2.858,2.858,0,0,0-2.88,4.651A2.491,2.491,0,0,0,96.5,278.47a7.238,7.238,0,0,0-.746,3.681,4.818,4.818,0,0,0-6.37-1.075,5.555,5.555,0,0,0-6.539-6.5,6.68,6.68,0,0,0-9.265-7.74V289.91h68.339V267.55A6.835,6.835,0,0,0,134.842,268.49Z" transform="translate(-73.583 -252.108)" fill="#fff"/>
              </g>
            </g>
          </g>
        </g>
        <g id="Group_55940" data-name="Group 55940">
          <g id="Group_55939" data-name="Group 55939">
            <path id="Path_14175" data-name="Path 14175" d="M134.126,285.3a10.8,10.8,0,0,0-15.36,3.539,6.4,6.4,0,0,0-2.291-1.921,4.293,4.293,0,0,0,.159-.522,4.568,4.568,0,0,0-5.514-5.475L109.1,252.108h-2.657V278.6a2.938,2.938,0,0,0-2.209,3.756,3.572,3.572,0,0,0-2.67,1.984,3.743,3.743,0,0,0-.046,1.876,6.585,6.585,0,0,0-5.153,2.631A10.8,10.8,0,0,0,81,285.3a6.692,6.692,0,0,0-7.8-4.955v9.605l30.833-.04a2.409,2.409,0,0,0,.65.09l7.538-.089,29.7.039v-9.605A6.692,6.692,0,0,0,134.126,285.3Z" transform="translate(-73.202 -252.108)" fill="#1fa9ff"/>
          </g>
        </g>
        <g id="Group_55942" data-name="Group 55942" opacity="0.6">
          <g id="Group_55941" data-name="Group 55941">
            <path id="Path_14176" data-name="Path 14176" d="M134.126,285.3a10.8,10.8,0,0,0-15.36,3.539,6.4,6.4,0,0,0-2.291-1.921,4.293,4.293,0,0,0,.159-.522,4.568,4.568,0,0,0-5.514-5.475L109.1,252.108h-2.657V278.6a2.938,2.938,0,0,0-2.209,3.756,3.572,3.572,0,0,0-2.67,1.984,3.743,3.743,0,0,0-.046,1.876,6.585,6.585,0,0,0-5.153,2.631A10.8,10.8,0,0,0,81,285.3a6.692,6.692,0,0,0-7.8-4.955v9.605l30.833-.04a2.409,2.409,0,0,0,.65.09l7.538-.089,29.7.039v-9.605A6.692,6.692,0,0,0,134.126,285.3Z" transform="translate(-73.202 -252.108)" fill="#fff"/>
          </g>
        </g>
      </g>
      <g id="Group_56044" data-name="Group 56044" transform="translate(37.744 19.253)">
        <g id="Group_55958" data-name="Group 55958" transform="translate(13.742 58.576)">
          <g id="Group_55953" data-name="Group 55953">
            <g id="Group_55947" data-name="Group 55947">
              <g id="Group_55946" data-name="Group 55946">
                <g id="Group_55945" data-name="Group 55945">
                  <g id="Group_55944" data-name="Group 55944">
                    <path id="Path_14177" data-name="Path 14177" d="M227.62,206.526a6.042,6.042,0,0,0-2.633,7.974c.58,1.089,1.527,2.048,1.652,3.276.193,1.883-1.589,3.356-2.139,5.167a4.3,4.3,0,0,0,2.911,5.2c.967.253,2.125.209,2.773.97.827.972.23,2.586.938,3.648a2.29,2.29,0,0,0,3.088.369,5.37,5.37,0,0,0,1.867-2.833,12.9,12.9,0,0,1,1.317-3.181,24.137,24.137,0,0,1,2.694-2.672,10.143,10.143,0,0,0,2.275-8.535,22.092,22.092,0,0,0-3.585-8.347" transform="translate(-224.343 -206.526)" fill="#1fa9ff"/>
                  </g>
                </g>
              </g>
            </g>
            <g id="Group_55952" data-name="Group 55952" opacity="0.3">
              <g id="Group_55951" data-name="Group 55951">
                <g id="Group_55950" data-name="Group 55950">
                  <g id="Group_55949" data-name="Group 55949">
                    <g id="Group_55948" data-name="Group 55948">
                      <path id="Path_14178" data-name="Path 14178" d="M227.62,206.526a6.042,6.042,0,0,0-2.633,7.974c.58,1.089,1.527,2.048,1.652,3.276.193,1.883-1.589,3.356-2.139,5.167a4.3,4.3,0,0,0,2.911,5.2c.967.253,2.125.209,2.773.97.827.972.23,2.586.938,3.648a2.29,2.29,0,0,0,3.088.369,5.37,5.37,0,0,0,1.867-2.833,12.9,12.9,0,0,1,1.317-3.181,24.137,24.137,0,0,1,2.694-2.672,10.143,10.143,0,0,0,2.275-8.535,22.092,22.092,0,0,0-3.585-8.347" transform="translate(-224.343 -206.526)" fill="#fff"/>
                    </g>
                  </g>
                </g>
              </g>
            </g>
          </g>
          <g id="Group_55957" data-name="Group 55957" transform="translate(3.071 1.591)">
            <g id="Group_55956" data-name="Group 55956">
              <g id="Group_55955" data-name="Group 55955">
                <g id="Group_55954" data-name="Group 55954">
                  <path id="Path_14179" data-name="Path 14179" d="M235.38,210.852a4.817,4.817,0,0,0-2.09,6.613c.827,1.367,2.431,2.6,2.042,4.151-.264,1.051-1.391,1.7-1.715,2.729-.431,1.376.873,2.836,2.3,3.01a5.22,5.22,0,0,0,3.9-1.545c3.757-3.3,4.671-9.784,2.33-14.2" transform="translate(-232.692 -210.852)" fill="#1fa9ff"/>
                </g>
              </g>
            </g>
          </g>
        </g>
        <g id="Group_55962" data-name="Group 55962" transform="translate(31.493 39.113)">
          <g id="Group_55961" data-name="Group 55961">
            <g id="Group_55960" data-name="Group 55960">
              <g id="Group_55959" data-name="Group 55959">
                <path id="Path_14180" data-name="Path 14180" d="M272.959,153.609s12.3,8.136,10.955,22.2l-11.307-5.074Z" transform="translate(-272.606 -153.609)" fill="#1fa9ff"/>
              </g>
            </g>
          </g>
        </g>
        <g id="Group_55964" data-name="Group 55964" transform="translate(11.41 55.965)">
          <g id="Group_55963" data-name="Group 55963">
            <path id="Path_14181" data-name="Path 14181" d="M218,199.428l2.793,4.63h14.5l2.793-4.365Z" transform="translate(-218.002 -199.428)" fill="#004976"/>
          </g>
        </g>
        <g id="Group_55966" data-name="Group 55966" transform="translate(10.671 9.221)">
          <g id="Group_55965" data-name="Group 55965">
            <path id="Path_14182" data-name="Path 14182" d="M226.023,72.359A10.747,10.747,0,0,0,216,83.3l.737,36.04h20.083l.671-36.062A10.747,10.747,0,0,0,226.023,72.359Z" transform="translate(-215.993 -72.334)" fill="#acdfff"/>
          </g>
        </g>
        <g id="Group_55972" data-name="Group 55972" transform="translate(0 39.113)">
          <g id="Group_55971" data-name="Group 55971">
            <g id="Group_55970" data-name="Group 55970">
              <g id="Group_55969" data-name="Group 55969">
                <path id="Path_14184" data-name="Path 14184" d="M198.036,153.609s-12.3,8.136-10.955,22.2l11.308-5.074Z" transform="translate(-186.978 -153.609)" fill="#1fa9ff"/>
              </g>
            </g>
          </g>
        </g>
        <g id="Group_55976" data-name="Group 55976" transform="translate(10.784 0)">
          <g id="Group_55975" data-name="Group 55975">
            <g id="Group_55974" data-name="Group 55974">
              <g id="Group_55973" data-name="Group 55973">
                <path id="Path_14185" data-name="Path 14185" d="M216.3,66.258c4.245-3.718,17.578-3.637,21.158-.611-.921-13.38-11.137-18.384-11.137-18.384A23.608,23.608,0,0,0,216.3,66.258Z" transform="translate(-216.298 -47.263)" fill="#1fa9ff"/>
              </g>
            </g>
          </g>
        </g>
        <g id="Group_55981" data-name="Group 55981" transform="translate(20.807 0)">
          <g id="Group_55980" data-name="Group 55980">
            <g id="Group_55979" data-name="Group 55979">
              <g id="Group_55978" data-name="Group 55978">
                <g id="Group_55977" data-name="Group 55977">
                  <path id="Path_14186" data-name="Path 14186" d="M243.55,47.263s.042.035.12.108l.344.324.558.531.355.339.38.41c.266.292.567.612.887.971l.98,1.22c.167.226.33.467.5.712s.36.492.522.767c.329.545.694,1.113,1.005,1.748a20.177,20.177,0,0,1,1.659,4.309,19.433,19.433,0,0,1,.483,2.532c.06.438.1.889.156,1.335a12.746,12.746,0,0,1,.049,1.388c.007,3.735-.047,7.84-.095,12.149-.1,8.621-.224,16.423-.317,22.071-.05,2.822-.09,5.106-.118,6.688-.016.787-.029,1.4-.038,1.818-.005.206-.01.363-.012.473s-.008.161-.008.161,0-.055,0-.161,0-.267,0-.473c0-.419.01-1.031.018-1.818.02-1.583.048-3.867.083-6.689.073-5.65.174-13.452.285-22.072.048-4.308.1-8.414.1-12.147a12.712,12.712,0,0,0-.046-1.373c-.061-.455-.1-.9-.154-1.338a19.394,19.394,0,0,0-.476-2.521,20.183,20.183,0,0,0-1.639-4.3c-.309-.635-.67-1.2-1-1.747-.16-.274-.351-.518-.517-.767s-.333-.486-.5-.712l-.971-1.223c-.317-.361-.615-.683-.878-.976l-.376-.413-.351-.342-.55-.538-.337-.332C243.587,47.3,243.55,47.263,243.55,47.263Z" transform="translate(-243.55 -47.263)" fill="#263238"/>
                </g>
              </g>
            </g>
          </g>
        </g>
        <g id="Group_55991" data-name="Group 55991" transform="translate(14.734 20.806)">
          <g id="Group_55985" data-name="Group 55985" transform="translate(0 0)">
            <g id="Group_55984" data-name="Group 55984" transform="translate(0)">
              <g id="Group_55983" data-name="Group 55983" transform="translate(0)">
                <g id="Group_55982" data-name="Group 55982">
                  <ellipse id="Ellipse_733" data-name="Ellipse 733" cx="5.302" cy="4.929" rx="5.302" ry="4.929" transform="translate(0 10.354) rotate(-77.55)" fill="#fafafa"/>
                </g>
              </g>
            </g>
          </g>
          <g id="Group_55990" data-name="Group 55990" transform="translate(0.962 0.936)">
            <g id="Group_55989" data-name="Group 55989">
              <g id="Group_55988" data-name="Group 55988">
                <g id="Group_55987" data-name="Group 55987">
                  <g id="Group_55986" data-name="Group 55986">
                    <path id="Path_14187" data-name="Path 14187" d="M235.791,106.5a.449.449,0,0,1-.083-.008l-.241-.034-.177-.026-.216-.009-.251-.011c-.09,0-.185.01-.286.015a4.753,4.753,0,0,0-.667.087,5.05,5.05,0,0,0-2.4,1.276,5.353,5.353,0,0,0-1.313,1.938,4.941,4.941,0,0,0-.2.613c-.027.106-.06.212-.082.321l-.056.331-.028.168-.013.171q-.013.171-.026.345c0,.116,0,.233.006.35l0,.177.02.177a5.226,5.226,0,0,0,1.087,2.737,4.582,4.582,0,0,0,5.759,1.272,5.224,5.224,0,0,0,2.139-2.025l.093-.152.078-.159.153-.315.122-.324.06-.16.045-.164.089-.325c.025-.108.04-.218.06-.326a4.831,4.831,0,0,0,.074-.642,5.356,5.356,0,0,0-.376-2.31,5.11,5.11,0,0,0-1.041-1.632,5.031,5.031,0,0,0-.595-.534,4.738,4.738,0,0,0-.568-.359c-.089-.047-.172-.1-.253-.134l-.233-.1-.2-.082-.171-.051-.233-.071a.457.457,0,0,1-.079-.028.481.481,0,0,1,.081.017l.237.06.174.046.2.078.237.092c.083.036.167.085.258.131a4.641,4.641,0,0,1,.579.355,5.05,5.05,0,0,1,.608.533,5.13,5.13,0,0,1,1.068,1.646,5.409,5.409,0,0,1,.394,2.344,4.928,4.928,0,0,1-.072.653c-.02.109-.034.221-.06.331l-.089.33-.045.167-.061.163-.123.33-.155.321-.079.162-.094.155a5.315,5.315,0,0,1-2.177,2.069,4.681,4.681,0,0,1-5.89-1.3,5.317,5.317,0,0,1-1.1-2.793l-.02-.18,0-.18c0-.12,0-.238,0-.356s.018-.235.027-.351l.014-.174.029-.17c.02-.113.039-.225.059-.337s.057-.218.085-.326a4.975,4.975,0,0,1,.21-.622,5.411,5.411,0,0,1,1.344-1.96,5.134,5.134,0,0,1,1.662-1.043,5.032,5.032,0,0,1,.776-.228,4.677,4.677,0,0,1,.675-.078c.1,0,.2-.011.289-.01l.253.016.217.015.177.032.24.045A.473.473,0,0,1,235.791,106.5Z" transform="translate(-229.654 -106.378)" fill="#263238"/>
                  </g>
                </g>
              </g>
            </g>
          </g>
        </g>
        <g id="Group_55993" data-name="Group 55993" transform="translate(11.41 55.965)">
          <g id="Group_55992" data-name="Group 55992">
            <path id="Path_14188" data-name="Path 14188" d="M218,199.428" transform="translate(-218.002 -199.428)" fill="#e0e0e0"/>
          </g>
        </g>
        <g id="Group_55996" data-name="Group 55996" transform="translate(10.673 26.177)">
          <g id="Group_55995" data-name="Group 55995">
            <g id="Group_55994" data-name="Group 55994">
              <path id="Path_14189" data-name="Path 14189" d="M220.934,118.512c0,.063-1.134.032-2.5.279s-2.417.657-2.44.6a2.257,2.257,0,0,1,.671-.326,9.848,9.848,0,0,1,3.524-.627A2.259,2.259,0,0,1,220.934,118.512Z" transform="translate(-215.997 -118.437)" fill="#263238"/>
            </g>
          </g>
        </g>
        <g id="Group_55999" data-name="Group 55999" transform="translate(25.702 25.692)">
          <g id="Group_55998" data-name="Group 55998">
            <g id="Group_55997" data-name="Group 55997">
              <path id="Path_14190" data-name="Path 14190" d="M263,117.671a4.657,4.657,0,0,1-.9-.084c-.553-.069-1.317-.156-2.164-.216s-1.616-.08-2.173-.089a4.643,4.643,0,0,1-.9-.043,3.515,3.515,0,0,1,.9-.1,19.327,19.327,0,0,1,4.362.307A3.505,3.505,0,0,1,263,117.671Z" transform="translate(-256.861 -117.118)" fill="#263238"/>
            </g>
          </g>
        </g>
        <g id="Group_56002" data-name="Group 56002" transform="translate(11.112 46.189)">
          <g id="Group_56001" data-name="Group 56001">
            <g id="Group_56000" data-name="Group 56000">
              <path id="Path_14191" data-name="Path 14191" d="M238.036,173.529a.846.846,0,0,1-.213,0l-.607-.045-2.231-.171c-1.884-.133-4.491-.26-7.372-.259s-5.489.137-7.372.274l-2.23.175-.607.046a.856.856,0,0,1-.213,0,.833.833,0,0,1,.209-.043l.6-.084c.524-.071,1.285-.154,2.227-.241,1.883-.174,4.5-.33,7.384-.335s5.5.149,7.383.32c.942.085,1.7.166,2.227.236l.6.083A.854.854,0,0,1,238.036,173.529Z" transform="translate(-217.19 -172.848)" fill="#263238"/>
            </g>
          </g>
        </g>
        <g id="Group_56005" data-name="Group 56005" transform="translate(15.7 31.391)">
          <g id="Group_56004" data-name="Group 56004">
            <g id="Group_56003" data-name="Group 56003">
              <path id="Path_14192" data-name="Path 14192" d="M230.109,132.64c0,.031-.125.042-.211.185a.315.315,0,0,0-.04.252.277.277,0,0,0,.48.038.314.314,0,0,0,0-.255c-.063-.155-.186-.186-.179-.216-.009-.025.17-.053.306.146a.44.44,0,0,1,.046.4.452.452,0,0,1-.835-.065.439.439,0,0,1,.107-.39C229.95,132.561,230.122,132.617,230.109,132.64Z" transform="translate(-229.666 -132.613)" fill="#263238"/>
            </g>
          </g>
        </g>
        <g id="Group_56008" data-name="Group 56008" transform="translate(20.077 33.752)">
          <g id="Group_56007" data-name="Group 56007">
            <g id="Group_56006" data-name="Group 56006">
              <path id="Path_14193" data-name="Path 14193" d="M242.01,139.058c0,.03-.124.042-.211.185a.315.315,0,0,0-.04.252.278.278,0,0,0,.48.038.317.317,0,0,0,0-.255c-.063-.155-.186-.186-.179-.216-.01-.025.17-.053.306.146a.439.439,0,0,1,.046.4.452.452,0,0,1-.835-.065.441.441,0,0,1,.107-.39C241.851,138.979,242.023,139.035,242.01,139.058Z" transform="translate(-241.567 -139.031)" fill="#263238"/>
            </g>
          </g>
        </g>
        <g id="Group_56011" data-name="Group 56011" transform="translate(24.908 31.739)">
          <g id="Group_56010" data-name="Group 56010">
            <g id="Group_56009" data-name="Group 56009">
              <path id="Path_14194" data-name="Path 14194" d="M255.143,133.587c0,.031-.124.042-.211.186a.316.316,0,0,0-.04.252.278.278,0,0,0,.48.037.316.316,0,0,0,0-.255c-.063-.155-.186-.186-.179-.216-.01-.025.17-.053.306.146a.44.44,0,0,1,.046.4.452.452,0,0,1-.835-.065.44.44,0,0,1,.107-.389C254.984,133.508,255.156,133.564,255.143,133.587Z" transform="translate(-254.7 -133.56)" fill="#263238"/>
            </g>
          </g>
        </g>
        <g id="Group_56014" data-name="Group 56014" transform="translate(26.475 28.13)">
          <g id="Group_56013" data-name="Group 56013">
            <g id="Group_56012" data-name="Group 56012">
              <path id="Path_14195" data-name="Path 14195" d="M259.406,123.773c0,.031-.125.042-.211.185a.316.316,0,0,0-.039.252.277.277,0,0,0,.48.037.315.315,0,0,0,0-.255c-.063-.155-.186-.186-.18-.216s.17-.053.307.146a.439.439,0,0,1,.045.4.452.452,0,0,1-.834-.065.438.438,0,0,1,.107-.389C259.246,123.694,259.419,123.75,259.406,123.773Z" transform="translate(-258.963 -123.746)" fill="#263238"/>
            </g>
          </g>
        </g>
        <g id="Group_56017" data-name="Group 56017" transform="translate(14.104 27.781)">
          <g id="Group_56016" data-name="Group 56016">
            <g id="Group_56015" data-name="Group 56015">
              <path id="Path_14196" data-name="Path 14196" d="M225.77,122.824c0,.031-.125.042-.211.186a.315.315,0,0,0-.04.252.278.278,0,0,0,.48.037.314.314,0,0,0,0-.255c-.063-.155-.186-.186-.18-.216-.009-.025.17-.053.307.146a.439.439,0,0,1,.045.4.452.452,0,0,1-.834-.065.438.438,0,0,1,.107-.389C225.61,122.745,225.783,122.8,225.77,122.824Z" transform="translate(-225.327 -122.797)" fill="#263238"/>
            </g>
          </g>
        </g>
        <g id="Group_56020" data-name="Group 56020" transform="translate(24.91 22.056)">
          <g id="Group_56019" data-name="Group 56019">
            <g id="Group_56018" data-name="Group 56018">
              <path id="Path_14197" data-name="Path 14197" d="M255.138,108.034c0-.031.124-.042.211-.186a.315.315,0,0,0,.04-.252.278.278,0,0,0-.48-.037.314.314,0,0,0,0,.255c.063.155.186.186.18.216.009.025-.17.053-.306-.146a.44.44,0,0,1-.046-.4.452.452,0,0,1,.835.065.44.44,0,0,1-.107.389C255.3,108.112,255.125,108.057,255.138,108.034Z" transform="translate(-254.707 -107.232)" fill="#263238"/>
            </g>
          </g>
        </g>
        <g id="Group_56023" data-name="Group 56023" transform="translate(20.08 19.917)">
          <g id="Group_56022" data-name="Group 56022">
            <g id="Group_56021" data-name="Group 56021">
              <path id="Path_14198" data-name="Path 14198" d="M242.005,102.216c0-.031.124-.042.211-.186a.315.315,0,0,0,.04-.252.278.278,0,0,0-.48-.037.315.315,0,0,0,0,.255c.063.155.186.186.179.216.009.025-.17.053-.306-.146a.438.438,0,0,1-.046-.4.452.452,0,0,1,.834.065.439.439,0,0,1-.107.389C242.164,102.294,241.992,102.239,242.005,102.216Z" transform="translate(-241.574 -101.414)" fill="#263238"/>
            </g>
          </g>
        </g>
        <g id="Group_56026" data-name="Group 56026" transform="translate(15.306 22.056)">
          <g id="Group_56025" data-name="Group 56025">
            <g id="Group_56024" data-name="Group 56024">
              <path id="Path_14199" data-name="Path 14199" d="M229.025,108.034c0-.031.124-.042.211-.186a.315.315,0,0,0,.04-.252.278.278,0,0,0-.48-.037.316.316,0,0,0,0,.255c.063.155.186.186.179.216.01.025-.17.053-.306-.146a.44.44,0,0,1-.046-.4.452.452,0,0,1,.835.065.44.44,0,0,1-.107.389C229.184,108.112,229.012,108.057,229.025,108.034Z" transform="translate(-228.594 -107.232)" fill="#263238"/>
            </g>
          </g>
        </g>
        <g id="Group_56037" data-name="Group 56037" transform="translate(19.903 39.113)">
          <g id="Group_56031" data-name="Group 56031">
            <g id="Group_56030" data-name="Group 56030">
              <g id="Group_56029" data-name="Group 56029">
                <g id="Group_56028" data-name="Group 56028">
                  <g id="Group_56027" data-name="Group 56027">
                    <path id="Path_14200" data-name="Path 14200" d="M241.093,155.089l.429,21.519a1.132,1.132,0,0,0,1.151,1.109h0a1.13,1.13,0,0,0,1.113-1.116c.043-3.876.185-16.935.209-21.541a1.445,1.445,0,0,0-1.664-1.435h0A1.451,1.451,0,0,0,241.093,155.089Z" transform="translate(-241.092 -153.609)" fill="#1fa9ff"/>
                  </g>
                </g>
              </g>
            </g>
          </g>
          <g id="Group_56036" data-name="Group 56036" opacity="0.3">
            <g id="Group_56035" data-name="Group 56035">
              <g id="Group_56034" data-name="Group 56034">
                <g id="Group_56033" data-name="Group 56033">
                  <g id="Group_56032" data-name="Group 56032">
                    <path id="Path_14201" data-name="Path 14201" d="M241.093,155.089l.429,21.519a1.132,1.132,0,0,0,1.151,1.109h0a1.13,1.13,0,0,0,1.113-1.116c.043-3.876.185-16.935.209-21.541a1.445,1.445,0,0,0-1.664-1.435h0A1.451,1.451,0,0,0,241.093,155.089Z" transform="translate(-241.092 -153.609)" fill="#1fa9ff"/>
                  </g>
                </g>
              </g>
            </g>
          </g>
        </g>
        <g id="Group_56040" data-name="Group 56040" transform="translate(12.278 1.223)">
          <g id="Group_56039" data-name="Group 56039">
            <g id="Group_56038" data-name="Group 56038">
              <path id="Path_14202" data-name="Path 14202" d="M228.651,50.593a18.174,18.174,0,0,1-1.69,1.979c-.523.6-1.108,1.352-1.719,2.209a28.124,28.124,0,0,0-3.234,6.015c-.378.982-.679,1.883-.895,2.652a18.076,18.076,0,0,1-.719,2.5,8.034,8.034,0,0,1,.3-2.608,21.913,21.913,0,0,1,.786-2.745,23.443,23.443,0,0,1,3.306-6.149,21.918,21.918,0,0,1,1.856-2.169A8.023,8.023,0,0,1,228.651,50.593Z" transform="translate(-220.362 -50.589)" fill="#fff"/>
            </g>
          </g>
        </g>
        <g id="Group_56043" data-name="Group 56043" transform="translate(0.785 41.248)">
          <g id="Group_56042" data-name="Group 56042">
            <g id="Group_56041" data-name="Group 56041">
              <path id="Path_14203" data-name="Path 14203" d="M198.915,159.419c.059.091-.958.753-2.377,2.068l-.55.523c-.19.182-.369.391-.565.6-.4.4-.776.88-1.184,1.369a22.377,22.377,0,0,0-3.851,7.29c-.173.613-.355,1.192-.463,1.75-.059.278-.131.543-.174.8l-.122.748c-.287,1.913-.26,3.126-.368,3.129a2.329,2.329,0,0,1-.121-.85q-.012-.211-.027-.458c0-.168,0-.349.008-.545a12.777,12.777,0,0,1,.076-1.33l.085-.771c.032-.268.093-.542.143-.829.089-.576.256-1.175.42-1.81a20.49,20.49,0,0,1,3.953-7.484c.432-.492.832-.968,1.258-1.367.209-.2.4-.408.6-.585l.589-.505a12.848,12.848,0,0,1,1.055-.812c.16-.113.305-.223.446-.314l.394-.236C198.621,159.519,198.893,159.384,198.915,159.419Z" transform="translate(-189.113 -159.414)" fill="#fff"/>
            </g>
          </g>
        </g>
      </g>
      <g id="Group_56050" data-name="Group 56050" transform="translate(44.082 87.584)">
        <g id="Group_56046" data-name="Group 56046" transform="translate(0 0)">
          <g id="Group_56045" data-name="Group 56045">
            <path id="Path_14204" data-name="Path 14204" d="M169.69,327.392a1.5,1.5,0,0,1,.456-2.766c.542-.107,1.22.047,1.562-.388.311-.395.076-.918.213-1.553a1.209,1.209,0,0,1,1.281-.923,1.777,1.777,0,0,1,1.456.919,3.475,3.475,0,0,1,.419,1.918,3.413,3.413,0,0,1-1.8,2.649,3.955,3.955,0,0,1-3.587.144" transform="translate(-168.94 -321.762)" fill="#50b3e8"/>
          </g>
        </g>
        <g id="Group_56049" data-name="Group 56049" transform="translate(0 0)" opacity="0.8">
          <g id="Group_56048" data-name="Group 56048">
            <g id="Group_56047" data-name="Group 56047">
              <path id="Path_14205" data-name="Path 14205" d="M169.69,327.392a1.5,1.5,0,0,1,.456-2.766c.542-.107,1.22.047,1.562-.388.311-.395.076-.918.213-1.553a1.209,1.209,0,0,1,1.281-.923,1.777,1.777,0,0,1,1.456.919,3.475,3.475,0,0,1,.419,1.918,3.413,3.413,0,0,1-1.8,2.649,3.955,3.955,0,0,1-3.587.144" transform="translate(-168.94 -321.762)" fill="#dbf1ff"/>
            </g>
          </g>
        </g>
      </g>
      <g id="Group_56056" data-name="Group 56056" transform="translate(66.557 81.001)">
        <g id="Group_56052" data-name="Group 56052">
          <g id="Group_56051" data-name="Group 56051">
            <path id="Path_14206" data-name="Path 14206" d="M282.978,289.75a2.336,2.336,0,0,1,4.343.545c.2.84,0,1.906.7,2.414.634.461,1.437.064,2.436.238a1.889,1.889,0,0,1,1.517,1.943,2.776,2.776,0,0,1-1.346,2.327,5.427,5.427,0,0,1-2.968.769,5.33,5.33,0,0,1-4.242-2.648,6.175,6.175,0,0,1-.44-5.588" transform="translate(-282.498 -288.499)" fill="#1fa9ff"/>
          </g>
        </g>
        <g id="Group_56055" data-name="Group 56055" transform="translate(6.099 6.099)" opacity="0.8">
          <g id="Group_56054" data-name="Group 56054">
            <g id="Group_56053" data-name="Group 56053">
              <path id="Path_14207" data-name="Path 14207" d="M282.978,289.75a2.336,2.336,0,0,1,4.343.545c.2.84,0,1.906.7,2.414.634.461,1.437.064,2.436.238a1.889,1.889,0,0,1,1.517,1.943,2.776,2.776,0,0,1-1.346,2.327,5.427,5.427,0,0,1-2.968.769,5.33,5.33,0,0,1-4.242-2.648,6.175,6.175,0,0,1-.44-5.588" transform="translate(-282.498 -288.499)" fill="#fff"/>
            </g>
          </g>
        </g>
      </g>
      <g id="Group_56062" data-name="Group 56062" transform="translate(50.259 79.323)">
        <g id="Group_56058" data-name="Group 56058">
          <g id="Group_56057" data-name="Group 56057">
            <path id="Path_14208" data-name="Path 14208" d="M200.935,280.142a1.464,1.464,0,0,0-.782,1.3,1.386,1.386,0,1,0,.782-1.3" transform="translate(-200.152 -280.02)" fill="#dbf1ff"/>
          </g>
        </g>
        <g id="Group_56061" data-name="Group 56061" opacity="0.8">
          <g id="Group_56060" data-name="Group 56060">
            <g id="Group_56059" data-name="Group 56059">
              <path id="Path_14209" data-name="Path 14209" d="M200.935,280.142a1.464,1.464,0,0,0-.782,1.3,1.386,1.386,0,1,0,.782-1.3" transform="translate(-200.152 -280.02)" fill="#dbf1ff"/>
            </g>
          </g>
        </g>
      </g>
      <g id="Group_56068" data-name="Group 56068" transform="translate(71.694 95.982)">
        <g id="Group_56064" data-name="Group 56064">
          <g id="Group_56063" data-name="Group 56063">
            <path id="Path_14210" data-name="Path 14210" d="M308.844,364.253a.733.733,0,0,0-.391.65.693.693,0,1,0,.391-.65" transform="translate(-308.453 -364.192)" fill="#e8505b"/>
          </g>
        </g>
        <g id="Group_56067" data-name="Group 56067" opacity="0.8">
          <g id="Group_56066" data-name="Group 56066">
            <g id="Group_56065" data-name="Group 56065">
              <path id="Path_14211" data-name="Path 14211" d="M308.844,364.253a.733.733,0,0,0-.391.65.693.693,0,1,0,.391-.65" transform="translate(-308.453 -364.192)" fill="#fff"/>
            </g>
          </g>
        </g>
      </g>
    </g>
  </g>
</svg>
