<svg xmlns="http://www.w3.org/2000/svg" width="34.41" height="34.209" viewBox="0 0 34.41 34.209">
  <g id="Group_17558" data-name="Group 17558" transform="translate(-4 5.998)">
    <g id="Group_6456" data-name="Group 6456" transform="translate(4 -5.998)">
      <g id="Group_17482" data-name="Group 17482">
        <path id="Path_2269" data-name="Path 2269" d="M125.911,7.649a16.934,16.934,0,0,0-12.291,4.992,16.308,16.308,0,0,0-5.076,11.98,16.6,16.6,0,0,0,5.076,12.24,16.928,16.928,0,0,0,12.291,4.992,16.469,16.469,0,0,0,12.036-5,16.321,16.321,0,0,0,5-11.9,16.864,16.864,0,0,0-5-12.223A16.378,16.378,0,0,0,125.911,7.649Zm-6.28,10.775a8.581,8.581,0,0,1,6.28-2.542,7.97,7.97,0,0,1,6.017,2.607,8.921,8.921,0,0,1,2.52,6.46,8.353,8.353,0,0,1-2.542,6.081,7.9,7.9,0,0,1-5.863,2.6,8.779,8.779,0,0,1-9-9,8.251,8.251,0,0,1,2.588-6.2Z" transform="translate(-108.542 -7.646)" fill="#06b2ff"/>
        <path id="Path_2270" data-name="Path 2270" d="M126.111,19.947a5.206,5.206,0,1,1-5.206-5.206A5.206,5.206,0,0,1,126.111,19.947Z" transform="translate(-103.701 -2.841)" fill="#06b2ff"/>
      </g>
    </g>
  </g>
</svg>
