<svg xmlns="http://www.w3.org/2000/svg" width="113" height="113" viewBox="0 0 113 113">
  <g id="Group_58743" data-name="Group 58743" transform="translate(-300 -2964)">
    <circle id="Ellipse_727" data-name="Ellipse 727" cx="56.5" cy="56.5" r="56.5" transform="translate(300 2964)" fill="#06b2ff"/>
    <path id="noun-deployment-5020477" d="M125.216,28.412c0-.043,0-.086,0-.129A10.777,10.777,0,0,0,114.44,17.506q-8.087,0-10.226,7.262a9,9,0,0,0-7.736,8.9,8.981,8.981,0,0,0,8.981,8.981h17.962q7.185,0,7.185-7.185,0-6.222-5.389-7.056ZM112.644,44.449V57.022h-3.592v3.592h10.777V57.022h-3.592V44.449Zm28.639,6.107q-.847,2.874-8.881,2.874-7.742,0-8.81-2.669-.04-.1-.071-.2.847-4.311,8.881-4.311,6.6,0,8.352,2.913a4.305,4.305,0,0,1,.529,1.4Zm-35.924,0q-.848,2.874-8.881,2.874-7.743,0-8.81-2.67c-.027-.067-.05-.135-.071-.2a4.308,4.308,0,0,1,.529-1.4q1.748-2.913,8.352-2.914t8.352,2.914a4.309,4.309,0,0,1,.529,1.4Zm.1,4.4v2.066q0,3.589-8.981,3.589-7.743,0-8.81-2.67a2.461,2.461,0,0,1-.171-.923V54.96q.268.15.557.295a18.649,18.649,0,0,0,8.424,1.768,18.648,18.648,0,0,0,8.424-1.768q.289-.144.557-.295Zm35.924,0v2.066q0,3.589-8.981,3.589-7.743,0-8.81-2.669a2.463,2.463,0,0,1-.171-.923V54.96q.269.15.557.295a20.956,20.956,0,0,0,16.848,0q.289-.144.557-.295ZM87.5,66V62.144q.268.15.557.295a18.649,18.649,0,0,0,8.424,1.768,18.648,18.648,0,0,0,8.424-1.768q.289-.144.557-.295V66q0,5.389-8.981,5.389T87.5,66Zm35.924,0V62.144q.269.15.557.295a20.956,20.956,0,0,0,16.848,0q.289-.144.557-.295V66q0,5.389-8.981,5.389-6.6,0-8.352-2.914A4.719,4.719,0,0,1,123.421,66Z" transform="translate(242.504 2976.494)" fill="#fff" fill-rule="evenodd"/>
  </g>
</svg>
