<svg xmlns="http://www.w3.org/2000/svg" width="117" height="117" viewBox="0 0 117 117">
  <g id="Group_58739" data-name="Group 58739" transform="translate(-304 -2244)">
    <circle id="Ellipse_727" data-name="Ellipse 727" cx="58.5" cy="58.5" r="58.5" transform="translate(304 2244)" fill="#e9f7ff"/>
    <g id="Group_58713" data-name="Group 58713" transform="translate(-8985.957 -556)">
      <path id="Path_51420" data-name="Path 51420" d="M132.935,35.189a5.553,5.553,0,0,0-3.941-9.472H95.049a5.561,5.561,0,0,0,0,11.122h24.508a11.065,11.065,0,0,0-1.47,1.83H95.049a5.561,5.561,0,1,0,0,11.121h16.186v6.658a3.252,3.252,0,0,0-2.358,2.358H99.645a.787.787,0,0,0,0,1.574h9.232a3.24,3.24,0,0,0,6.288,0H124.4a.787.787,0,1,0,0-1.574h-9.232a3.252,3.252,0,0,0-2.357-2.358V49.79h4.824a10.978,10.978,0,1,0,15.3-14.6Zm-19.243,24.4a1.671,1.671,0,1,1-1.671-1.671A1.672,1.672,0,0,1,113.692,59.592Zm3.258-11.376h-21.9a3.987,3.987,0,1,1,0-7.974h22.19a10.867,10.867,0,0,0-.289,7.974Zm-21.9-12.951a3.987,3.987,0,1,1,0-7.974h33.945a3.981,3.981,0,0,1,2.43,7.139,10.887,10.887,0,0,0-9.873.845.691.691,0,0,0-.1-.011h-26.4Zm32.264,18.753a9.41,9.41,0,1,1,9.41-9.409A9.42,9.42,0,0,1,127.313,54.018ZM95.049,23.887h33.945a5.561,5.561,0,1,0,0-11.121H95.049a5.561,5.561,0,1,0,0,11.121Zm0-9.547h33.945a3.987,3.987,0,1,1,0,7.974H95.049a3.987,3.987,0,1,1,0-7.974Zm.018,6.993a3.085,3.085,0,1,0-3.085-3.085A3.089,3.089,0,0,0,95.067,21.334Zm0-4.6a1.512,1.512,0,1,1-1.511,1.512,1.514,1.514,0,0,1,1.511-1.512Zm0,11.378A3.085,3.085,0,1,0,98.153,31.2,3.089,3.089,0,0,0,95.067,28.115Zm0,4.6A1.512,1.512,0,1,1,96.579,31.2,1.513,1.513,0,0,1,95.067,32.712Zm0,8.355a3.085,3.085,0,1,0,3.086,3.085A3.089,3.089,0,0,0,95.067,41.067Zm0,4.6a1.511,1.511,0,1,1,1.512-1.511A1.513,1.513,0,0,1,95.067,45.663Z" transform="translate(9234.469 2820.234)" fill="#222872"/>
      <path id="Path_51419" data-name="Path 51419" d="M383.49,240.212a.787.787,0,0,0-.787.787V251.01a.787.787,0,1,0,1.574,0V241A.787.787,0,0,0,383.49,240.212Zm2.157,4.016a.787.787,0,0,0-.787.787v6a.787.787,0,0,0,1.574,0v-5.995a.787.787,0,0,0-.787-.787Zm2.157,3.017a.787.787,0,0,0-.787.787v2.979a.787.787,0,0,0,1.574,0v-2.979A.787.787,0,0,0,387.8,247.245Zm2.157-4.066a.787.787,0,0,0-.787.787v7.044a.787.787,0,1,0,1.574,0v-7.044a.787.787,0,0,0-.787-.787Zm2.157,2.9a.787.787,0,0,0-.787.787v4.148a.787.787,0,1,0,1.574,0v-4.148A.787.787,0,0,0,392.118,246.075Zm.784-9.489c-.131-.078-6.633-4.487-13.379,1.649a10.989,10.989,0,1,0,13.378-1.649Zm-5.623,18.829a9.41,9.41,0,1,1,9.41-9.409A9.42,9.42,0,0,1,387.28,255.415Z" transform="translate(8974.503 2618.836)" fill="#009eff"/>
    </g>
  </g>
</svg>
