<svg xmlns="http://www.w3.org/2000/svg" width="113" height="113" viewBox="0 0 113 113">
  <g id="Group_58741" data-name="Group 58741" transform="translate(-300 -2724)">
    <circle id="Ellipse_727" data-name="Ellipse 727" cx="56.5" cy="56.5" r="56.5" transform="translate(300 2724)" fill="#06b2ff"/>
    <path id="data-management-icon" d="M42.026,25.453l1.656,1.656a1.124,1.124,0,0,1,0,1.585l-1.334,1.334a8.909,8.909,0,0,1,.828,2.192H44.9a1.124,1.124,0,0,1,1.124,1.124v2.342A1.124,1.124,0,0,1,44.9,36.809H43.03a8.853,8.853,0,0,1-.974,2.143l1.221,1.221a1.124,1.124,0,0,1,0,1.588l-1.656,1.656a1.124,1.124,0,0,1-1.585,0L38.7,42.084a8.991,8.991,0,0,1-2.21.828v1.727a1.124,1.124,0,0,1-1.124,1.124H33.016a1.124,1.124,0,0,1-1.124-1.124V42.765a8.991,8.991,0,0,1-2.143-.978l-1.225,1.221a1.124,1.124,0,0,1-1.585,0l-1.656-1.656a1.124,1.124,0,0,1,0-1.585l1.334-1.334a8.819,8.819,0,0,1-.828-2.207H24.062A1.124,1.124,0,0,1,22.938,35.1V32.762a1.124,1.124,0,0,1,1.124-1.124h1.873a8.89,8.89,0,0,1,.978-2.147l-1.225-1.221a1.124,1.124,0,0,1,0-1.585l1.656-1.656a1.124,1.124,0,0,1,1.585,0l1.337,1.334a8.928,8.928,0,0,1,2.207-.828V23.812A1.124,1.124,0,0,1,33.6,22.688h2.356a1.124,1.124,0,0,1,1.124,1.124v1.873a8.823,8.823,0,0,1,2.147.978l1.225-1.21a1.124,1.124,0,0,1,1.588,0ZM6.731,10.187a40.112,40.112,0,0,0,12.187,1.671,39.613,39.613,0,0,0,12.2-1.671c2.716-.907,4.395-2,4.395-3.08s-1.678-2.169-4.395-3.076A40.1,40.1,0,0,0,18.929,2.357a40.233,40.233,0,0,0-12.2,1.675C.98,5.953.819,8.208,6.731,10.187Zm11.681,25.4A41.913,41.913,0,0,1,6,33.793a14.937,14.937,0,0,1-3.627-1.7V39.15c.214,1,1.843,2.008,4.372,2.851a40.1,40.1,0,0,0,12.187,1.675c.805,0,1.6,0,2.375-.056a5.725,5.725,0,0,0,.749.948h0l1.293,1.289c-1.424.12-2.911.184-4.44.184a42.5,42.5,0,0,1-12.933-1.8C4.217,43.653-.02,41.724-.02,39.42v-.749Q.014,22.887-.013,7.118c0-2.21,2.3-4.076,5.994-5.316A42.671,42.671,0,0,1,18.929,0,42.5,42.5,0,0,1,31.862,1.8c3.334,1.113,5.59,2.776,5.964,4.72a1.165,1.165,0,0,1,.067.4V18.481a5.62,5.62,0,0,0-1.941-.341h-.446a.691.691,0,0,0,0-.086h0V10.685a15.042,15.042,0,0,1-3.664,1.731,42.172,42.172,0,0,1-12.914,1.821A42.567,42.567,0,0,1,5.982,12.416a14.937,14.937,0,0,1-3.627-1.708v7.568c.214,1,1.843,2.012,4.372,2.855A40.1,40.1,0,0,0,18.914,22.8c1.532,0,3.02-.067,4.432-.191l-.611.614c-.086.075-.169.15-.251.232A5.62,5.62,0,0,0,21.342,25.1c-.79.034-1.6.052-2.416.052a42.5,42.5,0,0,1-12.933-1.8,14.937,14.937,0,0,1-3.623-1.7v7.062c.214,1,1.843,2,4.361,2.851a39.519,39.519,0,0,0,11.648,1.671v1.873a3.56,3.56,0,0,0,.022.491Zm16.072-5.968a4.6,4.6,0,1,1-4.608,4.6,4.6,4.6,0,0,1,4.608-4.6Z" transform="translate(335.02 2757)" fill="#fff" fill-rule="evenodd"/>
  </g>
</svg>
