<svg xmlns="http://www.w3.org/2000/svg" width="117" height="117" viewBox="0 0 117 117">
  <g id="Group_58738" data-name="Group 58738" transform="translate(-1025 -1988)">
    <circle id="Ellipse_727" data-name="Ellipse 727" cx="58.5" cy="58.5" r="58.5" transform="translate(1025 1988)" fill="#e9f7ff"/>
    <g id="Group_58714" data-name="Group 58714" transform="translate(-7704.425 -1096)">
      <path id="Path_51367" data-name="Path 51367" d="M191.15,89.239a1.456,1.456,0,0,0-1.032-1.362l-6.228-1.749a21.814,21.814,0,0,0-.954-2.3l3.168-5.641a1.457,1.457,0,0,0-.233-1.693l-5.753-5.753a1.439,1.439,0,0,0-1.014-.406,1.39,1.39,0,0,0-.679.172l-5.641,3.168a21.8,21.8,0,0,0-2.3-.954l-1.748-6.228a1.457,1.457,0,0,0-1.362-1.033h-8.137a1.457,1.457,0,0,0-1.362,1.033l-1.749,6.228a21.709,21.709,0,0,0-2.3.954l-5.641-3.168a1.39,1.39,0,0,0-.679-.172,1.438,1.438,0,0,0-1.014.406l-5.754,5.753a1.457,1.457,0,0,0-.233,1.693l3.168,5.641a21.779,21.779,0,0,0-.954,2.3l-6.227,1.748a1.457,1.457,0,0,0-1.032,1.362v8.136a1.457,1.457,0,0,0,1.032,1.362l6.228,1.749a21.722,21.722,0,0,0,.954,2.3l-3.168,5.641a1.457,1.457,0,0,0,.233,1.693l5.753,5.753a1.439,1.439,0,0,0,1.015.406,1.39,1.39,0,0,0,.679-.172l5.641-3.168a21.8,21.8,0,0,0,2.3.954l1.748,6.228a1.457,1.457,0,0,0,1.362,1.032h8.136a1.458,1.458,0,0,0,1.362-1.032l1.749-6.228a21.726,21.726,0,0,0,2.3-.954l5.641,3.168a1.39,1.39,0,0,0,.679.172,1.44,1.44,0,0,0,1.015-.406l5.753-5.753a1.458,1.458,0,0,0,.233-1.693l-3.168-5.641a21.83,21.83,0,0,0,.954-2.3l6.228-1.748a1.458,1.458,0,0,0,1.032-1.362Zm-8.022,9.951a.726.726,0,0,0-.494.473,20.345,20.345,0,0,1-1.168,2.817.726.726,0,0,0,.015.684l3.341,5.95-5.712,5.712-5.95-3.341a.726.726,0,0,0-.684-.015,20.226,20.226,0,0,1-2.818,1.168.727.727,0,0,0-.473.494l-1.844,6.568h-8.077l-1.844-6.568a.726.726,0,0,0-.473-.494,20.249,20.249,0,0,1-2.818-1.168.726.726,0,0,0-.684.015l-5.95,3.341-5.712-5.712,3.341-5.95a.726.726,0,0,0,.015-.684,20.247,20.247,0,0,1-1.168-2.817.727.727,0,0,0-.494-.473l-6.568-1.844V89.269l6.568-1.844a.726.726,0,0,0,.494-.473,20.219,20.219,0,0,1,1.168-2.818.726.726,0,0,0-.015-.684l-3.341-5.95,5.712-5.711,5.95,3.341a.726.726,0,0,0,.684.015,20.277,20.277,0,0,1,2.818-1.168.727.727,0,0,0,.473-.494l1.844-6.568h8.077l1.844,6.568a.726.726,0,0,0,.473.494,20.247,20.247,0,0,1,2.818,1.168.726.726,0,0,0,.684-.015l5.95-3.341,5.712,5.712-3.341,5.95a.726.726,0,0,0-.015.684,20.247,20.247,0,0,1,1.168,2.818.727.727,0,0,0,.494.473l6.568,1.844v8.077Z" transform="translate(8624.969 3049.54)" fill="#222872"/>
      <path id="Path_51368" data-name="Path 51368" d="M247.975,153.916a16.96,16.96,0,1,0,3.645,5.407A16.954,16.954,0,0,0,247.975,153.916ZM235.945,181.5A15.559,15.559,0,1,1,251.5,165.945,15.576,15.576,0,0,1,235.945,181.5Z" transform="translate(8552.327 2976.901)" fill="#222872"/>
      <path id="Path_51369" data-name="Path 51369" d="M296.2,213.869a.724.724,0,0,0,.386-.112l11.149-7.009.526.839,0,.006a.348.348,0,0,0,.028.039.342.342,0,0,0,.57-.074l1.609-3.032a.342.342,0,0,0-.314-.5l-3.44.123a.345.345,0,0,0-.093.015.328.328,0,0,0-.081.037l-.028.02a.345.345,0,0,0-.092.11.337.337,0,0,0-.039.138.348.348,0,0,0,.014.121.353.353,0,0,0,.041.087l.526.841-11.151,7.01a.728.728,0,0,0,.387,1.344Z" transform="translate(8485.719 2928.96)" fill="#009eff"/>
      <path id="Path_51370" data-name="Path 51370" d="M289.662,258.289h-.736V246.442a.727.727,0,0,0-.727-.727h-2.6a.727.727,0,0,0-.727.727V258.29h-.735v-9.434a.727.727,0,0,0-.727-.727h-2.6a.727.727,0,0,0-.727.727v9.433h-.735v-7.556a.727.727,0,0,0-.727-.727h-2.6a.727.727,0,0,0-.727.727v7.556h-.8v-5.923a.727.727,0,0,0-.727-.727h-2.6a.727.727,0,0,0-.727.727v5.923h-.736a.727.727,0,1,0,0,1.454h19.969a.727.727,0,0,0,0-1.454Zm-3.339-11.12h1.15v11.12h-1.15Zm-4.792,2.415h1.15v8.707h-1.15Zm-4.792,1.878h1.15v6.828h-1.15Zm-4.857,1.632h1.15v5.2h-1.15Z" transform="translate(8508.789 2892.681)" fill="#009eff"/>
    </g>
  </g>
</svg>
