<svg id="Layer_1" data-name="Layer 1" xmlns="http://www.w3.org/2000/svg" viewBox="0 0 50 50"><defs><style>.cls-1{fill:#fff;}</style></defs><path class="cls-1" d="M22,40.48c-5.42,0-12.81-2.74-19.19-8.16a.93.93,0,0,1-.15-.13c-.27-.3-.87-.53-.5-1s.73,0,1.06.16a44.89,44.89,0,0,0,4.41,2.15,45.08,45.08,0,0,0,34.61.41c.58-.22,1.34-.83,1.78,0s-.53,1.15-1,1.5C38.14,38.63,31.57,40.48,22,40.48Z"/><path class="cls-1" d="M50,22.09c0,1.23,0,2.47,0,3.7,0,.42.11,1-.53,1s-1.36.42-1.57-.54c-.13-.62-.37-.36-.66-.17a6,6,0,0,1-2.89,1.05,3.43,3.43,0,0,1-4-2.87A3.63,3.63,0,0,1,43.23,20a8.56,8.56,0,0,1,3.77.07c.56.12.73,0,.69-.55s0-.94-.06-1.4a1.59,1.59,0,0,0-1.54-1.55,10,10,0,0,0-4,.35c-.32.09-.85.48-1-.14s-.23-1,.35-1.44c1.43-.95,5.65-1,7.09-.11a3.44,3.44,0,0,1,1.42,3C50,19.55,50,20.82,50,22.09Zm-4.55-.59a9.12,9.12,0,0,0-1.34.14,1.83,1.83,0,0,0-1.45,2.09,1.65,1.65,0,0,0,1.87,1.55,4.85,4.85,0,0,0,2.73-.86.85.85,0,0,0,.43-.51c.42-1.62,0-2.23-1.69-2.36Z"/><path class="cls-1" d="M7.46,25.74a6.93,6.93,0,0,1-3.33,1.37,3.46,3.46,0,0,1-4.06-2.7A3.66,3.66,0,0,1,3,20a8.78,8.78,0,0,1,3.68.07c.61.13.74-.06.76-.62.11-2.33-.56-3-2.91-2.94a11.52,11.52,0,0,0-2.66.42c-.31.08-.85.48-1-.13s-.28-1.16.41-1.49a3,3,0,0,1,.37-.16A10.18,10.18,0,0,1,7,14.76a3,3,0,0,1,2.66,3c.09,2.77,0,5.54,0,8.31,0,.37-.07.73-.51.69s-1.17.34-1.51-.38A5.5,5.5,0,0,1,7.46,25.74Zm.07-2.41c0-.09,0-.17,0-.25a2.83,2.83,0,0,1,0-.29l0-.56a.47.47,0,0,0-.35-.47,5.56,5.56,0,0,0-3.71,0,1.74,1.74,0,0,0-1,2.08A1.55,1.55,0,0,0,4,25.29a4.67,4.67,0,0,0,2.4-.51,1.89,1.89,0,0,0,1.06-.88A1.24,1.24,0,0,0,7.53,23.33Z"/><path class="cls-1" d="M24.09,25.23a7.78,7.78,0,0,0,2.29-.35c.32-.08.85-.48,1,.18s.27,1.16-.44,1.48a7.8,7.8,0,0,1-2.52.6,7,7,0,0,1-4-.65c-1.94-1-2.46-2.87-2.64-4.86A9.34,9.34,0,0,1,18,18.84a5.66,5.66,0,0,1,8.2-3.68A3.27,3.27,0,0,1,27.9,18.3a3,3,0,0,1-2,2.92,8.45,8.45,0,0,1-5,.26c-.73-.15-.78.07-.72.67C20.35,24.27,21.56,25.24,24.09,25.23Zm-1.47-5.17a5.92,5.92,0,0,0,1.87-.27,1.55,1.55,0,0,0,1.08-1.51,1.65,1.65,0,0,0-.93-1.63,3.15,3.15,0,0,0-4.31,1.79c-.37,1.12-.32,1.23.81,1.44C21.63,20,22.12,20,22.62,20.06Z"/><path class="cls-1" d="M34.23,19c.81-1.21,1.54-2.28,2.27-3.36A2.33,2.33,0,0,1,38.91,15c.52.3.11.63-.07.9-.94,1.33-1.87,2.68-2.87,4a1,1,0,0,0,0,1.47C37,22.77,38,24.27,39.06,25.75c.19.26.49.54.27.89s-.55.12-.83.17a1.9,1.9,0,0,1-2.13-1.08c-.67-1.14-1.46-2.21-2.26-3.38-.87,1.31-1.68,2.52-2.5,3.73a2.27,2.27,0,0,1-2.4.69c-.56-.27-.16-.62,0-.89,1-1.42,2-2.86,3-4.24a1.25,1.25,0,0,0,0-1.81c-1-1.28-1.9-2.66-2.84-4-.48-.67-.3-.88.5-.93a2.21,2.21,0,0,1,2.37,1.24A31,31,0,0,0,34.23,19Z"/><path class="cls-1" d="M12.33,17.22c0-2.24.05-4.48,0-6.71,0-1.18.72-.92,1.39-1s1,.15,1,1c0,4.34,0,8.68,0,13,0,.95.2,1.6,1.34,1.47.5-.06.62.28.64.68s-.05,1-.69,1.15c-2.15.59-3.61-.49-3.65-2.8S12.33,19.49,12.33,17.22Z"/><path class="cls-1" d="M43,31.92c-.92.1-1.85.19-2.78.27-.25,0-.57.14-.67-.23s.14-.43.34-.55a9.61,9.61,0,0,1,7.62-1,.9.9,0,0,1,.68,1,9.74,9.74,0,0,1-2.71,6.79c-.22.23-.5.58-.85.38s-.08-.6,0-.89a25.29,25.29,0,0,0,1.19-3.6c.35-1.63.1-2-1.53-2.11-.43,0-.87,0-1.3,0Z"/></svg>