<svg id="Layer_1" data-name="Layer 1" xmlns="http://www.w3.org/2000/svg" viewBox="0 0 74.78 57.12"><defs><style>.cls-1{fill:#fff;}</style></defs><path class="cls-1" d="M47.65,0a.74.74,0,0,1,.1,1.11C47,2.22,46.29,3.35,45.56,4.48c-.1.15-.19.31-.28.47,5,2.77,8.11,6.72,8,12.75H21.53c-.16-6,2.92-10,8-12.76-.82-1.27-1.62-2.53-2.45-3.78-.3-.44-.36-.8.07-1.16h.44c.17.22.36.42.51.65C28.84,1.81,29.6,3,30.34,4.16c.18.27.32.3.63.21a34.2,34.2,0,0,1,3.71-1A17.17,17.17,0,0,1,43,4.07c1.24.4,1.22.42,1.94-.66S46.44,1.14,47.2,0ZM30,12.29a1.49,1.49,0,0,0,1.53-1.5A1.54,1.54,0,0,0,30,9.27a1.51,1.51,0,0,0-1.5,1.49A1.47,1.47,0,0,0,30,12.29Zm14.67,0a1.47,1.47,0,0,0,1.52-1.51,1.49,1.49,0,0,0-1.47-1.51,1.55,1.55,0,0,0-1.56,1.49A1.51,1.51,0,0,0,44.71,12.29Z"/><path class="cls-1" d="M28.1,45.69c-1,0-2,.06-2.89,0a5.82,5.82,0,0,1-2-.45,2.78,2.78,0,0,1-1.53-2.37c0-.21,0-.41,0-.62v-23H53.14v.58c0,7.45,0,14.91,0,22.36a3.29,3.29,0,0,1-3.58,3.54c-.94,0-1.89,0-2.91,0v.71c0,2.4,0,4.79,0,7.19a3.45,3.45,0,0,1-5.27,3,3.29,3.29,0,0,1-1.66-3c0-2.4,0-4.8,0-7.2v-.64H35.05v.57c0,2.46,0,4.91,0,7.36a3.25,3.25,0,0,1-2,3.13,3.38,3.38,0,0,1-3.75-.57,3,3,0,0,1-1.12-2.28c0-2.51,0-5,0-7.53Z"/><path class="cls-1" d="M61.73,29.44c0,2.42,0,4.83,0,7.25A3.44,3.44,0,0,1,57.05,40a3.4,3.4,0,0,1-2.26-3.36c0-2.73,0-5.47,0-8.2,0-2.13,0-4.27,0-6.4a3.39,3.39,0,0,1,2.39-3.28A3.49,3.49,0,0,1,61.06,20a3.63,3.63,0,0,1,.68,2.3C61.73,24.69,61.74,27.07,61.73,29.44Z"/><path class="cls-1" d="M13,29.42c0-2.42,0-4.83,0-7.25a3.47,3.47,0,1,1,6.94,0v9.48c0,1.71,0,3.42,0,5.12a3.24,3.24,0,0,1-2,3.13,3.36,3.36,0,0,1-3.75-.55,3,3,0,0,1-1.13-2.27c0-2.57,0-5.13,0-7.69Z"/></svg>