<svg xmlns="http://www.w3.org/2000/svg" xmlns:xlink="http://www.w3.org/1999/xlink" width="150" height="150" viewBox="0 0 150 150">
  <defs>
    <linearGradient id="linear-gradient" x1="0.5" x2="0.5" y2="1" gradientUnits="objectBoundingBox">
      <stop offset="0" stop-color="#98e4ff"/>
      <stop offset="1" stop-color="#f1f8fd"/>
    </linearGradient>
  </defs>
  <g id="Group_58337" data-name="Group 58337" transform="translate(-330 -1899)">
    <circle id="Ellipse_727" data-name="Ellipse 727" cx="75" cy="75" r="75" transform="translate(330 1899)" fill="url(#linear-gradient)"/>
    <g id="Group_58307" data-name="Group 58307" transform="translate(-97.086 1801.74)">
      <g id="Group_58306" data-name="Group 58306" transform="translate(474.367 139.727)">
        <path id="Path_47698" data-name="Path 47698" d="M570.958,306.86q8.477,0,16.953,0c.156,0,.2.031.2.2q-.007,12.288,0,24.575a4.151,4.151,0,0,1-3.227,4.137,4.348,4.348,0,0,1-1.007.108c-.831,0-1.661,0-2.492,0-.149,0-.182.042-.182.186,0,2.741,0,5.482,0,8.223A3.717,3.717,0,0,1,580.143,347a3.661,3.661,0,0,1-3.9,1.021,3.7,3.7,0,0,1-2.678-3.065,3.856,3.856,0,0,1-.054-.711q0-4.088,0-8.176c0-.163-.043-.2-.2-.2q-2.373.009-4.746,0c-.151,0-.18.046-.18.186q.006,4.12,0,8.239a3.719,3.719,0,0,1-1.224,2.859,3.663,3.663,0,0,1-3.783.852,3.717,3.717,0,0,1-2.611-2.926,3.842,3.842,0,0,1-.068-.836q0-4.088,0-8.176c0-.165-.046-.2-.2-.2-.841.008-1.683.022-2.524,0a4.089,4.089,0,0,1-3.831-2.487,3.888,3.888,0,0,1-.352-1.695q0-12.335-.005-24.67c0-.164.073-.16.189-.16Q562.473,306.861,570.958,306.86Z" transform="translate(-543.221 -284.598)" fill="#40bdff"/>
        <path id="Path_47699" data-name="Path 47699" d="M570.985,169.843H554.032c-.207,0-.2,0-.2-.206a14.991,14.991,0,0,1,3.52-9.377,16.728,16.728,0,0,1,5.083-4.119c.12-.064.124-.111.061-.224q-1.309-2.348-2.608-4.7a.55.55,0,0,1,.183-.784.544.544,0,0,1,.768.246q1.321,2.377,2.635,4.759c.066.119.115.145.249.087a17.943,17.943,0,0,1,4.952-1.346,18.6,18.6,0,0,1,4.478-.02,17.766,17.766,0,0,1,5.078,1.359c.128.056.188.056.264-.083.86-1.566,1.729-3.127,2.593-4.691a.614.614,0,0,1,.425-.37.522.522,0,0,1,.547.207.531.531,0,0,1,.031.611l-.961,1.734c-.554,1-1.1,2-1.663,2.995-.065.116-.049.161.067.223a16.526,16.526,0,0,1,6.092,5.483,14.851,14.851,0,0,1,2.3,5.791,18.568,18.568,0,0,1,.213,2.288c.007.158-.075.14-.173.14H570.985Z" transform="translate(-543.251 -148.941)" fill="#40bdff"/>
        <path id="Path_47700" data-name="Path 47700" d="M822.125,313.734c0-2.656-.013-5.313,0-7.969a3.689,3.689,0,0,1,2.3-3.55,3.833,3.833,0,0,1,5.325,2.873,4.5,4.5,0,0,1,.058.71q0,7.945,0,15.891a3.845,3.845,0,0,1-7.621.787,4.574,4.574,0,0,1-.065-.821Q822.126,317.695,822.125,313.734Z" transform="translate(-775.806 -280.284)" fill="#40bdff"/>
        <path id="Path_47701" data-name="Path 47701" d="M493.052,313.784c0,2.651-.011,5.3,0,7.953a3.845,3.845,0,1,1-7.689.021q0-7.977,0-15.954a3.844,3.844,0,0,1,7.656-.527,4.765,4.765,0,0,1,.029.6Q493.053,309.832,493.052,313.784Z" transform="translate(-483.901 -280.32)" fill="#40bdff"/>
        <path id="Path_47702" data-name="Path 47702" d="M615.292,229.485a1.432,1.432,0,0,1-1.432,1.431,1.435,1.435,0,0,1,.009-2.87A1.429,1.429,0,0,1,615.292,229.485Z" transform="translate(-594.043 -216.283)" fill="#fefefe"/>
        <path id="Path_47703" data-name="Path 47703" d="M732.811,228.073a1.418,1.418,0,0,1,1.363,1.538,1.431,1.431,0,1,1-2.847-.285A1.434,1.434,0,0,1,732.811,228.073Z" transform="translate(-697.098 -216.303)" fill="#fefefe"/>
      </g>
    </g>
  </g>
</svg>
