<svg xmlns="http://www.w3.org/2000/svg" width="44.941" height="44.941" viewBox="0 0 44.941 44.941">
  <g id="Group_55691" data-name="Group 55691" transform="translate(-357.029 -1847.029)">
    <g id="ui" transform="translate(356.529 1847.029)">
      <path id="Path_14202" data-name="Path 14202" d="M141.312,368h-1.5v3H126.332v1.5h13.482v2.247a2.247,2.247,0,0,1-2.247,2.247H121.089a2.255,2.255,0,0,1-1.948-1.124l-1.3.749a3.761,3.761,0,0,0,3.245,1.873h16.479a3.75,3.75,0,0,0,3.745-3.745Zm0,0" transform="translate(-106.357 -333.545)" fill="#222872"/>
      <path id="Path_14203" data-name="Path 14203" d="M232.5,432H234v1.5h-1.5Zm0,0" transform="translate(-210.278 -391.553)" fill="#222872"/>
      <path id="Path_14204" data-name="Path 14204" d="M34.237,10.009V5.992H46.222v-1.5H34.237V3.745A2.247,2.247,0,0,1,36.484,1.5H52.963a2.246,2.246,0,0,1,1.486.562L55.44.936A3.74,3.74,0,0,0,52.963,0H36.484a3.75,3.75,0,0,0-3.745,3.745v6.741C32.732,10.691,34.73,9.892,34.237,10.009Z" transform="translate(-21.753)" fill="#222872"/>
      <path id="Path_14205" data-name="Path 14205" d="M289.728,42.486a.749.749,0,0,0,.749-.749V32.749a.749.749,0,0,0-.749-.749H273.249a.749.749,0,0,0-.749.749v8.988a.749.749,0,0,0,.749.749ZM274,33.5h14.98v7.49H274Zm0,0" transform="translate(-246.533 -29.004)" fill="#222872"/>
      <path id="Path_14206" data-name="Path 14206" d="M304.5,64h3v1.5h-3Zm0,0" transform="translate(-275.537 -58.008)" fill="#222872"/>
      <path id="Path_14207" data-name="Path 14207" d="M352.5,64h7.49v1.5H352.5Zm0,0" transform="translate(-319.043 -58.008)" fill="#222872"/>
      <path id="Path_14208" data-name="Path 14208" d="M304.5,96h11.984v1.5H304.5Zm0,0" transform="translate(-275.537 -87.012)" fill="#222872"/>
      <path id="Path_14209" data-name="Path 14209" d="M260.585,160a2.375,2.375,0,0,0-1.573.6l-6.534,5.76V160h-1.5v7.49h.217l-4.261,3.76a5.243,5.243,0,0,0-4.944,5.228V177.8a1.947,1.947,0,0,1-1.084,1.753.749.749,0,0,0,.335,1.419h5.243a5.243,5.243,0,0,0,5.228-4.944l10.656-12.076A2.38,2.38,0,0,0,260.585,160Zm-14.1,19.475H243.06a3.455,3.455,0,0,0,.429-1.675v-1.321a3.75,3.75,0,0,1,3.446-3.733l3.284,3.284A3.75,3.75,0,0,1,246.486,179.475Zm14.76-16.512-10.3,11.673-2.618-2.617L260,161.718a.882.882,0,0,1,1.244,1.244Zm0,0" transform="translate(-217.523 -145.02)" fill="#222872"/>
      <path id="Path_14210" data-name="Path 14210" d="M1.249,331.235H17.728a.749.749,0,0,0,.749-.749v-5.992a.749.749,0,0,0-.749-.749H12.484V320h-1.5v3.745H1.249a.749.749,0,0,0-.749.749v5.992A.749.749,0,0,0,1.249,331.235ZM2,325.243h14.98v4.494H2Zm0,0" transform="translate(0 -290.039)" fill="#222872"/>
      <path id="Path_14211" data-name="Path 14211" d="M32.5,392h3.745v1.5H32.5Zm0,0" transform="translate(-29.004 -355.298)" fill="#222872"/>
      <path id="Path_14212" data-name="Path 14212" d="M88.5,392h6.741v1.5H88.5Zm0,0" transform="translate(-79.761 -355.298)" fill="#222872"/>
      <path id="Path_14213" data-name="Path 14213" d="M1.249,39.49h7.49a.749.749,0,0,0,.749-.749V32.749A.749.749,0,0,0,8.739,32H1.249a.749.749,0,0,0-.749.749v5.992A.749.749,0,0,0,1.249,39.49ZM2,33.5H7.99v4.494H2Zm0,0" transform="translate(0 -29.004)" fill="#222872"/>
      <path id="Path_14214" data-name="Path 14214" d="M32.5,64h3v1.5h-3Zm0,0" transform="translate(-29.004 -58.008)" fill="#222872"/>
      <g id="android-logo" transform="translate(-36.051 11.93)">
        <g id="Group_55690" data-name="Group 55690" transform="translate(42.544 0)">
          <path id="Path_14215" data-name="Path 14215" d="M43.5,179.141a.92.92,0,0,0-.676.278.909.909,0,0,0-.278.667v3.982a.948.948,0,0,0,.954.954.906.906,0,0,0,.672-.278.928.928,0,0,0,.273-.676v-3.982a.948.948,0,0,0-.945-.944Z" transform="translate(-42.544 -174.15)" fill="#009eff"/>
          <path id="Path_14216" data-name="Path 14216" d="M129.04,1.417,129.7.2a.122.122,0,0,0-.046-.185.128.128,0,0,0-.185.055L128.8,1.3a4.645,4.645,0,0,0-3.723,0L124.41.074a.128.128,0,0,0-.185-.055.122.122,0,0,0-.046.185l.658,1.213a4.06,4.06,0,0,0-1.593,1.422,3.59,3.59,0,0,0-.593,2h8.566a3.591,3.591,0,0,0-.593-2A4.078,4.078,0,0,0,129.04,1.417Zm-3.8,1.764a.347.347,0,0,1-.255.107.331.331,0,0,1-.25-.107.369.369,0,0,1,0-.509.333.333,0,0,1,.25-.106.36.36,0,0,1,.255.616Zm3.9,0a.332.332,0,0,1-.25.107.361.361,0,0,1,0-.722.333.333,0,0,1,.25.106.369.369,0,0,1,0,.509Z" transform="translate(-120.419 0)" fill="#009eff"/>
          <path id="Path_14217" data-name="Path 14217" d="M123.971,191.617a1.011,1.011,0,0,0,1.018,1.018h.685l.009,2.1a.92.92,0,0,0,.278.676.91.91,0,0,0,.667.278.948.948,0,0,0,.954-.954v-2.1h1.278v2.1a.954.954,0,1,0,1.907,0v-2.1h.695a1.011,1.011,0,0,0,1.009-1.019V185.45h-8.5Z" transform="translate(-121.702 -180.283)" fill="#009eff"/>
          <path id="Path_14218" data-name="Path 14218" d="M443.321,179.141a.918.918,0,0,0-.667.273.906.906,0,0,0-.278.671v3.982a.92.92,0,0,0,.278.676.91.91,0,0,0,.667.278.948.948,0,0,0,.954-.954v-3.982a.905.905,0,0,0-.278-.671A.929.929,0,0,0,443.321,179.141Z" transform="translate(-431.236 -174.15)" fill="#009eff"/>
        </g>
      </g>
    </g>
  </g>
</svg>
