<svg xmlns="http://www.w3.org/2000/svg" width="22.546" height="27.574"  xmlns:v="https://vecta.io/nano"><path d="M20.855 9.196c-.453.004-.885.188-1.202.511a1.71 1.71 0 0 0-.489 1.212v8.041a1.691 1.691 0 1 0 3.382 0v-8.041a1.71 1.71 0 0 0-.489-1.212c-.317-.323-.75-.507-1.202-.511zm-3.382 0h-12.4a.57.57 0 0 0-.564.574v9.19a2.86 2.86 0 0 0 2.255 2.814v4.078a1.691 1.691 0 1 0 3.382 0v-4.02h2.255v4.02a1.691 1.691 0 1 0 3.382 0v-4.078a2.86 2.86 0 0 0 2.255-2.814V9.77a.57.57 0 0 0-.565-.574zm-2.102-6.809l1.374-1.4a.58.58 0 0 0 .014-.812.56.56 0 0 0-.397-.177c-.151-.003-.296.056-.403.163l-.008.014-1.6 1.631a7.58 7.58 0 0 0-6.147 0L6.604.174a.56.56 0 0 0-.403-.163.55.55 0 0 0-.397.177.58.58 0 0 0 0 .8l1.373 1.4C5.495 3.532 4.495 5.44 4.511 7.474a.57.57 0 0 0 .564.574h12.4a.57.57 0 0 0 .564-.574c.016-2.035-.985-3.943-2.668-5.087z" fill="#56c95a"/><ellipse cx="14.091" cy="5.176" rx=".564" ry=".574" fill="#fafafa"/><path d="M1.691 9.196c-.453.004-.885.188-1.202.511s-.493.759-.489 1.212v8.041a1.69 1.69 0 0 0 2.537 1.464 1.69 1.69 0 0 0 .845-1.464v-8.041c.004-.453-.172-.889-.489-1.212s-.75-.507-1.202-.511z" fill="#56c95a"/><ellipse cx="8.455" cy="5.176" rx=".564" ry=".574" fill="#fafafa"/></svg>