<svg xmlns="http://www.w3.org/2000/svg" xmlns:xlink="http://www.w3.org/1999/xlink" width="436.24" height="404.68" viewBox="0 0 436.24 404.68">
  <defs>
    <linearGradient id="linear-gradient" y1="0.5" x2="1" y2="0.5" gradientUnits="objectBoundingBox">
      <stop offset="0" stop-color="#1682f6"/>
      <stop offset="1" stop-color="#18aef6"/>
    </linearGradient>
  </defs>
  <g id="Developer_activity-pana" data-name="Developer activity-pana" transform="translate(-31.88 -60.58)">
    <g id="freepik--Plant--inject-104" transform="translate(344.29 271.45)">
      <path id="Path_51387" data-name="Path 51387" d="M368.42,376.29a31.68,31.68,0,0,0-13.55-4.66c-2.21-.23-4.63-.17-6.41,1.17a1.35,1.35,0,0,0-.66,1.17,1.43,1.43,0,0,0,.63.81,19.39,19.39,0,0,0,20,1.51" transform="translate(-344.29 -271.45)" fill="#06b2ff"/>
      <path id="Path_51388" data-name="Path 51388" d="M368.07,375.91a66.88,66.88,0,0,1-8.75-7.7,22.21,22.21,0,0,1-5.49-10.15,4.11,4.11,0,0,1,.44-3.39c7,5.44,12.45,12.49,13.8,21.24" transform="translate(-344.29 -271.45)" fill="#06b2ff"/>
      <path id="Path_51389" data-name="Path 51389" d="M368.35,376.24a31.461,31.461,0,0,1,.16-11.49,15.48,15.48,0,0,1,6.12-9.48c1.2,2.82.68,6.06-.16,9a44.112,44.112,0,0,1-6.07,12.77" transform="translate(-344.29 -271.45)" fill="#06b2ff"/>
      <path id="Path_51390" data-name="Path 51390" d="M375.18,388.49c-4.15.5-7.76,2.69-10.86,5.5a20.55,20.55,0,0,0-6.22,10.67c4.08-.26,7.53-3.13,10-6.35s4.24-6.75,7-9.76" transform="translate(-344.29 -271.45)" fill="#06b2ff"/>
      <path id="Path_51391" data-name="Path 51391" d="M376.67,390.45a26.8,26.8,0,0,1,3.09-25.35c2.37,8.41,1.5,17.91-3.09,25.35" transform="translate(-344.29 -271.45)" fill="#06b2ff"/>
      <path id="Path_51392" data-name="Path 51392" d="M385.7,401.2a19.611,19.611,0,0,0-10.87,2.55,19.39,19.39,0,0,0-7.65,8.12,1.415,1.415,0,0,0-.13,1.45,1.37,1.37,0,0,0,1.23.36c3.65-.23,6.89-2.43,9.56-4.93s5-5.39,7.94-7.56" transform="translate(-344.29 -271.45)" fill="#06b2ff"/>
      <path id="Path_51393" data-name="Path 51393" d="M385.41,400.62a34.54,34.54,0,0,1-.34-19.28c.68-2.48,1.82-5.09,4.11-6.25a.64.64,0,0,1,1,.35,11.6,11.6,0,0,1,1,5.53,34.315,34.315,0,0,1-.87,5.6c-.72,3.42-1.1,7.09-3,10a19.633,19.633,0,0,0-1.19,2.21c-.36.75-.36,1-.69,1.61" transform="translate(-344.29 -271.45)" fill="#06b2ff"/>
      <path id="Path_51394" data-name="Path 51394" d="M409.33,404.18c-1.77-6.74.11-14.91,4.35-20.43.32-.41.73-.84,1.24-.8.78.07,1,1.12.95,1.9a36.93,36.93,0,0,1-6.54,19.33" transform="translate(-344.29 -271.45)" fill="#06b2ff"/>
      <path id="Path_51395" data-name="Path 51395" d="M411.48,405.66a29.69,29.69,0,0,0,24.39-5,19.82,19.82,0,0,0-13.2-1.62c-4.41,1-8.44,3-11.19,6.59" transform="translate(-344.29 -271.45)" fill="#06b2ff"/>
      <path id="Path_51396" data-name="Path 51396" d="M413.3,401.17c4.59-7.48,13.38-12.36,22.14-12.8-1,3.56-3.94,6.33-7.24,8a40.512,40.512,0,0,1-10.63,3.11c-1.41.28-3.35.58-4.27,1.69" transform="translate(-344.29 -271.45)" fill="#06b2ff"/>
      <path id="Path_51397" data-name="Path 51397" d="M409.78,379.39a64.243,64.243,0,0,0,2.83-13A21.45,21.45,0,0,0,410,353.61c-4.28,8.29-4.71,18-.38,26.23" transform="translate(-344.29 -271.45)" fill="#06b2ff"/>
      <path id="Path_51398" data-name="Path 51398" d="M424.2,372.11c5-9.11,15.23-16.38,25.57-17.4-4,9.93-14.86,17.61-25.57,17.4" transform="translate(-344.29 -271.45)" fill="#06b2ff"/>
      <path id="Path_51399" data-name="Path 51399" d="M421.05,373.89c7.47,1.14,13.84,5.91,20.82,8.8a9.31,9.31,0,0,0,4.71.9,3.68,3.68,0,0,0,2.3-6.51,10.14,10.14,0,0,0-3.42-2.08c-7.6-3.16-15.75-3.24-23.76-1.32" transform="translate(-344.29 -271.45)" fill="#06b2ff"/>
      <path id="Path_51400" data-name="Path 51400" d="M416.73,379.13c1.69.48,2.27,1.36,3.61,2.5a38.91,38.91,0,0,0,15.78,8.11c.61.15,1.4.21,1.7-.34s-.07-1-.41-1.47a21.67,21.67,0,0,0-9.53-6.47c-3.65-1.36-6.8-3-11.15-2.64" transform="translate(-344.29 -271.45)" fill="#06b2ff"/>
      <path id="Path_51401" data-name="Path 51401" d="M411.85,347.48a29.88,29.88,0,0,0,22.9,7.8,1.61,1.61,0,0,0,1.05-.38c.57-.63-.12-1.59-.79-2.12-6.73-5.25-14.89-7.42-23.16-5.3" transform="translate(-344.29 -271.45)" fill="#06b2ff"/>
      <path id="Path_51402" data-name="Path 51402" d="M417.64,345.37a31.91,31.91,0,0,1,28.57-4.72,22.619,22.619,0,0,1-13.61,6,43.138,43.138,0,0,1-15-1.26" transform="translate(-344.29 -271.45)" fill="#06b2ff"/>
      <path id="Path_51403" data-name="Path 51403" d="M415.34,330.83c-.66-6.73-.24-12-.7-18.78,0-.54-.16-1.19-.66-1.39-.7-.27-1.29.6-1.52,1.31a21.52,21.52,0,0,0,2.87,18.71" transform="translate(-344.29 -271.45)" fill="#06b2ff"/>
      <path id="Path_51404" data-name="Path 51404" d="M414.85,331.57A39.57,39.57,0,0,0,426,320.75c2.2-3,4.05-6.62,3.55-10.31a10.65,10.65,0,0,0-8,4,22.551,22.551,0,0,0-4.1,8.24c-.89,2.95-1.51,6-2.56,8.9" transform="translate(-344.29 -271.45)" fill="#06b2ff"/>
      <path id="Path_51405" data-name="Path 51405" d="M425.79,328.53a89.74,89.74,0,0,0,27.4-16.16c-3.27-1.32-7-.53-10.29.79a32.44,32.44,0,0,0-17.25,15.3" transform="translate(-344.29 -271.45)" fill="#06b2ff"/>
      <path id="Path_51406" data-name="Path 51406" d="M417.93,335.25a55.751,55.751,0,0,0,15.21.07c4.94-.83,9.6-2.78,14.21-4.72a1.66,1.66,0,0,0,1-.73,1.11,1.11,0,0,0-.35-1.22,3,3,0,0,0-1.21-.57c-5-1.4-10.41-.74-15.35.92a70.68,70.68,0,0,0-13.47,6.25" transform="translate(-344.29 -271.45)" fill="#06b2ff"/>
      <path id="Path_51407" data-name="Path 51407" d="M389.05,347.71c-3.45-7-3.23-15.09-.25-22.27,2.1,3.2,2.36,7.27,2,11.07s-1.54,7.73-1.61,11.55" transform="translate(-344.29 -271.45)" fill="#06b2ff"/>
      <path id="Path_51408" data-name="Path 51408" d="M375.26,340.76a31.1,31.1,0,0,0-23.08,9.83,21.531,21.531,0,0,0,12.64-2.34A64.161,64.161,0,0,0,375.65,341" transform="translate(-344.29 -271.45)" fill="#06b2ff"/>
      <path id="Path_51409" data-name="Path 51409" d="M366,337.66c-4.21-.34-8.27-.86-12.32.38a14.78,14.78,0,0,0-9.39,8,22.17,22.17,0,0,0,11.55-2.18,66.264,66.264,0,0,0,10.16-6.2" transform="translate(-344.29 -271.45)" fill="#06b2ff"/>
      <path id="Path_51410" data-name="Path 51410" d="M379.72,337.8c-3.79-2.48-7.69-5-12.1-6s-9.53-.27-12.61,3.06c3.57,2.1,7.91,2.34,12.05,2.34s9.22-.05,13.13,1.33" transform="translate(-344.29 -271.45)" fill="#06b2ff"/>
      <path id="Path_51411" data-name="Path 51411" d="M379.74,338c-6.48-6.36-8.94-17.8-6.33-26.5a40.43,40.43,0,0,1,6.33,26.5" transform="translate(-344.29 -271.45)" fill="#06b2ff"/>
      <path id="Path_51412" data-name="Path 51412" d="M397.56,320c1.23-2.84,2.09-5.83,3.18-8.72a25.072,25.072,0,0,1,4.54-8,12,12,0,0,1,8-4.16,32.29,32.29,0,0,1-15.58,21" transform="translate(-344.29 -271.45)" fill="#06b2ff"/>
      <path id="Path_51413" data-name="Path 51413" d="M394.34,323.73c-2-2.79-4.36-6.57-7.11-8.65s-6.31-3.33-9.66-2.54a22.54,22.54,0,0,0,16.77,11.19" transform="translate(-344.29 -271.45)" fill="#06b2ff"/>
      <path id="Path_51414" data-name="Path 51414" d="M395,320.2a48.114,48.114,0,0,1-3.19-10.36,16.15,16.15,0,0,1,1.62-10.53c3.56,6.73,4.7,13.95,1.75,21" transform="translate(-344.29 -271.45)" fill="#06b2ff"/>
      <path id="Path_51415" data-name="Path 51415" d="M397.6,299.31c2-6.66,8.12-11.57,14.71-13.83a5.459,5.459,0,0,1,2.58-.38,2.22,2.22,0,0,1,1.9,1.58c.24,1.14-.7,2.15-1.58,2.91a49.911,49.911,0,0,1-17.61,9.72" transform="translate(-344.29 -271.45)" fill="#06b2ff"/>
      <path id="Path_51416" data-name="Path 51416" d="M397.67,293.86c.26-4.3.52-8.66,1.92-12.73s4.1-7.9,8-9.68c.66,4.34-1.25,8.66-3.56,12.4s-5.1,7.26-6.49,11.43" transform="translate(-344.29 -271.45)" fill="#06b2ff"/>
      <path id="Path_51417" data-name="Path 51417" d="M397.56,296.82c-1.66-4.86-1.83-11-4.74-15.27-2-2.95-5.3-5-7.05-8.11a12.35,12.35,0,0,0,.41,9.21,26.708,26.708,0,0,0,5.38,7.71c2.16,2.3,4,4,6,6.46" transform="translate(-344.29 -271.45)" fill="#06b2ff"/>
      <path id="Path_51418" data-name="Path 51418" d="M397.6,439.93c-.13,0-.25-32.42-.25-72.4s.08-72.4.21-72.4.25,32.41.25,72.4S397.73,439.93,397.6,439.93Z" transform="translate(-344.29 -271.45)" fill="#263238"/>
      <path id="Path_51419" data-name="Path 51419" d="M425.93,342.82a8.132,8.132,0,0,1-1.22.46l-3.36,1.13c-2.83,1-6.71,2.36-10.93,4.09s-8.11,3.24-10.35,5.19a7.5,7.5,0,0,0-2.08,2.75c-.33.76-.38,1.23-.43,1.22a1.1,1.1,0,0,1,0-.34,4.34,4.34,0,0,1,.24-.95,7.149,7.149,0,0,1,2-2.93,17.919,17.919,0,0,1,4.49-2.79c1.8-.84,3.79-1.72,5.9-2.59,4.23-1.73,8.15-3.08,11-4,1.43-.45,2.6-.78,3.4-1a7,7,0,0,1,1.34-.24Z" transform="translate(-344.29 -271.45)" fill="#263238"/>
      <path id="Path_51420" data-name="Path 51420" d="M435.21,320a4.684,4.684,0,0,1-.34.37l-1,1L430,324.88l-13,11.51c-5,4.49-9.41,8.78-12.43,12-1.51,1.61-2.7,2.95-3.51,3.88l-.94,1.07a2.71,2.71,0,0,1-.35.36,3.32,3.32,0,0,1,.27-.42c.19-.26.48-.65.88-1.13.77-1,1.92-2.34,3.41-4A162.891,162.891,0,0,1,416.71,336c5.06-4.48,9.67-8.5,13-11.41l4-3.41,1.1-.91A2,2,0,0,1,435.21,320Z" transform="translate(-344.29 -271.45)" fill="#263238"/>
      <path id="Path_51421" data-name="Path 51421" d="M411.57,341c-.13-.06.93-2.49,2-5.57s1.55-5.68,1.69-5.65a19.231,19.231,0,0,1-1.25,5.8,38.187,38.187,0,0,1-1.57,3.89A6,6,0,0,1,411.57,341Z" transform="translate(-344.29 -271.45)" fill="#263238"/>
      <path id="Path_51422" data-name="Path 51422" d="M397.63,360.58a5,5,0,0,1-.78-.9l-2-2.56c-1.68-2.16-4-5.14-6.58-8.41s-5-6.2-6.7-8.32l-2-2.52a5.129,5.129,0,0,1-.7-1,6.4,6.4,0,0,1,.84.84c.52.57,1.25,1.39,2.15,2.43,1.79,2.06,4.22,5,6.82,8.24s4.87,6.29,6.47,8.5c.81,1.11,1.44,2,1.88,2.65A6.211,6.211,0,0,1,397.63,360.58Z" transform="translate(-344.29 -271.45)" fill="#263238"/>
      <path id="Path_51423" data-name="Path 51423" d="M391.41,352.61a11.59,11.59,0,0,1-2.6-4.88,13.882,13.882,0,0,1-.59-4.91h.21c-.09.37-.16.57-.2.57s0-.22,0-.6h.21a22.833,22.833,0,0,0,.83,4.78,37.429,37.429,0,0,0,2.14,5.04Z" transform="translate(-344.29 -271.45)" fill="#263238"/>
      <path id="Path_51424" data-name="Path 51424" d="M383.4,342.52a8.3,8.3,0,0,0-1.82-1.06,12.2,12.2,0,0,0-5.05-.4,32.3,32.3,0,0,0-5.08.82,13.813,13.813,0,0,1-2.09.5,7.872,7.872,0,0,1,2-.82,23.212,23.212,0,0,1,5.13-1,11,11,0,0,1,5.2.57A3.28,3.28,0,0,1,383.4,342.52Z" transform="translate(-344.29 -271.45)" fill="#263238"/>
      <path id="Path_51425" data-name="Path 51425" d="M381.49,340.07c0,.08-1.05-.42-2.78-1a28,28,0,0,0-14-1.07c-1.79.32-2.88.66-2.9.58a2.59,2.59,0,0,1,.74-.31,16.492,16.492,0,0,1,2.1-.59,24.6,24.6,0,0,1,14.2,1.08,17.947,17.947,0,0,1,2,.9C381.27,339.9,381.51,340,381.49,340.07Z" transform="translate(-344.29 -271.45)" fill="#263238"/>
      <path id="Path_51426" data-name="Path 51426" d="M397.56,329.74a60.065,60.065,0,0,1-2-7.06,57,57,0,0,1-1.57-7.16,59.5,59.5,0,0,1,2,7.05,56.528,56.528,0,0,1,1.57,7.17Z" transform="translate(-344.29 -271.45)" fill="#263238"/>
      <path id="Path_51427" data-name="Path 51427" d="M397.69,329.74a33,33,0,0,0-2.25-4.23,18.37,18.37,0,0,0-3.31-3.41,3,3,0,0,1,1.28.66,10.218,10.218,0,0,1,2.42,2.48,9.3,9.3,0,0,1,1.86,4.5Z" transform="translate(-344.29 -271.45)" fill="#263238"/>
      <path id="Path_51428" data-name="Path 51428" d="M397.6,422.65c-.05,0-.15-.78-.51-2.16a31.624,31.624,0,0,0-2.17-5.61,77.82,77.82,0,0,0-11.49-16.19c-2.57-2.94-5.06-5.7-7.17-8.35a57.9,57.9,0,0,1-5.13-7.39,36.56,36.56,0,0,1-2.59-5.49c-.24-.68-.41-1.2-.51-1.57a3,3,0,0,1-.13-.56s.28.74.81,2.06a40.719,40.719,0,0,0,2.71,5.39,61.941,61.941,0,0,0,5.17,7.29c2.12,2.62,4.62,5.37,7.19,8.31,5.19,5.82,9.26,11.7,11.44,16.35a28.615,28.615,0,0,1,2,5.72c.15.7.25,1.25.29,1.62a3.1,3.1,0,0,1,.09.58Z" transform="translate(-344.29 -271.45)" fill="#263238"/>
      <path id="Path_51429" data-name="Path 51429" d="M423.2,393.73a12.816,12.816,0,0,1-1.35.76,28.065,28.065,0,0,0-3.48,2.3A40,40,0,0,0,413.8,401c-1.6,1.7-3.25,3.67-4.94,5.78-3.37,4.23-6.52,8-8.41,11a41.586,41.586,0,0,0-2.11,3.61c-.47.87-.71,1.36-.74,1.35s0-.14.12-.38.24-.61.45-1.06a35.565,35.565,0,0,1,2-3.7,120.227,120.227,0,0,1,8.33-11.08c1.69-2.11,3.36-4.08,5-5.77a37.428,37.428,0,0,1,4.69-4.14,24.937,24.937,0,0,1,3.59-2.2c.44-.22.81-.36,1.05-.46a1.419,1.419,0,0,1,.37-.22Z" transform="translate(-344.29 -271.45)" fill="#263238"/>
      <path id="Path_51430" data-name="Path 51430" d="M423.7,403.11a19.491,19.491,0,0,1-2.84.41,37.355,37.355,0,0,0-6.72,1.33,20.27,20.27,0,0,0-6,3.16c-1.38,1.07-2,2-2.1,1.91s.11-.26.42-.66a11.564,11.564,0,0,1,1.47-1.51A18.5,18.5,0,0,1,414,404.4a31.2,31.2,0,0,1,6.84-1.21,16.57,16.57,0,0,1,2.86-.08Z" transform="translate(-344.29 -271.45)" fill="#263238"/>
      <path id="Path_51431" data-name="Path 51431" d="M406.83,408.89c-.14-.09,1.13-2,2.13-4.66s1.14-5,1.31-5a4.409,4.409,0,0,1,0,1.52,16.461,16.461,0,0,1-.82,3.59,17.721,17.721,0,0,1-1.65,3.28A4.389,4.389,0,0,1,406.83,408.89Z" transform="translate(-344.29 -271.45)" fill="#263238"/>
      <path id="Path_51432" data-name="Path 51432" d="M431.49,368.55a2.453,2.453,0,0,1-.46.24l-1.33.61c-.58.25-1.29.56-2.09,1s-1.74.83-2.71,1.42l-1.55.88c-.53.31-1.06.67-1.63,1-1.14.69-2.28,1.54-3.5,2.41a60.139,60.139,0,0,0-13.49,14c-.83,1.25-1.64,2.42-2.29,3.58-.34.58-.68,1.12-1,1.67l-.83,1.57c-.55,1-.95,1.95-1.33,2.76s-.69,1.53-.92,2.12-.41,1-.56,1.36a3.188,3.188,0,0,1-.22.46,1.807,1.807,0,0,1,.13-.5q.19-.54.48-1.38c.21-.61.48-1.34.85-2.16s.74-1.8,1.27-2.8l.81-1.6a16.935,16.935,0,0,1,1-1.69c.64-1.18,1.45-2.37,2.27-3.64A57.942,57.942,0,0,1,418,375.78c1.24-.86,2.4-1.71,3.55-2.39.58-.35,1.11-.71,1.66-1l1.57-.86c1-.57,1.94-1,2.76-1.37a21.757,21.757,0,0,1,2.13-.92l1.37-.53A1.87,1.87,0,0,1,431.49,368.55Z" transform="translate(-344.29 -271.45)" fill="#263238"/>
      <path id="Path_51433" data-name="Path 51433" d="M411.23,382.12a3.16,3.16,0,0,1,1.11-1.65,7,7,0,0,1,4.49-1.73,12.2,12.2,0,0,1,4.72.93,6.708,6.708,0,0,1,1.79.86,10.467,10.467,0,0,1-1.9-.55,14.32,14.32,0,0,0-4.6-.77,7.31,7.31,0,0,0-4.28,1.51A12.472,12.472,0,0,0,411.23,382.12Z" transform="translate(-344.29 -271.45)" fill="#263238"/>
      <path id="Path_51434" data-name="Path 51434" d="M408.2,385.25a17.076,17.076,0,0,0,1.27-4.15,17.512,17.512,0,0,0-.28-4.33,2.829,2.829,0,0,1,.52,1.21,8.51,8.51,0,0,1-.72,6.21C408.59,384.91,408.24,385.28,408.2,385.25Z" transform="translate(-344.29 -271.45)" fill="#263238"/>
      <path id="Path_51435" data-name="Path 51435" d="M375.21,427.29c.7,12.39,4.43,25,10.17,37.73h25c5.48-12.61,8.95-25.19,9.57-37.73Z" transform="translate(-344.29 -271.45)" fill="#455a64"/>
      <path id="Path_51436" data-name="Path 51436" d="M415.87,447.34c0,.13-8.22.23-18.36.23s-18.36-.1-18.36-.23,8.22-.24,18.36-.24S415.87,447.21,415.87,447.34Z" transform="translate(-344.29 -271.45)" fill="#fafafa"/>
      <path id="Path_51437" data-name="Path 51437" d="M415.32,451.83c0,.13-7.71.23-17.22.23s-17.21-.1-17.21-.23,7.7-.24,17.21-.24S415.32,451.7,415.32,451.83Z" transform="translate(-344.29 -271.45)" fill="#fafafa"/>
    </g>
    <g id="freepik--binary-numbers--inject-104" transform="translate(238.54 136.14)">
      <path id="Path_51438" data-name="Path 51438" d="M246,140c0-2.42,1.27-3.86,3-3.86s3,1.44,3,3.86-1.28,3.85-3,3.85S246,142.39,246,140Zm5.26,0c0-2-.91-3.15-2.23-3.15S246.8,138,246.8,140s.91,3.14,2.23,3.14S251.26,142,251.26,140Z" transform="translate(-238.54 -136.14)" fill="#06b2ff"/>
      <path id="Path_51439" data-name="Path 51439" d="M253.18,140c0-2.42,1.26-3.86,3-3.86s3,1.44,3,3.86-1.28,3.85-3,3.85S253.18,142.39,253.18,140Zm5.25,0c0-2-.91-3.15-2.23-3.15S254,138,254,140s.91,3.14,2.23,3.14S258.43,142,258.43,140Z" transform="translate(-238.54 -136.14)" fill="#06b2ff"/>
      <path id="Path_51440" data-name="Path 51440" d="M262.43,136.18v7.59h-.78v-6.89h-1.79v-.7Z" transform="translate(-238.54 -136.14)" fill="#06b2ff"/>
      <path id="Path_51441" data-name="Path 51441" d="M264.24,140c0-2.42,1.27-3.86,3-3.86s3,1.44,3,3.86-1.28,3.85-3,3.85S264.24,142.39,264.24,140Zm5.25,0c0-2-.91-3.15-2.23-3.15S265,138,265,140s.91,3.14,2.23,3.14S269.49,142,269.49,140Z" transform="translate(-238.54 -136.14)" fill="#06b2ff"/>
      <path id="Path_51442" data-name="Path 51442" d="M273.49,136.18v7.59h-.78v-6.89h-1.78v-.7Z" transform="translate(-238.54 -136.14)" fill="#06b2ff"/>
      <path id="Path_51443" data-name="Path 51443" d="M238.54,150.74c0-2.41,1.26-3.86,3-3.86s3,1.45,3,3.86-1.28,3.86-3,3.86S238.54,153.16,238.54,150.74Zm5.25,0c0-2-.91-3.14-2.23-3.14s-2.23,1.11-2.23,3.14.91,3.14,2.23,3.14S243.79,152.77,243.79,150.74Z" transform="translate(-238.54 -136.14)" fill="#06b2ff"/>
      <path id="Path_51444" data-name="Path 51444" d="M245.71,150.74c0-2.41,1.27-3.86,3-3.86s3,1.45,3,3.86-1.28,3.86-3,3.86S245.71,153.16,245.71,150.74Zm5.25,0c0-2-.91-3.14-2.23-3.14s-2.23,1.11-2.23,3.14.91,3.14,2.23,3.14,2.27-1.11,2.27-3.14Z" transform="translate(-238.54 -136.14)" fill="#06b2ff"/>
      <path id="Path_51445" data-name="Path 51445" d="M255,147v7.58h-.78v-6.89H252.4V147Z" transform="translate(-238.54 -136.14)" fill="#06b2ff"/>
      <path id="Path_51446" data-name="Path 51446" d="M256.77,150.74c0-2.41,1.27-3.86,3-3.86s3,1.45,3,3.86-1.28,3.86-3,3.86S256.77,153.16,256.77,150.74Zm5.26,0c0-2-.91-3.14-2.24-3.14s-2.23,1.11-2.23,3.14.91,3.14,2.23,3.14,2.21-1.11,2.21-3.14Z" transform="translate(-238.54 -136.14)" fill="#06b2ff"/>
      <path id="Path_51447" data-name="Path 51447" d="M266,147v7.58h-.79v-6.89h-1.78V147Z" transform="translate(-238.54 -136.14)" fill="#06b2ff"/>
      <path id="Path_51448" data-name="Path 51448" d="M269.94,147v7.58h-.78v-6.89h-1.79V147Z" transform="translate(-238.54 -136.14)" fill="#06b2ff"/>
      <path id="Path_51449" data-name="Path 51449" d="M271.75,150.74c0-2.41,1.26-3.86,3-3.86s3,1.45,3,3.86-1.28,3.86-3,3.86S271.75,153.16,271.75,150.74Zm5.25,0c0-2-.91-3.14-2.23-3.14s-2.23,1.11-2.23,3.14.91,3.14,2.23,3.14S277,152.77,277,150.74Z" transform="translate(-238.54 -136.14)" fill="#06b2ff"/>
      <path id="Path_51450" data-name="Path 51450" d="M281,147v7.58h-.78v-6.89h-1.79V147Z" transform="translate(-238.54 -136.14)" fill="#06b2ff"/>
      <path id="Path_51451" data-name="Path 51451" d="M246,161.15c0-2.42,1.26-3.86,3-3.86s3,1.44,3,3.86-1.28,3.86-3,3.86S246,163.57,246,161.15Zm5.25,0c0-2-.91-3.14-2.23-3.14s-2.23,1.11-2.23,3.14.91,3.14,2.23,3.14,2.24-1.11,2.24-3.14Z" transform="translate(-238.54 -136.14)" fill="#06b2ff"/>
      <path id="Path_51452" data-name="Path 51452" d="M255.26,157.36v7.58h-.78v-6.89h-1.79v-.69Z" transform="translate(-238.54 -136.14)" fill="#06b2ff"/>
      <path id="Path_51453" data-name="Path 51453" d="M259.17,157.36v7.58h-.78v-6.89H256.6v-.69Z" transform="translate(-238.54 -136.14)" fill="#06b2ff"/>
      <path id="Path_51454" data-name="Path 51454" d="M263.08,157.36v7.58h-.78v-6.89h-1.79v-.69Z" transform="translate(-238.54 -136.14)" fill="#06b2ff"/>
      <path id="Path_51455" data-name="Path 51455" d="M264.89,161.15c0-2.42,1.27-3.86,3-3.86s3,1.44,3,3.86-1.28,3.86-3,3.86S264.89,163.57,264.89,161.15Zm5.26,0c0-2-.92-3.14-2.24-3.14s-2.23,1.11-2.23,3.14.91,3.14,2.23,3.14,2.24-1.11,2.24-3.14Z" transform="translate(-238.54 -136.14)" fill="#06b2ff"/>
      <path id="Path_51456" data-name="Path 51456" d="M274.14,157.36v7.58h-.78v-6.89h-1.78v-.69Z" transform="translate(-238.54 -136.14)" fill="#06b2ff"/>
    </g>
    <g id="freepik--speech-bubble--inject-104" transform="translate(245.513 60.58)">
      <path id="Path_51457" data-name="Path 51457" d="M275.11,60.58h.51l1.49.05h1.1l1.31.19,1.53.22,1.71.43a29.15,29.15,0,0,1,3.93,1.31l2.15,1c.74.36,1.45.85,2.21,1.29a29.28,29.28,0,0,1,13.48,22,31.253,31.253,0,0,1,.09,4,10.917,10.917,0,0,1-.12,2c-.12.63-.21,1.37-.31,2.07a29.514,29.514,0,0,1-15.68,21.07c-.73.34-1.44.73-2.2,1l-2.3.85c-.79.22-1.59.41-2.38.62a22.411,22.411,0,0,1-2.45.43c-.41.06-.82.15-1.24.17l-1.25.06a23.564,23.564,0,0,1-2.52.07,28.878,28.878,0,0,1-5.06-.6,29.39,29.39,0,0,1-8.18-3h.24l-9.85,4.69-.45.21.09-.49q1.06-5.59,2.06-10.87l.06.21a29.44,29.44,0,0,1-7-25.45,28.87,28.87,0,0,1,4.4-10.63,29.629,29.629,0,0,1,6.8-7.16,32,32,0,0,1,3.57-2.34c.59-.32,1.19-.57,1.76-.85a10.62,10.62,0,0,1,1.68-.72,23.139,23.139,0,0,1,3.11-1,18.559,18.559,0,0,1,2.7-.41c.81-.11,1.53-.24,2.15-.3l1.57-.06h1.32a1.64,1.64,0,0,1-.32,0l-1,.07-1.57.1c-.62.07-1.33.21-2.13.33a19.87,19.87,0,0,0-2.64.6,24.722,24.722,0,0,0-3.08,1,12.429,12.429,0,0,0-1.65.73c-.56.28-1.16.54-1.74.87a31.084,31.084,0,0,0-3.52,2.34,29.559,29.559,0,0,0-6.68,7.11,29.129,29.129,0,0,0,2.63,35.51l.08.09v.12q-1,5.26-2,10.87l-.36-.27,9.85-4.7.12-.06.11.07a29.12,29.12,0,0,0,8,2.94,28.821,28.821,0,0,0,5,.59c.83,0,1.66,0,2.48-.06l1.23-.07a10.189,10.189,0,0,0,1.22-.16,24.077,24.077,0,0,0,2.4-.42c.79-.21,1.57-.4,2.35-.62l2.26-.82c.74-.29,1.44-.68,2.16-1a30.549,30.549,0,0,0,7.51-5.46,29.941,29.941,0,0,0,5.22-7.22,28.732,28.732,0,0,0,2.73-8c.1-.69.21-1.36.31-2s.08-1.36.13-2a30.46,30.46,0,0,0-.08-3.95,29.15,29.15,0,0,0-13.2-21.77c-.76-.44-1.46-.93-2.19-1.29l-2.11-1a32.907,32.907,0,0,0-3.89-1.34l-1.7-.44L279.5,61l-1.31-.21c-.4,0-.76-.05-1.09-.08l-1.48-.1a5,5,0,0,1-.51-.03Z" transform="translate(-245.513 -60.58)" fill="#455a64"/>
    </g>
    <g id="freepik--Screens--inject-104" transform="translate(84 116.72)">
      <rect id="Rectangle_28174" data-name="Rectangle 28174" width="86.66" height="35.2" transform="translate(254.5 73.34)" fill="#fff"/>
      <path id="Path_51464" data-name="Path 51464" d="M425.16,225.26v-9.45c0-6.07,0-14.86-.05-25.74l.09.1H338.55l.14-.14v35.2l-.14-.13,62.14.06h.06l-62.23.06h-.13v-35.3h.14l86.65.05h.1v.09c0,10.9,0,19.71-.05,25.8v8.81A1.808,1.808,0,0,1,425.16,225.26Z" transform="translate(-84 -116.72)" fill="#06b2ff"/>
      <rect id="Rectangle_28175" data-name="Rectangle 28175" width="20.93" height="20.93" transform="translate(261.87 81.4)" fill="#06b2ff"/>
      <path id="Path_51465" data-name="Path 51465" d="M419.17,206.14c0,.07-10.77.14-24.06.14s-24.06-.07-24.06-.14,10.77-.14,24.06-.14S419.17,206.06,419.17,206.14Z" transform="translate(-84 -116.72)" fill="#06b2ff"/>
      <path id="Path_51466" data-name="Path 51466" d="M419.17,210.4c0,.08-10.77.14-24.06.14s-24.06-.06-24.06-.14,10.77-.13,24.06-.13S419.17,210.33,419.17,210.4Z" transform="translate(-84 -116.72)" fill="#06b2ff"/>
      <path id="Path_51467" data-name="Path 51467" d="M402,214.67a1.339,1.339,0,0,1-.32,0H371.29a1.34,1.34,0,0,1-.32,0H402Z" transform="translate(-84 -116.72)" fill="#06b2ff"/>
      <rect id="Rectangle_28176" data-name="Rectangle 28176" width="91.43" height="60.33" transform="translate(225.69 2.31)" fill="#fafafa"/>
      <path id="Path_51468" data-name="Path 51468" d="M401.12,179.36v-4.29c0-2.8,0-6.89-.05-12.13,0-10.49-.06-25.54-.11-43.91l.21.21-91.42.05h0L310,119v60.33l-.24-.24,65.82.12,18.84.07h.05l-18.78.06-66,.12h-.24V118.63h.27l91.42.06h.21v.2c0,18.42-.08,33.52-.1,44,0,5.22,0,9.3-.06,12.09v3.15A10.005,10.005,0,0,1,401.12,179.36Z" transform="translate(-84 -116.72)" fill="#263238"/>
      <path id="Path_51469" data-name="Path 51469" d="M401.54,125.19c0,.14-20.42.26-45.61.26s-45.61-.12-45.61-.26,20.42-.26,45.61-.26S401.54,125,401.54,125.19Z" transform="translate(-84 -116.72)" fill="#263238"/>
      <rect id="Rectangle_28177" data-name="Rectangle 28177" width="29.13" height="38.4" transform="translate(233.65 17.16)" fill="#06b2ff"/>
      <path id="Path_51470" data-name="Path 51470" d="M393.16,135.67c0,.14-9.14.26-20.42.26s-20.42-.12-20.42-.26,9.14-.26,20.42-.26S393.16,135.52,393.16,135.67Z" transform="translate(-84 -116.72)" fill="#06b2ff"/>
      <path id="Path_51471" data-name="Path 51471" d="M393.16,140.47c0,.14-9.14.26-20.42.26s-20.42-.12-20.42-.26,9.14-.26,20.42-.26S393.16,140.33,393.16,140.47Z" transform="translate(-84 -116.72)" fill="#06b2ff"/>
      <path id="Path_51472" data-name="Path 51472" d="M393.16,145.28c0,.14-9.14.26-20.42.26s-20.42-.12-20.42-.26,9.14-.26,20.42-.26S393.16,145.13,393.16,145.28Z" transform="translate(-84 -116.72)" fill="#06b2ff"/>
      <path id="Path_51473" data-name="Path 51473" d="M393.16,150.08c0,.15-9.14.26-20.42.26s-20.42-.11-20.42-.26,9.14-.26,20.42-.26S393.16,149.94,393.16,150.08Z" transform="translate(-84 -116.72)" fill="#06b2ff"/>
      <rect id="Rectangle_28178" data-name="Rectangle 28178" width="16.42" height="18.21" transform="translate(291.48 37.34)" fill="#06b2ff"/>
      <path id="Path_51474" data-name="Path 51474" d="M372.79,154.89a97.239,97.239,0,0,1-10,.26,97,97,0,0,1-10-.26,93.65,93.65,0,0,1,10-.26,93.94,93.94,0,0,1,10,.26Z" transform="translate(-84 -116.72)" fill="#06b2ff"/>
      <path id="Path_51475" data-name="Path 51475" d="M372.79,159.69a93.936,93.936,0,0,1-10,.26,93.671,93.671,0,0,1-10-.26,97,97,0,0,1,10-.26,97.241,97.241,0,0,1,10,.26Z" transform="translate(-84 -116.72)" fill="#06b2ff"/>
      <path id="Path_51476" data-name="Path 51476" d="M372.79,165.26a93.936,93.936,0,0,1-10,.26,93.659,93.659,0,0,1-10-.26,97,97,0,0,1,10-.26,97.24,97.24,0,0,1,10,.26Z" transform="translate(-84 -116.72)" fill="#06b2ff"/>
      <path id="Path_51477" data-name="Path 51477" d="M372.27,170.94a93.663,93.663,0,0,1-10,.26,93.935,93.935,0,0,1-10-.26,97.236,97.236,0,0,1,10-.26,96.992,96.992,0,0,1,10,.26Z" transform="translate(-84 -116.72)" fill="#06b2ff"/>
      <path id="Path_51478" data-name="Path 51478" d="M163.08,150.34a3.357,3.357,0,0,1,0-.4v-5.26c0-3.58-.06-8.66-.1-14.77l.19.2H137.68c-.05,0,.44-.44.23-.23h0v20.41l-.21-.21,18.36.1,5.23.06h.09l-5.19.05-18.49.1h-.21V129.78h0c-.21.2.28-.29.23-.24H163.4v.19c0,6.16-.07,11.28-.1,14.9v5.18A2.369,2.369,0,0,1,163.08,150.34Z" transform="translate(-84 -116.72)" fill="#06b2ff"/>
      <path id="Path_51479" data-name="Path 51479" d="M159.82,142.89a14,14,0,0,1-1.59-1.39c-1-.9-2.36-2.21-4-3.77h.3l-4,4.63-.16.18-.15.17-.17-.14-2.5-2.07h.29c-2.2,2-4.13,3.66-5.51,4.85l-1.63,1.38a2.78,2.78,0,0,1-.63.46,3,3,0,0,1,.52-.57l1.55-1.48c1.33-1.25,3.21-3,5.4-5l.14-.13.15.12,2.51,2.06h-.32l.17-.19,4.08-4.59.14-.16.16.15c1.6,1.59,2.94,2.94,3.87,3.9a12.75,12.75,0,0,1,1.38,1.59Z" transform="translate(-84 -116.72)" fill="#06b2ff"/>
      <path id="Path_51480" data-name="Path 51480" d="M146.46,135.87s-.14-.15-.4-.38a2.25,2.25,0,0,0-1.29-.57,2.14,2.14,0,0,0-1.83.76,2.05,2.05,0,0,0,1.92,3.33,2.12,2.12,0,0,0,1.58-1.2,2.26,2.26,0,0,0,.15-1.4,3.672,3.672,0,0,1-.13-.54,1.2,1.2,0,0,1,.3.49,2.21,2.21,0,0,1,0,1.57,2.38,2.38,0,0,1-1.8,1.5,2.46,2.46,0,0,1-2.33-4,2.41,2.41,0,0,1,2.2-.81,2.25,2.25,0,0,1,1.38.76C146.43,135.66,146.48,135.86,146.46,135.87Z" transform="translate(-84 -116.72)" fill="#06b2ff"/>
      <path id="Path_51481" data-name="Path 51481" d="M134.63,144.77s-.15-.15-.4-.38a2.28,2.28,0,0,0-1.29-.57,2.14,2.14,0,0,0-1.83.76,2.05,2.05,0,0,0,1.92,3.34,2.12,2.12,0,0,0,1.57-1.21,2.27,2.27,0,0,0,.16-1.4c-.07-.34-.17-.52-.13-.54s.17.14.3.49a2.25,2.25,0,0,1,0,1.58,2.39,2.39,0,0,1-1.8,1.49,2.46,2.46,0,0,1-2.32-4,2.41,2.41,0,0,1,2.2-.81,2.24,2.24,0,0,1,1.38.77C134.59,144.56,134.65,144.76,134.63,144.77Z" transform="translate(-84 -116.72)" fill="#06b2ff"/>
      <path id="Path_51482" data-name="Path 51482" d="M150.34,151.24a2.3,2.3,0,0,1,0,.43q0,.495,0,1.26c0,1.16,0,2.76.07,4.75v.14h-.14c-5.27,0-13.56.08-22.86.08h-1.4v-.23c0-7.25,0-13.82.06-18.77v-.17h.17l6.84.07,1.86.05a2.511,2.511,0,0,1,.65,0,4.055,4.055,0,0,1-.65,0l-1.86.05-6.84.07.17-.16c0,5,0,11.52.06,18.77l-.23-.23h1.17c9.3,0,17.59,0,22.86.09l-.15.14c0-2,.05-3.59.07-4.75v-1.26A1.28,1.28,0,0,1,150.34,151.24Z" transform="translate(-84 -116.72)" fill="#06b2ff"/>
      <path id="Path_51483" data-name="Path 51483" d="M136.23,149.08a36.768,36.768,0,0,1-3.69,3.5,36.373,36.373,0,0,1-3.86,3.3,22.859,22.859,0,0,1,3.55-3.65,23.05,23.05,0,0,1,4-3.15Z" transform="translate(-84 -116.72)" fill="#06b2ff"/>
      <path id="Path_51484" data-name="Path 51484" d="M141.37,154.21c-.08.09-.77-.35-1.43-1.1a3.263,3.263,0,0,1-.92-1.55c.08-.06.62.53,1.26,1.25S141.46,154.11,141.37,154.21Z" transform="translate(-84 -116.72)" fill="#06b2ff"/>
      <path id="Path_51485" data-name="Path 51485" d="M171.3,168.93V154.85c0-9-.06-22-.1-37.86l.18.18H84.3l.23-.23v51.94l-.21-.21,62.63.1,18,.06h.1L147,169l-62.77.11H84V116.72h87.5V117c0,15.94-.07,28.94-.1,38v13.07A2.52,2.52,0,0,1,171.3,168.93Z" transform="translate(-84 -116.72)" fill="#06b2ff"/>
      <rect id="Rectangle_28179" data-name="Rectangle 28179" width="26.53" height="1.94" transform="translate(7.27 12.43)" fill="#06b2ff"/>
      <path id="Path_51486" data-name="Path 51486" d="M116.72,138.74c0,.12-5.78.23-12.92.23s-12.93-.11-12.93-.23,5.79-.23,12.93-.23S116.72,138.61,116.72,138.74Z" transform="translate(-84 -116.72)" fill="#06b2ff"/>
      <path id="Path_51487" data-name="Path 51487" d="M116.72,143c0,.13-5.78.23-12.92.23s-12.93-.1-12.93-.23,5.79-.23,12.93-.23S116.72,142.91,116.72,143Z" transform="translate(-84 -116.72)" fill="#06b2ff"/>
      <path id="Path_51488" data-name="Path 51488" d="M116.72,147.33c0,.13-5.78.23-12.92.23s-12.93-.1-12.93-.23,5.79-.23,12.93-.23S116.72,147.2,116.72,147.33Z" transform="translate(-84 -116.72)" fill="#06b2ff"/>
      <path id="Path_51489" data-name="Path 51489" d="M116.72,151.63c0,.13-5.78.23-12.92.23s-12.93-.1-12.93-.23,5.79-.23,12.93-.23S116.72,151.5,116.72,151.63Z" transform="translate(-84 -116.72)" fill="#06b2ff"/>
      <path id="Path_51490" data-name="Path 51490" d="M102.51,155.84a36.64,36.64,0,0,1-5.82.23,36.638,36.638,0,0,1-5.82-.23,36.64,36.64,0,0,1,5.82-.23,36.636,36.636,0,0,1,5.82.23Z" transform="translate(-84 -116.72)" fill="#06b2ff"/>
      <path id="Path_51491" data-name="Path 51491" d="M358.22,250.61c0,.08-11.31.14-25.26.14s-25.27-.06-25.27-.14,11.31-.15,25.27-.15S358.22,250.53,358.22,250.61Z" transform="translate(-84 -116.72)" fill="#06b2ff"/>
      <path id="Path_51492" data-name="Path 51492" d="M358.22,255.09c0,.08-11.31.14-25.26.14s-25.27-.06-25.27-.14,11.31-.15,25.27-.15S358.22,255,358.22,255.09Z" transform="translate(-84 -116.72)" fill="#06b2ff"/>
      <path id="Path_51493" data-name="Path 51493" d="M340.22,259.56h-1.28l-3.49.05H312.46l-3.49-.05h-1.33a1.252,1.252,0,0,1,.33,0h1l3.49-.05h22.99l3.49.05h.95a1.252,1.252,0,0,1,.33,0Z" transform="translate(-84 -116.72)" fill="#06b2ff"/>
      <path id="Path_51494" data-name="Path 51494" d="M362.9,271.24c0-.12.37-.21.81-.21s.82.09.82.21-.37.21-.82.21S362.9,271.35,362.9,271.24Z" transform="translate(-84 -116.72)" fill="#06b2ff"/>
      <path id="Path_51495" data-name="Path 51495" d="M359.66,271.24c0-.12.36-.21.81-.21s.81.09.81.21-.36.21-.81.21S359.66,271.35,359.66,271.24Z" transform="translate(-84 -116.72)" fill="#06b2ff"/>
      <path id="Path_51496" data-name="Path 51496" d="M356.41,271.24c0-.12.37-.21.81-.21s.81.09.81.21-.36.21-.81.21S356.41,271.35,356.41,271.24Z" transform="translate(-84 -116.72)" fill="#06b2ff"/>
      <path id="Path_51497" data-name="Path 51497" d="M353.17,271.24c0-.12.36-.21.81-.21s.81.09.81.21-.36.21-.81.21S353.17,271.35,353.17,271.24Z" transform="translate(-84 -116.72)" fill="#06b2ff"/>
      <path id="Path_51498" data-name="Path 51498" d="M349.92,271.24c0-.12.36-.21.81-.21s.81.09.81.21-.36.21-.81.21S349.92,271.35,349.92,271.24Z" transform="translate(-84 -116.72)" fill="#06b2ff"/>
      <path id="Path_51499" data-name="Path 51499" d="M346.68,271.24c0-.12.36-.21.81-.21s.81.09.81.21-.36.21-.81.21S346.68,271.35,346.68,271.24Z" transform="translate(-84 -116.72)" fill="#06b2ff"/>
      <path id="Path_51500" data-name="Path 51500" d="M343.43,271.24c0-.12.36-.21.81-.21s.81.09.81.21-.36.21-.81.21S343.43,271.35,343.43,271.24Z" transform="translate(-84 -116.72)" fill="#06b2ff"/>
      <path id="Path_51501" data-name="Path 51501" d="M340.19,271.24c0-.12.36-.21.81-.21s.81.09.81.21-.36.21-.81.21S340.19,271.35,340.19,271.24Z" transform="translate(-84 -116.72)" fill="#06b2ff"/>
      <path id="Path_51502" data-name="Path 51502" d="M336.94,271.24c0-.12.36-.21.81-.21s.81.09.81.21-.36.21-.81.21S336.94,271.35,336.94,271.24Z" transform="translate(-84 -116.72)" fill="#06b2ff"/>
      <path id="Path_51503" data-name="Path 51503" d="M333.7,271.24c0-.12.36-.21.81-.21s.81.09.81.21-.37.21-.81.21S333.7,271.35,333.7,271.24Z" transform="translate(-84 -116.72)" fill="#06b2ff"/>
      <path id="Path_51504" data-name="Path 51504" d="M330.45,271.24c0-.12.36-.21.81-.21s.81.09.81.21-.36.21-.81.21S330.45,271.35,330.45,271.24Z" transform="translate(-84 -116.72)" fill="#06b2ff"/>
      <path id="Path_51505" data-name="Path 51505" d="M327.2,271.24c0-.12.37-.21.82-.21s.81.09.81.21-.37.21-.81.21S327.2,271.35,327.2,271.24Z" transform="translate(-84 -116.72)" fill="#06b2ff"/>
      <path id="Path_51506" data-name="Path 51506" d="M324,271.24c0-.12.36-.21.81-.21s.81.09.81.21-.36.21-.81.21S324,271.35,324,271.24Z" transform="translate(-84 -116.72)" fill="#06b2ff"/>
      <path id="Path_51507" data-name="Path 51507" d="M320.71,271.24c0-.12.37-.21.82-.21s.81.09.81.21-.37.21-.81.21S320.71,271.35,320.71,271.24Z" transform="translate(-84 -116.72)" fill="#06b2ff"/>
      <path id="Path_51508" data-name="Path 51508" d="M317.47,271.24c0-.12.36-.21.81-.21s.81.09.81.21-.36.21-.81.21S317.47,271.35,317.47,271.24Z" transform="translate(-84 -116.72)" fill="#06b2ff"/>
      <path id="Path_51509" data-name="Path 51509" d="M314.22,271.24c0-.12.37-.21.82-.21s.81.09.81.21-.37.21-.81.21S314.22,271.35,314.22,271.24Z" transform="translate(-84 -116.72)" fill="#06b2ff"/>
      <path id="Path_51510" data-name="Path 51510" d="M311,271.24c0-.12.36-.21.81-.21s.81.09.81.21-.36.21-.81.21S311,271.35,311,271.24Z" transform="translate(-84 -116.72)" fill="#06b2ff"/>
      <path id="Path_51511" data-name="Path 51511" d="M307.73,271.24c0-.12.37-.21.81-.21s.82.09.82.21-.37.21-.82.21S307.73,271.35,307.73,271.24Z" transform="translate(-84 -116.72)" fill="#06b2ff"/>
      <path id="Path_51512" data-name="Path 51512" d="M304.49,271.24c0-.12.36-.21.81-.21s.81.09.81.21-.36.21-.81.21S304.49,271.35,304.49,271.24Z" transform="translate(-84 -116.72)" fill="#06b2ff"/>
      <path id="Path_51513" data-name="Path 51513" d="M301.24,271.24c0-.12.37-.21.81-.21s.82.09.82.21-.37.21-.82.21S301.24,271.35,301.24,271.24Z" transform="translate(-84 -116.72)" fill="#06b2ff"/>
      <path id="Path_51514" data-name="Path 51514" d="M298,271.24c0-.12.36-.21.81-.21s.81.09.81.21-.36.21-.81.21S298,271.35,298,271.24Z" transform="translate(-84 -116.72)" fill="#06b2ff"/>
      <path id="Path_51515" data-name="Path 51515" d="M294.75,271.24c0-.12.37-.21.81-.21s.82.09.82.21-.37.21-.82.21S294.75,271.35,294.75,271.24Z" transform="translate(-84 -116.72)" fill="#06b2ff"/>
      <path id="Path_51516" data-name="Path 51516" d="M291.51,271.24c0-.12.36-.21.81-.21s.81.09.81.21-.36.21-.81.21S291.51,271.35,291.51,271.24Z" transform="translate(-84 -116.72)" fill="#06b2ff"/>
      <path id="Path_51517" data-name="Path 51517" d="M288.26,271.24c0-.12.37-.21.81-.21s.81.09.81.21-.36.21-.81.21S288.26,271.35,288.26,271.24Z" transform="translate(-84 -116.72)" fill="#06b2ff"/>
      <path id="Path_51518" data-name="Path 51518" d="M285,271.24c0-.12.36-.21.81-.21s.81.09.81.21-.36.21-.81.21S285,271.35,285,271.24Z" transform="translate(-84 -116.72)" fill="#06b2ff"/>
      <path id="Path_51519" data-name="Path 51519" d="M281.77,271.24c0-.12.36-.21.81-.21s.81.09.81.21-.36.21-.81.21S281.77,271.35,281.77,271.24Z" transform="translate(-84 -116.72)" fill="#06b2ff"/>
      <path id="Path_51520" data-name="Path 51520" d="M278.53,271.24c0-.12.36-.21.81-.21s.81.09.81.21-.36.21-.81.21S278.53,271.35,278.53,271.24Z" transform="translate(-84 -116.72)" fill="#06b2ff"/>
      <path id="Path_51521" data-name="Path 51521" d="M275.28,271.24c0-.12.36-.21.81-.21s.81.09.81.21-.36.21-.81.21S275.28,271.35,275.28,271.24Z" transform="translate(-84 -116.72)" fill="#06b2ff"/>
      <path id="Path_51522" data-name="Path 51522" d="M273.51,269.76c.12,0,.22.36.22.81a1.929,1.929,0,0,1-.1.67l-.12-.12q.15,0,.15.12a.338.338,0,0,1-.15.12h-.06l-.06-.14a2.25,2.25,0,0,1-.09-.67C273.3,270.12,273.4,269.76,273.51,269.76Z" transform="translate(-84 -116.72)" fill="#06b2ff"/>
      <ellipse id="Ellipse_1032" data-name="Ellipse 1032" cx="0.21" cy="0.81" rx="0.21" ry="0.81" transform="translate(189.3 149.79)" fill="#06b2ff"/>
      <ellipse id="Ellipse_1033" data-name="Ellipse 1033" cx="0.21" cy="0.81" rx="0.21" ry="0.81" transform="translate(189.3 146.55)" fill="#06b2ff"/>
      <ellipse id="Ellipse_1034" data-name="Ellipse 1034" cx="0.21" cy="0.81" rx="0.21" ry="0.81" transform="translate(189.3 143.3)" fill="#06b2ff"/>
      <ellipse id="Ellipse_1035" data-name="Ellipse 1035" cx="0.21" cy="0.81" rx="0.21" ry="0.81" transform="translate(189.3 140.06)" fill="#06b2ff"/>
      <ellipse id="Ellipse_1036" data-name="Ellipse 1036" cx="0.21" cy="0.81" rx="0.21" ry="0.81" transform="translate(189.3 136.81)" fill="#06b2ff"/>
      <ellipse id="Ellipse_1037" data-name="Ellipse 1037" cx="0.21" cy="0.81" rx="0.21" ry="0.81" transform="translate(189.3 133.57)" fill="#06b2ff"/>
      <path id="Path_51523" data-name="Path 51523" d="M273.51,247c.12,0,.22.37.22.81s-.1.81-.22.81-.21-.36-.21-.81S273.4,247,273.51,247Z" transform="translate(-84 -116.72)" fill="#06b2ff"/>
      <ellipse id="Ellipse_1038" data-name="Ellipse 1038" cx="0.21" cy="0.81" rx="0.21" ry="0.81" transform="translate(189.3 127.08)" fill="#06b2ff"/>
      <ellipse id="Ellipse_1039" data-name="Ellipse 1039" cx="0.21" cy="0.81" rx="0.21" ry="0.81" transform="translate(189.3 123.83)" fill="#06b2ff"/>
      <ellipse id="Ellipse_1040" data-name="Ellipse 1040" cx="0.21" cy="0.81" rx="0.21" ry="0.81" transform="translate(189.3 120.59)" fill="#06b2ff"/>
      <path id="Path_51524" data-name="Path 51524" d="M274.22,234.77c0,.11-.31.19-.71.21l.21-.21v.1c0,.45-.1.81-.22.81s-.21-.36-.21-.81v-.32h.2C273.91,234.57,274.22,234.66,274.22,234.77Z" transform="translate(-84 -116.72)" fill="#06b2ff"/>
      <path id="Path_51525" data-name="Path 51525" d="M277.47,234.77c0,.11-.37.21-.81.21s-.82-.1-.82-.21.37-.21.82-.21S277.47,234.65,277.47,234.77Z" transform="translate(-84 -116.72)" fill="#06b2ff"/>
      <path id="Path_51526" data-name="Path 51526" d="M280.71,234.77c0,.11-.36.21-.81.21s-.81-.1-.81-.21.36-.21.81-.21S280.71,234.65,280.71,234.77Z" transform="translate(-84 -116.72)" fill="#06b2ff"/>
      <path id="Path_51527" data-name="Path 51527" d="M284,234.77c0,.11-.37.21-.81.21s-.82-.1-.82-.21.37-.21.82-.21S284,234.65,284,234.77Z" transform="translate(-84 -116.72)" fill="#06b2ff"/>
      <path id="Path_51528" data-name="Path 51528" d="M287.2,234.77c0,.11-.36.21-.81.21s-.81-.1-.81-.21.36-.21.81-.21S287.2,234.65,287.2,234.77Z" transform="translate(-84 -116.72)" fill="#06b2ff"/>
      <path id="Path_51529" data-name="Path 51529" d="M290.45,234.77c0,.11-.37.21-.81.21s-.82-.1-.82-.21.37-.21.82-.21S290.45,234.65,290.45,234.77Z" transform="translate(-84 -116.72)" fill="#06b2ff"/>
      <path id="Path_51530" data-name="Path 51530" d="M293.69,234.77c0,.11-.36.21-.81.21s-.81-.1-.81-.21.36-.21.81-.21S293.69,234.65,293.69,234.77Z" transform="translate(-84 -116.72)" fill="#06b2ff"/>
      <path id="Path_51531" data-name="Path 51531" d="M296.94,234.77c0,.11-.37.21-.81.21s-.81-.1-.81-.21.36-.21.81-.21S296.94,234.65,296.94,234.77Z" transform="translate(-84 -116.72)" fill="#06b2ff"/>
      <path id="Path_51532" data-name="Path 51532" d="M300.18,234.77c0,.11-.36.21-.81.21s-.81-.1-.81-.21.36-.21.81-.21S300.18,234.65,300.18,234.77Z" transform="translate(-84 -116.72)" fill="#06b2ff"/>
      <path id="Path_51533" data-name="Path 51533" d="M303.43,234.77c0,.11-.36.21-.81.21s-.81-.1-.81-.21.36-.21.81-.21S303.43,234.65,303.43,234.77Z" transform="translate(-84 -116.72)" fill="#06b2ff"/>
      <path id="Path_51534" data-name="Path 51534" d="M306.67,234.77c0,.11-.36.21-.81.21s-.81-.1-.81-.21.36-.21.81-.21S306.67,234.65,306.67,234.77Z" transform="translate(-84 -116.72)" fill="#06b2ff"/>
      <path id="Path_51535" data-name="Path 51535" d="M309.92,234.77c0,.11-.36.21-.81.21s-.81-.1-.81-.21.36-.21.81-.21S309.92,234.65,309.92,234.77Z" transform="translate(-84 -116.72)" fill="#06b2ff"/>
      <path id="Path_51536" data-name="Path 51536" d="M313.16,234.77c0,.11-.36.21-.81.21s-.81-.1-.81-.21.36-.21.81-.21S313.16,234.65,313.16,234.77Z" transform="translate(-84 -116.72)" fill="#06b2ff"/>
      <path id="Path_51537" data-name="Path 51537" d="M316.41,234.77c0,.11-.36.21-.81.21s-.81-.1-.81-.21.36-.21.81-.21S316.41,234.65,316.41,234.77Z" transform="translate(-84 -116.72)" fill="#06b2ff"/>
      <path id="Path_51538" data-name="Path 51538" d="M319.65,234.77c0,.11-.36.21-.81.21s-.81-.1-.81-.21.37-.21.81-.21S319.65,234.65,319.65,234.77Z" transform="translate(-84 -116.72)" fill="#06b2ff"/>
      <path id="Path_51539" data-name="Path 51539" d="M322.9,234.77c0,.11-.36.21-.81.21s-.81-.1-.81-.21.36-.21.81-.21S322.9,234.65,322.9,234.77Z" transform="translate(-84 -116.72)" fill="#06b2ff"/>
      <path id="Path_51540" data-name="Path 51540" d="M326.14,234.77c0,.11-.36.21-.81.21s-.81-.1-.81-.21.37-.21.81-.21S326.14,234.65,326.14,234.77Z" transform="translate(-84 -116.72)" fill="#06b2ff"/>
      <path id="Path_51541" data-name="Path 51541" d="M329.39,234.77c0,.11-.36.21-.81.21s-.81-.1-.81-.21.36-.21.81-.21S329.39,234.65,329.39,234.77Z" transform="translate(-84 -116.72)" fill="#06b2ff"/>
      <path id="Path_51542" data-name="Path 51542" d="M332.64,234.77c0,.11-.37.21-.82.21s-.81-.1-.81-.21.37-.21.81-.21S332.64,234.65,332.64,234.77Z" transform="translate(-84 -116.72)" fill="#06b2ff"/>
      <path id="Path_51543" data-name="Path 51543" d="M335.88,234.77c0,.11-.36.21-.81.21s-.81-.1-.81-.21.36-.21.81-.21S335.88,234.65,335.88,234.77Z" transform="translate(-84 -116.72)" fill="#06b2ff"/>
      <path id="Path_51544" data-name="Path 51544" d="M339.13,234.77c0,.11-.37.21-.82.21s-.81-.1-.81-.21.37-.21.81-.21S339.13,234.65,339.13,234.77Z" transform="translate(-84 -116.72)" fill="#06b2ff"/>
      <path id="Path_51545" data-name="Path 51545" d="M342.37,234.77c0,.11-.36.21-.81.21s-.81-.1-.81-.21.36-.21.81-.21S342.37,234.65,342.37,234.77Z" transform="translate(-84 -116.72)" fill="#06b2ff"/>
      <path id="Path_51546" data-name="Path 51546" d="M345.62,234.77c0,.11-.37.21-.81.21s-.82-.1-.82-.21.37-.21.82-.21S345.62,234.65,345.62,234.77Z" transform="translate(-84 -116.72)" fill="#06b2ff"/>
      <path id="Path_51547" data-name="Path 51547" d="M348.86,234.77c0,.11-.36.21-.81.21s-.81-.1-.81-.21.36-.21.81-.21S348.86,234.65,348.86,234.77Z" transform="translate(-84 -116.72)" fill="#06b2ff"/>
      <path id="Path_51548" data-name="Path 51548" d="M352.11,234.77c0,.11-.37.21-.81.21s-.82-.1-.82-.21.37-.21.82-.21S352.11,234.65,352.11,234.77Z" transform="translate(-84 -116.72)" fill="#06b2ff"/>
      <path id="Path_51549" data-name="Path 51549" d="M355.35,234.77c0,.11-.36.21-.81.21s-.81-.1-.81-.21.36-.21.81-.21S355.35,234.65,355.35,234.77Z" transform="translate(-84 -116.72)" fill="#06b2ff"/>
      <path id="Path_51550" data-name="Path 51550" d="M358.6,234.77c0,.11-.37.21-.81.21s-.82-.1-.82-.21.37-.21.82-.21S358.6,234.65,358.6,234.77Z" transform="translate(-84 -116.72)" fill="#06b2ff"/>
      <path id="Path_51551" data-name="Path 51551" d="M361.84,234.77c0,.11-.36.21-.81.21s-.81-.1-.81-.21.36-.21.81-.21S361.84,234.65,361.84,234.77Z" transform="translate(-84 -116.72)" fill="#06b2ff"/>
      <path id="Path_51552" data-name="Path 51552" d="M364.53,235.33c-.1,0-.18-.23-.21-.56l.2.2h-.24c-.45,0-.81-.1-.81-.21s.36-.21.81-.21h.46v.18C364.7,235.1,364.62,235.33,364.53,235.33Z" transform="translate(-84 -116.72)" fill="#06b2ff"/>
      <path id="Path_51553" data-name="Path 51553" d="M364.53,238.58c-.12,0-.22-.37-.22-.82s.1-.81.22-.81.21.37.21.81S364.64,238.58,364.53,238.58Z" transform="translate(-84 -116.72)" fill="#06b2ff"/>
      <path id="Path_51554" data-name="Path 51554" d="M364.53,241.82c-.12,0-.22-.36-.22-.81s.1-.81.22-.81.21.36.21.81S364.64,241.82,364.53,241.82Z" transform="translate(-84 -116.72)" fill="#06b2ff"/>
      <path id="Path_51555" data-name="Path 51555" d="M364.53,245.07c-.12,0-.22-.37-.22-.81s.1-.82.22-.82.21.37.21.82S364.64,245.07,364.53,245.07Z" transform="translate(-84 -116.72)" fill="#06b2ff"/>
      <path id="Path_51556" data-name="Path 51556" d="M364.53,248.31c-.12,0-.22-.36-.22-.81s.1-.81.22-.81.21.36.21.81S364.64,248.31,364.53,248.31Z" transform="translate(-84 -116.72)" fill="#06b2ff"/>
      <path id="Path_51557" data-name="Path 51557" d="M364.53,251.56c-.12,0-.22-.37-.22-.81s.1-.82.22-.82.21.37.21.82S364.64,251.56,364.53,251.56Z" transform="translate(-84 -116.72)" fill="#06b2ff"/>
      <path id="Path_51558" data-name="Path 51558" d="M364.53,254.8c-.12,0-.22-.36-.22-.81s.1-.81.22-.81.21.36.21.81S364.64,254.8,364.53,254.8Z" transform="translate(-84 -116.72)" fill="#06b2ff"/>
      <path id="Path_51559" data-name="Path 51559" d="M364.53,258.05c-.12,0-.22-.37-.22-.81s.1-.82.22-.82.21.37.21.82S364.64,258.05,364.53,258.05Z" transform="translate(-84 -116.72)" fill="#06b2ff"/>
      <path id="Path_51560" data-name="Path 51560" d="M364.53,261.29c-.12,0-.22-.36-.22-.81s.1-.81.22-.81.21.36.21.81S364.64,261.29,364.53,261.29Z" transform="translate(-84 -116.72)" fill="#06b2ff"/>
      <path id="Path_51561" data-name="Path 51561" d="M364.53,264.54c-.12,0-.22-.37-.22-.81s.1-.81.22-.81.21.36.21.81S364.64,264.54,364.53,264.54Z" transform="translate(-84 -116.72)" fill="#06b2ff"/>
      <path id="Path_51562" data-name="Path 51562" d="M364.53,267.78c-.12,0-.22-.36-.22-.81s.1-.81.22-.81.21.36.21.81S364.64,267.78,364.53,267.78Z" transform="translate(-84 -116.72)" fill="#06b2ff"/>
      <path id="Path_51563" data-name="Path 51563" d="M364.53,271c-.12,0-.22-.37-.22-.81s.1-.81.22-.81.21.36.21.81S364.64,271,364.53,271Z" transform="translate(-84 -116.72)" fill="#06b2ff"/>
      <path id="Path_51564" data-name="Path 51564" d="M303.6,264.82c0-.11.36-.21.81-.21l-.21.21h0v-.29a1.5,1.5,0,0,1,.05-.26c0-.15.09-.24.15-.24s.11.09.15.24a1.6,1.6,0,0,1,0,.26v.29h0c-.09.1.21-.21-.21.22C304,265,303.6,264.94,303.6,264.82Z" transform="translate(-84 -116.72)" fill="#06b2ff"/>
      <path id="Path_51565" data-name="Path 51565" d="M300.57,264.82c0-.11.34-.21.75-.21s.76.1.76.21-.34.22-.76.22S300.57,264.94,300.57,264.82Z" transform="translate(-84 -116.72)" fill="#06b2ff"/>
      <path id="Path_51566" data-name="Path 51566" d="M297.54,264.82c0-.11.34-.21.75-.21s.76.1.76.21-.34.22-.76.22S297.54,264.94,297.54,264.82Z" transform="translate(-84 -116.72)" fill="#06b2ff"/>
      <path id="Path_51567" data-name="Path 51567" d="M294.51,264.82c0-.11.34-.21.75-.21s.76.1.76.21-.34.22-.76.22S294.51,264.94,294.51,264.82Z" transform="translate(-84 -116.72)" fill="#06b2ff"/>
      <path id="Path_51568" data-name="Path 51568" d="M291.48,264.82c0-.11.34-.21.75-.21s.76.1.76.21-.34.22-.76.22S291.48,264.94,291.48,264.82Z" transform="translate(-84 -116.72)" fill="#06b2ff"/>
      <path id="Path_51569" data-name="Path 51569" d="M288.45,264.82c0-.11.33-.21.75-.21s.76.1.76.21-.34.22-.76.22S288.45,264.94,288.45,264.82Z" transform="translate(-84 -116.72)" fill="#06b2ff"/>
      <path id="Path_51570" data-name="Path 51570" d="M285.42,264.82c0-.11.33-.21.75-.21s.76.1.76.21-.34.22-.76.22S285.42,264.94,285.42,264.82Z" transform="translate(-84 -116.72)" fill="#06b2ff"/>
      <path id="Path_51571" data-name="Path 51571" d="M282.39,264.82c0-.11.33-.21.75-.21s.76.1.76.21-.34.22-.76.22S282.39,264.94,282.39,264.82Z" transform="translate(-84 -116.72)" fill="#06b2ff"/>
      <path id="Path_51572" data-name="Path 51572" d="M280.06,264c.12,0,.21.37.21.81l-.21-.21h.57a.229.229,0,0,1,.24.15c0,.05-.09.12-.24.15h-.57c-.1-.1.21.21-.21-.22C279.85,264.38,279.94,264,280.06,264Z" transform="translate(-84 -116.72)" fill="#06b2ff"/>
      <path id="Path_51573" data-name="Path 51573" d="M280.06,260.75c.12,0,.21.36.21.81s-.09.82-.21.82-.21-.37-.21-.82S279.94,260.75,280.06,260.75Z" transform="translate(-84 -116.72)" fill="#06b2ff"/>
      <path id="Path_51574" data-name="Path 51574" d="M280.06,257.48c.12,0,.21.37.21.82s-.09.81-.21.81-.21-.36-.21-.81S279.94,257.48,280.06,257.48Z" transform="translate(-84 -116.72)" fill="#06b2ff"/>
      <path id="Path_51575" data-name="Path 51575" d="M280.06,254.21c.12,0,.21.37.21.82s-.09.82-.21.82-.21-.37-.21-.82S279.94,254.21,280.06,254.21Z" transform="translate(-84 -116.72)" fill="#06b2ff"/>
      <path id="Path_51576" data-name="Path 51576" d="M280.06,251c.12,0,.21.36.21.81s-.09.82-.21.82-.21-.36-.21-.82S279.94,251,280.06,251Z" transform="translate(-84 -116.72)" fill="#06b2ff"/>
      <path id="Path_51577" data-name="Path 51577" d="M280.06,247.68c.12,0,.21.37.21.82s-.09.81-.21.81-.21-.36-.21-.81S279.94,247.68,280.06,247.68Z" transform="translate(-84 -116.72)" fill="#06b2ff"/>
      <path id="Path_51578" data-name="Path 51578" d="M280.06,244.42c.12,0,.21.36.21.81s-.09.82-.21.82-.21-.37-.21-.82S279.94,244.42,280.06,244.42Z" transform="translate(-84 -116.72)" fill="#06b2ff"/>
      <path id="Path_51579" data-name="Path 51579" d="M280.87,242c0,.12-.36.21-.81.21.42-.42.12-.11.21-.21h0v.3a1.643,1.643,0,0,1,0,.25c0,.15-.09.24-.15.24s-.11-.09-.15-.24a1.581,1.581,0,0,1-.05-.25V242h0l.21-.21C280.51,241.76,280.87,241.85,280.87,242Z" transform="translate(-84 -116.72)" fill="#06b2ff"/>
      <path id="Path_51580" data-name="Path 51580" d="M283.9,242c0,.12-.34.21-.76.21s-.75-.09-.75-.21.33-.21.75-.21S283.9,241.85,283.9,242Z" transform="translate(-84 -116.72)" fill="#06b2ff"/>
      <path id="Path_51581" data-name="Path 51581" d="M286.93,242c0,.12-.34.21-.76.21s-.75-.09-.75-.21.33-.21.75-.21S286.93,241.85,286.93,242Z" transform="translate(-84 -116.72)" fill="#06b2ff"/>
      <path id="Path_51582" data-name="Path 51582" d="M290,242c0,.12-.34.21-.76.21s-.75-.09-.75-.21.33-.21.75-.21S290,241.85,290,242Z" transform="translate(-84 -116.72)" fill="#06b2ff"/>
      <path id="Path_51583" data-name="Path 51583" d="M293,242c0,.12-.34.21-.76.21s-.75-.09-.75-.21.34-.21.75-.21S293,241.85,293,242Z" transform="translate(-84 -116.72)" fill="#06b2ff"/>
      <path id="Path_51584" data-name="Path 51584" d="M296,242c0,.12-.34.21-.76.21s-.75-.09-.75-.21.34-.21.75-.21S296,241.85,296,242Z" transform="translate(-84 -116.72)" fill="#06b2ff"/>
      <path id="Path_51585" data-name="Path 51585" d="M299.05,242c0,.12-.34.21-.76.21s-.75-.09-.75-.21.34-.21.75-.21S299.05,241.85,299.05,242Z" transform="translate(-84 -116.72)" fill="#06b2ff"/>
      <path id="Path_51586" data-name="Path 51586" d="M302.08,242c0,.12-.34.21-.76.21s-.75-.09-.75-.21.34-.21.75-.21S302.08,241.85,302.08,242Z" transform="translate(-84 -116.72)" fill="#06b2ff"/>
      <path id="Path_51587" data-name="Path 51587" d="M304.41,242.78c-.12,0-.21-.36-.21-.81.42.42.11.12.21.21h-.58c-.14,0-.23-.09-.23-.15s.09-.11.23-.15h.58l.21.21C304.62,242.42,304.53,242.78,304.41,242.78Z" transform="translate(-84 -116.72)" fill="#06b2ff"/>
      <path id="Path_51588" data-name="Path 51588" d="M304.41,246.05c-.12,0-.21-.37-.21-.82s.09-.81.21-.81.21.36.21.81S304.53,246.05,304.41,246.05Z" transform="translate(-84 -116.72)" fill="#06b2ff"/>
      <path id="Path_51589" data-name="Path 51589" d="M304.41,249.31c-.12,0-.21-.36-.21-.81s.09-.82.21-.82.21.37.21.82S304.53,249.31,304.41,249.31Z" transform="translate(-84 -116.72)" fill="#06b2ff"/>
      <path id="Path_51590" data-name="Path 51590" d="M304.41,252.58c-.12,0-.21-.36-.21-.82s.09-.81.21-.81.21.36.21.81S304.53,252.58,304.41,252.58Z" transform="translate(-84 -116.72)" fill="#06b2ff"/>
      <path id="Path_51591" data-name="Path 51591" d="M304.41,255.85c-.12,0-.21-.37-.21-.82s.09-.82.21-.82.21.37.21.82S304.53,255.85,304.41,255.85Z" transform="translate(-84 -116.72)" fill="#06b2ff"/>
      <path id="Path_51592" data-name="Path 51592" d="M304.41,259.11c-.12,0-.21-.36-.21-.81s.09-.82.21-.82.21.37.21.82S304.53,259.11,304.41,259.11Z" transform="translate(-84 -116.72)" fill="#06b2ff"/>
      <path id="Path_51593" data-name="Path 51593" d="M304.41,262.38c-.12,0-.21-.37-.21-.82s.09-.81.21-.81.21.36.21.81S304.53,262.38,304.41,262.38Z" transform="translate(-84 -116.72)" fill="#06b2ff"/>
      <rect id="Rectangle_28180" data-name="Rectangle 28180" width="1.16" height="1.16" transform="translate(195.48 147.52)" fill="#06b2ff"/>
      <rect id="Rectangle_28181" data-name="Rectangle 28181" width="1.16" height="1.16" transform="translate(195.48 124.67)" fill="#06b2ff"/>
      <rect id="Rectangle_28182" data-name="Rectangle 28182" width="1.16" height="1.16" transform="translate(219.83 124.67)" fill="#06b2ff"/>
      <rect id="Rectangle_28183" data-name="Rectangle 28183" width="1.16" height="1.16" transform="translate(219.83 146.94)" fill="#06b2ff"/>
      <rect id="Rectangle_28184" data-name="Rectangle 28184" width="1.16" height="1.16" transform="translate(207.07 147.52)" fill="#06b2ff"/>
      <rect id="Rectangle_28185" data-name="Rectangle 28185" width="1.16" height="1.16" transform="translate(207.65 124.67)" fill="#06b2ff"/>
      <rect id="Rectangle_28186" data-name="Rectangle 28186" width="1.16" height="1.16" transform="translate(195.48 136.68)" fill="#06b2ff"/>
      <rect id="Rectangle_28187" data-name="Rectangle 28187" width="1.16" height="1.16" transform="translate(219.25 136.1)" fill="#06b2ff"/>
    </g>
    <g id="freepik--Device--inject-104" transform="translate(251.413 148.53)">
      <path id="Path_51594" data-name="Path 51594" d="M253.69,218.63h56.38a2.26,2.26,0,0,0,1.65-.73l21.15-23.23a2.25,2.25,0,0,0,.58-1.5V150.76a2.23,2.23,0,0,0-2.23-2.23h-54a2.23,2.23,0,0,0-2.23,2.23v40.58a2.22,2.22,0,0,1-.67,1.59l-22.24,21.88a2.23,2.23,0,0,0,1.61,3.82Z" transform="translate(-251.413 -148.53)" fill="#263238"/>
      <rect id="Rectangle_28188" data-name="Rectangle 28188" width="54.41" height="38.72" transform="translate(25.677 2.66)" fill="#f5f5f5"/>
      <path id="Path_51595" data-name="Path 51595" d="M332.73,192.62c0,.14-12.66.26-28.28.26s-28.29-.12-28.29-.26,12.66-.26,28.29-.26S332.73,192.47,332.73,192.62Z" transform="translate(-251.413 -148.53)" fill="#455a64"/>
      <path id="Path_51596" data-name="Path 51596" d="M327.31,187.05a8,8,0,0,1,1.74-.1h.26l-.1.1a5.638,5.638,0,0,1,.1-1.47,6.218,6.218,0,0,1,.1,1.47v.11h-.36A7,7,0,0,1,327.31,187.05Z" transform="translate(-251.413 -148.53)" fill="#263238"/>
      <path id="Path_51597" data-name="Path 51597" d="M323.31,187.05a5,5,0,0,1,2,0,4.6,4.6,0,0,1-2,0Z" transform="translate(-251.413 -148.53)" fill="#263238"/>
      <path id="Path_51598" data-name="Path 51598" d="M319.31,187.05a5,5,0,0,1,2,0,4.6,4.6,0,0,1-2,0Z" transform="translate(-251.413 -148.53)" fill="#263238"/>
      <path id="Path_51599" data-name="Path 51599" d="M315.31,187.05a5,5,0,0,1,2,0A4.6,4.6,0,0,1,315.31,187.05Z" transform="translate(-251.413 -148.53)" fill="#263238"/>
      <path id="Path_51600" data-name="Path 51600" d="M311.31,187.05a5,5,0,0,1,2,0A4.6,4.6,0,0,1,311.31,187.05Z" transform="translate(-251.413 -148.53)" fill="#263238"/>
      <path id="Path_51601" data-name="Path 51601" d="M307.31,187.05a5,5,0,0,1,2,0A4.6,4.6,0,0,1,307.31,187.05Z" transform="translate(-251.413 -148.53)" fill="#263238"/>
      <path id="Path_51602" data-name="Path 51602" d="M303.31,187.05a5,5,0,0,1,2,0A4.6,4.6,0,0,1,303.31,187.05Z" transform="translate(-251.413 -148.53)" fill="#263238"/>
      <path id="Path_51603" data-name="Path 51603" d="M299.31,187.05a5,5,0,0,1,2,0A4.6,4.6,0,0,1,299.31,187.05Z" transform="translate(-251.413 -148.53)" fill="#263238"/>
      <path id="Path_51604" data-name="Path 51604" d="M295.31,187.05a5,5,0,0,1,2,0,4.6,4.6,0,0,1-2,0Z" transform="translate(-251.413 -148.53)" fill="#263238"/>
      <path id="Path_51605" data-name="Path 51605" d="M291.31,187.05a5,5,0,0,1,2,0A4.6,4.6,0,0,1,291.31,187.05Z" transform="translate(-251.413 -148.53)" fill="#263238"/>
      <path id="Path_51606" data-name="Path 51606" d="M287.31,187.05a5,5,0,0,1,2,0,4.6,4.6,0,0,1-2,0Z" transform="translate(-251.413 -148.53)" fill="#263238"/>
      <path id="Path_51607" data-name="Path 51607" d="M283.31,187.05a5,5,0,0,1,2,0A4.6,4.6,0,0,1,283.31,187.05Z" transform="translate(-251.413 -148.53)" fill="#263238"/>
      <path id="Path_51608" data-name="Path 51608" d="M279.31,187.05a5,5,0,0,1,2,0A4.6,4.6,0,0,1,279.31,187.05Z" transform="translate(-251.413 -148.53)" fill="#263238"/>
      <path id="Path_51609" data-name="Path 51609" d="M279.28,183.08a2.489,2.489,0,0,1,.1,1,2.45,2.45,0,0,1-.1,1,2.35,2.35,0,0,1-.11-1,2.39,2.39,0,0,1,.11-1Z" transform="translate(-251.413 -148.53)" fill="#263238"/>
      <path id="Path_51610" data-name="Path 51610" d="M279.28,179.08a2.489,2.489,0,0,1,.1,1,2.45,2.45,0,0,1-.1,1,2.35,2.35,0,0,1-.11-1,2.39,2.39,0,0,1,.11-1Z" transform="translate(-251.413 -148.53)" fill="#263238"/>
      <path id="Path_51611" data-name="Path 51611" d="M279.28,175.08a2.489,2.489,0,0,1,.1,1,2.45,2.45,0,0,1-.1,1,2.35,2.35,0,0,1-.11-1,2.39,2.39,0,0,1,.11-1Z" transform="translate(-251.413 -148.53)" fill="#263238"/>
      <path id="Path_51612" data-name="Path 51612" d="M279.28,171.08a2.489,2.489,0,0,1,.1,1,2.45,2.45,0,0,1-.1,1,2.35,2.35,0,0,1-.11-1,2.39,2.39,0,0,1,.11-1Z" transform="translate(-251.413 -148.53)" fill="#263238"/>
      <path id="Path_51613" data-name="Path 51613" d="M279.28,167.08a2.489,2.489,0,0,1,.1,1,2.45,2.45,0,0,1-.1,1,2.351,2.351,0,0,1-.11-1,2.39,2.39,0,0,1,.11-1Z" transform="translate(-251.413 -148.53)" fill="#263238"/>
      <path id="Path_51614" data-name="Path 51614" d="M279.28,163.08a2.489,2.489,0,0,1,.1,1,2.45,2.45,0,0,1-.1,1,2.35,2.35,0,0,1-.11-1,2.39,2.39,0,0,1,.11-1Z" transform="translate(-251.413 -148.53)" fill="#263238"/>
      <path id="Path_51615" data-name="Path 51615" d="M282.54,162.34a4.6,4.6,0,0,1-2,0,5.049,5.049,0,0,1,2,0Z" transform="translate(-251.413 -148.53)" fill="#263238"/>
      <path id="Path_51616" data-name="Path 51616" d="M286.54,162.34a4.6,4.6,0,0,1-2,0,5.049,5.049,0,0,1,2,0Z" transform="translate(-251.413 -148.53)" fill="#263238"/>
      <path id="Path_51617" data-name="Path 51617" d="M290.54,162.34a4.6,4.6,0,0,1-2,0,5.049,5.049,0,0,1,2,0Z" transform="translate(-251.413 -148.53)" fill="#263238"/>
      <path id="Path_51618" data-name="Path 51618" d="M294.54,162.34a4.6,4.6,0,0,1-2,0,5.049,5.049,0,0,1,2,0Z" transform="translate(-251.413 -148.53)" fill="#263238"/>
      <path id="Path_51619" data-name="Path 51619" d="M298.54,162.34a4.6,4.6,0,0,1-2,0,5.049,5.049,0,0,1,2,0Z" transform="translate(-251.413 -148.53)" fill="#263238"/>
      <path id="Path_51620" data-name="Path 51620" d="M302.54,162.34a4.6,4.6,0,0,1-2,0,5.049,5.049,0,0,1,2,0Z" transform="translate(-251.413 -148.53)" fill="#263238"/>
      <path id="Path_51621" data-name="Path 51621" d="M306.54,162.34a4.6,4.6,0,0,1-2,0,5.049,5.049,0,0,1,2,0Z" transform="translate(-251.413 -148.53)" fill="#263238"/>
      <path id="Path_51622" data-name="Path 51622" d="M310.54,162.34a4.6,4.6,0,0,1-2,0,5.049,5.049,0,0,1,2,0Z" transform="translate(-251.413 -148.53)" fill="#263238"/>
      <path id="Path_51623" data-name="Path 51623" d="M314.54,162.34a4.6,4.6,0,0,1-2,0,5.049,5.049,0,0,1,2,0Z" transform="translate(-251.413 -148.53)" fill="#263238"/>
      <path id="Path_51624" data-name="Path 51624" d="M318.54,162.34a4.6,4.6,0,0,1-2,0,5.049,5.049,0,0,1,2,0Z" transform="translate(-251.413 -148.53)" fill="#263238"/>
      <path id="Path_51625" data-name="Path 51625" d="M322.54,162.34a4.6,4.6,0,0,1-2,0,5.049,5.049,0,0,1,2,0Z" transform="translate(-251.413 -148.53)" fill="#263238"/>
      <path id="Path_51626" data-name="Path 51626" d="M326.54,162.34a4.6,4.6,0,0,1-2,0,5.049,5.049,0,0,1,2,0Z" transform="translate(-251.413 -148.53)" fill="#263238"/>
      <path id="Path_51627" data-name="Path 51627" d="M329.31,163.58a2.389,2.389,0,0,1-.11-1v-.24l.1.11a1.84,1.84,0,0,1-.77-.11,1.75,1.75,0,0,1,.77-.1h.1v.34A2.49,2.49,0,0,1,329.31,163.58Z" transform="translate(-251.413 -148.53)" fill="#263238"/>
      <path id="Path_51628" data-name="Path 51628" d="M329.31,167.58a2.389,2.389,0,0,1-.11-1,2.35,2.35,0,0,1,.11-1,2.45,2.45,0,0,1,.1,1,2.49,2.49,0,0,1-.1,1Z" transform="translate(-251.413 -148.53)" fill="#263238"/>
      <path id="Path_51629" data-name="Path 51629" d="M329.31,171.58a2.389,2.389,0,0,1-.11-1,2.35,2.35,0,0,1,.11-1,2.45,2.45,0,0,1,.1,1A2.49,2.49,0,0,1,329.31,171.58Z" transform="translate(-251.413 -148.53)" fill="#263238"/>
      <path id="Path_51630" data-name="Path 51630" d="M329.31,175.58a2.389,2.389,0,0,1-.11-1,2.35,2.35,0,0,1,.11-1,2.45,2.45,0,0,1,.1,1,2.49,2.49,0,0,1-.1,1Z" transform="translate(-251.413 -148.53)" fill="#263238"/>
      <path id="Path_51631" data-name="Path 51631" d="M329.31,179.58a2.389,2.389,0,0,1-.11-1,2.35,2.35,0,0,1,.11-1,2.45,2.45,0,0,1,.1,1A2.49,2.49,0,0,1,329.31,179.58Z" transform="translate(-251.413 -148.53)" fill="#263238"/>
      <path id="Path_51632" data-name="Path 51632" d="M329.31,183.58a2.389,2.389,0,0,1-.11-1,2.35,2.35,0,0,1,.11-1,2.45,2.45,0,0,1,.1,1A2.49,2.49,0,0,1,329.31,183.58Z" transform="translate(-251.413 -148.53)" fill="#263238"/>
      <rect id="Rectangle_28189" data-name="Rectangle 28189" width="50.03" height="7.21" transform="translate(27.867 4.7)" fill="#263238"/>
      <path id="Path_51633" data-name="Path 51633" d="M316.66,207.19l11.8-12.88H277.63L264.61,206.8Z" transform="translate(-251.413 -148.53)" fill="#455a64"/>
    </g>
    <g id="freepik--Character--inject-104" transform="translate(146.57 110.672)">
      <path id="Path_51634" data-name="Path 51634" d="M152.52,441.43l-5.85,21.61,19,1.74,3.99-20.58Z" transform="translate(-146.57 -110.672)" fill="#06b2ff"/>
      <path id="Path_51635" data-name="Path 51635" d="M166.22,463a13.7,13.7,0,0,1-2.78-.1c-1.71-.13-4.07-.4-6.67-.73l-6.64-.89a17.282,17.282,0,0,1-2.74-.47,12.182,12.182,0,0,1,2.79.1c1.71.14,4.07.4,6.66.74l6.64.88a15.462,15.462,0,0,1,2.74.47Z" transform="translate(-146.57 -110.672)" fill="#263238"/>
      <g id="Group_69963" data-name="Group 69963" transform="translate(0.1 350.138)" opacity="0.6">
        <path id="Path_51636" data-name="Path 51636" d="M146.67,463.04l19,1.74.31-1.59-18.76-2.38-.53,2.02" transform="translate(-146.67 -460.81)" fill="#fff"/>
      </g>
      <path id="Path_51637" data-name="Path 51637" d="M156.11,462.08a80.668,80.668,0,0,1,1.81-8.28,78.276,78.276,0,0,1,2.24-8.17,80.658,80.658,0,0,1-1.81,8.28A81.344,81.344,0,0,1,156.11,462.08Z" transform="translate(-146.57 -110.672)" fill="#263238"/>
      <path id="Path_51638" data-name="Path 51638" d="M165.17,462.88a9,9,0,0,0,.05-4,8.08,8.08,0,0,0-2.08-3.76,7.74,7.74,0,0,0-4.73-2.17,8.12,8.12,0,0,0-5.09,1.15,8.84,8.84,0,0,0-3,3.15,11.269,11.269,0,0,0-1.2,3.85,1.111,1.111,0,0,1,0-.29,7.427,7.427,0,0,1,.05-.82,8.709,8.709,0,0,1,.9-2.89,8.87,8.87,0,0,1,3-3.34,8.32,8.32,0,0,1,5.35-1.26,7.83,7.83,0,0,1,7.07,6.31,7.48,7.48,0,0,1,0,3,5.822,5.822,0,0,1-.23.79C165.23,462.79,165.19,462.88,165.17,462.88Z" transform="translate(-146.57 -110.672)" fill="#263238"/>
      <path id="Path_51639" data-name="Path 51639" d="M231,435.63l-1.27,19.2s19.11,6.35,19.22,9.92l-37.34.27.75-30Z" transform="translate(-146.57 -110.672)" fill="#06b2ff"/>
      <g id="Group_69964" data-name="Group 69964" transform="translate(70.502 342.137)" opacity="0.6">
        <path id="Path_51640" data-name="Path 51640" d="M218.2,452.87a1.52,1.52,0,0,0-1.11,1.7,1.47,1.47,0,0,0,1.68,1.12,1.63,1.63,0,0,0,1.17-1.82,1.53,1.53,0,0,0-1.88-1" transform="translate(-217.072 -452.81)" fill="#fff"/>
      </g>
      <g id="Group_69965" data-name="Group 69965" transform="translate(65 351.328)" opacity="0.6">
        <path id="Path_51641" data-name="Path 51641" d="M211.57,465l.08-3,36.06,1a2.59,2.59,0,0,1,1.39,2Z" transform="translate(-211.57 -462)" fill="#fff"/>
      </g>
      <path id="Path_51642" data-name="Path 51642" d="M230.3,454.66c0,.18-.93.24-1.84.8s-1.42,1.31-1.58,1.23.14-1.12,1.26-1.78S230.34,454.5,230.3,454.66Z" transform="translate(-146.57 -110.672)" fill="#263238"/>
      <path id="Path_51643" data-name="Path 51643" d="M234.16,456.4c0,.18-.76.46-1.4,1.22s-.85,1.56-1,1.54-.26-1,.55-2S234.17,456.23,234.16,456.4Z" transform="translate(-146.57 -110.672)" fill="#263238"/>
      <path id="Path_51644" data-name="Path 51644" d="M236.25,461.15c-.17,0-.4-.88.1-1.87s1.36-1.35,1.44-1.2-.47.67-.87,1.49S236.43,461.14,236.25,461.15Z" transform="translate(-146.57 -110.672)" fill="#263238"/>
      <path id="Path_51645" data-name="Path 51645" d="M230.1,450.25c-.08.17-.91-.11-1.94-.07s-1.84.34-1.93.18.7-.79,1.91-.82S230.2,450.11,230.1,450.25Z" transform="translate(-146.57 -110.672)" fill="#263238"/>
      <g id="Group_69966" data-name="Group 69966" transform="translate(65.57 328.378)" opacity="0.3">
        <path id="Path_51646" data-name="Path 51646" d="M230.7,439.43l-.22,3.43-18.34-.73.08-3.08Z" transform="translate(-212.14 -439.05)"/>
      </g>
      <path id="Path_51647" data-name="Path 51647" d="M230.29,446.37a3.44,3.44,0,0,1-1.87-.06,8.911,8.911,0,0,1-1.94-.66,9.359,9.359,0,0,1-1-.6,2.439,2.439,0,0,1-.55-.46.79.79,0,0,1-.06-1,1,1,0,0,1,.81-.39,2.341,2.341,0,0,1,.7.11,7.433,7.433,0,0,1,1.15.44,6.52,6.52,0,0,1,1.69,1.18c.84.83,1.12,1.52,1.05,1.55s-.49-.52-1.35-1.21a7.19,7.19,0,0,0-1.64-1,7.749,7.749,0,0,0-1.06-.37c-.39-.11-.73-.12-.83.05s-.05.09,0,.21a1.631,1.631,0,0,0,.41.33,10.2,10.2,0,0,0,1,.6,10,10,0,0,0,1.78.74,15.243,15.243,0,0,1,1.71.54Z" transform="translate(-146.57 -110.672)" fill="#263238"/>
      <path id="Path_51648" data-name="Path 51648" d="M230,446.63a3.08,3.08,0,0,1-.43-1.82,5.83,5.83,0,0,1,.31-2,6.939,6.939,0,0,1,.51-1.12,1.55,1.55,0,0,1,1.22-.91.89.89,0,0,1,.77.55,2.769,2.769,0,0,1,.17.69,4.39,4.39,0,0,1,0,1.26,4.23,4.23,0,0,1-.85,1.9c-.76.95-1.53,1.14-1.54,1.08a7.521,7.521,0,0,0,1.17-1.34,4.21,4.21,0,0,0,.64-1.74,3.55,3.55,0,0,0,0-1.08c0-.4-.18-.72-.33-.68a1.361,1.361,0,0,0-.67.59,5.832,5.832,0,0,0-.5,1,7.12,7.12,0,0,0-.42,1.85C230,445.92,230.14,446.6,230,446.63Z" transform="translate(-146.57 -110.672)" fill="#263238"/>
      <path id="Path_51649" data-name="Path 51649" d="M230.96,268.81l-56.9-.43L146.57,448.96l23.61,2.99,30.27-148.47,9.05,149,.03.45,25.53-.45Z" transform="translate(-146.57 -110.672)" fill="#19325a"/>
      <path id="Path_51650" data-name="Path 51650" d="M205.08,283.44a9.875,9.875,0,0,1,1.18-.08l3.42-.12,12.3-.35h.23V295l-.08.08c-.69.62-1.41,1.29-2.15,2-2.19,2-4.3,3.95-6.31,5.78l-.17.15-.16-.15-8.42-7.5-.07-.06v-.09c0-3.59.08-6.53.11-8.65v-2.33a5.652,5.652,0,0,1,0-.79,6.346,6.346,0,0,1,0,.86c0,.61,0,1.4.05,2.38,0,2.09.06,5,.1,8.53l-.06-.15,8.48,7.43h-.34l6.3-5.8,2.15-2-.09.2v-11.8l.24.23-12.16.12h-4.41Q205.15,283.443,205.08,283.44Z" transform="translate(-146.57 -110.672)" fill="#455a64"/>
      <path id="Path_51651" data-name="Path 51651" d="M178.31,282.66a7.469,7.469,0,0,1,1,0l3.07.25,11.06,1h.23v.23c-.41,3.49-.89,7.46-1.4,11.71v.1l-.08.07-2.45,2-6.06,4.81-.19.16-.16-.2c-2.44-3.09-4.69-5.92-6.61-8.36l-.06-.07v-.08c.48-3.54.87-6.46,1.16-8.57.14-1,.25-1.73.33-2.32a3.4,3.4,0,0,1,.15-.77,7.359,7.359,0,0,1-.07.87c-.06.6-.13,1.39-.23,2.37-.23,2.08-.55,5-.93,8.47v-.16l6.68,8.31h-.35l6-4.83,2.46-2-.1.18c.53-4.25,1-8.22,1.46-11.71l.21.26-10.9-1.22-3.1-.37A7.847,7.847,0,0,1,178.31,282.66Z" transform="translate(-146.57 -110.672)" fill="#455a64"/>
      <path id="Path_51652" data-name="Path 51652" d="M213.12,310.07a17.6,17.6,0,0,1-2.58-1.26c-1.57-.81-3.73-1.94-6.14-3.15s-4.62-2.25-6.22-3a19.2,19.2,0,0,1-2.55-1.3,13.4,13.4,0,0,1,2.7,1c1.64.67,3.88,1.67,6.3,2.88s4.56,2.39,6.09,3.29A15.287,15.287,0,0,1,213.12,310.07Z" transform="translate(-146.57 -110.672)" fill="#455a64"/>
      <path id="Path_51653" data-name="Path 51653" d="M212.38,314.45a5.65,5.65,0,0,1-1.94-.73,16.42,16.42,0,0,1-7.05-7,5.511,5.511,0,0,1-.76-1.93,22.19,22.19,0,0,0,9.75,9.61Z" transform="translate(-146.57 -110.672)" fill="#455a64"/>
      <path id="Path_51654" data-name="Path 51654" d="M228.45,366.63a3.67,3.67,0,0,1-.26.94A12.389,12.389,0,0,1,227,370a14.42,14.42,0,0,1-15.33,6.47,12.705,12.705,0,0,1-2.54-.81,2.9,2.9,0,0,1-.86-.48,34.063,34.063,0,0,0,3.47.93,14.78,14.78,0,0,0,14.95-6.31C227.94,367.93,228.35,366.59,228.45,366.63Z" transform="translate(-146.57 -110.672)" fill="#455a64"/>
      <path id="Path_51655" data-name="Path 51655" d="M224.7,365.09a6.71,6.71,0,0,1-2.17,1,21.22,21.22,0,0,1-5.66.94,30.472,30.472,0,0,1-5.72-.34,9.359,9.359,0,0,1-2.31-.53c0-.18,3.59.51,8,.35a27.148,27.148,0,0,0,5.58-.77A17.729,17.729,0,0,1,224.7,365.09Z" transform="translate(-146.57 -110.672)" fill="#455a64"/>
      <path id="Path_51656" data-name="Path 51656" d="M182.4,366.17a9.381,9.381,0,0,1-2,1.79,22.719,22.719,0,0,1-5.67,3.08,23.06,23.06,0,0,1-6.3,1.38,9.551,9.551,0,0,1-2.67-.06,23.376,23.376,0,0,1,2.63-.31,27.07,27.07,0,0,0,11.8-4.39,25.082,25.082,0,0,1,2.21-1.49Z" transform="translate(-146.57 -110.672)" fill="#455a64"/>
      <path id="Path_51657" data-name="Path 51657" d="M177.41,366a16.27,16.27,0,0,1-10.3-.82c0-.15,2.29.51,5.13.73S177.39,365.79,177.41,366Z" transform="translate(-146.57 -110.672)" fill="#455a64"/>
      <path id="Path_51658" data-name="Path 51658" d="M200.11,304.72a11,11,0,0,1-2.56,1.16,35.139,35.139,0,0,1-6.56,1.7,36.168,36.168,0,0,1-6.77.44,10.939,10.939,0,0,1-2.8-.31,23.887,23.887,0,0,1,2.8-.06,46.3,46.3,0,0,0,13.21-2.12,23.831,23.831,0,0,1,2.68-.81Z" transform="translate(-146.57 -110.672)" fill="#455a64"/>
      <path id="Path_51659" data-name="Path 51659" d="M198.56,298.89c.14,0,.26.45.27,1s-.1,1-.25,1-.26-.44-.27-1S198.41,298.89,198.56,298.89Z" transform="translate(-146.57 -110.672)" fill="#455a64"/>
      <path id="Path_51660" data-name="Path 51660" d="M198.56,294.89c.14,0,.26.45.25,1s-.12,1-.26,1-.26-.45-.26-1S198.42,294.89,198.56,294.89Z" transform="translate(-146.57 -110.672)" fill="#455a64"/>
      <path id="Path_51661" data-name="Path 51661" d="M198.64,290.89c.15,0,.25.46.24,1s-.14,1-.29,1-.25-.45-.23-1S198.5,290.89,198.64,290.89Z" transform="translate(-146.57 -110.672)" fill="#455a64"/>
      <path id="Path_51662" data-name="Path 51662" d="M198.8,286.9c.15,0,.24.46.22,1s-.16,1-.31,1-.24-.45-.21-1S198.66,286.89,198.8,286.9Z" transform="translate(-146.57 -110.672)" fill="#455a64"/>
      <path id="Path_51663" data-name="Path 51663" d="M199,282.9c.14,0,.23.47.2,1s-.19,1-.33,1-.23-.46-.19-1S198.9,282.89,199,282.9Z" transform="translate(-146.57 -110.672)" fill="#455a64"/>
      <path id="Path_51664" data-name="Path 51664" d="M199.35,278.91c.15,0,.23.47.18,1s-.2,1-.34,1-.23-.47-.18-1S199.21,278.9,199.35,278.91Z" transform="translate(-146.57 -110.672)" fill="#455a64"/>
      <path id="Path_51665" data-name="Path 51665" d="M199.67,275.65c.14,0,.23.31.19.66s-.18.63-.32.61-.23-.31-.19-.66S199.53,275.63,199.67,275.65Z" transform="translate(-146.57 -110.672)" fill="#455a64"/>
      <path id="Path_51666" data-name="Path 51666" d="M167.5,448c.15,0,.17.49.06,1s-.31,1-.45.93-.17-.49-.06-1S167.36,448,167.5,448Z" transform="translate(-146.57 -110.672)" fill="#455a64"/>
      <path id="Path_51667" data-name="Path 51667" d="M168.29,444.07c.14,0,.17.49.06,1s-.31,1-.45.93-.17-.49-.06-1S168.15,444,168.29,444.07Z" transform="translate(-146.57 -110.672)" fill="#455a64"/>
      <path id="Path_51668" data-name="Path 51668" d="M169.07,440.15c.14,0,.17.49.06,1s-.31,1-.45.93-.17-.49-.06-1S168.93,440.12,169.07,440.15Z" transform="translate(-146.57 -110.672)" fill="#455a64"/>
      <path id="Path_51669" data-name="Path 51669" d="M169.86,436.23c.14,0,.17.49.06,1s-.31,1-.45.93-.17-.49-.06-1S169.72,436.2,169.86,436.23Z" transform="translate(-146.57 -110.672)" fill="#455a64"/>
      <path id="Path_51670" data-name="Path 51670" d="M170.64,432.3c.14,0,.17.5.06,1s-.31,1-.45.93-.17-.49-.06-1S170.5,432.28,170.64,432.3Z" transform="translate(-146.57 -110.672)" fill="#455a64"/>
      <path id="Path_51671" data-name="Path 51671" d="M171.43,428.38c.14,0,.17.49.06,1s-.31,1-.45.93-.17-.49-.06-1S171.29,428.35,171.43,428.38Z" transform="translate(-146.57 -110.672)" fill="#455a64"/>
      <path id="Path_51672" data-name="Path 51672" d="M172.21,424.46c.14,0,.17.49.06,1s-.31,1-.45.93-.17-.49-.06-1S172.07,424.43,172.21,424.46Z" transform="translate(-146.57 -110.672)" fill="#455a64"/>
      <path id="Path_51673" data-name="Path 51673" d="M173,420.54c.14,0,.16.49.06,1s-.31,1-.46.93-.16-.49,0-1S172.86,420.51,173,420.54Z" transform="translate(-146.57 -110.672)" fill="#455a64"/>
      <path id="Path_51674" data-name="Path 51674" d="M173.78,416.62c.14,0,.17.49.06,1s-.31,1-.45.93-.17-.49-.06-1S173.64,416.59,173.78,416.62Z" transform="translate(-146.57 -110.672)" fill="#455a64"/>
      <path id="Path_51675" data-name="Path 51675" d="M174.57,412.69c.14,0,.16.49.06,1s-.31.95-.46.92-.16-.49-.06-1S174.43,412.67,174.57,412.69Z" transform="translate(-146.57 -110.672)" fill="#455a64"/>
      <path id="Path_51676" data-name="Path 51676" d="M175.35,408.77c.14,0,.17.49.06,1s-.31,1-.45.93-.17-.49-.06-1S175.21,408.74,175.35,408.77Z" transform="translate(-146.57 -110.672)" fill="#455a64"/>
      <path id="Path_51677" data-name="Path 51677" d="M176.14,404.85c.14,0,.16.49.05,1s-.31,1-.45.93-.16-.49-.06-1S176,404.82,176.14,404.85Z" transform="translate(-146.57 -110.672)" fill="#455a64"/>
      <path id="Path_51678" data-name="Path 51678" d="M176.92,400.93c.14,0,.17.49.06,1s-.31,1-.45.93-.17-.49-.06-1S176.78,400.9,176.92,400.93Z" transform="translate(-146.57 -110.672)" fill="#455a64"/>
      <path id="Path_51679" data-name="Path 51679" d="M177.7,397c.15,0,.17.49.06,1s-.31.95-.45.93-.16-.49-.06-1S177.56,397,177.7,397Z" transform="translate(-146.57 -110.672)" fill="#455a64"/>
      <path id="Path_51680" data-name="Path 51680" d="M178.49,393.08c.14,0,.17.49.06,1s-.31,1-.45.93-.17-.49-.06-1S178.35,393.05,178.49,393.08Z" transform="translate(-146.57 -110.672)" fill="#455a64"/>
      <path id="Path_51681" data-name="Path 51681" d="M179.27,389.16c.15,0,.17.49.06,1s-.31,1-.45.93-.17-.49-.06-1S179.13,389.13,179.27,389.16Z" transform="translate(-146.57 -110.672)" fill="#455a64"/>
      <path id="Path_51682" data-name="Path 51682" d="M180.06,385.24c.14,0,.17.49.06,1s-.31,1-.45.93-.17-.49-.06-1S179.92,385.21,180.06,385.24Z" transform="translate(-146.57 -110.672)" fill="#455a64"/>
      <path id="Path_51683" data-name="Path 51683" d="M180.84,381.32c.14,0,.17.49.06,1s-.31.95-.45.93-.17-.49-.06-1S180.7,381.29,180.84,381.32Z" transform="translate(-146.57 -110.672)" fill="#455a64"/>
      <path id="Path_51684" data-name="Path 51684" d="M181.63,377.39c.14,0,.17.49.06,1s-.31,1-.45.93-.17-.49-.06-1S181.49,377.36,181.63,377.39Z" transform="translate(-146.57 -110.672)" fill="#455a64"/>
      <path id="Path_51685" data-name="Path 51685" d="M182.41,373.47c.14,0,.17.49.06,1s-.31,1-.45.93-.17-.49-.06-1S182.27,373.44,182.41,373.47Z" transform="translate(-146.57 -110.672)" fill="#455a64"/>
      <path id="Path_51686" data-name="Path 51686" d="M183.2,369.55c.14,0,.16.49.06,1s-.31,1-.45.93-.17-.49-.06-1S183.06,369.52,183.2,369.55Z" transform="translate(-146.57 -110.672)" fill="#455a64"/>
      <path id="Path_51687" data-name="Path 51687" d="M184,365.63c.14,0,.17.49.06,1s-.31,1-.45.93-.17-.49-.06-1S183.84,365.6,184,365.63Z" transform="translate(-146.57 -110.672)" fill="#455a64"/>
      <path id="Path_51688" data-name="Path 51688" d="M184.77,361.7c.14,0,.16.49.06,1s-.31.95-.46.92-.16-.49-.05-1S184.63,361.68,184.77,361.7Z" transform="translate(-146.57 -110.672)" fill="#455a64"/>
      <path id="Path_51689" data-name="Path 51689" d="M185.55,357.78c.14,0,.17.49.06,1s-.31,1-.45.93-.17-.49-.06-1S185.41,357.75,185.55,357.78Z" transform="translate(-146.57 -110.672)" fill="#455a64"/>
      <path id="Path_51690" data-name="Path 51690" d="M186.34,353.86c.14,0,.16.49.06,1s-.32,1-.46.93-.16-.49-.06-1S186.2,353.83,186.34,353.86Z" transform="translate(-146.57 -110.672)" fill="#455a64"/>
      <path id="Path_51691" data-name="Path 51691" d="M187.12,349.94c.14,0,.17.49.06,1s-.31,1-.45.93-.17-.49-.06-1S187,349.91,187.12,349.94Z" transform="translate(-146.57 -110.672)" fill="#455a64"/>
      <path id="Path_51692" data-name="Path 51692" d="M187.91,346c.14,0,.16.49.05,1s-.31.95-.45.93-.16-.49-.06-1S187.76,346,187.91,346Z" transform="translate(-146.57 -110.672)" fill="#455a64"/>
      <path id="Path_51693" data-name="Path 51693" d="M188.69,342.09c.14,0,.17.49.06,1s-.31,1-.45.93-.17-.49-.06-1S188.55,342.06,188.69,342.09Z" transform="translate(-146.57 -110.672)" fill="#455a64"/>
      <path id="Path_51694" data-name="Path 51694" d="M189.47,338.17c.15,0,.17.49.06,1s-.31,1-.45.93-.17-.49-.06-1S189.33,338.14,189.47,338.17Z" transform="translate(-146.57 -110.672)" fill="#455a64"/>
      <path id="Path_51695" data-name="Path 51695" d="M190.26,334.25c.14,0,.17.49.06,1s-.31,1-.45.93-.17-.49-.06-1S190.12,334.22,190.26,334.25Z" transform="translate(-146.57 -110.672)" fill="#455a64"/>
      <path id="Path_51696" data-name="Path 51696" d="M191,330.33c.14,0,.17.49.06,1s-.31.95-.45.93-.17-.49-.06-1S190.9,330.3,191,330.33Z" transform="translate(-146.57 -110.672)" fill="#455a64"/>
      <path id="Path_51697" data-name="Path 51697" d="M191.83,326.4c.14,0,.17.49.06,1s-.31,1-.45.93-.17-.49-.06-1S191.69,326.37,191.83,326.4Z" transform="translate(-146.57 -110.672)" fill="#455a64"/>
      <path id="Path_51698" data-name="Path 51698" d="M192.61,322.48c.14,0,.17.49.06,1s-.31,1-.45.93-.17-.49-.06-1S192.47,322.45,192.61,322.48Z" transform="translate(-146.57 -110.672)" fill="#455a64"/>
      <path id="Path_51699" data-name="Path 51699" d="M193.4,318.56c.14,0,.17.49.06,1s-.31,1-.45.93-.17-.49-.06-1S193.26,318.53,193.4,318.56Z" transform="translate(-146.57 -110.672)" fill="#455a64"/>
      <path id="Path_51700" data-name="Path 51700" d="M194.18,314.64c.14,0,.17.49.06,1s-.31,1-.45.93-.17-.49-.06-1S194,314.61,194.18,314.64Z" transform="translate(-146.57 -110.672)" fill="#455a64"/>
      <path id="Path_51701" data-name="Path 51701" d="M195,310.71c.14,0,.16.49.06,1s-.31.95-.46.93-.16-.49,0-1S194.83,310.69,195,310.71Z" transform="translate(-146.57 -110.672)" fill="#455a64"/>
      <path id="Path_51702" data-name="Path 51702" d="M195.75,306.79c.14,0,.17.49.06,1s-.31,1-.45.93-.17-.49-.06-1S195.61,306.76,195.75,306.79Z" transform="translate(-146.57 -110.672)" fill="#455a64"/>
      <path id="Path_51703" data-name="Path 51703" d="M274.18,185.83s6.66-10,6.84-10.07h0s6-10.12,8-10.12,1.28,2.05-.78,5.68a14.379,14.379,0,0,0-2,5.16l4.93,3s3.3-1.27,3.44,1.8a22,22,0,0,1-.57,4.17c-.2,1.1-.7,2.26-1.73,1.85a1.29,1.29,0,0,1-.88-1.23c-.07-1.82.27-2.49,0-2.49s-3.55,9.54-3.55,9.54Z" transform="translate(-146.57 -110.672)" fill="#ffbe9d"/>
      <path id="Path_51704" data-name="Path 51704" d="M287.62,178a9.831,9.831,0,0,1,1.59-.95,3.28,3.28,0,0,1,1.8-.28,1.63,1.63,0,0,1,1,.54,1.65,1.65,0,0,1,.19,1.51,4.81,4.81,0,0,1-.81,1.36" transform="translate(-146.57 -110.672)" fill="#ffbe9d"/>
      <path id="Path_51705" data-name="Path 51705" d="M285.37,176a10.776,10.776,0,0,1,1.5-.89,3.06,3.06,0,0,1,1.71-.26,1.53,1.53,0,0,1,.94.5,1.51,1.51,0,0,1,.18,1.43,12.41,12.41,0,0,1-1.53,2" transform="translate(-146.57 -110.672)" fill="#ffbe9d"/>
      <path id="Path_51706" data-name="Path 51706" d="M276.5,180.2l-9.62,20.57,10.61,10.84L283,196.28s3,.59,4.17-1.38c1.35-2.19,3.12-8.53,3.12-8.53Z" transform="translate(-146.57 -110.672)" fill="#ffbe9d"/>
      <path id="Path_51707" data-name="Path 51707" d="M283.37,179.63a5.29,5.29,0,0,1,1.14-2.84,5,5,0,0,1,1.65-1.46c.5-.27.83-.36.86-.3a11.988,11.988,0,0,0-2.09,2.06C283.99,178.39,283.54,179.7,283.37,179.63Z" transform="translate(-146.57 -110.672)" fill="#eb996e"/>
      <path id="Path_51708" data-name="Path 51708" d="M294.05,179.72c-.05.07-.37-.11-.93-.21a3.25,3.25,0,0,0-2.11.32,5.22,5.22,0,0,0-1.56,1.55c-.34.48-.57.78-.63.75s0-.4.32-.94a4.26,4.26,0,0,1,1.62-1.82,3.14,3.14,0,0,1,2.45-.22C293.82,179.36,294.09,179.67,294.05,179.72Z" transform="translate(-146.57 -110.672)" fill="#eb996e"/>
      <path id="Path_51709" data-name="Path 51709" d="M290.47,176.82a13,13,0,0,0-2.26,1.32c-1.08,1-1.61,2.07-1.76,2a3.68,3.68,0,0,1,1.41-2.39,4.23,4.23,0,0,1,1.77-.93C290.14,176.71,290.46,176.75,290.47,176.82Z" transform="translate(-146.57 -110.672)" fill="#eb996e"/>
      <path id="Path_51710" data-name="Path 51710" d="M292.83,181.26c.14,0,.39.74-.12,1.54s-1.32.92-1.34.78.52-.43.9-1.05S292.68,181.28,292.83,181.26Z" transform="translate(-146.57 -110.672)" fill="#eb996e"/>
      <path id="Path_51711" data-name="Path 51711" d="M274.2,185.43s-.33-6.14,1.15-7.53,5.74.06,5.74.06" transform="translate(-146.57 -110.672)" fill="#ffbe9d"/>
      <path id="Path_51712" data-name="Path 51712" d="M281.69,175a16.569,16.569,0,0,1-2.2,3.5,16.751,16.751,0,0,1-2.62,3.19,32.69,32.69,0,0,1,4.82-6.69Z" transform="translate(-146.57 -110.672)" fill="#eb996e"/>
      <path id="Path_51713" data-name="Path 51713" d="M178,180.62c.15-.82.35-1.78.63-2.9a8.85,8.85,0,0,1,1.22-2.69,13.61,13.61,0,0,1,2.35-2.84,1.14,1.14,0,0,0-.5-2.1c-1,0-3.59,1.81-5.35,5s-2.79-2.46-3.2-4.51-2-8.35-2.73-8.72c-1.07-.55-1.85.5-1.39,2.54s1.41,8.26.31,8.43-3-10.32-3-10.32-.06-2.31-1.33-2.16c-2.29.27.61,11.26.92,12.3.21.72-1,1-1.16.16s-1.72-10.51-4.06-10.25c-1.79.19,2.31,9.06,1.51,11.25s-2.43-7-4.13-6.79c-.64.1-1.1.25.6,5.42.82,2.51,4,14.25,4,14.25l-1.83,9.63,14.61,3.7Z" transform="translate(-146.57 -110.672)" fill="#ffbe9d"/>
      <path id="Path_51714" data-name="Path 51714" d="M196.52,128.48l-.14,47.91,20.55,1,.59-11.65s7.31,1.45,9.19-5.33c1.2-4.33.9-37.81.9-37.81Z" transform="translate(-146.57 -110.672)" fill="#ffbe9d"/>
      <path id="Path_51715" data-name="Path 51715" d="M230.32,126c-3.24.92-3.94,6.22-3.94,6.22l-5.08,11.21c-2.59-2-6.06-1.91-6.72,2.64-.48,3.28,3.61,3.95,3.61,3.95-2.38,4-4,7.32-7.45,11.17-3.75,4.16-5.85,4.58-9.91,4.65h-4.48s-2.2-7.12-6.26-24.93c-4.51-19.75,18.85-17.21,23.18-22.25C220.33,110.41,240.52,123,230.32,126Z" transform="translate(-146.57 -110.672)" fill="#263238"/>
      <path id="Path_51716" data-name="Path 51716" d="M190.52,142.74c-3.79-2.55-4.13-9.66-1.92-13.93a13.7,13.7,0,0,1,11.66-7.25,5.82,5.82,0,0,0,1.91-.22,5.2,5.2,0,0,0,2-1.94c3.39-4.4,6.71-8.72,13-8.72a7.17,7.17,0,0,1,4,1,6.27,6.27,0,0,1,2.39,3.16,13.32,13.32,0,0,1,3.68-1.33,4.56,4.56,0,0,1,3.71.9,2.79,2.79,0,0,1,.58,3.55,4.47,4.47,0,0,1,4.47,3.73c.34,2.1-2.68,3.58-3,3.74,0,0,1.65,3.47-2.29,5.54-1.59.84-3.66-.17-3.89-.29" transform="translate(-146.57 -110.672)" fill="#263238"/>
      <path id="Path_51717" data-name="Path 51717" d="M205.52,147.34a9.6,9.6,0,0,1-1.57,7c-.13-.07.53-1.54,1-3.45S205.37,147.35,205.52,147.34Z" transform="translate(-146.57 -110.672)" fill="#455a64"/>
      <path id="Path_51718" data-name="Path 51718" d="M208,145a8.689,8.689,0,0,1-.19,3.5,8.47,8.47,0,0,1-1.09,3.34,19.1,19.1,0,0,1,.58-3.43A18.34,18.34,0,0,1,208,145Z" transform="translate(-146.57 -110.672)" fill="#455a64"/>
      <path id="Path_51719" data-name="Path 51719" d="M215.13,137.08c.05.07-.53.5-1.27,1.36a13.06,13.06,0,0,0-2.22,3.83,31.159,31.159,0,0,0-1.22,4.31,7.6,7.6,0,0,1-.51,1.81,6.5,6.5,0,0,1,.14-1.88,21.732,21.732,0,0,1,1.11-4.43,11.17,11.17,0,0,1,2.43-3.89A4,4,0,0,1,215.13,137.08Z" transform="translate(-146.57 -110.672)" fill="#455a64"/>
      <path id="Path_51720" data-name="Path 51720" d="M218,131.7a2.769,2.769,0,0,1,.4,1.3,8.61,8.61,0,0,1-1.57,6.24c-.5.67-.91,1-1,.95a17.939,17.939,0,0,0,1.84-4.05,17.63,17.63,0,0,0,.33-4.44Z" transform="translate(-146.57 -110.672)" fill="#455a64"/>
      <path id="Path_51721" data-name="Path 51721" d="M193.48,143.67c-.07.12-.7-.1-1.41-.49s-1.22-.82-1.15-.94.7.09,1.4.49S193.55,143.54,193.48,143.67Z" transform="translate(-146.57 -110.672)" fill="#455a64"/>
      <path id="Path_51722" data-name="Path 51722" d="M203.41,138.55a2.94,2.94,0,0,1-.59,2.09c-.63,1.05-1.49,1.6-1.57,1.49s.55-.79,1.12-1.76S203.26,138.52,203.41,138.55Z" transform="translate(-146.57 -110.672)" fill="#455a64"/>
      <path id="Path_51723" data-name="Path 51723" d="M206.46,136.91a4.12,4.12,0,0,1-.91,2.49c-.83,1.25-1.86,1.92-1.94,1.81a21.7,21.7,0,0,1,1.5-2.1A22.844,22.844,0,0,1,206.46,136.91Z" transform="translate(-146.57 -110.672)" fill="#455a64"/>
      <path id="Path_51724" data-name="Path 51724" d="M221.64,116.85a10.673,10.673,0,0,0-1.13-.72,7.56,7.56,0,0,0-3.44-.89,9.15,9.15,0,0,0-5,1.36,12.52,12.52,0,0,0-4.31,4.79,21.52,21.52,0,0,0-1.75,4.5l-.08.3-.27-.15a10.31,10.31,0,0,0-4.59-1.17,10.77,10.77,0,0,0-3.73.56,16,16,0,0,0-3,1.53,2.84,2.84,0,0,1,.69-.61,9,9,0,0,1,2.25-1.21,10.67,10.67,0,0,1,3.85-.7,10.48,10.48,0,0,1,4.81,1.16l-.36.16a21.049,21.049,0,0,1,1.77-4.61,12.62,12.62,0,0,1,4.52-5,9.44,9.44,0,0,1,5.31-1.32,7.32,7.32,0,0,1,3.54,1.09,5.432,5.432,0,0,1,.79.62C221.57,116.74,221.65,116.83,221.64,116.85Z" transform="translate(-146.57 -110.672)" fill="#455a64"/>
      <path id="Path_51725" data-name="Path 51725" d="M232.45,119.45a1.257,1.257,0,0,1,1.18.54,2,2,0,0,1,.47,1.5,2.35,2.35,0,0,1-1.19,1.71,3.42,3.42,0,0,1-2.5.34,7.249,7.249,0,0,1-2.58-1.25,24.321,24.321,0,0,0-2.52-1.73,10.37,10.37,0,0,0-3-1.06,12.77,12.77,0,0,0-6.2.42,16.74,16.74,0,0,0-4.58,2.33,47.22,47.22,0,0,0-3.66,3.09,5.59,5.59,0,0,1,.81-1,20.56,20.56,0,0,1,2.63-2.38,16.6,16.6,0,0,1,4.65-2.49,13.09,13.09,0,0,1,6.44-.48,10.921,10.921,0,0,1,3.19,1.14,23.745,23.745,0,0,1,2.55,1.78,7,7,0,0,0,2.4,1.22,3,3,0,0,0,2.21-.24,2,2,0,0,0,1.09-1.43,1.78,1.78,0,0,0-1.36-2Z" transform="translate(-146.57 -110.672)" fill="#455a64"/>
      <path id="Path_51726" data-name="Path 51726" d="M175.63,178.73l-25.12,44.92a12.73,12.73,0,0,0,1.94,11.93l-.52-.74a10.75,10.75,0,0,0,8.34,4h.47a10.73,10.73,0,0,0,9.84-6.451l5.89-9Z" transform="translate(-146.57 -110.672)" fill="#06b2ff"/>
      <path id="Path_51727" data-name="Path 51727" d="M230,175.52c-4.93-2.52-9.79-3.09-15.1-3.24-6.18-.18-14.9-1.05-21.56-.34,0,0-20.3-.62-20.39,15.11l2.68,60.4-4.35,25.89,60.84,1.84-.44-30.54c.75-15.89-.85-38.39-.85-38.39.93-8.55,5.61-12.39,6.27-17.95C237.72,183.39,234.44,177.77,230,175.52Z" transform="translate(-146.57 -110.672)" fill="#06b2ff"/>
      <path id="Path_51728" data-name="Path 51728" d="M212.89,248.33a5.162,5.162,0,0,1-.9.85,19.891,19.891,0,0,1-2.77,1.9,22.21,22.21,0,0,1-21.37.38,20.932,20.932,0,0,1-2.84-1.8,5.209,5.209,0,0,1-.92-.82c.06-.08,1.41,1.06,3.93,2.29a23,23,0,0,0,21-.37C211.52,249.44,212.82,248.25,212.89,248.33Z" transform="translate(-146.57 -110.672)" fill="#263238"/>
      <path id="Path_51729" data-name="Path 51729" d="M173,187.05a3.691,3.691,0,0,1,.07.6c0,.45.06,1,.1,1.71.07,1.55.17,3.68.29,6.28.23,5.36.53,12.66.87,20.72s.7,15.36.94,20.73c.13,2.6.24,4.73.32,6.28,0,.69.05,1.26.07,1.71a2.57,2.57,0,0,1,0,.6,2.489,2.489,0,0,1-.09-.6c0-.44-.1-1-.17-1.7-.15-1.48-.3-3.62-.49-6.27-.36-5.3-.75-12.63-1.09-20.72s-.58-15.43-.72-20.74c0-2.6-.09-4.73-.12-6.29v-1.71a2.582,2.582,0,0,1,.02-.6Z" transform="translate(-146.57 -110.672)" fill="#263238"/>
      <path id="Path_51730" data-name="Path 51730" d="M160.22,192.27s-2.3,6.76-2.71,7.67c0,0-5.68,16.42-7.53,27.51l18.16-32.79C168.3,194.68,160.47,192.34,160.22,192.27Z" transform="translate(-146.57 -110.672)" fill="#06b2ff"/>
      <path id="Path_51731" data-name="Path 51731" d="M169.17,190.29a2.45,2.45,0,0,1-.21.47l-.69,1.32c-.62,1.13-1.53,2.76-2.7,4.75-2.31,4-5.78,9.33-9.29,15.41-1.75,3-3.24,6-4.53,8.79a16.08,16.08,0,0,0-1.77,7.71,12.51,12.51,0,0,0,1.41,5.16c.6,1.12,1.1,1.65,1.06,1.68s-.14-.11-.37-.37a10.072,10.072,0,0,1-.87-1.21,12.14,12.14,0,0,1-1.6-5.24,16.25,16.25,0,0,1,1.7-7.93c1.28-2.78,2.75-5.79,4.52-8.85,3.52-6.1,7-11.4,9.43-15.34l2.83-4.66.78-1.27C169.05,190.43,169.15,190.28,169.17,190.29Z" transform="translate(-146.57 -110.672)" fill="#263238"/>
      <path id="Path_51732" data-name="Path 51732" d="M281.06,207.06,267,197.85l-8.89,15.39s-12.32-17.12-17.91-27.15c-5.15-9.23-11.81-11.71-15-12.38a1.42,1.42,0,0,0-1.7,1.55l4.85,33.29c.61,1.74,10.78,16.47,16.45,23.88,9.48,12.37,23.44,4.45,27.28-4.21C275.08,221.35,279.82,210.91,281.06,207.06Z" transform="translate(-146.57 -110.672)" fill="#06b2ff"/>
      <path id="Path_51733" data-name="Path 51733" d="M262.15,227.14a9.56,9.56,0,0,1-.27-2.2,43.157,43.157,0,0,0-.68-5.24,17.29,17.29,0,0,0-1.8-4.92c-.66-1.17-1.22-1.8-1.16-1.86a5.29,5.29,0,0,1,1.48,1.67,14.69,14.69,0,0,1,2,5,29,29,0,0,1,.54,5.33,9.271,9.271,0,0,1-.11,2.22Z" transform="translate(-146.57 -110.672)" fill="#263238"/>
      <path id="Path_51734" data-name="Path 51734" d="M266.27,220.26c-.08,0-.15-.72-.5-1.81a10,10,0,0,0-2.25-3.77,5.9,5.9,0,0,0-3.75-2.05A4.89,4.89,0,0,0,258,213a2.24,2.24,0,0,1,1.79-.69,5.79,5.79,0,0,1,4.11,2.06,8.929,8.929,0,0,1,2.23,4A4.1,4.1,0,0,1,266.27,220.26Z" transform="translate(-146.57 -110.672)" fill="#263238"/>
      <path id="Path_51735" data-name="Path 51735" d="M224.25,177.82a2.32,2.32,0,0,1-.34.39l-.43.44-.54.65a13.77,13.77,0,0,0-2.44,4.7,18.409,18.409,0,0,0-.53,7.86,16.9,16.9,0,0,0,1.21,4.51,49,49,0,0,0,2.27,4.52c3.45,6.05,7,11.28,9.56,15.06l3.09,4.44a15.9,15.9,0,0,1,1.12,1.65,3.656,3.656,0,0,1-.36-.38c-.22-.26-.53-.64-.92-1.15-.79-1-1.9-2.49-3.23-4.35a177.322,177.322,0,0,1-9.71-15,49.006,49.006,0,0,1-2.3-4.58,17.921,17.921,0,0,1-1.21-4.63,18.44,18.44,0,0,1,.66-8,13.31,13.31,0,0,1,2.63-4.75l.58-.63c.18-.15.34-.28.48-.41A2.7,2.7,0,0,1,224.25,177.82Z" transform="translate(-146.57 -110.672)" fill="#263238"/>
      <g id="Group_69967" data-name="Group 69967" transform="translate(40.552 124.364)" opacity="0.3">
        <path id="Path_51736" data-name="Path 51736" d="M208.54,251c4.49-2,8-6.74,8.16-11.49a4.73,4.73,0,0,0-1.1-3.56c-1.33-1.31-3.57-1.06-5.22-.2-2.72,1.43-4.5,4.12-6.41,6.52s-4.34,4.77-7.39,5.06a19.32,19.32,0,0,1-3.94-.29,6.67,6.67,0,0,0-3.86.46,3,3,0,0,0-1.6,3.27s5.38,3.34,11,2.95A31.7,31.7,0,0,0,208.54,251Z" transform="translate(-187.122 -235.036)"/>
      </g>
      <path id="Path_51737" data-name="Path 51737" d="M224.28,266.27a1.661,1.661,0,0,1-.43.18l-1.26.44c-.55.19-1.23.41-2,.62s-1.69.49-2.71.71a69.259,69.259,0,0,1-7.19,1.32,70.845,70.845,0,0,1-17.86,0,67.508,67.508,0,0,1-7.19-1.28c-1-.21-1.92-.48-2.72-.69s-1.48-.43-2-.61l-1.27-.43a1.881,1.881,0,0,1-.43-.19,2.475,2.475,0,0,1,.47.09l1.29.33c.56.16,1.24.35,2,.53s1.71.42,2.73.61c2,.44,4.45.84,7.17,1.16a81.216,81.216,0,0,0,8.87.5,82.906,82.906,0,0,0,8.87-.55c2.72-.33,5.15-.75,7.17-1.2,1-.19,1.92-.44,2.72-.63s1.48-.37,2-.53l1.29-.35A1.471,1.471,0,0,1,224.28,266.27Z" transform="translate(-146.57 -110.672)" fill="#263238"/>
    </g>
    <g id="freepik--Floor--inject-104" transform="translate(31.88 464.74)">
      <path id="Path_51738" data-name="Path 51738" d="M468.12,465c0,.14-97.66.26-218.11.26s-218.13-.1-218.13-.26,97.64-.26,218.13-.26S468.12,464.87,468.12,465Z" transform="translate(-31.88 -464.74)" fill="#263238"/>
    </g>
    <path id="Union_24" data-name="Union 24" d="M-7556.741,831.47v-4.6h-2.6v4.6a2,2,0,0,1-1.943,1.968,2,2,0,0,1-1.943-1.968v-4.6h-1.3a1.233,1.233,0,0,1-1.3-1.314V812.434h15.559V825.56a1.234,1.234,0,0,1-1.3,1.314h-1.3v4.6a2,2,0,0,1-1.943,1.968A2,2,0,0,1-7556.741,831.47Zm7.779-7.878V814.4a2.007,2.007,0,0,1,1.944-1.967,2.006,2.006,0,0,1,1.943,1.967v9.191a2,2,0,0,1-1.943,1.968A2,2,0,0,1-7548.961,823.593Zm-22.041,0V814.4a2.006,2.006,0,0,1,1.944-1.967,2.006,2.006,0,0,1,1.943,1.967v9.191a2,2,0,0,1-1.943,1.968A2,2,0,0,1-7571,823.593Zm5.185-12.474q0-.179.008-.356c0-.018,0-.036,0-.054a7.771,7.771,0,0,1,1.767-4.562,7.053,7.053,0,0,1,1.462-1.329l-1.684-1.7a.636.636,0,0,1,0-.916.615.615,0,0,1,.9,0l1.741,1.756.08.081a7.6,7.6,0,0,1,3.478-.787h.038a7.6,7.6,0,0,1,3.478.787l.08-.081,1.74-1.756a.615.615,0,0,1,.9,0,.636.636,0,0,1,0,.916l-1.684,1.7a7.04,7.04,0,0,1,1.462,1.329,7.769,7.769,0,0,1,1.767,4.562c0,.018,0,.036,0,.054.006.118.008.237.008.356Zm10.05-3.279a.979.979,0,0,0,.973.984.978.978,0,0,0,.972-.984.979.979,0,0,0-.972-.984A.979.979,0,0,0-7555.768,807.841Zm-6.486,0a.978.978,0,0,0,.972.984.978.978,0,0,0,.972-.984.978.978,0,0,0-.972-.984A.978.978,0,0,0-7562.253,807.841Z" transform="translate(7833.118 -727.074)" fill="url(#linear-gradient)"/>
  </g>
</svg>
