<svg xmlns="http://www.w3.org/2000/svg" width="53.627" height="48.666" viewBox="0 0 53.627 48.666">
  <g id="Group_18114" data-name="Group 18114" transform="translate(-430.572 -8702.367)">
    <path id="Path_211" data-name="Path 211" d="M229.327,102.339c0-3.62-4.449-7.051-11.27-9.178,1.574-7.084.874-12.721-2.208-14.525a4.722,4.722,0,0,0-2.448-.624V80.5a2.493,2.493,0,0,1,1.246.29c1.487.869,2.132,4.177,1.629,8.432-.12,1.047-.317,2.15-.557,3.275a52.072,52.072,0,0,0-6.941-1.214,54.122,54.122,0,0,0-4.547-5.569c3.563-3.375,6.908-5.224,9.182-5.224V78h0c-3.006,0-6.941,2.183-10.92,5.97-3.979-3.765-7.914-5.926-10.92-5.926v2.484c2.263,0,5.619,1.838,9.182,5.191a52.4,52.4,0,0,0-4.514,5.558,50.178,50.178,0,0,0-6.952,1.225c-.251-1.114-.437-2.194-.568-3.23-.514-4.255.12-7.563,1.6-8.443a2.4,2.4,0,0,1,1.257-.29V78.056h0a4.8,4.8,0,0,0-2.47.624c-3.072,1.8-3.76,7.43-2.175,14.492-6.8,2.139-11.226,5.558-11.226,9.167s4.449,7.051,11.27,9.178c-1.574,7.084-.874,12.721,2.208,14.525a4.734,4.734,0,0,0,2.459.624c3.006,0,6.941-2.183,10.92-5.97,3.979,3.765,7.914,5.926,10.92,5.926a4.8,4.8,0,0,0,2.47-.624c3.072-1.8,3.76-7.43,2.175-14.492C224.9,109.378,229.327,105.948,229.327,102.339ZM215.1,94.909c-.4,1.437-.907,2.918-1.476,4.4-.448-.891-.918-1.782-1.432-2.673s-1.038-1.76-1.574-2.606C212.166,94.263,213.663,94.552,215.1,94.909Zm-5.006,11.863c-.853,1.5-1.727,2.93-2.634,4.255-1.629.145-3.279.223-4.941.223s-3.3-.078-4.919-.212q-1.361-1.988-2.645-4.233c-.831-1.459-1.585-2.941-2.274-4.433.678-1.493,1.443-2.985,2.263-4.444.853-1.5,1.727-2.93,2.634-4.255,1.629-.145,3.279-.223,4.941-.223s3.3.078,4.919.212q1.361,1.988,2.645,4.233,1.246,2.189,2.274,4.433C211.663,103.82,210.909,105.313,210.089,106.772Zm3.531-1.448c.59,1.493,1.093,2.985,1.509,4.433-1.432.356-2.94.657-4.5.891.536-.858,1.071-1.738,1.574-2.64S213.171,106.215,213.62,105.324Zm-11.084,11.885a45.667,45.667,0,0,1-3.039-3.564c.984.045,1.989.078,3.006.078s2.044-.022,3.039-.078A43.272,43.272,0,0,1,202.536,117.209Zm-8.133-6.561c-1.552-.234-3.05-.524-4.482-.88.4-1.437.907-2.918,1.476-4.4.448.891.918,1.782,1.432,2.673S193.867,109.8,194.4,110.648Zm8.078-23.18a45.677,45.677,0,0,1,3.039,3.564c-.984-.045-1.989-.078-3.006-.078s-2.044.022-3.039.078A43.269,43.269,0,0,1,202.481,87.468Zm-8.089,6.561c-.536.858-1.071,1.738-1.574,2.64s-.973,1.782-1.421,2.673c-.59-1.493-1.093-2.985-1.508-4.433C191.32,94.564,192.829,94.263,194.392,94.029ZM184.5,107.975c-3.87-1.682-6.373-3.888-6.373-5.636s2.5-3.965,6.373-5.636c.94-.412,1.968-.78,3.028-1.125a54.15,54.15,0,0,0,2.459,6.784,53.392,53.392,0,0,0-2.427,6.75C186.478,108.766,185.45,108.387,184.5,107.975Zm5.881,15.918c-1.487-.869-2.132-4.177-1.629-8.432.12-1.047.317-2.15.557-3.275a52.072,52.072,0,0,0,6.941,1.214,54.1,54.1,0,0,0,4.547,5.569c-3.564,3.375-6.908,5.224-9.182,5.224A2.57,2.57,0,0,1,190.38,123.892Zm25.928-8.488c.514,4.255-.12,7.563-1.6,8.443a2.4,2.4,0,0,1-1.257.29c-2.263,0-5.619-1.838-9.182-5.191a52.407,52.407,0,0,0,4.514-5.558,50.179,50.179,0,0,0,6.952-1.225A31.74,31.74,0,0,1,216.309,115.4Zm4.208-7.43c-.94.412-1.968.78-3.028,1.125a54.161,54.161,0,0,0-2.459-6.784,53.392,53.392,0,0,0,2.427-6.75c1.082.345,2.11.724,3.072,1.136,3.87,1.682,6.373,3.887,6.373,5.636S224.387,106.3,220.517,107.975Z" transform="translate(254.872 8624.367)" fill="#fff"/>
    <ellipse id="Ellipse_42" data-name="Ellipse 42" cx="4.995" cy="5.09" rx="4.995" ry="5.09" transform="translate(452.379 8721.616)" fill="#fff"/>
  </g>
</svg>
