<svg xmlns="http://www.w3.org/2000/svg" width="47.809" height="44.247" viewBox="0 0 47.809 44.247">
  <g id="Group_55691" data-name="Group 55691" transform="translate(-355.934 -1852.484)">
    <g id="Group_55675" data-name="Group 55675" transform="translate(360.621 1852.484)">
      <path id="implementation" d="M30.224,44.569,23.047,39.3a.82.82,0,0,0-1.306.661v1.893c-3.877-.106-7.5-1.073-8.777-6.046a.82.82,0,0,0-1.512-.194,8.6,8.6,0,0,0,.063,8.615,9.8,9.8,0,0,0,4.119,3.741,14.9,14.9,0,0,0,6.106,1.448v1.815a.82.82,0,0,0,1.347.629l7.177-6.007a.82.82,0,0,0-.041-1.291Zm-6.842,4.912v-.862a.82.82,0,0,0-.82-.82c-4.477,0-7.988-1.6-9.632-4.4a6.9,6.9,0,0,1-.787-5.049,8.341,8.341,0,0,0,4.166,4.1,15.077,15.077,0,0,0,6.253,1.058.82.82,0,0,0,.82-.82v-1.1l5.028,3.688ZM30.175,15.1a.82.82,0,0,0,.335.635L38.2,21.374a.82.82,0,0,0,1.306-.661v-2.09c4.2.105,8.138,1.132,9.523,6.525.083.325,1.366.457,1.512.194a9.157,9.157,0,0,0-.067-9.175,10.439,10.439,0,0,0-4.39-3.987,15.949,15.949,0,0,0-6.578-1.548v-2A.82.82,0,0,0,38.16,8L30.468,14.44a.821.821,0,0,0-.293.655Zm7.692-4.708v1.051a.82.82,0,0,0,.82.82c4.82,0,8.6,1.728,10.374,4.741a7.458,7.458,0,0,1,.811,5.619A8.907,8.907,0,0,0,45.364,18.1a16.106,16.106,0,0,0-6.677-1.129.82.82,0,0,0-.82.82v1.3l-5.543-4.066Z" transform="translate(-10.327 -7.811)" fill="#009eff"/>
    </g>
    <path id="Union_1" data-name="Union 1" d="M3.12,17.912A10.45,10.45,0,0,1,15.438,1.283,3.541,3.541,0,0,0,14.272,2.8a8.485,8.485,0,0,0-7.717.083A8.3,8.3,0,0,0,2.724,6.874a8.545,8.545,0,1,0,15.59.17,3.483,3.483,0,0,0,1.564-1.091A10.443,10.443,0,0,1,3.12,17.912ZM5.7,10.477a4.767,4.767,0,1,1,4.777,4.757A4.773,4.773,0,0,1,5.7,10.477Zm9.43-6.525a2.178,2.178,0,0,1,4.356-.043,2.161,2.161,0,0,1-2.165,2.215h-.018A2.174,2.174,0,0,1,15.133,3.952Z" transform="translate(356.435 1853.156)" fill="#222872" stroke="rgba(0,0,0,0)" stroke-miterlimit="10" stroke-width="1"/>
    <g id="Group_55687" data-name="Group 55687" transform="translate(381.327 1873.04)">
      <g id="Group_55688" data-name="Group 55688" transform="translate(0 0)">
        <g id="Group_55685" data-name="Group 55685">
          <g id="Group_55689" data-name="Group 55689">
            <g id="Group_55683" data-name="Group 55683">
              <g id="Group_55690" data-name="Group 55690">
                <path id="Path_14131" data-name="Path 14131" d="M85.526,57.645c-.015-.04.021-.047.053-.059l3.485-1.3q3.8-1.417,7.6-2.835a.208.208,0,0,1,.159.005l9.952,3.714c.372.139.744.278,1.118.415a.061.061,0,0,1,.049.077c-.043.364-.083.727-.125,1.091l-.138,1.21q-.069.6-.137,1.2l-.138,1.21-.138,1.21-.136,1.2q-.069.608-.139,1.215t-.137,1.2l-.135,1.192-.151,1.328q-.075.655-.15,1.31c-.018.158-.037.316-.052.475a.1.1,0,0,1-.058.093q-3.5,1.878-7,3.757-1.256.674-2.511,1.35a.1.1,0,0,1-.113,0L88.838,72.5q-.835-.449-1.671-.9a.1.1,0,0,1-.061-.091c-.053-.48-.109-.961-.163-1.441q-.074-.655-.148-1.311-.081-.709-.163-1.417t-.16-1.417q-.086-.759-.174-1.518-.08-.706-.16-1.411-.075-.655-.15-1.31t-.148-1.31q-.075-.655-.15-1.31t-.148-1.31c0-.034-.008-.067-.013-.11m1.652.991c.028.246.055.476.081.7q.08.709.16,1.417t.163,1.417q.086.759.172,1.518.093.812.186,1.625t.184,1.625q.1.916.21,1.832.1.886.2,1.773a.1.1,0,0,0,.057.086q.963.514,1.924,1.032,3.064,1.645,6.126,3.292a.167.167,0,0,0,.183,0q3.112-1.675,6.226-3.346.914-.491,1.828-.983a.1.1,0,0,0,.047-.059c.03-.241.057-.482.085-.723q.069-.6.137-1.2.075-.655.15-1.31.069-.6.136-1.2t.138-1.21q.069-.6.136-1.2t.139-1.216q.068-.6.136-1.2.075-.655.15-1.31c.05-.437.1-.874.15-1.31.006-.047-.005-.064-.049-.081q-1.961-.73-3.921-1.462-2.765-1.031-5.53-2.061a.148.148,0,0,0-.095,0q-4.156,1.548-8.312,3.1l-1.15.43a.242.242,0,0,0-.048.03" transform="translate(-85.522 -53.438)" fill="#222872"/>
                <path id="Path_14133" data-name="Path 14133" d="M513.74,383.889l4.7,12.614h-.066q-1.159,0-2.317,0a.078.078,0,0,1-.088-.062q-.544-1.467-1.091-2.933a.082.082,0,0,0-.092-.065q-2.52,0-5.04,0a.088.088,0,0,0-.1.068q-.585,1.471-1.172,2.941c-.013.032-.024.051-.065.051h-2.395l-.026,0c.008-.021.015-.04.022-.059l3.041-7.625q.971-2.434,1.941-4.868c.015-.038.029-.06.078-.06q1.308,0,2.616,0Zm-3.147,7.259H514l-1.645-4.412-1.76,4.412" transform="translate(-500.969 -379.941)" fill="#222872"/>
              </g>
            </g>
          </g>
        </g>
      </g>
    </g>
  </g>
</svg>
