<svg xmlns="http://www.w3.org/2000/svg" width="545.204" height="434.665" viewBox="0 0 545.204 434.665">
  <g id="Group_70375" data-name="Group 70375" transform="translate(-274.875 -4479.98)">
    <g id="Group_70375-2" data-name="Group 70375">
      <g id="Group_69730" data-name="Group 69730" transform="translate(245 -517.391)">
        <g id="Group_69729" data-name="Group 69729" transform="translate(-28 4997.371)">
          <path id="Path_50289" data-name="Path 50289" d="M2863.971,2156.754c-1.978,42.923-7.212,53.777-43.484,78.237h160.792c-36.271-24.46-41.506-35.314-43.484-78.237l-36.912-3.489Z" transform="translate(-2543.52 -1800.328)" fill="#b1d2fc" fill-rule="evenodd"/>
          <path id="Path_50290" data-name="Path 50290" d="M2315.56,1051.507h432.305c15.5,0,28.175,14.115,28.175,31.365v277.541h0v3.993c0,17.251-12.678,31.365-28.174,31.365H2315.56c-15.5,0-28.175-14.115-28.175-31.365V1082.873c0-17.251,12.679-31.365,28.175-31.365" transform="translate(-2172.961 -1034.496)" fill="#b1d2fc" fill-rule="evenodd"/>
          <path id="Path_50291" data-name="Path 50291" d="M2332.239,1105.158h460.275a.366.366,0,0,1,.344.383v275.545H2331.9V1105.541a.366.366,0,0,1,.344-.383" transform="translate(-2203.9 -1071.789)" fill="#2a4589"/>
          <path id="Path_50292" data-name="Path 50292" d="M3068.025,2068.787a9.078,9.078,0,1,1-9.078,9.079,9.078,9.078,0,0,1,9.078-9.079" transform="translate(-2709.274 -1741.607)" fill="#7ba9e3" fill-rule="evenodd"/>
          <rect id="Rectangle_27541" data-name="Rectangle 27541" width="76.326" height="13.603" transform="translate(319.175 361.277)" fill="#7ba9e3"/>
          <rect id="Rectangle_27542" data-name="Rectangle 27542" width="76.326" height="13.603" transform="translate(319.175 361.277)" fill="none" stroke="#7ba9e3" stroke-miterlimit="22.926" stroke-width="0.216"/>
          <path id="Path_50293" data-name="Path 50293" d="M2970.478,1903.442h125.09a2.567,2.567,0,0,0,2.559-2.56h0a2.566,2.566,0,0,0-2.559-2.559h-125.09a2.566,2.566,0,0,0-2.559,2.559h0a2.567,2.567,0,0,0,2.559,2.56" transform="translate(-2646 -1623.118)" fill="#eb6502" fill-rule="evenodd"/>
          <path id="Path_50294" data-name="Path 50294" d="M3426.162,1903.442h30.708a2.567,2.567,0,0,0,2.56-2.56h0a2.566,2.566,0,0,0-2.56-2.559h-30.708a2.566,2.566,0,0,0-2.559,2.559h0a2.567,2.567,0,0,0,2.559,2.56" transform="translate(-2962.746 -1623.118)" fill="#fff" fill-rule="evenodd"/>
          <path id="Path_50295" data-name="Path 50295" d="M2926.046,1866.908h30.708a2.566,2.566,0,0,0,2.559-2.559h0a2.567,2.567,0,0,0-2.559-2.559h-30.708a2.567,2.567,0,0,0-2.559,2.559h0a2.566,2.566,0,0,0,2.559,2.559" transform="translate(-2615.115 -1597.723)" fill="#fff" fill-rule="evenodd"/>
          <path id="Path_50296" data-name="Path 50296" d="M2970.478,1830.374h46.062a2.559,2.559,0,0,0,0-5.118h-46.062a2.559,2.559,0,0,0,0,5.118" transform="translate(-2646 -1572.329)" fill="#fff" fill-rule="evenodd"/>
          <path id="Path_50297" data-name="Path 50297" d="M2970.972,1793.84h37.783a2.567,2.567,0,0,0,2.559-2.559h0a2.567,2.567,0,0,0-2.559-2.559h-37.783a2.567,2.567,0,0,0-2.559,2.559h0a2.567,2.567,0,0,0,2.559,2.559" transform="translate(-2646.343 -1546.934)" fill="#fff" fill-rule="evenodd"/>
          <path id="Path_50298" data-name="Path 50298" d="M2970.972,1757.306h114.7a2.559,2.559,0,0,0,0-5.118h-114.7a2.559,2.559,0,1,0,0,5.118" transform="translate(-2646.343 -1521.54)" fill="#fff" fill-rule="evenodd"/>
          <path id="Path_50299" data-name="Path 50299" d="M3168.452,1830.374h30.106a2.559,2.559,0,0,0,0-5.118h-30.106a2.559,2.559,0,0,0,0,5.118" transform="translate(-2783.612 -1572.329)" fill="#fff" fill-rule="evenodd"/>
          <path id="Path_50300" data-name="Path 50300" d="M3131.177,1793.84h89.489a2.567,2.567,0,0,0,2.56-2.559h0a2.567,2.567,0,0,0-2.56-2.559h-89.489a2.567,2.567,0,0,0-2.56,2.559h0a2.567,2.567,0,0,0,2.56,2.559" transform="translate(-2757.702 -1546.934)" fill="#eb6502" fill-rule="evenodd"/>
          <path id="Path_50301" data-name="Path 50301" d="M3468.868,1793.84h24.01a2.567,2.567,0,0,0,2.559-2.559h0a2.567,2.567,0,0,0-2.559-2.559h-24.01a2.567,2.567,0,0,0-2.559,2.559h0a2.567,2.567,0,0,0,2.559,2.559" transform="translate(-2992.431 -1546.934)" fill="#6cd6ff" fill-rule="evenodd"/>
          <path id="Path_50302" data-name="Path 50302" d="M2926.046,1720.526h30.708a2.566,2.566,0,0,0,2.559-2.559h0a2.567,2.567,0,0,0-2.559-2.559h-30.708a2.567,2.567,0,0,0-2.559,2.559h0a2.566,2.566,0,0,0,2.559,2.559" transform="translate(-2615.115 -1495.973)" fill="#fff" fill-rule="evenodd"/>
          <path id="Path_50303" data-name="Path 50303" d="M2970.478,1399.416h46.062a2.566,2.566,0,0,0,2.559-2.559h0a2.566,2.566,0,0,0-2.559-2.559h-46.062a2.566,2.566,0,0,0-2.559,2.559h0a2.566,2.566,0,0,0,2.559,2.559" transform="translate(-2646 -1272.77)" fill="#fff" fill-rule="evenodd"/>
          <path id="Path_50304" data-name="Path 50304" d="M2970.972,1362.882h37.783a2.566,2.566,0,0,0,2.559-2.559h0a2.566,2.566,0,0,0-2.559-2.559h-37.783a2.567,2.567,0,0,0-2.559,2.559h0a2.567,2.567,0,0,0,2.559,2.559" transform="translate(-2646.343 -1247.375)" fill="#fff" fill-rule="evenodd"/>
          <path id="Path_50305" data-name="Path 50305" d="M2970.972,1326.349h114.7a2.566,2.566,0,0,0,2.559-2.559h0a2.566,2.566,0,0,0-2.559-2.559h-114.7a2.567,2.567,0,0,0-2.559,2.559h0a2.567,2.567,0,0,0,2.559,2.559" transform="translate(-2646.343 -1221.981)" fill="#6cd6ff" fill-rule="evenodd"/>
          <path id="Path_50306" data-name="Path 50306" d="M3168.452,1399.416h30.106a2.566,2.566,0,0,0,2.559-2.559h0a2.566,2.566,0,0,0-2.559-2.559h-30.106a2.566,2.566,0,0,0-2.559,2.559h0a2.566,2.566,0,0,0,2.559,2.559" transform="translate(-2783.612 -1272.77)" fill="#fff" fill-rule="evenodd"/>
          <path id="Path_50307" data-name="Path 50307" d="M3131.177,1362.882h89.489a2.567,2.567,0,0,0,2.56-2.559h0a2.567,2.567,0,0,0-2.56-2.559h-89.489a2.567,2.567,0,0,0-2.56,2.559h0a2.567,2.567,0,0,0,2.56,2.559" transform="translate(-2757.702 -1247.375)" fill="#c5579f" fill-rule="evenodd"/>
          <path id="Path_50308" data-name="Path 50308" d="M3468.868,1362.882h24.01a2.566,2.566,0,0,0,2.559-2.559h0a2.566,2.566,0,0,0-2.559-2.559h-24.01a2.566,2.566,0,0,0-2.559,2.559h0a2.566,2.566,0,0,0,2.559,2.559" transform="translate(-2992.431 -1247.375)" fill="#ffca05" fill-rule="evenodd"/>
          <path id="Path_50309" data-name="Path 50309" d="M3588.837,1362.882h24.009a2.566,2.566,0,0,0,2.559-2.559h0a2.566,2.566,0,0,0-2.559-2.559h-24.009a2.567,2.567,0,0,0-2.56,2.559h0a2.567,2.567,0,0,0,2.56,2.559" transform="translate(-3075.821 -1247.375)" fill="#fff" fill-rule="evenodd"/>
          <path id="Path_50310" data-name="Path 50310" d="M2972.941,1671.71h30.708a2.567,2.567,0,0,0,2.559-2.559h0a2.567,2.567,0,0,0-2.559-2.559h-30.708a2.566,2.566,0,0,0-2.558,2.559h0a2.566,2.566,0,0,0,2.558,2.559" transform="translate(-2647.713 -1462.041)" fill="#fff" fill-rule="evenodd"/>
          <path id="Path_50311" data-name="Path 50311" d="M2970.478,1635.176h46.062a2.566,2.566,0,0,0,2.559-2.559h0a2.567,2.567,0,0,0-2.559-2.559h-46.062a2.567,2.567,0,0,0-2.559,2.559h0a2.566,2.566,0,0,0,2.559,2.559" transform="translate(-2646 -1436.646)" fill="#fff" fill-rule="evenodd"/>
          <path id="Path_50312" data-name="Path 50312" d="M2970.972,1598.642h37.783a2.566,2.566,0,0,0,2.559-2.559h0a2.567,2.567,0,0,0-2.559-2.56h-37.783a2.567,2.567,0,0,0-2.559,2.56h0a2.567,2.567,0,0,0,2.559,2.559" transform="translate(-2646.343 -1411.252)" fill="#fff" fill-rule="evenodd"/>
          <path id="Path_50313" data-name="Path 50313" d="M2970.972,1562.108h49.567a2.566,2.566,0,0,0,2.559-2.559h0a2.567,2.567,0,0,0-2.559-2.559h-49.567a2.567,2.567,0,0,0-2.559,2.559h0a2.567,2.567,0,0,0,2.559,2.559" transform="translate(-2646.343 -1385.857)" fill="#ffca05" fill-rule="evenodd"/>
          <path id="Path_50314" data-name="Path 50314" d="M3168.452,1635.176h30.106a2.566,2.566,0,0,0,2.559-2.559h0a2.567,2.567,0,0,0-2.559-2.559h-30.106a2.567,2.567,0,0,0-2.559,2.559h0a2.566,2.566,0,0,0,2.559,2.559" transform="translate(-2783.612 -1436.646)" fill="#fff" fill-rule="evenodd"/>
          <path id="Path_50315" data-name="Path 50315" d="M3131.177,1598.642h89.489a2.567,2.567,0,0,0,2.56-2.559h0a2.567,2.567,0,0,0-2.56-2.56h-89.489a2.567,2.567,0,0,0-2.56,2.56h0a2.567,2.567,0,0,0,2.56,2.559" transform="translate(-2757.702 -1411.252)" fill="#f48120" fill-rule="evenodd"/>
          <path id="Path_50316" data-name="Path 50316" d="M3468.868,1598.642h24.01a2.566,2.566,0,0,0,2.559-2.559h0a2.567,2.567,0,0,0-2.559-2.56h-24.01a2.567,2.567,0,0,0-2.559,2.56h0a2.566,2.566,0,0,0,2.559,2.559" transform="translate(-2992.431 -1411.252)" fill="#fff" fill-rule="evenodd"/>
          <path id="Path_50317" data-name="Path 50317" d="M3090.694,1288.548h89.489a2.559,2.559,0,0,0,0-5.118h-89.489a2.559,2.559,0,1,0,0,5.118" transform="translate(-2729.562 -1195.706)" fill="#fff" fill-rule="evenodd"/>
          <path id="Path_50318" data-name="Path 50318" d="M3428.385,1288.548h24.009a2.559,2.559,0,1,0,0-5.118h-24.009a2.559,2.559,0,0,0,0,5.118" transform="translate(-2964.292 -1195.706)" fill="#fff" fill-rule="evenodd"/>
          <path id="Path_50319" data-name="Path 50319" d="M3548.354,1288.548h24.01a2.559,2.559,0,0,0,0-5.118h-24.01a2.559,2.559,0,1,0,0,5.118" transform="translate(-3047.681 -1195.706)" fill="#fff" fill-rule="evenodd"/>
          <path id="Path_50320" data-name="Path 50320" d="M3090.694,1253.989h39.136a2.559,2.559,0,0,0,0-5.118h-39.136a2.559,2.559,0,1,0,0,5.118" transform="translate(-2729.562 -1171.683)" fill="#c5579f" fill-rule="evenodd"/>
          <path id="Path_50321" data-name="Path 50321" d="M3263.984,1253.989H3325.4a2.559,2.559,0,1,0,0-5.118h-61.414a2.559,2.559,0,1,0,0,5.118" transform="translate(-2850.015 -1171.683)" fill="#eb6502" fill-rule="evenodd"/>
          <path id="Path_50322" data-name="Path 50322" d="M3516.874,1253.989h51.745a2.559,2.559,0,0,0,0-5.118h-51.745a2.559,2.559,0,0,0,0,5.118" transform="translate(-3025.801 -1171.683)" fill="#fff" fill-rule="evenodd"/>
          <path id="Path_50323" data-name="Path 50323" d="M3090.694,1525.657h89.489a2.566,2.566,0,0,0,2.559-2.559h0a2.566,2.566,0,0,0-2.559-2.559h-89.489a2.567,2.567,0,0,0-2.56,2.559h0a2.567,2.567,0,0,0,2.56,2.559" transform="translate(-2729.562 -1360.52)" fill="#fff" fill-rule="evenodd"/>
          <path id="Path_50324" data-name="Path 50324" d="M3428.385,1525.657h24.009a2.567,2.567,0,0,0,2.56-2.559h0a2.567,2.567,0,0,0-2.56-2.559h-24.009a2.566,2.566,0,0,0-2.559,2.559h0a2.566,2.566,0,0,0,2.559,2.559" transform="translate(-2964.292 -1360.52)" fill="#fff" fill-rule="evenodd"/>
          <path id="Path_50325" data-name="Path 50325" d="M3548.354,1525.657h24.01a2.566,2.566,0,0,0,2.559-2.559h0a2.566,2.566,0,0,0-2.559-2.559h-24.01a2.567,2.567,0,0,0-2.56,2.559h0a2.567,2.567,0,0,0,2.56,2.559" transform="translate(-3047.681 -1360.52)" fill="#fff" fill-rule="evenodd"/>
          <path id="Path_50326" data-name="Path 50326" d="M3090.694,1486.9h39.136a2.566,2.566,0,0,0,2.559-2.559h0a2.566,2.566,0,0,0-2.559-2.559h-39.136a2.567,2.567,0,0,0-2.56,2.559h0a2.567,2.567,0,0,0,2.56,2.559" transform="translate(-2729.562 -1333.581)" fill="#fff" fill-rule="evenodd"/>
          <path id="Path_50327" data-name="Path 50327" d="M3263.984,1486.9H3325.4a2.567,2.567,0,0,0,2.56-2.559h0a2.567,2.567,0,0,0-2.56-2.559h-61.414a2.566,2.566,0,0,0-2.56,2.559h0a2.566,2.566,0,0,0,2.56,2.559" transform="translate(-2850.015 -1333.581)" fill="#fff" fill-rule="evenodd"/>
          <path id="Path_50328" data-name="Path 50328" d="M3516.874,1486.9h51.745a2.566,2.566,0,0,0,2.559-2.559h0a2.566,2.566,0,0,0-2.559-2.559h-51.745a2.566,2.566,0,0,0-2.558,2.559h0a2.566,2.566,0,0,0,2.558,2.559" transform="translate(-3025.801 -1333.581)" fill="#fff" fill-rule="evenodd"/>
          <path id="Path_50329" data-name="Path 50329" d="M3168.56,1562.108h26.681a2.566,2.566,0,0,0,2.56-2.559h0a2.567,2.567,0,0,0-2.56-2.559H3168.56a2.567,2.567,0,0,0-2.559,2.559h0a2.566,2.566,0,0,0,2.559,2.559" transform="translate(-2783.687 -1385.857)" fill="#f48120" fill-rule="evenodd"/>
          <path id="Path_50330" data-name="Path 50330" d="M3286.67,1562.108h26.682a2.566,2.566,0,0,0,2.559-2.559h0a2.567,2.567,0,0,0-2.559-2.559H3286.67a2.567,2.567,0,0,0-2.559,2.559h0a2.566,2.566,0,0,0,2.559,2.559" transform="translate(-2865.786 -1385.857)" fill="#f48120" fill-rule="evenodd"/>
          <path id="Path_50331" data-name="Path 50331" d="M2926.046,1445.287h39.538a2.567,2.567,0,0,0,2.56-2.559h0a2.567,2.567,0,0,0-2.56-2.559h-39.538a2.566,2.566,0,0,0-2.559,2.559h0a2.566,2.566,0,0,0,2.559,2.559" transform="translate(-2615.115 -1304.655)" fill="#fff" fill-rule="evenodd"/>
          <path id="Path_50332" data-name="Path 50332" d="M3090.739,1445.287h26.681a2.567,2.567,0,0,0,2.56-2.559h0a2.567,2.567,0,0,0-2.56-2.559h-26.681a2.567,2.567,0,0,0-2.56,2.559h0a2.567,2.567,0,0,0,2.56,2.559" transform="translate(-2729.593 -1304.655)" fill="#fff" fill-rule="evenodd"/>
          <path id="Path_50333" data-name="Path 50333" d="M3217.679,1445.287h26.682a2.567,2.567,0,0,0,2.56-2.559h0a2.567,2.567,0,0,0-2.56-2.559h-26.682a2.566,2.566,0,0,0-2.559,2.559h0a2.566,2.566,0,0,0,2.559,2.559" transform="translate(-2817.83 -1304.655)" fill="#fff" fill-rule="evenodd"/>
          <path id="Path_50334" data-name="Path 50334" d="M2970.973,1288.548h25.137a2.559,2.559,0,1,0,0-5.118h-25.137a2.559,2.559,0,0,0,0,5.118" transform="translate(-2646.344 -1195.706)" fill="#fff" fill-rule="evenodd"/>
          <path id="Path_50335" data-name="Path 50335" d="M2887.193,1253.989h49.921a2.559,2.559,0,0,0,0-5.118h-49.921a2.559,2.559,0,0,0,0,5.118" transform="translate(-2588.109 -1171.683)" fill="#fff" fill-rule="evenodd"/>
          <path id="Path_50336" data-name="Path 50336" d="M2887.193,1211.224h65.744a2.566,2.566,0,0,0,2.559-2.559h0a2.566,2.566,0,0,0-2.559-2.559h-65.744a2.566,2.566,0,0,0-2.559,2.559h0a2.566,2.566,0,0,0,2.559,2.559" transform="translate(-2588.109 -1141.958)" fill="#fff" fill-rule="evenodd"/>
          <path id="Path_50337" data-name="Path 50337" d="M2798.121,1211.224h2.407a2.566,2.566,0,0,0,2.559-2.559h0a2.566,2.566,0,0,0-2.559-2.559h-2.407a2.566,2.566,0,0,0-2.559,2.559h0a2.566,2.566,0,0,0,2.559,2.559" transform="translate(-2526.195 -1141.958)" fill="#6c8bc6" fill-rule="evenodd"/>
          <path id="Path_50338" data-name="Path 50338" d="M2798.121,1253.989h2.407a2.559,2.559,0,0,0,0-5.118h-2.407a2.559,2.559,0,0,0,0,5.118" transform="translate(-2526.195 -1171.683)" fill="#6c8bc6" fill-rule="evenodd"/>
          <path id="Path_50339" data-name="Path 50339" d="M2796.621,1399.416h2.087a2.567,2.567,0,0,0,2.559-2.559h0a2.567,2.567,0,0,0-2.559-2.559h-2.087a2.566,2.566,0,0,0-2.558,2.559h0a2.566,2.566,0,0,0,2.558,2.559" transform="translate(-2525.153 -1272.77)" fill="#6c8bc6" fill-rule="evenodd"/>
          <path id="Path_50340" data-name="Path 50340" d="M2797.115,1362.882h1.937a2.566,2.566,0,0,0,2.559-2.559h0a2.566,2.566,0,0,0-2.559-2.559h-1.937a2.566,2.566,0,0,0-2.559,2.559h0a2.566,2.566,0,0,0,2.559,2.559" transform="translate(-2525.496 -1247.375)" fill="#6c8bc6" fill-rule="evenodd"/>
          <path id="Path_50341" data-name="Path 50341" d="M2797.115,1326.349h1.937a2.566,2.566,0,0,0,2.559-2.559h0a2.566,2.566,0,0,0-2.559-2.559h-1.937a2.566,2.566,0,0,0-2.559,2.559h0a2.566,2.566,0,0,0,2.559,2.559" transform="translate(-2525.496 -1221.981)" fill="#6c8bc6" fill-rule="evenodd"/>
          <path id="Path_50342" data-name="Path 50342" d="M2797.115,1288.548h1.937a2.559,2.559,0,0,0,0-5.118h-1.937a2.559,2.559,0,1,0,0,5.118" transform="translate(-2525.496 -1195.706)" fill="#6c8bc6" fill-rule="evenodd"/>
          <path id="Path_50343" data-name="Path 50343" d="M2797.592,1525.657h1.792a2.567,2.567,0,0,0,2.559-2.559h0a2.566,2.566,0,0,0-2.559-2.559h-1.792a2.566,2.566,0,0,0-2.558,2.559h0a2.566,2.566,0,0,0,2.558,2.559" transform="translate(-2525.828 -1360.52)" fill="#6c8bc6" fill-rule="evenodd"/>
          <path id="Path_50344" data-name="Path 50344" d="M2797.592,1486.9h1.792a2.566,2.566,0,0,0,2.559-2.559h0a2.566,2.566,0,0,0-2.559-2.559h-1.792a2.566,2.566,0,0,0-2.558,2.559h0a2.566,2.566,0,0,0,2.558,2.559" transform="translate(-2525.828 -1333.581)" fill="#6c8bc6" fill-rule="evenodd"/>
          <path id="Path_50345" data-name="Path 50345" d="M2797.637,1445.287h1.778a2.566,2.566,0,0,0,2.558-2.559h0a2.566,2.566,0,0,0-2.558-2.559h-1.778a2.567,2.567,0,0,0-2.56,2.559h0a2.567,2.567,0,0,0,2.56,2.559" transform="translate(-2525.858 -1304.655)" fill="#6c8bc6" fill-rule="evenodd"/>
          <path id="Path_50346" data-name="Path 50346" d="M2800.133,1671.71h1.017a2.566,2.566,0,0,0,2.559-2.559h0a2.567,2.567,0,0,0-2.559-2.559h-1.017a2.566,2.566,0,0,0-2.559,2.559h0a2.566,2.566,0,0,0,2.559,2.559" transform="translate(-2527.594 -1462.041)" fill="#6c8bc6" fill-rule="evenodd"/>
          <path id="Path_50347" data-name="Path 50347" d="M2797.592,1635.176h1.792a2.566,2.566,0,0,0,2.559-2.559h0a2.567,2.567,0,0,0-2.559-2.559h-1.792a2.566,2.566,0,0,0-2.558,2.559h0a2.565,2.565,0,0,0,2.558,2.559" transform="translate(-2525.828 -1436.646)" fill="#6c8bc6" fill-rule="evenodd"/>
          <path id="Path_50348" data-name="Path 50348" d="M2798.1,1598.642h1.635a2.566,2.566,0,0,0,2.559-2.559h0a2.567,2.567,0,0,0-2.559-2.56H2798.1a2.567,2.567,0,0,0-2.559,2.56h0a2.566,2.566,0,0,0,2.559,2.559" transform="translate(-2526.181 -1411.252)" fill="#6c8bc6" fill-rule="evenodd"/>
          <path id="Path_50349" data-name="Path 50349" d="M2798.1,1562.108h1.636a2.566,2.566,0,0,0,2.559-2.559h0a2.567,2.567,0,0,0-2.559-2.559H2798.1a2.567,2.567,0,0,0-2.559,2.559h0a2.566,2.566,0,0,0,2.559,2.559" transform="translate(-2526.181 -1385.857)" fill="#6c8bc6" fill-rule="evenodd"/>
          <path id="Path_50350" data-name="Path 50350" d="M2801.011,1866.908h.75a2.566,2.566,0,0,0,2.558-2.559h0a2.566,2.566,0,0,0-2.558-2.559h-.75a2.567,2.567,0,0,0-2.559,2.559h0a2.567,2.567,0,0,0,2.559,2.559" transform="translate(-2528.203 -1597.723)" fill="#6c8bc6" fill-rule="evenodd"/>
          <path id="Path_50351" data-name="Path 50351" d="M2801.011,1830.374h.749a2.559,2.559,0,0,0,0-5.118h-.749a2.559,2.559,0,0,0,0,5.118" transform="translate(-2528.203 -1572.329)" fill="#6c8bc6" fill-rule="evenodd"/>
          <path id="Path_50352" data-name="Path 50352" d="M2800.7,1793.84h.844a2.567,2.567,0,0,0,2.559-2.559h0a2.567,2.567,0,0,0-2.559-2.559h-.844a2.567,2.567,0,0,0-2.56,2.559h0a2.567,2.567,0,0,0,2.56,2.559" transform="translate(-2527.985 -1546.934)" fill="#6c8bc6" fill-rule="evenodd"/>
          <path id="Path_50353" data-name="Path 50353" d="M2800.133,1757.306h1.017a2.559,2.559,0,1,0,0-5.118h-1.017a2.559,2.559,0,0,0,0,5.118" transform="translate(-2527.594 -1521.54)" fill="#6c8bc6" fill-rule="evenodd"/>
          <path id="Path_50354" data-name="Path 50354" d="M2800.133,1720.526h1.017a2.567,2.567,0,0,0,2.559-2.559h0a2.567,2.567,0,0,0-2.559-2.559h-1.017a2.567,2.567,0,0,0-2.559,2.559h0a2.566,2.566,0,0,0,2.559,2.559" transform="translate(-2527.594 -1495.973)" fill="#6c8bc6" fill-rule="evenodd"/>
          <path id="Path_50355" data-name="Path 50355" d="M3300.25,1635.176h30.105a2.566,2.566,0,0,0,2.559-2.559h0a2.567,2.567,0,0,0-2.559-2.559H3300.25a2.567,2.567,0,0,0-2.56,2.559h0a2.567,2.567,0,0,0,2.56,2.559" transform="translate(-2875.224 -1436.646)" fill="#fff" fill-rule="evenodd"/>
          <path id="Path_50356" data-name="Path 50356" d="M3600.666,1598.642h24.009a2.566,2.566,0,0,0,2.559-2.559h0a2.567,2.567,0,0,0-2.559-2.56h-24.009a2.567,2.567,0,0,0-2.56,2.56h0a2.567,2.567,0,0,0,2.56,2.559" transform="translate(-3084.043 -1411.252)" fill="#fff" fill-rule="evenodd"/>
          <path id="Path_50357" data-name="Path 50357" d="M2110.76,1012.024l7.31-15.94a.734.734,0,0,1,.255-.264.636.636,0,0,1,.343-.105h2.606a.3.3,0,0,1,.256.105.231.231,0,0,1-.009.264l-7.309,15.94a.717.717,0,0,1-.6.387h-2.606a.267.267,0,0,1-.247-.115.284.284,0,0,1,0-.273m19.233-9.194v1.99a.6.6,0,0,1-.114.344.806.806,0,0,1-.272.255l-7.574,3.575a.279.279,0,0,1-.272,0,.266.266,0,0,1-.115-.246v-2.853a.6.6,0,0,1,.115-.344.8.8,0,0,1,.272-.255l3.029-1.3q.159-.07.159-.158t-.159-.176l-3.029-1.321a.656.656,0,0,1-.272-.238.6.6,0,0,1-.115-.344V998.92a.289.289,0,0,1,.115-.255.244.244,0,0,1,.272.009l7.574,3.558a.716.716,0,0,1,.387.6Zm-19.726-3.91v2.836a.6.6,0,0,1-.114.344.658.658,0,0,1-.273.238l-3.046,1.321q-.177.088-.177.176t.177.158l3.029,1.3a.765.765,0,0,1,.291.255.6.6,0,0,1,.114.344v2.853a.266.266,0,0,1-.114.246.281.281,0,0,1-.273,0l-7.591-3.575a.727.727,0,0,1-.264-.255.634.634,0,0,1-.106-.344v-1.99a.676.676,0,0,1,.106-.352.589.589,0,0,1,.264-.247l7.591-3.558a.245.245,0,0,1,.273-.009A.289.289,0,0,1,2110.267,998.92Z" transform="translate(-2044.043 -995.714)" fill="#fff"/>
          <rect id="Rectangle_27543" data-name="Rectangle 27543" width="104.895" height="234.898" transform="translate(144.606 56.525)" fill="#031542"/>
          <path id="Path_50358" data-name="Path 50358" d="M2453.847,1712.954h16.895a2.47,2.47,0,0,0,2.463-2.463h0a2.47,2.47,0,0,0-2.463-2.463h-16.895a2.47,2.47,0,0,0-2.463,2.463h0a2.47,2.47,0,0,0,2.463,2.463" transform="translate(-2286.956 -1490.844)" fill="#e8f6fd" fill-rule="evenodd"/>
          <path id="Path_50359" data-name="Path 50359" d="M2420.38,1672.949h73.529a2.471,2.471,0,0,0,2.462-2.463h0a2.47,2.47,0,0,0-2.462-2.463H2420.38a2.47,2.47,0,0,0-2.463,2.463h0a2.47,2.47,0,0,0,2.463,2.463" transform="translate(-2263.693 -1463.035)" fill="#e8f6fd" fill-rule="evenodd"/>
          <path id="Path_50360" data-name="Path 50360" d="M2420.38,1630.6h34.043a2.47,2.47,0,0,0,2.463-2.463h0a2.47,2.47,0,0,0-2.463-2.463H2420.38a2.47,2.47,0,0,0-2.463,2.463h0a2.47,2.47,0,0,0,2.463,2.463" transform="translate(-2263.693 -1433.599)" fill="#e8f6fd" fill-rule="evenodd"/>
          <path id="Path_50361" data-name="Path 50361" d="M2473.319,1588.25h56.614a2.47,2.47,0,0,0,2.463-2.463h0a2.47,2.47,0,0,0-2.463-2.463h-56.614a2.47,2.47,0,0,0-2.463,2.463h0a2.47,2.47,0,0,0,2.463,2.463" transform="translate(-2300.491 -1404.161)" fill="#e8f6fd" fill-rule="evenodd"/>
          <path id="Path_50362" data-name="Path 50362" d="M2453.847,1545.9h10.821a2.47,2.47,0,0,0,2.463-2.463h0a2.47,2.47,0,0,0-2.463-2.463h-10.821a2.47,2.47,0,0,0-2.463,2.463h0a2.47,2.47,0,0,0,2.463,2.463" transform="translate(-2286.957 -1374.724)" fill="#e8f6fd" fill-rule="evenodd"/>
          <path id="Path_50363" data-name="Path 50363" d="M2420.38,1503.55h32.307a2.47,2.47,0,0,0,2.462-2.463h0a2.47,2.47,0,0,0-2.462-2.463H2420.38a2.47,2.47,0,0,0-2.463,2.463h0a2.47,2.47,0,0,0,2.463,2.463" transform="translate(-2263.693 -1345.286)" fill="#e8f6fd" fill-rule="evenodd"/>
          <path id="Path_50364" data-name="Path 50364" d="M2453.217,1461.2h8.844a2.47,2.47,0,0,0,2.463-2.463h0a2.47,2.47,0,0,0-2.463-2.463h-8.844a2.47,2.47,0,0,0-2.463,2.463h0a2.47,2.47,0,0,0,2.463,2.463" transform="translate(-2286.518 -1315.849)" fill="#e8f6fd" fill-rule="evenodd"/>
          <path id="Path_50365" data-name="Path 50365" d="M2466.2,1418.85h59.558a2.47,2.47,0,0,0,2.462-2.463h0a2.47,2.47,0,0,0-2.462-2.463H2466.2a2.47,2.47,0,0,0-2.463,2.463h0a2.47,2.47,0,0,0,2.463,2.463" transform="translate(-2295.547 -1286.412)" fill="#e8f6fd" fill-rule="evenodd"/>
          <path id="Path_50366" data-name="Path 50366" d="M2420.38,1376.5h28.509a2.47,2.47,0,0,0,2.463-2.463h0a2.47,2.47,0,0,0-2.463-2.463H2420.38a2.47,2.47,0,0,0-2.463,2.463h0a2.47,2.47,0,0,0,2.463,2.463" transform="translate(-2263.693 -1256.974)" fill="#e8f6fd" fill-rule="evenodd"/>
          <path id="Path_50367" data-name="Path 50367" d="M2466.2,1334.151h59.558a2.47,2.47,0,0,0,2.462-2.463h0a2.47,2.47,0,0,0-2.462-2.463H2466.2a2.47,2.47,0,0,0-2.463,2.463h0a2.47,2.47,0,0,0,2.463,2.463" transform="translate(-2295.547 -1227.538)" fill="#e8f6fd" fill-rule="evenodd"/>
          <path id="Path_50368" data-name="Path 50368" d="M2449.35,1291.8H2471.2a2.471,2.471,0,0,0,2.463-2.463h0a2.47,2.47,0,0,0-2.463-2.463H2449.35a2.47,2.47,0,0,0-2.463,2.463h0a2.471,2.471,0,0,0,2.463,2.463" transform="translate(-2283.83 -1198.1)" fill="#e8f6fd" fill-rule="evenodd"/>
          <path id="Path_50369" data-name="Path 50369" d="M2420.38,1249.451h15.71a2.47,2.47,0,0,0,2.463-2.463h0a2.47,2.47,0,0,0-2.463-2.463h-15.71a2.47,2.47,0,0,0-2.463,2.463h0a2.47,2.47,0,0,0,2.463,2.463" transform="translate(-2263.693 -1168.663)" fill="#e8f6fd" fill-rule="evenodd"/>
          <path id="Path_50370" data-name="Path 50370" d="M2453.847,1750.375h16.895a2.47,2.47,0,0,0,2.463-2.463h0a2.47,2.47,0,0,0-2.463-2.463h-16.895a2.47,2.47,0,0,0-2.463,2.463h0a2.47,2.47,0,0,0,2.463,2.463" transform="translate(-2286.956 -1516.854)" fill="#e8f6fd" fill-rule="evenodd"/>
          <path id="Path_50371" data-name="Path 50371" d="M2420.381,1787.794h71.149a2.47,2.47,0,0,0,2.463-2.463h0a2.47,2.47,0,0,0-2.463-2.463h-71.149a2.47,2.47,0,0,0-2.463,2.463h0a2.47,2.47,0,0,0,2.463,2.463" transform="translate(-2263.694 -1542.865)" fill="#e8f6fd" fill-rule="evenodd"/>
          <path id="Path_50372" data-name="Path 50372" d="M2453.847,1825.213h16.895a2.47,2.47,0,0,0,2.463-2.463h0a2.47,2.47,0,0,0-2.463-2.463h-16.895a2.47,2.47,0,0,0-2.463,2.463h0a2.47,2.47,0,0,0,2.463,2.463" transform="translate(-2286.956 -1568.875)" fill="#e8f6fd" fill-rule="evenodd"/>
        </g>
      </g>
      <g id="Group_69731" data-name="Group 69731" transform="translate(79 -0.457)">
        <path id="Path_50373" data-name="Path 50373" d="M1969.1,2165.745l3.029.392-9.453,76.044a1.522,1.522,0,0,1-1.7,1.32l-.173-.022a1.365,1.365,0,0,1-1.175-1.517Z" transform="translate(-1741.103 2671.288)" fill="#7fade7" fill-rule="evenodd"/>
        <path id="Path_50374" data-name="Path 50374" d="M2169.252,2165.37h3.053v76.655a1.531,1.531,0,0,1-1.527,1.526h-.173a1.356,1.356,0,0,1-1.353-1.352Z" transform="translate(-1886.701 2671.549)" fill="#7fade7" fill-rule="evenodd"/>
        <path id="Path_50375" data-name="Path 50375" d="M2316.694,2165.37h3.054v76.655a1.532,1.532,0,0,1-1.527,1.526h-.174a1.356,1.356,0,0,1-1.353-1.352Z" transform="translate(-1989.103 2671.549)" fill="#7fade7" fill-rule="evenodd"/>
        <path id="Path_50376" data-name="Path 50376" d="M2081.54,2165.745l3.03.392-9.454,76.044a1.522,1.522,0,0,1-1.7,1.32l-.173-.022a1.366,1.366,0,0,1-1.175-1.517Z" transform="translate(-1819.194 2671.288)" fill="#7fade7" fill-rule="evenodd"/>
        <path id="Path_50377" data-name="Path 50377" d="M2226.1,1798.078c4,12.71,9.81,25.048,22.864,32.6,11.47,2.947,35.241,2.148,34.554-.676-.635-2.606-4.614-4.673-6.791-3.324-2.368,1.468-25.371-16.186-25.652-16.253-1.965-.466-7.789-28.581-19.378-33.476-1.3-1.074-8.854,14.758-5.6,21.128" transform="translate(-1925.624 2941.355)" fill="#04a1fe" fill-rule="evenodd"/>
        <path id="Path_50378" data-name="Path 50378" d="M2247.6,1855.152a38.253,38.253,0,0,0,7.548,9.451c-2.523-5.232-7.826-28-7.826-28Z" transform="translate(-1940.922 2899.889)" fill="#0c72ae" fill-rule="evenodd"/>
        <path id="Path_50379" data-name="Path 50379" d="M2155.923,2134.756h52.347a5.718,5.718,0,0,1,5.7,5.7h0a5.717,5.717,0,0,1-5.7,5.7h-52.347a5.717,5.717,0,0,1-5.7-5.7h0a5.718,5.718,0,0,1,5.7-5.7" transform="translate(-1873.483 2692.811)" fill="#b2d2ff" fill-rule="evenodd"/>
        <path id="Path_50380" data-name="Path 50380" d="M1989.981,1844.647h-53.317l13.409,88.832,53.317.049h0a3.938,3.938,0,0,0,.625-.048h0c2.2,0,3.662-2.4,3.321-4.566l-12.789-80.946c-.343-2.168-2.371-3.32-4.566-3.32Z" transform="translate(-1725.161 2894.3)" fill="#b2d2ff" fill-rule="evenodd"/>
        <path id="Path_50381" data-name="Path 50381" d="M1931.521,1847.967l13.548,85.3h59.158a5.7,5.7,0,0,1,0,11.4h-59.6c-5.689,0-6.675-5.328-7.187-8.556l-13.8-86.9c-.344-2.169,1.124-4.566,3.32-4.566h0c2.2,0,4.222,1.152,4.566,3.32" transform="translate(-1716.077 2894.3)" fill="#7fade7" fill-rule="evenodd"/>
        <path id="Path_50382" data-name="Path 50382" d="M2402.461,2362.3l-.066-11.1-9.579.277.2,11.361Z" transform="translate(-2041.972 2542.485)" fill="#f8a98e" fill-rule="evenodd"/>
        <path id="Path_50383" data-name="Path 50383" d="M2149.371,2025.937l21.323-4.044s49.45,5.406,58.6,21.539,5.544,81.216,5.544,81.216l-13.294.174c.864-5.359-13.78-67.545-13.827-67.556l-55.732-19.835Z" transform="translate(-1872.892 2771.198)" fill="#191d67" fill-rule="evenodd"/>
        <path id="Path_50384" data-name="Path 50384" d="M2149.369,2035.131l7.493,3.362c6.16.114,32.841,4.281,37.315,5.245,15.157,3.265,13.294,10.965,13.542,22.723l-11.01-1.494-44.722-18.341Z" transform="translate(-1872.891 2762.004)" fill="#000446" fill-rule="evenodd"/>
        <path id="Path_50385" data-name="Path 50385" d="M2242.748,2359.536l.914-9.653-9.686.232.093,11.053Z" transform="translate(-1931.652 2543.4)" fill="#f8a98e" fill-rule="evenodd"/>
        <path id="Path_50386" data-name="Path 50386" d="M2230.75,2376.132c2.736,4.918,7.2,9.623,3.715,13.8h-17.731c-.03-.08-.058-.167-.086-.259-.172-.573-1-.811-.446-2.906,1.028-3.89,4.048-9.868,5.085-10.175,2.057-.609,4.98,1.109,9.462-.46" transform="translate(-1919.178 2525.169)" fill="#031542" fill-rule="evenodd"/>
        <path id="Path_50387" data-name="Path 50387" d="M2235.425,2410.659v.007c.039,1.307-.1,2.46-1.323,3.245h-17.731c-.915-.531-1.155-.9-.531-3.165Z" transform="translate(-1918.816 2501.189)" fill="#0f4884" fill-rule="evenodd"/>
        <path id="Path_50388" data-name="Path 50388" d="M2238.873,2374.56h4.106a1.029,1.029,0,0,1,1.027,1.026v5.28a1.03,1.03,0,0,1-1.027,1.027h-4.106a1.03,1.03,0,0,1-1.027-1.027v-5.28a1.029,1.029,0,0,1,1.027-1.026" transform="translate(-1934.342 2526.26)" fill="#0f4884" fill-rule="evenodd"/>
        <path id="Path_50389" data-name="Path 50389" d="M2065.619,2027.476s-6.2,25.01,5.059,30.4,46.378,5.961,46.378,5.961c-7.082,26.582-1.913,43.411-2.18,66.053l11.73.06s11.823-42.278,15.3-66.248c1.753-12.093,2.119-21.709-13.2-25.009-5.152-1.11-38.683-8.878-38.683-8.878Z" transform="translate(-1813.542 2767.32)" fill="#191d67" fill-rule="evenodd"/>
        <path id="Path_50390" data-name="Path 50390" d="M2071.574,1758.609c-8.4,19.266,2.808,39.42-5.524,79.214,14.437,4.6,57.1,4.745,58.943-1.849.889-25.167-.559-49.292-1.579-74.446-14.137-9.8-36.731-12.771-51.839-2.92" transform="translate(-1815.024 2958.272)" fill="#04a1fe" fill-rule="evenodd"/>
        <path id="Path_50391" data-name="Path 50391" d="M2113.981,1875.26l-31.134-10.418-.208-12.663-3.454-4.632s-7.042,10.772-7.07,11.5,3.111,11.678,2.829,11.691,18.583,6.285,20.135,6.65,18.9-2.129,18.9-2.129" transform="translate(-1819.235 2892.286)" fill="#0c72ae" fill-rule="evenodd"/>
        <path id="Path_50392" data-name="Path 50392" d="M2057.793,1767.034c-12.446,4.293-17.61,42.7-14.823,52.327.48,6.921,28.761,6.023,48.9,8.676,2.765-2.034,5.019-4.714,2.438-8.471-12.368-4.548-34.151-8.606-34.115-9.266,1.718-13.19,4.328-31.3,3.382-40.067-.112-1.039-4.665-3.584-5.782-3.2" transform="translate(-1798.483 2948.232)" fill="#04a1fe" fill-rule="evenodd"/>
        <rect id="Rectangle_27544" data-name="Rectangle 27544" width="8.073" height="130.783" transform="translate(389.637 4784.318)" fill="#7babea"/>
        <path id="Path_50393" data-name="Path 50393" d="M2297.58,1960.681H2163.264v10.8H2297.58a5.414,5.414,0,0,0,5.4-5.4h0a5.414,5.414,0,0,0-5.4-5.4" transform="translate(-1882.541 2813.712)" fill="#9cc1f4" fill-rule="evenodd"/>
        <path id="Path_50394" data-name="Path 50394" d="M1994.184,1960.681H1917.5a5.4,5.4,0,0,0,0,10.8h34.209v129.912h8.471V1971.478h34.005a5.4,5.4,0,0,0,0-10.8" transform="translate(-1708.102 2813.712)" fill="#7babea" fill-rule="evenodd"/>
        <path id="Path_50395" data-name="Path 50395" d="M2395.841,2375.164s12.771,5.245,17.028,7.331c3.307,1.619,5.179,5.027,2.463,6.764h-33.078c-.029-.079-.057-.166-.085-.259-.491-1.635-1.777-13.312,1.664-13.052,2.135.161,7.229,1.677,12.008-.784" transform="translate(-2034.129 2525.841)" fill="#031542" fill-rule="evenodd"/>
        <path id="Path_50396" data-name="Path 50396" d="M2416.744,2410.683v.008l-.029,1.318c-.05,1.036-.416,1.359-1.3,1.919h-33.229c-.03-.079-.058-.166-.086-.258-.1-.319-.331-1.979-.447-2.9Z" transform="translate(-2034.221 2501.171)" fill="#0f4884" fill-rule="evenodd"/>
        <path id="Path_50397" data-name="Path 50397" d="M2432.077,2377.116c4.6,1.913,12.312,5.151,15.477,6.666a4.536,4.536,0,0,1-3.235,1.023s-8.981-2.8-11.536-4.615a2.07,2.07,0,0,1-.706-3.074" transform="translate(-2068.956 2524.484)" fill="#0f4884" fill-rule="evenodd"/>
        <path id="Path_50398" data-name="Path 50398" d="M2278.166,1952.957h-50.129v1.179a1.183,1.183,0,0,0,1.18,1.18h47.769a1.183,1.183,0,0,0,1.18-1.18Z" transform="translate(-1927.528 2819.076)" fill="#3d7dda" fill-rule="evenodd"/>
        <path id="Path_50399" data-name="Path 50399" d="M2350.144,1850.767H2310.67c-1.557,0-2.541,1.316-2.831,2.864l-5.422,28.965h44.742l5.422-29.363a2.326,2.326,0,0,0-2.438-2.466" transform="translate(-1979.188 2890.05)" fill="#3d7dda" fill-rule="evenodd"/>
        <path id="Path_50400" data-name="Path 50400" d="M2354.5,1850.767h-39.475c-1.557,0-2.539,1.316-2.83,2.864l-5.044,26.78h-.068l-.324,1.965a1.876,1.876,0,0,0,1.966,1.966h40.893a2.094,2.094,0,0,0,1.966-1.966l.242-1.613,5.111-27.53a2.326,2.326,0,0,0-2.437-2.466" transform="translate(-1982.188 2890.05)" fill="#71bdf8" fill-rule="evenodd"/>
        <path id="Path_50401" data-name="Path 50401" d="M2389.882,1900.015a2.088,2.088,0,1,0,1.224,2.412,1.926,1.926,0,0,0-1.224-2.412" transform="translate(-2038.371 2855.875)" fill="#edf8fd" fill-rule="evenodd"/>
        <path id="Path_50402" data-name="Path 50402" d="M2180.7,1671.868c-2.52,3.008-4.955,5.064-7.937,5.715l-1.269,5.29c.9,3.744.053,6.869-4.748,6.585-12.8-2.364-9.172-10.8-8.964-11.19l2.965-7.076c-.416-.124-3.5-2.8-4.349-3.291s-1.765-2.562-1.418-4.435,3.065-.6,3.065-.6c-2.343-5.558-5.352-10.356.742-13.423s18.365-2.8,18.365-2.8l7.607-.777c-1.468,2.215-2.183,10.592-1.571,16.073.547,4.916.893,5.888-2.49,9.927" transform="translate(-1876.739 3032.358)" fill="#f7aaac" fill-rule="evenodd"/>
        <path id="Path_50403" data-name="Path 50403" d="M2164.511,1759.738c-2.058,1.305-5.159,3.066-7.216,4.371a28.938,28.938,0,0,1-4.369-12.675c.756-1.039,3.135-3.681,4.074-4.125.85,3.574,2.507,8.664,7.511,12.429" transform="translate(-1875.362 2961.905)" fill="#fff1d8" fill-rule="evenodd"/>
        <path id="Path_50404" data-name="Path 50404" d="M2190.854,1766.523c1.242,2.058,3.648,4.1,4.89,6.154a43.864,43.864,0,0,0,3.452-13.6,18.125,18.125,0,0,1-2.005-2c-1.121,2.545-4.17,7.922-6.336,9.444" transform="translate(-1901.703 2955.119)" fill="#fff1d8" fill-rule="evenodd"/>
        <path id="Path_50405" data-name="Path 50405" d="M2182.669,1733.813c.544,4.586,2.507,8.933,7.362,10.019l1.474-2.911.541-2.259c-2.336-.169-4.5-.868-9.377-4.849" transform="translate(-1896.02 2971.278)" fill="#e16e73" fill-rule="evenodd"/>
        <path id="Path_50406" data-name="Path 50406" d="M2173.5,1638.863c-6.614,1.491-12.43-3.793-16.866-.66-2.2,1.552-2.763,4.458-2.012,9.363.132.86-1.906.379-1.934.356-.889-.727-1.671-1.154-2.357-.841-1.527.7-1.442,3.008-.611,3.958.37.425,1.1,1.1,1.1,1.1-7.477-3.512-8.929-11.448-7.349-17.13a25.131,25.131,0,0,1,1.956-5.028,5.873,5.873,0,0,1,.18-1.734,5.6,5.6,0,0,1,5.087-4.268,5.446,5.446,0,0,1,6.3-3.247,5.135,5.135,0,0,1,2.048,1.06h.278a5.685,5.685,0,0,1,8.763.873,7.739,7.739,0,0,1,6.843-1.64c4.314,1.11,6.8,5.942,5.552,10.792a9.406,9.406,0,0,1-5.328,6.4,8.991,8.991,0,0,1-1.654.641" transform="translate(-1868.398 3050.238)" fill="#1f3e7a" fill-rule="evenodd"/>
        <path id="Path_50407" data-name="Path 50407" d="M2215.044,1946.735c-.719-2.125-2.073-5.19-5.544-6.129-2.464-.667-7.294.154-17.092.63-1.205,2.655-1.226,4.04-.9,5.283Z" transform="translate(-1902.032 2827.829)" fill="#f8b9be" fill-rule="evenodd"/>
      </g>
    </g>
  </g>
</svg>
