<svg xmlns="http://www.w3.org/2000/svg" width="20.21" height="29.055" viewBox="0 0 20.21 29.055">
  <g id="smartwatch" transform="translate(-74.688)">
    <g id="Group_18192" data-name="Group 18192" transform="translate(74.688)">
      <g id="Group_18191" data-name="Group 18191" transform="translate(0)">
        <path id="Path_8787" data-name="Path 8787" d="M154.627,409.263a.633.633,0,0,0-.626-.058,10.692,10.692,0,0,1-8.929,0,.632.632,0,0,0-.893.629l.307,3.566a.632.632,0,0,0,.629.577h8.842a.632.632,0,0,0,.629-.577l.307-3.566A.635.635,0,0,0,154.627,409.263Z" transform="translate(-140.061 -384.922)" fill="#06b2ff"/>
        <path id="Path_8788" data-name="Path 8788" d="M144.421,4.714a.63.63,0,0,0,.628.058,10.692,10.692,0,0,1,8.929,0,.643.643,0,0,0,.263.057h.013A.634.634,0,0,0,154.9,4.2a.624.624,0,0,0-.043-.229L154.563.577A.632.632,0,0,0,153.934,0h-8.842a.632.632,0,0,0-.629.577l-.307,3.566A.635.635,0,0,0,144.421,4.714Z" transform="translate(-140.041)" fill="#06b2ff"/>
        <path id="Path_8789" data-name="Path 8789" d="M84.162,85.355a9.474,9.474,0,1,0,9.474,9.474A9.484,9.484,0,0,0,84.162,85.355Z" transform="translate(-74.688 -80.301)" fill="#06b2ff"/>
        <path id="Path_8790" data-name="Path 8790" d="M395.32,224.021a.632.632,0,0,0-.632.632v1.263a.632.632,0,0,0,1.263,0v-1.263A.632.632,0,0,0,395.32,224.021Z" transform="translate(-375.741 -210.757)" fill="#06b2ff"/>
      </g>
    </g>
  </g>
</svg>
