<svg xmlns="http://www.w3.org/2000/svg" width="46.883" height="51.863" viewBox="0 0 46.883 51.863">
  <g id="api" transform="translate(-24.579)">
    <path id="Path_51808" data-name="Path 51808" d="M84.557,92.6l4.953-4.953-1.958-2.735a17.288,17.288,0,0,0,2.115-5.1l3.316-.548V72.264l-3.316-.548a17.288,17.288,0,0,0-2.115-5.1l1.958-2.735-4.953-4.953-2.735,1.958a17.565,17.565,0,0,0-1.712-.928l-.649,1.374a17.489,17.489,0,0,1,2.4,1.393l2.529-1.811,3.131,3.131-1.811,2.529A16.014,16.014,0,0,1,88.4,73.046l3.066.507v4.428l-3.066.507a16.013,16.013,0,0,1-2.683,6.472l1.811,2.529-3.131,3.131-2.529-1.811a16.014,16.014,0,0,1-6.472,2.683l-.507,3.066H70.458l-.507-3.066a16,16,0,0,1-6.472-2.683l-2.529,1.811-3.13-3.131,1.811-2.529a16.013,16.013,0,0,1-2.683-6.472l-3.066-.507V73.553l3.066-.507a16,16,0,0,1,2.683-6.472L57.82,64.046l3.13-3.131,2.529,1.811a16.007,16.007,0,0,1,6.472-2.683l.507-3.066h4.428l.507,3.066a17.088,17.088,0,0,1,2.616.693l.51-1.431a17.281,17.281,0,0,0-1.8-.53l-.548-3.316H69.169l-.548,3.316a17.285,17.285,0,0,0-5.1,2.115l-2.735-1.958-4.953,4.953,1.958,2.735a17.288,17.288,0,0,0-2.115,5.1l-3.316.548V79.27l3.316.548a17.288,17.288,0,0,0,2.115,5.1l-1.958,2.735L60.787,92.6l2.735-1.958a17.284,17.284,0,0,0,5.1,2.115l.548,3.316h7.006l.548-3.316a17.288,17.288,0,0,0,5.1-2.115Z" transform="translate(-24.969 -49.839)" fill="#222872"/>
    <path id="Path_51809" data-name="Path 51809" d="M150.869,165.459a11.5,11.5,0,1,0-8.648-3.921l1.143-1a9.972,9.972,0,1,1,1,.995l-.991,1.152A11.5,11.5,0,0,0,150.869,165.459Z" transform="translate(-103.166 -128.035)" fill="#222872"/>
    <path id="Path_51810" data-name="Path 51810" d="M185.9,224.39v-7.95h-5.327v7.95h1.519v-2.835h2.288v2.835Zm-3.808-4.355v-2.076h2.288v2.075h-2.288Z" transform="translate(-140.192 -194.515)" fill="#009eff"/>
    <path id="Path_51811" data-name="Path 51811" d="M246.766,221.5h3.808v-5.06h-5.327v7.95h1.519V221.5Zm0-3.541h2.288v2.021h-2.288Z" transform="translate(-198.315 -194.515)" fill="#009eff"/>
    <path id="Path_51812" data-name="Path 51812" d="M310.153,216.994h1.519v7.894h-1.519Z" transform="translate(-256.646 -195.013)" fill="#009eff"/>
    <path id="Path_51813" data-name="Path 51813" d="M419.123,0a3.643,3.643,0,0,0-.76,7.206V18.341h-.823V19.86h2.342V7.206A3.643,3.643,0,0,0,419.123,0Zm0,5.767a2.124,2.124,0,1,1,2.123-2.123,2.126,2.126,0,0,1-2.123,2.123Z" transform="translate(-351.304)" fill="#222872"/>
    <path id="Path_51814" data-name="Path 51814" d="M29.386,7.286a3.649,3.649,0,0,0,3.549-2.822h7.8V7.556h1.519V2.944h-9.3a3.643,3.643,0,1,0-3.575,4.342Zm0-5.767a2.124,2.124,0,1,1-2.123,2.124A2.126,2.126,0,0,1,29.386,1.519Z" transform="translate(-1.046 0)" fill="#222872"/>
    <path id="Path_51815" data-name="Path 51815" d="M325.486,439.077A3.648,3.648,0,0,0,321.9,442.1h-7.764v-3.135h-1.52v4.655h9.342a3.643,3.643,0,1,0,3.53-4.544Zm0,5.766a2.124,2.124,0,1,1,2.124-2.124A2.126,2.126,0,0,1,325.486,444.843Z" transform="translate(-258.857 -394.5)" fill="#222872"/>
    <path id="Path_51816" data-name="Path 51816" d="M28.982,331.277V320.445h.306v-1.519H27.462v12.351a3.643,3.643,0,1,0,1.519,0Zm-.76,5.686a2.124,2.124,0,1,1,2.123-2.124A2.126,2.126,0,0,1,28.222,336.963Z" transform="translate(0 -286.62)" fill="#222872"/>
    <path id="Path_51817" data-name="Path 51817" d="M336.211,153.75a12.931,12.931,0,0,0-1.437-5.941l1.351-.7a14.452,14.452,0,0,1,1.606,6.637Zm-2.163-7.178a13.14,13.14,0,0,0-.858-1.15l1.166-.974a14.688,14.688,0,0,1,.958,1.284Zm-1.838-2.2a13.232,13.232,0,0,0-1.088-.937l.927-1.2a14.747,14.747,0,0,1,1.213,1.046Z" transform="translate(-275.492 -127.822)" fill="#222872"/>
  </g>
</svg>
