<svg xmlns="http://www.w3.org/2000/svg" width="31.702" height="47.552" viewBox="0 0 31.702 47.552">
  <g id="app" transform="translate(-85.333)">
    <g id="Group_55836" data-name="Group 55836" transform="translate(85.333)">
      <g id="Group_55835" data-name="Group 55835">
        <path id="Path_14985" data-name="Path 14985" d="M237.639,42.667h-1.981a.991.991,0,1,0,0,1.981h1.981a.991.991,0,0,0,0-1.981Z" transform="translate(-220.797 -38.704)" fill="#222872"/>
        <path id="Path_14986" data-name="Path 14986" d="M214.324,449.981h5.944a.991.991,0,1,0,0-1.981h-5.944a.991.991,0,1,0,0,1.981Z" transform="translate(-201.445 -406.392)" fill="#222872"/>
        <circle id="Ellipse_741" data-name="Ellipse 741" cx="0.991" cy="0.991" r="0.991" transform="translate(25.758 3.963)" fill="#222872"/>
        <path id="Path_14987" data-name="Path 14987" d="M113.072,0H89.3a3.967,3.967,0,0,0-3.963,3.963V43.59A3.967,3.967,0,0,0,89.3,47.552h23.776a3.967,3.967,0,0,0,3.963-3.963V3.963A3.967,3.967,0,0,0,113.072,0Zm1.981,43.59a1.983,1.983,0,0,1-1.981,1.981H89.3a1.983,1.983,0,0,1-1.981-1.981V39.627h27.739V43.59Zm0-5.944H87.314V3.963A1.983,1.983,0,0,1,89.3,1.981h23.776a1.983,1.983,0,0,1,1.981,1.981Z" transform="translate(-85.333)" fill="#222872"/>
        <path id="Path_14988" data-name="Path 14988" d="M156.268,128h-5.944a.99.99,0,0,0-.991.991v5.944a.99.99,0,0,0,.991.991h5.944a.99.99,0,0,0,.991-.991v-5.944A.99.99,0,0,0,156.268,128Zm-.991,5.944h-3.963v-3.963h3.963Z" transform="translate(-143.389 -116.112)" fill="#009eff"/>
        <path id="Path_14989" data-name="Path 14989" d="M284.268,128h-5.944a.99.99,0,0,0-.991.991v5.944a.99.99,0,0,0,.991.991h5.944a.99.99,0,0,0,.991-.991v-5.944A.99.99,0,0,0,284.268,128Zm-.991,5.944h-3.963v-3.963h3.963Z" transform="translate(-259.501 -116.112)" fill="#009eff"/>
        <path id="Path_14990" data-name="Path 14990" d="M156.268,256h-5.944a.99.99,0,0,0-.991.991v5.944a.99.99,0,0,0,.991.991h5.944a.99.99,0,0,0,.991-.991v-5.944A.99.99,0,0,0,156.268,256Zm-.991,5.944h-3.963v-3.963h3.963Z" transform="translate(-143.389 -232.224)" fill="#009eff"/>
        <path id="Path_14991" data-name="Path 14991" d="M284.268,256h-5.944a.99.99,0,0,0-.991.991v5.944a.99.99,0,0,0,.991.991h5.944a.99.99,0,0,0,.991-.991v-5.944A.99.99,0,0,0,284.268,256Zm-.991,5.944h-3.963v-3.963h3.963Z" transform="translate(-259.501 -232.224)" fill="#009eff"/>
      </g>
    </g>
  </g>
</svg>
