<svg xmlns="http://www.w3.org/2000/svg" width="48.838" height="49.533" viewBox="0 0 48.838 49.533">
  <g id="Account_x2C__mobile_x2C__profile_x2C__setting_x2C__ui_development_x2C__UX_x2C__UI_1_" transform="translate(-0.217 -1)">
    <g id="Group_55707" data-name="Group 55707">
      <g id="XMLID_1282_" transform="translate(2 1)">
        <g id="XMLID_1678_" transform="translate(18.162 3.302)">
          <g id="Group_55646" data-name="Group 55646">
            <g id="Group_55645" data-name="Group 55645">
              <path id="Path_14112" data-name="Path 14112" d="M18.779,4.651H13.826a.826.826,0,1,1,0-1.651h4.953a.826.826,0,1,1,0,1.651Z" transform="translate(-13 -3)" fill="#222872"/>
            </g>
          </g>
        </g>
        <g id="XMLID_1677_" transform="translate(8.255 16.511)">
          <g id="Group_55648" data-name="Group 55648">
            <g id="Group_55647" data-name="Group 55647">
              <path id="Path_14113" data-name="Path 14113" d="M29.29,44.022H11.128A4.132,4.132,0,0,1,7,39.894V28.336a.826.826,0,1,1,1.651,0V39.894a2.48,2.48,0,0,0,2.477,2.477H29.29a2.48,2.48,0,0,0,2.477-2.477V11.826a.826.826,0,1,1,1.651,0V39.894A4.132,4.132,0,0,1,29.29,44.022Z" transform="translate(-7 -11)" fill="#222872"/>
            </g>
          </g>
        </g>
        <g id="XMLID_1676_" transform="translate(8.255)">
          <g id="Group_55650" data-name="Group 55650">
            <g id="Group_55649" data-name="Group 55649">
              <path id="Path_14114" data-name="Path 14114" d="M32.592,7.6a.826.826,0,0,1-.826-.826V5.128A2.48,2.48,0,0,0,29.29,2.651H11.128A2.48,2.48,0,0,0,8.651,5.128V6.779A.826.826,0,0,1,7,6.779V5.128A4.132,4.132,0,0,1,11.128,1H29.29a4.132,4.132,0,0,1,4.128,4.128V6.779A.826.826,0,0,1,32.592,7.6Z" transform="translate(-7 -1)" fill="#222872"/>
            </g>
          </g>
        </g>
        <g id="XMLID_1669_" transform="translate(13.209 37.975)">
          <g id="Group_55652" data-name="Group 55652">
            <g id="Group_55651" data-name="Group 55651">
              <path id="Path_14115" data-name="Path 14115" d="M17.43,25.651h-6.6a.826.826,0,1,1,0-1.651h6.6a.826.826,0,1,1,0,1.651Z" transform="translate(-10 -24)" fill="#222872"/>
            </g>
          </g>
        </g>
        <g id="XMLID_1294_" transform="translate(13.209 41.277)">
          <g id="Group_55654" data-name="Group 55654">
            <g id="Group_55653" data-name="Group 55653">
              <path id="Path_14116" data-name="Path 14116" d="M22.383,27.651H10.826a.826.826,0,0,1,0-1.651H22.383a.826.826,0,0,1,0,1.651Z" transform="translate(-10 -26)" fill="#222872"/>
            </g>
          </g>
        </g>
        <g id="XMLID_1663_" transform="translate(13.209 34.673)">
          <g id="Group_55656" data-name="Group 55656">
            <g id="Group_55655" data-name="Group 55655">
              <path id="Path_14117" data-name="Path 14117" d="M25.685,23.651H10.826a.826.826,0,1,1,0-1.651h14.86a.826.826,0,0,1,0,1.651Z" transform="translate(-10 -22)" fill="#222872"/>
            </g>
          </g>
        </g>
        <g id="XMLID_1575_" transform="translate(3.302 34.508)">
          <g id="XMLID_1641_">
            <g id="Group_55664" data-name="Group 55664">
              <g id="Group_55663" data-name="Group 55663">
                <path id="Path_14121" data-name="Path 14121" d="M4.826,23.634A.759.759,0,0,1,4,22.891v-.165a.826.826,0,0,1,1.651,0,.9.9,0,0,1-.826.908Z" transform="translate(-4 -21.9)" fill="#222872"/>
              </g>
            </g>
          </g>
          <g id="XMLID_1597_" transform="translate(0 3.302)">
            <g id="Group_55666" data-name="Group 55666">
              <g id="Group_55665" data-name="Group 55665">
                <path id="Path_14122" data-name="Path 14122" d="M4.826,25.634A.759.759,0,0,1,4,24.891v-.165a.826.826,0,1,1,1.651,0,.9.9,0,0,1-.826.908Z" transform="translate(-4 -23.9)" fill="#222872"/>
              </g>
            </g>
          </g>
          <g id="XMLID_1578_" transform="translate(0 6.604)">
            <g id="Group_55668" data-name="Group 55668">
              <g id="Group_55667" data-name="Group 55667">
                <path id="Path_14123" data-name="Path 14123" d="M4.826,27.634A.759.759,0,0,1,4,26.891v-.165a.826.826,0,1,1,1.651,0,.9.9,0,0,1-.826.908Z" transform="translate(-4 -25.9)" fill="#222872"/>
              </g>
            </g>
          </g>
        </g>
        <g id="XMLID_1295_" transform="translate(34.673 19.813)">
          <g id="Group_55670" data-name="Group 55670">
            <g id="Group_55669" data-name="Group 55669">
              <path id="Path_14124" data-name="Path 14124" d="M25.212,36.115H23.826a.826.826,0,0,1,0-1.651h.722l.4-1.874a.823.823,0,0,1,.613-.627,7.911,7.911,0,0,0,2.257-.943.825.825,0,0,1,.873.008l1.635,1.045,1.012-1.02L30.3,29.432a.827.827,0,0,1-.012-.877,7.859,7.859,0,0,0,.941-2.257.828.828,0,0,1,.624-.614l1.881-.418V23.851l-1.881-.418a.828.828,0,0,1-.624-.614,7.906,7.906,0,0,0-.941-2.257.821.821,0,0,1,.01-.875l1.047-1.636-1.01-1.01-1.636,1.047a.822.822,0,0,1-.873.008,7.95,7.95,0,0,0-2.257-.943.823.823,0,0,1-.613-.627l-.4-1.874h-.722a.826.826,0,1,1,0-1.651h1.387a.825.825,0,0,1,.806.652l.441,2.036a9.554,9.554,0,0,1,1.768.74L30,15.293a.827.827,0,0,1,1.029.112l1.95,1.948a.824.824,0,0,1,.111,1.029l-1.134,1.773a9.583,9.583,0,0,1,.74,1.772l2.039.452a.826.826,0,0,1,.647.806v2.741a.825.825,0,0,1-.647.806l-2.039.452a9.522,9.522,0,0,1-.74,1.77l1.133,1.757a.822.822,0,0,1-.107,1.029L31.031,33.7a.825.825,0,0,1-1.03.114l-1.773-1.134a9.6,9.6,0,0,1-1.768.74l-.441,2.036a.825.825,0,0,1-.806.655Z" transform="translate(-23 -13)" fill="#222872"/>
            </g>
          </g>
        </g>
        <g id="XMLID_1874_" transform="translate(33.068 26.418)">
          <g id="Group_55672" data-name="Group 55672">
            <g id="Group_55671" data-name="Group 55671">
              <path id="Path_14125" data-name="Path 14125" d="M26.2,26.524a.825.825,0,0,1-.348-1.573,3.3,3.3,0,0,0-1.39-6.3,3.262,3.262,0,0,0-1.283.259.825.825,0,0,1-.644-1.519A4.891,4.891,0,0,1,24.458,17a4.954,4.954,0,0,1,2.087,9.446.822.822,0,0,1-.348.078Z" transform="translate(-22.028 -17)" fill="#222872"/>
            </g>
          </g>
        </g>
        <g id="XMLID_1894_" transform="translate(26.418 8.255)">
          <g id="Group_55674" data-name="Group 55674">
            <g id="Group_55673" data-name="Group 55673">
              <path id="Path_14126" data-name="Path 14126" d="M31.209,12.6H21.3a3.3,3.3,0,1,1,0-6.6h9.907a3.3,3.3,0,1,1,0,6.6ZM21.3,7.651a1.651,1.651,0,0,0,0,3.3h9.907a1.651,1.651,0,0,0,0-3.3Z" transform="translate(-18 -6)" fill="#222872"/>
            </g>
          </g>
        </g>
        <g id="atom" transform="translate(-25.991 8.447)">
          <path id="Path_14170" data-name="Path 14170" d="M43.235,12.009q-.307-.4-.663-.794.244-.284.464-.568c1.51-1.958,1.939-3.735,1.207-5S41.759,3.86,39.308,4.189q-.388.052-.79.131-.137-.4-.29-.773C37.287,1.26,35.963,0,34.5,0s-2.787,1.26-3.728,3.547q-.153.373-.29.773-.4-.078-.79-.131c-2.451-.329-4.2.188-4.936,1.455s-.3,3.044,1.207,5q.219.284.464.568-.356.4-.663.794c-1.51,1.958-1.939,3.735-1.207,5,.588,1.018,1.835,1.552,3.573,1.552a10.275,10.275,0,0,0,1.362-.1q.465-.062.952-.163c.1.306.211.6.327.883.941,2.287,2.265,3.547,3.728,3.547s2.787-1.26,3.728-3.547c.116-.282.225-.577.327-.883q.486.1.952.163a10.276,10.276,0,0,0,1.362.1c1.739,0,2.986-.534,3.573-1.552C45.174,15.743,44.745,13.967,43.235,12.009ZM40.678,5.422c1.218,0,2.078.309,2.412.888.438.758.033,2.042-1.109,3.523q-.163.212-.343.423A21.842,21.842,0,0,0,39.4,8.407,21.355,21.355,0,0,0,38.9,5.6a9.923,9.923,0,0,1,1.781-.18Zm-4.41,9.14c-.6.346-1.19.656-1.768.931-.579-.276-1.17-.586-1.769-.931-.661-.382-1.293-.785-1.89-1.2-.05-.637-.077-1.3-.077-1.991,0-.772.034-1.514.1-2.22.532-.365,1.091-.718,1.672-1.053.668-.386,1.326-.726,1.967-1.025.642.3,1.3.639,1.967,1.025.581.335,1.14.688,1.672,1.053.062.706.1,1.448.1,2.22,0,.69-.027,1.354-.077,1.991C37.561,13.777,36.929,14.181,36.268,14.562Zm1.687.533c-.089.567-.2,1.1-.322,1.607-.494-.144-1.009-.317-1.54-.522q.421-.224.841-.465.522-.3,1.021-.62Zm-5.049,1.085c-.531.2-1.046.378-1.54.522-.124-.5-.233-1.04-.322-1.607q.5.318,1.021.62Q32.484,15.958,32.906,16.181ZM29.449,12.3c-.422-.349-.817-.705-1.182-1.065q.554-.529,1.191-1.043-.026.583-.026,1.178Q29.432,11.834,29.449,12.3Zm1.633-4.885q.134-.8.316-1.506c.473.132.966.293,1.475.482q-.5.263-1.007.553Q31.467,7.17,31.081,7.411Zm5.045-1.024c.509-.189,1-.35,1.475-.482q.181.709.316,1.506-.386-.241-.785-.471Q36.631,6.65,36.126,6.386Zm3.415,3.8q.635.513,1.191,1.043c-.365.359-.76.715-1.182,1.065q.016-.462.016-.93Q39.567,10.772,39.541,10.189ZM34.5,1.332c.963,0,1.987,1.226,2.718,3.3a21.331,21.331,0,0,0-2.718.978,21.337,21.337,0,0,0-2.718-.978C32.513,2.558,33.536,1.332,34.5,1.332ZM25.909,6.31c.334-.579,1.195-.888,2.412-.888A9.92,9.92,0,0,1,30.1,5.6a21.35,21.35,0,0,0-.5,2.805,21.841,21.841,0,0,0-2.237,1.849q-.179-.212-.343-.423C25.876,8.352,25.472,7.068,25.909,6.31Zm2.213,10.922c-1.218,0-2.078-.309-2.412-.888-.438-.758-.033-2.042,1.109-3.523q.244-.317.524-.633a21.236,21.236,0,0,0,2.229,1.894,21.727,21.727,0,0,0,.5,2.938A10.155,10.155,0,0,1,28.123,17.233ZM34.5,21.4c-.982,0-2.026-1.274-2.76-3.421a21.736,21.736,0,0,0,2.76-1.021,21.736,21.736,0,0,0,2.76,1.021C36.526,20.126,35.482,21.4,34.5,21.4Zm8.789-5.056c-.493.853-2.127,1.12-4.365.676a21.721,21.721,0,0,0,.5-2.938,21.227,21.227,0,0,0,2.229-1.894q.279.316.524.633C43.322,14.3,43.726,15.587,43.289,16.345Z" transform="translate(0)" fill="#009eff"/>
          <circle id="Ellipse_728" data-name="Ellipse 728" cx="2.058" cy="2.058" r="2.058" transform="translate(32.442 9.308)" fill="#009eff"/>
        </g>
      </g>
    </g>
  </g>
</svg>
