<svg id="app-development" xmlns="http://www.w3.org/2000/svg" width="46.229" height="46.229" viewBox="0 0 46.229 46.229">
  <path id="Path_14160" data-name="Path 14160" d="M20.225,37.561H3.612A3.616,3.616,0,0,1,0,33.95V3.612A3.616,3.616,0,0,1,3.612,0H5.056V1.445H3.612A2.167,2.167,0,0,0,1.445,3.612V33.95a2.167,2.167,0,0,0,2.167,2.167H20.225Z" fill="#222872"/>
  <path id="Path_14161" data-name="Path 14161" d="M9,0h1.445V1.445H9Z" transform="translate(-2.499)" fill="#222872"/>
  <path id="Path_14162" data-name="Path 14162" d="M46.227,37.561V36.117a2.167,2.167,0,0,0,2.167-2.167V3.612a2.167,2.167,0,0,0-2.167-2.167H13V0H46.227a3.616,3.616,0,0,1,3.612,3.612V33.95a3.616,3.616,0,0,1-3.612,3.612Z" transform="translate(-3.61)" fill="#222872"/>
  <path id="Path_14163" data-name="Path 14163" d="M0,0H2.978V1.445H0Z" transform="translate(13.746 39.568) rotate(-75.936)" fill="#222872"/>
  <path id="Path_14164" data-name="Path 14164" d="M24.946,58.334H17.722A.722.722,0,0,1,17,57.612V56.167A2.167,2.167,0,0,1,19.167,54h5.779v1.445H19.167a.722.722,0,0,0-.722.722v.722h6.5Z" transform="translate(-4.72 -14.994)" fill="#222872"/>
  <path id="Path_14165" data-name="Path 14165" d="M1,42H20.5v1.445H1Z" transform="translate(-0.278 -11.662)" fill="#222872"/>
  <path id="Path_14166" data-name="Path 14166" d="M4,46H5.445v1.445H4Z" transform="translate(-1.111 -12.773)" fill="#222872"/>
  <path id="Path_14167" data-name="Path 14167" d="M8,46h4.334v1.445H8Z" transform="translate(-2.221 -12.773)" fill="#222872"/>
  <path id="Path_14168" data-name="Path 14168" d="M48.058,50.117H33.612A3.616,3.616,0,0,1,30,46.505V17.612A3.616,3.616,0,0,1,33.612,14H48.058a3.616,3.616,0,0,1,3.612,3.612V46.505a3.616,3.616,0,0,1-3.612,3.612ZM33.612,15.445a2.167,2.167,0,0,0-2.167,2.167V46.505a2.167,2.167,0,0,0,2.167,2.167H48.058a2.167,2.167,0,0,0,2.167-2.167V17.612a2.167,2.167,0,0,0-2.167-2.167Z" transform="translate(-8.33 -3.887)" fill="#222872"/>
  <path id="Path_14169" data-name="Path 14169" d="M44.724,22.612H37.5c-1.354,0-1.921-1.179-2.1-2.167H31V19h5.056a.722.722,0,0,1,.722.722c0,.012.04,1.445.722,1.445h7.223c.682,0,.722-1.432.722-1.445A.722.722,0,0,1,46.169,19h5.056v1.445h-4.4C46.645,21.433,46.078,22.612,44.724,22.612Z" transform="translate(-8.608 -5.276)" fill="#222872"/>
  <path id="Path_14170" data-name="Path 14170" d="M41,18h5.779v1.445H41Z" transform="translate(-11.384 -4.998)" fill="#222872"/>
  <path id="Path_14171" data-name="Path 14171" d="M41,59h5.779v1.445H41Z" transform="translate(-11.384 -16.382)" fill="#222872"/>
  <path id="Path_14172" data-name="Path 14172" d="M31,56H51.225v1.445H31Z" transform="translate(-8.608 -15.549)" fill="#222872"/>
  <path id="Path_14173" data-name="Path 14173" d="M14.113,21.336H11.223a.722.722,0,0,1-.722-.722V19.555a7.181,7.181,0,0,1-1.169-.485l-.75.75a.722.722,0,0,1-1.021,0L5.517,17.776a.722.722,0,0,1,0-1.021L6.266,16a7.181,7.181,0,0,1-.485-1.169H4.722A.722.722,0,0,1,4,14.113V11.223a.722.722,0,0,1,.722-.722H5.781a7.181,7.181,0,0,1,.485-1.169l-.75-.75a.722.722,0,0,1,0-1.021L7.56,5.517a.722.722,0,0,1,1.021,0l.75.749A7.181,7.181,0,0,1,10.5,5.781V4.722A.722.722,0,0,1,11.223,4h2.889a.722.722,0,0,1,.722.722V5.781A7.181,7.181,0,0,1,16,6.267l.75-.75a.722.722,0,0,1,1.021,0L19.819,7.56a.722.722,0,0,1,0,1.021l-.749.75a7.181,7.181,0,0,1,.485,1.169h1.059a.722.722,0,0,1,.722.722v2.889a.722.722,0,0,1-.722.722H19.555A7.181,7.181,0,0,1,19.069,16l.75.75a.722.722,0,0,1,0,1.021l-2.043,2.043a.722.722,0,0,1-1.021,0L16,19.07a7.18,7.18,0,0,1-1.169.485v1.059a.722.722,0,0,1-.722.722Zm-2.167-1.445H13.39V19a.722.722,0,0,1,.562-.7,5.719,5.719,0,0,0,1.786-.742.722.722,0,0,1,.9.1l.63.63,1.021-1.021-.63-.63a.722.722,0,0,1-.1-.9,5.719,5.719,0,0,0,.742-1.786.722.722,0,0,1,.7-.562h.888V11.946H19a.722.722,0,0,1-.7-.562A5.719,5.719,0,0,0,17.556,9.6a.722.722,0,0,1,.1-.9l.63-.63L17.265,7.05l-.63.63a.722.722,0,0,1-.9.1,5.719,5.719,0,0,0-1.786-.742.722.722,0,0,1-.562-.7V5.445H11.946v.888a.722.722,0,0,1-.562.7A5.719,5.719,0,0,0,9.6,7.78a.722.722,0,0,1-.9-.1l-.63-.63L7.05,8.071l.63.63a.722.722,0,0,1,.1.9,5.719,5.719,0,0,0-.742,1.786.722.722,0,0,1-.7.562H5.445V13.39h.888a.722.722,0,0,1,.7.562,5.719,5.719,0,0,0,.742,1.786.722.722,0,0,1-.1.9l-.63.63,1.021,1.021.63-.63a.722.722,0,0,1,.9-.1,5.719,5.719,0,0,0,1.786.742.722.722,0,0,1,.562.705Z" transform="translate(-1.111 -1.111)" fill="#009eff"/>
  <path id="Path_14174" data-name="Path 14174" d="M14.612,18.223a3.612,3.612,0,1,1,3.612-3.612,3.612,3.612,0,0,1-3.612,3.612Zm0-5.779a2.167,2.167,0,1,0,2.167,2.167A2.167,2.167,0,0,0,14.612,12.445Z" transform="translate(-3.054 -3.054)" fill="#009eff"/>
  <path id="Path_14175" data-name="Path 14175" d="M16.445,37.113H15V34.223a.722.722,0,0,1,.722-.722h1.059a7.181,7.181,0,0,1,.485-1.169l-.75-.75a.722.722,0,0,1,0-1.021l2.043-2.043a.722.722,0,0,1,1.021,0l.75.749a7.181,7.181,0,0,1,1.169-.485V27.722A.722.722,0,0,1,22.223,27h2.889v1.445H22.946v.888a.722.722,0,0,1-.562.7,5.719,5.719,0,0,0-1.786.742.722.722,0,0,1-.9-.1l-.63-.63L18.05,31.071l.63.63a.722.722,0,0,1,.1.9,5.719,5.719,0,0,0-.742,1.786.722.722,0,0,1-.7.562h-.888Z" transform="translate(-4.165 -7.497)" fill="#222872"/>
  <path id="Path_14176" data-name="Path 14176" d="M23.445,37.612H22A3.616,3.616,0,0,1,25.612,34v1.445A2.167,2.167,0,0,0,23.445,37.612Z" transform="translate(-6.109 -9.441)" fill="#222872"/>
  <path id="Path_14177" data-name="Path 14177" d="M41.946,43.891a7.946,7.946,0,1,1,7.946-7.946,7.946,7.946,0,0,1-7.946,7.946Zm0-14.447a6.5,6.5,0,1,0,6.5,6.5A6.5,6.5,0,0,0,41.946,29.445Z" transform="translate(-9.441 -7.775)" fill="#009eff"/>
  <path id="Path_14178" data-name="Path 14178" d="M41.334,42.113a.722.722,0,0,1-.511-.212l-3.612-3.612a.722.722,0,0,1,0-1.021L39.379,35.1a.722.722,0,0,1,1.021,0l.934.934,3.823-3.823a.722.722,0,0,1,1.021,0l2.167,2.167a.722.722,0,0,1,0,1.021l-6.5,6.5A.722.722,0,0,1,41.334,42.113Zm-2.59-4.334,2.59,2.59,5.48-5.48-1.146-1.146-3.823,3.823a.722.722,0,0,1-1.021,0l-.934-.934Z" transform="translate(-10.274 -8.885)" fill="#009eff"/>
  <path id="Path_14179" data-name="Path 14179" d="M57,4h1.445V5.445H57Z" transform="translate(-15.827 -1.111)" fill="#222872"/>
  <path id="Path_14180" data-name="Path 14180" d="M42,4h9.39V5.445H42Z" transform="translate(-11.662 -1.111)" fill="#222872"/>
</svg>
