<svg xmlns="http://www.w3.org/2000/svg" width="55.344" height="55.452" viewBox="0 0 55.344 55.452">
  <g id="Group_55702" data-name="Group 55702" transform="translate(-351.931 -1841.941)">
    <g id="Group_55629" data-name="Group 55629" transform="translate(-140.24 1648.897)">
      <g id="Group_55628" data-name="Group 55628" transform="translate(492.17 193.044)">
        <path id="Path_14086" data-name="Path 14086" d="M586.615,278.517c-.468-.412-.861-.75-1.24-1.1-.068-.063-.137-.211-.109-.278a13.01,13.01,0,0,1,.928-2.008,2.262,2.262,0,0,1,1.835-.913c.724-.053.984-.328.988-1.061q.008-1.621,0-3.243c0-.744-.256-1.007-.977-1.071a2.635,2.635,0,0,1-2.386-1.806q-.494-1.272-1.046-2.522a2.688,2.688,0,0,1,.373-3.025c.5-.6.481-.932-.073-1.492q-1.1-1.112-2.21-2.213c-.582-.578-.91-.595-1.534-.083a2.666,2.666,0,0,1-2.972.371c-.833-.365-1.668-.726-2.516-1.051a2.65,2.65,0,0,1-1.833-2.426c-.057-.687-.33-.951-1.035-.955q-1.646-.009-3.292,0c-.721,0-.976.268-1.038,1.009a2.592,2.592,0,0,1-1.719,2.332c-.892.367-1.786.73-2.673,1.109a2.658,2.658,0,0,1-2.922-.387c-.631-.513-.953-.5-1.533.076q-1.108,1.1-2.209,2.214c-.56.565-.578.893-.084,1.49a2.7,2.7,0,0,1,.382,3.025c-.361.815-.713,1.636-1.028,2.469a2.658,2.658,0,0,1-2.457,1.869c-.653.05-.924.334-.928,1q-.011,1.677,0,3.355c0,.691.273.953.975,1.015a2.638,2.638,0,0,1,2.387,1.806c.33.848.677,1.691,1.046,2.522a2.693,2.693,0,0,1-.373,3.025c-.494.6-.48.932.074,1.492q1.12,1.131,2.249,2.253c.531.525.891.548,1.452.081a2.691,2.691,0,0,1,3.114-.359c.788.371,1.6.693,2.416,1a2.645,2.645,0,0,1,1.834,2.425c.057.686.332.952,1.034.955q1.646.009,3.292,0c.719,0,.971-.267,1.039-1.01a2.6,2.6,0,0,1,1.725-2.331c1.3-.515,1.3-.505,2.223.538.1.108.182.224.324.4-.6.231-1.141.458-1.7.647a1.065,1.065,0,0,0-.811,1.058,2.588,2.588,0,0,1-2.593,2.483c-1.227.02-2.455.017-3.682,0a2.6,2.6,0,0,1-2.627-2.509,1.066,1.066,0,0,0-.78-1.025q-1.245-.481-2.467-1.023a1.064,1.064,0,0,0-1.234.141,2.644,2.644,0,0,1-3.8-.193q-1.192-1.178-2.365-2.374a2.592,2.592,0,0,1-.159-3.712,1.079,1.079,0,0,0,.168-1.279c-.365-.813-.709-1.637-1.025-2.471a1.057,1.057,0,0,0-1.027-.773,2.6,2.6,0,0,1-2.494-2.641q-.021-1.817,0-3.634a2.593,2.593,0,0,1,2.488-2.645,1.087,1.087,0,0,0,1.052-.82c.307-.817.645-1.624,1-2.419a1.078,1.078,0,0,0-.16-1.28,2.591,2.591,0,0,1,.149-3.712q1.193-1.217,2.4-2.415a2.633,2.633,0,0,1,3.761-.165,1.059,1.059,0,0,0,1.231.157c.83-.369,1.669-.723,2.518-1.046a1.006,1.006,0,0,0,.739-.985,2.608,2.608,0,0,1,2.662-2.534c1.209-.013,2.418-.015,3.627,0a2.591,2.591,0,0,1,2.613,2.462,1.087,1.087,0,0,0,.795,1.07c.833.313,1.653.664,2.465,1.028a1.059,1.059,0,0,0,1.232-.152,2.636,2.636,0,0,1,3.761.167q1.215,1.194,2.406,2.412a2.6,2.6,0,0,1,.144,3.715,1.078,1.078,0,0,0-.156,1.28c.359.8.7,1.6,1,2.42a1.086,1.086,0,0,0,1.054.817,2.6,2.6,0,0,1,2.485,2.649q.021,1.817,0,3.634a2.6,2.6,0,0,1-2.5,2.636,1.015,1.015,0,0,0-1.023.768C587.087,277.32,586.861,277.87,586.615,278.517Z" transform="translate(-543.487 -243.808)" fill="#222872"/>
        <path id="Path_14087" data-name="Path 14087" d="M575.625,304.292l1.516-.735c4.162,7.809,4.452,21.045-4.62,30.9a27.724,27.724,0,0,1-38.667,1.821c-.538.554-1.086,1.107-1.621,1.672-.3.32-.686.585-1.076.358a1.5,1.5,0,0,1-.636-.885c-.427-1.944-.793-3.9-1.18-5.856-.182-.918.292-1.42,1.2-1.24,1.968.387,3.932.794,5.9,1.187a.973.973,0,0,1,.874.669,1,1,0,0,1-.365,1.044c-.59.565-1.17,1.14-1.756,1.712a25.6,25.6,0,0,0,29.173,3.526,25.184,25.184,0,0,0,12.473-14.83A25.737,25.737,0,0,0,575.625,304.292ZM531.307,332.3l.652,3.27,2.58-2.615Z" transform="translate(-524.586 -287.815)" fill="#222872"/>
        <path id="Path_14088" data-name="Path 14088" d="M501.977,236.916l-1.509.737c-4.148-7.716-4.536-21.077,4.688-30.963a27.7,27.7,0,0,1,38.613-1.739c.512-.54,1.037-1.083,1.549-1.637a1.051,1.051,0,0,1,1.124-.437c.478.147.591.557.676,1,.375,1.936.767,3.869,1.151,5.8.169.851-.3,1.374-1.139,1.213q-3.064-.586-6.117-1.23a.885.885,0,0,1-.453-1.575c.6-.628,1.243-1.22,1.869-1.83a25.675,25.675,0,0,0-29.74-3.211,25.217,25.217,0,0,0-12.017,14.8A25.735,25.735,0,0,0,501.977,236.916ZM546.3,208.9l-.648-3.225-2.546,2.579Z" transform="translate(-497.664 -197.946)" fill="#222872"/>
      </g>
    </g>
    <g id="Group_55698" data-name="Group 55698" transform="translate(370.108 1860.22)">
      <g id="Group_55699" data-name="Group 55699">
        <g id="Group_55696" data-name="Group 55696">
          <g id="Group_55700" data-name="Group 55700">
            <g id="Group_55694" data-name="Group 55694">
              <g id="Group_55701" data-name="Group 55701">
                <path id="Path_14150" data-name="Path 14150" d="M4.484,0H15.3c.7,1.136,1.4,2.275,2.106,3.408.788,1.263,1.585,2.521,2.378,3.782v.2a.562.562,0,0,0-.067.143c-.181,1.172-.357,2.345-.536,3.517-.384,2.507-.775,5.014-1.148,7.523-.041.275-.155.329-.4.325-.736-.014-1.472-.005-2.209-.005h-.611l.208-2.675H13.424c-.066.8-.135,1.579-.189,2.356-.016.228-.087.325-.336.324q-3-.013-6,0c-.219,0-.31-.062-.325-.291q-.071-1.069-.182-2.134c-.01-.1-.118-.263-.188-.267-.458-.024-.918-.012-1.422-.012l.209,2.657a.682.682,0,0,1-.143.037c-.934,0-1.868,0-2.8.008-.214,0-.242-.118-.268-.288Q1.06,13.881.331,9.16c-.1-.637-.22-1.27-.331-1.9V7.19a1.685,1.685,0,0,0,.142-.173Q2.268,3.612,4.391.2A1.689,1.689,0,0,0,4.484,0M8.3,3.622c-.116-.01-.211-.025-.306-.025-.769,0-1.538.008-2.307-.006a.405.405,0,0,0-.426.27C4.754,4.9,4.231,5.923,3.727,6.96a.951.951,0,0,0-.094.5c.267,2.2.555,4.4.814,6.6.037.317.166.361.435.36q5.025-.01,10.05-.005c.117,0,.234-.012.356-.019.023-.124.047-.219.059-.316.273-2.19.55-4.379.808-6.57a1.206,1.206,0,0,0-.12-.621c-.38-.8-.849-1.571-1.165-2.4a1.228,1.228,0,0,0-1.5-.913A15.42,15.42,0,0,1,11.5,3.6l.166,1.315H8.126L8.3,3.622" fill="none" stroke="#009eff" stroke-width="1"/>
                <path id="Path_14155" data-name="Path 14155" d="M187.12,133.609c.077-.452.14-.9.236-1.332.024-.107.154-.191.235-.286.085.088.214.163.246.267a4.618,4.618,0,0,1,.005,2.722c-.033.112-.152.2-.231.3-.088-.1-.23-.191-.255-.306-.1-.447-.16-.9-.236-1.361" transform="translate(-174.78 -123.287)" fill="#009eff"/>
                <path id="Path_14156" data-name="Path 14156" d="M102.628,135.63c-.088.469-.164.933-.269,1.39-.022.1-.147.17-.225.254-.078-.084-.2-.155-.227-.253a4.6,4.6,0,0,1,0-2.786c.03-.1.15-.168.228-.252.078.083.2.155.225.252.1.457.179.921.268,1.4" transform="translate(-94.985 -125.146)" fill="#009eff"/>
              </g>
            </g>
          </g>
        </g>
      </g>
    </g>
  </g>
</svg>
