<svg xmlns="http://www.w3.org/2000/svg" width="23.195" height="27.155"  fill="#79a3ae" xmlns:v="https://vecta.io/nano"><path d="M16.688 0a6.37 6.37 0 0 0-4.126 2.234c-1.04 1.177-1.531 2.74-1.351 4.3a5.38 5.38 0 0 0 4.163-2.127A5.98 5.98 0 0 0 16.688 0zm5.721 9.111c-1.23-1.648-3.134-2.659-5.188-2.755-2.436 0-3.466 1.166-5.158 1.166-1.745 0-3.07-1.163-5.177-1.163-2.342.127-4.468 1.412-5.669 3.427-1.964 3.045-1.628 8.77 1.555 13.646 1.139 1.745 2.66 3.707 4.649 3.724 1.77.017 2.269-1.135 4.667-1.147s2.853 1.163 4.62 1.144c1.991-.015 3.595-2.189 4.734-3.934.688-1.039 1.275-2.142 1.753-3.293a5.99 5.99 0 0 1-3.832-5.158c-.169-2.317 1.019-4.522 3.046-5.657z"/></svg>