<?xml version="1.0" encoding="utf-8"?>
<!-- Generator: Adobe Illustrator 26.4.1, SVG Export Plug-In . SVG Version: 6.00 Build 0)  -->
<svg version="1.1" id="Layer_1" xmlns="http://www.w3.org/2000/svg" xmlns:xlink="http://www.w3.org/1999/xlink" x="0px" y="0px"
	 viewBox="0 0 21.18 29.47" style="enable-background:new 0 0 21.18 29.47;" xml:space="preserve">
<style type="text/css">
	.st0{fill:#B2BDCF;}
</style>
<path class="st0" d="M19.5,14.48c0,0.2-0.03,0.38-0.1,0.55c-0.07,0.17-0.18,0.33-0.35,0.5l-9.9,9.9c-0.27,0.27-0.62,0.39-1.08,0.38
	C7.62,25.78,7.26,25.64,7,25.38c-0.33-0.33-0.48-0.69-0.42-1.07s0.21-0.73,0.48-1.02l8.8-8.8l-8.8-8.8C6.78,5.41,6.63,5.05,6.6,4.6
	C6.56,4.15,6.71,3.79,7.05,3.53C7.31,3.19,7.66,3.05,8.1,3.1s0.8,0.21,1.1,0.47l9.85,9.85c0.17,0.17,0.28,0.33,0.35,0.5
	C19.46,14.09,19.5,14.28,19.5,14.48z"/>
</svg>
