<?xml version="1.0" encoding="utf-8"?>
<!-- Generator: Adobe Illustrator 23.0.0, SVG Export Plug-In . SVG Version: 6.00 Build 0)  -->
<svg version="1.1" id="Layer_1" xmlns:v="https://vecta.io/nano"
	 xmlns="http://www.w3.org/2000/svg" xmlns:xlink="http://www.w3.org/1999/xlink" x="0px" y="0px" viewBox="0 0 424.5 429"
	 style="enable-background:new 0 0 424.5 429;" xml:space="preserve">
<style type="text/css">
	.st0{fill:none;stroke:#45ACE1;stroke-width:5;stroke-miterlimit:2.6131;}
	.st1{fill:#45ACE1;}
	.st2{fill:none;stroke:#45ACE1;stroke-width:2;stroke-miterlimit:2.6131;}
	.st3{fill-rule:evenodd;clip-rule:evenodd;fill:#45ACE1;}
</style>
<g>
	<g>
		<path class="st0" d="M212.2,405.7c107,0,194.3-85.9,194.3-191.2S319.3,23.3,212.2,23.3S17.9,109.2,17.9,214.5
			S105.2,405.7,212.2,405.7z"/>
		<path class="st0" d="M212.2,344.4c72.7,0,132.1-58.4,132.1-130s-59.3-130-132.1-130s-132.1,58.4-132.1,130
			S139.5,344.4,212.2,344.4z"/>
	</g>
	<g>
		<path class="st1" d="M70.4,164.5c-0.3-0.9-0.8-1.8-1.5-2.5s-1.6-1.2-2.6-1.6c-1.2-0.4-2.3-0.5-3.4-0.3s-2.1,0.7-3,1.5
			s-1.5,1.7-1.9,2.8s-0.5,2.3-0.3,3.4s0.7,2.1,1.4,3s1.7,1.5,2.9,1.9s2.3,0.5,3.5,0.3c1.1-0.2,2.1-0.7,3-1.5
			c0.8-0.8,1.5-1.7,1.9-2.8c0.2-0.4,0.3-0.9,0.3-1.4l2.6-0.8l1.2-3.5L70.4,164.5L70.4,164.5z M67.6,167.8c-0.3,1-0.9,1.6-1.7,2
			s-1.8,0.4-2.8,0c-1.1-0.4-1.8-0.9-2.3-1.7s-0.5-1.7-0.1-2.6c0.3-1,0.9-1.6,1.7-2s1.8-0.4,2.8,0c1,0.4,1.8,0.9,2.2,1.7
			S68,166.8,67.6,167.8L67.6,167.8z M62.6,152.7l6.9,3.2c0.7,0.3,1.3,0.4,1.8,0.2s0.9-0.6,1.3-1.2s0.4-1.2,0.1-1.8s-0.7-0.9-1.3-1.3
			l-6.9-3.2l1.3-2.8l6.9,3.2c1,0.5,1.8,1.1,2.3,1.9c0.5,0.7,0.8,1.6,0.8,2.5c0,0.9-0.2,1.8-0.6,2.7s-1,1.6-1.7,2.2
			c-0.7,0.5-1.5,0.9-2.4,0.9c-0.9,0.1-1.9-0.1-2.9-0.6l-6.9-3.2L62.6,152.7L62.6,152.7L62.6,152.7z M70.5,136.8l-1.7,3.2l9.1,10
			l1.5-2.9l-1.6-1.7l2.2-4.2l2.3,0.4l1.5-2.9L70.5,136.8z M76,143.6l-3.4-3.6l4.8,0.8L76,143.6z M84.5,133.8l2.3-3.4l2,1.3l-4,5.9
			l-10.5-7.1l1.7-2.6L84.5,133.8L84.5,133.8z M81.2,120.6l-1.8,2.5l10.3,7.5l1.8-2.5C91.5,128,81.2,120.6,81.2,120.6z M88.5,111.1
			l1.9,1.6l-2.1,2.6l7.9,6.4l-1.9,2.4l-7.9-6.4l-2.1,2.6l-1.9-1.6L88.5,111.1z M98,101.1l-2.5,2.5l2,5.5l-5.5-2l-2.5,2.5l9.1,2.9
			l3,3l2.2-2.2l-3-3C100.9,110.2,98,101.1,98,101.1z M159.6,66l0.8,2.4l3.9-1.3l0.7,2.3l-3.9,1.3l0.9,2.6l4.5-1.4l0.8,2.4l-7.4,2.4
			l-3.9-12.1l7.4-2.4l0.8,2.4C164.1,64.5,159.6,66,159.6,66z M174,59.2l-8,2.1l3.3,12.3l3-0.8l-1.3-5l3.7-1l-0.6-2.3l-3.7,1
			l-0.7-2.6l5-1.3C174.6,61.6,174,59.2,174,59.2z M185,57.2l0.4,2.4l-5.1,0.8l0.4,2.6l3.8-0.6l0.4,2.4l-3.8,0.6l0.8,5.1l-3.1,0.5
			l-2-12.5L185,57.2L185,57.2z M190.1,56.3l1.5,12.6l-3.1,0.4L187,56.7C187,56.7,190.1,56.3,190.1,56.3z M192.8,62.1
			c-0.1-1.3,0.1-2.4,0.6-3.4c0.5-1,1.2-1.8,2.1-2.4c0.9-0.6,2-1,3.2-1.1c1.5-0.1,2.8,0.2,3.9,0.9s1.9,1.8,2.4,3.1l-3.4,0.2
			c-0.3-0.5-0.7-0.9-1.2-1.1s-1-0.3-1.6-0.3c-1,0.1-1.7,0.5-2.2,1.2s-0.8,1.6-0.7,2.7s0.4,2,1.1,2.6c0.6,0.6,1.4,0.9,2.4,0.8
			c0.6,0,1.1-0.2,1.6-0.5c0.5-0.3,0.8-0.8,1-1.3l3.4-0.2c-0.3,1.4-0.9,2.5-1.9,3.4s-2.3,1.3-3.8,1.5c-1.2,0.1-2.3-0.1-3.4-0.6
			c-1-0.5-1.8-1.2-2.4-2.1C193.2,64.4,192.9,63.4,192.8,62.1L192.8,62.1L192.8,62.1z M210.4,54.8l0.2,12.7l-3.1,0.1l-0.2-12.7
			C207.3,54.9,210.4,54.8,210.4,54.8z M216.1,57.3l0,2.6l4.1,0.1l0,2.4l-4.1-0.1l0,2.8l4.7,0.1l0,2.5l-7.8-0.1l0.2-12.7l7.8,0.1
			l0,2.5L216.1,57.3L216.1,57.3z M233.9,68.9l-3.1-0.4l-4.2-8.4l-1,7.8l-3.1-0.4l1.5-12.6l3.1,0.4l4.2,8.4l1-7.8l3.1,0.4
			C235.4,56.3,233.9,68.9,233.9,68.9z M236.7,63c0.2-1.2,0.6-2.3,1.3-3.2c0.7-0.9,1.6-1.5,2.6-1.9c1-0.4,2.2-0.5,3.4-0.3
			c1.5,0.2,2.7,0.8,3.6,1.8s1.5,2.1,1.6,3.6l-3.4-0.5c-0.2-0.6-0.5-1-0.9-1.4s-0.9-0.6-1.5-0.7c-0.9-0.1-1.8,0.1-2.4,0.6
			s-1.1,1.4-1.3,2.5c-0.2,1.1,0,2,0.5,2.8s1.2,1.2,2.1,1.3c0.6,0.1,1.1,0,1.6-0.2s0.9-0.5,1.3-1l3.4,0.5c-0.6,1.3-1.4,2.3-2.6,2.9
			s-2.5,0.8-4,0.6c-1.2-0.2-2.3-0.6-3.1-1.3s-1.5-1.6-1.9-2.6S236.5,64.3,236.7,63L236.7,63L236.7,63z"/>
		<path class="st1" d="M263.4,62.8l-6.4,7.1l-1.1,4.1l-3-0.8L254,69l-2-9.3l3.4,0.9l1,5.8l3.7-4.5C260.1,61.9,263.4,62.8,263.4,62.8
			z M316.5,92.3l-11.7,6.8l2.5,2.1l2-1.2l3.6,3l-0.9,2.2l2.5,2.1l4.6-12.7C319.2,94.6,316.5,92.3,316.5,92.3z M313.8,100.6l-2.4-2
			l4.2-2.6L313.8,100.6L313.8,100.6z M330.4,105l-5.8-5.8l-9,9l2.2,2.2l3.6-3.6l2.7,2.7l1.7-1.7l-2.7-2.7l1.9-1.9l3.7,3.7L330.4,105
			L330.4,105z M338.1,113.6l-1.8,1.7l-2.3-2.5l-7.6,6.8l-2.1-2.3l7.6-6.8l-2.3-2.5l1.8-1.7L338.1,113.6z M339.3,119.4l2.9,3.6
			l1.9-1.6l-4.9-6l-9.9,8l4.9,6l1.9-1.6l-2.9-3.6l2.2-1.8l2.6,3.2l1.9-1.5l-2.6-3.2C337.3,121,339.3,119.4,339.3,119.4z
			 M349.7,130.9c-0.1-0.8-0.4-1.6-1-2.4l-2.9-4.3l-10.5,7.1l1.7,2.6l4-2.7l0.4,0.6l-2.5,4.9l2,2.9l2.5-5.2c0.7,0.6,1.5,0.9,2.3,1
			c0.8,0,1.6-0.2,2.3-0.7c0.6-0.4,1.1-0.9,1.4-1.6S349.9,131.7,349.7,130.9z M346.9,131.1c-0.1,0.4-0.3,0.7-0.7,1
			c-0.4,0.3-0.8,0.4-1.2,0.3s-0.7-0.4-1.1-0.8l-1.1-1.6l2.6-1.8l1.1,1.6C346.8,130.2,347,130.7,346.9,131.1L346.9,131.1z
			 M345.7,148.6c0.4,0.8,1,1.5,1.6,1.9s1.3,0.7,2,0.8c0.7,0,1.4-0.1,2-0.4c0.7-0.4,1.1-0.8,1.4-1.4c0.2-0.5,0.4-1.1,0.4-1.7
			c0-0.6-0.1-1.3-0.2-2.1c-0.2-0.8-0.2-1.5-0.2-1.9s0.2-0.8,0.6-1c0.3-0.2,0.6-0.2,0.9-0.1s0.5,0.3,0.7,0.7c0.2,0.4,0.3,0.8,0.2,1.1
			s-0.3,0.6-0.6,0.9l1.6,3c1-0.6,1.6-1.5,1.8-2.5s0-2.2-0.7-3.5c-0.6-1.2-1.5-2-2.5-2.5s-2-0.4-3.1,0.2c-0.7,0.4-1.2,0.8-1.4,1.4
			s-0.4,1.1-0.4,1.7s0.1,1.3,0.3,2.1l0.2,1.4c0,0.3,0,0.6-0.1,0.9c-0.1,0.3-0.3,0.5-0.5,0.6c-0.3,0.2-0.6,0.2-1,0.1
			s-0.6-0.4-0.8-0.8c-0.2-0.4-0.3-0.8-0.2-1.1s0.3-0.7,0.7-0.9l-1.5-2.9c-0.7,0.4-1.2,1-1.6,1.6s-0.4,1.4-0.4,2.2
			S345.2,147.8,345.7,148.6L345.7,148.6L345.7,148.6z M361.6,152.4l-7,2.8c-0.7,0.3-1.2,0.7-1.4,1.2s-0.2,1.1,0,1.8s0.7,1.1,1.2,1.3
			s1.1,0.2,1.8-0.1l7-2.8l1.2,2.9l-7,2.8c-1.1,0.4-2,0.6-2.9,0.4s-1.7-0.5-2.4-1.1s-1.2-1.4-1.6-2.3s-0.5-1.8-0.5-2.7
			s0.4-1.7,0.9-2.4s1.4-1.3,2.4-1.7l7-2.8L361.6,152.4L361.6,152.4L361.6,152.4z M367,166.7l-1.6-4.7l-12,4.1l1,2.9l4.3-1.5l0.6,1.8
			c0.3,1,0.8,1.7,1.4,2.3s1.2,0.9,1.9,1s1.4,0.1,2.1-0.2c0.8-0.3,1.4-0.7,1.8-1.2s0.8-1.2,0.9-2S367.4,167.7,367,166.7L367,166.7z
			 M364.6,168.7c-0.2,0.4-0.5,0.6-1,0.8s-0.9,0.2-1.3,0s-0.6-0.6-0.8-1.1l-0.5-1.6l3-1l0.5,1.6C364.8,167.9,364.8,168.3,364.6,168.7
			z M370.3,178.8l-1.2-4.9l-12.3,3.1l0.7,3l4.4-1.1l0.5,1.9c0.3,1,0.6,1.8,1.2,2.4s1.1,1,1.8,1.2c0.7,0.2,1.4,0.2,2.1,0
			c0.8-0.2,1.4-0.5,1.9-1s0.9-1.1,1-1.9S370.6,179.8,370.3,178.8L370.3,178.8z M367.8,180.5c-0.2,0.3-0.5,0.6-1,0.7
			s-0.9,0.1-1.2-0.1s-0.6-0.6-0.7-1.2l-0.4-1.6l3.1-0.8l0.4,1.6C368,179.7,368,180.2,367.8,180.5z M372.9,192
			c-0.2-1.2-0.6-2.2-1.3-3.1c-0.7-0.9-1.6-1.6-2.6-2c-1.1-0.4-2.2-0.6-3.4-0.4s-2.3,0.6-3.2,1.3s-1.6,1.6-2,2.7s-0.5,2.2-0.4,3.4
			s0.6,2.2,1.3,3.1s1.6,1.6,2.6,2s2.2,0.6,3.4,0.4s2.3-0.6,3.2-1.3c0.9-0.7,1.6-1.6,2-2.6C372.9,194.3,373.1,193.2,372.9,192
			L372.9,192z M369.5,195c-0.6,0.7-1.4,1.1-2.5,1.3c-1.1,0.2-2,0-2.8-0.5s-1.2-1.3-1.3-2.3c-0.1-1,0.1-1.9,0.7-2.6s1.4-1.1,2.5-1.3
			c1.1-0.2,2.1,0,2.8,0.5s1.2,1.3,1.3,2.3C370.3,193.4,370,194.3,369.5,195L369.5,195z M374.1,206.1l-0.5-5.2L361,202l0.3,3.1
			l4.8-0.4l0.1,0.7l-4.5,3l0.3,3.5l4.8-3.4c0.4,0.9,0.9,1.6,1.6,2s1.5,0.6,2.3,0.5c0.7-0.1,1.4-0.3,2-0.7c0.6-0.4,1-1,1.3-1.7
			S374.2,207,374.1,206.1L374.1,206.1z M371.2,207.4c-0.3,0.3-0.6,0.5-1.1,0.5c-0.5,0-0.9-0.1-1.2-0.3s-0.5-0.7-0.5-1.2l-0.2-1.9
			l3.1-0.3l0.2,1.9C371.6,206.7,371.5,207.1,371.2,207.4L371.2,207.4z M374.2,223.1l-2.5,0l0.1-3.4l-10.2-0.2l0.1-3.1l10.2,0.2
			l0.1-3.4l2.5,0L374.2,223.1z M52.4,227.6l2.2-0.2l0.4,5.6l-5.1,0.4c-0.6-0.5-1.1-1.3-1.6-2.3s-0.7-2-0.8-3.1
			c-0.1-1.3,0.1-2.5,0.6-3.6c0.5-1,1.3-1.9,2.3-2.4s2.1-0.9,3.4-1c1.3-0.1,2.6,0.1,3.6,0.6c1.1,0.5,2,1.3,2.6,2.3
			c0.5,0.8,0.8,1.8,0.9,3c0.1,1.6-0.1,2.9-0.7,3.8s-1.5,1.6-2.7,1.9l-0.7-2.6c0.6-0.2,1.1-0.6,1.4-1.1s0.5-1.2,0.4-1.9
			c-0.1-1.1-0.5-2-1.3-2.6s-1.9-0.9-3.3-0.8c-1.5,0.1-2.7,0.5-3.4,1.3s-1,1.7-1,2.8c0,0.5,0.2,1.1,0.4,1.6c0.2,0.5,0.5,1,0.9,1.4
			l1.6-0.1L52.4,227.6L52.4,227.6L52.4,227.6z M54.4,234.4c1.3-0.2,2.4-0.2,3.4,0c0.7,0.2,1.4,0.5,2,0.9c0.6,0.4,1.1,0.9,1.4,1.4
			c0.5,0.7,0.8,1.6,1,2.7c0.3,1.9,0,3.5-1,4.8s-2.5,2.2-4.6,2.5c-2.1,0.4-3.8,0.1-5.1-0.8s-2.2-2.3-2.5-4.2c-0.3-1.9,0-3.5,0.9-4.8
			S52.4,234.7,54.4,234.4L54.4,234.4z M55,237c-1.4,0.3-2.5,0.8-3.1,1.6s-0.8,1.7-0.7,2.7s0.7,1.8,1.6,2.3s2,0.7,3.5,0.4
			c1.5-0.3,2.5-0.8,3.1-1.5s0.8-1.7,0.6-2.7s-0.7-1.9-1.5-2.4S56.4,236.7,55,237L55,237L55,237z M56.8,247.7
			c1.3-0.3,2.4-0.4,3.4-0.3c0.7,0.1,1.4,0.3,2,0.7c0.6,0.4,1.2,0.8,1.6,1.3c0.5,0.7,0.9,1.5,1.2,2.6c0.5,1.8,0.3,3.5-0.5,4.9
			s-2.3,2.4-4.3,2.9c-2,0.5-3.7,0.4-5.2-0.4s-2.4-2.1-2.9-3.9c-0.5-1.9-0.3-3.5,0.5-4.9S54.9,248.3,56.8,247.7L56.8,247.7
			L56.8,247.7z M57.6,250.3c-1.4,0.4-2.4,1-3,1.8c-0.6,0.9-0.7,1.8-0.4,2.8s0.9,1.7,1.8,2.2s2.1,0.5,3.5,0.1c1.4-0.4,2.4-1,3-1.8
			c0.5-0.8,0.7-1.7,0.4-2.8s-0.9-1.8-1.7-2.2S59.1,249.9,57.6,250.3L57.6,250.3L57.6,250.3z M66.7,259l-12.2,4.2l1.6,4.6
			c0.3,0.9,0.7,1.6,1,2.1c0.5,0.6,1,1.1,1.6,1.4c0.7,0.4,1.6,0.6,2.6,0.6c0.8,0,1.7-0.2,2.7-0.5c1.1-0.4,2.1-0.9,2.8-1.4
			s1.2-1.2,1.6-1.9s0.5-1.4,0.5-2.2c0-0.6-0.2-1.4-0.6-2.4L66.7,259L66.7,259L66.7,259z M65.5,262.2l0.4,1.1c0.3,1,0.5,1.7,0.6,2.1
			c0.1,0.5,0,0.9-0.2,1.3s-0.5,0.8-0.9,1.1s-1.1,0.7-2.1,1s-1.7,0.5-2.3,0.5s-1.1-0.1-1.4-0.2s-0.6-0.5-0.9-0.8
			c-0.2-0.3-0.4-0.8-0.6-1.5l-0.6-1.8L65.5,262.2L65.5,262.2L65.5,262.2z M68.8,285.8l0.3,2.6c-1.4,0.2-2.7,0.1-3.7-0.5
			s-1.8-1.5-2.3-2.7c-0.7-1.6-0.7-3.1-0.1-4.6s1.9-2.6,3.7-3.5c2-0.9,3.7-1,5.3-0.5s2.7,1.6,3.4,3.3c0.6,1.4,0.7,2.8,0.3,4.1
			c-0.3,0.8-0.8,1.5-1.6,2.2l-1.6-2.1c0.6-0.4,0.9-0.9,1.1-1.5s0.1-1.2-0.2-1.9c-0.4-0.9-1-1.5-1.9-1.7s-2-0.1-3.4,0.5
			c-1.5,0.7-2.4,1.4-2.8,2.2c-0.4,0.8-0.4,1.7,0,2.5c0.3,0.6,0.7,1.1,1.3,1.4S67.9,286,68.8,285.8L68.8,285.8L68.8,285.8z
			 M72.1,288.2c-1.8,1-2.9,2.3-3.4,3.9s-0.2,3.2,0.8,4.9c0.9,1.6,2.2,2.7,3.8,3.1s3.3,0.1,5.1-1c1.8-1.1,3-2.4,3.4-4
			s0.2-3.2-0.8-4.9c-0.5-0.9-1.1-1.6-1.8-2.2c-0.5-0.4-1.1-0.7-1.8-0.9s-1.4-0.2-2.1-0.2C74.3,287.2,73.3,287.6,72.1,288.2
			L72.1,288.2L72.1,288.2z M73.6,290.5c1.3-0.7,2.4-1,3.4-0.8s1.7,0.8,2.3,1.7s0.7,1.9,0.3,2.8s-1.1,1.8-2.4,2.5
			c-1.3,0.8-2.4,1-3.4,0.8s-1.7-0.8-2.3-1.7s-0.6-1.8-0.3-2.8S72.3,291.3,73.6,290.5L73.6,290.5L73.6,290.5z M74,303.9l10.5-7.6
			l2.3,3.2l-5.8,7.1l8.5-3.3l2.3,3.2L81.3,314l-1.4-2l8.2-6l-9.8,3.9l-1.5-2l6.7-8.1l-8.2,6L74,303.9L74,303.9L74,303.9z M83,316.1
			l1.6,1.8l7.7-6.7l-6,8.6l1.7,1.9l9.4-4.7l-7.7,6.7l1.6,1.8l9.8-8.5l-2.6-3l-8.2,4l5.1-7.6l-2.6-3L83,316.1L83,316.1L83,316.1z
			 M102.1,318l1.9,1.8l-4.9,5l-1.4,1.6c-0.3,0.4-0.4,1-0.3,1.5c0.1,0.5,0.4,1,0.9,1.5c0.5,0.5,1,0.8,1.5,0.8
			c0.4,0.1,0.9-0.1,1.3-0.3c0.4-0.3,0.9-0.8,1.6-1.5l5-5.2l1.9,1.8l-4.7,4.9c-1.1,1.1-1.9,1.9-2.4,2.2s-1.1,0.6-1.7,0.6
			s-1.2,0-1.8-0.3s-1.3-0.7-2.1-1.4c-0.9-0.9-1.5-1.6-1.7-2.3s-0.4-1.3-0.3-1.9s0.2-1.1,0.5-1.5c0.4-0.7,1.1-1.5,2.1-2.5L102.1,318
			L102.1,318L102.1,318z M102.6,336.3l1.8,1.6l5.5-6.4l-1.6,9.8l2,1.7l8.5-9.8l-1.8-1.6l-5.7,6.5l1.7-10l-1.9-1.7L102.6,336.3
			L102.6,336.3L102.6,336.3z M112.6,344.5l7.4-10.6l2.1,1.5l-7.4,10.6L112.6,344.5L112.6,344.5z M126.3,348.1l1.7,2.1
			c-1.1,1-2.2,1.5-3.3,1.6s-2.3-0.3-3.4-1c-1.4-0.9-2.3-2.2-2.6-3.8s0.1-3.2,1.2-4.9c1.2-1.8,2.6-2.9,4.1-3.3s3.1-0.1,4.7,0.9
			c1.3,0.9,2.2,2,2.5,3.3c0.2,0.8,0.1,1.7-0.2,2.7l-2.5-0.9c0.2-0.6,0.3-1.3,0.1-1.9s-0.6-1.1-1.2-1.5c-0.8-0.5-1.6-0.7-2.5-0.4
			s-1.7,1-2.6,2.3c-0.9,1.4-1.3,2.5-1.2,3.4c0.1,0.9,0.6,1.7,1.4,2.1c0.6,0.4,1.2,0.5,1.9,0.4S125.6,348.7,126.3,348.1L126.3,348.1
			L126.3,348.1z M137.8,360.4l2-13.8l-2.4-1.4l-10.8,8.7l2.4,1.4l2.4-2l4.5,2.6l-0.5,3.1L137.8,360.4L137.8,360.4L137.8,360.4z
			 M136.2,353.5l-3.1-1.8l3.9-3.3L136.2,353.5L136.2,353.5z M140.7,361.3l4.5-9.7l-3.5-1.6l0.9-2l9.3,4.3l-0.9,2l-3.5-1.6l-4.5,9.7
			L140.7,361.3L140.7,361.3z M147.9,364.6l2.4,1l4.8-12l-2.4-1L147.9,364.6L147.9,364.6z M154.3,360.4c0.4-1.2,1-2.2,1.6-2.9
			c0.5-0.5,1.1-1,1.7-1.3s1.3-0.5,2-0.6c0.9-0.1,1.8,0.1,2.8,0.4c1.8,0.6,3.1,1.7,3.8,3.2s0.7,3.2,0,5.2c-0.7,2-1.8,3.3-3.2,4.1
			s-3.1,0.8-4.9,0.2c-1.8-0.6-3.1-1.7-3.8-3.2S153.6,362.3,154.3,360.4L154.3,360.4L154.3,360.4z M156.9,361.2
			c-0.5,1.4-0.5,2.5-0.1,3.5s1.1,1.6,2.1,1.9s1.9,0.3,2.8-0.2c0.9-0.5,1.6-1.4,2-2.9c0.5-1.4,0.5-2.6,0.2-3.5s-1.1-1.5-2.1-1.9
			c-1-0.4-2-0.3-2.8,0.2S157.3,359.8,156.9,361.2L156.9,361.2z M166.1,371.2l2.4,0.5l1.9-8.2l3.2,9.4l2.6,0.6l2.9-12.6l-2.4-0.5
			l-1.9,8.4l-3.2-9.6l-2.5-0.6L166.1,371.2L166.1,371.2L166.1,371.2z M232.1,370.1c-0.3-1.3-0.3-2.4-0.1-3.4c0.2-0.7,0.4-1.4,0.8-2
			c0.4-0.6,0.9-1.1,1.4-1.5c0.7-0.5,1.6-0.8,2.6-1c1.9-0.4,3.5-0.1,4.8,0.9s2.2,2.4,2.6,4.5c0.4,2.1,0.2,3.8-0.7,5.1
			s-2.3,2.2-4.1,2.6c-1.9,0.4-3.5,0.1-4.8-0.9S232.5,372.1,232.1,370.1L232.1,370.1L232.1,370.1z M234.8,369.5
			c0.3,1.4,0.8,2.5,1.6,3.1s1.7,0.8,2.7,0.6s1.8-0.7,2.3-1.6s0.6-2,0.3-3.5c-0.3-1.5-0.8-2.5-1.6-3.1c-0.8-0.6-1.7-0.8-2.8-0.6
			c-1.1,0.2-1.8,0.7-2.3,1.6C234.6,366.8,234.5,368,234.8,369.5L234.8,369.5z M247.6,373.6l2.4-0.5l-1.9-8.2l7,7.1l2.6-0.6
			l-2.9-12.6l-2.4,0.5l1.9,8.4l-7.1-7.2l-2.5,0.6L247.6,373.6L247.6,373.6L247.6,373.6z M267.8,368l-4-10l-3.6,1.4l-0.8-2l9.5-3.9
			l0.8,2l-3.6,1.4l4,10L267.8,368L267.8,368L267.8,368z M275.5,365.1l2.4-1.1l-5.5-11.7l-2.4,1.1L275.5,365.1L275.5,365.1z
			 M280.1,363.2l-5.9-11.5l3.5-1.8l6.1,6.8l-1.9-8.9l3.5-1.8l5.9,11.5l-2.2,1.1l-4.6-9.1l2.3,10.2l-2.2,1.1l-6.9-7.9l4.6,9.1
			L280.1,363.2L280.1,363.2L280.1,363.2z M293.6,356.3l8.5-4.9l-1.1-1.9l-6.3,3.6L293,350l5.6-3.2l-1.1-1.9l-5.6,3.2l-1.4-2.5l6-3.5
			l-1.1-1.9l-8.3,4.8L293.6,356.3L293.6,356.3L293.6,356.3z M300.1,337.3l3.8-2.9c0.8-0.7,1.5-1.1,2.1-1.3c0.7-0.3,1.5-0.4,2.3-0.3
			c0.8,0.1,1.5,0.4,2.3,0.9s1.5,1.2,2.2,2.2c0.7,0.8,1.1,1.6,1.4,2.4c0.3,0.9,0.4,1.8,0.3,2.7c-0.1,0.6-0.4,1.3-0.8,1.9
			c-0.3,0.5-0.9,1-1.7,1.6l-3.9,3L300.1,337.3L300.1,337.3L300.1,337.3z M303.5,337.4l5.3,6.8l1.5-1.2c0.6-0.4,1-0.8,1.2-1.1
			c0.3-0.3,0.4-0.7,0.5-1.1s0-0.8-0.2-1.4s-0.6-1.2-1.3-2s-1.2-1.3-1.6-1.6s-0.9-0.5-1.4-0.5s-0.9,0-1.3,0.3
			c-0.3,0.2-0.9,0.6-1.8,1.2L303.5,337.4L303.5,337.4L303.5,337.4z M318.3,339.4l7.4-6.5l-1.4-1.6l-5.5,4.7l-2.3-2.7l4.9-4.3
			l-1.4-1.6l-4.9,4.3l-1.9-2.2l5.3-4.6l-1.4-1.7l-7.2,6.3L318.3,339.4L318.3,339.4L318.3,339.4z M327.5,331.4l-9.2-8.9l1.8-1.9
			l7.7,7.4l4.5-4.7l1.6,1.5L327.5,331.4L327.5,331.4L327.5,331.4z M335.1,323.5l-9.8-8.5l1.7-2l9.8,8.5L335.1,323.5L335.1,323.5z
			 M340.5,317.1l1.7-2.2l-7.3-11.6l-1.7,2.2l5.6,8.4l-9.6-3.3l-1.7,2.2L340.5,317.1L340.5,317.1L340.5,317.1z M346,310.3l-10.6-7.4
			l5.5-7.9l1.8,1.3l-4,5.7l2.4,1.6l3.7-5.3l1.8,1.3l-3.7,5.3l2.9,2l4.1-5.9l1.8,1.3L346,310.3L346,310.3L346,310.3z M352.9,300.3
			l1.3-2.3l-4.7-2.7l0.3-0.5c0.3-0.5,0.6-0.9,0.8-1.1s0.5-0.3,0.9-0.4s1.1-0.2,2.3-0.2l3.4-0.2l1.6-2.7l-3,0.1c-1.2,0-2,0.1-2.6,0.2
			s-1.1,0.3-1.6,0.7c0.4-1.1,0.5-2,0.2-2.8s-0.8-1.5-1.7-1.9c-0.7-0.4-1.3-0.6-2-0.5c-0.7,0-1.3,0.3-1.8,0.7
			c-0.5,0.4-1.1,1.2-1.8,2.4l-2.8,4.8L352.9,300.3L352.9,300.3L352.9,300.3z M347.7,294.3l-2.8-1.6l1-1.8l1-1.6
			c0.3-0.3,0.6-0.5,0.9-0.6s0.7,0,1.1,0.2c0.3,0.2,0.6,0.4,0.7,0.7c0.1,0.3,0.2,0.6,0.1,0.9c-0.1,0.3-0.4,1-1,2.1L347.7,294.3
			L347.7,294.3L347.7,294.3z M360.4,286.6l-4.9-2.5l-8.8,0.8l1.4-2.7l5.9-0.4l-3.2-5l1.4-2.7l4.5,7.7l4.8,2.5L360.4,286.6
			L360.4,286.6z"/>
	</g>
	<g>
		<g>
			<path id="B" class="st2" d="M204.5,385.2c6.2,0,11.2-5,11.2-11.2s-5-11.2-11.2-11.2s-11.2,5-11.2,11.2S198.3,385.2,204.5,385.2z"
				/>
		</g>
		<g>
			<path class="st2" d="M50.9,211.1c6.2,0,11.2-5,11.2-11.2s-5-11.2-11.2-11.2s-11.2,5-11.2,11.2S44.7,211.1,50.9,211.1z"/>
		</g>
		<g>
			<path class="st2" d="M132.4,86.2c6.2,0,11.2-5,11.2-11.2s-5-11.2-11.2-11.2s-11.2,5-11.2,11.2S126.3,86.2,132.4,86.2z"/>
		</g>
		<g>
			<path class="st2" d="M282.9,82c6.2,0,11.2-5,11.2-11.2s-5-11.2-11.2-11.2c-6.2,0-11.2,5-11.2,11.2S276.7,82,282.9,82z"/>
		</g>
		<g>
			<path class="st2" d="M369.6,263.3c6.2,0,11.2-5,11.2-11.2s-5-11.2-11.2-11.2c-6.2,0-11.2,5-11.2,11.2S363.4,263.3,369.6,263.3z"
				/>
		</g>
	</g>
	<g>
		<polygon class="st3" points="174.8,295.8 172.9,288.4 179.3,284.3 171.7,283.9 169.8,276.6 167,283.6 159.4,283.2 165.3,288 
			162.6,295.1 168.9,290.9 		"/>
		<polygon class="st3" points="255.1,295.8 253.2,288.4 259.6,284.3 252,283.9 250.1,276.6 247.3,283.6 239.7,283.2 245.6,288 
			242.8,295.1 249.2,290.9 		"/>
		<polygon class="st3" points="216.1,303.2 213.5,296.1 219.4,291.4 211.8,291.7 209.2,284.5 207.2,291.9 199.6,292.2 205.9,296.4 
			203.8,303.7 209.8,299 		"/>
	</g>
	<g>
		<polygon class="st3" points="242.1,132.8 244.1,140.1 237.6,144.2 245.2,144.7 247.1,152 249.9,144.9 257.5,145.4 251.6,140.6 
			254.4,133.5 248,137.6 		"/>
		<polygon class="st3" points="161.8,132.8 163.8,140.1 157.4,144.2 164.9,144.7 166.9,152 169.6,144.9 177.2,145.4 171.3,140.6 
			174.1,133.5 167.7,137.6 		"/>
		<polygon class="st3" points="200.8,125.4 203.5,132.5 197.5,137.2 205.1,136.9 207.7,144 209.7,136.7 217.3,136.4 211,132.2 
			213.1,124.9 207.1,129.6 		"/>
	</g>
	<path class="st1" d="M144.3,222.7l-6-0.1l-2.3-6.3l-11-0.1l-2.3,6.2l-5.9-0.1l11-27.3l5.9,0.1L144.3,222.7L144.3,222.7L144.3,222.7
		z M134.3,211.7l-3.7-10.2l-3.8,10.1L134.3,211.7z M146,213.8l5.4-0.5c0.3,1.8,0.9,3.2,1.9,4c1,0.9,2.3,1.3,4,1.3
		c1.8,0,3.1-0.3,4-1.1c0.9-0.7,1.4-1.6,1.4-2.6c0-0.6-0.2-1.2-0.5-1.7c-0.4-0.5-1-0.9-2-1.2c-0.6-0.2-2.1-0.7-4.4-1.2
		c-3-0.8-5-1.7-6.2-2.8c-1.7-1.5-2.5-3.4-2.5-5.5c0-1.4,0.4-2.7,1.2-3.9c0.8-1.2,2-2.1,3.5-2.7c1.5-0.6,3.3-0.9,5.4-0.9
		c3.4,0,6,0.8,7.7,2.3c1.7,1.5,2.6,3.6,2.7,6.1l-5.5,0.2c-0.2-1.4-0.7-2.4-1.5-3.1c-0.8-0.6-1.9-0.9-3.5-1c-1.6,0-2.9,0.3-3.8,0.9
		c-0.6,0.4-0.9,1-0.9,1.7c0,0.6,0.3,1.2,0.8,1.7c0.7,0.6,2.4,1.2,5.1,1.9c2.7,0.7,4.7,1.3,6,2c1.3,0.7,2.3,1.6,3,2.8
		c0.7,1.2,1.1,2.6,1,4.4c0,1.6-0.5,3-1.4,4.4c-0.9,1.4-2.1,2.4-3.7,3c-1.6,0.6-3.6,1-6,0.9c-3.5,0-6.1-0.9-8-2.5
		C147.4,219.2,146.3,216.8,146,213.8L146,213.8z M171.5,214l5.4-0.5c0.3,1.8,0.9,3.2,1.9,4c1,0.9,2.3,1.3,4,1.3c1.8,0,3.1-0.3,4-1.1
		s1.4-1.6,1.4-2.6c0-0.7-0.2-1.2-0.5-1.7c-0.4-0.5-1-0.9-2-1.2c-0.6-0.2-2.1-0.7-4.4-1.2c-3-0.8-5-1.7-6.2-2.8
		c-1.7-1.5-2.5-3.4-2.5-5.5c0-1.4,0.4-2.7,1.2-3.9c0.8-1.2,2-2.1,3.5-2.7c1.5-0.6,3.3-0.9,5.4-0.9c3.4,0,6,0.8,7.7,2.3
		c1.7,1.5,2.6,3.6,2.7,6.1l-5.5,0.2c-0.2-1.4-0.7-2.4-1.5-3.1c-0.8-0.6-1.9-0.9-3.5-1c-1.6,0-2.9,0.3-3.8,0.9
		c-0.6,0.4-0.9,1-0.9,1.7c0,0.6,0.3,1.2,0.8,1.7c0.7,0.6,2.4,1.2,5.1,1.9c2.7,0.7,4.7,1.3,6,2c1.3,0.7,2.3,1.6,3,2.8
		c0.7,1.2,1.1,2.6,1,4.4c0,1.6-0.5,3-1.4,4.4c-0.9,1.4-2.1,2.4-3.7,3c-1.6,0.6-3.6,1-6,0.9c-3.5,0-6.1-0.9-8-2.5
		C172.9,219.4,171.9,217.1,171.5,214L171.5,214z M198.7,195.8l5.5,0.1l-0.2,14.8l0.2,4.6c0.2,1.1,0.8,2,1.7,2.7
		c0.9,0.7,2.1,1,3.6,1.1c1.6,0,2.8-0.3,3.6-0.9c0.8-0.6,1.3-1.4,1.5-2.4c0.2-0.9,0.3-2.5,0.3-4.7l0.2-15.2l5.5,0.1l-0.2,14.4
		c0,3.3-0.2,5.6-0.5,7c-0.3,1.4-0.9,2.5-1.7,3.4c-0.8,0.9-1.9,1.7-3.3,2.2c-1.4,0.5-3.1,0.8-5.3,0.8c-2.6,0-4.6-0.4-5.9-1
		c-1.3-0.6-2.4-1.4-3.2-2.4c-0.8-1-1.3-2-1.5-3.1c-0.3-1.6-0.5-3.9-0.5-7L198.7,195.8L198.7,195.8z M226.1,223.4l0.3-27.4l11.7,0.1
		c2.9,0,5.1,0.3,6.4,0.8c1.3,0.5,2.4,1.4,3.2,2.7c0.8,1.3,1.2,2.7,1.1,4.3c0,2.1-0.6,3.8-1.9,5.1c-1.2,1.3-3,2.1-5.5,2.5
		c1.2,0.7,2.2,1.5,2.9,2.3c0.8,0.8,1.8,2.3,3.1,4.5l3.3,5.4l-6.6-0.1l-3.9-6l-2.9-4.1c-0.5-0.6-1.1-0.9-1.7-1.2
		c-0.6-0.2-1.5-0.3-2.8-0.3l-1.1,0l-0.1,11.5L226.1,223.4L226.1,223.4L226.1,223.4z M231.8,207.7l4.1,0c2.7,0,4.3-0.1,5-0.3
		c0.7-0.2,1.2-0.6,1.6-1.1c0.4-0.5,0.6-1.2,0.6-2.1c0-0.9-0.2-1.7-0.7-2.2c-0.5-0.6-1.2-0.9-2.1-1.1c-0.4-0.1-1.8-0.1-4-0.1l-4.3,0
		L231.8,207.7z M253.7,223.7l0.3-27.4l20.3,0.2l-0.1,4.6l-14.8-0.2l-0.1,6.1l13.8,0.2l0,4.6l-13.8-0.2l-0.1,7.5l15.3,0.2l-0.1,4.6
		L253.7,223.7z M279.6,196.5l10.1,0.1c2.3,0,4,0.2,5.2,0.6c1.6,0.5,3,1.4,4.1,2.6c1.1,1.2,2,2.7,2.6,4.5c0.6,1.8,0.9,3.9,0.8,6.5
		c0,2.3-0.3,4.2-0.9,5.8c-0.7,2-1.7,3.6-3,4.8c-1,0.9-2.3,1.6-3.9,2.1c-1.2,0.4-2.9,0.6-4.9,0.5l-10.4-0.1L279.6,196.5L279.6,196.5
		L279.6,196.5z M285.1,201.2l-0.2,18.2l4.1,0c1.5,0,2.7-0.1,3.4-0.2c0.9-0.2,1.6-0.6,2.2-1.1c0.6-0.5,1.1-1.4,1.5-2.6
		c0.4-1.2,0.6-2.9,0.6-5c0-2.1-0.1-3.8-0.5-4.9c-0.4-1.1-0.9-2-1.5-2.7c-0.7-0.6-1.5-1.1-2.6-1.3c-0.8-0.2-2.3-0.3-4.5-0.3
		L285.1,201.2L285.1,201.2z"/>
</g>
</svg>
