<svg id="Layer_1" data-name="Layer 1" xmlns="http://www.w3.org/2000/svg" viewBox="0 0 55 55"><defs><style>.cls-1{fill:#19c0ff;}</style></defs><path class="cls-1" d="M40.31,4.69A10.24,10.24,0,0,1,35.88,5c-.62,0-1.26-.09-1.87-.09H30.3V9.42l-.95.07c-.64,0-1.16,0-1.73,0H25.47c-2.12,0-4.25,0-6.38,0a1.87,1.87,0,0,1-2-1.37C15.55,4.56,12.9,2.68,9.16,2.6a8.26,8.26,0,0,0-8,5,8.41,8.41,0,0,0,1.48,9.67,4.79,4.79,0,0,1,1,1.81q1.77,7.35,3.48,14.71l.72,3.07c.28,1.2.55,2.39.83,3.58L9,42.15l-.38.17C2.33,45.18-.48,49.45.28,55H54.79a11.86,11.86,0,0,0-3-9.25,11.6,11.6,0,0,0-9-3.66c-4,.15-8,.12-11.85.09-2.38,0-4.75,0-7.12,0a2,2,0,0,1-2.27-1.82c-1.64-7.32-3.2-14.08-4.78-20.67-.46-1.88-.74-3.58.38-5.37a1.86,1.86,0,0,1,1.76-1.16h0c2.12,0,4.25,0,6.38,0h5v4.64h3.21c1.83,0,3.65,0,5.48,0a3.21,3.21,0,0,1,2.63,1.07c1,1.07,2.12,2.2,3.59,3.56a1.27,1.27,0,0,0,.69.29c1.85-.88,3.68-1.8,5.61-2.78l1.32-.67-1.62-3.21-.79.38c-1,.47-1.89.91-2.77,1.41a1.63,1.63,0,0,1-2.24-.37c-.78-.85-1.62-1.67-2.43-2.47l-.77-.77c-1.94-1.93-1.95-3.81,0-5.73l1-1C44,6.78,44.73,6,45.42,5.28a1.7,1.7,0,0,1,2.36-.39c.88.49,1.78.93,2.72,1.4l.75.37,1.62-3.23c-.52-.27-1-.52-1.56-.77C49.7,1.87,48.19,1.13,46.69.29A1.19,1.19,0,0,0,44.9.55c-.34.36-.68.74-1,1.13A10,10,0,0,1,40.31,4.69ZM3.85,11.31A5.19,5.19,0,0,1,5.4,7.64,5.27,5.27,0,0,1,9.11,6.19a5.17,5.17,0,0,1,3.46,8.87A5.06,5.06,0,0,1,9,16.52H8.87A5.12,5.12,0,0,1,3.85,11.31ZM43.7,45.76a6.68,6.68,0,0,1,6.36,5l.19.66H4.9L5,50.76a6.52,6.52,0,0,1,6.25-5C21.71,45.72,32.31,45.72,43.7,45.76ZM18.32,42.13H16.53l-1.07,0c-.62,0-1.23,0-1.84-.08S12.48,41,12.37,40.57Q10.68,33.37,9,26.16l-.68-3c-.12-.5-.22-1-.34-1.49l-.29-1.3L13,19.55l.12.46Zm18.87-28H34V8.6h3.15Z"/></svg>