<svg id="Layer_1" data-name="Layer 1" xmlns="http://www.w3.org/2000/svg" viewBox="0 0 74.78 57.12"><defs><style>.cls-1{fill:#fff;}</style></defs><path class="cls-1" d="M32.27,23.93c.61-2.58,1.23-5.17,1.84-7.75s1.22-5.09,1.78-7.65a1.65,1.65,0,0,1,1.78-1.46c3-.14,3-.07,3.7,2.84C42.44,14.62,43.58,19.31,45,24c.42-1.57.86-3.15,1.27-4.73.92-3.56,1.82-7.12,2.75-10.68.34-1.31,3.27-2.28,4.21-1.32a1.87,1.87,0,0,1,.08,1.52c-1.48,4.86-3,9.7-4.54,14.56-.42,1.34-.85,2.68-1.26,4-.53,1.69-.71,1.72-3.44,1.7-1.4,0-1.75-.8-2-1.94-1.12-4.81-2.3-9.59-3.54-14.72A9.93,9.93,0,0,0,38,13.58c-1.11,4.6-2.23,9.2-3.3,13.81-.25,1.06-.64,1.81-1.88,1.69s-2.87.57-3.46-1.47Q26.59,18,23.64,8.52c-.36-1.16.1-1.42,1.13-1.45,2.93-.11,3-.09,3.67,2.74,1.17,4.68,2.39,9.36,3.58,14Z"/><path class="cls-1" d="M.86,35.71c1.27.67,2.52,1.38,3.81,2A75.18,75.18,0,0,0,28.06,45a74.89,74.89,0,0,0,18.38.22,68,68,0,0,0,18.22-4.6A6.64,6.64,0,0,1,66.23,40a4.43,4.43,0,0,1,1.32.21c-.12.46-.09,1.09-.38,1.33a20.77,20.77,0,0,1-2.87,2,54.57,54.57,0,0,1-22.75,7,53.86,53.86,0,0,1-19.4-2A52.33,52.33,0,0,1,1.48,37.4a9.65,9.65,0,0,1-1-1.25Z"/><path class="cls-1" d="M16.92,16.48c0-.09.1-.14.1-.18.33-4.93-.92-7-7.14-6.16A25.66,25.66,0,0,0,6.83,11c-.64.17-1.35,1.06-1.93,0a2.39,2.39,0,0,1,.94-3,15.77,15.77,0,0,1,7.77-1.56c5.09.33,7.48,2.77,7.64,7.87.09,2.52-.08,5.05.06,7.56a14.73,14.73,0,0,0,.9,4.37c.58,1.52-.5,1.83-1.32,2.43a1.43,1.43,0,0,1-2.32-.32c-.39-.58-.76-1.17-1.08-1.67a31.24,31.24,0,0,1-4.38,2.46c-2.87,1.07-5.75.89-8-1.39a6.42,6.42,0,0,1-1.24-7.31c1.22-3,3.83-4.21,6.87-4.35A55,55,0,0,1,16.92,16.48Zm0,2.86a53.22,53.22,0,0,0-6.45.05c-2.1.27-3,2-2.69,4.31.25,1.72,1.57,2.66,3.65,2.58C15.35,26.15,17.38,23.76,16.91,19.34Z"/><path class="cls-1" d="M70,11.13a13.93,13.93,0,0,0-2.07-.58,44.9,44.9,0,0,0-5.66-.5,2.52,2.52,0,0,0-2.68,2.2,2.51,2.51,0,0,0,1.89,2.89c1.69.64,3.42,1.18,5.13,1.78,4.24,1.49,6,4.95,4.27,8.59A6.58,6.58,0,0,1,67,29a14.2,14.2,0,0,1-10.47-.44,2.25,2.25,0,0,1-1.3-1.12,8.57,8.57,0,0,1,0-2.37,10.2,10.2,0,0,1,1.94.3,13.39,13.39,0,0,0,7.27.74c1.44-.28,2.58-1,2.75-2.59s-.92-2.47-2.28-3c-1.8-.65-3.65-1.15-5.43-1.84a6.24,6.24,0,0,1-4.21-5.88A6.58,6.58,0,0,1,59.94,7a12.64,12.64,0,0,1,8.72.36C70.21,7.92,70.43,8.63,70,11.13Z"/><path class="cls-1" d="M61,37.25a5.85,5.85,0,0,1,4.54-2.48,41.65,41.65,0,0,1,6.89-.14c1.32,0,2,.78,1.89,2.3a16.38,16.38,0,0,1-3.65,9.38,12.07,12.07,0,0,1-1.51,1.33l-.35-.24c.54-1.58,1.14-3.14,1.6-4.74a24.77,24.77,0,0,0,.7-3.53,1.55,1.55,0,0,0-1.51-2C68,37,66.3,37,64.65,37,63.43,37,62.22,37.16,61,37.25Z"/></svg>