<svg xmlns="http://www.w3.org/2000/svg" xmlns:xlink="http://www.w3.org/1999/xlink" width="51.499" height="51.5" viewBox="0 0 51.499 51.5">
  <defs>
    <clipPath id="clip-path">
      <path id="path2589" d="M0-682.665H51.5v51.5H0Z" transform="translate(0 682.665)" fill="none" stroke="#009eff" stroke-width="1.7"/>
    </clipPath>
  </defs>
  <g id="g2583" transform="translate(0 682.665)">
    <g id="g2585" transform="translate(0 -682.665)">
      <g id="g2587" clip-path="url(#clip-path)">
        <g id="g2597" transform="translate(25.55 8.342)">
          <path id="path2599" d="M-26.832-92.194v11.32a.4.4,0,0,0,.4.4h3.752a.4.4,0,0,0,.4-.4v-11.32a.4.4,0,0,1,.4-.4h1.384a.4.4,0,0,0,.338-.62l-4.064-6.315a.4.4,0,0,0-.677,0l-4.064,6.315a.4.4,0,0,0,.338.62h1.384A.4.4,0,0,1-26.832-92.194Z" transform="translate(29.021 99.716)" fill="none" stroke="#009eff" stroke-linecap="round" stroke-linejoin="round" stroke-width="1.7"/>
        </g>
        <g id="g2601" transform="translate(12.873 31.846)">
          <path id="path2603" d="M-315.632,0V4.232a.4.4,0,0,1-.4.4h-2.532a.4.4,0,0,0-.383.279,9.9,9.9,0,0,1-.694,1.673.4.4,0,0,0,.074.469l1.791,1.79a.4.4,0,0,1,0,.569l-3.25,3.25a.4.4,0,0,1-.569,0l-1.791-1.791a.4.4,0,0,0-.468-.073,9.9,9.9,0,0,1-1.673.694.4.4,0,0,0-.279.383v2.532a.4.4,0,0,1-.4.4h-4.6a.4.4,0,0,1-.4-.4V11.876a.4.4,0,0,0-.279-.383,9.9,9.9,0,0,1-1.673-.694.4.4,0,0,0-.468.073l-1.791,1.791a.4.4,0,0,1-.569,0l-3.25-3.25a.4.4,0,0,1,0-.569l1.791-1.79a.4.4,0,0,0,.073-.469,9.906,9.906,0,0,1-.694-1.673.4.4,0,0,0-.383-.279h-2.532a.4.4,0,0,1-.4-.4V0" transform="translate(341.386)" fill="none" stroke="#222872" stroke-linecap="round" stroke-linejoin="round" stroke-width="1.7"/>
        </g>
        <g id="g2605" transform="translate(20.213 31.846)">
          <path id="path2607" d="M-131.471,0a5.523,5.523,0,0,1,.347,1.933,5.537,5.537,0,0,1-5.537,5.537A5.537,5.537,0,0,1-142.2,1.933,5.523,5.523,0,0,1-141.851,0" transform="translate(142.198 0)" fill="none" stroke="#222872" stroke-linecap="round" stroke-linejoin="round" stroke-width="1.7"/>
        </g>
        <g id="g2609" transform="translate(0.784 14.542)">
          <path id="path2611" d="M-25.415,0a10.841,10.841,0,0,0-2.073,6.261A10.923,10.923,0,0,0-16.565,17.3H14.066a8.419,8.419,0,0,0,5.11-1.723" transform="translate(27.489)" fill="none" stroke="#222872" stroke-linecap="round" stroke-linejoin="round" stroke-width="1.7"/>
        </g>
        <g id="g2613" transform="translate(5.353 4.843)">
          <path id="path2615" d="M0-88.351a10.839,10.839,0,0,1,5.964-2.044c.132-.005.263-.007.393-.007a10.865,10.865,0,0,1,3.926.731.8.8,0,0,0,.94-.277A13.481,13.481,0,0,1,22.18-95.56,13.462,13.462,0,0,1,32.2-91.106" transform="translate(0 95.56)" fill="none" stroke="#222872" stroke-linecap="round" stroke-linejoin="round" stroke-width="1.7"/>
        </g>
        <g id="g2617" transform="translate(42.11 15.301)">
          <path id="path2619" d="M0,0C5.812,0,8.639,3.738,8.6,8.335a8.122,8.122,0,0,1-.976,3.811" fill="none" stroke="#222872" stroke-linecap="round" stroke-linejoin="round" stroke-width="1.7"/>
        </g>
        <g id="g2593" transform="translate(35.365 8.342)">
          <path id="path2595" d="M-82.673-143.667v-11.32a.4.4,0,0,0-.4-.4h-3.752a.4.4,0,0,0-.4.4v11.32a.4.4,0,0,1-.4.4h-1.384a.4.4,0,0,0-.338.62l4.064,6.315a.4.4,0,0,0,.677,0l4.064-6.315a.4.4,0,0,0-.338-.62h-1.384A.4.4,0,0,1-82.673-143.667Z" transform="translate(89.419 155.389)" fill="none" stroke="#009eff" stroke-linecap="round" stroke-linejoin="round" stroke-width="1.7"/>
        </g>
      </g>
    </g>
  </g>
</svg>
