<svg xmlns="http://www.w3.org/2000/svg" width="34.149" height="55.776" viewBox="0 0 34.149 55.776">
  <g id="Group_56014" data-name="Group 56014" transform="translate(-361.926 -2373.111)">
    <g id="XMLID_41_" transform="translate(361.926 2373.111)">
      <path id="XMLID_42_" d="M128.805,65.776H105.344A5.35,5.35,0,0,1,100,60.433V15.344A5.35,5.35,0,0,1,105.344,10h23.462a5.35,5.35,0,0,1,5.343,5.344V60.433A5.35,5.35,0,0,1,128.805,65.776Zm-23.462-53.5a3.07,3.07,0,0,0-3.067,3.067V60.433a3.07,3.07,0,0,0,3.067,3.067h23.462a3.07,3.07,0,0,0,3.067-3.067V15.344a3.07,3.07,0,0,0-3.067-3.067Z" transform="translate(-100 -10)" fill="#222872"/>
    </g>
    <g id="XMLID_39_" transform="translate(361.926 2379.941)">
      <path id="XMLID_40_" d="M133.01,72.277H101.138a1.138,1.138,0,1,1,0-2.277H133.01a1.138,1.138,0,0,1,0,2.277Z" transform="translate(-100 -70)" fill="#222872"/>
    </g>
    <g id="XMLID_37_" transform="translate(361.926 2419.781)">
      <path id="XMLID_38_" d="M133.01,422.277H101.138a1.138,1.138,0,1,1,0-2.277H133.01a1.138,1.138,0,0,1,0,2.277Z" transform="translate(-100 -420)" fill="#222872"/>
    </g>
    <g id="XMLID_35_" transform="translate(366.479 2385.633)">
      <path id="XMLID_36_" d="M143.415,126.829a1.134,1.134,0,0,1-.8-.333l-2.277-2.277a1.138,1.138,0,0,1,0-1.61l2.277-2.277a1.138,1.138,0,0,1,1.61,1.61l-1.472,1.472,1.472,1.472a1.138,1.138,0,0,1-.8,1.943Z" transform="translate(-140 -119.999)" fill="#009eff"/>
    </g>
    <g id="XMLID_33_" transform="translate(379 2385.633)">
      <path id="XMLID_34_" d="M251.138,126.829a1.138,1.138,0,0,1-.8-1.943l1.472-1.472-1.472-1.472a1.138,1.138,0,1,1,1.61-1.61l2.277,2.277a1.138,1.138,0,0,1,0,1.61l-2.277,2.277A1.134,1.134,0,0,1,251.138,126.829Z" transform="translate(-249.999 -119.999)" fill="#009eff"/>
    </g>
    <g id="XMLID_31_" transform="translate(372.17 2384.494)">
      <path id="XMLID_32_" d="M191.136,119.1a1.139,1.139,0,0,1-1.017-1.648l3.415-6.83a1.138,1.138,0,1,1,2.036,1.018l-3.415,6.83A1.139,1.139,0,0,1,191.136,119.1Z" transform="translate(-189.998 -109.997)" fill="#009eff"/>
    </g>
    <g id="XMLID_29_" transform="translate(367.617 2398.153)">
      <path id="XMLID_30_" d="M164.8,232.277H151.138a1.138,1.138,0,1,1,0-2.277H164.8a1.138,1.138,0,0,1,0,2.277Z" transform="translate(-150 -230)" fill="#009eff"/>
    </g>
    <g id="XMLID_27_" transform="translate(367.617 2402.707)">
      <path id="XMLID_28_" d="M164.8,272.277H151.138a1.138,1.138,0,1,1,0-2.277H164.8a1.138,1.138,0,1,1,0,2.277Z" transform="translate(-150 -270)" fill="#009eff"/>
    </g>
    <g id="XMLID_25_" transform="translate(367.617 2407.26)">
      <path id="XMLID_26_" d="M171.627,312.277H151.138a1.138,1.138,0,1,1,0-2.277h20.489a1.138,1.138,0,1,1,0,2.277Z" transform="translate(-150 -310)" fill="#009eff"/>
    </g>
    <g id="XMLID_23_" transform="translate(367.617 2411.813)">
      <path id="XMLID_24_" d="M171.627,352.277H151.138a1.138,1.138,0,1,1,0-2.277h20.489a1.138,1.138,0,1,1,0,2.277Z" transform="translate(-150 -350)" fill="#009eff"/>
    </g>
  </g>
</svg>
