<svg xmlns="http://www.w3.org/2000/svg" width="46.277" height="46.277" viewBox="0 0 46.277 46.277">
  <g id="Group_56015" data-name="Group 56015" transform="translate(-1049.861 -2376.861)">
    <path id="Path_15001" data-name="Path 15001" d="M44.292,3.986H32.381L31,2.6a.768.768,0,0,0-1.055,0l-.98.981a10.942,10.942,0,0,0-1.093-.45V1.746A.746.746,0,0,0,27.124,1H21.153a.746.746,0,0,0-.746.746V3.135a10.942,10.942,0,0,0-1.093.448l-.98-.979a.746.746,0,0,0-1.055,0L15.9,3.986H3.986A2.986,2.986,0,0,0,1,6.971V35.335A2.986,2.986,0,0,0,3.986,38.32H17.421v2.986h-.746a2.986,2.986,0,0,0-2.986,2.986v2.239a.746.746,0,0,0,.746.746H33.842a.746.746,0,0,0,.746-.746V44.292A2.986,2.986,0,0,0,31.6,41.306h-.746V38.32H44.292a2.986,2.986,0,0,0,2.986-2.986V6.971A2.986,2.986,0,0,0,44.292,3.986Zm-26.486.2.834.836a.746.746,0,0,0,.884.128,9.615,9.615,0,0,1,1.842-.758.746.746,0,0,0,.534-.716V2.493h4.478V3.678a.746.746,0,0,0,.534.716,9.615,9.615,0,0,1,1.842.758.746.746,0,0,0,.884-.128l.834-.836,3.167,3.168L32.8,8.19a.746.746,0,0,0-.128.883,9.68,9.68,0,0,1,.758,1.843.746.746,0,0,0,.716.534h1.185v4.478H34.15a.746.746,0,0,0-.716.534,9.68,9.68,0,0,1-.758,1.843.746.746,0,0,0,.128.883l.834.834L30.472,23.19l-.834-.836a.746.746,0,0,0-.884-.128,9.615,9.615,0,0,1-1.842.758.746.746,0,0,0-.534.716v1.185H21.9V23.7a.746.746,0,0,0-.534-.716,9.614,9.614,0,0,1-1.842-.758.746.746,0,0,0-.884.128l-.834.836-3.167-3.168.834-.834A.746.746,0,0,0,15.6,18.3a9.68,9.68,0,0,1-.758-1.843.746.746,0,0,0-.716-.534H12.943V11.45h1.185a.746.746,0,0,0,.716-.534A9.68,9.68,0,0,1,15.6,9.073a.746.746,0,0,0-.128-.883l-.834-.834Zm15.29,40.1v1.493H15.182V44.292A1.493,1.493,0,0,1,16.675,42.8H31.6A1.493,1.493,0,0,1,33.1,44.292Zm-3.732-2.986H18.914V38.32h10.45Zm16.421-5.971a1.493,1.493,0,0,1-1.493,1.493H3.986a1.493,1.493,0,0,1-1.493-1.493V6.971A1.493,1.493,0,0,1,3.986,5.478H14.4l-1.349,1.35a.746.746,0,0,0,0,1.055l.979.979a11.4,11.4,0,0,0-.448,1.094H12.2a.746.746,0,0,0-.746.746v5.971a.746.746,0,0,0,.746.746h1.389a11.4,11.4,0,0,0,.448,1.094l-.979.979a.746.746,0,0,0,0,1.055l4.222,4.223a.768.768,0,0,0,1.055,0l.98-.981a10.941,10.941,0,0,0,1.093.448v1.391a.746.746,0,0,0,.746.746h5.971a.746.746,0,0,0,.746-.746V24.242a10.942,10.942,0,0,0,1.093-.448l.98.981a.746.746,0,0,0,1.055,0l4.222-4.223a.746.746,0,0,0,0-1.055l-.979-.979a11.4,11.4,0,0,0,.448-1.094h1.392a.746.746,0,0,0,.746-.746V10.7a.746.746,0,0,0-.746-.746H34.692a11.4,11.4,0,0,0-.448-1.094l.979-.979a.746.746,0,0,0,0-1.055l-1.35-1.35H44.292a1.493,1.493,0,0,1,1.493,1.493Z" transform="translate(1048.861 2375.861)" fill="#222872"/>
    <path id="Path_15002" data-name="Path 15002" d="M44.56,9H37.842v1.493h5.971V32.885H6.493V10.493h5.971V9H5.746A.746.746,0,0,0,5,9.746V33.631a.746.746,0,0,0,.746.746H44.56a.746.746,0,0,0,.746-.746V9.746A.746.746,0,0,0,44.56,9Z" transform="translate(1047.847 2373.832)" fill="#222872"/>
    <rect id="Rectangle_8913" data-name="Rectangle 8913" width="1" height="1" transform="translate(1092 2410)" fill="#222872"/>
    <rect id="Rectangle_8914" data-name="Rectangle 8914" width="1" height="1" transform="translate(1089 2410)" fill="#222872"/>
    <rect id="Rectangle_8915" data-name="Rectangle 8915" width="1" height="1" transform="translate(1086 2410)" fill="#222872"/>
    <path id="Path_15003" data-name="Path 15003" d="M29.21,23.421A8.21,8.21,0,1,0,21,15.21,8.21,8.21,0,0,0,29.21,23.421Zm-1.493-1.666V19.068a.746.746,0,0,0-.363-.64,3.934,3.934,0,0,1-.383-6.439V15.21a.746.746,0,0,0,.219.528l1.493,1.493a.746.746,0,0,0,1.055,0l1.493-1.493a.746.746,0,0,0,.219-.528V11.989a3.934,3.934,0,0,1-.383,6.438.746.746,0,0,0-.364.64v2.687a6.521,6.521,0,0,1-2.986,0ZM29.21,8.493A6.712,6.712,0,0,1,32.2,21.219V19.47a5.42,5.42,0,0,0,2.239-4.393,5.361,5.361,0,0,0-3.476-5.045.746.746,0,0,0-1,.7V14.9l-.746.746-.746-.746V10.732a.746.746,0,0,0-1-.7,5.361,5.361,0,0,0-3.476,5.045,5.42,5.42,0,0,0,2.239,4.393v1.75A6.712,6.712,0,0,1,29.21,8.493Z" transform="translate(1043.79 2374.34)" fill="#009eff"/>
    <rect id="Rectangle_8916" data-name="Rectangle 8916" width="9" height="1" transform="translate(1067 2404)" fill="#222872"/>
    <rect id="Rectangle_8917" data-name="Rectangle 8917" width="2" height="1" transform="translate(1077 2404)" fill="#222872"/>
  </g>
</svg>
