<svg xmlns="http://www.w3.org/2000/svg" width="37.89" height="46.922" viewBox="0 0 37.89 46.922">
  <g id="Group_55651" data-name="Group 55651" transform="translate(-694.052 -25.672)">
    <g id="Group_55650" data-name="Group 55650" transform="translate(694.052 25.672)">
      <path id="Path_37651" data-name="Path 37651" d="M712.934,149.244a.043.043,0,0,1,.061.019.324.324,0,0,1,.088.136,1.164,1.164,0,0,1,.042.373q.005,3.183,0,6.366a1.735,1.735,0,0,1-.026.333.733.733,0,0,1-.436.476c-2.881,1.638-5.77,3.262-8.645,4.912-.134.077-.262.162-.392.244-.92.51-1.822,1.05-2.745,1.554a.7.7,0,0,0-.406.709c.018,1.037,0,2.075.009,3.113-.008,2.142,0,4.283,0,6.425,0,.44.029.456.406.24q2.77-1.585,5.54-3.168c1.826-1.015,3.64-2.051,5.459-3.079.353-.2.694-.422,1.054-.612a.141.141,0,0,1,.111.077.653.653,0,0,1,.061.218c.029,2.24.006,4.48.013,6.72a.727.727,0,0,1-.081.406c-1.27.713-2.543,1.419-3.809,2.139q-7.162,4.07-14.321,8.146a3.5,3.5,0,0,1-.807.42c-.089-.112-.05-.228-.05-.333q0-12.429,0-24.858c0-.07.007-.139.011-.209a10.233,10.233,0,0,1,1.785-1.087c1.287-.736,2.571-1.479,3.87-2.2a.781.781,0,0,0,.442-.777q-.016-3.253,0-6.506c0-.2-.088-.46.189-.584.178.169.124.391.124.594q.007,3.023,0,6.046c0,.1,0,.2,0,.294.007.448.041.468.446.238l1.057-.6c1.651-.947,3.325-1.852,4.95-2.842,1.586-.824,3.119-1.744,4.683-2.609C712.058,149.735,712.48,149.46,712.934,149.244Z" transform="translate(-694.052 -138.49)" fill="#0071b4"/>
      <path id="Path_37652" data-name="Path 37652" d="M918.979,179.438a1.486,1.486,0,0,1-.049-.539q-.007-3.356-.012-6.713c.17-.167.313-.025.451.049,1.195.637,2.354,1.336,3.533,2,.9.508,1.789,1.032,2.7,1.526,1.812,1.041,3.635,2.06,5.453,3.09.446.253.468.24.468-.281,0-2.089,0-4.178,0-6.268,0-1.036-.014-2.072.007-3.107a.836.836,0,0,0-.486-.839c-.894-.495-1.789-.987-2.667-1.509q-4.553-2.6-9.109-5.205c-.13-.075-.291-.118-.333-.294l0-7.3a.62.62,0,0,1,.509.134q2.745,1.577,5.5,3.143c2.215,1.27,4.446,2.512,6.657,3.791,1.963,1.084,3.9,2.213,5.851,3.318.219.124.415.245.373.542q0,12.293,0,24.584a1.3,1.3,0,0,0,.032.5c-.17.17-.28-.03-.383-.088-1.61-.9-3.213-1.823-4.818-2.737l-13.207-7.517C919.29,179.627,919.135,179.532,918.979,179.438Z" transform="translate(-899.984 -143.222)" fill="#002a41"/>
      <path id="Path_37653" data-name="Path 37653" d="M713,36.426c-.135.3-.461.354-.7.495-1.636.945-3.287,1.866-4.931,2.8a.347.347,0,0,1-.27.079.335.335,0,0,1-.317-.054c-2.057-1.14-4.09-2.321-6.131-3.488a2.345,2.345,0,0,0-.24-.167c-.1.14-.047.3-.047.448,0,2.255-.007,4.511,0,6.766a.6.6,0,0,1-.328.607c-1.878,1.057-3.749,2.128-5.624,3.191a1.531,1.531,0,0,1-.275.094c0-.7-.011-1.4-.011-2.1q0-9.443,0-18.887c0-.151,0-.3,0-.532Z" transform="translate(-694.12 -25.672)" fill="#002a41"/>
      <path id="Path_37654" data-name="Path 37654" d="M925.009,40.707q-2.667-1.508-5.334-3.016c-.207-.117-.421-.22-.632-.33a.194.194,0,0,1-.009-.053c1.319-.741,2.641-1.477,3.957-2.225q5.684-3.23,11.364-6.468,1.608-.915,3.216-1.828a.773.773,0,0,1,.394-.172c.005.114.014.221.014.328q0,10.456,0,20.912c0,.084-.009.167-.014.251q-.045.087-.07-.008c-.9-.526-1.8-1.056-2.7-1.576-1.17-.673-2.345-1.338-3.518-2.007a1.948,1.948,0,0,1-.049-.583q0-3.169,0-6.338c0-.486-.045-.511-.456-.281-1.88,1.053-3.745,2.131-5.616,3.2A.964.964,0,0,1,925.009,40.707Z" transform="translate(-900.09 -26.535)" fill="#0071b4"/>
      <path id="Path_37655" data-name="Path 37655" d="M1142.923,281.761q.035.006.07.008c0,.112.014.223.014.335q0,12.3,0,24.595c0,.112-.01.223-.016.335-.107-.1-.073-.235-.073-.358q0-12.416,0-24.831C1142.918,281.817,1142.921,281.789,1142.923,281.761Z" transform="translate(-1105.117 -260.198)" fill="#00233b"/>
      <path id="Path_37657" data-name="Path 37657" d="M918.927,310.281q2.265-1.279,4.53-2.558,2.445-1.387,4.886-2.783l3.113,1.735a.39.39,0,0,1,.174.4q-.007,1.7-.009,3.4A15.9,15.9,0,0,1,929.9,311.5c-1.478.848-2.946,1.714-4.446,2.524q-3.133-1.787-6.264-3.577a.312.312,0,0,0-.272-.058C918.922,310.353,918.924,310.317,918.927,310.281Z" transform="translate(-899.985 -281.425)" fill="#0071b4"/>
      <path id="Path_37658" data-name="Path 37658" d="M772.183,304.964l8.879,5.063c.146.083.286.174.429.262a8.4,8.4,0,0,1-1.694,1.051c-1.482.867-2.982,1.7-4.476,2.546a1.706,1.706,0,0,1-.232.091,2.9,2.9,0,0,1-1.086-.522c-1.555-.888-3.121-1.756-4.673-2.65a.911.911,0,0,1-.4-.351q-.007-1.7-.013-3.4c0-.124-.018-.254.122-.331C770.085,306.136,771.1,305.483,772.183,304.964Z" transform="translate(-762.608 -281.447)" fill="#002a41"/>
    </g>
  </g>
</svg>
