<svg xmlns="http://www.w3.org/2000/svg" width="45.979" height="45.979" viewBox="0 0 45.979 45.979">
  <g id="consulting_1_" data-name="consulting (1)" transform="translate(0 0)">
    <path id="Path_15084" data-name="Path 15084" d="M75.626,104.231a.947.947,0,0,1-.367-.073.958.958,0,0,1-.591-.885V97.526a.958.958,0,0,1,1.916,0v3.435L80.7,96.849a.954.954,0,0,1,.677-.281H110.11a1.918,1.918,0,0,0,1.916-1.916V67.832a1.918,1.918,0,0,0-1.916-1.916H105.32a.958.958,0,1,1,0-1.916h4.789a3.836,3.836,0,0,1,3.832,3.832V94.652a3.836,3.836,0,0,1-3.832,3.832H81.77L76.3,103.951a.96.96,0,0,1-.677.281Zm0,0" transform="translate(-67.963 -58.253)" fill="#222872"/>
    <path id="Path_15085" data-name="Path 15085" d="M3.832,98.484A3.836,3.836,0,0,1,0,94.652V67.832A3.836,3.836,0,0,1,3.832,64H8.621a.958.958,0,1,1,0,1.916H3.832a1.918,1.918,0,0,0-1.916,1.916V94.652a1.918,1.918,0,0,0,1.916,1.916.958.958,0,0,1,0,1.916Zm0,0" transform="translate(0 -58.253)" fill="#222872"/>
    <path id="Path_15086" data-name="Path 15086" d="M133.489,23.947h-.958a.958.958,0,1,1,0-1.916h.958a1.918,1.918,0,0,0,1.916-1.916V18.2a1.918,1.918,0,0,0-1.916-1.916h-.958a.958.958,0,0,1-.958-.958V13.41a11.495,11.495,0,1,0-22.989,0v1.916a.958.958,0,0,1-1.916,0V13.41a13.41,13.41,0,0,1,26.821,0v.958A3.836,3.836,0,0,1,137.32,18.2v1.916a3.836,3.836,0,0,1-3.832,3.832Zm0,0" transform="translate(-97.089 0)" fill="#009eff"/>
    <path id="Path_15087" data-name="Path 15087" d="M68.789,169.579h-.958A3.836,3.836,0,0,1,64,165.747v-1.916A3.836,3.836,0,0,1,67.832,160h.958a.958.958,0,0,1,.958.958v7.663A.958.958,0,0,1,68.789,169.579Zm-.958-7.663a1.918,1.918,0,0,0-1.916,1.916v1.916a1.918,1.918,0,0,0,1.916,1.916Zm0,0" transform="translate(-58.253 -145.632)" fill="#009eff"/>
    <path id="Path_15088" data-name="Path 15088" d="M226.874,220.868a2.874,2.874,0,1,1,2.71-3.831h.164a8.63,8.63,0,0,0,8.621-8.621v-4.79a.958.958,0,0,1,1.916,0v4.79a10.549,10.549,0,0,1-10.537,10.537h-.958a.957.957,0,0,1-.958-.958.958.958,0,1,0-.958.958.958.958,0,1,1,0,1.916Zm0,0" transform="translate(-203.884 -184.468)" fill="#009eff"/>
    <path id="Path_15089" data-name="Path 15089" d="M167.532,53.2a.958.958,0,0,1-.958-.958,7.663,7.663,0,1,0-15.326,0,.958.958,0,1,1-1.916,0,9.579,9.579,0,0,1,19.158,0A.958.958,0,0,1,167.532,53.2Zm0,0" transform="translate(-135.922 -38.836)" fill="#009eff"/>
    <path id="Path_15090" data-name="Path 15090" d="M202.668,277.332h1.916v1.916h-1.916Zm0,0" transform="translate(-184.468 -252.427)" fill="#222872"/>
    <path id="Path_15091" data-name="Path 15091" d="M245.332,277.332h1.916v1.916h-1.916Zm0,0" transform="translate(-223.301 -252.427)" fill="#222872"/>
    <path id="Path_15092" data-name="Path 15092" d="M288,277.332h1.916v1.916H288Zm0,0" transform="translate(-262.137 -252.427)" fill="#222872"/>
  </g>
</svg>
