<svg id="web-programming" xmlns="http://www.w3.org/2000/svg" width="47.234" height="41.673" viewBox="0 0 47.234 41.673">
  <path id="Path_15076" data-name="Path 15076" d="M120.825,191.142a.777.777,0,0,1-.5-.186l-5.046-4.3a.78.78,0,0,1,0-1.188l5.046-4.3a.78.78,0,1,1,1.011,1.187l-4.349,3.7,4.349,3.7a.78.78,0,0,1-.506,1.374Zm0,0" transform="translate(-102.189 -160.827)" fill="#009eff"/>
  <path id="Path_15077" data-name="Path 15077" d="M250.488,191.142a.78.78,0,0,1-.506-1.374l4.349-3.7-4.349-3.7a.78.78,0,0,1,1.011-1.187l5.046,4.3a.78.78,0,0,1,0,1.188l-5.046,4.3a.777.777,0,0,1-.5.186Zm0,0" transform="translate(-221.89 -160.827)" fill="#009eff"/>
  <path id="Path_15078" data-name="Path 15078" d="M189.735,169.516a.794.794,0,0,1-.162-.017.78.78,0,0,1-.6-.924l3.145-14.931a.78.78,0,1,1,1.526.322L190.5,168.9A.78.78,0,0,1,189.735,169.516Zm0,0" transform="translate(-167.904 -135.978)" fill="#009eff"/>
  <path id="Path_15079" data-name="Path 15079" d="M42,41.673H5.236A5.242,5.242,0,0,1,0,36.437V5.236A5.242,5.242,0,0,1,5.236,0H42a5.242,5.242,0,0,1,5.236,5.236v31.2A5.242,5.242,0,0,1,42,41.673ZM5.236,1.56A3.681,3.681,0,0,0,1.56,5.236v31.2a3.681,3.681,0,0,0,3.676,3.676H42a3.68,3.68,0,0,0,3.676-3.676V5.236A3.68,3.68,0,0,0,42,1.56Zm0,0" fill="#222872"/>
  <path id="Path_15080" data-name="Path 15080" d="M46.454,99.65H.78a.78.78,0,0,1,0-1.56H46.454a.78.78,0,0,1,0,1.56Zm0,0" transform="translate(0 -87.163)" fill="#222872"/>
  <path id="Path_15081" data-name="Path 15081" d="M99.917,39.225a2.468,2.468,0,1,1,2.468-2.468A2.471,2.471,0,0,1,99.917,39.225Zm0-3.376a.908.908,0,1,0,.908.908A.909.909,0,0,0,99.917,35.849Zm0,0" transform="translate(-86.594 -30.469)" fill="#222872"/>
  <path id="Path_15082" data-name="Path 15082" d="M31.855,39.01a2.468,2.468,0,1,1,2.468-2.468A2.471,2.471,0,0,1,31.855,39.01Zm0-3.376a.908.908,0,1,0,.908.908A.91.91,0,0,0,31.855,35.634Zm0,0" transform="translate(-26.113 -30.278)" fill="#222872"/>
  <path id="Path_15083" data-name="Path 15083" d="M167.983,39.439a2.468,2.468,0,1,1,2.468-2.468A2.47,2.47,0,0,1,167.983,39.439Zm0-3.376a.908.908,0,1,0,.908.908A.909.909,0,0,0,167.983,36.063Zm0,0" transform="translate(-147.077 -30.66)" fill="#222872"/>
</svg>
