<?xml version="1.0" encoding="utf-8"?>
<!-- Generator: Adobe Illustrator 23.0.5, SVG Export Plug-In . SVG Version: 6.00 Build 0)  -->
<svg version="1.1" id="Layer_1" xmlns="http://www.w3.org/2000/svg" xmlns:xlink="http://www.w3.org/1999/xlink" x="0px" y="0px"
	 viewBox="0 0 1914.8 524" style="enable-background:new 0 0 1914.8 524;" xml:space="preserve">
<style type="text/css">
	.st0{fill:url(#SVGID_1_);}
	.st1{fill:none;stroke:#707070;}
	.st2{opacity:3.000000e-02;fill:url(#Path_9659_1_);enable-background:new    ;}
	.st3{fill:url(#Path_9658_1_);}
	.st4{fill:none;stroke:#00E5FF;stroke-width:0.479;}
	.st5{opacity:0.923;fill:none;stroke:#00E5FF;stroke-width:0.479;enable-background:new    ;}
	.st6{opacity:0.846;fill:none;stroke:#00E5FF;stroke-width:0.479;enable-background:new    ;}
	.st7{opacity:0.769;fill:none;stroke:#00E5FF;stroke-width:0.479;enable-background:new    ;}
	.st8{opacity:0.692;fill:none;stroke:#00E5FF;stroke-width:0.479;enable-background:new    ;}
	.st9{opacity:0.615;fill:none;stroke:#00E5FF;stroke-width:0.479;enable-background:new    ;}
	.st10{opacity:0.538;fill:none;stroke:#00E5FF;stroke-width:0.479;enable-background:new    ;}
	.st11{opacity:0.462;fill:none;stroke:#00E5FF;stroke-width:0.479;enable-background:new    ;}
	.st12{opacity:0.385;fill:none;stroke:#00E5FF;stroke-width:0.479;enable-background:new    ;}
	.st13{opacity:0.308;fill:none;stroke:#00E5FF;stroke-width:0.479;enable-background:new    ;}
	.st14{opacity:0.231;fill:none;stroke:#00E5FF;stroke-width:0.479;enable-background:new    ;}
	.st15{opacity:0.154;fill:none;stroke:#00E5FF;stroke-width:0.479;enable-background:new    ;}
	.st16{opacity:7.700000e-02;fill:none;stroke:#00E5FF;stroke-width:0.479;enable-background:new    ;}
	.st17{fill:none;stroke:#00E5FF;stroke-width:0.479;stroke-opacity:0;}
	.st18{opacity:0.634;}
	.st19{fill:none;stroke:#0080FF;stroke-width:0.547;}
	.st20{fill:url(#Path_9608_1_);stroke:#0080FF;}
	.st21{fill:url(#Ellipse_241_1_);stroke:#0080FF;}
	.st22{fill:url(#Path_9609_1_);stroke:#0080FF;}
	.st23{fill:url(#Path_9608-2_1_);stroke:#0080FF;}
	.st24{fill:url(#Ellipse_241-2_1_);stroke:#0080FF;}
	.st25{fill:url(#Path_9609-2_1_);stroke:#0080FF;}
	.st26{fill:url(#Path_9608-3_1_);stroke:#0080FF;}
	.st27{fill:url(#Ellipse_241-3_1_);stroke:#0080FF;}
	.st28{fill:url(#Path_9609-3_1_);stroke:#0080FF;}
	.st29{fill:none;stroke:#2E6DFF;stroke-width:0.547;}
	.st30{fill:url(#Path_9608-4_1_);stroke:#2E6DFF;}
	.st31{fill:url(#Ellipse_241-4_1_);stroke:#2E6DFF;}
	.st32{fill:url(#Path_9609-4_1_);stroke:#2E6DFF;}
	.st33{fill:none;stroke:#0088FF;stroke-width:0.547;}
	.st34{fill:url(#Path_9608-5_1_);stroke:#0088FF;}
	.st35{fill:url(#Ellipse_241-5_1_);stroke:#0088FF;}
	.st36{fill:url(#Path_9609-5_1_);stroke:#0088FF;}
	.st37{opacity:0.37;}
	.st38{fill:#39BDFF;}
	.st39{opacity:0.43;}
	.st40{fill:none;stroke:#0088FF;stroke-width:0.546;}
	.st41{fill:url(#Path_9611_1_);stroke:#0088FF;}
	.st42{fill:url(#Path_9613_1_);stroke:#0088FF;}
	.st43{fill:url(#Path_9615_1_);stroke:#0088FF;}
	.st44{fill:url(#Path_9617_1_);stroke:#0088FF;}
	.st45{fill:url(#Path_9619_1_);stroke:#0088FF;}
	.st46{fill:url(#Path_9621_1_);stroke:#0088FF;}
	.st47{opacity:0.28;}
	.st48{fill:url(#Path_9611-2_1_);stroke:#0088FF;}
	.st49{fill:url(#Path_9613-2_1_);stroke:#0088FF;}
	.st50{fill:url(#Path_9615-2_1_);stroke:#0088FF;}
	.st51{fill:url(#Path_9617-2_1_);stroke:#0088FF;}
	.st52{fill:url(#Path_9619-2_1_);stroke:#0088FF;}
	.st53{fill:url(#Path_9621-2_1_);stroke:#0088FF;}
	.st54{fill:#77B1F1;}
	.st55{fill:#B7D3F3;}
	.st56{fill:#D2E3FC;}
	.st57{fill:#C5DCF8;}
	.st58{fill:#FFB27D;}
	.st59{fill:#1C468A;}
	.st60{fill:#163560;}
	.st61{fill:#2C3A64;}
	.st62{fill:#ED975D;}
	.st63{fill:#FFFFFF;}
	.st64{fill:#398EE1;}
	.st65{fill:#46A0F9;}
	.st66{fill:#F9DDBF;}
	.st67{fill:#95C0F4;}
	.st68{fill:#78ACEA;}
	.st69{fill:#2EA1D4;}
	.st70{fill:#AEC3FF;}
	.st71{fill:#204D9A;}
	.st72{fill:#3C77DC;}
	.st73{fill:#9DB0F4;}
	.st74{fill:#233862;}
	.st75{fill:#2B478B;}
	.st76{fill:#E2915A;}
	.st77{fill:#2A4E96;}
	.st78{fill:#DCEAFF;}
	.st79{fill:#235FC5;}
	.st80{fill:#0E84DE;}
	.st81{fill:#0D66AA;}
	.st82{fill:#ED985F;}
</style>
<g id="Group_55602" transform="translate(137.338 -4643)">
	<g id="_06_Contact_" transform="translate(0 583)">
		<g id="Rectangle_8835" transform="translate(0 4060)">
			
				<linearGradient id="SVGID_1_" gradientUnits="userSpaceOnUse" x1="603.6491" y1="412.2141" x2="603.6491" y2="411.2141" gradientTransform="matrix(1920 0 0 -523 -1158188.375 215588)">
				<stop  offset="0" style="stop-color:#154DAF"/>
				<stop  offset="1" style="stop-color:#062D70"/>
			</linearGradient>
			<rect x="-142.1" class="st0" width="1920" height="523"/>
			<rect x="-141.6" y="0.5" class="st1" width="1919" height="522"/>
		</g>
		
			<linearGradient id="Path_9659_1_" gradientUnits="userSpaceOnUse" x1="601.1011" y1="4471.748" x2="602.1011" y2="4471.748" gradientTransform="matrix(352.084 0 0 -451.4503 -210203.1094 2023057.875)">
			<stop  offset="0" style="stop-color:#31FFF9"/>
			<stop  offset="1" style="stop-color:#39BDFF"/>
		</linearGradient>
		<path id="Path_9659" class="st2" d="M1787.1,4492.7c-29-7.3-59.6-2.1-88.8,4.7c-29.2,6.8-58.5,15.1-88.4,14
			c-29.9-1.1-61.3-13.6-76.5-39.4c-13.5-23-11.7-52.4-2.6-77.5c9.1-25.1,24.8-47.2,38.7-70c13.9-22.8,26.3-47.6,27.9-74.2
			c2.3-38.8-21.4-77.8-56.9-93.7c-17.6-7.9-37.1-10.3-55.6-15.9c-18.5-5.5-37.2-15.4-45.9-32.6c-8.7-17.2-2.3-42.6,16.2-48.1h324.3
			L1787.1,4492.7z"/>
		
			<linearGradient id="Path_9658_1_" gradientUnits="userSpaceOnUse" x1="600.9445" y1="4471.7495" x2="601.9445" y2="4471.7495" gradientTransform="matrix(331.3997 0 0 -448.4623 -197710.9844 2009695.375)">
			<stop  offset="0" style="stop-color:#777777"/>
			<stop  offset="1" style="stop-color:#31FFF9;stop-opacity:0"/>
		</linearGradient>
		<path id="Path_9658" class="st3" d="M1767.6,4074.1c6.9,115.7,7.5,231.6,1.8,347.4c-1.3,25.9-4.2,54.6-23.8,71.6
			c-16.6,14.4-40.5,16-62.4,15.3c-26.5-0.9-52.8-4.2-78.6-9.9c-14.1-3.1-28.4-7.1-40-15.6c-11.6-8.6-20.1-22.7-18.2-37
			c3.2-24.4,33.2-38.5,36.7-62.9c3.1-21.1-15.1-39.2-33.3-50.4c-18.2-11.2-39.3-20.8-48.9-39.9c-12.8-25.4,0.6-55.9,15.8-79.9
			c15.2-24,33.3-49.7,30-78c-2.7-22.8-19.5-42-39.5-53.5s-42.8-16.4-65.3-21.3h314.6L1767.6,4074.1z"/>
		<g id="Group_18973" transform="translate(-216.699 3963.339)">
			<path id="Path_9606" class="st4" d="M289.9,356.2c0,5.4-4.4,9.7-9.7,9.7s-9.7-4.4-9.7-9.7s4.4-9.7,9.7-9.7l0,0
				C285.5,346.4,289.9,350.8,289.9,356.2z"/>
			<circle id="Ellipse_228" class="st5" cx="280.1" cy="356.2" r="20.5"/>
			<circle id="Ellipse_229" class="st6" cx="280.1" cy="356.2" r="31.3"/>
			<circle id="Ellipse_230" class="st7" cx="280.1" cy="356.2" r="42.2"/>
			<circle id="Ellipse_231" class="st8" cx="280.1" cy="356.2" r="53"/>
			<circle id="Ellipse_232" class="st9" cx="280.1" cy="356.2" r="63.8"/>
			<circle id="Ellipse_233" class="st10" cx="280.1" cy="356.2" r="74.6"/>
			<circle id="Ellipse_234" class="st11" cx="280.1" cy="356.2" r="85.4"/>
			<circle id="Ellipse_235" class="st12" cx="280.1" cy="356.2" r="96.2"/>
			<circle id="Ellipse_236" class="st13" cx="280.1" cy="356.2" r="107"/>
			<circle id="Ellipse_237" class="st14" cx="280.1" cy="356.2" r="117.8"/>
			<circle id="Ellipse_238" class="st15" cx="280.1" cy="356.2" r="128.6"/>
			<circle id="Ellipse_239" class="st16" cx="280.1" cy="356.2" r="139.4"/>
			<circle id="Ellipse_240" class="st17" cx="280.1" cy="356.2" r="150.3"/>
		</g>
		<g id="Group_18989" transform="translate(-346.698 3926.34)" class="st18">
			<path id="Path_9606-2" class="st4" d="M181.6,252.7c0,2.8-2.2,5-5,5c-2.8,0-5-2.2-5-5c0-2.8,2.2-5,5-5c0,0,0,0,0,0
				C179.4,247.7,181.6,249.9,181.6,252.7z"/>
			<circle id="Ellipse_228-2" class="st5" cx="176.6" cy="252.7" r="10.5"/>
			<circle id="Ellipse_229-2" class="st6" cx="176.6" cy="252.7" r="16.1"/>
			<circle id="Ellipse_230-2" class="st7" cx="176.6" cy="252.7" r="21.6"/>
			<circle id="Ellipse_231-2" class="st8" cx="176.6" cy="252.7" r="27.2"/>
			<circle id="Ellipse_232-2" class="st9" cx="176.6" cy="252.7" r="32.7"/>
			<circle id="Ellipse_233-2" class="st10" cx="176.6" cy="252.7" r="38.3"/>
			<circle id="Ellipse_234-2" class="st11" cx="176.6" cy="252.7" r="43.8"/>
			<circle id="Ellipse_235-2" class="st12" cx="176.6" cy="252.7" r="49.3"/>
			<circle id="Ellipse_236-2" class="st13" cx="176.6" cy="252.7" r="54.9"/>
			<circle id="Ellipse_237-2" class="st14" cx="176.6" cy="252.7" r="60.4"/>
			<circle id="Ellipse_238-2" class="st15" cx="176.6" cy="252.7" r="66"/>
			<circle id="Ellipse_239-2" class="st16" cx="176.6" cy="252.7" r="71.5"/>
			<circle id="Ellipse_240-2" class="st17" cx="176.6" cy="252.7" r="77.1"/>
		</g>
		<g id="Group_18991" transform="translate(651.068 3978.105)">
			<path id="Path_9606-3" class="st4" d="M150.5,222.9c0,2-1.6,3.6-3.6,3.6c-2,0-3.6-1.6-3.6-3.6c0-2,1.6-3.6,3.6-3.6
				C148.9,219.3,150.5,220.9,150.5,222.9C150.5,222.9,150.5,222.9,150.5,222.9z"/>
			<circle id="Ellipse_228-3" class="st5" cx="146.9" cy="222.9" r="7.7"/>
			<circle id="Ellipse_229-3" class="st6" cx="146.9" cy="222.9" r="11.7"/>
			<circle id="Ellipse_230-3" class="st7" cx="146.9" cy="222.9" r="15.7"/>
			<circle id="Ellipse_231-3" class="st8" cx="146.9" cy="222.9" r="19.8"/>
			<circle id="Ellipse_232-3" class="st9" cx="146.9" cy="222.9" r="23.8"/>
			<circle id="Ellipse_233-3" class="st10" cx="146.9" cy="222.9" r="27.8"/>
			<circle id="Ellipse_234-3" class="st11" cx="146.9" cy="222.9" r="31.8"/>
			<circle id="Ellipse_235-3" class="st12" cx="146.9" cy="222.9" r="35.9"/>
			<circle id="Ellipse_236-3" class="st13" cx="146.9" cy="222.9" r="39.9"/>
			<circle id="Ellipse_237-3" class="st14" cx="146.9" cy="222.9" r="43.9"/>
			<circle id="Ellipse_238-3" class="st15" cx="146.9" cy="222.9" r="48"/>
			<circle id="Ellipse_239-3" class="st16" cx="146.9" cy="222.9" r="52"/>
			<circle id="Ellipse_240-3" class="st17" cx="146.9" cy="222.9" r="56"/>
		</g>
		<g id="Group_18974" transform="matrix(0.788, 0.616, -0.616, 0.788, 1025.692, 4103.1)">
			<path id="Path_9607" class="st19" d="M-13.9,427.6h-38l19-30.7L-13.9,427.6z"/>
			
				<linearGradient id="Path_9608_1_" gradientUnits="userSpaceOnUse" x1="-334.0726" y1="585.0201" x2="-333.0716" y2="585.0201" gradientTransform="matrix(3.1709 -2.4788 -2.4788 -3.1709 2428.042 1423.8394)">
				<stop  offset="0" style="stop-color:#31FFF9"/>
				<stop  offset="1" style="stop-color:#39BDFF"/>
			</linearGradient>
			<path id="Path_9608" class="st20" d="M-30.9,396.9c0,1.1-0.9,2-2,2c-1.1,0-2-0.9-2-2c0-1.1,0.9-2,2-2
				C-31.8,394.9-30.9,395.8-30.9,396.9C-30.9,396.9-30.9,396.9-30.9,396.9z"/>
			
				<linearGradient id="Ellipse_241_1_" gradientUnits="userSpaceOnUse" x1="-333.9616" y1="585.0041" x2="-332.9616" y2="585.0041" gradientTransform="matrix(3.1725 -2.48 -2.48 -3.1725 2447.8704 1455.2568)">
				<stop  offset="0" style="stop-color:#31FFF9"/>
				<stop  offset="1" style="stop-color:#39BDFF"/>
			</linearGradient>
			<circle id="Ellipse_241" class="st21" cx="-13.9" cy="427.6" r="2"/>
			
				<linearGradient id="Path_9609_1_" gradientUnits="userSpaceOnUse" x1="-334.0726" y1="585.0201" x2="-333.0726" y2="585.0201" gradientTransform="matrix(3.1709 -2.4788 -2.4788 -3.1709 2409.053 1454.5254)">
				<stop  offset="0" style="stop-color:#31FFF9"/>
				<stop  offset="1" style="stop-color:#39BDFF"/>
			</linearGradient>
			<path id="Path_9609" class="st22" d="M-49.9,427.6c0,1.1-0.9,2-2,2c-1.1,0-2-0.9-2-2c0-1.1,0.9-2,2-2
				C-50.8,425.6-49.9,426.5-49.9,427.6C-49.9,427.6-49.9,427.6-49.9,427.6z"/>
		</g>
		<g id="Group_19034" transform="matrix(0.788, 0.616, -0.616, 0.788, 1467.141, 3934.297)">
			<path id="Path_9607-2" class="st19" d="M44.4,475.3H-49l46.7-75.4L44.4,475.3z"/>
			
				<linearGradient id="Path_9608-2_1_" gradientUnits="userSpaceOnUse" x1="-447.7191" y1="973.3009" x2="-446.7181" y2="973.3009" gradientTransform="matrix(7.7965 -6.0947 -6.0947 -7.7965 9301.0596 5259.4351)">
				<stop  offset="0" style="stop-color:#31FFF9"/>
				<stop  offset="1" style="stop-color:#39BDFF"/>
			</linearGradient>
			<path id="Path_9608-2" class="st23" d="M2.7,399.8c0,2.7-2.2,4.9-5,4.9c-2.7,0-4.9-2.2-4.9-5c0-2.7,2.2-4.9,4.9-4.9
				C0.5,394.9,2.7,397.1,2.7,399.8C2.7,399.8,2.7,399.8,2.7,399.8z"/>
			
				<linearGradient id="Ellipse_241-2_1_" gradientUnits="userSpaceOnUse" x1="-447.6989" y1="973.2966" x2="-446.6989" y2="973.2966" gradientTransform="matrix(7.798 -6.0959 -6.0959 -7.798 9349.4609 5335.9277)">
				<stop  offset="0" style="stop-color:#31FFF9"/>
				<stop  offset="1" style="stop-color:#39BDFF"/>
			</linearGradient>
			<circle id="Ellipse_241-2" class="st24" cx="44.4" cy="475.3" r="4.9"/>
			
				<linearGradient id="Path_9609-2_1_" gradientUnits="userSpaceOnUse" x1="-447.7191" y1="973.3009" x2="-446.7191" y2="973.3009" gradientTransform="matrix(7.7965 -6.0947 -6.0947 -7.7965 9254.376 5334.876)">
				<stop  offset="0" style="stop-color:#31FFF9"/>
				<stop  offset="1" style="stop-color:#39BDFF"/>
			</linearGradient>
			<path id="Path_9609-2" class="st25" d="M-44,475.3c0,2.7-2.2,4.9-5,4.9c-2.7,0-4.9-2.2-4.9-5c0-2.7,2.2-4.9,4.9-4.9
				C-46.2,470.3-44,472.5-44,475.3C-44,475.3-44,475.3-44,475.3z"/>
		</g>
		<g id="Group_19035" transform="matrix(0.998, 0.07, -0.07, 0.998, 1707.255, 3963.794)">
			<path id="Path_9607-3" class="st19" d="M-34.3,357.7h-46.8l23.4-37.8L-34.3,357.7z"/>
			
				<linearGradient id="Path_9608-3_1_" gradientUnits="userSpaceOnUse" x1="-1254.2506" y1="606.7777" x2="-1253.2495" y2="606.7777" gradientTransform="matrix(4.9521 -0.3473 -0.3473 -4.9521 6304.3311 2888.9924)">
				<stop  offset="0" style="stop-color:#31FFF9"/>
				<stop  offset="1" style="stop-color:#39BDFF"/>
			</linearGradient>
			<path id="Path_9608-3" class="st26" d="M-55.3,319.8c0,1.4-1.1,2.5-2.5,2.5s-2.5-1.1-2.5-2.5c0-1.4,1.1-2.5,2.5-2.5
				C-56.4,317.3-55.3,318.4-55.3,319.8C-55.3,319.8-55.3,319.8-55.3,319.8z"/>
			
				<linearGradient id="Ellipse_241-3_1_" gradientUnits="userSpaceOnUse" x1="-1254.1761" y1="606.7685" x2="-1253.1761" y2="606.7685" gradientTransform="matrix(4.9541 -0.3475 -0.3475 -4.9541 6329.9434 2927.8257)">
				<stop  offset="0" style="stop-color:#31FFF9"/>
				<stop  offset="1" style="stop-color:#39BDFF"/>
			</linearGradient>
			<circle id="Ellipse_241-3" class="st27" cx="-34.3" cy="357.7" r="2.5"/>
			
				<linearGradient id="Path_9609-3_1_" gradientUnits="userSpaceOnUse" x1="-1254.2507" y1="606.7777" x2="-1253.2498" y2="606.7777" gradientTransform="matrix(4.9521 -0.3473 -0.3473 -4.9521 6280.917 2926.8274)">
				<stop  offset="0" style="stop-color:#31FFF9"/>
				<stop  offset="1" style="stop-color:#39BDFF"/>
			</linearGradient>
			<path id="Path_9609-3" class="st28" d="M-78.7,357.7c0,1.4-1.1,2.5-2.5,2.5s-2.5-1.1-2.5-2.5c0-1.4,1.1-2.5,2.5-2.5
				C-79.8,355.2-78.7,356.3-78.7,357.7C-78.7,357.7-78.7,357.7-78.7,357.7z"/>
		</g>
		<g id="Group_18975" transform="matrix(0.788, 0.616, -0.616, 0.788, 1265.692, 3833.1)">
			<path id="Path_9607-4" class="st29" d="M-13.9,427.6h-38l19-30.7L-13.9,427.6z"/>
			
				<linearGradient id="Path_9608-4_1_" gradientUnits="userSpaceOnUse" x1="-356.8635" y1="945.4759" x2="-355.8625" y2="945.4759" gradientTransform="matrix(3.1709 -2.4788 -2.4788 -3.1709 3393.8025 2510.324)">
				<stop  offset="0" style="stop-color:#31FFF9"/>
				<stop  offset="1" style="stop-color:#39BDFF"/>
			</linearGradient>
			<path id="Path_9608-4" class="st30" d="M-30.9,396.9c0,1.1-0.9,2-2,2c-1.1,0-2-0.9-2-2c0-1.1,0.9-2,2-2
				C-31.8,394.9-30.9,395.8-30.9,396.9C-30.9,396.9-30.9,396.9-30.9,396.9z"/>
			
				<linearGradient id="Ellipse_241-4_1_" gradientUnits="userSpaceOnUse" x1="-356.7525" y1="945.4599" x2="-355.7525" y2="945.4599" gradientTransform="matrix(3.1725 -2.48 -2.48 -3.1725 3414.1104 2542.2769)">
				<stop  offset="0" style="stop-color:#31FFF9"/>
				<stop  offset="1" style="stop-color:#39BDFF"/>
			</linearGradient>
			<circle id="Ellipse_241-4" class="st31" cx="-13.9" cy="427.6" r="2"/>
			
				<linearGradient id="Path_9609-4_1_" gradientUnits="userSpaceOnUse" x1="-356.8635" y1="945.4759" x2="-355.8635" y2="945.4759" gradientTransform="matrix(3.1709 -2.4788 -2.4788 -3.1709 3374.8135 2541.01)">
				<stop  offset="0" style="stop-color:#31FFF9"/>
				<stop  offset="1" style="stop-color:#39BDFF"/>
			</linearGradient>
			<path id="Path_9609-4" class="st32" d="M-49.9,427.6c0,1.1-0.9,2-2,2c-1.1,0-2-0.9-2-2c0-1.1,0.9-2,2-2
				C-50.8,425.6-49.9,426.5-49.9,427.6C-49.9,427.6-49.9,427.6-49.9,427.6z"/>
		</g>
		<g id="Group_18976" transform="matrix(0.616, -0.788, 0.788, 0.616, 1115.321, 4240.364)">
			<path id="Path_9607-5" class="st33" d="M23.1,238.5h-49.9l25-40.3L23.1,238.5z"/>
			
				<linearGradient id="Path_9608-5_1_" gradientUnits="userSpaceOnUse" x1="-671.1178" y1="-248.6844" x2="-670.1168" y2="-248.6844" gradientTransform="matrix(3.2586 4.1686 4.1685 -3.2587 3157.9373 2185.3618)">
				<stop  offset="0" style="stop-color:#31FFF9"/>
				<stop  offset="1" style="stop-color:#39BDFF"/>
			</linearGradient>
			<path id="Path_9608-5" class="st34" d="M0.8,198.2c0,1.5-1.2,2.6-2.6,2.6c-1.5,0-2.6-1.2-2.6-2.6c0-1.5,1.2-2.6,2.6-2.6
				C-0.4,195.5,0.8,196.7,0.8,198.2C0.8,198.2,0.8,198.2,0.8,198.2z"/>
			
				<linearGradient id="Ellipse_241-5_1_" gradientUnits="userSpaceOnUse" x1="-671.0538" y1="-248.6894" x2="-670.0538" y2="-248.6894" gradientTransform="matrix(3.2599 4.1701 4.1701 -3.2599 3183.915 2226.156)">
				<stop  offset="0" style="stop-color:#31FFF9"/>
				<stop  offset="1" style="stop-color:#39BDFF"/>
			</linearGradient>
			<circle id="Ellipse_241-5" class="st35" cx="23.1" cy="238.5" r="2.6"/>
			
				<linearGradient id="Path_9609-5_1_" gradientUnits="userSpaceOnUse" x1="-671.1179" y1="-248.6844" x2="-670.1169" y2="-248.6844" gradientTransform="matrix(3.2586 4.1686 4.1685 -3.2587 3132.9712 2225.7029)">
				<stop  offset="0" style="stop-color:#31FFF9"/>
				<stop  offset="1" style="stop-color:#39BDFF"/>
			</linearGradient>
			<path id="Path_9609-5" class="st36" d="M-24.2,238.5c0,1.5-1.2,2.6-2.6,2.6c-1.5,0-2.6-1.2-2.6-2.6c0-1.5,1.2-2.6,2.6-2.6
				C-25.4,235.8-24.2,237-24.2,238.5C-24.2,238.5-24.2,238.5-24.2,238.5z"/>
		</g>
		<g id="Group_18987" transform="translate(676.433 4192.849)" class="st37">
			<path id="Path_9622" class="st38" d="M280.4,389.7c0,0.8-0.6,1.4-1.5,1.4s-1.4-0.6-1.4-1.5s0.6-1.4,1.4-1.4
				C279.8,388.3,280.4,388.9,280.4,389.7C280.4,389.7,280.4,389.7,280.4,389.7z"/>
			<path id="Path_9623" class="st38" d="M292,389.7c0,0.8-0.6,1.4-1.5,1.4s-1.4-0.6-1.4-1.5s0.6-1.4,1.4-1.4
				C291.3,388.3,292,388.9,292,389.7C292,389.7,292,389.7,292,389.7z"/>
			<path id="Path_9624" class="st38" d="M303.5,389.7c0,0.8-0.6,1.4-1.5,1.4c-0.8,0-1.4-0.6-1.4-1.5c0-0.8,0.6-1.4,1.4-1.4
				C302.8,388.3,303.5,388.9,303.5,389.7C303.5,389.7,303.5,389.7,303.5,389.7z"/>
			<path id="Path_9625" class="st38" d="M315,389.7c0,0.8-0.6,1.4-1.5,1.4s-1.4-0.6-1.4-1.5s0.6-1.4,1.4-1.4
				C314.4,388.3,315,388.9,315,389.7z"/>
			<path id="Path_9626" class="st38" d="M326.6,389.7c0,0.8-0.6,1.4-1.5,1.4s-1.4-0.6-1.4-1.5s0.6-1.4,1.4-1.4
				C325.9,388.3,326.6,388.9,326.6,389.7C326.6,389.7,326.6,389.7,326.6,389.7z"/>
			<path id="Path_9627" class="st38" d="M338.1,389.7c0,0.8-0.7,1.4-1.5,1.4s-1.4-0.7-1.4-1.5c0-0.8,0.6-1.4,1.4-1.4
				C337.5,388.3,338.1,388.9,338.1,389.7C338.1,389.7,338.1,389.7,338.1,389.7z"/>
			<path id="Path_9628" class="st38" d="M349.7,389.7c0,0.8-0.6,1.4-1.5,1.4s-1.4-0.6-1.4-1.5s0.6-1.4,1.4-1.4
				C349,388.3,349.7,388.9,349.7,389.7C349.7,389.7,349.7,389.7,349.7,389.7z"/>
			<path id="Path_9629" class="st38" d="M361.2,389.7c0,0.8-0.6,1.4-1.5,1.4s-1.4-0.6-1.4-1.5s0.6-1.4,1.4-1.4
				C360.6,388.3,361.2,388.9,361.2,389.7C361.2,389.7,361.2,389.7,361.2,389.7z"/>
			<path id="Path_9630" class="st38" d="M372.8,389.7c0,0.8-0.6,1.4-1.5,1.4s-1.4-0.6-1.4-1.5s0.6-1.4,1.4-1.4
				C372.1,388.3,372.7,388.9,372.8,389.7C372.8,389.7,372.8,389.7,372.8,389.7z"/>
			<path id="Path_9631" class="st38" d="M384.3,389.7c0,0.8-0.6,1.4-1.5,1.4c-0.8,0-1.4-0.6-1.4-1.5c0-0.8,0.6-1.4,1.4-1.4
				C383.6,388.3,384.3,388.9,384.3,389.7C384.3,389.7,384.3,389.7,384.3,389.7z"/>
			<path id="Path_9632" class="st38" d="M395.8,389.7c0,0.8-0.6,1.4-1.5,1.4s-1.4-0.6-1.4-1.5s0.6-1.4,1.4-1.4
				C395.2,388.3,395.8,388.9,395.8,389.7z"/>
			<path id="Path_9633" class="st38" d="M292,376.9c0,0.8-0.6,1.5-1.4,1.5s-1.5-0.6-1.5-1.4s0.6-1.5,1.4-1.5c0,0,0,0,0,0
				C291.3,375.4,292,376.1,292,376.9C292,376.9,292,376.9,292,376.9z"/>
			<path id="Path_9634" class="st38" d="M303.5,376.9c0,0.8-0.6,1.4-1.4,1.4s-1.4-0.6-1.4-1.4s0.6-1.4,1.4-1.4
				S303.5,376.1,303.5,376.9L303.5,376.9z"/>
			<path id="Path_9635" class="st38" d="M315,376.9c0,0.8-0.6,1.5-1.4,1.5s-1.5-0.6-1.5-1.4s0.6-1.5,1.4-1.5c0,0,0,0,0,0
				C314.4,375.4,315,376.1,315,376.9z"/>
			<path id="Path_9636" class="st38" d="M326.6,376.9c0,0.8-0.6,1.5-1.4,1.5s-1.5-0.6-1.5-1.4s0.6-1.5,1.4-1.5c0,0,0,0,0,0
				C325.9,375.4,326.6,376.1,326.6,376.9C326.6,376.9,326.6,376.9,326.6,376.9z"/>
			<path id="Path_9637" class="st38" d="M338.1,376.9c0,0.8-0.6,1.4-1.4,1.4s-1.4-0.6-1.4-1.4c0-0.8,0.6-1.4,1.4-1.4
				C337.5,375.4,338.1,376.1,338.1,376.9L338.1,376.9z"/>
			<path id="Path_9638" class="st38" d="M349.7,376.9c0,0.8-0.6,1.5-1.4,1.5s-1.5-0.6-1.5-1.4s0.6-1.5,1.4-1.5c0,0,0,0,0,0
				C349,375.4,349.7,376.1,349.7,376.9C349.7,376.9,349.7,376.9,349.7,376.9z"/>
			<path id="Path_9639" class="st38" d="M361.2,376.9c0,0.8-0.6,1.5-1.4,1.5s-1.5-0.6-1.5-1.4s0.6-1.5,1.4-1.5c0,0,0,0,0,0
				C360.6,375.4,361.2,376.1,361.2,376.9C361.2,376.9,361.2,376.9,361.2,376.9z"/>
			<path id="Path_9640" class="st38" d="M372.8,376.9c0,0.8-0.6,1.5-1.4,1.5s-1.5-0.6-1.5-1.4s0.6-1.5,1.4-1.5c0,0,0,0,0,0
				C372.1,375.4,372.7,376.1,372.8,376.9C372.8,376.9,372.8,376.9,372.8,376.9z"/>
			<path id="Path_9641" class="st38" d="M384.3,376.9c0,0.8-0.6,1.4-1.4,1.4s-1.4-0.6-1.4-1.4s0.6-1.4,1.4-1.4
				S384.3,376.1,384.3,376.9L384.3,376.9z"/>
			<path id="Path_9642" class="st38" d="M303.5,364.1c0,0.8-0.6,1.4-1.4,1.4s-1.4-0.6-1.4-1.4s0.6-1.4,1.4-1.4
				S303.5,363.3,303.5,364.1L303.5,364.1z"/>
			<path id="Path_9643" class="st38" d="M315,364.1c0,0.8-0.6,1.5-1.4,1.5s-1.5-0.6-1.5-1.4s0.6-1.5,1.4-1.5c0,0,0,0,0,0
				C314.4,362.6,315,363.3,315,364.1z"/>
			<path id="Path_9644" class="st38" d="M326.6,364.1c0,0.8-0.6,1.5-1.4,1.5s-1.5-0.6-1.5-1.4s0.6-1.5,1.4-1.5c0,0,0,0,0,0
				C325.9,362.6,326.6,363.3,326.6,364.1C326.6,364.1,326.6,364.1,326.6,364.1z"/>
			<path id="Path_9645" class="st38" d="M338.1,364.1c0,0.8-0.6,1.4-1.4,1.4s-1.4-0.6-1.4-1.4c0-0.8,0.6-1.4,1.4-1.4
				C337.5,362.6,338.1,363.3,338.1,364.1L338.1,364.1z"/>
			<path id="Path_9646" class="st38" d="M349.7,364.1c0,0.8-0.6,1.5-1.4,1.5s-1.5-0.6-1.5-1.4s0.6-1.5,1.4-1.5c0,0,0,0,0,0
				C349,362.6,349.7,363.3,349.7,364.1C349.7,364.1,349.7,364.1,349.7,364.1z"/>
			<path id="Path_9647" class="st38" d="M361.2,364.1c0,0.8-0.6,1.5-1.4,1.5s-1.5-0.6-1.5-1.4s0.6-1.5,1.4-1.5c0,0,0,0,0,0
				C360.6,362.6,361.2,363.3,361.2,364.1C361.2,364.1,361.2,364.1,361.2,364.1z"/>
			<path id="Path_9648" class="st38" d="M372.8,364.1c0,0.8-0.6,1.5-1.4,1.5s-1.5-0.6-1.5-1.4s0.6-1.5,1.4-1.5c0,0,0,0,0,0
				C372.1,362.6,372.7,363.3,372.8,364.1C372.8,364.1,372.8,364.1,372.8,364.1z"/>
			<path id="Path_9649" class="st38" d="M315,351.2c0,0.8-0.6,1.5-1.4,1.5s-1.5-0.6-1.5-1.4s0.6-1.5,1.4-1.5c0,0,0,0,0,0
				C314.4,349.8,315,350.4,315,351.2z"/>
			<path id="Path_9650" class="st38" d="M326.6,351.2c0,0.8-0.6,1.5-1.4,1.5s-1.5-0.6-1.5-1.4s0.6-1.5,1.4-1.5c0,0,0,0,0,0
				C325.9,349.8,326.6,350.4,326.6,351.2C326.6,351.2,326.6,351.2,326.6,351.2z"/>
			<path id="Path_9651" class="st38" d="M338.1,351.2c0,0.8-0.6,1.4-1.4,1.4s-1.4-0.6-1.4-1.4c0-0.8,0.6-1.4,1.4-1.4
				C337.5,349.8,338.1,350.4,338.1,351.2L338.1,351.2z"/>
			<path id="Path_9652" class="st38" d="M349.7,351.2c0,0.8-0.6,1.5-1.4,1.5s-1.5-0.6-1.5-1.4s0.6-1.5,1.4-1.5c0,0,0,0,0,0
				C349,349.8,349.7,350.4,349.7,351.2C349.7,351.2,349.7,351.2,349.7,351.2z"/>
			<path id="Path_9653" class="st38" d="M361.2,351.2c0,0.8-0.6,1.5-1.4,1.5s-1.5-0.6-1.5-1.4s0.6-1.5,1.4-1.5c0,0,0,0,0,0
				C360.6,349.8,361.2,350.4,361.2,351.2C361.2,351.2,361.2,351.2,361.2,351.2z"/>
			<path id="Path_9654" class="st38" d="M326.6,338.4c0,0.8-0.6,1.5-1.4,1.5s-1.5-0.6-1.5-1.4s0.6-1.5,1.4-1.5c0,0,0,0,0,0
				C325.9,337,326.6,337.6,326.6,338.4C326.6,338.4,326.6,338.4,326.6,338.4z"/>
			<path id="Path_9655" class="st38" d="M338.1,338.4c0,0.8-0.6,1.4-1.4,1.4s-1.4-0.6-1.4-1.4c0-0.8,0.6-1.4,1.4-1.4
				C337.5,337,338.1,337.6,338.1,338.4L338.1,338.4z"/>
			<path id="Path_9656" class="st38" d="M349.7,338.4c0,0.8-0.6,1.5-1.4,1.5s-1.5-0.6-1.5-1.4s0.6-1.5,1.4-1.5c0,0,0,0,0,0
				C349,337,349.7,337.6,349.7,338.4C349.7,338.4,349.7,338.4,349.7,338.4z"/>
			<path id="Path_9657" class="st38" d="M338.1,325.6c0,0.8-0.7,1.4-1.5,1.4s-1.4-0.7-1.4-1.5c0-0.8,0.6-1.4,1.4-1.4
				C337.5,324.1,338.1,324.8,338.1,325.6C338.1,325.6,338.1,325.6,338.1,325.6z"/>
		</g>
		<g id="Group_18988" transform="translate(1276.433 3745.849)" class="st37">
			<path id="Path_9622-2" class="st38" d="M280.4,325.4c0.1-0.8-0.5-1.5-1.3-1.6c-0.8-0.1-1.5,0.5-1.6,1.3c-0.1,0.8,0.5,1.5,1.3,1.6
				c0.1,0,0.1,0,0.2,0C279.7,326.8,280.4,326.2,280.4,325.4z"/>
			<path id="Path_9623-2" class="st38" d="M292,325.4c0.1-0.8-0.5-1.5-1.3-1.6c-0.8-0.1-1.5,0.5-1.6,1.3c-0.1,0.8,0.5,1.5,1.3,1.6
				c0.1,0,0.1,0,0.2,0C291.3,326.8,291.9,326.2,292,325.4z"/>
			<path id="Path_9624-2" class="st38" d="M303.5,325.4c0.1-0.8-0.5-1.5-1.3-1.6c-0.8-0.1-1.5,0.5-1.6,1.3c-0.1,0.8,0.5,1.5,1.3,1.6
				c0.1,0,0.1,0,0.2,0C302.8,326.8,303.5,326.2,303.5,325.4z"/>
			<path id="Path_9625-2" class="st38" d="M315,325.4c0.1-0.8-0.5-1.5-1.3-1.6c-0.8-0.1-1.5,0.5-1.6,1.3c-0.1,0.8,0.5,1.5,1.3,1.6
				c0.1,0,0.1,0,0.2,0C314.3,326.8,315,326.2,315,325.4z"/>
			<path id="Path_9626-2" class="st38" d="M326.6,325.4c0.1-0.8-0.5-1.5-1.3-1.6c-0.8-0.1-1.5,0.5-1.6,1.3c-0.1,0.8,0.5,1.5,1.3,1.6
				c0.1,0,0.1,0,0.2,0C325.9,326.8,326.5,326.2,326.6,325.4z"/>
			<path id="Path_9627-2" class="st38" d="M338.1,325.4c0.1-0.8-0.5-1.5-1.3-1.6c-0.8-0.1-1.5,0.5-1.6,1.3c-0.1,0.8,0.5,1.5,1.3,1.6
				c0.1,0,0.1,0,0.2,0C337.4,326.8,338.1,326.2,338.1,325.4z"/>
			<path id="Path_9628-2" class="st38" d="M349.7,325.4c0.1-0.8-0.5-1.5-1.3-1.6c-0.8-0.1-1.5,0.5-1.6,1.3c-0.1,0.8,0.5,1.5,1.3,1.6
				c0.1,0,0.1,0,0.2,0C349,326.8,349.6,326.2,349.7,325.4z"/>
			<path id="Path_9629-2" class="st38" d="M361.2,325.4c0.1-0.8-0.5-1.5-1.3-1.6c-0.8-0.1-1.5,0.5-1.6,1.3c-0.1,0.8,0.5,1.5,1.3,1.6
				c0.1,0,0.1,0,0.2,0C360.5,326.8,361.2,326.2,361.2,325.4z"/>
			<path id="Path_9630-2" class="st38" d="M372.8,325.4c0.1-0.8-0.5-1.5-1.3-1.6c-0.8-0.1-1.5,0.5-1.6,1.3c-0.1,0.8,0.5,1.5,1.3,1.6
				c0.1,0,0.1,0,0.2,0C372.1,326.8,372.7,326.2,372.8,325.4z"/>
			<path id="Path_9631-2" class="st38" d="M384.3,325.4c0.1-0.8-0.5-1.5-1.3-1.6c-0.8-0.1-1.5,0.5-1.6,1.3c-0.1,0.8,0.5,1.5,1.3,1.6
				c0.1,0,0.1,0,0.2,0C383.6,326.8,384.2,326.2,384.3,325.4z"/>
			<path id="Path_9632-2" class="st38" d="M395.8,325.4c0.1-0.8-0.5-1.5-1.3-1.6c-0.8-0.1-1.5,0.5-1.6,1.3c-0.1,0.8,0.5,1.5,1.3,1.6
				c0.1,0,0.1,0,0.2,0C395.1,326.8,395.8,326.2,395.8,325.4z"/>
			<path id="Path_9633-2" class="st38" d="M292,336.9c0.1-0.8-0.5-1.5-1.3-1.6c-0.8-0.1-1.5,0.5-1.6,1.3c-0.1,0.8,0.5,1.5,1.3,1.6
				c0.1,0,0.1,0,0.2,0C291.3,338.3,291.9,337.7,292,336.9z"/>
			<path id="Path_9634-2" class="st38" d="M303.5,336.9c0.1-0.8-0.5-1.5-1.3-1.6c-0.8-0.1-1.5,0.5-1.6,1.3c-0.1,0.8,0.5,1.5,1.3,1.6
				c0.1,0,0.1,0,0.2,0C302.8,338.3,303.5,337.7,303.5,336.9z"/>
			<path id="Path_9635-2" class="st38" d="M315,336.9c0.1-0.8-0.5-1.5-1.3-1.6c-0.8-0.1-1.5,0.5-1.6,1.3c-0.1,0.8,0.5,1.5,1.3,1.6
				c0.1,0,0.1,0,0.2,0C314.3,338.3,315,337.7,315,336.9z"/>
			<path id="Path_9636-2" class="st38" d="M326.6,336.9c0.1-0.8-0.5-1.5-1.3-1.6c-0.8-0.1-1.5,0.5-1.6,1.3c-0.1,0.8,0.5,1.5,1.3,1.6
				c0.1,0,0.1,0,0.2,0C325.9,338.3,326.5,337.7,326.6,336.9z"/>
			<path id="Path_9637-2" class="st38" d="M338.1,336.9c0.1-0.8-0.5-1.5-1.3-1.6c-0.8-0.1-1.5,0.5-1.6,1.3c-0.1,0.8,0.5,1.5,1.3,1.6
				c0.1,0,0.1,0,0.2,0C337.4,338.3,338.1,337.7,338.1,336.9z"/>
			<path id="Path_9638-2" class="st38" d="M349.7,336.9c0.1-0.8-0.5-1.5-1.3-1.6c-0.8-0.1-1.5,0.5-1.6,1.3c-0.1,0.8,0.5,1.5,1.3,1.6
				c0.1,0,0.1,0,0.2,0C349,338.3,349.6,337.7,349.7,336.9z"/>
			<path id="Path_9639-2" class="st38" d="M361.2,336.9c0.1-0.8-0.5-1.5-1.3-1.6c-0.8-0.1-1.5,0.5-1.6,1.3c-0.1,0.8,0.5,1.5,1.3,1.6
				c0.1,0,0.1,0,0.2,0C360.5,338.3,361.2,337.7,361.2,336.9z"/>
			<path id="Path_9640-2" class="st38" d="M372.8,336.9c0.1-0.8-0.5-1.5-1.3-1.6c-0.8-0.1-1.5,0.5-1.6,1.3c-0.1,0.8,0.5,1.5,1.3,1.6
				c0.1,0,0.1,0,0.2,0C372.1,338.3,372.7,337.7,372.8,336.9z"/>
			<path id="Path_9641-2" class="st38" d="M384.3,336.9c0.1-0.8-0.5-1.5-1.3-1.6c-0.8-0.1-1.5,0.5-1.6,1.3c-0.1,0.8,0.5,1.5,1.3,1.6
				c0.1,0,0.1,0,0.2,0C383.6,338.3,384.2,337.7,384.3,336.9z"/>
			<path id="Path_9642-2" class="st38" d="M303.5,348.4c0.1-0.8-0.5-1.5-1.3-1.6c-0.8-0.1-1.5,0.5-1.6,1.3c-0.1,0.8,0.5,1.5,1.3,1.6
				c0.1,0,0.1,0,0.2,0C302.8,349.8,303.5,349.2,303.5,348.4z"/>
			<path id="Path_9643-2" class="st38" d="M315,348.4c0.1-0.8-0.5-1.5-1.3-1.6c-0.8-0.1-1.5,0.5-1.6,1.3c-0.1,0.8,0.5,1.5,1.3,1.6
				c0.1,0,0.1,0,0.2,0C314.3,349.8,315,349.2,315,348.4z"/>
			<path id="Path_9644-2" class="st38" d="M326.6,348.4c0.1-0.8-0.5-1.5-1.3-1.6c-0.8-0.1-1.5,0.5-1.6,1.3c-0.1,0.8,0.5,1.5,1.3,1.6
				c0.1,0,0.1,0,0.2,0C325.9,349.8,326.5,349.2,326.6,348.4z"/>
			<path id="Path_9645-2" class="st38" d="M338.1,348.4c0.1-0.8-0.5-1.5-1.3-1.6c-0.8-0.1-1.5,0.5-1.6,1.3c-0.1,0.8,0.5,1.5,1.3,1.6
				c0.1,0,0.1,0,0.2,0C337.4,349.8,338.1,349.2,338.1,348.4z"/>
			<path id="Path_9646-2" class="st38" d="M349.7,348.4c0.1-0.8-0.5-1.5-1.3-1.6c-0.8-0.1-1.5,0.5-1.6,1.3c-0.1,0.8,0.5,1.5,1.3,1.6
				c0.1,0,0.1,0,0.2,0C349,349.8,349.6,349.2,349.7,348.4z"/>
			<path id="Path_9647-2" class="st38" d="M361.2,348.4c0.1-0.8-0.5-1.5-1.3-1.6c-0.8-0.1-1.5,0.5-1.6,1.3c-0.1,0.8,0.5,1.5,1.3,1.6
				c0.1,0,0.1,0,0.2,0C360.5,349.8,361.2,349.2,361.2,348.4z"/>
			<path id="Path_9648-2" class="st38" d="M372.8,348.4c0.1-0.8-0.5-1.5-1.3-1.6c-0.8-0.1-1.5,0.5-1.6,1.3c-0.1,0.8,0.5,1.5,1.3,1.6
				c0.1,0,0.1,0,0.2,0C372.1,349.8,372.7,349.2,372.8,348.4z"/>
			<path id="Path_9649-2" class="st38" d="M315,359.9c0.1-0.8-0.5-1.5-1.3-1.6c-0.8-0.1-1.5,0.5-1.6,1.3c-0.1,0.8,0.5,1.5,1.3,1.6
				c0.1,0,0.1,0,0.2,0C314.3,361.2,315,360.7,315,359.9z"/>
			<path id="Path_9650-2" class="st38" d="M326.6,359.9c0.1-0.8-0.5-1.5-1.3-1.6c-0.8-0.1-1.5,0.5-1.6,1.3c-0.1,0.8,0.5,1.5,1.3,1.6
				c0.1,0,0.1,0,0.2,0C325.9,361.2,326.5,360.7,326.6,359.9z"/>
			<path id="Path_9651-2" class="st38" d="M338.1,359.9c0.1-0.8-0.5-1.5-1.3-1.6c-0.8-0.1-1.5,0.5-1.6,1.3c-0.1,0.8,0.5,1.5,1.3,1.6
				c0.1,0,0.1,0,0.2,0C337.4,361.2,338.1,360.7,338.1,359.9z"/>
			<path id="Path_9652-2" class="st38" d="M349.7,359.9c0.1-0.8-0.5-1.5-1.3-1.6c-0.8-0.1-1.5,0.5-1.6,1.3c-0.1,0.8,0.5,1.5,1.3,1.6
				c0.1,0,0.1,0,0.2,0C349,361.2,349.6,360.7,349.7,359.9z"/>
			<path id="Path_9653-2" class="st38" d="M361.2,359.9c0.1-0.8-0.5-1.5-1.3-1.6c-0.8-0.1-1.5,0.5-1.6,1.3c-0.1,0.8,0.5,1.5,1.3,1.6
				c0.1,0,0.1,0,0.2,0C360.5,361.2,361.2,360.7,361.2,359.9z"/>
			<path id="Path_9654-2" class="st38" d="M326.6,371.4c0.1-0.8-0.5-1.5-1.3-1.6c-0.8-0.1-1.5,0.5-1.6,1.3c-0.1,0.8,0.5,1.5,1.3,1.6
				c0.1,0,0.1,0,0.2,0C325.9,372.7,326.5,372.1,326.6,371.4z"/>
			<path id="Path_9655-2" class="st38" d="M338.1,371.4c0.1-0.8-0.5-1.5-1.3-1.6c-0.8-0.1-1.5,0.5-1.6,1.3c-0.1,0.8,0.5,1.5,1.3,1.6
				c0.1,0,0.1,0,0.2,0C337.4,372.7,338.1,372.1,338.1,371.4z"/>
			<path id="Path_9656-2" class="st38" d="M349.7,371.4c0.1-0.8-0.5-1.5-1.3-1.6c-0.8-0.1-1.5,0.5-1.6,1.3c-0.1,0.8,0.5,1.5,1.3,1.6
				c0.1,0,0.1,0,0.2,0C349,372.7,349.6,372.1,349.7,371.4z"/>
			<path id="Path_9657-2" class="st38" d="M338.1,382.9c0.1-0.8-0.5-1.5-1.3-1.6c-0.8-0.1-1.5,0.5-1.6,1.3c-0.1,0.8,0.5,1.5,1.3,1.6
				c0.1,0,0.1,0,0.2,0C337.4,384.2,338.1,383.6,338.1,382.9z"/>
		</g>
		<g id="Group_18985" transform="translate(333.457 4076.306)" class="st39">
			<g id="Group_18980" transform="translate(321.543 357.318)">
				<g id="Group_18977" transform="translate(0 5.004)">
					<path id="Path_9610" class="st40" d="M-141,1l20.6,20.6v48.2"/>
					
						<linearGradient id="Path_9611_1_" gradientUnits="userSpaceOnUse" x1="-572.1619" y1="88.4279" x2="-571.1619" y2="88.4279" gradientTransform="matrix(2.016 0 0 -2.016 844.5498 179.2759)">
						<stop  offset="0" style="stop-color:#31FFF9"/>
						<stop  offset="1" style="stop-color:#39BDFF"/>
					</linearGradient>
					<path id="Path_9611" class="st41" d="M-140,1c0-0.6-0.5-1-1-1s-1,0.5-1,1s0.5,1,1,1l0,0C-140.5,2-140,1.6-140,1
						C-140,1-140,1-140,1z"/>
				</g>
				<g id="Group_18978" transform="translate(4.188 2.502)">
					<path id="Path_9612" class="st40" d="M-141,1l20.6,20.6v50.7"/>
					
						<linearGradient id="Path_9613_1_" gradientUnits="userSpaceOnUse" x1="-576.8293" y1="90.9846" x2="-575.8293" y2="90.9846" gradientTransform="matrix(2.014 0 0 -2.014 852.8835 184.2517)">
						<stop  offset="0" style="stop-color:#31FFF9"/>
						<stop  offset="1" style="stop-color:#39BDFF"/>
					</linearGradient>
					<path id="Path_9613" class="st42" d="M-140,1c0-0.6-0.5-1-1-1s-1,0.5-1,1c0,0.6,0.5,1,1,1C-140.5,2-140,1.6-140,1z"/>
				</g>
				<g id="Group_18979" transform="translate(8.374)">
					<path id="Path_9614" class="st40" d="M-141,1l20.6,20.6v53.2"/>
					
						<linearGradient id="Path_9615_1_" gradientUnits="userSpaceOnUse" x1="-581.0087" y1="93.4858" x2="-580.0087" y2="93.4858" gradientTransform="matrix(2.014 0 0 -2.014 861.316 189.2909)">
						<stop  offset="0" style="stop-color:#31FFF9"/>
						<stop  offset="1" style="stop-color:#39BDFF"/>
					</linearGradient>
					<path id="Path_9615" class="st43" d="M-140,1c0-0.6-0.5-1-1-1s-1,0.5-1,1c0,0.6,0.5,1,1,1C-140.5,2-140,1.6-140,1z"/>
				</g>
			</g>
			<g id="Group_18984" transform="translate(367.357 309.232)">
				<g id="Group_18981" transform="translate(13.59 8.12)">
					<path id="Path_9616" class="st40" d="M-108.6,1.6l-33.5,33.5v78.2"/>
					
						<linearGradient id="Path_9617_1_" gradientUnits="userSpaceOnUse" x1="648.4291" y1="112.0927" x2="649.4291" y2="112.0927" gradientTransform="matrix(3.27 0 0 -3.27 1135.0778 368.1822)">
						<stop  offset="0" style="stop-color:#31FFF9"/>
						<stop  offset="1" style="stop-color:#39BDFF"/>
					</linearGradient>
					<path id="Path_9617" class="st44" d="M-110.2,1.6c0-0.9,0.7-1.6,1.6-1.6s1.6,0.7,1.6,1.6s-0.7,1.6-1.6,1.6l0,0
						C-109.5,3.3-110.2,2.5-110.2,1.6z"/>
				</g>
				<g id="Group_18982" transform="translate(6.795 4.061)">
					<path id="Path_9618" class="st40" d="M-108.6,1.6l-33.5,33.5v82.3"/>
					
						<linearGradient id="Path_9619_1_" gradientUnits="userSpaceOnUse" x1="658.9572" y1="116.1306" x2="659.9572" y2="116.1306" gradientTransform="matrix(3.272 0 0 -3.272 1113.0664 381.6161)">
						<stop  offset="0" style="stop-color:#31FFF9"/>
						<stop  offset="1" style="stop-color:#39BDFF"/>
					</linearGradient>
					<path id="Path_9619" class="st45" d="M-110.2,1.6c0-0.9,0.7-1.6,1.6-1.6s1.6,0.7,1.6,1.6s-0.7,1.6-1.6,1.6c0,0,0,0,0,0
						C-109.5,3.3-110.2,2.5-110.2,1.6C-110.2,1.6-110.2,1.6-110.2,1.6z"/>
				</g>
				<g id="Group_18983">
					<path id="Path_9620" class="st40" d="M-108.6,1.6l-33.5,33.5v86.4"/>
					
						<linearGradient id="Path_9621_1_" gradientUnits="userSpaceOnUse" x1="670.334" y1="120.2127" x2="671.334" y2="120.2127" gradientTransform="matrix(3.27 0 0 -3.27 1090.6372 394.7327)">
						<stop  offset="0" style="stop-color:#31FFF9"/>
						<stop  offset="1" style="stop-color:#39BDFF"/>
					</linearGradient>
					<path id="Path_9621" class="st46" d="M-110.2,1.6c0-0.9,0.7-1.6,1.6-1.6s1.6,0.7,1.6,1.6s-0.7,1.6-1.6,1.6l0,0
						C-109.5,3.3-110.2,2.5-110.2,1.6z"/>
				</g>
			</g>
		</g>
		<g id="Group_18986" transform="translate(906.457 3774.306)">
			<g id="Group_18980-2" transform="translate(348.543 287.446)" class="st47">
				<g id="Group_18977-2" transform="translate(0 0)">
					<path id="Path_9610-2" class="st40" d="M-141.1,60l19.5-18V0"/>
					
						<linearGradient id="Path_9611-2_1_" gradientUnits="userSpaceOnUse" x1="-1196.9252" y1="468.4242" x2="-1195.9252" y2="468.4242" gradientTransform="matrix(1.9081 0 0 -1.9088 1983.8695 954.2028)">
						<stop  offset="0" style="stop-color:#31FFF9"/>
						<stop  offset="1" style="stop-color:#39BDFF"/>
					</linearGradient>
					<path id="Path_9611-2" class="st48" d="M-140.2,60c0,0.5-0.4,1-0.9,1c-0.5,0-1-0.4-1-0.9c0-0.5,0.4-1,0.9-1c0,0,0.1,0,0.1,0
						C-140.6,59.1-140.2,59.5-140.2,60z"/>
				</g>
				<g id="Group_18978-2" transform="translate(3.951 0)">
					<path id="Path_9612-2" class="st40" d="M-141.1,62.2l19.5-18V0"/>
					
						<linearGradient id="Path_9613-2_1_" gradientUnits="userSpaceOnUse" x1="-1201.4132" y1="468.4871" x2="-1200.4132" y2="468.4871" gradientTransform="matrix(1.9061 0 0 -1.9067 1990.0895 955.546)">
						<stop  offset="0" style="stop-color:#31FFF9"/>
						<stop  offset="1" style="stop-color:#39BDFF"/>
					</linearGradient>
					<path id="Path_9613-2" class="st49" d="M-140.2,62.2c0,0.5-0.4,1-0.9,1c-0.5,0-1-0.4-1-0.9c0-0.5,0.4-1,0.9-1c0,0,0,0,0.1,0
						C-140.6,61.3-140.2,61.7-140.2,62.2z"/>
				</g>
				<g id="Group_18979-2" transform="translate(7.901 0)">
					<path id="Path_9614-2" class="st40" d="M-141.1,64.4l19.5-18V0"/>
					
						<linearGradient id="Path_9615-2_1_" gradientUnits="userSpaceOnUse" x1="-1205.3706" y1="468.489" x2="-1204.3706" y2="468.489" gradientTransform="matrix(1.9061 0 0 -1.9067 1997.5985 957.701)">
						<stop  offset="0" style="stop-color:#31FFF9"/>
						<stop  offset="1" style="stop-color:#39BDFF"/>
					</linearGradient>
					<path id="Path_9615-2" class="st50" d="M-140.2,64.4c0,0.5-0.4,1-0.9,1c-0.5,0-1-0.4-1-0.9c0-0.5,0.4-1,0.9-1c0,0,0,0,0.1,0
						C-140.6,63.5-140.2,63.9-140.2,64.4z"/>
				</g>
			</g>
			<g id="Group_18984-2" transform="translate(388.357 285.694)">
				<g id="Group_18981-2" transform="translate(13.59 0)">
					<path id="Path_9616-2" class="st40" d="M-108.6,103.2l-33.5-30.9V0"/>
					
						<linearGradient id="Path_9617-2_1_" gradientUnits="userSpaceOnUse" x1="55.2632" y1="445.6341" x2="56.2632" y2="445.6341" gradientTransform="matrix(3.2802 0 0 -3.2812 3084.605 1565.571)">
						<stop  offset="0" style="stop-color:#31FFF9"/>
						<stop  offset="1" style="stop-color:#39BDFF"/>
					</linearGradient>
					<path id="Path_9617-2" class="st51" d="M-110.2,103.2c-0.1,0.9,0.6,1.7,1.5,1.8c0.9,0.1,1.7-0.6,1.8-1.5
						c0.1-0.9-0.6-1.7-1.5-1.8c0,0-0.1,0-0.1,0C-109.5,101.7-110.2,102.4-110.2,103.2z"/>
				</g>
				<g id="Group_18982-2" transform="translate(6.795 0)">
					<path id="Path_9618-2" class="st40" d="M-108.6,107l-33.5-30.9V0"/>
					
						<linearGradient id="Path_9619-2_1_" gradientUnits="userSpaceOnUse" x1="65.7903" y1="445.6122" x2="66.7903" y2="445.6122" gradientTransform="matrix(3.2822 0 0 -3.2833 3063.7212 1570.1895)">
						<stop  offset="0" style="stop-color:#31FFF9"/>
						<stop  offset="1" style="stop-color:#39BDFF"/>
					</linearGradient>
					<path id="Path_9619-2" class="st52" d="M-110.2,107c-0.1,0.9,0.6,1.7,1.5,1.8c0.9,0.1,1.7-0.6,1.8-1.5c0.1-0.9-0.6-1.7-1.5-1.8
						c0,0-0.1,0-0.1,0C-109.5,105.4-110.2,106.1-110.2,107z"/>
				</g>
				<g id="Group_18983-2" transform="translate(0 0)">
					<path id="Path_9620-2" class="st40" d="M-108.6,110.7l-33.5-30.9V0"/>
					
						<linearGradient id="Path_9621-2_1_" gradientUnits="userSpaceOnUse" x1="77.1681" y1="445.6334" x2="78.1681" y2="445.6334" gradientTransform="matrix(3.2802 0 0 -3.2813 3040.0266 1573.1001)">
						<stop  offset="0" style="stop-color:#31FFF9"/>
						<stop  offset="1" style="stop-color:#39BDFF"/>
					</linearGradient>
					<path id="Path_9621-2" class="st53" d="M-110.2,110.7c-0.1,0.9,0.6,1.7,1.5,1.8c0.9,0.1,1.7-0.6,1.8-1.5
						c0.1-0.9-0.6-1.7-1.5-1.8c0,0-0.1,0-0.1,0C-109.5,109.2-110.2,109.9-110.2,110.7z"/>
				</g>
			</g>
		</g>
	</g>
	<g id="Group_19498" transform="translate(1049.099 4523.43)">
		<g id="Group_19497" transform="translate(112.915 271.237)">
			<g id="Group_19474" transform="translate(31.406 23.541)">
				<g id="Group_19473" transform="translate(0 25.778)">
					<path id="Path_10263" class="st54" d="M260,34.2L109.2,160.4L29.8,92.8C14.9,105.9-8,126.1-31.1,146.3
						c-15.8,13.8-28.5,25-38.9,34.1l-72.1-0.1c20-17,100.5-87.7,154.7-135.5l16.6-14.6l80.2,68.3L227.2,0L260,34.2z"/>
				</g>
				<path id="Path_10264" class="st54" d="M208.1,10.3L280,82.3L300.2,0L208.1,10.3z"/>
			</g>
			<g id="Group_19488" transform="translate(118.016 127.729)">
				<g id="Group_19482" transform="translate(13.252)">
					<g id="Group_19480">
						<path id="Path_10265" class="st55" d="M-127.3,57.9c-0.2-5.5-0.7-10.9-1.5-16.3c-1.1-6.4-2.1-10.1-2.1-10.1
							c-0.1-0.6-2.2-2.8-6.9-2.8s-4.2,3-4.2,3l0,0c0,0.1,0,0.2,0,0.3c2.9,11.7,4.3,23.7,4.1,35.8c0,0.3,0,0.8,0,1.1
							c0,0,10.8,0.3,10.8,0C-126.7,67.1-126.9,62.3-127.3,57.9z"/>
						<path id="Path_10266" class="st56" d="M-125.9,67.7c0,0.3-0.2,0.5-0.3,0.5l0,0c-0.2,0-0.3-0.2-0.3-0.5h-9.3
							c0,0.3-0.2,0.5-0.3,0.5l0,0c-0.2,0-0.3-0.2-0.3-0.5c0-5.3-0.2-10.6-0.8-15.8c-0.6-6.7-1.8-13.3-3.5-19.8c0-0.1,0-0.2,0-0.3
							c0,0-0.4-3,4.2-3s6.8,2.2,6.9,2.8c0,0,0.6,2.1,1.3,5.8c0.2,1.2,0.5,2.7,0.8,4.2c0.8,5.4,1.4,10.9,1.5,16.3
							C-125.7,62.3-125.5,65.9-125.9,67.7z"/>
						<path id="Path_10267" class="st57" d="M-137.2,68.2h36.3c0,0-0.8-3.4-21.9-2.9C-137.6,65.6-137.2,68.2-137.2,68.2z"/>
						<g id="Group_19475" transform="translate(1.921 68.713)">
							<path id="Path_10268" class="st55" d="M-142.1,35.3c4.2-21.3,3.1-34.4,3.1-34.6c0-0.3,0.6-0.6,0.9-0.6s1.8-0.1,2,0.2
								c0.2,0.4,1.1,16.5-5.2,35H-142.1z"/>
						</g>
						<g id="Group_19476" transform="translate(29.699 68.713)">
							<path id="Path_10269" class="st55" d="M-135.9,35.3c-4.2-21.3-3.1-34.4-3.1-34.6c0-0.3-0.6-0.6-0.9-0.6s-1.8-0.1-2,0.2
								c-0.2,0.4-1.1,16.5,5.2,35H-135.9z"/>
						</g>
						<g id="Group_19477" transform="translate(36.425 68.713)">
							<path id="Path_10270" class="st55" d="M-135.9,35.3c-4.2-21.3-3.1-34.4-3.1-34.6c0-0.3-0.6-0.6-0.9-0.6s-1.8-0.1-2,0.2
								c-0.2,0.4-1.1,16.5,5.2,35H-135.9z"/>
						</g>
						<g id="Group_19478" transform="translate(8.692 68.713)">
							<path id="Path_10271" class="st55" d="M-142.1,35.3c4.2-21.3,3.1-34.4,3.1-34.6c0-0.3,0.6-0.6,0.9-0.6s1.8-0.1,2,0.2
								c0.2,0.4,1.1,16.5-5.2,35H-142.1z"/>
						</g>
						<path id="Rectangle_8870" class="st55" d="M-136.9,67.3h35.9c0.5,0,1,0.4,1,1l0,0c0,0.5-0.4,1-1,1h-35.9c-0.5,0-1-0.4-1-1
							c0,0,0,0,0,0l0,0C-137.9,67.7-137.5,67.3-136.9,67.3C-136.9,67.3-136.9,67.3-136.9,67.3z"/>
						<g id="Group_19479" transform="translate(7.086)">
							<path id="Path_10272" class="st58" d="M-109.2,36.4l12.1-2.6l0.7,1.7c0,0-13.3,7.9-14.6,7.5S-109.2,36.4-109.2,36.4z"/>
							<path id="Path_10273" class="st58" d="M-120.2,91.1c-0.3,0.3-0.4,0.8-0.2,1.1c0,0,0,0,0,0c0.5,1,1.3,1.8,2.3,2.5
								c0.1,0.1,0.3,0.2,0.4,0.3c0,0,0.1,0,0.1,0.1l0.1,0.1c1,0.9,0.6,1.1,2.4,3c2,2.1,3.4,2.2,3.8,2c0.3-0.2-0.3-1.3-1.1-2.5
								c0-0.1-0.1-0.1-0.1-0.2c-0.1-0.2-0.2-0.3-0.3-0.5c-0.9-1.5-0.7-2.2-0.4-4.5c0.2-1.8,2.9-10.2,2.9-10.2l-3.9-0.7
								c0,0-1.2,6.7-2.5,7.7c-0.7,0.5-1.5,0.6-2.1,1c0,0-0.1,0.1-0.1,0.1C-119.5,90.5-119.8,90.8-120.2,91.1z"/>
							<path id="Path_10274" class="st59" d="M-120.2,91.1c-0.3,0.3-0.4,0.8-0.2,1.1c0,0,0,0,0,0c0.6,1,1.3,1.8,2.3,2.5
								c0.1,0.1,0.3,0.2,0.4,0.3c0,0,0.1,0,0.1,0.1l0.1,0.1c1,0.9,0.6,1.1,2.4,3c2,2.1,3.4,2.2,3.8,2c0.3-0.2-0.3-1.3-1.1-2.5
								c-1.4-0.6-2.7-1.5-3.6-2.7c-1.2-1.6-2-3.6-2.9-4.7c0,0-0.1,0.1-0.1,0.1C-119.5,90.5-119.8,90.8-120.2,91.1z"/>
							<path id="Path_10275" class="st58" d="M-88.8,88.7c0.2,1.2,2,1,3.9,0.5s1.5,0.1,4.2-0.2s3.5-1.3,3.6-1.7
								c0.1-0.4-1.3-0.5-2.7-0.7c-0.2,0-0.4,0-0.5-0.1c-1.6-0.2-2.8-1.3-4.3-2.1c-1.4-0.8-3.5-4.1-3.5-4.1l-3.7,0.3c0,0,2,3,2.7,4.3
								c0.4,0.8,0.5,1.7,0.4,2.5C-88.8,87.8-88.8,88.2-88.8,88.7z"/>
							<path id="Path_10276" class="st59" d="M-84.9,89.2c1.9-0.5,1.5,0.1,4.2-0.2s3.5-1.3,3.6-1.7c0.1-0.4-1.3-0.5-2.7-0.7l0,0
								c-1.2,0.7-2.5,1.2-3.9,1.2c-1.8,0-3.8-0.5-5.1-0.5c0,0.4,0,0.9,0,1.3C-88.5,89.9-86.8,89.7-84.9,89.2z"/>
							<path id="Path_10277" class="st58" d="M-97.1,33.8c0,0,0.9-2.2,1.9-2.3s4.1-0.6,4.3-0.1c0.2,0.9-0.1,1.9-0.7,2.6
								c-0.7,0.6-4.8,1.5-4.8,1.5L-97.1,33.8z"/>
							<path id="Path_10278" class="st60" d="M-103.1,64.8l-8,21.7c-0.8,0.1-1.6,0-2.4-0.2c-0.8-0.3-1.6-0.7-2.3-1.1
								c0,0,2-20.8,5.7-25.1S-103.1,64.8-103.1,64.8z"/>
							<path id="Path_10279" class="st59" d="M-134.9,56c0,0,23.1-7.8,28.3-6.2S-86,82.3-86,82.3c-0.4,0.4-0.8,0.7-1.3,0.8
								c-1,0.2-2,0.3-3,0.3c0,0-14-12-15.6-15.5s-2.3-6.8-4-6.5s-21.5,8.2-25.9,3.5c-2.7-2.9-3.9-6.8-3.3-10.7L-134.9,56z"/>
							<path id="Path_10280" class="st61" d="M-121.7,0.9c-0.9-0.5-2-0.7-3-0.6c0.2-0.2,0.4-0.3,0.6-0.3c-0.6,0-1.2,0.2-1.7,0.4
								c-7.2-2.8-8.4,7.9-8.2,10.3s0.2,5.3-3.4,7.5c-7.1,4.4-1.1,12-1.1,12c0.1,0,3.3,5.5,3.3,5.5c-0.2-2,9-12.5,13.8-15.7
								c0.9-1.6,1.4-3.3,1.6-5c-0.1,1.6-0.4,3.1-1,4.5C-116.7,15.9-119.1,2.4-121.7,0.9z"/>
							<path id="Path_10281" class="st58" d="M-121.7,20.3c-1.2,0.7-2.7,0.9-4.1,0.7c-1.2-0.5-2.2-1.4-2.7-2.6
								c0.7-0.1,0.9-1.1,0.9-5.3l0.3,0.1l5.3,1.1c0,0-0.1,1.7-0.1,3.3C-122.1,18.9-122,20.2-121.7,20.3z"/>
							<path id="Path_10282" class="st62" d="M-122,14.3c0,0-0.1,1.7-0.1,3.3c-3-0.1-4.6-2.8-5.2-4.3L-122,14.3z"/>
							<path id="Path_10283" class="st61" d="M-127.8,12.7c-0.9-1.4-1.5-3-1.9-4.6c-0.3-1.5,0.5-7.1,6.1-6.3
								c1.1,0.2,2.2,0.6,3.2,1.2c1.2,0.8,3,2.6,1,7.5l-0.5,1.7L-127.8,12.7z"/>
							<path id="Path_10284" class="st58" d="M-121,15.8c0,0-7.1,0.1-7.1-4.3s-0.9-7.4,3.6-7.6c4.5-0.3,5.4,1.4,5.8,2.9
								S-119.1,15.7-121,15.8z"/>
							<path id="Path_10285" class="st61" d="M-121.2,3.8c0,0-1.9,5.2-4.9,5.9c-3,0.8-4.3,0-4.3,0c1.5-1.3,2.4-3,2.8-5
								C-127.6,4.7-122.7,1.3-121.2,3.8z"/>
							<path id="Path_10286" class="st61" d="M-121.7,4.2c0.8,0.6,1.4,1.4,1.8,2.3c0.4,1.1,0.5,3.4,1.2,3.4c0,0,1.5-3.5-0.2-5.5
								C-120.6,2.2-121.7,4.2-121.7,4.2z"/>
							<path id="Path_10287" class="st59" d="M-137.4,39.3c-0.7-2.9,1.7-8.6,4.2-13.3c2.2-4.3,4.6-7.7,4.8-7.6
								c5.9,3.5,6.5,0.6,6.5,0.6l0,0c0,0,5.4,0.7,6.9,3.3c1.9,3.3,3.9,12.4,6,14.1c-0.3,0.9-0.2,1.8,0.2,2.6
								c0.1,0.3,0.1,0.5,0.2,0.7c0.3,0.7,0.6,1.4,1,2.1c-1,0.6-3,1.8-4.5,1c-2.2-1.3-4-5.3-5-6.9l0,0c-2.1,12.1,0.8,14.8-0.7,16.1
								c-1.6,1.3-3.8-0.6-8.7,1.5c-3.2,1.4-7.6,3.4-10.6,3.7c-1.6,0.2-2.7-0.1-3.1-1.1C-141.4,53.1-136.1,44.9-137.4,39.3z"/>
							<path id="Path_10288" class="st63" d="M-122.5,13.1c0,0,0.1,0.6,1.5,0.5c0,0,1.2-0.1,1.1-0.7
								C-120.8,12.7-121.7,12.7-122.5,13.1z"/>
							<path id="Path_10289" class="st60" d="M-140.3,56.2c0.4,1.1,1.6,1.3,3.1,1.1c2.1-0.9,11-4.4,10.9-6.7
								c-0.1-3.5-1.7-3.6-0.6-7.9c0.9-3.4-7.4-9.8-8.7-11.2c-2.5,4.7-2.5,4.9-1.8,7.8C-136.1,44.9-141.4,53.1-140.3,56.2z"/>
							<path id="Path_10290" class="st59" d="M-141.3,43.6c1.1-1.6,2.6-3,4.3-4c-0.3-0.6,6.7-9.1,6.7-10.4c0-1.3,1.8-10.8,1.8-10.8
								s-5.8,0.4-7.8,3.1C-138.8,25.1-143.9,38.5-141.3,43.6z"/>
							<path id="Path_10291" class="st58" d="M-137,39.6l11.5,3l-1.1,1.9c0,0-14-0.1-14.8-1S-137,39.6-137,39.6z"/>
							<path id="Path_10292" class="st60" d="M-117.2,36c1,1.6,2.7,5.6,5,6.9c1.5,0.9,3.5-0.3,4.5-1c-0.4-0.7-0.7-1.4-1-2.1
								c-0.8,0.2-1.8,0.4-2.5,0.6C-112.5,40.8-117.2,36-117.2,36z"/>
							<path id="Path_10293" class="st58" d="M-125.5,42.6c0,0,3.6-1,4.5-0.8s3.8,2.2,3.4,2.7s-3-0.3-4.2-0.2s-2.1,0.8-3,0.6
								c-0.6-0.1-1.2-0.3-1.8-0.5L-125.5,42.6z"/>
							<path id="Path_10294" class="st58" d="M-125.5,42.6c0.8-0.4,1.6-0.9,2.3-1.4c0.1-0.1,0.1-0.1,0.2,0c0,0,0,0,0,0
								c0.1,0.2,0.3,0.6-0.4,1C-124,42.6-124.8,42.7-125.5,42.6z"/>
						</g>
					</g>
					<g id="Group_19481" transform="translate(23.482 29.344)">
						<path id="Path_10295" class="st64" d="M-125.2,18.4h-16.9c0-0.7,0.6-1.3,1.3-1.3h15.5L-125.2,18.4z"/>
						<path id="Path_10296" class="st64" d="M-125.2,0h26.1l-6.3,18.4h-26.3L-125.2,0z"/>
						<path id="Path_10297" class="st65" d="M-98.7,0l-6.3,18.4h-26.3l6.4-18.4H-98.7z"/>
						<path id="Path_10298" class="st66" d="M-112.8,9c-0.2,0.7-0.8,1.2-1.6,1.3c-0.5,0-1-0.4-1-0.9c0-0.1,0-0.2,0-0.3
							c0.2-0.7,0.8-1.2,1.6-1.3c0.5,0,1,0.4,1,0.9C-112.8,8.8-112.8,8.9-112.8,9z"/>
						<path id="Path_10299" class="st64" d="M-98.7,0l-6.3,18.4h-17.4c11.5-3.9,14.6-15.9,15.1-18.4H-98.7z"/>
					</g>
				</g>
				<g id="Group_19487" transform="translate(0 47.72)">
					<g id="Group_19484" transform="translate(3.807 2.837)">
						<g id="Group_19483">
							<path id="Path_10300" class="st67" d="M-141.6,53.4c0.3,0,0.6-0.2,0.7-0.5l3.3-18.6l4.7-26.7l1.3-7.5l-3.4-0.1l-0.6,4.3
								l-4.1,30.5l-2.4,18.1C-142.1,53.1-141.9,53.4-141.6,53.4C-141.6,53.4-141.6,53.4-141.6,53.4z"/>
						</g>
						<path id="Path_10301" class="st68" d="M-135.5,4.3c1.3,0.6,2.3,1.8,2.6,3.2l1.3-7.5L-135,0L-135.5,4.3z"/>
					</g>
					<g id="Group_19486" transform="translate(77.821 2.837)">
						<g id="Group_19485">
							<path id="Path_10302" class="st67" d="M-132.1,53.4c-0.3,0-0.6-0.2-0.7-0.5l-3.3-18.6l-4.7-26.7l-1.3-7.5l3.4-0.1l0.6,4.3
								l4.1,30.5l2.4,18.1C-131.6,53.1-131.7,53.4-132.1,53.4C-132,53.4-132.1,53.4-132.1,53.4z"/>
						</g>
						<path id="Path_10303" class="st68" d="M-138.1,4.3c-1.3,0.6-2.3,1.8-2.6,3.2l-1.3-7.5l3.4-0.1L-138.1,4.3z"/>
					</g>
					<path id="Rectangle_8871" class="st68" d="M-54.9,5.9h-84.2c-1.6,0-2.9-1.3-2.9-2.9l0,0c0-1.6,1.3-2.9,2.9-2.9h84.2
						c1.6,0,2.9,1.3,2.9,2.9c0,0,0,0,0,0l0,0C-52,4.6-53.3,5.9-54.9,5.9C-54.9,5.9-54.9,5.9-54.9,5.9z"/>
				</g>
			</g>
			<path id="Rectangle_8872" class="st69" d="M-141.4,230.2h505.3c0.4,0,0.7,0.3,0.7,0.7l0,0c0,0.4-0.3,0.7-0.7,0.7h-505.3
				c-0.4,0-0.7-0.3-0.7-0.7c0,0,0,0,0,0l0,0C-142.1,230.5-141.8,230.2-141.4,230.2C-141.4,230.2-141.4,230.2-141.4,230.2z"/>
			<g id="Group_19490" transform="translate(320.616 118.478)">
				<path id="Path_10304" class="st58" d="M-129,53.8c0,0-2.2,2.8-1.5,3.1s2.5,1.1,3,0.6c0.4-0.4,0.6-3.7,0.6-3.7L-129,53.8z"/>
				<path id="Path_10305" class="st58" d="M-129,53.9c-0.5,0.2-0.9,0.4-1.3,0.8c-0.4,0.5-1.2,1.2-1,1.4s1.3-0.7,1.3-0.7L-129,53.9z"
					/>
				<path id="Path_10306" class="st70" d="M-120.6,16.9c0,0-2.5,23.4-2.7,24.1c0,0.1-0.2,0.9-0.5,2c-0.4,1.5-1,3.7-1.5,5.8
					c-0.8,3.1-1.5,6-1.5,6l-2.2-0.7c0,0-0.1-11.4,0.4-14s2.4-18.7,3.3-20.9S-120.6,16.9-120.6,16.9z"/>
				<g id="Group_19489" transform="translate(0 56.067)">
					<path id="Path_10307" class="st71" d="M-125.8,17l-13.7-3.6c-1.8-0.5-2.9-2.3-2.4-4.1l1.6-5.9c0.5-1.8,2.3-2.9,4.1-2.4
						l13.7,3.6c1.8,0.5,2.9,2.3,2.4,4.1l-1.6,5.9C-122.2,16.4-124,17.4-125.8,17z"/>
					<path id="Path_10308" class="st72" d="M-138.6,3.8l-1.6,6c-0.3,1.1,0,2.3,0.8,3.2c0.3,0.3,0.6,0.5,0.9,0.7l0,0
						c0.2,0.1,0.4,0.2,0.7,0.3l13.7,3.6c1.8,0.5,3.6-0.6,4.1-2.4l1.6-6c0.5-1.8-0.6-3.6-2.4-4.1l-4.7-1.2l0.3-1.3
						c0.2-0.6-0.2-1.2-0.8-1.4l-0.5-0.1l-2.9-0.8L-130,0c-0.6-0.2-1.2,0.2-1.4,0.8l-0.3,1.3l-2.7-0.7c-0.1,0-0.2-0.1-0.3-0.1l0,0
						c-1.1-0.2-2.2,0.2-2.9,1l0,0C-138.1,2.7-138.4,3.2-138.6,3.8z M-126.2,3.6l-4.9-1.3l0.3-1.3c0.1-0.2,0.3-0.4,0.5-0.3
						c0,0,0,0,0,0L-129,1l2.3,0.6l0.6,0.2c0,0,0.1,0,0.1,0.1c0.2,0.1,0.2,0.3,0.2,0.5L-126.2,3.6z"/>
				</g>
				<path id="Path_10309" class="st58" d="M-127.7,57.7c0,0,0.6-1,0.4-1.4s-1.1,1.1-1.1,1.1s0.6-1.2,0.4-1.4
					c-0.2-0.2-1.1,1.2-1.1,1.2s0.5-1.2,0.3-1.2s-0.8,1-0.8,1s0.3-0.9,0-0.8s-1,0.9-1,0.9L-127.7,57.7z"/>
				<path id="Path_10310" class="st73" d="M-123.9,42.9c-0.4,1.5-1,3.7-1.5,5.8c-0.5-1.5-0.9-3-1.1-4.6c-0.5-3.9,1-12.1,1-12.1
					L-123.9,42.9z"/>
				<path id="Path_10311" class="st58" d="M-95.1,52.9c1,0.8,1.9,1.6,2.7,2.6c0.5,1.2,0.9,2.4,1,3.6c0,0.7-1.9-1.7-2.4-1.9
					s0.6,1,0.4,1.2s-1.3-0.6-1.7-0.8s-0.7-2.1-1.4-3.1S-95.1,52.9-95.1,52.9z"/>
				<path id="Path_10312" class="st74" d="M-127,112h12.1c0.9-0.6-0.2-6.3-0.2-6.3s-3.3-1.3-3.9,1.3s-4.2,3.4-6.1,3.7
					C-126,110.7-126.7,111.2-127,112z"/>
				<path id="Path_10313" class="st74" d="M-109,112h12.1c0.9-0.6-0.2-6.3-0.2-6.3s-3.3-1.3-3.9,1.3s-4.2,3.4-6.1,3.7
					C-108,110.7-108.8,111.2-109,112z"/>
				<path id="Path_10314" class="st75" d="M-123.7,53.3c0,0,0.5,6.8,1.2,15c0.9,11.1,3.2,38.6,3.2,38.6s1.5,1.3,4.9,0.6
					c1.9-6.6,3.2-13.4,3.8-20.3c0-0.2,0-0.4,0-0.5c0.8-11,2.1-34.3,2.1-34.3L-123.7,53.3z"/>
				<path id="Path_10315" class="st74" d="M-123.9,50.9c0,0,0.7,9.1,1.4,17.3l11.9,18.9c0-0.2,0-0.4,0-0.5c0.8-11,2.1-34.3,2.1-34.3
					L-123.9,50.9z"/>
				<path id="Path_10316" class="st75" d="M-120.5,50.9c0,0,8.7,21.5,11.4,29.7c2,5.8,7.5,26.2,7.5,26.2c1.5,0.4,3.1,0.2,4.4-0.7
					c0,0,2.1-20.8-2.1-26.7c-2.2-3.1-0.6-32.4-9.5-32.7S-120.5,50.9-120.5,50.9z"/>
				<path id="Path_10317" class="st70" d="M-104,52.9c-3.6,2-19.1,2-19.8,0.4c-1.6-3.6-2-21.7-1.2-27.3c0,0,0.4-8.5,1.2-8.2
					c5.7-2.6,15-0.2,15-0.2c2.5,0.7,2.3,6.4,3,14.4c0.1,1,0.2,2.1,0.3,3.2c0.5,4.9,1.2,10.6,2.3,16.6
					C-103.2,52.2-103.4,52.6-104,52.9z"/>
				<path id="Path_10318" class="st58" d="M-113.1,16.6c-0.1,1.5-2.1,1.4-4.5,0.8s-1.5-2-1.5-2s0-1.1,0.2-2.4c0.1-0.5,0.1-1,0.2-1.5
					c0-0.2,0.1-0.5,0.1-0.7c0.3-1.3,4.8,0,4.8,0.3C-113.9,12.2-113.2,15.4-113.1,16.6z"/>
				<path id="Path_10319" class="st74" d="M-118.2,19.3l-0.2-2.1l2.7,0.5l-1,1.9L-118.2,19.3z"/>
				<path id="Path_10320" class="st73" d="M-119,14.5l-1.6,2.4c0.1,1,0.6,1.9,1.4,2.6l2.2-2C-117.1,17.4-118.5,16.9-119,14.5z"/>
				<path id="Path_10321" class="st73" d="M-117.1,17.4c0.2,0.9,0.7,1.7,1.3,2.4c0,0,3.4-0.9,4.2-2.6l-1.8-2.3
					C-113.3,14.9-113.4,16.6-117.1,17.4z"/>
				<path id="Path_10322" class="st76" d="M-113.8,12c-1.6,0.9-3.4,1.3-5.1,1.1c0.1-0.5,0.1-1,0.2-1.5c0.6-0.1,1.1-0.2,1.1-0.2
					L-113.8,12z"/>
				<path id="Path_10323" class="st58" d="M-112.4,10.4c-1.1,2.9-4.9,2.2-6.5,1.7c-0.5-0.1-0.7-0.2-0.7-0.2
					c-0.5-0.2-0.7-1.1-0.6-2.2c0.1-2.1,0.6-4.2,1.5-6.1c0.8-1.1,2-2.3,5.7-0.7S-111,6.7-112.4,10.4z"/>
				<path id="Path_10324" class="st74" d="M-109.5,8.9c-1.2,1-3.7,2.7-3.7,2.7c0.3-0.4,0.5-0.8,0.6-1.3c0-0.1,0.1-0.3,0-0.4
					c0-0.5,0.1-0.9,0.3-1.3c0.2-0.3,0.2-0.5,0-0.7c-0.3-0.3-0.9,0-1.2,0.2c-0.2,0.2-0.5,0.2-0.8,0l0,0c-1-0.6,0.1-1.7-0.7-2.7
					s-4.4-1-4.2-1.6c-1.2-0.7-0.4-3.2-0.4-3.3c1.3,0.1,2.6-0.1,3.9-0.4c1.5-0.2,3.1,0.2,4.3,1.2c0-0.1,0-0.3-0.1-0.4
					c0.2,0.2,0.2,0.4,0.3,0.6c0,0,0,0,0,0.1c0.2,0,0.4,0,0.6,0.1c0,0-0.2,0-0.2,0c0,0,0,0,0,0C-108.5,3.3-108.5,8.1-109.5,8.9z"/>
				<path id="Path_10325" class="st63" d="M-117.9,10c0,0-0.2,0.4-1.1,0.1c0,0-0.8-0.3-0.7-0.7C-119.1,9.3-118.5,9.5-117.9,10z"/>
				<path id="Path_10326" class="st77" d="M-118.2,19.3c0,0-2.1,26.8-2.1,29s2.3,4.6,2.3,4.6c1.1-1.2,1.8-2.6,2.2-4.2
					c0.4-2.1-1-29.1-1-29.1L-118.2,19.3z"/>
				<path id="Path_10327" class="st70" d="M-108.8,17.6c0,0,3.4,0.8,6.1,6s4.8,15.7,6.1,18.4s2.2,11.5,2.2,11.5l-2,1
					c0,0-4.9-8.9-5.7-11.8c-0.4-1.6-6.4-14.3-6.4-14.3L-108.8,17.6z"/>
				<path id="Path_10328" class="st73" d="M-104,52.9L-104,52.9c-6.4-0.9-4.6-22.2-4.1-22.3s2.4,3.8,2.4,3.8l0.2,0.9
					c0.5,4.9,1.2,10.6,2.3,16.6C-103.2,52.2-103.4,52.6-104,52.9z"/>
			</g>
			<g id="Group_19493" transform="translate(382.479 70.397)">
				<g id="Group_19491" transform="translate(7.9 69.989)">
					<path id="Path_10329" class="st74" d="M-93.4,77.5c0,0,2.7,2.4,2.2,4.2s-2.9,2.9-3.3,5s-1.6,3.3-2.8,3.3h-5.6
						c0,0-0.9-1.5,1.2-1.9s2.9-2.9,2.8-5.3c-0.1-1.8,0-3.6,0.2-5.4l4.4-1L-93.4,77.5z"/>
					<path id="Path_10330" class="st74" d="M-126.3,83.8c0,0,0.5,5.6-0.7,6.1l-15.1,0c0,0,0-1.7,2.4-2.1s6.7-1.8,7.4-5
						S-126.3,83.8-126.3,83.8z"/>
					<path id="Path_10331" class="st77" d="M-139,5.2c0,0,0.8,9.8,1.7,21.5c1.3,15.9,2.8,35.5,2.9,39.2c0.3,6.4,1.3,16.7,1.3,16.7
						s2.5,2.4,7.5,1.4c2.8-9.9,4.7-20,5.7-30.3c0-0.3,0-0.5,0.1-0.8c1.2-15.8,3-49.2,3-49.2L-139,5.2z"/>
					<path id="Path_10332" class="st74" d="M-139,5.2c0,0,0.8,9.8,1.7,21.5l17.4,27.1c0-0.3,0-0.5,0.1-0.8c1.2-15.8,3-49.2,3-49.2
						L-139,5.2z"/>
					<path id="Path_10333" class="st77" d="M-135.4,6.4c0,0,14.3,35.3,23.7,51.9s12.4,21.2,12.4,21.2s5.4-2.1,5.9-3.6
						c0,0-3.6-32.1-9.9-39.9c-3.6-4.4-6.6-14.2-6.5-18.8c0.3-8-2.7-17.3-2.7-17.3L-135.4,6.4z"/>
				</g>
				<path id="Path_10334" class="st58" d="M-138.9,76.9c0,0-2.7,3.6-2.9,4.6c-0.3,1.8-0.3,3.6-0.1,5.4c0.3,1,2-3,2.7-3.5
					s-0.4,1.6-0.2,1.9s1.6-1.3,2.1-1.8s0.3-3.2,0.8-4.8S-138.9,76.9-138.9,76.9z"/>
				<path id="Path_10335" class="st63" d="M-127.1,24.3c0,0-3.6,33.6-3.9,34.6c-0.1,0.2-0.4,1.3-0.8,2.8c-0.6,2.2-1.4,5.3-2.1,8.3
					c-1.1,4.5-2.4,8.4-2.4,8.4c-0.6,0.3-1.2,0.3-1.9,0.2c-0.6-0.1-1.1-0.4-1.4-0.8c0,0,0.1-16.5,0.9-20.3s3.4-26.9,4.7-30
					S-127.1,24.3-127.1,24.3z"/>
				<path id="Path_10336" class="st78" d="M-131.8,61.7c-0.6,2.2-1.4,5.3-2.1,8.3c-0.7-2.1-1.2-4.3-1.5-6.6
					C-136.2,57.8-134,46-134,46L-131.8,61.7z"/>
				<path id="Path_10337" class="st63" d="M-103.2,76c-5.2,2.9-27.4,2.9-28.4,0.6c-2.3-5.1-2.9-31.2-1.8-39.2c0,0,0.6-12.3,1.8-11.7
					c8.2-3.8,21.5-0.3,21.5-0.3c3.6,1.1,3.3,9.2,4.3,20.7c0.1,1.5,0.3,3,0.4,4.6c0.7,7.1,1.7,15.2,3.3,23.8
					C-102.1,75-102.4,75.5-103.2,76z"/>
				<path id="Path_10338" class="st58" d="M-116.3,23.9c-0.1,2.2-3,1.9-6.4,1.2s-2.2-2.8-2.2-2.8s0.1-1.6,0.3-3.4
					c0.1-0.7,0.2-1.4,0.3-2.1c0.1-0.3,0.1-0.7,0.2-1c0.4-1.9,6.9-0.1,6.8,0.5C-117.4,17.6-116.4,22.2-116.3,23.9z"/>
				<path id="Path_10339" class="st74" d="M-123.7,27.7l-0.3-3l3.8,0.7l-1.5,2.7L-123.7,27.7z"/>
				<path id="Path_10340" class="st78" d="M-124.9,20.8l-2.3,3.5c0.1,1.5,0.8,2.8,2,3.7l3.1-2.9C-122,25.1-124.1,24.3-124.9,20.8z"
					/>
				<path id="Path_10341" class="st78" d="M-122,25.1c0.4,1.3,1,2.4,1.9,3.4c0,0,4.9-1.3,6-3.8l-2.5-3.3
					C-116.7,21.4-116.8,23.8-122,25.1z"/>
				<path id="Path_10342" class="st76" d="M-117.3,17.3c-2.2,1.3-4.8,1.9-7.4,1.6c0.1-0.7,0.2-1.4,0.3-2.1c0.8-0.2,1.6-0.3,1.6-0.3
					L-117.3,17.3z"/>
				<path id="Path_10343" class="st58" d="M-115.3,14.9c-1.5,4.2-7,3.1-9.4,2.4c-0.7-0.2-1.1-0.3-1.1-0.3c-0.7-0.3-1-1.6-0.9-3.2
					c0.1-3.2,1.4-7.6,2.1-8.7c1.1-1.6,2.9-3.3,8.2-1S-113.4,9.6-115.3,14.9z"/>
				<path id="Path_10344" class="st74" d="M-111.2,12.8c-1.7,1.4-5.3,3.9-5.3,3.9c0.4-0.6,0.7-1.2,0.9-1.9c0.1-0.2,0.1-0.4,0.1-0.6
					c0-0.7,0.1-1.3,0.5-1.9c0.2-0.4,0.3-0.7,0-1c-0.5-0.4-1.2,0-1.8,0.3c-0.3,0.2-0.8,0.2-1.1,0h0c-1.4-0.9,0.1-2.5-1-3.8
					s-6.3-1.5-6.1-2.3c-1.7-1-0.6-4.6-0.6-4.8c1.9,0.1,3.8-0.1,5.6-0.6c2.5-0.6,5.3,1,6.2,1.7c0-0.2,0-0.4-0.1-0.6
					c0.2,0.2,0.4,0.5,0.4,0.8c0,0,0.1,0.1,0,0.1c0.3,0,0.6,0.1,0.8,0.2c0,0-0.2-0.1-0.3,0.1c0,0,0,0,0,0
					C-109.7,4.7-109.8,11.6-111.2,12.8z"/>
				<path id="Path_10345" class="st63" d="M-123.3,14.3c0,0-0.3,0.5-1.6,0.1c0,0-1.1-0.4-1-1C-125,13.4-124,13.7-123.3,14.3z"/>
				<path id="Path_10346" class="st77" d="M-123.7,27.7c0,0-3,38.4-3,41.6s3.4,6.6,3.4,6.6c1.5-1.7,2.6-3.8,3.2-6
					c0.5-3.1-1.5-41.9-1.5-41.9L-123.7,27.7z"/>
				<path id="Path_10347" class="st78" d="M-103.2,76L-103.2,76c-9.2-1.3-6.6-31.9-5.9-32.1s3.4,5.5,3.4,5.5l0.3,1.2
					c0.7,7.1,1.7,15.2,3.3,23.8C-102.1,75-102.4,75.5-103.2,76z"/>
				<g id="Group_19492" transform="translate(37.836 79.252)">
					<path id="Path_10348" class="st79" d="M-113.9,19.5l-19.6,5.7c-2.6,0.7-5.2-0.7-6-3.3l-2.5-8.5c-0.7-2.6,0.7-5.2,3.3-6
						l19.6-5.7c2.6-0.7,5.2,0.7,6,3.3l2.5,8.5C-109.9,16.1-111.3,18.8-113.9,19.5z"/>
					<path id="Path_10349" class="st72" d="M-139.3,12.7l2.5,8.6c0.5,1.6,1.7,2.9,3.3,3.3c0.5,0.1,1.1,0.2,1.6,0.2l0,0
						c0.4,0,0.7-0.1,1-0.2l19.5-5.7c2.6-0.8,4-3.4,3.3-6l-2.5-8.6c-0.8-2.6-3.4-4-6-3.3l-6.7,2l-0.5-1.8c-0.2-0.8-1.1-1.3-2-1.1
						l-0.7,0.2l-4.1,1.2l-1,0.3c-0.8,0.2-1.3,1.1-1.1,2l0.5,1.8l-3.9,1.1c-0.2,0-0.3,0.1-0.4,0.2l0,0l0,0c-1.4,0.6-2.5,1.8-2.9,3.4
						l0,0C-139.5,11-139.5,11.9-139.3,12.7z M-124.2,3.3l-7,2l-0.5-1.8c-0.1-0.3,0.1-0.6,0.4-0.7l1.8-0.5l3.2-0.9l0.9-0.3
						c0.1,0,0.1,0,0.2,0c0.3,0,0.5,0.2,0.6,0.4L-124.2,3.3z"/>
				</g>
				<path id="Path_10350" class="st58" d="M-92.2,77c0,0-0.6,5.1,0.5,5s3.9-0.6,4.1-1.5s-2.1-4.9-2.1-4.9L-92.2,77z"/>
				<path id="Path_10351" class="st58" d="M-92,77c-0.5,0.6-0.8,1.2-0.9,1.9c-0.1,0.9-0.5,2.3-0.1,2.4s1.1-1.9,1.1-1.9L-92,77z"/>
				<path id="Path_10352" class="st63" d="M-110.2,25.3c0,0,4.9,1.2,8.8,8.6s6.9,22.5,8.8,26.5s3.3,15.9,3.3,15.9
					c-0.3,0.4-0.8,0.7-1.3,0.8c-0.5,0.1-1,0.1-1.6,0.1c0,0-7.3-11.7-8.3-15.9c-0.6-2.3-9.2-20.5-9.2-20.5L-110.2,25.3z"/>
			</g>
			<g id="Group_19494" transform="translate(52.146 83.734)">
				<path id="Path_10353" class="st58" d="M-103.2,141.8l-0.7-5.3l3.1-2.6l1,7L-103.2,141.8z"/>
				<path id="Path_10354" class="st74" d="M-93,146.5h-12.6c-0.2-1.1,0-2.3,0.4-3.4c0.6-1.4,1.6-2.3,1.7-3.3c0.9,1,2.3,1.4,3.6,1.1
					c0.6,1,1.3,2,2.2,2.8C-96.9,144.4-93.2,144.1-93,146.5z"/>
				<path id="Path_10355" class="st77" d="M-95.5,70.2c-0.8,6.6-1.5,12.9-2,18.7c-2.9,31-2.4,50-2.4,50s-0.2,0.6-2,0.6
					c-0.7,0-1.4-0.1-2-0.2c0,0-6.6-20.3-6.1-31.8c0-1.3,0.2-2.5,0.5-3.7c1.6-5.9-5.8-28.5,2.2-36.9S-95.1,67.2-95.5,70.2z"/>
				<path id="Path_10356" class="st77" d="M-95.5,70.2c-0.8,6.6-1.5,12.9-2,18.7l-12.5,18.6c0-1.3,0.2-2.5,0.5-3.7
					c1.6-5.9-5.8-28.5,2.2-36.9S-95.1,67.2-95.5,70.2z"/>
				<path id="Path_10357" class="st58" d="M-85.6,7c0,0-0.3-1.5-0.6-2.7c-0.2-0.5,0.9-3.9,1.6-4.3s2.6,1.8,2.1,3.6
					c-0.3,0.9-0.7,3.8-0.7,3.8L-85.6,7z"/>
				<path id="Path_10358" class="st58" d="M-85.6,7c0,0-0.4-0.9-0.8-1s-0.7-1.6-1-2.1c0,0,0.3-0.4,0.7,0.1c0.3,0.3,0.9,1.1,0.9,1.1
					L-85.6,7z"/>
				<path id="Path_10359" class="st58" d="M-137.6,12.1c-0.1,0.2-0.2,0.4-0.3,0.7c0-0.1,0-0.1,0-0.2c0-0.5-2-3.4-2.8-3.6s-2,2.5-1,4
					c0.5,0.8,1.8,3.4,1.8,3.4l2.1-1.1c0,0,0.1-1,0.4-1.2s0.2-1.7,0.3-2.3C-137,11.8-137.3,11.5-137.6,12.1z"/>
				<path id="Path_10360" class="st58" d="M-124.4,140.2c-0.2-1.7-0.2-6.2-0.2-6.2s4.6-1.5,4.4-0.5c-0.5,2.4-0.7,4.9-0.6,7.3
					l-1.8,1.1L-124.4,140.2z"/>
				<path id="Path_10361" class="st77" d="M-99.3,69.9c0,0-17.6,48.2-21.1,69.1c-0.7,0.4-1.5,0.5-2.3,0.4c-0.9,0-1.7-0.6-2.2-1.4
					c0,0-3.2-25.1,3.1-33.8c4.3-6-1.9-32.2,8.2-34.3S-99.3,69.9-99.3,69.9z"/>
				<path id="Path_10362" class="st60" d="M-102.4,23.5L-102.4,23.5C-102.4,23.5-102.4,23.5-102.4,23.5c-0.1-0.5-0.2-0.9-0.4-1.3
					l0,0c-0.3-1.2-0.8-2.4-1.3-3.5c-0.3-0.6-0.6-1.2-0.8-1.7c0-0.1-0.1-0.2-0.1-0.2l0,0c-0.4-0.9-1.1-1.7-2-2.2
					c-1.1-0.4-2.2-0.4-3.3-0.1c0.2-0.2,0.4-0.3,0.6-0.4c-0.6,0.1-1.2,0.4-1.7,0.7c-8.1-1.8-7.6,9.7-7.1,12.2s-2.1,3.9-5.7,6.5
					c-7,5.1-6.9,10.4-6.9,10.4c0.1,0,0.1,0.1,0.2,0.1c0.3-0.7,0.9-2,1.5-2.3c-0.3,0.9-0.5,1.8-0.7,2.7c1.1,0.6,2.5,1.5,4.2,2.5l0,0
					c2.1,1.4,4.5,3,6.4,4.2c-0.1-0.6-0.1-1.1,0-1.7l0.6,1.9l0.1,0.2c1.2,0.8,2.2,1.5,2.7,1.8l0.1,0.1l0.2,0.2
					c-0.2-0.7,0.5-2.4,1.7-4.6c0.1-0.2,0.2-0.3,0.3-0.5c0.4-0.7,0.8-1.4,1.3-2.2c0.2-0.3,0.3-0.5,0.5-0.8l0,0
					c0.1-0.2,0.3-0.4,0.4-0.7l0,0c0.3-0.5,0.7-1.1,1.1-1.6c0.9-1.4,1.9-2.8,2.9-4c1.2-1.6,2.5-3.1,4-4.5c0-0.1,0.1-0.2,0.1-0.2
					c0.2-0.4,0.3-0.9,0.4-1.4c0-0.1,0.1-0.3,0.1-0.4c0.2-1.1,0.3-2.3,0.3-3.4c0.1,1.2,0.1,2.3,0,3.5c0,0.2,0,0.4-0.1,0.5l0,0
					c-0.1,0.3-0.1,0.6-0.2,0.9c0.2-0.2,0.4-0.5,0.5-0.8c0.1-0.2,0.2-0.4,0.3-0.6C-101.4,30.5-101.6,26.9-102.4,23.5z"/>
				<path id="Path_10363" class="st58" d="M-103.9,35.1c0,0-2.3,1.7-4.2,1.4c-1.8-0.2-3.3-2.3-3.3-2.3c0.7-0.3,0.8-1.3,0.1-5.7
					l0.3,0l5.8,0.3c0,0,0.1,1.8,0.4,3.5C-104.6,33.7-104.3,35-103.9,35.1z"/>
				<path id="Path_10364" class="st62" d="M-105.2,28.8c0,0,0.1,1.8,0.4,3.5c-3.2,0.4-5.3-2.3-6.2-3.8L-105.2,28.8z"/>
				<path id="Path_10365" class="st60" d="M-111.7,28c-1.2-1.4-2.1-2.9-2.8-4.6c-0.5-1.6-0.6-7.6,5.5-7.7c1.2,0,2.4,0.3,3.6,0.8
					c1.4,0.7,3.6,2.3,2.3,7.8l-0.3,1.8L-111.7,28z"/>
				<path id="Path_10366" class="st63" d="M-94.8,69c-5.3,2.8-11.3,3.5-17.1,2.2c-0.1,0-7.8-1.3-7.8-1.3c0.1-0.4,1.1-6.3,1.3-6.7
					c1.7-4.4,4.8-28,7.4-29.2c0.7,0.7,2.5,1.2,4.2,1.1c1.9-0.2,2.5-1,2.3-1.8c2.1,1,3.6,1.9,3.6,1.9C-99.1,38-94.8,69-94.8,69z"/>
				<path id="Path_10367" class="st58" d="M-103.9,30.3c0,0-7.5,1.2-8.2-3.4s-2.1-7.7,2.6-8.6s5.9,0.7,6.6,2.2
					S-101.9,29.8-103.9,30.3z"/>
				<path id="Path_10368" class="st60" d="M-106,17.6c0,0-1.2,5.8-4.3,7.1s-4.5,0.6-4.5,0.6c1.4-1.6,2.1-3.6,2.1-5.7
					C-112.7,19.5-108,15.2-106,17.6z"/>
				<path id="Path_10369" class="st60" d="M-106.5,18.1c0.9,0.5,1.7,1.3,2.3,2.1c0.6,1.1,1.1,3.6,1.8,3.4c0,0,1-4-1.1-5.8
					C-105.7,15.8-106.5,18.1-106.5,18.1z"/>
				<path id="Path_10370" class="st70" d="M-83.2,7.1c-0.4-0.2-0.9-0.3-1.3-0.4c-0.4,0-0.8,0-1.2,0.1c0,0-2.1,13.1-2.3,13.8
					S-97,31.4-99.4,31.3c-2.2,0-4.7,1.6-5.2,2c0,0,5,10.7,5.3,12.7c0.3,2.2,2.9,35.8,2.9,35.8s-0.2,1.6,2.8,0.7s3.6-1.5,3.6-1.5
					s-2.7-26.4-3.2-34.7c-0.1-1-0.2-2.1-0.5-3.1c-0.2-0.9-0.1-1.9,0.5-2.6c3.7-5.1,9.5-13.3,9.8-15C-83,23-83.2,7.1-83.2,7.1z"/>
				<path id="Path_10371" class="st74" d="M-113.9,146.5h-12.6c-0.2-1.1,0-2.3,0.4-3.4c0.6-1.4,1.6-2.3,1.7-3.3
					c0.9,1,2.3,1.4,3.6,1.1c0.6,1,1.3,2,2.2,2.8C-117.8,144.4-114.1,144.1-113.9,146.5z"/>
				<path id="Path_10372" class="st70" d="M-105.2,47c-0.4-2.6-5.8-13.1-5.8-13.1s-3.4-1-5.7-0.2s-13.9-5.8-14.3-6.4
					s-6.6-12.3-6.6-12.3c-0.4-0.2-0.9-0.1-1.3,0.1c-0.5,0.2-0.8,0.7-0.8,1.3c0,0,4.8,14.7,6.1,16.9c0.8,1.4,7.3,6.1,12.3,9.7
					c1,0.7,1.5,1.8,1.3,3c-0.7,5-0.9,7.8-1.6,16.4c-0.6,7.1-0.9,21-0.9,21c3.1,1.1,6.3,1.8,9.5,2.2c3.9,0.3,4.7-3.8,4.7-3.8
					S-104.8,49.7-105.2,47z"/>
				<path id="Path_10373" class="st63" d="M-106.3,27.9c0.6,0.3,1.3,0.5,2,0.4c0.7-0.1,0.9-1,0.9-1c-0.4-0.1-0.9-0.1-1.3,0
					C-105.3,27.5-105.8,27.7-106.3,27.9z"/>
			</g>
			<g id="Group_19496" transform="translate(221.331 0)">
				<path id="Path_10374" class="st58" d="M-36.5,22.6c0,0-3.5-6.2,0-7.5s5.1-0.1,5.3,1.3s-1.3,7-1.3,7L-36.5,22.6z"/>
				<path id="Path_10375" class="st80" d="M-33.7,62.4c-5.8,1.1-11.7,1.7-17.6,1.8c-4.5,0.1-9-0.1-13.5-0.6
					c-1.1-0.1-2.1-0.3-3.1-0.4c-10.3-1.6-16-4.3-16-4.3s9.4-19.8,17.1-19c8.9,0.9,24.1,8.9,25.6,6.7C-39.4,44-38,22.2-38,22.2
					c4-2.7,6.3,0.1,6.3,0.1S-23.9,60.7-33.7,62.4z"/>
				<path id="Path_10376" class="st81" d="M-33.7,62.4c-5.8,1.1-11.7,1.7-17.6,1.8c-4.5,0.1-9-0.1-13.5-0.6
					C-67.1,56-68.8,48.3-64,53C-55.6,61.2-33.7,62.4-33.7,62.4z"/>
				<path id="Path_10377" class="st74" d="M-84.6,222c0,0-0.7,7.9,1,8.7l21.3,0c0,0,0-2.5-3.4-3s-9.4-2.5-10.4-7S-84.6,222-84.6,222
					z"/>
				<path id="Path_10378" class="st77" d="M-69,126.9c-0.1,5.1-0.4,10.4-0.8,15.2c-2.3,22.6-3.1,49.9-3.4,55.2
					c-0.6,9.1-2.4,23.7-2.4,23.7s-3.6,3.4-10.6,1.8c-3.7-14.1-6.1-28.6-7.1-43.2c0-0.4,0-0.7-0.1-1.1c-0.2-2.9-0.3-6.3-0.5-9.9
					c-1.1-24.2-2.2-60.1-2.2-60.1l26.7-6.3C-69.3,102.3-68.7,114.1-69,126.9z"/>
				<path id="Path_10379" class="st74" d="M-69,126.9c-6.8,11.7-19.6,33.2-24.8,41.7c-1.1-24.2-2.2-60.1-2.2-60.1l26.7-6.3
					C-69.3,102.3-68.7,114.1-69,126.9z"/>
				<path id="Path_10380" class="st58" d="M-136.5,104.3c0,0-4.3,5.1-4.7,6.5s-1.1,6.5-0.7,8s3.3-4.3,4.3-4.9s-0.8,2.3-0.4,2.8
					s2.4-1.7,3.2-2.5s0.7-4.7,1.7-7.1S-136.5,104.3-136.5,104.3z"/>
				<path id="Path_10381" class="st74" d="M-137.5,213.1c0,0-3.8,3.5-3,5.9s4.2,4.1,4.6,7.1s2.3,4.6,4,4.6h7.9c0,0,1.2-2.1-1.7-2.7
					c-3-0.6-4.1-4.2-3.9-7.4c0.1-2.5,0-5.1-0.3-7.6l-6.3-1.5L-137.5,213.1z"/>
				<path id="Path_10382" class="st77" d="M-73.5,109.1c0,0-25,53.4-38.3,76.9c-13.3,23.4-17.4,30-17.4,30s-7.6-3-8.3-5
					c0,0,5.1-45.3,14-56.3c5-6.2,10.9-24.9,11.2-31.5s6.1-22.2,6.1-22.2L-73.5,109.1z"/>
				<path id="Path_10383" class="st80" d="M-66.2,111.6c-7.2,4.3-15.6,6.4-24,6c-6.2-0.3-18.4-2-20.4-6.9c-0.5-1.2-0.1-2.6,0.6-4.9
					c1.8-5.8,6-16.9,4.7-41.6c-0.1-2.2-0.1-4.3,0.2-6.5c1.3-12.1,8.3-19.3,15-21.7c16.4-5.7,21.8,2.2,21.8,2.2s7.2,5.7,8.3,17.7
					C-57.7,80.1-66.2,111.6-66.2,111.6z"/>
				<path id="Path_10384" class="st58" d="M-85.3,34.8c0,0,7.5,4.6,15.7,3.3c0,0,1.6-0.4,0.8-2.3c0.3-0.8,0.5-1.7,0.7-2.5
					c0.4-1.4,0.7-2.7,0.9-4.1l-4.6-4.9l-4.4-4.6C-77.4,30.8-85.3,34.8-85.3,34.8z"/>
				<path id="Path_10385" class="st82" d="M-76.9,23.9c0,0,2.5,6.7,8.8,9.4c0.7-2.6,1.2-5.3,1.2-5.3l-4.9-3.6L-76.9,23.9z"/>
				<path id="Path_10386" class="st58" d="M-62,28.9c0,0-14.3,1.8-15.4-7s-3.5-14.5,5.6-16s11.3,1.7,12.3,4.5S-58.3,28.2-62,28.9z"
					/>
				<path id="Path_10387" class="st61" d="M-81.8,4.4c-0.1-0.2-0.4-0.3-1.1-0.3c0.4-0.2,0.8-0.3,1.3-0.3c0.1-1.3,1-2.5,2.3-2.9
					c-0.5,0.3-0.9,0.8-1,1.4c1.9-1.8,5.9-3,16.8-1.8c14.4,1.7,9.3,10.7,7.4,11.8s-6.5-2.2-10-2s-4.3,5.1-5.5,5.8
					c-1.2,0.6-0.7-0.6-2.3-1.3s-1.8,1.9-1.4,3.6s-1.9,3.9-1.9,3.9l-2.1-2.5c-2.1-2.5-3.8-12.6-2.7-14.8C-82,4.8-81.9,4.6-81.8,4.4z"
					/>
				<g id="Group_19495" transform="translate(78.292 7.092)">
					<path id="Path_10388" class="st77" d="M-116.3,11.4l-24.4,0.2l-0.2-3.7l24.3-1.9L-116.3,11.4z"/>
					<path id="Path_10389" class="st77" d="M-97.9,12l-26.5,0.4l-0.3-6.7l26.4-2L-97.9,12z"/>
					<path id="Path_10390" class="st74" d="M-80,12.5l-22.4,0l-0.4-9l22.3-2L-80,12.5z"/>
					<path id="Path_10391" class="st74" d="M-79.7,14.1L-79.7,14.1c0.7,0,1.2-0.6,1.2-1.3l-0.5-11.6c0-0.7-0.6-1.2-1.3-1.2
						c0,0,0,0,0,0l0,0c-0.7,0-1.2,0.6-1.2,1.3c0,0,0,0,0,0l0.5,11.6C-81,13.6-80.4,14.1-79.7,14.1z"/>
					<path id="Path_10392" class="st77" d="M-140.8,12.4L-140.8,12.4c-0.6,0-1.1-0.4-1.2-1.1l-0.1-3c0-0.6,0.4-1.1,1.1-1.2l0,0
						c0.6,0,1.1,0.4,1.2,1.1l0.1,3C-139.7,11.9-140.1,12.4-140.8,12.4C-140.8,12.4-140.8,12.4-140.8,12.4z"/>
				</g>
				<path id="Path_10393" class="st81" d="M-110,105.9c1.8-5.8,6-16.9,4.7-41.6c-0.1-2.2-0.1-4.3,0.2-6.5l0,0
					c5.4-0.5,13.6,5.4,13.6,5.4S-96.5,94.2-110,105.9z"/>
				<path id="Path_10394" class="st80" d="M-85.3,34.8c0,0-13.8,2.4-21,11.2s-18.8,21.2-21.6,25.6c-2.7,4.3-10.4,33.9-10.4,33.9
					s0.5,1,2.6,1.5c1.2,0.3,2.4,0.2,3.5-0.3c0,0,10.1-17.3,13.9-25.9c1.6-3.6,28.9-17.8,39.1-16.3C-75.2,65.1-85.3,34.8-85.3,34.8z"
					/>
				<path id="Path_10395" class="st58" d="M-38.2,12.1c0,0,3,1.8,4.8,1c1.8-0.8,1.6-1.5,1.6-1.5S-37.2,10.2-38.2,12.1z"/>
				<path id="Path_10396" class="st63" d="M-71.9,44.5c0,0-6.1,38.3-49.1,49.5l-4.7,9.3l8.2,1.4c0,0,49-14.2,48.3-60.8L-71.9,44.5z"
					/>
				<path id="Path_10397" class="st63" d="M-72.8,38.3l-2,0.2v2.9l2.9,3l2.8-0.7v-4l-2-1.4L-72.8,38.3z"/>
				<path id="Path_10398" class="st81" d="M-80.6,30.7c0,0-1.9,0.4-6.3,4.1c0,0,4.4,9.3,13.6,10.4c-0.1-2.3,0.1-4.6,0.5-6.9
					C-72.8,38.3-80.1,35.7-80.6,30.7z"/>
				<path id="Path_10399" class="st81" d="M-72.8,38.3c0,0,4.5,2.4,4.8,6.1c0,0,1.7-2.7,1.2-4.6c-0.5-1.4-1.2-2.8-2-4.1
					C-68.8,35.8-68.7,38.1-72.8,38.3z"/>
			</g>
		</g>
	</g>
</g>
</svg>
