<svg xmlns="http://www.w3.org/2000/svg" width="46.37" height="46.37" viewBox="0 0 46.37 46.37">
  <g id="Code_x2C__coding_x2C__mobile_x2C__development" transform="translate(-1 -1)">
    <g id="XMLID_1809_" transform="translate(1 1)">
      <g id="XMLID_1832_" transform="translate(20.094 3.091)">
        <g id="Group_55879" data-name="Group 55879">
          <g id="Group_55878" data-name="Group 55878">
            <path id="Path_15093" data-name="Path 15093" d="M19.41,4.546H14.773a.773.773,0,1,1,0-1.546H19.41a.773.773,0,1,1,0,1.546Z" transform="translate(-14 -3)" fill="#222872"/>
          </g>
        </g>
      </g>
      <g id="XMLID_1831_" transform="translate(10.82 15.457)">
        <g id="Group_55881" data-name="Group 55881">
          <g id="Group_55880" data-name="Group 55880">
            <path id="Path_15094" data-name="Path 15094" d="M28.867,41.914h-17A3.869,3.869,0,0,1,8,38.049V11.773a.773.773,0,0,1,1.546,0V38.049a2.321,2.321,0,0,0,2.319,2.319h17a2.321,2.321,0,0,0,2.319-2.319V11.773a.773.773,0,0,1,1.546,0V38.049A3.869,3.869,0,0,1,28.867,41.914Z" transform="translate(-8 -11)" fill="#222872"/>
          </g>
        </g>
      </g>
      <g id="XMLID_1830_" transform="translate(10.82)">
        <g id="Group_55883" data-name="Group 55883">
          <g id="Group_55882" data-name="Group 55882">
            <path id="Path_15095" data-name="Path 15095" d="M31.958,22.64a.773.773,0,0,1-.773-.773v-17a2.321,2.321,0,0,0-2.319-2.319h-17A2.321,2.321,0,0,0,9.546,4.864v17a.773.773,0,0,1-1.546,0v-17A3.869,3.869,0,0,1,11.864,1h17a3.869,3.869,0,0,1,3.864,3.864v17A.773.773,0,0,1,31.958,22.64Z" transform="translate(-8 -1)" fill="#222872"/>
          </g>
        </g>
      </g>
      <g id="XMLID_1816_" transform="translate(38.642 6.183)">
        <g id="XMLID_1824_" transform="translate(0 0)">
          <g id="Group_55885" data-name="Group 55885">
            <g id="Group_55884" data-name="Group 55884">
              <path id="Path_15096" data-name="Path 15096" d="M26.773,6.623a.711.711,0,0,1-.773-.7V5.773a.773.773,0,1,1,1.546,0,.843.843,0,0,1-.773.85Z" transform="translate(-26 -5)" fill="#222872"/>
            </g>
          </g>
        </g>
        <g id="XMLID_1818_" transform="translate(0 3.091)">
          <g id="Group_55887" data-name="Group 55887">
            <g id="Group_55886" data-name="Group 55886">
              <path id="Path_15097" data-name="Path 15097" d="M26.773,8.623a.711.711,0,0,1-.773-.7V7.773a.773.773,0,1,1,1.546,0A.843.843,0,0,1,26.773,8.623Z" transform="translate(-26 -7)" fill="#222872"/>
            </g>
          </g>
        </g>
        <g id="XMLID_1817_" transform="translate(0 6.183)">
          <g id="Group_55889" data-name="Group 55889">
            <g id="Group_55888" data-name="Group 55888">
              <path id="Path_15098" data-name="Path 15098" d="M26.773,10.623a.711.711,0,0,1-.773-.7V9.773a.773.773,0,1,1,1.546,0A.843.843,0,0,1,26.773,10.623Z" transform="translate(-26 -9)" fill="#222872"/>
            </g>
          </g>
        </g>
      </g>
      <g id="XMLID_1820_" transform="translate(6.183 32.305)">
        <g id="XMLID_1823_">
          <g id="Group_55891" data-name="Group 55891">
            <g id="Group_55890" data-name="Group 55890">
              <path id="Path_15099" data-name="Path 15099" d="M5.773,23.523a.711.711,0,0,1-.773-.7v-.155a.773.773,0,0,1,1.546,0,.843.843,0,0,1-.773.85Z" transform="translate(-5 -21.9)" fill="#222872"/>
            </g>
          </g>
        </g>
        <g id="XMLID_1822_" transform="translate(0 3.091)">
          <g id="Group_55893" data-name="Group 55893">
            <g id="Group_55892" data-name="Group 55892">
              <path id="Path_15100" data-name="Path 15100" d="M5.773,25.523a.711.711,0,0,1-.773-.7v-.155a.773.773,0,0,1,1.546,0,.843.843,0,0,1-.773.85Z" transform="translate(-5 -23.9)" fill="#222872"/>
            </g>
          </g>
        </g>
        <g id="XMLID_1821_" transform="translate(0 6.183)">
          <g id="Group_55895" data-name="Group 55895">
            <g id="Group_55894" data-name="Group 55894">
              <path id="Path_15101" data-name="Path 15101" d="M5.773,27.523a.711.711,0,0,1-.773-.7v-.155a.773.773,0,1,1,1.546,0,.843.843,0,0,1-.773.85Z" transform="translate(-5 -25.9)" fill="#222872"/>
            </g>
          </g>
        </g>
      </g>
      <g id="XMLID_1815_" transform="translate(34.778 18.548)">
        <g id="Group_55897" data-name="Group 55897">
          <g id="Group_55896" data-name="Group 55896">
            <path id="Path_15102" data-name="Path 15102" d="M25.573,34.64a.738.738,0,0,1-.164-.017.772.772,0,0,1-.592-.918l.51-2.365a.77.77,0,0,1,.573-.587,7.406,7.406,0,0,0,2.113-.883.772.772,0,0,1,.818.008l1.53.978.948-.955-.978-1.518a.775.775,0,0,1-.011-.821,7.357,7.357,0,0,0,.881-2.113.775.775,0,0,1,.584-.575l1.762-.391V23.158l-1.761-.391a.775.775,0,0,1-.584-.575,7.4,7.4,0,0,0-.881-2.113.769.769,0,0,1,.009-.819l.98-1.532-.946-.946-1.532.98a.769.769,0,0,1-.818.008,7.442,7.442,0,0,0-2.113-.883.77.77,0,0,1-.573-.587l-.38-1.754h-.675a.773.773,0,1,1,0-1.546h1.3a.772.772,0,0,1,.754.611l.413,1.906a8.944,8.944,0,0,1,1.655.692l1.66-1.062a.774.774,0,0,1,.963.105l1.825,1.824a.772.772,0,0,1,.1.963L31.884,19.7a8.972,8.972,0,0,1,.692,1.659l1.909.424a.775.775,0,0,1,.607.756V25.1a.772.772,0,0,1-.606.754l-1.909.424a8.914,8.914,0,0,1-.692,1.657l1.06,1.645a.769.769,0,0,1-.1.963L31.02,32.384a.775.775,0,0,1-.965.107L28.4,31.429a8.988,8.988,0,0,1-1.655.692l-.413,1.906a.774.774,0,0,1-.754.612Z" transform="translate(-23.5 -13)" fill="#222872"/>
          </g>
        </g>
      </g>
      <g id="XMLID_1810_" transform="translate(34.003 24.731)">
        <g id="Group_55899" data-name="Group 55899">
          <g id="Group_55898" data-name="Group 55898">
            <path id="Path_15103" data-name="Path 15103" d="M26.7,25.622a.772.772,0,0,1-.43-1.414,3.093,3.093,0,0,0-1.72-5.662,3.141,3.141,0,0,0-.618.062.773.773,0,1,1-.311-1.515A4.77,4.77,0,0,1,24.546,17a4.637,4.637,0,0,1,2.58,8.49.771.771,0,0,1-.43.131Z" transform="translate(-22.999 -17)" fill="#222872"/>
          </g>
        </g>
      </g>
      <g id="XMLID_1293_" transform="translate(6.183 13.012)">
        <g id="Group_55901" data-name="Group 55901">
          <g id="Group_55900" data-name="Group 55900">
            <path id="Path_15104" data-name="Path 15104" d="M9.637,18.046a4.637,4.637,0,0,1-2.569-8.5.773.773,0,1,1,.856,1.286A3.092,3.092,0,0,0,9.637,16.5a3.006,3.006,0,0,0,.606-.06.773.773,0,1,1,.3,1.515,4.536,4.536,0,0,1-.91.091Z" transform="translate(-5 -9.418)" fill="#222872"/>
          </g>
        </g>
      </g>
      <g id="XMLID_1811_" transform="translate(0 6.183)">
        <g id="Group_55903" data-name="Group 55903" transform="translate(0 0)">
          <g id="Group_55902" data-name="Group 55902">
            <path id="Path_15105" data-name="Path 15105" d="M11.82,26.639h-1.3a.772.772,0,0,1-.754-.611l-.413-1.906A8.944,8.944,0,0,1,7.7,23.431l-1.66,1.062a.772.772,0,0,1-.963-.105L3.251,22.564a.772.772,0,0,1-.1-.963l1.062-1.66a8.971,8.971,0,0,1-.692-1.659l-1.909-.424A.775.775,0,0,1,1,17.1V14.537a.772.772,0,0,1,.606-.754l1.909-.424A8.914,8.914,0,0,1,4.207,11.7L3.148,10.056a.769.769,0,0,1,.1-.963L5.074,7.254a.77.77,0,0,1,.965-.107L7.7,8.209a8.988,8.988,0,0,1,1.655-.692l.413-1.906a.772.772,0,0,1,1.51.326L10.767,8.3a.77.77,0,0,1-.573.587,7.433,7.433,0,0,0-2.114.883.772.772,0,0,1-.818-.008l-1.53-.978-.949.955.978,1.518a.768.768,0,0,1,.011.821,7.357,7.357,0,0,0-.881,2.113.775.775,0,0,1-.584.575l-1.761.39v1.325l1.761.391a.775.775,0,0,1,.584.575,7.4,7.4,0,0,0,.881,2.113.769.769,0,0,1-.009.819l-.98,1.53.946.946,1.532-.98a.776.776,0,0,1,.818-.008,7.442,7.442,0,0,0,2.113.883.77.77,0,0,1,.573.587l.38,1.756h.675a.773.773,0,1,1,0,1.546Z" transform="translate(-1 -5)" fill="#222872"/>
          </g>
        </g>
      </g>
      <g id="XMLID_1813_" transform="translate(15.456 19.321)">
        <g id="XMLID_1890_" transform="translate(6.183)">
          <g id="Group_55905" data-name="Group 55905">
            <g id="Group_55904" data-name="Group 55904">
              <path id="Path_15106" data-name="Path 15106" d="M15.773,21.228a.784.784,0,0,1-.187-.023.771.771,0,0,1-.563-.937l1.546-6.183a.773.773,0,0,1,1.5.374l-1.546,6.183a.77.77,0,0,1-.75.586Z" transform="translate(-15 -13.5)" fill="#009eff"/>
            </g>
          </g>
        </g>
        <g id="XMLID_1888_" transform="translate(10.82 0.001)">
          <g id="Group_55907" data-name="Group 55907">
            <g id="Group_55906" data-name="Group 55906">
              <path id="Path_15107" data-name="Path 15107" d="M18.773,21.228a.772.772,0,0,1-.547-1.318l2.546-2.546L18.227,14.82a.773.773,0,1,1,1.093-1.093l3.091,3.091a.773.773,0,0,1,0,1.093L19.32,21A.776.776,0,0,1,18.773,21.228Z" transform="translate(-18 -13.501)" fill="#009eff"/>
            </g>
          </g>
        </g>
        <g id="XMLID_1887_" transform="translate(0 0.001)">
          <g id="Group_55909" data-name="Group 55909">
            <g id="Group_55908" data-name="Group 55908">
              <path id="Path_15108" data-name="Path 15108" d="M14.864,21.228A.776.776,0,0,1,14.317,21l-3.091-3.091a.773.773,0,0,1,0-1.093l3.091-3.091A.773.773,0,0,1,15.41,14.82l-2.544,2.544,2.544,2.544a.773.773,0,0,1,0,1.093A.765.765,0,0,1,14.864,21.228Z" transform="translate(-11 -13.501)" fill="#009eff"/>
            </g>
          </g>
        </g>
      </g>
    </g>
  </g>
</svg>
