<svg id="Group_70653" data-name="Group 70653" xmlns="http://www.w3.org/2000/svg" xmlns:xlink="http://www.w3.org/1999/xlink" width="100" height="100" viewBox="0 0 100 100">
  <defs>
    <linearGradient id="linear-gradient" x1="0.5" y1="1" x2="0.5" gradientUnits="objectBoundingBox">
      <stop offset="0" stop-color="#f1f8fd"/>
      <stop offset="1" stop-color="#d8f4ff"/>
    </linearGradient>
  </defs>
  <circle id="Ellipse_988" data-name="Ellipse 988" cx="50" cy="50" r="50" fill="url(#linear-gradient)"/>
  <g id="Group_58899" data-name="Group 58899" transform="translate(29.96 30.161)">
    <path id="Union_1" data-name="Union 1" d="M16.28,39.677a.27.27,0,0,1-.27-.27V30.882a.27.27,0,0,1,.27-.27h6.89a.271.271,0,0,1,.27.27v8.526a.27.27,0,0,1-.27.27Zm15.885-.032a.018.018,0,0,1-.005-.012l0-13.134a.049.049,0,0,0-.02-.04l-12.4-9.437a.034.034,0,0,0-.039,0l-12.4,9.445a.036.036,0,0,0-.014.028V39.559a.025.025,0,0,1-.007.017.024.024,0,0,1-.019.005A8.5,8.5,0,0,1,4,38.4,8.369,8.369,0,0,1,.5,34.124a8.167,8.167,0,0,1-.491-2.816Q0,20.1,0,8.9q0-.551,0-.67A8.218,8.218,0,0,1,2.169,2.8,8.51,8.51,0,0,1,7.652.051Q8.174,0,8.7,0H30.614c.4,0,.74,0,1.006,0s.492.013.681.03a8.462,8.462,0,0,1,4.478,1.739A8.278,8.278,0,0,1,39.724,6.02q.1.328.167.65a8.3,8.3,0,0,1,.175,1.5c.009.356.014.71.014,1.066q-.005,10.764,0,21.529,0,.381-.007.7c-.005.252-.019.474-.04.67a8.266,8.266,0,0,1-1.642,4.17q-.2.269-.428.522a8.5,8.5,0,0,1-4.369,2.621,7.942,7.942,0,0,1-1.412.209A.016.016,0,0,1,32.165,39.645ZM19.742,14.236,36.12,26.711q.024.018.024-.011l.006-5.412a.063.063,0,0,0-.025-.05L19.746,8.762a.037.037,0,0,0-.042,0L3.637,21a.05.05,0,0,0-.02.04v5.425c0,.019.007.023.023.011L19.714,14.236a.023.023,0,0,1,.028,0Zm-.155,14.881A14.334,14.334,0,0,1,17.3,27.4a7.758,7.758,0,0,1-1.038-1.176,3.9,3.9,0,0,1-.394-.688,2.461,2.461,0,0,1-.213-.958,1.9,1.9,0,0,1,.379-1.193,2.028,2.028,0,0,1,1.22-.795,2.122,2.122,0,0,1,1.014.01,2.1,2.1,0,0,1,.617.277,2.817,2.817,0,0,1,.735.692.019.019,0,0,0,.015.007.015.015,0,0,0,.015-.007,3.165,3.165,0,0,1,.754-.682,2.013,2.013,0,0,1,1.394-.3,2.243,2.243,0,0,1,.79.25,1.978,1.978,0,0,1,.526.423,1.945,1.945,0,0,1,.463.932,1.991,1.991,0,0,1,.028.6,2.205,2.205,0,0,1-.142.589,3.5,3.5,0,0,1-.366.7,7.184,7.184,0,0,1-1.069,1.245,14.138,14.138,0,0,1-2.408,1.795.039.039,0,0,1-.018,0A.035.035,0,0,1,19.587,29.117Z" fill="#26aefe"/>
  </g>
</svg>
