<svg xmlns="http://www.w3.org/2000/svg" width="45.985" height="44.066" viewBox="0 0 45.985 44.066">
  <g id="shopping-cart" transform="translate(0 -10.668)">
    <path id="Path_51332" data-name="Path 51332" d="M205.288,20.816a4.05,4.05,0,0,0,.085-.826v-2.4a4.051,4.051,0,0,0-4.047-4.047h-.749v-.989a1.889,1.889,0,1,0-3.777,0v.989h-1.829A2.971,2.971,0,0,0,192,16.513V27.785a2.971,2.971,0,0,0,2.968,2.968H196.8v.989a1.889,1.889,0,1,0,3.777,0v-.989h2.668a4.051,4.051,0,0,0,4.047-4.047v-2.4a4.048,4.048,0,0,0-2-3.491Zm-9.508-3.494h5.546a.27.27,0,0,1,.27.27v2.4a.27.27,0,0,1-.27.27H195.78Zm7.734,9.383a.27.27,0,0,1-.27.27H195.78V24.038h7.464a.27.27,0,0,1,.27.27Z" transform="translate(-174.736)" fill="#06b2ff"/>
    <path id="Path_51333" data-name="Path 51333" d="M45.585,40.4a1.889,1.889,0,0,0-1.488-.727H38.55a2.158,2.158,0,0,0-2.158,2.158V46.36A7.644,7.644,0,0,1,28.748,54H20.265a6.843,6.843,0,0,1-6.835-6.835V41.833a2.158,2.158,0,0,0-2.158-2.158H8.141L7.607,33.72A1.89,1.89,0,0,0,5.726,32H1.889a1.889,1.889,0,0,0,0,3.777H4L6.069,58.84c0,.027,0,.054,0,.081a1.816,1.816,0,0,0,.025.213l.076.844.005.048A7.27,7.27,0,0,0,8.891,64.9a5.723,5.723,0,1,0,9.892,1.574H29.119a5.726,5.726,0,1,0,5.3-3.777H13.412a3.507,3.507,0,0,1-3.224-2.126L40.37,58.8a1.888,1.888,0,0,0,1.721-1.427l3.837-15.348a1.886,1.886,0,0,0-.344-1.62Z" transform="translate(0 -19.415)" fill="#06b2ff"/>
  </g>
</svg>
