<svg xmlns="http://www.w3.org/2000/svg" width="170.39" height="40" viewBox="0 0 170.39 40">
  <g id="Group_119" data-name="Group 119" transform="translate(-27 -39)">
    <path id="Path_10" data-name="Path 10" d="M8.654,3.891A20.115,20.115,0,0,0,4.807,7.406C9.4,6.98,15.227,7.676,22,11.06c7.229,3.614,13.049,3.736,17.1,2.955a19.888,19.888,0,0,0-1.378-3.2c-4.637.489-10.582-.158-17.511-3.622A29.754,29.754,0,0,0,8.654,3.891ZM35.009,6.96A20.034,20.034,0,0,0,15.065.933,37.679,37.679,0,0,1,22,3.616,28.821,28.821,0,0,0,35.009,6.96Zm4.953,10.961c-4.894.966-11.652.768-19.755-3.284C12.631,10.85,6.6,10.9,2.535,11.8q-.315.07-.615.147a19.851,19.851,0,0,0-1.262,3.64q.489-.131,1.009-.247C6.6,14.245,13.571,14.292,22,18.5c7.576,3.788,13.605,3.74,17.672,2.836q.209-.046.412-.1.022-.473.022-.952A20.211,20.211,0,0,0,39.962,17.922Zm-.536,7.544c-4.847.847-11.408.522-19.219-3.384C12.631,18.295,6.6,18.342,2.535,19.246a19.943,19.943,0,0,0-2.431.7q0,.172,0,.345a20,20,0,0,0,39.325,5.172Z" transform="translate(26.899 38.706)" fill="#7f57f1" fill-rule="evenodd"/>
    <text id="BitMarket" transform="translate(79.39 67)" fill="#00245e" font-size="24" font-family="Poppins-SemiBold, Poppins" font-weight="600"><tspan x="0" y="0">BitMarket</tspan></text>
  </g>
</svg>
