<svg xmlns="http://www.w3.org/2000/svg" width="33.866" height="33.866" viewBox="0 0 33.866 33.866">
  <g id="blockchain-app" transform="translate(-2 -2)">
    <path id="Path_51329" data-name="Path 51329" d="M32.237,2H5.628A3.639,3.639,0,0,0,2,5.628V27.4a3.639,3.639,0,0,0,3.628,3.628h7.257v2.419H10.466v2.419H27.4V33.447H24.98V31.028h7.257A3.639,3.639,0,0,0,35.866,27.4V5.628A3.639,3.639,0,0,0,32.237,2ZM29.818,8.047h2.419v13.3H29.818ZM26.19,14.095h2.419v7.257H26.19Zm-3.628-3.628H24.98V21.352H22.561Zm-3.628,6.047h2.419v4.838H18.933Zm-13.3,1.209H6.838V10.466H5.628V8.047H9.257V6.838h2.419V8.047a3.613,3.613,0,0,1,2.685,6.047,3.613,3.613,0,0,1-2.685,6.047v1.209H9.257V20.142H5.628ZM22.561,33.447H15.3V31.028h7.257ZM33.447,27.4a1.209,1.209,0,0,1-1.209,1.209H5.628A1.209,1.209,0,0,1,4.419,27.4V26.19H33.447Z" fill="#26aefe"/>
    <path id="Path_51330" data-name="Path 51330" d="M11.628,14.209A1.209,1.209,0,0,0,10.419,13H8v2.419h2.419A1.209,1.209,0,0,0,11.628,14.209Z" transform="translate(1.257 2.304)" fill="#26aefe"/>
    <path id="Path_51331" data-name="Path 51331" d="M11.628,10.209A1.209,1.209,0,0,0,10.419,9H8v2.419h2.419A1.209,1.209,0,0,0,11.628,10.209Z" transform="translate(1.257 1.466)" fill="#26aefe"/>
  </g>
</svg>
