<svg xmlns="http://www.w3.org/2000/svg" xmlns:xlink="http://www.w3.org/1999/xlink" width="173" height="173" viewBox="0 0 173 173">
  <defs>
    <linearGradient id="linear-gradient" x1="0.5" x2="0.5" y2="1" gradientUnits="objectBoundingBox">
      <stop offset="0" stop-color="#99e4ff"/>
      <stop offset="1" stop-color="#f1f8fd"/>
    </linearGradient>
  </defs>
  <g id="Group_70627" data-name="Group 70627" transform="translate(-323 -1878)">
    <circle id="Ellipse_727" data-name="Ellipse 727" cx="86.5" cy="86.5" r="86.5" transform="translate(323 1878)" fill="url(#linear-gradient)"/>
    <g id="bitcoin" transform="translate(372 1927)">
      <g id="Group_70562" data-name="Group 70562" transform="translate(13.184 13.184)">
        <g id="Group_70561" data-name="Group 70561">
          <path id="Path_51299" data-name="Path 51299" d="M114.463,90A24.45,24.45,0,0,0,90,114.17a24.7,24.7,0,0,0,24.463,24.463,24.45,24.45,0,0,0,24.17-24.463A24.2,24.2,0,0,0,114.463,90Zm4.395,35.156h-2.2v2.2a2.2,2.2,0,0,1-4.395,0v-2.2h-6.592a2.2,2.2,0,0,1,0-4.395h2.2V107.578h-2.2a2.2,2.2,0,0,1,0-4.395h6.592v-2.2a2.2,2.2,0,0,1,4.395,0v2.2h2.2a6.575,6.575,0,0,1,4.877,10.986A6.575,6.575,0,0,1,118.857,125.156Z" transform="translate(-90 -90)" fill="#26aefe"/>
        </g>
      </g>
      <g id="Group_70564" data-name="Group 70564" transform="translate(35.449 39.551)">
        <g id="Group_70563" data-name="Group 70563">
          <path id="Path_51300" data-name="Path 51300" d="M248.592,270H242v4.395h6.592A2.2,2.2,0,0,0,248.592,270Z" transform="translate(-242 -270)" fill="#26aefe"/>
        </g>
      </g>
      <g id="Group_70566" data-name="Group 70566" transform="translate(35.449 30.762)">
        <g id="Group_70565" data-name="Group 70565">
          <path id="Path_51301" data-name="Path 51301" d="M248.592,210H242v4.395h6.592A2.2,2.2,0,0,0,248.592,210Z" transform="translate(-242 -210)" fill="#26aefe"/>
        </g>
      </g>
      <g id="Group_70568" data-name="Group 70568" transform="translate(4.395 8.789)">
        <g id="Group_70567" data-name="Group 70567">
          <path id="Path_51302" data-name="Path 51302" d="M36.592,60a6.592,6.592,0,1,0,6.592,6.592A6.6,6.6,0,0,0,36.592,60Z" transform="translate(-30 -60)" fill="#26aefe"/>
        </g>
      </g>
      <g id="Group_70570" data-name="Group 70570" transform="translate(16.923)">
        <g id="Group_70569" data-name="Group 70569">
          <path id="Path_51303" data-name="Path 51303" d="M136.253,0A38.036,38.036,0,0,0,115.53,6.164a11.05,11.05,0,0,1,3.234,3.195,33.721,33.721,0,0,1,17.489-4.994,33.045,33.045,0,0,1,32.988,32.988,33.91,33.91,0,0,1-2.321,12.159,11,11,0,0,1,3.7,2.623,38.262,38.262,0,0,0,2.989-14.782A37.4,37.4,0,0,0,136.253,0Z" transform="translate(-115.53)" fill="#26aefe"/>
        </g>
      </g>
      <g id="Group_70572" data-name="Group 70572" transform="translate(0 22.864)">
        <g id="Group_70571" data-name="Group 70571">
          <path id="Path_51304" data-name="Path 51304" d="M54.843,198.863a32.7,32.7,0,0,1-17.2,4.994A33.549,33.549,0,0,1,4.365,170.575a32.362,32.362,0,0,1,2.321-11.866,11,11,0,0,1-3.7-2.623A38.262,38.262,0,0,0,0,170.868c0,20.6,17.049,37.354,37.646,37.354a37.071,37.071,0,0,0,20.43-6.164A11.05,11.05,0,0,1,54.843,198.863Z" transform="translate(0 -156.086)" fill="#26aefe"/>
        </g>
      </g>
      <g id="Group_70574" data-name="Group 70574" transform="translate(57.422 53.027)">
        <g id="Group_70573" data-name="Group 70573">
          <path id="Path_51305" data-name="Path 51305" d="M398.592,362a6.592,6.592,0,1,0,6.592,6.592A6.6,6.6,0,0,0,398.592,362Z" transform="translate(-392 -362)" fill="#26aefe"/>
        </g>
      </g>
    </g>
  </g>
</svg>
