<svg xmlns="http://www.w3.org/2000/svg" width="117" height="117" viewBox="0 0 117 117">
  <g id="Group_58745" data-name="Group 58745" transform="translate(-1025 -2889)">
    <circle id="Ellipse_727" data-name="Ellipse 727" cx="58.5" cy="58.5" r="58.5" transform="translate(1025 2889)" fill="#e9f7ff"/>
    <g id="Group_58598" data-name="Group 58598" transform="translate(-256.88 226.369)">
      <path id="Path_51196" data-name="Path 51196" d="M247.656,242.722H228.068a3.4,3.4,0,0,1-3.4-3.4V221.9a1.132,1.132,0,0,1,1.132-1.132H249.92a1.132,1.132,0,0,1,1.132,1.132v17.422a3.4,3.4,0,0,1-3.4,3.4Zm-20.72-19.686v16.289a1.133,1.133,0,0,0,1.132,1.132h19.588a1.133,1.133,0,0,0,1.132-1.132V223.036Z" transform="translate(1102.227 2493.794)" fill="#222872"/>
      <path id="Path_51197" data-name="Path 51197" d="M272.267,103.662H254.1a1.132,1.132,0,0,1-1.132-1.132V97.587a10.215,10.215,0,0,1,20.43,0v4.943a1.133,1.133,0,0,1-1.133,1.132ZM255.235,101.4h15.9v-3.81a7.95,7.95,0,1,0-15.9,0Z" transform="translate(1076.903 2613.167)" fill="#222872"/>
      <path id="Path_51198" data-name="Path 51198" d="M94.715,60.454a1.133,1.133,0,0,1-1.037-.677,27.178,27.178,0,0,1,44.094-30.166,1.132,1.132,0,1,1-1.6,1.6,24.914,24.914,0,0,0-40.42,27.654,1.132,1.132,0,0,1-1.036,1.588Z" transform="translate(1221.536 2671.966)" fill="#222872"/>
      <path id="Path_51199" data-name="Path 51199" d="M183.725,199.548a27.1,27.1,0,0,1-19.219-7.946,1.132,1.132,0,0,1,1.6-1.6,24.913,24.913,0,0,0,39.965-28.625,1.132,1.132,0,0,1,2.031-1,27.158,27.158,0,0,1-24.379,39.174Z" transform="translate(1156.363 2548.406)" fill="#222872"/>
      <path id="Path_51200" data-name="Path 51200" d="M481.584,62.277h-4a1.132,1.132,0,0,1,0-2.265h2.872v-2.87a1.132,1.132,0,1,1,2.265,0v4a1.132,1.132,0,0,1-1.132,1.132Z" transform="translate(876.922 2641.233)"/>
      <path id="Path_51201" data-name="Path 51201" d="M165.3,450.647a1.133,1.133,0,0,1-1.132-1.132v-4a1.132,1.132,0,0,1,1.132-1.132h4a1.132,1.132,0,0,1,0,2.265h-2.872v2.87a1.132,1.132,0,0,1-1.132,1.132Z" transform="translate(1156.367 2293.695)"/>
      <path id="Path_51202" data-name="Path 51202" d="M321.208,288.006a3.4,3.4,0,1,1,3.4-3.4A3.4,3.4,0,0,1,321.208,288.006Zm0-4.529a1.132,1.132,0,1,0,1.132,1.132A1.133,1.133,0,0,0,321.208,283.477Z" transform="translate(1018.88 2439.708)" fill="#009eff"/>
      <path id="Path_51203" data-name="Path 51203" d="M340.482,329.7a1.132,1.132,0,0,1-1.132-1.132v-3.141a1.132,1.132,0,1,1,2.265,0v3.141A1.132,1.132,0,0,1,340.482,329.7Z" transform="translate(999.605 2401.158)" fill="#009eff"/>
    </g>
  </g>
</svg>
