<svg xmlns="http://www.w3.org/2000/svg" width="113" height="113" viewBox="0 0 113 113">
  <g id="Group_58750" data-name="Group 58750" transform="translate(-300 -3937)">
    <circle id="Ellipse_727" data-name="Ellipse 727" cx="56.5" cy="56.5" r="56.5" transform="translate(300 3937)" fill="#06b2ff"/>
    <g id="Group_58608" data-name="Group 58608" transform="translate(-5959.546 1339.143)">
      <path id="Path_51229" data-name="Path 51229" d="M256.162,410.092v-2.582a1.071,1.071,0,1,0-2.068,0v2.582a1.071,1.071,0,1,0,2.068,0Z" transform="translate(6055.921 2263.148)" fill="#fff"/>
      <path id="Path_51230" data-name="Path 51230" d="M254.351,183.416V186a1.071,1.071,0,1,0,2.068,0v-2.582a1.071,1.071,0,1,0-2.068,0Z" transform="translate(6055.695 2459.802)" fill="#fff"/>
      <path id="Path_51231" data-name="Path 51231" d="M174.75,221.858l-1.811-1.832a1.038,1.038,0,0,0-1.457,1.478l1.789,1.821h0a1.042,1.042,0,1,0,1.479-1.467Z" transform="translate(6128.644 2426.739)" fill="#fff"/>
      <path id="Path_51232" data-name="Path 51232" d="M139.774,304.06h-2.55a1.071,1.071,0,0,0,0,2.143h2.55a1.071,1.071,0,1,0,0-2.143Z" transform="translate(6159.388 2352.743)" fill="#fff"/>
      <path id="Path_51233" data-name="Path 51233" d="M172.233,377.576a1.07,1.07,0,0,0,.739-.321l1.811-1.811h0a1.049,1.049,0,0,0-1.479-1.489l-1.789,1.832h0a1.071,1.071,0,0,0,0,1.467.973.973,0,0,0,.717.321Z" transform="translate(6128.609 2291.667)" fill="#fff"/>
      <path id="Path_51234" data-name="Path 51234" d="M326.324,377.8a1,1,0,0,0,.728-.321,1.07,1.07,0,0,0,0-1.467l-1.811-1.811a1.042,1.042,0,0,0-1.457,1.489l1.8,1.811h0a1.071,1.071,0,0,0,.739.3Z" transform="translate(5994.994 2291.44)" fill="#fff"/>
      <path id="Path_51235" data-name="Path 51235" d="M325.656,219.985l-1.8,1.832h0a1.071,1.071,0,0,0,0,1.467.974.974,0,0,0,.739.311.964.964,0,0,0,.718-.311l1.811-1.821a1.042,1.042,0,0,0-1.468-1.478Z" transform="translate(5994.924 2426.779)" fill="#fff"/>
      <path id="Path_51236" data-name="Path 51236" d="M98.257,103.57a19.285,19.285,0,0,1,0-38.464,19.136,19.136,0,0,1,18.8,16.318l4.629-.075a23.76,23.76,0,0,0-4.64-11.453c-.214-.289-.45-.546-.675-.814l2.143-2.2,1.9,1.918,3-3.043-6.268-6.4-3.021,3.043,1.843,1.875-2.143,2.143c-.268-.236-.525-.461-.8-.686a23.183,23.183,0,0,0-12.7-5.185v-2.7h1.618a2.679,2.679,0,1,0,0-5.357H94.56a2.679,2.679,0,1,0,0,5.357h1.618v2.754a23.9,23.9,0,0,0,2.078,47.6,23.742,23.742,0,0,0,23.5-21.653l-4.639.075h0A19.114,19.114,0,0,1,98.255,103.57Z" transform="translate(6212.829 2573.504)" fill="#fff"/>
      <path id="Path_51237" data-name="Path 51237" d="M274.506,263.352l2.155-4.082a1.549,1.549,0,0,0,0-1.35,1.226,1.226,0,0,0-1.073-.675h-8.965a1.217,1.217,0,0,0-.916.45l-3.651,4.478-23.283.4a.214.214,0,0,0-.049-.139,3.575,3.575,0,0,0-2.333-2.162,3.257,3.257,0,0,0-3,.689,3.992,3.992,0,0,0,.04,5.987,3.252,3.252,0,0,0,3.007.642,3.585,3.585,0,0,0,2.3-2.2.4.4,0,0,0,0-.118l23.4-.4,3.563,4.146a1.209,1.209,0,0,0,.886.429h8.965a1.219,1.219,0,0,0,1.072-.7,1.549,1.549,0,0,0,0-1.35Zm-7.351,3.407-1.633-1.918,6.889-.118,1.073,2.036Zm5.216-4.746-6.987.118,1.8-2.143h6.269Z" transform="translate(6075.221 2393.826)" fill="#fff"/>
    </g>
  </g>
</svg>
