<svg xmlns="http://www.w3.org/2000/svg" width="113" height="113" viewBox="0 0 113 113">
  <g id="Group_58751" data-name="Group 58751" transform="translate(-1016 -3935)">
    <circle id="Ellipse_747" data-name="Ellipse 747" cx="56.5" cy="56.5" r="56.5" transform="translate(1016 3935)" fill="#06b2ff"/>
    <path id="Path_51294" data-name="Path 51294" d="M136.293,46.629a9.276,9.276,0,0,0-6.056-8.7v-1.6a20.093,20.093,0,1,0-40.186,0v1.6a9.291,9.291,0,0,0,3.248,18h3.358a1.6,1.6,0,0,0,1.6-1.6V38.922a1.6,1.6,0,0,0-1.6-1.6H95.116v-.991a15.028,15.028,0,1,1,30.057,0v.991h-1.541a1.6,1.6,0,0,0-1.6,1.6V54.336a1.6,1.6,0,0,0,1.6,1.6h.716a11.037,11.037,0,0,1-9.3,6.606,2.366,2.366,0,0,0-2.312-1.872H107.5a2.349,2.349,0,0,0-2.367,2.367v2.7A2.349,2.349,0,0,0,107.5,68.1h5.23a2.315,2.315,0,0,0,2.312-1.982A14.606,14.606,0,0,0,128.2,55.822a9.315,9.315,0,0,0,8.092-9.193Z" transform="translate(962.004 3949.758)" fill="#fff"/>
  </g>
</svg>
