<svg xmlns="http://www.w3.org/2000/svg" width="117" height="117" viewBox="0 0 117 117">
  <g id="Group_58746" data-name="Group 58746" transform="translate(-304 -3172)">
    <circle id="Ellipse_727" data-name="Ellipse 727" cx="58.5" cy="58.5" r="58.5" transform="translate(304 3172)" fill="#e9f7ff"/>
    <g id="Group_58599" data-name="Group 58599" transform="translate(2.774 -149.893)">
      <path id="noun-uptime-4392614" d="M95.831.514A2.611,2.611,0,0,0,94.59,1.976a4.046,4.046,0,0,1-.644,1.2,5.219,5.219,0,0,1-2.061,1.349,5.242,5.242,0,0,1-2.4.548,4.086,4.086,0,0,1-1.311-.378,2.612,2.612,0,0,0-1.909-.12A6.553,6.553,0,0,0,83.8,6.381a6.575,6.575,0,0,0-1.771,2.494,2.646,2.646,0,0,0,.159,1.911,4.068,4.068,0,0,1,.4,1.3A5.252,5.252,0,0,1,82.08,14.5a5.213,5.213,0,0,1-1.311,2.081,4.113,4.113,0,0,1-1.2.662,2.62,2.62,0,0,0-1.437,1.265,6.573,6.573,0,0,0-.465,3.024,6.555,6.555,0,0,0,.517,3.013,2.663,2.663,0,0,0,1.46,1.242,4.067,4.067,0,0,1,1.2.635A5.214,5.214,0,0,1,82.2,28.486a5.25,5.25,0,0,1,.542,2.407,4.1,4.1,0,0,1-.378,1.311,2.6,2.6,0,0,0-.113,1.909,6.6,6.6,0,0,0,1.816,2.464,6.589,6.589,0,0,0,2.489,1.771,2.634,2.634,0,0,0,1.909-.157,4.052,4.052,0,0,1,1.3-.4,5.214,5.214,0,0,1,2.406.5,5.272,5.272,0,0,1,2.092,1.311,4.042,4.042,0,0,1,.655,1.191,2.673,2.673,0,0,0,1.267,1.444,9.574,9.574,0,0,0,6.037-.057,2.625,2.625,0,0,0,1.241-1.455,4.076,4.076,0,0,1,.637-1.2,7.012,7.012,0,0,1,4.468-1.9,4.046,4.046,0,0,1,1.3.378,2.609,2.609,0,0,0,1.916.12,6.506,6.506,0,0,0,2.464-1.809,6.535,6.535,0,0,0,1.764-2.494,2.638,2.638,0,0,0-.152-1.911,4.077,4.077,0,0,1-.4-1.3,5.2,5.2,0,0,1,.5-2.407,5.236,5.236,0,0,1,1.317-2.086,4.044,4.044,0,0,1,1.19-.655,2.677,2.677,0,0,0,1.444-1.272,6.556,6.556,0,0,0,.46-3.02,6.579,6.579,0,0,0-.517-3.018A2.651,2.651,0,0,0,118.4,16.91a4.067,4.067,0,0,1-1.2-.635,5.225,5.225,0,0,1-1.342-2.061,5.255,5.255,0,0,1-.548-2.4,4.1,4.1,0,0,1,.378-1.312,2.644,2.644,0,0,0,.12-1.916,6.6,6.6,0,0,0-1.816-2.463A6.545,6.545,0,0,0,111.5,4.357a2.62,2.62,0,0,0-1.909.152,4.052,4.052,0,0,1-1.3.4,5.236,5.236,0,0,1-2.412-.5,5.241,5.241,0,0,1-2.086-1.311,4.049,4.049,0,0,1-.655-1.192A2.628,2.628,0,0,0,101.867.463a9.5,9.5,0,0,0-6.037.05Zm15.42,36c-.295.1-.374.061-.757-.088a5.608,5.608,0,0,0-1.809-.492,8.571,8.571,0,0,0-5.89,2.5,5.614,5.614,0,0,0-.909,1.639c-.159.379-.184.461-.46.605a8.491,8.491,0,0,1-4.474.043c-.277-.139-.308-.222-.473-.6a5.606,5.606,0,0,0-.932-1.632,8.579,8.579,0,0,0-5.929-2.394,5.608,5.608,0,0,0-1.8.524c-.379.155-.454.193-.75.1a5.526,5.526,0,0,1-1.809-1.354,5.516,5.516,0,0,1-1.385-1.784c-.1-.3-.06-.373.088-.755a5.632,5.632,0,0,0,.49-1.809,6.964,6.964,0,0,0-.673-3.189,6.939,6.939,0,0,0-1.821-2.7,5.638,5.638,0,0,0-1.646-.907c-.38-.159-.465-.184-.61-.46a5.526,5.526,0,0,1-.322-2.238,5.543,5.543,0,0,1,.283-2.238c.14-.278.222-.307.6-.472a5.6,5.6,0,0,0,1.625-.932,6.967,6.967,0,0,0,1.777-2.736,6.955,6.955,0,0,0,.623-3.2,5.569,5.569,0,0,0-.524-1.8c-.156-.38-.193-.46-.1-.757a5.53,5.53,0,0,1,1.356-1.807A5.552,5.552,0,0,1,86.8,6.191c.295-.1.374-.061.757.088a5.587,5.587,0,0,0,1.807.492A6.944,6.944,0,0,0,92.554,6.1a6.94,6.94,0,0,0,2.7-1.823,5.58,5.58,0,0,0,.9-1.644c.159-.379.191-.461.467-.605a8.419,8.419,0,0,1,4.474-.038c.277.139.307.222.472.6a5.61,5.61,0,0,0,.934,1.627,6.949,6.949,0,0,0,2.734,1.776,6.917,6.917,0,0,0,3.194.619,5.611,5.611,0,0,0,1.8-.517c.379-.155.459-.2.755-.107a5.531,5.531,0,0,1,1.8,1.354,5.585,5.585,0,0,1,1.392,1.791c.1.3.06.373-.088.755a5.632,5.632,0,0,0-.49,1.809,6.958,6.958,0,0,0,.673,3.188,6.948,6.948,0,0,0,1.821,2.7,5.574,5.574,0,0,0,1.646.9c.38.159.465.184.61.46a5.582,5.582,0,0,1,.315,2.238,5.617,5.617,0,0,1-.277,2.242c-.14.278-.229.3-.605.467a5.655,5.655,0,0,0-1.625.939,6.935,6.935,0,0,0-1.777,2.73,6.938,6.938,0,0,0-.617,3.2,5.645,5.645,0,0,0,.517,1.8c.156.38.2.452.107.749a5.515,5.515,0,0,1-1.358,1.809,5.582,5.582,0,0,1-1.78,1.387ZM72.731,8.876l-2.559,3.416a.855.855,0,0,0,1.367,1.027l1.02-1.359V21.77a26.038,26.038,0,1,0,52.076,0V20.491a.854.854,0,0,0-1.709,0V21.77a24.33,24.33,0,1,1-48.659,0V11.951l1.027,1.369a.855.855,0,1,0,1.367-1.027L74.1,8.876a.857.857,0,0,0-1.367,0ZM79.39,48.664a.854.854,0,0,0-.85.857v2.559a.854.854,0,1,0,1.709,0V49.522A.854.854,0,0,0,79.39,48.664Zm11.955,0a.854.854,0,0,0-.857.857v2.559a.854.854,0,1,0,1.707,0V49.522A.854.854,0,0,0,91.344,48.664Zm11.948,0a.854.854,0,0,0-.85.857v2.559a.854.854,0,1,0,1.707,0V49.522A.854.854,0,0,0,103.292,48.664Zm11.955,0a.854.854,0,0,0-.857.857v2.559a.854.854,0,1,0,1.707,0V49.522A.854.854,0,0,0,115.246,48.664Zm-29.882,1.7a.854.854,0,0,0-.85.857v2.558a.854.854,0,1,0,1.709,0V51.217A.854.854,0,0,0,85.364,50.36Zm11.955,0a.854.854,0,0,0-.857.857v2.558a.854.854,0,1,0,1.707,0V51.217A.854.854,0,0,0,97.319,50.36Zm11.948,0a.854.854,0,0,0-.85.857v2.558a.854.854,0,1,0,1.707,0V51.217A.854.854,0,0,0,109.267,50.36Z" transform="translate(262.226 3354.897)" fill="#222872"/>
      <path id="noun-uptime-4392614-2" data-name="noun-uptime-4392614" d="M108.851,11.794a13.667,13.667,0,1,0,3.992,9.617,13.8,13.8,0,0,0-3.992-9.617ZM98.33,9.531v.8a.854.854,0,1,0,1.709,0v-.8A11.921,11.921,0,0,1,111.1,20.572h-.819a.854.854,0,1,0,0,1.707h.822a11.923,11.923,0,0,1-11.067,11.079v-.832a.854.854,0,0,0-1.709,0v.832A11.933,11.933,0,0,1,87.264,22.279h.827a.854.854,0,0,0,0-1.707h-.824A11.932,11.932,0,0,1,98.33,9.531Zm0,5.917v6.831a.852.852,0,0,0,.253.605l2.558,2.559a.854.854,0,1,0,1.21-1.2l-2.313-2.313V15.448a.854.854,0,0,0-1.709,0Z" transform="translate(262.064 3354.815)" fill="#009eff"/>
    </g>
  </g>
</svg>
