<svg xmlns="http://www.w3.org/2000/svg" width="117" height="117" viewBox="0 0 117 117">
  <g id="Group_58747" data-name="Group 58747" transform="translate(-1025 -3172)">
    <circle id="Ellipse_727" data-name="Ellipse 727" cx="58.5" cy="58.5" r="58.5" transform="translate(1025 3172)" fill="#e9f7ff"/>
    <g id="Group_58600" data-name="Group 58600" transform="translate(-5544.392 1700)">
      <path id="Path_51104" data-name="Path 51104" d="M256.489,211.69a1.93,1.93,0,0,0,0-2.735l-.122-.123q.065-.147.123-.3h.177A1.934,1.934,0,0,0,258.6,206.6v-1.484a1.934,1.934,0,0,0-1.933-1.931h-.177c-.039-.1-.08-.2-.123-.3l.127-.127h0a1.93,1.93,0,0,0,0-2.733l-1.045-1.046h0a1.934,1.934,0,0,0-2.734,0l-.125.125q-.146-.064-.295-.122v-.177a1.935,1.935,0,0,0-1.933-1.933h-1.483a1.935,1.935,0,0,0-1.933,1.933v.178q-.148.058-.295.122l-.125-.126h0a1.933,1.933,0,0,0-2.73,0l-1.053,1.053h0a1.932,1.932,0,0,0,0,2.732l.125.126q-.064.147-.123.3h-.177a1.934,1.934,0,0,0-1.932,1.931V206.6a1.934,1.934,0,0,0,1.932,1.931h.177c.039.1.08.2.123.3l-.127.128a1.931,1.931,0,0,0,0,2.731l1.049,1.049a1.933,1.933,0,0,0,2.73,0l.128-.128q.146.064.294.122v.179h0a1.935,1.935,0,0,0,1.933,1.931h1.483a1.935,1.935,0,0,0,1.933-1.931v-.179q.149-.058.295-.122l.126.126a1.935,1.935,0,0,0,2.732,0Zm-2.417.179h0a.494.494,0,0,1-.35-.144l-.525-.524a.692.692,0,0,0-.788-.1,5.956,5.956,0,0,1-1.073.446.7.7,0,0,0-.488.629v.741a.495.495,0,0,1-.5.494h-1.483a.495.495,0,0,1-.5-.494v-.741a.7.7,0,0,0-.487-.629,5.964,5.964,0,0,1-1.074-.446.691.691,0,0,0-.325-.078.659.659,0,0,0-.464.178l-.524.524a.5.5,0,0,1-.7,0l-1.05-1.051a.493.493,0,0,1,0-.7l.524-.526h0a.7.7,0,0,0,.1-.789,5.933,5.933,0,0,1-.445-1.075.7.7,0,0,0-.629-.487h-.74a.493.493,0,0,1-.494-.494v-1.484a.493.493,0,0,1,.494-.494h.74a.7.7,0,0,0,.629-.487,5.91,5.91,0,0,1,.445-1.075.7.7,0,0,0-.1-.789l-.524-.526h0a.494.494,0,0,1,0-.7L244.8,200a.5.5,0,0,1,.7,0l.524.525a.694.694,0,0,0,.789.1,5.989,5.989,0,0,1,1.074-.446.7.7,0,0,0,.487-.629v-.739a.5.5,0,0,1,.5-.5h1.483a.5.5,0,0,1,.5.5v.74h0a.7.7,0,0,0,.488.629,5.934,5.934,0,0,1,1.074.446.693.693,0,0,0,.788-.1l.525-.525a.5.5,0,0,1,.7,0l1.049,1.05a.492.492,0,0,1,0,.7l-.524.526h0a.7.7,0,0,0-.1.789,5.785,5.785,0,0,1,.446,1.075.7.7,0,0,0,.628.487h.741a.494.494,0,0,1,.5.494V206.6a.494.494,0,0,1-.5.494h-.741a.7.7,0,0,0-.628.489,5.9,5.9,0,0,1-.445,1.073.7.7,0,0,0,.1.789l.524.526h0a.492.492,0,0,1,0,.7l-1.049,1.051a.5.5,0,0,1-.351.144Z" transform="translate(6378.78 1327.293)" fill="#009eff"/>
      <path id="Path_51105" data-name="Path 51105" d="M317.1,270.112a3.238,3.238,0,1,0-.948,2.285A3.235,3.235,0,0,0,317.1,270.112Zm-5.031,0a1.8,1.8,0,1,1,.528,1.27A1.8,1.8,0,0,1,312.068,270.112Z" transform="translate(6314.527 1263.044)" fill="#009eff"/>
      <path id="Path_51106" data-name="Path 51106" d="M325.189,100.409v2.641h1.437v-2.641a2.156,2.156,0,1,0-1.437,0Zm.719-2.749a.719.719,0,1,1-.719.719A.718.718,0,0,1,325.907,97.66Z" transform="translate(6302.484 1419.683)" fill="#222872"/>
      <path id="Path_51107" data-name="Path 51107" d="M275.647,148.109a.719.719,0,1,1-.719-.719.719.719,0,0,1,.719.719" transform="translate(6347.956 1372.716)" fill="#222872"/>
      <path id="Path_51108" data-name="Path 51108" d="M404.707,148.109a.719.719,0,1,1-.719-.719.719.719,0,0,1,.719.719" transform="translate(6229.497 1372.716)" fill="#222872"/>
      <path id="Path_51109" data-name="Path 51109" d="M275.647,436.849a.719.719,0,1,1-.719-.719.719.719,0,0,1,.719.719" transform="translate(6347.956 1107.694)" fill="#222872"/>
      <path id="Path_51110" data-name="Path 51110" d="M404.707,436.849a.719.719,0,1,1-.719-.719.719.719,0,0,1,.719.719" transform="translate(6229.497 1107.694)" fill="#222872"/>
      <path id="Path_51111" data-name="Path 51111" d="M484.557,227.949a.719.719,0,1,1-.719-.719.719.719,0,0,1,.719.719" transform="translate(6156.206 1299.435)" fill="#222872"/>
      <path id="Path_51112" data-name="Path 51112" d="M484.557,357.009a.719.719,0,1,1-.719-.719.719.719,0,0,1,.719.719" transform="translate(6156.206 1180.976)" fill="#222872"/>
      <path id="Path_51113" data-name="Path 51113" d="M195.807,227.949a.719.719,0,1,1-.719-.719.719.719,0,0,1,.719.719" transform="translate(6421.238 1299.435)" fill="#222872"/>
      <path id="Path_51114" data-name="Path 51114" d="M195.807,357.009a.719.719,0,1,1-.719-.719.719.719,0,0,1,.719.719" transform="translate(6421.238 1180.976)" fill="#222872"/>
      <path id="Path_51115" data-name="Path 51115" d="M326.624,435.765v-2.641h-1.437v2.641a2.156,2.156,0,1,0,1.437,0Zm-.719,2.749a.719.719,0,1,1,.719-.719A.718.718,0,0,1,325.906,438.515Z" transform="translate(6302.485 1110.453)" fill="#222872"/>
      <path id="Path_51116" data-name="Path 51116" d="M481.547,284.312a2.156,2.156,0,1,0-2.03-2.875h-2.641v1.438h2.641a2.158,2.158,0,0,0,2.03,1.437Zm0-2.875a.719.719,0,1,1-.719.719A.718.718,0,0,1,481.547,281.438Z" transform="translate(6161.938 1250.999)" fill="#222872"/>
      <path id="Path_51117" data-name="Path 51117" d="M70.679,13.656a.724.724,0,0,0,.758-.678L71.63,9.5c.022-.3.516-.573.735-.653.025-.009,1.4-.672,1.4-.672l1.386,1.994h0a.718.718,0,0,0,.59.308h0a.718.718,0,0,0,.59-.308l1.39-2s1.389.665,1.414.673c.181.063.712.347.734.639l.194,3.494a.719.719,0,0,0,.717.679h.04A.719.719,0,0,0,81.5,12.9l-.2-3.507A2.442,2.442,0,0,0,79.654,7.5l-1.826-.876V5.879a4.653,4.653,0,0,0,.566-1.884c.013-.107.028-.214.043-.321a3.12,3.12,0,0,0-.4-2.515h0A2.781,2.781,0,0,0,76.062.013a4.478,4.478,0,0,0-.639,0,2.779,2.779,0,0,0-1.96,1.144,3.122,3.122,0,0,0-.4,2.519c.015.106.03.212.043.317a4.69,4.69,0,0,0,.558,1.85v.78l-1.82.879A2.446,2.446,0,0,0,70.2,9.4L70,12.9a.719.719,0,0,0,.678.758ZM76.39,7.568l-.648.93-.64-.921v-.6a2.954,2.954,0,0,0,.408.093,1.632,1.632,0,0,0,.506,0,3.09,3.09,0,0,0,.374-.084ZM74.6,2.036a1.361,1.361,0,0,1,.971-.591,1.782,1.782,0,0,1,.351,0,1.359,1.359,0,0,1,.976.591c.256.333.21.764.115,1.438-.016.117-.033.233-.047.349-.154,1.268-.507,1.66-1.026,1.791h0a.7.7,0,0,1-.355.006c-.461-.11-.888-.458-1.051-1.8-.014-.115-.03-.23-.047-.346-.1-.675-.142-1.106.114-1.439Z" transform="translate(6535.392 1507.998)" fill="#222872"/>
      <path id="Path_51118" data-name="Path 51118" d="M132.687,145.079a.719.719,0,1,1-.719-.719.719.719,0,0,1,.719.719" transform="translate(6479.173 1375.498)" fill="#222872"/>
      <path id="Path_51119" data-name="Path 51119" d="M490.683,13.656a.724.724,0,0,0,.758-.678l.193-3.481c.022-.3.516-.573.735-.653.025-.009,1.4-.672,1.4-.672l1.386,1.994h0a.718.718,0,0,0,.59.308h0a.718.718,0,0,0,.59-.308l1.39-2s1.389.665,1.414.673c.181.063.712.347.734.639l.194,3.494a.719.719,0,0,0,.717.679h.04a.719.719,0,0,0,.678-.758l-.2-3.507a2.442,2.442,0,0,0-1.65-1.887l-1.826-.876V5.879a4.652,4.652,0,0,0,.566-1.884c.013-.107.028-.214.043-.321a3.12,3.12,0,0,0-.4-2.515h0A2.781,2.781,0,0,0,496.066.013a4.477,4.477,0,0,0-.639,0,2.779,2.779,0,0,0-1.96,1.144,3.122,3.122,0,0,0-.4,2.519c.015.106.031.212.043.317a4.69,4.69,0,0,0,.558,1.85v.78l-1.82.879a2.445,2.445,0,0,0-1.65,1.9l-.194,3.494h0a.719.719,0,0,0,.678.758Zm5.711-6.088-.648.93-.64-.921v-.6a2.954,2.954,0,0,0,.408.093,1.632,1.632,0,0,0,.506,0,3.089,3.089,0,0,0,.374-.084Zm-1.789-5.532a1.361,1.361,0,0,1,.971-.591,1.782,1.782,0,0,1,.351,0,1.359,1.359,0,0,1,.976.591c.256.333.211.764.115,1.438-.016.117-.033.233-.047.349-.154,1.268-.507,1.66-1.026,1.791h0a.7.7,0,0,1-.355.006c-.461-.11-.888-.458-1.051-1.8-.014-.115-.03-.23-.047-.346-.1-.675-.142-1.106.114-1.439Z" transform="translate(6149.888 1507.998)" fill="#222872"/>
      <path id="Path_51120" data-name="Path 51120" d="M552.688,145.079a.719.719,0,1,1-.719-.719.719.719,0,0,1,.719.719" transform="translate(6093.673 1375.498)" fill="#222872"/>
      <path id="Path_51121" data-name="Path 51121" d="M79.649,401.266l-1.826-.876v-.749a4.653,4.653,0,0,0,.566-1.884c.013-.107.028-.214.043-.321a3.119,3.119,0,0,0-.4-2.515h0a2.779,2.779,0,0,0-1.977-1.146,4.481,4.481,0,0,0-.639,0,2.778,2.778,0,0,0-1.96,1.144,3.123,3.123,0,0,0-.4,2.519c.015.106.03.212.043.317a4.691,4.691,0,0,0,.558,1.85v.78l-1.82.879a2.445,2.445,0,0,0-1.65,1.9L70,406.661a.719.719,0,1,0,1.436.08l.193-3.481c.022-.3.516-.573.735-.653.025-.009,1.4-.672,1.4-.672l1.386,1.994h0a.72.72,0,0,0,.59.309h0a.719.719,0,0,0,.59-.308l1.39-2s1.389.665,1.414.673c.181.064.712.348.734.639l.194,3.495h0a.719.719,0,0,0,.717.679h.04a.719.719,0,0,0,.678-.758l-.2-3.507a2.442,2.442,0,0,0-1.65-1.887Zm-3.264.064-.648.93-.64-.921v-.6h0a2.962,2.962,0,0,0,.408.092,1.612,1.612,0,0,0,.506,0,2.977,2.977,0,0,0,.374-.084Zm.624-4.1c-.016.117-.033.234-.047.349-.154,1.268-.507,1.66-1.026,1.791h0a.705.705,0,0,1-.355.006c-.461-.11-.888-.458-1.051-1.8-.014-.115-.03-.23-.047-.346-.1-.675-.142-1.106.114-1.439h0a1.363,1.363,0,0,1,.971-.591,1.833,1.833,0,0,1,.351,0,1.361,1.361,0,0,1,.976.591c.256.333.21.764.115,1.437Z" transform="translate(6535.396 1146.579)" fill="#222872"/>
      <path id="Path_51122" data-name="Path 51122" d="M132.687,538.849a.719.719,0,1,1-.719-.719.719.719,0,0,1,.719.719" transform="translate(6479.173 1014.072)" fill="#222872"/>
      <path id="Path_51123" data-name="Path 51123" d="M499.65,401.266l-1.826-.876v-.749a4.652,4.652,0,0,0,.566-1.884c.013-.107.028-.214.043-.321a3.119,3.119,0,0,0-.4-2.515h0a2.779,2.779,0,0,0-1.977-1.146,4.481,4.481,0,0,0-.639,0,2.778,2.778,0,0,0-1.961,1.144,3.123,3.123,0,0,0-.4,2.519c.015.106.03.212.043.317a4.692,4.692,0,0,0,.558,1.85v.78l-1.82.879a2.445,2.445,0,0,0-1.65,1.9L490,406.661a.719.719,0,0,0,1.436.08l.194-3.481c.022-.3.516-.573.735-.653.025-.009,1.4-.672,1.4-.672l1.386,1.994h0a.72.72,0,0,0,.59.309h0a.719.719,0,0,0,.59-.308l1.39-2s1.389.665,1.414.673c.181.064.712.348.734.64l.194,3.495h0a.719.719,0,0,0,.717.679h.04a.719.719,0,0,0,.678-.758l-.2-3.507a2.442,2.442,0,0,0-1.65-1.887Zm-3.264.064-.648.93-.64-.921v-.6h0a2.96,2.96,0,0,0,.408.092,1.612,1.612,0,0,0,.506,0,2.977,2.977,0,0,0,.374-.084Zm.624-4.1c-.016.117-.033.234-.047.349-.154,1.268-.507,1.66-1.026,1.791h0a.7.7,0,0,1-.355.006c-.461-.11-.888-.458-1.052-1.8-.014-.115-.03-.23-.047-.346-.1-.675-.142-1.106.114-1.439h0a1.363,1.363,0,0,1,.971-.591,1.833,1.833,0,0,1,.351,0,1.361,1.361,0,0,1,.976.591c.256.333.21.764.115,1.437Z" transform="translate(6149.895 1146.579)" fill="#222872"/>
      <path id="Path_51124" data-name="Path 51124" d="M552.688,538.849a.719.719,0,1,1-.719-.719.719.719,0,0,1,.719.719" transform="translate(6093.673 1014.072)" fill="#222872"/>
      <path id="Path_51125" data-name="Path 51125" d="M434.542,186.951l1.975-1.975h0a.719.719,0,1,0-1.016-1.016l-1.974,1.974Z" transform="translate(6201.726 1339.344)" fill="#222872"/>
      <path id="Path_51126" data-name="Path 51126" d="M229.68,389.78l-1.974,1.974a.719.719,0,1,0,1.016,1.016L230.7,390.8Z" transform="translate(6390.834 1150.237)" fill="#222872"/>
      <path id="Path_51127" data-name="Path 51127" d="M229.692,186.957l1.016-1.016-1.974-1.974h0a.719.719,0,0,0-1.016,1.016Z" transform="translate(6390.822 1339.337)" fill="#222872"/>
      <path id="Path_51128" data-name="Path 51128" d="M434.539,389.77l-1.016,1.017,1.974,1.975h0a.719.719,0,0,0,1.016-1.016Z" transform="translate(6201.729 1150.246)" fill="#222872"/>
      <path id="Path_51129" data-name="Path 51129" d="M146.795,281.437h-2.641a2.156,2.156,0,1,0,0,1.437h2.641Zm-4.672,1.438a.719.719,0,1,1,.719-.719A.718.718,0,0,1,142.123,282.874Z" transform="translate(6471.175 1251)" fill="#222872"/>
    </g>
  </g>
</svg>
