<svg xmlns="http://www.w3.org/2000/svg" width="117" height="117" viewBox="0 0 117 117">
  <g id="Group_58744" data-name="Group 58744" transform="translate(-304 -2889)">
    <circle id="Ellipse_727" data-name="Ellipse 727" cx="58.5" cy="58.5" r="58.5" transform="translate(304 2889)" fill="#e9f7ff"/>
    <g id="Group_58597" data-name="Group 58597" transform="translate(300.73 -106)">
      <path id="Path_51061" data-name="Path 51061" d="M137.331,87.407a1.367,1.367,0,0,0-1.376.728L130.688,98.9l-3.7-2.9a1.167,1.167,0,0,0-.727-.245c-1.3,0-2.93,1.974-3.389,3.306-.37,1.072.031,1.59.3,1.8l6.764,5.3a3.258,3.258,0,0,0,2.632.572,3.008,3.008,0,0,0,2.077-1.7l6.922-14.319a1.272,1.272,0,0,0-.146-1.259,5.889,5.889,0,0,0-4.092-2.055Zm-3.745,17.133a1.907,1.907,0,0,1-1.291,1.062,1.945,1.945,0,0,1-1.633-.355l-6.756-5.293c-.046-.089-.005-.521.42-1.221a3.838,3.838,0,0,1,1.938-1.807l4.27,3.347a.642.642,0,0,0,.888-.2l5.591-11.434a6.55,6.55,0,0,1,1.935.465,5.9,5.9,0,0,1,1.56,1.119Z" transform="translate(-83.362 2969.916)" fill="#009eff"/>
      <path id="Path_51222" data-name="Path 51222" d="M142.467,34.074c-11.394,0-19.985,3.878-19.985,9.021V56.04a15.29,15.29,0,1,0,17.7,23.562c10.186,1.075,22.267-3.224,22.267-8.961V43.1c0-5.143-8.592-9.022-19.984-9.022Zm-2.488,26.6c6.067.5,15.7-.635,20.128-4.8v7.336c-1.993,3-8.83,5.312-16.814,5.462a15.229,15.229,0,0,0-3.313-8Zm2.488-24.255c10.4,0,17.639,3.518,17.639,6.676v.933c-.909,3.345-8.616,6.057-17.639,6.057s-16.735-2.713-17.64-6.06v-.93c0-3.157,7.244-6.676,17.64-6.676Zm-17.64,9.832c2.705,2.958,9.492,5.007,17.64,5.007s14.934-2.049,17.639-5.006V54.1c-2.062,3.1-9.305,5.471-17.639,5.471-1.22,0-2.432-.057-3.616-.155a15.258,15.258,0,0,0-14.024-4.1Zm3.254,36.967A12.949,12.949,0,1,1,141.03,70.268,12.964,12.964,0,0,1,128.081,83.218Zm14.387-5.9c-.271,0-.543-.007-.814-.012a14.59,14.59,0,0,0,1.712-7.458c7.534-.142,13.821-2.07,16.742-4.86v5.654c0,3.158-7.245,6.676-17.639,6.676ZM136.2,54.86a.584.584,0,0,1,.658-.5c1.323.175,2.7.287,4.088.334a.586.586,0,0,1-.02,1.172h-.02c-1.428-.049-2.841-.164-4.2-.344a.587.587,0,0,1-.5-.658Zm8.3.4a.586.586,0,0,1,.551-.619,40.646,40.646,0,0,0,4.075-.438.586.586,0,0,1,.186,1.158,42.015,42.015,0,0,1-4.194.451h-.035A.586.586,0,0,1,144.5,55.26Zm8.214-1.217a.586.586,0,0,1,.4-.727,21.054,21.054,0,0,0,3.762-1.471.587.587,0,0,1,.541,1.041,22.194,22.194,0,0,1-3.973,1.555.578.578,0,0,1-.165.024.588.588,0,0,1-.563-.422ZM128.222,52.59a.586.586,0,0,1,.773-.3,24.346,24.346,0,0,0,3.843,1.3.586.586,0,0,1-.289,1.136,25.42,25.42,0,0,1-4.029-1.365.587.587,0,0,1-.3-.774Zm29.439,8.92a.587.587,0,0,1-.25.791,22.2,22.2,0,0,1-3.973,1.555.578.578,0,0,1-.165.024.586.586,0,0,1-.165-1.149,21.1,21.1,0,0,0,3.762-1.471.587.587,0,0,1,.79.25ZM149.794,64.1a.586.586,0,0,1-.486.672,42.015,42.015,0,0,1-4.194.451h-.035a.586.586,0,0,1-.033-1.171,40.645,40.645,0,0,0,4.075-.438A.583.583,0,0,1,149.794,64.1Zm7.866,6.821a.587.587,0,0,1-.25.791,22.2,22.2,0,0,1-3.973,1.555.579.579,0,0,1-.165.024.586.586,0,0,1-.165-1.149,21.1,21.1,0,0,0,3.762-1.471.587.587,0,0,1,.79.25Zm-7.866,2.594a.586.586,0,0,1-.486.672,42.015,42.015,0,0,1-4.194.451h-.035a.586.586,0,0,1-.033-1.171,40.648,40.648,0,0,0,4.075-.438A.585.585,0,0,1,149.794,73.519Z" transform="translate(-78.517 2995.926)" fill="#222872"/>
    </g>
  </g>
</svg>
