<?xml version="1.0" encoding="utf-8"?>
<!-- Generator: Adobe Illustrator 25.2.0, SVG Export Plug-In . SVG Version: 6.00 Build 0)  -->
<svg version="1.1" id="Layer_1" xmlns="http://www.w3.org/2000/svg" xmlns:xlink="http://www.w3.org/1999/xlink" x="0px" y="0px"
	 viewBox="0 0 35 35" style="enable-background:new 0 0 35 35;" xml:space="preserve">
<style type="text/css">
	.st0{fill-rule:evenodd;clip-rule:evenodd;fill:#FFFFFF;}
</style>
<g id="layer1" transform="translate(-27.873 -115.591)">
	<path id="rect6094-5-9" class="st0" d="M45.3,119.6c-5.5,0-10.6,3.2-13,8.2c-0.1,0-0.2,0-0.4,0c-2.1,0-3.9,1.7-3.9,3.9c0,0,0,0,0,0
		v4.8c0,2.1,1.7,3.9,3.9,3.9c0,0,0,0,0,0c0.1,0,0.2,0,0.4,0c0.2,0.3,0.3,0.6,0.5,1c0.2,0.6,0.9,0.8,1.4,0.6c0.6-0.2,0.8-0.9,0.6-1.4
		c0-0.1-0.1-0.2-0.1-0.2c-3.4-5.9-1.4-13.3,4.5-16.7c5.9-3.4,13.3-1.4,16.7,4.5c2.2,3.8,2.2,8.4,0,12.2l0,0.1l0,0.1
		c0,0-1.4,3.2-4.3,3.2l-3.6,0c-0.3-0.5-0.9-0.8-1.5-0.8h-2.3c-1,0-1.9,0.8-1.9,1.9c0,0,0,0,0,0c0,0.6,0.4,1.1,1.3,1.1h8
		c2.7-0.2,5.1-1.9,6.2-4.4v0c0.2-0.3,0.3-0.6,0.5-0.9c0.1,0,0.2,0,0.4,0c2.1,0,3.9-1.7,3.9-3.9c0,0,0,0,0,0v-4.8
		c0-2.1-1.7-3.9-3.9-3.9c0,0,0,0,0,0c-0.1,0-0.2,0-0.4,0C55.8,122.8,50.8,119.6,45.3,119.6L45.3,119.6z M40.6,126.4
		c-0.8-0.1-1.7,0.2-2.3,0.8c-1.8,1.9-2.9,4.5-2.9,7.1c0,2.2,0.7,4.7,2,4.8c1.8,0.1,4.6-1,7.8-1c3.4,0,6.4,1.3,8.1,1
		c1.1-0.2,1.7-2.7,1.7-4.8c0-2.7-1-5.2-2.9-7.1c-1.8-1.9-4.2,0-6.9,0C43.6,127.2,42,126.5,40.6,126.4L40.6,126.4z M40.2,131
		c1,0,1.8,0.8,1.8,1.8c0,1-0.8,1.8-1.8,1.8s-1.8-0.8-1.8-1.8C38.4,131.8,39.2,131,40.2,131C40.2,131,40.2,131,40.2,131L40.2,131z
		 M50.3,131c1,0,1.8,0.8,1.8,1.8c0,1-0.8,1.8-1.8,1.8c-1,0-1.8-0.8-1.8-1.8C48.5,131.8,49.3,131,50.3,131
		C50.3,131,50.3,131,50.3,131L50.3,131z"/>
</g>
</svg>
