<svg id="bot" xmlns="http://www.w3.org/2000/svg" width="42.765" height="42.778" viewBox="0 0 42.765 42.778">
  <path id="Path_1" data-name="Path 1" d="M88.988,8.567H87.919V6.231a3.207,3.207,0,1,0-2.139,0V8.567H72.951V6.231a3.207,3.207,0,1,0-2.138,0V8.567H69.744A5.351,5.351,0,0,0,64.4,13.912V32.087a5.351,5.351,0,0,0,5.346,5.346h3.207V41.71a1.069,1.069,0,0,0,1.636.906l8.293-5.183h6.108a5.351,5.351,0,0,0,5.346-5.346V13.912A5.351,5.351,0,0,0,88.988,8.567ZM74.021,14.981a3.211,3.211,0,0,1,3.207,3.207,1.069,1.069,0,0,1-2.138,0,1.069,1.069,0,1,0-2.139,0,1.069,1.069,0,0,1-2.138,0A3.211,3.211,0,0,1,74.021,14.981ZM87.328,28.233a19.2,19.2,0,0,1-15.924,0,1.069,1.069,0,1,1,.957-1.913,17.142,17.142,0,0,0,14.012,0,1.069,1.069,0,1,1,.956,1.913Zm-.478-8.975a1.069,1.069,0,0,1-1.069-1.069,1.069,1.069,0,1,0-2.138,0,1.069,1.069,0,0,1-2.138,0,3.207,3.207,0,0,1,6.415,0,1.069,1.069,0,0,1-1.069,1.069Zm0,0" transform="translate(-57.984)" fill="#06b2ff"/>
  <path id="Path_2" data-name="Path 2" d="M385.468,170.8H384.4v10.691h1.069a3.211,3.211,0,0,0,3.207-3.207v-4.277A3.211,3.211,0,0,0,385.468,170.8Zm0,0" transform="translate(-345.91 -153.681)" fill="#06b2ff"/>
  <path id="Path_3" data-name="Path 3" d="M.4,174.008v4.277a3.211,3.211,0,0,0,3.207,3.207H4.675V170.8H3.606A3.211,3.211,0,0,0,.4,174.008Zm0,0" transform="translate(-0.398 -153.681)" fill="#06b2ff"/>
</svg>
