<svg xmlns="http://www.w3.org/2000/svg" xmlns:xlink="http://www.w3.org/1999/xlink" width="150" height="150" viewBox="0 0 150 150">
  <defs>
    <linearGradient id="linear-gradient" x1="0.5" x2="0.5" y2="1" gradientUnits="objectBoundingBox">
      <stop offset="0" stop-color="#98e4ff"/>
      <stop offset="1" stop-color="#f1f8fd"/>
    </linearGradient>
    <linearGradient id="linear-gradient-2" x1="0.639" y1="-14.128" x2="0.128" y2="39.266" gradientUnits="objectBoundingBox">
      <stop offset="0" stop-color="#53d8ff"/>
      <stop offset="1" stop-color="#3840f7"/>
    </linearGradient>
    <linearGradient id="linear-gradient-3" x1="0.598" y1="-8.039" x2="0.176" y2="28.078" xlink:href="#linear-gradient-2"/>
    <linearGradient id="linear-gradient-4" x1="0.583" y1="-6.864" x2="0.168" y2="29.22" xlink:href="#linear-gradient-2"/>
    <linearGradient id="linear-gradient-5" x1="0.574" y1="-5.734" x2="0.135" y2="30.691" xlink:href="#linear-gradient-2"/>
    <linearGradient id="linear-gradient-6" x1="94.026" y1="0.533" x2="95.033" y2="0.533" gradientUnits="objectBoundingBox">
      <stop offset="0" stop-color="#febbba"/>
      <stop offset="1" stop-color="#ff928e"/>
    </linearGradient>
    <linearGradient id="linear-gradient-7" x1="109.607" y1="0.551" x2="110.621" y2="0.551" xlink:href="#linear-gradient-6"/>
    <linearGradient id="linear-gradient-8" x1="18.108" y1="0.495" x2="19.101" y2="0.495" xlink:href="#linear-gradient-6"/>
    <linearGradient id="linear-gradient-9" x1="17.511" y1="1.586" x2="19.491" y2="4.27" xlink:href="#linear-gradient-6"/>
    <linearGradient id="linear-gradient-10" x1="130.572" y1="0.665" x2="132.573" y2="-1.115" xlink:href="#linear-gradient-6"/>
    <linearGradient id="linear-gradient-11" x1="14.436" y1="0.528" x2="15.438" y2="0.528" xlink:href="#linear-gradient-6"/>
    <linearGradient id="linear-gradient-12" x1="36.096" y1="0.519" x2="37.087" y2="0.519" xlink:href="#linear-gradient-6"/>
    <linearGradient id="linear-gradient-13" x1="-12.329" y1="7.734" x2="-12.653" y2="6.669" xlink:href="#linear-gradient-6"/>
    <linearGradient id="linear-gradient-14" x1="-41.338" y1="34.803" x2="-42.285" y2="30.19" xlink:href="#linear-gradient-6"/>
    <linearGradient id="linear-gradient-15" x1="0" y1="0.5" x2="1" y2="0.5" xlink:href="#linear-gradient-6"/>
    <linearGradient id="linear-gradient-17" x1="0.367" y1="0.85" x2="0.601" y2="0.282" xlink:href="#linear-gradient-6"/>
    <linearGradient id="linear-gradient-19" x1="12.523" y1="3.015" x2="11.483" y2="3.766" xlink:href="#linear-gradient-6"/>
    <linearGradient id="linear-gradient-20" x1="50.787" y1="8.296" x2="46.509" y2="10.906" xlink:href="#linear-gradient-6"/>
    <linearGradient id="linear-gradient-21" x1="-1.05" y1="2.829" x2="0.734" y2="-0.03" xlink:href="#linear-gradient-6"/>
    <linearGradient id="linear-gradient-22" x1="0.47" y1="0.997" x2="0.639" y2="-1.153" xlink:href="#linear-gradient-6"/>
    <linearGradient id="linear-gradient-23" x1="0.751" y1="1.908" x2="0.44" y2="0.311" xlink:href="#linear-gradient-6"/>
    <linearGradient id="linear-gradient-24" x1="-14.865" y1="20.427" x2="-13.464" y2="21.18" xlink:href="#linear-gradient-6"/>
    <linearGradient id="linear-gradient-25" x1="-64.909" y1="65.625" x2="-59.04" y2="68.068" xlink:href="#linear-gradient-6"/>
    <linearGradient id="linear-gradient-26" x1="0.623" y1="0.5" x2="1.623" y2="0.5" xlink:href="#linear-gradient-6"/>
    <linearGradient id="linear-gradient-27" x1="-189.32" y1="1.164" x2="-189.582" y2="-0.58" xlink:href="#linear-gradient-6"/>
    <linearGradient id="linear-gradient-28" x1="-223.399" y1="1.13" x2="-223.684" y2="-0.791" xlink:href="#linear-gradient-6"/>
    <linearGradient id="linear-gradient-29" x1="-53.987" y1="0.5" x2="-52.987" y2="0.5" xlink:href="#linear-gradient-6"/>
    <linearGradient id="linear-gradient-30" x1="-27.458" y1="0.5" x2="-26.458" y2="0.5" xlink:href="#linear-gradient-6"/>
    <linearGradient id="linear-gradient-31" x1="-106.838" y1="1.029" x2="-105.549" y2="0.222" xlink:href="#linear-gradient-6"/>
    <linearGradient id="linear-gradient-32" x1="-85.236" y1="0.175" x2="-86.553" y2="1.493" xlink:href="#linear-gradient-6"/>
    <linearGradient id="linear-gradient-33" x1="-272.262" y1="2.763" x2="-269" y2="0.44" xlink:href="#linear-gradient-6"/>
  </defs>
  <g id="Group_58175" data-name="Group 58175" transform="translate(-325 -1899)">
    <circle id="Ellipse_727" data-name="Ellipse 727" cx="75" cy="75" r="75" transform="translate(325 1899)" fill="url(#linear-gradient)"/>
    <g id="Group_55762" data-name="Group 55762" transform="translate(-93.323 1474.303)">
      <g id="Group_6430" data-name="Group 6430" transform="translate(454.862 462.336)">
        <g id="Group_6429" data-name="Group 6429" transform="translate(40.54 0)">
          <path id="Path_4037" data-name="Path 4037" d="M2019.178,712.748a7.8,7.8,0,0,0,1.927,1.639l.036,1.791c0,.2.174.122,2.148.8.183.059.163-.112,1.239-1.484a7.81,7.81,0,0,0,2.521-.2l1.293,1.242c.144.138.209-.037,2.083-.955a.148.148,0,0,0,.079-.152l-.253-1.775a7.793,7.793,0,0,0,1.639-1.927c1.711-.07,1.868.048,1.928-.138.618-2.038.763-2.093.608-2.209l-1.432-1.076a7.817,7.817,0,0,0-.2-2.521l1.242-1.293c.137-.143-.037-.209-.956-2.083-.087-.17-.187-.037-1.926.174a7.809,7.809,0,0,0-1.927-1.639l-.036-1.791c0-.2-.174-.122-2.148-.8-.182-.059-.157.1-1.239,1.484a7.8,7.8,0,0,0-2.522.2l-1.292-1.242a.147.147,0,0,0-.169-.025l-1.914.98a.147.147,0,0,0-.079.152l.252,1.775a7.807,7.807,0,0,0-1.639,1.927c-1.711.07-1.868-.048-1.928.138-.618,2.037-.763,2.093-.608,2.209l1.432,1.075a7.81,7.81,0,0,0,.2,2.521c-1.16,1.259-1.356,1.287-1.266,1.462l.98,1.914C2017.339,713.093,2017.447,712.958,2019.178,712.748Z" transform="translate(-2013.426 -695.984)" fill="#91dbff"/>
          <g id="Group_6428" data-name="Group 6428">
            <g id="Group_6425" data-name="Group 6425" transform="translate(9.494 9.433)">
              <path id="Path_4038" data-name="Path 4038" d="M2265.848,950.594a2.243,2.243,0,1,1,2.094,2.384h0A2.246,2.246,0,0,1,2265.848,950.594Zm2.115,2.05h0Zm-1.448-2.007a1.577,1.577,0,0,0,1.47,1.673h0a1.575,1.575,0,1,0-1.47-1.673Z" transform="translate(-2265.844 -948.496)" fill="#fff"/>
            </g>
            <g id="Group_6426" data-name="Group 6426">
              <path id="Path_4039" data-name="Path 4039" d="M1939.373,1106.753c-.086-.289-.162-.584-.225-.88a.223.223,0,0,1,.171-.265c.3-.065.26.273.481,1.017a.223.223,0,0,1-.427.127Z" transform="translate(-1938.896 -1091.719)" fill="#8fcce9"/>
              <path id="Path_4040" data-name="Path 4040" d="M1930.442,626.418a11.906,11.906,0,0,1,.219-1.823.223.223,0,0,1,.437.087c-.319,1.6-.07,1.984-.443,1.968A.223.223,0,0,1,1930.442,626.418Zm1.273-4.349a.223.223,0,0,1-.1-.3,11.744,11.744,0,0,1,.931-1.583.223.223,0,0,1,.365.255,11.335,11.335,0,0,0-.9,1.523A.227.227,0,0,1,1931.715,622.069Zm2.88-3.716a.223.223,0,0,1-.052-.372,11.843,11.843,0,0,1,1.484-1.081.223.223,0,0,1,.234.379,11.438,11.438,0,0,0-1.428,1.041A.222.222,0,0,1,1934.595,618.353Zm4.117-2.265a.223.223,0,0,1,.028-.416,11.687,11.687,0,0,1,1.792-.4.223.223,0,1,1,.062.441,11.228,11.228,0,0,0-1.724.383A.222.222,0,0,1,1938.712,616.087Zm4.552-.656a.223.223,0,0,1,.247-.2,11.807,11.807,0,0,1,1.8.348.223.223,0,0,1-.119.43,11.327,11.327,0,0,0-1.734-.335A.223.223,0,0,1,1943.265,615.432Z" transform="translate(-1930.442 -615.234)" fill="#fff"/>
              <path id="Path_4041" data-name="Path 4041" d="M2542.009,668.263c-.674-.464-.97-.512-.819-.772a.22.22,0,0,1,.3-.081c.26.151.518.314.767.486a.223.223,0,1,1-.253.367Z" transform="translate(-2523.865 -665.903)" fill="#fff"/>
            </g>
            <g id="Group_6427" data-name="Group 6427" transform="translate(4.551 9.103)">
              <path id="Path_4042" data-name="Path 4042" d="M2736.52,937.962c-.1-.814-.266-1.065.029-1.126a.223.223,0,0,1,.263.173c.061.294.111.6.15.9a.223.223,0,1,1-.442.057Z" transform="translate(-2718.118 -936.831)" fill="#fff"/>
              <path id="Path_4043" data-name="Path 4043" d="M2208.969,1079.11c.116-.352.38.011,1.968.276a.223.223,0,0,1-.073.44,11.729,11.729,0,0,1-1.753-.434A.223.223,0,0,1,2208.969,1079.11Zm4.581.634a.223.223,0,0,1,.2-.24c1.618-.133,1.9-.473,1.984-.111a.223.223,0,0,1-.165.269,11.689,11.689,0,0,1-1.783.287A.223.223,0,0,1,2213.55,1079.744Zm4.461-1.214c-.174-.328.266-.265,1.56-1.231a.223.223,0,0,1,.267.357,11.822,11.822,0,0,1-1.525.966A.223.223,0,0,1,2218.011,1078.53Zm3.625-2.871c-.289-.234.142-.348.954-1.744a.223.223,0,0,1,.385.224,11.748,11.748,0,0,1-1.026,1.487A.223.223,0,0,1,2221.636,1075.659Zm2.054-4.338c.441-1.562.22-1.943.59-1.9a.223.223,0,0,1,.194.248,11.789,11.789,0,0,1-.355,1.771.223.223,0,1,1-.429-.121Z" transform="translate(-2205.625 -1065.666)" fill="#fff"/>
              <path id="Path_4044" data-name="Path 4044" d="M2092.063,1345.118c-.254-.163-.5-.339-.744-.521a.224.224,0,0,1-.042-.313c.188-.247.374.037,1.028.459a.223.223,0,1,1-.241.375Z" transform="translate(-2091.231 -1332.662)" fill="#fff"/>
            </g>
            <path id="Path_4045" data-name="Path 4045" d="M2154.115,842.1a.334.334,0,1,1,.323-.586,4.9,4.9,0,0,0,.946.419,4.854,4.854,0,1,0-2.918-6.654c-1.019,2.213.133,3.365-.572,3.528a.335.335,0,0,1-.4-.25,5.524,5.524,0,1,1,3.686,4.012h0A5.582,5.582,0,0,1,2154.115,842.1Z" transform="translate(-2145.096 -825.658)" fill="#fff"/>
          </g>
        </g>
        <g id="Group_6424" data-name="Group 6424" transform="translate(0 0.516)">
          <g id="Group_6420" data-name="Group 6420">
            <path id="Path_4028" data-name="Path 4028" d="M498.382,1357.92a.226.226,0,0,1-.132-.2c0-.295,0-.594.015-.89a.218.218,0,0,1,.232-.208c.3.014.2.307.2,1.1a.217.217,0,0,1-.223.217A.23.23,0,0,1,498.382,1357.92Z" transform="translate(-498.25 -1336.15)" fill="#b2e6ff"/>
            <path id="Path_4029" data-name="Path 4029" d="M508.731,651.394c.094-.558.213-1.119.352-1.667a.22.22,0,0,1,.271-.156c.327.088.1.259-.181,1.9a.219.219,0,0,1-.257.177A.225.225,0,0,1,508.731,651.394Zm1.2-4.3c.209-.528.442-1.058.686-1.557a.225.225,0,0,1,.4.2c-.243.5-.468,1.008-.673,1.526a.225.225,0,0,1-.417-.166Zm2.059-3.955c.312-.471.647-.935,1-1.381a.224.224,0,0,1,.356.273c-.342.436-.671.891-.976,1.353A.225.225,0,0,1,511.989,643.141Zm2.846-3.132a.218.218,0,0,1,0-.312c.4-.4.831-.782,1.266-1.146.224-.187.517.151.293.338-.427.357-.845.734-1.241,1.123A.226.226,0,0,1,514.836,640.009Zm3.445-2.793a.217.217,0,0,1,.063-.3c.48-.306.978-.6,1.48-.864a.223.223,0,0,1,.218.389c-.493.262-.981.547-1.451.846A.228.228,0,0,1,518.281,637.215Zm4.076-1.915a.226.226,0,0,1-.116-.121.216.216,0,0,1,.124-.285c.535-.2,1.084-.387,1.632-.548a.228.228,0,0,1,.281.149.216.216,0,0,1-.146.274c-.537.157-1.075.338-1.6.536A.227.227,0,0,1,522.356,635.3Zm4.322-1.152a.226.226,0,0,1-.129-.164.217.217,0,0,1,.181-.253c.566-.091,1.143-.161,1.716-.207a.227.227,0,0,1,.245.2.217.217,0,0,1-.2.238c-.561.046-1.127.114-1.681.2A.229.229,0,0,1,526.678,634.148Zm4.353-.467a.218.218,0,0,1,.23-.21c.575.026,1.157.074,1.73.144a.22.22,0,1,1-.048.438c-.561-.069-1.131-.116-1.695-.141A.226.226,0,0,1,531.03,633.681Zm13.98,5.786c-1.266-1.117-1.568-1.122-1.365-1.386a.225.225,0,0,1,.313-.039c.461.347.914.717,1.347,1.1A.22.22,0,1,1,545.01,639.467Zm-9.514-5.176a.22.22,0,0,1,.27-.159c.559.141,1.121.3,1.669.488a.22.22,0,1,1-.137.417c-.537-.179-1.088-.34-1.636-.478A.225.225,0,0,1,535.5,634.291Zm5.883,2.575c-1.463-.84-1.763-.785-1.619-1.087a.228.228,0,0,1,.3-.1c.523.249,1.042.521,1.542.808a.22.22,0,1,1-.22.38Z" transform="translate(-508.431 -633.471)" fill="#b2e6ff"/>
            <path id="Path_4030" data-name="Path 4030" d="M1858.411,902.875c-.474-.584-.78-.793-.551-.987a.226.226,0,0,1,.316.025c.515.585.778.822.551,1A.256.256,0,0,1,1858.411,902.875Z" transform="translate(-1819.299 -894.239)" fill="#b2e6ff"/>
          </g>
          <g id="Group_6421" data-name="Group 6421" transform="translate(4.304 23.775)">
            <path id="Path_4031" data-name="Path 4031" d="M2046.609,1474.671a.223.223,0,0,1-.13-.23c.036-.287.066-.579.09-.866a.218.218,0,0,1,.241-.2.226.226,0,0,1,.2.241c-.024.293-.055.59-.092.884a.219.219,0,0,1-.25.188A.225.225,0,0,1,2046.609,1474.671Z" transform="translate(-2006.957 -1473.375)" fill="#b2e6ff"/>
            <path id="Path_4032" data-name="Path 4032" d="M747.325,1620.354c-.558-.276-1.112-.578-1.645-.9a.221.221,0,0,1-.078-.3c.178-.292.284,0,1.918.809a.221.221,0,0,1,.1.3A.228.228,0,0,1,747.325,1620.354Zm2.668.885c.108-.324.286-.058,2.042.382a.224.224,0,0,1,.166.268.22.22,0,0,1-.269.159c-.6-.151-1.205-.329-1.8-.529A.224.224,0,0,1,749.993,1621.24Zm-6.809-3.523c-.484-.388-.959-.8-1.41-1.23a.218.218,0,0,1-.009-.312c.239-.246.277.063,1.7,1.2a.219.219,0,0,1,.036.31A.225.225,0,0,1,743.184,1617.716Zm11.668,4.853a.224.224,0,0,1-.131-.224.219.219,0,0,1,.244-.194c.605.068,1.22.11,1.826.127a.226.226,0,0,1,.221.227.218.218,0,0,1-.226.214c-.619-.017-1.246-.061-1.864-.13A.231.231,0,0,1,754.852,1622.57Zm4.838.01a.226.226,0,0,1-.13-.176.217.217,0,0,1,.194-.243c.6-.065,1.208-.156,1.8-.271a.228.228,0,0,1,.266.174.216.216,0,0,1-.172.259c-.607.117-1.226.21-1.84.277A.229.229,0,0,1,759.69,1622.579Zm4.705-1.037a.227.227,0,0,1-.119-.128.216.216,0,0,1,.135-.28c.571-.193,1.14-.413,1.693-.653a.228.228,0,0,1,.3.114.216.216,0,0,1-.11.29c-.563.245-1.145.469-1.727.666A.226.226,0,0,1,764.4,1621.542Zm4.346-2.027a.227.227,0,0,1-.1-.084.217.217,0,0,1,.069-.3c.513-.312,1.018-.649,1.5-1a.227.227,0,0,1,.313.048.217.217,0,0,1-.043.308c-.494.361-1.009.705-1.532,1.024A.226.226,0,0,1,768.742,1619.516Zm3.712-2.966c-.246-.246.066-.27,1.235-1.619a.224.224,0,0,1,.342.29c-.4.46-.824.909-1.262,1.334A.226.226,0,0,1,772.454,1616.55Zm3.058-3.649c-.294-.187,0-.276.838-1.853a.225.225,0,0,1,.4.209c-.285.538-.6,1.07-.927,1.58A.224.224,0,0,1,775.512,1612.9Zm2.14-4.24a.223.223,0,0,1-.119-.277c.2-.563.387-1.139.542-1.712a.22.22,0,0,1,.274-.152.224.224,0,0,1,.159.272c-.158.585-.344,1.173-.553,1.747a.221.221,0,0,1-.286.129Z" transform="translate(-739.117 -1602.744)" fill="#b2e6ff"/>
            <path id="Path_4033" data-name="Path 4033" d="M650.9,1842.879c-.488-.608-.738-.856-.5-1.023s.353.13.853.753a.217.217,0,0,1-.035.309A.227.227,0,0,1,650.9,1842.879Z" transform="translate(-650.309 -1831.38)" fill="#b2e6ff"/>
          </g>
          <g id="Group_6423" data-name="Group 6423" transform="translate(5.85 5.527)">
            <path id="Path_4034" data-name="Path 4034" d="M706.8,853.1l3.2-.169a14.249,14.249,0,0,0,3.236,3.182c-.093,3.071-.317,3.28,0,3.412L716.814,861a.264.264,0,0,0,.3-.066l2.1-2.352a14.193,14.193,0,0,0,4.533.031L725.9,861a.269.269,0,0,0,.3.07l3.545-1.427a.254.254,0,0,0,.16-.255l-.227-3.16a13.542,13.542,0,0,0,3.174-3.134l3.206.215a.259.259,0,0,0,.258-.158l1.439-3.5a.26.26,0,0,0-.072-.295l-2.424-2.114a13.586,13.586,0,0,0-.047-4.466c2.284-2.081,2.583-2.062,2.449-2.374-1.542-3.424-1.421-3.7-1.771-3.68l-3.2.168a14.253,14.253,0,0,0-3.236-3.182c.093-3.069.317-3.28,0-3.412-3.576-1.408-3.646-1.666-3.872-1.413l-2.1,2.352a14.2,14.2,0,0,0-4.533-.031c-2.126-2.259-2.133-2.584-2.452-2.455-3.483,1.474-3.729,1.34-3.7,1.681l.227,3.16a13.533,13.533,0,0,0-3.174,3.134c-3.065-.142-3.333-.376-3.464-.057-1.361,3.484-1.629,3.562-1.367,3.791l2.424,2.114a13.6,13.6,0,0,0,.047,4.466c-2.277,2.074-2.584,2.06-2.449,2.374C706.567,852.84,706.446,853.113,706.8,853.1Z" transform="translate(-704.913 -828.728)" fill="#91dbff"/>
            <g id="Group_6422" data-name="Group 6422" transform="translate(12.673 12.481)">
              <path id="Path_4035" data-name="Path 4035" d="M1152.668,1272.781a3.678,3.678,0,0,1,4.229-3.095,3.791,3.791,0,0,1,3.215,4.222,3.678,3.678,0,0,1-4.229,3.095h0A3.79,3.79,0,0,1,1152.668,1272.781Zm3.261,3.895h0Zm.878-6.336a3.017,3.017,0,0,0-3.474,2.542,3.113,3.113,0,0,0,2.641,3.467,3.021,3.021,0,0,0,3.474-2.542A3.113,3.113,0,0,0,1156.807,1270.34Z" transform="translate(-1152.633 -1269.643)" fill="#fff"/>
            </g>
            <path id="Path_4036" data-name="Path 4036" d="M953.249,1082.6h0a9.955,9.955,0,0,1-1.448-.82.327.327,0,0,1-.09-.461.337.337,0,0,1,.466-.08,9.3,9.3,0,0,0,1.685.911h0a8.9,8.9,0,0,0,11.515-4.363q.075-.163.144-.33a9,9,0,0,0-16.626-6.878,9.985,9.985,0,0,0-.565,4.85.339.339,0,0,1-.638-.095,9.292,9.292,0,0,1,.735-5.368c3.435-7.454,14.366-7.149,17.643.485a9.3,9.3,0,0,1,.074,7.263q-.075.181-.156.358a9.268,9.268,0,0,1-5,4.74,9.7,9.7,0,0,1-7.372-.054C953.489,1082.711,953.368,1082.658,953.249,1082.6Z" transform="translate(-940.705 -1057.874)" fill="#fff"/>
          </g>
        </g>
      </g>
      <g id="Group_6432" data-name="Group 6432" transform="translate(494.82 470.669)">
        <path id="Path_4046" data-name="Path 4046" d="M2052.926,1441.8c-.009-.1-.115-.195-.3-.267.2-.108.3-.224.3-.338-.028-.344-1.118-.537-2.436-.431s-2.363.471-2.335.816c.009.1.115.195.3.267-.2.109-.305.224-.3.338s.115.195.3.267c-.2.108-.305.224-.3.338s.115.195.3.268c-.2.108-.305.224-.3.338.013.152.233.275.589.355a3.063,3.063,0,0,0,.009.372c.052.635.766,1.132,1.709,1.132s1.761-.678,1.771-1.315a3.221,3.221,0,0,0-.019-.415c.452-.151.727-.335.712-.514-.009-.1-.115-.2-.3-.267.2-.108.3-.224.3-.338s-.115-.195-.3-.267C2052.826,1442.031,2052.935,1441.914,2052.926,1441.8Z" transform="translate(-2044.24 -1425.701)" fill="#0a799a"/>
        <g id="Group_6431" data-name="Group 6431" transform="translate(4.266 15.864)">
          <path id="Path_4047" data-name="Path 4047" d="M2072.379,1540.284a5.671,5.671,0,0,1-1.045-.085.032.032,0,0,1,.012-.062,6.827,6.827,0,0,0,1.741.055,7.492,7.492,0,0,0,1.46-.252.031.031,0,1,1,.017.061,7.516,7.516,0,0,1-1.472.254C2072.846,1540.274,2072.607,1540.284,2072.379,1540.284Z" transform="translate(-2071.005 -1537.96)" fill="url(#linear-gradient-2)"/>
          <path id="Path_4048" data-name="Path 4048" d="M2064.533,1513.2a4.968,4.968,0,0,1-1.283-.139.032.032,0,0,1-.022-.039.032.032,0,0,1,.039-.022,7.327,7.327,0,0,0,3.88-.308.032.032,0,1,1,.026.057,6.246,6.246,0,0,1-1.934.422C2065,1513.187,2064.759,1513.2,2064.533,1513.2Z" transform="translate(-2063.151 -1511.479)" fill="url(#linear-gradient-3)"/>
          <path id="Path_4049" data-name="Path 4049" d="M2061.963,1491.806a4.614,4.614,0,0,1-1.352-.163.031.031,0,0,1-.02-.04.031.031,0,0,1,.04-.02,5.781,5.781,0,0,0,2.04.13,6.19,6.19,0,0,0,1.913-.416.031.031,0,0,1,.042.016.032.032,0,0,1-.015.042,6.258,6.258,0,0,1-1.934.422C2062.43,1491.8,2062.191,1491.806,2061.963,1491.806Z" transform="translate(-2060.589 -1490.694)" fill="url(#linear-gradient-4)"/>
          <path id="Path_4050" data-name="Path 4050" d="M2069.328,1470.571a5.464,5.464,0,0,1-1.14-.1.032.032,0,0,1,.014-.062,6.6,6.6,0,0,0,1.83.073,6.228,6.228,0,0,0,1.9-.411.032.032,0,1,1,.026.057,6.277,6.277,0,0,1-1.924.417C2069.795,1470.561,2069.556,1470.571,2069.328,1470.571Z" transform="translate(-2067.95 -1470.064)" fill="url(#linear-gradient-5)"/>
        </g>
        <path id="Path_4051" data-name="Path 4051" d="M1912.921,922.675a4.451,4.451,0,0,0-.8-1.558,10.314,10.314,0,0,1-2.222-5.743c-.229-3.991,3.311-5.989,6.541-5.718s6.417,2.676,6.068,6.389a8.573,8.573,0,0,1-2.445,5.013,5.288,5.288,0,0,0-1.269,2.249,2.87,2.87,0,0,1-2.582,2.4C1914.123,925.8,1913.254,923.854,1912.921,922.675Z" transform="translate(-1909.891 -909.632)" fill="#27c2f0"/>
        <path id="Path_4052" data-name="Path 4052" d="M2152.047,1188.955l1.13-7.351c.024-.152.1-.254.167-.228s.106.171.083.322l0,.013-1.287,7.282c-.01.055-.038.089-.063.077S2152.039,1189.008,2152.047,1188.955Z" transform="translate(-2145.19 -1173.68)" fill="#fff"/>
        <path id="Path_4053" data-name="Path 4053" d="M2063.093,1191.018l-1.13-7.351c-.024-.152-.1-.254-.167-.228s-.105.17-.082.322c0,0,0,.009,0,.013l1.288,7.283c.01.055.037.089.062.077S2063.1,1191.071,2063.093,1191.018Z" transform="translate(-2057.41 -1175.685)" fill="#fff"/>
        <path id="Path_4054" data-name="Path 4054" d="M2077.935,1136.746a.119.119,0,0,0-.148-.038l-.629.294-.219-.623a.133.133,0,0,0-.076-.077.155.155,0,0,0-.193.06v0l-.517.943-.48-1.343v0a.154.154,0,0,0-.073-.082.188.188,0,0,0-.238.047l-.724,1a.087.087,0,0,0,.025.125.121.121,0,0,0,.154-.017l.637-.711.573,1.278h0a.1.1,0,0,0,.051.049.119.119,0,0,0,.15-.039l.553-.888.208.449,0,0a.033.033,0,0,0,0,.009.119.119,0,0,0,.148.039l.747-.349A.089.089,0,0,0,2077.935,1136.746Z" transform="translate(-2069.956 -1129.453)" fill="#fff"/>
        <path id="Path_4055" data-name="Path 4055" d="M2265.257,1242.157a.144.144,0,0,1-.115-.229,8.417,8.417,0,0,0,.524-.8.143.143,0,1,1,.248.144,8.59,8.59,0,0,1-.542.824A.144.144,0,0,1,2265.257,1242.157Z" transform="translate(-2255.059 -1231.678)" fill="#fff"/>
        <path id="Path_4056" data-name="Path 4056" d="M2298.1,1035.138a.147.147,0,0,1-.057-.012.144.144,0,0,1-.074-.189,6.693,6.693,0,0,0,.154-5.082.144.144,0,0,1,.261-.12,6.876,6.876,0,0,1-.151,5.316A.144.144,0,0,1,2298.1,1035.138Z" transform="translate(-2286.972 -1026.255)" fill="#fff"/>
      </g>
      <g id="Group_6459" data-name="Group 6459" transform="translate(453.708 483.999)">
        <g id="Group_6438" data-name="Group 6438" transform="translate(17.774 0)">
          <path id="Path_4057" data-name="Path 4057" d="M1449.158,3070.794s-.187,1-.283,1.99a.683.683,0,0,0,.646.746c1.32.068,4.142.2,5.156.166a.222.222,0,0,0,.2-.3h0a.5.5,0,0,0-.252-.271l-4.644-2.188Z" transform="translate(-1438.584 -3022.949)" fill="#004465"/>
          <path id="Path_4058" data-name="Path 4058" d="M1454.049,3044l.131,1.2a1.486,1.486,0,0,0,1.375-.035l-.325-1.338Z" transform="translate(-1443.615 -2996.741)" fill="url(#linear-gradient-6)"/>
          <path id="Path_4059" data-name="Path 4059" d="M1337.7,2253.344c-.064.312-.478,15.605,1.091,22.476a.232.232,0,0,1-.139.269,4.054,4.054,0,0,1-1.334.258.4.4,0,0,1-.395-.292,78.637,78.637,0,0,1-2.835-17.2c-.245-8.509,0-.29,0-.29l.242-5.256Z" transform="translate(-1326.943 -2228.606)" fill="#37474f"/>
          <path id="Path_4060" data-name="Path 4060" d="M1249.3,3087.442a7.227,7.227,0,0,0-.572,1.844.417.417,0,0,0,.362.5c.436.047,1.106.108,1.644.11a.416.416,0,0,0,.416-.46,3.5,3.5,0,0,0-.8-1.929Z" transform="translate(-1244.096 -3039.125)" fill="#004465"/>
          <path id="Path_4061" data-name="Path 4061" d="M1261.032,3030.894l.315,1.815a1.172,1.172,0,0,0,.977.076l-.14-1.95Z" transform="translate(-1256.061 -2984.122)" fill="url(#linear-gradient-7)"/>
          <path id="Path_4062" data-name="Path 4062" d="M1216.444,2241.972c-1.414,8.057.1,19.949.626,22.279a.361.361,0,0,0,.29.278,2.423,2.423,0,0,0,1.046-.031.332.332,0,0,0,.242-.3c.092-1.879.069-13.417,1.359-17.964a1.035,1.035,0,0,1,.4-.567l2.435-1.7.212-2.778Z" transform="translate(-1212.164 -2216.826)" fill="#37474f"/>
          <g id="Group_6433" data-name="Group 6433" transform="translate(3.839 3.835)">
            <path id="Path_4063" data-name="Path 4063" d="M1230.142,1710.362a37.675,37.675,0,0,0-8.439.972,60.357,60.357,0,0,0-.352,15.008,12.587,12.587,0,0,0,6.607-.435c.543-2.908,3.028-11.085,3.028-11.085a13.2,13.2,0,0,0,4.914-1.508,8.591,8.591,0,0,1-1.665-3.569A13.444,13.444,0,0,1,1230.142,1710.362Z" transform="translate(-1221.033 -1704.263)" fill="#40d3ff"/>
            <path id="Path_4064" data-name="Path 4064" d="M1695.206,1516.342a.767.767,0,0,0-.89-.259c-.613,2.485-3.725,4.476-6.911,5.433a8.592,8.592,0,0,0,1.665,3.569A12.859,12.859,0,0,0,1695.206,1516.342Z" transform="translate(-1674.203 -1516.032)" fill="url(#linear-gradient-8)"/>
          </g>
          <g id="Group_6434" data-name="Group 6434" transform="translate(23.961)">
            <path id="Path_4065" data-name="Path 4065" d="M1932.67,1384.814c.04.131-.439.326-.715-.212a5.051,5.051,0,0,1,0-1.566,20.489,20.489,0,0,1,2.425-2.487.377.377,0,0,1,.042.524l-.776.793a3.718,3.718,0,0,1,.44.891,1.076,1.076,0,0,1-.115.792c-.137.242-.324.556-.5.8A1.064,1.064,0,0,1,1932.67,1384.814Z" transform="translate(-1931.886 -1380.549)" fill="url(#linear-gradient-9)"/>
            <path id="Path_4066" data-name="Path 4066" d="M1950.126,1445.312l-.706.587-.225.589.618.7a8.041,8.041,0,0,1,.379-1.423C1950.35,1445.511,1950.27,1445.388,1950.126,1445.312Z" transform="translate(-1948.704 -1443.479)" fill="url(#linear-gradient-10)"/>
          </g>
          <path id="Path_4067" data-name="Path 4067" d="M1094.648,1769.74l-1.5-3.9s-3.768,2.508-4.414,5.726a8.859,8.859,0,0,1,3.246.9C1092.271,1770.955,1094.648,1769.74,1094.648,1769.74Z" transform="translate(-1088.64 -1754.939)" fill="#40d3ff"/>
          <path id="Path_4068" data-name="Path 4068" d="M1094.66,1970s-4.225,2.335-5.624.294a1.6,1.6,0,0,1-.281-1.242,8.862,8.862,0,0,0-3.246-.9,4.452,4.452,0,0,0,.454,3.056c2.441,4.568,9.242-.163,9.242-.163Z" transform="translate(-1085.415 -1951.515)" fill="url(#linear-gradient-11)"/>
          <path id="Path_4069" data-name="Path 4069" d="M1355.252,1615.206l-1.31,3.676a.133.133,0,0,0,.059.161,3,3,0,0,0,3.111-.179.626.626,0,0,0,.292-.444l.443-3.188Z" transform="translate(-1346.333 -1608.563)" fill="url(#linear-gradient-12)"/>
          <g id="Group_6435" data-name="Group 6435" transform="translate(6.512 1.336)">
            <path id="Path_4070" data-name="Path 4070" d="M1387.153,1495.505s1.375,2.649,1.186,3.712-1.924.97-3.431.091l-1.032-2.856Z" transform="translate(-1381.939 -1493.588)" fill="url(#linear-gradient-13)"/>
            <path id="Path_4071" data-name="Path 4071" d="M1318.512,1432.087a.109.109,0,0,0,.049-.159,2.834,2.834,0,0,1-.382-.831s-.25-.164.644-.369,2.228-.524,2.515-1.281c.28-.738-.419-2.607-1.576-1.134a.109.109,0,0,1-.172,0,1.12,1.12,0,0,0-1.36-.456,1.028,1.028,0,0,0-.713.986.108.108,0,0,1-.129.109,1.253,1.253,0,0,0-1.469.668,1.007,1.007,0,0,0,.061,1.21.108.108,0,0,1-.048.179.652.652,0,0,0-.467.739c.031.689.8.636,1.022.607a.109.109,0,0,1,.1.035,3.7,3.7,0,0,0,1.941,1.217.109.109,0,0,0,.116-.144l-.386-1.157a.109.109,0,0,1,.061-.135Z" transform="translate(-1315.464 -1427.764)" fill="#37474f"/>
            <path id="Path_4072" data-name="Path 4072" d="M1391.9,1574.444s-.99-.694-1.069-.118.89.843,1.372.633Z" transform="translate(-1388.693 -1569.955)" fill="url(#linear-gradient-14)"/>
          </g>
          <g id="Group_6437" data-name="Group 6437" transform="translate(8.372 13.468)">
            <g id="Group_6436" data-name="Group 6436">
              <path id="Path_4073" data-name="Path 4073" d="M1381.17,1865.059l2.3-8.038a.234.234,0,0,1,.2-.168c.417-.049,1.625-.186,3.021-.3a34.286,34.286,0,0,1,4.8-.159.235.235,0,0,1,.193.339,80.442,80.442,0,0,1-4.757,8.588.236.236,0,0,1-.19.093l-5.341-.05A.235.235,0,0,1,1381.17,1865.059Z" transform="translate(-1381.16 -1856.353)" fill="#11abd9"/>
              <path id="Path_4074" data-name="Path 4074" d="M1393.51,2001.231a5.855,5.855,0,0,1-.191-1.786c.129-.468.38-1.069,1.215-.936a12.227,12.227,0,0,1,1.82.485.478.478,0,0,1-.684.412l.394.3s-.056.488-.593.227l.366.4a.427.427,0,0,1-.625.144C1394.818,2000.23,1394.629,2001.389,1393.51,2001.231Z" transform="translate(-1392.945 -1994.467)" fill="#febbba"/>
            </g>
            <path id="Path_4075" data-name="Path 4075" d="M1571.1,1924.848a.676.676,0,1,0,.676-.676A.676.676,0,0,0,1571.1,1924.848Z" transform="translate(-1565.72 -1922.252)" fill="#fff"/>
            <path id="Path_4076" data-name="Path 4076" d="M1466.088,1877.137l-.172-.051.469-1.59a.724.724,0,0,1,.545-.507,46.108,46.108,0,0,1,5.563-.376l0,.18a47.074,47.074,0,0,0-5.529.372.545.545,0,0,0-.41.383Z" transform="translate(-1463.517 -1874.096)" fill="#fff"/>
          </g>
        </g>
        <g id="Group_6439" data-name="Group 6439" transform="translate(0 37.197)">
          <path id="Path_4077" data-name="Path 4077" d="M462.5,2758.484a109.308,109.308,0,0,0-1.373,11.62.359.359,0,0,0,.359.376h0a.36.36,0,0,0,.356-.3l1.784-11.43Z" transform="translate(-461.024 -2756.677)" fill="#6dc5ff"/>
          <path id="Path_4078" data-name="Path 4078" d="M748,2758.484a109.26,109.26,0,0,1,1.373,11.62.359.359,0,0,1-.359.376h0a.36.36,0,0,1-.355-.3l-1.784-11.43Z" transform="translate(-738.682 -2756.677)" fill="#6dc5ff"/>
          <path id="Path_4079" data-name="Path 4079" d="M457.509,2695.793v.09a1.223,1.223,0,0,0,1.245,1.186l8.244.14a1.232,1.232,0,0,0,1.29-1.118l0-.082a1.217,1.217,0,0,0-1.243-1.233l-8.248-.147A1.227,1.227,0,0,0,457.509,2695.793Z" transform="translate(-457.508 -2694.627)" fill="#6dc5ff"/>
        </g>
        <g id="Group_6443" data-name="Group 6443" transform="translate(2.449 12.764)">
          <g id="Group_6440" data-name="Group 6440" transform="translate(12.501 36.064)">
            <path id="Path_4080" data-name="Path 4080" d="M988.557,3150.169a7.384,7.384,0,0,1-2.4-.24.556.556,0,0,0,.542.43h5.185a.252.252,0,0,0,.243-.318C991.531,3150.089,990.276,3150.169,988.557,3150.169Z" transform="translate(-986.138 -3148.672)" fill="#91b3fa"/>
            <path id="Path_4081" data-name="Path 4081" d="M991.614,3106.887a.247.247,0,0,0-.042-.089,2.99,2.99,0,0,0-2.268-1.281,18.247,18.247,0,0,1-3.361.01l-.29.961a.553.553,0,0,0-.009.287,7.4,7.4,0,0,0,2.4.24C989.768,3107.015,991.023,3106.935,991.614,3106.887Z" transform="translate(-985.63 -3105.518)" fill="#37474f"/>
          </g>
          <path id="Path_4082" data-name="Path 4082" d="M997.059,3069.292l-.356,1.21a2.093,2.093,0,0,0,1.481.071l.136-1.049Z" transform="translate(-983.889 -3034.253)" fill="url(#linear-gradient-15)"/>
          <g id="Group_6441" data-name="Group 6441" transform="translate(21.347 34.315)">
            <path id="Path_4083" data-name="Path 4083" d="M1319.425,3051.427a7.424,7.424,0,0,1-2.024,1.319.556.556,0,0,0,.691,0l4.042-3.248a.252.252,0,0,0-.009-.4C1321.693,3049.5,1320.765,3050.351,1319.425,3051.427Z" transform="translate(-1316.856 -3048.943)" fill="#91b3fa"/>
            <path id="Path_4084" data-name="Path 4084" d="M1303.425,3043.879a.239.239,0,0,0-.088-.042,2.989,2.989,0,0,0-2.566.427,18.344,18.344,0,0,1-2.614,2.112l.373.927a.553.553,0,0,0,.172.228,7.445,7.445,0,0,0,2.024-1.32C1302.066,3045.135,1302.994,3044.286,1303.425,3043.879Z" transform="translate(-1298.157 -3043.727)" fill="#37474f"/>
          </g>
          <path id="Path_4085" data-name="Path 4085" d="M682.419,2582.274s8.774.716,10.574,1.564-1.469,12.723-1.469,12.723a2.352,2.352,0,0,1-1.58-.1s1.118-8.764.286-10.665l-9.5-1.554Z" transform="translate(-676.86 -2561.021)" fill="#37474f"/>
          <path id="Path_4086" data-name="Path 4086" d="M1267.358,3060.611c.082.074.872,1.668.872,1.668s.88-.19,1.059-.747l-.792-1.439Z" transform="translate(-1246.883 -3025.315)" fill="url(#linear-gradient-15)"/>
          <path id="Path_4087" data-name="Path 4087" d="M544.284,2579.684a4.441,4.441,0,0,0-.274,1.6,2.4,2.4,0,0,0,2.3,2.353l10.373.473a.5.5,0,0,1,.459.374c.244.943,1.435,3.838,7.259,9.615a.469.469,0,0,0,.581.063l.829-.523a.191.191,0,0,0,.063-.258l-6.039-10.314a2.339,2.339,0,0,0-1.42-1.053l-8.841-2.26Z" transform="translate(-544.009 -2558.504)" fill="#37474f"/>
          <path id="Path_4088" data-name="Path 4088" d="M837.8,2010.541a13.05,13.05,0,0,1-2.244,2.917l2.342,1.306s.528-2.079,1.733-2.689Z" transform="translate(-827.305 -2005.472)" fill="url(#linear-gradient-17)"/>
          <path id="Path_4089" data-name="Path 4089" d="M547.055,2115.537a12.828,12.828,0,0,0,5.473,0s3.74-5.028,5.187-6.4a10.29,10.29,0,0,0,7.445,4.158l.286-.64s-4.09-1.885-5.349-4.782-1.765-4.132-2.91-4.888c-.713-.471-1.141-.792-1.361-.968a.365.365,0,0,0-.42-.027C554.192,2102.735,548.472,2106.653,547.055,2115.537Z" transform="translate(-546.969 -2094.284)" fill="#40d3ff"/>
          <path id="Path_4090" data-name="Path 4090" d="M864.61,2257.257a.178.178,0,0,1-.143-.071,11.167,11.167,0,0,1-1.409-2.5.18.18,0,1,1,.335-.129,11,11,0,0,0,1.359,2.408.179.179,0,0,1-.142.289Z" transform="translate(-854.016 -2242.471)" fill="#29a7cc"/>
          <path id="Path_4091" data-name="Path 4091" d="M1175.762,2448.813l.578-.154,1.756-.406a.815.815,0,0,1,.617.1l1.509.95-4.169-.007Z" transform="translate(-1157.879 -2430.773)" fill="url(#linear-gradient-15)"/>
          <g id="Group_6442" data-name="Group 6442" transform="translate(7.608)">
            <path id="Path_4092" data-name="Path 4092" d="M869.234,1906.466a12.311,12.311,0,0,1,1.267,2.787c.187.992.488,1.612-.641,1.966a2.478,2.478,0,0,1-2.837-1.02s-1.028-1.425-.926-2.078S869.234,1906.466,869.234,1906.466Z" transform="translate(-864.581 -1904.343)" fill="url(#linear-gradient-19)"/>
            <path id="Path_4093" data-name="Path 4093" d="M815.516,1836.55l.146-.019s-.765-1.155-.264-1.442,2.539-.99,2.893-1.793a1.394,1.394,0,0,0-.785-1.831.078.078,0,0,0-.094.05l-.036.1a.079.079,0,0,1-.147,0h0a.079.079,0,0,0-.144,0c-.109.241-.436.651-1.417.969-1.391.451-2.258,1.152-2.151,2.141a.079.079,0,0,1-.113.08c-.114-.05-.286-.058-.486.161-.348.381-.075,1.214.875,1.8a.079.079,0,0,1,.013.126c-.142.122-.342.393.3.635a1.618,1.618,0,0,0,1.15.111.079.079,0,0,0,.049-.089l-.169-.866a.079.079,0,0,1,.068-.094Z" transform="translate(-812.773 -1831.462)" fill="#37474f"/>
            <path id="Path_4094" data-name="Path 4094" d="M873.432,1988.338s-.476-1.175-.977-.762.463,1.326.907,1.313Z" transform="translate(-870.629 -1983.071)" fill="url(#linear-gradient-20)"/>
          </g>
        </g>
        <g id="Group_6446" data-name="Group 6446" transform="translate(18.342 23.18)">
          <g id="Group_6444" data-name="Group 6444" transform="translate(0 8.13)">
            <path id="Path_4095" data-name="Path 4095" d="M1105.865,2487.483h.021l8.906-.009a.4.4,0,1,0,0-.8l-8.906.009a.4.4,0,0,0-.02.8Z" transform="translate(-1105.486 -2486.679)" fill="#1682a2"/>
          </g>
          <g id="Group_6445" data-name="Group 6445" transform="translate(8.961)">
            <path id="Path_4096" data-name="Path 4096" d="M1425.836,2199.667l-.009.018-3.747,8.079a.4.4,0,1,0,.722.335l3.747-8.079a.4.4,0,0,0-.713-.353Z" transform="translate(-1422.042 -2199.455)" fill="#1682a2"/>
          </g>
        </g>
        <g id="Group_6452" data-name="Group 6452" transform="translate(33.858 11.775)">
          <g id="Group_6447" data-name="Group 6447" transform="translate(15.076 26.182)">
            <rect id="Rectangle_441" data-name="Rectangle 441" width="0.94" height="10.165" transform="translate(4.543 2.278)" fill="#6dc5ff"/>
            <path id="Path_4097" data-name="Path 4097" d="M2226.142,3146.967h-8.233a.612.612,0,0,1,.612-.612h7.009a.612.612,0,0,1,.612.612Z" transform="translate(-2217.013 -3134.328)" fill="#6dc5ff"/>
            <rect id="Rectangle_442" data-name="Rectangle 442" width="10.351" height="2.936" rx="1.468" fill="#6dc5ff"/>
          </g>
          <g id="Group_6448" data-name="Group 6448" transform="translate(1.01 19.772)">
            <path id="Path_4098" data-name="Path 4098" d="M2004.258,2562.489a8.177,8.177,0,0,0-2.967,1.266.783.783,0,0,0-.345.748,33.176,33.176,0,0,0,3.511,11.019,1.188,1.188,0,0,1,.114.813l-.443,2.061-.821.77h2.116l1.409-3.812-.6-.191a1.139,1.139,0,0,1-.8-1.067l-.071-4.089a4.652,4.652,0,0,0-1.117-3.08l3.379-.164Z" transform="translate(-1992.118 -2560.58)" fill="url(#linear-gradient-21)"/>
            <path id="Path_4099" data-name="Path 4099" d="M2054.948,3014.344c-.193.252,2.073.584,3.219.033,0,0,1.587-2.762,1.587-4.184,0,0-.126-.29-1.058-.224,0,0-.532,3.27-1.1,3.636a2.247,2.247,0,0,1-1.575.037A3.3,3.3,0,0,0,2054.948,3014.344Z" transform="translate(-2044.587 -2995.383)" fill="#004465"/>
            <path id="Path_4100" data-name="Path 4100" d="M1737.806,2585.01c-.018-.031-3.638-.436-3.638-.436a8.361,8.361,0,0,1-.252,2.616c-.37,1.515-5.685,8.079-5.685,8.079l.557,1.767a8.961,8.961,0,0,1-5.086.306l3.454-2.073s3.232-11.015,5.212-12.98l3.628-1.256Z" transform="translate(-1722.729 -2578.599)" fill="url(#linear-gradient-22)"/>
            <path id="Path_4101" data-name="Path 4101" d="M2044.657,2495.044s2.086,3.1,2.256,4.518-.571,1.99-2.759,2.085-8.03.094-8.03.094l-4.986-4.261s3.633-1.3,4.578-1.664S2044.657,2495.044,2044.657,2495.044Z" transform="translate(-2021.462 -2495.044)" fill="#37474f"/>
            <path id="Path_4102" data-name="Path 4102" d="M1695.163,3125.337a1.02,1.02,0,0,1,.195,1.228s-4.753.842-6.043.46c0,0,.268-.611,1.721-1.307l-.107.083a.173.173,0,0,0,.115.311A13.363,13.363,0,0,0,1695.163,3125.337Z" transform="translate(-1689.314 -3107.495)" fill="#004465"/>
          </g>
          <g id="Group_6450" data-name="Group 6450" transform="translate(11.317)">
            <path id="Path_4103" data-name="Path 4103" d="M2138.186,1796.637c4.263-.725,6.271,2.752,6.124,3.483a.133.133,0,0,0,.167.153,2.106,2.106,0,0,1,2.241.542,1.316,1.316,0,0,1-.211,1.826.134.134,0,0,0,.112.227c.9-.113,2.856-.141,3.175,1.691a1.829,1.829,0,0,1-1.6,2.326.134.134,0,0,0-.045.245,1.423,1.423,0,0,1,.595,1.594c-.258,1.426-3.055,1.309-3.382,1.291a.134.134,0,0,1-.058-.017l-4.479-2.554a.136.136,0,0,1-.066-.094l-.9-5.223a.135.135,0,0,1,.035-.116l-2.92-4.121C2135.915,1797.733,2138.136,1796.645,2138.186,1796.637Z" transform="translate(-2134.332 -1796.538)" fill="#37474f"/>
            <path id="Path_4104" data-name="Path 4104" d="M2161.548,2094.523a47.6,47.6,0,0,1-3.625-3.844,3.252,3.252,0,0,1-.55-2.925,40.452,40.452,0,0,1,1.6-4.04c.135-.454,2.859-.435,2.859-.435a20.883,20.883,0,0,1,7.464,9.369l-2.365.736a27.669,27.669,0,0,0-2.782-3.84s2.392,3.16,2.477,4.454Z" transform="translate(-2154.3 -2075.162)" fill="#40d3ff"/>
            <path id="Path_4105" data-name="Path 4105" d="M2207.052,1964.773c.028.095.739,2.451.795,2.5a3.974,3.974,0,0,0,2.266-.354l-1.755-3.433Z" transform="translate(-2202.704 -1958.76)" fill="url(#linear-gradient-23)"/>
            <g id="Group_6449" data-name="Group 6449" transform="translate(0 0.425)">
              <path id="Path_4106" data-name="Path 4106" d="M2104.311,1871.829a4.8,4.8,0,0,0,.607,3.165c.95,1.815,2.026,1.814,2.614,1.233a3.83,3.83,0,0,0,1.141-3.322C2108.5,1871.149,2104.807,1870.112,2104.311,1871.829Z" transform="translate(-2102.813 -1869.269)" fill="url(#linear-gradient-24)"/>
              <path id="Path_4107" data-name="Path 4107" d="M2057.984,1815.273s-1.577-2.411-3.055-.513l-.027.69s-1.732-.206-1.429-1.793a2.619,2.619,0,0,1,3.728-1.893c1.927.688,3.031,1.393,3.156,2.775s-.975,1.078-.975,1.078-.358-.972-.868-1.074-.377.658-.377.658Z" transform="translate(-2053.438 -1811.542)" fill="#37474f"/>
              <path id="Path_4108" data-name="Path 4108" d="M2216.044,1892.942s-.818-1.234.02-1.418.708,1.2.618,1.716Z" transform="translate(-2211.094 -1889.243)" fill="url(#linear-gradient-25)"/>
            </g>
            <path id="Path_4109" data-name="Path 4109" d="M2134.689,2416.326l1.785-1.72,2.468,1.043a12.182,12.182,0,0,0,3.864,0l1.406-.38,3.178-.99.5,1.411a.849.849,0,0,1-.31.975,5.574,5.574,0,0,1-.8.5c-.418.184-10.317-.126-10.317-.126Z" transform="translate(-2132.39 -2396.792)" fill="url(#linear-gradient-26)"/>
          </g>
          <g id="Group_6451" data-name="Group 6451" transform="translate(0 10.946)">
            <path id="Path_4110" data-name="Path 4110" d="M2001.215,2483.068h-.024l-10.352-.011a.463.463,0,1,1,0-.927l10.351.011a.463.463,0,0,1,.023.926Z" transform="translate(-1980.845 -2473.669)" fill="#40d3ff"/>
            <path id="Path_4111" data-name="Path 4111" d="M1654.335,2183.226h8.621a1.643,1.643,0,0,1,1.486.942l3.985,8.45h-10.713a1,1,0,0,1-.928-.631l-3.091-7.82A.689.689,0,0,1,1654.335,2183.226Z" transform="translate(-1653.646 -2183.226)" fill="#40d3ff"/>
            <path id="Path_4112" data-name="Path 4112" d="M1845.3,2306.659c.187.58.049,1.144-.308,1.259s-.8-.262-.984-.843-.049-1.144.308-1.259S1845.116,2306.079,1845.3,2306.659Z" transform="translate(-1838.54 -2302.326)" fill="#fff"/>
          </g>
        </g>
        <g id="Group_6456" data-name="Group 6456" transform="translate(54.11 2.452)">
          <g id="Group_6453" data-name="Group 6453" transform="translate(6.324 22.678)">
            <path id="Path_4113" data-name="Path 4113" d="M2598.071,3107.292a12.608,12.608,0,0,1,.152,1.32.569.569,0,0,1-.512.6,25.166,25.166,0,0,1-5.011.07.258.258,0,0,1-.142-.444,8,8,0,0,1,4.693-1.994Z" transform="translate(-2592.474 -3083.108)" fill="#37474f"/>
            <path id="Path_4114" data-name="Path 4114" d="M2745.989,3055.19l-.536,1.313a.437.437,0,0,1-.449.271,2.373,2.373,0,0,1-.437-.085.575.575,0,0,1-.383-.715l.4-1.352Z" transform="translate(-2739.866 -3032.365)" fill="url(#linear-gradient-27)"/>
            <path id="Path_4115" data-name="Path 4115" d="M3080.161,3159.651a5.624,5.624,0,0,0-1.49,2.049.489.489,0,0,0,.465.65h2.207a.52.52,0,0,0,.514-.609C3081.717,3160.947,3081.312,3159.655,3080.161,3159.651Z" transform="translate(-3064.881 -3134.421)" fill="#37474f"/>
            <path id="Path_4116" data-name="Path 4116" d="M3122.806,3112.77s-.217.959-.383,1.593a.2.2,0,0,1-.265.138,1.837,1.837,0,0,0-.8-.146.157.157,0,0,1-.173-.156l-.021-1.593Z" transform="translate(-3106.196 -3088.708)" fill="url(#linear-gradient-28)"/>
            <path id="Path_4117" data-name="Path 4117" d="M2753.746,2270.822l-6.525,19.905a4.919,4.919,0,0,0,1.848.785l7.75-16s1.356,9.857.7,16.933l2.22.169s3.609-18.084.875-24.278Z" transform="translate(-2742.841 -2268.34)" fill="#37474f"/>
            <path id="Path_4118" data-name="Path 4118" d="M3073.939,2442.422h.008a.062.062,0,0,0,.055-.07l-.253-2.01a.064.064,0,0,0-.126.016l.253,2.01A.064.064,0,0,0,3073.939,2442.422Z" transform="translate(-3060.003 -2435.419)" fill="#415864"/>
          </g>
          <path id="Path_4119" data-name="Path 4119" d="M2716.46,1737.226s5.286.469,4.538,4.236a51.341,51.341,0,0,1,4.288,11.977.38.38,0,0,1-.309.453l-8.8,1.507a.473.473,0,0,1-.538-.349l-2.1-8.129-.82,3.779-2.6-.678,2.192-11.106S2712.606,1737.3,2716.46,1737.226Z" transform="translate(-2700.455 -1729.582)" fill="#40d3ff"/>
          <path id="Path_4120" data-name="Path 4120" d="M2802.051,1946.726h.014a.065.065,0,0,0,.05-.078l-.734-3.37a.065.065,0,0,0-.078-.05.066.066,0,0,0-.05.078l.734,3.369A.065.065,0,0,0,2802.051,1946.726Z" transform="translate(-2789.018 -1929.751)" fill="#fff"/>
          <path id="Path_4121" data-name="Path 4121" d="M2785.739,2222.078a1.261,1.261,0,0,1,.91-.118l.612.152a.223.223,0,0,0,.275-.191l.634-5.641a5.189,5.189,0,0,0,2.313.3l-1.459,6.651h-5.105Z" transform="translate(-2772.175 -2195.076)" fill="url(#linear-gradient-29)"/>
          <path id="Path_4122" data-name="Path 4122" d="M2369.078,1857.12l.154-.513a1.014,1.014,0,0,1,.593-.649l2.791-1.122s.042-.358-.59-.6a.839.839,0,0,1-.484-.951s.863.394,2.126,1.018a2.957,2.957,0,0,1,1.343,1.462l6.323,7.709-.742.51a1.983,1.983,0,0,1-2.875-.705l-3.425-6.569A12.774,12.774,0,0,1,2369.078,1857.12Z" transform="translate(-2369.078 -1842.355)" fill="url(#linear-gradient-30)"/>
          <g id="Group_6455" data-name="Group 6455" transform="translate(8.193)">
            <path id="Path_4123" data-name="Path 4123" d="M2816.208,1608.343l1.626,4.55s-1.44,1.126-2.49.745l-.819-2.608S2815.15,1607.841,2816.208,1608.343Z" transform="translate(-2810.108 -1604.295)" fill="url(#linear-gradient-31)"/>
            <g id="Group_6454" data-name="Group 6454">
              <path id="Path_4124" data-name="Path 4124" d="M2702.581,1521.368c0,.07,1.566,4.433,1.566,4.433l2.472-.947-.87-4.356S2702.581,1520.194,2702.581,1521.368Z" transform="translate(-2701.333 -1518.954)" fill="url(#linear-gradient-32)"/>
              <path id="Path_4125" data-name="Path 4125" d="M2662.491,1469.788l.637,2.257a.325.325,0,0,1,.013.088c0,.184-.045.818-.691.732a2.941,2.941,0,0,0-1.462.02.327.327,0,0,0-.169.407,14.13,14.13,0,0,0,.891,2.01.326.326,0,0,0,.42.135,10.542,10.542,0,0,0,2.12-1.247.326.326,0,0,0,.116-.314c-.108-.578-.431-2.334-.446-2.837-.013-.473.517-.833.75-.969a.322.322,0,0,0,.151-.2.85.85,0,0,0-.742-1.144.327.327,0,0,1-.266-.39.851.851,0,0,0-.64-1.1,1.2,1.2,0,0,0-1.368.546.328.328,0,0,1-.406.109.258.258,0,0,0-.29.052.323.323,0,0,1-.472-.072.978.978,0,0,0-1.206-.4,1.562,1.562,0,0,0-.654,2.349c.409.7,1.6.24,2.161-.224a1.4,1.4,0,0,1,1.367-.02A.324.324,0,0,1,2662.491,1469.788Z" transform="translate(-2658.508 -1467.183)" fill="#37474f"/>
              <path id="Path_4126" data-name="Path 4126" d="M2844.822,1568.324s-.662-1.251-.224-1.643,1.177-.328,1.157.65C2845.73,1568.547,2844.822,1568.324,2844.822,1568.324Z" transform="translate(-2839.185 -1563.646)" fill="url(#linear-gradient-33)"/>
            </g>
          </g>
          <path id="Path_4127" data-name="Path 4127" d="M2922.688,1917.981a6.18,6.18,0,0,0,.646-.031l.047,0,1.925-8.975a.066.066,0,0,0-.128-.028l-1.9,8.881a4.667,4.667,0,0,1-2.624-.445l1.667-7.8-.348-.656a.066.066,0,0,0-.116.061l.326.614-1.675,7.833.033.025A3.822,3.822,0,0,0,2922.688,1917.981Z" transform="translate(-2904.895 -1896.388)" fill="#fff"/>
        </g>
        <g id="Group_6457" data-name="Group 6457" transform="translate(13.862 32.828)">
          <path id="Path_4128" data-name="Path 4128" d="M947.56,2558.859a.306.306,0,0,1-.132-.03.379.379,0,0,1-.176-.481l7.034-17.847a.325.325,0,0,1,.441-.191.379.379,0,0,1,.176.48l-7.034,17.848A.336.336,0,0,1,947.56,2558.859Z" transform="translate(-947.225 -2540.28)" fill="#0e799a"/>
          <path id="Path_4129" data-name="Path 4129" d="M986.027,2558.857a.336.336,0,0,1-.308-.222l-7.034-17.847a.379.379,0,0,1,.176-.481.325.325,0,0,1,.441.191l7.034,17.847a.379.379,0,0,1-.176.481A.31.31,0,0,1,986.027,2558.857Z" transform="translate(-977.768 -2540.277)" fill="#0e799a"/>
          <path id="Path_4130" data-name="Path 4130" d="M2633.984,2558.859a.31.31,0,0,1-.133-.03.379.379,0,0,1-.175-.481l7.033-17.847a.325.325,0,0,1,.441-.191.378.378,0,0,1,.176.48l-7.033,17.848A.336.336,0,0,1,2633.984,2558.859Z" transform="translate(-2585.913 -2540.28)" fill="#0e799a"/>
          <path id="Path_4131" data-name="Path 4131" d="M2672.449,2558.857a.335.335,0,0,1-.308-.222l-7.034-17.847a.379.379,0,0,1,.176-.481.325.325,0,0,1,.44.191l7.034,17.847a.379.379,0,0,1-.175.481A.315.315,0,0,1,2672.449,2558.857Z" transform="translate(-2616.454 -2540.277)" fill="#0e799a"/>
        </g>
        <g id="Group_6458" data-name="Group 6458" transform="translate(60.603 30.5)">
          <path id="Path_4132" data-name="Path 4132" d="M2609.439,2467.481h10.188v-1.051h-10.188C2609.657,2466.43,2609.657,2467.481,2609.439,2467.481Z" transform="translate(-2609.128 -2466.192)" fill="#49bce0"/>
          <path id="Path_4133" data-name="Path 4133" d="M2608.867,2459.321a.1.1,0,0,0,.1-.1v-.86a.1.1,0,0,0-.1-.1H2598.56a.1.1,0,0,1-.1-.1v-.047a.1.1,0,0,1,.1-.1h10.986a.44.44,0,0,1,.44.44v.672a.414.414,0,0,1-.415.415h-11.01a.1.1,0,0,1-.1-.095v-.047a.1.1,0,0,1,.1-.1Z" transform="translate(-2598.464 -2458.032)" fill="#08617c"/>
        </g>
        <path id="Path_4134" data-name="Path 4134" d="M881.87,2512.248a.309.309,0,0,0-.127-.33.751.751,0,0,0-.466-.146H820.235a.826.826,0,0,0-.585.213.331.331,0,0,0-.045.441l.661.95a1.032,1.032,0,0,0,.841.356h59.752a.688.688,0,0,0,.689-.377Z" transform="translate(-809.292 -2479.75)" fill="#0e799a"/>
      </g>
      <g id="Group_56482" data-name="Group 56482" transform="translate(460.369 474.659)">
        <g id="Group_56476" data-name="Group 56476" transform="translate(46.987 6.667)">
          <g id="Group_55766" data-name="Group 55766" transform="translate(0)">
            <g id="Group_55765" data-name="Group 55765">
              <path id="Path_14146" data-name="Path 14146" d="M326.261,74.942c.106-.766-.976-1.4-1.788-1.462a4.606,4.606,0,0,1-1.157-.1c-.8-.277-1.113-1.3-1.889-1.632a2.22,2.22,0,0,0-1.811.256,4.724,4.724,0,0,1-1.747.68c-.547.035-1.14-.168-1.619.1-.356.2-.543.61-.871.852a2.08,2.08,0,0,1-1.139.309,3.208,3.208,0,0,0-1.175.192.928.928,0,0,0-.588.942Z" transform="translate(-312.465 -71.642)" fill="#fff"/>
            </g>
          </g>
        </g>
        <g id="Group_56477" data-name="Group 56477" transform="translate(0 1.822)">
          <g id="Group_55769" data-name="Group 55769" transform="translate(0 0)">
            <g id="Group_55768" data-name="Group 55768">
              <path id="Path_14147" data-name="Path 14147" d="M39.483,44.54c.059-.428-.545-.779-1-.816a2.57,2.57,0,0,1-.646-.056c-.444-.155-.621-.728-1.054-.911a1.238,1.238,0,0,0-1.01.143,2.639,2.639,0,0,1-.975.379c-.305.02-.636-.094-.9.055-.2.111-.3.34-.486.475a1.159,1.159,0,0,1-.636.172,1.793,1.793,0,0,0-.655.107.518.518,0,0,0-.328.526Z" transform="translate(-31.785 -42.698)" fill="#fff"/>
            </g>
          </g>
        </g>
        <g id="Group_56478" data-name="Group 56478" transform="translate(54.698 13.99)">
          <g id="Group_55772" data-name="Group 55772" transform="translate(0 0)">
            <g id="Group_55771" data-name="Group 55771">
              <path id="Path_14148" data-name="Path 14148" d="M374.381,119.18c.121-.881-1.122-1.606-2.056-1.681a5.3,5.3,0,0,1-1.33-.115c-.914-.319-1.279-1.5-2.172-1.876a2.552,2.552,0,0,0-2.081.294,5.432,5.432,0,0,1-2.008.781c-.628.04-1.311-.193-1.861.114-.41.229-.624.7-1,.979a2.39,2.39,0,0,1-1.31.355,3.692,3.692,0,0,0-1.35.221,1.067,1.067,0,0,0-.676,1.083Z" transform="translate(-358.522 -115.386)" fill="#fff"/>
            </g>
          </g>
        </g>
        <g id="Group_56479" data-name="Group 56479" transform="translate(57.688)">
          <g id="Group_55775" data-name="Group 55775" transform="translate(0 0)">
            <g id="Group_55774" data-name="Group 55774">
              <path id="Path_14149" data-name="Path 14149" d="M387.548,34.486c.085-.62-.79-1.13-1.447-1.183a3.726,3.726,0,0,1-.936-.081c-.644-.224-.9-1.056-1.529-1.321a1.8,1.8,0,0,0-1.465.207,3.824,3.824,0,0,1-1.413.55c-.442.028-.923-.136-1.31.08-.288.161-.439.493-.705.689a1.684,1.684,0,0,1-.922.25,2.6,2.6,0,0,0-.95.155.751.751,0,0,0-.476.762Z" transform="translate(-376.386 -31.816)" fill="#fff"/>
            </g>
          </g>
        </g>
        <g id="Group_56480" data-name="Group 56480" transform="translate(1.911 15.488)">
          <g id="Group_55778" data-name="Group 55778" transform="translate(0)">
            <g id="Group_55777" data-name="Group 55777">
              <path id="Path_14150" data-name="Path 14150" d="M51.509,126.318c.063-.461-.588-.841-1.077-.88a2.768,2.768,0,0,1-.7-.06c-.479-.167-.67-.786-1.137-.983a1.336,1.336,0,0,0-1.09.154,2.846,2.846,0,0,1-1.052.409c-.329.021-.687-.1-.974.06-.214.12-.327.367-.525.513a1.251,1.251,0,0,1-.686.186,1.931,1.931,0,0,0-.707.116.559.559,0,0,0-.354.567Z" transform="translate(-43.203 -124.331)" fill="#fff"/>
            </g>
          </g>
        </g>
      </g>
    </g>
  </g>
</svg>
