<svg xmlns="http://www.w3.org/2000/svg" width="11.056" height="12.343" viewBox="0 0 11.056 12.343">
  <g id="Group_68976" data-name="Group 68976" transform="translate(-349 -544.19)">
    <path id="Icon_ionic-ios-arrow-back" data-name="Icon ionic-ios-arrow-back" d="M16.18,12.363,11.51,7.7a.882.882,0,0,1,1.249-1.246l5.291,5.287a.88.88,0,0,1,.026,1.216l-5.313,5.324a.882.882,0,0,1-1.249-1.246Z" transform="translate(337.749 537.997)" fill="#fff"/>
    <path id="Icon_ionic-ios-arrow-back-2" data-name="Icon ionic-ios-arrow-back" d="M16.18,12.363,11.51,7.7a.882.882,0,0,1,1.249-1.246l5.291,5.287a.88.88,0,0,1,.026,1.216l-5.313,5.324a.882.882,0,0,1-1.249-1.246Z" transform="translate(341.749 537.997)" fill="#fff"/>
  </g>
</svg>
