<svg xmlns="http://www.w3.org/2000/svg" width="23.135" height="23"  fill="#fff" xmlns:v="https://vecta.io/nano"><path d="M11.678.001C8.582-.052 5.599 1.159 3.415 3.353 1.209 5.448-.027 8.366.002 11.408a11.16 11.16 0 0 0 3.413 8.23 11.38 11.38 0 0 0 8.263 3.356 11.07 11.07 0 0 0 8.092-3.362 10.97 10.97 0 0 0 3.364-8 11.34 11.34 0 0 0-3.359-8.218A11.01 11.01 0 0 0 11.678.001zm-4.22 7.244a5.77 5.77 0 0 1 4.222-1.709 5.36 5.36 0 0 1 4.045 1.753 6 6 0 0 1 1.694 4.343c.015 1.54-.603 3.018-1.709 4.089a5.31 5.31 0 0 1-3.942 1.746 5.9 5.9 0 0 1-6.051-6.053c-.038-1.574.595-3.089 1.741-4.169zm7.61 4.256a3.5 3.5 0 1 1-7 0 3.5 3.5 0 1 1 7 0z"/></svg>