<svg xmlns="http://www.w3.org/2000/svg" width="24.2" height="21.78" viewBox="0 0 24.2 21.78">
  <path id="Icon_material-business-center" data-name="Icon material-business-center" d="M12.68,20.23V19.02H4.222L4.21,23.86a2.412,2.412,0,0,0,2.42,2.42H23.57a2.412,2.412,0,0,0,2.42-2.42V19.02H17.52v1.21ZM24.78,9.34H19.928V6.92L17.508,4.5h-4.84l-2.42,2.42V9.34H5.42A2.427,2.427,0,0,0,3,11.76v3.63a2.412,2.412,0,0,0,2.42,2.42h7.26V15.39h4.84v2.42h7.26a2.427,2.427,0,0,0,2.42-2.42V11.76A2.427,2.427,0,0,0,24.78,9.34Zm-7.26,0H12.68V6.92h4.84Z" transform="translate(-3 -4.5)" fill="#617392"/>
</svg>
