<svg xmlns="http://www.w3.org/2000/svg" xmlns:xlink="http://www.w3.org/1999/xlink" width="232" height="232" viewBox="0 0 232 232">
  <defs>
    <linearGradient id="linear-gradient" x1="0.371" y1="0.056" x2="0.808" y2="0.565" gradientUnits="objectBoundingBox">
      <stop offset="0" stop-color="#0db3ff"/>
      <stop offset="1" stop-color="#0079f1"/>
    </linearGradient>
    <clipPath id="clip-Business_Strategy">
      <rect width="232" height="232"/>
    </clipPath>
  </defs>
  <g id="Business_Strategy" data-name="Business Strategy" clip-path="url(#clip-Business_Strategy)">
    <rect width="232" height="232" fill="#fff"/>
    <g id="Group_2" data-name="Group 2" transform="translate(521.578 197.125)">
      <path id="Path_11" data-name="Path 11" d="M-521.578-157.72h40.919c.192-3.435.115-6.783.609-10.044a20.661,20.661,0,0,1,22.02-17.305,20.77,20.77,0,0,1,19.121,20.035c.065,2.342.01,4.687.01,7.3h41.118v41.189c2.212,0,4.227-.054,6.237.009a20.877,20.877,0,0,1,20.032,17.109,20.621,20.621,0,0,1-12.214,22.687A34.229,34.229,0,0,1-391.9-75.03a43.554,43.554,0,0,1-5.74.047v41.015H-438.89c0-2.381.046-4.645-.008-6.906-.258-10.755-8.161-19.117-19.11-20.255a20.565,20.565,0,0,0-21.778,15.906c-.784,3.587-.651,7.374-.951,11.255a11.383,11.383,0,0,1-1.378.15q-19.055.014-38.11,0a12.45,12.45,0,0,1-1.353-.144v-41.1c4.321.111,8.646.411,12.837-1.129,8.774-3.223,12.353-10.466,14.463-18.769.288-1.132-.274-2.517-.581-3.75-.235-.944-.736-1.819-1.039-2.75-2.712-8.362-8.352-13.417-17.049-14.773a75.152,75.152,0,0,0-8.631-.386Z" transform="translate(0 0)" fill="url(#linear-gradient)"/>
      <path id="Path_12" data-name="Path 12" d="M-218.914-81.509c2.111-2.336,3.614-4.267,5.383-5.913a20.666,20.666,0,0,1,28.512.333,20.665,20.665,0,0,1,1.048,28.659,69.707,69.707,0,0,1-5.79,5.214l29.6,29.582L-189.541,5.732c1.32,1.192,2.679,2.285,3.881,3.529,5.979,6.19,7.866,13.516,5.109,21.639-2.766,8.148-8.775,12.8-17.307,13.9a19.524,19.524,0,0,1-16-5.082,63.851,63.851,0,0,1-4.664-5.132l-29.111,29.132L-286.74,24.6c1.371-1.213,2.894-2.695,4.573-3.972a4.136,4.136,0,0,1,2.343-.517c7.6-.037,15.21-.022,23.081-.022V-21.735c1.685-.6,3.177-1.088,4.639-1.655a34.332,34.332,0,0,0,21.963-33.371,34.252,34.252,0,0,0-24.275-31.7c-1.685-.511-2.31-1.179-2.224-2.958.152-3.189-.012-6.392.081-9.584a4.019,4.019,0,0,1,.824-2.437c2.414-2.631,4.964-5.135,7.378-7.6Z" transform="translate(-127.418 -40.198)" fill="url(#linear-gradient)"/>
    </g>
  </g>
</svg>
