<svg xmlns="http://www.w3.org/2000/svg" width="22.528" height="19.399" viewBox="0 0 22.528 19.399">
  <g id="XMLID_70_" transform="translate(0 -34.22)">
    <path id="XMLID_72_" d="M22.168,159.7l-2.262-5.256H16.273a2.418,2.418,0,0,1-2.415-2.415v-.18H8.669v.18a2.4,2.4,0,0,1-.708,1.708,2.43,2.43,0,0,1-1.708.707H2.61L.357,159.712a4.422,4.422,0,0,0,4.065,6.162H18.107a4.422,4.422,0,0,0,4.061-6.17Zm-13.2,3.6a.341.341,0,0,1-.341.341H7.5a.341.341,0,0,1-.341-.341V162.17a.341.341,0,0,1,.341-.341H8.626a.341.341,0,0,1,.341.341Zm0-3.2a.341.341,0,0,1-.341.341H7.5a.341.341,0,0,1-.341-.341v-1.129a.341.341,0,0,1,.341-.341H8.626a.341.341,0,0,1,.341.341Zm0-3.2a.341.341,0,0,1-.341.341H7.5a.341.341,0,0,1-.341-.341v-1.128a.341.341,0,0,1,.341-.341H8.626a.341.341,0,0,1,.341.341Zm3.2,6.4a.341.341,0,0,1-.341.341H10.7a.341.341,0,0,1-.341-.341V162.17a.341.341,0,0,1,.341-.341h1.128a.341.341,0,0,1,.341.341V163.3Zm0-3.2a.341.341,0,0,1-.341.341H10.7a.341.341,0,0,1-.341-.341v-1.129a.341.341,0,0,1,.341-.341h1.129a.341.341,0,0,1,.341.341Zm0-3.2a.341.341,0,0,1-.341.341H10.7a.341.341,0,0,1-.341-.341v-1.129a.341.341,0,0,1,.341-.341h1.128a.341.341,0,0,1,.341.341v1.129Zm3.2,6.4a.341.341,0,0,1-.341.341H13.9a.341.341,0,0,1-.341-.341V162.17a.341.341,0,0,1,.341-.341H15.03a.341.341,0,0,1,.341.341Zm0-3.2a.341.341,0,0,1-.341.341H13.9a.341.341,0,0,1-.341-.341v-1.129a.341.341,0,0,1,.341-.341H15.03a.341.341,0,0,1,.341.341Zm0-3.2a.341.341,0,0,1-.341.341H13.9a.341.341,0,0,1-.341-.341v-1.128a.341.341,0,0,1,.341-.341H15.03a.341.341,0,0,1,.341.341Z" transform="translate(0 -112.254)" fill="#06b2ff"/>
    <path id="XMLID_71_" d="M9.635,40.683h4.949a.906.906,0,0,0,.905-.905v-1.69H23.7v1.69a.906.906,0,0,0,.905.905h4.95a.906.906,0,0,0,.905-.905v-1.69h0c0-2.136-4.863-3.868-10.864-3.868h0c-6,0-10.864,1.732-10.864,3.868h0l0,1.69A.905.905,0,0,0,9.635,40.683Z" transform="translate(-8.331)" fill="#06b2ff"/>
  </g>
</svg>
