<svg xmlns="http://www.w3.org/2000/svg" xmlns:xlink="http://www.w3.org/1999/xlink" width="78" height="78" viewBox="0 0 78 78">
  <defs>
    <linearGradient id="linear-gradient" x1="0.093" y1="0.045" x2="0.928" y2="0.937" gradientUnits="objectBoundingBox">
      <stop offset="0" stop-color="#1f6acb"/>
      <stop offset="1" stop-color="#07b0ff"/>
    </linearGradient>
  </defs>
  <g id="Group_55582" data-name="Group 55582" transform="translate(-601 -4247)">
    <path id="Union_1" data-name="Union 1" d="M56.072,77.625a17.808,17.808,0,0,1-3.4-1.073,18.132,18.132,0,0,1-3.079-1.7,18.321,18.321,0,0,1-7.623-18.785,18.057,18.057,0,0,1,2.727-6.481,18.224,18.224,0,0,1,4.9-4.9,18.047,18.047,0,0,1,10.133-3.1,18.373,18.373,0,0,1,15.132,7.99,18.177,18.177,0,0,1,1.7,3.079,17.953,17.953,0,0,1,1.072,10.714A18.094,18.094,0,0,1,76.552,66.8a18.4,18.4,0,0,1-1.7,3.1,18.614,18.614,0,0,1-4.951,4.951,18.4,18.4,0,0,1-3.1,1.7,18.005,18.005,0,0,1-10.731,1.073Zm-.388-11.811a6.191,6.191,0,0,0,2.087,2.674.4.4,0,0,0,.23.076.417.417,0,0,0,.156-.032.393.393,0,0,0,.246-.3l.255-1.284a.4.4,0,0,0-.125-.385,4.58,4.58,0,0,1-1.207-1.96,7.042,7.042,0,0,1-.315-1.492h-2A8.9,8.9,0,0,0,55.683,65.814ZM66.706,51.5c-.814.372-1.708.888-2.655,1.435a25.084,25.084,0,0,1-5.919,2.755v6.379a16,16,0,0,1,3.943,1.481c1.235.64,2.4,1.385,3.536,2.106.358.228.728.463,1.088.688a.66.66,0,0,0,.356.1,1.237,1.237,0,0,0,.657-.227,1,1,0,0,0,.47-.851V52.478a1,1,0,0,0-.467-.849,1.174,1.174,0,0,0-.644-.212A.874.874,0,0,0,66.706,51.5ZM51.266,58.887a3.07,3.07,0,0,0,3.065,3.066h2.64c.046-1.332.03-2.738.015-4.1h0c-.008-.671-.015-1.365-.015-2.035H54.332A3.069,3.069,0,0,0,51.266,58.887ZM6.982,63.909A6.963,6.963,0,0,1,0,57.078V22.77H68.462V38.515A22.752,22.752,0,0,0,37.044,63.909ZM9.26,47.97a2.276,2.276,0,0,0,2.277,2.277h9.108a2.277,2.277,0,0,0,0-4.555H11.537A2.276,2.276,0,0,0,9.26,47.97Zm18.216-9.109a2.277,2.277,0,0,0,2.277,2.278h9.108a2.277,2.277,0,1,0,0-4.555H29.753A2.276,2.276,0,0,0,27.476,38.861Zm-18.216,0a2.276,2.276,0,0,0,2.277,2.278h9.108a2.277,2.277,0,1,0,0-4.555H11.537A2.276,2.276,0,0,0,9.26,38.861Zm36.432-9.108a2.276,2.276,0,0,0,2.278,2.277h9.109a2.277,2.277,0,1,0,0-4.553H47.969A2.276,2.276,0,0,0,45.692,29.753Zm-18.216,0a2.276,2.276,0,0,0,2.277,2.277h9.108a2.277,2.277,0,1,0,0-4.553H29.753A2.276,2.276,0,0,0,27.476,29.753Zm-18.216,0a2.275,2.275,0,0,0,2.277,2.277h9.108a2.277,2.277,0,1,0,0-4.553H11.537A2.276,2.276,0,0,0,9.26,29.753ZM0,18.217V11.385A6.962,6.962,0,0,1,6.982,4.555a9.108,9.108,0,0,0,18.217,0H43.415a9.108,9.108,0,0,0,18.217,0,6.831,6.831,0,0,1,6.83,6.831v6.831ZM47.969,4.555V2.277A2.277,2.277,0,0,1,50.247,0H54.8a2.277,2.277,0,0,1,2.277,2.277V4.555a4.554,4.554,0,0,1-9.109,0Zm-36.433,0V2.277A2.277,2.277,0,0,1,13.813,0h4.555a2.277,2.277,0,0,1,2.277,2.277V4.555a4.554,4.554,0,0,1-9.108,0Z" transform="translate(601 4247)" fill="url(#linear-gradient)"/>
  </g>
</svg>
