<svg xmlns="http://www.w3.org/2000/svg" xmlns:xlink="http://www.w3.org/1999/xlink" width="84.851" height="78.071" viewBox="0 0 84.851 78.071">
  <defs>
    <linearGradient id="linear-gradient" x1="0.194" y1="0.089" x2="0.563" y2="0.853" gradientUnits="objectBoundingBox">
      <stop offset="0" stop-color="#006cf9"/>
      <stop offset="1" stop-color="#05aafd"/>
    </linearGradient>
  </defs>
  <path id="marketing" d="M43.152,91.484l8.379,8.379a2.592,2.592,0,0,1,0,3.659l-3.457,3.457a2.592,2.592,0,0,1-3.659,0L34.07,96.634l7.958-4.594q.561-.281,1.124-.555ZM93.431,59.732a2.067,2.067,0,0,1-1.278,3.931l-7.526-2.445a2.066,2.066,0,1,1,1.278-3.93Zm-8.523-11.07a2.07,2.07,0,0,1-2.07-3.585l6.8-3.925a2.07,2.07,0,0,1,2.07,3.585ZM73.47,31.3a2.067,2.067,0,1,1,4.043.859L75.867,39.9a2.066,2.066,0,1,1-4.043-.858ZM51.837,33.675a4.163,4.163,0,0,0-1.519,5.67L73,78.64a4.151,4.151,0,0,0,7.19-4.151L72.476,61.121l1.009-.582A7.382,7.382,0,1,0,66.1,47.753l-1.009.582L57.507,35.194a4.163,4.163,0,0,0-5.67-1.519ZM13.3,86.76l1.808,3.132a11.21,11.21,0,0,0,15.269,4.091l7.9-4.558L23.484,63.8l-7.9,4.558A11.21,11.21,0,0,0,11.5,83.629ZM26.983,61.619a84.8,84.8,0,0,0,20.274-19.3L68.764,79.575a84.8,84.8,0,0,0-26.848,7.91Z" transform="translate(-10.008 -29.664)" fill-rule="evenodd" fill="url(#linear-gradient)"/>
</svg>
