<svg id="Group_19497" data-name="Group 19497" xmlns="http://www.w3.org/2000/svg" width="620.49" height="283.751" viewBox="0 0 620.49 283.751">
  <g id="Group_19474" data-name="Group 19474" transform="translate(38.463 28.83)">
    <g id="Group_19473" data-name="Group 19473" transform="translate(0 31.57)">
      <path id="Path_10263" data-name="Path 10263" d="M769.25,717.41,584.518,871.956l-97.2-82.8c-18.192,16.02-46.287,40.746-74.551,65.558-19.315,16.957-34.953,30.658-47.629,41.747l-88.28-.1c24.481-20.843,123.05-107.461,189.456-166l20.3-17.9,98.253,83.7L729.09,675.514Z" transform="translate(-276.863 -675.514)" fill="#77b1f1"/>
    </g>
    <path id="Path_10264" data-name="Path 10264" d="M2104.806,553.512l87.981,88.25,24.854-100.813Z" transform="translate(-1675.964 -540.948)" fill="#77b1f1"/>
  </g>
  <g id="Group_19488" data-name="Group 19488" transform="translate(144.533 156.428)">
    <g id="Group_19482" data-name="Group 19482" transform="translate(16.229)">
      <g id="Group_19480" data-name="Group 19480">
        <path id="Path_10265" data-name="Path 10265" d="M816.287,1270.458a163.224,163.224,0,0,0-1.885-20.012c-1.352-7.814-2.568-12.31-2.582-12.358-.178-.687-2.75-3.468-8.467-3.382s-5.175,3.732-5.175,3.732h0a1.173,1.173,0,0,0,.041.324,175.038,175.038,0,0,1,5.076,43.789c0,.345-.042.941-.017,1.339,0,0,13.25.342,13.253,0C816.993,1281.743,816.768,1275.792,816.287,1270.458Z" transform="translate(-798.164 -1199.546)" fill="#b7d3f3"/>
        <path id="Path_10266" data-name="Path 10266" d="M822.777,1282.431c0,.342-.185.617-.405.617h-.005c-.22-.005-.4-.28-.4-.617H810.614c0,.342-.185.617-.405.617H810.2c-.224-.005-.4-.289-.4-.635a171.514,171.514,0,0,0-.942-19.4,152.412,152.412,0,0,0-4.34-24.251,1.2,1.2,0,0,1-.041-.324s-.542-3.646,5.175-3.732,8.29,2.695,8.468,3.382c.011.036.7,2.582,1.615,7.158.3,1.516.631,3.255.967,5.2a163.362,163.362,0,0,1,1.884,20.012C823.07,1275.792,823.239,1280.284,822.777,1282.431Z" transform="translate(-802.988 -1199.546)" fill="#d2e3fc"/>
        <path id="Path_10267" data-name="Path 10267" d="M823.631,1428.911h44.518s-1.037-4.2-26.819-3.57C823.085,1425.782,823.631,1428.911,823.631,1428.911Z" transform="translate(-817.655 -1345.409)" fill="#c5dcf8"/>
        <g id="Group_19475" data-name="Group 19475" transform="translate(2.352 84.152)">
          <path id="Path_10268" data-name="Path 10268" d="M808.191,1486.707c5.162-26.13,3.834-42.165,3.828-42.367-.013-.4.729-.768,1.127-.781s2.185-.119,2.391.225c.27.451,1.31,20.207-6.383,42.922Z" transform="translate(-808.191 -1443.537)" fill="#b7d3f3"/>
        </g>
        <g id="Group_19476" data-name="Group 19476" transform="translate(36.371 84.152)">
          <path id="Path_10269" data-name="Path 10269" d="M960.744,1486.707c-5.162-26.13-3.835-42.165-3.828-42.367.013-.4-.728-.768-1.127-.781s-2.185-.119-2.392.225c-.27.451-1.31,20.207,6.383,42.922Z" transform="translate(-953.197 -1443.537)" fill="#b7d3f3"/>
        </g>
        <g id="Group_19477" data-name="Group 19477" transform="translate(44.609 84.152)">
          <path id="Path_10270" data-name="Path 10270" d="M995.856,1486.707c-5.162-26.13-3.834-42.165-3.828-42.367.013-.4-.728-.768-1.127-.781s-2.185-.119-2.391.225c-.27.451-1.31,20.207,6.383,42.922Z" transform="translate(-988.309 -1443.537)" fill="#b7d3f3"/>
        </g>
        <g id="Group_19478" data-name="Group 19478" transform="translate(10.645 84.152)">
          <path id="Path_10271" data-name="Path 10271" d="M843.539,1486.707c5.162-26.13,3.835-42.165,3.828-42.367-.013-.4.728-.768,1.127-.781s2.186-.119,2.391.225c.27.451,1.31,20.207-6.383,42.922Z" transform="translate(-843.539 -1443.537)" fill="#b7d3f3"/>
        </g>
        <path id="Rectangle_8870" data-name="Rectangle 8870" d="M1.211,0H45.13a1.212,1.212,0,0,1,1.212,1.212v0A1.212,1.212,0,0,1,45.13,2.423H1.212A1.212,1.212,0,0,1,0,1.212v0A1.211,1.211,0,0,1,1.211,0Z" transform="translate(5.09 82.418)" fill="#b7d3f3"/>
        <g id="Group_19479" data-name="Group 19479" transform="translate(8.679)">
          <path id="Path_10272" data-name="Path 10272" d="M998.5,1264.648l14.8-3.205.872,2.124s-16.328,9.716-17.858,9.24S998.5,1264.648,998.5,1264.648Z" transform="translate(-958.219 -1220.011)" fill="#ffb27d"/>
          <path id="Path_10273" data-name="Path 10273" d="M948.389,1521.893a1.315,1.315,0,0,0-.234,1.406.01.01,0,0,0,0,.007,8.742,8.742,0,0,0,2.762,3.03c.166.134.314.256.443.369.034.03.068.059.1.089l.077.069c1.214,1.119.757,1.375,2.938,3.646,2.487,2.587,4.2,2.634,4.686,2.4.412-.2-.425-1.573-1.353-3.115-.045-.074-.089-.15-.135-.225-.123-.205-.246-.414-.369-.619-1.087-1.856-.808-2.727-.55-5.49.209-2.245,3.492-12.541,3.492-12.541l-4.765-.821s-1.435,8.2-3.016,9.462c-.845.673-1.792.681-2.6,1.18-.057.035-.114.071-.169.107A6.262,6.262,0,0,0,948.389,1521.893Z" transform="translate(-921.565 -1410.329)" fill="#ffb27d"/>
          <path id="Path_10274" data-name="Path 10274" d="M948.389,1556.612a1.314,1.314,0,0,0-.234,1.406.011.011,0,0,0,0,.007,10.125,10.125,0,0,0,2.766,3.02c.164.137.309.262.439.379.034.029.068.059.1.089s.051.047.077.069c1.214,1.119.757,1.375,2.938,3.646,2.487,2.587,4.2,2.634,4.686,2.4.412-.2-.425-1.573-1.353-3.115a10.6,10.6,0,0,1-4.432-3.266c-1.5-1.911-2.5-4.366-3.516-5.788-.057.035-.114.07-.169.107A6.255,6.255,0,0,0,948.389,1556.612Z" transform="translate(-921.565 -1445.048)" fill="#1c468a"/>
          <path id="Path_10275" data-name="Path 10275" d="M1100.848,1514.185c.294,1.471,2.391,1.225,4.734.653s1.786.108,5.12-.261,4.344-1.612,4.445-2.108c.091-.44-1.556-.595-3.323-.8-.222-.025-.446-.053-.669-.08-1.995-.25-3.456-1.538-5.268-2.595-1.717-1-4.278-5.082-4.278-5.082l-4.572.362s2.4,3.644,3.327,5.229a5.523,5.523,0,0,1,.449,3.116A5.866,5.866,0,0,0,1100.848,1514.185Z" transform="translate(-1035.599 -1405.597)" fill="#ffb27d"/>
          <path id="Path_10276" data-name="Path 10276" d="M1117.788,1540.143c2.342-.573,1.786.108,5.12-.261s4.344-1.612,4.445-2.108c.091-.44-1.557-.595-3.323-.8l-.017.034a9.4,9.4,0,0,1-4.775,1.484c-2.262.055-4.658-.593-6.22-.568a5.856,5.856,0,0,0,.035,1.564C1113.349,1540.961,1115.445,1540.716,1117.788,1540.143Z" transform="translate(-1047.805 -1430.903)" fill="#1c468a"/>
          <path id="Path_10277" data-name="Path 10277" d="M1069.918,1251.111s1.089-2.669,2.288-2.778,5.011-.708,5.283-.164a3.77,3.77,0,0,1-.817,3.214c-.817.708-5.882,1.852-5.882,1.852Z" transform="translate(-1014.842 -1209.678)" fill="#ffb27d"/>
          <path id="Path_10278" data-name="Path 10278" d="M987.421,1399.161l-9.854,26.519a9.02,9.02,0,0,1-2.965-.272,12.753,12.753,0,0,1-2.866-1.4s2.445-25.463,6.926-30.759S987.421,1399.161,987.421,1399.161Z" transform="translate(-939.694 -1319.81)" fill="#163560"/>
          <path id="Path_10279" data-name="Path 10279" d="M854.67,1351.825s28.315-9.574,34.63-7.537,25.275,39.76,25.275,39.76a3.662,3.662,0,0,1-1.6,1.007,15.058,15.058,0,0,1-3.716.381s-17.111-14.667-19.148-18.944-2.852-8.352-4.889-7.945-26.278,9.982-31.778,4.278a15.877,15.877,0,0,1-4.062-13.115Z" transform="translate(-845.918 -1283.203)" fill="#1c468a"/>
          <path id="Path_10280" data-name="Path 10280" d="M864.59,1085.949a6.867,6.867,0,0,0-3.717-.711,1.738,1.738,0,0,1,.784-.372,5.763,5.763,0,0,0-2.056.536c-8.849-3.41-10.24,9.62-10.054,12.647s.207,6.511-4.211,9.226c-8.692,5.342-1.358,14.667-1.358,14.667.068.04,4.044,6.783,4.044,6.783-.223-2.446,11.064-15.355,16.952-19.222,1.434-2.111,1.943-5.839,1.981-6.132a16.1,16.1,0,0,1-1.205,5.548C870.737,1104.332,867.835,1087.793,864.59,1085.949Z" transform="translate(-839.696 -1084.839)" fill="#2c3a64"/>
          <path id="Path_10281" data-name="Path 10281" d="M914.224,1162.358c.029.014-2.843,1.5-5,.914-2.033-.554-3.361-3.189-3.333-3.2.861-.171,1.109-1.354,1.091-6.437l.389.076,6.543,1.3s-.149,2.059-.153,4C913.752,1160.64,913.851,1162.184,914.224,1162.358Z" transform="translate(-889.293 -1137.499)" fill="#ffb27d"/>
          <path id="Path_10282" data-name="Path 10282" d="M918.74,1155.262s-.149,2.059-.153,4c-3.661-.1-5.6-3.443-6.389-5.294Z" transform="translate(-894.123 -1137.749)" fill="#ed975d"/>
          <path id="Path_10283" data-name="Path 10283" d="M901.371,1107.07a19.239,19.239,0,0,1-2.379-5.624c-.329-1.851.614-8.711,7.508-7.723a9.364,9.364,0,0,1,3.884,1.469c1.5,1.011,3.657,3.193,1.242,9.18l-.627,2.022Z" transform="translate(-883.973 -1091.565)" fill="#2c3a64"/>
          <path id="Path_10284" data-name="Path 10284" d="M916.7,1119.629s-8.663.143-8.669-5.253-1.128-9.012,4.4-9.331,6.607,1.739,7.047,3.539S918.951,1119.453,916.7,1119.629Z" transform="translate(-890.859 -1100.279)" fill="#ffb27d"/>
          <path id="Path_10285" data-name="Path 10285" d="M907.29,1101.012s-2.372,6.331-6.012,7.267-5.219-.039-5.219-.039a10.308,10.308,0,0,0,3.372-6.09S905.5,1098,907.29,1101.012Z" transform="translate(-881.772 -1096.378)" fill="#2c3a64"/>
          <path id="Path_10286" data-name="Path 10286" d="M941.425,1103.413a7.651,7.651,0,0,1,2.2,2.787c.432,1.374.626,4.2,1.45,4.107,0,0,1.787-4.3-.221-6.737C942.728,1100.989,941.425,1103.413,941.425,1103.413Z" transform="translate(-916.494 -1098.265)" fill="#2c3a64"/>
          <path id="Path_10287" data-name="Path 10287" d="M847.069,1206.65c-.854-3.583,2.052-10.535,5.086-16.29,2.753-5.216,5.61-9.448,5.867-9.3,7.26,4.309,7.916.727,7.916.727h0s6.6.875,8.462,4.09c2.316,3.989,4.819,15.133,7.3,17.243a4.68,4.68,0,0,0,.186,3.238c.087.31.182.605.288.885a17.052,17.052,0,0,0,1.248,2.563c-1.263.768-3.7,2.228-5.5,1.178-2.741-1.6-4.879-6.487-6.082-8.431l-.013-.022c-2.616,14.806.941,18.178-.86,19.74-1.9,1.649-4.617-.785-10.593,1.8-3.919,1.7-9.358,4.159-13.02,4.586-1.92.226-3.353-.109-3.82-1.405C842.18,1223.488,848.7,1213.479,847.069,1206.65Z" transform="translate(-841.428 -1158.485)" fill="#1c468a"/>
          <path id="Path_10288" data-name="Path 10288" d="M937.089,1151.946s.161.685,1.867.58c0,0,1.432-.089,1.388-.842A4.608,4.608,0,0,0,937.089,1151.946Z" transform="translate(-913.175 -1135.867)" fill="#fff"/>
          <path id="Path_10289" data-name="Path 10289" d="M843.538,1279.393c.467,1.3,1.9,1.631,3.82,1.406,2.534-1.1,13.482-5.345,13.36-8.219-.182-4.255-2.105-4.391-.747-9.643,1.091-4.217-9.025-12.058-10.639-13.762-3.034,5.756-3.118,6.027-2.263,9.61C848.7,1265.615,842.18,1275.624,843.538,1279.393Z" transform="translate(-841.428 -1210.621)" fill="#163560"/>
          <path id="Path_10290" data-name="Path 10290" d="M836.029,1211.922a16.05,16.05,0,0,1,5.294-4.893c-.306-.789,8.166-11.176,8.166-12.786,0-1.63,2.261-13.17,2.261-13.17s-7.059.436-9.5,3.845C839.19,1189.181,832.841,1205.588,836.029,1211.922Z" transform="translate(-835.157 -1158.496)" fill="#1c468a"/>
          <path id="Path_10291" data-name="Path 10291" d="M843.872,1291.711l14.108,3.681-1.324,2.377s-17.168-.12-18.078-1.165S843.872,1291.711,843.872,1291.711Z" transform="translate(-837.706 -1243.178)" fill="#ffb27d"/>
          <path id="Path_10292" data-name="Path 10292" d="M964.807,1272.682c1.2,1.944,3.342,6.827,6.082,8.431,1.8,1.05,4.238-.41,5.5-1.178a17.026,17.026,0,0,1-1.248-2.563c-1.009.231-2.239.526-3.033.765C970.566,1278.6,964.807,1272.682,964.807,1272.682Z" transform="translate(-934.391 -1228.613)" fill="#163560"/>
          <path id="Path_10293" data-name="Path 10293" d="M917.256,1304.123s4.43-1.254,5.485-.961,4.671,2.687,4.163,3.337-3.694-.389-5.159-.192-2.6.92-3.654.764a12.284,12.284,0,0,1-2.159-.571Z" transform="translate(-896.982 -1251.909)" fill="#ffb27d"/>
          <path id="Path_10294" data-name="Path 10294" d="M921.577,1301.534a16.613,16.613,0,0,0,2.784-1.747.173.173,0,0,1,.269.031c.165.261.32.764-.44,1.264A4.09,4.09,0,0,1,921.577,1301.534Z" transform="translate(-901.302 -1249.32)" fill="#ffb27d"/>
        </g>
      </g>
      <g id="Group_19481" data-name="Group 19481" transform="translate(28.758 35.937)">
        <path id="Path_10295" data-name="Path 10295" d="M941.413,1328.594H920.744a1.648,1.648,0,0,1,1.648-1.648h19.021Z" transform="translate(-920.744 -1306.083)" fill="#398ee1"/>
        <path id="Path_10296" data-name="Path 10296" d="M982.909,1238.019h31.956l-7.665,22.51H975.037Z" transform="translate(-962.3 -1238.019)" fill="#398ee1"/>
        <path id="Path_10297" data-name="Path 10297" d="M1016.872,1238.02l-7.666,22.509H977.044l7.872-22.509Z" transform="translate(-963.836 -1238.02)" fill="#46a0f9"/>
        <path id="Path_10298" data-name="Path 10298" d="M1063.076,1280.026a2.077,2.077,0,0,1-1.916,1.557,1.2,1.2,0,0,1-1.2-1.557,2.078,2.078,0,0,1,1.917-1.557A1.2,1.2,0,0,1,1063.076,1280.026Z" transform="translate(-1027.269 -1268.979)" fill="#f9ddbf"/>
        <path id="Path_10299" data-name="Path 10299" d="M1052.312,1238.02l-7.666,22.51h-21.3c14.109-4.816,17.865-19.5,18.5-22.51Z" transform="translate(-999.275 -1238.02)" fill="#398ee1"/>
      </g>
    </g>
    <g id="Group_19487" data-name="Group 19487" transform="translate(0 58.442)">
      <g id="Group_19484" data-name="Group 19484" transform="translate(4.662 3.475)">
        <g id="Group_19483" data-name="Group 19483">
          <path id="Path_10300" data-name="Path 10300" d="M749.447,1414.166a.825.825,0,0,0,.819-.671l4.014-22.749,5.773-32.718,1.614-9.149-4.112-.118-.714,5.311-5.009,37.323-2.97,22.123A.579.579,0,0,0,749.447,1414.166Z" transform="translate(-748.858 -1348.761)" fill="#95c0f4"/>
        </g>
        <path id="Path_10301" data-name="Path 10301" d="M782.889,1354.072a5.9,5.9,0,0,1,3.211,3.955l1.614-9.149-4.112-.118Z" transform="translate(-774.905 -1348.761)" fill="#78acea"/>
      </g>
      <g id="Group_19486" data-name="Group 19486" transform="translate(95.306 3.475)">
        <g id="Group_19485" data-name="Group 19485">
          <path id="Path_10302" data-name="Path 10302" d="M1147.449,1414.166a.826.826,0,0,1-.819-.671l-4.013-22.749-5.773-32.718-1.614-9.149,4.112-.118.714,5.311,5.009,37.323,2.97,22.123A.579.579,0,0,1,1147.449,1414.166Z" transform="translate(-1135.229 -1348.761)" fill="#95c0f4"/>
        </g>
        <path id="Path_10303" data-name="Path 10303" d="M1140.054,1354.072a5.9,5.9,0,0,0-3.211,3.955l-1.614-9.149,4.112-.118Z" transform="translate(-1135.229 -1348.761)" fill="#78acea"/>
      </g>
      <path id="Rectangle_8871" data-name="Rectangle 8871" d="M3.592,0h103.13a3.592,3.592,0,0,1,3.592,3.592v0a3.592,3.592,0,0,1-3.592,3.592H3.592A3.592,3.592,0,0,1,0,3.592v0A3.592,3.592,0,0,1,3.592,0Z" transform="translate(110.314 7.184) rotate(180)" fill="#78acea"/>
    </g>
  </g>
  <path id="Rectangle_8872" data-name="Rectangle 8872" d="M.823,0H619.667a.823.823,0,0,1,.823.823v0a.823.823,0,0,1-.823.823H.823A.823.823,0,0,1,0,.823v0A.823.823,0,0,1,.823,0Z" transform="translate(0 281.888)" fill="#2ea1d4"/>
  <g id="Group_19490" data-name="Group 19490" transform="translate(392.654 145.098)">
    <path id="Path_10304" data-name="Path 10304" d="M1847.856,1317.632s-2.732,3.389-1.878,3.85,3.111,1.326,3.643.781.7-4.537.7-4.537Z" transform="translate(-1831.923 -1251.688)" fill="#ffb27d"/>
    <path id="Path_10305" data-name="Path 10305" d="M1845.972,1317.872a4.017,4.017,0,0,0-1.557.968c-.439.581-1.411,1.467-1.173,1.712s1.633-.839,1.633-.839Z" transform="translate(-1829.928 -1251.871)" fill="#ffb27d"/>
    <path id="Path_10306" data-name="Path 10306" d="M1864.684,1124.8s-3.079,28.661-3.353,29.478c-.06.177-.3,1.084-.641,2.39-.485,1.864-1.17,4.543-1.819,7.09-.98,3.848-1.879,7.4-1.879,7.4l-2.673-.88s-.138-13.929.548-17.135,2.887-22.914,4-25.566S1864.684,1124.8,1864.684,1124.8Z" transform="translate(-1838.425 -1104.096)" fill="#aec3ff"/>
    <g id="Group_19489" data-name="Group 19489" transform="translate(0 68.664)">
      <path id="Path_10307" data-name="Path 10307" d="M1806.464,1353.291l-16.791-4.4a4.12,4.12,0,0,1-2.931-5.015l1.908-7.277a4.12,4.12,0,0,1,5.016-2.931l16.791,4.4a4.12,4.12,0,0,1,2.931,5.016l-1.908,7.277A4.12,4.12,0,0,1,1806.464,1353.291Z" transform="translate(-1786.607 -1332.519)" fill="#204d9a"/>
      <path id="Path_10308" data-name="Path 10308" d="M1798.017,1333.876l-1.93,7.361a4.132,4.132,0,0,0,1,3.883,4.067,4.067,0,0,0,1.1.831h0a4.035,4.035,0,0,0,.836.321l16.761,4.395a4.135,4.135,0,0,0,5.034-2.942l1.931-7.361a4.136,4.136,0,0,0-2.943-5.034l-5.771-1.513.412-1.57a1.362,1.362,0,0,0-.97-1.661l-.633-.166-3.511-.921-.872-.229a1.362,1.362,0,0,0-1.661.971l-.412,1.57-3.343-.877c-.133-.035-.264-.062-.4-.083h0a4.136,4.136,0,0,0-3.588,1.189h0A4.082,4.082,0,0,0,1798.017,1333.876Zm15.2-.277-6-1.572.412-1.57a.509.509,0,0,1,.62-.362l1.506.395,2.763.724.746.2a.524.524,0,0,1,.14.061.509.509,0,0,1,.223.559Z" transform="translate(-1793.76 -1329.225)" fill="#3c77dc"/>
    </g>
    <path id="Path_10309" data-name="Path 10309" d="M1850.163,1330.636s.746-1.256.466-1.694-1.286,1.3-1.286,1.3.687-1.494.431-1.74-1.309,1.472-1.309,1.472.655-1.452.426-1.5-1.011,1.221-1.011,1.221.406-1.087.035-1.035-1.173,1.044-1.173,1.044Z" transform="translate(-1832.633 -1259.985)" fill="#ffb27d"/>
    <path id="Path_10310" data-name="Path 10310" d="M1870.973,1216.988c-.485,1.864-1.17,4.543-1.819,7.09a27.522,27.522,0,0,1-1.287-5.621c-.619-4.743,1.283-14.848,1.283-14.848Z" transform="translate(-1848.709 -1164.414)" fill="#9db0f4"/>
    <path id="Path_10311" data-name="Path 10311" d="M2025.913,1312.608a23.7,23.7,0,0,1,3.345,3.173,16.257,16.257,0,0,1,1.244,4.453c-.049.9-2.281-2.063-2.937-2.3s.685,1.216.534,1.529-1.547-.708-2.08-1.041-.907-2.6-1.7-3.826S2025.913,1312.608,2025.913,1312.608Z" transform="translate(-1968.427 -1247.842)" fill="#ffb27d"/>
    <path id="Path_10312" data-name="Path 10312" d="M1865.138,1594.658h14.842c1.064-.721-.286-7.772-.286-7.772s-4.051-1.537-4.751,1.589-5.16,4.117-7.519,4.5A2.539,2.539,0,0,0,1865.138,1594.658Z" transform="translate(-1846.714 -1457.484)" fill="#233862"/>
    <path id="Path_10313" data-name="Path 10313" d="M1958.965,1594.658h14.842c1.063-.721-.287-7.772-.287-7.772s-4.051-1.537-4.751,1.589-5.159,4.117-7.519,4.5A2.539,2.539,0,0,0,1958.965,1594.658Z" transform="translate(-1918.529 -1457.484)" fill="#233862"/>
    <path id="Path_10314" data-name="Path 10314" d="M1882.159,1310.893s.667,8.323,1.451,18.328c1.065,13.591,3.94,47.288,3.94,47.288s1.885,1.608,6.059.728a131.949,131.949,0,0,0,4.615-24.893c.016-.217.033-.437.049-.656.988-13.507,2.525-41.949,2.525-41.949Z" transform="translate(-1859.742 -1245.647)" fill="#2b478b"/>
    <path id="Path_10315" data-name="Path 10315" d="M1881.189,1302.4s.895,11.2,1.679,21.2l14.614,23.123c.016-.217.033-.437.049-.656.988-13.507,2.525-41.949,2.525-41.949Z" transform="translate(-1859 -1240.026)" fill="#233862"/>
    <path id="Path_10316" data-name="Path 10316" d="M1899.345,1285.766s10.6,26.383,13.987,36.383c2.414,7.124,9.22,32.114,9.22,32.114a6.84,6.84,0,0,0,5.448-.84s2.532-25.531-2.583-32.73c-2.714-3.82-.674-39.7-11.677-40.011S1899.345,1285.766,1899.345,1285.766Z" transform="translate(-1872.896 -1223.395)" fill="#2b478b"/>
    <path id="Path_10317" data-name="Path 10317" d="M1899.94,1167.681c-4.42,2.493-23.353,2.437-24.229.48-1.959-4.37-2.45-26.576-1.526-33.388,0,0,.478-10.468,1.526-10.006,6.993-3.213,18.313-.3,18.313-.3,3.052.9,2.79,7.873,3.642,17.667.109,1.262.231,2.578.367,3.937.6,6.048,1.479,13,2.811,20.325C1900.932,1166.884,1900.6,1167.311,1899.94,1167.681Z" transform="translate(-1853.294 -1102.915)" fill="#aec3ff"/>
    <path id="Path_10318" data-name="Path 10318" d="M1913.276,1098.226c-.118,1.873-2.559,1.66-5.5.99s-1.873-2.4-1.873-2.4.044-1.33.229-2.924c.068-.58.153-1.2.264-1.794.052-.293.109-.582.175-.86.384-1.648,5.865-.057,5.826.386C1912.294,1092.819,1913.16,1096.756,1913.276,1098.226Z" transform="translate(-1877.776 -1077.846)" fill="#ffb27d"/>
    <path id="Path_10319" data-name="Path 10319" d="M1910.343,1128.9l-.232-2.587,3.25.613-1.251,2.309Z" transform="translate(-1881.137 -1105.254)" fill="#233862"/>
    <path id="Path_10320" data-name="Path 10320" d="M1900.478,1112.21l-1.942,2.954a4.3,4.3,0,0,0,1.685,3.135l2.655-2.473S1901.16,1115.171,1900.478,1112.21Z" transform="translate(-1872.277 -1094.458)" fill="#9db0f4"/>
    <path id="Path_10321" data-name="Path 10321" d="M1917.039,1117.36a6.95,6.95,0,0,0,1.614,2.881s4.146-1.115,5.135-3.239l-2.16-2.788S1921.523,1116.323,1917.039,1117.36Z" transform="translate(-1886.439 -1095.992)" fill="#9db0f4"/>
    <path id="Path_10322" data-name="Path 10322" d="M1913.79,1096.815a10.176,10.176,0,0,1-6.3,1.338c.068-.58.153-1.2.264-1.794.722-.175,1.326-.285,1.326-.285Z" transform="translate(-1879.134 -1082.108)" fill="#e2915a"/>
    <path id="Path_10323" data-name="Path 10323" d="M1909.884,1057.516c-1.29,3.55-6,2.644-8,2.074-.564-.159-.914-.293-.914-.293-.62-.281-.811-1.362-.757-2.728a21.118,21.118,0,0,1,1.786-7.438c.922-1.383,2.458-2.79,7.025-.831S1911.538,1052.966,1909.884,1057.516Z" transform="translate(-1873.552 -1044.802)" fill="#ffb27d"/>
    <path id="Path_10324" data-name="Path 10324" d="M1915.368,1047.432c-1.442,1.176-4.538,3.351-4.538,3.351a5.61,5.61,0,0,0,.766-1.581,1.564,1.564,0,0,0,.057-.535,2.951,2.951,0,0,1,.423-1.64c.188-.306.257-.624.018-.849-.391-.37-1.06-.03-1.5.27a.884.884,0,0,1-.966.025l-.006,0c-1.231-.771.128-2.13-.872-3.258s-5.333-1.283-5.16-1.99c-1.478-.835-.546-3.919-.52-4.081a15.986,15.986,0,0,0,4.772-.474c2.151-.54,4.522.841,5.273,1.41a1.207,1.207,0,0,0-.12-.526,1.114,1.114,0,0,1,.32.7c.033.033.047.056.037.062a1.425,1.425,0,0,1,.678.157s-.184-.058-.27.052a.129.129,0,0,1-.037.029C1916.607,1040.579,1916.564,1046.454,1915.368,1047.432Z" transform="translate(-1875.51 -1036.542)" fill="#233862"/>
    <path id="Path_10325" data-name="Path 10325" d="M1905.176,1086.077s-.231.447-1.4.076c0,0-.978-.311-.816-.826A3.294,3.294,0,0,1,1905.176,1086.077Z" transform="translate(-1875.653 -1073.877)" fill="#fff"/>
    <path id="Path_10326" data-name="Path 10326" d="M1902.757,1137.341s-2.593,32.77-2.557,35.5,2.873,5.618,2.873,5.618a12.012,12.012,0,0,0,2.7-5.087c.441-2.612-1.251-35.695-1.251-35.695Z" transform="translate(-1873.551 -1113.693)" fill="#2a4e96"/>
    <path id="Path_10327" data-name="Path 10327" d="M1960.221,1128.437s4.187,1,7.5,7.359,5.924,19.18,7.5,22.564,2.663,14.042,2.663,14.042l-2.5,1.228s-6.04-10.923-6.934-14.505c-.484-1.938-7.869-17.452-7.869-17.452Z" transform="translate(-1919.49 -1106.878)" fill="#aec3ff"/>
    <path id="Path_10328" data-name="Path 10328" d="M1966.563,1223.455h0c-7.882-1.134-5.624-27.222-5.005-27.325s2.885,4.663,2.885,4.663l.216,1.058c.6,6.049,1.479,13,2.811,20.325C1967.556,1222.658,1967.219,1223.085,1966.563,1223.455Z" transform="translate(-1919.917 -1158.688)" fill="#9db0f4"/>
  </g>
  <g id="Group_19493" data-name="Group 19493" transform="translate(468.416 86.215)">
    <g id="Group_19491" data-name="Group 19491" transform="translate(9.674 85.714)">
      <path id="Path_10329" data-name="Path 10329" d="M2365.842,1550.889s3.282,2.995,2.641,5.123-3.6,3.547-4,6.148-2,4.02-3.442,4.02h-6.869s-1.061-1.83,1.5-2.382,3.527-3.608,3.367-6.445a49.986,49.986,0,0,1,.24-6.621l5.443-1.261Z" transform="translate(-2306.287 -1455.966)" fill="#233862"/>
      <path id="Path_10330" data-name="Path 10330" d="M2170.071,1579.931s.588,6.816-.852,7.525l-18.439-.038s0-2.128,2.962-2.6,8.165-2.207,9.045-6.069S2170.071,1579.931,2170.071,1579.931Z" transform="translate(-2150.779 -1477.261)" fill="#233862"/>
      <path id="Path_10331" data-name="Path 10331" d="M2166.65,1172.721s.972,11.948,2.116,26.31c1.554,19.51,3.422,43.474,3.607,48.014.319,7.883,1.6,20.493,1.6,20.493s3.04,3,9.125,1.733a203.518,203.518,0,0,0,6.971-37.048c.024-.312.048-.627.072-.941,1.441-19.389,3.681-60.218,3.681-60.218Z" transform="translate(-2162.927 -1166.337)" fill="#2a4e96"/>
      <path id="Path_10332" data-name="Path 10332" d="M2166.65,1172.721s.972,11.948,2.116,26.31l21.305,33.193c.024-.312.048-.627.072-.941,1.441-19.389,3.681-60.218,3.681-60.218Z" transform="translate(-2162.927 -1166.337)" fill="#233862"/>
      <path id="Path_10333" data-name="Path 10333" d="M2185.582,1158.711s17.53,43.271,29.057,63.606,15.129,26.01,15.129,26.01,6.6-2.6,7.2-4.375c0,0-4.408-39.258-12.127-48.828-4.362-5.408-8.124-17.4-7.935-23.082.325-9.79-3.352-21.135-3.352-21.135Z" transform="translate(-2177.417 -1150.908)" fill="#2a4e96"/>
    </g>
    <path id="Path_10334" data-name="Path 10334" d="M2113.382,1186.879s-3.273,4.432-3.514,5.615-.524,5.406-.132,6.642,2.432-3.688,3.259-4.256-.517,1.938-.195,2.319,1.9-1.54,2.52-2.195.33-3.936.993-5.933S2113.382,1186.879,2113.382,1186.879Z" transform="translate(-2109.542 -1092.726)" fill="#ffb27d"/>
    <path id="Path_10335" data-name="Path 10335" d="M2137.687,912.348s-4.423,41.175-4.817,42.348c-.086.255-.433,1.558-.922,3.433-.7,2.678-1.68,6.527-2.613,10.185-1.407,5.528-2.928,10.309-2.928,10.309a3.876,3.876,0,0,1-2.279.295,2.409,2.409,0,0,1-1.692-1.032s.162-20.216,1.148-24.823,4.148-32.918,5.745-36.728S2137.687,912.348,2137.687,912.348Z" transform="translate(-2119.412 -882.601)" fill="#fff"/>
    <path id="Path_10336" data-name="Path 10336" d="M2147.845,1044.782c-.7,2.678-1.68,6.527-2.613,10.186a39.576,39.576,0,0,1-1.849-8.076c-.888-6.814,1.843-21.331,1.843-21.331Z" transform="translate(-2135.308 -969.253)" fill="#dceaff"/>
    <path id="Path_10337" data-name="Path 10337" d="M2189.459,973.947c-6.349,3.582-33.549,3.5-34.808.69-2.814-6.278-3.52-38.18-2.192-47.965,0,0,.688-15.038,2.192-14.375,10.047-4.616,26.308-.423,26.308-.423,4.385,1.291,4.008,11.311,5.232,25.381.157,1.813.332,3.7.527,5.656.865,8.689,2.124,18.67,4.038,29.2C2190.884,972.8,2190.4,973.417,2189.459,973.947Z" transform="translate(-2141.895 -880.903)" fill="#fff"/>
    <path id="Path_10338" data-name="Path 10338" d="M2208.617,874.169c-.169,2.69-3.676,2.385-7.9,1.422s-2.69-3.449-2.69-3.449.062-1.911.329-4.2c.1-.832.219-1.718.38-2.578.074-.421.156-.835.251-1.235.551-2.367,8.426-.083,8.37.554C2207.207,866.4,2208.451,872.056,2208.617,874.169Z" transform="translate(-2177.066 -844.89)" fill="#ffb27d"/>
    <path id="Path_10339" data-name="Path 10339" d="M2204.4,918.239l-.333-3.716,4.67.881-1.8,3.317Z" transform="translate(-2181.895 -884.266)" fill="#233862"/>
    <path id="Path_10340" data-name="Path 10340" d="M2190.231,894.257l-2.791,4.243a6.174,6.174,0,0,0,2.421,4.5l3.815-3.553S2191.211,898.511,2190.231,894.257Z" transform="translate(-2169.166 -868.754)" fill="#dceaff"/>
    <path id="Path_10341" data-name="Path 10341" d="M2214.023,901.656a9.986,9.986,0,0,0,2.319,4.139s5.957-1.6,7.376-4.653l-3.1-4.005S2220.466,900.167,2214.023,901.656Z" transform="translate(-2189.511 -870.959)" fill="#dceaff"/>
    <path id="Path_10342" data-name="Path 10342" d="M2209.355,872.142a14.615,14.615,0,0,1-9.045,1.923c.1-.832.219-1.718.379-2.577,1.037-.252,1.905-.409,1.905-.409Z" transform="translate(-2179.016 -851.013)" fill="#e2915a"/>
    <path id="Path_10343" data-name="Path 10343" d="M2203.744,815.683c-1.854,5.1-8.616,3.8-11.5,2.979-.811-.229-1.313-.421-1.313-.421-.89-.4-1.166-1.957-1.088-3.919.154-3.882,1.687-9.364,2.567-10.685,1.324-1.987,3.532-4.008,10.093-1.194S2206.12,809.148,2203.744,815.683Z" transform="translate(-2170.997 -797.419)" fill="#ffb27d"/>
    <path id="Path_10344" data-name="Path 10344" d="M2211.624,801.2c-2.071,1.689-6.519,4.814-6.519,4.814a8.062,8.062,0,0,0,1.1-2.271,2.241,2.241,0,0,0,.082-.769,4.239,4.239,0,0,1,.608-2.356c.271-.44.369-.9.026-1.219-.562-.533-1.521-.044-2.151.387a1.271,1.271,0,0,1-1.387.035l-.008,0c-1.769-1.108.184-3.06-1.253-4.681s-7.661-1.843-7.412-2.859c-2.125-1.2-.785-5.629-.747-5.863a22.958,22.958,0,0,0,6.855-.681c3.09-.776,6.5,1.209,7.575,2.027a1.733,1.733,0,0,0-.171-.756,1.6,1.6,0,0,1,.459,1c.048.048.068.08.053.089a2.051,2.051,0,0,1,.975.225s-.264-.083-.388.074a.183.183,0,0,1-.053.041C2213.4,791.351,2213.343,799.792,2211.624,801.2Z" transform="translate(-2173.811 -785.551)" fill="#233862"/>
    <path id="Path_10345" data-name="Path 10345" d="M2196.981,856.714s-.333.642-2,.109c0,0-1.4-.447-1.172-1.187A4.732,4.732,0,0,1,2196.981,856.714Z" transform="translate(-2174.017 -839.187)" fill="#fff"/>
    <path id="Path_10346" data-name="Path 10346" d="M2193.506,930.361s-3.725,47.078-3.673,51,4.128,8.07,4.128,8.07,3.248-3.555,3.882-7.308-1.8-51.28-1.8-51.28Z" transform="translate(-2170.996 -896.388)" fill="#2a4e96"/>
    <path id="Path_10347" data-name="Path 10347" d="M2285.171,1054.073h-.006c-11.323-1.629-8.079-39.107-7.191-39.255s4.145,6.7,4.145,6.7l.311,1.52c.865,8.689,2.124,18.67,4.038,29.2C2286.6,1052.93,2286.113,1053.543,2285.171,1054.073Z" transform="translate(-2237.607 -961.03)" fill="#dceaff"/>
    <g id="Group_19492" data-name="Group 19492" transform="translate(46.338 97.059)">
      <path id="Path_10348" data-name="Path 10348" d="M2341.571,1229.558l-23.946,6.968a5.918,5.918,0,0,1-7.315-4.017l-3.02-10.377a5.918,5.918,0,0,1,4.017-7.315l23.945-6.968a5.919,5.919,0,0,1,7.315,4.017l3.02,10.377A5.919,5.919,0,0,1,2341.571,1229.558Z" transform="translate(-2307.056 -1205.656)" fill="#235fc5"/>
      <path id="Path_10349" data-name="Path 10349" d="M2320.735,1214.817l3.055,10.5a5.935,5.935,0,0,0,4.1,4.046,5.822,5.822,0,0,0,1.973.209h0a5.793,5.793,0,0,0,1.267-.222l23.9-6.957a5.94,5.94,0,0,0,4.032-7.342l-3.054-10.5a5.942,5.942,0,0,0-7.343-4.032l-8.23,2.4-.651-2.24a1.957,1.957,0,0,0-2.422-1.33l-.9.262-5.007,1.457-1.244.362a1.955,1.955,0,0,0-1.331,2.422l.651,2.24-4.768,1.386c-.189.055-.371.119-.549.19a0,0,0,0,1,0,0h0a5.944,5.944,0,0,0-3.545,4.114h0A5.869,5.869,0,0,0,2320.735,1214.817Zm18.529-11.562-8.553,2.49-.651-2.24a.731.731,0,0,1,.5-.9l2.148-.625,3.94-1.148,1.063-.309a.747.747,0,0,1,.218-.028.732.732,0,0,1,.687.525Z" transform="translate(-2317.347 -1199.267)" fill="#3c77dc"/>
    </g>
    <path id="Path_10350" data-name="Path 10350" d="M2369.257,1181.949s-.742,6.209.65,6.12,4.8-.757,5.031-1.826-2.609-6.057-2.609-6.057Z" transform="translate(-2308.176 -1087.603)" fill="#ffb27d"/>
    <path id="Path_10351" data-name="Path 10351" d="M2365.833,1187.633a5.769,5.769,0,0,0-1.157,2.365c-.092,1.042-.6,2.862-.123,2.979s1.349-2.267,1.349-2.267Z" transform="translate(-2304.573 -1093.303)" fill="#ffb27d"/>
    <path id="Path_10352" data-name="Path 10352" d="M2276.06,917.568s6.014,1.44,10.769,10.573,8.51,27.554,10.78,32.417,4,19.451,4,19.451a2.232,2.232,0,0,1-1.578.99,7.474,7.474,0,0,1-1.923.125s-8.942-14.322-10.225-19.468c-.695-2.784-11.3-25.073-11.3-25.073Z" transform="translate(-2236.994 -886.596)" fill="#fff"/>
  </g>
  <g id="Group_19494" data-name="Group 19494" transform="translate(63.862 102.548)">
    <path id="Path_10353" data-name="Path 10353" d="M584.844,1563.868l-.9-6.49,3.785-3.163,1.192,8.592Z" transform="translate(-537.3 -1390.217)" fill="#ffb27d"/>
    <path id="Path_10354" data-name="Path 10354" d="M590.741,1593.265H575.309a8.477,8.477,0,0,1,.436-4.136c.773-1.712,1.974-2.769,2.084-4.08a4.636,4.636,0,0,0,4.418,1.359,16.922,16.922,0,0,0,2.678,3.471C585.933,1590.6,590.43,1590.344,590.741,1593.265Z" transform="translate(-530.627 -1413.817)" fill="#233862"/>
    <path id="Path_10355" data-name="Path 10355" d="M565.737,1194.221c-1.009,8.118-1.835,15.772-2.507,22.905-3.591,38.007-2.886,61.238-2.886,61.238s-.26.688-2.486.7a12.745,12.745,0,0,1-2.491-.268s-8.041-24.819-7.42-38.942a21.634,21.634,0,0,1,.628-4.571c1.929-7.226-7.138-34.861,2.718-45.152S566.2,1190.495,565.737,1194.221Z" transform="translate(-508.724 -1108.208)" fill="#2a4e96"/>
    <path id="Path_10356" data-name="Path 10356" d="M565.737,1194.221c-1.009,8.118-1.835,15.772-2.507,22.905l-15.284,22.725a21.634,21.634,0,0,1,.628-4.571c1.929-7.226-7.138-34.861,2.718-45.152S566.2,1190.495,565.737,1194.221Z" transform="translate(-508.724 -1108.208)" fill="#2a4e96"/>
    <path id="Path_10357" data-name="Path 10357" d="M677.278,863.749s-.372-1.855-.791-3.27c-.185-.626,1.106-4.74,2-5.247s3.222,2.264,2.564,4.391c-.339,1.093-.895,4.648-.895,4.648Z" transform="translate(-608.12 -855.172)" fill="#ffb27d"/>
    <path id="Path_10358" data-name="Path 10358" d="M672.881,878.523s-.486-1.075-.925-1.25-.909-1.933-1.231-2.63c0,0,.311-.456.856.131.332.358,1.073,1.408,1.073,1.408Z" transform="translate(-603.723 -869.946)" fill="#ffb27d"/>
    <path id="Path_10359" data-name="Path 10359" d="M390.583,905.815c-.095.2-.226.544-.343.872q0-.134,0-.265c-.006-.653-2.445-4.209-3.448-4.431s-2.419,3.108-1.166,4.949c.644.946,2.216,4.183,2.216,4.183l2.6-1.342s.15-1.171.518-1.466.3-2.115.408-2.875C391.362,905.44,390.932,905.1,390.583,905.815Z" transform="translate(-385.129 -890.999)" fill="#ffb27d"/>
    <path id="Path_10360" data-name="Path 10360" d="M476.581,1559.2c-.218-2.08-.272-7.553-.272-7.553s5.577-1.782,5.371-.559a39.394,39.394,0,0,0-.735,9l-2.255,1.347Z" transform="translate(-454.918 -1387.497)" fill="#ffb27d"/>
    <path id="Path_10361" data-name="Path 10361" d="M503.151,1216.415s-21.544,59.056-25.785,84.672a4.294,4.294,0,0,1-2.815.451,3.148,3.148,0,0,1-2.648-1.7s-3.892-30.7,3.844-41.362c5.315-7.323-2.292-39.485,10.086-42.064S503.151,1216.415,503.151,1216.415Z" transform="translate(-450.796 -1130.789)" fill="#2a4e96"/>
    <path id="Path_10362" data-name="Path 10362" d="M477.227,940.014v0a.476.476,0,0,0-.018-.076c-.126-.52-.263-1.031-.412-1.539v0a34.671,34.671,0,0,0-1.566-4.337c-.333-.748-.678-1.442-1.032-2.06-.054-.1-.107-.184-.157-.276l0,0a6.194,6.194,0,0,0-2.461-2.665,7.387,7.387,0,0,0-4.054-.168,1.867,1.867,0,0,1,.774-.517,6.162,6.162,0,0,0-2.1.892c-9.923-2.219-9.343,11.818-8.667,15s-2.521,4.727-7.027,7.983c-8.6,6.212-8.454,12.8-8.454,12.8.077.033.162.07.25.115.346-.852,1.08-2.464,1.849-2.805a33.4,33.4,0,0,0-.825,3.334c1.31.722,3.122,1.839,5.09,3.1l0,0c2.633,1.685,5.54,3.625,7.869,5.2a5.34,5.34,0,0,1-.057-2.071l.742,2.3.1.3c1.486,1.008,2.659,1.813,3.255,2.226.061.042.115.08.164.112.174.119.267.185.267.185-.2-.812.67-2.931,2.126-5.6.1-.186.205-.376.313-.568.47-.844.995-1.733,1.56-2.65.2-.331.409-.663.623-1a0,0,0,0,1,0,0c.171-.272.344-.541.523-.816l0,0q.633-.978,1.3-1.966c1.153-1.7,2.374-3.4,3.581-4.946a43.4,43.4,0,0,1,4.911-5.507c.047-.1.092-.2.132-.3a9.816,9.816,0,0,0,.532-1.7c.042-.178.079-.357.111-.536a23.254,23.254,0,0,0,.361-4.208,23.847,23.847,0,0,1-.053,4.241c-.028.229-.058.44-.092.636v0a8.669,8.669,0,0,1-.261,1.116,5.8,5.8,0,0,0,.626-.964,6.781,6.781,0,0,0,.326-.721C478.546,948.584,478.234,944.162,477.227,940.014Z" transform="translate(-428.699 -911.197)" fill="#163560"/>
    <path id="Path_10363" data-name="Path 10363" d="M554.018,1012.184c.033.01-2.778,2.045-5.163,1.759-2.243-.267-4.067-2.852-4.038-2.863.886-.317.962-1.61.141-7l.425.02,7.143.342s.167,2.207.468,4.265C553.246,1010.436,553.595,1012.058,554.018,1012.184Z" transform="translate(-507.353 -969.146)" fill="#ffb27d"/>
    <path id="Path_10364" data-name="Path 10364" d="M554.374,1004.508s.167,2.207.468,4.265c-3.9.468-6.478-2.769-7.611-4.607Z" transform="translate(-509.201 -969.211)" fill="#ed975d"/>
    <path id="Path_10365" data-name="Path 10365" d="M531.7,952.573a20.635,20.635,0,0,1-3.41-5.589c-.641-1.911-.723-9.335,6.743-9.374a10.038,10.038,0,0,1,4.351.945c1.747.836,4.382,2.81,2.765,9.539l-.346,2.243Z" transform="translate(-494.494 -918.267)" fill="#163560"/>
    <path id="Path_10366" data-name="Path 10366" d="M532.232,1072.622a30.255,30.255,0,0,1-20.966,2.684c-.137-.034-9.61-1.545-9.61-1.545.163-.445,1.387-7.763,1.547-8.172,2.07-5.343,5.854-34.341,9.016-35.771.807.879,3.114,1.481,5.089,1.306,2.274-.2,3.035-1.183,2.846-2.24,2.516,1.19,4.45,2.3,4.45,2.3C526.9,1034.625,532.232,1072.622,532.232,1072.622Z" transform="translate(-474.319 -988.13)" fill="#fff"/>
    <path id="Path_10367" data-name="Path 10367" d="M548.7,963.64s-9.164,1.518-10.022-4.2-2.618-9.379,3.2-10.59,7.281.8,8.032,2.642S551.059,963.1,548.7,963.64Z" transform="translate(-501.938 -926.588)" fill="#ffb27d"/>
    <path id="Path_10368" data-name="Path 10368" d="M537.959,943.968s-1.517,7.088-5.229,8.655-5.541.782-5.541.782a11.052,11.052,0,0,0,2.615-6.99S535.586,941.055,537.959,943.968Z" transform="translate(-493.861 -922.472)" fill="#163560"/>
    <path id="Path_10369" data-name="Path 10369" d="M570.784,945.1a8.2,8.2,0,0,1,2.776,2.608c.675,1.389,1.327,4.358,2.186,4.126,0,0,1.216-4.845-1.3-7.11C571.783,942.326,570.784,945.1,570.784,945.1Z" transform="translate(-527.229 -922.968)" fill="#163560"/>
    <path id="Path_10370" data-name="Path 10370" d="M606.769,890.612a5.856,5.856,0,0,0-1.638-.506,5.087,5.087,0,0,0-1.44.15s-2.585,16.072-2.777,16.924-11.09,13.128-14.028,13.079c-2.653-.044-5.8,2-6.38,2.4,0,0,6.179,13.065,6.487,15.52.335,2.67,3.534,43.795,3.534,43.795s-.19,1.913,3.384.885,4.469-1.88,4.469-1.88S595.1,948.6,594.407,938.53a19.272,19.272,0,0,0-.627-3.757,3.807,3.807,0,0,1,.615-3.235c4.519-6.2,11.656-16.255,12.054-18.391C607.033,910.009,606.769,890.612,606.769,890.612Z" transform="translate(-534.67 -881.902)" fill="#aec3ff"/>
    <path id="Path_10371" data-name="Path 10371" d="M481.652,1593.265H466.221a8.473,8.473,0,0,1,.436-4.136c.772-1.712,1.974-2.769,2.084-4.08a4.636,4.636,0,0,0,4.418,1.359,16.917,16.917,0,0,0,2.677,3.471C476.845,1590.6,481.342,1590.344,481.652,1593.265Z" transform="translate(-447.131 -1413.817)" fill="#233862"/>
    <path id="Path_10372" data-name="Path 10372" d="M439.086,972.382c-.52-3.2-7.16-16.051-7.16-16.051s-4.2-1.255-6.961-.254-17.057-7.07-17.516-7.813-8.114-15.01-8.114-15.01a1.775,1.775,0,0,0-1.652.163,1.862,1.862,0,0,0-1.011,1.549s5.909,17.963,7.481,20.741c.948,1.676,8.918,7.509,15.1,11.878a3.878,3.878,0,0,1,1.606,3.686c-.831,6.142-1.042,9.6-2,20.142-.793,8.743-1.1,25.672-1.1,25.672s6.915,2.393,11.687,2.71,5.812-4.714,5.812-4.714S439.62,975.673,439.086,972.382Z" transform="translate(-393.964 -914.841)" fill="#aec3ff"/>
    <path id="Path_10373" data-name="Path 10373" d="M571.64,998.328a4.092,4.092,0,0,0,2.428.457c.9-.135,1.1-1.2,1.1-1.2a3.549,3.549,0,0,0-1.625,0A6.926,6.926,0,0,0,571.64,998.328Z" transform="translate(-527.884 -964.106)" fill="#fff"/>
  </g>
  <g id="Group_19496" data-name="Group 19496" transform="translate(271.061 0)">
    <path id="Path_10374" data-name="Path 10374" d="M1813.08,504.062s-4.288-7.62,0-9.171,6.228-.121,6.432,1.615-1.634,8.576-1.634,8.576Z" transform="translate(-1683.818 -476.36)" fill="#ffb27d"/>
    <path id="Path_10375" data-name="Path 10375" d="M1633.6,578.59A138.649,138.649,0,0,1,1612.1,580.8a119.866,119.866,0,0,1-16.522-.743q-1.948-.224-3.745-.5c-12.659-1.92-19.648-5.323-19.648-5.323s11.566-24.21,20.908-23.281c10.962,1.093,29.536,10.929,31.382,8.17,2.078-3.108,3.818-29.763,3.818-29.763,4.86-3.328,7.762.18,7.762.18S1645.55,576.433,1633.6,578.59Z" transform="translate(-1500.897 -502.15)" fill="#0e84de"/>
    <path id="Path_10376" data-name="Path 10376" d="M1700.511,700.482a138.664,138.664,0,0,1-21.494,2.208,119.884,119.884,0,0,1-16.522-.743c-2.916-9.275-5.013-18.748.852-13.036C1673.693,698.983,1700.511,700.482,1700.511,700.482Z" transform="translate(-1567.812 -624.042)" fill="#0d66aa"/>
    <path id="Path_10377" data-name="Path 10377" d="M1567.9,1564.952s-.832,9.625,1.2,10.626l26.037-.054s0-3.005-4.182-3.673-11.529-3.116-12.772-8.569S1567.9,1564.952,1567.9,1564.952Z" transform="translate(-1497.484 -1293.036)" fill="#233862"/>
    <path id="Path_10378" data-name="Path 10378" d="M1541.923,982.221c-.129,6.293-.431,12.785-1.023,18.619-2.812,27.684-3.8,61.132-4.2,67.581-.7,11.194-2.912,29.078-2.912,29.078s-4.386,4.164-12.936,2.177c0,0-7.084-25.758-8.666-52.88-.024-.445-.049-.892-.071-1.339-.184-3.586-.376-7.686-.572-12.107-1.3-29.614-2.718-73.6-2.718-73.6l32.672-7.672S1542.244,966.532,1541.923,982.221Z" transform="translate(-1452.397 -826.791)" fill="#2a4e96"/>
    <path id="Path_10379" data-name="Path 10379" d="M1541.923,982.221c-8.281,14.286-24.063,40.606-30.385,51.128-1.3-29.614-2.718-73.6-2.718-73.6l32.672-7.672S1542.244,966.532,1541.923,982.221Z" transform="translate(-1452.397 -826.791)" fill="#233862"/>
    <path id="Path_10380" data-name="Path 10380" d="M1275.116,962.621s-5.316,6.252-5.8,7.986-1.33,7.98-.874,9.857,3.991-5.233,5.276-5.993-.965,2.828-.526,3.427,2.978-2.094,3.968-3,.892-5.815,2.08-8.715S1275.116,962.621,1275.116,962.621Z" transform="translate(-1268.317 -834.865)" fill="#ffb27d"/>
    <path id="Path_10381" data-name="Path 10381" d="M1279.429,1523.945s-4.634,4.229-3.73,7.234,5.086,5.008,5.651,8.681,2.825,5.676,4.86,5.676h9.7s1.5-2.584-2.119-3.364-4.981-5.095-4.755-9.1a70.6,70.6,0,0,0-.339-9.348l-7.686-1.781Z" transform="translate(-1273.878 -1262.968)" fill="#233862"/>
    <path id="Path_10382" data-name="Path 10382" d="M1370.375,955.19s-30.585,65.44-46.861,94.153-21.362,36.726-21.362,36.726-9.325-3.673-10.172-6.177c0,0,6.224-55.432,17.124-68.945,6.159-7.635,13.394-30.55,13.733-38.563s7.484-27.139,7.484-27.139Z" transform="translate(-1286.428 -821.567)" fill="#2a4e96"/>
    <path id="Path_10383" data-name="Path 10383" d="M1486.134,691.095a53,53,0,0,1-29.377,7.377c-7.555-.33-22.54-2.472-24.959-8.48-.568-1.411-.151-3.2.7-5.949,2.211-7.142,7.364-20.741,5.807-50.894a49.477,49.477,0,0,1,.2-7.913c1.621-14.852,10.133-23.648,18.36-26.522,20.064-7.013,26.752,2.7,26.752,2.7s8.869,7.026,10.206,21.69C1496.5,652.437,1486.134,691.095,1486.134,691.095Z" transform="translate(-1393.245 -554.386)" fill="#0e84de"/>
    <path id="Path_10384" data-name="Path 10384" d="M1564.572,539.189s9.206,5.6,19.191,4.016c0,0,1.974-.5,1-2.819a29.7,29.7,0,0,0,.886-3.092,46.652,46.652,0,0,0,1.143-5.044l-5.667-5.956-5.367-5.691C1574.281,534.205,1564.572,539.189,1564.572,539.189Z" transform="translate(-1495.07 -496.546)" fill="#ffb27d"/>
    <path id="Path_10385" data-name="Path 10385" d="M1608.609,542.592s3.084,8.243,10.75,11.533c.876-3.2,1.446-6.545,1.446-6.545l-5.969-4.455Z" transform="translate(-1528.775 -513.377)" fill="#ed985f"/>
    <path id="Path_10386" data-name="Path 10386" d="M1620.653,475.29s-17.573,2.2-18.806-8.6-4.332-17.788,6.836-19.647,13.822,2.022,15.124,5.529S1625.193,474.44,1620.653,475.29Z" transform="translate(-1522.569 -439.873)" fill="#ffb27d"/>
    <path id="Path_10387" data-name="Path 10387" d="M1578.275,423.473c-.152-.188-.512-.348-1.324-.423a3.3,3.3,0,0,1,1.537-.371c.213-1.125.891-3.105,2.857-3.519a2.444,2.444,0,0,0-1.25,1.716c2.344-2.232,7.241-3.735,20.585-2.172,17.587,2.059,11.346,13.133,9.012,14.393s-7.943-2.648-12.211-2.472-5.309,6.294-6.784,7.083-.852-.681-2.771-1.638-2.228,2.273-1.743,4.4-2.3,4.8-2.3,4.8l-2.6-3.023c-2.6-3.023-4.689-15.489-3.356-18.079C1578.038,423.938,1578.155,423.706,1578.275,423.473Z" transform="translate(-1504.544 -418.061)" fill="#2c3a64"/>
    <g id="Group_19495" data-name="Group 19495" transform="translate(95.882 8.685)">
      <path id="Path_10388" data-name="Path 10388" d="M1713.357,493.3l-29.833.266-.2-4.488,29.74-2.3Z" transform="translate(-1681.842 -479.34)" fill="#2a4e96"/>
      <path id="Path_10389" data-name="Path 10389" d="M1800.163,484.515l-32.48.47-.371-8.16,32.388-2.51Z" transform="translate(-1746.129 -469.803)" fill="#2a4e96"/>
      <path id="Path_10390" data-name="Path 10390" d="M1909.7,476.6l-27.39.034-.5-11.016,27.279-2.482Z" transform="translate(-1833.767 -461.244)" fill="#233862"/>
      <path id="Path_10391" data-name="Path 10391" d="M1995.042,472.294h0a1.532,1.532,0,0,0,1.461-1.6l-.643-14.15a1.531,1.531,0,0,0-1.6-1.46h0a1.531,1.531,0,0,0-1.46,1.6l.643,14.15A1.532,1.532,0,0,0,1995.042,472.294Z" transform="translate(-1918.715 -455.082)" fill="#233862"/>
      <path id="Path_10392" data-name="Path 10392" d="M1678.607,498.955h0a1.361,1.361,0,0,1-1.422-1.3l-.167-3.672a1.361,1.361,0,0,1,1.3-1.422h0a1.362,1.362,0,0,1,1.422,1.3l.167,3.672A1.361,1.361,0,0,1,1678.607,498.955Z" transform="translate(-1677.017 -483.769)" fill="#2a4e96"/>
    </g>
    <path id="Path_10393" data-name="Path 10393" d="M1435.635,778.763c2.211-7.142,7.364-20.741,5.808-50.894a49.478,49.478,0,0,1,.2-7.913h0c6.6-.568,16.7,6.571,16.7,6.571S1452.128,764.423,1435.635,778.763Z" transform="translate(-1396.382 -649.106)" fill="#0d66aa"/>
    <path id="Path_10394" data-name="Path 10394" d="M1353.043,599.829s-16.93,2.91-25.761,13.69-23.035,25.981-26.393,31.3-12.682,41.548-12.682,41.548.615,1.165,3.187,1.843a6.064,6.064,0,0,0,4.247-.357s12.352-21.14,17-31.7c1.931-4.388,35.336-21.765,47.895-19.964C1365.468,636.9,1353.043,599.829,1353.043,599.829Z" transform="translate(-1283.541 -557.186)" fill="#0e84de"/>
    <path id="Path_10395" data-name="Path 10395" d="M1810.594,477.393s3.642,2.228,5.82,1.285,1.986-1.805,1.986-1.805S1811.819,475.047,1810.594,477.393Z" transform="translate(-1683.374 -462.557)" fill="#ffb27d"/>
    <path id="Path_10396" data-name="Path 10396" d="M1419.632,647.463s-7.43,46.91-60.148,60.568l-5.743,11.33,10.088,1.707s60.017-17.387,59.209-74.435Z" transform="translate(-1333.701 -593.009)" fill="#fff"/>
    <path id="Path_10397" data-name="Path 10397" d="M1621.753,618.253l-2.433.238v3.522l3.585,3.727,3.409-.829v-4.888l-2.45-1.77Z" transform="translate(-1536.973 -571.287)" fill="#fff"/>
    <path id="Path_10398" data-name="Path 10398" d="M1563.737,578.49s-2.355.531-7.74,5.006c0,0,5.355,11.368,16.654,12.729a37.778,37.778,0,0,1,.635-8.407S1564.331,584.613,1563.737,578.49Z" transform="translate(-1488.506 -540.853)" fill="#0d66aa"/>
    <path id="Path_10399" data-name="Path 10399" d="M1629.691,608.055s5.514,2.927,5.922,7.488c0,0,2.108-3.339,1.5-5.652a18.831,18.831,0,0,0-2.5-4.962S1634.8,607.714,1629.691,608.055Z" transform="translate(-1544.911 -561.089)" fill="#0d66aa"/>
  </g>
</svg>
