<svg id="Group_18132" data-name="Group 18132" xmlns="http://www.w3.org/2000/svg" width="48.848" height="37.087" viewBox="0 0 48.848 37.087">
  <path id="Subtraction_10" data-name="Subtraction 10" d="M25.175,37.087H4.339A4.346,4.346,0,0,1,0,32.742V17.964A4.346,4.346,0,0,1,4.339,13.62h2.6V7.665a7.814,7.814,0,0,1,15.626,0V13.62h2.609a4.348,4.348,0,0,1,4.339,4.343v5.281h-2.9V17.964a1.447,1.447,0,0,0-1.443-1.448H4.339A1.446,1.446,0,0,0,2.9,17.964V32.742a1.444,1.444,0,0,0,1.44,1.446H25.175a1.441,1.441,0,0,0,1.221-.673h3.047A4.334,4.334,0,0,1,25.175,37.087ZM14.752,2.9a4.852,4.852,0,0,0-4.92,4.766V13.62h9.841V7.665A4.852,4.852,0,0,0,14.752,2.9Zm0,27.376a1.446,1.446,0,0,1-1.44-1.448V25.645a2.674,2.674,0,1,1,2.893.007v3.176A1.452,1.452,0,0,1,14.752,30.276Z" fill="#19c0ff"/>
  <g id="noun_List_204249" transform="translate(35.959 26.534)">
    <g id="Group_7143" data-name="Group 7143">
      <g id="Group_7306" data-name="Group 7306">
        <circle id="Ellipse_686" data-name="Ellipse 686" cx="2.148" cy="2.148" r="2.148" fill="#19c0ff"/>
      </g>
    </g>
  </g>
  <g id="noun_List_204249-2" data-name="noun_List_204249" transform="translate(44.552 26.534)">
    <g id="Group_7143-2" data-name="Group 7143">
      <g id="Group_7306-2" data-name="Group 7306">
        <circle id="Ellipse_686-2" data-name="Ellipse 686" cx="2.148" cy="2.148" r="2.148" fill="#19c0ff"/>
      </g>
    </g>
  </g>
  <g id="noun_List_204249-3" data-name="noun_List_204249" transform="translate(27.366 26.534)">
    <g id="Group_7143-3" data-name="Group 7143">
      <g id="Group_7306-3" data-name="Group 7306">
        <circle id="Ellipse_686-3" data-name="Ellipse 686" cx="2.148" cy="2.148" r="2.148" fill="#19c0ff"/>
      </g>
    </g>
  </g>
</svg>
