<svg id="Group_18130" data-name="Group 18130" xmlns="http://www.w3.org/2000/svg" width="45.025" height="41.023" viewBox="0 0 45.025 41.023">
  <g id="Group_7378" data-name="Group 7378" transform="translate(0 8.972)">
    <path id="Subtraction_12" data-name="Subtraction 12" d="M21.819,32.051a1.061,1.061,0,0,1-.974-.861A1.917,1.917,0,0,0,19.7,29.534a6.486,6.486,0,0,0-2.852-.5H1a1.043,1.043,0,0,1-1-1.012V1.013A1.085,1.085,0,0,1,1,0L16.85.008A6.758,6.758,0,0,1,20.937,1.2a4.553,4.553,0,0,1,.882.882A4.719,4.719,0,0,1,22.7,1.2a5.909,5.909,0,0,1,2.239-1V2.288a3.7,3.7,0,0,0-1.074.531,2.537,2.537,0,0,0-1.052,2.224v22.84a9.547,9.547,0,0,1,3.985-.867H41.658V14.779h1.983V28.019a1.038,1.038,0,0,1-.987,1.012H26.8a6.491,6.491,0,0,0-2.854.5A1.927,1.927,0,0,0,22.8,31.191,1.061,1.061,0,0,1,21.819,32.051ZM16.85,27.016a8.983,8.983,0,0,1,3.982.867V5.044a2.538,2.538,0,0,0-1.06-2.224,4.994,4.994,0,0,0-2.922-.8H1.986v25Zm21.339-4.849H26.284a1.008,1.008,0,0,1,0-2.015H38.189a1.008,1.008,0,0,1,0,2.015Zm-20.832,0H5.46a1.008,1.008,0,0,1,0-2.015h11.9a1,1,0,0,1,.99,1.01A.986.986,0,0,1,17.357,22.167Zm20.832-4.534H26.284a1.008,1.008,0,0,1,0-2.015H38.189a1.008,1.008,0,0,1,0,2.015Zm-20.832,0H5.46a1.008,1.008,0,0,1,0-2.015h11.9a1.008,1.008,0,0,1,0,2.015Zm0-4.534H5.46a1.008,1.008,0,0,1,0-2.017h11.9a1.008,1.008,0,0,1,0,2.017Zm0-4.534H5.46a1.008,1.008,0,0,1,0-2.015h11.9a1.008,1.008,0,0,1,0,2.015Z" transform="translate(0 0)" fill="#19c0ff"/>
  </g>
  <g id="Group_17850" data-name="Group 17850" transform="translate(27.564)">
    <g id="Group_17848" data-name="Group 17848" transform="translate(0 0)">
      <g id="Group_7339" data-name="Group 7339" transform="translate(0 0)">
        <path id="Path_4508" data-name="Path 4508" d="M272.8,35.418l-7.639-3.326a1.1,1.1,0,0,0-.862,0l-7.639,3.326a1.112,1.112,0,0,0-.659,1.02v4.434c0,6.1,2.22,9.664,8.187,13.156a1.082,1.082,0,0,0,1.087,0c5.967-3.483,8.187-7.048,8.187-13.156V36.438A1.11,1.11,0,0,0,272.8,35.418Zm-1.521,5.454c0,5.119-1.668,7.937-6.548,10.908-4.881-2.978-6.548-5.8-6.548-10.908v-3.7l6.548-2.851,6.548,2.851Z" transform="translate(-256 -32.004)" fill="#19c0ff"/>
      </g>
    </g>
    <g id="Group_17849" data-name="Group 17849" transform="translate(5.198 7.569)">
      <g id="Group_7341" data-name="Group 7341" transform="translate(0 0)">
        <path id="Path_4509" data-name="Path 4509" d="M328.116,128.2a.967.967,0,0,0-1.282.132l-4.02,3.328-1.134-1.574a.958.958,0,0,0-1.263-.235.811.811,0,0,0-.253,1.173l1.823,2.539a.936.936,0,0,0,.72.377h.038a.939.939,0,0,0,.713-.318l4.8-4.232A.807.807,0,0,0,328.116,128.2Z" transform="translate(-320.011 -128.016)" fill="#19c0ff"/>
      </g>
    </g>
  </g>
</svg>
