<svg xmlns="http://www.w3.org/2000/svg" width="21.27" height="18.86"  fill="#7badff" xmlns:v="https://vecta.io/nano"><path d="M12.489 15.368v2.664c.022.152-.06.3-.2.362a6.72 6.72 0 0 1-1.535.349 16.04 16.04 0 0 1-1.992.116 11.02 11.02 0 0 1-2.8-.349 8.21 8.21 0 0 1-2.424-1.06 7.45 7.45 0 0 1-1.878-1.746 7.78 7.78 0 0 1-1.226-2.408 10.31 10.31 0 0 1-.431-3.1A9.17 9.17 0 0 1 1.12 5.605a7.76 7.76 0 0 1 3.172-3.078 10.25 10.25 0 0 1 4.9-1.1c.657-.008 1.314.026 1.967.1a5.81 5.81 0 0 1 1.333.31c.095.073.143.191.127.31v2.849c0 .155-.06.207-.178.155-.475-.223-.981-.376-1.5-.453a11.43 11.43 0 0 0-1.852-.142 5.77 5.77 0 0 0-2.919.7 4.8 4.8 0 0 0-1.878 1.927 6.06 6.06 0 0 0-.66 2.909 6.4 6.4 0 0 0 .317 2.121 5.06 5.06 0 0 0 .875 1.577 4.36 4.36 0 0 0 1.269 1.06c.476.259.983.455 1.51.582a6.61 6.61 0 0 0 1.561.194 16.89 16.89 0 0 0 1.713-.078 6.06 6.06 0 0 0 1.408-.31q.1-.078.152-.039a.21.21 0 0 1 .051.168zm2.816-6.622h-1.522c-.119-.017-.178-.078-.178-.181V5.927c-.007-.05.01-.1.045-.136s.084-.052.133-.045h1.523v-.414c-.005-.541.037-1.082.127-1.616a5.2 5.2 0 0 1 .406-1.306c.326-.692.824-1.289 1.447-1.733a4.18 4.18 0 0 1 2.491-.67c.246-.001.492.012.736.039a2.25 2.25 0 0 1 .583.142c.109.038.181.143.178.259v2.56q0 .181-.2.129a2.67 2.67 0 0 0-.38-.026h-.38a1.69 1.69 0 0 0-.8.181 1.1 1.1 0 0 0-.507.608c-.123.371-.179.761-.165 1.151v.7h2.132c.1 0 .165.017.19.052a.26.26 0 0 1 .038.155v2.612q0 .181-.228.181h-2.141v9.621a.36.36 0 0 1-.038.155c-.024.048-.089.078-.191.078h-3.1c-.136 0-.2-.078-.2-.233z"/></svg>