<svg xmlns="http://www.w3.org/2000/svg" width="61" height="35.753" viewBox="0 0 61 35.753">
  <g id="Group_35" data-name="Group 35" transform="translate(61) rotate(90)">
    <path id="Path_76" data-name="Path 76" d="M.117,19.3a30.3,30.3,0,0,0,.618,2.991A23.179,23.179,0,0,0,4.39,29.535c1.556,2.105,3.388,4.181,4.336,5.223l0-.006.05.056c.7.771,1.332,1.462,1.994,2.124,1.349,1.343,2.675,2.648,4.075,3.851l.077.071-.05.05c-.317.313-.61.654-.973,1.073l-1.71,1.953,13.285,2.617L21.123,33.768l-2.677,2.943q-.78-.78-1.556-1.552c-1.742-1.736-3.54-3.53-5.23-5.346a28.183,28.183,0,0,1-5.016-7.447,11.534,11.534,0,0,1,.877-11.211A12.23,12.23,0,0,1,17.712,5.463h0A12.352,12.352,0,0,1,30.091,16.042a12.837,12.837,0,0,1-2.266,8.765c-.242.384-.495.76-.766,1.155l-1.2-1.153c1.792,1.729,4.91,5.7,5.146,6-.04-.052-.077-.109-.117-.161-.1-.129-.134-.2-.148-.215a1.607,1.607,0,0,1,.186-.294A22.694,22.694,0,0,0,35.6,19.573,17.186,17.186,0,0,0,31.371,6.052,17.216,17.216,0,0,0,18.518.04l-.507.008c-.238,0-.48-.013-.721-.023C17.017.01,16.745,0,16.472,0a5.841,5.841,0,0,0-1.063.086C7.926,1.451,2.978,5.731.643,12.976A16.257,16.257,0,0,0,.069,19.03Z" transform="translate(0.018 0)" fill="#06b2ff"/>
    <path id="Path_77" data-name="Path 77" d="M25.863,10.478l.013.01L24.586,9.256c-1.2-1.161-2.4-2.32-3.717-3.552.363-.4.729-.821,1.188-1.345l1.506-1.725L10.331,0l4.346,12.752,2.646-2.941c.551.545,1.1,1.088,1.654,1.629,1.813,1.777,3.688,3.615,5.382,5.52a22.946,22.946,0,0,1,5.29,8.678A11.037,11.037,0,0,1,27.475,36.4a12.08,12.08,0,0,1-15.77,2.97A11.732,11.732,0,0,1,6.674,24.233,35.909,35.909,0,0,1,8.415,21c.106-.186.217-.374.328-.564C7.8,19.4,5.964,17.32,4.408,15.214c.167.232.309.462.487.7a2.143,2.143,0,0,0,.155.2,1.508,1.508,0,0,1-.125.2A23.962,23.962,0,0,0,.312,25.949c-.1.539-.178,1.082-.255,1.667a16.715,16.715,0,0,0,.689,6.226,2.748,2.748,0,0,1,.167.443l.119.5c.1.274.188.512.278.729a17.684,17.684,0,0,0,25.231,8.822c6.445-3.642,9.611-9.45,9.158-16.8-.28-4.455-2.5-8.08-4.678-11.052-.236-.3-3.354-4.273-5.146-6Z" transform="translate(0 14.321)" fill="#1673e2"/>
    <path id="Path_78" data-name="Path 78" d="M0,0S1.967,2.272,3.709,4.4A10.274,10.274,0,0,1,0,0Z" transform="translate(4.999 30.565)" fill="#fff" opacity="0.2"/>
  </g>
</svg>
