<svg xmlns="http://www.w3.org/2000/svg" xmlns:xlink="http://www.w3.org/1999/xlink" width="250.828" height="53" viewBox="0 0 250.828 53">
  <defs>
    <linearGradient id="linear-gradient" x1="0.25" y1="1.009" x2="0.75" y2="-0.009" gradientUnits="objectBoundingBox">
      <stop offset="0" stop-color="#6300ff"/>
      <stop offset="1" stop-color="#0080ff"/>
    </linearGradient>
  </defs>
  <g id="Group_19401" data-name="Group 19401" transform="translate(-560 -514)">
    <g id="Group_19398" data-name="Group 19398" transform="translate(560 514)">
      <path id="Path_9401" data-name="Path 9401" d="M147.394,159.71H126.065a17.251,17.251,0,0,1-17.255-17.255v-18.49a17.251,17.251,0,0,1,17.255-17.255h21.329a17.251,17.251,0,0,1,17.255,17.255v18.49A17.251,17.251,0,0,1,147.394,159.71Z" transform="translate(-108.81 -106.71)" fill="url(#linear-gradient)"/>
      <g id="Group_19397" data-name="Group 19397" transform="translate(12.345 6.954)">
        <circle id="Ellipse_24" data-name="Ellipse 24" cx="2.208" cy="2.208" r="2.208" transform="translate(18.627 19.011)" fill="#fff"/>
        <circle id="Ellipse_25" data-name="Ellipse 25" cx="2.208" cy="2.208" r="2.208" transform="translate(8.586 19.011)" fill="#fff"/>
        <path id="Path_9402" data-name="Path 9402" d="M133.935,130.478a.761.761,0,0,0-.919-.041,5.722,5.722,0,0,1-1.358.754,3.8,3.8,0,0,1-1.3.261,3.76,3.76,0,0,1-1.289-.233,5.169,5.169,0,0,1-1.33-.768.783.783,0,0,0-.919.014.634.634,0,0,0-.1.1.558.558,0,0,0-.11.329.435.435,0,0,0,.123.315.634.634,0,0,0,.1.1l.014.014a6.6,6.6,0,0,0,1.742.974,4.976,4.976,0,0,0,1.783.3,5.2,5.2,0,0,0,1.769-.343,7.072,7.072,0,0,0,1.728-.946.32.32,0,0,0,.1-.1.505.505,0,0,0,.041-.645A.363.363,0,0,0,133.935,130.478Z" transform="translate(-114.54 -104.897)" fill="#fff"/>
        <path id="Path_9403" data-name="Path 9403" d="M146.491,128.253c-1.961-3.8-5.9-6.584-11.439-7.023v-1.413a3.863,3.863,0,0,0,1.5-.946l.014-.014a4.224,4.224,0,0,0,.905-1.344,4.094,4.094,0,0,0,0-3.168,4.157,4.157,0,0,0-3.841-2.565,4.219,4.219,0,0,0-1.591.315,4.078,4.078,0,0,0-1.344.905,4.361,4.361,0,0,0-.905,1.358,4.174,4.174,0,0,0,1.728,5.171,4.414,4.414,0,0,0,.686.315v1.385c-5.857.357-9.752,3.155-11.6,7.05v-.027a2.786,2.786,0,0,0-2.784,2.784V135.4a2.783,2.783,0,0,0,2.249,2.73,11.321,11.321,0,0,0,3.292,4.7l-2.812,2.373,9.3-2.373-3.991-2.1a8.17,8.17,0,0,1-3.2-6.31c0-4.924,4.856-8.916,10.863-8.916s10.863,3.991,10.863,8.916a8.06,8.06,0,0,1-2.675,5.857l2.634,2.167a11.969,11.969,0,0,0,2.894-4.472,2.792,2.792,0,0,0,1.742-2.579v-4.376A2.8,2.8,0,0,0,146.491,128.253Z" transform="translate(-117.81 -111.78)" fill="#fff"/>
      </g>
    </g>
    <g id="Group_19400" data-name="Group 19400" transform="translate(0 1.87)">
      <path id="Path_9419" data-name="Path 9419" d="M17.564-2.08V4.114a2.145,2.145,0,0,1-.313,1.265,3.023,3.023,0,0,1-1.027.819,9.041,9.041,0,0,1-2.323.789,13.769,13.769,0,0,1-3.037.342,12.679,12.679,0,0,1-5.136-1,7.93,7.93,0,0,1-3.6-3.1A9.976,9.976,0,0,1,.8-2.169,9.742,9.742,0,0,1,2.14-7.454,8.531,8.531,0,0,1,5.758-10.67,11.57,11.57,0,0,1,10.8-11.757a11.727,11.727,0,0,1,3.2.387A5.017,5.017,0,0,1,16.09-10.3a2.108,2.108,0,0,1,.73,1.578,2.094,2.094,0,0,1-.342,1.176,2.381,2.381,0,0,1-.819.789,9.771,9.771,0,0,0-1.876-.893,7.657,7.657,0,0,0-2.65-.417,6.071,6.071,0,0,0-2.933.7A4.88,4.88,0,0,0,6.189-5.34,6.525,6.525,0,0,0,5.475-2.2a6.9,6.9,0,0,0,.7,3.275A4.534,4.534,0,0,0,8.11,3.027a6.028,6.028,0,0,0,2.814.64,5.721,5.721,0,0,0,1.355-.149,5.562,5.562,0,0,0,.938-.3V-.263H9.733a3.693,3.693,0,0,1-.328-.759,3.232,3.232,0,0,1-.149-1,1.85,1.85,0,0,1,.432-1.355,1.549,1.549,0,0,1,1.146-.432h5A1.743,1.743,0,0,1,17.1-3.36,1.7,1.7,0,0,1,17.564-2.08Zm5.449,3.841-.179-2.978,7.384-1.161A2.532,2.532,0,0,0,29.5-3.926a2.5,2.5,0,0,0-1.935-.715,3,3,0,0,0-2.233.908,3.718,3.718,0,0,0-.953,2.576L24.531.9a3.176,3.176,0,0,0,1.4,2.337,4.992,4.992,0,0,0,2.68.7,7.58,7.58,0,0,0,2.352-.357,9.9,9.9,0,0,0,1.787-.744,2.1,2.1,0,0,1,.73.744,1.951,1.951,0,0,1,.283,1.012,1.875,1.875,0,0,1-.7,1.489,4.62,4.62,0,0,1-1.935.893,12.058,12.058,0,0,1-2.814.3,9.553,9.553,0,0,1-4.124-.863,6.544,6.544,0,0,1-2.873-2.59A8.23,8.23,0,0,1,20.273-.5a8.22,8.22,0,0,1,.61-3.305,6.486,6.486,0,0,1,1.638-2.308,6.84,6.84,0,0,1,2.322-1.355,8.208,8.208,0,0,1,2.695-.447,7.507,7.507,0,0,1,3.588.819,6.161,6.161,0,0,1,2.4,2.218,6.054,6.054,0,0,1,.863,3.246,1.831,1.831,0,0,1-.506,1.4,2.456,2.456,0,0,1-1.4.6Zm27.751-4.2v2.8H46.327v-2.65a1.97,1.97,0,0,0-.64-1.623A2.582,2.582,0,0,0,44-4.432a4.614,4.614,0,0,0-1.37.194,6.561,6.561,0,0,0-1.131.462V.362H37.1V-4.283a2.261,2.261,0,0,1,.313-1.236,2.965,2.965,0,0,1,.908-.878,8.47,8.47,0,0,1,2.442-1.087,11.73,11.73,0,0,1,3.275-.432A7.745,7.745,0,0,1,49.007-6.5,4.914,4.914,0,0,1,50.763-2.437ZM37.1-1.008H41.5v7.8a5.862,5.862,0,0,1-.834.164,8.461,8.461,0,0,1-1.161.074,3.012,3.012,0,0,1-1.831-.447A1.919,1.919,0,0,1,37.1,4.977Zm9.23,0h4.437v7.8a5.862,5.862,0,0,1-.834.164,8.462,8.462,0,0,1-1.161.074,3.083,3.083,0,0,1-1.846-.447,1.893,1.893,0,0,1-.6-1.608Zm9.945,2.769-.179-2.978,7.384-1.161a2.532,2.532,0,0,0-.715-1.548,2.5,2.5,0,0,0-1.935-.715,3,3,0,0,0-2.233.908,3.718,3.718,0,0,0-.953,2.576L57.791.9a3.176,3.176,0,0,0,1.4,2.337,4.992,4.992,0,0,0,2.68.7,7.58,7.58,0,0,0,2.352-.357,9.9,9.9,0,0,0,1.787-.744,2.1,2.1,0,0,1,.729.744,1.951,1.951,0,0,1,.283,1.012,1.875,1.875,0,0,1-.7,1.489,4.62,4.62,0,0,1-1.935.893,12.058,12.058,0,0,1-2.814.3,9.553,9.553,0,0,1-4.124-.863,6.544,6.544,0,0,1-2.873-2.59A8.23,8.23,0,0,1,53.533-.5a8.22,8.22,0,0,1,.61-3.305,6.486,6.486,0,0,1,1.638-2.308A6.84,6.84,0,0,1,58.1-7.469,8.208,8.208,0,0,1,60.8-7.916a7.507,7.507,0,0,1,3.588.819,6.161,6.161,0,0,1,2.4,2.218,6.054,6.054,0,0,1,.863,3.246,1.831,1.831,0,0,1-.506,1.4,2.456,2.456,0,0,1-1.4.6ZM74.763-3.628V.094H70.356V-4.164a2.424,2.424,0,0,1,.4-1.414,3.741,3.741,0,0,1,1.117-1.027,8.478,8.478,0,0,1,2.367-.938,12.052,12.052,0,0,1,2.9-.342q3.037,0,3.037,2.025a2.9,2.9,0,0,1-.134.893,3.431,3.431,0,0,1-.313.715q-.3-.06-.73-.1a9.148,9.148,0,0,0-.938-.045,7.839,7.839,0,0,0-1.787.208A5.642,5.642,0,0,0,74.763-3.628Zm-4.407,2.59,4.407.089V6.794a5.862,5.862,0,0,1-.834.164,8.461,8.461,0,0,1-1.161.074,3.012,3.012,0,0,1-1.831-.447,1.919,1.919,0,0,1-.581-1.608ZM87.864,3.995a6.891,6.891,0,0,0,1.355-.134,3.224,3.224,0,0,0,.968-.313V.69l-2.5.238a3.527,3.527,0,0,0-1.608.417,1.17,1.17,0,0,0-.6,1.072,1.371,1.371,0,0,0,.566,1.146A3.019,3.019,0,0,0,87.864,3.995Zm-.179-11.91a8.452,8.452,0,0,1,4.943,1.3,4.557,4.557,0,0,1,1.846,4V4.144a1.814,1.814,0,0,1-.387,1.206,3.405,3.405,0,0,1-.983.789,7.783,7.783,0,0,1-2.218.849,13.218,13.218,0,0,1-3.022.313,8.664,8.664,0,0,1-4.839-1.191,3.969,3.969,0,0,1-1.8-3.543A3.9,3.9,0,0,1,82.475-.546,6.533,6.533,0,0,1,86.2-1.871l3.96-.417v-.357A1.547,1.547,0,0,0,89.368-4.1a4.621,4.621,0,0,0-2.248-.447,9.232,9.232,0,0,0-2.218.268,13.678,13.678,0,0,0-1.95.625,1.889,1.889,0,0,1-.61-.73,2.214,2.214,0,0,1-.253-1.027,1.9,1.9,0,0,1,1.37-1.816,8.352,8.352,0,0,1,2.01-.521A15.687,15.687,0,0,1,87.685-7.916ZM97.9-1.037h4.377V2.149a1.4,1.4,0,0,0,.536,1.221,2.562,2.562,0,0,0,1.519.387,4.955,4.955,0,0,0,.968-.1,4.715,4.715,0,0,0,.878-.253,3,3,0,0,1,.432.655,1.972,1.972,0,0,1,.194.893,2.032,2.032,0,0,1-.834,1.667,4.6,4.6,0,0,1-2.8.655,5.983,5.983,0,0,1-3.886-1.131A4.5,4.5,0,0,1,97.9,2.446Zm3.186.8V-3.628H106.8a3.311,3.311,0,0,1,.3.685,3.092,3.092,0,0,1,.149.983,1.832,1.832,0,0,1-.4,1.31,1.439,1.439,0,0,1-1.087.417Zm1.191-.06H97.9V-10.982q.3-.089.834-.194a5.921,5.921,0,0,1,1.131-.1,3,3,0,0,1,1.846.447,1.988,1.988,0,0,1,.566,1.638Zm7.087-11.285a2.28,2.28,0,0,1,.7-1.7,2.429,2.429,0,0,1,1.772-.685,2.416,2.416,0,0,1,1.787.685,2.3,2.3,0,0,1,.685,1.7,2.369,2.369,0,0,1-.685,1.7,2.362,2.362,0,0,1-1.787.715,2.375,2.375,0,0,1-1.772-.715A2.343,2.343,0,0,1,109.362-11.578Zm.268,10.541h4.407V6.794a4.829,4.829,0,0,1-.8.164,8.462,8.462,0,0,1-1.161.074,3.073,3.073,0,0,1-1.861-.447,1.919,1.919,0,0,1-.581-1.608Zm4.407,2.293H109.63V-7.29a5.674,5.674,0,0,1,.819-.179,7.351,7.351,0,0,1,1.176-.089,3.082,3.082,0,0,1,1.846.432,1.983,1.983,0,0,1,.566,1.653Zm14.769-9.022a2.732,2.732,0,0,1,1.533.4,1.5,1.5,0,0,1,.61,1.355,7.368,7.368,0,0,1-.3,1.667q-.3,1.131-.789,2.62t-1.087,3.037q-.6,1.548-1.191,2.9t-1.072,2.248a3.307,3.307,0,0,1-1.042.432,6.03,6.03,0,0,1-1.578.194,5.06,5.06,0,0,1-1.742-.268,1.8,1.8,0,0,1-1.027-.834q-.328-.625-.8-1.757t-1.012-2.576q-.536-1.444-1.072-2.992t-.983-2.978q-.447-1.429-.715-2.5a3.438,3.438,0,0,1,1-.67,3.113,3.113,0,0,1,1.325-.283,2.737,2.737,0,0,1,1.519.387,2.325,2.325,0,0,1,.864,1.459l1.34,4.734q.238.834.491,1.667t.462,1.548q.208.715.357,1.221h.119q.715-2.412,1.444-5.166t1.3-5.374A4.3,4.3,0,0,1,128.805-7.767Zm6.551,9.528-.179-2.978,7.384-1.161a2.532,2.532,0,0,0-.715-1.548,2.5,2.5,0,0,0-1.935-.715,3,3,0,0,0-2.233.908,3.718,3.718,0,0,0-.953,2.576L136.875.9a3.176,3.176,0,0,0,1.4,2.337,4.993,4.993,0,0,0,2.68.7,7.58,7.58,0,0,0,2.352-.357,9.9,9.9,0,0,0,1.787-.744,2.1,2.1,0,0,1,.73.744,1.951,1.951,0,0,1,.283,1.012,1.875,1.875,0,0,1-.7,1.489,4.62,4.62,0,0,1-1.935.893,12.058,12.058,0,0,1-2.814.3,9.553,9.553,0,0,1-4.124-.863,6.544,6.544,0,0,1-2.873-2.59A8.23,8.23,0,0,1,132.617-.5a8.22,8.22,0,0,1,.61-3.305,6.486,6.486,0,0,1,1.638-2.308,6.84,6.84,0,0,1,2.322-1.355,8.208,8.208,0,0,1,2.695-.447,7.507,7.507,0,0,1,3.588.819,6.161,6.161,0,0,1,2.4,2.218,6.054,6.054,0,0,1,.863,3.246,1.831,1.831,0,0,1-.506,1.4,2.456,2.456,0,0,1-1.4.6Zm27.691-9.23h-.179q-.3.953-.7,2.114t-.819,2.427q-.417,1.265-.8,2.516l-.536,2.68q-.179.566-.342,1.191t-.342,1.221q-.179.6-.328,1.131t-.3,1.012q-.328.089-.744.194a4.086,4.086,0,0,1-.983.1,3.379,3.379,0,0,1-1.906-.447,1.485,1.485,0,0,1-.655-1.31,2.861,2.861,0,0,1,.1-.744q.1-.387.253-.893.268-.983.759-2.471T156.6-1.975q.581-1.742,1.191-3.439t1.131-3.126q.521-1.429.849-2.233a4.606,4.606,0,0,1,1.325-.491,7.522,7.522,0,0,1,1.8-.223,6.613,6.613,0,0,1,2.293.372,1.933,1.933,0,0,1,1.28,1.176q.566,1.578,1.236,3.648t1.355,4.332q.685,2.263,1.325,4.392T171.5,6.258a2.59,2.59,0,0,1-.953.61,3.96,3.96,0,0,1-1.489.253,2.614,2.614,0,0,1-1.727-.447,2.82,2.82,0,0,1-.774-1.34L165.608,2,165.1-.531q-.357-1.34-.744-2.59t-.715-2.367Q163.315-6.605,163.047-7.469ZM158.015.585l1.757-3.514h6.968l.6,3.514Zm16.2-6.357h4.526V6.794a4.946,4.946,0,0,1-.864.164,9.835,9.835,0,0,1-1.221.074,2.909,2.909,0,0,1-1.891-.476,2.118,2.118,0,0,1-.551-1.667Zm4.526,5.717h-4.526V-11.28q.3-.06.908-.149a8.321,8.321,0,0,1,1.206-.089,3,3,0,0,1,1.846.447,2.073,2.073,0,0,1,.566,1.7Z" transform="translate(632.089 529.09)" fill="#27279b"/>
      <g id="Group_19399" data-name="Group 19399" transform="translate(632.889 543.015)">
        <path id="Path_9413" data-name="Path 9413" d="M167.574,147.013a4.126,4.126,0,0,0,2.812-.85,2.754,2.754,0,0,0,.96-2.181,2.607,2.607,0,0,0-.741-1.893,5.3,5.3,0,0,0-2.318-1.193l-2.414-.727a7.925,7.925,0,0,1-2.03-.933,3.916,3.916,0,0,1-1.317-1.413,4.134,4.134,0,0,1-.453-1.989,4.023,4.023,0,0,1,1.55-3.347,6.553,6.553,0,0,1,4.142-1.207,10.524,10.524,0,0,1,2.675.315,5.636,5.636,0,0,1,1.865.823,1.372,1.372,0,0,1,.686,1.056,1.23,1.23,0,0,1-.192.658,1.417,1.417,0,0,1-.494.453,6.3,6.3,0,0,0-1.879-.974,7.737,7.737,0,0,0-2.565-.411,4.112,4.112,0,0,0-2.551.713,2.271,2.271,0,0,0-.946,1.934,2.016,2.016,0,0,0,.686,1.577,5.8,5.8,0,0,0,2.208,1.056l1.7.494a8.225,8.225,0,0,1,3.457,1.783,4.194,4.194,0,0,1,1.262,3.223,4.454,4.454,0,0,1-1.591,3.553,6.738,6.738,0,0,1-4.485,1.358,10.664,10.664,0,0,1-2.963-.37,5.762,5.762,0,0,1-1.975-.946,1.572,1.572,0,0,1-.713-1.125,1.158,1.158,0,0,1,.288-.8,1.506,1.506,0,0,1,.686-.453,7.508,7.508,0,0,0,1.811,1.207A5.918,5.918,0,0,0,167.574,147.013Z" transform="translate(-161.95 -130.375)" fill="#3a49d6"/>
        <path id="Path_9414" data-name="Path 9414" d="M174.05,142.439l-.11-1.756,8.381-1.138a3.884,3.884,0,0,0-1.056-2.51,3.432,3.432,0,0,0-2.606-.988,3.7,3.7,0,0,0-2.853,1.234,5.053,5.053,0,0,0-1.125,3.539v.617a4.475,4.475,0,0,0,4.91,4.526,5.468,5.468,0,0,0,2.112-.384,5.978,5.978,0,0,0,1.5-.837,1.529,1.529,0,0,1,.48.453,1.01,1.01,0,0,1,.178.6,1.271,1.271,0,0,1-.6.988,4.965,4.965,0,0,1-1.577.741,8.462,8.462,0,0,1-2.208.274,8.191,8.191,0,0,1-3.7-.782,5.476,5.476,0,0,1-2.414-2.318,7.726,7.726,0,0,1-.85-3.758,8.251,8.251,0,0,1,.453-2.826,5.986,5.986,0,0,1,1.276-2.1,5.379,5.379,0,0,1,1.961-1.317,6.588,6.588,0,0,1,2.469-.453,6.07,6.07,0,0,1,2.99.727,5.215,5.215,0,0,1,2.03,2.016,5.865,5.865,0,0,1,.741,2.963,1.2,1.2,0,0,1-.274.878,1.237,1.237,0,0,1-.782.315Z" transform="translate(-158.029 -129.271)" fill="#3a49d6"/>
        <path id="Path_9415" data-name="Path 9415" d="M185.932,142.855l-2.222-.3V130.812a2.385,2.385,0,0,1,.425-.123,2.906,2.906,0,0,1,.6-.069,1.461,1.461,0,0,1,.905.233.945.945,0,0,1,.288.768Zm-2.222-1.4,2.222.329v6.94a2.559,2.559,0,0,1-.411.123,2.832,2.832,0,0,1-.617.069,1.5,1.5,0,0,1-.892-.233.893.893,0,0,1-.3-.768Z" transform="translate(-153.863 -130.62)" fill="#3a49d6"/>
        <path id="Path_9416" data-name="Path 9416" d="M190.972,142.855l-2.222-.3V130.812a2.386,2.386,0,0,1,.425-.123,2.905,2.905,0,0,1,.6-.069,1.461,1.461,0,0,1,.905.233.945.945,0,0,1,.288.768v11.234Zm-2.222-1.4,2.222.329v6.94a2.557,2.557,0,0,1-.412.123,2.832,2.832,0,0,1-.617.069,1.5,1.5,0,0,1-.892-.233.893.893,0,0,1-.3-.768Z" transform="translate(-151.99 -130.62)" fill="#3a49d6"/>
        <path id="Path_9417" data-name="Path 9417" d="M194.58,142.439l-.11-1.756,8.381-1.138a3.884,3.884,0,0,0-1.056-2.51,3.432,3.432,0,0,0-2.606-.988,3.7,3.7,0,0,0-2.853,1.234,5.053,5.053,0,0,0-1.125,3.539v.617a4.475,4.475,0,0,0,4.91,4.526,5.468,5.468,0,0,0,2.112-.384,5.977,5.977,0,0,0,1.5-.837,1.529,1.529,0,0,1,.48.453,1.01,1.01,0,0,1,.178.6,1.271,1.271,0,0,1-.6.988,4.965,4.965,0,0,1-1.577.741A8.462,8.462,0,0,1,200,147.8a8.192,8.192,0,0,1-3.7-.782,5.476,5.476,0,0,1-2.414-2.318,7.726,7.726,0,0,1-.85-3.758,8.251,8.251,0,0,1,.453-2.826,5.987,5.987,0,0,1,1.276-2.1,5.379,5.379,0,0,1,1.961-1.317,6.588,6.588,0,0,1,2.469-.453,6.07,6.07,0,0,1,2.99.727,5.215,5.215,0,0,1,2.03,2.016,5.865,5.865,0,0,1,.741,2.963,1.2,1.2,0,0,1-.274.878,1.237,1.237,0,0,1-.782.315Z" transform="translate(-150.4 -129.271)" fill="#3a49d6"/>
        <path id="Path_9418" data-name="Path 9418" d="M206.3,137v4.389H204.08v-4.225a1.95,1.95,0,0,1,.233-1.015,2.63,2.63,0,0,1,.8-.741,7.124,7.124,0,0,1,1.975-.823,10.288,10.288,0,0,1,2.771-.343q2.222,0,2.222,1.111a1.46,1.46,0,0,1-.082.507,1.109,1.109,0,0,1-.219.4c-.192-.041-.425-.069-.727-.11a6.482,6.482,0,0,0-.892-.055,8.519,8.519,0,0,0-2.249.261A9.251,9.251,0,0,0,206.3,137Zm-2.222,3.114,2.222.329v6.94a2.56,2.56,0,0,1-.412.123,2.832,2.832,0,0,1-.617.069,1.5,1.5,0,0,1-.892-.233.893.893,0,0,1-.3-.768Z" transform="translate(-146.293 -129.275)" fill="#3a49d6"/>
      </g>
    </g>
  </g>
</svg>
