<svg xmlns="http://www.w3.org/2000/svg" xmlns:xlink="http://www.w3.org/1999/xlink" width="500" height="100" viewBox="0 0 311.904 65.905">
  <defs>
    <linearGradient id="linear-gradient" x1="0.25" y1="1.009" x2="0.75" y2="-0.009" gradientUnits="objectBoundingBox">
      <stop offset="0" stop-color="#6300ff"/>
      <stop offset="1" stop-color="#0080ff"/>
    </linearGradient>
  </defs>
  <g id="Group_19401" data-name="Group 19401" transform="translate(-560 -514)">
    <g id="Group_19398" data-name="Group 19398" transform="translate(560 514)">
      <path id="Path_9401" data-name="Path 9401" d="M156.789,172.615H130.267a21.452,21.452,0,0,1-21.457-21.457V128.167a21.452,21.452,0,0,1,21.457-21.457h26.522a21.452,21.452,0,0,1,21.457,21.457v22.992A21.452,21.452,0,0,1,156.789,172.615Z" transform="translate(-108.81 -106.71)" fill="url(#linear-gradient)"/>
      <g id="Group_19397" data-name="Group 19397" transform="translate(15.351 8.647)">
        <circle id="Ellipse_24" data-name="Ellipse 24" cx="2.746" cy="2.746" r="2.746" transform="translate(23.162 23.64)" fill="#fff"/>
        <circle id="Ellipse_25" data-name="Ellipse 25" cx="2.746" cy="2.746" r="2.746" transform="translate(10.677 23.64)" fill="#fff"/>
        <path id="Path_9402" data-name="Path 9402" d="M135.718,130.52a.947.947,0,0,0-1.143-.051,7.116,7.116,0,0,1-1.689.938,4.73,4.73,0,0,1-1.62.324,4.676,4.676,0,0,1-1.6-.29,6.427,6.427,0,0,1-1.654-.955.973.973,0,0,0-1.143.017.787.787,0,0,0-.119.119.694.694,0,0,0-.136.409.54.54,0,0,0,.153.392.789.789,0,0,0,.119.119l.017.017a8.2,8.2,0,0,0,2.166,1.211,6.187,6.187,0,0,0,2.217.375,6.465,6.465,0,0,0,2.2-.426,8.793,8.793,0,0,0,2.149-1.177.4.4,0,0,0,.119-.119.628.628,0,0,0,.051-.8A.451.451,0,0,0,135.718,130.52Z" transform="translate(-111.601 -98.71)" fill="#fff"/>
        <path id="Path_9403" data-name="Path 9403" d="M153.475,132.265c-2.439-4.725-7.334-8.187-14.225-8.733v-1.757a4.8,4.8,0,0,0,1.859-1.177l.017-.017a5.253,5.253,0,0,0,1.126-1.672,5.091,5.091,0,0,0,0-3.94,5.169,5.169,0,0,0-4.776-3.19,5.247,5.247,0,0,0-1.979.392,5.071,5.071,0,0,0-1.672,1.126,5.422,5.422,0,0,0-1.126,1.689,5.19,5.19,0,0,0,2.149,6.43,5.488,5.488,0,0,0,.853.392v1.723c-7.283.443-12.127,3.923-14.43,8.767v-.034a3.465,3.465,0,0,0-3.462,3.462v5.424a3.461,3.461,0,0,0,2.8,3.394,14.078,14.078,0,0,0,4.093,5.85l-3.5,2.951,11.564-2.951-4.963-2.61a10.159,10.159,0,0,1-3.974-7.846c0-6.123,6.038-11.087,13.509-11.087,7.454,0,13.509,4.963,13.509,11.087a10.022,10.022,0,0,1-3.326,7.283l3.275,2.695a14.884,14.884,0,0,0,3.6-5.56,3.471,3.471,0,0,0,2.166-3.207V135.71A3.487,3.487,0,0,0,153.475,132.265Z" transform="translate(-117.81 -111.78)" fill="#fff"/>
      </g>
    </g>
    <g id="Group_19400" data-name="Group 19400" transform="translate(650.637 517.73)">
      <path id="Path_9419" data-name="Path 9419" d="M21.646.813v7.7a2.667,2.667,0,0,1-.389,1.574,3.759,3.759,0,0,1-1.277,1.018,11.243,11.243,0,0,1-2.888.981,17.121,17.121,0,0,1-3.777.426,15.767,15.767,0,0,1-6.387-1.24,9.861,9.861,0,0,1-4.48-3.851A12.405,12.405,0,0,1,.8.7,12.114,12.114,0,0,1,2.466-5.87a10.608,10.608,0,0,1,4.5-4,14.387,14.387,0,0,1,6.276-1.351,14.583,14.583,0,0,1,3.98.481,6.238,6.238,0,0,1,2.592,1.333,2.621,2.621,0,0,1,.907,1.962,2.6,2.6,0,0,1-.426,1.463A2.961,2.961,0,0,1,19.276-5a12.15,12.15,0,0,0-2.333-1.111,9.521,9.521,0,0,0-3.3-.518A7.549,7.549,0,0,0,10-5.759,6.068,6.068,0,0,0,7.5-3.241,8.114,8.114,0,0,0,6.613.665a8.576,8.576,0,0,0,.87,4.073A5.638,5.638,0,0,0,9.89,7.163a7.5,7.5,0,0,0,3.5.8,7.114,7.114,0,0,0,1.685-.185A6.916,6.916,0,0,0,16.24,7.4V3.072H11.908a4.593,4.593,0,0,1-.407-.944,4.019,4.019,0,0,1-.185-1.24A2.3,2.3,0,0,1,11.852-.8a1.927,1.927,0,0,1,1.425-.537H19.5a2.167,2.167,0,0,1,1.574.555A2.114,2.114,0,0,1,21.646.813ZM28.421,5.59l-.222-3.7L37.382.443a3.148,3.148,0,0,0-.889-1.925,3.1,3.1,0,0,0-2.407-.889,3.736,3.736,0,0,0-2.777,1.129,4.623,4.623,0,0,0-1.185,3.2l.185,2.555a3.949,3.949,0,0,0,1.74,2.907,6.208,6.208,0,0,0,3.332.87,9.425,9.425,0,0,0,2.925-.444,12.315,12.315,0,0,0,2.222-.926,2.61,2.61,0,0,1,.907.926,2.426,2.426,0,0,1,.352,1.259,2.332,2.332,0,0,1-.87,1.851,5.745,5.745,0,0,1-2.407,1.111,14.994,14.994,0,0,1-3.5.37,11.879,11.879,0,0,1-5.128-1.074,8.137,8.137,0,0,1-3.573-3.221,10.235,10.235,0,0,1-1.3-5.369,10.221,10.221,0,0,1,.759-4.11A8.065,8.065,0,0,1,27.81-4.2,8.505,8.505,0,0,1,30.7-5.888a10.207,10.207,0,0,1,3.351-.555,9.335,9.335,0,0,1,4.462,1.018,7.661,7.661,0,0,1,2.981,2.758,7.528,7.528,0,0,1,1.074,4.036,2.277,2.277,0,0,1-.629,1.74,3.054,3.054,0,0,1-1.74.741ZM62.929.369v3.48H57.413V.554a2.45,2.45,0,0,0-.8-2.018,3.211,3.211,0,0,0-2.092-.648,5.738,5.738,0,0,0-1.7.241,8.159,8.159,0,0,0-1.407.574V3.849h-5.48V-1.927a2.811,2.811,0,0,1,.389-1.537,3.687,3.687,0,0,1,1.129-1.092,10.532,10.532,0,0,1,3.036-1.351,14.586,14.586,0,0,1,4.073-.537,9.631,9.631,0,0,1,6.183,1.759A6.111,6.111,0,0,1,62.929.369ZM45.935,2.146h5.48v9.7a7.289,7.289,0,0,1-1.037.2,10.522,10.522,0,0,1-1.444.093,3.745,3.745,0,0,1-2.277-.555,2.386,2.386,0,0,1-.722-2Zm11.478,0h5.517v9.7a7.289,7.289,0,0,1-1.037.2,10.522,10.522,0,0,1-1.444.093,3.834,3.834,0,0,1-2.3-.555,2.354,2.354,0,0,1-.741-2ZM69.779,5.59l-.222-3.7L78.74.443a3.148,3.148,0,0,0-.889-1.925,3.1,3.1,0,0,0-2.407-.889,3.736,3.736,0,0,0-2.777,1.129,4.623,4.623,0,0,0-1.185,3.2l.185,2.555a3.949,3.949,0,0,0,1.74,2.907,6.208,6.208,0,0,0,3.332.87,9.425,9.425,0,0,0,2.925-.444,12.315,12.315,0,0,0,2.222-.926,2.61,2.61,0,0,1,.907.926,2.426,2.426,0,0,1,.352,1.259,2.332,2.332,0,0,1-.87,1.851,5.745,5.745,0,0,1-2.407,1.111,14.994,14.994,0,0,1-3.5.37,11.879,11.879,0,0,1-5.128-1.074,8.137,8.137,0,0,1-3.573-3.221,10.235,10.235,0,0,1-1.3-5.369,10.222,10.222,0,0,1,.759-4.11A8.065,8.065,0,0,1,69.168-4.2a8.506,8.506,0,0,1,2.888-1.685,10.207,10.207,0,0,1,3.351-.555,9.335,9.335,0,0,1,4.462,1.018,7.661,7.661,0,0,1,2.981,2.758,7.528,7.528,0,0,1,1.074,4.036,2.277,2.277,0,0,1-.629,1.74,3.054,3.054,0,0,1-1.74.741Zm22.993-6.7V3.516h-5.48V-1.778a3.014,3.014,0,0,1,.5-1.759,4.651,4.651,0,0,1,1.388-1.277,10.543,10.543,0,0,1,2.944-1.166,14.986,14.986,0,0,1,3.61-.426q3.777,0,3.777,2.518a3.609,3.609,0,0,1-.167,1.111,4.267,4.267,0,0,1-.389.889q-.37-.074-.907-.13a11.375,11.375,0,0,0-1.166-.056,9.748,9.748,0,0,0-2.222.259A7.016,7.016,0,0,0,92.772-1.112Zm-5.48,3.221,5.48.111v9.627a7.289,7.289,0,0,1-1.037.2,10.522,10.522,0,0,1-1.444.093,3.745,3.745,0,0,1-2.277-.555,2.386,2.386,0,0,1-.722-2Zm21.771,6.257a8.569,8.569,0,0,0,1.685-.167,4.009,4.009,0,0,0,1.2-.389V4.257l-3.11.3a4.386,4.386,0,0,0-2,.518A1.455,1.455,0,0,0,106.1,6.4a1.7,1.7,0,0,0,.7,1.425A3.754,3.754,0,0,0,109.064,8.367Zm-.222-14.81a10.51,10.51,0,0,1,6.146,1.611,5.667,5.667,0,0,1,2.3,4.98v8.4a2.255,2.255,0,0,1-.481,1.5,4.234,4.234,0,0,1-1.222.981,9.678,9.678,0,0,1-2.758,1.055,16.437,16.437,0,0,1-3.758.389A10.773,10.773,0,0,1,103.047,11a4.936,4.936,0,0,1-2.24-4.406,4.85,4.85,0,0,1,1.555-3.869,8.124,8.124,0,0,1,4.628-1.648l4.924-.518V.11a1.924,1.924,0,0,0-.981-1.814,5.746,5.746,0,0,0-2.8-.555,11.479,11.479,0,0,0-2.758.333,17.008,17.008,0,0,0-2.425.778,2.349,2.349,0,0,1-.759-.907,2.754,2.754,0,0,1-.315-1.277,2.364,2.364,0,0,1,1.7-2.259,10.386,10.386,0,0,1,2.5-.648A19.506,19.506,0,0,1,108.842-6.444Zm12.7,8.553h5.443V6.071a1.745,1.745,0,0,0,.666,1.518,3.186,3.186,0,0,0,1.888.481,6.161,6.161,0,0,0,1.2-.13,5.863,5.863,0,0,0,1.092-.315,3.729,3.729,0,0,1,.537.815,2.452,2.452,0,0,1,.241,1.111,2.527,2.527,0,0,1-1.037,2.073,5.725,5.725,0,0,1-3.48.815,7.439,7.439,0,0,1-4.832-1.407q-1.722-1.407-1.722-4.591Zm3.962,1V-1.112h7.109a4.117,4.117,0,0,1,.37.852,3.845,3.845,0,0,1,.185,1.222,2.278,2.278,0,0,1-.5,1.629,1.79,1.79,0,0,1-1.351.518Zm1.481-.074h-5.443V-10.257q.37-.111,1.037-.241a7.362,7.362,0,0,1,1.407-.13,3.733,3.733,0,0,1,2.3.555,2.472,2.472,0,0,1,.7,2.036ZM135.8-11a2.835,2.835,0,0,1,.87-2.11,3.02,3.02,0,0,1,2.2-.852,3,3,0,0,1,2.222.852,2.866,2.866,0,0,1,.852,2.11,2.946,2.946,0,0,1-.852,2.11A2.938,2.938,0,0,1,138.87-8a2.953,2.953,0,0,1-2.2-.889A2.914,2.914,0,0,1,135.8-11Zm.333,13.107h5.48v9.738a6,6,0,0,1-1,.2,10.522,10.522,0,0,1-1.444.093,3.822,3.822,0,0,1-2.314-.555,2.386,2.386,0,0,1-.722-2Zm5.48,2.851h-5.48V-5.666a7.056,7.056,0,0,1,1.018-.222A9.141,9.141,0,0,1,138.61-6a3.832,3.832,0,0,1,2.3.537,2.466,2.466,0,0,1,.7,2.055ZM159.974-6.259a3.4,3.4,0,0,1,1.907.5,1.865,1.865,0,0,1,.759,1.685A9.162,9.162,0,0,1,162.27-2q-.37,1.407-.981,3.258t-1.351,3.777q-.741,1.925-1.481,3.61t-1.333,2.8a4.113,4.113,0,0,1-1.3.537,7.5,7.5,0,0,1-1.962.241,6.292,6.292,0,0,1-2.166-.333,2.234,2.234,0,0,1-1.277-1.037q-.407-.778-1-2.185t-1.259-3.2q-.666-1.8-1.333-3.721t-1.222-3.7q-.555-1.777-.889-3.11a4.275,4.275,0,0,1,1.24-.833,3.87,3.87,0,0,1,1.648-.352,3.4,3.4,0,0,1,1.888.481,2.891,2.891,0,0,1,1.074,1.814l1.666,5.887q.3,1.037.611,2.073t.574,1.925q.259.889.444,1.518h.148q.889-3,1.8-6.424t1.611-6.683A5.346,5.346,0,0,1,159.974-6.259ZM168.12,5.59l-.222-3.7L177.08.443a3.148,3.148,0,0,0-.889-1.925,3.1,3.1,0,0,0-2.407-.889,3.736,3.736,0,0,0-2.777,1.129,4.623,4.623,0,0,0-1.185,3.2l.185,2.555a3.949,3.949,0,0,0,1.74,2.907,6.208,6.208,0,0,0,3.332.87,9.425,9.425,0,0,0,2.925-.444,12.313,12.313,0,0,0,2.222-.926,2.61,2.61,0,0,1,.907.926,2.426,2.426,0,0,1,.352,1.259,2.332,2.332,0,0,1-.87,1.851,5.745,5.745,0,0,1-2.407,1.111,14.994,14.994,0,0,1-3.5.37,11.879,11.879,0,0,1-5.128-1.074,8.137,8.137,0,0,1-3.573-3.221,10.234,10.234,0,0,1-1.3-5.369,10.221,10.221,0,0,1,.759-4.11,8.065,8.065,0,0,1,2.036-2.87A8.506,8.506,0,0,1,170.4-5.888a10.207,10.207,0,0,1,3.351-.555,9.335,9.335,0,0,1,4.462,1.018,7.661,7.661,0,0,1,2.981,2.758,7.528,7.528,0,0,1,1.074,4.036,2.277,2.277,0,0,1-.629,1.74,3.054,3.054,0,0,1-1.74.741ZM202.554-5.888h-.222q-.37,1.185-.87,2.629T200.444-.242q-.518,1.574-1,3.129l-.666,3.332q-.222.7-.426,1.481t-.426,1.518q-.222.741-.407,1.407t-.37,1.259q-.407.111-.926.241a5.081,5.081,0,0,1-1.222.13,4.2,4.2,0,0,1-2.37-.555,1.846,1.846,0,0,1-.815-1.629,3.557,3.557,0,0,1,.13-.926q.13-.481.315-1.111.333-1.222.944-3.073T194.538.943q.722-2.166,1.481-4.276t1.407-3.888Q198.074-9,198.481-10a5.728,5.728,0,0,1,1.648-.611,9.354,9.354,0,0,1,2.24-.278,8.223,8.223,0,0,1,2.851.463,2.4,2.4,0,0,1,1.592,1.463q.7,1.962,1.537,4.536T210.033.961q.852,2.814,1.648,5.461t1.388,4.758a3.221,3.221,0,0,1-1.185.759,4.924,4.924,0,0,1-1.851.315,3.251,3.251,0,0,1-2.147-.555,3.507,3.507,0,0,1-.963-1.666l-1.185-4.147-.629-3.147q-.444-1.666-.926-3.221t-.889-2.944Q202.887-4.815,202.554-5.888ZM196.3,4.127l2.185-4.369h8.664l.741,4.369Zm20.142-7.905h5.628V11.847a6.151,6.151,0,0,1-1.074.2,12.229,12.229,0,0,1-1.518.093,3.618,3.618,0,0,1-2.351-.592,2.634,2.634,0,0,1-.685-2.073Zm5.628,7.109h-5.628V-10.628q.37-.074,1.129-.185a10.346,10.346,0,0,1,1.5-.111,3.733,3.733,0,0,1,2.3.555,2.578,2.578,0,0,1,.7,2.11Z" transform="translate(-0.8 13.96)" fill="#27279b"/>
      <g id="Group_19399" data-name="Group 19399" transform="translate(0 34.675)">
        <path id="Path_9413" data-name="Path 9413" d="M168.943,150.844a5.131,5.131,0,0,0,3.5-1.057,3.425,3.425,0,0,0,1.194-2.712,3.242,3.242,0,0,0-.921-2.354,6.591,6.591,0,0,0-2.882-1.484l-3-.9a9.854,9.854,0,0,1-2.524-1.16,4.87,4.87,0,0,1-1.637-1.757,5.141,5.141,0,0,1-.563-2.473,5,5,0,0,1,1.927-4.162,8.148,8.148,0,0,1,5.151-1.5,13.087,13.087,0,0,1,3.326.392,7.008,7.008,0,0,1,2.32,1.023,1.706,1.706,0,0,1,.853,1.313,1.53,1.53,0,0,1-.239.819,1.763,1.763,0,0,1-.614.563,7.839,7.839,0,0,0-2.337-1.211,9.622,9.622,0,0,0-3.189-.512,5.113,5.113,0,0,0-3.172.887,2.824,2.824,0,0,0-1.177,2.4,2.507,2.507,0,0,0,.853,1.961,7.209,7.209,0,0,0,2.746,1.313l2.115.614a10.227,10.227,0,0,1,4.3,2.217,5.215,5.215,0,0,1,1.569,4.008,5.538,5.538,0,0,1-1.979,4.418,8.379,8.379,0,0,1-5.577,1.689,13.26,13.26,0,0,1-3.684-.461,7.165,7.165,0,0,1-2.456-1.177,1.955,1.955,0,0,1-.887-1.4,1.44,1.44,0,0,1,.358-.989,1.873,1.873,0,0,1,.853-.563,9.337,9.337,0,0,0,2.251,1.5A7.359,7.359,0,0,0,168.943,150.844Z" transform="translate(-161.95 -130.154)" fill="#3a49d6"/>
        <path id="Path_9414" data-name="Path 9414" d="M174.427,144.433l-.136-2.183,10.421-1.416a4.83,4.83,0,0,0-1.313-3.121,4.268,4.268,0,0,0-3.241-1.228,4.6,4.6,0,0,0-3.548,1.535,6.283,6.283,0,0,0-1.4,4.4v.768a5.565,5.565,0,0,0,6.106,5.629,6.8,6.8,0,0,0,2.627-.478,7.433,7.433,0,0,0,1.859-1.04,1.9,1.9,0,0,1,.6.563,1.256,1.256,0,0,1,.222.75,1.58,1.58,0,0,1-.75,1.228,6.174,6.174,0,0,1-1.961.921,10.522,10.522,0,0,1-2.746.341,10.186,10.186,0,0,1-4.605-.972,6.809,6.809,0,0,1-3-2.882,9.608,9.608,0,0,1-1.057-4.673,10.261,10.261,0,0,1,.563-3.514,7.444,7.444,0,0,1,1.586-2.61,6.688,6.688,0,0,1,2.439-1.637,8.192,8.192,0,0,1,3.07-.563,7.548,7.548,0,0,1,3.718.9,6.485,6.485,0,0,1,2.524,2.507,7.293,7.293,0,0,1,.921,3.684,1.493,1.493,0,0,1-.341,1.092,1.538,1.538,0,0,1-.972.392Z" transform="translate(-154.506 -128.059)" fill="#3a49d6"/>
        <path id="Path_9415" data-name="Path 9415" d="M186.473,145.834l-2.763-.375v-14.6a2.966,2.966,0,0,1,.529-.153,3.614,3.614,0,0,1,.75-.085,1.817,1.817,0,0,1,1.126.29,1.175,1.175,0,0,1,.358.955Zm-2.763-1.74,2.763.409v8.63a3.181,3.181,0,0,1-.512.153,3.522,3.522,0,0,1-.768.085,1.866,1.866,0,0,1-1.109-.29,1.11,1.11,0,0,1-.375-.955Z" transform="translate(-146.596 -130.62)" fill="#3a49d6"/>
        <path id="Path_9416" data-name="Path 9416" d="M191.513,145.834l-2.763-.375v-14.6a2.967,2.967,0,0,1,.529-.153,3.613,3.613,0,0,1,.75-.085,1.817,1.817,0,0,1,1.126.29,1.175,1.175,0,0,1,.358.955v13.969Zm-2.763-1.74,2.763.409v8.63a3.181,3.181,0,0,1-.512.153,3.521,3.521,0,0,1-.768.085,1.866,1.866,0,0,1-1.109-.29,1.11,1.11,0,0,1-.375-.955Z" transform="translate(-143.039 -130.62)" fill="#3a49d6"/>
        <path id="Path_9417" data-name="Path 9417" d="M194.957,144.433l-.136-2.183,10.421-1.416a4.83,4.83,0,0,0-1.313-3.121,4.268,4.268,0,0,0-3.241-1.228,4.6,4.6,0,0,0-3.548,1.535,6.283,6.283,0,0,0-1.4,4.4v.768a5.565,5.565,0,0,0,6.106,5.629,6.8,6.8,0,0,0,2.627-.478,7.433,7.433,0,0,0,1.859-1.04,1.9,1.9,0,0,1,.6.563,1.256,1.256,0,0,1,.222.75,1.58,1.58,0,0,1-.75,1.228,6.174,6.174,0,0,1-1.961.921,10.522,10.522,0,0,1-2.746.341,10.186,10.186,0,0,1-4.605-.972,6.809,6.809,0,0,1-3-2.882,9.608,9.608,0,0,1-1.057-4.673,10.26,10.26,0,0,1,.563-3.514,7.444,7.444,0,0,1,1.586-2.61,6.689,6.689,0,0,1,2.439-1.637,8.192,8.192,0,0,1,3.07-.563,7.548,7.548,0,0,1,3.718.9,6.485,6.485,0,0,1,2.524,2.507,7.293,7.293,0,0,1,.921,3.684,1.492,1.492,0,0,1-.341,1.092,1.538,1.538,0,0,1-.972.392Z" transform="translate(-140.019 -128.059)" fill="#3a49d6"/>
        <path id="Path_9418" data-name="Path 9418" d="M206.843,137.668v5.458H204.08v-5.253a2.424,2.424,0,0,1,.29-1.262,3.27,3.27,0,0,1,.989-.921,8.859,8.859,0,0,1,2.456-1.023,12.793,12.793,0,0,1,3.445-.426q2.763,0,2.763,1.382a1.815,1.815,0,0,1-.1.631,1.38,1.38,0,0,1-.273.495c-.239-.051-.529-.085-.9-.136a8.065,8.065,0,0,0-1.109-.068,10.593,10.593,0,0,0-2.8.324A11.5,11.5,0,0,0,206.843,137.668Zm-2.763,3.872,2.763.409v8.63a3.184,3.184,0,0,1-.512.154,3.521,3.521,0,0,1-.768.085,1.866,1.866,0,0,1-1.109-.29,1.11,1.11,0,0,1-.375-.955Z" transform="translate(-132.222 -128.066)" fill="#3a49d6"/>
      </g>
    </g>
  </g>
</svg>
