<svg xmlns="http://www.w3.org/2000/svg" width="24.001" height="24" viewBox="0 0 24.001 24">
  <g id="Group_19655" data-name="Group 19655" transform="translate(-23.008)">
    <g id="Group_19656" data-name="Group 19656" transform="translate(23.008)">
      <g id="Group_19653" data-name="Group 19653">
        <g id="Group_19657" data-name="Group 19657">
          <path id="Path_9299" data-name="Path 9299" d="M51.069,12.218A11.219,11.219,0,1,1,39.851,1,11.218,11.218,0,0,1,51.069,12.218" transform="translate(-27.304 -0.764)" fill="#5cb541"/>
          <path id="Path_9300" data-name="Path 9300" d="M39.086,22.909A11.455,11.455,0,1,1,50.54,11.455,11.468,11.468,0,0,1,39.086,22.909m0-22.437A10.982,10.982,0,1,0,50.068,11.455,10.995,10.995,0,0,0,39.086.472" transform="translate(-26.54)" fill="#9ce577"/>
          <path id="Path_9301" data-name="Path 9301" d="M34.4,27.914a11.447,11.447,0,0,1-11.144-9,.177.177,0,0,1,.346-.074A11.054,11.054,0,0,0,37.825,27.02a.177.177,0,0,1,.11.337,11.389,11.389,0,0,1-3.531.557m7.511-2.886a.177.177,0,0,1-.119-.309,11.062,11.062,0,0,0,3.649-8.2v-.045a.177.177,0,0,1,.176-.178h0a.177.177,0,0,1,.177.176v.048a11.418,11.418,0,0,1-3.766,8.465.179.179,0,0,1-.119.045m-18.73-8.321a.167.167,0,0,1-.177-.165v-.023A11.42,11.42,0,0,1,26.756,8.07a.177.177,0,0,1,.238.263,11.065,11.065,0,0,0-3.632,8.186.187.187,0,0,1-.177.189m22.184-2.388a.177.177,0,0,1-.173-.14A11.054,11.054,0,0,0,30.96,6.025a.177.177,0,0,1-.11-.337A11.408,11.408,0,0,1,45.543,14.1a.177.177,0,0,1-.136.21.169.169,0,0,1-.038,0" transform="translate(-23.008 -3.913)" fill="#d2ffb1"/>
          <path id="Path_9302" data-name="Path 9302" d="M50.762,38.058l-4.78-4.78L47.7,31.559l3.06,3.06,7.729-7.729,1.719,1.72Z" transform="translate(-40.559 -20.541)" fill="#fff"/>
          <path id="Path_9303" data-name="Path 9303" d="M49.444,37.147l-5.187-5.187,2.127-2.127,3.06,3.06,7.729-7.729L59.3,27.29Zm-4.372-5.187,4.372,4.372,9.041-9.041-1.312-1.312-7.729,7.729-3.06-3.06Z" transform="translate(-39.24 -19.222)" fill="#fff"/>
        </g>
      </g>
    </g>
  </g>
</svg>
