<svg xmlns="http://www.w3.org/2000/svg" width="25" height="25" viewBox="0 0 25 25">
  <g id="Group_90" data-name="Group 90" transform="translate(-354 -267.255)">
    <circle id="Ellipse_15" data-name="Ellipse 15" cx="12.5" cy="12.5" r="12.5" transform="translate(354 267.255)" fill="#5083ff"/>
    <path id="Icon_awesome-check" data-name="Icon awesome-check" d="M4.144,13.5.179,9.531a.61.61,0,0,1,0-.863l.863-.863a.61.61,0,0,1,.863,0l2.671,2.671L10.3,4.756a.61.61,0,0,1,.863,0l.863.863a.61.61,0,0,1,0,.863L5.006,13.5A.61.61,0,0,1,4.144,13.5Z" transform="translate(360.4 270.629)" fill="#fff"/>
  </g>
</svg>
