<svg xmlns="http://www.w3.org/2000/svg" width="113" height="113" viewBox="0 0 113 113">
  <g id="Group_58339" data-name="Group 58339" transform="translate(-1017 -2570)">
    <circle id="Ellipse_747" data-name="Ellipse 747" cx="56.5" cy="56.5" r="56.5" transform="translate(1017 2570)" fill="#06b2ff"/>
    <g id="Group_58326" data-name="Group 58326" transform="translate(555.58 2407.672)">
      <g id="Group_58325" data-name="Group 58325" transform="translate(491.089 192)">
        <path id="Path_47794" data-name="Path 47794" d="M613.757,328.8c-1-.137-2-.248-2.995-.416a25.124,25.124,0,0,1-6.321-1.956l1.676-2.612a23.3,23.3,0,0,0,27.988-7.682A23.447,23.447,0,0,0,635.59,290.9l2.72-1.552c.535,1.173,1.108,2.3,1.573,3.474a25,25,0,0,1,1.714,7.556,3.693,3.693,0,0,0,.085.449v3.1a3.607,3.607,0,0,0-.09.449,25.249,25.249,0,0,1-2.781,9.948A26,26,0,0,1,619.8,328.4c-.972.186-1.964.272-2.947.4Z" transform="translate(-588.912 -275.95)" fill="#fff"/>
        <path id="Path_47795" data-name="Path 47795" d="M519.546,192c1.017.138,2.037.253,3.049.421a24.44,24.44,0,0,1,4.753,1.309l-1.458,2.669c-9.649-2.889-18.322-1.129-25.157,6.493-6.821,7.606-7.648,16.413-3.733,25.821l-2.751,1.357c-.475-1.247-1.013-2.42-1.374-3.645-2.656-9-1.15-17.275,4.663-24.621a25.469,25.469,0,0,1,16.574-9.5c.777-.122,1.561-.2,2.342-.3Z" transform="translate(-491.61 -192)" fill="#fff"/>
        <path id="Path_47797" data-name="Path 47797" d="M581.01,308.111c-3.074,0-6.148.029-9.221-.007a8.2,8.2,0,0,1-1.138-16.306c.295-.044.43-.113.486-.446a7.375,7.375,0,0,1,14.426-.745.69.69,0,0,0,.419.4,5.774,5.774,0,0,1,4.265,3.808.5.5,0,0,0,.516.375,6.534,6.534,0,0,1,5.886,6.617,6.442,6.442,0,0,1-6.315,6.29C587.227,308.144,584.118,308.111,581.01,308.111Z" transform="translate(-553.794 -272.278)" fill="#fff"/>
        <path id="Path_47798" data-name="Path 47798" d="M769.63,212.219a4.48,4.48,0,1,1-4.387-4.527A4.483,4.483,0,0,1,769.63,212.219Z" transform="translate(-723.638 -205.531)" fill="#fff"/>
        <path id="Path_47799" data-name="Path 47799" d="M532.608,492.1a4.475,4.475,0,1,1,4.425,4.49A4.492,4.492,0,0,1,532.608,492.1Z" transform="translate(-526.965 -446.927)" fill="#fff"/>
      </g>
    </g>
  </g>
</svg>
