<svg xmlns="http://www.w3.org/2000/svg" width="42.111" height="42.203" viewBox="0 0 42.111 42.203">
  <g id="Group_68973" data-name="Group 68973" transform="translate(-1.983 -1.892)">
    <path id="Path_47566" data-name="Path 47566" d="M528.643,207.8q8.048,0,16.1,0a4.712,4.712,0,0,1,4.816,3.752,5.5,5.5,0,0,1,.112,1.16q.009,16.177,0,32.353a4.7,4.7,0,0,1-3.712,4.8,5.72,5.72,0,0,1-1.245.124q-16.1.01-32.194,0a4.736,4.736,0,0,1-4.954-4.98q0-16.132,0-32.264a4.716,4.716,0,0,1,3.734-4.833,6.325,6.325,0,0,1,1.336-.117Q520.639,207.8,528.643,207.8Zm19.08,7.685h-.637q-6.882,0-13.764,0a5.866,5.866,0,0,1-5.739-3.933c-.174-.477-.347-.957-.477-1.447-.082-.311-.24-.377-.539-.377-4.708.009-9.416,0-14.123.008a2.763,2.763,0,0,0-2.949,2.947q-.006,16.221,0,32.442a2.764,2.764,0,0,0,2.953,2.943q16.163.005,32.326,0a3.581,3.581,0,0,0,.8-.067,2.792,2.792,0,0,0,2.169-2.95q0-14.536,0-29.072C547.744,215.833,547.732,215.687,547.722,215.488Zm.044-1.933a11.406,11.406,0,0,0-.09-1.62,2.747,2.747,0,0,0-2.872-2.2q-7.662-.006-15.325,0h-.437c.508,2.577,2.145,3.859,4.434,3.834,4.555-.049,9.111-.014,13.667-.014Z" transform="translate(-505.58 -205.909)" fill="#222872"/>
    <path id="Path_47570" data-name="Path 47570" d="M589.418,240.867a.922.922,0,0,1-.92.947.944.944,0,0,1-.977-.944.963.963,0,0,1,.974-.955A.944.944,0,0,1,589.418,240.867Z" transform="translate(-575.959 -234.175)" fill="#222872"/>
    <path id="Path_47571" data-name="Path 47571" d="M620.5,241.813a.925.925,0,0,1-.951-.962.945.945,0,0,1,.937-.939.964.964,0,0,1,.959.97A.948.948,0,0,1,620.5,241.813Z" transform="translate(-604.154 -234.173)" fill="#222872"/>
    <path id="Path_47572" data-name="Path 47572" d="M556.509,241.815a.949.949,0,0,1-.95-.929.956.956,0,0,1,1.912-.034A.951.951,0,0,1,556.509,241.815Z" transform="translate(-547.826 -234.176)" fill="#222872"/>
    <g id="Group_68969" data-name="Group 68969" transform="translate(13.459 -104.217)">
      <g id="Group_68970" data-name="Group 68970" transform="translate(0 116.344)">
        <g id="Group_68967" data-name="Group 68967" transform="translate(0 0)">
          <g id="Group_68971" data-name="Group 68971">
            <g id="Group_68965" data-name="Group 68965">
              <g id="Group_68972" data-name="Group 68972">
                <path id="Path_51819" data-name="Path 51819" d="M0,131.512c.065-.362.117-.727.2-1.086a11.217,11.217,0,0,1,2.27-4.521,29.793,29.793,0,0,1,3.788-3.817,12.28,12.28,0,0,0,2.29-2.438,4.519,4.519,0,0,0,.8-2,2.206,2.206,0,0,0-.246-1.255l.055-.047c.358.358.738.7,1.07,1.077a5.541,5.541,0,0,1,1.391,2.973,4.97,4.97,0,0,1-.216,2.024c-.157.546-.319,1.094-.423,1.652a2.26,2.26,0,0,0,.509,1.978,1.554,1.554,0,0,0,1.606.5,1.44,1.44,0,0,0,1.173-1.08,2.036,2.036,0,0,0-.021-.547c.485.3.972.577,1.428.9a7.934,7.934,0,0,1,2.879,3.341,6.284,6.284,0,0,1-1.09,7.024,9.914,9.914,0,0,1-5.13,3.061,1.108,1.108,0,0,1-.152.012c.275-.144.511-.257.737-.388a4.7,4.7,0,0,0,2.1-2.208,4.052,4.052,0,0,0-.431-3.964,7.5,7.5,0,0,0-2.292-2.208c-.882-.576-1.792-1.109-2.666-1.7a6.669,6.669,0,0,1-1.08-.93,1.721,1.721,0,0,1-.527-1.635c-.077.067-.126.1-.167.145a2.946,2.946,0,0,0-.916,2.308,2.9,2.9,0,0,0,.618,1.5c.245.331.522.639.79.953a1.916,1.916,0,0,1,.5,1.577,1.57,1.57,0,1,1-3.045-.763c.019-.1.042-.193.063-.29l-.047-.043c-.321.294-.659.57-.958.885a4.58,4.58,0,0,0-1.339,2.774,3.732,3.732,0,0,0,1.372,3.172,12.89,12.89,0,0,0,1.142.853c-2.651-.743-4.757-2.145-5.687-4.906a12.167,12.167,0,0,1-.3-1.374c-.01-.047-.027-.092-.041-.139v-1.369" transform="translate(0 -116.344)" fill="#009eff"/>
              </g>
            </g>
          </g>
        </g>
      </g>
    </g>
  </g>
</svg>
