<svg xmlns="http://www.w3.org/2000/svg" width="40.735" height="60.057" viewBox="0 0 40.735 60.057">
  <g id="Group_55649" data-name="Group 55649" transform="translate(-483.569 -176.249)">
    <g id="Group_55657" data-name="Group 55657" transform="translate(222.925 49.722)">
      <g id="Group_55656" data-name="Group 55656" transform="translate(244 121)">
        <path id="Path_37663" data-name="Path 37663" d="M358.279,193.8a14.958,14.958,0,0,1,1.2-5.955,38.02,38.02,0,0,1,9.134-13.555c1.457-1.428,2.959-2.812,4.441-4.215,3.174-3,5.4-6.406,4.556-11.245a15.94,15.94,0,0,1,3.175,3.8c2.024,3.293,2.152,6.827,1.33,10.485-.309,1.373-.686,2.729-.88,4.129a3.223,3.223,0,0,0,1.8,3.758,6.906,6.906,0,0,0,1.54.65,2.4,2.4,0,0,0,3.307-2.37c.015-.31,0-.621,0-1.017a16.176,16.176,0,0,1,2.941,1.949c3.138,2.459,5.695,5.354,6.878,9.266a10.3,10.3,0,0,1,.5,2.851c-1.692-.79-3.343-1.671-5.092-2.337a36.289,36.289,0,0,0-9.735-2.307,9.962,9.962,0,0,0-3.532-.073,12.073,12.073,0,0,1-4.058-3.647,4.267,4.267,0,0,1-.781-2.743c-1.741.905-2.468,3.836-1.757,6.848a42.815,42.815,0,0,0-11.075,3.628C360.841,192.344,359.6,193.151,358.279,193.8Z" transform="translate(-341.58 -153.307)" fill="#fab03c"/>
        <path id="Path_37664" data-name="Path 37664" d="M358,364.729c1.324-.651,2.562-1.458,3.893-2.1A42.816,42.816,0,0,1,372.968,359a15.049,15.049,0,0,0,2.856,4.366,4.227,4.227,0,0,1-.359,5.288c-1.36,1.215-4.229.335-4.942-1.514a5.428,5.428,0,0,1-.165-2.836c-2.645,2.325-4.68,4.825-4.6,8.382s2.367,5.872,4.922,7.977a.385.385,0,0,1-.408.047,21.451,21.451,0,0,1-9.667-7.02A12.735,12.735,0,0,1,358,364.729Z" transform="translate(-341.3 -324.233)" fill="#e84005"/>
        <path id="Path_37665" data-name="Path 37665" d="M505.951,355.018a9.963,9.963,0,0,1,3.532.073,36.287,36.287,0,0,1,9.735,2.307c1.75.666,3.4,1.547,5.092,2.337a12.24,12.24,0,0,1-1.027,6.544,19.135,19.135,0,0,1-12.447,11.132,1.509,1.509,0,0,1-.876.073,17.215,17.215,0,0,0,4.842-5.077,8.852,8.852,0,0,0-.38-10.381,23.376,23.376,0,0,0-7.23-6.247Z" transform="translate(-467.687 -320.71)" fill="#e84005"/>
        <path id="Path_37677" data-name="Path 37677" d="M375.046,544.042c-.006-1.438.615-2.165,1.758-2.11a1.457,1.457,0,0,1,1.443,1.195,3.725,3.725,0,0,1,.006,1.659,1.487,1.487,0,0,1-1.414,1.234,1.522,1.522,0,0,1-1.649-1.028A2.356,2.356,0,0,1,375.046,544.042Z" transform="translate(-355.901 -480.443)" fill="#fefefd"/>
        <path id="Path_37678" data-name="Path 37678" d="M623.279,542.678c.031-.368-.226-.964.673-.884s1.276.287,1.289.92c.014.692-.375.931-1.283,1.007C623.083,543.794,623.28,543.236,623.279,542.678Z" transform="translate(-567.861 -480.321)" fill="#fefefd"/>
        <path id="Path_37679" data-name="Path 37679" d="M413.26,543.822a8.2,8.2,0,0,0-.01-1.164c-.107-.739.162-.987.9-.9.714.083,1.38.228,1.652.966a2.434,2.434,0,0,1-.271,2.548,2.229,2.229,0,0,1-2.016.579c-.293-.016-.254-.238-.255-.427C413.258,544.89,413.26,544.356,413.26,543.822Z" transform="translate(-388.508 -480.283)" fill="#fefefd"/>
      </g>
    </g>
  </g>
</svg>
