<svg xmlns="http://www.w3.org/2000/svg" width="54.756" height="54.766" viewBox="0 0 54.756 54.766">
  <g id="Group_58711" data-name="Group 58711" transform="translate(-10375.321 -1981)">
    <path id="Path_51403" data-name="Path 51403" d="M297.7,297.865a.912.912,0,0,0-.142.807l3.809,12.776h0a.913.913,0,0,0,.874.652h14.11a.913.913,0,0,0,.871-.639l3.982-12.776a.913.913,0,0,0-.871-1.185h-21.9a.913.913,0,0,0-.73.365Zm21.392,1.46-3.414,10.951H302.919l-3.265-10.951Z" transform="translate(10099.705 1712.702)" fill="#009eff"/>
    <path id="Path_51404" data-name="Path 51404" d="M353.869,288.75h-4.563a.912.912,0,0,0-.856.6l-6.171,16.742H323.755v1.825h4.563v1.993a2.738,2.738,0,1,0,1.825,0v-1.993h8.213v1.993a2.738,2.738,0,1,0,1.825,0v-1.993h2.738a.912.912,0,0,0,.856-.6l6.171-16.742h3.924ZM329.23,313.39a.912.912,0,1,1,.645-.267A.912.912,0,0,1,329.23,313.39Zm10.038,0a.912.912,0,1,1,.645-.267A.912.912,0,0,1,339.268,313.39Z" transform="translate(10076.207 1720.54)" fill="#222872"/>
    <path id="Path_51405" data-name="Path 51405" d="M358.75,341.25H369.7v1.825H358.75Z" transform="translate(10044.861 1673.515)" fill="#009eff"/>
    <path id="Path_51406" data-name="Path 51406" d="M367.5,376.25h9.126v1.825H367.5Z" transform="translate(10037.023 1642.166)" fill="#009eff"/>
    <path id="Path_51407" data-name="Path 51407" d="M103.848,44.6a.911.911,0,0,0,.652.274h9.463a.912.912,0,0,0,.913-.913V34.839a.913.913,0,0,0-.26-.639L98.528,17.774h0a.912.912,0,0,0-1.286-.018l-9.463,9.126a.913.913,0,0,0-.019,1.3ZM97.857,19.7l15.195,15.514v7.84h-8.167L89.708,27.557Z" transform="translate(10287.822 1963.5)" fill="#222872"/>
    <path id="Path_51408" data-name="Path 51408" d="M475.5,88.239c-1.256,1.256-.572,2.56-.163,3.338.451.86.41.951.163,1.2a.691.691,0,0,1-.977-.977l-1.29-1.29h0a2.517,2.517,0,1,0,3.559,3.559c1.254-1.254.57-2.555.163-3.335-.452-.86-.41-.952-.163-1.2h0a.691.691,0,0,1,.977.977l1.29,1.29a2.517,2.517,0,1,0-3.559-3.559Z" transform="translate(9942.976 1900.799)" fill="#222872"/>
    <path id="Path_51409" data-name="Path 51409" d="M155.387,422.035a2.238,2.238,0,0,0,1.591-.658,2.282,2.282,0,0,0,.162-2.958c-.339-.645-.312-.673-.163-.821h0a.424.424,0,1,1,.6.6l1.29,1.29h0a2.249,2.249,0,0,0-3.181-3.18,2.282,2.282,0,0,0-.163,2.96c.338.644.311.672.163.821a.424.424,0,1,1-.6-.6L153.8,418.2a2.248,2.248,0,0,0,1.59,3.836Z" transform="translate(10229.025 1606.876)" fill="#222872"/>
    <path id="Path_51410" data-name="Path 51410" d="M432.66,17.5a1.018,1.018,0,0,0-.652.261L420.275,29.252A.911.911,0,0,0,420,29.9v6.76a.912.912,0,0,0,.913.913h6.518a.911.911,0,0,0,.639-.261L439.8,25.824a.912.912,0,0,0,.018-1.286l-6.519-6.76a.913.913,0,0,0-.643-.279Zm-5.6,18.251h-5.233V30.288l10.8-10.581,5.252,5.446Z" transform="translate(9989.997 1963.5)" fill="#222872"/>
    <path id="Path_51411" data-name="Path 51411" d="M93.614,385.468a.914.914,0,0,0,.643.279h.014a.912.912,0,0,0,.639-.261l10.56-10.342a.911.911,0,0,0,.274-.651v-6.084a.912.912,0,0,0-.913-.913H98.964a.912.912,0,0,0-.639.261L87.766,378.1a.912.912,0,0,0-.018,1.286Zm5.722-16.147h4.582v4.787L94.29,383.54l-4.6-4.77Z" transform="translate(10287.829 1650.007)" fill="#222872"/>
    <path id="Path_51412" data-name="Path 51412" d="M281.364,212.738a1.369,1.369,0,1,0-1.369-1.369,1.369,1.369,0,0,0,1.369,1.369Zm0-1.825a.456.456,0,1,1-.456.456A.457.457,0,0,1,281.364,210.912Z" transform="translate(10115.402 1791.077)" fill="#222872"/>
    <path id="Path_51413" data-name="Path 51413" d="M178.858,110.148l1.29-1.29-1.381-1.381h0a3.043,3.043,0,0,0-.537-3.559c-1.514-1.515-3.064-.7-4.091-.163-1.109.581-1.445.673-1.957.163h0a1.226,1.226,0,0,1,1.734-1.734l1.29-1.29a3.044,3.044,0,0,0-3.559-.536l-1.538-1.537-1.29,1.29,1.538,1.538a3.046,3.046,0,0,0,.536,3.559c1.517,1.518,3.069.7,4.1.163,1.105-.582,1.441-.673,1.952-.163a1.226,1.226,0,0,1-1.734,1.734l-1.29,1.29a3.01,3.01,0,0,0,3.559.536Z" transform="translate(10214.981 1890.661)" fill="#222872"/>
    <path id="Path_51414" data-name="Path 51414" d="M411.25,227.5h1.825v1.825H411.25Z" transform="translate(9997.836 1775.402)" fill="#009eff"/>
    <path id="Path_51415" data-name="Path 51415" d="M411.25,262.5h1.825v1.825H411.25Z" transform="translate(9997.836 1744.052)" fill="#009eff"/>
    <path id="Path_51416" data-name="Path 51416" d="M262.5,297.5h1.825v1.825H262.5Z" transform="translate(10131.072 1712.702)" fill="#009eff"/>
    <path id="Path_51417" data-name="Path 51417" d="M262.5,332.5h1.825v1.825H262.5Z" transform="translate(10131.072 1681.353)" fill="#009eff"/>
  </g>
</svg>
