<svg xmlns="http://www.w3.org/2000/svg" width="45.09" height="45.09" viewBox="0 0 45.09 45.09">
  <g id="Group_58258" data-name="Group 58258" transform="translate(-427 -128)">
    <g id="Group_58257" data-name="Group 58257" transform="translate(427 128)">
      <path id="Path_47580" data-name="Path 47580" d="M434.486,128a1.193,1.193,0,0,1,.626,1.2c-.024,1.936-.008,3.873-.01,5.809,0,.786-.309,1.094-1.094,1.095-1.936,0-3.873-.014-5.81.01a1.192,1.192,0,0,1-1.2-.626V128Zm-1.165,1.792H428.8v4.526h4.525Z" transform="translate(-427 -128)" fill="#222872"/>
      <path id="Path_47581" data-name="Path 47581" d="M855,135.486a1.2,1.2,0,0,1-1.2.626c-1.937-.025-3.874-.008-5.811-.01-.787,0-1.092-.307-1.093-1.094,0-1.937.015-3.874-.01-5.811a1.184,1.184,0,0,1,.627-1.2H855Zm-1.784-1.163v-4.535h-4.527v4.535Z" transform="translate(-809.906 -128)" fill="#222872"/>
      <path id="Path_47582" data-name="Path 47582" d="M847.51,556a1.186,1.186,0,0,1-.627-1.2c.025-1.937.009-3.874.01-5.811,0-.788.3-1.093,1.093-1.094,1.937,0,3.875.014,5.811-.01a1.2,1.2,0,0,1,1.2.626V556Zm5.693-1.781v-4.525h-4.525v4.525Z" transform="translate(-809.906 -510.908)" fill="#222872"/>
      <path id="Path_47583" data-name="Path 47583" d="M427,548.515a1.19,1.19,0,0,1,1.2-.626c1.936.025,3.873.008,5.81.01.787,0,1.094.307,1.094,1.094,0,1.937-.014,3.874.01,5.81a1.2,1.2,0,0,1-.626,1.2H427Zm1.793,1.164V554.2h4.524v-4.525Z" transform="translate(-427 -510.91)" fill="#222872"/>
      <path id="Path_47584" data-name="Path 47584" d="M524.226,230.072l1.774,1.8c.741-.744,1.487-1.509,2.252-2.256a.879.879,0,0,1,1.526.37.921.921,0,0,1-.32.908q-.967.963-1.93,1.93c-.1.1-.2.21-.292.309l1.416,1.416c.211-.25.409-.523.646-.757a.883.883,0,1,1,1.234,1.25c-.221.232-.46.448-.774.751.429.4.83.758,1.214,1.134s.736.756,1.071,1.1l4.946-4.96-3.219-3.207c-.6-.6-.679-1.092-.245-1.511.418-.4.906-.321,1.481.254q1.868,1.868,3.736,3.736c.594.595.6,1.026.01,1.614q-2.909,2.914-5.822,5.823c-.586.585-1.019.579-1.614-.016q-3.986-3.984-7.969-7.972c-.114-.114-.2-.25-.425-.522a2.792,2.792,0,0,1-.3.494c-1.271,1.282-2.539,2.568-3.834,3.825a2.97,2.97,0,0,1-1.019.643c-2.078.757-4.17,1.478-6.256,2.211-.055.019-.112.036-.166.057a.892.892,0,0,1-1.19-1.167c.791-2.238,1.57-4.48,2.371-6.714a1.863,1.863,0,0,1,.439-.642q1.949-1.973,3.922-3.924a5.426,5.426,0,0,1,.48-.368,4.691,4.691,0,0,1-.484-.356q-3.99-3.981-7.973-7.968c-.616-.616-.618-1.034-.01-1.643q2.895-2.9,5.791-5.791c.608-.607,1.027-.6,1.644.014q3.986,3.985,7.968,7.973a3.248,3.248,0,0,1,.3.423c1.319-1.321,2.55-2.557,3.785-3.791.789-.788,1.563-1.593,2.377-2.355a4,4,0,0,1,4.459-.7,4.051,4.051,0,0,1,2.322,3.879,3.924,3.924,0,0,1-.957,2.408c-.152.178-.318.346-.483.512q-5.743,5.745-11.49,11.487A3.761,3.761,0,0,1,524.226,230.072Zm4.962-13.712L514.76,230.787l3.135,3.143L532.327,219.5Zm-13.575,5.1a3.061,3.061,0,0,1,.278-.377c.649-.658,1.3-1.315,1.963-1.958a.829.829,0,0,1,1.085-.132.806.806,0,0,1,.375.95,1.344,1.344,0,0,1-.35.541c-.724.74-1.462,1.466-2.176,2.178l1.652,1.657,4.826-4.813-7.771-7.772-4.8,4.79,2.3,2.3c.2-.218.407-.481.647-.713a.866.866,0,0,1,1.289-.049.88.88,0,0,1-.053,1.293c-.23.242-.485.461-.7.669Zm18.038-3.242c.535-.53,1.078-1.025,1.57-1.567a2.251,2.251,0,0,0,0-3.012,2.2,2.2,0,0,0-2.981-.376,22.8,22.8,0,0,0-1.826,1.719Zm-19.925,14.259L512.4,236.26l3.776-1.331Z" transform="translate(-501.276 -202.293)" fill="#009eff"/>
      <path id="Path_47585" data-name="Path 47585" d="M729.832,589.676c-.294,0-.588.014-.88,0a.882.882,0,0,1-.855-.888.869.869,0,0,1,.838-.858c.616-.023,1.233-.023,1.849,0a.844.844,0,0,1,.843.886.856.856,0,0,1-.87.863c-.307.014-.616,0-.924,0Z" transform="translate(-701.58 -547.407)" fill="#222872"/>
      <path id="Path_47586" data-name="Path 47586" d="M599.538,169.682c-.294,0-.588.012-.88,0a.855.855,0,0,1-.862-.87.846.846,0,0,1,.851-.879c.6-.021,1.2-.019,1.8,0a.879.879,0,0,1,.874.869.892.892,0,0,1-.907.883C600.125,169.691,599.832,169.682,599.538,169.682Z" transform="translate(-582.754 -164.399)" fill="#222872"/>
      <path id="Path_47587" data-name="Path 47587" d="M599.542,589.681c-.294,0-.588.012-.88,0a.856.856,0,0,1-.866-.867.845.845,0,0,1,.846-.883c.6-.021,1.2-.019,1.8,0a.88.88,0,0,1,.879.865.892.892,0,0,1-.9.887C600.13,589.691,599.836,589.682,599.542,589.681Z" transform="translate(-582.754 -547.411)" fill="#222872"/>
      <path id="Path_47588" data-name="Path 47588" d="M729.852,167.975c.308,0,.617-.014.924,0a.875.875,0,0,1-.01,1.749q-.9.027-1.8,0a.875.875,0,0,1-.863-.878.886.886,0,0,1,.873-.871C729.265,167.962,729.559,167.975,729.852,167.975Z" transform="translate(-701.582 -164.45)" fill="#222872"/>
      <path id="Path_47589" data-name="Path 47589" d="M464.682,304.6c0,.294.015.588,0,.88a.875.875,0,0,1-1.749-.024c-.016-.6-.018-1.2,0-1.805a.874.874,0,0,1,1.746-.019C464.7,303.954,464.681,304.278,464.682,304.6Z" transform="translate(-459.754 -287.413)" fill="#222872"/>
      <path id="Path_47590" data-name="Path 47590" d="M884.68,304.6c0,.294.014.588,0,.88a.875.875,0,0,1-1.749,0q-.027-.9,0-1.805a.846.846,0,0,1,.873-.856.855.855,0,0,1,.876.856C884.694,303.98,884.68,304.289,884.68,304.6Z" transform="translate(-842.763 -287.421)" fill="#222872"/>
      <path id="Path_47591" data-name="Path 47591" d="M464.687,434.9c0,.294.013.588,0,.88a.876.876,0,1,1-1.752-.024c-.014-.587-.015-1.174,0-1.761a.875.875,0,0,1,1.749-.02C464.7,434.281,464.686,434.59,464.687,434.9Z" transform="translate(-459.758 -406.245)" fill="#222872"/>
      <path id="Path_47592" data-name="Path 47592" d="M884.681,434.915c0,.294.014.588,0,.88a.875.875,0,0,1-1.75-.013c-.017-.6-.018-1.2,0-1.8a.875.875,0,0,1,1.75.013C884.694,434.3,884.681,434.606,884.681,434.915Z" transform="translate(-842.764 -406.245)" fill="#222872"/>
      <path id="Path_47593" data-name="Path 47593" d="M882.968,369.71c0-.292-.012-.585,0-.876a.874.874,0,0,1,1.748,0c.021.613.023,1.228,0,1.84a.853.853,0,0,1-.892.835.865.865,0,0,1-.856-.874C882.957,370.324,882.968,370.017,882.968,369.71Z" transform="translate(-842.808 -346.843)" fill="#222872"/>
      <path id="Path_47594" data-name="Path 47594" d="M464.678,369.768c0,.292.014.585,0,.876a.865.865,0,0,1-.873.857.855.855,0,0,1-.875-.853c-.019-.613-.02-1.227,0-1.84a.85.85,0,0,1,.847-.835.862.862,0,0,1,.9.831C464.694,369.125,464.677,369.447,464.678,369.768Z" transform="translate(-459.75 -346.84)" fill="#222872"/>
      <path id="Path_47595" data-name="Path 47595" d="M664.69,169.685c-.278,0-.556.009-.833,0a.869.869,0,0,1-.893-.882.856.856,0,0,1,.859-.869c.6-.02,1.2-.019,1.8,0a.876.876,0,1,1-.01,1.751C665.3,169.7,665,169.685,664.69,169.685Z" transform="translate(-642.184 -164.402)" fill="#222872"/>
      <path id="Path_47596" data-name="Path 47596" d="M664.707,589.689c-.278,0-.555.008-.833,0a.872.872,0,0,1-.911-.865.86.86,0,0,1,.885-.889q.876-.024,1.753,0a.877.877,0,1,1-.018,1.753C665.292,589.7,665,589.689,664.707,589.689Z" transform="translate(-642.183 -547.418)" fill="#222872"/>
      <path id="Path_47597" data-name="Path 47597" d="M464.674,499.645a3.582,3.582,0,0,1,0,.483.875.875,0,0,1-1.737-.027,6.473,6.473,0,0,1-.006-.88.876.876,0,0,1,1.752-.017c.011.146,0,.293,0,.44Z" transform="translate(-459.752 -465.73)" fill="#222872"/>
      <path id="Path_47598" data-name="Path 47598" d="M884.673,499.645a3.567,3.567,0,0,1,0,.483.856.856,0,0,1-.882.755.847.847,0,0,1-.855-.783,6.591,6.591,0,0,1-.006-.88.876.876,0,0,1,1.752-.016c.011.146,0,.293,0,.44Z" transform="translate(-842.763 -465.729)" fill="#222872"/>
      <path id="Path_47599" data-name="Path 47599" d="M464.669,250.1a3.393,3.393,0,0,1,0,.527.873.873,0,0,1-1.731-.043,6.4,6.4,0,0,1-.008-.88.877.877,0,1,1,1.755,0c.008.132,0,.264,0,.4Z" transform="translate(-459.751 -238.188)" fill="#222872"/>
      <path id="Path_47600" data-name="Path 47600" d="M794.569,169.747c-.825,0-1.261-.313-1.249-.9.012-.568.435-.865,1.237-.865.132,0,.264,0,.4,0a.879.879,0,1,1,.012,1.758C794.833,169.752,794.7,169.747,794.569,169.747Z" transform="translate(-761.059 -164.463)" fill="#222872"/>
      <path id="Path_47601" data-name="Path 47601" d="M545.078,589.665a4.275,4.275,0,0,1-.484,0,.855.855,0,0,1-.781-.859.843.843,0,0,1,.756-.878,5.521,5.521,0,0,1,.967,0,.872.872,0,0,1,.814.88.884.884,0,0,1-.833.865c-.146.013-.293,0-.44,0Z" transform="translate(-533.526 -547.399)" fill="#222872"/>
      <path id="Path_47602" data-name="Path 47602" d="M545.049,169.682c-.147,0-.295.012-.44,0a.875.875,0,0,1-.019-1.742,6.1,6.1,0,0,1,.88-.007.877.877,0,1,1-.025,1.754c-.132.006-.264,0-.4,0Z" transform="translate(-533.522 -164.403)" fill="#222872"/>
      <path id="Path_47603" data-name="Path 47603" d="M794.59,589.686a4.139,4.139,0,0,1-.484,0,.874.874,0,0,1,.033-1.742,6.835,6.835,0,0,1,.836-.005.878.878,0,1,1,.011,1.755c-.132.008-.264,0-.4,0Z" transform="translate(-761.059 -547.421)" fill="#222872"/>
      <path id="Path_47604" data-name="Path 47604" d="M882.987,250.061c0-.132-.008-.265,0-.4a.876.876,0,0,1,1.75,0,6.612,6.612,0,0,1,0,.836.876.876,0,0,1-1.753,0C882.979,250.355,882.987,250.207,882.987,250.061Z" transform="translate(-842.827 -238.188)" fill="#222872"/>
      <path id="Path_47605" data-name="Path 47605" d="M762.773,392.9a.88.88,0,0,1,.86.879.908.908,0,0,1-.879.871.881.881,0,0,1-.87-.913A.853.853,0,0,1,762.773,392.9Z" transform="translate(-732.391 -369.566)" fill="#009eff"/>
    </g>
  </g>
</svg>
