<svg xmlns="http://www.w3.org/2000/svg" xmlns:xlink="http://www.w3.org/1999/xlink" width="541.586" height="492.32" viewBox="0 0 541.586 492.32">
  <defs>
    <radialGradient id="radial-gradient" cx="0.5" cy="0.5" r="0.478" gradientTransform="translate(-0.049) scale(1.098 1)" gradientUnits="objectBoundingBox">
      <stop offset="0" stop-color="#ffc8af"/>
      <stop offset="1" stop-color="#ffbb9c"/>
    </radialGradient>
    <radialGradient id="radial-gradient-2" cx="0.506" cy="0.49" r="0.451" gradientTransform="matrix(1.232, -0.21, 0.265, 0.978, -0.05, 0.103)" xlink:href="#radial-gradient"/>
    <radialGradient id="radial-gradient-3" cx="0.5" cy="0.5" r="0.531" gradientTransform="translate(0.054) scale(0.891 1)" xlink:href="#radial-gradient"/>
    <radialGradient id="radial-gradient-4" cx="0.5" cy="0.5" r="0.511" gradientTransform="translate(0.021) scale(0.958 1)" xlink:href="#radial-gradient"/>
    <radialGradient id="radial-gradient-5" cx="1.47" cy="-0.006" r="4.15" gradientTransform="translate(0.306) scale(0.387 1)" xlink:href="#radial-gradient"/>
    <radialGradient id="radial-gradient-6" cx="0.183" cy="0.438" r="1.813" gradientTransform="translate(0.33) scale(0.34 1)" xlink:href="#radial-gradient"/>
    <linearGradient id="linear-gradient" x1="4.388" y1="-4.983" x2="2.9" y2="-4.199" gradientUnits="objectBoundingBox">
      <stop offset="0" stop-color="#606bf1"/>
      <stop offset="1" stop-color="#58479f"/>
    </linearGradient>
    <linearGradient id="linear-gradient-2" x1="10.059" y1="-7.903" x2="8.707" y2="-7.11" xlink:href="#linear-gradient"/>
    <linearGradient id="linear-gradient-3" x1="7.392" y1="-5.221" x2="5.735" y2="-4.449" xlink:href="#linear-gradient"/>
  </defs>
  <g id="Group_70374" data-name="Group 70374" transform="translate(91.775 -139.61)">
    <g id="Group_70368" data-name="Group 70368" transform="translate(-40.822 139.61)">
      <g id="Group_70333" data-name="Group 70333" transform="translate(44.899 27.972)">
        <g id="Group_70296" data-name="Group 70296">
          <rect id="Rectangle_27762" data-name="Rectangle 27762" width="141.072" height="131.672" fill="#112b46"/>
        </g>
        <g id="Group_70297" data-name="Group 70297" style="mix-blend-mode: screen;isolation: isolate">
          <rect id="Rectangle_27763" data-name="Rectangle 27763" width="141.072" height="13.926" fill="#1d262d"/>
        </g>
        <g id="Group_70301" data-name="Group 70301" transform="translate(105.473 4.569)">
          <g id="Group_70298" data-name="Group 70298" transform="translate(0)">
            <path id="Path_50935" data-name="Path 50935" d="M41.754,164.665a2.552,2.552,0,1,1-2.552-2.552A2.552,2.552,0,0,1,41.754,164.665Z" transform="translate(-36.649 -162.113)" fill="#606bf1"/>
          </g>
          <g id="Group_70299" data-name="Group 70299" transform="translate(10.658)">
            <path id="Path_50936" data-name="Path 50936" d="M49.125,164.665a2.553,2.553,0,1,1-2.554-2.552A2.553,2.553,0,0,1,49.125,164.665Z" transform="translate(-44.019 -162.113)" fill="#fbd15b"/>
          </g>
          <g id="Group_70300" data-name="Group 70300" transform="translate(20.555 0.268)">
            <path id="Path_50937" data-name="Path 50937" d="M55.969,164.852a2.553,2.553,0,1,1-2.552-2.554A2.552,2.552,0,0,1,55.969,164.852Z" transform="translate(-50.863 -162.298)" fill="#ff8578"/>
          </g>
        </g>
        <g id="Group_70325" data-name="Group 70325" transform="translate(25.084 26.87)">
          <g id="Group_70311" data-name="Group 70311">
            <g id="Group_70302" data-name="Group 70302">
              <rect id="Rectangle_27764" data-name="Rectangle 27764" width="19.98" height="1.679" fill="#ff8578"/>
            </g>
            <g id="Group_70303" data-name="Group 70303" transform="translate(23.452)">
              <rect id="Rectangle_27765" data-name="Rectangle 27765" width="19.98" height="1.679" fill="#fbd15b"/>
            </g>
            <g id="Group_70304" data-name="Group 70304" transform="translate(6.18 9.046)">
              <rect id="Rectangle_27766" data-name="Rectangle 27766" width="30.984" height="1.679" fill="#606bf1"/>
            </g>
            <g id="Group_70305" data-name="Group 70305" transform="translate(42.287 9.046)">
              <rect id="Rectangle_27767" data-name="Rectangle 27767" width="15.749" height="1.679" transform="translate(0)" fill="#ff8578"/>
            </g>
            <g id="Group_70306" data-name="Group 70306" transform="translate(16.928 18.093)">
              <rect id="Rectangle_27768" data-name="Rectangle 27768" width="13.608" height="1.679" transform="translate(0)" fill="#fbd15b"/>
            </g>
            <g id="Group_70307" data-name="Group 70307" transform="translate(38.401 18.093)">
              <rect id="Rectangle_27769" data-name="Rectangle 27769" width="45.143" height="1.679" transform="translate(0)" fill="#fbd15b"/>
            </g>
            <g id="Group_70308" data-name="Group 70308" transform="translate(27.497 27.139)">
              <rect id="Rectangle_27770" data-name="Rectangle 27770" width="51.592" height="1.679" transform="translate(0)" fill="#606bf1"/>
            </g>
            <g id="Group_70309" data-name="Group 70309" transform="translate(14.598 36.186)">
              <rect id="Rectangle_27771" data-name="Rectangle 27771" width="15.878" height="1.679" fill="#ff8578"/>
            </g>
            <g id="Group_70310" data-name="Group 70310" transform="translate(37.27 36.186)">
              <rect id="Rectangle_27772" data-name="Rectangle 27772" width="15.878" height="1.679" transform="translate(0)" fill="#606bf1"/>
            </g>
          </g>
          <g id="Group_70324" data-name="Group 70324" transform="translate(0 46.934)">
            <g id="Group_70312" data-name="Group 70312" transform="translate(0 36.185)">
              <rect id="Rectangle_27773" data-name="Rectangle 27773" width="23.099" height="1.679" fill="#ff8578"/>
            </g>
            <g id="Group_70313" data-name="Group 70313" transform="translate(31.189 36.185)">
              <rect id="Rectangle_27774" data-name="Rectangle 27774" width="23.099" height="1.679" fill="#fbd15b"/>
            </g>
            <g id="Group_70314" data-name="Group 70314" transform="translate(61.538 36.185)">
              <rect id="Rectangle_27775" data-name="Rectangle 27775" width="23.099" height="1.679" fill="#ff8578"/>
            </g>
            <g id="Group_70315" data-name="Group 70315" transform="translate(6.18 27.139)">
              <rect id="Rectangle_27776" data-name="Rectangle 27776" width="45.143" height="1.679" fill="#606bf1"/>
            </g>
            <g id="Group_70316" data-name="Group 70316" transform="translate(58.361 27.139)">
              <rect id="Rectangle_27777" data-name="Rectangle 27777" width="45.143" height="1.679" fill="#ff8578"/>
            </g>
            <g id="Group_70317" data-name="Group 70317" transform="translate(16.928 18.093)">
              <rect id="Rectangle_27778" data-name="Rectangle 27778" width="44.797" height="1.679" transform="translate(0)" fill="#ff8578"/>
            </g>
            <g id="Group_70318" data-name="Group 70318" transform="translate(65.631 18.093)">
              <rect id="Rectangle_27779" data-name="Rectangle 27779" width="12.468" height="1.679" fill="#fbd15b"/>
            </g>
            <g id="Group_70319" data-name="Group 70319" transform="translate(14.002 9.046)">
              <rect id="Rectangle_27780" data-name="Rectangle 27780" width="16.864" height="1.679" fill="#fbd15b"/>
            </g>
            <g id="Group_70320" data-name="Group 70320" transform="translate(39.823 9.046)">
              <rect id="Rectangle_27781" data-name="Rectangle 27781" width="16.864" height="1.679" transform="translate(0)" fill="#606bf1"/>
            </g>
            <g id="Group_70321" data-name="Group 70321" transform="translate(67.533 9.046)">
              <rect id="Rectangle_27782" data-name="Rectangle 27782" width="16.864" height="1.679" transform="translate(0)" fill="#ff8578"/>
            </g>
            <g id="Group_70322" data-name="Group 70322" transform="translate(33.551)">
              <rect id="Rectangle_27783" data-name="Rectangle 27783" width="23.647" height="1.679" transform="translate(0)" fill="#fbd15b"/>
            </g>
            <g id="Group_70323" data-name="Group 70323" transform="translate(0.983)">
              <rect id="Rectangle_27784" data-name="Rectangle 27784" width="23.647" height="1.679" fill="#606bf1"/>
            </g>
          </g>
        </g>
        <g id="Group_70332" data-name="Group 70332" transform="translate(12.008 25.258)">
          <g id="Group_70327" data-name="Group 70327">
            <g id="Group_70326" data-name="Group 70326">
              <rect id="Rectangle_27785" data-name="Rectangle 27785" width="2.15" height="2.15" fill="#f9fbfc"/>
            </g>
          </g>
          <g id="Group_70329" data-name="Group 70329" transform="translate(0.001 8.725)">
            <g id="Group_70328" data-name="Group 70328">
              <path id="Path_50938" data-name="Path 50938" d="M-25.835,252.6h-2.149v-4.385h2.149Zm0-10.961h-2.149v-4.383h2.149Zm0-10.96h-2.149v-4.385h2.149Zm0-10.96h-2.149v-4.385h2.149Zm0-10.96h-2.149v-4.385h2.149Zm0-10.961h-2.149v-4.385h2.149Zm0-10.96h-2.149v-4.385h2.149Z" transform="translate(27.984 -182.454)" fill="#f9fbfc"/>
            </g>
          </g>
          <g id="Group_70331" data-name="Group 70331" transform="translate(0 85.448)">
            <g id="Group_70330" data-name="Group 70330">
              <rect id="Rectangle_27786" data-name="Rectangle 27786" width="2.15" height="2.15" fill="#f9fbfc"/>
            </g>
          </g>
        </g>
      </g>
      <g id="Group_70336" data-name="Group 70336" transform="translate(216.324)">
        <g id="Group_70334" data-name="Group 70334" transform="translate(0)">
          <rect id="Rectangle_27787" data-name="Rectangle 27787" width="116.164" height="71.603" fill="#ff8578"/>
        </g>
        <g id="Group_70335" data-name="Group 70335" transform="translate(26.733 14.076)">
          <path id="Path_50939" data-name="Path 50939" d="M119.126,160.788l-13.82,5.9,13.82,5.812-1.808,4.176-16.575-7.405v-5.123l16.575-7.447Z" transform="translate(-100.743 -146.063)" fill="#f9fbfc"/>
          <path id="Path_50940" data-name="Path 50940" d="M132.109,150.42l-10.031,38.532-4.779-1.118,10.075-38.49Z" transform="translate(-93.358 -149.344)" fill="#f9fbfc"/>
          <path id="Path_50941" data-name="Path 50941" d="M149.8,164.145v5.123l-16.576,7.405-1.808-4.176,13.777-5.812-13.777-5.9,1.808-4.09Z" transform="translate(-87.061 -146.063)" fill="#f9fbfc"/>
        </g>
      </g>
      <g id="Group_70339" data-name="Group 70339" transform="translate(328.498 138.716)">
        <g id="Group_70337" data-name="Group 70337">
          <rect id="Rectangle_27788" data-name="Rectangle 27788" width="66.164" height="47.136" fill="#606bf1"/>
        </g>
        <g id="Group_70338" data-name="Group 70338" transform="translate(18.522 7.069)">
          <path id="Path_50942" data-name="Path 50942" d="M181.79,243.532c-2.127,0-2.837.574-2.837,2.162v7.094c0,2.769-1.148,3.615-3.074,4.155,1.926.508,3.074,1.352,3.074,4.088v7.094c0,1.588.743,2.162,2.837,2.162v3.108c-5.371,0-6.892-1.722-6.892-5.3v-6.723c0-1.925-.506-2.668-2.262-2.668v-3.547c1.756,0,2.262-.777,2.262-2.7v-6.723c0-3.615,1.521-5.3,6.892-5.3Z" transform="translate(-172.636 -240.424)" fill="#f1f2f2"/>
          <path id="Path_50943" data-name="Path 50943" d="M193.334,245.727v6.723c0,1.926.508,2.7,2.3,2.7V258.7c-1.79,0-2.3.743-2.3,2.668v6.723c0,3.582-1.52,5.3-6.891,5.3v-3.108c2.094,0,2.837-.574,2.837-2.162v-7.094c0-2.736,1.148-3.581,3.074-4.088-1.926-.539-3.074-1.385-3.074-4.155v-7.094c0-1.588-.709-2.162-2.837-2.162v-3.108C191.814,240.424,193.334,242.112,193.334,245.727Z" transform="translate(-166.477 -240.424)" fill="#f1f2f2"/>
        </g>
      </g>
      <g id="Group_70343" data-name="Group 70343" transform="translate(0 10.269)">
        <g id="Group_70340" data-name="Group 70340">
          <rect id="Rectangle_27789" data-name="Rectangle 27789" width="74.227" height="49.647" fill="#fbd15b"/>
        </g>
        <g id="Group_70342" data-name="Group 70342" transform="translate(21.942 9.648)">
          <g id="Group_70341" data-name="Group 70341">
            <path id="Path_50944" data-name="Path 50944" d="M-49.54,157.987a12.245,12.245,0,0,0,.121,15.3,12.2,12.2,0,0,0,16.18,2.412l7.792,7.79a.84.84,0,0,0,1.19,0l2.189-2.188a.844.844,0,0,0,0-1.192l-7.791-7.79a12.2,12.2,0,0,0-1.521-15.372A12.2,12.2,0,0,0-49.54,157.987ZM-33.9,171.652a8.624,8.624,0,0,1-12.183,0,8.624,8.624,0,0,1,0-12.183,8.625,8.625,0,0,1,12.182,0A8.625,8.625,0,0,1-33.9,171.652Z" transform="translate(52.163 -153.384)" fill="#f9fbfc"/>
          </g>
        </g>
      </g>
      <g id="Group_70367" data-name="Group 70367" transform="translate(0.218 87.451)">
        <g id="Group_70347" data-name="Group 70347" transform="translate(222.364)">
          <path id="Path_50945" data-name="Path 50945" d="M144.285,259.029c-.162,1.641-2.4,18.761-20.008,18.761-18.484,0-15.388-18.3-15.388-18.3l-.023-.116a18.468,18.468,0,0,1,5.8-.278v-8.663l20.98-11.736h.762v20.216A38.168,38.168,0,0,1,144.285,259.029Z" transform="translate(-76.721 -182.859)" fill="url(#radial-gradient)"/>
          <g id="Group_70346" data-name="Group 70346">
            <g id="Group_70345" data-name="Group 70345" transform="translate(12.716 9.551)">
              <g id="Group_70344" data-name="Group 70344">
                <path id="Path_50946" data-name="Path 50946" d="M140.036,214.3a23.983,23.983,0,0,1,6.3,11.692c2.017,8.888.12,18.292-2.458,26.857a13.512,13.512,0,0,1-1.847,4.176,14.733,14.733,0,0,1-2.3,2.321q-5.6,4.876-11.185,9.76c-2.525,2.21-18.06,4.05-21.026,1.931C96.1,262.865,93.9,239.2,96.187,227.095,99.981,207.019,125.782,199.842,140.036,214.3Z" transform="translate(-95.378 -206.689)" fill="url(#radial-gradient-2)"/>
              </g>
            </g>
            <path id="Path_50947" data-name="Path 50947" d="M121.841,230.7c.152-1.932,2.139-4.048,4.133-2.794,2.064,1.3,1.578,4.729.723,6.617-.671,1.482-2.915,3.1-4.435,1.725-1.274-1.154.706-2.515.771-3.569.058-.949-1.839-1.628-1.063-2.643" transform="translate(-70.883 -187.843)" fill="#f7b094"/>
            <path id="Path_50948" data-name="Path 50948" d="M122.1,239.005c2.082.625,5.611-.965,6.5-3.864a22.219,22.219,0,0,0,.8-6.212,14.871,14.871,0,0,1,.51,6.85c-.539,4.225-2.02,8.25-5.336,8.3S122.1,239.005,122.1,239.005Z" transform="translate(-70.782 -187.217)" fill="#f7b094"/>
            <path id="Path_50949" data-name="Path 50949" d="M135.353,248.865a.743.743,0,0,1-.234.071c-1.29.181-1.8-1.38-2-2.357a43.27,43.27,0,0,1-.456-6.895,5.234,5.234,0,0,0-.21-1.842c-.724-1.659-2.655-2.736-3.244-4.45-.685-1.993,1.248-3.981.482-6.163-1.176-3.34-5.468-4.11-8.571-4.074a97.258,97.258,0,0,0-13.793,1.633c-4.852.752-11.052,1.466-15.327-1.6-5.152-3.7-7.3-13.336-3.459-18.613,2.1-2.876,6.071-4.408,9.553-4.487,3.692-.085,6.811,2.116,10.2,3.223,2.7.881,5.306-1.7,7.828-2.2,3.168-.633,4.515,2.826,7.317,2.921,2.723.093,5.4-2.035,8.043-2.519,5.28-.963,4.969,4.34,8.51,6.15,2.2,1.125,5.045.444,7.272,1.588,1.692.869,1.929,2.4,2.3,4.126a40.021,40.021,0,0,0,.829,4.643c.443,1.28,1.517,2.085,2.354,3.086a11.335,11.335,0,0,1,1.961,3.732,23.272,23.272,0,0,1,.975,9.481c-.47,5.332-2.185,10.58-3.967,15.6-1.155,3.258-1.585,6.65-3.361,9.734-.477.829-2.6,3.248-3.387,1.446a2.646,2.646,0,0,1-.113-1.247c.234-3.359,3.361-25-4.836-22.4a5.81,5.81,0,0,0-3.517,3.611,14.074,14.074,0,0,0-.724,5.988c.014.3.022.59.012.886A1.012,1.012,0,0,1,135.353,248.865Z" transform="translate(-86.584 -200.084)" fill="#3d3d7a"/>
          </g>
        </g>
        <path id="Path_50950" data-name="Path 50950" d="M113,254.168c9.321-1.5,15.472-8.862,15.472-8.862s-2.513,12.41-16.031,13.067Z" transform="translate(147.312 -179.912)" fill="#f7b094"/>
        <g id="Group_70349" data-name="Group 70349" transform="translate(213.041 243.407)">
          <path id="Rectangle_27790" data-name="Rectangle 27790" d="M1.626,0H11.717a1.626,1.626,0,0,1,1.626,1.626v128.74a0,0,0,0,1,0,0H0a0,0,0,0,1,0,0V1.626A1.626,1.626,0,0,1,1.626,0Z" transform="translate(75.91 130.366) rotate(180)" fill="#0a2033"/>
          <path id="Rectangle_27791" data-name="Rectangle 27791" d="M6.314,0H67.063a6.314,6.314,0,0,1,6.314,6.314v4.82a0,0,0,0,1,0,0H0a0,0,0,0,1,0,0V6.314A6.314,6.314,0,0,1,6.314,0Z" transform="translate(105.927 12.964) rotate(180)" fill="#30475e"/>
          <g id="Group_70348" data-name="Group 70348" transform="translate(0 105.245)">
            <path id="Rectangle_27792" data-name="Rectangle 27792" d="M1.626,0H11.717a1.626,1.626,0,0,1,1.626,1.626v30.39a0,0,0,0,1,0,0H0a0,0,0,0,1,0,0V1.626A1.626,1.626,0,0,1,1.626,0Z" transform="translate(75.91 41.959) rotate(180)" fill="#0a2033"/>
            <path id="Path_50951" data-name="Path 50951" d="M80.138,467.21a7.809,7.809,0,1,0,7.809-7.809A7.809,7.809,0,0,0,80.138,467.21Z" transform="translate(-80.137 -433.06)" fill="#0a2033"/>
            <path id="Path_50952" data-name="Path 50952" d="M165.1,467.21a7.809,7.809,0,1,0,7.809-7.809A7.809,7.809,0,0,0,165.1,467.21Z" transform="translate(-42.239 -433.06)" fill="#0a2033"/>
            <rect id="Rectangle_27793" data-name="Rectangle 27793" width="26.842" height="23.456" transform="translate(82.659 23.456) rotate(180)" fill="#30475e"/>
            <path id="Rectangle_27794" data-name="Rectangle 27794" d="M0,0H138.477a0,0,0,0,1,0,0V5.286a5.751,5.751,0,0,1-5.751,5.751H5.751A5.751,5.751,0,0,1,0,5.287V0A0,0,0,0,1,0,0Z" transform="translate(138.477 28.975) rotate(180)" fill="#fbd15b"/>
          </g>
          <rect id="Rectangle_27795" data-name="Rectangle 27795" width="4.628" height="87.558" transform="translate(64.61 15.595)" fill="#30475e"/>
        </g>
        <path id="Path_50953" data-name="Path 50953" d="M193.384,304.239a5.445,5.445,0,0,0-5.621,5.748c.917,15.891-2.451,54.661-17.255,67.889-18.1,16.173-69.4,13.971-69.4,13.971s-8.471,10.4,8.471,12.708,64.692.769,76.245-10.013c11.183-10.436,17.82-37.78,12.818-85.374a5.48,5.48,0,0,0-5.262-4.93Z" transform="translate(141.316 -153.624)" fill="#fbd15b"/>
        <g id="Group_70351" data-name="Group 70351" transform="translate(131.989 90.679)">
          <g id="Group_70350" data-name="Group 70350">
            <path id="Path_50954" data-name="Path 50954" d="M103.578,439.738l6.1,13.909-18.691,8.2-6.123-13.955Z" transform="translate(3.023 -183.858)" fill="url(#radial-gradient-3)"/>
            <path id="Path_50955" data-name="Path 50955" d="M205.333,332.835c-1.155,2.311-84.2.046-92.048.762,0,0-50.83,24.259-58.131,46.972a24.817,24.817,0,0,0-.716,8.918c2.033,31.976,38.446,108.544,38.446,108.544l5.591-2.45,18.715-8.156,2.656-1.154s-28.88-86.064-23.1-90.685,71.231-16.173,93.942-22.319C213.42,367.1,205.333,332.835,205.333,332.835Z" transform="translate(-10.589 -231.545)" fill="#56548c"/>
            <path id="Path_50956" data-name="Path 50956" d="M54.821,442.227l1.46,20.9H35.88l-1.46-20.942Z" transform="translate(-19.479 -182.768)" fill="url(#radial-gradient-4)"/>
            <path id="Path_50957" data-name="Path 50957" d="M126.368,332.867l-.739.324S40.536,345.136,26.674,369C17.662,384.528,35.1,497.978,35.1,497.978l30.106.068s-4.5-94.5-3-99.771c1.688-6.007,4.575-8.178,5.731-8.8a24.817,24.817,0,0,1,.716-8.918c7.3-22.712,58.131-46.972,58.131-46.972A1.455,1.455,0,0,1,126.368,332.867Z" transform="translate(-24.088 -231.531)" fill="#3d3d7a"/>
            <path id="Path_50958" data-name="Path 50958" d="M177.389,278.5l-5.706.785a279.33,279.33,0,0,1-4.782,30.776L95.808,337.043l-.97,5.152c-.3-.023-.6-.046-.878-.069.023,1.063.023,2.1.069,3.073.161,5.938.554,10.212,1.177,11.922a1.456,1.456,0,0,0,.416.716c1.932,1.575,27.075-1.476,54.258,8.5,23.576,8.656,36.788,18.112,37.4,16.841C194.69,367.78,181.2,307.33,177.389,278.5Z" transform="translate(7.081 -255.785)" fill="#ff8578"/>
            <path id="Path_50959" data-name="Path 50959" d="M169.973,313.512c-1.9,9.1-6.794,27.217-16.4,29.643-12.546,3.187-36.806,3.027-59.54,1.8-.046-.97-.046-2.01-.069-3.073.276.023.577.046.878.069l.97-5.152L166.9,309.816a279.33,279.33,0,0,0,4.782-30.776,2,2,0,0,0,.023.255C171.845,281.673,172.815,300.065,169.973,313.512Z" transform="translate(7.081 -255.543)" fill="#f4675d"/>
            <path id="Path_50960" data-name="Path 50960" d="M102.991,262.791c-1.271,2.311-3.1,27.032-4.09,51.569L84.368,300.8C90.537,288.852,102.991,262.791,102.991,262.791Z" transform="translate(2.802 -262.791)" fill="#f4675d"/>
            <path id="Path_50961" data-name="Path 50961" d="M109.111,325.249c-12.269,2.124-23.544,3.951-23.544,3.951l-.022.6C71.89,318.895,51.12,288,51.12,288s6.214-7.462,7.763-9.426c.231-.3,34.1,23.012,35.834,22.8.44-.046,2.172-3.1,4.483-7.624l14.533,13.561c-.231,5.845-.416,11.668-.532,17.19C111.838,324.763,110.474,324.994,109.111,325.249Z" transform="translate(-12.03 -255.75)" fill="#f7b094"/>
            <path id="Path_50962" data-name="Path 50962" d="M86.437,314.916l-.3,10.12H49.17S52.844,310.6,62.849,310.6s13.862,5.291,13.862,5.291Z" transform="translate(-12.899 -241.466)" fill="url(#radial-gradient-5)"/>
            <path id="Path_50963" data-name="Path 50963" d="M65.857,281.627l.278.231c-1.549,1.964-7.763,9.426-7.763,9.426l-3.86-2.726a9.6,9.6,0,0,1-9.2-.116c-5.152-2.8-1.962-9.47-1.7-10.261-1,.281-7.173,5.271-8.143,4.739s-1.686-2.286,5.222-9.1c6.885-6.817,16.266,1.941,16.543,1.941Z" transform="translate(-19.282 -259.031)" fill="#f7b094"/>
            <path id="Path_50964" data-name="Path 50964" d="M42.777,283.477s-1.489,2.789,1.158,4a26.361,26.361,0,0,0,10.013,1.874c2.214-.213,3.972-3.31,3.972-3.31l-6.7-6.289H45.86Z" transform="translate(-15.938 -255.225)" fill="#f7b094"/>
            <path id="Path_50965" data-name="Path 50965" d="M42.827,284.885c.4-1.369,4.2-.639,6.561-.583,1.738.042,2.69-.414,3.228-1.738s-1.985-3.433-2.483-2.772.911,1.594.952,2.473-2.481,1.168-4.426,1.168a47.206,47.206,0,0,0-5.3.508Z" transform="translate(-16.384 -255.263)" fill="#e8987c"/>
          </g>
        </g>
        <path id="Path_50966" data-name="Path 50966" d="M171.865,313.353l-36.2-12.824c-2.635,4.921-5.453,8.619-8.248,9.358-4.228,1.109-14.441,3.027-24.745,4.828-1.362.255-2.726.486-4.09.739-12.269,2.126-23.544,3.952-23.544,3.952l-.023.6v.393l-.276,9.126v2.315a255.848,255.848,0,0,1,27.794.457c21.7,1.547,49.674,2.471,58.939-1.894,4.344-2.056,7.809-8.8,10.536-17.12Z" transform="translate(130.493 -155.278)" fill="url(#radial-gradient-6)"/>
        <path id="Path_50967" data-name="Path 50967" d="M117.257,300.529l36.2,12.823-1.639,4.838-35.833-15.371Z" transform="translate(148.897 -155.278)" fill="#f7b094"/>
        <path id="Path_50968" data-name="Path 50968" d="M127.044,321.839c-2.635,4.921-5.453,8.619-8.248,9.358-4.228,1.109-14.441,3.027-24.745,4.828.116-5.521.3-11.345.532-17.19.993-24.537,2.818-49.258,4.09-51.569,2.079-3.858,7.763-12.245,16.727-14.163l.023.116s-3.1,18.3,15.388,18.3c17.606,0,19.846-17.12,20.008-18.761,9.057,1.017,22.942,5.546,24.861,23.752.392,3.6.947,8.225,1.663,13.47l-5.706.785s-2.311,25.646-8.248,43.829l-.139.069Z" transform="translate(139.11 -176.588)" fill="#ff8578"/>
        <path id="Path_50969" data-name="Path 50969" d="M116.607,309.018l14.457-35-10.65,36.409Z" transform="translate(149.172 -167.102)" fill="#6d4b35" style="mix-blend-mode: screen;isolation: isolate"/>
        <path id="Path_50970" data-name="Path 50970" d="M149.731,252.757h-7.878s-11.211,12.312-18.419,12.312-3.323-12.243-3.323-12.243H116.6a19.877,19.877,0,0,0-19.743,17.622c-.132,1.15-.252,2.24-.353,3.226-.772,7.447,29.4,12.867,29.4,12.867l15.535-.869,9.433-18.406,1.878-7.536Z" transform="translate(140.196 -176.588)" fill="#ff8578"/>
        <g id="Group_70355" data-name="Group 70355" transform="translate(194.833 359.236)">
          <g id="Group_70354" data-name="Group 70354">
            <g id="Group_70353" data-name="Group 70353">
              <g id="Group_70352" data-name="Group 70352">
                <path id="Path_50971" data-name="Path 50971" d="M67.572,469.431c.7,3.764,3.31,6.439,7.074,5.738l50.181-9.359a2.339,2.339,0,0,0,1.87-2.727l-.83-4.452S73.09,467.865,67.546,469.4Z" transform="translate(-67.546 -443.987)" fill="#f1f2f2"/>
                <path id="Path_50972" data-name="Path 50972" d="M82.5,461.313c.523-.454,1.028-.905,1.552-1.359,1.006-.9,2-1.777,2.95-2.626.5-.451,1.006-.9,1.474-1.325.915-.821,1.779-1.591,2.552-2.28.557-.5,1.077-.976,1.543-1.4l2.049-1.837a1.135,1.135,0,0,1,1.494-.032c2.064,1.735,8.73,5.7,20.806-1.773a1.159,1.159,0,0,1,1.644.43l7.3,14.034S73.09,472.382,67.546,473.92C69.368,472.782,76.105,466.953,82.5,461.313Z" transform="translate(-67.546 -448.504)" fill="#3d3d7a"/>
              </g>
            </g>
          </g>
        </g>
        <g id="Group_70359" data-name="Group 70359" transform="translate(115.807 365.151)">
          <g id="Group_70358" data-name="Group 70358" transform="translate(0)">
            <g id="Group_70357" data-name="Group 70357">
              <g id="Group_70356" data-name="Group 70356">
                <path id="Path_50973" data-name="Path 50973" d="M12.918,466.182c.094,3.829,2.243,6.886,6.071,6.792l51.031-1.245a2.338,2.338,0,0,0,2.28-2.395l-.11-4.528s-53.573.71-59.292,1.345Z" transform="translate(-12.898 -447.147)" fill="#f1f2f2"/>
                <path id="Path_50974" data-name="Path 50974" d="M29.67,461.536c.59-.366,1.158-.73,1.748-1.095,1.137-.729,2.254-1.437,3.33-2.124.568-.364,1.138-.729,1.666-1.072,1.035-.665,2.01-1.287,2.883-1.844.629-.408,1.219-.794,1.747-1.137l2.315-1.487a1.136,1.136,0,0,1,1.479.208c1.76,2.04,7.711,7.018,20.824,1.565a1.157,1.157,0,0,1,1.553.684l4.975,15.019s-53.573.71-59.292,1.345C14.879,470.766,22.458,466.086,29.67,461.536Z" transform="translate(-12.898 -452.595)" fill="#3d3d7a"/>
              </g>
            </g>
          </g>
        </g>
        <g id="Group_70361" data-name="Group 70361" transform="translate(52.274 103.878)">
          <path id="Path_50975" data-name="Path 50975" d="M-3.784,344.6l-27.253-72.686H46.551L73.8,344.6Z" transform="translate(31.037 -271.918)" fill="#abb5ba"/>
          <path id="Path_50976" data-name="Path 50976" d="M54.667,344.6h-4.8L22.617,271.918l4.356.194L52.18,337.9Z" transform="translate(54.971 -271.918)" fill="#8495a0"/>
          <path id="Path_50977" data-name="Path 50977" d="M-28.151,316.75H69.535" transform="translate(32.325 -251.919)" fill="none"/>
          <g id="Group_70360" data-name="Group 70360" transform="translate(107.084 68.103)">
            <path id="Path_50978" data-name="Path 50978" d="M44.062,323.6H95.33l-.139-4.583H43.014" transform="translate(-43.014 -319.013)" fill="#8495a0"/>
          </g>
        </g>
        <g id="Group_70366" data-name="Group 70366" transform="translate(0 176.563)">
          <g id="Group_70362" data-name="Group 70362" transform="translate(366.483 13.862)">
            <rect id="Rectangle_27796" data-name="Rectangle 27796" width="12.344" height="202.79" transform="translate(0)" fill="#8495a0"/>
          </g>
          <g id="Group_70363" data-name="Group 70363" transform="translate(299.481 13.862)">
            <rect id="Rectangle_27797" data-name="Rectangle 27797" width="12.344" height="202.79" transform="translate(0)" fill="#abb5ba"/>
          </g>
          <g id="Group_70364" data-name="Group 70364" transform="translate(84.826 13.862)">
            <rect id="Rectangle_27798" data-name="Rectangle 27798" width="12.343" height="202.79" fill="#8495a0"/>
          </g>
          <g id="Group_70365" data-name="Group 70365" transform="translate(17.824 13.862)">
            <rect id="Rectangle_27799" data-name="Rectangle 27799" width="12.343" height="202.79" fill="#abb5ba"/>
          </g>
          <rect id="Rectangle_27800" data-name="Rectangle 27800" width="397.179" height="14.633" rx="4.149" fill="#141b56"/>
        </g>
        <path id="Path_50979" data-name="Path 50979" d="M-22.078,277.2l1.327,3.539H-5.3L-6.622,277.2Z" transform="translate(87.307 -165.684)" fill="#8495a0"/>
        <path id="Path_50980" data-name="Path 50980" d="M84.71,289.074,83.6,291.217l15.642,16.165v-4.746Z" transform="translate(134.449 -160.388)" fill="#e8987c"/>
      </g>
    </g>
    <g id="Group_70373" data-name="Group 70373" transform="translate(-126.775 433.557)">
      <rect id="Rectangle_27801" data-name="Rectangle 27801" width="541.586" height="14.261" transform="translate(35 184.112)" fill="#a5b7c6"/>
      <g id="Group_70372" data-name="Group 70372" transform="translate(438.984)">
        <g id="Group_70369" data-name="Group 70369" transform="translate(54.004 22.743)">
          <path id="Path_50981" data-name="Path 50981" d="M246.711,414.2c-2.48,12.04-1.732,32.546-17.66,35.793-4.289.875-8.432-2.1-10.925-5.5-3.262-4.458-4.043-13.9-3.985-19.292.045-4.278,1.5-9.048,1.972-13.363.508-4.661.92-9.332,1.463-13.989,1.959-16.786,10.728-30.855,25.561-39.235,1.148,5.51,3.766,10.175,6.074,15.464a54.975,54.975,0,0,1,2.685,7.485c1.213,4.476-.254,9-1.343,13.287C248.944,401.182,248.033,407.788,246.711,414.2Z" transform="translate(-214.138 -358.608)" fill="url(#linear-gradient)"/>
          <path id="Path_50982" data-name="Path 50982" d="M225.469,448.546q.169-1.514.37-3.028c1.9-.006,3.886-1.087,5.482-1.915a29.156,29.156,0,0,0,7.194-5.7c.116-.117-.081-.307-.205-.2a32.4,32.4,0,0,1-7,4.794,19.756,19.756,0,0,1-5.322,1.981c.166-1.2.353-2.408.551-3.608,1.983-.243,3.8-1.544,5.475-2.539a62.854,62.854,0,0,0,7.846-5.991.029.029,0,0,0-.035-.046c-3.89,2.824-8.222,6.846-13.142,7.725.26-1.5.537-3,.852-4.494.017-.077.035-.155.051-.233,5.693-1.44,9.546-5.9,13.9-9.515.071-.058,0-.179-.08-.12-4.293,3.333-8.327,7.138-13.634,8.756.46-2.132.938-4.257,1.42-6.38a30.363,30.363,0,0,0,12.866-9.123c.061-.069-.038-.169-.1-.1-3.728,3.88-7.831,6.107-12.556,8.314.476-2.1.949-4.2,1.4-6.311,2.228-1.1,4.573-1.763,6.632-3.2a18.124,18.124,0,0,0,5.158-5.232.1.1,0,0,0-.171-.11c-2.882,4.145-7.228,5.433-11.427,7.614q.614-2.948,1.132-5.916c4.68-2.577,9.765-4.966,12.418-9.9.026-.049-.043-.1-.072-.049-2.81,4.538-7.721,6.491-12.179,8.963.058-.354.123-.7.178-1.058.286-1.838.555-3.677.818-5.517a44.972,44.972,0,0,0,7.673-4.173c1.717-1.119,3.552-2.228,4.677-3.984a.1.1,0,0,0-.168-.116c-2.51,3.6-8.007,5.674-12.068,7.475q.4-2.789.79-5.576c4.506-2.727,9.806-4.234,12.578-9.148a.13.13,0,0,0-.221-.137c-2.872,4.487-7.927,5.871-12.232,8.418q.247-1.727.508-3.453c4.865-1.787,10.522-5.861,13.087-10.259a.218.218,0,0,0-.367-.236,27.278,27.278,0,0,1-12.577,9.58c.288-1.863.587-3.725.92-5.582a.56.56,0,0,0,.072-.165c2.184-.643,4.344-2.184,6.228-3.346a17.029,17.029,0,0,0,5.858-5.338c.156-.256-.257-.49-.4-.228-2.16,3.857-7.29,6.441-11.535,7.914.126-.678.247-1.356.382-2.032q.3-1.518.613-3.034c1.738-1.2,3.946-1.776,5.69-3.043a32.121,32.121,0,0,0,4.143-3.776c.129-.133-.062-.34-.2-.211a27.355,27.355,0,0,1-5.716,4.392c-1.2.642-2.567,1.008-3.727,1.711.34-1.653.677-3.306,1-4.96.02,0,.04-.01.062-.013l.062.012A.306.306,0,0,0,238.7,377c2.364-.6,4.172-2.632,5.761-4.366a.044.044,0,0,0-.061-.062c-1.669,1.542-3.562,3.248-5.794,3.909-.009,0-.013-.007-.023-.009l-.169-.027c.259-1.346.5-2.7.729-4.048a.31.31,0,0,0,.281-.347,24.873,24.873,0,0,0,3.459-2.963.087.087,0,0,0-.117-.129,20.122,20.122,0,0,1-3.458,2.44,83.487,83.487,0,0,0,.94-8.439c.014-.262-.383-.265-.406-.007-.247,2.732-.643,5.436-1.113,8.127a25.13,25.13,0,0,1-3.552-5.431c-.042-.1-.2-.059-.168.049a15.635,15.635,0,0,0,1.728,3.362,20.673,20.673,0,0,0,1.831,2.951q-.393,2.169-.843,4.325a7.976,7.976,0,0,1-4.348-1.7A7.9,7.9,0,0,1,230.7,369.2c-.02-.26-.431-.259-.406,0a8.988,8.988,0,0,0,2.312,5.293,8.467,8.467,0,0,0,4.989,2.434q-.521,2.492-1.07,4.98a38.674,38.674,0,0,1-4.075-3.027c-2.094-1.669-3.33-3.677-5.149-5.557-.181-.188-.479.084-.3.275,1.7,1.812,2.856,3.773,4.794,5.4a27.543,27.543,0,0,0,4.6,3.505l-.058.263c-.017.017-.038.03-.055.048a.266.266,0,0,0-.036.37c-.35,1.589-.7,3.178-1.035,4.771-.02.1-.038.2-.059.3-3.7-1.695-9.24-4.642-9.731-8.94a.289.289,0,1,0-.562.123c1.1,4.865,6.441,7.019,10.124,9.671q-.544,2.7-1,5.416a21.911,21.911,0,0,1-6.677-3.439c-1.826-1.453-4.411-3.206-5.233-5.456-.026-.071-.132-.025-.107.045.762,2.238,3.08,3.776,4.768,5.3a17.845,17.845,0,0,0,7.084,4.357.505.505,0,0,0-.007.242q-.282,1.722-.547,3.446c-4.5-.346-10.794-3.761-13.093-7.165-.01-.014-.032,0-.023.017,1.568,2.6,3.939,4.116,6.611,5.431,2,.983,4.153,2.147,6.412,2.315-.322,2.13-.635,4.26-.953,6.39-1.951-.727-4.019-1.076-5.951-1.85a14.741,14.741,0,0,1-6.755-5.751c-.1-.153-.357-.025-.257.135,3.115,4.951,7.6,6.4,12.844,8.259q-.393,2.622-.823,5.236c-4.3-.823-9.852-3.445-12.026-7.175-.159-.275-.6-.046-.437.23,1.374,2.39,3.74,3.9,6.152,5.122,1.738.878,4.133,2.333,6.2,2.487-.01.058-.019.116-.027.172-.425,2.509-.921,5-1.456,7.492-4.8-1.2-7.9-4.76-11.389-8.088-.242-.231-.62.121-.38.359,3.553,3.5,6.675,7.167,11.612,8.46q-.666,3.037-1.4,6.058a22.184,22.184,0,0,1-10.778-7.375c-.187-.237-.516.084-.338.318a23.851,23.851,0,0,0,10.927,7.838q-.8,3.243-1.634,6.474c-4.2-.641-7.433-3.268-10.018-6.591-.061-.077-.2.025-.139.1,2.3,3.2,5.773,6.888,9.955,7.275l-.534,2.064c-.107.415-.218.836-.333,1.26a23.872,23.872,0,0,1-8.718-4.2c-.074-.061-.156.054-.088.116a22.744,22.744,0,0,0,8.635,4.72c-.353,1.294-.726,2.625-1.093,3.98a17.591,17.591,0,0,0-2.4-1.022c-1.576-.473-2.6-1.471-3.967-2.295-.126-.075-.268.1-.14.185,1.2.784,2.049,1.8,3.423,2.312,1.017.383,1.974.872,2.957,1.307-1.443,5.379-2.72,11.1-2.027,16.261.153,1.145,2.075,1.448,2.372.23C225.089,456.37,225.042,452.371,225.469,448.546Z" transform="translate(-213.251 -356.755)" fill="#747ded"/>
        </g>
        <g id="Group_70370" data-name="Group 70370" transform="translate(0 25.999)">
          <path id="Path_50983" data-name="Path 50983" d="M212.968,409.748c2.831,11.962,12.164,30.236-.9,39.9-3.518,2.6-8.529,1.656-12.227-.38-4.84-2.664-9.531-10.89-11.757-15.807-1.764-3.9-2.455-8.837-3.851-12.947-1.507-4.441-3.1-8.849-4.577-13.3-5.309-16.044-3.3-32.5,6.613-46.356,3.366,4.51,7.708,7.632,12.033,11.456a55.018,55.018,0,0,1,5.593,5.651c2.989,3.546,3.567,8.266,4.389,12.611C209.5,397,211.46,403.378,212.968,409.748Z" transform="translate(-176.793 -360.86)" fill="url(#linear-gradient-2)"/>
          <path id="Path_50984" data-name="Path 50984" d="M208.98,449.2q-.486-1.445-.943-2.9c1.724-.807,3.063-2.625,4.162-4.049a29.135,29.135,0,0,0,4.117-8.2c.056-.155-.2-.244-.27-.1a32.4,32.4,0,0,1-4.327,7.3,19.775,19.775,0,0,1-3.988,4.042q-.536-1.744-1.022-3.5c1.693-1.056,2.789-3,3.891-4.613a62.837,62.837,0,0,0,4.584-8.742.029.029,0,0,0-.051-.027c-2.334,4.2-4.565,9.676-8.653,12.549-.4-1.472-.781-2.949-1.125-4.434l-.052-.231c4.554-3.709,6.16-9.382,8.59-14.5.039-.082-.081-.161-.124-.075-2.484,4.833-4.535,9.985-8.663,13.692-.483-2.126-.946-4.254-1.406-6.383a30.385,30.385,0,0,0,7.813-13.7.072.072,0,0,0-.136-.049c-1.741,5.09-4.522,8.841-7.874,12.837-.456-2.107-.914-4.211-1.4-6.311,1.557-1.933,3.4-3.529,4.659-5.7a18.139,18.139,0,0,0,2.47-6.919.1.1,0,0,0-.2-.028c-.863,4.973-4.259,7.977-7.147,11.725-.458-1.954-.944-3.9-1.471-5.841,3.155-4.312,6.758-8.623,7.077-14.221,0-.055-.08-.069-.085-.013-.632,5.3-4.26,9.144-7.258,13.265-.1-.344-.187-.69-.286-1.034-.515-1.787-1.048-3.568-1.586-5.348a44.911,44.911,0,0,0,5.194-7.021c1.085-1.74,2.28-3.52,2.56-5.586a.1.1,0,0,0-.2-.035c-.758,4.319-4.865,8.525-7.786,11.87q-.818-2.694-1.637-5.388c2.934-4.373,7.1-7.977,7.541-13.6a.13.13,0,0,0-.259-.03c-.71,5.28-4.708,8.668-7.537,12.793q-.5-1.67-1-3.343c3.654-3.674,7.064-9.755,7.534-14.825a.218.218,0,0,0-.431-.058,27.307,27.307,0,0,1-7.359,13.994c-.526-1.81-1.04-3.625-1.523-5.449a.543.543,0,0,0,0-.181c1.709-1.5,3.017-3.812,4.236-5.663a17.031,17.031,0,0,0,3.057-7.311.232.232,0,0,0-.463-.036c-.333,4.409-3.89,8.917-7.118,12.044-.174-.668-.349-1.333-.512-2q-.369-1.5-.724-3.008c1.07-1.822,2.829-3.275,3.876-5.161a32.321,32.321,0,0,0,2.162-5.17.146.146,0,0,0-.27-.107,27.353,27.353,0,0,1-3.329,6.393c-.816,1.087-1.9,2-2.656,3.123q-.583-2.462-1.186-4.918c.017-.013.033-.028.051-.039l.061-.014a.312.312,0,0,0,.223-.2c1.89-1.539,2.671-4.147,3.38-6.389a.044.044,0,0,0-.082-.03c-.86,2.1-1.857,4.445-3.6,5.988a.145.145,0,0,0-.025,0l-.165.048q-.5-2-1.047-3.978a.311.311,0,0,0,.107-.434,24.83,24.83,0,0,0,1.886-4.146.087.087,0,0,0-.161-.067,20.252,20.252,0,0,1-2.106,3.672,83.221,83.221,0,0,0-2.709-8.047c-.1-.244-.46-.08-.372.165.927,2.58,1.709,5.2,2.419,7.836a25.111,25.111,0,0,1-5.511-3.424c-.081-.074-.21.03-.132.116a15.607,15.607,0,0,0,2.985,2.318,20.628,20.628,0,0,0,2.907,1.9q.557,2.132,1.06,4.278a7.42,7.42,0,0,1-9.375-3.507c-.127-.229-.5-.054-.369.172a8.992,8.992,0,0,0,4.33,3.822,8.465,8.465,0,0,0,5.552.1q.579,2.479,1.131,4.967a38.709,38.709,0,0,1-4.972-1.024c-2.6-.629-4.571-1.928-7.012-2.865a.2.2,0,0,0-.156.376c2.309.923,4.181,2.214,6.625,2.872a27.639,27.639,0,0,0,5.648,1.238l.059.262c-.01.023-.022.043-.03.067a.266.266,0,0,0,.123.351c.353,1.588.707,3.177,1.076,4.762.023.1.049.2.072.3-4.074.026-10.337-.309-12.594-4-.215-.35-.722.01-.458.35,3.045,3.946,8.8,3.644,13.259,4.495q.646,2.677,1.378,5.333a21.94,21.94,0,0,1-7.505-.3c-2.269-.545-5.352-1.044-7.047-2.737-.054-.054-.13.033-.078.087,1.636,1.706,4.386,2.123,6.559,2.794a17.825,17.825,0,0,0,8.261.96.485.485,0,0,0,.1.221q.469,1.681.959,3.356c-4.225,1.585-11.373,1.145-14.895-.97-.016-.01-.029.016-.013.026,2.518,1.692,5.307,2.066,8.286,2.133,2.226.049,4.672.194,6.791-.607.6,2.066,1.222,4.13,1.832,6.2-2.077.165-4.1.722-6.176.834a14.728,14.728,0,0,1-8.551-2.363c-.158-.1-.334.129-.176.231,4.915,3.174,9.589,2.6,15.13,2.066q.751,2.542,1.463,5.094c-4.241,1.067-10.386,1.034-13.93-1.43-.26-.182-.56.208-.3.392,2.254,1.588,5.037,1.961,7.739,2.048,1.945.061,4.73.37,6.672-.363l.048.168c.674,2.454,1.277,4.927,1.842,7.408-4.86.931-9.173-.982-13.739-2.526-.317-.109-.512.372-.194.486,4.7,1.67,9.076,3.679,14.1,2.768q.679,3.032,1.284,6.084a22.178,22.178,0,0,1-12.882-2.137c-.27-.136-.434.294-.174.431a23.856,23.856,0,0,0,13.214,2.494q.646,3.275,1.251,6.558c-4.076,1.193-8.118.175-11.865-1.747-.088-.043-.168.106-.081.153,3.432,1.929,8.14,3.808,12.094,2.395q.2,1.048.389,2.1.115.631.228,1.283a23.848,23.848,0,0,1-9.677-.132c-.091-.023-.119.116-.03.142a22.736,22.736,0,0,0,9.819.636c.227,1.322.451,2.685.69,4.069a17.816,17.816,0,0,0-2.612.087c-1.627.237-2.973-.237-4.564-.406-.146-.014-.2.207-.049.227,1.422.2,2.616.763,4.079.654,1.083-.082,2.158-.045,3.232-.064.962,5.485,2.218,11.207,5.025,15.6.623.973,2.493.438,2.247-.791C211.937,456.451,210.206,452.846,208.98,449.2Z" transform="translate(-175.98 -358.901)" fill="#747ded"/>
        </g>
        <g id="Group_70371" data-name="Group 70371" transform="translate(23.238)">
          <path id="Path_50985" data-name="Path 50985" d="M233.4,408.5c.674,15.2,7.787,39.575-10.337,48.3-4.882,2.35-10.753.039-14.778-3.293-5.265-4.36-9.064-15.446-10.632-21.939-1.242-5.147-.938-11.313-1.683-16.633-.805-5.745-1.727-11.476-2.486-17.229-2.739-20.734,3.517-40.273,18.773-54.824,3.048,6.262,7.6,11.064,11.975,16.714a67.825,67.825,0,0,1,5.491,8.165c2.814,5,2.424,10.875,2.418,16.349C232.135,392.2,233.044,400.4,233.4,408.5Z" transform="translate(-192.862 -342.881)" fill="url(#linear-gradient-3)"/>
          <path id="Path_50986" data-name="Path 50986" d="M218.869,455.677q-.256-1.87-.473-3.747c2.282-.583,4.331-2.481,6-3.959a36.049,36.049,0,0,0,6.9-9.016c.1-.175-.189-.344-.307-.181a40.045,40.045,0,0,1-6.951,7.875c-1.524,1.242-3.718,3.2-5.783,3.99q-.247-2.245-.432-4.5c2.3-.892,4.087-3,5.8-4.707a77.586,77.586,0,0,0,7.6-9.567.036.036,0,0,0-.056-.043c-3.81,4.568-7.79,10.7-13.425,13.252-.143-1.883-.266-3.767-.34-5.65,0-.1-.007-.2-.01-.295,6.395-3.455,9.661-9.979,13.8-15.632.068-.091-.059-.214-.132-.121-4.142,5.3-7.826,11.09-13.7,14.64-.1-2.7-.165-5.393-.231-8.086a37.583,37.583,0,0,0,12.672-14.846c.051-.1-.1-.192-.156-.091-3.294,5.784-7.544,9.7-12.543,13.783-.066-2.667-.136-5.332-.239-8,2.341-1.991,4.951-3.5,6.985-5.855a22.431,22.431,0,0,0,4.6-7.841.126.126,0,0,0-.239-.08c-2.2,5.845-7.025,8.71-11.4,12.6-.1-2.48-.244-4.96-.435-7.44,4.834-4.512,10.212-8.919,11.9-15.65.016-.065-.081-.1-.1-.036-2,6.3-7.3,10.13-11.9,14.446-.038-.443-.067-.884-.107-1.325-.213-2.291-.45-4.58-.691-6.867a55.681,55.681,0,0,0,7.94-7.333c1.721-1.863,3.586-3.751,4.4-6.2a.125.125,0,0,0-.234-.088c-1.922,5.076-7.887,9.236-12.214,12.627q-.371-3.466-.743-6.93c4.58-4.638,10.481-8.053,12.318-14.789a.162.162,0,0,0-.308-.1c-2.084,6.254-7.731,9.447-12.124,13.809q-.226-2.147-.438-4.3c5.294-3.621,10.847-10.224,12.592-16.277a.27.27,0,0,0-.512-.171c-1.97,5.423-7,12.049-12.186,15.308-.22-2.324-.424-4.648-.589-6.977a.662.662,0,0,0,.036-.22c2.427-1.433,4.551-3.936,6.46-5.9a21.072,21.072,0,0,0,5.41-8.182.287.287,0,0,0-.554-.15c-1.424,5.283-6.794,9.939-11.443,12.993-.055-.85-.113-1.7-.158-2.554q-.1-1.911-.184-3.825c1.722-1.968,4.2-3.326,5.906-5.377a39.925,39.925,0,0,0,3.825-5.784.18.18,0,0,0-.3-.194,33.828,33.828,0,0,1-5.528,7c-1.244,1.134-2.774,1.987-3.952,3.183-.094-2.085-.189-4.172-.3-6.254l.071-.036.078,0a.386.386,0,0,0,.317-.192c2.654-1.432,4.207-4.424,5.588-6.985a.054.054,0,0,0-.093-.056c-1.533,2.354-3.288,4.975-5.766,6.447-.012,0-.019-.006-.032,0l-.211.019q-.145-2.542-.351-5.079a.383.383,0,0,0,.23-.5,30.711,30.711,0,0,0,3.252-4.6.108.108,0,0,0-.179-.119,25.011,25.011,0,0,1-3.408,3.975,103.586,103.586,0,0,0-1.43-10.41c-.062-.32-.541-.2-.49.114.531,3.352.875,6.717,1.128,10.088a31.09,31.09,0,0,1-5.909-5.439c-.081-.11-.26-.012-.187.11a19.332,19.332,0,0,0,3.093,3.508,25.353,25.353,0,0,0,3.092,2.988q.184,2.72.3,5.444a9.18,9.18,0,0,1-10.587-6.434c-.1-.307-.594-.179-.487.124a11.137,11.137,0,0,0,4.379,5.65c2.171,1.423,4.315,1.51,6.726,1.406q.13,3.15.226,6.3a47.758,47.758,0,0,1-5.807-2.395c-3.018-1.369-5.112-3.4-7.862-5.108-.275-.169-.55.246-.276.421,2.593,1.657,4.57,3.662,7.388,5.025a34.2,34.2,0,0,0,6.581,2.813l.01.333c-.016.026-.036.048-.052.074a.33.33,0,0,0,.068.455c.062,2.013.126,4.026.207,6.037,0,.126.013.252.019.377-4.959-.911-12.5-2.768-14.386-7.776a.358.358,0,1,0-.638.318c2.788,5.5,9.857,6.468,15.078,8.533q.167,3.408.441,6.8a27.127,27.127,0,0,1-9.054-2.1c-2.633-1.19-6.264-2.509-7.935-4.96-.052-.077-.163.01-.114.087,1.592,2.454,4.841,3.595,7.327,4.915,3.157,1.676,6.285,2.985,9.822,3.08a.634.634,0,0,0,.065.292q.184,2.152.389,4.3c-5.5.949-14.091-1.242-17.881-4.627-.017-.017-.039.012-.023.027,2.668,2.639,5.974,3.743,9.579,4.512,2.694.576,5.635,1.317,8.4.834.259,2.652.529,5.3.794,7.955-2.562-.281-5.148-.072-7.7-.415a18.243,18.243,0,0,1-9.849-4.853c-.169-.153-.437.08-.268.24,5.239,5,11.055,5.382,17.916,6.016q.323,3.264.6,6.532c-5.4.315-12.864-1.147-16.6-4.965-.275-.281-.729.126-.454.409,2.373,2.451,5.67,3.549,8.935,4.279,2.35.526,5.664,1.547,8.195,1.1.006.072.013.143.019.215.252,3.139.412,6.285.525,9.431-6.124.009-10.924-3.317-16.118-6.251-.36-.2-.709.334-.347.545,5.323,3.118,10.18,6.575,16.5,6.629q.121,3.846.153,7.693a27.453,27.453,0,0,1-15.167-5.58c-.3-.227-.594.257-.309.484a29.522,29.522,0,0,0,15.486,6.091c.019,2.755.014,5.51,0,8.263-5.232.506-9.91-1.667-14.02-4.87-.1-.074-.227.088-.133.168,3.725,3.139,9.015,6.513,14.148,5.711q-.007,1.319-.013,2.636c0,.531-.01,1.07-.019,1.614a29.516,29.516,0,0,1-11.734-2.4c-.107-.049-.172.113-.071.166a28.138,28.138,0,0,0,11.79,3.046c-.03,1.66-.074,3.369-.1,5.108a21.812,21.812,0,0,0-3.194-.5c-2.033-.09-3.559-.978-5.455-1.55-.174-.053-.289.2-.113.263,1.682.577,3,1.534,4.808,1.738,1.336.152,2.633.447,3.945.671-.1,6.892.1,14.14,2.5,20.125.532,1.327,2.928,1.109,2.915-.443C220.785,465.18,219.517,460.4,218.869,455.677Z" transform="translate(-191.778 -340.456)" fill="#747ded"/>
        </g>
        <path id="Path_50987" data-name="Path 50987" d="M243.139,426.5l-.671,12.354-1.05,19.237L239.7,489.694H196.905l-1.721-31.608-1.05-19.237-.671-12.354Z" transform="translate(-169.356 -305.582)" fill="#95a8b5"/>
        <path id="Path_50988" data-name="Path 50988" d="M242.261,435.039l-.138,2.478-.138,2.564-.774,14.2H194.978l-.774-14.2-.138-2.564-.138-2.478Z" transform="translate(-169.149 -301.771)" fill="#a5b7c6"/>
        <path id="Path_50989" data-name="Path 50989" d="M242.081,436.752l-.138,2.564H194.161l-.138-2.564Z" transform="translate(-169.107 -301.007)" fill="#95a8b5"/>
      </g>
    </g>
  </g>
</svg>
