<svg xmlns="http://www.w3.org/2000/svg" width="50.453" height="44.72" viewBox="0 0 50.453 44.72">
  <g id="Group_1396" data-name="Group 1396" transform="translate(0 0)">
    <path id="Path_13788" data-name="Path 13788" d="M412.945,89.677v6.317a.807.807,0,0,1-.471.858,15.744,15.744,0,0,1-3.641.829,38.107,38.107,0,0,1-4.724.277,26.086,26.086,0,0,1-6.641-.83,19.518,19.518,0,0,1-5.747-2.512,17.652,17.652,0,0,1-4.453-4.142,18.5,18.5,0,0,1-2.909-5.711,24.513,24.513,0,0,1-1.022-7.351,21.793,21.793,0,0,1,2.65-10.89,18.375,18.375,0,0,1,7.522-7.3,24.287,24.287,0,0,1,11.619-2.61,36.6,36.6,0,0,1,4.67.238,13.75,13.75,0,0,1,3.159.735.8.8,0,0,1,.3.733v6.758c0,.369-.145.492-.423.369a12.767,12.767,0,0,0-3.558-1.076,27.152,27.152,0,0,0-4.391-.338,13.721,13.721,0,0,0-6.922,1.661,11.422,11.422,0,0,0-4.456,4.57,14.4,14.4,0,0,0-1.564,6.9,15.118,15.118,0,0,0,.752,5.028,11.928,11.928,0,0,0,2.075,3.741,10.33,10.33,0,0,0,3.009,2.514,14.52,14.52,0,0,0,3.579,1.378,15.564,15.564,0,0,0,3.7.463,39.683,39.683,0,0,0,4.062-.186,14.689,14.689,0,0,0,3.34-.734c.156-.126.278-.155.36-.093a.5.5,0,0,1,.121.4Z" transform="translate(-383.331 -53.237)" fill="#6c9bd2"/>
    <path id="Path_13789" data-name="Path 13789" d="M415.713,74.385H412.1c-.282-.039-.423-.186-.423-.43V67.7a.385.385,0,0,1,.107-.322.37.37,0,0,1,.316-.107h3.611v-.982a22.076,22.076,0,0,1,.3-3.833,12.447,12.447,0,0,1,.964-3.1,10.6,10.6,0,0,1,3.43-4.11,9.948,9.948,0,0,1,5.908-1.588,15.132,15.132,0,0,1,1.746.092,5.244,5.244,0,0,1,1.383.339.624.624,0,0,1,.421.611v6.072c0,.288-.158.388-.471.307a5.726,5.726,0,0,0-.9-.063h-.9a4.014,4.014,0,0,0-1.9.429,2.608,2.608,0,0,0-1.2,1.443,7.738,7.738,0,0,0-.392,2.728v1.661h5.057c.239,0,.391.042.451.122a.635.635,0,0,1,.091.369v6.2c0,.285-.182.427-.542.427h-5.078V97.211a.831.831,0,0,1-.089.366c-.06.124-.212.184-.455.184h-7.349c-.324,0-.477-.184-.477-.551Z" transform="translate(-379.415 -53.646)" fill="#6c9bd2"/>
  </g>
</svg>
