<svg id="Group_21435" data-name="Group 21435" xmlns="http://www.w3.org/2000/svg" width="60.252" height="60.252" viewBox="0 0 60.252 60.252">
  <circle id="Ellipse_208" data-name="Ellipse 208" cx="30.126" cy="30.126" r="30.126" fill="#0e71de"/>
  <g id="Group_21437" data-name="Group 21437" transform="translate(15.609 15.6)">
    <path id="Path_10509" data-name="Path 10509" d="M289.29,752.161c-.009.052-.026-.047,0,0a14.041,14.041,0,0,0,.23-2.492,13.724,13.724,0,0,0-16.306-13.506h-.006a8.131,8.131,0,0,0-10.9,11.136,13.838,13.838,0,0,0-.206,2.37,13.7,13.7,0,0,0,16.11,13.538,8.129,8.129,0,0,0,11.08-11.046m-13.424,5.928c-4.871,0-7.05-2.4-7.05-4.2a1.534,1.534,0,0,1,1.616-1.569c2.084,0,1.543,3,5.434,3,1.99,0,3.09-1.083,3.09-2.2,0-.664-.329-1.405-1.642-1.73l-4.329-1.085c-3.489-.877-4.123-2.767-4.123-4.547,0-3.693,3.466-5.079,6.721-5.079,3,0,6.532,1.663,6.532,3.876a1.584,1.584,0,0,1-1.755,1.5c-1.779,0-1.448-2.469-5.034-2.469-1.777,0-2.763.806-2.763,1.962s1.405,1.523,2.624,1.8l3.208.716c3.513.784,4.4,2.84,4.4,4.778,0,3-2.3,5.24-6.929,5.24" transform="translate(-261.285 -735.211)" fill="#fff"/>
  </g>
</svg>
