<svg xmlns="http://www.w3.org/2000/svg" width="60.252" height="60.252" viewBox="0 0 60.252 60.252">
  <g id="Group_21433" data-name="Group 21433" transform="translate(0)">
    <circle id="Ellipse_208" data-name="Ellipse 208" cx="30.126" cy="30.126" r="30.126" transform="translate(0)" fill="#0e71de"/>
    <g id="Group_21432" data-name="Group 21432" transform="translate(14.927 18.895)">
      <g id="Group_56641" data-name="Group 56641">
        <path id="Path_10507" data-name="Path 10507" d="M278.37,684.659a1.736,1.736,0,0,1-1.795,0l-14.284-8.748V687.54a4.494,4.494,0,0,0,4.485,4.5H288.2a4.494,4.494,0,0,0,4.485-4.5V675.911Z" transform="translate(-262.291 -669.576)" fill="#fff"/>
        <path id="Path_10508" data-name="Path 10508" d="M292.471,676.347a4.462,4.462,0,0,0-4.341-3.528H266.7a4.462,4.462,0,0,0-4.341,3.528l15.073,9.215Z" transform="translate(-262.218 -672.819)" fill="#fff"/>
      </g>
    </g>
  </g>
</svg>
