<svg xmlns="http://www.w3.org/2000/svg" width="60.252" height="60.252" viewBox="0 0 60.252 60.252">
  <g id="Group_21434" data-name="Group 21434" transform="translate(0)">
    <circle id="Ellipse_208" data-name="Ellipse 208" cx="30.126" cy="30.126" r="30.126" transform="translate(0)" fill="#0e71de"/>
    <g id="Group_21436" data-name="Group 21436" transform="translate(17.395 17.357)">
      <path id="Path_10504" data-name="Path 10504" d="M272.122,717.344a10.32,10.32,0,0,1-3.1-5.852.872.872,0,0,1,.251-.733l1.967-1.972a.882.882,0,0,0,.122-1.089l-3.129-4.876a.876.876,0,0,0-1.138-.322l-5.029,2.374a.873.873,0,0,0-.48.875,26.268,26.268,0,0,0,22.095,22.165.872.872,0,0,0,.873-.484l2.369-5.043a.88.88,0,0,0-.32-1.138l-4.86-3.141a.881.881,0,0,0-1.089.125l-1.965,1.971a.867.867,0,0,1-.729.253,10.265,10.265,0,0,1-5.834-3.112" transform="translate(-261.578 -702.38)" fill="#fff"/>
      <path id="Path_10505" data-name="Path 10505" d="M276.439,714.06a.879.879,0,0,1-.878-.88,6.6,6.6,0,0,0-6.585-6.6.881.881,0,0,1,0-1.762,8.36,8.36,0,0,1,8.339,8.367.878.878,0,0,1-.876.88" transform="translate(-256.245 -700.411)" fill="#fff"/>
      <path id="Path_10506" data-name="Path 10506" d="M280.828,716.042a.878.878,0,0,1-.876-.88,11,11,0,0,0-10.975-11.008.881.881,0,0,1,0-1.762,12.762,12.762,0,0,1,12.73,12.77.878.878,0,0,1-.878.88" transform="translate(-256.245 -702.392)" fill="#fff"/>
    </g>
  </g>
</svg>
