<svg id="continuous" xmlns="http://www.w3.org/2000/svg" width="46.37" height="46.37" viewBox="0 0 46.37 46.37">
  <path id="Path_14994" data-name="Path 14994" d="M38.168,17.227H35.177V15.95l-1.366-.482q-.07-.176-.147-.352l.625-1.307L30.369,9.886l-1.308.625c-.116-.052-.234-.1-.352-.147L28.227,9H22.681L22.2,10.366q-.177.07-.352.147l-1.308-.625-3.921,3.922.625,1.307c-.052.117-.1.235-.147.352l-1.366.481v1.277H12.74A3.744,3.744,0,0,0,9,20.967V37.421a3.744,3.744,0,0,0,3.74,3.74h5.235v2.992H14.983a1.5,1.5,0,0,0-1.5,1.5v1.5a1.5,1.5,0,0,0,1.5,1.5H35.925a1.5,1.5,0,0,0,1.5-1.5v-1.5a1.5,1.5,0,0,0-1.5-1.5H32.933V41.16h5.235a3.744,3.744,0,0,0,3.74-3.74V20.967a3.744,3.744,0,0,0-3.74-3.74Zm-20.941-.218,1.042-.367.117-.343a7.36,7.36,0,0,1,.357-.857l.16-.325-.478-1,2.425-2.425,1,.477.326-.16a7.286,7.286,0,0,1,.857-.357l.343-.117L23.74,10.5h3.428l.367,1.041.343.117a7.286,7.286,0,0,1,.857.357l.326.16,1-.477,2.425,2.425-.478,1,.16.325a7.359,7.359,0,0,1,.357.857l.117.343,1.041.367v.218H31.244a5.979,5.979,0,0,0-11.581,0H17.227Zm12.453.218H21.228a4.48,4.48,0,0,1,8.451,0Zm-16.94,1.5H38.168a2.246,2.246,0,0,1,2.244,2.244V33.681H10.5V20.967a2.246,2.246,0,0,1,2.244-2.244ZM35.925,47.143H14.983v-1.5H35.925Zm-4.488-2.992H19.471V41.16H31.437Zm6.731-4.487H12.74A2.246,2.246,0,0,1,10.5,37.421V35.177H40.412v2.244A2.246,2.246,0,0,1,38.168,39.664Z" transform="translate(-2.269 -2.269)" fill="#222872"/>
  <circle id="Ellipse_742" data-name="Ellipse 742" cx="1" cy="1" r="1" transform="translate(19.185 34.185)" fill="#009eff"/>
  <circle id="Ellipse_743" data-name="Ellipse 743" cx="1" cy="1" r="1" transform="translate(22.185 34.185)" fill="#009eff"/>
  <circle id="Ellipse_744" data-name="Ellipse 744" cx="1" cy="1" r="1" transform="translate(25.185 34.185)" fill="#009eff"/>
  <path id="Path_14995" data-name="Path 14995" d="M26.822,1.5A20.067,20.067,0,0,1,38.361,5.115a.748.748,0,0,0,1.123-.89L37.988.471,36.6,1.025l.654,1.643A21.711,21.711,0,0,0,14.428,3.888l.856,1.227A20.058,20.058,0,0,1,26.822,1.5Z" transform="translate(-3.637)" fill="#222872"/>
  <path id="Path_14996" data-name="Path 14996" d="M4.224,14.053.47,15.549l.553,1.389,1.642-.654A21.718,21.718,0,0,0,3.888,39.109l1.227-.856a20.2,20.2,0,0,1,0-23.077.748.748,0,0,0-.891-1.123Z" transform="translate(0 -3.529)" fill="#222872"/>
  <path id="Path_14997" data-name="Path 14997" d="M57.564,37.253a21.714,21.714,0,0,0-1.221-22.825l-1.227.856a20.2,20.2,0,0,1,0,23.077.748.748,0,0,0,.89,1.123l3.754-1.5L59.206,36.6Z" transform="translate(-13.86 -3.637)" fill="#222872"/>
  <path id="Path_14998" data-name="Path 14998" d="M0,0H12.335V1.5H0Z" transform="translate(20.965 29.741) rotate(-75.936)" fill="#009eff"/>
  <path id="Path_14999" data-name="Path 14999" d="M36.288,34.883l6.088-4.348-6.088-4.348L35.419,27.4,39.8,30.534l-4.383,3.131Z" transform="translate(-8.929 -6.601)" fill="#009eff"/>
  <path id="Path_15000" data-name="Path 15000" d="M24.236,33.665l-4.383-3.131L24.236,27.4l-.869-1.218-6.088,4.348,6.088,4.348Z" transform="translate(-4.356 -6.601)" fill="#009eff"/>
</svg>
