<svg xmlns="http://www.w3.org/2000/svg" xmlns:xlink="http://www.w3.org/1999/xlink" width="453.53" height="392.96" viewBox="0 0 453.53 392.96">
  <defs>
    <radialGradient id="radial-gradient" cx="0.5" cy="0.5" r="0.478" gradientTransform="matrix(-1.098, 0, 0, 1, 1.049, 0)" gradientUnits="objectBoundingBox">
      <stop offset="0" stop-color="#ffc8af"/>
      <stop offset="1" stop-color="#ffbb9c"/>
    </radialGradient>
    <radialGradient id="radial-gradient-2" cx="0.494" cy="0.49" r="0.451" gradientTransform="matrix(-1.232, -0.21, -0.265, 0.978, 1.295, 0.17)" xlink:href="#radial-gradient"/>
    <radialGradient id="radial-gradient-3" cx="0.5" cy="0.5" r="0.531" gradientTransform="matrix(-0.891, 0, 0, 1, 0.946, 0)" xlink:href="#radial-gradient"/>
    <radialGradient id="radial-gradient-4" cx="0.5" cy="0.5" r="0.511" gradientTransform="matrix(-0.958, 0, 0, 1, 0.979, 0)" xlink:href="#radial-gradient"/>
    <radialGradient id="radial-gradient-5" cx="-0.47" cy="-0.006" r="4.15" gradientTransform="matrix(-0.387, 0, 0, 1, -0.058, 0)" xlink:href="#radial-gradient"/>
    <radialGradient id="radial-gradient-6" cx="0.817" cy="0.438" r="1.813" gradientTransform="matrix(-0.34, 0, 0, 1, 0.885, 0)" xlink:href="#radial-gradient"/>
    <linearGradient id="linear-gradient" x1="-3.513" y1="-3.241" x2="-2.024" y2="-2.458" gradientUnits="objectBoundingBox">
      <stop offset="0" stop-color="#7eceff"/>
      <stop offset="1" stop-color="#42a3de"/>
    </linearGradient>
    <linearGradient id="linear-gradient-2" x1="-7.927" y1="-5.136" x2="-6.575" y2="-4.342" xlink:href="#linear-gradient"/>
    <linearGradient id="linear-gradient-3" x1="-5.918" y1="-3.36" x2="-4.26" y2="-2.587" xlink:href="#linear-gradient"/>
  </defs>
  <g id="Group_69992" data-name="Group 69992" transform="translate(-45)">
    <g id="Group_69912" data-name="Group 69912" transform="translate(112.731 0)">
      <g id="Group_69877" data-name="Group 69877" transform="translate(168.756 22.327)">
        <g id="Group_69840" data-name="Group 69840" transform="translate(0)">
          <rect id="Rectangle_28073" data-name="Rectangle 28073" width="112.6" height="105.098" fill="#00527a"/>
        </g>
        <g id="Group_69841" data-name="Group 69841" transform="translate(0)" style="mix-blend-mode: screen;isolation: isolate">
          <rect id="Rectangle_28074" data-name="Rectangle 28074" width="112.6" height="11.115" fill="#1d262d"/>
        </g>
        <g id="Group_69845" data-name="Group 69845" transform="translate(7.933 3.646)">
          <g id="Group_69842" data-name="Group 69842" transform="translate(16.406)">
            <path id="Path_50966" data-name="Path 50966" d="M193.168,104.314a2.038,2.038,0,1,0,2.038-2.037A2.038,2.038,0,0,0,193.168,104.314Z" transform="translate(-193.168 -102.277)" fill="#606bf1"/>
          </g>
          <g id="Group_69843" data-name="Group 69843" transform="translate(7.9)">
            <path id="Path_50967" data-name="Path 50967" d="M200.539,104.314a2.037,2.037,0,1,0,2.037-2.037A2.037,2.037,0,0,0,200.539,104.314Z" transform="translate(-200.539 -102.277)" fill="#fbd15b"/>
          </g>
          <g id="Group_69844" data-name="Group 69844" transform="translate(0 0.215)">
            <path id="Path_50968" data-name="Path 50968" d="M207.383,104.5a2.037,2.037,0,1,0,2.037-2.037A2.037,2.037,0,0,0,207.383,104.5Z" transform="translate(-207.383 -102.463)" fill="#ff8578"/>
          </g>
        </g>
        <g id="Group_69869" data-name="Group 69869" transform="translate(9.964 21.447)">
          <g id="Group_69855" data-name="Group 69855" transform="translate(15.932)">
            <g id="Group_69846" data-name="Group 69846" transform="translate(50.735)">
              <rect id="Rectangle_28075" data-name="Rectangle 28075" width="15.948" height="1.341" transform="translate(0)" fill="#ff8578"/>
            </g>
            <g id="Group_69847" data-name="Group 69847" transform="translate(32.016)">
              <rect id="Rectangle_28076" data-name="Rectangle 28076" width="15.948" height="1.341" transform="translate(0)" fill="#fbd15b"/>
            </g>
            <g id="Group_69848" data-name="Group 69848" transform="translate(37.019 7.221)">
              <rect id="Rectangle_28077" data-name="Rectangle 28077" width="24.73" height="1.341" transform="translate(0)" fill="#606bf1"/>
            </g>
            <g id="Group_69849" data-name="Group 69849" transform="translate(20.359 7.221)">
              <rect id="Rectangle_28078" data-name="Rectangle 28078" width="12.571" height="1.341" transform="translate(0)" fill="#ff8578"/>
            </g>
            <g id="Group_69850" data-name="Group 69850" transform="translate(42.309 14.441)">
              <rect id="Rectangle_28079" data-name="Rectangle 28079" width="10.862" height="1.341" transform="translate(0)" fill="#fbd15b"/>
            </g>
            <g id="Group_69851" data-name="Group 69851" transform="translate(0 14.441)">
              <rect id="Rectangle_28080" data-name="Rectangle 28080" width="36.032" height="1.341" transform="translate(0)" fill="#fbd15b"/>
            </g>
            <g id="Group_69852" data-name="Group 69852" transform="translate(3.555 21.662)">
              <rect id="Rectangle_28081" data-name="Rectangle 28081" width="41.179" height="1.34" transform="translate(0)" fill="#606bf1"/>
            </g>
            <g id="Group_69853" data-name="Group 69853" transform="translate(42.357 28.883)">
              <rect id="Rectangle_28082" data-name="Rectangle 28082" width="12.674" height="1.34" transform="translate(0)" fill="#ff8578"/>
            </g>
            <g id="Group_69854" data-name="Group 69854" transform="translate(24.261 28.883)">
              <rect id="Rectangle_28083" data-name="Rectangle 28083" width="12.674" height="1.34" transform="translate(0)" fill="#606bf1"/>
            </g>
          </g>
          <g id="Group_69868" data-name="Group 69868" transform="translate(0 37.462)">
            <g id="Group_69856" data-name="Group 69856" transform="translate(64.178 28.883)">
              <rect id="Rectangle_28084" data-name="Rectangle 28084" width="18.437" height="1.341" transform="translate(0)" fill="#ff8578"/>
            </g>
            <g id="Group_69857" data-name="Group 69857" transform="translate(39.284 28.883)">
              <rect id="Rectangle_28085" data-name="Rectangle 28085" width="18.437" height="1.341" transform="translate(0)" fill="#fbd15b"/>
            </g>
            <g id="Group_69858" data-name="Group 69858" transform="translate(15.06 28.883)">
              <rect id="Rectangle_28086" data-name="Rectangle 28086" width="18.437" height="1.341" transform="translate(0)" fill="#ff8578"/>
            </g>
            <g id="Group_69859" data-name="Group 69859" transform="translate(41.65 21.662)">
              <rect id="Rectangle_28087" data-name="Rectangle 28087" width="36.032" height="1.34" transform="translate(0)" fill="#606bf1"/>
            </g>
            <g id="Group_69860" data-name="Group 69860" transform="translate(0 21.662)">
              <rect id="Rectangle_28088" data-name="Rectangle 28088" width="36.032" height="1.34" fill="#ff8578"/>
            </g>
            <g id="Group_69861" data-name="Group 69861" transform="translate(33.347 14.441)">
              <rect id="Rectangle_28089" data-name="Rectangle 28089" width="35.756" height="1.34" transform="translate(0)" fill="#ff8578"/>
            </g>
            <g id="Group_69862" data-name="Group 69862" transform="translate(20.278 14.441)">
              <rect id="Rectangle_28090" data-name="Rectangle 28090" width="9.952" height="1.34" transform="translate(0)" fill="#fbd15b"/>
            </g>
            <g id="Group_69863" data-name="Group 69863" transform="translate(57.978 7.221)">
              <rect id="Rectangle_28091" data-name="Rectangle 28091" width="13.46" height="1.34" transform="translate(0)" fill="#fbd15b"/>
            </g>
            <g id="Group_69864" data-name="Group 69864" transform="translate(37.369 7.221)">
              <rect id="Rectangle_28092" data-name="Rectangle 28092" width="13.46" height="1.34" transform="translate(0)" fill="#606bf1"/>
            </g>
            <g id="Group_69865" data-name="Group 69865" transform="translate(15.251 7.221)">
              <rect id="Rectangle_28093" data-name="Rectangle 28093" width="13.46" height="1.34" transform="translate(0)" fill="#ff8578"/>
            </g>
            <g id="Group_69866" data-name="Group 69866" transform="translate(36.961)">
              <rect id="Rectangle_28094" data-name="Rectangle 28094" width="18.874" height="1.34" transform="translate(0)" fill="#fbd15b"/>
            </g>
            <g id="Group_69867" data-name="Group 69867" transform="translate(62.956)">
              <rect id="Rectangle_28095" data-name="Rectangle 28095" width="18.874" height="1.34" transform="translate(0)" fill="#606bf1"/>
            </g>
          </g>
        </g>
        <g id="Group_69876" data-name="Group 69876" transform="translate(101.3 20.161)">
          <g id="Group_69871" data-name="Group 69871" transform="translate(0)">
            <g id="Group_69870" data-name="Group 69870" transform="translate(0)">
              <rect id="Rectangle_28096" data-name="Rectangle 28096" width="1.716" height="1.716" fill="#f9fbfc"/>
            </g>
          </g>
          <g id="Group_69873" data-name="Group 69873" transform="translate(0 6.965)">
            <g id="Group_69872" data-name="Group 69872">
              <path id="Path_50969" data-name="Path 50969" d="M128.535,178.607h1.716v-3.5h-1.716Zm0-8.748h1.716v-3.5h-1.716Zm0-8.749h1.716v-3.5h-1.716Zm0-8.748h1.716v-3.5h-1.716Zm0-8.748h1.716v-3.5h-1.716Zm0-8.748h1.716v-3.5h-1.716Zm0-8.749h1.716v-3.5h-1.716Z" transform="translate(-128.535 -122.619)" fill="#f9fbfc"/>
            </g>
          </g>
          <g id="Group_69875" data-name="Group 69875" transform="translate(0 68.203)">
            <g id="Group_69874" data-name="Group 69874" transform="translate(0)">
              <rect id="Rectangle_28097" data-name="Rectangle 28097" width="1.716" height="1.716" fill="#f9fbfc"/>
            </g>
          </g>
        </g>
      </g>
      <g id="Group_69880" data-name="Group 69880" transform="translate(51.81)">
        <g id="Group_69878" data-name="Group 69878" transform="translate(0)">
          <rect id="Rectangle_28098" data-name="Rectangle 28098" width="92.72" height="57.151" fill="#7ad4ff"/>
        </g>
        <g id="Group_69879" data-name="Group 69879" transform="translate(21.337 11.236)">
          <path id="Path_50970" data-name="Path 50970" d="M271.936,100.126,260.9,104.834l11.032,4.639-1.444,3.333-13.23-5.91v-4.089l13.23-5.945Z" transform="translate(-257.262 -88.375)" fill="#f9fbfc"/>
          <path id="Path_50971" data-name="Path 50971" d="M285.639,90.368l-8.006,30.755-3.815-.893,8.042-30.721Z" transform="translate(-254.709 -89.509)" fill="#f9fbfc"/>
          <path id="Path_50972" data-name="Path 50972" d="M302.607,102.807V106.9l-13.231,5.91-1.442-3.333,11-4.639-11-4.708,1.442-3.264Z" transform="translate(-252.531 -88.375)" fill="#f9fbfc"/>
        </g>
      </g>
      <g id="Group_69883" data-name="Group 69883" transform="translate(2.184 110.721)">
        <g id="Group_69881" data-name="Group 69881" transform="translate(0)">
          <rect id="Rectangle_28099" data-name="Rectangle 28099" width="52.81" height="37.623" fill="#18aef6"/>
        </g>
        <g id="Group_69882" data-name="Group 69882" transform="translate(14.755 5.642)">
          <path id="Path_50973" data-name="Path 50973" d="M329.155,183.068c1.7,0,2.265.458,2.265,1.726v5.663c0,2.212.918,2.886,2.454,3.317-1.536.4-2.454,1.078-2.454,3.262V202.7c0,1.267-.593,1.726-2.265,1.726v2.482c4.287,0,5.5-1.376,5.5-4.234v-5.366c0-1.537.4-2.131,1.806-2.131v-2.831c-1.4,0-1.806-.62-1.806-2.157v-5.365c0-2.886-1.214-4.234-5.5-4.234Z" transform="translate(-313.191 -180.588)" fill="#f1f2f2"/>
          <path id="Path_50974" data-name="Path 50974" d="M344.8,184.822v5.365c0,1.537-.4,2.157-1.834,2.157v2.831c1.43,0,1.834.593,1.834,2.131v5.366c0,2.858,1.213,4.234,5.5,4.234v-2.482c-1.672,0-2.266-.458-2.266-1.726v-5.663c0-2.184-.916-2.858-2.454-3.262,1.537-.432,2.454-1.106,2.454-3.317v-5.663c0-1.267.567-1.726,2.266-1.726v-2.48C346.009,180.588,344.8,181.936,344.8,184.822Z" transform="translate(-342.962 -180.588)" fill="#f1f2f2"/>
        </g>
      </g>
      <g id="Group_69887" data-name="Group 69887" transform="translate(257.947 8.197)">
        <g id="Group_69884" data-name="Group 69884" transform="translate(0 0)">
          <rect id="Rectangle_28100" data-name="Rectangle 28100" width="59.246" height="39.627" fill="#7ad4ff"/>
        </g>
        <g id="Group_69886" data-name="Group 69886" transform="translate(17.514 7.701)">
          <g id="Group_69885" data-name="Group 69885">
            <path id="Path_50975" data-name="Path 50975" d="M106.451,97.222a9.724,9.724,0,0,0,13.012,14.136l6.218,6.219a.674.674,0,0,0,.951,0l1.746-1.747a.67.67,0,0,0,0-.95l-6.218-6.219a9.724,9.724,0,0,0-15.709-11.438Zm12.481,10.908a6.876,6.876,0,1,1,0-9.723A6.883,6.883,0,0,1,118.931,108.129Z" transform="translate(-104.357 -93.548)" fill="#f9fbfc"/>
          </g>
        </g>
      </g>
      <g id="Group_69911" data-name="Group 69911" transform="translate(0 69.801)">
        <g id="Group_69891" data-name="Group 69891" transform="translate(84.292)">
          <path id="Path_50976" data-name="Path 50976" d="M265.214,195.091c.129,1.309,1.918,14.974,15.971,14.974,14.752,0,12.281-14.606,12.281-14.606l.018-.091a14.706,14.706,0,0,0-4.628-.222V188.23l-16.744-9.368H271.5V195A30.433,30.433,0,0,0,265.214,195.091Z" transform="translate(-263.901 -134.293)" fill="url(#radial-gradient)"/>
          <g id="Group_69890" data-name="Group 69890" transform="translate(0)">
            <g id="Group_69889" data-name="Group 69889" transform="translate(3.738 7.625)">
              <g id="Group_69888" data-name="Group 69888" transform="translate(0)">
                <path id="Path_50977" data-name="Path 50977" d="M257.6,152.929a19.134,19.134,0,0,0-5.032,9.331c-1.609,7.094-.095,14.6,1.963,21.436a10.773,10.773,0,0,0,1.474,3.333,11.857,11.857,0,0,0,1.835,1.854q4.469,3.89,8.929,7.79c2.014,1.764,14.415,3.232,16.781,1.54,9.121-6.52,10.875-25.414,9.05-35.073C289.576,147.117,268.982,141.389,257.6,152.929Z" transform="translate(-251.897 -146.854)" fill="url(#radial-gradient-2)"/>
              </g>
            </g>
            <path id="Path_50978" data-name="Path 50978" d="M282.766,170.22c-.121-1.542-1.707-3.231-3.3-2.23-1.648,1.037-1.26,3.776-.577,5.283.536,1.182,2.327,2.476,3.54,1.377,1.017-.922-.563-2.008-.615-2.85-.047-.757,1.467-1.3.847-2.11" transform="translate(-268.198 -136.016)" fill="#f7b094"/>
            <path id="Path_50979" data-name="Path 50979" d="M284.885,177.136a4.71,4.71,0,0,1-5.191-3.084,17.733,17.733,0,0,1-.636-4.959,11.884,11.884,0,0,0-.406,5.468c.431,3.373,1.612,6.585,4.259,6.628S284.885,177.136,284.885,177.136Z" transform="translate(-270.609 -135.8)" fill="#f7b094"/>
            <path id="Path_50980" data-name="Path 50980" d="M259.419,179.185a.584.584,0,0,0,.186.055c1.03.144,1.44-1.1,1.593-1.88a34.691,34.691,0,0,0,.365-5.5,4.143,4.143,0,0,1,.166-1.47c.579-1.325,2.119-2.185,2.59-3.553.546-1.591-1-3.178-.384-4.918.938-2.667,4.363-3.281,6.84-3.251a77.78,77.78,0,0,1,11.009,1.3c3.872.6,8.822,1.172,12.235-1.278,4.113-2.951,5.83-10.644,2.761-14.856a9.965,9.965,0,0,0-7.626-3.582c-2.946-.067-5.435,1.689-8.138,2.573-2.153.7-4.235-1.355-6.247-1.758-2.529-.506-3.6,2.255-5.842,2.332-2.173.074-4.305-1.624-6.42-2.01-4.213-.77-3.965,3.463-6.791,4.908-1.758.9-4.027.354-5.8,1.267-1.35.694-1.54,1.913-1.834,3.294a32.482,32.482,0,0,1-.661,3.706,8.383,8.383,0,0,1-1.879,2.462A9.038,9.038,0,0,0,243.971,160a18.562,18.562,0,0,0-.779,7.568,51.442,51.442,0,0,0,3.166,12.45c.922,2.6,1.265,5.308,2.684,7.769.381.661,2.073,2.594,2.7,1.154a2.11,2.11,0,0,0,.091-.995c-.187-2.68-2.684-19.953,3.86-17.878a4.637,4.637,0,0,1,2.807,2.882,11.225,11.225,0,0,1,.577,4.779c-.012.235-.017.472-.008.708A.806.806,0,0,0,259.419,179.185Z" transform="translate(-243.103 -140.248)" fill="#1a1b43"/>
          </g>
        </g>
        <path id="Path_50981" data-name="Path 50981" d="M281.305,192.544c-7.44-1.2-12.349-7.073-12.349-7.073s2.007,9.9,12.8,10.429Z" transform="translate(-172.058 -133.273)" fill="#f7b094"/>
        <g id="Group_69893" data-name="Group 69893" transform="translate(36.446 194.283)">
          <path id="Rectangle_28101" data-name="Rectangle 28101" d="M0,0H10.65a0,0,0,0,1,0,0V102.429a1.626,1.626,0,0,1-1.626,1.626h-7.4A1.626,1.626,0,0,1,0,102.43V0A0,0,0,0,1,0,0Z" transform="translate(49.94 0)" fill="#0a2033"/>
          <path id="Rectangle_28102" data-name="Rectangle 28102" d="M0,0H58.568a0,0,0,0,1,0,0V2.573a6.314,6.314,0,0,1-6.314,6.314H6.314A6.314,6.314,0,0,1,0,2.573V0A0,0,0,0,1,0,0Z" transform="translate(25.98 1.46)" fill="#30475e"/>
          <g id="Group_69892" data-name="Group 69892" transform="translate(0 84.005)">
            <path id="Rectangle_28103" data-name="Rectangle 28103" d="M0,0H10.65a0,0,0,0,1,0,0V23.929a1.626,1.626,0,0,1-1.626,1.626h-7.4A1.626,1.626,0,0,1,0,23.929V0A0,0,0,0,1,0,0Z" transform="translate(49.94 7.936)" fill="#0a2033"/>
            <path id="Path_50982" data-name="Path 50982" d="M249.123,405.8a6.233,6.233,0,1,1-6.233-6.233A6.233,6.233,0,0,1,249.123,405.8Z" transform="translate(-138.594 -378.54)" fill="#0a2033"/>
            <path id="Path_50983" data-name="Path 50983" d="M334.083,405.8a6.233,6.233,0,1,1-6.233-6.233A6.232,6.232,0,0,1,334.083,405.8Z" transform="translate(-321.617 -378.54)" fill="#0a2033"/>
            <rect id="Rectangle_28104" data-name="Rectangle 28104" width="21.425" height="18.722" transform="translate(44.552 0)" fill="#bfd1dd"/>
            <path id="Rectangle_28105" data-name="Rectangle 28105" d="M5.751,0h99.026a5.751,5.751,0,0,1,5.751,5.751V8.81a0,0,0,0,1,0,0H0a0,0,0,0,1,0,0V5.751A5.751,5.751,0,0,1,5.751,0Z" transform="translate(0 14.317)" fill="#7eceff"/>
          </g>
          <rect id="Rectangle_28106" data-name="Rectangle 28106" width="3.694" height="69.887" transform="translate(55.265 12.447)" fill="#6f96a8"/>
        </g>
        <path id="Path_50984" data-name="Path 50984" d="M261.064,244.4a4.344,4.344,0,0,1,4.485,4.587c-.732,12.685,1.958,43.63,13.772,54.189,14.446,12.909,55.392,11.15,55.392,11.15s6.761,8.3-6.763,10.143-51.636.614-60.856-7.992c-8.926-8.33-14.225-30.156-10.231-68.144a4.372,4.372,0,0,1,4.2-3.934Z" transform="translate(-211.193 -124.184)" fill="#7eceff"/>
        <g id="Group_69895" data-name="Group 69895" transform="translate(54.789 72.379)">
          <g id="Group_69894" data-name="Group 69894">
            <path id="Path_50985" data-name="Path 50985" d="M246.251,379.9,241.383,391l14.919,6.547,4.887-11.139Z" transform="translate(-174.458 -175.665)" fill="url(#radial-gradient-3)"/>
            <path id="Path_50986" data-name="Path 50986" d="M211.984,273c.922,1.844,67.21.037,73.47.609,0,0,40.571,19.363,46.4,37.491a19.805,19.805,0,0,1,.573,7.118c-1.623,25.524-30.686,86.638-30.686,86.638l-4.463-1.954-14.937-6.51-2.121-.922s23.052-68.694,18.441-72.382-56.854-12.909-74.982-17.814C205.529,300.349,211.984,273,211.984,273Z" transform="translate(-210.544 -192.153)" fill="#364d72"/>
            <path id="Path_50987" data-name="Path 50987" d="M192.105,382.382l-1.165,16.679h16.284l1.165-16.716Z" transform="translate(-63.435 -175.288)" fill="url(#radial-gradient-4)"/>
            <path id="Path_50988" data-name="Path 50988" d="M180.939,273.031l.591.259s67.92,9.534,78.984,28.585c7.192,12.392-6.729,102.945-6.729,102.945l-24.029.055s3.594-75.43,2.4-79.635c-1.346-4.795-3.651-6.528-4.573-7.027a19.805,19.805,0,0,0-.572-7.118c-5.827-18.127-46.4-37.491-46.4-37.491A1.157,1.157,0,0,0,180.939,273.031Z" transform="translate(-105.697 -192.148)" fill="#19325a"/>
            <path id="Path_50989" data-name="Path 50989" d="M260.119,218.661l4.556.627a222.632,222.632,0,0,0,3.817,24.564l56.744,21.539.774,4.113.7-.055c-.018.848-.018,1.678-.055,2.453-.129,4.739-.443,8.151-.941,9.516a1.167,1.167,0,0,1-.332.573c-1.541,1.257-21.611-1.18-43.307,6.787-18.817,6.909-29.364,14.457-29.852,13.443C246.311,289.925,257.076,241.676,260.119,218.661Z" transform="translate(-250.479 -200.534)" fill="#009eff"/>
            <path id="Path_50990" data-name="Path 50990" d="M252.078,246.719c1.512,7.266,5.421,21.724,13.094,23.661,10.013,2.545,29.376,2.416,47.523,1.438.037-.774.037-1.6.055-2.453l-.7.055-.774-4.113-56.744-21.539a222.641,222.641,0,0,1-3.817-24.564,1.6,1.6,0,0,1-.018.2C250.585,221.307,249.81,235.987,252.078,246.719Z" transform="translate(-236.519 -200.45)" fill="#0073b9"/>
            <path id="Path_50991" data-name="Path 50991" d="M240.888,202.956c1.015,1.843,2.471,21.576,3.264,41.161l11.6-10.826C250.828,223.758,240.888,202.956,240.888,202.956Z" transform="translate(-168.449 -202.956)" fill="#048bde"/>
            <path id="Path_50992" data-name="Path 50992" d="M211.327,255.993c9.793,1.7,18.792,3.153,18.792,3.153l.018.479c10.9-8.7,27.478-33.36,27.478-33.36s-4.961-5.957-6.2-7.524c-.185-.24-27.22,18.367-28.6,18.2-.351-.036-1.734-2.471-3.578-6.085l-11.6,10.826c.185,4.665.331,9.312.424,13.72C209.151,255.605,210.239,255.79,211.327,255.993Z" transform="translate(-131.936 -200.522)" fill="#f7b094"/>
            <path id="Path_50993" data-name="Path 50993" d="M205.69,254.208l.24,8.077h29.506s-2.932-11.526-10.917-11.526-11.066,4.223-11.066,4.223Z" transform="translate(-107.507 -195.583)" fill="url(#radial-gradient-5)"/>
            <path id="Path_50994" data-name="Path 50994" d="M191.6,219.691l-.22.185c1.235,1.567,6.2,7.524,6.2,7.524l3.079-2.177a7.656,7.656,0,0,0,7.34-.092c4.113-2.231,1.567-7.559,1.356-8.19.8.225,5.725,4.207,6.5,3.784s1.347-1.826-4.167-7.266c-5.5-5.44-12.983,1.549-13.2,1.549Z" transform="translate(-71.899 -201.656)" fill="#f7b094"/>
            <path id="Path_50995" data-name="Path 50995" d="M210.966,222.89s1.189,2.227-.925,3.194a21.059,21.059,0,0,1-7.992,1.5c-1.766-.171-3.171-2.642-3.171-2.642l5.35-5.02h4.278Z" transform="translate(-75.51 -200.34)" fill="#f7b094"/>
            <path id="Path_50996" data-name="Path 50996" d="M205.752,224c-.317-1.093-3.355-.51-5.238-.466-1.387.033-2.147-.33-2.576-1.386s1.586-2.741,1.982-2.213-.726,1.272-.759,1.973,1.982.934,3.533.934a37.786,37.786,0,0,1,4.23.4Z" transform="translate(-69.978 -200.353)" fill="#e8987c"/>
          </g>
        </g>
        <path id="Path_50997" data-name="Path 50997" d="M231.364,250.929l28.9-10.235c2.1,3.928,4.353,6.878,6.584,7.468,3.375.885,11.525,2.416,19.75,3.855,1.088.2,2.177.387,3.264.59,9.792,1.7,18.792,3.153,18.792,3.153l.018.479v.314l.222,7.284v1.848a204.225,204.225,0,0,0-22.185.365c-17.316,1.236-39.649,1.974-47.044-1.512-3.466-1.641-6.233-7.026-8.409-13.665Z" transform="translate(-155.679 -124.756)" fill="url(#radial-gradient-6)"/>
        <path id="Path_50998" data-name="Path 50998" d="M301.406,240.694l-28.9,10.235,1.308,3.862,28.6-12.269Z" transform="translate(-196.824 -124.756)" fill="#f7b094"/>
        <path id="Path_50999" data-name="Path 50999" d="M290.716,248.062c2.1,3.928,4.353,6.878,6.584,7.468,3.375.885,11.525,2.416,19.75,3.855-.092-4.408-.239-9.055-.424-13.72-.793-19.585-2.25-39.318-3.264-41.161-1.66-3.081-6.2-9.774-13.352-11.3l-.018.091s2.471,14.606-12.281,14.606c-14.053,0-15.842-13.665-15.971-14.974-7.229.811-18.312,4.425-19.842,18.957-.314,2.878-.756,6.565-1.327,10.752l4.555.627s1.844,20.47,6.584,34.984l.111.055Z" transform="translate(-186.134 -132.124)" fill="#009eff"/>
        <path id="Path_51000" data-name="Path 51000" d="M284.665,242.119l-11.539-27.933,8.5,29.061Z" transform="translate(-179.784 -128.845)" fill="#6d4b35" style="mix-blend-mode: screen;isolation: isolate"/>
        <path id="Path_51001" data-name="Path 51001" d="M255.408,192.922H261.7s8.949,9.826,14.7,9.826,2.651-9.771,2.651-9.771h2.806a15.864,15.864,0,0,1,15.76,14.064c.1.918.2,1.788.282,2.575.615,5.944-23.465,10.27-23.465,10.27l-12.4-.694L254.5,204.5l-1.5-6.016Z" transform="translate(-169.803 -132.124)" fill="#009eff"/>
        <g id="Group_69899" data-name="Group 69899" transform="translate(114.264 286.736)">
          <g id="Group_69898" data-name="Group 69898">
            <g id="Group_69897" data-name="Group 69897">
              <g id="Group_69896" data-name="Group 69896">
                <path id="Path_51002" data-name="Path 51002" d="M271.289,407.415c-.561,3.006-2.643,5.141-5.648,4.58l-40.052-7.47a1.866,1.866,0,0,1-1.492-2.177l.663-3.554s42.124,7.372,46.55,8.6Z" transform="translate(-224.065 -387.107)" fill="#f1f2f2"/>
                <path id="Path_51003" data-name="Path 51003" d="M258.678,398.892c-.418-.362-.82-.721-1.237-1.084-.8-.719-1.594-1.42-2.355-2.1-.4-.359-.8-.719-1.176-1.056-.732-.656-1.421-1.27-2.038-1.82-.444-.4-.859-.78-1.232-1.117L249,390.251a.906.906,0,0,0-1.192-.024c-1.646,1.384-6.968,4.549-16.607-1.415a.925.925,0,0,0-1.311.342l-5.829,11.2s42.124,7.372,46.55,8.6C269.16,408.047,263.782,403.394,258.678,398.892Z" transform="translate(-223.37 -388.669)" fill="#19325a"/>
              </g>
            </g>
          </g>
        </g>
        <g id="Group_69903" data-name="Group 69903" transform="translate(177.17 291.457)">
          <g id="Group_69902" data-name="Group 69902" transform="translate(0)">
            <g id="Group_69901" data-name="Group 69901" transform="translate(0)">
              <g id="Group_69900" data-name="Group 69900">
                <path id="Path_51004" data-name="Path 51004" d="M216.816,406.07c-.075,3.055-1.79,5.5-4.845,5.421l-40.732-.995a1.868,1.868,0,0,1-1.82-1.911l.089-3.613s42.761.566,47.325,1.072Z" transform="translate(-169.418 -390.876)" fill="#f1f2f2"/>
                <path id="Path_51005" data-name="Path 51005" d="M203.356,399.9c-.47-.291-.925-.582-1.394-.874-.908-.582-1.8-1.146-2.659-1.694-.454-.291-.907-.582-1.329-.855-.826-.531-1.606-1.027-2.3-1.473-.5-.326-.972-.633-1.393-.906-.773-.5-1.406-.9-1.849-1.187a.9.9,0,0,0-1.18.165c-1.406,1.629-6.155,5.6-16.621,1.249a.925.925,0,0,0-1.241.546l-3.969,11.989s42.761.566,47.325,1.072C215.162,407.264,209.112,403.527,203.356,399.9Z" transform="translate(-169.329 -392.759)" fill="#19325a"/>
              </g>
            </g>
          </g>
        </g>
        <g id="Group_69905" data-name="Group 69905" transform="translate(148.065 82.913)">
          <path id="Path_51006" data-name="Path 51006" d="M187.412,270.1l21.753-58.016H147.236L125.483,270.1Z" transform="translate(-81.934 -212.082)" fill="#7eceff"/>
          <path id="Path_51007" data-name="Path 51007" d="M179.136,270.1h3.828l21.753-58.016-3.477.155-20.12,52.513Z" transform="translate(-139.416 -212.082)" fill="#3eaff3"/>
          <path id="Path_51008" data-name="Path 51008" d="M206.339,256.914h-77.97" transform="translate(-82.44 -205.168)" fill="none"/>
          <g id="Group_69904" data-name="Group 69904" transform="translate(0 54.358)">
            <path id="Path_51009" data-name="Path 51009" d="M240.455,262.835H199.534l.111-3.658h41.647" transform="translate(-199.534 -259.177)" fill="#3eaff3"/>
          </g>
        </g>
        <g id="Group_69910" data-name="Group 69910" transform="translate(0 140.93)">
          <g id="Group_69906" data-name="Group 69906" transform="translate(14.649 11.064)">
            <rect id="Rectangle_28107" data-name="Rectangle 28107" width="9.852" height="161.863" transform="translate(0)" fill="#a5bbc9"/>
          </g>
          <g id="Group_69907" data-name="Group 69907" transform="translate(68.128 11.064)">
            <rect id="Rectangle_28108" data-name="Rectangle 28108" width="9.852" height="161.863" transform="translate(0)" fill="#bfd1dd"/>
          </g>
          <g id="Group_69908" data-name="Group 69908" transform="translate(239.461 11.064)">
            <rect id="Rectangle_28109" data-name="Rectangle 28109" width="9.852" height="161.863" transform="translate(0)" fill="#a5bbc9"/>
          </g>
          <g id="Group_69909" data-name="Group 69909" transform="translate(292.94 11.064)">
            <rect id="Rectangle_28110" data-name="Rectangle 28110" width="9.852" height="161.863" transform="translate(0)" fill="#bfd1dd"/>
          </g>
          <rect id="Rectangle_28111" data-name="Rectangle 28111" width="317.019" height="11.68" rx="4.149" fill="#47b6fb"/>
        </g>
        <path id="Path_51010" data-name="Path 51010" d="M147.837,217.366l-1.059,2.825H134.441l1.059-2.825Z" transform="translate(117.118 -128.354)" fill="#3eaff3"/>
        <path id="Path_51011" data-name="Path 51011" d="M251.72,229.238l.885,1.711-12.485,12.9v-3.788Z" transform="translate(-109.629 -126.523)" fill="#e8987c"/>
      </g>
    </g>
    <g id="Group_69917" data-name="Group 69917" transform="translate(0 234.622)">
      <rect id="Rectangle_28112" data-name="Rectangle 28112" width="453.53" height="11.383" transform="translate(45 146.955)" fill="#c7e8ff"/>
      <g id="Group_69916" data-name="Group 69916" transform="translate(74.536)">
        <g id="Group_69913" data-name="Group 69913" transform="translate(0 18.154)">
          <path id="Path_51012" data-name="Path 51012" d="M375.16,343.144c1.981,9.609,1.384,25.977,14.1,28.57,3.422.7,6.729-1.675,8.719-4.394,2.6-3.559,3.227-11.091,3.182-15.4-.037-3.414-1.2-7.222-1.575-10.666-.405-3.72-.734-7.448-1.168-11.166-1.564-13.4-8.563-24.628-20.4-31.316-.916,4.4-3.006,8.12-4.847,12.343a43.706,43.706,0,0,0-2.143,5.973c-.968,3.572.2,7.183,1.071,10.605C373.377,332.754,374.1,338.026,375.16,343.144Z" transform="translate(-370.657 -298.773)" fill="url(#linear-gradient)"/>
          <path id="Path_51013" data-name="Path 51013" d="M390.691,371.4c-.09-.806-.19-1.611-.3-2.417a10.341,10.341,0,0,1-4.376-1.528,23.24,23.24,0,0,1-5.741-4.547c-.093-.094.063-.246.163-.163a25.865,25.865,0,0,0,5.591,3.826,15.73,15.73,0,0,0,4.248,1.581q-.2-1.442-.441-2.88c-1.581-.194-3.03-1.233-4.37-2.027a49.948,49.948,0,0,1-6.263-4.782.023.023,0,0,1,.029-.036c3.1,2.254,6.562,5.463,10.488,6.166-.208-1.2-.428-2.4-.68-3.587-.013-.062-.027-.124-.04-.186-4.544-1.15-7.618-4.714-11.1-7.595-.057-.047,0-.143.063-.1,3.427,2.66,6.646,5.7,10.882,6.989-.367-1.7-.749-3.4-1.133-5.092a24.256,24.256,0,0,1-10.269-7.281c-.048-.057.031-.135.083-.081,2.974,3.1,6.25,4.873,10.022,6.636-.381-1.678-.757-3.355-1.115-5.037a37.744,37.744,0,0,1-5.292-2.558,14.484,14.484,0,0,1-4.118-4.176.081.081,0,0,1,.136-.087c2.3,3.307,5.77,4.336,9.122,6.076-.327-1.567-.631-3.141-.9-4.722-3.736-2.057-7.794-3.964-9.911-7.905-.021-.038.033-.077.058-.038,2.243,3.621,6.162,5.181,9.72,7.153-.046-.282-.1-.562-.141-.845-.23-1.466-.443-2.935-.653-4.4a35.857,35.857,0,0,1-6.124-3.331,11.657,11.657,0,0,1-3.733-3.179.081.081,0,0,1,.133-.094c2,2.871,6.391,4.53,9.632,5.966q-.315-2.225-.63-4.451c-3.6-2.176-7.827-3.38-10.039-7.3a.1.1,0,0,1,.178-.111c2.291,3.582,6.326,4.686,9.764,6.719q-.2-1.378-.405-2.755c-3.883-1.428-8.4-4.679-10.447-8.189a.174.174,0,0,1,.293-.187,21.8,21.8,0,0,0,10.039,7.647c-.23-1.488-.47-2.973-.734-4.456a.389.389,0,0,1-.058-.13,22.259,22.259,0,0,1-4.972-2.672,13.591,13.591,0,0,1-4.676-4.26c-.125-.2.207-.391.323-.182,1.726,3.078,5.819,5.141,9.207,6.317-.1-.54-.2-1.082-.3-1.622-.159-.808-.324-1.615-.489-2.422-1.387-.958-3.149-1.416-4.542-2.429a25.7,25.7,0,0,1-3.306-3.013c-.1-.107.05-.271.158-.169a21.872,21.872,0,0,0,4.564,3.505c.957.511,2.048.8,2.974,1.365-.271-1.319-.541-2.639-.8-3.96-.016,0-.032-.007-.048-.01l-.05.01a.248.248,0,0,1-.228-.07c-1.886-.476-3.33-2.1-4.6-3.485a.035.035,0,0,1,.048-.05,12.59,12.59,0,0,0,4.624,3.12.124.124,0,0,1,.018-.008l.136-.021q-.312-1.614-.583-3.232a.247.247,0,0,1-.223-.277,19.862,19.862,0,0,1-2.762-2.365.069.069,0,0,1,.095-.1,16.114,16.114,0,0,0,2.759,1.947,66.67,66.67,0,0,1-.75-6.736c-.012-.21.306-.212.324-.006.2,2.179.515,4.338.889,6.486a20.037,20.037,0,0,0,2.835-4.334c.033-.081.162-.048.134.039a12.367,12.367,0,0,1-1.379,2.682,16.317,16.317,0,0,1-1.461,2.357q.315,1.73.674,3.452a6.365,6.365,0,0,0,3.47-1.36,6.3,6.3,0,0,0,2.133-4.336c.015-.208.343-.207.324,0a7.174,7.174,0,0,1-1.846,4.223,6.751,6.751,0,0,1-3.983,1.943q.416,1.989.855,3.975a30.939,30.939,0,0,0,3.253-2.416c1.671-1.332,2.658-2.935,4.109-4.435.145-.15.383.067.239.219-1.36,1.445-2.278,3.01-3.826,4.31a22.045,22.045,0,0,1-3.67,2.8l.046.21c.015.013.03.023.044.037a.213.213,0,0,1,.03.3c.279,1.267.557,2.536.825,3.807.017.08.031.16.047.24,2.957-1.354,7.376-3.706,7.767-7.137a.231.231,0,1,1,.45.1c-.875,3.882-5.142,5.6-8.081,7.718q.435,2.156.8,4.324a17.5,17.5,0,0,0,5.329-2.745c1.459-1.16,3.522-2.559,4.178-4.356.021-.057.1-.02.085.037-.608,1.786-2.46,3.013-3.806,4.231a14.24,14.24,0,0,1-5.656,3.478.39.39,0,0,1,.006.193q.225,1.375.436,2.752c3.591-.276,8.615-3,10.45-5.719.009-.013.027,0,.018.014a11.785,11.785,0,0,1-5.277,4.335,14.564,14.564,0,0,1-5.118,1.848c.257,1.7.507,3.4.761,5.1,1.558-.581,3.209-.859,4.75-1.476a11.761,11.761,0,0,0,5.393-4.59c.081-.122.285-.02.2.108-2.486,3.952-6.062,5.111-10.252,6.592q.315,2.091.658,4.179c3.428-.658,7.864-2.751,9.6-5.728.128-.218.476-.037.349.184a11.117,11.117,0,0,1-4.91,4.088c-1.387.7-3.3,1.862-4.951,1.986.008.045.015.091.023.136.338,2,.734,4,1.162,5.981,3.83-.963,6.306-3.8,9.09-6.457.194-.185.5.1.3.286-2.836,2.792-5.327,5.72-9.267,6.752q.53,2.424,1.12,4.835a17.7,17.7,0,0,0,8.6-5.887c.15-.188.412.067.27.255a19.048,19.048,0,0,1-8.721,6.256q.635,2.587,1.3,5.166c3.352-.51,5.934-2.609,8-5.26.048-.062.156.018.11.083-1.833,2.551-4.608,5.5-7.945,5.806q.213.824.425,1.647c.085.331.175.667.267,1.005a19.012,19.012,0,0,0,6.958-3.354c.059-.047.126.043.07.092a18.14,18.14,0,0,1-6.891,3.767c.282,1.033.578,2.095.871,3.178a14.14,14.14,0,0,1,1.919-.817,13.8,13.8,0,0,0,3.165-1.832c.1-.06.214.082.113.148a14.364,14.364,0,0,1-2.732,1.847c-.811.306-1.577.695-2.36,1.043,1.152,4.294,2.17,8.856,1.617,12.978-.122.914-1.655,1.157-1.892.184C390.994,377.642,391.032,374.451,390.691,371.4Z" transform="translate(-369.941 -298.133)" fill="#7eceff"/>
        </g>
        <g id="Group_69914" data-name="Group 69914" transform="translate(40.04 20.752)">
          <path id="Path_51014" data-name="Path 51014" d="M338.005,340.045c-2.261,9.548-9.709,24.135.72,31.85,2.809,2.078,6.808,1.323,9.76-.3,3.862-2.127,7.606-8.693,9.383-12.617,1.409-3.111,1.96-7.055,3.074-10.335,1.2-3.543,2.478-7.063,3.654-10.616,4.237-12.807,2.631-25.941-5.279-37-2.687,3.6-6.152,6.093-9.6,9.145a43.676,43.676,0,0,0-4.465,4.51c-2.386,2.831-2.848,6.6-3.5,10.067C340.774,329.874,339.208,334.962,338.005,340.045Z" transform="translate(-333.312 -301.024)" fill="url(#linear-gradient-2)"/>
          <path id="Path_51015" data-name="Path 51015" d="M341,372.42q.388-1.155.751-2.318a10.334,10.334,0,0,1-3.322-3.232,23.27,23.27,0,0,1-3.286-6.546c-.044-.123.162-.2.216-.077a25.9,25.9,0,0,0,3.455,5.829,15.716,15.716,0,0,0,3.182,3.225q.428-1.392.817-2.8c-1.353-.843-2.228-2.4-3.106-3.681a50.058,50.058,0,0,1-3.66-6.979.024.024,0,0,1,.042-.022c1.863,3.354,3.644,7.723,6.906,10.018.319-1.176.624-2.355.9-3.539.015-.062.028-.123.042-.186-3.634-2.961-4.917-7.489-6.855-11.569-.031-.067.063-.128.1-.061,1.984,3.859,3.621,7.971,6.916,10.929.384-1.7.755-3.4,1.122-5.1a24.232,24.232,0,0,1-6.237-10.935.058.058,0,0,1,.11-.038c1.39,4.062,3.609,7.056,6.285,10.245.364-1.681.729-3.361,1.116-5.037A37.461,37.461,0,0,1,342.767,346a14.465,14.465,0,0,1-1.971-5.524.081.081,0,0,1,.16-.021c.69,3.968,3.4,6.366,5.705,9.357q.547-2.339,1.173-4.662c-2.519-3.442-5.394-6.883-5.649-11.35,0-.044.063-.057.069-.01.5,4.229,3.4,7.3,5.793,10.587.076-.275.149-.551.227-.825q.618-2.14,1.267-4.267a35.863,35.863,0,0,1-4.147-5.6,11.674,11.674,0,0,1-2.042-4.458.081.081,0,0,1,.159-.029c.606,3.449,3.883,6.8,6.214,9.475q.653-2.152,1.308-4.3c-2.342-3.492-5.67-6.368-6.02-10.857a.1.1,0,0,1,.208-.025c.566,4.214,3.757,6.918,6.015,10.213q.4-1.335.8-2.67c-2.918-2.933-5.64-7.786-6.015-11.833a.174.174,0,0,1,.345-.046,21.782,21.782,0,0,0,5.874,11.17c.419-1.445.829-2.894,1.214-4.349a.426.426,0,0,1,0-.143,22.264,22.264,0,0,1-3.38-4.52,13.6,13.6,0,0,1-2.441-5.836.186.186,0,0,1,.37-.03c.264,3.519,3.1,7.117,5.681,9.614.137-.532.277-1.064.409-1.6q.293-1.2.577-2.4c-.853-1.454-2.257-2.613-3.092-4.118a25.6,25.6,0,0,1-1.726-4.128.116.116,0,0,1,.215-.085,21.793,21.793,0,0,0,2.658,5.1c.651.869,1.517,1.594,2.119,2.494.312-1.31.623-2.62.946-3.927-.014-.009-.025-.021-.039-.031l-.05-.012a.245.245,0,0,1-.177-.16c-1.51-1.227-2.133-3.309-2.7-5.1a.035.035,0,0,1,.065-.024,12.6,12.6,0,0,0,2.875,4.78.119.119,0,0,0,.021,0l.132.038q.4-1.593.836-3.175a.247.247,0,0,1-.085-.345,19.726,19.726,0,0,1-1.505-3.309.069.069,0,0,1,.128-.053,16.109,16.109,0,0,0,1.679,2.929,66.747,66.747,0,0,1,2.163-6.423c.077-.2.366-.063.3.132-.741,2.059-1.365,4.149-1.932,6.255a20.044,20.044,0,0,0,4.4-2.732c.063-.06.166.024.1.091a12.411,12.411,0,0,1-2.382,1.85,16.462,16.462,0,0,1-2.319,1.52c-.3,1.133-.577,2.271-.847,3.413a6.367,6.367,0,0,0,3.72.233,6.3,6.3,0,0,0,3.764-3.032c.1-.181.4-.042.293.138a7.184,7.184,0,0,1-3.456,3.051,6.757,6.757,0,0,1-4.431.08q-.462,1.979-.9,3.964a31.027,31.027,0,0,0,3.968-.816c2.078-.5,3.65-1.54,5.6-2.287a.162.162,0,0,1,.125.3c-1.843.738-3.337,1.768-5.289,2.292a21.964,21.964,0,0,1-4.508.988l-.046.209c.007.018.017.035.024.053a.213.213,0,0,1-.1.281c-.282,1.269-.564,2.536-.859,3.8-.017.078-.039.157-.058.237,3.251.021,8.25-.246,10.053-3.19.172-.281.575.007.366.278-2.431,3.15-7.026,2.909-10.583,3.587q-.518,2.138-1.1,4.257a17.507,17.507,0,0,0,5.989-.239c1.812-.436,4.272-.835,5.626-2.186.043-.042.1.026.062.069-1.305,1.363-3.5,1.694-5.237,2.23a14.227,14.227,0,0,1-6.594.766.4.4,0,0,1-.076.178q-.376,1.34-.765,2.678c3.372,1.266,9.077.914,11.887-.773.013-.008.023.012.01.02a11.782,11.782,0,0,1-6.613,1.7,14.591,14.591,0,0,1-5.42-.485c-.484,1.648-.975,3.3-1.464,4.944,1.657.132,3.271.576,4.93.667a11.765,11.765,0,0,0,6.826-1.887c.125-.076.267.1.14.185-3.922,2.534-7.654,2.076-12.077,1.649q-.6,2.029-1.168,4.066c3.387.852,8.29.826,11.12-1.142.208-.144.447.167.238.314a11.122,11.122,0,0,1-6.176,1.633c-1.554.05-3.776.3-5.327-.289-.012.044-.025.089-.037.134-.538,1.959-1.02,3.931-1.471,5.912,3.878.745,7.321-.784,10.965-2.016.254-.085.409.3.155.388-3.749,1.333-7.244,2.938-11.251,2.209q-.542,2.422-1.026,4.856a17.7,17.7,0,0,0,10.283-1.706c.215-.108.345.234.137.344a19.028,19.028,0,0,1-10.546,1.991c-.345,1.743-.674,3.489-1,5.234,3.254.952,6.48.14,9.47-1.393.069-.036.133.083.065.122-2.739,1.539-6.5,3.039-9.654,1.91q-.156.836-.309,1.672c-.062.336-.124.679-.184,1.024a19.034,19.034,0,0,0,7.724-.1c.073-.018.095.091.024.113a18.129,18.129,0,0,1-7.837.507c-.18,1.056-.359,2.143-.551,3.249a13.9,13.9,0,0,1,2.085.069,13.852,13.852,0,0,0,3.643-.324c.117-.013.159.164.039.181a14.323,14.323,0,0,1-3.255.521c-.865-.066-1.723-.035-2.581-.051-.768,4.379-1.769,8.946-4.011,12.45-.5.777-1.989.349-1.794-.633C338.636,378.21,340.017,375.331,341,372.42Z" transform="translate(-333.77 -300.347)" fill="#7eceff"/>
        </g>
        <g id="Group_69915" data-name="Group 69915" transform="translate(21.156)">
          <path id="Path_51016" data-name="Path 51016" d="M350.926,335.418c-.537,12.13-6.216,31.588,8.252,38.553,3.9,1.876,8.582.031,11.794-2.628,4.2-3.48,7.235-12.328,8.486-17.511.993-4.108.75-9.03,1.345-13.275.642-4.587,1.377-9.16,1.984-13.753,2.185-16.549-2.808-32.145-14.985-43.759-2.433,5-6.068,8.832-9.557,13.341a54.1,54.1,0,0,0-4.384,6.517c-2.245,3.994-1.934,8.681-1.929,13.05C351.938,322.412,351.212,328.959,350.926,335.418Z" transform="translate(-349.382 -283.045)" fill="url(#linear-gradient-3)"/>
          <path id="Path_51017" data-name="Path 51017" d="M361.75,374.173q.2-1.491.377-2.991c-1.821-.465-3.457-1.981-4.785-3.159a28.822,28.822,0,0,1-5.511-7.2c-.083-.141.151-.275.245-.145a32.036,32.036,0,0,0,5.548,6.286,19.5,19.5,0,0,0,4.617,3.186q.2-1.794.344-3.59c-1.839-.712-3.262-2.4-4.627-3.757a62.021,62.021,0,0,1-6.065-7.635.029.029,0,0,1,.045-.036c3.041,3.646,6.218,8.545,10.716,10.579.115-1.5.214-3.007.272-4.511,0-.078,0-.156.008-.234-5.1-2.757-7.712-7.966-11.014-12.478-.053-.073.048-.17.106-.1,3.3,4.233,6.247,8.853,10.937,11.685.075-2.153.132-4.3.184-6.453a30.007,30.007,0,0,1-10.113-11.851.071.071,0,0,1,.123-.072c2.631,4.617,6.022,7.743,10.013,11,.052-2.127.109-4.255.19-6.382-1.87-1.588-3.953-2.794-5.575-4.672a17.92,17.92,0,0,1-3.675-6.259.1.1,0,0,1,.19-.064c1.757,4.667,5.607,6.953,9.1,10.057.084-1.981.2-3.96.347-5.94-3.859-3.6-8.151-7.118-9.495-12.49-.014-.053.063-.083.081-.029,1.593,5.024,5.823,8.084,9.495,11.53.029-.352.052-.7.085-1.057.17-1.828.358-3.655.552-5.481a44.255,44.255,0,0,1-6.339-5.853c-1.373-1.487-2.862-2.993-3.515-4.946a.1.1,0,0,1,.188-.072c1.534,4.051,6.3,7.373,9.747,10.079q.3-2.765.593-5.531c-3.654-3.7-8.366-6.427-9.832-11.8a.129.129,0,0,1,.246-.077c1.664,4.991,6.171,7.541,9.678,11.021q.18-1.714.349-3.429c-4.226-2.889-8.658-8.159-10.051-12.992a.216.216,0,0,1,.409-.136,26.969,26.969,0,0,0,9.727,12.219c.175-1.854.338-3.71.471-5.568a.51.51,0,0,1-.03-.175c-1.937-1.145-3.631-3.143-5.156-4.713a16.829,16.829,0,0,1-4.318-6.53.23.23,0,0,1,.443-.121c1.136,4.216,5.423,7.933,9.132,10.371.044-.679.091-1.357.126-2.037q.08-1.527.147-3.054c-1.375-1.57-3.348-2.655-4.713-4.291a31.815,31.815,0,0,1-3.054-4.617.144.144,0,0,1,.242-.154,27.028,27.028,0,0,0,4.411,5.589c.993.9,2.214,1.586,3.156,2.54.074-1.666.15-3.33.241-4.993-.02-.009-.037-.02-.055-.028l-.063,0a.3.3,0,0,1-.252-.154c-2.119-1.143-3.359-3.53-4.46-5.575a.043.043,0,0,1,.073-.045c1.225,1.88,2.625,3.972,4.6,5.146.009,0,.016,0,.025,0l.17.016q.116-2.031.28-4.055a.3.3,0,0,1-.185-.4,24.593,24.593,0,0,1-2.6-3.675.086.086,0,0,1,.144-.093,20.008,20.008,0,0,0,2.719,3.173,82.672,82.672,0,0,1,1.143-8.31c.05-.255.431-.162.391.092-.425,2.674-.7,5.36-.9,8.051a24.811,24.811,0,0,0,4.715-4.341c.065-.087.209-.008.149.088a15.345,15.345,0,0,1-2.468,2.8,20.413,20.413,0,0,1-2.468,2.386c-.1,1.446-.175,2.9-.239,4.346a7.879,7.879,0,0,0,4.575-.578,7.792,7.792,0,0,0,3.874-4.558c.082-.244.476-.143.389.1a8.881,8.881,0,0,1-3.495,4.508,8.358,8.358,0,0,1-5.368,1.123q-.1,2.512-.179,5.028a38.11,38.11,0,0,0,4.634-1.911c2.41-1.092,4.08-2.716,6.276-4.076.22-.136.44.2.222.336-2.071,1.322-3.647,2.921-5.9,4.011a27.175,27.175,0,0,1-5.252,2.244l-.009.265c.014.021.029.038.042.059a.264.264,0,0,1-.054.365c-.05,1.606-.1,3.212-.164,4.818,0,.1-.012.2-.016.3,3.958-.727,9.974-2.209,11.483-6.206a.286.286,0,1,1,.509.254c-2.227,4.393-7.867,5.163-12.036,6.812q-.132,2.718-.351,5.43A21.639,21.639,0,0,0,373.9,318.7c2.1-.949,5-2,6.333-3.959.043-.061.132.008.091.069-1.271,1.959-3.863,2.871-5.848,3.924a17.632,17.632,0,0,1-7.84,2.458.485.485,0,0,1-.052.233q-.145,1.716-.31,3.433c4.393.757,11.248-.99,14.273-3.694.014-.013.031.009.018.022-2.131,2.108-4.769,2.987-7.647,3.6-2.15.459-4.5,1.052-6.7.666-.206,2.117-.422,4.234-.634,6.349,2.045-.224,4.11-.058,6.147-.331a14.546,14.546,0,0,0,7.86-3.874c.135-.121.349.064.214.193-4.182,3.988-8.824,4.295-14.3,4.8q-.256,2.606-.478,5.215c4.313.25,10.269-.915,13.253-3.964.219-.223.582.1.362.327-1.894,1.958-4.526,2.832-7.131,3.415-1.877.42-4.521,1.235-6.541.883-.006.057-.01.114-.015.171-.2,2.506-.33,5.016-.419,7.528,4.888.007,8.719-2.648,12.864-4.99.289-.163.566.267.278.435-4.25,2.49-8.127,5.248-13.167,5.292q-.1,3.068-.122,6.141a21.9,21.9,0,0,0,12.106-4.455c.237-.181.473.205.246.387a23.562,23.562,0,0,1-12.361,4.863c-.015,2.2-.012,4.4,0,6.594,4.176.4,7.91-1.331,11.19-3.886.076-.06.182.07.107.133-2.973,2.506-7.2,5.2-11.294,4.558q.005,1.053.012,2.105,0,.635.014,1.287a23.564,23.564,0,0,0,9.367-1.915c.084-.04.136.089.055.132a22.459,22.459,0,0,1-9.41,2.431c.025,1.325.06,2.689.083,4.077a17.451,17.451,0,0,1,2.551-.4c1.622-.072,2.841-.78,4.353-1.237.138-.043.232.163.09.211-1.341.459-2.4,1.223-3.837,1.386-1.068.121-2.1.357-3.149.537.081,5.5-.081,11.285-1.995,16.062-.424,1.06-2.337.885-2.327-.353C360.221,381.759,361.233,377.94,361.75,374.173Z" transform="translate(-349.471 -282.206)" fill="#7eceff"/>
        </g>
        <path id="Path_51018" data-name="Path 51018" d="M349.984,366.66l.536,9.861.838,15.354L352.73,417.1h34.156l1.373-25.229.838-15.354.536-9.861Z" transform="translate(-335.268 -270.149)" fill="#3e5780"/>
        <path id="Path_51019" data-name="Path 51019" d="M350.448,375.2l.11,1.978.11,2.046.618,11.33h36.9l.618-11.33.11-2.046.11-1.978Z" transform="translate(-335.197 -268.831)" fill="#7386a5"/>
        <path id="Path_51020" data-name="Path 51020" d="M350.543,376.916l.11,2.046h38.139l.11-2.046Z" transform="translate(-335.182 -268.567)" fill="#95a8b5"/>
      </g>
    </g>
  </g>
</svg>
