<svg xmlns="http://www.w3.org/2000/svg" width="46.06" height="49.533" viewBox="0 0 46.06 49.533">
  <g id="Group_55707" data-name="Group 55707" transform="translate(-2.995 -1)">
    <g id="XMLID_1282_" transform="translate(2 1)">
      <g id="XMLID_1678_" transform="translate(18.162 3.302)">
        <g id="Group_55646" data-name="Group 55646">
          <g id="Group_55645" data-name="Group 55645">
            <path id="Path_14112" data-name="Path 14112" d="M18.779,4.651H13.826a.826.826,0,1,1,0-1.651h4.953a.826.826,0,1,1,0,1.651Z" transform="translate(-13 -3)" fill="#222872"/>
          </g>
        </g>
      </g>
      <g id="XMLID_1677_" transform="translate(8.255 16.511)">
        <g id="Group_55648" data-name="Group 55648">
          <g id="Group_55647" data-name="Group 55647">
            <path id="Path_14113" data-name="Path 14113" d="M29.29,44.022H11.128A4.132,4.132,0,0,1,7,39.894V28.336a.826.826,0,1,1,1.651,0V39.894a2.48,2.48,0,0,0,2.477,2.477H29.29a2.48,2.48,0,0,0,2.477-2.477V11.826a.826.826,0,1,1,1.651,0V39.894A4.132,4.132,0,0,1,29.29,44.022Z" transform="translate(-7 -11)" fill="#222872"/>
          </g>
        </g>
      </g>
      <g id="XMLID_1676_" transform="translate(8.255)">
        <g id="Group_55650" data-name="Group 55650">
          <g id="Group_55649" data-name="Group 55649">
            <path id="Path_14114" data-name="Path 14114" d="M32.592,7.6a.826.826,0,0,1-.826-.826V5.128A2.48,2.48,0,0,0,29.29,2.651H11.128A2.48,2.48,0,0,0,8.651,5.128V6.779A.826.826,0,0,1,7,6.779V5.128A4.132,4.132,0,0,1,11.128,1H29.29a4.132,4.132,0,0,1,4.128,4.128V6.779A.826.826,0,0,1,32.592,7.6Z" transform="translate(-7 -1)" fill="#222872"/>
          </g>
        </g>
      </g>
      <g id="XMLID_1669_" transform="translate(13.209 37.975)">
        <g id="Group_55652" data-name="Group 55652">
          <g id="Group_55651" data-name="Group 55651">
            <path id="Path_14115" data-name="Path 14115" d="M17.43,25.651h-6.6a.826.826,0,1,1,0-1.651h6.6a.826.826,0,1,1,0,1.651Z" transform="translate(-10 -24)" fill="#222872"/>
          </g>
        </g>
      </g>
      <g id="XMLID_1294_" transform="translate(13.209 41.277)">
        <g id="Group_55654" data-name="Group 55654">
          <g id="Group_55653" data-name="Group 55653">
            <path id="Path_14116" data-name="Path 14116" d="M22.383,27.651H10.826a.826.826,0,0,1,0-1.651H22.383a.826.826,0,0,1,0,1.651Z" transform="translate(-10 -26)" fill="#222872"/>
          </g>
        </g>
      </g>
      <g id="XMLID_1663_" transform="translate(13.209 34.673)">
        <g id="Group_55656" data-name="Group 55656">
          <g id="Group_55655" data-name="Group 55655">
            <path id="Path_14117" data-name="Path 14117" d="M25.685,23.651H10.826a.826.826,0,1,1,0-1.651h14.86a.826.826,0,0,1,0,1.651Z" transform="translate(-10 -22)" fill="#222872"/>
          </g>
        </g>
      </g>
      <g id="XMLID_1575_" transform="translate(3.302 34.508)">
        <g id="XMLID_1641_">
          <g id="Group_55664" data-name="Group 55664">
            <g id="Group_55663" data-name="Group 55663">
              <path id="Path_14121" data-name="Path 14121" d="M4.826,23.634A.759.759,0,0,1,4,22.891v-.165a.826.826,0,0,1,1.651,0,.9.9,0,0,1-.826.908Z" transform="translate(-4 -21.9)" fill="#222872"/>
            </g>
          </g>
        </g>
        <g id="XMLID_1597_" transform="translate(0 3.302)">
          <g id="Group_55666" data-name="Group 55666">
            <g id="Group_55665" data-name="Group 55665">
              <path id="Path_14122" data-name="Path 14122" d="M4.826,25.634A.759.759,0,0,1,4,24.891v-.165a.826.826,0,1,1,1.651,0,.9.9,0,0,1-.826.908Z" transform="translate(-4 -23.9)" fill="#222872"/>
            </g>
          </g>
        </g>
        <g id="XMLID_1578_" transform="translate(0 6.604)">
          <g id="Group_55668" data-name="Group 55668">
            <g id="Group_55667" data-name="Group 55667">
              <path id="Path_14123" data-name="Path 14123" d="M4.826,27.634A.759.759,0,0,1,4,26.891v-.165a.826.826,0,1,1,1.651,0,.9.9,0,0,1-.826.908Z" transform="translate(-4 -25.9)" fill="#222872"/>
            </g>
          </g>
        </g>
      </g>
      <g id="XMLID_1295_" transform="translate(34.673 19.813)">
        <g id="Group_55670" data-name="Group 55670">
          <g id="Group_55669" data-name="Group 55669">
            <path id="Path_14124" data-name="Path 14124" d="M25.212,36.115H23.826a.826.826,0,0,1,0-1.651h.722l.4-1.874a.823.823,0,0,1,.613-.627,7.911,7.911,0,0,0,2.257-.943.825.825,0,0,1,.873.008l1.635,1.045,1.012-1.02L30.3,29.432a.827.827,0,0,1-.012-.877,7.859,7.859,0,0,0,.941-2.257.828.828,0,0,1,.624-.614l1.881-.418V23.851l-1.881-.418a.828.828,0,0,1-.624-.614,7.906,7.906,0,0,0-.941-2.257.821.821,0,0,1,.01-.875l1.047-1.636-1.01-1.01-1.636,1.047a.822.822,0,0,1-.873.008,7.95,7.95,0,0,0-2.257-.943.823.823,0,0,1-.613-.627l-.4-1.874h-.722a.826.826,0,1,1,0-1.651h1.387a.825.825,0,0,1,.806.652l.441,2.036a9.554,9.554,0,0,1,1.768.74L30,15.293a.827.827,0,0,1,1.029.112l1.95,1.948a.824.824,0,0,1,.111,1.029l-1.134,1.773a9.583,9.583,0,0,1,.74,1.772l2.039.452a.826.826,0,0,1,.647.806v2.741a.825.825,0,0,1-.647.806l-2.039.452a9.522,9.522,0,0,1-.74,1.77l1.133,1.757a.822.822,0,0,1-.107,1.029L31.031,33.7a.825.825,0,0,1-1.03.114l-1.773-1.134a9.6,9.6,0,0,1-1.768.74l-.441,2.036a.825.825,0,0,1-.806.655Z" transform="translate(-23 -13)" fill="#222872"/>
          </g>
        </g>
      </g>
      <g id="XMLID_1874_" transform="translate(33.068 26.418)">
        <g id="Group_55672" data-name="Group 55672">
          <g id="Group_55671" data-name="Group 55671">
            <path id="Path_14125" data-name="Path 14125" d="M26.2,26.524a.825.825,0,0,1-.348-1.573,3.3,3.3,0,0,0-1.39-6.3,3.262,3.262,0,0,0-1.283.259.825.825,0,0,1-.644-1.519A4.891,4.891,0,0,1,24.458,17a4.954,4.954,0,0,1,2.087,9.446.822.822,0,0,1-.348.078Z" transform="translate(-22.028 -17)" fill="#222872"/>
          </g>
        </g>
      </g>
      <g id="XMLID_1894_" transform="translate(26.418 8.255)">
        <g id="Group_55674" data-name="Group 55674">
          <g id="Group_55673" data-name="Group 55673">
            <path id="Path_14126" data-name="Path 14126" d="M31.209,12.6H21.3a3.3,3.3,0,1,1,0-6.6h9.907a3.3,3.3,0,1,1,0,6.6ZM21.3,7.651a1.651,1.651,0,0,0,0,3.3h9.907a1.651,1.651,0,0,0,0-3.3Z" transform="translate(-18 -6)" fill="#222872"/>
          </g>
        </g>
      </g>
      <g id="Group_55706" data-name="Group 55706" transform="translate(1.645 9.975)">
        <g id="Group_55699" data-name="Group 55699">
          <g id="Group_55696" data-name="Group 55696">
            <g id="Group_55700" data-name="Group 55700">
              <g id="Group_55694" data-name="Group 55694">
                <g id="Group_55701" data-name="Group 55701">
                  <path id="Path_14150" data-name="Path 14150" d="M4.492,0H15.327c.7,1.138,1.4,2.279,2.11,3.414C18.227,4.68,19.025,5.94,19.82,7.2v.2a.563.563,0,0,0-.067.143c-.181,1.174-.357,2.349-.537,3.523-.385,2.512-.776,5.023-1.151,7.536-.041.276-.155.33-.4.325-.737-.014-1.475-.005-2.213-.005h-.612l.208-2.679H13.449c-.066.8-.135,1.582-.189,2.36-.016.228-.087.325-.337.324q-3.005-.013-6.011,0c-.219,0-.311-.062-.326-.291Q6.515,17.566,6.4,16.5c-.01-.1-.119-.263-.188-.267-.459-.024-.92-.012-1.425-.012L5,18.881a.683.683,0,0,1-.143.037c-.936,0-1.871,0-2.807.008-.214,0-.242-.118-.268-.289q-.72-4.731-1.451-9.46C.233,8.539.111,7.9,0,7.269V7.2A1.688,1.688,0,0,0,.142,7.03Q2.272,3.619,4.4.205A1.692,1.692,0,0,0,4.492,0M8.314,3.629C8.2,3.619,8.1,3.6,8.007,3.6c-.77,0-1.541.008-2.311-.006a.406.406,0,0,0-.427.27c-.506,1.038-1.031,2.066-1.535,3.1a.952.952,0,0,0-.094.5c.267,2.205.556,4.408.816,6.615.037.317.166.361.436.361q5.034-.01,10.069-.005c.117,0,.235-.012.357-.019.023-.124.047-.219.059-.317.273-2.194.551-4.387.809-6.582a1.209,1.209,0,0,0-.12-.622c-.381-.8-.85-1.574-1.167-2.4a1.23,1.23,0,0,0-1.5-.915,15.448,15.448,0,0,1-1.876.015l.167,1.318H8.141l.173-1.292" fill="none" stroke="#009eff" stroke-width="1.3"/>
                  <path id="Path_14155" data-name="Path 14155" d="M187.12,133.612c.077-.453.14-.9.236-1.334.024-.107.154-.192.235-.286.085.089.215.163.247.268a4.626,4.626,0,0,1,.005,2.727c-.033.112-.152.2-.232.3-.088-.1-.23-.191-.255-.306-.1-.448-.16-.9-.237-1.364" transform="translate(-174.758 -123.271)" fill="#009eff"/>
                  <path id="Path_14156" data-name="Path 14156" d="M102.63,135.633c-.088.47-.164.934-.269,1.392-.022.1-.147.17-.225.254-.078-.084-.2-.155-.227-.253a4.612,4.612,0,0,1,0-2.791c.03-.1.15-.169.229-.252.078.083.2.156.226.252.1.458.18.922.268,1.4" transform="translate(-94.973 -125.13)" fill="#009eff"/>
                </g>
              </g>
            </g>
          </g>
        </g>
      </g>
    </g>
  </g>
</svg>
