<svg xmlns="http://www.w3.org/2000/svg" width="47.782" height="44.081" viewBox="0 0 47.782 44.081">
  <g id="Group_55709" data-name="Group 55709" transform="translate(-355.609 -1851.285)">
    <g id="web-plugin" transform="translate(355.609 1831.611)">
      <path id="Path_14158" data-name="Path 14158" d="M5.643,24.377a.941.941,0,1,1-.941-.941A.941.941,0,0,1,5.643,24.377Zm4.233,0a.941.941,0,1,1-.941-.941A.941.941,0,0,1,9.876,24.377Zm4.233,0a.941.941,0,1,1-.941-.941A.941.941,0,0,1,14.109,24.377Zm6.114,28.782a.941.941,0,1,0,.941.941A.941.941,0,0,0,20.223,53.159ZM21.633,33.5h9.688a.941.941,0,1,0,0-1.881H21.633a.941.941,0,1,0,0,1.881Zm0,3.762H29.44a.941.941,0,0,0,0-1.881H21.633a.941.941,0,1,0,0,1.881Zm21.053,9.5a6,6,0,0,0,0,3.958A.947.947,0,0,0,44,51.255l1.067-.5a1.876,1.876,0,0,1,2.715,1.686v4.006A1.881,1.881,0,0,1,45.9,58.332H40.585l.522,1.116a2.806,2.806,0,0,1-1.629,3.862,7.873,7.873,0,0,1-5.215,0,2.816,2.816,0,0,1-1.629-3.861l.522-1.117H27.841a1.883,1.883,0,0,1-1.881-1.881V55.04h-1.5a.941.941,0,1,1,0-1.881h1.5v-.714a1.876,1.876,0,0,1,2.714-1.687l1.067.5a.947.947,0,0,0,1.314-.538,6,6,0,0,0,0-3.958.955.955,0,0,0-1.288-.55l-1.132.527a1.881,1.881,0,0,1-2.675-1.748V41.025a1.881,1.881,0,0,1,1.881-1.881h5.315l-.522-1.117a2.827,2.827,0,0,1,1.629-3.861,7.791,7.791,0,0,1,4.3-.261V29.08H1.881V53.159H15.956a.963.963,0,0,1,.972.875.942.942,0,0,1-.938,1.006H.941A.941.941,0,0,1,0,54.1V22.5a2.822,2.822,0,0,1,2.822-2.822h34.8A2.822,2.822,0,0,1,40.445,22.5V34.752a2.771,2.771,0,0,1,.662,3.275l-.522,1.116H45.9a1.881,1.881,0,0,1,1.881,1.881v3.963a1.881,1.881,0,0,1-2.675,1.749l-1.132-.528a.955.955,0,0,0-1.289.55ZM38.564,27.2V22.5a.942.942,0,0,0-.941-.941H2.822a.942.942,0,0,0-.941.941v4.7Zm2.349,18.933A2.83,2.83,0,0,1,44.769,44.5l1.132.528V41.025H40.585a1.881,1.881,0,0,1-1.7-2.678L39.4,37.23a.944.944,0,0,0-.55-1.29,6.059,6.059,0,0,0-3.966,0,.942.942,0,0,0-.55,1.29l.522,1.117a1.882,1.882,0,0,1-1.7,2.678H27.841v4.006l1.132-.527a2.829,2.829,0,0,1,3.856,1.628,7.8,7.8,0,0,1,0,5.213,2.828,2.828,0,0,1-3.856,1.627l-1.131-.527v4.005h5.315a1.881,1.881,0,0,1,1.7,2.678l-.522,1.117a.937.937,0,0,0,.55,1.29,6.075,6.075,0,0,0,3.966,0,.939.939,0,0,0,.55-1.29l-.522-1.117a1.88,1.88,0,0,1,1.7-2.678H45.9V52.445l-1.132.528a2.829,2.829,0,0,1-3.856-1.628A7.8,7.8,0,0,1,40.913,46.132Z" fill="#222872"/>
    </g>
    <g id="Group_55708" data-name="Group 55708" transform="translate(360.544 1866.503)">
      <g id="Group_55699" data-name="Group 55699">
        <g id="Group_55696" data-name="Group 55696">
          <g id="Group_55700" data-name="Group 55700">
            <g id="Group_55694" data-name="Group 55694">
              <g id="Group_55701" data-name="Group 55701">
                <path id="Path_14150" data-name="Path 14150" d="M3.166,0H10.8c.5.8.988,1.606,1.487,2.406.556.892,1.119,1.78,1.679,2.67v.14a.4.4,0,0,0-.047.1c-.127.827-.252,1.655-.379,2.483-.271,1.77-.547,3.54-.811,5.311-.029.194-.109.233-.285.229-.52-.01-1.039,0-1.559,0h-.432l.147-1.888H9.477c-.046.567-.1,1.115-.133,1.663-.011.161-.062.229-.237.228q-2.118-.009-4.236,0c-.155,0-.219-.044-.23-.205q-.05-.754-.128-1.507c-.007-.07-.084-.186-.133-.188-.324-.017-.648-.009-1-.009l.148,1.876a.482.482,0,0,1-.1.026c-.659,0-1.319,0-1.978.006-.151,0-.171-.083-.189-.2Q.749,9.8.233,6.467c-.07-.45-.155-.9-.233-1.345V5.076a1.19,1.19,0,0,0,.1-.122q1.5-2.4,3-4.81A1.192,1.192,0,0,0,3.166,0M5.859,2.557c-.082-.007-.149-.017-.216-.018-.543,0-1.086.005-1.628,0a.286.286,0,0,0-.3.191c-.357.731-.727,1.456-1.082,2.188a.671.671,0,0,0-.066.353c.188,1.554.392,3.107.575,4.661.026.224.117.255.307.254q3.548-.007,7.1,0c.083,0,.165-.008.252-.013.017-.087.033-.155.042-.223.193-1.546.388-3.091.57-4.639a.852.852,0,0,0-.085-.439c-.269-.567-.6-1.109-.822-1.692a.867.867,0,0,0-1.056-.645,10.886,10.886,0,0,1-1.322.011l.118.928h-2.5l.122-.91" fill="none" stroke="#009eff" stroke-width="0.8"/>
                <path id="Path_14155" data-name="Path 14155" d="M187.12,133.133c.054-.319.1-.632.167-.94.017-.076.108-.135.166-.2.06.062.151.115.174.189a3.26,3.26,0,0,1,0,1.922c-.024.079-.107.139-.163.209-.062-.071-.162-.135-.18-.216-.069-.316-.113-.637-.167-.961" transform="translate(-178.408 -125.846)" fill="#009eff"/>
                <path id="Path_14156" data-name="Path 14156" d="M102.353,135.145c-.062.331-.116.658-.19.981-.016.068-.1.12-.159.179-.055-.059-.139-.109-.16-.179a3.25,3.25,0,0,1,0-1.967c.021-.069.106-.119.161-.178.055.059.144.11.159.178.073.323.127.65.189.986" transform="translate(-96.957 -127.744)" fill="#009eff"/>
              </g>
            </g>
          </g>
        </g>
      </g>
    </g>
  </g>
</svg>
