<svg xmlns="http://www.w3.org/2000/svg" width="46.657" height="51.323" viewBox="0 0 46.657 51.323">
  <g id="Group_55705" data-name="Group 55705" transform="translate(-2 -1)">
    <path id="Path_14157" data-name="Path 14157" d="M45.34,10.331H34.66V4.63A3.634,3.634,0,0,0,31.03,1H5.63A3.634,3.634,0,0,0,2,4.63V48.693a3.634,3.634,0,0,0,3.63,3.63h25.4a3.634,3.634,0,0,0,3.63-3.63v-5.7H45.34a3.321,3.321,0,0,0,3.317-3.317V13.649a3.321,3.321,0,0,0-3.317-3.317Zm.984,3.317V15h-11.6a.818.818,0,0,1-.74-.457l-.938-1.876H45.34A.985.985,0,0,1,46.325,13.649ZM24.608,3.333,23.441,5.666H13.219L12.052,3.333ZM31.03,49.99H5.63a1.3,1.3,0,0,1-1.3-1.3V47.657H32.327v1.036a1.3,1.3,0,0,1-1.3,1.3Zm1.3-4.666H4.333V4.63a1.3,1.3,0,0,1,1.3-1.3H9.444l2.011,4.022A1.168,1.168,0,0,0,12.5,8H24.162a1.168,1.168,0,0,0,1.043-.644l2.011-4.022H31.03a1.3,1.3,0,0,1,1.3,1.3v5.7H16.982a3.321,3.321,0,0,0-3.317,3.317V39.674a3.321,3.321,0,0,0,3.317,3.317H32.327ZM45.34,40.659H16.982A.985.985,0,0,1,16,39.674V13.649a.985.985,0,0,1,.984-.984H30.44L31.9,15.58a3.143,3.143,0,0,0,2.827,1.75h11.6V39.674A.985.985,0,0,1,45.34,40.659Z" fill="#222872"/>
    <g id="Group_55704" data-name="Group 55704" transform="translate(23.6 19.723)">
      <g id="Group_55699" data-name="Group 55699">
        <g id="Group_55696" data-name="Group 55696">
          <g id="Group_55700" data-name="Group 55700">
            <g id="Group_55694" data-name="Group 55694">
              <g id="Group_55701" data-name="Group 55701">
                <path id="Path_14150" data-name="Path 14150" d="M3.741,0h9.023c.585.948,1.167,1.9,1.757,2.843C15.178,3.9,15.843,4.947,16.5,6v.165a.469.469,0,0,0-.056.119c-.151.978-.3,1.956-.447,2.934-.321,2.092-.646,4.183-.958,6.276-.034.23-.129.275-.337.271-.614-.012-1.228,0-1.843,0h-.51l.173-2.231H11.2c-.055.67-.112,1.317-.157,1.965-.013.19-.073.271-.28.27q-2.5-.011-5.005,0c-.183,0-.259-.052-.271-.243q-.059-.891-.152-1.78c-.009-.082-.1-.219-.157-.222-.382-.02-.766-.01-1.186-.01l.175,2.217a.569.569,0,0,1-.119.031c-.779,0-1.558,0-2.338.007-.178,0-.2-.1-.223-.24Q.885,11.58.276,7.642C.194,7.111.092,6.583,0,6.053V6a1.406,1.406,0,0,0,.118-.144Q1.892,3.013,3.663.171A1.409,1.409,0,0,0,3.741,0M6.923,3.022C6.827,3.013,6.747,3,6.668,3,6.026,3,5.385,3.007,4.744,3a.338.338,0,0,0-.356.225c-.422.864-.859,1.721-1.279,2.585a.793.793,0,0,0-.079.417c.223,1.837.463,3.671.679,5.508.031.264.138.3.363.3q4.192-.008,8.385,0c.1,0,.2-.01.3-.015.02-.1.039-.183.049-.264.228-1.827.459-3.653.674-5.481a1.006,1.006,0,0,0-.1-.518c-.317-.67-.708-1.31-.972-2a1.025,1.025,0,0,0-1.248-.762A12.864,12.864,0,0,1,9.6,3l.139,1.1H6.779l.144-1.075" fill="none" stroke="#009eff" stroke-width="1"/>
                <path id="Path_14155" data-name="Path 14155" d="M187.12,133.341c.064-.377.117-.747.2-1.111.02-.089.128-.159.2-.238.07.074.179.136.206.223a3.852,3.852,0,0,1,0,2.271c-.028.093-.127.165-.193.246-.073-.084-.192-.159-.213-.255-.082-.373-.133-.752-.2-1.136" transform="translate(-176.826 -124.729)" fill="#009eff"/>
                <path id="Path_14156" data-name="Path 14156" d="M102.473,135.356c-.073.391-.137.778-.224,1.159-.018.081-.123.142-.188.212-.065-.07-.164-.129-.189-.211a3.841,3.841,0,0,1,0-2.324c.025-.082.125-.141.19-.21.065.069.17.13.188.21.087.381.15.768.223,1.165" transform="translate(-96.097 -126.611)" fill="#009eff"/>
              </g>
            </g>
          </g>
        </g>
      </g>
    </g>
  </g>
</svg>
