<svg xmlns="http://www.w3.org/2000/svg" xmlns:xlink="http://www.w3.org/1999/xlink" width="46.393" height="44.705" viewBox="0 0 46.393 44.705">
  <defs>
    <linearGradient id="linear-gradient" x1="0.5" x2="0.5" y2="1" gradientUnits="objectBoundingBox">
      <stop offset="0" stop-color="#eeedf2"/>
      <stop offset="1" stop-color="#b3b3b3"/>
    </linearGradient>
  </defs>
  <g id="Group_55665" data-name="Group 55665" transform="translate(-195.185 -161.786)">
    <g id="Group_55669" data-name="Group 55669" transform="translate(195.185 161.785)">
      <g id="Group_55668" data-name="Group 55668" transform="translate(0 0)">
        <path id="Path_37717" data-name="Path 37717" d="M644.649,349.82H637.3c.162-2.115.318-4.146.484-6.3h-3.816c-.2,2.055-.4,4.152-.61,6.311H617.808c-.124-1.583-.3-3.132-.348-4.685-.039-1.254-.4-1.98-1.83-1.76a16.035,16.035,0,0,1-2.2.017c.157,2.185.3,4.242.459,6.4h-7.424c-.806-5.2-1.606-10.357-2.4-15.512-.545-3.521-1.145-7.034-1.591-10.567a4.413,4.413,0,0,1,.493-2.654c3.03-5,6.18-9.933,9.253-14.91a1.857,1.857,0,0,1,1.807-1.032q11.571.055,23.143,0a1.86,1.86,0,0,1,1.824,1c3.119,5.06,6.31,10.076,9.4,15.153a3.66,3.66,0,0,1,.4,2.27c-1.284,8.646-2.636,17.281-3.973,25.919A1.719,1.719,0,0,1,644.649,349.82Zm-22.822-36.208c-2.067,0-4.012-.067-5.946.045a2.1,2.1,0,0,0-1.458.95c-1.228,2.252-2.349,4.564-3.47,6.872a2.594,2.594,0,0,0-.3,1.348c.622,5.191,1.267,10.38,1.98,15.56a1.447,1.447,0,0,0,1.029.942q11.93.081,23.859,0a1.452,1.452,0,0,0,1.039-.94c.71-5.18,1.347-10.37,1.978-15.56a2.054,2.054,0,0,0-.186-1.085c-1.206-2.478-2.429-4.948-3.694-7.4a1.365,1.365,0,0,0-.907-.7c-2.08-.063-4.162-.032-6.356-.032.124,1.146.228,2.1.333,3.073h-8.248Z" transform="translate(-602.432 -305.126)" fill="url(#linear-gradient)"/>
        <path id="Path_37718" data-name="Path 37718" d="M642.345,334.769,642,337.846h8.248c-.1-.968-.209-1.927-.333-3.073,2.194,0,4.276-.03,6.356.032a1.365,1.365,0,0,1,.907.7c1.265,2.448,2.488,4.918,3.694,7.4a2.055,2.055,0,0,1,.186,1.085c-.631,5.19-1.268,10.38-1.978,15.56a1.452,1.452,0,0,1-1.039.94q-11.93.081-23.859,0a1.447,1.447,0,0,1-1.029-.942c-.712-5.18-1.358-10.369-1.98-15.56a2.6,2.6,0,0,1,.3-1.348c1.121-2.309,2.242-4.62,3.47-6.872a2.1,2.1,0,0,1,1.458-.95C638.333,334.7,640.277,334.769,642.345,334.769Zm10.681,12.079c-1.405,2.034-1.327,6.428.079,7.709C654.352,352.949,654.351,348.653,653.026,346.849Zm-13.486,8.145c1.43-1.58,1.423-6.269-.011-7.735C638.2,349.032,638.208,353.205,639.54,354.994Z" transform="translate(-622.95 -326.284)" fill="#4a5664"/>
        <path id="Path_37719" data-name="Path 37719" d="M705.136,377.087c1.325,1.8,1.326,6.1.079,7.709C703.809,383.515,703.731,379.121,705.136,377.087Z" transform="translate(-675.059 -356.522)" fill="#b7efee"/>
        <path id="Path_37720" data-name="Path 37720" d="M657.979,386.257c-1.332-1.789-1.338-5.963-.011-7.735C659.4,379.988,659.409,384.677,657.979,386.257Z" transform="translate(-641.388 -357.547)" fill="#b7efee"/>
      </g>
    </g>
  </g>
</svg>
