<svg xmlns="http://www.w3.org/2000/svg" xmlns:xlink="http://www.w3.org/1999/xlink" width="173" height="173" viewBox="0 0 173 173">
  <defs>
    <linearGradient id="linear-gradient" x1="0.5" x2="0.5" y2="1" gradientUnits="objectBoundingBox">
      <stop offset="0" stop-color="#99e4ff"/>
      <stop offset="1" stop-color="#f1f8fd"/>
    </linearGradient>
  </defs>
  <g id="Group_70628" data-name="Group 70628" transform="translate(-323 -2314)">
    <circle id="Ellipse_990" data-name="Ellipse 990" cx="86.5" cy="86.5" r="86.5" transform="translate(323 2314)" fill="url(#linear-gradient)"/>
    <g id="GLYPH" transform="translate(352 2343.979)">
      <path id="Path_51306" data-name="Path 51306" d="M182.248,46.535l-3.366-4.287a4.372,4.372,0,0,0-3.294-1.819L152.1,38.917a5.686,5.686,0,0,0-5.723,3.7l-5.089,13.588a22.748,22.748,0,0,0-4.884,2.942,20.248,20.248,0,0,0-6.854,9.3c-1.148,3.5-.782,6.695,1.03,9l1.861,2.37L125.488,98.4a4.376,4.376,0,0,0,.427,3.947,4.52,4.52,0,0,0,.351.471l3.453,4.4a5.725,5.725,0,0,0,4.131,2.175l22.9,1.474q.19.012.378.012a5.683,5.683,0,0,0,5.345-3.713l20.636-55.094A5.752,5.752,0,0,0,182.248,46.535ZM135.494,72.9l3.858-9.492a.635.635,0,0,1,.5-.389l10.136-1.5a.635.635,0,0,1,.681.868l-3.858,9.492a.635.635,0,0,1-.5.389l-10.136,1.5a.635.635,0,0,1-.681-.868ZM157.206,61.97l2.077,2.646c1.524,1.941,1.777,4.6.962,7.4l-3.772-4.8c.044-.124.091-.248.132-.373a11.705,11.705,0,0,0,.6-4.867Zm2.535,11.46a17.185,17.185,0,0,1-2.039,3.577l-3.9-4.964a18.88,18.88,0,0,0,2.114-3.481Zm-2.848,4.6a21.636,21.636,0,0,1-2.725,2.7l-3.924-5a22.982,22.982,0,0,0,2.741-2.682Zm-15.966,2.3a18.871,18.871,0,0,0,3.883-1.228l3.9,4.962a17.051,17.051,0,0,1-3.961,1.128Zm2.318,5.011c-3.026.132-5.482-.809-6.951-2.68l-2.076-2.644a11.109,11.109,0,0,0,3.759.612q.544,0,1.11-.044c.131-.01.262-.025.394-.039Zm2.742-6.8a23,23,0,0,0,3.257-2.025l3.924,5a21.646,21.646,0,0,1-3.272,2.006Zm-19.309,20.3,6.687-17.854,1.929,2.457a9.04,9.04,0,0,0,7.391,3.181q.544,0,1.11-.044a21.644,21.644,0,0,0,17.517-13.754c1.148-3.5.782-6.695-1.03-9l-4.709-6c-1.812-2.308-4.832-3.422-8.5-3.137a17.15,17.15,0,0,0-4.19.888l4.69-12.521a4.422,4.422,0,0,1,4.451-2.878l2.665.172L152.7,45.652a.635.635,0,0,0,.554.857l17.076,1.1h.041a.635.635,0,0,0,.595-.412l2.118-5.655,2.417.156a3.111,3.111,0,0,1,2.176,1.08l.18.23c.028.04.057.08.083.121a3.117,3.117,0,0,1,.3,2.811l-20.894,55.784a4.422,4.422,0,0,1-4.451,2.878l-23.484-1.511a3.111,3.111,0,0,1-2.175-1.08l0,0h0a3.216,3.216,0,0,1-.261-.348A3.117,3.117,0,0,1,126.678,98.848Z" transform="translate(-88.491 -16.725)" fill="#26aefe"/>
      <path id="Path_51307" data-name="Path 51307" d="M304.378,124.513l1.191.444,4.289-11.5a.635.635,0,0,0-.555-.856l-16.62-1.07L292.6,112.8l15.767,1.015Z" transform="translate(-229.299 -77.814)" fill="#26aefe"/>
      <path id="Path_51308" data-name="Path 51308" d="M0,0H1.271V2.809H0Z" transform="translate(46.538 75.597) rotate(-86.331)" fill="#26aefe"/>
      <path id="Path_51309" data-name="Path 51309" d="M0,0H1.271V13.642H0Z" transform="translate(52.741 75.997) rotate(-86.331)" fill="#26aefe"/>
      <path id="Path_51310" data-name="Path 51310" d="M0,0H1.271V2.809H0Z" transform="translate(44.15 81.354) rotate(-86.331)" fill="#26aefe"/>
      <path id="Path_51311" data-name="Path 51311" d="M0,0H1.271V15.247H0Z" transform="translate(49.852 81.721) rotate(-86.331)" fill="#26aefe"/>
      <path id="Path_51312" data-name="Path 51312" d="M119.756,263.978l.825-.967a8.781,8.781,0,0,1-1.341-1.433,10.049,10.049,0,0,1-1.9-5.733l-1.27.049a11.293,11.293,0,0,0,2.153,6.443A10.054,10.054,0,0,0,119.756,263.978Z" transform="translate(-80.808 -199.204)" fill="#26aefe"/>
      <path id="Path_51313" data-name="Path 51313" d="M116.887,225.543l1.26.167a17.51,17.51,0,0,1,.512-2.452l-1.223-.346A18.765,18.765,0,0,0,116.887,225.543Z" transform="translate(-81.497 -171.503)" fill="#26aefe"/>
      <path id="Path_51314" data-name="Path 51314" d="M206.465,64.039l1.249.235a23.047,23.047,0,0,0,.069-9.153l-1.24.279A21.783,21.783,0,0,1,206.465,64.039Z" transform="translate(-156.845 -30.366)" fill="#26aefe"/>
      <path id="Path_51315" data-name="Path 51315" d="M191.415,22.625l1.149-.543a8.826,8.826,0,0,0-2.308-3.061l-.812.977A7.569,7.569,0,0,1,191.415,22.625Z" transform="translate(-142.527)" fill="#26aefe"/>
      <path id="Path_51316" data-name="Path 51316" d="M204.637,208.513a.636.636,0,0,1-.19-.242l-1.532-3.424-2.878,7.082,7.563-1.116Z" transform="translate(-151.438 -156.308)" fill="#26aefe"/>
      <path id="Path_51317" data-name="Path 51317" d="M228.87,197.906l3.123-7.684-8.206,1.211,1.732,3.872Z" transform="translate(-171.415 -144.006)" fill="#26aefe"/>
      <path id="Path_51318" data-name="Path 51318" d="M42.944,40.3A21.686,21.686,0,0,0,45.649,30.21c-.047-3.25-1.184-5.626-3.2-6.689l-5.62-2.961h0C34.81,19.5,32.208,19.9,29.5,21.7a21.687,21.687,0,0,0-6.794,7.937A21.687,21.687,0,0,0,20,39.73c.047,3.25,1.183,5.626,3.2,6.689l5.621,2.962a5.135,5.135,0,0,0,2.421.58,9.063,9.063,0,0,0,4.905-1.722A21.686,21.686,0,0,0,42.944,40.3ZM41.856,24.646c1.587.836,2.483,2.819,2.522,5.583a14.445,14.445,0,0,1-.057,1.462L39.91,29.366a16.068,16.068,0,0,0,.117-2.118,10.175,10.175,0,0,0-.779-3.976Zm-2.15,6.049,4.442,2.34a22.312,22.312,0,0,1-2.039,6.108l-4.5-2.37a23.913,23.913,0,0,0,2.094-6.078Zm-2.687,7.2,4.5,2.37A22.314,22.314,0,0,1,37.631,45.4l-4.442-2.34A23.913,23.913,0,0,0,37.019,37.9ZM25.365,35.8a.636.636,0,0,1,.139-.532l3.7-4.359-1.673-.881.592-1.124,1.923,1.013,3.039-3.582.969.822L31.2,30.521l2.547,1.342-.592,1.124-2.8-1.474-3.369,3.971,4.921,2.593L31.314,39.2l-5.621-2.962a.635.635,0,0,1-.328-.441Zm4.051,12.458-2.6-1.371a10.2,10.2,0,0,0,3.715-1.608,16.067,16.067,0,0,0,1.681-1.294l4.411,2.324a14.447,14.447,0,0,1-1.174.874c-2.3,1.53-4.444,1.912-6.031,1.076Z" transform="translate(0 -0.806)" fill="#26aefe"/>
    </g>
  </g>
</svg>
