<svg xmlns="http://www.w3.org/2000/svg" width="69.717" height="70.2" viewBox="0 0 69.717 70.2">
  <g id="Glyph" transform="translate(-1.918 -1.702)">
    <g id="Glyph-2" data-name="Glyph" transform="translate(1.918 1.702)">
      <path id="Path_51335" data-name="Path 51335" d="M48.54,30a18.54,18.54,0,1,0,18.54,18.54A18.54,18.54,0,0,0,48.54,30Zm2.318,26.652H49.7v1.159a1.159,1.159,0,1,1-2.318,0V56.652H42.747a1.159,1.159,0,0,1,0-2.318h8.111a2.318,2.318,0,1,0,0-4.635H46.223a4.635,4.635,0,1,1,0-9.27h1.159V39.27a1.159,1.159,0,1,1,2.318,0v1.159h3.476a1.159,1.159,0,1,1,0,2.318H46.223a2.318,2.318,0,1,0,0,4.635h4.635a4.635,4.635,0,1,1,0,9.27Z" transform="translate(2.541 2.791)" fill="#26aefe"/>
      <path id="Path_51336" data-name="Path 51336" d="M20.54,39.081A18.54,18.54,0,1,0,2,20.54a18.54,18.54,0,0,0,18.54,18.54ZM13.588,14.747a1.159,1.159,0,0,1,0-2.318h3.476V11.27a1.159,1.159,0,1,1,2.318,0v1.159H21.7V11.27a1.159,1.159,0,1,1,2.318,0v1.159a4.618,4.618,0,0,1,3.036,8.111,4.618,4.618,0,0,1-3.036,8.111v1.159a1.159,1.159,0,1,1-2.318,0V28.652H19.382v1.159a1.159,1.159,0,1,1-2.318,0V28.652H13.588a1.159,1.159,0,1,1,0-2.318h1.159V14.747Z" transform="translate(-1.905 -1.655)" fill="#26aefe"/>
      <path id="Path_51337" data-name="Path 51337" d="M24.27,21.318A2.325,2.325,0,0,0,21.953,19H15v4.635h6.953a2.325,2.325,0,0,0,2.318-2.318Z" transform="translate(0.16 1.044)" fill="#26aefe"/>
      <path id="Path_51338" data-name="Path 51338" d="M24.27,15.318A2.325,2.325,0,0,0,21.953,13H15v4.635h6.953a2.325,2.325,0,0,0,2.318-2.318Z" transform="translate(0.16 0.091)" fill="#26aefe"/>
      <path id="Path_51339" data-name="Path 51339" d="M48.245,4.84V4.017A2.318,2.318,0,0,0,44.4,2.279l-6.35,5.562a2.318,2.318,0,0,0,0,3.476L44.4,16.88a2.318,2.318,0,0,0,3.847-1.692,21.751,21.751,0,0,1,8.876,10.394,3.464,3.464,0,0,0,4.241,2.028l2.213-.7a3.5,3.5,0,0,0,2.213-4.6A31.572,31.572,0,0,0,48.245,4.84Z" transform="translate(3.694 -1.702)" fill="#26aefe"/>
      <path id="Path_51340" data-name="Path 51340" d="M19.7,62.732v.823a2.331,2.331,0,0,0,3.847,1.738l6.35-5.562a2.318,2.318,0,0,0,0-3.476l-6.35-5.562A2.318,2.318,0,0,0,19.7,52.384,21.751,21.751,0,0,1,10.82,41.989a3.453,3.453,0,0,0-4.241-2.028l-2.213.7a3.5,3.5,0,0,0-2.213,4.6A31.572,31.572,0,0,0,19.7,62.732Z" transform="translate(-1.918 4.347)" fill="#26aefe"/>
    </g>
  </g>
</svg>
