<svg xmlns="http://www.w3.org/2000/svg" width="49.367" height="47.148" viewBox="0 0 49.367 47.148">
  <g id="Group_55669" data-name="Group 55669" transform="translate(-491.747 -200.995)">
    <g id="Group_55668" data-name="Group 55668" transform="translate(491.747 200.995)">
      <path id="Path_14130" data-name="Path 14130" d="M541.114,237.03a2.334,2.334,0,0,1-2.366,1.747c-.084,0-.2.127-.249.221-.084.153-.107.34-.193.492a1.314,1.314,0,0,0,.1,1.762,1.935,1.935,0,0,1-.209,2.491,18.222,18.222,0,0,1-1.465,1.468c-.922.815-2.077.688-3.2-.323-.537.212-1.089.417-1.625.657-.086.038-.139.228-.147.352a2.2,2.2,0,0,1-2.37,2.243c-.5,0-1,0-1.494,0a2.146,2.146,0,0,1-2.246-2.1c-.022-.369-.128-.57-.492-.619a.27.27,0,0,1-.089-.036,1.512,1.512,0,0,0-2.019.088,1.875,1.875,0,0,1-2.4-.267c-.5-.454-.982-.93-1.434-1.431a2.112,2.112,0,0,1,.03-2.931.518.518,0,0,0,.1-.741,2.249,2.249,0,0,1-.3-.708c-.106-.515-.379-.648-.9-.641-2.458.032-4.917.017-7.375.013a.976.976,0,0,1-1.106-.9.946.946,0,0,1,1.047-1.04c1.671-.007,3.342,0,5.013,0h.534c0-.618,0-1.191,0-1.765a2.21,2.21,0,0,1,2.236-2.43c.146-.013.29-.17.411-.285.062-.06.06-.181.1-.266a1.522,1.522,0,0,0-.088-1.982,1.9,1.9,0,0,1,.251-2.444c.456-.5.933-.979,1.431-1.434a2.113,2.113,0,0,1,2.927.043.513.513,0,0,0,.7.1c.422-.225.88-.382,1.315-.565a6.183,6.183,0,0,1,.139-.956,2,2,0,0,1,1.782-1.539,13.767,13.767,0,0,1,2.213-.022,2.067,2.067,0,0,1,2,1.981c.031.421.162.652.575.717a.638.638,0,0,1,.224.085,1.246,1.246,0,0,0,1.759-.107c.288-.284.853-.285,1.358-.434V215.86h-41.9c-.008.171-.022.341-.022.511q0,8.452,0,16.9a4.046,4.046,0,0,0,.661,2.377,2.507,2.507,0,0,0,2.193,1.175c1.8-.011,3.6-.007,5.4,0a.955.955,0,0,1,1.04.91.911.911,0,0,1-.838,1.005c-2.136.015-4.282.113-6.4-.067a4.641,4.641,0,0,1-3.887-4.117,7.856,7.856,0,0,1-.1-1.2q-.008-13.475,0-26.951a5.492,5.492,0,0,1,1.94-4.441,4.023,4.023,0,0,1,2.658-.97q18.318,0,36.635,0a4.682,4.682,0,0,1,4.45,3.909,8.719,8.719,0,0,1,.162,1.773c.011,6.617,0,13.234.016,19.851a1.1,1.1,0,0,0,.218.69c1.213,1.333,1.24,2.261.053,3.639.209.526.415,1.062.64,1.589a.335.335,0,0,0,.24.179,2.353,2.353,0,0,1,2.355,1.7Zm-5.468-23.189c0-.535,0-1.016,0-1.5-.005-2.141.033-4.284-.03-6.424a2.9,2.9,0,0,0-3.131-2.985H517.106q-10.245,0-20.489-.007a2.481,2.481,0,0,0-2.416,1.446,4.854,4.854,0,0,0-.492,1.934c-.057,2.4-.023,4.8-.021,7.2a3.031,3.031,0,0,0,.039.337Zm1.315,15.057a6.516,6.516,0,0,1-.8-.573c-.842-.817-.834-.825-1.656-.028a1.081,1.081,0,0,1-1.508.2,19.733,19.733,0,0,0-2.257-.934c-.736-.25-.967-.487-.975-1.275-.011-1.066-.011-1.066-1.08-1.066-1.136,0-1.136,0-1.149,1.148-.009.725-.238.96-.932,1.2a18.837,18.837,0,0,0-2.21.925,1.1,1.1,0,0,1-1.583-.22c-.877-.86-.648-.866-1.521,0-.8.8-.8.8-.008,1.617.53.548.535.844.193,1.551a18.744,18.744,0,0,0-.9,2.174c-.247.736-.494.973-1.27.982-1.089.013-1.093.013-1.088,1.105.006,1.3-.139,1.108,1.134,1.122.74.008.982.229,1.216.912a19.036,19.036,0,0,0,.908,2.221c.36.732.354,1.031-.232,1.62-.743.747-.743.747-.01,1.482.827.829.827.829,1.649.026.528-.516.829-.52,1.507-.188a17.9,17.9,0,0,0,2.167.9c.82.275,1.02.489,1.025,1.383.006,1.138-.118,1.014.993,1.017,1.213,0,1.213,0,1.235-1.22.012-.669.236-.907.883-1.135a19.419,19.419,0,0,0,2.218-.908c.78-.388,1.039-.389,1.659.22.869.853.623.845,1.479,0,.833-.823.828-.828.02-1.655-.51-.521-.513-.835-.182-1.51a18.385,18.385,0,0,0,.9-2.171c.274-.809.468-.994,1.342-1,1.157,0,1.036.1,1.038-1.03,0-1.174,0-1.174-1.145-1.2h-.048a1.056,1.056,0,0,1-1.135-.9,14.051,14.051,0,0,0-.673-1.8c-.672-1.395-.689-1.385.372-2.5C536.641,229.3,536.723,229.189,536.961,228.9Z" transform="translate(-491.747 -200.995)" fill="#222872"/>
      <path id="Path_14131" data-name="Path 14131" d="M642.917,368.554c-.736-.831-1.448-1.633-2.158-2.436a3.2,3.2,0,0,1-.277-.332.968.968,0,0,1,.156-1.268.913.913,0,0,1,1.268,0c.991,1.072,1.967,2.16,2.909,3.276a1.207,1.207,0,0,1-.056,1.6c-.9,1.047-1.819,2.077-2.748,3.1a.967.967,0,1,1-1.437-1.294c.584-.683,1.192-1.346,1.789-2.018C642.541,368.984,642.718,368.781,642.917,368.554Z" transform="translate(-621.171 -343.232)" fill="#009eff"/>
      <path id="Path_14132" data-name="Path 14132" d="M536.554,368.609c.7.793,1.384,1.56,2.064,2.327a4.778,4.778,0,0,1,.342.4.969.969,0,0,1-.134,1.308.951.951,0,0,1-1.311-.042c-.428-.435-.819-.906-1.226-1.363-.5-.565-1.012-1.123-1.5-1.7a1.316,1.316,0,0,1,0-1.874q1.3-1.491,2.627-2.958a.968.968,0,0,1,1.411-.151.986.986,0,0,1,.023,1.458C538.1,366.881,537.335,367.728,536.554,368.609Z" transform="translate(-528.9 -343.286)" fill="#009eff"/>
      <path id="Path_14133" data-name="Path 14133" d="M594.77,359.449c-.25,1.067-.468,2.006-.691,2.944-.413,1.736-.822,3.472-1.25,5.2a1.706,1.706,0,0,1-.348.721.849.849,0,0,1-1.1.159.9.9,0,0,1-.489-1.053c.293-1.285.6-2.567.9-3.849.326-1.376.648-2.754.985-4.127.195-.794.947-1.147,1.523-.691A2.576,2.576,0,0,1,594.77,359.449Z" transform="translate(-578.093 -338.259)" fill="#009eff"/>
      <path id="Path_14134" data-name="Path 14134" d="M599.37,480.115a.973.973,0,0,1-.961,1,1,1,0,0,1-.994-.974.972.972,0,0,1,.946-.962A.955.955,0,0,1,599.37,480.115Z" transform="translate(-583.804 -443.343)" fill="#222872"/>
      <path id="Path_14137" data-name="Path 14137" d="M698.448,239.894c-1.446,0-2.892.022-4.337-.006a3.268,3.268,0,0,1,.149-6.534c2.827-.006,5.655-.016,8.482,0a3.271,3.271,0,1,1,0,6.54c-1.43.014-2.859,0-4.289,0Zm.065-4.586c-1.4,0-2.794-.01-4.192,0a1.331,1.331,0,0,0-1.44,1.3,1.353,1.353,0,0,0,1.46,1.338c.45.009.9,0,1.349,0q3.445,0,6.89,0a1.419,1.419,0,0,0,1.384-.694,1.309,1.309,0,0,0-1.26-1.948C701.307,235.293,699.909,235.308,698.512,235.308Z" transform="translate(-665.279 -229.178)" fill="#009eff"/>
      <path id="Path_14138" data-name="Path 14138" d="M608.6,236.692a3.26,3.26,0,1,1-3.276-3.277A3.273,3.273,0,0,1,608.6,236.692Zm-3.276-1.316a1.3,1.3,0,0,0-1.285,1.344,1.317,1.317,0,0,0,1.3,1.287,1.341,1.341,0,0,0,1.32-1.328A1.322,1.322,0,0,0,605.328,235.376Z" transform="translate(-587.87 -229.238)" fill="#009eff"/>
      <path id="Path_14139" data-name="Path 14139" d="M536.549,236.654a3.252,3.252,0,1,1,3.252,3.293A3.268,3.268,0,0,1,536.549,236.654Zm4.557.021a1.308,1.308,0,0,0-2.616-.016,1.308,1.308,0,1,0,2.616.016Z" transform="translate(-530.778 -229.23)" fill="#009eff"/>
      <path id="Path_14140" data-name="Path 14140" d="M732.5,430.273a5.94,5.94,0,1,1,5.963,5.938A5.933,5.933,0,0,1,732.5,430.273Zm1.949-.037a3.991,3.991,0,1,0,3.995-3.971A4,4,0,0,0,734.452,430.236Z" transform="translate(-701.491 -395.55)" fill="#222872"/>
    </g>
  </g>
</svg>
