<svg xmlns="http://www.w3.org/2000/svg" width="113" height="113" viewBox="0 0 113 113">
  <g id="Group_58341" data-name="Group 58341" transform="translate(-1017 -2836)">
    <circle id="Ellipse_877" data-name="Ellipse 877" cx="56.5" cy="56.5" r="56.5" transform="translate(1017 2836)" fill="#06b2ff"/>
    <g id="Group_58328" data-name="Group 58328" transform="translate(557.619 2675.636)">
      <g id="Group_58327" data-name="Group 58327" transform="translate(494.008 193.605)">
        <path id="Path_47801" data-name="Path 47801" d="M536.639,217.308c.375-.946.741-1.894,1.129-2.834a.542.542,0,0,0-.076-.617,2.3,2.3,0,0,1,.052-2.88,2.34,2.34,0,0,1,4.121,1.881,2.3,2.3,0,0,1-2.128,1.938.578.578,0,0,0-.588.443c-.307.8-.644,1.583-.984,2.409l.439.22a6.909,6.909,0,0,1,4.12,6.407c.067,4.07.019,8.141.011,12.212a1.447,1.447,0,0,1-.15.608c-.568,1.169-1.16,2.326-1.727,3.5a.534.534,0,0,1-.56.356c-2.023-.014-4.045,0-6.068-.009-.677,0-.957-.284-.961-.963-.005-.923,0-1.846,0-2.769,0-.049.01-.1.023-.224a2.128,2.128,0,0,0,.7-.015,1.366,1.366,0,0,0,.753-.5.931.931,0,0,0-.158-.835c-1.014-1.079-2.07-2.12-3.129-3.156a.744.744,0,0,0-1.143.018c-1.045,1.027-2.089,2.056-3.093,3.122a.945.945,0,0,0-.182.831,1.365,1.365,0,0,0,.739.516,2.306,2.306,0,0,0,.75.015c0,.215,0,.405,0,.6a38.614,38.614,0,0,0,.1,4.144,4.6,4.6,0,0,0,4.544,3.958c1.677.026,3.355.007,5.032.007h.557v10.248H526.951v-.513q0-3.164,0-6.329c0-.77-.265-1.031-1.043-1.031q-3.528,0-7.055,0h-.587v-.567q0-4.3,0-8.6c0-.878-.236-1.115-1.107-1.115h-3.947c.1-.228.166-.407.247-.581,1.5-3.221,2.983-6.45,4.517-9.655a6.937,6.937,0,0,0,.378-2.067,9.319,9.319,0,0,1,5.442-7.369l-.012-.014c.365.862.719,1.728,1.1,2.583a.42.42,0,0,1-.184.631,5.429,5.429,0,0,0-2.481,4.677c-.011,1.482,0,2.964,0,4.446,0,.744.269,1.017,1,1.018q7.69,0,15.38,0c.7,0,.981-.281.983-.991,0-1.548.021-3.1-.006-4.644a5.386,5.386,0,0,0-1.793-3.979c-.3-.277-.642-.506-1-.787l1.387-3.413-1.547-.337Z" transform="translate(-513.211 -209.284)" fill="#fff"/>
        <path id="Path_47802" data-name="Path 47802" d="M770.77,225.685h-6.22a29.956,29.956,0,0,0-.833-3.228,17.893,17.893,0,0,0-1.466-2.895,6.359,6.359,0,0,1,3.5-9.389,6.3,6.3,0,0,1,7.312,9.2,14.75,14.75,0,0,0-2.035,4.73C770.929,224.617,770.859,225.139,770.77,225.685Zm1.546-9.5a4.6,4.6,0,0,0-4.669-4.66v1.5c1.905.227,2.82,1.143,3.169,3.161Z" transform="translate(-728.611 -209.087)" fill="#fff"/>
        <path id="Path_47803" data-name="Path 47803" d="M637.844,394.48l1.23-1.2,1.118,1.178a4.5,4.5,0,0,0-.285,1.056c-.039,1.185-.019,2.373-.013,3.56a2.36,2.36,0,0,0,2.447,2.469q7.425.009,14.851,0a2.36,2.36,0,0,0,2.438-2.43,10.116,10.116,0,0,0-.012-1.333,5.8,5.8,0,0,0-.324-1.025l1.139-1.152,1.2,1.271c-.388.2-.439.6-.428,1.046.018.692.015,1.385,0,2.077a3.131,3.131,0,0,1-3.112,3.124q-8.338.023-16.676,0a3.123,3.123,0,0,1-3.1-3.134c-.017-1.5-.012-3,0-4.5A1.011,1.011,0,0,0,637.844,394.48Z" transform="translate(-621.415 -368.314)" fill="#fff"/>
        <path id="Path_47804" data-name="Path 47804" d="M567.477,217.893c-.41-1.02-.81-2.044-1.245-3.053-.051-.119-.3-.205-.458-.217a2.409,2.409,0,0,1-2.239-2.183,2.371,2.371,0,0,1,1.853-2.509,2.375,2.375,0,0,1,2.4,3.748.562.562,0,0,0-.116.421c.417,1.07.859,2.129,1.31,3.229A17.3,17.3,0,0,1,573.8,217l-.013-.014v3.153c-.132.008-.211.015-.29.018-1.015.032-2.029.074-3.044.08a.558.558,0,0,1-.392-.3c-.375-.851-.718-1.715-1.1-2.639l-1.5.583Z" transform="translate(-556.894 -209.076)" fill="#fff"/>
        <path id="Path_47805" data-name="Path 47805" d="M636.244,211.774c0-1.515.006-3.029-.018-4.544a1,1,0,0,0-.261-.62,1.6,1.6,0,0,1-.047-2.3,1.568,1.568,0,0,1,2.217,0,1.6,1.6,0,0,1-.045,2.3.994.994,0,0,0-.262.62c-.025,1.514-.017,3.029-.019,4.544l.015-.014H636.23Z" transform="translate(-619.339 -203.851)" fill="#fff"/>
        <path id="Path_47806" data-name="Path 47806" d="M653.326,263.862c1.344,0,2.689-.01,4.033,0a8.738,8.738,0,0,1,.925.1l-.02-.018c-.4.953-.8,1.9-1.186,2.861-.089.219-.178.333-.457.31-.733-.059-1.47-.072-2.206-.1-.353-.011-.706,0-1.075,0v-3.172Z" transform="translate(-634.856 -255.939)" fill="#fff"/>
        <path id="Path_47807" data-name="Path 47807" d="M785.142,342.087h6.314c0,.26.01.5,0,.742a.772.772,0,0,1-.8.814q-2.338.02-4.676,0a.779.779,0,0,1-.829-.84C785.134,342.577,785.142,342.349,785.142,342.087Z" transform="translate(-749.294 -323.865)" fill="#fff"/>
        <path id="Path_47808" data-name="Path 47808" d="M803.061,366.078h1.547c.009.509.2,1.061-.322,1.392a.972.972,0,0,1-.81.048C802.874,367.227,803.084,366.631,803.061,366.078Z" transform="translate(-764.839 -344.694)" fill="#fff"/>
        <path id="Path_47811" data-name="Path 47811" d="M674.361,311.875a5.065,5.065,0,0,0-1.18-2.364.453.453,0,0,1-.083-.385c.6-1.49,1.214-2.973,1.845-4.5a3.778,3.778,0,0,1,1.841,3.12c.059,1.362.013,2.728.013,4.132Z" transform="translate(-652.009 -291.339)" fill="#fff"/>
        <path id="Path_47812" data-name="Path 47812" d="M595.324,304.591l.927,2.253c.293.713.6,1.423.871,2.143a.568.568,0,0,1-.022.475,5.118,5.118,0,0,0-1.2,2.4h-2.438c0-.427-.008-.848,0-1.268.027-1.165-.021-2.34.116-3.492A3.522,3.522,0,0,1,595.324,304.591Z" transform="translate(-582.885 -291.312)" fill="#fff"/>
        <path id="Path_47813" data-name="Path 47813" d="M630.825,344.3h-5.952a3,3,0,0,1,2.834-2.35A3.046,3.046,0,0,1,630.825,344.3Z" transform="translate(-610.154 -323.74)" fill="#fff"/>
        <path id="Path_47814" data-name="Path 47814" d="M621.773,304.326l-1.169.371-1.779-4.32h2.948Z" transform="translate(-604.903 -287.653)" fill="#fff"/>
        <path id="Path_47815" data-name="Path 47815" d="M656.508,300.22l-1.782,4.336-1.174-.369V300.22Z" transform="translate(-635.053 -287.517)" fill="#fff"/>
      </g>
    </g>
  </g>
</svg>
