<svg xmlns="http://www.w3.org/2000/svg" width="52.87" height="39.265" viewBox="0 0 52.87 39.265">
  <g id="Group_55786" data-name="Group 55786" transform="translate(-353.138 -1849.867)">
    <path id="coding-icon" d="M3.58,0H49.29a3.588,3.588,0,0,1,3.58,3.58V35.685a3.593,3.593,0,0,1-3.58,3.58H3.58A3.593,3.593,0,0,1,0,35.685V3.58A3.588,3.588,0,0,1,3.58,0ZM6.962,31.5a1.144,1.144,0,1,1,0-2.289H17.718a1.144,1.144,0,0,1,0,2.289Zm0-7.147a1.144,1.144,0,1,1,0-2.289h18.69a1.144,1.144,0,0,1,0,2.289Zm0-7.147a1.144,1.144,0,0,1,0-2.289h29.61a1.144,1.144,0,1,1,0,2.289Zm43.808-7.19H2.276V36.034a1.014,1.014,0,0,0,1.007.99H49.75a.984.984,0,0,0,.99-.99V10.021Zm-4.888-6a1.768,1.768,0,1,1-1.764,1.768,1.768,1.768,0,0,1,1.764-1.768Zm-11.978,0a1.768,1.768,0,1,1-1.768,1.768A1.768,1.768,0,0,1,33.9,4.023Zm5.989,0a1.768,1.768,0,1,1-1.768,1.768A1.768,1.768,0,0,1,39.893,4.023Z" transform="translate(353.138 1849.867)" fill="#222872" fill-rule="evenodd"/>
    <path id="coding-icon-2" data-name="coding-icon" d="M38.207,23.423a1.016,1.016,0,0,1,1.979.46l-2.2,9.435A1.016,1.016,0,0,1,36,32.859Zm-3.451,7.555a1.015,1.015,0,0,1-1.334,1.527L29.55,29.128a1.011,1.011,0,0,1-.095-1.428.718.718,0,0,1,.1-.1l3.872-3.373a1.012,1.012,0,0,1,1.334,1.523l-2.982,2.616Zm8.269,1.532a1.016,1.016,0,1,1-1.334-1.532l2.982-2.612-2.982-2.612a1.012,1.012,0,1,1,1.334-1.523L46.9,27.605a.718.718,0,0,1,.1.1,1.011,1.011,0,0,1-.095,1.428L43.03,32.51Z" transform="translate(354.138 1849.867)" fill="#009eff" fill-rule="evenodd"/>
  </g>
</svg>
