<svg xmlns="http://www.w3.org/2000/svg" width="42.111" height="42.203" viewBox="0 0 42.111 42.203">
  <g id="Group_68961" data-name="Group 68961" transform="translate(-1.983 -1.892)">
    <path id="Path_47566" data-name="Path 47566" d="M528.643,207.8q8.048,0,16.1,0a4.712,4.712,0,0,1,4.816,3.752,5.5,5.5,0,0,1,.112,1.16q.009,16.177,0,32.353a4.7,4.7,0,0,1-3.712,4.8,5.72,5.72,0,0,1-1.245.124q-16.1.01-32.194,0a4.736,4.736,0,0,1-4.954-4.98q0-16.132,0-32.264a4.716,4.716,0,0,1,3.734-4.833,6.325,6.325,0,0,1,1.336-.117Q520.639,207.8,528.643,207.8Zm19.08,7.685h-.637q-6.882,0-13.764,0a5.866,5.866,0,0,1-5.739-3.933c-.174-.477-.347-.957-.477-1.447-.082-.311-.24-.377-.539-.377-4.708.009-9.416,0-14.123.008a2.763,2.763,0,0,0-2.949,2.947q-.006,16.221,0,32.442a2.764,2.764,0,0,0,2.953,2.943q16.163.005,32.326,0a3.581,3.581,0,0,0,.8-.067,2.792,2.792,0,0,0,2.169-2.95q0-14.536,0-29.072C547.744,215.833,547.732,215.687,547.722,215.488Zm.044-1.933a11.406,11.406,0,0,0-.09-1.62,2.747,2.747,0,0,0-2.872-2.2q-7.662-.006-15.325,0h-.437c.508,2.577,2.145,3.859,4.434,3.834,4.555-.049,9.111-.014,13.667-.014Z" transform="translate(-505.58 -205.909)" fill="#222872"/>
    <path id="Path_47570" data-name="Path 47570" d="M589.418,240.867a.922.922,0,0,1-.92.947.944.944,0,0,1-.977-.944.963.963,0,0,1,.974-.955A.944.944,0,0,1,589.418,240.867Z" transform="translate(-575.959 -234.175)" fill="#222872"/>
    <path id="Path_47571" data-name="Path 47571" d="M620.5,241.813a.925.925,0,0,1-.951-.962.945.945,0,0,1,.937-.939.964.964,0,0,1,.959.97A.948.948,0,0,1,620.5,241.813Z" transform="translate(-604.154 -234.173)" fill="#222872"/>
    <path id="Path_47572" data-name="Path 47572" d="M556.509,241.815a.949.949,0,0,1-.95-.929.956.956,0,0,1,1.912-.034A.951.951,0,0,1,556.509,241.815Z" transform="translate(-547.826 -234.176)" fill="#222872"/>
    <path id="laravel" d="M22.866,7.328c-.164-.164-2.264-2.81-2.619-3.247-.382-.437-.546-.355-.791-.327s-2.892.491-3.192.518c-.3.055-.491.164-.3.437.164.246,1.91,2.7,2.292,3.274L11.3,9.647,5.788.4C5.57.071,5.515-.038,5.024-.011S.686.344.413.344C.14.371-.16.48.113,1.135S4.751,11.175,4.86,11.448a.938.938,0,0,0,1.173.546c.764-.191,3.383-.873,4.829-1.255.764,1.364,2.292,4.147,2.592,4.556.382.546.655.437,1.228.273.464-.136,7.148-2.537,7.448-2.674s.491-.218.273-.518c-.164-.218-1.91-2.592-2.837-3.819.627-.164,2.892-.764,3.137-.846.273-.082.327-.218.164-.382ZM10.235,9.92c-.082.027-3.983.955-4.174,1.009-.218.055-.218.027-.218-.055C5.788,10.793,1.2,1.3,1.123,1.19c-.055-.109-.055-.218,0-.218S4.806.644,4.915.644c.136,0,.109.027.164.109,0,0,5.1,8.812,5.184,8.948.109.136.055.191-.027.218ZM21.2,11.966c.055.109.136.164-.082.218-.191.082-6.575,2.237-6.711,2.292s-.218.082-.382-.164-2.237-3.819-2.237-3.819l6.793-1.773c.164-.055.218-.082.327.082.109.191,2.237,3.083,2.292,3.165Zm.437-4.8c-.164.027-2.646.655-2.646.655L16.946,5.036c-.055-.082-.109-.164.027-.191s2.455-.437,2.564-.464.191-.055.327.136C20,4.682,21.748,6.919,21.83,7s-.027.136-.191.164Z" transform="translate(11.557 16.851)" fill="#009eff"/>
  </g>
</svg>
