<svg xmlns="http://www.w3.org/2000/svg" width="57.959" height="54.324" viewBox="0 0 57.959 54.324">
  <g id="Group_68962" data-name="Group 68962" transform="translate(-9401.001 -691)">
    <path id="Path_50878" data-name="Path 50878" d="M144.777,86.3h-3.866a.906.906,0,0,0-.906.906v9.056a.905.905,0,0,0,.906.906h3.866a13.119,13.119,0,0,0,1.231,2.4l.105.175-3.125,3.125h0a.906.906,0,0,0,0,1.281l6.339,6.339a.906.906,0,0,0,1.281,0l3.125-3.125.175.105h0a13.122,13.122,0,0,0,2.4,1.231v3.866a.905.905,0,0,0,.906.906h9.056a.905.905,0,0,0,.906-.906V108.7a13.121,13.121,0,0,0,2.4-1.231l.175-.105,3.125,3.125h0a.906.906,0,0,0,1.281,0l6.339-6.339a.906.906,0,0,0,0-1.281l-3.125-3.125.105-.175h0a13.124,13.124,0,0,0,1.231-2.4h3.866a.905.905,0,0,0,.906-.906V87.206a.905.905,0,0,0-.906-.906H178.7a13.121,13.121,0,0,0-1.231-2.4l-.105-.175L180.49,80.6h0a.906.906,0,0,0,0-1.281l-6.339-6.339a.906.906,0,0,0-1.281,0l-3.125,3.125L169.571,76h0a13.123,13.123,0,0,0-2.4-1.231V70.905a.905.905,0,0,0-.906-.906h-9.056a.906.906,0,0,0-.906.906v3.866a13.12,13.12,0,0,0-2.4,1.231l-.175.105-3.125-3.125h0a.906.906,0,0,0-1.281,0l-6.339,6.339a.906.906,0,0,0,0,1.281l3.125,3.125-.105.175h0A13.121,13.121,0,0,0,144.777,86.3Zm3.113-3.357-2.982-2.982,5.059-5.059,2.982,2.982h0a.906.906,0,0,0,1.092.145c.281-.162.543-.321.8-.478a9.833,9.833,0,0,1,2.605-1.244.906.906,0,0,0,.667-.874V71.811h7.245v3.622a.906.906,0,0,0,.667.874,9.832,9.832,0,0,1,2.605,1.244c.257.157.522.316.8.478a.906.906,0,0,0,1.092-.145l2.982-2.982,5.059,5.059-2.982,2.982h0a.906.906,0,0,0-.145,1.092c.162.281.321.543.478.8a9.834,9.834,0,0,1,1.244,2.605.906.906,0,0,0,.874.667h3.622v7.245h-3.622a.906.906,0,0,0-.874.667,9.832,9.832,0,0,1-1.244,2.605c-.157.257-.316.522-.478.8a.906.906,0,0,0,.145,1.092l2.982,2.982-5.059,5.059-2.982-2.982h0a.906.906,0,0,0-1.092-.145c-.281.162-.543.321-.8.478a9.833,9.833,0,0,1-2.605,1.244.906.906,0,0,0-.667.874v3.622h-7.245v-3.622a.906.906,0,0,0-.667-.874,9.831,9.831,0,0,1-2.605-1.244c-.257-.157-.522-.316-.8-.478a.906.906,0,0,0-1.092.145l-2.982,2.982-5.059-5.059,2.982-2.982h0a.906.906,0,0,0,.145-1.092c-.162-.281-.321-.543-.478-.8a9.833,9.833,0,0,1-1.244-2.605.906.906,0,0,0-.874-.667h-3.622V88.111h3.622a.906.906,0,0,0,.874-.667,9.83,9.83,0,0,1,1.244-2.605c.157-.257.316-.522.478-.8A.906.906,0,0,0,147.89,82.943Z" transform="translate(9268.238 626.424)" fill="#222872"/>
    <path id="Path_50880" data-name="Path 50880" d="M146.445,33.915a.911.911,0,0,0-1.119.622l-.94,3.278a27.163,27.163,0,0,0-53.017,2.25.906.906,0,1,0,1.785.31,25.349,25.349,0,0,1,49.55-1.83l-3.17-2.644a.906.906,0,0,0-1.16,1.392l5.433,4.528a.905.905,0,0,0,.579.21.936.936,0,0,0,.272-.04.9.9,0,0,0,.6-.617l1.811-6.339a.906.906,0,0,0-.627-1.12Z" transform="translate(9311.854 673.409)" fill="#222872"/>
    <path id="Path_50881" data-name="Path 50881" d="M124.956,307.168a.9.9,0,0,0-1.045.737,25.287,25.287,0,0,1-49.437,1.881l3.108,2.592a.907.907,0,0,0,1.16-1.393l-5.433-4.528a.906.906,0,0,0-1.449.448l-1.811,6.339a.905.905,0,0,0,.622,1.119.948.948,0,0,0,.247.034.906.906,0,0,0,.87-.657l.965-3.377h0a27.095,27.095,0,0,0,52.937-2.149.905.905,0,0,0-.734-1.047Z" transform="translate(9330.988 414.626)" fill="#222872"/>
    <path id="laravel" d="M23.081,7.4c-.165-.165-2.286-2.836-2.644-3.277-.386-.441-.551-.358-.8-.33s-2.919.5-3.222.523c-.3.055-.5.165-.3.441.165.248,1.928,2.726,2.313,3.3l-7.022,1.68L5.842.4c-.22-.33-.275-.441-.771-.413S.693.347.417.347c-.275.028-.578.138-.3.8S4.8,11.28,4.906,11.556a.947.947,0,0,0,1.184.551c.771-.193,3.415-.881,4.874-1.267.771,1.377,2.313,4.186,2.616,4.6.386.551.661.441,1.239.275.468-.138,7.215-2.561,7.518-2.7s.5-.22.275-.523c-.165-.22-1.928-2.616-2.864-3.855.633-.165,2.919-.771,3.167-.854.275-.083.33-.22.165-.386Zm-12.75,2.616c-.083.028-4.021.964-4.213,1.019-.22.055-.22.028-.22-.055C5.842,10.895,1.216,1.311,1.133,1.2c-.055-.11-.055-.22,0-.22S4.851.65,4.961.65c.138,0,.11.028.165.11,0,0,5.15,8.895,5.232,9.033.11.138.055.193-.028.22ZM21.4,12.079c.055.11.138.165-.083.22-.193.083-6.637,2.258-6.775,2.313s-.22.083-.386-.165S11.9,10.592,11.9,10.592L18.758,8.8c.165-.055.22-.083.33.083.11.193,2.258,3.112,2.313,3.194Zm.441-4.847c-.165.028-2.671.661-2.671.661L17.106,5.084c-.055-.083-.11-.165.028-.193s2.478-.441,2.589-.468.193-.055.33.138c.138.165,1.9,2.423,1.983,2.506s-.028.138-.193.165Z" transform="translate(9418.387 710.241)" fill="#009eff"/>
  </g>
</svg>
