<svg xmlns="http://www.w3.org/2000/svg" width="47.521" height="47.512" viewBox="0 0 47.521 47.512">
  <g id="data" transform="translate(0 -0.046)">
    <path id="Path_14202" data-name="Path 14202" d="M300.72,352.051a6.341,6.341,0,0,0-6.28,5.543h-4.014a.792.792,0,0,1-.792-.792v-4.751h-1.584V356.8a2.376,2.376,0,0,0,2.376,2.376h4.014a6.335,6.335,0,1,0,6.28-7.127Zm0,11.086a4.751,4.751,0,1,1,4.751-4.751A4.751,4.751,0,0,1,300.72,363.137Zm0,0" transform="translate(-259.539 -317.163)" fill="#222872"/>
    <path id="Path_14203" data-name="Path 14203" d="M6.34,12.716a6.341,6.341,0,0,0,6.28-5.543h4.014a.792.792,0,0,1,.792.792v3.959H19.01V7.965a2.376,2.376,0,0,0-2.376-2.376H12.62a6.335,6.335,0,1,0-6.28,7.127Zm0-11.086A4.751,4.751,0,1,1,1.589,6.381,4.751,4.751,0,0,1,6.34,1.63Zm0,0" transform="translate(0 0)" fill="#222872"/>
    <path id="Path_14204" data-name="Path 14204" d="M289.634,7.967a.792.792,0,0,1,.792-.792h4.014a6.335,6.335,0,1,0,0-1.584h-4.014a2.376,2.376,0,0,0-2.376,2.376v3.959h1.584ZM300.72,1.632a4.751,4.751,0,1,1-4.751,4.751A4.751,4.751,0,0,1,300.72,1.632Zm0,0" transform="translate(-259.539 -0.002)" fill="#222872"/>
    <path id="Path_14205" data-name="Path 14205" d="M17.426,356.8a.792.792,0,0,1-.792.792H12.62a6.335,6.335,0,1,0,0,1.584h4.014A2.376,2.376,0,0,0,19.01,356.8v-4.7H17.426ZM6.34,363.134a4.751,4.751,0,1,1,4.751-4.751A4.751,4.751,0,0,1,6.34,363.134Zm0,0" transform="translate(0 -317.16)" fill="#222872"/>
    <path id="Path_14206" data-name="Path 14206" d="M163.055,139.317V127.588a.792.792,0,0,0-.413-.7l-7.952-4.337a2.365,2.365,0,0,0-2.276,0l-7.952,4.337a.792.792,0,0,0-.413.7v11.729a2.375,2.375,0,0,0,1.238,2.086l7.127,3.887a2.367,2.367,0,0,0,2.276,0l7.127-3.887A2.376,2.376,0,0,0,163.055,139.317Zm-9.882-15.372a.791.791,0,0,1,.759,0l6.678,3.643-6.678,3.643a.793.793,0,0,1-.759,0l-6.678-3.643Zm-7.127,16.067a.792.792,0,0,1-.413-.7v-10.4l6.781,3.7a2.311,2.311,0,0,0,.346.136v10.919Zm15.012,0-6.714,3.663V132.756a2.329,2.329,0,0,0,.346-.136l6.781-3.7v10.4A.792.792,0,0,1,161.059,140.012Zm0,0" transform="translate(-129.792 -110.121)" fill="#009eff"/>
    <path id="Path_14207" data-name="Path 14207" d="M48.843,48.051h1.584a.792.792,0,0,1,.792.792v1.584a.792.792,0,0,1-.792.792H48.843a.792.792,0,0,1-.792-.792V48.843A.792.792,0,0,1,48.843,48.051Zm0,0" transform="translate(-43.295 -43.253)" fill="#222872"/>
    <path id="Path_14208" data-name="Path 14208" d="M48.843,400.051h1.584a.792.792,0,0,1,.792.792v1.584a.792.792,0,0,1-.792.792H48.843a.792.792,0,0,1-.792-.792v-1.584A.792.792,0,0,1,48.843,400.051Zm0,0" transform="translate(-43.295 -360.412)" fill="#222872"/>
    <path id="Path_14209" data-name="Path 14209" d="M400.843,400.051h1.584a.792.792,0,0,1,.792.792v1.584a.792.792,0,0,1-.792.792h-1.584a.792.792,0,0,1-.792-.792v-1.584A.792.792,0,0,1,400.843,400.051Zm0,0" transform="translate(-360.453 -360.412)" fill="#222872"/>
    <path id="Path_14210" data-name="Path 14210" d="M400.843,48.051h1.584a.792.792,0,0,1,.792.792v1.584a.792.792,0,0,1-.792.792h-1.584a.792.792,0,0,1-.792-.792V48.843A.792.792,0,0,1,400.843,48.051Zm0,0" transform="translate(-360.453 -43.253)" fill="#222872"/>
  </g>
</svg>
