<?xml version="1.0" encoding="utf-8"?>
<!-- Generator: Adobe Illustrator 23.0.0, SVG Export Plug-In . SVG Version: 6.00 Build 0)  -->
<svg version="1.1" id="Layer_1" xmlns="http://www.w3.org/2000/svg" xmlns:xlink="http://www.w3.org/1999/xlink" x="0px" y="0px"
	 viewBox="0 0 52.4 50.9" style="enable-background:new 0 0 52.4 50.9;" xml:space="preserve">
<style type="text/css">
	.st0{fill:#FFFFFF;}
</style>
<g>
	<g>
		<path class="st0" d="M-15.7,0h-50.6c-0.5,0-0.9,0.3-0.9,0.9V41c0,0.5,0.3,0.9,0.9,0.9h19.2v8.7h-2.6v1.7h3.5h10.5h3.5v-1.7h-2.6
			v-8.7h19.2c0.5,0,0.9-0.3,0.9-0.9V0.9C-14.9,0.3-15.2,0-15.7,0z M-36.7,50.6h-8.7v-8.7h8.7V50.6z M-16.6,40.1h-19.2h-10.5h-19.2
			v-7h2.6h19.2h5.2h19.2h2.6V40.1z M-37.7,14.2l-2.5-6.6c-0.1-0.3-0.4-0.5-0.8-0.5s-0.7,0.2-0.8,0.5l-2.5,6.6
			c-0.1,0.2-0.2,0.3-0.2,0.6v16.6H-62V5.2h41.9v26.2h-17.5V14.8C-37.5,14.6-37.6,14.4-37.7,14.2z M-42.4,14l1.3-3.7l1.4,3.7H-42.4z
			 M-41.9,15.7v15.7h-0.9V15.7H-41.9z M-40.2,15.7h0.9v15.7h-0.9V15.7z M-16.6,31.4h-1.7V4.4c0-0.5-0.3-0.9-0.9-0.9h-43.6
			c-0.5,0-0.9,0.3-0.9,0.9v27.1h-1.7V1.7h48.9V31.4z"/>
		<path class="st0" d="M-22.7,21.8v-7c0-0.5-0.3-0.9-0.9-0.9h-10.5v0.9v0.9v2.6h1.7v-2.6h3.5v2.6h1.7v-2.6h2.6v5.2h-9.6v1.7h10.5
			C-23.1,22.7-22.7,22.3-22.7,21.8z"/>
		<path class="st0" d="M-59.4,14.8v7c0,0.5,0.3,0.9,0.9,0.9H-48v-1.7h-9.6v-5.2h2.6v2.6h1.7v-2.6h3.5v2.6h1.7v-2.6v-0.9V14h-10.5
			C-59,14-59.4,14.3-59.4,14.8z"/>
		<rect x="-56.7" y="24.4" class="st0" width="1.7" height="1.7"/>
		<rect x="-53.3" y="24.4" class="st0" width="1.7" height="1.7"/>
		<rect x="-49.8" y="24.4" class="st0" width="1.7" height="1.7"/>
		<rect x="-34.1" y="24.4" class="st0" width="1.7" height="1.7"/>
		<rect x="-30.6" y="24.4" class="st0" width="1.7" height="1.7"/>
		<rect x="-27.1" y="24.4" class="st0" width="1.7" height="1.7"/>
		<rect x="-34.1" y="10.5" class="st0" width="1.7" height="1.7"/>
		<rect x="-30.6" y="10.5" class="st0" width="1.7" height="1.7"/>
		<rect x="-27.1" y="10.5" class="st0" width="1.7" height="1.7"/>
		<rect x="-56.7" y="10.5" class="st0" width="1.7" height="1.7"/>
		<rect x="-53.3" y="10.5" class="st0" width="1.7" height="1.7"/>
		<rect x="-49.8" y="10.5" class="st0" width="1.7" height="1.7"/>
	</g>
</g>
<g>
	<path class="st0" d="M48,16H4.3c-0.8,0-1.4,0.6-1.4,1.3v29.5c0,0.7,0.6,1.3,1.4,1.3H48c0.8,0,1.4-0.6,1.4-1.3V17.3
		C49.5,16.6,48.8,16,48,16L48,16z M48,13.1c2.4,0,4.3,1.9,4.3,4.2v29.5c0,2.3-2,4.2-4.3,4.2H4.3C2,50.9,0,49,0,46.7V17.3
		c0-2.3,2-4.2,4.3-4.2L48,13.1L48,13.1z M10.2,1.5h32c1,0,1.5,0.5,1.5,1.5c0,1-0.5,1.5-1.5,1.5h-32c-1,0-1.5-0.5-1.5-1.5
		C8.7,1.9,9.2,1.5,10.2,1.5z M4.4,7.3H48c1,0,1.5,0.5,1.5,1.5c0,1-0.5,1.5-1.5,1.5H4.4c-1,0-1.5-0.5-1.5-1.5
		C2.9,7.8,3.4,7.3,4.4,7.3z"/>
	<path class="st0" d="M8.7,24.7c0,1.6,1.3,2.9,2.9,2.9s2.9-1.3,2.9-2.9c0-1.6-1.3-2.9-2.9-2.9C10,21.8,8.7,23.1,8.7,24.7L8.7,24.7
		L8.7,24.7z M17.5,39.3c0,1.6,1.3,2.9,2.9,2.9c1.6,0,2.9-1.3,2.9-2.9s-1.3-2.9-2.9-2.9C18.8,36.4,17.5,37.7,17.5,39.3L17.5,39.3z
		 M26.2,24.7c0,1.6,1.3,2.9,2.9,2.9c1.6,0,2.9-1.3,2.9-2.9c0,0,0,0,0,0c0-1.6-1.3-2.9-2.9-2.9C27.5,21.8,26.2,23.1,26.2,24.7
		L26.2,24.7L26.2,24.7z M37.8,39.3c0,1.6,1.3,2.9,2.9,2.9c1.6,0,2.9-1.3,2.9-2.9c0,0,0,0,0,0c0-1.6-1.3-2.9-2.9-2.9
		C39.1,36.4,37.8,37.7,37.8,39.3C37.8,39.3,37.8,39.3,37.8,39.3z"/>
	<path class="st0" d="M20.3,42.5l-9.9-16.9l2.5-1.5l7.5,12.7L29,22.3l12.7,16.5l-2.3,1.8L29.3,27.4L20.3,42.5z"/>
</g>
<g>
	<g>
		<g>
			<path class="st0" d="M-86.2,17.8h-12.4l0.6-3.6l-6.8-8.8l-6.8,8.8l0.6,3.6h-12.4c-1.9,0-3.4,1.5-3.4,3.4v22.1
				c0,1.9,1.5,3.4,3.4,3.4h11v4.2h-3.4v1.7h3.4h15.3h3.4v-1.7h-3.4v-4.2h11c1.9,0,3.4-1.5,3.4-3.4V21.2
				C-82.8,19.3-84.3,17.8-86.2,17.8z M-104.9,14.4c0.5,0,0.8,0.4,0.8,0.8s-0.4,0.8-0.8,0.8c-0.5,0-0.8-0.4-0.8-0.8
				S-105.3,14.4-104.9,14.4z M-105.7,9.3v3.6c-1,0.4-1.7,1.3-1.7,2.4c0,1.4,1.1,2.5,2.5,2.5c1.4,0,2.5-1.1,2.5-2.5
				c0-1.1-0.7-2-1.7-2.4V9.3l4.2,5.4l-1.5,9.1h-7.1l-1.5-9.1L-105.7,9.3z M-109.1,25.5h8.5c0.5,0,0.8,0.4,0.8,0.8
				c0,0.5-0.4,0.8-0.8,0.8h-8.5c-0.5,0-0.8-0.4-0.8-0.8C-110,25.8-109.6,25.5-109.1,25.5z M-101.5,34.8h-6.8v-5.9h6.8L-101.5,34.8z
				 M-110.1,24c-0.9,0.4-1.6,1.3-1.6,2.4c0,1.1,0.7,2,1.7,2.4v6.1c0,0.9,0.8,1.7,1.7,1.7h6.8c0.9,0,1.7-0.8,1.7-1.7v-6.1
				c1-0.4,1.7-1.3,1.7-2.4c0-1.1-0.7-2-1.6-2.4l0.2-1h11.6v18.7h-34V22.9h11.6L-110.1,24z M-98.9,50.9h-11.9v-4.2h11.9V50.9z
				 M-84.5,43.3L-84.5,43.3c0,0.9-0.8,1.7-1.7,1.7h-11h-15.3h-11c-0.9,0-1.7-0.8-1.7-1.7V21.2c0-0.9,0.8-1.7,1.7-1.7h12.7l0.3,1.7
				h-13v22.1h37.3V21.2h-13l0.3-1.7h12.7c0.9,0,1.7,0.8,1.7,1.7V43.3L-84.5,43.3z"/>
			<path class="st0" d="M-118.5,5.1c1.1,0,2-0.7,2.4-1.7h5.1c-3,1.8-5.1,4.9-5.7,8.5h-1.8V17h5.1v-5.1h-1.5c0.8-4.8,5-8.5,10-8.5
				c5,0,9.2,3.7,10,8.5h-1.5V17h5.1v-5.1h-1.8c-0.5-3.6-2.7-6.7-5.7-8.5h4.3c0.4,1,1.3,1.7,2.4,1.7c1.4,0,2.5-1.1,2.5-2.5
				S-90.7,0-92.1,0c-1.1,0-2,0.7-2.4,1.7h-21.5c-0.4-1-1.3-1.7-2.4-1.7c-1.4,0-2.5,1.1-2.5,2.5S-119.9,5.1-118.5,5.1z M-115.1,15.3
				h-1.7v-1.7h1.7V15.3z M-94.7,13.6h1.7v1.7h-1.7V13.6z M-92.1,1.7c0.5,0,0.8,0.4,0.8,0.8s-0.4,0.8-0.8,0.8S-93,3-93,2.5
				S-92.6,1.7-92.1,1.7z M-118.5,1.7c0.5,0,0.8,0.4,0.8,0.8s-0.4,0.8-0.8,0.8s-0.8-0.4-0.8-0.8S-118.9,1.7-118.5,1.7z"/>
			<rect x="-98.1" y="32.3" class="st0" width="1.7" height="1.7"/>
			<rect x="-94.7" y="32.3" class="st0" width="1.7" height="1.7"/>
			<rect x="-91.3" y="32.3" class="st0" width="1.7" height="1.7"/>
			<rect x="-120.2" y="32.3" class="st0" width="1.7" height="1.7"/>
			<rect x="-116.8" y="32.3" class="st0" width="1.7" height="1.7"/>
			<rect x="-113.4" y="32.3" class="st0" width="1.7" height="1.7"/>
		</g>
	</g>
</g>
</svg>
