<?xml version="1.0" encoding="utf-8"?>
<!-- Generator: Adobe Illustrator 23.0.0, SVG Export Plug-In . SVG Version: 6.00 Build 0)  -->
<svg version="1.1" id="Layer_1" xmlns="http://www.w3.org/2000/svg" xmlns:xlink="http://www.w3.org/1999/xlink" x="0px" y="0px"
	 viewBox="0 0 52.4 52.9" style="enable-background:new 0 0 52.4 52.9;" xml:space="preserve">
<style type="text/css">
	.st0{fill:#FFFFFF;}
</style>
<g>
	<path class="st0" d="M180.9,16.3h-43.7c-0.8,0-1.4,0.6-1.4,1.3V47c0,0.7,0.6,1.3,1.4,1.3h43.7c0.8,0,1.4-0.6,1.4-1.3V17.5
		C182.3,16.9,181.7,16.3,180.9,16.3L180.9,16.3z M180.9,13.4c2.4,0,4.3,1.9,4.3,4.2V47c0,2.3-2,4.2-4.3,4.2h-43.7
		c-2.4,0-4.3-1.9-4.3-4.2V17.5c0-2.3,2-4.2,4.3-4.2L180.9,13.4L180.9,13.4z M143.1,1.7h32c1,0,1.5,0.5,1.5,1.5s-0.5,1.5-1.5,1.5h-32
		c-1,0-1.5-0.5-1.5-1.5S142.1,1.7,143.1,1.7z M137.2,7.5h43.6c1,0,1.5,0.5,1.5,1.5s-0.5,1.5-1.5,1.5h-43.6c-1,0-1.5-0.5-1.5-1.5
		S136.3,7.5,137.2,7.5z"/>
	<path class="st0" d="M141.6,25c0,1.6,1.3,2.9,2.9,2.9s2.9-1.3,2.9-2.9c0-1.6-1.3-2.9-2.9-2.9C142.9,22.1,141.6,23.4,141.6,25
		L141.6,25L141.6,25z M150.3,39.5c0,1.6,1.3,2.9,2.9,2.9c1.6,0,2.9-1.3,2.9-2.9s-1.3-2.9-2.9-2.9C151.6,36.6,150.3,37.9,150.3,39.5
		L150.3,39.5z M159.1,25c0,1.6,1.3,2.9,2.9,2.9c1.6,0,2.9-1.3,2.9-2.9c0,0,0,0,0,0c0-1.6-1.3-2.9-2.9-2.9
		C160.4,22.1,159.1,23.4,159.1,25L159.1,25L159.1,25z M170.7,39.5c0,1.6,1.3,2.9,2.9,2.9c1.6,0,2.9-1.3,2.9-2.9c0,0,0,0,0,0
		c0-1.6-1.3-2.9-2.9-2.9C172,36.6,170.7,37.9,170.7,39.5C170.7,39.5,170.7,39.5,170.7,39.5z"/>
	<path class="st0" d="M153.1,42.8l-9.9-16.9l2.5-1.5l7.5,12.7l8.7-14.5L174.6,39l-2.3,1.8l-10.1-13.1L153.1,42.8z"/>
</g>
<g>
	<g>
		<g>
			<path class="st0" d="M46.7,18.1H34.2l0.6-3.6L28,5.7l-6.8,8.8l0.6,3.6H9.3c-1.9,0-3.4,1.5-3.4,3.4v22.1c0,1.9,1.5,3.4,3.4,3.4h11
				v4.2H17v1.7h3.4h15.3H39v-1.7h-3.4v-4.2h11c1.9,0,3.4-1.5,3.4-3.4V21.5C50.1,19.6,48.6,18.1,46.7,18.1z M28,14.7
				c0.5,0,0.8,0.4,0.8,0.8s-0.4,0.8-0.8,0.8c-0.5,0-0.8-0.4-0.8-0.8S27.5,14.7,28,14.7z M27.2,9.5v3.6c-1,0.4-1.7,1.3-1.7,2.4
				c0,1.4,1.1,2.5,2.5,2.5c1.4,0,2.5-1.1,2.5-2.5c0-1.1-0.7-2-1.7-2.4V9.5l4.2,5.4L31.5,24h-7.1L23,14.9L27.2,9.5z M23.8,25.7h8.5
				c0.5,0,0.8,0.4,0.8,0.8c0,0.5-0.4,0.8-0.8,0.8h-8.5c-0.5,0-0.8-0.4-0.8-0.8C22.9,26.1,23.3,25.7,23.8,25.7z M31.4,35.1h-6.8v-5.9
				h6.8L31.4,35.1z M22.8,24.2c-0.9,0.4-1.6,1.3-1.6,2.4c0,1.1,0.7,2,1.7,2.4v6.1c0,0.9,0.8,1.7,1.7,1.7h6.8c0.9,0,1.7-0.8,1.7-1.7
				V29c1-0.4,1.7-1.3,1.7-2.4c0-1.1-0.7-2-1.6-2.4l0.2-1H45v18.7H11V23.2h11.6L22.8,24.2z M34,51.2H22.1v-4.2H34V51.2z M48.4,43.5
				L48.4,43.5c0,0.9-0.8,1.7-1.7,1.7h-11H20.4h-11c-0.9,0-1.7-0.8-1.7-1.7V21.5c0-0.9,0.8-1.7,1.7-1.7h12.7l0.3,1.7h-13v22.1h37.3
				V21.5h-13l0.3-1.7h12.7c0.9,0,1.7,0.8,1.7,1.7L48.4,43.5L48.4,43.5z"/>
			<path class="st0" d="M14.4,5.4c1.1,0,2-0.7,2.4-1.7h5.1c-3,1.8-5.1,4.9-5.7,8.5h-1.8v5.1h5.1v-5.1H18c0.8-4.8,5-8.5,10-8.5
				s9.2,3.7,10,8.5h-1.5v5.1h5.1v-5.1h-1.8c-0.5-3.6-2.7-6.7-5.7-8.5h4.3c0.4,1,1.3,1.7,2.4,1.7c1.4,0,2.5-1.1,2.5-2.5
				s-1.1-2.5-2.5-2.5c-1.1,0-2,0.7-2.4,1.7H16.8c-0.4-1-1.3-1.7-2.4-1.7c-1.4,0-2.5,1.1-2.5,2.5S13,5.4,14.4,5.4z M17.8,15.5h-1.7
				v-1.7h1.7V15.5z M38.2,13.8h1.7v1.7h-1.7V13.8z M40.7,2c0.5,0,0.8,0.4,0.8,0.8s-0.4,0.8-0.8,0.8s-0.8-0.4-0.8-0.8S40.3,2,40.7,2z
				 M14.4,2c0.5,0,0.8,0.4,0.8,0.8s-0.4,0.8-0.8,0.8s-0.8-0.4-0.8-0.8S14,2,14.4,2z"/>
			<rect x="34.8" y="32.5" class="st0" width="1.7" height="1.7"/>
			<rect x="38.2" y="32.5" class="st0" width="1.7" height="1.7"/>
			<rect x="41.6" y="32.5" class="st0" width="1.7" height="1.7"/>
			<rect x="12.7" y="32.5" class="st0" width="1.7" height="1.7"/>
			<rect x="16.1" y="32.5" class="st0" width="1.7" height="1.7"/>
			<rect x="19.5" y="32.5" class="st0" width="1.7" height="1.7"/>
		</g>
	</g>
</g>
<g>
	<g>
		<g>
			<path class="st0" d="M117.2,0.4H66.5c-0.5,0-0.9,0.3-0.9,0.9v40.1c0,0.5,0.3,0.9,0.9,0.9h19.2V51h-2.6v1.7h3.5h10.5h3.5V51H98
				v-8.7h19.2c0.5,0,0.9-0.3,0.9-0.9V1.3C118,0.7,117.7,0.4,117.2,0.4z M96.2,51h-8.7v-8.7h8.7V51z M116.3,40.5H97.1H86.6H67.4v-7
				H70h19.2h5.2h19.2h2.6V40.5z M88.4,31.8H70.9V5.6h41.9v26.2H95.3 M91,31.8h-0.9 M93.6,31.8h-0.9 M116.3,31.8h-1.7V4.8
				c0-0.5-0.3-0.9-0.9-0.9H70c-0.5,0-0.9,0.3-0.9,0.9v27.1h-1.7V2.1h48.9V31.8z"/>
			<path class="st0" d="M110.2,22.2v-7c0-0.5-0.3-0.9-0.9-0.9H98.8v0.9v0.9v2.6h1.7v-2.6h3.5v2.6h1.7v-2.6h2.6v5.2h-9.6v1.7h10.5
				C109.8,23.1,110.2,22.7,110.2,22.2z"/>
			<path class="st0" d="M73.5,15.2v7c0,0.5,0.3,0.9,0.9,0.9h10.5v-1.7h-9.6v-5.2h2.6v2.6h1.7v-2.6h3.5v2.6h1.7v-2.6v-0.9v-0.9H74.4
				C73.9,14.4,73.5,14.7,73.5,15.2z"/>
			<rect x="76.1" y="24.8" class="st0" width="1.7" height="1.7"/>
			<rect x="79.6" y="24.8" class="st0" width="1.7" height="1.7"/>
			<rect x="83.1" y="24.8" class="st0" width="1.7" height="1.7"/>
			<rect x="98.8" y="24.8" class="st0" width="1.7" height="1.7"/>
			<rect x="102.3" y="24.8" class="st0" width="1.7" height="1.7"/>
			<rect x="105.8" y="24.8" class="st0" width="1.7" height="1.7"/>
			<rect x="98.8" y="10.9" class="st0" width="1.7" height="1.7"/>
			<rect x="102.3" y="10.9" class="st0" width="1.7" height="1.7"/>
			<rect x="105.8" y="10.9" class="st0" width="1.7" height="1.7"/>
			<rect x="76.1" y="10.9" class="st0" width="1.7" height="1.7"/>
			<rect x="79.6" y="10.9" class="st0" width="1.7" height="1.7"/>
			<rect x="83.1" y="10.9" class="st0" width="1.7" height="1.7"/>
		</g>
	</g>
	<polygon class="st0" points="97.5,21.3 95.3,20 95.3,20.8 93.2,20.8 93.2,17.5 92.7,17.5 90.4,17.5 90.4,15.6 87.8,15.6 87.8,14.9 
		85.6,16.1 87.8,17.4 87.8,16.6 89.4,16.6 89.4,18.5 89.8,18.5 92.2,18.5 92.2,21.8 95.3,21.8 95.3,22.5 	"/>
</g>
</svg>
