<svg id="vector" xmlns="http://www.w3.org/2000/svg" width="34.133" height="34.133" viewBox="0 0 34.133 34.133">
  <g id="Group_69969" data-name="Group 69969">
    <g id="Group_69968" data-name="Group 69968">
      <path id="Path_51864" data-name="Path 51864" d="M33.133,0H29.066a1,1,0,0,0-1,1V2H19.882a2.982,2.982,0,0,0-5.632,0H6.067V1a1,1,0,0,0-1-1H1A1,1,0,0,0,0,1V5A1,1,0,0,0,1,6H5.067a1,1,0,0,0,1-1V3.987h4.107A13.045,13.045,0,0,0,4.141,14.228a2.991,2.991,0,1,0,2,.045,10.974,10.974,0,0,1,8.274-9.906,2.975,2.975,0,0,0,5.31,0A10.973,10.973,0,0,1,28,14.273a3.009,3.009,0,1,0,2-.045A13.021,13.021,0,0,0,23.96,4h4.107V5a1,1,0,0,0,1,1h4.067a1,1,0,0,0,1-1V1A1,1,0,0,0,33.133,0Z" fill="#fff"/>
    </g>
  </g>
  <g id="Group_69971" data-name="Group 69971" transform="translate(10.22 30.066)">
    <g id="Group_69970" data-name="Group 69970">
      <path id="Path_51865" data-name="Path 51865" d="M166.944,453.826a4.067,4.067,0,0,0-3.8-2.826h-6a4.067,4.067,0,0,0-3.8,2.826.985.985,0,0,0,.973,1.24h11.661A.985.985,0,0,0,166.944,453.826Z" transform="translate(-153.294 -451)" fill="#fff"/>
    </g>
  </g>
  <g id="Group_69973" data-name="Group 69973" transform="translate(8.067 8.764)">
    <g id="Group_69972" data-name="Group 69972">
      <path id="Path_51866" data-name="Path 51866" d="M138.832,143.207,131,131.459v9.487a3,3,0,1,1-2,0v-9.487l-7.832,11.748a1,1,0,0,0,.125,1.262,12.627,12.627,0,0,1,3.462,6.738,5.955,5.955,0,0,1,2.245-.445h6a5.956,5.956,0,0,1,2.245.445,12.626,12.626,0,0,1,3.462-6.737A1,1,0,0,0,138.832,143.207Z" transform="translate(-121 -131.459)" fill="#fff"/>
    </g>
  </g>
  <g id="Group_69975" data-name="Group 69975" transform="translate(16.067 20.066)">
    <g id="Group_69974" data-name="Group 69974">
      <path id="Path_51867" data-name="Path 51867" d="M242,301a1,1,0,1,0,1,1A1,1,0,0,0,242,301Z" transform="translate(-241 -301)" fill="#fff"/>
    </g>
  </g>
</svg>
