<svg xmlns="http://www.w3.org/2000/svg" width="118" height="112" viewBox="0 0 118 112">
  <g id="Group_55608" data-name="Group 55608" transform="translate(-1705.225 -10019.671)">
    <g id="Group_17453" data-name="Group 17453" transform="translate(1660.225 6189.671)" opacity="0.34">
      <circle id="Ellipse_171" data-name="Ellipse 171" cx="4" cy="4" r="4" transform="translate(138 3918)" fill="#82a7e6"/>
      <circle id="Ellipse_161" data-name="Ellipse 161" cx="4" cy="4" r="4" transform="translate(104 3886)" fill="#82a7e6"/>
      <circle id="Ellipse_165" data-name="Ellipse 165" cx="4" cy="4" r="4" transform="translate(104 3902)" fill="#82a7e6"/>
      <circle id="Ellipse_169" data-name="Ellipse 169" cx="4" cy="4" r="4" transform="translate(104 3918)" fill="#82a7e6"/>
      <circle id="Ellipse_173" data-name="Ellipse 173" cx="4" cy="4" r="4" transform="translate(104 3934)" fill="#82a7e6"/>
      <circle id="Ellipse_162" data-name="Ellipse 162" cx="4" cy="4" r="4" transform="translate(121 3886)" fill="#82a7e6"/>
      <circle id="Ellipse_166" data-name="Ellipse 166" cx="4" cy="4" r="4" transform="translate(121 3902)" fill="#82a7e6"/>
      <circle id="Ellipse_170" data-name="Ellipse 170" cx="4" cy="4" r="4" transform="translate(121 3918)" fill="#82a7e6"/>
      <circle id="Ellipse_174" data-name="Ellipse 174" cx="4" cy="4" r="4" transform="translate(121 3934)" fill="#82a7e6"/>
      <circle id="Ellipse_163" data-name="Ellipse 163" cx="4" cy="4" r="4" transform="translate(138 3886)" fill="#82a7e6" opacity="0.5"/>
      <circle id="Ellipse_167" data-name="Ellipse 167" cx="4" cy="4" r="4" transform="translate(138 3902)" fill="#82a7e6" opacity="0.5"/>
      <circle id="Ellipse_175" data-name="Ellipse 175" cx="4" cy="4" r="4" transform="translate(138 3934)" fill="#82a7e6"/>
      <circle id="Ellipse_164" data-name="Ellipse 164" cx="4" cy="4" r="4" transform="translate(155 3886)" fill="#82a7e6" opacity="0.5"/>
      <circle id="Ellipse_168" data-name="Ellipse 168" cx="4" cy="4" r="4" transform="translate(155 3902)" fill="#82a7e6" opacity="0.5"/>
      <circle id="Ellipse_172" data-name="Ellipse 172" cx="4" cy="4" r="4" transform="translate(155 3918)" fill="#82a7e6"/>
      <circle id="Ellipse_176" data-name="Ellipse 176" cx="4" cy="4" r="4" transform="translate(155 3934)" fill="#82a7e6"/>
    </g>
    <g id="Group_17454" data-name="Group 17454" transform="translate(1601.225 6133.671)" opacity="0.34">
      <circle id="Ellipse_171-2" data-name="Ellipse 171" cx="4" cy="4" r="4" transform="translate(138 3918)" fill="#82a7e6"/>
      <circle id="Ellipse_161-2" data-name="Ellipse 161" cx="4" cy="4" r="4" transform="translate(104 3886)" fill="#82a7e6"/>
      <circle id="Ellipse_165-2" data-name="Ellipse 165" cx="4" cy="4" r="4" transform="translate(104 3902)" fill="#82a7e6"/>
      <circle id="Ellipse_169-2" data-name="Ellipse 169" cx="4" cy="4" r="4" transform="translate(104 3918)" fill="#82a7e6"/>
      <circle id="Ellipse_173-2" data-name="Ellipse 173" cx="4" cy="4" r="4" transform="translate(104 3934)" fill="#82a7e6"/>
      <circle id="Ellipse_162-2" data-name="Ellipse 162" cx="4" cy="4" r="4" transform="translate(121 3886)" fill="#82a7e6"/>
      <circle id="Ellipse_166-2" data-name="Ellipse 166" cx="4" cy="4" r="4" transform="translate(121 3902)" fill="#82a7e6"/>
      <circle id="Ellipse_170-2" data-name="Ellipse 170" cx="4" cy="4" r="4" transform="translate(121 3918)" fill="#82a7e6"/>
      <circle id="Ellipse_174-2" data-name="Ellipse 174" cx="4" cy="4" r="4" transform="translate(121 3934)" fill="#82a7e6"/>
      <circle id="Ellipse_163-2" data-name="Ellipse 163" cx="4" cy="4" r="4" transform="translate(138 3886)" fill="#82a7e6" opacity="0.5"/>
      <circle id="Ellipse_167-2" data-name="Ellipse 167" cx="4" cy="4" r="4" transform="translate(138 3902)" fill="#82a7e6" opacity="0.5"/>
      <circle id="Ellipse_175-2" data-name="Ellipse 175" cx="4" cy="4" r="4" transform="translate(138 3934)" fill="#82a7e6"/>
      <circle id="Ellipse_164-2" data-name="Ellipse 164" cx="4" cy="4" r="4" transform="translate(155 3886)" fill="#82a7e6" opacity="0.5"/>
      <circle id="Ellipse_168-2" data-name="Ellipse 168" cx="4" cy="4" r="4" transform="translate(155 3902)" fill="#82a7e6" opacity="0.5"/>
      <circle id="Ellipse_172-2" data-name="Ellipse 172" cx="4" cy="4" r="4" transform="translate(155 3918)" fill="#82a7e6"/>
      <circle id="Ellipse_176-2" data-name="Ellipse 176" cx="4" cy="4" r="4" transform="translate(155 3934)" fill="#82a7e6"/>
    </g>
  </g>
</svg>
