<?xml version="1.0" encoding="utf-8"?>
<!-- Generator: Adobe Illustrator 26.0.1, SVG Export Plug-In . SVG Version: 6.00 Build 0)  -->
<svg version="1.1" id="Layer_1" xmlns="http://www.w3.org/2000/svg" xmlns:xlink="http://www.w3.org/1999/xlink" x="0px" y="0px"
	 viewBox="0 0 53.8 52.7" style="enable-background:new 0 0 53.8 52.7;" xml:space="preserve">
<style type="text/css">
	.st0{fill:#222872;}
	.st1{fill:#009EFF;}
</style>
<g>
	<path class="st0" d="M47.2,2.3H6c-3.7,0-6,2.3-6,6v33.9c0,5.5,3.1,8.5,8.6,8.5h36.8c4.5,0,8-3.1,8.2-7.2l0-0.1
		c0.1-0.5,0-0.9-0.3-1.3c-0.3-0.3-0.6-0.6-1-0.6c-0.4,0-0.7,0.1-1,0.3c-0.3,0.2-0.5,0.6-0.5,1c-0.7,3.8-2.3,5.1-6.1,5.1H8.6
		c-3.9,0-5.7-1.8-5.7-5.7V13.6H51l0,18c0,0.5,0,1,0.1,1.4c0.1,0.6,0.7,1.1,1.3,1c0.7,0,1.2-0.4,1.3-1c0.1-0.5,0.1-1,0.1-1.5V9
		C53.8,4.6,51.5,2.3,47.2,2.3z M33.7,10.6H3L3,9.9C2.9,9,2.9,8,3,7.1c0.2-0.9,0.9-2.3,3.2-2.3h27.4V10.6z M39.8,10.6v0.1l-0.8,0
		c0,0,0,0,0,0c-1.6,0-2.9-1.3-2.9-2.9l0-0.1l0-0.1c0.2-1.5,1.4-2.7,3-2.8c1.6,0.1,2.8,1.3,2.8,2.8C41.9,9.1,41.1,10.2,39.8,10.6z
		 M47.8,10.7C47.8,10.7,47.8,10.7,47.8,10.7l-0.8,0v-0.1c-1.3-0.4-2.3-1.6-2.2-3c0.1-1.5,1.3-2.7,2.8-2.8c1.7,0,3.1,1.4,3.2,3.1
		C50.7,9.5,49.4,10.7,47.8,10.7z"/>
	<path class="st1" d="M9.4,23h11.8v18H9.4V23z M17.1,36.9v-9.8h-3.8v9.8H17.1z"/>
	<path class="st1" d="M25.4,23h11.8V41H25.4V23z M29.4,27.1v9.8h3.7v-9.8L29.4,27.1z"/>
</g>
</svg>
