<svg xmlns="http://www.w3.org/2000/svg" width="55.253" height="55.253" viewBox="0 0 55.253 55.253">
  <g id="migration" transform="translate(0 0)">
    <path id="Path_14305" data-name="Path 14305" d="M24.953,41.626V38.062a2.677,2.677,0,0,0-2.674-2.674V33.606a2.677,2.677,0,0,0,2.674-2.674V27.368a2.677,2.677,0,0,0-2.674-2.674V22.912a2.677,2.677,0,0,0,2.674-2.674V16.674A2.677,2.677,0,0,0,22.279,14H2.674A2.677,2.677,0,0,0,0,16.674v3.565a2.677,2.677,0,0,0,2.674,2.674v1.782A2.677,2.677,0,0,0,0,27.368v3.565a2.677,2.677,0,0,0,2.674,2.674v1.782A2.677,2.677,0,0,0,0,38.062v3.565A2.677,2.677,0,0,0,2.674,44.3H22.279A2.677,2.677,0,0,0,24.953,41.626ZM1.782,20.238V16.674a.892.892,0,0,1,.891-.891H22.279a.892.892,0,0,1,.891.891v3.565a.892.892,0,0,1-.891.891H2.674A.892.892,0,0,1,1.782,20.238Zm2.674,2.674H20.5v1.782H4.456ZM1.782,30.932V27.368a.892.892,0,0,1,.891-.891H22.279a.892.892,0,0,1,.891.891v3.565a.892.892,0,0,1-.891.891H2.674A.892.892,0,0,1,1.782,30.932Zm2.674,2.674H20.5v1.782H4.456ZM1.782,41.626V38.062a.892.892,0,0,1,.891-.891H22.279a.891.891,0,0,1,.891.891v3.565a.891.891,0,0,1-.891.891H2.674A.892.892,0,0,1,1.782,41.626Z" transform="translate(0 -1.524)" fill="#222872"/>
    <path id="Path_14306" data-name="Path 14306" d="M58.953,20.238V16.674A2.677,2.677,0,0,0,56.279,14H36.674A2.677,2.677,0,0,0,34,16.674v3.565a2.677,2.677,0,0,0,2.674,2.674v1.782A2.677,2.677,0,0,0,34,27.368v3.565a2.677,2.677,0,0,0,2.674,2.674v1.782A2.677,2.677,0,0,0,34,38.062v3.565A2.677,2.677,0,0,0,36.674,44.3H56.279a2.677,2.677,0,0,0,2.674-2.674V38.062a2.677,2.677,0,0,0-2.674-2.674V33.606a2.677,2.677,0,0,0,2.674-2.674V27.368a2.677,2.677,0,0,0-2.674-2.674V22.912A2.677,2.677,0,0,0,58.953,20.238Zm-23.171,0V16.674a.892.892,0,0,1,.891-.891H56.279a.892.892,0,0,1,.891.891v3.565a.892.892,0,0,1-.891.891H36.674A.892.892,0,0,1,35.782,20.238ZM57.171,38.062v3.565a.892.892,0,0,1-.891.891H36.674a.892.892,0,0,1-.891-.891V38.062a.892.892,0,0,1,.891-.891H56.279A.892.892,0,0,1,57.171,38.062ZM54.5,35.388H38.456V33.606H54.5Zm2.674-8.021v3.565a.892.892,0,0,1-.891.891H36.674a.892.892,0,0,1-.891-.891V27.368a.892.892,0,0,1,.891-.891H56.279A.892.892,0,0,1,57.171,27.368ZM54.5,24.694H38.456V22.912H54.5Z" transform="translate(-3.7 -1.524)" fill="#222872"/>
    <path id="Path_14307" data-name="Path 14307" d="M41.191,3.565V2.5l4.557,2.847L41.191,8.194V7.129a.89.89,0,0,0-.891-.891H11.782V8.021H39.409V9.8a.891.891,0,0,0,1.363.756L47.9,6.1a.891.891,0,0,0,0-1.511L40.772.135a.891.891,0,0,0-1.363.756V2.674H10V4.456H40.3a.89.89,0,0,0,.891-.891Z" transform="translate(-1.088 0)" fill="#009eff"/>
    <path id="Path_14308" data-name="Path 14308" d="M16.129,57.129v1.065l-4.557-2.847L16.129,52.5v1.065a.89.89,0,0,0,.891.891H45.538V52.674H17.912V50.891a.892.892,0,0,0-1.364-.756L9.418,54.591a.892.892,0,0,0,0,1.511l7.129,4.456a.891.891,0,0,0,1.364-.756V58.021H47.321V56.238h-30.3A.89.89,0,0,0,16.129,57.129Z" transform="translate(-0.979 -5.441)" fill="#009eff"/>
    <path id="Path_14309" data-name="Path 14309" d="M52,53h1.782v1.782H52Z" transform="translate(-5.659 -5.768)" fill="#222872"/>
    <path id="Path_14310" data-name="Path 14310" d="M56,53h1.782v1.782H56Z" transform="translate(-6.094 -5.768)" fill="#222872"/>
    <path id="Path_14311" data-name="Path 14311" d="M8,7H9.782V8.782H8Z" transform="translate(-0.871 -0.762)" fill="#222872"/>
    <path id="Path_14312" data-name="Path 14312" d="M4,7H5.782V8.782H4Z" transform="translate(-0.435 -0.762)" fill="#222872"/>
  </g>
</svg>
