<svg xmlns="http://www.w3.org/2000/svg" width="47.343" height="47.343" viewBox="0 0 47.343 47.343">
  <g id="app-development" transform="translate(0.15 0.15)">
    <path id="Path_14258" data-name="Path 14258" d="M20.581,38.222H3.675A3.68,3.68,0,0,1,0,34.547V3.675A3.68,3.68,0,0,1,3.675,0h1.47V1.47H3.675A2.205,2.205,0,0,0,1.47,3.675V34.547a2.205,2.205,0,0,0,2.205,2.205H20.581Z" fill="#222872" stroke="#222872" stroke-width="0.3"/>
    <path id="Path_14259" data-name="Path 14259" d="M9,0h1.471V1.47H9Z" transform="translate(-2.385)" fill="#222872" stroke="#222872" stroke-width="0.3"/>
    <path id="Path_14260" data-name="Path 14260" d="M46.812,38.222v-1.47a2.205,2.205,0,0,0,2.205-2.205V3.675A2.205,2.205,0,0,0,46.812,1.47H13V0H46.812a3.68,3.68,0,0,1,3.675,3.675V34.547a3.68,3.68,0,0,1-3.675,3.675Z" transform="translate(-3.444)" fill="#222872" stroke="#222872" stroke-width="0.3"/>
    <path id="Path_14261" data-name="Path 14261" d="M0,0H3.031V1.47H0Z" transform="translate(13.988 40.264) rotate(-75.936)" fill="#222872" stroke="#222872" stroke-width="0.3"/>
    <path id="Path_14262" data-name="Path 14262" d="M25.086,58.41h-7.35A.735.735,0,0,1,17,57.675v-1.47A2.205,2.205,0,0,1,19.205,54h5.88v1.47h-5.88a.735.735,0,0,0-.735.735v.735h6.615Z" transform="translate(-4.504 -14.307)" fill="#222872" stroke="#222872" stroke-width="0.3"/>
    <path id="Path_14263" data-name="Path 14263" d="M1,42H20.846v1.47H1Z" transform="translate(-0.265 -11.128)" fill="#222872" stroke="#222872" stroke-width="0.3"/>
    <path id="Path_14264" data-name="Path 14264" d="M4,46H5.47v1.47H4Z" transform="translate(-1.06 -12.188)" fill="#222872" stroke="#222872" stroke-width="0.3"/>
    <path id="Path_14265" data-name="Path 14265" d="M8,46h4.41v1.47H8Z" transform="translate(-2.12 -12.188)" fill="#222872" stroke="#222872" stroke-width="0.3"/>
    <path id="Path_14266" data-name="Path 14266" d="M48.376,50.752h-14.7A3.68,3.68,0,0,1,30,47.077v-29.4A3.68,3.68,0,0,1,33.675,14h14.7a3.68,3.68,0,0,1,3.675,3.675v29.4a3.68,3.68,0,0,1-3.675,3.675ZM33.675,15.47a2.205,2.205,0,0,0-2.205,2.205v29.4a2.205,2.205,0,0,0,2.205,2.205h14.7a2.205,2.205,0,0,0,2.205-2.205v-29.4a2.205,2.205,0,0,0-2.205-2.205Z" transform="translate(-7.949 -3.709)" fill="#222872" stroke="#222872" stroke-width="0.3"/>
    <path id="Path_14267" data-name="Path 14267" d="M44.966,22.675h-7.35c-1.377,0-1.954-1.2-2.137-2.205H31V19h5.145a.735.735,0,0,1,.735.735c0,.012.041,1.47.735,1.47h7.35c.694,0,.735-1.458.735-1.47A.735.735,0,0,1,46.436,19h5.145v1.47H47.1C46.92,21.476,46.343,22.675,44.966,22.675Z" transform="translate(-8.214 -5.034)" fill="#222872" stroke="#222872" stroke-width="0.3"/>
    <path id="Path_14268" data-name="Path 14268" d="M41,18h5.88v1.47H41Z" transform="translate(-10.863 -4.769)" fill="#222872" stroke="#222872" stroke-width="0.3"/>
    <path id="Path_14269" data-name="Path 14269" d="M41,59h5.88v1.47H41Z" transform="translate(-10.863 -15.632)" fill="#222872" stroke="#222872" stroke-width="0.3"/>
    <path id="Path_14270" data-name="Path 14270" d="M31,56H51.581v1.47H31Z" transform="translate(-8.214 -14.837)" fill="#222872" stroke="#222872" stroke-width="0.3"/>
    <path id="Path_14271" data-name="Path 14271" d="M14.291,21.641H11.35a.735.735,0,0,1-.735-.735V19.828a7.307,7.307,0,0,1-1.19-.494l-.763.763a.735.735,0,0,1-1.039,0L5.544,18.018a.735.735,0,0,1,0-1.039l.762-.763a7.307,7.307,0,0,1-.493-1.19H4.735A.735.735,0,0,1,4,14.291V11.35a.735.735,0,0,1,.735-.735H5.813a7.307,7.307,0,0,1,.494-1.19l-.763-.763a.735.735,0,0,1,0-1.039L7.623,5.544a.735.735,0,0,1,1.039,0l.763.762a7.307,7.307,0,0,1,1.19-.493V4.735A.735.735,0,0,1,11.35,4h2.94a.735.735,0,0,1,.735.735V5.813a7.307,7.307,0,0,1,1.19.494l.763-.763a.735.735,0,0,1,1.039,0L20.1,7.623a.735.735,0,0,1,0,1.039l-.762.763a7.307,7.307,0,0,1,.493,1.19h1.078a.735.735,0,0,1,.735.735v2.94a.735.735,0,0,1-.735.735H19.828a7.307,7.307,0,0,1-.494,1.19l.763.763a.735.735,0,0,1,0,1.039L18.018,20.1a.735.735,0,0,1-1.039,0l-.763-.762a7.307,7.307,0,0,1-1.19.493v1.078a.735.735,0,0,1-.735.735Zm-2.205-1.47h1.47v-.9a.735.735,0,0,1,.572-.717,5.819,5.819,0,0,0,1.818-.755.735.735,0,0,1,.912.1l.641.641L18.538,17.5l-.641-.641a.735.735,0,0,1-.1-.912,5.819,5.819,0,0,0,.755-1.818.735.735,0,0,1,.717-.572h.9v-1.47h-.9a.735.735,0,0,1-.717-.572A5.819,5.819,0,0,0,17.795,9.7a.735.735,0,0,1,.1-.912l.641-.641L17.5,7.1l-.641.641a.735.735,0,0,1-.912.1,5.819,5.819,0,0,0-1.818-.755.735.735,0,0,1-.572-.717v-.9h-1.47v.9a.735.735,0,0,1-.572.717A5.819,5.819,0,0,0,9.7,7.846a.735.735,0,0,1-.912-.1L8.143,7.1,7.1,8.143l.641.641a.735.735,0,0,1,.1.912,5.819,5.819,0,0,0-.755,1.818.735.735,0,0,1-.717.572h-.9v1.47h.9a.735.735,0,0,1,.717.572,5.819,5.819,0,0,0,.755,1.818.735.735,0,0,1-.1.912L7.1,17.5l1.039,1.039.641-.641a.735.735,0,0,1,.912-.1,5.819,5.819,0,0,0,1.818.755.735.735,0,0,1,.572.717Z" transform="translate(-1.06 -1.06)" fill="#009eff"/>
    <path id="Path_14272" data-name="Path 14272" d="M14.675,18.35a3.675,3.675,0,1,1,3.675-3.675,3.675,3.675,0,0,1-3.675,3.675Zm0-5.88a2.205,2.205,0,1,0,2.205,2.205A2.205,2.205,0,0,0,14.675,12.47Z" transform="translate(-2.914 -2.914)" fill="#222872" stroke="#222872" stroke-width="0.3"/>
    <path id="Path_14273" data-name="Path 14273" d="M16.47,37.291H15V34.35a.735.735,0,0,1,.735-.735h1.078a7.307,7.307,0,0,1,.494-1.19l-.763-.763a.735.735,0,0,1,0-1.039l2.079-2.079a.735.735,0,0,1,1.039,0l.763.762a7.307,7.307,0,0,1,1.19-.493V27.735A.735.735,0,0,1,22.35,27h2.94v1.47H23.086v.9a.735.735,0,0,1-.572.717,5.819,5.819,0,0,0-1.818.755.735.735,0,0,1-.912-.1l-.641-.641L18.1,31.143l.641.641a.735.735,0,0,1,.1.912,5.819,5.819,0,0,0-.755,1.818.735.735,0,0,1-.717.572h-.9Z" transform="translate(-3.974 -7.154)" fill="#009eff"/>
    <path id="Path_14274" data-name="Path 14274" d="M23.47,37.675H22A3.68,3.68,0,0,1,25.675,34v1.47A2.205,2.205,0,0,0,23.47,37.675Z" transform="translate(-5.829 -9.008)" fill="#222872" stroke="#222872" stroke-width="0.3"/>
    <path id="Path_14275" data-name="Path 14275" d="M42.086,44.171a8.086,8.086,0,1,1,8.086-8.086,8.086,8.086,0,0,1-8.086,8.086Zm0-14.7A6.615,6.615,0,1,0,48.7,36.086,6.615,6.615,0,0,0,42.086,29.47Z" transform="translate(-9.008 -7.419)" fill="#009eff"/>
    <path id="Path_14276" data-name="Path 14276" d="M41.41,42.291a.735.735,0,0,1-.52-.215L37.215,38.4a.735.735,0,0,1,0-1.039l2.205-2.205a.735.735,0,0,1,1.039,0l.95.95L45.3,32.215a.735.735,0,0,1,1.039,0l2.205,2.205a.735.735,0,0,1,0,1.039L41.93,42.075A.735.735,0,0,1,41.41,42.291Zm-2.636-4.41,2.636,2.636,5.576-5.576-1.166-1.166L41.93,37.665a.735.735,0,0,1-1.039,0l-.95-.95Z" transform="translate(-9.803 -8.479)" fill="#009eff"/>
    <path id="Path_14277" data-name="Path 14277" d="M57,4h1.47V5.47H57Z" transform="translate(-15.102 -1.06)" fill="#222872" stroke="#222872" stroke-width="0.3"/>
    <path id="Path_14278" data-name="Path 14278" d="M42,4h9.556V5.47H42Z" transform="translate(-11.128 -1.06)" fill="#222872" stroke="#222872" stroke-width="0.3"/>
  </g>
</svg>
