<?xml version="1.0" encoding="utf-8"?>
<!-- Generator: Adobe Illustrator 26.0.1, SVG Export Plug-In . SVG Version: 6.00 Build 0)  -->
<svg version="1.1" id="Layer_1" xmlns="http://www.w3.org/2000/svg" xmlns:xlink="http://www.w3.org/1999/xlink" x="0px" y="0px"
	 viewBox="0 0 53.8 52.7" style="enable-background:new 0 0 53.8 52.7;" xml:space="preserve">
<style type="text/css">
	.st0{fill:#FEFEFE;}
	.st1{fill:#222872;}
	.st2{fill:#009EFF;}
</style>
<g>
	<path class="st0" d="M16.2,51.4C16.2,51.4,16.3,51.3,16.2,51.4C16.3,51.4,16.3,51.4,16.2,51.4z"/>
	<path class="st1" d="M50.2,44c2,0,3.1-1.1,3.1-3.2V3.2c0-2-1.1-3.2-3.2-3.2H3.7C1.7,0,0.6,1.1,0.6,3.2v37.6c0,2.1,1.1,3.2,3.2,3.2
		h17.3l-0.5,1.5c-0.5,1.6-0.9,3.1-1.4,4.6c0,0,0,0,0,0.1l0.1,0.2L19,50.5c0,0-0.1,0-0.2,0c-0.5,0-1,0-1.5,0l-1.1,0v2.2h21.3v-2.2
		h-2.9L32.8,44L50.2,44z M2.8,3.2c0-0.9,0.1-1,1-1h46.3c0.9,0,1,0.1,1,1v33.3H2.8V3.2z M3.9,41.8c-0.5,0-0.8-0.1-0.9-0.2l-0.1-0.1
		c-0.1-0.1-0.1-0.4-0.1-0.9v-1.9h48.3l0,0.6c0,0.6,0,1.3,0,1.9l0,0.1c0,0.2-0.3,0.4-0.6,0.4c-0.1,0-0.2,0-0.2,0l-0.3,0L3.9,41.8z
		 M21.5,50.5l1.9-6.4h7.1l1.9,6.4H21.5z"/>
	<g>
		<path class="st0" d="M17.9,17.6C17.9,17.6,17.9,17.5,17.9,17.6C17.9,17.5,17.9,17.5,17.9,17.6z"/>
		<g>
			<path class="st1" d="M43.4,15.4l-2,0c-2.4,0-4.7,0-7.1,0c-0.3,0-0.6-0.1-0.8-0.3c-0.3-0.3-0.6-0.6-0.9-0.9
				c-0.3-0.3-0.6-0.6-0.9-0.9c-0.6-0.6-1.2-0.9-2-0.9c0,0,0,0,0,0c-1.8,0-3.6,0-5.4,0l-2.3,0c-1.7,0-2.6,1-2.6,2.6l0,14.8
				c0,1.7,1,2.7,2.7,2.7l8,0h13.4c1.7,0,2.7-1,2.7-2.7V18.1C46.1,16.3,45.2,15.4,43.4,15.4z M44.3,18.1v11.8c0,0.7-0.1,0.8-0.8,0.8
				H22.1c-0.7,0-0.8-0.1-0.8-0.8V15.2c0-0.7,0.1-0.8,0.8-0.8l2,0c1.9,0,3.7,0,5.6,0c0,0,0,0,0,0c0.3,0,0.6,0.1,0.8,0.3
				c0.3,0.3,0.5,0.5,0.8,0.8c0.3,0.3,0.6,0.6,0.9,0.9c0.6,0.6,1.3,0.9,2.2,0.9c0,0,0,0,0,0c2.2,0,4.4,0,6.7,0l2.4,0
				C44.1,17.3,44.3,17.4,44.3,18.1z"/>
			<path class="st1" d="M20.4,7.8c0.5,0,0.9,0,1.3,0c0.1,0,0.2,0,0.3,0.2c0.2,0.6,0.6,1.4,0.9,2.1c0.1,0.2,0.3,0.4,0.5,0.5
				c0.7,0.3,1.3,0.6,2,0.8c0.2,0.1,0.5,0.1,0.7,0c0.4-0.1,0.7-0.3,1.1-0.4c0.4-0.2,0.7-0.3,1.1-0.4c0.1,0,0.2,0,0.3,0.1
				c0.3,0.3,0.6,0.6,0.8,0.9l0.5,0.5l1.3-1.4l-0.6-0.6c-0.5-0.5-1-1-1.5-1.5c-0.2-0.2-0.5-0.1-0.6-0.1l-0.3,0.1
				c-0.5,0.2-1,0.4-1.5,0.6c-0.7,0.4-1.4,0.4-2.1,0c-0.3-0.2-0.4-0.3-0.5-0.5c-0.2-0.4-0.4-0.9-0.6-1.3c-0.1-0.3-0.3-0.7-0.4-1
				c-0.1-0.3-0.3-0.5-0.7-0.5c-1,0-2.1,0-3.2,0c-0.4,0-0.6,0.2-0.7,0.5c-0.1,0.2-0.2,0.4-0.3,0.6c-0.2,0.4-0.3,0.7-0.5,1.1
				c-0.2,0.7-0.7,1.2-1.4,1.4c-0.3,0.1-0.5,0.1-0.7,0c-0.4-0.2-0.8-0.3-1.2-0.5c-0.4-0.2-0.8-0.3-1.2-0.5c-0.3-0.1-0.6-0.1-0.8,0.2
				c-0.8,0.8-1.5,1.6-2.3,2.3c-0.3,0.2-0.3,0.5-0.2,0.8c0.1,0.2,0.2,0.4,0.3,0.7c0.1,0.4,0.3,0.8,0.5,1.1c0.3,0.6,0.3,1.2,0,1.8
				c-0.2,0.3-0.3,0.5-0.5,0.6c-0.5,0.2-0.9,0.4-1.4,0.6c-0.3,0.1-0.7,0.3-1,0.4c-0.3,0.1-0.4,0.3-0.4,0.7c0,1.1,0,2.2,0,3.2
				c0,0.4,0.2,0.6,0.5,0.7c0.2,0.1,0.4,0.2,0.6,0.3c0.4,0.2,0.7,0.3,1.1,0.5c0.7,0.2,1.2,0.6,1.4,1.4c0.1,0.3,0.1,0.5,0,0.7
				c-0.2,0.4-0.4,0.9-0.5,1.3c-0.1,0.3-0.3,0.7-0.4,1c-0.1,0.2-0.2,0.5,0.1,0.8c0.4,0.4,0.7,0.7,1.1,1.1c0.4,0.4,0.8,0.8,1.2,1.2
				c0.1,0.1,0.3,0.2,0.5,0.2c0.1,0,0.1,0,0.2,0c0.4-0.2,0.9-0.3,1.3-0.5c0.4-0.2,0.8-0.3,1.2-0.5c0.1,0,0.3,0,0.5,0
				c0.3,0.1,0.6,0.2,0.9,0.3c0.1,0.1,0.3,0.1,0.4,0.2l0.2,0.1l0.7-1.7l-0.2-0.1c-2-1-2-1-4-0.2c-0.1,0-0.1,0-0.2,0.1
				c-0.1,0.1-0.3,0.1-0.4,0.2c-0.2,0.1-0.4,0.1-0.6-0.1c-0.1-0.1-0.3-0.3-0.4-0.4c-0.2-0.2-0.4-0.4-0.5-0.6
				c-0.1-0.3,0.2-0.8,0.4-1.1l0-0.1c0.5-0.9,0.5-1.9,0-3.1C12.5,21.6,12,21,11,20.7l-0.2-0.1c-0.5-0.1-1-0.3-1.2-0.6
				c-0.1-0.2-0.1-0.7-0.1-1.1c0-0.2,0-0.4,0-0.6c0,0,0,0,0,0c0.1,0,0.2-0.1,0.3-0.2c0.3-0.1,0.6-0.3,0.9-0.4c1.2-0.3,1.7-1.2,2-2
				c0.5-1.1,0.5-1.9,0-2.8l-0.1-0.1c-0.2-0.4-0.5-0.9-0.4-1.2c0.1-0.3,0.4-0.5,0.7-0.8c0.1-0.1,0.2-0.2,0.3-0.3
				c0.1,0,0.2-0.1,0.3-0.1c0.4,0.1,0.8,0.3,1.1,0.4c0.4,0.1,0.7,0.3,1.1,0.4c0.2,0.1,0.5,0.1,0.7,0c0.7-0.3,1.4-0.5,2-0.8
				c0.2-0.1,0.5-0.3,0.6-0.6c0.3-0.7,0.6-1.4,0.9-2.1C20.2,7.8,20.3,7.8,20.4,7.8z"/>
		</g>
		<path class="st2" d="M17.9,25.8c-2.1-0.8-4-3.6-4.1-6.2c-0.1-2.9,1.6-5.8,4.1-6.8c0.2,0.4,0.4,0.8,0.6,1.2
			c-4.2,2.2-4.4,8.2,0,10.5C18.3,24.9,18.1,25.3,17.9,25.8z"/>
		<path class="st2" d="M28.9,20.5c-1,1-2.1,2.1-3.1,3.1c1.1,1,2.1,2.1,3.2,3.1c-0.4,0.4-0.7,0.7-1.1,1c-1.3-1.3-2.7-2.7-4-4
			c1.3-1.3,2.7-2.7,4.1-4.1C28.2,19.8,28.5,20.2,28.9,20.5z"/>
		<path class="st2" d="M37.6,27.7c-0.3-0.3-0.6-0.6-0.9-0.9c1-1,2.1-2.1,3.1-3.1c-1.1-1.1-2.1-2.1-3.2-3.2c0.4-0.4,0.7-0.7,1-1
			c1.4,1.4,2.7,2.8,4.1,4.1C40.4,25,39,26.3,37.6,27.7z"/>
		<path class="st2" d="M32,27.7c-0.4-0.2-0.8-0.5-1.3-0.7c1.2-2.2,2.4-4.4,3.7-6.6c0.4,0.2,0.9,0.5,1.3,0.7
			C34.4,23.3,33.2,25.5,32,27.7z"/>
	</g>
</g>
</svg>
