<svg xmlns="http://www.w3.org/2000/svg" width="53.851" height="52.715" viewBox="0 0 53.851 52.715">
  <g id="maintenance" transform="translate(0 -5.4)">
    <g id="Group_55783" data-name="Group 55783" transform="translate(0 5.4)">
      <g id="Group_55782" data-name="Group 55782">
        <path id="Path_14322" data-name="Path 14322" d="M186.719,75.363a1.063,1.063,0,0,0,1.416-.706,11.358,11.358,0,0,0,0-5.725,1.063,1.063,0,0,0-1.417-.708,1.675,1.675,0,0,1-1.66-2.874,1.063,1.063,0,0,0,.1-1.58A11.3,11.3,0,0,0,180.2,60.9a1.063,1.063,0,0,0-1.32.877,1.674,1.674,0,0,1-3.319,0,1.063,1.063,0,0,0-1.32-.877,11.294,11.294,0,0,0-4.962,2.87,1.063,1.063,0,0,0,.1,1.58,1.675,1.675,0,0,1-1.659,2.874,1.063,1.063,0,0,0-1.417.708,11.355,11.355,0,0,0,0,5.725,1.063,1.063,0,0,0,1.416.706,1.675,1.675,0,0,1,1.662,2.871,1.052,1.052,0,0,0-.094,1.578,11.291,11.291,0,0,0,4.954,2.861,1.063,1.063,0,0,0,1.319-.871,1.674,1.674,0,0,1,3.316,0,1.063,1.063,0,0,0,1.319.872,11.29,11.29,0,0,0,4.955-2.861,1.063,1.063,0,0,0-.094-1.578,1.675,1.675,0,0,1,1.662-2.871Zm-3.9-.338a3.8,3.8,0,0,0,.109,3.954,9.193,9.193,0,0,1-2.336,1.35,3.777,3.777,0,0,0-6.74,0,9.193,9.193,0,0,1-2.335-1.35,3.777,3.777,0,0,0-3.375-5.836,9.289,9.289,0,0,1,0-2.7,3.777,3.777,0,0,0,3.371-5.846,9.2,9.2,0,0,1,2.335-1.352,3.777,3.777,0,0,0,6.754,0,9.194,9.194,0,0,1,2.335,1.352,3.777,3.777,0,0,0,3.371,5.846,9.289,9.289,0,0,1,0,2.7A3.8,3.8,0,0,0,182.816,75.025Z" transform="translate(-148.483 -55.03)" fill="#009eff"/>
        <path id="Path_14323" data-name="Path 14323" d="M234.436,121.371a4.559,4.559,0,1,0,4.559,4.559A4.564,4.564,0,0,0,234.436,121.371Zm0,7.014a2.455,2.455,0,1,1,2.455-2.455A2.458,2.458,0,0,1,234.436,128.385Z" transform="translate(-205.699 -109.174)" fill="#009eff"/>
        <path id="Path_14324" data-name="Path 14324" d="M53.754,278.925a4.627,4.627,0,0,0-5.512-3.536L37.714,277.8a10.587,10.587,0,0,1-5.693-.264,4.843,4.843,0,0,0,1.676-2.084,4.76,4.76,0,0,0-2.5-6.27l-10.724-4.439a1.054,1.054,0,0,0-.4-.08H10.065v-1.428a1.062,1.062,0,0,0-1.052-1.052H1.052A1.052,1.052,0,0,0,0,263.234v18.488a1.052,1.052,0,0,0,1.052,1.052H9.013a1.052,1.052,0,0,0,1.052-1.052v-1H14.22a1.052,1.052,0,0,0,0-2.1H10.065V266.766h9.8l10.53,4.359a2.637,2.637,0,0,1,1.365,3.506,2.7,2.7,0,0,1-3.336,1.535l-7.171-2.757a1.052,1.052,0,1,0-.755,1.963s3.99,1.534,7.033,2.708q.091.035.182.066l3.061,1.177a12.686,12.686,0,0,0,7.409.527l10.528-2.41a2.5,2.5,0,0,1,2.983,1.914,2.477,2.477,0,0,1-1.818,2.91l-12.562,3.193a10.567,10.567,0,0,1-6.5-.406l-7.435-2.916a1.052,1.052,0,0,0-.768,1.958l7.435,2.916a12.658,12.658,0,0,0,7.784.487L50.394,284.3a4.576,4.576,0,0,0,3.36-5.377ZM2.1,280.67V264.285H7.962V279.67h0v1Z" transform="translate(0 -235.175)" fill="#222872"/>
        <path id="Path_14325" data-name="Path 14325" d="M91.933,26.665,94.9,28.412a1.062,1.062,0,0,0,1.4-.312l1.959-2.859a1.052,1.052,0,0,0-1.735-1.189l-.627.915a14.759,14.759,0,1,1,24.888,7.8,1.052,1.052,0,0,0-.01,1.487,1.063,1.063,0,0,0,1.487.01,16.868,16.868,0,1,0-28.435-8.93L93,24.853a1.052,1.052,0,0,0-1.068,1.812Z" transform="translate(-81.8 -5.4)" fill="#222872"/>
        <path id="Path_14326" data-name="Path 14326" d="M334.05,286.265a1.052,1.052,0,1,0-.29,1.459A1.061,1.061,0,0,0,334.05,286.265Z" transform="translate(-297.196 -256.31)" fill="#222872"/>
      </g>
    </g>
    <path id="Path_14327" data-name="Path 14327" d="M167.906,434.933a1.052,1.052,0,1,0-.29,1.459A1.061,1.061,0,0,0,167.906,434.933Z" transform="translate(-148.527 -383.942)"/>
  </g>
</svg>
