<svg id="consulting" xmlns="http://www.w3.org/2000/svg" width="43.184" height="43.184" viewBox="0 0 43.184 43.184">
  <path id="Path_14313" data-name="Path 14313" d="M75.567,101.786a.89.89,0,0,1-.345-.069.9.9,0,0,1-.555-.831v-5.4a.9.9,0,0,1,1.8,0v3.226l3.862-3.862a.9.9,0,0,1,.636-.264h26.99a1.8,1.8,0,0,0,1.8-1.8V67.6a1.8,1.8,0,0,0-1.8-1.8h-4.5a.9.9,0,1,1,0-1.8h4.5a3.6,3.6,0,0,1,3.6,3.6v25.19a3.6,3.6,0,0,1-3.6,3.6H81.338L76.2,101.522a.9.9,0,0,1-.636.264Zm0,0" transform="translate(-68.37 -58.602)" fill="#222872"/>
  <path id="Path_14314" data-name="Path 14314" d="M3.6,96.388a3.6,3.6,0,0,1-3.6-3.6V67.6A3.6,3.6,0,0,1,3.6,64H8.1a.9.9,0,1,1,0,1.8H3.6a1.8,1.8,0,0,0-1.8,1.8v25.19a1.8,1.8,0,0,0,1.8,1.8.9.9,0,0,1,0,1.8Zm0,0" transform="translate(0 -58.602)" fill="#222872"/>
  <path id="Path_14315" data-name="Path 14315" d="M131.858,22.492h-.9a.9.9,0,1,1,0-1.8h.9a1.8,1.8,0,0,0,1.8-1.8v-1.8a1.8,1.8,0,0,0-1.8-1.8h-.9a.9.9,0,0,1-.9-.9V12.6a10.8,10.8,0,0,0-21.592,0v1.8a.9.9,0,0,1-1.8,0V12.6a12.6,12.6,0,0,1,25.19,0v.9a3.6,3.6,0,0,1,3.6,3.6v1.8a3.6,3.6,0,0,1-3.6,3.6Zm0,0" transform="translate(-97.671)" fill="#009eff"/>
  <path id="Path_14316" data-name="Path 14316" d="M68.5,169h-.9a3.6,3.6,0,0,1-3.6-3.6v-1.8a3.6,3.6,0,0,1,3.6-3.6h.9a.9.9,0,0,1,.9.9v7.2A.9.9,0,0,1,68.5,169Zm-.9-7.2a1.8,1.8,0,0,0-1.8,1.8v1.8a1.8,1.8,0,0,0,1.8,1.8Zm0,0" transform="translate(-58.602 -146.505)" fill="#009eff"/>
  <path id="Path_14317" data-name="Path 14317" d="M226.7,219.761a2.7,2.7,0,1,1,2.545-3.6h.154a8.106,8.106,0,0,0,8.1-8.1v-4.5a.9.9,0,0,1,1.8,0v4.5a9.908,9.908,0,0,1-9.9,9.9h-.9a.9.9,0,0,1-.9-.9.9.9,0,1,0-.9.9.9.9,0,1,1,0,1.8Zm0,0" transform="translate(-205.107 -185.574)" fill="#009eff"/>
  <path id="Path_14318" data-name="Path 14318" d="M166.426,52.564a.9.9,0,0,1-.9-.9,7.2,7.2,0,1,0-14.394,0,.9.9,0,1,1-1.8,0,9,9,0,0,1,17.993,0A.9.9,0,0,1,166.426,52.564Zm0,0" transform="translate(-136.737 -39.069)" fill="#009eff"/>
  <path id="Path_14319" data-name="Path 14319" d="M202.668,277.332h1.8v1.8h-1.8Zm0,0" transform="translate(-185.574 -253.941)" fill="#222872"/>
  <path id="Path_14320" data-name="Path 14320" d="M245.332,277.332h1.8v1.8h-1.8Zm0,0" transform="translate(-224.64 -253.941)" fill="#222872"/>
  <path id="Path_14321" data-name="Path 14321" d="M288,277.332h1.8v1.8H288Zm0,0" transform="translate(-263.709 -253.941)" fill="#222872"/>
</svg>
