<svg id="Layer_1" data-name="Layer 1" xmlns="http://www.w3.org/2000/svg" viewBox="0 0 53.85 52.72"><defs><style>.cls-1{fill:#0189d5;}</style></defs><path class="cls-1" d="M12.92,46.91,37.7,42.53l-1.45-1.74Q30.59,34.07,25,27.36a.76.76,0,0,1-.2-.84Q28,17.61,31.26,8.67c0-.1.08-.19.18-.43L53.85,47H12.92Z"/><path class="cls-1" d="M29.27,5.72c.12.2,0,.37-.09.54Q20.84,24.13,12.5,42a.67.67,0,0,1-.72.45H.5c-.61,0-.61,0-.29-.55C4,35.29,7.89,28.75,11.58,22.11A21.08,21.08,0,0,1,17,15.84C21,12.62,24.84,9.27,28.77,6,28.92,5.86,29,5.69,29.27,5.72Z"/></svg>