<svg id="connection" xmlns="http://www.w3.org/2000/svg" width="55.031" height="55.031" viewBox="0 0 55.031 55.031">
  <g id="Group_55731" data-name="Group 55731">
    <g id="Group_55730" data-name="Group 55730">
      <path id="Path_14279" data-name="Path 14279" d="M45.846,13.169a13.755,13.755,0,0,0-26.1-5.452,7.224,7.224,0,0,0-2.318-.38,7.337,7.337,0,0,0-7.1,9.175,10.089,10.089,0,1,0-.234,20.175h2.752a.917.917,0,1,0,0-1.834H10.089A8.255,8.255,0,1,1,11.545,18.48a.917.917,0,0,0,.978-1.319,5.445,5.445,0,0,1-.6-2.487,5.509,5.509,0,0,1,5.5-5.5,5.43,5.43,0,0,1,2.392.555.918.918,0,0,0,1.248-.479,11.921,11.921,0,0,1,22.956,4.528c0,.018-.006.113-.006.13a.918.918,0,0,0,.766.92,10.083,10.083,0,0,1-1.675,20.027h-.917a.917.917,0,1,0,0,1.834h.917a11.918,11.918,0,0,0,2.739-23.519Z" fill="#222872"/>
    </g>
  </g>
  <g id="Group_55733" data-name="Group 55733" transform="translate(33.936 12.841)">
    <g id="Group_55732" data-name="Group 55732">
      <path id="Path_14280" data-name="Path 14280" d="M324.909,119.467a11.9,11.9,0,0,0-8.942,3.979.917.917,0,1,0,1.375,1.214A10.124,10.124,0,0,1,335,131.39a.917.917,0,1,0,1.834,0A11.937,11.937,0,0,0,324.909,119.467Z" transform="translate(-315.738 -119.467)" fill="#222872"/>
    </g>
  </g>
  <g id="Group_55735" data-name="Group 55735" transform="translate(18.344)">
    <g id="Group_55734" data-name="Group 55734">
      <path id="Path_14281" data-name="Path 14281" d="M184.425,0A13.766,13.766,0,0,0,171.57,18.67a.917.917,0,1,0,1.713-.655A11.932,11.932,0,0,1,184.425,1.834a.917.917,0,0,0,0-1.834Z" transform="translate(-170.667)" fill="#222872"/>
    </g>
  </g>
  <g id="Group_55737" data-name="Group 55737" transform="translate(19.261 22.012)">
    <g id="Group_55736" data-name="Group 55736">
      <path id="Path_14282" data-name="Path 14282" d="M181.952,204.8a2.755,2.755,0,0,0-2.752,2.752v7.338a.917.917,0,0,0,.917.917h3.669a.917.917,0,0,0,.917-.917v-7.338A2.755,2.755,0,0,0,181.952,204.8Zm.917,9.172h-1.834v-6.42a.917.917,0,1,1,1.834,0v6.42Z" transform="translate(-179.2 -204.8)" fill="#009eff"/>
    </g>
  </g>
  <g id="Group_55739" data-name="Group 55739" transform="translate(30.267 22.012)">
    <g id="Group_55738" data-name="Group 55738">
      <path id="Path_14283" data-name="Path 14283" d="M284.352,204.8a2.755,2.755,0,0,0-2.752,2.752v7.338a.917.917,0,0,0,.917.917h3.669a.917.917,0,0,0,.917-.917v-7.338A2.755,2.755,0,0,0,284.352,204.8Zm.917,9.172h-1.834v-6.42a.917.917,0,1,1,1.834,0v6.42Z" transform="translate(-281.6 -204.8)" fill="#009eff"/>
    </g>
  </g>
  <g id="Group_55741" data-name="Group 55741" transform="translate(16.509 31.184)">
    <g id="Group_55740" data-name="Group 55740">
      <path id="Path_14284" data-name="Path 14284" d="M174.7,290.133H154.517a.917.917,0,0,0-.917.917v3.669a.917.917,0,0,0,.917.917H174.7a.917.917,0,0,0,.917-.917V291.05A.917.917,0,0,0,174.7,290.133Zm-.917,3.669H155.434v-1.834h18.344V293.8Z" transform="translate(-153.6 -290.133)" fill="#009eff"/>
    </g>
  </g>
  <g id="Group_55743" data-name="Group 55743" transform="translate(18.344 34.853)">
    <g id="Group_55742" data-name="Group 55742">
      <path id="Path_14285" data-name="Path 14285" d="M188.094,324.267H171.584a.917.917,0,0,0-.917.917v5.5a6.426,6.426,0,0,0,6.418,6.418h5.508a6.426,6.426,0,0,0,6.418-6.418v-5.5A.917.917,0,0,0,188.094,324.267Zm-.917,6.422a4.589,4.589,0,0,1-4.583,4.584h-5.508a4.589,4.589,0,0,1-4.584-4.584V326.1h14.675v4.588Z" transform="translate(-170.667 -324.267)" fill="#009eff"/>
    </g>
  </g>
  <g id="Group_55745" data-name="Group 55745" transform="translate(24.764 45.859)">
    <g id="Group_55744" data-name="Group 55744">
      <path id="Path_14286" data-name="Path 14286" d="M234.987,426.667h-3.669a.917.917,0,0,0-.917.917v1.834a2.752,2.752,0,0,0,5.5,0v-1.834A.917.917,0,0,0,234.987,426.667Zm-.917,2.752a.917.917,0,0,1-1.834,0V428.5h1.834v.917Z" transform="translate(-230.401 -426.667)" fill="#009eff"/>
    </g>
  </g>
  <g id="Group_55747" data-name="Group 55747" transform="translate(26.598 49.528)">
    <g id="Group_55746" data-name="Group 55746">
      <path id="Path_14287" data-name="Path 14287" d="M248.384,460.8a.917.917,0,0,0-.917.917v3.669a.917.917,0,1,0,1.834,0v-3.669A.917.917,0,0,0,248.384,460.8Z" transform="translate(-247.467 -460.8)" fill="#009eff"/>
    </g>
  </g>
  <g id="Group_55749" data-name="Group 55749" transform="translate(22.012 39.439)">
    <g id="Group_55748" data-name="Group 55748">
      <path id="Path_14288" data-name="Path 14288" d="M208.469,369.685a1.836,1.836,0,0,1-1.834-1.834.917.917,0,0,0-1.834,0,3.672,3.672,0,0,0,3.669,3.669.917.917,0,1,0,0-1.834Z" transform="translate(-204.8 -366.933)" fill="#009eff"/>
    </g>
  </g>
</svg>
