<svg xmlns="http://www.w3.org/2000/svg" width="48.001" height="48" viewBox="0 0 48.001 48">
  <g id="_x31_30" transform="translate(-2.5 -2.5)">
    <path id="Path_14129" data-name="Path 14129" d="M6.719,35.33H19.06c.458,1.237-.089,2.334-3.115,4.6H14.489a1,1,0,1,0,0,2h9.931a1,1,0,1,0,0-2H19.107c1.439-1.347,2.369-2.809,2.02-4.6h3.293a1,1,0,0,0,1-1s0,0,0-.005,0,0,0-.005a1,1,0,0,0-1-1l-17.7.01A2.228,2.228,0,0,1,4.5,31.1V29.85h19.92a1,1,0,0,0,0-2H8.5V8.5H38.369v2.7a1,1,0,0,0,2,0V7.5a1,1,0,0,0-1-1H7.5a1,1,0,0,0-1,1V27.85h-2V6.72A2.223,2.223,0,0,1,6.719,4.5h33.43a2.223,2.223,0,0,1,2.22,2.22V11.2a1,1,0,0,0,2,0V6.72a4.224,4.224,0,0,0-4.22-4.22H6.719A4.224,4.224,0,0,0,2.5,6.72V31.1a4.229,4.229,0,0,0,4.22,4.23Z" fill="#222872"/>
    <path id="Path_14130" data-name="Path 14130" d="M23.438,30.586h-.01a1,1,0,1,0,.01,0Z" fill="#222872"/>
    <path id="Path_14131" data-name="Path 14131" d="M50.5,18.2a4,4,0,0,0-4-4H31.419a4,4,0,0,0-4,4V46.5a4,4,0,0,0,4,4H46.5a4,4,0,0,0,4-4c0-34.4,0-27.233,0-28.3Zm-19.08-2H46.5a2,2,0,0,1,2,2V41.472H29.419V18.2a2,2,0,0,1,2-2Zm0,32.3a2,2,0,0,1-2-2V43.472H48.5V46.5a2,2,0,0,1-2,2Z" fill="#222872"/>
    <path id="Path_14132" data-name="Path 14132" d="M39.654,44.986H38.265a1,1,0,0,0,0,2h1.389a1,1,0,0,0,0-2Z" fill="#222872"/>
    <path id="Path_14133" data-name="Path 14133" d="M11.04,20.835a1,1,0,0,0,.4.8l5.689,4.237a1,1,0,0,0,1.194,0l5.7-4.237a1,1,0,0,0,0-1.605l-2.5-1.859,2.5-1.86a1,1,0,0,0,0-1.6l-5.7-4.239a1,1,0,0,0-1.194,0L11.446,14.71a1,1,0,0,0,0,1.6l2.5,1.863-2.5,1.856a1,1,0,0,0-.4.8Zm6.689-8.315,4.021,2.992L17.729,18.5l-4.013-2.992Zm-2.113,6.907,1.517,1.128a1,1,0,0,0,1.191,0l1.528-1.13,1.9,1.411-4.021,2.99-4.015-2.989Z" fill="#009eff"/>
    <path id="Path_14134" data-name="Path 14134" d="M32.134,31.72a1,1,0,0,0,.4.8l5.819,4.334a1,1,0,0,0,1.194,0l5.831-4.334a1,1,0,0,0,0-1.605L42.795,29l2.583-1.922a1,1,0,0,0,0-1.6L39.55,21.136a1,1,0,0,0-1.194,0l-5.814,4.336a1,1,0,0,0,0,1.6L35.122,29l-2.583,1.918a1,1,0,0,0-.4.8Zm6.82-8.535,4.151,3.089-4.151,3.089-4.143-3.089Zm-2.163,7.066,1.565,1.164a1,1,0,0,0,1.191,0l1.577-1.167,1.982,1.472-4.153,3.087L34.81,31.722Z" fill="#009eff"/>
  </g>
</svg>
