<?xml version="1.0" encoding="utf-8"?>
<!-- Generator: Adobe Illustrator 26.0.1, SVG Export Plug-In . SVG Version: 6.00 Build 0)  -->
<svg version="1.1" id="Layer_1" xmlns="http://www.w3.org/2000/svg" xmlns:xlink="http://www.w3.org/1999/xlink" x="0px" y="0px"
	 viewBox="0 0 53.8 52.7" style="enable-background:new 0 0 53.8 52.7;" xml:space="preserve">
<style type="text/css">
	.st0{fill:#222872;}
	.st1{fill:#009EFF;}
</style>
<g>
	<path class="st0" d="M51.5,46.4c0.1-0.2,0.2-0.4,0.2-0.6l0.1-0.2v-0.7l-0.4-0.6c-0.4-0.6-0.8-1.2-1.2-1.8c-0.2-0.4-0.4-0.9-0.4-1.3
		c0-2.1,0-4.2,0-6.3l0-3.4c0-1.3-0.3-1.6-1.6-1.6c-3.8,0-7.5,0-11.3,0h-4.7v-6l7,0c1.9,0,3.8,0,5.7,0c0.5,0,1.1,0.3,1.4,0.6
		c0.9,1,2,1.4,3,1.2c1-0.2,1.8-1,2.3-2.2c0-0.1,0.1-0.2,0.2-0.3v-0.7c-0.9-2.2-2.1-3-3.8-2.5c-0.6,0.2-1.1,0.4-1.2,0.7
		c-0.6,1.1-1.6,1-2.4,1c-2.6,0-5.1,0-7.6,0l-4.6,0v-5.2l0.6,0c0.2,0,0.5,0,0.8,0c0.7,0,1.5,0,2.2,0c1.1,0,2.1,0,3.1,0
		c1.2,0,1.6-0.3,1.6-1.6c0-0.6,0-1.2,0-1.8c0-1.2,0-2.5,0-3.7c0-0.6,0.3-1.2,0.7-1.6c0.7-0.6,1-1.5,1.1-2.3c0-0.8-0.3-1.5-0.8-2.1
		C41,3,40.2,2.7,39.4,2.7c-0.8,0-1.6,0.4-2.1,0.9c-0.5,0.6-0.8,1.3-0.8,2.1c0,0.8,0.4,1.6,1.1,2.2c0.4,0.4,0.7,1,0.7,1.5
		c0.1,1.1,0,2.1,0,3.2c0,0.4,0,0.8,0,1.3v0.4h-6.3l-0.2-2.1c-0.1-1.3-0.3-2.6-0.5-3.9c-0.3-2.5-0.8-5-3.1-6.5
		c-0.7-0.5-1.5-0.8-2.4-1.1c-0.4-0.1-0.7-0.3-1.1-0.4h-2c-2,0.5-4.4,1.3-5.6,3.6c-0.9,1.8-2.2,2.9-4.3,4C9.7,9.3,8,12.3,7.8,16.5
		c0,0.8-0.2,1.5-1,2.1c-2.1,1.7-3.5,3.9-4,6.8l0,1.7c0.5,2.5,1.6,4.6,3.3,6.4c0.2,0.2,0.3,0.7,0.3,1.4C5.9,40.4,9.5,45.2,15,46.1
		c0.3,0.1,0.8,0.3,1,0.7c1,3.1,3.3,5.1,6.9,6l1.9,0c4-1.3,6.2-3.8,6.4-7.3c0-0.8,0.1-1.5,0.1-2.3c0-0.6,0-1.2,0.1-1.8
		c0-0.3,0.1-0.7,0.1-1l0.1-0.8h4.2l0,1.4c0,1,0,2.1,0,3.2c0,0.3-0.3,0.6-0.6,0.8l-0.1,0.1c-0.7,0.6-1.1,1.4-1.1,2.2
		c0,0.8,0.3,1.6,0.8,2.2c0.5,0.6,1.3,0.9,2.2,0.9c0.8,0,1.6-0.3,2.1-0.9c0.5-0.6,0.8-1.3,0.8-2.1c0-0.8-0.4-1.6-1.1-2.3
		c-0.4-0.3-0.7-1-0.7-1.5c0-1,0-2.1,0-3.1c0-0.4,0-0.9,0-1.3c0-1.6-0.2-1.8-1.9-1.8H32v-4.9h15.6v3.8c0,1.4,0,2.8,0,4.2l0,0.3
		c0,1,0,2.1-1.1,3c-0.8,0.7-0.9,1.8-0.2,3.1c0.6,1.1,1.5,1.6,2.8,1.5C50.2,48.1,51,47.5,51.5,46.4z M29.2,43.1
		c0,1.9-0.6,3.5-1.8,5.1c-0.8,1-1.9,1.6-3.1,1.7c-0.2,0-0.3,0-0.5,0c-1.2,0-2.3-0.4-3.3-1.3c-1.2-1-1.8-2.1-1.9-3.3
		c-0.1-1.1,0.3-2.2,1.2-3.2c0.8-0.9,1.9-1.6,2.9-2.3l0.3-0.2c1.3-0.9,1.2-1.6,0.9-2.1c-0.2-0.3-0.4-0.6-0.7-0.7
		c-0.4-0.1-0.9,0-1.5,0.3c-2.8,1.5-4.4,3.1-5.3,5.3c-0.4,1-1.2,0.8-1.7,0.7l-0.1,0c-3.7-1-6.1-5-5.2-8.7c0.3-1.2,0.1-1.9-0.9-2.7
		C6.6,30,5.6,28,5.7,26c0.1-2,1.2-3.9,3.2-5.4c1.3-0.9,1.9-1.7,1.7-3.4c-0.3-3,1.5-6.2,4.1-7.3c0.2-0.1,0.4-0.1,0.6-0.2l0.2-0.1
		l0.2,0.2c0.3,0.4,0.5,0.7,0.8,1.1c0.5,0.8,1,1.5,1.6,2.2c0.4,0.5,0.9,0.8,1.4,0.8c0.3,0,0.7-0.1,1-0.4c0.6-0.6,0.5-1.4-0.4-2.3
		c-1.7-1.9-2-3.7-1-5.5c1.2-2.1,3.7-3.2,5.7-2.6c0.9,0.3,1.9,0.9,2.6,1.7c1.2,1.4,1.7,3,1.7,4.9C29.2,20.4,29.2,31.3,29.2,43.1z"/>
	<path class="st1" d="M17.2,32.8c-0.1-0.2-0.2-0.3-0.4-0.5c-2.3-3.5-2-8.1,0.9-11.2c0.4-0.5,0.6-0.9,0.6-1.4c0-0.3-0.2-0.6-0.4-0.8
		c-0.3-0.2-0.6-0.3-0.9-0.3c-0.5,0-0.9,0.2-1.2,0.6c-2,2.1-3.1,4.8-3.1,7.7v0c0,2.8,0.9,5.6,2.7,7.8c0.2,0.3,0.5,0.5,0.9,0.5
		c0.3,0,0.7,0,1-0.3c0.3-0.2,0.5-0.5,0.5-0.9c0-0.3,0-0.7-0.3-1C17.3,33.1,17.2,32.9,17.2,32.8z"/>
</g>
</svg>
