<svg xmlns="http://www.w3.org/2000/svg" width="50.893" height="50.893" viewBox="0 0 50.893 50.893">
  <g id="Code_x2C__coding_x2C__mobile_x2C__development" transform="translate(-1 -1)">
    <g id="XMLID_1809_" transform="translate(1 1)">
      <g id="XMLID_1832_" transform="translate(22.053 3.393)">
        <g id="Group_55751" data-name="Group 55751">
          <g id="Group_55750" data-name="Group 55750">
            <path id="Path_14289" data-name="Path 14289" d="M19.937,4.7H14.848a.848.848,0,0,1,0-1.7h5.089a.848.848,0,0,1,0,1.7Z" transform="translate(-14 -3)" fill="#222872"/>
          </g>
        </g>
      </g>
      <g id="XMLID_1831_" transform="translate(11.875 16.964)">
        <g id="Group_55753" data-name="Group 55753">
          <g id="Group_55752" data-name="Group 55752">
            <path id="Path_14290" data-name="Path 14290" d="M30.9,44.928H12.241A4.246,4.246,0,0,1,8,40.687V11.848a.848.848,0,0,1,1.7,0V40.687a2.548,2.548,0,0,0,2.545,2.545H30.9a2.548,2.548,0,0,0,2.545-2.545V11.848a.848.848,0,0,1,1.7,0V40.687A4.246,4.246,0,0,1,30.9,44.928Z" transform="translate(-8 -11)" fill="#222872"/>
          </g>
        </g>
      </g>
      <g id="XMLID_1830_" transform="translate(11.875)">
        <g id="Group_55755" data-name="Group 55755">
          <g id="Group_55754" data-name="Group 55754">
            <path id="Path_14291" data-name="Path 14291" d="M34.294,24.75a.849.849,0,0,1-.848-.848V5.241A2.548,2.548,0,0,0,30.9,2.7H12.241A2.548,2.548,0,0,0,9.7,5.241V23.9a.848.848,0,0,1-1.7,0V5.241A4.246,4.246,0,0,1,12.241,1H30.9a4.246,4.246,0,0,1,4.241,4.241V23.9A.849.849,0,0,1,34.294,24.75Z" transform="translate(-8 -1)" fill="#222872"/>
          </g>
        </g>
      </g>
      <g id="XMLID_1816_" transform="translate(42.41 6.786)">
        <g id="XMLID_1824_">
          <g id="Group_55757" data-name="Group 55757">
            <g id="Group_55756" data-name="Group 55756">
              <path id="Path_14292" data-name="Path 14292" d="M26.848,6.781A.78.78,0,0,1,26,6.018v-.17a.848.848,0,1,1,1.7,0A.925.925,0,0,1,26.848,6.781Z" transform="translate(-26 -5)" fill="#222872"/>
            </g>
          </g>
        </g>
        <g id="XMLID_1818_" transform="translate(0 3.393)">
          <g id="Group_55759" data-name="Group 55759">
            <g id="Group_55758" data-name="Group 55758">
              <path id="Path_14293" data-name="Path 14293" d="M26.848,8.781A.78.78,0,0,1,26,8.018v-.17a.848.848,0,1,1,1.7,0A.925.925,0,0,1,26.848,8.781Z" transform="translate(-26 -7)" fill="#222872"/>
            </g>
          </g>
        </g>
        <g id="XMLID_1817_" transform="translate(0 6.786)">
          <g id="Group_55761" data-name="Group 55761">
            <g id="Group_55760" data-name="Group 55760">
              <path id="Path_14294" data-name="Path 14294" d="M26.848,10.781A.78.78,0,0,1,26,10.018v-.17a.848.848,0,1,1,1.7,0A.925.925,0,0,1,26.848,10.781Z" transform="translate(-26 -9)" fill="#222872"/>
            </g>
          </g>
        </g>
      </g>
      <g id="XMLID_1820_" transform="translate(6.786 35.455)">
        <g id="XMLID_1823_">
          <g id="Group_55763" data-name="Group 55763">
            <g id="Group_55762" data-name="Group 55762">
              <path id="Path_14295" data-name="Path 14295" d="M5.848,23.681A.78.78,0,0,1,5,22.918v-.17a.848.848,0,0,1,1.7,0,.925.925,0,0,1-.848.933Z" transform="translate(-5 -21.9)" fill="#222872"/>
            </g>
          </g>
        </g>
        <g id="XMLID_1822_" transform="translate(0 3.393)">
          <g id="Group_55765" data-name="Group 55765">
            <g id="Group_55764" data-name="Group 55764">
              <path id="Path_14296" data-name="Path 14296" d="M5.848,25.681A.78.78,0,0,1,5,24.918v-.17a.848.848,0,0,1,1.7,0,.925.925,0,0,1-.848.933Z" transform="translate(-5 -23.9)" fill="#222872"/>
            </g>
          </g>
        </g>
        <g id="XMLID_1821_" transform="translate(0 6.786)">
          <g id="Group_55767" data-name="Group 55767">
            <g id="Group_55766" data-name="Group 55766">
              <path id="Path_14297" data-name="Path 14297" d="M5.848,27.681A.78.78,0,0,1,5,26.918v-.17a.848.848,0,1,1,1.7,0A.925.925,0,0,1,5.848,27.681Z" transform="translate(-5 -25.9)" fill="#222872"/>
            </g>
          </g>
        </g>
      </g>
      <g id="XMLID_1815_" transform="translate(38.169 20.357)">
        <g id="Group_55769" data-name="Group 55769">
          <g id="Group_55768" data-name="Group 55768">
            <path id="Path_14298" data-name="Path 14298" d="M25.775,36.75a.81.81,0,0,1-.18-.019.847.847,0,0,1-.65-1.008l.56-2.6a.845.845,0,0,1,.629-.645,8.128,8.128,0,0,0,2.319-.969.848.848,0,0,1,.9.008L31.03,32.6l1.04-1.048L31,29.883a.85.85,0,0,1-.012-.9,8.075,8.075,0,0,0,.967-2.319.851.851,0,0,1,.641-.631l1.934-.429V24.149l-1.932-.429a.851.851,0,0,1-.641-.631,8.123,8.123,0,0,0-.967-2.319.844.844,0,0,1,.01-.9l1.076-1.681-1.038-1.038-1.681,1.076a.844.844,0,0,1-.9.008,8.168,8.168,0,0,0-2.319-.969.845.845,0,0,1-.629-.645L25.09,14.7h-.741a.848.848,0,1,1,0-1.7h1.425a.848.848,0,0,1,.828.67l.453,2.092a9.816,9.816,0,0,1,1.817.76l1.822-1.165a.85.85,0,0,1,1.057.115l2,2a.847.847,0,0,1,.114,1.057L32.7,20.352a9.846,9.846,0,0,1,.76,1.82l2.1.465a.851.851,0,0,1,.667.83v2.816a.848.848,0,0,1-.665.828l-2.1.465a9.783,9.783,0,0,1-.76,1.819l1.164,1.8a.845.845,0,0,1-.11,1.057l-2,2.019a.85.85,0,0,1-1.059.117l-1.822-1.165a9.865,9.865,0,0,1-1.817.76L26.6,36.078A.85.85,0,0,1,25.775,36.75Z" transform="translate(-23.5 -13)" fill="#222872"/>
          </g>
        </g>
      </g>
      <g id="XMLID_1810_" transform="translate(37.319 27.143)">
        <g id="Group_55771" data-name="Group 55771">
          <g id="Group_55770" data-name="Group 55770">
            <path id="Path_14299" data-name="Path 14299" d="M27.057,26.463a.848.848,0,0,1-.472-1.552A3.394,3.394,0,0,0,24.7,18.7a3.448,3.448,0,0,0-.679.068.849.849,0,1,1-.341-1.662A5.235,5.235,0,0,1,24.7,17a5.089,5.089,0,0,1,2.831,9.318.846.846,0,0,1-.472.144Z" transform="translate(-22.999 -17)" fill="#222872"/>
          </g>
        </g>
      </g>
      <g id="XMLID_1293_" transform="translate(6.786 14.281)">
        <g id="Group_55773" data-name="Group 55773">
          <g id="Group_55772" data-name="Group 55772">
            <path id="Path_14300" data-name="Path 14300" d="M10.089,18.887A5.09,5.09,0,0,1,7.27,9.56a.848.848,0,0,1,.94,1.411,3.394,3.394,0,0,0,1.88,6.219,3.3,3.3,0,0,0,.665-.066.848.848,0,1,1,.334,1.662A4.978,4.978,0,0,1,10.089,18.887Z" transform="translate(-5 -9.418)" fill="#222872"/>
          </g>
        </g>
      </g>
      <g id="XMLID_1811_" transform="translate(0 6.786)">
        <g id="Group_55775" data-name="Group 55775">
          <g id="Group_55774" data-name="Group 55774">
            <path id="Path_14301" data-name="Path 14301" d="M12.875,28.75H11.45a.848.848,0,0,1-.828-.67l-.453-2.092a9.816,9.816,0,0,1-1.817-.76L6.53,26.394a.847.847,0,0,1-1.057-.115l-2-2a.847.847,0,0,1-.114-1.057L4.522,21.4a9.846,9.846,0,0,1-.76-1.82l-2.1-.465A.851.851,0,0,1,1,18.283V15.467a.848.848,0,0,1,.665-.828l2.1-.465a9.783,9.783,0,0,1,.76-1.819L3.358,10.549a.845.845,0,0,1,.11-1.057l2-2.019A.845.845,0,0,1,6.53,7.356L8.352,8.522a9.865,9.865,0,0,1,1.817-.76l.453-2.092a.848.848,0,1,1,1.657.358l-.56,2.6a.845.845,0,0,1-.629.645,8.158,8.158,0,0,0-2.321.969.848.848,0,0,1-.9-.008L6.193,9.154,5.151,10.2l1.074,1.666a.843.843,0,0,1,.012.9,8.075,8.075,0,0,0-.967,2.319.851.851,0,0,1-.641.631L2.7,16.147V17.6l1.932.429a.851.851,0,0,1,.641.631,8.123,8.123,0,0,0,.967,2.319.844.844,0,0,1-.01.9L5.151,23.559,6.189,24.6,7.87,23.521a.851.851,0,0,1,.9-.008,8.168,8.168,0,0,0,2.319.969.845.845,0,0,1,.629.645l.417,1.927h.741a.848.848,0,0,1,0,1.7Z" transform="translate(-1 -5)" fill="#222872"/>
          </g>
        </g>
      </g>
      <g id="XMLID_1813_" transform="translate(16.964 21.205)">
        <g id="XMLID_1890_" transform="translate(6.786)">
          <g id="Group_55777" data-name="Group 55777">
            <g id="Group_55776" data-name="Group 55776">
              <path id="Path_14302" data-name="Path 14302" d="M15.848,21.982a.861.861,0,0,1-.205-.025.846.846,0,0,1-.617-1.028l1.7-6.786a.848.848,0,0,1,1.646.411l-1.7,6.786a.845.845,0,0,1-.823.643Z" transform="translate(-15 -13.5)" fill="#009eff"/>
            </g>
          </g>
        </g>
        <g id="XMLID_1888_" transform="translate(11.875 0.001)">
          <g id="Group_55779" data-name="Group 55779">
            <g id="Group_55778" data-name="Group 55778">
              <path id="Path_14303" data-name="Path 14303" d="M18.848,21.982a.847.847,0,0,1-.6-1.447l2.794-2.794L18.25,14.948a.848.848,0,1,1,1.2-1.2l3.393,3.393a.849.849,0,0,1,0,1.2l-3.393,3.393A.852.852,0,0,1,18.848,21.982Z" transform="translate(-18 -13.501)" fill="#009eff"/>
            </g>
          </g>
        </g>
        <g id="XMLID_1887_" transform="translate(0 0.001)">
          <g id="Group_55781" data-name="Group 55781">
            <g id="Group_55780" data-name="Group 55780">
              <path id="Path_14304" data-name="Path 14304" d="M15.241,21.982a.852.852,0,0,1-.6-.248l-3.393-3.393a.849.849,0,0,1,0-1.2l3.393-3.393a.848.848,0,0,1,1.2,1.2l-2.792,2.792,2.792,2.792a.849.849,0,0,1,0,1.2A.84.84,0,0,1,15.241,21.982Z" transform="translate(-11 -13.501)" fill="#009eff"/>
            </g>
          </g>
        </g>
      </g>
    </g>
  </g>
</svg>
