<svg xmlns="http://www.w3.org/2000/svg" width="32.375" height="32.249" viewBox="0 0 32.375 32.249">
  <g id="web-development" transform="translate(0 -1)">
    <path id="Path_51868" data-name="Path 51868" d="M32.375,8.588V3.845A2.849,2.849,0,0,0,29.53,1H2.845A2.849,2.849,0,0,0,0,3.845V8.588Zm-10.5-3.794H27.57a.948.948,0,1,1,0,1.9H21.879a.948.948,0,1,1,0-1.9Zm-9.485,0a.948.948,0,1,1-.948.948A.949.949,0,0,1,12.394,4.794Zm-3.794,0a.948.948,0,1,1-.948.948A.949.949,0,0,1,8.6,4.794Zm-3.794,0a.948.948,0,1,1-.948.948A.949.949,0,0,1,4.806,4.794Z" fill="#fff"/>
    <path id="Path_51869" data-name="Path 51869" d="M0,151v19.918a2.849,2.849,0,0,0,2.845,2.845H29.53a2.849,2.849,0,0,0,2.845-2.845V151Zm11.089,13.487A.948.948,0,1,1,9.9,165.968l-4.742-3.794a.949.949,0,0,1,0-1.481L9.9,156.9a.948.948,0,1,1,1.185,1.481l-3.817,3.053Zm8.816-9.319-5.691,13.279a.948.948,0,0,1-1.744-.747l5.691-13.279a.948.948,0,0,1,1.744.747Zm7.309,7.007-4.742,3.794a.948.948,0,1,1-1.185-1.481l3.817-3.053-3.817-3.053a.948.948,0,1,1,1.185-1.481l4.742,3.794a.949.949,0,0,1,0,1.481Z" transform="translate(0 -140.515)" fill="#fff"/>
  </g>
</svg>
