<svg id="developer" xmlns="http://www.w3.org/2000/svg" width="51.095" height="51.096" viewBox="0 0 51.095 51.096">
  <path id="Path_15006" data-name="Path 15006" d="M14.645,0A10.645,10.645,0,1,0,25.29,10.645,10.657,10.657,0,0,0,14.645,0Z" transform="translate(4.516)" fill="#fff"/>
  <path id="Path_15007" data-name="Path 15007" d="M17.239,32.991a1.6,1.6,0,0,1-1.2-1.914l3.193-13.838a1.6,1.6,0,0,1,3.113.717L19.153,31.794A1.592,1.592,0,0,1,17.239,32.991Z" transform="translate(18.063 18.062)" fill="#fff"/>
  <path id="Path_15008" data-name="Path 15008" d="M21.6,29.774a1.6,1.6,0,0,1-1.069-2.785l4-3.6-4-3.6a1.6,1.6,0,0,1,2.137-2.376l5.322,4.79a1.6,1.6,0,0,1,0,2.376l-5.322,4.79a1.594,1.594,0,0,1-1.069.409Z" transform="translate(22.579 19.192)" fill="#fff"/>
  <path id="Path_15009" data-name="Path 15009" d="M17.919,29.773a1.594,1.594,0,0,1-1.069-.409l-5.322-4.79a1.6,1.6,0,0,1,0-2.376l5.322-4.79a1.6,1.6,0,0,1,2.137,2.376l-4,3.6,4,3.6a1.6,1.6,0,0,1-1.069,2.785Z" transform="translate(12.419 19.193)" fill="#fff"/>
  <path id="Path_15010" data-name="Path 15010" d="M19.693,29.032a5.868,5.868,0,0,1,1.931-4.345l5.329-4.8a5.834,5.834,0,0,1,7.245-.451,5.816,5.816,0,0,1,3.489-2.921A10.107,10.107,0,0,0,29.273,12H10.113A10.124,10.124,0,0,0,0,22.113v8.516a1.6,1.6,0,0,0,1.6,1.6H20.668A5.848,5.848,0,0,1,19.693,29.032Z" transform="translate(0 13.548)" fill="#fff"/>
</svg>
