<?xml version="1.0" encoding="utf-8"?>
<!-- Generator: Adobe Illustrator 26.0.1, SVG Export Plug-In . SVG Version: 6.00 Build 0)  -->
<svg version="1.1" id="Layer_1" xmlns="http://www.w3.org/2000/svg" xmlns:xlink="http://www.w3.org/1999/xlink" x="0px" y="0px"
	 viewBox="0 0 53.8 52.7" style="enable-background:new 0 0 53.8 52.7;" xml:space="preserve">
<style type="text/css">
	.st0{fill:#222872;}
	.st1{fill:#009EFF;}
</style>
<g>
	<path class="st0" d="M45,38.4L45,38.4c-2.7,4.1-6.7,7.2-11.4,8.6c-2.2,0.6-4.3,1-6.4,1.3l-1.8,0.3l-0.1-2.9l-5.4,3.5l5.4,3.5v-2.3
		l1.7,0c6.7-0.1,13.2-2.9,17.7-7.9c0.7-0.8,1.6-1.7,1.7-2C46.2,40.3,45.6,39.3,45,38.4z"/>
	<path class="st1" d="M36.5,17.9c0-0.1-0.2-0.4-0.4-0.6c-1.7-0.1-3.4-0.1-5.2-0.1c-0.3,0-0.6,0-0.9,0v6.4h-6.2v-6.4l-1.4,0
		c-1.5,0-3,0-4.4,0l-0.1,0l-0.1,0c-0.1,0-0.1,0-0.2,0c-0.2,0-0.3,0.1-0.4,0.3c-0.1,0.1-0.1,0.3-0.1,0.5l0,0.1l0,17.8
		c0,0,0,0.1,0,0.2c0,0.2,0.1,0.3,0.2,0.4c0.1,0.1,0.3,0.1,0.5,0.1l0.1,0l17.9,0c0,0,0.1,0,0.1,0c0.2,0,0.3-0.1,0.4-0.2
		c0.1-0.1,0.1-0.3,0.1-0.4l0-0.1l0-0.1C36.6,28.8,36.6,23.1,36.5,17.9z"/>
	<path class="st0" d="M14.9,44.5L14.9,44.5c-4.1-2.7-7.2-6.7-8.6-11.4c-0.6-2.2-1-4.3-1.3-6.4l-0.3-1.8l2.9-0.1l-3.5-5.4l-3.5,5.4
		h2.3l0,1.7C3,33.1,5.8,39.5,10.8,44c0.8,0.7,1.7,1.6,2,1.7C13.1,45.7,14,45.1,14.9,44.5z"/>
	<path class="st0" d="M8.8,14.4L8.8,14.4c2.7-4.1,6.7-7.2,11.4-8.7c2.2-0.6,4.3-1,6.4-1.3l1.8-0.3l0.1,2.9l5.4-3.6L28.6,0l0,2.3
		l-1.7,0c-6.7,0.1-13.2,3-17.7,7.9c-0.7,0.8-1.6,1.7-1.7,2C7.6,12.5,8.2,13.5,8.8,14.4z"/>
	<path class="st0" d="M53.3,28h-2.1L51,26.6c-0.1-0.6-0.1-1.1-0.1-1.5C50.5,18.8,47.7,13,43,8.7C42.2,8,41.3,7.1,41,7
		c-0.2,0-1.2,0.6-2.1,1.2l0,0c4.4,2.9,7.6,7.2,8.9,12.3c0.3,1.2,0.5,2.5,0.7,3.8c0.1,0.6,0.2,1.1,0.3,1.7l0.3,1.9L46.2,28l3.5,5.4
		L53.3,28z"/>
</g>
</svg>
