<svg version="1.2" xmlns="http://www.w3.org/2000/svg" viewBox="0 0 48 16" width="48" height="16">
	<title>dex-logo-svg</title>
	<defs>
		<linearGradient id="g1" x1="9.6" y1="2" x2="9.6" y2="14.2" gradientUnits="userSpaceOnUse">
			<stop offset="0" stop-color="#389bff"/>
			<stop offset="1" stop-color="#2358d0"/>
		</linearGradient>
		<linearGradient id="g2" x1="8.9" y1="7.8" x2="8.9" y2="14.2" gradientUnits="userSpaceOnUse">
			<stop offset="0" stop-color="#83bef8"/>
			<stop offset="1" stop-color="#1a81cc"/>
		</linearGradient>
		<linearGradient id="g3" x1="4.7" y1="2.2" x2="4.7" y2="10.3" gradientUnits="userSpaceOnUse">
			<stop offset="0" stop-color="#83bef8"/>
			<stop offset="1" stop-color="#1a81cc"/>
		</linearGradient>
	</defs>
	<style>
		.s0 { fill: url(#g1) } 
		.s1 { fill: url(#g2) } 
		.s2 { fill: url(#g3) } 
		.s3 { fill: #102d67 } 
	</style>
	<g id="Group_22">
		<g id="Group_57104">
			<g id="Group_21">
				<g id="Group_20">
					<g id="Group_19">
						<g id="Group_6">
							<g id="Group_16">
								<g id="Group_4">
									<g id="Group_17">
										<g id="Group_2">
											<g id="Group_18">
												<path id="Path_2" class="s0" d="m6.5 5.5v4.7q-0.1 0-0.1 0 0 0 0 0 0 0 0 0 0 0 0 0-0.9-0.7-1.7-1.4-0.4-0.3-0.6-0.6-0.3-0.4-0.5-0.7-0.2-0.4-0.4-0.8-0.1-0.4-0.1-0.9-0.1 0-0.1-0.1 0-0.1 0-0.2 0-0.1 0-0.2 0-0.1 0-0.1 0-1.6 0-3.1 0 0 0-0.1 0.1 0 0.2 0h3.7q1.7 0 3.4 0 0.3 0 0.7 0 0.3 0.1 0.6 0.1 0.4 0.1 0.7 0.2 0.3 0.2 0.6 0.3 0.5 0.3 1 0.7 0.5 0.3 0.9 0.8 0.4 0.5 0.7 1 0.2 0.5 0.4 1.1 0.1 0.2 0.1 0.4 0.1 0.3 0.1 0.5 0.1 0.2 0.1 0.4 0 0.3 0 0.5 0 0.2 0 0.4 0 0.2 0 0.4-0.1 0.2-0.1 0.4 0 0.2-0.1 0.4 0 0.4-0.2 0.7-0.1 0.4-0.3 0.7-0.2 0.4-0.4 0.7-0.2 0.3-0.5 0.6-0.4 0.5-0.9 0.8-0.5 0.4-1 0.6-0.6 0.3-1.2 0.4-0.6 0.1-1.2 0.1-1.5 0-3.1 0 0 0-0.1 0v-6.4q0 0 0 0 0 0 0.1 0.1 0 0 0 0 0 0 0 0 0.8 0.7 1.7 1.4 0.1 0.1 0.3 0.3 0.1 0.1 0.3 0.3 0.1 0.1 0.2 0.3 0.1 0.2 0.2 0.4 0.1 0 0.1 0 0 0.1 0 0.1 0 0 0.1 0 0 0 0 0 0.5 0 0.9-0.1 0.4-0.2 0.7-0.5 0.4-0.2 0.6-0.6 0.2-0.4 0.3-0.8 0-0.3 0-0.5 0-0.2 0-0.5 0-0.2-0.1-0.4-0.1-0.3-0.2-0.5-0.1-0.3-0.3-0.5-0.3-0.3-0.6-0.4-0.2-0.2-0.6-0.3-0.3-0.1-0.6-0.1-1.8 0-3.6 0-0.1 0-0.1 0z"/>
											</g>
										</g>
									</g>
								</g>
							</g>
						</g>
						<g id="Group_12">
							<g id="Group_13">
								<g id="Group_10">
									<g id="Group_14">
										<g id="Group_8">
											<g id="Group_15">
												<path id="Path_4" class="s1" d="m10.6 14.2q0 0 0 0-1.7 0-3.4 0-0.1 0-0.1-0.1 0-3.1 0-6.2v-0.1q0.1 0 0.1 0.1 0.9 0.7 1.7 1.4 0.2 0.1 0.3 0.3 0.2 0.1 0.3 0.3 0.1 0.2 0.3 0.4 0.1 0.1 0.2 0.3 0 0.2 0.1 0.3 0 0.1 0.1 0.2 0 0.1 0.1 0.2 0 0.2 0.1 0.3 0 0.1 0 0.2 0 0.1 0 0.2 0.1 0.1 0.1 0.2 0 0.1 0 0.2 0 0.1 0 0.2 0 0.1 0 0.2 0 0.1 0.1 0.2 0 0.1 0 0.2 0 0.5 0 1z"/>
												<path id="Path_5" class="s2" d="m3 2.2q0.2 0.6 0.5 1.1 0.4 0.6 0.8 1 0.5 0.4 1 0.8 0.5 0.3 1.1 0.5v4.7q-0.1-0.2-0.2-0.3-0.8-0.6-1.5-1.2-0.2-0.2-0.4-0.3-0.1-0.2-0.3-0.4-0.1-0.2-0.3-0.4-0.1-0.2-0.2-0.5-0.1-0.1-0.2-0.3 0-0.1-0.1-0.3 0-0.1-0.1-0.3 0-0.1 0-0.3 0-0.1-0.1-0.2 0-0.1 0-0.2 0-0.1 0-0.2 0-0.1 0-0.2 0-1.5 0-2.9c0 0 0-0.1 0-0.1z"/>
											</g>
										</g>
									</g>
								</g>
							</g>
						</g>
					</g>
				</g>
			</g>
			<path id="Path_2450" fill-rule="evenodd" class="s3" d="m24.2 13.4q-0.2 0-0.4 0-0.2 0-0.4-0.1-0.2-0.1-0.4-0.1-0.2-0.1-0.4-0.2-0.2-0.1-0.4-0.3-0.2-0.1-0.3-0.3-0.2-0.1-0.3-0.3-0.1-0.2-0.2-0.4-0.2-0.3-0.2-0.5-0.1-0.3-0.2-0.5 0-0.3-0.1-0.5 0-0.3 0-0.6v-0.2q0-0.3 0-0.5 0.1-0.3 0.1-0.6 0.1-0.2 0.2-0.5 0-0.2 0.2-0.5 0.1-0.2 0.2-0.3 0.1-0.2 0.3-0.4 0.1-0.2 0.3-0.3 0.2-0.1 0.4-0.2 0.2-0.2 0.4-0.2 0.2-0.1 0.4-0.2 0.2 0 0.4-0.1 0.2 0 0.4 0 0.2 0 0.3 0 0.1 0 0.3 0 0.1 0.1 0.2 0.1 0.2 0 0.3 0.1 0.1 0 0.2 0 0.1 0.1 0.2 0.1 0.1 0.1 0.2 0.1 0.1 0.1 0.2 0.2 0 0 0.1 0.1 0 0 0.1 0.1 0 0.1 0.1 0.1 0 0.1 0.1 0.2h0.2v-3.9h1.9v10.4h-1.8v-0.9h-0.3q-0.1 0.1-0.2 0.2 0 0.1-0.1 0.2-0.1 0.1-0.2 0.2-0.1 0.1-0.3 0.2-0.1 0.1-0.3 0.1-0.2 0.1-0.4 0.2-0.2 0-0.4 0-0.2 0-0.4 0zm0.6-1.6q0.2 0 0.4-0.1 0.2 0 0.3-0.1 0.2 0 0.4-0.1 0.2-0.1 0.3-0.3 0.1-0.1 0.3-0.3 0.1-0.2 0.2-0.4 0-0.2 0.1-0.5 0-0.2 0-0.4v-0.2q0-0.2 0-0.4-0.1-0.2-0.1-0.4-0.1-0.2-0.2-0.4-0.1-0.2-0.3-0.4-0.1-0.1-0.3-0.2-0.2-0.1-0.4-0.2-0.1-0.1-0.3-0.1-0.2-0.1-0.4 0-0.2-0.1-0.4 0-0.2 0-0.4 0.1-0.2 0.1-0.4 0.2-0.1 0.1-0.3 0.2-0.1 0.2-0.2 0.4-0.1 0.2-0.2 0.4-0.1 0.2-0.1 0.4-0.1 0.2 0 0.4v0.2q-0.1 0.2 0 0.4 0 0.3 0.1 0.5 0.1 0.2 0.2 0.4 0.1 0.2 0.2 0.3 0.2 0.2 0.3 0.3 0.2 0.1 0.4 0.1 0.2 0.1 0.4 0.1 0.2 0.1 0.4 0.1zm9.2 1.6q-0.3 0-0.5 0-0.3 0-0.5-0.1-0.2-0.1-0.5-0.1-0.2-0.1-0.4-0.3-0.2-0.1-0.4-0.2-0.2-0.2-0.4-0.3-0.1-0.2-0.3-0.4-0.1-0.2-0.2-0.4-0.1-0.2-0.2-0.5-0.1-0.2-0.2-0.5 0-0.2-0.1-0.5 0-0.2 0-0.5v-0.2q0-0.2 0-0.5 0.1-0.3 0.1-0.5 0.1-0.3 0.2-0.5 0-0.3 0.2-0.5 0.1-0.2 0.2-0.4 0.1-0.2 0.3-0.3 0.2-0.2 0.4-0.4 0.1-0.1 0.3-0.2 0.3-0.1 0.5-0.2 0.2-0.1 0.5-0.2 0.2 0 0.5-0.1 0.2 0 0.5 0 0.2 0 0.5 0 0.2 0.1 0.4 0.1 0.3 0.1 0.5 0.2 0.2 0.1 0.4 0.2 0.2 0.1 0.4 0.3 0.2 0.1 0.3 0.3 0.2 0.2 0.3 0.3 0.2 0.2 0.3 0.4 0.1 0.3 0.2 0.5 0.1 0.3 0.1 0.5 0.1 0.3 0.1 0.5 0 0.3 0 0.5v0.7h-5.3q0 0.1 0 0.3 0.1 0.2 0.1 0.3 0.1 0.2 0.2 0.3 0.1 0.2 0.3 0.3 0.1 0.1 0.2 0.2 0.2 0.1 0.4 0.2 0.1 0 0.3 0.1 0.2 0 0.4 0 0.1 0 0.3 0 0.1 0 0.3-0.1 0.1 0 0.2-0.1 0.2-0.1 0.3-0.2 0.1 0 0.2-0.1 0-0.1 0.1-0.2 0.1-0.1 0.1-0.2 0.1-0.1 0.2-0.2l1.5 0.8q-0.1 0.1-0.2 0.2 0 0.1-0.1 0.2-0.1 0.1-0.2 0.2 0 0.1-0.1 0.2-0.1 0.1-0.2 0.3-0.2 0.1-0.3 0.2-0.1 0.1-0.3 0.1-0.1 0.1-0.3 0.2-0.2 0.1-0.4 0.1-0.2 0.1-0.4 0.1-0.2 0.1-0.4 0.1-0.2 0-0.4 0zm-1.8-4.7h3.4q0-0.2 0-0.3-0.1-0.2-0.1-0.3-0.1-0.1-0.2-0.2-0.1-0.2-0.2-0.3-0.1-0.1-0.2-0.1-0.2-0.1-0.3-0.2-0.2 0-0.3 0-0.2-0.1-0.4 0-0.1-0.1-0.3 0-0.1 0-0.3 0-0.1 0.1-0.3 0.2-0.1 0-0.2 0.1-0.2 0.1-0.2 0.3-0.1 0.1-0.2 0.2-0.1 0.1-0.1 0.3-0.1 0.1-0.1 0.3zm5.8 4.5l2.7-3.7-2.6-3.7h2.1l1.7 2.5h0.3l1.6-2.5h2.2l-2.7 3.7 2.7 3.7h-2.2l-1.6-2.5h-0.3l-1.7 2.5z"/>
		</g>
	</g>
</svg>