<svg xmlns="http://www.w3.org/2000/svg" xmlns:xlink="http://www.w3.org/1999/xlink" width="110.91" height="31.227" viewBox="0 0 110.91 31.227">
  <defs>
    <linearGradient id="linear-gradient" x1="0.5" x2="0.5" y2="1" gradientUnits="objectBoundingBox">
      <stop offset="0" stop-color="#389bff"/>
      <stop offset="1" stop-color="#2358d0"/>
    </linearGradient>
    <linearGradient id="linear-gradient-2" x1="0.5" x2="0.5" y2="1" gradientUnits="objectBoundingBox">
      <stop offset="0" stop-color="#83bef8"/>
      <stop offset="1" stop-color="#1a81cc"/>
    </linearGradient>
  </defs>
  <g id="Group_22" data-name="Group 22" transform="translate(-212.417 -102.802)">
    <g id="Group_57104" data-name="Group 57104">
      <g id="Group_21" data-name="Group 21" transform="translate(212.417 102.802)">
        <g id="Group_20" data-name="Group 20" transform="translate(0 0)">
          <g id="Group_19" data-name="Group 19" transform="translate(0 0)">
            <g id="Group_6" data-name="Group 6" transform="translate(0 0)">
              <g id="Group_16" data-name="Group 16" transform="translate(0)">
                <g id="Group_4" data-name="Group 4">
                  <g id="Group_17" data-name="Group 17">
                    <g id="Group_2" data-name="Group 2">
                      <g id="Group_18" data-name="Group 18">
                        <path id="Path_2" data-name="Path 2" d="M456.231,307.741v12.022a2.153,2.153,0,0,1-.239-.142c-1.468-1.207-2.957-2.389-4.4-3.629a12.05,12.05,0,0,1-4.149-7.466,11.629,11.629,0,0,1-.133-1.737c-.014-2.614-.007-5.227-.007-7.841,0-.058.006-.115.011-.212.147-.008.284-.023.421-.023h9.656q4.347,0,8.694,0a14.7,14.7,0,0,1,6.772,1.56,15.086,15.086,0,0,1,7.788,9.161,15.239,15.239,0,0,1,.692,4.559,17.339,17.339,0,0,1-.394,4.138,15.128,15.128,0,0,1-3.622,6.891,14.9,14.9,0,0,1-11.172,4.916q-3.955.006-7.91,0c-.1,0-.209-.011-.338-.018V313.593a2.853,2.853,0,0,1,.244.16c1.432,1.176,2.868,2.346,4.29,3.534a11.812,11.812,0,0,1,2.775,3.36.5.5,0,0,0,.5.29,6.28,6.28,0,0,0,6.317-5.241,6.844,6.844,0,0,0-.66-4.636,6.062,6.062,0,0,0-5.508-3.329c-3.111-.042-6.224-.01-9.335-.009-.081,0-.161.01-.3.019" transform="translate(-447.305 -298.712)" fill="url(#linear-gradient)"/>
                      </g>
                    </g>
                  </g>
                </g>
              </g>
            </g>
            <g id="Group_12" data-name="Group 12" transform="translate(0 0.541)">
              <g id="Group_13" data-name="Group 13" transform="translate(0 0)">
                <g id="Group_10" data-name="Group 10">
                  <g id="Group_14" data-name="Group 14">
                    <g id="Group_8" data-name="Group 8">
                      <g id="Group_15" data-name="Group 15">
                        <path id="Path_4" data-name="Path 4" d="M157.967,224.727l.133.031c-.022.009-.033.018-.043.018q-4.4.006-8.792.016c-.184,0-.23-.042-.23-.225q.008-7.923,0-15.847v-.4c.124.1.22.167.313.243,1.435,1.181,2.88,2.349,4.3,3.547a11.074,11.074,0,0,1,2.844,3.535,16.878,16.878,0,0,1,.944,2.361,11.176,11.176,0,0,1,.409,1.993,19.549,19.549,0,0,1,.113,2.054c.018.885,0,1.77,0,2.675" transform="translate(-138.469 -194.107)" fill="url(#linear-gradient-2)"/>
                        <path id="Path_5" data-name="Path 5" d="M.788,7.176a13.485,13.485,0,0,0,8.878,8.569V27.714c-.249-.2-.47-.375-.687-.553C7.7,26.11,6.415,25.071,5.151,24A12.237,12.237,0,0,1,2.04,20.029,11.413,11.413,0,0,1,.985,16.821a13.11,13.11,0,0,1-.188-2c-.022-2.5-.008-5-.008-7.5v-.15" transform="translate(-0.784 -7.176)" fill="url(#linear-gradient-2)"/>
                      </g>
                    </g>
                  </g>
                </g>
              </g>
            </g>
          </g>
        </g>
      </g>
      <path id="Path_2450" data-name="Path 2450" d="M10.26.532a8.31,8.31,0,0,1-4.2-1.121A8.185,8.185,0,0,1,2.926-3.876,10.838,10.838,0,0,1,1.748-9.12v-.608a10.838,10.838,0,0,1,1.178-5.244,8.227,8.227,0,0,1,3.116-3.287A8.278,8.278,0,0,1,10.26-19.38a8.9,8.9,0,0,1,2.869.4,5.852,5.852,0,0,1,1.881,1.007,4.686,4.686,0,0,1,1.1,1.292H16.8V-26.6h4.788V0H16.872V-2.28h-.684A6.229,6.229,0,0,1,14.193-.342,7.269,7.269,0,0,1,10.26.532ZM11.7-3.648A5.11,5.11,0,0,0,15.39-5.073a5.509,5.509,0,0,0,1.482-4.161v-.38a5.55,5.55,0,0,0-1.463-4.161A5.093,5.093,0,0,0,11.7-15.2a5.11,5.11,0,0,0-3.686,1.425A5.509,5.509,0,0,0,6.536-9.614v.38A5.509,5.509,0,0,0,8.018-5.073,5.11,5.11,0,0,0,11.7-3.648ZM35.492.532a10.013,10.013,0,0,1-4.959-1.2,8.426,8.426,0,0,1-3.344-3.382,10.556,10.556,0,0,1-1.2-5.149v-.456A10.694,10.694,0,0,1,27.17-14.8a8.335,8.335,0,0,1,3.306-3.382,9.906,9.906,0,0,1,4.94-1.2,9.179,9.179,0,0,1,4.826,1.235,8.486,8.486,0,0,1,3.192,3.42,10.814,10.814,0,0,1,1.14,5.073v1.634H30.856A4.261,4.261,0,0,0,32.3-4.864a4.854,4.854,0,0,0,3.344,1.216,4.272,4.272,0,0,0,2.964-.874A6.151,6.151,0,0,0,40.052-6.46l3.914,2.052a12.142,12.142,0,0,1-1.539,2.147A8.334,8.334,0,0,1,39.748-.285,9.691,9.691,0,0,1,35.492.532Zm-4.6-12.122H39.71A3.759,3.759,0,0,0,38.4-14.212a4.5,4.5,0,0,0-3.021-.988,4.538,4.538,0,0,0-3.078.988A4.247,4.247,0,0,0,30.894-11.59ZM45.942,0l6.84-9.5-6.764-9.348h5.548l4.294,6.27h.684l4.294-6.27h5.548L59.622-9.5,66.462,0H60.838L56.544-6.346H55.86L51.566,0Z" transform="translate(256.865 131.415)" fill="#102d67"/>
    </g>
  </g>
</svg>
