<svg xmlns="http://www.w3.org/2000/svg" width="504.089" height="326.752" viewBox="0 0 504.089 326.752">
  <g id="Group_58391" data-name="Group 58391" transform="translate(-1189.028 -3375.955)">
    <g id="Group_58390" data-name="Group 58390" transform="translate(1189.028 3656.825)">
      <rect id="Rectangle_13319" data-name="Rectangle 13319" width="36.452" height="0.275" transform="translate(412.496 17.709)" fill="#a1c2d5"/>
      <rect id="Rectangle_13320" data-name="Rectangle 13320" width="21.121" height="0.275" transform="translate(398.37 7.495)" fill="#a1c2d5"/>
      <rect id="Rectangle_13321" data-name="Rectangle 13321" width="47.536" height="0.275" transform="translate(57.738 9.344)" fill="#ebebeb"/>
      <rect id="Rectangle_13322" data-name="Rectangle 13322" width="504.089" height="0.275" transform="translate(0)" fill="#a1c2d5"/>
    </g>
    <g id="Marketing-rafiki_2_" data-name="Marketing-rafiki (2)" transform="translate(1218.051 3375.955)">
      <g id="freepik--Shadow--inject-7" transform="translate(0 299.744)">
        <ellipse id="freepik--path--inject-7" cx="222.647" cy="13.504" rx="222.647" ry="13.504" transform="translate(0 0)" fill="#cfedff"/>
      </g>
      <g id="freepik--Podium--inject-7" transform="translate(97.021 121.607)">
        <rect id="Rectangle_13310" data-name="Rectangle 13310" width="274.648" height="90.567" transform="translate(0 89.482)" fill="#47b6fb"/>
        <rect id="Rectangle_13311" data-name="Rectangle 13311" width="274.648" height="90.555" transform="translate(0 89.494)" fill="#fff" opacity="0.2"/>
        <rect id="Rectangle_13312" data-name="Rectangle 13312" width="119.209" height="90.567" transform="translate(74.272)" fill="#009eff"/>
        <rect id="Rectangle_13313" data-name="Rectangle 13313" width="119.209" height="90.567" transform="translate(74.272)" fill="#fff" opacity="0.2"/>
        <path id="Path_49819" data-name="Path 49819" d="M261.476,270.27l-6.74,33.724h-7.814l5.5-27.437H245.67l1.253-6.263Z" transform="translate(-116.559 -244.562)" fill="#00415e"/>
      </g>
      <g id="freepik--character-2--inject-7" transform="translate(297.517 49.029)">
        <path id="Path_49820" data-name="Path 49820" d="M310.99,227.461l4.64,4.915,32.889-21.89,37.136,12.287L417.972,198.9l2.171,3.889,8.732-14.685L411.8,187.88l2.171,3.877-28.869,25.135-37.219-12.013Z" transform="translate(-304.453 -187.88)" fill="#00415e"/>
        <path id="Path_49821" data-name="Path 49821" d="M329.841,332.741l24.992-.907c-5.893-1.694-12.12-1.6-18.228-2.231a19.614,19.614,0,0,1-5.177-1.074c-1.575-.608-2.994-1.575-4.557-2.219a12.383,12.383,0,0,0-6.478-.811,5.964,5.964,0,0,0-2.028.6,5.63,5.63,0,0,0-2.517,3.137,12.324,12.324,0,0,0-.668,3.507h0v.525h0a19.528,19.528,0,0,0,1.646,7.611c5.8,14.041,52.763,2.052,52.763,2.052-1.646,9.209.811,16.152,2.493,25.374l4.4,24.288-4.7.513,1.9,6.8h4.139V332.741Z" transform="translate(-303.644 -161.353)" opacity="0.2"/>
        <path id="Path_49822" data-name="Path 49822" d="M368.128,392.77v7.611l-.191-.227-1.026-5.344a1.449,1.449,0,0,1,0-.227,1.945,1.945,0,0,1,1.217-1.813Z" transform="translate(-293.665 -148.351)" opacity="0.2"/>
        <g id="freepik--Character--inject-2--inject-7" transform="translate(0 46.465)">
          <path id="Path_49823" data-name="Path 49823" d="M386.34,390.995l7.36-.8.716-17.286-7.372.8Z" transform="translate(-289.915 -198.647)" fill="#ff8b7b"/>
          <path id="Path_49824" data-name="Path 49824" d="M394.66,384.816l-8.351-.1a.525.525,0,0,0-.573.465.107.107,0,0,0,0,.06l-.477,6.561a1.336,1.336,0,0,0,1.288,1.336c2.887,0,4.1-.167,7.742-.382,2.255-.143,7.611-.5,10.665-1.074s2.386-3.579,1.05-3.579c-3.185-.06-8.064-1.109-10.128-2.779A2.1,2.1,0,0,0,394.66,384.816Z" transform="translate(-290.124 -196.369)" fill="#263238"/>
          <path id="Path_49825" data-name="Path 49825" d="M386.984,373.721l7.372-.811-.346,8.327-7.36.549Z" transform="translate(-289.856 -198.647)" opacity="0.2"/>
          <path id="Path_49826" data-name="Path 49826" d="M347.1,309.64s56.068-2.768,59.778,18.121a396.777,396.777,0,0,1,1.062,59.062l-10.4,2s-8.112-36.241-7.277-54.052c-15.449-1.694-57.511,5.8-64.072-5.714-5.356-9.388-4.354-15.222-4.354-15.222Z" transform="translate(-302.375 -210.877)" fill="#00415e"/>
          <path id="Path_49827" data-name="Path 49827" d="M382.59,379.9l15.771-.74,1.086-5.917-17.476.6Z" transform="translate(-290.759 -198.583)" fill="#009eff"/>
          <path id="Path_49828" data-name="Path 49828" d="M397.056,385.83a.954.954,0,0,0,.227-.931.644.644,0,0,0-.406-.489c-.907-.382-3.006,1.038-3.233,1.193a.155.155,0,0,0-.083.107.167.167,0,0,0,.131.2,9.115,9.115,0,0,0,1.968.286,2.028,2.028,0,0,0,1.4-.37Zm-.286-1.109a.286.286,0,0,1,.167.251.6.6,0,0,1-.119.608c-.358.346-1.324.382-2.648.1C395.028,385.126,396.269,384.53,396.77,384.721Z" transform="translate(-288.523 -196.44)" fill="#009eff"/>
          <path id="Path_49829" data-name="Path 49829" d="M393.849,386.164c.74-.43,1.861-1.956,1.694-2.768a.644.644,0,0,0-.608-.525.883.883,0,0,0-.763.251c-.752.716-.62,2.839-.608,2.934a.167.167,0,0,0,.1.143h.084Zm.978-2.947c.263,0,.31.143.334.25.107.525-.632,1.682-1.288,2.219a3.829,3.829,0,0,1,.513-2.386.489.489,0,0,1,.382-.143Z" transform="translate(-288.525 -196.727)" fill="#009eff"/>
          <path id="Path_49830" data-name="Path 49830" d="M373.36,319.849s11.7-3.352,14.22,3.7-.429,41.431-3.913,49.125-9.889-51.606-9.889-51.606Z" transform="translate(-292.42 -209.038)" fill="#001a26" opacity="0.3"/>
          <path id="Path_49831" data-name="Path 49831" d="M373.629,395.606l7.146-.191-.549-17.345-7.146.179Z" transform="translate(-292.474 -197.651)" fill="#ff8b7b"/>
          <path id="Path_49832" data-name="Path 49832" d="M381.056,390.822l-8.291.525a.549.549,0,0,0-.525.549v6.573a1.312,1.312,0,0,0,1.384,1.193c2.875-.274,4.247-.5,7.9-.763a66.983,66.983,0,0,0,9.7-.931c3.018-.692,2.267-3.65.93-3.638a20.279,20.279,0,0,1-9.83-3.233,2.052,2.052,0,0,0-1.265-.274Z" transform="translate(-292.636 -195.193)" fill="#263238"/>
          <path id="Path_49833" data-name="Path 49833" d="M383.564,391.584a.931.931,0,0,0,.155-.942.668.668,0,0,0-.429-.465c-.931-.31-2.923,1.276-3.149,1.455a.226.226,0,0,0-.06.107.167.167,0,0,0,.143.191,8.473,8.473,0,0,0,1.98.131A1.885,1.885,0,0,0,383.564,391.584Zm-.382-1.074a.322.322,0,0,1,.215.227.632.632,0,0,1-.083.62c-.3.37-1.3.465-2.636.3.859-.608,2.052-1.3,2.541-1.145Z" transform="translate(-291.124 -195.323)" fill="#009eff"/>
          <path id="Path_49834" data-name="Path 49834" d="M380.431,392.175c.7-.489,1.706-2.135,1.479-2.887a.644.644,0,0,0-.656-.477.871.871,0,0,0-.752.286c-.692.763-.382,2.875-.382,2.97a.167.167,0,0,0,.107.131h.072a.167.167,0,0,0,.131-.024Zm.763-3.054c.25,0,.334.131.346.227.155.525-.513,1.73-1.121,2.314a3.722,3.722,0,0,1,.346-2.386.489.489,0,0,1,.346-.179Z" transform="translate(-291.129 -195.58)" fill="#009eff"/>
          <path id="Path_49835" data-name="Path 49835" d="M372.54,378.308l7.993-1.348L380.6,387.8l-7.014.811Z" transform="translate(-292.578 -197.865)" opacity="0.2"/>
          <path id="Path_49836" data-name="Path 49836" d="M337.259,311s55.364,4.128,56.068,20.28c4.08,26.244,1,60.839,1,60.839l-13.265,2.768s-6.812-32.388-7.79-56.2c-13.552,2.278-41.43,6.478-50.986-.3-8.625-7.79-6.239-23.811-6.239-23.811Z" transform="translate(-303.535 -210.591)" fill="#00415e"/>
          <path id="Path_49837" data-name="Path 49837" d="M369.647,386.358l16.212-1.372.334-7.086-17.763,1.837Z" transform="translate(-293.371 -197.684)" fill="#009eff"/>
          <path id="Path_49838" data-name="Path 49838" d="M337,271.132c.31,1.264.6,2.386.93,3.507s.68,2.231,1.062,3.388c.74,2.231,1.587,4.438,2.505,6.68a55.281,55.281,0,0,0,7.432,13.051,25.733,25.733,0,0,0,2.935,3.1,15.868,15.868,0,0,0,4,2.624,17.417,17.417,0,0,0,8.9,1.443,24.777,24.777,0,0,0,7.718-2.076,30.815,30.815,0,0,0,3.352-1.742,16.255,16.255,0,0,0,1.575-1.038c.5-.394.978-.728,1.563-1.193l-2.863-4.772-1.42.429-1.491.406c-1.014.25-2,.477-3.03.644a21.47,21.47,0,0,1-5.595.286,9.114,9.114,0,0,1-4.211-1.372,8.524,8.524,0,0,1-1.515-1.264,19.084,19.084,0,0,1-1.563-1.956A34.957,34.957,0,0,1,354.4,286.2c-.907-1.837-1.706-3.77-2.469-5.762s-1.455-4.008-2.147-6.036l-.978-3.078c-.31-1.014-.644-2.1-.895-2.982Z" transform="translate(-299.435 -218.821)" fill="#ff8b7b"/>
          <path id="Path_49839" data-name="Path 49839" d="M336.42,266.042c4.462-6.06,11.6-4.116,15.866,5.177a91.522,91.522,0,0,1,5.7,15.377l-16.367,6.311C336.98,284.175,331.827,272.269,336.42,266.042Z" transform="translate(-299.892 -219.936)" fill="#009eff"/>
          <path id="Path_49840" data-name="Path 49840" d="M336.42,266.042c4.462-6.06,11.6-4.116,15.866,5.177a91.522,91.522,0,0,1,5.7,15.377l-16.367,6.311C336.98,284.175,331.827,272.269,336.42,266.042Z" transform="translate(-299.892 -219.936)" opacity="0.1"/>
          <path id="Path_49841" data-name="Path 49841" d="M343.016,273.605c-1.4-.883-4.02,4.581-5.106,10.975.978,2.183,2.028,4.271,3.066,6.215l9.842-3.817C348.992,281.085,346.141,275.6,343.016,273.605Z" transform="translate(-299.259 -217.824)" opacity="0.3"/>
          <path id="Path_49842" data-name="Path 49842" d="M370.83,288.218l3.579-2.088,1.527,8.052s-5.965,3.829-7.766.871l.119-2.088A6.621,6.621,0,0,1,370.83,288.218Z" transform="translate(-293.421 -215.389)" fill="#ff8b7b"/>
          <path id="Path_49843" data-name="Path 49843" d="M377.917,285.68l3.376,6.394-6.418,2.2-1.515-8.052Z" transform="translate(-292.42 -215.476)" fill="#ff8b7b"/>
          <path id="Path_49844" data-name="Path 49844" d="M340.266,261.2l-8.518-.919-10.486,1.253a7.348,7.348,0,0,0-6.406,6.215,188.271,188.271,0,0,0-1.4,23.31c-.1,8.78,1.288,21.711,3.078,33.4l35.132-5.392c-.632-30.778,1.384-40.393,1.42-48.564a7.349,7.349,0,0,0-5.32-7.086Z" transform="translate(-303.977 -220.376)" fill="#009eff"/>
          <path id="Path_49845" data-name="Path 49845" d="M340.266,261.2l-8.518-.919-10.486,1.253a7.348,7.348,0,0,0-6.406,6.215,188.271,188.271,0,0,0-1.4,23.31c-.1,8.78,1.288,21.711,3.078,33.4l35.132-5.392c-.632-30.778,1.384-40.393,1.42-48.564a7.349,7.349,0,0,0-5.32-7.086Z" transform="translate(-303.977 -220.376)" fill="#009eff"/>
          <path id="Path_49846" data-name="Path 49846" d="M318.35,264.015c7-1.455,7.158,14.53,4.33,26.316-.823,3.412-4.879,2.123-6.251,1.288C311.908,288.888,309.773,269.407,318.35,264.015Z" transform="translate(-304.166 -219.674)" opacity="0.3"/>
          <path id="Path_49847" data-name="Path 49847" d="M319.293,284.435c.489,6.907-1.587,10.593,2.159,12.776s25.755,8.72,26.244,7.8c-1,1.694-1.98,3.149-2.982,4.855q-9.448-1.109-18.908-2c-4.6-.441-12.037-1.384-15.723-4.175-3.34-2.529-3.126-14.088-2.839-22.415C310.131,279.472,319.293,284.435,319.293,284.435Z" transform="translate(-305.204 -216.402)" fill="#ff8b7b"/>
          <path id="Path_49848" data-name="Path 49848" d="M316.831,261.807c7.158-2.386,10.08,3.352,8.2,13.361a89.744,89.744,0,0,1-4.247,15.842l-15.269-4.295C306.882,276.91,309.542,264.217,316.831,261.807Z" transform="translate(-305.51 -220.186)" fill="#009eff"/>
          <path id="Path_49849" data-name="Path 49849" d="M323.825,262.04a6.263,6.263,0,0,0,1.193,4.306,18.835,18.835,0,0,0,3.209,3.257c1.479,1.265,3.221,2.613,5.142,2.29s2.756-1.193,3.4-3.352c1.6,2.386,1.718,3.579,3.388,3.722A3.758,3.758,0,0,0,342.9,270.7a6.048,6.048,0,0,0,2.052-4.139c.3-3.114-2.314-5.965-5.273-6.907a36.741,36.741,0,0,0-9.269-1.539C327.7,257.888,324.278,258.855,323.825,262.04Z" transform="translate(-301.982 -220.8)" fill="#00415e"/>
          <path id="Path_49850" data-name="Path 49850" d="M330.094,248.72l3.961,4.306,5.4,5.845a6.431,6.431,0,0,0-1,2.171,3.662,3.662,0,0,0,1.587,4.557c.811.346,1.336,4.485-3.9,4.223a10.892,10.892,0,0,1-8-3.34c-1-1.265-1.276-1.944-.334-3.376C330.536,259.051,330.536,253.289,330.094,248.72Z" transform="translate(-301.321 -222.607)" fill="#ff8b7b"/>
          <path id="Path_49851" data-name="Path 49851" d="M337.006,256.687l-3.424-4.247a1.478,1.478,0,0,1-.119.418,12.571,12.571,0,0,0-.262,1.885c-.131,2.159,1.98,4.855,3.984,5.965l.143-.441a8.174,8.174,0,0,1,.907-2.064.239.239,0,0,1,.1-.1Z" transform="translate(-300.169 -221.889)" opacity="0.2"/>
          <path id="Path_49852" data-name="Path 49852" d="M340.38,249.741c3.161-6.167,2.493-9.663,5.535-12.943,1.634-.728,4.5,2.29,2.589,7.42S340.38,249.741,340.38,249.741Z" transform="translate(-298.783 -224.928)" fill="#263238"/>
          <path id="Path_49853" data-name="Path 49853" d="M329.755,243.441c-.37,7.158-.895,11.321,2.3,15.269,4.772,5.965,13.957,3.579,16.427-3.412,2.219-6.239,2.386-16.892-4.271-20.351a9.925,9.925,0,0,0-13.373,4.318A9.781,9.781,0,0,0,329.755,243.441Z" transform="translate(-300.886 -225.475)" fill="#ff8b7b"/>
          <path id="Path_49854" data-name="Path 49854" d="M329.731,249.544l5.833,2.3-1.467-6.263,3.173-1.813,3.877-5.8s-8.351-2.457-10.891-2.791c-.883-.119-3.949,2.267-4.4,3.269a8.207,8.207,0,0,0,1.348,8.541A18.261,18.261,0,0,0,329.731,249.544Z" transform="translate(-301.709 -225.22)" fill="#263238"/>
          <path id="Path_49855" data-name="Path 49855" d="M332.252,229.49c1.837-.895,4.068.227,6.024.823a49.97,49.97,0,0,0,5.869,1.694,7.4,7.4,0,0,0,5.142-.632,3.638,3.638,0,0,0,1.563-4.545,7.587,7.587,0,0,1,1.05,12.478,10.283,10.283,0,0,1-6.358,2.04,30.465,30.465,0,0,1-6.716-.93c-2.947-.632-7.158-.728-9.9-2.076S326.645,232.2,332.252,229.49Z" transform="translate(-301.308 -226.83)" fill="#263238"/>
          <path id="Path_49856" data-name="Path 49856" d="M326.774,246.725a6.562,6.562,0,0,0,2.171,4.116c1.575,1.336,3.388-.239,3.579-2.267.119-1.813-.871-4.426-2.732-4.986S326.536,244.745,326.774,246.725Z" transform="translate(-301.413 -223.618)" fill="#ff8b7b"/>
          <path id="Path_49857" data-name="Path 49857" d="M338.793,245.342c-.084.6.143,1.133.537,1.193s.716-.346.847-.93a.966.966,0,0,0-.525-1.193C339.258,244.34,338.888,244.757,338.793,245.342Z" transform="translate(-299.092 -223.44)" fill="#263238"/>
          <path id="Path_49858" data-name="Path 49858" d="M344.353,246.38c-.1.6.143,1.193.525,1.193a.979.979,0,0,0,.859-.919c.1-.573-.155-1.133-.537-1.193S344.437,245.795,344.353,246.38Z" transform="translate(-298.02 -223.237)" fill="#263238"/>
          <path id="Path_49859" data-name="Path 49859" d="M342.678,246.27a19.254,19.254,0,0,0,1.408,4.843,2.875,2.875,0,0,1-2.445-.167Z" transform="translate(-298.539 -223.079)" fill="#ff5652"/>
          <path id="Path_49860" data-name="Path 49860" d="M341.317,253.391a5.106,5.106,0,0,1-3.424-2.135.2.2,0,0,1,.3-.239,4.9,4.9,0,0,0,3.829,2.04.179.179,0,0,1,.012.358h0A6.455,6.455,0,0,1,341.317,253.391Z" transform="translate(-299.267 -222.172)" fill="#263238"/>
          <path id="Path_49861" data-name="Path 49861" d="M338.04,243.5a.6.6,0,0,1-.143-.1.358.358,0,0,1,0-.5,3.328,3.328,0,0,1,3.042-.835.346.346,0,0,1,.251.418h0a.346.346,0,0,1-.441.239,2.7,2.7,0,0,0-2.386.68A.334.334,0,0,1,338.04,243.5Z" transform="translate(-299.281 -223.907)" fill="#263238"/>
          <path id="Path_49862" data-name="Path 49862" d="M344.872,243.071a.381.381,0,0,1,0-.167.358.358,0,0,1,.429-.262,3.34,3.34,0,0,1,2.386,2.028.358.358,0,0,1-.668.227,2.66,2.66,0,0,0-1.921-1.575A.358.358,0,0,1,344.872,243.071Z" transform="translate(-297.918 -223.781)" fill="#263238"/>
        </g>
        <path id="Path_49863" data-name="Path 49863" d="M361.065,321.985l47.9-6.263a.907.907,0,0,0,.787-1.014h0a.919.919,0,0,0-1.014-.787l-47.908,6.263a.918.918,0,0,0-.775,1.026h0a.895.895,0,0,0,1.014.775Z" transform="translate(-294.989 -163.564)" fill="#009eff"/>
        <path id="Path_49864" data-name="Path 49864" d="M361.065,321.985l47.9-6.263a.907.907,0,0,0,.787-1.014h0a.919.919,0,0,0-1.014-.787l-47.908,6.263a.918.918,0,0,0-.775,1.026h0a.895.895,0,0,0,1.014.775Z" transform="translate(-294.989 -163.564)" opacity="0.5"/>
        <path id="Path_49865" data-name="Path 49865" d="M341.255,320.743l23.238.286a.895.895,0,0,0,.919-.895h0a.907.907,0,0,0-.895-.919l-23.238-.286a.919.919,0,0,0-.919.895h0a.895.895,0,0,0,.895.919Z" transform="translate(-298.786 -162.596)" fill="#009eff"/>
        <path id="Path_49866" data-name="Path 49866" d="M341.255,320.743l23.238.286a.895.895,0,0,0,.919-.895h0a.907.907,0,0,0-.895-.919l-23.238-.286a.919.919,0,0,0-.919.895h0a.895.895,0,0,0,.895.919Z" transform="translate(-298.786 -162.596)" fill="#fff" opacity="0.5"/>
        <path id="Path_49867" data-name="Path 49867" d="M365.983,320.5l-25.588-.2s-.859-.5.859-.835,23.93-3.269,23.93-3.269Z" transform="translate(-298.821 -163.125)" fill="#009eff"/>
        <path id="Path_49868" data-name="Path 49868" d="M365.885,320.5l-24.98-.274s-.859-.513.859-.835,23.322-3.2,23.322-3.2Z" transform="translate(-298.723 -163.125)" fill="#009eff"/>
        <path id="Path_49869" data-name="Path 49869" d="M365.885,320.5l-24.98-.274s-.859-.513.859-.835,23.322-3.2,23.322-3.2Z" transform="translate(-298.723 -163.125)" fill="#fff" opacity="0.2"/>
        <path id="Path_49870" data-name="Path 49870" d="M362.443,324.586l44.663-5.845a3.233,3.233,0,0,0,2.744-3.269l-.978-22.88a2.624,2.624,0,0,0-2.994-2.517l-44.663,5.881a3.233,3.233,0,0,0-2.744,3.281l.978,22.868a2.612,2.612,0,0,0,2.994,2.481Z" transform="translate(-295.293 -168.169)" fill="#009eff"/>
        <path id="Path_49871" data-name="Path 49871" d="M362.443,324.586l44.663-5.845a3.233,3.233,0,0,0,2.744-3.269l-.978-22.88a2.624,2.624,0,0,0-2.994-2.517l-44.663,5.881a3.233,3.233,0,0,0-2.744,3.281l.978,22.868a2.612,2.612,0,0,0,2.994,2.481Z" transform="translate(-295.293 -168.169)" opacity="0.4"/>
        <path id="Path_49872" data-name="Path 49872" d="M363.533,324.384,408.2,318.55a3.245,3.245,0,0,0,2.744-3.281l-.978-22.857a2.625,2.625,0,0,0-2.994-2.529L362.3,295.73A3.221,3.221,0,0,0,359.56,299l.978,22.88a2.612,2.612,0,0,0,2.994,2.505Z" transform="translate(-295.082 -168.205)" fill="#009eff"/>
        <path id="Path_49873" data-name="Path 49873" d="M363.533,324.384,408.2,318.55a3.245,3.245,0,0,0,2.744-3.281l-.978-22.857a2.625,2.625,0,0,0-2.994-2.529L362.3,295.73A3.221,3.221,0,0,0,359.56,299l.978,22.88a2.612,2.612,0,0,0,2.994,2.505Z" transform="translate(-295.082 -168.205)" fill="#fff" opacity="0.2"/>
        <path id="Path_49874" data-name="Path 49874" d="M348.964,274.583c-4.879-1.026-9.985,3.686-11.4,10.5s1.384,13.182,6.263,14.2,10-3.686,11.416-10.51S353.855,275.6,348.964,274.583Zm-4.211,23.537c-3.113-.644-4.6-6.12-3.34-12.228s4.772-10.534,7.945-9.889,4.617,6.132,3.352,12.239S347.879,298.763,344.753,298.119Z" transform="translate(-299.398 -171.18)" fill="#00415e"/>
        <path id="Path_49875" data-name="Path 49875" d="M352.089,287.99c-1.264,6.108-4.772,10.534-7.933,9.877s-4.617-6.12-3.352-12.228,4.772-10.534,7.945-9.889S353.365,281.894,352.089,287.99Z" transform="translate(-298.789 -170.939)" fill="#fff" opacity="0.5"/>
        <path id="Path_49876" data-name="Path 49876" d="M342.237,294.78,337,311.29s.274,2.04,2.672,1.026,4.151-16.963,4.151-16.963Z" transform="translate(-299.435 -167.256)" fill="#263238"/>
        <path id="Path_49877" data-name="Path 49877" d="M337.8,298.753l3.686-1.193v9.15s-8,2.159-8.625-1.539l.966-2.028C334.614,301.365,335.795,299.278,337.8,298.753Z" transform="translate(-300.233 -166.719)" fill="#ff8b7b"/>
        <path id="Path_49878" data-name="Path 49878" d="M345.75,299.912l-.931,5.165-4.76,1.622.048-9.15Z" transform="translate(-298.844 -166.721)" fill="#ff8b7b"/>
        <path id="Path_49879" data-name="Path 49879" d="M375.774,259.822l-.036.012-.048-.012.048-.012Z" transform="translate(-291.97 -174.003)" fill="#f0f0f0"/>
      </g>
      <g id="freepik--character-1--inject-7" transform="translate(21.091 0)">
        <g id="freepik--group--inject-7" transform="translate(2.054 13.042)">
          <path id="Path_49880" data-name="Path 49880" d="M145.559,172.551c.37-.072.775.322.895.883s-.072,1.109-.453,1.193-.775-.322-.895-.895S145.177,172.623,145.559,172.551Z" transform="translate(-62.092 -154.852)" fill="#263238"/>
          <path id="Path_49881" data-name="Path 49881" d="M146.645,179.752a3.364,3.364,0,0,0,2.624-1.1,20.518,20.518,0,0,1-3.77-4.295Z" transform="translate(-62.009 -154.501)" fill="#b74d3c"/>
          <path id="Path_49882" data-name="Path 49882" d="M143.093,171.474a2.72,2.72,0,0,1,2.278-.99h.119a.346.346,0,0,0,0-.692,3.376,3.376,0,0,0-2.887,1.193.382.382,0,0,0-.084.227.37.37,0,0,0,.346.358.43.43,0,0,0,.227-.1Z" transform="translate(-62.584 -155.385)" fill="#263238"/>
          <path id="Path_49883" data-name="Path 49883" d="M141.643,203.3c-9.83.107-11.333-5.237-11.333-5.237,2.923-2.863,3.066-8.112,2.445-12.788a10.415,10.415,0,0,0,2.923,2.791,8.923,8.923,0,0,0,7.158,1.288.2.2,0,0,0,.119,0,2.377,2.377,0,0,0,0,.286c-.585,3.746-.06,7.754,3.865,8.935C146.808,198.535,152.475,203.176,141.643,203.3Z" transform="translate(-64.94 -152.396)" fill="#b25b52"/>
          <path id="Path_49884" data-name="Path 49884" d="M142.958,188.488c-.107.453-.2.907-.274,1.384a.2.2,0,0,1-.119,0,8.923,8.923,0,0,1-7.158-1.288,10.415,10.415,0,0,1-2.923-2.791c-.155-1.193-.37-2.386-.585-3.412l10.736,5.857Z" transform="translate(-64.633 -152.954)" fill="#b25b52"/>
          <path id="Path_49885" data-name="Path 49885" d="M127.8,197.866s1.551-4.772,3.9-6.311,12.633.06,14.244.692,3.245,4.342,3.245,4.342Z" transform="translate(-65.424 -151.309)" fill="#009eff"/>
          <path id="Path_49886" data-name="Path 49886" d="M130.359,215.606a5.487,5.487,0,0,0,2.195-10.736h0c-4.414-.954-8.959-2.076-13.385-3.209s-5.965-1.193-10.128-2.648c-1.062-.346-2.088-.752-3.1-1.193l-.561-.215a1.193,1.193,0,0,1-.262-.107,4.771,4.771,0,0,1-.763-.525c-1.4-1.276-10.736-13.432-12.514-17.56l-.06-.131a2.732,2.732,0,0,0-5.225,1.432c.561,5.01,9.746,21.926,11.619,24.085a14.554,14.554,0,0,0,1.968,1.766,13.241,13.241,0,0,0,2.219,1.336c1.193.561,9.138,2.947,13.862,4.318s9.317,2.493,14.184,3.412Z" transform="translate(-73.387 -153.875)" fill="#b25b52"/>
          <path id="Path_49887" data-name="Path 49887" d="M91.459,178.6v.954a2.219,2.219,0,0,1-1.312,2.2,10.737,10.737,0,0,1-5.3.668l1.467-8.231,4.044,2.624a2.29,2.29,0,0,1,1.1,1.789Z" transform="translate(-73.71 -154.534)" fill="#b25b52"/>
          <path id="Path_49888" data-name="Path 49888" d="M87.252,174.564l-1.467,8.231-5.476-3.233-.119-7.432Z" transform="translate(-74.609 -154.932)" fill="#b25b52"/>
          <path id="Path_49889" data-name="Path 49889" d="M127.586,195.46c-2.111.31-10.462,2.1-17.393.143l-.453,14.16s12.037,5.965,17.488,1.658S136.1,199.349,127.586,195.46Z" transform="translate(-68.908 -150.43)" fill="#00415e"/>
          <path id="Path_49890" data-name="Path 49890" d="M112.58,213.693l-5.44-2.446L108.7,194.32l5.07.919Z" transform="translate(-69.41 -150.65)" fill="#009eff"/>
          <path id="Path_49891" data-name="Path 49891" d="M154.195,195.131c-1.587-.262-3.376-.5-5.189-.656a145.538,145.538,0,0,0-16.45.179l-3.579.346c-5.726.418-11.488,5.392-10.343,11.023,6.358,31.016,4.545,48.29,3.961,53.336l38.687-.418c4.008-31.851,2.9-47.908,1.336-55.71a10.247,10.247,0,0,0-8.422-8.1Z" transform="translate(-67.221 -150.65)" fill="#00415e"/>
          <path id="Path_49892" data-name="Path 49892" d="M157.547,245.841l-1.193,11.237c2.469-19.946,2.97-33.688,2.613-43.1l-14.7-9.818C150.867,224.977,153.026,231.55,157.547,245.841Z" transform="translate(-62.246 -148.752)" opacity="0.2"/>
          <path id="Path_49893" data-name="Path 49893" d="M150.619,183.743a9.949,9.949,0,0,1-4.772,8.351h-.084a8.053,8.053,0,0,1-2.386,1.026.2.2,0,0,1-.119,0,8.923,8.923,0,0,1-7.158-1.288,10.415,10.415,0,0,1-2.923-2.791c-1.933-2.636-2.732-6.167-4.116-11.13a10.008,10.008,0,0,1-.239-4.485,9.818,9.818,0,0,1,11.4-7.909C147.589,166.911,150.774,177.111,150.619,183.743Z" transform="translate(-65.255 -156.238)" fill="#b25b52"/>
          <path id="Path_49894" data-name="Path 49894" d="M143.386,188.342A8.053,8.053,0,0,1,141,189.368l.274-4.378S142.837,188.354,143.386,188.342Z" transform="translate(-62.877 -152.45)" opacity="0.2"/>
          <path id="Path_49895" data-name="Path 49895" d="M144.992,179.344a10.856,10.856,0,0,1-4.39,7.778,2.97,2.97,0,0,1-1.05.513c-1.193.286-2.386-.787-2.994-1.944a11.8,11.8,0,0,1-.954-4.855c-.143-3.925.346-8.219,3.1-11.011a3.722,3.722,0,0,1,2.386-1.265C144.6,168.429,145.242,177.1,144.992,179.344Z" transform="translate(-63.923 -155.621)" fill="#263238"/>
          <path id="Path_49896" data-name="Path 49896" d="M132.376,163.779a3.865,3.865,0,0,0-4.533,5.654c-3.114.966-6.048,3.3-6.668,6.5s2.028,6.931,5.273,6.561a2.7,2.7,0,0,0,2.457,4.688c2.529,4.2,10.4,5.118,14.208,2.016.895-.728.251-1.491.441-2.624a2.672,2.672,0,0,0-1.4-2.9l.823-2.851-2.386-2.672c2.171-1.682,4.45-3.5,5.392-6.072s-.143-6.1-2.815-6.728a2.947,2.947,0,0,0,1.933-4.163,3.006,3.006,0,0,0-4.557-.477c-.752-1.038-1.36-2.171-2.636-2.517C132.913,156.813,131.541,162.181,132.376,163.779Z" transform="translate(-66.72 -157.663)" fill="#263238"/>
          <path id="Path_49897" data-name="Path 49897" d="M142.474,173.259c2.076.608,3.149,3.65,3.233,5.595.107,2.135-1.324,3.483-3.185,2.052a8.064,8.064,0,0,1-2.851-4.366C139.122,174.452,140.375,172.662,142.474,173.259Z" transform="translate(-63.159 -154.736)" fill="#b25b52"/>
          <path id="Path_49898" data-name="Path 49898" d="M138.945,402.935a.179.179,0,0,1-.155-.143.191.191,0,0,1,.083-.191c.143-.06,2.791-1.646,4.08-1.324a.9.9,0,0,1,.6.418.668.668,0,0,1,0,.787c-.31.453-1.193.608-2.243.632a13.315,13.315,0,0,1-2.362-.179Zm3.579-1.36a8.147,8.147,0,0,0-3.006,1.05c1.443.167,3.388.119,3.734-.382.072-.072.119-.179,0-.406a.537.537,0,0,0-.37-.25,1.111,1.111,0,0,0-.346,0Z" transform="translate(-63.304 -110.73)" fill="#009eff"/>
          <path id="Path_49899" data-name="Path 49899" d="M138.875,403.193a.215.215,0,0,1-.1-.167,4.939,4.939,0,0,1,1.121-2.982,1.348,1.348,0,0,1,1.026-.322c.5,0,.68.286.692.489.167.895-1.622,2.565-2.553,2.994h-.024a.214.214,0,0,1-.167-.012Zm1.933-3.125a.954.954,0,0,0-.632.274,4.306,4.306,0,0,0-.966,2.386c.942-.6,2.147-1.921,2.052-2.445,0,0,0-.2-.37-.2h-.1Z" transform="translate(-63.306 -111.024)" fill="#009eff"/>
          <path id="Path_49900" data-name="Path 49900" d="M132.182,387.813l7.647-.143-.274,17.691-7.694.155Z" transform="translate(-64.641 -113.347)" fill="#b25b52"/>
          <path id="Path_49901" data-name="Path 49901" d="M141.809,402.3c5.3,3.1,6.919,3.221,12.991,4.426,1.324.262.561,3.483-2.613,3.579-5.237.1-5.8-.143-10.259,0-3.829.072-8.219.334-11.261.441h-.274a1.109,1.109,0,0,1-.859-1.324l1.348-6.871a.68.68,0,0,1,.644-.537l8.41-.167A3.579,3.579,0,0,1,141.809,402.3Z" transform="translate(-65.094 -110.612)" fill="#263238"/>
          <path id="Path_49902" data-name="Path 49902" d="M132.145,387.823l-.155,9.09,7.682-.143.131-9.09Z" transform="translate(-64.616 -113.345)" opacity="0.2"/>
          <path id="Path_49903" data-name="Path 49903" d="M85.338,404.4a.179.179,0,0,1-.334,0c-.072-.131-1.6-2.792-1.193-4.068a.954.954,0,0,1,.418-.585.7.7,0,0,1,.811,0c.441.31.573,1.193.573,2.243a13.2,13.2,0,0,1-.274,2.41Zm-1.276-3.579a8.076,8.076,0,0,0,.954,2.994c.2-1.432.191-3.364-.31-3.722,0-.072-.167-.119-.394,0a.525.525,0,0,0-.262.37,1.192,1.192,0,0,0,0,.346Z" transform="translate(-73.924 -111.041)" fill="#009eff"/>
          <path id="Path_49904" data-name="Path 49904" d="M85.628,404.147a.167.167,0,0,1-.167.072,4.843,4.843,0,0,1-2.958-1.193,1.253,1.253,0,0,1-.31-1.014c0-.5.3-.68.5-.68.883-.155,2.541,1.658,2.958,2.577v.072a.167.167,0,0,1-.024.167Zm-3.114-1.956a1.038,1.038,0,0,0,.262.632,4.247,4.247,0,0,0,2.386.978c-.573-.942-1.873-2.171-2.386-2.076,0,0-.2,0-.2.358v.107Z" transform="translate(-74.226 -110.714)" fill="#009eff"/>
          <path id="Path_49905" data-name="Path 49905" d="M89.072,388.61l7.468.382L92.507,406.91l-7.527-.382Z" transform="translate(-73.685 -113.166)" fill="#b25b52"/>
          <path id="Path_49906" data-name="Path 49906" d="M84.993,403.1c-2.016,2.386-3.078,3.686-8.959,5.655-1.3.429-.131,3.519,3.03,3.173,5.213-.561,2.386-.489,6.776-.978,3.805-.406,8.2-.7,11.225-.978a.952.952,0,0,0,.31,0,1.121,1.121,0,0,0,.7-1.42L95.9,401.914a.656.656,0,0,0-.7-.453l-8.351.895a2.625,2.625,0,0,0-1.849.74Z" transform="translate(-75.512 -110.688)" fill="#263238"/>
          <path id="Path_49907" data-name="Path 49907" d="M88.738,388.62l-2.088,9.2,7.492.394,2.076-9.221Z" transform="translate(-73.363 -113.164)" opacity="0.2"/>
          <path id="Path_49908" data-name="Path 49908" d="M128.957,248.959a79.531,79.531,0,0,0-6.788,14.4c-3.865,11.178-2.29,16.952-3.507,24.479-2.135,13.277-5.535,23.489-7.861,33.569-7.253,31.553-25.481,98.2-25.481,98.2l13.552,2.684s26.34-77.54,32.973-100.135c5.965-20.339,21.294-73.747,21.294-73.747Z" transform="translate(-73.62 -140.215)" fill="#009eff"/>
          <path id="Path_49909" data-name="Path 49909" d="M128.957,248.959a79.531,79.531,0,0,0-6.788,14.4c-3.865,11.178-2.29,16.952-3.507,24.479-2.135,13.277-5.535,23.489-7.861,33.569-7.253,31.553-25.481,98.2-25.481,98.2l13.552,2.684s26.34-77.54,32.973-100.135c5.965-20.339,21.294-73.747,21.294-73.747Z" transform="translate(-73.62 -140.215)" fill="#009eff"/>
          <path id="Path_49910" data-name="Path 49910" d="M84,389.85v4.772l16.3,1.42s1.324-5.273,1.264-5.273Z" transform="translate(-73.874 -112.927)" fill="#009eff"/>
          <path id="Path_49911" data-name="Path 49911" d="M138.607,269.019c-4.772,16.773-10.939,37.995-14.208,49.125-.155.537-.322,1.1-.489,1.694.99-18.514,3.972-49.554,13.23-50.89a3.387,3.387,0,0,1,1.467.072Z" transform="translate(-66.175 -136.262)" opacity="0.3"/>
          <path id="Path_49912" data-name="Path 49912" d="M132.789,248.615S129.9,299.6,129.95,323.687c.06,22.439.37,98.357.37,98.357l13.015-.251s7.515-77.445,9.341-100.278c1.742-21.616,6.358-73,6.358-73Z" transform="translate(-65.009 -140.194)" fill="#009eff"/>
          <path id="Path_49913" data-name="Path 49913" d="M132.789,248.615S129.9,299.6,129.95,323.687c.06,22.439.37,98.357.37,98.357l13.015-.251s7.515-77.445,9.341-100.278c1.742-21.616,6.358-73,6.358-73Z" transform="translate(-65.009 -140.194)" fill="#009eff"/>
          <path id="Path_49914" data-name="Path 49914" d="M128.57,390.335l.537,4.772,15.818-.31s.632-5.356.573-5.356Z" transform="translate(-65.275 -113.006)" fill="#009eff"/>
          <path id="Path_49915" data-name="Path 49915" d="M172.22,185.182l3.949-2.732c.907,4.295,4.986,7.647,8.088,9.639,1.479.954,2.028,3.125.978,3.853l-2.565,1.789C179.557,199.879,172.22,185.182,172.22,185.182Z" transform="translate(-56.854 -152.941)" fill="#009eff"/>
          <path id="Path_49916" data-name="Path 49916" d="M172.557,188.577,181.6,182.3a6.5,6.5,0,0,0,1.646-9.031h0a6.525,6.525,0,0,0-9.042-1.646l-9.042,6.275a6.5,6.5,0,0,0-1.634,9.03h0a6.5,6.5,0,0,0,9.03,1.646Z" transform="translate(-58.754 -155.25)" fill="#009eff"/>
          <path id="Path_49917" data-name="Path 49917" d="M172.557,188.577,181.6,182.3a6.5,6.5,0,0,0,1.646-9.031h0a6.525,6.525,0,0,0-9.042-1.646l-9.042,6.275a6.5,6.5,0,0,0-1.634,9.03h0a6.5,6.5,0,0,0,9.03,1.646Z" transform="translate(-58.754 -155.25)" opacity="0.3"/>
          <path id="Path_49918" data-name="Path 49918" d="M198.921,181.265l-16.964,7.158c-1.336.93-13.337-16.379-11.929-17.309l12.645-13.373Z" transform="translate(-57.299 -157.708)" fill="#009eff"/>
          <path id="Path_49919" data-name="Path 49919" d="M187.494,170.366c4.509,6.49,8.708,11.381,9.388,10.9s-2.386-6.12-6.919-12.621-8.708-11.381-9.388-10.9S183,163.865,187.494,170.366Z" transform="translate(-55.26 -157.713)" fill="#009eff"/>
          <path id="Path_49920" data-name="Path 49920" d="M187.494,170.366c4.509,6.49,8.708,11.381,9.388,10.9s-2.386-6.12-6.919-12.621-8.708-11.381-9.388-10.9S183,163.865,187.494,170.366Z" transform="translate(-55.26 -157.713)" opacity="0.3"/>
          <path id="Path_49921" data-name="Path 49921" d="M190.532,166.843c-1.1-1.587-3.412-2.147-4.163-1.622s-.477,2.243.62,3.829,2.613,2.386,3.364,1.921a3.269,3.269,0,0,0,.179-4.128Z" transform="translate(-54.206 -156.301)" fill="#009eff"/>
          <path id="Path_49922" data-name="Path 49922" d="M171.16,193.026l1.193-3.364a10.593,10.593,0,0,1,3.937-5.118l2.529-1.754a1.1,1.1,0,0,1,1.515.274,18.24,18.24,0,0,1,3.34,7.826,2.04,2.04,0,0,1-.835,1.837l-5.44,3.65c-.859.668-1.873,1-2.648.239Z" transform="translate(-57.059 -152.912)" fill="#b25b52"/>
          <path id="Path_49923" data-name="Path 49923" d="M180.5,193.032,176.6,209.4c-.119.537-.262,1.05-.394,1.563-3.292,12.216-9.639,18.705-12.55,17.2s-9.317-8.661-9.317-8.661l7.241-5.714,2.076,1.742,11.333-24.479,1.61-3.412S181.682,187.6,180.5,193.032Z" transform="translate(-60.304 -151.939)" fill="#b25b52"/>
          <path id="Path_49924" data-name="Path 49924" d="M173.06,205.88l-.37,1.575h0C172.785,206.93,172.929,206.417,173.06,205.88Z" transform="translate(-56.763 -148.42)" fill="#b25b52"/>
          <path id="Path_49925" data-name="Path 49925" d="M157.109,198.437c6.633,5.428,10.736,16.975,10.736,16.975l-10.736,6.812s-14.077-9.985-12.979-19.469C144.917,195.491,148.914,191.709,157.109,198.437Z" transform="translate(-62.285 -150.533)" fill="#00415e"/>
          <path id="Path_49926" data-name="Path 49926" d="M149.8,217.51l3.794,4.032,14.768-9.5-2.29-4.676Z" transform="translate(-61.18 -148.133)" fill="#009eff"/>
        </g>
        <path id="Path_49927" data-name="Path 49927" d="M196.29,165.223l7.694-18.443,6.12,3.376Z" transform="translate(-50.156 -146.78)" fill="#00415e"/>
        <path id="Path_49928" data-name="Path 49928" d="M196.95,169.1l19.958-1.133-1.169-6.9Z" transform="translate(-50.029 -144.023)" fill="#00415e"/>
        <path id="Path_49929" data-name="Path 49929" d="M201.13,165.259l15.258-17.739,6.036,6.633Z" transform="translate(-49.222 -146.637)" fill="#00415e"/>
        <path id="Path_49930" data-name="Path 49930" d="M73.79,158.48v16.152l15.15,8.017V165.125Z" transform="translate(-73.79 -144.523)" fill="#009eff"/>
        <path id="Path_49931" data-name="Path 49931" d="M73.79,158.48v16.152l15.15,8.017V165.125Z" transform="translate(-73.79 -144.523)" opacity="0.1"/>
        <path id="Path_49932" data-name="Path 49932" d="M101.628,158.48v16.152L86.49,182.649V165.125Z" transform="translate(-71.34 -144.523)" fill="#009eff"/>
        <path id="Path_49933" data-name="Path 49933" d="M101.628,158.48v16.152L86.49,182.649V165.125Z" transform="translate(-71.34 -144.523)" opacity="0.2"/>
        <path id="Path_49934" data-name="Path 49934" d="M73.79,159.711l15.15,6.645,15.138-6.645L88.94,152.1Z" transform="translate(-73.79 -145.754)" fill="#009eff"/>
        <path id="Path_49935" data-name="Path 49935" d="M92.17,161.71v10.033l.787-1.312.477.7.5-1.133.5.7V160.72Z" transform="translate(-70.244 -144.091)" fill="#00415e"/>
        <path id="Path_49936" data-name="Path 49936" d="M94.667,162.874,79.23,155.955l2.493-1.265,15.21,7.193Z" transform="translate(-72.74 -145.254)" fill="#00415e"/>
      </g>
      <g id="freepik--Device--inject-7" transform="translate(117.05 235.817)">
        <path id="Path_49937" data-name="Path 49937" d="M283.129,407.444H255.31c0-1.9,3.579-3.579,8.565-4.235V391.28h10.677v11.929C279.586,403.889,283.129,405.536,283.129,407.444Z" transform="translate(-134.729 -335.426)" fill="#009eff"/>
        <path id="Path_49938" data-name="Path 49938" d="M283.129,407.444H255.31c0-1.9,3.579-3.579,8.565-4.235V391.28h10.677v11.929C279.586,403.889,283.129,405.536,283.129,407.444Z" transform="translate(-134.729 -335.426)" opacity="0.4"/>
        <rect id="Rectangle_13314" data-name="Rectangle 13314" width="90.4" height="48.612" transform="translate(89.47 10.666)" fill="#009eff"/>
        <rect id="Rectangle_13315" data-name="Rectangle 13315" width="90.4" height="48.612" transform="translate(89.47 10.666)" opacity="0.2"/>
        <rect id="Rectangle_13316" data-name="Rectangle 13316" width="85.843" height="40.858" transform="translate(91.569 12.885)" opacity="0.2"/>
        <rect id="Rectangle_13317" data-name="Rectangle 13317" width="10.677" height="2.577" transform="translate(129.147 59.278)" opacity="0.2"/>
        <path id="Path_49939" data-name="Path 49939" d="M262.49,366.37v17.667l15.687-8.84Z" transform="translate(-133.343 -340.232)" fill="#fff"/>
        <path id="Path_49940" data-name="Path 49940" d="M227.864,348.056a2.493,2.493,0,0,1-2.386,2.243H209.612a2,2,0,0,1-2.04-2.243l.2-2.386h20.351Z" transform="translate(-143.941 -344.226)" fill="#009eff"/>
        <path id="Path_49941" data-name="Path 49941" d="M199.09,351.141l-6.084,69.393a6.024,6.024,0,0,0,6.1,6.68h28.881a7.444,7.444,0,0,0,7.265-6.68l6.072-69.393a6.024,6.024,0,0,0-6.1-6.68H206.343a7.444,7.444,0,0,0-7.253,6.68Z" transform="translate(-146.756 -344.459)" fill="#009eff"/>
        <g id="Group_58389" data-name="Group 58389" transform="translate(46.214)" opacity="0.4">
          <path id="Path_49942" data-name="Path 49942" d="M227.864,348.056a2.493,2.493,0,0,1-2.386,2.243H209.612a2,2,0,0,1-2.04-2.243l.2-2.386h20.351Z" transform="translate(-190.155 -344.226)"/>
          <path id="Path_49943" data-name="Path 49943" d="M199.09,351.141l-6.084,69.393a6.024,6.024,0,0,0,6.1,6.68h28.881a7.444,7.444,0,0,0,7.265-6.68l6.072-69.393a6.024,6.024,0,0,0-6.1-6.68H206.343a7.444,7.444,0,0,0-7.253,6.68Z" transform="translate(-192.97 -344.459)" fill="#009eff"/>
        </g>
        <path id="Path_49944" data-name="Path 49944" d="M204.5,345.66H233.38a4.772,4.772,0,0,1,4.772,5.285l-6.06,69.393a5.965,5.965,0,0,1-5.75,5.285H197.5a4.772,4.772,0,0,1-4.772-5.285l6.072-69.393A5.881,5.881,0,0,1,204.5,345.66Z" transform="translate(-146.809 -344.227)" fill="#009eff"/>
        <path id="Path_49945" data-name="Path 49945" d="M204.5,345.66H233.38a4.772,4.772,0,0,1,4.772,5.285l-6.06,69.393a5.965,5.965,0,0,1-5.75,5.285H197.5a4.772,4.772,0,0,1-4.772-5.285l6.072-69.393A5.881,5.881,0,0,1,204.5,345.66Z" transform="translate(-146.809 -344.227)" fill="#fff" opacity="0.3"/>
        <path id="Path_49946" data-name="Path 49946" d="M197.588,351.171l-6.072,69.393a6.036,6.036,0,0,0,6.1,6.68h28.881a7.456,7.456,0,0,0,7.265-6.68l6.06-69.393a6.024,6.024,0,0,0-6.1-6.68H204.853A7.444,7.444,0,0,0,197.588,351.171Zm1.4,0a5.881,5.881,0,0,1,5.75-5.285h28.881a4.772,4.772,0,0,1,4.772,5.285l-6.06,69.393a5.965,5.965,0,0,1-5.75,5.285H197.731a4.772,4.772,0,0,1-4.772-5.285Z" transform="translate(-147.043 -344.453)" fill="#fff"/>
        <path id="Path_49947" data-name="Path 49947" d="M226.55,345.69h0a4.044,4.044,0,0,1-3.949,3.579H209.539a3.281,3.281,0,0,1-3.316-3.579h20.351Z" transform="translate(-144.202 -344.222)" fill="#fff"/>
        <path id="Path_49948" data-name="Path 49948" d="M213.045,381.748l-5.595-1.1c1.062,5.106-1.789,10.736-4.211,14.315-1.193,1.742-.716,4.378.764,4.676l3.65.716C212.067,401.252,213.045,381.748,213.045,381.748Z" transform="translate(-144.905 -337.477)" fill="#009eff"/>
        <path id="Path_49949" data-name="Path 49949" d="M216.293,384.82,203.457,382.3a7.742,7.742,0,0,1-6.084-9.066h0a7.73,7.73,0,0,1,9.054-6.084l12.836,2.517a7.742,7.742,0,0,1,6.1,9.054h0a7.754,7.754,0,0,1-9.066,6.1Z" transform="translate(-145.934 -340.108)" fill="#009eff"/>
        <path id="Path_49950" data-name="Path 49950" d="M216.293,384.82,203.457,382.3a7.742,7.742,0,0,1-6.084-9.066h0a7.73,7.73,0,0,1,9.054-6.084l12.836,2.517a7.742,7.742,0,0,1,6.1,9.054h0a7.754,7.754,0,0,1-9.066,6.1Z" transform="translate(-145.934 -340.108)" opacity="0.3"/>
        <path id="Path_49951" data-name="Path 49951" d="M183.92,389.528l21.878-.286c1.9.37,6.716-24.193,4.772-24.562l-20.149-8.529Z" transform="translate(-148.502 -342.204)" fill="#009eff"/>
        <path id="Path_49952" data-name="Path 49952" d="M189.013,373.186c-1.8,9.209-4.056,16.534-5.022,16.343s-.286-7.814,1.527-17.035,4.056-16.534,5.022-16.343S190.827,363.964,189.013,373.186Z" transform="translate(-148.573 -342.204)" fill="#009eff"/>
        <path id="Path_49953" data-name="Path 49953" d="M189.013,373.186c-1.8,9.209-4.056,16.534-5.022,16.343s-.286-7.814,1.527-17.035,4.056-16.534,5.022-16.343S190.827,363.964,189.013,373.186Z" transform="translate(-148.573 -342.204)" opacity="0.3"/>
        <path id="Path_49954" data-name="Path 49954" d="M183.562,370.75c.441-2.255,2.7-3.961,3.77-3.758s1.587,2.207,1.193,4.462-1.67,3.913-2.744,3.71S183.121,372.969,183.562,370.75Z" transform="translate(-148.586 -340.115)" fill="#009eff"/>
        <path id="Path_49955" data-name="Path 49955" d="M218.62,387.829l-2.935-3.114a12.681,12.681,0,0,0-6.728-3.7l-3.579-.7a1.312,1.312,0,0,0-1.527,1.014c-.429,2.135-1.062,6.549.1,10.116a2.386,2.386,0,0,0,1.777,1.61l7.671,1.384c1.253.31,2.517.191,2.994-1.014Z" transform="translate(-144.765 -337.546)" fill="#ffc0ba"/>
        <path id="Path_49956" data-name="Path 49956" d="M214.953,394.328l13.206,17.5,1.312-15.043L216.635,386.61S211.064,389,214.953,394.328Z" transform="translate(-142.781 -336.327)" fill="#ffc0ba"/>
        <path id="Path_49957" data-name="Path 49957" d="M181.7,369.161,166.5,356.17l-3.925,5.786Z" transform="translate(-152.619 -342.2)" fill="#fff"/>
        <path id="Path_49958" data-name="Path 49958" d="M183.827,372.32l-18.311,7.993-2.076-6.669Z" transform="translate(-152.453 -339.084)" fill="#fff"/>
        <path id="Path_49959" data-name="Path 49959" d="M178.244,370.827l-21.616-8.947-2.4,8.649Z" transform="translate(-154.23 -341.098)" fill="#fff"/>
      </g>
      <g id="freepik--Target--inject-7" transform="translate(171.364 18.001)">
        <path id="Path_49960" data-name="Path 49960" d="M213.189,231.6,209.3,252.047h4.867l6.812-16.367S220.49,230.622,213.189,231.6Z" transform="translate(-197.919 -148.441)" fill="#009eff"/>
        <path id="Path_49961" data-name="Path 49961" d="M249.52,231.6l3.889,20.447h-4.867L241.73,235.68S242.219,230.622,249.52,231.6Z" transform="translate(-191.663 -148.441)" fill="#009eff"/>
        <path id="Path_49962" data-name="Path 49962" d="M213.189,231.6,209.3,252.047h4.867l6.812-16.367S220.49,230.622,213.189,231.6Z" transform="translate(-197.919 -148.441)" opacity="0.3"/>
        <path id="Path_49963" data-name="Path 49963" d="M249.52,231.6l3.889,20.447h-4.867L241.73,235.68S242.219,230.622,249.52,231.6Z" transform="translate(-191.663 -148.441)" opacity="0.3"/>
        <circle id="Ellipse_932" data-name="Ellipse 932" cx="36.516" cy="36.516" r="36.516" transform="translate(0 21.186)" fill="#009eff"/>
        <circle id="Ellipse_933" data-name="Ellipse 933" cx="28.213" cy="28.213" r="28.213" transform="translate(8.768 29.489)" fill="#fff"/>
        <circle id="Ellipse_934" data-name="Ellipse 934" cx="22.666" cy="22.666" r="22.666" transform="translate(13.85 35.036)" fill="#009eff"/>
        <circle id="Ellipse_935" data-name="Ellipse 935" cx="17.512" cy="17.512" r="17.512" transform="translate(19.003 40.19)" fill="#fff"/>
        <circle id="Ellipse_936" data-name="Ellipse 936" cx="5.058" cy="5.058" r="5.058" transform="translate(31.458 52.644)" fill="#009eff"/>
        <path id="Path_49964" data-name="Path 49964" d="M266.256,161.87v9.257l-9.961,11.929h-.012l-1.873-7.229Z" transform="translate(-189.216 -161.87)" fill="#009eff"/>
        <rect id="Rectangle_13318" data-name="Rectangle 13318" width="63.154" height="1.36" transform="translate(35.997 57.267) rotate(-50.07)" fill="#00415e"/>
        <path id="Path_49965" data-name="Path 49965" d="M274.206,169.8l-9.877,11.762H255.99l9.961-11.929Z" transform="translate(-188.912 -160.373)" fill="#009eff"/>
        <path id="Path_49966" data-name="Path 49966" d="M274.206,169.8l-9.877,11.762H255.99l9.961-11.929Z" transform="translate(-188.912 -160.373)" opacity="0.2"/>
      </g>
      <g id="freepik--Money--inject-7" transform="translate(244.515 69.671)">
        <path id="Path_49967" data-name="Path 49967" d="M272.513,215.7l-3.173-5.965s2.386-4.378,5.356-4.545,5.965,2.386,5.965,2.386l3.734-1.551-2.8,10.545S276.51,220.771,272.513,215.7Z" transform="translate(-259.486 -205.183)" fill="#009eff"/>
        <path id="Path_49968" data-name="Path 49968" d="M298.717,236.526c0,13.385-8.422,18.824-18.812,18.824a18.824,18.824,0,0,1-18.824-18.824c0-10.39,8.422-23.656,18.824-23.656C279.9,212.87,298.717,224.274,298.717,236.526Z" transform="translate(-261.08 -203.701)" fill="#009eff"/>
        <path id="Path_49969" data-name="Path 49969" d="M298.717,236.526c0,13.385-8.422,18.824-18.812,18.824a18.824,18.824,0,0,1-18.824-18.824c0-10.39,8.422-23.656,18.824-23.656C279.9,212.87,298.717,224.274,298.717,236.526Z" transform="translate(-261.08 -203.701)" opacity="0.2"/>
        <path id="Path_49970" data-name="Path 49970" d="M284.157,236.486c0,2.7-2.171,4.509-5.571,4.772l-.453,2.231H276.1l.441-2.231a9.735,9.735,0,0,1-4.676-1.575l1.372-2.517a7.8,7.8,0,0,0,3.841,1.443l.692-3.436c-1.9-.573-3.972-1.324-3.972-3.782,0-2.708,2.219-4.533,5.678-4.772l.441-2.231h2.04l-.453,2.255a8.887,8.887,0,0,1,3.746,1.193l-1.193,2.529a6.644,6.644,0,0,0-3.03-1.062l-.716,3.579C282.141,233.468,284.157,234.136,284.157,236.486Zm-5.822-4.211.6-2.923c-1.193.227-1.813.847-1.837,1.622S277.608,231.989,278.336,232.275Zm2.529,4.772c0-.6-.465-.954-1.193-1.193l-.549,2.78C280.232,238.347,280.865,237.787,280.865,237.047Z" transform="translate(-258.998 -201.478)" fill="#fff"/>
      </g>
    </g>
  </g>
</svg>
