<svg xmlns="http://www.w3.org/2000/svg" xmlns:xlink="http://www.w3.org/1999/xlink" width="128.039" height="127.905" viewBox="0 0 128.039 127.905">
  <defs>
    <linearGradient id="linear-gradient" x1="0.531" y1="0.127" x2="0.328" y2="1.542" gradientUnits="objectBoundingBox">
      <stop offset="0" stop-color="#00578d"/>
      <stop offset="1" stop-color="#00578d"/>
    </linearGradient>
    <linearGradient id="linear-gradient-2" x1="0.639" y1="-14.128" x2="0.128" y2="39.266" gradientUnits="objectBoundingBox">
      <stop offset="0" stop-color="#53d8ff"/>
      <stop offset="1" stop-color="#3840f7"/>
    </linearGradient>
    <linearGradient id="linear-gradient-3" x1="0.598" y1="-8.039" x2="0.176" y2="28.078" xlink:href="#linear-gradient-2"/>
    <linearGradient id="linear-gradient-4" x1="0.583" y1="-6.864" x2="0.168" y2="29.22" xlink:href="#linear-gradient-2"/>
    <linearGradient id="linear-gradient-5" x1="0.574" y1="-5.734" x2="0.135" y2="30.691" xlink:href="#linear-gradient-2"/>
    <linearGradient id="linear-gradient-6" x1="0.568" y1="-0.011" x2="0.363" y2="1.078" gradientUnits="objectBoundingBox">
      <stop offset="0" stop-color="#0fa4ff"/>
      <stop offset="1" stop-color="#0090ff"/>
    </linearGradient>
    <linearGradient id="linear-gradient-7" x1="94.026" y1="0.533" x2="95.033" y2="0.533" gradientUnits="objectBoundingBox">
      <stop offset="0" stop-color="#febbba"/>
      <stop offset="1" stop-color="#ff928e"/>
    </linearGradient>
    <linearGradient id="linear-gradient-8" x1="109.607" y1="0.551" x2="110.621" y2="0.551" xlink:href="#linear-gradient-7"/>
    <linearGradient id="linear-gradient-9" x1="18.108" y1="0.495" x2="19.101" y2="0.495" xlink:href="#linear-gradient-7"/>
    <linearGradient id="linear-gradient-10" x1="17.511" y1="1.586" x2="19.491" y2="4.27" xlink:href="#linear-gradient-7"/>
    <linearGradient id="linear-gradient-11" x1="130.572" y1="0.665" x2="132.573" y2="-1.115" xlink:href="#linear-gradient-7"/>
    <linearGradient id="linear-gradient-12" x1="14.436" y1="0.528" x2="15.438" y2="0.528" xlink:href="#linear-gradient-7"/>
    <linearGradient id="linear-gradient-13" x1="36.096" y1="0.519" x2="37.087" y2="0.519" xlink:href="#linear-gradient-7"/>
    <linearGradient id="linear-gradient-14" x1="-12.329" y1="7.734" x2="-12.653" y2="6.669" xlink:href="#linear-gradient-7"/>
    <linearGradient id="linear-gradient-15" x1="-41.338" y1="34.803" x2="-42.285" y2="30.19" xlink:href="#linear-gradient-7"/>
    <linearGradient id="linear-gradient-16" x1="0" y1="0.5" x2="1" y2="0.5" xlink:href="#linear-gradient-7"/>
    <linearGradient id="linear-gradient-18" x1="0.367" y1="0.85" x2="0.601" y2="0.282" xlink:href="#linear-gradient-7"/>
    <linearGradient id="linear-gradient-19" x1="0.766" y1="0.225" x2="11.383" y2="-10.741" gradientUnits="objectBoundingBox">
      <stop offset="0" stop-color="#09005d"/>
      <stop offset="1" stop-color="#1a0f91"/>
    </linearGradient>
    <linearGradient id="linear-gradient-21" x1="12.523" y1="3.015" x2="11.483" y2="3.766" xlink:href="#linear-gradient-7"/>
    <linearGradient id="linear-gradient-22" x1="50.787" y1="8.296" x2="46.509" y2="10.906" xlink:href="#linear-gradient-7"/>
    <linearGradient id="linear-gradient-23" x1="-1.05" y1="2.829" x2="0.734" y2="-0.03" xlink:href="#linear-gradient-7"/>
    <linearGradient id="linear-gradient-24" x1="0.47" y1="0.997" x2="0.639" y2="-1.153" xlink:href="#linear-gradient-7"/>
    <linearGradient id="linear-gradient-25" x1="0.751" y1="1.908" x2="0.44" y2="0.311" xlink:href="#linear-gradient-7"/>
    <linearGradient id="linear-gradient-26" x1="-14.865" y1="20.427" x2="-13.464" y2="21.18" xlink:href="#linear-gradient-7"/>
    <linearGradient id="linear-gradient-27" x1="-64.909" y1="65.625" x2="-59.04" y2="68.068" xlink:href="#linear-gradient-7"/>
    <linearGradient id="linear-gradient-28" x1="0.623" y1="0.5" x2="1.623" y2="0.5" xlink:href="#linear-gradient-7"/>
    <linearGradient id="linear-gradient-29" x1="-59.102" y1="4.474" x2="-59.087" y2="8.118" gradientUnits="objectBoundingBox">
      <stop offset="0" stop-color="#37474f"/>
      <stop offset="1" stop-color="#37474f"/>
    </linearGradient>
    <linearGradient id="linear-gradient-30" x1="-189.32" y1="1.164" x2="-189.582" y2="-0.58" xlink:href="#linear-gradient-7"/>
    <linearGradient id="linear-gradient-32" x1="-223.399" y1="1.13" x2="-223.684" y2="-0.791" xlink:href="#linear-gradient-7"/>
    <linearGradient id="linear-gradient-33" x1="-22.88" y1="0.161" x2="-23.473" y2="1.632" gradientUnits="objectBoundingBox">
      <stop offset="0" stop-color="#0fa4ff"/>
      <stop offset="1" stop-color="#4042e2"/>
    </linearGradient>
    <linearGradient id="linear-gradient-34" x1="-53.987" y1="0.5" x2="-52.987" y2="0.5" xlink:href="#linear-gradient-7"/>
    <linearGradient id="linear-gradient-35" x1="-27.458" y1="0.5" x2="-26.458" y2="0.5" xlink:href="#linear-gradient-7"/>
    <linearGradient id="linear-gradient-36" x1="-106.838" y1="1.029" x2="-105.549" y2="0.222" xlink:href="#linear-gradient-7"/>
    <linearGradient id="linear-gradient-37" x1="-85.236" y1="0.175" x2="-86.553" y2="1.493" xlink:href="#linear-gradient-7"/>
    <linearGradient id="linear-gradient-38" x1="-272.262" y1="2.763" x2="-269" y2="0.44" xlink:href="#linear-gradient-7"/>
    <linearGradient id="linear-gradient-39" x1="0.857" y1="-10.915" x2="0.637" y2="-3.932" xlink:href="#linear-gradient"/>
  </defs>
  <g id="Group_6460" data-name="Group 6460" transform="translate(-453.526 -455)">
    <path id="Path_4027" data-name="Path 4027" d="M565.765,564.607a45.91,45.91,0,0,1-7.022,5.913c-22.908,16.437-50.015,11.646-55.776,10.475-8.507-1.728-24.951-5.068-36.84-19.048-17.987-21.152-15.186-54.476-1.234-76.473,2.552-4.024,16.032-26.356,43.431-29.938,16.581-2.167,35.91,2.2,49.907,13.931C587.611,494.082,585.52,543.809,565.765,564.607Z" transform="translate(0)" fill="#ebf9ff"/>
    <g id="Group_6430" data-name="Group 6430" transform="translate(455.569 462.32)">
      <g id="Group_6424" data-name="Group 6424" transform="translate(0 0.833)">
        <g id="Group_6420" data-name="Group 6420">
          <path id="Path_4028" data-name="Path 4028" d="M498.464,1358.719a.364.364,0,0,1-.213-.327c0-.475.006-.958.024-1.436a.351.351,0,0,1,.374-.335c.483.023.319.5.324,1.781a.351.351,0,0,1-.36.351A.367.367,0,0,1,498.464,1358.719Z" transform="translate(-498.25 -1323.586)" fill="#b2e6ff"/>
          <path id="Path_4029" data-name="Path 4029" d="M508.733,662.394c.152-.9.343-1.805.567-2.69a.355.355,0,0,1,.438-.252c.527.141.157.418-.292,3.071a.354.354,0,0,1-.416.285A.363.363,0,0,1,508.733,662.394Zm1.936-6.935c.337-.853.714-1.708,1.108-2.512a.363.363,0,0,1,.651.318c-.392.8-.756,1.627-1.085,2.462a.363.363,0,0,1-.674-.268Zm3.322-6.383c.5-.76,1.044-1.51,1.607-2.228a.362.362,0,0,1,.574.441c-.552.7-1.082,1.438-1.575,2.183A.362.362,0,0,1,513.991,649.076Zm4.593-5.055a.352.352,0,0,1,0-.5c.653-.64,1.34-1.262,2.044-1.849.362-.3.834.244.473.546-.689.575-1.363,1.185-2,1.812A.365.365,0,0,1,518.584,644.021Zm5.559-4.507a.35.35,0,0,1,.1-.492c.774-.494,1.578-.962,2.389-1.394a.36.36,0,0,1,.352.628c-.795.423-1.583.882-2.341,1.366A.368.368,0,0,1,524.144,639.514Zm6.577-3.09a.365.365,0,0,1-.187-.195.348.348,0,0,1,.2-.459c.863-.327,1.749-.624,2.634-.884a.368.368,0,0,1,.453.24.349.349,0,0,1-.236.442c-.867.254-1.735.545-2.581.866A.366.366,0,0,1,530.721,636.424Zm6.974-1.86a.365.365,0,0,1-.208-.265.349.349,0,0,1,.292-.408c.914-.147,1.845-.259,2.769-.335a.367.367,0,0,1,.4.325.35.35,0,0,1-.323.384c-.905.074-1.818.184-2.713.328A.367.367,0,0,1,537.695,634.564Zm7.024-.753a.352.352,0,0,1,.371-.34c.927.041,1.867.12,2.791.232a.355.355,0,1,1-.077.706c-.906-.111-1.826-.187-2.735-.228A.365.365,0,0,1,544.719,633.811Zm22.56,9.337c-2.043-1.8-2.531-1.81-2.2-2.236a.363.363,0,0,1,.505-.064c.744.56,1.476,1.157,2.174,1.773A.355.355,0,1,1,567.279,643.147Zm-15.354-8.353a.355.355,0,0,1,.435-.256c.9.227,1.809.492,2.694.788a.354.354,0,1,1-.221.674c-.867-.289-1.755-.549-2.64-.772A.362.362,0,0,1,551.925,634.794Zm9.494,4.155c-2.361-1.355-2.846-1.267-2.613-1.754a.369.369,0,0,1,.48-.164c.844.4,1.681.841,2.488,1.3a.355.355,0,1,1-.355.614Z" transform="translate(-508.249 -633.471)" fill="#b2e6ff"/>
          <path id="Path_4030" data-name="Path 4030" d="M1858.8,903.513c-.766-.943-1.259-1.279-.89-1.593a.365.365,0,0,1,.509.041c.831.944,1.254,1.326.889,1.613A.412.412,0,0,1,1858.8,903.513Z" transform="translate(-1795.679 -889.577)" fill="#b2e6ff"/>
        </g>
        <g id="Group_6421" data-name="Group 6421" transform="translate(6.946 38.367)">
          <path id="Path_4031" data-name="Path 4031" d="M2046.69,1475.466a.362.362,0,0,1-.21-.372c.058-.464.107-.934.145-1.4a.353.353,0,0,1,.39-.319.365.365,0,0,1,.33.389c-.039.474-.089.953-.148,1.427a.36.36,0,0,1-.507.272Z" transform="translate(-1982.7 -1473.375)" fill="#b2e6ff"/>
          <path id="Path_4032" data-name="Path 4032" d="M750.774,1628.85c-.9-.445-1.794-.933-2.654-1.45a.356.356,0,0,1-.126-.49c.287-.471.459,0,3.1,1.3a.357.357,0,0,1,.168.478A.368.368,0,0,1,750.774,1628.85Zm4.306,1.429c.174-.522.461-.094,3.3.617a.362.362,0,0,1,.268.433.355.355,0,0,1-.435.257c-.97-.243-1.945-.531-2.9-.854A.361.361,0,0,1,755.08,1630.278Zm-10.988-5.685c-.781-.627-1.547-1.295-2.275-1.985a.352.352,0,0,1-.014-.5c.386-.4.448.1,2.739,1.939a.354.354,0,0,1,.058.5A.364.364,0,0,1,744.092,1624.593Zm18.829,7.832a.363.363,0,0,1-.211-.362.353.353,0,0,1,.394-.313c.977.109,1.968.178,2.946.205a.365.365,0,0,1,.357.366.351.351,0,0,1-.365.346c-1-.028-2.01-.1-3.008-.21A.381.381,0,0,1,762.921,1632.425Zm7.808.015a.364.364,0,0,1-.21-.283.35.35,0,0,1,.313-.392c.971-.1,1.95-.252,2.909-.437a.368.368,0,0,1,.429.281.349.349,0,0,1-.278.417c-.979.189-1.978.339-2.969.446A.366.366,0,0,1,770.729,1632.44Zm7.593-1.673a.367.367,0,0,1-.191-.207.349.349,0,0,1,.217-.452c.921-.312,1.84-.666,2.732-1.054a.369.369,0,0,1,.479.183.349.349,0,0,1-.178.469c-.909.4-1.847.757-2.788,1.075A.365.365,0,0,1,778.322,1630.767Zm7.014-3.271a.369.369,0,0,1-.156-.136.349.349,0,0,1,.111-.489c.827-.5,1.643-1.048,2.423-1.619a.366.366,0,0,1,.506.077.35.35,0,0,1-.069.5c-.8.582-1.629,1.138-2.473,1.652A.365.365,0,0,1,785.336,1627.5Zm5.99-4.787c-.4-.4.106-.436,1.994-2.612a.362.362,0,0,1,.552.468c-.644.743-1.329,1.467-2.036,2.153A.365.365,0,0,1,791.326,1622.71Zm4.935-5.887c-.475-.3,0-.446,1.352-2.99a.363.363,0,0,1,.641.338c-.46.868-.964,1.726-1.5,2.55A.361.361,0,0,1,796.262,1616.823Zm3.453-6.842a.36.36,0,0,1-.192-.447c.331-.908.625-1.838.875-2.762a.356.356,0,0,1,.442-.245.362.362,0,0,1,.256.439c-.255.944-.556,1.892-.893,2.819a.357.357,0,0,1-.461.208Z" transform="translate(-737.53 -1600.431)" fill="#b2e6ff"/>
          <path id="Path_4033" data-name="Path 4033" d="M651.265,1843.537c-.788-.981-1.192-1.381-.812-1.65.395-.28.57.21,1.376,1.215a.35.35,0,0,1-.056.5A.366.366,0,0,1,651.265,1843.537Z" transform="translate(-650.309 -1824.979)" fill="#b2e6ff"/>
        </g>
        <g id="Group_6423" data-name="Group 6423" transform="translate(9.44 8.919)">
          <path id="Path_4034" data-name="Path 4034" d="M707.953,868.051l5.171-.272a23,23,0,0,0,5.223,5.136c-.15,4.957-.512,5.293,0,5.507l5.768,2.386a.426.426,0,0,0,.481-.106l3.4-3.8a22.909,22.909,0,0,0,7.315.051l3.475,3.848a.435.435,0,0,0,.483.113l5.72-2.3a.41.41,0,0,0,.258-.411l-.366-5.1A21.849,21.849,0,0,0,750,868.048l5.173.347a.418.418,0,0,0,.417-.255l2.322-5.642a.42.42,0,0,0-.116-.475l-3.912-3.412a21.925,21.925,0,0,0-.076-7.207c3.686-3.358,4.169-3.327,3.953-3.831-2.488-5.526-2.292-5.968-2.859-5.938l-5.171.272a23,23,0,0,0-5.223-5.136c.15-4.953.512-5.293,0-5.507-5.771-2.272-5.884-2.688-6.249-2.28l-3.4,3.8a22.913,22.913,0,0,0-7.315-.051c-3.431-3.646-3.442-4.169-3.958-3.961-5.62,2.378-6.017,2.163-5.978,2.714l.366,5.1a21.844,21.844,0,0,0-5.123,5.057c-4.945-.23-5.378-.607-5.59-.092-2.2,5.623-2.629,5.748-2.206,6.118l3.912,3.412a21.936,21.936,0,0,0,.076,7.207c-3.674,3.347-4.169,3.324-3.952,3.831C707.582,867.639,707.387,868.081,707.953,868.051Z" transform="translate(-704.913 -828.728)" fill="#b2e6ff"/>
          <g id="Group_6422" data-name="Group 6422" transform="translate(20.452 20.141)">
            <path id="Path_4035" data-name="Path 4035" d="M1152.689,1274.708a5.935,5.935,0,0,1,6.825-4.994,6.117,6.117,0,0,1,5.189,6.813,5.936,5.936,0,0,1-6.826,4.995h0A6.117,6.117,0,0,1,1152.689,1274.708Zm5.262,6.285,0,0Zm1.418-10.224a4.869,4.869,0,0,0-5.606,4.1,5.023,5.023,0,0,0,4.261,5.6,4.875,4.875,0,0,0,5.606-4.1A5.024,5.024,0,0,0,1159.368,1270.768Z" transform="translate(-1152.633 -1269.643)" fill="#8fcce9"/>
          </g>
          <path id="Path_4036" data-name="Path 4036" d="M956.732,1093.683h0a16.053,16.053,0,0,1-2.337-1.323.536.536,0,0,1-.191-.664.513.513,0,0,1,.046-.08.543.543,0,0,1,.752-.13,14.994,14.994,0,0,0,2.72,1.47h0a14.358,14.358,0,0,0,18.583-7.04q.121-.263.232-.533a14.521,14.521,0,0,0-26.83-11.1c-1.778,4.322-.708,7.383-.912,7.826a.546.546,0,0,1-1.029-.153,15,15,0,0,1,1.187-8.662c5.543-12.028,23.184-11.536,28.471.782a15.01,15.01,0,0,1,.119,11.721q-.12.292-.252.578a14.957,14.957,0,0,1-8.076,7.649,15.658,15.658,0,0,1-11.9-.087Q957.022,1093.817,956.732,1093.683Z" transform="translate(-936.489 -1053.777)" fill="#8fcce9"/>
        </g>
      </g>
      <g id="Group_6429" data-name="Group 6429" transform="translate(65.423 0)">
        <path id="Path_4037" data-name="Path 4037" d="M2021.225,721.594a12.6,12.6,0,0,0,3.109,2.646l.058,2.89c.006.321.281.2,3.467,1.286.3.1.262-.18,2-2.4a12.6,12.6,0,0,0,4.069-.331l2.086,2c.232.222.338-.059,3.361-1.542a.238.238,0,0,0,.127-.245l-.408-2.864a12.592,12.592,0,0,0,2.646-3.109c2.761-.113,3.015.078,3.112-.223,1-3.288,1.231-3.378.981-3.565l-2.312-1.736a12.608,12.608,0,0,0-.331-4.069l2-2.086c.222-.231-.059-.337-1.542-3.361-.14-.275-.3-.059-3.109.281a12.6,12.6,0,0,0-3.109-2.646l-.058-2.89c-.006-.321-.28-.2-3.467-1.286-.293-.095-.254.169-2,2.4a12.6,12.6,0,0,0-4.069.331l-2.086-2a.238.238,0,0,0-.273-.04l-3.088,1.582a.238.238,0,0,0-.127.245l.408,2.864a12.6,12.6,0,0,0-2.646,3.109c-2.761.113-3.015-.078-3.112.223-1,3.287-1.231,3.377-.982,3.565l2.312,1.736a12.594,12.594,0,0,0,.331,4.069c-1.872,2.032-2.188,2.077-2.044,2.359l1.582,3.088C2018.258,722.15,2018.431,721.932,2021.225,721.594Z" transform="translate(-2011.943 -694.54)" fill="#b2e6ff"/>
        <g id="Group_6428" data-name="Group 6428">
          <g id="Group_6425" data-name="Group 6425" transform="translate(15.321 15.223)">
            <path id="Path_4038" data-name="Path 4038" d="M2265.851,951.882a3.62,3.62,0,1,1,3.378,3.847h0A3.624,3.624,0,0,1,2265.851,951.882Zm3.413,3.309h0Zm-2.337-3.239a2.545,2.545,0,0,0,2.372,2.7h0a2.541,2.541,0,1,0-2.372-2.7Z" transform="translate(-2265.844 -948.496)" fill="#8fcce9"/>
          </g>
          <g id="Group_6426" data-name="Group 6426">
            <path id="Path_4039" data-name="Path 4039" d="M1939.514,1107.46c-.139-.466-.262-.944-.364-1.42a.36.36,0,0,1,.276-.427c.489-.105.419.441.777,1.642a.36.36,0,1,1-.689.206Z" transform="translate(-1938.745 -1083.2)" fill="#8fcce9"/>
            <path id="Path_4040" data-name="Path 4040" d="M1930.442,633.282a19.2,19.2,0,0,1,.353-2.942.36.36,0,0,1,.706.141c-.515,2.576-.113,3.2-.715,3.175A.359.359,0,0,1,1930.442,633.282Zm2.053-7.018a.359.359,0,0,1-.166-.481,18.943,18.943,0,0,1,1.5-2.555.36.36,0,0,1,.59.412,18.266,18.266,0,0,0-1.445,2.458A.366.366,0,0,1,1932.5,626.264Zm4.648-6a.359.359,0,0,1-.083-.6,19.123,19.123,0,0,1,2.394-1.745.36.36,0,0,1,.377.612,18.42,18.42,0,0,0-2.3,1.68A.36.36,0,0,1,1937.144,620.267Zm6.645-3.656a.36.36,0,0,1,.045-.671,18.868,18.868,0,0,1,2.893-.642.36.36,0,1,1,.1.712,18.139,18.139,0,0,0-2.782.618A.358.358,0,0,1,1943.789,616.611Zm7.346-1.058a.36.36,0,0,1,.4-.317,19.047,19.047,0,0,1,2.91.561.36.36,0,0,1-.191.694,18.3,18.3,0,0,0-2.8-.54A.36.36,0,0,1,1951.135,615.553Z" transform="translate(-1930.442 -615.234)" fill="#8fcce9"/>
            <path id="Path_4041" data-name="Path 4041" d="M2542.535,668.806c-1.087-.749-1.565-.826-1.321-1.246a.355.355,0,0,1,.491-.131c.42.243.836.507,1.239.784a.36.36,0,1,1-.408.592Z" transform="translate(-2513.254 -664.997)" fill="#8fcce9"/>
          </g>
          <g id="Group_6427" data-name="Group 6427" transform="translate(7.345 14.691)">
            <path id="Path_4042" data-name="Path 4042" d="M2736.6,938.655c-.168-1.314-.429-1.718.046-1.817a.36.36,0,0,1,.425.279c.1.475.18.961.242,1.446a.36.36,0,1,1-.714.091Z" transform="translate(-2706.91 -936.831)" fill="#8fcce9"/>
            <path id="Path_4043" data-name="Path 4043" d="M2208.976,1085.057c.187-.567.613.017,3.176.445a.36.36,0,0,1-.118.709,18.991,18.991,0,0,1-2.829-.7A.359.359,0,0,1,2208.976,1085.057Zm7.393,1.023a.36.36,0,0,1,.329-.388c2.612-.214,3.06-.762,3.2-.179a.36.36,0,0,1-.265.434,18.855,18.855,0,0,1-2.877.463A.36.36,0,0,1,2216.369,1086.081Zm7.2-1.959c-.281-.529.429-.428,2.517-1.987a.36.36,0,0,1,.43.577,19.063,19.063,0,0,1-2.461,1.559A.359.359,0,0,1,2223.568,1084.122Zm5.85-4.633c-.467-.378.229-.562,1.539-2.814a.36.36,0,0,1,.622.362,19,19,0,0,1-1.655,2.4A.36.36,0,0,1,2229.417,1079.488Zm3.315-7c.712-2.52.356-3.135.953-3.063a.36.36,0,0,1,.313.4,19.078,19.078,0,0,1-.573,2.858.36.36,0,0,1-.693-.2Z" transform="translate(-2203.58 -1063.362)" fill="#8fcce9"/>
            <path id="Path_4044" data-name="Path 4044" d="M2092.574,1345.686c-.409-.264-.813-.547-1.2-.841a.36.36,0,0,1-.069-.5c.3-.4.6.06,1.659.74a.36.36,0,1,1-.389.6Z" transform="translate(-2091.231 -1325.585)" fill="#8fcce9"/>
          </g>
          <path id="Path_4045" data-name="Path 4045" d="M2155.812,848.423a.54.54,0,1,1,.522-.945,7.834,7.834,0,1,0-3.183-10.06c-1.646,3.572.215,5.431-.924,5.694a.539.539,0,0,1-.648-.4,8.914,8.914,0,1,1,5.948,6.474h0A9,9,0,0,1,2155.812,848.423Z" transform="translate(-2141.259 -821.895)" fill="#8fcce9"/>
        </g>
      </g>
    </g>
    <g id="Group_6432" data-name="Group 6432" transform="translate(520.053 475.768)">
      <path id="Path_4046" data-name="Path 4046" d="M2055.855,1442.455c-.014-.169-.186-.314-.477-.431.316-.175.492-.362.477-.546-.045-.556-1.8-.867-3.931-.7s-3.814.761-3.769,1.317c.014.169.186.314.478.431-.317.175-.492.362-.478.546s.186.314.478.432c-.317.175-.492.362-.478.545s.186.315.478.432c-.317.175-.492.362-.478.545.02.246.376.444.95.573a4.914,4.914,0,0,0,.015.6c.083,1.024,1.235,1.827,2.759,1.827s2.842-1.095,2.857-2.122a5.073,5.073,0,0,0-.03-.67c.729-.243,1.173-.541,1.15-.829-.014-.168-.186-.315-.477-.431.316-.175.492-.362.477-.546-.014-.168-.186-.314-.477-.431C2055.694,1442.826,2055.869,1442.638,2055.855,1442.455Z" transform="translate(-2041.838 -1416.474)" fill="url(#linear-gradient)"/>
      <g id="Group_6431" data-name="Group 6431" transform="translate(6.884 25.601)">
        <path id="Path_4047" data-name="Path 4047" d="M2073.036,1540.5a9.165,9.165,0,0,1-1.687-.138.051.051,0,0,1,.019-.1,10.989,10.989,0,0,0,2.81.089,12.065,12.065,0,0,0,2.356-.406.051.051,0,1,1,.029.1,12.161,12.161,0,0,1-2.377.41C2073.791,1540.48,2073.4,1540.5,2073.036,1540.5Z" transform="translate(-2070.819 -1536.746)" fill="url(#linear-gradient-2)"/>
        <path id="Path_4048" data-name="Path 4048" d="M2065.334,1513.51a8.026,8.026,0,0,1-2.071-.224.052.052,0,0,1-.036-.063.051.051,0,0,1,.063-.035,11.812,11.812,0,0,0,6.261-.5.051.051,0,0,1,.043.093,10.083,10.083,0,0,1-3.121.681C2066.085,1513.495,2065.7,1513.51,2065.334,1513.51Z" transform="translate(-2063.106 -1510.738)" fill="url(#linear-gradient-3)"/>
        <path id="Path_4049" data-name="Path 4049" d="M2062.807,1492.12a7.446,7.446,0,0,1-2.183-.263.05.05,0,0,1-.032-.064.05.05,0,0,1,.064-.033,9.322,9.322,0,0,0,3.293.21,9.977,9.977,0,0,0,3.087-.672.051.051,0,1,1,.043.093,10.088,10.088,0,0,1-3.121.68C2063.562,1492.105,2063.174,1492.12,2062.807,1492.12Z" transform="translate(-2060.589 -1490.325)" fill="url(#linear-gradient-4)"/>
        <path id="Path_4050" data-name="Path 4050" d="M2070.043,1470.882a8.825,8.825,0,0,1-1.839-.167.051.051,0,0,1,.022-.1,10.639,10.639,0,0,0,2.952.118,10.037,10.037,0,0,0,3.07-.664.051.051,0,0,1,.043.093,10.128,10.128,0,0,1-3.1.673C2070.8,1470.866,2070.41,1470.882,2070.043,1470.882Z" transform="translate(-2067.819 -1470.064)" fill="url(#linear-gradient-5)"/>
      </g>
      <path id="Path_4051" data-name="Path 4051" d="M1914.781,930.68a7.192,7.192,0,0,0-1.288-2.514,16.642,16.642,0,0,1-3.585-9.268c-.37-6.44,5.343-9.665,10.555-9.227s10.356,4.319,9.793,10.311a13.833,13.833,0,0,1-3.946,8.089,8.534,8.534,0,0,0-2.048,3.629c-.461,1.665-1.559,3.739-4.167,3.866C1916.72,935.73,1915.318,932.584,1914.781,930.68Z" transform="translate(-1909.891 -909.632)" fill="url(#linear-gradient-6)"/>
      <path id="Path_4052" data-name="Path 4052" d="M2152.048,1193.609l1.824-11.863c.038-.245.158-.41.27-.368s.171.275.133.52c0,.006,0,.014,0,.021l-2.077,11.752c-.016.089-.061.144-.1.125S2152.035,1193.695,2152.048,1193.609Z" transform="translate(-2140.982 -1168.959)" fill="#fff"/>
      <path id="Path_4053" data-name="Path 4053" d="M2063.944,1195.672l-1.824-11.862c-.038-.245-.158-.41-.27-.368s-.171.275-.133.52c0,.007,0,.015,0,.021l2.078,11.752c.016.088.061.144.1.125S2063.958,1195.758,2063.944,1195.672Z" transform="translate(-2054.772 -1170.928)" fill="#fff"/>
      <path id="Path_4054" data-name="Path 4054" d="M2079.97,1137.291a.192.192,0,0,0-.24-.062l-1.015.475-.353-1a.216.216,0,0,0-.124-.124.251.251,0,0,0-.312.1l0,0-.835,1.523-.775-2.168v0a.249.249,0,0,0-.117-.132.3.3,0,0,0-.383.076l-1.168,1.607a.141.141,0,0,0,.042.2.2.2,0,0,0,.248-.027l1.028-1.147.926,2.062v0a.166.166,0,0,0,.082.08.193.193,0,0,0,.242-.063l.893-1.433.336.725,0,.006a.084.084,0,0,0,.008.015.191.191,0,0,0,.239.062l1.205-.563A.143.143,0,0,0,2079.97,1137.291Z" transform="translate(-2067.094 -1125.523)" fill="#fff"/>
      <path id="Path_4055" data-name="Path 4055" d="M2265.345,1242.831a.231.231,0,0,1-.186-.37,13.453,13.453,0,0,0,.846-1.285.232.232,0,1,1,.4.232,13.979,13.979,0,0,1-.875,1.33A.232.232,0,0,1,2265.345,1242.831Z" transform="translate(-2248.887 -1225.921)" fill="#fff"/>
      <path id="Path_4056" data-name="Path 4056" d="M2298.189,1038.5a.232.232,0,0,1-.213-.324,10.8,10.8,0,0,0,.248-8.2.232.232,0,0,1,.421-.193,11.093,11.093,0,0,1-.244,8.578A.231.231,0,0,1,2298.189,1038.5Z" transform="translate(-2280.23 -1024.17)" fill="#fff"/>
    </g>
    <g id="Group_6459" data-name="Group 6459" transform="translate(453.708 497.279)">
      <g id="Group_6438" data-name="Group 6438" transform="translate(28.683 0)">
        <path id="Path_4057" data-name="Path 4057" d="M1449.333,3070.794s-.3,1.614-.456,3.212a1.1,1.1,0,0,0,1.043,1.2c2.129.109,6.684.325,8.321.267a.358.358,0,0,0,.32-.488h0a.806.806,0,0,0-.407-.437l-7.494-3.53Z" transform="translate(-1432.269 -2993.583)" fill="#004465"/>
        <path id="Path_4058" data-name="Path 4058" d="M1454.049,3044.1l.211,1.935a2.4,2.4,0,0,0,2.22-.056l-.525-2.16Z" transform="translate(-1437.21 -2967.844)" fill="url(#linear-gradient-7)"/>
        <path id="Path_4059" data-name="Path 4059" d="M1339.982,2253.363c-.1.5-.772,25.184,1.761,36.272a.376.376,0,0,1-.225.435,6.541,6.541,0,0,1-2.153.416.647.647,0,0,1-.637-.471c-.73-2.573-4.221-15.467-4.575-27.755-.4-13.732,0-.468,0-.468l.39-8.482Z" transform="translate(-1322.624 -2213.442)" fill="#37474f"/>
        <path id="Path_4060" data-name="Path 4060" d="M1249.657,3087.442a11.649,11.649,0,0,0-.923,2.975.672.672,0,0,0,.584.811c.7.076,1.785.175,2.652.178a.671.671,0,0,0,.671-.742,5.654,5.654,0,0,0-1.291-3.113Z" transform="translate(-1241.259 -3009.471)" fill="#004465"/>
        <path id="Path_4061" data-name="Path 4061" d="M1261.032,3030.931l.508,2.928a1.891,1.891,0,0,0,1.577.123l-.226-3.147Z" transform="translate(-1253.01 -2955.45)" fill="url(#linear-gradient-8)"/>
        <path id="Path_4062" data-name="Path 4062" d="M1216.8,2242.452c-2.282,13,.161,32.194,1.011,35.954a.584.584,0,0,0,.468.449,3.918,3.918,0,0,0,1.689-.052.536.536,0,0,0,.39-.49c.148-3.032.111-21.651,2.192-28.99a1.67,1.67,0,0,1,.654-.916l3.929-2.737.342-4.482Z" transform="translate(-1209.897 -2201.874)" fill="#37474f"/>
        <g id="Group_6433" data-name="Group 6433" transform="translate(6.195 6.189)">
          <path id="Path_4063" data-name="Path 4063" d="M1235.732,1710.74a60.809,60.809,0,0,0-13.619,1.569c-2.035,11.23-.568,24.219-.568,24.219,4.994,1.361,10.662-.7,10.662-.7.877-4.693,4.886-17.888,4.886-17.888a21.305,21.305,0,0,0,7.931-2.433,13.87,13.87,0,0,1-2.686-5.759A21.7,21.7,0,0,1,1235.732,1710.74Z" transform="translate(-1221.033 -1700.897)" fill="#0fa4ff"/>
          <path id="Path_4064" data-name="Path 4064" d="M1699.994,1516.532a1.238,1.238,0,0,0-1.436-.418c-.99,4.011-6.011,7.223-11.153,8.767a13.863,13.863,0,0,0,2.686,5.759C1698.645,1525.937,1699.994,1516.532,1699.994,1516.532Z" transform="translate(-1666.101 -1516.032)" fill="url(#linear-gradient-9)"/>
        </g>
        <g id="Group_6434" data-name="Group 6434" transform="translate(38.667)">
          <path id="Path_4065" data-name="Path 4065" d="M1933.151,1387.431c.065.212-.708.527-1.153-.342a8.142,8.142,0,0,1,0-2.527,33.046,33.046,0,0,1,3.913-4.013.608.608,0,0,1,.068.845l-1.252,1.28a6.017,6.017,0,0,1,.71,1.438,1.739,1.739,0,0,1-.186,1.277c-.221.39-.523.9-.808,1.293A1.717,1.717,0,0,1,1933.151,1387.431Z" transform="translate(-1931.886 -1380.549)" fill="url(#linear-gradient-10)"/>
          <path id="Path_4066" data-name="Path 4066" d="M1950.7,1445.312l-1.139.947-.363.95,1,1.127a12.967,12.967,0,0,1,.612-2.3C1951.059,1445.633,1950.93,1445.434,1950.7,1445.312Z" transform="translate(-1948.404 -1442.354)" fill="url(#linear-gradient-11)"/>
        </g>
        <path id="Path_4067" data-name="Path 4067" d="M1098.278,1772.131l-2.421-6.286s-6.08,4.047-7.123,9.241a14.3,14.3,0,0,1,5.238,1.458C1094.442,1774.091,1098.278,1772.131,1098.278,1772.131Z" transform="translate(-1088.582 -1748.245)" fill="#0fa4ff"/>
        <path id="Path_4068" data-name="Path 4068" d="M1100.333,1971.136s-6.819,3.768-9.076.473a2.572,2.572,0,0,1-.453-2,14.3,14.3,0,0,0-5.238-1.458,7.185,7.185,0,0,0,.734,4.931c3.939,7.371,14.914-.263,14.914-.263Z" transform="translate(-1085.415 -1941.307)" fill="url(#linear-gradient-12)"/>
        <path id="Path_4069" data-name="Path 4069" d="M1356.061,1615.206l-2.115,5.931a.215.215,0,0,0,.1.259,4.838,4.838,0,0,0,5.021-.29,1.01,1.01,0,0,0,.472-.717l.716-5.144Z" transform="translate(-1341.668 -1604.487)" fill="url(#linear-gradient-13)"/>
        <g id="Group_6435" data-name="Group 6435" transform="translate(10.509 2.157)">
          <path id="Path_4070" data-name="Path 4070" d="M1389.165,1495.505s2.219,4.275,1.913,5.99-3.105,1.565-5.538.147l-1.665-4.609Z" transform="translate(-1380.75 -1492.411)" fill="url(#linear-gradient-14)"/>
          <path id="Path_4071" data-name="Path 4071" d="M1320.383,1434.741a.176.176,0,0,0,.079-.256,4.583,4.583,0,0,1-.616-1.341s-.4-.264,1.04-.595,3.6-.846,4.059-2.067c.452-1.191-.676-4.208-2.544-1.83a.176.176,0,0,1-.278,0,1.807,1.807,0,0,0-2.194-.736,1.658,1.658,0,0,0-1.15,1.591.174.174,0,0,1-.208.176,2.022,2.022,0,0,0-2.371,1.078,1.626,1.626,0,0,0,.1,1.953.175.175,0,0,1-.078.29,1.052,1.052,0,0,0-.754,1.193c.051,1.112,1.295,1.026,1.649.979a.175.175,0,0,1,.155.057,5.977,5.977,0,0,0,3.132,1.964.177.177,0,0,0,.188-.232l-.622-1.868a.176.176,0,0,1,.1-.217Z" transform="translate(-1315.464 -1427.764)" fill="#37474f"/>
          <path id="Path_4072" data-name="Path 4072" d="M1392.558,1574.656s-1.6-1.119-1.725-.191,1.436,1.36,2.215,1.021Z" transform="translate(-1387.383 -1567.413)" fill="url(#linear-gradient-15)"/>
        </g>
        <g id="Group_6437" data-name="Group 6437" transform="translate(13.51 21.735)">
          <g id="Group_6436" data-name="Group 6436">
            <path id="Path_4073" data-name="Path 4073" d="M1381.175,1870.4l3.715-12.972a.378.378,0,0,1,.32-.272c.673-.079,2.623-.3,4.875-.49a55.333,55.333,0,0,1,7.744-.257.38.38,0,0,1,.31.546c-1.07,2.165-5.473,10.973-7.677,13.859a.38.38,0,0,1-.306.15l-8.618-.08A.38.38,0,0,1,1381.175,1870.4Z" transform="translate(-1381.16 -1856.353)" fill="#00578d"/>
            <path id="Path_4074" data-name="Path 4074" d="M1393.646,2002.913a9.438,9.438,0,0,1-.309-2.882c.209-.755.613-1.725,1.961-1.51a19.73,19.73,0,0,1,2.938.783.772.772,0,0,1-1.1.666l.636.492s-.091.787-.956.366l.591.652a.689.689,0,0,1-1.008.232C1395.757,2001.3,1395.452,2003.169,1393.646,2002.913Z" transform="translate(-1392.734 -1991.997)" fill="#febbba"/>
          </g>
          <path id="Path_4075" data-name="Path 4075" d="M1571.1,1925.262a1.09,1.09,0,1,0,1.09-1.09A1.091,1.091,0,0,0,1571.1,1925.262Z" transform="translate(-1562.421 -1921.074)" fill="#fff"/>
          <path id="Path_4076" data-name="Path 4076" d="M1466.194,1878.686l-.278-.082.756-2.565a1.167,1.167,0,0,1,.88-.819,74.434,74.434,0,0,1,8.978-.607l0,.29a75.994,75.994,0,0,0-8.923.6.88.88,0,0,0-.661.617Z" transform="translate(-1462.044 -1873.779)" fill="#fff"/>
        </g>
      </g>
      <g id="Group_6439" data-name="Group 6439" transform="translate(0 60.027)">
        <path id="Path_4077" data-name="Path 4077" d="M463.343,2758.484c-.4.586-1.97,13.852-2.216,18.752a.579.579,0,0,0,.58.607h0a.581.581,0,0,0,.574-.491l2.878-18.446Z" transform="translate(-460.961 -2755.567)" fill="#6dc5ff"/>
        <path id="Path_4078" data-name="Path 4078" d="M748.689,2758.484c.4.586,1.97,13.852,2.216,18.752a.579.579,0,0,1-.58.607h0a.581.581,0,0,1-.574-.491l-2.879-18.446Z" transform="translate(-733.655 -2755.567)" fill="#6dc5ff"/>
        <path id="Path_4079" data-name="Path 4079" d="M457.51,2696.509v.144a1.973,1.973,0,0,0,2.01,1.914l13.3.226a1.989,1.989,0,0,0,2.083-1.8l.007-.133a1.965,1.965,0,0,0-2.005-1.99l-13.31-.239A1.982,1.982,0,0,0,457.51,2696.509Z" transform="translate(-457.508 -2694.627)" fill="#6dc5ff"/>
      </g>
      <g id="Group_6443" data-name="Group 6443" transform="translate(3.951 20.598)">
        <g id="Group_6440" data-name="Group 6440" transform="translate(20.173 58.199)">
          <path id="Path_4080" data-name="Path 4080" d="M990.032,3150.317a11.891,11.891,0,0,1-3.879-.389.9.9,0,0,0,.874.695h8.367a.406.406,0,0,0,.392-.513C994.832,3150.187,992.807,3150.317,990.032,3150.317Z" transform="translate(-986.129 -3147.9)" fill="#141d22"/>
          <path id="Path_4081" data-name="Path 4081" d="M995.287,3107.728a.4.4,0,0,0-.068-.143,4.824,4.824,0,0,0-3.659-2.067c-2.551.036-3.441.313-5.423.016l-.468,1.55a.892.892,0,0,0-.014.463,11.917,11.917,0,0,0,3.879.388C992.308,3107.935,994.333,3107.8,995.287,3107.728Z" transform="translate(-985.63 -3105.518)" fill="#37474f"/>
        </g>
        <path id="Path_4082" data-name="Path 4082" d="M997.277,3069.292l-.574,1.953a3.379,3.379,0,0,0,2.391.114l.22-1.692Z" transform="translate(-976.024 -3012.748)" fill="url(#linear-gradient-16)"/>
        <g id="Group_6441" data-name="Group 6441" transform="translate(34.45 55.377)">
          <path id="Path_4083" data-name="Path 4083" d="M1320.667,3052.859a11.969,11.969,0,0,1-3.266,2.129.9.9,0,0,0,1.115-.009l6.522-5.24a.406.406,0,0,0-.015-.645C1324.328,3049.752,1322.83,3051.122,1320.667,3052.859Z" transform="translate(-1316.522 -3048.85)" fill="#141d22"/>
          <path id="Path_4084" data-name="Path 4084" d="M1306.659,3043.972a.388.388,0,0,0-.142-.067,4.826,4.826,0,0,0-4.141.688c-1.966,1.625-2.488,2.4-4.218,3.409l.6,1.5a.888.888,0,0,0,.277.368,11.993,11.993,0,0,0,3.266-2.129C1304.465,3046,1305.963,3044.629,1306.659,3043.972Z" transform="translate(-1298.157 -3043.727)" fill="#37474f"/>
        </g>
        <path id="Path_4085" data-name="Path 4085" d="M683.456,2582.274s14.16,1.156,17.065,2.524-2.371,20.532-2.371,20.532a3.8,3.8,0,0,1-2.55-.167s1.8-14.143.462-17.21l-15.331-2.507Z" transform="translate(-674.485 -2547.977)" fill="#37474f"/>
        <path id="Path_4086" data-name="Path 4086" d="M1267.358,3060.928c.132.12,1.407,2.692,1.407,2.692s1.42-.307,1.71-1.206l-1.278-2.322Z" transform="translate(-1234.315 -3003.968)" fill="url(#linear-gradient-16)"/>
        <path id="Path_4087" data-name="Path 4087" d="M544.452,2579.684a7.167,7.167,0,0,0-.443,2.586,3.882,3.882,0,0,0,3.7,3.8l16.739.763a.8.8,0,0,1,.741.6c.393,1.521,2.316,6.194,11.714,15.517a.757.757,0,0,0,.937.1l1.338-.845a.308.308,0,0,0,.1-.416l-9.746-16.644a3.772,3.772,0,0,0-2.292-1.7L552.98,2579.8Z" transform="translate(-544.009 -2545.505)" fill="#37474f"/>
        <path id="Path_4088" data-name="Path 4088" d="M839.179,2010.541a21.064,21.064,0,0,1-3.621,4.707l3.779,2.108s.852-3.356,2.8-4.34Z" transform="translate(-822.24 -2002.361)" fill="url(#linear-gradient-18)"/>
        <path id="Path_4089" data-name="Path 4089" d="M547.055,2123.883a20.708,20.708,0,0,0,8.832,0s6.036-8.113,8.371-10.322a16.608,16.608,0,0,0,12.015,6.71l.462-1.033s-6.6-3.042-8.632-7.717-2.848-6.668-4.7-7.888c-1.151-.76-1.841-1.279-2.2-1.562a.591.591,0,0,0-.677-.043C558.572,2103.223,549.341,2109.545,547.055,2123.883Z" transform="translate(-546.916 -2089.585)" fill="#0fa4ff"/>
        <path id="Path_4090" data-name="Path 4090" d="M865.57,2258.984a.289.289,0,0,1-.23-.114,18.01,18.01,0,0,1-2.274-4.031.29.29,0,1,1,.541-.208,17.76,17.76,0,0,0,2.193,3.886.29.29,0,0,1-.23.467Z" transform="translate(-848.473 -2235.123)" fill="url(#linear-gradient-19)"/>
        <path id="Path_4091" data-name="Path 4091" d="M1175.762,2449.17l.933-.248,2.833-.656a1.313,1.313,0,0,1,1,.168l2.436,1.532-6.727-.011Z" transform="translate(-1146.903 -2420.058)" fill="url(#linear-gradient-16)"/>
        <g id="Group_6442" data-name="Group 6442" transform="translate(12.277)">
          <path id="Path_4092" data-name="Path 4092" d="M871.164,1906.466a19.883,19.883,0,0,1,2.045,4.5c.3,1.6.788,2.6-1.034,3.172a4,4,0,0,1-4.579-1.646s-1.66-2.3-1.494-3.353S871.164,1906.466,871.164,1906.466Z" transform="translate(-863.655 -1903.04)" fill="url(#linear-gradient-21)"/>
          <path id="Path_4093" data-name="Path 4093" d="M817.2,1839.673l.236-.031s-1.234-1.865-.427-2.327,4.1-1.6,4.669-2.893a2.25,2.25,0,0,0-1.267-2.955.126.126,0,0,0-.152.08l-.058.157a.128.128,0,0,1-.237.007h0a.127.127,0,0,0-.232,0c-.176.388-.7,1.051-2.286,1.564-2.245.728-3.644,1.859-3.472,3.455a.128.128,0,0,1-.182.13c-.183-.081-.462-.094-.785.26-.562.615-.122,1.959,1.413,2.91a.127.127,0,0,1,.021.2c-.23.2-.552.635.486,1.025a2.61,2.61,0,0,0,1.856.179.128.128,0,0,0,.079-.144l-.273-1.4a.128.128,0,0,1,.109-.151Z" transform="translate(-812.773 -1831.461)" fill="#37474f"/>
          <path id="Path_4094" data-name="Path 4094" d="M874.118,1988.859s-.769-1.9-1.577-1.23.746,2.139,1.464,2.12Z" transform="translate(-869.595 -1980.36)" fill="url(#linear-gradient-22)"/>
        </g>
      </g>
      <g id="Group_6446" data-name="Group 6446" transform="translate(29.6 37.408)">
        <g id="Group_6444" data-name="Group 6444" transform="translate(0 13.12)">
          <path id="Path_4095" data-name="Path 4095" d="M1106.1,2487.977h.033l14.372-.014a.642.642,0,1,0,0-1.284l-14.372.014a.642.642,0,0,0-.032,1.284Z" transform="translate(-1105.486 -2486.679)" fill="#093e5f"/>
        </g>
        <g id="Group_6445" data-name="Group 6445" transform="translate(14.46)">
          <path id="Path_4096" data-name="Path 4096" d="M1428.164,2199.8l-.015.03-6.047,13.038a.642.642,0,1,0,1.165.54l6.047-13.038a.642.642,0,0,0-1.15-.57Z" transform="translate(-1422.042 -2199.455)" fill="#093e5f"/>
        </g>
      </g>
      <g id="Group_6452" data-name="Group 6452" transform="translate(54.64 19.002)">
        <g id="Group_6447" data-name="Group 6447" transform="translate(24.329 42.251)">
          <rect id="Rectangle_441" data-name="Rectangle 441" width="1.517" height="16.404" transform="translate(7.331 3.676)" fill="#6dc5ff"/>
          <path id="Path_4097" data-name="Path 4097" d="M2231.195,3147.343h-13.286a.988.988,0,0,1,.988-.988h11.311a.987.987,0,0,1,.987.988Z" transform="translate(-2216.463 -3126.946)" fill="#6dc5ff"/>
          <rect id="Rectangle_442" data-name="Rectangle 442" width="16.704" height="4.738" rx="2.369" fill="#6dc5ff"/>
        </g>
        <g id="Group_6448" data-name="Group 6448" transform="translate(1.629 31.908)">
          <path id="Path_4098" data-name="Path 4098" d="M2006.294,2562.489a13.2,13.2,0,0,0-4.789,2.043,1.265,1.265,0,0,0-.557,1.208,53.558,53.558,0,0,0,5.666,17.782,1.916,1.916,0,0,1,.184,1.313l-.715,3.327-1.326,1.243h3.414l2.273-6.152-.972-.308a1.839,1.839,0,0,1-1.284-1.721l-.114-6.6a7.51,7.51,0,0,0-1.8-4.969l5.453-.265Z" transform="translate(-1986.704 -2559.408)" fill="url(#linear-gradient-23)"/>
          <path id="Path_4099" data-name="Path 4099" d="M2054.955,3017.035c-.312.407,3.346.944,5.194.053,0,0,2.562-4.457,2.562-6.751,0,0-.2-.468-1.708-.362,0,0-.86,5.277-1.768,5.868a3.625,3.625,0,0,1-2.542.06A5.336,5.336,0,0,0,2054.955,3017.035Z" transform="translate(-2038.234 -2986.438)" fill="#004465"/>
          <path id="Path_4100" data-name="Path 4100" d="M1746.462,2587.449c-.029-.05-5.871-.7-5.871-.7a13.507,13.507,0,0,1-.406,4.222c-.6,2.445-9.175,13.038-9.175,13.038l.9,2.851a14.468,14.468,0,0,1-8.208.494l5.574-3.345s5.216-17.776,8.412-20.947l5.856-2.026Z" transform="translate(-1722.131 -2577.106)" fill="url(#linear-gradient-24)"/>
          <path id="Path_4101" data-name="Path 4101" d="M2052.955,2495.044s3.365,5.006,3.642,7.29-.922,3.211-4.453,3.364-12.959.151-12.959.151l-8.047-6.877s5.864-2.093,7.388-2.684S2052.955,2495.044,2052.955,2495.044Z" transform="translate(-2015.523 -2495.044)" fill="#37474f"/>
          <path id="Path_4102" data-name="Path 4102" d="M1698.752,3125.337a1.646,1.646,0,0,1,.314,1.981s-7.67,1.36-9.753.743c0,0,.432-.987,2.777-2.11l-.173.133a.28.28,0,0,0,.185.5A21.561,21.561,0,0,0,1698.752,3125.337Z" transform="translate(-1689.314 -3096.545)" fill="#004465"/>
        </g>
        <g id="Group_6450" data-name="Group 6450" transform="translate(18.263)">
          <path id="Path_4103" data-name="Path 4103" d="M2139.1,1796.7c6.88-1.17,10.12,4.442,9.883,5.621a.215.215,0,0,0,.27.247,3.4,3.4,0,0,1,3.617.875,2.125,2.125,0,0,1-.341,2.946.217.217,0,0,0,.181.367c1.453-.183,4.608-.227,5.125,2.729a2.951,2.951,0,0,1-2.575,3.753.216.216,0,0,0-.072.4,2.3,2.3,0,0,1,.959,2.573c-.416,2.3-4.93,2.113-5.457,2.084a.216.216,0,0,1-.094-.028l-7.229-4.123a.22.22,0,0,1-.107-.152l-1.459-8.428a.217.217,0,0,1,.057-.188l-4.712-6.65C2135.44,1798.466,2139.024,1796.711,2139.1,1796.7Z" transform="translate(-2132.886 -1796.538)" fill="#37474f"/>
          <path id="Path_4104" data-name="Path 4104" d="M2164.193,2101.425a76.824,76.824,0,0,1-5.849-6.2,5.248,5.248,0,0,1-.888-4.72,65.131,65.131,0,0,1,2.589-6.52c.219-.733,4.613-.7,4.613-.7s8.648,5.613,12.046,15.12l-3.816,1.188a44.584,44.584,0,0,0-4.489-6.2s3.861,5.1,4,7.188Z" transform="translate(-2152.497 -2070.18)" fill="#0fa4ff"/>
          <path id="Path_4105" data-name="Path 4105" d="M2207.052,1965.563c.046.152,1.193,3.955,1.283,4.034a6.419,6.419,0,0,0,3.657-.571l-2.833-5.54Z" transform="translate(-2200.035 -1955.86)" fill="url(#linear-gradient-25)"/>
          <g id="Group_6449" data-name="Group 6449" transform="translate(0 0.685)">
            <path id="Path_4106" data-name="Path 4106" d="M2104.348,1872.369a7.748,7.748,0,0,0,.98,5.108c1.533,2.93,3.27,2.927,4.219,1.989a6.181,6.181,0,0,0,1.841-5.362C2111.11,1871.271,2105.148,1869.6,2104.348,1872.369Z" transform="translate(-2101.929 -1868.237)" fill="url(#linear-gradient-26)"/>
            <path id="Path_4107" data-name="Path 4107" d="M2060.775,1817.563s-2.545-3.89-4.931-.828l-.043,1.114s-2.794-.332-2.306-2.894,2.905-4.164,6.015-3.054,4.892,2.248,5.093,4.478-1.573,1.74-1.573,1.74-.578-1.569-1.4-1.733-.609,1.061-.609,1.061Z" transform="translate(-2053.438 -1811.542)" fill="#37474f"/>
            <path id="Path_4108" data-name="Path 4108" d="M2216.264,1893.823s-1.32-1.992.032-2.289,1.143,1.941,1,2.769Z" transform="translate(-2208.275 -1887.854)" fill="url(#linear-gradient-27)"/>
          </g>
          <path id="Path_4109" data-name="Path 4109" d="M2134.69,2417.583l2.88-2.776,3.983,1.683s3.966.614,6.235,0l2.269-.614,5.129-1.6.806,2.277a1.37,1.37,0,0,1-.5,1.574,9.021,9.021,0,0,1-1.3.807c-.675.3-16.649-.2-16.649-.2Z" transform="translate(-2130.978 -2386.06)" fill="url(#linear-gradient-28)"/>
        </g>
        <g id="Group_6451" data-name="Group 6451" transform="translate(0 17.664)">
          <path id="Path_4110" data-name="Path 4110" d="M2007.867,2483.643h-.039l-16.7-.018a.748.748,0,0,1,0-1.5l16.7.019a.748.748,0,0,1,.037,1.494Z" transform="translate(-1974.995 -2468.476)" fill="#00578d"/>
          <path id="Path_4111" data-name="Path 4111" d="M1654.758,2183.226h13.912a2.651,2.651,0,0,1,2.4,1.521l6.432,13.637h-17.289a1.611,1.611,0,0,1-1.5-1.019l-4.987-12.62A1.111,1.111,0,0,1,1654.758,2183.226Z" transform="translate(-1653.646 -2183.226)" fill="#00578d"/>
          <path id="Path_4112" data-name="Path 4112" d="M1846.148,2307.188c.3.937.079,1.846-.5,2.032s-1.288-.424-1.589-1.36-.079-1.846.5-2.031S1845.846,2306.252,1846.148,2307.188Z" transform="translate(-1835.235 -2300.197)" fill="#fff"/>
        </g>
      </g>
      <g id="Group_6456" data-name="Group 6456" transform="translate(87.321 3.957)">
        <g id="Group_6453" data-name="Group 6453" transform="translate(10.205 36.597)">
          <path id="Path_4113" data-name="Path 4113" d="M2601.505,3107.567a20.318,20.318,0,0,1,.245,2.129.917.917,0,0,1-.827.968,40.6,40.6,0,0,1-8.087.114.417.417,0,0,1-.229-.718,12.907,12.907,0,0,1,7.573-3.218Z" transform="translate(-2592.475 -3068.54)" fill="url(#linear-gradient-29)"/>
          <path id="Path_4114" data-name="Path 4114" d="M2747.112,3055.538l-.865,2.118a.707.707,0,0,1-.726.438,3.844,3.844,0,0,1-.705-.137.928.928,0,0,1-.618-1.153l.653-2.183Z" transform="translate(-2737.231 -3018.704)" fill="url(#linear-gradient-30)"/>
          <path id="Path_4115" data-name="Path 4115" d="M3081.094,3159.651a9.073,9.073,0,0,0-2.406,3.306.79.79,0,0,0,.751,1.049H3083a.84.84,0,0,0,.831-.982C3083.6,3161.742,3082.95,3159.657,3081.094,3159.651Z" transform="translate(-3056.434 -3118.936)" fill="url(#linear-gradient-29)"/>
          <path id="Path_4116" data-name="Path 4116" d="M3123.815,3112.87s-.35,1.548-.618,2.571a.327.327,0,0,1-.428.223,2.976,2.976,0,0,0-1.3-.235.253.253,0,0,1-.278-.252l-.033-2.57Z" transform="translate(-3097.011 -3074.04)" fill="url(#linear-gradient-32)"/>
          <path id="Path_4117" data-name="Path 4117" d="M2757.751,2272.345l-10.53,32.122s2.02,1.323,2.982,1.268l12.506-25.815s2.188,15.907,1.128,27.327l3.583.273s5.825-29.183,1.413-39.179Z" transform="translate(-2740.153 -2268.34)" fill="#37474f"/>
          <path id="Path_4118" data-name="Path 4118" d="M3074.133,2443.733h.012a.1.1,0,0,0,.089-.114l-.409-3.243a.1.1,0,0,0-.2.025l.409,3.243A.1.1,0,0,0,3074.133,2443.733Z" transform="translate(-3051.644 -2432.431)" fill="#758e9a"/>
        </g>
        <path id="Path_4119" data-name="Path 4119" d="M2720.359,1737.226s8.531.758,7.324,6.836a82.875,82.875,0,0,1,6.92,19.328.614.614,0,0,1-.5.73l-14.207,2.432a.764.764,0,0,1-.869-.562l-3.4-13.119-1.323,6.1-4.2-1.095,3.538-17.923S2714.14,1737.338,2720.359,1737.226Z" transform="translate(-2694.53 -1724.891)" fill="url(#linear-gradient-33)"/>
        <path id="Path_4120" data-name="Path 4120" d="M2802.542,1948.875l.023,0a.1.1,0,0,0,.081-.126l-1.184-5.438a.106.106,0,0,0-.207.045l1.184,5.437A.106.106,0,0,0,2802.542,1948.875Z" transform="translate(-2781.51 -1921.48)" fill="#91b3fa"/>
        <path id="Path_4121" data-name="Path 4121" d="M2786.856,2225.636a2.031,2.031,0,0,1,1.468-.19l.988.246a.358.358,0,0,0,.442-.308l1.023-9.1a8.373,8.373,0,0,0,3.733.49l-2.354,10.733h-8.238Z" transform="translate(-2764.968 -2182.061)" fill="url(#linear-gradient-34)"/>
        <path id="Path_4122" data-name="Path 4122" d="M2369.078,1859.474l.249-.828a1.637,1.637,0,0,1,.957-1.047l4.5-1.811s.068-.578-.951-.97a1.355,1.355,0,0,1-.781-1.534s1.393.636,3.432,1.643a4.772,4.772,0,0,1,2.167,2.36l10.2,12.441-1.2.823a3.2,3.2,0,0,1-4.638-1.138l-5.528-10.6A20.609,20.609,0,0,1,2369.078,1859.474Z" transform="translate(-2369.078 -1835.647)" fill="url(#linear-gradient-35)"/>
        <g id="Group_6455" data-name="Group 6455" transform="translate(13.221)">
          <path id="Path_4123" data-name="Path 4123" d="M2817.242,1608.375l2.624,7.343s-2.324,1.816-4.019,1.2l-1.322-4.209S2815.534,1607.566,2817.242,1608.375Z" transform="translate(-2807.397 -1601.843)" fill="url(#linear-gradient-36)"/>
          <g id="Group_6454" data-name="Group 6454">
            <path id="Path_4124" data-name="Path 4124" d="M2702.58,1521.923c0,.113,2.527,7.155,2.527,7.155l3.99-1.529-1.4-7.03S2702.58,1520.029,2702.58,1521.923Z" transform="translate(-2700.567 -1518.028)" fill="url(#linear-gradient-37)"/>
            <path id="Path_4125" data-name="Path 4125" d="M2664.935,1471.387l1.029,3.643a.529.529,0,0,1,.021.142c0,.3-.073,1.32-1.115,1.18a4.751,4.751,0,0,0-2.359.032.528.528,0,0,0-.273.657,22.854,22.854,0,0,0,1.437,3.244.527.527,0,0,0,.678.217,17.025,17.025,0,0,0,3.421-2.013.526.526,0,0,0,.187-.507c-.175-.932-.7-3.766-.719-4.579-.021-.762.834-1.344,1.211-1.563a.517.517,0,0,0,.244-.329,1.37,1.37,0,0,0-1.2-1.846.529.529,0,0,1-.43-.63,1.373,1.373,0,0,0-1.033-1.769,1.937,1.937,0,0,0-2.208.881.53.53,0,0,1-.656.175.417.417,0,0,0-.468.084.522.522,0,0,1-.763-.116,1.578,1.578,0,0,0-1.946-.643c-1.8.583-1.717,2.662-1.056,3.792s2.579.387,3.488-.362a2.26,2.26,0,0,1,2.206-.033A.523.523,0,0,1,2664.935,1471.387Z" transform="translate(-2658.508 -1467.183)" fill="#37474f"/>
            <path id="Path_4126" data-name="Path 4126" d="M2845.051,1569.471s-1.067-2.018-.361-2.652,1.9-.53,1.868,1.048C2846.518,1569.831,2845.051,1569.471,2845.051,1569.471Z" transform="translate(-2835.954 -1561.921)" fill="url(#linear-gradient-38)"/>
          </g>
        </g>
        <path id="Path_4127" data-name="Path 4127" d="M2924.029,1923.56a10.211,10.211,0,0,0,1.042-.049l.076-.009,3.107-14.483a.106.106,0,1,0-.207-.044l-3.074,14.333c-.463.041-2.931.2-4.235-.719l2.691-12.583-.562-1.058a.106.106,0,1,0-.187.1l.526.99-2.7,12.641.054.041A6.168,6.168,0,0,0,2924.029,1923.56Z" transform="translate(-2895.314 -1888.714)" fill="#91b3fa"/>
      </g>
      <g id="Group_6457" data-name="Group 6457" transform="translate(22.37 52.977)">
        <path id="Path_4128" data-name="Path 4128" d="M947.766,2570.263a.494.494,0,0,1-.214-.049.611.611,0,0,1-.283-.776l11.351-28.8a.525.525,0,0,1,.711-.309.612.612,0,0,1,.283.776l-11.351,28.8A.542.542,0,0,1,947.766,2570.263Z" transform="translate(-947.225 -2540.279)" fill="#0a9eff"/>
        <path id="Path_4129" data-name="Path 4129" d="M990.55,2570.26a.542.542,0,0,1-.5-.358L978.7,2541.1a.612.612,0,0,1,.283-.776.525.525,0,0,1,.711.309l11.351,28.8a.611.611,0,0,1-.283.775A.5.5,0,0,1,990.55,2570.26Z" transform="translate(-977.222 -2540.277)" fill="#0a9eff"/>
        <path id="Path_4130" data-name="Path 4130" d="M2634.189,2570.263a.5.5,0,0,1-.213-.049.611.611,0,0,1-.283-.776l11.351-28.8a.525.525,0,0,1,.711-.309.612.612,0,0,1,.283.776l-11.351,28.8A.543.543,0,0,1,2634.189,2570.263Z" transform="translate(-2556.613 -2540.279)" fill="#0a9eff"/>
        <path id="Path_4131" data-name="Path 4131" d="M2676.973,2570.26a.542.542,0,0,1-.5-.358l-11.351-28.8a.612.612,0,0,1,.283-.776.525.525,0,0,1,.711.309l11.351,28.8a.611.611,0,0,1-.283.775A.5.5,0,0,1,2676.973,2570.26Z" transform="translate(-2586.608 -2540.277)" fill="#0a9eff"/>
      </g>
      <g id="Group_6458" data-name="Group 6458" transform="translate(97.799 49.22)">
        <path id="Path_4132" data-name="Path 4132" d="M2609.439,2468.126h16.44v-1.7h-16.44C2609.791,2466.43,2609.791,2468.126,2609.439,2468.126Z" transform="translate(-2608.938 -2466.046)" fill="#b2e6ff"/>
        <path id="Path_4133" data-name="Path 4133" d="M2615.251,2460.112a.154.154,0,0,0,.155-.154v-1.388a.155.155,0,0,0-.155-.155h-16.632a.154.154,0,0,1-.154-.154v-.075a.155.155,0,0,1,.154-.154h17.729a.709.709,0,0,1,.709.71v1.084a.669.669,0,0,1-.669.669h-17.769a.155.155,0,0,1-.154-.154v-.075a.155.155,0,0,1,.154-.154Z" transform="translate(-2598.465 -2458.032)" fill="url(#linear-gradient-39)"/>
      </g>
      <path id="Path_4134" data-name="Path 4134" d="M920.127,2512.541a.5.5,0,0,0-.205-.534,1.217,1.217,0,0,0-.751-.235H820.661a1.335,1.335,0,0,0-.944.343.535.535,0,0,0-.073.712l1.067,1.533a1.665,1.665,0,0,0,1.357.575h96.426a1.111,1.111,0,0,0,1.111-.608Z" transform="translate(-803.003 -2460.097)" fill="#0a9eff"/>
    </g>
  </g>
</svg>
