<svg xmlns="http://www.w3.org/2000/svg" xmlns:xlink="http://www.w3.org/1999/xlink" width="232" height="232" viewBox="0 0 232 232">
  <defs>
    <linearGradient id="linear-gradient" x1="-0.764" y1="-0.181" x2="-0.444" y2="1.248" gradientUnits="objectBoundingBox">
      <stop offset="0" stop-color="#02a8ff"/>
      <stop offset="1" stop-color="#0079f1"/>
    </linearGradient>
    <clipPath id="clip-Digitization_Strategy">
      <rect width="232" height="232"/>
    </clipPath>
  </defs>
  <g id="Digitization_Strategy" data-name="Digitization Strategy" clip-path="url(#clip-Digitization_Strategy)">
    <rect width="232" height="232" fill="#fff"/>
    <g id="Group_3" data-name="Group 3" transform="translate(555.194 152.448)">
      <path id="Path_13" data-name="Path 13" d="M-224.842-62.531c-.269.835-.549,1.667-.808,2.506a17.675,17.675,0,0,1-23.309,11.44A3,3,0,0,0-252.5-48c-4.631,3.959-9.364,7.8-14,11.75a9.153,9.153,0,0,1-6.3,2.307c-10.33-.062-20.66-.026-30.99-.026h-2.124V-47.357h2.412c9.215,0,18.431.032,27.645-.047a5.181,5.181,0,0,0,2.973-1.052q6.094-4.868,11.98-9.993a2.911,2.911,0,0,0,.85-2.317c-2.053-10.14,3.611-19.571,13.194-21.8,9.934-2.31,19.187,3.634,21.649,13.9a4.2,4.2,0,0,0,.368.782Z" transform="translate(-99.855 -27.212)" fill="url(#linear-gradient)"/>
      <path id="Path_14" data-name="Path 14" d="M-224.828,115.519c-.247.764-.511,1.523-.74,2.292a17.839,17.839,0,0,1-21.5,12.335,17.739,17.739,0,0,1-13.024-20.853,3.174,3.174,0,0,0-1.247-3.73c-3.855-3.027-7.52-6.3-11.371-9.33a5.919,5.919,0,0,0-3.365-1.189c-9.878-.091-19.758-.052-29.808-.052V81.727c.6-.04,1.244-.119,1.885-.119,10.4-.008,20.809.031,31.212-.032a9.149,9.149,0,0,1,6.3,2.308q7.04,6,14.227,11.826a3.3,3.3,0,0,0,2.649.63c11.125-3.987,21.669,1.606,24.413,13.042a4.152,4.152,0,0,0,.368.782Z" transform="translate(-99.869 -93.694)" fill="url(#linear-gradient)"/>
      <path id="Path_15" data-name="Path 15" d="M-224.835,31.012c-.247.764-.511,1.523-.74,2.293a17.917,17.917,0,0,1-15.313,12.8,17.678,17.678,0,0,1-17.419-9.3A2.925,2.925,0,0,0-261.371,35c-13.978.053-27.955.031-41.933.031H-305.9V21.639h2.376q21.189,0,42.379.016a2.429,2.429,0,0,0,2.615-1.416,17.716,17.716,0,0,1,17.861-9.657,17.912,17.912,0,0,1,15.423,14.071,6.9,6.9,0,0,0,.406,1Z" transform="translate(-99.862 -64.97)" fill="url(#linear-gradient)"/>
      <path id="Path_16" data-name="Path 16" d="M-523.013,18.933a101.974,101.974,0,0,1-14.762-35.488c-2.6,0-5.182.008-7.765,0-4.944-.017-7.635-2.65-7.643-7.519q-.02-12.606,0-25.213c.009-4.748,2.713-7.408,7.5-7.429,2.589-.011,5.179,0,7.891,0a102.3,102.3,0,0,1,14.843-35.6c-1.886-1.718-3.859-3.4-5.695-5.211-3.544-3.5-3.552-7.206-.082-10.691q8.9-8.933,17.828-17.828c3.381-3.364,7.129-3.346,10.54.073,1.83,1.834,3.557,3.77,5.383,5.716a101.824,101.824,0,0,1,35.5-14.754c0-2.7-.013-5.361,0-8.019.027-4.644,2.716-7.386,7.311-7.4,8.627-.021,17.255-.034,25.882.007a6.617,6.617,0,0,1,6.949,6.846q.055,24.654,0,49.309a1.166,1.166,0,0,1-.077.331c-30.962-7.761-56.265.243-72.545,28.416-12.208,21.124-10.36,42.863,3.172,63.2,7.485,11.251,18.044,18.813,30.911,22.993,12.785,4.153,25.589,3.854,38.558-.473v2.419q0,23.317,0,46.633c0,5.36-2.555,7.9-7.93,7.905q-12.383.008-24.766,0c-4.762-.01-7.44-2.707-7.464-7.474-.013-2.592,0-5.183,0-7.932a101.978,101.978,0,0,1-35.463-14.766c-1.813,1.917-3.593,3.892-5.472,5.768-3.386,3.381-7.136,3.358-10.544-.035Q-519.8,43.9-528.618,35.049q-5.392-5.42.036-10.859C-526.8,22.411-524.922,20.729-523.013,18.933Z" transform="translate(0 0)" fill="url(#linear-gradient)"/>
      <path id="Path_17" data-name="Path 17" d="M-373.915,8.73c0,13.46-.017,26.919.027,40.378A2.412,2.412,0,0,1-375.5,51.8c-28.321,12.441-61.5-6.648-64.969-37.428A46.842,46.842,0,0,1-391.462-38.08a47.848,47.848,0,0,1,15.779,3.631,2.516,2.516,0,0,1,1.805,2.8C-373.942-18.19-373.915-4.73-373.915,8.73Z" transform="translate(-45.391 -45.353)" fill="url(#linear-gradient)"/>
      <path id="Path_18" data-name="Path 18" d="M-305.95-135.533c4.55,0,8.994-.067,13.435.038a2.738,2.738,0,0,0,2.889-1.731,17.656,17.656,0,0,1,21.71-8.4,17.822,17.822,0,0,1,11.431,20.306,17.724,17.724,0,0,1-18.407,14.277,16.954,16.954,0,0,1-14.594-9.2,3.239,3.239,0,0,0-3.445-1.936c-4.3.1-8.595.033-13.018.033Z" transform="translate(-99.84 -1.514)" fill="url(#linear-gradient)"/>
      <path id="Path_19" data-name="Path 19" d="M-306.087,192.228V179.011c.59-.058,1.152-.16,1.715-.163,3.049-.016,6.11-.174,9.144.039s4.9-.481,6.692-3.411c4.192-6.872,12.819-9.438,20.38-6.808a17.966,17.966,0,0,1,11.971,17.984A17.988,17.988,0,0,1-269.88,202.9a17.682,17.682,0,0,1-19.692-8.774,3.041,3.041,0,0,0-3.215-1.941C-297.152,192.318-301.525,192.228-306.087,192.228Z" transform="translate(-99.785 -128.453)" fill="url(#linear-gradient)"/>
    </g>
  </g>
</svg>
