<svg xmlns="http://www.w3.org/2000/svg" width="57.347" height="59.667" viewBox="0 0 57.347 59.667">
  <g id="Group_69745" data-name="Group 69745" transform="translate(-1294 -1326)">
    <g id="Group_69741" data-name="Group 69741" transform="translate(2531.822 1280.36)">
      <path id="Path_50430" data-name="Path 50430" d="M-1123.241,155.256c.758.8,1.473,1.565,2.213,2.308a.626.626,0,0,0,.525.163c.746-.282,1.216.078,1.68.593q4.554,5.057,9.126,10.1.673.744,1.343,1.49a3.7,3.7,0,0,1-.117,5.224c-.792.794-1.618,1.559-2.478,2.278a3.728,3.728,0,0,1-5.327-.347c-3.491-3.829-6.955-7.682-10.448-11.51a1.427,1.427,0,0,1-.113-2.1l-2.654-2.366a22.664,22.664,0,0,1-20.272,2.047,22.135,22.135,0,0,1-11.911-10.137,22.912,22.912,0,0,1,5.385-29.074,22.888,22.888,0,0,1,29.835.632A22.977,22.977,0,0,1-1123.241,155.256Zm2.14-13.41A20.722,20.722,0,0,0-1141.492,121a20.68,20.68,0,0,0-20.883,20.276,20.616,20.616,0,0,0,20.421,21A20.653,20.653,0,0,0-1121.1,141.845Zm-3.372,22.686c.122.159.186.257.263.343q4.829,5.336,9.663,10.668a1.42,1.42,0,0,0,2.157.06c.745-.633,1.471-1.293,2.169-1.978a1.45,1.45,0,0,0,.041-2.311q-4.681-5.18-9.367-10.355c-.137-.151-.294-.283-.465-.447Zm-.215-7.459-2.8,2.625,2.518,2.174,2.6-2.344Z" transform="translate(-73.143 -73.058)" fill="#002d7c"/>
      <path id="Path_50438" data-name="Path 50438" d="M-1124.692,176.036a17.13,17.13,0,0,1,17.791-17.115,17.13,17.13,0,0,1,16.607,17.787,17.241,17.241,0,0,1-17.814,16.606A17.305,17.305,0,0,1-1124.692,176.036Zm17.156,14.971a14.99,14.99,0,0,0,14.967-15.14,15,15,0,0,0-14.867-14.668,14.922,14.922,0,0,0-14.954,14.566A14.918,14.918,0,0,0-1107.536,191.007Z" transform="translate(-107.397 -107.51)" fill="#002d7c"/>
    </g>
    <path id="Path_50455" data-name="Path 50455" d="M-1050.275,220.368c-.211.447-.5,1.072-.8,1.688-1.406,2.867-2.83,5.726-4.217,8.6a2.59,2.59,0,0,1-1.5,1.408c-3.314,1.276-6.608,2.6-9.9,3.927-.6.24-1.156.35-1.636-.191-.459-.517-.283-1.047-.013-1.593q2.43-4.9,4.832-9.823a2.281,2.281,0,0,1,1.32-1.2c3.4-1.325,6.779-2.689,10.171-4.029A1.194,1.194,0,0,1-1050.275,220.368Zm-10.011,4.548,3.488,3.558,3.021-6.148Zm1.652,5.39-3.458-3.563-3.021,6.135Z" transform="translate(2376.383 1121.35)" fill="#009eff"/>
  </g>
</svg>
