<svg xmlns="http://www.w3.org/2000/svg" xmlns:xlink="http://www.w3.org/1999/xlink" width="150" height="150" viewBox="0 0 150 150">
  <defs>
    <linearGradient id="linear-gradient" x1="0.5" x2="0.5" y2="1" gradientUnits="objectBoundingBox">
      <stop offset="0" stop-color="#98e4ff"/>
      <stop offset="1" stop-color="#f1f8fd"/>
    </linearGradient>
  </defs>
  <g id="Group_58175" data-name="Group 58175" transform="translate(-330 -1899)">
    <circle id="Ellipse_727" data-name="Ellipse 727" cx="75" cy="75" r="75" transform="translate(330 1899)" fill="url(#linear-gradient)"/>
    <g id="Website_Creator-rafiki_1_" data-name="Website Creator-rafiki (1)" transform="translate(356.855 1875.777)">
      <g id="freepik--background-complete--inject-9" transform="translate(0 55)">
        <rect id="Rectangle_10184" data-name="Rectangle 10184" width="96.29" height="0.048" transform="translate(0 63.051)" fill="#ebebeb"/>
        <rect id="Rectangle_10185" data-name="Rectangle 10185" width="6.378" height="0.048" transform="translate(80.263 66.149)" fill="#ebebeb"/>
        <rect id="Rectangle_10186" data-name="Rectangle 10186" width="1.674" height="0.048" transform="translate(62.113 66.673)" fill="#ebebeb"/>
        <rect id="Rectangle_10187" data-name="Rectangle 10187" width="3.696" height="0.048" transform="translate(76.375 64.362)" fill="#ebebeb"/>
        <rect id="Rectangle_10188" data-name="Rectangle 10188" width="8.318" height="0.048" transform="translate(10.103 64.686)" fill="#ebebeb"/>
        <rect id="Rectangle_10189" data-name="Rectangle 10189" width="1.219" height="0.048" transform="translate(20.136 64.686)" fill="#ebebeb"/>
        <rect id="Rectangle_10190" data-name="Rectangle 10190" width="18.041" height="0.048" transform="translate(25.318 65.498)" fill="#ebebeb"/>
        <path id="Path_43510" data-name="Path 43510" d="M76.493,109.461H39.308a1.1,1.1,0,0,1-1.1-1.1V56.09a1.1,1.1,0,0,1,1.1-1.09H76.493a1.1,1.1,0,0,1,1.1,1.1v52.262A1.1,1.1,0,0,1,76.493,109.461ZM39.308,55.039a1.051,1.051,0,0,0-1.05,1.051v52.272a1.051,1.051,0,0,0,1.05,1.051H76.493a1.053,1.053,0,0,0,1.051-1.051V56.09a1.053,1.053,0,0,0-1.051-1.051Z" transform="translate(-30.852 -55)" fill="#dcf5ff"/>
        <path id="Path_43511" data-name="Path 43511" d="M292.787,109.461H255.6a1.1,1.1,0,0,1-1.1-1.1V56.09A1.1,1.1,0,0,1,255.6,55h37.187a1.1,1.1,0,0,1,1.1,1.09v52.272A1.1,1.1,0,0,1,292.787,109.461ZM255.6,55.039a1.053,1.053,0,0,0-1.051,1.051v52.272a1.053,1.053,0,0,0,1.051,1.051h37.187a1.053,1.053,0,0,0,1.051-1.051V56.09a1.053,1.053,0,0,0-1.051-1.051Z" transform="translate(-205.489 -55)" fill="#dcf5ff"/>
        <path id="Path_43512" data-name="Path 43512" d="M318.855,81.414a.94.94,0,0,0-.949-.942.975.975,0,0,0-.272.039,2.033,2.033,0,0,0,.021-.289,1.993,1.993,0,0,0-1.986-1.993,2.106,2.106,0,0,0-.368.033,1.743,1.743,0,0,0-3.231.882h-.029a1.608,1.608,0,0,0,0,3.214h5.9A.944.944,0,0,0,318.855,81.414Z" transform="translate(-250.695 -73.106)" fill="#dcf5ff"/>
        <path id="Path_43513" data-name="Path 43513" d="M324.565,97.755V95.92h-1.5v1.835H321.85l1.968,1.664,1.968-1.664Z" transform="translate(-259.868 -88.04)" fill="#bcecff"/>
        <path id="Path_43514" data-name="Path 43514" d="M125.355,77.045a2,2,0,0,0-2-2,2.032,2.032,0,0,0-.578.085,4.03,4.03,0,0,0,.046-.614,4.237,4.237,0,0,0-4.237-4.237,4.185,4.185,0,0,0-.781.073,3.7,3.7,0,0,0-6.863,1.872h-.062a3.413,3.413,0,1,0,0,6.823H123.41A2,2,0,0,0,125.355,77.045Z" transform="translate(-86.708 -65.96)" fill="#dcf5ff"/>
        <path id="Path_43515" data-name="Path 43515" d="M135.14,98.552v3.9h3.179v-3.9h2.59l-4.181-3.532-4.179,3.532Z" transform="translate(-107.024 -87.313)" fill="#bcecff"/>
        <path id="Path_43516" data-name="Path 43516" d="M208.97,141.144V135.9h16.057v5.192" transform="translate(-168.727 -120.32)" fill="none" stroke="#bcecff" stroke-miterlimit="10" stroke-width="1"/>
        <line id="Line_110" data-name="Line 110" y2="10.172" transform="translate(48.509 10.638)" fill="none" stroke="#bcecff" stroke-miterlimit="10" stroke-width="1"/>
        <rect id="Rectangle_10191" data-name="Rectangle 10191" width="5.92" height="3.707" rx="1.19" transform="translate(45.551 8.641)" fill="#dcf5ff"/>
        <rect id="Rectangle_10192" data-name="Rectangle 10192" width="5.51" height="3.124" rx="0.42" transform="translate(45.755 9.076)" fill="#bcecff"/>
        <rect id="Rectangle_10193" data-name="Rectangle 10193" width="5.92" height="3.707" rx="1.19" transform="translate(37.283 20.348)" fill="#dcf5ff"/>
        <rect id="Rectangle_10194" data-name="Rectangle 10194" width="5.51" height="3.124" rx="0.42" transform="translate(37.488 20.783)" fill="#bcecff"/>
        <rect id="Rectangle_10195" data-name="Rectangle 10195" width="5.92" height="3.707" rx="1.19" transform="translate(45.551 20.348)" fill="#dcf5ff"/>
        <rect id="Rectangle_10196" data-name="Rectangle 10196" width="5.51" height="3.124" rx="0.42" transform="translate(45.755 20.783)" fill="#bcecff"/>
        <rect id="Rectangle_10197" data-name="Rectangle 10197" width="5.92" height="3.707" rx="1.19" transform="translate(53.354 20.348)" fill="#dcf5ff"/>
        <rect id="Rectangle_10198" data-name="Rectangle 10198" width="5.51" height="3.124" rx="0.42" transform="translate(53.558 20.783)" fill="#bcecff"/>
        <rect id="Rectangle_10199" data-name="Rectangle 10199" width="2.403" height="2.403" rx="0.81" transform="translate(46.809 15.58) rotate(-45)" fill="#bcecff"/>
        <rect id="Rectangle_10200" data-name="Rectangle 10200" width="4.189" height="2.509" rx="0.87" transform="translate(13.136 13.028)" fill="#bcecff" opacity="0.8"/>
        <rect id="Rectangle_10201" data-name="Rectangle 10201" width="3.387" height="1.916" rx="0.87" transform="translate(10.996 18.426)" fill="#bcecff"/>
        <rect id="Rectangle_10202" data-name="Rectangle 10202" width="3.387" height="1.916" rx="0.87" transform="translate(16.136 18.426)" fill="#bcecff"/>
        <rect id="Rectangle_10203" data-name="Rectangle 10203" width="1.778" height="1.637" rx="0.818" transform="translate(14.586 22.482)" fill="#bcecff"/>
        <rect id="Rectangle_10204" data-name="Rectangle 10204" width="1.778" height="1.637" rx="0.818" transform="translate(16.843 22.482)" fill="#bcecff"/>
        <rect id="Rectangle_10205" data-name="Rectangle 10205" width="1.778" height="1.637" rx="0.818" transform="translate(19.102 22.482)" fill="#bcecff"/>
        <rect id="Rectangle_10206" data-name="Rectangle 10206" width="1.778" height="1.637" rx="0.818" transform="translate(9.361 22.482)" fill="#bcecff"/>
        <rect id="Rectangle_10207" data-name="Rectangle 10207" width="1.778" height="1.637" rx="0.818" transform="translate(11.811 22.482)" fill="#bcecff"/>
        <path id="Path_43517" data-name="Path 43517" d="M70.587,138.569h.193v-1.348h-2.5V135.68h-.193v1.541h-2.5v1.348h.193v-1.155h4.814Z" transform="translate(-52.951 -120.143)" fill="#bcecff"/>
        <path id="Path_43518" data-name="Path 43518" d="M55.084,161.835h-2.5v.963h.193v-.77h2.311v.77h.193V160.68h-.193Z" transform="translate(-42.454 -140.328)" fill="#bcecff"/>
        <path id="Path_43519" data-name="Path 43519" d="M82.084,162.028V160.68h-.193v1.348H79.58v.77h.193v-.578h2.118v.578h.193v-.578H84.2v.578h.193v-.77Z" transform="translate(-64.255 -140.328)" fill="#bcecff"/>
        <path id="Path_43520" data-name="Path 43520" d="M381,110.463v1.39l.713.067a3.72,3.72,0,0,0,.532,1.279l-.458.553.978.978.553-.458a3.684,3.684,0,0,0,1.279.532l.064.709h1.383l.067-.713a3.684,3.684,0,0,0,1.279-.532l.553.458.978-.978-.456-.547a3.72,3.72,0,0,0,.532-1.279l.713-.067v-1.383l-.713-.067a3.7,3.7,0,0,0-.532-1.277l.458-.553-.978-.978-.553.456a3.721,3.721,0,0,0-1.279-.532l-.067-.713h-1.385l-.067.713a3.72,3.72,0,0,0-1.279.532l-.553-.456-.978.978.458.553a3.7,3.7,0,0,0-.531,1.277Zm4.354-1.181a1.874,1.874,0,1,1-1.874,1.872,1.874,1.874,0,0,1,1.874-1.872Z" transform="translate(-307.627 -96.832)" fill="#dcf5ff"/>
        <path id="Path_43521" data-name="Path 43521" d="M368.811,151.894a2.9,2.9,0,0,0,1-.418l.433.36.77-.77-.358-.433a2.913,2.913,0,0,0,.416-1l.558-.054v-1.084l-.558-.052a2.9,2.9,0,0,0-.416-1l.358-.433-.77-.77-.433.358a2.9,2.9,0,0,0-1-.416l-.052-.558h-1.084l-.052.558a2.9,2.9,0,0,0-1,.416l-.435-.35-.77.77.358.433a2.9,2.9,0,0,0-.416,1l-.559.052v1.084l.559.054a2.914,2.914,0,0,0,.416,1l-.358.429.77.77.433-.36a2.9,2.9,0,0,0,1,.418l.052.557h1.084Zm-2.063-2.854a1.469,1.469,0,1,1,1.469,1.467A1.469,1.469,0,0,1,366.749,149.04Z" transform="translate(-294.547 -128.168)" fill="#dcf5ff"/>
        <path id="Path_43522" data-name="Path 43522" d="M355.468,127.133l.364.3.645-.643-.3-.364a2.431,2.431,0,0,0,.351-.842l.468-.044v-.909l-.468-.044a2.431,2.431,0,0,0-.351-.842l.3-.364-.637-.643-.364.3a2.438,2.438,0,0,0-.84-.35l-.044-.468h-.911l-.044.468a2.43,2.43,0,0,0-.842.35l-.364-.3-.643.643.3.364a2.428,2.428,0,0,0-.349.842l-.47.044v.909l.47.044a2.429,2.429,0,0,0,.349.842l-.308.374.643.643.364-.3a2.392,2.392,0,0,0,.842.349l.044.47h.911l.044-.47A2.4,2.4,0,0,0,355.468,127.133Zm-2.573-2.047a1.233,1.233,0,1,1,1.232,1.233A1.232,1.232,0,0,1,352.9,125.086Z" transform="translate(-283.623 -109.275)" fill="#dcf5ff"/>
        <rect id="Rectangle_10208" data-name="Rectangle 10208" width="12.932" height="8.41" transform="translate(71.686 51.81)" fill="#f5f5f5"/>
        <rect id="Rectangle_10209" data-name="Rectangle 10209" width="11.984" height="6.413" transform="translate(72.158 53.387)" fill="#e0e0e0"/>
        <rect id="Rectangle_10210" data-name="Rectangle 10210" width="8.866" height="0.275" transform="translate(73.134 54.346)" fill="#f5f5f5"/>
        <rect id="Rectangle_10211" data-name="Rectangle 10211" width="4.254" height="0.275" transform="translate(73.134 55.189)" fill="#f5f5f5"/>
        <rect id="Rectangle_10212" data-name="Rectangle 10212" width="5.358" height="0.275" transform="translate(73.134 56.035)" fill="#f5f5f5"/>
        <rect id="Rectangle_10213" data-name="Rectangle 10213" width="1.887" height="0.275" transform="translate(73.134 56.88)" fill="#f5f5f5"/>
        <rect id="Rectangle_10214" data-name="Rectangle 10214" width="1.223" height="0.275" transform="translate(73.134 57.726)" fill="#f5f5f5"/>
        <rect id="Rectangle_10215" data-name="Rectangle 10215" width="9.201" height="5.675" transform="translate(9.207 51.804) rotate(-0.26)" fill="#ebebeb"/>
        <path id="Path_43523" data-name="Path 43523" d="M58.3,334.1a.193.193,0,0,1-.114-.037l-1.677-1.227a.193.193,0,0,1,0-.31l1.668-1.242a.193.193,0,1,1,.229.31l-1.458,1.086,1.467,1.071a.193.193,0,0,1-.114.349Z" transform="translate(-45.563 -278.045)" fill="#fafafa"/>
        <path id="Path_43524" data-name="Path 43524" d="M76.607,334.045a.192.192,0,0,1-.116-.347l1.458-1.086-1.467-1.071a.193.193,0,1,1,.229-.31l1.677,1.225a.193.193,0,0,1,0,.31l-1.668,1.242A.192.192,0,0,1,76.607,334.045Z" transform="translate(-61.69 -278.005)" fill="#fafafa"/>
        <path id="Path_43525" data-name="Path 43525" d="M68.716,334.067a.194.194,0,0,1-.181-.256l.865-2.473a.193.193,0,1,1,.364.127l-.865,2.473A.193.193,0,0,1,68.716,334.067Z" transform="translate(-55.328 -278.017)" fill="#fafafa"/>
      </g>
      <g id="freepik--Shadow--inject-9" transform="translate(10.806 122.387)">
        <ellipse id="freepik--path--inject-9" cx="37.339" cy="2.18" rx="37.339" ry="2.18" fill="#06b2ff"/>
      </g>
      <g id="freepik--Ladder--inject-9" transform="translate(58.617 113.421)">
        <path id="Path_43526" data-name="Path 43526" d="M334.38,371.638H335.8L337.721,361h-1.415Z" transform="translate(-328.603 -360.492)" fill="#00577e"/>
        <path id="Path_43527" data-name="Path 43527" d="M334.38,371.638H335.8L337.721,361h-1.415Z" transform="translate(-328.603 -360.492)" fill="#fff" opacity="0.2"/>
        <path id="Path_43528" data-name="Path 43528" d="M334.38,371.638h1.03L337.336,361h-1.03Z" transform="translate(-328.603 -360.492)" fill="#fff" opacity="0.2"/>
        <path id="Path_43529" data-name="Path 43529" d="M312.382,374.814h5.66a.31.31,0,0,0,.312-.312h0a.31.31,0,0,0-.312-.312h-5.66a.31.31,0,0,0-.312.312h0a.31.31,0,0,0,.312.312Z" transform="translate(-310.589 -371.141)" fill="#00577e"/>
        <path id="Path_43530" data-name="Path 43530" d="M309.112,393.306h5.662a.314.314,0,0,0,.312-.314h0a.314.314,0,0,0-.312-.312h-5.662a.314.314,0,0,0-.312.312h0A.314.314,0,0,0,309.112,393.306Z" transform="translate(-307.949 -386.071)" fill="#00577e"/>
        <path id="Path_43531" data-name="Path 43531" d="M304.38,371.638H305.8L307.721,361h-1.415Z" transform="translate(-304.38 -360.492)" fill="#00577e"/>
        <path id="Path_43532" data-name="Path 43532" d="M304.38,371.638H305.8L307.721,361h-1.415Z" transform="translate(-304.38 -360.492)" fill="#fff" opacity="0.2"/>
        <path id="Path_43533" data-name="Path 43533" d="M304.38,371.638h1.03L307.336,361h-1.03Z" transform="translate(-304.38 -360.492)" fill="#fff" opacity="0.2"/>
        <path id="Path_43534" data-name="Path 43534" d="M358.721,371.638h-1.415L355.38,361H356.8Z" transform="translate(-345.558 -360.492)" fill="#00577e"/>
        <path id="Path_43535" data-name="Path 43535" d="M358.721,371.638h-1.415L355.38,361H356.8Z" transform="translate(-345.558 -360.492)" fill="#fff" opacity="0.4"/>
        <path id="Path_43536" data-name="Path 43536" d="M358.336,371.638h-1.03L355.38,361h1.03Z" transform="translate(-345.558 -360.492)" fill="#fff" opacity="0.2"/>
        <path id="Path_43537" data-name="Path 43537" d="M334.774,374.814h-5.662a.312.312,0,0,1-.312-.312h0a.312.312,0,0,1,.312-.312h5.662a.312.312,0,0,1,.312.312h0A.312.312,0,0,1,334.774,374.814Z" transform="translate(-324.097 -371.141)" fill="#00577e"/>
        <path id="Path_43538" data-name="Path 43538" d="M338.042,393.306h-5.66a.312.312,0,0,1-.312-.314h0a.312.312,0,0,1,.312-.312h5.66a.312.312,0,0,1,.312.312h0a.312.312,0,0,1-.312.314Z" transform="translate(-326.737 -386.071)" fill="#00577e"/>
        <path id="Path_43539" data-name="Path 43539" d="M334.774,374.814h-5.662a.312.312,0,0,1-.312-.312h0a.312.312,0,0,1,.312-.312h5.662a.312.312,0,0,1,.312.312h0A.312.312,0,0,1,334.774,374.814Z" transform="translate(-324.097 -371.141)" fill="#fff" opacity="0.2"/>
        <path id="Path_43540" data-name="Path 43540" d="M338.042,393.306h-5.66a.312.312,0,0,1-.312-.314h0a.312.312,0,0,1,.312-.312h5.66a.312.312,0,0,1,.312.312h0a.312.312,0,0,1-.312.314Z" transform="translate(-326.737 -386.071)" fill="#fff" opacity="0.2"/>
        <path id="Path_43541" data-name="Path 43541" d="M328.721,371.638h-1.415L325.38,361H326.8Z" transform="translate(-321.336 -360.492)" fill="#00577e"/>
        <path id="Path_43542" data-name="Path 43542" d="M328.721,371.638h-1.415L325.38,361H326.8Z" transform="translate(-321.336 -360.492)" fill="#fff" opacity="0.4"/>
        <path id="Path_43543" data-name="Path 43543" d="M328.336,371.638h-1.03L325.38,361h1.03Z" transform="translate(-321.336 -360.492)" fill="#fff" opacity="0.2"/>
        <rect id="Rectangle_10216" data-name="Rectangle 10216" width="10.682" height="1.015" rx="0.507" transform="translate(1.335 0)" fill="#00577e"/>
        <rect id="Rectangle_10217" data-name="Rectangle 10217" width="4.345" height="1.015" rx="0.507" transform="translate(1.335 0)" fill="#fff" opacity="0.2"/>
      </g>
      <g id="freepik--Screen--inject-9" transform="translate(24.496 116.019)">
        <rect id="Rectangle_10218" data-name="Rectangle 10218" width="12.932" height="8.41" fill="#06b2ff"/>
        <rect id="Rectangle_10219" data-name="Rectangle 10219" width="12.932" height="8.41" fill="#fff" opacity="0.6"/>
        <rect id="Rectangle_10220" data-name="Rectangle 10220" width="11.986" height="6.413" transform="translate(0.474 1.577)" fill="#06b2ff"/>
        <rect id="Rectangle_10221" data-name="Rectangle 10221" width="8.866" height="0.275" transform="translate(1.45 2.534)" fill="#fff"/>
        <rect id="Rectangle_10222" data-name="Rectangle 10222" width="4.254" height="0.275" transform="translate(1.45 3.38)" fill="#fff"/>
        <rect id="Rectangle_10223" data-name="Rectangle 10223" width="5.358" height="0.275" transform="translate(1.45 4.225)" fill="#fff"/>
        <rect id="Rectangle_10224" data-name="Rectangle 10224" width="1.887" height="0.275" transform="translate(1.45 5.069)" fill="#fff"/>
        <rect id="Rectangle_10225" data-name="Rectangle 10225" width="1.223" height="0.275" transform="translate(1.45 5.914)" fill="#fff"/>
      </g>
      <g id="freepik--Device--inject-9" transform="translate(22.058 76.064)">
        <path id="Path_43544" data-name="Path 43544" d="M233.2,357.565H222.67l1.781-13.995h6.964Z" transform="translate(-201.846 -309.062)" fill="#06b2ff"/>
        <path id="Path_43545" data-name="Path 43545" d="M233.2,357.565H222.67l1.219-9.575.564-4.42h6.96l.832,6.521Z" transform="translate(-201.846 -309.062)" fill="#fff" opacity="0.6"/>
        <path id="Path_43546" data-name="Path 43546" d="M237.356,350.091,229,347.99l.564-4.42h6.96Z" transform="translate(-206.957 -309.062)" opacity="0.1"/>
        <path id="Path_43547" data-name="Path 43547" d="M165.445,164.38H115.809a1.269,1.269,0,0,0-1.269,1.271v33.6a1.269,1.269,0,0,0,1.269,1.269h49.635a1.269,1.269,0,0,0,1.269-1.269v-33.6a1.269,1.269,0,0,0-1.269-1.275Z" transform="translate(-114.54 -164.38)" fill="#06b2ff"/>
        <path id="Path_43548" data-name="Path 43548" d="M165.445,164.38H115.809a1.269,1.269,0,0,0-1.269,1.271v33.6a1.269,1.269,0,0,0,1.269,1.269h49.635a1.269,1.269,0,0,0,1.269-1.269v-33.6a1.269,1.269,0,0,0-1.269-1.275Z" transform="translate(-114.54 -164.38)" fill="#fff" opacity="0.7"/>
        <rect id="Rectangle_10226" data-name="Rectangle 10226" width="48.832" height="32.401" transform="translate(1.672 1.244)" fill="#1eaae8"/>
        <rect id="Rectangle_10227" data-name="Rectangle 10227" width="18.081" height="1.034" rx="0.517" transform="translate(17.045 47.452)" fill="#06b2ff"/>
        <rect id="Rectangle_10228" data-name="Rectangle 10228" width="18.081" height="1.034" rx="0.517" transform="translate(17.045 47.452)" fill="#fff" opacity="0.7"/>
        <rect id="Rectangle_10229" data-name="Rectangle 10229" width="48.832" height="4.83" transform="translate(1.672 1.275)" opacity="0.2"/>
        <rect id="Rectangle_10230" data-name="Rectangle 10230" width="20.926" height="27.483" transform="translate(1.672 6.163)" fill="#fff" opacity="0.4"/>
        <path id="Path_43549" data-name="Path 43549" d="M335.741,232.78v.481h-.481" transform="translate(-292.754 -219.608)" fill="none" stroke="#fff" stroke-miterlimit="10" stroke-width="1"/>
        <line id="Line_111" data-name="Line 111" x1="15.772" transform="translate(25.717 13.654)" fill="none" stroke="#fff" stroke-miterlimit="10" stroke-width="1" stroke-dasharray="5.284 5.284"/>
        <path id="Path_43550" data-name="Path 43550" d="M243.421,233.261h-.481v-.481" transform="translate(-218.213 -219.608)" fill="none" stroke="#fff" stroke-miterlimit="10" stroke-width="1"/>
        <line id="Line_112" data-name="Line 112" y1="8.287" transform="translate(24.727 4.013)" fill="none" stroke="#fff" stroke-miterlimit="10" stroke-width="1" stroke-dasharray="4.529 4.529"/>
        <path id="Path_43551" data-name="Path 43551" d="M242.94,180.941v-.481h.481" transform="translate(-218.213 -177.363)" fill="none" stroke="#fff" stroke-miterlimit="10" stroke-width="1"/>
        <line id="Line_113" data-name="Line 113" x2="15.772" transform="translate(26.225 3.097)" fill="none" stroke="#fff" stroke-miterlimit="10" stroke-width="1" stroke-dasharray="5.284 5.284"/>
        <path id="Path_43552" data-name="Path 43552" d="M335.26,180.46h.481v.481" transform="translate(-292.754 -177.363)" fill="none" stroke="#fff" stroke-miterlimit="10" stroke-width="1"/>
        <line id="Line_114" data-name="Line 114" y2="8.287" transform="translate(42.988 4.451)" fill="none" stroke="#fff" stroke-miterlimit="10" stroke-width="1" stroke-dasharray="4.529 4.529"/>
        <rect id="Rectangle_10231" data-name="Rectangle 10231" width="0.61" height="0.61" transform="translate(42.683 2.79)" fill="#06b2ff" stroke="#fff" stroke-miterlimit="10" stroke-width="1"/>
        <rect id="Rectangle_10232" data-name="Rectangle 10232" width="0.61" height="0.61" transform="translate(42.683 13.35)" fill="#06b2ff" stroke="#fff" stroke-miterlimit="10" stroke-width="1"/>
        <rect id="Rectangle_10233" data-name="Rectangle 10233" width="0.61" height="0.61" transform="translate(24.421 2.79)" fill="#06b2ff" stroke="#fff" stroke-miterlimit="10" stroke-width="1"/>
        <rect id="Rectangle_10234" data-name="Rectangle 10234" width="0.61" height="0.61" transform="translate(24.421 13.35)" fill="#06b2ff" stroke="#fff" stroke-miterlimit="10" stroke-width="1"/>
        <rect id="Rectangle_10235" data-name="Rectangle 10235" width="0.61" height="0.61" transform="translate(33.553 2.79)" fill="#06b2ff" stroke="#fff" stroke-miterlimit="10" stroke-width="1"/>
        <rect id="Rectangle_10236" data-name="Rectangle 10236" width="0.61" height="0.61" transform="translate(33.553 13.35)" fill="#06b2ff" stroke="#fff" stroke-miterlimit="10" stroke-width="1"/>
        <rect id="Rectangle_10237" data-name="Rectangle 10237" width="0.61" height="0.61" transform="translate(42.683 8.069)" fill="#06b2ff" stroke="#fff" stroke-miterlimit="10" stroke-width="1"/>
        <rect id="Rectangle_10238" data-name="Rectangle 10238" width="0.61" height="0.61" transform="translate(24.421 8.069)" fill="#06b2ff" stroke="#fff" stroke-miterlimit="10" stroke-width="1"/>
        <rect id="Rectangle_10239" data-name="Rectangle 10239" width="5.198" height="1.924" rx="0.962" transform="translate(36.496 6.642)" fill="#fff" opacity="0.7"/>
        <rect id="Rectangle_10240" data-name="Rectangle 10240" width="5.198" height="1.924" rx="0.962" transform="translate(28.793 6.642)" fill="#fff" opacity="0.7"/>
        <rect id="Rectangle_10241" data-name="Rectangle 10241" width="5.198" height="1.924" rx="0.962" transform="translate(18.877 30.058)" fill="#fff" opacity="0.7"/>
        <line id="Line_115" data-name="Line 115" x2="1.625" transform="translate(47.28 2.993)" fill="none" stroke="#fff" stroke-linecap="round" stroke-linejoin="round" stroke-width="1.5"/>
        <line id="Line_116" data-name="Line 116" x2="1.625" transform="translate(47.28 3.763)" fill="none" stroke="#fff" stroke-linecap="round" stroke-linejoin="round" stroke-width="1.5"/>
        <line id="Line_117" data-name="Line 117" x2="1.625" transform="translate(47.28 4.533)" fill="none" stroke="#fff" stroke-linecap="round" stroke-linejoin="round" stroke-width="1.5"/>
        <rect id="Rectangle_10242" data-name="Rectangle 10242" width="16.379" height="16.379" transform="translate(4.982 10.422)" fill="#fff" opacity="0.5"/>
        <line id="Line_118" data-name="Line 118" y2="14.13" transform="translate(11.838 11.761)" fill="none" stroke="#06b2ff" stroke-miterlimit="10" stroke-width="1"/>
        <path id="Path_43553" data-name="Path 43553" d="M183.066,239.58h0A7.066,7.066,0,0,1,176,232.514h0a7.064,7.064,0,0,1,7.064-7.064h0" transform="translate(-164.164 -213.689)" fill="none" stroke="#06b2ff" stroke-miterlimit="10" stroke-width="1"/>
        <rect id="Rectangle_10243" data-name="Rectangle 10243" width="0.61" height="0.61" transform="translate(18.597 11.457)" fill="#fff" stroke="#06b2ff" stroke-miterlimit="10" stroke-width="1"/>
        <rect id="Rectangle_10244" data-name="Rectangle 10244" width="0.61" height="0.61" transform="translate(18.597 25.584)" fill="#fff" stroke="#06b2ff" stroke-miterlimit="10" stroke-width="1"/>
        <rect id="Rectangle_10245" data-name="Rectangle 10245" width="0.61" height="0.61" transform="translate(11.534 18.52)" fill="#fff" stroke="#06b2ff" stroke-miterlimit="10" stroke-width="1"/>
        <path id="Path_43554" data-name="Path 43554" d="M175.506,224.788a.158.158,0,1,1-.158-.158A.16.16,0,0,1,175.506,224.788Z" transform="translate(-163.51 -213.027)" fill="#fff" stroke="#06b2ff" stroke-miterlimit="10" stroke-width="1"/>
        <path id="Path_43555" data-name="Path 43555" d="M175.506,298.158a.158.158,0,1,1-.047-.112A.158.158,0,0,1,175.506,298.158Z" transform="translate(-163.51 -272.268)" fill="#fff" stroke="#06b2ff" stroke-miterlimit="10" stroke-width="1"/>
        <path id="Path_43556" data-name="Path 43556" d="M290.132,309.656h-4.959a1.433,1.433,0,0,1-1.433-1.433h0a1.433,1.433,0,0,1,1.433-1.433h4.959a1.433,1.433,0,0,1,1.433,1.433h0A1.433,1.433,0,0,1,290.132,309.656Z" transform="translate(-251.156 -279.365)" fill="#fff" opacity="0.7"/>
        <path id="Path_43557" data-name="Path 43557" d="M274,255.62h-15.32a.314.314,0,0,1-.314-.314h0a.312.312,0,0,1,.314-.306H274a.312.312,0,0,1,.314.312h0A.314.314,0,0,1,274,255.62Z" transform="translate(-230.671 -237.548)" fill="#fff" opacity="0.7"/>
        <path id="Path_43558" data-name="Path 43558" d="M274,267.466h-15.32a.312.312,0,0,1-.314-.312h0a.314.314,0,0,1,.314-.314H274a.314.314,0,0,1,.314.314h0A.312.312,0,0,1,274,267.466Z" transform="translate(-230.671 -247.108)" fill="#fff" opacity="0.7"/>
        <path id="Path_43559" data-name="Path 43559" d="M298.226,279.376h-9.542a.314.314,0,0,1-.314-.312h0a.314.314,0,0,1,.314-.314h9.54a.314.314,0,0,1,.314.314h0A.314.314,0,0,1,298.226,279.376Z" transform="translate(-254.894 -256.725)" fill="#fff" opacity="0.7"/>
        <rect id="Rectangle_10246" data-name="Rectangle 10246" width="1.082" height="1.082" transform="translate(3.214 2.613)" opacity="0.4"/>
        <rect id="Rectangle_10247" data-name="Rectangle 10247" width="1.082" height="1.082" rx="0.541" transform="translate(5.317 2.613)" opacity="0.4"/>
        <rect id="Rectangle_10248" data-name="Rectangle 10248" width="1.082" height="1.082" rx="0.541" transform="translate(7.422 2.613)" opacity="0.4"/>
        <path id="Path_43560" data-name="Path 43560" d="M137.364,310.081v-.422l-.216-.019a1.19,1.19,0,0,0-.162-.385l.139-.168-.3-.3-.168.139a1.189,1.189,0,0,0-.385-.162l-.019-.216h-.422l-.021.216a1.2,1.2,0,0,0-.385.162l-.168-.139-.3.3.139.168a1.113,1.113,0,0,0-.162.385l-.218.019v.422l.218.021a1.119,1.119,0,0,0,.162.385l-.139.169.3.3.168-.139a1.12,1.12,0,0,0,.385.162l.021.218h.422l.019-.218a1.114,1.114,0,0,0,.385-.162l.168.139.3-.3-.139-.169a1.156,1.156,0,0,0,.162-.385Zm-1.327.36a.578.578,0,1,1,.578-.578A.578.578,0,0,1,136.037,310.441Z" transform="translate(-130.834 -280.786)" fill="#fff" opacity="0.9"/>
        <path id="Path_43561" data-name="Path 43561" d="M148.61,317.65v-.324l-.169-.017a.888.888,0,0,0-.127-.3l.108-.133-.233-.233-.131.11a.9.9,0,0,0-.306-.127l-.015-.171H147.4l-.015.171a.9.9,0,0,0-.306.127l-.131-.11-.235.233.11.133a.888.888,0,0,0-.127.3l-.169.017v.329l.169.017a.888.888,0,0,0,.127.3l-.11.133.235.233.131-.11a.9.9,0,0,0,.306.127l.015.169h.331l.015-.169a.9.9,0,0,0,.306-.127l.131.11.233-.233-.108-.133a.888.888,0,0,0,.127-.3Zm-1.04.283a.447.447,0,1,1,.317-.132A.449.449,0,0,1,147.57,317.933Z" transform="translate(-140.369 -287.164)" fill="#fff" opacity="0.6"/>
        <path id="Path_43562" data-name="Path 43562" d="M141.143,323.327v-.277l-.143-.013a.751.751,0,0,0-.106-.256l.092-.11-.193-.193-.112.091a.751.751,0,0,0-.256-.106l-.013-.142h-.281l-.013.142a.75.75,0,0,0-.256.106l-.112-.091-.193.193.092.11a.751.751,0,0,0-.106.256l-.144.013v.277l.144.013a.745.745,0,0,0,.106.258l-.092.11.193.193.112-.092a.718.718,0,0,0,.256.108l.013.143h.277l.013-.143a.718.718,0,0,0,.256-.108l.112.092.193-.193-.092-.11a.745.745,0,0,0,.106-.258Zm-.872.237a.376.376,0,1,1,.272-.107A.376.376,0,0,1,140.27,323.564Z" transform="translate(-134.612 -291.904)" fill="#fff" opacity="0.4"/>
        <path id="Path_43563" data-name="Path 43563" d="M337.18,179.89l.817,2.184,1.365-1.367Z" transform="translate(-294.304 -176.903)" fill="#06b2ff"/>
        <rect id="Rectangle_10249" data-name="Rectangle 10249" width="0.431" height="0.957" transform="translate(43.886 4.302) rotate(-45)" fill="#06b2ff"/>
        <path id="Path_43564" data-name="Path 43564" d="M339.362,180.707l-2.182-.817.817,2.184.532-.532.337.339.3-.3-.337-.339Z" transform="translate(-294.304 -176.903)" fill="#fff" opacity="0.4"/>
        <path id="Path_43565" data-name="Path 43565" d="M162.515,213.759l2.055.77-1.077-1.077a.21.21,0,0,1-.252-.033.212.212,0,0,1,.3-.3.21.21,0,0,1,.033.252l1.077,1.077-.77-2.055-.682.15-.025-.245-.129-.129-.755.755.129.129.246.025Z" transform="translate(-153.094 -202.967)" fill="#263238"/>
        <path id="Path_43566" data-name="Path 43566" d="M162.515,213.759l2.055.77-1.077-1.077a.21.21,0,0,1-.252-.033.212.212,0,0,1,.3-.3.21.21,0,0,1,.033.252l1.077,1.077-.77-2.055-.682.15-.025-.245-.129-.129-.755.755.129.129.246.025Z" transform="translate(-153.094 -202.967)" fill="#fff" opacity="0.2"/>
        <g id="Group_58103" data-name="Group 58103" transform="translate(1.575 1.244)" opacity="0.1">
          <path id="Path_43567" data-name="Path 43567" d="M129.957,170.84l-7.237,27.042V170.84Z" transform="translate(-122.72 -170.84)" fill="#fff"/>
          <path id="Path_43568" data-name="Path 43568" d="M141.306,170.84l-8.672,32.4H126.66l8.67-32.4Z" transform="translate(-125.901 -170.84)" fill="#fff"/>
          <path id="Path_43569" data-name="Path 43569" d="M200.124,170.84l-8.672,32.4h-2.7l8.672-32.4Z" transform="translate(-176.034 -170.84)" fill="#fff"/>
          <path id="Path_43570" data-name="Path 43570" d="M248.929,170.84l-8.672,32.4h-.967l8.672-32.4Z" transform="translate(-216.841 -170.84)" fill="#fff"/>
        </g>
      </g>
      <g id="freepik--character-2--inject-9" transform="translate(67.037 75.423)">
        <path id="Path_43571" data-name="Path 43571" d="M429.409,208c.684.788,4.162,7.488,3.49,9.051s-6.245-.239-6.245-.239l.333-2.209a9.668,9.668,0,0,0,2.373-.129c.208-.206-2.929-3.337-2.929-3.337Z" transform="translate(-411.346 -198.958)" fill="#00577e"/>
        <g id="Group_58104" data-name="Group 58104" transform="translate(15.081 9.042)" opacity="0.2">
          <path id="Path_43572" data-name="Path 43572" d="M432.879,217.051a.844.844,0,0,1-.406.412h0l-.112.05h-.015a.854.854,0,0,1-.106.037,2.336,2.336,0,0,1-.481.1l-.141.013c-.069,0-.139.01-.21.012h-.193a19,19,0,0,1-4.585-.876l.333-2.209a9.669,9.669,0,0,0,2.373-.129c.05-.05-.1-.273-.35-.578h0c-.612-.753-1.839-2.007-2.346-2.519l-.229-.231L429.393,208C430.077,208.78,433.555,215.48,432.879,217.051Z" transform="translate(-426.41 -208)" fill="#fff"/>
        </g>
        <path id="Path_43573" data-name="Path 43573" d="M433.413,224.757h0l-.112.05h-.015a.853.853,0,0,1-.106.037,2.337,2.337,0,0,1-.481.1l-.141.013c-.069,0-.139.01-.21.012h-.193a19,19,0,0,1-4.585-.876l.333-2.209a11.325,11.325,0,0,0,2.646,0c.039-.081-.231-.354-.63-.7h0c-.612-.753-1.839-2.007-2.346-2.519l1.41-1.506,1.073-.116A32.275,32.275,0,0,1,433.413,224.757Z" transform="translate(-412.266 -206.257)" fill="#00577e" opacity="0.2"/>
        <path id="Path_43574" data-name="Path 43574" d="M403.411,205.753c-.385.279-.578.676-.424.886l10.176,14.029c.152.21.589.152.974-.127s.578-.678.424-.886l-10.176-14.031C404.233,205.416,403.8,205.472,403.411,205.753Z" transform="translate(-392.374 -196.939)" fill="#263238"/>
        <path id="Path_43575" data-name="Path 43575" d="M404.4,205.626l10.176,14.029c.152.208-.039.6-.424.886s-.822.335-.973.127l-10.176-14.031a.435.435,0,0,1,.037-.466,1.125,1.125,0,0,1,.193-.252,1.394,1.394,0,0,1,.193-.166C403.815,205.476,404.251,205.418,404.4,205.626Z" transform="translate(-392.392 -196.94)" fill="#fff" opacity="0.7"/>
        <path id="Path_43576" data-name="Path 43576" d="M414.946,221.423c.152.208-.038.6-.424.886s-.822.335-.973.127c-.085-.116.125-.291.248-.543l-10.388-13.95a1.127,1.127,0,0,1,.193-.252l10.178,14.031a1.647,1.647,0,0,1,.193-.168C414.358,221.273,414.793,221.215,414.946,221.423Z" transform="translate(-392.759 -198.708)" opacity="0.3"/>
        <path id="Path_43577" data-name="Path 43577" d="M397.444,203.176c-.325.347-.437.77-.248.949l12.652,11.846c.193.177.607.039.932-.31s.437-.77.248-.951l-12.652-11.846C398.187,202.688,397.769,202.829,397.444,203.176Z" transform="translate(-387.667 -194.75)" fill="#06b2ff"/>
        <path id="Path_43578" data-name="Path 43578" d="M398.359,202.869l12.652,11.846c.193.175.077.6-.248.949s-.743.485-.932.31l-12.652-11.846a.441.441,0,0,1-.052-.466,1.192,1.192,0,0,1,.142-.285,1.616,1.616,0,0,1,.158-.193C397.752,202.832,398.17,202.692,398.359,202.869Z" transform="translate(-387.65 -194.753)" fill="#fff" opacity="0.7"/>
        <path id="Path_43579" data-name="Path 43579" d="M411.2,217.183c.193.175.077.6-.248.949s-.743.485-.932.31c-.1-.1.069-.308.143-.578l-12.847-11.73a1.193,1.193,0,0,1,.143-.285L410.107,217.7a1.489,1.489,0,0,1,.156-.193C410.588,217.145,411.006,217.006,411.2,217.183Z" transform="translate(-387.833 -197.222)" opacity="0.3"/>
        <path id="Path_43580" data-name="Path 43580" d="M399.448,313.156l-.963.015a145.256,145.256,0,0,1-2.1-14.6c-.067-.674-.129-1.311-.193-1.907-.025-.283-.05-.555-.073-.817-.116-1.292-.193-2.311-.243-2.95-.035-.462-.052-.716-.052-.716h3.5l-.033.888L399.173,296l-.012.335-.073,1.935-.121,3.3C400.163,306.2,399.448,313.156,399.448,313.156Z" transform="translate(-386.63 -266.927)" fill="#ebb376"/>
        <path id="Path_43581" data-name="Path 43581" d="M425.337,313.248l-.949.179a151.841,151.841,0,0,1-4.847-15.085c-.179-.659-.345-1.275-.493-1.833a.309.309,0,0,0-.021-.083c-.293-1.109-.518-1.993-.659-2.554l-.168-.68,3.428-.593.193,1.444.287,2.118.056.416.193,1.446.522,3.879C424.857,306.275,425.337,313.248,425.337,313.248Z" transform="translate(-404.7 -267.266)" fill="#ebb376"/>
        <path id="Path_43582" data-name="Path 43582" d="M422.82,301.5l-3.07.343a.309.309,0,0,0-.021-.083c-.293-1.109-.518-1.993-.659-2.554l3.466.171Z" transform="translate(-405.403 -272.603)" opacity="0.2"/>
        <path id="Path_43583" data-name="Path 43583" d="M399.531,296.063l-.108,2.929-.012.335-2.966.329c-.025-.283-.05-.555-.073-.817-.116-1.292-.193-2.311-.243-2.95Z" transform="translate(-386.881 -269.922)" opacity="0.2"/>
        <path id="Path_43584" data-name="Path 43584" d="M399.514,404.354a1.926,1.926,0,0,1,.6-.331h0a4.972,4.972,0,0,0,.974-2.611l.859-.225a.736.736,0,0,1,.782.306.409.409,0,0,1,.054.114,5.026,5.026,0,0,1,.092.637,17.739,17.739,0,0,1,.013,2.153h-.156l-.062-1.348c-.023-.46-.376.079-.476.578s-.314,1.019-1.319,1.044C399.705,404.687,399.218,404.641,399.514,404.354Z" transform="translate(-389.545 -354.924)" fill="#00577e"/>
        <path id="Path_43585" data-name="Path 43585" d="M409.037,397.736c.056-.458.073-1.256.073-1.256l-1.91.212a3.684,3.684,0,0,1,.04,1.589C408.2,398.017,409.037,397.736,409.037,397.736Z" transform="translate(-395.819 -351.141)" fill="#00577e"/>
        <path id="Path_43586" data-name="Path 43586" d="M439.875,404.362a1.926,1.926,0,0,1,.6-.329h0a4.962,4.962,0,0,0,.973-2.611l.861-.225a.736.736,0,0,1,.782.306.41.41,0,0,1,.054.114,5.028,5.028,0,0,1,.092.637,17.616,17.616,0,0,1,.012,2.153H443.1l-.062-1.348c-.023-.46-.376.079-.476.578s-.314,1.019-1.321,1.044C440.065,404.695,439.578,404.649,439.875,404.362Z" transform="translate(-422.132 -354.932)" fill="#00577e"/>
        <path id="Path_43587" data-name="Path 43587" d="M449.4,397.736c.058-.458.075-1.256.075-1.256l-1.91.212a3.684,3.684,0,0,1,.04,1.589C448.563,398.017,449.4,397.736,449.4,397.736Z" transform="translate(-428.406 -351.141)" fill="#00577e"/>
        <path id="Path_43588" data-name="Path 43588" d="M401.888,255.423l-3.634.464-.141.017-.747-2.738-.193,2.935-3.894-.2c-1.733-10.182,1.231-12.587,1.231-12.587l5.282,1.063a15.637,15.637,0,0,1,1.824,8.793Z" transform="translate(-384.14 -227.468)" fill="#06b2ff"/>
        <path id="Path_43589" data-name="Path 43589" d="M411,174.4c0,.4-.177.724-.385.724s-.4-.324-.4-.724.177-.724.4-.724S411,174,411,174.4Z" transform="translate(-398.257 -171.247)" fill="none" stroke="#263238" stroke-linecap="round" stroke-linejoin="round" stroke-width="0.5"/>
        <path id="Path_43590" data-name="Path 43590" d="M415.24,169.491a.266.266,0,0,1-.046.035,2.094,2.094,0,0,1-.738.36,1.665,1.665,0,0,1-1.662-.279h0a3.587,3.587,0,0,1-.539-2.6,4.284,4.284,0,0,1,.246-1.321v-.021a.3.3,0,0,1,.019-.048,1.541,1.541,0,0,1,1.136-.942,3.117,3.117,0,0,1,.668-.075C416.534,164.582,416.931,168.238,415.24,169.491Z" transform="translate(-399.886 -163.916)" fill="#ebb376"/>
        <path id="Path_43591" data-name="Path 43591" d="M417.53,189.507a2.041,2.041,0,0,1-.738.329,1.65,1.65,0,0,1-1.662-.31,2.2,2.2,0,0,0,1.4-.116A1.156,1.156,0,0,1,417.53,189.507Z" transform="translate(-402.222 -183.891)" opacity="0.2"/>
        <path id="Path_43592" data-name="Path 43592" d="M419.3,189.619c.137.628-.678.884-.678.884-1.331-.578-1.577-1.277-1.577-1.277,1.111-.578.79-2.217.79-2.217l.225.112,1.585.31s-.439.844-.5,1.036h0C418.843,189.479,419.3,189.619,419.3,189.619Z" transform="translate(-403.764 -182.01)" fill="#ebb376"/>
        <path id="Path_43593" data-name="Path 43593" d="M413.59,163.3a2.326,2.326,0,0,0,1.348,2.213s.63,1.608,1.556,1.629c1.265.031,2.378-1.766,1.941-3.6C417.863,161.164,414.264,160.971,413.59,163.3Z" transform="translate(-400.976 -161.535)" fill="#263238"/>
        <path id="Path_43594" data-name="Path 43594" d="M416.72,176.869c0-.241.193-.647.578-.591s.6,1.015-.35,1.229C416.8,177.538,416.72,177.376,416.72,176.869Z" transform="translate(-403.505 -173.341)" fill="#ebb376"/>
        <path id="Path_43595" data-name="Path 43595" d="M414.257,161.165a3.276,3.276,0,0,0-2.292.221c-.953.693-1.315,1.41-.193,2.523a11.429,11.429,0,0,1,3.3-.634,8.832,8.832,0,0,1,1.414.41C416.668,162.049,415.081,160.83,414.257,161.165Z" transform="translate(-398.949 -161.049)" fill="#263238"/>
        <path id="Path_43596" data-name="Path 43596" d="M415.8,164.436a6.491,6.491,0,0,1-.22,3.3s3.5,1.215,4.724.555.1-2.877.05-4.156-.607-3.168-2.461-2.744S415.8,164.436,415.8,164.436Z" transform="translate(-402.585 -161.28)" fill="#263238"/>
        <line id="Line_119" data-name="Line 119" x2="1.481" transform="translate(11.953 3.043)" fill="none" stroke="#263238" stroke-linecap="round" stroke-linejoin="round" stroke-width="0.5"/>
        <path id="Path_43597" data-name="Path 43597" d="M417.668,279.763l-.141.017-.747-2.738s1.6-2.737,1.1-4.162C417.953,272.98,419.678,275.54,417.668,279.763Z" transform="translate(-403.554 -251.344)" opacity="0.2"/>
        <path id="Path_43598" data-name="Path 43598" d="M398.154,198.825a7.761,7.761,0,0,1,4.418.139c2.656.766,2.756,1.9,2.756,1.9A26.815,26.815,0,0,0,403.379,209l-6.921-.258S395.631,202.64,398.154,198.825Z" transform="translate(-387.041 -191.355)" fill="#00577e"/>
        <path id="Path_43599" data-name="Path 43599" d="M405.33,200.828a26.815,26.815,0,0,0-1.949,8.135l-6.921-.258a18.566,18.566,0,0,1-.127-2.118,20.644,20.644,0,0,1,.193-3.1,11.6,11.6,0,0,1,1.631-4.7,7.761,7.761,0,0,1,4.418.139C405.23,199.69,405.33,200.828,405.33,200.828Z" transform="translate(-387.043 -191.322)" fill="#fff" opacity="0.2"/>
        <path id="Path_43600" data-name="Path 43600" d="M398.036,224.52a4.88,4.88,0,0,1-1.733,2.839,20.644,20.644,0,0,1,.193-3.1Z" transform="translate(-387.018 -212.087)" opacity="0.2"/>
        <path id="Path_43601" data-name="Path 43601" d="M351.471,187.381l-.872-1.294s-.133-.562-.3-.689a12.23,12.23,0,0,0-2.047-.838c-.2,0-.193,1.306,0,1.527a5.049,5.049,0,0,0,1.541.743c.281.048.143,0,.143,0l.77,1.541Z" transform="translate(-348.101 -180.032)" fill="#ebb376"/>
        <path id="Path_43602" data-name="Path 43602" d="M367.03,195.367a37.924,37.924,0,0,0-5.392,2.785L358.82,194.3s-.759.235-1.04,1.556c0,0,1.446,5.51,3.326,6.057s5.831-1.593,5.831-1.593S368.081,197.458,367.03,195.367Z" transform="translate(-355.916 -187.897)" fill="#00577e"/>
        <path id="Path_43603" data-name="Path 43603" d="M367.03,195.367a37.924,37.924,0,0,0-5.392,2.785L358.82,194.3s-.759.235-1.04,1.556c0,0,1.446,5.51,3.326,6.057s5.831-1.593,5.831-1.593S368.081,197.458,367.03,195.367Z" transform="translate(-355.916 -187.897)" fill="#fff" opacity="0.2"/>
        <path id="Path_43604" data-name="Path 43604" d="M415.06,198.577s.614,4.4,2.561,4.576,2.819-3.081,2.49-3.466S417.273,198.548,415.06,198.577Z" transform="translate(-402.165 -191.349)" fill="#00577e"/>
        <path id="Path_43605" data-name="Path 43605" d="M415.06,198.577s.614,4.4,2.561,4.576,2.819-3.081,2.49-3.466S417.273,198.548,415.06,198.577Z" transform="translate(-402.165 -191.349)" fill="#fff" opacity="0.3"/>
      </g>
      <g id="freepik--character-1--inject-9" transform="translate(4.106 71.285)">
        <g id="freepik--group--inject-9" transform="translate(0)">
          <path id="Path_43606" data-name="Path 43606" d="M55.36,394.815h1.427l.117-3.3H55.477Z" transform="translate(-48.805 -342.991)" fill="#b97964"/>
          <path id="Path_43607" data-name="Path 43607" d="M54.815,407.81H53.082a.121.121,0,0,0-.121.1l-.281,1.269a.21.21,0,0,0,.162.25h.046c.56-.01.963-.044,1.672-.044.435,0,1.733.046,2.342.046s.676-.591.431-.645a5.75,5.75,0,0,1-2.278-.888A.347.347,0,0,0,54.815,407.81Z" transform="translate(-46.637 -356.151)" fill="#00577e"/>
          <path id="Path_43608" data-name="Path 43608" d="M64.193,407.536a.035.035,0,0,1-.025-.029.031.031,0,0,1,.015-.033c.052-.033.512-.316.67-.235a.1.1,0,0,1,.058.094.193.193,0,0,1-.071.181.414.414,0,0,1-.273.073A1.762,1.762,0,0,1,64.193,407.536Zm.1-.048a.693.693,0,0,0,.508-.025.139.139,0,0,0,.044-.121c0-.027-.012-.04-.021-.04a.089.089,0,0,0-.044-.01,1.4,1.4,0,0,0-.487.2Z" transform="translate(-55.916 -355.679)" fill="#06b2ff"/>
          <path id="Path_43609" data-name="Path 43609" d="M64.185,406.189a.035.035,0,0,1-.015-.031,1.053,1.053,0,0,1,.193-.564.173.173,0,0,1,.143-.042.114.114,0,0,1,.11.089c.029.15-.256.464-.4.545h-.015Zm.229-.553a.8.8,0,0,0-.168.447c.146-.112.327-.349.31-.441,0,0,0-.035-.05-.035h-.015A.114.114,0,0,0,64.414,405.636Z" transform="translate(-55.918 -354.326)" fill="#06b2ff"/>
          <path id="Path_43610" data-name="Path 43610" d="M55.712,391.52h1.427l-.062,1.7H55.65Z" transform="translate(-49.039 -342.999)" opacity="0.2"/>
          <path id="Path_43611" data-name="Path 43611" d="M93.49,395.914l1.473.156.275-3.174-1.471-.156Z" transform="translate(-79.592 -343.984)" fill="#b97964"/>
          <path id="Path_43612" data-name="Path 43612" d="M93.006,407.57H91.285a.125.125,0,0,0-.121.1l-.281,1.271a.208.208,0,0,0,.152.254h.046c.56-.01.963-.044,1.674-.044.433,0,1.733.044,2.34.044s.676-.591.431-.645a5.721,5.721,0,0,1-2.278-.888A.356.356,0,0,0,93.006,407.57Z" transform="translate(-77.481 -355.958)" fill="#00577e"/>
          <path id="Path_43613" data-name="Path 43613" d="M102.342,407.3a.035.035,0,0,1-.025-.029.029.029,0,0,1,.017-.033c.05-.033.51-.316.668-.233a.1.1,0,0,1,.058.092.2.2,0,0,1-.069.183.433.433,0,0,1-.275.071,1.766,1.766,0,0,1-.374-.052Zm.1-.046a.693.693,0,0,0,.508-.027.137.137,0,0,0,.044-.121c0-.027-.012-.039-.021-.039a.069.069,0,0,0-.042-.01,1.348,1.348,0,0,0-.481.2Z" transform="translate(-86.719 -355.491)" fill="#06b2ff"/>
          <path id="Path_43614" data-name="Path 43614" d="M102.337,405.956a.037.037,0,0,1-.017-.031c0-.021.037-.429.2-.564a.193.193,0,0,1,.143-.044.112.112,0,0,1,.11.089c.029.152-.256.466-.4.545h-.015Zm.227-.555a.8.8,0,0,0-.168.445c.146-.11.327-.349.31-.441,0,0,0-.035-.05-.035h-.013A.125.125,0,0,0,102.565,405.4Z" transform="translate(-86.721 -354.137)" fill="#06b2ff"/>
          <path id="Path_43615" data-name="Path 43615" d="M94.324,392.74l1.471.156-.144,1.637-1.471-.156Z" transform="translate(-80.149 -343.984)" opacity="0.2"/>
          <path id="Path_43616" data-name="Path 43616" d="M54.083,241.05h7.574c.718,3.931,2.971,17.837,1.348,30.235l-2.563-.318s.237-16.448-2.024-22.532c-.26,3.255-.578,6.717-.838,8.56-.659,4.535-2.068,14.443-2.068,14.443h-2.6s.533-9.486.78-13.943C53.96,252.653,54.083,242.044,54.083,241.05Z" transform="translate(-46.827 -221.506)" fill="#00577e"/>
          <path id="Path_43617" data-name="Path 43617" d="M93.592,395.45l-3.172-.472.1-.878,3.3.433Z" transform="translate(-77.113 -345.082)" fill="#06b2ff"/>
          <path id="Path_43618" data-name="Path 43618" d="M55.187,394.838H52.11v-.919l3.193-.06Z" transform="translate(-46.181 -344.888)" fill="#06b2ff"/>
          <path id="Path_43619" data-name="Path 43619" d="M81.55,268.066a20.462,20.462,0,0,1,.845,3.274,20.441,20.441,0,0,0-.636-5.97Z" transform="translate(-69.951 -241.142)" opacity="0.2"/>
          <path id="Path_43620" data-name="Path 43620" d="M57.183,247.89l-.173.915a83.065,83.065,0,0,0,8.593.666l-.116-.628Z" transform="translate(-50.137 -227.029)" fill="#06b2ff"/>
          <path id="Path_43621" data-name="Path 43621" d="M113.74,204.007s1.831,5.777,3.081,6.163,4.429-4.389,4.429-4.389a16.174,16.174,0,0,0,2.983-.221,5.09,5.09,0,0,0-.949-2.209,15.762,15.762,0,0,0-2.79,1.092,28.818,28.818,0,0,1-3.081,2.808c-.131-.081-1.217-3.515-1.217-3.515Z" transform="translate(-95.942 -191.066)" fill="#b97964"/>
          <path id="Path_43622" data-name="Path 43622" d="M154.7,214.189a.69.69,0,0,0,.067-.017l-.033-.021A.331.331,0,0,1,154.7,214.189Z" transform="translate(-129.014 -199.786)" fill="#b97964"/>
          <path id="Path_43623" data-name="Path 43623" d="M108.34,189.509l.223.41,1.042,1.926.218.4,2.925-1.017s-1.217-4.541-1.639-5.007Z" transform="translate(-91.582 -177.235)" fill="#06b2ff"/>
          <path id="Path_43624" data-name="Path 43624" d="M108.34,189.509l.223.41,1.042,1.926.218.4,2.925-1.017s-1.217-4.541-1.639-5.007Z" transform="translate(-91.582 -177.235)" fill="#fff" opacity="0.4"/>
          <path id="Path_43625" data-name="Path 43625" d="M109.5,200.933l1.042,1.926a6.209,6.209,0,0,0,.458-3Z" transform="translate(-92.519 -188.248)" opacity="0.2"/>
          <path id="Path_43626" data-name="Path 43626" d="M69.656,177.135A6.209,6.209,0,0,0,65.25,175c-2.866-.135-3.767.15-4.814,1.086C58.9,177.451,57,189.224,57,189.224a26.589,26.589,0,0,0,8.593.934,15.833,15.833,0,0,1,1.069-5.471A61.061,61.061,0,0,0,69.656,177.135Z" transform="translate(-50.129 -168.149)" fill="#06b2ff"/>
          <path id="Path_43627" data-name="Path 43627" d="M57,189.241a26.62,26.62,0,0,0,8.593.936s0-.4.056-1.023c.023-.293.058-.636.106-1.005s.117-.792.193-1.211c.046-.225.1-.453.158-.678a9.024,9.024,0,0,1,.547-1.558c.127-.27.25-.537.37-.8.206-.458.4-.9.578-1.329.385-.9.713-1.714.986-2.43.193-.514.366-.974.506-1.369.156-.441.279-.8.37-1.073.117-.356.175-.551.175-.551a3.768,3.768,0,0,0-.308-.341,6.266,6.266,0,0,0-4-1.791h-.1c-2.184-.1-3.226.039-4.062.526a4.608,4.608,0,0,0-.753.562,2.558,2.558,0,0,0-.5.809,17.718,17.718,0,0,0-.874,2.554l-.127.468c-.193.714-.374,1.475-.547,2.245-.05.22-.1.439-.146.657-.071.335-.143.668-.21,1-.173.83-.329,1.635-.466,2.359-.193,1.04-.349,1.91-.441,2.452C57.037,189.029,57,189.241,57,189.241Zm8.416-14.116a5.664,5.664,0,0,1,.578.044c.77.1,1.955.722,1.926,1.015s-.48,1.04-1.631.859a2.866,2.866,0,0,1-1.117-.466,3.282,3.282,0,0,1-1.144-1.173c-.058-.221.689-.3,1.39-.275Z" transform="translate(-50.129 -168.166)" fill="#fff" opacity="0.4"/>
          <path id="Path_43628" data-name="Path 43628" d="M80.21,196.08A29.046,29.046,0,0,0,78.38,202.8l4.1.524s1.841-4.963,2.222-6.515A33.617,33.617,0,0,1,80.21,196.08Z" transform="translate(-67.392 -185.196)" fill="#06b2ff"/>
          <path id="Path_43629" data-name="Path 43629" d="M107.07,200.62l.57.056-.418.324Z" transform="translate(-90.557 -188.862)" fill="#fff" opacity="0.4"/>
          <path id="Path_43630" data-name="Path 43630" d="M95.47,163.215a2.529,2.529,0,0,0,2.068,1.348,1.028,1.028,0,0,0,1.1-.593s-.691-.345-.622-.732a1.768,1.768,0,0,1,.285-.659,3.483,3.483,0,0,1,.235-.325l-1.107-2.374C97.18,160.908,96.423,162.884,95.47,163.215Z" transform="translate(-81.191 -155.968)" fill="#b97964"/>
          <path id="Path_43631" data-name="Path 43631" d="M104.636,165.57a1.782,1.782,0,0,0,.632,2.255,1.768,1.768,0,0,1,.285-.659Z" transform="translate(-88.444 -160.562)" opacity="0.2"/>
          <path id="Path_43632" data-name="Path 43632" d="M117.171,149.011s.354,1.957-.666,2.74-1.125-2.871-1.125-2.871Z" transform="translate(-97.266 -147.086)" fill="#b97964"/>
          <path id="Path_43633" data-name="Path 43633" d="M117.171,149.011s.354,1.957-.666,2.74-1.125-2.871-1.125-2.871Z" transform="translate(-97.266 -147.086)" opacity="0.4"/>
          <path id="Path_43634" data-name="Path 43634" d="M103.819,153.071a1.783,1.783,0,0,0,2.066.634,1.987,1.987,0,0,0,1.107-.963c.033-.06.062-.125.091-.193.478-1.215.578-4.181-.709-4.071-1.063.09-2.1-.237-2.646.682a1.926,1.926,0,0,0-.266.859C103.348,151.436,103.213,152.258,103.819,153.071Z" transform="translate(-87.564 -146.759)" fill="#b97964"/>
          <path id="Path_43635" data-name="Path 43635" d="M114.587,159.328c-.023.112.031.214.106.225s.148-.075.166-.193-.033-.214-.106-.223S114.6,159.212,114.587,159.328Z" transform="translate(-96.622 -155.367)" fill="#263238"/>
          <path id="Path_43636" data-name="Path 43636" d="M121.278,160.269c-.023.112.033.214.106.225s.148-.075.164-.193-.031-.214-.106-.225S121.293,160.161,121.278,160.269Z" transform="translate(-102.024 -156.125)" fill="#263238"/>
          <path id="Path_43637" data-name="Path 43637" d="M118.476,161.07a4.131,4.131,0,0,0,.406,1.051.668.668,0,0,1-.562.025Z" transform="translate(-99.64 -156.929)" fill="#a24e3f"/>
          <path id="Path_43638" data-name="Path 43638" d="M112.68,156.34a.067.067,0,0,0,.067-.017.547.547,0,0,1,.46-.162.069.069,0,0,0,.081-.052.065.065,0,0,0-.052-.079h0a.676.676,0,0,0-.578.193.069.069,0,0,0,0,.1h0A.116.116,0,0,0,112.68,156.34Z" transform="translate(-95.053 -152.853)" fill="#263238"/>
          <path id="Path_43639" data-name="Path 43639" d="M122.7,156.963a.054.054,0,0,0,.039,0,.064.064,0,0,0,.044-.083h0a.668.668,0,0,0-.428-.443.065.065,0,0,0-.083.046h0a.067.067,0,0,0,.046.083h0a.547.547,0,0,1,.335.356A.065.065,0,0,0,122.7,156.963Z" transform="translate(-102.827 -153.186)" fill="#263238"/>
          <path id="Path_43640" data-name="Path 43640" d="M113.68,166.92a.847.847,0,0,0,.72.489" transform="translate(-95.894 -161.652)" fill="none" stroke="#263238" stroke-linecap="round" stroke-linejoin="round" stroke-width="0.5"/>
          <path id="Path_43641" data-name="Path 43641" d="M101.858,148.23l.019.628a.462.462,0,0,0-.287.56,1.7,1.7,0,0,1-.651,1.606s0-.227-.193-.193-.252,1.217.065,1.812a3.416,3.416,0,0,1-.882-1.891,5.709,5.709,0,0,1,0-2.471Z" transform="translate(-84.686 -146.561)" fill="#b97964"/>
          <path id="Path_43642" data-name="Path 43642" d="M101.858,148.23l.019.628a.462.462,0,0,0-.287.56,1.7,1.7,0,0,1-.651,1.606s0-.227-.193-.193-.252,1.217.065,1.812a3.416,3.416,0,0,1-.882-1.891,5.709,5.709,0,0,1,0-2.471Z" transform="translate(-84.686 -146.561)" opacity="0.4"/>
          <path id="Path_43643" data-name="Path 43643" d="M97.706,141.986a6.525,6.525,0,0,0,2.055-.125,3.338,3.338,0,0,1,2.765.327,1.219,1.219,0,0,0,.4-.963c-.056-.558-.832-.653-.832-.653a1.512,1.512,0,0,0-.747-.82,1.143,1.143,0,0,0-1.03.287,1.676,1.676,0,0,0-1.388-.443,1.121,1.121,0,0,0-.9,1.09s-.876.089-.857.539A1.127,1.127,0,0,0,97.706,141.986Z" transform="translate(-82.57 -139.565)" fill="#263238"/>
          <ellipse id="Ellipse_874" data-name="Ellipse 874" cx="0.63" cy="0.726" rx="0.63" ry="0.726" transform="translate(17.486 3.329)" fill="none" stroke="#263238" stroke-linecap="round" stroke-linejoin="round" stroke-width="0.5"/>
          <path id="Path_43644" data-name="Path 43644" d="M121.578,158.136a.636.636,0,1,1-.63-.726A.684.684,0,0,1,121.578,158.136Z" transform="translate(-101.25 -153.973)" fill="none" stroke="#263238" stroke-linecap="round" stroke-linejoin="round" stroke-width="0.5"/>
          <path id="Path_43645" data-name="Path 43645" d="M118.65,160.857s.2-.127.325.021" transform="translate(-99.907 -156.716)" fill="none" stroke="#263238" stroke-linecap="round" stroke-linejoin="round" stroke-width="0.5"/>
          <path id="Path_43646" data-name="Path 43646" d="M105.588,159.979l-1.1-.148a.551.551,0,0,0-.406.11l-.048.039" transform="translate(-88.102 -155.924)" fill="none" stroke="#263238" stroke-linecap="round" stroke-linejoin="round" stroke-width="0.5"/>
          <path id="Path_43647" data-name="Path 43647" d="M99.679,158.543a1.348,1.348,0,0,0,.668.782c.422.21.722-.144.68-.589-.039-.4-.3-.994-.77-1.017a.6.6,0,0,0-.578.824Z" transform="translate(-84.554 -154.222)" fill="#b97964"/>
          <path id="Path_43648" data-name="Path 43648" d="M63.32,196.937c1.818-.755,3.255-3.873,3.255-3.873l-1.032-.624-1.4,1.127-.127.468c-.193.714-.374,1.475-.547,2.245C63.416,196.5,63.368,196.719,63.32,196.937Z" transform="translate(-55.232 -182.257)" opacity="0.2"/>
          <path id="Path_43649" data-name="Path 43649" d="M115.31,212.682l3.135-1.152.091.266-3.137,1.117Z" transform="translate(-97.21 -197.671)" fill="#06b2ff"/>
          <rect id="Rectangle_10250" data-name="Rectangle 10250" width="9.201" height="5.675" transform="translate(0.889 21.495) rotate(9.01)" fill="#06b2ff"/>
          <path id="Path_43650" data-name="Path 43650" d="M34.887,262.26l-1.847.957L34.5,264.7" transform="translate(-30.783 -238.631)" fill="none" stroke="#fff" stroke-linecap="round" stroke-linejoin="round" stroke-width="2"/>
          <path id="Path_43651" data-name="Path 43651" d="M51.79,266.468l1.845-.957-1.458-1.481" transform="translate(-45.923 -240.061)" fill="none" stroke="#fff" stroke-linecap="round" stroke-linejoin="round" stroke-width="2"/>
          <line id="Line_120" data-name="Line 120" y1="2.301" x2="1.252" transform="translate(4.36 23.867)" fill="none" stroke="#fff" stroke-linecap="round" stroke-linejoin="round" stroke-width="2"/>
          <path id="Path_43652" data-name="Path 43652" d="M46.266,183.38s-3.426,3.438-3.892,4.106-1.36,8.077-1.36,8.077-.193.065-.2.225-.031,2.24,0,2.336,1.606,1.069,1.839.838a12.975,12.975,0,0,0,.557-2.586l-.832-.813s.963-5.456,1.573-6.34a22.2,22.2,0,0,1,3.1-2.775Z" transform="translate(-37.044 -174.942)" fill="#b97964"/>
          <path id="Path_43653" data-name="Path 43653" d="M59.562,176.19a4.239,4.239,0,0,1-.8,4.069,26.959,26.959,0,0,1-3.081,2.209L54,180.267s1.787-1.745,2.869-2.75a4.89,4.89,0,0,1,2.692-1.327Z" transform="translate(-47.707 -169.137)" fill="#06b2ff"/>
          <path id="Path_43654" data-name="Path 43654" d="M59.562,176.19a4.239,4.239,0,0,1-.8,4.069,26.959,26.959,0,0,1-3.081,2.209L54,180.267s1.787-1.745,2.869-2.75a4.89,4.89,0,0,1,2.692-1.327Z" transform="translate(-47.707 -169.137)" fill="#fff" opacity="0.4"/>
          <path id="Path_43655" data-name="Path 43655" d="M53.128,196.63l-.208.283,1.754,2.294.248-.177Z" transform="translate(-46.835 -185.64)" fill="#06b2ff"/>
        </g>
      </g>
    </g>
  </g>
</svg>
