<svg id="Layer_1" data-name="Layer 1" xmlns="http://www.w3.org/2000/svg" viewBox="0 0 74.78 57.12"><defs><style>.cls-1{fill:#fff;}</style></defs><path class="cls-1" d="M35.45,14.16V0h9V43.69c-6.55,1.27-13.2,2.21-19.87.12-4.94-1.55-7.82-5-8.83-10.09C13.75,23.44,19.32,12,35.45,14.16Zm0,22.9c0-4.77,0-9.3,0-13.83a2.12,2.12,0,0,0-1.1-1.57,7.18,7.18,0,0,0-8.49,3.55c-1.52,3.33-1.57,6.76.69,9.73S31.85,37.73,35.41,37.06Z"/><path class="cls-1" d="M41,53.52c7.71-2.86,9.08-9,9.17-15.66s0-13.33.06-20c0-1,0-2,0-3.17h8.89a11,11,0,0,1,.23,1.63c0,8.7,0,17.41-.14,26.11-.13,5.92-2.06,11.14-7.59,14.2a5,5,0,0,1-3.7.24A67,67,0,0,1,41,53.52Z"/><path class="cls-1" d="M50.43,9.32V.09h8.8V9.32Z"/></svg>