<svg xmlns="http://www.w3.org/2000/svg" width="46.478" height="47.115" viewBox="0 0 46.478 47.115">
  <g id="Group_18843" data-name="Group 18843" transform="translate(-435.724 -8622.955)">
    <path id="path8615" d="M68.009,67.469c-11.8,0-11.062,5.214-11.062,5.214l.014,5.4H68.219v1.622H52.488s-7.55-.872-7.55,11.262,6.592,11.7,6.592,11.7h3.933V97.037s-.212-6.718,6.485-6.718H73.112s6.274.1,6.274-6.179V73.755S80.339,67.469,68.009,67.469ZM61.8,71.1a2.065,2.065,0,1,1-2.026,2.065A2.046,2.046,0,0,1,61.8,71.1Z" transform="translate(390.786 8555.486)" fill="#fff"/>
    <path id="path8620" d="M84.869,130.448c11.8,0,11.062-5.214,11.062-5.214l-.013-5.4H84.658V118.21h15.732s7.55.872,7.55-11.262-6.592-11.7-6.592-11.7h-3.93v5.631s.211,6.718-6.485,6.718H79.766s-6.274-.1-6.274,6.179v10.388S72.539,130.448,84.869,130.448Zm6.2-3.632a2.065,2.065,0,1,1,2.026-2.064,2.046,2.046,0,0,1-2.026,2.064Z" transform="translate(374.262 8539.622)" fill="#fff"/>
  </g>
</svg>
