<svg xmlns="http://www.w3.org/2000/svg" width="605.793" height="528.659" viewBox="0 0 605.793 528.659">
  <g id="OBJECTS" transform="translate(-28.448 -47.724)">
    <g id="Group_20010" data-name="Group 20010" transform="translate(28.448 47.724)">
      <g id="Group_19759" data-name="Group 19759" transform="translate(0 4.044)">
        <path id="Path_10401" data-name="Path 10401" d="M82.161,209.441l-.425-8.642-8.1.4a19.43,19.43,0,0,0-2.517-5.78l5.3-5.85-6.41-5.811-5.075,5.6a19.377,19.377,0,0,0-7.294-2.657l-.4-8.1-8.642.425.41,8.346a19.29,19.29,0,0,0-4.772,2.218l-5.85-5.306-5.811,6.41,5.6,5.075a19.378,19.378,0,0,0-2.657,7.294l-7.079.346.423,8.642,7.328-.36a19.269,19.269,0,0,0,3.06,5.992l-5.078,5.6,6.41,5.811,5.3-5.85a19.358,19.358,0,0,0,7.023,2.046l.4,8.147,8.642-.425-.432-8.832a19.251,19.251,0,0,0,4.986-2.729l5.6,5.078,5.811-6.41-5.85-5.3a19.3,19.3,0,0,0,1.741-4.968Zm-21.516,1.827a7.93,7.93,0,1,1-.55-11.2A7.939,7.939,0,0,1,60.645,211.268Z" transform="translate(-28.448 -11.357)" fill="#e8e8f9"/>
        <path id="Path_10402" data-name="Path 10402" d="M478.012,356.216l-.424-8.642-8.1.4a19.444,19.444,0,0,0-2.515-5.78l5.3-5.85-6.41-5.811-5.075,5.6a19.379,19.379,0,0,0-7.294-2.657l-.4-8.1-8.642.425.41,8.346a19.322,19.322,0,0,0-4.773,2.218l-5.85-5.3-5.811,6.41,5.6,5.075a19.377,19.377,0,0,0-2.657,7.294l-7.079.346.423,8.642,7.328-.36a19.268,19.268,0,0,0,3.06,5.992l-5.077,5.6,6.41,5.811,5.3-5.85a19.386,19.386,0,0,0,7.023,2.047l.4,8.147,8.642-.425-.432-8.832a19.251,19.251,0,0,0,4.986-2.729l5.6,5.078,5.811-6.41-5.85-5.3a19.3,19.3,0,0,0,1.741-4.968ZM456.5,358.043a7.93,7.93,0,1,1-.55-11.2A7.939,7.939,0,0,1,456.5,358.043Z" transform="translate(127.781 -22.036)" fill="#c6d4e8"/>
        <path id="Path_10403" data-name="Path 10403" d="M344.489,73.464l-.311-6.346-5.946.292a14.259,14.259,0,0,0-1.848-4.244l3.895-4.3L335.569,54.6l-3.727,4.112a14.24,14.24,0,0,0-5.356-1.951l-.292-5.947-6.348.311.3,6.129a14.135,14.135,0,0,0-3.5,1.629l-4.3-3.9L308.079,59.7l4.112,3.729a14.232,14.232,0,0,0-1.951,5.356l-5.2.254.31,6.348,5.382-.264a14.175,14.175,0,0,0,2.247,4.4l-3.729,4.112,4.708,4.268,3.9-4.3a14.23,14.23,0,0,0,5.158,1.5l.292,5.984,6.348-.311-.318-6.486a14.116,14.116,0,0,0,3.662-2l4.112,3.729,4.268-4.708-4.3-3.895a14.2,14.2,0,0,0,1.279-3.648Zm-15.8,1.341a5.824,5.824,0,1,1-.4-8.227A5.83,5.83,0,0,1,328.688,74.805Z" transform="translate(56.957 -50.814)" fill="#e8e8f9"/>
      </g>
      <path id="Path_10583" data-name="Path 10583" d="M271.7,0c150.054,0,271.7,7.944,271.7,17.743S421.75,35.486,271.7,35.486,0,27.542,0,17.743,121.643,0,271.7,0Z" transform="translate(22.914 462.973)" fill="#c6d4e8"/>
      <g id="Group_19846" data-name="Group 19846" transform="translate(2.963)">
        <g id="Group_19786" data-name="Group 19786" transform="translate(525.978 155.12)">
          <g id="Group_19761" data-name="Group 19761" transform="translate(35.197 56.506)">
            <g id="Group_19760" data-name="Group 19760">
              <path id="Path_10404" data-name="Path 10404" d="M466.582,209.422a7.091,7.091,0,1,1-7.091,7.091A7.1,7.1,0,0,1,466.582,209.422Zm0,11.958a4.867,4.867,0,1,0-4.867-4.866A4.872,4.872,0,0,0,466.582,221.38Z" transform="translate(-459.491 -209.422)" fill="#6b5eff"/>
            </g>
          </g>
          <g id="Group_19762" data-name="Group 19762" transform="translate(9.668 31.628)">
            <path id="Path_10405" data-name="Path 10405" d="M447.076,190.413a7.091,7.091,0,1,1-7.091,7.091A7.1,7.1,0,0,1,447.076,190.413Zm0,11.958a4.866,4.866,0,1,0-4.866-4.866A4.872,4.872,0,0,0,447.076,202.371Z" transform="translate(-439.985 -190.413)" fill="#ffaa01"/>
          </g>
          <g id="Group_19773" data-name="Group 19773" transform="translate(0 0)">
            <g id="Group_19767" data-name="Group 19767" transform="translate(6.885)">
              <g id="Group_19764" data-name="Group 19764" transform="translate(0 8.584)">
                <g id="Group_19763" data-name="Group 19763">
                  <path id="Path_10406" data-name="Path 10406" d="M438.971,172.806a1.113,1.113,0,0,1,1.112,1.112v4.905a1.112,1.112,0,1,1-2.225,0v-4.905A1.113,1.113,0,0,1,438.971,172.806Z" transform="translate(-437.859 -172.806)" fill="#6b5eff"/>
                </g>
              </g>
              <g id="Group_19766" data-name="Group 19766">
                <g id="Group_19765" data-name="Group 19765">
                  <path id="Path_10407" data-name="Path 10407" d="M438.971,166.247a1.113,1.113,0,0,1,1.112,1.112v4.905a1.112,1.112,0,1,1-2.225,0v-4.905A1.113,1.113,0,0,1,438.971,166.247Z" transform="translate(-437.859 -166.247)" fill="#6b5eff"/>
                </g>
              </g>
            </g>
            <g id="Group_19772" data-name="Group 19772" transform="translate(0 6.745)">
              <g id="Group_19769" data-name="Group 19769">
                <g id="Group_19768" data-name="Group 19768">
                  <path id="Path_10408" data-name="Path 10408" d="M433.71,171.4h4.407a1.112,1.112,0,1,1,0,2.225H433.71a1.112,1.112,0,0,1,0-2.225Z" transform="translate(-432.598 -171.401)" fill="#6b5eff"/>
                </g>
              </g>
              <g id="Group_19771" data-name="Group 19771" transform="translate(9.364)">
                <g id="Group_19770" data-name="Group 19770">
                  <path id="Path_10409" data-name="Path 10409" d="M440.865,171.4h4.407a1.112,1.112,0,0,1,0,2.225h-4.407a1.112,1.112,0,1,1,0-2.225Z" transform="translate(-439.753 -171.401)" fill="#6b5eff"/>
                </g>
              </g>
            </g>
          </g>
          <g id="Group_19785" data-name="Group 19785" transform="translate(39.156 27.487)">
            <g id="Group_19784" data-name="Group 19784">
              <g id="Group_19778" data-name="Group 19778" transform="translate(6.885)">
                <g id="Group_19775" data-name="Group 19775" transform="translate(0 8.586)">
                  <g id="Group_19774" data-name="Group 19774">
                    <path id="Path_10410" data-name="Path 10410" d="M468.889,193.809A1.112,1.112,0,0,1,470,194.921v4.905a1.112,1.112,0,0,1-2.225,0v-4.905A1.112,1.112,0,0,1,468.889,193.809Z" transform="translate(-467.777 -193.809)" fill="#ffaa01"/>
                  </g>
                </g>
                <g id="Group_19777" data-name="Group 19777">
                  <g id="Group_19776" data-name="Group 19776">
                    <path id="Path_10411" data-name="Path 10411" d="M468.889,187.249A1.113,1.113,0,0,1,470,188.361v4.905a1.112,1.112,0,1,1-2.225,0v-4.905A1.113,1.113,0,0,1,468.889,187.249Z" transform="translate(-467.777 -187.249)" fill="#ffaa01"/>
                  </g>
                </g>
              </g>
              <g id="Group_19783" data-name="Group 19783" transform="translate(0 6.745)">
                <g id="Group_19780" data-name="Group 19780">
                  <g id="Group_19779" data-name="Group 19779">
                    <path id="Path_10412" data-name="Path 10412" d="M463.628,192.4h4.407a1.112,1.112,0,1,1,0,2.225h-4.407a1.112,1.112,0,0,1,0-2.225Z" transform="translate(-462.516 -192.403)" fill="#ffaa01"/>
                  </g>
                </g>
                <g id="Group_19782" data-name="Group 19782" transform="translate(9.364)">
                  <g id="Group_19781" data-name="Group 19781">
                    <path id="Path_10413" data-name="Path 10413" d="M470.783,192.4h4.407a1.112,1.112,0,1,1,0,2.225h-4.407a1.112,1.112,0,0,1,0-2.225Z" transform="translate(-469.671 -192.403)" fill="#ffaa01"/>
                  </g>
                </g>
              </g>
            </g>
          </g>
        </g>
        <g id="Group_19818" data-name="Group 19818" transform="translate(0 103.4)">
          <g id="Group_19789" data-name="Group 19789" transform="translate(16.803 29.197)">
            <g id="Group_19788" data-name="Group 19788">
              <g id="Group_19787" data-name="Group 19787">
                <path id="Path_10414" data-name="Path 10414" d="M57.733,156.129a7.091,7.091,0,1,1-7.091-7.091A7.1,7.1,0,0,1,57.733,156.129Zm-11.958,0a4.867,4.867,0,1,0,4.867-4.867A4.872,4.872,0,0,0,45.775,156.129Z" transform="translate(-43.551 -149.038)" fill="#6b5eff"/>
              </g>
            </g>
          </g>
          <g id="Group_19793" data-name="Group 19793" transform="translate(42.629 5.773)">
            <g id="Group_19792" data-name="Group 19792">
              <g id="Group_19791" data-name="Group 19791">
                <g id="Group_19790" data-name="Group 19790">
                  <path id="Path_10415" data-name="Path 10415" d="M77.466,138.231a7.091,7.091,0,1,1-7.091-7.091A7.1,7.1,0,0,1,77.466,138.231Zm-11.957,0a4.866,4.866,0,1,0,4.866-4.866A4.872,4.872,0,0,0,65.509,138.231Z" transform="translate(-63.284 -131.14)" fill="#ffaa01"/>
                </g>
              </g>
            </g>
          </g>
          <g id="Group_19804" data-name="Group 19804" transform="translate(51.945 38.309)">
            <g id="Group_19798" data-name="Group 19798" transform="translate(0 6.885)">
              <g id="Group_19795" data-name="Group 19795">
                <g id="Group_19794" data-name="Group 19794">
                  <path id="Path_10416" data-name="Path 10416" d="M77.532,162.373a1.113,1.113,0,0,1-1.112,1.112H71.514a1.112,1.112,0,0,1,0-2.225H76.42A1.113,1.113,0,0,1,77.532,162.373Z" transform="translate(-70.402 -161.261)" fill="#6b5eff"/>
                </g>
              </g>
              <g id="Group_19797" data-name="Group 19797" transform="translate(8.584)">
                <g id="Group_19796" data-name="Group 19796">
                  <path id="Path_10417" data-name="Path 10417" d="M84.091,162.373a1.112,1.112,0,0,1-1.112,1.112H78.073a1.112,1.112,0,1,1,0-2.225h4.905A1.112,1.112,0,0,1,84.091,162.373Z" transform="translate(-76.961 -161.261)" fill="#6b5eff"/>
                </g>
              </g>
            </g>
            <g id="Group_19803" data-name="Group 19803" transform="translate(6.744)">
              <g id="Group_19800" data-name="Group 19800">
                <g id="Group_19799" data-name="Group 19799">
                  <path id="Path_10418" data-name="Path 10418" d="M77.78,157.112v4.407a1.112,1.112,0,1,1-2.225,0v-4.407a1.112,1.112,0,0,1,2.225,0Z" transform="translate(-75.555 -156)" fill="#6b5eff"/>
                </g>
              </g>
              <g id="Group_19802" data-name="Group 19802" transform="translate(0 9.364)">
                <g id="Group_19801" data-name="Group 19801">
                  <path id="Path_10419" data-name="Path 10419" d="M77.78,164.267v4.407a1.112,1.112,0,1,1-2.225,0v-4.407a1.112,1.112,0,0,1,2.225,0Z" transform="translate(-75.555 -163.155)" fill="#6b5eff"/>
                </g>
              </g>
            </g>
          </g>
          <g id="Group_19817" data-name="Group 19817">
            <g id="Group_19816" data-name="Group 19816">
              <g id="Group_19810" data-name="Group 19810" transform="translate(0 6.885)">
                <g id="Group_19806" data-name="Group 19806">
                  <g id="Group_19805" data-name="Group 19805">
                    <path id="Path_10420" data-name="Path 10420" d="M37.842,133.1a1.113,1.113,0,0,1-1.112,1.112H31.824a1.112,1.112,0,0,1,0-2.225H36.73A1.112,1.112,0,0,1,37.842,133.1Z" transform="translate(-30.712 -131.99)" fill="#ffaa01"/>
                  </g>
                </g>
                <g id="Group_19809" data-name="Group 19809" transform="translate(8.584)">
                  <g id="Group_19808" data-name="Group 19808">
                    <g id="Group_19807" data-name="Group 19807">
                      <path id="Path_10421" data-name="Path 10421" d="M44.4,133.1a1.112,1.112,0,0,1-1.112,1.112H38.383a1.112,1.112,0,0,1,0-2.225h4.905A1.112,1.112,0,0,1,44.4,133.1Z" transform="translate(-37.271 -131.99)" fill="#ffaa01"/>
                    </g>
                  </g>
                </g>
              </g>
              <g id="Group_19815" data-name="Group 19815" transform="translate(6.744)">
                <g id="Group_19812" data-name="Group 19812">
                  <g id="Group_19811" data-name="Group 19811">
                    <path id="Path_10422" data-name="Path 10422" d="M38.09,127.841v4.407a1.112,1.112,0,1,1-2.225,0v-4.407a1.112,1.112,0,0,1,2.225,0Z" transform="translate(-35.865 -126.729)" fill="#ffaa01"/>
                  </g>
                </g>
                <g id="Group_19814" data-name="Group 19814" transform="translate(0 9.364)">
                  <g id="Group_19813" data-name="Group 19813">
                    <path id="Path_10423" data-name="Path 10423" d="M38.09,135V139.4a1.112,1.112,0,1,1-2.225,0V135a1.112,1.112,0,1,1,2.225,0Z" transform="translate(-35.865 -133.884)" fill="#ffaa01"/>
                  </g>
                </g>
              </g>
            </g>
          </g>
        </g>
        <g id="Group_19825" data-name="Group 19825" transform="translate(64.402 190.175)">
          <g id="Group_19821" data-name="Group 19821" transform="translate(0 0)">
            <g id="Group_19820" data-name="Group 19820">
              <g id="Group_19819" data-name="Group 19819">
                <path id="Path_10424" data-name="Path 10424" d="M106.89,224.9H84.821a4.9,4.9,0,0,1-4.9-4.9V197.933a4.9,4.9,0,0,1,4.9-4.9H106.89a4.9,4.9,0,0,1,4.9,4.9V220A4.9,4.9,0,0,1,106.89,224.9Z" transform="translate(-79.92 -193.032)" fill="#06b2ff"/>
              </g>
            </g>
          </g>
          <g id="Group_19824" data-name="Group 19824" transform="translate(6.204 5.726)">
            <g id="Group_19822" data-name="Group 19822" transform="translate(5.742)">
              <path id="Path_10425" data-name="Path 10425" d="M91.253,209.312a6.864,6.864,0,1,1,9.7-.389A6.872,6.872,0,0,1,91.253,209.312Zm7.775-8.425a4.6,4.6,0,1,0,.26,6.5A4.6,4.6,0,0,0,99.029,200.887Z" transform="translate(-89.048 -197.407)" fill="#fff"/>
            </g>
            <g id="Group_19823" data-name="Group 19823" transform="translate(0 9.94)">
              <path id="Path_10426" data-name="Path 10426" d="M85.025,215.182a1.132,1.132,0,0,1-.064-1.6l7.583-8.216a1.132,1.132,0,1,1,1.663,1.537l-7.583,8.216A1.13,1.13,0,0,1,85.025,215.182Z" transform="translate(-84.661 -205.002)" fill="#fff"/>
            </g>
          </g>
        </g>
        <g id="Group_19830" data-name="Group 19830" transform="translate(169.122 10.898)">
          <g id="Group_19828" data-name="Group 19828" transform="translate(0)">
            <g id="Group_19827" data-name="Group 19827">
              <g id="Group_19826" data-name="Group 19826">
                <path id="Path_10427" data-name="Path 10427" d="M186.9,87.924H164.835a4.9,4.9,0,0,1-4.9-4.9V60.952a4.9,4.9,0,0,1,4.9-4.9H186.9a4.9,4.9,0,0,1,4.9,4.9V83.021A4.9,4.9,0,0,1,186.9,87.924Z" transform="translate(-159.934 -56.051)" fill="#ffaa01"/>
              </g>
            </g>
          </g>
          <g id="Group_19829" data-name="Group 19829" transform="translate(5.933 5.934)">
            <path id="Path_10428" data-name="Path 10428" d="M174.47,60.585a10,10,0,1,0,10,10A10.015,10.015,0,0,0,174.47,60.585Zm.4,13.7v-3.5h4.522a13.182,13.182,0,0,1-.534,3.5Zm2.832,3.992a11.137,11.137,0,0,0,1.738-3.188h3.047a9.163,9.163,0,0,1-5.989,4.473A10.063,10.063,0,0,0,177.705,78.273Zm.881-3.188a10.289,10.289,0,0,1-1.493,2.665,8.361,8.361,0,0,1-2.221,2.026V75.085Zm-3.713-9.422V61.4c.119.005.238.013.357.022a12.485,12.485,0,0,1,3.136,4.242Zm4.373,0a13.128,13.128,0,0,0-1.348-2.458,13.443,13.443,0,0,0-1.266-1.559,9.253,9.253,0,0,1,5.6,4.017Zm-4.373,4.308v-3.5H178.7a11.528,11.528,0,0,1,.695,3.5Zm5.321,0a12.3,12.3,0,0,0-.645-3.5h3.144a9.087,9.087,0,0,1,.955,3.5Zm3.471.8a9.107,9.107,0,0,1-.772,3.5h-3.2a14.2,14.2,0,0,0,.5-3.5Zm-14.33,3.5h-3.289a9.107,9.107,0,0,1-.772-3.5h3.56A14.221,14.221,0,0,0,169.336,74.281Zm1.33-8.618a12.279,12.279,0,0,1,1.119-1.979,11.869,11.869,0,0,1,2.03-2.271l.255-.014v4.264Zm3.4.8v3.5h-4.424a11.534,11.534,0,0,1,.694-3.5Zm-7.362-.8a9.226,9.226,0,0,1,5.721-4.044,13.455,13.455,0,0,0-1.292,1.586,13.128,13.128,0,0,0-1.348,2.458Zm7.362,5.113v3.5h-3.895a13.184,13.184,0,0,1-.533-3.5Zm-8.775-.8a9.107,9.107,0,0,1,.955-3.5h3.237a12.3,12.3,0,0,0-.645,3.5Zm4.3,5.113a11.186,11.186,0,0,0,1.738,3.188,10.246,10.246,0,0,0,1.233,1.313,9.286,9.286,0,0,1-6.112-4.5h3.141Zm4.479,0v4.634a9.466,9.466,0,0,1-3.619-4.634Z" transform="translate(-164.467 -60.585)" fill="#fff"/>
          </g>
        </g>
        <g id="Group_19835" data-name="Group 19835" transform="translate(501.457 107.035)">
          <g id="Group_19833" data-name="Group 19833">
            <g id="Group_19832" data-name="Group 19832">
              <g id="Group_19831" data-name="Group 19831">
                <path id="Path_10429" data-name="Path 10429" d="M440.832,161.378H418.763a4.9,4.9,0,0,1-4.9-4.9V134.408a4.9,4.9,0,0,1,4.9-4.9h22.069a4.9,4.9,0,0,1,4.9,4.9v22.069A4.9,4.9,0,0,1,440.832,161.378Z" transform="translate(-413.862 -129.507)" fill="#006bf8"/>
              </g>
            </g>
          </g>
          <g id="Group_19834" data-name="Group 19834" transform="translate(6.899 9.703)">
            <path id="Path_10430" data-name="Path 10430" d="M432.787,149.387H420.512a1.38,1.38,0,0,1-1.379-1.379V138.3a1.38,1.38,0,0,1,1.379-1.379h12.275a1.38,1.38,0,0,1,1.379,1.379v9.707A1.38,1.38,0,0,1,432.787,149.387Z" transform="translate(-419.133 -136.921)" fill="#fff"/>
            <path id="Path_10431" data-name="Path 10431" d="M435.868,139.425v6.331a.68.68,0,0,1-.972.614l-3.127-1.492a.68.68,0,0,1-.387-.614v-3.345a.68.68,0,0,1,.387-.614l3.127-1.492A.678.678,0,0,1,435.868,139.425Z" transform="translate(-415.351 -136.358)" fill="#fff"/>
          </g>
        </g>
        <g id="Group_19845" data-name="Group 19845" transform="translate(250.368)">
          <g id="Group_19838" data-name="Group 19838" transform="translate(43.306 18.827)">
            <g id="Group_19836" data-name="Group 19836">
              <path id="Path_10432" data-name="Path 10432" d="M258.873,64.507a.91.91,0,0,1-.452,0c-1.625-.427-2.566-.6-2.577-.6a.906.906,0,0,1,.323-1.783c.041.008,1.012.185,2.713.63a.905.905,0,0,1-.008,1.754Z" transform="translate(-255.101 -62.109)" fill="#e8e8f9"/>
            </g>
            <g id="Group_19837" data-name="Group 19837" transform="translate(7.788 2.174)">
              <path id="Path_10433" data-name="Path 10433" d="M298.2,95.967c.844,1.538,1.656,3.133,2.415,4.74a.908.908,0,0,0,1.04.492.993.993,0,0,0,.165-.059.906.906,0,0,0,.432-1.205c-.775-1.64-1.6-3.268-2.464-4.839a.905.905,0,0,0-1.588.87Z" transform="translate(-249.614 -54.242)" fill="#e8e8f9"/>
              <path id="Path_10434" data-name="Path 10434" d="M301.664,103.294c.653,1.626,1.275,3.3,1.845,4.994a.905.905,0,0,0,1.08.588c.022-.005.046-.012.069-.02a.906.906,0,0,0,.568-1.148c-.582-1.721-1.215-3.433-1.881-5.09a.906.906,0,0,0-1.682.675Z" transform="translate(-248.531 -51.95)" fill="#e8e8f9"/>
              <path id="Path_10435" data-name="Path 10435" d="M307.973,124.943a.906.906,0,0,0,.674-.993c-.232-1.8-.5-3.606-.811-5.358a.906.906,0,1,0-1.784.313c.3,1.726.571,3.5.8,5.277a.9.9,0,0,0,1.013.783A.954.954,0,0,0,307.973,124.943Z" transform="translate(-247.161 -47.074)" fill="#e8e8f9"/>
              <path id="Path_10436" data-name="Path 10436" d="M304.893,109.861a.906.906,0,0,0-.628,1.116c.221.8.436,1.6.636,2.392.232.914.455,1.849.665,2.779a.905.905,0,0,0,1.082.684l.024-.007a.906.906,0,0,0,.661-1.076c-.212-.945-.44-1.9-.675-2.826-.2-.806-.421-1.626-.648-2.434a.9.9,0,0,0-1.094-.635A.108.108,0,0,0,304.893,109.861Z" transform="translate(-247.719 -49.548)" fill="#e8e8f9"/>
              <path id="Path_10437" data-name="Path 10437" d="M296.858,93.528a.906.906,0,0,0,1.531-.968c-.966-1.527-1.991-3.042-3.047-4.5a.906.906,0,0,0-1.467,1.063C294.91,90.552,295.913,92.032,296.858,93.528Z" transform="translate(-250.969 -56.385)" fill="#e8e8f9"/>
              <path id="Path_10438" data-name="Path 10438" d="M261.666,65.533c1.653.565,3.33,1.2,4.984,1.881a.893.893,0,0,0,.567.041.906.906,0,0,0,.123-1.716c-1.688-.7-3.4-1.343-5.09-1.92a.906.906,0,1,0-.584,1.715Z" transform="translate(-261.051 -63.77)" fill="#e8e8f9"/>
              <path id="Path_10439" data-name="Path 10439" d="M273.892,71.083a.906.906,0,0,0,.882-1.582c-1.576-.879-3.2-1.722-4.82-2.508a.906.906,0,0,0-.788,1.631C270.757,69.394,272.348,70.221,273.892,71.083Z" transform="translate(-258.704 -62.803)" fill="#e8e8f9"/>
              <path id="Path_10440" data-name="Path 10440" d="M286.8,80.861a.908.908,0,0,0,.843.217.883.883,0,0,0,.437-.259.906.906,0,0,0-.042-1.28c-1.314-1.23-2.687-2.438-4.081-3.589a.905.905,0,0,0-1.153,1.4C284.169,78.474,285.513,79.656,286.8,80.861Z" transform="translate(-254.436 -60.073)" fill="#e8e8f9"/>
              <path id="Path_10441" data-name="Path 10441" d="M280.648,75.579a.906.906,0,1,0,1.065-1.466c-1.454-1.057-2.964-2.087-4.49-3.061a.905.905,0,1,0-.974,1.526C277.745,73.534,279.225,74.543,280.648,75.579Z" transform="translate(-256.488 -61.566)" fill="#e8e8f9"/>
              <path id="Path_10442" data-name="Path 10442" d="M292.235,86.873a.9.9,0,1,0,1.4-1.153c-1.149-1.39-2.36-2.762-3.6-4.076a.905.905,0,1,0-1.319,1.241C289.925,84.17,291.108,85.513,292.235,86.873Z" transform="translate(-252.585 -58.339)" fill="#e8e8f9"/>
            </g>
          </g>
          <g id="Group_19844" data-name="Group 19844">
            <g id="Group_19843" data-name="Group 19843">
              <g id="Group_19839" data-name="Group 19839" transform="translate(0.001)">
                <path id="Path_10443" data-name="Path 10443" d="M268.189,62.818l1.83-15.094-48.006,7.334Z" transform="translate(-222.013 -47.724)" fill="#6b5eff"/>
              </g>
              <g id="Group_19840" data-name="Group 19840" transform="translate(0 7.332)">
                <path id="Path_10444" data-name="Path 10444" d="M222.012,53.326l44.349,11.6.118.033,2.228,2.721-.517-6.6Z" transform="translate(-222.012 -53.326)" fill="#542bda"/>
              </g>
              <g id="Group_19841" data-name="Group 19841" transform="translate(42.709 18.969)">
                <path id="Path_10445" data-name="Path 10445" d="M258.63,64.939l-3.985-.054,1.758-2.667Z" transform="translate(-254.645 -62.218)" fill="#3700b3"/>
              </g>
              <g id="Group_19842" data-name="Group 19842" transform="translate(0.001 7.334)">
                <path id="Path_10446" data-name="Path 10446" d="M260.9,63.5l5.582,1.459L257.4,78.731l-35.388-25.4Z" transform="translate(-222.013 -53.328)" fill="#6b5eff"/>
              </g>
            </g>
          </g>
        </g>
      </g>
      <g id="Group_19883" data-name="Group 19883" transform="translate(51.328 2.477)">
        <g id="Group_19855" data-name="Group 19855">
          <g id="Group_19850" data-name="Group 19850" transform="translate(25.239)">
            <g id="Group_19847" data-name="Group 19847" opacity="0.38">
              <path id="Path_10447" data-name="Path 10447" d="M97.959,85.941c13.644,19.159-4.888,17.47,5.064,31.88,9.071,13.135,27.11,4.874,21.392,32.261-1.251,5.992,2.385,11.2,8.156,14.533a23.8,23.8,0,0,0,27.27-2.246c.59-.475,1.161-.982,1.705-1.514a24.231,24.231,0,0,0,6.827-22.9c-1.626-7.359-5.417-14.97-13.7-19.143-19.443-9.792-3.485-35.04-20.621-39.151C113.383,74.7,113.925,66.91,100.827,54.075,86.942,40.469,79.467,59.976,97.959,85.941Z" transform="translate(-86.951 -49.616)" fill="#c1cddf"/>
            </g>
            <g id="Group_19849" data-name="Group 19849" transform="translate(19.673 26.856)">
              <g id="Group_19848" data-name="Group 19848">
                <path id="Path_10448" data-name="Path 10448" d="M102.181,71.883c.378.55,31.814,46.17,53.017,84.15.59-.475,1.161-.982,1.705-1.514-21.273-38.013-52.511-83.353-52.891-83.9a1.113,1.113,0,1,0-1.831,1.267Z" transform="translate(-101.983 -70.136)" fill="#f0f4fa"/>
              </g>
            </g>
          </g>
          <g id="Group_19854" data-name="Group 19854" transform="translate(0 54.205)">
            <g id="Group_19851" data-name="Group 19851">
              <path id="Path_10449" data-name="Path 10449" d="M92,134.274c23.731,18.748.246,23.322,17.71,37.536,15.92,12.954,35.219-3.729,38,32.137.609,7.846,6.972,12.975,15.293,15.009a30.6,30.6,0,0,0,32.855-12.575c.558-.8,1.08-1.628,1.561-2.481a31.16,31.16,0,0,0,.2-30.722c-4.651-8.5-12.07-16.532-23.8-18.706-27.522-5.1-16.9-42-39.529-40.919-27.292,1.306-29.425-8.51-50.207-19.646C62.056,82.1,59.842,108.868,92,134.274Z" transform="translate(-67.667 -91.033)" fill="#c6d4e8"/>
            </g>
            <g id="Group_19853" data-name="Group 19853" transform="translate(31.973 27.983)">
              <g id="Group_19852" data-name="Group 19852">
                <path id="Path_10450" data-name="Path 10450" d="M92.625,114.954c.665.542,55.869,45.56,95.7,84.826.558-.8,1.08-1.628,1.561-2.481C149.958,158.02,95.1,113.277,94.431,112.735a1.431,1.431,0,0,0-1.806,2.22Z" transform="translate(-92.096 -112.414)" fill="#f0f4fa"/>
              </g>
            </g>
          </g>
        </g>
        <g id="Group_19864" data-name="Group 19864" transform="translate(333.927 349.877)">
          <g id="Group_19859" data-name="Group 19859" transform="translate(16.049)">
            <g id="Group_19856" data-name="Group 19856">
              <path id="Path_10451" data-name="Path 10451" d="M426.7,347.86c-20.72,11.132-3.357,17.827-18.663,26.338-13.952,7.757-26.463-7.642-33.471,19.446-1.533,5.926-7.1,8.989-13.751,9.415a23.8,23.8,0,0,1-23.452-14.094c-.319-.687-.606-1.394-.859-2.112a24.235,24.235,0,0,1,4.025-23.554c4.718-5.878,11.488-11.021,20.768-11.091,21.769-.165,18.649-29.87,35.832-25.963,20.723,4.709,23.69-2.518,41.118-8.222C456.724,311.975,454.783,332.775,426.7,347.86Z" transform="translate(-335.075 -316.948)" fill="#dee5ef"/>
            </g>
            <g id="Group_19858" data-name="Group 19858" transform="translate(1.432 17.978)">
              <g id="Group_19857" data-name="Group 19857">
                <path id="Path_10452" data-name="Path 10452" d="M421.839,332.77c-.582.325-48.976,27.3-84.811,51.954-.319-.687-.606-1.394-.859-2.112,35.913-24.655,84-51.464,84.589-51.787a1.113,1.113,0,0,1,1.081,1.945Z" transform="translate(-336.169 -330.685)" fill="#f0f4fa"/>
              </g>
            </g>
          </g>
          <g id="Group_19863" data-name="Group 19863" transform="translate(0 38.729)">
            <g id="Group_19860" data-name="Group 19860">
              <path id="Path_10453" data-name="Path 10453" d="M448.223,385.878c-29.58,6.294-10.553,20.8-32.506,25.805-20.011,4.561-29.922-18.946-48.308,11.974-4.022,6.764-12,8.544-20.361,6.681a30.6,30.6,0,0,1-23.884-25.829c-.147-.963-.247-1.938-.3-2.917A31.159,31.159,0,0,1,336.3,373.963c7.936-5.561,18.145-9.476,29.624-6.227,26.932,7.621,33.757-30.17,53.566-19.172,23.889,13.262,30.15,5.408,53.715,4.63C498.184,352.369,488.31,377.348,448.223,385.878Z" transform="translate(-322.812 -346.541)" fill="#c6d4e8"/>
            </g>
            <g id="Group_19862" data-name="Group 19862" transform="translate(0.052 21.491)">
              <g id="Group_19861" data-name="Group 19861">
                <path id="Path_10454" data-name="Path 10454" d="M446.525,365.788c-.836.191-70.271,16.094-123.373,33.651-.147-.963-.247-1.938-.3-2.917C376.047,379,445.051,363.187,445.89,363a1.431,1.431,0,0,1,.635,2.79Z" transform="translate(-322.852 -362.962)" fill="#f0f4fa"/>
              </g>
            </g>
          </g>
        </g>
        <g id="Group_19873" data-name="Group 19873" transform="translate(319.594 12.558)">
          <g id="Group_19868" data-name="Group 19868" transform="translate(13.613)">
            <g id="Group_19865" data-name="Group 19865">
              <path id="Path_10455" data-name="Path 10455" d="M322.261,172.352l3.747.988,1.988.524,5.632,1.483s78.178-71.527,54.692-109.868c-7.23-11.8-26.793-9.852-35.308,31.6C345.119,135.5,322.261,172.352,322.261,172.352Z" transform="translate(-322.261 -59.212)" fill="#dee5ef"/>
            </g>
            <g id="Group_19867" data-name="Group 19867" transform="translate(3.747 26.492)">
              <g id="Group_19866" data-name="Group 19866">
                <path id="Path_10456" data-name="Path 10456" d="M325.124,167.09l1.988.523c15.461-18.4,26.957-39.729,34.095-54.987a288.6,288.6,0,0,0,12.856-31.965.929.929,0,0,0-1.772-.558,287.1,287.1,0,0,1-12.782,31.764C352.335,127.2,340.734,148.7,325.124,167.09Z" transform="translate(-325.124 -79.454)" fill="#f0f4fa"/>
              </g>
            </g>
          </g>
          <g id="Group_19872" data-name="Group 19872" transform="translate(0 14.224)">
            <g id="Group_19869" data-name="Group 19869">
              <path id="Path_10457" data-name="Path 10457" d="M311.86,184.557l4.217,3.3,2.238,1.75,6.338,4.956S462.92,146.456,454.04,84.975c-2.733-18.926-28.628-27.13-62.062,20.834C360.985,150.269,311.86,184.557,311.86,184.557Z" transform="translate(-311.86 -70.08)" fill="#c6d4e8"/>
            </g>
            <g id="Group_19871" data-name="Group 19871" transform="translate(4.217 32.678)">
              <g id="Group_19870" data-name="Group 19870">
                <path id="Path_10458" data-name="Path 10458" d="M315.082,180.148l2.238,1.75c29.665-14.911,55.9-35.709,73.287-51.177a398.728,398.728,0,0,0,33.765-33.552,1.284,1.284,0,0,0-1.945-1.677,396.35,396.35,0,0,1-33.56,33.337C371.392,144.373,344.93,165.329,315.082,180.148Z" transform="translate(-315.082 -95.048)" fill="#f0f4fa"/>
              </g>
            </g>
          </g>
        </g>
        <g id="Group_19882" data-name="Group 19882" transform="translate(2.035 349.238)">
          <g id="Group_19877" data-name="Group 19877" transform="translate(36.695)">
            <g id="Group_19874" data-name="Group 19874">
              <path id="Path_10459" data-name="Path 10459" d="M208.65,372.96l-2.283,2.9-1.212,1.535-3.432,4.348s-100.315-9.64-104.4-52.207c-1.256-13.1,14.725-22.811,44.9,3.819C170.207,358.032,208.65,372.96,208.65,372.96Z" transform="translate(-97.259 -316.46)" fill="#dee5ef"/>
            </g>
            <g id="Group_19876" data-name="Group 19876" transform="translate(22.119 20.106)">
              <g id="Group_19875" data-name="Group 19875">
                <path id="Path_10460" data-name="Path 10460" d="M201.149,371.11l-1.212,1.535c-22.27-5.138-43.205-14.772-57.356-22.283a274.661,274.661,0,0,1-28.051-16.937.884.884,0,0,1,1.027-1.438,272.862,272.862,0,0,0,27.878,16.827C157.658,356.36,178.772,366.063,201.149,371.11Z" transform="translate(-114.16 -331.823)" fill="#f0f4fa"/>
              </g>
            </g>
          </g>
          <g id="Group_19881" data-name="Group 19881" transform="translate(0 40.023)">
            <g id="Group_19878" data-name="Group 19878">
              <path id="Path_10461" data-name="Path 10461" d="M236.551,367.556l-1.317,4.92-.7,2.61-1.981,7.392S99.973,425,71.558,373.2c-8.748-15.946,6.238-36.989,59.075-19.664C179.612,369.6,236.551,367.556,236.551,367.556Z" transform="translate(-69.222 -347.04)" fill="#c6d4e8"/>
            </g>
            <g id="Group_19880" data-name="Group 19880" transform="translate(34.547 22.473)">
              <g id="Group_19879" data-name="Group 19879">
                <path id="Path_10462" data-name="Path 10462" d="M227.084,367.174l-.7,2.61c-31.069,5.636-62.9,4.836-84.959,3.026a379.262,379.262,0,0,1-44.846-6.184,1.221,1.221,0,0,1,.52-2.386,377.057,377.057,0,0,0,44.568,6.138C163.835,372.193,195.927,372.985,227.084,367.174Z" transform="translate(-95.619 -364.212)" fill="#f0f4fa"/>
              </g>
            </g>
          </g>
        </g>
      </g>
      <g id="Group_19895" data-name="Group 19895" transform="translate(125.429 59.52)">
        <g id="Group_19884" data-name="Group 19884">
          <path id="Path_10463" data-name="Path 10463" d="M453.35,106.436V506.053a13.234,13.234,0,0,1-13.236,13.234h-302.6a13.23,13.23,0,0,1-13.234-13.234V106.436A13.234,13.234,0,0,1,137.519,93.2h302.6a13.237,13.237,0,0,1,13.236,13.234Z" transform="translate(-124.285 -93.202)" fill="#2e3062"/>
          <path id="Path_10464" data-name="Path 10464" d="M453.243,105.979V505.6a13.234,13.234,0,0,1-13.236,13.234h-302.6a13.236,13.236,0,0,1-12.783-9.8L446.905,94.683A13.223,13.223,0,0,1,453.243,105.979Z" transform="translate(-124.178 -92.745)" fill="#001030"/>
        </g>
        <path id="Path_10465" data-name="Path 10465" d="M425.52,126.708V481.7a6.842,6.842,0,0,1-6.845,6.842H148.335a6.842,6.842,0,0,1-6.845-6.842V126.708a6.844,6.844,0,0,1,6.845-6.845h270.34A6.844,6.844,0,0,1,425.52,126.708Z" transform="translate(-118.973 -84.97)" fill="#fff"/>
        <g id="Group_19885" data-name="Group 19885" transform="translate(77.957 14.881)">
          <path id="Path_10466" data-name="Path 10466" d="M320.335,111.524H186.746a2.905,2.905,0,0,1-2.9-2.9v-1.16a2.905,2.905,0,0,1,2.9-2.9H320.335a2.905,2.905,0,0,1,2.9,2.9v1.16A2.905,2.905,0,0,1,320.335,111.524Z" transform="translate(-183.85 -104.572)" fill="#524e84"/>
          <circle id="Ellipse_256" data-name="Ellipse 256" cx="3.476" cy="3.476" r="3.476" transform="translate(166.199)" fill="#524e84"/>
        </g>
        <g id="Group_19886" data-name="Group 19886" transform="translate(22.517 34.893)">
          <path id="Path_10467" data-name="Path 10467" d="M425.52,126.708v22.524H141.49V126.708a6.844,6.844,0,0,1,6.845-6.845h270.34A6.844,6.844,0,0,1,425.52,126.708Z" transform="translate(-141.49 -119.863)" fill="#e8e8f9"/>
          <path id="Path_10468" data-name="Path 10468" d="M372.892,128.218H200.813a4.122,4.122,0,0,0-4.167,3.959,4.033,4.033,0,0,0,4.034,4.11H372.892a4.034,4.034,0,0,0,4.034-4.034h0A4.034,4.034,0,0,0,372.892,128.218Z" transform="translate(-124.459 -117.283)" fill="#fff"/>
          <path id="Path_10469" data-name="Path 10469" d="M160.914,132.268v2.989a1.114,1.114,0,0,1-1.67.965l-2.589-1.495-2.589-1.495a1.114,1.114,0,0,1,0-1.929l2.589-1.495,2.589-1.495a1.113,1.113,0,0,1,1.67.965Z" transform="translate(-137.779 -117.3)" fill="#2e3062"/>
          <path id="Path_10470" data-name="Path 10470" d="M169.459,132.268v2.989a1.114,1.114,0,0,0,1.67.965l2.589-1.495,2.589-1.495a1.114,1.114,0,0,0,0-1.929l-2.589-1.495-2.589-1.495a1.113,1.113,0,0,0-1.67.965Z" transform="translate(-132.854 -117.3)" fill="#2e3062"/>
        </g>
        <g id="Group_19894" data-name="Group 19894" transform="translate(48.858 78.396)">
          <path id="Path_10585" data-name="Path 10585" d="M16.218.816A37.453,37.453,0,0,1,7.574-.179,23.174,23.174,0,0,1,.663-2.856l3.876-8.772a24.714,24.714,0,0,0,5.712,2.372,22.326,22.326,0,0,0,6.069.892,9.407,9.407,0,0,0,3.57-.484A1.556,1.556,0,0,0,20.961-10.3q0-1.122-1.4-1.683a30.162,30.162,0,0,0-4.615-1.224,52.342,52.342,0,0,1-6.885-1.861,11.733,11.733,0,0,1-4.794-3.264,8.852,8.852,0,0,1-2.04-6.146A10.587,10.587,0,0,1,3.111-30.6a12.466,12.466,0,0,1,5.636-4.335,23.407,23.407,0,0,1,9.1-1.581,33.052,33.052,0,0,1,7.217.791,22.606,22.606,0,0,1,6.247,2.32l-3.621,8.721a22.133,22.133,0,0,0-9.945-2.652q-4.641,0-4.641,2.244,0,1.071,1.377,1.606a29.16,29.16,0,0,0,4.539,1.148,46.675,46.675,0,0,1,6.885,1.76,11.978,11.978,0,0,1,4.87,3.239,8.688,8.688,0,0,1,2.066,6.12,10.47,10.47,0,0,1-1.887,6.095A12.7,12.7,0,0,1,25.322-.791,23.077,23.077,0,0,1,16.218.816ZM66.1-9.078V0H36.414V-35.7H65.433v9.078H48.246v4.182h15.1v8.67h-15.1v4.692ZM95.064-6.222H81.5L79.1,0H66.861L82.467-35.7H94.3L109.9,0H97.461Zm-3.315-8.67-3.468-8.976-3.468,8.976Zm35.394,5.916h-3.264V0H111.843V-35.7H129.03a21.073,21.073,0,0,1,8.619,1.632,12.7,12.7,0,0,1,5.661,4.692,12.806,12.806,0,0,1,1.989,7.14,12.62,12.62,0,0,1-1.734,6.681,12.244,12.244,0,0,1-5,4.539L146.064,0H133.212Zm6.018-13.26a3.928,3.928,0,0,0-1.224-3.086,5.355,5.355,0,0,0-3.672-1.1h-4.386v8.364h4.386a5.355,5.355,0,0,0,3.672-1.1A3.928,3.928,0,0,0,133.161-22.236ZM168.3.816a21.691,21.691,0,0,1-10.2-2.372,17.729,17.729,0,0,1-7.115-6.63,18.3,18.3,0,0,1-2.576-9.665,18.3,18.3,0,0,1,2.576-9.664,17.729,17.729,0,0,1,7.115-6.63,21.691,21.691,0,0,1,10.2-2.371,22.392,22.392,0,0,1,9.282,1.836,17.228,17.228,0,0,1,6.732,5.3l-7.6,6.783q-3.315-4.182-7.8-4.182a7.971,7.971,0,0,0-6.069,2.423,9.066,9.066,0,0,0-2.295,6.5,9.066,9.066,0,0,0,2.295,6.5,7.971,7.971,0,0,0,6.069,2.423q4.488,0,7.8-4.182l7.6,6.783a17.228,17.228,0,0,1-6.732,5.3A22.392,22.392,0,0,1,168.3.816ZM222.972-35.7V0H210.936V-13.158H199.818V0H187.782V-35.7h12.036v12.648h11.118V-35.7Z" transform="translate(0 49)" fill="#524e84"/>
          <g id="Group_19887" data-name="Group 19887" transform="translate(0.481 71.901)">
            <path id="Path_10471" data-name="Path 10471" d="M392.852,219.98h0a11.94,11.94,0,0,1-11.94,11.94H173.924a11.94,11.94,0,0,1-11.94-11.94h0a11.94,11.94,0,0,1,11.94-11.94H380.913A11.941,11.941,0,0,1,392.852,219.98Z" transform="translate(-161.984 -208.04)" fill="#e8e8f9"/>
          </g>
          <g id="Group_19890" data-name="Group 19890" transform="translate(90.71 118.148)">
            <g id="Group_19888" data-name="Group 19888">
              <path id="Path_10472" data-name="Path 10472" d="M291.656,243.376H232.751a1.961,1.961,0,0,0-1.826,2.073h0a1.961,1.961,0,0,0,1.826,2.073h58.905a1.962,1.962,0,0,0,1.826-2.073h0A1.962,1.962,0,0,0,291.656,243.376Z" transform="translate(-230.925 -243.376)" fill="#e8e8f9"/>
              <path id="Path_10473" data-name="Path 10473" d="M291.656,251H232.751a1.961,1.961,0,0,0-1.826,2.073h0a1.961,1.961,0,0,0,1.826,2.073h58.905a1.962,1.962,0,0,0,1.826-2.073h0A1.962,1.962,0,0,0,291.656,251Z" transform="translate(-230.925 -241.021)" fill="#e8e8f9"/>
              <path id="Path_10474" data-name="Path 10474" d="M291.656,258.627H232.751a1.961,1.961,0,0,0-1.826,2.073h0a1.961,1.961,0,0,0,1.826,2.073h58.905a1.962,1.962,0,0,0,1.826-2.073h0A1.962,1.962,0,0,0,291.656,258.627Z" transform="translate(-230.925 -238.667)" fill="#e8e8f9"/>
              <path id="Path_10475" data-name="Path 10475" d="M291.656,266.253H232.751a1.961,1.961,0,0,0-1.826,2.073h0a1.961,1.961,0,0,0,1.826,2.073h58.905a1.962,1.962,0,0,0,1.826-2.073h0A1.962,1.962,0,0,0,291.656,266.253Z" transform="translate(-230.925 -236.312)" fill="#e8e8f9"/>
              <path id="Path_10476" data-name="Path 10476" d="M291.656,273.878H232.751a1.961,1.961,0,0,0-1.826,2.073h0a1.961,1.961,0,0,0,1.826,2.073h58.905a1.962,1.962,0,0,0,1.826-2.073h0A1.962,1.962,0,0,0,291.656,273.878Z" transform="translate(-230.925 -233.958)" fill="#e8e8f9"/>
              <path id="Path_10477" data-name="Path 10477" d="M291.656,281.5H232.751a1.961,1.961,0,0,0-1.826,2.073h0a1.961,1.961,0,0,0,1.826,2.073h58.905a1.962,1.962,0,0,0,1.826-2.073h0A1.962,1.962,0,0,0,291.656,281.5Z" transform="translate(-230.925 -231.603)" fill="#e8e8f9"/>
              <path id="Path_10478" data-name="Path 10478" d="M291.656,289.129H232.751a1.961,1.961,0,0,0-1.826,2.073h0a1.961,1.961,0,0,0,1.826,2.073h58.905a1.962,1.962,0,0,0,1.826-2.073h0A1.962,1.962,0,0,0,291.656,289.129Z" transform="translate(-230.925 -229.249)" fill="#e8e8f9"/>
              <path id="Path_10479" data-name="Path 10479" d="M291.656,296.755H232.751a1.961,1.961,0,0,0-1.826,2.073h0a1.961,1.961,0,0,0,1.826,2.073h58.905a1.962,1.962,0,0,0,1.826-2.073h0A1.962,1.962,0,0,0,291.656,296.755Z" transform="translate(-230.925 -226.894)" fill="#e8e8f9"/>
            </g>
            <g id="Group_19889" data-name="Group 19889" transform="translate(76.604)">
              <path id="Path_10480" data-name="Path 10480" d="M350.187,243.376H291.282a1.961,1.961,0,0,0-1.826,2.073h0a1.961,1.961,0,0,0,1.826,2.073h58.905a1.961,1.961,0,0,0,1.826-2.073h0A1.962,1.962,0,0,0,350.187,243.376Z" transform="translate(-289.456 -243.376)" fill="#e8e8f9"/>
              <path id="Path_10481" data-name="Path 10481" d="M350.187,251H291.282a1.961,1.961,0,0,0-1.826,2.073h0a1.961,1.961,0,0,0,1.826,2.073h58.905a1.961,1.961,0,0,0,1.826-2.073h0A1.962,1.962,0,0,0,350.187,251Z" transform="translate(-289.456 -241.021)" fill="#e8e8f9"/>
              <path id="Path_10482" data-name="Path 10482" d="M350.187,258.627H291.282a1.961,1.961,0,0,0-1.826,2.073h0a1.961,1.961,0,0,0,1.826,2.073h58.905a1.961,1.961,0,0,0,1.826-2.073h0A1.962,1.962,0,0,0,350.187,258.627Z" transform="translate(-289.456 -238.667)" fill="#e8e8f9"/>
              <path id="Path_10483" data-name="Path 10483" d="M350.187,266.253H291.282a1.961,1.961,0,0,0-1.826,2.073h0a1.961,1.961,0,0,0,1.826,2.073h58.905a1.961,1.961,0,0,0,1.826-2.073h0A1.962,1.962,0,0,0,350.187,266.253Z" transform="translate(-289.456 -236.312)" fill="#e8e8f9"/>
              <path id="Path_10484" data-name="Path 10484" d="M350.187,273.878H291.282a1.961,1.961,0,0,0-1.826,2.073h0a1.961,1.961,0,0,0,1.826,2.073h58.905a1.961,1.961,0,0,0,1.826-2.073h0A1.962,1.962,0,0,0,350.187,273.878Z" transform="translate(-289.456 -233.958)" fill="#e8e8f9"/>
              <path id="Path_10485" data-name="Path 10485" d="M350.187,281.5H291.282a1.961,1.961,0,0,0-1.826,2.073h0a1.961,1.961,0,0,0,1.826,2.073h58.905a1.961,1.961,0,0,0,1.826-2.073h0A1.962,1.962,0,0,0,350.187,281.5Z" transform="translate(-289.456 -231.603)" fill="#e8e8f9"/>
              <path id="Path_10486" data-name="Path 10486" d="M350.187,289.129H291.282a1.961,1.961,0,0,0-1.826,2.073h0a1.961,1.961,0,0,0,1.826,2.073h58.905a1.961,1.961,0,0,0,1.826-2.073h0A1.962,1.962,0,0,0,350.187,289.129Z" transform="translate(-289.456 -229.249)" fill="#e8e8f9"/>
              <path id="Path_10487" data-name="Path 10487" d="M350.187,296.755H291.282a1.961,1.961,0,0,0-1.826,2.073h0a1.961,1.961,0,0,0,1.826,2.073h58.905a1.961,1.961,0,0,0,1.826-2.073h0A1.962,1.962,0,0,0,350.187,296.755Z" transform="translate(-289.456 -226.894)" fill="#e8e8f9"/>
            </g>
          </g>
          <g id="Group_19893" data-name="Group 19893" transform="translate(89.231 206.443)">
            <g id="Group_19891" data-name="Group 19891" transform="translate(49.779 14.979)">
              <path id="Path_10488" data-name="Path 10488" d="M288.45,322.285a20.618,20.618,0,1,0,20.617,20.62A20.619,20.619,0,0,0,288.45,322.285ZM281.2,353.748V332.062l18.53,10.843Z" transform="translate(-267.83 -322.285)" fill="#ffaa01"/>
            </g>
            <g id="Group_19892" data-name="Group 19892">
              <path id="Path_10489" data-name="Path 10489" d="M363.315,383.4H238.394a8.608,8.608,0,0,1-8.6-8.6V319.439a8.608,8.608,0,0,1,8.6-8.6H363.315a8.608,8.608,0,0,1,8.6,8.6v55.368A8.608,8.608,0,0,1,363.315,383.4ZM238.394,313.8a5.645,5.645,0,0,0-5.638,5.638v55.368a5.644,5.644,0,0,0,5.638,5.638H363.315a5.645,5.645,0,0,0,5.638-5.638V319.439a5.645,5.645,0,0,0-5.638-5.638Z" transform="translate(-229.795 -310.84)" fill="#e8e8f9"/>
            </g>
          </g>
          <path id="Path_10490" data-name="Path 10490" d="M234.745,383.215H169.561a7.577,7.577,0,0,1-7.576-7.577V319.033a7.577,7.577,0,0,1,7.576-7.577h65.183a7.577,7.577,0,0,1,7.576,7.577v56.606A7.577,7.577,0,0,1,234.745,383.215Z" transform="translate(-161.502 -104.207)" fill="#e8e8f9"/>
          <path id="Path_10491" data-name="Path 10491" d="M234.745,313.765H169.561a7.577,7.577,0,0,1-7.576-7.576V249.583a7.577,7.577,0,0,1,7.576-7.577h65.183a7.577,7.577,0,0,1,7.576,7.577v56.606A7.577,7.577,0,0,1,234.745,313.765Z" transform="translate(-161.502 -125.651)" fill="#e8e8f9"/>
        </g>
      </g>
      <g id="Group_19951" data-name="Group 19951" transform="translate(44.578 313.499)">
        <path id="Path_10584" data-name="Path 10584" d="M103.49,0c57.156,0,103.49,12.112,103.49,27.052S179,6.462,109,31.847,0,41.993,0,27.052,46.334,0,103.49,0Z" transform="translate(7.96 169.702)" fill="#c6d4e8"/>
        <g id="Group_19950" data-name="Group 19950">
          <path id="Path_10492" data-name="Path 10492" d="M171.795,314.972l-.005-.052c-.113-.631-.2-1.263-.266-1.889-.953-9.184,3.111-26.512,23.3-25.746,0,0,16.718.309,20.143,16.289,0,0,1.5,7.382,2.532,12.73,0,0,.412,2.748.963,6.412a11.462,11.462,0,0,1-11.844,13.148q-.395-.018-.777-.014c-7.112.046-8.493.525-15.923,1.844a6.619,6.619,0,0,0-.674.158,30.789,30.789,0,0,1-7.659,1.15,6.25,6.25,0,0,1-6.317-5.332C174.505,328.5,173.189,320.258,171.795,314.972Z" transform="translate(-28.887 -287.26)" fill="#012156"/>
          <g id="Group_19896" data-name="Group 19896" transform="translate(99.755 53.834)">
            <path id="Path_10493" data-name="Path 10493" d="M138.729,414.542c30.17-40.561,48.1-86.149,48.1-86.149l-2.768,39.3s-25.734,43.1-34.692,52.7C145.794,420.392,138.729,419.177,138.729,414.542Z" transform="translate(-138.729 -328.393)" fill="#06b2ff"/>
          </g>
          <g id="Group_19909" data-name="Group 19909" transform="translate(0 130.772)">
            <g id="Group_19903" data-name="Group 19903" transform="translate(0 38.928)">
              <path id="Path_10494" data-name="Path 10494" d="M92.161,424.35l-8.435,5.98,5.592,7.628,9.3-5.833Z" transform="translate(-55.957 -414.63)" fill="#fba691"/>
              <g id="Group_19902" data-name="Group 19902">
                <g id="Group_19901" data-name="Group 19901">
                  <path id="Path_10495" data-name="Path 10495" d="M92.014,433.412s1.167-3.737-.033-5.16-18.828-6.321-22.472-9.74-6.007-.525-6.973,1.288S86.1,451.062,86.1,451.062s9.828-5.84,11.91-8.9S93.6,437,92.014,433.412Z" transform="translate(-62.509 -416.923)" fill="#f88800"/>
                  <g id="Group_19900" data-name="Group 19900" transform="translate(13.776 4.564)">
                    <g id="Group_19897" data-name="Group 19897" transform="translate(2.903 1.323)">
                      <path id="Path_10496" data-name="Path 10496" d="M77,430.286a.687.687,0,0,0,1.275.056,10.586,10.586,0,0,0,.915-5.087,4.74,4.74,0,0,0-3.042-3.8.687.687,0,1,0-.411,1.311,3.38,3.38,0,0,1,2.1,2.712,9.34,9.34,0,0,1-.811,4.3A.691.691,0,0,0,77,430.286Z" transform="translate(-75.253 -421.422)" fill="#fff"/>
                    </g>
                    <g id="Group_19898" data-name="Group 19898" transform="translate(5.672 1.843)">
                      <path id="Path_10497" data-name="Path 10497" d="M79.114,430.685a.688.688,0,0,0,1.275.055,10.586,10.586,0,0,0,.915-5.087,4.734,4.734,0,0,0-3.042-3.8.687.687,0,0,0-.411,1.311,3.381,3.381,0,0,1,2.1,2.712,9.293,9.293,0,0,1-.811,4.3A.7.7,0,0,0,79.114,430.685Z" transform="translate(-77.369 -421.819)" fill="#fff"/>
                    </g>
                    <g id="Group_19899" data-name="Group 19899">
                      <path id="Path_10498" data-name="Path 10498" d="M74.78,429.275a.687.687,0,0,0,1.275.056,10.569,10.569,0,0,0,.915-5.087,4.734,4.734,0,0,0-3.042-3.8.687.687,0,1,0-.411,1.311,3.381,3.381,0,0,1,2.1,2.712,9.294,9.294,0,0,1-.811,4.3A.7.7,0,0,0,74.78,429.275Z" transform="translate(-73.035 -420.411)" fill="#fff"/>
                    </g>
                  </g>
                </g>
              </g>
            </g>
            <g id="Group_19908" data-name="Group 19908" transform="translate(32.128)">
              <g id="Group_19907" data-name="Group 19907" transform="translate(1.263)">
                <g id="Group_19906" data-name="Group 19906">
                  <g id="Group_19905" data-name="Group 19905">
                    <g id="Group_19904" data-name="Group 19904">
                      <path id="Path_10499" data-name="Path 10499" d="M92.27,444.117a13.386,13.386,0,0,0,1.259.955,18.83,18.83,0,0,0,3.11,1.809s34.82-20.846,56.216-41.389c0,0,36.7,19.92,56.911,13.555a2.947,2.947,0,0,0,1.171-1.085h.014a12.6,12.6,0,0,0,.911-1.475c1.967-3.675,3.661-10.445-.072-14.408,0,0-42.271-18.806-61.453-14.162s-62.264,47.421-62.264,47.421C87.7,438.649,89.434,441.715,92.27,444.117Z" transform="translate(-88.022 -387.18)" fill="#001030"/>
                    </g>
                  </g>
                </g>
              </g>
              <path id="Path_10500" data-name="Path 10500" d="M100.937,435.173l-5.479,2.919s-6.395-5.32-8.4-12.946l4.31-3.722S95.949,431.4,100.937,435.173Z" transform="translate(-87.057 -376.606)" fill="#2e3062"/>
            </g>
          </g>
          <g id="Group_19921" data-name="Group 19921" transform="translate(17.179 146.382)">
            <g id="Group_19916" data-name="Group 19916" transform="translate(0 34.64)">
              <path id="Path_10501" data-name="Path 10501" d="M105.287,433l-8.435,5.978,5.592,7.628,9.3-5.832Z" transform="translate(-69.083 -423.281)" fill="#fba691"/>
              <g id="Group_19915" data-name="Group 19915">
                <g id="Group_19914" data-name="Group 19914">
                  <path id="Path_10502" data-name="Path 10502" d="M105.14,442.063s1.167-3.737-.033-5.16-18.828-6.321-22.472-9.74-6.007-.525-6.973,1.288,23.562,31.263,23.562,31.263,9.828-5.838,11.911-8.9S106.728,445.652,105.14,442.063Z" transform="translate(-75.635 -425.574)" fill="#ffaa01"/>
                  <g id="Group_19913" data-name="Group 19913" transform="translate(13.776 4.563)">
                    <g id="Group_19910" data-name="Group 19910" transform="translate(2.903 1.324)">
                      <path id="Path_10503" data-name="Path 10503" d="M90.124,438.937a.687.687,0,0,0,1.275.056,10.586,10.586,0,0,0,.915-5.087,4.74,4.74,0,0,0-3.042-3.8.687.687,0,1,0-.411,1.311,3.378,3.378,0,0,1,2.1,2.712,9.335,9.335,0,0,1-.811,4.3A.691.691,0,0,0,90.124,438.937Z" transform="translate(-88.379 -430.073)" fill="#fff"/>
                    </g>
                    <g id="Group_19911" data-name="Group 19911" transform="translate(5.672 1.847)">
                      <path id="Path_10504" data-name="Path 10504" d="M92.24,439.335a.687.687,0,0,0,1.275.056,10.583,10.583,0,0,0,.915-5.086,4.734,4.734,0,0,0-3.042-3.8.687.687,0,1,0-.411,1.311,3.381,3.381,0,0,1,2.1,2.712,9.293,9.293,0,0,1-.811,4.3A.693.693,0,0,0,92.24,439.335Z" transform="translate(-90.495 -430.472)" fill="#fff"/>
                    </g>
                    <g id="Group_19912" data-name="Group 19912">
                      <path id="Path_10505" data-name="Path 10505" d="M87.906,437.925a.687.687,0,0,0,1.275.056,10.586,10.586,0,0,0,.915-5.087,4.734,4.734,0,0,0-3.042-3.8.687.687,0,1,0-.411,1.311,3.381,3.381,0,0,1,2.1,2.712,9.293,9.293,0,0,1-.811,4.3A.691.691,0,0,0,87.906,437.925Z" transform="translate(-86.161 -429.061)" fill="#fff"/>
                    </g>
                  </g>
                </g>
              </g>
            </g>
            <g id="Group_19920" data-name="Group 19920" transform="translate(34.116)">
              <g id="Group_19919" data-name="Group 19919" transform="translate(1.782)">
                <g id="Group_19918" data-name="Group 19918">
                  <g id="Group_19917" data-name="Group 19917">
                    <path id="Path_10506" data-name="Path 10506" d="M106.3,450.3a11.549,11.549,0,0,0,1.186,1.013,22.211,22.211,0,0,0,2.488,1.721s36.8-17.128,60.209-35.355c0,0,40.462,20.8,61.511,18.387,16.578-1.881,14.582-27.385,10.14-34.285,0,0-52.788-4.485-72.346-1.838s-66.212,41.764-66.212,41.764C102.541,445.078,103.741,447.884,106.3,450.3Z" transform="translate(-103.063 -399.107)" fill="#2e3062"/>
                  </g>
                </g>
              </g>
              <path id="Path_10507" data-name="Path 10507" d="M115.582,442.543l-5.479,2.919s-6.395-5.32-8.4-12.946l4.672-3.2S110.594,438.768,115.582,442.543Z" transform="translate(-101.702 -389.78)" fill="#524e84"/>
            </g>
          </g>
          <g id="Group_19925" data-name="Group 19925" transform="translate(137.306 52.624)">
            <g id="Group_19922" data-name="Group 19922">
              <path id="Path_10508" data-name="Path 10508" d="M176.515,394.088c.793,13.8,1.317,13.883-2.631,25.741,23.324,8.278,31.3,9.883,50.117,9.24.679-11.343,1.415-24.673,1.086-36.565-.987-35.354-3.726-57.441-3.726-57.441l-9.707-3.751-9.947-3.844-16.874.857-3.552.182-3.313.17a263.8,263.8,0,0,1-8.838,32.142c-4.345,12.02.64,14.434,3.362,17.3.107.111.207.221.308.336a5.4,5.4,0,0,1,.925,1.415c.068.157.132.325.2.5.165.45.329.958.479,1.5A94.228,94.228,0,0,1,176.515,394.088Z" transform="translate(-167.42 -327.469)" fill="#006bf8"/>
            </g>
            <g id="Group_19924" data-name="Group 19924" transform="translate(5.071 50.648)">
              <g id="Group_19923" data-name="Group 19923">
                <path id="Path_10509" data-name="Path 10509" d="M171.295,366.168c.107.111.207.221.308.336a5.4,5.4,0,0,1,.925,1.415c.068.157.132.325.2.5a64.161,64.161,0,0,0,25.21,4.952c.543,0,1.093,0,1.65-.018a.715.715,0,0,0-.014-1.429h-.018A62.117,62.117,0,0,1,171.295,366.168Z" transform="translate(-171.295 -366.168)" fill="#542bda"/>
              </g>
            </g>
            <path id="Path_10510" data-name="Path 10510" d="M181.972,328.266c-1.217,5.348-3.837,16.162,4.183,16.371,9.642.251,19.289-9.247,21.438-13.323l-9.947-3.845Z" transform="translate(-163.359 -327.469)" fill="#fba691"/>
          </g>
          <g id="Group_19927" data-name="Group 19927" transform="translate(134.154 60.219)">
            <g id="Group_19926" data-name="Group 19926">
              <path id="Path_10511" data-name="Path 10511" d="M165.012,412.253c13.7-8.646,32.026-25.82,32.026-25.82s8.083-9.642,25.067-53.161c0,0,9.116,10.513,2.793,34.037-6.16,22.919-16.065,31.148-16.065,31.148s-25.318,18.136-38.72,22.629C168,417.553,166.953,415.88,165.012,412.253Z" transform="translate(-165.012 -333.272)" fill="#06b2ff"/>
            </g>
          </g>
          <g id="Group_19930" data-name="Group 19930" transform="translate(47.742 100.037)">
            <path id="Path_10512" data-name="Path 10512" d="M115.458,398.08l86.282,8.633a2.355,2.355,0,0,0,2.578-2.108l.22-2.192a2.355,2.355,0,0,0-2.108-2.578L116.147,391.2a2.355,2.355,0,0,0-2.578,2.108l-.22,2.192A2.357,2.357,0,0,0,115.458,398.08Z" transform="translate(-94.556 -355.207)" fill="#f88800"/>
            <g id="Group_19929" data-name="Group 19929">
              <g id="Group_19928" data-name="Group 19928">
                <path id="Path_10513" data-name="Path 10513" d="M117.545,406.335l74.425,7.2-18.56-42.638-74.423-7.2Z" transform="translate(-98.987 -363.696)" fill="#ffaa01"/>
                <path id="Path_10514" data-name="Path 10514" d="M116.7,405.082l.005.014,74.422,7.2-18.557-42.64-4.629-.449L186.5,411.831Z" transform="translate(-93.516 -361.995)" fill="#f88800"/>
              </g>
              <path id="Path_10515" data-name="Path 10515" d="M130.177,383.313a4.763,4.763,0,1,0,5.214-4.265A4.764,4.764,0,0,0,130.177,383.313Z" transform="translate(-89.364 -358.963)" fill="#fdcc50"/>
            </g>
          </g>
          <g id="Group_19949" data-name="Group 19949" transform="translate(144.289 7.92)">
            <g id="Group_19937" data-name="Group 19937">
              <g id="Group_19934" data-name="Group 19934" transform="translate(0 18.678)">
                <path id="Path_10516" data-name="Path 10516" d="M178.245,309.111s-3.191-3.335-5.023-.15,2,11.708,6.98,9.062Z" transform="translate(-172.756 -307.584)" fill="#fb876b"/>
                <path id="Path_10517" data-name="Path 10517" d="M177.075,315.465a.951.951,0,1,1-1.038-.857A.951.951,0,0,1,177.075,315.465Z" transform="translate(-172.009 -305.416)" fill="#fff"/>
                <g id="Group_19931" data-name="Group 19931" transform="translate(1.117 3.268)">
                  <path id="Path_10518" data-name="Path 10518" d="M178.546,314.638a.437.437,0,0,1-.45-.264,6.656,6.656,0,0,0-4.165-3.47.413.413,0,0,1-.3-.513.447.447,0,0,1,.541-.3,7.418,7.418,0,0,1,4.751,3.973.416.416,0,0,1-.254.542A.479.479,0,0,1,178.546,314.638Z" transform="translate(-173.61 -310.081)" fill="#fd664d"/>
                </g>
                <g id="Group_19933" data-name="Group 19933" transform="translate(2.449 4.664)">
                  <g id="Group_19932" data-name="Group 19932">
                    <path id="Path_10519" data-name="Path 10519" d="M175.107,313.225a.469.469,0,0,1-.243-.043.406.406,0,0,1-.186-.563A3.959,3.959,0,0,1,176.2,311.2a.449.449,0,0,1,.6.154.409.409,0,0,1-.169.571A3.151,3.151,0,0,0,175.457,313,.446.446,0,0,1,175.107,313.225Z" transform="translate(-174.628 -311.147)" fill="#fd664d"/>
                  </g>
                </g>
              </g>
              <path id="Path_10520" data-name="Path 10520" d="M198.4,321.23l1.031,10.807s-4.653,4.354-8.538,5.066-5.676-3.776-5.676-3.776l-.961-10.058Z" transform="translate(-169.206 -284.692)" fill="#fba691"/>
              <path id="Path_10521" data-name="Path 10521" d="M198.476,322.039l.411,4.311c-2.351,3.169-6.92,4.649-13.927,4.288l-.628-6.56Z" transform="translate(-169.182 -284.442)" fill="#fb876b"/>
              <path id="Path_10522" data-name="Path 10522" d="M176.277,317.421c.225,1.031.474,2.08.762,3.119,1.912,6.909,7.082,14.075,12.816,14.813,12.381,1.594,16.506-8.406,17.773-15.614.14-.8-.348-1.656-.266-2.6.192-2.226.839-4.8.806-7.268-.024-1.712-.085-3.4-.158-4.918a9.971,9.971,0,0,0-7.071-9.14c-5.783-1.684-14.411-2.631-21.976,2.833a10.06,10.06,0,0,0-4.076,8.934A75.445,75.445,0,0,0,176.277,317.421Z" transform="translate(-172.108 -292.944)" fill="#fba691"/>
              <g id="Group_19935" data-name="Group 19935" transform="translate(16.612 20.702)">
                <path id="Path_10523" data-name="Path 10523" d="M188.315,316.93a.473.473,0,0,0-.012-.942l-1.643-.118,1.661-6.145a.473.473,0,0,0-.912-.247l-1.961,7.253,2.788.2A.392.392,0,0,0,188.315,316.93Z" transform="translate(-185.449 -309.13)" fill="#fb876b"/>
              </g>
              <path id="Path_10524" data-name="Path 10524" d="M179.965,305.506c-4.531,2.614-2.489,8.1-3.82,11.074-.086.194-.191.237-.313.153a74.218,74.218,0,0,1-1.432-10.026,10.194,10.194,0,0,1,4.324-9.122c7.99-5.6,17.079-4.661,23.168-2.962a10.151,10.151,0,0,1,7.422,9.3c.072,1.551.132,3.269.152,5.015-.742.543-2.642.94-2.6,2.212.106,3.364.162,5.666-.556,5.534-1.209-.226-2.327-4.205-1.23-6.951,0,0-1.251-1.66-5.827-2.94a85.608,85.608,0,0,1-11.628-4.352,10.23,10.23,0,0,1-3.233-2.423A10.1,10.1,0,0,1,179.965,305.506Z" transform="translate(-172.258 -293.312)" fill="#012156"/>
              <path id="Path_10525" data-name="Path 10525" d="M182.8,310.1c.1,1.037-.355,1.929-1.014,1.992s-1.275-.726-1.373-1.764.355-1.929,1.014-1.992S182.7,309.066,182.8,310.1Z" transform="translate(-170.396 -288.673)" fill="#012156"/>
              <path id="Path_10526" data-name="Path 10526" d="M193.541,309.105c.1,1.036-.355,1.929-1.014,1.992s-1.273-.726-1.373-1.764.355-1.929,1.014-1.992S193.442,308.068,193.541,309.105Z" transform="translate(-167.08 -288.981)" fill="#012156"/>
              <path id="Path_10527" data-name="Path 10527" d="M179.605,305.945a23.1,23.1,0,0,1,4.928-.9c.546-.033,1.021.335.987.776v.012a.77.77,0,0,1-.813.628,26.248,26.248,0,0,0-6.769,1.077.893.893,0,0,1,.289-.777A2.9,2.9,0,0,1,179.605,305.945Z" transform="translate(-171.163 -289.689)" fill="#012156"/>
              <path id="Path_10528" data-name="Path 10528" d="M195.271,304.541a23.037,23.037,0,0,0-5.009-.017c-.543.064-.946.509-.835.937l0,.01a.767.767,0,0,0,.911.475,26.2,26.2,0,0,1,6.853-.128.893.893,0,0,0-.421-.715A2.885,2.885,0,0,0,195.271,304.541Z" transform="translate(-167.614 -289.89)" fill="#012156"/>
              <path id="Path_10529" data-name="Path 10529" d="M183.856,317.855c.507,1.618,1.955,4.543,5.863,4.17s4.75-3.254,4.945-5.2Z" transform="translate(-169.329 -286.052)" fill="#fff"/>
              <g id="Group_19936" data-name="Group 19936" transform="translate(18.121 37.135)">
                <path id="Path_10530" data-name="Path 10530" d="M189.086,323.367a4.635,4.635,0,0,1-2.225-.427.463.463,0,0,1,.41-.831h0a3.733,3.733,0,0,0,1.728.335,3.934,3.934,0,0,0,1.725-.667.464.464,0,0,1,.552.745A4.84,4.84,0,0,1,189.086,323.367Z" transform="translate(-186.602 -321.686)" fill="#fb876b"/>
              </g>
            </g>
            <g id="Group_19942" data-name="Group 19942" transform="translate(34.678 14.875)">
              <path id="Path_10531" data-name="Path 10531" d="M199.253,307.192s2.926-4.333,5.157-1.623.285,11.528-4.7,9.9Z" transform="translate(-199.253 -304.678)" fill="#fba691"/>
              <path id="Path_10532" data-name="Path 10532" d="M202.364,313.05a.952.952,0,1,1-1.039-.857A.951.951,0,0,1,202.364,313.05Z" transform="translate(-198.879 -302.358)" fill="#fff"/>
              <g id="Group_19938" data-name="Group 19938" transform="translate(0.806 2.885)">
                <path id="Path_10533" data-name="Path 10533" d="M200.314,312.041a.408.408,0,0,0,.361-.332,6.281,6.281,0,0,1,3.149-4.057.406.406,0,0,0-.359-.728,6.989,6.989,0,0,0-3.59,4.641.406.406,0,0,0,.327.471A.4.4,0,0,0,200.314,312.041Z" transform="translate(-199.869 -306.882)" fill="#fb876b"/>
              </g>
              <g id="Group_19941" data-name="Group 19941" transform="translate(1.998 4.694)">
                <g id="Group_19940" data-name="Group 19940">
                  <g id="Group_19939" data-name="Group 19939">
                    <path id="Path_10534" data-name="Path 10534" d="M202.669,310.02a.4.4,0,0,0,.212-.085.406.406,0,0,0,.068-.571,3.715,3.715,0,0,0-1.633-1.078.406.406,0,0,0-.259.77,2.936,2.936,0,0,1,1.255.811A.4.4,0,0,0,202.669,310.02Z" transform="translate(-200.78 -308.264)" fill="#fb876b"/>
                  </g>
                </g>
              </g>
            </g>
            <g id="Group_19948" data-name="Group 19948" transform="translate(2.997 15.293)">
              <g id="Group_19943" data-name="Group 19943" transform="translate(16.992 1.045)">
                <path id="Path_10535" data-name="Path 10535" d="M188.041,308.791l.088.739a5.574,5.574,0,0,0,6.176,4.893l.181-.021a5.031,5.031,0,0,0,3.258-1.925,5.478,5.478,0,0,0,1.137-4.077l-.1-.874a1.994,1.994,0,0,0-.733-1.309,1.944,1.944,0,0,0-1.442-.408l-6.844.806a1.955,1.955,0,0,0-1.624,1.315,1.9,1.9,0,0,0-.1.808A.231.231,0,0,0,188.041,308.791Zm.808-.1a1.146,1.146,0,0,1,1-1.272l6.844-.808a1.144,1.144,0,0,1,1.272,1l.1.874a4.659,4.659,0,0,1-.963,3.47,4.237,4.237,0,0,1-2.735,1.632l-.165.02a4.761,4.761,0,0,1-5.274-4.18Z" transform="translate(-188.029 -305.795)" fill="#012156"/>
              </g>
              <g id="Group_19944" data-name="Group 19944" transform="translate(2.478 2.756)">
                <path id="Path_10536" data-name="Path 10536" d="M176.953,310.1l.088.741a5.563,5.563,0,0,0,2.1,3.747,5.506,5.506,0,0,0,4.073,1.146l.183-.021a5.026,5.026,0,0,0,3.255-1.925,5.481,5.481,0,0,0,1.14-4.078l-.1-.874a.208.208,0,0,0-.007-.038,1.892,1.892,0,0,0-.253-.726,1.954,1.954,0,0,0-1.916-.953l-6.846.808a1.959,1.959,0,0,0-1.413.879,1.925,1.925,0,0,0-.289.766A1.74,1.74,0,0,0,176.953,310.1Zm.808-.1a1.146,1.146,0,0,1,1-1.272l6.847-.808a1.146,1.146,0,0,1,1.272,1l.1.874a4.669,4.669,0,0,1-.963,3.47,4.242,4.242,0,0,1-2.735,1.632l-.168.02a4.765,4.765,0,0,1-5.274-4.18Z" transform="translate(-176.94 -307.102)" fill="#012156"/>
              </g>
              <g id="Group_19945" data-name="Group 19945" transform="translate(26.715)">
                <path id="Path_10537" data-name="Path 10537" d="M195.75,306.463a9.8,9.8,0,0,1,4.9-1.466l-.211.831a9.22,9.22,0,0,0-4.17,1.27c-.2.122-.3.2-.309.206l-.5-.636C195.48,306.65,195.577,306.573,195.75,306.463Z" transform="translate(-195.458 -304.997)" fill="#012156"/>
              </g>
              <g id="Group_19946" data-name="Group 19946" transform="translate(12.816 3.078)">
                <path id="Path_10538" data-name="Path 10538" d="M189.3,308.308l.175-.794a8.336,8.336,0,0,0-2.474-.12,5.456,5.456,0,0,0-2.165.686l.438.685a4.779,4.779,0,0,1,1.822-.563A7.606,7.606,0,0,1,189.3,308.308Z" transform="translate(-184.838 -307.349)" fill="#012156"/>
              </g>
              <g id="Group_19947" data-name="Group 19947" transform="translate(0 4.006)">
                <path id="Path_10539" data-name="Path 10539" d="M175.25,308.058a11.346,11.346,0,0,1,2.925.556l-.27.766a10.843,10.843,0,0,0-2.86-.514Z" transform="translate(-175.046 -308.058)" fill="#012156"/>
              </g>
            </g>
          </g>
        </g>
      </g>
      <g id="Group_19994" data-name="Group 19994" transform="translate(387.083 156.669)">
        <path id="Path_10540" data-name="Path 10540" d="M327.77,234.064c.776,1.1,2.04,3.01,3.7,5.048a5.161,5.161,0,0,0,2.585,1.608c.589,1.5,1.3,3.26,2.1,5.205q4.979-2.03,9.791-4.4c-.664-1.093-1.276-2.123-1.815-3.063a42.519,42.519,0,0,0,2.229-8.028c.383-3.263-.19-4.552-2-5.63s-3.836-1.794-4.145-2.132-5.229-11.254-7.587-12.207c-2.3-.932,1.923,10.454,2.11,10.961-.156-.243-1.946-3.175-3.515-2.7a2.4,2.4,0,0,0-1.623,2.285s-2.684-.419-3.583.631.283,2.936.283,2.936a2.1,2.1,0,0,0-.931-.164c-1.581.563-1.3,2.827-.593,4.348A35.922,35.922,0,0,0,327.77,234.064Z" transform="translate(-324.208 -154.16)" fill="#fba691"/>
        <g id="Group_19952" data-name="Group 19952" transform="translate(121.723 77.589)">
          <path id="Path_10541" data-name="Path 10541" d="M435.143,226.715s17.869,41.872,17.869,64.54-30.647,25.021-30.647,25.021l-5.15-12.295s22.21-3.976,19.56-30.488Z" transform="translate(-417.214 -226.715)" fill="#006bf8"/>
        </g>
        <ellipse id="Ellipse_258" data-name="Ellipse 258" cx="63.898" cy="12.46" rx="63.898" ry="12.46" transform="translate(34.241 346.518)" fill="#c6d4e8"/>
        <g id="Group_19989" data-name="Group 19989" transform="translate(64.951)">
          <g id="Group_19964" data-name="Group 19964" transform="translate(15.508)">
            <g id="Group_19954" data-name="Group 19954" transform="translate(0.066 30.754)">
              <g id="Group_19953" data-name="Group 19953">
                <path id="Path_10542" data-name="Path 10542" d="M393.384,191.583a4.969,4.969,0,0,0-1.551-.563h0a4.77,4.77,0,0,0-.953-.092,5.144,5.144,0,0,0-4.725,3.118l0,0a5.31,5.31,0,0,0-.3.966,5.09,5.09,0,0,0-.107,1.054,5.14,5.14,0,1,0,7.648-4.486Zm-2.506,8.824a4.334,4.334,0,0,1-2.981-7.486,4.285,4.285,0,0,1,2-1.076,4.252,4.252,0,0,1,2.352.111,4.337,4.337,0,0,1-1.373,8.451Z" transform="translate(-385.736 -190.929)" fill="#6b5eff"/>
              </g>
            </g>
            <g id="Group_19955" data-name="Group 19955" transform="translate(16.276 51.504)">
              <path id="Path_10543" data-name="Path 10543" d="M413.067,206.784V217s-3.047,5.206-7.169,5.558-7.777-4.48-7.777-4.48V207.5Z" transform="translate(-398.121 -206.784)" fill="#fba691"/>
              <path id="Path_10544" data-name="Path 10544" d="M402.234,208.671a7,7,0,0,1-4.112,4.947v-4.692Z" transform="translate(-398.121 -206.201)" fill="#fb876b"/>
            </g>
            <path id="Path_10545" data-name="Path 10545" d="M402.106,220.49c15.389,4.353,20.438-7.536,22.591-15.065.237-.836.453-1.766.641-2.758.007-.038.014-.08.025-.126.209-1.115.39-2.3.543-3.525.115-.906.212-1.824.3-2.751.22-2.25.363-4.506.457-6.509a10.625,10.625,0,0,0-6.808-10.43c-6.177-2.375-15.556-4.256-24.443.784A10.67,10.67,0,0,0,390,189.191s-1.552,6.028-.815,8.733a27.539,27.539,0,0,1,1.145,7.121c.245,3.6,2.29,12.27,4.417,14.069S402.106,220.49,402.106,220.49Z" transform="translate(-384.667 -164.5)" fill="#fba691"/>
            <g id="Group_19961" data-name="Group 19961" transform="translate(11.126 33.424)">
              <g id="Group_19958" data-name="Group 19958">
                <g id="Group_19957" data-name="Group 19957">
                  <g id="Group_19956" data-name="Group 19956">
                    <path id="Path_10546" data-name="Path 10546" d="M394.777,199.587a.487.487,0,0,0,.38-.448,7.509,7.509,0,0,1,3.138-5.278.486.486,0,0,0-.533-.813,8.362,8.362,0,0,0-3.576,6.037.488.488,0,0,0,.458.512A.5.5,0,0,0,394.777,199.587Z" transform="translate(-394.186 -192.969)" fill="#fb876b"/>
                  </g>
                </g>
              </g>
              <g id="Group_19960" data-name="Group 19960" transform="translate(1.036 2.469)">
                <g id="Group_19959" data-name="Group 19959">
                  <path id="Path_10547" data-name="Path 10547" d="M397.424,196.724a.491.491,0,0,0,.24-.132.486.486,0,0,0,0-.687,4.426,4.426,0,0,0-2.1-1.038.486.486,0,0,0-.195.951,3.531,3.531,0,0,1,1.61.777A.484.484,0,0,0,397.424,196.724Z" transform="translate(-394.978 -194.856)" fill="#fb876b"/>
                </g>
              </g>
            </g>
            <path id="Path_10548" data-name="Path 10548" d="M428.221,199.933c-.623,8.156-4.2,16.953-4.2,16.953-3.905,8.614-11.176,7.036-15.1,5.858-2.871-.861-6.765-4.048-8.357-5.513a9.6,9.6,0,0,1-2.387-4.162,1.651,1.651,0,0,1,1.467-2.115c1.831-.177,3.738-1.73,4.195-6.041.775-7.316-4.106-7.323-4.106-7.323-2.958-.262-4.53,3.446-4.53,3.446a9.36,9.36,0,0,1-1.446-6.269c.33-3.42-3.116-.983-3.116-.983s-4.844-4.21-4.952-8.355,2.306-4.31,4.48-5.373-2.844-4.989-.444-7.061,5.125-2.29,7.088-1.2,2.619-4.254,5.617-4.362,4.907,3.163,7.007,1.855,7.444-3.272,9.843.763,3.053,5.071,5.017,5.29,7.417,3.981,6.325,10.2S428.585,195.169,428.221,199.933Z" transform="translate(-385.685 -167.431)" fill="#012156"/>
            <g id="Group_19963" data-name="Group 19963" transform="translate(0.178 29.968)">
              <g id="Group_19962" data-name="Group 19962">
                <path id="Path_10549" data-name="Path 10549" d="M398.46,190.639a3.971,3.971,0,0,0-1.348.726,9.1,9.1,0,0,0-3.052.223c-.236.056-.469.115-.7.181-.383.111-.763.236-1.132.373a20.741,20.741,0,0,0-2.2.966,28.969,28.969,0,0,0-3.357,2c-.412.288-.65.471-.664.482l-.183-.39a5.349,5.349,0,0,1,.3-.966l0,0c.4-.281,1-.683,1.743-1.126.589-.351,1.266-.722,2-1.076.026-.013.052-.026.082-.039.582-.281,1.2-.547,1.849-.785h0a15.88,15.88,0,0,1,2.022-.6A9.185,9.185,0,0,1,398.46,190.639Z" transform="translate(-385.821 -190.329)" fill="#6b5eff"/>
              </g>
            </g>
          </g>
          <g id="Group_19972" data-name="Group 19972" transform="translate(34.795 197.334)">
            <g id="Group_19968" data-name="Group 19968" transform="translate(0 145.329)">
              <path id="Path_10550" data-name="Path 10550" d="M424.934,449.672a11.026,11.026,0,0,1-3.713-.041l-1.745-.565-2.862-.864s-10.287-4.039-13.928-7.579-2.992-7.439,2.687-9.339,10.753-.1,13.788-1.315c0,0,9.089.764,8.584,5.621.116,4.519.387,6.913-.217,11.479A3.025,3.025,0,0,1,424.934,449.672Z" transform="translate(-400.422 -429.029)" fill="#ffaa01"/>
              <g id="Group_19965" data-name="Group 19965" transform="translate(11.607 0.641)">
                <path id="Path_10551" data-name="Path 10551" d="M417.166,432.209a.607.607,0,0,0,.188-1.11,9.321,9.321,0,0,0-4.35-1.356,4.175,4.175,0,0,0-3.659,2.246.606.606,0,0,0,1.1.5,2.977,2.977,0,0,1,2.6-1.538,8.221,8.221,0,0,1,3.674,1.179A.6.6,0,0,0,417.166,432.209Z" transform="translate(-409.29 -429.741)" fill="#fff"/>
              </g>
              <g id="Group_19966" data-name="Group 19966" transform="translate(9.566 0.415)">
                <path id="Path_10552" data-name="Path 10552" d="M415.607,432.036a.607.607,0,0,0,.188-1.11,9.322,9.322,0,0,0-4.35-1.356,4.175,4.175,0,0,0-3.659,2.246.606.606,0,1,0,1.1.5,2.98,2.98,0,0,1,2.6-1.538,8.2,8.2,0,0,1,3.674,1.179A.59.59,0,0,0,415.607,432.036Z" transform="translate(-407.731 -429.568)" fill="#fff"/>
              </g>
              <g id="Group_19967" data-name="Group 19967" transform="translate(7.572)">
                <path id="Path_10553" data-name="Path 10553" d="M414.084,431.719a.607.607,0,0,0,.188-1.11,9.322,9.322,0,0,0-4.352-1.356,4.175,4.175,0,0,0-3.659,2.246.606.606,0,1,0,1.1.5,2.977,2.977,0,0,1,2.6-1.538,8.2,8.2,0,0,1,3.674,1.179A.61.61,0,0,0,414.084,431.719Z" transform="translate(-406.207 -429.251)" fill="#fff"/>
              </g>
            </g>
            <path id="Path_10554" data-name="Path 10554" d="M412.484,425.363v9.557c2.994.7,6.219,1.038,8.741-.14l.571-10.127Z" transform="translate(-396.697 -285.342)" fill="#fba691"/>
            <g id="Group_19971" data-name="Group 19971" transform="translate(6.032)">
              <g id="Group_19970" data-name="Group 19970">
                <g id="Group_19969" data-name="Group 19969">
                  <path id="Path_10555" data-name="Path 10555" d="M406.5,450.446a8.89,8.89,0,0,0,4.955,8.254c.082.039.166.08.251.119a8.9,8.9,0,0,0,3.688.8h6.664a8.911,8.911,0,0,0,4.394-1.157,9.372,9.372,0,0,0,2.029-1.581,8.9,8.9,0,0,0,2.472-6.435c-.448-14.687-1.073-42.748.315-51.308,1.352-8.341,3.658-45.465,4.888-66.36.457-7.6.762-13.06.822-14.194l-28.364-.374c-.136,2.269-.461,7.821-.835,15.161h-.01c-.931,18.369-2.26,45.394-2.693,64.64C404.683,415.528,406.877,438.026,406.5,450.446Z" transform="translate(-405.03 -318.209)" fill="#2e3062"/>
                </g>
              </g>
            </g>
            <path id="Path_10556" data-name="Path 10556" d="M407.965,318.211l28.364.374c-.06,1.135-.363,6.59-.821,14.194-9.631,1.183-19.662,1.678-28.376.592C407.507,326.031,407.833,320.479,407.965,318.211Z" transform="translate(-398.349 -318.208)" fill="#001030"/>
          </g>
          <g id="Group_19980" data-name="Group 19980" transform="translate(0 197.334)">
            <g id="Group_19976" data-name="Group 19976" transform="translate(0 145.329)">
              <path id="Path_10557" data-name="Path 10557" d="M398.348,449.672a11.026,11.026,0,0,1-3.713-.041l-1.745-.565-2.862-.864s-10.287-4.039-13.928-7.579-2.992-7.439,2.687-9.339,10.753-.1,13.788-1.315c0,0,9.089.764,8.584,5.621.116,4.519.387,6.913-.217,11.479A3.025,3.025,0,0,1,398.348,449.672Z" transform="translate(-373.836 -429.029)" fill="#ffaa01"/>
              <g id="Group_19973" data-name="Group 19973" transform="translate(11.607 0.641)">
                <path id="Path_10558" data-name="Path 10558" d="M390.58,432.209a.607.607,0,0,0,.188-1.11,9.321,9.321,0,0,0-4.35-1.356,4.175,4.175,0,0,0-3.659,2.246.606.606,0,1,0,1.1.5,2.983,2.983,0,0,1,2.6-1.538,8.228,8.228,0,0,1,3.674,1.179A.6.6,0,0,0,390.58,432.209Z" transform="translate(-382.704 -429.741)" fill="#fff"/>
              </g>
              <g id="Group_19974" data-name="Group 19974" transform="translate(9.566 0.415)">
                <path id="Path_10559" data-name="Path 10559" d="M389.021,432.036a.607.607,0,0,0,.188-1.11,9.322,9.322,0,0,0-4.35-1.356,4.175,4.175,0,0,0-3.659,2.246.606.606,0,1,0,1.1.5,2.98,2.98,0,0,1,2.6-1.538,8.212,8.212,0,0,1,3.674,1.179A.59.59,0,0,0,389.021,432.036Z" transform="translate(-381.145 -429.568)" fill="#fff"/>
              </g>
              <g id="Group_19975" data-name="Group 19975" transform="translate(7.573)">
                <path id="Path_10560" data-name="Path 10560" d="M387.5,431.719a.606.606,0,0,0,.188-1.11,9.321,9.321,0,0,0-4.35-1.356,4.175,4.175,0,0,0-3.659,2.246.606.606,0,1,0,1.1.5,2.98,2.98,0,0,1,2.6-1.538,8.2,8.2,0,0,1,3.674,1.179A.6.6,0,0,0,387.5,431.719Z" transform="translate(-379.622 -429.251)" fill="#fff"/>
              </g>
            </g>
            <path id="Path_10561" data-name="Path 10561" d="M386.551,425.363l.556,9.548c3.531.976,6.183,1.427,8.185-.131l.571-10.127Z" transform="translate(-369.91 -285.342)" fill="#fba691"/>
            <g id="Group_19979" data-name="Group 19979" transform="translate(6.885)">
              <g id="Group_19978" data-name="Group 19978">
                <g id="Group_19977" data-name="Group 19977">
                  <path id="Path_10562" data-name="Path 10562" d="M380.569,450.446a8.887,8.887,0,0,0,4.954,8.254c.082.039.166.08.251.119a8.9,8.9,0,0,0,3.688.8h6.664a8.92,8.92,0,0,0,4.395-1.157,9.373,9.373,0,0,0,2.029-1.581,8.9,8.9,0,0,0,2.472-6.435c-.448-14.687-1.073-42.748.315-51.308,1.313-8.092,3.522-43.285,4.776-64.455q.059-.974.113-1.906c.457-7.6.762-13.06.822-14.194l-28.364-.374c-.01.143-.017.288-.026.437-.132,2.213-.387,6.647-.692,12.44q-.055,1.109-.116,2.282h-.01c-.931,18.369-2.26,45.393-2.695,64.64C378.75,415.528,380.944,438.026,380.569,450.446Z" transform="translate(-379.097 -318.209)" fill="#2e3062"/>
                </g>
              </g>
            </g>
            <path id="Path_10563" data-name="Path 10563" d="M381.184,331.071l.136.017c8.421,1.057,18.14,2.784,28.148,3.6q.059-.974.113-1.906c.457-7.6.762-13.06.822-14.194l-28.364-.374c-.01.143-.017.288-.026.437C381.861,320.9,381.535,324.191,381.184,331.071Z" transform="translate(-371.567 -318.209)" fill="#001030"/>
          </g>
          <g id="Group_19988" data-name="Group 19988" transform="translate(6.887 59.401)">
            <g id="Group_19984" data-name="Group 19984">
              <g id="Group_19983" data-name="Group 19983">
                <g id="Group_19982" data-name="Group 19982">
                  <g id="Group_19981" data-name="Group 19981">
                    <path id="Path_10564" data-name="Path 10564" d="M450.575,300.045c-.013-1.1-.022-2.205-.035-3.311,0-.264,0-.525-.009-.787-.009-1.082-.026-2.157-.038-3.239,0-.653-.013-1.292-.022-1.93,0-.313-.009-.622-.016-.934,0-.36-.009-.725-.016-1.085-.009-.67-.02-1.343-.029-2.006,0-.334-.009-.67-.016-1s-.009-.677-.016-1.017c-.009-.649-.022-1.288-.031-1.926-.009-.673-.016-1.347-.029-2.009-.009-.385-.02-.766-.029-1.15,0-.288-.009-.58-.013-.869-.022-.673-.029-1.343-.038-2.006-.009-.408-.02-.818-.029-1.222-.007-.237-.013-.474-.016-.708-.009-.615-.031-1.237-.038-1.841-.009-.309-.022-.609-.022-.907v-.051c-.009-.389-.02-.772-.031-1.161v-.065c-.51-20.676-1.406-37.551-2.922-39.812-1.772-2.624-7.125-6.031-12.655-9.249-4.21-2.463-12.674-7.132-15.582-8.936-3.705,2.4-9.147,2.294-14.945,1.674-6.472,4.081-17.388,11.33-20.489,15.907-1.526,2.26-2.555,19.441-3.233,40.415-.047,1.326-.093,2.673-.124,4.026-.007.233-.013.47-.02.708-.013.406-.022.814-.029,1.222-.033.664-.042,1.332-.06,2.006-.009.289-.02.581-.029.869-.009.385-.022.766-.035,1.15-.02.662-.038,1.336-.051,2.009-.009.639-.033,1.277-.042,1.926-.009.34-.016.677-.026,1.017s-.016.67-.026,1c-.009.664-.031,1.336-.038,2.006-.013.361-.02.725-.025,1.085-.007.313-.013.622-.016.934-.013.639-.031,1.288-.042,1.93-.026,1.078-.042,2.163-.067,3.239q-.006.4-.016.787-.033,1.659-.06,3.311c-.437,24.18-.521,46.993-.453,54.007a134.029,134.029,0,0,0,71.508,0C450.713,346.976,450.81,324.159,450.575,300.045Z" transform="translate(-379.098 -212.818)" fill="#006bf8"/>
                  </g>
                </g>
              </g>
            </g>
            <g id="Group_19985" data-name="Group 19985" transform="translate(0.916 62.731)">
              <path id="Path_10565" data-name="Path 10565" d="M379.8,264.847h70.275c0-.288-.009-.58-.013-.869-.022-.673-.029-1.343-.038-2.006-.009-.408-.02-.818-.029-1.222H379.917c-.013.406-.022.814-.029,1.222-.033.664-.042,1.332-.06,2.006C379.818,264.267,379.808,264.559,379.8,264.847Z" transform="translate(-379.798 -260.749)" fill="#06b2ff"/>
            </g>
            <g id="Group_19986" data-name="Group 19986" transform="translate(0.674 72.933)">
              <path id="Path_10566" data-name="Path 10566" d="M379.613,272.638H450.3c0-.36-.009-.725-.016-1.085-.009-.67-.02-1.343-.029-2.006,0-.334-.009-.67-.016-1H379.7c-.007.334-.016.67-.026,1-.009.664-.031,1.336-.038,2.006C379.625,271.913,379.62,272.277,379.613,272.638Z" transform="translate(-379.613 -268.544)" fill="#06b2ff"/>
            </g>
            <g id="Group_19987" data-name="Group 19987" transform="translate(0.472 83.129)">
              <path id="Path_10567" data-name="Path 10567" d="M379.459,280.433h71c-.013-1.1-.022-2.205-.035-3.311,0-.264,0-.525-.009-.787H379.535c0,.264-.009.526-.016.787Q379.486,278.78,379.459,280.433Z" transform="translate(-379.459 -276.335)" fill="#06b2ff"/>
            </g>
          </g>
        </g>
        <g id="Group_19993" data-name="Group 19993" transform="translate(10.14 76.983)">
          <g id="Group_19990" data-name="Group 19990">
            <path id="Path_10568" data-name="Path 10568" d="M331.956,237.353s9.491,30.32,27.419,44.127a10.969,10.969,0,0,0,10.273,1.767c5.81-2.167,20.107-11.189,25.233-18.085,0,0,8.859-25.982,3.183-38.91,0,0-15.241,21.91-31.939,35.4l-.158.13c-.242.2-.487.391-.736.584,0,0-.309-.242-.839-.666l-.156-.126a102.078,102.078,0,0,1-12.042-11.2c-4.64-5.458-10.028-16.837-10.028-16.837A15.606,15.606,0,0,1,331.956,237.353Z" transform="translate(-331.956 -226.252)" fill="#006bf8"/>
          </g>
          <g id="Group_19992" data-name="Group 19992" transform="translate(31.077 35.405)">
            <g id="Group_19991" data-name="Group 19991">
              <path id="Path_10569" data-name="Path 10569" d="M356.321,263.351a.864.864,0,0,0,.779-.16.851.851,0,0,0,.279-.431,41,41,0,0,0,1.415-9.457l-.158.13c-.242.2-.487.391-.736.584,0,0-.309-.242-.839-.666a38.777,38.777,0,0,1-1.326,8.944A.849.849,0,0,0,356.321,263.351Z" transform="translate(-355.701 -253.304)" fill="#542bda"/>
            </g>
          </g>
        </g>
      </g>
      <g id="Group_20007" data-name="Group 20007" transform="translate(345.192 426.463)">
        <ellipse id="Ellipse_259" data-name="Ellipse 259" cx="34.957" cy="6.816" rx="34.957" ry="6.816" transform="translate(0 85.401)" fill="#c6d4e8"/>
        <g id="Group_20006" data-name="Group 20006" transform="translate(1.952)">
          <path id="Path_10570" data-name="Path 10570" d="M340.175,456.389H313.258a8.449,8.449,0,0,1-8.036-5.838l-11.415-35.134a2.335,2.335,0,0,1,2.043-3.048,395.213,395.213,0,0,1,61.737,0,2.334,2.334,0,0,1,2.038,3.048L348.21,450.552A8.449,8.449,0,0,1,340.175,456.389Z" transform="translate(-293.692 -361.967)" fill="#ffaa01"/>
          <ellipse id="Ellipse_260" data-name="Ellipse 260" cx="30.335" cy="1.692" rx="30.335" ry="1.692" transform="translate(2.873 51.259)" fill="#2e3062"/>
          <g id="Group_20005" data-name="Group 20005" transform="translate(3.775)">
            <g id="Group_19996" data-name="Group 19996" transform="translate(27.827 7.692)">
              <g id="Group_19995" data-name="Group 19995">
                <path id="Path_10571" data-name="Path 10571" d="M320.683,424.71V380.873a1.423,1.423,0,1,0-2.845,0V424.71A2.658,2.658,0,0,0,320.683,424.71Z" transform="translate(-317.838 -379.45)" fill="#006bf8"/>
              </g>
            </g>
            <g id="Group_19998" data-name="Group 19998" transform="translate(29.25)">
              <g id="Group_19997" data-name="Group 19997">
                <path id="Path_10572" data-name="Path 10572" d="M318.925,393.012s2.7-19.439,27.588-19.439C346.511,373.573,342.245,401.073,318.925,393.012Z" transform="translate(-318.925 -373.573)" fill="#006bf8"/>
              </g>
            </g>
            <g id="Group_20000" data-name="Group 20000" transform="translate(2.936 5.971)">
              <g id="Group_19999" data-name="Group 19999">
                <path id="Path_10573" data-name="Path 10573" d="M326.405,397.574s-2.7-19.439-27.586-19.439C298.819,378.135,303.087,405.635,326.405,397.574Z" transform="translate(-298.819 -378.135)" fill="#006bf8"/>
              </g>
            </g>
            <g id="Group_20002" data-name="Group 20002" transform="translate(0 28.105)">
              <g id="Group_20001" data-name="Group 20001">
                <path id="Path_10574" data-name="Path 10574" d="M327.379,409.619s-6.374-18.561-30.8-13.787C296.576,395.832,306.038,422,327.379,409.619Z" transform="translate(-296.576 -395.047)" fill="#006bf8"/>
              </g>
            </g>
            <g id="Group_20004" data-name="Group 20004" transform="translate(29.23 25.998)">
              <g id="Group_20003" data-name="Group 20003">
                <path id="Path_10575" data-name="Path 10575" d="M318.91,409.96s18.29,7.116,30.415-14.623C349.325,395.337,323.23,385.668,318.91,409.96Z" transform="translate(-318.91 -393.438)" fill="#006bf8"/>
              </g>
            </g>
          </g>
        </g>
      </g>
      <g id="Group_20009" data-name="Group 20009" transform="translate(11.719 244.649)">
        <path id="Path_10576" data-name="Path 10576" d="M67.419,377.494l14.652,1.989a3.385,3.385,0,0,0,3.807-2.9l5.037-37.114L93,324.121l-21.358-2.9-1.234,9.092-5.886,43.373A3.381,3.381,0,0,0,67.419,377.494Z" transform="translate(-29.038 -207.925)" fill="#ffaa01"/>
        <path id="Path_10577" data-name="Path 10577" d="M69.012,330.313a46.665,46.665,0,0,0,20.508,9.156l2.085-15.348-21.358-2.9Z" transform="translate(-27.642 -207.925)" fill="#f88800"/>
        <path id="Path_10578" data-name="Path 10578" d="M65.787,430.923l2.213.3a5.575,5.575,0,0,0,6.273-4.773l8.192-60.361-13.259-1.8L61.014,424.65A5.572,5.572,0,0,0,65.787,430.923Z" transform="translate(-30.127 -194.626)" fill="#2e3062"/>
        <g id="Group_20008" data-name="Group 20008">
          <path id="Path_10579" data-name="Path 10579" d="M38,286.826a60.619,60.619,0,1,0,68.486-51.571A60.619,60.619,0,0,0,38,286.826Zm9.206,1.3a51.323,51.323,0,1,1,43.661,57.981A51.383,51.383,0,0,1,47.209,288.124Z" transform="translate(-37.402 -234.654)" fill="#2e3062"/>
          <path id="Path_10580" data-name="Path 10580" d="M46.214,306.2a51.127,51.127,0,1,0-1.345-7.048A51.381,51.381,0,0,0,46.214,306.2Z" transform="translate(-35.208 -232.461)" fill="#fff" opacity="0.4"/>
          <path id="Path_10581" data-name="Path 10581" d="M51.131,263.579l88.5,51.509a51.124,51.124,0,0,0,5.215-28.287L73.15,245.07A51.126,51.126,0,0,0,51.131,263.579Z" transform="translate(-33.163 -231.438)" fill="#fff" opacity="0.4"/>
          <path id="Path_10582" data-name="Path 10582" d="M44.868,289.82l70.869,41.25a50.915,50.915,0,0,0,15.006-9.7L45.89,271.981A50.943,50.943,0,0,0,44.868,289.82Z" transform="translate(-35.208 -223.129)" fill="#fff" opacity="0.4"/>
        </g>
      </g>
    </g>
  </g>
</svg>
