<svg xmlns="http://www.w3.org/2000/svg" width="431.902" height="385.341" viewBox="0 0 431.902 385.341">
  <g id="Programmer-pana" transform="translate(-22.68 -65.06)">
    <g id="freepik--Chair--inject-28" transform="translate(40.418 281.093)">
      <path id="Path_51899" data-name="Path 51899" d="M153.223,329.939c-3.629-6.228-7.518-12.484-13.236-17.635-14.5-13.069-39.392-16.948-60.545-12.261C63.116,303.662,47.7,312.86,43.42,325.855c-1.94,5.857-1.5,12.066-.928,18.062,4.01,39.485,23.771,111.1,24.569,112.81l133.23-.538C192.429,412.565,176.53,369.906,153.223,329.939Z" transform="translate(-41.806 -297.833)" fill="#7eceff"/>
      <path id="Path_51900" data-name="Path 51900" d="M200.248,456.119s-.084-.343-.213-1.021-.343-1.671-.6-2.979-.557-2.933-.928-4.845-.928-4.112-1.439-6.59a384.935,384.935,0,0,0-11.9-41.294,400.367,400.367,0,0,0-25.859-58.2l-2.228-3.982-2.246-3.954c-1.513-2.673-3.054-5.365-4.724-8.019-3.323-5.3-7.221-10.488-12.382-14.479a21.424,21.424,0,0,0-1.958-1.457c-.678-.455-1.327-.928-2.023-1.383-1.429-.808-2.785-1.726-4.307-2.413l-2.228-1.1-2.311-.928-1.16-.473-1.179-.408-2.385-.817a78.94,78.94,0,0,0-20.114-3.323,85.628,85.628,0,0,0-20.336,1.8,68.878,68.878,0,0,0-18.563,6.878,46.407,46.407,0,0,0-7.964,5.439,35.269,35.269,0,0,0-6.367,6.952c-.418.668-.863,1.3-1.244,1.977s-.705,1.374-1.049,2.061-.566,1.439-.845,2.153a22.711,22.711,0,0,0-.64,2.19,34.287,34.287,0,0,0-.826,8.994c.084,2.989.353,5.94.705,8.836s.64,5.773,1.1,8.576c.789,5.634,1.736,11.073,2.682,16.317,1.912,10.507,4.019,20.225,5.987,29.089,3.982,17.71,7.611,31.957,10.21,41.768,1.281,4.91,2.311,8.716,3.017,11.3.362,1.281.64,2.255.826,2.924s.3.993.3.993-.121-.325-.343-.975-.492-1.643-.872-2.914c-.733-2.571-1.8-6.367-3.109-11.277-2.617-9.811-6.3-24.04-10.321-41.768-1.986-8.864-4.112-18.563-6.042-29.089-.928-5.253-1.912-10.693-2.71-16.327-.455-2.785-.743-5.69-1.1-8.595s-.64-5.857-.724-8.873a35.271,35.271,0,0,1,.826-9.105,21.243,21.243,0,0,1,.659-2.237c.278-.733.566-1.457.854-2.19l1.04-2.163c.39-.687.835-1.337,1.253-2.014a36.2,36.2,0,0,1,6.451-7.045,46.8,46.8,0,0,1,8.038-5.5A69.335,69.335,0,0,1,79.622,299.7a85.616,85.616,0,0,1,20.42-1.856,79.221,79.221,0,0,1,20.253,3.351l2.395.817,1.2.418,1.16.483,2.33.928,2.246,1.1c1.522.7,2.905,1.624,4.344,2.441.705.436,1.364.928,2.051,1.392A21.871,21.871,0,0,1,138,310.257c5.207,4.038,9.143,9.282,12.475,14.6,1.671,2.673,3.221,5.374,4.734,8.047l2.265,3.991,2.163,3.982a397.129,397.129,0,0,1,25.794,58.3,373.075,373.075,0,0,1,11.751,41.359l1.4,6.609c.39,1.912.678,3.546.928,4.854s.418,2.311.548,2.989S200.248,456.119,200.248,456.119Z" transform="translate(-41.79 -297.81)" fill="#4d92bc"/>
      <path id="Path_51901" data-name="Path 51901" d="M49.269,318v.381c0,.251-.093.622-.158,1.086-.13.928-.278,2.367-.4,4.186a72.927,72.927,0,0,0,1.123,15.417c2.246,12.9,4.994,30.8,9.013,50.363,2.023,9.792,4.232,19.055,6.571,27.381s4.789,15.779,7.026,21.886,4.353,11.017,5.847,14.359l1.745,3.833.446,1.012a2.032,2.032,0,0,1,.13.343A187.313,187.313,0,0,1,72.13,438.82c-2.283-6.144-4.789-13.542-7.138-21.886s-4.641-17.635-6.618-27.4c-4.019-19.594-6.72-37.489-8.873-50.409a70.457,70.457,0,0,1-.928-15.482A36.774,36.774,0,0,1,49.269,318Z" transform="translate(-42.271 -299.26)" fill="#437797"/>
      <path id="Path_51902" data-name="Path 51902" d="M66.864,351.92c0,.084-.928.288-2.367.807a22.574,22.574,0,0,0-5.291,2.785A27.594,27.594,0,0,0,53.34,361.6,8.353,8.353,0,0,1,54.6,359.42a18.87,18.87,0,0,1,4.325-4.288,19.093,19.093,0,0,1,5.458-2.71,8.52,8.52,0,0,1,2.478-.5Z" transform="translate(-42.62 -301.697)" fill="#437797"/>
      <path id="Path_51903" data-name="Path 51903" d="M61.676,361.484c0,.149-1.764.093-3.833.575s-3.638,1.281-3.713,1.151a7.806,7.806,0,0,1,3.592-1.624,7.843,7.843,0,0,1,3.954-.1Z" transform="translate(-42.677 -302.369)" fill="#437797"/>
      <path id="Path_51904" data-name="Path 51904" d="M58.178,409.818c-.056,0,0-.26.167-.575a2.311,2.311,0,0,1,1.132-.863,2.274,2.274,0,0,1,1.42-.046c.353.111.52.278.492.334a4.4,4.4,0,0,0-1.754.167C58.726,409.178,58.3,409.874,58.178,409.818Z" transform="translate(-42.966 -305.742)" fill="#437797"/>
      <path id="Path_51905" data-name="Path 51905" d="M60.106,413.832c-.13,0-.056-.928.808-1.634s1.8-.557,1.773-.427-.77.232-1.467.808S60.245,413.888,60.106,413.832Z" transform="translate(-43.102 -305.988)" fill="#437797"/>
    </g>
    <g id="freepik--Character--inject-28" transform="translate(63.524 147.212)">
      <path id="Path_51906" data-name="Path 51906" d="M243.251,420.983s-2.97-72.843-5.718-85.466c-3.481-16.057-17-25.757-17-25.757l-5.179,125.3,5.383,3.221,3.174,1.671c1.42,5.328-1.522,6.627,13.05,10.377,1.169.3,24.439,3.973,24.439,3.973l2.283-23.659Z" transform="translate(-77.363 -164.787)" fill="#b78876"/>
      <path id="Path_51907" data-name="Path 51907" d="M284.857,462.636s-8.409.575-11.844,1.968a13.111,13.111,0,0,1-11.454-1.392,32.773,32.773,0,0,1-4.956-3.87l-11.472.056a13.774,13.774,0,0,1-2.534-14.155,15.39,15.39,0,0,1,2.534-4.483c1.337-1.5,1.94-2.395,5.643-3.119l15.2,2.311s21.07-1.949,24.857-.26c0,0,4.771,2.7,6.256,3.843.557.427,2.339,5.764-1.03,8.632,0,0,3.035,2.311,1.467,4.474l-.761.928s2.07,2.552,1.058,3.713-9.922,6.627-13.152,5.467-.984-3.88.418-4.455" transform="translate(-79.252 -173.973)" fill="#b78876"/>
      <path id="Path_51908" data-name="Path 51908" d="M296.807,448.29a8.858,8.858,0,0,0-1.1.418c-.705.288-1.736.7-3.026,1.132q-.928.334-2.116.668c-.761.223-1.606.408-2.469.705a5.3,5.3,0,0,0-2.441,1.55,3.054,3.054,0,0,0-.6,3.026,2.432,2.432,0,0,0,1.142,1.179,4.279,4.279,0,0,0,1.513.381,12.419,12.419,0,0,0,2.859-.214,24.968,24.968,0,0,0,4.641-1.309c1.281-.483,2.283-.928,2.979-1.244a7.016,7.016,0,0,0,1.067-.538,8.349,8.349,0,0,0-1.123.4c-.705.269-1.736.687-3.017,1.132a26.306,26.306,0,0,1-4.594,1.225,13,13,0,0,1-2.785.186,4.111,4.111,0,0,1-1.374-.353,2.051,2.051,0,0,1-.928-.993,2.7,2.7,0,0,1,.548-2.645,4.937,4.937,0,0,1,2.265-1.448c.835-.306,1.68-.5,2.441-.743s1.485-.473,2.126-.715c1.281-.473,2.3-.928,2.989-1.244A7.572,7.572,0,0,0,296.807,448.29Z" transform="translate(-82.357 -174.738)" fill="#aa6550"/>
      <path id="Path_51909" data-name="Path 51909" d="M295.777,441.31a6.651,6.651,0,0,0-1.1.427c-.705.288-1.726.7-3,1.151s-2.785.928-4.548,1.411a6.312,6.312,0,0,0-2.636,1.132,2.209,2.209,0,0,0-.752,1.392,2.9,2.9,0,0,0,.232,1.624,3.861,3.861,0,0,0,2.395,1.949,6.32,6.32,0,0,0,2.868.167,28.109,28.109,0,0,0,4.585-1.429L296.835,448a8.49,8.49,0,0,0,1.1-.455,6.671,6.671,0,0,0-1.142.325l-3.054,1.012a29.42,29.42,0,0,1-4.539,1.337,5.876,5.876,0,0,1-2.71-.176,3.5,3.5,0,0,1-2.163-1.764,2.116,2.116,0,0,1,.39-2.562,6.08,6.08,0,0,1,2.488-1.067,46.834,46.834,0,0,0,4.548-1.494c1.272-.492,2.274-.928,2.961-1.272a7.033,7.033,0,0,0,1.067-.576Z" transform="translate(-82.273 -174.236)" fill="#aa6550"/>
      <path id="Path_51910" data-name="Path 51910" d="M292.082,443.121a10.814,10.814,0,0,0,.371-1.81,12.382,12.382,0,0,0,.418-1.8,4.427,4.427,0,0,0-.789,3.611Z" transform="translate(-82.867 -174.107)" fill="#aa6550"/>
      <path id="Path_51911" data-name="Path 51911" d="M257.93,443.36l7.945-3.249s22.026-10.85,22.415-10.3,1.6.473,1.383,3.193-13.05,8.456-13.44,9.4.39,5.68-4.325,9.189-8.168,3.648-8.168,3.648" transform="translate(-80.421 -173.409)" fill="#b78876"/>
      <path id="Path_51912" data-name="Path 51912" d="M263.738,455.226h.186l.557-.065a12.011,12.011,0,0,0,2.07-.538,20.337,20.337,0,0,0,6.711-4.056,9.69,9.69,0,0,0,2.636-4.743,22.418,22.418,0,0,0,.408-3,1.736,1.736,0,0,1,.065-.343.668.668,0,0,1,.214-.223c.195-.149.418-.3.64-.436.446-.269.928-.538,1.392-.808,1.856-1.067,3.935-2.153,5.987-3.388a35.925,35.925,0,0,0,3.044-2.014,11.839,11.839,0,0,0,1.429-1.234,4.28,4.28,0,0,0,.594-.789,1.521,1.521,0,0,0,.167-.5,3.089,3.089,0,0,0,0-.492,3.462,3.462,0,0,0-.381-1.931,2.349,2.349,0,0,0-.724-.7,1.255,1.255,0,0,1-.306-.26l-.084-.074a.306.306,0,0,0-.158-.046h-.158l-.241.065c-1.2.39-2.283.928-3.388,1.383-2.172.928-4.26,1.949-6.237,2.887-3.954,1.856-7.5,3.62-10.47,5.086-.743.362-1.439.743-2.116,1.04l-1.94.817-3.109,1.3-1.958.845-.51.232-.167.084a.5.5,0,0,0,.186-.056l.52-.186,1.986-.78,3.137-1.253,1.958-.78c.687-.306,1.383-.668,2.135-1.021l10.5-5.012c1.986-.928,4.065-1.9,6.237-2.868,1.1-.473,2.209-.984,3.351-1.364l.2-.046h.074v-.093h0c-.251.167-.065.056-.111.093h0a1.438,1.438,0,0,0,.4.334,2.051,2.051,0,0,1,.613.585,3.221,3.221,0,0,1,.325,1.726,1.6,1.6,0,0,1-.167.826,3.553,3.553,0,0,1-.538.705,10.5,10.5,0,0,1-1.374,1.2,34.575,34.575,0,0,1-3.017,2c-2.033,1.234-4.056,2.32-5.959,3.4-.483.278-.928.548-1.411.835-.223.139-.446.288-.668.455a.863.863,0,0,0-.306.362,1.855,1.855,0,0,0-.084.418,22.279,22.279,0,0,1-.251,2.952,9.449,9.449,0,0,1-2.515,4.641,18.565,18.565,0,0,1-3.555,2.636,19.156,19.156,0,0,1-3.026,1.466,14.276,14.276,0,0,1-2.033.6c-.232.056-.418.084-.538.1Z" transform="translate(-80.418 -173.394)" fill="#aa6550"/>
      <path id="Path_51913" data-name="Path 51913" d="M290.275,457.78a2.784,2.784,0,0,0-.845.269,8.225,8.225,0,0,0-2.07,1.253,7.335,7.335,0,0,0-1.188,1.207,2.534,2.534,0,0,0-.613,1.856,2.088,2.088,0,0,0,1.522,1.569,4,4,0,0,0,2.33-.121,42.835,42.835,0,0,0,7.314-3.119,21.8,21.8,0,0,0,2.042-1.272,3.363,3.363,0,0,0,.7-.538,3.8,3.8,0,0,0-.77.418c-.492.288-1.2.7-2.1,1.16a50.893,50.893,0,0,1-7.3,2.989,3.629,3.629,0,0,1-2.116.13,1.736,1.736,0,0,1-1.281-1.272,2.237,2.237,0,0,1,.52-1.643,7.2,7.2,0,0,1,1.1-1.188,13.219,13.219,0,0,1,2.747-1.7Z" transform="translate(-82.405 -175.419)" fill="#aa6550"/>
      <path id="Path_51914" data-name="Path 51914" d="M113.247,222.227a2.961,2.961,0,0,1-1.2-4.91c-1.5-.826-1.077-3.2.1-4.455s2.859-2.014,3.778-3.462a3.518,3.518,0,0,1-4.2-3.044,2.868,2.868,0,0,1-1.856-5.263c-1.606-.139-1.476-2.785-.13-3.713s3.109-.835,4.576-1.522a19.018,19.018,0,0,1,10.071-5.912l-6.571-4.891a3.834,3.834,0,0,1-1.327-1.4c-.575-1.309.455-2.785,1.531-3.713a15.464,15.464,0,0,1,8.177-3.573c.928-.111,2.19,0,2.5.928,2.042-.928,4.409-.863,6.664-.743a5.3,5.3,0,0,1,3.555,1.077,10.5,10.5,0,0,0-2.348-2.942,4.483,4.483,0,0,1-1.522-3.332c.13-1.253,1.643-2.348,2.682-1.634-1.169-.548-1.012-2.432,0-3.249a5.9,5.9,0,0,1,3.713-.928c.928,0,2.042.13,2.293,1,.408-2.014,3.852-2.3,4.576-.381a3.128,3.128,0,0,1,4.492.353,4.01,4.01,0,0,1,5.671,2.107l-3.5-5.857c-.659-1.114-.77-3.184.51-3.054-1.856,0-2.9-2.506-2-4.112a4.777,4.777,0,0,1,4.808-1.986l1.6,2.311a3.638,3.638,0,0,1,5.569,4.056c.743-.8,2.181-.362,2.785.548a5.43,5.43,0,0,1,.529,3.156c1.791-1.5,5.077.241,4.827,2.571a10.154,10.154,0,0,1,5.291-1.1,3.583,3.583,0,0,1,4.641-5.086,3.527,3.527,0,0,1,4.557-2.868c.566-2.135,3.369-3.713,5.068-2.311s.817,4.279-.26,6.293c-1.179,2.181-2.348,4.372-3.518,6.553l11.435-6.126a1.986,1.986,0,0,1,1.142-.343c.557.065.928.575,1.439.817a13.923,13.923,0,0,0,2.265.4c2.014.622,1.986,3.713.6,5.3s-3.5,2.358-5.059,3.768l5.077.928a5.188,5.188,0,0,1,6.646-3.388c.7-1.856,3.2-2.116,5.2-2.033,1.791.074,3.759.223,5.031,1.494,1.615,1.615,1.309,4.455-.046,6.293s-3.5,2.914-5.569,3.926c.334,1.522,2.311,1.986,3.852,1.764s3.146-.835,4.641-.278c1.977.743,2.785,3.3,4.808,4.028a8.056,8.056,0,0,1,1.856.6,3.564,3.564,0,0,1,1.216,2.358c.251,1.1.5,2.2.743,3.3a3.852,3.852,0,0,1,.139,1.652c-.362,1.8-2.868,2.181-4.557,1.494s-3.146-2.033-4.956-2.293c2.385,1.188,4.91,2.5,6.237,4.808s.789,5.894-1.717,6.794-5.049-1.29-6.9-3.249-4.5-4.065-6.961-2.942" transform="translate(-69.692 -153.569)" fill="#263238"/>
      <path id="Path_51915" data-name="Path 51915" d="M116.8,223.153c-1.931-1.429-5.207.464-4.919,2.85a6.8,6.8,0,0,0-2.552,11.751c1.5,1.262,4.483,1.309,4.8-.622a5.309,5.309,0,0,0,3.713,3.258,5.133,5.133,0,0,0,2.07,7.268c-3.054,2.107-2.478,7.639.928,9.068a4.188,4.188,0,0,0,7.648,3.416,8.949,8.949,0,0,0,2.785,4.177c1.4.956,3.713.789,4.418-.752a5.755,5.755,0,0,0,8.186,3.453,3.713,3.713,0,1,0,7.314,1.281l9.579.733a34.781,34.781,0,0,0,6.367.093,17.218,17.218,0,0,0,7.583-2.785,4.056,4.056,0,0,1,5.216-.455,15.538,15.538,0,0,0,15.009-2.209,7.667,7.667,0,0,1,2.079-1.383,7.027,7.027,0,0,1,2.859-.148,28.021,28.021,0,0,0,7.045-.4c1.986-.371,4.112-1.086,5.179-2.785s.232-4.576-1.782-4.724a4.325,4.325,0,0,1,1.383-3.536,2.608,2.608,0,0,1,3.546.149c.835,1.021.186,2.924-1.123,2.989,2.033,1.68,5.569-.13,5.857-2.785s-2.144-5.031-4.771-5.272a12.011,12.011,0,0,0,.65-5.773,4.27,4.27,0,0,0,5.736,1.151,7.425,7.425,0,0,0,4.455,3.824,4.418,4.418,0,0,0,5.086-2.228c.78-1.856-.64-4.4-2.655-4.344,1.6-2.126-.232-5.764-2.9-5.755a5.894,5.894,0,0,0-3.054-6.553,3.109,3.109,0,0,0,4.557-1.327c1.049,2.033,4.056,1.856,6.117.835,1.624-.77,3.211-1.94,2.952-4.279a4.641,4.641,0,0,0-1.457-2.877c-1.856-1.782-4.539-2.116-7.045-2.395a30.631,30.631,0,0,1-2.116-9.792c2.785.325,5.82-1.5,6.4-4.26l-13.876-8.623s-32.106-4.956-33.256-4.956S116.554,223,116.554,223c-1.559,1.624-4.585.928-5.727-1.049a6.2,6.2,0,0,1,.538-6.367,18.452,18.452,0,0,1,4.91-4.567c-2.153-.148-4.446-.343-6.033-1.9a3.416,3.416,0,0,1-.928-3.713c.77-1.856,2.914-1.726,4.288-2.785a7.806,7.806,0,0,0,1.764-2.45" transform="translate(-69.575 -156.073)" fill="#263238"/>
      <path id="Path_51916" data-name="Path 51916" d="M209.08,216.121c-.8-11.463-8.493-25.488-19.919-24.2l-35.623,9.282a6.72,6.72,0,0,0-5.968,6.859l3.935,76.983-8.586,4.1c-.084,0,8.892,4.994,8.808,5.012s8.242,24.235,31.79,16.707c4.641-1.494,6.785-6.618,7.685-11.881h.241c0-.622,7.787-6.59,7.8-7.184,0,.594-7.676-4.353-7.676-4.353V275.636c0,.065,14.637-2.534,17.542-21.673C210.556,244.421,209.971,228.837,209.08,216.121Z" transform="translate(-72.16 -156.318)" fill="#b78876"/>
      <path id="Path_51917" data-name="Path 51917" d="M208.621,232.68a2.45,2.45,0,0,1-2.348,2.5,2.358,2.358,0,0,1-2.543-2.2,2.46,2.46,0,0,1,2.348-2.488,2.339,2.339,0,0,1,2.543,2.19Z" transform="translate(-76.528 -159.093)" fill="#263238"/>
      <path id="Path_51918" data-name="Path 51918" d="M209.87,226.542c-.306.316-2.172-1.04-4.808-1.021s-4.567,1.364-4.854,1.04c-.139-.139.167-.724,1-1.337a6.729,6.729,0,0,1,3.88-1.234,6.433,6.433,0,0,1,3.833,1.216C209.74,225.856,210.018,226.394,209.87,226.542Z" transform="translate(-76.273 -158.627)" fill="#263238"/>
      <path id="Path_51919" data-name="Path 51919" d="M181.491,232.83a2.45,2.45,0,0,1-2.348,2.5,2.348,2.348,0,0,1-2.543-2.2,2.46,2.46,0,0,1,2.348-2.488,2.339,2.339,0,0,1,2.543,2.19Z" transform="translate(-74.579 -159.104)" fill="#263238"/>
      <path id="Path_51920" data-name="Path 51920" d="M181.93,227.263c-.306.316-2.172-1.04-4.808-1.021s-4.567,1.364-4.854,1.04c-.139-.139.158-.724,1-1.337a6.664,6.664,0,0,1,3.88-1.225,6.432,6.432,0,0,1,3.833,1.207C181.791,226.539,182.078,227.115,181.93,227.263Z" transform="translate(-74.266 -158.679)" fill="#263238"/>
      <path id="Path_51921" data-name="Path 51921" d="M193.033,246.769c0-.149,1.624-.446,4.279-.8.678-.074,1.309-.213,1.42-.678a3.416,3.416,0,0,0-.464-2l-2.023-5.114c-2.785-7.286-4.864-13.282-4.567-13.394s2.785,5.708,5.634,12.994c.678,1.8,1.327,3.508,1.94,5.151a3.9,3.9,0,0,1,.371,2.636,1.671,1.671,0,0,1-1.1.993,4.186,4.186,0,0,1-1.142.167C194.7,246.9,193.042,246.918,193.033,246.769Z" transform="translate(-75.66 -158.684)" fill="#263238"/>
      <path id="Path_51922" data-name="Path 51922" d="M193.345,281.585a48.636,48.636,0,0,1-25.655-6.655s6.3,13.087,25.432,11.138Z" transform="translate(-73.94 -162.286)" fill="#aa6550"/>
      <path id="Path_51923" data-name="Path 51923" d="M192.729,254.655a6.655,6.655,0,0,0-5.476-2.905,4.038,4.038,0,0,0-3.4,6.321,4.14,4.14,0,0,0,4.381,1.578,9.616,9.616,0,0,0,3.926-2.469,3.025,3.025,0,0,0,.845-1.021,1.4,1.4,0,0,0-.13-1.374" transform="translate(-75.05 -160.621)" fill="#aa6550"/>
      <path id="Path_51924" data-name="Path 51924" d="M184.758,250.49c.427,0,.446,2.84,2.914,4.854s5.513,1.68,5.569,2.079c0,.186-.678.566-1.968.613a7.175,7.175,0,0,1-4.641-1.578,6.237,6.237,0,0,1-2.265-4.075C184.247,251.2,184.554,250.481,184.758,250.49Z" transform="translate(-75.135 -160.53)" fill="#263238"/>
      <path id="Path_51925" data-name="Path 51925" d="M182.989,220.749c-.251.715-2.887.39-5.987.789s-5.569,1.253-6.005.613c-.186-.306.251-.984,1.253-1.68a10.46,10.46,0,0,1,9.133-1.077C182.525,219.849,183.063,220.406,182.989,220.749Z" transform="translate(-74.174 -158.254)" fill="#263238"/>
      <path id="Path_51926" data-name="Path 51926" d="M208.824,218.313c-.464.6-2.283,0-4.474,0s-4.028.436-4.465-.195c-.186-.3.1-.928.928-1.476a6.5,6.5,0,0,1,7.193.176C208.768,217.4,209.028,218.016,208.824,218.313Z" transform="translate(-76.248 -158.027)" fill="#263238"/>
      <path id="Path_51927" data-name="Path 51927" d="M146.8,226.769a3.184,3.184,0,0,0,.928,3.657,2.2,2.2,0,0,0,3.128-.863c.835,1.123,2.785,0,2.5-1.485,1.03.585,2.385-.807,2.061-2.107,1.2.464,1.912-1.476,2.543-2.785.353-.715.826-1.318,1.234-1.977A13.366,13.366,0,0,0,161.177,214c1.569-1.773,1.968-4.52,2.293-7.063.195-1.587.4-3.174.594-4.762l.928-1.1a2.58,2.58,0,0,0,1.708,2.469,5.448,5.448,0,0,0,2.887,0l2.85-.538,1.764.52c-.52,1.476,0,3.156.51,4.641a4.52,4.52,0,0,0,1.634,2.59,1.346,1.346,0,0,0,1.856-1.429,1.494,1.494,0,0,0,2.311-.353,4.956,4.956,0,0,0,.65-2.933,12.512,12.512,0,0,0-2.255-6.915l4.929,4.641a2.293,2.293,0,0,0,1.207.743,1.3,1.3,0,0,0,1.355,1.467,3.36,3.36,0,0,0,1.856-1.234c1.207-1.253,2.488-3.4,1.42-4.827a1.067,1.067,0,0,0,.483-1.569l5.569,4.288c-.557-.325-1.179.548-1.058,1.272a2.961,2.961,0,0,0,1.16,1.661,4.381,4.381,0,0,0-.659,2.664c-1-.928-2.525.761-2.209,2.209a3.156,3.156,0,0,0,2.952,2.33,2.209,2.209,0,0,0,2.515-1.624c1.225.269,2.423-1.42,1.986-2.785.928.594,1.68-1,1.736-2.209a17.635,17.635,0,0,0-.928-6.5c0,.316.316.575.538.408a.473.473,0,0,0-.093-.743c1.049,2.571,2.1,5.151,3.137,7.722a17.784,17.784,0,0,1,1.708,6.432c0,.928.111,2.181.928,2.265a1.114,1.114,0,0,0,.6-.158,11.491,11.491,0,0,0,5.086-5.857,8.752,8.752,0,0,0,.78-2.71c.186-1.977-.631-3.88-.761-5.866a20.179,20.179,0,0,0-.167-2.608,7.769,7.769,0,0,0-2.014-3.425c-3.007-3.508-6.191-7.138-10.21-8.567-2.469-.863-5.114-.854-7.592-1.7a43.669,43.669,0,0,1-4.446-2.061c-6.107-2.887-12.865-3.276-19.417-2.729a30.881,30.881,0,0,0-10.776,2.5,37.839,37.839,0,0,0-10.126,7.732c-4.641,4.594-8.975,9.727-11.927,15.955-2.265,4.789-3.713,10.377-2.877,15.779s4.13,10.488,8.66,11.621l1.782-2.042" transform="translate(-71.473 -155.457)" fill="#263238"/>
      <path id="Path_51928" data-name="Path 51928" d="M152.653,234.305c-.26-.121-10.646-3.425-10.553,7.249s10.795,8.354,10.8,8.075S152.653,234.305,152.653,234.305Z" transform="translate(-72.101 -159.327)" fill="#b78876"/>
      <path id="Path_51929" data-name="Path 51929" d="M149.819,245.875c-.046,0-.186.13-.492.278a1.856,1.856,0,0,1-1.392,0c-1.132-.408-2.1-2.19-2.163-4.112a6.126,6.126,0,0,1,.492-2.664,2.144,2.144,0,0,1,1.392-1.439.928.928,0,0,1,1.1.492c.149.3.084.51.139.529s.232-.176.139-.622a1.216,1.216,0,0,0-.427-.659,1.42,1.42,0,0,0-1.03-.26,2.59,2.59,0,0,0-1.931,1.671,6.191,6.191,0,0,0-.613,2.979c.084,2.144,1.207,4.149,2.785,4.585a2.014,2.014,0,0,0,1.7-.3C149.81,246.135,149.856,245.893,149.819,245.875Z" transform="translate(-72.311 -159.591)" fill="#aa6550"/>
      <path id="Path_51930" data-name="Path 51930" d="M189.1,229.836a23.887,23.887,0,0,0-.492-3.063,12.53,12.53,0,0,0-4.641-6.85,12.252,12.252,0,0,0-5.253-2.311,12.5,12.5,0,0,0-6.5.557,12.427,12.427,0,0,0-5.764,19.009,11.565,11.565,0,0,0,2.617,2.636,11.778,11.778,0,0,0,3.146,1.7,12.512,12.512,0,0,0,6.5.557,12.363,12.363,0,0,0,5.253-2.311,12.6,12.6,0,0,0,4.641-6.85,23.592,23.592,0,0,0,.492-3.072,5.93,5.93,0,0,1,0,.808,4.921,4.921,0,0,1-.074.984,7.907,7.907,0,0,1-.232,1.318,12.567,12.567,0,0,1-4.585,7.082,12.781,12.781,0,0,1-12.15,1.9,12.855,12.855,0,0,1-5.987-19.705,12.744,12.744,0,0,1,5.987-4.474,12.9,12.9,0,0,1,6.757-.538,12.772,12.772,0,0,1,5.383,2.432,12.623,12.623,0,0,1,4.594,7.082,8.179,8.179,0,0,1,.232,1.327,4.826,4.826,0,0,1,.074.975,5.93,5.93,0,0,1,0,.808Z" transform="translate(-73.643 -158.124)" fill="#455a64"/>
      <path id="Path_51931" data-name="Path 51931" d="M221.543,229.835a23.9,23.9,0,0,0-.492-3.063,12.53,12.53,0,0,0-4.641-6.85,12.253,12.253,0,0,0-5.253-2.311,12.521,12.521,0,0,0-6.5.557,12.427,12.427,0,0,0-5.764,19.009,11.565,11.565,0,0,0,2.617,2.636,11.778,11.778,0,0,0,3.146,1.7,12.521,12.521,0,0,0,6.5.557,12.363,12.363,0,0,0,5.253-2.311,12.6,12.6,0,0,0,4.641-6.85,23.594,23.594,0,0,0,.492-3.072,6.7,6.7,0,0,1,0,.808,5.839,5.839,0,0,1-.083.984,7.907,7.907,0,0,1-.232,1.318,12.568,12.568,0,0,1-4.585,7.082,12.781,12.781,0,0,1-12.15,1.9,12.855,12.855,0,0,1-5.987-19.705,12.855,12.855,0,0,1,18.137-2.617,12.6,12.6,0,0,1,4.585,7.082,8.176,8.176,0,0,1,.232,1.327,5.733,5.733,0,0,1,.084.975,6.7,6.7,0,0,1,0,.845Z" transform="translate(-75.972 -158.123)" fill="#455a64"/>
      <path id="Path_51932" data-name="Path 51932" d="M196.406,227.561c-.056.139-1.272-.362-2.859-.408s-2.831.353-2.877.214A5.569,5.569,0,0,1,196.406,227.561Z" transform="translate(-75.59 -158.819)" fill="#455a64"/>
      <path id="Path_51933" data-name="Path 51933" d="M162.883,232.178a20.81,20.81,0,0,1-5.328,1.355,20.606,20.606,0,0,1-5.486.39c0-.139,2.423-.381,5.4-.863S162.846,232.011,162.883,232.178Z" transform="translate(-72.818 -159.213)" fill="#455a64"/>
      <path id="Path_51934" data-name="Path 51934" d="M188.976,228.69a6.943,6.943,0,0,1-.13,2.385,14.99,14.99,0,0,1-2.1,5.374,12.929,12.929,0,0,1-4.028,4.14,3.035,3.035,0,0,1-2.33.52,5.847,5.847,0,0,0,2.153-.808,14.266,14.266,0,0,0,3.8-4.112,16.9,16.9,0,0,0,2.172-5.179C188.846,229.59,188.892,228.681,188.976,228.69Z" transform="translate(-74.852 -158.965)" fill="#fff"/>
      <path id="Path_51935" data-name="Path 51935" d="M219.245,236.353a16.826,16.826,0,0,1,1.021-2,9.56,9.56,0,0,0,.835-2.218,7.62,7.62,0,0,0,.056-2.877,15.333,15.333,0,0,0-1.513-5.086c-.65-1.2-1.3-1.782-1.234-1.856s.2.093.492.362a6.6,6.6,0,0,1,1.04,1.3,13.412,13.412,0,0,1,1.689,5.2,7.565,7.565,0,0,1-.093,3.044,8.743,8.743,0,0,1-.975,2.283A7.425,7.425,0,0,1,219.245,236.353Z" transform="translate(-77.582 -158.506)" fill="#fff"/>
      <path id="Path_51936" data-name="Path 51936" d="M145.175,250.357a4.634,4.634,0,0,0-.705.446,3.453,3.453,0,0,0-1.216,1.782,3.026,3.026,0,0,0,.64,2.979,3.611,3.611,0,0,0,3.555,1.04,3.843,3.843,0,0,0,1.921-5.848,4.743,4.743,0,0,0-1.624-1.485,5.347,5.347,0,0,1-.743-.381,1.912,1.912,0,0,1,.826.213,4.4,4.4,0,0,1,1.856,1.457,4.093,4.093,0,0,1,.752,3.379,4.26,4.26,0,0,1-2.785,3.128,4.028,4.028,0,0,1-4.028-1.207,3.323,3.323,0,0,1-.807-1.736,3.5,3.5,0,0,1,.176-1.643,3.4,3.4,0,0,1,1.439-1.856A1.2,1.2,0,0,1,145.175,250.357Z" transform="translate(-72.151 -160.415)" fill="#455a64"/>
      <path id="Path_51937" data-name="Path 51937" d="M191.843,197.1a2.6,2.6,0,0,0,.715-1.374,1.9,1.9,0,0,0-.473-1.606,2.033,2.033,0,0,0-2.042-.529l-.446.148.195-.427a2.126,2.126,0,0,0-.566-2.367,2.079,2.079,0,0,0-2.655.093l-.343-.3a.835.835,0,0,0,.148-.269,1.179,1.179,0,0,0-.167-1,1.4,1.4,0,0,0-.872-.557,2.19,2.19,0,0,0-1.067.056,2.97,2.97,0,0,1-1.2.26c-.511-.093-.733-.473-.993-.64a4.324,4.324,0,0,0-.826-.511,4.548,4.548,0,0,0-1.717-.39,4.641,4.641,0,0,0-2.488.594c-.529.306-.78.566-.807.529a2.163,2.163,0,0,1,.705-.687,4.539,4.539,0,0,1,2.6-.78,4.817,4.817,0,0,1,1.856.362,4.512,4.512,0,0,1,.928.548c.306.223.538.51.8.538a3.1,3.1,0,0,0,1.012-.269,2.617,2.617,0,0,1,1.29-.065,1.856,1.856,0,0,1,1.169.743,1.662,1.662,0,0,1,.232,1.42,1.373,1.373,0,0,1-.241.427l-.362-.306a2.45,2.45,0,0,1,3.926,2.785l-.251-.278a2.367,2.367,0,0,1,2.413.687,2.19,2.19,0,0,1-.121,2.97C191.991,197.049,191.852,197.114,191.843,197.1Z" transform="translate(-74.554 -155.995)" fill="#455a64"/>
      <path id="Path_51938" data-name="Path 51938" d="M204.457,199.9a3.23,3.23,0,0,0,.928-1.337,2.376,2.376,0,0,0-.111-1.8,2.478,2.478,0,0,0-1.856-1.364l-.343-.046.232-.26a2.979,2.979,0,0,0,.817-2.608,1.578,1.578,0,0,0-.928-1.077,1.244,1.244,0,0,0-1.411.186l-1.364,1.439.993-1.717a2.478,2.478,0,0,0,.13-2.088,2.283,2.283,0,0,0-1.643-1.411,2.4,2.4,0,0,0-1.6.158l-.557.278.223-.585c.325-.817-.51-1.773-1.337-1.856a4.037,4.037,0,0,0-2.525.631l-.464.251.149-.5a1.764,1.764,0,0,0-.575-1.7,3.221,3.221,0,0,0-1.643-.733,8.28,8.28,0,0,0-3.063.074,12.79,12.79,0,0,0-2.571.928,2.33,2.33,0,0,1,.594-.418,8.131,8.131,0,0,1,5.1-.928,3.555,3.555,0,0,1,1.856.789,2.163,2.163,0,0,1,.724,2.116l-.316-.251a4.437,4.437,0,0,1,2.785-.705,2.209,2.209,0,0,1,1.4.835,1.7,1.7,0,0,1,.306,1.689l-.325-.306a2.905,2.905,0,0,1,1.921-.2,2.784,2.784,0,0,1,1.986,1.717,2.942,2.942,0,0,1-.186,2.487l-.362-.278a1.708,1.708,0,0,1,1.921-.278,2.042,2.042,0,0,1,1.2,1.383,3.323,3.323,0,0,1-.928,2.961l-.1-.306a2.785,2.785,0,0,1,2.088,1.606,2.59,2.59,0,0,1,0,2,2.552,2.552,0,0,1-.724,1.03C204.606,199.851,204.466,199.916,204.457,199.9Z" transform="translate(-75.25 -155.706)" fill="#455a64"/>
      <path id="Path_51939" data-name="Path 51939" d="M231.813,202.331a1.773,1.773,0,0,0-.622-1.309,2.33,2.33,0,0,0-1.587-.575,6.962,6.962,0,0,0-2.283.538l-.26.1V200.8a2.07,2.07,0,0,0-1.689-2,5.931,5.931,0,0,0-3.388.538l-1.494.557,1.281-.928a1.708,1.708,0,0,0-.13-2.441,3.852,3.852,0,0,0-2.989-.715h-.139l-.928.084.789-.529a1.856,1.856,0,0,0-.2-2.877,2.784,2.784,0,0,0-3.072.3l-.975.77.65-1.067a4.112,4.112,0,0,0,0-4.2,3.861,3.861,0,0,0-2.785-1.81,4.474,4.474,0,0,0-2.255.288c-.492.213-.733.4-.752.371s.046-.065.158-.158a3.045,3.045,0,0,1,.538-.343,4.307,4.307,0,0,1,2.348-.427,4.121,4.121,0,0,1,3.109,1.856,4.511,4.511,0,0,1,.074,4.641l-.325-.3a3.193,3.193,0,0,1,3.6-.343,2.32,2.32,0,0,1,1.03,1.745,2.051,2.051,0,0,1-.817,1.94l-.158-.446h.149a4.26,4.26,0,0,1,3.351.845,2.469,2.469,0,0,1,.724,1.578,1.791,1.791,0,0,1-.65,1.569l-.213-.4a6.3,6.3,0,0,1,3.657-.51,2.423,2.423,0,0,1,1.921,2.45l-.232-.186a6.719,6.719,0,0,1,2.4-.483,2.469,2.469,0,0,1,1.708.705,1.745,1.745,0,0,1,.538,1.049.687.687,0,0,1-.084.408Z" transform="translate(-76.905 -155.912)" fill="#455a64"/>
      <path id="Path_51940" data-name="Path 51940" d="M217.424,177.22a1.383,1.383,0,0,1-.631.232,8.253,8.253,0,0,1-1.856.093,5.43,5.43,0,0,0-2.682.408,1.708,1.708,0,0,0-.928,1.16,1.253,1.253,0,0,0,.492,1.411l-.325.232c-.1-.613-.863-1-1.55-1.411a7.983,7.983,0,0,0-2.255-.928,2.933,2.933,0,0,0-2.283.353,1.94,1.94,0,0,0-.993,1.773l.074.594-.446-.4a5.356,5.356,0,0,0-3.137-1.29,5.978,5.978,0,0,0-2.692.39,7.472,7.472,0,0,0-2.061,1.318,2.71,2.71,0,0,1,.408-.529,5.253,5.253,0,0,1,1.541-1.049,6.117,6.117,0,0,1,2.785-.51A5.653,5.653,0,0,1,204.3,180.4l-.371.195a2.376,2.376,0,0,1,1.179-2.228,3.379,3.379,0,0,1,2.645-.427,8.354,8.354,0,0,1,2.385,1.03,10.046,10.046,0,0,1,1.049.678,1.745,1.745,0,0,1,.715,1.086l.065.455-.4-.223a1.671,1.671,0,0,1-.687-1.9,2.116,2.116,0,0,1,1.179-1.411,5.569,5.569,0,0,1,2.868-.343,10.608,10.608,0,0,0,1.856,0C217.192,177.266,217.414,177.192,217.424,177.22Z" transform="translate(-75.984 -155.267)" fill="#455a64"/>
      <path id="Path_51941" data-name="Path 51941" d="M192.585,167.255a4.891,4.891,0,0,0-1.262.176,3.007,3.007,0,0,0-1.207.761,2.627,2.627,0,0,0-.77,1.615v.26l-.251-.084a1.578,1.578,0,0,0-1.754.993,4.762,4.762,0,0,0-.093,2.645l.149.928-.594-.77-.093-.121a2.023,2.023,0,0,0-1.652-.687,2.246,2.246,0,0,0-1.569.687,3.62,3.62,0,0,0-.928,2.84,6.5,6.5,0,0,0,.538,2.079,3.109,3.109,0,0,1,.288.752,2.348,2.348,0,0,1-.464-.678,5.986,5.986,0,0,1-.705-2.126,3.908,3.908,0,0,1,.993-3.184,2.682,2.682,0,0,1,3.917,0l.121.158-.446.167a5.142,5.142,0,0,1,.158-2.924,1.986,1.986,0,0,1,2.3-1.179l-.269.176a2.979,2.979,0,0,1,.928-1.856,3.23,3.23,0,0,1,1.374-.752,2.728,2.728,0,0,1,.993-.056A2.122,2.122,0,0,1,192.585,167.255Z" transform="translate(-74.98 -154.538)" fill="#455a64"/>
      <path id="Path_51942" data-name="Path 51942" d="M170.228,181.989a2.086,2.086,0,0,1-.631-.139,4.056,4.056,0,0,1-1.448-1.03,4.279,4.279,0,0,1-1.1-2.413,2.144,2.144,0,0,0-.316-1.309c-.269-.343-.854-.557-1.216-1.114a2.413,2.413,0,0,1,.613-3.249v.353a7.676,7.676,0,0,1-2.051-2.859,2.905,2.905,0,0,1-.334-1.309,12.486,12.486,0,0,1,.575,1.2,8.354,8.354,0,0,0,2.1,2.636l.232.186-.251.167a2,2,0,0,0-.464,2.617c.241.408.77.594,1.179,1.067a2.45,2.45,0,0,1,.4,1.578,4.065,4.065,0,0,0,.928,2.228,6.126,6.126,0,0,0,1.791,1.392Z" transform="translate(-73.656 -154.672)" fill="#455a64"/>
      <path id="Path_51943" data-name="Path 51943" d="M162.515,186.942a.928.928,0,0,1-.4.056,5.2,5.2,0,0,1-1.142-.1,6.349,6.349,0,0,1-3.555-2.014h.306a4.223,4.223,0,0,1-4.641,1.281,2.543,2.543,0,0,1-1.531-1.2,5.566,5.566,0,0,1-.195-.7.928.928,0,0,0-.3-.446,3.2,3.2,0,0,0-1.114-.492,3.8,3.8,0,0,1-1.244-.51,1.355,1.355,0,0,1-.678-1.179l.306.2a4.242,4.242,0,0,1-2.942.074,4.52,4.52,0,0,1-1.931-1.216,3.852,3.852,0,0,1-.8-1.235,1.188,1.188,0,0,1-.111-.51,5.727,5.727,0,0,0,1.1,1.559,4.5,4.5,0,0,0,1.856,1.049,3.936,3.936,0,0,0,2.655-.121l.325-.139v.353a.928.928,0,0,0,.5.789,3.444,3.444,0,0,0,1.114.427,3.267,3.267,0,0,1,1.29.585,1.411,1.411,0,0,1,.455.668c.074.251.093.473.167.64a2.237,2.237,0,0,0,1.253.928,3.926,3.926,0,0,0,1.6.2,3.778,3.778,0,0,0,2.552-1.29l.158-.195.158.186a6.5,6.5,0,0,0,3.3,2.061C161.949,186.914,162.515,186.887,162.515,186.942Z" transform="translate(-72.134 -155.393)" fill="#455a64"/>
      <path id="Path_51944" data-name="Path 51944" d="M123.078,202.456a.431.431,0,0,0-.056-.167,2.3,2.3,0,0,1-.084-.5,5.04,5.04,0,0,1,.232-1.912,11.333,11.333,0,0,1,1.29-2.7,10.543,10.543,0,0,1,1.077-1.531,2.785,2.785,0,0,1,.835-.64,1.262,1.262,0,0,1,1.179,0l-.3.195a3.2,3.2,0,0,1,5.226-2.785l-.39.186a2.209,2.209,0,0,1,.928-1.8,2.126,2.126,0,0,1,2.061-.251,2.181,2.181,0,0,1,.928.715l-.436.167a1.4,1.4,0,0,1,.5-1.132,1.856,1.856,0,0,1,1.1-.455,4.27,4.27,0,0,1,2.061.529l-.3.093a3.434,3.434,0,0,1,2.07-1.476,4.715,4.715,0,0,1,2.358,0,12.067,12.067,0,0,1,3.629,1.81l-.251.213a.863.863,0,0,1,.093-.835,1.55,1.55,0,0,1,.6-.455,2.413,2.413,0,0,1,1.281-.195,7.146,7.146,0,0,1,1.921.585,6.181,6.181,0,0,1,1.086.64,1.365,1.365,0,0,1,.325.288c0,.046-.5-.343-1.494-.752a6.878,6.878,0,0,0-1.856-.483,2.219,2.219,0,0,0-1.123.2c-.371.158-.678.51-.5.863l.26.529-.52-.306a12.066,12.066,0,0,0-3.536-1.7,4.455,4.455,0,0,0-2.153,0,2.989,2.989,0,0,0-1.8,1.272l-.111.176-.186-.084a3.908,3.908,0,0,0-1.856-.483c-.575,0-1.207.52-1.151,1.077l.074.845-.51-.687a1.856,1.856,0,0,0-.733-.557,1.652,1.652,0,0,0-1.6.195,1.717,1.717,0,0,0-.705,1.4v.52l-.4-.334a2.785,2.785,0,0,0-4.511,2.385v.4l-.334-.2c-.52-.306-1.142.121-1.55.548a9.608,9.608,0,0,0-1.058,1.448,12.13,12.13,0,0,0-1.355,2.6,6.256,6.256,0,0,0-.26,2.543Z" transform="translate(-70.724 -156.102)" fill="#455a64"/>
      <path id="Path_51945" data-name="Path 51945" d="M125.908,217.314a2.313,2.313,0,0,1-.241-.306,9.285,9.285,0,0,1-.566-.928,3.555,3.555,0,0,1-.381-1.764,2.72,2.72,0,0,1,.362-1.1,1.856,1.856,0,0,1,1.058-.808l-.093.26a2.255,2.255,0,0,1,2.4-3.453l-.223.343a1.8,1.8,0,0,1,.065-2.144,2.664,2.664,0,0,1,2.061-.928,8.3,8.3,0,0,0,1.077,0,.928.928,0,0,0,.668-.575,3.9,3.9,0,0,1,.622-1.04,2.051,2.051,0,0,1,1.132-.622,12.068,12.068,0,0,1,2.571-.065,2.785,2.785,0,0,0,2.079-.6,10.332,10.332,0,0,0,.659-.928,2.469,2.469,0,0,1,.975-.752,2.562,2.562,0,0,1,2.255.121l-.278.3a1.921,1.921,0,0,1,.26-2.218,2.7,2.7,0,0,1,1.8-.928,8.6,8.6,0,0,1,3.156.39,9.8,9.8,0,0,1,1.856.761,2.237,2.237,0,0,1,.613.381,23.687,23.687,0,0,0-2.562-.928,8.8,8.8,0,0,0-3.044-.288,2.367,2.367,0,0,0-1.55.8,1.5,1.5,0,0,0-.2,1.736l.51.761-.8-.464a2.144,2.144,0,0,0-1.856-.074,1.958,1.958,0,0,0-.78.622q-.325.481-.7.928a2.5,2.5,0,0,1-1.142.64,6.629,6.629,0,0,1-1.272.121,12.066,12.066,0,0,0-2.46.046,1.6,1.6,0,0,0-.928.492,3.574,3.574,0,0,0-.557.928,1.392,1.392,0,0,1-1,.817,9.283,9.283,0,0,1-1.142,0,2.246,2.246,0,0,0-1.717.761,1.4,1.4,0,0,0-.093,1.615l.381.492-.6-.158a1.912,1.912,0,0,0-2.051.845,1.94,1.94,0,0,0,0,2l.13.2-.232.056a1.856,1.856,0,0,0-1.234,1.615,3.277,3.277,0,0,0,.288,1.661C125.639,216.832,125.908,217.287,125.908,217.314Z" transform="translate(-70.853 -156.843)" fill="#455a64"/>
      <path id="Path_51946" data-name="Path 51946" d="M126.65,248.6a1.225,1.225,0,0,1-.464-.158,3.23,3.23,0,0,1-1.1-.863,3.425,3.425,0,0,1-.808-2.042,3.713,3.713,0,0,1,.984-2.692v.26a6.775,6.775,0,0,1-1.253-2.4,2.664,2.664,0,0,1,.111-1.541,1.977,1.977,0,0,1,1.142-1.188v.418a2.784,2.784,0,0,1-1.207-2.515,3.137,3.137,0,0,1,.5-1.569,2.617,2.617,0,0,1,1.244-.993.914.914,0,0,0,.687-.928,3.908,3.908,0,0,1,.325-1.411,4.826,4.826,0,0,1,1.8-1.921c.65-.464,1.244-.928,1.81-1.3a8.27,8.27,0,0,1,2.942-1.383,3.712,3.712,0,0,1,.928-.065c.2,0,.306,0,.306.046s-.427,0-1.151.2a8.817,8.817,0,0,0-2.785,1.476l-1.764,1.346a4.455,4.455,0,0,0-1.634,1.782,3.314,3.314,0,0,0-.269,1.272,1.346,1.346,0,0,1-.269.789,1.912,1.912,0,0,1-.678.483,2.33,2.33,0,0,0-1.467,2.163,2.358,2.358,0,0,0,.928,2.088l.418.26-.464.167a1.931,1.931,0,0,0-.975,2.2,6.571,6.571,0,0,0,1.151,2.255l.093.139-.121.111a3.388,3.388,0,0,0-.928,2.4,3.249,3.249,0,0,0,.668,1.856,4.817,4.817,0,0,0,1.3,1.253Z" transform="translate(-70.797 -158.793)" fill="#455a64"/>
      <path id="Path_51947" data-name="Path 51947" d="M142.75,235.23a1.967,1.967,0,0,1-.659-.139,6.386,6.386,0,0,1-3.611-3.137,2.515,2.515,0,0,1-.325-1.856,1.234,1.234,0,0,1,.733-.826,1.04,1.04,0,0,1,1.179.195l-.362.223a3.258,3.258,0,0,1-.334-1.856,1.606,1.606,0,0,1,.575-.928,1.318,1.318,0,0,1,1.1-.158,2.015,2.015,0,0,0,.835.121c.176-.056.213-.278.195-.64a2.905,2.905,0,0,1,.817-2.042,3.184,3.184,0,0,1,3.276-.928l-.316.288a2.784,2.784,0,0,1,.5-2.664,1.689,1.689,0,0,1,1.309-.408,1.244,1.244,0,0,1,1.077.789l-.408.084a6.5,6.5,0,0,1,.817-3.518,6.859,6.859,0,0,1,1.8-2.116,6.005,6.005,0,0,1,1.559-.872,1.782,1.782,0,0,1,.613-.158,9.281,9.281,0,0,0-2.014,1.225,6.785,6.785,0,0,0-1.652,2.088,6.256,6.256,0,0,0-.705,3.323l.111,1.745-.52-1.661c-.186-.575-1.188-.668-1.671-.186a2.3,2.3,0,0,0-.353,2.209l.111.427-.418-.139a2.682,2.682,0,0,0-2.785.817,2.46,2.46,0,0,0-.7,1.7,1.857,1.857,0,0,1,0,.575.78.78,0,0,1-.464.52,2.153,2.153,0,0,1-1.1-.1.789.789,0,0,0-.733.074,1.086,1.086,0,0,0-.4.631,2.785,2.785,0,0,0,.288,1.6l.446,1.179-.808-.928c-.325-.381-1.114,0-1.216.455a2.255,2.255,0,0,0,.269,1.578,6.34,6.34,0,0,0,1.754,2.209,9.689,9.689,0,0,0,2.181,1.216Z" transform="translate(-71.814 -157.958)" fill="#455a64"/>
      <path id="Path_51948" data-name="Path 51948" d="M168.821,204.176a3.564,3.564,0,0,1-1.429-.566,4.093,4.093,0,0,1-1.3-1.132,2.655,2.655,0,0,1-.464-2.088,1.708,1.708,0,0,1,.195-.5l.1.325a2.311,2.311,0,0,1-1.188-1.587,2.125,2.125,0,0,1,.306-1.569c.529-.77,1.151-.845,1.151-.8a2.952,2.952,0,0,0-.863.928,1.8,1.8,0,0,0-.167,1.309,1.856,1.856,0,0,0,.975,1.253l.213.111-.111.223a1.71,1.71,0,0,0-.149.381,2.358,2.358,0,0,0,.371,1.736,4.381,4.381,0,0,0,1.114,1.086,8.244,8.244,0,0,1,1.244.891Z" transform="translate(-73.725 -156.634)" fill="#455a64"/>
      <path id="Path_51949" data-name="Path 51949" d="M180.251,198.622a2.9,2.9,0,0,0,.334-1.764,2,2,0,0,0-1.132-1.513,2.153,2.153,0,0,0-2.3.362l-.306.288-.074-.418a3.926,3.926,0,0,0-.548-1.42,1.856,1.856,0,0,0-1.207-.854c-.77-.111-1.634.6-1.42,1.244l-.455.093a3.657,3.657,0,0,0-1.327-2.4,3.546,3.546,0,0,0-2.061-.789,5.467,5.467,0,0,0-2.023.362,1.656,1.656,0,0,1,.473-.325,3.647,3.647,0,0,1,1.559-.334,3.712,3.712,0,0,1,2.3.77,4.037,4.037,0,0,1,1.541,2.664l-.455.093a1.346,1.346,0,0,1,.473-1.4,1.921,1.921,0,0,1,1.448-.455,2.3,2.3,0,0,1,1.55,1.077,4.334,4.334,0,0,1,.594,1.606l-.381-.13A2.543,2.543,0,0,1,179.62,195a2.255,2.255,0,0,1,1.244,1.856,2.283,2.283,0,0,1-.278,1.411C180.409,198.529,180.26,198.631,180.251,198.622Z" transform="translate(-73.942 -156.268)" fill="#455a64"/>
      <path id="Path_51950" data-name="Path 51950" d="M223.306,371.115l14.071-5.81a189.291,189.291,0,0,0-8.428-34.658c-5.059-13.978-13.356-20.262-15.965-21.951v-.167l-4.242-2.562-18.072-11.6c3.184,14.442-22.675,29.265-44.664-1.754l-36.347,14.7,9.5,102.935-9.013,45.536,90.961-.269v.882l19.352-.186L216.326,436c1.8-19.436,7.583-43.03,6.915-58.624C223.324,375.422,223.343,373.315,223.306,371.115Z" transform="translate(-69.771 -163.556)" fill="#009eff"/>
      <path id="Path_51951" data-name="Path 51951" d="M227.7,415.047a4.456,4.456,0,0,0,.269-.743l.529-2.126c.232-.928.5-2.051.761-3.379s.6-2.785.872-4.5.6-3.508.854-5.495.51-4.1.752-6.339c.4-4.474.678-9.412.678-14.6s-.362-10.126-.733-14.609c-.251-2.237-.464-4.362-.77-6.339s-.575-3.815-.928-5.486-.613-3.174-.928-4.5-.529-2.45-.77-3.369-.4-1.6-.538-2.126a4.455,4.455,0,0,0-.223-.733,5.362,5.362,0,0,0,.13.761l.446,2.135c.213.928.455,2.061.7,3.388s.566,2.785.817,4.5.575,3.509.817,5.486.492,4.1.724,6.33c.39,4.465.668,9.384.7,14.563s-.269,10.1-.64,14.563c-.232,2.228-.418,4.353-.705,6.33s-.52,3.815-.8,5.486-.557,3.184-.8,4.511-.473,2.46-.678,3.388-.334,1.606-.436,2.135a5.369,5.369,0,0,0-.093.77Z" transform="translate(-78.237 -167.01)" fill="#263238"/>
      <path id="Path_51952" data-name="Path 51952" d="M227.757,420a1.457,1.457,0,0,1-.056.464c-.065.362-.139.8-.232,1.327-.232,1.142-.529,2.785-.882,4.854a99,99,0,0,0-1.485,16.169,75.785,75.785,0,0,0,.538,8.92,72.008,72.008,0,0,0,1.318,7.184c.223,1.021.5,1.921.705,2.72s.418,1.476.594,2.033.278.928.381,1.29a1.577,1.577,0,0,1,.1.455,3.069,3.069,0,0,1-.195-.427l-.464-1.253c-.2-.557-.446-1.225-.678-2.023s-.538-1.689-.77-2.71a62.666,62.666,0,0,1-1.429-7.212,68.994,68.994,0,0,1-.585-8.975,90.036,90.036,0,0,1,1.624-16.225c.4-2.051.752-3.713,1.04-4.836.13-.529.232-.928.325-1.309A1.754,1.754,0,0,1,227.757,420Z" transform="translate(-78.029 -172.706)" fill="#263238"/>
      <path id="Path_51953" data-name="Path 51953" d="M70.64,380.555,89.287,327.2s4.891-15.723,19.742-19.6l10.563,53.361-4.9,29.191Z" transform="translate(-66.969 -164.632)" fill="#009eff"/>
      <path id="Path_51954" data-name="Path 51954" d="M126.6,350a1.718,1.718,0,0,1,0,.455c0,.343-.074.77-.13,1.272-.121,1.114-.334,2.71-.64,4.641-.613,3.945-1.717,9.347-3.054,15.268s-2.543,11.305-3.351,15.2c-.39,1.856-.705,3.453-.928,4.641l-.278,1.253a1.43,1.43,0,0,1-.13.436,1.68,1.68,0,0,1,0-.455c.046-.343.111-.761.186-1.262.167-1.1.446-2.692.8-4.641.724-3.926,1.856-9.282,3.211-15.241s2.488-11.305,3.184-15.222c.362-1.958.622-3.546.8-4.641.084-.51.158-.928.213-1.272A1.485,1.485,0,0,1,126.6,350Z" transform="translate(-70.376 -167.678)" fill="#263238"/>
      <path id="Path_51955" data-name="Path 51955" d="M197.03,297.79a4.482,4.482,0,0,1,0,.705,3.74,3.74,0,0,1-.074.854c-.074.334-.121.733-.195,1.16a13.277,13.277,0,0,1-.39,1.42,16.063,16.063,0,0,1-.678,1.624,14.182,14.182,0,0,1-2.4,3.527,24.82,24.82,0,0,1-9.282,6.015,26.48,26.48,0,0,1-13.4,1.55,32.207,32.207,0,0,1-12.762-4.595,46.2,46.2,0,0,1-8.493-7.11,71.3,71.3,0,0,1-4.864-5.653c-.538-.7-.928-1.244-1.207-1.624a4.949,4.949,0,0,1-.4-.585,3.2,3.2,0,0,1,.473.529l1.281,1.559c1.123,1.355,2.785,3.3,4.966,5.569a46.983,46.983,0,0,0,8.474,6.961,32.218,32.218,0,0,0,12.558,4.483,26.221,26.221,0,0,0,13.2-1.541,24.709,24.709,0,0,0,9.17-5.829,14.3,14.3,0,0,0,2.413-3.416,13.92,13.92,0,0,0,.7-1.578c.167-.5.306-.928.427-1.392s.167-.8.241-1.132.084-.622.121-.845a3.117,3.117,0,0,1,.13-.659Z" transform="translate(-72.158 -163.733)" fill="#fafafa"/>
      <g id="Group_69994" data-name="Group 69994" transform="translate(46.571 195.651)" opacity="0.3">
        <path id="Path_51956" data-name="Path 51956" d="M117.51,422.844c5.513-6.5,6.042-15.779,6.3-24.346.334-10.823.1-23.316.436-34.138-2,9.6-5.031,24.318-6.5,29.869,0,0,.724,5.653.761,7.871,0,2.023-.139,4.232.056,6.247.483,5.2,1.3,10.943-1.708,15.222" transform="translate(-116.86 -364.36)"/>
      </g>
      <path id="Path_51957" data-name="Path 51957" d="M222.075,352.57a.789.789,0,0,1-.232.1l-.705.223-2.7.835c-1.179.371-2.617.8-4.316,1.234s-3.6,1-5.755,1.476-4.483,1.058-7.026,1.531-5.263.975-8.14,1.457c-5.755.872-12.113,1.606-18.823,2s-13.115.343-18.935.111c-2.905-.158-5.671-.288-8.242-.548s-4.975-.492-7.156-.77-4.158-.585-5.885-.835-3.211-.529-4.418-.77l-2.785-.548-.724-.158-.241-.065h.251l.733.111,2.785.455c1.207.214,2.692.464,4.427.687s3.713.557,5.875.77,4.576.52,7.147.705,5.337.353,8.233.5c5.8.2,12.2.2,18.888-.148s12.994-1.114,18.786-1.958c2.868-.464,5.569-.928,8.122-1.4s4.891-.993,7.036-1.476,4.065-.984,5.764-1.4,3.147-.817,4.325-1.151l2.729-.752.715-.186Z" transform="translate(-70.944 -167.862)" fill="#fafafa"/>
      <path id="Path_51958" data-name="Path 51958" d="M239.594,340.15a37.532,37.532,0,0,1-4.956,3.341,37.858,37.858,0,0,1-5.207,2.933A73.077,73.077,0,0,1,239.594,340.15Z" transform="translate(-78.374 -166.97)" fill="#fafafa"/>
      <path id="Path_51959" data-name="Path 51959" d="M123.272,354.748a9.284,9.284,0,0,1-1.559-.083c-.993-.084-2.432-.241-4.2-.483A117.516,117.516,0,0,1,90.591,347.1c-1.661-.659-2.989-1.225-3.9-1.643a8.892,8.892,0,0,1-1.392-.687,11.365,11.365,0,0,1,1.467.51c.928.371,2.274.882,3.945,1.5,3.341,1.234,8.019,2.785,13.273,4.2a136.083,136.083,0,0,0,13.626,2.859c1.764.288,3.184.5,4.177.64a8.954,8.954,0,0,1,1.485.269Z" transform="translate(-68.022 -167.302)" fill="#fafafa"/>
      <path id="Path_51960" data-name="Path 51960" d="M154.2,433.653l14.145.3s21.2-7.657,25.562-6.933c3.926.668,18.294,10.21,21.116,12.066a1.754,1.754,0,0,1,.678.872h0a3.081,3.081,0,0,1-1.708,3.917l-.3.121.121.427a5.021,5.021,0,0,1,.223,1.717,2.07,2.07,0,0,1-3.852.928l.538.928a2.4,2.4,0,0,1,.306,1.29l-.056.873a2.33,2.33,0,0,1-1.624,2.107h0a2.358,2.358,0,0,1-2.469-.64c-1.856-2-5.755-6.024-8.419-6.5a62.106,62.106,0,0,0-8.706-.436,2.961,2.961,0,0,0-2.785,1.856h0c1.587.111,12.6,5.857,16.5,7.917a4.158,4.158,0,0,1,2.265,3.137c.139,1.216-.473,2.5-2.887,1.931-5.179-1.207-14.507-5.495-14.507-5.495s-4.808-1.374-7.917.826c-4.381,3.091-6.4,4.223-10.154,2.979a32.035,32.035,0,0,1-6.5-3.044l-13.6.8S143.115,443.371,154.2,433.653Z" transform="translate(-72.522 -173.206)" fill="#b78876"/>
      <path id="Path_51961" data-name="Path 51961" d="M190,438.278a38.324,38.324,0,0,1,3.982-.557,20.577,20.577,0,0,1,17.134,7.314c1.606,1.9,2.283,3.3,2.358,3.258a4.742,4.742,0,0,0-.473-.984,17.882,17.882,0,0,0-1.661-2.45,19.909,19.909,0,0,0-17.375-7.425,18.178,18.178,0,0,0-2.933.492A4.473,4.473,0,0,0,190,438.278Z" transform="translate(-75.542 -173.952)" fill="#aa6550"/>
      <path id="Path_51962" data-name="Path 51962" d="M192.38,432.723a17.105,17.105,0,0,1,4.14-.724,18.072,18.072,0,0,1,9.644,2.766,39.26,39.26,0,0,1,7.778,6.571l2.126,2.265a5.4,5.4,0,0,0,.817.807,6.711,6.711,0,0,0-.7-.928c-.473-.566-1.16-1.374-2.042-2.348a35.79,35.79,0,0,0-7.769-6.729,17.635,17.635,0,0,0-9.866-2.664,11.547,11.547,0,0,0-3.072.557,8.354,8.354,0,0,0-.8.306C192.463,432.658,192.371,432.714,192.38,432.723Z" transform="translate(-75.713 -173.548)" fill="#aa6550"/>
      <path id="Path_51963" data-name="Path 51963" d="M75.767,387.47c0-.093-7.36,33.071-8.354,38.9-1.123,6.822-2.979,23.4,12.215,26.629s78.282-.928,78.282-.928l4.557-20.94-57.8-8.205,6.312-27.752Z" transform="translate(-66.685 -170.369)" fill="#b78876"/>
    </g>
    <g id="freepik--speech-bubble--inject-28" transform="translate(52.574 65.913)">
      <path id="Path_51964" data-name="Path 51964" d="M78.47,93.371c0-2.785,1.485-4.511,3.536-4.511s3.546,1.689,3.546,4.511-1.494,4.511-3.546,4.511S78.47,96.193,78.47,93.371Zm6.145,0c0-2.367-1.058-3.713-2.608-3.713S79.4,90.967,79.4,93.371s1.058,3.713,2.608,3.713,2.608-1.346,2.608-3.713Z" transform="translate(-56.581 -67.622)" fill="#263238"/>
      <path id="Path_51965" data-name="Path 51965" d="M87.5,93.371c0-2.785,1.485-4.511,3.536-4.511s3.546,1.689,3.546,4.511-1.494,4.511-3.546,4.511S87.5,96.193,87.5,93.371Zm6.145,0c0-2.367-1.058-3.713-2.608-3.713s-2.608,1.309-2.608,3.713,1.067,3.713,2.608,3.713S93.645,95.738,93.645,93.371Z" transform="translate(-57.229 -67.622)" fill="#263238"/>
      <path id="Path_51966" data-name="Path 51966" d="M98.927,88.94v8.873H98V89.757H95.92V88.94Z" transform="translate(-57.834 -67.628)" fill="#263238"/>
      <path id="Path_51967" data-name="Path 51967" d="M101.43,93.371c0-2.785,1.485-4.511,3.536-4.511s3.546,1.689,3.546,4.511-1.494,4.511-3.546,4.511S101.43,96.193,101.43,93.371Zm6.145,0c0-2.367-1.058-3.713-2.608-3.713s-2.608,1.309-2.608,3.713,1.067,3.713,2.608,3.713S107.575,95.738,107.575,93.371Z" transform="translate(-58.23 -67.622)" fill="#263238"/>
      <path id="Path_51968" data-name="Path 51968" d="M112.847,88.94v8.873h-.928V89.757H109.83V88.94Z" transform="translate(-58.833 -67.628)" fill="#263238"/>
      <path id="Path_51969" data-name="Path 51969" d="M69.07,106.922c0-2.785,1.485-4.5,3.536-4.5s3.546,1.68,3.546,4.5-1.494,4.511-3.546,4.511S69.07,109.753,69.07,106.922Zm6.145,0c0-2.367-1.067-3.713-2.608-3.713S70,104.508,70,106.922s1.058,3.713,2.608,3.713S75.215,109.3,75.215,106.922Z" transform="translate(-55.906 -68.596)" fill="#263238"/>
      <path id="Path_51970" data-name="Path 51970" d="M78.1,106.922c0-2.785,1.485-4.5,3.536-4.5s3.546,1.68,3.546,4.5-1.494,4.511-3.546,4.511S78.1,109.753,78.1,106.922Zm6.145,0c0-2.367-1.067-3.713-2.608-3.713s-2.608,1.3-2.608,3.713,1.058,3.713,2.608,3.713S84.245,109.3,84.245,106.922Z" transform="translate(-56.554 -68.596)" fill="#263238"/>
      <path id="Path_51971" data-name="Path 51971" d="M89.518,102.5v8.864H88.59v-8.057H86.52V102.5Z" transform="translate(-57.159 -68.602)" fill="#263238"/>
      <path id="Path_51972" data-name="Path 51972" d="M92,106.922c0-2.785,1.485-4.5,3.536-4.5s3.546,1.68,3.546,4.5-1.494,4.511-3.546,4.511S92,109.753,92,106.922Zm6.145,0c0-2.367-1.067-3.713-2.608-3.713s-2.608,1.3-2.608,3.713,1.058,3.713,2.608,3.713,2.636-1.337,2.636-3.713Z" transform="translate(-57.553 -68.596)" fill="#263238"/>
      <path id="Path_51973" data-name="Path 51973" d="M103.447,102.5v8.864h-.928v-8.057H100.43V102.5Z" transform="translate(-58.158 -68.602)" fill="#263238"/>
      <path id="Path_51974" data-name="Path 51974" d="M108.377,102.5v8.864h-.928v-8.057H105.36V102.5Z" transform="translate(-58.512 -68.602)" fill="#263238"/>
      <path id="Path_51975" data-name="Path 51975" d="M110.88,106.922c0-2.785,1.485-4.5,3.536-4.5s3.546,1.68,3.546,4.5-1.494,4.511-3.546,4.511S110.88,109.753,110.88,106.922Zm6.145,0c0-2.367-1.058-3.713-2.608-3.713s-2.608,1.3-2.608,3.713,1.067,3.713,2.608,3.713S117.025,109.3,117.025,106.922Z" transform="translate(-58.909 -68.596)" fill="#263238"/>
      <path id="Path_51976" data-name="Path 51976" d="M122.307,102.5v8.864h-.928v-8.057H119.3V102.5Z" transform="translate(-59.513 -68.602)" fill="#263238"/>
      <path id="Path_51977" data-name="Path 51977" d="M78.47,120.031c0-2.785,1.485-4.511,3.536-4.511s3.546,1.689,3.546,4.511-1.494,4.511-3.546,4.511S78.47,122.853,78.47,120.031Zm6.145,0c0-2.367-1.058-3.713-2.608-3.713s-2.608,1.309-2.608,3.713,1.067,3.713,2.608,3.713,2.608-1.346,2.608-3.713Z" transform="translate(-56.581 -69.537)" fill="#263238"/>
      <path id="Path_51978" data-name="Path 51978" d="M89.9,115.6v8.873h-.928v-8.057H86.89V115.6Z" transform="translate(-57.185 -69.543)" fill="#263238"/>
      <path id="Path_51979" data-name="Path 51979" d="M94.818,115.6v8.873H93.89v-8.057H91.82V115.6Z" transform="translate(-57.54 -69.543)" fill="#263238"/>
      <path id="Path_51980" data-name="Path 51980" d="M99.766,115.6v8.873h-.928v-8.057h-2.1V115.6Z" transform="translate(-57.893 -69.543)" fill="#263238"/>
      <path id="Path_51981" data-name="Path 51981" d="M102.25,120.031c0-2.785,1.485-4.511,3.536-4.511s3.546,1.689,3.546,4.511-1.494,4.511-3.546,4.511S102.25,122.853,102.25,120.031Zm6.145,0c0-2.367-1.058-3.713-2.608-3.713s-2.608,1.309-2.608,3.713,1.058,3.713,2.608,3.713S108.395,122.4,108.395,120.031Z" transform="translate(-58.289 -69.537)" fill="#263238"/>
      <path id="Path_51982" data-name="Path 51982" d="M113.667,115.6v8.873h-.928v-8.057H110.65V115.6Z" transform="translate(-58.892 -69.543)" fill="#263238"/>
      <path id="Path_51983" data-name="Path 51983" d="M132.719,141.713c0,.046-.436,0-1.169.158a5.17,5.17,0,0,0-2.673,1.587,4.91,4.91,0,0,0-1.077,1.856,4.288,4.288,0,0,0,0,2.441,4.7,4.7,0,0,0,8.743,1.012,4.214,4.214,0,0,0,.557-2.376,4.966,4.966,0,0,0-.613-2.061,5.2,5.2,0,0,0-2.255-2.163c-.678-.325-1.1-.371-1.1-.408s.1,0,.306,0a1.642,1.642,0,0,1,.362.084,2.784,2.784,0,0,1,.492.167,5.277,5.277,0,0,1,3.109,4.335,4.548,4.548,0,0,1-.566,2.552,5.365,5.365,0,0,1-2.033,2.07,4.724,4.724,0,0,1-5.829-.678,5.309,5.309,0,0,1-1.5-2.469,4.557,4.557,0,0,1,0-2.617,5.238,5.238,0,0,1,4.019-3.509,2.089,2.089,0,0,1,.511-.056,1.3,1.3,0,0,1,.381,0,1.058,1.058,0,0,1,.334.074Z" transform="translate(-60.087 -71.412)" fill="#263238"/>
      <path id="Path_51984" data-name="Path 51984" d="M132.689,115.4a2.688,2.688,0,0,1,.111-.631l.362-1.856c.074-.408.167-.854.269-1.355s.1-1.058.167-1.661.121-1.244.186-1.94a6.7,6.7,0,0,0,.046-1.067v-1.142a37.869,37.869,0,0,0-1.615-11.24,39.123,39.123,0,0,0-6.906-13.3l-1.327-1.652c-.483-.529-1-1.03-1.5-1.559l-.78-.789a6.264,6.264,0,0,0-.808-.761l-1.726-1.457-.928-.743-.928-.65-1.94-1.337c-.659-.427-1.383-.78-2.088-1.179l-1.067-.585c-.176-.093-.353-.2-.538-.288l-.557-.241a36.681,36.681,0,0,0-4.641-1.8c-.808-.241-1.615-.529-2.45-.733l-2.58-.5c-.427-.074-.854-.186-1.29-.241l-1.327-.13c-.928-.084-1.764-.2-2.664-.251a43.076,43.076,0,0,0-5.458.186l-1.374.13a2.14,2.14,0,0,0-.687.074l-.687.139-2.785.548c-.928.232-1.856.538-2.785.808-.446.149-.928.26-1.364.446l-1.337.548a44.97,44.97,0,0,0-5.207,2.552l-2.478,1.634-.622.408c-.2.149-.39.316-.585.473l-1.179.928-1.169.928-1.086,1.049-1.1,1.1-.548.529-.52.585c-.659.78-1.318,1.569-1.986,2.348l-1.726,2.552a38.983,38.983,0,0,0-6.182,24.012l.306,3.082c.2,1.012.4,2.014.6,3.017l.149.752.223.733.446,1.457.446,1.448.575,1.392.566,1.392.288.687.353.668,1.383,2.627a45.047,45.047,0,0,0,3.369,4.78l.928,1.123c.3.381.659.7.984,1.049.678.678,1.318,1.383,2,2.023l2.153,1.856.538.446c.186.149.381.269.566.408l1.142.78a40.617,40.617,0,0,0,4.7,2.785c.808.4,1.643.724,2.45,1.077l1.225.52c.408.167.835.278,1.253.408.826.269,1.661.52,2.478.78s1.68.362,2.506.548a38.491,38.491,0,0,0,4.956.678l.613.065H96.76l2.348-.232,1.151-.111,1.132-.223,2.218-.436a8.355,8.355,0,0,0,1.077-.278l1.058-.325c.7-.213,1.4-.4,2.07-.631l1.968-.808a39.215,39.215,0,0,0,12.465-8.354l1.169-1.142,1.021-1.207.984-1.16c.158-.186.325-.371.464-.566s.278-.39.408-.594l1.559-2.237c.473-.733.835-1.476,1.225-2.153l.557-.993a7.807,7.807,0,0,0,.483-.928c.269-.64.529-1.234.77-1.782s.473-1.058.65-1.541.288-.928.418-1.318l.575-1.782c.13-.4.2-.6.2-.6s-.046.2-.167.613-.306,1.012-.548,1.8c-.121.39-.251.835-.4,1.327s-.408.984-.64,1.541l-.752,1.8a7.714,7.714,0,0,1-.473.928l-.548,1c-.39.687-.752,1.439-1.225,2.172l-1.541,2.265-.418.594c-.139.195-.306.381-.464.575l-.984,1.169-1.021,1.207c-.371.39-.77.77-1.17,1.16a39.252,39.252,0,0,1-12.5,8.419l-1.977.817c-.678.232-1.383.427-2.088.64l-1.058.325a8.489,8.489,0,0,1-1.086.288l-2.237.445c-.371.074-.752.158-1.132.223l-1.16.121-2.367.232c-.789.056-1.6,0-2.413,0H92.509l-.622-.056a38.825,38.825,0,0,1-4.994-.678c-.835-.186-1.689-.316-2.525-.548l-2.543-.8c-.418-.139-.845-.241-1.253-.408l-1.234-.52c-.817-.362-1.661-.687-2.478-1.086a41.771,41.771,0,0,1-4.734-2.785l-1.151-.77-.585-.4-.538-.455-2.172-1.856c-.7-.65-1.346-1.355-2.023-2.042-.334-.353-.7-.668-.993-1.049l-.928-1.142a43.978,43.978,0,0,1-3.406-4.817c-.464-.928-.928-1.764-1.4-2.645l-.353-.668-.288-.7-.575-1.411-.575-1.383-.446-1.467-.446-1.467-.223-.743-.158-.752-.613-3.044-.26-3.128A39.169,39.169,0,0,1,61.229,84.07L63,81.5l2-2.376c.167-.195.325-.4.5-.585L66.056,78l1.1-1.077,1.1-1.058,1.188-.928,1.179-.928c.2-.158.39-.325.594-.473l.631-.408,2.506-1.652A45.015,45.015,0,0,1,79.663,68.9l1.346-.557c.446-.186.928-.288,1.383-.436.928-.269,1.856-.585,2.785-.817l2.785-.548.687-.139c.232,0,.464-.056.7-.074l1.4-.139A40.551,40.551,0,0,1,96.184,66c.928,0,1.791.167,2.682.251l1.337.13c.436.056.863.167,1.3.251l2.571.529c.845.2,1.652.5,2.478.743a38.465,38.465,0,0,1,4.7,1.856l.575.241c.186.093.362.2.538.3l1.077.594c.705.4,1.429.761,2.1,1.188l1.949,1.346.928.668c.306.241.594.492.928.743l1.736,1.374a8.02,8.02,0,0,1,.817.77l.77.789c.51.538,1.03,1.049,1.513,1.578a20.253,20.253,0,0,1,1.337,1.671,39.234,39.234,0,0,1,6.9,13.4,37.386,37.386,0,0,1,1.559,11.3v1.142a8.113,8.113,0,0,1-.056,1.077c-.074.7-.139,1.346-.2,1.94s-.111,1.16-.195,1.661l-.278,1.355c-.176.808-.306,1.42-.4,1.856S132.689,115.4,132.689,115.4Z" transform="translate(-54.887 -65.979)" fill="#263238"/>
    </g>
    <g id="freepik--Screens--inject-28" transform="translate(246.11 65.06)">
      <rect id="Rectangle_28191" data-name="Rectangle 28191" width="176.975" height="109.599" transform="translate(0.121 148.554)" fill="#fafafa"/>
      <path id="Path_51985" data-name="Path 51985" d="M440.5,334.682v-29.7c0-19.009-.056-46.409-.1-79.9l.195.186-176.956.056h0l.241-.241v109.6l-.223-.223,127.392.111,36.5.056h.065l-36.44.056-127.54.111H263.4V224.73h.26l176.956.046h.186v.195c0,33.563-.074,60.981-.1,80.018,0,9.486,0,16.893-.046,21.923v5.718A11.023,11.023,0,0,1,440.5,334.682Z" transform="translate(-263.4 -76.528)" fill="#263238"/>
      <path id="Path_51986" data-name="Path 51986" d="M440.433,236.611c0,.139-39.54.241-88.306.241s-88.307-.1-88.307-.241,39.531-.241,88.307-.241S440.433,236.481,440.433,236.611Z" transform="translate(-263.43 -77.364)" fill="#263238"/>
      <path id="Path_51987" data-name="Path 51987" d="M273.444,231.307a1.448,1.448,0,1,1-.424-1.033,1.457,1.457,0,0,1,.424,1.033Z" transform="translate(-263.912 -76.896)" fill="#263238"/>
      <path id="Path_51988" data-name="Path 51988" d="M279.1,231.307a1.448,1.448,0,1,1-.421-1.03A1.448,1.448,0,0,1,279.1,231.307Z" transform="translate(-264.319 -76.896)" fill="#263238"/>
      <circle id="Ellipse_1043" data-name="Ellipse 1043" cx="1.448" cy="1.448" r="1.448" transform="translate(17.125 152.963)" fill="#263238"/>
      <path id="Path_51989" data-name="Path 51989" d="M283.919,257.687l-4.2,1.615,4.2,1.624v.984l-5.309-2.1v-.975l5.309-2.088Z" transform="translate(-264.493 -78.828)" fill="#263238"/>
      <path id="Path_51990" data-name="Path 51990" d="M288.7,253.23h1.03l-3.908,11.138h-1.03Z" transform="translate(-264.936 -78.575)" fill="#263238"/>
      <path id="Path_51991" data-name="Path 51991" d="M295.839,258.835v1.021l-5.309,2.1v-.984l4.214-1.624-4.214-1.615V256.7Z" transform="translate(-265.349 -78.825)" fill="#263238"/>
      <path id="Path_51992" data-name="Path 51992" d="M297.69,263.1a.789.789,0,0,1,.807-.8.77.77,0,0,1,.78.8.789.789,0,0,1-.78.817.807.807,0,0,1-.807-.817Z" transform="translate(-265.863 -79.227)" fill="#263238"/>
      <path id="Path_51993" data-name="Path 51993" d="M300.59,263.1a.78.78,0,0,1,.808-.8.77.77,0,0,1,.78.8.789.789,0,0,1-.78.817.8.8,0,0,1-.808-.817Z" transform="translate(-266.071 -79.227)" fill="#263238"/>
      <path id="Path_51994" data-name="Path 51994" d="M303.49,263.1a.78.78,0,0,1,.8-.8.77.77,0,0,1,.78.8.789.789,0,0,1-.78.817.8.8,0,0,1-.8-.817Z" transform="translate(-266.28 -79.227)" fill="#263238"/>
      <path id="Path_51995" data-name="Path 51995" d="M395.684,274.6c0,.13-26.165.241-58.475.241s-58.429-.111-58.429-.241,26.156-.251,58.429-.251S395.684,274.461,395.684,274.6Z" transform="translate(-264.505 -80.092)" fill="#009eff"/>
      <path id="Path_51996" data-name="Path 51996" d="M424.421,274.981a65.458,65.458,0,0,1-11.231,0A65.458,65.458,0,0,1,424.421,274.981Z" transform="translate(-274.159 -80.12)" fill="#263238"/>
      <path id="Path_51997" data-name="Path 51997" d="M442.05,274.981a78.114,78.114,0,0,1-12.27,0A78.106,78.106,0,0,1,442.05,274.981Z" transform="translate(-275.35 -80.12)" fill="#263238"/>
      <path id="Path_51998" data-name="Path 51998" d="M353.254,285.2c0,.139-16.633.241-37.127.241S279,285.341,279,285.2s16.624-.241,37.127-.241S353.254,285.071,353.254,285.2Z" transform="translate(-264.521 -80.854)" fill="#009eff"/>
      <path id="Path_51999" data-name="Path 51999" d="M352.674,324.781c0,.139-16.624.241-37.127.241s-37.127-.1-37.127-.241,16.624-.241,37.127-.241S352.674,324.651,352.674,324.781Z" transform="translate(-264.479 -83.697)" fill="#009eff"/>
      <path id="Path_52000" data-name="Path 52000" d="M386.506,285.2c0,.139-4.53.241-10.108.241s-10.108-.1-10.108-.241,4.529-.241,10.108-.241S386.506,285.071,386.506,285.2Z" transform="translate(-270.79 -80.854)" fill="#263238"/>
      <path id="Path_52001" data-name="Path 52001" d="M386.276,324.781c0,.139-4.52.241-10.108.241s-10.1-.1-10.1-.241,4.52-.241,10.1-.241S386.276,324.651,386.276,324.781Z" transform="translate(-270.774 -83.697)" fill="#263238"/>
      <path id="Path_52002" data-name="Path 52002" d="M283.842,290.6a13.133,13.133,0,0,1-5.012,0A13.134,13.134,0,0,1,283.842,290.6Z" transform="translate(-264.508 -81.242)" fill="#009eff"/>
      <path id="Path_52003" data-name="Path 52003" d="M302,290.712a60.056,60.056,0,0,1-10.86.009,61.518,61.518,0,0,1,10.887,0Z" transform="translate(-265.393 -81.251)" fill="#263238"/>
      <path id="Path_52004" data-name="Path 52004" d="M314.028,290.711a45.194,45.194,0,0,1-9.328,0,45.19,45.19,0,0,1,9.328,0Z" transform="translate(-266.366 -81.25)" fill="#263238"/>
      <path id="Path_52005" data-name="Path 52005" d="M329.085,290.711a46.91,46.91,0,0,1-9.5,0A46.906,46.906,0,0,1,329.085,290.711Z" transform="translate(-267.435 -81.25)" fill="#263238"/>
      <path id="Path_52006" data-name="Path 52006" d="M342.332,290.711a38.715,38.715,0,0,1-8.632,0A38.715,38.715,0,0,1,342.332,290.711Z" transform="translate(-268.449 -81.25)" fill="#263238"/>
      <path id="Path_52007" data-name="Path 52007" d="M383.829,290.711c0,.139-8.511.241-19,.241s-19.009-.1-19.009-.241,8.511-.241,19.009-.241S383.829,290.581,383.829,290.711Z" transform="translate(-269.32 -81.25)" fill="#263238"/>
      <path id="Path_52008" data-name="Path 52008" d="M283.146,297.491a9.773,9.773,0,0,1-4.316,0A9.421,9.421,0,0,1,283.146,297.491Z" transform="translate(-264.508 -81.736)" fill="#009eff"/>
      <path id="Path_52009" data-name="Path 52009" d="M283.322,304.561a10.572,10.572,0,0,1-4.492,0,10.572,10.572,0,0,1,4.492,0Z" transform="translate(-264.508 -82.245)" fill="#009eff"/>
      <path id="Path_52010" data-name="Path 52010" d="M283.322,312.561a10.572,10.572,0,0,1-4.492,0A10.572,10.572,0,0,1,283.322,312.561Z" transform="translate(-264.508 -82.82)" fill="#009eff"/>
      <path id="Path_52011" data-name="Path 52011" d="M325.181,312.191c0,.13-7.5.241-16.707.241s-16.754-.111-16.754-.241,7.5-.241,16.754-.241S325.181,312.052,325.181,312.191Z" transform="translate(-265.434 -82.793)" fill="#263238"/>
      <path id="Path_52012" data-name="Path 52012" d="M322.137,304.561c0,.13-7.156.241-15.974.241s-15.983-.111-15.983-.241,7.156-.241,15.983-.241S322.137,304.422,322.137,304.561Z" transform="translate(-265.324 -82.245)" fill="#263238"/>
      <path id="Path_52013" data-name="Path 52013" d="M399.369,297.111c0,.139-24.355.241-54.4.241s-54.419-.1-54.419-.241,24.355-.241,54.419-.241S399.369,296.991,399.369,297.111Z" transform="translate(-265.35 -81.71)" fill="#263238"/>
      <rect id="Rectangle_28192" data-name="Rectangle 28192" width="74.57" height="128.088" transform="translate(21.422 0.418)" fill="#fafafa"/>
      <path id="Path_52014" data-name="Path 52014" d="M361.038,193.566v-9.542c0-6.154,0-15.129-.056-26.453,0-22.629-.065-54.614-.111-92.131l.223.223h-74.56l.241-.241c0,48.868,0,93.69-.046,128.088l-.195-.186,54.391.1,14.925.046H341.073l-54.512.1h-.186v-.186c0-34.4,0-79.22-.056-128.088V65.06h75.034v.223c-.046,37.572-.084,69.613-.111,92.279,0,11.305-.046,20.262-.056,26.407v8.8A2.556,2.556,0,0,1,361.038,193.566Z" transform="translate(-265.046 -65.06)" fill="#263238"/>
      <circle id="Ellipse_1044" data-name="Ellipse 1044" cx="1.513" cy="1.513" r="1.513" transform="translate(25.172 4.548)" fill="#263238"/>
      <circle id="Ellipse_1045" data-name="Ellipse 1045" cx="1.513" cy="1.513" r="1.513" transform="translate(30.639 4.548)" fill="#263238"/>
      <path id="Path_52015" data-name="Path 52015" d="M305.326,71.476A1.513,1.513,0,1,1,303.813,70a1.513,1.513,0,0,1,1.513,1.476Z" transform="translate(-266.194 -65.415)" fill="#263238"/>
      <path id="Path_52016" data-name="Path 52016" d="M341.473,109.2c0,.139-9.458.241-21.116.241s-21.107-.1-21.107-.241,9.449-.2,21.116-.2S341.473,109.074,341.473,109.2Z" transform="translate(-265.975 -68.216)" fill="#009eff"/>
      <path id="Path_52017" data-name="Path 52017" d="M350.244,120.251c0,.139-11.5.241-25.692.241s-25.692-.1-25.692-.241,11.5-.241,25.692-.241S350.244,120.121,350.244,120.251Z" transform="translate(-265.947 -69.007)" fill="#009eff"/>
      <path id="Path_52018" data-name="Path 52018" d="M352.24,161.481c0,.139-12.27.241-27.4.241s-27.39-.1-27.39-.241,12.261-.241,27.39-.241S352.24,161.351,352.24,161.481Z" transform="translate(-265.846 -71.968)" fill="#009eff"/>
      <path id="Path_52019" data-name="Path 52019" d="M303.106,125.871a14.21,14.21,0,0,1-5.216,0,14.21,14.21,0,0,1,5.216,0Z" transform="translate(-265.877 -69.41)" fill="#009eff"/>
      <path id="Path_52020" data-name="Path 52020" d="M322.023,125.981a66.652,66.652,0,0,1-11.333,0A66.653,66.653,0,0,1,322.023,125.981Z" transform="translate(-266.797 -69.418)" fill="#009eff"/>
      <path id="Path_52021" data-name="Path 52021" d="M334.549,125.981a48.942,48.942,0,0,1-9.709,0A48.941,48.941,0,0,1,334.549,125.981Z" transform="translate(-267.813 -69.418)" fill="#009eff"/>
      <path id="Path_52022" data-name="Path 52022" d="M302.392,133.051a10.618,10.618,0,0,1-4.5,0,10.618,10.618,0,0,1,4.5,0Z" transform="translate(-265.877 -69.926)" fill="#009eff"/>
      <path id="Path_52023" data-name="Path 52023" d="M302.571,140.412a11.454,11.454,0,0,1-4.641,0,11.454,11.454,0,0,1,4.641,0Z" transform="translate(-265.88 -70.455)" fill="#009eff"/>
      <path id="Path_52024" data-name="Path 52024" d="M302.571,148.752a11.454,11.454,0,0,1-4.641,0,11.454,11.454,0,0,1,4.641,0Z" transform="translate(-265.88 -71.054)" fill="#009eff"/>
      <path id="Path_52025" data-name="Path 52025" d="M346.169,148.361c0,.13-7.815.241-17.45.241s-17.45-.111-17.45-.241,7.806-.241,17.45-.241S346.169,148.231,346.169,148.361Z" transform="translate(-266.838 -71.026)" fill="#009eff"/>
      <path id="Path_52026" data-name="Path 52026" d="M343,140.411c0,.139-7.425.241-16.642.241s-16.642-.1-16.642-.241,7.425-.241,16.642-.241S343,140.281,343,140.411Z" transform="translate(-266.727 -70.455)" fill="#009eff"/>
      <path id="Path_52027" data-name="Path 52027" d="M306.241,172.492a11.454,11.454,0,0,1-4.641,0A11.454,11.454,0,0,1,306.241,172.492Z" transform="translate(-266.144 -72.759)" fill="#009eff"/>
      <path id="Path_52028" data-name="Path 52028" d="M306.241,180.822a11.454,11.454,0,0,1-4.641,0A11.454,11.454,0,0,1,306.241,180.822Z" transform="translate(-266.144 -73.358)" fill="#009eff"/>
      <path id="Path_52029" data-name="Path 52029" d="M349.839,180.441c0,.13-7.815.241-17.45.241s-17.45-.111-17.45-.241,7.806-.241,17.45-.241S349.839,180.3,349.839,180.441Z" transform="translate(-267.102 -73.33)" fill="#009eff"/>
      <path id="Path_52030" data-name="Path 52030" d="M346.674,172.491c0,.13-7.425.241-16.642.241s-16.642-.111-16.642-.241,7.425-.241,16.642-.241S346.674,172.361,346.674,172.491Z" transform="translate(-266.991 -72.759)" fill="#009eff"/>
      <path id="Path_52031" data-name="Path 52031" d="M355.4,132.661c0,.13-10.145.241-22.647.241s-22.657-.111-22.657-.241,10.145-.241,22.657-.241S355.4,132.531,355.4,132.661Z" transform="translate(-266.754 -69.898)" fill="#009eff"/>
      <path id="Path_52032" data-name="Path 52032" d="M360.4,77.981c0,.139-16.373.241-36.561.241s-36.57-.1-36.57-.241,16.373-.241,36.57-.241S360.4,77.814,360.4,77.981Z" transform="translate(-265.115 -65.971)" fill="#263238"/>
      <path id="Path_52033" data-name="Path 52033" d="M314.665,102.539a62.708,62.708,0,0,1-7.722.241,62.837,62.837,0,0,1-7.722-.241,62.839,62.839,0,0,1,7.722-.241A62.709,62.709,0,0,1,314.665,102.539Z" transform="translate(-265.973 -67.733)" fill="#009eff"/>
      <path id="Path_52034" data-name="Path 52034" d="M305.877,87.471a27.549,27.549,0,0,1-7.277,0,27.548,27.548,0,0,1,7.277,0Z" transform="translate(-265.928 -66.652)" fill="#009eff"/>
    </g>
    <g id="freepik--Device--inject-28" transform="translate(147.594 343.5)">
      <path id="Path_52035" data-name="Path 52035" d="M339.584,461.54H210.15l16.707-90.831a6.785,6.785,0,0,1,6.674-5.569h116.3a6.785,6.785,0,0,1,6.664,8.066Z" transform="translate(-161.059 -365.054)" fill="#7eceff"/>
      <path id="Path_52036" data-name="Path 52036" d="M206.351,468.5H157.26l.2-.148a26.462,26.462,0,0,1,15.139-5.291l35.1-1.058Z" transform="translate(-157.26 -372.011)" fill="#126598"/>
      <path id="Path_52037" data-name="Path 52037" d="M241.6,365.217a7.153,7.153,0,0,0-1.049-.074,6.5,6.5,0,0,0-2.877.715,8.771,8.771,0,0,0-3.444,3.137,16.707,16.707,0,0,0-2.116,5.875c-.427,2.293-.8,4.845-1.253,7.565s-.928,5.634-1.541,8.678c-1.123,6.107-2.46,12.8-3.917,19.816-2.924,14.025-5.625,26.713-7.425,35.93-.928,4.641-1.578,8.354-2.042,10.925-.232,1.262-.408,2.265-.538,2.979l-.158.77a1.385,1.385,0,0,1-.065.26,1.178,1.178,0,0,1,0-.269c0-.2.065-.464.1-.78l.455-2.989c.408-2.6,1.049-6.339,1.856-10.962,1.68-9.235,4.335-21.942,7.258-35.967,1.457-7.008,2.785-13.7,3.954-19.8.585-3.044,1.1-5.95,1.578-8.66s.863-5.253,1.318-7.574a16.707,16.707,0,0,1,2.218-5.95,8.966,8.966,0,0,1,3.592-3.156,6.311,6.311,0,0,1,2.961-.64A3.946,3.946,0,0,1,241.6,365.217Z" transform="translate(-161.42 -365.047)" fill="#52aae1"/>
      <path id="Path_52038" data-name="Path 52038" d="M301.57,414.336a6.265,6.265,0,1,1-6.256-6.256,6.265,6.265,0,0,1,6.256,6.256Z" transform="translate(-166.725 -368.138)" fill="#f5f5f5"/>
    </g>
    <g id="freepik--Desk--inject-28" transform="translate(22.68 439.745)">
      <path id="Path_52039" data-name="Path 52039" d="M444.665,468.981c0,.139-94.47.241-210.983.241s-211-.148-211-.241,94.451-.241,211-.241S444.665,468.8,444.665,468.981Z" transform="translate(-22.68 -468.74)" fill="#263238"/>
    </g>
    <g id="freepik--Plant--inject-28" transform="translate(331.242 335.706)">
      <path id="Path_52040" data-name="Path 52040" d="M463.141,396.112a.432.432,0,0,0-.084-.2l-.306-.566c-.288-.5-.724-1.216-1.346-2.1a22.527,22.527,0,0,0-6.627-6.265,16.271,16.271,0,0,0-5.95-2.19,14.758,14.758,0,0,0-7.23.761,11.76,11.76,0,0,0-6.182,4.994c-1.42,2.487-1.856,5.4-2.71,8.177a14.924,14.924,0,0,1-1.726,3.9,11.751,11.751,0,0,1-2.933,2.9c-1.114.817-2.265,1.55-3.314,2.413a14,14,0,0,0-2.692,2.914,17.876,17.876,0,0,0-2.785,6.729,24.078,24.078,0,0,0-.362,6.321,47.772,47.772,0,0,0,1.615,8.994c.269,1.049.5,1.856.659,2.395a5.664,5.664,0,0,0,.278.826,7.571,7.571,0,0,0-.176-.854c-.139-.594-.334-1.392-.575-2.413a52.309,52.309,0,0,1-1.448-8.966,23.8,23.8,0,0,1,.418-6.219,17.691,17.691,0,0,1,2.729-6.553,13.56,13.56,0,0,1,2.617-2.785c1.021-.835,2.172-1.559,3.295-2.385a12.391,12.391,0,0,0,3.063-3.007,15.781,15.781,0,0,0,1.819-4.028c.835-2.831,1.3-5.7,2.655-8.075a11.24,11.24,0,0,1,5.922-4.873,14.285,14.285,0,0,1,7-.78,15.982,15.982,0,0,1,5.829,2.079,23.112,23.112,0,0,1,6.655,6.07c.64.863,1.1,1.559,1.411,2.033A7.425,7.425,0,0,0,463.141,396.112Z" transform="translate(-359.696 -358.66)" fill="#e0e0e0"/>
      <path id="Path_52041" data-name="Path 52041" d="M427.294,407.972c.761-.705,1.132-.214,2.163,0a6.321,6.321,0,0,1,2.785,1.392,11.714,11.714,0,0,1,3.8,12.3,9.152,9.152,0,0,1-8.354-13.737" transform="translate(-360.243 -360.31)" fill="#e0e0e0"/>
      <path id="Path_52042" data-name="Path 52042" d="M461.28,392.425c.39-.975.928-.687,1.949-.928a6.3,6.3,0,0,1,3.109.056,11.7,11.7,0,0,1,8.716,9.467,9.152,9.152,0,0,1-13.5-8.79" transform="translate(-362.745 -359.141)" fill="#e0e0e0"/>
      <path id="Path_52043" data-name="Path 52043" d="M419.828,428.568a10.563,10.563,0,0,1,16.605.808,13.05,13.05,0,0,1-8.613,3.4,13.338,13.338,0,0,1-8.669-3.509" transform="translate(-359.719 -361.553)" fill="#e0e0e0"/>
      <path id="Path_52044" data-name="Path 52044" d="M421.816,412.234a10.693,10.693,0,0,1-10.832-12.762,9.6,9.6,0,0,1,11.138,12.66" transform="translate(-359.118 -359.709)" fill="#e0e0e0"/>
      <path id="Path_52045" data-name="Path 52045" d="M433.493,394.131a10.693,10.693,0,0,1-14.433-8.456,9.607,9.607,0,0,1,14.73,8.233" transform="translate(-359.712 -358.628)" fill="#e0e0e0"/>
      <path id="Path_52046" data-name="Path 52046" d="M438.587,388.855A10.7,10.7,0,0,1,453.02,397.3a9.6,9.6,0,0,1-14.73-8.233" transform="translate(-361.094 -358.912)" fill="#e0e0e0"/>
      <path id="Path_52047" data-name="Path 52047" d="M442.817,384.463a10.693,10.693,0,0,1-5.69-15.723,9.607,9.607,0,0,1,6.061,15.779" transform="translate(-360.897 -357.518)" fill="#e0e0e0"/>
      <path id="Path_52048" data-name="Path 52048" d="M455.56,385.166a10.7,10.7,0,0,1,8.716-14.266,9.6,9.6,0,0,1-8.521,14.563" transform="translate(-362.288 -357.674)" fill="#e0e0e0"/>
      <path id="Path_52049" data-name="Path 52049" d="M405.852,465.983,399.81,428.03l46.334.566-4.567,36.886" transform="translate(-358.33 -361.777)" fill="#3e5780"/>
      <path id="Path_52050" data-name="Path 52050" d="M427.792,420.013a7.9,7.9,0,0,0,7.695.65,8.354,8.354,0,0,0,4.2-6.646,8.892,8.892,0,0,0-12.781,5.318" transform="translate(-360.276 -360.693)" fill="#009eff"/>
      <path id="Path_52051" data-name="Path 52051" d="M450.612,428.822a7.927,7.927,0,0,0,7.695.65,8.354,8.354,0,0,0,4.2-6.646,8.883,8.883,0,0,0-12.781,5.318" transform="translate(-361.915 -361.325)" fill="#009eff"/>
      <path id="Path_52052" data-name="Path 52052" d="M437.841,409.457a7.88,7.88,0,0,0,6.07,4.771,8.3,8.3,0,0,0,7.165-3.239,9.44,9.44,0,0,0-6.191-4.548,9.328,9.328,0,0,0-7.425,1.968" transform="translate(-361.034 -360.217)" fill="#009eff"/>
      <path id="Path_52053" data-name="Path 52053" d="M445.583,419.889a7.9,7.9,0,0,0-6.915,3.425,8.354,8.354,0,0,0-.158,7.862,8.892,8.892,0,0,0,8.187-11.138" transform="translate(-361.044 -361.191)" fill="#009eff"/>
      <path id="Path_52054" data-name="Path 52054" d="M454.169,435.967a7.927,7.927,0,0,0,.186,7.722,8.354,8.354,0,0,0,7.063,3.462,9.458,9.458,0,0,0-.436-7.676c-1.216-2.209-3.416-3.3-6.163-3.935" transform="translate(-362.169 -362.316)" fill="#009eff"/>
      <path id="Path_52055" data-name="Path 52055" d="M465.313,434.847a5.568,5.568,0,0,0-1.856-1.169,7.807,7.807,0,0,0-2.515-.436,29.381,29.381,0,0,0-3.416.195,10,10,0,0,1-4.214-.362,6.423,6.423,0,0,1-3.471-3.36,19.167,19.167,0,0,1-1.5-5.124,14.518,14.518,0,0,0-1.782-5.254,18.564,18.564,0,0,0-3.917-3.991,18.646,18.646,0,0,1-3.713-3.806,12.54,12.54,0,0,1-1.856-8.716,12.187,12.187,0,0,1,2.274-5.569,8.776,8.776,0,0,1,1.114-1.225c.269-.26.427-.39.436-.371a3.16,3.16,0,0,1-.371.446,12.283,12.283,0,0,0-1.021,1.262,12.41,12.41,0,0,0-2.079,5.569,12.28,12.28,0,0,0,1.856,8.409,18.751,18.751,0,0,0,3.713,3.713,18.917,18.917,0,0,1,4.028,4.084,15.121,15.121,0,0,1,1.856,5.439,19.324,19.324,0,0,0,1.429,5.012,6.024,6.024,0,0,0,3.211,3.174,9.71,9.71,0,0,0,4.038.4,28.515,28.515,0,0,1,3.453-.13,7.927,7.927,0,0,1,2.58.538,4.474,4.474,0,0,1,1.392.928,2.526,2.526,0,0,1,.288.316C465.294,434.8,465.322,434.838,465.313,434.847Z" transform="translate(-360.995 -359.452)" fill="#009eff"/>
      <path id="Path_52056" data-name="Path 52056" d="M465.313,434.847a5.568,5.568,0,0,0-1.856-1.169,7.807,7.807,0,0,0-2.515-.436,29.381,29.381,0,0,0-3.416.195,10,10,0,0,1-4.214-.362,6.423,6.423,0,0,1-3.471-3.36,19.167,19.167,0,0,1-1.5-5.124,14.518,14.518,0,0,0-1.782-5.254,18.564,18.564,0,0,0-3.917-3.991,18.646,18.646,0,0,1-3.713-3.806,12.54,12.54,0,0,1-1.856-8.716,12.187,12.187,0,0,1,2.274-5.569,8.776,8.776,0,0,1,1.114-1.225c.269-.26.427-.39.436-.371a3.16,3.16,0,0,1-.371.446,12.283,12.283,0,0,0-1.021,1.262,12.41,12.41,0,0,0-2.079,5.569,12.28,12.28,0,0,0,1.856,8.409,18.751,18.751,0,0,0,3.713,3.713,18.917,18.917,0,0,1,4.028,4.084,15.121,15.121,0,0,1,1.856,5.439,19.324,19.324,0,0,0,1.429,5.012,6.024,6.024,0,0,0,3.211,3.174,9.71,9.71,0,0,0,4.038.4,28.515,28.515,0,0,1,3.453-.13,7.927,7.927,0,0,1,2.58.538,4.474,4.474,0,0,1,1.392.928,2.526,2.526,0,0,1,.288.316C465.294,434.8,465.322,434.838,465.313,434.847Z" transform="translate(-360.995 -359.452)" fill="#009eff"/>
      <path id="Path_52057" data-name="Path 52057" d="M370.983,441.117a11.714,11.714,0,0,0-15.863-11.546,19.557,19.557,0,0,0,15.454,11.4" transform="translate(-355.12 -361.833)" fill="#009eff"/>
      <path id="Path_52058" data-name="Path 52058" d="M368.788,443.74c-2.265,2.487-2.126,6.5-.5,9.44s4.409,5.049,7.2,6.915a15.231,15.231,0,0,0-6.553-17.264" transform="translate(-355.979 -362.84)" fill="#009eff"/>
      <path id="Path_52059" data-name="Path 52059" d="M380.729,431.226a13.533,13.533,0,0,0,15.38,12.066c-.882-3.648-2.348-7.314-5.161-9.783s-7.249-3.4-10.358-1.318" transform="translate(-356.949 -361.993)" fill="#009eff"/>
      <path id="Path_52060" data-name="Path 52060" d="M379.39,426.76c-.575-3.314-3.843-5.718-7.193-6.033s-6.655,1.123-9.347,3.146a12.141,12.141,0,0,0,16.568,1.634" transform="translate(-355.675 -361.249)" fill="#009eff"/>
      <path id="Path_52061" data-name="Path 52061" d="M361.817,457.534c-3.184,2.72-3.982,7.555-2.655,11.528s4.418,7.138,7.9,9.458c1.337-3.935,2.172-8.159,1.466-12.252s-3.174-8.047-6.98-9.718" transform="translate(-355.366 -363.825)" fill="#009eff"/>
      <path id="Path_52062" data-name="Path 52062" d="M380.11,416.878a9.783,9.783,0,0,1,15.482-.928,8.446,8.446,0,0,1-15.241.4" transform="translate(-356.915 -360.667)" fill="#009eff"/>
      <path id="Path_52063" data-name="Path 52063" d="M383.056,406.125a12.707,12.707,0,0,1-16.206-9.941,29.368,29.368,0,0,1,7.657.111,12.549,12.549,0,0,1,6.776,3.341,6.738,6.738,0,0,1,1.773,6.5" transform="translate(-355.963 -359.475)" fill="#009eff"/>
      <path id="Path_52064" data-name="Path 52064" d="M391.935,403.009a10.4,10.4,0,0,1-.065-16.039,21.663,21.663,0,0,1,4.539,9.69,8.14,8.14,0,0,1,0,4.01,3.713,3.713,0,0,1-2.785,2.627" transform="translate(-357.49 -358.828)" fill="#009eff"/>
      <g id="Group_69995" data-name="Group 69995" transform="translate(0 66.973)" opacity="0.4">
        <path id="Path_52065" data-name="Path 52065" d="M370.983,441.117a11.714,11.714,0,0,0-15.863-11.546,19.557,19.557,0,0,0,15.454,11.4" transform="translate(-355.12 -428.806)"/>
      </g>
      <g id="Group_69996" data-name="Group 69996" transform="translate(11.097 79.99)" opacity="0.4">
        <path id="Path_52066" data-name="Path 52066" d="M368.788,443.74c-2.265,2.487-2.126,6.5-.5,9.44s4.409,5.049,7.2,6.915a15.231,15.231,0,0,0-6.553-17.264" transform="translate(-367.075 -442.83)"/>
      </g>
      <g id="Group_69997" data-name="Group 69997" transform="translate(23.641 69.05)" opacity="0.4">
        <path id="Path_52067" data-name="Path 52067" d="M380.729,431.226a13.533,13.533,0,0,0,15.38,12.066c-.882-3.648-2.348-7.314-5.161-9.783s-7.249-3.4-10.358-1.318" transform="translate(-380.59 -431.043)"/>
      </g>
      <g id="Group_69998" data-name="Group 69998" transform="translate(7.175 59.434)" opacity="0.4">
        <path id="Path_52068" data-name="Path 52068" d="M379.39,426.76c-.575-3.314-3.843-5.718-7.193-6.033s-6.655,1.123-9.347,3.146a12.141,12.141,0,0,0,16.568,1.634" transform="translate(-362.85 -420.683)"/>
      </g>
      <g id="Group_69999" data-name="Group 69999" transform="translate(3.182 92.725)" opacity="0.4">
        <path id="Path_52069" data-name="Path 52069" d="M361.817,457.534c-3.184,2.72-3.982,7.555-2.655,11.528s4.418,7.138,7.9,9.458c1.337-3.935,2.172-8.159,1.466-12.252s-3.174-8.047-6.98-9.718" transform="translate(-358.549 -456.55)"/>
      </g>
      <g id="Group_70000" data-name="Group 70000" transform="translate(23.195 51.916)" opacity="0.4">
        <path id="Path_52070" data-name="Path 52070" d="M380.11,416.878a9.783,9.783,0,0,1,15.482-.928,8.446,8.446,0,0,1-15.241.4" transform="translate(-380.11 -412.584)"/>
      </g>
      <g id="Group_70001" data-name="Group 70001" transform="translate(10.888 36.511)" opacity="0.4">
        <path id="Path_52071" data-name="Path 52071" d="M383.056,406.125a12.707,12.707,0,0,1-16.206-9.941,29.368,29.368,0,0,1,7.657.111,12.549,12.549,0,0,1,6.776,3.341,6.738,6.738,0,0,1,1.773,6.5" transform="translate(-366.85 -395.987)"/>
      </g>
      <g id="Group_70002" data-name="Group 70002" transform="translate(30.631 28.142)" opacity="0.4">
        <path id="Path_52072" data-name="Path 52072" d="M391.935,403.009a10.4,10.4,0,0,1-.065-16.039,21.663,21.663,0,0,1,4.539,9.69,8.14,8.14,0,0,1,0,4.01,3.713,3.713,0,0,1-2.785,2.627" transform="translate(-388.122 -386.97)"/>
      </g>
      <path id="Path_52073" data-name="Path 52073" d="M402.723,427.513a1.019,1.019,0,0,1,0-.269,4.906,4.906,0,0,1,.046-.761c0-.668.111-1.661.13-2.933a26.286,26.286,0,0,0-1.717-10.526,16.2,16.2,0,0,0-4.242-5.959,11.249,11.249,0,0,0-7.7-2.831,9.643,9.643,0,0,0-4.344,1.086,8.687,8.687,0,0,0-3.36,3.2c-1.68,2.785-2.1,6.256-1.949,9.681s.613,6.868.232,10.21a15.612,15.612,0,0,1-1.272,4.724,9.886,9.886,0,0,1-2.85,3.713,14.339,14.339,0,0,1-3.963,2.033,20.367,20.367,0,0,0-3.713,1.7,13.589,13.589,0,0,0-4.91,5.356,13,13,0,0,0-1.42,5.857,13.811,13.811,0,0,0,.743,4.529,16.965,16.965,0,0,0,1.754,3.518,2.382,2.382,0,0,1-.167-.195,7.278,7.278,0,0,1-.446-.622,12.373,12.373,0,0,1-1.327-2.636,13.635,13.635,0,0,1-.835-4.594,13.134,13.134,0,0,1,1.383-6.015,13.737,13.737,0,0,1,5.012-5.569c2.293-1.531,5.309-1.9,7.639-3.713s3.564-4.966,3.917-8.149-.111-6.618-.241-10.117.269-7.054,2.033-9.95a9.068,9.068,0,0,1,3.555-3.379,9.987,9.987,0,0,1,4.557-1.123,11.713,11.713,0,0,1,7.964,2.989,16.4,16.4,0,0,1,4.288,6.135,21.971,21.971,0,0,1,1.457,6.015,33.131,33.131,0,0,1,.13,4.641c-.056,1.281-.149,2.265-.223,2.933a4.86,4.86,0,0,1-.093.761A1.1,1.1,0,0,1,402.723,427.513Z" transform="translate(-355.572 -360.035)" fill="#009eff"/>
      <g id="Group_70003" data-name="Group 70003" transform="translate(5.837 43.744)" opacity="0.4">
        <path id="Path_52074" data-name="Path 52074" d="M402.723,427.513a1.019,1.019,0,0,1,0-.269,4.906,4.906,0,0,1,.046-.761c0-.668.111-1.661.13-2.933a26.286,26.286,0,0,0-1.717-10.526,16.2,16.2,0,0,0-4.242-5.959,11.249,11.249,0,0,0-7.7-2.831,9.643,9.643,0,0,0-4.344,1.086,8.687,8.687,0,0,0-3.36,3.2c-1.68,2.785-2.1,6.256-1.949,9.681s.613,6.868.232,10.21a15.612,15.612,0,0,1-1.272,4.724,9.886,9.886,0,0,1-2.85,3.713,14.339,14.339,0,0,1-3.963,2.033,20.367,20.367,0,0,0-3.713,1.7,13.589,13.589,0,0,0-4.91,5.356,13,13,0,0,0-1.42,5.857,13.811,13.811,0,0,0,.743,4.529,16.965,16.965,0,0,0,1.754,3.518,2.382,2.382,0,0,1-.167-.195,7.278,7.278,0,0,1-.446-.622,12.373,12.373,0,0,1-1.327-2.636,13.635,13.635,0,0,1-.835-4.594,13.134,13.134,0,0,1,1.383-6.015,13.737,13.737,0,0,1,5.012-5.569c2.293-1.531,5.309-1.9,7.639-3.713s3.564-4.966,3.917-8.149-.111-6.618-.241-10.117.269-7.054,2.033-9.95a9.068,9.068,0,0,1,3.555-3.379,9.987,9.987,0,0,1,4.557-1.123,11.713,11.713,0,0,1,7.964,2.989,16.4,16.4,0,0,1,4.288,6.135,21.971,21.971,0,0,1,1.457,6.015,33.131,33.131,0,0,1,.13,4.641c-.056,1.281-.149,2.265-.223,2.933a4.86,4.86,0,0,1-.093.761A1.1,1.1,0,0,1,402.723,427.513Z" transform="translate(-361.409 -403.779)"/>
      </g>
      <path id="Path_52075" data-name="Path 52075" d="M474.829,418.631a9.959,9.959,0,0,0,.7-3.4,8.54,8.54,0,0,0-.928-3.917,8.177,8.177,0,0,0-3.787-3.648,8.353,8.353,0,0,0-2.97-.807,9.681,9.681,0,0,0-3.332.4c-2.274.594-4.52,1.856-7.2,2.413a8.4,8.4,0,0,1-4.177-.1,6.275,6.275,0,0,1-3.4-2.71c-1.624-2.515-2.079-5.662-4.028-7.973a7.982,7.982,0,0,0-3.666-2.395,10.21,10.21,0,0,0-4.279-.436,11,11,0,0,0-7.11,3.713,16.707,16.707,0,0,0-3.527,6.5,19.714,19.714,0,0,0-.789,6.5,71.3,71.3,0,0,0,1.2,9.467q.278,1.615.446,2.562a3.642,3.642,0,0,0,.1.668.871.871,0,0,1,0,.232.7.7,0,0,1-.074-.223l-.148-.659-.529-2.552A63.184,63.184,0,0,1,426,412.774a19.658,19.658,0,0,1,.743-6.6,17.041,17.041,0,0,1,3.583-6.729,12.994,12.994,0,0,1,3.249-2.6,11.138,11.138,0,0,1,8.641-.826,8.483,8.483,0,0,1,3.889,2.534c2.07,2.478,2.506,5.653,4.056,8.038a5.81,5.81,0,0,0,3.137,2.525,8,8,0,0,0,3.945.1c2.58-.492,4.845-1.764,7.175-2.367a9.932,9.932,0,0,1,3.471-.371,8.43,8.43,0,0,1,7.825,8.762,8.074,8.074,0,0,1-.5,2.562,3.711,3.711,0,0,1-.381.826Z" transform="translate(-360.208 -359.441)" fill="#009eff"/>
      <path id="Path_52076" data-name="Path 52076" d="M449.4,401.754a9.013,9.013,0,0,0,8.261.538,8.354,8.354,0,0,0,4.2-6.646,8.892,8.892,0,0,0-12.781,5.318" transform="translate(-361.869 -359.373)" fill="#009eff"/>
      <path id="Path_52077" data-name="Path 52077" d="M458.88,410.814a9,9,0,0,0,3.824,7.342,8.354,8.354,0,0,0,7.871.13,8.9,8.9,0,0,0-11.194-8.149" transform="translate(-362.573 -360.47)" fill="#009eff"/>
      <path id="Path_52078" data-name="Path 52078" d="M475.272,408.373a8.985,8.985,0,0,0,8.27-.343,8.354,8.354,0,0,0,3.518-7.082,8.9,8.9,0,0,0-12.15,6.646" transform="translate(-363.724 -359.784)" fill="#009eff"/>
      <path id="Path_52079" data-name="Path 52079" d="M435.37,395.553c-2.228-1.912-3.713-5.272-3.286-7.8a8.353,8.353,0,0,1,5.1-5.987,8.892,8.892,0,0,1-1.3,13.783" transform="translate(-360.643 -358.454)" fill="#009eff"/>
      <path id="Path_52080" data-name="Path 52080" d="M371.52,383.979a.406.406,0,0,1,.093-.2l.353-.6a22.135,22.135,0,0,1,1.346-2.1,22.407,22.407,0,0,1,6.627-6.265,16.206,16.206,0,0,1,5.95-2.19,14.851,14.851,0,0,1,7.221.761,11.75,11.75,0,0,1,6.144,5.151c1.42,2.478,1.856,5.393,2.71,8.168a14.4,14.4,0,0,0,1.726,3.908,11.714,11.714,0,0,0,2.933,2.887c1.1.817,2.265,1.55,3.314,2.413a13.924,13.924,0,0,1,2.682,2.914,17.876,17.876,0,0,1,2.784,6.729,23.707,23.707,0,0,1,.371,6.321,48.043,48.043,0,0,1-1.615,9c-.278,1.04-.51,1.856-.668,2.385a5.154,5.154,0,0,1-.269.826,5.64,5.64,0,0,1,.176-.845c.139-.594.325-1.4.566-2.423a51.267,51.267,0,0,0,1.457-8.966,23.827,23.827,0,0,0-.427-6.219,17.544,17.544,0,0,0-2.729-6.553,13.515,13.515,0,0,0-2.608-2.785c-1.021-.835-2.172-1.559-3.295-2.385A12.066,12.066,0,0,1,403.3,390.9a15.018,15.018,0,0,1-1.791-4.038c-.845-2.831-1.3-5.7-2.655-8.075a11.352,11.352,0,0,0-5.922-4.873,14.322,14.322,0,0,0-7.008-.78,16.1,16.1,0,0,0-5.829,2.079,23.065,23.065,0,0,0-6.646,6.07c-.65.863-1.114,1.559-1.42,2.033A4.7,4.7,0,0,1,371.52,383.979Z" transform="translate(-356.298 -357.786)" fill="#009eff"/>
      <path id="Path_52081" data-name="Path 52081" d="M410.027,395.832c-.77-.705-1.142-.213-2.172,0a6.581,6.581,0,0,0-2.785,1.392,11.732,11.732,0,0,0-3.8,12.3,9.143,9.143,0,0,0,8.4-13.737" transform="translate(-358.402 -359.438)" fill="#009eff"/>
      <path id="Path_52082" data-name="Path 52082" d="M375.753,380.335c-.39-.975-.928-.687-1.949-.928a6.3,6.3,0,0,0-3.109.056,11.732,11.732,0,0,0-8.725,9.467,9.143,9.143,0,0,0,13.5-8.79" transform="translate(-355.612 -358.272)" fill="#009eff"/>
      <path id="Path_52083" data-name="Path 52083" d="M416.926,416.478a10.563,10.563,0,0,0-16.6.807,13,13,0,0,0,8.6,3.4,13.319,13.319,0,0,0,8.669-3.509" transform="translate(-358.367 -360.685)" fill="#009eff"/>
      <path id="Path_52084" data-name="Path 52084" d="M415.355,400.152a10.7,10.7,0,0,0,10.8-12.772A9.607,9.607,0,0,0,414.956,400" transform="translate(-359.377 -358.839)" fill="#009eff"/>
      <path id="Path_52085" data-name="Path 52085" d="M403.463,382.041a10.7,10.7,0,0,0,14.4-8.456,9.616,9.616,0,0,0-14.739,8.233" transform="translate(-358.568 -357.76)" fill="#009eff"/>
      <path id="Path_52086" data-name="Path 52086" d="M398.363,376.765a10.7,10.7,0,0,0-14.433,8.446,9.6,9.6,0,0,0,14.73-8.233" transform="translate(-357.189 -358.044)" fill="#009eff"/>
      <path id="Path_52087" data-name="Path 52087" d="M394.5,372.373a10.693,10.693,0,0,0,5.7-15.723,9.607,9.607,0,0,0-6.07,15.779" transform="translate(-357.756 -356.65)" fill="#009eff"/>
      <path id="Path_52088" data-name="Path 52088" d="M381.7,373.076a10.693,10.693,0,0,0-8.734-14.266,9.607,9.607,0,0,0,8.53,14.563" transform="translate(-356.302 -356.805)" fill="#009eff"/>
      <path id="Path_52089" data-name="Path 52089" d="M399.17,464.18l3.546,4.4h43.606l2.97-4.4Z" transform="translate(-358.284 -364.373)" fill="#3e5780"/>
      <path id="Path_52090" data-name="Path 52090" d="M448.436,464.121c0,.139-10.711.251-23.928.251s-23.938-.111-23.938-.251,10.711-.251,23.938-.251S448.436,463.991,448.436,464.121Z" transform="translate(-358.384 -364.351)" fill="#455a64"/>
      <path id="Path_52091" data-name="Path 52091" d="M443.741,446.253a1.973,1.973,0,0,1-.269.353,10.411,10.411,0,0,1-.928.928,16.372,16.372,0,0,1-3.9,2.7,17.023,17.023,0,0,1-6.8,1.745,16.142,16.142,0,0,1-4.167-.343,24.706,24.706,0,0,1-4.242-1.411c-2.784-1.2-5.365-2.562-7.852-3.351a13.524,13.524,0,0,0-6.785-.65,8.725,8.725,0,0,0-4.167,1.931c-.826.724-1.142,1.262-1.188,1.234a1.9,1.9,0,0,1,.223-.4,7.259,7.259,0,0,1,.835-.984,8.679,8.679,0,0,1,4.223-2.135,13.6,13.6,0,0,1,7,.566c2.543.78,5.133,2.144,7.908,3.323a24.589,24.589,0,0,0,4.158,1.392,16.41,16.41,0,0,0,4.038.371,17.468,17.468,0,0,0,6.674-1.606A20.79,20.79,0,0,0,443.741,446.253Z" transform="translate(-358.591 -363.043)" fill="#c2e2f1"/>
      <path id="Path_52092" data-name="Path 52092" d="M444.145,442.61a1.617,1.617,0,0,1-.306.334,9.847,9.847,0,0,1-.928.872,18.017,18.017,0,0,1-4.038,2.506,18.87,18.87,0,0,1-6.859,1.634,17.969,17.969,0,0,1-4.177-.278,27,27,0,0,1-4.307-1.216c-2.877-1.049-5.569-2.246-8.047-2.952a15.937,15.937,0,0,0-6.841-.622,10.293,10.293,0,0,0-4.316,1.652c-.928.631-1.3,1.123-1.337,1.086s.074-.139.269-.362a7.429,7.429,0,0,1,.928-.882,9.913,9.913,0,0,1,4.372-1.856,16.029,16.029,0,0,1,7.026.529c2.571.7,5.235,1.856,8.084,2.924a29.13,29.13,0,0,0,4.233,1.207,18.61,18.61,0,0,0,4.065.306,19.242,19.242,0,0,0,6.729-1.5A23.956,23.956,0,0,0,444.145,442.61Z" transform="translate(-358.558 -362.806)" fill="#c2e2f1"/>
    </g>
  </g>
</svg>
