<svg xmlns="http://www.w3.org/2000/svg" width="46.584" height="54.177" viewBox="0 0 46.584 54.177">
  <g id="Group_58744" data-name="Group 58744" transform="translate(-7.207 -3.312)">
    <path id="Path_21" data-name="Path 21" d="M217.141,31.213q0-11.974,0-23.949c0-.942.129-.762.707-1.1.382-.221.776-.422,1.171-.622.361-.183.731-.346,1.093-.527a10.96,10.96,0,0,0,1.407-.745,1.1,1.1,0,0,1,.736-.123c.075,0,.145.115.228.156q.888.434,1.781.857c.359.17.724.327,1.084.494.388.18.774.364,1.16.548.426.2.851.409,1.277.612q1.1.527,2.211,1.051c.366.172.737.333,1.1.505.426.2.847.413,1.273.613.57.268,1.145.524,1.713.793.7.33,1.387.671,2.082,1,.534.255,1.072.5,1.606.755.595.282,1.187.569,1.783.848.373.174.754.331,1.126.507.406.192.8.4,1.21.594s.788.365,1.182.548c.523.243,1.049.481,1.568.731a.546.546,0,0,1,.29.561q-.008,7.167,0,14.333,0,8.8,0,17.606c0,.264-.022.5-.294.626-.2.094-.414.175-.618.269-.4.181-.788.368-1.182.551-.251.117-.5.229-.754.348-.432.205-.861.418-1.295.62-.38.177-.768.339-1.149.515-.6.279-1.2.567-1.809.845-.408.187-.823.359-1.23.548-.5.233-1,.478-1.5.713-.434.2-.873.4-1.308.6-.211.1-.419.2-.631.3-.484.219-.971.43-1.453.653-.57.264-1.135.54-1.7.8-.408.189-.823.361-1.23.551-.509.238-1.013.488-1.521.729-.23.109-.464.208-.695.316-.461.217-.918.44-1.38.653-.367.17-.74.326-1.108.493-.538.245-1.077.489-1.61.745a1.143,1.143,0,0,1-.364.172c-.33.047-.537-.166-.787-.291q-.812-.409-1.62-.824c-.514-.263-1.025-.529-1.539-.792-.207-.106-.412-.216-.625-.307a.556.556,0,0,1-.376-.532c0-.083,0-.166,0-.248q0-12.053,0-24.107m19.123-7.492c0-.173,0-.346,0-.519a21.3,21.3,0,0,0-.162-3.443,5.111,5.111,0,0,0-.669-1.748,5.025,5.025,0,0,0-1.292-1.391,4.574,4.574,0,0,0-2.6-1.008,2.316,2.316,0,0,0-1.627.46,3.01,3.01,0,0,0-.855,1.163,4.361,4.361,0,0,0-.4,1.831.452.452,0,0,0,.224.438,6.321,6.321,0,0,0,.6.291c.341.135.685.265,1.035.372.214.066.314-.022.371-.241s.125-.433.186-.649a1.2,1.2,0,0,1,.938-.764,1.6,1.6,0,0,1,1.608,1.272,12.359,12.359,0,0,1,.148,1.726c.013.255-.188.4-.446.382-.525-.027-1.052-.072-1.577-.057a3.6,3.6,0,0,0-1.44.32,3.129,3.129,0,0,0-1.6,1.94,7.129,7.129,0,0,0-.351,1.786,9.146,9.146,0,0,0,.385,3.429,3.8,3.8,0,0,0,.527.96,2.131,2.131,0,0,0,1.151.771,2.411,2.411,0,0,0,2.444-.454,8.9,8.9,0,0,0,.979-1.045c.145-.162.332-.175.424-.009.109.2.2.4.322.589a8.181,8.181,0,0,0,.48.706c.188.242.364.234.572,0,.39-.436.783-.87,1.169-1.309a.81.81,0,0,0,.071-.962,3.783,3.783,0,0,1-.609-1.951q0-1.444,0-2.889M231.35,36.216c.551-.058.983-.069,1.4-.154a13.867,13.867,0,0,0,2.513-.766,12.671,12.671,0,0,0,1.979-1.054,14.029,14.029,0,0,0,1.178-.862,5.558,5.558,0,0,0,.59-.577c.1-.107.142-.27.01-.356a.428.428,0,0,0-.348.024c-.357.172-.692.391-1.054.55-.623.274-1.252.536-1.891.769a10.18,10.18,0,0,1-2.579.6c-.419.037-.841.046-1.262.052a9.271,9.271,0,0,1-2.723-.314,6.15,6.15,0,0,1-.834-.273c-.558-.252-1.114-.513-1.652-.8a10.671,10.671,0,0,1-1.949-1.438c-.1-.09-.185-.327-.366-.186s-.009.321.076.433c.441.576.893,1.145,1.362,1.7a4.467,4.467,0,0,0,.769.749,16.517,16.517,0,0,0,1.621,1.039,5.4,5.4,0,0,0,1.283.53c.652.164,1.325.242,1.877.338M227.543,43.9q0,1.026,0,2.053c0,.421,0,.842,0,1.263,0,.31.031.343.317.264.361-.1.718-.216,1.076-.329q.418-.131.833-.27a.377.377,0,0,0,.28-.41c-.008-.233,0-.466,0-.7,0-.311-.065-.368-.364-.292-.239.06-.47.16-.711.21-.257.053-.348-.029-.357-.292-.01-.278,0-.556-.007-.834a.3.3,0,0,1,.223-.325c.258-.08.519-.15.776-.233.163-.053.348-.1.351-.323,0-.316,0-.632,0-.947,0-.136-.072-.193-.2-.172-.111.018-.22.045-.329.071a3.963,3.963,0,0,1-.437.106c-.273.033-.358-.041-.372-.316-.01-.2,0-.391,0-.586a.3.3,0,0,1,.238-.336c.276-.07.554-.133.832-.191s.365-.157.368-.446c0-.2,0-.391,0-.587,0-.4-.068-.463-.467-.383l-1.678.337c-.353.071-.357.072-.358.442q0,1.613,0,3.226m3.331-.539a4.972,4.972,0,0,0,.272,1.685,2.047,2.047,0,0,0,.333.6,1.118,1.118,0,0,0,1.352.3,5.428,5.428,0,0,0,.71-.331c.219-.133.5-.247.539-.538a4.2,4.2,0,0,0,0-.833c-.011-.173-.114-.2-.265-.1-.169.112-.338.223-.512.325a.753.753,0,0,1-1.023-.174,1.461,1.461,0,0,1-.248-.643,4.663,4.663,0,0,1,.164-2.292,1.133,1.133,0,0,1,.678-.782,1.088,1.088,0,0,1,.725,0c.285.1.361.054.435-.227.048-.181.11-.359.157-.541.1-.39.021-.518-.372-.607-.044-.01-.089-.017-.133-.023a2.051,2.051,0,0,0-1.9.751,4.016,4.016,0,0,0-.832,2.08,13,13,0,0,0-.082,1.349m4.145,1.774c.322-.1.587-.18.85-.266.619-.2,1.236-.412,1.857-.609a.421.421,0,0,0,.343-.437c0-.188,0-.376-.006-.564-.011-.211-.089-.267-.294-.2-.3.092-.594.205-.9.289a1.122,1.122,0,0,1-.335-.011.949.949,0,0,1,.048-.355c.28-.469.576-.929.876-1.386a3.247,3.247,0,0,0,.447-2.157,1.112,1.112,0,0,0-1.247-.9,2.4,2.4,0,0,0-1.614,1.123.3.3,0,0,0-.02.257c.134.226.3.436.456.665.133-.13.221-.221.316-.305a4.281,4.281,0,0,1,.46-.393.383.383,0,0,1,.569.113.61.61,0,0,1,.067.661c-.172.381-.355.759-.558,1.125-.392.707-.792,1.411-1.208,2.1a1.936,1.936,0,0,0-.11,1.248M239.6,34.4l.377-.651a4.615,4.615,0,0,0,.629-2.179c.017-.493-.014-.546-.554-.71a1.27,1.27,0,0,0-.2-.03,2.879,2.879,0,0,0-1.6.256.8.8,0,0,0-.536.56,8.079,8.079,0,0,0,.86-.089,2.17,2.17,0,0,1,1,.033c.3.077.386.182.387.49a.865.865,0,0,1-.015.2c-.124.524-.252,1.047-.379,1.57a.564.564,0,0,0,.032.549" transform="translate(-191.138 -0.832)" fill="#fff"/>
    <path id="Path_22" data-name="Path 22" d="M139.465,67.23q0,11.2,0,22.392a2.261,2.261,0,0,1-.011.315.389.389,0,0,1-.285.339c-.332.115-.656.255-.984.383a.679.679,0,0,1-.663-.054,6.968,6.968,0,0,0-.664-.326c-.328-.164-.653-.333-.98-.5-.4-.2-.8-.4-1.2-.608-.327-.168-.651-.34-.976-.512a.5.5,0,0,1-.3-.509c.007-.1,0-.211,0-.316q0-20.608,0-41.217c0-.12,0-.241,0-.361a.442.442,0,0,1,.244-.428c.5-.263,1.017-.514,1.524-.772.48-.245.958-.5,1.437-.741.246-.126.495-.247.742-.37a.982.982,0,0,0,.18-.091.607.607,0,0,1,.659-.055c.319.13.635.269.962.377a.414.414,0,0,1,.315.39c.009.1,0,.2,0,.293q0,11.185,0,22.369" transform="translate(-114.955 -36.844)" fill="#fff"/>
    <path id="Path_23" data-name="Path 23" d="M70.908,102.951q0,9.569,0,19.138c0,.4-.023.435-.387.584-.1.043-.207.089-.307.139-.512.256-.926-.024-1.352-.242-.252-.129-.507-.254-.759-.383-.612-.313-1.227-.62-1.831-.95a.6.6,0,0,1-.212-.318,1.022,1.022,0,0,1-.017-.336q0-17.625-.011-35.251a.815.815,0,0,1,.54-.847q.573-.258,1.134-.544c.519-.263,1.041-.524,1.547-.812a1.148,1.148,0,0,1,1.08.013c.042.017.077.055.119.062.431.078.461.379.46.743q-.01,9.5,0,19" transform="translate(-53.677 -72.568)" fill="#fff"/>
    <path id="Path_24" data-name="Path 24" d="M13,132.561v16.09c0,.654-.054.713-.685.873a1.042,1.042,0,0,1-.777-.125c-.524-.274-1.057-.533-1.583-.8a7.786,7.786,0,0,1-.762-.423.519.519,0,0,1-.153-.3,1.627,1.627,0,0,1-.01-.36q0-14.962-.009-29.924a.826.826,0,0,1,.6-.913,14.838,14.838,0,0,0,1.418-.728,5.573,5.573,0,0,1,.772-.363,1.2,1.2,0,0,1,1.094.261.343.343,0,0,1,.087.222,3.447,3.447,0,0,1,.012.406q0,8.045,0,16.09" transform="translate(-1.81 -102.164)" fill="#fff"/>
    <path id="Path_31" data-name="Path 31" d="M372.428,224.469c-.067.588-.1,1.184-.211,1.763a2.408,2.408,0,0,1-.819,1.506.943.943,0,0,1-1.5-.288,3.353,3.353,0,0,1-.273-2.464,5.283,5.283,0,0,1,.255-.759,1.224,1.224,0,0,1,.984-.73,6.664,6.664,0,0,1,1.19-.044c.219,0,.318.156.327.358s0,.435,0,.653l.043,0" transform="translate(-329.753 -200.334)" fill="#fff"/>
  </g>
</svg>
