<svg xmlns="http://www.w3.org/2000/svg" width="59.293" height="59.313" viewBox="0 0 59.293 59.313">
  <g id="Group_58743" data-name="Group 58743" transform="translate(-862.509 -479.172)">
    <path id="Union_1" data-name="Union 1" d="M28.165,58.313c-.087-.014-.174-.032-.261-.041-.99-.09-1.987-.138-2.971-.276A28.083,28.083,0,0,1,17.4,55.842a29.172,29.172,0,0,1-17.379-28,27.973,27.973,0,0,1,1.5-8.034A28.843,28.843,0,0,1,11.989,5.592,29.131,29.131,0,0,1,35.14.629,29.182,29.182,0,0,1,58.2,27.051c.028.378.059.755.089,1.132v1.944c-.016.11-.038.221-.043.332a27.342,27.342,0,0,1-.71,5.26,29.192,29.192,0,0,1-26.272,22.5l-1.159.091Zm-7.64-16.419a.578.578,0,0,0-.582.426,1.073,1.073,0,0,0,.032.563,21.472,21.472,0,0,0,1.78,3.854,12.862,12.862,0,0,0,3.121,3.687,6.809,6.809,0,0,0,4.317,1.53,6.42,6.42,0,0,0,3.326-1.036,10.207,10.207,0,0,0,2.722-2.547c.373-.493.7-1.018,1.04-1.538A.652.652,0,0,0,35.2,46.1c-.12.161-.221.335-.331.5a9.947,9.947,0,0,1-3.233,3.3,4.759,4.759,0,0,1-4.778.214A7.97,7.97,0,0,1,24.5,48.271a16.093,16.093,0,0,1-2.638-4.192c-.261-.57-.468-1.165-.7-1.749a.669.669,0,0,0-.619-.436ZM14.615,31.8a.6.6,0,0,0-.363.554.824.824,0,0,0,.311.654c.809.79,1.612,1.589,2.445,2.355a32.924,32.924,0,0,0,3.873,3,41.867,41.867,0,0,0,6.383,3.56,36.015,36.015,0,0,0,6.769,2.291,22.647,22.647,0,0,0,4.793.615A23.754,23.754,0,0,0,41.8,44.65,9.1,9.1,0,0,0,45.2,43.557a.3.3,0,0,1,.256.014,2.79,2.79,0,0,0,1.561.441A2.89,2.89,0,0,0,49.4,42.83a3,3,0,0,0-.264-3.845,2.965,2.965,0,0,0-5.044,1.876,3.345,3.345,0,0,0,.358,1.671c-.615.216-1.179.451-1.766.613a13.952,13.952,0,0,1-4.713.353,24.075,24.075,0,0,1-3.752-.576,34.193,34.193,0,0,1-6.88-2.4,40.792,40.792,0,0,1-6.4-3.722,37.252,37.252,0,0,1-4.9-4.154c-.238-.241-.46-.5-.7-.736a.586.586,0,0,0-.416-.177A.727.727,0,0,0,14.615,31.8ZM34.3,16.491A36.122,36.122,0,0,0,26.7,19.1a42.028,42.028,0,0,0-6.414,3.72,32.884,32.884,0,0,0-3.638,2.913c-.862.816-1.718,1.646-2.513,2.526a21.462,21.462,0,0,0-2.914,4.053,11.565,11.565,0,0,0-1.671,6.01.34.34,0,0,1-.128.248A2.957,2.957,0,0,0,11.256,44a2.964,2.964,0,0,0,2.693-2.541A2.909,2.909,0,0,0,11.1,38.134c-.249,0-.3-.057-.269-.3a1.249,1.249,0,0,0,.025-.142,9.469,9.469,0,0,1,1.066-3.89A21.77,21.77,0,0,1,16.1,28.092a26.855,26.855,0,0,1,2-1.864c.956-.8,1.924-1.593,2.945-2.305,1.128-.787,2.305-1.505,3.49-2.206a32.882,32.882,0,0,1,6.233-2.853c1.25-.423,2.539-.734,3.812-1.086a.673.673,0,0,0,.528-.819.633.633,0,0,0-.638-.487A.783.783,0,0,0,34.3,16.491Zm-2.487-5.5A9.032,9.032,0,0,1,33.7,12.639a16.041,16.041,0,0,1,2.65,4.341A28.081,28.081,0,0,1,37.9,21.789a37.725,37.725,0,0,1,.933,7.221,38.927,38.927,0,0,1-.167,5.283,34.978,34.978,0,0,1-.735,4.589c-.194.824-.438,1.637-.642,2.458a.6.6,0,0,0,.466.774.658.658,0,0,0,.795-.464,34.449,34.449,0,0,0,1.355-6.78c.143-1.488.194-2.983.287-4.476l-.112,0c0-.727.04-1.458-.009-2.183-.082-1.208-.191-2.416-.341-3.617A30.834,30.834,0,0,0,38.2,18.125a19.33,19.33,0,0,0-3.387-6.21,9.559,9.559,0,0,0-2.586-2.2.364.364,0,0,1-.24-.364,2.454,2.454,0,0,0-.109-.665,2.941,2.941,0,1,0-.328,2.371c.046-.077.084-.114.135-.114A.255.255,0,0,1,31.813,10.993Zm-4.905,19.4a2.139,2.139,0,1,0,2.163-2.124h0A2.092,2.092,0,0,0,26.908,30.394Zm12-13.82a.626.626,0,0,0,.6.638c.6.043,1.193.068,1.786.138a8.853,8.853,0,0,1,3.095.912A4.951,4.951,0,0,1,47.252,22.8a8.045,8.045,0,0,1-.5,2.8A14.326,14.326,0,0,1,45,29.041c-.513.75-1.087,1.459-1.635,2.184a.682.682,0,0,0,.038.938.665.665,0,0,0,.952-.088c.313-.357.616-.725.9-1.106A19.357,19.357,0,0,0,47.6,27.028a11.386,11.386,0,0,0,.989-4.134,16.214,16.214,0,0,0-.238-1.7,6.083,6.083,0,0,0-3.2-4.021,11.743,11.743,0,0,0-5.642-1.24h0A.61.61,0,0,0,38.912,16.573ZM17.843,15.92a12.75,12.75,0,0,0-4.018.8,6.948,6.948,0,0,0-2.775,1.891,6.038,6.038,0,0,0-1.488,4.236c0,.243-.021.487,0,.727A12.766,12.766,0,0,0,11.347,28.7a.606.606,0,0,0,.713.273.547.547,0,0,0,.464-.592,1.455,1.455,0,0,0-.137-.5c-.32-.7-.692-1.386-.972-2.107a7.5,7.5,0,0,1-.556-3.483A4.89,4.89,0,0,1,13.5,18.339a8.91,8.91,0,0,1,3.161-1.006,17.165,17.165,0,0,1,4.423,0c.561.064,1.118.167,1.68.216a.565.565,0,0,0,.636-.578.639.639,0,0,0-.544-.689,24.533,24.533,0,0,0-4.083-.384Q18.309,15.895,17.843,15.92ZM45.371,41.067a1.7,1.7,0,0,1,1.683-1.654,1.651,1.651,0,0,1-.04,3.3H47A1.753,1.753,0,0,1,45.371,41.067Zm-36-.009a1.7,1.7,0,0,1,1.665-1.645,1.649,1.649,0,0,1-.011,3.3A1.689,1.689,0,0,1,9.372,41.058ZM29.045,11.133A1.681,1.681,0,0,1,27.393,9.5a1.711,1.711,0,0,1,1.65-1.667A1.687,1.687,0,0,1,30.7,9.49a1.657,1.657,0,0,1-1.651,1.643Z" transform="translate(863.009 479.673)" fill="#fff" stroke="rgba(0,0,0,0)" stroke-miterlimit="10" stroke-width="1"/>
  </g>
</svg>
