<svg xmlns="http://www.w3.org/2000/svg" xmlns:xlink="http://www.w3.org/1999/xlink" width="68.565" height="68.565" viewBox="0 0 68.565 68.565">
  <defs>
    <linearGradient id="linear-gradient" x1="0.225" y1="0.092" x2="0.763" y2="0.939" gradientUnits="objectBoundingBox">
      <stop offset="0" stop-color="#006cf9"/>
      <stop offset="1" stop-color="#05aafd"/>
    </linearGradient>
  </defs>
  <path id="Union_5" data-name="Union 5" d="M26.8,68.565a2.449,2.449,0,0,1-2.449-2.449V61.978a30.088,30.088,0,0,1-9.5-5.388l-3.71,2.1A2.451,2.451,0,0,1,7.823,57.8L.338,45.078a2.45,2.45,0,0,1,.9-3.372l3.668-2.078a27.63,27.63,0,0,1,0-10.692L1.241,26.858a2.449,2.449,0,0,1-.9-3.371L7.823,10.762a2.447,2.447,0,0,1,3.318-.889l3.71,2.1a30.122,30.122,0,0,1,9.5-5.388V2.449A2.449,2.449,0,0,1,26.8,0h14.97a2.449,2.449,0,0,1,2.449,2.449V6.587a30.111,30.111,0,0,1,9.5,5.388l3.708-2.1a2.448,2.448,0,0,1,3.318.889l7.486,12.725a2.449,2.449,0,0,1-.9,3.371l-3.668,2.079a27.63,27.63,0,0,1,0,10.692l3.668,2.078a2.449,2.449,0,0,1,.9,3.372L60.741,57.8a2.453,2.453,0,0,1-3.318.889l-3.708-2.1a30.077,30.077,0,0,1-9.5,5.388v4.138a2.449,2.449,0,0,1-2.449,2.449ZM37.09,10.154l-4.631,4.631a19.578,19.578,0,0,0,.177,39L29.744,56.68a1.224,1.224,0,1,0,1.731,1.731l4.631-4.631a19.578,19.578,0,0,0-.176-39l2.891-2.891a1.224,1.224,0,1,0-1.731-1.731ZM35.93,51.341h0l-4.456-4.455a1.224,1.224,0,1,0-1.731,1.731l2.707,2.707a17.139,17.139,0,0,1,.185-34.1L37.09,21.68a1.224,1.224,0,0,0,1.731-1.731l-2.707-2.707a17.139,17.139,0,0,1-.184,34.1ZM26.066,40.317a.791.791,0,0,0,.278.052H42.22a.84.84,0,0,0,.3-.052l-5.93-5.686-2.3,1.861L32,34.631Zm11.3-6.33,5.878,5.652a1.358,1.358,0,0,0,.052-.348V29.274a1.067,1.067,0,0,0-.052-.331Zm-12.1-4.713V39.291a1.469,1.469,0,0,0,.07.348l5.877-5.652-5.895-5.043C25.283,29.152,25.266,29.263,25.266,29.274Zm.783-1.026,5.912,5.061.783.625,1.548,1.27,1.548-1.27.782-.625,5.912-5.061a.984.984,0,0,0-.313-.052H26.344A.732.732,0,0,0,26.049,28.249Z" transform="translate(0)" fill="url(#linear-gradient)"/>
</svg>
