<svg xmlns="http://www.w3.org/2000/svg" xmlns:xlink="http://www.w3.org/1999/xlink" width="173" height="173" viewBox="0 0 173 173">
  <defs>
    <linearGradient id="linear-gradient" x1="0.5" x2="0.5" y2="1" gradientUnits="objectBoundingBox">
      <stop offset="0" stop-color="#99e4ff"/>
      <stop offset="1" stop-color="#f1f8fd"/>
    </linearGradient>
  </defs>
  <g id="Group_70629" data-name="Group 70629" transform="translate(-323 -2808)">
    <circle id="Ellipse_991" data-name="Ellipse 991" cx="86.5" cy="86.5" r="86.5" transform="translate(323 2808)" fill="url(#linear-gradient)"/>
    <g id="bitcoin_1_" data-name="bitcoin (1)" transform="translate(372.001 2858.018)">
      <path id="Path_51319" data-name="Path 51319" d="M50.282,21.075a1.983,1.983,0,0,0,0-.371L51.9,18.941a2.017,2.017,0,0,0-.07-2.829l-1.623-1.623a2.029,2.029,0,0,0-2.84-.058l-1.751,1.612h-.406C36.068,5.5,19.454,5.933,18.747,6a1.159,1.159,0,0,0-.359,2.191c.162,0,13.194,4.893,21.031,12.985a2.029,2.029,0,0,0-.429.916L2.075,55.369A6.168,6.168,0,0,0,0,59.867a6.342,6.342,0,0,0,6.33,6.481h.162a6.226,6.226,0,0,0,4.5-2.075L44.23,27.44A2.191,2.191,0,0,0,45.169,27c8.116,7.756,12.985,20.869,13.043,20.961a1.159,1.159,0,0,0,1.043.742h.185a1.159,1.159,0,0,0,.951-1.078c.023-.73.464-17.344-10.11-26.549Z" transform="translate(0 0)" fill="#26aefe"/>
      <path id="Path_51320" data-name="Path 51320" d="M38.552,38.27A11.292,11.292,0,1,0,49.5,47.413,11.292,11.292,0,0,0,38.552,38.27Zm3.826,16.173a4.637,4.637,0,0,1-2.446,1.09h-.185v.974a.893.893,0,0,1-.9.9.9.9,0,0,1-.9-.9v-.835h-.22a12.752,12.752,0,0,1-1.693-.116.9.9,0,0,1-.777-.893v-10.1a.9.9,0,0,1,.719-.881,12.266,12.266,0,0,1,1.762-.209h.209v-.881a.9.9,0,0,1,.9-.9.893.893,0,0,1,.87.9v.893h.2a4.035,4.035,0,0,1,2.006.846,3.026,3.026,0,0,1,1.159,2.5,3.107,3.107,0,0,1-.719,2.006l-.139.162.162.151a3.3,3.3,0,0,1,1.078,2.527,3.7,3.7,0,0,1-1.125,2.759Z" transform="translate(4.345 5.146)" fill="#26aefe"/>
      <path id="Path_51321" data-name="Path 51321" d="M14.293,33.486A9.043,9.043,0,1,0,5.25,24.443,9.043,9.043,0,0,0,14.293,33.486ZM11.5,20.733a.893.893,0,0,1,.719-.881,10.436,10.436,0,0,1,1.043-.139h.209V19.33a.9.9,0,0,1,.9-.9.893.893,0,0,1,.893.9v.441h.185a3.223,3.223,0,0,1,1.345.638,2.562,2.562,0,0,1,.51,3.478l-.1.151.116.139a2.609,2.609,0,0,1,.707,1.843,2.9,2.9,0,0,1-.9,2.133,3.478,3.478,0,0,1-1.669.823h-.186v.475a.893.893,0,0,1-.893.9.9.9,0,0,1-.9-.9v-.371h-.22A6.756,6.756,0,0,1,12.276,29a.9.9,0,0,1-.777-.893Z" transform="translate(0.837 1.501)" fill="#26aefe"/>
      <path id="Path_51322" data-name="Path 51322" d="M14.293,22.4a.8.8,0,0,0,.5-.707.684.684,0,0,0-.255-.6,2.319,2.319,0,0,0-1.519-.359,5.969,5.969,0,0,0-.661,0h-.2v1.646h2.133Z" transform="translate(1.938 2.348)" fill="#26aefe"/>
      <path id="Path_51323" data-name="Path 51323" d="M14.774,25.582a1.09,1.09,0,0,0,.336-.823,1.043,1.043,0,0,0-.87-1.009H12.2v2.319h.591A3.061,3.061,0,0,0,14.774,25.582Z" transform="translate(1.944 2.832)" fill="#26aefe"/>
      <path id="Path_51324" data-name="Path 51324" d="M63.829,13.273a9.02,9.02,0,1,0-2.91,14.736,8.579,8.579,0,0,0,2.933-1.959,9.008,9.008,0,0,0,0-12.753ZM60.27,23.406a3.478,3.478,0,0,1-1.669.812h-.174v.475a.9.9,0,1,1-1.809,0v-.406h-.232a6.5,6.5,0,0,1-.962-.058.916.916,0,0,1-.777-.893V16a.893.893,0,0,1,.719-.87,8.116,8.116,0,0,1,1.043-.139h.209v-.371a.9.9,0,0,1,1.809,0v.441H58.6a3.072,3.072,0,0,1,1.345.626,2.481,2.481,0,0,1,.951,2.029,2.527,2.527,0,0,1-.429,1.461l-.1.151.116.128a2.678,2.678,0,0,1,.7,1.867,2.922,2.922,0,0,1-.9,2.087Z" transform="translate(7.715 0.741)" fill="#26aefe"/>
      <path id="Path_51325" data-name="Path 51325" d="M57.4,18.94H55.35v2.319h.591a3.165,3.165,0,0,0,1.994-.464,1.159,1.159,0,0,0,.336-.823,1.055,1.055,0,0,0-.87-1.032Z" transform="translate(8.821 2.065)" fill="#26aefe"/>
      <path id="Path_51326" data-name="Path 51326" d="M57.483,17.592a.8.8,0,0,0,.5-.707.684.684,0,0,0-.243-.6,2.226,2.226,0,0,0-1.53-.359H55.35v1.669h2.087Z" transform="translate(8.821 1.581)" fill="#26aefe"/>
      <path id="Path_51327" data-name="Path 51327" d="M39.668,45.915a1.032,1.032,0,0,0-.394-.9,2.782,2.782,0,0,0-1.82-.51H35.9v2.493h2.98a1.275,1.275,0,0,0,.788-1.078Z" transform="translate(5.721 6.137)" fill="#26aefe"/>
      <path id="Path_51328" data-name="Path 51328" d="M38.87,48.44h-3.2v3.768h1.148a4.371,4.371,0,0,0,2.933-.73,1.843,1.843,0,0,0,.568-1.368A1.8,1.8,0,0,0,38.87,48.44Z" transform="translate(5.685 6.766)" fill="#26aefe"/>
    </g>
  </g>
</svg>
