<svg xmlns="http://www.w3.org/2000/svg" width="20.231" height="15.249" viewBox="0 0 20.231 15.249">
  <g id="envelope-communication-email-mail-message-inbox-conversation-icon" transform="translate(-90.1 -131)">
    <path id="Path_8834" data-name="Path 8834" d="M101.425,141.048,92.2,131.823A1.412,1.412,0,0,1,93.487,131h17.408a1.418,1.418,0,0,1,1.287.823l-9.231,9.225a1.075,1.075,0,0,1-1.524,0Z" transform="translate(-1.972)" fill="#06b2ff"/>
    <path id="Path_8835" data-name="Path 8835" d="M110.331,170.7v11.414a1.416,1.416,0,0,1-1.415,1.415h-17.4a1.416,1.416,0,0,1-1.415-1.415V170.7l8.487,8.487a2.311,2.311,0,0,0,3.256,0Z" transform="translate(0 -37.279)" fill="#06b2ff"/>
  </g>
</svg>
