<svg xmlns="http://www.w3.org/2000/svg" width="56.001" height="56.017" viewBox="0 0 56.001 56.017">
  <g id="wallet" transform="translate(-1.999 -1.983)">
    <path id="Path_51341" data-name="Path 51341" d="M47.8,18a11,11,0,1,0-21.6,0Z" fill="#26aefe"/>
    <path id="Path_51342" data-name="Path 51342" d="M58,42V36a1,1,0,0,0-1-1H51a4,4,0,0,0,0,8h6A1,1,0,0,0,58,42Z" fill="#26aefe"/>
    <path id="Path_51343" data-name="Path 51343" d="M29.764,5.2A10.989,10.989,0,0,0,12.219,18H24.171A12.824,12.824,0,0,1,29.764,5.205Z" fill="#26aefe"/>
    <path id="Path_51344" data-name="Path 51344" d="M55,18V11a1,1,0,0,0-1-1H48.533A12.917,12.917,0,0,1,50,16a13.06,13.06,0,0,1-.171,2Z" fill="#26aefe"/>
    <circle id="Ellipse_992" data-name="Ellipse 992" cx="2" cy="2" r="2" transform="translate(13 25)" fill="#26aefe"/>
    <circle id="Ellipse_993" data-name="Ellipse 993" cx="2" cy="2" r="2" transform="translate(21 37)" fill="#26aefe"/>
    <path id="Path_51345" data-name="Path 51345" d="M10.132,46.72A2.013,2.013,0,0,0,8.59,46H2v8a4,4,0,0,0,4,4H55a1,1,0,0,0,1-1V45H51a6,6,0,0,1,0-12h5V21a1,1,0,0,0-1-1H6.21A6.341,6.341,0,0,1,2,18.4V32H8.59a2.016,2.016,0,0,0,1.545-.723l1.623-1.952A4.062,4.062,0,1,1,13.3,30.6l-1.631,1.96A4.009,4.009,0,0,1,8.59,34H2v4H19.142a4,4,0,1,1,0,2H2v4H8.59a4,4,0,0,1,3.076,1.438L13.3,47.4A3.952,3.952,0,0,1,15,47a4.027,4.027,0,1,1-3.242,1.675Z" fill="#26aefe"/>
    <circle id="Ellipse_994" data-name="Ellipse 994" cx="2" cy="2" r="2" transform="translate(13 49)" fill="#26aefe"/>
    <path id="Path_51346" data-name="Path 51346" d="M2,14.01a3.076,3.076,0,0,0,.012.359A4.157,4.157,0,0,0,6.21,18H9.994a12.885,12.885,0,0,1-.631-8H6a4.016,4.016,0,0,0-4,4Z" fill="#26aefe"/>
  </g>
</svg>
