<svg xmlns="http://www.w3.org/2000/svg" width="117" height="117" viewBox="0 0 117 117">
  <g id="Group_58238" data-name="Group 58238" transform="translate(-40.9 -87)">
    <circle id="Ellipse_727" data-name="Ellipse 727" cx="58.5" cy="58.5" r="58.5" transform="translate(40.9 87)" fill="#e9f7ff"/>
    <g id="Group_58317" data-name="Group 58317" transform="translate(-417.924 -73.495)">
      <g id="Group_58316" data-name="Group 58316" transform="translate(493.951 194.971)">
        <path id="Path_47744" data-name="Path 47744" d="M504.173,402.535h-2.916c-1.1,0-2.2.009-3.306,0a.914.914,0,1,1,0-1.819q3.536-.009,7.072,0a.918.918,0,0,1,1,1c.011.688,0,1.376,0,2.091a2.134,2.134,0,0,0,1.911-.462c1.223-1.18,2.539-2.261,3.8-3.4a1.566,1.566,0,0,1,1.118-.426c4.011.01,8.021.005,12.032.006.874,0,1.185.283,1.24,1.169a4.835,4.835,0,0,1-.615,2.651c-.079.146-.161.291-.256.461a.6.6,0,0,0,.8-.288q1.584-2.505,3.209-4.984a4.836,4.836,0,0,1,6.819-1.906.832.832,0,0,1,.366,1.112,24.119,24.119,0,0,1,2.506-.333,3.608,3.608,0,0,1,2.686,1.107c.241.235.477.477.713.717.686.694.633,1.235-.18,1.8q-2.19,1.517-4.383,3.029-3.193,2.206-6.389,4.407a4.357,4.357,0,0,1-.927.489q-8.506,3.172-17.021,6.319a3.238,3.238,0,0,1-1.069.193c-1.944.018-3.888.009-5.832.009h-.537c0,.387.008.722,0,1.056a.928.928,0,0,1-1,1.006q-2.273.015-4.546,0a.912.912,0,1,1-.005-1.816c1.223-.009,2.445,0,3.7,0Zm1.873,11.14h.543c1.822,0,3.643.01,5.465-.009a3.236,3.236,0,0,0,1.068-.188q7.807-2.88,15.6-5.791a8.737,8.737,0,0,0,1.866-.85c3.2-2.174,6.381-4.391,9.566-6.6.121-.084.234-.179.373-.285a2.115,2.115,0,0,0-1.422-.734,3.932,3.932,0,0,0-2.412.582c-3.228,1.874-6.452,3.755-9.688,5.616a1.944,1.944,0,0,1-.909.233c-1.775.022-3.551.011-5.327.011-1.868,0-3.735,0-5.6,0a1.036,1.036,0,0,1-.99-.454.909.909,0,0,1,.89-1.368c2.235-.008,4.47,0,6.7,0a2.576,2.576,0,0,0,2.482-2.5c-.074-.006-.149-.018-.224-.018-3.612,0-7.225,0-10.837.009a.951.951,0,0,0-.557.239c-1.38,1.191-2.755,2.388-4.111,3.606a1.575,1.575,0,0,1-1.2.446c-.421-.022-.844,0-1.278,0Zm23.2-11.732.063.065q1.955-1.139,3.909-2.278a.449.449,0,0,0,.17-.146c.306-.557.6-1.119.922-1.713a4.17,4.17,0,0,0-.487-.123,2.915,2.915,0,0,0-2.785,1.43C530.39,400.064,529.837,401.018,529.243,401.943Z" transform="translate(-496.125 -370.837)" fill="#222872"/>
        <path id="Path_47745" data-name="Path 47745" d="M646.783,216.2a10.985,10.985,0,0,1-11.493,10.746,11.13,11.13,0,0,1-1.86-22.07,11.385,11.385,0,0,1,4.822.2,3.273,3.273,0,0,1,.437.136.9.9,0,0,1,.564,1.036.876.876,0,0,1-1,.685c-.408-.053-.809-.162-1.217-.222a9.217,9.217,0,1,0,5.631,3.022,1.662,1.662,0,0,1-.4-.838.783.783,0,0,1,.572-.8.8.8,0,0,1,.992.262,23.538,23.538,0,0,1,1.76,2.568A10.735,10.735,0,0,1,646.783,216.2Z" transform="translate(-607.875 -203.09)" fill="#009eff"/>
        <path id="Path_47746" data-name="Path 47746" d="M682.653,247.81c0-.968.008-1.946-.013-2.923,0-.093-.167-.237-.279-.265-.458-.117-.926-.2-1.39-.293a2.864,2.864,0,0,1-2.4-2.246,2.913,2.913,0,0,1,1.122-3.062,3.768,3.768,0,0,1,2.323-.863c.2-.006.391,0,.576,0,.216-1.131.407-1.393.98-1.385s.771.3.939,1.317a10.33,10.33,0,0,1,1.338.281,3.3,3.3,0,0,1,2.377,2.663,1.6,1.6,0,0,1-.048.72.825.825,0,0,1-.943.559.878.878,0,0,1-.777-.789,1.748,1.748,0,0,0-1.986-1.535c0,1-.006,2.011.012,3.017,0,.079.165.194.273.225.382.109.771.19,1.159.279a2.946,2.946,0,0,1,1.576,4.872,3.832,3.832,0,0,1-2.607,1.291c-.119.012-.239.02-.229.019a10.55,10.55,0,0,1-.6,1.306c-.08.128-.388.165-.588.158-.562-.02-.754-.361-.836-1.42-.443-.051-.9-.068-1.34-.16a3.381,3.381,0,0,1-2.789-3.008.9.9,0,1,1,1.784-.178A1.867,1.867,0,0,0,682.653,247.81Zm-.021-7.845a2.3,2.3,0,0,0-2.035.682,1.074,1.074,0,0,0,.3,1.743,11.829,11.829,0,0,0,1.735.445Zm1.861,7.884a1.7,1.7,0,0,0,1.956-1.45c-.008-.889-.6-1.2-1.956-1.276Z" transform="translate(-655.385 -231.222)" fill="#009eff"/>
        <path id="Path_47747" data-name="Path 47747" d="M593.357,200.277q0,1.862,0,3.724a.791.791,0,0,1-.549.86,1.237,1.237,0,0,1-.885-.12,1.01,1.01,0,0,1-.354-.739c-.025-2.5-.023-5-.009-7.494a.877.877,0,0,1,.921-.93.886.886,0,0,1,.873.975C593.362,197.794,593.357,199.036,593.357,200.277Z" transform="translate(-579.119 -195.082)" fill="#222872"/>
        <path id="Path_47748" data-name="Path 47748" d="M556.661,273.142c0,1.179,0,2.358,0,3.537,0,.695-.331,1.083-.9,1.08-.548,0-.9-.39-.9-1.048q-.01-3.606,0-7.213a.927.927,0,0,1,.911-1.044c.539,0,.888.412.89,1.057C556.664,270.723,556.661,271.933,556.661,273.142Z" transform="translate(-546.924 -259.018)" fill="#222872"/>
        <path id="Path_47749" data-name="Path 47749" d="M829.975,249.538c0-1.149,0-2.3,0-3.448,0-.664.329-1.05.882-1.057s.912.374.914,1.029q.012,3.471,0,6.942c0,.648-.372,1.053-.909,1.047s-.885-.424-.887-1.065C829.972,251.837,829.975,250.688,829.975,249.538Z" transform="translate(-788.289 -238.47)" fill="#222872"/>
        <path id="Path_47750" data-name="Path 47750" d="M593.339,294.3c0,.811.005,1.622,0,2.434a.9.9,0,1,1-1.8.022q-.019-2.479,0-4.959a.9.9,0,1,1,1.8.024C593.345,292.648,593.339,293.474,593.339,294.3Z" transform="translate(-579.101 -278.654)" fill="#222872"/>
        <path id="Path_47751" data-name="Path 47751" d="M829.988,342.07a.906.906,0,1,1,1.8-.01.905.905,0,1,1-1.8.01Z" transform="translate(-788.301 -322.702)" fill="#222872"/>
        <path id="Path_47752" data-name="Path 47752" d="M555.821,356.07a.888.888,0,0,1,.879.963.914.914,0,0,1-.893.963.93.93,0,0,1-.908-1A.9.9,0,0,1,555.821,356.07Z" transform="translate(-546.965 -335.883)" fill="#222872"/>
        <path id="Path_47753" data-name="Path 47753" d="M518.258,472.976a.906.906,0,1,1,.911-.894A.922.922,0,0,1,518.258,472.976Z" transform="translate(-514.036 -436.854)" fill="#222872"/>
      </g>
    </g>
  </g>
</svg>
