<svg xmlns="http://www.w3.org/2000/svg" width="117" height="117" viewBox="0 0 117 117">
  <g id="Group_58238" data-name="Group 58238" transform="translate(-40.9 -87)">
    <circle id="Ellipse_727" data-name="Ellipse 727" cx="58.5" cy="58.5" r="58.5" transform="translate(40.9 87)" fill="#e9f7ff"/>
    <g id="Group_58319" data-name="Group 58319" transform="translate(-418.579 -73.466)">
      <g id="Group_58318" data-name="Group 58318" transform="translate(491 192)">
        <path id="Path_47755" data-name="Path 47755" d="M616.6,428.324c.183-1.082.377-2.24.575-3.4.114-.666.221-1.334.355-2a.771.771,0,0,0-.247-.8c-1.249-1.192-2.474-2.407-3.712-3.61-.3-.3-.573-.6-.426-1.068.159-.509.565-.612,1.036-.676,1.689-.23,3.374-.5,5.062-.733a.788.788,0,0,0,.677-.495c.745-1.556,1.518-3.1,2.275-4.648.188-.384.4-.718.889-.73.513-.013.745.327.943.731.75,1.534,1.52,3.057,2.254,4.6a.865.865,0,0,0,.754.549c1.724.235,3.445.5,5.168.742.426.06.821.232.848.665a1.422,1.422,0,0,1-.344.977c-1.216,1.249-2.472,2.46-3.735,3.663a.864.864,0,0,0-.271.892c.314,1.715.6,3.435.894,5.154a.936.936,0,0,1-.336,1,.922.922,0,0,1-1.052.01c-1.522-.806-3.056-1.592-4.565-2.423a.981.981,0,0,0-1.073.01c-1.513.824-3.04,1.622-4.569,2.417A.894.894,0,0,1,616.6,428.324Zm10.927-1.536c-.023-.246-.027-.418-.056-.585-.195-1.139-.372-2.282-.6-3.414a1.509,1.509,0,0,1,.509-1.614c.672-.578,1.276-1.237,1.918-1.851.328-.313.677-.6,1.124-1-1.591-.237-2.974-.461-4.363-.641a1.231,1.231,0,0,1-1.05-.769c-.548-1.156-1.122-2.3-1.689-3.446a3.859,3.859,0,0,0-.242-.366c-.639,1.3-1.257,2.518-1.84,3.754a1.245,1.245,0,0,1-1.122.831c-.459.029-.914.125-1.37.194l-2.622.4c.877.943,1.737,1.939,2.677,2.852a1.67,1.67,0,0,1,.532,1.709c-.261,1.282-.449,2.579-.68,3.943.205-.092.334-.141.455-.2,1.006-.526,2.039-1.01,3.008-1.6a1.754,1.754,0,0,1,2.018.015C625.209,425.628,626.344,426.171,627.523,426.788Z" transform="translate(-595.703 -379.085)" fill="#0094ef"/>
        <path id="Path_47756" data-name="Path 47756" d="M606.178,312.575c1.89.165,3.644.2,5.352.492,3.336.58,5.3,2.739,6.107,5.941a34.645,34.645,0,0,1,.54,4.121q.4,3.231.81,6.462c.081.645-.2,1.095-.718,1.168-.538.076-.941-.3-1.021-.973-.39-3.268-.762-6.539-1.17-9.8a5.848,5.848,0,0,0-5.413-5.275,39.123,39.123,0,0,0-9.09.033,5.712,5.712,0,0,0-5,4.646,35.019,35.019,0,0,0-.435,3.544c-.263,2.3-.516,4.6-.787,6.895-.081.691-.473,1.027-1.037.948-.527-.075-.793-.514-.721-1.168.348-3.184.708-6.367,1.033-9.554a7.432,7.432,0,0,1,5.766-6.856A57.344,57.344,0,0,1,606.178,312.575Z" transform="translate(-578.968 -295.396)" fill="#222872"/>
        <path id="Path_47757" data-name="Path 47757" d="M511.027,454.381c.191-1.115.37-2.312.612-3.5a1.193,1.193,0,0,0-.411-1.3c-.839-.74-1.612-1.555-2.417-2.334a.952.952,0,0,1-.37-1.035.975.975,0,0,1,.938-.652c1.231-.164,2.461-.339,3.686-.549a.865.865,0,0,0,.526-.418c.558-1.071,1.085-2.159,1.611-3.247.2-.406.429-.751.936-.742.478.009.705.329.894.723.523,1.089,1.073,2.165,1.594,3.255a.724.724,0,0,0,.638.46c1.25.158,2.5.322,3.738.555a.884.884,0,0,1,.518,1.543c-.877.932-1.827,1.794-2.72,2.71a.921.921,0,0,0-.212.684c.183,1.249.44,2.487.6,3.738a1.372,1.372,0,0,1-.311.938c-.266.319-.673.24-1.031.05-1.1-.582-2.2-1.151-3.292-1.748a.77.77,0,0,0-.835,0q-1.659.9-3.343,1.764A.887.887,0,0,1,511.027,454.381Zm2.037-1.457c.825-.428,1.568-.765,2.258-1.188a1.41,1.41,0,0,1,1.63.007c.687.412,1.418.749,2.227,1.17a22.448,22.448,0,0,0-.384-2.215,1.794,1.794,0,0,1,.68-2.057A20.374,20.374,0,0,0,521,447.077c-.815-.116-1.585-.257-2.361-.325a1.516,1.516,0,0,1-1.416-1.006c-.311-.747-.7-1.459-1.1-2.259-.449.908-.858,1.716-1.249,2.532a1.071,1.071,0,0,1-.89.661c-.9.119-1.805.266-2.688.4.643.677,1.256,1.339,1.889,1.981a1.137,1.137,0,0,1,.35,1.106C513.367,451.035,513.235,451.912,513.064,452.924Z" transform="translate(-505.918 -405.192)" fill="#222872"/>
        <path id="Path_47758" data-name="Path 47758" d="M762.649,454.426a.883.883,0,0,1-1.349.858c-1.092-.554-2.177-1.123-3.247-1.717a.877.877,0,0,0-.975-.014c-1.053.588-2.134,1.127-3.2,1.694a.909.909,0,0,1-1.408-1.009c.225-1.224.41-2.455.64-3.677a.724.724,0,0,0-.25-.744c-.888-.846-1.753-1.717-2.638-2.566a.972.972,0,0,1-.357-1.044.948.948,0,0,1,.9-.632c1.213-.164,2.422-.363,3.636-.519a.727.727,0,0,0,.642-.456c.528-1.106,1.083-2.2,1.616-3.3a.924.924,0,0,1,1.784.007c.535,1.1,1.093,2.2,1.616,3.3a.716.716,0,0,0,.644.447c1.249.162,2.5.323,3.737.558a1.124,1.124,0,0,1,.75.616,1.139,1.139,0,0,1-.263.935c-.852.906-1.755,1.764-2.661,2.617a.8.8,0,0,0-.27.836c.217,1.135.4,2.276.591,3.416C762.612,454.19,762.636,454.348,762.649,454.426Zm-8.161-1.506c.849-.443,1.611-.811,2.342-1.232a1.325,1.325,0,0,1,1.449,0c.735.419,1.5.792,2.326,1.227-.156-.935-.26-1.781-.448-2.607a1.313,1.313,0,0,1,.451-1.373c.614-.582,1.188-1.206,1.82-1.855-.841-.119-1.64-.255-2.446-.339a1.421,1.421,0,0,1-1.3-.923c-.323-.763-.725-1.492-1.135-2.322-.384.771-.78,1.447-1.062,2.167a1.621,1.621,0,0,1-1.576,1.1c-.744.054-1.481.207-2.192.313.591.624,1.123,1.247,1.721,1.8a1.461,1.461,0,0,1,.485,1.523C754.755,451.2,754.644,452.007,754.489,452.921Z" transform="translate(-712.947 -405.196)" fill="#222872"/>
        <path id="Path_47759" data-name="Path 47759" d="M646.154,223.345a5.818,5.818,0,0,1,5.915,4.423,7.29,7.29,0,0,1-4.152,7.922,4.667,4.667,0,0,1-4.477-.489,7.2,7.2,0,0,1-3.341-6.221C640.083,225.753,642.729,223.344,646.154,223.345Zm4.31,5.729a8.026,8.026,0,0,0-.1-.87,4.113,4.113,0,0,0-4.5-3.093,4.023,4.023,0,0,0-3.97,3.287,5.741,5.741,0,0,0,2.579,5.383,3.014,3.014,0,0,0,3.28.007A5.509,5.509,0,0,0,650.464,229.074Z" transform="translate(-618.856 -218.879)" fill="#222872"/>
        <path id="Path_47760" data-name="Path 47760" d="M630.307,367.322q-.282,4.077-.567,8.154a1.944,1.944,0,0,1-.091.578.815.815,0,0,1-.928.555.783.783,0,0,1-.745-.829c.01-.729.072-1.458.122-2.186q.208-3.038.425-6.075c.015-.213.035-.426.065-.638a.87.87,0,1,1,1.734.121c0,.107,0,.214,0,.321Z" transform="translate(-608.461 -341.248)" fill="#222872"/>
        <path id="Path_47761" data-name="Path 47761" d="M722.962,375.633a.875.875,0,0,1-.807.964c-.547.038-.917-.313-.966-.967-.123-1.632-.23-3.265-.341-4.9-.082-1.207-.167-2.413-.239-3.62-.039-.653.281-1.069.812-1.1s.881.366.927,1.01C722.551,369.882,722.755,372.738,722.962,375.633Z" transform="translate(-687.892 -341.221)" fill="#222872"/>
      </g>
    </g>
  </g>
</svg>
