<svg xmlns="http://www.w3.org/2000/svg" width="58.293" height="33.82" viewBox="0 0 58.293 33.82">
  <path id="express-js-icon" d="M58.293,32.939A3.716,3.716,0,0,1,53.684,31.2L45.316,19.618l-1.21-1.6-9.773,13.22c-1.117,1.591-2.288,2.282-4.372,1.72l12.515-16.8L30.824.98c2-.39,3.388-.191,4.618,1.6l8.68,11.723L52.866,2.647A3.473,3.473,0,0,1,57.2,1.038l-4.518,5.99L46.563,15a1.65,1.65,0,0,0,.042,2.413ZM.015,15.874l1.023-5.035C3.825.874,15.247-3.266,23.124,2.891c4.6,3.621,5.747,8.744,5.52,14.482H2.7C2.307,27.7,9.741,33.935,19.218,30.755c3.324-1.117,5.283-3.72,6.263-6.977.5-1.632,1.32-1.887,2.854-1.421-.783,4.073-2.55,7.476-6.285,9.606C16.471,35.151,8.507,34.12,4.317,29.69,1.821,27.119.79,23.862.328,20.379.255,19.8.109,19.255,0,18.7q.014-1.414.015-2.827Zm2.729-.692H26.192c-.153-7.469-4.8-12.774-11.159-12.819C8.055,2.309,3.046,7.487,2.743,15.182h0Z" transform="translate(0 0.003)" fill="#fff"/>
</svg>
