<?xml version="1.0" encoding="utf-8"?>
<!-- Generator: Adobe Illustrator 16.0.0, SVG Export Plug-In . SVG Version: 6.00 Build 0)  -->
<!DOCTYPE svg PUBLIC "-//W3C//DTD SVG 1.1//EN" "http://www.w3.org/Graphics/SVG/1.1/DTD/svg11.dtd">
<svg version="1.1" id="Layer_1" xmlns="http://www.w3.org/2000/svg" xmlns:xlink="http://www.w3.org/1999/xlink" x="0px" y="0px"
	 width="1450.114px" height="639.679px" viewBox="0 864.086 1450.114 639.679" enable-background="new 0 864.086 1450.114 639.679"
	 xml:space="preserve">
<desc>Created with Fabric.js 3.1.0</desc>
<g>
	<g id="logo-logo_1_" transform="matrix(2.477864269394067 0 0 2.477864269394067 624.9114985406364 421.3885819359348)">
		<g transform="matrix(0.3588 0 0 -0.3588 41.48100963249891 -41.51939764001634)">
			<path fill="#AFDA19" d="M-140.696-914.022c-30.621-20.963-58.384-45.513-84.244-71.607
				c-25.868-26.105-50.108-54.144-71.076-84.833c-31.008-45.389-60.173-33.785-85.16,18.919
				c-16.279,34.348-39.828,64.076-65.852,90.064c-26.023,25.998-55.73,49.537-90,65.855c-52.622,25.035-64.414,54.202-19.161,85.33
				c30.626,21.061,58.916,45.018,85.069,70.849c26.141,25.813,50.324,53.919,71.257,84.582
				c30.99,45.425,65.313,38.788,92.821-10.778c18.226-32.83,42.015-61.841,68.024-87.829c26.017-25.978,55.077-49.702,87.977-67.934
				C-101.454-848.878-95.311-882.972-140.696-914.022"/>
		</g>
		<g transform="matrix(0.3588 0 0 -0.3588 40.891009632498935 26.271702359983692)">
			<path fill="#DE097C" d="M-140.649-908.715c-30.622-20.954-58.384-45.503-84.246-71.608
				c-25.868-26.103-50.107-54.13-71.077-84.834c-31.007-45.376-60.171-33.774-85.158,18.932
				c-16.282,34.335-39.824,64.065-65.847,90.053c-26.028,25.998-55.731,49.543-90.005,65.853
				c-52.621,25.046-64.413,54.212-19.16,85.33c30.622,21.063,58.916,45.018,85.069,70.851c26.14,25.813,50.328,53.928,71.259,84.591
				c30.988,45.415,65.307,38.788,92.823-10.778c18.223-32.84,42.01-61.851,68.027-87.828c26.009-25.988,55.076-49.711,87.971-67.945
				C-101.403-843.572-95.271-877.654-140.649-908.715"/>
		</g>
		<g transform="matrix(0.3588 0 0 -0.3588 -42.926390367501085 -18.65279764001633)">
			<path fill="#449CC7" d="M-166.739-903.92c-25.774-17.643-49.144-38.313-70.916-60.277c-21.772-21.984-42.178-45.58-59.832-71.424
				c-26.097-38.192-50.646-28.425-71.682,15.94c-13.705,28.913-33.522,53.928-55.434,75.815
				c-21.906,21.876-46.911,41.694-75.761,55.424c-44.292,21.082-54.22,45.631-16.127,71.835
				c25.773,17.724,49.592,37.891,71.606,59.642c22.013,21.73,42.368,45.396,59.983,71.209c26.093,38.223,54.979,32.645,78.138-9.077
				c15.345-27.64,35.37-52.063,57.263-73.939c21.898-21.867,46.366-41.839,74.061-57.184
				C-133.699-849.079-128.533-877.777-166.739-903.92"/>
		</g>
		<g transform="matrix(0.3588 0 0 -0.3588 -73.76649036750109 57.41940235998368)">
			<path fill="#E6681A" d="M-207.786-886.891c-19.325-13.238-36.847-28.728-53.171-45.211
				c-16.332-16.463-31.632-34.161-44.867-53.531c-19.573-28.662-37.974-21.331-53.752,11.935
				c-10.277,21.681-25.14,40.44-41.563,56.854c-16.424,16.404-35.173,31.255-56.809,41.556
				c-33.214,15.813-40.655,34.218-12.096,53.86c19.332,13.295,37.19,28.418,53.696,44.728c16.503,16.29,31.769,34.036,44.976,53.394
				c19.568,28.66,41.229,24.471,58.593-6.804c11.504-20.732,26.518-39.04,42.937-55.444c16.42-16.408,34.763-31.375,55.53-42.88
				C-183.016-845.782-179.138-867.3-207.786-886.891"/>
		</g>
		<g transform="matrix(0.3588 0 0 -0.3588 8.382509632498909 76.3174023599837)">
			<path fill="#F3BF0A" d="M-220.131-883.916c-18.454-12.625-35.185-27.428-50.764-43.144
				c-15.584-15.732-30.193-32.623-42.83-51.118c-18.683-27.349-36.256-20.36-51.312,11.402
				c-9.814,20.701-23.997,38.612-39.679,54.269c-15.68,15.666-33.579,29.844-54.231,39.682
				c-31.712,15.092-38.815,32.654-11.548,51.411c18.449,12.693,35.499,27.125,51.26,42.696
				c15.747,15.558,30.325,32.489,42.938,50.974c18.679,27.368,39.352,23.372,55.928-6.492c10.986-19.789,25.317-37.272,40.993-52.94
				c15.671-15.648,33.188-29.943,53.007-40.925C-196.489-844.663-192.788-865.199-220.131-883.916"/>
		</g>
		<g transform="matrix(0.3588 0 0 -0.3588 11.416709632498907 -15.810697640016258)">
			<path fill="#131312" d="M-318.216-895.996c38.206,26.14,33.04,54.839-8.701,77.962c-6.887,3.819-13.575,7.918-20.076,12.263
				c-13.207-15.975-27.258-31.187-41.922-45.668c-2.714-2.681-5.456-5.344-8.216-7.988c11.959-9.496,23.241-19.739,33.906-30.389
				c7.494-7.482,14.771-15.27,21.738-23.383C-333.949-907.214-326.192-901.46-318.216-895.996"/>
		</g>
		<g transform="matrix(0.3588 0 0 -0.3588 -17.009190367501105 12.921802359983701)">
			<path fill="#1F2354" d="M-360.867-935.129c15.488,21.03,32.754,40.545,50.969,58.933c15.034,15.171,30.827,29.719,47.645,43.082
				c-6.966,8.115-14.244,15.903-21.738,23.384c-10.665,10.651-21.947,20.895-33.906,30.39
				c-23.837-22.779-49.409-43.985-76.853-62.861c-45.252-31.118-33.46-60.286,19.161-85.33
				C-370.586-929.909-365.682-932.447-360.867-935.129"/>
		</g>
		<g transform="matrix(0.3588 0 0 -0.3588 -17.73019036750111 -42.49659764001626)">
			<path fill="#267836" d="M-307.671-925.824c14.665,14.482,28.714,29.69,41.923,45.669c-19.631,13.131-37.531,28.485-53.985,44.92
				c-14.178,14.17-27.577,29.399-39.425,45.891c-10.368-8.232-21.028-16.142-31.984-23.674
				c-45.253-31.129-33.461-60.295,19.161-85.33c20.226-9.631,38.868-21.78,56.095-35.463L-307.671-925.824"/>
		</g>
		<g transform="matrix(0.3588 0 0 -0.3588 22.40230963249894 64.68480235998373)">
			<path fill="#D81E25" d="M-259.209-916.341c27.341,18.717,23.647,39.255-6.237,55.813c-19.821,10.984-37.339,25.279-53.009,40.927
				c-15.675,15.666-30.006,33.148-40.993,52.938c-16.572,29.864-37.255,33.86-55.928,6.492
				c-10.504-15.382-22.36-29.699-35.132-43.045c20.041-13.432,38.314-29.146,55.067-45.881
				c26.024-25.989,49.565-55.716,65.847-90.053c4.735-10,9.624-18.504,14.648-25.424c1.642,1.7,3.297,3.403,4.971,5.092
				C-294.394-943.767-277.664-928.967-259.209-916.341"/>
		</g>
		<g transform="matrix(0.3588 0 0 -0.3588 -31.438490367501117 66.4227023599837)">
			<path fill="#E14C1E" d="M-325.772-861.796c22.824,15.609,25.003,32.45,9.123,47.417c-13.372-12.496-27.63-24.15-42.85-34.618
				c-22.173-15.248-21.613-29.719-3.577-42.702C-351.356-880.953-338.987-870.845-325.772-861.796"/>
		</g>
		<g transform="matrix(0.3588 0 0 -0.3588 -55.249190367501114 28.60100235998368)">
			<path fill="#213E1C" d="M-334.82-887.965c20.142-42.489,43.515-53.256,68.387-20.516c-20.561,11.468-38.739,26.336-55.024,42.597
				c-16.419,16.406-31.434,34.717-42.936,55.444c-14.343,25.835-31.616,33.192-48.214,18.827
				c7.797-6.54,15.242-13.432,22.352-20.536C-368.347-834.037-348.525-859.053-334.82-887.965"/>
		</g>
	</g>
	<path fill="#1383D9" d="M1241.81,1190.652c-4.248-11.428-8.454-22.738-12.74-34.266c-28.104,0-56.08-0.045-84.056,0.143
		c-1.302,0.01-3.229,1.86-3.781,3.276c-3.948,10.111-7.613,20.335-11.463,30.776c-16.046,0-32.155,0-48.95,0
		c25.987-67.829,51.915-135.498,77.842-203.168c18.063,0,35.812,0,54.184,0c25.869,67.508,51.81,135.208,77.877,203.238
		C1274.124,1190.652,1258.049,1190.652,1241.81,1190.652z M1185.752,1030.861c-10.703,29.768-21.029,58.487-31.478,87.539
		c21.219,0,41.755,0,62.957,0C1206.77,1089.298,1196.446,1060.597,1185.752,1030.861z"/>
	<path fill="#1383D9" d="M1038.988,1126.287c12.269,5.961,24.361,11.836,36.859,17.906c-12.997,22.645-30.589,39.326-55.879,45.773
		c-40.114,10.223-76.481,2.111-106.795-26.502c-19.696-18.59-28.639-42.655-29.551-69.738c-0.828-24.515,4.705-47.097,19.245-67.191
		c16.264-22.473,38.674-34.951,65.421-40.27c18.196-3.616,36.363-3.235,54.142,2.31c23.707,7.394,40.709,23.015,53.467,45.004
		c-12.373,6.135-24.544,12.171-37.049,18.372c-6.128-11.182-14.73-19.505-26.137-24.752c-30.187-13.892-68.271,2.522-80.099,35.428
		c-9.171,25.517-6.508,50.015,11.087,71.615c22.021,27.038,70.584,31.98,93.445-5.134
		C1037.694,1128.219,1038.288,1127.355,1038.988,1126.287z"/>
	<path fill="#1383D9" d="M720.328,987.542c47.702,0,95.01,0,142.589,0c0,12.521,0,24.797,0,37.452c-33.199,0-66.146,0-99.487,0
		c0,14.771,0,29.163,0,43.931c32.333,0,64.568,0,97.208,0c0,12.631,0,24.904,0,37.765c-32.266,0-64.626,0-97.378,0
		c0,28.145,0,55.712,0,83.716c-14.438,0-28.494,0-42.93,0C720.328,1123.017,720.328,1055.486,720.328,987.542z"/>
</g>
<g>
	<g>
		<path fill="#1383D9" d="M717.086,1243.359h80.336v17.73h-29.185v91.79h-21.967v-91.79h-29.185V1243.359z"/>
		<path fill="#1383D9" d="M848.26,1352.879h-21.966v-86.926h21.966v13.494c5.492-8.944,14.593-14.75,26.675-14.75v23.065h-5.806
			c-13.023,0-20.869,5.021-20.869,21.811V1352.879z"/>
		<path fill="#1383D9" d="M936.599,1264.542c13.965,0,23.536,6.59,28.714,13.808v-12.396h22.124v86.926h-22.124v-12.709
			c-5.178,7.531-15.063,14.121-28.871,14.121c-21.967,0-39.54-18.044-39.54-45.188
			C896.901,1281.958,914.475,1264.542,936.599,1264.542z M942.247,1283.84c-11.768,0-22.908,8.787-22.908,25.263
			c0,16.475,11.141,25.889,22.908,25.889c12.082,0,23.065-9.101,23.065-25.575C965.313,1292.941,954.329,1283.84,942.247,1283.84z"
			/>
		<path fill="#1383D9" d="M1059.143,1264.542c21.653,0,36.245,11.297,40.953,30.753h-23.693
			c-2.511-7.374-8.315-12.081-17.416-12.081c-12.239,0-20.398,9.257-20.398,26.203c0,16.945,8.159,26.046,20.398,26.046
			c9.101,0,14.749-4.079,17.416-11.925h23.693c-4.708,18.516-19.3,30.754-40.953,30.754c-25.104,0-42.992-17.573-42.992-44.875
			S1034.038,1264.542,1059.143,1264.542z"/>
		<path fill="#1383D9" d="M1129.123,1236.769h21.967v66.058l29.185-36.873h28.558l-38.285,43.62l38.599,43.306h-28.557
			l-29.499-37.03v37.03h-21.967V1236.769z"/>
		<path fill="#1383D9" d="M1271.597,1354.292c-25.262,0-43.62-17.573-43.62-44.875c0-27.459,17.888-44.875,43.62-44.875
			c25.104,0,42.835,17.103,42.835,42.992c0,2.824-0.156,5.648-0.627,8.473h-63.547c1.098,12.866,9.885,20.084,20.868,20.084
			c9.414,0,14.592-4.707,17.417-10.513h23.692C1307.528,1341.583,1293.093,1354.292,1271.597,1354.292z M1250.414,1301.257h41.267
			c-0.313-11.454-9.414-18.672-20.712-18.672C1260.456,1282.585,1252.141,1289.333,1250.414,1301.257z"/>
		<path fill="#1383D9" d="M1365.269,1352.879h-21.967v-86.926h21.967v13.494c5.492-8.944,14.593-14.75,26.675-14.75v23.065h-5.806
			c-13.023,0-20.869,5.021-20.869,21.811V1352.879z"/>
	</g>
</g>
</svg>
