<svg xmlns="http://www.w3.org/2000/svg" width="35.053" height="42" viewBox="0 0 35.053 42">
  <g id="file" transform="translate(-42.344)">
    <g id="Group_55838" data-name="Group 55838" transform="translate(42.344)">
      <g id="Group_55837" data-name="Group 55837">
        <path id="Path_14992" data-name="Path 14992" d="M77.276,11.913a.876.876,0,0,0-.189-.283L65.713.256A.873.873,0,0,0,65.094,0H46.719a4.38,4.38,0,0,0-4.375,4.375v12.25a5.062,5.062,0,0,0,5.25,5.25H66.482l-2.006,2.006a.875.875,0,1,0,1.237,1.237l3.5-3.5a.866.866,0,0,0,.19-.285.877.877,0,0,0-.19-.954l-3.5-3.5a.875.875,0,0,0-1.237,1.237l2.006,2.006H47.594a3.368,3.368,0,0,1-3.5-3.5V4.375A2.628,2.628,0,0,1,46.719,1.75H64.732l9.625,9.625H68.594A2.628,2.628,0,0,1,65.969,8.75V6.125a.875.875,0,1,0-1.75,0V8.75a4.38,4.38,0,0,0,4.375,4.375h7v12.25a.875.875,0,1,0,1.75,0V12.25A.863.863,0,0,0,77.276,11.913Z" transform="translate(-42.344)" fill="#009eff"/>
      </g>
    </g>
    <g id="Group_55840" data-name="Group 55840" transform="translate(42.344 22.75)">
      <g id="Group_55839" data-name="Group 55839">
        <path id="Path_14993" data-name="Path 14993" d="M76.439,284.26a5.321,5.321,0,0,0-4.345-1.676H52.331l2.006-2.006a.875.875,0,0,0-1.237-1.237l-3.5,3.5a.866.866,0,0,0-.19.285.877.877,0,0,0,.19.954l3.5,3.5a.875.875,0,0,0,1.237-1.237l-2.006-2.006H72.094a3.717,3.717,0,0,1,2.984,1.026,3.115,3.115,0,0,1,.533,2.3.867.867,0,0,0-.017.172v4.375a2.628,2.628,0,0,1-2.625,2.625H46.719a2.5,2.5,0,0,1-2.625-2.625v-14a.875.875,0,1,0-1.75,0v14a4.218,4.218,0,0,0,4.375,4.375h26.25a4.38,4.38,0,0,0,4.375-4.375v-4.3A4.827,4.827,0,0,0,76.439,284.26Z" transform="translate(-42.344 -277.333)" fill="#222872"/>
      </g>
    </g>
  </g>
</svg>
