<svg xmlns="http://www.w3.org/2000/svg" width="56.001" height="54.787" viewBox="0 0 56.001 54.787">
  <path id="Union_23" data-name="Union 23" d="M2.165,54.787A2.17,2.17,0,0,1,0,52.614V9.1A2.169,2.169,0,0,1,2.165,6.925H6.835v3.467H3.455V51.32H36.393V45.813l.038-.057a6.589,6.589,0,0,1,3.116-2c.1-.009.207-.038.311-.057v8.917A2.161,2.161,0,0,1,37.7,54.787Zm15.079-7.708V42.024h5.376v1.786h7.144V36.7H27.826V31.633h1.939V27.118H20.681v4.515h1.939v5.054H17.245V31.633h1.94V27.118H10.1v4.515h1.939V36.7H6.674V31.624H8.613V26.363a.74.74,0,0,1,.744-.746h9.828V20.611H15.26V14.622h9.329v5.989H20.672v5.006h9.837a.74.74,0,0,1,.743.746v5.261h1.94v5.063h-1.94v7.859a.74.74,0,0,1-.743.746H22.621v1.786Zm15.332-2.6,4.036-6.249,3.753,2.441A3.624,3.624,0,0,1,37.4,42.709a7.444,7.444,0,0,0-3.8,2.425ZM37.1,36.455l5.449-8.429,4.716,3.07-5.45,8.429Zm-.711-1.676V10.391H33V6.924h4.687A2.161,2.161,0,0,1,39.848,9.1V29.434L36.393,34.78Zm14.543-4.251a.668.668,0,0,1-.191-.916l3.7-5.724-1.5-.983-4.459,6.873-5.223-3.407,5.505-8.5a2.835,2.835,0,0,1,3.919-.841l.473.309a2.869,2.869,0,0,1,.831,3.941l-.332.517L55.7,23.139h0a.67.67,0,0,1,.193.924l-4.061,6.274a.654.654,0,0,1-.548.3A.622.622,0,0,1,50.927,30.529Zm-42.1-19.11V5.743H14.27V5.676a5.662,5.662,0,1,1,11.325,0v.066h5.431v5.676Z" fill="#fff"/>
</svg>
