<svg xmlns="http://www.w3.org/2000/svg" width="38.079" height="47.24" viewBox="0 0 38.079 47.24">
  <g id="Group_55624" data-name="Group 55624" transform="translate(0 0)">
    <g id="Group_55623" data-name="Group 55623">
      <path id="Path_37596" data-name="Path 37596" d="M509.542,128.112a.47.47,0,0,1-.186.256Q494.143,143.585,478.93,158.8c-.168.168-.252.175-.424,0q-3.423-3.441-6.864-6.864c-.171-.17-.168-.255,0-.424q11.614-11.6,23.217-23.212a.558.558,0,0,1,.429-.2q7.011.009,14.021,0Z" transform="translate(-471.515 -128.107)" fill="#54c4f7"/>
      <path id="Path_37597" data-name="Path 37597" d="M667.333,369.372c.046-.052.089-.108.138-.157q2.565-2.567,5.129-5.135a.5.5,0,0,1,.389-.168q7.034.006,14.069,0h.179c.019.119-.067.154-.117.2q-6.162,6.166-12.328,12.329a1.878,1.878,0,0,1-.162.13c-.13-.011-.186-.123-.264-.2q-3.4-3.4-6.8-6.8C667.493,369.508,667.411,369.442,667.333,369.372Z" transform="translate(-649.236 -342.119)" fill="#54c4f7"/>
      <path id="Path_37598" data-name="Path 37598" d="M678.587,505.73c.059.05.122.1.177.151q5.972,5.971,11.945,11.941a1.521,1.521,0,0,0,.231.16l-.061.088h-.251q-6.985,0-13.97,0a.5.5,0,0,1-.4-.136q-2.42-2.435-4.851-4.859a1.189,1.189,0,0,1-.081-.1c.062-.071.126-.14.186-.214.128-.158.33-.255.394-.467.155-.056.311-.109.465-.167.771-.288,1.568-.506,2.324-.837a19.994,19.994,0,0,0,2.22-.77.4.4,0,0,0,.25-.49c-.065-.42-.125-.84-.2-1.258a1.7,1.7,0,0,1,.269-1.461c.224-.278.449-.554.691-.817A4.615,4.615,0,0,0,678.587,505.73Z" transform="translate(-652.86 -470.831)" fill="#02579a"/>
      <path id="Path_37599" data-name="Path 37599" d="M596.514,422.992c.078.07.16.136.234.209q3.4,3.4,6.8,6.8c.078.077.133.19.264.2l0,.1a.237.237,0,0,0-.185.073q-.579.6-1.163,1.187a.2.2,0,0,0-.109.165l0,0c-.11.005-.163.1-.229.162q-1.087,1.086-2.17,2.175l-3.342,3.345-.123.081c-.066-.057-.135-.11-.2-.171q-3.43-3.428-6.861-6.854c-.153-.152-.187-.23-.012-.4q3.467-3.446,6.918-6.908C596.394,423.093,596.455,423.044,596.514,422.992Z" transform="translate(-578.417 -395.739)" fill="#29b5f5"/>
      <path id="Path_37600" data-name="Path 37600" d="M709.007,503.333q.582-.593,1.163-1.187a.237.237,0,0,1,.185-.073l.336.338a4.61,4.61,0,0,1-.662.765c-.243.264-.467.539-.691.817a1.7,1.7,0,0,0-.269,1.461c.075.418.135.839.2,1.258a.4.4,0,0,1-.25.49,20.007,20.007,0,0,1-2.22.77,2.716,2.716,0,0,0-.039-.468,2.055,2.055,0,0,1,.25-1.586,11.35,11.35,0,0,1,1.3-1.705,2.785,2.785,0,0,0,.592-.718l0,0C709.013,503.495,709.009,503.413,709.007,503.333Z" transform="translate(-684.965 -467.512)" fill="#01508e"/>
      <path id="Path_37601" data-name="Path 37601" d="M667.07,577.044l.123-.081c.1.131.2.021.281-.008a4.69,4.69,0,0,1,.569-.193c-.064.212-.266.309-.394.467-.06.073-.124.142-.186.213A1.943,1.943,0,0,1,667.07,577.044Z" transform="translate(-648.997 -535.298)" fill="#01508e"/>
      <path id="Path_37602" data-name="Path 37602" d="M669.252,522.937a4.687,4.687,0,0,0-.569.193c-.083.029-.185.139-.281.008l3.342-3.345q1.086-1.087,2.17-2.175c.066-.066.119-.156.229-.162a2.787,2.787,0,0,1-.592.718,11.352,11.352,0,0,0-1.3,1.7,2.055,2.055,0,0,0-.25,1.586,2.7,2.7,0,0,1,.039.468c-.756.331-1.553.549-2.324.837C669.563,522.828,669.407,522.881,669.252,522.937Z" transform="translate(-650.206 -481.473)" fill="#003055"/>
      <path id="Path_37603" data-name="Path 37603" d="M730.6,515.708c0,.08.006.162-.109.165A.2.2,0,0,1,730.6,515.708Z" transform="translate(-706.553 -479.887)" fill="#003055"/>
    </g>
  </g>
</svg>
