<svg xmlns="http://www.w3.org/2000/svg" width="508.744" height="406.425" viewBox="0 0 508.744 406.425">
  <g id="App_development-rafiki_1_" data-name="App development-rafiki (1)" transform="translate(-51.29 -113.92)">
    <g id="freepik--Shadow--inject-46" transform="translate(51.29 490.643)">
      <ellipse id="freepik--path--inject-46" cx="254.372" cy="14.851" rx="254.372" ry="14.851" fill="#e3edf2"/>
    </g>
    <g id="freepik--Screen--inject-46" transform="translate(200.813 121.421)">
      <path id="Path_51241" data-name="Path 51241" d="M332.388,119.641H300.9a4.592,4.592,0,0,0-4.382,3.582l-.21.984a11.151,11.151,0,0,1-10.679,8.724H255.718a8.987,8.987,0,0,1-9.184-8.724v-.984a3.673,3.673,0,0,0-3.752-3.582H211.3a21.148,21.148,0,0,0-20.663,19L165.365,427.973a17.134,17.134,0,0,0,17.331,19.01H303.748a21.161,21.161,0,0,0,20.663-19.01l25.32-289.335a17.134,17.134,0,0,0-17.344-19Z" transform="translate(-165.261 -119.638)" fill="#06b2ff"/>
      <path id="Path_51242" data-name="Path 51242" d="M332.388,119.641H300.9a4.592,4.592,0,0,0-4.382,3.582l-.21.984a11.151,11.151,0,0,1-10.679,8.724H255.718a8.987,8.987,0,0,1-9.184-8.724v-.984a3.673,3.673,0,0,0-3.752-3.582H211.3a21.148,21.148,0,0,0-20.663,19L165.365,427.973a17.134,17.134,0,0,0,17.331,19.01H303.748a21.161,21.161,0,0,0,20.663-19.01l25.32-289.335a17.134,17.134,0,0,0-17.344-19Z" transform="translate(-165.261 -119.638)" fill="#fff" opacity="0.7"/>
      <path id="Path_51243" data-name="Path 51243" d="M299.507,236.25H235.222a3.818,3.818,0,0,1-3.857-4.224l4.841-55.351a4.7,4.7,0,0,1,4.592-4.224h64.285a3.8,3.8,0,0,1,3.857,4.224L304.1,232.025A4.71,4.71,0,0,1,299.507,236.25Z" transform="translate(-144.648 -103.164)" fill="#fff"/>
      <path id="Path_51244" data-name="Path 51244" d="M294.87,357.991H187.291a9.459,9.459,0,0,1-9.577-10.5h0A11.689,11.689,0,0,1,189.127,337H296.706a9.459,9.459,0,0,1,9.577,10.5h0A11.676,11.676,0,0,1,294.87,357.991Z" transform="translate(-161.395 -51.835)" fill="#fff"/>
      <path id="Path_51245" data-name="Path 51245" d="M298.282,165.832h-98.7a5.248,5.248,0,0,1-5.366-5.891l.8-9.184a6.56,6.56,0,0,1,6.4-5.877h98.7a5.313,5.313,0,0,1,5.379,5.877l-.813,9.184A6.56,6.56,0,0,1,298.282,165.832Z" transform="translate(-156.24 -111.764)" fill="#fff"/>
      <path id="Path_51246" data-name="Path 51246" d="M289.612,149.507a1.824,1.824,0,0,1-1.784,1.64,1.483,1.483,0,0,1-1.5-1.64,1.81,1.81,0,0,1,1.784-1.627,1.469,1.469,0,0,1,1.5,1.627Z" transform="translate(-127.497 -110.828)" fill="#fff"/>
      <path id="Path_51247" data-name="Path 51247" d="M289.279,153.25a1.81,1.81,0,0,1-1.771,1.64,1.483,1.483,0,0,1-1.5-1.64,1.811,1.811,0,0,1,1.771-1.64,1.482,1.482,0,0,1,1.5,1.64Z" transform="translate(-127.597 -109.664)" fill="#fff"/>
      <path id="Path_51248" data-name="Path 51248" d="M288.962,156.98a1.824,1.824,0,0,1-1.784,1.64,1.482,1.482,0,0,1-1.5-1.64,1.824,1.824,0,0,1,1.784-1.64,1.482,1.482,0,0,1,1.5,1.64Z" transform="translate(-127.7 -108.501)" fill="#fff"/>
      <path id="Path_51249" data-name="Path 51249" d="M306.684,307.709H186.6a3.8,3.8,0,0,1-3.857-4.224l5.589-63.17a4.7,4.7,0,0,1,4.592-4.224H312.969a3.8,3.8,0,0,1,3.844,4.224l-5.523,63.17A4.7,4.7,0,0,1,306.684,307.709Z" transform="translate(-159.814 -83.312)" fill="#fff"/>
      <path id="Path_51250" data-name="Path 51250" d="M219.973,301.23h-37.39a.918.918,0,0,1-.931-1.023h0a1.141,1.141,0,0,1,1.115-1.036h37.39a.918.918,0,0,1,.931,1.036h0A1.141,1.141,0,0,1,219.973,301.23Z" transform="translate(-160.15 -63.635)" fill="#fff"/>
      <path id="Path_51251" data-name="Path 51251" d="M256.248,301.23H216.116a.918.918,0,0,1-.945-1.023h0a1.141,1.141,0,0,1,1.115-1.036h40.145a.918.918,0,0,1,.932,1.036h0A1.141,1.141,0,0,1,256.248,301.23Z" transform="translate(-149.694 -63.635)" fill="#fff"/>
      <path id="Path_51252" data-name="Path 51252" d="M207.228,308.183H181.986a.931.931,0,0,1-.945-1.036h0a1.155,1.155,0,0,1,1.115-1.036h25.294a.945.945,0,0,1,.945,1.036h0a1.155,1.155,0,0,1-1.168,1.036Z" transform="translate(-160.341 -61.47)" fill="#fff"/>
      <path id="Path_51253" data-name="Path 51253" d="M247.717,308.183H206.286a.931.931,0,0,1-.945-1.036h0a1.154,1.154,0,0,1,1.128-1.036h41.418a.931.931,0,0,1,.945,1.036h0a1.141,1.141,0,0,1-1.115,1.036Z" transform="translate(-152.76 -61.47)" fill="#fff"/>
      <path id="Path_51254" data-name="Path 51254" d="M248.8,315.12H181.376a.918.918,0,0,1-.945-1.023h0a1.154,1.154,0,0,1,1.128-1.036H248.98a.945.945,0,0,1,.945,1.036h0a1.155,1.155,0,0,1-1.128,1.023Z" transform="translate(-160.531 -59.302)" fill="#fff"/>
      <path id="Path_51255" data-name="Path 51255" d="M242.283,315.12h-4.447a.918.918,0,0,1-.945-1.023h0a1.141,1.141,0,0,1,1.115-1.036h4.461a.918.918,0,0,1,.932,1.036h0a1.141,1.141,0,0,1-1.115,1.023Z" transform="translate(-142.919 -59.302)" fill="#fff"/>
      <path id="Path_51256" data-name="Path 51256" d="M212.242,322.073H180.756a.945.945,0,0,1-.945-1.036h0A1.154,1.154,0,0,1,180.939,320h31.487a.931.931,0,0,1,.945,1.036h0A1.155,1.155,0,0,1,212.242,322.073Z" transform="translate(-160.724 -57.137)" fill="#fff"/>
      <path id="Path_51257" data-name="Path 51257" d="M248.986,322.073h-39.2a.945.945,0,0,1-.945-1.036h0A1.154,1.154,0,0,1,209.969,320h39.188a.931.931,0,0,1,.945,1.036h0A1.155,1.155,0,0,1,248.986,322.073Z" transform="translate(-151.668 -57.137)" fill="#fff"/>
      <path id="Path_51258" data-name="Path 51258" d="M218.921,329.01H180.153a.918.918,0,0,1-.931-1.036h0a1.141,1.141,0,0,1,1.115-1.023h38.755a.918.918,0,0,1,.945,1.023h0A1.141,1.141,0,0,1,218.921,329.01Z" transform="translate(-160.909 -54.969)" fill="#fff"/>
      <path id="Path_51259" data-name="Path 51259" d="M245.947,329.01H214.723a.918.918,0,0,1-.931-1.036h0a1.141,1.141,0,0,1,1.115-1.023h31.224a.918.918,0,0,1,.945,1.023h0a1.154,1.154,0,0,1-1.128,1.036Z" transform="translate(-150.125 -54.969)" fill="#fff"/>
      <path id="Path_51260" data-name="Path 51260" d="M295.441,229.783a1.312,1.312,0,0,1-1.863.118l-53.7-51.244a1.312,1.312,0,0,1,0-1.85h0a1.312,1.312,0,0,1,1.863-.118l53.7,51.244A1.312,1.312,0,0,1,295.441,229.783Z" transform="translate(-142.103 -101.945)" fill="#06b2ff"/>
      <path id="Path_51261" data-name="Path 51261" d="M236.234,222.914h0a1.312,1.312,0,0,1,.275-1.863L263.9,198.656a1.312,1.312,0,0,1,1.837.118h0a1.312,1.312,0,0,1-.276,1.85l-27.393,22.408a1.312,1.312,0,0,1-1.837-.118Z" transform="translate(-143.206 -95.089)" fill="#06b2ff"/>
      <path id="Path_51262" data-name="Path 51262" d="M263.213,200.85h0a1.312,1.312,0,0,1,.276-1.85l27.446-22.434a1.312,1.312,0,0,1,1.837.118h0a1.312,1.312,0,0,1-.275,1.85l-27.446,22.434a1.312,1.312,0,0,1-1.837-.118Z" transform="translate(-134.789 -101.979)" fill="#06b2ff"/>
      <g id="Group_69955" data-name="Group 69955" transform="translate(97.396 74.411)" opacity="0.7">
        <path id="Path_51263" data-name="Path 51263" d="M295.441,229.783a1.312,1.312,0,0,1-1.863.118l-53.7-51.244a1.312,1.312,0,0,1,0-1.85h0a1.312,1.312,0,0,1,1.863-.118l53.7,51.244A1.312,1.312,0,0,1,295.441,229.783Z" transform="translate(-239.499 -176.356)" fill="#fff"/>
      </g>
      <g id="Group_69956" data-name="Group 69956" transform="translate(92.758 103.248)" opacity="0.7">
        <path id="Path_51264" data-name="Path 51264" d="M236.234,222.914h0a1.312,1.312,0,0,1,.275-1.863L263.9,198.656a1.312,1.312,0,0,1,1.837.118h0a1.312,1.312,0,0,1-.276,1.85l-27.393,22.408a1.312,1.312,0,0,1-1.837-.118Z" transform="translate(-235.964 -198.336)" fill="#fff"/>
      </g>
      <g id="Group_69957" data-name="Group 69957" transform="translate(128.16 74.267)" opacity="0.7">
        <path id="Path_51265" data-name="Path 51265" d="M263.213,200.85h0a1.312,1.312,0,0,1,.276-1.85l27.446-22.434a1.312,1.312,0,0,1,1.837.118h0a1.312,1.312,0,0,1-.275,1.85l-27.446,22.434a1.312,1.312,0,0,1-1.837-.118Z" transform="translate(-262.949 -176.246)" fill="#fff"/>
      </g>
    </g>
    <g id="freepik--Icons--inject-46" transform="translate(119.668 115.127)">
      <path id="Path_51266" data-name="Path 51266" d="M171.274,114.84H154.219A6.245,6.245,0,0,0,148,121.085V138.14a6.245,6.245,0,0,0,6.245,6.245H171.3a6.245,6.245,0,0,0,6.245-6.245V121.085a6.245,6.245,0,0,0-6.271-6.245Zm-8.488,6.035c2.558,0,3.936,2.086,3.936,4.644s-1.378,4.644-3.936,4.644-3.936-2.073-3.936-4.644,1.364-4.644,3.936-4.644Zm10.246,17.409H152.526a.63.63,0,0,1-.446-.184l1.312-3.582a5.851,5.851,0,0,1,5.5-3.857h7.754a5.864,5.864,0,0,1,5.51,3.857l1.312,3.582a.6.6,0,0,1-.433.184Z" transform="translate(-89.501 -114.84)" fill="#06b2ff"/>
      <path id="Path_51267" data-name="Path 51267" d="M171.274,114.84H154.219A6.245,6.245,0,0,0,148,121.085V138.14a6.245,6.245,0,0,0,6.245,6.245H171.3a6.245,6.245,0,0,0,6.245-6.245V121.085a6.245,6.245,0,0,0-6.271-6.245Zm-8.488,6.035c2.558,0,3.936,2.086,3.936,4.644s-1.378,4.644-3.936,4.644-3.936-2.073-3.936-4.644,1.364-4.644,3.936-4.644Zm10.246,17.409H152.526a.63.63,0,0,1-.446-.184l1.312-3.582a5.851,5.851,0,0,1,5.5-3.857h7.754a5.864,5.864,0,0,1,5.51,3.857l1.312,3.582a.6.6,0,0,1-.433.184Z" transform="translate(-89.501 -114.84)" fill="#fff" opacity="0.7"/>
      <path id="Path_51268" data-name="Path 51268" d="M124.729,168.12H111.82a8.4,8.4,0,0,0-8.41,8.4v12.909a8.41,8.41,0,0,0,8.41,8.41h12.909a8.4,8.4,0,0,0,8.4-8.41V176.516a8.383,8.383,0,0,0-8.4-8.4Zm-6.455,21.9s-5.248-5.759-5.248-8.7a5.307,5.307,0,1,1,10.614,0c-.066,2.939-5.366,8.7-5.366,8.7Z" transform="translate(-103.41 -98.22)" fill="#06b2ff"/>
      <path id="Path_51269" data-name="Path 51269" d="M115.32,176.34a2.427,2.427,0,1,0,2.414,2.414A2.427,2.427,0,0,0,115.32,176.34Z" transform="translate(-100.456 -95.656)" fill="#06b2ff"/>
      <g id="Group_69958" data-name="Group 69958" transform="translate(0 69.9)" opacity="0.7">
        <path id="Path_51270" data-name="Path 51270" d="M124.729,168.12H111.82a8.4,8.4,0,0,0-8.41,8.4v12.909a8.41,8.41,0,0,0,8.41,8.41h12.909a8.4,8.4,0,0,0,8.4-8.41V176.516a8.383,8.383,0,0,0-8.4-8.4Zm-6.455,21.9s-5.248-5.759-5.248-8.7a5.307,5.307,0,1,1,10.614,0c-.066,2.939-5.366,8.7-5.366,8.7Z" transform="translate(-103.41 -168.12)" fill="#fff"/>
        <path id="Path_51271" data-name="Path 51271" d="M115.32,176.34a2.427,2.427,0,1,0,2.414,2.414A2.427,2.427,0,0,0,115.32,176.34Z" transform="translate(-100.456 -165.556)" fill="#fff"/>
      </g>
      <path id="Path_51272" data-name="Path 51272" d="M335.7,142.891l8.646-5.589-8.646-5.6Z" transform="translate(-30.95 -109.581)" fill="#06b2ff"/>
      <path id="Path_51273" data-name="Path 51273" d="M349.777,124.34H333.3a7.019,7.019,0,0,0-7.019,7.019v16.478a7.032,7.032,0,0,0,7.019,7.019h16.478a7.019,7.019,0,0,0,7.019-7.019V131.359a7.006,7.006,0,0,0-7.019-7.019Zm-8.239,26.239a11.013,11.013,0,1,0,0-.013Z" transform="translate(-33.888 -111.877)" fill="#06b2ff"/>
      <g id="Group_69959" data-name="Group 69959" transform="translate(292.392 12.463)" opacity="0.7">
        <path id="Path_51274" data-name="Path 51274" d="M335.7,142.891l8.646-5.589-8.646-5.6Z" transform="translate(-323.342 -122.044)" fill="#fff"/>
        <path id="Path_51275" data-name="Path 51275" d="M349.777,124.34H333.3a7.019,7.019,0,0,0-7.019,7.019v16.478a7.032,7.032,0,0,0,7.019,7.019h16.478a7.019,7.019,0,0,0,7.019-7.019V131.359a7.006,7.006,0,0,0-7.019-7.019Zm-8.239,26.239a11.013,11.013,0,1,0,0-.013Z" transform="translate(-326.28 -124.34)" fill="#fff"/>
      </g>
    </g>
    <g id="freepik--Gears--inject-46" transform="translate(384.746 177.378)">
      <path id="Path_51276" data-name="Path 51276" d="M362.422,175.7v-1.01l1.981-1.1a13.012,13.012,0,0,0-.735-2.742h-2.257a11.18,11.18,0,0,0-1.023-1.758l1.168-1.929a13.922,13.922,0,0,0-2.007-2.02l-1.942,1.168a11.594,11.594,0,0,0-1.745-1.01v-2.27a14.29,14.29,0,0,0-2.742-.735l-1.1,1.981H350l-1.1-1.981a14.81,14.81,0,0,0-2.742.735v2.27a10.974,10.974,0,0,0-1.745,1.01l-1.942-1.168a13.367,13.367,0,0,0-2.02,2.02l1.168,1.929a12.232,12.232,0,0,0-1.01,1.758h-2.257a13.882,13.882,0,0,0-.748,2.742l1.981,1.1v2.02l-1.981,1.1a13.644,13.644,0,0,0,.748,2.742H340.6a12.232,12.232,0,0,0,1.01,1.758l-1.168,1.942a13.919,13.919,0,0,0,2.02,2.007l1.942-1.168a10.063,10.063,0,0,0,1.745,1.01v2.27a13.855,13.855,0,0,0,2.742.735l1.1-1.981h2.02l1.1,1.981a13.385,13.385,0,0,0,2.742-.735V186.1a10.572,10.572,0,0,0,1.745-1.01l1.942,1.168a14.511,14.511,0,0,0,2.007-2.007l-1.168-1.942a11.181,11.181,0,0,0,1.023-1.758h2.257a12.808,12.808,0,0,0,.735-2.742l-1.981-1.1C362.4,176.341,362.422,176.039,362.422,175.7Zm-11.44,7.767a7.767,7.767,0,1,1,7.767-7.767,7.767,7.767,0,0,1-7.767,7.767Z" transform="translate(-295.434 -162.29)" fill="#06b2ff"/>
      <path id="Path_51277" data-name="Path 51277" d="M362.422,175.7v-1.01l1.981-1.1a13.012,13.012,0,0,0-.735-2.742h-2.257a11.18,11.18,0,0,0-1.023-1.758l1.168-1.929a13.922,13.922,0,0,0-2.007-2.02l-1.942,1.168a11.594,11.594,0,0,0-1.745-1.01v-2.27a14.29,14.29,0,0,0-2.742-.735l-1.1,1.981H350l-1.1-1.981a14.81,14.81,0,0,0-2.742.735v2.27a10.974,10.974,0,0,0-1.745,1.01l-1.942-1.168a13.367,13.367,0,0,0-2.02,2.02l1.168,1.929a12.232,12.232,0,0,0-1.01,1.758h-2.257a13.882,13.882,0,0,0-.748,2.742l1.981,1.1v2.02l-1.981,1.1a13.644,13.644,0,0,0,.748,2.742H340.6a12.232,12.232,0,0,0,1.01,1.758l-1.168,1.942a13.919,13.919,0,0,0,2.02,2.007l1.942-1.168a10.063,10.063,0,0,0,1.745,1.01v2.27a13.855,13.855,0,0,0,2.742.735l1.1-1.981h2.02l1.1,1.981a13.385,13.385,0,0,0,2.742-.735V186.1a10.572,10.572,0,0,0,1.745-1.01l1.942,1.168a14.511,14.511,0,0,0,2.007-2.007l-1.168-1.942a11.181,11.181,0,0,0,1.023-1.758h2.257a12.808,12.808,0,0,0,.735-2.742l-1.981-1.1C362.4,176.341,362.422,176.039,362.422,175.7Zm-11.44,7.767a7.767,7.767,0,1,1,7.767-7.767,7.767,7.767,0,0,1-7.767,7.767Z" transform="translate(-295.434 -162.29)" fill="#fff" opacity="0.7"/>
      <path id="Path_51278" data-name="Path 51278" d="M342.548,206.994a11.514,11.514,0,0,0-.066-1.509l2.965-1.64a20.492,20.492,0,0,0-1.1-4.12l-3.385.066a16.859,16.859,0,0,0-1.522-2.624l1.745-2.9a20.321,20.321,0,0,0-3-3L335.28,193a17.9,17.9,0,0,0-2.624-1.509V188.1a20.138,20.138,0,0,0-4.106-1.1l-1.64,2.965h-3.017l-1.6-2.965a20.6,20.6,0,0,0-4.106,1.1v3.385A17.762,17.762,0,0,0,315.562,193l-2.834-1.732a20.412,20.412,0,0,0-3.017,3l1.745,2.9a16.793,16.793,0,0,0-1.509,2.624l-3.385-.066a19.678,19.678,0,0,0-1.1,4.12l2.965,1.64a14.5,14.5,0,0,0,0,3.017l-2.965,1.653a19.743,19.743,0,0,0,1.1,4.106l3.385-.066a16.221,16.221,0,0,0,1.509,2.624l-1.745,2.9a20.412,20.412,0,0,0,3.017,3l2.9-1.732a16.662,16.662,0,0,0,2.624,1.509v3.385a19.745,19.745,0,0,0,4.106,1.1l1.653-2.965a14.494,14.494,0,0,0,3.017,0l1.64,2.965a19.326,19.326,0,0,0,4.106-1.1V222.5a16.793,16.793,0,0,0,2.624-1.509l2.9,1.732a20.32,20.32,0,0,0,3-3l-1.745-2.9a16.286,16.286,0,0,0,1.522-2.624l3.385.066a20.6,20.6,0,0,0,1.1-4.106L342.6,208.5A9.669,9.669,0,0,1,342.548,206.994Zm-17.055,6.743a6.779,6.779,0,1,0-.039,0Z" transform="translate(-305.46 -154.582)" fill="#06b2ff"/>
      <path id="Path_51279" data-name="Path 51279" d="M342.548,206.994a11.514,11.514,0,0,0-.066-1.509l2.965-1.64a20.492,20.492,0,0,0-1.1-4.12l-3.385.066a16.859,16.859,0,0,0-1.522-2.624l1.745-2.9a20.321,20.321,0,0,0-3-3L335.28,193a17.9,17.9,0,0,0-2.624-1.509V188.1a20.138,20.138,0,0,0-4.106-1.1l-1.64,2.965h-3.017l-1.6-2.965a20.6,20.6,0,0,0-4.106,1.1v3.385A17.762,17.762,0,0,0,315.562,193l-2.834-1.732a20.412,20.412,0,0,0-3.017,3l1.745,2.9a16.793,16.793,0,0,0-1.509,2.624l-3.385-.066a19.678,19.678,0,0,0-1.1,4.12l2.965,1.64a14.5,14.5,0,0,0,0,3.017l-2.965,1.653a19.743,19.743,0,0,0,1.1,4.106l3.385-.066a16.221,16.221,0,0,0,1.509,2.624l-1.745,2.9a20.412,20.412,0,0,0,3.017,3l2.9-1.732a16.662,16.662,0,0,0,2.624,1.509v3.385a19.745,19.745,0,0,0,4.106,1.1l1.653-2.965a14.494,14.494,0,0,0,3.017,0l1.64,2.965a19.326,19.326,0,0,0,4.106-1.1V222.5a16.793,16.793,0,0,0,2.624-1.509l2.9,1.732a20.32,20.32,0,0,0,3-3l-1.745-2.9a16.286,16.286,0,0,0,1.522-2.624l3.385.066a20.6,20.6,0,0,0,1.1-4.106L342.6,208.5A9.669,9.669,0,0,1,342.548,206.994Zm-17.055,6.743a6.779,6.779,0,1,0-.039,0Z" transform="translate(-305.46 -154.582)" fill="#fff" opacity="0.7"/>
    </g>
    <g id="freepik--speech-bubbles--inject-46" transform="translate(236.969 113.92)">
      <path id="Path_51280" data-name="Path 51280" d="M298.76,144.921V151.8l-6.56,3.45a1.6,1.6,0,0,0,0,2.821l6.56,3.45v6.875a2.768,2.768,0,0,0,2.768,2.768H325a2.781,2.781,0,0,0,2.781-2.768V144.921A2.781,2.781,0,0,0,325,142.14h-23.51A2.768,2.768,0,0,0,298.76,144.921Z" transform="translate(-162.082 -105.117)" fill="#06b2ff"/>
      <g id="Group_69960" data-name="Group 69960" transform="translate(143.067 43.688)" opacity="0.9">
        <path id="Path_51281" data-name="Path 51281" d="M303.51,150.5h13.342a1.64,1.64,0,1,0,0-3.28H303.51a1.64,1.64,0,1,0,0,3.28Z" transform="translate(-301.87 -147.22)" fill="#fff"/>
        <path id="Path_51282" data-name="Path 51282" d="M316.852,152H303.51a1.64,1.64,0,1,0,0,3.28h13.342a1.64,1.64,0,1,0,0-3.28Z" transform="translate(-301.87 -145.729)" fill="#fff"/>
        <path id="Path_51283" data-name="Path 51283" d="M316.852,156.69H303.51a1.64,1.64,0,1,0,0,3.28h13.342a1.64,1.64,0,1,0,0-3.28Z" transform="translate(-301.87 -144.266)" fill="#fff"/>
      </g>
      <path id="Path_51284" data-name="Path 51284" d="M196.861,142.888h5.6l2.886,5.471a2.23,2.23,0,0,0,3.936,0l2.886-5.471h5.6a4.041,4.041,0,0,0,4.041-4.054V117.961a4.041,4.041,0,0,0-4.041-4.041H196.861a4.028,4.028,0,0,0-4.041,4.041v20.991A4.041,4.041,0,0,0,196.861,142.888Z" transform="translate(-192.82 -113.92)" fill="#06b2ff"/>
      <path id="Path_51285" data-name="Path 51285" d="M205.415,118.69l-6.455,3.778v11.047h4.8V126.1h3.319v7.412h4.8V122.468Z" transform="translate(-190.905 -112.432)" fill="#fff" opacity="0.9"/>
      <path id="Path_51286" data-name="Path 51286" d="M249.605,366.476H244.62l-3.214-6.114a1.863,1.863,0,0,0-3.28,0l-3.214,6.114h-5.117a4.6,4.6,0,0,0-4.6,4.6v19.81a4.6,4.6,0,0,0,4.6,4.6h19.81a4.6,4.6,0,0,0,4.6-4.6v-19.81a4.6,4.6,0,0,0-4.6-4.6Z" transform="translate(-182.723 -37.35)" fill="#06b2ff"/>
      <path id="Path_51287" data-name="Path 51287" d="M241.3,371.059a7.163,7.163,0,1,0-1.01,10.968,1.653,1.653,0,0,0,.433.866l4.461,4.448a1.6,1.6,0,1,0,2.27-2.27L243,380.623a1.613,1.613,0,0,0-.879-.446A7.189,7.189,0,0,0,241.3,371.059Zm-1.522,8.62a5.025,5.025,0,1,1,1.474-3.555,5.025,5.025,0,0,1-1.474,3.555Z" transform="translate(-181.513 -34.363)" fill="#fff" opacity="0.9"/>
    </g>
    <g id="freepik--character-2--inject-46" transform="translate(340.782 224.796)">
      <path id="Path_51288" data-name="Path 51288" d="M420.445,265.072s-10.692,26.5-21.162,29.361-26.239.538-26.239.538l-4.88,1.312-4.789-.708h-.171l-5.392-.131a1.023,1.023,0,0,1-.918-1.614l1.928-2.624a1.312,1.312,0,0,1,.643-.459l5.143-1.653a1.417,1.417,0,0,1,.617,0l7.872,1.246s21.844-3.582,24.074-5.6,8.8-23.208,8.8-23.208Z" transform="translate(-245.512 -178.751)" fill="#eec1bb"/>
      <path id="Path_51289" data-name="Path 51289" d="M373.589,283.646l-.512.079-7.872-1.246a1.418,1.418,0,0,0-.617,0l-5.143,1.653a1.312,1.312,0,0,0-.643.459l-1.929,2.624a1.023,1.023,0,0,0,.918,1.614l5.392.131h.171l3.214.472a20.6,20.6,0,0,0,7.019-5.786Z" transform="translate(-245.518 -172.227)" opacity="0.1"/>
      <path id="Path_51290" data-name="Path 51290" d="M415.65,244.35c-7.767-2.545-18.7,3.293-22.88,27.747l16.124,4.762S426.749,248,415.65,244.35Z" transform="translate(-234.262 -184.281)" fill="#06b2ff"/>
      <path id="Path_51291" data-name="Path 51291" d="M375.77,220.206c0,.813.433,1.456.958,1.456s.984-.7.945-1.482-.433-1.443-.958-1.43S375.77,219.406,375.77,220.206Z" transform="translate(-239.564 -192.095)" fill="#263238"/>
      <path id="Path_51292" data-name="Path 51292" d="M379.1,220.47l-3.818,6.31s1.312,1.5,4.185.394Z" transform="translate(-239.717 -191.559)" fill="#d4827d"/>
      <path id="Path_51293" data-name="Path 51293" d="M379.682,216.189a.407.407,0,0,1-.38.131,3.293,3.293,0,0,0-2.873.905.433.433,0,0,1-.59,0,.446.446,0,0,1,0-.6,4.08,4.08,0,0,1,3.621-1.168.42.42,0,0,1,.367.472h0a.5.5,0,0,1-.144.262Z" transform="translate(-239.58 -193.142)" fill="#263238"/>
      <path id="Path_51294" data-name="Path 51294" d="M406.411,218.814c.59,10.666,1.076,15.179-3.634,21.24-7.517,6.494-20.322,7.531-24.1-2.742-3.4-9.184-3.792-25.1,6.074-30.594a14.576,14.576,0,0,1,19.837,5.654,14.812,14.812,0,0,1,1.823,6.442Z" transform="translate(-239.336 -196.423)" fill="#eec1bb"/>
      <path id="Path_51295" data-name="Path 51295" d="M387.97,234.092l2.7,15.809,13.172-3.044-4.6-16.137Z" transform="translate(-235.759 -188.361)" fill="#eec1bb"/>
      <path id="Path_51296" data-name="Path 51296" d="M382.015,221.611c.669-6.927-1.719,1.076-4.92-8.068s11.926-16.57,14.34-14.864,1.036,4.316,9.039,5.8a9.092,9.092,0,0,1,7.662,9.249s4.6,2.125,2.965,12.017a40.539,40.539,0,0,1-7.872,17.383s-3.031-3.122-7.872-.249a15.546,15.546,0,0,1-4.684-4.775c-2.152-3.227-2.821-6.3-5.772-6.56C378.735,230.978,381.792,223.894,382.015,221.611Z" transform="translate(-239.289 -198.433)" fill="#263238"/>
      <path id="Path_51297" data-name="Path 51297" d="M400,213.22s6.56-4.015,3.647-8.226S402.138,209.639,400,213.22Z" transform="translate(-232.006 -196.733)" fill="#263238"/>
      <path id="Path_51298" data-name="Path 51298" d="M382.669,219.507a8.239,8.239,0,0,0-2.086,5.943c.184,2.886,3.017,3.4,5.248,1.824s4.342-4.644,3.057-7.176a3.713,3.713,0,0,0-6.219-.59Z" transform="translate(-238.067 -192.302)" fill="#ffc3bd"/>
      <path id="Path_51299" data-name="Path 51299" d="M388.16,234.976l1.076,6.271a11.808,11.808,0,0,1,2.965-8.567A5.313,5.313,0,0,0,388.16,234.976Z" transform="translate(-235.7 -187.75)" opacity="0.1"/>
      <rect id="Rectangle_28160" data-name="Rectangle 28160" width="3.765" height="22.211" transform="translate(56.085 88.001)" fill="#06b2ff"/>
      <rect id="Rectangle_28161" data-name="Rectangle 28161" width="3.765" height="22.211" transform="translate(56.085 88.001)" fill="#fff" opacity="0.7"/>
      <path id="Path_51300" data-name="Path 51300" d="M301.593,231.89h-9.38a6.363,6.363,0,0,0-6.363,6.363v43.464a6.363,6.363,0,0,0,6.363,6.363h9.38Z" transform="translate(-267.614 -187.996)" fill="#06b2ff"/>
      <rect id="Rectangle_28162" data-name="Rectangle 28162" width="76.197" height="56.177" rx="4.85" transform="translate(21.516 43.894)" fill="#06b2ff"/>
      <rect id="Rectangle_28163" data-name="Rectangle 28163" width="76.197" height="56.177" rx="4.85" transform="translate(21.516 43.894)" fill="#fff" opacity="0.5"/>
      <rect id="Rectangle_28164" data-name="Rectangle 28164" width="70.95" height="50.929" rx="2.85" transform="translate(24.14 46.517)" fill="#263238"/>
      <path id="Path_51301" data-name="Path 51301" d="M305.69,292.7a13.71,13.71,0,0,1,27.406,0Z" transform="translate(-261.425 -173.172)" fill="#06b2ff"/>
      <path id="Path_51302" data-name="Path 51302" d="M336.856,285.98H309.45v4.447h54.813V288.6Z" transform="translate(-260.252 -171.124)" fill="#06b2ff"/>
      <path id="Path_51303" data-name="Path 51303" d="M336.856,285.98H309.45v4.447h54.813V288.6Z" transform="translate(-260.252 -171.124)" fill="#fff" opacity="0.8"/>
      <path id="Path_51304" data-name="Path 51304" d="M336.856,290.427H309.45V285.98l27.406,2.624Z" transform="translate(-260.252 -171.124)" fill="#06b2ff"/>
      <path id="Path_51305" data-name="Path 51305" d="M336.856,290.427H309.45V285.98l27.406,2.624Z" transform="translate(-260.252 -171.124)" fill="#fff" opacity="0.6"/>
      <path id="Path_51306" data-name="Path 51306" d="M391.885,441.067H335.353a8.58,8.58,0,0,1-8.593-8.58V302.5a8.58,8.58,0,0,1,8.593-8.58h56.531a2.3,2.3,0,0,1,2.3,2.3h0a2.3,2.3,0,0,1-2.3,2.3H335.353a3.936,3.936,0,0,0-4,3.936V432.434a3.936,3.936,0,0,0,4,3.936h56.531a2.3,2.3,0,0,1,2.3,2.3h0a2.3,2.3,0,0,1-2.3,2.4Z" transform="translate(-254.853 -168.647)" fill="#263238"/>
      <g id="Group_69961" data-name="Group 69961" transform="translate(71.907 125.273)" opacity="0.5">
        <path id="Path_51307" data-name="Path 51307" d="M391.885,441.067H335.353a8.58,8.58,0,0,1-8.593-8.58V302.5a8.58,8.58,0,0,1,8.593-8.58h56.531a2.3,2.3,0,0,1,2.3,2.3h0a2.3,2.3,0,0,1-2.3,2.3H335.353a3.936,3.936,0,0,0-4,3.936V432.434a3.936,3.936,0,0,0,4,3.936h56.531a2.3,2.3,0,0,1,2.3,2.3h0a2.3,2.3,0,0,1-2.3,2.4Z" transform="translate(-326.76 -293.92)" fill="#fff"/>
      </g>
      <rect id="Rectangle_28165" data-name="Rectangle 28165" width="80.278" height="6.73" transform="translate(0 119.304)" fill="#06b2ff"/>
      <rect id="Rectangle_28166" data-name="Rectangle 28166" width="80.278" height="6.73" transform="translate(0 119.304)" fill="#fff" opacity="0.2"/>
      <rect id="Rectangle_28167" data-name="Rectangle 28167" width="68.47" height="6.73" transform="translate(76.604 119.304)" fill="#06b2ff"/>
      <rect id="Rectangle_28168" data-name="Rectangle 28168" width="68.47" height="6.73" transform="translate(76.604 119.304)" fill="#fff" opacity="0.5"/>
      <path id="Path_51308" data-name="Path 51308" d="M367.649,369.73l3.791,38.335h-9.079l-9.092-37.338Z" transform="translate(-246.583 -144.999)" fill="#eec1bb"/>
      <path id="Path_51309" data-name="Path 51309" d="M363.4,397l11.584.2a.931.931,0,0,1,.892.748l1.942,9.459a1.561,1.561,0,0,1-1.194,1.837H376.3c-4.185-.144-7.872-.433-13.119-.525-6.127-.1-4.592.656-11.807.643-4.342,0-5.051-4.972-3.214-5.182,8.462-.918,9.38-3.45,12.686-6.415A3.752,3.752,0,0,1,363.4,397Z" transform="translate(-248.474 -136.495)" fill="#263238"/>
      <path id="Path_51310" data-name="Path 51310" d="M370.456,398.055l-2.808-28.325-14.379,1,6.652,27.328Z" transform="translate(-246.583 -144.999)" opacity="0.1"/>
      <path id="Path_51311" data-name="Path 51311" d="M432.721,302.36l-37.233,1.312s-50.155,17.541-51.467,31.014c-1.443,13.88,15.4,77.654,15.4,77.654h14.969s-4.133-46.8-5.707-61.123,52.2-9.59,61.543-21.8C438.769,318.208,432.721,302.36,432.721,302.36Z" transform="translate(-249.496 -166.014)" fill="#263238"/>
      <path id="Path_51312" data-name="Path 51312" d="M432.721,302.36l-37.233,1.312s-50.155,17.541-51.467,31.014c-1.443,13.88,15.4,77.654,15.4,77.654h14.969s-4.133-46.8-5.707-61.123,52.2-9.59,61.543-21.8C438.769,318.208,432.721,302.36,432.721,302.36Z" transform="translate(-249.496 -166.014)" fill="#19325a"/>
      <path id="Path_51313" data-name="Path 51313" d="M373.8,384.59l.328,5.287h-18.5l-1.81-5.287Z" transform="translate(-246.412 -140.363)" fill="#06b2ff"/>
      <path id="Path_51314" data-name="Path 51314" d="M340.961,371.12l1,36.511h-8.921L327.75,371.12Z" transform="translate(-254.544 -144.565)" fill="#eec1bb"/>
      <path id="Path_51315" data-name="Path 51315" d="M334.69,397l11.584.2a.931.931,0,0,1,.892.748l1.942,9.459a1.561,1.561,0,0,1-1.194,1.837h-.328c-4.185-.144-7.872-.433-13.119-.525-6.14-.1-4.592.656-11.807.643-4.343,0-5.051-4.972-3.214-5.182,8.462-.918,9.38-3.45,12.686-6.415A3.726,3.726,0,0,1,334.69,397Z" transform="translate(-257.43 -136.495)" fill="#263238"/>
      <path id="Path_51316" data-name="Path 51316" d="M341.683,397.595l-.722-26.475H327.75l3.844,26.5C334.467,397.634,338.416,397.608,341.683,397.595Z" transform="translate(-254.544 -144.565)" opacity="0.1"/>
      <path id="Path_51317" data-name="Path 51317" d="M423.943,305.443s3.1,28.312-25.7,29.637-51.284,4.618-51.94,14.864,0,62.448,0,62.448H330.651s-6.087-33.008-8.462-53.475c-2.309-19.876-6.56-34.294,13.867-41.024,21.686-7.163,60.231-13.775,60.231-13.775l27.761-1.758Z" transform="translate(-256.907 -166.014)" fill="#364d72"/>
      <path id="Path_51318" data-name="Path 51318" d="M346.6,384.59l-.984,5.287H328.43l-1.81-5.287Z" transform="translate(-254.896 -140.363)" fill="#06b2ff"/>
      <path id="Path_51319" data-name="Path 51319" d="M409.755,244.155s0-6.376-12.9-5.641c-13.7.787-11.112,6.9-11.112,6.9Z" transform="translate(-236.513 -185.949)" fill="#06b2ff"/>
      <path id="Path_51320" data-name="Path 51320" d="M409.755,244.155s0-6.376-12.9-5.641c-13.7.787-11.112,6.9-11.112,6.9Z" transform="translate(-236.513 -185.949)" opacity="0.3"/>
      <path id="Path_51321" data-name="Path 51321" d="M425.581,271.893c-.866,12.608-.564,50.536-.564,50.536s-27.551,1.81-49.171,1.1l-2.506-72.957a6.416,6.416,0,0,1,4.12-5.943c6.114-2.375,20.466-5.064,42.914-2.112C428.113,243.555,426.6,256.989,425.581,271.893Z" transform="translate(-240.323 -185.086)" fill="#06b2ff"/>
      <path id="Path_51322" data-name="Path 51322" d="M391.865,265.072s-10.705,26.5-21.162,29.361-26.239.538-26.239.538l-4.88,1.312-4.775-.708h-.171l-5.405-.131a1.023,1.023,0,0,1-.918-1.614l1.942-2.624a1.312,1.312,0,0,1,.643-.459l5.13-1.653a1.47,1.47,0,0,1,.63,0l7.872,1.246s21.844-3.582,24.061-5.6,8.816-23.208,8.816-23.208Z" transform="translate(-254.427 -178.751)" fill="#eec1bb"/>
      <path id="Path_51323" data-name="Path 51323" d="M377.377,255.3s-1.666,1.981-3.687,4.841l.722,21.122c8.042-3.555,11.23-24.258,11.23-24.258l-5.248-3.7Z" transform="translate(-240.213 -181.315)" opacity="0.1"/>
      <path id="Path_51324" data-name="Path 51324" d="M387.073,244.35c-7.767-2.545-18.708,3.293-22.893,27.747l16.137,4.71S398.172,248,387.073,244.35Z" transform="translate(-243.18 -184.281)" fill="#06b2ff"/>
      <rect id="Rectangle_28169" data-name="Rectangle 28169" width="12.135" height="35.567" transform="translate(142.03 182.802)" fill="#263238"/>
      <rect id="Rectangle_28170" data-name="Rectangle 28170" width="12.135" height="35.567" transform="translate(142.03 182.802)" fill="#fff" opacity="0.6"/>
      <path id="Path_51325" data-name="Path 51325" d="M403.277,400.183V355h-15.9v45.183l-36.2,5.025v5.025l44.147-3.765,44.147,3.765v-5.025Z" transform="translate(-247.235 -149.594)" fill="#263238"/>
      <circle id="Ellipse_1029" data-name="Ellipse 1029" cx="4.789" cy="4.789" r="4.789" transform="translate(98.632 263.381)" fill="#06b2ff"/>
      <circle id="Ellipse_1030" data-name="Ellipse 1030" cx="4.789" cy="4.789" r="4.789" transform="translate(187.45 263.381)" fill="#06b2ff"/>
      <circle id="Ellipse_1031" data-name="Ellipse 1031" cx="4.789" cy="4.789" r="4.789" transform="translate(143.303 263.381)" fill="#06b2ff"/>
      <rect id="Rectangle_28171" data-name="Rectangle 28171" width="12.135" height="8.79" transform="translate(142.03 182.802)" opacity="0.3"/>
      <path id="Path_51326" data-name="Path 51326" d="M449.287,276.32H409.746a12.49,12.49,0,0,0-12.424,11.322l-3.332,35.724a16.465,16.465,0,0,1-15.546,14.9l-38.164,1.915A8.724,8.724,0,0,0,332,348.9v.8a7.229,7.229,0,0,0,7.229,7.229H455.453l6.258-66.909a12.49,12.49,0,0,0-12.424-13.7Z" transform="translate(-253.218 -174.137)" fill="#06b2ff"/>
      <path id="Path_51327" data-name="Path 51327" d="M449.287,276.32H409.746a12.49,12.49,0,0,0-12.424,11.322l-3.332,35.724a16.465,16.465,0,0,1-15.546,14.9l-38.164,1.915A8.724,8.724,0,0,0,332,348.9v.8a7.229,7.229,0,0,0,7.229,7.229H455.453l6.258-66.909a12.49,12.49,0,0,0-12.424-13.7Z" transform="translate(-253.218 -174.137)" fill="#fff" opacity="0.3"/>
      <path id="Path_51328" data-name="Path 51328" d="M352.22,307h5.445v28.482a2.624,2.624,0,0,1-2.624,2.624h-.2a2.624,2.624,0,0,1-2.624-2.624Z" transform="translate(-246.911 -164.567)" fill="#263238"/>
      <path id="Path_51329" data-name="Path 51329" d="M352.22,307h5.445v28.482a2.624,2.624,0,0,1-2.624,2.624h-.2a2.624,2.624,0,0,1-2.624-2.624Z" transform="translate(-246.911 -164.567)" fill="#fff" opacity="0.2"/>
      <path id="Path_51330" data-name="Path 51330" d="M375.109,300.772H363v10.036h12.135a5.025,5.025,0,1,0,0-10.036Z" transform="translate(-243.548 -166.512)" fill="#06b2ff"/>
      <path id="Path_51331" data-name="Path 51331" d="M375.109,300.772H363v10.036h12.135a5.025,5.025,0,1,0,0-10.036Z" transform="translate(-243.548 -166.512)" fill="#fff" opacity="0.5"/>
      <rect id="Rectangle_28172" data-name="Rectangle 28172" width="52.097" height="10.049" rx="3.69" transform="translate(79.464 134.26)" fill="#06b2ff"/>
      <rect id="Rectangle_28173" data-name="Rectangle 28173" width="52.097" height="10.049" rx="3.69" transform="translate(79.464 134.26)" fill="#fff" opacity="0.3"/>
      <path id="Path_51332" data-name="Path 51332" d="M442,356.923H383.87l6.481-69.231a12.49,12.49,0,0,1,12.424-11.322h39.542a12.49,12.49,0,0,1,12.424,13.644l-5.655,60.533A7.124,7.124,0,0,1,442,356.923Z" transform="translate(-237.038 -174.121)" fill="#06b2ff"/>
      <path id="Path_51333" data-name="Path 51333" d="M442,356.923H383.87l6.481-69.231a12.49,12.49,0,0,1,12.424-11.322h39.542a12.49,12.49,0,0,1,12.424,13.644l-5.655,60.533A7.124,7.124,0,0,1,442,356.923Z" transform="translate(-237.038 -174.121)" fill="#fff" opacity="0.5"/>
      <path id="Path_51334" data-name="Path 51334" d="M340.155,441.067H283.623a8.58,8.58,0,0,1-8.593-8.58V302.5a8.58,8.58,0,0,1,8.593-8.58h56.531a2.3,2.3,0,0,1,2.3,2.3h0a2.3,2.3,0,0,1-2.3,2.3H283.623a3.936,3.936,0,0,0-4,3.936V432.434a3.936,3.936,0,0,0,4,3.936h56.531a2.3,2.3,0,0,1,2.3,2.3h0a2.3,2.3,0,0,1-2.3,2.4Z" transform="translate(-270.989 -168.647)" fill="#263238"/>
      <g id="Group_69962" data-name="Group 69962" transform="translate(4.041 125.273)" opacity="0.5">
        <path id="Path_51335" data-name="Path 51335" d="M340.155,441.067H283.623a8.58,8.58,0,0,1-8.593-8.58V302.5a8.58,8.58,0,0,1,8.593-8.58h56.531a2.3,2.3,0,0,1,2.3,2.3h0a2.3,2.3,0,0,1-2.3,2.3H283.623a3.936,3.936,0,0,0-4,3.936V432.434a3.936,3.936,0,0,0,4,3.936h56.531a2.3,2.3,0,0,1,2.3,2.3h0a2.3,2.3,0,0,1-2.3,2.4Z" transform="translate(-275.03 -293.92)" fill="#fff"/>
      </g>
      <path id="Path_51340" data-name="Path 51340" d="M348.392,248.312h-29.23a.682.682,0,0,1-.682-.682h0a.682.682,0,0,1,.682-.63h29.2a.682.682,0,0,1,.682.682h0a.682.682,0,0,1-.656.63Z" transform="translate(-257.435 -183.283)" fill="#fff"/>
      <path id="Path_51342" data-name="Path 51342" d="M336.983,252.9H309.629a.669.669,0,0,1-.669-.682h0a.669.669,0,0,1,.669-.669h27.354a.669.669,0,0,1,.669.669h0a.669.669,0,0,1-.669.682Z" transform="translate(-257.795 -181.851)" fill="#fff"/>
      <path id="Path_51343" data-name="Path 51343" d="M338.09,257.494h-44.5a.682.682,0,0,1-.669-.682h0a.669.669,0,0,1,.669-.682h44.5a.682.682,0,0,1,.682.682h0a.682.682,0,0,1-.682.682Z" transform="translate(-265.409 -180.435)" fill="#fff"/>
      <path id="Path_51344" data-name="Path 51344" d="M340.121,257.494h-9.289a.682.682,0,0,1-.682-.682h0a.682.682,0,0,1,.682-.682h9.289a.682.682,0,0,1,.682.682h0a.682.682,0,0,1-.682.682Z" transform="translate(-253.795 -180.435)" fill="#fff"/>
      <path id="Path_51345" data-name="Path 51345" d="M314.37,262.074H293.589a.669.669,0,0,1-.669-.682h0a.669.669,0,0,1,.669-.682H314.37a.682.682,0,0,1,.682.682h0A.682.682,0,0,1,314.37,262.074Z" transform="translate(-265.409 -179.006)" fill="#fff"/>
      <path id="Path_51346" data-name="Path 51346" d="M338.61,262.074H312.752a.682.682,0,0,1-.682-.682h0a.682.682,0,0,1,.682-.682H338.61a.682.682,0,0,1,.682.682h0A.682.682,0,0,1,338.61,262.074Z" transform="translate(-259.435 -179.006)" fill="#fff"/>
      <path id="Path_51347" data-name="Path 51347" d="M322.806,266.651H293.589a.669.669,0,0,1-.669-.682h0a.669.669,0,0,1,.669-.669h29.217a.669.669,0,0,1,.682.669h0A.682.682,0,0,1,322.806,266.651Z" transform="translate(-265.409 -177.575)" fill="#fff"/>
      <path id="Path_51348" data-name="Path 51348" d="M339.8,266.651H319.162a.682.682,0,0,1-.682-.682h0a.669.669,0,0,1,.682-.669h20.611a.669.669,0,0,1,.669.669h0a.669.669,0,0,1-.643.682Z" transform="translate(-257.435 -177.575)" fill="#fff"/>
      <g id="Google-flutter-logo" transform="translate(29.807 51.255)">
        <path id="Path_51237" data-name="Path 51237" d="M14.949,4.007,21.374,4,10.6,14.773,7.786,17.566l-3.2-3.2Zm-.06,9.619c.083-.11.237-.056.353-.07l6.126,0-5.583,5.577-3.213-3.193Z" transform="translate(-4.59 -4)" fill="#fff"/>
        <path id="Path_51239" data-name="Path 51239" d="M65.36,159.008l3.2-3.2L71.775,159l.013.014-3.225,3.2Z" transform="translate(-60.58 -143.868)" fill="#fff"/>
        <path id="Path_51240" data-name="Path 51240" d="M106.08,199.775l3.225-3.2,5.572,5.577c-2.1,0-4.2,0-6.295,0-.12.027-.194-.083-.27-.15Z" transform="translate(-98.096 -181.431)" fill="#fff"/>
      </g>
    </g>
    <g id="freepik--character-1--inject-46" transform="translate(90.171 163.851)">
      <path id="Path_51349" data-name="Path 51349" d="M142.768,176.82c.538,6.179-.8,17.37-5.458,20.991,7.6,2.742,15.651,7.465,20.794,13.7,5.1-7.426-.7-11.663-.7-11.663-6.56-2.335-5.864-7.308-4.172-11.886Z" transform="translate(-63.338 -144.23)" fill="#b97964"/>
      <path id="Path_51350" data-name="Path 51350" d="M160.4,173.073c-.079.774.289,1.443.8,1.5s.971-.551,1.05-1.312-.289-1.443-.8-1.5S160.494,172.3,160.4,173.073Z" transform="translate(-56.138 -145.809)" fill="#263238"/>
      <path id="Path_51351" data-name="Path 51351" d="M161.05,171.857l1.9-.367S161.863,172.894,161.05,171.857Z" transform="translate(-55.932 -145.892)" fill="#263238"/>
      <path id="Path_51352" data-name="Path 51352" d="M160.722,173.39a21.463,21.463,0,0,0,2.322,5.248,3.4,3.4,0,0,1-2.834.262Z" transform="translate(-56.194 -145.3)" fill="#a24e3f"/>
      <path id="Path_51353" data-name="Path 51353" d="M163.019,170.127a.538.538,0,0,0,.315-.171.472.472,0,0,0,0-.643,4.566,4.566,0,0,0-4.054-1.089.485.485,0,0,0-.144.643.433.433,0,0,0,.394.21,3.713,3.713,0,0,1,3.2.905A.472.472,0,0,0,163.019,170.127Z" transform="translate(-56.55 -146.944)" fill="#263238"/>
      <path id="Path_51354" data-name="Path 51354" d="M141.038,172.08c-.3,9.59-.63,13.67,3.647,19.023,6.442,8.042,18.1,6.284,21.227-3.057,2.808-8.41,2.834-22.736-6-27.38S141.313,162.464,141.038,172.08Z" transform="translate(-62.225 -149.749)" fill="#b97964"/>
      <path id="Path_51355" data-name="Path 51355" d="M144.239,192.427c-9.433-1.614-6.73-7.557-6.73-7.557-9.289-1.876-2.112-6.415-2.112-6.415-7.727-3.332,0-6.324,0-6.324-7.452-6.179,3.175-8.318,3.175-8.318-2.624-9.643,6.56-5.681,6.56-5.681,4.985-8.291,9.289-.38,9.289-.38,8.738-11.807,10.863-1.85,10.863-1.85,8.934-2.348,5.51,7.045,5.51,7.045,7.347,1.968,1.574,5.694,1.574,5.694,2.834,3.582-7.412,4.2-7.412,4.2s4.88,7.872,0,10.036l-12.411,9.512S146.81,190.053,144.239,192.427Z" transform="translate(-65.006 -151.979)" fill="#263238"/>
      <path id="Path_51356" data-name="Path 51356" d="M148.39,184.2s6.56-15.743,1.43-29.178l4.329-1.482S159.8,173.075,148.39,184.2Z" transform="translate(-59.882 -151.492)" fill="#06b2ff"/>
      <path id="Path_51357" data-name="Path 51357" d="M153.5,176.738c1.076,2.257,1.5,3.24,3.044,3.936a2.808,2.808,0,0,0,4.119-3.122c-.407-2.257-2.138-5.576-4.539-5.641a3.136,3.136,0,0,0-2.624,4.828Z" transform="translate(-58.443 -145.761)" fill="#b97964"/>
      <path id="Path_51358" data-name="Path 51358" d="M149.77,203.551s8.882,6.56,12.49,9.184l25.7-12.122h0a7.1,7.1,0,0,1,4.329-6.717l1.837-.761L198,191.4a4.487,4.487,0,0,1,4.474.472h0a4.5,4.5,0,0,1,1.666,4.907h0a11.112,11.112,0,0,1-7.872,7.635l-3.752.984s-22.027,16.688-29.9,17.081-19.4-7.334-19.4-7.334Z" transform="translate(-61.497 -139.802)" fill="#b97964"/>
      <path id="Path_51359" data-name="Path 51359" d="M133.036,192.14c6.783,0,14.366,4.224,26.239,11.965a32.6,32.6,0,0,1-9.184,14.536s-6.56-1.758-15.271-9.958C124.325,198.752,128.877,192.153,133.036,192.14Z" transform="translate(-66.122 -139.451)" fill="#263238"/>
      <path id="Path_51360" data-name="Path 51360" d="M246.337,222.287H182.052a3.818,3.818,0,0,1-3.857-4.224l4.841-55.338a4.7,4.7,0,0,1,4.592-4.224h64.285a3.8,3.8,0,0,1,3.844,4.224l-4.841,55.338A4.7,4.7,0,0,1,246.337,222.287Z" transform="translate(-50.591 -149.944)" fill="#06b2ff"/>
      <path id="Path_51361" data-name="Path 51361" d="M246.337,222.287H182.052a3.818,3.818,0,0,1-3.857-4.224l4.841-55.338a4.7,4.7,0,0,1,4.592-4.224h64.285a3.8,3.8,0,0,1,3.844,4.224l-4.841,55.338A4.7,4.7,0,0,1,246.337,222.287Z" transform="translate(-50.591 -149.944)" fill="#fff" opacity="0.4"/>
      <path id="Path_51362" data-name="Path 51362" d="M245.943,219.039a1.771,1.771,0,0,0,1.732-1.6l4.841-55.338a1.443,1.443,0,0,0-1.456-1.6H186.775a1.784,1.784,0,0,0-1.745,1.6L180.2,217.438a1.443,1.443,0,0,0,1.456,1.6Z" transform="translate(-49.961 -149.321)" fill="#fff" opacity="0.7"/>
      <path id="Path_51363" data-name="Path 51363" d="M201.253,180.32,180.262,210.7v.551a1.443,1.443,0,0,0,1.456,1.6h36.419Z" transform="translate(-49.942 -143.138)" fill="#06b2ff"/>
      <path id="Path_51364" data-name="Path 51364" d="M201.253,180.32,180.262,210.7v.551a1.443,1.443,0,0,0,1.456,1.6h36.419Z" transform="translate(-49.942 -143.138)" fill="#fff" opacity="0.3"/>
      <path id="Path_51365" data-name="Path 51365" d="M242.148,210.235,224.555,176.82,198.5,213.948h41.733a1.771,1.771,0,0,0,1.732-1.6Z" transform="translate(-44.25 -144.23)" fill="#06b2ff"/>
      <path id="Path_51366" data-name="Path 51366" d="M215.995,173.727a6.56,6.56,0,0,1-6.415,5.9,5.326,5.326,0,0,1-5.392-5.9,6.56,6.56,0,0,1,6.415-5.917,5.326,5.326,0,0,1,5.392,5.917Z" transform="translate(-42.486 -147.04)" fill="#06b2ff"/>
      <path id="Path_51367" data-name="Path 51367" d="M215.995,173.727a6.56,6.56,0,0,1-6.415,5.9,5.326,5.326,0,0,1-5.392-5.9,6.56,6.56,0,0,1,6.415-5.917,5.326,5.326,0,0,1,5.392,5.917Z" transform="translate(-42.486 -147.04)" fill="#fff" opacity="0.4"/>
      <path id="Path_51368" data-name="Path 51368" d="M92.453,377.37,85.92,396.734l10.01,4.093,7.832-17.869Z" transform="translate(-79.368 -81.67)" fill="#b97964"/>
      <path id="Path_51369" data-name="Path 51369" d="M96.328,395.124a.328.328,0,0,1-.157-.3.275.275,0,0,1,.223-.236c.21,0,4.933-1.1,6.691,0a1.5,1.5,0,0,1,.669.905,1.076,1.076,0,0,1-.341,1.194c-.669.472-2.23.275-3.66-.171A21.581,21.581,0,0,1,96.328,395.124Zm1-.092c2.06.918,4.972,1.8,5.733,1.22.1-.079.236-.21.131-.617a.748.748,0,0,0-.42-.551,1.916,1.916,0,0,0-.5-.223,13.12,13.12,0,0,0-4.946.171Z" transform="translate(-76.171 -76.453)" fill="#06b2ff"/>
      <path id="Path_51370" data-name="Path 51370" d="M96.189,395.874a.289.289,0,0,1,0-.289c0-.131,1.312-3.149,3.162-3.936a2.165,2.165,0,0,1,1.666,0c.722.3.84.761.774,1.076-.157,1.378-3.7,3.017-5.248,3.2a.131.131,0,0,1-.118,0,.249.249,0,0,1-.236-.053Zm4.447-3.713a1.522,1.522,0,0,0-1.05,0,6.691,6.691,0,0,0-2.624,3.057c1.692-.407,4.106-1.8,4.277-2.624,0-.079,0-.289-.446-.472h-.157Z" transform="translate(-76.177 -77.268)" fill="#06b2ff"/>
      <path id="Path_51371" data-name="Path 51371" d="M100.4,394.317l-12.568-3.936a1.063,1.063,0,0,0-1.233.485l-5.431,9.525a1.758,1.758,0,0,0,.643,2.414,1.61,1.61,0,0,0,.341.157c4.552,1.312,8.659,2.309,14.3,4.067,6.665,2.047,4.723,2.322,12.516,4.854,4.7,1.522,7.216-3.582,5.248-4.461-8.8-3.936-8.895-7.032-11.414-11.4a4.225,4.225,0,0,0-2.4-1.706Z" transform="translate(-80.926 -77.626)" fill="#263238"/>
      <path id="Path_51372" data-name="Path 51372" d="M88.51,386.659l10.5,5.3,3.949-9L91.646,377.37Z" transform="translate(-78.561 -81.67)" fill="#263238" opacity="0.2"/>
      <path id="Path_51373" data-name="Path 51373" d="M136.006,240.85s-14.1,10.771-11.086,44.514c.289,3.122,1.312,6.389,1.312,9.958,0,2.375-.656,4.041-1.43,9.38-1.128,7.767-3.2,36.734-5.392,40.5s-3.083,3.1-9.184,13.487c-6.56,11.178-15.087,30.778-21.686,64a37,37,0,0,0,14.746,6.179s36.039-56.833,43.7-77.995c6.861-18.931,15.035-79.346,15.035-79.346l.656-26.239Z" transform="translate(-78.551 -124.256)" fill="#06b2ff"/>
      <path id="Path_51374" data-name="Path 51374" d="M139.02,274.78H128.813s-3.359,32.116,7.74,58.906c1.155-4.3,2.322-9.459,3.464-15.035l4.421-28.285c-.63-4.775-1.115-8.423-1.194-8.659C143.022,280.959,139.02,274.78,139.02,274.78Z" transform="translate(-66.137 -113.672)" opacity="0.1"/>
      <path id="Path_51375" data-name="Path 51375" d="M135.2,383.31l.066,20.584,11.611-.774,1.784-19.81Z" transform="translate(-63.996 -79.817)" fill="#b97964"/>
      <path id="Path_51376" data-name="Path 51376" d="M145.178,398.8a.285.285,0,0,1-.1-.525c.184-.1,4.29-2.624,6.324-2.178a1.535,1.535,0,0,1,.931.63,1.1,1.1,0,0,1,.066,1.246,5.248,5.248,0,0,1-3.516,1.036A20.527,20.527,0,0,1,145.178,398.8Zm.918-.407c2.243.2,5.248.066,5.812-.735.079-.1.144-.276-.079-.63a.787.787,0,0,0-.577-.381,1.824,1.824,0,0,0-.538,0,12.726,12.726,0,0,0-4.618,1.745Z" transform="translate(-60.96 -75.846)" fill="#06b2ff"/>
      <path id="Path_51377" data-name="Path 51377" d="M145.034,399.458a.315.315,0,0,1-.144-.262c0-.144.223-3.411,1.706-4.723a2.112,2.112,0,0,1,1.574-.551c.787,0,1.05.446,1.089.774.3,1.312-2.493,4.054-3.936,4.749a.183.183,0,0,1-.118,0,.249.249,0,0,1-.171.013ZM148,394.472a1.469,1.469,0,0,0-.971.394,6.665,6.665,0,0,0-1.469,3.752c1.456-.931,3.28-3.044,3.175-3.857,0-.079-.066-.289-.577-.315H148Z" transform="translate(-60.973 -76.509)" fill="#06b2ff"/>
      <path id="Path_51378" data-name="Path 51378" d="M147.978,396.895l-13.119.472a1.063,1.063,0,0,0-1,.866l-1.994,10.784a1.758,1.758,0,0,0,1.391,2.06,1.874,1.874,0,0,0,.38,0c4.736-.262,8.934-.669,14.838-.866,6.966-.249,5.248.643,13.421.472,4.946-.118,5.641-5.759,3.542-5.956-9.617-.866-10.719-3.726-14.536-7.019a4.224,4.224,0,0,0-2.926-.813Z" transform="translate(-65.046 -75.586)" fill="#263238"/>
      <path id="Path_51379" data-name="Path 51379" d="M135.239,393.963l12.49-.262.931-10.391H135.2Z" transform="translate(-63.996 -79.817)" fill="#263238" opacity="0.2"/>
      <path id="Path_51380" data-name="Path 51380" d="M132.492,238s-14.077,18.643-3.647,55.1l11.807,53.252s-11.2,24.218-5.248,88.11a53.79,53.79,0,0,0,17.37-.394s13.119-67.473,15.1-90.261c2.191-25.111.879-100.8.879-100.8Z" transform="translate(-67.179 -125.145)" fill="#06b2ff"/>
      <path id="Path_51381" data-name="Path 51381" d="M137.219,193.432s-2.178-9.315,11.807-5.248,12.8,12.03,12.8,12.03Z" transform="translate(-63.405 -141.005)" fill="#263238"/>
      <path id="Path_51382" data-name="Path 51382" d="M137.219,193.432s-2.178-9.315,11.807-5.248,12.8,12.03,12.8,12.03Z" transform="translate(-63.405 -141.005)" fill="#19325a" opacity="0.4"/>
      <path id="Path_51383" data-name="Path 51383" d="M175.952,215.538c0,3.267-1.312,7.99-2.624,13.277-.6,2.506-1.155,5.117-1.522,7.767-1.981,14.431-2.624,29.637-2.624,29.637a57.542,57.542,0,0,1-45.052-8.934s5.5-4.657,4.369-36.918c-.512-14.536-5.759-31.814,18.262-29.1,20.283,2.3,27.1,8.593,28.745,18.446v.38l.118.918A38.438,38.438,0,0,1,175.952,215.538Z" transform="translate(-67.449 -139.812)" fill="#19325a"/>
      <path id="Path_51384" data-name="Path 51384" d="M166.865,212.635c0,3.267-1.312,7.99-2.624,13.277-5.484-6.56-10.981-18.958-10.981-18.958l4.526-6.665L165.763,204a23.615,23.615,0,0,1,.656,2.808c0,.118,0,.249,0,.38l.118.918A38.437,38.437,0,0,1,166.865,212.635Z" transform="translate(-58.362 -136.908)" opacity="0.4"/>
      <path id="Path_51385" data-name="Path 51385" d="M171.962,206.558s7.872,7.767,10.981,10.889l27.21-8.16h0A7.111,7.111,0,0,1,215.4,203.3l1.915-.5,4.093-1.128a4.526,4.526,0,0,1,4.356,1.141h0a4.487,4.487,0,0,1,.918,5.09h0a11.151,11.151,0,0,1-8.921,6.389l-3.857.407s-24.284,13.264-32.1,12.529-18.092-10.141-18.092-10.141Z" transform="translate(-55.103 -136.525)" fill="#b97964"/>
      <path id="Path_51386" data-name="Path 51386" d="M156.4,194.6c6.717.984,13.579,6.324,24.232,15.743a32.628,32.628,0,0,1-11.27,13.014s-6.205-2.716-13.6-12.122C146.806,199.848,152.33,194,156.4,194.6Z" transform="translate(-59.085 -138.697)" fill="#19325a"/>
    </g>
  </g>
</svg>
