<svg id="Layer_1" data-name="Layer 1" xmlns="http://www.w3.org/2000/svg" viewBox="0 0 55 55"><defs><style>.cls-1{fill:#19c0ff;}</style></defs><path class="cls-1" d="M17.27,0h1.28a.91.91,0,0,0,.14.07A4.08,4.08,0,0,1,22,3.77a4.11,4.11,0,0,1-2.46,4.14.49.49,0,0,0-.26.29c0,.92,0,1.84,0,2.78H35.79c0-.83,0-1.61,0-2.39a.75.75,0,0,0-.51-.81,4.08,4.08,0,0,1-2.25-4A4.13,4.13,0,0,1,35.92.2l.54-.2h1.39c.25.09.5.16.74.26A4,4,0,0,1,41.25,4,4,4,0,0,1,39,7.84c-.17.09-.41.25-.42.39,0,.91,0,1.81,0,2.79h.64c1.34,0,2.68,0,4,0a6.73,6.73,0,0,1,6.27,6.12c.11,1.39,0,2.79.07,4.19,0,.2,0,.41,0,.65h1.4A3.86,3.86,0,0,1,54,23.5a10.34,10.34,0,0,1,.89,1.64v7.52a.6.6,0,0,0-.09.13,4.12,4.12,0,0,1-4.17,3H49.5c0,1.85,0,3.62,0,5.39a6.87,6.87,0,0,1-7,7c-2.51,0-5,.12-7.51,0a8.35,8.35,0,0,0-5.42,1.56C26.78,51.54,23.87,53.23,21,55h-.75a1.8,1.8,0,0,1-1-1.91c.05-.73,0-1.46,0-2.2V48.13h-.64c-2.12,0-4.25,0-6.37,0a6.74,6.74,0,0,1-6.6-5.9c-.19-1.92-.08-3.86-.11-5.79v-.67c-.53,0-1,0-1.45,0a4.12,4.12,0,0,1-4-4.13c0-1.84,0-3.69,0-5.53A4.09,4.09,0,0,1,4.17,22H5.59c0-1.45,0-2.83,0-4.2a6.74,6.74,0,0,1,5.55-6.64A33.46,33.46,0,0,1,15.63,11h.94c0-.88,0-1.68,0-2.48a.67.67,0,0,0-.45-.73A3.93,3.93,0,0,1,13.84,4,3.94,3.94,0,0,1,16.22.39,10.21,10.21,0,0,1,17.27,0Zm4.8,51.12.56-.33c2.66-1.67,5.32-3.35,8-5a3,3,0,0,1,1.45-.41c3.43,0,6.86,0,10.29,0A4.12,4.12,0,0,0,46.75,41V18.19a4.13,4.13,0,0,0-4.42-4.43H12.74a4.12,4.12,0,0,0-4.39,4.4V41a4.1,4.1,0,0,0,4.39,4.39h7.5c1.36,0,1.83.47,1.83,1.85ZM5.55,33v-8.2c-.52,0-1,0-1.48,0A1.29,1.29,0,0,0,2.87,26a2.44,2.44,0,0,0,0,.27c0,1.73,0,3.47,0,5.2A1.33,1.33,0,0,0,4,33C4.53,33,5,33,5.55,33Zm44-8.19V33c.49,0,1,0,1.41,0a1.3,1.3,0,0,0,1.27-1.28c0-1.89,0-3.79,0-5.68a1.25,1.25,0,0,0-1.14-1.23C50.59,24.75,50.09,24.79,49.54,24.79Zm-12.4-22a1.35,1.35,0,0,0-1.35,1.38A1.33,1.33,0,0,0,37.16,5.5a1.36,1.36,0,1,0,0-2.72ZM19.31,4.12a1.37,1.37,0,0,0-2.73,0A1.34,1.34,0,0,0,18,5.5,1.36,1.36,0,0,0,19.31,4.12Z"/><path class="cls-1" d="M27.51,38.53a23.49,23.49,0,0,1-10-2.13,1.41,1.41,0,0,1-.89-1.77,1.34,1.34,0,0,1,1.88-.79,19.34,19.34,0,0,0,6.36,1.77A21.46,21.46,0,0,0,36.24,34l.29-.14a1.37,1.37,0,0,1,1.86.66,1.31,1.31,0,0,1-.72,1.82,32.9,32.9,0,0,1-4.54,1.56c-1.84.41-3.73.55-5.6.81Z"/><path class="cls-1" d="M38.5,23.22a1.36,1.36,0,1,1-2.71.22c-.13-.93-.64-1.44-1.43-1.42s-1.23.53-1.33,1.45a1.37,1.37,0,0,1-2.73-.17,4.1,4.1,0,0,1,8.2-.08Z"/><path class="cls-1" d="M24.78,23.2a1.36,1.36,0,0,1-1.22,1.54,1.34,1.34,0,0,1-1.49-1.33c-.12-.89-.63-1.4-1.4-1.39s-1.26.53-1.36,1.43a1.37,1.37,0,0,1-2.73-.12,4.1,4.1,0,0,1,8.2-.13Z"/></svg>