<svg id="Group_17455" data-name="Group 17455" xmlns="http://www.w3.org/2000/svg" width="122.379" height="116.157" viewBox="0 0 122.379 116.157">
  <g id="Group_17453" data-name="Group 17453" transform="translate(61.19 58.078)" opacity="0.34">
    <ellipse id="Ellipse_171" data-name="Ellipse 171" cx="4.148" cy="4.148" rx="4.148" ry="4.148" transform="translate(35.262 33.188)" fill="#06b2ff"/>
    <ellipse id="Ellipse_161" data-name="Ellipse 161" cx="4.148" cy="4.148" rx="4.148" ry="4.148" transform="translate(0 0)" fill="#06b2ff"/>
    <ellipse id="Ellipse_165" data-name="Ellipse 165" cx="4.148" cy="4.148" rx="4.148" ry="4.148" transform="translate(0 16.594)" fill="#06b2ff"/>
    <ellipse id="Ellipse_169" data-name="Ellipse 169" cx="4.148" cy="4.148" rx="4.148" ry="4.148" transform="translate(0 33.188)" fill="#06b2ff"/>
    <ellipse id="Ellipse_173" data-name="Ellipse 173" cx="4.148" cy="4.148" rx="4.148" ry="4.148" transform="translate(0 49.781)" fill="#06b2ff"/>
    <ellipse id="Ellipse_162" data-name="Ellipse 162" cx="4.148" cy="4.148" rx="4.148" ry="4.148" transform="translate(17.631 0)" fill="#06b2ff"/>
    <ellipse id="Ellipse_166" data-name="Ellipse 166" cx="4.148" cy="4.148" rx="4.148" ry="4.148" transform="translate(17.631 16.594)" fill="#06b2ff"/>
    <ellipse id="Ellipse_170" data-name="Ellipse 170" cx="4.148" cy="4.148" rx="4.148" ry="4.148" transform="translate(17.631 33.188)" fill="#06b2ff"/>
    <ellipse id="Ellipse_174" data-name="Ellipse 174" cx="4.148" cy="4.148" rx="4.148" ry="4.148" transform="translate(17.631 49.781)" fill="#06b2ff"/>
    <ellipse id="Ellipse_163" data-name="Ellipse 163" cx="4.148" cy="4.148" rx="4.148" ry="4.148" transform="translate(35.262 0)" fill="#06b2ff" opacity="0.5"/>
    <ellipse id="Ellipse_167" data-name="Ellipse 167" cx="4.148" cy="4.148" rx="4.148" ry="4.148" transform="translate(35.262 16.594)" fill="#06b2ff" opacity="0.5"/>
    <ellipse id="Ellipse_175" data-name="Ellipse 175" cx="4.148" cy="4.148" rx="4.148" ry="4.148" transform="translate(35.262 49.781)" fill="#06b2ff"/>
    <ellipse id="Ellipse_164" data-name="Ellipse 164" cx="4.148" cy="4.148" rx="4.148" ry="4.148" transform="translate(52.893 0)" fill="#06b2ff" opacity="0.5"/>
    <ellipse id="Ellipse_168" data-name="Ellipse 168" cx="4.148" cy="4.148" rx="4.148" ry="4.148" transform="translate(52.893 16.594)" fill="#06b2ff" opacity="0.5"/>
    <ellipse id="Ellipse_172" data-name="Ellipse 172" cx="4.148" cy="4.148" rx="4.148" ry="4.148" transform="translate(52.893 33.188)" fill="#06b2ff"/>
    <ellipse id="Ellipse_176" data-name="Ellipse 176" cx="4.148" cy="4.148" rx="4.148" ry="4.148" transform="translate(52.893 49.781)" fill="#06b2ff"/>
  </g>
  <g id="Group_17454" data-name="Group 17454" opacity="0.34">
    <ellipse id="Ellipse_171-2" data-name="Ellipse 171" cx="4.148" cy="4.148" rx="4.148" ry="4.148" transform="translate(35.262 33.188)" fill="#06b2ff"/>
    <ellipse id="Ellipse_161-2" data-name="Ellipse 161" cx="4.148" cy="4.148" rx="4.148" ry="4.148" transform="translate(0)" fill="#06b2ff"/>
    <ellipse id="Ellipse_165-2" data-name="Ellipse 165" cx="4.148" cy="4.148" rx="4.148" ry="4.148" transform="translate(0 16.594)" fill="#06b2ff"/>
    <ellipse id="Ellipse_169-2" data-name="Ellipse 169" cx="4.148" cy="4.148" rx="4.148" ry="4.148" transform="translate(0 33.188)" fill="#06b2ff"/>
    <ellipse id="Ellipse_173-2" data-name="Ellipse 173" cx="4.148" cy="4.148" rx="4.148" ry="4.148" transform="translate(0 49.781)" fill="#06b2ff"/>
    <ellipse id="Ellipse_162-2" data-name="Ellipse 162" cx="4.148" cy="4.148" rx="4.148" ry="4.148" transform="translate(17.631)" fill="#06b2ff"/>
    <ellipse id="Ellipse_166-2" data-name="Ellipse 166" cx="4.148" cy="4.148" rx="4.148" ry="4.148" transform="translate(17.631 16.594)" fill="#06b2ff"/>
    <ellipse id="Ellipse_170-2" data-name="Ellipse 170" cx="4.148" cy="4.148" rx="4.148" ry="4.148" transform="translate(17.631 33.188)" fill="#06b2ff"/>
    <ellipse id="Ellipse_174-2" data-name="Ellipse 174" cx="4.148" cy="4.148" rx="4.148" ry="4.148" transform="translate(17.631 49.781)" fill="#06b2ff"/>
    <ellipse id="Ellipse_163-2" data-name="Ellipse 163" cx="4.148" cy="4.148" rx="4.148" ry="4.148" transform="translate(35.262)" fill="#06b2ff" opacity="0.5"/>
    <ellipse id="Ellipse_167-2" data-name="Ellipse 167" cx="4.148" cy="4.148" rx="4.148" ry="4.148" transform="translate(35.262 16.594)" fill="#06b2ff" opacity="0.5"/>
    <ellipse id="Ellipse_175-2" data-name="Ellipse 175" cx="4.148" cy="4.148" rx="4.148" ry="4.148" transform="translate(35.262 49.781)" fill="#06b2ff"/>
    <ellipse id="Ellipse_164-2" data-name="Ellipse 164" cx="4.148" cy="4.148" rx="4.148" ry="4.148" transform="translate(52.893)" fill="#06b2ff" opacity="0.5"/>
    <ellipse id="Ellipse_168-2" data-name="Ellipse 168" cx="4.148" cy="4.148" rx="4.148" ry="4.148" transform="translate(52.893 16.594)" fill="#06b2ff" opacity="0.5"/>
    <ellipse id="Ellipse_172-2" data-name="Ellipse 172" cx="4.148" cy="4.148" rx="4.148" ry="4.148" transform="translate(52.893 33.188)" fill="#06b2ff"/>
    <ellipse id="Ellipse_176-2" data-name="Ellipse 176" cx="4.148" cy="4.148" rx="4.148" ry="4.148" transform="translate(52.893 49.781)" fill="#06b2ff"/>
  </g>
</svg>
