<svg xmlns="http://www.w3.org/2000/svg" width="23" height="23" viewBox="0 0 23 23">
  <g id="Group_19655" data-name="Group 19655" transform="translate(-24.13)">
    <g id="Group_19656" data-name="Group 19656" transform="translate(24.13)">
      <g id="Group_19653" data-name="Group 19653" transform="translate(0)">
        <g id="Group_19657" data-name="Group 19657">
          <path id="Path_9299" data-name="Path 9299" d="M51.158,12.263A11.263,11.263,0,1,1,39.9,1,11.263,11.263,0,0,1,51.158,12.263" transform="translate(-28.395 -0.763)" fill="#ff4d4d"/>
          <path id="Path_9300" data-name="Path 9300" d="M39.131,23a11.5,11.5,0,1,1,11.5-11.5A11.513,11.513,0,0,1,39.131,23m0-22.526A11.026,11.026,0,1,0,50.157,11.5,11.038,11.038,0,0,0,39.131.474" transform="translate(-27.631)" fill="#ff9898"/>
          <path id="Path_9301" data-name="Path 9301" d="M33.9,26.908A10.942,10.942,0,0,1,23.248,18.3a.169.169,0,0,1,.331-.071,10.566,10.566,0,0,0,13.592,7.823.169.169,0,0,1,.1.322,10.887,10.887,0,0,1-3.375.533m7.18-2.758a.169.169,0,0,1-.113-.295,10.574,10.574,0,0,0,3.488-7.839v-.043a.169.169,0,0,1,.168-.17h0a.169.169,0,0,1,.169.168v.046a10.915,10.915,0,0,1-3.6,8.091.171.171,0,0,1-.114.043M23.177,16.2a.16.16,0,0,1-.169-.158v-.022A10.916,10.916,0,0,1,26.591,7.94a.169.169,0,0,1,.227.251,10.577,10.577,0,0,0-3.471,7.825.179.179,0,0,1-.169.18m21.206-2.283a.169.169,0,0,1-.165-.134A10.566,10.566,0,0,0,30.609,5.985a.169.169,0,0,1-.105-.322,10.9,10.9,0,0,1,14.045,8.045.169.169,0,0,1-.13.2.162.162,0,0,1-.036,0" transform="translate(-23.008 -3.909)" fill="#f77"/>
          <g id="close" transform="translate(5.27 4.884)">
            <path id="Path_9790" data-name="Path 9790" d="M12.6,2.089,10.514,0,6.3,4.213,2.089,0,0,2.089,4.213,6.3,0,10.514,2.089,12.6,6.3,8.39,10.514,12.6,12.6,10.514,8.39,6.3Z" transform="translate(0 0)" fill="#fff"/>
          </g>
        </g>
      </g>
    </g>
  </g>
</svg>
