<svg xmlns="http://www.w3.org/2000/svg" width="55.204" height="53.993" viewBox="0 0 55.204 53.993">
  <g id="Group_55674" data-name="Group 55674" transform="translate(-353 -1827.001)">
    <g id="Group_2751" data-name="Group 2751" transform="translate(353.674 1827.195)">
      <g id="Group_2750" data-name="Group 2750" transform="translate(-0.674 -0.195)">
        <g id="Group_55692" data-name="Group 55692">
          <path id="Path_2531" data-name="Path 2531" d="M16.5,7.836a1.117,1.117,0,1,1,.8,2.086q-1.083.415-2.12.935A23.5,23.5,0,0,0,2.476,35.214a1.117,1.117,0,0,1-2.211.319A25.733,25.733,0,0,1,14.181,8.86Q15.316,8.291,16.5,7.836ZM9.867,52.078a1.117,1.117,0,1,1,1.377-1.759A23.463,23.463,0,0,0,40.3,50.2a1.117,1.117,0,1,1,1.392,1.747,25.7,25.7,0,0,1-31.821.135Zm6.2-2.225a1.117,1.117,0,0,1-.89,1.305l-3.835.726L11.684,56a1.117,1.117,0,0,1-2.226.19l-.431-5.125a1.117,1.117,0,0,1,.906-1.191l4.826-.913a1.117,1.117,0,0,1,1.305.89ZM34.44,7.672A25.7,25.7,0,0,1,51.388,31.838q0,.964-.07,1.917l2.1-1.575a1.117,1.117,0,1,1,1.339,1.789l-4.115,3.08a1.117,1.117,0,0,1-1.49-.136L45.817,33.3a1.118,1.118,0,0,1,1.642-1.518l1.63,1.765q.062-.857.062-1.714A23.467,23.467,0,0,0,33.673,9.769a1.117,1.117,0,1,1,.766-2.1ZM11.493,6.323a1.117,1.117,0,0,1,1.462-.6h0l4.53,1.9a1.117,1.117,0,0,1,.638,1.354h0L16.636,13.9a1.117,1.117,0,0,1-2.139-.647h0l1.195-3.956-3.6-1.51a1.117,1.117,0,0,1-.6-1.462Z" transform="translate(0.001 -3.536)" fill="#222872"/>
          <path id="Path_2532" data-name="Path 2532" d="M26.32,9.682a4.841,4.841,0,1,0-4.841-4.841A4.841,4.841,0,0,0,26.32,9.682ZM47.545,35.374a4.841,4.841,0,1,1-4.84,4.84,4.841,4.841,0,0,1,4.84-4.84Zm-41.7,0A4.841,4.841,0,1,1,1,40.214a4.841,4.841,0,0,1,4.84-4.84Zm41.7,2.234a2.606,2.606,0,1,0,2.606,2.606,2.606,2.606,0,0,0-2.606-2.606Zm-41.7,0a2.606,2.606,0,1,0,2.606,2.606A2.606,2.606,0,0,0,5.84,37.608ZM26.32,2.234A2.606,2.606,0,1,1,23.714,4.84,2.606,2.606,0,0,1,26.32,2.234Z" transform="translate(-0.627)" fill="#222872"/>
          <g id="android-logo" transform="translate(-24.893 18.102)">
            <g id="Group_55690" data-name="Group 55690" transform="translate(42.544 0)">
              <path id="Path_14215" data-name="Path 14215" d="M43.775,179.141a1.188,1.188,0,0,0-.873.359,1.174,1.174,0,0,0-.359.861v5.14a1.224,1.224,0,0,0,1.231,1.231,1.169,1.169,0,0,0,.867-.359,1.2,1.2,0,0,0,.353-.873v-5.14a1.224,1.224,0,0,0-1.219-1.219Z" transform="translate(-42.544 -172.698)" fill="#009eff"/>
              <path id="Path_14216" data-name="Path 14216" d="M130.9,1.829l.849-1.566a.157.157,0,0,0-.06-.239.166.166,0,0,0-.239.072l-.861,1.578a6,6,0,0,0-4.805,0L124.922.1a.166.166,0,0,0-.239-.072.157.157,0,0,0-.06.239l.849,1.566a5.241,5.241,0,0,0-2.056,1.835,4.634,4.634,0,0,0-.765,2.576h11.056a4.636,4.636,0,0,0-.765-2.576A5.263,5.263,0,0,0,130.9,1.829Zm-4.907,2.277a.448.448,0,0,1-.329.138.428.428,0,0,1-.323-.138.477.477,0,0,1,0-.657.429.429,0,0,1,.323-.137.465.465,0,0,1,.329.795Zm5.038,0a.429.429,0,0,1-.323.138.466.466,0,0,1,0-.932.43.43,0,0,1,.323.137.477.477,0,0,1,0,.657Z" transform="translate(-119.77 0)" fill="#009eff"/>
              <path id="Path_14217" data-name="Path 14217" d="M123.971,193.411a1.305,1.305,0,0,0,1.315,1.315h.885l.012,2.714a1.188,1.188,0,0,0,.359.873,1.174,1.174,0,0,0,.861.359,1.224,1.224,0,0,0,1.231-1.231v-2.713h1.649v2.713a1.231,1.231,0,1,0,2.462,0v-2.713h.9a1.305,1.305,0,0,0,1.3-1.315V185.45H123.971Z" transform="translate(-121.042 -178.78)" fill="#009eff"/>
              <path id="Path_14218" data-name="Path 14218" d="M443.6,179.141a1.185,1.185,0,0,0-.861.353,1.169,1.169,0,0,0-.359.867v5.14a1.187,1.187,0,0,0,.359.873,1.174,1.174,0,0,0,.861.359,1.224,1.224,0,0,0,1.231-1.231v-5.14a1.169,1.169,0,0,0-.359-.867A1.2,1.2,0,0,0,443.6,179.141Z" transform="translate(-427.996 -172.698)" fill="#009eff"/>
            </g>
          </g>
        </g>
      </g>
    </g>
  </g>
</svg>
