<svg id="game" xmlns="http://www.w3.org/2000/svg" width="52.062" height="56.376" viewBox="0 0 52.062 56.376">
  <path id="Path_14181" data-name="Path 14181" d="M247.474,16.935a8.351,8.351,0,0,0-5.343-2.389,3.355,3.355,0,0,0,.176-1.075,3.306,3.306,0,0,0-3.276-3.328,8.056,8.056,0,0,0-2.847.839V7.619a1.5,1.5,0,0,0-1.495-1.495H231.88a8.059,8.059,0,0,0,.839-2.848,3.329,3.329,0,0,0-6.656,0,8.059,8.059,0,0,0,.839,2.848h-2.809A1.5,1.5,0,0,0,222.6,7.619v2.973a1.5,1.5,0,0,0,1.963,1.423,3.47,3.47,0,0,1,.928-.225,1.681,1.681,0,0,1,0,3.361,3.446,3.446,0,0,1-.928-.225A1.5,1.5,0,0,0,222.6,16.35v2.973a1.5,1.5,0,0,0,1.495,1.495H226.9a8.059,8.059,0,0,0-.839,2.848,3.329,3.329,0,0,0,6.656,0,8.056,8.056,0,0,0-.839-2.848h2.809a1.5,1.5,0,0,0,1.495-1.495V15.96a8.047,8.047,0,0,0,2.847.839,3.225,3.225,0,0,0,2-.7c3.971.238,7.469,1.383,7.469,10.652A45.746,45.746,0,0,1,245.2,43.5a.824.824,0,0,0,1.517.644,47.511,47.511,0,0,0,3.428-17.39C250.149,22.078,249.274,18.866,247.474,16.935ZM235.7,13.953a.824.824,0,0,0-1.162.751v4.465h-3.912a.824.824,0,0,0-.751,1.162,11.249,11.249,0,0,1,1.2,3.333,1.681,1.681,0,0,1-3.361,0,11.255,11.255,0,0,1,1.2-3.333.824.824,0,0,0-.751-1.162h-3.912V16.556a4.375,4.375,0,0,0,1.244.243,3.329,3.329,0,0,0,0-6.656,4.369,4.369,0,0,0-1.244.243V7.772h3.912a.824.824,0,0,0,.751-1.163,11.245,11.245,0,0,1-1.2-3.333,1.681,1.681,0,0,1,3.361,0,11.245,11.245,0,0,1-1.2,3.333.824.824,0,0,0,.751,1.163h3.912v4.465a.824.824,0,0,0,1.162.751,11.272,11.272,0,0,1,3.333-1.2,1.681,1.681,0,0,1,0,3.361A11.249,11.249,0,0,1,235.7,13.953Zm0,0" transform="translate(-198.088)" fill="#222872"/>
  <path id="Path_14182" data-name="Path 14182" d="M46.54,162.975a.823.823,0,0,0-1.137.253c-1.013,1.593-2.61,3.493-4.46,3.493-3.354,0-7-6.447-8.667-15.331a.824.824,0,0,0-.809-.672H20.6a.824.824,0,0,0-.809.672c-.292,1.557-.655,3.071-1.08,4.518l-3.716-1.551a1.495,1.495,0,0,0-1.955,1.955l2.749,6.585c-1.1,1.82-2.748,3.823-4.665,3.823-2.235,0-4.609-2.788-6.512-7.647a46,46,0,0,1-2.958-15.917c0-4.647.889-7.641,2.716-9.152,1.562-1.292,3.743-1.551,6.755-1.551,4.469,0,7.976.452,9.093,6.148a.824.824,0,0,0,.809.665h3.719a.824.824,0,1,0,0-1.647H21.683c-.667-2.76-1.954-4.615-3.924-5.66-1.8-.957-3.958-1.153-6.64-1.153C5.259,130.8,0,131.749,0,143.156a47.729,47.729,0,0,0,3.072,16.518c2.2,5.607,5.053,8.694,8.046,8.694,1.9,0,3.762-1.249,5.433-3.631l2.973,7.122a1.479,1.479,0,0,0,1.328.918h.054a1.477,1.477,0,0,0,1.333-.825l1.448-2.889,2.548,2.548a1.477,1.477,0,0,0,2.087,0l1.966-1.966a1.476,1.476,0,0,0,0-2.087l-2.548-2.548,2.889-1.448a1.495,1.495,0,0,0-.094-2.715l-10.3-4.3c.4-1.343.749-2.744,1.039-4.181h9.514a38.412,38.412,0,0,0,3.689,10.708c1.922,3.463,4.158,5.294,6.466,5.294,2.056,0,4.08-1.472,5.85-4.256A.823.823,0,0,0,46.54,162.975ZM29,168.6l-1.723,1.723-2.814-2.814.575-1.148,1.148-.576Zm-3.034-4.547h0l-1.909.957a.822.822,0,0,0-.368.368l-2.774,5.536-6.218-14.9,14.9,6.218Zm0,0" transform="translate(0 -116.402)" fill="#222872"/>
  <path id="Path_14183" data-name="Path 14183" d="M349.053,202.707a2.819,2.819,0,1,0,2.819,2.819A2.822,2.822,0,0,0,349.053,202.707Zm0,3.991a1.171,1.171,0,1,1,1.172-1.171A1.172,1.172,0,0,1,349.053,206.7Zm0,0" transform="translate(-308.111 -180.387)" fill="#009eff"/>
  <path id="Path_14184" data-name="Path 14184" d="M349.053,285.934a2.819,2.819,0,1,0,2.819,2.819A2.822,2.822,0,0,0,349.053,285.934Zm0,3.991a1.172,1.172,0,1,1,1.172-1.172A1.173,1.173,0,0,1,349.053,289.925Zm0,0" transform="translate(-308.111 -254.45)" fill="#009eff"/>
  <path id="Path_14185" data-name="Path 14185" d="M393.486,247.14a2.819,2.819,0,1,0-2.819,2.819A2.822,2.822,0,0,0,393.486,247.14Zm-3.991,0a1.172,1.172,0,1,1,1.172,1.171A1.173,1.173,0,0,1,389.5,247.14Zm0,0" transform="translate(-345.142 -217.418)" fill="#009eff"/>
  <path id="Path_14186" data-name="Path 14186" d="M304.621,247.14a2.819,2.819,0,1,0,2.819-2.819A2.822,2.822,0,0,0,304.621,247.14Zm3.991,0a1.171,1.171,0,1,1-1.172-1.172A1.173,1.173,0,0,1,308.612,247.14Zm0,0" transform="translate(-271.079 -217.418)" fill="#009eff"/>
  <path id="Path_14187" data-name="Path 14187" d="M46.512,210.915a.824.824,0,0,0,.642,1.518,2.545,2.545,0,0,0-.991-4.89H43.871v-2.291a2.545,2.545,0,1,0-5.09,0v2.291H36.49a2.545,2.545,0,1,0,0,5.09h2.291v2.291a2.545,2.545,0,0,0,5.09,0v-3.115a.824.824,0,0,0-1.648,0v3.115a.9.9,0,0,1-1.794,0v-3.115a.824.824,0,0,0-.824-.824H36.49a.9.9,0,0,1,0-1.794h3.115a.824.824,0,0,0,.824-.824v-3.115a.9.9,0,0,1,1.794,0v3.115a.824.824,0,0,0,.824.824h3.115a.9.9,0,0,1,.349,1.724Zm0,0" transform="translate(-30.208 -180.387)" fill="#009eff"/>
</svg>
