<svg id="Layer_1" data-name="Layer 1" xmlns="http://www.w3.org/2000/svg" viewBox="0 0 74.78 57.12"><defs><style>.cls-1{fill:#fff;}</style></defs><path class="cls-1" d="M9.91,22.1,37.05,56.89,37,57c-.24-.16-.48-.32-.71-.5L7.55,35.65A3.59,3.59,0,0,1,6.28,34V33c.93-2.83,1.85-5.66,2.79-8.49.27-.82.58-1.62.86-2.43Z"/><path class="cls-1" d="M26,22.11H48.83q-5.7,17.53-11.36,35l-.15,0Z"/><path class="cls-1" d="M64.85,22.12c.21.6.45,1.2.65,1.8,1,2.88,1.88,5.77,2.82,8.65a2.37,2.37,0,0,1-1,3Q52.71,46.22,38,56.86a.31.31,0,0,1-.3,0L64.86,22.1Z"/><path class="cls-1" d="M9.93,22.12a5.6,5.6,0,0,1,.12-.59Q13.36,11.3,16.7,1.07a1.3,1.3,0,0,1,1-1,1.19,1.19,0,0,1,1.4,1C20,3.86,21,6.74,21.89,9.63q1.93,5.92,3.86,11.87l.15.57H10.7l-.79,0Z"/><path class="cls-1" d="M64.86,22.1c-.26,0-.52,0-.78,0H48.9a6.34,6.34,0,0,1,.17-.69L55.64,1.15A1.15,1.15,0,0,0,55.7,1a1.19,1.19,0,0,1,1.17-1c.56,0,1,.32,1.19,1l4.86,14.92c.58,1.81,1.17,3.61,1.75,5.42.08.25.12.51.18.76Z"/></svg>