<svg xmlns="http://www.w3.org/2000/svg" width="40.703" height="35.451" viewBox="0 0 40.703 35.451">
  <g id="global-economy" transform="translate(-2 -6)">
    <path id="Path_51101" data-name="Path 51101" d="M33.512,8.626A2.625,2.625,0,0,0,30.886,6H4.626A2.625,2.625,0,0,0,2,8.626v2.626H33.512ZM5.282,9.282a.656.656,0,1,1,.656-.656A.658.658,0,0,1,5.282,9.282Zm2.626,0a.656.656,0,1,1,.656-.656A.658.658,0,0,1,7.908,9.282Zm2.626,0a.656.656,0,1,1,.656-.656A.658.658,0,0,1,10.534,9.282Z" fill="#06b2ff"/>
    <path id="Path_51102" data-name="Path 51102" d="M52.719,31.54a3.015,3.015,0,0,1-.637.7,10.172,10.172,0,0,1-1.8,1.215,6.9,6.9,0,0,0-2.567,1.713,2.572,2.572,0,0,0,.926,3.8c1.07.538,2.547.361,3.3,1.3s.263,2.3.545,3.447c.361,1.49,1.884,2.344,3.263,3.02l.118.059A9.843,9.843,0,0,0,52.719,31.54Z" transform="translate(-15.537 -8.773)" fill="#06b2ff"/>
    <path id="Path_51103" data-name="Path 51103" d="M42.768,54.064A4.15,4.15,0,0,0,40,53.328,3.314,3.314,0,0,0,38.1,54.6a9.8,9.8,0,0,0,7.156,3.1c.092,0,.177-.013.269-.013a3.435,3.435,0,0,0-.663-1.864,6.672,6.672,0,0,0-2.094-1.753Z" transform="translate(-12.401 -16.243)" fill="#06b2ff"/>
    <path id="Path_51104" data-name="Path 51104" d="M32.855,23.878c.223,0,.44.02.656.033V16H2V35.695a2.625,2.625,0,0,0,2.626,2.626H22.187A11.164,11.164,0,0,1,32.855,23.878Zm-2.626-1.313H24.977a.656.656,0,0,1,0-1.313h5.252a.656.656,0,0,1,0,1.313Zm-7.878-3.939h7.878a.656.656,0,0,1,0,1.313H22.351a.656.656,0,0,1,0-1.313ZM9.221,35.695H6.6V30.443H9.221Zm5.252,0H11.847V26.5h2.626Zm.656-13.786a.656.656,0,0,1-1.313,0V20.215L5.092,28.939a.666.666,0,0,1-.932,0,.654.654,0,0,1,0-.926l8.731-8.731h-1.7a.656.656,0,0,1,0-1.313h3.282a.658.658,0,0,1,.656.656Zm4.6,13.786H17.1V22.565h2.626Z" transform="translate(0 -3.435)" fill="#06b2ff"/>
    <path id="Path_51105" data-name="Path 51105" d="M46.657,43.491a7.065,7.065,0,0,1-.138-1.7,2.407,2.407,0,0,0-.158-1.234,2.479,2.479,0,0,0-1.175-.42,6.665,6.665,0,0,1-1.681-.525,3.875,3.875,0,0,1-1.392-5.738,6.293,6.293,0,0,1,2.495-1.845c.171-.085.348-.171.512-.263A8.683,8.683,0,0,0,46.69,30.7a1.762,1.762,0,0,0,.223-.21,9.838,9.838,0,0,0-11.068,15.08,4.391,4.391,0,0,1,2.514-1.53,4.015,4.015,0,0,1,.689-.059,6.078,6.078,0,0,1,2.967.952,7.955,7.955,0,0,1,2.495,2.114,4.788,4.788,0,0,1,.906,2.514,9.818,9.818,0,0,0,4.917-2.317c-1.234-.617-3.184-1.707-3.676-3.755Z" transform="translate(-10.992 -8.244)" fill="#06b2ff"/>
  </g>
</svg>
