<svg xmlns="http://www.w3.org/2000/svg" width="68.349" height="25.539" viewBox="0 0 68.349 25.539">
  <g id="Group_55663" data-name="Group 55663" transform="translate(-225.274 -133.919)">
    <g id="Group_55662" data-name="Group 55662" transform="translate(225.274 133.919)">
      <path id="Path_37700" data-name="Path 37700" d="M511.4,245.81a15.5,15.5,0,0,1-2.8,3.837,14.019,14.019,0,0,1-10.958,4.072,11.463,11.463,0,0,1-6.425-2.623,10.4,10.4,0,0,1-3.748-6.507,12.4,12.4,0,0,1,.987-7.376,16.1,16.1,0,0,1,2.755-4.091,14.553,14.553,0,0,1,8.057-4.537,13.854,13.854,0,0,1,2.536-.3,10.881,10.881,0,0,1,10.465,6.664c.122.277-.066.371-.267.426-.728.2-1.46.391-2.191.585-1.175.312-2.352.616-3.523.941a.8.8,0,0,1-.96-.313,4.846,4.846,0,0,0-3.354-1.854,6.24,6.24,0,0,0-5,1.636,6.843,6.843,0,0,0-2.563,6.348,4.992,4.992,0,0,0,4.27,4.567,5.987,5.987,0,0,0,6.076-2.508c.2-.262.59-.557.475-.814-.087-.195-.6-.057-.925-.058-1.748-.007-3.5,0-5.244,0-.727,0-.984-.337-.709-1.008.509-1.241,1.087-2.452,1.712-3.638a.992.992,0,0,1,.988-.508c3.346.011,6.692,0,10.038.016a.58.58,0,0,0,.656-.48,14.934,14.934,0,0,1,7.207-8.108,17.487,17.487,0,0,1,4.927-1.419,14.505,14.505,0,0,1,2.969-.14,11.151,11.151,0,0,1,6.21,2.223,10.617,10.617,0,0,1,3.324,3.885,11.5,11.5,0,0,1,1.061,4.058,13.43,13.43,0,0,1-.362,4.475,12.16,12.16,0,0,1-2.267,4.536,15.21,15.21,0,0,1-5.759,4.6,14.425,14.425,0,0,1-4.59,1.276,13.983,13.983,0,0,1-2.027.149,12.477,12.477,0,0,1-7.088-2.452,10.521,10.521,0,0,1-3.8-5.33A.292.292,0,0,0,511.4,245.81Zm12.874,1.639a7.114,7.114,0,0,0,5.432-3.526,6.011,6.011,0,0,0,.187-6.707,5.127,5.127,0,0,0-4.306-2.5A7.7,7.7,0,0,0,519.96,237a7.539,7.539,0,0,0-1.508,2.479,6.388,6.388,0,0,0-.325,3.788C518.727,245.853,521.073,247.453,524.279,247.449Z" transform="translate(-469.147 -228.279)" fill="#2ebcaf"/>
      <path id="Path_37701" data-name="Path 37701" d="M265.937,346.179a7.2,7.2,0,0,1,.776-1.08c.139-.2.391-.151.607-.151h14.621c.5,0,.533.05.381.511-.232.7-.24.706-.969.707l-14.823.013Z" transform="translate(-265.937 -335.379)" fill="#34bdb1"/>
      <path id="Path_37702" data-name="Path 37702" d="M333.947,308.278q-2.886,0-5.772,0c-.117,0-.276.058-.337-.072s.086-.211.144-.309c.081-.139.208-.249.3-.384a1.146,1.146,0,0,1,1.057-.53c3.67.017,7.341.009,11.011.012.169,0,.391-.084.493.1s-.1.308-.171.461a1.256,1.256,0,0,1-1.365.755c-1.785-.049-3.573-.017-5.359-.017Z" transform="translate(-322.752 -300.523)" fill="#34bdb1"/>
      <path id="Path_37703" data-name="Path 37703" d="M368.243,383.33c-1.105,0-2.211,0-3.316,0-.166,0-.373.021-.451-.119s.094-.26.173-.383a3.452,3.452,0,0,0,.192-.358.724.724,0,0,1,.744-.437q3.029.026,6.059,0c.411,0,.549.13.481.521a2.452,2.452,0,0,0-.007.327c-.011.306-.134.46-.477.455C370.508,383.32,369.375,383.33,368.243,383.33Z" transform="translate(-356.382 -369.429)" fill="#34bdb1"/>
      <path id="Path_37704" data-name="Path 37704" d="M867.816,319.457c-3.206,0-5.552-1.6-6.153-4.181a6.387,6.387,0,0,1,.325-3.788,7.539,7.539,0,0,1,1.508-2.479,7.7,7.7,0,0,1,5.632-2.28,5.127,5.127,0,0,1,4.306,2.5,6.011,6.011,0,0,1-.187,6.707A7.114,7.114,0,0,1,867.816,319.457Z" transform="translate(-812.685 -300.287)" fill="#fefefe"/>
    </g>
  </g>
</svg>
