<svg xmlns="http://www.w3.org/2000/svg" width="30.413" height="16.251" viewBox="0 0 30.413 16.251">
  <g id="Group_18122" data-name="Group 18122" transform="translate(-362.034 -10930.313)">
    <path id="Path_8370" data-name="Path 8370" d="M8.911,92.321H12.88a5.045,5.045,0,1,1-1.37-5.409.547.547,0,0,0,.743,0l1.457-1.372a.545.545,0,0,0,0-.792,8.1,8.1,0,0,0-5.425-2.225,8.126,8.126,0,1,0,7.95,8.581c.006-.054.01-1.865.01-1.865H8.911a.544.544,0,0,0-.545.545v2A.545.545,0,0,0,8.911,92.321Z" transform="translate(362.033 10847.794)" fill="#06b2ff"/>
    <path id="Path_8371" data-name="Path 8371" d="M328.882,165.635v-1.949a.477.477,0,0,0-.477-.477h-1.641a.477.477,0,0,0-.477.477v1.949h-1.949a.477.477,0,0,0-.477.477v1.641a.477.477,0,0,0,.477.477h1.949v1.949a.477.477,0,0,0,.477.477H328.4a.477.477,0,0,0,.477-.477V168.23h1.949a.477.477,0,0,0,.477-.477v-1.641a.477.477,0,0,0-.477-.477Z" transform="translate(61.139 10772.831)" fill="#06b2ff"/>
  </g>
</svg>
