<svg xmlns="http://www.w3.org/2000/svg" width="46.051" height="46.047" viewBox="0 0 46.051 46.047">
  <g id="graphic-design" transform="translate(0 -0.021)">
    <path id="Path_15011" data-name="Path 15011" d="M157.71,74.329h2.572v2.7H157.71Z" transform="translate(-143.525 -67.625)" fill="#fff"/>
    <path id="Path_15012" data-name="Path 15012" d="M157.71,246.329h2.572v2.7H157.71Z" transform="translate(-143.525 -224.155)" fill="#fff"/>
    <path id="Path_15013" data-name="Path 15013" d="M198.771,107.027h1.223V114.4h-1.223a1.349,1.349,0,0,0-1.349,1.349V117.1h-7.14v-1.349a1.349,1.349,0,0,0-1.349-1.349H187.71v-7.375h1.223a1.35,1.35,0,0,0,1.349-1.349v-1.349h7.14v1.349A1.35,1.35,0,0,0,198.771,107.027Z" transform="translate(-170.827 -94.926)" fill="#fff"/>
    <path id="Path_15014" data-name="Path 15014" d="M325.69,74.329h2.572v2.7H325.69Z" transform="translate(-296.397 -67.625)" fill="#fff"/>
    <path id="Path_15015" data-name="Path 15015" d="M325.69,246.329h2.572v2.7H325.69Z" transform="translate(-296.397 -224.155)" fill="#fff"/>
    <path id="Path_15016" data-name="Path 15016" d="M41.412.027H4.831A4.592,4.592,0,0,0,0,4.6V31.555H46.05V4.6A4.577,4.577,0,0,0,41.412.027ZM34.564,10.752A1.35,1.35,0,0,1,33.215,12.1H31.865v7.375h1.349a1.349,1.349,0,0,1,1.349,1.349v5.4a1.35,1.35,0,0,1-1.349,1.349H27.944a1.35,1.35,0,0,1-1.349-1.349V24.873h-7.14v1.349a1.35,1.35,0,0,1-1.349,1.349H12.835a1.35,1.35,0,0,1-1.349-1.349v-5.4a1.349,1.349,0,0,1,1.349-1.349h1.349V12.1H12.835a1.35,1.35,0,0,1-1.349-1.349v-5.4a1.349,1.349,0,0,1,1.349-1.349h5.271a1.349,1.349,0,0,1,1.349,1.349V6.7h7.14V5.355a1.349,1.349,0,0,1,1.349-1.349h5.271a1.349,1.349,0,0,1,1.349,1.349Z" transform="translate(0 0)" fill="#fff"/>
    <path id="Path_15017" data-name="Path 15017" d="M4.57,385.2H41.481a4.574,4.574,0,0,0,4.57-4.569H0A4.574,4.574,0,0,0,4.57,385.2Z" transform="translate(0 -346.376)" fill="#fff"/>
    <path id="Path_15018" data-name="Path 15018" d="M161.129,464.621a1.35,1.35,0,0,1-1.349,1.349H141.669a1.349,1.349,0,1,1,0-2.7h1.589a7.188,7.188,0,0,0,1-1.849h12.925a7.188,7.188,0,0,0,1,1.849h1.589A1.35,1.35,0,0,1,161.129,464.621Z" transform="translate(-127.699 -419.902)" fill="#fff"/>
  </g>
</svg>
