<svg xmlns="http://www.w3.org/2000/svg" width="68" height="89" viewBox="0 0 68 89">
  <g id="Group_34" data-name="Group 34" transform="translate(-749 -609)">
    <circle id="Ellipse_5" data-name="Ellipse 5" cx="1.5" cy="1.5" r="1.5" transform="translate(749 609)" fill="#a9bdec" opacity="0.35"/>
    <circle id="Ellipse_5-2" data-name="Ellipse 5" cx="1.5" cy="1.5" r="1.5" transform="translate(762 609)" fill="#a9bdec" opacity="0.35"/>
    <circle id="Ellipse_5-3" data-name="Ellipse 5" cx="1.5" cy="1.5" r="1.5" transform="translate(775 609)" fill="#a9bdec" opacity="0.35"/>
    <circle id="Ellipse_5-4" data-name="Ellipse 5" cx="1.5" cy="1.5" r="1.5" transform="translate(788 609)" fill="#a9bdec" opacity="0.35"/>
    <circle id="Ellipse_5-5" data-name="Ellipse 5" cx="1.5" cy="1.5" r="1.5" transform="translate(801 609)" fill="#a9bdec" opacity="0.35"/>
    <circle id="Ellipse_5-6" data-name="Ellipse 5" cx="1.5" cy="1.5" r="1.5" transform="translate(814 609)" fill="#a9bdec" opacity="0.35"/>
    <circle id="Ellipse_5-7" data-name="Ellipse 5" cx="1.5" cy="1.5" r="1.5" transform="translate(749 621)" fill="#a9bdec" opacity="0.35"/>
    <circle id="Ellipse_5-8" data-name="Ellipse 5" cx="1.5" cy="1.5" r="1.5" transform="translate(762 621)" fill="#a9bdec" opacity="0.35"/>
    <circle id="Ellipse_5-9" data-name="Ellipse 5" cx="1.5" cy="1.5" r="1.5" transform="translate(775 621)" fill="#a9bdec" opacity="0.35"/>
    <circle id="Ellipse_5-10" data-name="Ellipse 5" cx="1.5" cy="1.5" r="1.5" transform="translate(788 621)" fill="#a9bdec" opacity="0.35"/>
    <circle id="Ellipse_5-11" data-name="Ellipse 5" cx="1.5" cy="1.5" r="1.5" transform="translate(801 621)" fill="#a9bdec" opacity="0.35"/>
    <circle id="Ellipse_5-12" data-name="Ellipse 5" cx="1.5" cy="1.5" r="1.5" transform="translate(814 621)" fill="#a9bdec" opacity="0.35"/>
    <ellipse id="Ellipse_5-13" data-name="Ellipse 5" cx="1.5" cy="1" rx="1.5" ry="1" transform="translate(749 634)" fill="#a9bdec" opacity="0.35"/>
    <ellipse id="Ellipse_5-14" data-name="Ellipse 5" cx="1.5" cy="1" rx="1.5" ry="1" transform="translate(762 634)" fill="#a9bdec" opacity="0.35"/>
    <ellipse id="Ellipse_5-15" data-name="Ellipse 5" cx="1.5" cy="1" rx="1.5" ry="1" transform="translate(775 634)" fill="#a9bdec" opacity="0.35"/>
    <ellipse id="Ellipse_5-16" data-name="Ellipse 5" cx="1.5" cy="1" rx="1.5" ry="1" transform="translate(788 634)" fill="#a9bdec" opacity="0.35"/>
    <ellipse id="Ellipse_5-17" data-name="Ellipse 5" cx="1.5" cy="1" rx="1.5" ry="1" transform="translate(801 634)" fill="#a9bdec" opacity="0.35"/>
    <ellipse id="Ellipse_5-18" data-name="Ellipse 5" cx="1.5" cy="1" rx="1.5" ry="1" transform="translate(814 634)" fill="#a9bdec" opacity="0.35"/>
    <circle id="Ellipse_5-19" data-name="Ellipse 5" cx="1.5" cy="1.5" r="1.5" transform="translate(749 646)" fill="#a9bdec" opacity="0.35"/>
    <circle id="Ellipse_5-20" data-name="Ellipse 5" cx="1.5" cy="1.5" r="1.5" transform="translate(762 646)" fill="#a9bdec" opacity="0.35"/>
    <circle id="Ellipse_5-21" data-name="Ellipse 5" cx="1.5" cy="1.5" r="1.5" transform="translate(775 646)" fill="#a9bdec" opacity="0.35"/>
    <circle id="Ellipse_5-22" data-name="Ellipse 5" cx="1.5" cy="1.5" r="1.5" transform="translate(788 646)" fill="#a9bdec" opacity="0.35"/>
    <circle id="Ellipse_5-23" data-name="Ellipse 5" cx="1.5" cy="1.5" r="1.5" transform="translate(801 646)" fill="#a9bdec" opacity="0.35"/>
    <circle id="Ellipse_5-24" data-name="Ellipse 5" cx="1.5" cy="1.5" r="1.5" transform="translate(814 646)" fill="#a9bdec" opacity="0.35"/>
    <circle id="Ellipse_5-25" data-name="Ellipse 5" cx="1.5" cy="1.5" r="1.5" transform="translate(749 658)" fill="#a9bdec" opacity="0.35"/>
    <circle id="Ellipse_5-26" data-name="Ellipse 5" cx="1.5" cy="1.5" r="1.5" transform="translate(762 658)" fill="#a9bdec" opacity="0.35"/>
    <circle id="Ellipse_5-27" data-name="Ellipse 5" cx="1.5" cy="1.5" r="1.5" transform="translate(775 658)" fill="#a9bdec" opacity="0.35"/>
    <circle id="Ellipse_5-28" data-name="Ellipse 5" cx="1.5" cy="1.5" r="1.5" transform="translate(788 658)" fill="#a9bdec" opacity="0.35"/>
    <circle id="Ellipse_5-29" data-name="Ellipse 5" cx="1.5" cy="1.5" r="1.5" transform="translate(801 658)" fill="#a9bdec" opacity="0.35"/>
    <circle id="Ellipse_5-30" data-name="Ellipse 5" cx="1.5" cy="1.5" r="1.5" transform="translate(814 658)" fill="#a9bdec" opacity="0.35"/>
    <circle id="Ellipse_5-31" data-name="Ellipse 5" cx="1.5" cy="1.5" r="1.5" transform="translate(749 670)" fill="#a9bdec" opacity="0.35"/>
    <circle id="Ellipse_5-32" data-name="Ellipse 5" cx="1.5" cy="1.5" r="1.5" transform="translate(762 670)" fill="#a9bdec" opacity="0.35"/>
    <circle id="Ellipse_5-33" data-name="Ellipse 5" cx="1.5" cy="1.5" r="1.5" transform="translate(775 670)" fill="#a9bdec" opacity="0.35"/>
    <circle id="Ellipse_5-34" data-name="Ellipse 5" cx="1.5" cy="1.5" r="1.5" transform="translate(788 670)" fill="#a9bdec" opacity="0.35"/>
    <circle id="Ellipse_5-35" data-name="Ellipse 5" cx="1.5" cy="1.5" r="1.5" transform="translate(801 670)" fill="#a9bdec" opacity="0.35"/>
    <circle id="Ellipse_5-36" data-name="Ellipse 5" cx="1.5" cy="1.5" r="1.5" transform="translate(814 670)" fill="#a9bdec" opacity="0.35"/>
    <circle id="Ellipse_5-37" data-name="Ellipse 5" cx="1.5" cy="1.5" r="1.5" transform="translate(749 683)" fill="#a9bdec" opacity="0.35"/>
    <circle id="Ellipse_5-38" data-name="Ellipse 5" cx="1.5" cy="1.5" r="1.5" transform="translate(762 683)" fill="#a9bdec" opacity="0.35"/>
    <circle id="Ellipse_5-39" data-name="Ellipse 5" cx="1.5" cy="1.5" r="1.5" transform="translate(775 683)" fill="#a9bdec" opacity="0.35"/>
    <circle id="Ellipse_5-40" data-name="Ellipse 5" cx="1.5" cy="1.5" r="1.5" transform="translate(788 683)" fill="#a9bdec" opacity="0.35"/>
    <circle id="Ellipse_5-41" data-name="Ellipse 5" cx="1.5" cy="1.5" r="1.5" transform="translate(801 683)" fill="#a9bdec" opacity="0.35"/>
    <circle id="Ellipse_5-42" data-name="Ellipse 5" cx="1.5" cy="1.5" r="1.5" transform="translate(814 683)" fill="#a9bdec" opacity="0.35"/>
    <circle id="Ellipse_5-43" data-name="Ellipse 5" cx="1.5" cy="1.5" r="1.5" transform="translate(749 695)" fill="#a9bdec" opacity="0.35"/>
    <circle id="Ellipse_5-44" data-name="Ellipse 5" cx="1.5" cy="1.5" r="1.5" transform="translate(762 695)" fill="#a9bdec" opacity="0.35"/>
    <circle id="Ellipse_5-45" data-name="Ellipse 5" cx="1.5" cy="1.5" r="1.5" transform="translate(775 695)" fill="#a9bdec" opacity="0.35"/>
    <circle id="Ellipse_5-46" data-name="Ellipse 5" cx="1.5" cy="1.5" r="1.5" transform="translate(788 695)" fill="#a9bdec" opacity="0.35"/>
    <circle id="Ellipse_5-47" data-name="Ellipse 5" cx="1.5" cy="1.5" r="1.5" transform="translate(801 695)" fill="#a9bdec" opacity="0.35"/>
    <circle id="Ellipse_5-48" data-name="Ellipse 5" cx="1.5" cy="1.5" r="1.5" transform="translate(814 695)" fill="#a9bdec" opacity="0.35"/>
  </g>
</svg>
