<svg xmlns="http://www.w3.org/2000/svg" width="409" height="450" viewBox="0 0 409 450">
  <g id="Group_211" data-name="Group 211" transform="translate(-8516 -1446.355)">
    <ellipse id="Ellipse_6" data-name="Ellipse 6" cx="204.5" cy="12" rx="204.5" ry="12" transform="translate(8516 1717)" fill="#01245c" opacity="0.75"/>
    <g id="customer-feedback" transform="translate(8590.173 1446.354)" opacity="0.457">
      <g id="Layer_2_25_" transform="translate(41.669 0.002)">
        <g id="Solid_24_" transform="translate(0 0)">
          <path id="Path_73407" data-name="Path 73407" d="M46.594,309.569h27.09a4.924,4.924,0,0,1,4.925,4.925v73.883a4.924,4.924,0,0,1-4.925,4.925H46.594a4.924,4.924,0,0,1-4.925-4.925V314.495a4.924,4.924,0,0,1,4.925-4.926Z" transform="translate(-41.669 -181.514)" fill="#2e51a0"/>
          <path id="Path_73408" data-name="Path 73408" d="M232.044.875l6.135,10.59a1.749,1.749,0,0,0,1.152.837L251.3,14.863a1.758,1.758,0,0,1,.941,2.891l-8.179,9.112a1.759,1.759,0,0,0-.438,1.354l1.261,12.166a1.757,1.757,0,0,1-2.463,1.786L231.231,37.21a1.748,1.748,0,0,0-1.423,0L218.62,42.173a1.755,1.755,0,0,1-2.463-1.785l1.261-12.176a1.759,1.759,0,0,0-.438-1.354L208.8,17.745a1.758,1.758,0,0,1,.941-2.891l11.976-2.542a1.749,1.749,0,0,0,1.152-.837L229.005.885A1.754,1.754,0,0,1,231.4.233a1.736,1.736,0,0,1,.648.642Z" transform="translate(-139.402 -0.002)" fill="#2e51a0"/>
          <path id="Path_73409" data-name="Path 73409" d="M386.839,137.809l6.135,10.59a1.749,1.749,0,0,0,1.153.837l11.967,2.561a1.758,1.758,0,0,1,.941,2.891l-8.179,9.112a1.759,1.759,0,0,0-.438,1.354l1.261,12.166a1.757,1.757,0,0,1-2.463,1.786l-11.188-4.963a1.748,1.748,0,0,0-1.423,0l-11.188,4.963a1.755,1.755,0,0,1-2.463-1.785l1.261-12.176a1.759,1.759,0,0,0-.438-1.354l-8.179-9.112a1.758,1.758,0,0,1,.941-2.891l11.976-2.542a1.749,1.749,0,0,0,1.152-.837l6.135-10.59a1.754,1.754,0,0,1,3.039-.011Z" transform="translate(-230.165 -80.292)" fill="#2e51a0"/>
          <path id="Path_73410" data-name="Path 73410" d="M77.257,137.808l6.135,10.59a1.749,1.749,0,0,0,1.152.837L96.51,151.8a1.758,1.758,0,0,1,.941,2.891L89.272,163.8a1.759,1.759,0,0,0-.438,1.354l1.261,12.166a1.757,1.757,0,0,1-2.463,1.786l-11.188-4.963a1.748,1.748,0,0,0-1.423,0l-11.184,4.965a1.755,1.755,0,0,1-2.463-1.785l1.261-12.176a1.759,1.759,0,0,0-.438-1.354l-8.179-9.112a1.758,1.758,0,0,1,.941-2.891l11.972-2.544a1.75,1.75,0,0,0,1.152-.837l6.135-10.59a1.755,1.755,0,0,1,3.04-.01Z" transform="translate(-48.647 -80.291)" fill="#2e51a0"/>
          <path id="Path_73411" data-name="Path 73411" d="M255.7,246.53h2.216a9.851,9.851,0,0,0,0-19.7H224.151c-21.672,0,2.463-54.181-29.553-54.181-4.925,0-4.283,3.716-4.123,5.974a59.5,59.5,0,0,1-15.02,43.281c-8.748,9.95-26.152,11.856-32.575,12.22V308.1h100.6A10.2,10.2,0,0,0,253.8,299.13a9.852,9.852,0,0,0-8.93-10.694c-.293-.027-.589-.039-.884-.039h6.024a10.2,10.2,0,0,0,10.324-8.969,9.852,9.852,0,0,0-8.93-10.694c-.293-.027-.586-.039-.881-.039h4.817a11.171,11.171,0,0,0,9.952-16.153,10.478,10.478,0,0,0-9.593-6.011Z" transform="translate(-101.013 -101.231)" fill="#2e51a0"/>
        </g>
      </g>
    </g>
  </g>
</svg>
