<svg xmlns="http://www.w3.org/2000/svg" width="54.407" height="51.475" viewBox="0 0 54.407 51.475">
  <g id="monitor-responsive-svgrepo-com" transform="translate(0.5 -13.554)">
    <g id="Group_55772" data-name="Group 55772" transform="translate(0 14.054)">
      <g id="Group_55771" data-name="Group 55771" transform="translate(0 0)">
        <path id="Path_14376" data-name="Path 14376" d="M49.156,14.054H4.251A4.255,4.255,0,0,0,0,18.3v6.178a.869.869,0,0,0,1.738,0V18.3a2.515,2.515,0,0,1,2.512-2.512h44.9A2.516,2.516,0,0,1,51.669,18.3V47.972H48.283V37.227a3.062,3.062,0,0,0-3.059-3.059H32.569a3.062,3.062,0,0,0-3.059,3.059V53.816H4.251A2.515,2.515,0,0,1,1.738,51.3V49.71H27.482a.869.869,0,0,0,0-1.738H1.738V27.379a.869.869,0,0,0-1.738,0V51.3a4.255,4.255,0,0,0,4.251,4.251H19.145l-2.138,5H12.832a.869.869,0,1,0,0,1.738H27.382a.869.869,0,1,0,0-1.738H18.9l1.485-3.475H29.51v4.39a3.062,3.062,0,0,0,3.059,3.059H45.224a3.062,3.062,0,0,0,3.059-3.059V49.71h3.386V51.3a2.51,2.51,0,0,1-1.535,2.315.869.869,0,1,0,.677,1.6,4.245,4.245,0,0,0,2.6-3.916v-33A4.256,4.256,0,0,0,49.156,14.054ZM31.248,37.227h0a1.322,1.322,0,0,1,1.321-1.321H45.224a1.322,1.322,0,0,1,1.321,1.321V57.461h-15.3Zm15.3,24.244a1.322,1.322,0,0,1-1.321,1.321H32.569a1.322,1.322,0,0,1-1.321-1.321V59.2h15.3Z" transform="translate(0 -14.054)" fill="#222872" stroke="#222872" stroke-width="1"/>
      </g>
    </g>
    <g id="Group_55774" data-name="Group 55774" transform="translate(25.835 50.698)">
      <g id="Group_55773" data-name="Group 55773">
        <path id="Path_14377" data-name="Path 14377" d="M249.265,365.722a.869.869,0,1,0-.158,1.143A.876.876,0,0,0,249.265,365.722Z" transform="translate(-247.674 -365.345)" fill="#009eff"/>
      </g>
    </g>
    <g id="Group_55779" data-name="Group 55779" transform="translate(25.835 17.698)">
      <g id="Group_55773-2" data-name="Group 55773">
        <path id="Path_14377-2" data-name="Path 14377" d="M249.265,365.722a.869.869,0,1,0-.158,1.143A.876.876,0,0,0,249.265,365.722Z" transform="translate(-247.674 -365.345)" fill="#009eff"/>
      </g>
    </g>
    <g id="Group_55776" data-name="Group 55776" transform="translate(38.029 60.126)">
      <g id="Group_55775" data-name="Group 55775">
        <path id="Path_14378" data-name="Path 14378" d="M366.243,456.269a.869.869,0,1,0-.321,1.056A.878.878,0,0,0,366.243,456.269Z" transform="translate(-364.572 -455.733)" fill="#009eff"/>
      </g>
    </g>
    <g id="Group_55778" data-name="Group 55778" transform="translate(35.652 36.949)">
      <g id="Group_55777" data-name="Group 55777">
        <path id="Path_14379" data-name="Path 14379" d="M347.4,233.543H342.65a.869.869,0,1,0,0,1.738H347.4a.869.869,0,1,0,0-1.738Z" transform="translate(-341.781 -233.543)" fill="#009eff"/>
      </g>
    </g>
  </g>
</svg>
