<svg xmlns="http://www.w3.org/2000/svg" width="30.857" height="54" viewBox="0 0 30.857 54">
  <g id="_9997016921594722070_1_" data-name="9997016921594722070 (1)" transform="translate(-4 -2)">
    <path id="Path_14275" data-name="Path 14275" d="M29.071,56H9.786A5.792,5.792,0,0,1,4,50.214V7.786A5.792,5.792,0,0,1,9.786,2H29.071a5.792,5.792,0,0,1,5.786,5.786v3.857a1.929,1.929,0,1,1-3.857,0V7.786a1.931,1.931,0,0,0-1.929-1.929H9.786A1.931,1.931,0,0,0,7.857,7.786V50.214a1.931,1.931,0,0,0,1.929,1.929H29.071A1.931,1.931,0,0,0,31,50.214V42.5a1.929,1.929,0,0,1,3.857,0v7.714A5.792,5.792,0,0,1,29.071,56Z" fill="#222872"/>
    <path id="Line_2" data-name="Line 2" d="M27.929,2.857h-27A1.929,1.929,0,0,1,.929-1h27a1.929,1.929,0,1,1,0,3.857Z" transform="translate(5 41.571)" fill="#222872"/>
    <path id="Line_3" data-name="Line 3" d="M4.786,2.857H.929A1.929,1.929,0,0,1,.929-1H4.786a1.929,1.929,0,0,1,0,3.857Z" transform="translate(16.571 47.357)" fill="#009eff"/>
    <path id="Line_4" data-name="Line 4" d="M-.078,33A1.962,1.962,0,0,1-2,31V0A1.962,1.962,0,0,1-.078-2,1.962,1.962,0,0,1,1.843,0V31A1.962,1.962,0,0,1-.078,33Z" transform="translate(33.014 11.5)" fill="#222872"/>
    <rect id="Rectangle_8905" data-name="Rectangle 8905" width="19" height="9" rx="2" transform="translate(10 7.864)" fill="#009eff"/>
    <rect id="Rectangle_8906" data-name="Rectangle 8906" width="8.437" height="4.732" rx="2" transform="translate(10 19)" fill="#222872"/>
    <rect id="Rectangle_8909" data-name="Rectangle 8909" width="8.437" height="4.732" rx="2" transform="translate(10 26)" fill="#222872"/>
    <rect id="Rectangle_8911" data-name="Rectangle 8911" width="8.437" height="4.732" rx="2" transform="translate(10 33)" fill="#222872"/>
    <rect id="Rectangle_8907" data-name="Rectangle 8907" width="8.437" height="4.732" rx="2" transform="translate(20.563 19)" fill="#222872"/>
    <rect id="Rectangle_8908" data-name="Rectangle 8908" width="8.437" height="4.732" rx="2" transform="translate(20.563 26)" fill="#222872"/>
    <rect id="Rectangle_8910" data-name="Rectangle 8910" width="8.437" height="4.732" rx="2" transform="translate(20.563 33)" fill="#222872"/>
  </g>
</svg>
