<svg xmlns="http://www.w3.org/2000/svg" width="30.857" height="54" viewBox="0 0 30.857 54">
  <g id="Group_55788" data-name="Group 55788" transform="translate(-364.071 -1842)">
    <g id="_9997016921594722070_1_" data-name="9997016921594722070 (1)" transform="translate(360.071 1840)">
      <path id="Path_14275" data-name="Path 14275" d="M29.071,56H9.786A5.792,5.792,0,0,1,4,50.214V7.786A5.792,5.792,0,0,1,9.786,2H29.071a5.792,5.792,0,0,1,5.786,5.786v3.857a1.929,1.929,0,1,1-3.857,0V7.786a1.931,1.931,0,0,0-1.929-1.929H9.786A1.931,1.931,0,0,0,7.857,7.786V50.214a1.931,1.931,0,0,0,1.929,1.929H29.071A1.931,1.931,0,0,0,31,50.214V42.5a1.929,1.929,0,0,1,3.857,0v7.714A5.792,5.792,0,0,1,29.071,56Z" fill="#222872"/>
      <path id="Line_1" data-name="Line 1" d="M27.929,2.857h-27A1.929,1.929,0,0,1,.929-1h27a1.929,1.929,0,1,1,0,3.857Z" transform="translate(5 10.714)" fill="#222872"/>
      <path id="Line_2" data-name="Line 2" d="M27.929,2.857h-27A1.929,1.929,0,0,1,.929-1h27a1.929,1.929,0,1,1,0,3.857Z" transform="translate(5 41.571)" fill="#222872"/>
      <path id="Line_3" data-name="Line 3" d="M4.786,2.857H.929A1.929,1.929,0,0,1,.929-1H4.786a1.929,1.929,0,0,1,0,3.857Z" transform="translate(16.571 47.357)" fill="#009eff"/>
      <path id="Line_4" data-name="Line 4" d="M0,33a2,2,0,0,1-2-2V0A2,2,0,0,1,0-2,2,2,0,0,1,2,0V31A2,2,0,0,1,0,33Z" transform="translate(32.857 11.5)" fill="#222872"/>
    </g>
    <path id="app-development-icon" d="M5.692,23.923a.743.743,0,0,1,0-1.47H22.37a.743.743,0,0,1,0,1.47Zm0,4.336a.743.743,0,0,1,0-1.47H21.754a.743.743,0,0,1,0,1.47Zm0,4.337a.743.743,0,0,1,0-1.47H19.409a.743.743,0,0,1,0,1.47Zm0,8.672a.744.744,0,0,1,0-1.471h4.382a.744.744,0,0,1,0,1.471Zm0-4.337a.743.743,0,0,1,0-1.47h6.97a.743.743,0,0,1,0,1.47H5.692Z" transform="translate(364.969 1835)" fill="#222872" fill-rule="evenodd"/>
    <path id="app-development-icon-2" data-name="app-development-icon" d="M16.234,40.267a.486.486,0,0,1,.045.681.475.475,0,0,1-.674.045L14.1,39.66a.486.486,0,0,1-.045-.68l.049-.048L15.6,37.6a.474.474,0,0,1,.674.045.485.485,0,0,1-.045.68l-1.1.969Zm3.614.726a.475.475,0,0,1-.674-.045.487.487,0,0,1,.045-.681l1.1-.969-1.1-.969a.485.485,0,0,1-.045-.68.474.474,0,0,1,.674-.045l1.5,1.329.048.048a.485.485,0,0,1-.045.68Zm-2.209-3.666a.48.48,0,0,1,.575-.361.485.485,0,0,1,.358.581l-.861,3.721a.479.479,0,0,1-.575.361.485.485,0,0,1-.358-.58Z" transform="translate(366.452 1835.348)" fill="#009eff" fill-rule="evenodd"/>
  </g>
</svg>
