<svg xmlns="http://www.w3.org/2000/svg" width="56.719" height="47.993" viewBox="0 0 56.719 47.993">
  <g id="Group_55787" data-name="Group 55787" transform="translate(-352.068 -1846)">
    <path id="Code-595b40b65ba036ed117d0fba" d="M6.545,2A6.428,6.428,0,0,0,0,8.545v34.9a6.428,6.428,0,0,0,6.545,6.545h43.63a6.428,6.428,0,0,0,6.545-6.545V8.545A6.428,6.428,0,0,0,50.175,2ZM4.363,12.908H52.356V43.449a2.061,2.061,0,0,1-2.182,2.182H6.545a2.061,2.061,0,0,1-2.182-2.182Z" transform="translate(352.068 1844)" fill="#222872"/>
    <path id="Code-595b40b65ba036ed117d0fba-2" data-name="Code-595b40b65ba036ed117d0fba" d="M24.715,17.271,18.249,35.053h3.233l6.466-17.782ZM13.8,19.443,8.954,25.1l-.909,1.061.909,1.061,4.85,5.658,2.425-2.122-3.94-4.6,3.94-4.6Zm18.591,0-2.425,2.122,3.94,4.6-3.94,4.6,2.425,2.122,4.85-5.658.909-1.061L37.244,25.1Z" transform="translate(357.329 1847.107)" fill="#009eff"/>
  </g>
</svg>
