<svg id="Layer_1" data-name="Layer 1" xmlns="http://www.w3.org/2000/svg" viewBox="0 0 74.78 57.12"><defs><style>.cls-1{fill:#fff;}</style></defs><path class="cls-1" d="M62.07.14H12.55c-.28,0-.29,0-.27.29l.15,1.66.3,3.44.33,3.66c.07.86.15,1.72.22,2.58l.33,3.55c.07.89.15,1.77.23,2.66.1,1.17.21,2.35.32,3.51l.3,3.48c.11,1.19.22,2.37.32,3.55s.2,2.3.3,3.45l.33,3.55.3,3.45.39,4.27.3,3.48c.13,1.48.27,2.95.4,4.42,0,.31,0,.32.34.41l20,5.55a.62.62,0,0,0,.33,0L57.3,51.61c.21-.06.48,0,.61-.21a1.46,1.46,0,0,0,.1-.67l.3-3.45.33-3.62c.08-.87.15-1.75.23-2.62.11-1.17.21-2.34.32-3.51l.3-3.45.33-3.65c.1-1.12.19-2.23.29-3.35l.33-3.65.3-3.34c.11-1.21.22-2.41.32-3.62s.2-2.25.3-3.38l.33-3.62c.08-.87.15-1.75.23-2.62.11-1.18.21-2.36.32-3.55.08-.9.15-1.79.24-2.69C62.52.14,62.53.14,62.07.14Zm-9,11c-.15,1.62-.31,3.24-.46,4.85,0,.27-.06.53-.07.8s-.07.18-.2.17h-15v0a.77.77,0,0,0-.3,0H28.83c-.35,0-.35,0-.31.35v0c.13,1.48.27,3,.4,4.44,0,.47.1.94.13,1.42,0,.14.07.21.22.19H51.6c.38,0,.38,0,.34.39-.12,1.43-.24,2.87-.37,4.31-.15,1.65-.31,3.31-.45,5-.11,1.16-.2,2.32-.31,3.48-.12,1.4-.26,2.8-.38,4.2-.06.58-.11,1.15-.15,1.72a.31.31,0,0,1-.27.33l-6.39,1.77-5.9,1.63-.33.09v-.09h0v.12L24.93,42.8c-.46-.13-.46-.13-.5-.59l-.51-5.79c-.09-1.12-.2-2.23-.31-3.35,0-.26,0-.27.26-.27h5.74c.3,0,.3,0,.33.31.08.9.15,1.79.23,2.69l.15,1.76a.29.29,0,0,0,.24.32l6.71,1.8h.21l6.63-1.78c.28-.07.28-.08.31-.37l.3-3.45c.1-1.15.21-2.32.32-3.48,0-.25,0-.5.07-.76s0-.2-.16-.19H23.77a1.92,1.92,0,0,0-.24,0c-.15,0-.22,0-.23-.21-.06-.69-.13-1.37-.19-2.06l-.33-3.58c-.08-.88-.15-1.75-.23-2.62l-.33-3.51c-.07-.85-.15-1.7-.22-2.55l-.33-3.59c0-.23,0-.47-.06-.72s0-.16.15-.16H36.92l.45,0s0,0,0,0h0l.38,0H52.68C53.17,10.64,53.13,10.58,53.09,11.09Z"/></svg>