<svg xmlns="http://www.w3.org/2000/svg" width="42.065" height="59.396" viewBox="0 0 42.065 59.396">
  <g id="Group_55649" data-name="Group 55649" transform="translate(-482.411 -173.815)">
    <g id="Group_55648" data-name="Group 55648" transform="translate(482.411 173.815)">
      <path id="Path_37640" data-name="Path 37640" d="M583.475,173.815a1.474,1.474,0,0,1,.022.46c0,.657,0,1.315,0,1.973,0,.218,0,.221-.227.221q-1,0-2,0c-.226,0-.229,0-.229-.246q0-1.2,0-2.408Z" transform="translate(-574.469 -173.815)" fill="#fff"/>
      <path id="Path_37641" data-name="Path 37641" d="M709.492,173.815c.024.067-.027.108-.055.155q-.764,1.259-1.531,2.516c-.023.037-.033.092-.093.1-.067-.014-.079-.079-.107-.125q-.761-1.244-1.517-2.491c-.029-.047-.077-.089-.061-.155Z" transform="translate(-681.86 -173.815)" fill="#fff"/>
      <path id="Path_37642" data-name="Path 37642" d="M555.656,256.3h20.654c.386,0,.377,0,.339.4-.072.75-.132,1.5-.2,2.252q-.133,1.487-.269,2.973c-.065.731-.128,1.463-.193,2.195q-.135,1.516-.273,3.031c-.084.943-.165,1.887-.25,2.83q-.135,1.516-.273,3.031-.125,1.4-.248,2.8-.136,1.53-.275,3.06c-.083.934-.164,1.867-.247,2.8q-.136,1.53-.275,3.06c-.085.962-.167,1.925-.253,2.888-.087.982-.178,1.963-.266,2.944-.066.731-.128,1.463-.194,2.194q-.136,1.516-.273,3.031-.128,1.444-.252,2.888c-.017.192.018.417-.089.562s-.332.125-.507.174q-8.285,2.3-16.569,4.595a.48.48,0,0,1-.278,0q-8.4-2.331-16.793-4.654c-.27-.075-.264-.076-.287-.339-.109-1.232-.223-2.463-.332-3.7-.086-.972-.167-1.945-.254-2.917-.107-1.193-.218-2.386-.325-3.579-.086-.962-.167-1.925-.253-2.888-.088-.991-.181-1.982-.27-2.973-.086-.962-.167-1.925-.253-2.888-.088-.991-.181-1.982-.27-2.973-.086-.972-.168-1.945-.254-2.917s-.18-1.963-.268-2.944c-.066-.741-.128-1.483-.194-2.224-.088-.991-.18-1.982-.269-2.973-.065-.722-.127-1.444-.191-2.166q-.137-1.53-.275-3.06-.128-1.444-.252-2.888c-.04-.462-.084-.924-.12-1.386-.019-.24-.012-.241.221-.245.068,0,.135,0,.2,0Zm-.036,33.116a.325.325,0,0,1-.086,0q-2.811-.751-5.622-1.5c-.16-.042-.188-.14-.2-.272q-.062-.737-.126-1.473c-.064-.751-.126-1.5-.192-2.253-.023-.254-.028-.256-.276-.257-.571,0-1.141,0-1.712,0q-1.552,0-3.1,0c-.231,0-.233.008-.212.226.087.933.177,1.866.261,2.8q.217,2.425.426,4.851c.034.388.033.388.414.494l10.43,2.909v5.44c.151-.037.262-.06.371-.091.908-.255,1.814-.513,2.723-.766.964-.268,1.93-.526,2.893-.8,1.177-.329,2.35-.669,3.527-1,1.38-.386,2.762-.766,4.143-1.151.254-.071.306-.134.324-.393a2.183,2.183,0,0,1,.013-.4,6.4,6.4,0,0,0,.091-.975c.036-.312.073-.629.085-.948a3.757,3.757,0,0,1,.059-.687,7.763,7.763,0,0,0,.086-.888c.035-.312.07-.63.086-.947a5,5,0,0,1,.061-.774c.062-.3.052-.594.085-.888.035-.312.073-.63.085-.948.01-.247.029-.5.06-.746.048-.372.08-.744.1-1.117.017-.278.043-.557.076-.832.026-.221.01-.444.052-.66a9.942,9.942,0,0,0,.1-1c.028-.3.052-.595.083-.889.025-.24.006-.483.051-.718.064-.332.066-.668.1-1,.028-.3.056-.594.083-.89.02-.22.012-.443.051-.66a8.6,8.6,0,0,0,.1-1.031c.018-.307.056-.613.082-.919a4.076,4.076,0,0,1,.054-.659,6.176,6.176,0,0,0,.087-.888c.034-.313.064-.632.088-.947a5.776,5.776,0,0,1,.057-.775,7.935,7.935,0,0,0,.089-.916c.031-.314.063-.632.087-.947a6.311,6.311,0,0,1,.057-.717,7.562,7.562,0,0,0,.093-.973c.02-.317.06-.632.084-.948a4.406,4.406,0,0,1,.053-.659,6.573,6.573,0,0,0,.091-.916c.027-.315.06-.632.086-.947a6.834,6.834,0,0,1,.058-.775,8.884,8.884,0,0,0,.091-.945c.028-.305.059-.613.085-.919a6.4,6.4,0,0,1,.055-.689,7.236,7.236,0,0,0,.094-.973c.019-.317.058-.633.083-.948a5.272,5.272,0,0,1,.055-.688c.067-.312.047-.631.1-.945.055-.35.07-.706.108-1.059.016-.151,0-.182-.166-.193-.038,0-.077,0-.116,0H555.908c-.286,0-.289,0-.289.288q0,2.48,0,4.959c-.125.005-.25.015-.376.015h-12.7c-.091,0-.144.025-.13.136.024.2.033.4.052.606q.136,1.5.274,3c.065.712.126,1.423.191,2.135.089.981.181,1.961.27,2.942.066.731.128,1.462.194,2.193q.135,1.5.274,3c.053.577.113,1.153.159,1.731.011.143.069.184.2.172.067-.006.135,0,.2,0h11.047c.115,0,.231.01.346.016Z" transform="translate(-534.601 -244.634)" fill="#e44d27"/>
      <path id="Path_37643" data-name="Path 37643" d="M683.148,286.52q0-2.48,0-4.959c0-.285,0-.288.289-.288h16.649c.039,0,.078,0,.116,0,.162.011.182.042.166.193-.038.353-.052.709-.108,1.059-.049.314-.029.632-.1.945a5.273,5.273,0,0,0-.055.688c-.025.315-.065.631-.083.948a7.245,7.245,0,0,1-.094.973,6.4,6.4,0,0,0-.055.689c-.026.306-.057.613-.085.919a8.9,8.9,0,0,1-.091.945,6.848,6.848,0,0,0-.058.775c-.026.315-.059.633-.086.948a6.583,6.583,0,0,1-.091.916,4.4,4.4,0,0,0-.053.659c-.024.316-.064.631-.084.948a7.563,7.563,0,0,1-.093.973,6.3,6.3,0,0,0-.057.717c-.024.315-.056.633-.087.947a7.948,7.948,0,0,1-.089.916,5.776,5.776,0,0,0-.058.775c-.024.315-.054.634-.088.947a6.185,6.185,0,0,1-.087.888,4.075,4.075,0,0,0-.054.659c-.026.306-.064.612-.082.919a8.594,8.594,0,0,1-.1,1.031c-.039.217-.031.44-.051.66-.027.3-.055.594-.083.89-.031.334-.033.67-.1,1-.046.235-.026.478-.051.718-.031.294-.055.593-.083.889a9.944,9.944,0,0,1-.1,1c-.042.216-.026.439-.052.66-.033.275-.059.554-.076.832-.023.373-.056.746-.1,1.117-.031.247-.05.5-.06.746-.013.318-.05.635-.085.947-.033.294-.023.593-.085.888a5,5,0,0,0-.061.774c-.015.317-.051.635-.086.947a7.776,7.776,0,0,1-.086.888,3.757,3.757,0,0,0-.059.687c-.012.318-.049.636-.085.948a6.412,6.412,0,0,1-.091.975,2.178,2.178,0,0,0-.013.4c-.018.26-.07.323-.324.393-1.381.384-2.763.764-4.143,1.15-1.177.33-2.35.669-3.527,1-.963.27-1.929.528-2.893.8-.908.253-1.815.511-2.723.766-.109.031-.221.054-.371.091v-5.44l0-.029c.094-.024.187-.047.28-.072q2.468-.682,4.937-1.366c1.785-.5,3.568-1,5.354-1.485a.255.255,0,0,0,.226-.272c.031-.482.08-.962.124-1.443.107-1.173.217-2.347.323-3.52.087-.972.167-1.944.254-2.915.125-1.385.257-2.77.381-4.155.108-1.2.209-2.406.314-3.608.029-.328.031-.328-.289-.328h-11.6a.868.868,0,0,0-.316.022.071.071,0,0,0,0-.039q0-.29,0-.579l.005-4.776a.147.147,0,0,1,0-.04c.1,0,.192.014.289.014H695.5c.068,0,.136,0,.2,0,.107.006.155-.038.163-.149.014-.222.039-.443.06-.664.128-1.356.261-2.711.382-4.068.038-.425.071-.374-.343-.375q-6.25,0-12.5,0c-.106,0-.212.009-.318.014A.031.031,0,0,0,683.148,286.52Z" transform="translate(-662.129 -266.071)" fill="#f1662a"/>
      <path id="Path_37644" data-name="Path 37644" d="M603.03,334.318c-.115-.005-.231-.016-.346-.016H591.637c-.068,0-.136-.005-.2,0-.129.012-.187-.029-.2-.172-.045-.577-.106-1.154-.159-1.731q-.138-1.5-.274-3c-.066-.731-.128-1.462-.194-2.193-.089-.981-.181-1.961-.27-2.942-.065-.712-.127-1.424-.191-2.135q-.136-1.5-.274-3c-.018-.2-.028-.4-.052-.606-.013-.111.039-.136.13-.136h12.7c.125,0,.251-.01.376-.015a.031.031,0,0,1,0,.029q0,2.614,0,5.227a.147.147,0,0,0,0,.04.6.6,0,0,0-.257-.025h-6.9c-.288,0-.288,0-.259.294,0,.01,0,.019,0,.029q.169,1.862.339,3.723c.036.394.078.788.108,1.183.01.123.058.175.179.166.048,0,.1,0,.145,0h6.382c.087,0,.173-.01.26-.015a.071.071,0,0,1,0,.039q0,2.616,0,5.232Z" transform="translate(-582.01 -297.923)" fill="#ebeaea"/>
      <path id="Path_37645" data-name="Path 37645" d="M613.167,460.978l0,.029-10.43-2.909c-.38-.106-.38-.106-.414-.494q-.212-2.425-.426-4.851c-.083-.933-.173-1.866-.261-2.8-.02-.218-.018-.226.212-.226q1.552,0,3.1,0c.571,0,1.141,0,1.712,0,.248,0,.254,0,.276.257.066.751.128,1.5.192,2.253q.063.737.126,1.473c.011.132.039.23.2.272q2.813.744,5.622,1.5a.329.329,0,0,0,.086,0l0,.026q0,.434,0,.868Q613.164,458.677,613.167,460.978Z" transform="translate(-592.143 -410.696)" fill="#ebeaea"/>
      <path id="Path_37646" data-name="Path 37646" d="M683.159,439.339q0-4.2,0-8.39l-.005-.025c.116.005.231.014.347.014h5.8c.068,0,.136,0,.2,0,.122-.006.144.057.132.163-.024.211-.039.423-.058.635-.089.972-.181,1.943-.268,2.915s-.167,1.925-.253,2.887c-.022.246-.026.249-.257.311l-5.648,1.514Z" transform="translate(-662.14 -394.553)" fill="#f1662a"/>
      <path id="Path_37647" data-name="Path 37647" d="M683.144,407.458l5.648-1.514c.231-.062.235-.065.257-.311.086-.962.167-1.925.253-2.887s.179-1.943.268-2.915c.02-.212.034-.424.058-.635.012-.106-.01-.17-.132-.163-.067,0-.135,0-.2,0h-5.8c-.116,0-.231-.009-.347-.014q0-2.616,0-5.232a.868.868,0,0,1,.316-.022h11.6c.321,0,.318,0,.289.328-.106,1.2-.206,2.406-.314,3.608-.124,1.385-.256,2.77-.381,4.155-.088.972-.167,1.944-.254,2.915-.105,1.173-.216,2.347-.323,3.52-.044.481-.093.962-.124,1.443a.255.255,0,0,1-.226.272c-1.786.49-3.57.99-5.354,1.485q-2.468.685-4.937,1.366c-.093.026-.187.048-.28.072q0-2.3-.006-4.6C683.146,408.037,683.145,407.747,683.144,407.458Z" transform="translate(-662.129 -362.646)" fill="#fff"/>
      <path id="Path_37648" data-name="Path 37648" d="M683.185,323.715q0-2.614,0-5.227c.106,0,.212-.014.318-.014q6.25,0,12.5,0c.414,0,.381-.05.343.375-.121,1.357-.254,2.712-.382,4.068-.021.221-.046.442-.06.664-.007.111-.055.155-.163.149-.068,0-.135,0-.2,0H683.474C683.377,323.728,683.281,323.719,683.185,323.715Z" transform="translate(-662.166 -298.009)" fill="#fff"/>
      <path id="Path_37649" data-name="Path 37649" d="M638.1,361c-.087,0-.173.015-.26.015h-6.382c-.048,0-.1,0-.145,0-.121.009-.169-.043-.179-.166-.03-.395-.072-.789-.108-1.183q-.17-1.862-.339-3.723c0-.01,0-.019,0-.029-.028-.292-.028-.294.259-.294h6.9a.6.6,0,0,1,.257.025l-.005,4.776Q638.1,360.715,638.1,361Z" transform="translate(-617.083 -329.904)" fill="#e44d27"/>
    </g>
  </g>
</svg>
