<svg xmlns="http://www.w3.org/2000/svg" width="57.959" height="54.324" viewBox="0 0 57.959 54.324">
  <g id="Group_68959" data-name="Group 68959" transform="translate(-9401.001 -691)">
    <path id="Path_50878" data-name="Path 50878" d="M144.777,86.3h-3.866a.906.906,0,0,0-.906.906v9.056a.905.905,0,0,0,.906.906h3.866a13.119,13.119,0,0,0,1.231,2.4l.105.175-3.125,3.125h0a.906.906,0,0,0,0,1.281l6.339,6.339a.906.906,0,0,0,1.281,0l3.125-3.125.175.105h0a13.122,13.122,0,0,0,2.4,1.231v3.866a.905.905,0,0,0,.906.906h9.056a.905.905,0,0,0,.906-.906V108.7a13.121,13.121,0,0,0,2.4-1.231l.175-.105,3.125,3.125h0a.906.906,0,0,0,1.281,0l6.339-6.339a.906.906,0,0,0,0-1.281l-3.125-3.125.105-.175h0a13.124,13.124,0,0,0,1.231-2.4h3.866a.905.905,0,0,0,.906-.906V87.206a.905.905,0,0,0-.906-.906H178.7a13.121,13.121,0,0,0-1.231-2.4l-.105-.175L180.49,80.6h0a.906.906,0,0,0,0-1.281l-6.339-6.339a.906.906,0,0,0-1.281,0l-3.125,3.125L169.571,76h0a13.123,13.123,0,0,0-2.4-1.231V70.905a.905.905,0,0,0-.906-.906h-9.056a.906.906,0,0,0-.906.906v3.866a13.12,13.12,0,0,0-2.4,1.231l-.175.105-3.125-3.125h0a.906.906,0,0,0-1.281,0l-6.339,6.339a.906.906,0,0,0,0,1.281l3.125,3.125-.105.175h0A13.121,13.121,0,0,0,144.777,86.3Zm3.113-3.357-2.982-2.982,5.059-5.059,2.982,2.982h0a.906.906,0,0,0,1.092.145c.281-.162.543-.321.8-.478a9.833,9.833,0,0,1,2.605-1.244.906.906,0,0,0,.667-.874V71.811h7.245v3.622a.906.906,0,0,0,.667.874,9.832,9.832,0,0,1,2.605,1.244c.257.157.522.316.8.478a.906.906,0,0,0,1.092-.145l2.982-2.982,5.059,5.059-2.982,2.982h0a.906.906,0,0,0-.145,1.092c.162.281.321.543.478.8a9.834,9.834,0,0,1,1.244,2.605.906.906,0,0,0,.874.667h3.622v7.245h-3.622a.906.906,0,0,0-.874.667,9.832,9.832,0,0,1-1.244,2.605c-.157.257-.316.522-.478.8a.906.906,0,0,0,.145,1.092l2.982,2.982-5.059,5.059-2.982-2.982h0a.906.906,0,0,0-1.092-.145c-.281.162-.543.321-.8.478a9.833,9.833,0,0,1-2.605,1.244.906.906,0,0,0-.667.874v3.622h-7.245v-3.622a.906.906,0,0,0-.667-.874,9.831,9.831,0,0,1-2.605-1.244c-.257-.157-.522-.316-.8-.478a.906.906,0,0,0-1.092.145l-2.982,2.982-5.059-5.059,2.982-2.982h0a.906.906,0,0,0,.145-1.092c-.162-.281-.321-.543-.478-.8a9.833,9.833,0,0,1-1.244-2.605.906.906,0,0,0-.874-.667h-3.622V88.111h3.622a.906.906,0,0,0,.874-.667,9.83,9.83,0,0,1,1.244-2.605c.157-.257.316-.522.478-.8A.906.906,0,0,0,147.89,82.943Z" transform="translate(9268.238 626.424)" fill="#222872"/>
    <path id="Path_50880" data-name="Path 50880" d="M146.445,33.915a.911.911,0,0,0-1.119.622l-.94,3.278a27.163,27.163,0,0,0-53.017,2.25.906.906,0,1,0,1.785.31,25.349,25.349,0,0,1,49.55-1.83l-3.17-2.644a.906.906,0,0,0-1.16,1.392l5.433,4.528a.905.905,0,0,0,.579.21.936.936,0,0,0,.272-.04.9.9,0,0,0,.6-.617l1.811-6.339a.906.906,0,0,0-.627-1.12Z" transform="translate(9311.854 673.409)" fill="#222872"/>
    <path id="Path_50881" data-name="Path 50881" d="M124.956,307.168a.9.9,0,0,0-1.045.737,25.287,25.287,0,0,1-49.437,1.881l3.108,2.592a.907.907,0,0,0,1.16-1.393l-5.433-4.528a.906.906,0,0,0-1.449.448l-1.811,6.339a.905.905,0,0,0,.622,1.119.948.948,0,0,0,.247.034.906.906,0,0,0,.87-.657l.965-3.377h0a27.095,27.095,0,0,0,52.937-2.149.905.905,0,0,0-.734-1.047Z" transform="translate(9330.988 414.626)" fill="#222872"/>
    <g id="html" transform="translate(9418.496 707.238)">
      <path id="Path_51804" data-name="Path 51804" d="M14.607,4.4,13,6.007l4.822,4.822L13,15.652l1.607,1.607,6.43-6.43Z" transform="translate(1.926 0.085)" fill="#009eff"/>
      <path id="Path_51805" data-name="Path 51805" d="M6.43,4.4,0,10.83l6.43,6.43,1.607-1.607L3.215,10.83,8.037,6.007Z" transform="translate(0 0.085)" fill="#009eff"/>
      <path id="Path_51806" data-name="Path 51806" d="M0,0H2.3V14.007H0Z" transform="translate(11.468 18.014) rotate(-170.557)" fill="#009eff"/>
    </g>
  </g>
</svg>
