<svg xmlns="http://www.w3.org/2000/svg" xmlns:xlink="http://www.w3.org/1999/xlink" width="150" height="150" viewBox="0 0 150 150">
  <defs>
    <linearGradient id="linear-gradient" x1="0.5" x2="0.5" y2="1" gradientUnits="objectBoundingBox">
      <stop offset="0" stop-color="#98e4ff"/>
      <stop offset="1" stop-color="#f1f8fd"/>
    </linearGradient>
  </defs>
  <g id="Group_58175" data-name="Group 58175" transform="translate(-325 -1899)">
    <circle id="Ellipse_727" data-name="Ellipse 727" cx="75" cy="75" r="75" transform="translate(325 1899)" fill="url(#linear-gradient)"/>
    <g id="Group_58310" data-name="Group 58310" transform="translate(139.861 1867.532)">
      <g id="Group_58309" data-name="Group 58309" transform="translate(233.987 72.765)">
        <path id="Path_47705" data-name="Path 47705" d="M505.656,129.4c.925.2,1.929.4,2.93.625q10.43,2.3,20.859,4.612a2.554,2.554,0,0,1,2.248,3.093q-.872,9.944-1.729,19.888-.928,10.615-1.869,21.229-.461,5.243-.917,10.487a2.46,2.46,0,0,1-1.969,2.388q-9.42,2.516-18.849,5a3.38,3.38,0,0,1-1.636-.028c-6.206-1.622-12.4-3.278-18.6-4.927a2.509,2.509,0,0,1-2.136-2.52q-1.159-13.237-2.316-26.474-1.109-12.661-2.221-25.322a2.517,2.517,0,0,1,2.179-2.789q8.487-1.882,16.976-3.753,3.069-.678,6.14-1.351C505.013,129.5,505.289,129.461,505.656,129.4Zm-.081,41.705c.007-.15.019-.3.019-.449q0-18.717,0-37.435c0-.189-.018-.377-.031-.63l-22.892,5.062a2.521,2.521,0,0,0-.018.308q.5,5.82,1.007,11.639.865,9.879,1.737,19.758c.55,6.267,1.107,12.532,1.635,18.8.043.51.251.672.7.789,4.2,1.1,8.391,2.224,12.586,3.338,1.733.461,3.467.917,5.277,1.395,0-1.1,0-2.121,0-3.144q-.01-7.737-.021-15.474h3.978v.848q0,3.209,0,6.418a1.74,1.74,0,0,0,.881,1.726,2,2,0,0,0,3.118-1.834c0-.128,0-.257,0-.385q0-8.247-.005-16.493a3.78,3.78,0,0,0-.149-1.326,1.925,1.925,0,0,0-.771-.958,2.023,2.023,0,0,0-3.069,1.826c-.016,1.818,0,3.637,0,5.455v.764Zm10.327-25.75c0,.983-.011,1.967,0,2.95.01.663.231.881.9.885a18.246,18.246,0,0,0,2.113-.052,3.767,3.767,0,0,0,.08-7.481,16.407,16.407,0,0,0-2.175-.068c-.689,0-.911.242-.919.944C515.892,143.473,515.9,144.413,515.9,145.354ZM507.46,146.4a.62.62,0,0,1,.922.363c.282.622.622,1.218.916,1.835.222.467.537.766,1.055.505s.458-.706.228-1.155c-.31-.6-.615-1.209-.93-1.829.125-.092.211-.152.295-.216a2.307,2.307,0,0,0,.928-2.537,2.361,2.361,0,0,0-2.128-1.76,15.737,15.737,0,0,0-1.731-.018c-.758.021-.969.246-.972,1.029-.007,1.881,0,3.763,0,5.644,0,.494.073.92.7.929s.722-.417.725-.909C507.462,147.645,507.46,147.009,507.46,146.4Zm5.215,1.327-.568.035c-.479.027-.767.245-.748.759.018.489.319.67.763.672.877,0,1.754.006,2.63,0a.621.621,0,0,0,.673-.69.654.654,0,0,0-.643-.732c-.206-.021-.411-.037-.615-.055v-4.664c.231-.014.419-.031.608-.036a.61.61,0,0,0,.647-.648c.023-.414-.154-.741-.6-.752-.961-.025-1.924-.027-2.884.006-.4.014-.592.3-.577.71a.621.621,0,0,0,.617.679c.226.02.452.031.7.048Z" transform="translate(-479.436 -129.399)" fill="#40bdff"/>
        <path id="Path_47711" data-name="Path 47711" d="M628.693,397.918q0,2,0,4h-4.016c-.014.307-.032.536-.033.765,0,2.1,0,4.195,0,6.292,0,1.777-1.171,2.593-2.868,2.012a1.469,1.469,0,0,1-1.037-1.2,5.211,5.211,0,0,1-.055-.9q0-8.443,0-16.887c0-.128,0-.257,0-.385a1.7,1.7,0,0,1,.864-1.673,2.418,2.418,0,0,1,2.341.033,1.8,1.8,0,0,1,.751,1.74c.009,1.8,0,3.6,0,5.394,0,.249,0,.5,0,.8Z" transform="translate(-602.536 -356.231)" fill="#40bdff"/>
        <path id="Path_47712" data-name="Path 47712" d="M647.1,227.587a2.264,2.264,0,0,1,1.007,2.712,2.392,2.392,0,0,1-2.506,1.6c-.492,0-.984,0-1.476,0a.683.683,0,0,1-.783-.732q-.015-3.049,0-6.1a.685.685,0,0,1,.716-.741c.341-.022.684-.017,1.026-.013C647.127,224.335,648.008,225.769,647.1,227.587Z" transform="translate(-622.281 -212.115)" fill="#40bdff"/>
        <path id="Path_47713" data-name="Path 47713" d="M554.292,228.8h-2.844c0,.768-.008,1.528,0,2.287.007.49-.037.918-.681.922-.621,0-.725-.384-.723-.895q.012-2.886,0-5.773c0-.52.141-.9.734-.9.578,0,.679.4.67.88-.012.64,0,1.281,0,1.978h2.844c0-.632.01-1.286,0-1.939-.01-.514.126-.91.72-.917.629-.007.687.428.684.925q-.014,2.886,0,5.773c0,.482-.074.865-.667.87s-.747-.365-.738-.886C554.3,230.367,554.292,229.6,554.292,228.8Z" transform="translate(-540.977 -212.238)" fill="#40bdff"/>
        <path id="Path_47714" data-name="Path 47714" d="M600.652,227.235c.433-.813.818-1.541,1.208-2.267.312-.582.685-.756,1.1-.5.506.314.423.722.156,1.157-.19.309-.332.649-.541.944a6.05,6.05,0,0,0-1.252,4.485c.067.467-.072.867-.661.875-.61.008-.8-.39-.726-.891a6.061,6.061,0,0,0-1.254-4.485,7.471,7.471,0,0,1-.6-1.058.717.717,0,0,1,.315-1.038c.428-.233.74-.022.949.361C599.773,225.587,600.181,226.358,600.652,227.235Z" transform="translate(-582.757 -212.157)" fill="#40bdff"/>
        <path id="Path_47715" data-name="Path 47715" d="M774.6,240.036v-4.558a2.873,2.873,0,0,1,2.963.791,2.365,2.365,0,0,1,.232,2.585C777.257,239.84,776.215,240.238,774.6,240.036Z" transform="translate(-736.686 -221.738)" fill="#40bdff"/>
        <path id="Path_47716" data-name="Path 47716" d="M697.955,235.178c.658.042,1.378-.259,1.828.407a1.136,1.136,0,0,1,.049.991c-.424.759-1.188.4-1.876.46Z" transform="translate(-669.886 -221.563)" fill="#40bdff"/>
      </g>
    </g>
  </g>
</svg>
