<svg xmlns="http://www.w3.org/2000/svg" width="38.621" height="52.745" viewBox="0 0 38.621 52.745">
  <g id="Group_55728" data-name="Group 55728" transform="translate(-365.5 -1843.128)">
    <g id="Group_55629" data-name="Group 55629" transform="translate(-130.41 1660.854)">
      <g id="Group_55628" data-name="Group 55628" transform="translate(500.197 201.078)">
        <path id="Path_14086" data-name="Path 14086" d="M568.866,265.028c-.231-.2-.425-.371-.613-.545-.034-.031-.068-.1-.054-.137a6.425,6.425,0,0,1,.458-.993,1.118,1.118,0,0,1,.907-.451c.358-.026.487-.162.488-.524q0-.8,0-1.6c0-.368-.127-.5-.483-.529a1.3,1.3,0,0,1-1.18-.893q-.244-.629-.517-1.247a1.329,1.329,0,0,1,.184-1.5c.245-.3.238-.461-.036-.738q-.543-.55-1.093-1.094c-.288-.286-.45-.294-.758-.041a1.318,1.318,0,0,1-1.469.183c-.412-.18-.824-.359-1.244-.52a1.31,1.31,0,0,1-.906-1.2c-.028-.34-.163-.47-.511-.472q-.813,0-1.627,0c-.356,0-.482.133-.513.5a1.281,1.281,0,0,1-.85,1.153c-.441.181-.883.361-1.321.548a1.314,1.314,0,0,1-1.445-.191c-.312-.254-.471-.248-.758.038q-.548.545-1.092,1.095c-.277.279-.286.441-.042.737a1.332,1.332,0,0,1,.189,1.5c-.178.4-.353.809-.508,1.221a1.314,1.314,0,0,1-1.214.924c-.323.025-.457.165-.459.5q-.005.829,0,1.658c0,.342.135.471.482.5a1.3,1.3,0,0,1,1.18.893c.163.419.334.836.517,1.247a1.331,1.331,0,0,1-.184,1.5c-.245.3-.237.461.036.737q.554.559,1.112,1.114c.262.26.44.271.718.04a1.33,1.33,0,0,1,1.539-.177c.39.184.792.343,1.194.5a1.308,1.308,0,0,1,.907,1.2c.028.339.164.47.511.472q.814,0,1.627,0c.356,0,.48-.132.514-.5a1.283,1.283,0,0,1,.853-1.152c.643-.255.645-.25,1.1.266.047.053.09.111.16.2-.3.114-.564.226-.838.32a.526.526,0,0,0-.4.523,1.279,1.279,0,0,1-1.282,1.228c-.607.01-1.214.008-1.82,0a1.284,1.284,0,0,1-1.3-1.24.527.527,0,0,0-.386-.507q-.615-.238-1.219-.506a.526.526,0,0,0-.61.07,1.307,1.307,0,0,1-1.88-.1q-.589-.582-1.169-1.173a1.281,1.281,0,0,1-.078-1.835.533.533,0,0,0,.083-.632c-.18-.4-.35-.809-.507-1.221a.523.523,0,0,0-.508-.382,1.285,1.285,0,0,1-1.233-1.306q-.01-.9,0-1.8a1.282,1.282,0,0,1,1.23-1.308.537.537,0,0,0,.52-.405c.152-.4.319-.8.5-1.2a.533.533,0,0,0-.079-.633,1.281,1.281,0,0,1,.074-1.835q.59-.6,1.188-1.194a1.3,1.3,0,0,1,1.859-.082.523.523,0,0,0,.609.078c.411-.182.825-.357,1.245-.517a.5.5,0,0,0,.365-.487,1.289,1.289,0,0,1,1.316-1.253c.6-.006,1.2-.007,1.793,0a1.281,1.281,0,0,1,1.292,1.217.537.537,0,0,0,.393.529c.412.155.817.328,1.219.508a.523.523,0,0,0,.609-.075,1.3,1.3,0,0,1,1.859.083q.6.59,1.19,1.192a1.283,1.283,0,0,1,.071,1.836.533.533,0,0,0-.077.633c.178.393.344.792.5,1.2a.537.537,0,0,0,.521.4,1.284,1.284,0,0,1,1.229,1.31q.01.9,0,1.8a1.283,1.283,0,0,1-1.235,1.3.5.5,0,0,0-.506.379C569.1,264.436,568.987,264.708,568.866,265.028Z" transform="translate(-551.514 -251.842)" fill="#222872"/>
        <path id="Path_14089" data-name="Path 14089" d="M636.172,337.905l1.255-1.262c-.286-.284-.592-.585-.9-.89-.388-.389-.306-.733.211-.9a3.528,3.528,0,0,1,4.489,3.991.453.453,0,0,0,.17.493q1.887,1.657,3.754,3.335a2.01,2.01,0,0,1,.633,2.13,1.973,1.973,0,0,1-1.569,1.5,2.026,2.026,0,0,1-2.06-.693c-1.1-1.246-2.213-2.489-3.308-3.743a.429.429,0,0,0-.472-.157,3.528,3.528,0,0,1-3.975-4.541c.15-.451.5-.542.834-.212C635.558,337.275,635.869,337.6,636.172,337.905Zm-.97.241-.066.04c0,.054-.01.108-.008.162a2.62,2.62,0,0,0,3.318,2.443.726.726,0,0,1,.86.258c1.159,1.334,2.336,2.652,3.509,3.974a1.224,1.224,0,1,0,1.708-1.732q-2-1.785-4.005-3.555a.63.63,0,0,1-.225-.746,2.63,2.63,0,0,0-2.05-3.356,5.23,5.23,0,0,0-.59-.04c.057.077.066.093.079.106.188.19.377.378.564.568.3.306.3.5.011.8q-.855.863-1.716,1.72a.468.468,0,0,1-.782-.01C635.6,338.573,635.4,338.357,635.2,338.146Z" transform="translate(-628.133 -328.589)" fill="#009eff"/>
        <path id="Path_14090" data-name="Path 14090" d="M605.687,302.022a6.706,6.706,0,0,1-.588-.533.439.439,0,0,1-.046-.336,5.556,5.556,0,0,0-1.151-4.98,5.743,5.743,0,0,0-10.11,2.669,5.733,5.733,0,0,0,6,6.726c.365-.021.725-.114,1.088-.165a.3.3,0,0,1,.217.033c.192.195.366.406.552.617a6.565,6.565,0,0,1-7.49-2.206,6.648,6.648,0,1,1,11.523-1.824Z" transform="translate(-589.759 -290.097)" fill="#009eff"/>
        <path id="Path_14094" data-name="Path 14094" d="M757.157,458.359a.44.44,0,1,1,.44-.433A.444.444,0,0,1,757.157,458.359Z" transform="translate(-741.598 -442.326)" fill="#009eff"/>
      </g>
    </g>
    <g id="Mobile-App-UI-UX-Design" transform="translate(346.386 1835.928)">
      <path id="Path_14146" data-name="Path 14146" d="M112.291,95.224c0-2.995.114-22.568.114-25.534h1.7V93.771C114.382,93.545,110.765,96.551,112.291,95.224Z" transform="translate(-66.918 -43.833)" fill="#222872"/>
      <path id="Path_14135" data-name="Path 14135" d="M55.492,162.733a5.183,5.183,0,0,1-2.26-1.13c-.311-.311-.593-.65-.932-1.045.565-.311,1.045-.593,1.554-.9.791,1.271,2.034,1.328,3.334,1.328,5.989-.028,12.007,0,18,0a2.554,2.554,0,0,0,2.8-2.119,28.827,28.827,0,0,0,.028-3.136H53.232v-1.752h24.8V150.5h1.752c0,.141.028.254.028.4v7.2a4.38,4.38,0,0,1-2.514,4.209,10.9,10.9,0,0,1-1.356.452Q65.733,162.719,55.492,162.733Z" transform="translate(-32.648 -102.816)" fill="#222872"/>
      <path id="Path_14136" data-name="Path 14136" d="M52.59,8.33c-.4.424-.763.848-1.158,1.3A3.451,3.451,0,0,0,49,8.952H30.639a2.6,2.6,0,0,0-2.769,1.978,12.732,12.732,0,0,0-.141,1.526H41.769v1.78H27.813v4.69c.48-.057-.876.085-1.78.085,0-2.514-.028-5.029.028-7.571A4.39,4.39,0,0,1,30.582,7.2H49.51A4.666,4.666,0,0,1,52.59,8.33Z" transform="translate(-6.89 0)" fill="#222872"/>
      <path id="Path_14137" data-name="Path 14137" d="M123.038,32.089h-9.21c-1.074,0-1.328-.254-1.328-1.328V21.156c0-1.074.254-1.356,1.328-1.356h18.448c1.045,0,1.3.254,1.3,1.328v9.718c0,1.017-.283,1.271-1.3,1.271C129.2,32.089,126.117,32.089,123.038,32.089ZM114.28,21.552v8.73H131.8v-8.73Z" transform="translate(-75.84 -9.04)" fill="#222872"/>
      <path id="Path_14138" data-name="Path 14138" d="M19.766,147.194c0-1.469-.578-38.813-.578-40.254h1.8c0,1.441.3,37.875.3,39.344C21.536,146.284,19.54,147.194,19.766,147.194Z" transform="translate(-0.073 -89.399)" fill="#222872"/>
      <path id="Path_14140" data-name="Path 14140" d="M97.1,175.2h1.667v1.7H97.1Z" transform="translate(-64.791 -120.538)" fill="#222872"/>
      <path id="Path_14141" data-name="Path 14141" d="M124.876,44.7h14.013v1.7c-.2,0-.339.028-.509.028H125.469c-.452,0-.65-.113-.593-.593C124.9,45.491,124.876,45.124,124.876,44.7Z" transform="translate(-84.713 -26.906)" fill="#222872"/>
      <path id="Path_14142" data-name="Path 14142" d="M152.358,32.079V33.8H143.6V32.361c0-.367.283-.283.48-.283h8.278Z" transform="translate(-98.154 -17.844)" fill="#222872"/>
      <path id="Path_14143" data-name="Path 14143" d="M125.1,32.2h3.418v1.7H125.1Z" transform="translate(-84.881 -17.937)" fill="#222872"/>
    </g>
  </g>
</svg>
