<svg xmlns="http://www.w3.org/2000/svg" width="52.575" height="52.745" viewBox="0 0 52.575 52.745">
  <g id="Mobile-App-UI-UX-Design" transform="translate(-6.827 -7.2)">
    <path id="Path_14134" data-name="Path 14134" d="M126.275,73.362c-1.328,1.582-2.627,3.192-3.983,4.746-2.91,3.334-5.848,6.639-8.758,9.973a1.749,1.749,0,0,0-.367.763,6.159,6.159,0,0,1-6.215,5.4c-1.921.028-3.842,0-5.763,0-.48,0-.932-.113-1.1-.65s.17-.876.593-1.13a2.31,2.31,0,0,0,1.13-2.119,9.676,9.676,0,0,1,.339-3.362,6.075,6.075,0,0,1,5.113-4.125.92.92,0,0,0,.537-.226c1.554-1.356,3.079-2.712,4.6-4.04,2.631-2.2.737-.6,1.7-1.5a7.2,7.2,0,0,0,.593-.509c2.232-1.949,4.52-3.87,6.667-5.9,1.526-1.441,3.9-1.441,4.944.848C126.275,72.119,126.275,72.741,126.275,73.362ZM112.348,86.725c.057-.057.113-.141.17-.2,3.87-4.407,7.769-8.786,11.639-13.193a1.677,1.677,0,0,0,.367-.509,1.007,1.007,0,0,0-.565-1.384,1.213,1.213,0,0,0-1.243.367q-6.526,5.763-13.08,11.526a2.177,2.177,0,0,1-.367.254C110.342,84.691,111.331,85.708,112.348,86.725ZM103.081,92.4c1.526,0,2.938.056,4.351-.028a4.223,4.223,0,0,0,3.955-3.673.708.708,0,0,0-.141-.537c-1.13-1.158-2.26-2.288-3.418-3.418a.658.658,0,0,0-.424-.2,4.4,4.4,0,0,0-2.232.961,4.532,4.532,0,0,0-1.61,3.616A6.507,6.507,0,0,1,103.081,92.4Z" transform="translate(-66.902 -44.833)" fill="#009eff"/>
    <path id="Path_14146" data-name="Path 14146" d="M112.4,78.589v-8.9h1.7v7.4C114.382,76.865,110.879,79.916,112.4,78.589Z" transform="translate(-66.918 -43.833)" fill="#222872"/>
    <path id="Path_14135" data-name="Path 14135" d="M55.492,162.733a5.183,5.183,0,0,1-2.26-1.13c-.311-.311-.593-.65-.932-1.045.565-.311,1.045-.593,1.554-.9.791,1.271,2.034,1.328,3.334,1.328,5.989-.028,12.007,0,18,0a2.554,2.554,0,0,0,2.8-2.119,28.827,28.827,0,0,0,.028-3.136H62.3v-1.752H78.037V150.5h1.752c0,.141.028.254.028.4v7.2a4.38,4.38,0,0,1-2.514,4.209,10.9,10.9,0,0,1-1.356.452Q65.733,162.719,55.492,162.733Z" transform="translate(-32.648 -102.816)" fill="#222872"/>
    <path id="Path_14136" data-name="Path 14136" d="M52.59,8.33c-.4.424-.763.848-1.158,1.3A3.451,3.451,0,0,0,49,8.952H30.639a2.6,2.6,0,0,0-2.769,1.978,12.732,12.732,0,0,0-.141,1.526H41.769v1.78H27.813v4.69c.48-.057.961-.113,1.413-.2a.531.531,0,0,0,.283-.424c.028-.735,0-1.469,0-2.26H31.26c0,.735.028,1.469,0,2.2,0,.367.113.452.452.509a11.347,11.347,0,0,1,9.973,9.973c.028.339.141.48.509.452.735-.028,1.469,0,2.232,0v1.752h-2.26c-.311,0-.424.113-.452.4A11.347,11.347,0,0,1,31.486,41.412c-.028,0-.056.028-.17.057v2.6h-1.78c0-.65-.028-1.3,0-1.978.028-.509-.113-.678-.65-.735a11.26,11.26,0,0,1-9.8-10c-.028-.113-.028-.226-.057-.424H16.4V29.179h2.627A12.264,12.264,0,0,1,20.186,25a11.147,11.147,0,0,1,5.368-5.255.707.707,0,0,0,.48-.735c0-2.514-.028-5.029.028-7.571A4.39,4.39,0,0,1,30.582,7.2H49.51A4.666,4.666,0,0,1,52.59,8.33ZM27.5,31.637a4.5,4.5,0,0,1-.2-6.526A4.43,4.43,0,0,1,33.294,25c1.893,1.667,1.893,4.068-.028,6.639A6.288,6.288,0,0,1,36.543,37.4c1.752-1.13,3.5-4.548,3.362-6.5H38.323V29.151h1.639a9.478,9.478,0,0,0-8.7-8.617v1.582H29.48v-1.61c-4.69.2-8.588,4.6-8.617,8.673h1.582v1.752H20.779a9.881,9.881,0,0,0,3.447,6.554A6.329,6.329,0,0,1,27.5,31.637Zm2.006,8.023V38.022H31.26V39.66a8.746,8.746,0,0,0,3.305-.932.441.441,0,0,0,.2-.367,14.149,14.149,0,0,0-.085-1.893,4.348,4.348,0,0,0-3.447-3.7,4.517,4.517,0,0,0-4.661,2.091,6.854,6.854,0,0,0-.593,3.588.3.3,0,0,0,.2.254A8.918,8.918,0,0,0,29.508,39.66Zm.848-8.758a2.627,2.627,0,1,0-2.6-2.627A2.6,2.6,0,0,0,30.356,30.9Z" transform="translate(-6.89 0)" fill="#222872"/>
    <path id="Path_14137" data-name="Path 14137" d="M123.038,32.089h-9.21c-1.074,0-1.328-.254-1.328-1.328V21.156c0-1.074.254-1.356,1.328-1.356h18.448c1.045,0,1.3.254,1.3,1.328v9.718c0,1.017-.283,1.271-1.3,1.271C129.2,32.089,126.117,32.089,123.038,32.089ZM114.28,21.552v8.73H131.8v-8.73Z" transform="translate(-75.84 -9.04)" fill="#222872"/>
    <path id="Path_14138" data-name="Path 14138" d="M19.161,136.151V131.8h1.752v4.351h5.933c.791,0,1.13.311,1.13,1.13v6.526c0,.791-.311,1.13-1.13,1.13H8.03c-.819,0-1.13-.311-1.13-1.1v-6.526c0-.791.311-1.13,1.13-1.13H18.568A3.793,3.793,0,0,1,19.161,136.151Zm7.006,6.978v-5.2H8.652v5.2Z" transform="translate(-0.073 -89.399)" fill="#222872"/>
    <path id="Path_14140" data-name="Path 14140" d="M97.1,175.2h1.667v1.7H97.1Z" transform="translate(-64.791 -120.538)" fill="#222872"/>
    <path id="Path_14141" data-name="Path 14141" d="M124.876,44.7h14.013v1.7c-.2,0-.339.028-.509.028H125.469c-.452,0-.65-.113-.593-.593C124.9,45.491,124.876,45.124,124.876,44.7Z" transform="translate(-84.713 -26.906)" fill="#222872"/>
    <path id="Path_14142" data-name="Path 14142" d="M152.358,32.079V33.8H143.6V32.361c0-.367.283-.283.48-.283h8.278Z" transform="translate(-98.154 -17.844)" fill="#222872"/>
    <path id="Path_14143" data-name="Path 14143" d="M125.1,32.2h3.418v1.7H125.1Z" transform="translate(-84.881 -17.937)" fill="#222872"/>
    <path id="Path_14144" data-name="Path 14144" d="M49.026,159.7v1.7H41.2v-1.7Z" transform="translate(-24.683 -109.417)" fill="#222872"/>
    <path id="Path_14145" data-name="Path 14145" d="M23.722,161.4H19.4v-1.7h4.322Z" transform="translate(-9.042 -109.417)" fill="#222872"/>
  </g>
</svg>
