<svg xmlns="http://www.w3.org/2000/svg" width="38" height="38" viewBox="0 0 38 38">
  <g id="vuesax_bulk_3d-cube-scan" data-name="vuesax/bulk/3d-cube-scan" transform="translate(-172 -188)">
    <g id="_3d-cube-scan" data-name="3d-cube-scan" transform="translate(172 188)">
      <path id="Vector" d="M0,0H38V38H0Z" fill="none" opacity="0"/>
      <path id="Vector-2" data-name="Vector" d="M32.854,13.458a1.2,1.2,0,0,1-1.188-1.187V9.1a6.309,6.309,0,0,0-6.729-6.729H9.1A6.309,6.309,0,0,0,2.375,9.1v3.167a1.2,1.2,0,0,1-1.187,1.188A1.2,1.2,0,0,1,0,12.271V9.1C0,3.658,3.658,0,9.1,0H24.938c5.447,0,9.1,3.658,9.1,9.1v3.167A1.2,1.2,0,0,1,32.854,13.458Z" transform="translate(1.979 1.979)" fill="#fff" opacity="0.4"/>
      <path id="Vector-3" data-name="Vector" d="M24.938,13.458H9.1C3.658,13.458,0,9.8,0,4.354V1.188A1.2,1.2,0,0,1,1.188,0,1.2,1.2,0,0,1,2.375,1.188V4.354A6.309,6.309,0,0,0,9.1,11.083H24.938a6.309,6.309,0,0,0,6.729-6.729V1.188a1.187,1.187,0,0,1,2.375,0V4.354C34.042,9.8,30.384,13.458,24.938,13.458Z" transform="translate(1.979 22.563)" fill="#fff" opacity="0.4"/>
      <path id="Vector-4" data-name="Vector" d="M14.614,3.464,8.661.249a2.151,2.151,0,0,0-2.011,0L.7,3.464A1.415,1.415,0,0,0,.7,5.9L6.65,9.116a2.154,2.154,0,0,0,2.027,0L14.63,5.9a1.378,1.378,0,0,0,.7-1.219A1.424,1.424,0,0,0,14.614,3.464Z" transform="translate(11.352 9.536)" fill="#fff"/>
      <path id="Vector-5" data-name="Vector" d="M7.521,2.913,1.979.142A1.373,1.373,0,0,0,.649.205,1.341,1.341,0,0,0,0,1.361V6.6A2.357,2.357,0,0,0,1.314,8.724l5.542,2.771a1.361,1.361,0,0,0,.617.142,1.286,1.286,0,0,0,.712-.206,1.341,1.341,0,0,0,.649-1.156V5.034A2.346,2.346,0,0,0,7.521,2.913Z" transform="translate(9.484 16.832)" fill="#fff"/>
      <path id="Vector-6" data-name="Vector" d="M8.186.205A1.373,1.373,0,0,0,6.856.142L1.314,2.913A2.374,2.374,0,0,0,0,5.034v5.241a1.341,1.341,0,0,0,.649,1.156,1.286,1.286,0,0,0,.712.206,1.463,1.463,0,0,0,.617-.142L7.521,8.724A2.374,2.374,0,0,0,8.835,6.6V1.361A1.341,1.341,0,0,0,8.186.205Z" transform="translate(19.665 16.832)" fill="#fff"/>
    </g>
  </g>
</svg>
