<svg xmlns="http://www.w3.org/2000/svg" width="48" height="48" viewBox="0 0 48 48">
  <g id="mongodb" transform="translate(-0.45 -0.451)">
    <circle id="Ellipse_748" data-name="Ellipse 748" cx="24" cy="24" r="24" transform="translate(0.45 0.451)" fill="#13aa52"/>
    <path id="Path_38805" data-name="Path 38805" d="M390.738,216.4c-1.508-6.658-5.074-8.847-5.457-9.683a10.127,10.127,0,0,1-.845-1.64c-.007-.018-.018-.049-.031-.079a1.768,1.768,0,0,1-.624,1.413,15.959,15.959,0,0,0-5.657,11.958c-.336,7.055,5.1,11.258,5.831,11.794l.084.059v-.005c0,.035.233,1.679.394,3.421h.576a33.91,33.91,0,0,1,.606-3.663l.047-.03a9.53,9.53,0,0,0,.938-.767l.034-.03a13.534,13.534,0,0,0,4.342-10.1A16.182,16.182,0,0,0,390.738,216.4Zm-6.367,9.78s0-9.894.327-9.892c.255,0,.584,12.762.584,12.762C384.828,229,384.371,226.952,384.371,226.182Z" transform="translate(-359.904 -194.87)" fill="#fff"/>
  </g>
</svg>
