<svg xmlns="http://www.w3.org/2000/svg" width="51.035" height="43.138" viewBox="0 0 51.035 43.138">
  <g id="Group_55627" data-name="Group 55627" transform="translate(-491.748 -222.026)">
    <path id="Path_14078" data-name="Path 14078" d="M542.783,256.179a.91.91,0,0,0-.092.167,3.151,3.151,0,0,1-3.248,2.415q-7.127.007-14.253,0h-.679l.606,4.9c.811,0,1.587,0,2.364,0,.578,0,.926.292.921.75s-.358.745-.935.745q-10.191,0-20.383,0c-.606,0-.969-.3-.953-.776.016-.457.356-.718.948-.721.763,0,1.525,0,2.332,0l.614-4.9H495.258a3.2,3.2,0,0,1-3.51-3.536q0-14.855,0-29.71a3.187,3.187,0,0,1,3.5-3.49h43.607c2.337,0,3.051.472,3.927,2.593Zm-25.472-32.655H495.283c-1.462,0-2.04.586-2.04,2.065q0,14.806,0,29.611c0,1.472.587,2.064,2.047,2.064h43.957c1.434,0,2.041-.6,2.041-2.021q0-14.831,0-29.661c0-1.47-.585-2.058-2.048-2.058Zm6.289,40.122c-.16-1.325-.315-2.611-.471-3.9-.12-.987-.122-.987-1.139-.987-.166,0-.332,0-.5,0-.4.008-.9-.125-1.161.068s-.266.711-.378,1.088a2.787,2.787,0,0,1-5.379-.03c-.1-.365-.195-.734-.287-1.084h-2.762l-.6,4.84Zm-7.723-4.861c.151,1.153.662,1.724,1.457,1.673.774-.049,1.252-.659,1.3-1.673Z" fill="#222872"/>
    <path id="Path_14082" data-name="Path 14082" d="M599.713,298.248h13.423a5.47,5.47,0,0,1,.547.012.743.743,0,0,1,.658,1.071.886.886,0,0,0-.049.5,2.376,2.376,0,0,1-.8,2.636,2.336,2.336,0,0,1-2.621.142,2.363,2.363,0,0,1-1.083-2.535c.014-.081.037-.161.066-.286h-6.72c.03.23.068.439.082.649a2.334,2.334,0,1,1-4.523-.618.557.557,0,0,0-.093-.66,1.436,1.436,0,0,1-.186-1.676c.274-.568.568-1.127.839-1.7a.622.622,0,0,0,.063-.4c-.322-1.027-.691-2.039-.994-3.072-.658-2.247-1.292-4.5-1.918-6.758a1.267,1.267,0,0,0-.6-.8c-.552-.338-1.085-.707-1.618-1.074a.755.755,0,1,1,.831-1.24c.668.435,1.328.881,1.987,1.33.136.093.314.194.364.33.221.612.73.569,1.221.591q8.186.365,16.372.73c.9.04,1.155.344.98,1.233q-.588,2.983-1.193,5.962a3.031,3.031,0,0,1-2.588,2.492c-2.434.325-4.875.6-7.314.888a22.745,22.745,0,0,1-3.311.351,1.224,1.224,0,0,0-1.373.974C600.056,297.606,599.895,297.875,599.713,298.248Zm-1.564-11.993c.282.989.564,1.993.859,2.993a.287.287,0,0,0,.2.174c.791.012,1.582.008,2.416.008l-.527-3.175Zm7.547,3.177v-2.973h-3.041c.148.919.293,1.849.456,2.776a.315.315,0,0,0,.234.188C604.122,289.438,604.9,289.432,605.7,289.432Zm-3.205,5.28-.621-3.746H599.49c.239.837.468,1.631.694,2.425.458,1.61.486,1.629,2.131,1.388A1.04,1.04,0,0,0,602.491,294.712Zm4.774-8.136v2.817h2.662c.081-.909.159-1.777.24-2.687Zm-3.877,4.381.605,3.625,1.7-.212v-3.413Zm6.39.033h-2.51v3.2c.7-.079,1.352-.143,2-.24a.409.409,0,0,0,.266-.279C609.633,292.783,609.7,291.892,609.777,290.99Zm1.889-4.178c-.078.865-.154,1.712-.235,2.621.772,0,1.479.01,2.184-.011a.4.4,0,0,0,.285-.248c.166-.738.3-1.482.459-2.265-.6-.034-1.158-.071-1.718-.095C612.332,286.8,612.021,286.813,611.666,286.813Zm-.618,6.866c1.92.085,2.283-.849,2.448-2.7h-2.209C611.2,291.909,611.126,292.793,611.048,293.679Zm1.049,6.083a.815.815,0,0,0-.858.826.839.839,0,0,0,.838.857.862.862,0,0,0,.845-.811A.843.843,0,0,0,612.1,299.762Zm-11.227,0a.839.839,0,0,0-.83.865.86.86,0,0,0,.837.819.84.84,0,0,0,.846-.85A.816.816,0,0,0,600.87,299.762Z" transform="translate(-88.415 -52.199)" fill="#009eff"/>
    <path id="Path_14083" data-name="Path 14083" d="M517.237,247.535v27.342c.273,0,.547-.011.82,0a.727.727,0,0,1,.749.706.716.716,0,0,1-.692.768,12.878,12.878,0,0,1-1.692,0,.724.724,0,0,1-.7-.766c-.007-.133,0-.266,0-.4V247.23c0-1,.188-1.193,1.188-1.193h37.47a2.861,2.861,0,0,1,.547.019.707.707,0,0,1,.638.767.7.7,0,0,1-.7.706c-.181.015-.365.006-.548.006H517.237Z" transform="translate(-20.777 -20.811)" fill="#222872"/>
    <path id="Path_14084" data-name="Path 14084" d="M590.132,274.834V247.492c-.287,0-.563.012-.838,0a.74.74,0,0,1-.035-1.48,14.537,14.537,0,0,1,1.693,0,.715.715,0,0,1,.688.726c.014.149.005.3.005.449q0,13.979,0,27.957c0,.994-.194,1.186-1.2,1.186q-18.735,0-37.47,0a2.546,2.546,0,0,1-.64-.055.672.672,0,0,1-.533-.744.688.688,0,0,1,.664-.686c.2-.02.4-.01.6-.01h37.068Z" transform="translate(-52.055 -20.77)" fill="#222872"/>
  </g>
</svg>
