<svg xmlns="http://www.w3.org/2000/svg" width="43.599" height="43.518" viewBox="0 0 43.599 43.518">
  <g id="Group_55632" data-name="Group 55632" transform="translate(-491.745 -192.708)">
    <path id="Path_14095" data-name="Path 14095" d="M535.344,196.04V232.9a1.593,1.593,0,0,0-.073.2,3.812,3.812,0,0,1-3.9,3.128q-17.834,0-35.668,0a3.824,3.824,0,0,1-3.955-3.95q-.006-17.8,0-35.61a4.388,4.388,0,0,1,.135-1.094,3.816,3.816,0,0,1,3.859-2.856q13.727,0,27.453,0c2.752,0,5.5-.014,8.257.005A3.718,3.718,0,0,1,535,194.994,8.2,8.2,0,0,1,535.344,196.04Zm-2.555,9.5H494.3v.534q0,12.987,0,25.973c0,1.171.448,1.619,1.619,1.619h35.245c1.174,0,1.625-.447,1.625-1.614q0-13.008,0-26.016Zm0-2.6c0-2.093,0-4.139,0-6.184a1.31,1.31,0,0,0-1.461-1.477H495.745a1.3,1.3,0,0,0-1.444,1.451q0,2.921,0,5.842c0,.122.016.244.024.368Z" transform="translate(0 0)" fill="#222872"/>
    <path id="Path_14099" data-name="Path 14099" d="M648.834,340.363a4.312,4.312,0,0,1-.165.53q-3.768,8.825-7.545,17.647a1.283,1.283,0,1,1-2.341-1.013q3.77-8.825,7.546-17.648a1.31,1.31,0,0,1,1.472-.885A1.339,1.339,0,0,1,648.834,340.363Z" transform="translate(-130.182 -129.623)" fill="#009eff"/>
    <path id="Path_14100" data-name="Path 14100" d="M551.9,379.18l3.3,2.645c.576.461,1.154.919,1.727,1.384a1.287,1.287,0,1,1-1.61,1.99q-3.074-2.46-6.142-4.926a1.287,1.287,0,0,1,0-2.188q3.068-2.468,6.142-4.926a1.287,1.287,0,0,1,1.923.108,1.3,1.3,0,0,1-.339,1.9q-2.272,1.827-4.549,3.647C552.218,378.922,552.088,379.029,551.9,379.18Z" transform="translate(-50.357 -159.59)" fill="#009eff"/>
    <path id="Path_14101" data-name="Path 14101" d="M745.105,379.152l-2.957-2.375c-.7-.559-1.4-1.115-2.091-1.678a1.281,1.281,0,1,1,1.592-2q3.111,2.482,6.212,4.977a1.289,1.289,0,0,1-.017,2.167q-3.084,2.481-6.179,4.95a1.283,1.283,0,1,1-1.592-2q2.3-1.855,4.615-3.7C744.81,379.4,744.929,379.3,745.105,379.152Z" transform="translate(-219.563 -159.567)" fill="#009eff"/>
    <path id="Path_14102" data-name="Path 14102" d="M744.631,237.744c1.233,0,2.465,0,3.7,0a1.286,1.286,0,1,1-.013,2.558q-3.677,0-7.354,0a1.288,1.288,0,1,1,.013-2.558Q742.8,237.741,744.631,237.744Z" transform="translate(-219.596 -39.912)" fill="#222872"/>
    <path id="Path_14103" data-name="Path 14103" d="M539.971,239.045a1.276,1.276,0,1,1-1.259-1.285A1.292,1.292,0,0,1,539.971,239.045Z" transform="translate(-40.479 -39.927)" fill="#222872"/>
    <path id="Path_14104" data-name="Path 14104" d="M584.884,239.044a1.276,1.276,0,1,1-1.259-1.284A1.292,1.292,0,0,1,584.884,239.044Z" transform="translate(-80.283 -39.927)" fill="#222872"/>
    <path id="Path_14105" data-name="Path 14105" d="M629.8,239.018a1.276,1.276,0,1,1-1.286-1.257A1.293,1.293,0,0,1,629.8,239.018Z" transform="translate(-120.088 -39.927)" fill="#222872"/>
  </g>
</svg>
