<svg xmlns="http://www.w3.org/2000/svg" width="60.484" height="41.183" viewBox="0 0 60.484 41.183">
  <g id="mysql-icon" transform="translate(0 -0.001)">
    <path id="Path_38794" data-name="Path 38794" d="M14.54,61.8H12.207q-.118-5.907-.679-11.144h0L7.954,61.8H6.177L2.643,50.66h0Q2.254,55.676,2.151,61.8H0Q.207,54.347,1.034,47.82h2.9L7.3,58.093h0L10.691,47.82h2.766q.906,7.639,1.073,13.984ZM14.54,61.8Z" transform="translate(0 -24.281)" fill="#00758f"/>
    <path id="Path_38795" data-name="Path 38795" d="M40.65,55.27q-1.423,7.743-3.761,11.272-1.816,2.712-3.987,2.707A3.884,3.884,0,0,1,31.48,68.9V67.659a6.917,6.917,0,0,0,.984.059,2.333,2.333,0,0,0,1.629-.561,2.033,2.033,0,0,0,.743-1.531,10.223,10.223,0,0,0-.576-2.382L31.7,55.27H33.99l1.841,5.966a8.066,8.066,0,0,1,.517,2.835,39.038,39.038,0,0,0,2.107-8.8ZM40.65,55.27Z" transform="translate(-15.985 -28.064)" fill="#00758f"/>
    <path id="Path_38796" data-name="Path 38796" d="M61.847,57.774a3.721,3.721,0,0,1-1.3,2.924,5.129,5.129,0,0,1-3.49,1.137,7,7,0,0,1-3.967-1.28l.6-1.2a6.773,6.773,0,0,0,2.993.827,3.145,3.145,0,0,0,1.969-.556,1.92,1.92,0,0,0,.758-1.555c0-.827-.576-1.536-1.639-2.131-.984-.541-2.953-1.664-2.953-1.664a3.342,3.342,0,0,1-1.595-2.953,3.49,3.49,0,0,1,1.191-2.747,4.459,4.459,0,0,1,3.067-1.048,6.335,6.335,0,0,1,3.529,1.039L60.5,49.726a6.763,6.763,0,0,0-2.683-.581,2.4,2.4,0,0,0-1.654.492,1.747,1.747,0,0,0-.625,1.329c0,.827.591,1.546,1.678,2.151.984.537,2.993,1.683,2.993,1.683a3.3,3.3,0,0,1,1.634,2.953ZM61.847,57.774Z" transform="translate(-26.958 -24.13)" fill="#f29111"/>
    <path id="Path_38797" data-name="Path 38797" d="M76.049,58.782A8.666,8.666,0,0,1,75.2,54.4q0-5.286,3.2-5.282a2.683,2.683,0,0,1,2.461,1.26,8.466,8.466,0,0,1,.847,4.351q0,5.326-3.2,5.321a2.692,2.692,0,0,1-2.461-1.26Zm8.3,3.135-2.569-1.265a4.784,4.784,0,0,0,.64-.625,8.6,8.6,0,0,0,1.634-5.695q0-6.94-5.414-6.94a5.139,5.139,0,0,0-4.164,1.772A8.6,8.6,0,0,0,72.85,54.84q0,3.746,1.447,5.414a4.934,4.934,0,0,0,3.982,1.555,6.478,6.478,0,0,0,1.826-.246l3.337,1.944.911-1.57ZM84.353,61.918Z" transform="translate(-36.992 -24.06)" fill="#f29111" fill-rule="evenodd"/>
    <path id="Path_38798" data-name="Path 38798" d="M106.38,61.8H99.75V47.82h2.23V60.081h4.4V61.8Z" transform="translate(-50.651 -24.281)" fill="#f29111"/>
    <path id="Path_38799" data-name="Path 38799" d="M115.937,74.453h.369V73.03h.492v-.29H115.44v.29h.492v1.423Zm2.815,0h.349V72.74h-.527l-.428,1.171-.463-1.171h-.492v1.713h.33v-1.3h0l.492,1.3h.251l.492-1.3v1.3ZM118.753,74.453Z" transform="translate(-58.618 -36.935)" fill="#f29111"/>
    <path id="Path_38800" data-name="Path 38800" d="M95.372,18.858a7.807,7.807,0,0,0-3.268.492c-.251.1-.655.1-.689.423.133.133.148.354.271.541a3.873,3.873,0,0,0,.871,1.029c.354.271.709.541,1.083.778.655.4,1.4.64,2.033,1.048.374.236.743.537,1.117.792.182.133.3.354.537.438v-.049c-.118-.153-.153-.374-.271-.541l-.492-.492a8.117,8.117,0,0,0-1.752-1.708c-.541-.374-1.723-.881-1.939-1.477l-.034-.034A6.65,6.65,0,0,0,94,19.822c.576-.148,1.1-.113,1.683-.266.271-.069.541-.153.812-.236v-.153c-.305-.305-.522-.709-.842-.984a23.084,23.084,0,0,0-2.781-2.077c-.522-.335-1.2-.556-1.752-.842-.2-.1-.537-.153-.655-.325a6.827,6.827,0,0,1-.694-1.3,31.03,31.03,0,0,1-1.378-2.953,18.415,18.415,0,0,0-.852-1.964A17.011,17.011,0,0,0,81,2.4a7.915,7.915,0,0,0-2.156-.689c-.418,0-.842-.054-1.26-.069a6.6,6.6,0,0,1-.778-.591C75.821.444,73.36-.87,72.661.867c-.453,1.1.674,2.181,1.063,2.737a8.047,8.047,0,0,1,.856,1.265c.118.29.153.6.271.9a20.528,20.528,0,0,0,.876,2.264,8.3,8.3,0,0,0,.625,1.048c.133.187.369.271.418.576a4.873,4.873,0,0,0-.384,1.265,7.408,7.408,0,0,0,.492,5.675c.266.423.911,1.354,1.767.984.758-.3.591-1.265.812-2.107.049-.207,0-.34.113-.492v.03c.236.492.492.93.694,1.4a9.672,9.672,0,0,0,2.185,2.294c.4.305.724.827,1.231,1.014v-.03h-.034a1.969,1.969,0,0,0-.389-.34,8.028,8.028,0,0,1-.876-1.014A21.284,21.284,0,0,1,80.5,15.26c-.271-.527-.492-1.1-.724-1.624-.1-.2-.1-.492-.271-.605a5.907,5.907,0,0,0-.822,1.132,9.352,9.352,0,0,0-.492,2.55c-.069,0-.034,0-.069.034-.537-.138-.724-.694-.925-1.167a7.31,7.31,0,0,1-.153-4.509c.118-.354.625-1.477.418-1.806-.1-.325-.438-.492-.62-.763a6.286,6.286,0,0,1-.605-1.078c-.4-.95-.61-1.993-1.044-2.953a9.471,9.471,0,0,0-.847-1.3,8.259,8.259,0,0,1-.925-1.314c-.084-.187-.2-.492-.069-.694a.271.271,0,0,1,.236-.221c.221-.187.842.049,1.063.153a8.422,8.422,0,0,1,1.7.876c.236.167.492.492.788.571h.354c.541.118,1.147.034,1.654.187a10.647,10.647,0,0,1,2.427,1.167,14.949,14.949,0,0,1,5.252,5.779c.207.384.29.743.492,1.147.354.827.792,1.674,1.147,2.461a11.247,11.247,0,0,0,1.2,2.264c.256.354,1.265.541,1.718.728a11.773,11.773,0,0,1,1.167.492c.571.354,1.142.758,1.683,1.147.266.207,1.112.625,1.162.984ZM95.372,18.858Z" transform="translate(-36.842)" fill="#00758f" fill-rule="evenodd"/>
    <path id="Path_38801" data-name="Path 38801" d="M83.284,8.48a2.56,2.56,0,0,0-.694.089V8.6h.034a6.182,6.182,0,0,0,.541.689c.133.271.251.541.384.812l.034-.034a.95.95,0,0,0,.354-.842c-.1-.118-.118-.236-.2-.354s-.32-.251-.453-.389ZM83.284,8.48Z" transform="translate(-41.938 -4.305)" fill="#00758f" fill-rule="evenodd"/>
  </g>
</svg>
