<svg xmlns="http://www.w3.org/2000/svg" width="47.396" height="48.486" viewBox="0 0 47.396 48.486">
  <g id="api-svgrepo-com" transform="translate(-6.702 0.25)">
    <path id="Path_14278" data-name="Path 14278" d="M52.625,29.071l-1.655-.956a20.7,20.7,0,0,0,.007-8.249l1.648-.952a2.207,2.207,0,0,0,.808-3.014L48.925,8.093a2.207,2.207,0,0,0-3.015-.808l-1.65.952A21.117,21.117,0,0,0,37.114,4.1v-1.9A2.209,2.209,0,0,0,34.908,0H25.893a2.209,2.209,0,0,0-2.207,2.207V4.1a21.118,21.118,0,0,0-7.137,4.14L14.89,7.285a2.207,2.207,0,0,0-3.015.808L7.368,15.9a2.207,2.207,0,0,0,.808,3.014l1.655.956a20.7,20.7,0,0,0-.007,8.249l-1.648.952a2.209,2.209,0,0,0-.808,3.015l4.507,7.807a2.209,2.209,0,0,0,3.015.808l1.649-.952a21.119,21.119,0,0,0,7.146,4.135v1.9a2.209,2.209,0,0,0,2.207,2.207h9.015a2.209,2.209,0,0,0,2.207-2.207v-1.9a21.119,21.119,0,0,0,7.137-4.14l1.659.958a2.209,2.209,0,0,0,3.015-.808l4.507-7.807A2.209,2.209,0,0,0,52.625,29.071Zm-.412,2.31-4.507,7.807a.8.8,0,0,1-1.09.292l-2.1-1.214a.7.7,0,0,0-.83.093A19.672,19.672,0,0,1,36.2,42.7a.7.7,0,0,0-.5.673v2.408a.8.8,0,0,1-.8.8H25.893a.8.8,0,0,1-.8-.8V43.371a.7.7,0,0,0-.5-.673,19.675,19.675,0,0,1-7.489-4.333.7.7,0,0,0-.83-.093l-2.093,1.208a.8.8,0,0,1-1.09-.292L8.588,31.381a.8.8,0,0,1,.292-1.09l2.091-1.208a.7.7,0,0,0,.335-.765,19.355,19.355,0,0,1,.007-8.647.7.7,0,0,0-.335-.765l-2.1-1.212a.8.8,0,0,1-.292-1.09L13.1,8.8a.8.8,0,0,1,1.09-.292l2.1,1.214a.7.7,0,0,0,.83-.093A19.673,19.673,0,0,1,24.6,5.288a.7.7,0,0,0,.5-.673V2.207a.8.8,0,0,1,.8-.8h9.015a.8.8,0,0,1,.8.8V4.615a.7.7,0,0,0,.5.673A19.674,19.674,0,0,1,43.691,9.62a.7.7,0,0,0,.83.093L46.615,8.5a.8.8,0,0,1,1.09.292L52.213,16.6a.8.8,0,0,1-.292,1.09L49.829,18.9a.7.7,0,0,0-.335.765,19.355,19.355,0,0,1-.007,8.647.7.7,0,0,0,.335.765l2.1,1.212A.8.8,0,0,1,52.212,31.381Z" transform="translate(0)" fill="#222872" stroke="#222872" stroke-width="0.5"/>
    <path id="Path_14279" data-name="Path 14279" d="M118.227,104a14.227,14.227,0,1,0,14.227,14.227A14.243,14.243,0,0,0,118.227,104Zm0,27.045a12.818,12.818,0,1,1,12.818-12.818A12.833,12.833,0,0,1,118.227,131.045Z" transform="translate(-87.826 -94.234)" fill="#222872" stroke="#222872" stroke-width="0.5"/>
    <path id="Path_14280" data-name="Path 14280" d="M251.334,216H248.7a.7.7,0,0,0-.7.7v6.01a.7.7,0,1,0,1.409,0v-1.549h1.925a2.582,2.582,0,0,0,0-5.165Zm0,3.756h-1.925v-2.348h1.925a1.174,1.174,0,0,1,0,2.348Z" transform="translate(-218.304 -195.716)" fill="#009eff" stroke="#009eff" stroke-width="0.5"/>
    <path id="Path_14281" data-name="Path 14281" d="M172.367,216.457a.7.7,0,0,0-.659-.457h-.751a.7.7,0,0,0-.659.457l-2.254,6.01a.7.7,0,0,0,1.319.495l.392-1.046h3.156l.392,1.045a.7.7,0,1,0,1.319-.495Zm-2.085,4.05,1.05-2.8,1.05,2.8Z" transform="translate(-145.815 -195.716)" fill="#009eff" stroke="#009eff" stroke-width="0.5"/>
    <path id="Path_14282" data-name="Path 14282" d="M320.7,216a.7.7,0,0,0-.7.7v6.01a.7.7,0,1,0,1.409,0V216.7A.7.7,0,0,0,320.7,216Z" transform="translate(-283.543 -195.716)" fill="#009eff" stroke="#009eff" stroke-width="0.5"/>
    <path id="Path_14283" data-name="Path 14283" d="M304.418,74.028c.489.156.976.337,1.448.538a.7.7,0,0,0,.552-1.3c-.513-.218-1.041-.415-1.572-.584a.7.7,0,1,0-.428,1.342Z" transform="translate(-268.979 -65.83)" fill="#009eff" stroke="#009eff" stroke-width="0.5"/>
    <path id="Path_14284" data-name="Path 14284" d="M87.687,336.362a.7.7,0,1,0-1.237.675,18.049,18.049,0,0,0,.961,1.566.7.7,0,0,0,1.161-.8A16.638,16.638,0,0,1,87.687,336.362Z" transform="translate(-71.847 -304.443)" fill="#009eff" stroke="#009eff" stroke-width="0.5"/>
    <path id="Path_14285" data-name="Path 14285" d="M131.288,384.991a16.593,16.593,0,0,1-10.087-4.605.7.7,0,1,0-.98,1.012,18.005,18.005,0,0,0,10.946,5l.061,0a.7.7,0,0,0,.06-1.406Z" transform="translate(-102.33 -344.486)" fill="#009eff" stroke="#009eff" stroke-width="0.5"/>
    <path id="Path_14286" data-name="Path 14286" d="M352.794,96.1A.7.7,0,1,0,352,97.264a16.6,16.6,0,0,1,6.665,9.37.7.7,0,1,0,1.36-.367A18,18,0,0,0,352.794,96.1Z" transform="translate(-312.259 -86.966)" fill="#009eff" stroke="#009eff" stroke-width="0.5"/>
  </g>
</svg>
