<svg xmlns="http://www.w3.org/2000/svg" width="64.937" height="37.272" viewBox="0 0 64.937 37.272">
  <g id="Group_55769" data-name="Group 55769" transform="translate(-347.031 -1850.863)">
    <path id="web-app-icon" d="M8.281,0h48.09a1.152,1.152,0,0,1,1.147,1.147V33.473a1.152,1.152,0,0,1-.861,1.11h6.955a1.342,1.342,0,0,1,1.326,1.353h0a1.342,1.342,0,0,1-1.342,1.337H1.342A1.342,1.342,0,0,1,0,35.935H0a1.342,1.342,0,0,1,1.342-1.342H8a1.152,1.152,0,0,1-.861-1.11V1.147A1.152,1.152,0,0,1,8.281,0Zm22.3,35.084H34.35a.645.645,0,0,1,.645.639h0a.645.645,0,0,1-.645.645H30.582a.645.645,0,0,1-.645-.645h0a.645.645,0,0,1,.645-.639ZM55.7,4.756H9.095V32.87H55.7ZM14.755,1.85a.692.692,0,1,1-.692.692A.692.692,0,0,1,14.755,1.85Zm-2.415,0a.692.692,0,1,1-.5.2A.692.692,0,0,1,12.34,1.85Zm-2.42,0a.692.692,0,1,1-.692.692A.692.692,0,0,1,9.919,1.85Z" transform="translate(347.031 1850.863)" fill="#222872" fill-rule="evenodd"/>
    <path id="web-app-icon-2" data-name="web-app-icon" d="M43.957,25.958a.909.909,0,0,1-.243.132h0a.83.83,0,0,1-.275.042.861.861,0,0,1-.307-.069.877.877,0,0,1-.275-.169L40.8,23.723l-.983,1.828a2.33,2.33,0,0,1-.275.412,1.66,1.66,0,0,1-.333.312.935.935,0,0,1-1.448-.317,1.421,1.421,0,0,1-.148-.338c-.983-3.562-2.441-7.166-3.44-10.733a.613.613,0,0,1,.766-.756c3.213.962,7.309,2.806,10.569,4.048,1,.386,1.057,1.321.233,1.945a2.41,2.41,0,0,1-.428.254c-.624.27-1.258.592-1.881.877l2.019,2.172a.735.735,0,0,1,.164.264h0a.713.713,0,0,1,.048.3h0a.835.835,0,0,1-.233.528,18.253,18.253,0,0,1-1.485,1.4Zm-.528-.814,1.231-1.163a29.826,29.826,0,0,1-2.494-2.7.47.47,0,0,1,.233-.618c.756-.317,1.733-.772,2.463-1.152a1.675,1.675,0,0,0,.259-.148,1.163,1.163,0,0,0,.164-.153l.037-.058-.058-.042-.143-.063-9.84-3.794,3.229,10.067a.666.666,0,0,0,.058.148l.037.058.058-.032a.761.761,0,0,0,.164-.159,1.76,1.76,0,0,0,.159-.243c.4-.75.883-1.781,1.332-2.463l.053-.058a.47.47,0,0,1,.666,0l2.42,2.547ZM14.126,6.949h9.127a1.48,1.48,0,0,1,1.474,1.506v5.813a1.485,1.485,0,0,1-1.474,1.453H14.126a1.485,1.485,0,0,1-1.48-1.48V8.455a1.485,1.485,0,0,1,1.48-1.48Zm13.65,0H36.9a1.485,1.485,0,0,1,1.48,1.48v4.027c-.941-.349-1.844-.661-2.679-.909H35.65a3.282,3.282,0,0,0-1.749,0,3.319,3.319,0,0,0-1.469.846,3.4,3.4,0,0,0-.756,1.168,2.494,2.494,0,0,0-.1.28,3.345,3.345,0,0,0,0,1.754h0l.037.132H27.776A1.485,1.485,0,0,1,26.3,14.268V8.455a1.48,1.48,0,0,1,1.474-1.48Zm13.65,0h9.127a1.485,1.485,0,0,1,1.48,1.48v5.839a1.485,1.485,0,0,1-1.48,1.48H46.6l-.159-.063h0c-1.015-.4-2.114-.851-3.287-1.321-1.057-.433-2.114-.877-3.2-1.289V8.455a1.485,1.485,0,0,1,1.474-1.48ZM19.511,24.135c-.5,0-.5-1.828,0-1.828H33.779c.211.618.417,1.231.608,1.828Zm28.421-1.828H51.9c.491,0,.491,1.828,0,1.828H48.354v-.058a3.266,3.266,0,0,0-.037-.634,1.066,1.066,0,0,0-.058-.275,2.843,2.843,0,0,0-.111-.4,2.764,2.764,0,0,0-.217-.46ZM13.138,24.135c-.486,0-.486-1.828,0-1.828h4.624c.491,0,.491,1.828,0,1.828Zm-.159-3.826c-.491,0-.491-1.834,0-1.834H17.6c.491,0,.491,1.834,0,1.834Zm6.532,0c-.5,0-.5-1.834,0-1.834H32.463c.2.618.407,1.226.618,1.834ZM48.92,18.5H51.9c.491,0,.491,1.834,0,1.834H48.793a3.472,3.472,0,0,0,.159-1.585.54.54,0,0,0-.032-.222Z" transform="translate(347.06 1850.864)" fill="#009eff" fill-rule="evenodd"/>
  </g>
</svg>
