<svg id="WebsiteDevelopment_1_" data-name="WebsiteDevelopment (1)" xmlns="http://www.w3.org/2000/svg" width="47.201" height="47.203" viewBox="0 0 47.201 47.203">
  <path id="Path_2523" data-name="Path 2523" d="M70.536,8a.786.786,0,1,0,0,1.573h1.705a.786.786,0,1,0,0-1.573Z" transform="translate(-44.147 -4.855)" fill="#222872"/>
  <path id="Path_2524" data-name="Path 2524" d="M10.536,8a.786.786,0,1,0,0,1.573h5.635a.786.786,0,1,0,0-1.573Z" transform="translate(-5.917 -4.855)" fill="#222872"/>
  <path id="Path_2525" data-name="Path 2525" d="M39.127,25.573V24H12.786a.786.786,0,0,0-.786.786V44.444a.786.786,0,0,0,.786.786H32.075a2.355,2.355,0,0,1-.367-1.573H13.573V25.573Z" transform="translate(-7.282 -15.577)" fill="#222872"/>
  <path id="Path_2526" data-name="Path 2526" d="M12.672,86.573H29.236A2.35,2.35,0,0,1,29.953,85H12.672a.786.786,0,0,0,0,1.573Z" transform="translate(-7.213 -53.722)" fill="#222872"/>
  <path id="Path_2527" data-name="Path 2527" d="M12.672,96.573H29.236c0-.041-.007-.081-.007-.124V95H12.672a.786.786,0,0,0,0,1.573Z" transform="translate(-7.213 -60.042)" fill="#222872"/>
  <path id="Path_2528" data-name="Path 2528" d="M.721,47.2H30.173a2.243,2.243,0,0,1-.126-.737v-.615c-.1-.037-.2-.076-.3-.119H28.527l-.066.067a2.127,2.127,0,0,1-3.06,0l-.066-.067H1.443V7.375H29.211V5.9H1.443V1.475H32.1a4.461,4.461,0,0,1,2.521-.3V.737a.746.746,0,0,0-.212-.522A.713.713,0,0,0,33.9,0H.721A.729.729,0,0,0,0,.737V46.463a.729.729,0,0,0,.721.737Z" transform="translate(0 0)" fill="#222872"/>
  <path id="Path_2529" data-name="Path 2529" d="M12.672,106.572H32.331l.438-.438c-.177-.37-.334-.75-.474-1.137H12.672a.786.786,0,1,0,0,1.573Z" transform="translate(-7.213 -66.841)" fill="#222872"/>
  <ellipse id="Ellipse_96" data-name="Ellipse 96" cy="1.624" ry="1.624" transform="translate(35.034 5.664)" fill="#222872"/>
  <ellipse id="Ellipse_97" data-name="Ellipse 97" cy="0.812" ry="0.812" transform="translate(35.034 8.341)" fill="#222872"/>
  <circle id="Ellipse_98" data-name="Ellipse 98" transform="translate(35.034 12.167)" fill="#222872"/>
  <ellipse id="Ellipse_99" data-name="Ellipse 99" cy="1.624" ry="1.624" transform="translate(35.034 13.628)" fill="#222872"/>
  <path id="Path_2530" data-name="Path 2530" d="M69.825,10.306V29.165a11.206,11.206,0,0,0-2.2.956l-1.3-1.214a.854.854,0,0,0-1.112,0l-2.6,2.433a.7.7,0,0,0,0,1.039l1.3,1.214a9.828,9.828,0,0,0-1.29,2.911H60.786a.762.762,0,0,0-.786.734v3.441a.761.761,0,0,0,.786.734h1.832a9.828,9.828,0,0,0,1.291,2.914l-1.3,1.214a.7.7,0,0,0,0,1.039l2.6,2.433a.826.826,0,0,0,1.112,0l1.3-1.214a11.343,11.343,0,0,0,3.116,1.206v1.712a.761.761,0,0,0,.786.734h3.682a.762.762,0,0,0,.786-.734V49A11.343,11.343,0,0,0,79.109,47.8l1.3,1.214a.854.854,0,0,0,1.112,0l2.6-2.433a.7.7,0,0,0,0-1.039l-1.3-1.214a9.828,9.828,0,0,0,1.292-2.911h1.832a.762.762,0,0,0,.786-.734V37.239a.762.762,0,0,0-.786-.734H84.115a9.827,9.827,0,0,0-1.29-2.911l1.3-1.214a.7.7,0,0,0,0-1.039l-2.607-2.43a.826.826,0,0,0-1.112,0l-1.3,1.214a11.2,11.2,0,0,0-2.2-.956V10.306a3.546,3.546,0,0,0-7.077,0Zm7.08,20.426a9.621,9.621,0,0,1,1.862.934.828.828,0,0,0,1-.084l1.19-1.111,1.492,1.394-1.19,1.111a.7.7,0,0,0-.09.938,8.464,8.464,0,0,1,1.532,3.457.773.773,0,0,0,.774.607h1.682v1.973H83.478a.773.773,0,0,0-.774.607,8.464,8.464,0,0,1-1.532,3.456.7.7,0,0,0,.09.938l1.19,1.111L80.96,47.455l-1.189-1.118a.828.828,0,0,0-1-.084,9.745,9.745,0,0,1-3.7,1.432.751.751,0,0,0-.65.723V49.98H72.308V48.407a.751.751,0,0,0-.65-.723,9.745,9.745,0,0,1-3.7-1.432.828.828,0,0,0-1,.084l-1.182,1.112-1.492-1.394,1.19-1.111a.7.7,0,0,0,.09-.938,8.464,8.464,0,0,1-1.532-3.457.773.773,0,0,0-.774-.607H61.573V37.97h1.682a.773.773,0,0,0,.774-.607,8.464,8.464,0,0,1,1.532-3.456.7.7,0,0,0-.09-.938l-1.19-1.111,1.492-1.394,1.19,1.118a.828.828,0,0,0,1,.084,9.619,9.619,0,0,1,1.859-.934v2.421a6.646,6.646,0,0,0-1.049.731,6.127,6.127,0,0,0-1.9,6.651,2.717,2.717,0,0,0,2.976,1.7,2.582,2.582,0,0,0,2.283-2.464A2.127,2.127,0,0,0,72,39.037a1.308,1.308,0,0,1,.62-1.6,1.509,1.509,0,0,1,1.486,0,1.307,1.307,0,0,1,.621,1.6,2.344,2.344,0,0,0,.676,2.5,2.807,2.807,0,0,0,2.53.669,2.615,2.615,0,0,0,1.924-1.675h0a6.128,6.128,0,0,0-1.906-6.647,6.677,6.677,0,0,0-1.049-.731ZM75.332,10.306V33.585a.731.731,0,0,0,.43.655,5.159,5.159,0,0,1,1.131.729,4.716,4.716,0,0,1,1.467,5.116,1.107,1.107,0,0,1-.8.674,1.186,1.186,0,0,1-1.042-.262.939.939,0,0,1-.3-.986,2.714,2.714,0,0,0-1.064-3.188,3.188,3.188,0,0,0-3.574,0,2.714,2.714,0,0,0-1.064,3.188.992.992,0,0,1-.41,1.082,1.189,1.189,0,0,1-1,.158,1.093,1.093,0,0,1-.729-.664,4.715,4.715,0,0,1,1.467-5.115,5.152,5.152,0,0,1,1.132-.729.731.731,0,0,0,.43-.655V10.306a1.97,1.97,0,0,1,3.932,0Z" transform="translate(-39.533 -4.248)" fill="#009eff"/>
</svg>
