<svg xmlns="http://www.w3.org/2000/svg" width="38.688" height="38.688" viewBox="0 0 38.688 38.688">
  <g id="vuesax_bulk_shop" data-name="vuesax/bulk/shop" transform="translate(-172 -252)">
    <g id="shop" transform="translate(172 252)">
      <path id="Vector" d="M30.209.451v9.656a8.063,8.063,0,0,1-8.06,8.06H8.06A8.063,8.063,0,0,1,0,10.107V.564a6.572,6.572,0,0,0,4.852,2.08A6.6,6.6,0,0,0,10.059,0,6.052,6.052,0,0,0,15.1,2.644,6.02,6.02,0,0,0,20.118.064a6.608,6.608,0,0,0,5.158,2.579A6.432,6.432,0,0,0,30.209.451Z" transform="translate(4.24 17.91)" fill="#fff" opacity="0.4"/>
      <path id="Vector-2" data-name="Vector" d="M10.892,0H1.22L.027,11.864a6.268,6.268,0,0,0,.467,3.063,6.023,6.023,0,0,0,5.578,3.611,6.007,6.007,0,0,0,5.594-3.595,6.414,6.414,0,0,0,.484-2.321v-.306Z" transform="translate(13.272 2.015)" fill="#fff"/>
      <path id="Vector-3" data-name="Vector" d="M14.266,11.316,13.8,6.851C13.122,1.983,10.913,0,6.19,0H0L1.193,12.09a5.789,5.789,0,0,1,.032.645,6.154,6.154,0,0,0,.742,2.305,6.683,6.683,0,0,0,5.771,3.5,6.419,6.419,0,0,0,5.287-2.628A6.565,6.565,0,0,0,14.266,11.316Z" transform="translate(21.778 2.015)" fill="#fff" opacity="0.6"/>
      <path id="Vector-4" data-name="Vector" d="M8.091,0C3.352,0,1.16,1.983.466,6.9L.031,11.332A6.626,6.626,0,0,0,1.353,16.04a6.464,6.464,0,0,0,5.207,2.5,6.673,6.673,0,0,0,5.755-3.466,6,6,0,0,0,.774-2.434L14.346.016H8.091Z" transform="translate(2.532 2.015)" fill="#fff" opacity="0.6"/>
      <path id="Vector-5" data-name="Vector" d="M3.595.057A4.022,4.022,0,0,0,0,4.071V9.278H9.269V4.635C9.285,1.266,7.3-.33,3.595.057Z" transform="translate(14.702 26.799)" fill="#fff"/>
      <path id="Vector-6" data-name="Vector" d="M0,0H38.688V38.688H0Z" fill="none" opacity="0"/>
    </g>
  </g>
</svg>
