<svg xmlns="http://www.w3.org/2000/svg" width="38.451" height="38.451" viewBox="0 0 38.451 38.451">
  <g id="vuesax_bulk_card" data-name="vuesax/bulk/card" transform="translate(-492 -508)">
    <g id="card" transform="translate(492 508)">
      <path id="Vector" d="M32.043,0V11.952a6.639,6.639,0,0,1-6.649,6.633H6.649A6.639,6.639,0,0,1,0,11.952V0Z" transform="translate(3.204 14.419)" fill="#fff" opacity="0.4"/>
      <path id="Vector-2" data-name="Vector" d="M32.043,6.633V8.972H0V6.633A6.639,6.639,0,0,1,6.649,0H25.394A6.639,6.639,0,0,1,32.043,6.633Z" transform="translate(3.204 5.447)" fill="#fff"/>
      <path id="Vector-3" data-name="Vector" d="M4.406,2.4H1.2A1.21,1.21,0,0,1,0,1.2,1.21,1.21,0,0,1,1.2,0h3.2a1.21,1.21,0,0,1,1.2,1.2A1.21,1.21,0,0,1,4.406,2.4Z" transform="translate(8.411 25.234)" fill="#fff"/>
      <path id="Vector-4" data-name="Vector" d="M7.61,2.4H1.2A1.21,1.21,0,0,1,0,1.2,1.21,1.21,0,0,1,1.2,0H7.61a1.21,1.21,0,0,1,1.2,1.2A1.21,1.21,0,0,1,7.61,2.4Z" transform="translate(15.621 25.234)" fill="#fff"/>
      <path id="Vector-5" data-name="Vector" d="M0,0H38.451V38.451H0Z" fill="none" opacity="0"/>
    </g>
  </g>
</svg>
