<svg xmlns="http://www.w3.org/2000/svg" width="38" height="38" viewBox="0 0 38 38">
  <g id="vuesax_bulk_bag-timer" data-name="vuesax/bulk/bag-timer" transform="translate(-364 -188)">
    <g id="bag-timer" transform="translate(364 188)">
      <path id="Vector" d="M14.377,10.865a1.1,1.1,0,0,1-1.108-1.108V7.73A5.518,5.518,0,0,0,7.2,2.236,5.955,5.955,0,0,0,2.217,8.015V9.44a1.1,1.1,0,0,1-1.108,1.108A1.1,1.1,0,0,1,0,9.44V8.015A8.164,8.164,0,0,1,6.983.035a7.743,7.743,0,0,1,8.487,7.7V9.757A1.1,1.1,0,0,1,14.377,10.865Z" transform="translate(11.257 3.163)" fill="#fff" opacity="0.4"/>
      <path id="Vector-2" data-name="Vector" d="M26.606,2.185C25.276.713,23.091,0,19.892,0H8.112C4.914,0,2.729.713,1.4,2.185-.137,3.9-.089,6.175.085,7.758l1.108,8.819c.332,3.087,1.583,6.254,8.392,6.254H18.42c6.808,0,8.059-3.167,8.392-6.238L27.92,7.743C28.094,6.175,28.141,3.9,26.606,2.185ZM14,17.417a6,6,0,1,1,6-6A6.007,6.007,0,0,1,14,17.417Z" transform="translate(4.998 12.002)" fill="#fff"/>
      <path id="Vector-3" data-name="Vector" d="M12,6A6,6,0,1,1,6,0,6.007,6.007,0,0,1,12,6Z" transform="translate(12.999 17.417)" fill="#fff" opacity="0.4"/>
      <path id="Vector-4" data-name="Vector" d="M1.181,5.938a1.182,1.182,0,0,1-.6-2.2L1.989,2.9V1.188A1.2,1.2,0,0,1,3.176,0,1.173,1.173,0,0,1,4.348,1.188V3.563a1.19,1.19,0,0,1-.57,1.013L1.8,5.763A1.257,1.257,0,0,1,1.181,5.938Z" transform="translate(16.236 20.314)" fill="#fff"/>
      <path id="Vector-5" data-name="Vector" d="M0,0H38V38H0Z" fill="none" opacity="0"/>
    </g>
  </g>
</svg>
