<svg id="Group_56884" data-name="Group 56884" xmlns="http://www.w3.org/2000/svg" width="13.016" height="13.016" viewBox="0 0 13.016 13.016">
  <path id="Path_2269" data-name="Path 2269" d="M115.112,7.647a6.386,6.386,0,0,0-4.649,1.9,6.222,6.222,0,0,0-1.92,4.558,6.52,6.52,0,0,0,6.569,6.556,6.211,6.211,0,0,0,4.552-1.9,6.228,6.228,0,0,0,1.893-4.528,6.436,6.436,0,0,0-1.89-4.651A6.177,6.177,0,0,0,115.112,7.647Zm-2.375,4.1a3.236,3.236,0,0,1,2.375-.967,3.006,3.006,0,0,1,2.276.992,3.405,3.405,0,0,1,.953,2.458,3.187,3.187,0,0,1-.962,2.314,2.979,2.979,0,0,1-2.218.988,3.311,3.311,0,0,1-2.433-.978,3.351,3.351,0,0,1-.971-2.448,3.148,3.148,0,0,1,.979-2.359Z" transform="translate(-108.542 -7.646)" fill="#06b2ff"/>
  <path id="Path_2270" data-name="Path 2270" d="M119.638,16.71a1.969,1.969,0,1,1-1.969-1.969A1.969,1.969,0,0,1,119.638,16.71Z" transform="translate(-111.161 -10.213)" fill="#06b2ff"/>
</svg>
