<svg xmlns="http://www.w3.org/2000/svg" width="38.369" height="38.369" viewBox="0 0 38.369 38.369">
  <g id="vuesax_bulk_data" data-name="vuesax/bulk/data" transform="translate(-188 658.369) rotate(-90)">
    <g id="data" transform="translate(620 188)">
      <path id="Vector" d="M0,0H38.369V38.369H0Z" fill="none" opacity="0"/>
      <path id="Vector-2" data-name="Vector" d="M7.194,3.6A3.6,3.6,0,1,1,3.6,0,3.6,3.6,0,0,1,7.194,3.6Z" transform="translate(28.377 15.587)" fill="#fff"/>
      <path id="Vector-3" data-name="Vector" d="M7.194,3.6A3.6,3.6,0,1,1,3.6,0,3.6,3.6,0,0,1,7.194,3.6Z" transform="translate(28.377 2.798)" fill="#fff"/>
      <path id="Vector-4" data-name="Vector" d="M7.194,3.6A3.6,3.6,0,1,1,3.6,0,3.6,3.6,0,0,1,7.194,3.6Z" transform="translate(28.377 28.377)" fill="#fff"/>
      <path id="Vector-5" data-name="Vector" d="M11.979,5.989A5.989,5.989,0,1,1,5.989,0,5.989,5.989,0,0,1,11.979,5.989Z" transform="translate(2.004 13.195)" fill="#fff" opacity="0.4"/>
      <path id="Vector-6" data-name="Vector" d="M7.194,3.6A3.6,3.6,0,1,1,3.6,0,3.6,3.6,0,0,1,7.194,3.6Z" transform="translate(4.396 15.587)" fill="#fff"/>
      <path id="Vector-7" data-name="Vector" d="M23.581,15.188a1.2,1.2,0,1,0,0-2.4H11.99V6c0-2.526,1.071-3.6,3.6-3.6h7.994a1.208,1.208,0,0,0,1.2-1.2,1.208,1.208,0,0,0-1.2-1.2H15.587c-3.869,0-6,2.126-6,6V12.79H1.2a1.2,1.2,0,1,0,0,2.4H9.592v6.795c0,3.869,2.126,6,6,6h7.994a1.2,1.2,0,0,0,0-2.4H15.587c-2.526,0-3.6-1.071-3.6-3.6V15.188Z" transform="translate(6.795 5.196)" fill="#fff" opacity="0.4"/>
    </g>
  </g>
</svg>
