<svg xmlns="http://www.w3.org/2000/svg" width="45.025" height="41.023"  fill="#19c0ff" xmlns:v="https://vecta.io/nano"><path d="M21.819 41.023a1.06 1.06 0 0 1-.974-.861 1.92 1.92 0 0 0-1.145-1.656 6.5 6.5 0 0 0-2.852-.5H1c-.547-.022-.984-.464-1-1.012V9.985c.034-.54.461-.972 1-1.013l15.85.008a6.76 6.76 0 0 1 4.087 1.192 4.55 4.55 0 0 1 .882.882 4.72 4.72 0 0 1 .881-.882 5.91 5.91 0 0 1 2.239-1v2.088a3.7 3.7 0 0 0-1.074.531c-.711.51-1.108 1.351-1.052 2.224v22.84c1.25-.573 2.61-.868 3.985-.867h14.86V23.751h1.983v13.24a1.04 1.04 0 0 1-.987 1.012H26.8a6.49 6.49 0 0 0-2.854.5 1.93 1.93 0 0 0-1.146 1.66 1.06 1.06 0 0 1-.981.86zm-4.969-5.035c1.376-.02 2.739.277 3.982.867V14.016a2.54 2.54 0 0 0-1.06-2.224c-.868-.563-1.889-.842-2.922-.8H1.986v25zm21.339-4.849H26.284a1.01 1.01 0 0 1-.976-1.008 1.01 1.01 0 0 1 .976-1.008h11.905a1.01 1.01 0 0 1 .976 1.008 1.01 1.01 0 0 1-.976 1.008zm-20.832 0H5.46a1.01 1.01 0 0 1-.976-1.008 1.01 1.01 0 0 1 .976-1.008h11.9a1 1 0 0 1 .99 1.01c.005.266-.097.523-.284.712a.99.99 0 0 1-.709.293zm20.832-4.534H26.284a1.01 1.01 0 0 1-.976-1.008 1.01 1.01 0 0 1 .976-1.008h11.905a1.01 1.01 0 0 1 .976 1.008 1.01 1.01 0 0 1-.976 1.008zm-20.832 0H5.46a1.01 1.01 0 0 1-.976-1.008 1.01 1.01 0 0 1 .976-1.008h11.9a1.01 1.01 0 0 1 .976 1.008 1.01 1.01 0 0 1-.976 1.008zm0-4.534H5.46a1.01 1.01 0 0 1-1.008-1.009 1.01 1.01 0 0 1 1.008-1.008h11.9a1.01 1.01 0 0 1 1.008 1.008 1.01 1.01 0 0 1-1.008 1.009zm0-4.534H5.46a1.01 1.01 0 0 1-.976-1.008 1.01 1.01 0 0 1 .976-1.008h11.9a1.01 1.01 0 0 1 .976 1.008 1.01 1.01 0 0 1-.976 1.008zM44.363 3.414L36.724.088a1.1 1.1 0 0 0-.862 0l-7.639 3.326a1.11 1.11 0 0 0-.659 1.02v4.434c0 6.1 2.22 9.664 8.187 13.156a1.08 1.08 0 0 0 1.087 0c5.967-3.483 8.187-7.048 8.187-13.156V4.434a1.11 1.11 0 0 0-.662-1.02zm-1.521 5.454c0 5.119-1.668 7.937-6.548 10.908-4.881-2.978-6.548-5.8-6.548-10.908v-3.7l6.548-2.851 6.548 2.851zm-1.976-1.115c-.399-.289-.951-.232-1.282.132l-4.02 3.328-1.134-1.574a.96.96 0 0 0-1.263-.235.81.81 0 0 0-.253 1.173l1.823 2.539c.17.229.435.368.72.377h.038a.94.94 0 0 0 .713-.318l4.8-4.232a.81.81 0 0 0 .194-.627c-.027-.227-.149-.432-.336-.563z"/></svg>