<svg xmlns="http://www.w3.org/2000/svg" width="52.114" height="47.723" viewBox="0 0 52.114 47.723">
  <g id="Group_55727" data-name="Group 55727" transform="translate(-353.443 -1845.638)">
    <g id="bbcbff5c1f1ded46c25d28119a85c6c2" transform="translate(343.943 1794.138)">
      <g id="Group_55681" data-name="Group 55681" transform="translate(10 52)">
        <path id="Path_14157" data-name="Path 14157" d="M39.265,57.7c0-2.842-2.279-5.7-7.363-5.7-4.479,0-7.488,2.294-7.488,5.7a4.677,4.677,0,0,0,1.34,3.5c.282.318.4.459.4.6,0,.235,0,.381-.813.412H16.43c-3.421,0-6.43,2.727-6.43,5.84V73.51a2.048,2.048,0,0,0,2.034,2.237,2.772,2.772,0,0,0,1.679-.767A4.175,4.175,0,0,1,16.57,73.9c2.477,0,5.11,2.049,5.11,5.84,0,3.838-2.67,6.513-5.063,6.513a4.069,4.069,0,0,1-2.868-1.179,2.726,2.726,0,0,0-1.716-.845c-1.2,0-1.976.855-2.034,2.263v5.992a6.587,6.587,0,0,0,6.43,6.237h8.948a2.068,2.068,0,0,0,2.232-2.039,2.317,2.317,0,0,0-.761-1.57,3.23,3.23,0,0,1-.97-2.534c0-2.576,2.341-4.245,5.966-4.245S37.81,90,37.81,92.58a3.257,3.257,0,0,1-.97,2.534,2.3,2.3,0,0,0-.761,1.57c0,1.2.855,1.982,2.258,2.039h5.752c3.144,0,5.34-2.451,5.34-5.955V85.979a1.389,1.389,0,0,1,1.173-.86c.141,0,.282.115.6.4a4.652,4.652,0,0,0,3.494,1.345c3.186,0,6.419-2.446,6.419-7.123,0-5.043-2.936-7.3-5.84-7.3a5.765,5.765,0,0,0-3.848,1.491c-.334.261-.647.511-.824.511a1.409,1.409,0,0,1-1.173-.834.1.1,0,0,0-.005-.037V68.343c0-3.546-2.248-6.122-5.34-6.122H38.357c-.021,0-.037-.005-.057-.005-.772-.031-.772-.172-.772-.407,0-.141.115-.287.4-.6a4.677,4.677,0,0,0,1.34-3.5Zm-2.435,2.534a2.3,2.3,0,0,0-.761,1.575c0,.8.365,1.768,2.148,1.867a.665.665,0,0,0,.1.005h5.762c2.545,0,3.88,2.347,3.88,4.662v5.3a.732.732,0,0,0,0,.151A2.8,2.8,0,0,0,50.6,75.9a2.841,2.841,0,0,0,1.731-.824A4.282,4.282,0,0,1,55.263,73.9c2.659,0,4.38,2.294,4.38,5.84,0,3.89-2.571,5.658-4.959,5.658a3.222,3.222,0,0,1-2.524-.975,2.3,2.3,0,0,0-1.57-.767,2.8,2.8,0,0,0-2.633,2.1.733.733,0,0,0,0,.151v6.852c0,2.237-1.2,4.5-3.88,4.5h-5.72c-.829-.031-.829-.417-.829-.579,0-.141.115-.287.4-.6a4.687,4.687,0,0,0,1.34-3.5c0-2.842-2.294-5.7-7.426-5.7-4.438,0-7.426,2.294-7.426,5.7a4.678,4.678,0,0,0,1.34,3.5c.282.318.4.459.4.6,0,.162,0,.548-.8.579H16.435a5.2,5.2,0,0,1-4.975-4.771v-5.96c.031-.834.412-.834.574-.834s.469.245.782.506a5.5,5.5,0,0,0,3.8,1.512c3.15,0,6.524-3.207,6.524-7.973,0-4.74-3.384-7.3-6.57-7.3a5.617,5.617,0,0,0-3.749,1.382,1.881,1.881,0,0,1-.787.464c-.162,0-.537,0-.574-.8V68.061c0-2.581,2.618-4.38,4.97-4.38h8.927a.3.3,0,0,0,.068-.005h0c1.8-.068,2.18-1.053,2.18-1.867a2.317,2.317,0,0,0-.761-1.57,3.23,3.23,0,0,1-.97-2.534c0-2.54,2.425-4.245,6.028-4.245,3.582,0,5.9,1.663,5.9,4.245a3.23,3.23,0,0,1-.975,2.534Z" transform="translate(-10 -52)" fill="#222872" stroke="#222872" stroke-width="1"/>
      </g>
    </g>
    <g id="Ellipse_728" data-name="Ellipse 728" transform="translate(356 1870)" fill="none" stroke="#009eff" stroke-width="2">
      <circle cx="4" cy="4" r="4" stroke="none"/>
      <circle cx="4" cy="4" r="3" fill="none"/>
    </g>
    <g id="Ellipse_729" data-name="Ellipse 729" transform="translate(372 1884)" fill="none" stroke="#009eff" stroke-width="2">
      <circle cx="4" cy="4" r="4" stroke="none"/>
      <circle cx="4" cy="4" r="3" fill="none"/>
    </g>
  </g>
</svg>
