<svg xmlns="http://www.w3.org/2000/svg" width="38.486" height="38.486" viewBox="0 0 38.486 38.486">
  <g id="vuesax_bulk_scanning" data-name="vuesax/bulk/scanning" transform="translate(-492 -252)">
    <g id="scanning" transform="translate(492 252)">
      <path id="Vector" d="M1.2,13.631a1.211,1.211,0,0,1-1.2-1.2V8.419A8.428,8.428,0,0,1,8.419,0h4.009a1.211,1.211,0,0,1,1.2,1.2,1.211,1.211,0,0,1-1.2,1.2H8.419A6.016,6.016,0,0,0,2.405,8.419v4.009A1.211,1.211,0,0,1,1.2,13.631Z" transform="translate(2.004 2.004)" fill="#fff" opacity="0.4"/>
      <path id="Vector-2" data-name="Vector" d="M12.428,13.631a1.211,1.211,0,0,1-1.2-1.2V8.419A6.016,6.016,0,0,0,5.212,2.405H1.2A1.211,1.211,0,0,1,0,1.2,1.211,1.211,0,0,1,1.2,0H5.212a8.428,8.428,0,0,1,8.419,8.419v4.009A1.211,1.211,0,0,1,12.428,13.631Z" transform="translate(22.851 2.004)" fill="#fff"/>
      <path id="Vector-3" data-name="Vector" d="M3.608,12.027H1.2a1.2,1.2,0,0,1,0-2.405H3.608A6.016,6.016,0,0,0,9.622,3.608V1.2a1.2,1.2,0,0,1,2.405,0V3.608A8.428,8.428,0,0,1,3.608,12.027Z" transform="translate(24.455 24.455)" fill="#fff" opacity="0.4"/>
      <path id="Vector-4" data-name="Vector" d="M12.428,13.631H8.419A8.428,8.428,0,0,1,0,5.212V1.2A1.211,1.211,0,0,1,1.2,0a1.211,1.211,0,0,1,1.2,1.2V5.212a6.016,6.016,0,0,0,6.013,6.013h4.009a1.2,1.2,0,0,1,0,2.405Z" transform="translate(2.004 22.851)" fill="#fff"/>
      <path id="Vector-5" data-name="Vector" d="M9.237,4.618A4.618,4.618,0,1,1,4.618,0,4.618,4.618,0,0,1,9.237,4.618Z" transform="translate(9.012 9.012)" fill="#fff"/>
      <path id="Vector-6" data-name="Vector" d="M6.03,3.015A3.015,3.015,0,1,1,3.015,0,3.015,3.015,0,0,1,6.03,3.015Z" transform="translate(9.012 23.445)" fill="#fff" opacity="0.4"/>
      <path id="Vector-7" data-name="Vector" d="M6.03,3.015A3.015,3.015,0,1,1,3.015,0,3.015,3.015,0,0,1,6.03,3.015Z" transform="translate(23.445 9.012)" fill="#fff" opacity="0.4"/>
      <path id="Vector-8" data-name="Vector" d="M9.237,4.618A4.618,4.618,0,1,1,4.618,0,4.618,4.618,0,0,1,9.237,4.618Z" transform="translate(20.237 20.237)" fill="#fff"/>
      <path id="Vector-9" data-name="Vector" d="M0,0H38.486V38.486H0Z" fill="none" opacity="0"/>
    </g>
  </g>
</svg>
