<svg xmlns="http://www.w3.org/2000/svg" width="55.204" height="53.993" viewBox="0 0 55.204 53.993">
  <g id="Group_2751" data-name="Group 2751" transform="translate(0.674 0.195)">
    <g id="Group_2750" data-name="Group 2750" transform="translate(-0.674 -0.195)">
      <path id="Path_2531" data-name="Path 2531" d="M16.5,7.836a1.117,1.117,0,1,1,.8,2.086q-1.083.415-2.12.935A23.5,23.5,0,0,0,2.476,35.214a1.117,1.117,0,0,1-2.211.319A25.733,25.733,0,0,1,14.181,8.86Q15.316,8.291,16.5,7.836ZM9.867,52.078a1.117,1.117,0,1,1,1.377-1.759A23.463,23.463,0,0,0,40.3,50.2a1.117,1.117,0,1,1,1.392,1.747,25.7,25.7,0,0,1-31.821.135Zm6.2-2.225a1.117,1.117,0,0,1-.89,1.305l-3.835.726L11.684,56a1.117,1.117,0,0,1-2.226.19l-.431-5.125a1.117,1.117,0,0,1,.906-1.191l4.826-.913a1.117,1.117,0,0,1,1.305.89ZM34.44,7.672A25.7,25.7,0,0,1,51.388,31.838q0,.964-.07,1.917l2.1-1.575a1.117,1.117,0,1,1,1.339,1.789l-4.115,3.08a1.117,1.117,0,0,1-1.49-.136L45.817,33.3a1.118,1.118,0,0,1,1.642-1.518l1.63,1.765q.062-.857.062-1.714A23.467,23.467,0,0,0,33.673,9.769a1.117,1.117,0,1,1,.766-2.1ZM11.493,6.323a1.117,1.117,0,0,1,1.462-.6h0l4.53,1.9a1.117,1.117,0,0,1,.638,1.354h0L16.636,13.9a1.117,1.117,0,0,1-2.139-.647h0l1.195-3.956-3.6-1.51a1.117,1.117,0,0,1-.6-1.462Z" transform="translate(0.001 -3.537)" fill="#222872"/>
      <path id="Path_2532" data-name="Path 2532" d="M26.32,9.682a4.841,4.841,0,1,0-4.841-4.841A4.841,4.841,0,0,0,26.32,9.682ZM47.545,35.374a4.841,4.841,0,1,1-4.84,4.84,4.841,4.841,0,0,1,4.84-4.84Zm-41.7,0A4.841,4.841,0,1,1,1,40.214a4.841,4.841,0,0,1,4.84-4.84Zm41.7,2.234a2.606,2.606,0,1,0,2.606,2.606,2.606,2.606,0,0,0-2.606-2.606Zm-41.7,0a2.606,2.606,0,1,0,2.606,2.606A2.606,2.606,0,0,0,5.84,37.608ZM26.32,2.234A2.606,2.606,0,1,1,23.714,4.84,2.606,2.606,0,0,1,26.32,2.234Z" transform="translate(-0.627)" fill="#222872"/>
      <path id="Path_2533" data-name="Path 2533" d="M37.147,59.936l-2.389-.2a1.117,1.117,0,0,1-.952-.716A13.139,13.139,0,0,1,33,55.553a1.117,1.117,0,0,1,.546-1.065l2.051-1.2a10.575,10.575,0,0,1,.625-2.693l-1.31-1.955a1.117,1.117,0,0,1-.025-1.2,13.4,13.4,0,0,1,2.259-2.777,1.117,1.117,0,0,1,1.162-.229l2.246.857a10.871,10.871,0,0,1,2.4-1.143l.722-2.256a1.117,1.117,0,0,1,.916-.766,13.751,13.751,0,0,1,3.618,0,1.117,1.117,0,0,1,.916.766l.724,2.259a10.871,10.871,0,0,1,2.4,1.143l2.246-.857a1.117,1.117,0,0,1,1.162.229,13.405,13.405,0,0,1,2.259,2.777,1.117,1.117,0,0,1-.025,1.2l-1.31,1.955a10.575,10.575,0,0,1,.624,2.689l2.045,1.2a1.117,1.117,0,0,1,.546,1.065,13.15,13.15,0,0,1-.8,3.467,1.117,1.117,0,0,1-.952.716l-2.389.2a10.8,10.8,0,0,1-1.712,2.108l.329,2.331a1.118,1.118,0,0,1-.5,1.093,13.468,13.468,0,0,1-3.26,1.545,1.117,1.117,0,0,1-1.148-.3l-1.648-1.738a11.117,11.117,0,0,1-2.633,0l-1.648,1.738a1.117,1.117,0,0,1-1.148.3,13.466,13.466,0,0,1-3.266-1.542,1.118,1.118,0,0,1-.5-1.093l.329-2.331a10.8,10.8,0,0,1-1.713-2.11Zm.762-2.178a1.117,1.117,0,0,1,.887.579,8.565,8.565,0,0,0,1.973,2.424,1.117,1.117,0,0,1,.381,1.007l-.309,2.19a11.153,11.153,0,0,0,1.471.7l1.55-1.634a1.117,1.117,0,0,1,1-.331,8.855,8.855,0,0,0,3.066,0,1.117,1.117,0,0,1,1,.331l1.55,1.634a11.154,11.154,0,0,0,1.471-.7l-.309-2.19a1.117,1.117,0,0,1,.381-1.007A8.569,8.569,0,0,0,54,58.338a1.117,1.117,0,0,1,.9-.58l2.242-.19a10.9,10.9,0,0,0,.355-1.529l-1.924-1.127a1.117,1.117,0,0,1-.55-.92,8.351,8.351,0,0,0-.714-3.075,1.117,1.117,0,0,1,.1-1.076l1.229-1.834a11.176,11.176,0,0,0-1.009-1.238l-2.112.8a1.117,1.117,0,0,1-1.047-.135,8.64,8.64,0,0,0-2.785-1.317,1.117,1.117,0,0,1-.774-.739l-.678-2.12q-.408-.03-.821-.03t-.821.03L44.9,45.38a1.117,1.117,0,0,1-.774.739,8.64,8.64,0,0,0-2.785,1.317,1.117,1.117,0,0,1-1.047.135l-2.112-.8a11.176,11.176,0,0,0-1.009,1.238L38.4,49.84a1.117,1.117,0,0,1,.1,1.076,8.351,8.351,0,0,0-.714,3.075,1.117,1.117,0,0,1-.55.92l-1.919,1.134a10.9,10.9,0,0,0,.35,1.523Zm8.678,3.348A6.705,6.705,0,1,1,53.1,54.4a6.611,6.611,0,0,1-6.513,6.7Zm0-2.234A4.475,4.475,0,1,0,42.3,54.4a4.38,4.38,0,0,0,4.289,4.469Z" transform="translate(-20.711 -25.733)" fill="#009eff"/>
    </g>
  </g>
</svg>
