<svg xmlns="http://www.w3.org/2000/svg" width="58.533" height="52.126" viewBox="0 0 58.533 52.126">
  <path id="Path_38804" data-name="Path 38804" d="M58.533,26.07c0-3.877-4.854-7.55-12.3-9.832,1.72-7.588.953-13.623-2.41-15.557A5.239,5.239,0,0,0,41.151.014V2.677a2.81,2.81,0,0,1,1.362.31c1.624.929,2.325,4.473,1.777,9.031-.133,1.119-.348,2.3-.61,3.506a57.961,57.961,0,0,0-7.574-1.3A58.284,58.284,0,0,0,31.143,8.26c3.887-3.62,7.536-5.6,10.018-5.6V0h0c-3.282,0-7.574,2.339-11.918,6.4C24.9,2.363,20.607.048,17.325.048V2.71c2.467,0,6.131,1.967,10.022,5.559a55.692,55.692,0,0,0-4.925,5.954,56.2,56.2,0,0,0-7.588,1.31c-.276-1.191-.476-2.348-.619-3.458-.562-4.559.133-8.1,1.743-9.046a2.659,2.659,0,0,1,1.372-.31V.062h0a5.328,5.328,0,0,0-2.7.667c-3.353,1.934-4.106,7.96-2.372,15.524C4.83,18.539,0,22.2,0,26.07S4.854,33.62,12.3,35.9c-1.72,7.588-.953,13.623,2.41,15.557a5.255,5.255,0,0,0,2.687.667c3.282,0,7.574-2.339,11.918-6.4,4.344,4.035,8.636,6.35,11.918,6.35a5.328,5.328,0,0,0,2.7-.667c3.353-1.934,4.106-7.96,2.372-15.524,7.4-2.277,12.232-5.954,12.232-9.817Zm-23.827,0a5.454,5.454,0,1,0-5.454,5.454,5.453,5.453,0,0,0,5.454-5.454ZM17.31.048ZM43,18.111c-.443,1.539-.991,3.125-1.61,4.711-.491-.953-1-1.91-1.562-2.863s-1.134-1.886-1.72-2.791c1.7.252,3.33.562,4.892.943ZM37.536,30.819c-.929,1.61-1.886,3.139-2.877,4.559-1.777.157-3.577.238-5.392.238s-3.6-.086-5.368-.229c-.991-1.42-1.958-2.934-2.887-4.535Q19.654,28.509,18.53,26.1c.738-1.6,1.577-3.2,2.467-4.759.929-1.61,1.886-3.139,2.877-4.559,1.777-.157,3.577-.238,5.392-.238s3.6.086,5.368.229c.991,1.42,1.958,2.934,2.887,4.535Q38.879,23.655,40,26.061c-.753,1.6-1.572,3.192-2.467,4.759Zm3.854-1.553c.643,1.6,1.191,3.2,1.648,4.749-1.562.381-3.211.7-4.916.953.586-.919,1.167-1.863,1.72-2.829s1.057-1.92,1.548-2.872ZM29.29,41.994a48.284,48.284,0,0,1-3.315-3.816c1.072.048,2.172.086,3.282.086s2.229-.024,3.315-.086a47.147,47.147,0,0,1-3.282,3.816Zm-8.874-7.026c-1.7-.252-3.33-.562-4.892-.943.443-1.539.991-3.125,1.61-4.711.491.953,1,1.91,1.562,2.863s1.134,1.886,1.72,2.791Zm8.812-24.827a48.284,48.284,0,0,1,3.315,3.816c-1.072-.048-2.172-.086-3.282-.086s-2.229.024-3.315.086a47.148,47.148,0,0,1,3.282-3.816ZM20.4,17.167c-.586.919-1.167,1.863-1.72,2.829s-1.062,1.91-1.553,2.863c-.643-1.6-1.191-3.2-1.648-4.749,1.567-.372,3.215-.691,4.921-.943ZM9.6,32.106c-4.225-1.8-6.955-4.163-6.955-6.035S5.383,21.821,9.6,20.035c1.024-.443,2.148-.834,3.306-1.205A57.278,57.278,0,0,0,15.6,26.094a56.476,56.476,0,0,0-2.648,7.231c-1.181-.372-2.306-.776-3.344-1.219Zm6.421,17.048c-1.624-.929-2.325-4.473-1.777-9.031.133-1.119.348-2.3.61-3.506a57.962,57.962,0,0,0,7.574,1.3,58.285,58.285,0,0,0,4.964,5.964c-3.892,3.615-7.541,5.6-10.022,5.6a2.845,2.845,0,0,1-1.348-.324Zm28.3-9.089c.562,4.559-.133,8.1-1.743,9.046a2.66,2.66,0,0,1-1.372.31c-2.467,0-6.131-1.967-10.022-5.559a55.69,55.69,0,0,0,4.925-5.954A55.446,55.446,0,0,0,43.7,36.593a33.518,33.518,0,0,1,.624,3.473Zm4.592-7.96c-1.024.443-2.148.834-3.306,1.205a57.277,57.277,0,0,0-2.687-7.264,56.475,56.475,0,0,0,2.648-7.231q1.772.557,3.353,1.215c4.225,1.8,6.955,4.163,6.955,6.035s-2.739,4.249-6.964,6.04Z" fill="#00d8ff" fill-rule="evenodd"/>
</svg>
