<svg xmlns="http://www.w3.org/2000/svg" width="39.189" height="43.402"  fill="#19c0ff" xmlns:v="https://vecta.io/nano"><path d="M16.703 32.38l-.137-.5c-.055-.294-.131-.583-.228-.865a8.15 8.15 0 0 0-2.641-4.329c-.128-.131-.265-.253-.41-.364a8.55 8.55 0 0 1-.911-.911 7.85 7.85 0 0 1-1-1.5l-.41-.592c-.911-1.457-1.5-2.368-2.277-2.778a2.71 2.71 0 0 0-1.731-.182l-1.322-2.373a2.93 2.93 0 0 0-2.6-1.5c-1.098.036-2.105.616-2.687 1.548l-.046.091a2.27 2.27 0 0 0-.273 1.548l1.962 11.159A6.63 6.63 0 0 0 4.36 34.84l3.871 3.507c.091.091.182.137.228.228a2.01 2.01 0 0 1 .455 1.321l.046.865a2.77 2.77 0 0 0 2.687 2.6l4.463.046a2.72 2.72 0 0 0 2-.865c.518-.568.767-1.331.683-2.095a17.12 17.12 0 0 0-1.412-5.738l-.678-2.329zM1.992 19.036c.207-.415.629-.679 1.093-.683.378.013.722.219.911.547l1.279 2.322c-.583.507-.814 1.309-.592 2.049.228.729.774 2.095 1.594 4.008l.091.228v.046h0l2.095 2.778a.88.88 0 0 0 .577.347.87.87 0 0 0 .653-.165 1.01 1.01 0 0 0 .364-.592c.032-.228-.035-.458-.182-.635l-1.867-2.459-.091-.182-1.5-3.78c-.046-.182-.046-.228.091-.319a1.77 1.77 0 0 1 1-.364.66.66 0 0 1 .273.046c.624.612 1.147 1.319 1.548 2.095l.364.638a15.7 15.7 0 0 0 1.139 1.685 13.38 13.38 0 0 0 1.139 1.139 2.75 2.75 0 0 1 .364.364c1.057.881 1.807 2.076 2.14 3.412.091.273.137.592.228.865l.091.455c.201.899.507 1.772.911 2.6a6.72 6.72 0 0 1 .683 1.867h-6.38l-.046-.046c-.137-.137-.228-.273-.364-.41L5.681 33.34h0c-.9-.72-1.513-1.737-1.731-2.869L1.992 19.31q-.068-.205 0-.274zm14.8 22.134c-.144.178-.363.279-.592.273h0l-4.418-.046a.77.77 0 0 1-.774-.774l-.046-.865c0-.182-.046-.364-.046-.547h5.969l.182 1.321a1.6 1.6 0 0 1-.273.638zm22.09-23.089l-.046-.091a3.13 3.13 0 0 0-2.687-1.549 3.08 3.08 0 0 0-2.6 1.5l-1.275 2.368c-.587-.098-1.19-.019-1.731.228-.774.41-1.366 1.321-2.277 2.778l-.091.137a3.4 3.4 0 0 0-.319.547 12.29 12.29 0 0 1-1 1.5c-.182.228-.592.592-.911.911-.125.134-.262.256-.41.364a8.36 8.36 0 0 0-2.687 4.327 5.3 5.3 0 0 0-.182.82l-.137.5a12.32 12.32 0 0 1-.729 2.186c-.816 1.811-1.294 3.755-1.412 5.738-.084.76.162 1.52.676 2.086s1.247.885 2.011.874l4.463-.046c1.441-.024 2.616-1.161 2.687-2.6l.046-.865a2.29 2.29 0 0 1 .455-1.321 1.21 1.21 0 0 0 .228-.273l3.871-3.507a6.63 6.63 0 0 0 2.368-4.008l1.962-11.144a2.11 2.11 0 0 0-.273-1.46zM28.407 39.167c-.038.179-.053.363-.046.546l-.091.911a.8.8 0 0 1-.774.774l-4.463.046c-.229.006-.448-.095-.592-.273s-.214-.409-.182-.638l.182-1.321h5.966zm4.372-16.3c-.319 1-1.23 3.1-1.5 3.735l-1.961 2.639a.79.79 0 0 0-.137.638.83.83 0 0 0 .364.592.87.87 0 0 0 1.23-.182l2.095-2.778h0c.003-.035.02-.067.046-.091l.091-.182 1.594-4.008a1.99 1.99 0 0 0-.592-2.049l1.275-2.323c.189-.327.533-.534.911-.546a1.22 1.22 0 0 1 1.047.683.58.58 0 0 1 .046.273l-1.959 11.155c-.218 1.132-.831 2.149-1.731 2.869l-3.962 3.549a2.95 2.95 0 0 0-.364.41l-.046.046h-6.421a7.35 7.35 0 0 1 .683-1.867 14.47 14.47 0 0 0 .865-2.6l.091-.455a5.51 5.51 0 0 1 .228-.82c.333-1.336 1.082-2.532 2.14-3.414.148-.108.285-.23.41-.364.397-.328.761-.693 1.09-1.089.423-.541.819-1.103 1.184-1.685l.364-.638a8.18 8.18 0 0 1 1.552-2.095 1.61 1.61 0 0 1 .273-.046 1.5 1.5 0 0 1 1 .364c.185.047.185.047.094.274zm-14.3-9.204a.9.9 0 0 0 .638.273c.242.007.476-.093.638-.273l2.186-2.323a.85.85 0 0 0 .228-.638.9.9 0 0 0-.273-.638c-.16-.18-.4-.265-.638-.228a.9.9 0 0 0-.638.273l-1.5 1.64-.547-.592c-.34-.365-.911-.385-1.276-.045a.9.9 0 0 0-.045 1.275zm-9.382.82l.592.137a1.63 1.63 0 0 1 1.093.956 1.7 1.7 0 0 1-.091 1.412l-.319.5a1.66 1.66 0 0 0 .273 2.095l1.275 1.275a1.72 1.72 0 0 0 2.095.273l.5-.319a1.64 1.64 0 0 1 1.457-.091c.47.186.813.597.911 1.093l.137.592a1.71 1.71 0 0 0 1.685 1.321h1.822a1.75 1.75 0 0 0 1.685-1.321l.137-.592a1.63 1.63 0 0 1 .956-1.093 1.7 1.7 0 0 1 1.412.091l.5.319a1.66 1.66 0 0 0 2.095-.273l1.275-1.275a1.72 1.72 0 0 0 .273-2.095l-.319-.5a1.63 1.63 0 0 1-.091-1.457c.186-.47.597-.813 1.093-.911l.592-.137a1.71 1.71 0 0 0 1.323-1.683v-1.824a1.75 1.75 0 0 0-1.321-1.685l-.592-.137a1.63 1.63 0 0 1-1.093-.956 1.7 1.7 0 0 1 .091-1.412l.319-.5a1.66 1.66 0 0 0-.273-2.095l-1.23-1.321a1.72 1.72 0 0 0-2.095-.27l-.5.319a1.6 1.6 0 0 1-1.5.091c-.47-.186-.813-.597-.911-1.093l-.137-.592A1.71 1.71 0 0 0 20.528 0h-1.822a1.75 1.75 0 0 0-1.685 1.321l-.137.592a1.63 1.63 0 0 1-.956 1.093 1.7 1.7 0 0 1-1.412-.091l-.501-.315a1.66 1.66 0 0 0-2.095.273l-1.275 1.271a1.72 1.72 0 0 0-.269 2.095l.319.5a1.63 1.63 0 0 1 .091 1.457c-.186.47-.597.813-1.093.911l-.592.137a1.71 1.71 0 0 0-1.325 1.686v1.822a1.8 1.8 0 0 0 1.321 1.731zm3.188-8.7l-.228-.41L13.15 4.28l.41.228a3.64 3.64 0 0 0 3.142.228 3.56 3.56 0 0 0 2.049-2.368l.091-.455h1.548l.091.455a3.51 3.51 0 0 0 2.095 2.368 3.48 3.48 0 0 0 3.142-.228l.41-.228 1.093 1.093-.228.41a3.49 3.49 0 0 0-.228 3.142 3.56 3.56 0 0 0 2.368 2.049l.455.091v1.548l-.455.091a3.56 3.56 0 0 0-2.14 5.237l.228.41-1.093 1.093-.41-.228a3.49 3.49 0 0 0-3.142-.228 3.56 3.56 0 0 0-2.049 2.368l-.091.455h-1.548l-.091-.455a3.51 3.51 0 0 0-2.095-2.368 3.64 3.64 0 0 0-3.142.228l-.41.228-1.093-1.093.228-.41a3.64 3.64 0 0 0 .228-3.142 3.56 3.56 0 0 0-2.368-2.049l-.455-.091v-1.547l.455-.091a3.51 3.51 0 0 0 2.368-2.095 3.64 3.64 0 0 0-.228-3.142zm7.332 12.255a6.15 6.15 0 0 0 6.148-6.147 6.15 6.15 0 0 0-6.145-6.149 6.15 6.15 0 0 0-6.151 6.144c.016 3.39 2.759 6.134 6.148 6.152zm0-10.429c1.713 0 3.258 1.032 3.913 2.616s.292 3.405-.921 4.616-3.035 1.572-4.617.914-2.613-2.203-2.61-3.917c-.002-1.123.444-2.201 1.239-2.996s1.873-1.239 2.996-1.237z"/></svg>