<svg xmlns="http://www.w3.org/2000/svg" width="38" height="38" viewBox="0 0 38 38">
  <g id="vuesax_bulk_message-time" data-name="vuesax/bulk/message-time" transform="translate(-428 -316)">
    <g id="message-time" transform="translate(428 316)">
      <path id="Vector" d="M0,0H38V38H0Z" fill="none" opacity="0"/>
      <path id="Vector-2" data-name="Vector" d="M31.667,7.917v9.5a7.923,7.923,0,0,1-2.185,5.748,7.914,7.914,0,0,1-5.732,2.169v3.373a1.585,1.585,0,0,1-2.454,1.33l-7.046-4.7H10.893a5.69,5.69,0,0,0,.19-1.472,6.308,6.308,0,0,0-1.631-4.227,6.245,6.245,0,0,0-4.7-2.106A6.325,6.325,0,0,0,.206,19.443,9.259,9.259,0,0,1,0,17.417v-9.5A7.479,7.479,0,0,1,7.917,0H23.75A7.479,7.479,0,0,1,31.667,7.917Z" transform="translate(3.167 3.847)" fill="#fff" opacity="0.4"/>
      <g id="Group" transform="translate(12.271 15.438)">
        <path id="Vector-3" data-name="Vector" d="M12.271,2.375H1.188A1.2,1.2,0,0,1,0,1.188,1.2,1.2,0,0,1,1.188,0H12.271a1.2,1.2,0,0,1,1.188,1.188A1.2,1.2,0,0,1,12.271,2.375Z" fill="#fff"/>
      </g>
      <path id="Vector-4" data-name="Vector" d="M6.333,0a6.328,6.328,0,1,0,6.333,6.333A6.338,6.338,0,0,0,6.333,0ZM7.917,6.729a1.19,1.19,0,0,1-.57,1.013L5.368,8.93A1.212,1.212,0,0,1,4.75,9.1a1.182,1.182,0,0,1-.6-2.2l1.409-.839V4.354a1.188,1.188,0,1,1,2.375,0V6.729Z" transform="translate(1.583 21.375)" fill="#fff"/>
    </g>
  </g>
</svg>
