<svg xmlns="http://www.w3.org/2000/svg" width="46.407" height="44.631" viewBox="0 0 46.407 44.631">
  <g id="message-36" transform="translate(-96.155 -127.978)">
    <path id="Path_14287" data-name="Path 14287" d="M119.349,172.609a1.772,1.772,0,0,1-1.267-.528l-5.355-5.355a1.785,1.785,0,0,1,2.524-2.524l4.1,4.1,4.1-4.1a1.786,1.786,0,0,1,1.267-.528h12.494a1.782,1.782,0,0,0,1.785-1.785V133.333a1.788,1.788,0,0,0-1.785-1.785h-35.7a1.794,1.794,0,0,0-1.785,1.785v28.558a1.788,1.788,0,0,0,1.785,1.785h5.355a1.785,1.785,0,0,1,0,3.57H101.51a5.357,5.357,0,0,1-5.355-5.355V133.333a5.357,5.357,0,0,1,5.355-5.355h35.7a5.357,5.357,0,0,1,5.355,5.355v28.558a5.357,5.357,0,0,1-5.355,5.355H125.443l-4.827,4.836A1.8,1.8,0,0,1,119.349,172.609Z" transform="translate(0 0)" fill="#222872"/>
    <path id="Path_14289" data-name="Path 14289" d="M482.6,421.285a2.677,2.677,0,1,1,2.677-2.677A2.678,2.678,0,0,1,482.6,421.285Z" transform="translate(-362.355 -263.888)" fill="#009eff"/>
    <path id="Path_14292" data-name="Path 14292" d="M482.6,421.285a2.677,2.677,0,1,1,2.677-2.677A2.678,2.678,0,0,1,482.6,421.285Z" transform="translate(-373.074 -263.888)" fill="#009eff"/>
    <path id="Path_14290" data-name="Path 14290" d="M674.736,421.285a2.677,2.677,0,1,1,2.677-2.677A2.678,2.678,0,0,1,674.736,421.285Z" transform="translate(-543.776 -263.888)" fill="#009eff"/>
    <g id="_7b2d8f7a55aaa230de596ce5584a376e" data-name="7b2d8f7a55aaa230de596ce5584a376e" transform="translate(94.771 -15.548)">
      <g id="_x35_151e0c8492e5103c096af88a51e7e7e" transform="translate(9.9 151.828)">
        <path id="Path_14291" data-name="Path 14291" d="M15.395,156.448c0,1.633.117,3.005-.689,3.817a2.836,2.836,0,0,1-2.049.726A2.873,2.873,0,0,1,9.9,159.315q.738-.472,1.508-.912a1.27,1.27,0,0,0,1.713.838c.505-.257.447-1.035.447-1.88V152c0-.026,0-.053.018-.055h1.807C15.395,153.352,15.395,154.948,15.395,156.448Zm4.58-1.061c-.461-.2-1.033-.43-1.174-.857a.809.809,0,0,1,.409-1.005,1.266,1.266,0,0,1,1.6.689,14.888,14.888,0,0,0,1.434-.932,2.774,2.774,0,0,0-2.7-1.453,2.832,2.832,0,0,0-1.788.633,2.172,2.172,0,0,0-.8,1.564c-.153,2.125,1.438,2.667,2.793,3.259a2.135,2.135,0,0,1,1.1.745c.405.764-.313,1.268-.932,1.322a2.173,2.173,0,0,1-2.049-1.1c-.483.3-1.008.557-1.471.875a3.57,3.57,0,0,0,3.351,1.862c1.684-.005,2.933-.817,3.035-2.346C22.926,156.566,21.369,155.983,19.975,155.387Z" transform="translate(-9.9 -151.828)" fill="#009eff"/>
      </g>
    </g>
  </g>
</svg>
