<svg xmlns="http://www.w3.org/2000/svg" width="52.723" height="52.745" viewBox="0 0 52.723 52.745">
  <g id="cloud-computing-svgrepo-com_1_" data-name="cloud-computing-svgrepo-com (1)" transform="translate(-12 -11.9)">
    <g id="Group_55731" data-name="Group 55731" transform="translate(12 11.9)">
      <path id="Path_14275" data-name="Path 14275" d="M56.241,23.644C53.819,16.669,46.661,11.9,38.372,11.9S22.926,16.669,20.5,23.644C15.434,25.28,12,29.618,12,34.559c0,6.4,5.78,11.625,12.885,11.625a2.2,2.2,0,1,0,0-4.392c-4.682,0-8.493-3.24-8.493-7.223,0-3.272,2.6-6.146,6.34-6.975a2.193,2.193,0,0,0,1.647-1.6C25.821,20.371,31.7,16.3,38.362,16.3s12.54,4.08,13.983,9.688a2.209,2.209,0,0,0,1.647,1.6c3.735.829,6.34,3.7,6.34,6.975,0,3.983-3.811,7.223-8.493,7.223a2.2,2.2,0,1,0,0,4.392c7.1,0,12.885-5.21,12.885-11.625C64.745,29.618,61.311,25.28,56.241,23.644Z" transform="translate(-12 -11.9)" fill="#222872"/>
      <path id="Path_14276" data-name="Path 14276" d="M160.952,399.7a2.191,2.191,0,0,0-2.2,2.2v4.413H141.792V401.9a2.2,2.2,0,0,0-4.392,0v6.609a2.191,2.191,0,0,0,2.2,2.2h21.367a2.191,2.191,0,0,0,2.2-2.2V401.9A2.207,2.207,0,0,0,160.952,399.7Z" transform="translate(-123.902 -357.956)" fill="#222872"/>
      <path id="Path_14277" data-name="Path 14277" d="M189.518,213.9a2.191,2.191,0,0,0-2.2,2.2v12.024l-2.239-2.1a2.2,2.2,0,1,0-3.014,3.208l5.942,5.565a1.921,1.921,0,0,0,3,0l5.942-5.565a2.2,2.2,0,1,0-3.014-3.208l-2.228,2.1V216.107A2.2,2.2,0,0,0,189.518,213.9Z" transform="translate(-163.145 -192.156)" fill="#009eff"/>
    </g>
  </g>
</svg>
