<svg xmlns="http://www.w3.org/2000/svg" width="59.014" height="40.404" viewBox="0 0 59.014 40.404">
  <g id="laravel-icon" transform="translate(-0.003 0.002)">
    <path id="Path_38790" data-name="Path 38790" d="M58.782,18.878c-.423-.423-5.821-7.223-6.733-8.347-.98-1.124-1.4-.913-2.036-.84s-7.435,1.263-8.208,1.33c-.773.139-1.263.423-.773,1.124.423.629,4.908,6.945,5.893,8.419L29.039,24.843,14.871,1.06c-.562-.84-.7-1.124-1.964-1.052S1.755.921,1.053.921C.348.993-.421,1.271.28,2.957s11.925,25.81,12.2,26.511a2.409,2.409,0,0,0,3.016,1.4c1.964-.49,8.7-2.243,12.415-3.227,1.964,3.506,5.893,10.662,6.666,11.714.98,1.4,1.686,1.124,3.155.7,1.191-.351,18.38-6.522,19.148-6.873s1.263-.562.7-1.335c-.423-.562-4.908-6.666-7.3-9.822,1.614-.423,7.435-1.964,8.069-2.176.7-.2.84-.552.423-.975ZM26.3,25.544c-.211.072-10.239,2.454-10.734,2.593-.562.139-.562.072-.562-.139C14.871,27.787,3.085,3.375,2.874,3.1c-.139-.279-.139-.562,0-.562s9.471-.84,9.75-.84c.351,0,.279.072.423.279,0,0,13.116,22.659,13.328,23.01.279.351.139.49-.072.562ZM54.5,30.8c.139.279.351.423-.211.562-.49.211-16.906,5.754-17.256,5.893s-.562.211-.98-.423S30.3,27.014,30.3,27.014L47.77,22.456c.423-.139.562-.211.84.211.279.49,5.754,7.924,5.893,8.136Zm1.119-12.348c-.423.072-6.805,1.686-6.805,1.686l-5.259-7.156c-.139-.211-.279-.423.072-.49s6.316-1.124,6.594-1.191.49-.139.84.351c.351.423,4.841,6.171,5.052,6.383s-.072.351-.495.418Z" transform="translate(0 0)" fill="#fb503b" fill-rule="evenodd"/>
  </g>
</svg>
