<svg xmlns="http://www.w3.org/2000/svg" width="34.954" height="53.993" viewBox="0 0 34.954 53.993">
  <g id="c9768db46d137fb1dcfc9f1dd52d0c46" transform="translate(-182.7 -10)">
    <path id="Path_14129" data-name="Path 14129" d="M215.66,61.894a6.917,6.917,0,0,0,1.994-4.859V16.952A6.978,6.978,0,0,0,210.7,10H189.658a6.94,6.94,0,0,0-4.9,2.038l-.017.017a6.907,6.907,0,0,0-2.038,4.9V57.041a6.978,6.978,0,0,0,6.952,6.952H210.7a6.922,6.922,0,0,0,4.9-2.044l.061-.055Zm-15.48-5.928a3.394,3.394,0,1,1-3.394,3.394,3.395,3.395,0,0,1,3.394-3.394Zm-14.747-1.228V16.952a4.21,4.21,0,0,1,1.234-2.986l.005-.006a4.21,4.21,0,0,1,2.986-1.234H210.7a4.251,4.251,0,0,1,4.225,4.225v37.78l-29.495.006Z" fill="#222872"/>
    <path id="Path_14130" data-name="Path 14130" d="M335.474,303.112h-6.236a.738.738,0,0,1-.738-.738v-6.236a.738.738,0,0,1,.738-.738h6.236a.738.738,0,0,1,.738.738v6.236A.738.738,0,0,1,335.474,303.112Z" transform="translate(-137.768 -265.677)" fill="none" stroke="#009eff" stroke-width="2"/>
    <path id="Path_14131" data-name="Path 14131" d="M537.474,303.112h-6.236a.738.738,0,0,1-.738-.738v-6.236a.738.738,0,0,1,.738-.738h6.236a.738.738,0,0,1,.738.738v6.236A.738.738,0,0,1,537.474,303.112Z" transform="translate(-328.64 -265.677)" fill="none" stroke="#009eff" stroke-width="2"/>
    <path id="Path_14132" data-name="Path 14132" d="M335.774,504.313h-6.236a.738.738,0,0,1-.738-.738v-6.236a.738.738,0,0,1,.738-.738h6.236a.738.738,0,0,1,.738.738v6.236A.738.738,0,0,1,335.774,504.313Z" transform="translate(-138.051 -455.793)" fill="none" stroke="#009eff" stroke-width="2"/>
    <path id="Path_14133" data-name="Path 14133" d="M537.774,504.313h-6.236a.738.738,0,0,1-.738-.738v-6.236a.738.738,0,0,1,.738-.738h6.236a.738.738,0,0,1,.738.738v6.236A.738.738,0,0,1,537.774,504.313Z" transform="translate(-328.923 -455.793)" fill="none" stroke="#009eff" stroke-width="2"/>
    <g id="Rectangle_8886" data-name="Rectangle 8886" transform="translate(189.7 17)" fill="none" stroke="#009eff" stroke-linejoin="round" stroke-width="2">
      <rect width="21" height="9" rx="3" stroke="none"/>
      <rect x="1" y="1" width="19" height="7" rx="2" fill="none"/>
    </g>
  </g>
</svg>
