<svg xmlns="http://www.w3.org/2000/svg" width="48.848" height="37.087"  fill="#19c0ff" xmlns:v="https://vecta.io/nano"><path d="M25.175 37.087H4.339C1.942 37.083.001 35.139 0 32.742V17.964c.001-2.397 1.942-4.34 4.339-4.344h2.6V7.665c.068-4.266 3.546-7.689 7.813-7.689s7.745 3.423 7.813 7.689v5.955h2.609a4.35 4.35 0 0 1 4.339 4.343v5.281h-2.9v-5.28c.001-.798-.645-1.446-1.443-1.448H4.339c-.797.004-1.44.651-1.439 1.448v14.778c-.001.797.643 1.444 1.44 1.446h20.835a1.44 1.44 0 0 0 1.221-.673h3.047c-.369 2.068-2.168 3.573-4.268 3.572zM14.752 2.9c-2.673-.038-4.873 2.093-4.92 4.766v5.954h9.841V7.665c-.048-2.673-2.248-4.803-4.921-4.765zm0 27.376c-.797-.003-1.441-.651-1.44-1.448v-3.183c-.996-.644-1.449-1.868-1.112-3.006s1.384-1.917 2.57-1.914 2.229.787 2.561 1.926-.127 2.361-1.126 3v3.176a1.45 1.45 0 0 1-1.453 1.448z"/><circle cx="38.107" cy="28.683" r="2.148"/><circle cx="46.7" cy="28.683" r="2.148"/><circle cx="29.514" cy="28.683" r="2.148"/></svg>