<svg xmlns="http://www.w3.org/2000/svg" width="45.301" height="45.301" viewBox="0 0 45.301 45.301">
  <g id="_31a27d6d550fbff85889b0fa30316afb" data-name="31a27d6d550fbff85889b0fa30316afb" transform="translate(-9.75 -9.75)">
    <g id="Group_55680" data-name="Group 55680" transform="translate(10 10)">
      <path id="Path_14147" data-name="Path 14147" d="M179.84-501.816a2.423,2.423,0,0,0-1.19,1.173l-.21.438v6.606c0,6.458.009,6.615.184,7a2.423,2.423,0,0,0,1.173,1.19l.437.21H195.24v3.194a26.26,26.26,0,0,0,.1,3.4.672.672,0,0,0,.849.324c.131-.053,1.776-1.636,3.649-3.509l3.413-3.413h1.348a9.454,9.454,0,0,0,1.706-.105,2.933,2.933,0,0,0,1.435-1.435c.079-.271.105-2.039.105-6.913v-6.554l-.21-.437a2.625,2.625,0,0,0-1.348-1.251c-.254-.079-3.6-.105-13.2-.105C180.347-502,180.234-501.991,179.84-501.816Zm26.426,1.391c.175.175.175.289.175,6.807,0,5.583-.017,6.659-.122,6.807s-.271.166-1.925.21l-1.8.044-2.975,2.975-2.975,2.975v-2.686c0-2.844-.026-3.036-.411-3.211-.149-.07-2.511-.1-8.12-.1-7.8,0-7.919,0-8.094-.175s-.175-.289-.175-6.825,0-6.65.175-6.825.289-.175,13.125-.175S206.09-500.6,206.265-500.425Z" transform="translate(-170.74 502)" fill="#222872" stroke="#222872" stroke-width="0.5"/>
      <path id="Path_14148" data-name="Path 14148" d="M423.44-332.86v.7h1.4v-1.4h-1.4Z" transform="translate(-410.54 341.26)" fill="#222872" stroke="#222872" stroke-width="0.5"/>
      <path id="Path_14149" data-name="Path 14149" d="M484.69-332.86v.7h1.4v-1.4h-1.4Z" transform="translate(-468.989 341.26)" fill="#222872" stroke="#222872" stroke-width="0.5"/>
      <path id="Path_14150" data-name="Path 14150" d="M545.94-332.86v.7h1.4v-1.4h-1.4Z" transform="translate(-527.439 341.26)" fill="#222872" stroke="#222872" stroke-width="0.5"/>
      <path id="Path_14151" data-name="Path 14151" d="M15.731-165.4a3.13,3.13,0,0,0-1.89,1.514l-.3.551-.026,10.824L13.5-141.682H10v2.406l1.6,1.6,1.592,1.593H51.607l1.6-1.6,1.593-1.593v-2.406H51.3l-.017-10.789-.026-10.78-.2-.429a3.066,3.066,0,0,0-2.179-1.759L48.5-165.5v1.391l.332.061a1.207,1.207,0,0,1,.945.718c.105.245.123,2.091.123,10.973v10.675H36.994l-.7.7-.7.7H29.207l-.7-.7-.7-.7H14.9v-10.675c0-8.882.017-10.728.123-10.973a1.209,1.209,0,0,1,.945-.718l.332-.061v-.682C16.3-165.544,16.309-165.544,15.731-165.4Zm12.163,25.822.7.7h7.612l.7-.7.7-.7H53.4v.192c0,.14-.376.577-1.2,1.4l-1.207,1.207H13.806l-1.2-1.2c-.84-.84-1.207-1.269-1.207-1.4v-.2H27.194Z" transform="translate(-10 180.883)" fill="#222872" stroke="#222872" stroke-width="0.5"/>
      <path id="Path_14152" data-name="Path 14152" d="M200.207-57.592a3.419,3.419,0,0,0-2.835,3.08,6.46,6.46,0,0,0,.7,4.419c.21.359.262.516.192.577-.061.044-1.1.647-2.31,1.339l-2.214,1.251v1.059a3.621,3.621,0,0,0,.858,2.861c.639.718.289.683,6.843.683s6.2.035,6.843-.683a3.621,3.621,0,0,0,.858-2.861v-1.059l-2.2-1.251c-1.216-.691-2.257-1.3-2.319-1.339-.07-.061-.017-.219.192-.577,1.2-2.03,1.05-5.224-.3-6.572A4.959,4.959,0,0,0,200.207-57.592Zm2.494,1.4a1.61,1.61,0,0,1,1.26.989,3.4,3.4,0,0,1,.262,1.514A4.633,4.633,0,0,1,203.3-50.2a2.033,2.033,0,0,1-1.864.831,2.034,2.034,0,0,1-1.864-.831,4.633,4.633,0,0,1-.919-3.491c.07-1.619.42-2.214,1.479-2.494A6.647,6.647,0,0,1,202.7-56.192Zm-2.616,7.954a3.458,3.458,0,0,0,2.966-.1l.446-.219,2.126,1.207,2.118,1.208v.77c0,.831-.166,1.409-.446,1.558-.21.114-11.5.114-11.708,0-.28-.149-.446-.726-.446-1.558v-.761l2.082-1.2a17.581,17.581,0,0,1,2.2-1.173C199.5-48.474,199.8-48.36,200.084-48.238Z" transform="translate(-185.34 78.023)" fill="#009eff" stroke="#009eff" stroke-width="0.5"/>
      <path id="Path_14153" data-name="Path 14153" d="M585.66,38.83v4.9h-9.1v1.4h10.5V33.93h-1.4Z" transform="translate(-550.66 -9.43)" fill="#222872" stroke="#222872" stroke-width="0.5"/>
      <path id="Path_14154" data-name="Path 14154" d="M607.18,65.27v.7h6.3v-1.4h-6.3v.7Z" transform="translate(-579.88 -38.669)" fill="#222872" stroke="#222872" stroke-width="0.5"/>
      <path id="Path_14155" data-name="Path 14155" d="M607.18,126.51v.7h6.3v-1.4h-6.3v.7Z" transform="translate(-579.88 -97.11)" fill="#222872" stroke="#222872" stroke-width="0.5"/>
      <path id="Path_14156" data-name="Path 14156" d="M607.18,187.76v.7h6.3v-1.4h-6.3v.7Z" transform="translate(-579.88 -155.56)" fill="#222872" stroke="#222872" stroke-width="0.5"/>
    </g>
  </g>
</svg>
