<svg xmlns="http://www.w3.org/2000/svg" width="46.286" height="54" viewBox="0 0 46.286 54">
  <g id="_9997016921594722070_1_" data-name="9997016921594722070 (1)" transform="translate(-4 -2)">
    <path id="Path_14275" data-name="Path 14275" d="M29.071,56H9.786A5.792,5.792,0,0,1,4,50.214V7.786A5.792,5.792,0,0,1,9.786,2H29.071a5.792,5.792,0,0,1,5.786,5.786v3.857a1.929,1.929,0,1,1-3.857,0V7.786a1.931,1.931,0,0,0-1.929-1.929H9.786A1.931,1.931,0,0,0,7.857,7.786V50.214a1.931,1.931,0,0,0,1.929,1.929H29.071A1.931,1.931,0,0,0,31,50.214V42.5a1.929,1.929,0,0,1,3.857,0v7.714A5.792,5.792,0,0,1,29.071,56Z" fill="#222872"/>
    <path id="Line_1" data-name="Line 1" d="M27.929,2.857h-27A1.929,1.929,0,0,1,.929-1h27a1.929,1.929,0,1,1,0,3.857Z" transform="translate(5 10.714)" fill="#222872"/>
    <path id="Line_2" data-name="Line 2" d="M27.929,2.857h-27A1.929,1.929,0,0,1,.929-1h27a1.929,1.929,0,1,1,0,3.857Z" transform="translate(5 41.571)" fill="#222872"/>
    <path id="Line_3" data-name="Line 3" d="M4.786,2.857H.929A1.929,1.929,0,0,1,.929-1H4.786a1.929,1.929,0,0,1,0,3.857Z" transform="translate(16.571 47.357)" fill="#222872"/>
    <path id="Path_14276" data-name="Path 14276" d="M17.714,26.429a1.923,1.923,0,0,1-1.364-.565l-5.786-5.786a1.929,1.929,0,0,1,0-2.727l5.786-5.786a1.929,1.929,0,1,1,2.727,2.727l-4.422,4.422,4.422,4.422a1.929,1.929,0,0,1-1.364,3.292Z" transform="translate(5.571 8.357)" fill="#009eff"/>
    <path id="Path_14277" data-name="Path 14277" d="M24.929,26.429a1.929,1.929,0,0,1-1.364-3.292l4.422-4.422-4.422-4.422a1.929,1.929,0,1,1,2.727-2.727l5.786,5.786a1.929,1.929,0,0,1,0,2.727l-5.786,5.786A1.923,1.923,0,0,1,24.929,26.429Z" transform="translate(17.643 8.357)" fill="#009eff"/>
    <path id="Line_4" data-name="Line 4" d="M.927,18.286A1.929,1.929,0,0,1-.8,15.495L6.918.066a1.929,1.929,0,0,1,3.45,1.725L2.654,17.22A1.929,1.929,0,0,1,.927,18.286Z" transform="translate(28.143 18.428)" fill="#009eff"/>
  </g>
</svg>
