<svg id="Group_7173" data-name="Group 7173" xmlns="http://www.w3.org/2000/svg" width="47.693" height="45.084" viewBox="0 0 47.693 45.084">
  <circle id="Ellipse_215" data-name="Ellipse 215" cx="2.484" cy="2.484" r="2.484" transform="translate(16.891 39.123)" fill="#009eff"/>
  <g id="Group_7173-2" data-name="Group 7173" transform="translate(3.602 30.18)">
    <circle id="Ellipse_216" data-name="Ellipse 216" cx="2.484" cy="2.484" r="2.484" transform="translate(22.232 8.942)" fill="#91d5ff"/>
    <circle id="Ellipse_217" data-name="Ellipse 217" cx="2.484" cy="2.484" r="2.484" transform="translate(0 0)" fill="#91d5ff"/>
  </g>
  <circle id="Ellipse_218" data-name="Ellipse 218" cx="2.484" cy="2.484" r="2.484" transform="translate(39.123 30.181)" fill="#009eff"/>
  <g id="Group_7174" data-name="Group 7174" transform="translate(0 0)">
    <path id="Path_5121" data-name="Path 5121" d="M46.64,182a3.979,3.979,0,0,0-3.974,3.974,6.176,6.176,0,0,0,.13,1.19.994.994,0,0,0,1.948-.392,4.25,4.25,0,0,1-.09-.8,1.989,1.989,0,0,1,1.987-1.987.994.994,0,0,0,0-1.987Z" transform="translate(-38.692 -166.35)" fill="#009eff"/>
    <path id="Path_5122" data-name="Path 5122" d="M416.994,194a.994.994,0,1,0,0,1.987,1.982,1.982,0,0,1,1.985,1.9.994.994,0,0,0,.992.953h.042a.994.994,0,0,0,.952-1.034A3.964,3.964,0,0,0,416.994,194Z" transform="translate(-377.25 -177.232)" fill="#009eff"/>
    <path id="Path_5123" data-name="Path 5123" d="M210.831,56.666a8.626,8.626,0,0,0-8,5.481.994.994,0,1,0,1.854.716,6.584,6.584,0,0,1,12.726,2.372.994.994,0,0,0,1.987,0A8.58,8.58,0,0,0,210.831,56.666Z" transform="translate(-183.88 -52.692)" fill="#009eff"/>
    <path id="Path_5124" data-name="Path 5124" d="M39.744,26.793q-.125,0-.251,0,0-.126,0-.252A12.546,12.546,0,0,0,15.6,21.194a6.221,6.221,0,0,0-7.2,4.494q-.228-.013-.456-.013A7.958,7.958,0,0,0,0,33.623a10.305,10.305,0,0,0,.246,2.157,4.875,4.875,0,0,0,4.74,3.8h6.44v6.086H9.418a3.478,3.478,0,1,0,0,1.987h3a.994.994,0,0,0,.994-.994V39.585h4.968v12.69a3.478,3.478,0,1,0,1.987,0V39.585h6.955v12.69a3.478,3.478,0,1,0,1.987,0V39.585h4.968v7.079a.994.994,0,0,0,.994.994h3a3.478,3.478,0,1,0,0-1.987H36.266V39.585h6.572a4.851,4.851,0,0,0,4.854-4.8v-.04A7.958,7.958,0,0,0,39.744,26.793ZM6.086,48.155a1.49,1.49,0,1,1,1.49-1.49A1.492,1.492,0,0,1,6.086,48.155Zm35.521-2.981a1.49,1.49,0,1,1-1.49,1.49A1.492,1.492,0,0,1,41.607,45.174ZM20.866,55.607a1.49,1.49,0,1,1-1.49-1.49A1.492,1.492,0,0,1,20.866,55.607Zm8.942,0a1.49,1.49,0,1,1-1.49-1.49A1.492,1.492,0,0,1,29.808,55.607Zm15.9-20.835A2.86,2.86,0,0,1,42.838,37.6H4.986a2.876,2.876,0,0,1-2.8-2.242,8.287,8.287,0,0,1-.2-1.733,5.966,5.966,0,0,1,7.048-5.863.994.994,0,0,0,1.169-.882,4.224,4.224,0,0,1,5.631-3.564.993.993,0,0,0,1.265-.576A10.559,10.559,0,0,1,37.434,27.8a.994.994,0,0,0,1.176,1.093,5.963,5.963,0,0,1,7.095,5.853v.03Z" transform="translate(0 -14)" fill="#222872"/>
  </g>
</svg>
