<svg xmlns="http://www.w3.org/2000/svg" width="49.218" height="49.218" viewBox="0 0 49.218 49.218">
  <g id="brainstorming" transform="translate(-1 -1)">
    <path id="Path_14329" data-name="Path 14329" d="M54.046,39.337a4.76,4.76,0,1,0-5.466.577A6.184,6.184,0,0,0,45.74,44.6l-.32,3.868H41.382a2.382,2.382,0,0,0,0,4.763h3.175V56.4h13.5v-11.3A6.171,6.171,0,0,0,54.046,39.337Zm-3.138-6.749a3.175,3.175,0,1,1-3.175,3.175A3.179,3.179,0,0,1,50.908,32.588Zm5.557,22.227H46.145V53.227h.275a3.949,3.949,0,0,0,3.953-3.61l.531-5.844-1.581-.144-.531,5.844A2.369,2.369,0,0,1,46.42,51.64H41.382a.794.794,0,1,1,0-1.588H45.42A1.581,1.581,0,0,0,47,48.6l.321-3.874a4.579,4.579,0,0,1,9.143.378Z" transform="translate(-7.834 -6.185)" fill="#222872"/>
    <path id="Path_14330" data-name="Path 14330" d="M17.671,48.464l-4.037.006L13.312,44.6a6.188,6.188,0,0,0-2.84-4.683,4.767,4.767,0,1,0-5.466-.577A6.171,6.171,0,0,0,1,45.106V56.4H14.5V53.227h3.175a2.382,2.382,0,0,0,0-4.763ZM8.145,32.588a3.175,3.175,0,1,1-3.175,3.175A3.179,3.179,0,0,1,8.145,32.588ZM17.671,51.64H12.632a2.369,2.369,0,0,1-2.371-2.166L9.73,43.63l-1.581.144.531,5.844a3.949,3.949,0,0,0,3.953,3.61h.275v1.588H2.588V45.106a4.58,4.58,0,0,1,9.143-.378l.321,3.88a1.579,1.579,0,0,0,1.581,1.444h4.038a.794.794,0,1,1,0,1.588Z" transform="translate(0 -6.185)" fill="#222872"/>
    <path id="Path_14331" data-name="Path 14331" d="M34.473,29.71c.083-.18.159-.361.227-.544l2.084-.57V24.209l-2.084-.57c-.068-.182-.144-.364-.227-.544l1.072-1.878-1.26-1.26a2.319,2.319,0,0,0,.117-.7,2.373,2.373,0,0,0-1.247-2.081L35.093,13.3a8.571,8.571,0,0,0,.832-2.776h1.2l2.831,4.719,2.619-4.366a.727.727,0,0,1,1.35.375v5.624h1.588V11.253a2.315,2.315,0,0,0-4.3-1.191l-1.257,2.1-1.932-3.22H35.962A8.5,8.5,0,0,0,27.49,1h-.464a8.5,8.5,0,0,0-8.472,7.938H16.489l-1.932,3.22-1.257-2.1A2.315,2.315,0,0,0,9,11.253v5.624h1.588V11.253a.727.727,0,0,1,1.35-.374l2.619,4.365,2.831-4.719h1.2a8.559,8.559,0,0,0,.832,2.776l1.938,3.876a2.373,2.373,0,0,0-1.247,2.081,2.328,2.328,0,0,0,.117.7l-1.26,1.26L20.043,23.1c-.083.18-.159.361-.227.544l-2.084.569V28.6l2.084.569c.068.183.144.364.227.544l-1.072,1.878,3.1,3.1,1.878-1.072c.18.083.361.159.544.227l.569,2.084h4.387l.569-2.084c.183-.068.364-.144.544-.227l1.878,1.072,3.1-3.1ZM30.434,26.4a3.175,3.175,0,1,1-6.217-.912,5.527,5.527,0,0,0,6.083,0A3.171,3.171,0,0,1,30.434,26.4ZM22.5,18.464h9.526a.794.794,0,1,1,0,1.588H22.5a.794.794,0,0,1,0-1.588Zm4.763,6.351a3.977,3.977,0,0,1-3.889-3.175h7.778A3.977,3.977,0,0,1,27.258,24.815ZM20.114,9.5a6.92,6.92,0,0,1,6.913-6.913h.464a6.914,6.914,0,0,1,6.183,10l-2.143,4.284H28.052V12.795a3.175,3.175,0,1,0-1.588,0v4.082H22.986l-2.143-4.284A6.957,6.957,0,0,1,20.114,9.5Zm7.145,1.819a1.588,1.588,0,1,1,1.588-1.588A1.589,1.589,0,0,1,27.258,11.32Zm4.919,21.391-1.571-.9-.386.2a6.339,6.339,0,0,1-1.088.454l-.417.129-.475,1.741H26.276L25.8,32.6l-.417-.129a6.337,6.337,0,0,1-1.089-.454l-.385-.2-1.57.9L20.95,31.321l.9-1.571-.2-.386a6.34,6.34,0,0,1-.454-1.088l-.129-.417-1.74-.475V25.421l1.741-.476.129-.417a6.336,6.336,0,0,1,.454-1.089l.2-.385-.9-1.57.238-.238a2.374,2.374,0,0,0,.556.261,5.529,5.529,0,0,0,1.214,2.854,4.763,4.763,0,1,0,8.6,0,5.533,5.533,0,0,0,1.215-2.854,2.389,2.389,0,0,0,.556-.261l.238.238-.9,1.57.2.385a6.374,6.374,0,0,1,.454,1.089l.129.417,1.741.476v1.964l-1.741.476-.129.417a6.329,6.329,0,0,1-.454,1.088l-.2.386.9,1.571Z" transform="translate(-1.649)" fill="#009eff"/>
    <path id="Path_14332" data-name="Path 14332" d="M53,27h1.588v1.588H53Z" transform="translate(-10.72 -5.36)" fill="#222872"/>
    <path id="Path_14333" data-name="Path 14333" d="M53,23h1.588v1.588H53Z" transform="translate(-10.72 -4.536)" fill="#222872"/>
    <path id="Path_14334" data-name="Path 14334" d="M9,27h1.588v1.588H9Z" transform="translate(-1.649 -5.36)" fill="#222872"/>
    <path id="Path_14335" data-name="Path 14335" d="M9,23h1.588v1.588H9Z" transform="translate(-1.649 -4.536)" fill="#222872"/>
  </g>
</svg>
