<svg xmlns="http://www.w3.org/2000/svg" width="35.978" height="37.49" viewBox="0 0 35.978 37.49">
  <g id="light-bulb_2_" data-name="light-bulb (2)" transform="translate(-9.8)">
    <path id="XMLID_49_" d="M32.063,32.762v1.1a1.737,1.737,0,0,1-1.473,1.72l-.27,1a1.239,1.239,0,0,1-1.2.918H26.447a1.239,1.239,0,0,1-1.2-.918l-.262-1a1.745,1.745,0,0,1-1.481-1.728v-1.1A1.054,1.054,0,0,1,24.565,31.7h6.441A1.065,1.065,0,0,1,32.063,32.762ZM37.023,18a9.189,9.189,0,0,1-2.592,6.41A8.469,8.469,0,0,0,32.163,29a1.527,1.527,0,0,1-1.512,1.288H24.92a1.512,1.512,0,0,1-1.5-1.281A8.563,8.563,0,0,0,21.132,24.4,9.235,9.235,0,1,1,37.023,18ZM28.831,12.4a1.042,1.042,0,0,0-1.041-1.041,6.672,6.672,0,0,0-6.665,6.665,1.041,1.041,0,0,0,2.083,0,4.588,4.588,0,0,1,4.582-4.582A1.037,1.037,0,0,0,28.831,12.4ZM27.789,5.732A1.042,1.042,0,0,0,28.831,4.69V1.041a1.041,1.041,0,1,0-2.083,0V4.69A1.042,1.042,0,0,0,27.789,5.732ZM15.532,17.989a1.042,1.042,0,0,0-1.041-1.041H10.841a1.041,1.041,0,1,0,0,2.083H14.49A1.037,1.037,0,0,0,15.532,17.989Zm29.205-1.041H41.088a1.041,1.041,0,1,0,0,2.083h3.649a1.041,1.041,0,0,0,0-2.083ZM17.653,26.66l-2.584,2.584a1.039,1.039,0,0,0,1.466,1.473l2.584-2.584a1.039,1.039,0,1,0-1.466-1.473ZM37.193,9.627a1.04,1.04,0,0,0,.733-.3L40.51,6.742a1.042,1.042,0,0,0-1.473-1.473L36.452,7.853a1.038,1.038,0,0,0,0,1.473A1.058,1.058,0,0,0,37.193,9.627Zm-19.54-.309a1.039,1.039,0,0,0,1.466-1.473L16.534,5.261a1.042,1.042,0,1,0-1.473,1.473ZM37.925,26.66a1.042,1.042,0,1,0-1.473,1.473l2.584,2.584A1.039,1.039,0,1,0,40.5,29.244Z" transform="translate(0)" fill="#fff"/>
  </g>
</svg>
