<svg xmlns="http://www.w3.org/2000/svg" xmlns:xlink="http://www.w3.org/1999/xlink" width="158.567" height="209.28" viewBox="281.546 -7.762 158.567 209.28" xmlns:v="https://vecta.io/nano"><path fill="#ff8308" d="M326.266-7.762h22.612c2.95 0 5.342 2.392 5.342 5.342v22.612c0 2.95-2.392 5.342-5.342 5.342h-22.612c-2.95 0-5.342-2.392-5.342-5.342V-2.42c0-2.95 2.391-5.342 5.342-5.342z"/><path d="M285.47-7.762h25.448c2.167-.002 3.926 1.753 3.928 3.92V21.61c.002 2.167-1.753 3.926-3.92 3.928H285.47c-2.167 0-3.924-1.757-3.924-3.924V-3.838c0-2.167 1.757-3.924 3.924-3.924zm39.878 38.934h25.448c2.167-.002 3.926 1.753 3.928 3.92v25.452c.002 2.167-1.753 3.926-3.92 3.928h-25.456c-2.167 0-3.924-1.757-3.924-3.924V35.096c0-2.167 1.757-3.924 3.924-3.924zm-39.878-.835h25.448c2.167-.002 3.926 1.753 3.928 3.92v25.452c.002 2.167-1.753 3.926-3.92 3.928H285.47c-2.167 0-3.924-1.757-3.924-3.924V34.261c0-2.167 1.757-3.924 3.924-3.924z" fill="#ffbe83"/><path d="M292.271 6.406l5.642 5.8 9.56-8.307M332.15 45.34l5.642 5.8 9.56-8.307m-55.08 1.672l5.642 5.8 9.56-8.307m22.997-35.592l5.642 5.8 9.56-8.307" fill="none" stroke="#fff" stroke-width="3"/><path d="M428.419 201.081c1.4-.281 5.188-3.226 8.272-11.356 1.762-4.645 6.729-28.6 0-30.28s-5.472 10.377-5.472 21.449c0 6.752-2.8 20.187-2.8 20.187zm-3.085 1.121c3.538-.236 2.8-36.03 3.084-44.44s1.963-39.815-2.8-44.862-9.673-.56-10.093 5.959c-.2 3.09.84 25.584 1.4 32.034s1.263 21.028 1.823 30.281 2.38 21.309 6.586 21.028zm-6.59.421s-7.856-15.5-9.813-27.478c-3.5-21.45-4.206-42.338.561-42.058s5.11 21.311 5.327 30.281c.561 23.271 6.029 37.852 6.029 37.852l-2.104 1.403z" fill="#ffbe83"/><path d="M424.614 199.819h-.523c0-4.774-.832-18.768-.841-18.909l.522-.032c.009.141.842 14.154.842 18.941zm5.237 1.151l-.484-.2c1.802-4.451 3.344-9.003 4.616-13.634 1.009-4.097 1.432-8.317 1.254-12.533l.522-.036c.182 4.272-.246 8.548-1.269 12.7-1.278 4.654-2.827 9.23-4.639 13.703z" fill="#e59742"/><path d="M422.25 181.174a1.051 1.051 0 0 0 2.102-.002 1.051 1.051 0 1 0-2.102.001zm12.196-6.45a1.052 1.052 0 1 0 2.104.002 1.052 1.052 0 1 0-2.104-.002zm-24.743-9.392a1.051 1.051 0 1 0 2.102 0 1.051 1.051 0 1 0-2.102 0z" fill="#fff"/><path fill="#03053f" d="M398.37 130.041V54.569c-.001-2.935-2.38-5.314-5.315-5.313h-41.454c-2.934-.001-5.314 2.377-5.315 5.311v74.62l52.084.854z"/><path fill="#ffd5b3" d="M393.234 195.205c.929-1.377 1.435-2.995 1.455-4.656 0-6.315-7.871-11.716-17.637-12.442V196.9h-4.465v-18.792c-9.764.724-17.636 6.126-17.636 12.441.012 1.526.443 3.019 1.244 4.317l-3.523 2.1a12.39 12.39 0 0 1-1.821-6.417c0-8.266 8.745-15.144 20.159-16.414v-27.144h7.616v27.145c11.414 1.269 20.161 8.148 20.161 16.414-.013 2.453-.749 4.848-2.115 6.886l-3.438-2.231z"/><path fill="#03053f" d="M347.485 150.666h48.67c2.549 0 4.615-1.726 4.615-3.853v-3.5c0-2.127-2.066-3.852-4.615-3.852h-48.67c-2.548 0-4.615 1.724-4.615 3.852v3.5c0 2.131 2.067 3.853 4.615 3.853z"/><path fill="#ff8308" d="M347.485 140.395h48.67c2.549 0 4.615-1.726 4.615-3.853v-3.5c0-2.127-2.066-3.852-4.615-3.852h-48.67c-2.548 0-4.615 1.724-4.615 3.852v3.5c0 2.123 2.067 3.853 4.615 3.853z"/><g fill="#7a3d0a"><path d="M400.42 197.033a4.86 4.86 0 0 0-4.859-4.859 4.86 4.86 0 0 0-4.859 4.859 4.86 4.86 0 0 0 4.859 4.859 4.86 4.86 0 0 0 4.859-4.859z"/><circle cx="375.071" cy="197.033" r="4.86"/></g><g fill="#0b113a"><path d="M338.991 116.776h50.072v12.017c0 6.505-5.274 11.779-11.779 11.779h-38.3a11.78 11.78 0 0 1-11.772-11.779v-.238c0-6.505 5.274-11.778 11.779-11.779z"/><path d="M327.938 126.062l-6.164 68.64h9.07s14.511-44.7 15.963-59.208-9.07-11.972-9.07-11.972l-9.799 2.54zm28.66 0l-6.167 68.639h9.073s14.511-44.7 15.963-59.208-9.07-11.972-9.07-11.972l-9.799 2.541z"/></g><path d="M321.952 194.701h8.889v6.817h-18.028c-1.19 0-1.6-2.672-.557-3.248l9.696-3.569zm28.479 0h8.888v6.817h-18.027c-1.191 0-1.6-2.672-.558-3.248l9.697-3.569z" fill="#ffbe83"/><path fill="#ff8308" d="M388.972 116.551H356.2L352.112 68a7.46 7.46 0 0 1 6.805-8.057l.625-.026h26.1c4.118 0 7.456 3.339 7.455 7.457a7.69 7.69 0 0 1-.026.626l-4.099 48.551z"/><path fill="#ffbe83" d="M374.654 62.939h-5.09c-1.678-.107-2.956-1.548-2.862-3.227v-6.274c-.095-1.679 1.183-3.121 2.862-3.228h5.092a3.06 3.06 0 0 1 2.864 3.228v6.274a3.06 3.06 0 0 1-2.866 3.227z"/><path fill="#ffd5b3" d="M362.418 54.723c4.6 5.557 9.5 2.306 15.063-2.295 5.557-4.602 6.331-12.838 1.729-18.395s-12.838-6.331-18.395-1.729h0c-5.56 4.601-2.997 16.862 1.603 22.419z"/><path d="M352.859 64.37l-15.557 26.745 12.1 5.135 9.639-15.828-6.182-16.052zm40.058-3.216a60.81 60.81 0 0 1 18.725 30.817c.948 2.03.218 5.266-1.909 5.967l-29.705 14.828-4.136-7 20.8-15.838-15.286-16.47.795-13.493s8.434-.794 10.716 1.189z" fill="#ff8308"/><g transform="translate(40.421 33.118)"><defs><path id="A" d="M348.551 83.433h-32.772l-4.088-48.551a7.46 7.46 0 0 1 6.805-8.057l.625-.026h26.1c4.118 0 7.456 3.339 7.455 7.457a7.69 7.69 0 0 1-.026.626l-4.099 48.551z"/></defs><clipPath id="B"><use xlink:href="#A"/></clipPath><g clip-path="url(#B)" fill="#fff"><path d="M352.767 58.373l-17.44 16.977-.365-.375 17.44-16.977zm5.201 12.4L337.99 81.235l-.243-.463 19.978-10.461z"/></g></g><path fill="#03053f" d="M329.888 112.557h51.155v4.335h-51.155z"/><path fill="#ffbe83" d="M380.569 112.681h-13.045l-.954-5.727h9.847c1.846 0 3.42 1.335 3.724 3.155l.428 2.572z"/><path fill="#03053f" d="M371 112.738h-41.076l-5.632-25.433h41.075L371 112.738z"/><path fill="#ffbe83" d="M349.543 100.706a2.7 2.7 0 1 1-5.4 0 2.7 2.7 0 0 1 5.4 0h0z"/><path fill="#0b113a" d="M381.373 47.624c-.417.922-3.481 1.194-2.67-1.448.993-3.23 1.06-8.116-2.536-7.44s-1.005 4.208-2.464 4.832-2.408-5.122-4.2-7.807-9.12.882-13 1.895-7.7-6.635 2.169-9.562c6.646-1.971 12.079-2.038 18.668 2.265 4.979 3.255 6.694 11.377 4.033 17.265z"/><path fill="#ffbe83" d="M297.926 178.765l-.325-45.543s7.931 4.847 6.458 11.409c-.707 3.146-1.871 5.254.313 7.876s3.2 4.322 2.986 7.38-3.736 4.066-3.3 7.56 2.676 6.086 2.279 8.211a9.8 9.8 0 0 1-5.024 6.772l-3.387-3.665z"/><defs><path id="C" d="M297.926 178.765l-.325-45.543s7.931 4.847 6.458 11.409c-.707 3.146-1.871 5.254.313 7.876s3.2 4.322 2.986 7.38-3.736 4.066-3.3 7.56 2.676 6.086 2.279 8.211a9.8 9.8 0 0 1-5.024 6.772l-3.387-3.665z"/></defs><clipPath id="D"><use xlink:href="#C"/></clipPath><g clip-path="url(#D)" fill="#e59742"><path d="M289.9 142.797h10.819v.402H289.9zm1.745 15.356h10.819v.402h-10.819zm-.698 16.751h10.819v.403h-10.819z"/></g><path fill="#ffbe83" d="M296.908 179.661v-59.7s-10.07 6.153-8.2 14.484c.9 3.994 2.376 6.672-.4 10s-4.069 5.488-3.792 9.37 4.744 5.161 4.189 9.6-4.829 8.483-2.89 10.423 6.378 8.6 6.378 8.6l4.715-2.777z"/><path fill="#af5d14" d="M285.895 178.264h21.687l-4.131 23.753h-13.425l-4.131-23.753z"/><defs><path id="E" d="M293.97 179.661v-59.7s-10.07 6.153-8.2 14.484c.9 3.994 2.376 6.672-.4 10s-4.069 5.488-3.792 9.37 4.744 5.161 4.189 9.6-4.829 8.483-2.89 10.423 6.378 8.6 6.378 8.6l4.715-2.777z"/></defs><clipPath id="F"><use xlink:href="#E"/></clipPath><g clip-path="url(#F)" fill="#e59742"><path d="M289.436 133.548h10.819v.403h-10.819zm-2.792 18.672h10.819v.402h-10.819zm2.792 18.846h10.819v.402h-10.819z"/></g></svg>