<svg xmlns="http://www.w3.org/2000/svg" xmlns:xlink="http://www.w3.org/1999/xlink" width="203.821" height="203.825" xmlns:v="https://vecta.io/nano"><path fill="#ff8308" d="M134.312 110.893H86.735s4.187-11.346 4.04-17.635c-.241-10.21-9.979-36.517-9.979-36.517-.532-5.156 4.448-9.579 10.785-9.579h37.883c6.338 0 11.321 4.423 10.788 9.579 0 0-9.864 29.473-10.03 39.766-.102 6.359 4.09 14.386 4.09 14.386z"/><path fill="#ffbe83" d="M22.993 43.725l3.865-8.3s-7.284-2.816-10.046 1.25c-3.462 5.099 6.181 7.05 6.181 7.05z"/><path fill="#ff8308" d="M100.867 57.987c-2.021 3.32-12.428 3.763-29.476 5.13s-19.941.808-21.827-.229-26.573-19.164-26.573-19.164l3.865-8.3 28.411 16.237s27.261-5.2 36.31-4.5c3.143.242 9.29 10.826 9.29 10.826z"/><path fill="#ffbe83" d="M196.037 43.725l-3.866-8.3s7.284-2.816 10.046 1.25c3.463 5.099-6.18 7.05-6.18 7.05z"/><path d="M118.162 57.987c2.021 3.32 12.427 3.763 29.476 5.13s19.943.808 21.825-.229 26.575-19.164 26.575-19.164l-3.866-8.3-28.412 16.235s-27.26-5.2-36.311-4.5c-3.138.244-9.287 10.828-9.287 10.828zm-31.427 52.905h47.576s12.658 24.221.784 27.614c-12.995 3.713-34.112 3.48-46.641.464-14.664-3.531-1.719-28.078-1.719-28.078z" fill="#ff8308"/><g transform="translate(6.931 35.426)" opacity=".15"><defs><path id="A" d="M185.236 0l-28.412 16.235s-27.261-5.2-36.311-4.5H84.65c-9.049-.7-36.31 4.5-36.31 4.5L19.927 0l-3.865 8.3 26.573 19.164c1.884 1.035 4.781 1.6 21.827.229l11.348-.9c2.853 8.271 7.862 23.752 8.034 31.039.148 6.289-4.04 17.635-4.04 17.635h47.576s-4.192-8.027-4.089-14.386c.121-7.469 5.348-25.036 8.2-34.113l9.211.724c17.047 1.367 19.942.808 21.825-.229s26.575-19.164 26.575-19.164L185.236 0z"/><path id="B" d="M31.213 42.133l-2.003 2.003-13.433-13.433 2.003-2.003z"/><path id="C" d="M119.601 19.142l-13.433 13.433-2.003-2.003 13.433-13.433z"/><path id="D" d="M139.175 19.146l-13.431 13.431-2.003-2.003 13.431-13.431z"/></defs><clipPath id="E"><use xlink:href="#A"/></clipPath><g clip-path="url(#E)" fill="#425ac2"><path d="M31.213-3.903L29.21-1.9 15.776-15.333l2.003-2.003z"/><path d="M31.149-3.855L17.717 9.577l-2.003-2.003L29.146-5.859z"/><path d="M31.213 19.095l-2.003 2.003L15.777 7.664l2.003-2.003z"/><path d="M31.149 19.143L17.717 32.575l-2.003-2.003 13.433-13.433z"/><use xlink:href="#B"/><path d="M31.149 42.181L17.717 55.613l-2.003-2.003 13.433-13.433z"/><path d="M31.213 65.13l-2.003 2.003-13.433-13.433 2.003-2.003z"/><path d="M31.149 65.178L17.717 78.61l-2.003-2.003 13.433-13.433zM41-3.902l-2.003 2.003-13.433-13.433 2.003-2.003z"/><path d="M40.936-3.851L27.505 9.58l-2.003-2.003L38.932-5.854z"/><path d="M41 19.095l-2.003 2.003L25.564 7.664l2.003-2.003z"/><path d="M40.936 19.146L27.505 32.577l-2.003-2.003 13.431-13.431z"/><path d="M41 42.133l-2.003 2.003-13.433-13.433 2.003-2.003z"/><path d="M40.936 42.184L27.505 55.615l-2.003-2.003 13.431-13.431z"/><path d="M41 65.131l-2.003 2.003L25.564 53.7l2.003-2.003z"/><path d="M40.936 65.181L27.505 78.612l-2.003-2.003 13.431-13.431zm9.851-69.085l-2.003 2.003L35.35-15.334l2.003-2.003z"/><path d="M50.723-3.852L37.292 9.579l-2.003-2.003L48.719-5.855z"/><path d="M50.787 19.095l-2.003 2.003L35.351 7.664l2.003-2.003z"/><path d="M50.723 19.145L37.292 32.576l-2.003-2.003 13.431-13.431z"/><path d="M50.787 42.133l-2.003 2.003-13.433-13.433 2.003-2.003z"/><path d="M50.723 42.184L37.292 55.615l-2.003-2.003 13.431-13.431z"/><path d="M50.787 65.13l-2.003 2.003-13.433-13.433 2.003-2.003z"/><path d="M50.723 65.181L37.292 78.612l-2.003-2.003L48.72 63.178zm9.85-69.084L58.57-1.899 45.136-15.333l2.003-2.003z"/><path d="M60.509-3.854L47.077 9.578l-2.003-2.003L58.506-5.858z"/><path d="M60.573 19.095l-2.003 2.003L45.137 7.664l2.003-2.003z"/><path d="M60.509 19.143L47.077 32.575l-2.003-2.003 13.433-13.433z"/><path d="M60.573 42.133l-2.003 2.003-13.433-13.433 2.003-2.003z"/><path d="M60.509 42.181L47.077 55.613l-2.003-2.003 13.433-13.433z"/><path d="M60.573 65.131l-2.003 2.003L45.137 53.7l2.003-2.003z"/><path d="M60.509 65.178L47.077 78.61l-2.003-2.003 13.433-13.433zm9.85-69.082l-2.003 2.003-13.433-13.433 2.003-2.003z"/><path d="M70.296-3.855L56.864 9.577 54.86 7.574 68.293-5.859z"/><path d="M70.359 19.094l-2.003 2.003L54.923 7.665l2.003-2.003z"/><path d="M70.296 19.142L56.864 32.574l-2.003-2.003 13.433-13.433z"/><path d="M70.359 42.132l-2.003 2.003-13.433-13.433 2.003-2.003z"/><path d="M70.296 42.181L56.864 55.613 54.86 53.61l13.433-13.433z"/><path d="M70.359 65.129l-2.003 2.003L54.923 53.7l2.003-2.003z"/><path d="M70.296 65.178L56.864 78.61l-2.003-2.003 13.433-13.433zm9.851-69.081L78.144-1.9 64.71-15.333l2.003-2.003z"/><path d="M80.083-3.854L66.651 9.578l-2.003-2.003L78.08-5.858z"/><path d="M80.147 19.095l-2.003 2.003L64.711 7.664l2.003-2.003z"/><path d="M80.083 19.143L66.651 32.575l-2.003-2.003L78.08 17.139z"/><path d="M80.147 42.133l-2.003 2.003-13.433-13.433 2.003-2.003z"/><path d="M80.083 42.181L66.651 55.613l-2.003-2.003L78.08 40.177z"/><path d="M80.147 65.131l-2.003 2.003L64.711 53.7l2.003-2.003z"/><path d="M80.083 65.178L66.651 78.61l-2.003-2.003L78.08 63.174zm9.851-69.081L87.931-1.9 74.498-15.333l2.003-2.003z"/><path d="M89.87-3.854L76.438 9.578l-2.003-2.003L87.867-5.858z"/><path d="M89.934 19.095l-2.003 2.003L74.498 7.664l2.003-2.003z"/><path d="M89.87 19.143L76.438 32.575l-2.003-2.003 13.433-13.433z"/><path d="M89.934 42.133l-2.003 2.003-13.433-13.433 2.003-2.003z"/><path d="M89.87 42.181L76.438 55.613l-2.003-2.003 13.433-13.433z"/><path d="M89.934 65.131l-2.003 2.003L74.498 53.7l2.003-2.003z"/><path d="M89.87 65.178L76.438 78.61l-2.003-2.003 13.433-13.433zm9.85-69.082l-2.003 2.003-13.433-13.433 2.003-2.003z"/><path d="M99.656-3.855L86.224 9.577 84.22 7.574 97.653-5.859z"/><path d="M99.72 19.095l-2.003 2.003L84.284 7.664l2.003-2.003z"/><path d="M99.657 19.14L86.224 32.574l-2.003-2.003 13.433-13.433z"/><path d="M99.72 42.133l-2.003 2.003-13.433-13.433 2.003-2.003z"/><path d="M99.657 42.179L86.224 55.613l-2.003-2.003 13.433-13.433z"/><path d="M99.72 65.13l-2.003 2.003-13.433-13.433 2.003-2.003z"/><path d="M99.656 65.178L86.224 78.61l-2.003-2.003 13.433-13.433zm9.85-69.082l-2.003 2.003L94.07-15.334l2.003-2.003z"/><path d="M109.443-3.855L96.011 9.577l-2.003-2.003L107.44-5.859z"/><path d="M109.506 19.094l-2.003 2.003L94.07 7.665l2.003-2.003z"/><path d="M109.443 19.142L96.011 32.574l-2.003-2.003 13.433-13.433z"/><path d="M109.506 42.132l-2.003 2.003L94.07 30.703l2.003-2.003z"/><path d="M109.443 42.181L96.011 55.613l-2.003-2.003 13.433-13.433z"/><path d="M109.506 65.129l-2.003 2.003L94.07 53.7l2.003-2.003z"/><path d="M109.443 65.178L96.011 78.61l-2.003-2.003 13.433-13.433zm10.221-69.082l-2.003 2.003-13.433-13.433 2.003-2.003z"/><path d="M119.601-3.855L106.169 9.577l-2.003-2.003 13.433-13.433z"/><path d="M119.664 19.094l-2.003 2.003-13.433-13.433 2.003-2.003z"/><use xlink:href="#C"/><path d="M119.664 42.132l-2.003 2.003-13.433-13.433 2.003-2.003z"/><path d="M119.601 42.181l-13.433 13.433-2.003-2.003 13.433-13.433z"/><path d="M119.665 65.129l-2.003 2.003L104.229 53.7l2.003-2.003z"/><path d="M119.601 65.178L106.169 78.61l-2.003-2.003 13.433-13.433zm9.85-69.082l-2.003 2.003-13.433-13.433 2.003-2.003z"/><path d="M129.388-3.855L115.956 9.577l-2.003-2.003 13.433-13.433z"/><path d="M129.452 19.095l-2.003 2.003-13.433-13.433 2.003-2.003z"/><path d="M129.388 19.142l-13.433 13.433-2.003-2.003 13.433-13.433z"/><path d="M129.452 42.133l-2.003 2.003-13.433-13.433 2.003-2.003z"/><path d="M129.388 42.181l-13.433 13.433-2.003-2.003 13.433-13.433z"/><path d="M129.451 65.129l-2.003 2.003L114.015 53.7l2.003-2.003z"/><path d="M129.388 65.178L115.956 78.61l-2.003-2.003 13.433-13.433zm9.851-69.081L137.236-1.9l-13.433-13.433 2.003-2.003z"/><path d="M139.175-3.852L125.744 9.579l-2.003-2.003 13.431-13.431z"/><path d="M139.239 19.095l-2.003 2.003-13.433-13.433 2.003-2.003z"/><use xlink:href="#D"/><path d="M139.239 42.133l-2.003 2.003-13.433-13.433 2.003-2.003z"/><path d="M139.175 42.184l-13.431 13.431-2.003-2.003 13.431-13.431z"/><path d="M139.239 65.131l-2.003 2.003L123.803 53.7l2.003-2.003z"/><path d="M139.175 65.181l-13.431 13.431-2.003-2.003 13.431-13.431zm9.849-69.085l-2.003 2.003-13.433-13.433 2.003-2.003z"/><path d="M148.961-3.852L135.53 9.579l-2.003-2.003 13.431-13.431z"/><path d="M149.024 19.094l-2.003 2.003-13.433-13.433 2.003-2.003z"/><path d="M148.961 19.145L135.53 32.576l-2.003-2.003 13.431-13.431z"/><path d="M149.024 42.132l-2.003 2.003-13.433-13.433 2.003-2.003z"/><path d="M148.961 42.184L135.53 55.615l-2.003-2.003 13.431-13.431z"/><path d="M149.024 65.129l-2.003 2.003L133.588 53.7l2.003-2.003z"/><path d="M148.961 65.181L135.53 78.612l-2.003-2.003 13.431-13.431zm9.851-69.085l-2.003 2.003-13.433-13.433 2.003-2.003z"/><path d="M158.75-3.856L145.316 9.578l-2.003-2.003 13.433-13.433z"/><path d="M158.812 19.094l-2.003 2.003-13.433-13.433 2.003-2.003z"/><path d="M158.75 19.141l-13.433 13.433-2.003-2.003 13.433-13.433z"/><path d="M158.812 42.132l-2.003 2.003-13.433-13.433 2.003-2.003z"/><path d="M158.75 42.18l-13.433 13.433-2.003-2.003 13.433-13.433z"/><path d="M158.812 65.129l-2.003 2.003L143.376 53.7l2.003-2.003z"/><path d="M158.75 65.176L145.316 78.61l-2.003-2.003 13.433-13.433zm9.848-69.08l-2.003 2.003-13.433-13.433 2.003-2.003z"/><path d="M168.535-3.852L155.104 9.579l-2.003-2.003 13.431-13.431z"/><path d="M168.598 19.094l-2.003 2.003-13.433-13.433 2.003-2.003z"/><path d="M168.535 19.145l-13.431 13.431-2.003-2.003 13.431-13.431z"/><path d="M168.598 42.132l-2.003 2.003-13.433-13.433 2.003-2.003z"/><path d="M168.535 42.184l-13.431 13.431-2.003-2.003 13.431-13.431z"/><path d="M168.598 65.129l-2.003 2.003L153.162 53.7l2.003-2.003z"/><path d="M168.535 65.181l-13.431 13.431-2.003-2.003 13.431-13.431zm9.851-69.084L176.383-1.9 162.95-15.333l2.003-2.003z"/><path d="M178.322-3.851L164.891 9.58l-2.003-2.003 13.431-13.431z"/><path d="M178.386 19.095l-2.003 2.003L162.95 7.664l2.003-2.003z"/><path d="M178.322 19.146l-13.431 13.431-2.003-2.003 13.431-13.431z"/><path d="M178.386 42.133l-2.003 2.003-13.433-13.433 2.003-2.003z"/><path d="M178.322 42.184l-13.431 13.431-2.003-2.003 13.431-13.431z"/><path d="M178.386 65.131l-2.003 2.003L162.95 53.7l2.003-2.003z"/><path d="M178.322 65.181l-13.431 13.431-2.003-2.003 13.431-13.431zm9.85-69.084L186.169-1.9l-13.433-13.433 2.003-2.003z"/><path d="M188.108-3.852L174.677 9.579l-2.003-2.003 13.431-13.431z"/><path d="M188.172 19.095l-2.003 2.003-13.433-13.433 2.003-2.003z"/><path d="M188.108 19.146l-13.431 13.431-2.003-2.003 13.431-13.431z"/><path d="M188.172 42.133l-2.003 2.003-13.433-13.433 2.003-2.003z"/><path d="M188.108 42.184l-13.431 13.431-2.003-2.003 13.431-13.431z"/><path d="M188.172 65.131l-2.003 2.003L172.736 53.7l2.003-2.003z"/><path d="M188.108 65.181l-13.431 13.431-2.003-2.003 13.431-13.431zm9.852-69.085l-2.003 2.003-13.433-13.433 2.003-2.003z"/><path d="M197.897-3.855L184.463 9.579l-2.003-2.003 13.433-13.433z"/><path d="M197.96 19.095l-2.003 2.003-13.433-13.433 2.003-2.003z"/><path d="M197.897 19.142l-13.433 13.433-2.003-2.003 13.433-13.433z"/><path d="M197.96 42.133l-2.003 2.003-13.433-13.433 2.003-2.003z"/><path d="M197.897 42.18l-13.433 13.433-2.003-2.003 13.433-13.433z"/><path d="M197.96 65.13l-2.003 2.003-13.433-13.433 2.003-2.003z"/><path d="M197.897 65.176L184.463 78.61l-2.003-2.003 13.433-13.433z"/></g></g><path fill="#111a47" d="M51.791 112.172c-.508-7.365 13.574-9.745 20.884-6.265s33.762 22.973 40.723 28.194 21.581 18.444 21.581 18.444l-9.049 11.833s-34.46-20.884-50.818-28.192-22.625-13.923-23.321-24.014z"/><path fill="#0b113a" d="M171.769 111.219c.508-7.365-13.574-9.745-20.884-6.265s-33.761 22.965-40.724 28.191-21.58 18.447-21.58 18.447l9.05 11.833s34.458-20.884 50.817-28.192 22.625-13.923 23.321-24.014z"/><path d="M87.628 152.545l9.05 11.833s-2.424 16.824-7.065 17.752-5.8-15.778-6.729-21.347 4.744-8.238 4.744-8.238zm48.142.953l-9.049 11.833s2.424 16.824 7.064 17.752 5.8-15.778 6.729-21.347-4.744-8.238-4.744-8.238zm-25.475-99.643c8.427 0 8.377-5.729 8.377-7.107v-9.325c0-2.111-3.149-1.934-5.025-1.934h-6.033c-1.873 0-5.024 1.712-5.024 3.824v7.436c0 1.364.886 7.106 7.705 7.106z" fill="#ffbe83"/><path fill="#ffd5b3" d="M105.379 42.224c6.178 4.941 10.719.359 15.659-5.819 4.898-6.213 3.832-15.22-2.381-20.118a14.33 14.33 0 0 0-19.992 2.223c-4.938 6.178.539 18.773 6.714 23.714z"/><g transform="translate(80.691 12.811)"><defs><path id="F" d="M24.688 29.414c6.178 4.941 10.719.359 15.659-5.819s5.5-15.71-.682-20.651S22.916-.478 17.973 5.7s.54 18.773 6.715 23.714z"/></defs><clipPath id="G"><use xlink:href="#F"/></clipPath><g clip-path="url(#G)"><path fill="#0b113a" d="M15.768 22.204s3.422-13.11 7.366-15.43 5.251 2.127 6.787 2.262c1.454.128 2.611-3.323 5.221-2.61 7.659 2.087 9.166 20.651 9.166 20.651s9.05-27.613-9.513-31.326-21.811 9.282-21.58 12.3 2.553 14.153 2.553 14.153z"/></g></g><path fill="#0b113a" d="M109.918 15.233c-2.262-1.218-7.483-8.876-4-13.226 2.62-3.271 10.334-2.6 10.965 2.437.7 5.57-2.61 10.964-3.829 11.66s-3.136-.871-3.136-.871z"/><g fill="#ffbe83"><path d="M140.841 200.049c0 2.085-2.494 3.775-5.569 3.775H83.756c-3.076 0-5.567-1.69-5.567-3.775h0c0-2.086 2.492-3.775 5.567-3.775h51.515c3.075 0 5.569 1.689 5.569 3.775h.001z" opacity=".3"/><path d="M191.298 173.681l-.422-59.054s10.284 6.285 8.374 14.794c-.916 4.08-2.426 6.813.406 10.213s4.155 5.6 3.872 9.57-4.844 5.272-4.278 9.8 3.469 7.892 2.955 10.647a12.71 12.71 0 0 1-6.514 8.781l-4.393-4.751z"/></g><defs><path id="H" d="M191.298 173.681l-.422-59.054s10.284 6.285 8.374 14.794c-.916 4.08-2.426 6.813.406 10.213s4.155 5.6 3.872 9.57-4.844 5.272-4.278 9.8 3.469 7.892 2.955 10.647a12.71 12.71 0 0 1-6.514 8.781l-4.393-4.751z"/></defs><clipPath id="I"><use xlink:href="#H"/></clipPath><g clip-path="url(#I)" fill="#e59742"><path d="M180.892 127.037h14.028v.521h-14.028zm2.262 19.911h14.028v.521h-14.028zm-.905 21.721h14.028v.522h-14.028z"/></g><path fill="#ffbe83" d="M189.98 174.837V97.431s-13.057 7.978-10.63 18.78c1.163 5.179 3.08 8.651-.515 12.965s-5.276 7.116-4.917 12.15 6.151 6.692 5.431 12.444-6.267 11-3.752 13.517 8.27 11.147 8.27 11.147l6.113-3.597z"/><path fill="#af5d14" d="M175.7 173.025h28.121l-5.356 30.8h-17.408l-5.357-30.8z"/><defs><path id="J" d="M186.17 174.837V97.431s-13.057 7.978-10.63 18.78c1.163 5.179 3.08 8.651-.515 12.965s-5.276 7.116-4.917 12.15 6.151 6.692 5.431 12.444-6.267 11-3.752 13.517 8.27 11.147 8.27 11.147l6.113-3.597z"/></defs><clipPath id="K"><use xlink:href="#J"/></clipPath><g clip-path="url(#K)" fill="#e59742"><path d="M180.29 115.045h14.028v.522H180.29zm-3.62 24.21h14.029v.521H176.67zm3.62 24.437h14.028v.521H180.29z"/></g><path d="M23.886 132.737h1.799v43.642h-1.799zm-8.099 4.498h1.799v43.642h-1.799zm16.647 3.15h1.8v43.642h-1.8z" fill="#ffd5b3"/><path fill="#af5d14" d="M39.732 168.28H8.959c1.235 2.249 2.998 4.164 5.139 5.579v29.964h20.481v-29.964c2.133-1.412 4.576-2.865 5.153-5.579z"/><defs><path id="L" d="M36.561 168.28h-27.6c1.235 2.249 2.998 4.164 5.139 5.579v29.964h17.323v-29.964c2.141-1.415 3.904-3.33 5.138-5.579z"/></defs><clipPath id="M"><use xlink:href="#L"/></clipPath><g clip-path="url(#M)"><path fill="#fff" d="M11.287 173.956h33.519v.346H11.287z"/></g><path d="M33.484 116.69c-3.149-6.749-13.143-7.706-17.547.749-3.749 7.2-12.654 4.668-15.148 11.4-4.5 12.148 11.406 16.8 18.147 10.5 4.65-4.348 10.569-1.761 15.748 2.4 8.4 6.749 21.446-7.649 13.2-14.4-6.405-5.239-10.52-2.334-14.4-10.649zm-22.848 36.894c-1.471 1.233.376 4.516 4.063 3.838s5.568-2.408 3.537-4.29-4.816-1.88-7.6.452zm10.543-6.76c2.513-4.607 6.365-.747 8.766.427 4.81 2.352 5.592-.73 8.124.535 2.565 1.283 1.5 4.6-3.956 5.558-4.737.836-15.5-1.817-12.934-6.52z" fill="#ffbe83"/></svg>