<svg xmlns="http://www.w3.org/2000/svg" xmlns:xlink="http://www.w3.org/1999/xlink" width="133.734" height="217.034" viewBox="496.087 -20.65 133.734 217.034" xmlns:v="https://vecta.io/nano"><style><![CDATA[.B{fill:#ffbe83}.C{fill:#ffd5b3}.D{fill:#ff8308}.E{fill:#af5d14}]]></style><path d="M526.039 107.035h2.256v54.712h-2.256zm-10.153 5.64h2.256v54.712h-2.256zm20.87 3.949h2.256v54.712h-2.256z" class="C"/><path d="M541.931 151.595h-34.6c1.548 2.82 3.759 5.22 6.442 6.994v37.565h21.72v-37.565c2.682-1.774 4.891-4.175 6.438-6.994z" class="E"/><defs><path id="A" d="M541.931 151.595h-34.6c1.548 2.82 3.759 5.22 6.442 6.994v37.565h21.72v-37.565c2.682-1.774 4.891-4.175 6.438-6.994z"/></defs><clipPath id="B"><use xlink:href="#A"/></clipPath><g clip-path="url(#B)"><path fill="#fff" d="M510.246 158.711h42.021v.433h-42.021z"/></g><path d="M629.26 171.336l.351-49.071s-8.545 5.222-6.958 12.293c.761 3.39 2.016 5.661-.337 8.486s-3.452 4.657-3.218 7.952 4.025 4.38 3.555 8.146-2.883 6.558-2.455 8.847c.612 3.125 2.601 5.807 5.413 7.3l3.649-3.953z" class="B"/><defs><path id="C" d="M629.26 171.336l.351-49.071s-8.545 5.222-6.958 12.293c.761 3.39 2.016 5.661-.337 8.486s-3.452 4.657-3.218 7.952 4.025 4.38 3.555 8.146-2.883 6.558-2.455 8.847c.612 3.125 2.601 5.807 5.413 7.3l3.649-3.953z"/></defs><use xlink:href="#C" class="B"/><clipPath id="D"><use xlink:href="#C"/></clipPath><g clip-path="url(#D)" class="B"><path d="M626.251 132.577h11.657v.433h-11.657zm-1.879 16.546h11.657v.433h-11.657zm.751 18.049h11.657v.434h-11.657z"/></g><path d="M538.067 86.92c-3.948-8.461-16.477-9.661-22 .939-4.7 9.025-15.864 5.852-18.99 14.29-5.64 15.229 14.3 21.067 22.75 13.161 5.829-5.451 13.25-2.208 19.742 3.009 10.529 8.46 26.887-9.589 16.545-18.051-8.019-6.568-13.178-2.926-18.047-13.348zm59.007 84.038l.385-53.771s-9.365 5.723-7.624 13.47c.834 3.714 2.209 6.2-.37 9.3s-3.783 5.1-3.525 8.714 4.411 4.8 3.895 8.927-3.16 7.185-2.69 9.695a11.57 11.57 0 0 0 5.931 7.994l3.998-4.329z" class="B"/><defs><path id="E" d="M597.074 170.958l.385-53.771s-9.365 5.723-7.624 13.47c.834 3.714 2.209 6.2-.37 9.3s-3.783 5.1-3.525 8.714 4.411 4.8 3.895 8.927-3.16 7.185-2.69 9.695a11.57 11.57 0 0 0 5.931 7.994l3.998-4.329z"/></defs><clipPath id="F"><use xlink:href="#E"/></clipPath><g clip-path="url(#F)" fill="#e59742"><path d="M593.778 128.508h12.773v.434h-12.773zm-1.236 37.907h12.773v.434h-12.773z"/></g><path d="M615.155 172.297v-64.322s-10.85 6.629-8.834 15.606c.967 4.3 2.56 7.188-.428 10.774s-4.384 5.913-4.086 10.1 5.111 5.56 4.513 10.34-5.208 9.141-3.118 11.232 6.872 9.262 6.872 9.262l5.081-2.992z" class="B"/><path d="M606.455 170.791h23.367l-4.451 25.593h-14.465l-4.451-25.593z" class="E"/><path d="M573.634 127.343c0-10.733 24.573-6.6 32.2-37.153 6.161-24.676-.826-27.245-.826-27.245h-72.851s-7.462 2.691-.826 27.245c8.256 30.549 32.2 26.42 32.2 37.153 0 14.037-23.118 6.605-32.2 37.154-7.247 24.379.826 27.245.826 27.245h72.852s6.985-2.569.826-27.245c-6.802-27.246-32.201-23.118-32.201-37.154z" class="C"/><path d="M607.547 76.91h-78.41c-4.28 0-7.749-2.943-7.749-6.571v-5.414c0-3.629 3.469-6.571 7.749-6.571h78.41c4.28 0 7.75 2.942 7.75 6.571v5.412c0 3.63-3.471 6.573-7.75 6.573z" class="B"/><g fill="#0b113a"><path d="M589.372 45.146h-31.207v7.489c0 4.054 2.546 5.878 6.6 5.878h23.864c4.054 0 8.081-1.824 8.081-5.878v-.149c-.001-4.053-3.286-7.339-7.338-7.34z"/><path d="M596.387 51.504l3.717 42.206h-5.652s-7.918-25.339-8.822-34.382 4.527-9.978 4.527-9.978l6.23 2.154zm-17.988-.571l3.844 42.778h-5.652s-8.314-27.457-9.218-36.5 4.922-7.86 4.922-7.86l6.104 1.582z"/></g><path d="M599.991 93.71h-5.54v4.248h11.235c.742 0 1-1.666.347-2.024l-6.042-2.224zm-17.748 0h-5.54v4.248h11.234c.742 0 1-1.666.347-2.024l-6.041-2.224z" class="B"/><path d="M558.173 45.434h23.288l2.907-34.5a5.3 5.3 0 0 0-4.838-5.724l-.442-.019h-18.543a5.3 5.3 0 0 0-5.299 5.301l.019.442 2.908 34.5z" class="D"/><path d="M568.347 7.338h3.617c1.191-.078 2.097-1.1 2.031-2.292V.588c.067-1.194-.842-2.217-2.035-2.293h-3.613c-1.193.076-2.102 1.099-2.035 2.293v4.458c-.067 1.193.842 2.217 2.035 2.292z" class="B"/><path d="M578.833-1.71c-1.453 4.916-5.565 4.164-10.481 2.71s-7.725-6.617-6.272-11.534 6.617-7.725 11.534-6.272h0c4.916 1.454 6.671 10.178 5.219 15.096z" class="C"/><path d="M583.834 8.356l11.055 19-8.6 3.648-6.846-11.247 4.391-11.401zm-28.465-2.284a43.2 43.2 0 0 0-13.3 21.9c-.679 1.439-.16 3.739 1.351 4.239l21.11 10.535 2.94-4.974-14.779-11.254 10.857-11.707-.563-9.586s-5.994-.564-7.616.847z" class="D"/><g transform="translate(59.152 25.429)"><defs><path id="G" d="M499.021 20.005h23.288l2.907-34.5a5.3 5.3 0 0 0-4.838-5.724l-.442-.019h-18.543a5.3 5.3 0 0 0-5.299 5.301l.019.442 2.908 34.5z"/></defs><clipPath id="H"><use xlink:href="#G"/></clipPath><g clip-path="url(#H)" fill="#eff4ff"><path d="M508.703 13.982l-.303.311-12.391-12.067.303-.311zm-1.987 4.126l-.202.383-14.181-7.457.202-.383z"/></g></g><path d="M563.806 42.597h36.35v3.081h-36.35z" class="E"/><path d="M564.144 42.684h9.269l.678-4.07h-7a2.68 2.68 0 0 0-2.646 2.241l-.301 1.829z" class="C"/><path d="M570.944 42.728h29.187l4-18.072h-29.187l-4 18.072z" class="B"/><path fill="#f7fdff" d="M586.189 34.175c0 1.061.861 1.922 1.922 1.922s1.922-.861 1.922-1.922-.861-1.922-1.922-1.922h0a1.92 1.92 0 0 0-1.922 1.922z"/><path d="M534.312 179.232c-.941-2.632 2.726-16.028 3.854-18.472s27.916-18.754 29.989-18.567 27.591 13.632 30.787 19.271 3.808 17.767 3.808 17.767l-68.438.001z" class="D"/><path d="M607.547 196.712h-78.41c-4.28 0-7.749-2.941-7.749-6.57v-5.41c0-3.629 3.469-6.571 7.749-6.571h78.41c4.28 0 7.75 2.942 7.75 6.571v5.412c0 3.627-3.471 6.568-7.75 6.568z" class="B"/><path d="M568.624 119.726c-1.268 0-11-5.357-16.5-9.306s-4.23-5.641-2.115-6.347 39.624-.423 41.176 1.129-7.192 6.769-11 9.447c-2.784 1.962-9.164 5.077-11.561 5.077z" class="D"/><path fill="#0b113a" d="M564.465-1.051c.53.486 2.608-.193 1.339-1.692-1.551-1.833-2.961-5.007-.423-5.571s1.835 2.468 2.962 2.468.141-4.019.564-6.275 6.2-1.974 9.024-2.4 3.173-6.487-4.089-5.641c-4.892.57-8.461 2.044-11.563 6.7-2.348 3.525-1.199 9.31 2.186 12.411z"/><defs><path id="I" d="M615.155 172.297v-64.322s-10.85 6.629-8.834 15.606c.967 4.3 2.56 7.188-.428 10.774s-4.384 5.913-4.086 10.1 5.111 5.56 4.513 10.34-5.208 9.141-3.118 11.232 6.872 9.262 6.872 9.262l5.081-2.992z"/></defs><clipPath id="J"><use xlink:href="#I"/></clipPath><g clip-path="url(#J)" fill="#e59742"><path d="M610.27 122.612h11.657v.434H610.27zm-3.008 20.117h11.657v.433h-11.657zm3.008 20.306h11.657v.433H610.27z"/></g><path d="M509.428 133.171c-1.844 1.545.471 5.661 5.094 4.812s6.981-3.019 4.434-5.378-6.038-2.358-9.528.566zm13.218-8.475c3.151-5.776 7.979-.936 10.989.536 6.03 2.949 7.01-.916 10.185.671 3.215 1.609 1.875 5.762-4.959 6.968-5.939 1.047-19.432-2.279-16.215-8.175z" class="B"/></svg>