<svg xmlns="http://www.w3.org/2000/svg" width="41.395" height="40.791" viewBox="0 0 41.395 40.791">
  <path id="industrial" d="M56.034,43.023a4.583,4.583,0,0,0-3.239,7.82,1.36,1.36,0,0,1,0,1.923l-2.927,2.927a1.36,1.36,0,0,1-1.923,0,4.583,4.583,0,0,0-7.82,3.239,1.359,1.359,0,0,1-1.36,1.359H34.627a1.36,1.36,0,0,1-1.36-1.359,4.581,4.581,0,0,0-7.82-3.239,1.36,1.36,0,0,1-1.923,0L20.6,52.766a1.36,1.36,0,0,1,0-1.923,4.583,4.583,0,0,0-3.239-7.82A1.36,1.36,0,0,1,16,41.663V39.68a.086.086,0,0,1,.086-.086H26.5a.086.086,0,0,1,.086.086,10.113,10.113,0,0,0,20.226,0,.086.086,0,0,1,.086-.086H57.308a.086.086,0,0,1,.086.086v1.983a1.359,1.359,0,0,1-1.36,1.36ZM24.52,21.192H28.1a.086.086,0,0,0,.086-.086V19.586A.086.086,0,0,0,28.1,19.5H24.52a.086.086,0,0,0-.086.086v1.519A.086.086,0,0,0,24.52,21.192ZM28.1,22.4H24.52a.086.086,0,0,0-.086.086V34.676a.086.086,0,0,0,.086.086H28.1a.086.086,0,0,0,.086-.086V22.485A.086.086,0,0,0,28.1,22.4Zm1.293,4.546v7.731a.086.086,0,0,0,.086.086h5.546a.086.086,0,0,0,.086-.086V25.443A.086.086,0,0,0,35,25.36l-5.546,1.5a.085.085,0,0,0-.064.083Zm6.926,0v7.731a.086.086,0,0,0,.086.086h5.546a.086.086,0,0,0,.086-.086V25.443a.086.086,0,0,0-.109-.083l-5.546,1.5a.085.085,0,0,0-.064.083Zm6.925,0v7.731a.086.086,0,0,0,.086.086h5.546a.086.086,0,0,0,.086-.086V25.443a.086.086,0,0,0-.109-.083l-5.546,1.5a.085.085,0,0,0-.064.083Zm-20.79,9.024a.086.086,0,0,0-.086.086v.657a.086.086,0,0,0,.086.086H50.942a.086.086,0,0,0,.086-.086v-.657a.086.086,0,0,0-.086-.086ZM45.1,28.335H47.1a.188.188,0,0,1,.188.188v1.993a.188.188,0,0,1-.188.188H45.1a.188.188,0,0,1-.188-.188V28.523A.188.188,0,0,1,45.1,28.335Zm-13.851,0h1.993a.188.188,0,0,1,.188.188v1.993a.188.188,0,0,1-.188.188H31.253a.188.188,0,0,1-.188-.188V28.523A.188.188,0,0,1,31.253,28.335Zm6.925,0h1.993a.188.188,0,0,1,.188.188v1.993a.188.188,0,0,1-.188.188H38.178a.188.188,0,0,1-.188-.188V28.523A.188.188,0,0,1,38.178,28.335ZM28.8,39.681a7.9,7.9,0,0,0,15.8,0,.086.086,0,0,0-.086-.087H28.882a.086.086,0,0,0-.086.087Z" transform="translate(-15.999 -19.5)" fill="#06b2ff" fill-rule="evenodd"/>
</svg>
