<svg xmlns="http://www.w3.org/2000/svg" xmlns:xlink="http://www.w3.org/1999/xlink" width="609.998" height="440.354" viewBox="0 0 609.998 440.354">
  <defs>
    <clipPath id="clip-path">
      <circle id="Ellipse_274" data-name="Ellipse 274" cx="35.157" cy="35.157" r="35.157"/>
    </clipPath>
  </defs>
  <g id="OBJECTS" transform="translate(-165 -415.694)">
    <g id="Group_20201" data-name="Group 20201" transform="translate(165 415.694)">
      <g id="Group_20152" data-name="Group 20152" transform="translate(18.862 46.626)">
        <path id="Path_10735" data-name="Path 10735" d="M1446.586,946.329l-.778-.478c44.249-71.963,67.308-136.983,68.537-193.253,1.271-58.193-21.294-93.775-40.446-113.378a131,131,0,0,0-67.807-36.876c-23.749-4.643-46.991-1.693-63.767,8.093l-.46-.789c16.965-9.9,40.441-12.886,64.4-8.2a131.933,131.933,0,0,1,68.286,37.134c19.275,19.728,41.983,55.526,40.705,114.036C1514.029,809.054,1490.922,874.229,1446.586,946.329Z" transform="translate(-930.855 -578.848)" fill="#e4edf7"/>
        <path id="Path_10736" data-name="Path 10736" d="M791.943,655.814c-20.664-44.767-60.807-79.759-110.739-85.841-39.838-4.853-79.9-5.5-119.911-7.943-42.228-2.577-83.571-10.412-125.3-17.278-26.786-4.407-50.253,2.1-76.224,11.524-35.477,12.87-69.759,54.421-85.229,87.664-37.271,80.091-16.685,180.834,16.159,258.88,1.609,3.824,12.7,34.248,16.027,34.248h434.4c26.207-38.434,47.685-80.7,59.609-124.351C814.908,760.855,814.758,705.24,791.943,655.814Z" transform="translate(-240.742 -543.343)" fill="#d2e0f3" opacity="0.4"/>
        <path id="Path_10737" data-name="Path 10737" d="M239.348,838.344c-17.057-53.187-24.566-99.437-22.322-137.464,1.867-31.628,10.478-57.9,25.593-78.078,34.631-46.236,92.475-45.323,93.058-45.307l-.023.913c-.562-.018-57.97-.909-92.311,44.951-15,20.035-23.55,46.138-25.405,77.584-2.237,37.913,5.259,84.047,22.28,137.123Z" transform="translate(-216.638 -565.018)" fill="#e4edf7"/>
      </g>
      <g id="Group_20164" data-name="Group 20164" transform="translate(135.604)">
        <g id="Group_20153" data-name="Group 20153">
          <path id="Path_10738" data-name="Path 10738" d="M860.464,742.655H548.747A11.252,11.252,0,0,1,537.495,731.4V428.2a11.252,11.252,0,0,1,11.252-11.252H860.464A11.252,11.252,0,0,1,871.716,428.2V731.4A11.249,11.249,0,0,1,860.464,742.655Z" transform="translate(-537.039 -416.487)" fill="#ccefff"/>
          <path id="Path_10739" data-name="Path 10739" d="M859.671,742.319H547.954a11.722,11.722,0,0,1-11.708-11.709V427.4a11.722,11.722,0,0,1,11.708-11.708H859.671A11.722,11.722,0,0,1,871.38,427.4V730.611A11.72,11.72,0,0,1,859.671,742.319ZM547.956,416.607a10.807,10.807,0,0,0-10.8,10.8V730.611a10.808,10.808,0,0,0,10.8,10.8H859.672a10.808,10.808,0,0,0,10.8-10.8V427.4a10.808,10.808,0,0,0-10.8-10.8H547.956Z" transform="translate(-536.246 -415.694)" fill="#cbcbff"/>
        </g>
        <g id="Group_20154" data-name="Group 20154" transform="translate(202.725 38.404)">
          <rect id="Rectangle_9053" data-name="Rectangle 9053" width="71.227" height="5.197" transform="translate(22.373)" fill="#06b2ff"/>
          <rect id="Rectangle_9054" data-name="Rectangle 9054" width="113.486" height="5.197" transform="translate(0 22.373)" fill="#99d2ec"/>
          <rect id="Rectangle_9055" data-name="Rectangle 9055" width="102.214" height="5.197" transform="translate(0 37.745)" fill="#99d2ec"/>
          <rect id="Rectangle_9056" data-name="Rectangle 9056" width="90.475" height="5.197" transform="translate(0 53.116)" fill="#99d2ec"/>
          <rect id="Rectangle_9057" data-name="Rectangle 9057" width="113.486" height="5.197" transform="translate(0 68.488)" fill="#99d2ec"/>
          <rect id="Rectangle_9058" data-name="Rectangle 9058" width="83.771" height="5.197" transform="translate(0 83.86)" fill="#99d2ec"/>
        </g>
        <g id="Group_20155" data-name="Group 20155" transform="translate(24.55 206.58)">
          <rect id="Rectangle_9059" data-name="Rectangle 9059" width="108.919" height="5.197" fill="#99d2ec"/>
          <rect id="Rectangle_9060" data-name="Rectangle 9060" width="281.625" height="5.197" transform="translate(0.312 14.154)" fill="#99d2ec"/>
        </g>
        <g id="Group_20158" data-name="Group 20158" transform="translate(24.721 38.404)">
          <rect id="Rectangle_9061" data-name="Rectangle 9061" width="131.164" height="138.812" fill="#fff"/>
          <g id="Group_20156" data-name="Group 20156" transform="translate(11.861 29.83)">
            <rect id="Rectangle_9062" data-name="Rectangle 9062" width="9.119" height="31.924" transform="translate(0 61.866)" fill="#71c5eb"/>
            <rect id="Rectangle_9063" data-name="Rectangle 9063" width="9.119" height="27.424" transform="translate(16.387 66.366)" fill="#c4ebfc"/>
            <rect id="Rectangle_9064" data-name="Rectangle 9064" width="9.119" height="44.816" transform="translate(32.774 48.974)" fill="#71c5eb"/>
            <rect id="Rectangle_9065" data-name="Rectangle 9065" width="9.119" height="41.607" transform="translate(49.161 52.183)" fill="#c4ebfc"/>
            <rect id="Rectangle_9066" data-name="Rectangle 9066" width="9.119" height="55.969" transform="translate(65.548 37.821)" fill="#71c5eb"/>
            <rect id="Rectangle_9067" data-name="Rectangle 9067" width="9.119" height="63.728" transform="translate(81.935 30.062)" fill="#c4ebfc"/>
            <rect id="Rectangle_9068" data-name="Rectangle 9068" width="9.119" height="70.647" transform="translate(98.322 23.144)" fill="#71c5eb"/>
            <path id="Path_10740" data-name="Path 10740" d="M659.457,646.863l-17.222-6.889.329-.822,16.733,6.693,17.05-14.11,15.9.37,47.942-29.6.465.754L692.494,633l-15.836-.368Z" transform="translate(-640.103 -602.5)" fill="#06b2ff"/>
          </g>
          <g id="Group_20157" data-name="Group 20157" transform="translate(10.2 27.501)">
            <rect id="Rectangle_9069" data-name="Rectangle 9069" width="18.71" height="7.778" fill="#06b2ff"/>
            <rect id="Rectangle_9070" data-name="Rectangle 9070" width="17.502" height="0.913" transform="translate(24.893 4.46)" fill="#06b2ff"/>
          </g>
        </g>
        <g id="Group_20160" data-name="Group 20160" transform="translate(205.496 145.852)">
          <circle id="Ellipse_271" data-name="Ellipse 271" cx="20.427" cy="20.427" r="20.427" transform="translate(58.203 0.002)" fill="#fff"/>
          <g id="Group_20159" data-name="Group 20159">
            <path id="Path_10741" data-name="Path 10741" d="M1119.259,855.85a20.432,20.432,0,0,1-3.16-40.616,20.83,20.83,0,0,1,3.161-.24,20.428,20.428,0,0,1,0,40.856Z" transform="translate(-1098.835 -814.994)" fill="#fff"/>
            <path id="Path_10742" data-name="Path 10742" d="M1149.258,835.426l-3.161-20.192a20.83,20.83,0,0,1,3.161-.24,20.34,20.34,0,0,1,15.2,6.8Z" transform="translate(-1128.834 -814.994)" fill="#06b2ff"/>
          </g>
        </g>
        <g id="Group_20163" data-name="Group 20163" transform="translate(26.947 245.382)">
          <g id="Group_20161" data-name="Group 20161">
            <rect id="Rectangle_9071" data-name="Rectangle 9071" width="280.301" height="53.877" fill="#fff"/>
          </g>
          <g id="Group_20162" data-name="Group 20162" transform="translate(0.136 0.122)">
            <path id="Path_10743" data-name="Path 10743" d="M891.37,1142.377H610.392v-54.562H891.37v54.562Zm-280.293-.687H890.685V1088.5H611.077Z" transform="translate(-610.392 -1087.815)" fill="#99d2ec"/>
            <rect id="Rectangle_9072" data-name="Rectangle 9072" width="280.293" height="0.685" transform="translate(0.342 43.1)" fill="#99d2ec"/>
            <rect id="Rectangle_9073" data-name="Rectangle 9073" width="280.293" height="0.685" transform="translate(0.342 32.324)" fill="#99d2ec"/>
            <rect id="Rectangle_9074" data-name="Rectangle 9074" width="280.293" height="0.685" transform="translate(0.342 21.549)" fill="#99d2ec"/>
            <rect id="Rectangle_9075" data-name="Rectangle 9075" width="280.293" height="0.685" transform="translate(0.342 10.774)" fill="#99d2ec"/>
            <rect id="Rectangle_9076" data-name="Rectangle 9076" width="0.685" height="53.877" transform="translate(233.577 0.342)" fill="#99d2ec"/>
            <rect id="Rectangle_9077" data-name="Rectangle 9077" width="0.685" height="53.877" transform="translate(186.863 0.342)" fill="#99d2ec"/>
            <rect id="Rectangle_9078" data-name="Rectangle 9078" width="0.685" height="53.877" transform="translate(140.147 0.342)" fill="#99d2ec"/>
            <rect id="Rectangle_9079" data-name="Rectangle 9079" width="0.685" height="53.877" transform="translate(93.431 0.342)" fill="#99d2ec"/>
            <rect id="Rectangle_9080" data-name="Rectangle 9080" width="0.685" height="53.877" transform="translate(46.715 0.342)" fill="#99d2ec"/>
          </g>
          <path id="Path_10744" data-name="Path 10744" d="M630.889,1148.663c4.075-5.677,4.956-12.987,8.6-18.965,1.776-2.916,4.127-5.809,7.38-7.113,5.607-2.248,7.038,4.988,7.157,9.007.175,5.912-.8,12.326,4.078,16.764a6.468,6.468,0,0,0,5.986,1.777c2.638-.7,4.279-3.117,5.585-5.336,3.738-6.355,6.112-13.639,8.709-20.512,1.312-3.472,2.979-7.92,6.415-9.866,4.9-2.773,5.432,3.363,5.421,6.6-.013,3.544.024,7.087.055,10.631.015,1.7-.336,5.257,1.666,6.206,1.178.559,2.112-.508,2.772-1.365.575-.745.974-1.616,1.547-2.358a2.539,2.539,0,0,1,1.994-1.2c.895-.074,1.322-.084,1.93.74a4.94,4.94,0,0,1,.638,1.644c.7,2.658-.019,5.67,1.487,8.126.838,1.367,2.642,2.73,4.336,2.463,3.422-.54,4.291-6.116,4.7-8.8a87.833,87.833,0,0,1,2.051-10.652c.995-3.525,2.285-7.735,4.965-10.371,1.021-1,2.425-2,3.935-1.835,2.2.247,2.895,2.735,3.434,4.52a43.148,43.148,0,0,1,1.942,12.452c0,2.909-.849,6.55,1.091,9.068a4.438,4.438,0,0,0,4.5,1.705c2.468-.615,3.065-3.012,3.566-5.184a9.089,9.089,0,0,1,.338-1.293c.481-1.225.672-1.367,1.994-1.421,1.454-.059,1.511.281,1.745,1.487a34.475,34.475,0,0,0,.479,3.643c.462,1.52,1.53,2.917,3.289,2.394,1.623-.484,2.491-2.22,3.027-3.686,1.541-4.216,1.4-8.885,1.628-13.3.152-2.922.388-6.063,1.737-8.716.878-1.726,3.472-4.522,5.477-2.7,2.609,2.37,2.355,8.146,2.414,11.335.128,6.841-1.02,13.71-.064,20.528.358,2.549,1.082,6.357,3.911,7.321,3.919,1.336,6.8-2.931,7.846-6.051.828-2.481,1.017-5.079,1.606-7.611.31-1.332.784-3.765,2.6-3,1.567.655,2.215,2.873,3.592,3.875,4.452,3.238,7.176-3.077,7.7-6.5.765-5-.023-10.5,1.847-15.281a6.759,6.759,0,0,1,2.326-3.222c2.719-1.791,5.4.686,6.217,3.219a21.125,21.125,0,0,1,.541,6.07c.04,2.164.1,4.328.137,6.492.067,3.575-.255,7.224-.025,10.787a7.527,7.527,0,0,0,3.236,6.129c5.371,3.509,11.649-1.965,15.076-5.806a46.181,46.181,0,0,0,8.528-14.994,40.991,40.991,0,0,1,3.632-8.045c.875-1.362,3.306-4.629,5.3-3.726,1.3.588,1.731,2.938,2.011,4.149a43.3,43.3,0,0,1,.868,6.229c.323,3.972.346,7.955.419,11.937.061,3.371.347,8.458,4.094,9.823,5.852,2.132,8.644-6.249,10.264-10.12,1.342-3.206,2.977-7.556,6.1-9.462,2.654-1.621,4.5.879,5.482,3.1a17.626,17.626,0,0,1,1.456,6.828c.021,1.624-.106,3.66,1.673,4.444,3.883,1.712,7.421-4.712,8.93-7.244,1.376-2.308,2.421-4.727,3.574-7.149,1.449-3.042,6.195-8.858,8.168-3.029.745,2.2.484,4.576.337,6.848-.167,2.578-.351,5.164-.269,7.749.094,2.986.635,9.5,5.141,8.81,2.73-.419,5.543-3.427,7.589-5.133a99.625,99.625,0,0,0,8.509-8.017c.4-.427-.24-1.073-.646-.646a99.688,99.688,0,0,1-8.509,8.017,62.043,62.043,0,0,1-4.974,3.865c-2.256,1.52-4.463.831-5.364-1.5-1.768-4.568-.691-10.219-.454-14.972.141-2.827-.214-9.3-4.544-8.511-2.594.47-4.385,3.268-5.469,5.426-1.229,2.447-2.235,4.966-3.619,7.338-1.372,2.353-2.952,5.154-5.239,6.734-1.724,1.192-3.743.628-3.936-1.688-.088-1.057.026-2.109-.1-3.171-.36-3.065-1.526-8.129-4.845-9.371-4.606-1.722-7.961,6.028-9.272,9.062-1.342,3.105-2.382,7.083-4.863,9.506-1.749,1.709-4.588,2.3-6.376.325-1.308-1.445-1.638-3.723-1.82-5.581-.712-7.218.365-14.675-1.695-21.752-.594-2.041-1.725-4.562-4.25-3.668-4.235,1.5-6.162,7-7.6,10.79-2.306,6.059-4.862,11.859-9.356,16.676-2.592,2.779-6.351,6.214-10.408,6.132-5.326-.107-5.99-5.422-5.837-9.494.149-3.983-.007-7.977-.094-11.96-.07-3.21.362-7.034-1.223-9.969a5.369,5.369,0,0,0-5.358-2.969c-1.876.332-3.27,2.1-4.027,3.724-2.039,4.37-1.5,9.643-1.959,14.32-.263,2.671-.738,7.254-3.865,8.184-3.933,1.169-4.058-4.742-7.367-4.855-3.508-.119-3.536,8.3-4.143,10.521-.749,2.735-2.172,6-5.286,6.591-1.927.367-3.21-.845-3.958-2.5-1.7-3.766-1.492-8.512-1.386-12.548.079-3.014.348-6.019.4-9.033.057-3.25.7-17.209-5.5-15.712-4.288,1.036-5.386,6.573-5.768,10.241-.508,4.889-.078,9.9-1.474,14.672a6.921,6.921,0,0,1-1.883,3.518c-1.082.88-2.374.127-2.907-1a7.611,7.611,0,0,1-.416-2.553c-.12-1.39-.3-3.458-1.844-4.042-1.791-.674-3.258,1.155-3.8,2.625-.667,1.821-.45,4.216-2.3,5.423s-4.035.069-4.931-1.723c-.933-1.867-.6-4.141-.505-6.15a38.162,38.162,0,0,0-.23-6.107,36.48,36.48,0,0,0-2.454-10.392c-1.95-4.391-6.294-3.223-8.88-.069-4.389,5.355-5.494,13.5-6.445,20.1a21.033,21.033,0,0,1-1.656,6.256c-.486.993-1.183,2.169-2.365,2.369-1.978.335-3.614-1.945-4.048-3.565-.706-2.635-.039-11.983-5.526-9.113-1.7.891-1.866,3.017-3.318,4.086-2.271,1.672-2.41-2.024-2.427-3.454-.024-2.146-.037-4.291-.055-6.437a78.1,78.1,0,0,0-.156-8.74c-.224-1.83-.782-3.962-2.672-4.716-5.113-2.042-8.929,6.211-10.3,9.671-2.91,7.338-5.241,15.18-9.334,21.968-2.247,3.727-6.08,6.52-9.93,3.031-2.751-2.493-3.763-6.155-3.836-9.743-.094-4.663,1.3-14.089-4.287-16.513-4.871-2.112-10.032,4.606-12.093,8.061-3.52,5.9-4.43,13.114-8.429,18.685-.344.478.447.935.787.46Z" transform="translate(-622.713 -1102.854)" fill="#99d2ec"/>
        </g>
      </g>
      <g id="Group_20166" data-name="Group 20166" transform="translate(369.234 373.232)">
        <g id="Group_20165" data-name="Group 20165">
          <path id="Path_10745" data-name="Path 10745" d="M1249.65,1525.644h-69a4.793,4.793,0,0,1-4.793-4.793v-45.431a4.794,4.794,0,0,1,4.793-4.793h69a4.793,4.793,0,0,1,4.793,4.793v45.431A4.79,4.79,0,0,1,1249.65,1525.644Z" transform="translate(-1175.857 -1458.525)" fill="#94b9e2"/>
          <rect id="Rectangle_9081" data-name="Rectangle 9081" width="75.121" height="0.87" transform="translate(1.732 35.94)" fill="#abd2fb"/>
          <path id="Path_10746" data-name="Path 10746" d="M1272.468,1543.868a6.315,6.315,0,0,1-6.309-6.309v-1.669h12.617v1.669A6.315,6.315,0,0,1,1272.468,1543.868Zm-5.435-7.108v.8a5.438,5.438,0,1,0,10.876,0v-.8Z" transform="translate(-1233.175 -1499.951)" fill="#abd2fb"/>
          <path id="Path_10747" data-name="Path 10747" d="M1272.47,1452.408h-.87v-11.285a2.759,2.759,0,0,0-2.756-2.756h-22.476a2.759,2.759,0,0,0-2.755,2.756v11.285h-.87v-11.285a3.63,3.63,0,0,1,3.626-3.626h22.476a3.631,3.631,0,0,1,3.627,3.626v11.285Z" transform="translate(-1218.31 -1437.497)" fill="#abd2fb"/>
          <rect id="Rectangle_9082" data-name="Rectangle 9082" width="4.242" height="4.568" transform="translate(22.768 12.102)" fill="#abd2fb"/>
        </g>
        <rect id="Rectangle_9083" data-name="Rectangle 9083" width="4.242" height="4.568" transform="translate(51.588 12.102)" fill="#abd2fb"/>
      </g>
      <g id="Group_20167" data-name="Group 20167" transform="translate(164.2 390.357)">
        <path id="Path_10838" data-name="Path 10838" d="M0,0H56.014V46.69H0Z" transform="translate(4.125 3.306)" fill="#94b9e2"/>
        <path id="Path_10839" data-name="Path 10839" d="M0,0H64.264V9.806H0Z" fill="#abd2fb"/>
        <path id="Path_10748" data-name="Path 10748" d="M681.839,1551.16H625.825v-40.335S648.508,1544.925,681.839,1551.16Z" transform="translate(-621.7 -1501.165)" fill="#abd2fb" opacity="0.6"/>
      </g>
      <g id="Group_20175" data-name="Group 20175" transform="translate(500.172 40.874)">
        <g id="Group_20168" data-name="Group 20168">
          <path id="Path_10749" data-name="Path 10749" d="M1570.309,528.847a34.731,34.731,0,0,0-19.484,63.482l-1.333,16,13.036-10.908a34.729,34.729,0,1,0,7.782-68.574Z" transform="translate(-1535.121 -528.39)" fill="#fff"/>
          <path id="Path_10750" data-name="Path 10750" d="M1548.149,608.586l1.4-16.825a35.278,35.278,0,1,1,12.3,5.36Zm21.365-80.077a34.275,34.275,0,0,0-19.228,62.647l.22.15-1.265,15.176,12.37-10.351.221.051a34.272,34.272,0,1,0,7.681-67.672Z" transform="translate(-1534.326 -527.596)" fill="#06b2ff"/>
        </g>
        <g id="Group_20174" data-name="Group 20174" transform="translate(19.283 11.697)">
          <g id="Group_20172" data-name="Group 20172" transform="translate(7.816 14.557)">
            <g id="Group_20169" data-name="Group 20169" transform="translate(3.215 15.784)">
              <rect id="Rectangle_9086" data-name="Rectangle 9086" width="10.327" height="10.717" transform="translate(0.457 0.456)" fill="#fff"/>
              <path id="Path_10751" data-name="Path 10751" d="M1628.559,654.31h-11.24V642.681h11.24Zm-10.326-.913h9.413v-9.8h-9.413Z" transform="translate(-1617.319 -642.681)" fill="#06b2ff"/>
            </g>
            <g id="Group_20170" data-name="Group 20170">
              <path id="Path_10752" data-name="Path 10752" d="M1626.521,609.1a8.378,8.378,0,1,0-15.644,4.168,14.788,14.788,0,0,1,2.1,7.372v1.905h10.327v-1.981a14.485,14.485,0,0,1,2.086-7.269A8.29,8.29,0,0,0,1626.521,609.1Z" transform="translate(-1609.308 -600.264)" fill="#fff"/>
              <path id="Path_10753" data-name="Path 10753" d="M1622.971,622.207h-11.24v-2.361a14.229,14.229,0,0,0-2.04-7.144,8.807,8.807,0,0,1-1.174-4.507,8.948,8.948,0,0,1,8.418-8.715,8.831,8.831,0,0,1,8.06,13.25,13.931,13.931,0,0,0-2.024,7.039Zm-10.326-.913h9.413V619.77a14.825,14.825,0,0,1,2.147-7.5,7.919,7.919,0,0,0-7.229-11.879,8.022,8.022,0,0,0-7.547,7.814,7.908,7.908,0,0,0,1.051,4.039,15.118,15.118,0,0,1,2.164,7.6v1.448Z" transform="translate(-1608.516 -599.47)" fill="#06b2ff"/>
            </g>
            <g id="Group_20171" data-name="Group 20171" transform="translate(3.493 4.622)">
              <path id="Path_10754" data-name="Path 10754" d="M1622.3,616.145a1.6,1.6,0,1,1-.081-2.556A1.847,1.847,0,0,1,1622.3,616.145Z" transform="translate(-1618.868 -612.916)" fill="#fff"/>
              <path id="Path_10755" data-name="Path 10755" d="M1619.8,616.823a1.677,1.677,0,0,1-.977-.3,1.806,1.806,0,0,1-.738-1.473,3.008,3.008,0,0,1,1.976-2.817,1.736,1.736,0,0,1,2.375,1.666,2.874,2.874,0,0,1-.546,1.719h0a2.876,2.876,0,0,1-1.43,1.1A2.144,2.144,0,0,1,1619.8,616.823Zm.913-3.787a1.188,1.188,0,0,0-.371.063,2.1,2.1,0,0,0-1.347,1.92.83.83,0,0,0,1.179.827,1.962,1.962,0,0,0,.966-.754h0a1.986,1.986,0,0,0,.381-1.166.922.922,0,0,0-.35-.754A.791.791,0,0,0,1620.71,613.036Z" transform="translate(-1618.08 -612.124)" fill="#06b2ff"/>
            </g>
          </g>
          <g id="Group_20173" data-name="Group 20173">
            <rect id="Rectangle_9087" data-name="Rectangle 9087" width="0.913" height="6.641" transform="translate(0 9.402) rotate(-51.553)" fill="#06b2ff"/>
            <rect id="Rectangle_9088" data-name="Rectangle 9088" width="0.914" height="8.917" transform="matrix(0.999, -0.032, 0.032, 0.999, 15.422, 0.029)" fill="#06b2ff"/>
            <rect id="Rectangle_9089" data-name="Rectangle 9089" width="7.517" height="0.913" transform="translate(26.288 12.134) rotate(-44.21)" fill="#06b2ff"/>
          </g>
        </g>
      </g>
      <g id="Group_20177" data-name="Group 20177" transform="translate(38.049 54.208)">
        <g id="Group_20176" data-name="Group 20176">
          <path id="Path_10756" data-name="Path 10756" d="M331.486,595.886a30.534,30.534,0,1,0-22.53,29.467l10.6,8.869-1.11-13.317A30.491,30.491,0,0,0,331.486,595.886Z" transform="translate(-269.959 -564.894)" fill="#fff"/>
          <path id="Path_10757" data-name="Path 10757" d="M319.308,634.481l-11.256-9.419a31.02,31.02,0,1,1,10.077-4.728Zm-11.035-10.424,9.943,8.32-1.041-12.488.214-.151a30.01,30.01,0,1,0-9.347,4.381Z" transform="translate(-269.166 -564.101)" fill="#06b2ff"/>
        </g>
        <path id="Path_10758" data-name="Path 10758" d="M337.866,636.873l-8.658-8.658.645-.646,7.713,7.713,8.94-20.364.836.367Z" transform="translate(-307.277 -596.357)" fill="#06b2ff"/>
      </g>
      <g id="Group_20182" data-name="Group 20182" transform="translate(132.292 56.209)">
        <g id="Group_20178" data-name="Group 20178" transform="translate(0 58.088)">
          <path id="Path_10759" data-name="Path 10759" d="M630,739.53l-8.189,4.795-87.066,51.018c-2.679,1.57-5.815,1.2-7.058-.835l0-.006c-1.243-2.036-.139-4.994,2.481-6.66L615.155,733.8l8.178-5.2Z" transform="translate(-527.177 -728.604)" fill="#06b2ff"/>
          <path id="Path_10760" data-name="Path 10760" d="M782.885,739.531l-8.189,4.795a25.845,25.845,0,0,1-4.187-5.21,26.259,26.259,0,0,1-2.473-5.312l8.178-5.2Z" transform="translate(-680.058 -728.605)" fill="#1b1b43" opacity="0.6"/>
        </g>
        <path id="Path_10761" data-name="Path 10761" d="M769.952,757.179a2.739,2.739,0,1,1,.91-3.765A2.739,2.739,0,0,1,769.952,757.179Z" transform="translate(-678.629 -685.432)" fill="#fff"/>
        <path id="Path_10836" data-name="Path 10836" d="M43.343,0A43.343,43.343,0,1,1,0,43.343,43.343,43.343,0,0,1,43.343,0Z" transform="translate(89.244)" fill="#06b2ff"/>
        <g id="Group_20181" data-name="Group 20181" transform="translate(97.43 8.186)">
          <circle id="Ellipse_273" data-name="Ellipse 273" cx="35.157" cy="35.157" r="35.157" fill="#fff"/>
          <g id="Group_20179" data-name="Group 20179" clip-path="url(#clip-path)">
            <rect id="Rectangle_9090" data-name="Rectangle 9090" width="11.02" height="67.636" transform="translate(9.844 47.04)" fill="#71c5eb"/>
            <rect id="Rectangle_9091" data-name="Rectangle 9091" width="11.02" height="77.012" transform="translate(29.647 38.12)" fill="#c0eafc"/>
            <path id="Path_10837" data-name="Path 10837" d="M0,0H11.02V85.373H0Z" transform="translate(49.45 28.542)" fill="#71c5eb"/>
          </g>
          <g id="Group_20180" data-name="Group 20180" clip-path="url(#clip-path)">
            <rect id="Rectangle_9093" data-name="Rectangle 9093" width="53.015" height="1.37" transform="matrix(0.952, -0.305, 0.305, 0.952, -2.316, 31.777)" fill="#06b2ff"/>
            <path id="Path_10762" data-name="Path 10762" d="M912.623,638.04l-1.115-.794,3.325-4.669-4.816-1.648.444-1.3,5.317,1.821a.938.938,0,0,1,.624.634.957.957,0,0,1-.188.905Zm2.706-5.294a.363.363,0,0,0,.044.015Zm-.193-.6a.152.152,0,0,0-.02.029Z" transform="translate(-867.607 -615.882)" fill="#06b2ff"/>
          </g>
        </g>
      </g>
      <g id="Group_20189" data-name="Group 20189" transform="translate(70.38 95.705)">
        <g id="Group_20185" data-name="Group 20185" transform="translate(0 114.527)">
          <g id="Group_20183" data-name="Group 20183" transform="translate(89.165 194.962)">
            <path id="Path_10763" data-name="Path 10763" d="M620.512,1542c-5.516.082-13.424.21-18.537.283.055-2.475.146-4.94.256-7.2.247-5.625.566-9.972.566-9.972l15.807-.11s-.073,1.571,0,3.927A50.387,50.387,0,0,0,620.512,1542Z" transform="translate(-601.908 -1525.003)" fill="#ffbc96"/>
            <path id="Path_10764" data-name="Path 10764" d="M626.518,1579.254c-3.032-.939-4.93-4.035-6.119-7.732-5.519.086-13.427.208-18.545.286-.137,5.824-.086,11.685.473,14.976a2.956,2.956,0,0,0,2.913,2.473h27.165a3.82,3.82,0,0,0,3.895-4.053C636.025,1582.567,632.917,1581.234,626.518,1579.254Z" transform="translate(-601.79 -1554.529)" fill="#1b1b43"/>
            <path id="Path_10765" data-name="Path 10765" d="M619.048,1528.927l-16.373,6.155c.247-5.625.566-9.972.566-9.972l15.807-.11S618.975,1526.571,619.048,1528.927Z" transform="translate(-602.352 -1525)" fill="#d28572"/>
            <path id="Path_10766" data-name="Path 10766" d="M610.509,1606.484c-.58-2.752-1.732-4.666-3.425-5.689a6.5,6.5,0,0,0-4.678-.663l-.252-.877a7.3,7.3,0,0,1,5.39.753c1.925,1.157,3.224,3.273,3.858,6.29Z" transform="translate(-602.021 -1571.995)" fill="#656590"/>
          </g>
          <g id="Group_20184" data-name="Group 20184" transform="translate(0 186.506)">
            <path id="Path_10767" data-name="Path 10767" d="M392.8,1507.347a67.008,67.008,0,0,0-3.013,9.086,39.8,39.8,0,0,0-1.215,7.479c-5.2-1.872-12.629-4.557-17.451-6.3,2.237-5.5,4.63-10.885,5.917-13.716l.037-.073c.557-1.242.895-1.973.895-1.973Z" transform="translate(-366.214 -1501.85)" fill="#ffbc96"/>
            <path id="Path_10768" data-name="Path 10768" d="M383.028,1560.709c-2.5-1.951-3.183-5.52-2.986-9.4-5.192-1.873-12.631-4.557-17.446-6.3-2.19,5.4-4.216,10.9-4.858,14.174a2.957,2.957,0,0,0,1.849,3.344l25.407,9.614a3.82,3.82,0,0,0,5.077-2.413C390.747,1567.174,388.312,1564.825,383.028,1560.709Z" transform="translate(-357.681 -1529.248)" fill="#1b1b43"/>
            <path id="Path_10769" data-name="Path 10769" d="M402.214,1507.347a67.011,67.011,0,0,0-3.013,9.086l-13.25-11.15.5-1.388.036-.073c.557-1.242.895-1.973.895-1.973Z" transform="translate(-375.624 -1501.85)" fill="#d28572"/>
            <path id="Path_10770" data-name="Path 10770" d="M367.665,1577.511l-.81-.423c3.4-6.522-2.593-9.752-2.85-9.885l.423-.81C364.5,1566.428,371.484,1570.191,367.665,1577.511Z" transform="translate(-361.695 -1542.817)" fill="#656590"/>
          </g>
          <path id="Path_10771" data-name="Path 10771" d="M564.813,1189.408l-29.066,2.283-6.091-103.8-9-34.125-11.78-44.627-.612-2.329-2.84-10.757-.42-1.605,5.561-.5,30.052-2.694,1.817,8.219v.009l18,81.391a44.376,44.376,0,0,1,1.023,8.063Z" transform="translate(-451.189 -991.25)" fill="#06b2ff"/>
          <path id="Path_10772" data-name="Path 10772" d="M439.654,1036.227l-2.31,23.094-3.744,37.385a52.4,52.4,0,0,1-2.858,12.611l-30.966,85.644-26.025-10.045,24.2-87.665c6.237-36.089,5.205-63.785,6.812-81.354.1-1.1.21-2.146.329-3.16.648-5.379,1.653-9.643,3.36-12.739l13.661,1.607,9.625,1.132,2.091,8.849.42,1.79Z" transform="translate(-367.881 -996.804)" fill="#06b2ff"/>
          <path id="Path_10773" data-name="Path 10773" d="M513.011,999.469l.313,3.5s-40.788,10.958-54.674,7.375c.1-1.1.21-2.146.329-3.16.648-5.379,1.653-9.643,3.36-12.739L476,996.053l-.42-1.607,5.561-.5,30.052-2.694Z" transform="translate(-421.769 -991.25)" fill="#1b1b43" opacity="0.6"/>
          <path id="Path_10774" data-name="Path 10774" d="M528.178,1155.864l-13.635-53.859-11.174-3.576.278-.869,11.656,3.729.062.245,13.7,54.107Z" transform="translate(-450.154 -1058.728)" fill="#1b1b43"/>
          <path id="Path_10775" data-name="Path 10775" d="M628.007,1253.137l-.321-.854a63.961,63.961,0,0,0,11.1-5.207l.5.767A63.458,63.458,0,0,1,628.007,1253.137Z" transform="translate(-529.062 -1153.631)" fill="#1b1b43"/>
          <path id="Path_10776" data-name="Path 10776" d="M509.072,1282.82a99.836,99.836,0,0,1-13.77-2.524l.236-.883a99.062,99.062,0,0,0,13.625,2.5Z" transform="translate(-445.034 -1174.157)" fill="#1b1b43"/>
          <rect id="Rectangle_9094" data-name="Rectangle 9094" width="0.914" height="28.217" transform="translate(7.979 181.08) rotate(-69.805)" fill="#1b1b43"/>
          <rect id="Rectangle_9095" data-name="Rectangle 9095" width="29.066" height="0.914" transform="translate(84.146 192.426) rotate(-4.031)" fill="#1b1b43"/>
        </g>
        <path id="Path_10777" data-name="Path 10777" d="M444.4,819.167l-12.352,4.972a14.527,14.527,0,0,0-7.958,7.826l-10.368,24.813a12.363,12.363,0,0,0,3.419,14.2h0a12.362,12.362,0,0,0,12.254,2.168l8.766-3.223Z" transform="translate(-392.647 -767.496)" fill="#ffb147"/>
        <g id="Group_20186" data-name="Group 20186" transform="translate(121.88 28.885)">
          <path id="Path_10778" data-name="Path 10778" d="M725.986,757.028c-2.309,1.141-4.971,6-3.961,7.744.828,1.432,2.756-.506,3.392-1.171,1.168-1.22,4.184-4.481,2.519-6.333A1.511,1.511,0,0,0,725.986,757.028Z" transform="translate(-710.682 -756.786)" fill="#ffbc96"/>
          <path id="Path_10779" data-name="Path 10779" d="M713.863,761.331c-1.916,1.72-3.173,7.114-1.73,8.525,1.183,1.156,2.518-1.229,2.952-2.04.8-1.49,2.823-5.442.721-6.778A1.511,1.511,0,0,0,713.863,761.331Z" transform="translate(-704.146 -759.333)" fill="#ffbc96"/>
          <path id="Path_10780" data-name="Path 10780" d="M703.5,768.758c-1.936,1.661-3.3,6.764-1.9,8.06,1.147,1.062,2.521-1.212,2.968-1.984.821-1.419,2.915-5.183.862-6.394A1.579,1.579,0,0,0,703.5,768.758Z" transform="translate(-697.494 -764.052)" fill="#ffbc96"/>
          <path id="Path_10781" data-name="Path 10781" d="M693.826,772.215c-1.936,1.661-3.3,6.764-1.9,8.06,1.147,1.062,2.521-1.212,2.968-1.984.822-1.419,2.915-5.183.862-6.394A1.579,1.579,0,0,0,693.826,772.215Z" transform="translate(-691.353 -766.246)" fill="#ffbc96"/>
        </g>
        <path id="Path_10782" data-name="Path 10782" d="M468.847,814.551l-12.86,22.109s3.348,36.528.913,41.013-7.914,8.01-4.566,10.574,29.83,7.049,58.443.32c7.914-2.243,2.435-6.408.609-8.331s-4.262-50.306-4.262-50.306l-16.455-14.994-12.158-3.27Z" transform="translate(-417.091 -762.736)" fill="#ffb147"/>
        <path id="Path_10783" data-name="Path 10783" d="M518.615,816.857c-2.283,4-29.153,8.1-21.574-.533l7.762-1.636Z" transform="translate(-445.285 -764.653)" fill="#1b1b43" opacity="0.2"/>
        <g id="Group_20187" data-name="Group 20187" transform="translate(73.596 39.034)">
          <path id="Path_10784" data-name="Path 10784" d="M593.715,846.65l-10.6-15.727a16.9,16.9,0,0,0-11.069-7.714l-12.876-2.585,7.61,28.537s11.871,16.665,22.6,20.546c9.63,3.483,22.4-2.237,29.444-39.876l-15.967-2.177Z" transform="translate(-559.167 -807.456)" fill="#ffb147"/>
          <path id="Path_10785" data-name="Path 10785" d="M703.5,784.577c-1.614-.206-7.153,8.143-7.153,8.143l-8.952,3.048a12.913,12.913,0,0,0-7.473,6.625l-1.144,2.379,15.967,2.177c.263-1.4.52-2.842.767-4.337C700.985,797.666,707.073,785.033,703.5,784.577Z" transform="translate(-635.085 -784.573)" fill="#ffbc96"/>
        </g>
        <g id="Group_20188" data-name="Group 20188" transform="translate(44.79)">
          <path id="Path_10786" data-name="Path 10786" d="M559.313,724.039l3.238,4.48a1.406,1.406,0,0,1-.711,2.15L558.383,732l-2.439-5.415Z" transform="translate(-528.315 -707.116)" fill="#d28572"/>
          <path id="Path_10787" data-name="Path 10787" d="M507.85,762.742a136.723,136.723,0,0,0,.484-16.492l14.757,1.068a44.138,44.138,0,0,0-.082,5.05,67.738,67.738,0,0,0,.822,8.063c.228,1.452.493,2.877.776,4.246Z" transform="translate(-497.788 -721.214)" fill="#ffbc96"/>
          <path id="Path_10788" data-name="Path 10788" d="M536.573,770.873a17.121,17.121,0,0,1-8.648-8.173l7.826.11A67.754,67.754,0,0,0,536.573,770.873Z" transform="translate(-510.53 -731.655)" fill="#d28572"/>
          <path id="Path_10789" data-name="Path 10789" d="M502.468,791.388l-3.093,10.146a54.048,54.048,0,0,0,21.84.533l-1.986-8.742Z" transform="translate(-492.409 -749.864)" fill="#fff5e8"/>
          <path id="Path_10790" data-name="Path 10790" d="M525.29,699.365l1.529,20.417a2.813,2.813,0,0,1-1.151,2.378,6.66,6.66,0,0,1-4.837,1.686l-10.456-.434-7.458-8.371,5.783-17.807,10.5-.152Z" transform="translate(-494.657 -690.005)" fill="#ffbc96"/>
          <path id="Path_10791" data-name="Path 10791" d="M493.776,699.206s2.74,8.561-3.082,12.9c-6.278-2.055-17.921-21.117-3.424-27.167,0,0,4-10.159,14.839-6.392,9.572,3.325,12.1,9.132,12.1,9.132a13.544,13.544,0,0,1-14.611.343S500.4,698.178,493.776,699.206Z" transform="translate(-480.304 -677.708)" fill="#1b1b43"/>
          <path id="Path_10792" data-name="Path 10792" d="M513.685,723.618a4.473,4.473,0,1,1-6.55-1.026A4.7,4.7,0,0,1,513.685,723.618Z" transform="translate(-496.349 -705.617)" fill="#ffbc96"/>
          <path id="Path_10793" data-name="Path 10793" d="M515.847,733.769c-.037-.148-.948-3.63-3.4-3.1L512.3,730c2.479-.537,3.84,2.121,4.209,3.6Z" transform="translate(-500.614 -710.856)" fill="#1b1b43"/>
          <circle id="Ellipse_276" data-name="Ellipse 276" cx="3.044" cy="3.044" r="3.044" transform="translate(21.64 24.43) rotate(-76.714)" fill="#fe5b52" opacity="0.4"/>
        </g>
        <path id="Path_10794" data-name="Path 10794" d="M454.693,933.47c-2.771-.66-4.338-1.688-4.791-3.143-.738-2.371,1.711-5.087,3.87-7.484.337-.374.663-.735.961-1.08a5.3,5.3,0,0,0,1.19-2.366c2-9.493-1.317-39.051-1.35-39.349l.907-.1c.139,1.22,3.37,30,1.337,39.64a6.212,6.212,0,0,1-1.393,2.776c-.3.349-.632.715-.973,1.093-1.9,2.106-4.26,4.726-3.677,6.6.344,1.107,1.734,1.956,4.13,2.527Z" transform="translate(-416.132 -806.074)" fill="#1b1b43"/>
        <path id="Path_10795" data-name="Path 10795" d="M605.844,951l-.041-.911c3.12-.139,5.028-.884,5.518-2.154s-.406-3.189-2.471-5.235a3.949,3.949,0,0,1-1.064-1.955c-1.641-7.38-3.39-31.775-3.407-32.021l.911-.065c.018.245,1.761,24.573,3.388,31.888a3.033,3.033,0,0,0,.816,1.5c2.368,2.348,3.32,4.554,2.679,6.212S609.4,950.845,605.844,951Z" transform="translate(-514.268 -824.301)" fill="#1b1b43"/>
        <path id="Path_10796" data-name="Path 10796" d="M647.822,862.084l-.82-.4,11.339-23.173,16.294,2.222-.123.905-15.64-2.132Z" transform="translate(-541.322 -779.774)" fill="#1b1b43"/>
      </g>
      <g id="Group_20200" data-name="Group 20200" transform="translate(366.661 104.106)">
        <path id="Path_10797" data-name="Path 10797" d="M1392.945,717.645c-5.4-3.272-6.621-12.632-1.6-15.448s8.219-.3,8.219-.3,16.846-6.145,23.21,9.512c4.794,11.8.989,17.959,5.175,23.895,4.769,6.764,12.4,12.86,2.435,24.732l-23.286-5.707-6.088-28.689Z" transform="translate(-1308.043 -700.705)" fill="#1b1b43"/>
        <g id="Group_20192" data-name="Group 20192" transform="translate(61.573 115.102)">
          <g id="Group_20190" data-name="Group 20190" transform="translate(85.451 164.798)">
            <path id="Path_10798" data-name="Path 10798" d="M1592.124,1466.99,1575,1474.522s2.46,6.357,4.565,13.752l17.607-5.624Z" transform="translate(-1573.656 -1466.99)" fill="#ffbc96"/>
            <path id="Path_10799" data-name="Path 10799" d="M1594.837,1509.86l-17.607,5.624c2.411,8.47,4.358,18.3,1.607,21.511-3.578,4.172-6.7,7.62-7.447,10.521a2.039,2.039,0,0,0,2.883,2.35l22.747-11.473a7.947,7.947,0,0,0,3.7-10.285Z" transform="translate(-1571.321 -1494.201)" fill="#1b1b43"/>
            <rect id="Rectangle_9096" data-name="Rectangle 9096" width="18.822" height="0.914" transform="translate(7.449 27.168) rotate(-17.373)" fill="#656590"/>
            <path id="Path_10800" data-name="Path 10800" d="M1582.431,1571.756l-.189-.893c4.36-.925,6.9-2.526,7.542-4.759,1.059-3.672-3.307-7.97-3.352-8.013l.637-.655c.2.191,4.8,4.727,3.593,8.92C1589.916,1568.94,1587.147,1570.755,1582.431,1571.756Z" transform="translate(-1578.253 -1524.399)" fill="#656590"/>
          </g>
          <g id="Group_20191" data-name="Group 20191" transform="translate(0 181.422)">
            <path id="Path_10801" data-name="Path 10801" d="M1406.285,1512.5l-19.786,1.826a101.264,101.264,0,0,1-.094,14.073l19.032-.28Z" transform="translate(-1368.498 -1512.5)" fill="#ffbc96"/>
            <path id="Path_10802" data-name="Path 10802" d="M1355.29,1555.543c-.538,6.241-1.955,12.5-5.385,13.931-7.305,3.044-13.089,5.175-12.48,9.436h28.086a7.947,7.947,0,0,0,7.935-7.517l.875-16.131Z" transform="translate(-1337.381 -1539.643)" fill="#1b1b43"/>
            <rect id="Rectangle_9097" data-name="Rectangle 9097" width="0.913" height="18.266" transform="translate(17.992 21.108) rotate(-89.049)" fill="#656590"/>
            <path id="Path_10803" data-name="Path 10803" d="M1363.025,1589.882a19.83,19.83,0,0,1-4.239-.539l.2-.892c4,.9,6.725.619,7.863-.794,1.515-1.883-.03-5.268-.045-5.3l.828-.385c.075.16,1.8,3.94-.072,6.259C1366.677,1589.33,1365.158,1589.882,1363.025,1589.882Z" transform="translate(-1350.967 -1556.595)" fill="#656590"/>
          </g>
          <path id="Path_10804" data-name="Path 10804" d="M1385.8,1201.924a6.138,6.138,0,0,1-.658.183c-3.954.913-17.04,0-17.04,0a13.617,13.617,0,0,1-1.7-.484c-12.236-4.456-11.406-25.852-9.57-44.563,1.689-17.158-5.479-104.713-.53-134.464l30.975-6.776.183,5.214.375,10.648.657,18.839s1.169,18.227,2.767,41.065c2.393,34.244,5.753,78.871,7.579,88C1401.747,1194.118,1390.745,1200.485,1385.8,1201.924Z" transform="translate(-1348.265 -1015.82)" fill="#06b2ff"/>
          <path id="Path_10805" data-name="Path 10805" d="M1488.7,1190.77a14.441,14.441,0,0,1-2.256,2.109c-4.164,3.205-9.78,4.383-14.711,5.717a18.487,18.487,0,0,1-2.694.521c-4.593.566-9.606-.484-11.752-4.383-10.995-20.035-23.386-59.8-33.2-95.335-7.178-25.943-12.976-49.64-15.862-61.721-1.269-5.342-1.973-8.41-1.973-8.41l14.036-.42,23.861-.721c.648,3.214,1.388,6.6,2.219,10.118,8.146,34.765,24.19,82.56,30.473,100.842,3.771,10.949,9.479,20.72,11.99,32.189C1490.156,1177.346,1493.261,1185.5,1488.7,1190.77Z" transform="translate(-1381.091 -1023.63)" fill="#06b2ff"/>
          <path id="Path_10806" data-name="Path 10806" d="M1416.607,1030.431a108.2,108.2,0,0,1-25.706,1.251,86.942,86.942,0,0,1-12.437-1.817c-12.5-2.758-19.094-7.269-19.094-7.269l30.975-6.776.183,5.214,23.861-.721C1415.041,1023.531,1415.778,1026.917,1416.607,1030.431Z" transform="translate(-1351.338 -1015.82)" fill="#1b1b43" opacity="0.6"/>
          <path id="Path_10807" data-name="Path 10807" d="M1420.2,1157.1l-9.552-33.835-9.826-3.576.314-.855,10.264,3.729.062.227,9.618,34.061Z" transform="translate(-1377.648 -1081.204)" fill="#1b1b43"/>
          <path id="Path_10808" data-name="Path 10808" d="M1531.491,1196l-.792-.456c4.609-8-4.63-32.664-16.326-63.886-11.358-30.317-25.492-68.047-30.6-101.711l.9-.137c5.1,33.569,19.215,71.25,30.557,101.528C1527.009,1162.785,1536.313,1187.624,1531.491,1196Z" transform="translate(-1430.297 -1024.699)" fill="#1b1b43"/>
        </g>
        <g id="Group_20196" data-name="Group 20196" transform="translate(0 42.123)">
          <path id="Path_10809" data-name="Path 10809" d="M1341.418,934.212c-1.1,7.716-2.758,17.8-2.758,17.8h-18.035l4.392-24.135,1.087-6s15.524,3.653,16.209,3.653C1342.576,925.528,1342.1,929.418,1341.418,934.212Z" transform="translate(-1265.173 -883.212)" fill="#ffbc96"/>
          <path id="Path_10810" data-name="Path 10810" d="M1349.051,934.212l-.822,1.817-15.579-8.155,1.087-6s15.524,3.653,16.209,3.653C1350.208,925.528,1349.737,929.418,1349.051,934.212Z" transform="translate(-1272.805 -883.212)" fill="#d28572"/>
          <path id="Path_10811" data-name="Path 10811" d="M1355.375,893.814s2.968,17.35-2.74,34.244c0,0,28.308,8.675,55.019-2.283l-6.164-39.038,2.055-19.861-40.864.457-13.926,4.566Z" transform="translate(-1283.028 -848.301)" fill="#1b1b43"/>
          <path id="Path_10812" data-name="Path 10812" d="M1396.838,838.142a17.09,17.09,0,0,0-11.19-10.715l-7.674-2.318c-3.09,4.5-8.6,10.233-16.653,10.233-9.463,0-15.4-5.433-18.67-9.871l-5.3,1.292a15.493,15.493,0,0,0-11.428,11.573L1320,864.032l17.122,3.272.457-19.633,44.517-2.055,1.141,14.611s12.86-5.631,21.384.152Z" transform="translate(-1264.776 -821.792)" fill="#1b1b43"/>
          <path id="Path_10813" data-name="Path 10813" d="M1524.415,830.718c-2.466,4.822-5.78,25.724-7.305,42.006a26.61,26.61,0,0,1-4.137,12.647c-3.1,4.548-7.506,6.611-11.78,6.155a11.628,11.628,0,0,1-4.785-1.607c-7.351-4.356-6.41-22.966-5.589-31.34.256-2.52.493-4.118.493-4.118,4.338-2.393,11.186-2.74,11.186-2.74.091-.941.2-1.89.311-2.867.931-8.41,2.347-17.953,3.571-24.3,1.37-7.077,4.109-4.447,4.109-4.447,1.37-2.52,3.424-.347,3.424-.347,1.826-4,4.109-.228,4.109-.228,2.849-4.109,4.411,2.055,4.411,2.055s8.849-7.287,10.355-5.178C1533.546,817.477,1527.91,823.87,1524.415,830.718Z" transform="translate(-1372.851 -816.026)" fill="#ffbc96"/>
          <g id="Group_20193" data-name="Group 20193" transform="translate(0 30.177)">
            <rect id="Rectangle_9098" data-name="Rectangle 9098" width="38.353" height="4.605" transform="translate(43.126 34.016)" fill="#fff"/>
            <path id="Path_10814" data-name="Path 10814" d="M1228.361,937.3H1188.8a4.874,4.874,0,0,1-4.427-2.835l-15.405-33.448a1.678,1.678,0,0,1,1.524-2.38h37.1a4.617,4.617,0,0,1,4.194,2.685Z" transform="translate(-1168.812 -898.641)" fill="#06b2ff"/>
          </g>
          <path id="Path_10815" data-name="Path 10815" d="M1293.411,995.48a19.4,19.4,0,0,1-2.009,4.922c-2.119,3.58-5.516,6.036-10.748,6.694a26.481,26.481,0,0,1-6.036.027c-18.126-1.8-23.368-11.716-23.368-11.716s-2.018-4.21,2.265-3.242c0,0,.8-2.676,4.109.119,0,0-.393-3.315,2.858-.283,0,0-.457-3.37,3.077-.457a15.566,15.566,0,0,0,10.565,3.936C1278.4,995.651,1293.411,995.48,1293.411,995.48Z" transform="translate(-1220.836 -926.68)" fill="#ffbc96"/>
          <g id="Group_20194" data-name="Group 20194" transform="translate(70.727 14.758)">
            <rect id="Rectangle_9099" data-name="Rectangle 9099" width="0.913" height="19.666" transform="matrix(0.998, -0.058, 0.058, 0.998, 0, 11.164)" fill="#5254cf"/>
            <path id="Path_10816" data-name="Path 10816" d="M1402.748,862.3a25.744,25.744,0,0,1-5.663-.621,22.126,22.126,0,0,1-8.714-3.9l.582-.7c.124.1,12.462,10,30.218-.648l.469.783A32.621,32.621,0,0,1,1402.748,862.3Z" transform="translate(-1378.901 -856.428)" fill="#5254cf"/>
            <rect id="Rectangle_9100" data-name="Rectangle 9100" width="0.914" height="9.006" transform="translate(46.576 14.758) rotate(-4.359)" fill="#5254cf"/>
            <path id="Path_10817" data-name="Path 10817" d="M1442.974,911.932a5.727,5.727,0,0,1-5.71-5.1l-.733-6.508,12.557-.826-.373,7a5.765,5.765,0,0,1-5.649,5.441Zm-5.428-10.764.626,5.558a4.834,4.834,0,0,0,9.632-.283l.318-5.97Z" transform="translate(-1409.469 -883.763)" fill="#5254cf"/>
          </g>
          <rect id="Rectangle_9101" data-name="Rectangle 9101" width="23.176" height="0.914" transform="matrix(0.142, -0.99, 0.99, 0.142, 125.857, 58.643)" fill="#d28572"/>
          <g id="Group_20195" data-name="Group 20195" transform="translate(137.324 3.024)">
            <rect id="Rectangle_9102" data-name="Rectangle 9102" width="0.685" height="3.829" transform="matrix(0.984, -0.179, 0.179, 0.984, 7.532, 0.544)" fill="#d28572"/>
            <rect id="Rectangle_9103" data-name="Rectangle 9103" width="0.685" height="3.829" transform="matrix(0.984, -0.179, 0.179, 0.984, 3.423, 0.658)" fill="#d28572"/>
            <rect id="Rectangle_9104" data-name="Rectangle 9104" width="0.685" height="3.829" transform="matrix(0.984, -0.179, 0.179, 0.984, 0, 0.886)" fill="#d28572"/>
            <rect id="Rectangle_9105" data-name="Rectangle 9105" width="0.685" height="6.092" transform="translate(11.011 0.24) rotate(-20.468)" fill="#d28572"/>
          </g>
          <path id="Path_10818" data-name="Path 10818" d="M1503.345,913.735l-11.725,6.831c.256-2.52.493-4.118.493-4.118C1496.449,914.055,1503.345,913.735,1503.345,913.735Z" transform="translate(-1373.709 -878.045)" fill="#d28572"/>
          <path id="Path_10819" data-name="Path 10819" d="M1531.849,1002.675c-3.1,4.548-7.506,6.611-11.78,6.155a6.179,6.179,0,0,1-.064-.922,7.078,7.078,0,0,1,11.844-5.232Z" transform="translate(-1391.725 -933.327)" fill="#fe5b52" opacity="0.4"/>
          <path id="Path_10820" data-name="Path 10820" d="M1343.275,1016.041c-2.119,3.58-5.516,6.036-10.748,6.694q-.027-.329-.027-.658a7.08,7.08,0,0,1,10.775-6.036Z" transform="translate(-1272.71 -942.321)" fill="#fe5b52" opacity="0.4"/>
          <path id="Path_10821" data-name="Path 10821" d="M1281.334,999.343c-1.805-.353-4.063-3.146-4.82-4.61l.608-.315c.78,1.507,2.909,3.972,4.344,4.252Z" transform="translate(-1237.174 -929.257)" fill="#d28572"/>
          <path id="Path_10822" data-name="Path 10822" d="M1271.869,1000.259a18.57,18.57,0,0,1-3.511-4.879l.632-.267a17.831,17.831,0,0,0,3.37,4.667Z" transform="translate(-1231.997 -929.698)" fill="#d28572"/>
          <path id="Path_10823" data-name="Path 10823" d="M1260.309,999.939a18.577,18.577,0,0,1-3.511-4.879l.632-.267a17.831,17.831,0,0,0,3.37,4.667Z" transform="translate(-1224.66 -929.495)" fill="#d28572"/>
        </g>
        <g id="Group_20199" data-name="Group 20199" transform="translate(77.878 4.841)">
          <path id="Path_10824" data-name="Path 10824" d="M1417.342,779.288c-3.1,4.5-8.611,10.237-16.656,10.237-9.46,0-15.4-5.433-18.665-9.871l9.762-2.383c.238-1.753.438-3.461.6-5.077.128-1.269.237-2.484.338-3.634.164-1.89.274-3.6.365-5.059.119-2,.174-3.516.2-4.356.018-.484.018-.74.018-.74l13.7-5.479s-.457,17.807,3.653,24.345Z" transform="translate(-1382.02 -738.692)" fill="#ffbc96"/>
          <path id="Path_10825" data-name="Path 10825" d="M1422.2,783.4s-3.665,4.286-11.8,7.171c.128-1.269.237-2.484.338-3.634.164-1.89.274-3.6.365-5.059Z" transform="translate(-1400.035 -757.067)" fill="#d28572"/>
          <path id="Path_10826" data-name="Path 10826" d="M1396.33,720.649s-7,19.024-1.979,22.525c4.467,3.114,10.349,3.5,16.133,1.979l3.8-12.937-2.283-12.632Z" transform="translate(-1388.696 -717.529)" fill="#ffbc96"/>
          <path id="Path_10827" data-name="Path 10827" d="M1418.9,728.8s-4.944,1.9-7-5.022c-1.674-5.631-8.979-6.7-8.979-6.7l2.968-2.74,14.078-.381,5.175,6.316-1.75,8.219Z" transform="translate(-1395.286 -713.958)" fill="#1b1b43"/>
          <ellipse id="Ellipse_277" data-name="Ellipse 277" cx="5.783" cy="4.566" rx="5.783" ry="4.566" transform="matrix(0.5, -0.866, 0.866, 0.5, 19.195, 19.253)" fill="#ffbc96"/>
          <path id="Path_10828" data-name="Path 10828" d="M1447.72,757.615l-.685-.007c0-.043.09-4.3,4.317-4.789l.078.68A4.148,4.148,0,0,0,1447.72,757.615Z" transform="translate(-1423.287 -738.624)" fill="#1b1b43"/>
          <g id="Group_20198" data-name="Group 20198" transform="translate(5.484 9.38)">
            <circle id="Ellipse_278" data-name="Ellipse 278" cx="0.78" cy="0.78" r="0.78" transform="translate(0.435 2.187)" fill="#1b1b43"/>
            <path id="Path_10829" data-name="Path 10829" d="M1413.788,749.082a.944.944,0,1,1-.944-.944A.944.944,0,0,1,1413.788,749.082Z" transform="translate(-1406.47 -745.033)" fill="#1b1b43"/>
            <path id="Path_10830" data-name="Path 10830" d="M1399.958,740.827h-2.33a.6.6,0,0,1-.595-.595h0a.6.6,0,0,1,.595-.595h2.33a.6.6,0,0,1,.595.595h0A.594.594,0,0,1,1399.958,740.827Z" transform="translate(-1397.034 -739.638)" fill="#1b1b43"/>
            <path id="Path_10831" data-name="Path 10831" d="M1415.95,743.493l-2.577-1.089a.6.6,0,0,1-.316-.779h0a.6.6,0,0,1,.779-.316l2.577,1.089a.6.6,0,0,1,.316.779h0A.594.594,0,0,1,1415.95,743.493Z" transform="translate(-1407.174 -740.668)" fill="#1b1b43"/>
            <path id="Path_10832" data-name="Path 10832" d="M1398.218,754.761a.342.342,0,0,1-.317-.212,2.542,2.542,0,0,1-.036-2.536,2.079,2.079,0,0,1,1.661-.685l.87-1.689a.342.342,0,1,1,.608.314l-1.077,2.092-.235-.026c-.01,0-.909-.091-1.283.408-.271.361-.228,1,.125,1.861a.342.342,0,0,1-.186.447A.364.364,0,0,1,1398.218,754.761Z" transform="translate(-1397.361 -745.868)" fill="#1b1b43"/>
            <g id="Group_20197" data-name="Group 20197" transform="translate(0.331 10.525)">
              <path id="Path_10833" data-name="Path 10833" d="M1399.82,772.127c1.326,1.869,3,1.071,4.149.114A24.158,24.158,0,0,1,1399.82,772.127Z" transform="translate(-1399.134 -770.785)" fill="#1b1b43"/>
              <path id="Path_10834" data-name="Path 10834" d="M1402.777,769.908a8.992,8.992,0,0,0,1.276-1.329c.016-.021-.005-.044-.031-.043a36.655,36.655,0,0,1-6.052-.084c-.023,0-.035.023-.026.045a6.194,6.194,0,0,0,.684,1.3A24.157,24.157,0,0,0,1402.777,769.908Z" transform="translate(-1397.941 -768.453)" fill="#fff"/>
            </g>
            <path id="Path_10835" data-name="Path 10835" d="M1424.9,758.065a2.387,2.387,0,1,1-2.387-2.387A2.387,2.387,0,0,1,1424.9,758.065Z" transform="translate(-1411.692 -749.819)" fill="#fe5b52" opacity="0.4"/>
          </g>
        </g>
      </g>
      <rect id="Rectangle_9106" data-name="Rectangle 9106" width="609.998" height="0.913" transform="translate(0 439.438)" fill="#9ab0d1"/>
    </g>
  </g>
</svg>
