<svg xmlns="http://www.w3.org/2000/svg" width="54.771" height="57" viewBox="0 0 54.771 57">
  <g id="Group_69742" data-name="Group 69742" transform="translate(1125.987 -129.576)">
    <path id="Path_50440" data-name="Path 50440" d="M-1034.436,257.7a3.924,3.924,0,0,1-1.837-1.179,4.5,4.5,0,0,1-.555-3.622c.02-.142.071-.28-.032-.314a10.144,10.144,0,0,1-1.621-1.6,4.094,4.094,0,0,1,.812-4.916.759.759,0,0,0,.2-.605,9.774,9.774,0,0,0-3.2-5.7,15.234,15.234,0,0,1-5.148-9.037,14.817,14.817,0,0,1,9.306-16.418c5.764-2.106,11.249-1.47,16.072,2.442a14.209,14.209,0,0,1,5.271,13.143,14.687,14.687,0,0,1-5.2,9.829,10.038,10.038,0,0,0-3.25,5.681.66.66,0,0,0,.277.754,2.775,2.775,0,0,1,1.151,2.412,8.529,8.529,0,0,1-.308,2.226,2.759,2.759,0,0,1-1.84,1.635c.627,3.053-.159,4.557-2.305,5.267Zm5.023-24.5c0-.486-.016-.929,0-1.37a3.345,3.345,0,0,1,1.665-2.848,4.124,4.124,0,0,1,2.805-.416,3.311,3.311,0,0,1,2.764,3.894,3.343,3.343,0,0,1-3.251,2.743c-.66.01-1.319,0-1.959,0v10.239h1.715a1.017,1.017,0,0,0,.092-.211,13.125,13.125,0,0,1,4.39-7.454,12.983,12.983,0,0,0,.425-18.715c-3.784-3.723-8.428-4.661-13.476-3.425a12.719,12.719,0,0,0-9.74,13.968,12.843,12.843,0,0,0,4.6,8.672,11.513,11.513,0,0,1,3.464,5.276c.2.613.327,1.248.487,1.869h1.828v-10.22c-.71,0-1.378.031-2.043-.007a3.244,3.244,0,0,1-2.853-1.831,3.121,3.121,0,0,1,.183-3.325,3.493,3.493,0,0,1,3.314-1.521,3.336,3.336,0,0,1,3.375,3.162c.038.494.006.994.006,1.519Zm-1.108,14.243c-1.724,0-3.448-.005-5.172,0a1.11,1.11,0,0,0-1.246,1.178c-.011.185-.007.371,0,.556.013,1.037.381,1.41,1.408,1.411q2.753,0,5.506,0c1.557,0,3.115.006,4.672,0a1.1,1.1,0,0,0,1.217-1.149c.016-.24.013-.482,0-.723-.03-.884-.426-1.269-1.323-1.272C-1027.148,247.44-1028.835,247.444-1030.522,247.444Zm-.041,8.279c1.094,0,2.187.01,3.281,0a1.087,1.087,0,0,0,1.164-1.028,4.789,4.789,0,0,0-.007-1.108,1.1,1.1,0,0,0-1.139-1q-3.281-.017-6.561,0a1.114,1.114,0,0,0-1.142,1.067,5.623,5.623,0,0,0-.01.889,1.132,1.132,0,0,0,1.246,1.186C-1032.676,255.733-1031.619,255.725-1030.563,255.724Zm1.108-10.284V235.232h-2.113v10.207Zm2.029-12.222c.755,0,1.438.031,2.118-.009a1.349,1.349,0,0,0,1.229-1.341,1.345,1.345,0,0,0-1.217-1.347,5.1,5.1,0,0,0-.941,0,1.311,1.311,0,0,0-1.182,1.2C-1027.452,232.2-1027.426,232.677-1027.426,233.218Zm-6.136-.01c0-.482.019-.888,0-1.292a1.377,1.377,0,0,0-1.455-1.412,4.975,4.975,0,0,0-.665.016,1.344,1.344,0,0,0-1.206,1.3,1.323,1.323,0,0,0,1.119,1.376C-1035.063,233.255-1034.342,233.208-1033.562,233.208Z" transform="translate(-68.054 -71.126)" fill="#002d7c"/>
    <path id="Path_50441" data-name="Path 50441" d="M-1087.667,175.335l1.389-1.439c.8.815,1.585,1.62,2.378,2.417s1.095.787,1.9.018q1.406-1.348,2.8-2.707c.574-.56.573-.987,0-1.565-.771-.777-1.551-1.545-2.321-2.323a1.014,1.014,0,0,1-.161-1.487,20.349,20.349,0,0,0,2.928-6.912,1.027,1.027,0,0,1,1.189-.917c1.094,0,2.189,0,3.284,0,.818,0,1.126-.291,1.131-1.085q.013-2.087,0-4.174c-.005-.762-.327-1.083-1.089-1.09-1.187-.011-2.375,0-3.562,0a1.014,1.014,0,0,1-1.186-.973,19.231,19.231,0,0,0-2.672-6.716c-.566-.91-.534-1.178.218-1.928s1.5-1.492,2.244-2.242c.558-.562.575-.972.042-1.531q-1.461-1.529-2.944-3.036a.9.9,0,0,0-1.488.012c-.78.767-1.548,1.548-2.327,2.317a1.063,1.063,0,0,1-1.581.167,20.106,20.106,0,0,0-6.868-2.892,1,1,0,0,1-.919-1.129c-.013-1.15,0-2.3-.007-3.451-.006-.894-.228-1.11-1.121-1.11-1.336,0-2.672,0-4.007,0-.869,0-1.116.252-1.12,1.133-.005,1.132,0,2.264,0,3.4-.006.846-.25,1.132-1.065,1.287a19.758,19.758,0,0,0-6.714,2.685c-.847.523-1.139.489-1.842-.211-.776-.772-1.547-1.55-2.327-2.317a.9.9,0,0,0-1.452-.034q-1.577,1.492-3.125,3.013a.871.871,0,0,0,.015,1.4c.78.794,1.577,1.571,2.362,2.361a1.062,1.062,0,0,1,.161,1.582,20.038,20.038,0,0,0-2.891,6.809,1.038,1.038,0,0,1-1.209.958c-1.094,0-2.189,0-3.284,0-.81,0-1.114.3-1.119,1.1q-.011,2.059,0,4.119c0,.852.3,1.133,1.144,1.134,1.15,0,2.3,0,3.451,0a.994.994,0,0,1,1.12.921,19.3,19.3,0,0,0,2.769,6.913,1.1,1.1,0,0,1-.19,1.669c-.8.8-1.6,1.6-2.4,2.4a.9.9,0,0,0-.038,1.451q1.5,1.573,3.023,3.115a.875.875,0,0,0,1.407-.014c.831-.82,1.643-1.659,2.446-2.472l1.323,1.4c-.842.867-1.712,1.861-2.686,2.74a2.753,2.753,0,0,1-3.75-.133q-1.706-1.677-3.334-3.433a2.806,2.806,0,0,1,.064-3.882c.63-.655,1.276-1.3,1.932-1.925a.415.415,0,0,0,.093-.61,21.034,21.034,0,0,1-2.464-6.166c-.982,0-1.961.008-2.939,0a2.582,2.582,0,0,1-2.792-2.139,34.73,34.73,0,0,1,.008-6.092,2.613,2.613,0,0,1,2.742-2.07c.927-.012,1.855-.009,2.782-.013.018,0,.035-.011-.093.033l2.788-6.558c-.524-.52-1.182-1.168-1.835-1.821a2.829,2.829,0,0,1-.01-4.162q1.606-1.582,3.246-3.128a2.836,2.836,0,0,1,4.009.028c.731.708,1.427,1.451,2.091,2.129,1.143-.548,2.171-1.1,3.247-1.539s2.2-.757,3.378-1.155c0-.871,0-1.813,0-2.755a2.83,2.83,0,0,1,3.133-3.123c1.429,0,2.857,0,4.286,0a2.674,2.674,0,0,1,2.727,2.587c.041.963,0,1.929.032,2.893,0,.155.134.411.253.443a23.742,23.742,0,0,1,6.2,2.683c.657-.671,1.3-1.339,1.953-1.99a2.84,2.84,0,0,1,4.166.009q1.567,1.582,3.1,3.2a2.836,2.836,0,0,1-.048,4.089c-.687.7-1.392,1.385-2.118,2.106a22.259,22.259,0,0,1,2.645,6.5c1,0,1.979-.015,2.958,0,1.47.028,2.734.757,2.858,2.065a35.169,35.169,0,0,1,.009,6.2,2.6,2.6,0,0,1-2.706,2.041c-.963.013-1.926,0-2.85,0-.4,1.124-.739,2.221-1.185,3.272s-1,2.061-1.561,3.2c.582.57,1.233,1.194,1.871,1.832a2.856,2.856,0,0,1-.033,4.324c-1.028.992-2.05,1.99-3.087,2.971a2.85,2.85,0,0,1-4.133-.035C-1085.92,177.094-1086.791,176.21-1087.667,175.335Z" fill="#009eff"/>
  </g>
</svg>
