<svg xmlns="http://www.w3.org/2000/svg" width="20.276" height="20.275"  fill="#06b2ff" xmlns:v="https://vecta.io/nano"><path d="M17.306 0H2.97C1.331.002.002 1.331 0 2.97v14.336c.002 1.639 1.331 2.968 2.97 2.97h14.336c1.639-.002 2.968-1.331 2.97-2.97V2.97C20.274 1.331 18.945.002 17.306 0zm-7.129 15.444c-2.162 0-4.112-1.303-4.939-3.301s-.369-4.297 1.16-5.826 3.829-1.985 5.827-1.157 3.299 2.778 3.299 4.94c-.004 2.951-2.396 5.341-5.347 5.344zm5.94-9.5a1.782 1.782 0 0 1-.001-3.564A1.78 1.78 0 0 1 17.9 4.158c-.001.984-.798 1.781-1.782 1.782zm-5.94-.005a4.16 4.16 0 1 0 4.158 4.158c-.003-2.295-1.863-4.155-4.158-4.158zm0 0"/></svg>