<svg xmlns="http://www.w3.org/2000/svg" xmlns:xlink="http://www.w3.org/1999/xlink" width="432.417" height="262.439" viewBox="0 0 432.417 262.439">
  <defs>
    <linearGradient id="linear-gradient" x1="0.139" y1="0.179" x2="1.026" y2="1.062" gradientUnits="objectBoundingBox">
      <stop offset="0" stop-color="#faa"/>
      <stop offset="1" stop-color="#ff0101"/>
    </linearGradient>
    <linearGradient id="linear-gradient-2" x1="0.5" x2="0.5" y2="1" gradientUnits="objectBoundingBox">
      <stop offset="0" stop-color="#06b2ff"/>
      <stop offset="1" stop-color="#1746b4"/>
    </linearGradient>
    <linearGradient id="linear-gradient-6" x1="0.5" x2="0.5" y2="1" gradientUnits="objectBoundingBox">
      <stop offset="0" stop-color="#ab0000"/>
      <stop offset="1" stop-color="#500"/>
    </linearGradient>
    <linearGradient id="linear-gradient-7" x1="0.5" x2="0.5" y2="1" gradientUnits="objectBoundingBox">
      <stop offset="0" stop-color="red"/>
      <stop offset="1" stop-color="#8e0000"/>
    </linearGradient>
  </defs>
  <g id="Group_18764" data-name="Group 18764" transform="translate(-438 -1206)">
    <circle id="Ellipse_408" data-name="Ellipse 408" cx="87" cy="87" r="87" transform="translate(565 1256)" fill="#f33" opacity="0.1"/>
    <circle id="Ellipse_407" data-name="Ellipse 407" cx="61" cy="61" r="61" transform="translate(591 1282)" fill="url(#linear-gradient)"/>
    <g id="Group_18753" data-name="Group 18753" transform="translate(223.296 -8538.697)">
      <g id="Group_18625" data-name="Group 18625" transform="translate(303.083 9872.266)">
        <path id="Path_33953" data-name="Path 33953" d="M535.8,461.256a3.256,3.256,0,1,1,3.256,3.256A3.246,3.246,0,0,1,535.8,461.256Z" transform="translate(-535.208 -457.408)" fill="#ff3535"/>
      </g>
      <g id="Group_18626" data-name="Group 18626" transform="translate(546.295 9859.731)">
        <path id="Path_33955" data-name="Path 33955" d="M768.5,344.556a3.256,3.256,0,1,1,3.256,3.256A3.246,3.246,0,0,1,768.5,344.556Z" transform="translate(-767.908 -340.649)" fill="#06b2ff"/>
      </g>
      <g id="Group_18755" data-name="Group 18755" transform="translate(309.594 9999.975)">
        <path id="Path_33955-2" data-name="Path 33955" d="M768.5,344.556a3.256,3.256,0,1,1,3.256,3.256A3.246,3.246,0,0,1,768.5,344.556Z" transform="translate(-767.908 -340.649)" fill="#06b2ff"/>
      </g>
      <g id="Group_18627" data-name="Group 18627" transform="translate(635.638 9967.143)">
        <path id="Path_33957" data-name="Path 33957" d="M781.7,649.846a5.446,5.446,0,1,1,5.446,5.446A5.431,5.431,0,0,1,781.7,649.846Z" transform="translate(-781.108 -643.808)" fill="#ff3535"/>
      </g>
      <g id="Group_18756" data-name="Group 18756" transform="translate(254.638 9772.251)">
        <path id="Path_33957-2" data-name="Path 33957" d="M781.7,649.846a5.446,5.446,0,1,1,5.446,5.446A5.431,5.431,0,0,1,781.7,649.846Z" transform="translate(-781.108 -643.808)" fill="#06b2ff"/>
      </g>
      <g id="Group_18754" data-name="Group 18754" transform="translate(572.083 9754.697)">
        <path id="Path_33957-3" data-name="Path 33957" d="M781.7,649.846a5.446,5.446,0,1,1,5.446,5.446A5.431,5.431,0,0,1,781.7,649.846Z" transform="translate(-781.108 -643.808)" fill="#ff3535"/>
      </g>
    </g>
    <g id="Group_18757" data-name="Group 18757" transform="translate(56 5)">
      <path id="Line_79" data-name="Line 79" d="M0,10A1,1,0,0,1-1,9V0A1,1,0,0,1,0-1,1,1,0,0,1,1,0V9A1,1,0,0,1,0,10Z" transform="translate(784 1319)" fill="url(#linear-gradient-2)"/>
      <path id="Line_80" data-name="Line 80" d="M0,10A1,1,0,0,1-1,9V0A1,1,0,0,1,0-1,1,1,0,0,1,1,0V9A1,1,0,0,1,0,10Z" transform="translate(789 1323) rotate(90)" fill="url(#linear-gradient-2)"/>
    </g>
    <g id="Group_18758" data-name="Group 18758" transform="translate(-155 -112)">
      <path id="Line_79-2" data-name="Line 79" d="M0,10A1,1,0,0,1-1,9V0A1,1,0,0,1,0-1,1,1,0,0,1,1,0V9A1,1,0,0,1,0,10Z" transform="translate(784 1319)" fill="url(#linear-gradient-2)"/>
      <path id="Line_80-2" data-name="Line 80" d="M0,10A1,1,0,0,1-1,9V0A1,1,0,0,1,0-1,1,1,0,0,1,1,0V9A1,1,0,0,1,0,10Z" transform="translate(789 1323) rotate(90)" fill="url(#linear-gradient-2)"/>
    </g>
    <g id="Group_18760" data-name="Group 18760" transform="translate(-32 131)">
      <path id="Line_79-3" data-name="Line 79" d="M0,10A1,1,0,0,1-1,9V0A1,1,0,0,1,0-1,1,1,0,0,1,1,0V9A1,1,0,0,1,0,10Z" transform="translate(784 1319)" fill="url(#linear-gradient-6)"/>
      <path id="Line_80-3" data-name="Line 80" d="M0,10A1,1,0,0,1-1,9V0A1,1,0,0,1,0-1,1,1,0,0,1,1,0V9A1,1,0,0,1,0,10Z" transform="translate(789 1323) rotate(90)" fill="url(#linear-gradient-7)"/>
    </g>
    <g id="Group_18759" data-name="Group 18759" transform="translate(-341 101)">
      <path id="Line_79-4" data-name="Line 79" d="M0,10A1,1,0,0,1-1,9V0A1,1,0,0,1,0-1,1,1,0,0,1,1,0V9A1,1,0,0,1,0,10Z" transform="translate(784 1319)" fill="url(#linear-gradient-2)"/>
      <path id="Line_80-4" data-name="Line 80" d="M0,10A1,1,0,0,1-1,9V0A1,1,0,0,1,0-1,1,1,0,0,1,1,0V9A1,1,0,0,1,0,10Z" transform="translate(789 1323) rotate(90)" fill="url(#linear-gradient-2)"/>
    </g>
    <path id="Path_33958" data-name="Path 33958" d="M273.671,310.774A6.374,6.374,0,1,1,267.3,304.4,6.374,6.374,0,0,1,273.671,310.774ZM234.443,304.4a6.374,6.374,0,1,0,6.374,6.374A6.379,6.379,0,0,0,234.443,304.4Zm-1.163,37.343a21.325,21.325,0,0,1,35.179,0,3.9,3.9,0,0,0,6.428-4.418,29.122,29.122,0,0,0-48.018,0,3.893,3.893,0,1,0,6.41,4.418Z" transform="translate(401.125 1018.601)" fill="#fff"/>
  </g>
</svg>
