<svg xmlns="http://www.w3.org/2000/svg" xmlns:xlink="http://www.w3.org/1999/xlink" width="580.382" height="592.1" viewBox="0 0 580.382 592.1">
  <defs>
    <linearGradient id="linear-gradient" x1="-0.072" y1="1.21" x2="1" y2="0.015" gradientUnits="objectBoundingBox">
      <stop offset="0" stop-color="#1746b4" stop-opacity="0.102"/>
      <stop offset="1" stop-color="#1746b4"/>
    </linearGradient>
    <clipPath id="clip-path">
      <ellipse id="Ellipse_11" data-name="Ellipse 11" cx="41.907" cy="28.054" rx="41.907" ry="28.054" transform="translate(0 53.072) rotate(-39.286)"/>
    </clipPath>
    <clipPath id="clip-path-2">
      <ellipse id="Ellipse_13" data-name="Ellipse 13" cx="42.827" cy="28.67" rx="42.827" ry="28.67" transform="translate(0 54.236) rotate(-39.286)"/>
    </clipPath>
  </defs>
  <g id="illu_01" data-name="illu 01" transform="translate(-286.291 -163.543)">
    <path id="Path_1" data-name="Path 1" d="M344.711,336.757c18.548-81.536,103.326-130.47,182.931-104.869q2.4.772,4.838,1.61c104.061,35.772,69.915,141.456,121.945,173.974s89.427,79.67,66.664,141.457-160.968,120.319-269.9,53.655C365.549,550.184,321.108,440.515,344.711,336.757Z" transform="translate(61.795 73.824)" fill="none" stroke="rgba(6,178,255,0.53)" stroke-width="1.109"/>
    <circle id="Ellipse_7" data-name="Ellipse 7" cx="67.476" cy="67.476" r="67.476" transform="translate(286.926 359.275) rotate(-80.909)" fill="none" stroke="rgba(6,178,255,0.53)" stroke-width="1.109"/>
    <g id="Group_86" data-name="Group 86" transform="translate(331.326 163.543)">
      <path id="Path_2" data-name="Path 2" d="M602.275,578.474h-236a7.318,7.318,0,0,1-6.684-10.3L527.046,192.586a7.32,7.32,0,0,1,6.683-4.338h236a7.318,7.318,0,0,1,6.684,10.3L608.958,574.135A7.314,7.314,0,0,1,602.275,578.474Z" transform="translate(-244.895 -133.897)" fill="url(#linear-gradient)"/>
      <path id="Path_3" data-name="Path 3" d="M632.688,343.187l76.161-170.828a6.265,6.265,0,0,0-5.722-8.815H489.432a20.09,20.09,0,0,0-18.348,11.908L393.766,348.874a6.265,6.265,0,0,0,5.722,8.815H610.343A24.462,24.462,0,0,0,632.688,343.187Z" transform="translate(-203.78 -163.543)" fill="#fff"/>
      <path id="Path_4" data-name="Path 4" d="M620.124,396.4l76.161-170.828a6.265,6.265,0,0,0-5.722-8.815H476.868a20.09,20.09,0,0,0-18.348,11.909L381.2,402.087a6.264,6.264,0,0,0,5.722,8.815H597.779A24.464,24.464,0,0,0,620.124,396.4Z" transform="translate(-218.857 -99.688)" fill="none" stroke="#06b2ff" stroke-width="1.109"/>
      <path id="Path_5" data-name="Path 5" d="M540.926,270.978h9.757L524.463,322.2H365.935l6.4-12.5" transform="translate(-236.517 -34.623)" fill="none" stroke="#a1c2ff" stroke-width="0.554" opacity="0.39"/>
      <g id="Group_49" data-name="Group 49" transform="translate(239.133 8.325)">
        <g id="Group_44" data-name="Group 44" transform="translate(0 0)">
          <ellipse id="Ellipse_8" data-name="Ellipse 8" cx="48.125" cy="36.163" rx="48.125" ry="36.163" transform="translate(0 63.043) rotate(-40.921)" fill="#e6f4ff"/>
          <g id="Group_43" data-name="Group 43" transform="translate(7.062 6.918)">
            <ellipse id="Ellipse_9" data-name="Ellipse 9" cx="42.464" cy="31.909" rx="42.464" ry="31.909" transform="translate(0 55.628) rotate(-40.921)" fill="#94c3ff"/>
          </g>
        </g>
        <g id="Group_48" data-name="Group 48" transform="translate(25.294 30.214)">
          <g id="Group_47" data-name="Group 47">
            <g id="Group_46" data-name="Group 46" transform="translate(0 4.445)">
              <g id="Group_45" data-name="Group 45">
                <path id="Path_6" data-name="Path 6" d="M462.76,197.427s-19.34,3.2-27.6,6.453c-5.608,3.377-6.5,6.063-7.839,10.091,0,0-.013.026-.02.042,4.5,7.861,13.055,12.857,24.228,12.857,14.436,0,29.284-8.331,38.786-20.429C485.143,198.846,462.76,197.427,462.76,197.427Z" transform="translate(-427.303 -165.867)" fill="#4361c4"/>
                <path id="Path_7" data-name="Path 7" d="M442.2,198.363l-3.335,14.091a2.673,2.673,0,0,0,2.127,3.509,15.816,15.816,0,0,0,11.207-2.446,4.991,4.991,0,0,0,2.334-3.674c.469-6.576,1.8-20.055,1.8-20.055Z" transform="translate(-413.55 -175.035)" fill="#ff8d68"/>
                <path id="Path_8" data-name="Path 8" d="M443.075,191.478s-9.082,18.394-7.315,23.333c2.046,3.373,20.31-4.2,23.3-9.132s9.863-13.862,4.51-19.448S449.948,182.546,443.075,191.478Z" transform="translate(-417.428 -183.081)" fill="#ff8d68"/>
              </g>
            </g>
            <path id="Path_9" data-name="Path 9" d="M439.079,193.9s-1.6-6.5,3.9-10.324,12.553-3.062,15.092.766a42,42,0,0,1,2.757,4.4,5.174,5.174,0,0,1,3.606,3.445c.9,2.871-4.822,10.144-7.15,12.249s-1.848,2.16-1.848,2.16l-.779-1.012a45.618,45.618,0,0,1,1.569-8.8c.3-1.723-1.663-4.211-5.135-4.785S446.343,194.657,439.079,193.9Z" transform="translate(-413.432 -181.061)" fill="#7e3636"/>
            <path id="Path_10" data-name="Path 10" d="M448.028,191.684s1.261-2.345,3.511-1.683c2.233.748-2.226,7.775-4.589,7.289C444.686,196.709,448.028,191.684,448.028,191.684Z" transform="translate(-404.671 -170.474)" fill="#ff8d68"/>
            <path id="Path_11" data-name="Path 11" d="M456.127,197.69s-4.855,5.359-9.631,6.89c-.838.255-2.079,1.914-2.079,1.914l-.873-2.3s-3.278-1.914-2.328-5.232l-.656.51-1.753,4.338s-1.3,4.083-1.228,5.614l4.4-2.424a8.57,8.57,0,0,0,4.811.128s.909,3.062,1.729,3.318,7.462-6,8.466-8.166a8.134,8.134,0,0,0,.86-4.338Z" transform="translate(-414.976 -161.107)" fill="#fff"/>
          </g>
        </g>
      </g>
      <g id="Group_50" data-name="Group 50" transform="translate(349.564 36.929)">
        <path id="Path_12" data-name="Path 12" d="M562.178,226.617H469.605c-2.84,0-4.305-2.3-3.271-5.144l13.1-36a8.136,8.136,0,0,1,7.016-5.144h92.573c2.84,0,4.305,2.3,3.271,5.144l-13.1,36A8.138,8.138,0,0,1,562.178,226.617Z" transform="translate(-466.002 -180.329)" fill="#a1c2ff" opacity="0.39"/>
        <path id="Path_13" data-name="Path 13" d="M555.63,189.836H475.916l1.4-3.857h79.714Z" transform="translate(-454.106 -173.549)" fill="#94c3ff"/>
        <path id="Path_14" data-name="Path 14" d="M522.426,193.927h-48l1.4-3.857h48Z" transform="translate(-455.893 -168.64)" fill="#94c3ff"/>
        <path id="Path_15" data-name="Path 15" d="M485.509,197.63h-12.43l1.406-3.859h12.428Z" transform="translate(-457.51 -164.199)" fill="#94c3ff"/>
      </g>
      <g id="Group_53" data-name="Group 53" transform="translate(330.322 93.983)">
        <path id="Path_16" data-name="Path 16" d="M476.157,212.056c-1.291,3.2-4.935,5.793-8.133,5.793s-4.745-2.594-3.452-5.793,4.935-5.793,8.133-5.793S477.451,208.857,476.157,212.056Z" transform="translate(-449.024 -206.263)" fill="#94c3ff"/>
        <path id="Path_17" data-name="Path 17" d="M485.3,212.056c-1.292,3.2-4.935,5.793-8.133,5.793s-4.745-2.594-3.452-5.793,4.935-5.793,8.133-5.793S486.6,208.857,485.3,212.056Z" transform="translate(-438.049 -206.263)" fill="#94c3ff"/>
        <path id="Path_18" data-name="Path 18" d="M494.449,212.056c-1.291,3.2-4.935,5.793-8.133,5.793s-4.745-2.594-3.452-5.793,4.935-5.793,8.133-5.793S495.743,208.857,494.449,212.056Z" transform="translate(-427.074 -206.263)" fill="#94c3ff"/>
        <path id="Path_19" data-name="Path 19" d="M503.6,212.056c-1.291,3.2-4.935,5.793-8.133,5.793s-4.745-2.594-3.452-5.793,4.935-5.793,8.133-5.793S504.889,208.857,503.6,212.056Z" transform="translate(-416.099 -206.263)" fill="#ff8d02"/>
        <path id="Path_20" data-name="Path 20" d="M512.741,212.056c-1.294,3.2-4.935,5.793-8.133,5.793s-4.745-2.594-3.452-5.793,4.935-5.793,8.133-5.793S514.035,208.857,512.741,212.056Z" transform="translate(-405.124 -206.263)" fill="#a1c2ff" opacity="0.39"/>
        <g id="Group_52" data-name="Group 52" transform="translate(0 15.549)">
          <g id="Group_51" data-name="Group 51" transform="translate(4.961 4.145)">
            <path id="Path_21" data-name="Path 21" d="M512.808,216.9l-25.542,26.547L460.8,253.94l30,22.02,30.146-25.724Z" transform="translate(-457.961 -213.194)" fill="#a1c2ff" opacity="0.39"/>
            <path id="Path_22" data-name="Path 22" d="M501.314,223.909l-19.492,11.125L465.34,245.453,487.7,261.509,508.834,242.2Z" transform="translate(-452.516 -204.782)" fill="#a1c2ff" opacity="0.7"/>
            <path id="Path_23" data-name="Path 23" d="M512.808,216.9l-25.542,26.547L460.8,253.94l29.913,22.224,30.23-25.929Z" transform="translate(-457.961 -213.194)" fill="none" stroke="#4361c4" stroke-width="0.281"/>
            <path id="Path_24" data-name="Path 24" d="M481.09,234.185a3.084,3.084,0,0,1-2.6,1.852c-1.023,0-1.518-.829-1.1-1.852a3.084,3.084,0,0,1,2.6-1.852C481.008,232.333,481.5,233.162,481.09,234.185Z" transform="translate(-438.238 -194.674)" fill="#4361c4"/>
            <path id="Path_25" data-name="Path 25" d="M477.247,224.85l22.6,17.9-40.341,2.057" transform="translate(-459.511 -203.653)" fill="none" stroke="#4361c4" stroke-width="0.281"/>
            <path id="Path_26" data-name="Path 26" d="M473.64,264.49l10.082-30.043,26.6-2.675" transform="translate(-442.557 -195.347)" fill="none" stroke="#4361c4" stroke-width="0.281"/>
            <line id="Line_8" data-name="Line 8" x1="15.178" y2="39.1" transform="translate(41.166)" fill="none" stroke="#4361c4" stroke-width="0.281"/>
          </g>
          <path id="Path_27" data-name="Path 27" d="M472.033,226.39a5.178,5.178,0,0,1-4.365,3.109c-1.716,0-2.545-1.393-1.852-3.109a5.175,5.175,0,0,1,4.365-3.109C471.9,223.281,472.726,224.674,472.033,226.39Z" transform="translate(-447.278 -201.391)" fill="#94c3ff"/>
          <path id="Path_28" data-name="Path 28" d="M463.718,235.628a5.175,5.175,0,0,1-4.365,3.109c-1.716,0-2.545-1.393-1.852-3.109a5.178,5.178,0,0,1,4.365-3.109C463.583,232.521,464.413,233.912,463.718,235.628Z" transform="translate(-457.256 -190.306)" fill="#ff8d02"/>
          <path id="Path_29" data-name="Path 29" d="M478.5,248.562a5.175,5.175,0,0,1-4.365,3.109c-1.716,0-2.545-1.393-1.852-3.109a5.175,5.175,0,0,1,4.365-3.109C478.363,245.453,479.193,246.846,478.5,248.562Z" transform="translate(-439.518 -174.785)" fill="#94c3ff"/>
          <path id="Path_30" data-name="Path 30" d="M495.482,233.485a5.175,5.175,0,0,1-4.365,3.109c-1.716,0-2.545-1.393-1.852-3.109a5.175,5.175,0,0,1,4.365-3.109C495.345,230.376,496.175,231.766,495.482,233.485Z" transform="translate(-419.14 -192.877)" fill="#94c3ff"/>
          <path id="Path_31" data-name="Path 31" d="M490.216,216.44a5.175,5.175,0,0,1-4.365,3.109c-1.718,0-2.545-1.393-1.852-3.109a5.175,5.175,0,0,1,4.365-3.109C490.079,213.331,490.909,214.724,490.216,216.44Z" transform="translate(-425.459 -213.331)" fill="#ff8d02"/>
        </g>
      </g>
      <g id="Group_54" data-name="Group 54" transform="translate(233.682 123.918)">
        <path id="Path_32" data-name="Path 32" d="M496.878,234.531H419.386l5.922-14.661H502.8Z" transform="translate(-406.059 -219.87)" fill="#4361c4"/>
        <path id="Path_33" data-name="Path 33" d="M457.484,244.955H413.328l2.539-6.283h44.156Z" transform="translate(-413.328 -197.308)" fill="#a1c2ff" opacity="0.39"/>
        <path id="Path_34" data-name="Path 34" d="M448.1,243.813H415.635l5.924-14.661h32.463Z" transform="translate(-410.56 -208.732)" fill="#a1c2ff" opacity="0.39"/>
      </g>
      <g id="Group_61" data-name="Group 61" transform="translate(324.098 224.459)">
        <path id="Path_35" data-name="Path 35" d="M573.655,355.7l37.919-85.053a3.119,3.119,0,0,0-2.849-4.389H502.33a10,10,0,0,0-9.134,5.929l-38.5,86.345a3.119,3.119,0,0,0,2.849,4.389H562.53A12.181,12.181,0,0,0,573.655,355.7Z" transform="translate(-454.426 -264.747)" fill="#fff"/>
        <g id="Group_60" data-name="Group 60" transform="translate(29.723 0)">
          <ellipse id="Ellipse_10" data-name="Ellipse 10" cx="41.907" cy="28.054" rx="41.907" ry="28.054" transform="translate(0 53.072) rotate(-39.286)" fill="#a1c2ff" opacity="0.39"/>
          <g id="Group_59" data-name="Group 59" transform="translate(0)">
            <g id="Group_58" data-name="Group 58" clip-path="url(#clip-path)">
              <path id="Path_36" data-name="Path 36" d="M522.215,289.092s17.252,8.571,19.078,16.429-5.83,28.573-5.83,28.573H466.888s11.242-24.288,19.978-30,25.606-10.076,25.606-10.076Z" transform="translate(-469.196 -237.346)" fill="#4385ff"/>
              <g id="Group_57" data-name="Group 57" transform="translate(32.816 22.42)">
                <g id="Group_56" data-name="Group 56">
                  <g id="Group_55" data-name="Group 55" transform="translate(3.375 4.892)">
                    <path id="Path_37" data-name="Path 37" d="M491.934,289.826l-5.381,11.627c-.673,1.454-.275,2.781.979,3.159a12.421,12.421,0,0,0,9.271-1.067,5.07,5.07,0,0,0,2.552-2.9c1.656-5.522,5.35-16.812,5.35-16.812Z" transform="translate(-482.179 -270.968)" fill="#94c3ff"/>
                    <path id="Path_38" data-name="Path 38" d="M494.717,283.936s-10.734,14.753-10.318,19.094c.942,3.038,16.757-1.736,20.07-5.641s10.459-10.848,7.355-16.055S501.861,276.993,494.717,283.936Z" transform="translate(-484.388 -277.985)" fill="#94c3ff"/>
                  </g>
                  <path id="Path_39" data-name="Path 39" d="M497.011,284.437s-.174.231-.383.581c-.623,1.049-1.547,3.166,1.032,3.3l3.439.185s5.524-3.144,7.693.185c1.615,3.329-3.648,5.364-3.21,7.029s.218,1.3-.528,2.22a8.5,8.5,0,0,1-3.824,3.513c-2.484,1.111-4.442.924-6.816,2.22s-6.954-.185-7.429-1.3c-1.107-.924-1.742,1.109-2.451,2.4s-2.893,1.665-.79,3.329,3.652,2.4,7.324.185,3.782-2.035,7.484-2.959,6.455-2.794,7.867-5.1,1.868-5.262,3.056-6.371,1.85,0,1.327,1.3,4.517-1.109,5.718-4.994-.911-3.7-1.122-5.918,2.312-4.809-.378-6.844-5.218.554-6.175-.739-5.135-1.478-8.477,1.3a10.118,10.118,0,0,0-3.529,6.706" transform="translate(-482.854 -275.762)" fill="#4361c4"/>
                  <path id="Path_40" data-name="Path 40" d="M495.968,284.834s1.45-1.872,3.084-1.109c1.606.832-3.271,6.382-5.031,5.757C492.36,288.787,495.968,284.834,495.968,284.834Z" transform="translate(-469.977 -266.425)" fill="#94c3ff"/>
                  <path id="Path_41" data-name="Path 41" d="M484.211,291.718s1.577-5.733,5.575-6.474,5.8,1.665,5.533,3.7a3.394,3.394,0,0,0,1.5,3.144S486.741,296.9,484.211,291.718Z" transform="translate(-481.225 -264.547)" fill="#4361c4"/>
                </g>
              </g>
            </g>
          </g>
        </g>
      </g>
      <g id="Group_62" data-name="Group 62" transform="translate(276.4 340.79)">
        <path id="Path_42" data-name="Path 42" d="M551.974,407.891l37.919-85.053a3.119,3.119,0,0,0-2.849-4.389h-106.4a10,10,0,0,0-9.134,5.929l-38.5,86.345a3.119,3.119,0,0,0,2.849,4.389H540.849A12.183,12.183,0,0,0,551.974,407.891Z" transform="translate(-432.746 -318.449)" fill="#fff"/>
      </g>
      <g id="Group_68" data-name="Group 68" transform="translate(304.747 337.617)">
        <ellipse id="Ellipse_12" data-name="Ellipse 12" cx="42.827" cy="28.67" rx="42.827" ry="28.67" transform="translate(0 54.236) rotate(-39.286)" fill="#a1c2ff" opacity="0.39"/>
        <g id="Group_67" data-name="Group 67" transform="translate(0 0)">
          <g id="Group_66" data-name="Group 66" transform="translate(0)" clip-path="url(#clip-path-2)">
            <path id="Path_43" data-name="Path 43" d="M481.519,335.387s5.223-2.486,5.922.53a5.77,5.77,0,0,1-1.6,5.168s4.717-1.3,5.977,2.732-2.532,5.947-.961,7.381,4.825,4.508.273,9.61S479.917,371.766,472.2,368s-5.258-22.123-5.258-22.123l1.885-5.361Z" transform="translate(-420.504 -296.106)" fill="#4361c4"/>
            <path id="Path_44" data-name="Path 44" d="M479.985,327.864s-11.629.979-15.3,9.126,3.628,8.719,3.628,8.719Z" transform="translate(-424.008 -303.978)" fill="#4361c4"/>
            <path id="Path_45" data-name="Path 45" d="M436.8,366.05l.748,1.351s8.961,10.69,16.94,17.534h16.608c8.664-7.9,20.486-21.657,20.539-22.22.075-.8,10.415-12.043,8.135-16.627s-5.236-3.85-5.236-3.85-3.368.46-7.152,4.378-22.449,32.854-22.449,32.854a27.061,27.061,0,0,0-6.8-7.619c-4.413-3.3-17.32-10.25-17.32-10.25s.792-5.586.717-6.653-3.289-5.94-4.264-4.895,1.3,5.63,1.3,5.63S436.05,364.7,436.8,366.05Z" transform="translate(-456.399 -286.782)" fill="#94c3ff"/>
            <path id="Path_46" data-name="Path 46" d="M458.6,378.407s.5,3.557,1.445,8.1h32.973c.73-7.443,2.273-22.4,3.192-25.955,1.239-4.774.145-14.936.539-17.727s-7.577-1.767-7.577-1.767l-10.386.174-1.676.717a13.215,13.215,0,0,0-5.744,4.8c-1.285,1.969-3.181,4.833-5.729,8.6-4.1,3.111-13.145,8.516-12.478,15.334S458.6,378.407,458.6,378.407Z" transform="translate(-436.643 -288.361)" fill="#4385ff"/>
            <path id="Path_47" data-name="Path 47" d="M472.783,340.09s-9.218,11.4-11.757,25.753c3.007-.922,12.153-9.315,17.545-14.43,2.275-2.158,2.486-3.335,2.066-5.548-.207-1.089.75-4.105,2.028-7.559C483.51,333.523,472.783,340.09,472.783,340.09Z" transform="translate(-427.156 -293.542)" fill="#94c3ff"/>
            <path id="Path_48" data-name="Path 48" d="M492.3,380.739s1.434,1.98,3.8,4.952h14.751c-2.845-3.769-5.1-6.811-5.806-7.876-2.411-3.654-19.278-40.436-29.555-35.86-1.9.847-8.765,6.611-5.962,13.074S492.3,380.739,492.3,380.739Z" transform="translate(-417.747 -287.541)" fill="#94c3ff"/>
            <g id="Group_65" data-name="Group 65" transform="translate(37.082 23.238)">
              <g id="Group_64" data-name="Group 64" transform="translate(0 1.072)">
                <g id="Group_63" data-name="Group 63">
                  <path id="Path_49" data-name="Path 49" d="M470.617,335.249a76.437,76.437,0,0,0-7.26,10.806c-1.894,3.678-.6,7.047,2.93,7.423,5.071.541,12.806-.717,15.349-3.623,3.773-4.314,11.869-11.955,8.584-17.888-3.19-5.764-10.459-5.166-18.291,1.872A11.483,11.483,0,0,0,470.617,335.249Z" transform="translate(-462.486 -328.057)" fill="#94c3ff"/>
                </g>
              </g>
              <path id="Path_50" data-name="Path 50" d="M468.212,332.065s-5.091,8.323,9.365,13.636l1.817.821s6.316-5.016,6.409-10.325-2.644-7.242-5.405-8.4S470.142,330.076,468.212,332.065Z" transform="translate(-456.659 -327.57)" fill="#4361c4"/>
            </g>
            <path id="Path_51" data-name="Path 51" d="M473,337s3.656-2.526,3.617-.2-5.179,4.822-5.718,3.852S473,337,473,337Z" transform="translate(-415.395 -294.433)" fill="#94c3ff"/>
          </g>
        </g>
      </g>
      <g id="Group_69" data-name="Group 69" transform="translate(158.427 326.107)">
        <path id="Path_52" data-name="Path 52" d="M500.705,345.413H383.514c-3.595,0-5.333-2.915-3.881-6.512l8.329-20.616c1.452-3.595,5.546-6.51,9.141-6.51H514.294c3.595,0,5.333,2.915,3.881,6.51L509.846,338.9C508.394,342.5,504.3,345.413,500.705,345.413Z" transform="translate(-379.121 -311.775)" fill="#4385ff"/>
        <path id="Path_53" data-name="Path 53" d="M489.014,322.823H388.1l1.973-4.882H490.988Z" transform="translate(-368.345 -304.376)" fill="#fff"/>
      </g>
      <g id="Group_74" data-name="Group 74" transform="translate(149.043 13.706)">
        <g id="Group_70" data-name="Group 70" transform="translate(31.372)">
          <path id="Path_54" data-name="Path 54" d="M393.935,176.274h-3.962c-.7,0-1.041-.568-.757-1.269l1.6-3.962a2.115,2.115,0,0,1,1.784-1.269h3.964c.7,0,1.041.568.757,1.269l-1.6,3.962A2.121,2.121,0,0,1,393.935,176.274Z" transform="translate(-389.115 -169.773)" fill="rgba(6,178,255,0.69)"/>
          <path id="Path_55" data-name="Path 55" d="M412.413,176.274h-3.964c-.7,0-1.041-.568-.757-1.269l1.6-3.962a2.115,2.115,0,0,1,1.784-1.269h3.964c.7,0,1.041.568.757,1.269L414.2,175A2.118,2.118,0,0,1,412.413,176.274Z" transform="translate(-366.945 -169.773)" fill="rgba(6,178,255,0.69)"/>
        </g>
        <g id="Group_71" data-name="Group 71" transform="translate(23.817 18.698)">
          <path id="Path_56" data-name="Path 56" d="M390.5,184.775h-3.962c-.7,0-1.04-.568-.757-1.269l1.6-3.964a2.115,2.115,0,0,1,1.784-1.269h3.962c.7,0,1.041.568.757,1.269l-1.6,3.964A2.119,2.119,0,0,1,390.5,184.775Z" transform="translate(-385.681 -178.272)" fill="rgba(6,178,255,0.69)"/>
          <path id="Path_57" data-name="Path 57" d="M399.74,184.775h-3.964c-.7,0-1.041-.568-.757-1.269l1.6-3.964a2.115,2.115,0,0,1,1.784-1.269h3.962c.7,0,1.041.568.757,1.269l-1.6,3.964A2.113,2.113,0,0,1,399.74,184.775Z" transform="translate(-374.597 -178.272)" fill="rgba(6,178,255,0.69)"/>
          <path id="Path_58" data-name="Path 58" d="M408.978,184.775h-3.962c-.7,0-1.041-.568-.757-1.269l1.6-3.964a2.115,2.115,0,0,1,1.784-1.269h3.964c.7,0,1.041.568.757,1.269l-1.6,3.964A2.13,2.13,0,0,1,408.978,184.775Z" transform="translate(-363.509 -178.272)" fill="rgba(6,178,255,0.69)"/>
          <path id="Path_59" data-name="Path 59" d="M416.368,184.775h-3.962c-.7,0-1.041-.568-.757-1.269l1.6-3.964a2.115,2.115,0,0,1,1.784-1.269H419c.7,0,1.041.568.757,1.269l-1.6,3.964A2.119,2.119,0,0,1,416.368,184.775Z" transform="translate(-354.642 -178.272)" fill="rgba(6,178,255,0.69)"/>
        </g>
        <g id="Group_72" data-name="Group 72" transform="translate(0 37.397)">
          <path id="Path_60" data-name="Path 60" d="M387.067,193.273H383.1c-.7,0-1.041-.568-.757-1.269l1.6-3.962a2.115,2.115,0,0,1,1.784-1.269H389.7c.7,0,1.041.568.757,1.269l-1.6,3.962A2.119,2.119,0,0,1,387.067,193.273Z" transform="translate(-365.985 -186.772)" fill="rgba(6,178,255,0.69)"/>
          <path id="Path_61" data-name="Path 61" d="M379.677,193.273h-3.964c-.7,0-1.041-.568-.757-1.269l1.6-3.962a2.115,2.115,0,0,1,1.784-1.269h3.964c.7,0,1.041.568.757,1.269l-1.6,3.962A2.119,2.119,0,0,1,379.677,193.273Z" transform="translate(-374.855 -186.772)" fill="rgba(6,178,255,0.69)"/>
          <path id="Path_62" data-name="Path 62" d="M396.3,193.273h-3.962c-.7,0-1.041-.568-.757-1.269l1.6-3.962a2.115,2.115,0,0,1,1.784-1.269h3.962c.7,0,1.041.568.757,1.269l-1.6,3.962A2.119,2.119,0,0,1,396.3,193.273Z" transform="translate(-354.9 -186.772)" fill="rgba(6,178,255,0.69)"/>
          <path id="Path_63" data-name="Path 63" d="M405.545,193.273h-3.964c-.7,0-1.041-.568-.757-1.269l1.6-3.962a2.115,2.115,0,0,1,1.784-1.269h3.964c.7,0,1.041.568.757,1.269l-1.6,3.962A2.122,2.122,0,0,1,405.545,193.273Z" transform="translate(-343.814 -186.772)" fill="rgba(6,178,255,0.69)"/>
        </g>
        <g id="Group_73" data-name="Group 73" transform="translate(8.708 56.095)">
          <path id="Path_64" data-name="Path 64" d="M383.633,201.772h-3.962c-.7,0-1.041-.568-.757-1.269l1.6-3.962a2.115,2.115,0,0,1,1.784-1.269h3.962c.7,0,1.041.568.757,1.269l-1.6,3.962A2.115,2.115,0,0,1,383.633,201.772Z" transform="translate(-378.813 -195.271)" fill="rgba(6,178,255,0.69)"/>
        </g>
      </g>
      <g id="Group_79" data-name="Group 79" transform="translate(135.839 378.104)">
        <g id="Group_75" data-name="Group 75" transform="translate(44.213)">
          <path id="Path_65" data-name="Path 65" d="M395.747,344.577h-5.588c-.988,0-1.467-.8-1.067-1.791l2.257-5.586a2.98,2.98,0,0,1,2.515-1.791h5.586c.988,0,1.467.8,1.067,1.791l-2.257,5.586A2.977,2.977,0,0,1,395.747,344.577Z" transform="translate(-388.951 -335.41)" fill="#4385ff"/>
          <path id="Path_66" data-name="Path 66" d="M421.788,344.577H416.2c-.988,0-1.467-.8-1.067-1.791l2.257-5.586a2.98,2.98,0,0,1,2.515-1.791h5.586c.988,0,1.467.8,1.067,1.791l-2.257,5.586A2.98,2.98,0,0,1,421.788,344.577Z" transform="translate(-357.7 -335.41)" fill="#4385ff"/>
        </g>
        <g id="Group_76" data-name="Group 76" transform="translate(33.565 26.356)">
          <path id="Path_67" data-name="Path 67" d="M390.905,356.557h-5.586c-.99,0-1.467-.8-1.067-1.791l2.257-5.586a2.981,2.981,0,0,1,2.515-1.791h5.586c.988,0,1.467.8,1.067,1.791l-2.257,5.586A2.982,2.982,0,0,1,390.905,356.557Z" transform="translate(-384.111 -347.39)" fill="#bfd9ff"/>
          <path id="Path_68" data-name="Path 68" d="M403.927,356.557h-5.586c-.99,0-1.467-.8-1.067-1.791l2.257-5.586a2.981,2.981,0,0,1,2.515-1.791h5.586c.988,0,1.467.8,1.067,1.791l-2.257,5.586A2.987,2.987,0,0,1,403.927,356.557Z" transform="translate(-368.484 -347.39)" fill="#ff8d02"/>
          <path id="Path_69" data-name="Path 69" d="M416.948,356.557h-5.586c-.99,0-1.467-.8-1.067-1.791l2.257-5.586a2.981,2.981,0,0,1,2.515-1.791h5.586c.988,0,1.467.8,1.067,1.791l-2.257,5.586A2.985,2.985,0,0,1,416.948,356.557Z" transform="translate(-352.86 -347.39)" fill="#bfd9ff"/>
          <path id="Path_70" data-name="Path 70" d="M427.365,356.557h-5.586c-.988,0-1.467-.8-1.067-1.791l2.257-5.586a2.984,2.984,0,0,1,2.515-1.791h5.586c.988,0,1.467.8,1.067,1.791l-2.257,5.586A2.984,2.984,0,0,1,427.365,356.557Z" transform="translate(-340.359 -347.39)" fill="#bfd9ff"/>
        </g>
        <g id="Group_77" data-name="Group 77" transform="translate(0 52.709)">
          <path id="Path_71" data-name="Path 71" d="M386.065,368.536h-5.586c-.988,0-1.467-.8-1.067-1.791l2.257-5.586a2.98,2.98,0,0,1,2.515-1.791h5.586c.988,0,1.467.8,1.067,1.791l-2.257,5.586A2.98,2.98,0,0,1,386.065,368.536Z" transform="translate(-356.354 -359.369)" fill="#bfd9ff"/>
          <path id="Path_72" data-name="Path 72" d="M375.648,368.536h-5.586c-.988,0-1.467-.8-1.067-1.791l2.257-5.586a2.98,2.98,0,0,1,2.515-1.791h5.586c.988,0,1.467.8,1.067,1.791l-2.257,5.586A2.977,2.977,0,0,1,375.648,368.536Z" transform="translate(-368.854 -359.369)" fill="#bfd9ff"/>
          <path id="Path_73" data-name="Path 73" d="M399.087,368.536H393.5c-.988,0-1.467-.8-1.067-1.791l2.257-5.586a2.98,2.98,0,0,1,2.515-1.791h5.586c.988,0,1.467.8,1.067,1.791l-2.257,5.586A2.983,2.983,0,0,1,399.087,368.536Z" transform="translate(-340.727 -359.369)" fill="#bfd9ff"/>
          <path id="Path_74" data-name="Path 74" d="M412.108,368.536h-5.586c-.988,0-1.467-.8-1.067-1.791l2.257-5.586a2.98,2.98,0,0,1,2.515-1.791h5.586c.988,0,1.467.8,1.067,1.791l-2.257,5.586A2.98,2.98,0,0,1,412.108,368.536Z" transform="translate(-325.103 -359.369)" fill="#ff8d02"/>
        </g>
        <g id="Group_78" data-name="Group 78" transform="translate(12.269 79.065)">
          <path id="Path_75" data-name="Path 75" d="M381.225,380.516h-5.586c-.988,0-1.467-.8-1.067-1.791l2.257-5.586a2.984,2.984,0,0,1,2.515-1.791h5.586c.99,0,1.467.8,1.067,1.791l-2.257,5.586A2.98,2.98,0,0,1,381.225,380.516Z" transform="translate(-374.431 -371.349)" fill="#ff8d02"/>
        </g>
      </g>
      <g id="Group_85" data-name="Group 85" transform="translate(0 71.425)">
        <path id="Path_76" data-name="Path 76" d="M522.8,317.069H364.272l26.217-51.218H549.02Z" transform="translate(-238.512 -112.2)" fill="#a1c2ff" opacity="0.39"/>
        <g id="Group_80" data-name="Group 80" transform="translate(228.969 149.69)">
          <ellipse id="Ellipse_14" data-name="Ellipse 14" cx="23.586" cy="18.394" rx="23.586" ry="18.394" transform="translate(0 31.223) rotate(-41.445)" fill="#73a5ff"/>
          <path id="Path_77" data-name="Path 77" d="M426.338,292.265a1.975,1.975,0,0,1-1.624-.75l-5.383-7.17c-.75-1-.348-2.622.9-3.621s2.871-1,3.621,0l4.024,5.359,14.375-11.506c1.25-1,2.871-1,3.621,0s.348,2.622-.9,3.621l-16.636,13.316A3.255,3.255,0,0,1,426.338,292.265Z" transform="translate(-401.865 -252.319)" fill="#fff"/>
        </g>
        <g id="Group_84" data-name="Group 84">
          <path id="Path_78" data-name="Path 78" d="M375.123,225.526c0,4.022-2.941,7.282-6.567,7.282s-6.569-3.26-6.569-7.282,2.941-7.282,6.569-7.282S375.123,221.5,375.123,225.526Z" transform="translate(-241.254 -169.328)" fill="none" stroke="#505e83" stroke-width="0.519"/>
          <path id="Path_79" data-name="Path 79" d="M347.926,239.438s-10.487.7-18.33,11.286,3.529,49.407,37.25,65.091c21.958,8.626,23.526-10.98,18.038-24.7S363.51,242.661,347.926,239.438Z" transform="translate(-282.973 -143.895)" fill="#fff"/>
          <path id="Path_80" data-name="Path 80" d="M842.455,433.525c0,5.123-119.841,9.278-267.673,9.278s-267.674-4.155-267.674-9.278,119.841-9.278,267.674-9.278S842.455,428.4,842.455,433.525Z" transform="translate(-307.108 77.872)" fill="#002272" opacity="0.4"/>
          <g id="Group_81" data-name="Group 81" transform="translate(57.366 341.287)">
            <path id="Path_81" data-name="Path 81" d="M339.774,417.152s2.279-4.884,10.742-3.582,9.442,2.93,10.417,7.163,3.907,8.789,5.861,9.766,9.117,5.861,14.975,6.838,6.512,4.558,5.21,6.186-23.441,2.93-28.325,2.279c0,0-16.6-.326-20.51-1.628S339.448,418.78,339.774,417.152Z" transform="translate(-328.967 -276.492)" fill="#fff"/>
            <path id="Path_82" data-name="Path 82" d="M359.053,417.152s2.279-4.884,10.742-3.582,9.442,2.93,10.419,7.163,3.907,8.789,5.861,9.766,9.117,5.861,14.975,6.838,6.512,4.558,5.21,6.186-23.441,2.93-28.325,2.279c0,0-16.6-.326-20.51-1.628S358.727,418.78,359.053,417.152Z" transform="translate(-305.831 -276.492)" fill="#fff"/>
            <path id="Path_83" data-name="Path 83" d="M336.152,370.582s-2.477-13.484,11.761-18.009,16.933,2.055,21.243,14.353-3.641,128.422-3.641,128.422-17.351.4-21.555-2.086c0,0-11.6-77.056-10.729-95.824S336.152,370.582,336.152,370.582Z" transform="translate(-333.184 -351.141)" fill="#2b3554"/>
          </g>
          <path id="Path_84" data-name="Path 84" d="M365.481,223.8s3.333,4.51,3.333,6.862-4.51,2.352-4.51,2.352Z" transform="translate(-238.474 -162.656)" fill="#ff7759"/>
          <path id="Path_85" data-name="Path 85" d="M380.6,204.8s9.632,2.464,15.09,17.254,1.819,46.219-1.819,49.918-14.687,2.284-30.01-2.772c-16.19-5.344-21.661-22.176-24.554-33.277C333.768,214.657,352.256,192.778,380.6,204.8Z" transform="translate(-269.645 -189.569)" fill="#ff8d68"/>
          <path id="Path_86" data-name="Path 86" d="M341.841,255.853l7.812-28s15.626-4.558,25.394,5.861l3.256,4.558V256.5A104.272,104.272,0,0,1,341.841,255.853Z" transform="translate(-265.429 -158.988)" fill="#ff8d68"/>
          <path id="Path_87" data-name="Path 87" d="M333.347,313.153a257.863,257.863,0,0,0,0,73.251c5.861,39.067,17.58,42.974,28.325,42.974s13.673-31.255,15.626-44.928,9.766-60.554-4.884-71.3S341.159,301.432,333.347,313.153Z" transform="translate(-278.748 -65.553)" fill="#2b3554"/>
          <path id="Path_88" data-name="Path 88" d="M352.39,358.619s-11.719-31.253,8.791-44.928,36.137-11.719,41.021,10.745,5.861,99.622-.977,115.248S369.97,430.893,352.39,358.619Z" transform="translate(-256.77 -65.114)" fill="#2b3f63"/>
          <path id="Path_89" data-name="Path 89" d="M339.961,245.021s2.18-7.665,4.134-8.316,26.046-3.256,39.067,4.558c5.861,4.558,5.21,7.814,5.21,7.814S349.5,241.617,339.961,245.021Z" transform="translate(-267.685 -148.303)" fill="#fff"/>
          <path id="Path_90" data-name="Path 90" d="M422.652,308.555s1.96,4.706.785,6.274c-1.569,1.569-45.878,17.252-92.54,5.883-.785,0,1.177-7.843,1.177-7.843Z" transform="translate(-278.784 -60.957)" fill="#6060e7"/>
          <path id="Path_91" data-name="Path 91" d="M332.868,321.317c-1.3-9.115-5.21-54.042-3.907-60.554,1.217-6.085,6.415-17.29,17.191-20.856a21.628,21.628,0,0,1,2.343-.631s40.37-2.6,69.02,9.766c0,0,9.808,8.147,11.62,49.654,0,0-.539,7-2.108,21.9s.783,25.881,3.137,40.781,7.058,29.8-10.195,32.938c-16.469,3.137-61.954,10.98-88.617,3.137-5.489-3.92,2.352-21.958,2.352-36.075S332.868,321.317,332.868,321.317Z" transform="translate(-281.199 -144.365)" fill="#8182ee"/>
          <path id="Path_92" data-name="Path 92" d="M362.747,370.365s-.977-13.673,13.673-16.6,16.6,3.907,19.534,16.6-14.443,123.428-14.443,123.428-19.171,1.1-23.078-1.826c0,0-4.479-76.676-1.549-95.233S362.747,370.365,362.747,370.365Z" transform="translate(-248.571 -7.517)" fill="#2b3f63"/>
          <path id="Path_93" data-name="Path 93" d="M348.8,326.092s13.673,43.951,23.929,65.438" transform="translate(-257.083 -39.912)" fill="none" stroke="#2a2e59" stroke-width="0.666"/>
          <path id="Path_94" data-name="Path 94" d="M361.448,361.016s8.3-4.884,16.6,0" transform="translate(-241.901 -0.609)" fill="none" stroke="#2a2e59" stroke-width="0.666"/>
          <path id="Path_95" data-name="Path 95" d="M360.783,362.775s6.838-3.907,18.557,4.4" transform="translate(-242.699 3.004)" fill="none" stroke="#2a2e59" stroke-width="0.666"/>
          <path id="Path_96" data-name="Path 96" d="M337.475,358.277s5.372-4.884,17.58.488" transform="translate(-270.668 -3.731)" fill="none" stroke="#2a2e59" stroke-width="0.666"/>
          <path id="Path_97" data-name="Path 97" d="M339.251,360.084a14.684,14.684,0,0,1,15.138,1.954" transform="translate(-268.537 -0.654)" fill="none" stroke="#2a2e59" stroke-width="0.666"/>
          <line id="Line_9" data-name="Line 9" x1="2.93" y2="99.622" transform="translate(85.852 367.244)" fill="none" stroke="#2a2e59" stroke-width="0.666"/>
          <path id="Path_98" data-name="Path 98" d="M365.814,327.113s11.068,6.512,15.626-3.907" transform="translate(-236.662 -43.376)" fill="none" stroke="#2a2e59" stroke-width="0.666"/>
          <path id="Path_99" data-name="Path 99" d="M370.845,325.574s5.21,40.37,3.907,67.066" transform="translate(-230.625 -40.534)" fill="none" stroke="#2a2e59" stroke-width="0.666"/>
          <path id="Path_100" data-name="Path 100" d="M355.566,230.531s3.419,8.791,14.894,7.326" transform="translate(-248.959 -154.584)" fill="none" stroke="#e66657" stroke-width="0.666"/>
          <path id="Path_101" data-name="Path 101" d="M391.663,211.819s5.564,7.649,5.911,12.168-6.954,9.04-8,11.82,1.346,6.277.3,8.015-1.373,5.293-1.373,5.293l.359,3.938a2.825,2.825,0,0,1-2.264,3.029l-.834.167a2.523,2.523,0,0,1-2.847-1.538c-1.25-3.142-3.832-9.009-5.861-9.517-2.781-.7-5.564,4.171-6.606,6.607-.587,1.373-2.066,5.078-3.243,8.052a7.271,7.271,0,0,1-6.25,4.569c-3.007.216-6.613.365-7.94-.013-2.433-.7-14.9-23.733-15.25-34.859s7.3-22.251,15.3-25.729S376.714,197.218,391.663,211.819Z" transform="translate(-270.325 -190.125)" fill="#7e3636"/>
          <path id="Path_102" data-name="Path 102" d="M336.66,249.8c0,3.128,13.1,50.327,11.018,58.671s-7.843,66.659-7.843,66.659" transform="translate(-271.646 -131.456)" fill="none" stroke="#6060e7" stroke-width="0.666"/>
          <path id="Path_103" data-name="Path 103" d="M336.677,240.113" transform="translate(-271.626 -143.085)" fill="none" stroke="#a6d0f4" stroke-width="0.535"/>
          <path id="Path_104" data-name="Path 104" d="M374.346,202.556s7.647.295,10.294-3.529,11.176-4.706,17.351,1.47,5.881,17.646.587,21.762c0,0,6.175-1.177,7.058,3.236s-6.765,11.176-15.882,13.233c0,0-14.7-4.116-19.116-1.47s-34.115-.295-34.115-.295-6.47-5.883-4.706-11.176,3.529.295,3.529.295-1.47-7.352,8.235-17.939S370.817,203.438,374.346,202.556Z" transform="translate(-273.023 -196.009)" fill="#7e3636"/>
          <path id="Path_105" data-name="Path 105" d="M418.8,270.636l20.88.882s-.587,2.059-3.824,2.647-15.292,2.059-15.292,2.059Z" transform="translate(-173.08 -106.458)" fill="#eb7754"/>
          <path id="Path_106" data-name="Path 106" d="M420.8,273.148s7.057-1.177,8.529-.882,2.941,8.822,2.941,8.822l-5.588,5.883s-2.059-.882,0-4.118l1.177-2.059-8.529-3.234Z" transform="translate(-172.438 -104.56)" fill="#ff8d68"/>
          <g id="Group_83" data-name="Group 83" transform="translate(117.191 104.679)">
            <path id="Path_107" data-name="Path 107" d="M410.779,280.073,419.6,278.9s7.352-7.352,8.822-8.235,8.822,10.586,9.7,12.058c0,1.177-4.411,5-8.822,5.588s-5.883-.587-5.883-.587l-9.7,3.824Z" transform="translate(-299.896 -211.165)" fill="#ff8d68"/>
            <g id="Group_82" data-name="Group 82">
              <path id="Path_108" data-name="Path 108" d="M379.5,243.591s-19.7-.2-19.111,23.914,41.76,63.522,52.936,68.228,58.816-8.235,62.935-10.586,2.941-12.351-3.529-14.7l-48.818-2.352S393.317,245.556,379.5,243.591Z" transform="translate(-360.377 -243.591)" fill="#fff"/>
              <path id="Path_109" data-name="Path 109" d="M389.613,274.69s5.881,6.274,4.314,14.509" transform="translate(-325.295 -206.273)" fill="none" stroke="#a6d0f4" stroke-width="0.535"/>
              <path id="Path_110" data-name="Path 110" d="M391.039,274.156s9.8,3.137,10.586,13.724" transform="translate(-323.583 -206.914)" fill="none" stroke="#a6d0f4" stroke-width="0.535"/>
            </g>
          </g>
          <line id="Line_10" data-name="Line 10" x1="20.392" transform="translate(113.477 56.198)" fill="none" stroke="#505e83" stroke-width="0.519"/>
          <path id="Path_111" data-name="Path 111" d="M364.376,224.82s-1.386-6.008-6.47-3.236.924,17.1,5.084,16.176S365.3,227.132,364.376,224.82Z" transform="translate(-248.488 -166.197)" fill="#ff7759"/>
          <path id="Path_112" data-name="Path 112" d="M340.465,210.067s14.115-3.236,24.114,7.352" transform="translate(-267.08 -179.699)" fill="none" stroke="#663136" stroke-width="0.535"/>
          <path id="Path_113" data-name="Path 113" d="M341.311,211.234s6.078-6.47,16.469-3.725" transform="translate(-266.065 -183.024)" fill="none" stroke="#663136" stroke-width="0.535"/>
          <path id="Path_114" data-name="Path 114" d="M340.688,211.06s4.314.392,7.253,5.293" transform="translate(-266.813 -177.948)" fill="none" stroke="#663136" stroke-width="0.535"/>
          <path id="Path_115" data-name="Path 115" d="M360.115,198.316s14.117,4.411,10.881,17.351" transform="translate(-243.501 -193.241)" fill="none" stroke="#663136" stroke-width="0.535"/>
        </g>
      </g>
    </g>
  </g>
</svg>
