<svg xmlns="http://www.w3.org/2000/svg" width="26.031" height="26.525"  fill="#4d8aef" xmlns:v="https://vecta.io/nano"><path d="M13.015 7.223c-2.455-.046-4.694 1.397-5.666 3.652s-.483 4.874 1.237 6.626 4.329 2.291 6.602 1.362 3.758-3.14 3.758-5.596a5.99 5.99 0 0 0-5.931-6.044zm8.515-4.971a2.73 2.73 0 0 1 2.7 2.753 2.73 2.73 0 0 1-2.7 2.753 2.73 2.73 0 0 1-2.7-2.753 2.73 2.73 0 0 1 2.7-2.753zm3.328 5.522l-.113-.253-.177.209a4.07 4.07 0 0 1-1.631 1.144l-.173.066.071.18c1.973 4.809.296 10.343-4.016 13.246-4.289 2.853-10.014 2.171-13.513-1.609a11 11 0 0 1-.912-13.833 10.52 10.52 0 0 1 13.181-3.436l.166.081.073-.18a4.14 4.14 0 0 1 1.2-1.6l.212-.18-.243-.128A12.68 12.68 0 0 0 13.016.003 13.05 13.05 0 0 0 .531 9.527c-1.637 5.622.571 11.655 5.449 14.894 4.845 3.183 11.224 2.719 15.558-1.131 4.376-3.898 5.72-10.183 3.321-15.53z"/></svg>