<svg xmlns="http://www.w3.org/2000/svg" width="55.762" height="52.672" viewBox="0 0 55.762 52.672">
  <g id="reaction" transform="translate(0.001 -14.185)">
    <g id="Group_55634" data-name="Group 55634" transform="translate(1.557 40.219)">
      <g id="Group_55633" data-name="Group 55633">
        <path id="Path_14106" data-name="Path 14106" d="M16.459,254.1a1.091,1.091,0,0,0-.162-.391,1.043,1.043,0,0,0-.135-.166,1.1,1.1,0,0,0-.166-.136,1.159,1.159,0,0,0-.188-.1,1.1,1.1,0,0,0-.2-.062,1.078,1.078,0,0,0-.426,0,1.1,1.1,0,0,0-.2.062,1.074,1.074,0,0,0-.354.236,1.1,1.1,0,0,0-.235.353,1.126,1.126,0,0,0-.062.2,1.09,1.09,0,0,0-.021.213,1.064,1.064,0,0,0,.021.212,1.1,1.1,0,0,0,.062.2,1.094,1.094,0,0,0,.235.354,1.095,1.095,0,0,0,.354.235,1.1,1.1,0,0,0,.2.062,1.052,1.052,0,0,0,.426,0,1.1,1.1,0,0,0,.2-.062,1.158,1.158,0,0,0,.188-.1,1.091,1.091,0,0,0,.166-.135,1.041,1.041,0,0,0,.135-.166,1.114,1.114,0,0,0,.1-.188,1.1,1.1,0,0,0,.062-.2,1.073,1.073,0,0,0,.022-.212A1.092,1.092,0,0,0,16.459,254.1Z" transform="translate(-14.303 -253.225)" fill="#222872"/>
      </g>
    </g>
    <g id="Group_55636" data-name="Group 55636" transform="translate(36.609 24.79)">
      <g id="Group_55635" data-name="Group 55635" transform="translate(0 0)">
        <path id="Path_14107" data-name="Path 14107" d="M338.3,112.435a1.151,1.151,0,0,0-.062-.2,1.106,1.106,0,0,0-.1-.187,1.05,1.05,0,0,0-.136-.166,1.039,1.039,0,0,0-.166-.135,1.1,1.1,0,0,0-.187-.1,1.023,1.023,0,0,0-.2-.062,1.078,1.078,0,0,0-.426,0,1.022,1.022,0,0,0-.2.062,1.075,1.075,0,0,0-.188.1,1.059,1.059,0,0,0-.3.3,1.108,1.108,0,0,0-.1.187,1.153,1.153,0,0,0-.062.2,1.1,1.1,0,0,0-.022.214,1.075,1.075,0,0,0,.022.212,1.1,1.1,0,0,0,.062.2,1.078,1.078,0,0,0,.1.188,1.059,1.059,0,0,0,.3.3,1.075,1.075,0,0,0,.188.1,1.1,1.1,0,0,0,.2.062,1.051,1.051,0,0,0,.426,0,1.09,1.09,0,0,0,.391-.162,1.081,1.081,0,0,0,.3-.3,1.076,1.076,0,0,0,.1-.188,1.1,1.1,0,0,0,.062-.2,1.069,1.069,0,0,0,.021-.212A1.09,1.09,0,0,0,338.3,112.435Z" transform="translate(-336.144 -111.56)" fill="#222872"/>
      </g>
    </g>
    <g id="Group_55638" data-name="Group 55638" transform="translate(16.768 29.409)">
      <g id="Group_55637" data-name="Group 55637" transform="translate(0 0)">
        <path id="Path_14108" data-name="Path 14108" d="M165.085,153.973A11.112,11.112,0,1,0,176.2,165.085,11.125,11.125,0,0,0,165.085,153.973Zm0,20.045a8.934,8.934,0,1,1,8.934-8.934A8.944,8.944,0,0,1,165.085,174.018Z" transform="translate(-153.973 -153.973)" fill="#009eff"/>
      </g>
    </g>
    <g id="Group_55640" data-name="Group 55640" transform="translate(21.158 33.799)">
      <g id="Group_55639" data-name="Group 55639">
        <path id="Path_14109" data-name="Path 14109" d="M201,194.275A6.723,6.723,0,1,0,207.719,201,6.73,6.73,0,0,0,201,194.275Zm0,11.267A4.544,4.544,0,1,1,205.541,201,4.55,4.55,0,0,1,201,205.542Z" transform="translate(-194.274 -194.275)" fill="#009eff"/>
      </g>
    </g>
    <g id="Group_55642" data-name="Group 55642" transform="translate(9.156 18.509)">
      <g id="Group_55641" data-name="Group 55641">
        <path id="Path_14110" data-name="Path 14110" d="M116.546,63.2a1.089,1.089,0,1,0-1.6,1.479,16.537,16.537,0,0,1-7.666,27.157,4.689,4.689,0,0,0-8.955,0,16.548,16.548,0,0,1,0-31.861,4.689,4.689,0,1,0-.139-2.218,18.73,18.73,0,0,0,0,36.3,4.689,4.689,0,0,0,9.232,0A18.715,18.715,0,0,0,116.546,63.2ZM102.8,56.068a2.511,2.511,0,1,1-2.511,2.511A2.513,2.513,0,0,1,102.8,56.068Zm0,39.667a2.511,2.511,0,1,1,2.511-2.51A2.513,2.513,0,0,1,102.8,95.736Z" transform="translate(-84.08 -53.89)" fill="#222872"/>
      </g>
    </g>
    <g id="Group_55644" data-name="Group 55644" transform="translate(-0.001 14.185)">
      <g id="Group_55643" data-name="Group 55643" transform="translate(0 0)">
        <path id="Path_14111" data-name="Path 14111" d="M53.531,46.5A26.333,26.333,0,0,0,5.907,26.017a4.689,4.689,0,1,0,1.921,1.045A24.158,24.158,0,0,1,51.452,45.824a4.689,4.689,0,0,0-3.519,8.157,24.154,24.154,0,0,1-43.76-8.8,1.089,1.089,0,1,0-2.137.419,26.332,26.332,0,0,0,47.818,9.425,4.649,4.649,0,0,0,1.213.161A4.689,4.689,0,0,0,53.531,46.5ZM6.994,31.537a2.511,2.511,0,1,1-1.314-3.3A2.514,2.514,0,0,1,6.994,31.537ZM53.379,51.489a2.513,2.513,0,0,1-3.3,1.314h0a2.51,2.51,0,1,1,3.3-1.314Z" transform="translate(0.001 -14.185)" fill="#222872"/>
      </g>
    </g>
  </g>
</svg>
