<svg id="Group_69950" data-name="Group 69950" xmlns="http://www.w3.org/2000/svg" width="451.79" height="406.426" viewBox="0 0 451.79 406.426">
  <g id="Group_69924" data-name="Group 69924" transform="translate(104.808 237.258)">
    <g id="Group_69920" data-name="Group 69920" transform="translate(0 2.389)">
      <path id="Path_51022" data-name="Path 51022" d="M210.941,446.408a1.53,1.53,0,0,0,1.193-.571L330.854,298.228a1.53,1.53,0,1,0-2.383-1.918L209.751,443.919a1.53,1.53,0,0,0,1.191,2.489Z" transform="translate(-209.413 -295.74)" fill="#161733"/>
    </g>
    <g id="Group_69921" data-name="Group 69921" transform="translate(65.436 2.389)">
      <path id="Path_51023" data-name="Path 51023" d="M277.135,446.408a1.53,1.53,0,0,0,1.191-2.489L159.607,296.309a1.53,1.53,0,0,0-2.384,1.918L275.941,445.837A1.53,1.53,0,0,0,277.135,446.408Z" transform="translate(-156.885 -295.74)" fill="#28294e"/>
    </g>
    <g id="Group_69922" data-name="Group 69922" transform="translate(65.436 2.389)">
      <path id="Path_51024" data-name="Path 51024" d="M158.413,446.408a1.53,1.53,0,0,0,1.193-.571L278.326,298.228a1.53,1.53,0,0,0-2.384-1.918L157.222,443.919a1.53,1.53,0,0,0,1.191,2.489Z" transform="translate(-156.885 -295.74)" fill="#28294e"/>
    </g>
    <path id="Path_51025" data-name="Path 51025" d="M131.5,301.659h55.155a3.92,3.92,0,0,0,3.919-3.919h0a3.919,3.919,0,0,0-3.919-3.918H131.5a3.919,3.919,0,0,0-3.919,3.918h0A3.92,3.92,0,0,0,131.5,301.659Z" transform="translate(33.153 -293.822)" fill="#0897ef"/>
    <path id="Path_51026" data-name="Path 51026" d="M172.7,301.659H330.342a3.919,3.919,0,0,0,3.918-3.919h0a3.918,3.918,0,0,0-3.918-3.918H172.7Z" transform="translate(-166.746 -293.822)" fill="#47b6fb"/>
    <g id="Group_69923" data-name="Group 69923" transform="translate(122.045 73.442)">
      <path id="Path_51027" data-name="Path 51027" d="M202.327,357.058a4.28,4.28,0,1,0,4.28-4.28A4.28,4.28,0,0,0,202.327,357.058Z" transform="translate(-202.327 -352.778)" fill="#11122d"/>
    </g>
    <path id="Path_51028" data-name="Path 51028" d="M254.856,357.058a4.28,4.28,0,1,0,4.28-4.28A4.28,4.28,0,0,0,254.856,357.058Z" transform="translate(-198.247 -279.336)" fill="#ffc947"/>
  </g>
  <g id="Group_69925" data-name="Group 69925" transform="translate(213.404 69.003)">
    <rect id="Rectangle_28113" data-name="Rectangle 28113" width="65.503" height="51.261" rx="3.988" fill="#b0e4fe"/>
    <path id="Path_51029" data-name="Path 51029" d="M182.6,179.444h2.057a12.292,12.292,0,0,1,1.388-3.164l-1.587-1.587a1.55,1.55,0,0,1,0-2.19l2.234-2.234a1.551,1.551,0,0,1,2.191,0l1.687,1.687a12.273,12.273,0,0,1,2.985-1.2v-2.529a1.549,1.549,0,0,1,1.55-1.548h3.158a1.549,1.549,0,0,1,1.55,1.548v2.557a12.439,12.439,0,0,1,2.9,1.152l1.851-1.851a1.549,1.549,0,0,1,2.191,0l2.232,2.232a1.549,1.549,0,0,1,0,2.191l-1.714,1.714a12.432,12.432,0,0,1,1.348,2.959h2.412a1.549,1.549,0,0,1,1.55,1.548v3.158a1.55,1.55,0,0,1-1.55,1.55h-2.113a12.2,12.2,0,0,1-1.187,3.307l1.443,1.443a1.551,1.551,0,0,1,0,2.191l-2.234,2.232a1.547,1.547,0,0,1-2.19,0l-1.254-1.253a12.292,12.292,0,0,1-3.418,1.546v1.753a1.55,1.55,0,0,1-1.55,1.55h-3.158a1.549,1.549,0,0,1-1.548-1.55v-1.636a12.4,12.4,0,0,1-3.544-1.429l-1.207,1.207a1.547,1.547,0,0,1-2.19,0l-2.234-2.234a1.55,1.55,0,0,1,0-2.19l1.24-1.239a12.357,12.357,0,0,1-1.362-3.433H182.6a1.549,1.549,0,0,1-1.548-1.55v-3.158A1.548,1.548,0,0,1,182.6,179.444Zm12.527,11.231a7.964,7.964,0,1,0-6.253-6.253A7.97,7.97,0,0,0,195.124,190.675Z" transform="translate(-164.061 -156.808)" fill="#fff"/>
  </g>
  <g id="Group_69931" data-name="Group 69931" transform="translate(129.747 40.686)">
    <rect id="Rectangle_28114" data-name="Rectangle 28114" width="65.503" height="51.26" rx="3.988" transform="translate(0 0)" fill="#7ad4ff"/>
    <g id="Group_69930" data-name="Group 69930" transform="translate(13.258 14.985)">
      <g id="Group_69928" data-name="Group 69928" transform="translate(0 1.087)">
        <g id="Group_69926" data-name="Group 69926">
          <path id="Path_51030" data-name="Path 51030" d="M253.645,167.1a1.479,1.479,0,0,1-1.081-.48l-6.9-7.39a1.716,1.716,0,0,1,0-2.313l7.021-7.513a1.459,1.459,0,0,1,2.163,0,1.72,1.72,0,0,1,0,2.315l-5.94,6.354,5.822,6.232a1.717,1.717,0,0,1,0,2.315A1.479,1.479,0,0,1,253.645,167.1Z" transform="translate(-245.211 -148.924)" fill="#fff"/>
        </g>
        <g id="Group_69927" data-name="Group 69927" transform="translate(28.906)">
          <path id="Path_51031" data-name="Path 51031" d="M270.062,167.1a1.479,1.479,0,0,1-1.081-.48,1.717,1.717,0,0,1,0-2.315l5.824-6.232-5.941-6.354a1.72,1.72,0,0,1,0-2.315,1.459,1.459,0,0,1,2.163,0l7.022,7.513a1.716,1.716,0,0,1,0,2.313l-6.9,7.39A1.479,1.479,0,0,1,270.062,167.1Z" transform="translate(-268.416 -148.924)" fill="#fff"/>
        </g>
      </g>
      <g id="Group_69929" data-name="Group 69929" transform="translate(14.537)">
        <path id="Path_51032" data-name="Path 51032" d="M258.41,169.342a1.439,1.439,0,0,1-.576-.121,1.679,1.679,0,0,1-.841-2.133l6.854-18.017a1.5,1.5,0,0,1,1.993-.9,1.679,1.679,0,0,1,.841,2.133l-6.854,18.015A1.533,1.533,0,0,1,258.41,169.342Z" transform="translate(-256.88 -148.052)" fill="#fff"/>
      </g>
    </g>
  </g>
  <g id="Group_69935" data-name="Group 69935" transform="translate(84.556 95.497)">
    <g id="Group_69934" data-name="Group 69934">
      <path id="Rectangle_28115" data-name="Rectangle 28115" d="M1.66,0H136.213a1.66,1.66,0,0,1,1.66,1.66V6.3a0,0,0,0,1,0,0H0a0,0,0,0,1,0,0V1.66A1.66,1.66,0,0,1,1.66,0Z" fill="#fff"/>
      <path id="Rectangle_28116" data-name="Rectangle 28116" d="M0,0H137.872a0,0,0,0,1,0,0V70.414a3.09,3.09,0,0,1-3.09,3.09H3.09A3.09,3.09,0,0,1,0,70.413V0A0,0,0,0,1,0,0Z" transform="translate(0 6.299)" fill="#00527a"/>
      <g id="Group_69933" data-name="Group 69933" transform="translate(6.618 2.181)">
        <g id="Group_69932" data-name="Group 69932" transform="translate(0)">
          <path id="Path_51033" data-name="Path 51033" d="M316.56,182.742a.969.969,0,1,0,.969-.969A.969.969,0,0,0,316.56,182.742Z" transform="translate(-316.56 -181.773)" fill="#ff6224"/>
          <path id="Path_51034" data-name="Path 51034" d="M311.212,182.742a.969.969,0,1,0,.969-.969A.969.969,0,0,0,311.212,182.742Z" transform="translate(-304.55 -181.773)" fill="#ff6224"/>
          <path id="Path_51035" data-name="Path 51035" d="M305.863,182.742a.969.969,0,1,0,.969-.969A.969.969,0,0,0,305.863,182.742Z" transform="translate(-292.538 -181.773)" fill="#ff6224"/>
        </g>
      </g>
      <path id="Path_51036" data-name="Path 51036" d="M218.751,193.579h76.56a1.332,1.332,0,0,0,1.333-1.332h0a1.333,1.333,0,0,0-1.333-1.333h-76.56a1.333,1.333,0,0,0-1.332,1.333h0A1.332,1.332,0,0,0,218.751,193.579Z" transform="translate(-164.586 -177.346)" fill="#63ccff"/>
      <path id="Path_51037" data-name="Path 51037" d="M218.751,200.387h76.56a1.333,1.333,0,0,0,1.333-1.333h0a1.333,1.333,0,0,0-1.333-1.333h-76.56a1.333,1.333,0,0,0-1.332,1.333h0A1.333,1.333,0,0,0,218.751,200.387Z" transform="translate(-164.586 -175.674)" fill="#63ccff"/>
      <path id="Path_51038" data-name="Path 51038" d="M218.752,207.194h40.036a1.333,1.333,0,0,0,1.333-1.333h0a1.333,1.333,0,0,0-1.333-1.333H218.752a1.333,1.333,0,0,0-1.333,1.333h0A1.333,1.333,0,0,0,218.752,207.194Z" transform="translate(-128.063 -174.001)" fill="#63ccff"/>
      <path id="Path_51039" data-name="Path 51039" d="M218.751,220.808h76.56a1.333,1.333,0,0,0,1.333-1.333h0a1.333,1.333,0,0,0-1.333-1.332h-76.56a1.332,1.332,0,0,0-1.332,1.332h0A1.333,1.333,0,0,0,218.751,220.808Z" transform="translate(-164.586 -170.656)" fill="#18aef6"/>
      <path id="Path_51040" data-name="Path 51040" d="M218.752,227.615h40.036a1.333,1.333,0,0,0,1.333-1.333h0a1.333,1.333,0,0,0-1.333-1.332H218.752a1.333,1.333,0,0,0-1.333,1.332h0A1.333,1.333,0,0,0,218.752,227.615Z" transform="translate(-128.063 -168.983)" fill="#18aef6"/>
      <path id="Path_51041" data-name="Path 51041" d="M218.752,234.422h40.036a1.333,1.333,0,0,0,1.333-1.332h0a1.333,1.333,0,0,0-1.333-1.333H218.752a1.333,1.333,0,0,0-1.333,1.333h0A1.333,1.333,0,0,0,218.752,234.422Z" transform="translate(-128.063 -167.311)" fill="#63ccff"/>
      <path id="Path_51042" data-name="Path 51042" d="M257.114,207.194h28.771a1.333,1.333,0,0,0,1.333-1.333h0a1.333,1.333,0,0,0-1.333-1.333H257.114a1.333,1.333,0,0,0-1.332,1.333h0A1.333,1.333,0,0,0,257.114,207.194Z" transform="translate(-202.949 -174.001)" fill="#fff"/>
      <path id="Path_51043" data-name="Path 51043" d="M292.688,191.831l20.344,20.344a1.332,1.332,0,0,0,1.885,0h0a1.332,1.332,0,0,0,0-1.885l-20.344-20.344a1.332,1.332,0,0,0-1.885,0h0A1.332,1.332,0,0,0,292.688,191.831Z" transform="translate(-276.526 -177.68)" fill="#18aef6"/>
      <ellipse id="Ellipse_1028" data-name="Ellipse 1028" cx="11.996" cy="11.997" rx="11.996" ry="11.997" transform="translate(18.371 67.076) rotate(-103.339)" fill="#ff6224"/>
      <path id="Path_51044" data-name="Path 51044" d="M289.37,230.327a6.791,6.791,0,1,0,6.79-6.792A6.791,6.791,0,0,0,289.37,230.327Z" transform="translate(-260.525 -169.331)" fill="#20c3c5"/>
    </g>
    <path id="Path_51045" data-name="Path 51045" d="M235.043,238.114v24.255l-22.292-22.292" transform="translate(-97.171 -165.749)" fill="#383873"/>
  </g>
  <g id="Group_69936" data-name="Group 69936" transform="translate(152.553 198.673)">
    <path id="Path_51046" data-name="Path 51046" d="M260.3,262.848H211.39L193.7,296.888h48.909Z" transform="translate(-166.697 -262.848)" fill="#3aa7e9"/>
    <path id="Path_51047" data-name="Path 51047" d="M240.848,293.969l14.645-28.187a.888.888,0,0,0-.789-1.3H212.392a.887.887,0,0,0-.787.478L196.961,293.15a.887.887,0,0,0,.787,1.3H240.06A.889.889,0,0,0,240.848,293.969Z" transform="translate(-165.921 -262.446)" fill="#fff"/>
    <rect id="Rectangle_28117" data-name="Rectangle 28117" width="39.613" height="4.544" transform="translate(36.304 34.04)" fill="#7eceff"/>
    <path id="Path_51048" data-name="Path 51048" d="M236.089,290.174h39.089a2.272,2.272,0,0,1,2.272,2.272h0a2.273,2.273,0,0,1-2.272,2.272H236.089a2.273,2.273,0,0,1-2.272-2.272h0A2.272,2.272,0,0,1,236.089,290.174Z" transform="translate(-233.817 -256.134)" fill="#56b8f3"/>
    <path id="Path_51049" data-name="Path 51049" d="M192.524,296.888l17.687-34.04.887.665a1.457,1.457,0,0,1,.415,1.844l-18.988,36.076Z" transform="translate(-116.608 -262.848)" fill="#7eceff"/>
    <rect id="Rectangle_28118" data-name="Rectangle 28118" width="4.361" height="0.757" transform="translate(58.109 36.161)" fill="#56b8f3"/>
    <rect id="Rectangle_28119" data-name="Rectangle 28119" width="4.361" height="0.757" transform="translate(52.628 36.161)" fill="#56b8f3"/>
    <rect id="Rectangle_28120" data-name="Rectangle 28120" width="4.361" height="0.757" transform="translate(47.146 36.161)" fill="#56b8f3"/>
  </g>
  <g id="Group_69937" data-name="Group 69937" transform="translate(95.092 131.703)">
    <path id="Path_51050" data-name="Path 51050" d="M209.017,346.418s40.569,31.586,47,39.611c2.427,3.038,6.658,8.36,11.042,13.815,7.2,8.963,14.835,18.3,15.742,18.526,1.449.366,13.622-8.9,13.989-10.9.224-1.243-10.859-20.269-20.453-35.563-5.842-9.3-11.123-17.232-12.979-18.945-4.9-4.547-35.084-20.534-35.084-20.534Z" transform="translate(-164.81 -178.781)" fill="#19325a"/>
    <path id="Path_51051" data-name="Path 51051" d="M274.262,408.442s-37.9-53.948-56.928-63.033" transform="translate(-152.634 -175.591)" fill="none" stroke="#000" stroke-linecap="round" stroke-miterlimit="10" stroke-width="0.818" opacity="0.15" style="mix-blend-mode: overlay;isolation: isolate"/>
    <path id="Path_51052" data-name="Path 51052" d="M279.276,238.2c.429.979.917,2,1.467,3.038,2.967,5.669.775,11.348,4.161,12.8a3.827,3.827,0,0,0,.683.214c4.364.969,14.417-4.843,14.855-7.748s-3.1-7.882,0-8.483,4.772,4.609,4.772,4.609c2.549.264,3.457-4.007,7.636-4.007a7,7,0,0,1,1.734.224,14.145,14.145,0,0,1,6.077,3.864,8.293,8.293,0,0,0,3.548-6.995c-.3-7.351-3.007-12.714-9.543-13.8-.724-8.177-7.453-12.541-16.446-12.816-7.882-.245-9.064,6.841-9.248,8.605.072-1.315.438-5.638,2.315-8.605-3.945-.173-7.422,2.641-6.515,11.817-.907-2.733-4.088-4.456-6.535-2.458,2.264,0,4.446,3.814,4.446,3.814a15.371,15.371,0,0,0-4.477,4.853C276.7,229.721,277.267,233.564,279.276,238.2Z" transform="translate(-277.35 -209.087)" fill="#382424"/>
    <path id="Path_51053" data-name="Path 51053" d="M285.081,248.34l.1,1.347.346,4.771s7.259,6.21,11.378,0a.98.98,0,0,1,.092-.122c1.274-1.9,2.427-2.559,3.477-2.682,2.273-.275,4.108,1.948,6.006-.458a46.242,46.242,0,0,0,8.279-18.047,7,7,0,0,0-1.734-.224c-4.179,0-5.087,4.272-7.636,4.007,0,0-1.672-5.211-4.772-4.609s.438,5.577,0,8.483c-.193,1.294-2.3,3.17-4.975,4.761-3.109,1.866-6.983,3.345-9.441,3.059-.153-.021-.3-.041-.439-.072A3.827,3.827,0,0,1,285.081,248.34Z" transform="translate(-277.527 -203.39)" fill="#ffad94"/>
    <path id="Path_51054" data-name="Path 51054" d="M299.234,254.25c3.274,2.234,9.268,2.6,9.268,2.6l4.9-.724s2.049-2.977,1.091-4.639a5.741,5.741,0,0,0-1.3-1.3,35.067,35.067,0,0,0-5.628-3.61,18.032,18.032,0,0,0-6.28-2.2C297.175,244.136,295.961,252.007,299.234,254.25Z" transform="translate(-292.812 -200.419)" opacity="0.25" style="mix-blend-mode: overlay;isolation: isolate"/>
    <path id="Path_51055" data-name="Path 51055" d="M284.483,332.372c7.3,1.408,22.747-2.9,30.139-6.219,2.182-.979,3.671-1.876,4.027-2.509,1.418-2.5-.01-4.415-3.528-12.346-.4-.9-.816-1.866-1.264-2.916-2.385-5.618-2.4-17.6-2.385-27.926.031-8.841.071-16.467-1.335-17.822-3.048-2.937-18.261-12.552-18.261-12.552l-3.028,15.783s-1.713,8.014-3.518,18.475C282.006,303.6,278.356,331.19,284.483,332.372Z" transform="translate(-277.093 -199.014)" fill="#23a7e6"/>
    <path id="Path_51056" data-name="Path 51056" d="M228.065,324.888c0,.724,7.269,17.679,13.366,20.106s42.843-.244,42.843-.244l18.17,11.878-3.8,35.788-2.651,24.939-.082.8c5.557,3.63,19.556,4.609,21.065,1.479a.031.031,0,0,0,.01-.02c1.459-3.15,23.746-70.261,15.018-81.893s-64.682-28.59-64.682-28.59a30.888,30.888,0,0,1-5,2.509c-6.22,2.549-14.121,4.15-20.137,5.087-2.315.358-4.344.622-5.893.806-1.958.234-3.14.325-3.14.325S228.065,324.155,228.065,324.888Z" transform="translate(-225.762 -184.504)" fill="#364d72"/>
    <path id="Path_51057" data-name="Path 51057" d="M222.521,420.193H269.77a2.778,2.778,0,0,0-.8-2.539c-1.916-2.3-6.718-4.619-11.347-6.617-4.395-1.9-8.617-3.528-10.033-4.649-3.335-2.641-1.8-7.779-1.7-8.1-.509,1.05-2.437,1.642-4.985,1.815-5.007.356-12.4-.887-16.08-3.294l.082-.8c-1.408,2.691-2.07,16-2.295,21.646C222.552,419.214,222.521,420.193,222.521,420.193Z" transform="translate(-154.679 -163.158)" fill="#19325a"/>
    <path id="Path_51058" data-name="Path 51058" d="M232.33,399.657c.142,2.253.468,5.9,1.121,6.883.968,1.457,11.388,6.545,12.837,6.055a8.637,8.637,0,0,0,2.763-2.008c-4.395-1.9-8.617-3.528-10.033-4.649-3.335-2.641-1.8-7.779-1.7-8.1C236.806,398.892,234.879,399.484,232.33,399.657Z" transform="translate(-146.104 -162.708)" fill="#2e4780"/>
    <path id="Path_51059" data-name="Path 51059" d="M222.521,415.924H269.77a2.778,2.778,0,0,0-.8-2.539H222.613C222.552,414.945,222.521,415.924,222.521,415.924Z" transform="translate(-154.679 -158.889)" fill="#2e4780"/>
    <path id="Path_51060" data-name="Path 51060" d="M188.6,403.582s3.589,9.461,6.7,14.468c1.233,2,2.405,3.294,3.231,2.977,2.906-1.091,32.107-25.918,29.314-27.733a4.693,4.693,0,0,0-1.876-.551c-2.539-.325-6.751.031-10.645.429-3.345.346-6.454.724-8.076.724-4.118,0-4.659-1.213-4.659-1.213a7.452,7.452,0,0,1-2.019,2.488C196.956,398.6,189.7,403.857,188.6,403.582Z" transform="translate(-70.6 -163.992)" fill="#19325a"/>
    <path id="Path_51061" data-name="Path 51061" d="M198.761,395.157c6.189,4.1,12.643,1.632,13.918.694a2.8,2.8,0,0,0,.836-2.692c-3.345.346-6.454.724-8.076.724-4.118,0-4.659-1.213-4.659-1.213A7.451,7.451,0,0,1,198.761,395.157Z" transform="translate(-68.796 -163.979)" fill="#2e4780"/>
    <path id="Path_51062" data-name="Path 51062" d="M188.6,418.025c1.233,2,2.405,3.294,3.231,2.977,2.906-1.091,32.107-25.918,29.314-27.733a4.694,4.694,0,0,0-1.876-.551Z" transform="translate(-63.901 -163.967)" fill="#2e4780"/>
    <path id="Path_51063" data-name="Path 51063" d="M228.689,293.849c2.283,3.182,6.372,8.035,9.736,7.545.122-.02.255-.041.419-.071,6.423-1.132,44.2-10.6,45.983-10.961,1.815-.358,14.529-.48,13.8-1.815s-7.994-5.567-9.931-5.465-9.573,2.314-17.2,2.07-27.621,0-27.621,0l-.969-1.673-1.426-2.468C241.882,288.415,232.961,294.451,228.689,293.849Z" transform="translate(-191.18 -191.414)" fill="#ffad94"/>
    <path id="Path_51064" data-name="Path 51064" d="M289.742,313.464s1.74,9.267-5.043,12.356" transform="translate(-252.232 -183.44)" fill="none" stroke="#000" stroke-linecap="round" stroke-miterlimit="10" stroke-width="0.818" opacity="0.15" style="mix-blend-mode: overlay;isolation: isolate"/>
    <path id="Path_51065" data-name="Path 51065" d="M244.064,319.445s44.874,19.139,47.028,25.075-11.416,70.3-11.416,70.3" transform="translate(-202.994 -181.971)" fill="none" stroke="#000" stroke-linecap="round" stroke-miterlimit="10" stroke-width="0.818" opacity="0.15" style="mix-blend-mode: overlay;isolation: isolate"/>
    <path id="Path_51066" data-name="Path 51066" d="M250.3,323.39c0,.724,7.269,17.679,13.366,20.106s42.843-.244,42.843-.244l18.17,11.878-3.8,35.788s7.677-40.876,7.677-43.548c0-2.283-50.755-16.873-64.132-32.137-5.241.826-9.034,1.131-9.034,1.131S250.3,322.656,250.3,323.39Z" transform="translate(-248.001 -183.006)" opacity="0.15" style="mix-blend-mode: overlay;isolation: isolate"/>
    <path id="Path_51067" data-name="Path 51067" d="M287.719,291.454c3.15,4.466,8.228,10.134,11.8,15.274-.4-.9-.816-1.866-1.264-2.916-2.386-5.618-2.4-17.6-2.386-27.926l-10.879-7.2S282.632,284.245,287.719,291.454Z" transform="translate(-261.487 -194.443)" opacity="0.25" style="mix-blend-mode: overlay;isolation: isolate"/>
    <path id="Path_51068" data-name="Path 51068" d="M286.9,297.622c.468.428.948.857,1.428,1.254a2.349,2.349,0,0,0,.561.122c4.272.6,13.193-5.434,12.8-12.837a10.787,10.787,0,0,0-1.183-3.089c-3.65-7.361-14.631-23.746-16.65-22.991,0,0-7.055,1.091-8.972,10.726C273.085,279.85,279.56,290.821,286.9,297.622Z" transform="translate(-251.38 -196.564)" fill="#007ab1"/>
    <path id="Path_51069" data-name="Path 51069" d="M285.621,323.092c1.55-.184,3.579-.448,5.893-.806,6.016-.938,13.917-2.539,20.137-5.087-5.486-.194-17.222-3.8-18.638-30.669a132,132,0,0,1-2.957,15.569A212.19,212.19,0,0,0,285.621,323.092Z" transform="translate(-275.09 -190.059)" opacity="0.25" style="mix-blend-mode: overlay;isolation: isolate"/>
    <path id="Path_51070" data-name="Path 51070" d="M296.548,245.179a18.648,18.648,0,0,1,1.335,1.743,35.065,35.065,0,0,1,5.628,3.61,4.077,4.077,0,0,1,2.56-1.5l-4.833-6.087A26.345,26.345,0,0,1,296.548,245.179Z" transform="translate(-283.122 -200.768)" opacity="0.25" style="mix-blend-mode: overlay;isolation: isolate"/>
    <path id="Path_51071" data-name="Path 51071" d="M273.385,293.849c2.283,3.182,6.372,8.035,9.736,7.545.122-.02.255-.041.419-.071,4.159-6.016,4.313-13.9,4.067-17.844l-1.426-2.468C286.578,288.415,277.656,294.451,273.385,293.849Z" transform="translate(-235.875 -191.414)" opacity="0.25" style="mix-blend-mode: overlay;isolation: isolate"/>
    <path id="Path_51072" data-name="Path 51072" d="M281.234,233.6c.429.979.917,2,1.467,3.038a20.538,20.538,0,0,1,1.907,7.852,15.01,15.01,0,0,1,1.489-1.02,26.43,26.43,0,0,1,6.637,5.425l.01.01c4.446-1.591,9.35-5,9.656-7,.438-2.906-3.1-7.882,0-8.483s4.772,4.609,4.772,4.609c2.549.264,3.457-4.007,7.636-4.007a7,7,0,0,1,1.734.224,12.4,12.4,0,0,1,4.792,2.641s-4.711-6.617-12.1-5.282c0,0,1.081-2.059,6.057-1.815-10.42-3.395-17.079-2.059-20.29,1.693C292.378,234.546,286.229,238.338,281.234,233.6Z" transform="translate(-279.308 -204.481)" opacity="0.25" style="mix-blend-mode: overlay;isolation: isolate"/>
  </g>
  <g id="Group_69938" data-name="Group 69938" transform="translate(33.597 164.104)">
    <path id="Path_51073" data-name="Path 51073" d="M343.487,374.82h36.349S351,366.336,351,309.158c0-.734,0-1.457.01-2.181.3-38.215,8.463-59.29,18.526-65.3a43.728,43.728,0,0,0-12.877-4.883,67.567,67.567,0,0,0-8.025-1.3c-24.888-2.539-44.77,7.219-47.135,18.261S313.7,374.82,343.487,374.82Z" transform="translate(-301.254 -235.097)" fill="#7eceff"/>
    <path id="Path_51074" data-name="Path 51074" d="M253.414,307.859c0,57.178,28.835,65.661,28.835,65.661h59.595l-2.478-1.764-15.692-10.114-31.494-2.182c-1.693-7.025-6.3-7.259-13.327-7.994-4.088-.417-4.486-7.32-3.243-16.446a208.788,208.788,0,0,1,4.517-21.584,131.989,131.989,0,0,0,2.957-15.569,136.168,136.168,0,0,0,1.131-16.792,141.945,141.945,0,0,0-2.926-29.792c-.142-.724-.3-1.418-.448-2.08,0-.02-.01-.051-.01-.071a14.666,14.666,0,0,0-2.234-3.314l-.01-.01a26.43,26.43,0,0,0-6.637-5.425,15,15,0,0,0-1.489,1.02c-9.37,7.137-16.752,27.967-17.038,64.275C253.414,306.4,253.414,307.126,253.414,307.859Z" transform="translate(-203.666 -233.798)" fill="#4f9bc9"/>
    <path id="Path_51075" data-name="Path 51075" d="M281.032,432.171h42.9a1.544,1.544,0,0,0,.948-2.763l-10.736-8.4a19.7,19.7,0,0,1-7.545-15.5V347.26h-8.238v58.249a19.682,19.682,0,0,1-7.555,15.5l-10.727,8.4A1.544,1.544,0,0,0,281.032,432.171Z" transform="translate(-219.784 -207.537)" fill="#29294f"/>
    <path id="Path_51076" data-name="Path 51076" d="M331.528,237.185s-4.27,10.924-7.124,32.938c-4.08,31.462.439,76.2,29.943,102.637" transform="translate(-303.003 -234.584)" fill="none" stroke="#000" stroke-linecap="round" stroke-miterlimit="10" stroke-width="0.818" stroke-dasharray="4.092" opacity="0.25" style="mix-blend-mode: overlay;isolation: isolate"/>
    <path id="Path_51077" data-name="Path 51077" d="M294.641,347.26v15.905a57.888,57.888,0,0,0,8.238,3.467V347.26Z" transform="translate(-216.059 -207.537)" opacity="0.15" style="mix-blend-mode: overlay;isolation: isolate"/>
    <path id="Path_51078" data-name="Path 51078" d="M253.552,340.78c1.937,6.057,14.039,4.972,15.508,9.451,3.117,9.506,4.843,5.323,16.823,6.536,6.851.693,11.827,5.088,14.825,8.727h23.828l-2.478-1.764-15.692-10.114-31.494-2.182c-1.693-7.025-6.3-7.259-13.327-7.994-4.088-.417-4.486-7.32-3.243-16.446a208.8,208.8,0,0,1,4.517-21.584,132,132,0,0,0,2.957-15.569,136.168,136.168,0,0,0,1.131-16.792C262.25,297.335,252.115,336.294,253.552,340.78Z" transform="translate(-186.36 -225.772)" opacity="0.15" style="mix-blend-mode: overlay;isolation: isolate"/>
    <path id="Path_51079" data-name="Path 51079" d="M306.363,308.823c0-.734,0-1.457.01-2.181.3-38.215,8.463-59.29,18.526-65.3a43.728,43.728,0,0,0-12.877-4.883c1.662,2.4,3.395,5.994,2.579,9.839-1.457,6.8-17.935,32.963-11.634,74.878,4.548,30.241,3.038,45.973-1.713,53.3H335.2S306.363,366,306.363,308.823Z" transform="translate(-256.615 -234.761)" opacity="0.15" style="mix-blend-mode: overlay;isolation: isolate"/>
  </g>
  <path id="Path_51080" data-name="Path 51080" d="M137.8,271.5a18.716,18.716,0,0,0,.387,3.69h11.695a36.5,36.5,0,0,0,12.409-13.581c-3.13,3.406-8.473,7.555-13.917,8.82C143.618,271.527,140.079,271.058,137.8,271.5Z" transform="translate(153.514 -64.48)" opacity="0.25" style="mix-blend-mode: overlay;isolation: isolate"/>
  <g id="Group_69941" data-name="Group 69941" transform="translate(186.529 9.633)">
    <rect id="Rectangle_28121" data-name="Rectangle 28121" width="65.503" height="51.261" rx="3.988" fill="#18aef6"/>
    <path id="Union_25" data-name="Union 25" d="M7.125,28.557A15.51,15.51,0,0,1,15.512,0a15.342,15.342,0,0,1,7.112,1.728l.289.15-.253.211a4.853,4.853,0,0,0-1.431,1.876l-.087.211-.2-.095a12.678,12.678,0,1,0,6.27,6.585l-.085-.211.211-.076a4.854,4.854,0,0,0,1.944-1.338l.211-.245.135.3,0-.019a15.513,15.513,0,0,1-22.5,19.485ZM8.444,15.517a7.07,7.07,0,1,1,7.07,7.069A7.069,7.069,0,0,1,8.444,15.517Zm14-9.661a3.22,3.22,0,1,1,3.22,3.22A3.22,3.22,0,0,1,22.444,5.855Z" transform="translate(17.238 10.12)" fill="#fff"/>
  </g>
  <g id="Group_69944" data-name="Group 69944" transform="translate(127.627 0)">
    <g id="Group_69943" data-name="Group 69943">
      <g id="Group_69942" data-name="Group 69942">
        <path id="Path_51095" data-name="Path 51095" d="M265.25,117.387a2.349,2.349,0,0,1-2.57-2.647,29.876,29.876,0,0,1,.227-3.213,32.077,32.077,0,0,0,.227-3.327c0-3.4-2.079-4.838-4.764-4.838h-.453v1.966h.567c1.588,0,2.231,1.134,2.231,2.835a22.7,22.7,0,0,1-.228,2.873c-.075.983-.188,1.891-.188,2.8-.037,2.949.983,3.969,2.609,4.424v.075c-1.626.492-2.646,1.512-2.609,4.5,0,.945.113,1.891.188,2.835a23.929,23.929,0,0,1,.228,2.911c0,1.7-.567,2.874-2.268,2.874h-.529v1.966h.492c2.494,0,4.725-1.248,4.725-4.84a32.8,32.8,0,0,0-.227-3.365,32.062,32.062,0,0,1-.227-3.25,2.391,2.391,0,0,1,2.57-2.684Z" transform="translate(-226.711 -103.362)" fill="#63ccff"/>
        <path id="Path_51096" data-name="Path 51096" d="M282.965,119.277a2.392,2.392,0,0,1,2.571,2.684,32.062,32.062,0,0,1-.227,3.25,32.811,32.811,0,0,0-.228,3.365c0,3.591,2.231,4.84,4.726,4.84h.492V131.45h-.529c-1.7-.189-2.268-1.172-2.268-2.874,0-1.02.113-1.966.189-2.911a23.862,23.862,0,0,0,.227-2.835c.037-2.986-.983-4.006-2.609-4.5v-.075c1.626-.455,2.646-1.475,2.609-4.424a24.585,24.585,0,0,0-.227-2.8c-.076-.907-.189-1.852-.189-2.873,0-1.7.643-2.646,2.23-2.835h.568v-1.966h-.455c-2.683,0-4.764,1.436-4.764,4.838a32.084,32.084,0,0,0,.228,3.327,29.876,29.876,0,0,1,.227,3.213,2.35,2.35,0,0,1-2.571,2.647Z" transform="translate(-282.965 -103.362)" fill="#63ccff"/>
      </g>
    </g>
    <path id="Path_51097" data-name="Path 51097" d="M268.329,120.5v-7.272l6.3-3.636,6.3,3.636V120.5l-6.3,3.636Z" transform="translate(-255.357 -101.832)" fill="#18aef6"/>
  </g>
  <g id="Group_69945" data-name="Group 69945" transform="translate(84.25 53.283)">
    <path id="Path_51098" data-name="Path 51098" d="M298.935,147.748A15.36,15.36,0,0,1,317.264,171.7l2.308-.274a.51.51,0,0,1,.12,1.013l-3.515.417a.508.508,0,0,1-.567-.446l-.4-3.4a.51.51,0,0,1,1.013-.12l.258,2.166a14.342,14.342,0,0,0-17.085-22.4.509.509,0,1,1-.455-.912Z" transform="translate(-289.968 -146.135)" fill="#28294e"/>
    <path id="Path_51099" data-name="Path 51099" d="M327.827,175.033A15.36,15.36,0,0,1,309.5,151.078l-2.307.274a.51.51,0,1,1-.121-1.013l3.517-.417a.507.507,0,0,1,.566.446l.4,3.4a.509.509,0,1,1-1.011.12l-.258-2.166a14.342,14.342,0,0,0,17.085,22.4.509.509,0,1,1,.453.912Z" transform="translate(-305.624 -145.205)" fill="#28294e"/>
  </g>
  <g id="Group_69948" data-name="Group 69948" transform="translate(384.86 322.582)">
    <path id="Path_51106" data-name="Path 51106" d="M367.069,306.77a65.688,65.688,0,0,1-4.535,10.167c-5.686,10.388-12.29,16.995-12.537,26.682a57.978,57.978,0,0,1-.4-19.521,36.126,36.126,0,0,1,7.273-17.327c11.871-14.6,10.113-27.877,10.113-27.877S372.931,289.784,367.069,306.77Z" transform="translate(-346.41 -278.893)" fill="#42a3de"/>
    <path id="Path_51107" data-name="Path 51107" d="M356.786,332.215s-1.412-7.5,6-18.4,9.707-31.242,7.678-34.927" transform="translate(-349.893 -278.893)" fill="none" stroke="#000" stroke-linecap="round" stroke-miterlimit="10" stroke-width="0.818" opacity="0.25" style="mix-blend-mode: overlay;isolation: isolate"/>
    <path id="Path_51108" data-name="Path 51108" d="M362.534,348.169c-5.686,10.388-12.29,16.995-12.537,26.682a57.978,57.978,0,0,1-.4-19.521A56.353,56.353,0,0,0,362.534,348.169Z" transform="translate(-346.41 -310.125)" opacity="0.25" style="mix-blend-mode: overlay;isolation: isolate"/>
    <path id="Path_51109" data-name="Path 51109" d="M351.206,378.009s-4.152-7.1,5.675-15.86S374.4,341.8,372.9,332.429c-9.4,10.92-34.393,26.4-27.343,45.578Z" transform="translate(-344.323 -303.029)" fill="#7eceff"/>
    <path id="Path_51110" data-name="Path 51110" d="M375.491,332.429s-2.96,7.21-12.6,14.949-15.381,22.178-11.7,30.65" transform="translate(-346.912 -303.029)" fill="none" stroke="#000" stroke-linecap="round" stroke-miterlimit="10" stroke-width="0.818" opacity="0.25" style="mix-blend-mode: overlay;isolation: isolate"/>
  </g>
  <path id="Path_51115" data-name="Path 51115" d="M140.7,433.111H568.083c6.741,0,12.2-3.96,12.2-8.845h0c0-4.883-5.463-8.843-12.2-8.843H140.7c-6.741,0-12.206,3.96-12.206,8.843h0C128.5,429.151,133.962,433.111,140.7,433.111Z" transform="translate(-128.497 -26.685)" fill="#c7e8ff"/>
</svg>
