<svg xmlns="http://www.w3.org/2000/svg" width="51.035" height="43.138" viewBox="0 0 51.035 43.138">
  <g id="Group_55692" data-name="Group 55692" transform="translate(-354.463 -1849.856)">
    <g id="Group_55627" data-name="Group 55627" transform="translate(-137.285 1627.83)">
      <path id="Path_14078" data-name="Path 14078" d="M542.783,256.179a.91.91,0,0,0-.092.167,3.151,3.151,0,0,1-3.248,2.415q-7.127.007-14.253,0h-.679l.606,4.9c.811,0,1.587,0,2.364,0,.578,0,.926.292.921.75s-.358.745-.935.745q-10.191,0-20.383,0c-.606,0-.969-.3-.953-.776.016-.457.356-.718.948-.721.763,0,1.525,0,2.332,0l.614-4.9H495.258a3.2,3.2,0,0,1-3.51-3.536q0-14.855,0-29.71a3.187,3.187,0,0,1,3.5-3.49h43.607c2.337,0,3.051.472,3.927,2.593Zm-25.472-32.655H495.283c-1.462,0-2.04.586-2.04,2.065q0,14.806,0,29.611c0,1.472.587,2.064,2.047,2.064h43.957c1.434,0,2.041-.6,2.041-2.021q0-14.831,0-29.661c0-1.47-.585-2.058-2.048-2.058Zm6.289,40.122c-.16-1.325-.315-2.611-.471-3.9-.12-.987-.122-.987-1.139-.987-.166,0-.332,0-.5,0-.4.008-.9-.125-1.161.068s-.266.711-.378,1.088a2.787,2.787,0,0,1-5.379-.03c-.1-.365-.195-.734-.287-1.084h-2.762l-.6,4.84Zm-7.723-4.861c.151,1.153.662,1.724,1.457,1.673.774-.049,1.252-.659,1.3-1.673Z" fill="#222872"/>
      <path id="Path_14083" data-name="Path 14083" d="M517.237,247.535v27.342c.273,0,.547-.011.82,0a.727.727,0,0,1,.749.706.716.716,0,0,1-.692.768,12.878,12.878,0,0,1-1.692,0,.724.724,0,0,1-.7-.766c-.007-.133,0-.266,0-.4V247.23c0-1,.188-1.193,1.188-1.193h37.47a2.861,2.861,0,0,1,.547.019.707.707,0,0,1,.638.767.7.7,0,0,1-.7.706c-.181.015-.365.006-.548.006H517.237Z" transform="translate(-20.777 -20.811)" fill="#222872"/>
      <path id="Path_14084" data-name="Path 14084" d="M590.132,274.834V247.492c-.287,0-.563.012-.838,0a.74.74,0,0,1-.035-1.48,14.537,14.537,0,0,1,1.693,0,.715.715,0,0,1,.688.726c.014.149.005.3.005.449q0,13.979,0,27.957c0,.994-.194,1.186-1.2,1.186q-18.735,0-37.47,0a2.546,2.546,0,0,1-.64-.055.672.672,0,0,1-.533-.744.688.688,0,0,1,.664-.686c.2-.02.4-.01.6-.01h37.068Z" transform="translate(-52.055 -20.77)" fill="#222872"/>
    </g>
    <path id="Union_2" data-name="Union 2" d="M3.12,17.912A10.45,10.45,0,0,1,15.438,1.283,3.541,3.541,0,0,0,14.272,2.8a8.485,8.485,0,0,0-7.717.083A8.3,8.3,0,0,0,2.724,6.874a8.545,8.545,0,1,0,15.59.17,3.483,3.483,0,0,0,1.564-1.091A10.443,10.443,0,0,1,3.12,17.912ZM5.7,10.477a4.767,4.767,0,1,1,4.777,4.757A4.773,4.773,0,0,1,5.7,10.477Zm9.43-6.525a2.178,2.178,0,0,1,4.356-.043,2.161,2.161,0,0,1-2.165,2.215h-.018A2.174,2.174,0,0,1,15.133,3.952Z" transform="translate(369.032 1858.529)" fill="#009eff" stroke="rgba(0,0,0,0)" stroke-miterlimit="10" stroke-width="1"/>
  </g>
</svg>
