<svg xmlns="http://www.w3.org/2000/svg" width="53.797" height="53.797" viewBox="0 0 53.797 53.797">
  <g id="Group_55642" data-name="Group 55642" transform="translate(-2.221 3.699)">
    <g id="Group_55641" data-name="Group 55641" transform="translate(0)">
      <g id="ionic-icon" transform="translate(2.221 -3.699)">
        <path id="Path_41642" data-name="Path 41642" d="M26.9,14.653A12.261,12.261,0,1,0,39.161,26.912,12.263,12.263,0,0,0,26.9,14.653Zm24.486,1.112-.236-.512-.368.429A8.41,8.41,0,0,1,47.409,18l-.368.131.144.368A21.979,21.979,0,1,1,36.32,7.075l.341.162.144-.368a8.465,8.465,0,0,1,2.487-3.248l.433-.368-.495-.258A26.633,26.633,0,0,0,26.96,0h-.07A26.9,26.9,0,1,0,51.371,15.735l.013.031Zm-1.3-5.613A5.582,5.582,0,1,0,44.5,15.743a5.58,5.58,0,0,0,5.582-5.591Z" fill="#478aff" fill-rule="evenodd"/>
      </g>
    </g>
  </g>
</svg>
