<svg id="Group_1403" data-name="Group 1403" xmlns="http://www.w3.org/2000/svg" width="38.819" height="39.54" viewBox="0 0 38.819 39.54">
  <path id="Path_13421" data-name="Path 13421" d="M681.648,227.591a9.012,9.012,0,1,0,8.84,9.18v-.17a8.927,8.927,0,0,0-8.84-9.01" transform="translate(-662.241 -216.827)" fill="#4d8aef"/>
  <path id="Path_13422" data-name="Path 13422" d="M686.571,223.4a4.1,4.1,0,1,1-4.025,4.1,4.068,4.068,0,0,1,4.025-4.1" transform="translate(-654.471 -220.053)" fill="#4d8aef"/>
  <path id="Path_13423" data-name="Path 13423" d="M703.753,233.1l-.168-.377-.262.312a6.125,6.125,0,0,1-2.431,1.705l-.26.1.108.269a16.331,16.331,0,0,1-5.989,19.747,15.642,15.642,0,0,1-20.143-2.4,16.4,16.4,0,0,1-1.358-20.622,15.681,15.681,0,0,1,19.649-5.121l.248.12.11-.267a6.148,6.148,0,0,1,1.787-2.387l.317-.267-.363-.189a18.884,18.884,0,0,0-8.9-2.2,19.456,19.456,0,0,0-18.612,14.2,19.954,19.954,0,0,0,8.121,22.2,19.117,19.117,0,0,0,23.195-1.686,20.028,20.028,0,0,0,4.951-23.15Z" transform="translate(-666.692 -221.512)" fill="#4d8aef"/>
</svg>
