<svg id="Layer_1" data-name="Layer 1" xmlns="http://www.w3.org/2000/svg" viewBox="0 0 74.78 57.12"><defs><style>.cls-1{fill:#fff;}</style></defs><path class="cls-1" d="M62.26,41.74c-2.19,5.49-4.83,10.61-9.8,14.11a7,7,0,0,1-5.91.89c-1.95-.48-3.85-1.1-5.79-1.62a11.61,11.61,0,0,0-7.21.72,27.25,27.25,0,0,1-3.28,1.06A8.12,8.12,0,0,1,22,54c-7-8-10.87-17.18-9.09-28,.83-5.09,3.37-9.22,8.09-11.67a13.22,13.22,0,0,1,10.42-.55,20.35,20.35,0,0,0,13.19-.21c6.32-2.06,11.9-.11,15.87,5-3.81,3.06-6.78,6.7-6.33,12S57.28,39.36,62.26,41.74Z"/><path class="cls-1" d="M36.91,13.69C36.83,6.22,42.22-.08,48.55,0,50.16,6.09,43.82,13.61,36.91,13.69Z"/></svg>