<svg xmlns="http://www.w3.org/2000/svg" width="23.195" height="27.155" viewBox="0 0 23.195 27.155"><defs><style>.a{fill:#06B2FF;}</style></defs><g transform="translate(-18.274 -18.407)"><path class="a" d="M253.062,0a6.372,6.372,0,0,0-4.126,2.234,5.535,5.535,0,0,0-1.351,4.3,5.378,5.378,0,0,0,4.163-2.127A5.975,5.975,0,0,0,253.062,0Z" transform="translate(-218.1 18.407)"></path><path class="a" d="M59.745,122.595a6.874,6.874,0,0,0-5.188-2.755c-2.436,0-3.466,1.166-5.158,1.166-1.745,0-3.07-1.163-5.177-1.163a7.044,7.044,0,0,0-5.669,3.427c-1.964,3.045-1.628,8.77,1.555,13.646,1.139,1.745,2.66,3.707,4.649,3.724,1.77.017,2.269-1.135,4.667-1.147s2.853,1.163,4.62,1.144c1.991-.015,3.595-2.189,4.734-3.934a19.567,19.567,0,0,0,1.753-3.293A5.987,5.987,0,0,1,59.745,122.595Z" transform="translate(-19.062 -95.077)"></path></g></svg>