<svg xmlns="http://www.w3.org/2000/svg" width="51.636" height="51.636" viewBox="0 0 51.636 51.636">
  <g id="Group_58428" data-name="Group 58428" transform="translate(-10530.672 -691)">
    <path id="Path_50939" data-name="Path 50939" d="M411.9,28.492h18.4a.807.807,0,0,0,0-1.614H412.7V9.29a.807.807,0,0,0-1.614,0V27.684a.867.867,0,0,0,.806.807Z" transform="translate(10151.207 682.517)" fill="#222872"/>
    <path id="Path_50940" data-name="Path 50940" d="M450.2,13.565v8.956a.762.762,0,0,0,.807.807h8.714a2.6,2.6,0,1,0,2.5-3.389,2.7,2.7,0,0,0-2.5,1.775h-7.907V13.566a2.6,2.6,0,1,0-3.389-2.5,2.647,2.647,0,0,0,1.775,2.5Zm12.022,7.987a.968.968,0,1,1,0,1.937,1.041,1.041,0,0,1-.968-.968A.93.93,0,0,1,462.224,21.553ZM451.009,10.1a.968.968,0,1,1-.968.968A1.042,1.042,0,0,1,451.009,10.1Z" transform="translate(10117.423 682.518)" fill="#222872"/>
    <path id="Path_50941" data-name="Path 50941" d="M97.693,8.484a.762.762,0,0,0-.807.807V26.88H79.3a.807.807,0,0,0,0,1.614H97.693a.762.762,0,0,0,.807-.807V9.292a.809.809,0,0,0-.807-.807Z" transform="translate(10452.181 682.516)" fill="#222872"/>
    <path id="Path_50942" data-name="Path 50942" d="M81.911,25.181a2.7,2.7,0,0,0,2.5-1.775h8.714a.762.762,0,0,0,.807-.807V13.563a2.6,2.6,0,1,0-3.389-2.5,2.7,2.7,0,0,0,1.775,2.5v8.149H84.412a2.61,2.61,0,0,0-5.083.807,2.618,2.618,0,0,0,2.582,2.662ZM93.126,10.093a.968.968,0,1,1-.968.968A.93.93,0,0,1,93.126,10.093ZM81.911,21.549a.968.968,0,1,1-.968.968A.981.981,0,0,1,81.911,21.549Z" transform="translate(10451.423 682.52)" fill="#222872"/>
    <path id="Path_50943" data-name="Path 50943" d="M97.688,341.085h-18.4a.807.807,0,1,0,0,1.614H96.881v17.588a.807.807,0,0,0,1.614,0v-18.4a.868.868,0,0,0-.807-.807Z" transform="translate(10452.187 381.542)" fill="#222872"/>
    <path id="Path_50944" data-name="Path 50944" d="M93.935,388.261v-8.956a.828.828,0,0,0-.807-.807H84.415a2.6,2.6,0,1,0-2.5,3.389,2.7,2.7,0,0,0,2.5-1.775h7.907v8.148a2.6,2.6,0,1,0,3.389,2.5,2.647,2.647,0,0,0-1.775-2.5Zm-12.022-7.987a.968.968,0,1,1,.968-.968A.93.93,0,0,1,81.913,380.274ZM93.128,391.73a.968.968,0,1,1,.968-.968A1.042,1.042,0,0,1,93.128,391.73Z" transform="translate(10451.421 349.292)" fill="#222872"/>
    <path id="Path_50945" data-name="Path 50945" d="M430.288,341.09h-18.4a.762.762,0,0,0-.807.807v18.4a.807.807,0,0,0,1.613,0V342.7h17.588a.807.807,0,0,0,0-1.614Z" transform="translate(10151.213 381.537)" fill="#222872"/>
    <path id="Path_50946" data-name="Path 50946" d="M462.222,375.88a2.7,2.7,0,0,0-2.5,1.775h-8.714a.762.762,0,0,0-.807.807v8.956a2.6,2.6,0,1,0,3.388,2.5,2.7,2.7,0,0,0-1.775-2.5v-8.068h7.907a2.61,2.61,0,0,0,5.083-.807,2.618,2.618,0,0,0-2.582-2.663Zm-11.215,15.088a.968.968,0,1,1,.968-.968A.93.93,0,0,1,451.008,390.968Zm11.215-11.456a.968.968,0,0,1,0-1.937,1.041,1.041,0,0,1,.968.968A.982.982,0,0,1,462.222,379.511Z" transform="translate(10117.423 350.055)" fill="#222872"/>
    <path id="Path_50947" data-name="Path 50947" d="M342.322,19.615a.762.762,0,0,0,.807-.807V9.288a.807.807,0,0,0-1.614,0v9.52A.809.809,0,0,0,342.322,19.615Z" transform="translate(10214.168 682.519)" fill="#222872"/>
    <path id="Path_50948" data-name="Path 50948" d="M342.322,142.911a.762.762,0,0,0,.807-.807v-1.291a.807.807,0,1,0-1.614,0V142.1A.809.809,0,0,0,342.322,142.911Z" transform="translate(10214.168 563.499)" fill="#009eff"/>
    <path id="Path_50949" data-name="Path 50949" d="M342.322,191.271a.762.762,0,0,0,.807-.807v-1.291a.807.807,0,1,0-1.614,0v1.291A.809.809,0,0,0,342.322,191.271Z" transform="translate(10214.168 519.738)" fill="#009eff"/>
    <path id="Path_50950" data-name="Path 50950" d="M342.322,434.43a.762.762,0,0,0-.807.807v9.52a.807.807,0,0,0,1.614,0v-9.52A.808.808,0,0,0,342.322,434.43Z" transform="translate(10214.168 297.073)" fill="#222872"/>
    <path id="Path_50951" data-name="Path 50951" d="M342.322,389.45a.762.762,0,0,0-.807.807v1.291a.807.807,0,0,0,1.614,0v-1.291A.808.808,0,0,0,342.322,389.45Z" transform="translate(10214.168 337.776)" fill="#009eff"/>
    <path id="Path_50952" data-name="Path 50952" d="M342.322,341.09a.762.762,0,0,0-.807.807v1.291a.807.807,0,1,0,1.614,0V341.9A.808.808,0,0,0,342.322,341.09Z" transform="translate(10214.168 381.537)" fill="#009eff"/>
    <path id="Path_50953" data-name="Path 50953" d="M514.752,271.52h-9.52a.807.807,0,0,0,0,1.614h9.52a.807.807,0,1,0,0-1.614Z" transform="translate(10066.749 444.492)" fill="#222872"/>
    <path id="Path_50954" data-name="Path 50954" d="M460.262,271.52a.807.807,0,0,0,0,1.614h1.291a.807.807,0,1,0,0-1.614Z" transform="translate(10107.443 444.492)" fill="#009eff"/>
    <path id="Path_50955" data-name="Path 50955" d="M411.892,273.125h1.291a.807.807,0,0,0,0-1.614h-1.291a.762.762,0,0,0-.807.807A.809.809,0,0,0,411.892,273.125Z" transform="translate(10151.213 444.5)" fill="#009eff"/>
    <path id="Path_50956" data-name="Path 50956" d="M79.291,273.125h9.52a.807.807,0,0,0,0-1.614h-9.52a.807.807,0,0,0,0,1.614Z" transform="translate(10452.188 444.5)" fill="#222872"/>
    <path id="Path_50957" data-name="Path 50957" d="M212.1,273.125a.807.807,0,0,0,0-1.614h-1.291a.807.807,0,0,0,0,1.614Z" transform="translate(10333.176 444.5)" fill="#009eff"/>
    <path id="Path_50958" data-name="Path 50958" d="M260.469,271.52h-1.291a.807.807,0,1,0,0,1.614h1.291a.762.762,0,0,0,.807-.807A.809.809,0,0,0,260.469,271.52Z" transform="translate(10289.405 444.492)" fill="#009eff"/>
    <path id="Path_50959" data-name="Path 50959" d="M313.539,235.03h-6.858a.762.762,0,0,0-.807.807v6.858a.762.762,0,0,0,.807.807h6.858a.762.762,0,0,0,.807-.807v-6.858A.868.868,0,0,0,313.539,235.03Zm-.807,6.938h-5.244v-5.244h5.244Z" transform="translate(10246.421 477.512)" fill="#009eff"/>
  </g>
</svg>
