<svg xmlns="http://www.w3.org/2000/svg" width="44.157" height="39.906" viewBox="0 0 44.157 39.906">
  <path id="financial-growth-icon_1_" data-name="financial-growth-icon (1)" d="M6.864,25.154v14.1a.647.647,0,0,1-.647.632H.647A.647.647,0,0,1,0,39.259v-14.1ZM14.733,0a7.4,7.4,0,1,1-7.4,7.4,7.4,7.4,0,0,1,7.4-7.4ZM14.1,3.816V3.072h1.024v.719a1.288,1.288,0,0,1,.359.032c.262.029.507.061.719.1s.438.083.622.126V5.512c-.291-.025-.618-.047-.981-.061s-.694-.025-.988-.025a2.691,2.691,0,0,0-.474.04.582.582,0,0,0-.32.151.435.435,0,0,0-.115.331v.1A.438.438,0,0,0,14.1,6.4a.719.719,0,0,0,.464.122h.625a2.188,2.188,0,0,1,1.1.252,1.642,1.642,0,0,1,.665.683,2.1,2.1,0,0,1,.219.977V8.75a2.487,2.487,0,0,1-.284,1.376,1.534,1.534,0,0,1-.884.654,4.125,4.125,0,0,1-.88.147v.816H14.1v-.827h-.086a4.491,4.491,0,0,1-.586-.057c-.19-.025-.359-.054-.553-.086a4.864,4.864,0,0,1-.514-.111V9.2c.216,0,.449.036.7.047s.5.022.758.029h.719a2.609,2.609,0,0,0,.521-.047.668.668,0,0,0,.313-.151.4.4,0,0,0,.1-.287V8.678a.359.359,0,0,0-.147-.313.568.568,0,0,0-.359-.1h-.5A2.515,2.515,0,0,1,12.8,7.776a2.018,2.018,0,0,1-.568-1.617v-.3a1.908,1.908,0,0,1,.632-1.545,2.393,2.393,0,0,1,1.24-.482ZM0,20.551,7.607,13.9l.3.316h0a9.641,9.641,0,0,0,4.542,2.555L8.186,20.551Zm21.166-5.99c1.078,1.157,2.127,2.293,3.2,3.353l11.761-11.8-3.788-3.8,11.815-.891-.676,12.038L39.859,9.821C37.25,12.462,31.08,18.287,28.471,20.9c-3.3,3.3-4.876,3.36-8.179.057L16.6,16.85a9.656,9.656,0,0,0,4.564-2.289Zm19.315,2.515V39.262a.647.647,0,0,1-.647.643h-5.57a.65.65,0,0,1-.647-.643V22.484c1.078-1.031,2.3-2.228,3.568-3.446L39.823,16.5l.111.1a4.546,4.546,0,0,0,.546.471Zm-11.2,9.318V39.259a.65.65,0,0,1-.647.643h-5.57a.647.647,0,0,1-.647-.643V27.76a8.308,8.308,0,0,0,2.023.234,8.495,8.495,0,0,0,4.837-1.6ZM18.068,25.352V39.259a.647.647,0,0,1-.647.643H11.858a.65.65,0,0,1-.647-.643V24.166c.115-.083.223-.172.331-.266l2.785-2.469,2.242,2.494.172.183c.453.453.9.87,1.333,1.243Z" fill="#fff" fill-rule="evenodd"/>
</svg>
