<svg id="Group_58333" data-name="Group 58333" xmlns="http://www.w3.org/2000/svg" width="42.644" height="42.661" viewBox="0 0 42.644 42.661">
  <path id="Path_47835" data-name="Path 47835" d="M503.79,222.39H480.964A5.582,5.582,0,0,1,479.8,222a2.16,2.16,0,0,1-.909-2.065q0-18.891,0-37.783a4.129,4.129,0,0,1,.065-.787,1.833,1.833,0,0,1,1.447-1.54,4.065,4.065,0,0,1,.949-.088q14.578-.007,29.155,0a6.1,6.1,0,0,1,.624.018,1.928,1.928,0,0,1,1.785,1.547,4.15,4.15,0,0,1,.068.869q.006,8.227,0,16.455v.463c-.125-.011-.193-.011-.258-.023a11.6,11.6,0,0,0-4.546.151,12.725,12.725,0,0,0-5.85,21.942C502.8,221.585,503.3,221.979,503.79,222.39Zm-7.873-34.143H497c3.152,0,6.3-.029,9.455.011a2.182,2.182,0,0,0,2.005-3.229,2.125,2.125,0,0,0-2.114-1.044q-10.392,0-20.784,0a4.282,4.282,0,0,0-.664.044,1.987,1.987,0,0,0-1.722,2.225,2.119,2.119,0,0,0,2.286,1.987Q490.69,188.254,495.917,188.247Zm-5.281,4.3c-1.859,0-3.719-.048-5.575.016a1.99,1.99,0,0,0-1.8,2.674,2.159,2.159,0,0,0,2.287,1.551q5.078.005,10.156,0a4.415,4.415,0,0,0,.538-.042,2.1,2.1,0,0,0,1.826-2.13,1.9,1.9,0,0,0-1.893-2.055C494.327,192.5,492.481,192.543,490.636,192.543Z" transform="translate(-478.891 -179.73)" fill="#fff"/>
  <path id="Path_47837" data-name="Path 47837" d="M720.471,423.641a4.786,4.786,0,0,1-1.781-1.311c-.694-.715-1.406-1.413-2.1-2.112a8.4,8.4,0,0,1-11.367-2.537,8.513,8.513,0,0,1,12.476-11.309,8.289,8.289,0,0,1,1.862,10.829c.082.09.168.192.262.287.686.688,1.366,1.382,2.064,2.057a3.348,3.348,0,0,1,1.088,1.68v.5a2.535,2.535,0,0,1-1.833,1.916Zm-12.424-10.713a4.255,4.255,0,1,0,4.284-4.233A4.3,4.3,0,0,0,708.047,412.928Z" transform="translate(-680.327 -380.981)" fill="#fff"/>
</svg>
