<svg xmlns="http://www.w3.org/2000/svg" width="52.575" height="52.575" viewBox="0 0 52.575 52.575">
  <g id="Group_58427" data-name="Group 58427" transform="translate(-9987.329 -691)">
    <path id="Path_50898" data-name="Path 50898" d="M103.272,315a7,7,0,0,0-6.721,8.99l-8.762,8.763a.876.876,0,0,0-.289.649v3.505a.876.876,0,0,0,.876.876h3.5a.876.876,0,0,0,.876-.876v-1.753H94.51a.876.876,0,0,0,.876-.876v-1.753h1.752a.876.876,0,0,0,.876-.876V329.9h1.752a.875.875,0,0,0,.622-.254l.876-.876a6.94,6.94,0,0,0,2.007.254,7.01,7.01,0,0,0,0-14.02Zm0,12.267a5.262,5.262,0,0,1-1.892-.359.876.876,0,0,0-.938.2l-1.034,1.034h-2.27a.876.876,0,0,0-.876.876v1.753H94.51a.876.876,0,0,0-.876.876V333.4H91.881a.876.876,0,0,0-.876.876v1.752H89.253v-2.27l8.92-8.92a.876.876,0,0,0,.2-.938,5.257,5.257,0,1,1,4.9,3.365Z" transform="translate(9899.829 405.793)" fill="#222872"/>
    <path id="Path_50899" data-name="Path 50899" d="M230.129,350a2.628,2.628,0,1,0,1.859.77A2.629,2.629,0,0,0,230.129,350Zm0,3.505a.876.876,0,1,1,.62-.257A.876.876,0,0,1,230.129,353.505Z" transform="translate(9773.85 374.297)" fill="#222872"/>
    <path id="Path_50900" data-name="Path 50900" d="M309.792,17.5H283.505A3.5,3.5,0,0,0,280,21v18.4a3.5,3.5,0,0,0,3.505,3.505h8.473l-1.244,4.381h-1.972v1.752h15.772V47.292h-1.972l-1.244-4.381h8.473a3.5,3.5,0,0,0,3.505-3.505V21a3.5,3.5,0,0,0-3.505-3.5ZM281.753,21a1.752,1.752,0,0,1,1.752-1.752h26.287A1.752,1.752,0,0,1,311.545,21V36.777H281.753Zm18.988,26.287h-8.184l1.244-4.381h5.7Zm9.052-6.134H283.5a1.752,1.752,0,0,1-1.752-1.753V38.53h29.792v.876a1.752,1.752,0,0,1-1.753,1.753Z" transform="translate(9726.606 673.5)" fill="#222872"/>
    <path id="Path_50901" data-name="Path 50901" d="M403.389,49.884h-.876V47.255a3.505,3.505,0,1,0-7.01,0v.876h1.753v-.876a1.753,1.753,0,1,1,3.505,0v2.629h-6.134a.876.876,0,0,0-.876.876v7.01a.876.876,0,0,0,.876.876h8.762a.876.876,0,0,0,.876-.876V50.76a.876.876,0,0,0-.876-.876Zm-.876,7.01H395.5V51.637h7.01Z" transform="translate(9624.249 649.878)" fill="#009eff"/>
    <path id="Path_50902" data-name="Path 50902" d="M437.5,140h1.753v1.753H437.5Z" transform="translate(9584.879 563.268)" fill="#009eff"/>
    <path id="Path_50903" data-name="Path 50903" d="M332.5,87.5h2.629v1.752H332.5Z" transform="translate(9679.364 610.51)" fill="#009eff"/>
    <path id="Path_50904" data-name="Path 50904" d="M343.88,47.536l1.239-1.239,1.753,1.753-1.239,1.239Z" transform="translate(9669.125 647.587)" fill="#009eff"/>
    <path id="Path_50905" data-name="Path 50905" d="M343.85,118.045l1.753-1.753,1.239,1.239-1.753,1.753Z" transform="translate(9669.15 584.601)" fill="#009eff"/>
    <path id="Path_50906" data-name="Path 50906" d="M245,140h1.753v1.753H245Z" transform="translate(9758.102 563.268)" fill="#222872"/>
    <path id="Path_50907" data-name="Path 50907" d="M210,140h1.753v1.753H210Z" transform="translate(9789.597 563.268)" fill="#222872"/>
    <path id="Path_50908" data-name="Path 50908" d="M175,140h1.753v1.753H175Z" transform="translate(9821.092 563.268)" fill="#222872"/>
    <path id="Path_50909" data-name="Path 50909" d="M140,140h1.753v1.753H140Z" transform="translate(9852.587 563.268)" fill="#222872"/>
    <path id="Path_50910" data-name="Path 50910" d="M140,175h1.753v1.753H140Z" transform="translate(9852.587 531.773)" fill="#222872"/>
    <path id="Path_50911" data-name="Path 50911" d="M140,210h1.753v1.753H140Z" transform="translate(9852.587 500.277)" fill="#222872"/>
    <path id="Path_50912" data-name="Path 50912" d="M140,245h1.753v1.753H140Z" transform="translate(9852.587 468.782)" fill="#222872"/>
    <path id="Path_50913" data-name="Path 50913" d="M140,280h1.753v1.753H140Z" transform="translate(9852.587 437.288)" fill="#222872"/>
    <path id="Path_50914" data-name="Path 50914" d="M140,315h1.753v1.753H140Z" transform="translate(9852.587 405.792)" fill="#222872"/>
    <path id="Path_50915" data-name="Path 50915" d="M140,350h1.753v1.752H140Z" transform="translate(9852.587 374.297)" fill="#222872"/>
    <path id="Path_50916" data-name="Path 50916" d="M332.5,455h1.753v1.752H332.5Z" transform="translate(9679.364 279.812)" fill="#222872"/>
    <path id="Path_50917" data-name="Path 50917" d="M367.5,455h1.753v1.752H367.5Z" transform="translate(9647.869 279.812)" fill="#222872"/>
    <path id="Path_50918" data-name="Path 50918" d="M402.5,455h1.753v1.752H402.5Z" transform="translate(9616.374 279.812)" fill="#222872"/>
    <path id="Path_50919" data-name="Path 50919" d="M437.5,455h1.753v1.752H437.5Z" transform="translate(9584.879 279.812)" fill="#222872"/>
    <path id="Path_50920" data-name="Path 50920" d="M437.5,420h1.753v1.753H437.5Z" transform="translate(9584.879 311.307)" fill="#222872"/>
    <path id="Path_50921" data-name="Path 50921" d="M437.5,385h1.753v1.753H437.5Z" transform="translate(9584.879 342.802)" fill="#222872"/>
    <path id="Path_50922" data-name="Path 50922" d="M437.5,350h1.753v1.752H437.5Z" transform="translate(9584.879 374.297)" fill="#222872"/>
    <path id="Path_50923" data-name="Path 50923" d="M297.5,455h1.753v1.752H297.5Z" transform="translate(9710.858 279.812)" fill="#222872"/>
  </g>
</svg>
