<svg xmlns="http://www.w3.org/2000/svg" width="52.363" height="52.885" viewBox="0 0 52.363 52.885">
  <path id="market-research-analysis-icon_1_" data-name="market-research-analysis-icon (1)" d="M23.065,0A23.073,23.073,0,0,1,42.374,35.709L52.355,46.59l-6.884,6.294-9.629-10.61A23.069,23.069,0,1,1,23.065,0Zm7.942,14.06L30.2,13.028a.551.551,0,0,1-.116-.5c.138-.43.632-.379.972-.357.972.073,3.27.09,3.769.112a.538.538,0,0,1,.521.663c-.1.508-.568,2.943-.736,3.872-.06.323-.155.736-.559.766a.538.538,0,0,1-.465-.228l-.809-1.033-.327-.43L28.473,18.9v.069a2.414,2.414,0,1,1-4.827,0V18.81l-2.8-2.022a2.418,2.418,0,0,1-2.913-.12L15.217,18.6a2.392,2.392,0,1,1-1.338-1.566l3.192-2.276a2.414,2.414,0,0,1,4.827.069v.159l2.8,2.022a2.409,2.409,0,0,1,2.809.043l3.666-2.8-.155-.194Zm-.034,6.221H34.3a.353.353,0,0,1,.348.348V33.558a.353.353,0,0,1-.348.348h-3.33a.348.348,0,0,1-.348-.348V20.651a.353.353,0,0,1,.348-.348ZM24.39,24.713h3.33a.348.348,0,0,1,.348.348v8.5a.348.348,0,0,1-.348.348H24.4a.348.348,0,0,1-.348-.348v-8.5a.348.348,0,0,1,.348-.348Zm-6.583-4.431h3.326a.348.348,0,0,1,.374.37V33.558a.348.348,0,0,1-.348.348H17.816a.348.348,0,0,1-.348-.348V20.651a.353.353,0,0,1,.348-.348Zm-6.583,5.163H14.55a.348.348,0,0,1,.348.348v7.766a.348.348,0,0,1-.348.348H11.233a.348.348,0,0,1-.348-.348V25.775a.348.348,0,0,1,.348-.348Zm26.33-16.87a20.5,20.5,0,1,0,6.023,14.495A20.5,20.5,0,0,0,37.555,8.575Z" transform="translate(0.008)" fill="#fff"/>
</svg>
