<svg xmlns="http://www.w3.org/2000/svg" width="46.664" height="49.883" viewBox="0 0 46.664 49.883">
  <g id="Group_58429" data-name="Group 58429" transform="translate(-11114.083 -691)">
    <path id="Path_50986" data-name="Path 50986" d="M230.819,148.75a12.082,12.082,0,1,0,8.53,3.539A12.069,12.069,0,0,0,230.819,148.75Zm0,22.528a10.471,10.471,0,1,1,7.392-3.067A10.46,10.46,0,0,1,230.819,171.278Z" transform="translate(10906.598 555.123)" fill="#222872"/>
    <path id="Path_50987" data-name="Path 50987" d="M314.246,210a3.625,3.625,0,0,0-3.621,3.621h1.609a2.012,2.012,0,1,1,2.011,2.011.8.8,0,0,0-.8.8v3.218h1.609v-2.5a3.621,3.621,0,0,0-.8-7.151Z" transform="translate(10823.169 499.505)" fill="#009eff"/>
    <path id="Path_50988" data-name="Path 50988" d="M341.25,332.5h1.609v1.609H341.25Z" transform="translate(10795.359 388.269)" fill="#009eff"/>
    <path id="Path_50989" data-name="Path 50989" d="M443.232,15.991a7.249,7.249,0,1,0-2.123,5.118,7.24,7.24,0,0,0,2.123-5.118Zm-12.873,0a5.639,5.639,0,1,1,1.651,3.98A5.631,5.631,0,0,1,430.359,15.991Z" transform="translate(10715.907 682.25)" fill="#222872"/>
    <path id="Path_50990" data-name="Path 50990" d="M479.972,61.344l-1.287-.965-2.535,3.378-1.368-1.025-.965,1.287,2.011,1.509h0a.8.8,0,0,0,1.126-.161Z" transform="translate(10674.982 635.368)" fill="#222872"/>
    <path id="Path_50991" data-name="Path 50991" d="M120.991,393.75a7.249,7.249,0,1,0,5.118,2.123A7.24,7.24,0,0,0,120.991,393.75Zm0,12.873a5.639,5.639,0,1,1,3.98-1.651A5.631,5.631,0,0,1,120.991,406.623Z" transform="translate(11001.941 332.651)" fill="#222872"/>
    <path id="Path_50992" data-name="Path 50992" d="M164.888,440.06l-1.845,1.845L161.2,440.06l-1.138,1.138,1.845,1.845-1.845,1.845,1.138,1.138,1.845-1.845,1.845,1.845,1.138-1.138-1.845-1.845,1.845-1.845Z" transform="translate(10959.889 290.599)" fill="#222872"/>
    <path id="Path_50993" data-name="Path 50993" d="M100.341,59.642A21.738,21.738,0,0,1,125.36,28.608l.427-1.551A23.343,23.343,0,0,0,98.916,60.389Z" transform="translate(11017.829 666.385)" fill="#222872"/>
    <path id="Path_50994" data-name="Path 50994" d="M303.417,162.926a21.737,21.737,0,0,1-25.452,30.909l-.459,1.543h0a23.344,23.344,0,0,0,27.336-33.2Z" transform="translate(10853.243 542.931)" fill="#222872"/>
  </g>
</svg>
