<svg id="Layer_1" data-name="Layer 1" xmlns="http://www.w3.org/2000/svg" viewBox="0 0 50 50"><defs><style>.cls-1{fill:#fff;}</style></defs><g id="Group_9" data-name="Group 9"><g id="Group_9-2" data-name="Group 9-2"><path id="Path_21" data-name="Path 21" class="cls-1" d="M27.33,5c1.46.2,2.94.37,4.4.62A38.65,38.65,0,0,1,50,14.07l-2.19,2.65a35.69,35.69,0,0,0-45.5,0L0,14.15V14a5.55,5.55,0,0,0,.74-.44A38.42,38.42,0,0,1,18.55,5.58c1.39-.22,2.8-.4,4.19-.6Z"/><path id="Path_22" data-name="Path 22" class="cls-1" d="M45.64,19.27l-2.19,2.62a28.81,28.81,0,0,0-36.79,0,2.82,2.82,0,0,1-.36-.33L4.45,19.31C15.07,9.9,33.12,8.69,45.64,19.27Z"/><path id="Path_23" data-name="Path 23" class="cls-1" d="M38.85,27.34c-9.25-6.55-18.41-6.54-27.63,0-.22-.25-.5-.54-.75-.84-.45-.53-.89-1.07-1.33-1.6C17,17.64,31.38,16.55,41,24.84Z"/><path id="Path_24" data-name="Path 24" class="cls-1" d="M30.14,38.4,34.59,45c-1.18,0-2.22,0-3.25,0-.21,0-.44-.35-.59-.59-.87-1.36-1.8-2.71-2.56-4.13a1.83,1.83,0,0,0-2.35-1.09l-.08,0v5.74H22.63V29.78c2.36.12,4.71.11,7,.4a3.55,3.55,0,0,1,3.2,3.11A4.17,4.17,0,0,1,31,37.87Zm-4.36-5.94V36.6c1.38-.09,2.87.29,3.67-1.08a2.45,2.45,0,0,0,0-2.13c-.85-1.33-2.33-.88-3.66-.94Z"/><path id="Path_25" data-name="Path 25" class="cls-1" d="M18.49,45H15.55V30h2.94Z"/></g></g></svg>