<svg xmlns="http://www.w3.org/2000/svg" width="54.611" height="56.009" viewBox="0 0 54.611 56.009">
  <g id="Flexible" transform="translate(-456 -323.9)">
    <path id="Path_14272" data-name="Path 14272" d="M634.308,464.892c-.706-1.648-1.28-3-1.9-4.43-10.1,4.974-12.509,13.98-12.979,24.09H609.6c.412-14.51,4.959-26.592,19.057-33.317-.6-1.545-1.163-2.943-1.825-4.635,5.048,1.6,9.8,3.105,14.775,4.68C639.194,455.783,636.839,460.183,634.308,464.892Z" transform="translate(-130.996 -104.644)" fill="#fff"/>
    <path id="Path_14273" data-name="Path 14273" d="M465.345,460.418c-.618,1.472-1.177,2.8-1.884,4.474-2.546-4.694-4.959-9.139-7.461-13.73,4.974-1.516,9.8-2.987,14.922-4.562-.515,1.31-.868,2.384-1.354,3.37-.442.912-.309,1.339.647,1.825a31.428,31.428,0,0,1,10.478,8.4c-1.619,3.885-3.164,7.608-4.739,11.39A21.439,21.439,0,0,0,465.345,460.418Z" transform="translate(0 -104.643)" fill="#fff"/>
    <path id="Path_14274" data-name="Path 14274" d="M584.8,352.287c-1.53-1.413-3.046-2.767-4.474-4.209a2.359,2.359,0,0,1-.412-1.486c-.029-2.987-.015-5.989-.015-8.977,0-.486-.044-.971-.074-1.56H574.9c3.444-4.179,6.666-8.109,10.007-12.155,3.238,4.032,6.387,7.932,9.713,12.082h-4.812c0,3.488-.044,6.814.029,10.139a2.878,2.878,0,0,1-1.163,2.546C587.32,349.771,586.128,351.036,584.8,352.287Z" transform="translate(-101.403)" fill="#fff"/>
  </g>
</svg>
