<svg xmlns="http://www.w3.org/2000/svg" width="49.739" height="56.771" viewBox="0 0 49.739 56.771">
  <g id="Group_55646" data-name="Group 55646" transform="translate(0 0)">
    <path id="Path_37632" data-name="Path 37632" d="M4.165,55.075,0,4.176l49.739.1-4.4,50.8L25.057,60.947Z" transform="translate(0 -4.176)" fill="#e9ca32"/>
    <path id="Path_37633" data-name="Path 37633" d="M1099.739,263.938V216.93l20.483.068-3.653,42.058Z" transform="translate(-1074.682 -212.083)" fill="#ffde25"/>
    <g id="Group_55645" data-name="Group 55645" transform="translate(8.223 10.429)">
      <path id="Path_37634" data-name="Path 37634" d="M375.54,461.9h-5.415v31.287l-4.212-.8v-4.212l-5.014-.8V496.8l14.641,3.811Zm4.062,0h14.991l-1,6h-8.265v9.841h8.265l-1,19.862L379.6,500.61v-6.217l8.774-3.008.507-8.223L379.6,484.5Z" transform="translate(-360.899 -461.902)" fill="#fff"/>
    </g>
  </g>
</svg>
