<svg xmlns="http://www.w3.org/2000/svg" xmlns:xlink="http://www.w3.org/1999/xlink" width="531.01" height="418.56" viewBox="0 0 531.01 418.56">
  <defs>
    <radialGradient id="radial-gradient" cx="0.5" cy="0.5" r="0.478" gradientTransform="translate(-0.049) scale(1.098 1)" gradientUnits="objectBoundingBox">
      <stop offset="0" stop-color="#ffc8af"/>
      <stop offset="1" stop-color="#ffbb9c"/>
    </radialGradient>
    <radialGradient id="radial-gradient-2" cx="0.506" cy="0.49" r="0.451" gradientTransform="matrix(1.232, -0.21, 0.265, 0.978, 0.154, 0.257)" xlink:href="#radial-gradient"/>
    <radialGradient id="radial-gradient-3" cx="0.5" cy="0.5" r="0.531" gradientTransform="translate(0.054) scale(0.891 1)" xlink:href="#radial-gradient"/>
    <radialGradient id="radial-gradient-4" cx="0.5" cy="0.5" r="0.511" gradientTransform="translate(0.021) scale(0.958 1)" xlink:href="#radial-gradient"/>
    <radialGradient id="radial-gradient-5" cx="1.469" cy="-0.006" r="4.15" gradientTransform="translate(0.306) scale(0.387 1)" xlink:href="#radial-gradient"/>
    <radialGradient id="radial-gradient-6" cx="0.183" cy="0.438" r="1.813" gradientTransform="translate(0.33) scale(0.34 1)" xlink:href="#radial-gradient"/>
    <linearGradient id="linear-gradient" x1="9.925" y1="-7.972" x2="8.437" y2="-7.189" gradientUnits="objectBoundingBox">
      <stop offset="0" stop-color="#606bf1"/>
      <stop offset="1" stop-color="#58479f"/>
    </linearGradient>
    <linearGradient id="linear-gradient-2" x1="20.148" y1="-11.815" x2="18.796" y2="-11.022" xlink:href="#linear-gradient"/>
    <linearGradient id="linear-gradient-3" x1="15.119" y1="-8.098" x2="13.462" y2="-7.325" xlink:href="#linear-gradient"/>
  </defs>
  <g id="Group_69716" data-name="Group 69716" transform="translate(471.432 -24.281)">
    <g id="Group_69710" data-name="Group 69710" transform="translate(-398.356 24.281)">
      <g id="Group_69675" data-name="Group 69675" transform="translate(38.172 23.781)">
        <g id="Group_69638" data-name="Group 69638">
          <rect id="Rectangle_27501" data-name="Rectangle 27501" width="119.936" height="111.945" fill="#112b46"/>
        </g>
        <g id="Group_69639" data-name="Group 69639" style="mix-blend-mode: screen;isolation: isolate">
          <rect id="Rectangle_27502" data-name="Rectangle 27502" width="119.936" height="11.839" fill="#1d262d"/>
        </g>
        <g id="Group_69643" data-name="Group 69643" transform="translate(89.671 3.884)">
          <g id="Group_69640" data-name="Group 69640">
            <path id="Path_50166" data-name="Path 50166" d="M-303.668,48.953a2.17,2.17,0,0,1-2.17,2.17,2.17,2.17,0,0,1-2.17-2.17,2.17,2.17,0,0,1,2.17-2.17A2.17,2.17,0,0,1-303.668,48.953Z" transform="translate(308.008 -46.783)" fill="#606bf1"/>
          </g>
          <g id="Group_69641" data-name="Group 69641" transform="translate(9.061)">
            <path id="Path_50167" data-name="Path 50167" d="M-296.3,48.953a2.17,2.17,0,0,1-2.17,2.17,2.171,2.171,0,0,1-2.171-2.17,2.171,2.171,0,0,1,2.171-2.17A2.17,2.17,0,0,1-296.3,48.953Z" transform="translate(300.638 -46.783)" fill="#fbd15b"/>
          </g>
          <g id="Group_69642" data-name="Group 69642" transform="translate(17.476 0.229)">
            <path id="Path_50168" data-name="Path 50168" d="M-289.453,49.139a2.17,2.17,0,0,1-2.17,2.17,2.17,2.17,0,0,1-2.17-2.17,2.17,2.17,0,0,1,2.17-2.17A2.17,2.17,0,0,1-289.453,49.139Z" transform="translate(293.793 -46.969)" fill="#ff8578"/>
          </g>
        </g>
        <g id="Group_69667" data-name="Group 69667" transform="translate(21.326 22.845)">
          <g id="Group_69653" data-name="Group 69653">
            <g id="Group_69644" data-name="Group 69644">
              <rect id="Rectangle_27503" data-name="Rectangle 27503" width="16.987" height="1.428" fill="#ff8578"/>
            </g>
            <g id="Group_69645" data-name="Group 69645" transform="translate(19.938)">
              <rect id="Rectangle_27504" data-name="Rectangle 27504" width="16.987" height="1.428" fill="#fbd15b"/>
            </g>
            <g id="Group_69646" data-name="Group 69646" transform="translate(5.254 7.691)">
              <rect id="Rectangle_27505" data-name="Rectangle 27505" width="26.342" height="1.428" fill="#606bf1"/>
            </g>
            <g id="Group_69647" data-name="Group 69647" transform="translate(35.952 7.691)">
              <rect id="Rectangle_27506" data-name="Rectangle 27506" width="13.39" height="1.428" fill="#ff8578"/>
            </g>
            <g id="Group_69648" data-name="Group 69648" transform="translate(14.392 15.382)">
              <rect id="Rectangle_27507" data-name="Rectangle 27507" width="11.569" height="1.428" fill="#fbd15b"/>
            </g>
            <g id="Group_69649" data-name="Group 69649" transform="translate(32.647 15.382)">
              <rect id="Rectangle_27508" data-name="Rectangle 27508" width="38.38" height="1.428" fill="#fbd15b"/>
            </g>
            <g id="Group_69650" data-name="Group 69650" transform="translate(23.378 23.073)">
              <rect id="Rectangle_27509" data-name="Rectangle 27509" width="43.862" height="1.428" fill="#606bf1"/>
            </g>
            <g id="Group_69651" data-name="Group 69651" transform="translate(12.411 30.764)">
              <rect id="Rectangle_27510" data-name="Rectangle 27510" width="13.499" height="1.428" fill="#ff8578"/>
            </g>
            <g id="Group_69652" data-name="Group 69652" transform="translate(31.686 30.764)">
              <rect id="Rectangle_27511" data-name="Rectangle 27511" width="13.499" height="1.428" fill="#606bf1"/>
            </g>
          </g>
          <g id="Group_69666" data-name="Group 69666" transform="translate(0 39.902)">
            <g id="Group_69654" data-name="Group 69654" transform="translate(0 30.764)">
              <rect id="Rectangle_27512" data-name="Rectangle 27512" width="19.638" height="1.428" fill="#ff8578"/>
            </g>
            <g id="Group_69655" data-name="Group 69655" transform="translate(26.516 30.764)">
              <rect id="Rectangle_27513" data-name="Rectangle 27513" width="19.638" height="1.428" fill="#fbd15b"/>
            </g>
            <g id="Group_69656" data-name="Group 69656" transform="translate(52.318 30.764)">
              <rect id="Rectangle_27514" data-name="Rectangle 27514" width="19.638" height="1.428" fill="#ff8578"/>
            </g>
            <g id="Group_69657" data-name="Group 69657" transform="translate(5.254 23.073)">
              <rect id="Rectangle_27515" data-name="Rectangle 27515" width="38.38" height="1.428" fill="#606bf1"/>
            </g>
            <g id="Group_69658" data-name="Group 69658" transform="translate(49.618 23.073)">
              <rect id="Rectangle_27516" data-name="Rectangle 27516" width="38.38" height="1.428" fill="#ff8578"/>
            </g>
            <g id="Group_69659" data-name="Group 69659" transform="translate(14.392 15.382)">
              <rect id="Rectangle_27517" data-name="Rectangle 27517" width="38.085" height="1.428" fill="#ff8578"/>
            </g>
            <g id="Group_69660" data-name="Group 69660" transform="translate(55.798 15.382)">
              <rect id="Rectangle_27518" data-name="Rectangle 27518" width="10.6" height="1.428" fill="#fbd15b"/>
            </g>
            <g id="Group_69661" data-name="Group 69661" transform="translate(11.904 7.691)">
              <rect id="Rectangle_27519" data-name="Rectangle 27519" width="14.337" height="1.428" fill="#fbd15b"/>
            </g>
            <g id="Group_69662" data-name="Group 69662" transform="translate(33.857 7.691)">
              <rect id="Rectangle_27520" data-name="Rectangle 27520" width="14.337" height="1.428" fill="#606bf1"/>
            </g>
            <g id="Group_69663" data-name="Group 69663" transform="translate(57.415 7.691)">
              <rect id="Rectangle_27521" data-name="Rectangle 27521" width="14.337" height="1.428" fill="#ff8578"/>
            </g>
            <g id="Group_69664" data-name="Group 69664" transform="translate(28.525)">
              <rect id="Rectangle_27522" data-name="Rectangle 27522" width="20.104" height="1.428" fill="#fbd15b"/>
            </g>
            <g id="Group_69665" data-name="Group 69665" transform="translate(0.836)">
              <rect id="Rectangle_27523" data-name="Rectangle 27523" width="20.104" height="1.428" fill="#606bf1"/>
            </g>
          </g>
        </g>
        <g id="Group_69674" data-name="Group 69674" transform="translate(10.209 21.474)">
          <g id="Group_69669" data-name="Group 69669">
            <g id="Group_69668" data-name="Group 69668">
              <rect id="Rectangle_27524" data-name="Rectangle 27524" width="1.828" height="1.828" fill="#f9fbfc"/>
            </g>
          </g>
          <g id="Group_69671" data-name="Group 69671" transform="translate(0 7.419)">
            <g id="Group_69670" data-name="Group 69670">
              <path id="Path_50169" data-name="Path 50169" d="M-370.814,126.761h-1.827v-3.726h1.827Zm0-9.318h-1.827v-3.726h1.827Zm0-9.319h-1.827V104.4h1.827Zm0-9.318h-1.827V95.079h1.827Zm0-9.318h-1.827V85.761h1.827Zm0-9.318h-1.827V76.443h1.827Zm0-9.318h-1.827V67.125h1.827Z" transform="translate(372.641 -67.125)" fill="#f9fbfc"/>
            </g>
          </g>
          <g id="Group_69673" data-name="Group 69673" transform="translate(0 72.646)">
            <g id="Group_69672" data-name="Group 69672">
              <rect id="Rectangle_27525" data-name="Rectangle 27525" width="1.828" height="1.828" fill="#f9fbfc"/>
            </g>
          </g>
        </g>
      </g>
      <g id="Group_69678" data-name="Group 69678" transform="translate(183.914)">
        <g id="Group_69676" data-name="Group 69676">
          <rect id="Rectangle_27526" data-name="Rectangle 27526" width="98.76" height="60.875" fill="#ff8578"/>
        </g>
        <g id="Group_69677" data-name="Group 69677" transform="translate(22.728 11.968)">
          <path id="Path_50170" data-name="Path 50170" d="M-228.285,44.846l-11.75,5.014,11.75,4.941-1.537,3.551-14.092-6.295V47.7l14.092-6.333Z" transform="translate(243.914 -32.328)" fill="#f9fbfc"/>
          <path id="Path_50171" data-name="Path 50171" d="M-214.767,34.93-223.3,67.689l-4.063-.952,8.565-32.722Z" transform="translate(247.712 -34.015)" fill="#f9fbfc"/>
          <path id="Path_50172" data-name="Path 50172" d="M-197.613,47.7v4.356l-14.093,6.295-1.537-3.551,11.713-4.941-11.713-5.014,1.537-3.478Z" transform="translate(250.951 -32.328)" fill="#f9fbfc"/>
        </g>
      </g>
      <g id="Group_69681" data-name="Group 69681" transform="translate(279.282 117.934)">
        <g id="Group_69679" data-name="Group 69679">
          <rect id="Rectangle_27527" data-name="Rectangle 27527" width="56.251" height="40.074" fill="#606bf1"/>
        </g>
        <g id="Group_69680" data-name="Group 69680" transform="translate(15.747 6.009)">
          <path id="Path_50173" data-name="Path 50173" d="M-164.239,127.736c-1.808,0-2.412.488-2.412,1.838v6.032c0,2.356-.976,3.074-2.614,3.533,1.638.43,2.614,1.148,2.614,3.474v6.032c0,1.35.632,1.838,2.412,1.838v2.643c-4.566,0-5.858-1.465-5.858-4.51V142.9c0-1.638-.432-2.27-1.924-2.27v-3.016c1.493,0,1.924-.66,1.924-2.3V129.6c0-3.074,1.292-4.51,5.858-4.51Z" transform="translate(172.021 -125.094)" fill="#f1f2f2"/>
          <path id="Path_50174" data-name="Path 50174" d="M-152.355,129.6v5.714c0,1.638.43,2.3,1.952,2.3v3.016c-1.522,0-1.952.632-1.952,2.27v5.716c0,3.044-1.293,4.51-5.859,4.51v-2.643c1.78,0,2.412-.488,2.412-1.838v-6.032c0-2.326.977-3.044,2.614-3.474-1.636-.46-2.614-1.178-2.614-3.533v-6.032c0-1.35-.6-1.838-2.412-1.838v-2.642C-153.648,125.094-152.355,126.53-152.355,129.6Z" transform="translate(175.189 -125.094)" fill="#f1f2f2"/>
        </g>
      </g>
      <g id="Group_69685" data-name="Group 69685" transform="translate(0 8.731)">
        <g id="Group_69682" data-name="Group 69682">
          <rect id="Rectangle_27528" data-name="Rectangle 27528" width="63.106" height="42.209" fill="#fbd15b"/>
        </g>
        <g id="Group_69684" data-name="Group 69684" transform="translate(18.655 8.202)">
          <g id="Group_69683" data-name="Group 69683">
            <path id="Path_50175" data-name="Path 50175" d="M-394.589,41.967a10.408,10.408,0,0,0,.1,13.006,10.373,10.373,0,0,0,13.757,2.051l6.623,6.624a.716.716,0,0,0,1.012,0l1.861-1.861a.716.716,0,0,0,0-1.012l-6.624-6.623a10.373,10.373,0,0,0-1.293-13.069A10.368,10.368,0,0,0-394.589,41.967Zm13.294,11.619a7.333,7.333,0,0,1-10.358,0,7.331,7.331,0,0,1,0-10.357,7.331,7.331,0,0,1,10.357,0A7.333,7.333,0,0,1-381.295,53.587Z" transform="translate(396.82 -38.054)" fill="#f9fbfc"/>
          </g>
        </g>
      </g>
      <g id="Group_69709" data-name="Group 69709" transform="translate(0.186 74.348)">
        <g id="Group_69689" data-name="Group 69689" transform="translate(189.049 0)">
          <path id="Path_50176" data-name="Path 50176" d="M-205.7,140.654c-.138,1.394-2.042,15.949-17.01,15.949-15.715,0-13.082-15.556-13.082-15.556l-.02-.1a15.666,15.666,0,0,1,4.93-.236v-7.367l17.837-9.978h.648v17.187A32.4,32.4,0,0,1-205.7,140.654Z" transform="translate(263.145 -75.895)" fill="url(#radial-gradient)"/>
          <g id="Group_69688" data-name="Group 69688">
            <g id="Group_69687" data-name="Group 69687" transform="translate(10.811 8.121)">
              <g id="Group_69686" data-name="Group 69686">
                <path id="Path_50177" data-name="Path 50177" d="M-211.312,97.83a20.391,20.391,0,0,1,5.362,9.94c1.714,7.555.1,15.55-2.091,22.832a11.475,11.475,0,0,1-1.57,3.551,12.585,12.585,0,0,1-1.956,1.974q-4.758,4.144-9.51,8.3c-2.145,1.879-15.354,3.442-17.876,1.64-9.714-6.945-11.584-27.07-9.639-37.357C-245.366,91.64-223.43,85.539-211.312,97.83Z" transform="translate(249.279 -91.36)" fill="url(#radial-gradient-2)"/>
              </g>
            </g>
            <path id="Path_50178" data-name="Path 50178" d="M-222.825,114.892c.129-1.644,1.818-3.442,3.514-2.376,1.754,1.1,1.341,4.021.615,5.627-.57,1.259-2.479,2.637-3.771,1.467-1.083-.982.6-2.139.655-3.035.049-.807-1.564-1.384-.9-2.247" transform="translate(266.148 -78.459)" fill="#f7b094"/>
            <path id="Path_50179" data-name="Path 50179" d="M-222.567,122.166a5.015,5.015,0,0,0,5.529-3.285,18.862,18.862,0,0,0,.679-5.282,12.658,12.658,0,0,1,.433,5.824c-.459,3.592-1.718,7.014-4.537,7.059S-222.567,122.166-222.567,122.166Z" transform="translate(266.2 -78.137)" fill="#f7b094"/>
            <path id="Path_50180" data-name="Path 50180" d="M-216.611,126.227a.63.63,0,0,1-.2.059c-1.1.154-1.533-1.173-1.7-2a36.666,36.666,0,0,1-.388-5.862,4.443,4.443,0,0,0-.178-1.566c-.616-1.411-2.257-2.327-2.758-3.784-.583-1.694,1.062-3.385.409-5.239-1-2.841-4.648-3.494-7.287-3.463a82.889,82.889,0,0,0-11.726,1.387c-4.125.641-9.4,1.248-13.031-1.361-4.38-3.144-6.21-11.338-2.941-15.823,1.781-2.445,5.161-3.749,8.122-3.816,3.139-.071,5.791,1.8,8.67,2.74,2.293.75,4.51-1.443,6.654-1.872,2.694-.537,3.838,2.4,6.221,2.483,2.315.079,4.587-1.73,6.838-2.14,4.489-.82,4.224,3.688,7.235,5.228,1.871.957,4.289.377,6.183,1.35,1.438.739,1.64,2.037,1.954,3.509a34.07,34.07,0,0,0,.7,3.948,8.909,8.909,0,0,0,2,2.622,9.643,9.643,0,0,1,1.667,3.174,19.783,19.783,0,0,1,.829,8.06,54.731,54.731,0,0,1-3.371,13.261c-.984,2.771-1.349,5.654-2.858,8.275-.406.7-2.208,2.763-2.879,1.229a2.263,2.263,0,0,1-.1-1.06c.2-2.855,2.857-21.253-4.111-19.043a4.942,4.942,0,0,0-2.99,3.07,11.937,11.937,0,0,0-.615,5.09c.011.251.018.5.009.754A.861.861,0,0,1-216.611,126.227Z" transform="translate(258.073 -84.754)" fill="#3d3d7a"/>
          </g>
        </g>
        <path id="Path_50181" data-name="Path 50181" d="M-231.745,137.511c7.925-1.274,13.155-7.534,13.155-7.534s-2.138,10.55-13.631,11.108Z" transform="translate(453.053 -74.379)" fill="#f7b094"/>
        <g id="Group_69691" data-name="Group 69691" transform="translate(181.123 206.94)">
          <path id="Rectangle_27529" data-name="Rectangle 27529" d="M1.626,0H9.718a1.626,1.626,0,0,1,1.626,1.626V110.834a0,0,0,0,1,0,0H0a0,0,0,0,1,0,0V1.626A1.626,1.626,0,0,1,1.626,0Z" transform="translate(64.537 110.834) rotate(180)" fill="#0a2033"/>
          <path id="Rectangle_27530" data-name="Rectangle 27530" d="M6.314,0H56.07a6.314,6.314,0,0,1,6.314,6.314V9.466a0,0,0,0,1,0,0H0a0,0,0,0,1,0,0V6.314A6.314,6.314,0,0,1,6.314,0Z" transform="translate(90.057 11.021) rotate(180)" fill="#30475e"/>
          <g id="Group_69690" data-name="Group 69690" transform="translate(0 89.477)">
            <path id="Rectangle_27531" data-name="Rectangle 27531" d="M1.626,0H9.718a1.626,1.626,0,0,1,1.626,1.626V27.219a0,0,0,0,1,0,0H0a0,0,0,0,1,0,0V1.626A1.626,1.626,0,0,1,1.626,0Z" transform="translate(64.537 35.672) rotate(180)" fill="#0a2033"/>
            <path id="Path_50182" data-name="Path 50182" d="M-264.519,350.71a6.638,6.638,0,0,0,6.639,6.639,6.639,6.639,0,0,0,6.639-6.639,6.639,6.639,0,0,0-6.639-6.639A6.639,6.639,0,0,0-264.519,350.71Z" transform="translate(264.52 -321.677)" fill="#0a2033"/>
            <path id="Path_50183" data-name="Path 50183" d="M-179.56,350.71a6.639,6.639,0,0,0,6.639,6.639,6.638,6.638,0,0,0,6.639-6.639,6.639,6.639,0,0,0-6.639-6.639A6.639,6.639,0,0,0-179.56,350.71Z" transform="translate(284.012 -321.677)" fill="#0a2033"/>
            <rect id="Rectangle_27532" data-name="Rectangle 27532" width="22.821" height="19.942" transform="translate(70.275 19.942) rotate(180)" fill="#30475e"/>
            <path id="Rectangle_27533" data-name="Rectangle 27533" d="M0,0H117.73a0,0,0,0,1,0,0V3.633a5.751,5.751,0,0,1-5.751,5.751H5.751A5.751,5.751,0,0,1,0,3.633V0A0,0,0,0,1,0,0Z" transform="translate(117.73 24.634) rotate(180)" fill="#fbd15b"/>
          </g>
          <rect id="Rectangle_27534" data-name="Rectangle 27534" width="3.935" height="74.44" transform="translate(54.93 13.258)" fill="#30475e"/>
        </g>
        <path id="Path_50184" data-name="Path 50184" d="M-165.415,188.909a4.626,4.626,0,0,0-4.778,4.886c.778,13.511-2.085,46.472-14.671,57.719-15.386,13.75-59,11.876-59,11.876s-7.2,8.84,7.2,10.8,55,.654,64.822-8.513c9.507-8.873,15.15-32.12,10.9-72.583a4.658,4.658,0,0,0-4.474-4.19Z" transform="translate(449.969 -60.859)" fill="#fbd15b"/>
        <g id="Group_69693" data-name="Group 69693" transform="translate(112.215 77.095)">
          <g id="Group_69692" data-name="Group 69692">
            <path id="Path_50185" data-name="Path 50185" d="M-243.883,324.409l5.186,11.825-15.891,6.973-5.205-11.864Z" transform="translate(334.512 -106.865)" fill="url(#radial-gradient-3)"/>
            <path id="Path_50186" data-name="Path 50186" d="M-161.945,217.506c-.982,1.963-71.588.038-78.257.648,0,0-43.214,20.625-49.422,39.933a21.1,21.1,0,0,0-.609,7.583c1.729,27.185,32.686,92.281,32.686,92.281l4.753-2.081,15.911-6.934,2.258-.982s-24.553-73.169-19.643-77.1,60.559-13.75,79.867-18.975C-155.07,246.636-161.945,217.506-161.945,217.506Z" transform="translate(327.511 -131.392)" fill="#191d67"/>
            <path id="Path_50187" data-name="Path 50187" d="M-292.892,326.89l1.241,17.765H-309l-1.241-17.8Z" transform="translate(322.939 -106.305)" fill="url(#radial-gradient-4)"/>
            <path id="Path_50188" data-name="Path 50188" d="M-233.613,217.537l-.628.275s-72.345,10.155-84.13,30.447c-7.661,13.2,7.166,109.652,7.166,109.652l25.6.059s-3.828-80.344-2.551-84.823c1.434-5.107,3.889-6.954,4.871-7.484a21.1,21.1,0,0,1,.609-7.583c6.207-19.308,49.422-39.933,49.422-39.933A1.242,1.242,0,0,1-233.613,217.537Z" transform="translate(320.569 -131.385)" fill="#191d67"/>
            <path id="Path_50189" data-name="Path 50189" d="M-179.768,163.167l-4.851.668A237.478,237.478,0,0,1-188.685,190l-60.441,22.942-.825,4.38-.746-.059c.02.9.02,1.788.059,2.613.138,5.048.471,8.682,1,10.135a1.233,1.233,0,0,0,.353.61c1.643,1.339,23.019-1.256,46.129,7.229,20.043,7.361,31.277,15.4,31.8,14.319C-165.059,239.073-176.526,187.682-179.768,163.167Z" transform="translate(336.599 -143.859)" fill="#03a1fe"/>
            <path id="Path_50190" data-name="Path 50190" d="M-186.072,193.017c-1.611,7.739-5.776,23.139-13.947,25.2-10.667,2.711-31.291,2.573-50.619,1.532-.039-.825-.039-1.709-.059-2.613.236.02.491.039.746.059l.825-4.38,60.441-22.942a237.478,237.478,0,0,0,4.066-26.165,1.7,1.7,0,0,0,.02.216C-184.481,165.95-183.656,181.586-186.072,193.017Z" transform="translate(336.599 -143.734)" fill="#04a1fe"/>
            <path id="Path_50191" data-name="Path 50191" d="M-244.456,147.462c-1.081,1.963-2.632,22.982-3.477,43.843l-12.356-11.531C-255.044,169.619-244.456,147.462-244.456,147.462Z" transform="translate(334.398 -147.462)" fill="#04a1fe"/>
            <path id="Path_50192" data-name="Path 50192" d="M-244.234,202.926c-10.43,1.807-20.015,3.359-20.015,3.359l-.02.51c-11.609-9.271-29.268-35.533-29.268-35.533s5.283-6.345,6.6-8.015c.2-.256,28.992,19.564,30.466,19.387.373-.038,1.845-2.631,3.81-6.482l12.356,11.531c-.2,4.969-.354,9.919-.452,14.614C-241.916,202.513-243.075,202.71-244.234,202.926Z" transform="translate(326.77 -143.841)" fill="#f7b094"/>
            <path id="Path_50193" data-name="Path 50193" d="M-263.8,198.939l-.256,8.6h-31.429s3.124-12.277,11.629-12.277,11.785,4.5,11.785,4.5Z" transform="translate(326.323 -136.495)" fill="url(#radial-gradient-5)"/>
            <path id="Path_50194" data-name="Path 50194" d="M-283.443,164.738l.236.2c-1.317,1.67-6.6,8.015-6.6,8.015l-3.281-2.319a8.154,8.154,0,0,1-7.818-.1c-4.379-2.376-1.668-8.052-1.445-8.724-.848.24-6.1,4.481-6.923,4.03s-1.434-1.945,4.439-7.739c5.853-5.794,13.829,1.65,14.065,1.65Z" transform="translate(323.04 -145.528)" fill="#f7b094"/>
            <path id="Path_50195" data-name="Path 50195" d="M-301.943,167.59s-1.266,2.372.986,3.4a22.426,22.426,0,0,0,8.511,1.593c1.882-.182,3.377-2.814,3.377-2.814l-5.7-5.347h-4.555Z" transform="translate(324.76 -143.57)" fill="#f7b094"/>
            <path id="Path_50196" data-name="Path 50196" d="M-302.05,168.774c.337-1.164,3.573-.543,5.578-.5,1.478.036,2.287-.352,2.744-1.477s-1.688-2.92-2.111-2.357.775,1.355.81,2.1-2.111.993-3.765.993a40.246,40.246,0,0,0-4.506.43Z" transform="translate(324.531 -143.59)" fill="#e8987c"/>
          </g>
        </g>
        <path id="Path_50197" data-name="Path 50197" d="M-187.345,196.1l-30.78-10.9c-2.24,4.184-4.636,7.326-7.013,7.954-3.595.943-12.277,2.574-21.038,4.106-1.158.215-2.317.412-3.477.628-10.43,1.807-20.015,3.359-20.015,3.359l-.02.51v.334l-.236,7.759v1.968a217.511,217.511,0,0,1,23.63.388c18.445,1.317,42.232,2.1,50.109-1.611,3.693-1.748,6.64-7.484,8.958-14.555Z" transform="translate(444.403 -61.709)" fill="url(#radial-gradient-6)"/>
        <path id="Path_50198" data-name="Path 50198" d="M-227.59,185.2l30.78,10.9-1.394,4.113-30.464-13.068Z" transform="translate(453.868 -61.709)" fill="#f7b094"/>
        <path id="Path_50199" data-name="Path 50199" d="M-222.556,196.16c-2.24,4.184-4.636,7.326-7.013,7.954-3.595.943-12.277,2.574-21.038,4.106.1-4.7.256-9.645.452-14.614.845-20.861,2.4-41.879,3.477-43.843,1.768-3.281,6.6-10.411,14.221-12.041l.02.1s-2.632,15.556,13.082,15.556c14.968,0,16.873-14.555,17.01-15.949,7.7.864,19.506,4.714,21.136,20.192.333,3.065.805,6.993,1.414,11.452l-4.851.668s-1.965,21.8-7.013,37.263l-.118.059Z" transform="translate(448.835 -72.67)" fill="#04a1fe"/>
        <path id="Path_50200" data-name="Path 50200" d="M-228.05,188.445l12.291-29.753-9.055,30.954Z" transform="translate(454.01 -67.791)" fill="#6d4b35" style="mix-blend-mode: screen;isolation: isolate"/>
        <path id="Path_50201" data-name="Path 50201" d="M-202.9,137.428h-6.7s-9.532,10.466-15.659,10.466-2.825-10.407-2.825-10.407h-2.989a16.9,16.9,0,0,0-16.785,14.981c-.112.977-.214,1.9-.3,2.743-.655,6.332,24.993,10.939,24.993,10.939l13.208-.739,8.02-15.647,1.6-6.408Z" transform="translate(449.393 -72.67)" fill="#04a1fe"/>
        <g id="Group_69697" data-name="Group 69697" transform="translate(165.643 305.416)">
          <g id="Group_69696" data-name="Group 69696">
            <g id="Group_69695" data-name="Group 69695">
              <g id="Group_69694" data-name="Group 69694">
                <path id="Path_50202" data-name="Path 50202" d="M-277.089,352.482c.6,3.2,2.814,5.476,6.014,4.878l42.662-7.957a1.988,1.988,0,0,0,1.59-2.319l-.706-3.784s-44.869,7.851-49.583,9.158Z" transform="translate(277.111 -330.852)" fill="#f1f2f2"/>
                <path id="Path_50203" data-name="Path 50203" d="M-264.4,344.065c.446-.387.874-.77,1.319-1.156.856-.766,1.7-1.512,2.508-2.234.428-.382.856-.766,1.253-1.125.778-.7,1.513-1.352,2.17-1.939.473-.428.916-.831,1.312-1.19.729-.654,1.325-1.188,1.743-1.561a.964.964,0,0,1,1.269-.026c1.754,1.474,7.422,4.845,17.689-1.507a.986.986,0,0,1,1.4.364l6.209,11.932s-44.869,7.852-49.583,9.159C-275.562,353.816-269.834,348.86-264.4,344.065Z" transform="translate(277.111 -333.175)" fill="#3d3d7a"/>
              </g>
            </g>
          </g>
        </g>
        <g id="Group_69701" data-name="Group 69701" transform="translate(98.457 310.444)">
          <g id="Group_69700" data-name="Group 69700">
            <g id="Group_69699" data-name="Group 69699">
              <g id="Group_69698" data-name="Group 69698">
                <path id="Path_50204" data-name="Path 50204" d="M-331.741,350.647c.079,3.254,1.906,5.853,5.161,5.775l43.384-1.06a1.987,1.987,0,0,0,1.939-2.036l-.093-3.848s-45.547.6-50.409,1.142Z" transform="translate(331.759 -334.463)" fill="#f1f2f2"/>
                <path id="Path_50205" data-name="Path 50205" d="M-317.5,344.866c.5-.31.985-.62,1.486-.931.966-.62,1.917-1.221,2.831-1.8.483-.31.968-.62,1.416-.911.88-.566,1.709-1.094,2.451-1.569.536-.345,1.036-.674,1.485-.965l1.968-1.264a.964.964,0,0,1,1.258.176c1.5,1.735,6.555,5.966,17.7,1.33a.984.984,0,0,1,1.32.583l4.229,12.769s-45.547.6-50.409,1.142C-330.075,352.715-323.631,348.734-317.5,344.866Z" transform="translate(331.759 -337.265)" fill="#3d3d7a"/>
              </g>
            </g>
          </g>
        </g>
        <g id="Group_69703" data-name="Group 69703" transform="translate(44.442 88.315)">
          <path id="Path_50206" data-name="Path 50206" d="M-352.524,218.384l-23.17-61.8h65.964l23.17,61.8Z" transform="translate(375.694 -156.589)" fill="#abb5ba"/>
          <path id="Path_50207" data-name="Path 50207" d="M-294.792,218.384h-4.078l-23.17-61.8,3.7.165,21.431,55.934Z" transform="translate(388.004 -156.589)" fill="#8495a0"/>
          <path id="Path_50208" data-name="Path 50208" d="M-372.807,201.42h83.05" transform="translate(376.356 -146.303)" fill="none"/>
          <g id="Group_69702" data-name="Group 69702" transform="translate(91.04 57.9)">
            <path id="Path_50209" data-name="Path 50209" d="M-300.752,207.579h43.588l-.119-3.895h-44.36" transform="translate(301.643 -203.684)" fill="#8495a0"/>
          </g>
        </g>
        <g id="Group_69708" data-name="Group 69708" transform="translate(0 150.111)">
          <g id="Group_69704" data-name="Group 69704" transform="translate(311.576 11.785)">
            <rect id="Rectangle_27535" data-name="Rectangle 27535" width="10.494" height="172.408" transform="translate(0)" fill="#8495a0"/>
          </g>
          <g id="Group_69705" data-name="Group 69705" transform="translate(254.612 11.785)">
            <rect id="Rectangle_27536" data-name="Rectangle 27536" width="10.494" height="172.408" fill="#abb5ba"/>
          </g>
          <g id="Group_69706" data-name="Group 69706" transform="translate(72.117 11.785)">
            <rect id="Rectangle_27537" data-name="Rectangle 27537" width="10.494" height="172.408" fill="#8495a0"/>
          </g>
          <g id="Group_69707" data-name="Group 69707" transform="translate(15.154 11.785)">
            <rect id="Rectangle_27538" data-name="Rectangle 27538" width="10.494" height="172.408" fill="#abb5ba"/>
          </g>
          <rect id="Rectangle_27539" data-name="Rectangle 27539" width="337.673" height="12.44" rx="4.149" fill="#141b56"/>
        </g>
        <path id="Path_50210" data-name="Path 50210" d="M-366.735,161.872l1.128,3.009h13.14l-1.128-3.009Z" transform="translate(422.191 -67.061)" fill="#8495a0"/>
        <path id="Path_50211" data-name="Path 50211" d="M-260.113,173.744l-.943,1.822,13.3,13.743v-4.035Z" transform="translate(446.437 -64.338)" fill="#e8987c"/>
      </g>
    </g>
    <g id="Group_69715" data-name="Group 69715" transform="translate(-471.432 274.187)">
      <rect id="Rectangle_27540" data-name="Rectangle 27540" width="531.01" height="12.125" transform="translate(0 156.529)" fill="#a5b7c6"/>
      <g id="Group_69714" data-name="Group 69714" transform="translate(373.215)">
        <g id="Group_69711" data-name="Group 69711" transform="translate(45.913 19.336)">
          <path id="Path_50212" data-name="Path 50212" d="M-102.825,290.541c-2.11,10.235-1.474,27.669-15.015,30.431-3.646.744-7.169-1.784-9.288-4.68-2.774-3.79-3.438-11.814-3.388-16.4.038-3.637,1.279-7.693,1.677-11.36.432-3.964.783-7.935,1.244-11.895,1.666-14.271,9.121-26.232,21.731-33.356.976,4.684,3.2,8.649,5.164,13.148a46.783,46.783,0,0,1,2.283,6.362c1.031,3.806-.216,7.652-1.142,11.3C-100.928,279.473-101.7,285.089-102.825,290.541Z" transform="translate(130.519 -243.279)" fill="url(#linear-gradient)"/>
          <path id="Path_50213" data-name="Path 50213" d="M-120.588,320.364q.144-1.289.315-2.576a11,11,0,0,0,4.661-1.628,24.781,24.781,0,0,0,6.116-4.843c.1-.1-.069-.262-.175-.172a27.507,27.507,0,0,1-5.954,4.074,16.756,16.756,0,0,1-4.524,1.684q.214-1.536.47-3.067c1.684-.205,3.227-1.312,4.653-2.159a53.214,53.214,0,0,0,6.671-5.092.025.025,0,0,0-.029-.039c-3.307,2.4-6.991,5.819-11.173,6.568.221-1.279.456-2.555.724-3.821.015-.066.03-.132.043-.2,4.84-1.224,8.115-5.021,11.821-8.09.06-.05,0-.152-.068-.1-3.65,2.834-7.079,6.07-11.591,7.444.391-1.812.8-3.618,1.207-5.424a25.833,25.833,0,0,0,10.939-7.755c.05-.06-.033-.144-.089-.086-3.168,3.3-6.657,5.191-10.675,7.068.4-1.788.807-3.574,1.186-5.365,1.895-.932,3.887-1.5,5.638-2.724a15.428,15.428,0,0,0,4.387-4.448.087.087,0,0,0-.146-.092c-2.45,3.522-6.145,4.619-9.715,6.472q.522-2.5.963-5.03c3.978-2.191,8.3-4.222,10.557-8.42.022-.041-.037-.082-.061-.041-2.389,3.857-6.564,5.519-10.354,7.619.049-.3.1-.6.151-.9.243-1.561.472-3.126.7-4.69a38.235,38.235,0,0,0,6.523-3.548,12.443,12.443,0,0,0,3.976-3.386.087.087,0,0,0-.143-.1c-2.134,3.058-6.807,4.826-10.26,6.355q.337-2.37.671-4.741c3.831-2.318,8.337-3.6,10.694-7.776a.111.111,0,0,0-.188-.118c-2.442,3.815-6.74,4.991-10.4,7.156q.21-1.468.432-2.935c4.136-1.521,8.945-4.984,11.126-8.723a.185.185,0,0,0-.311-.2,23.218,23.218,0,0,1-10.694,8.145c.245-1.585.5-3.167.782-4.747a.47.47,0,0,0,.061-.139,23.7,23.7,0,0,0,5.3-2.846,14.466,14.466,0,0,0,4.98-4.538c.133-.216-.219-.417-.344-.194-1.837,3.279-6.2,5.477-9.807,6.729.107-.575.21-1.152.325-1.727q.256-1.291.521-2.579c1.478-1.02,3.355-1.509,4.839-2.587a27.372,27.372,0,0,0,3.521-3.209c.109-.113-.053-.289-.17-.179a23.256,23.256,0,0,1-4.86,3.734c-1.019.545-2.181.856-3.168,1.454.289-1.405.575-2.81.851-4.218.018,0,.034-.007.053-.011l.053.011a.263.263,0,0,0,.242-.075c2.01-.507,3.547-2.238,4.9-3.712a.037.037,0,0,0-.052-.053,13.415,13.415,0,0,1-4.926,3.323c-.007,0-.011-.007-.02-.009l-.144-.022q.33-1.719.621-3.442a.263.263,0,0,0,.237-.3,21.064,21.064,0,0,0,2.941-2.519.074.074,0,0,0-.1-.108,17.175,17.175,0,0,1-2.94,2.074,70.661,70.661,0,0,0,.8-7.175c.012-.224-.325-.226-.345-.006-.21,2.321-.547,4.62-.947,6.908a21.387,21.387,0,0,1-3.019-4.617c-.036-.086-.172-.052-.143.042a13.281,13.281,0,0,0,1.469,2.857,17.594,17.594,0,0,0,1.556,2.51q-.334,1.842-.717,3.677a6.787,6.787,0,0,1-3.7-1.448,6.709,6.709,0,0,1-2.271-4.619c-.016-.221-.366-.22-.345,0a7.641,7.641,0,0,0,1.966,4.5,7.184,7.184,0,0,0,4.243,2.069q-.444,2.119-.911,4.234a32.7,32.7,0,0,1-3.465-2.573c-1.78-1.419-2.831-3.126-4.377-4.724-.155-.16-.408.071-.256.234,1.448,1.539,2.428,3.206,4.076,4.591a23.536,23.536,0,0,0,3.91,2.98l-.049.224c-.015.014-.032.025-.047.039a.228.228,0,0,0-.031.316c-.3,1.351-.6,2.7-.879,4.056-.018.084-.033.17-.052.254-3.149-1.442-7.856-3.948-8.273-7.6a.246.246,0,1,0-.478.1c.932,4.135,5.476,5.966,8.607,8.221q-.463,2.3-.852,4.605a18.669,18.669,0,0,1-5.676-2.924c-1.553-1.236-3.75-2.726-4.449-4.64-.022-.06-.112-.021-.091.039.648,1.9,2.619,3.21,4.053,4.507a15.172,15.172,0,0,0,6.023,3.7.43.43,0,0,0-.006.205q-.24,1.464-.465,2.931c-3.825-.294-9.176-3.2-11.131-6.092-.009-.014-.027,0-.02.015a12.56,12.56,0,0,0,5.621,4.618,15.529,15.529,0,0,0,5.453,1.968c-.275,1.81-.541,3.622-.81,5.432-1.66-.618-3.418-.915-5.06-1.572a12.518,12.518,0,0,1-5.743-4.889c-.087-.13-.3-.021-.219.116,2.648,4.21,6.458,5.444,10.921,7.021q-.336,2.228-.7,4.452c-3.653-.7-8.376-2.93-10.224-6.1-.135-.232-.507-.039-.371.2a11.845,11.845,0,0,0,5.231,4.355c1.477.746,3.512,1.983,5.272,2.116-.007.048-.015.1-.023.145-.361,2.134-.783,4.256-1.238,6.371-4.08-1.025-6.718-4.049-9.683-6.876-.205-.2-.527.1-.323.3,3.022,2.973,5.675,6.092,9.872,7.191q-.566,2.582-1.193,5.15a18.849,18.849,0,0,1-9.162-6.27c-.16-.2-.44.071-.288.272a20.287,20.287,0,0,0,9.288,6.664q-.677,2.755-1.389,5.5c-3.569-.543-6.319-2.779-8.517-5.6-.052-.066-.167.02-.118.089,1.954,2.717,4.908,5.856,8.463,6.184l-.454,1.754c-.091.353-.186.711-.283,1.071a20.256,20.256,0,0,1-7.412-3.573c-.061-.05-.133.046-.075.1a19.337,19.337,0,0,0,7.341,4.013c-.3,1.1-.617,2.231-.929,3.385a15.12,15.12,0,0,0-2.043-.87,14.71,14.71,0,0,1-3.372-1.95c-.107-.065-.227.086-.119.156a15.3,15.3,0,0,0,2.91,1.967c.864.326,1.678.741,2.514,1.111-1.227,4.573-2.313,9.433-1.724,13.824.13.974,1.764,1.232,2.016.2C-120.911,327.016-120.95,323.616-120.588,320.364Z" transform="translate(130.975 -242.326)" fill="#747ded"/>
        </g>
        <g id="Group_69712" data-name="Group 69712" transform="translate(0 22.104)">
          <path id="Path_50214" data-name="Path 50214" d="M-137.109,287.093c2.407,10.17,10.342,25.707-.768,33.925-2.991,2.213-7.251,1.409-10.395-.322-4.114-2.266-8.1-9.259-10-13.439-1.5-3.313-2.088-7.514-3.274-11.008-1.281-3.774-2.64-7.523-3.891-11.307-4.513-13.641-2.8-27.631,5.623-39.412,2.861,3.835,6.553,6.49,10.229,9.741a46.766,46.766,0,0,1,4.755,4.8c2.541,3.016,3.033,7.029,3.733,10.723C-140.059,276.26-138.391,281.679-137.109,287.093Z" transform="translate(167.864 -245.53)" fill="url(#linear-gradient-2)"/>
          <path id="Path_50215" data-name="Path 50215" d="M-140.227,321.292q-.413-1.23-.8-2.469a11,11,0,0,0,3.538-3.441,24.8,24.8,0,0,0,3.5-6.972c.047-.133-.172-.209-.231-.084a27.581,27.581,0,0,1-3.678,6.209,16.814,16.814,0,0,1-3.391,3.436q-.455-1.485-.869-2.979c1.44-.9,2.372-2.554,3.308-3.922a53.31,53.31,0,0,0,3.9-7.433.024.024,0,0,0-.043-.022c-1.984,3.572-3.881,8.225-7.357,10.669-.339-1.253-.664-2.508-.956-3.769l-.044-.2c3.871-3.153,5.237-7.977,7.3-12.323.033-.071-.069-.136-.106-.065-2.112,4.11-3.855,8.49-7.366,11.641-.411-1.809-.8-3.618-1.195-5.428a25.833,25.833,0,0,0,6.644-11.648.062.062,0,0,0-.117-.041c-1.48,4.326-3.844,7.515-6.694,10.912-.387-1.79-.777-3.58-1.189-5.364,1.324-1.645,2.892-3,3.961-4.849a15.428,15.428,0,0,0,2.1-5.884.087.087,0,0,0-.172-.022c-.734,4.227-3.621,6.78-6.076,9.967-.39-1.66-.8-3.316-1.25-4.966,2.683-3.665,5.745-7.331,6.017-12.089,0-.047-.066-.059-.073-.011-.537,4.5-3.622,7.774-6.171,11.276-.082-.293-.159-.586-.243-.879-.438-1.518-.891-3.033-1.349-4.545a38.192,38.192,0,0,0,4.416-5.97,12.428,12.428,0,0,0,2.176-4.748.087.087,0,0,0-.171-.031c-.644,3.674-4.136,7.248-6.619,10.092q-.7-2.292-1.392-4.581c2.495-3.719,6.039-6.783,6.411-11.564a.111.111,0,0,0-.22-.027c-.6,4.489-4,7.369-6.408,10.878q-.428-1.42-.847-2.844c3.107-3.124,6.006-8.294,6.405-12.6a.185.185,0,0,0-.366-.049,23.211,23.211,0,0,1-6.257,11.9c-.447-1.539-.884-3.082-1.295-4.632a.454.454,0,0,0,0-.152,23.767,23.767,0,0,0,3.6-4.814,14.486,14.486,0,0,0,2.6-6.216.2.2,0,0,0-.393-.032c-.282,3.749-3.307,7.581-6.051,10.24-.146-.567-.3-1.134-.435-1.7q-.313-1.278-.616-2.558c.91-1.549,2.4-2.783,3.295-4.387a27.488,27.488,0,0,0,1.838-4.4.124.124,0,0,0-.23-.091,23.287,23.287,0,0,1-2.83,5.437c-.693.924-1.615,1.7-2.258,2.656q-.5-2.093-1.008-4.183c.015-.01.028-.022.043-.032l.053-.014a.263.263,0,0,0,.188-.171c1.607-1.307,2.271-3.525,2.873-5.432a.037.037,0,0,0-.07-.026,13.4,13.4,0,0,1-3.061,5.091.142.142,0,0,1-.022,0l-.14.041q-.426-1.7-.89-3.382a.263.263,0,0,0,.091-.368,21.107,21.107,0,0,0,1.6-3.525.074.074,0,0,0-.136-.057,17.159,17.159,0,0,1-1.789,3.12,71.1,71.1,0,0,0-2.3-6.842c-.084-.208-.391-.068-.316.14.789,2.195,1.453,4.42,2.057,6.664a21.4,21.4,0,0,1-4.685-2.911c-.069-.064-.178.026-.112.1a13.171,13.171,0,0,0,2.538,1.971A17.44,17.44,0,0,0-157.6,257.6q.474,1.811.9,3.635a6.778,6.778,0,0,1-3.961.248,6.708,6.708,0,0,1-4.009-3.23c-.108-.193-.424-.044-.314.148a7.657,7.657,0,0,0,3.681,3.249,7.2,7.2,0,0,0,4.72.085q.492,2.108.961,4.222a33.122,33.122,0,0,1-4.227-.869c-2.212-.536-3.886-1.64-5.961-2.435a.173.173,0,0,0-.133.318c1.963.786,3.554,1.883,5.632,2.442a23.413,23.413,0,0,0,4.8,1.052l.05.224c-.007.018-.018.036-.026.055a.226.226,0,0,0,.1.3c.3,1.351.6,2.7.915,4.048.02.084.042.167.061.252-3.463.022-8.788-.262-10.707-3.4-.183-.3-.612.007-.39.3,2.589,3.355,7.482,3.1,11.273,3.821q.55,2.278,1.172,4.534a18.648,18.648,0,0,1-6.38-.255c-1.93-.465-4.551-.888-5.992-2.329-.045-.044-.109.028-.066.074,1.39,1.452,3.729,1.8,5.577,2.376a15.172,15.172,0,0,0,7.024.815.429.429,0,0,0,.082.189q.4,1.427.815,2.852c-3.592,1.349-9.669.974-12.662-.824-.015-.009-.025.012-.012.021a12.553,12.553,0,0,0,7.045,1.815,15.544,15.544,0,0,0,5.773-.516c.515,1.756,1.039,3.51,1.558,5.266-1.765.14-3.484.613-5.25.711a12.54,12.54,0,0,1-7.271-2.009c-.134-.082-.284.109-.15.2,4.179,2.7,8.152,2.212,12.863,1.757q.638,2.161,1.244,4.331c-3.606.907-8.83.88-11.843-1.216-.221-.154-.476.178-.255.334a11.851,11.851,0,0,0,6.58,1.74c1.654.053,4.021.316,5.673-.307l.041.143c.573,2.086,1.086,4.187,1.566,6.3-4.132.793-7.8-.835-11.681-2.148-.269-.091-.435.317-.165.413,3.994,1.42,7.716,3.129,11.986,2.353q.577,2.58,1.092,5.172a18.856,18.856,0,0,1-10.952-1.817c-.23-.116-.369.251-.146.366a20.267,20.267,0,0,0,11.233,2.121q.55,2.785,1.063,5.575c-3.466,1.014-6.9.149-10.087-1.484-.074-.038-.143.089-.069.13,2.917,1.639,6.92,3.237,10.283,2.035q.164.891.329,1.781c.066.358.13.723.194,1.09a20.275,20.275,0,0,1-8.227-.111c-.077-.02-.1.1-.026.12a19.33,19.33,0,0,0,8.348.541c.193,1.124.384,2.283.586,3.46a14.816,14.816,0,0,0-2.22.074,14.751,14.751,0,0,1-3.88-.345c-.124-.014-.17.175-.042.193a15.267,15.267,0,0,0,3.468.555c.921-.07,1.834-.037,2.748-.054.818,4.664,1.886,9.529,4.272,13.261.53.827,2.12.371,1.911-.674C-137.712,327.458-139.183,324.392-140.227,321.292Z" transform="translate(168.282 -244.522)" fill="#747ded"/>
        </g>
        <g id="Group_69713" data-name="Group 69713" transform="translate(19.756)">
          <path id="Path_50216" data-name="Path 50216" d="M-117.328,283.336c.573,12.92,6.622,33.646-8.788,41.064-4.149,2-9.142.033-12.564-2.8-4.476-3.707-7.706-13.132-9.039-18.652-1.056-4.376-.8-9.618-1.431-14.14-.685-4.886-1.468-9.757-2.113-14.649-2.329-17.628,2.99-34.238,15.96-46.61,2.592,5.325,6.464,9.408,10.181,14.21a57.857,57.857,0,0,1,4.668,6.941c2.392,4.254,2.061,9.247,2.056,13.9C-118.406,269.483-117.633,276.456-117.328,283.336Z" transform="translate(151.795 -227.551)" fill="url(#linear-gradient-3)"/>
          <path id="Path_50217" data-name="Path 50217" d="M-129.32,324.262q-.218-1.588-.4-3.185c1.94-.5,3.682-2.108,5.1-3.365a30.663,30.663,0,0,0,5.869-7.666c.089-.15-.16-.293-.261-.155a34.077,34.077,0,0,1-5.909,6.7,20.775,20.775,0,0,1-4.918,3.393q-.21-1.909-.368-3.824c1.958-.759,3.476-2.553,4.93-4a66.043,66.043,0,0,0,6.459-8.133.031.031,0,0,0-.048-.038c-3.24,3.884-6.623,9.1-11.414,11.268-.122-1.6-.226-3.2-.289-4.8,0-.082-.006-.166-.009-.25,5.437-2.937,8.214-8.486,11.73-13.291.058-.077-.05-.181-.112-.1-3.52,4.508-6.654,9.43-11.65,12.447-.081-2.293-.14-4.583-.2-6.874a31.956,31.956,0,0,0,10.773-12.623.077.077,0,0,0-.133-.076c-2.8,4.918-6.413,8.247-10.664,11.716-.057-2.266-.116-4.532-.2-6.8,1.99-1.692,4.21-2.976,5.938-4.977a19.075,19.075,0,0,0,3.914-6.667.107.107,0,0,0-.2-.066c-1.872,4.969-5.973,7.4-9.7,10.711q-.133-3.165-.369-6.327c4.11-3.836,8.681-7.582,10.113-13.3.014-.057-.069-.089-.086-.031-1.7,5.353-6.2,8.612-10.113,12.281-.032-.375-.057-.75-.091-1.125-.181-1.949-.382-3.895-.588-5.839a47.27,47.27,0,0,0,6.751-6.236c1.464-1.582,3.05-3.188,3.744-5.268a.107.107,0,0,0-.2-.076c-1.634,4.315-6.705,7.854-10.384,10.735q-.315-2.945-.632-5.89c3.894-3.943,8.911-6.847,10.472-12.575a.137.137,0,0,0-.262-.082c-1.772,5.317-6.573,8.032-10.308,11.739q-.192-1.824-.373-3.651c4.5-3.078,9.222-8.692,10.706-13.84a.23.23,0,0,0-.435-.145,28.712,28.712,0,0,1-10.36,13.015c-.187-1.974-.36-3.951-.5-5.931a.609.609,0,0,0,.032-.187c2.062-1.22,3.868-3.348,5.491-5.02a17.911,17.911,0,0,0,4.6-6.955c.095-.3-.39-.434-.471-.129-1.211,4.491-5.776,8.45-9.727,11.048-.047-.724-.1-1.447-.135-2.171q-.083-1.627-.156-3.253c1.464-1.672,3.568-2.828,5.021-4.571a33.874,33.874,0,0,0,3.252-4.918.152.152,0,0,0-.257-.164,28.792,28.792,0,0,1-4.7,5.953c-1.057.963-2.357,1.689-3.36,2.706-.08-1.774-.161-3.547-.257-5.319.02-.009.039-.02.059-.03l.066,0a.323.323,0,0,0,.269-.164c2.257-1.217,3.576-3.76,4.751-5.938a.046.046,0,0,0-.079-.048c-1.3,2-2.794,4.23-4.9,5.481-.01,0-.016,0-.027,0l-.18.017q-.124-2.161-.3-4.319a.325.325,0,0,0,.2-.425,26.11,26.11,0,0,0,2.765-3.915.091.091,0,0,0-.152-.1,21.321,21.321,0,0,1-2.9,3.38,87.7,87.7,0,0,0-1.216-8.852c-.053-.272-.46-.172-.417.1.451,2.849.744,5.709.959,8.575a26.391,26.391,0,0,1-5.023-4.624c-.069-.092-.221-.009-.157.093a16.392,16.392,0,0,0,2.629,2.984,21.645,21.645,0,0,0,2.629,2.54q.157,2.311.255,4.629a8.391,8.391,0,0,1-4.873-.616,8.3,8.3,0,0,1-4.126-4.854c-.087-.261-.507-.154-.416.106a9.466,9.466,0,0,0,3.723,4.8,8.9,8.9,0,0,0,5.718,1.2q.111,2.676.192,5.357a40.9,40.9,0,0,1-4.937-2.037c-2.566-1.163-4.346-2.893-6.684-4.341a.214.214,0,0,0-.235.358c2.2,1.408,3.885,3.112,6.282,4.272a28.946,28.946,0,0,0,5.594,2.39l.009.283c-.014.022-.031.041-.044.063a.282.282,0,0,0,.059.388c.052,1.71.106,3.421.175,5.132,0,.107.011.214.016.321-4.216-.775-10.622-2.353-12.23-6.611a.3.3,0,1,0-.542.27c2.37,4.679,8.38,5.5,12.819,7.256q.142,2.9.375,5.783a23.034,23.034,0,0,1-7.7-1.788c-2.239-1.011-5.326-2.133-6.746-4.217-.044-.065-.139.009-.1.075,1.355,2.085,4.116,3.056,6.231,4.179a18.776,18.776,0,0,0,8.349,2.619.547.547,0,0,0,.055.248q.157,1.829.331,3.656c-4.678.807-11.98-1.055-15.2-3.934-.015-.014-.033.01-.02.023,2.268,2.245,5.079,3.182,8.144,3.836,2.29.489,4.791,1.12,7.138.709.22,2.255.45,4.51.675,6.763-2.179-.239-4.377-.062-6.547-.352a15.5,15.5,0,0,1-8.374-4.127c-.144-.129-.371.068-.227.205,4.454,4.248,9.4,4.575,15.231,5.113q.275,2.775.51,5.555c-4.594.267-10.938-.975-14.118-4.222-.232-.237-.62.107-.386.348,2.017,2.085,4.821,3.017,7.6,3.639,2,.446,4.816,1.314,6.967.939,0,.06.011.122.016.182.214,2.669.35,5.343.446,8.02-5.207.006-9.287-2.82-13.7-5.316-.306-.173-.6.284-.3.463,4.526,2.652,8.655,5.59,14.025,5.637q.105,3.268.13,6.541a23.332,23.332,0,0,1-12.894-4.746c-.252-.193-.505.219-.263.412a25.091,25.091,0,0,0,13.166,5.18c.016,2.341.012,4.683,0,7.024-4.448.43-8.426-1.418-11.921-4.139-.081-.064-.193.075-.113.141,3.167,2.669,7.664,5.539,12.029,4.855q-.006,1.121-.011,2.242c0,.451-.009.909-.016,1.371a25.073,25.073,0,0,1-9.976-2.04c-.091-.043-.146.095-.06.14a23.923,23.923,0,0,0,10.024,2.589c-.026,1.411-.063,2.865-.089,4.342a18.714,18.714,0,0,0-2.716-.424c-1.729-.075-3.026-.831-4.637-1.318-.148-.044-.246.173-.1.225,1.43.491,2.554,1.3,4.088,1.477,1.136.129,2.239.38,3.354.572-.086,5.859.086,12.02,2.123,17.109.452,1.129,2.49.943,2.479-.376C-127.689,332.342-128.769,328.275-129.32,324.262Z" transform="translate(152.352 -226.304)" fill="#747ded"/>
        </g>
        <path id="Path_50218" data-name="Path 50218" d="M-108.96,311.166l-.571,10.5-.892,16.355-1.463,26.872h-36.381l-1.463-26.872-.892-16.355-.57-10.5Z" transform="translate(171.689 -208.367)" fill="#95a8b5"/>
        <path id="Path_50219" data-name="Path 50219" d="M-109.638,319.709l-.117,2.106-.117,2.18-.658,12.068h-39.307L-150.495,324l-.117-2.18-.117-2.106Z" transform="translate(171.795 -206.407)" fill="#a5b7c6"/>
        <path id="Path_50220" data-name="Path 50220" d="M-109.776,321.422l-.117,2.18h-40.623l-.117-2.18Z" transform="translate(171.817 -206.014)" fill="#95a8b5"/>
      </g>
    </g>
  </g>
</svg>
