<svg xmlns="http://www.w3.org/2000/svg" width="62.131" height="62.15" viewBox="0 0 62.131 62.15">
  <g id="b4fd82f74b6f6bf593a0681de0f07ff1" transform="translate(-10.001 -9.853)">
    <g id="Group_55730" data-name="Group 55730" transform="translate(10.001 9.853)">
      <path id="Path_14255" data-name="Path 14255" d="M26.126-501.969a19.286,19.286,0,0,0-8.057,3.135,23.3,23.3,0,0,0-4.764,4.763,18.791,18.791,0,0,0-2.138,17.134A19.085,19.085,0,0,0,20.353-466.7a22.8,22.8,0,0,0,5.068,1.7,24.218,24.218,0,0,0,6.562-.012,18.631,18.631,0,0,0,9.916-5.237,18.354,18.354,0,0,0,5.48-13.914,17.506,17.506,0,0,0-.936-5.116,17.843,17.843,0,0,0-4.557-7.352A18.465,18.465,0,0,0,26.126-501.969Zm-2.017,11.835a2.378,2.378,0,0,1,.936,2.771,2.949,2.949,0,0,1-1.288,1.324,2.321,2.321,0,0,1-3.2-2.1,2.207,2.207,0,0,1,2.321-2.345A1.915,1.915,0,0,1,24.108-490.133Zm11.5-.121a2.186,2.186,0,0,1,1.239,2.029,2.277,2.277,0,0,1-3.791,1.774,2.237,2.237,0,0,1-.571-2.795A2.355,2.355,0,0,1,35.6-490.254ZM21-479.925a2.243,2.243,0,0,1,.607.559,8.6,8.6,0,0,0,3.755,3.4,6.888,6.888,0,0,0,3.464.717,6.273,6.273,0,0,0,2.248-.328,8.365,8.365,0,0,0,4.375-3.305,4.715,4.715,0,0,1,.9-1,1.861,1.861,0,0,1,1.957-.012,1.749,1.749,0,0,1,.912,1.653c0,.632-.061.778-.607,1.6a11.947,11.947,0,0,1-4.642,4.059,11.884,11.884,0,0,1-14.57-3.246c-1.045-1.324-1.312-1.884-1.227-2.6A1.933,1.933,0,0,1,21-479.925Z" transform="translate(-10.001 502.147)" fill="#fff"/>
      <path id="Path_14256" data-name="Path 14256" d="M418.163-110.882c-.1.012-.486.061-.851.109l-.668.073-.413,1.215a22.814,22.814,0,0,1-14.059,13.841c-1.021.328-.985.231-1.106,2.613a18.8,18.8,0,0,0,3.281,11.423,22.277,22.277,0,0,0,4.824,4.788,20.121,20.121,0,0,0,7.291,3.013,24.221,24.221,0,0,0,6.562-.012,18.55,18.55,0,0,0,9.9-5.237,17.658,17.658,0,0,0,4.557-7.34,15.621,15.621,0,0,0,.9-5.845,15.36,15.36,0,0,0-.9-5.845,17.645,17.645,0,0,0-4.557-7.34,17.969,17.969,0,0,0-10.718-5.346A21.581,21.581,0,0,0,418.163-110.882Zm-3.013,11.945a2.378,2.378,0,0,1,.936,2.771,2.945,2.945,0,0,1-1.288,1.324,2.322,2.322,0,0,1-3.2-2.1,2.207,2.207,0,0,1,2.321-2.345A1.916,1.916,0,0,1,415.149-98.937Zm11.495-.122a2.333,2.333,0,0,1,0,4.132,2.243,2.243,0,0,1-2.637-.389,2.255,2.255,0,0,1-.486-2.734A2.355,2.355,0,0,1,426.644-99.059Zm-5.018,8.774a11.82,11.82,0,0,1,5.967,2.431,10.218,10.218,0,0,1,2.54,3.2,1.96,1.96,0,0,1-.717,2.43,1.5,1.5,0,0,1-1.045.255c-.875,0-1.227-.231-1.8-1.167a6.69,6.69,0,0,0-3.305-2.783,12.214,12.214,0,0,0-3.524-.607,12.215,12.215,0,0,0-3.524.607A6.56,6.56,0,0,0,413-83.249a3.618,3.618,0,0,1-.571.814,1.919,1.919,0,0,1-3.22-1.227c-.183-1.519,2.114-4.192,4.678-5.468A13.994,13.994,0,0,1,421.626-90.285Z" transform="translate(-376.252 135.74)" fill="#fff"/>
    </g>
  </g>
</svg>
