<svg xmlns="http://www.w3.org/2000/svg" width="21.619" height="29.704"  xmlns:v="https://vecta.io/nano"><path d="M10.666 5.5a10.04 10.04 0 0 0-3.692 3.87c-1.421 3.158 2.907 6.6 3.092 6.748.088.07.214.068.3-.006s.111-.198.059-.3A14.2 14.2 0 0 1 8.914 10.5c.02-.768 1.076-1.64 2.193-2.563 1.104-.815 2.07-1.802 2.861-2.924A4.77 4.77 0 0 0 13.783.1c-.065-.092-.187-.126-.29-.08s-.161.162-.137.274a5.27 5.27 0 0 1-.571 3.273A6.99 6.99 0 0 1 10.666 5.5zm5.675 1.091c.095-.074.122-.206.065-.312s-.182-.153-.294-.11c-.229.089-5.6 2.2-5.6 4.751-.017 1.243.439 2.446 1.275 3.366.187.205.34.438.453.692a3.52 3.52 0 0 1-.4 1.933c-.049.1-.025.219.058.293s.204.08.293.016 2.259-1.626 1.87-3.506a4.69 4.69 0 0 0-.793-1.7c-.471-.714-.811-1.23-.3-2.182a18.32 18.32 0 0 1 3.373-3.241z" fill="#db380e"/><g fill="#73a1fb"><path d="M2.35 17.304a.88.88 0 0 0 .126.807c.583.824 2.646 1.278 5.811 1.278h0l1.345-.026c5.06-.185 6.937-1.791 7.014-1.859.085-.075.108-.199.055-.3s-.166-.15-.274-.12a34.19 34.19 0 0 1-7.418.672 16.02 16.02 0 0 1-4.22-.33c.738-.48 1.574-.788 2.447-.9.12-.027.201-.139.19-.261s-.113-.217-.236-.221c-.739.004-4.451.065-4.84 1.26zm16.933-1.655c-.724.03-1.433.22-2.075.556-.097.054-.146.166-.119.274a.24.24 0 0 0 .232.184c.022 0 2.226.018 2.426 1.3.177 1.107-2.086 2.9-2.972 3.5-.097.066-.134.192-.088.3s.157.168.27.144c.21-.046 5.147-1.155 4.625-4.084-.319-1.797-1.426-2.174-2.299-2.174z"/><path d="M15.897 21.105c.017-.094-.022-.189-.1-.244l-1.184-.845c-.058-.042-.131-.055-.2-.036a22.92 22.92 0 0 1-3.047.538 20.76 20.76 0 0 1-2.311.125 8.3 8.3 0 0 1-3.143-.373c-.023-.044-.015-.064-.011-.076a.6.6 0 0 1 .305-.234c.12-.046.183-.177.146-.3s-.161-.196-.285-.166c-1.187.292-1.768.7-1.726 1.214.075.91 2.144 1.377 3.892 1.5l.808.026h0a33.4 33.4 0 0 0 6.673-.939.24.24 0 0 0 .183-.19zm-8.925 1.952c.091-.06.132-.172.1-.276a.24.24 0 0 0-.234-.171c-.159 0-1.557.069-1.655.976-.031.266.051.533.227.736.5.606 1.857.966 4.142 1.1l.816.025a12.26 12.26 0 0 0 4.943-.966c.079-.04.131-.119.136-.208s-.039-.173-.114-.22l-1.5-.931c-.052-.032-.113-.043-.173-.031-.009 0-.959.2-2.393.4a7.74 7.74 0 0 1-1.009.057 12.3 12.3 0 0 1-3.33-.395.1.1 0 0 1 .044-.096zm2.039 5.189c6.653-.006 10.224-1.211 10.912-1.97a.85.85 0 0 0 .249-.689 1.06 1.06 0 0 0-.458-.686c-.1-.066-.234-.048-.312.043s-.078.226 0 .317c.042.055.066.147-.056.272-.275.262-3.049 1.056-7.667 1.295a38.15 38.15 0 0 1-1.972.051c-4.135 0-7.161-.577-7.558-.913a5.82 5.82 0 0 1 2.362-.785c.131-.022.22-.145.2-.277a.24.24 0 0 0-.268-.2c-.032 0-.141.011-.267.019-1.878.117-4.049.377-4.162 1.364-.036.296.059.592.261.811.507.581 1.965 1.353 8.743 1.353z"/><path d="M21.23 26.489c-.094-.044-.205-.022-.275.055-.01.011-1.01 1.077-4.018 1.7-2.128.298-4.277.417-6.424.354-3.117 0-6.083-.125-6.112-.126a.24.24 0 0 0-.247.21c-.018.123.06.24.181.27a34.94 34.94 0 0 0 7.389.75c1.978.006 3.952-.161 5.9-.5 3.494-.624 3.738-2.389 3.747-2.464.012-.105-.045-.205-.141-.249z"/></g></svg>