<svg xmlns="http://www.w3.org/2000/svg" width="62.745" height="62.861" viewBox="0 0 62.745 62.861">
  <g id="Layer_1" transform="translate(-442.561 -268.198)">
    <path id="Path_14271" data-name="Path 14271" d="M465.552,331.059a23,23,0,0,1-5.982-45.2.87.87,0,0,0,.645-.7c2.488-8.354,7.928-13.846,16.308-16.166a22.949,22.949,0,0,1,11.925,44.322,1.022,1.022,0,0,0-.786.8c-2.939,9.282-9.166,14.851-18.77,16.579C467.795,330.917,466.66,330.943,465.552,331.059Zm15.5-40.093,15.225-15.187c-1.3-.941-2.63-1.908-3.79-2.746-5.157,5.144-10.2,10.185-15.2,15.161Zm4.641,5.853c1.006-1.019,1.985-2.024,2.978-3l11.641-11.641c.168-.168.374-.529.309-.657a16.845,16.845,0,0,0-2.656-3.868q-7.716,7.542-15.277,14.942C483.755,294.085,484.7,295.413,485.689,296.818Zm4.345-24.855a18.813,18.813,0,0,0-5.35-1.328c-.232-.026-.541.219-.735.413q-6.923,6.9-13.82,13.807c-.155.155-.3.335-.4.438,1.534.49,3.055.941,4.538,1.483a1.01,1.01,0,0,0,1.263-.232q6.962-7,13.949-13.975C489.621,272.4,489.775,272.22,490.033,271.963Zm11.732,12.054a.763.763,0,0,0-.232.116q-7.31,7.29-14.594,14.619a.906.906,0,0,0-.064.722c.374,1.315.786,2.63,1.173,3.945.09.3.129.606.193.928.116-.064.168-.064.193-.1q7.136-7.136,14.258-14.271a.889.889,0,0,0,.258-.593A18.125,18.125,0,0,0,501.765,284.016Zm-20.549-13.485a20.464,20.464,0,0,0-13.072,5.634c-2.682,2.527-5.6,7.4-5.44,8.882,1.134,0,2.243-.026,3.365.013a1.439,1.439,0,0,0,1.16-.464q6.691-6.71,13.395-13.42C480.777,271.022,480.919,270.841,481.215,270.532Zm-1.676,22.058c-1.379-.967-2.72-1.921-4.009-2.836-3.855,3.855-7.593,7.593-11.435,11.448.941,1.289,1.908,2.63,2.862,3.945C471.185,300.93,475.285,296.831,479.539,292.589Zm-6.7,17.12c.748-.773,1.405-1.47,2.076-2.153,2.862-2.875,5.737-5.737,8.6-8.625.168-.168.348-.541.271-.658-.812-1.341-1.689-2.656-2.475-3.88-4.241,4.229-8.354,8.341-12.557,12.518C470.064,307.815,471.417,308.743,472.835,309.71ZM502.9,293.041c-.1.077-.155.09-.18.129q-6.962,6.962-13.91,13.91a.864.864,0,0,0-.284.451c-.026,1.134-.013,2.269-.013,3.378C495.938,308.975,502.512,301.279,502.9,293.041Zm-39.861,5.647,9.991-9.991a18.552,18.552,0,0,0-5.092-1.263.886.886,0,0,0-.658.271c-1.766,1.728-3.507,3.481-5.247,5.247a1,1,0,0,0-.271.658A19.319,19.319,0,0,0,463.038,298.687Zm12.208,11.951a18.11,18.11,0,0,0,5.35,1.16.825.825,0,0,0,.529-.258q2.378-2.359,4.744-4.744a.95.95,0,0,0,.284-.593,17.462,17.462,0,0,0-1.16-5.324C481.744,304.153,478.508,307.389,475.246,310.638Zm-13.523-20.91,2.4-2.4c-.245.026-.632.052-1.031.09-1.109.1-1.109.1-1.276,1.173C461.749,289.006,461.749,289.431,461.723,289.728ZM486.1,310.071c-.541.541-1.16,1.147-1.728,1.7C485.946,311.8,486.256,311.476,486.1,310.071Z" transform="translate(0 0)" fill="#fff"/>
  </g>
</svg>
