<svg xmlns="http://www.w3.org/2000/svg" width="68.816" height="52.228" viewBox="0 0 68.816 52.228">
  <g id="Group_55770" data-name="Group 55770" transform="translate(-345.091 -1827.886)">
    <path id="Subtraction_1" data-name="Subtraction 1" d="M1271.291-10034.773a1,1,0,0,1-.385-.078,1,1,0,0,1-.623-.924v-4.792h-16.435l-.007,0h-9.126l-.468,0-.451,0h-24.065a5.738,5.738,0,0,1-5.731-5.731,5.739,5.739,0,0,1,5.731-5.733H1243.8l.253,0c.052,0,.113,0,.192,0l-.448,0,.012,0a11.743,11.743,0,0,0,5.455-1.346h1.939a2.5,2.5,0,0,0,2.5-2.5v-1.3a1.447,1.447,0,0,1,.04-.341c.147-.232.285-.47.411-.7a1.576,1.576,0,0,1,1.057-.437,1.4,1.4,0,0,1,.732.205l1.208.706a2.49,2.49,0,0,0,1.266.357,2.433,2.433,0,0,0,2.121-1.239l1.013-1.718.008-.025a3.009,3.009,0,0,0,.208-1.962,2.627,2.627,0,0,0-1.083-1.56l-1.22-.711a1.552,1.552,0,0,1-.734-1.324,1.543,1.543,0,0,1,.734-1.319l1.195-.7.005,0a2.521,2.521,0,0,0,1.195-1.609,2.305,2.305,0,0,0-.327-1.782l-1-1.693a2.485,2.485,0,0,0-2.121-1.251,2.308,2.308,0,0,0-1.271.385l-1.19.691-.008,0a1.373,1.373,0,0,1-.732.21,1.536,1.536,0,0,1-1.048-.431,1.437,1.437,0,0,1-.461-1.053v-1.4a2.5,2.5,0,0,0-2.5-2.5h-2a2.5,2.5,0,0,0-2.5,2.5v.714a11.811,11.811,0,0,0-2.9-.361,11.742,11.742,0,0,0-11.673,10.379l4.164.377a.794.794,0,0,1,.731.61.888.888,0,0,1-.505.954l-10.609,8.853a.342.342,0,0,1-.35.206.859.859,0,0,1-.635-.319l-8.853-10.607a.887.887,0,0,1-.1-.977.891.891,0,0,1,.788-.477l.075,0,3.876.356c0-.027.005-.056.008-.084s.007-.062.009-.093a23.173,23.173,0,0,1,7.536-14.679A23.172,23.172,0,0,1,1243.8-10087a23.066,23.066,0,0,1,16.418,6.8,23.071,23.071,0,0,1,6.8,16.419,23.194,23.194,0,0,1-3.19,11.748h6.463v-4.789a1.007,1.007,0,0,1,.62-.93,1.009,1.009,0,0,1,.382-.075,1,1,0,0,1,.711.293l10.526,10.526a1.009,1.009,0,0,1,0,1.415L1272-10035.066A1,1,0,0,1,1271.291-10034.773Z" transform="translate(-868.909 11914.887)" fill="#fff"/>
    <g id="icons" transform="translate(371.101 1838.937)">
      <path id="settings" d="M18.745,12.076l-1.006-.587a1.726,1.726,0,0,1,0-2.935l1.006-.587A1.594,1.594,0,0,0,19.332,5.7l-.839-1.426a1.594,1.594,0,0,0-2.264-.587l-1.006.587a1.673,1.673,0,0,1-2.516-1.426V1.677A1.682,1.682,0,0,0,11.03,0H9.353A1.682,1.682,0,0,0,7.675,1.677v1.09A1.673,1.673,0,0,1,5.16,4.193l-1.006-.5a1.626,1.626,0,0,0-2.264.587L1.05,5.7a1.829,1.829,0,0,0,.587,2.348l1.006.587a1.652,1.652,0,0,1,0,2.851l-1.006.587A1.594,1.594,0,0,0,1.05,14.34l.839,1.426a1.594,1.594,0,0,0,2.264.587l1.006-.5a1.673,1.673,0,0,1,2.516,1.426V18.45a1.682,1.682,0,0,0,1.677,1.677H11.03a1.682,1.682,0,0,0,1.677-1.677V17.36a1.673,1.673,0,0,1,2.516-1.426l1.006.587a1.626,1.626,0,0,0,2.264-.587l.839-1.426A1.913,1.913,0,0,0,18.745,12.076Zm-8.554,1.342a3.354,3.354,0,1,1,3.354-3.354A3.364,3.364,0,0,1,10.191,13.418Z" transform="translate(0)" fill="#fff"/>
    </g>
  </g>
</svg>
