<svg xmlns="http://www.w3.org/2000/svg" width="53.138" height="58.87" viewBox="0 0 53.138 58.87">
  <path id="remote-work-icon" d="M53.539,110.46a2.729,2.729,0,1,1-2.729,2.729,2.729,2.729,0,0,1,2.729-2.729ZM46.4,94.679h0c3.638,4.048,11.752,3.329,14.762,0a27.6,27.6,0,0,1-2.083-2.82c-.146-.209-.282-.418-.418-.6a8.7,8.7,0,0,1-5,1.474A8.413,8.413,0,0,1,48.2,90.759a17.118,17.118,0,0,1-1.592,3.72.91.91,0,0,1-.182.182Zm-14.489,7.167a1.946,1.946,0,0,0-1.819,2.31l1.665,12.87H27.389c-.136-7.086-2.338-15.544,4.994-19.638,2.8-1.564,10.078-2.083,13.189-4.166a26.7,26.7,0,0,0,1.337-3.5v-.091c-1.874-2.01-3.838-4.684-5.63-7.022A7.64,7.64,0,0,1,39.8,78.834a3.111,3.111,0,0,1,.255-1.355,2.474,2.474,0,0,1,.91-1.037,2.911,2.911,0,0,1,.628-.327,67.2,67.2,0,0,1-.127-7.44,11.206,11.206,0,0,1,.327-1.683,10.917,10.917,0,0,1,7.222-7.013c1.619-.555.991-1.892,2.629-1.819,3.884.209,9.878,2.729,12.179,5.366,3.229,3.72,2.392,8.3,2.292,12.843h0a1.819,1.819,0,0,1,1.364,1.41,5.821,5.821,0,0,1-.709,3.556h0a.846.846,0,0,0-.045.091c-1.928,2.729-4.621,6.749-6.822,8.8l-.073.073c.146.218.309.446.473.7.518.755,1.1,1.61,1.646,2.283,3.247,2.019,10.342,2.565,13.116,4.1,6.722,3.757,4.693,12.843,4.939,19.638H75.7l1.665-12.87a1.965,1.965,0,0,0-1.819-2.31ZM43.124,77.288a2.565,2.565,0,0,0-1.31.346,1.019,1.019,0,0,0-.382.427,1.692,1.692,0,0,0-.118.7,6.167,6.167,0,0,0,1.237,3.02h0c1.819,2.328,4.157,5.667,6.094,7.44a7.186,7.186,0,0,0,4.994,2.01,7.358,7.358,0,0,0,5.275-2.092c2.037-1.91,4.712-5.912,6.531-8.45a4.675,4.675,0,0,0,.664-2.529c-.073-.291-.391-.427-.91-.455h-.764a.909.909,0,0,1-.227,0,4.839,4.839,0,0,1-.8,0l1-4.448c-7.449,1.173-13.016-4.357-20.92-1.1l.573,5.23a4.165,4.165,0,0,1-.91,0Z" transform="translate(-26.975 -58.157)" fill="#fff" fill-rule="evenodd"/>
</svg>
