<svg xmlns="http://www.w3.org/2000/svg" width="24.506" height="27.873"  fill="#689f63" xmlns:v="https://vecta.io/nano"><path d="M12.258 27.873a2.12 2.12 0 0 1-1.062-.286l-3.38-2.019c-.5-.285-.258-.386-.092-.444a6.8 6.8 0 0 0 1.528-.7c.081-.039.177-.032.252.018l2.6 1.554a.34.34 0 0 0 .314 0l10.119-5.902c.096-.059.155-.163.155-.276V8.037a.33.33 0 0 0-.157-.281l-10.119-5.89a.31.31 0 0 0-.312 0L1.987 7.756c-.099.058-.159.164-.16.279v11.786c-.001.113.059.217.157.274l2.772 1.616c1.505.759 2.425-.136 2.425-1.035V9.041a.29.29 0 0 1 .294-.294h1.282a.29.29 0 0 1 .291.294v11.638c0 2.025-1.095 3.188-3 3.188a4.31 4.31 0 0 1-2.334-.639l-2.656-1.544c-.659-.39-1.063-1.099-1.062-1.864V8.034a2.15 2.15 0 0 1 1.062-1.861l10.133-5.9a2.2 2.2 0 0 1 2.129 0l10.121 5.9a2.16 2.16 0 0 1 1.062 1.861V19.82c-.001.764-.404 1.472-1.062 1.861l-10.121 5.9c-.324.188-.692.287-1.067.286m3.131-8.117c-4.429 0-5.358-2.051-5.358-3.772a.29.29 0 0 1 .085-.208c.055-.055.13-.086.208-.086h1.308c.145 0 .268.107.289.25.2 1.344.786 2.022 3.464 2.022 2.134 0 3.041-.486 3.041-1.628 0-.657-.258-1.145-3.573-1.473-2.772-.276-4.485-.892-4.485-3.129 0-2.061 1.723-3.288 4.609-3.288 3.241 0 4.847 1.135 5.05 3.574a.3.3 0 0 1-.294.322h-1.315a.29.29 0 0 1-.284-.23c-.317-1.414-1.082-1.866-3.162-1.866-2.329 0-2.6.818-2.6 1.432 0 .744.319.961 3.461 1.381 3.112.417 4.589 1 4.589 3.211 0 2.224-1.84 3.5-5.048 3.5"/></svg>