<svg xmlns="http://www.w3.org/2000/svg" width="50.155" height="52.615" viewBox="0 0 50.155 52.615">
  <path id="laravel-2" d="M50.127,11.9a.848.848,0,0,1,.028.215V23.412a.826.826,0,0,1-.406.714l-9.3,5.457V40.4a.829.829,0,0,1-.4.714L20.626,52.505a.86.86,0,0,1-.141.06c-.018.006-.035.017-.055.023a.8.8,0,0,1-.414,0c-.022-.006-.042-.019-.064-.027a.832.832,0,0,1-.133-.056L.406,41.115A.827.827,0,0,1,0,40.4V6.52A.857.857,0,0,1,.028,6.3c.006-.024.02-.045.028-.069a.82.82,0,0,1,.052-.128.769.769,0,0,1,.056-.073.837.837,0,0,1,.072-.1.791.791,0,0,1,.08-.062A.661.661,0,0,1,.4,5.805h0L10.112.11a.8.8,0,0,1,.808,0l9.707,5.7h0a.993.993,0,0,1,.089.07.958.958,0,0,1,.079.062.962.962,0,0,1,.073.1.759.759,0,0,1,.055.073.868.868,0,0,1,.053.128c.008.024.022.045.028.07a.848.848,0,0,1,.028.215V27.681l8.089-4.746V12.117a.847.847,0,0,1,.028-.214c.007-.025.02-.046.028-.07a.939.939,0,0,1,.053-.128c.015-.027.037-.048.055-.073a.845.845,0,0,1,.073-.1.778.778,0,0,1,.079-.062.818.818,0,0,1,.089-.071h0l9.708-5.7a.8.8,0,0,1,.808,0l9.707,5.7a.9.9,0,0,1,.091.07c.025.021.055.039.078.062a.962.962,0,0,1,.073.1.621.621,0,0,1,.055.073.825.825,0,0,1,.053.128.6.6,0,0,1,.028.07Zm-1.59,11.032V13.544l-3.4,1.993L40.447,18.29v9.391l8.091-4.746ZM38.83,39.924v-9.4l-4.616,2.687L21.032,40.879v9.486ZM1.618,7.945V39.924l17.8,10.44V40.88l-9.3-5.362,0,0,0,0a39.168,39.168,0,0,0-.164-.128l0,0a.782.782,0,0,1-.067-.086.878.878,0,0,1-.061-.08v0a.664.664,0,0,1-.042-.1.615.615,0,0,1-.038-.093h0a.8.8,0,0,1-.016-.12.727.727,0,0,1-.012-.093V12.691L5.015,9.937l-3.4-1.991Zm8.9-6.17L2.429,6.52l8.086,4.744L18.6,6.519,10.515,1.776Zm4.206,29.607,4.692-2.752V7.945l-3.4,1.993-4.693,2.753V33.377ZM39.639,7.374l-8.087,4.744,8.087,4.744,8.086-4.745ZM38.83,18.29l-4.693-2.753-3.4-1.993v9.391l4.692,2.752,3.4,1.994ZM20.222,39.454l11.862-6.9L38.013,29.1l-8.081-4.741-9.3,5.458L12.148,34.8Z" transform="translate(0 0)" fill="#fff"/>
</svg>
