<svg xmlns="http://www.w3.org/2000/svg" width="582.668" height="417.301" viewBox="0 0 582.668 417.301">
  <g id="Group_70295" data-name="Group 70295" transform="translate(182 -2419.001)">
    <g id="Group_70294" data-name="Group 70294" transform="translate(-182 2419.001)">
      <g id="Group_70273" data-name="Group 70273" transform="translate(0 0)">
        <g id="Group_70240" data-name="Group 70240">
          <path id="Rectangle_27703" data-name="Rectangle 27703" d="M14.213,0H225.421a14.213,14.213,0,0,1,14.213,14.213V403.087A14.214,14.214,0,0,1,225.42,417.3H14.214A14.214,14.214,0,0,1,0,403.087V14.213A14.213,14.213,0,0,1,14.213,0Z" fill="#223d94"/>
          <path id="Path_50922" data-name="Path 50922" d="M172.886,362.968a15.623,15.623,0,1,1-15.623-15.621A15.623,15.623,0,0,1,172.886,362.968Z" transform="translate(-37.447 28.286)" fill="#fff"/>
          <g id="Group_70238" data-name="Group 70238" transform="translate(89.056 10.306)">
            <path id="Path_50923" data-name="Path 50923" d="M193.979,136.965a3.416,3.416,0,0,1-3.416,3.416H135.876a3.417,3.417,0,0,1-3.416-3.416h0a3.417,3.417,0,0,1,3.416-3.418h54.687a3.416,3.416,0,0,1,3.416,3.418Z" transform="translate(-132.46 -120.739)" fill="#fff"/>
            <path id="Path_50924" data-name="Path 50924" d="M155.426,128.871a3.093,3.093,0,1,1-3.093-3.092A3.094,3.094,0,0,1,155.426,128.871Z" transform="translate(-121.573 -125.779)" fill="#fff"/>
          </g>
          <g id="Group_70239" data-name="Group 70239" transform="translate(10.502 38.382)">
            <rect id="Rectangle_27704" data-name="Rectangle 27704" width="218.629" height="328.949" fill="#dcc5f9"/>
            <path id="Path_50925" data-name="Path 50925" d="M84.817,471.755,303.446,142.807V471.755Z" transform="translate(-84.817 -142.807)" fill="#d0b7f9" opacity="0.5"/>
          </g>
        </g>
        <g id="Group_70272" data-name="Group 70272" transform="translate(29.299 55.467)">
          <g id="Group_70263" data-name="Group 70263">
            <g id="Group_70242" data-name="Group 70242">
              <rect id="Rectangle_27705" data-name="Rectangle 27705" width="181.036" height="80.395" fill="#fff"/>
              <g id="Group_70241" data-name="Group 70241" transform="translate(40.633 19.425)" opacity="0.4">
                <path id="Path_50926" data-name="Path 50926" d="M155.91,164.95l27.077,35.738,14.839-19.59,22.805,30.1h-99.77Z" transform="translate(-120.861 -164.95)" fill="#9ec7ef"/>
                <path id="Path_50927" data-name="Path 50927" d="M156.188,172.024a5.557,5.557,0,1,0,5.555-5.561A5.557,5.557,0,0,0,156.188,172.024Z" transform="translate(-97.94 -163.969)" fill="#9ec7ef"/>
              </g>
            </g>
            <g id="Group_70251" data-name="Group 70251" transform="translate(0 92.007)">
              <g id="Group_70246" data-name="Group 70246">
                <g id="Group_70245" data-name="Group 70245" transform="translate(0 16)">
                  <g id="Group_70243" data-name="Group 70243">
                    <rect id="Rectangle_27706" data-name="Rectangle 27706" width="81.775" height="3.65" fill="#b492f4"/>
                    <rect id="Rectangle_27707" data-name="Rectangle 27707" width="81.775" height="3.65" transform="translate(0 8.933)" fill="#b492f4"/>
                  </g>
                  <g id="Group_70244" data-name="Group 70244" transform="translate(0 17.865)">
                    <rect id="Rectangle_27708" data-name="Rectangle 27708" width="81.775" height="3.652" fill="#b492f4"/>
                    <rect id="Rectangle_27709" data-name="Rectangle 27709" width="81.775" height="3.65" transform="translate(0 8.933)" fill="#b492f4"/>
                  </g>
                </g>
                <rect id="Rectangle_27710" data-name="Rectangle 27710" width="81.775" height="8.038" fill="#fff"/>
              </g>
              <g id="Group_70250" data-name="Group 70250" transform="translate(99.261)">
                <rect id="Rectangle_27711" data-name="Rectangle 27711" width="81.775" height="8.038" fill="#fff"/>
                <g id="Group_70249" data-name="Group 70249" transform="translate(0 16)">
                  <g id="Group_70247" data-name="Group 70247">
                    <rect id="Rectangle_27712" data-name="Rectangle 27712" width="81.775" height="3.65" fill="#b492f4"/>
                    <rect id="Rectangle_27713" data-name="Rectangle 27713" width="81.775" height="3.65" transform="translate(0 8.933)" fill="#b492f4"/>
                  </g>
                  <g id="Group_70248" data-name="Group 70248" transform="translate(0 17.865)">
                    <rect id="Rectangle_27714" data-name="Rectangle 27714" width="81.775" height="3.652" fill="#b492f4"/>
                    <rect id="Rectangle_27715" data-name="Rectangle 27715" width="81.775" height="3.65" transform="translate(0 8.933)" fill="#b492f4"/>
                  </g>
                </g>
              </g>
            </g>
            <g id="Group_70260" data-name="Group 70260" transform="translate(0 149.175)">
              <g id="Group_70255" data-name="Group 70255">
                <g id="Group_70254" data-name="Group 70254" transform="translate(0 16.002)">
                  <g id="Group_70252" data-name="Group 70252">
                    <rect id="Rectangle_27716" data-name="Rectangle 27716" width="81.775" height="3.65" fill="#b492f4"/>
                    <rect id="Rectangle_27717" data-name="Rectangle 27717" width="81.775" height="3.65" transform="translate(0 8.933)" fill="#b492f4"/>
                  </g>
                  <g id="Group_70253" data-name="Group 70253" transform="translate(0 17.866)">
                    <rect id="Rectangle_27718" data-name="Rectangle 27718" width="81.775" height="3.649" fill="#b492f4"/>
                    <rect id="Rectangle_27719" data-name="Rectangle 27719" width="81.775" height="3.65" transform="translate(0 8.932)" fill="#b492f4"/>
                  </g>
                </g>
                <rect id="Rectangle_27720" data-name="Rectangle 27720" width="81.775" height="8.04" fill="#fff"/>
              </g>
              <g id="Group_70259" data-name="Group 70259" transform="translate(99.261)">
                <rect id="Rectangle_27721" data-name="Rectangle 27721" width="81.775" height="8.04" fill="#fff"/>
                <g id="Group_70258" data-name="Group 70258" transform="translate(0 16.002)">
                  <g id="Group_70256" data-name="Group 70256">
                    <rect id="Rectangle_27722" data-name="Rectangle 27722" width="81.775" height="3.65" fill="#b492f4"/>
                    <rect id="Rectangle_27723" data-name="Rectangle 27723" width="81.775" height="3.65" transform="translate(0 8.933)" fill="#b492f4"/>
                  </g>
                  <g id="Group_70257" data-name="Group 70257" transform="translate(0 17.866)">
                    <rect id="Rectangle_27724" data-name="Rectangle 27724" width="81.775" height="3.649" fill="#b492f4"/>
                    <rect id="Rectangle_27725" data-name="Rectangle 27725" width="81.775" height="3.65" transform="translate(0 8.932)" fill="#b492f4"/>
                  </g>
                </g>
              </g>
            </g>
            <g id="Group_70262" data-name="Group 70262" transform="translate(0 212.003)">
              <rect id="Rectangle_27726" data-name="Rectangle 27726" width="83.372" height="83.372" fill="#fff"/>
              <g id="Group_70261" data-name="Group 70261" transform="translate(11.131 28.193)" opacity="0.4">
                <path id="Path_50928" data-name="Path 50928" d="M123.874,298.846l16.152,21.314,8.851-11.684,13.6,17.95H102.969Z" transform="translate(-102.969 -298.846)" fill="#9ec7ef"/>
                <path id="Path_50929" data-name="Path 50929" d="M124.042,303.064a3.313,3.313,0,1,0,3.309-3.317A3.314,3.314,0,0,0,124.042,303.064Z" transform="translate(-89.296 -298.261)" fill="#9ec7ef"/>
              </g>
            </g>
          </g>
          <g id="Group_70271" data-name="Group 70271" transform="translate(99.261 212.003)">
            <rect id="Rectangle_27727" data-name="Rectangle 27727" width="81.775" height="8.04" fill="#fff"/>
            <g id="Group_70270" data-name="Group 70270" transform="translate(0 16.002)">
              <g id="Group_70266" data-name="Group 70266">
                <g id="Group_70264" data-name="Group 70264">
                  <rect id="Rectangle_27728" data-name="Rectangle 27728" width="81.775" height="3.65" fill="#b492f4"/>
                  <rect id="Rectangle_27729" data-name="Rectangle 27729" width="81.775" height="3.65" transform="translate(0 8.933)" fill="#b492f4"/>
                </g>
                <g id="Group_70265" data-name="Group 70265" transform="translate(0 17.865)">
                  <rect id="Rectangle_27730" data-name="Rectangle 27730" width="81.775" height="3.65" fill="#b492f4"/>
                  <rect id="Rectangle_27731" data-name="Rectangle 27731" width="81.775" height="3.65" transform="translate(0 8.933)" fill="#b492f4"/>
                </g>
              </g>
              <g id="Group_70269" data-name="Group 70269" transform="translate(0 35.732)">
                <g id="Group_70267" data-name="Group 70267">
                  <rect id="Rectangle_27732" data-name="Rectangle 27732" width="81.775" height="3.65" fill="#b492f4"/>
                  <rect id="Rectangle_27733" data-name="Rectangle 27733" width="81.775" height="3.65" transform="translate(0 8.932)" fill="#b492f4"/>
                </g>
                <g id="Group_70268" data-name="Group 70268" transform="translate(0 17.865)">
                  <rect id="Rectangle_27734" data-name="Rectangle 27734" width="81.775" height="3.65" fill="#b492f4"/>
                  <rect id="Rectangle_27735" data-name="Rectangle 27735" width="81.775" height="3.649" transform="translate(0 8.933)" fill="#b492f4"/>
                </g>
              </g>
            </g>
          </g>
        </g>
      </g>
      <g id="Group_70293" data-name="Group 70293" transform="translate(150.462 161.588)">
        <g id="Group_70276" data-name="Group 70276">
          <g id="Group_70274" data-name="Group 70274" transform="translate(26.037)">
            <path id="Rectangle_27736" data-name="Rectangle 27736" d="M7.9,0H335.116a7.9,7.9,0,0,1,7.9,7.9V234.986a7.9,7.9,0,0,1-7.9,7.9H7.9a7.9,7.9,0,0,1-7.9-7.9V7.9A7.9,7.9,0,0,1,7.9,0Z" fill="#4d7ac1"/>
            <rect id="Rectangle_27737" data-name="Rectangle 27737" width="317.949" height="211.217" transform="translate(12.532 15.834)" fill="#223d94"/>
          </g>
          <g id="Group_70275" data-name="Group 70275" transform="translate(0 227.112)">
            <path id="Path_50930" data-name="Path 50930" d="M169.7,355.272v13.595a15.052,15.052,0,0,0,15.008,15.006H549.784a15.053,15.053,0,0,0,15.009-15.006V355.272Z" transform="translate(-169.702 -355.272)" fill="#5ba1f4"/>
            <path id="Path_50931" data-name="Path 50931" d="M249,355.272v4.6a5.087,5.087,0,0,0,5.072,5.075H377.521a5.089,5.089,0,0,0,5.075-5.075v-4.6Z" transform="translate(-118.251 -355.272)" fill="#8dc6ff"/>
          </g>
        </g>
        <g id="Group_70292" data-name="Group 70292" transform="translate(51.966 30.025)">
          <g id="Group_70281" data-name="Group 70281">
            <g id="Group_70277" data-name="Group 70277">
              <rect id="Rectangle_27738" data-name="Rectangle 27738" width="65.953" height="4.946" fill="#9ec7ef"/>
              <rect id="Rectangle_27739" data-name="Rectangle 27739" width="146.196" height="4.946" transform="translate(90.135)" fill="#dcc5f9"/>
            </g>
            <g id="Group_70278" data-name="Group 70278" transform="translate(0 16.488)">
              <rect id="Rectangle_27740" data-name="Rectangle 27740" width="45.554" height="4.946" fill="#9ec7ef"/>
              <rect id="Rectangle_27741" data-name="Rectangle 27741" width="100.978" height="4.946" transform="translate(62.256)" fill="#dcc5f9"/>
            </g>
            <g id="Group_70279" data-name="Group 70279" transform="translate(0 32.976)">
              <rect id="Rectangle_27742" data-name="Rectangle 27742" width="49.848" height="4.946" fill="#9ec7ef"/>
              <rect id="Rectangle_27743" data-name="Rectangle 27743" width="110.497" height="4.946" transform="translate(68.125)" fill="#dcc5f9"/>
            </g>
            <g id="Group_70280" data-name="Group 70280" transform="translate(0 49.465)">
              <rect id="Rectangle_27744" data-name="Rectangle 27744" width="29.874" height="4.946" fill="#9ec7ef"/>
              <rect id="Rectangle_27745" data-name="Rectangle 27745" width="182.862" height="4.946" transform="translate(40.828)" fill="#dcc5f9"/>
            </g>
          </g>
          <g id="Group_70286" data-name="Group 70286" transform="translate(0 65.953)">
            <g id="Group_70282" data-name="Group 70282">
              <rect id="Rectangle_27746" data-name="Rectangle 27746" width="65.953" height="4.946" fill="#9ec7ef"/>
              <rect id="Rectangle_27747" data-name="Rectangle 27747" width="146.196" height="4.946" transform="translate(90.135)" fill="#dcc5f9"/>
            </g>
            <g id="Group_70283" data-name="Group 70283" transform="translate(0 16.488)">
              <rect id="Rectangle_27748" data-name="Rectangle 27748" width="45.554" height="4.946" fill="#9ec7ef"/>
              <rect id="Rectangle_27749" data-name="Rectangle 27749" width="100.978" height="4.946" transform="translate(62.256)" fill="#dcc5f9"/>
            </g>
            <g id="Group_70284" data-name="Group 70284" transform="translate(0 32.976)">
              <rect id="Rectangle_27750" data-name="Rectangle 27750" width="56.751" height="4.946" fill="#9ec7ef"/>
              <rect id="Rectangle_27751" data-name="Rectangle 27751" width="125.797" height="4.946" transform="translate(77.557)" fill="#dcc5f9"/>
            </g>
            <g id="Group_70285" data-name="Group 70285" transform="translate(0 49.465)">
              <rect id="Rectangle_27752" data-name="Rectangle 27752" width="29.874" height="4.946" fill="#9ec7ef"/>
              <rect id="Rectangle_27753" data-name="Rectangle 27753" width="182.862" height="4.946" transform="translate(40.828)" fill="#dcc5f9"/>
            </g>
          </g>
          <g id="Group_70291" data-name="Group 70291" transform="translate(0 131.906)">
            <g id="Group_70287" data-name="Group 70287">
              <rect id="Rectangle_27754" data-name="Rectangle 27754" width="71.627" height="4.946" fill="#9ec7ef"/>
              <rect id="Rectangle_27755" data-name="Rectangle 27755" width="158.777" height="4.946" transform="translate(97.891)" fill="#dcc5f9"/>
            </g>
            <g id="Group_70288" data-name="Group 70288" transform="translate(0 16.488)">
              <rect id="Rectangle_27756" data-name="Rectangle 27756" width="61.198" height="4.946" fill="#9ec7ef"/>
              <rect id="Rectangle_27757" data-name="Rectangle 27757" width="135.658" height="4.946" transform="translate(83.636)" fill="#dcc5f9"/>
            </g>
            <g id="Group_70289" data-name="Group 70289" transform="translate(0 32.976)">
              <rect id="Rectangle_27758" data-name="Rectangle 27758" width="54.137" height="4.946" fill="#9ec7ef"/>
              <rect id="Rectangle_27759" data-name="Rectangle 27759" width="120.007" height="4.946" transform="translate(73.986)" fill="#dcc5f9"/>
            </g>
            <g id="Group_70290" data-name="Group 70290" transform="translate(0 49.465)">
              <rect id="Rectangle_27760" data-name="Rectangle 27760" width="32.445" height="4.946" fill="#9ec7ef"/>
              <rect id="Rectangle_27761" data-name="Rectangle 27761" width="198.597" height="4.946" transform="translate(44.341)" fill="#dcc5f9"/>
            </g>
          </g>
        </g>
      </g>
      <path id="Path_50932" data-name="Path 50932" d="M481.533,337.092V319.4h-9.576a53.977,53.977,0,0,0-9.439-22.777l6.773-6.777-12.508-12.508-6.775,6.775a54,54,0,0,0-22.78-9.444v-9.573H409.536v9.573a53.974,53.974,0,0,0-22.777,9.444l-6.775-6.775-12.511,12.508,6.775,6.777a53.96,53.96,0,0,0-9.441,22.777H355.23v17.694h9.576a54,54,0,0,0,9.443,22.777l-6.777,6.777,12.511,12.51,6.775-6.777a53.987,53.987,0,0,0,22.777,9.443V391.4h17.692v-9.575A53.97,53.97,0,0,0,450,372.378l6.778,6.777,12.51-12.51-6.777-6.778a53.981,53.981,0,0,0,9.441-22.775Zm-63.152,27.552a36.4,36.4,0,1,1,36.4-36.4A36.4,36.4,0,0,1,418.382,364.643Z" transform="translate(101.135 -25.082)" fill="#a6d7ff"/>
      <path id="Path_50933" data-name="Path 50933" d="M340.526,262.556V238.915H327.732a72.158,72.158,0,0,0-12.615-30.436l9.052-9.054L307.456,182.71l-9.055,9.055a72.143,72.143,0,0,0-30.437-12.62V166.352H244.324v12.793a72.152,72.152,0,0,0-30.437,12.62l-9.052-9.055-16.716,16.716,9.054,9.054a72.142,72.142,0,0,0-12.618,30.436H171.761v23.641h12.793a72.175,72.175,0,0,0,12.618,30.436l-9.054,9.054,16.716,16.716,9.054-9.054a72.161,72.161,0,0,0,30.436,12.617v12.795h23.639V322.324A72.137,72.137,0,0,0,298.4,309.707l9.059,9.054,16.714-16.716-9.055-9.054a72.152,72.152,0,0,0,12.617-30.436Zm-84.384,36.815a48.637,48.637,0,1,1,48.637-48.635A48.636,48.636,0,0,1,256.143,299.371Z" transform="translate(-17.905 -89.148)" fill="#a6d7ff"/>
      <path id="Path_50934" data-name="Path 50934" d="M407.687,201.233V185.618h-8.45a47.607,47.607,0,0,0-8.331-20.1l5.979-5.979L385.845,148.5l-5.979,5.98a47.642,47.642,0,0,0-20.1-8.335v-8.45H344.15v8.45a47.626,47.626,0,0,0-20.1,8.335l-5.979-5.98-11.042,11.041,5.977,5.979a47.646,47.646,0,0,0-8.33,20.1h-8.45v15.614h8.45a47.672,47.672,0,0,0,8.332,20.1l-5.979,5.98,11.042,11.039,5.979-5.98a47.6,47.6,0,0,0,20.1,8.333v8.452h15.614v-8.452a47.6,47.6,0,0,0,20.1-8.333l5.982,5.98,11.041-11.039-5.982-5.982a47.6,47.6,0,0,0,8.333-20.1Zm-55.732,24.315a32.124,32.124,0,1,1,32.124-32.124A32.123,32.123,0,0,1,351.955,225.548Z" transform="translate(62.851 -107.743)" fill="#a6d7ff"/>
    </g>
  </g>
</svg>
