<svg xmlns="http://www.w3.org/2000/svg" width="42.065" height="45.259" viewBox="0 0 42.065 45.259">
  <path id="Path_13762" data-name="Path 13762" d="M426.032,247.307a.644.644,0,0,1,.023.177V257.2a.7.7,0,0,1-.342.614l-7.794,4.7v9.3a.714.714,0,0,1-.346.615l-16.283,9.8a.8.8,0,0,1-.119.05c-.015,0-.028.018-.046.022a.666.666,0,0,1-.345,0c-.019,0-.035-.018-.053-.023a.62.62,0,0,1-.111-.048l-16.28-9.8a.712.712,0,0,1-.345-.615V242.67a.709.709,0,0,1,.026-.185c0-.021.016-.039.023-.06a.7.7,0,0,1,.041-.11c.016-.021.031-.042.048-.062a.5.5,0,0,1,.061-.083.674.674,0,0,1,.066-.052.543.543,0,0,1,.079-.063l8.136-4.9a.658.658,0,0,1,.68,0l8.14,4.9a.458.458,0,0,1,.073.061.667.667,0,0,1,.066.052c.021.026.042.055.061.083a.613.613,0,0,1,.047.064.675.675,0,0,1,.044.111c0,.019.02.038.024.059a.722.722,0,0,1,.024.177v18.211l6.784-4.083v-9.308a.725.725,0,0,1,.023-.177c0-.021.018-.039.025-.06a.743.743,0,0,1,.043-.11.705.705,0,0,1,.048-.064.427.427,0,0,1,.06-.083c.021-.019.042-.037.064-.053a.657.657,0,0,1,.074-.063l8.144-4.9a.65.65,0,0,1,.678,0l8.14,4.9a.725.725,0,0,1,.075.061.614.614,0,0,1,.067.053.753.753,0,0,1,.061.083c.016.02.031.042.047.064a.8.8,0,0,1,.044.109.421.421,0,0,1,.024.06ZM424.7,256.8V248.72l-2.849,1.714-3.932,2.362v8.08l6.784-4.083ZM416.556,271.4v-8.082l-3.871,2.308-11.053,6.595v8.158ZM385.35,243.9V271.4l14.925,8.979V272.23l-7.8-4.61-.138-.109c-.019-.023-.037-.048-.056-.074s-.034-.045-.05-.068a.433.433,0,0,1-.036-.091.341.341,0,0,1-.033-.077.8.8,0,0,1-.014-.1.564.564,0,0,1-.011-.081V247.981L388.2,245.61,385.35,243.9Zm7.462-5.3-6.782,4.072,6.781,4.081,6.781-4.081-6.781-4.079Zm3.528,25.46,3.935-2.368V243.9l-2.851,1.715-3.934,2.369v17.792Zm20.889-20.652-6.774,4.078,6.774,4.084,6.788-4.084Zm-.673,9.39-3.935-2.369-2.849-1.707v8.08l3.936,2.368,2.848,1.716ZM400.951,271l9.948-5.939,4.975-2.964-6.778-4.077-7.8,4.693L394.182,267Z" transform="translate(-383.991 -237.063)" fill="#e71d1f"/>
</svg>
