<svg xmlns="http://www.w3.org/2000/svg" width="24.425" height="25.623"  xmlns:v="https://vecta.io/nano"><path d="M24.412 5.8a.413.413 0 0 1 .014.1v5.5a.4.4 0 0 1-.2.348L19.7 14.407v5.268a.4.4 0 0 1-.2.348l-9.455 5.547a.419.419 0 0 1-.069.029c-.009 0-.017.009-.027.011a.389.389 0 0 1-.2 0c-.011 0-.021-.009-.031-.013a.405.405 0 0 1-.065-.027L.2 20.023a.4.4 0 0 1-.2-.348v-16.5a.417.417 0 0 1 .014-.105c0-.012.01-.022.014-.034a.4.4 0 0 1 .025-.062.374.374 0 0 1 .027-.035.408.408 0 0 1 .035-.047.385.385 0 0 1 .039-.03.322.322 0 0 1 .046-.035h0L4.925.054a.388.388 0 0 1 .394 0l4.727 2.774h0a.483.483 0 0 1 .043.034.467.467 0 0 1 .038.03.468.468 0 0 1 .035.047.369.369 0 0 1 .027.036.423.423 0 0 1 .026.062c0 .012.011.022.014.034a.413.413 0 0 1 .014.1v10.31l3.939-2.311V5.9a.413.413 0 0 1 .014-.1c0-.012.01-.023.014-.034a.457.457 0 0 1 .026-.062c.007-.013.018-.024.027-.036a.412.412 0 0 1 .035-.047.379.379 0 0 1 .038-.03.4.4 0 0 1 .043-.035h0l4.728-2.776a.388.388 0 0 1 .394 0l4.727 2.774a.436.436 0 0 1 .044.034c.012.01.027.019.038.03a.468.468 0 0 1 .035.047.3.3 0 0 1 .027.036.4.4 0 0 1 .026.062.29.29 0 0 1 .014.034zm-.774 5.373V6.6l-1.654.97L19.7 8.907v4.574l3.94-2.311zm-4.728 8.27v-4.577l-2.248 1.308-6.419 3.733v4.62zM.788 3.869v15.574l8.667 5.084v-4.618L4.927 17.3h0a18.881 18.881 0 0 0-.08-.062h0a.381.381 0 0 1-.032-.042.428.428 0 0 1-.03-.039h0a.323.323 0 0 1-.021-.05.3.3 0 0 1-.019-.045h0a.39.39 0 0 1-.008-.059.354.354 0 0 1-.006-.045V6.181L2.442 4.839.788 3.87zm4.334-3L1.183 3.175l3.938 2.31 3.938-2.31L5.121.865zM7.17 15.283l2.285-1.34V3.869L7.8 4.84 5.515 6.181v10.073zM19.3 3.591L15.366 5.9 19.3 8.212 23.242 5.9zm-.39 5.316l-2.285-1.341L14.97 6.6v4.574l2.285 1.34 1.655.971zM9.848 19.214l5.777-3.361 2.888-1.679-3.935-2.309-4.531 2.658-4.13 2.423z" fill="#ff2d20"/></svg>