<svg xmlns="http://www.w3.org/2000/svg" width="161" height="141.965" viewBox="0 0 161 141.965">
  <g id="left-quote" transform="translate(0 -7.328)">
    <path id="Path_51353" data-name="Path 51353" d="M64.68,35.517a7.741,7.741,0,0,0,3.9-10.39L62.212,11.749A7.765,7.765,0,0,0,52.082,7.984,89.479,89.479,0,0,0,24.028,26.167,67.861,67.861,0,0,0,5.2,55.908C1.818,67.079,0,82.274,0,101.626V141.5a7.816,7.816,0,0,0,7.793,7.793H58.836a7.816,7.816,0,0,0,7.793-7.793V90.456a7.815,7.815,0,0,0-7.793-7.793H34.418C34.678,69.544,37.8,59.025,43.51,51.1,48.185,44.74,55.2,39.545,64.68,35.517Z" transform="translate(0 0)" fill="#ebf9ff"/>
    <path id="Path_51354" data-name="Path 51354" d="M135.25,35.487a7.742,7.742,0,0,0,3.9-10.39L132.783,11.85a7.765,7.765,0,0,0-10.131-3.767A94.083,94.083,0,0,0,94.728,26.137C85.5,34.969,79.142,44.97,75.764,56.009Q70.7,72.372,70.7,101.6V141.47a7.816,7.816,0,0,0,7.793,7.793h51.043a7.816,7.816,0,0,0,7.793-7.793V90.427a7.815,7.815,0,0,0-7.793-7.793H104.988c.26-13.119,3.378-23.638,9.092-31.562C118.755,44.71,125.769,39.515,135.25,35.487Z" transform="translate(21.125 0.03)" fill="#ebf9ff"/>
  </g>
</svg>
