<svg xmlns="http://www.w3.org/2000/svg" width="25" height="25" viewBox="0 0 25 25">
  <path id="Union_21" data-name="Union 21" d="M2608.69,1590.35a12.167,12.167,0,0,1-3.687-8.945,11.955,11.955,0,0,1,3.687-8.756,12.267,12.267,0,0,1,8.93-3.648,11.867,11.867,0,0,1,8.75,3.712,12.362,12.362,0,0,1,3.63,8.933,12.447,12.447,0,0,1-12.38,12.352l-.207,0A12.264,12.264,0,0,1,2608.69,1590.35Zm4.367-13.474a6.045,6.045,0,0,0-1.88,4.531,6.438,6.438,0,0,0,1.865,4.7,6.358,6.358,0,0,0,4.674,1.877,5.722,5.722,0,0,0,4.26-1.9,6.121,6.121,0,0,0,1.847-4.444,6.539,6.539,0,0,0-1.831-4.72,5.774,5.774,0,0,0-4.371-1.905h-.131A6.217,6.217,0,0,0,2613.056,1576.877Zm.662,4.6a3.782,3.782,0,1,1,3.783,3.783A3.783,3.783,0,0,1,2613.718,1581.478Z" transform="translate(-2605 -1569)" fill="#06b2ff"/>
</svg>
