<svg xmlns="http://www.w3.org/2000/svg" width="14.031" height="14" viewBox="0 0 14.031 14">
  <g id="XMLID_801_" transform="translate(0 -0.341)">
    <path id="XMLID_802_" d="M7.97,99.73H5.153a.226.226,0,0,0-.226.226v9.049a.226.226,0,0,0,.226.226H7.97a.226.226,0,0,0,.226-.226V99.956A.226.226,0,0,0,7.97,99.73Z" transform="translate(-4.704 -94.89)" fill="#06b2ff"/>
    <path id="XMLID_803_" d="M1.859.341A1.857,1.857,0,1,0,3.716,2.2,1.86,1.86,0,0,0,1.859.341Z" transform="translate(0 0)" fill="#06b2ff"/>
    <path id="XMLID_804_" d="M111.8,94.761a3.308,3.308,0,0,0-2.475,1.039v-.588a.226.226,0,0,0-.226-.226h-2.7a.226.226,0,0,0-.226.226v9.049a.226.226,0,0,0,.226.226h2.811a.226.226,0,0,0,.226-.226V99.784c0-1.509.41-2.1,1.462-2.1,1.145,0,1.236.942,1.236,2.174v4.4a.226.226,0,0,0,.226.226h2.812a.226.226,0,0,0,.226-.226V99.3C115.4,97.054,114.974,94.761,111.8,94.761Z" transform="translate(-101.37 -90.146)" fill="#06b2ff"/>
  </g>
</svg>
