<svg id="Group_18881" data-name="Group 18881" xmlns="http://www.w3.org/2000/svg" width="15.083" height="14.995" viewBox="0 0 15.083 14.995">
  <g id="Group_6456" data-name="Group 6456" transform="translate(0 0)">
    <g id="Group_17482" data-name="Group 17482">
      <path id="Path_2269" data-name="Path 2269" d="M116.156,7.647a7.423,7.423,0,0,0-5.388,2.188,7.148,7.148,0,0,0-2.225,5.252,7.277,7.277,0,0,0,2.225,5.365,7.42,7.42,0,0,0,5.388,2.188,7.487,7.487,0,0,0,7.469-7.409,7.392,7.392,0,0,0-2.19-5.358A7.179,7.179,0,0,0,116.156,7.647ZM113.4,12.371a3.761,3.761,0,0,1,2.753-1.114,3.493,3.493,0,0,1,2.638,1.143,3.911,3.911,0,0,1,1.1,2.832,3.661,3.661,0,0,1-1.114,2.666,3.461,3.461,0,0,1-2.57,1.139,3.848,3.848,0,0,1-3.945-3.946,3.617,3.617,0,0,1,1.135-2.718Z" transform="translate(-108.542 -7.646)" fill="#617392"/>
      <path id="Path_2270" data-name="Path 2270" d="M120.264,17.023a2.282,2.282,0,1,1-2.282-2.282A2.282,2.282,0,0,1,120.264,17.023Z" transform="translate(-110.44 -9.525)" fill="#617392"/>
    </g>
  </g>
</svg>
