<svg xmlns="http://www.w3.org/2000/svg" width="37.382" height="38.853"  fill="#19c0ff" xmlns:v="https://vecta.io/nano"><path d="M26.375 38.853H4.548C2.036 38.849.002 36.812 0 34.3V18.82c.002-2.512 2.036-4.549 4.548-4.553h2.725v-6.24a8.19 8.19 0 0 1 8.186-8.059 8.19 8.19 0 0 1 8.186 8.059v6.24h2.731c2.512.004 4.546 2.041 4.548 4.553v5.534h-3.032V18.82a1.52 1.52 0 0 0-1.517-1.52H4.548a1.52 1.52 0 0 0-1.516 1.52V34.3a1.52 1.52 0 0 0 1.516 1.517h21.827a1.51 1.51 0 0 0 1.28-.705h3.2c-.39 2.168-2.277 3.744-4.48 3.741zM15.459 3.036a5.08 5.08 0 0 0-5.153 4.991v6.24h10.307v-6.24a5.08 5.08 0 0 0-5.154-4.991zm0 28.684a1.52 1.52 0 0 1-1.516-1.52v-3.329a2.8 2.8 0 0 1 1.516-5.154 2.8 2.8 0 0 1 1.516 5.154V30.2a1.52 1.52 0 0 1-1.516 1.52z"/><circle cx="35.229" cy="29.432" r="2.153"/><circle cx="26.618" cy="29.432" r="2.153"/></svg>