<svg xmlns="http://www.w3.org/2000/svg" width="100.682" height="43.081" viewBox="0 0 100.682 43.081"><defs><style>.a{fill:#fff;stroke:rgba(0,0,0,0);stroke-miterlimit:10;}</style></defs><g transform="translate(0.5 0.5)"><path class="a" d="M17.315,29.144,20.7,27.917a16.345,16.345,0,0,0,30.549.135l3.38,1.254a19.968,19.968,0,0,1-37.316-.162ZM31.79,28.114a5.6,5.6,0,0,1-2.307-2.326l2.988-1.7a1.325,1.325,0,0,1,.118.125,4.4,4.4,0,0,0,5.632,1.271A2.976,2.976,0,0,0,39.7,22.9c.029-.535,0-1.07,0-1.609-.047-.047-.094-.092-.145-.139a.9.9,0,0,1-.122.313,5.011,5.011,0,0,1-3.518,1.73,6.834,6.834,0,0,1-7.454-7.064,6.792,6.792,0,0,1,5.188-6.654,5.563,5.563,0,0,1,5.915,1.684.7.7,0,0,0,.135.09V9.679H43.18v.428q0,6.167,0,12.336a6.557,6.557,0,0,1-.98,3.738,6.309,6.309,0,0,1-3.981,2.658,10.317,10.317,0,0,1-2.391.291A8.41,8.41,0,0,1,31.79,28.114Zm.219-11.877a3.658,3.658,0,0,0,3.813,3.738,3.726,3.726,0,1,0,.038-7.445A3.674,3.674,0,0,0,32.009,16.237ZM87.345,28.726V25.489c.332-.039.652-.055.968-.105a3.237,3.237,0,0,0,2.567-2.441.782.782,0,0,0-.1-.463Q88.14,16.292,85.5,10.114l-.189-.463c1.271,0,2.483-.01,3.7.012.1,0,.244.2.3.324q1.642,4.181,3.274,8.367c.043.119.1.229.181.42.4-1.193.771-2.3,1.142-3.416C94.5,13.573,95.1,11.792,95.683,10c.08-.254.181-.371.476-.367,1.119.025,2.243.014,3.4.014-.024.113-.037.2-.062.273-1.688,4.586-3.362,9.18-5.072,13.764a8.342,8.342,0,0,1-2.517,3.721,6.184,6.184,0,0,1-4.045,1.334C87.694,28.743,87.521,28.739,87.345,28.726ZM67.8,22.923a13.193,13.193,0,0,1-1.465-1.113v1.439H62.811V4.218h3.522v6.9a13.313,13.313,0,0,1,1.448-1.1,6.44,6.44,0,0,1,7.782,1.373,7.6,7.6,0,0,1-.4,10.553,6.554,6.554,0,0,1-4.441,1.732A5.925,5.925,0,0,1,67.8,22.923Zm-1.465-6.449a3.81,3.81,0,1,0,7.619-.037,3.7,3.7,0,0,0-3.818-3.822h-.017A3.68,3.68,0,0,0,66.333,16.474ZM52.919,23.663a7.31,7.31,0,1,1,.021,0Zm-3.683-7.189a3.73,3.73,0,1,0,7.459-.021A3.654,3.654,0,0,0,52.974,12.7h-.042A3.643,3.643,0,0,0,49.236,16.474Zm-29.9,7.189h-.008a7.2,7.2,0,1,1,.033-14.391,7.2,7.2,0,1,1-.021,14.391Zm-3.7-7.148a3.619,3.619,0,0,0,3.838,3.7,3.632,3.632,0,0,0,3.616-3.807,3.647,3.647,0,0,0-3.68-3.709h-.125A3.637,3.637,0,0,0,15.637,16.515ZM0,23.284V4.208H3.788V19.655h7.337v3.629Zm80.013-.029V3.368h3.569c-.009.15-.018.3-.018.457q-.006,9.457,0,18.912v.518ZM47.569,6.069,44.9,3.548a10.593,10.593,0,0,1,15.821,0L58.045,6.069A6.97,6.97,0,0,0,47.569,6.069Zm-33.667,0L11.229,3.548a10.593,10.593,0,0,1,15.821,0L24.378,6.069A6.97,6.97,0,0,0,13.9,6.069Z"/></g></svg>