<svg xmlns="http://www.w3.org/2000/svg" width="34.026" height="32.23" viewBox="0 0 34.026 32.23"><defs><style>.a{fill:#fff;}</style></defs><path class="a" d="M0,32.23V25.158H2.853a9.047,9.047,0,0,0,8.2-5.244l5.207,5.135A16.121,16.121,0,0,1,2.853,32.23Zm23.5-.055L18.25,27a18.771,18.771,0,0,0,1.188-1.9h4.777a2.738,2.738,0,0,0,0-5.477H21.391a18.927,18.927,0,0,0,.329-3.512,18.755,18.755,0,0,0-.343-3.564h2.834a2.739,2.739,0,0,0,0-5.479h-4.8A19.079,19.079,0,0,0,12.654,0H24.211A9.806,9.806,0,0,1,31.75,16.088a9.79,9.79,0,0,1,2.276,6.277c0,.3-.022.586-.041.873h0a9.817,9.817,0,0,1-9.765,8.938Zm-10.767,0A18.869,18.869,0,0,0,18.245,27L23.5,32.176ZM11.059,19.914a9.042,9.042,0,0,0-8.2-12.842H0V0H2.856A16.132,16.132,0,0,1,18.972,16.115a16.014,16.014,0,0,1-2.711,8.93Z"/></svg>