<svg xmlns="http://www.w3.org/2000/svg" xmlns:xlink="http://www.w3.org/1999/xlink" width="175" height="38" viewBox="0 0 175 38">
  <defs>
    <clipPath id="clip-Artboard_6">
      <rect width="175" height="38"/>
    </clipPath>
  </defs>
  <g id="Artboard_6" data-name="Artboard – 6" clip-path="url(#clip-Artboard_6)">
    <g id="Group_6457" data-name="Group 6457" transform="translate(2 1)">
      <path id="Path_2260" data-name="Path 2260" d="M86.958,7.032a3.373,3.373,0,0,0,2.469-1.025,3.419,3.419,0,0,0,1.024-2.513,3.376,3.376,0,0,0-1.024-2.469A3.386,3.386,0,0,0,86.958,0a3.446,3.446,0,0,0-2.517,1.025,3.382,3.382,0,0,0-1.022,2.469,3.5,3.5,0,0,0,3.539,3.538Z" fill="#fff"/>
      <path id="Path_2261" data-name="Path 2261" d="M164.852,10.4a9.027,9.027,0,0,0-6.834-2.75,9.157,9.157,0,0,0-6.945,2.773,10.036,10.036,0,0,0-2.606,7.166V29.645H153.9V18.539c0-4.93,2.325-5.5,4.075-5.5a3.447,3.447,0,0,1,2.944,1.269,6.469,6.469,0,0,1,1.087,4.057V29.645h5.431v-12.1A10.015,10.015,0,0,0,164.852,10.4Z" fill="#fff"/>
      <path id="Path_2262" data-name="Path 2262" d="M61.827,9.917a10.733,10.733,0,0,0-6.773-2.265l-.1,0a10.633,10.633,0,0,0-6.678,2.265,11.941,11.941,0,0,0-1.172,1,10.668,10.668,0,0,0-3.321,7.841A10.86,10.86,0,0,0,47.1,26.767a11.084,11.084,0,0,0,8.045,3.267,10.78,10.78,0,0,0,7.876-3.273,11.083,11.083,0,0,0,2.626-4.071l.246-.677H59.835l-.15.208a6.89,6.89,0,0,1-.617.731,5.168,5.168,0,0,1-3.837,1.7,5.656,5.656,0,0,1-4.21-1.683,5.533,5.533,0,0,1-1.174-1.679H66.029l.076-.414a11.182,11.182,0,0,0,.212-2.116A10.668,10.668,0,0,0,63,10.917,11.727,11.727,0,0,0,61.827,9.917ZM51.094,13.97l.416.312a5.673,5.673,0,0,1,7.111.025l.334-.379-.248.456c.127.114.253.231.375.36A5.829,5.829,0,0,1,60.208,16.4H49.889a5.777,5.777,0,0,1,1.125-1.654c.123-.129.248-.246.359-.346l-.279-.428Z" fill="#fff"/>
      <path id="Path_2263" data-name="Path 2263" d="M7,12.317a3.991,3.991,0,0,1,2.455-.628,4.2,4.2,0,0,1,2.632.738,2.781,2.781,0,0,1,1.052,1.959l.123.938h5.865l-.131-1.2a8.123,8.123,0,0,0-3.029-5.77,10.217,10.217,0,0,0-6.467-2A9.849,9.849,0,0,0,2.9,8.476a7.06,7.06,0,0,0-2.55,5.589A5.624,5.624,0,0,0,1.435,17.53l.065.09a3.844,3.844,0,0,0,.369.449,9.147,9.147,0,0,0,3.394,2.158,21.412,21.412,0,0,0,2.95.877l.195.065a14.254,14.254,0,0,1,3.555,1.2c.746.4.848.814.848,1.159a1.642,1.642,0,0,1-.684,1.391,4,4,0,0,1-2.454.629,4.185,4.185,0,0,1-2.632-.74A2.777,2.777,0,0,1,5.988,22.85l-.122-.937H0l.131,1.193A8.146,8.146,0,0,0,3.16,28.88a10.241,10.241,0,0,0,6.467,2,9.844,9.844,0,0,0,6.594-2.117,7.054,7.054,0,0,0,2.55-5.59A5.648,5.648,0,0,0,17.685,19.7l-.444.33.371-.43a3.785,3.785,0,0,0-.36-.436,9.2,9.2,0,0,0-3.392-2.157,23.5,23.5,0,0,0-2.9-.869l-.241-.072a14.1,14.1,0,0,1-3.557-1.2c-.745-.4-.846-.812-.846-1.161A1.641,1.641,0,0,1,7,12.317Z" fill="#fff"/>
      <path id="Path_2264" data-name="Path 2264" d="M84.285,25.11c.076,1.221.706,4.1,4.873,4.532l.558.059V7.994H84.284Z" fill="#fff"/>
      <path id="Path_2265" data-name="Path 2265" d="M74.081,9.559V8.039H68.649v17.2c.052.956.557,4.1,4.89,4.407l.542.041v-9.93c0-2.462.483-4.26,1.439-5.34.925-1.049,2.466-1.58,4.581-1.58H81.78V7.605H79.5A7.755,7.755,0,0,0,74.081,9.559Z" fill="#fff"/>
      <path id="Path_2266" data-name="Path 2266" d="M147.356,7.605h-2.284a7.757,7.757,0,0,0-5.414,1.954V8.039h-5.432v17.2c.05.956.556,4.1,4.889,4.407l.542.041v-9.93c0-2.462.484-4.26,1.439-5.34.924-1.049,2.466-1.58,4.582-1.58h1.677Z" fill="#fff"/>
      <path id="Path_2267" data-name="Path 2267" d="M31.657,7.768a10.74,10.74,0,0,0-7.8,3.168,10.319,10.319,0,0,0-3.181,6.793h-.039l.008,13.948a6.3,6.3,0,0,0,5.127,4.782l.6.112v-8.4a10.943,10.943,0,0,0,5.283,1.293A10.833,10.833,0,0,0,42.465,18.745,10.707,10.707,0,0,0,39.3,10.986,10.392,10.392,0,0,0,31.657,7.768ZM26.374,18.193a4.889,4.889,0,0,1,1.519-3.359,5.139,5.139,0,0,1,3.759-1.524,4.759,4.759,0,0,1,3.6,1.562,5.33,5.33,0,0,1,1.509,3.867,4.993,4.993,0,0,1-1.522,3.64,4.72,4.72,0,0,1-3.507,1.547,5.168,5.168,0,0,1-3.849-1.536A5.09,5.09,0,0,1,26.374,18.9Z" fill="#fff"/>
      <path id="Path_2268" data-name="Path 2268" d="M102.264,24.32a5.766,5.766,0,0,1-4.83-5.7,5.826,5.826,0,0,1,5.715-5.786c.8-.076,2.04-.105,3.859-.08l.511.007V7.773h-4.295a10.845,10.845,0,1,0,0,21.689h4.295V24.515l-.511.005A20.443,20.443,0,0,1,102.264,24.32Z" fill="#fff"/>
      <g id="Group_6456" data-name="Group 6456">
        <path id="Path_2269" data-name="Path 2269" d="M119.91,7.648a11.083,11.083,0,0,0-8.044,3.267,10.673,10.673,0,0,0-3.322,7.841,10.865,10.865,0,0,0,3.322,8.011,11.079,11.079,0,0,0,8.044,3.267,10.779,10.779,0,0,0,7.877-3.273,10.682,10.682,0,0,0,3.275-7.789,11.037,11.037,0,0,0-3.27-8A10.719,10.719,0,0,0,119.91,7.648ZM115.8,14.7a5.616,5.616,0,0,1,4.11-1.664,5.216,5.216,0,0,1,3.938,1.706,5.839,5.839,0,0,1,1.649,4.228,5.467,5.467,0,0,1-1.664,3.98,5.168,5.168,0,0,1-3.837,1.7,5.746,5.746,0,0,1-5.89-5.892A5.4,5.4,0,0,1,115.8,14.7Z" fill="#06b2ff"/>
        <path id="Path_2270" data-name="Path 2270" d="M123.9,18.841a4.1,4.1,0,1,1-4.1-4.1A4.1,4.1,0,0,1,123.9,18.841Z" fill="#06b2ff"/>
      </g>
    </g>
  </g>
</svg>
