<svg id="logoipsum-297" xmlns="http://www.w3.org/2000/svg" width="210.154" height="41.706" viewBox="0 0 210.154 41.706">
  <path id="Path_51110" data-name="Path 51110" d="M26.646,12.184a10.427,10.427,0,0,0-5.793-1.757V0A20.853,20.853,0,1,1,0,20.853H10.427a10.427,10.427,0,1,0,16.219-8.669Z" transform="translate(0 0)" fill="#007dfc" fill-rule="evenodd"/>
  <path id="Path_51111" data-name="Path 51111" d="M10.427,0a10.427,10.427,0,0,1-.794,3.99,10.427,10.427,0,0,1-2.26,3.383A10.426,10.426,0,0,1,3.99,9.633,10.427,10.427,0,0,1,0,10.427V20.853a20.853,20.853,0,0,0,7.98-1.587,20.852,20.852,0,0,0,6.765-4.52,20.852,20.852,0,0,0,4.52-6.765A20.853,20.853,0,0,0,20.853,0Z" transform="translate(0)" fill="#007dfc" fill-rule="evenodd"/>
  <path id="Path_51112" data-name="Path 51112" d="M125.826,14.453h-5.059v16.07h5.059Z" transform="translate(5.151 0.616)" fill="#007dfc"/>
  <path id="Path_51113" data-name="Path 51113" d="M121.338,11.761a2.689,2.689,0,0,0,1.983.794,2.583,2.583,0,0,0,1.951-.794,2.825,2.825,0,0,0,.761-1.984,2.751,2.751,0,0,0-.761-1.984A2.583,2.583,0,0,0,123.321,7a2.689,2.689,0,0,0-1.983.794,2.751,2.751,0,0,0-.761,1.984A2.825,2.825,0,0,0,121.338,11.761Z" transform="translate(5.143 0.299)" fill="#007dfc"/>
  <path id="Path_51114" data-name="Path 51114" d="M51.156,30.82V7.476h5.191V26.257H66.7V30.82Z" transform="translate(2.182 0.319)" fill="#007dfc"/>
  <path id="Path_51115" data-name="Path 51115" d="M75.387,30.9a9.3,9.3,0,0,1-4.5-1.091,8.491,8.491,0,0,1-3.141-3.042,8.157,8.157,0,0,1-1.157-4.3A7.987,7.987,0,0,1,67.749,18.2a8.321,8.321,0,0,1,3.141-2.976,8.959,8.959,0,0,1,4.5-1.124,9.176,9.176,0,0,1,4.5,1.091A8.241,8.241,0,0,1,83.025,18.2a7.986,7.986,0,0,1,1.157,4.265,8.157,8.157,0,0,1-1.157,4.3,8.491,8.491,0,0,1-3.141,3.042A9.175,9.175,0,0,1,75.387,30.9Zm0-4.6a3.86,3.86,0,0,0,1.918-.463,3.241,3.241,0,0,0,1.256-1.356,4.317,4.317,0,0,0,.463-2.017,3.929,3.929,0,0,0-.463-1.951,3.241,3.241,0,0,0-1.29-1.323,3.482,3.482,0,0,0-1.885-.5,3.591,3.591,0,0,0-1.885.5,3.242,3.242,0,0,0-1.29,1.323A4.12,4.12,0,0,0,71.75,22.5a4.244,4.244,0,0,0,.463,1.984,3.468,3.468,0,0,0,1.29,1.356A3.791,3.791,0,0,0,75.387,26.3Z" transform="translate(2.84 0.602)" fill="#007dfc" fill-rule="evenodd"/>
  <path id="Path_51116" data-name="Path 51116" d="M87.437,36.818a11.07,11.07,0,0,0,4.662.926,10,10,0,0,0,4.6-1.025,7.941,7.941,0,0,0,3.174-2.844,7.836,7.836,0,0,0,1.158-4.3V14.466h-4.96v1.08a5.345,5.345,0,0,0-1.256-.782,6.636,6.636,0,0,0-2.943-.628,7.415,7.415,0,0,0-6.646,3.9,8.164,8.164,0,0,0-.992,4.034,8.284,8.284,0,0,0,.992,4.034,7.565,7.565,0,0,0,2.711,2.877,7.354,7.354,0,0,0,3.935,1.058,6.772,6.772,0,0,0,2.943-.628,5.894,5.894,0,0,0,1.157-.717v1.015a3.238,3.238,0,0,1-1.091,2.612,4.321,4.321,0,0,1-2.943.926,5.937,5.937,0,0,1-2.612-.529A6.028,6.028,0,0,1,87.4,31.164L84.3,34.272A7.491,7.491,0,0,0,87.437,36.818ZM94.645,25.08a3.431,3.431,0,0,1-1.819.463,3.608,3.608,0,0,1-1.852-.463,3.262,3.262,0,0,1-1.19-1.257,3.745,3.745,0,0,1-.43-1.752,3.687,3.687,0,0,1,.43-1.786,3.191,3.191,0,0,1,1.223-1.257,3.542,3.542,0,0,1,1.819-.463,3.431,3.431,0,0,1,1.819.463,2.971,2.971,0,0,1,1.19,1.257,3.924,3.924,0,0,1,0,3.571A3.023,3.023,0,0,1,94.645,25.08Z" transform="translate(3.593 0.603)" fill="#007dfc" fill-rule="evenodd"/>
  <path id="Path_51117" data-name="Path 51117" d="M110.911,30.9a9.294,9.294,0,0,1-4.5-1.091,8.488,8.488,0,0,1-3.142-3.042,8.157,8.157,0,0,1-1.157-4.3,7.986,7.986,0,0,1,1.157-4.265,8.318,8.318,0,0,1,3.142-2.976,8.957,8.957,0,0,1,4.5-1.124,9.173,9.173,0,0,1,4.5,1.091,8.238,8.238,0,0,1,3.142,3.009,7.986,7.986,0,0,1,1.157,4.265,8.157,8.157,0,0,1-1.157,4.3,8.488,8.488,0,0,1-3.142,3.042A9.172,9.172,0,0,1,110.911,30.9Zm0-4.6a3.861,3.861,0,0,0,1.917-.463,3.245,3.245,0,0,0,1.256-1.356,4.317,4.317,0,0,0,.463-2.017,3.929,3.929,0,0,0-.463-1.951,3.239,3.239,0,0,0-1.29-1.323,3.481,3.481,0,0,0-1.884-.5,3.59,3.59,0,0,0-1.885.5,3.239,3.239,0,0,0-1.29,1.323,4.12,4.12,0,0,0-.463,1.984,4.245,4.245,0,0,0,.463,1.984,3.465,3.465,0,0,0,1.29,1.356A3.789,3.789,0,0,0,110.911,26.3Z" transform="translate(4.356 0.602)" fill="#007dfc" fill-rule="evenodd"/>
  <path id="Path_51118" data-name="Path 51118" d="M137.66,30.866a6.994,6.994,0,0,1-2.976-.628,6.322,6.322,0,0,1-1.289-.789v7.865H128.4V14.466h5.059v1.109a6.255,6.255,0,0,1,1.223-.778,6.7,6.7,0,0,1,2.976-.661,7.52,7.52,0,0,1,6.812,4.067,8.844,8.844,0,0,1,1.025,4.3,8.844,8.844,0,0,1-1.025,4.3,7.52,7.52,0,0,1-6.812,4.067Zm-.925-4.563a3.5,3.5,0,0,0,3.174-1.852,4.049,4.049,0,0,0,.463-1.951,4.12,4.12,0,0,0-.463-1.984,3.239,3.239,0,0,0-1.29-1.323,3.418,3.418,0,0,0-1.852-.5,3.588,3.588,0,0,0-1.884.5,3.3,3.3,0,0,0-1.256,1.323,4.12,4.12,0,0,0-.463,1.984,4.3,4.3,0,0,0,.43,1.951,3.466,3.466,0,0,0,1.29,1.356A3.527,3.527,0,0,0,136.735,26.3Z" transform="translate(5.477 0.603)" fill="#007dfc" fill-rule="evenodd"/>
  <path id="Path_51119" data-name="Path 51119" d="M149.731,30.574a11.043,11.043,0,0,0,2.81.364,7.465,7.465,0,0,0,4.762-1.389,4.489,4.489,0,0,0,1.785-3.736,4.67,4.67,0,0,0-.562-2.447,4.373,4.373,0,0,0-1.455-1.521,8.686,8.686,0,0,0-1.885-.893q-.992-.331-1.884-.562a6.82,6.82,0,0,1-1.456-.529.892.892,0,0,1-.562-.794.746.746,0,0,1,.43-.694,2.5,2.5,0,0,1,1.29-.264,4.949,4.949,0,0,1,1.818.364,4.228,4.228,0,0,1,1.719,1.257l2.877-2.91a6.641,6.641,0,0,0-2.843-2.083,9.574,9.574,0,0,0-3.769-.727,8.162,8.162,0,0,0-3.405.661,5.306,5.306,0,0,0-2.249,1.819,4.527,4.527,0,0,0-.793,2.678,4.717,4.717,0,0,0,.562,2.414,4.181,4.181,0,0,0,1.454,1.455,8.449,8.449,0,0,0,1.885.827q.992.3,1.885.562a5.733,5.733,0,0,1,1.455.562.953.953,0,0,1,.6.893.806.806,0,0,1-.5.727,2.783,2.783,0,0,1-1.355.265,6.027,6.027,0,0,1-2.38-.463,5.8,5.8,0,0,1-1.885-1.356l-2.877,2.91a8.977,8.977,0,0,0,1.984,1.587A11.191,11.191,0,0,0,149.731,30.574Z" transform="translate(6.193 0.598)" fill="#007dfc"/>
  <path id="Path_51120" data-name="Path 51120" d="M167.676,30.886a8.412,8.412,0,0,1-3.934-.893A6.9,6.9,0,0,1,161.1,27.48a7.123,7.123,0,0,1-.959-3.7V14.453H165.2v9.258a3.468,3.468,0,0,0,.265,1.422,2.181,2.181,0,0,0,.859.926,2.631,2.631,0,0,0,1.355.331,2.35,2.35,0,0,0,1.786-.694,2.837,2.837,0,0,0,.661-1.984V14.453h5.059v9.291a7.188,7.188,0,0,1-.959,3.736,6.9,6.9,0,0,1-2.645,2.513A8.214,8.214,0,0,1,167.676,30.886Z" transform="translate(6.831 0.616)" fill="#007dfc"/>
  <path id="Path_51121" data-name="Path 51121" d="M182.038,14.466h-5.059v16.07h5.059V21.145a2.7,2.7,0,0,1,.331-1.389,2.411,2.411,0,0,1,.959-.86,2.744,2.744,0,0,1,1.355-.331,2.529,2.529,0,0,1,1.818.694,2.361,2.361,0,0,1,.761,1.885v9.391h5.059V21.145a2.7,2.7,0,0,1,.331-1.389,2.4,2.4,0,0,1,.959-.86,2.742,2.742,0,0,1,1.355-.331,2.529,2.529,0,0,1,1.818.694,2.364,2.364,0,0,1,.76,1.885v9.391h5.06V20.583a6.524,6.524,0,0,0-.86-3.439,5.523,5.523,0,0,0-2.281-2.215,6.6,6.6,0,0,0-3.274-.794,7.011,7.011,0,0,0-3.405.827,6.177,6.177,0,0,0-1.728,1.359,5.622,5.622,0,0,0-1.679-1.426,5.923,5.923,0,0,0-3.008-.761,6.691,6.691,0,0,0-3.207.761,5.541,5.541,0,0,0-1.125.758Z" transform="translate(7.549 0.603)" fill="#007dfc"/>
</svg>
