<svg xmlns="http://www.w3.org/2000/svg" width="95" height="53.471" viewBox="0 0 95 53.471"><defs><style>.b,.c{fill:#fff;}.c{font-size:18px;font-family:Poppins-Medium, Poppins;font-weight:500;}</style></defs><g class="a"><path class="b" d="M.095,15.332a24.07,24.07,0,0,0,.491,2.376,18.413,18.413,0,0,0,2.9,5.754c1.236,1.672,2.691,3.321,3.444,4.149v0l.04.044c.556.612,1.058,1.161,1.584,1.687,1.072,1.067,2.125,2.1,3.237,3.059l.061.056-.04.04c-.252.249-.485.52-.773.852L9.684,34.9l10.553,2.079L16.781,26.825l-2.127,2.338q-.62-.62-1.236-1.233c-1.384-1.379-2.812-2.8-4.155-4.247A22.388,22.388,0,0,1,5.28,17.767a9.162,9.162,0,0,1,.7-8.906,9.715,9.715,0,0,1,8.1-4.522h0a9.812,9.812,0,0,1,9.834,8.4,10.2,10.2,0,0,1-1.8,6.963c-.192.305-.393.6-.608.918l-.953-.916c1.424,1.373,3.9,4.528,4.088,4.766-.032-.041-.061-.087-.093-.128-.079-.1-.106-.159-.118-.171a1.276,1.276,0,0,1,.148-.234,18.028,18.028,0,0,0,3.713-8.393A13.652,13.652,0,0,0,24.922,4.808,13.676,13.676,0,0,0,14.712.032l-.4.006c-.189,0-.381-.01-.573-.018C13.52.008,13.3,0,13.087,0a4.64,4.64,0,0,0-.844.068A14.181,14.181,0,0,0,.513,10.308a12.914,12.914,0,0,0-.456,4.809Z" transform="translate(71.393 0.008) rotate(90)"/><path class="b" d="M20.54,8.324l.01.008-1.025-.979c-.953-.922-1.907-1.843-2.953-2.822.288-.318.579-.652.944-1.068l1.2-1.37L8.2,0l3.452,10.13,2.1-2.336c.438.433.874.864,1.314,1.294,1.44,1.412,2.93,2.872,4.275,4.385a18.228,18.228,0,0,1,4.2,6.894,8.768,8.768,0,0,1-1.727,8.549A9.6,9.6,0,0,1,9.294,31.275a9.32,9.32,0,0,1-4-12.025A28.528,28.528,0,0,1,6.68,16.682c.084-.148.172-.3.261-.448-.749-.823-2.208-2.475-3.444-4.148.133.184.245.367.387.556a1.7,1.7,0,0,0,.123.159,1.2,1.2,0,0,1-.1.159A19.035,19.035,0,0,0,.243,20.613c-.079.428-.141.86-.2,1.324a13.278,13.278,0,0,0,.547,4.946,2.183,2.183,0,0,1,.133.352l.095.4c.079.218.149.407.221.579A14.048,14.048,0,0,0,21.079,35.22a13.545,13.545,0,0,0,7.275-13.346c-.222-3.539-1.986-6.419-3.716-8.779-.187-.238-2.664-3.394-4.088-4.766Z" transform="translate(60.016 0) rotate(90)"/><text class="c" transform="translate(0 47.471)"><tspan x="0" y="0">Kuberchat</tspan></text></g></svg>