<svg xmlns="http://www.w3.org/2000/svg" width="110.129" height="56.474" viewBox="0 0 110.129 56.474"><defs><style>.b{fill:#fff;}</style></defs><g class="a"><path class="b" d="M183.429,222.888l-2.129-.828q-.781.189-1.431.367a5.629,5.629,0,0,1-1.479.177,5.941,5.941,0,0,1-4.27-1.739,5.915,5.915,0,0,1-1.278-1.916,6.094,6.094,0,0,1-.461-2.378,6.506,6.506,0,0,1,.45-2.46,5.774,5.774,0,0,1,1.242-1.916,5.6,5.6,0,0,1,1.893-1.254,6.291,6.291,0,0,1,2.4-.449,5.808,5.808,0,0,1,1.964.284v-5.016l3.1-.9Zm-3.1-9.109a3.05,3.05,0,0,0-.958-.39,5.044,5.044,0,0,0-.934-.083,2.857,2.857,0,0,0-1.171.236,2.762,2.762,0,0,0-.923.663,3,3,0,0,0-.6,1.005,3.718,3.718,0,0,0-.213,1.29,3.818,3.818,0,0,0,.225,1.325,3.272,3.272,0,0,0,.639,1.077,2.994,2.994,0,0,0,.97.722,2.89,2.89,0,0,0,1.242.26,2.1,2.1,0,0,0,.9-.177q.378-.178.828-.438Z" transform="translate(-172.38 -171.003)"/><path class="b" d="M221.581,232.452a2.174,2.174,0,0,0,.2,1.041,2.486,2.486,0,0,0,.639.828,2.894,2.894,0,0,0,.982.544,3.859,3.859,0,0,0,1.23.189,3.646,3.646,0,0,0,1.609-.355,6.861,6.861,0,0,0,1.514-1.041l1.349,2.366a9.136,9.136,0,0,1-2.165,1.289,6.428,6.428,0,0,1-2.543.509,6.514,6.514,0,0,1-2.5-.461,5.6,5.6,0,0,1-1.916-1.278,5.728,5.728,0,0,1-1.23-1.94,7.186,7.186,0,0,1-.023-4.874,5.478,5.478,0,0,1,1.159-1.881,5.193,5.193,0,0,1,1.81-1.218,6.1,6.1,0,0,1,2.342-.438,5.059,5.059,0,0,1,1.857.367,4.593,4.593,0,0,1,1.692,1.183,6.208,6.208,0,0,1,1.23,2.094,8.876,8.876,0,0,1,.473,3.076Zm4.211-2.437a2.505,2.505,0,0,0-.651-1.136,1.69,1.69,0,0,0-1.266-.5,1.979,1.979,0,0,0-1.325.461,2.561,2.561,0,0,0-.781,1.171Z" transform="translate(-205.871 -186.221)"/><path class="b" d="M267.821,224.469a6.243,6.243,0,0,1,1.668-.2,5.21,5.21,0,0,1,2.046.319,4,4,0,0,1,1.124.7,16.173,16.173,0,0,1,1.7-.71,6.549,6.549,0,0,1,2.153-.307,3.938,3.938,0,0,1,3.253,1.3,5.292,5.292,0,0,1,1.053,3.43v7.121h-3.076v-6.506a4.481,4.481,0,0,0-.331-1.857,1.25,1.25,0,0,0-1.254-.722,3.326,3.326,0,0,0-1.183.189,3.577,3.577,0,0,0-.947.544q.023.1.083.473a4.767,4.767,0,0,1,.059.733v7.145h-3.1v-6.53a3.831,3.831,0,0,0-.39-2,1.324,1.324,0,0,0-1.194-.6,3.551,3.551,0,0,0-1.148.154,7.144,7.144,0,0,0-.816.343v8.635h-3.1v-12.4l2.129,1.159Q267.1,224.67,267.821,224.469Z" transform="translate(-239.49 -184.756)"/><path class="b" d="M342.079,234.354a5.787,5.787,0,0,1-3.241,3.182A6.416,6.416,0,0,1,336.4,238a6.237,6.237,0,0,1-2.414-.461,6.116,6.116,0,0,1-1.94-1.266,5.81,5.81,0,0,1-1.3-1.916,6.025,6.025,0,0,1,3.241-7.985,6.232,6.232,0,0,1,2.414-.461,6.411,6.411,0,0,1,2.437.461,5.816,5.816,0,0,1,1.952,1.278,6.2,6.2,0,0,1,1.289,6.707Zm-2.945-3.7a3.1,3.1,0,0,0-1.562-1.739,2.627,2.627,0,0,0-1.171-.26,2.755,2.755,0,0,0-1.159.248,2.839,2.839,0,0,0-.947.7,3.271,3.271,0,0,0-.627,1.053,3.946,3.946,0,0,0,0,2.626,2.943,2.943,0,0,0,1.573,1.7,2.857,2.857,0,0,0,2.33,0,2.978,2.978,0,0,0,1.562-1.7,3.945,3.945,0,0,0,0-2.626Z" transform="translate(-287.498 -186.349)"/><path class="b" d="M387.508,229.511a4.515,4.515,0,0,0-1.573-.781,6.363,6.363,0,0,0-1.526-.189,2.431,2.431,0,0,0-1.124.26q-.51.261-.509.639,0,.355.473.544a7.434,7.434,0,0,0,1.195.343q.721.154,1.562.343a6.09,6.09,0,0,1,1.561.58,3.544,3.544,0,0,1,1.195,1.041,2.853,2.853,0,0,1,.473,1.715,3.263,3.263,0,0,1-.426,1.692,3.932,3.932,0,0,1-1.124,1.219,5.019,5.019,0,0,1-1.609.745,7.2,7.2,0,0,1-1.9.249,9.13,9.13,0,0,1-4.732-1.42l1.159-2.414a15.812,15.812,0,0,0,1.987.817,5.646,5.646,0,0,0,1.727.272,2.456,2.456,0,0,0,1.231-.307.96.96,0,0,0,.543-.876q0-.307-.473-.485a8.614,8.614,0,0,0-1.195-.331q-.722-.154-1.561-.355a6.384,6.384,0,0,1-1.561-.592,3.587,3.587,0,0,1-1.195-1.029,2.978,2.978,0,0,1-.083-3.088,3.975,3.975,0,0,1,1.065-1.183,5.411,5.411,0,0,1,1.561-.8,5.831,5.831,0,0,1,1.857-.3,8.993,8.993,0,0,1,2.224.3,6.4,6.4,0,0,1,2.129.982Z" transform="translate(-323.346 -186.286)"/><path class="b" d="M423.64,224.7a7.888,7.888,0,0,1,1.407-.331,10.5,10.5,0,0,1,1.55-.118,6.14,6.14,0,0,1,2.366.449,5.5,5.5,0,0,1,1.869,1.254,5.918,5.918,0,0,1,1.23,1.9,6.287,6.287,0,0,1,.45,2.4,6.175,6.175,0,0,1-.462,2.39,5.9,5.9,0,0,1-3.159,3.218,5.813,5.813,0,0,1-2.342.473,8.122,8.122,0,0,1-.982-.059,7.957,7.957,0,0,1-.958-.177v5.063h-3.076V223.637Zm.97,8.493a4.346,4.346,0,0,0,.793.26,3.8,3.8,0,0,0,.768.071,3.063,3.063,0,0,0,2.284-.876,3.127,3.127,0,0,0,.863-2.295,3.662,3.662,0,0,0-.237-1.325,3.172,3.172,0,0,0-.651-1.053,2.972,2.972,0,0,0-.982-.686,3.1,3.1,0,0,0-1.254-.248,4.978,4.978,0,0,0-.721.047,6.438,6.438,0,0,0-.864.213Z" transform="translate(-354.036 -184.694)"/><path class="b" d="M477.878,234.354a5.788,5.788,0,0,1-3.242,3.182A6.411,6.411,0,0,1,472.2,238a6.235,6.235,0,0,1-2.413-.461,6.11,6.11,0,0,1-1.94-1.266,5.789,5.789,0,0,1-1.3-1.916,6.3,6.3,0,0,1,0-4.791,5.959,5.959,0,0,1,3.241-3.194,6.23,6.23,0,0,1,2.413-.461,6.406,6.406,0,0,1,2.437.461,5.813,5.813,0,0,1,1.952,1.278,6.089,6.089,0,0,1,1.29,1.916,6.3,6.3,0,0,1,0,4.791Zm-2.946-3.7a3.092,3.092,0,0,0-1.561-1.739,2.631,2.631,0,0,0-1.172-.26,2.753,2.753,0,0,0-1.159.248,2.841,2.841,0,0,0-.947.7,3.276,3.276,0,0,0-.627,1.053,3.951,3.951,0,0,0,0,2.626,2.945,2.945,0,0,0,1.573,1.7,2.857,2.857,0,0,0,2.331,0,3.058,3.058,0,0,0,.935-.674,3.01,3.01,0,0,0,.627-1.029,3.951,3.951,0,0,0,0-2.626Z" transform="translate(-386.509 -186.349)"/><path class="b" d="M523.07,228.461a2.955,2.955,0,0,0-.876-.615,2.238,2.238,0,0,0-.923-.213,2.448,2.448,0,0,0-.97.213,1.738,1.738,0,0,0-.828.852v8.02h-3.1V224.51l1.916,1.183h.094a4.543,4.543,0,0,1,1.313-.651,5.248,5.248,0,0,1,1.668-.272,5.938,5.938,0,0,1,1.81.26,3.9,3.9,0,0,1,1.408.781Z" transform="translate(-423.184 -185.331)"/><path class="b" d="M552.431,215.98h2.792v2.555h-2.792v4.945a7.685,7.685,0,0,0,.059,1.148.376.376,0,0,0,.414.343,2.32,2.32,0,0,0,.9-.177q.425-.177.993-.485l1.183,2.413q-.378.189-.84.378t-.923.331q-.461.141-.875.225a3.691,3.691,0,0,1-.7.083,4.1,4.1,0,0,1-1.183-.178,3.125,3.125,0,0,1-1.052-.544,2.826,2.826,0,0,1-.757-.947,2.951,2.951,0,0,1-.3-1.36v-6.175h-1.893V215.98h1.893v-2.318l3.076-1.727Z" transform="translate(-445.851 -176.162)"/><path class="b" d="M111.01,223.961l-1.917-3.32a12.642,12.642,0,0,0-15.114,5.687h1.857a12.676,12.676,0,0,1,15.175-2.367Zm-6.037-6.5a15.2,15.2,0,0,1,2.394.19l-2.114-3.662c-.093,0-.185-.008-.279-.008a15.683,15.683,0,0,0-15.3,12.347h1.508A15.163,15.163,0,0,1,104.973,217.462Zm-1.137-5.926-9.414-16.3a1.256,1.256,0,0,0-2.174,0L75.382,224.448a1.254,1.254,0,0,0,1.086,1.88H87.133A18.148,18.148,0,0,1,103.835,211.536Zm-4.006,14.792h10.286a10.089,10.089,0,0,0-10.286,0Z" transform="translate(-38.213 -194.606)"/></g></svg>