<svg xmlns="http://www.w3.org/2000/svg" xmlns:xlink="http://www.w3.org/1999/xlink" width="89.475" height="22.058" viewBox="0 0 89.475 22.058"><defs><style>.a,.d{fill:#fff;}.b{fill:none;}.d{fill-rule:evenodd;}.e{clip-path:url(#a);}.f{clip-path:url(#b);}.g{clip-path:url(#c);}.h{clip-path:url(#d);}.i{clip-path:url(#e);}</style><clipPath id="a"><path class="a" d="M604.475,341.592h0V333.64H600.3v8.1a3.567,3.567,0,0,1-1.807,3.273,3.856,3.856,0,0,1-3.846,0,3.568,3.568,0,0,1-1.807-3.273v-8.1h-4.172v7.95h0a7.907,7.907,0,0,0,15.8.005h0" transform="translate(-588.673 -333.64)"/></clipPath><clipPath id="b"><rect class="a" width="375.776" height="206.954"/></clipPath><clipPath id="c"><path class="b" d="M304.943,292.886v-4.052h-5.454v-4.959h-4.179v4.959h-2.8v4.052h2.8v3.9h0a7.523,7.523,0,0,0,2.943,5.981,8.138,8.138,0,0,0,6.687,1.509v-4.006a4.246,4.246,0,0,1-1.431.246,3.9,3.9,0,0,1-4.027-3.762v-3.87h5.454" transform="translate(-292.513 -283.874)"/></clipPath><clipPath id="d"><rect class="b" width="375.776" height="206.954"/></clipPath><clipPath id="e"><path class="a" d="M455.37,275.338v3.943h-1.263a3.626,3.626,0,0,0-3.672,3.558v7.9h-4.169V279.444H444.33v-4.054h4.091l.848,2.3a5.535,5.535,0,0,1,4.833-2.349h1.268Zm29.783,11.372h2.8v4.028h-9.791v-4.028h2.8V274.233h-2.8V270.2h6.99Zm11.93.014h2.806v4.014h-6.984V279.525h-2.8v-4.014h6.984Zm-2.176-12.755a2.4,2.4,0,1,1,2.49-2.4,2.446,2.446,0,0,1-2.49,2.4Zm18.947,1.44h4.2v15.255h-4.2v-1.509a6.079,6.079,0,0,1-4.15,1.754c-.1,0-.224.008-.327.008a7.878,7.878,0,0,1,0-15.74q.163,0,.327.01a6.076,6.076,0,0,1,4.15,1.753Zm-3.9,11.74a4.193,4.193,0,0,1-3.977-2.369,3.915,3.915,0,0,1,.8-4.44,4.288,4.288,0,0,1,4.57-.946,4,4,0,0,1-1.4,7.755Z" transform="translate(-444.33 -269.169)"/></clipPath></defs><g class="c"><path class="d" d="M604.475,341.592h0V333.64H600.3v8.1a3.567,3.567,0,0,1-1.807,3.273,3.856,3.856,0,0,1-3.846,0,3.568,3.568,0,0,1-1.807-3.273v-8.1h-4.172v7.95h0a7.907,7.907,0,0,0,15.8.005h0" transform="translate(-557.95 -327.193)"/><g class="e" transform="translate(30.723 6.447)"><rect class="a" width="375.776" height="206.954" transform="translate(-77.607 -70.249)"/><g class="f" transform="translate(-77.607 -70.249)"><rect class="a" width="19.383" height="19.064" transform="translate(75.814 68.524)"/></g></g><g class="g" transform="translate(0 1.475)"><g class="h" transform="translate(-46.884 -65.276)"><rect class="a" width="16.009" height="24.04" transform="translate(45.092 63.548)"/></g></g><g class="i" transform="translate(15.746)"><g class="f" transform="translate(-62.629 -63.801)"><path class="a" d="M0,0H78.748V25.821H0Z" transform="translate(60.839 62.086)"/></g><path class="a" d="M4.239,0A4.176,4.176,0,0,1,8.478,4.11a4.176,4.176,0,0,1-4.239,4.11A4.176,4.176,0,0,1,0,4.11,4.176,4.176,0,0,1,4.239,0Z" transform="translate(61.326 9.651)"/></g></g></svg>