<svg xmlns="http://www.w3.org/2000/svg" width="115.776" height="24.443" viewBox="0 0 115.776 24.443"><defs><style>.a{fill:#fff;fill-rule:evenodd;}</style></defs><path class="a" d="M231.293,85h-.167a3.2,3.2,0,0,0-2.5.954c-.706.871-.693,2.343-.68,3.9,0,.221,0,.446,0,.672v.165h-1.216v2.635h1.216v10.906h3.109v-10.9h.956a2.516,2.516,0,0,0,2.424-2.636h-3.38V88.925a1.283,1.283,0,0,1,1.368-1.371,2.128,2.128,0,0,1,1.827,1.062,1.917,1.917,0,0,0,.412-2.009c-.423-.962-1.779-1.607-3.375-1.607Zm10.226,5.345a3.1,3.1,0,0,0-2.558,1.992l-.314.659v-2.33h-2.631v13.565h3.108V98.786c0-.7,0-1.582.053-2.442a3.16,3.16,0,0,1,3.008-3.061,1.7,1.7,0,0,1,1.578.851A2.074,2.074,0,0,0,244.182,92a2.42,2.42,0,0,0-2.436-1.663c-.074,0-.151,0-.228.007Zm-19.163,0a3.1,3.1,0,0,0-2.558,1.992l-.314.659v-2.33h-2.633v13.565h3.109V98.786c0-.7,0-1.582.053-2.442a3.16,3.16,0,0,1,3.008-3.061,1.7,1.7,0,0,1,1.577.851,2.074,2.074,0,0,0,.42-2.135,2.42,2.42,0,0,0-2.437-1.663c-.074,0-.15,0-.227.007ZM202.99,100.508a6.5,6.5,0,0,0,6.284,4.017,6.374,6.374,0,0,0,5.7-2.815l-2.5-1.227a4.645,4.645,0,0,1-3.235,1.339,4.332,4.332,0,0,1-.767-.068c-1.836-.314-3.181-2.247-3.121-4.5a4.339,4.339,0,0,1,4.014-4.383c.071,0,.142-.006.211-.006,1.7,0,2.935,1.149,2.979,2.18.037.857-.712,1.437-2,1.55-.4.039-.868.08-1.347.08a4.247,4.247,0,0,1-2.583-.7,2.171,2.171,0,0,0,.177,1.946,3.566,3.566,0,0,0,3.059,1.235,8.361,8.361,0,0,0,2.041-.272,3.927,3.927,0,0,0,3.309-4.315c-.244-2.038-2.116-4.232-5.646-4.232a6.98,6.98,0,0,0-5.247,2.061,7.715,7.715,0,0,0-1.328,8.1Zm-43.733-8.1a7.714,7.714,0,0,0-1.328,8.1,6.493,6.493,0,0,0,6.283,4.016,6.373,6.373,0,0,0,5.7-2.815l-2.5-1.227a4.643,4.643,0,0,1-3.234,1.339,4.273,4.273,0,0,1-.766-.068c-1.837-.314-3.181-2.247-3.123-4.5a4.34,4.34,0,0,1,4.015-4.383c.071,0,.142-.006.21-.006,1.7,0,2.935,1.149,2.979,2.18.037.857-.712,1.437-2,1.55-.4.039-.867.08-1.344.08a4.247,4.247,0,0,1-2.583-.7,2.169,2.169,0,0,0,.177,1.946,3.565,3.565,0,0,0,3.059,1.235,8.37,8.37,0,0,0,2.041-.272,3.928,3.928,0,0,0,3.309-4.315c-.245-2.038-2.117-4.232-5.648-4.232a6.978,6.978,0,0,0-5.245,2.061Zm31.195-.209-.278.281V90.741h-.09a2.721,2.721,0,0,0-2.994,2.621v16.081h3.083V98.678c0-1.64.363-5.456,3.732-5.456,2.639,0,3.841,2.172,3.841,4.19,0,2.106-1.32,4.239-3.841,4.239a3.97,3.97,0,0,1-2.811-.971,2.961,2.961,0,0,0,.269,2.269,3.306,3.306,0,0,0,3,1.55c.056,0,.112,0,.169,0a6.056,6.056,0,0,0,4.365-1.978,7.324,7.324,0,0,0,1.931-5.047c0-4.6-3.187-7.086-6.184-7.086a5.908,5.908,0,0,0-4.187,1.8Zm-15.3,0-.28.281V90.741h-.09a2.721,2.721,0,0,0-2.994,2.621v16.081h3.082V98.678c0-1.64.364-5.456,3.732-5.456,2.64,0,3.842,2.172,3.842,4.19,0,2.106-1.32,4.239-3.842,4.239a3.969,3.969,0,0,1-2.811-.971,2.961,2.961,0,0,0,.266,2.267,3.3,3.3,0,0,0,3,1.552l.168,0a6.058,6.058,0,0,0,4.365-1.978,7.322,7.322,0,0,0,1.931-5.047c0-4.6-3.187-7.086-6.186-7.086a5.908,5.908,0,0,0-4.186,1.8Zm-29.791,0-.279.281V90.741H145A2.722,2.722,0,0,0,142,93.363v16.08h3.083V98.678c0-1.64.363-5.456,3.732-5.456,2.639,0,3.841,2.172,3.841,4.19,0,2.106-1.32,4.239-3.841,4.239A3.974,3.974,0,0,1,146,100.68a2.968,2.968,0,0,0,.269,2.269,3.308,3.308,0,0,0,3,1.55c.055,0,.112,0,.168,0a6.059,6.059,0,0,0,4.365-1.978,7.323,7.323,0,0,0,1.931-5.047c0-4.6-3.188-7.086-6.186-7.086a5.91,5.91,0,0,0-4.187,1.8Zm109.331-1.5c0,1.365.013,10.725.013,11.833,0,2.565-1.373,3.923-4.082,4.04-.058,0-.116,0-.173,0a5.525,5.525,0,0,1-4.426-2.072,3.723,3.723,0,0,0,.5,3.169,5.429,5.429,0,0,0,4.459,1.748c4.314,0,6.788-2.443,6.788-6.7V90.694h-3.085Zm-8.776,0v8.893a4.779,4.779,0,0,0,1.143,3.467,4.481,4.481,0,0,0,3.306,1.375q.16,0,.32-.01c1.7-.111,2.693-.65,3.049-1.647a2.464,2.464,0,0,0-.49-2.6,1.3,1.3,0,0,1-.3.836,2.266,2.266,0,0,1-3.783-1.219,58.3,58.3,0,0,1-.224-7.957l.009-1.139h-3.029Z" transform="translate(-142.001 -85)"/></svg>