<svg xmlns="http://www.w3.org/2000/svg" width="33.976" height="36.67" viewBox="0 0 33.976 36.67">
  <g id="Group_1" data-name="Group 1" transform="translate(240.513 -128.602)">
    <path id="Path_1" data-name="Path 1" d="M-206.537,201.962a17.165,17.165,0,0,1-5.659,12.93,16.219,16.219,0,0,1-8.8,4.185,16.534,16.534,0,0,1-13.779-4.059,16.027,16.027,0,0,1-5.614-10.63c-.725-6.847,1.793-12.274,7.42-16.254a2.422,2.422,0,0,1,1.89-.574,2.073,2.073,0,0,1,1.66,1.61,2.044,2.044,0,0,1-1,2.2,13.021,13.021,0,0,0-3.929,3.839,12.549,12.549,0,0,0-2.02,5.576,12.493,12.493,0,0,0,2.781,9.6,12.506,12.506,0,0,0,8.834,4.748,12.906,12.906,0,0,0,13.622-9.334,12.851,12.851,0,0,0-5.535-14.409,2.041,2.041,0,0,1-.8-2.8,2.027,2.027,0,0,1,2.622-.867,9.877,9.877,0,0,1,1.495.977,16.6,16.6,0,0,1,6.541,10.785C-206.661,200.4-206.6,201.344-206.537,201.962Z" transform="translate(0 -54.002)" fill="#204394"/>
    <path id="Path_2" data-name="Path 2" d="M-61.662,137.939c0-2.455-.011-4.91.006-7.364a1.853,1.853,0,0,1,1.091-1.736,1.994,1.994,0,0,1,2.129.154,2.025,2.025,0,0,1,.856,1.76q.008,4.39,0,8.78c0,1.831,0,3.662,0,5.492a2.064,2.064,0,0,1-1.382,2.141,2.007,2.007,0,0,1-2.69-1.862c-.025-2-.009-3.994-.011-5.992q0-.687,0-1.373Z" transform="translate(-163.93)" fill="#204394"/>
  </g>
</svg>
