<svg xmlns="http://www.w3.org/2000/svg" width="117" height="117" viewBox="0 0 117 117">
  <g id="Group_58238" data-name="Group 58238" transform="translate(-40.9 -87)">
    <circle id="Ellipse_727" data-name="Ellipse 727" cx="58.5" cy="58.5" r="58.5" transform="translate(40.9 87)" fill="#e9f7ff"/>
    <g id="Group_58321" data-name="Group 58321" transform="translate(-418.599 -73.01)">
      <g id="Group_58320" data-name="Group 58320" transform="translate(495.972 192)">
        <path id="Path_47764" data-name="Path 47764" d="M546.146,192a9.159,9.159,0,0,1,4.154,2.353,7.013,7.013,0,0,0,4.749,1.665,14.453,14.453,0,0,1,2.361.149,5.354,5.354,0,0,1,4.518,4.279q.33,1.41.659,2.82a4.9,4.9,0,0,0,1.446,2.52c.693.647,1.378,1.3,2.068,1.954a5.44,5.44,0,0,1,1.192,6.81c-.253.5-.473,1.024-.77,1.5a7.2,7.2,0,0,0-.859,5.274,8.6,8.6,0,0,1,.141,3.454,5.355,5.355,0,0,1-3.154,3.837c-.942.425-1.9.814-2.842,1.242-.41.187-.794.433-1.222.67.1.227.168.4.248.573q2.206,4.751,4.414,9.5c.044.1.126.189.128.286a2.385,2.385,0,0,1-.043.986c-.169.369-.583.389-.973.319-1.415-.253-2.833-.485-4.245-.757a.458.458,0,0,0-.582.269c-.684,1.206-1.375,2.409-2.09,3.6a4.77,4.77,0,0,1-.662.72h-.527a5.641,5.641,0,0,1-.629-.867c-1.043-2.2-2.059-4.415-3.089-6.623a5.836,5.836,0,0,0-1.047-2.027,7.022,7.022,0,0,0-2.208-.76,5.529,5.529,0,0,0-3.706-.014c-.546.186-1.1.349-1.659.495a1.04,1.04,0,0,0-.747.643q-1.9,4.159-3.858,8.294a5.251,5.251,0,0,1-.642.859h-.527a5.173,5.173,0,0,1-.65-.731q-1.046-1.736-2.037-3.5a.543.543,0,0,0-.692-.341c-1.391.279-2.789.527-4.194.727a1.371,1.371,0,0,1-.941-.274c-.319-.253-.24-.65-.069-1.017,1.513-3.243,3.007-6.495,4.538-9.729.212-.448.124-.679-.272-.863-1.047-.489-2.07-1.042-3.151-1.44a5.589,5.589,0,0,1-3.659-6.605c.143-.811.2-1.639.284-2.459a4.906,4.906,0,0,0-.549-2.8q-.645-1.266-1.275-2.54a5.4,5.4,0,0,1,1.173-6.634c.7-.665,1.4-1.333,2.1-1.99a5.012,5.012,0,0,0,1.491-2.611c.237-1.025.468-2.053.735-3.071a5.364,5.364,0,0,1,5.007-4.032c1.068-.052,2.135-.127,3.2-.2a4.533,4.533,0,0,0,2.341-.853c.415-.294.832-.587,1.231-.9a9.27,9.27,0,0,1,3.911-2.15Zm-19.1,27.339c-.137,1.222-.263,2.445-.413,3.665a3.692,3.692,0,0,0,2.357,4.132q1.472.635,2.94,1.281a5.758,5.758,0,0,1,2.51,2.1c.624.935,1.236,1.877,1.862,2.81a3.644,3.644,0,0,0,4.269,1.548c.791-.229,1.587-.447,2.363-.72a7.222,7.222,0,0,1,4.944,0c.71.25,1.438.447,2.16.665a3.707,3.707,0,0,0,4.591-1.668c.557-.852,1.122-1.7,1.682-2.55a5.9,5.9,0,0,1,2.621-2.206c1.043-.456,2.1-.893,3.129-1.372a3.35,3.35,0,0,0,2.111-2.869,11.865,11.865,0,0,0-.2-2.772,8.338,8.338,0,0,1,.97-5.944c.328-.538.581-1.121.865-1.686a3.707,3.707,0,0,0-.816-4.736c-.738-.7-1.473-1.407-2.215-2.105a6.066,6.066,0,0,1-1.784-3.1c-.244-1.042-.489-2.085-.745-3.124a3.655,3.655,0,0,0-3.5-2.891c-.736-.036-1.471-.1-2.208-.111a7.673,7.673,0,0,1-5.074-1.861c-.507-.432-1.061-.807-1.6-1.207a3.707,3.707,0,0,0-4.962.032q-1.2.906-2.413,1.785a5.359,5.359,0,0,1-2.7,1.094q-1.86.161-3.725.266a3.673,3.673,0,0,0-3.5,2.895c-.188.767-.384,1.534-.531,2.309a7.408,7.408,0,0,1-2.481,4.408c-.612.526-1.187,1.1-1.771,1.654a3.68,3.68,0,0,0-.8,4.65c.477.958.965,1.911,1.428,2.876A5.913,5.913,0,0,1,527.048,219.339Zm24.521,17.416,3.057,6.575c.14-.224.235-.369.321-.518q.78-1.341,1.556-2.685a.921.921,0,0,1,1.1-.493c.444.1.894.168,1.343.244.732.124,1.465.243,2.283.378L557.391,232c-.424.653-.816,1.213-1.163,1.8A5.648,5.648,0,0,1,551.569,236.755Zm-12.216.035c-.477-.081-.862-.119-1.233-.214a5.366,5.366,0,0,1-3.27-2.391c-.432-.669-.871-1.333-1.356-2.073l-3.786,8.155,3.488-.6c.763-.131.941-.052,1.325.608.581,1,1.16,2,1.784,3.073Z" transform="translate(-522.823 -192)" fill="#222872"/>
        <path id="Path_47769" data-name="Path 47769" d="M597.839,279.344a14.032,14.032,0,1,1,13.992-14.03A14.037,14.037,0,0,1,597.839,279.344ZM594.47,266.3a5.545,5.545,0,0,1-2.118-4.059,5.345,5.345,0,0,1,1.641-4.237,5.463,5.463,0,0,1,7.412-.24,5.348,5.348,0,0,1,1.872,3.549,5.527,5.527,0,0,1-2.083,4.985c3.373,1.5,4.355,2.532,6.282,6.576a12.292,12.292,0,0,0-18.8-15.819c-4.726,5.315-3.534,12.463-.468,15.83A10.142,10.142,0,0,1,594.47,266.3Zm3.3,11.36a12.355,12.355,0,0,0,7.961-2.884.664.664,0,0,0,.257-.765,8.353,8.353,0,0,0-16.314-.065.763.763,0,0,0,.316.89A12.361,12.361,0,0,0,597.771,277.663Zm.055-19.537a3.8,3.8,0,1,0,3.8,3.829A3.791,3.791,0,0,0,597.826,258.126Z" transform="translate(-575.241 -242.941)" fill="#009eff"/>
      </g>
    </g>
  </g>
</svg>
