<svg xmlns="http://www.w3.org/2000/svg" width="18.319" height="15.266" viewBox="0 0 18.319 15.266">
  <g id="mail" transform="translate(0 -2)">
    <path id="Path_33947" data-name="Path 33947" d="M16.793,2H1.527A1.527,1.527,0,0,0,0,3.527v1.8L8.2,9.113a2.29,2.29,0,0,0,1.92,0l8.2-3.784v-1.8A1.527,1.527,0,0,0,16.793,2ZM9.16,10.854a3.817,3.817,0,0,1-1.6-.351L0,7.01v8.73a1.527,1.527,0,0,0,1.527,1.527H16.793a1.527,1.527,0,0,0,1.527-1.527V7.01L10.763,10.5A3.81,3.81,0,0,1,9.16,10.854Z" fill="#06b2ff"/>
  </g>
</svg>
