<svg xmlns="http://www.w3.org/2000/svg" width="20.782" height="14.288" viewBox="0 0 20.782 14.288">
  <g id="Group_17835" data-name="Group 17835" transform="translate(-166.91 -8040.492)">
    <path id="Path_3818" data-name="Path 3818" d="M339.392,149.512l7.006,4.429V144.9Z" transform="translate(-158.706 7898.229)" fill="#06b2ff"/>
    <path id="Path_3819" data-name="Path 3819" d="M0,144.9v9.046l7.006-4.429Z" transform="translate(166.91 7898.229)" fill="#06b2ff"/>
    <path id="Path_3820" data-name="Path 3820" d="M20.4,80H2.22A1.283,1.283,0,0,0,.96,81.105l10.352,6.821,10.352-6.821A1.283,1.283,0,0,0,20.4,80Z" transform="translate(165.988 7960.492)" fill="#06b2ff"/>
    <path id="Path_3821" data-name="Path 3821" d="M13.569,277.921l-1.838,1.211a.652.652,0,0,1-.714,0L9.179,277.92l-8.155,5.158a1.281,1.281,0,0,0,1.257,1.1H20.466a1.281,1.281,0,0,0,1.257-1.1Z" transform="translate(165.928 7770.605)" fill="#06b2ff"/>
  </g>
</svg>
