<svg xmlns="http://www.w3.org/2000/svg" width="52.471" height="52.577" viewBox="0 0 52.471 52.577">
  <g id="Group_56499" data-name="Group 56499" transform="translate(-491.122 -192)">
    <g id="Group_56498" data-name="Group 56498" transform="translate(491.122 192)">
      <path id="Path_14226" data-name="Path 14226" d="M501.562,192h1.947a1.5,1.5,0,0,0,.283.089,10.669,10.669,0,0,1,9.014,13.806.681.681,0,0,0,.2.8q8.32,8.315,16.618,16.653a.711.711,0,0,0,.845.2,10.614,10.614,0,0,1,13.308,7.033c.243.812.354,1.664.526,2.5v1.746c-.084.486-.17.971-.25,1.458a1.6,1.6,0,0,1-1.1,1.411,1.619,1.619,0,0,1-1.741-.559q-2.576-2.607-5.182-5.184a1.128,1.128,0,0,0-.7-.3c-1.16-.03-2.321-.015-3.482-.012-.146,0-.293.019-.461.03,0,1.324-.016,2.605.014,3.886a1.2,1.2,0,0,0,.306.745c1.734,1.769,3.488,3.519,5.243,5.267a1.552,1.552,0,0,1,.463,1.634,1.487,1.487,0,0,1-1.248,1.076c-.534.1-1.068.2-1.6.3h-1.947c-.449-.083-.9-.152-1.345-.252a10.681,10.681,0,0,1-7.939-13.7.616.616,0,0,0-.18-.717q-8.356-8.357-16.7-16.73a.6.6,0,0,0-.717-.171,10.1,10.1,0,0,1-4.5.415c-6.45-.841-10.422-6.7-9.168-13.126a1.582,1.582,0,0,1,2.844-.855q2.576,2.608,5.185,5.184a1.149,1.149,0,0,0,.7.295c.818.036,1.638.014,2.458.014h1.484c0-1.358.017-2.64-.014-3.921a1.2,1.2,0,0,0-.311-.744c-1.747-1.781-3.516-3.541-5.28-5.306a1.508,1.508,0,0,1-.426-1.6,1.481,1.481,0,0,1,1.2-1.062C500.459,192.2,501.012,192.1,501.562,192Z" transform="translate(-491.83 -192)" fill="#fff"/>
      <path id="Path_14229" data-name="Path 14229" d="M498.64,410.975c-.889-.28-1.782-.548-2.664-.847a6.145,6.145,0,0,1-.871-.493,3.576,3.576,0,0,0,.532-.355q5.6-5.6,11.2-11.211a1.8,1.8,0,0,0,.668-1.383,1.448,1.448,0,0,0-.887-1.334,1.489,1.489,0,0,0-1.592.188,4.357,4.357,0,0,0-.447.422q-5.544,5.553-11.085,11.11c-.132.133-.238.291-.4.489a6.852,6.852,0,0,1-1.21-2.982,7.437,7.437,0,0,1,2.09-6.688c4.31-4.369,8.662-8.7,13-13.042.036-.036.078-.065.058-.049L517.9,395.675c-.043.046-.161.183-.288.311q-6.194,6.209-12.385,12.421a8.007,8.007,0,0,1-4.756,2.492.771.771,0,0,0-.186.077Z" transform="translate(-491.777 -358.398)" fill="#fff"/>
      <path id="Path_14230" data-name="Path 14230" d="M737.44,196.108c-1.435,2.867-2.887,5.726-4.294,8.608a2.113,2.113,0,0,1-1.782,1.315c-2.064.256-4.122.562-6.177.879a1.6,1.6,0,0,0-.833.405c-2.079,2.052-4.137,4.126-6.2,6.193-.131.131-.268.257-.375.359l-2.16-2.165c.1-.107.227-.244.358-.375,2.063-2.068,4.132-4.131,6.182-6.213a1.525,1.525,0,0,0,.4-.786q.493-3.216.924-6.443a1.771,1.771,0,0,1,1.047-1.461q4.412-2.2,8.815-4.424h.717a6.421,6.421,0,0,1,.883.587c.563.52,1.108,1.063,1.624,1.63a14.4,14.4,0,0,1,.875,1.172Z" transform="translate(-684.97 -192)" fill="#fff"/>
    </g>
  </g>
</svg>
