<svg xmlns="http://www.w3.org/2000/svg" width="506.652" height="231.693" viewBox="0 0 506.652 231.693">
  <g id="Group_19498" data-name="Group 19498" transform="translate(-112.915 -271.237)">
    <g id="Group_19497" data-name="Group 19497" transform="translate(112.915 271.237)">
      <g id="Group_19474" data-name="Group 19474" transform="translate(31.406 23.541)">
        <g id="Group_19473" data-name="Group 19473" transform="translate(0 25.778)">
          <path id="Path_10263" data-name="Path 10263" d="M678.915,709.724,528.074,835.916l-79.363-67.609c-14.854,13.081-37.8,33.27-60.874,53.53-15.772,13.846-28.541,25.034-38.89,34.088l-72.084-.083c19.99-17.019,100.475-87.746,154.7-135.544l16.579-14.614,80.227,68.345,117.756-98.514Z" transform="translate(-276.863 -675.514)" fill="#77b1f1"/>
        </g>
        <path id="Path_10264" data-name="Path 10264" d="M2104.806,551.207l71.84,72.059,20.294-82.317Z" transform="translate(-1754.641 -540.948)" fill="#77b1f1"/>
      </g>
      <g id="Group_19488" data-name="Group 19488" transform="translate(118.016 127.729)">
        <g id="Group_19482" data-name="Group 19482" transform="translate(13.252)">
          <g id="Group_19480" data-name="Group 19480">
            <path id="Path_10265" data-name="Path 10265" d="M812.963,1263.9a133.291,133.291,0,0,0-1.539-16.341c-1.1-6.381-2.1-10.052-2.108-10.09-.146-.561-2.245-2.831-6.914-2.761s-4.226,3.048-4.226,3.048h0a.957.957,0,0,0,.034.265,142.92,142.92,0,0,1,4.145,35.755c0,.282-.034.769-.014,1.093,0,0,10.819.279,10.821,0C813.539,1273.113,813.355,1268.254,812.963,1263.9Z" transform="translate(-798.164 -1205.996)" fill="#b7d3f3"/>
            <path id="Path_10266" data-name="Path 10266" d="M819.418,1273.675c0,.28-.151.5-.331.5h0c-.18,0-.323-.228-.325-.5h-9.272c0,.28-.151.5-.331.5h0c-.183,0-.329-.236-.326-.518a140.07,140.07,0,0,0-.769-15.839,124.452,124.452,0,0,0-3.544-19.8.983.983,0,0,1-.033-.265s-.443-2.977,4.225-3.048,6.769,2.2,6.915,2.762c.009.029.571,2.108,1.319,5.845.248,1.238.515,2.658.79,4.245a133.389,133.389,0,0,1,1.539,16.341C819.657,1268.254,819.8,1271.922,819.418,1273.675Z" transform="translate(-803.26 -1205.996)" fill="#d2e3fc"/>
            <path id="Path_10267" data-name="Path 10267" d="M823.631,1428.244h36.35s-.846-3.426-21.9-2.916C823.185,1425.69,823.631,1428.244,823.631,1428.244Z" transform="translate(-818.751 -1360.061)" fill="#c5dcf8"/>
            <g id="Group_19475" data-name="Group 19475" transform="translate(1.921 68.713)">
              <path id="Path_10268" data-name="Path 10268" d="M808.191,1478.787c4.215-21.336,3.131-34.429,3.126-34.594-.011-.328.595-.627.921-.637s1.784-.1,1.953.184c.22.368,1.069,16.5-5.212,35.047Z" transform="translate(-808.191 -1443.537)" fill="#b7d3f3"/>
            </g>
            <g id="Group_19476" data-name="Group 19476" transform="translate(29.699 68.713)">
              <path id="Path_10269" data-name="Path 10269" d="M959.36,1478.787c-4.215-21.336-3.131-34.429-3.126-34.594.011-.328-.595-.627-.92-.637s-1.784-.1-1.953.184c-.221.368-1.069,16.5,5.212,35.047Z" transform="translate(-953.198 -1443.537)" fill="#b7d3f3"/>
            </g>
            <g id="Group_19477" data-name="Group 19477" transform="translate(36.425 68.713)">
              <path id="Path_10270" data-name="Path 10270" d="M994.472,1478.787c-4.215-21.336-3.131-34.429-3.126-34.594.011-.328-.595-.627-.921-.637s-1.784-.1-1.953.184c-.221.368-1.069,16.5,5.212,35.047Z" transform="translate(-988.309 -1443.537)" fill="#b7d3f3"/>
            </g>
            <g id="Group_19478" data-name="Group 19478" transform="translate(8.692 68.713)">
              <path id="Path_10271" data-name="Path 10271" d="M843.539,1478.787c4.215-21.336,3.131-34.429,3.126-34.594-.01-.328.595-.627.92-.637s1.785-.1,1.953.184c.221.368,1.069,16.5-5.212,35.047Z" transform="translate(-843.539 -1443.537)" fill="#b7d3f3"/>
            </g>
            <path id="Rectangle_8870" data-name="Rectangle 8870" d="M.989,0H36.85a.989.989,0,0,1,.989.989v0a.989.989,0,0,1-.989.989H.989A.989.989,0,0,1,0,.989v0A.989.989,0,0,1,.989,0Z" transform="translate(4.156 67.297)" fill="#b7d3f3"/>
            <g id="Group_19479" data-name="Group 19479" transform="translate(7.086)">
              <path id="Path_10272" data-name="Path 10272" d="M998.027,1264.06l12.083-2.617.712,1.734s-13.333,7.933-14.582,7.545S998.027,1264.06,998.027,1264.06Z" transform="translate(-965.139 -1227.612)" fill="#ffb27d"/>
              <path id="Path_10273" data-name="Path 10273" d="M948.327,1519.728a1.074,1.074,0,0,0-.191,1.148.008.008,0,0,0,0,.006,7.138,7.138,0,0,0,2.255,2.474c.136.11.256.209.362.3.028.024.055.048.081.073l.063.056c.991.914.618,1.123,2.4,2.977,2.031,2.113,3.429,2.151,3.826,1.958.337-.164-.347-1.285-1.1-2.544-.037-.061-.073-.122-.11-.184-.1-.167-.2-.338-.3-.506-.888-1.516-.66-2.227-.449-4.483.171-1.833,2.852-10.24,2.852-10.24l-3.891-.67s-1.172,6.695-2.463,7.726c-.69.549-1.463.556-2.127.964-.047.029-.093.058-.138.087A5.114,5.114,0,0,0,948.327,1519.728Z" transform="translate(-926.425 -1428.633)" fill="#ffb27d"/>
              <path id="Path_10274" data-name="Path 10274" d="M948.327,1556.4a1.073,1.073,0,0,0-.191,1.148.009.009,0,0,0,0,.006,8.268,8.268,0,0,0,2.259,2.466c.134.112.253.214.358.31.028.024.055.048.081.073l.063.056c.991.914.618,1.123,2.4,2.977,2.031,2.113,3.429,2.151,3.826,1.958.337-.164-.347-1.285-1.1-2.544a8.652,8.652,0,0,1-3.619-2.667c-1.223-1.56-2.038-3.565-2.871-4.726-.047.029-.093.057-.138.087A5.108,5.108,0,0,0,948.327,1556.4Z" transform="translate(-926.425 -1465.304)" fill="#1c468a"/>
              <path id="Path_10275" data-name="Path 10275" d="M1100.149,1512.3c.24,1.2,1.952,1,3.865.533s1.458.088,4.18-.213,3.547-1.317,3.63-1.721c.074-.359-1.271-.486-2.714-.652-.182-.021-.364-.043-.546-.066-1.629-.2-2.822-1.255-4.3-2.119-1.4-.818-3.493-4.149-3.493-4.149l-3.733.3s1.959,2.975,2.717,4.269a4.509,4.509,0,0,1,.367,2.544A4.789,4.789,0,0,0,1100.149,1512.3Z" transform="translate(-1046.87 -1423.635)" fill="#ffb27d"/>
              <path id="Path_10276" data-name="Path 10276" d="M1116.907,1539.562c1.913-.468,1.458.088,4.181-.213s3.547-1.316,3.63-1.721c.074-.359-1.271-.486-2.714-.652l-.014.027a7.676,7.676,0,0,1-3.9,1.212c-1.847.045-3.8-.484-5.078-.464a4.779,4.779,0,0,0,.029,1.277C1113.282,1540.23,1114.994,1540.03,1116.907,1539.562Z" transform="translate(-1059.763 -1450.363)" fill="#1c468a"/>
              <path id="Path_10277" data-name="Path 10277" d="M1069.918,1250.53s.89-2.179,1.868-2.268,4.092-.578,4.314-.134a3.078,3.078,0,0,1-.667,2.624c-.667.578-4.8,1.512-4.8,1.512Z" transform="translate(-1024.947 -1216.699)" fill="#ffb27d"/>
              <path id="Path_10278" data-name="Path 10278" d="M984.544,1397.816,976.5,1419.47a7.367,7.367,0,0,1-2.421-.222,10.41,10.41,0,0,1-2.34-1.139s2-20.792,5.655-25.116S984.544,1397.816,984.544,1397.816Z" transform="translate(-945.573 -1333.023)" fill="#163560"/>
              <path id="Path_10279" data-name="Path 10279" d="M853.669,1350.39s23.12-7.818,28.276-6.154,20.638,32.465,20.638,32.465a2.991,2.991,0,0,1-1.3.823,12.3,12.3,0,0,1-3.035.311s-13.972-11.976-15.635-15.469-2.329-6.82-3.992-6.487-21.457,8.151-25.948,3.493a12.964,12.964,0,0,1-3.317-10.709Z" transform="translate(-846.523 -1294.357)" fill="#1c468a"/>
              <path id="Path_10280" data-name="Path 10280" d="M860.278,1085.746a5.606,5.606,0,0,0-3.035-.581,1.42,1.42,0,0,1,.64-.3,4.706,4.706,0,0,0-1.679.438c-7.226-2.784-8.361,7.855-8.21,10.327s.169,5.317-3.438,7.534c-7.1,4.362-1.109,11.976-1.109,11.976.056.033,3.3,5.539,3.3,5.539-.182-2,9.034-12.538,13.842-15.7a13.9,13.9,0,0,0,1.618-5.007,13.144,13.144,0,0,1-.984,4.53C865.3,1100.756,862.927,1087.251,860.278,1085.746Z" transform="translate(-839.951 -1084.839)" fill="#2c3a64"/>
              <path id="Path_10281" data-name="Path 10281" d="M912.694,1160.759a6.659,6.659,0,0,1-4.086.746,5.3,5.3,0,0,1-2.721-2.609c.7-.139.906-1.105.891-5.256l.318.062,5.342,1.058s-.121,1.681-.125,3.265C912.309,1159.356,912.389,1160.617,912.694,1160.759Z" transform="translate(-892.337 -1140.46)" fill="#ffb27d"/>
              <path id="Path_10282" data-name="Path 10282" d="M917.539,1155.024s-.121,1.681-.125,3.265c-2.99-.084-4.57-2.811-5.217-4.323Z" transform="translate(-897.439 -1140.724)" fill="#ed975d"/>
              <path id="Path_10283" data-name="Path 10283" d="M900.924,1104.6a15.707,15.707,0,0,1-1.943-4.592c-.269-1.511.5-7.113,6.13-6.306a7.645,7.645,0,0,1,3.172,1.2c1.222.825,2.986,2.607,1.014,7.5l-.512,1.651Z" transform="translate(-886.718 -1091.943)" fill="#2c3a64"/>
              <path id="Path_10284" data-name="Path 10284" d="M915.09,1116.948s-7.073.117-7.078-4.289-.921-7.358,3.6-7.619,5.4,1.42,5.754,2.89S916.93,1116.8,915.09,1116.948Z" transform="translate(-893.991 -1101.148)" fill="#ffb27d"/>
              <path id="Path_10285" data-name="Path 10285" d="M905.23,1100.811s-1.937,5.169-4.909,5.934-4.261-.032-4.261-.032a8.417,8.417,0,0,0,2.753-4.973S903.769,1098.35,905.23,1100.811Z" transform="translate(-884.393 -1097.027)" fill="#2c3a64"/>
              <path id="Path_10286" data-name="Path 10286" d="M941.425,1103.224a6.248,6.248,0,0,1,1.8,2.276c.353,1.122.511,3.432,1.184,3.353,0,0,1.459-3.514-.181-5.5C942.489,1101.244,941.425,1103.224,941.425,1103.224Z" transform="translate(-921.068 -1099.02)" fill="#2c3a64"/>
              <path id="Path_10287" data-name="Path 10287" d="M846.387,1201.955c-.7-2.926,1.676-8.6,4.153-13.3,2.248-4.259,4.581-7.715,4.791-7.591,5.928,3.519,6.464.593,6.464.593h0s5.385.715,6.91,3.339c1.891,3.257,3.935,12.357,5.965,14.079a3.821,3.821,0,0,0,.152,2.644c.071.254.149.494.235.722a13.927,13.927,0,0,0,1.019,2.092c-1.032.627-3.024,1.819-4.492.962-2.238-1.31-3.984-5.3-4.966-6.884l-.011-.018c-2.136,12.09.768,14.843-.7,16.118-1.552,1.346-3.77-.641-8.65,1.474-3.2,1.388-7.642,3.4-10.631,3.745-1.568.184-2.738-.089-3.12-1.148C842.395,1215.7,847.718,1207.532,846.387,1201.955Z" transform="translate(-841.781 -1162.627)" fill="#1c468a"/>
              <path id="Path_10288" data-name="Path 10288" d="M937.089,1151.865s.132.56,1.524.474c0,0,1.169-.072,1.133-.688A3.763,3.763,0,0,0,937.089,1151.865Z" transform="translate(-917.563 -1138.736)" fill="#fff"/>
              <path id="Path_10289" data-name="Path 10289" d="M843.5,1273.849c.381,1.059,1.552,1.332,3.12,1.148,2.069-.9,11.008-4.365,10.909-6.711-.149-3.474-1.719-3.585-.61-7.874.891-3.443-7.369-9.845-8.687-11.237-2.477,4.7-2.546,4.922-1.848,7.847C847.718,1262.6,842.395,1270.772,843.5,1273.849Z" transform="translate(-841.781 -1217.694)" fill="#163560"/>
              <path id="Path_10290" data-name="Path 10290" d="M835.869,1206.262a13.107,13.107,0,0,1,4.323-4c-.25-.644,6.668-9.126,6.668-10.44,0-1.331,1.846-10.754,1.846-10.754s-5.764.356-7.76,3.139C838.45,1187.693,833.266,1201.09,835.869,1206.262Z" transform="translate(-835.157 -1162.638)" fill="#1c468a"/>
              <path id="Path_10291" data-name="Path 10291" d="M842.884,1291.711l11.519,3.005-1.081,1.941s-14.018-.1-14.761-.951S842.884,1291.711,842.884,1291.711Z" transform="translate(-837.849 -1252.082)" fill="#ffb27d"/>
              <path id="Path_10292" data-name="Path 10292" d="M964.807,1272.682c.983,1.588,2.729,5.575,4.966,6.884,1.468.857,3.46-.335,4.492-.962a13.907,13.907,0,0,1-1.019-2.093c-.823.188-1.829.429-2.476.625C969.509,1277.518,964.807,1272.682,964.807,1272.682Z" transform="translate(-939.971 -1236.698)" fill="#163560"/>
              <path id="Path_10293" data-name="Path 10293" d="M917.013,1303.938s3.617-1.024,4.479-.785,3.814,2.194,3.4,2.725-3.016-.318-4.213-.157-2.122.751-2.984.624a10.028,10.028,0,0,1-1.763-.466Z" transform="translate(-900.459 -1261.304)" fill="#ffb27d"/>
              <path id="Path_10294" data-name="Path 10294" d="M921.577,1301.2a13.569,13.569,0,0,0,2.273-1.427.141.141,0,0,1,.22.025c.135.213.261.624-.36,1.032A3.34,3.34,0,0,1,921.577,1301.2Z" transform="translate(-905.022 -1258.569)" fill="#ffb27d"/>
            </g>
          </g>
          <g id="Group_19481" data-name="Group 19481" transform="translate(23.482 29.344)">
            <path id="Path_10295" data-name="Path 10295" d="M937.621,1328.292H920.744a1.346,1.346,0,0,1,1.345-1.345h15.531Z" transform="translate(-920.744 -1309.911)" fill="#398ee1"/>
            <path id="Path_10296" data-name="Path 10296" d="M981.465,1238.019h26.093L1001.3,1256.4H975.037Z" transform="translate(-964.636 -1238.019)" fill="#398ee1"/>
            <path id="Path_10297" data-name="Path 10297" d="M1009.565,1238.02l-6.26,18.38H977.044l6.428-18.38Z" transform="translate(-966.259 -1238.02)" fill="#46a0f9"/>
            <path id="Path_10298" data-name="Path 10298" d="M1062.5,1279.741a1.7,1.7,0,0,1-1.565,1.271.979.979,0,0,1-.978-1.271,1.7,1.7,0,0,1,1.565-1.272A.979.979,0,0,1,1062.5,1279.741Z" transform="translate(-1033.259 -1270.72)" fill="#f9ddbf"/>
            <path id="Path_10299" data-name="Path 10299" d="M1047,1238.02l-6.26,18.38h-17.392c11.521-3.932,14.588-15.922,15.1-18.38Z" transform="translate(-1003.691 -1238.02)" fill="#398ee1"/>
          </g>
        </g>
        <g id="Group_19487" data-name="Group 19487" transform="translate(0 47.72)">
          <g id="Group_19484" data-name="Group 19484" transform="translate(3.807 2.837)">
            <g id="Group_19483" data-name="Group 19483">
              <path id="Path_10300" data-name="Path 10300" d="M749.339,1402.167a.674.674,0,0,0,.669-.548l3.277-18.576L758,1356.328l1.318-7.47-3.357-.1-.583,4.337-4.09,30.476-2.425,18.064A.473.473,0,0,0,749.339,1402.167Z" transform="translate(-748.858 -1348.761)" fill="#95c0f4"/>
            </g>
            <path id="Path_10301" data-name="Path 10301" d="M782.889,1353.1a4.816,4.816,0,0,1,2.622,3.229l1.318-7.47-3.358-.1Z" transform="translate(-776.37 -1348.761)" fill="#78acea"/>
          </g>
          <g id="Group_19486" data-name="Group 19486" transform="translate(77.821 2.837)">
            <g id="Group_19485" data-name="Group 19485">
              <path id="Path_10302" data-name="Path 10302" d="M1145.207,1402.167a.674.674,0,0,1-.669-.548l-3.277-18.576-4.714-26.716-1.318-7.47,3.357-.1.583,4.337,4.09,30.476,2.425,18.064A.473.473,0,0,1,1145.207,1402.167Z" transform="translate(-1135.229 -1348.761)" fill="#95c0f4"/>
            </g>
            <path id="Path_10303" data-name="Path 10303" d="M1139.169,1353.1a4.817,4.817,0,0,0-2.622,3.229l-1.318-7.47,3.357-.1Z" transform="translate(-1135.229 -1348.761)" fill="#78acea"/>
          </g>
          <path id="Rectangle_8871" data-name="Rectangle 8871" d="M2.933,0h84.21a2.933,2.933,0,0,1,2.933,2.933v0a2.933,2.933,0,0,1-2.933,2.933H2.933A2.933,2.933,0,0,1,0,2.933v0A2.933,2.933,0,0,1,2.933,0Z" transform="translate(90.076 5.866) rotate(180)" fill="#78acea"/>
        </g>
      </g>
      <path id="Rectangle_8872" data-name="Rectangle 8872" d="M.672,0H505.98a.672.672,0,0,1,.672.672v0a.672.672,0,0,1-.672.672H.672A.672.672,0,0,1,0,.672v0A.672.672,0,0,1,.672,0Z" transform="translate(0 230.172)" fill="#2ea1d4"/>
      <g id="Group_19490" data-name="Group 19490" transform="translate(320.616 118.478)">
        <path id="Path_10304" data-name="Path 10304" d="M1847.481,1317.632s-2.23,2.767-1.533,3.144,2.54,1.083,2.975.638.57-3.7.57-3.7Z" transform="translate(-1834.472 -1263.786)" fill="#ffb27d"/>
        <path id="Path_10305" data-name="Path 10305" d="M1845.465,1317.872a3.281,3.281,0,0,0-1.271.791c-.359.474-1.152,1.2-.958,1.4s1.333-.685,1.333-.685Z" transform="translate(-1832.364 -1263.98)" fill="#ffb27d"/>
        <path id="Path_10306" data-name="Path 10306" d="M1862.78,1124.8s-2.514,23.4-2.738,24.07c-.049.145-.246.885-.524,1.952-.4,1.522-.955,3.709-1.485,5.789-.8,3.142-1.534,6.042-1.534,6.042l-2.182-.719s-.113-11.373.448-13.992,2.358-18.71,3.265-20.875S1862.78,1124.8,1862.78,1124.8Z" transform="translate(-1841.339 -1107.895)" fill="#aec3ff"/>
        <g id="Group_19489" data-name="Group 19489" transform="translate(0 56.067)">
          <path id="Path_10307" data-name="Path 10307" d="M1802.821,1349.665l-13.711-3.6a3.364,3.364,0,0,1-2.394-4.1l1.558-5.942a3.364,3.364,0,0,1,4.1-2.393l13.711,3.6a3.364,3.364,0,0,1,2.394,4.1l-1.558,5.941A3.365,3.365,0,0,1,1802.821,1349.665Z" transform="translate(-1786.607 -1332.705)" fill="#204d9a"/>
          <path id="Path_10308" data-name="Path 10308" d="M1797.639,1333.023l-1.576,6.01a3.374,3.374,0,0,0,.817,3.17,3.323,3.323,0,0,0,.9.678h0a3.3,3.3,0,0,0,.683.262l13.686,3.589a3.376,3.376,0,0,0,4.11-2.4l1.577-6.011a3.377,3.377,0,0,0-2.4-4.11l-4.713-1.236.337-1.282a1.112,1.112,0,0,0-.792-1.356l-.517-.135-2.867-.752-.712-.187a1.112,1.112,0,0,0-1.356.793l-.336,1.282-2.73-.716c-.108-.028-.215-.05-.323-.068h0a3.377,3.377,0,0,0-2.93.971h0A3.333,3.333,0,0,0,1797.639,1333.023Zm12.411-.226-4.9-1.284.337-1.282a.415.415,0,0,1,.506-.3l1.23.322,2.256.591.609.16a.425.425,0,0,1,.114.05.415.415,0,0,1,.182.457Z" transform="translate(-1794.162 -1329.225)" fill="#3c77dc"/>
        </g>
        <path id="Path_10309" data-name="Path 10309" d="M1849.535,1330.24s.609-1.026.381-1.384-1.05,1.063-1.05,1.063.561-1.22.352-1.421-1.069,1.2-1.069,1.2.535-1.186.347-1.226-.825,1-.825,1,.331-.888.029-.845-.958.852-.958.852Z" transform="translate(-1835.222 -1272.55)" fill="#ffb27d"/>
        <path id="Path_10310" data-name="Path 10310" d="M1870.381,1214.533c-.4,1.522-.955,3.71-1.485,5.789a22.474,22.474,0,0,1-1.051-4.59c-.505-3.873,1.047-12.124,1.047-12.124Z" transform="translate(-1852.201 -1171.604)" fill="#9db0f4"/>
        <path id="Path_10311" data-name="Path 10311" d="M2025.591,1312.608a19.348,19.348,0,0,1,2.731,2.591,13.279,13.279,0,0,1,1.016,3.636c-.04.736-1.863-1.685-2.4-1.879s.56.993.436,1.249-1.263-.578-1.7-.85-.74-2.119-1.389-3.124S2025.591,1312.608,2025.591,1312.608Z" transform="translate(-1978.651 -1259.724)" fill="#ffb27d"/>
        <path id="Path_10312" data-name="Path 10312" d="M1865.138,1593.163h12.119c.868-.589-.234-6.346-.234-6.346s-3.308-1.255-3.879,1.3-4.213,3.361-6.139,3.672A2.073,2.073,0,0,0,1865.138,1593.163Z" transform="translate(-1850.094 -1481.156)" fill="#233862"/>
        <path id="Path_10313" data-name="Path 10313" d="M1958.965,1593.163h12.119c.868-.589-.234-6.346-.234-6.346s-3.308-1.255-3.879,1.3-4.213,3.361-6.139,3.672A2.073,2.073,0,0,0,1958.965,1593.163Z" transform="translate(-1925.948 -1481.156)" fill="#233862"/>
        <path id="Path_10314" data-name="Path 10314" d="M1882.159,1310.682s.545,6.8,1.185,14.966c.87,11.1,3.217,38.612,3.217,38.612s1.539,1.313,4.947.595a107.743,107.743,0,0,0,3.769-20.326c.013-.177.027-.356.04-.535.807-11.029,2.062-34.253,2.062-34.253Z" transform="translate(-1863.855 -1257.406)" fill="#2b478b"/>
        <path id="Path_10315" data-name="Path 10315" d="M1881.189,1302.4s.731,9.145,1.371,17.314l11.933,18.881c.013-.177.027-.356.04-.535.807-11.029,2.062-34.253,2.062-34.253Z" transform="translate(-1863.071 -1251.469)" fill="#233862"/>
        <path id="Path_10316" data-name="Path 10316" d="M1899.345,1284.831s8.654,21.542,11.421,29.708c1.971,5.817,7.528,26.222,7.528,26.222a5.585,5.585,0,0,0,4.448-.686s2.068-20.847-2.109-26.726c-2.216-3.119-.551-32.42-9.535-32.67S1899.345,1284.831,1899.345,1284.831Z" transform="translate(-1877.749 -1233.903)" fill="#2b478b"/>
        <path id="Path_10317" data-name="Path 10317" d="M1895.132,1159.531c-3.609,2.035-19.068,1.99-19.784.392-1.6-3.568-2-21.7-1.246-27.262,0,0,.391-8.548,1.246-8.17,5.71-2.624,14.953-.241,14.953-.241,2.492.734,2.278,6.429,2.974,14.426.089,1.031.188,2.1.3,3.215.492,4.939,1.208,10.612,2.3,16.6C1895.943,1158.881,1895.668,1159.229,1895.132,1159.531Z" transform="translate(-1857.044 -1106.647)" fill="#aec3ff"/>
        <path id="Path_10318" data-name="Path 10318" d="M1911.89,1096.81c-.1,1.529-2.09,1.355-4.488.808s-1.529-1.96-1.529-1.96.036-1.086.187-2.388c.055-.473.125-.977.215-1.465.042-.239.089-.475.143-.7.313-1.345,4.789-.047,4.757.315C1911.088,1092.394,1911.795,1095.609,1911.89,1096.81Z" transform="translate(-1882.902 -1080.168)" fill="#ffb27d"/>
        <path id="Path_10319" data-name="Path 10319" d="M1910.3,1128.428l-.189-2.112,2.654.5-1.021,1.886Z" transform="translate(-1886.453 -1109.118)" fill="#233862"/>
        <path id="Path_10320" data-name="Path 10320" d="M1900.122,1112.21l-1.586,2.412a3.509,3.509,0,0,0,1.376,2.56l2.168-2.019S1900.679,1114.628,1900.122,1112.21Z" transform="translate(-1877.095 -1097.715)" fill="#9db0f4"/>
        <path id="Path_10321" data-name="Path 10321" d="M1917.039,1116.783a5.675,5.675,0,0,0,1.318,2.353s3.386-.91,4.193-2.645l-1.764-2.276S1920.7,1115.936,1917.039,1116.783Z" transform="translate(-1892.053 -1099.335)" fill="#9db0f4"/>
        <path id="Path_10322" data-name="Path 10322" d="M1912.635,1096.68a8.309,8.309,0,0,1-5.141,1.093c.056-.473.125-.977.216-1.465.589-.143,1.083-.232,1.083-.232Z" transform="translate(-1884.337 -1084.671)" fill="#e2915a"/>
        <path id="Path_10323" data-name="Path 10323" d="M1908.108,1055.648c-1.053,2.9-4.9,2.159-6.534,1.693-.461-.13-.746-.239-.746-.239-.506-.229-.662-1.112-.618-2.227a17.246,17.246,0,0,1,1.459-6.073c.753-1.129,2.007-2.278,5.736-.679S1909.458,1051.933,1908.108,1055.648Z" transform="translate(-1878.441 -1045.267)" fill="#ffb27d"/>
        <path id="Path_10324" data-name="Path 10324" d="M1913.055,1045.434c-1.177.96-3.705,2.736-3.705,2.736a4.58,4.58,0,0,0,.625-1.291,1.273,1.273,0,0,0,.046-.437,2.411,2.411,0,0,1,.346-1.339c.154-.25.21-.509.015-.693-.319-.3-.865-.025-1.222.22a.722.722,0,0,1-.789.02l0,0c-1.005-.63.1-1.74-.712-2.661s-4.354-1.047-4.213-1.625c-1.207-.682-.446-3.2-.424-3.333a13.052,13.052,0,0,0,3.9-.387,5.763,5.763,0,0,1,4.306,1.152.986.986,0,0,0-.1-.429.91.91,0,0,1,.261.569c.027.027.039.045.031.05a1.163,1.163,0,0,1,.554.128s-.15-.047-.22.042a.1.1,0,0,1-.031.024C1914.066,1039.838,1914.032,1044.636,1913.055,1045.434Z" transform="translate(-1880.509 -1036.542)" fill="#233862"/>
        <path id="Path_10325" data-name="Path 10325" d="M1904.767,1085.938s-.189.365-1.139.062c0,0-.8-.254-.666-.674A2.69,2.69,0,0,1,1904.767,1085.938Z" transform="translate(-1880.661 -1075.976)" fill="#fff"/>
        <path id="Path_10326" data-name="Path 10326" d="M1902.288,1137.341s-2.117,26.758-2.088,28.987,2.346,4.587,2.346,4.587a9.807,9.807,0,0,0,2.206-4.154c.36-2.133-1.021-29.146-1.021-29.146Z" transform="translate(-1878.44 -1118.032)" fill="#2a4e96"/>
        <path id="Path_10327" data-name="Path 10327" d="M1960.221,1128.437s3.418.818,6.121,6.009,4.837,15.661,6.127,18.425,2.175,11.466,2.175,11.466l-2.043,1s-4.932-8.919-5.662-11.844c-.395-1.583-6.425-14.251-6.425-14.251Z" transform="translate(-1926.963 -1110.833)" fill="#aec3ff"/>
        <path id="Path_10328" data-name="Path 10328" d="M1965.5,1218.441h0c-6.436-.926-4.592-22.228-4.087-22.312s2.356,3.807,2.356,3.807l.177.864c.492,4.939,1.207,10.612,2.3,16.6C1966.312,1217.791,1966.038,1218.14,1965.5,1218.441Z" transform="translate(-1927.414 -1165.557)" fill="#9db0f4"/>
      </g>
      <g id="Group_19493" data-name="Group 19493" transform="translate(382.479 70.397)">
        <g id="Group_19491" data-name="Group 19491" transform="translate(7.9 69.989)">
          <path id="Path_10329" data-name="Path 10329" d="M2363.661,1550.629s2.68,2.446,2.157,4.183-2.941,2.9-3.268,5.02-1.634,3.282-2.811,3.282h-5.609s-.866-1.494,1.225-1.945,2.88-2.946,2.75-5.263a40.833,40.833,0,0,1,.2-5.406l4.445-1.03Z" transform="translate(-2315.032 -1473.121)" fill="#233862"/>
          <path id="Path_10330" data-name="Path 10330" d="M2166.531,1579.447s.48,5.566-.7,6.145l-15.057-.031s0-1.738,2.418-2.124,6.667-1.8,7.386-4.956S2166.531,1579.447,2166.531,1579.447Z" transform="translate(-2150.779 -1495.613)" fill="#233862"/>
          <path id="Path_10331" data-name="Path 10331" d="M2166.65,1172.418s.794,9.756,1.728,21.483c1.269,15.93,2.794,35.5,2.945,39.206.261,6.437,1.308,16.734,1.308,16.734s2.483,2.446,7.451,1.415a166.188,166.188,0,0,0,5.692-30.251c.02-.255.039-.512.059-.768,1.176-15.832,3.006-49.17,3.006-49.17Z" transform="translate(-2163.61 -1167.205)" fill="#2a4e96"/>
          <path id="Path_10332" data-name="Path 10332" d="M2166.65,1172.418s.794,9.756,1.728,21.483l17.4,27.1c.02-.255.039-.512.059-.768,1.176-15.832,3.006-49.17,3.006-49.17Z" transform="translate(-2163.61 -1167.205)" fill="#233862"/>
          <path id="Path_10333" data-name="Path 10333" d="M2185.582,1157.28s14.314,35.333,23.726,51.937,12.354,21.238,12.354,21.238,5.392-2.124,5.883-3.572c0,0-3.6-32.056-9.9-39.87-3.562-4.416-6.633-14.212-6.479-18.847.265-7.994-2.737-17.258-2.737-17.258Z" transform="translate(-2178.915 -1150.908)" fill="#2a4e96"/>
        </g>
        <path id="Path_10334" data-name="Path 10334" d="M2112.677,1186.879s-2.673,3.619-2.869,4.585a19.054,19.054,0,0,0-.108,5.423c.32,1.009,1.986-3.012,2.661-3.475s-.422,1.583-.159,1.894,1.55-1.257,2.057-1.792.269-3.214.811-4.844S2112.677,1186.879,2112.677,1186.879Z" transform="translate(-2109.542 -1110)" fill="#ffb27d"/>
        <path id="Path_10335" data-name="Path 10335" d="M2134.889,912.348s-3.612,33.621-3.933,34.579c-.07.208-.354,1.272-.753,2.8-.568,2.187-1.372,5.329-2.133,8.317-1.149,4.514-2.391,8.418-2.391,8.418a3.165,3.165,0,0,1-1.861.24,1.968,1.968,0,0,1-1.381-.843s.132-16.507.938-20.269,3.387-26.879,4.691-29.99S2134.889,912.348,2134.889,912.348Z" transform="translate(-2119.967 -888.059)" fill="#fff"/>
        <path id="Path_10336" data-name="Path 10336" d="M2146.994,1041.255c-.569,2.187-1.372,5.329-2.134,8.317a32.323,32.323,0,0,1-1.51-6.594c-.725-5.564,1.5-17.418,1.5-17.418Z" transform="translate(-2136.757 -979.583)" fill="#dceaff"/>
        <path id="Path_10337" data-name="Path 10337" d="M2182.552,962.239c-5.185,2.924-27.394,2.859-28.422.564-2.3-5.126-2.874-31.175-1.79-39.165,0,0,.562-12.279,1.79-11.738,8.2-3.769,21.482-.346,21.482-.346,3.58,1.055,3.273,9.236,4.272,20.724.128,1.481.271,3.024.43,4.618.707,7.1,1.735,15.245,3.3,23.842C2183.715,961.3,2183.321,961.806,2182.552,962.239Z" transform="translate(-2143.714 -886.265)" fill="#fff"/>
        <path id="Path_10338" data-name="Path 10338" d="M2206.625,872.134c-.138,2.2-3,1.947-6.447,1.161s-2.2-2.816-2.2-2.816.051-1.56.268-3.43c.08-.68.179-1.4.31-2.1.06-.344.128-.682.205-1.009.45-1.933,6.88-.068,6.834.452C2205.474,865.791,2206.49,870.409,2206.625,872.134Z" transform="translate(-2180.863 -848.227)" fill="#ffb27d"/>
        <path id="Path_10339" data-name="Path 10339" d="M2204.343,917.557l-.272-3.034,3.813.72-1.467,2.709Z" transform="translate(-2185.963 -889.817)" fill="#233862"/>
        <path id="Path_10340" data-name="Path 10340" d="M2189.719,894.257l-2.279,3.465a5.041,5.041,0,0,0,1.977,3.678l3.115-2.9S2190.519,897.731,2189.719,894.257Z" transform="translate(-2172.518 -873.433)" fill="#dceaff"/>
        <path id="Path_10341" data-name="Path 10341" d="M2214.023,900.827a8.154,8.154,0,0,0,1.893,3.38s4.864-1.308,6.023-3.8l-2.533-3.27S2219.284,899.611,2214.023,900.827Z" transform="translate(-2194.008 -875.762)" fill="#dceaff"/>
        <path id="Path_10342" data-name="Path 10342" d="M2207.7,871.947a11.932,11.932,0,0,1-7.385,1.57c.08-.68.179-1.4.31-2.1.846-.206,1.556-.334,1.556-.334Z" transform="translate(-2182.923 -854.694)" fill="#e2915a"/>
        <path id="Path_10343" data-name="Path 10343" d="M2201.192,813c-1.514,4.165-7.035,3.1-9.387,2.433-.662-.187-1.072-.344-1.072-.344-.727-.33-.952-1.6-.888-3.2.125-3.17,1.378-7.646,2.1-8.725,1.081-1.623,2.884-3.273,8.241-.975S2203.132,807.663,2201.192,813Z" transform="translate(-2174.453 -798.086)" fill="#ffb27d"/>
        <path id="Path_10344" data-name="Path 10344" d="M2208.3,798.326c-1.691,1.379-5.323,3.931-5.323,3.931a6.586,6.586,0,0,0,.9-1.854,1.825,1.825,0,0,0,.066-.628,3.464,3.464,0,0,1,.5-1.924c.221-.359.3-.732.021-1-.459-.435-1.242-.036-1.756.316a1.038,1.038,0,0,1-1.133.029l-.007,0c-1.444-.9.15-2.5-1.023-3.822s-6.256-1.5-6.052-2.334c-1.735-.98-.641-4.6-.61-4.787a18.747,18.747,0,0,0,5.6-.556c2.523-.634,5.3.987,6.186,1.655a1.414,1.414,0,0,0-.14-.617,1.306,1.306,0,0,1,.375.818c.039.039.056.065.043.073a1.674,1.674,0,0,1,.8.184s-.215-.068-.317.061a.149.149,0,0,1-.043.034C2209.753,790.287,2209.7,797.179,2208.3,798.326Z" transform="translate(-2177.425 -785.551)" fill="#233862"/>
        <path id="Path_10345" data-name="Path 10345" d="M2196.394,856.514s-.271.525-1.637.089c0,0-1.147-.365-.957-.969A3.864,3.864,0,0,1,2196.394,856.514Z" transform="translate(-2177.643 -842.203)" fill="#fff"/>
        <path id="Path_10346" data-name="Path 10346" d="M2192.832,930.361s-3.041,38.441-3,41.644,3.371,6.59,3.371,6.59a14.091,14.091,0,0,0,3.169-5.967c.518-3.064-1.468-41.872-1.468-41.872Z" transform="translate(-2174.452 -902.621)" fill="#2a4e96"/>
        <path id="Path_10347" data-name="Path 10347" d="M2283.646,1046.871h0c-9.246-1.33-6.6-31.932-5.871-32.053s3.385,5.47,3.385,5.47l.253,1.241c.706,7.095,1.735,15.245,3.3,23.842C2284.81,1045.937,2284.416,1046.438,2283.646,1046.871Z" transform="translate(-2244.808 -970.897)" fill="#dceaff"/>
        <g id="Group_19492" data-name="Group 19492" transform="translate(37.836 79.252)">
          <path id="Path_10348" data-name="Path 10348" d="M2335.239,1225.532l-19.552,5.69a4.832,4.832,0,0,1-5.973-3.28l-2.466-8.473a4.832,4.832,0,0,1,3.28-5.973l19.552-5.69a4.833,4.833,0,0,1,5.973,3.28l2.466,8.474A4.833,4.833,0,0,1,2335.239,1225.532Z" transform="translate(-2307.057 -1206.015)" fill="#235fc5"/>
          <path id="Path_10349" data-name="Path 10349" d="M2320.692,1211.964l2.494,8.571a4.847,4.847,0,0,0,3.347,3.3,4.753,4.753,0,0,0,1.611.171h0a4.723,4.723,0,0,0,1.034-.181l19.517-5.68a4.851,4.851,0,0,0,3.292-5.995l-2.493-8.572a4.852,4.852,0,0,0-6-3.292l-6.72,1.956-.532-1.829a1.6,1.6,0,0,0-1.978-1.086l-.737.214-4.088,1.19-1.016.3a1.6,1.6,0,0,0-1.086,1.978l.532,1.829-3.893,1.132c-.154.045-.3.1-.448.155l0,0h0a4.854,4.854,0,0,0-2.895,3.359h0A4.792,4.792,0,0,0,2320.692,1211.964Zm15.13-9.441-6.984,2.033-.531-1.829a.6.6,0,0,1,.406-.738l1.754-.51,3.218-.937.868-.252a.61.61,0,0,1,.178-.023.6.6,0,0,1,.561.429Z" transform="translate(-2317.926 -1199.267)" fill="#3c77dc"/>
        </g>
        <path id="Path_10350" data-name="Path 10350" d="M2369.221,1181.625s-.606,5.07.531,5,3.918-.618,4.108-1.491-2.13-4.946-2.13-4.946Z" transform="translate(-2319.345 -1104.588)" fill="#ffb27d"/>
        <path id="Path_10351" data-name="Path 10351" d="M2365.562,1187.633a4.709,4.709,0,0,0-.945,1.931c-.075.851-.49,2.337-.1,2.433s1.1-1.851,1.1-1.851Z" transform="translate(-2315.54 -1110.609)" fill="#ffb27d"/>
        <path id="Path_10352" data-name="Path 10352" d="M2276.06,917.568s4.911,1.175,8.793,8.633,6.949,22.5,8.8,26.469,3.264,15.882,3.264,15.882a1.823,1.823,0,0,1-1.288.809,6.1,6.1,0,0,1-1.571.1s-7.3-11.695-8.349-15.9c-.567-2.273-9.23-20.473-9.23-20.473Z" transform="translate(-2244.161 -892.279)" fill="#fff"/>
      </g>
      <g id="Group_19494" data-name="Group 19494" transform="translate(52.146 83.734)">
        <path id="Path_10353" data-name="Path 10353" d="M584.678,1562.1l-.736-5.3,3.091-2.583.974,7.016Z" transform="translate(-545.857 -1420.305)" fill="#ffb27d"/>
        <path id="Path_10354" data-name="Path 10354" d="M587.894,1591.757h-12.6a6.921,6.921,0,0,1,.356-3.378c.631-1.4,1.612-2.261,1.7-3.332a3.786,3.786,0,0,0,3.608,1.11,13.821,13.821,0,0,0,2.186,2.834C583.969,1589.583,587.64,1589.373,587.894,1591.757Z" transform="translate(-538.809 -1445.231)" fill="#233862"/>
        <path id="Path_10355" data-name="Path 10355" d="M562.227,1192.67c-.824,6.629-1.5,12.878-2.047,18.7-2.932,31.034-2.357,50-2.357,50s-.212.561-2.03.57a10.4,10.4,0,0,1-2.034-.219s-6.566-20.266-6.059-31.8a17.663,17.663,0,0,1,.512-3.733c1.575-5.9-5.829-28.465,2.219-36.868S562.606,1189.627,562.227,1192.67Z" transform="translate(-515.674 -1122.437)" fill="#2a4e96"/>
        <path id="Path_10356" data-name="Path 10356" d="M562.227,1192.67c-.824,6.629-1.5,12.878-2.047,18.7l-12.48,18.556a17.663,17.663,0,0,1,.512-3.733c1.575-5.9-5.829-28.465,2.219-36.868S562.606,1189.627,562.227,1192.67Z" transform="translate(-515.674 -1122.437)" fill="#2a4e96"/>
        <path id="Path_10357" data-name="Path 10357" d="M677.13,862.175s-.3-1.515-.646-2.67c-.151-.511.9-3.871,1.633-4.284s2.631,1.849,2.093,3.586c-.276.892-.73,3.8-.73,3.8Z" transform="translate(-620.66 -855.172)" fill="#ffb27d"/>
        <path id="Path_10358" data-name="Path 10358" d="M672.486,877.78s-.4-.878-.755-1.021-.742-1.578-1.006-2.148c0,0,.254-.372.7.107.271.292.876,1.149.876,1.149Z" transform="translate(-616.016 -870.776)" fill="#ffb27d"/>
        <path id="Path_10359" data-name="Path 10359" d="M389.582,905.112c-.077.159-.185.444-.28.712q0-.11,0-.216c0-.533-2-3.436-2.816-3.618s-1.975,2.538-.952,4.041c.525.772,1.809,3.416,1.809,3.416l2.123-1.1s.122-.956.423-1.2.248-1.727.333-2.348C390.219,904.806,389.867,904.524,389.582,905.112Z" transform="translate(-385.129 -893.014)" fill="#ffb27d"/>
        <path id="Path_10360" data-name="Path 10360" d="M476.531,1557.635c-.178-1.7-.222-6.168-.222-6.168s4.554-1.455,4.386-.456a32.166,32.166,0,0,0-.6,7.346l-1.841,1.1Z" transform="translate(-458.842 -1417.432)" fill="#ffb27d"/>
        <path id="Path_10361" data-name="Path 10361" d="M497.239,1216.2s-17.592,48.221-21.054,69.138a3.506,3.506,0,0,1-2.3.368,2.57,2.57,0,0,1-2.162-1.386s-3.178-25.07,3.139-33.774c4.34-5.98-1.872-32.241,8.236-34.347S497.239,1216.2,497.239,1216.2Z" transform="translate(-454.489 -1146.288)" fill="#2a4e96"/>
        <path id="Path_10362" data-name="Path 10362" d="M470.774,937.878v0a.39.39,0,0,0-.014-.062c-.1-.424-.215-.842-.336-1.257v0a28.322,28.322,0,0,0-1.279-3.541c-.272-.611-.554-1.178-.843-1.682-.044-.078-.087-.15-.129-.225h0a5.057,5.057,0,0,0-2.009-2.176,6.031,6.031,0,0,0-3.31-.138,1.524,1.524,0,0,1,.632-.422,5.032,5.032,0,0,0-1.712.729c-8.1-1.812-7.629,9.65-7.077,12.247s-2.059,3.86-5.738,6.518c-7.021,5.072-6.9,10.448-6.9,10.448.063.027.132.057.2.094.283-.7.882-2.012,1.51-2.291a27.276,27.276,0,0,0-.674,2.723c1.069.589,2.549,1.5,4.157,2.532h0c2.15,1.376,4.524,2.96,6.425,4.246a4.36,4.36,0,0,1-.047-1.691l.606,1.877.079.245c1.214.823,2.171,1.481,2.658,1.818l.134.091.218.151c-.161-.663.547-2.393,1.736-4.573.081-.152.168-.307.256-.464.384-.689.812-1.415,1.274-2.164.166-.271.334-.541.508-.817a0,0,0,0,1,0,0c.139-.222.281-.442.427-.666v0q.517-.8,1.065-1.605c.942-1.391,1.939-2.772,2.924-4.039a35.445,35.445,0,0,1,4.01-4.5c.039-.079.075-.16.108-.242a8.013,8.013,0,0,0,.435-1.385c.034-.145.064-.291.091-.437a18.988,18.988,0,0,0,.3-3.436,19.472,19.472,0,0,1-.043,3.463c-.023.187-.047.359-.076.519v0a7.076,7.076,0,0,1-.213.911,4.743,4.743,0,0,0,.511-.787,5.543,5.543,0,0,0,.266-.589C471.851,944.876,471.6,941.265,470.774,937.878Z" transform="translate(-431.149 -914.347)" fill="#163560"/>
        <path id="Path_10363" data-name="Path 10363" d="M552.33,1010.7c.027.008-2.268,1.669-4.216,1.436-1.831-.218-3.321-2.329-3.3-2.338.723-.259.786-1.315.115-5.714l.347.016,5.833.279s.136,1.8.382,3.483C551.7,1009.27,551.984,1010.595,552.33,1010.7Z" transform="translate(-514.226 -975.556)" fill="#ffb27d"/>
        <path id="Path_10364" data-name="Path 10364" d="M553.063,1004.445s.136,1.8.382,3.483c-3.184.382-5.29-2.261-6.215-3.762Z" transform="translate(-516.178 -975.624)" fill="#ed975d"/>
        <path id="Path_10365" data-name="Path 10365" d="M531.02,949.828a16.849,16.849,0,0,1-2.785-4.564c-.523-1.56-.591-7.622,5.506-7.654a8.2,8.2,0,0,1,3.553.771c1.426.683,3.578,2.294,2.258,7.789L539.269,948Z" transform="translate(-500.645 -921.815)" fill="#163560"/>
        <path id="Path_10366" data-name="Path 10366" d="M526.623,1064.6a24.7,24.7,0,0,1-17.119,2.191c-.112-.028-7.847-1.262-7.847-1.262.133-.364,1.132-6.338,1.263-6.673,1.691-4.363,4.78-28.041,7.362-29.209.659.718,2.543,1.209,4.155,1.066,1.857-.164,2.478-.966,2.324-1.829,2.055.971,3.633,1.875,3.633,1.875C522.273,1033.572,526.623,1064.6,526.623,1064.6Z" transform="translate(-479.335 -995.607)" fill="#fff"/>
        <path id="Path_10367" data-name="Path 10367" d="M546.687,960.859s-7.483,1.239-8.183-3.432-2.138-7.658,2.61-8.647,5.945.654,6.558,2.157S548.616,960.415,546.687,960.859Z" transform="translate(-508.507 -930.604)" fill="#ffb27d"/>
        <path id="Path_10368" data-name="Path 10368" d="M535.983,943.809s-1.239,5.787-4.27,7.067-4.524.638-4.524.638a9.024,9.024,0,0,0,2.135-5.708S534.046,941.43,535.983,943.809Z" transform="translate(-499.976 -926.257)" fill="#163560"/>
        <path id="Path_10369" data-name="Path 10369" d="M570.784,944.854a6.7,6.7,0,0,1,2.267,2.13c.551,1.134,1.083,3.559,1.785,3.369,0,0,.993-3.956-1.059-5.805C571.6,942.587,570.784,944.854,570.784,944.854Z" transform="translate(-535.219 -926.781)" fill="#163560"/>
        <path id="Path_10370" data-name="Path 10370" d="M601.951,890.517a4.782,4.782,0,0,0-1.338-.413,4.154,4.154,0,0,0-1.176.123s-2.111,13.123-2.268,13.819-9.055,10.719-11.454,10.679c-2.166-.036-4.733,1.636-5.209,1.958,0,0,5.045,10.668,5.3,12.672.274,2.181,2.885,35.76,2.885,35.76s-.155,1.562,2.763.722S595.1,964.3,595.1,964.3s-2.681-26.436-3.244-34.657a15.738,15.738,0,0,0-.512-3.068,3.108,3.108,0,0,1,.5-2.641c3.69-5.066,9.518-13.273,9.842-15.017C602.166,906.356,601.951,890.517,601.951,890.517Z" transform="translate(-543.079 -883.405)" fill="#aec3ff"/>
        <path id="Path_10371" data-name="Path 10371" d="M478.806,1591.757h-12.6a6.918,6.918,0,0,1,.356-3.378c.631-1.4,1.612-2.261,1.7-3.332a3.786,3.786,0,0,0,3.608,1.11,13.817,13.817,0,0,0,2.186,2.834C474.88,1589.583,478.552,1589.373,478.806,1591.757Z" transform="translate(-450.618 -1445.231)" fill="#233862"/>
        <path id="Path_10372" data-name="Path 10372" d="M431.3,965.181c-.424-2.613-5.846-13.106-5.846-13.106s-3.428-1.025-5.684-.208-13.928-5.773-14.3-6.38-6.626-12.256-6.626-12.256a1.45,1.45,0,0,0-1.349.133,1.52,1.52,0,0,0-.825,1.265s4.825,14.667,6.109,16.936c.774,1.368,7.282,6.132,12.327,9.7a3.167,3.167,0,0,1,1.311,3.01c-.678,5.015-.851,7.84-1.631,16.446-.647,7.139-.895,20.962-.895,20.962a46.66,46.66,0,0,0,9.543,2.213c3.9.259,4.746-3.849,4.746-3.849S431.741,967.868,431.3,965.181Z" transform="translate(-394.461 -918.196)" fill="#aec3ff"/>
        <path id="Path_10373" data-name="Path 10373" d="M571.64,998.176a3.341,3.341,0,0,0,1.982.373c.735-.11.9-.982.9-.982a2.9,2.9,0,0,0-1.327,0A5.655,5.655,0,0,0,571.64,998.176Z" transform="translate(-535.911 -970.231)" fill="#fff"/>
      </g>
      <g id="Group_19496" data-name="Group 19496" transform="translate(221.331 0)">
        <path id="Path_10374" data-name="Path 10374" d="M1812.73,502.258s-3.5-6.222,0-7.488,5.085-.1,5.252,1.319-1.334,7-1.334,7Z" transform="translate(-1707.183 -479.638)" fill="#ffb27d"/>
        <path id="Path_10375" data-name="Path 10375" d="M1622.33,569.294a113.216,113.216,0,0,1-17.551,1.8,97.877,97.877,0,0,1-13.491-.607q-1.59-.183-3.058-.407c-10.336-1.567-16.043-4.347-16.043-4.347s9.444-19.769,17.072-19.01c8.95.892,24.117,8.924,25.625,6.671,1.7-2.538,3.118-24.3,3.118-24.3,3.968-2.718,6.338.147,6.338.147S1632.09,567.534,1622.33,569.294Z" transform="translate(-1513.976 -506.879)" fill="#0e84de"/>
        <path id="Path_10376" data-name="Path 10376" d="M1693.007,698.041a113.227,113.227,0,0,1-17.551,1.8,97.893,97.893,0,0,1-13.491-.607c-2.381-7.573-4.093-15.308.7-10.645C1671.109,696.817,1693.007,698.041,1693.007,698.041Z" transform="translate(-1584.654 -635.625)" fill="#0d66aa"/>
        <path id="Path_10377" data-name="Path 10377" d="M1567.865,1564.269s-.679,7.859.982,8.677l21.26-.044s0-2.454-3.415-3-9.414-2.544-10.429-7S1567.865,1564.269,1567.865,1564.269Z" transform="translate(-1510.371 -1342.24)" fill="#233862"/>
        <path id="Path_10378" data-name="Path 10378" d="M1535.85,976.69c-.1,5.139-.352,10.439-.835,15.2-2.3,22.6-3.1,49.917-3.433,55.182-.572,9.141-2.378,23.744-2.378,23.744s-3.582,3.4-10.563,1.777a237.655,237.655,0,0,1-7.076-43.179c-.02-.363-.04-.729-.058-1.094-.15-2.928-.307-6.276-.467-9.886-1.064-24.181-2.219-60.1-2.219-60.1l26.678-6.265S1536.112,963.879,1535.85,976.69Z" transform="translate(-1462.749 -849.776)" fill="#2a4e96"/>
        <path id="Path_10379" data-name="Path 10379" d="M1535.85,976.69c-6.761,11.665-19.648,33.156-24.811,41.748-1.064-24.181-2.219-60.1-2.219-60.1l26.678-6.265S1536.112,963.879,1535.85,976.69Z" transform="translate(-1462.749 -849.776)" fill="#233862"/>
        <path id="Path_10380" data-name="Path 10380" d="M1273.868,962.621s-4.341,5.105-4.732,6.521-1.086,6.516-.713,8.048,3.259-4.273,4.308-4.893-.788,2.309-.429,2.8,2.432-1.71,3.24-2.454.728-4.748,1.7-7.116S1273.868,962.621,1273.868,962.621Z" transform="translate(-1268.317 -858.304)" fill="#ffb27d"/>
        <path id="Path_10381" data-name="Path 10381" d="M1278.724,1523.578s-3.784,3.453-3.046,5.907,4.153,4.089,4.615,7.088,2.307,4.634,3.969,4.634h7.92s1.223-2.11-1.73-2.746-4.067-4.16-3.882-7.432a57.641,57.641,0,0,0-.277-7.633l-6.276-1.454Z" transform="translate(-1274.19 -1310.48)" fill="#233862"/>
        <path id="Path_10382" data-name="Path 10382" d="M1355.993,953.365s-24.974,53.434-38.264,76.88-17.443,29.989-17.443,29.989-7.614-3-8.306-5.044c0,0,5.082-45.263,13.982-56.3,5.029-6.235,10.936-24.945,11.213-31.488s6.111-22.16,6.111-22.16Z" transform="translate(-1287.447 -844.257)" fill="#2a4e96"/>
        <path id="Path_10383" data-name="Path 10383" d="M1476.118,673.68a43.28,43.28,0,0,1-23.988,6.023c-6.168-.27-18.4-2.018-20.38-6.924-.464-1.152-.124-2.614.572-4.857,1.8-5.832,6.013-16.936,4.742-41.557a40.384,40.384,0,0,1,.166-6.461c1.324-12.127,8.274-19.309,14.991-21.656,16.383-5.726,21.844,2.207,21.844,2.207s7.242,5.737,8.333,17.71C1484.58,642.114,1476.118,673.68,1476.118,673.68Z" transform="translate(-1400.271 -562.052)" fill="#0e84de"/>
        <path id="Path_10384" data-name="Path 10384" d="M1564.572,535.779s7.517,4.572,15.67,3.279c0,0,1.612-.41.82-2.3a24.259,24.259,0,0,0,.724-2.525,38.1,38.1,0,0,0,.934-4.119l-4.627-4.863-4.383-4.647C1572.5,531.71,1564.572,535.779,1564.572,535.779Z" transform="translate(-1507.821 -500.959)" fill="#ffb27d"/>
        <path id="Path_10385" data-name="Path 10385" d="M1608.609,542.592s2.518,6.73,8.778,9.417c.715-2.612,1.18-5.344,1.18-5.344l-4.874-3.638Z" transform="translate(-1543.422 -518.737)" fill="#ed985f"/>
        <path id="Path_10386" data-name="Path 10386" d="M1616.956,470.019s-14.349,1.794-15.356-7.024-3.537-14.524,5.582-16.042,11.286,1.651,12.349,4.515S1620.663,469.325,1616.956,470.019Z" transform="translate(-1536.867 -441.1)" fill="#ffb27d"/>
        <path id="Path_10387" data-name="Path 10387" d="M1578.032,422.48c-.124-.153-.418-.284-1.081-.346a2.7,2.7,0,0,1,1.255-.3,3.344,3.344,0,0,1,2.333-2.873,2,2,0,0,0-1.021,1.4c1.914-1.822,5.912-3.05,16.809-1.774,14.36,1.681,9.265,10.724,7.359,11.753s-6.486-2.163-9.971-2.018-4.335,5.14-5.54,5.784-.7-.556-2.263-1.337-1.819,1.856-1.423,3.591-1.881,3.919-1.881,3.919l-2.124-2.468c-2.124-2.468-3.829-12.647-2.741-14.762C1577.839,422.859,1577.934,422.67,1578.032,422.48Z" transform="translate(-1517.828 -418.061)" fill="#2c3a64"/>
        <g id="Group_19495" data-name="Group 19495" transform="translate(78.292 7.092)">
          <path id="Path_10388" data-name="Path 10388" d="M1707.847,492.105l-24.359.217-.166-3.665,24.283-1.882Z" transform="translate(-1682.114 -480.704)" fill="#2a4e96"/>
          <path id="Path_10389" data-name="Path 10389" d="M1794.136,482.644l-26.521.383-.3-6.663,26.446-2.049Z" transform="translate(-1750.015 -470.631)" fill="#2a4e96"/>
          <path id="Path_10390" data-name="Path 10390" d="M1904.586,474.126l-22.365.028-.408-8.995,22.274-2.027Z" transform="translate(-1842.581 -461.591)" fill="#233862"/>
          <path id="Path_10391" data-name="Path 10391" d="M1994.63,469.136h0a1.251,1.251,0,0,0,1.193-1.306l-.525-11.554a1.25,1.25,0,0,0-1.306-1.193h0a1.25,1.25,0,0,0-1.192,1.306l.525,11.554A1.251,1.251,0,0,0,1994.63,469.136Z" transform="translate(-1932.306 -455.082)" fill="#233862"/>
          <path id="Path_10392" data-name="Path 10392" d="M1678.315,497.782h0a1.112,1.112,0,0,1-1.161-1.06l-.136-3a1.112,1.112,0,0,1,1.06-1.161h0a1.112,1.112,0,0,1,1.161,1.06l.136,3A1.111,1.111,0,0,1,1678.315,497.782Z" transform="translate(-1677.017 -485.382)" fill="#2a4e96"/>
        </g>
        <path id="Path_10393" data-name="Path 10393" d="M1435.635,767.968c1.805-5.831,6.013-16.936,4.742-41.557a40.385,40.385,0,0,1,.166-6.461h0c5.391-.463,13.633,5.365,13.633,5.365S1449.1,756.259,1435.635,767.968Z" transform="translate(-1403.583 -662.098)" fill="#0d66aa"/>
        <path id="Path_10394" data-name="Path 10394" d="M1341.148,599.829s-13.824,2.376-21.035,11.179-18.809,21.214-21.551,25.56-10.355,33.925-10.355,33.925.5.951,2.6,1.5a4.951,4.951,0,0,0,3.468-.292s10.086-17.262,13.882-25.885c1.577-3.583,28.853-17.772,39.108-16.3C1351.293,630.1,1341.148,599.829,1341.148,599.829Z" transform="translate(-1284.397 -565.009)" fill="#0e84de"/>
        <path id="Path_10395" data-name="Path 10395" d="M1810.594,477.173s2.974,1.819,4.752,1.049,1.622-1.474,1.622-1.474S1811.594,475.258,1810.594,477.173Z" transform="translate(-1706.714 -465.059)" fill="#ffb27d"/>
        <path id="Path_10396" data-name="Path 10396" d="M1407.544,647.31s-6.067,38.3-49.113,49.456l-4.689,9.251,8.237,1.394s49.006-14.2,48.347-60.778Z" transform="translate(-1337.378 -602.847)" fill="#fff"/>
        <path id="Path_10397" data-name="Path 10397" d="M1621.306,618.253l-1.987.195v2.876l2.927,3.043,2.784-.677V619.7l-2-1.445Z" transform="translate(-1552.08 -579.904)" fill="#fff"/>
        <path id="Path_10398" data-name="Path 10398" d="M1562.317,578.49s-1.923.434-6.32,4.088c0,0,4.373,9.282,13.6,10.394a30.848,30.848,0,0,1,.518-6.864S1562.8,583.49,1562.317,578.49Z" transform="translate(-1500.889 -547.758)" fill="#0d66aa"/>
        <path id="Path_10399" data-name="Path 10399" d="M1629.691,607.481s4.5,2.39,4.835,6.114c0,0,1.721-2.727,1.222-4.615a15.377,15.377,0,0,0-2.042-4.052S1633.859,607.2,1629.691,607.481Z" transform="translate(-1560.465 -569.132)" fill="#0d66aa"/>
      </g>
    </g>
  </g>
</svg>
