<svg xmlns="http://www.w3.org/2000/svg" xmlns:xlink="http://www.w3.org/1999/xlink" width="476.155" height="220.164" viewBox="0 0 476.155 220.164">
  <defs>
    <linearGradient id="linear-gradient" x1="0.5" x2="0.5" y2="1" gradientUnits="objectBoundingBox">
      <stop offset="0" stop-color="#104093"/>
      <stop offset="1" stop-color="#0c347b"/>
    </linearGradient>
  </defs>
  <g id="Group_19054" data-name="Group 19054" transform="translate(43.411 0)">
    <g id="Group_19053" data-name="Group 19053" transform="translate(-43.411)">
      <g id="Group_19052" data-name="Group 19052">
        <path id="Path_9969" data-name="Path 9969" d="M486.752,445.189c.022.015.009.03-.108.039-.333-.076-.346-.1-.261-.1-1.638-.8-.846-5.045-2.213-4.941.346-.026-4.993,9.907-5.043,10.82,1.364,1.064,8.706-4.549,9.261-5.868A2.179,2.179,0,0,0,486.752,445.189Z" transform="translate(-12.232 -255.028)" fill="url(#linear-gradient)"/>
        <path id="Path_9970" data-name="Path 9970" d="M483.391,442.9a1.155,1.155,0,0,0-.369-.063,1.182,1.182,0,0,0,.261.1C483.318,442.922,483.355,442.914,483.391,442.9Z" transform="translate(-8.871 -252.739)" fill="url(#linear-gradient)"/>
        <path id="Path_9971" data-name="Path 9971" d="M468.944,454.1c1.79,3.173,14.728-4.337,17.234-7.6.069.034.2-.108.382-.648a.311.311,0,0,0-.117,0C484.515,445.934,468.2,452.777,468.944,454.1Z" transform="translate(-21.041 -250.146)" fill="url(#linear-gradient)"/>
        <path id="Path_9972" data-name="Path 9972" d="M471.83,412.932c-.611.5-4.4-.1-4.216,1.194C468.124,417.753,473.562,412.462,471.83,412.932Z" transform="translate(-22.173 -278.57)" fill="url(#linear-gradient)"/>
        <path id="Path_9973" data-name="Path 9973" d="M467.494,416.554c.661.188-.32-1.494,0,0Z" transform="translate(-22.328 -275.957)" fill="url(#linear-gradient)"/>
        <path id="Path_9974" data-name="Path 9974" d="M480.032,422.619c-.678-3.169-3.352-7.344-7.1-8.713-2.541-.928-6.992-3.273-9.68-3.482-2.129-.168-4.246,3.972-5.831,1.878-2.834-3.741-6.347-5.559-3.43.781,1,2.183,6.4,2.191,8.342,3.942,2.683,2.429-1.027,2.729-.55,4.678.816,3.329,12.258-.846,12.975-.565,1.228.483,5.574,7.053,7.929,4.689C483.734,424.8,480.722,422.814,480.032,422.619Z" transform="translate(-34.867 -282.022)" fill="url(#linear-gradient)"/>
        <path id="Path_9975" data-name="Path 9975" d="M459.358,446.425c-9.184-6.96-3.316,13.871,0,0Z" transform="translate(-33.54 -250.908)" fill="url(#linear-gradient)"/>
        <path id="Path_9976" data-name="Path 9976" d="M453.233,374.165l.011.037C453.516,375.007,453.3,374.37,453.233,374.165Z" transform="translate(-34.578 -311.998)" fill="url(#linear-gradient)"/>
        <path id="Path_9977" data-name="Path 9977" d="M459.649,377.244c-.045-.134-.037-.114-.011-.037-.87-2.673-.272-6.125-4.387-6.567-1.641,1.887,3.342,5.052-.367,7.062-2.934,1.574-1.546,1.636-5.779,2.565-3.763.836-4.689,7.958-.732,7.334.33-.05,4.471-3.594,6.142-4.033C457.941,382.673,460.879,380.871,459.649,377.244Z" transform="translate(-40.982 -315.04)" fill="url(#linear-gradient)"/>
        <path id="Path_9978" data-name="Path 9978" d="M456.657,370.048c-.812-1.213-6.209-3.121-7.044-2.945-.047,1.757-.328,5.663,1.926,6.142,1.038-2.863,3.841.207,5.226-2.932C456.726,369.636,456.67,369.807,456.657,370.048Z" transform="translate(-37.732 -318.103)" fill="url(#linear-gradient)"/>
        <path id="Path_9979" data-name="Path 9979" d="M450.878,419.125c.14.492,1.468.581,1.377-.181C452.089,418.351,450.9,418.535,450.878,419.125Z" transform="translate(-36.61 -273.67)" fill="url(#linear-gradient)"/>
        <path id="Path_9980" data-name="Path 9980" d="M448.2,364.686c-.356,1.034.62,2.221,1.559,2.567C451.312,366.253,449.114,365.165,448.2,364.686Z" transform="translate(-38.981 -320.178)" fill="url(#linear-gradient)"/>
        <path id="Path_9981" data-name="Path 9981" d="M445.93,416.6l-.032.017.017-.006Z" transform="translate(-40.907 -275.375)" fill="url(#linear-gradient)"/>
        <path id="Path_9982" data-name="Path 9982" d="M450.748,416a4.518,4.518,0,0,0-4.018,1.185c.253-.138.592-.32-.015.011-.287.153-.183.1-.017.006a2.164,2.164,0,0,0-1.727,1.641C445.375,419.053,450.275,417.348,450.748,416Z" transform="translate(-41.707 -275.96)" fill="url(#linear-gradient)"/>
        <path id="Path_9983" data-name="Path 9983" d="M446.618,407.483c-1.058,0-4.307-1.146-4.4,1.282.939.332,7.143.484,7.243-1.19l-2.837-.091C446.15,407.481,446.372,407.481,446.618,407.483Z" transform="translate(-44.086 -283.481)" fill="url(#linear-gradient)"/>
        <path id="Path_9984" data-name="Path 9984" d="M444.578,407.357Z" transform="translate(-42.046 -283.355)" fill="url(#linear-gradient)"/>
        <path id="Path_9985" data-name="Path 9985" d="M444.742,407.357Z" transform="translate(-41.905 -283.355)" fill="url(#linear-gradient)"/>
        <path id="Path_9986" data-name="Path 9986" d="M447.827,417.17a5.32,5.32,0,0,0-1.651-5.773,5.442,5.442,0,0,0,1.833-1.885c.164.019.309-.1.276-.5a53.894,53.894,0,0,0-5.41-.27c-2.057.088-1.809,8.178-.639,8.525,1.926.572.6-3.951,2.014-4.216C444.981,414.193,445.8,417.559,447.827,417.17Z" transform="translate(-44.839 -282.167)" fill="url(#linear-gradient)"/>
        <path id="Path_9987" data-name="Path 9987" d="M444.351,416.548c-.156-.781-2.06-1-2.381-.278C442.128,416.908,444.014,417.241,444.351,416.548Z" transform="translate(-44.297 -276.042)" fill="url(#linear-gradient)"/>
        <path id="Path_9988" data-name="Path 9988" d="M441.231,417.135q1.171,1.95,2.014.732c-.015-.6-.058-.3-.048-.11A1.2,1.2,0,0,0,441.231,417.135Z" transform="translate(-44.935 -275.163)" fill="url(#linear-gradient)"/>
        <path id="Path_9989" data-name="Path 9989" d="M443.071,416.641a.354.354,0,0,0,.121-.119c-.127-.572-.229-.533-.268-.352-.984-.674-4.24-.464-4.5.168C438.734,417.595,442.244,417.3,443.071,416.641Z" transform="translate(-47.356 -276.109)" fill="url(#linear-gradient)"/>
        <path id="Path_9990" data-name="Path 9990" d="M492.794,433.059c-3.849-1.962-2.893-11.651-5.844-14.777-4.305,1.757-1.177,14.265-7.608,10.086-6.954-4.464-1.625-2.629-2.291-7.7a66.259,66.259,0,0,0-7.152-1.926c-.881.734-6.068,7.051-7.929,5.447-2.86-2.463-9.551,3.51-10.593,6.014-2.4,5.788-12.124,2.534-15.22,7.61-2.312,3.823-1.045,7.621-1.008,11.634,0-.2,0-.451,0,.009,0,.25,0,.145,0,0,.022,2.94-2.4,6.071-2.383,8.16.017,2.917,11.446-.075,13.477-.276,3.32-2.787,11.133-5.108,15.265-3.536,2.23.848,2.383,4.572,3.35,4.911.572.1,3.35-1.751,3.758-1.926-4.041,5.034,6.269,11.291,10.472,8.493,6.491-4.322,15.7-8.663,18.963-17.111C499.564,444.261,496.747,435.075,492.794,433.059Z" transform="translate(-52.239 -273.927)" fill="url(#linear-gradient)"/>
        <path id="Path_9991" data-name="Path 9991" d="M434.045,435.01v0Z" transform="translate(-51.135 -259.492)" fill="url(#linear-gradient)"/>
        <path id="Path_9992" data-name="Path 9992" d="M444.943,417.9c-1.248-2.433-5.928-3.072-8.247-2.75.076-.011.093-.013,0,0-.7.1-7.647-2.882-7.521-.456C429.294,416.946,443.549,419.375,444.943,417.9Z" transform="translate(-55.342 -277.85)" fill="url(#linear-gradient)"/>
        <path id="Path_9993" data-name="Path 9993" d="M446.854,414.579c.382-3.547,2.619-8.553.276-11.55-.428-3.223-10.278,4.875-11.04,6.606-.924,2.1-5.648-.14-3.26,4.855,1.036,2.187,1.587,3.6,3.741,4.214-.168-.047-.356-.1.013,0,.207.058.173.048.082.022C442.573,420.356,444.054,420.006,446.854,414.579Z" transform="translate(-52.76 -287.738)" fill="url(#linear-gradient)"/>
        <path id="Path_9994" data-name="Path 9994" d="M432.163,410a1.811,1.811,0,0,0,0,3.62A1.811,1.811,0,0,0,432.163,410Z" transform="translate(-54.271 -281.073)" fill="url(#linear-gradient)"/>
        <path id="Path_9995" data-name="Path 9995" d="M437.756,415.531c.056.008.08.011,0,0-1.367-.177-15.4-14.827-17.784-12.1.186,3.322,10.673,14.8,13.111,17.156C439.35,426.636,438.655,415.672,437.756,415.531Z" transform="translate(-63.282 -287.038)" fill="url(#linear-gradient)"/>
        <path id="Path_9996" data-name="Path 9996" d="M406.967,399.551c.091.019.1,0-.268-.119-1.509.592-1.243,7.752,1.9,5.974C410.637,404.255,408.653,400.425,406.967,399.551Z" transform="translate(-75.503 -290.194)" fill="url(#linear-gradient)"/>
        <path id="Path_9997" data-name="Path 9997" d="M383.024,419.705c-1.807,1.479-8.618,7.061-8.8,8.707.019-.173.03-.281,0,0-.38,3.51-2.157,8.1-1.1,11.643.995,3.372,5.423,1.57,6.209-.814C379.706,438.109,386.81,418.084,383.024,419.705Z" transform="translate(-103.996 -272.78)" fill="url(#linear-gradient)"/>
        <path id="Path_9998" data-name="Path 9998" d="M365.164,419.875a.794.794,0,0,0,.324.373C365.747,419.838,365.315,419.771,365.164,419.875Z" transform="translate(-110.576 -272.59)" fill="url(#linear-gradient)"/>
        <path id="Path_9999" data-name="Path 9999" d="M405.317,342.9a.194.194,0,0,0,.088.291,3.428,3.428,0,0,0,.317-.386l.03.011c0-.017.011-.026.015-.043l-.022.006c.009-.015.022-.026.034-.041a.846.846,0,0,0-.169.024l.088.032Z" transform="translate(-75.956 -339.12)" fill="url(#linear-gradient)"/>
        <path id="Path_10000" data-name="Path 10000" d="M349.841,354.4c.108,1.537-.061-.913,0,0Z" transform="translate(-123.811 -329.237)" fill="url(#linear-gradient)"/>
        <path id="Path_10001" data-name="Path 10001" d="M384.789,348.95a4.247,4.247,0,0,0,.723.1C386.2,349.019,384.56,348.127,384.789,348.95Z" transform="translate(-93.66 -334.057)" fill="url(#linear-gradient)"/>
        <path id="Path_10002" data-name="Path 10002" d="M509.758,441.139c2.114,6.142,2.828,21.642,11.736,23.291,1.692-2.193-13.2-20.379-6.973-20.63,3.566-.164,6.047,7.008,8.07,7.7,4.823-.453,8.24-6.913,5.4-10.853-2.016-2.8-8.8-5.561-4.633-9.415,5.449-5.043,3.266,1.515,3.359,2.938.169,2.6,5.019.523,2.845-2.066-1.814-2.159,6.522-4.095,7.7-4.5,5.13-1.753,6.418-7.1,6.971-11.772a17.3,17.3,0,0,0-3.3-4.952c-4.948-5.142-3.329-2.515-1.192-7.7-.717-.425-8.514-.192-8.249-2.66.591-5.593,5.06-.827,5.684-.458,3.817-.734,7.4.082,9.354,4.035,3.312,6.8,8.029.963,1.464-3.391-5.522-3.692,3.268-6.237,4.764-7.407,3.178-2.487,1.153-14.853,0-14.415,2.012-.768,4.406,5.35,6.051,5.96,5.43-5.79-14.779-10.488-17.234-10.82-2.66-.365.268-7.083,2.461-7.34,1.023-.121,14.486.822,14.591.1.114-.786-2.193-6.086,2.414-3.806,3.867,1.915,1.922,0,4.1-1.146,2.634.777,2.081,5.557.523,6.917-2.9,2.537,8.366,10.175,10.019,11.237,5.9-2.951-4.875-11.425-5.037-12.377-.4-2.351,11.176-4.035,13.747-5.96-.414-1.913-4.331-1.01-4.49-3.027-.268-3.208,9.086.393,10.451.093.7-7.139-34.06-7.472-37.225-7.245a20.568,20.568,0,0,1-9.9-1.649c-4.424-1.773-9.356.332-13.849-1.192-4.65-1.583-9.8-2.267-14.117-.276-1.107.509-7.869,1.218-8.808.874-4.158-1.528-5.537-4.458-11-3.623-3.951.617-6.038,0-10.175,0a15.465,15.465,0,0,1-5.345-1.114c-.089.332-.237.415-.346.374a3.214,3.214,0,0,1-2.468,1.1c-.266-.645,1.485-1.151,2.381-1.4a.433.433,0,0,1,.291-.138c-4.7-1.755-9.341-4.723-15.416-3.234-5.7,1.4-14.151,1.589-18.521,4.767-.63,1.153-5.516,3.07-7.245,3.119-1.615.047-3.482-5.3-6.047-.907-1.9,3.243,2.448,2.344,2.748,4.482-3.327-.069-6.887-1.4-10.267-1.651-.687.859-11.707,4.123-15.222,4.311-2.286.119-2.3-5.391-2.934.458-2.237,1.12-6.734,1.168-8.344,2.383q.531.668,1.01,1.377a3.83,3.83,0,0,1-4.309-3.392c1.116-.354,7.819,1.636,7.7-1.192-.311-7.657-30.163-5.309-32.641-1.008-3.057,5.309-14.624,6.507-12.286,13.2,1.593,4.538,6.805-2,7.83.549.857,2.131,3.653,4.622-.769,4.585a3.875,3.875,0,0,0-.55-2.66c-3.338,1.589-1.313,5.969-3.836,6.2-4.2.38-3.139,2.405-6.8,3.981-.892.384-11.092,4.844-11.1,4.861.872,1.755,10.17,8.193.825,7.975-6.2-.158-12.26,3.42-8.709,10.362.8,1.556,4.343-.915,4.309,2.476-.035,3.124-4.564,4.253-5.96,6.6-2.509,4.21-6.332,6.129-8.894,10.269-3.575,5.814-6,15.651-4.678,22.557.777,3.983,9.669,11.021,12.864,13.165,5.7,3.827,15.667-3.337,21.8-2.439a9.165,9.165,0,0,1,3.3,3.484,37.1,37.1,0,0,1,4.216-.274,3.052,3.052,0,0,1,2.006,3.827c-2.18,7.381,1.882,8.914,4.87,15.427,2.508,5.449.4,8.733-.823,14.03-1.427,6.151,1.88,6.744,3.484,12.56.794,2.873.2,6.353,1.835,9.078,1.144,1.917,4.27,5.019,4.309,7.426.084,5.978,5.209,3.724,9.9,3.392,5.252-.371,11.994-6.524,13.657-11.247,1.066-3.02,5.108-5.05,4.905-8.141-.522-7.964,3.018-5.773,8.057-11.308,3.9-4.283-.948-12.728-1.5-17.167-.494-3.9,6.74-10.882,9.535-12.927,4.482-3.264,5.933-6.539,8.842-10.895,7.176-10.747-9.492-.8-11.224-7.716-.963-3.9-9.182-6.986-10.544-11.647-1.476-5.037-4.989-8.84-6.6-14.026,2.319-3.012,11.964,13.776,13.2,15.585a22.538,22.538,0,0,1,3.3,7.224c1.162,4.745,4.644,1.42,7.981.57,4.633-1.218,14.061-5.643,15.954-10.27,2.163-5.108,1.392-6.692-3.942-10.175-5.267,4.557-9.868.986-13.119-4.853-2.863-5.14,5.5,1.427,5.416,1.367,2.159,1.442,4.769,3.137,7.359,1.829,1.129-.568,3.977,2.39,5.753,2.573,3.629.373,7.364-.365,10.913,0,6.1.62,4.637,8.327,11.183,6.783.421.2,10.384,32.557,13.847,18.339,1.345-5.756-.352-7.034,3.942-11.461,4.337-4.484,6.319-5.958,11.643-7.7,2.912-.956,5.162,3.487,7.247,6.1,1.021,1.276-.08,6.552,3.45,3.342C508.864,436.784,509.194,439.535,509.758,441.139ZM376.167,365.956c-.16-2.336-5.145-3,.324-5.423,1.775-.784,4.084-5.468,6.643-3.012,0,3.359-5.321,2.129-3.758,6.785,1.4,4.156,7.381-.959,9.9,1.192-.872,1.906-8.61.022-8.62,2.66.432.861,3.29-1.259,3.027,1.189-.011.1-6.243,4.782-8.16,4.585-.8-.08-10.829,2.2-10.637.093C365.034,372.419,376.56,371.6,376.167,365.956Zm22.005,112.777c-.565-.063-.561-.2-.412-.279a3.192,3.192,0,0,1-1.146-3.849c.356,0,1.507,2.9,1.58,3.864C398.237,478.521,398.241,478.607,398.172,478.733Zm6.876,6.692a2.464,2.464,0,0,1,0,3.027c-.4-.168-.421-.306-.324-.373C404.3,487.26,404.1,485.425,405.048,485.425Zm-1.284-16.137c-1.861,3.832-5.293-1.256-1.9-2.791C404.809,465.169,404.655,467.464,403.764,469.288Zm-17.787-57.764c-3.152-5.553-6.042,3.2-6.876,3.3-2.59.3-5.036-2.159-6.783-3.391-.92-.648-9.641-1.34-7.152-3.89,2.673-2.74-1.485-3.964-3.3-3.9-1.746.056-21.618,3.307-21.636,1.742-.019-1.375,7.91-2.141,8.525-5.96.3-1.848,6.457-6.859,7.824-6.341,4.143,1.561,5.125-4.234,8.679.473,3.027,3.987,7,2.826,7.886,8.07.918.151,2.887-3.046,3.668-3.579-.324-3.188-9.984-3.461-8.894-8.34,1.282-1.736,10.4,5.445,10.727,7.608.443,2.981,7.908,10.01,7.977,4.311a8.208,8.208,0,0,1-2.383-3.027c1.066-5.414,8.707,5.507,9.656,5.954,3.236,1.528,11.565-3.249,11.247,2.94C404.672,417.066,392.039,413.141,385.977,411.524Zm25.03-14.853c-4.22.764-8.342-2.765-12.286-1.282-1.228.456-6.407,2.858-7.426,2.016-.274-2.578,1.19-5.948,3.1-8.734,1.738-2.532,5.689,2.2,8.724,1.123q-.662-.573-1.282-1.192a3.324,3.324,0,0,1,4.033-1.557c1.466,3.057-2.455,1.861,2.018,4.583C407.915,391.644,416,395.771,411.007,396.671Zm21.549,6.6c-5.451,5.665-6.779-3.4-6.878-5.227-.1-2.137-8.338-6.174-4.953-8.8,3.024-2.342,11.245-2.4,5.457.568-3.575,1.833,6.012,6.3,6.006,7.226-.116.263-2.059.555-2.107.548.415,2.066,2.2,2.658,2.481,4.549C432.672,401.829,432.752,401.9,432.556,403.273Zm6.785-11.828c-1.013.2-2.564-2.019-1.1-2.385C439.358,388.783,440.828,391.158,439.341,391.445Zm2.647-35.655a2.941,2.941,0,0,1-.723-.1c-.246-.883-2.09-5.77-2.018-6.327C441.12,349,445.7,356,441.988,355.79Zm17.8,32.723c-.421-.624.568-1.52.913-.827C460.631,388.192,460.409,388.552,459.789,388.513Zm44.191-12.288c.194-.632-2.528,3.1-3.3,2.567.009-.119,2.692-5.738,2.381-5.684A3.277,3.277,0,0,1,503.98,376.225Z" transform="translate(-150.136 -340.795)" fill="url(#linear-gradient)"/>
        <path id="Path_10003" data-name="Path 10003" d="M380.2,373.722c-.145.406-.341,1.483-.006,1.136A3.937,3.937,0,0,0,380.2,373.722Z" transform="translate(-97.769 -312.38)" fill="url(#linear-gradient)"/>
        <path id="Path_10004" data-name="Path 10004" d="M405.553,342.735a.258.258,0,0,0-.011.035C405.607,342.748,405.62,342.735,405.553,342.735Z" transform="translate(-75.732 -339.12)" fill="url(#linear-gradient)"/>
        <path id="Path_10005" data-name="Path 10005" d="M361.86,414.728c-.082-.1-.309-.078-.434-.015a4.56,4.56,0,0,0,.412.28A.537.537,0,0,0,361.86,414.728Z" transform="translate(-113.802 -277.054)" fill="url(#linear-gradient)"/>
        <path id="Path_10006" data-name="Path 10006" d="M369.884,347.324c.328-.924-1.552-1.084-1.285-.093C368.786,347.575,369.589,347.6,369.884,347.324Z" transform="translate(-107.635 -335.823)" fill="url(#linear-gradient)"/>
        <path id="Path_10007" data-name="Path 10007" d="M362.533,376.694c.356.877,1.993.371,2.107-.365C364.3,375.66,362.576,375.938,362.533,376.694Z" transform="translate(-112.847 -310.457)" fill="url(#linear-gradient)"/>
        <path id="Path_10008" data-name="Path 10008" d="M346.187,373.753c-.089-.082-.259-.082-.535.142,1.5,2.45,3.549,2.139,4.4-.276A8.548,8.548,0,0,0,346.187,373.753Z" transform="translate(-127.414 -312.607)" fill="url(#linear-gradient)"/>
        <path id="Path_10009" data-name="Path 10009" d="M342.774,371.167c.136-.278.11-.492-.5.142q-1.339,2.811,1.116,2.955,1.959-1.2.589-3.439Z" transform="translate(-130.733 -314.881)" fill="url(#linear-gradient)"/>
        <path id="Path_10010" data-name="Path 10010" d="M342.967,371.008a1.218,1.218,0,0,0,.641-1.375C342.678,368.625,341.758,370.794,342.967,371.008Z" transform="translate(-130.23 -316.138)" fill="url(#linear-gradient)"/>
        <path id="Path_10011" data-name="Path 10011" d="M334.793,363.793c-.091.44-.039.19,0,.007-.4,1.874-3.488,2.975-2.658,5.218,4.335,3.385,10.01-1.1,6.969-5.684-2.239-3.372-3.415-4.691-3.392-7.7-7.206-5.2-1.384,10.382-.918,8.167C334.818,363.67,334.836,363.577,334.793,363.793Z" transform="translate(-139.201 -328.913)" fill="url(#linear-gradient)"/>
        <path id="Path_10012" data-name="Path 10012" d="M333.5,359.518l0,0v0Z" transform="translate(-137.905 -324.637)" fill="url(#linear-gradient)"/>
        <path id="Path_10013" data-name="Path 10013" d="M334.944,359.239a2.593,2.593,0,0,0-3.482-.734h0c-.248.151-.164.1-.009.006-2.342,1.435-3.145,2.47-3.569,5.037C329.829,366.723,335.252,361.587,334.944,359.239Z" transform="translate(-142.747 -325.827)" fill="url(#linear-gradient)"/>
        <path id="Path_10014" data-name="Path 10014" d="M297.427,347.865c-.663-1.069-2.858-.015-2.66.827C295.015,349.747,297.619,348.681,297.427,347.865Z" transform="translate(-171.336 -335.083)" fill="url(#linear-gradient)"/>
        <path id="Path_10015" data-name="Path 10015" d="M287.972,352.054l0,.088C287.971,352.015,287.961,351.746,287.972,352.054Z" transform="translate(-177.193 -331.201)" fill="url(#linear-gradient)"/>
        <path id="Path_10016" data-name="Path 10016" d="M286.893,352.6a1.219,1.219,0,0,0,2.019-.365C288.884,351.467,286.679,351.465,286.893,352.6Z" transform="translate(-178.133 -331.386)" fill="url(#linear-gradient)"/>
        <path id="Path_10017" data-name="Path 10017" d="M292.683,344.177c-.119-.129-.091.214,0,0Z" transform="translate(-173.192 -337.902)" fill="url(#linear-gradient)"/>
        <path id="Path_10018" data-name="Path 10018" d="M246.609,356.734c.021-.173-.156.218,0,0Z" transform="translate(-212.939 -327.079)" fill="url(#linear-gradient)"/>
        <path id="Path_10019" data-name="Path 10019" d="M274.277,348.238c.306-.2-1.762-1.287,0,0Z" transform="translate(-189.627 -334.905)" fill="url(#linear-gradient)"/>
        <path id="Path_10020" data-name="Path 10020" d="M265.271,353.026l.026-.009C265.1,353.084,264.692,353.226,265.271,353.026Z" transform="translate(-197.036 -330.248)" fill="url(#linear-gradient)"/>
        <path id="Path_10021" data-name="Path 10021" d="M359.181,463.766c2.916-9.57-21.673-9.764-18.247-16.6-1.99-1.019-6.192-.1-8.709-.46-.727-.1-8.419-.816-8.435-.825a12.166,12.166,0,0,0,.276-1.926c-1.673-1.671-8.789,6.226-11.737,4.954-5.235-2.269-8.987,2.711-8.07-6.785.66-6.662-2.722-2.588-7.517-4.493-.555-.92,2.075-5.367,2.385-6.235,2.923-8.163-5.749,1.107-6.876,1.468-9.317,2.99-9.425-5.246-6.876-11.828,1.222-3.169,3.223-6.589,7.517-6.876,3.387-.231,8.475-1.379,11.643-1.01,6.174.717,3.664,4.529,8.711,6.6,2.983-2.459-1.472-8.8,5.5-12.286,2.548-1.276,6.513-1.675,6.263-5.278-.306-4.437.851.088,2.172-2.681,1.913-4.016,6.895-2.941,9.354-5.429,2.131-2.168,4.73-6.708,9.535-5.777a3.4,3.4,0,0,0-1.375,1.835c.119.632,11.871-2.4,9.993-4.676-3.23-.184-7.957,3.67-4.033-3.392a4.455,4.455,0,0,0-3.486-.825c.6-4.441,6.148.425,7.061.276a4.6,4.6,0,0,0-1.19-1.468c.659-.432,9.374-2.4,9.81-2.018.32,1.125-4.393,4.637-5.043,5.5,1.1,1.075,4.572.55,6.049.917.466.115.214.052.035.009,6.14,1.5-.121-3.271-.218-4.594-.211-2.873,4.328-4.387.643-7.517-1.9-1.6-3.987-9.618-6.068-7.774-3.6,3.193-5.207,2.023-4.568-1.669-.7-2.787-8.57-3.925-9.736-1.684-1.345,2.59-2.2,8.279-4.283,9.836-2.142,1.6-5.658.114-6.2,3.057-.276,1.487-.982,3.819-3.068,3.642-3.564-.3.44-4.732.276-5.684-.46-2.712-11.6-1.843-12.009-6.694-.324-3.549,15.271-8.722,18.426-9.259q-.88,1.137-1.74,2.291c.38.695,7.228.048,7.426-.367-.412-1.3-3.692-2.131-3.575-3.668.786-.348,3.743-.106,5.026-.423,2.412-.594,2.468-3.515,4.234-4.527,2.053-.917,8.512-.1,8.894,2.752.5,3.778-9.4,2.738-10,4.765.218.32,10.745,4.29,12.379,3.944q-.254-.911-.458-1.833c6.878.579,1.472-4.493,3.759-4.585-1.047.041,10.473,1.975,5.831-1.522-2.424-1.828-3.985-5.537-6.289-6.088-2.675-.635-3.165-2.537-5.878-2.86-2-.237-4.313.406-6.317.2-2.77-.3-7.12-.27-8.558,2.856-1.054,2.29,1.654.991,2.323,2.277-.132,1.347-4.024,3.983-5.317,3.21-.073-.188-1.451-3.962-1.42-4.154.745-4.426,4.4-1.362,6.187-4.464-.965-3.776-7.467,2.6-8.344,2.385a13.347,13.347,0,0,1,1.01-2.385c-.591-1.142-6.774.7-7.245,1.282,1.332,2.332,2.632.822,4.035,1.928.17,1.056-1.218,6.036-3.484,4.676q.584-.743,1.192-1.468c-.037-1.842-13.119,5.272-12.56.093,1.393-.052,6.742,1.054,7.424-1.192-.138-3.335.548-1.7,1.468-4.954-.194-.4-8.618,1.013-10.544.458-3.273-.933-13.078-3.91-15.315,1.494-.971,2.344,5.961.166,6.422.157,1.243,7.185-11.692,2.243-14.762,2.66a78.038,78.038,0,0,1-21.823-.184c-9.058-1.153-14.941.289-24.2,1.651-2.983.436-3.074,4.387-4.1,4.136-1.161-.285-8.065-.783-7.914,1.641.112,1.8,4.13.378,5.043,1.1.268,2.215-11.079,1.161-11.37,3.849-.8,7.284,22.469,1.256,23.622,2.049.913.626,10.339,1.248,7.973,4.641-2.459,3.527,1.2,2.94,1.964,4.041-.2-.289-.671,11.679-.619,11.548-3.173,8.188-9.821,9.972-8.642,19.809.263,2.189,8.976,11.025,5.678,13.788-.078.065,2.94,8.657,5.507,8.124,1.578-2.046-6.982-12.457-3.428-13.916.632-.257,3.925,7.2,5.078,8.324.279,3.923,3.843,6.455,4.033,11,.127,2.848,8.445,5.479,10.269,6.327,3.348,1.552,6.327-.982,8.828,1.792a4.681,4.681,0,0,0,4.007,2.608c4.778,1.041,10.734,12.528,15.587,11.094,2.457-.717,3.519-4.987,5.043,1.285.959,3.9-.712,5.995-2.932,8.709-3.15,3.849-4.249,10.477-1.1,14.03,2.934,3.29,5.412,8.538,7.152,12.471,1.854,4.18,8.3,3.526,10.544,7.427,3.342,5.8,1.228,17.074,2.658,23.743.721,3.368-1.9,16.3,2.476,18.247a3.425,3.425,0,0,0,.458-2.2c.6.183,1.03,11.194,3.025,13.845,1.639,2.157,16.236,13.737,17.7,7.334-1.306-3.014-12.072-5.1-6.22-10.442,2.8-2.554-6.04-2.953-2.232-5.265.754-.46,2.1-3.72,2.31-4.739-.84-1.436-2.94.876-2.567-2.293a46.5,46.5,0,0,0,8.985-4.492c3.7-2.424-1.013-4.4-1.468-6.6,3.711-.719,5.581,1.993,7.794-2.474,1.028-2.053,1.179-2.986,2.75-4.952,3.83-4.773.346-9.136,7.7-11.736,5.738-2.01,8.16-6.1,8.16-12.56,0-5.8,6.431-9.214,6.142-14.4C384.146,466.171,363.034,471.866,359.181,463.766Zm0-109.932c.065.46-.19.6-.641.548C358.179,353.923,358.773,353.546,359.181,353.833Zm-11.509-8.639a1.207,1.207,0,0,0-.222.2C347.485,345.271,347.558,345.187,347.672,345.195Zm-.227.212c0,.879.4.17.41-.138a.86.86,0,0,1,.142.129C347.579,346.389,347.348,345.776,347.444,345.407Zm-30.23,41.92c-.87,1.375-5.376,6.517-5.987,6.39-1.749-.369,3.774-9.482,6.144-6.694C317.323,387.4,317.257,387.417,317.214,387.327Zm4.978,5.421c-1.338.766-4.5,2.539-4.73,1.058-.142-.933,2.986-1.328,4.493-1.338.1-.063.3-.078.663.037l-.006,0a.5.5,0,0,1,.075.017A.849.849,0,0,1,322.192,392.748Zm6.477-2.383c-.106-.043-.164.1-.179.242.084-.063.168-.121.25-.194-.177.725-.278.451-.25.194a3.209,3.209,0,0,1-3.6.266C325.005,390.032,328,389.926,328.67,390.366Zm-7.722-3.8c.514.043,4.758.6,3.217,2.111a1,1,0,0,1-.194.181c-1.256.155-3.236,2.446-3.94,2.385C318.8,391.133,318.543,386.358,320.948,386.565Zm-2.291-1.01.639-.272-.639.272c-.015.006-.011,0,0,0-1.069.455-8.262-.143-8.618-.732C311.411,379.726,322.015,384.125,318.656,385.556Zm-5.5-33.1q-3.035-.243-6.053-.641C307.253,349.4,314.472,351.609,313.155,352.457Zm-7.245,21.638c1.716-.4,1.023,2.623,0,2.66C304.483,376.805,304.761,374.363,305.91,374.095Zm-9.143-12.2c.1-.035.151-.052-.026.009a6.691,6.691,0,0,1-3.575.641C293.412,360.288,300.7,360.516,296.767,361.892Zm-.484-6.595-.512.088.512-.088a11.9,11.9,0,0,1-4.216.827C292.667,351.967,299.956,354.673,296.282,355.3Zm-34.107,13.48c-.449.63-.455.363-.343.026.112-.007.227-.1.251-.395-.035,0-.052.009-.084.011C262.129,368.2,262.248,368.163,262.176,368.778Zm61.613,80.228c-.686.108-1.03-1.071-.365-1.379C324.3,447.223,324.513,448.886,323.789,449.006Z" transform="translate(-228.505 -339.123)" fill="url(#linear-gradient)"/>
        <path id="Path_10022" data-name="Path 10022" d="M276.143,366.852a1.212,1.212,0,0,0,.157-.3C276.064,366.273,276.074,366.705,276.143,366.852Z" transform="translate(-187.433 -318.648)" fill="url(#linear-gradient)"/>
        <path id="Path_10023" data-name="Path 10023" d="M278.7,369.43c-.153.1-.037.294.237.279l.421-.24A3.7,3.7,0,0,0,278.7,369.43Z" transform="translate(-185.249 -316.084)" fill="url(#linear-gradient)"/>
        <path id="Path_10024" data-name="Path 10024" d="M279.826,367.6a2.334,2.334,0,0,0,.194-.181C280.15,367.23,279.324,367.658,279.826,367.6Z" transform="translate(-184.359 -317.863)" fill="url(#linear-gradient)"/>
        <path id="Path_10025" data-name="Path 10025" d="M245.862,359.583c-.2-.382-.263-.309-.251-.162-.719-.415-1.218-.151-1.492.8Q244.928,361.493,245.862,359.583Z" transform="translate(-215.032 -324.885)" fill="url(#linear-gradient)"/>
      </g>
    </g>
    <g id="Group_19055" data-name="Group 19055" transform="translate(36.119 42.396)">
      <g id="Group_6456" data-name="Group 6456" transform="translate(0 0)">
        <g id="Group_17482" data-name="Group 17482">
          <g id="Group_17582" data-name="Group 17582">
            <path id="Path_2269" data-name="Path 2269" d="M115.764,7.647a7.041,7.041,0,0,0-5.11,2.075,6.78,6.78,0,0,0-2.11,4.981,6.9,6.9,0,0,0,2.11,5.089,7.038,7.038,0,0,0,5.11,2.075,7.1,7.1,0,0,0,7.084-7.027,7.011,7.011,0,0,0-2.077-5.082A6.809,6.809,0,0,0,115.764,7.647Zm-2.611,4.48a3.568,3.568,0,0,1,2.611-1.057,3.314,3.314,0,0,1,2.5,1.084,3.709,3.709,0,0,1,1.048,2.686,3.473,3.473,0,0,1-1.057,2.528,3.283,3.283,0,0,1-2.437,1.08,3.65,3.65,0,0,1-3.742-3.743,3.43,3.43,0,0,1,1.076-2.578Z" transform="translate(-108.542 -7.646)" fill="#fff"/>
            <path id="Path_2270" data-name="Path 2270" d="M120.029,16.905a2.164,2.164,0,1,1-2.164-2.164A2.164,2.164,0,0,1,120.029,16.905Z" transform="translate(-110.711 -9.793)" fill="#fff"/>
          </g>
        </g>
      </g>
    </g>
    <g id="Group_19056" data-name="Group 19056" transform="translate(272.143 101.154)">
      <g id="Group_6456-2" data-name="Group 6456" transform="translate(0 0)">
        <g id="Group_17482-2" data-name="Group 17482">
          <g id="Group_17582-2" data-name="Group 17582">
            <path id="Path_2269-2" data-name="Path 2269" d="M115.764,7.647a7.041,7.041,0,0,0-5.11,2.075,6.78,6.78,0,0,0-2.11,4.981,6.9,6.9,0,0,0,2.11,5.089,7.038,7.038,0,0,0,5.11,2.075,7.1,7.1,0,0,0,7.084-7.027,7.011,7.011,0,0,0-2.077-5.082A6.809,6.809,0,0,0,115.764,7.647Zm-2.611,4.48a3.568,3.568,0,0,1,2.611-1.057,3.314,3.314,0,0,1,2.5,1.084,3.709,3.709,0,0,1,1.048,2.686,3.473,3.473,0,0,1-1.057,2.528,3.283,3.283,0,0,1-2.437,1.08,3.65,3.65,0,0,1-3.742-3.743,3.43,3.43,0,0,1,1.076-2.578Z" transform="translate(-108.542 -7.646)" fill="#fff"/>
            <path id="Path_2270-2" data-name="Path 2270" d="M120.029,16.905a2.164,2.164,0,1,1-2.164-2.164A2.164,2.164,0,0,1,120.029,16.905Z" transform="translate(-110.711 -9.793)" fill="#fff"/>
          </g>
        </g>
      </g>
    </g>
    <g id="Group_19057" data-name="Group 19057" transform="translate(283.78 89.429)">
      <g id="Group_6456-3" data-name="Group 6456" transform="translate(0 0)">
        <g id="Group_17482-3" data-name="Group 17482">
          <g id="Group_17582-3" data-name="Group 17582">
            <path id="Path_2269-3" data-name="Path 2269" d="M115.764,7.647a7.041,7.041,0,0,0-5.11,2.075,6.78,6.78,0,0,0-2.11,4.981,6.9,6.9,0,0,0,2.11,5.089,7.038,7.038,0,0,0,5.11,2.075,7.1,7.1,0,0,0,7.084-7.027,7.011,7.011,0,0,0-2.077-5.082A6.809,6.809,0,0,0,115.764,7.647Zm-2.611,4.48a3.568,3.568,0,0,1,2.611-1.057,3.314,3.314,0,0,1,2.5,1.084,3.709,3.709,0,0,1,1.048,2.686,3.473,3.473,0,0,1-1.057,2.528,3.283,3.283,0,0,1-2.437,1.08,3.65,3.65,0,0,1-3.742-3.743,3.43,3.43,0,0,1,1.076-2.578Z" transform="translate(-108.542 -7.646)" fill="#fff"/>
            <path id="Path_2270-3" data-name="Path 2270" d="M120.029,16.905a2.164,2.164,0,1,1-2.164-2.164A2.164,2.164,0,0,1,120.029,16.905Z" transform="translate(-110.711 -9.793)" fill="#fff"/>
          </g>
        </g>
      </g>
    </g>
    <g id="Group_19058" data-name="Group 19058" transform="translate(313.831 110.082)">
      <g id="Group_6456-4" data-name="Group 6456" transform="translate(0 0)">
        <g id="Group_17482-4" data-name="Group 17482">
          <g id="Group_17582-4" data-name="Group 17582">
            <path id="Path_2269-4" data-name="Path 2269" d="M115.764,7.647a7.041,7.041,0,0,0-5.11,2.075,6.78,6.78,0,0,0-2.11,4.981,6.9,6.9,0,0,0,2.11,5.089,7.038,7.038,0,0,0,5.11,2.075,7.1,7.1,0,0,0,7.084-7.027,7.011,7.011,0,0,0-2.077-5.082A6.809,6.809,0,0,0,115.764,7.647Zm-2.611,4.48a3.568,3.568,0,0,1,2.611-1.057,3.314,3.314,0,0,1,2.5,1.084,3.709,3.709,0,0,1,1.048,2.686,3.473,3.473,0,0,1-1.057,2.528,3.283,3.283,0,0,1-2.437,1.08,3.65,3.65,0,0,1-3.742-3.743,3.43,3.43,0,0,1,1.076-2.578Z" transform="translate(-108.542 -7.646)" fill="#fff"/>
            <path id="Path_2270-4" data-name="Path 2270" d="M120.029,16.905a2.164,2.164,0,1,1-2.164-2.164A2.164,2.164,0,0,1,120.029,16.905Z" transform="translate(-110.711 -9.793)" fill="#fff"/>
          </g>
        </g>
      </g>
    </g>
  </g>
</svg>
