<svg xmlns="http://www.w3.org/2000/svg" xmlns:xlink="http://www.w3.org/1999/xlink" width="762.484" height="352.557" viewBox="0 0 762.484 352.557">
  <defs>
    <linearGradient id="linear-gradient" x1="0.5" x2="0.5" y2="1" gradientUnits="objectBoundingBox">
      <stop offset="0" stop-color="#104093"/>
      <stop offset="1" stop-color="#0c347b"/>
    </linearGradient>
  </defs>
  <g id="Group_19054" data-name="Group 19054" transform="translate(15.725)">
    <g id="Group_19053" data-name="Group 19053" transform="translate(-15.725)">
      <g id="Group_19052" data-name="Group 19052">
        <path id="Path_9969" data-name="Path 9969" d="M491.337,448.2c.036.024.015.048-.173.063-.534-.122-.555-.161-.418-.164-2.622-1.277-1.354-8.078-3.544-7.911.555-.042-7.995,15.865-8.076,17.327,2.184,1.7,13.94-7.285,14.829-9.4A3.49,3.49,0,0,0,491.337,448.2Z" transform="translate(268.527 -143.688)" fill="url(#linear-gradient)"/>
        <path id="Path_9970" data-name="Path 9970" d="M483.613,442.937a1.848,1.848,0,0,0-.591-.1,1.9,1.9,0,0,0,.418.164C483.5,442.973,483.556,442.961,483.613,442.937Z" transform="translate(276.252 -138.427)" fill="url(#linear-gradient)"/>
        <path id="Path_9971" data-name="Path 9971" d="M468.959,459.063c2.867,5.08,23.585-6.945,27.6-12.174.11.054.322-.173.612-1.038a.5.5,0,0,0-.188,0C493.893,445.99,467.766,456.947,468.959,459.063Z" transform="translate(248.284 -132.467)" fill="url(#linear-gradient)"/>
        <path id="Path_9972" data-name="Path 9972" d="M474.369,412.95c-.979.8-7.046-.167-6.751,1.912C468.435,420.67,477.143,412.2,474.369,412.95Z" transform="translate(245.682 -197.792)" fill="url(#linear-gradient)"/>
        <path id="Path_9973" data-name="Path 9973" d="M467.533,416.929c1.059.3-.513-2.392,0,0Z" transform="translate(245.325 -191.787)" fill="url(#linear-gradient)"/>
        <path id="Path_9974" data-name="Path 9974" d="M496.35,430.867c-1.086-5.074-5.367-11.76-11.366-13.952-4.069-1.486-11.2-5.242-15.5-5.576-3.41-.268-6.8,6.36-9.337,3.007-4.537-5.99-10.164-8.9-5.492,1.25,1.6,3.5,10.256,3.508,13.359,6.313,4.3,3.89-1.644,4.37-.88,7.491,1.307,5.331,19.629-1.354,20.778-.9,1.966.773,8.926,11.294,12.7,7.509C502.277,434.357,497.453,431.18,496.35,430.867Z" transform="translate(216.509 -205.724)" fill="url(#linear-gradient)"/>
        <path id="Path_9975" data-name="Path 9975" d="M462.319,447.307c-14.707-11.145-5.31,22.213,0,0Z" transform="translate(219.559 -134.219)" fill="url(#linear-gradient)"/>
        <path id="Path_9976" data-name="Path 9976" d="M453.233,374.165l.018.06C453.686,375.513,453.343,374.493,453.233,374.165Z" transform="translate(217.174 -274.615)" fill="url(#linear-gradient)"/>
        <path id="Path_9977" data-name="Path 9977" d="M467.971,381.215c-.072-.215-.06-.182-.018-.06-1.393-4.281-.436-9.809-7.025-10.516-2.628,3.022,5.352,8.09-.588,11.309-4.7,2.521-2.476,2.619-9.254,4.108-6.026,1.339-7.509,12.744-1.172,11.745.528-.081,7.16-5.755,9.836-6.459C465.235,389.908,469.939,387.024,467.971,381.215Z" transform="translate(202.455 -281.606)" fill="url(#linear-gradient)"/>
        <path id="Path_9978" data-name="Path 9978" d="M460.915,371.825c-1.3-1.942-9.943-5-11.279-4.717-.075,2.813-.525,9.069,3.085,9.836,1.662-4.585,6.151.331,8.368-4.7C461.025,371.166,460.936,371.441,460.915,371.825Z" transform="translate(209.925 -288.644)" fill="url(#linear-gradient)"/>
        <path id="Path_9979" data-name="Path 9979" d="M450.878,419.453c.224.788,2.351.931,2.2-.289C452.817,418.212,450.92,418.508,450.878,419.453Z" transform="translate(212.504 -186.53)" fill="url(#linear-gradient)"/>
        <path id="Path_9980" data-name="Path 9980" d="M448.25,364.686c-.57,1.656.993,3.556,2.5,4.111C453.226,367.195,449.705,365.453,448.25,364.686Z" transform="translate(207.054 -293.414)" fill="url(#linear-gradient)"/>
        <path id="Path_9981" data-name="Path 9981" d="M445.949,416.6l-.051.027.027-.009Z" transform="translate(202.628 -190.448)" fill="url(#linear-gradient)"/>
        <path id="Path_9982" data-name="Path 9982" d="M454.222,416.052a7.235,7.235,0,0,0-6.435,1.9c.406-.221.949-.513-.024.018-.459.245-.292.152-.027.009a3.466,3.466,0,0,0-2.765,2.628C445.618,420.932,453.464,418.2,454.222,416.052Z" transform="translate(200.789 -191.792)" fill="url(#linear-gradient)"/>
        <path id="Path_9983" data-name="Path 9983" d="M449.266,407.646c-1.694-.006-6.9-1.835-7.052,2.053,1.5.531,11.438.776,11.6-1.906l-4.543-.146C448.517,407.643,448.872,407.643,449.266,407.646Z" transform="translate(195.322 -209.078)" fill="url(#linear-gradient)"/>
        <path id="Path_9984" data-name="Path 9984" d="M444.578,407.357Z" transform="translate(200.01 -208.789)" fill="url(#linear-gradient)"/>
        <path id="Path_9985" data-name="Path 9985" d="M444.742,407.357Z" transform="translate(200.335 -208.789)" fill="url(#linear-gradient)"/>
        <path id="Path_9986" data-name="Path 9986" d="M451.727,422.243q1.629-5.1-2.643-9.245a8.715,8.715,0,0,0,2.935-3.019c.263.03.5-.155.442-.805a86.293,86.293,0,0,0-8.663-.433c-3.293.14-2.9,13.1-1.023,13.651,3.085.916.955-6.327,3.225-6.751C447.169,417.476,448.482,422.867,451.727,422.243Z" transform="translate(193.591 -206.059)" fill="url(#linear-gradient)"/>
        <path id="Path_9987" data-name="Path 9987" d="M445.782,416.979c-.251-1.25-3.3-1.6-3.812-.445C442.224,417.555,445.243,418.089,445.782,416.979Z" transform="translate(194.838 -191.983)" fill="url(#linear-gradient)"/>
        <path id="Path_9988" data-name="Path 9988" d="M441.231,417.306q1.875,3.123,3.225,1.172c-.024-.958-.092-.483-.078-.176C443.737,416.8,442.693,416.456,441.231,417.306Z" transform="translate(193.372 -189.962)" fill="url(#linear-gradient)"/>
        <path id="Path_9989" data-name="Path 9989" d="M445.865,417.175a.567.567,0,0,0,.194-.191c-.2-.916-.367-.853-.43-.564-1.575-1.08-6.79-.743-7.2.268C438.92,418.7,444.541,418.225,445.865,417.175Z" transform="translate(187.807 -192.136)" fill="url(#linear-gradient)"/>
        <path id="Path_9990" data-name="Path 9990" d="M528.891,441.945c-6.163-3.141-4.633-18.657-9.358-23.663-6.894,2.813-1.885,22.842-12.183,16.151-11.136-7.148-2.6-4.209-3.669-12.33-.036-.277-10.54-3.028-11.452-3.085-1.411,1.175-9.716,11.291-12.7,8.723-4.579-3.944-15.295,5.62-16.962,9.63-3.845,9.269-19.415,4.057-24.373,12.186-3.7,6.122-1.674,12.2-1.614,18.63,0-.316-.006-.722,0,.015,0,.4,0,.233,0,0,.036,4.708-3.848,9.722-3.816,13.066.027,4.672,18.329-.119,21.581-.442,5.316-4.463,17.828-8.18,24.444-5.662,3.571,1.357,3.815,7.321,5.364,7.864.916.164,5.364-2.8,6.017-3.085-6.471,8.061,10.039,18.081,16.769,13.6,10.393-6.921,25.136-13.872,30.366-27.4C539.732,459.883,535.221,445.172,528.891,441.945Z" transform="translate(176.584 -187.122)" fill="url(#linear-gradient)"/>
        <path id="Path_9991" data-name="Path 9991" d="M434.045,435.01v0Z" transform="translate(179.121 -153.946)" fill="url(#linear-gradient)"/>
        <path id="Path_9992" data-name="Path 9992" d="M454.427,420.4c-2-3.9-9.493-4.919-13.207-4.4.122-.018.149-.021,0,0-1.119.155-12.246-4.615-12.043-.731C429.368,418.876,452.2,422.766,454.427,420.4Z" transform="translate(169.455 -196.137)" fill="url(#linear-gradient)"/>
        <path id="Path_9993" data-name="Path 9993" d="M455.688,421.976c.612-5.68,4.194-13.7.441-18.5-.686-5.161-16.458,7.807-17.678,10.578-1.48,3.359-9.045-.224-5.221,7.774,1.659,3.5,2.542,5.769,5.99,6.748-.268-.075-.57-.158.021.006.331.093.277.078.131.036C448.833,431.226,451.2,430.666,455.688,421.976Z" transform="translate(175.389 -218.861)" fill="url(#linear-gradient)"/>
        <path id="Path_9994" data-name="Path 9994" d="M433.216,410c-3.738,0-3.738,5.8,0,5.8S436.951,410,433.216,410Z" transform="translate(171.916 -203.543)" fill="url(#linear-gradient)"/>
        <path id="Path_9995" data-name="Path 9995" d="M448.451,423.012c.089.012.128.018,0,0-2.19-.283-24.659-23.743-28.478-19.382.3,5.319,17.091,23.707,21,27.472C451,440.795,449.891,423.239,448.451,423.012Z" transform="translate(151.207 -217.251)" fill="url(#linear-gradient)"/>
        <path id="Path_9996" data-name="Path 9996" d="M407.664,399.623c.146.03.152,0-.43-.191-2.416.949-1.99,12.413,3.046,9.567C413.541,407.155,410.363,401.022,407.664,399.623Z" transform="translate(123.121 -224.505)" fill="url(#linear-gradient)"/>
        <path id="Path_9997" data-name="Path 9997" d="M389.179,419.761c-2.894,2.369-13.8,11.306-14.1,13.943.03-.277.048-.45,0,.006-.609,5.62-3.455,12.968-1.76,18.645,1.593,5.4,8.684,2.515,9.943-1.3C383.866,449.232,395.241,417.166,389.179,419.761Z" transform="translate(57.638 -184.485)" fill="url(#linear-gradient)"/>
        <path id="Path_9998" data-name="Path 9998" d="M365.164,419.9a1.271,1.271,0,0,0,.519.6C366.1,419.842,365.406,419.734,365.164,419.9Z" transform="translate(42.516 -184.049)" fill="url(#linear-gradient)"/>
        <path id="Path_9999" data-name="Path 9999" d="M405.338,342.994a.31.31,0,0,0,.14.465,5.489,5.489,0,0,0,.507-.618l.048.018c.006-.027.018-.042.024-.069l-.036.009c.015-.024.036-.042.054-.066a1.355,1.355,0,0,0-.271.039l.14.051C405.8,342.866,405.591,342.923,405.338,342.994Z" transform="translate(122.079 -336.947)" fill="url(#linear-gradient)"/>
        <path id="Path_10000" data-name="Path 10000" d="M349.85,354.525c.173,2.461-.1-1.462,0,0Z" transform="translate(12.101 -314.233)" fill="url(#linear-gradient)"/>
        <path id="Path_10001" data-name="Path 10001" d="M384.8,349.159a6.8,6.8,0,0,0,1.157.164C387.058,349.27,384.436,347.841,384.8,349.159Z" transform="translate(81.393 -325.311)" fill="url(#linear-gradient)"/>
        <path id="Path_10002" data-name="Path 10002" d="M624.275,501.479c3.386,9.836,4.528,34.656,18.794,37.3,2.709-3.511-21.13-32.633-11.166-33.036,5.71-.263,9.684,11.223,12.923,12.333,7.724-.725,13.195-11.071,8.645-17.38-3.228-4.481-14.09-8.9-7.419-15.077,8.726-8.076,5.229,2.425,5.379,4.7.271,4.156,8.037.838,4.555-3.308-2.906-3.458,10.444-6.557,12.327-7.2,8.216-2.807,10.277-11.372,11.163-18.851a27.7,27.7,0,0,0-5.286-7.929c-7.923-8.234-5.331-4.027-1.909-12.332-1.148-.68-13.633-.307-13.209-4.26.946-8.956,8.1-1.325,9.1-.734,6.112-1.175,11.843.131,14.979,6.462,5.3,10.892,12.858,1.542,2.345-5.429-8.842-5.913,5.233-9.988,7.628-11.861,5.089-3.983,1.847-23.785.006-23.084,3.222-1.229,7.055,8.568,9.689,9.543,8.7-9.272-23.666-16.8-27.6-17.326-4.26-.585.43-11.342,3.941-11.754,1.638-.194,23.2,1.316,23.364.155.182-1.259-3.511-9.746,3.866-6.095,6.193,3.067,3.079,0,6.56-1.835,4.218,1.244,3.332,8.9.838,11.077-4.651,4.063,13.4,16.294,16.044,17.995,9.448-4.725-7.807-18.3-8.066-19.82-.641-3.765,17.9-6.462,22.013-9.543-.662-3.064-6.936-1.617-7.19-4.848-.43-5.137,14.549.63,16.736.149,1.125-11.432-54.542-11.966-59.61-11.6a32.936,32.936,0,0,1-15.853-2.64c-7.085-2.84-14.982.531-22.177-1.909-7.446-2.536-15.692-3.63-22.607-.441-1.772.814-12.6,1.951-14.1,1.4-6.659-2.446-8.866-7.139-17.613-5.8-6.327.987-9.669,0-16.294,0a24.765,24.765,0,0,1-8.559-1.784c-.143.531-.379.665-.555.6A5.147,5.147,0,0,1,572,349.077c-.427-1.032,2.378-1.844,3.813-2.235a.693.693,0,0,1,.465-.221c-7.527-2.81-14.958-7.562-24.686-5.179-9.129,2.243-22.66,2.545-29.659,7.634-1.008,1.846-8.833,4.916-11.6,4.994-2.586.075-5.576-8.487-9.683-1.453-3.037,5.194,3.92,3.753,4.4,7.178-5.328-.11-11.029-2.234-16.44-2.643-1.1,1.375-18.746,6.6-24.376,6.9-3.66.191-3.687-8.633-4.7.734-3.583,1.793-10.784,1.87-13.362,3.816q.85,1.069,1.617,2.2-5.764.175-6.9-5.432c1.787-.567,12.52,2.619,12.33-1.909-.5-12.261-48.3-8.5-52.269-1.614-4.9,8.5-23.418,10.42-19.674,21.142,2.551,7.267,10.9-3.2,12.538.88,1.372,3.413,5.85,7.4-1.232,7.342a6.205,6.205,0,0,0-.88-4.26c-5.346,2.545-2.1,9.558-6.142,9.925-6.718.609-5.027,3.851-10.889,6.375-1.429.615-17.762,7.756-17.768,7.783,1.4,2.81,16.285,13.12,1.322,12.771-9.934-.254-19.632,5.477-13.947,16.592,1.283,2.491,6.954-1.465,6.9,3.965-.057,5-7.309,6.811-9.543,10.57-4.018,6.742-10.14,9.815-14.242,16.443-5.725,9.311-9.6,25.062-7.491,36.121,1.244,6.378,15.483,17.649,20.6,21.082,9.129,6.128,25.089-5.343,34.9-3.9a14.676,14.676,0,0,1,5.286,5.579,59.42,59.42,0,0,1,6.751-.439c2.715.668,3.917,3.741,3.213,6.128-3.49,11.819,3.013,14.275,7.8,24.7,4.015,8.726.638,13.985-1.319,22.466-2.285,9.851,3.01,10.8,5.579,20.113,1.271,4.6.322,10.173,2.938,14.537,1.832,3.07,6.838,8.037,6.9,11.891.134,9.573,8.341,5.963,15.856,5.432,8.41-.594,19.206-10.447,21.87-18.01,1.706-4.836,8.18-8.087,7.855-13.037-.835-12.753,4.833-9.245,12.9-18.108,6.25-6.858-1.518-20.381-2.4-27.49-.79-6.244,10.793-17.425,15.268-20.7,7.178-5.227,9.5-10.471,14.158-17.446,11.491-17.21-15.2-1.283-17.974-12.356-1.542-6.253-14.7-11.187-16.885-18.651-2.363-8.066-7.989-14.155-10.569-22.46,3.714-4.824,19.158,22.061,21.139,24.957a36.091,36.091,0,0,1,5.28,11.569c1.861,7.6,7.437,2.273,12.78.913,7.419-1.951,22.517-9.036,25.548-16.446,3.464-8.18,2.229-10.716-6.312-16.294-8.433,7.3-15.8,1.578-21.008-7.771-4.585-8.231,8.812,2.285,8.672,2.19,3.458,2.309,7.637,5.024,11.784,2.93,1.808-.91,6.369,3.827,9.212,4.12,5.811.6,11.793-.585,17.476,0,9.773.993,7.425,13.335,17.908,10.862.674.325,16.628,52.134,22.174,29.367,2.154-9.218-.564-11.265,6.312-18.353,6.945-7.181,10.119-9.54,18.645-12.333,4.663-1.53,8.266,5.585,11.6,9.764,1.635,2.043-.128,10.492,5.525,5.352C622.843,494.5,623.371,498.911,624.275,501.479ZM410.35,381.087c-.257-3.741-8.239-4.809.519-8.684,2.843-1.256,6.539-8.756,10.638-4.824,0,5.379-8.52,3.41-6.017,10.865,2.24,6.656,11.819-1.536,15.856,1.909-1.4,3.052-13.788.036-13.8,4.26.692,1.378,5.268-2.017,4.848,1.9-.018.167-10,7.658-13.066,7.342-1.274-.128-17.341,3.52-17.034.149C392.522,391.435,410.979,390.123,410.35,381.087ZM445.587,561.68c-.9-.1-.9-.322-.659-.448-2.014-1.471-2.634-3.52-1.835-6.163.57,0,2.413,4.645,2.53,6.187C445.692,561.34,445.7,561.478,445.587,561.68ZM456.6,572.4a3.945,3.945,0,0,1,0,4.848c-.644-.268-.674-.489-.519-.6C455.393,575.335,455.083,572.4,456.6,572.4Zm-2.056-25.84c-2.98,6.136-8.475-2.011-3.037-4.469C456.216,539.96,455.969,543.635,454.543,546.556Zm-28.483-92.5c-5.048-8.893-9.674,5.131-11.011,5.286-4.147.486-8.064-3.458-10.862-5.429-1.474-1.038-15.438-2.145-11.453-6.229,4.281-4.388-2.378-6.348-5.289-6.253-2.8.089-34.617,5.3-34.647,2.789-.03-2.2,12.667-3.428,13.651-9.543.477-2.959,10.34-10.984,12.53-10.155,6.635,2.5,8.207-6.781,13.9.758,4.848,6.384,11.217,4.525,12.628,12.923,1.471.242,4.624-4.877,5.874-5.731-.519-5.1-15.987-5.543-14.242-13.356,2.052-2.78,16.649,8.72,17.177,12.183.71,4.773,12.664,16.029,12.774,6.9a13.144,13.144,0,0,1-3.816-4.848c1.707-8.669,13.944,8.818,15.462,9.534,5.182,2.446,18.52-5.2,18.009,4.707C456,462.931,435.766,456.645,426.059,454.056Zm40.082-23.785c-6.757,1.223-13.359-4.427-19.674-2.052-1.966.731-10.259,4.576-11.891,3.228-.439-4.129,1.906-9.525,4.967-13.985,2.783-4.054,9.111,3.529,13.97,1.8q-1.061-.917-2.052-1.909a5.322,5.322,0,0,1,6.459-2.494c2.348,4.9-3.932,2.98,3.231,7.339C461.189,422.222,474.13,428.83,466.141,430.271Zm34.507,10.573c-8.729,9.072-10.856-5.441-11.014-8.371-.164-3.422-13.353-9.886-7.932-14.093,4.842-3.75,18.007-3.839,8.738.91-5.725,2.935,9.627,10.092,9.618,11.572-.185.421-3.3.889-3.374.877.665,3.308,3.529,4.257,3.974,7.285C500.833,438.531,500.961,438.65,500.648,440.843Zm10.865-18.94c-1.623.313-4.105-3.234-1.766-3.818C511.54,417.64,513.893,421.443,511.513,421.9Zm4.239-57.1a4.708,4.708,0,0,1-1.157-.164c-.394-1.414-3.347-9.239-3.231-10.131C514.362,353.939,521.694,365.141,515.752,364.807Zm28.5,52.4c-.674-1,.91-2.434,1.462-1.325C545.6,416.694,545.25,417.27,544.256,417.207Zm70.764-19.677c.31-1.011-4.048,4.964-5.283,4.111.015-.191,4.311-9.188,3.813-9.1A5.248,5.248,0,0,1,615.021,397.53Z" transform="translate(-48.399 -340.795)" fill="url(#linear-gradient)"/>
        <path id="Path_10003" data-name="Path 10003" d="M380.31,373.722c-.233.65-.546,2.375-.009,1.82A6.3,6.3,0,0,0,380.31,373.722Z" transform="translate(71.949 -275.493)" fill="url(#linear-gradient)"/>
        <path id="Path_10004" data-name="Path 10004" d="M405.56,342.735a.419.419,0,0,0-.018.057C405.646,342.756,405.667,342.735,405.56,342.735Z" transform="translate(122.594 -336.947)" fill="url(#linear-gradient)"/>
        <path id="Path_10005" data-name="Path 10005" d="M362.121,414.77c-.131-.161-.5-.125-.7-.024a7.286,7.286,0,0,0,.659.448A.859.859,0,0,0,362.121,414.77Z" transform="translate(35.103 -194.308)" fill="url(#linear-gradient)"/>
        <path id="Path_10006" data-name="Path 10006" d="M370.672,347.785c.525-1.48-2.485-1.736-2.058-.149C368.915,348.188,370.2,348.227,370.672,347.785Z" transform="translate(49.275 -329.369)" fill="url(#linear-gradient)"/>
        <path id="Path_10007" data-name="Path 10007" d="M362.533,377.142c.57,1.405,3.192.594,3.374-.585C365.367,375.486,362.6,375.93,362.533,377.142Z" transform="translate(37.298 -271.073)" fill="url(#linear-gradient)"/>
        <path id="Path_10008" data-name="Path 10008" d="M346.508,373.93c-.143-.131-.415-.131-.856.227,2.4,3.923,5.683,3.425,7.049-.441A13.688,13.688,0,0,0,346.508,373.93Z" transform="translate(3.82 -276.015)" fill="url(#linear-gradient)"/>
        <path id="Path_10009" data-name="Path 10009" d="M343.356,371.373c.218-.445.176-.788-.794.227q-2.143,4.5,1.787,4.731,3.137-1.929.943-5.507C344.644,371.006,344,371.191,343.356,371.373Z" transform="translate(-3.809 -281.241)" fill="url(#linear-gradient)"/>
        <path id="Path_10010" data-name="Path 10010" d="M343.314,371.994a1.951,1.951,0,0,0,1.026-2.2C342.852,368.179,341.378,371.651,343.314,371.994Z" transform="translate(-2.652 -284.129)" fill="url(#linear-gradient)"/>
        <path id="Path_10011" data-name="Path 10011" d="M336.478,369.343c-.146.7-.063.3,0,.012-.633,3-5.585,4.764-4.257,8.356,6.942,5.421,16.029-1.76,11.16-9.1-3.586-5.4-5.468-7.512-5.432-12.336-11.539-8.32-2.217,16.625-1.471,13.078C336.516,369.146,336.546,369,336.478,369.343Z" transform="translate(-23.269 -313.488)" fill="url(#linear-gradient)"/>
        <path id="Path_10012" data-name="Path 10012" d="M333.5,359.518l0,.008v.005Z" transform="translate(-20.29 -303.662)" fill="url(#linear-gradient)"/>
        <path id="Path_10013" data-name="Path 10013" d="M339.19,359.9q-2.2-2.775-5.576-1.175h0c-.4.242-.263.161-.015.009-3.75,2.3-5.036,3.956-5.716,8.067C331,371.884,339.682,363.659,339.19,359.9Z" transform="translate(-31.417 -306.396)" fill="url(#linear-gradient)"/>
        <path id="Path_10014" data-name="Path 10014" d="M299.034,348.137c-1.062-1.712-4.576-.024-4.26,1.325C295.171,351.15,299.342,349.444,299.034,348.137Z" transform="translate(-97.12 -327.669)" fill="url(#linear-gradient)"/>
        <path id="Path_10015" data-name="Path 10015" d="M287.976,352.139l.006.14C287.973,352.077,287.958,351.647,287.976,352.139Z" transform="translate(-110.58 -318.747)" fill="url(#linear-gradient)"/>
        <path id="Path_10016" data-name="Path 10016" d="M286.9,353.148q1.924,1.477,3.234-.585C290.091,351.328,286.559,351.325,286.9,353.148Z" transform="translate(-112.74 -319.171)" fill="url(#linear-gradient)"/>
        <path id="Path_10017" data-name="Path 10017" d="M292.73,344.195c-.191-.206-.146.343,0,0Z" transform="translate(-101.386 -334.146)" fill="url(#linear-gradient)"/>
        <path id="Path_10018" data-name="Path 10018" d="M246.648,356.762c.033-.278-.251.349,0,0Z" transform="translate(-192.731 -309.274)" fill="url(#linear-gradient)"/>
        <path id="Path_10019" data-name="Path 10019" d="M274.71,348.61c.489-.313-2.822-2.061,0,0Z" transform="translate(-139.157 -327.259)" fill="url(#linear-gradient)"/>
        <path id="Path_10020" data-name="Path 10020" d="M265.451,353.032l.042-.015C265.176,353.124,264.523,353.351,265.451,353.032Z" transform="translate(-156.183 -316.556)" fill="url(#linear-gradient)"/>
        <path id="Path_10021" data-name="Path 10021" d="M437.761,536.547c4.669-15.325-34.706-15.635-29.22-26.574-3.186-1.632-9.916-.158-13.946-.737-1.163-.164-13.481-1.307-13.508-1.322a19.49,19.49,0,0,0,.441-3.085c-2.679-2.676-14.075,9.97-18.794,7.932-8.383-3.634-14.391,4.341-12.923-10.865,1.056-10.668-4.358-4.144-12.037-7.2-.889-1.474,3.323-8.595,3.819-9.985,4.681-13.072-9.206,1.772-11.011,2.351-14.919,4.788-15.092-8.4-11.011-18.94,1.957-5.074,5.161-10.551,12.037-11.011,5.423-.37,13.571-2.208,18.645-1.617,9.886,1.148,5.868,7.252,13.949,10.573,4.776-3.938-2.357-14.093,8.809-19.674,4.081-2.043,10.429-2.682,10.029-8.451-.489-7.106,1.363.14,3.478-4.293,3.064-6.432,11.041-4.71,14.979-8.693,3.413-3.472,7.574-10.742,15.268-9.251a5.453,5.453,0,0,0-2.2,2.938c.191,1.011,19.009-3.836,16-7.488-5.173-.3-12.741,5.877-6.459-5.432a7.133,7.133,0,0,0-5.582-1.322c.961-7.112,9.845.68,11.306.441a7.359,7.359,0,0,0-1.906-2.351c1.056-.692,15.011-3.842,15.709-3.231.513,1.8-7.034,7.425-8.076,8.809,1.763,1.721,7.321.88,9.686,1.468.746.185.343.084.057.015,9.833,2.4-.194-5.238-.349-7.357-.337-4.6,6.93-7.025,1.029-12.037-3.037-2.565-6.384-15.4-9.716-12.449-5.766,5.113-8.338,3.24-7.315-2.673-1.122-4.463-13.723-6.286-15.59-2.7-2.154,4.147-3.523,13.257-6.858,15.751-3.431,2.563-9.06.182-9.934,4.9-.442,2.381-1.572,6.116-4.913,5.832-5.707-.483.7-7.577.441-9.1-.737-4.344-18.573-2.95-19.23-10.719-.519-5.683,24.453-13.967,29.507-14.826q-1.41,1.821-2.786,3.669c.609,1.113,11.575.078,11.891-.588-.659-2.076-5.913-3.413-5.725-5.874,1.259-.558,5.993-.17,8.049-.677,3.863-.952,3.953-5.629,6.781-7.249,3.287-1.468,13.63-.164,14.242,4.406.806,6.05-15.047,4.385-16.008,7.631.349.513,17.207,6.87,19.823,6.316q-.407-1.459-.734-2.936c11.014.928,2.357-7.2,6.02-7.342-1.677.066,16.771,3.162,9.337-2.437-3.881-2.926-6.381-8.866-10.071-9.749-4.284-1.017-5.068-4.063-9.412-4.579-3.2-.379-6.906.65-10.116.322-4.436-.474-11.4-.433-13.7,4.573-1.688,3.666,2.649,1.587,3.72,3.646-.212,2.157-6.444,6.378-8.514,5.14-.116-.3-2.324-6.345-2.273-6.653,1.193-7.088,7.04-2.181,9.907-7.148-1.545-6.047-11.957,4.168-13.362,3.818a21.379,21.379,0,0,1,1.617-3.818c-.946-1.829-10.847,1.119-11.6,2.052,2.133,3.735,4.215,1.316,6.462,3.088.271,1.692-1.951,9.666-5.579,7.488q.935-1.19,1.909-2.351c-.06-2.95-21.008,8.442-20.113.149,2.231-.084,10.8,1.689,11.888-1.909-.221-5.34.877-2.727,2.351-7.932-.31-.644-13.8,1.623-16.885.734-5.242-1.494-20.942-6.262-24.525,2.393-1.554,3.753,9.546.266,10.283.251,1.99,11.506-18.723,3.592-23.639,4.26-12.544,1.668-22.544,1.31-34.945-.3-14.5-1.847-23.925.462-38.758,2.643-4.776.7-4.922,7.025-6.563,6.623-1.859-.456-12.914-1.253-12.673,2.628.179,2.876,6.614.605,8.076,1.763.43,3.547-17.741,1.859-18.206,6.163-1.283,11.664,35.98,2.011,37.827,3.281,1.462,1,16.557,2,12.768,7.431-3.938,5.647,1.915,4.708,3.144,6.471-.319-.462-1.074,18.7-.99,18.493-5.08,13.111-15.727,15.969-13.839,31.72.421,3.505,14.373,17.655,9.093,22.079-.125.1,4.708,13.863,8.818,13.01,2.527-3.276-11.181-19.949-5.489-22.285,1.011-.412,6.286,11.536,8.132,13.329.448,6.283,6.154,10.337,6.459,17.619.2,4.561,13.523,8.774,16.443,10.131,5.361,2.485,10.131-1.572,14.137,2.87a7.5,7.5,0,0,0,6.417,4.177c7.652,1.668,17.189,20.062,24.96,17.765,3.935-1.149,5.635-7.986,8.076,2.058,1.536,6.244-1.14,9.6-4.7,13.947-5.045,6.163-6.8,16.777-1.763,22.466,4.7,5.268,8.666,13.672,11.453,19.97,2.968,6.694,13.3,5.647,16.885,11.894,5.352,9.3,1.966,27.341,4.257,38.021,1.154,5.394-3.046,26.1,3.965,29.22a5.484,5.484,0,0,0,.734-3.526c.964.292,1.65,17.926,4.845,22.171,2.625,3.454,26,22,28.338,11.745-2.091-4.827-19.331-8.171-9.961-16.721,4.481-4.09-9.671-4.728-3.574-8.43,1.208-.737,3.362-5.957,3.7-7.589-1.345-2.3-4.707,1.4-4.111-3.672,5.048-2.124,8.627-3.419,14.388-7.192,5.925-3.881-1.623-7.049-2.351-10.573,5.943-1.151,8.938,3.192,12.482-3.962,1.647-3.287,1.888-4.782,4.4-7.929,6.133-7.643.555-14.63,12.336-18.794,9.188-3.219,13.066-9.776,13.066-20.113,0-9.29,10.3-14.755,9.836-23.057C477.739,540.4,443.93,549.518,437.761,536.547Zm0-176.038c.1.737-.3.966-1.026.877C436.156,360.652,437.108,360.049,437.761,360.509Zm-18.43-13.833a1.934,1.934,0,0,0-.355.316C419.032,346.8,419.149,346.664,419.331,346.676Zm-.364.34c.006,1.408.641.271.656-.221a1.378,1.378,0,0,1,.227.206C419.182,348.588,418.812,347.607,418.967,347.016Zm-48.408,67.128c-1.393,2.2-8.609,10.435-9.588,10.232-2.8-.591,6.044-15.185,9.839-10.719C370.732,414.257,370.627,414.287,370.558,414.144Zm7.971,8.681c-2.142,1.226-7.213,4.066-7.574,1.695-.227-1.495,4.782-2.127,7.2-2.142.155-.1.486-.125,1.062.06l-.009,0a.8.8,0,0,1,.119.027A1.359,1.359,0,0,1,378.53,422.825Zm10.372-3.815c-.17-.069-.263.155-.286.388.134-.1.268-.194.4-.31-.283,1.16-.444.722-.4.31a5.139,5.139,0,0,1-5.769.427C383.034,418.475,387.828,418.305,388.9,419.009Zm-12.365-6.086c.823.069,7.619.961,5.152,3.38a1.606,1.606,0,0,1-.31.289c-2.011.248-5.182,3.917-6.31,3.819C373.1,420.238,372.685,412.592,376.537,412.924Zm-3.669-1.617,1.023-.436-1.023.436c-.024.009-.018.006,0,0-1.712.728-13.23-.23-13.8-1.172C361.266,401.972,378.246,409.016,372.867,411.307Zm-8.809-53q-4.86-.389-9.692-1.026C354.607,353.4,366.167,356.947,364.058,358.3Zm-11.6,34.65c2.748-.641,1.638,4.2,0,4.26C350.171,397.295,350.616,393.384,352.456,392.954Zm-14.641-19.54c.161-.057.242-.084-.042.015a10.715,10.715,0,0,1-5.725,1.026C332.442,370.846,344.112,371.21,337.815,373.414Zm-.776-10.561-.82.14.82-.14a19.052,19.052,0,0,1-6.751,1.324C331.249,357.52,342.922,361.854,337.039,362.854ZM282.423,384.44c-.719,1.008-.728.582-.549.042.179-.012.364-.164.4-.632-.057,0-.084.015-.134.018C282.348,383.518,282.539,383.456,282.423,384.44Zm98.663,128.471c-1.1.173-1.65-1.715-.585-2.208C381.91,510.057,382.247,512.72,381.086,512.911Z" transform="translate(-228.505 -336.953)" fill="url(#linear-gradient)"/>
        <path id="Path_10022" data-name="Path 10022" d="M276.168,367.089a1.941,1.941,0,0,0,.251-.486C276.043,366.161,276.058,366.853,276.168,367.089Z" transform="translate(-134.115 -289.898)" fill="url(#linear-gradient)"/>
        <path id="Path_10023" data-name="Path 10023" d="M278.74,369.43c-.245.158-.06.471.379.447l.674-.385A5.924,5.924,0,0,0,278.74,369.43Z" transform="translate(-129.095 -284.006)" fill="url(#linear-gradient)"/>
        <path id="Path_10024" data-name="Path 10024" d="M279.924,367.734a3.735,3.735,0,0,0,.31-.289C280.443,367.146,279.121,367.832,279.924,367.734Z" transform="translate(-127.05 -288.093)" fill="url(#linear-gradient)"/>
        <path id="Path_10025" data-name="Path 10025" d="M246.91,359.795c-.328-.612-.421-.5-.4-.26-1.152-.665-1.951-.242-2.39,1.286Q245.416,362.853,246.91,359.795Z" transform="translate(-197.542 -304.232)" fill="url(#linear-gradient)"/>
      </g>
    </g>
    <g id="Group_19055" data-name="Group 19055" transform="translate(111.629 67.89)">
      <g id="Group_6456" data-name="Group 6456" transform="translate(0 0)">
        <g id="Group_17482" data-name="Group 17482">
          <g id="Group_17582" data-name="Group 17582">
            <path id="Path_2269" data-name="Path 2269" d="M120.106,7.648a11.274,11.274,0,0,0-8.183,3.323,10.857,10.857,0,0,0-3.379,7.976,11.053,11.053,0,0,0,3.379,8.149,11.27,11.27,0,0,0,8.183,3.323,10.965,10.965,0,0,0,8.013-3.329,10.866,10.866,0,0,0,3.332-7.923,11.228,11.228,0,0,0-3.326-8.138A10.9,10.9,0,0,0,120.106,7.648Zm-4.181,7.174a5.713,5.713,0,0,1,4.181-1.693,5.306,5.306,0,0,1,4.006,1.735,5.94,5.94,0,0,1,1.677,4.3,5.561,5.561,0,0,1-1.693,4.049,5.257,5.257,0,0,1-3.9,1.729A5.845,5.845,0,0,1,114.2,18.95a5.493,5.493,0,0,1,1.723-4.128Z" transform="translate(-108.542 -7.646)" fill="#fff"/>
            <path id="Path_2270" data-name="Path 2270" d="M122.632,18.207a3.466,3.466,0,1,1-3.466-3.466A3.466,3.466,0,0,1,122.632,18.207Z" transform="translate(-107.711 -6.818)" fill="#fff"/>
          </g>
        </g>
      </g>
    </g>
    <g id="Group_19056" data-name="Group 19056" transform="translate(489.583 161.982)">
      <g id="Group_6456-2" data-name="Group 6456" transform="translate(0 0)">
        <g id="Group_17482-2" data-name="Group 17482">
          <g id="Group_17582-2" data-name="Group 17582">
            <path id="Path_2269-2" data-name="Path 2269" d="M120.106,7.648a11.274,11.274,0,0,0-8.183,3.323,10.857,10.857,0,0,0-3.379,7.976,11.053,11.053,0,0,0,3.379,8.149,11.27,11.27,0,0,0,8.183,3.323,10.965,10.965,0,0,0,8.013-3.329,10.866,10.866,0,0,0,3.332-7.923,11.228,11.228,0,0,0-3.326-8.138A10.9,10.9,0,0,0,120.106,7.648Zm-4.181,7.174a5.713,5.713,0,0,1,4.181-1.693,5.306,5.306,0,0,1,4.006,1.735,5.94,5.94,0,0,1,1.677,4.3,5.561,5.561,0,0,1-1.693,4.049,5.257,5.257,0,0,1-3.9,1.729A5.845,5.845,0,0,1,114.2,18.95a5.493,5.493,0,0,1,1.723-4.128Z" transform="translate(-108.542 -7.646)" fill="#fff"/>
            <path id="Path_2270-2" data-name="Path 2270" d="M122.632,18.207a3.466,3.466,0,1,1-3.466-3.466A3.466,3.466,0,0,1,122.632,18.207Z" transform="translate(-107.711 -6.818)" fill="#fff"/>
          </g>
        </g>
      </g>
    </g>
    <g id="Group_19057" data-name="Group 19057" transform="translate(508.217 143.206)">
      <g id="Group_6456-3" data-name="Group 6456" transform="translate(0 0)">
        <g id="Group_17482-3" data-name="Group 17482">
          <g id="Group_17582-3" data-name="Group 17582">
            <path id="Path_2269-3" data-name="Path 2269" d="M120.106,7.648a11.274,11.274,0,0,0-8.183,3.323,10.857,10.857,0,0,0-3.379,7.976,11.053,11.053,0,0,0,3.379,8.149,11.27,11.27,0,0,0,8.183,3.323,10.965,10.965,0,0,0,8.013-3.329,10.866,10.866,0,0,0,3.332-7.923,11.228,11.228,0,0,0-3.326-8.138A10.9,10.9,0,0,0,120.106,7.648Zm-4.181,7.174a5.713,5.713,0,0,1,4.181-1.693,5.306,5.306,0,0,1,4.006,1.735,5.94,5.94,0,0,1,1.677,4.3,5.561,5.561,0,0,1-1.693,4.049,5.257,5.257,0,0,1-3.9,1.729A5.845,5.845,0,0,1,114.2,18.95a5.493,5.493,0,0,1,1.723-4.128Z" transform="translate(-108.542 -7.646)" fill="#fff"/>
            <path id="Path_2270-3" data-name="Path 2270" d="M122.632,18.207a3.466,3.466,0,1,1-3.466-3.466A3.466,3.466,0,0,1,122.632,18.207Z" transform="translate(-107.711 -6.818)" fill="#fff"/>
          </g>
        </g>
      </g>
    </g>
    <g id="Group_19058" data-name="Group 19058" transform="translate(556.339 176.278)">
      <g id="Group_6456-4" data-name="Group 6456" transform="translate(0 0)">
        <g id="Group_17482-4" data-name="Group 17482">
          <g id="Group_17582-4" data-name="Group 17582">
            <path id="Path_2269-4" data-name="Path 2269" d="M120.106,7.648a11.274,11.274,0,0,0-8.183,3.323,10.857,10.857,0,0,0-3.379,7.976,11.053,11.053,0,0,0,3.379,8.149,11.27,11.27,0,0,0,8.183,3.323,10.965,10.965,0,0,0,8.013-3.329,10.866,10.866,0,0,0,3.332-7.923,11.228,11.228,0,0,0-3.326-8.138A10.9,10.9,0,0,0,120.106,7.648Zm-4.181,7.174a5.713,5.713,0,0,1,4.181-1.693,5.306,5.306,0,0,1,4.006,1.735,5.94,5.94,0,0,1,1.677,4.3,5.561,5.561,0,0,1-1.693,4.049,5.257,5.257,0,0,1-3.9,1.729A5.845,5.845,0,0,1,114.2,18.95a5.493,5.493,0,0,1,1.723-4.128Z" transform="translate(-108.542 -7.646)" fill="#fff"/>
            <path id="Path_2270-4" data-name="Path 2270" d="M122.632,18.207a3.466,3.466,0,1,1-3.466-3.466A3.466,3.466,0,0,1,122.632,18.207Z" transform="translate(-107.711 -6.818)" fill="#fff"/>
          </g>
        </g>
      </g>
    </g>
  </g>
</svg>
