<svg xmlns="http://www.w3.org/2000/svg" xmlns:xlink="http://www.w3.org/1999/xlink" width="156" height="156.18" viewBox="0 0 156 156.18">
  <defs>
    <linearGradient id="linear-gradient" x1="0.5" x2="0.769" y2="1.041" gradientUnits="objectBoundingBox">
      <stop offset="0" stop-color="#06b2ff"/>
      <stop offset="1" stop-color="#006bf8"/>
    </linearGradient>
  </defs>
  <g id="Group_20208" data-name="Group 20208" transform="translate(-796.607 -1154.439)">
    <g id="_30d2e86773a48fbb7bcf249557afb976" data-name="30d2e86773a48fbb7bcf249557afb976" transform="translate(796.607 1154.439)">
      <g id="Group_20207" data-name="Group 20207" transform="translate(0 0)">
        <path id="Union_3" data-name="Union 3" d="M73.848,147.869c.38-4.581.7-8.627.7-8.976.032-.569.22-.633,2.147-.537a70.794,70.794,0,0,0,13.368-1.232,60.865,60.865,0,0,0,24.018-10.745,80.742,80.742,0,0,0,12.295-12.295A60.219,60.219,0,0,0,97.741,21.174a68.037,68.037,0,0,0-13.812-3.067l-2.4-.188V0h.727c.379,0,2.528.22,4.741.475a76.987,76.987,0,0,1,47.15,23.26,78.129,78.129,0,0,1,21.237,42.472c.821,4.963.821,18.709,0,23.7a77.987,77.987,0,0,1-21.776,43.108,76.184,76.184,0,0,1-21.078,15.167,72,72,0,0,1-32.424,7.836l-6.985.158Zm-9.921,7.079a77.293,77.293,0,0,1-40.2-20.794,74.282,74.282,0,0,1-15.011-20.1c-2.119-4.012-5.122-11.281-4.8-11.566.094-.1,3.824-1.011,8.311-1.991,4.489-1.011,8.374-1.866,8.659-1.863.348-.032.729.5,1.076,1.454a72.473,72.473,0,0,0,5.751,11A60.452,60.452,0,0,0,56.816,134.47a78.167,78.167,0,0,0,9.955,2.812c1.042.255,1.042-.094.221,9.829-.347,4.172-.631,7.742-.631,7.932,0,.116-.147.179-.474.179A11.414,11.414,0,0,1,63.926,154.948Zm6.034-44.276c-1.042-.695-1.074-1.516-1.074-25.028s.032-24.336,1.074-25.03a69.065,69.065,0,0,1,7.806-.252c7.173,0,7.49.032,8.058.663s.6,1.516.6,24.62-.032,23.987-.6,24.618-.883.665-8.058.665A68.928,68.928,0,0,1,69.96,110.672Zm-30.181-.062c-.568-.317-.6-.854-.6-16.371,0-12.073.094-16.149.38-16.433s2.53-.378,8.186-.377c6.7,0,7.9.064,8.311.5.442.443.506,2.34.506,16.149,0,14.158-.064,15.738-.538,16.275-.475.5-1.138.569-8.06.569A54.216,54.216,0,0,1,39.779,110.61Zm67.188.25-7.236-.094-.411-.789c-.632-1.2-.442-63.838.189-64.6.38-.475,1.264-.507,8.217-.442l7.741.094.411.791c.571,1.1.6,62.76.032,63.992a1.886,1.886,0,0,1-1.011.98c-.278.047-2.248.077-4.86.077C109.084,110.873,108.043,110.869,106.967,110.86ZM1.921,95.6c-.064-.1-.378-1.454-.695-3.035a84.108,84.108,0,0,1,.535-31.412c1.741-7.87,5.53-17.413,9.292-23.324l.981-1.548.854.567c2.78,1.771,13.653,9.735,13.589,9.893-.062.124-.885,1.769-1.865,3.666A60.429,60.429,0,0,0,18.83,89.151a15.225,15.225,0,0,1,.348,2.686C18.959,92.085,2.65,95.6,1.944,95.6A.05.05,0,0,1,1.921,95.6ZM16.268,30.653c-.254-.44,4.14-5.529,7.774-9.006A78.339,78.339,0,0,1,70.782.222c.6-.064,1.707-.158,2.466-.158L74.575,0V17.917l-2.434.222a60.94,60.94,0,0,0-37.574,18.3c-1.328,1.42-2.72,2.969-3.067,3.443-.38.507-.791.885-.949.885C30.2,40.766,16.52,31.064,16.268,30.653Z" fill="url(#linear-gradient)"/>
      </g>
    </g>
  </g>
</svg>
