<svg xmlns="http://www.w3.org/2000/svg" width="113" height="113" viewBox="0 0 113 113">
  <g id="Group_58340" data-name="Group 58340" transform="translate(-301 -2836)">
    <circle id="Ellipse_875" data-name="Ellipse 875" cx="56.5" cy="56.5" r="56.5" transform="translate(301 2836)" fill="#06b2ff"/>
    <g id="Group_58330" data-name="Group 58330" transform="translate(-92.609 2743.683)">
      <g id="Group_58329" data-name="Group 58329" transform="translate(427 128.101)">
        <path id="Path_47816" data-name="Path 47816" d="M478.857,252.284H477.7a7.422,7.422,0,0,1-.763-.841c-.8-1.206-1.58-2.431-2.368-3.648-.076-.117-.161-.228-.242-.342a23.068,23.068,0,0,0-.072,3.018,1.821,1.821,0,0,1-.824,1.813h-.978a1.617,1.617,0,0,1-.883-1.686c.029-.441.005-.886.005-1.329v-1.917c-.163.231-.248.344-.325.463-.73,1.128-1.448,2.263-2.192,3.381-.257.385-.58.726-.873,1.088h-1.156a1.4,1.4,0,0,1-.4-2.237q1.771-2.743,3.543-5.485c.083-.129.16-.263.273-.451h-.565q-6.713,0-13.426,0a3.609,3.609,0,0,1-3.863-3.859q-.006-12.668,0-25.336c0-.156.017-.312.026-.465h40.639v.472q0,12.646,0,25.291a3.627,3.627,0,0,1-3.879,3.9H475.388c.128.211.2.339.281.461q1.736,2.686,3.473,5.371C479.8,250.969,479.742,251.478,478.857,252.284ZM476.074,232.6c-.129-.166-.211-.29-.311-.4q-1.99-2.093-3.986-4.182a2.108,2.108,0,0,0-3.361-.084L462,234.079c-.7.666-1.4,1.322-2.081,2a1.332,1.332,0,0,0,1.815,1.95c.114-.094.219-.2.325-.3l7.606-7.284c.123-.118.254-.228.4-.355l4.388,4.6a2.1,2.1,0,0,0,3.483-.139q2.287-2.836,4.573-5.672c.415-.515.833-1.027,1.255-1.548.552.69,1.068.888,1.675.67a1.4,1.4,0,0,0,.881-1.572c-.042-.8-.079-1.6-.157-2.393a1.57,1.57,0,0,0-1.632-1.442c-.99.046-1.979.146-2.964.259a1.3,1.3,0,0,0-1.1,1.174,1.359,1.359,0,0,0,.844,1.379c.131.051.268.088.445.145Zm-18.936-9.628a4.237,4.237,0,1,0,4.235-4.245A4.242,4.242,0,0,0,457.138,222.967Zm27.151,14.5c-.449.425-.837.769-1.2,1.139a1.356,1.356,0,0,0-.05,1.983,1.34,1.34,0,0,0,1.946-.1c.368-.363.72-.742,1.108-1.143.388.4.733.766,1.09,1.122a1.338,1.338,0,0,0,1.976.108,1.363,1.363,0,0,0-.074-1.981c-.362-.365-.759-.7-1.2-1.094.465-.441.854-.784,1.215-1.155a1.362,1.362,0,0,0,.041-1.981,1.329,1.329,0,0,0-1.942.109c-.364.363-.712.741-1.1,1.146-.4-.413-.742-.781-1.1-1.135a1.335,1.335,0,0,0-1.976-.1,1.356,1.356,0,0,0,.077,1.981C483.467,236.731,483.858,237.069,484.289,237.467Z" transform="translate(-450.314 -206.853)" fill="#fff"/>
        <path id="Path_47818" data-name="Path 47818" d="M427,130.574c.151-.231.284-.475.455-.689a2.335,2.335,0,0,1,1.849-.908c.489-.01.978,0,1.467,0H469.8a2.447,2.447,0,1,1,.3,4.883c-.163.006-.326,0-.489,0q-19.915,0-39.829.012a2.691,2.691,0,0,1-2.779-1.7Z" transform="translate(-427 -128.971)" fill="#fff"/>
        <path id="Path_47824" data-name="Path 47824" d="M536.905,294.349a1.57,1.57,0,1,1-1.559-1.587A1.564,1.564,0,0,1,536.905,294.349Z" transform="translate(-524.274 -278.201)" fill="#fff"/>
      </g>
    </g>
  </g>
</svg>
