<svg xmlns="http://www.w3.org/2000/svg" width="477.02" height="289.207" viewBox="0 0 477.02 289.207">
  <g id="Javascript" transform="translate(-275.2 -290.8)">
    <path id="Path_14293" data-name="Path 14293" d="M375.093,398.141v-.85s-.2-1.5-1.438-1.5h-32.1a3.042,3.042,0,0,0-3.007,3.007v27.783a2.885,2.885,0,0,0,1.7,2.68c-.915.2-1.765.458-2.549.654V291.258h.458V290.8H637.692v.458h.458v20.984h-.915v-17.52a3.042,3.042,0,0,0-3.007-3.007H603.7a3.042,3.042,0,0,0-3.007,3.007v17.52h-.915v-17.52a3.042,3.042,0,0,0-3.007-3.007H566.241a3.042,3.042,0,0,0-3.007,3.007v17.52h-.915v-17.52a3.042,3.042,0,0,0-3.007-3.007H528.783a3.042,3.042,0,0,0-3.007,3.007v17.52h-.915v-17.52a3.042,3.042,0,0,0-3.007-3.007H491.324a3.042,3.042,0,0,0-3.007,3.007v17.52H487.4v-17.52a3.042,3.042,0,0,0-3.007-3.007H453.866a3.042,3.042,0,0,0-3.007,3.007v11.309a4.815,4.815,0,0,0-.915.261V294.788a3.042,3.042,0,0,0-3.007-3.007H416.408a3.042,3.042,0,0,0-3.007,3.007v8.5c-.327,0-.588-.065-.915-.065v-8.433a3.042,3.042,0,0,0-3.007-3.007H378.95a3.042,3.042,0,0,0-3.007,3.007v13.4c-.327.131-.588.2-.915.327V294.788a3.042,3.042,0,0,0-3.007-3.007H341.492a3.042,3.042,0,0,0-3.007,3.007v27.783a3.042,3.042,0,0,0,3.007,3.007H362.28v.915H341.492a3.042,3.042,0,0,0-3.007,3.007v27.783a3.042,3.042,0,0,0,3.007,3.007h20.592l-.065.915H341.557a3.042,3.042,0,0,0-3.007,3.007V392A3.042,3.042,0,0,0,341.557,395H378.1a3.037,3.037,0,0,0,1.5-.392c.2.719.458,1.438.654,2.223a2.859,2.859,0,0,0-2.157-.915h-1.177a3.105,3.105,0,0,0-.981,2.55h0v24.776l-.915.065V398.468a.489.489,0,0,1,.065-.327ZM466.81,499.01h17.585A3.042,3.042,0,0,0,487.4,496V468.22a3.042,3.042,0,0,0-3.007-3.007H464.326l-.065-.915h20.135a3.042,3.042,0,0,0,3.007-3.007V449.654l.915-.065v11.7a3.042,3.042,0,0,0,3.007,3.007h30.529a3.042,3.042,0,0,0,3.007-3.007V446.516l.915-.065V461.29a3.042,3.042,0,0,0,3.007,3.007h30.529a3.042,3.042,0,0,0,3.007-3.007V443.378l.915-.065v18.043a3.042,3.042,0,0,0,3.007,3.007H596.77a3.042,3.042,0,0,0,3.007-3.007V440.241l.915-.065v21.181a3.042,3.042,0,0,0,3.007,3.007h30.529a3.042,3.042,0,0,0,3.007-3.007V437.1l.915-.065v62.43h-.458v.458H466.875l-.065-.915ZM637.169,496V468.22a3.042,3.042,0,0,0-3.007-3.007H603.634a3.042,3.042,0,0,0-3.007,3.007V496a3.042,3.042,0,0,0,3.007,3.007h30.529A3,3,0,0,0,637.169,496Zm-37.458,0V468.22a3.042,3.042,0,0,0-3.007-3.007H566.175a3.042,3.042,0,0,0-3.007,3.007V496a3.042,3.042,0,0,0,3.007,3.007H596.7A3,3,0,0,0,599.711,496Zm-37.393,0V468.22a3.042,3.042,0,0,0-3.007-3.007H528.783a3.042,3.042,0,0,0-3.007,3.007V496a3.042,3.042,0,0,0,3.007,3.007h30.529A3.042,3.042,0,0,0,562.318,496Zm-37.458,0V468.22a3.042,3.042,0,0,0-3.007-3.007H491.324a3.042,3.042,0,0,0-3.007,3.007V496a3.042,3.042,0,0,0,3.007,3.007h30.529A3.042,3.042,0,0,0,524.86,496Zm-55.632-65.5v-.915H455.174v.915Zm0-34.713v-.915H458.311v.915Zm0-34.713v-.85h-11.44c-.065.261-.131.588-.2.915h11.636Zm0-34.647v-.915h-1.5c.065.327.131.588.2.915Z" transform="translate(-21.642)" fill="#1f59be" fill-rule="evenodd"/>
    <g id="Group_55747" data-name="Group 55747" transform="translate(452.554 318.648)">
      <g id="Group_55744" data-name="Group 55744" transform="translate(0 0)">
        <path id="Path_14294" data-name="Path 14294" d="M561.732,333.4H830.869A15.289,15.289,0,0,1,846.1,348.632V526.378a15.289,15.289,0,0,1-15.232,15.232H561.732A15.289,15.289,0,0,1,546.5,526.378V348.632A15.375,15.375,0,0,1,561.732,333.4Z" transform="translate(-546.5 -333.4)" fill="#0062ae" fill-rule="evenodd"/>
        <g id="Group_55743" data-name="Group 55743" transform="translate(15.426 33.928)">
          <g id="Group_55732" data-name="Group 55732" transform="translate(0 107.341)">
            <path id="Path_14295" data-name="Path 14295" d="M574.087,549.5h98.189a4,4,0,0,1,3.988,3.988h0a4,4,0,0,1-3.988,3.988H574.087a4,4,0,0,1-3.988-3.988h0A3.962,3.962,0,0,1,574.087,549.5Z" transform="translate(-570.097 -549.5)" fill="#fff" fill-rule="evenodd"/>
            <path id="Path_14296" data-name="Path 14296" d="M574.087,570.4h45.107a4,4,0,0,1,3.988,3.988h0a4,4,0,0,1-3.988,3.988H574.087a4,4,0,0,1-3.988-3.988h0A3.962,3.962,0,0,1,574.087,570.4Z" transform="translate(-570.097 -556.737)" fill="#fff" fill-rule="evenodd"/>
            <path id="Path_14297" data-name="Path 14297" d="M661.988,570.4H683.5a4,4,0,0,1,3.988,3.988h0a4,4,0,0,1-3.988,3.988H661.988A4,4,0,0,1,658,574.388h0A4.047,4.047,0,0,1,661.988,570.4Z" transform="translate(-600.536 -556.737)" fill="#0c8df2" fill-rule="evenodd"/>
          </g>
          <g id="Group_55736" data-name="Group 55736" transform="translate(124.797 107.341)">
            <path id="Path_14298" data-name="Path 14298" d="M767.6,549.5H898.477a6.626,6.626,0,0,1,6.6,6.6v46.872a6.626,6.626,0,0,1-6.6,6.6H767.6a6.626,6.626,0,0,1-6.6-6.6V556.1A6.626,6.626,0,0,1,767.6,549.5Z" transform="translate(-761 -549.5)" fill="#1e9cff" fill-rule="evenodd"/>
            <g id="Group_55735" data-name="Group 55735" transform="translate(10.002 7.518)">
              <path id="Path_14299" data-name="Path 14299" d="M783.818,561a7.518,7.518,0,1,1-7.518,7.518A7.519,7.519,0,0,1,783.818,561Z" transform="translate(-776.3 -561)" fill="#26304d" fill-rule="evenodd"/>
              <g id="Group_55733" data-name="Group 55733" transform="translate(23.011)">
                <path id="Path_14300" data-name="Path 14300" d="M814.672,561h88.056a3.069,3.069,0,0,1,3.073,3.073h0a3.069,3.069,0,0,1-3.073,3.073H814.672a3.069,3.069,0,0,1-3.073-3.073h0A3.069,3.069,0,0,1,814.672,561Z" transform="translate(-811.535 -561)" fill="#fff" fill-rule="evenodd"/>
                <path id="Path_14301" data-name="Path 14301" d="M814.638,574.5h29.221a3.069,3.069,0,0,1,3.072,3.073h0a3.069,3.069,0,0,1-3.072,3.073H814.573a3.069,3.069,0,0,1-3.073-3.073h0A3.169,3.169,0,0,1,814.638,574.5Z" transform="translate(-811.5 -565.675)" fill="#fff" fill-rule="evenodd"/>
                <path id="Path_14302" data-name="Path 14302" d="M874.073,574.5h14.839a3.069,3.069,0,0,1,3.073,3.073h0a3.069,3.069,0,0,1-3.073,3.073H874.073A3.069,3.069,0,0,1,871,577.573h0A3.069,3.069,0,0,1,874.073,574.5Z" transform="translate(-832.104 -565.675)" fill="#26304d" fill-rule="evenodd"/>
              </g>
              <path id="Path_14303" data-name="Path 14303" d="M783.818,592a7.518,7.518,0,1,1-7.518,7.518A7.519,7.519,0,0,1,783.818,592Z" transform="translate(-776.3 -571.735)" fill="#26304d" fill-rule="evenodd"/>
              <g id="Group_55734" data-name="Group 55734" transform="translate(23.076 20.265)">
                <path id="Path_14304" data-name="Path 14304" d="M814.672,592h72.955a3.069,3.069,0,0,1,3.073,3.073h0a3.069,3.069,0,0,1-3.073,3.073H814.672a3.069,3.069,0,0,1-3.073-3.073h0A3.069,3.069,0,0,1,814.672,592Z" transform="translate(-811.6 -592)" fill="#26304d" fill-rule="evenodd"/>
                <path id="Path_14305" data-name="Path 14305" d="M814.672,605.5H862a3.069,3.069,0,0,1,3.073,3.073h0A3.069,3.069,0,0,1,862,611.645H814.672a3.069,3.069,0,0,1-3.073-3.073h0A3.069,3.069,0,0,1,814.672,605.5Z" transform="translate(-811.6 -596.675)" fill="#26304d" fill-rule="evenodd"/>
                <path id="Path_14306" data-name="Path 14306" d="M814.672,618.5h8.694a3.069,3.069,0,0,1,3.073,3.073h0a3.069,3.069,0,0,1-3.073,3.072h-8.694a3.069,3.069,0,0,1-3.073-3.072h0A3.069,3.069,0,0,1,814.672,618.5Z" transform="translate(-811.6 -601.176)" fill="#26304d" fill-rule="evenodd"/>
                <path id="Path_14307" data-name="Path 14307" d="M900.972,605.5h29.287a3.069,3.069,0,0,1,3.072,3.073h0a3.069,3.069,0,0,1-3.072,3.073H900.972a3.069,3.069,0,0,1-3.073-3.073h0A3.156,3.156,0,0,1,900.972,605.5Z" transform="translate(-841.484 -596.675)" fill="#fff" fill-rule="evenodd"/>
              </g>
            </g>
          </g>
          <g id="Group_55737" data-name="Group 55737" transform="translate(0.001)">
            <path id="Path_14308" data-name="Path 14308" d="M581.213,385.3h92.24a11.146,11.146,0,0,1,11.113,11.113v79.035a11.146,11.146,0,0,1-11.113,11.113h-92.24A11.146,11.146,0,0,1,570.1,475.448V396.413A11.062,11.062,0,0,1,581.213,385.3Z" transform="translate(-570.099 -385.3)" fill="#0c8df2" fill-rule="evenodd"/>
            <path id="Path_14309" data-name="Path 14309" d="M684.5,482.222v17a11.146,11.146,0,0,1-11.113,11.113H581.213A11.146,11.146,0,0,1,570.1,499.218V470.193l26.41-15.232a7.507,7.507,0,0,1,9.087,1.177L632.661,483.2l28.568-16.474a7.507,7.507,0,0,1,9.087,1.177Z" transform="translate(-570.099 -409.07)" fill="#fff" fill-rule="evenodd"/>
            <path id="Path_14310" data-name="Path 14310" d="M683.882,408.4A14.382,14.382,0,1,1,669.5,422.782,14.382,14.382,0,0,1,683.882,408.4Z" transform="translate(-604.52 -393.299)" fill="#fff" fill-rule="evenodd"/>
          </g>
          <g id="Group_55742" data-name="Group 55742" transform="translate(124.797)">
            <path id="Path_14311" data-name="Path 14311" d="M772.113,385.3H893.967a11.146,11.146,0,0,1,11.113,11.113v79.035a11.146,11.146,0,0,1-11.113,11.113H772.113A11.146,11.146,0,0,1,761,475.448V396.413A11.1,11.1,0,0,1,772.113,385.3Z" transform="translate(-761 -385.3)" fill="#0c8df2" fill-rule="evenodd"/>
            <g id="Group_55740" data-name="Group 55740" transform="translate(6.341 21.115)">
              <g id="Group_55738" data-name="Group 55738" transform="translate(0 6.864)">
                <path id="Path_14312" data-name="Path 14312" d="M776.254,461.122c9.675,3.661,12.878-1.046,16.474-6.276,3.53-5.1,7.322-10.721,17-10.721,9.152,0,12.682,7.845,16.081,15.559,3.073,6.864,6.08,13.663,13.14,13.663,6.929,0,10.983-8.891,15.3-18.3,4.838-10.59,9.937-21.769,20.069-22.684,10.59-.915,14.97,6.276,19.023,13.009,3.2,5.361,6.21,10.329,12.094,10.067l.065,1.765c-6.929.327-10.2-5.1-13.728-10.917-3.792-6.276-7.845-13.009-17.324-12.159-9.087.784-13.99,11.505-18.631,21.638-4.511,9.937-8.825,19.35-16.931,19.35-8.172,0-11.44-7.256-14.709-14.709-3.2-7.191-6.472-14.513-14.447-14.513-8.76,0-12.29,5.23-15.559,9.937-3.988,5.883-7.583,11.113-18.566,6.929Z" transform="translate(-772.397 -429.547)" fill="#26304d" fill-rule="evenodd"/>
                <path id="Path_14313" data-name="Path 14313" d="M774.23,472.3a3.53,3.53,0,1,1-3.53,3.53A3.515,3.515,0,0,1,774.23,472.3Z" transform="translate(-770.7 -443.406)" fill="#26304d" fill-rule="evenodd"/>
                <path id="Path_14314" data-name="Path 14314" d="M870.63,490.8a3.53,3.53,0,1,1-3.53,3.53A3.557,3.557,0,0,1,870.63,490.8Z" transform="translate(-804.081 -449.812)" fill="#26304d" fill-rule="evenodd"/>
                <path id="Path_14315" data-name="Path 14315" d="M927.13,428.1a3.53,3.53,0,1,1-3.53,3.53A3.557,3.557,0,0,1,927.13,428.1Z" transform="translate(-823.646 -428.1)" fill="#26304d" fill-rule="evenodd"/>
              </g>
              <g id="Group_55739" data-name="Group 55739" transform="translate(1.106)">
                <path id="Path_14316" data-name="Path 14316" d="M875.142,507.5h11.113a1.172,1.172,0,0,1,1.177,1.177v.261a1.172,1.172,0,0,1-1.177,1.177H875.142a1.172,1.172,0,0,1-1.177-1.177v-.261a1.133,1.133,0,0,1,1.177-1.177Zm0,3.988h7.322a1.172,1.172,0,0,1,1.177,1.177v.262a1.172,1.172,0,0,1-1.177,1.177h-7.387a1.172,1.172,0,0,1-1.177-1.177v-.262A1.229,1.229,0,0,1,875.142,511.488Z" transform="translate(-807.542 -448.73)" fill="#26304d" fill-rule="evenodd"/>
                <path id="Path_14317" data-name="Path 14317" d="M914.355,417.6H903.177A1.172,1.172,0,0,0,902,418.777v.261a1.172,1.172,0,0,0,1.177,1.177h11.179a1.172,1.172,0,0,0,1.177-1.177v-.261a1.13,1.13,0,0,0-1.177-1.177Zm0,4.053h-7.387a1.172,1.172,0,0,0-1.177,1.177v.261a1.172,1.172,0,0,0,1.177,1.177h7.387a1.172,1.172,0,0,0,1.177-1.177v-.261A1.1,1.1,0,0,0,914.355,421.653Z" transform="translate(-817.272 -417.6)" fill="#26304d" fill-rule="evenodd"/>
                <path id="Path_14318" data-name="Path 14318" d="M773.574,489.3h11.179a1.172,1.172,0,0,1,1.177,1.177v.261a1.172,1.172,0,0,1-1.177,1.177H773.574a1.172,1.172,0,0,1-1.177-1.177v-.261a1.13,1.13,0,0,1,1.177-1.177Zm0,4.053h7.387a1.172,1.172,0,0,1,1.177,1.177v.262a1.172,1.172,0,0,1-1.177,1.177h-7.387a1.172,1.172,0,0,1-1.177-1.177v-.262A1.1,1.1,0,0,1,773.574,493.353Z" transform="translate(-772.392 -442.428)" fill="#26304d" fill-rule="evenodd"/>
              </g>
            </g>
            <g id="Group_55741" data-name="Group 55741" transform="translate(8.825 6.014)">
              <path id="Path_14319" data-name="Path 14319" d="M778.488,394.5h30.071a4,4,0,0,1,3.988,3.988h0a4,4,0,0,1-3.988,3.988H778.488a4,4,0,0,1-3.988-3.988h0A4,4,0,0,1,778.488,394.5Z" transform="translate(-774.5 -394.5)" fill="#fff" fill-rule="evenodd"/>
              <path id="Path_14320" data-name="Path 14320" d="M777.769,410h19.154a3.278,3.278,0,0,1,3.269,3.269h0a3.278,3.278,0,0,1-3.269,3.269H777.769a3.278,3.278,0,0,1-3.269-3.269h0A3.278,3.278,0,0,1,777.769,410Z" transform="translate(-774.5 -399.867)" fill="#fff" fill-rule="evenodd"/>
              <path id="Path_14321" data-name="Path 14321" d="M841.288,394.5h8.629a4,4,0,0,1,3.988,3.988h0a4,4,0,0,1-3.988,3.988h-8.629a4,4,0,0,1-3.988-3.988h0A4,4,0,0,1,841.288,394.5Z" transform="translate(-796.246 -394.5)" fill="#fff" fill-rule="evenodd"/>
            </g>
          </g>
        </g>
      </g>
      <g id="Group_55746" data-name="Group 55746" transform="translate(0.065 0)">
        <path id="Path_14322" data-name="Path 14322" d="M560.655,333.4h271.49A14.118,14.118,0,0,1,846.2,347.455v13.14H546.6v-13.14A14.117,14.117,0,0,1,560.655,333.4Z" transform="translate(-546.6 -333.4)" fill="#06317a" fill-rule="evenodd"/>
        <g id="Group_55745" data-name="Group 55745" transform="translate(12.748 5.557)">
          <path id="Path_14323" data-name="Path 14323" d="M574.075,341.9a7.975,7.975,0,1,1-7.975,7.975A7.965,7.965,0,0,1,574.075,341.9Z" transform="translate(-566.1 -341.9)" fill="#fd6177" fill-rule="evenodd"/>
          <path id="Path_14324" data-name="Path 14324" d="M614.375,341.9a7.975,7.975,0,1,1-7.975,7.975A7.965,7.965,0,0,1,614.375,341.9Z" transform="translate(-580.055 -341.9)" fill="#fcd25e" fill-rule="evenodd"/>
          <path id="Path_14325" data-name="Path 14325" d="M654.675,341.9a7.975,7.975,0,1,1-7.975,7.975A7.965,7.965,0,0,1,654.675,341.9Z" transform="translate(-594.01 -341.9)" fill="#489ba0" fill-rule="evenodd"/>
        </g>
      </g>
    </g>
    <g id="Group_55767" data-name="Group 55767" transform="translate(304.472 305.192)">
      <g id="Group_55748" data-name="Group 55748" transform="translate(0 125.501)">
        <path id="Path_14326" data-name="Path 14326" d="M464.144,599.915s-2.876-84-13.924-88.252c-10.982-4.249-113.028-14.055-126.626,2.026s15.885,57.92,13.728,96.489Z" transform="translate(-319.985 -504.795)" fill="#0c8df2" fill-rule="evenodd"/>
        <path id="Path_14327" data-name="Path 14327" d="M320.189,526.863c-2.549,19.546,18.958,55.109,17.062,88.252l33.405-2.68a244.432,244.432,0,0,0-8.172-38.177C359.608,564.191,332.74,496.4,320.189,526.863Z" transform="translate(-319.978 -509.733)" fill="#06317a" fill-rule="evenodd"/>
      </g>
      <g id="Group_55763" data-name="Group 55763" transform="translate(3.2)">
        <path id="Path_14328" data-name="Path 14328" d="M565.2,627.866s-16.67-80.931-39.223-82.173C503.426,544.386,528.2,641.2,528.2,641.2s7.126,4.968,21.834-.458S565.2,627.866,565.2,627.866Z" transform="translate(-391.23 -393.452)" fill="#fff" fill-rule="evenodd"/>
        <path id="Path_14329" data-name="Path 14329" d="M400.84,498.442c-4.576,11.44,9.414,33.536,31.052,33.209,21.573-.392,34.059-21.965,17.454-36.8C439.8,486.348,405.416,487,400.84,498.442Z" transform="translate(-350.879 -373.853)" fill="#fcd25e" fill-rule="evenodd"/>
        <g id="Group_55749" data-name="Group 55749" transform="translate(10.189 129.884)">
          <path id="Path_14330" data-name="Path 14330" d="M429.261,512.873l32.032,16.6c4.838,2.55,35.693,55.828,37.458,126.953H364.478S338.2,546.736,340.617,539.872,392.653,511.5,392.653,511.5Z" transform="translate(-340.459 -511.5)" fill="#fcd25e" fill-rule="evenodd"/>
          <path id="Path_14331" data-name="Path 14331" d="M489.193,613.6a277.445,277.445,0,0,1,9.021,34.909,267.6,267.6,0,0,1,4.641,43.276H368.647s-9.152-38.112-16.147-70.8c17.324,19.154,44,39.092,80.931,41.511,10.46.654,24.907.719,37.589-9.217C487.951,639.945,489.062,618.111,489.193,613.6Z" transform="translate(-344.629 -546.855)" fill="#e88428" fill-rule="evenodd"/>
          <path id="Path_14332" data-name="Path 14332" d="M417.5,535.5c9.283,11.7,41.577,29.156,43.734,4.249,0,0,1.438,16.147-12.813,18.827C434.1,561.322,417.5,535.5,417.5,535.5Z" transform="translate(-367.137 -519.811)" fill="#e88428" fill-rule="evenodd"/>
        </g>
        <g id="Group_55759" data-name="Group 55759" transform="translate(34.357)">
          <g id="Group_55750" data-name="Group 55750" transform="translate(15.932 71.303)">
            <path id="Path_14333" data-name="Path 14333" d="M401.8,423.6s8.172,23.8,12.028,56.939c0,0,27.587,29.287,35.5,16.735,7.975-12.617-14.709-68.575-14.709-68.575A37.367,37.367,0,0,0,401.8,423.6Z" transform="translate(-401.8 -421.888)" fill="#fdb2a1" fill-rule="evenodd"/>
            <path id="Path_14334" data-name="Path 14334" d="M455.162,479.754c-3.792-21.05-14.12-51.121-13.99-51.121a31.272,31.272,0,0,0-24.972-6.21l3.4,24.122C419.6,446.48,427.509,480.669,455.162,479.754Z" transform="translate(-406.786 -421.892)" fill="#eb7c83" fill-rule="evenodd"/>
          </g>
          <g id="Group_55758" data-name="Group 55758">
            <path id="Path_14335" data-name="Path 14335" d="M394.935,380.4s-3.4-20.135-10.46-36.085,1.242-17.324,8.172-10.721c0,0,5.818-16.016,9.871-15.885s-2.811,9.871-2.811,9.871,31.9-27,55.958-7.975,16.539-1.5,10.133.654c.981-4.641,9.021-3.857,14.251,1.7,5.164,5.491,15.3,34.516-13.728,40.923C437.3,369.352,394.935,380.4,394.935,380.4Z" transform="translate(-378.939 -312.816)" fill="#26304d" stroke="#26304d" stroke-miterlimit="2.613" stroke-width="0.216" fill-rule="evenodd"/>
            <g id="Group_55751" data-name="Group 55751" transform="translate(0 28.669)">
              <path id="Path_14336" data-name="Path 14336" d="M467.558,361.658s5.753,28.894,3.6,48.245c-2.223,19.35-13.271,31.444-23.8,32.621-4.315.458-23.8,2.615-37.589-9.348-6.472-5.622-11.636-14.251-13.467-27.652,0,0-13.467,6.276-18.108-12.551-4.576-18.5,12.682-21.311,17.062-9.871a55.682,55.682,0,0,1,1.438,8.172c6.21-10.2,5.034-26.214,5.034-26.214S425.524,348.715,467.558,361.658Z" transform="translate(-377.429 -356.672)" fill="#fdb2a1" fill-rule="evenodd"/>
              <path id="Path_14337" data-name="Path 14337" d="M477.8,361.665s.719,3.6,1.569,9.087c-6.145-3.073-10.133-9.217-10.133-9.217-16.016,23.992-54.259,8.237-54.259,8.237-.588,13.794-7.975,21.573-7.975,21.573,6.21-10.2,5.034-26.214,5.034-26.214S435.764,348.722,477.8,361.665Z" transform="translate(-387.669 -356.678)" fill="#eb7c83" fill-rule="evenodd"/>
              <path id="Path_14338" data-name="Path 14338" d="M396.473,419.689s-13.467,6.276-18.108-12.551c-1.046-4.184-1.5-9.479,4.511-9.74,6.276-.261,9.544,8.3,9.544,8.3-4.968-.065-4.249,10.329,3.6,9.283Z" transform="translate(-377.535 -370.772)" fill="#eb7c83" fill-rule="evenodd"/>
            </g>
            <g id="Group_55752" data-name="Group 55752" transform="translate(20.312 24.57)">
              <path id="Path_14339" data-name="Path 14339" d="M473.284,353.211s-4.445,24.253-62.038,12.486L408.5,355.172l34.909-4.772Z" transform="translate(-408.5 -350.4)" fill="#26304d" fill-rule="evenodd"/>
              <path id="Path_14340" data-name="Path 14340" d="M477.665,357.6s-12.486,20.527-43.865,16.931C433.8,374.531,464.2,385.645,477.665,357.6Z" transform="translate(-417.261 -352.893)" fill="#26304d" fill-rule="evenodd"/>
              <path id="Path_14341" data-name="Path 14341" d="M499.8,350.5s10.2,27.195,19.677,16.735S499.8,350.5,499.8,350.5Z" transform="translate(-440.115 -350.435)" fill="#26304d" fill-rule="evenodd"/>
            </g>
            <g id="Group_55757" data-name="Group 55757" transform="translate(18.808 47.45)">
              <path id="Path_14342" data-name="Path 14342" d="M480,430.869s6.145,3.2,13.924-1.569c0,0-2.223,7.91-5.949,8.172S480,430.869,480,430.869Z" transform="translate(-431.755 -400.602)" fill="#eb7c83" fill-rule="evenodd"/>
              <g id="Group_55753" data-name="Group 55753" transform="translate(35.562 41.381)">
                <path id="Path_14343" data-name="Path 14343" d="M488.056,448.7s-13.924,3.726-27.456.065c0,0,.392,13.074,12.421,14.12C485.115,463.932,488.056,448.7,488.056,448.7Z" transform="translate(-460.6 -448.7)" fill="#eb7c83" fill-rule="evenodd"/>
                <path id="Path_14344" data-name="Path 14344" d="M464.9,461.483a12.531,12.531,0,0,0,9.675,5.557,11.31,11.31,0,0,0,4.315-.392C477.125,463.836,472.745,458.737,464.9,461.483Z" transform="translate(-462.089 -452.854)" fill="#d25164" fill-rule="evenodd"/>
                <path id="Path_14345" data-name="Path 14345" d="M489.5,448.8a59.9,59.9,0,0,1-23.6.719c.327,1.438.915,3.073,1.765,3.6,1.634.981,13.663,3.6,19.285-.392A6.39,6.39,0,0,0,489.5,448.8Z" transform="translate(-462.435 -448.735)" fill="#fff" fill-rule="evenodd"/>
              </g>
              <g id="Group_55756" data-name="Group 55756">
                <g id="Group_55754" data-name="Group 55754" transform="translate(26.018 2.876)">
                  <path id="Path_14346" data-name="Path 14346" d="M459.8,408.207a11.952,11.952,0,0,1,3.007,4.184s-5.949,3.53-16.6,1.046C446.2,413.437,448.227,404.416,459.8,408.207Z" transform="translate(-446.069 -395.852)" fill="#fff" fill-rule="evenodd"/>
                  <path id="Path_14347" data-name="Path 14347" d="M458.05,406.1a4.239,4.239,0,0,1,4.445,3.988,4.129,4.129,0,0,1-1.634,3.465,23.408,23.408,0,0,1-4.576.392,4.141,4.141,0,0,1,1.765-7.845Z" transform="translate(-448.767 -395.443)" fill="#7f9aee" fill-rule="evenodd"/>
                  <path id="Path_14348" data-name="Path 14348" d="M458.772,407.4c1.7-.065,3.072,1.5,3.2,3.6a3.857,3.857,0,0,1-1.177,3.072,15.765,15.765,0,0,1-3.269.327,3.934,3.934,0,0,1-1.634-3.138C455.764,409.164,457.072,407.464,458.772,407.4Z" transform="translate(-449.423 -395.893)" fill="#26304d" fill-rule="evenodd"/>
                  <path id="Path_14349" data-name="Path 14349" d="M462.8,410.877c-1.634-11.179-15.362-10.394-16.6,1.046,0,0,3.007-5.557,8.629-5.491A9.22,9.22,0,0,1,462.8,410.877Z" transform="translate(-446.069 -394.338)" fill="#26304d" fill-rule="evenodd"/>
                  <path id="Path_14350" data-name="Path 14350" d="M453.861,411.2c1.111-.065,2.027.392,2.027.981s-.85,1.046-1.961,1.111-2.027-.392-2.027-.981S452.75,411.262,453.861,411.2Z" transform="translate(-448.043 -397.207)" fill="#fff" fill-rule="evenodd"/>
                  <path id="Path_14351" data-name="Path 14351" d="M446,395.03l14.774-.588s.915-2.092-2.876-4.641C457.832,389.8,450.511,390.715,446,395.03Z" transform="translate(-446 -389.8)" fill="#26304d" fill-rule="evenodd"/>
                </g>
                <g id="Group_55755" data-name="Group 55755" transform="translate(57.854 2.02)">
                  <path id="Path_14352" data-name="Path 14352" d="M497.184,406.785a12.607,12.607,0,0,0-2.484,4.38s5.753,3.072,15.362-.2C510.128,410.969,507.578,402.144,497.184,406.785Z" transform="translate(-494.7 -394.359)" fill="#fff" fill-rule="evenodd"/>
                  <path id="Path_14353" data-name="Path 14353" d="M502.588,404.4a4.048,4.048,0,0,0-3.792,4.315,4.461,4.461,0,0,0,1.765,3.334,22.9,22.9,0,0,0,4.315.065,4.166,4.166,0,0,0,1.83-3.661A4.082,4.082,0,0,0,502.588,404.4Z" transform="translate(-496.116 -393.996)" fill="#7f9aee" fill-rule="evenodd"/>
                  <path id="Path_14354" data-name="Path 14354" d="M503.179,405.7c-1.569.065-2.746,1.765-2.68,3.792a4.011,4.011,0,0,0,1.307,2.942,11.3,11.3,0,0,0,3.007.065,3.892,3.892,0,0,0,1.307-3.269C506.055,407.2,504.748,405.634,503.179,405.7Z" transform="translate(-496.707 -394.449)" fill="#26304d" fill-rule="evenodd"/>
                  <path id="Path_14355" data-name="Path 14355" d="M494.8,409.668c.654-11.244,13.4-11.505,15.362-.2,0,0-3.2-5.3-8.368-4.838A8.477,8.477,0,0,0,494.8,409.668Z" transform="translate(-494.735 -392.861)" fill="#26304d" fill-rule="evenodd"/>
                  <path id="Path_14356" data-name="Path 14356" d="M508.863,409.1c-1.046.065-1.83.523-1.765,1.111,0,.588.85.981,1.9.981,1.046-.065,1.83-.523,1.765-1.111C510.759,409.489,509.909,409.031,508.863,409.1Z" transform="translate(-498.992 -395.624)" fill="#fff" fill-rule="evenodd"/>
                  <path id="Path_14357" data-name="Path 14357" d="M509.792,392.811l-13.663.523s-.981-2.027,2.353-4.838C498.417,388.431,505.281,388.824,509.792,392.811Z" transform="translate(-495.148 -388.491)" fill="#26304d" fill-rule="evenodd"/>
                </g>
                <path id="Path_14358" data-name="Path 14358" d="M450.416,385.4a16.009,16.009,0,0,1,15.951,15.036,3.842,3.842,0,0,1,2.092-.065,15.622,15.622,0,0,1,4.641-10.2,15.955,15.955,0,0,1,11.309-4.707,15.688,15.688,0,0,1,11.309,4.707,15.955,15.955,0,0,1,4.707,11.309,15.688,15.688,0,0,1-4.707,11.309,15.94,15.94,0,0,1-22.619,0A15.571,15.571,0,0,1,468.459,402a2.385,2.385,0,0,0-2.092.131,15.974,15.974,0,0,1-15.951,15.428,15.689,15.689,0,0,1-11.309-4.707,15.955,15.955,0,0,1-4.707-11.309,15.689,15.689,0,0,1,4.707-11.309,16.189,16.189,0,0,1,11.309-4.838Zm44.257,5.753a14.52,14.52,0,1,0,4.249,10.263,14.417,14.417,0,0,0-4.249-10.263Zm-34.059,0a14.52,14.52,0,1,0,4.249,10.263A14.152,14.152,0,0,0,460.614,391.153Z" transform="translate(-415.965 -385.4)" fill="#fff" fill-rule="evenodd"/>
                <path id="Path_14359" data-name="Path 14359" d="M425.681,406.592,406.4,406l-.2-1.5,19.481.588Z" transform="translate(-406.2 -392.014)" fill="#fff" fill-rule="evenodd"/>
              </g>
            </g>
          </g>
        </g>
        <g id="Group_55762" data-name="Group 55762" transform="translate(0 155.757)">
          <g id="Group_55760" data-name="Group 55760">
            <path id="Path_14360" data-name="Path 14360" d="M370.929,636.8s-10.46-84.33-32.948-85.7c-22.553-1.373-3.988,99.888-3.988,99.888s7.126,5.3,21.834-.458C370.471,644.705,370.929,636.8,370.929,636.8Z" transform="translate(-325.544 -551.079)" fill="#fff" fill-rule="evenodd"/>
            <path id="Path_14361" data-name="Path 14361" d="M373.4,680.374c-50.206-32.882-73.74,45.368-9.414,27.129Z" transform="translate(-324.874 -593.023)" fill="#fff" fill-rule="evenodd"/>
          </g>
          <g id="Group_55761" data-name="Group 55761" transform="translate(12.471 41.243)">
            <path id="Path_14362" data-name="Path 14362" d="M502.115,637.527l-.915-1.765c11.7-16.931,12.551-9.871,20.527-20,4.315-5.491,6.145,4.641,2.419,9.283C518.393,628.571,502.115,637.527,502.115,637.527Z" transform="translate(-398.403 -614.169)" fill="#eb7c83" fill-rule="evenodd"/>
            <path id="Path_14363" data-name="Path 14363" d="M346.6,680.64c-10.263,22.292,11.7,22.488,25.168,18.5,13.532-3.988,79.885-33.8,79.885-33.8L445.244,649C419.815,655.014,356.861,658.283,346.6,680.64Z" transform="translate(-343.951 -626.23)" fill="#fdb2a1" fill-rule="evenodd"/>
            <path id="Path_14364" data-name="Path 14364" d="M346.6,691.756c-10.263,22.292,11.7,22.488,25.168,18.5.915-.262,2.027-.654,3.4-1.111-7.191.719-14.709.065-18.631-4.511-5.949-6.864-2.484-17.193.719-23.534C352.22,684.107,348.494,687.572,346.6,691.756Z" transform="translate(-343.951 -637.346)" fill="#eb7c83" fill-rule="evenodd"/>
            <path id="Path_14365" data-name="Path 14365" d="M534,635.061l1.307-5.361,19.416,5.034-1.634,17.52-15.624,1.961Z" transform="translate(-409.761 -619.547)" fill="#eb7c83" fill-rule="evenodd"/>
            <path id="Path_14366" data-name="Path 14366" d="M494.2,645.682l3.073-3.857L521.526,629.6s4.38,14.12,2.092,24.515c0,0-11.571,5.491-19.938,4.445Z" transform="translate(-395.979 -619.512)" fill="#fdb2a1" fill-rule="evenodd"/>
          </g>
        </g>
      </g>
      <g id="Group_55766" data-name="Group 55766" transform="translate(74.546 181.659)">
        <g id="Group_55764" data-name="Group 55764" transform="translate(1.431)">
          <path id="Path_14367" data-name="Path 14367" d="M531.9,729.322H439.861a3.655,3.655,0,0,1-3.661-3.661h0A3.655,3.655,0,0,1,439.861,722h91.979a3.655,3.655,0,0,1,3.661,3.661h0A3.6,3.6,0,0,1,531.9,729.322Z" transform="translate(-436.2 -636.167)" fill="#fff" fill-rule="evenodd"/>
          <path id="Path_14368" data-name="Path 14368" d="M564.641,590.7H687.149a2.775,2.775,0,0,1,2.746,3.6L670.283,680.26a4.81,4.81,0,0,1-4.445,3.6H543.4a2.775,2.775,0,0,1-2.746-3.6L560.261,594.3A4.8,4.8,0,0,1,564.641,590.7Z" transform="translate(-472.336 -590.7)" fill="#fff" fill-rule="evenodd"/>
          <path id="Path_14369" data-name="Path 14369" d="M570.841,590.7H693.349a2.775,2.775,0,0,1,2.746,3.6L676.483,680.26a4.81,4.81,0,0,1-4.445,3.6H549.6a2.775,2.775,0,0,1-2.746-3.6L566.461,594.3A4.733,4.733,0,0,1,570.841,590.7Z" transform="translate(-474.483 -590.7)" fill="#9cd4ff" fill-rule="evenodd"/>
          <path id="Path_14370" data-name="Path 14370" d="M663.791,641.8c7.256,0,12.159,5.883,10.917,13.205-1.242,7.256-8.172,13.205-15.493,13.205-7.256,0-12.159-5.883-10.917-13.205C649.606,647.683,656.535,641.8,663.791,641.8Z" transform="translate(-509.579 -608.395)" fill="#fff" fill-rule="evenodd"/>
        </g>
        <g id="Group_55765" data-name="Group 55765" transform="translate(0 78.544)">
          <path id="Path_14371" data-name="Path 14371" d="M434.135,725.46h42.1s-4.184-14.12-17.062-14.513C446.228,710.556,432.566,710.621,434.135,725.46Z" transform="translate(-434.011 -710.849)" fill="#0c8df2" fill-rule="evenodd"/>
          <path id="Path_14372" data-name="Path 14372" d="M435.64,726.695h22.946C453.094,708.914,433.875,711.79,435.64,726.695Z" transform="translate(-434.535 -712.083)" fill="#26304d" fill-rule="evenodd"/>
          <path id="Path_14373" data-name="Path 14373" d="M473.644,716.435a8.5,8.5,0,0,0-2.027-2.419,1.334,1.334,0,0,1-.458-1.5,1.319,1.319,0,0,1,1.177-1.046,3.569,3.569,0,0,1,3.988,4.576,1.471,1.471,0,0,1-1.177,1.111A1.452,1.452,0,0,1,473.644,716.435Z" transform="translate(-446.849 -711.041)" fill="#fff" fill-rule="evenodd"/>
        </g>
      </g>
    </g>
    <g id="Group_55768" data-name="Group 55768" transform="translate(275.2 550.36)">
      <path id="Path_14374" data-name="Path 14374" d="M705.8,717.5H901.262s-21.181-46.349-48.964-23.142c-27.783,23.142-36.739,20.919-48.768,8.368s-37-13.074-48.31,2.484C743.977,720.7,728.942,699.127,705.8,717.5Z" transform="translate(-424.308 -687.85)" fill="#0c8df2" fill-rule="evenodd"/>
      <path id="Path_14375" data-name="Path 14375" d="M359.268,722.4H275.2s9.479-21.573,25.168-20.331c15.689,1.177,19.546,18.108,31.313,15.3C343.448,714.493,348.678,704.884,359.268,722.4Z" transform="translate(-275.2 -692.757)" fill="#0c8df2" fill-rule="evenodd"/>
    </g>
  </g>
</svg>
