<svg xmlns="http://www.w3.org/2000/svg" width="48.146" height="48.146" viewBox="0 0 48.146 48.146">
  <g id="migration" transform="translate(0 0)">
    <path id="Path_14159" data-name="Path 14159" d="M21.744,38.073V34.967a2.333,2.333,0,0,0-2.33-2.33V31.084a2.333,2.333,0,0,0,2.33-2.33V25.648a2.333,2.333,0,0,0-2.33-2.33V21.766a2.333,2.333,0,0,0,2.33-2.33V16.33A2.333,2.333,0,0,0,19.414,14H2.33A2.333,2.333,0,0,0,0,16.33v3.106a2.333,2.333,0,0,0,2.33,2.33v1.553A2.333,2.333,0,0,0,0,25.648v3.106a2.333,2.333,0,0,0,2.33,2.33v1.553A2.333,2.333,0,0,0,0,34.967v3.106A2.333,2.333,0,0,0,2.33,40.4H19.414A2.333,2.333,0,0,0,21.744,38.073ZM1.553,19.436V16.33a.777.777,0,0,1,.777-.777H19.414a.777.777,0,0,1,.777.777v3.106a.777.777,0,0,1-.777.777H2.33A.777.777,0,0,1,1.553,19.436Zm2.33,2.33H17.861v1.553H3.883Zm-2.33,6.989V25.648a.777.777,0,0,1,.777-.777H19.414a.777.777,0,0,1,.777.777v3.106a.777.777,0,0,1-.777.777H2.33A.777.777,0,0,1,1.553,28.755Zm2.33,2.33H17.861v1.553H3.883Zm-2.33,6.989V34.967a.777.777,0,0,1,.777-.777H19.414a.777.777,0,0,1,.777.777v3.106a.777.777,0,0,1-.777.777H2.33A.777.777,0,0,1,1.553,38.073Z" transform="translate(0 -3.128)" fill="#222872"/>
    <path id="Path_14160" data-name="Path 14160" d="M55.744,19.436V16.33A2.333,2.333,0,0,0,53.414,14H36.33A2.333,2.333,0,0,0,34,16.33v3.106a2.333,2.333,0,0,0,2.33,2.33v1.553A2.333,2.333,0,0,0,34,25.648v3.106a2.333,2.333,0,0,0,2.33,2.33v1.553A2.333,2.333,0,0,0,34,34.967v3.106a2.333,2.333,0,0,0,2.33,2.33H53.414a2.333,2.333,0,0,0,2.33-2.33V34.967a2.333,2.333,0,0,0-2.33-2.33V31.084a2.333,2.333,0,0,0,2.33-2.33V25.648a2.333,2.333,0,0,0-2.33-2.33V21.766A2.333,2.333,0,0,0,55.744,19.436Zm-20.19,0V16.33a.777.777,0,0,1,.777-.777H53.414a.777.777,0,0,1,.777.777v3.106a.777.777,0,0,1-.777.777H36.33A.777.777,0,0,1,35.553,19.436ZM54.19,34.967v3.106a.777.777,0,0,1-.777.777H36.33a.777.777,0,0,1-.777-.777V34.967a.777.777,0,0,1,.777-.777H53.414A.777.777,0,0,1,54.19,34.967Zm-2.33-2.33H37.883V31.084H51.861Zm2.33-6.989v3.106a.777.777,0,0,1-.777.777H36.33a.777.777,0,0,1-.777-.777V25.648a.777.777,0,0,1,.777-.777H53.414A.777.777,0,0,1,54.19,25.648Zm-2.33-2.33H37.883V21.766H51.861Z" transform="translate(-7.597 -3.128)" fill="#222872"/>
    <path id="Path_14161" data-name="Path 14161" d="M37.179,3.106V2.178L41.15,4.659,37.179,7.14V6.212a.776.776,0,0,0-.777-.777H11.553V6.989H35.626V8.542a.777.777,0,0,0,1.188.659l6.212-3.883a.777.777,0,0,0,0-1.317L36.814.118a.776.776,0,0,0-1.188.659V2.33H10V3.883H36.4a.776.776,0,0,0,.777-.777Z" transform="translate(-2.234)" fill="#009eff"/>
    <path id="Path_14162" data-name="Path 14162" d="M15.212,56.212v.928l-3.971-2.481,3.971-2.481v.928a.776.776,0,0,0,.777.777h24.85V52.33H16.766V50.777a.777.777,0,0,0-1.189-.659L9.364,54a.777.777,0,0,0,0,1.317L15.577,59.2a.777.777,0,0,0,1.188-.659V56.989H42.392V55.436h-26.4A.776.776,0,0,0,15.212,56.212Z" transform="translate(-2.011 -11.172)" fill="#009eff"/>
    <path id="Path_14163" data-name="Path 14163" d="M52,53h1.553v1.553H52Z" transform="translate(-11.619 -11.843)" fill="#222872"/>
    <path id="Path_14164" data-name="Path 14164" d="M56,53h1.553v1.553H56Z" transform="translate(-12.513 -11.843)" fill="#222872"/>
    <path id="Path_14165" data-name="Path 14165" d="M8,7H9.553V8.553H8Z" transform="translate(-1.788 -1.564)" fill="#222872"/>
    <path id="Path_14166" data-name="Path 14166" d="M4,7H5.553V8.553H4Z" transform="translate(-0.894 -1.564)" fill="#222872"/>
  </g>
</svg>
