<svg id="Group_2750" data-name="Group 2750" xmlns="http://www.w3.org/2000/svg" width="50.587" height="49.478" viewBox="0 0 50.587 49.478">
  <path id="Path_2531" data-name="Path 2531" d="M15.124,7.652a1.024,1.024,0,1,1,.732,1.912q-.992.38-1.942.857A21.534,21.534,0,0,0,2.268,32.74a1.023,1.023,0,0,1-2.026.292A23.581,23.581,0,0,1,13,8.59Q14.035,8.069,15.124,7.652ZM9.042,48.194A1.023,1.023,0,1,1,10.3,46.582a21.5,21.5,0,0,0,26.622-.112,1.024,1.024,0,1,1,1.276,1.6,23.548,23.548,0,0,1-29.16.124Zm5.678-2.039a1.023,1.023,0,0,1-.816,1.2l-3.515.665.318,3.774a1.024,1.024,0,0,1-2.04.175l-.4-4.7a1.023,1.023,0,0,1,.83-1.092l4.422-.837a1.023,1.023,0,0,1,1.2.816ZM31.559,7.5A23.551,23.551,0,0,1,47.09,29.646q0,.883-.065,1.756l1.923-1.443A1.024,1.024,0,0,1,50.176,31.6L46.4,34.422a1.023,1.023,0,0,1-1.366-.125L41.985,30.99a1.024,1.024,0,0,1,1.5-1.391l1.494,1.618q.057-.785.057-1.571A21.5,21.5,0,0,0,30.857,9.423a1.024,1.024,0,0,1,.7-1.923ZM10.531,6.265a1.023,1.023,0,0,1,1.339-.549h0l4.152,1.738A1.023,1.023,0,0,1,16.607,8.7h0L15.245,13.2a1.024,1.024,0,0,1-1.96-.592h0l1.1-3.625L11.081,7.6a1.023,1.023,0,0,1-.549-1.339Z" transform="translate(0.001 -3.712)" fill="#222872"/>
  <path id="Path_2532" data-name="Path 2532" d="M24.2,8.872a4.436,4.436,0,1,0-4.436-4.436A4.436,4.436,0,0,0,24.2,8.872Zm19.45,23.544a4.436,4.436,0,1,1-4.435,4.436,4.436,4.436,0,0,1,4.435-4.436Zm-38.217,0A4.436,4.436,0,1,1,1,36.851a4.436,4.436,0,0,1,4.435-4.436Zm38.217,2.047a2.388,2.388,0,1,0,2.388,2.388,2.388,2.388,0,0,0-2.388-2.388Zm-38.217,0a2.388,2.388,0,1,0,2.388,2.388,2.388,2.388,0,0,0-2.388-2.388ZM24.2,2.047a2.388,2.388,0,1,1-2.388,2.388A2.388,2.388,0,0,1,24.2,2.047Z" transform="translate(-0.658)" fill="#222872"/>
  <g id="Group_68969" data-name="Group 68969" transform="translate(15.074 -102.551)">
    <g id="Group_68970" data-name="Group 68970" transform="translate(0 116.344)">
      <g id="Group_68967" data-name="Group 68967" transform="translate(0 0)">
        <g id="Group_68971" data-name="Group 68971">
          <g id="Group_68965" data-name="Group 68965">
            <g id="Group_68972" data-name="Group 68972">
              <path id="Path_51819" data-name="Path 51819" d="M0,130.594c.061-.34.11-.683.186-1.02a10.538,10.538,0,0,1,2.133-4.247,27.99,27.99,0,0,1,3.559-3.586,11.537,11.537,0,0,0,2.151-2.291,4.245,4.245,0,0,0,.747-1.882,2.072,2.072,0,0,0-.231-1.179l.052-.044c.336.336.693.654,1.005,1.012a5.206,5.206,0,0,1,1.307,2.793,4.669,4.669,0,0,1-.2,1.9c-.147.513-.3,1.028-.4,1.552a2.123,2.123,0,0,0,.478,1.859,1.46,1.46,0,0,0,1.508.472,1.353,1.353,0,0,0,1.1-1.015,1.912,1.912,0,0,0-.02-.514c.456.284.913.542,1.342.842a7.454,7.454,0,0,1,2.7,3.139,5.9,5.9,0,0,1-1.024,6.6,9.314,9.314,0,0,1-4.819,2.875,1.049,1.049,0,0,1-.143.011c.259-.135.48-.242.692-.364a4.418,4.418,0,0,0,1.968-2.075,3.807,3.807,0,0,0-.405-3.724,7.046,7.046,0,0,0-2.153-2.074c-.828-.542-1.684-1.042-2.5-1.594a6.264,6.264,0,0,1-1.015-.874,1.617,1.617,0,0,1-.5-1.536c-.073.063-.119.1-.157.137a2.767,2.767,0,0,0-.86,2.168,2.72,2.72,0,0,0,.58,1.411c.231.311.491.6.743.9a1.8,1.8,0,0,1,.471,1.482A1.475,1.475,0,1,1,5.441,131c.018-.091.039-.181.059-.272l-.044-.041c-.3.276-.619.536-.9.831A4.3,4.3,0,0,0,3.3,134.129a3.506,3.506,0,0,0,1.289,2.98,12.106,12.106,0,0,0,1.073.8c-2.491-.7-4.469-2.015-5.343-4.61a11.43,11.43,0,0,1-.279-1.291c-.009-.044-.025-.087-.038-.13v-1.286" transform="translate(-1 -116.344)" fill="#009eff"/>
            </g>
          </g>
        </g>
      </g>
    </g>
  </g>
</svg>
