<svg xmlns="http://www.w3.org/2000/svg" xmlns:xlink="http://www.w3.org/1999/xlink" width="118" height="118" viewBox="0 0 118 118">
  <defs>
    <linearGradient id="linear-gradient" x1="0.5" x2="0.5" y2="1" gradientUnits="objectBoundingBox">
      <stop offset="0" stop-color="#98e4ff"/>
      <stop offset="1" stop-color="#f1f8fd"/>
    </linearGradient>
  </defs>
  <g id="Group_58404" data-name="Group 58404" transform="translate(-1026 -2406)">
    <circle id="Ellipse_903" data-name="Ellipse 903" cx="59" cy="59" r="59" transform="translate(1026 2406)" fill="url(#linear-gradient)"/>
    <path id="financial-growth-icon" d="M6.628,24.29V37.906A.625.625,0,0,1,6,38.516H.625A.625.625,0,0,1,0,37.909V24.29ZM14.227,0A7.148,7.148,0,1,1,7.079,7.145,7.148,7.148,0,0,1,14.227,0Zm-.611,3.685V2.967H14.6v.694a1.244,1.244,0,0,1,.347.031c.253.028.489.059.694.1s.423.08.6.121V5.323c-.281-.024-.6-.045-.947-.059s-.67-.024-.954-.024a2.6,2.6,0,0,0-.458.038.562.562,0,0,0-.309.146.42.42,0,0,0-.111.319v.094a.423.423,0,0,0,.146.347.694.694,0,0,0,.448.118h.6a2.113,2.113,0,0,1,1.065.243,1.586,1.586,0,0,1,.642.659,2.023,2.023,0,0,1,.212.944v.3a2.4,2.4,0,0,1-.274,1.329,1.482,1.482,0,0,1-.854.632,3.983,3.983,0,0,1-.85.142v.788h-.989v-.8h-.083a4.337,4.337,0,0,1-.566-.056c-.184-.024-.347-.052-.534-.083a4.7,4.7,0,0,1-.5-.108V8.883c.208,0,.434.035.673.045s.486.021.732.028h.694a2.519,2.519,0,0,0,.5-.045.645.645,0,0,0,.3-.146.385.385,0,0,0,.1-.278V8.38a.347.347,0,0,0-.142-.3.548.548,0,0,0-.347-.1h-.486a2.429,2.429,0,0,1-1.61-.468,1.949,1.949,0,0,1-.548-1.561V5.656a1.843,1.843,0,0,1,.611-1.492,2.311,2.311,0,0,1,1.2-.465ZM0,19.845l7.346-6.426.291.305h0a9.31,9.31,0,0,0,4.386,2.467L7.9,19.845ZM20.438,14.06c1.041,1.117,2.054,2.214,3.092,3.237L34.887,5.9,31.229,2.228l11.409-.861-.652,11.624-3.5-3.508c-2.519,2.55-8.477,8.175-11,10.7-3.189,3.185-4.709,3.244-7.9.056l-3.564-3.966a9.324,9.324,0,0,0,4.407-2.21Zm18.651,2.429V37.913a.625.625,0,0,1-.625.621H33.086a.628.628,0,0,1-.625-.621v-16.2c1.041-1,2.224-2.151,3.446-3.328l2.547-2.453.108.1a4.389,4.389,0,0,0,.527.455Zm-10.819,9V37.909a.628.628,0,0,1-.625.621H22.267a.625.625,0,0,1-.625-.621v-11.1a8.022,8.022,0,0,0,1.954.226,8.2,8.2,0,0,0,4.671-1.544ZM17.447,24.48V37.909a.625.625,0,0,1-.625.621H11.451a.628.628,0,0,1-.625-.621V23.335c.111-.08.215-.167.319-.257l2.689-2.384L16,23.1l.167.177c.437.437.867.84,1.287,1.2Z" transform="translate(1064.001 2446)" fill="#1cb0ff" fill-rule="evenodd"/>
  </g>
</svg>
