<svg xmlns="http://www.w3.org/2000/svg" width="117" height="117" viewBox="0 0 117 117">
  <g id="Group_58408" data-name="Group 58408" transform="translate(-1026 -4179)">
    <circle id="Ellipse_727" data-name="Ellipse 727" cx="58.5" cy="58.5" r="58.5" transform="translate(1026 4179)" fill="#e9f7ff"/>
    <g id="_12694057641548402157" data-name="12694057641548402157" transform="translate(1059 4212)">
      <g id="Group_58356" data-name="Group 58356">
        <g id="Group_58355" data-name="Group 58355">
          <path id="Path_48811" data-name="Path 48811" d="M216,355.227A3.227,3.227,0,1,0,219.227,352,3.231,3.231,0,0,0,216,355.227Zm4.841,0a1.614,1.614,0,1,1-1.614-1.614A1.615,1.615,0,0,1,220.841,355.227Z" transform="translate(-194.215 -316.499)" fill="#009eff"/>
          <rect id="Rectangle_13199" data-name="Rectangle 13199" width="1.604" height="4.009" transform="translate(31.274 12.335)" fill="#222872"/>
          <path id="Path_48812" data-name="Path 48812" d="M382.142,74.823V64h-1.614V74.155l-2.184,2.184,1.141,1.141Z" transform="translate(-340.186 -57.545)" fill="#222872"/>
          <path id="Path_48813" data-name="Path 48813" d="M446.142,137.209V128h-1.614v8.541l-2.184,2.184,1.141,1.141Z" transform="translate(-397.732 -115.091)" fill="#222872"/>
          <path id="Path_48814" data-name="Path 48814" d="M298.421,60.841A2.421,2.421,0,1,0,296,58.421,2.423,2.423,0,0,0,298.421,60.841Zm0-3.227a.807.807,0,1,1-.807.807A.808.808,0,0,1,298.421,57.614Z" transform="translate(-266.147 -50.352)" fill="#222872"/>
          <rect id="Rectangle_13200" data-name="Rectangle 13200" width="1.604" height="8.821" transform="translate(24.057 6.722)" fill="#222872"/>
          <path id="Path_48815" data-name="Path 48815" d="M226.421,4.841A2.421,2.421,0,1,0,224,2.421,2.423,2.423,0,0,0,226.421,4.841Zm0-3.227a.807.807,0,1,1-.807.807A.808.808,0,0,1,226.421,1.614Z" transform="translate(-201.409)" fill="#222872"/>
          <path id="Path_48816" data-name="Path 48816" d="M386.421,4.841A2.421,2.421,0,1,0,384,2.421,2.423,2.423,0,0,0,386.421,4.841Zm0-3.227a.807.807,0,1,1-.807.807A.808.808,0,0,1,386.421,1.614Z" transform="translate(-345.272)" fill="#222872"/>
          <path id="Path_48817" data-name="Path 48817" d="M450.421,68.841A2.421,2.421,0,1,0,448,66.421,2.423,2.423,0,0,0,450.421,68.841Zm0-3.227a.807.807,0,1,1-.807.807A.808.808,0,0,1,450.421,65.614Z" transform="translate(-402.817 -57.545)" fill="#222872"/>
          <rect id="Rectangle_13201" data-name="Rectangle 13201" width="1.604" height="4.811" transform="translate(16.84 12.335)" fill="#222872"/>
          <path id="Path_48818" data-name="Path 48818" d="M80,64V74.823l2.657,2.657L83.8,76.339l-2.184-2.184V64Z" transform="translate(-71.932 -57.545)" fill="#222872"/>
          <path id="Path_48819" data-name="Path 48819" d="M16,128v9.209l4.271,4.271,1.141-1.141-3.8-3.8V128Z" transform="translate(-14.386 -115.091)" fill="#222872"/>
          <path id="Path_48820" data-name="Path 48820" d="M154.421,60.841A2.421,2.421,0,1,0,152,58.421,2.423,2.423,0,0,0,154.421,60.841Zm0-3.227a.807.807,0,1,1-.807.807A.808.808,0,0,1,154.421,57.614Z" transform="translate(-136.67 -50.352)" fill="#222872"/>
          <path id="Path_48821" data-name="Path 48821" d="M66.421,4.841A2.421,2.421,0,1,0,64,2.421,2.423,2.423,0,0,0,66.421,4.841Zm0-3.227a.807.807,0,1,1-.807.807A.808.808,0,0,1,66.421,1.614Z" transform="translate(-57.545)" fill="#222872"/>
          <path id="Path_48822" data-name="Path 48822" d="M2.421,68.841A2.421,2.421,0,1,0,0,66.421,2.423,2.423,0,0,0,2.421,68.841Zm0-3.227a.807.807,0,1,1-.807.807A.808.808,0,0,1,2.421,65.614Z" transform="translate(0 -57.545)" fill="#222872"/>
          <path id="Path_48823" data-name="Path 48823" d="M170.273,342.624l-1.456.7a7.994,7.994,0,0,1,.328.791l.144.41,1.937.484v3.581l-1.937.484-.144.41a7.725,7.725,0,0,1-.328.791l-.187.391,1.027,1.713-2.532,2.532-1.713-1.027-.391.187a8,8,0,0,1-.791.328l-.41.144-.485,1.939h-3.581l-.484-1.937-.41-.144a7.729,7.729,0,0,1-.791-.328l-.391-.187-1.713,1.027-2.977-2.977-1.141,1.141,3.868,3.868,2.06-1.235.138.057.581,2.33h6.1l.583-2.329.138-.057,2.06,1.235,4.313-4.313-1.235-2.06c.019-.046.039-.092.057-.138l2.329-.583v-6.1l-2.329-.583C170.438,342.982,170.358,342.8,170.273,342.624Z" transform="translate(-136.533 -308.069)" fill="#009eff"/>
          <path id="Path_48824" data-name="Path 48824" d="M136,280.245v6.1l2.329.583q.11.274.239.54l1.456-.7a7.987,7.987,0,0,1-.328-.791l-.144-.41-1.937-.485v-3.581l1.937-.484.144-.41a7.722,7.722,0,0,1,.328-.791l.187-.391-1.027-1.713,2.532-2.532,1.713,1.027.391-.187a7.992,7.992,0,0,1,.791-.328l.41-.144.484-1.937h3.581l.484,1.937.41.144a7.73,7.73,0,0,1,.791.328l.391.187,1.713-1.027,2.977,2.977,1.141-1.141-3.868-3.868-2.06,1.235-.138-.057-.58-2.331h-6.1l-.583,2.329-.138.057-2.06-1.235-4.313,4.313,1.235,2.06c-.019.046-.039.092-.057.138Z" transform="translate(-122.284 -244.568)" fill="#009eff"/>
          <path id="Path_48825" data-name="Path 48825" d="M46.792,181.78c0-.021,0-.043,0-.064a6.458,6.458,0,0,0-6.3-6.447,4.853,4.853,0,0,0-3.01-2.277,6.42,6.42,0,0,0-8.893-3.507,7.236,7.236,0,0,0-9.372.5,7.241,7.241,0,0,0-9.449,5.777,5.61,5.61,0,0,0-3.089,3.562,7.258,7.258,0,0,0,.577,14.494H12.1v-1.614H7.262a5.648,5.648,0,1,1,4.41-9.176l1.26-1.009a7.218,7.218,0,0,0-4.559-2.63,4.029,4.029,0,0,1,7.224-.5l1.4-.808a5.62,5.62,0,0,0-5.468-2.79,5.646,5.646,0,0,1,11.067,1.582h1.614a7.257,7.257,0,0,0-3.386-6.13,5.627,5.627,0,0,1,7.149.315l.449.4.513-.317a4.808,4.808,0,0,1,6.738,1.743,4.845,4.845,0,0,0-4.2,4.794H33.08a3.227,3.227,0,1,1,3.227,3.227v1.614a4.846,4.846,0,0,0,4.841-4.841,4.923,4.923,0,0,0-.063-.744,4.845,4.845,0,0,1,4.055,4.173,6.414,6.414,0,0,0-7.1,2.926l1.382.833a4.841,4.841,0,1,1,4.15,7.335H37.921v1.614h5.648a6.449,6.449,0,0,0,3.223-12.039Z" transform="translate(0 -151.056)" fill="#222872"/>
          <rect id="Rectangle_13202" data-name="Rectangle 13202" width="1.604" height="1.604" transform="translate(42.5 36.392)" fill="#222872"/>
          <path id="Path_48826" data-name="Path 48826" d="M189.648,320v.056a6.452,6.452,0,1,0,7.206,7.206h.056v-1.614h-.056a6.461,6.461,0,0,0-5.592-5.592V320Zm5.648,6.455a4.841,4.841,0,1,1-4.841-4.841A4.846,4.846,0,0,1,195.3,326.455Z" transform="translate(-165.443 -287.727)" fill="#009eff"/>
          <rect id="Rectangle_13203" data-name="Rectangle 13203" width="1.604" height="1.604" transform="translate(6.415 37.194)" fill="#222872"/>
          <rect id="Rectangle_13204" data-name="Rectangle 13204" width="1.604" height="1.604" transform="translate(18.443 23.562)" fill="#222872"/>
          <rect id="Rectangle_13205" data-name="Rectangle 13205" width="1.604" height="1.604" transform="translate(28.066 22.76)" fill="#222872"/>
        </g>
      </g>
    </g>
  </g>
</svg>
