<svg xmlns="http://www.w3.org/2000/svg" xmlns:xlink="http://www.w3.org/1999/xlink" width="118" height="118" viewBox="0 0 118 118">
  <defs>
    <linearGradient id="linear-gradient" x1="0.5" x2="0.5" y2="1" gradientUnits="objectBoundingBox">
      <stop offset="0" stop-color="#98e4ff"/>
      <stop offset="1" stop-color="#f1f8fd"/>
    </linearGradient>
  </defs>
  <g id="Group_58403" data-name="Group 58403" transform="translate(-313 -2406)">
    <circle id="Ellipse_901" data-name="Ellipse 901" cx="59" cy="59" r="59" transform="translate(313 2406)" fill="url(#linear-gradient)"/>
    <path id="web-search-result-found-icon" d="M2.965,0H40.836A3.072,3.072,0,0,1,43.8,3.154v9.785c-.226-.119-.454-.231-.686-.337l-.2-.1c-.362-.158-.727-.3-1.1-.433V8.83H2.11V32.712a.843.843,0,0,0,.82.872H22.487c.055.153.111.3.171.457a16.231,16.231,0,0,0,.682,1.518H2.965A3.074,3.074,0,0,1,0,32.4V3.154A3.072,3.072,0,0,1,2.965,0ZM33.919,26.538l1.947,1.972,3.941-4.982c.331-.358.538-.643.945-.2l.993,1.09c.435.457.413.725,0,1.151l-5.126,6.09c-.864.9-.714.956-1.591.031l-3.01-3.183a.42.42,0,0,1,.036-.631l1.206-1.344c.233-.261.417-.237.654,0Zm3.058-11.411a11.485,11.485,0,0,1,8.38,3.693,13.2,13.2,0,0,1,2.979,12.516,12.916,12.916,0,0,1-1.2,2.9l4.589,5.321a.63.63,0,0,1-.033.852l-3.37,3.274a.543.543,0,0,1-.8-.038l-4.391-5.137a11.259,11.259,0,0,1-6.152,1.834A11.487,11.487,0,0,1,28.6,36.647a12.71,12.71,0,0,1-2.572-4.094A13.226,13.226,0,0,1,28.6,18.821a11.816,11.816,0,0,1,3.846-2.737,11.186,11.186,0,0,1,4.533-.957Zm7.186,4.961a9.754,9.754,0,0,0-11.074-2.349c-6.78,2.986-8.338,12.284-3.3,17.638a9.759,9.759,0,0,0,11.076,2.35,10.84,10.84,0,0,0,6.275-9.994,11.4,11.4,0,0,0-.766-4.135,10.954,10.954,0,0,0-2.211-3.51ZM4.44,27.958H21.478c.007.557.041,1.116.1,1.675H4.44ZM5.114,11.94H32.523a15.253,15.253,0,0,0-1.476.561l0,.006a15.161,15.161,0,0,0-2.681,1.525,15.784,15.784,0,0,0-2.341,2.042l-.012.013a16.594,16.594,0,0,0-2.957,4.405H5.114a.7.7,0,0,1-.674-.717V12.658A.7.7,0,0,1,5.114,11.94ZM4.44,23.392H22.027q-.214.827-.344,1.675H4.44ZM38.013,3.545A1.513,1.513,0,0,1,39.478,5.1a1.468,1.468,0,1,1-2.93,0A1.519,1.519,0,0,1,38.013,3.545Zm-9.923,0A1.513,1.513,0,0,1,29.554,5.1a1.468,1.468,0,1,1-2.93,0A1.513,1.513,0,0,1,28.089,3.545Zm4.962,0A1.513,1.513,0,0,1,34.516,5.1a1.468,1.468,0,1,1-2.93,0A1.514,1.514,0,0,1,33.052,3.545Z" transform="translate(347 2444)" fill="#1cb0ff" fill-rule="evenodd"/>
  </g>
</svg>
