<svg xmlns="http://www.w3.org/2000/svg" xmlns:xlink="http://www.w3.org/1999/xlink" width="118" height="118" viewBox="0 0 118 118">
  <defs>
    <linearGradient id="linear-gradient" x1="0.5" x2="0.5" y2="1" gradientUnits="objectBoundingBox">
      <stop offset="0" stop-color="#98e4ff"/>
      <stop offset="1" stop-color="#f1f8fd"/>
    </linearGradient>
  </defs>
  <g id="Group_58401" data-name="Group 58401" transform="translate(-313 -2176)">
    <circle id="Ellipse_899" data-name="Ellipse 899" cx="59" cy="59" r="59" transform="translate(313 2176)" fill="url(#linear-gradient)"/>
    <g id="authentication-icon" transform="translate(349.995 2210)">
      <path id="Path_48561" data-name="Path 48561" d="M22.327,0c8.352,5.295,15.9,7.8,22.375,7.207.51,10.321-.93,18.735-4.038,25.38a11.211,11.211,0,0,0-2.626-1.606c2.511-5.565,3.665-12.563,3.243-21.1-5.483.5-11.871-1.619-18.943-6.1A27.081,27.081,0,0,1,3.468,9.584C3.182,20.456,5.093,28.641,8.783,34.595c2.728-2.281,7.375-1.936,9.575-4.961.158-.234.231-.36.23-.464,0-.053-2.388-2.979-2.6-3.32-.563-.894-1.616-2.108-1.616-3.156A1.69,1.69,0,0,1,15.5,21.16c-.052-.886-.087-1.785-.087-2.675,0-.526.011-1.059.029-1.58a3.759,3.759,0,0,1,.177-.8,5.633,5.633,0,0,1,2.512-3.19,7,7,0,0,1,1.365-.65c.862-.315.444-1.676,1.39-1.7,2.21-.057,5.846,1.875,7.262,3.409A5.163,5.163,0,0,1,29.6,17.436l-.09,3.871a1.272,1.272,0,0,1,.928.8c.3,1.222-.966,2.744-1.555,3.714-.543.9-2.62,3.345-2.622,3.364a.778.778,0,0,0,.186.452,5.97,5.97,0,0,0,1.973,1.693,11.185,11.185,0,0,0-6,9.909,11.119,11.119,0,0,0,2.45,6.974q-1.2.55-2.457,1.025C7.954,43.957-.6,31.028.037,6.86A31.988,31.988,0,0,0,22.327,0Z" transform="translate(0)" fill="#1cb0ff" fill-rule="evenodd"/>
      <path id="Path_48562" data-name="Path 48562" d="M260.555,329.6a8.925,8.925,0,1,1-8.925,8.925A8.924,8.924,0,0,1,260.555,329.6Zm-2.186,9.245a8.149,8.149,0,0,1,.767.742,30.161,30.161,0,0,1,2.395-3.335c2.388-2.884,1.306-2.328,4.618-2.328l-.461.512a32.478,32.478,0,0,0-3.051,4.064,47.658,47.658,0,0,0-3.118,5.188l-.286.554-.265-.565a13.633,13.633,0,0,0-1.764-2.859,9.685,9.685,0,0,0-2.244-2.062C255.392,337.34,257.447,338.065,258.369,338.845Z" transform="translate(-226.959 -297.289)" fill="#1cb0ff" fill-rule="evenodd"/>
    </g>
  </g>
</svg>
