<svg xmlns="http://www.w3.org/2000/svg" xmlns:xlink="http://www.w3.org/1999/xlink" width="118" height="118" viewBox="0 0 118 118">
  <defs>
    <linearGradient id="linear-gradient" x1="0.5" x2="0.5" y2="1" gradientUnits="objectBoundingBox">
      <stop offset="0" stop-color="#98e4ff"/>
      <stop offset="1" stop-color="#f1f8fd"/>
    </linearGradient>
  </defs>
  <g id="Group_58399" data-name="Group 58399" transform="translate(-313 -1946)">
    <circle id="Ellipse_897" data-name="Ellipse 897" cx="59" cy="59" r="59" transform="translate(313 1946)" fill="url(#linear-gradient)"/>
    <path id="Union_7" data-name="Union 7" d="M0,28.873A22.828,22.828,0,0,1,32.676,8.28v2.07L30.985,12.04a18.366,18.366,0,0,0-8.128-1.852,18.768,18.768,0,1,0,18.711,18.8,18.535,18.535,0,0,0-1.855-8.172L41.4,19.122v-.054h2.073A22.841,22.841,0,1,1,0,28.873Zm8.455.055a14.46,14.46,0,0,1,14.4-14.437,13.021,13.021,0,0,1,4.855.872L24.33,18.741a13.342,13.342,0,0,0-1.473-.109h0a10.3,10.3,0,1,0,10.365,10.3,6.677,6.677,0,0,0-.109-1.471L36.5,24.08a14.439,14.439,0,1,1-28.04,4.849Zm8.4-.054a5.98,5.98,0,0,1,6-5.993,5.671,5.671,0,0,1,2.51.6L36.823,12.094V6.7a1.52,1.52,0,0,1,.436-1.089L42.441.436A1.6,1.6,0,0,1,44.132.109a1.561,1.561,0,0,1,.927,1.416V6.81H50.3a1.479,1.479,0,0,1,1.418.926h0a1.52,1.52,0,0,1-.327,1.634l-5.182,5.175a1.622,1.622,0,0,1-1.091.436h-5.4L28.258,26.368a5.479,5.479,0,0,1,.6,2.506,6,6,0,0,1-12,0Z" transform="translate(348 1978)" fill="#1cb0ff"/>
  </g>
</svg>
