<svg xmlns="http://www.w3.org/2000/svg" xmlns:xlink="http://www.w3.org/1999/xlink" width="118" height="118" viewBox="0 0 118 118">
  <defs>
    <linearGradient id="linear-gradient" x1="0.5" x2="0.5" y2="1" gradientUnits="objectBoundingBox">
      <stop offset="0" stop-color="#98e4ff"/>
      <stop offset="1" stop-color="#f1f8fd"/>
    </linearGradient>
  </defs>
  <g id="Group_58405" data-name="Group 58405" transform="translate(-313 -2636)">
    <circle id="Ellipse_902" data-name="Ellipse 902" cx="59" cy="59" r="59" transform="translate(313 2636)" fill="url(#linear-gradient)"/>
    <g id="web-content-icon" transform="translate(349.999 2675)">
      <path id="Path_48564" data-name="Path 48564" d="M2.652,0H40.637A2.638,2.638,0,0,1,42.5.779h0l0,0,0,0,0,0a2.641,2.641,0,0,1,.775,1.862V15.827a3.793,3.793,0,0,0-.67-.482,4.415,4.415,0,0,0-1.723-.572V9.484h0a1.427,1.427,0,0,1-.252.023H2.652A1.366,1.366,0,0,1,2.4,9.484V39.02a.253.253,0,0,0,.071.181h0l0,0a.247.247,0,0,0,.181.071H22.384a4.118,4.118,0,0,0,.594,2.4H2.656A2.637,2.637,0,0,1,.79,40.9l0,0,0,0,0,0A2.629,2.629,0,0,1,0,39.023V2.645A2.677,2.677,0,0,1,.782.775C.813.745.839.719.869.692A2.651,2.651,0,0,1,2.652,0Zm18.08,17.975a1.1,1.1,0,0,1,0-2.189h15.1a1.031,1.031,0,0,1,.978.824l-1.32,1.369H20.732v0Zm0,5.538a1.1,1.1,0,0,1,0-2.189H32.263l-2.114,2.189ZM33.576,36.83c-.771.245-1.542.485-2.314.73s-1.542.527-2.314.771c-1.828.568-2.84.933-3.047.974s-.079-.771.365-2.558l1.46-5.56.12-.12,5.73,5.763Zm-3.615-7.919L40.178,18.329a.623.623,0,0,1,.771-.12l5.116,4.955a.544.544,0,0,1-.041.813l-10.338,10.7-5.726-5.767Zm13.325,3.126v6.99a2.659,2.659,0,0,1-2.648,2.648H30l.192-.06.188-.053c.207-.064.7-.233,1.189-.4.252-.087.5-.173,1.031-.339l2.22-.7,0-.008a3.789,3.789,0,0,0,1.441-.839h4.383a.27.27,0,0,0,.26-.26v-4.5l2.389-2.475ZM7.34,34.78a1.1,1.1,0,0,1,0-2.189H23.75l-.576,2.189H7.34Zm-.4-4.785a1.1,1.1,0,0,1,0-2.189H26.1a3.878,3.878,0,0,0-.6.493l-.019.019a3.8,3.8,0,0,0-1.042,1.678H6.941ZM6.2,13h11V24.1H6.2V13ZM17.659,3.416A1.719,1.719,0,1,1,15.94,5.135a1.719,1.719,0,0,1,1.719-1.719Zm-6.012,0A1.719,1.719,0,1,1,9.928,5.135a1.719,1.719,0,0,1,1.719-1.719Zm-6.008,0A1.719,1.719,0,1,1,3.92,5.135,1.719,1.719,0,0,1,5.639,3.416Z" fill="#1cb0ff" fill-rule="evenodd"/>
    </g>
  </g>
</svg>
