<svg xmlns="http://www.w3.org/2000/svg" xmlns:xlink="http://www.w3.org/1999/xlink" width="118" height="118" viewBox="0 0 118 118">
  <defs>
    <linearGradient id="linear-gradient" x1="0.5" x2="0.5" y2="1" gradientUnits="objectBoundingBox">
      <stop offset="0" stop-color="#98e4ff"/>
      <stop offset="1" stop-color="#f1f8fd"/>
    </linearGradient>
  </defs>
  <g id="Group_58402" data-name="Group 58402" transform="translate(-1026 -2176)">
    <circle id="Ellipse_900" data-name="Ellipse 900" cx="59" cy="59" r="59" transform="translate(1026 2176)" fill="url(#linear-gradient)"/>
    <path id="business-man-investor-dollar-icon" d="M18.455,26.764c-1.21-1.077-2.165-1.852-2.367-4.086l-.13,0a1.754,1.754,0,0,1-.859-.226,2.344,2.344,0,0,1-.943-1.146c-.436-1-.78-3.632.316-4.385l-.206-.135-.023-.292c-.041-.529-.054-1.17-.062-1.842-.041-2.474-.092-5.148-2.08-5.749l-.854-.26.563-.7a32.417,32.417,0,0,1,4.981-5.057,12.711,12.711,0,0,1,5.77-2.8,6.939,6.939,0,0,1,5.61,1.569,10.436,10.436,0,0,1,1.5,1.51A6.386,6.386,0,0,1,34.166,5.8a9.139,9.139,0,0,1,1.461,2.953,10.124,10.124,0,0,1,.394,3.345,7.282,7.282,0,0,1-2.33,5.1,1.659,1.659,0,0,1,.725.186,1.807,1.807,0,0,1,.637,2.216c-.214.675-.489,1.46-.746,2.117-.315.889-.773,1.054-1.659.958-.046,2.2-1.061,2.8-2.428,4.093.056,3.309-11.839,2.919-11.765,0Zm22.734,16.3a12.986,12.986,0,0,1-2.242-.4V40.549a19.955,19.955,0,0,0,3.917.077A.689.689,0,0,0,43,39.4c-.482-.15-1.5.03-2.312-.206a2.846,2.846,0,0,1-1.052-.545,2.944,2.944,0,0,1-.864-2.257V35.67a2.573,2.573,0,0,1,2.414-2.737v-.984h2.219v.941a15.246,15.246,0,0,1,2.228.4v2.12a17.674,17.674,0,0,0-3.581-.087.764.764,0,0,0-.208.063c-.365.172-.35,1.164.094,1.281a6.247,6.247,0,0,0,1.206.037,4.087,4.087,0,0,1,.892.093,2.749,2.749,0,0,1,.748.285,2.485,2.485,0,0,1,1.339,2.336v.725a5.278,5.278,0,0,1-.115,1.155c-.3,1.334-1.339,1.621-2.6,1.762v1.071H41.189V43.066ZM17.838,29.489l3.54,9.294,1.779-5.066-.873-.953c-.655-.957-.431-2.045.784-2.243a8.774,8.774,0,0,1,1.318-.024,7.057,7.057,0,0,1,1.445.054c1.128.249,1.246,1.344.684,2.213l-.873.953,1.781,5.066,3.2-9.294a13.856,13.856,0,0,0,2.442,1.757,11.74,11.74,0,0,1,1.191-1.394,11.575,11.575,0,0,1,16.387-.007l.107.116a11.582,11.582,0,1,1-18.02,14.384H0C0,31.248,9.957,36.585,17.838,29.489ZM42.45,28.451a9.588,9.588,0,1,1-9.588,9.589A9.589,9.589,0,0,1,42.45,28.451Z" transform="translate(1058 2209.997)" fill="#1cb0ff" fill-rule="evenodd"/>
  </g>
</svg>
