<svg xmlns="http://www.w3.org/2000/svg" width="113" height="113" viewBox="0 0 113 113">
  <g id="Group_58412" data-name="Group 58412" transform="translate(-301 -5224)">
    <circle id="Ellipse_727" data-name="Ellipse 727" cx="56.5" cy="56.5" r="56.5" transform="translate(301 5224)" fill="#06b2ff"/>
    <g id="_12684935861628782416" data-name="12684935861628782416" transform="translate(332.734 5256.466)">
      <path id="Path_48789" data-name="Path 48789" d="M44.884,5.534H4.55A2.278,2.278,0,0,0,2.271,7.817V25.934a11.914,11.914,0,0,1,3.194-1.255V14.215H43.972v23.67h-22v3.2h22.91A2.28,2.28,0,0,0,47.176,38.8V7.817a2.283,2.283,0,0,0-2.292-2.283ZM16.175,11.378H5.466V8.371H16.175Zm17.4,0a1.5,1.5,0,1,1,1.506-1.5,1.5,1.5,0,0,1-1.506,1.5Zm4.441,0a1.5,1.5,0,1,1,1.5-1.5,1.5,1.5,0,0,1-1.5,1.5Zm4.432,0a1.5,1.5,0,1,1,1.064-.438,1.5,1.5,0,0,1-1.064.438Z" transform="translate(-0.004)" fill="#fff"/>
      <ellipse id="Ellipse_906" data-name="Ellipse 906" cx="8.624" cy="3.15" rx="8.624" ry="3.15" transform="translate(2.265 26.518)" fill="#fff"/>
      <path id="Path_48790" data-name="Path 48790" d="M2.265,80.484V82.44c0,1.74,3.861,3.15,8.624,3.15s8.624-1.41,8.624-3.15V80.484c-1.8,1.436-5.3,2.109-8.624,2.109S4.068,81.92,2.265,80.484Z" transform="translate(0 -47.69)" fill="#fff"/>
      <path id="Path_48791" data-name="Path 48791" d="M2.265,94.456v1.956c0,1.74,3.861,3.15,8.624,3.15s8.624-1.41,8.624-3.15V94.456c-1.8,1.436-5.3,2.109-8.624,2.109S4.068,95.892,2.265,94.456Z" transform="translate(0 -56.58)" fill="#fff"/>
      <path id="Path_48792" data-name="Path 48792" d="M2.265,108.428v1.956c0,1.74,3.861,3.15,8.624,3.15s8.624-1.41,8.624-3.15v-1.956c-1.8,1.436-5.3,2.109-8.624,2.109S4.068,109.864,2.265,108.428Z" transform="translate(0 -65.471)" fill="#fff"/>
      <path id="Path_48793" data-name="Path 48793" d="M72.734,51.477a1.359,1.359,0,0,0-1.359-1.359H53.813a1.359,1.359,0,0,0,0,2.718H71.375a1.359,1.359,0,0,0,1.359-1.359Z" transform="translate(-31.935 -28.368)" fill="#fff"/>
      <path id="Path_48794" data-name="Path 48794" d="M89.114,66.292H81.692a1.359,1.359,0,0,0,0,2.718h7.422a1.359,1.359,0,1,0,0-2.718Z" transform="translate(-49.674 -38.66)" fill="#fff"/>
    </g>
  </g>
</svg>
