<svg xmlns="http://www.w3.org/2000/svg" xmlns:xlink="http://www.w3.org/1999/xlink" width="118" height="118" viewBox="0 0 118 118">
  <defs>
    <linearGradient id="linear-gradient" x1="0.5" x2="0.5" y2="1" gradientUnits="objectBoundingBox">
      <stop offset="0" stop-color="#98e4ff"/>
      <stop offset="1" stop-color="#f1f8fd"/>
    </linearGradient>
  </defs>
  <g id="Group_58400" data-name="Group 58400" transform="translate(-1026 -1946)">
    <circle id="Ellipse_898" data-name="Ellipse 898" cx="59" cy="59" r="59" transform="translate(1026 1946)" fill="url(#linear-gradient)"/>
    <path id="target-audience-icon" d="M28.618,0A28.617,28.617,0,1,1,8.382,8.382,28.532,28.532,0,0,1,28.618,0ZM26.57,29.665c-.558-.5-1.258-.923-1.353-1.953h-.059a.811.811,0,0,1-.4-.105,1.085,1.085,0,0,1-.435-.529c-.2-.462-.359-1.676.146-2.022l-.1-.063-.011-.135c-.019-.244-.023-.54-.029-.851-.018-1.141-.041-2.524-.959-2.8l-.393-.12.259-.321a14.884,14.884,0,0,1,2.3-2.333A5.872,5.872,0,0,1,28.2,17.14a3.209,3.209,0,0,1,2.588.724,4.877,4.877,0,0,1,.694.7,2.944,2.944,0,0,1,2.073,1.211,4.213,4.213,0,0,1,.674,1.363,4.662,4.662,0,0,1,.181,1.543,3.708,3.708,0,0,1-1.075,2.5.753.753,0,0,1,.335.085.835.835,0,0,1,.294,1.023c-.1.312-.226.673-.344.977-.145.409-.357.486-.766.443-.02,1-.752,1.411-1.378,2,1.529,2.856,8.016,2.152,8.016,7.83H18.537c0-5.678,6.337-4.9,8.042-7.866l-.009,0Zm-10.2.326a2.915,2.915,0,0,1-.236-.288c-.173-.238-.336-.487-.493-.737l-.783-1.245a2.169,2.169,0,0,1-.453-1.142.83.83,0,0,1,.531-.813c-.029-.468-.047-.945-.047-1.415,0-.279.006-.561.016-.837A2.894,2.894,0,0,1,15,23a2.976,2.976,0,0,1,1.33-1.689,3.444,3.444,0,0,1,.721-.344c.455-.172.236-.866.737-.876a6.529,6.529,0,0,1,3.844,1.784A2.963,2.963,0,0,1,22.4,23.8l-.047,2.049a.58.58,0,0,1,.423.421,1.751,1.751,0,0,1-.219,1.08c0,.016-.017.016-.017.032l-.892,1.47c-.2.332-.411.672-.646.983-.278.373-.508.306-.269.663a3.06,3.06,0,0,0,.685.68c-1.846.91-3.507,2.146-3.867,4.855H10.581c0-4.67,4.164-3.187,5.87-5.535C16.647,30.2,16.595,30.226,16.375,29.991Zm20.436.21a2.708,2.708,0,0,1-.227-.278c-.168-.23-.325-.47-.476-.71l-.756-1.2a2.746,2.746,0,0,1-.376-.736c.053-.15.1-.3.155-.455a1.263,1.263,0,0,0,.057-.17,2.87,2.87,0,0,0,.086-.461.569.569,0,0,1,.153-.065c-.028-.453-.046-.912-.046-1.367,0-.14,0-.281,0-.42a5.447,5.447,0,0,0,.267-1.3,2.882,2.882,0,0,1,1.118-1.213,3.346,3.346,0,0,1,.7-.332c.439-.165.227-.836.711-.846a6.309,6.309,0,0,1,3.71,1.723,2.87,2.87,0,0,1,.74,1.857L42.583,26.2a.559.559,0,0,1,.408.407,1.677,1.677,0,0,1-.212,1.042c0,.016-.015.016-.015.031L41.9,29.1c-.2.321-.4.648-.624.949-.269.36-.491.3-.262.639,1.649,2.265,5.636.836,5.636,5.341h-6.14C40.141,33.269,38.4,32.02,36.5,31.1a2.563,2.563,0,0,0,.382-.417C37.073,30.408,37.024,30.429,36.811,30.2ZM30.745,3.927V8.183H27.017V3.888A24.783,24.783,0,0,0,3.869,27.344H8.922v3.727H3.957a24.785,24.785,0,0,0,23.06,22.276V49.7h3.728v3.61A24.786,24.786,0,0,0,53.278,31.071H48.84V27.344h4.526A24.784,24.784,0,0,0,30.745,3.927Z" transform="translate(1056 1976)" fill="#1cb0ff"/>
  </g>
</svg>
