<svg xmlns="http://www.w3.org/2000/svg" width="113" height="113" viewBox="0 0 113 113">
  <g id="Group_58411" data-name="Group 58411" transform="translate(-1017 -4957)">
    <circle id="Ellipse_727" data-name="Ellipse 727" cx="56.5" cy="56.5" r="56.5" transform="translate(1017 4957)" fill="#06b2ff"/>
    <path id="market-research-analysis-icon" d="M23.464,0A23.473,23.473,0,0,1,43.107,36.328L53.262,47.4l-7,6.4-9.8-10.793A23.469,23.469,0,1,1,23.464,0Zm8.08,14.3-.823-1.05a.56.56,0,0,1-.118-.512c.14-.438.643-.385.989-.363.989.074,3.326.092,3.834.114a.547.547,0,0,1,.53.674c-.105.516-.578,2.994-.748,3.939-.061.328-.158.748-.569.779a.547.547,0,0,1-.473-.232l-.823-1.05-.333-.438-4.044,3.064v.07a2.455,2.455,0,0,1-4.911,0v-.162l-2.849-2.057a2.46,2.46,0,0,1-2.963-.123l-2.762,1.965a2.433,2.433,0,1,1-1.361-1.593l3.248-2.315a2.456,2.456,0,0,1,4.911.07v.162L25.127,17.3a2.451,2.451,0,0,1,2.858.044L31.714,14.5l-.158-.2Zm-.035,6.329H34.9a.359.359,0,0,1,.355.355V34.139a.359.359,0,0,1-.355.355H31.509a.355.355,0,0,1-.355-.355V21.009a.359.359,0,0,1,.355-.355Zm-6.7,4.508H28.2a.355.355,0,0,1,.355.355v8.644a.355.355,0,0,1-.355.355H24.821a.355.355,0,0,1-.355-.355V25.5a.355.355,0,0,1,.355-.355Zm-6.7-4.508H21.5a.355.355,0,0,1,.381.376V34.139a.355.355,0,0,1-.355.355h-3.4a.355.355,0,0,1-.355-.355V21.009a.359.359,0,0,1,.355-.355Zm-6.7,5.252H14.8a.355.355,0,0,1,.355.355v7.9a.355.355,0,0,1-.355.355H11.428a.355.355,0,0,1-.355-.355V26.222a.355.355,0,0,1,.355-.355ZM38.205,8.723a20.851,20.851,0,1,0,6.128,14.746A20.851,20.851,0,0,0,38.205,8.723Z" transform="translate(1049.252 4988.217)" fill="#fff"/>
  </g>
</svg>
