<svg xmlns="http://www.w3.org/2000/svg" xmlns:xlink="http://www.w3.org/1999/xlink" width="118" height="118" viewBox="0 0 118 118">
  <defs>
    <linearGradient id="linear-gradient" x1="0.5" x2="0.5" y2="1" gradientUnits="objectBoundingBox">
      <stop offset="0" stop-color="#98e4ff"/>
      <stop offset="1" stop-color="#f1f8fd"/>
    </linearGradient>
  </defs>
  <g id="Group_58406" data-name="Group 58406" transform="translate(-1026 -2636)">
    <circle id="Ellipse_904" data-name="Ellipse 904" cx="59" cy="59" r="59" transform="translate(1026 2636)" fill="url(#linear-gradient)"/>
    <g id="computer-report-icon" transform="translate(1060 2675)">
      <path id="Path_48569" data-name="Path 48569" d="M1.366,0H48.9a1.423,1.423,0,0,1,1.366,1.469V35.322A1.423,1.423,0,0,1,48.9,36.791H1.366A1.423,1.423,0,0,1,0,35.322V1.469A1.423,1.423,0,0,1,1.366,0ZM37.459,12.3l4.295.013a4.815,4.815,0,0,1-1.28,3.276,4.548,4.548,0,0,1-.63.55L37.459,12.3ZM12.733,8.672h1.309a.132.132,0,0,1,.127.136v5.013a.132.132,0,0,1-.127.136H12.733a.132.132,0,0,1-.127-.136V8.809a.132.132,0,0,1,.127-.136ZM6.81,6.979H8.119a.132.132,0,0,1,.127.136v6.711a.132.132,0,0,1-.127.136H6.81a.132.132,0,0,1-.127-.136V7.115a.132.132,0,0,1,.127-.136Zm2.961-.954h1.309a.132.132,0,0,1,.127.136v7.665a.132.132,0,0,1-.127.136H9.772a.132.132,0,0,1-.127-.136V6.161a.132.132,0,0,1,.127-.136ZM6.888,26.989a.539.539,0,0,1-.515-.563.544.544,0,0,1,.515-.563H43.46a.539.539,0,0,1,.515.563.544.544,0,0,1-.515.563ZM6.8,22.9a.539.539,0,0,1-.515-.563.544.544,0,0,1,.515-.563H21.466a.539.539,0,0,1,.515.563.544.544,0,0,1-.515.563Zm16.676,0a.539.539,0,0,1-.515-.563.544.544,0,0,1,.515-.563H43.46a.539.539,0,0,1,.515.563.544.544,0,0,1-.515.563ZM6.8,19.244a.539.539,0,0,1-.515-.563.544.544,0,0,1,.515-.563H28.955a.539.539,0,0,1,.515.563.544.544,0,0,1-.515.563Zm30.215-7.863-.229-4.939a.172.172,0,0,1,.155-.185c.025,0,.057,0,.094,0h.094a4.579,4.579,0,0,1,3.285,1.354,5.262,5.262,0,0,1,1.526,3.408.173.173,0,0,1-.151.189l-4.593.352a.169.169,0,0,1-.176-.163.017.017,0,0,1,0-.013Zm.106-4.776.213,4.587,4.262-.325a4.87,4.87,0,0,0-1.407-2.995,4.276,4.276,0,0,0-3.06-1.262l-.008,0Zm-.622,5.48,2.3,4.288a4.349,4.349,0,0,1-2.3.664A4.787,4.787,0,0,1,31.9,12.085a4.852,4.852,0,0,1,3.939-4.9l.667,4.9ZM18.934,38.819H31.328a6.952,6.952,0,0,0,3.309,5.994H15.625c1.914-1.491,3.317-3.3,3.309-5.994Zm6.2-6.975a1.892,1.892,0,1,1-1.755,1.887,1.824,1.824,0,0,1,1.755-1.887ZM4.111,2.766H46.155a1.257,1.257,0,0,1,1.207,1.3v25.3a1.26,1.26,0,0,1-1.207,1.3H4.111a1.26,1.26,0,0,1-1.207-1.3V4.063a1.254,1.254,0,0,1,1.207-1.3Z" fill="#1cb0ff" fill-rule="evenodd"/>
    </g>
  </g>
</svg>
