<svg xmlns="http://www.w3.org/2000/svg" width="117" height="117" viewBox="0 0 117 117">
  <g id="Group_58407" data-name="Group 58407" transform="translate(-304 -4179)">
    <circle id="Ellipse_727" data-name="Ellipse 727" cx="58.5" cy="58.5" r="58.5" transform="translate(304 4179)" fill="#e9f7ff"/>
    <g id="Group_58354" data-name="Group 58354" transform="translate(207 -489.602)">
      <g id="Group_58349" data-name="Group 58349" transform="translate(-366.457 4506.603)">
        <g id="Group_58249" data-name="Group 58249" transform="translate(497.457 192)">
          <path id="Path_47551" data-name="Path 47551" d="M595.873,292.2a5.4,5.4,0,0,1-2.646-1.276c-.615-.6-.73-1.111-.306-1.574.392-.427.942-.374,1.555.151a2.767,2.767,0,0,0,3.934-.029,9.443,9.443,0,0,0,.771-1.051h-2.163c-.5,0-1,.02-1.494-.01a.956.956,0,0,1-.973-.991.933.933,0,0,1,1.01-.887c1.421-.014,2.841,0,4.262-.01a2.521,2.521,0,0,0,.655-.075.839.839,0,0,0,.648-.913.847.847,0,0,0-.774-.871c-.327-.045-.663-.012-.994-.034a.985.985,0,0,1-1.035-.942c-.006-.551.41-.915,1.074-.947a6.9,6.9,0,0,0,1.044-.074.826.826,0,0,0,.684-.936.84.84,0,0,0-.79-.853c-.328-.038-.664-.013-.994-.039a.977.977,0,0,1-1.016-.956c.007-.533.4-.888,1.035-.93.073,0,.148,0,.221,0,1.4-.02,1.687-.35,1.536-1.853-.145-.014-.3-.04-.458-.043-.461-.009-.924.012-1.383-.018a.93.93,0,1,1-.015-1.859c.754-.042,1.512-.02,2.269-.022,1.284,0,1.519-.235,1.519-1.515,0-.351.018-.7,0-1.054a5.047,5.047,0,0,1,1.968-4.418,11.839,11.839,0,0,0,3.145-3.963,12.77,12.77,0,0,0-.845-13.455,13.107,13.107,0,0,0-20.319-1.858,13.246,13.246,0,0,0,.236,18.732,1.484,1.484,0,0,0,.164.149,5.814,5.814,0,0,1,2.436,5.491c-.115,1.788.071,1.89,1.84,1.89,1.439,0,2.878,0,4.318,0a2.951,2.951,0,0,1,.658.061.916.916,0,0,1-.072,1.794,5.183,5.183,0,0,1-.772.038c-1.343,0-2.685,0-4.1,0,0,.293-.008.526,0,.758.031.77.359,1.112,1.126,1.135.664.02,1.328,0,1.993.005.48,0,.96-.01,1.439,0,.694.021,1.079.352,1.093.914.014.586-.382.96-1.1.973-1.051.019-2.1,0-3.155.008a3.8,3.8,0,0,0-.607.033.852.852,0,0,0-.763.88.825.825,0,0,0,.661.9,4.387,4.387,0,0,0,.932.075c.978.009,1.956,0,2.934.007.691.008,1.079.344,1.094.909.015.585-.386.964-1.1.976-1.07.017-2.14,0-3.211.006a3.156,3.156,0,0,0-.552.026.924.924,0,0,0-.157,1.778,3.337,3.337,0,0,0,.43.1.929.929,0,0,1,.8,1.075.939.939,0,0,1-1.086.789,2.83,2.83,0,0,1-2.2-4.342c.079-.123.166-.241.246-.355-.933-1.652-.934-2.357.015-3.84a3.636,3.636,0,0,1-.739-2.625.677.677,0,0,0-.3-.493,2.935,2.935,0,0,1-1.573-2.678c-.01-.573-.023-1.147,0-1.719a3.061,3.061,0,0,0-1.135-2.586,15.554,15.554,0,0,1-3.089-3.529,14.767,14.767,0,0,1-2.279-9.571,14.574,14.574,0,0,1,6.923-11.3,14.218,14.218,0,0,1,13.34-1.374,14.731,14.731,0,0,1,9.471,10.961,14.184,14.184,0,0,1-2.17,11.524,20.753,20.753,0,0,1-2.78,3.135,3.533,3.533,0,0,0-1.267,2.872c.034.553.019,1.109,0,1.663a2.8,2.8,0,0,1-1.554,2.563.551.551,0,0,0-.335.608,3.371,3.371,0,0,1-.728,2.549,2.9,2.9,0,0,1,.005,3.811,2.939,2.939,0,0,1,.663,2.363,2.791,2.791,0,0,1-1.572,2.077.852.852,0,0,0-.416.448,4.652,4.652,0,0,1-3.716,3.531.862.862,0,0,0-.191.1Z" transform="translate(-573.759 -235.401)" fill="#222872"/>
          <path id="Path_47552" data-name="Path 47552" d="M678.311,192a1.442,1.442,0,0,1,.621,1.374c-.019,1,0,2-.01,2.993a2.041,2.041,0,0,1-.111.758.916.916,0,0,1-1.745-.317c-.025-1.31-.045-2.623.017-3.931.014-.3.366-.586.563-.878Z" transform="translate(-655.311 -192)" fill="#222872"/>
          <path id="Path_47554" data-name="Path 47554" d="M741.62,212.806a4.267,4.267,0,0,1-.237.579q-.814,1.444-1.652,2.874c-.379.649-.9.85-1.406.562s-.6-.848-.231-1.5c.563-.993,1.13-1.985,1.709-2.969a.935.935,0,0,1,1.1-.527C741.361,211.944,741.563,212.268,741.62,212.806Z" transform="translate(-707.143 -208.865)" fill="#222872"/>
          <path id="Path_47555" data-name="Path 47555" d="M550.579,264.994a7.309,7.309,0,0,1,.8.321q1.466.83,2.918,1.686c.625.369.8.865.525,1.374a.954.954,0,0,1-1.437.278c-1.026-.58-2.043-1.175-3.06-1.772a.858.858,0,0,1-.458-1.119C550,265.454,550.342,265.238,550.579,264.994Z" transform="translate(-546.879 -254.198)" fill="#222872"/>
          <path id="Path_47556" data-name="Path 47556" d="M604.821,211.714a2.486,2.486,0,0,1,.673.571c.634,1.015,1.22,2.061,1.8,3.108a.953.953,0,0,1-.293,1.358.933.933,0,0,1-1.323-.4c-.623-1.044-1.236-2.1-1.815-3.165A.974.974,0,0,1,604.821,211.714Z" transform="translate(-592.837 -208.798)" fill="#222872"/>
          <path id="Path_47557" data-name="Path 47557" d="M783.174,269.5a.926.926,0,0,1-.961-.653.844.844,0,0,1,.336-1.024c.454-.312.941-.577,1.417-.856.6-.353,1.206-.71,1.819-1.046a.956.956,0,0,1,1.392.285.976.976,0,0,1-.464,1.355c-1.014.6-2.036,1.186-3.062,1.767A2.507,2.507,0,0,1,783.174,269.5Z" transform="translate(-744.879 -254.838)" fill="#222872"/>
          <path id="Path_47558" data-name="Path 47558" d="M554.953,401.26a2.081,2.081,0,0,1-.5.6c-1.048.649-2.119,1.262-3.2,1.86a.934.934,0,1,1-.955-1.6c1.07-.649,2.15-1.285,3.251-1.879C554.238,399.869,554.973,400.33,554.953,401.26Z" transform="translate(-546.902 -369.331)" fill="#222872"/>
          <path id="Path_47559" data-name="Path 47559" d="M787.232,402.656c0,.878-.682,1.345-1.325,1.007-1.155-.608-2.279-1.277-3.393-1.958a.922.922,0,0,1,.895-1.605c1.163.632,2.308,1.3,3.434,2C787.06,402.229,787.162,402.55,787.232,402.656Z" transform="translate(-744.824 -369.234)" fill="#222872"/>
          <path id="Path_47560" data-name="Path 47560" d="M532.906,341.007c-.607,0-1.214.017-1.82-.005a.934.934,0,0,1-.974-.921.924.924,0,0,1,.9-.938c1.286-.037,2.574-.04,3.859,0a.878.878,0,0,1,.874,1,.9.9,0,0,1-.966.856C534.157,341.023,533.531,341.007,532.906,341.007Z" transform="translate(-530.112 -317.355)" fill="#222872"/>
          <path id="Path_47561" data-name="Path 47561" d="M801.316,340.988c-.607,0-1.214.016-1.82,0a.906.906,0,0,1-.982-.9.9.9,0,0,1,.917-.968q1.9-.054,3.8,0a.928.928,0,0,1,.914.982.944.944,0,0,1-1.014.882C802.53,341,801.923,340.988,801.316,340.988Z" transform="translate(-758.816 -317.335)" fill="#222872"/>
        </g>
      </g>
      <path id="Path_48679" data-name="Path 48679" d="M138.878,58.68h0a8.72,8.72,0,0,0-1.359-3.27,1.659,1.659,0,0,0-2.3-2.3,8.723,8.723,0,0,0-3.27-1.359,1.659,1.659,0,0,0-3.279,0,8.718,8.718,0,0,0-3.27,1.359,1.659,1.659,0,0,0-2.3,2.3,8.716,8.716,0,0,0-1.359,3.27,1.659,1.659,0,0,0,0,3.279,8.726,8.726,0,0,0,1.359,3.27,1.659,1.659,0,0,0,2.3,2.3,8.732,8.732,0,0,0,3.27,1.359,1.659,1.659,0,0,0,3.279,0,8.72,8.72,0,0,0,3.27-1.359,1.659,1.659,0,0,0,2.3-2.3,8.717,8.717,0,0,0,1.359-3.27,1.659,1.659,0,0,0,0-3.279Zm-2.75-5.007a.831.831,0,1,1-.587.243A.83.83,0,0,1,136.128,53.673Zm-5.815-2.492a.831.831,0,1,1-.587.244.83.83,0,0,1,.587-.244ZM124.5,53.673a.831.831,0,1,1-.587.243A.831.831,0,0,1,124.5,53.673Zm-3.323,6.646a.831.831,0,1,1,.244.587A.83.83,0,0,1,121.175,60.32Zm3.323,6.646a.831.831,0,1,1,.587-.244.83.83,0,0,1-.587.244Zm5.815,2.492a.831.831,0,1,1,.587-.244.83.83,0,0,1-.587.244Zm5.815-2.492a.831.831,0,1,1,.587-.244.831.831,0,0,1-.587.244Zm.772-2.3a1.659,1.659,0,0,0-1.361-.084,3.026,3.026,0,0,0-.881,2.326,7.891,7.891,0,0,1-2.787,1.149,1.659,1.659,0,0,0-3.116,0,7.887,7.887,0,0,1-2.787-1.149,1.66,1.66,0,0,0-2.242-2.242,7.9,7.9,0,0,1-1.149-2.787,1.659,1.659,0,0,0,0-3.116,7.889,7.889,0,0,1,1.149-2.787,1.659,1.659,0,0,0,2.242-2.242,7.887,7.887,0,0,1,2.787-1.149,1.658,1.658,0,0,0,3.116,0,7.886,7.886,0,0,1,2.787,1.149,1.66,1.66,0,0,0,2.242,2.242,7.887,7.887,0,0,1,1.149,2.787,1.658,1.658,0,0,0,0,3.116,7.892,7.892,0,0,1-1.149,2.787Zm1.721-3.515a.831.831,0,1,1,.587-.244A.83.83,0,0,1,138.621,61.15Z" transform="translate(23.355 4660.603)" fill="#222872"/>
      <path id="Path_48681" data-name="Path 48681" d="M130.313,58.243a2.079,2.079,0,1,0,1.468.609,2.077,2.077,0,0,0-1.468-.609Zm0,3.323a1.248,1.248,0,1,1,.881-.365,1.245,1.245,0,0,1-.881.365Zm5.085-2.481-1.314-.328.7-1.161a.415.415,0,0,0-.063-.507l-1.175-1.175a.416.416,0,0,0-.508-.063l-1.161.7-.328-1.313h0a.416.416,0,0,0-.4-.315h-1.661a.416.416,0,0,0-.4.315l-.328,1.313-1.161-.7a.415.415,0,0,0-.507.063l-1.175,1.175a.415.415,0,0,0-.063.507l.7,1.161-1.314.328h0a.416.416,0,0,0-.315.4V61.15h0a.416.416,0,0,0,.315.4l1.314.328-.7,1.161h0a.414.414,0,0,0,.063.507l1.175,1.175a.414.414,0,0,0,.507.062l1.161-.7.328,1.313h0a.416.416,0,0,0,.4.315h1.661a.416.416,0,0,0,.4-.315l.328-1.313,1.161.7h0a.415.415,0,0,0,.508-.062l1.175-1.175a.414.414,0,0,0,.063-.507l-.7-1.161,1.314-.328a.416.416,0,0,0,.315-.4V59.489a.416.416,0,0,0-.315-.4Zm-.516,1.74-1.543.386h0a.415.415,0,0,0-.256.617l.819,1.364-.716.716-1.364-.818a.415.415,0,0,0-.617.255l-.386,1.543h-1.013l-.386-1.543a.415.415,0,0,0-.617-.255l-1.364.819-.716-.716.819-1.364h0a.415.415,0,0,0-.256-.617l-1.543-.386V59.813l1.543-.386a.415.415,0,0,0,.256-.617l-.818-1.364.716-.716,1.364.818h0a.415.415,0,0,0,.617-.256l.386-1.543h1.013l.386,1.543a.415.415,0,0,0,.617.256l1.364-.818.716.716-.819,1.364a.415.415,0,0,0,.256.617l1.543.386Z" transform="translate(23.355 4660.603)" fill="#009eff"/>
    </g>
  </g>
</svg>
