<svg xmlns="http://www.w3.org/2000/svg" width="117" height="117" viewBox="0 0 117 117">
  <g id="Group_58409" data-name="Group 58409" transform="translate(-304 -4432)">
    <circle id="Ellipse_727" data-name="Ellipse 727" cx="58.5" cy="58.5" r="58.5" transform="translate(304 4432)" fill="#e9f7ff"/>
    <g id="Group_58352" data-name="Group 58352" transform="translate(-19364.227 -456)">
      <path id="Path_48616" data-name="Path 48616" d="M129.842,32.438H89.367a3.558,3.558,0,0,0-3.515,3.591v30.36a3.557,3.557,0,0,0,3.515,3.59h8.867l-1.116,1.8a4.25,4.25,0,0,0-.513,2.036v1.111a2.027,2.027,0,0,0,2.024,2.024H120.59a2.022,2.022,0,0,0,2.014-2.024V73.817a4.291,4.291,0,0,0-.531-2.085l-1.1-1.752h8.866a3.552,3.552,0,0,0,3.506-3.59V36.029a3.553,3.553,0,0,0-3.506-3.591Zm-9.414,40.241a2.348,2.348,0,0,1,.276,1.137v1.111a.121.121,0,0,1-.114.124H98.629a.131.131,0,0,1-.124-.124V73.816a2.318,2.318,0,0,1,.258-1.087l1.712-2.75h18.26l1.694,2.7Zm11.019-6.291a1.651,1.651,0,0,1-1.606,1.69H89.367a1.656,1.656,0,0,1-1.615-1.69V36.028a1.656,1.656,0,0,1,1.615-1.691h40.475a1.652,1.652,0,0,1,1.606,1.691Z" transform="translate(19617.375 4891.562)" fill="#222872"/>
      <path id="Path_48617" data-name="Path 48617" d="M213.852,218.748H206.78a.713.713,0,0,0-.713.713v5.714h-5.647v-2.117a.713.713,0,0,0-.713-.713h-7.071a.713.713,0,0,0-.713.713v4.19h-6.357a.713.713,0,0,0-.713.713v6.807a.713.713,0,0,0,.713.713h28.284a.713.713,0,0,0,.713-.713V219.46a.713.713,0,0,0-.713-.712ZM199,223.769v10.285h-5.645c0-1.054,0,3.814,0-10.285Zm-12.717,4.9h5.645v5.382h-5.645ZM200.42,226.6h5.647v7.455H200.42Zm12.718,7.455h-5.647V220.172h5.647Z" transform="translate(19527.273 4722.002)" fill="#009eff"/>
      <path id="Path_48618" data-name="Path 48618" d="M188.018,93.413a3.177,3.177,0,0,0,2.6-5.014l2.68-2.977a3.152,3.152,0,0,0,3.679-.433l2.311,1.6a3.1,3.1,0,0,0-.236,1.168,3.187,3.187,0,1,0,5.909-1.641l2.732-2.661a3.243,3.243,0,1,0-.99-1.025l-2.732,2.66a3.159,3.159,0,0,0-3.875.326l-2.312-1.6a3.185,3.185,0,1,0-5.554.66l-2.68,2.976a3.147,3.147,0,0,0-1.535-.412,3.186,3.186,0,0,0,0,6.372Zm21.4-14.4a1.761,1.761,0,1,1-1.761,1.761A1.763,1.763,0,0,1,209.419,79.018ZM202.247,86a1.762,1.762,0,1,1-1.767,1.757A1.776,1.776,0,0,1,202.247,86Zm-7.41-5.111a1.76,1.76,0,1,1-1.179,3.068,1.732,1.732,0,0,1-.587-1.31,1.764,1.764,0,0,1,1.766-1.757Zm-6.818,7.581a1.761,1.761,0,1,1-1.761,1.761A1.763,1.763,0,0,1,188.018,88.466Z" transform="translate(19527.295 4850.466)" fill="#222872"/>
    </g>
  </g>
</svg>
