<svg xmlns="http://www.w3.org/2000/svg" width="113" height="113" viewBox="0 0 113 113">
  <g id="Group_58410" data-name="Group 58410" transform="translate(-301 -4957)">
    <circle id="Ellipse_727" data-name="Ellipse 727" cx="56.5" cy="56.5" r="56.5" transform="translate(301 4957)" fill="#06b2ff"/>
    <path id="Union_13" data-name="Union 13" d="M27.023,44.985a.935.935,0,0,1-.932-.937V36.21a.935.935,0,0,1,.932-.937H40.068A.935.935,0,0,1,41,36.21v7.838a.935.935,0,0,1-.932.937Zm2.8-4.857a.935.935,0,0,0,.932.937h5.591a.937.937,0,0,0,0-1.875H30.75A.935.935,0,0,0,29.818,40.129ZM17.7,42.173a2.815,2.815,0,0,1,1.864-2.65V31.7a2.816,2.816,0,0,1,0-5.3v-7.82a2.816,2.816,0,0,1,0-5.3V5.462a2.8,2.8,0,1,1,1.864,0v7.82a2.816,2.816,0,0,1,0,5.3V26.4a2.816,2.816,0,0,1,0,5.3v7.82a2.808,2.808,0,1,1-3.727,2.65Zm-6.569-2.811a3.7,3.7,0,0,1-3.681-3.7V30.875a8.44,8.44,0,0,1,0-16.764V9.325a3.7,3.7,0,0,1,3.681-3.7h2.842a.937.937,0,0,1,0,1.874H11.135A1.824,1.824,0,0,0,9.318,9.325v4.785a8.44,8.44,0,0,1,0,16.764V35.66a1.824,1.824,0,0,0,1.817,1.828h2.842a.937.937,0,0,1,0,1.875ZM4.659,22.493a.935.935,0,0,0,.932.937h2.8a.929.929,0,0,0,.659-.274l2.8-2.812a.941.941,0,0,0,0-1.326.929.929,0,0,0-1.318,0L8,21.556H5.591A.935.935,0,0,0,4.659,22.493ZM27.023,33.228a.935.935,0,0,1-.932-.937V24.452a.935.935,0,0,1,.932-.937H40.068a.935.935,0,0,1,.932.937v7.839a.935.935,0,0,1-.932.937Zm.931-1.874H39.136V25.389H27.955Zm2.8-2.044a.937.937,0,0,1,0-1.875H36.34a.937.937,0,0,1,0,1.875ZM16.773,22.493h0ZM27.023,21.47a.935.935,0,0,1-.932-.937V12.7a.935.935,0,0,1,.932-.937H40.068A.935.935,0,0,1,41,12.7v7.838a.935.935,0,0,1-.932.937Zm2.8-4.857a.935.935,0,0,0,.932.937h5.591a.937.937,0,0,0,0-1.874H30.75A.935.935,0,0,0,29.818,16.614Zm-2.8-6.9a.935.935,0,0,1-.932-.937V.937A.935.935,0,0,1,27.023,0H40.068A.935.935,0,0,1,41,.937V8.776a.935.935,0,0,1-.932.937Zm.931-1.875H39.136V1.874H27.955Zm2.8-2.045a.937.937,0,0,1,0-1.875H36.34a.937.937,0,0,1,0,1.875Z" transform="translate(334 4991.143)" fill="#fff"/>
  </g>
</svg>
