<svg xmlns="http://www.w3.org/2000/svg" width="113" height="113" viewBox="0 0 113 113">
  <g id="Group_58413" data-name="Group 58413" transform="translate(-1017 -5224)">
    <circle id="Ellipse_747" data-name="Ellipse 747" cx="56.5" cy="56.5" r="56.5" transform="translate(1017 5224)" fill="#06b2ff"/>
    <path id="Union_10" data-name="Union 10" d="M-16807.141,50.928a1.071,1.071,0,0,1-.74-.637c-.648-1.188-1.312-2.38-1.947-3.582a1.071,1.071,0,0,1-.09-1,1.05,1.05,0,0,1,.777-.628.947.947,0,0,1,1.2.489l.713,1.358h.07c.215-.646.414-1.3.648-1.945a17.28,17.28,0,0,1,3.408-5.94,7.128,7.128,0,0,1,3.545-2.2c.625-.152,1.059,0,1.2.435a1.045,1.045,0,0,1,.1.829,1.039,1.039,0,0,1-.531.646.6.6,0,0,1-.193.1,6.211,6.211,0,0,0-3.385,2.73,20.369,20.369,0,0,0-2.479,5.1l.617-.394a1.053,1.053,0,0,1,1.313.085,1.224,1.224,0,0,1-.1,1.7c-1.059.874-2.117,1.753-3.176,2.6a1.054,1.054,0,0,1-.705.269A1.106,1.106,0,0,1-16807.141,50.928Zm47.432-.3q-1.6-1.291-3.18-2.591a1.073,1.073,0,0,1-.223-1.425,1.061,1.061,0,0,1,1.418-.363l.742.309c-.338-.847-.611-1.56-.92-2.264a13.188,13.188,0,0,0-2.752-4.25,4.768,4.768,0,0,0-2.275-1.287,1.234,1.234,0,0,1-.881-1.318,1.068,1.068,0,0,1,.514-.65,1.072,1.072,0,0,1,.822-.081,7.42,7.42,0,0,1,4.127,2.963,23.333,23.333,0,0,1,3.271,6.325c.1.273.2.551.34.946.223-.426.381-.735.527-1.067.223-.489.488-.91,1.059-.941a1.23,1.23,0,0,1,1.238.807l.014.507c-.732,1.349-1.443,2.712-2.119,4.061a1.059,1.059,0,0,1-.777.619.856.856,0,0,1-.186.018A1.054,1.054,0,0,1-16759.709,50.632Zm-12.441-3.8a3.171,3.171,0,0,1-2.814-2.022l5.408-3.187a3.2,3.2,0,0,1,.389,3.452,3.176,3.176,0,0,1-2.836,1.762C-16772.055,46.835-16772.1,46.835-16772.15,46.831Zm-7.709-10.6,5.4-3.187,4.234,7.437-5.4,3.138Zm-16.861-13.2a12.789,12.789,0,0,1,12.67-12.9,12.9,12.9,0,0,1,12.863,12.749,12.789,12.789,0,0,1-12.691,12.879h-.074A12.789,12.789,0,0,1-16796.721,23.037Zm12.67-10.763a10.659,10.659,0,0,0-10.557,10.758,10.662,10.662,0,0,0,10.719,10.6,10.661,10.661,0,0,0,10.557-10.758,10.655,10.655,0,0,0-10.637-10.6Zm-8.609,10.741a8.766,8.766,0,0,1,8.67-8.844,8.767,8.767,0,0,1,8.828,8.687,8.762,8.762,0,0,1-2.5,6.271,8.684,8.684,0,0,1-6.2,2.609h-.041A8.764,8.764,0,0,1-16792.66,23.014Zm7.668,4.232a.308.308,0,0,0,.229.224c.58.036,1.156.027,1.771.027V23.126h-2Zm3.594.224h1.971V18.626h-1.971Zm-7.158,0h1.988V20.647h-1.988Zm-11-13.264a7.13,7.13,0,0,1-3.4-2.228,19.053,19.053,0,0,1-3.176-5.388c-.434-.883-.729-1.681-1.082-2.591-.281.56-.494,1.062-.748,1.475a1.059,1.059,0,0,1-.926.547,1.057,1.057,0,0,1-.926-.547,1.071,1.071,0,0,1,0-.883c.666-1.264,1.387-2.5,2.117-3.739.475-.852.939-.955,1.693-.35,1.059.829,2.01,1.654,3.016,2.5a1.079,1.079,0,0,1,.416.7,1.079,1.079,0,0,1-.215.793,1.051,1.051,0,0,1-1.471.242l-.633-.4c.348.852.611,1.573.92,2.264a11.989,11.989,0,0,0,2.795,4.25,12.627,12.627,0,0,0,1.957,1.192c.115.072.266.094.379.157a1.083,1.083,0,0,1,.584.61,1.07,1.07,0,0,1-.043.838,1.049,1.049,0,0,1-.951.605A1.04,1.04,0,0,1-16799.561,14.206Zm31.8-.838a1.167,1.167,0,0,1,.627-1.219,1.092,1.092,0,0,1,.285-.13,6.418,6.418,0,0,0,3.65-2.963,20.407,20.407,0,0,0,2.361-4.868l-.582.363a1.152,1.152,0,0,1-1.41-.184,1.061,1.061,0,0,1-.049-1.313,2.09,2.09,0,0,1,.357-.386c.932-.784,1.895-1.529,2.809-2.335a1.042,1.042,0,0,1,.961-.314,1.056,1.056,0,0,1,.781.641c.646,1.309,1.389,2.573,2.117,3.846l-.018.533a1.286,1.286,0,0,1-1.061.807,1.061,1.061,0,0,1-1.059-.619l-.73-1.434-.225.713a19.791,19.791,0,0,1-3.236,6.567,7.73,7.73,0,0,1-3.959,2.86,1.519,1.519,0,0,1-.307.072,1.057,1.057,0,0,1-.287.04A1.126,1.126,0,0,1-16767.758,13.367Z" transform="translate(17856 5255)" fill="#fff"/>
  </g>
</svg>
