<svg xmlns="http://www.w3.org/2000/svg" width="165.319" height="126.858" viewBox="0 0 165.319 126.858">
  <g id="_02" data-name="02" transform="translate(-299 -125.273)">
    <path id="Path_3189" data-name="Path 3189" d="M308,316.588c.8-6.354,3.309-10.871,8.489-14.043,1.988-1.218,4.283-1.828,6.38-2.846,11.745-5.7,14.842-22.511,26.736-27.895,6.45-2.919,13.968-1.7,20.814.107s13.8,4.172,20.832,3.366c7.431-.851,14-5.147,19.856-9.795s11.438-9.832,18.21-13.009,15.219-4.011,21.47.1c0,0,14.388,8.6,12.637,29.221s-4.015,34.8-4.015,34.8Z" transform="translate(-4.441 -65.058)" fill="#ebf9ff"/>
    <g id="Group_3750" data-name="Group 3750" transform="translate(316.518 125.273)">
      <g id="Group_3701" data-name="Group 3701" transform="translate(19.724 2.229)">
        <path id="Path_3190" data-name="Path 3190" d="M587.018,179a6.809,6.809,0,0,0-3.273.866A5.576,5.576,0,0,0,578,174a7.864,7.864,0,0,0-7.539,6.61,6.738,6.738,0,0,0-.062.724,4.876,4.876,0,0,0-.923-.088,6.006,6.006,0,0,0-5.757,5.048,4.285,4.285,0,0,0,4.339,5.048h17.225a7.341,7.341,0,0,0,7.038-6.171A5.239,5.239,0,0,0,587.018,179Z" transform="translate(-474.272 -152.963)" fill="#e9f8ff"/>
        <path id="Path_3191" data-name="Path 3191" d="M541.528,133.694a5.11,5.11,0,0,0-2.456.65,4.184,4.184,0,0,0-4.309-4.4A5.9,5.9,0,0,0,529.1,134.9a5.075,5.075,0,0,0-.046.543,3.673,3.673,0,0,0-.693-.066,4.507,4.507,0,0,0-4.32,3.788,3.216,3.216,0,0,0,3.255,3.787h12.925a5.509,5.509,0,0,0,5.281-4.63A3.931,3.931,0,0,0,541.528,133.694Z" transform="translate(-453.548 -129.942)" fill="#e9f8ff"/>
        <path id="Path_3192" data-name="Path 3192" d="M392.022,172.633a4.549,4.549,0,0,0-2.184.578,3.719,3.719,0,0,0-3.831-3.913,5.246,5.246,0,0,0-5.03,4.41,4.422,4.422,0,0,0-.041.483,3.229,3.229,0,0,0-.616-.059,4.006,4.006,0,0,0-3.84,3.367,2.859,2.859,0,0,0,2.894,3.367h11.491a4.9,4.9,0,0,0,4.695-4.116A3.5,3.5,0,0,0,392.022,172.633Z" transform="translate(-376.447 -150.506)" fill="#e9f8ff" opacity="0.5"/>
      </g>
      <g id="Group_3703" data-name="Group 3703" transform="translate(66.857 5.122)">
        <g id="Group_3702" data-name="Group 3702">
          <path id="Path_3193" data-name="Path 3193" d="M489.472,144.115l.269-1.916a.2.2,0,0,0-.2-.235h-.583a.188.188,0,0,1-.193-.178,5.491,5.491,0,0,0-.542-1.99.239.239,0,0,1,.068-.281l.467-.41a.239.239,0,0,0,.046-.332l-1.164-1.355a.235.235,0,0,0-.332,0l-.467.41a.233.233,0,0,1-.285.029,5.361,5.361,0,0,0-1.874-.822.19.19,0,0,1-.148-.219l.082-.581a.2.2,0,0,0-.2-.235H482.5a.279.279,0,0,0-.268.235l-.082.581a.27.27,0,0,1-.209.219,7.2,7.2,0,0,0-2.106.822.217.217,0,0,1-.277-.029l-.352-.409a.234.234,0,0,0-.332,0l-1.545,1.355a.24.24,0,0,0-.047.332l.352.41a.222.222,0,0,1-.01.28,7.338,7.338,0,0,0-1.1,1.99.267.267,0,0,1-.243.178H475.7a.279.279,0,0,0-.268.235l-.269,1.916a.2.2,0,0,0,.2.235h.582a.19.19,0,0,1,.194.178,5.491,5.491,0,0,0,.542,1.99.238.238,0,0,1-.068.281l-.467.41a.24.24,0,0,0-.047.332l1.165,1.355a.234.234,0,0,0,.332,0l.468-.41a.233.233,0,0,1,.285-.029,5.375,5.375,0,0,0,1.874.821.19.19,0,0,1,.148.219l-.082.583a.2.2,0,0,0,.2.234H482.4a.279.279,0,0,0,.268-.234l.082-.583a.269.269,0,0,1,.209-.219,7.2,7.2,0,0,0,2.1-.821.216.216,0,0,1,.277.029l.353.41a.234.234,0,0,0,.332,0l1.545-1.355a.24.24,0,0,0,.047-.332l-.352-.41a.222.222,0,0,1,.011-.281,7.345,7.345,0,0,0,1.1-1.989.269.269,0,0,1,.244-.179h.583A.28.28,0,0,0,489.472,144.115Zm-7.935,2.669a3.068,3.068,0,0,1-2.77-3.195,4.317,4.317,0,0,1,4.194-4.079,3.1,3.1,0,0,1,3.134,3.646A4.309,4.309,0,0,1,481.538,146.784Z" transform="translate(-475.156 -136)" fill="#e9f8ff"/>
          <path id="Path_3194" data-name="Path 3194" d="M510.944,158.857l.221-1.573a.164.164,0,0,0-.166-.193h-.479a.156.156,0,0,1-.159-.147,4.507,4.507,0,0,0-.444-1.633.2.2,0,0,1,.056-.231l.384-.336a.2.2,0,0,0,.038-.273l-.956-1.113a.193.193,0,0,0-.273,0l-.383.336a.191.191,0,0,1-.234.024,4.4,4.4,0,0,0-1.539-.675.156.156,0,0,1-.121-.18l.067-.477a.164.164,0,0,0-.166-.193h-1.573a.229.229,0,0,0-.22.193l-.067.477a.222.222,0,0,1-.172.18,5.923,5.923,0,0,0-1.729.675.177.177,0,0,1-.227-.023l-.289-.336a.193.193,0,0,0-.273,0l-1.268,1.113a.2.2,0,0,0-.038.273l.289.336a.182.182,0,0,1-.009.23,6.023,6.023,0,0,0-.9,1.634.221.221,0,0,1-.2.147h-.478a.229.229,0,0,0-.22.193l-.221,1.573a.164.164,0,0,0,.166.193h.478a.155.155,0,0,1,.159.146,4.5,4.5,0,0,0,.445,1.634.2.2,0,0,1-.056.23L500,161.4a.2.2,0,0,0-.039.273l.956,1.113a.193.193,0,0,0,.273,0l.384-.337a.192.192,0,0,1,.234-.024,4.406,4.406,0,0,0,1.539.674.156.156,0,0,1,.121.18l-.067.479a.164.164,0,0,0,.166.193h1.573a.23.23,0,0,0,.22-.193l.067-.479a.22.22,0,0,1,.171-.18,5.907,5.907,0,0,0,1.728-.674.178.178,0,0,1,.227.024l.289.337a.193.193,0,0,0,.273,0l1.269-1.113a.2.2,0,0,0,.038-.273l-.289-.337a.181.181,0,0,1,.009-.23,6.029,6.029,0,0,0,.9-1.634.22.22,0,0,1,.2-.146h.478A.23.23,0,0,0,510.944,158.857Zm-6.514,2.191a2.519,2.519,0,0,1-2.274-2.623,3.545,3.545,0,0,1,3.444-3.349,2.541,2.541,0,0,1,2.573,2.993A3.538,3.538,0,0,1,504.43,161.048Z" transform="translate(-487.714 -144.462)" fill="#e9f8ff"/>
        </g>
      </g>
      <g id="Group_3749" data-name="Group 3749" transform="translate(0)">
        <g id="Group_3748" data-name="Group 3748">
          <g id="Group_3706" data-name="Group 3706" transform="translate(52.646 29.354)">
            <g id="Group_3704" data-name="Group 3704">
              <path id="Path_3195" data-name="Path 3195" d="M446.455,189.186a1.035,1.035,0,0,1-1.047-1.219,1.452,1.452,0,0,1,1.39-1.219,1.035,1.035,0,0,1,1.047,1.219A1.451,1.451,0,0,1,446.455,189.186Zm.292-2.077a1.022,1.022,0,0,0-.978.858.729.729,0,0,0,.737.858,1.022,1.022,0,0,0,.978-.858A.729.729,0,0,0,446.747,187.109Z" transform="translate(-445.396 -186.749)" fill="#e9f8ff"/>
            </g>
            <g id="Group_3705" data-name="Group 3705" transform="translate(4.247)">
              <path id="Path_3196" data-name="Path 3196" d="M455.35,189.186a1.035,1.035,0,0,1-1.047-1.219,1.452,1.452,0,0,1,1.39-1.219,1.036,1.036,0,0,1,1.047,1.219A1.452,1.452,0,0,1,455.35,189.186Zm.292-2.077a1.022,1.022,0,0,0-.979.858.729.729,0,0,0,.738.858,1.022,1.022,0,0,0,.978-.858A.729.729,0,0,0,455.642,187.109Z" transform="translate(-454.291 -186.749)" fill="#e9f8ff"/>
            </g>
          </g>
          <g id="Group_3728" data-name="Group 3728" transform="translate(17.976 1.578)">
            <g id="Group_3710" data-name="Group 3710" transform="translate(111.502 51.812)">
              <g id="Group_3707" data-name="Group 3707">
                <path id="Path_3197" data-name="Path 3197" d="M608.132,239.133H606.47a.164.164,0,0,1-.166-.194l.234-1.661a.23.23,0,0,1,.221-.194h1.662a.165.165,0,0,1,.167.194l-.234,1.661A.231.231,0,0,1,608.132,239.133Z" transform="translate(-606.302 -237.084)" fill="#e9f8ff"/>
              </g>
              <g id="Group_3708" data-name="Group 3708" transform="translate(2.618)">
                <path id="Path_3198" data-name="Path 3198" d="M613.614,239.133h-1.662a.164.164,0,0,1-.166-.194l.233-1.661a.23.23,0,0,1,.221-.194H613.9a.165.165,0,0,1,.167.194l-.233,1.661A.231.231,0,0,1,613.614,239.133Z" transform="translate(-611.784 -237.084)" fill="#e9f8ff"/>
              </g>
              <g id="Group_3709" data-name="Group 3709" transform="translate(5.358)">
                <path id="Path_3199" data-name="Path 3199" d="M619.354,239.133h-1.662a.164.164,0,0,1-.166-.194l.233-1.661a.23.23,0,0,1,.221-.194h1.662a.164.164,0,0,1,.166.194l-.234,1.661A.23.23,0,0,1,619.354,239.133Z" transform="translate(-617.524 -237.084)" fill="#e9f8ff"/>
              </g>
            </g>
            <g id="Group_3714" data-name="Group 3714" transform="translate(3.262 74.917)">
              <g id="Group_3711" data-name="Group 3711">
                <path id="Path_3200" data-name="Path 3200" d="M381.449,287.521h-1.662a.164.164,0,0,1-.166-.194l.234-1.661a.23.23,0,0,1,.221-.194h1.662a.165.165,0,0,1,.167.194l-.234,1.661A.231.231,0,0,1,381.449,287.521Z" transform="translate(-379.619 -285.472)" fill="#d2f0fc"/>
              </g>
              <g id="Group_3712" data-name="Group 3712" transform="translate(2.741)">
                <path id="Path_3201" data-name="Path 3201" d="M387.189,287.521h-1.662a.164.164,0,0,1-.166-.194l.233-1.661a.23.23,0,0,1,.221-.194h1.662a.165.165,0,0,1,.167.194l-.234,1.661A.23.23,0,0,1,387.189,287.521Z" transform="translate(-385.359 -285.472)" fill="#d2f0fc"/>
              </g>
              <g id="Group_3713" data-name="Group 3713" transform="translate(5.481)">
                <path id="Path_3202" data-name="Path 3202" d="M392.928,287.521h-1.662a.165.165,0,0,1-.167-.194l.234-1.661a.231.231,0,0,1,.221-.194h1.662a.164.164,0,0,1,.166.194l-.233,1.661A.23.23,0,0,1,392.928,287.521Z" transform="translate(-391.098 -285.472)" fill="#d2f0fc"/>
              </g>
            </g>
            <g id="Group_3719" data-name="Group 3719" transform="translate(26.732 16.371)">
              <g id="Group_3718" data-name="Group 3718">
                <g id="Group_3715" data-name="Group 3715">
                  <path id="Path_3203" data-name="Path 3203" d="M430.6,164.912h-1.662a.165.165,0,0,1-.167-.194l.233-1.662a.231.231,0,0,1,.221-.193h1.662a.164.164,0,0,1,.166.193l-.233,1.662A.23.23,0,0,1,430.6,164.912Z" transform="translate(-428.77 -162.863)" fill="#a0d3fc"/>
                </g>
                <g id="Group_3716" data-name="Group 3716" transform="translate(2.741)">
                  <path id="Path_3204" data-name="Path 3204" d="M436.34,164.912h-1.662a.165.165,0,0,1-.167-.194l.234-1.662a.231.231,0,0,1,.221-.193h1.662a.164.164,0,0,1,.166.193l-.233,1.662A.231.231,0,0,1,436.34,164.912Z" transform="translate(-434.51 -162.863)" fill="#a0d3fc"/>
                </g>
                <g id="Group_3717" data-name="Group 3717" transform="translate(5.482)">
                  <path id="Path_3205" data-name="Path 3205" d="M442.08,164.912h-1.661a.165.165,0,0,1-.167-.194l.234-1.662a.23.23,0,0,1,.221-.193h1.661a.164.164,0,0,1,.167.193l-.233,1.662A.231.231,0,0,1,442.08,164.912Z" transform="translate(-440.25 -162.863)" fill="#a0d3fc"/>
                </g>
              </g>
            </g>
            <g id="Group_3723" data-name="Group 3723" transform="translate(105.003)">
              <g id="Group_3720" data-name="Group 3720">
                <path id="Path_3206" data-name="Path 3206" d="M594.521,130.626H592.86a.165.165,0,0,1-.167-.194l.234-1.662a.23.23,0,0,1,.221-.193h1.662a.164.164,0,0,1,.166.193l-.233,1.662A.23.23,0,0,1,594.521,130.626Z" transform="translate(-592.691 -128.577)" fill="#e9f8ff"/>
              </g>
              <g id="Group_3721" data-name="Group 3721" transform="translate(2.741)">
                <path id="Path_3207" data-name="Path 3207" d="M600.261,130.626H598.6a.165.165,0,0,1-.167-.194l.233-1.662a.23.23,0,0,1,.221-.193h1.662a.164.164,0,0,1,.166.193l-.233,1.662A.231.231,0,0,1,600.261,130.626Z" transform="translate(-598.431 -128.577)" fill="#e9f8ff"/>
              </g>
              <g id="Group_3722" data-name="Group 3722" transform="translate(5.482)">
                <path id="Path_3208" data-name="Path 3208" d="M606,130.626h-1.661a.165.165,0,0,1-.167-.194l.234-1.662a.23.23,0,0,1,.221-.193h1.661a.164.164,0,0,1,.167.193l-.233,1.662A.231.231,0,0,1,606,130.626Z" transform="translate(-604.171 -128.577)" fill="#e9f8ff"/>
              </g>
            </g>
            <g id="Group_3727" data-name="Group 3727" transform="translate(0 6.134)">
              <g id="Group_3724" data-name="Group 3724">
                <path id="Path_3209" data-name="Path 3209" d="M374.617,143.472h-1.662a.164.164,0,0,1-.167-.193l.234-1.662a.231.231,0,0,1,.221-.194h1.662a.164.164,0,0,1,.166.194l-.234,1.662A.23.23,0,0,1,374.617,143.472Z" transform="translate(-372.787 -141.423)" fill="#e9f8ff"/>
              </g>
              <g id="Group_3725" data-name="Group 3725" transform="translate(2.741)">
                <path id="Path_3210" data-name="Path 3210" d="M380.357,143.472H378.7a.164.164,0,0,1-.167-.193l.233-1.662a.231.231,0,0,1,.221-.194h1.662a.165.165,0,0,1,.166.194l-.234,1.662A.23.23,0,0,1,380.357,143.472Z" transform="translate(-378.527 -141.423)" fill="#e9f8ff"/>
              </g>
              <g id="Group_3726" data-name="Group 3726" transform="translate(5.482)">
                <path id="Path_3211" data-name="Path 3211" d="M386.1,143.472h-1.662a.164.164,0,0,1-.166-.193l.234-1.662a.231.231,0,0,1,.221-.194h1.661a.165.165,0,0,1,.167.194l-.233,1.662A.231.231,0,0,1,386.1,143.472Z" transform="translate(-384.267 -141.423)" fill="#e9f8ff"/>
              </g>
            </g>
          </g>
          <g id="Group_3729" data-name="Group 3729" transform="translate(143.372 46.919)">
            <path id="Path_3212" data-name="Path 3212" d="M636.459,225.971a1.035,1.035,0,0,1-1.047-1.219,1.451,1.451,0,0,1,1.389-1.219,1.035,1.035,0,0,1,1.047,1.219A1.451,1.451,0,0,1,636.459,225.971Zm.292-2.077a1.023,1.023,0,0,0-.979.858.729.729,0,0,0,.737.858,1.022,1.022,0,0,0,.978-.858A.729.729,0,0,0,636.751,223.894Z" transform="translate(-635.4 -223.534)" fill="#e9f8ff"/>
          </g>
          <g id="Group_3730" data-name="Group 3730" transform="translate(143.554 71.518)">
            <path id="Path_3213" data-name="Path 3213" d="M637.867,276.09a1.235,1.235,0,0,1-1.184,1.038.881.881,0,0,1-.892-1.038,1.236,1.236,0,0,1,1.184-1.039A.882.882,0,0,1,637.867,276.09Z" transform="translate(-635.78 -275.051)" fill="#a0d3fc"/>
          </g>
          <g id="Group_3732" data-name="Group 3732" transform="translate(0 102.316)">
            <g id="Group_3731" data-name="Group 3731">
              <path id="Path_3214" data-name="Path 3214" d="M336.658,340.3a.9.9,0,0,1-.861.755.641.641,0,0,1-.649-.755.9.9,0,0,1,.861-.755A.641.641,0,0,1,336.658,340.3Z" transform="translate(-335.14 -339.549)" fill="#e9f8ff"/>
            </g>
          </g>
          <g id="Group_3734" data-name="Group 3734" transform="translate(33.626 51.993)">
            <g id="Group_3733" data-name="Group 3733">
              <path id="Path_3215" data-name="Path 3215" d="M407.078,234.916a.9.9,0,0,1-.86.755.641.641,0,0,1-.649-.755.9.9,0,0,1,.861-.755A.641.641,0,0,1,407.078,234.916Z" transform="translate(-405.561 -234.161)" fill="#e9f8ff"/>
            </g>
          </g>
          <g id="Group_3735" data-name="Group 3735" transform="translate(76.233)">
            <path id="Path_3216" data-name="Path 3216" d="M495.9,125.826a.657.657,0,0,1-.63.553.469.469,0,0,1-.475-.553.658.658,0,0,1,.63-.553A.469.469,0,0,1,495.9,125.826Z" transform="translate(-494.791 -125.273)" fill="#e9f8ff"/>
          </g>
          <g id="Group_3738" data-name="Group 3738" transform="translate(122.153 17.29)">
            <g id="Group_3736" data-name="Group 3736" transform="translate(0 0.961)">
              <path id="Path_3217" data-name="Path 3217" d="M593.2,164.216h-1.923a.306.306,0,0,1-.31-.361.429.429,0,0,1,.412-.361H593.3a.306.306,0,0,1,.31.361A.429.429,0,0,1,593.2,164.216Z" transform="translate(-590.961 -163.495)" fill="#e9f8ff"/>
            </g>
            <g id="Group_3737" data-name="Group 3737" transform="translate(0.826)">
              <path id="Path_3218" data-name="Path 3218" d="M593,164.126a.306.306,0,0,1-.31-.36l.27-1.923a.428.428,0,0,1,.411-.36.306.306,0,0,1,.31.36l-.27,1.923A.429.429,0,0,1,593,164.126Z" transform="translate(-592.691 -161.482)" fill="#e9f8ff"/>
            </g>
          </g>
          <g id="Group_3741" data-name="Group 3741" transform="translate(126.258 91.841)">
            <g id="Group_3739" data-name="Group 3739" transform="translate(0 0.962)">
              <path id="Path_3219" data-name="Path 3219" d="M601.795,320.348h-1.923a.306.306,0,0,1-.31-.361.429.429,0,0,1,.411-.36H601.9a.306.306,0,0,1,.31.36A.429.429,0,0,1,601.795,320.348Z" transform="translate(-599.558 -319.627)" fill="#a0d3fc"/>
            </g>
            <g id="Group_3740" data-name="Group 3740" transform="translate(0.827)">
              <path id="Path_3220" data-name="Path 3220" d="M601.6,320.257a.306.306,0,0,1-.309-.361l.27-1.923a.429.429,0,0,1,.411-.361.306.306,0,0,1,.31.361l-.27,1.923A.43.43,0,0,1,601.6,320.257Z" transform="translate(-601.289 -317.613)" fill="#a0d3fc"/>
            </g>
          </g>
          <g id="Group_3744" data-name="Group 3744" transform="translate(60.649 3.781)">
            <g id="Group_3742" data-name="Group 3742" transform="translate(0 0.961)">
              <path id="Path_3221" data-name="Path 3221" d="M464.39,135.926h-1.922a.306.306,0,0,1-.31-.361.429.429,0,0,1,.411-.361h1.923a.306.306,0,0,1,.31.361A.43.43,0,0,1,464.39,135.926Z" transform="translate(-462.154 -135.205)" fill="#e9f8ff"/>
            </g>
            <g id="Group_3743" data-name="Group 3743" transform="translate(0.826)">
              <path id="Path_3222" data-name="Path 3222" d="M464.2,135.836a.306.306,0,0,1-.31-.361l.27-1.923a.429.429,0,0,1,.412-.361.306.306,0,0,1,.31.361l-.27,1.923A.43.43,0,0,1,464.2,135.836Z" transform="translate(-463.885 -133.192)" fill="#e9f8ff"/>
            </g>
          </g>
          <g id="Group_3747" data-name="Group 3747" transform="translate(24.94 44.667)">
            <g id="Group_3745" data-name="Group 3745" transform="translate(0 0.961)">
              <path id="Path_3223" data-name="Path 3223" d="M389.607,221.552h-1.923a.306.306,0,0,1-.31-.361.43.43,0,0,1,.411-.361h1.923a.306.306,0,0,1,.31.361A.43.43,0,0,1,389.607,221.552Z" transform="translate(-387.371 -220.831)" fill="#e9f8ff"/>
            </g>
            <g id="Group_3746" data-name="Group 3746" transform="translate(0.826)">
              <path id="Path_3224" data-name="Path 3224" d="M389.415,221.462a.306.306,0,0,1-.31-.36l.27-1.922a.429.429,0,0,1,.411-.361.307.307,0,0,1,.31.361l-.27,1.922A.429.429,0,0,1,389.415,221.462Z" transform="translate(-389.101 -218.818)" fill="#e9f8ff"/>
            </g>
          </g>
        </g>
      </g>
    </g>
    <g id="Group_3761" data-name="Group 3761" transform="translate(319.456 206.638)">
      <g id="Group_3759" data-name="Group 3759" transform="translate(6.335 12.563)">
        <g id="Group_3752" data-name="Group 3752" transform="translate(9.534 5.483)">
          <g id="Group_3751" data-name="Group 3751">
            <path id="Path_3225" data-name="Path 3225" d="M375.05,351.883h-.522c0-.113.042-11.355,3.627-18.419l.466.236C375.091,340.654,375.05,351.771,375.05,351.883Z" transform="translate(-374.528 -333.464)" fill="#b8dcfd"/>
          </g>
        </g>
        <g id="Group_3754" data-name="Group 3754" transform="translate(0 5.392)">
          <g id="Group_3753" data-name="Group 3753">
            <path id="Path_3226" data-name="Path 3226" d="M360.029,346.2a22.408,22.408,0,0,0-5.468-12.566l.377-.361a22.981,22.981,0,0,1,5.613,12.889Z" transform="translate(-354.561 -333.274)" fill="#b8dcfd"/>
          </g>
        </g>
        <g id="Group_3756" data-name="Group 3756" transform="translate(3.31)">
          <g id="Group_3755" data-name="Group 3755">
            <path id="Path_3227" data-name="Path 3227" d="M366.329,344.514l-.521-.021c0-.117.4-11.767-4.314-22.3l.476-.214C366.738,332.628,366.333,344.4,366.329,344.514Z" transform="translate(-361.493 -321.982)" fill="#d3e5f5"/>
          </g>
        </g>
        <g id="Group_3758" data-name="Group 3758" transform="translate(8.459 0.638)">
          <g id="Group_3757" data-name="Group 3757">
            <path id="Path_3228" data-name="Path 3228" d="M372.49,346.115l.519-.06c-.013-.116-1.292-11.7,2.617-22.561l-.491-.177C371.183,334.294,372.476,346,372.49,346.115Z" transform="translate(-372.277 -323.318)" fill="#d3e5f5"/>
          </g>
        </g>
      </g>
      <g id="Group_3760" data-name="Group 3760" transform="translate(7.326 28.765)">
        <path id="Path_3229" data-name="Path 3229" d="M359.086,372.128h9.43l2.434-14.876a1.152,1.152,0,0,0-1.137-1.339H357.789a1.152,1.152,0,0,0-1.137,1.339Z" transform="translate(-356.637 -355.913)" fill="#c4dffa"/>
      </g>
      <path id="Path_3230" data-name="Path 3230" d="M351.52,329.964a9.494,9.494,0,0,0,.038-4.643c-.6-2.974-4.55-9.4-10.264-9.774a41.59,41.59,0,0,1,2.986,5.822C345.71,325.108,347.817,329.048,351.52,329.964Z" transform="translate(-341.293 -306.057)" fill="#b8dcfd"/>
      <path id="Path_3231" data-name="Path 3231" d="M351.2,305.245s1.887,7.9,3.438,11.268a47.2,47.2,0,0,0,5.019,7.78,14.3,14.3,0,0,0,.209-8.949C358.154,309.988,351.2,305.245,351.2,305.245Z" transform="translate(-346.471 -300.674)" fill="#d3e5f5"/>
      <path id="Path_3232" data-name="Path 3232" d="M385.641,310.081a86.129,86.129,0,0,1-3.406,10.8,18.279,18.279,0,0,1-4.659,5.935,10.515,10.515,0,0,1-.267-7.92C379.024,313.544,385.641,310.081,385.641,310.081Z" transform="translate(-359.793 -303.201)" fill="#b8dcfd"/>
      <path id="Path_3233" data-name="Path 3233" d="M374.783,313.138a9.89,9.89,0,0,1-.941-7.384c1.553-6.2,7.453-10.082,7.453-10.082a26.956,26.956,0,0,1-1.306,10.038C377.806,311.684,374.783,313.138,374.783,313.138Z" transform="translate(-358.135 -295.672)" fill="#d3e5f5"/>
    </g>
    <g id="Group_3778" data-name="Group 3778" transform="translate(371.606 143.885)">
      <g id="Group_3765" data-name="Group 3765" transform="translate(0)">
        <path id="Path_3234" data-name="Path 3234" d="M514.867,169.824h0l-.035-.026-.024-.018-3.538-2.624-.086,1.351c-.15-.009-.3-.023-.453-.023H476.058a9.094,9.094,0,0,0-8.718,7.644l-11.02,78.408a7.153,7.153,0,0,0,.246,3.162l-2.079-.1,4.209,3.193c.061.048.123.1.186.141l.1.076,0-.012a6.79,6.79,0,0,0,3.911,1.187h34.675a9.094,9.094,0,0,0,8.718-7.644l11.02-78.408A6.594,6.594,0,0,0,514.867,169.824Z" transform="translate(-452.588 -165.768)" fill="#0fa4ff"/>
        <path id="Path_3235" data-name="Path 3235" d="M491.83,257.947H457.156a6.489,6.489,0,0,1-6.57-7.644l11.02-78.409a9.094,9.094,0,0,1,8.718-7.644H505a6.489,6.489,0,0,1,6.569,7.644L500.548,250.3A9.094,9.094,0,0,1,491.83,257.947Z" transform="translate(-450.51 -164.251)" fill="#d1eefe"/>
        <path id="Path_3236" data-name="Path 3236" d="M511.754,174.487,500.847,252.1a7.291,7.291,0,0,1-6.989,6.128H459.893a5.2,5.2,0,0,1-5.267-6.128l10.907-77.608a7.29,7.29,0,0,1,6.989-6.128h5.77a1.153,1.153,0,0,1,1.085.682l.805,1.846a1.81,1.81,0,0,0,1.7,1.07h14.227a2.531,2.531,0,0,0,2.006-1.07l1.325-1.846a1.608,1.608,0,0,1,1.277-.682h5.769A5.2,5.2,0,0,1,511.754,174.487Z" transform="translate(-452.629 -166.397)" fill="#fff"/>
        <g id="Group_3762" data-name="Group 3762" transform="translate(29.902 2.663)">
          <path id="Path_3237" data-name="Path 3237" d="M523.634,171.156H513.71a.563.563,0,0,1-.57-.664h0a.79.79,0,0,1,.757-.664h9.923a.564.564,0,0,1,.571.664h0A.79.79,0,0,1,523.634,171.156Z" transform="translate(-513.133 -169.828)" fill="#0fa4ff"/>
          <path id="Path_3238" data-name="Path 3238" d="M540.066,170.492a.79.79,0,0,1-.757.664.563.563,0,0,1-.57-.664.79.79,0,0,1,.757-.664A.564.564,0,0,1,540.066,170.492Z" transform="translate(-526.509 -169.828)" fill="#0fa4ff"/>
        </g>
        <g id="Group_3763" data-name="Group 3763" transform="translate(59.186 15.37)">
          <path id="Path_3239" data-name="Path 3239" d="M577.078,196.725l.092-.183-.655.232h0a1.12,1.12,0,0,0-.71.862l-1.335,9.5a.907.907,0,0,0,.922,1.061h0a1,1,0,0,0,.307-.053l.609-.212-.191-.033a1.066,1.066,0,0,0,.342-.629l1.336-9.5A.9.9,0,0,0,577.078,196.725Z" transform="translate(-574.461 -196.493)" fill="#053756"/>
          <path id="Path_3240" data-name="Path 3240" d="M576.65,207.931h-.005a.907.907,0,0,1-.921-1.061l1.335-9.5a1.118,1.118,0,0,1,1.072-.933h0a.907.907,0,0,1,.922,1.061l-1.336,9.5A1.113,1.113,0,0,1,576.65,207.931Z" transform="translate(-575.116 -196.44)" fill="#0265a1"/>
        </g>
        <g id="Group_3764" data-name="Group 3764" transform="translate(57.315 28.156)">
          <path id="Path_3241" data-name="Path 3241" d="M573.16,223.5l.092-.183-.656.232h0a1.123,1.123,0,0,0-.71.863l-1.335,9.5a.907.907,0,0,0,.922,1.061h.005a1,1,0,0,0,.307-.053l.609-.212-.191-.033a1.071,1.071,0,0,0,.342-.629l1.336-9.5A.9.9,0,0,0,573.16,223.5Z" transform="translate(-570.543 -223.27)" fill="#053756"/>
          <path id="Path_3242" data-name="Path 3242" d="M572.731,234.708h-.005a.907.907,0,0,1-.922-1.06l1.335-9.5a1.119,1.119,0,0,1,1.073-.932h0a.907.907,0,0,1,.922,1.06l-1.336,9.5A1.112,1.112,0,0,1,572.731,234.708Z" transform="translate(-571.197 -223.217)" fill="#0265a1"/>
        </g>
      </g>
      <path id="Path_3243" data-name="Path 3243" d="M518.4,195.143H481.473a1.3,1.3,0,0,1-1.316-1.532l1.5-10.668a1.822,1.822,0,0,1,1.747-1.531h36.926a1.3,1.3,0,0,1,1.316,1.531l-1.5,10.668A1.822,1.822,0,0,1,518.4,195.143Z" transform="translate(-465.992 -173.218)" fill="none" stroke="#0fa4ff" stroke-width="0.851"/>
      <path id="Path_3244" data-name="Path 3244" d="M499.1,329.514H462.173a1.3,1.3,0,0,1-1.316-1.532l1.5-10.668a1.822,1.822,0,0,1,1.747-1.532h36.926a1.3,1.3,0,0,1,1.317,1.532l-1.5,10.668A1.822,1.822,0,0,1,499.1,329.514Z" transform="translate(-455.908 -243.427)" fill="#e6f9ff"/>
      <g id="Group_3768" data-name="Group 3768" transform="translate(27.713 49.656)">
        <g id="Group_3767" data-name="Group 3767" transform="translate(5.912 3.332)">
          <g id="Group_3766" data-name="Group 3766" transform="translate(0.432)">
            <path id="Path_3245" data-name="Path 3245" d="M529.634,279.328h-.094l.145-1.032a2.611,2.611,0,0,0-2.641-3.074,3.66,3.66,0,0,0-3.5,3.074l-.145,1.032h-.021a1.025,1.025,0,0,0-.983.862l-.547,3.891a.732.732,0,0,0,.742.862h6.26a1.026,1.026,0,0,0,.984-.862l.547-3.891A.732.732,0,0,0,529.634,279.328Zm-5.317-1.032A2.734,2.734,0,0,1,526.935,276a1.95,1.95,0,0,1,1.972,2.295l-.145,1.032h-4.59Z" transform="translate(-521.834 -275.222)" fill="#71b8ff"/>
            <path id="Path_3246" data-name="Path 3246" d="M530.939,286.912a.863.863,0,0,0-1.071-.982,1.217,1.217,0,0,0-.881.766.889.889,0,0,0,.322,1.081.16.16,0,0,1,.063.2l-.265.644a.524.524,0,0,0,.475.76.706.706,0,0,0,.688-.76l-.083-.637a.211.211,0,0,1,.122-.2A1.192,1.192,0,0,0,530.939,286.912Z" transform="translate(-525.539 -280.806)" fill="#fff"/>
          </g>
          <path id="Path_3247" data-name="Path 3247" d="M528.866,297.63H521.62a.314.314,0,0,1-.318-.37h0a.44.44,0,0,1,.422-.37h7.246a.314.314,0,0,1,.317.37h0A.44.44,0,0,1,528.866,297.63Z" transform="translate(-521.122 -286.544)" fill="#71b8ff"/>
          <path id="Path_3248" data-name="Path 3248" d="M528.5,300.254h-7.246a.314.314,0,0,1-.318-.37h0a.44.44,0,0,1,.422-.37H528.6a.314.314,0,0,1,.318.37h0A.441.441,0,0,1,528.5,300.254Z" transform="translate(-520.929 -287.915)" fill="#71b8ff"/>
        </g>
        <path id="Path_3249" data-name="Path 3249" d="M526.159,287.579H509.875a1.3,1.3,0,0,1-1.312-1.526l2.289-16.284a1.816,1.816,0,0,1,1.74-1.527h16.284a1.3,1.3,0,0,1,1.312,1.527L527.9,286.053A1.816,1.816,0,0,1,526.159,287.579Z" transform="translate(-508.548 -268.243)" fill="none" stroke="#0fa4ff" stroke-width="0.851"/>
      </g>
      <g id="Group_3772" data-name="Group 3772" transform="translate(10.739 28.438)">
        <g id="Group_3769" data-name="Group 3769">
          <path id="Path_3250" data-name="Path 3250" d="M493.566,225.02l-.9-.7-.285.521H477.469a1.3,1.3,0,0,0-1.241,1.088L474.3,239.613l-.764.286,1.058.839v0a.956.956,0,0,0,.607.209h15.523a1.294,1.294,0,0,0,1.241-1.088l1.958-13.928A.936.936,0,0,0,493.566,225.02Z" transform="translate(-473.283 -224.074)" fill="#0fa4ff"/>
          <path id="Path_3251" data-name="Path 3251" d="M492.67,224.9l-1.958,13.928a1.3,1.3,0,0,1-1.241,1.088H473.947a.924.924,0,0,1-.935-1.088l1.958-13.928a1.3,1.3,0,0,1,1.241-1.088h15.525A.924.924,0,0,1,492.67,224.9Z" transform="translate(-473 -223.807)" fill="#95d7ff"/>
          <path id="Path_3252" data-name="Path 3252" d="M483.191,244.138h-9.244a.924.924,0,0,1-.935-1.088l1.033-7.351,2.4-3.338a.925.925,0,0,1,1.606,0l4.057,9.288Z" transform="translate(-473 -228.034)" fill="#fff"/>
          <path id="Path_3253" data-name="Path 3253" d="M498.858,245.643l-.138.979a1.3,1.3,0,0,1-1.241,1.088h-9.153l1.786-2.49,4.324-6.024a.925.925,0,0,1,1.606,0Z" transform="translate(-481.008 -231.606)" fill="#fff"/>
          <path id="Path_3254" data-name="Path 3254" d="M503.58,228.391a2.743,2.743,0,0,1-2.63,2.305,1.957,1.957,0,0,1-1.981-2.305,2.743,2.743,0,0,1,2.629-2.305A1.957,1.957,0,0,1,503.58,228.391Z" transform="translate(-486.557 -224.998)" fill="#fff"/>
        </g>
        <g id="Group_3771" data-name="Group 3771" transform="translate(21.962 1.969)">
          <g id="Group_3770" data-name="Group 3770">
            <path id="Path_3255" data-name="Path 3255" d="M542.346,254.316h-11.8a.468.468,0,0,1-.474-.551h0a.657.657,0,0,1,.629-.552h11.8a.468.468,0,0,1,.474.552h0A.655.655,0,0,1,542.346,254.316Z" transform="translate(-524.778 -241.141)" fill="#71cdf8"/>
            <path id="Path_3256" data-name="Path 3256" d="M520.188,249.245h12.606a.656.656,0,0,0,.629-.552h0a.468.468,0,0,0-.474-.551H520.343a.656.656,0,0,0-.629.551h0A.468.468,0,0,0,520.188,249.245Z" transform="translate(-519.368 -238.491)" fill="#71cdf8"/>
            <path id="Path_3257" data-name="Path 3257" d="M531.974,229.033h-8.945a.468.468,0,0,1-.474-.552h0a.657.657,0,0,1,.629-.551h8.946a.468.468,0,0,1,.474.551h0A.656.656,0,0,1,531.974,229.033Z" transform="translate(-520.852 -227.93)" fill="#71cdf8"/>
            <path id="Path_3258" data-name="Path 3258" d="M525.685,234.1h-3.369a.467.467,0,0,1-.474-.551h0a.655.655,0,0,1,.628-.552h3.369a.468.468,0,0,1,.474.552h0A.655.655,0,0,1,525.685,234.1Z" transform="translate(-520.48 -230.58)" fill="#71cdf8"/>
            <path id="Path_3259" data-name="Path 3259" d="M545.187,234.1h-11.8a.468.468,0,0,1-.474-.551h0a.656.656,0,0,1,.629-.552h11.8a.468.468,0,0,1,.474.552h0A.655.655,0,0,1,545.187,234.1Z" transform="translate(-526.262 -230.58)" fill="#71cdf8"/>
            <path id="Path_3260" data-name="Path 3260" d="M552.1,229.033h-6.136a.468.468,0,0,1-.474-.552h0a.656.656,0,0,1,.629-.551h6.135a.468.468,0,0,1,.474.551h0A.656.656,0,0,1,552.1,229.033Z" transform="translate(-532.838 -227.93)" fill="#71cdf8"/>
            <path id="Path_3261" data-name="Path 3261" d="M522.194,239.177H521.6a.468.468,0,0,1-.474-.551h0a.655.655,0,0,1,.628-.552h.592a.468.468,0,0,1,.474.552h0A.656.656,0,0,1,522.194,239.177Z" transform="translate(-520.107 -233.231)" fill="#71cdf8"/>
            <path id="Path_3262" data-name="Path 3262" d="M533.294,239.177h-6.7a.468.468,0,0,1-.474-.551h0a.656.656,0,0,1,.629-.552h6.7a.468.468,0,0,1,.474.552h0A.656.656,0,0,1,533.294,239.177Z" transform="translate(-522.716 -233.231)" fill="#71cdf8"/>
            <path id="Path_3263" data-name="Path 3263" d="M524.259,244.251H520.89a.468.468,0,0,1-.474-.552h0a.655.655,0,0,1,.629-.551h3.369a.467.467,0,0,1,.474.551h0A.655.655,0,0,1,524.259,244.251Z" transform="translate(-519.735 -235.881)" fill="#71cdf8"/>
            <path id="Path_3264" data-name="Path 3264" d="M543.761,244.251h-11.8a.468.468,0,0,1-.474-.552h0a.655.655,0,0,1,.629-.551h11.8a.468.468,0,0,1,.474.551h0A.656.656,0,0,1,543.761,244.251Z" transform="translate(-525.518 -235.881)" fill="#71cdf8"/>
            <path id="Path_3265" data-name="Path 3265" d="M550.677,239.177h-6.136a.468.468,0,0,1-.474-.551h0a.656.656,0,0,1,.629-.552h6.136a.468.468,0,0,1,.474.552h0A.656.656,0,0,1,550.677,239.177Z" transform="translate(-532.093 -233.231)" fill="#71cdf8"/>
            <path id="Path_3266" data-name="Path 3266" d="M550.458,249.245h2.635a.655.655,0,0,0,.629-.552h0a.467.467,0,0,0-.474-.551h-2.635a.655.655,0,0,0-.628.551h0A.468.468,0,0,0,550.458,249.245Z" transform="translate(-535.184 -238.491)" fill="#71cdf8"/>
            <path id="Path_3267" data-name="Path 3267" d="M522.844,254.316h-3.369a.468.468,0,0,1-.474-.551h0a.656.656,0,0,1,.629-.552H523a.468.468,0,0,1,.474.552h0A.656.656,0,0,1,522.844,254.316Z" transform="translate(-518.995 -241.141)" fill="#71cdf8"/>
          </g>
        </g>
      </g>
      <g id="Group_3777" data-name="Group 3777" transform="translate(9.998 55.744)">
        <path id="Path_3268" data-name="Path 3268" d="M481.257,288.091h-6.723a3.021,3.021,0,0,1-3.051-3.549h0a4.237,4.237,0,0,1,4.048-3.549h6.723a3.021,3.021,0,0,1,3.05,3.549h0A4.237,4.237,0,0,1,481.257,288.091Z" transform="translate(-471.449 -280.993)" fill="#95d7ff"/>
        <g id="Group_3776" data-name="Group 3776" transform="translate(2.241 1.565)">
          <g id="Group_3773" data-name="Group 3773">
            <path id="Path_3269" data-name="Path 3269" d="M477.928,288.238a.405.405,0,0,1-.308-.141l-1.379-1.6a.406.406,0,0,1,.04-.571l1.769-1.55a.406.406,0,1,1,.536.611l-1.466,1.286,1.116,1.3a.406.406,0,0,1-.308.671Z" transform="translate(-476.143 -284.271)" fill="#fff"/>
          </g>
          <g id="Group_3774" data-name="Group 3774" transform="translate(6.774 0)">
            <path id="Path_3270" data-name="Path 3270" d="M490.736,288.239a.406.406,0,0,1-.268-.712l1.527-1.337-1.07-1.245a.406.406,0,1,1,.616-.531l1.333,1.551a.407.407,0,0,1-.04.571l-1.829,1.6A.409.409,0,0,1,490.736,288.239Z" transform="translate(-490.329 -284.272)" fill="#fff"/>
          </g>
          <g id="Group_3775" data-name="Group 3775" transform="translate(3.573 0.001)">
            <path id="Path_3271" data-name="Path 3271" d="M484.031,288.239a.407.407,0,0,1-.367-.581l1.494-3.154a.406.406,0,1,1,.734.349l-1.494,3.154A.406.406,0,0,1,484.031,288.239Z" transform="translate(-483.625 -284.272)" fill="#fff"/>
          </g>
        </g>
      </g>
    </g>
    <g id="Group_3789" data-name="Group 3789" transform="translate(332.093 162.223)">
      <g id="Group_3780" data-name="Group 3780" transform="translate(0 20.913)">
        <path id="Path_3272" data-name="Path 3272" d="M388.9,259.561H368.25a.48.48,0,0,1-.486-.565l1.684-11.978a.672.672,0,0,1,.645-.565h20.65a.48.48,0,0,1,.486.565L389.545,259A.672.672,0,0,1,388.9,259.561Z" transform="translate(-367.759 -246.453)" fill="#e9f8ff"/>
        <path id="Path_3273" data-name="Path 3273" d="M389.629,258.087H370.021a.418.418,0,0,1-.423-.492l1.337-9.516a.586.586,0,0,1,.561-.492H391.1a.418.418,0,0,1,.423.492l-1.337,9.516A.586.586,0,0,1,389.629,258.087Z" transform="translate(-368.718 -247.046)" fill="#a0d3fc"/>
        <path id="Path_3274" data-name="Path 3274" d="M388.41,276.986H368.847a.436.436,0,0,1-.442-.514h0a.611.611,0,0,1,.586-.514h19.562a.436.436,0,0,1,.442.514h0A.612.612,0,0,1,388.41,276.986Z" transform="translate(-368.094 -261.869)" fill="#a0d3fc"/>
        <path id="Path_3275" data-name="Path 3275" d="M389.305,271.681H369.485a.327.327,0,0,1-.331-.385h0a.458.458,0,0,1,.439-.385h19.821a.327.327,0,0,1,.331.385h0A.459.459,0,0,1,389.305,271.681Z" transform="translate(-368.486 -259.232)" fill="#77bde0" opacity="0.31"/>
        <path id="Path_3276" data-name="Path 3276" d="M377.944,271.681h-8.46a.327.327,0,0,1-.331-.385h0a.458.458,0,0,1,.439-.385h8.459a.327.327,0,0,1,.331.385h0A.458.458,0,0,1,377.944,271.681Z" transform="translate(-368.486 -259.232)" fill="#a0d3fc"/>
        <g id="Group_3779" data-name="Group 3779" transform="translate(6.2 0.174)">
          <ellipse id="Ellipse_140" data-name="Ellipse 140" cx="4.264" cy="3.705" rx="4.264" ry="3.705" transform="matrix(0.731, -0.682, 0.682, 0.731, 0, 5.814)" fill="#fff" opacity="0.2"/>
          <path id="Path_3277" data-name="Path 3277" d="M390.427,254.933l2.285,1.435a.333.333,0,0,1-.08.567l-2.688,1.435a.291.291,0,0,1-.451-.284l.4-2.871A.37.37,0,0,1,390.427,254.933Z" transform="translate(-385.313 -251.035)" fill="#fff"/>
        </g>
        <path id="Path_3278" data-name="Path 3278" d="M388.226,270.882a.909.909,0,0,1-.871.764.648.648,0,0,1-.657-.764.909.909,0,0,1,.871-.764A.648.648,0,0,1,388.226,270.882Z" transform="translate(-377.651 -258.818)" fill="#274f89"/>
      </g>
      <g id="Group_3784" data-name="Group 3784" transform="translate(112.845 54.411)">
        <path id="Path_3279" data-name="Path 3279" d="M625.167,334.8l-9.761,6.033-8.065-6.033Z" transform="translate(-605.787 -326.113)" fill="#b8e6f4"/>
        <path id="Path_3280" data-name="Path 3280" d="M625.167,325.294l-7.062-8.406a.935.935,0,0,0-1.338,0l-9.425,8.406Z" transform="translate(-605.787 -316.607)" fill="#b8e6f4"/>
        <g id="Group_3783" data-name="Group 3783" transform="translate(1.81 2.55)">
          <path id="Path_3281" data-name="Path 3281" d="M622.775,336.681h-14.9l1.954-13.9a.989.989,0,0,1,.947-.831h13.237a.705.705,0,0,1,.714.831Z" transform="translate(-607.877 -321.948)" fill="#d1eefe"/>
          <path id="Path_3282" data-name="Path 3282" d="M626.531,323.921h-14.9l.161-1.143a.988.988,0,0,1,.947-.831h13.237a.705.705,0,0,1,.714.831Z" transform="translate(-609.839 -321.948)" fill="#0fa4ff"/>
          <path id="Path_3283" data-name="Path 3283" d="M614.379,323.555a.5.5,0,0,1-.478.42.356.356,0,0,1-.36-.42.5.5,0,0,1,.478-.419A.356.356,0,0,1,614.379,323.555Z" transform="translate(-610.834 -322.569)" fill="#fff"/>
          <path id="Path_3284" data-name="Path 3284" d="M617.256,323.555a.5.5,0,0,1-.479.42.356.356,0,0,1-.361-.42.5.5,0,0,1,.479-.419A.356.356,0,0,1,617.256,323.555Z" transform="translate(-612.337 -322.569)" fill="#fff"/>
          <path id="Path_3285" data-name="Path 3285" d="M620.133,323.555a.5.5,0,0,1-.479.42.356.356,0,0,1-.36-.42.5.5,0,0,1,.478-.419A.356.356,0,0,1,620.133,323.555Z" transform="translate(-613.84 -322.569)" fill="#fff"/>
          <g id="Group_3782" data-name="Group 3782" transform="translate(1.435 3.403)">
            <g id="Group_3781" data-name="Group 3781" transform="translate(0.458 0.08)">
              <path id="Path_3286" data-name="Path 3286" d="M615.591,332.744h-2.28l-.6,1.055h-.873l2.692-4.558h.834l1.416,4.558H615.9Zm-.187-.665-.58-1.992-1.133,1.992Z" transform="translate(-611.841 -329.241)" fill="#fff"/>
            </g>
            <path id="Path_3287" data-name="Path 3287" d="M632.426,329.5h-6.753l.06-.424h6.754Z" transform="translate(-618.611 -329.074)" fill="#fff"/>
            <path id="Path_3288" data-name="Path 3288" d="M632.088,331.9h-6.753l.06-.424h6.753Z" transform="translate(-618.434 -330.331)" fill="#fff"/>
            <path id="Path_3289" data-name="Path 3289" d="M631.75,334.31H625l.06-.424h6.753Z" transform="translate(-618.257 -331.588)" fill="#fff"/>
            <path id="Path_3290" data-name="Path 3290" d="M631.412,336.716h-6.753l.06-.425h6.753Z" transform="translate(-618.081 -332.845)" fill="#fff"/>
            <path id="Path_3291" data-name="Path 3291" d="M631.074,339.121H624.32l.06-.424h6.753Z" transform="translate(-617.904 -334.102)" fill="#fff"/>
            <path id="Path_3292" data-name="Path 3292" d="M624.421,341.527H611.9l.06-.424h12.524Z" transform="translate(-611.413 -335.359)" fill="#fff"/>
            <path id="Path_3293" data-name="Path 3293" d="M624.083,343.932H611.559l.06-.424h12.524Z" transform="translate(-611.236 -336.616)" fill="#fff"/>
            <path id="Path_3294" data-name="Path 3294" d="M623.745,346.338H611.221l.06-.424H623.8Z" transform="translate(-611.059 -337.873)" fill="#fff"/>
            <path id="Path_3295" data-name="Path 3295" d="M623.407,348.744H610.883l.06-.424h12.524Z" transform="translate(-610.883 -339.13)" fill="#fff"/>
          </g>
        </g>
        <path id="Path_3296" data-name="Path 3296" d="M623.464,334.8l-1.545,10.992a1.25,1.25,0,0,1-.492.814,1.209,1.209,0,0,1-.727.255H605.018a.91.91,0,0,1-.922-1.07l1.545-10.992,8.064,6.031h0Z" transform="translate(-604.086 -326.114)" fill="#fff"/>
        <path id="Path_3297" data-name="Path 3297" d="M633.994,334.8l-1.545,10.992a1.249,1.249,0,0,1-.492.814l-7.719-5.775Z" transform="translate(-614.615 -326.114)" fill="#e9f8ff"/>
      </g>
      <g id="Group_3788" data-name="Group 3788" transform="translate(105.273 0)">
        <g id="Group_3785" data-name="Group 3785" transform="translate(8.63 2.479)">
          <path id="Path_3298" data-name="Path 3298" d="M612.523,209.748l1.083-.95-.816-.95" transform="translate(-609.552 -207.848)" fill="none" stroke="#0fa4ff" stroke-linecap="round" stroke-linejoin="round" stroke-width="0.718"/>
          <line id="Line_3" data-name="Line 3" x1="4.054" transform="translate(0 0.95)" fill="none" stroke="#0fa4ff" stroke-linecap="round" stroke-width="0.718" stroke-dasharray="2.036"/>
        </g>
        <g id="Group_3786" data-name="Group 3786">
          <path id="Path_3299" data-name="Path 3299" d="M593.455,203.069l-.012.085a.471.471,0,0,1-.452.4h-2.846a.472.472,0,0,0-.452.4l-.543,3.869a.336.336,0,0,0,.341.4h5.8a.471.471,0,0,0,.452-.4l.667-4.745a.351.351,0,0,0-.355-.413h-2.123A.491.491,0,0,0,593.455,203.069Z" transform="translate(-588.708 -202.656)" fill="#5699e8"/>
          <path id="Path_3300" data-name="Path 3300" d="M594.3,210.149l-.015-.121h0l-.3-2.517a.454.454,0,0,0-.466-.4h-4.989a.3.3,0,0,0-.3.323l.319,2.654a.508.508,0,0,0,.521.452h5.705A.454.454,0,0,1,594.3,210.149Z" transform="translate(-588.228 -204.982)" fill="#71b8ff"/>
        </g>
        <g id="Group_3787" data-name="Group 3787" transform="translate(13.583)">
          <path id="Path_3301" data-name="Path 3301" d="M621.9,203.069l-.012.085a.471.471,0,0,1-.452.4h-2.846a.472.472,0,0,0-.452.4l-.544,3.869a.337.337,0,0,0,.341.4h5.8a.472.472,0,0,0,.452-.4l.667-4.745a.35.35,0,0,0-.355-.413h-2.124A.491.491,0,0,0,621.9,203.069Z" transform="translate(-617.153 -202.656)" fill="#5699e8"/>
          <path id="Path_3302" data-name="Path 3302" d="M622.742,210.149l-.014-.121h0l-.3-2.517a.454.454,0,0,0-.466-.4h-4.989a.3.3,0,0,0-.295.323l.318,2.654a.508.508,0,0,0,.521.452h5.7A.455.455,0,0,1,622.742,210.149Z" transform="translate(-616.674 -204.982)" fill="#71b8ff"/>
        </g>
      </g>
    </g>
    <g id="Group_3797" data-name="Group 3797" transform="translate(411.716 177.672)">
      <g id="Group_3792" data-name="Group 3792" transform="translate(19.932 67.428)">
        <g id="Group_3791" data-name="Group 3791">
          <g id="Group_3790" data-name="Group 3790" transform="translate(0.001)">
            <path id="Path_3303" data-name="Path 3303" d="M579.831,379.732l-1.816.809-1.3-.076-.316-2.453-.143-1.1,2.954-.624.325-.067.008.139.1,2.04.034.67Z" transform="translate(-576.254 -376.222)" fill="#feb3b0"/>
          </g>
          <path id="Path_3304" data-name="Path 3304" d="M579.608,377.818a12.318,12.318,0,0,1-3.28-.248l-.076-.583,2.956-.626c.119.029.229.053.334.072Z" transform="translate(-576.251 -376.295)" fill="#e87c7c"/>
        </g>
      </g>
      <g id="Group_3795" data-name="Group 3795" transform="translate(4.863 66.96)">
        <g id="Group_3794" data-name="Group 3794">
          <g id="Group_3793" data-name="Group 3793">
            <path id="Path_3305" data-name="Path 3305" d="M548.362,375.242l-.072.341-.459,2.145-.034.164a2.942,2.942,0,0,0,.017,1.328l-1.821.809-1.3-.076.088-3.059.025-.83,2.946-.679Z" transform="translate(-544.692 -375.242)" fill="#feb3b0"/>
          </g>
          <path id="Path_3306" data-name="Path 3306" d="M548.406,375.738l-.329,1.552a7.612,7.612,0,0,1-3.166-.912l.019-.678,2.937-.158C548.053,375.6,548.234,375.671,548.406,375.738Z" transform="translate(-544.806 -375.399)" fill="#e87c7c"/>
        </g>
      </g>
      <path id="Path_3307" data-name="Path 3307" d="M539.389,383.722s-5.793,2.069-4.756,2.682c.2.119,7.987.4,8.326-.072s-.466-2.757-.466-2.757A5.632,5.632,0,0,1,539.389,383.722Z" transform="translate(-534.509 -312.636)" fill="#0a2530"/>
      <path id="Path_3308" data-name="Path 3308" d="M559.091,299.441l-7.452,1.027a112.3,112.3,0,0,0-5.271,12.874h0a33.356,33.356,0,0,0-1.164,4.423c-.331,3.068-.9,18.428-.9,18.428a7.073,7.073,0,0,0,4.026.428s1.922-7.921,2.438-10.211a42.367,42.367,0,0,0,.724-7.646s7.575-11.018,8.432-12.948S559.091,299.441,559.091,299.441Z" transform="translate(-539.628 -268.675)" fill="#024e7c"/>
      <path id="Path_3309" data-name="Path 3309" d="M565.177,316.816l-3.3,9.268,5.086-7.473Z" transform="translate(-548.808 -277.754)" fill="#0a2530"/>
      <path id="Path_3310" data-name="Path 3310" d="M578.218,307.405s-4.009,13.155-4.26,14.158.94,2.193,1.316,5.888a117.482,117.482,0,0,1,0,11.847,14.35,14.35,0,0,1-4.146.224s-3.9-16.112-3.745-18.4,1.032-16.758,1.032-16.758" transform="translate(-551.682 -271.249)" fill="#024e7c"/>
      <path id="Path_3311" data-name="Path 3311" d="M553.388,280.589l-.87,3.369c-2.919-.867-8.689-3.09-8.689-3.09a3.174,3.174,0,0,0-1.557-.276,1.19,1.19,0,0,1-.271.029,8,8,0,0,1-1.817-.011,4.862,4.862,0,0,1-2.44-2.058c-.224-.82.722-1.224,1.043-1.119a8.087,8.087,0,0,0,1.9.689c.5.1.982.21,1.135.1.2-.136-.721-.285-1.142-.46s-.474-.477.18-.514a2.443,2.443,0,0,1,1.924.522,3.706,3.706,0,0,0,1.367.807s6.306,1.173,9.214,2.011A.192.192,0,0,0,553.388,280.589Z" transform="translate(-536.182 -257.077)" fill="#feb3b0"/>
      <path id="Path_3312" data-name="Path 3312" d="M573.557,274.482c-.014.955-.038,1.934-.067,2.9-.119,3.734-.334,7.353-.454,9.006a33.987,33.987,0,0,1-7.153-.415,20.644,20.644,0,0,1-8.433-3.118s1.815-7.6,2.335-10.309c.033-.167.062-.32.081-.454a.737.737,0,0,0,.019-.11,30.238,30.238,0,0,1,2.087-6.666c1.366-2.836,2.884-3.027,3.19-3.037a51.47,51.47,0,0,0,6.079,2.483c.544.21,1.155.473,1.8.764l0,0a38.052,38.052,0,0,1,.53,6.279C573.571,272.658,573.566,273.556,573.557,274.482Z" transform="translate(-546.496 -249.26)" fill="#0fa4ff"/>
      <path id="Path_3313" data-name="Path 3313" d="M586.128,286.3c-.014.955-.038,1.934-.067,2.9a10.6,10.6,0,0,1-1.518,2.469,2.015,2.015,0,0,1-1.6.592l1.924-4.3c-3.151-1.6-3.357-3.065-3.357-3.065Z" transform="translate(-559.068 -261.074)" fill="#0f79b9"/>
      <path id="Path_3314" data-name="Path 3314" d="M578.1,251.268a1.934,1.934,0,0,0,.909,1.753,4.771,4.771,0,0,1-.857,1c-3.45,2.593-5.661.015-5.54-1.928a3.693,3.693,0,0,1,.376-1.558.817.817,0,0,0,1.041-.316,1.847,1.847,0,0,0,.213-.484l.009,0a3.246,3.246,0,0,1-1.659-.938c-1.112-1.551,1.437-6.946,1.437-6.946,1.767-3.947,6.8-1.337,7.047.867a7.2,7.2,0,0,1-1.212,4.391A27.169,27.169,0,0,0,578.1,251.268Z" transform="translate(-554.258 -237.517)" fill="#feb3b0"/>
      <path id="Path_3315" data-name="Path 3315" d="M578.072,260.009a2.506,2.506,0,0,1-2.168.767,1.847,1.847,0,0,0,.213-.484l.009,0A3.518,3.518,0,0,0,578.072,260.009Z" transform="translate(-556.138 -248.072)" fill="#e87c7c"/>
      <g id="Group_3796" data-name="Group 3796" transform="translate(2.515 11.181)">
        <path id="Path_3316" data-name="Path 3316" d="M552.011,259.36l-.053.2a.98.98,0,0,1-1.2.7l-6.8-1.8a.98.98,0,0,0-1.2.7l-2.447,9.247a.98.98,0,0,0,.7,1.2l13.853,3.666a.98.98,0,0,0,1.2-.7l3-11.342a1.021,1.021,0,0,0-.726-1.249l-5.077-1.343A1.021,1.021,0,0,0,552.011,259.36Z" transform="translate(-540.038 -258.425)" fill="#0265a1"/>
        <path id="Path_3317" data-name="Path 3317" d="M556.235,263.726l-.034,9.789-12.876-3.407c-.757-.2-1.285-1.629-1.282-2.411l.029-7.834a.737.737,0,0,1,.926-.708l12.209,3.232A1.382,1.382,0,0,1,556.235,263.726Z" transform="translate(-540.961 -258.793)" fill="#ffecd7"/>
        <path id="Path_3318" data-name="Path 3318" d="M555.016,265.116l-.033,9.052-12.876-3.407a1.727,1.727,0,0,1-1.282-1.675l.029-7.834a.737.737,0,0,1,.926-.708l12.209,3.232A1.382,1.382,0,0,1,555.016,265.116Z" transform="translate(-540.324 -259.519)" fill="#fffaf5"/>
        <path id="Path_3319" data-name="Path 3319" d="M553.495,274.548v-.309h0l.025-6.43a1.336,1.336,0,0,0-.994-1.3L540.6,263.356a.638.638,0,0,0-.8.613l-.026,6.782a1.5,1.5,0,0,0,1.112,1.451l12.08,3.2.524.138,1.032.274A1.339,1.339,0,0,1,553.495,274.548Z" transform="translate(-539.775 -260.99)" fill="#0265a1"/>
      </g>
      <path id="Path_3320" data-name="Path 3320" d="M582.043,239.3a1.9,1.9,0,0,0-.4-1.273h0a8.025,8.025,0,0,0-1.555-1.9c-.577-.318-.716.229-.716.229s-1.094-1.356-1.95-1.354c-.784,0-.806.867-.806.867s-1.314-1.235-2.288-.6c-1.075.7-.745,2.074-.212,3.19.938,1.963,3.2,3.02,5.287,3.457l-.577,1.429s-.226.558-.082.614c.1.04.458-.438.458-.438s.489-.689.99-.451c1,.475-.421,3.11-.421,3.11a33.627,33.627,0,0,0,2.987-3.519C583.421,241.672,583.541,239.881,582.043,239.3Z" transform="translate(-554.947 -235.01)" fill="#0e273a"/>
      <path id="Path_3321" data-name="Path 3321" d="M585.98,253.549c-.274.385-.854.638-1,.412-.084-.132.006-.364.123-.574.09-.115.328-.024.451-.216s-.036-.311.06-.427a.414.414,0,0,1,.325-.123C586.137,252.677,586.306,253.089,585.98,253.549Z" transform="translate(-560.864 -244.208)" fill="#e87c7c"/>
      <path id="Path_3322" data-name="Path 3322" d="M591.7,286.5a2.28,2.28,0,0,1-.042-.465C591.675,286.188,591.689,286.343,591.7,286.5Z" transform="translate(-564.371 -261.671)" fill="#12364c"/>
      <path id="Path_3323" data-name="Path 3323" d="M584.982,285.172s-.057.138-.158.377c-.143.339-.377.879-.645,1.485a20.507,20.507,0,0,1-1.915,3.639c-.821.912-3.734-.855-3.352-2.755a15.012,15.012,0,0,1,1.495-3.538c.177-.325.344-.621.487-.869.277-.477.468-.778.468-.778l2.531,1.7.406.277Z" transform="translate(-557.692 -259.945)" fill="#feb3b0"/>
      <path id="Path_3324" data-name="Path 3324" d="M586.5,286.4c-.143.339-.377.879-.645,1.485a7.826,7.826,0,0,1-3.772-2.655c.177-.325.344-.621.487-.869l.826.138,2.173.788.287.105s.048.062.119.172C586.1,285.752,586.307,286.062,586.5,286.4Z" transform="translate(-559.365 -260.797)"/>
      <path id="Path_3325" data-name="Path 3325" d="M569.839,289.642,568.2,286.16a41.118,41.118,0,0,0-6.131-1.574c-1.057-.189-2.28-.454-3.158-.66-.15-.046-.793-.229-1-.61-.242-.44-.246-.8-.455-1.11s-.355-.817-.523-1.077-.377.062-.326.412c.054.367.144.814.028.964s-.774-.306-.974-.307a3.254,3.254,0,0,0-.768,2.075c.093.65,1.374.755,1.717.8a11.874,11.874,0,0,1,1.617.654c1.989.946,6.365,3.035,7.706,3.724C567.682,290.359,569.037,290.748,569.839,289.642Z" transform="translate(-545.152 -259.058)" fill="#feb3b0"/>
      <path id="Path_3326" data-name="Path 3326" d="M585.6,269.084a5.065,5.065,0,0,1,2.516,2.5c.621,1.685-1.764,7.39-1.764,7.39s-3.475-.973-4.849-2.343C581.682,275.491,585.6,269.084,585.6,269.084Z" transform="translate(-559.065 -252.814)" fill="#0fa4ff"/>
      <path id="Path_3327" data-name="Path 3327" d="M553.946,282.649s-.839-.333-1.382-.521-.645-.426-1.022-.3-.361,1.176-.148,1.714c.3.746,1.947,1.585,1.947,1.585l.536-1.008Z" transform="translate(-543.253 -259.453)" fill="#feb3b0"/>
      <path id="Path_3328" data-name="Path 3328" d="M571.756,383.9s-5.8,1.893-4.76,2.506c.2.119,8.061.4,8.4-.072s-.467-2.757-.467-2.757A12.248,12.248,0,0,1,571.756,383.9Z" transform="translate(-551.419 -312.636)" fill="#0a2530"/>
      <path id="Path_3329" data-name="Path 3329" d="M545.153,276.4" transform="translate(-540.07 -256.636)" fill="#12364c"/>
    </g>
    <g id="Group_3801" data-name="Group 3801" transform="translate(350.723 159.79)">
      <g id="Group_3798" data-name="Group 3798" transform="translate(2.156 0)">
        <rect id="Rectangle_389" data-name="Rectangle 389" width="35.494" height="11.648" rx="2.201" transform="translate(0 3.186) rotate(-5.149)" fill="#a0d3fc"/>
        <path id="Path_3330" data-name="Path 3330" d="M441.184,214.174" transform="translate(-426.909 -206.241)" fill="none" stroke="#cd5d62" stroke-linecap="round" stroke-width="2.192"/>
        <path id="Path_3331" data-name="Path 3331" d="M416.828,216.369" transform="translate(-414.183 -207.388)" fill="none" stroke="#cd5d62" stroke-linecap="round" stroke-width="2.192"/>
      </g>
      <path id="Path_3332" data-name="Path 3332" d="M435.095,292.144s-.131,1.167-1.82,1.306c-7.991.659-10.187-2.208-11.422-2.845l10.646-.05S435.023,290.927,435.095,292.144Z" transform="translate(-414.653 -246.15)" fill="#0c659b"/>
      <path id="Path_3333" data-name="Path 3333" d="M433.351,295.4l-4.14.086-5.529-1.132-2.306-.764a15.713,15.713,0,0,0,1.452-4c.277-1.046.458-1.867.458-1.867l4.154-.444,2-.215s2.631-.368,3.223,1.065a1.647,1.647,0,0,1,.115.731,19.45,19.45,0,0,0,.072,2.292C433.007,293.221,433.351,295.4,433.351,295.4Z" transform="translate(-414.403 -244.305)" fill="#e49191"/>
      <path id="Path_3334" data-name="Path 3334" d="M434.433,291.434s-.493-.787-2.582-1.235a20.2,20.2,0,0,0-7.436-.327c.277-1.046.458-1.867.458-1.867l4.154-.444c1.724.21,3.968.5,4.636.664a4.216,4.216,0,0,1,.583.186,1.648,1.648,0,0,1,.115.731A19.457,19.457,0,0,0,434.433,291.434Z" transform="translate(-415.992 -244.586)" fill="#c55f60"/>
      <g id="Group_3799" data-name="Group 3799" transform="translate(27.938 9.943)">
        <path id="Path_3335" data-name="Path 3335" d="M465.442,223.891s.033-.5.068-1.011a2.038,2.038,0,0,0-.2-.9,4.022,4.022,0,0,1,0-.826l.665-.06a9.732,9.732,0,0,0,.56-.931.982.982,0,0,0,.123-.458,5.433,5.433,0,0,1,.036-.706c.029-.333.3-.458.4-.06a4.631,4.631,0,0,1,.087,1.071,6.223,6.223,0,0,1-.351,1.031s1.016.585,1.046.779-.438.972-.8,2.38" transform="translate(-465.285 -218.546)" fill="#e49191"/>
        <path id="Path_3336" data-name="Path 3336" d="M468.514,218.91s-.1-.467.109-.523c.174-.046.279.321.331.523s.149.844.187,1.06a7.831,7.831,0,0,1-.463,1.472l-.575-.508.284-1.464" transform="translate(-466.757 -218.384)" fill="#e49191"/>
        <path id="Path_3337" data-name="Path 3337" d="M469.343,219.611s-.03-.344.134-.418.254.216.307.418.149.844.187,1.06a7.838,7.838,0,0,1-.463,1.471l-.575-.508.284-1.464" transform="translate(-467.191 -218.8)" fill="#e49191"/>
        <path id="Path_3338" data-name="Path 3338" d="M470.589,220.3a2.511,2.511,0,0,0,.066.614,1.249,1.249,0,0,1-.164.484l-.377,1.083.185.467.587-1.364.1-.279a.915.915,0,0,0,.025-.5C470.927,220.45,470.76,219.9,470.589,220.3Z" transform="translate(-467.808 -219.313)" fill="#e49191"/>
      </g>
      <path id="Path_3339" data-name="Path 3339" d="M428.824,228.069a13.891,13.891,0,0,0,.553-1.589c-.009-.179-.359-1.121-.408-1.3a4.085,4.085,0,0,1,.177-1.529c.15-.209.3-.06.359.149a3.474,3.474,0,0,1,.1.769,2.167,2.167,0,0,0,.322.6l1.65-.149.583-.052a6.68,6.68,0,0,1-.224.827,1.809,1.809,0,0,1-.523.665,9.333,9.333,0,0,0-.739,1.8" transform="translate(-418.295 -211.138)" fill="#e49191"/>
      <path id="Path_3340" data-name="Path 3340" d="M412.74,367.2l-.774,1.709-.181.411-.692,1.533a4.353,4.353,0,0,1-2.173-.716l.349-1.347.215-.836.463-1.8Z" transform="translate(-407.896 -285.654)" fill="#e49191"/>
      <path id="Path_3341" data-name="Path 3341" d="M412.348,370.875l-.181.411a5.7,5.7,0,0,1-2.516-.53l.215-.836,1.972.444Z" transform="translate(-408.277 -287.619)" fill="#c55f60"/>
      <path id="Path_3342" data-name="Path 3342" d="M425.237,232.336a9.673,9.673,0,0,1,2.121.44,54.158,54.158,0,0,1-1.879,8.056c-.752,1.8.684,6.644.684,6.644l-2.728,1.852s-1.275-6.553-1.434-8.186S425.237,232.336,425.237,232.336Z" transform="translate(-414.727 -215.73)" fill="#0fa4ff"/>
      <g id="Group_3800" data-name="Group 3800" transform="translate(15.979 83.605)">
        <path id="Path_3343" data-name="Path 3343" d="M444.006,372.65l-.086.645-.177,1.39-.167,1.27a4.246,4.246,0,0,1-2.3,0l-.081-1.179-.115-1.619-.033-.506Z" transform="translate(-440.662 -372.65)" fill="#e49191"/>
        <path id="Path_3344" data-name="Path 3344" d="M443.956,373.848l-.177,1.39a9.255,9.255,0,0,1-2.545.091l-.115-1.619C441.851,373.72,443.345,373.791,443.956,373.848Z" transform="translate(-440.699 -373.204)" fill="#c55f60"/>
        <path id="Path_3345" data-name="Path 3345" d="M440.321,379.935a1.587,1.587,0,0,1,.662-1.242,1.388,1.388,0,0,1,1.247-.022c.264.092.729.434.965.363,0,0,.425.863.923,1.86a6.955,6.955,0,0,0,.906,1.517,1.619,1.619,0,0,1,1.155.957c.115.433.073.556-1.155.556a6.608,6.608,0,0,1-2.14-.884C442.422,382.566,440.321,379.935,440.321,379.935Z" transform="translate(-440.282 -375.732)" fill="#024e7c"/>
        <path id="Path_3346" data-name="Path 3346" d="M442.991,384.942a1.555,1.555,0,0,1-1.34-.761,23.015,23.015,0,0,1-1.339-2.595c-.45-1.326,1.3-1.252,1.727-.778a15.113,15.113,0,0,1,1.38,2.426c.48.948.833,1.513,1.562,1.708Z" transform="translate(-440.238 -376.749)" fill="#0a2f45"/>
      </g>
      <path id="Path_3347" data-name="Path 3347" d="M427.2,300.316l-.331-2.462s-.623.825-4.066.458c-2.666-.284-5.78-1.194-6.686-1.877a7.189,7.189,0,0,0-2.229,6.2,29.186,29.186,0,0,1,.082,5.712c-.454,3.724-.671,8.131-.8,9.035-1.711,3.609-3.573,14.434-3.573,14.434a6.169,6.169,0,0,0,2.817.869,143.632,143.632,0,0,0,5.811-13.874c.521-1.635,1.113-3.624,1.678-5.751s1.118-4.369,1.548-6.534a42.931,42.931,0,0,0,.878-6.692c1.261.337,2.187.576,2.241.567C424.749,300.372,427.2,300.316,427.2,300.316Z" transform="translate(-408.249 -249.223)" fill="#024e7c"/>
      <path id="Path_3348" data-name="Path 3348" d="M430.5,313.358c-.43,2.165-.975,4.417-1.549,6.535a44.621,44.621,0,0,1-2.037-10.383S429.459,312.344,430.5,313.358Z" transform="translate(-417.298 -256.054)" fill="#0a2530"/>
      <path id="Path_3349" data-name="Path 3349" d="M436.569,336.746a6.456,6.456,0,0,1-2.965-.081s-1.9-11.943-1.5-16.39c0,0-2.322-6.205-3.879-11.028-.3-.922-.812-2.693-1.022-3.467a7.686,7.686,0,0,1,.263-5.009l8.776,1.81c.363,3.366,1.442,13.728,1.5,18.5A149.529,149.529,0,0,1,436.569,336.746Z" transform="translate(-417.292 -251.489)" fill="#024e7c"/>
      <path id="Path_3350" data-name="Path 3350" d="M444.7,229.519s-.774,8.027-2.33,11.952a25.6,25.6,0,0,1-4.063,4.517,10.8,10.8,0,0,0-3.5,7.922c0,1.17.115,3.4.291,6.093-.109-1.739-8.271-1.266-11.98-1.427a10.374,10.374,0,0,1-1.262-.112,51.818,51.818,0,0,0,1.873-6.832c.836-4.364,2.23-6.943,4.14-8.07l3.83,1.017s3.71-2.836,7.444-5.357a89.376,89.376,0,0,0,3.19-10.118A3.31,3.31,0,0,1,444.7,229.519Z" transform="translate(-414.653 -214.009)" fill="#0fa4ff"/>
      <path id="Path_3351" data-name="Path 3351" d="M439.435,258.926a2.562,2.562,0,0,1-2.182-.315c-1.084-.745.019-2.149.019-2.149h2.01l-.048.372s-.019.282,0,.659A5.045,5.045,0,0,0,439.435,258.926Z" transform="translate(-422.451 -228.336)" fill="#e49191"/>
      <path id="Path_3352" data-name="Path 3352" d="M440.349,256.834s-.019.282,0,.659a3.261,3.261,0,0,1-1.435-.516,2.073,2.073,0,0,0,.982-.516h.506Z" transform="translate(-423.565 -228.336)" fill="#c55f60"/>
      <path id="Path_3353" data-name="Path 3353" d="M438.447,244a13.123,13.123,0,0,1,1.092,3.258,2.383,2.383,0,0,1-.956,2.334,5.571,5.571,0,0,1-.838.5,2.12,2.12,0,0,1-2.426-.413,6.519,6.519,0,0,1-1.119-1.563C432.582,245.037,436.123,241.61,438.447,244Z" transform="translate(-420.89 -221.407)" fill="#e49191"/>
      <path id="Path_3354" data-name="Path 3354" d="M410.38,374.163s-.011.882-.059,1.355-.375,4.731-.842,5.233a1.188,1.188,0,0,1-.987.413c-.543,0-.524-.814-1.042-2.109-.532-1.33-.209-3.475-.02-4.624a3.451,3.451,0,0,1,.684-.815.964.964,0,0,1,.731-.241c.39.032.659.215,1.066.773C410.006,374.279,410.27,374.35,410.38,374.163Z" transform="translate(-406.975 -289.422)" fill="#024e7c"/>
      <path id="Path_3355" data-name="Path 3355" d="M406.94,375.52a.966.966,0,0,1,1-.767,1.381,1.381,0,0,1,1.206,1.643c-.053,1.2-.1,4.453-.206,4.869-.236.956-1.295.7-1.632-.078a11.227,11.227,0,0,1-.463-2.8A8.792,8.792,0,0,1,406.94,375.52Z" transform="translate(-406.774 -290.14)" fill="#0a2f45"/>
      <path id="Path_3356" data-name="Path 3356" d="M430.313,239.021a2.55,2.55,0,0,0-1.34-.985,4.526,4.526,0,0,0-4.033,1.262h0a13.674,13.674,0,0,1-1.107.947,5.6,5.6,0,0,0-1.666,2.089c-.97,2.179.6,4.019.2,4.7s-2,.8-2.115,2.188.51,1.724,0,3.051l0,.007a6.914,6.914,0,0,0-1.494,2.914c-.754,3.477,2.974,4.315,4.566,3.351s2.617-.372,3.409-.735c2.918-1.339,1.408-8.481,1.492-10.178.015-.31.013-.661.009-1.031a4.912,4.912,0,0,1,1.587-3.583A3.075,3.075,0,0,0,430.313,239.021Z" transform="translate(-412.981 -218.655)" fill="#263238"/>
    </g>
    <line id="Line_4" data-name="Line 4" x2="160.2" transform="translate(299.5 251.631)" fill="none" stroke="#0fa4ff" stroke-linecap="round" stroke-width="1"/>
  </g>
</svg>
