<svg xmlns="http://www.w3.org/2000/svg" width="113" height="113" viewBox="0 0 113 113">
  <g id="Group_58270" data-name="Group 58270" transform="translate(-301 -2587.054)">
    <circle id="Ellipse_727" data-name="Ellipse 727" cx="56.5" cy="56.5" r="56.5" transform="translate(301 2587.054)" fill="#06b2ff"/>
    <g id="Group_58332" data-name="Group 58332" transform="translate(-148.232 2436.155)">
      <g id="Group_58331" data-name="Group 58331" transform="translate(487.231 179.106)">
        <path id="Path_47826" data-name="Path 47826" d="M551.041,236.483a5.33,5.33,0,0,1-2.848-1.461,4.942,4.942,0,0,1-1.33-3.53q0-23.361.005-46.722a4.741,4.741,0,0,1,5.032-4.978q13.867-.006,27.734,0a4.7,4.7,0,0,1,4.87,3.612,5.767,5.767,0,0,1,.162,1.477q.012,23.25.015,46.5a4.823,4.823,0,0,1-4.1,5.044c-.033,0-.061.038-.092.058Zm.583-51.934v40.079H579.9V184.549Zm14.146,47.2c1.087,0,2.174.007,3.261-.005a2.161,2.161,0,0,0,.755-.116,1.107,1.107,0,0,0,.648-1.312,1.173,1.173,0,0,0-1.269-.916q-3.344-.014-6.687,0c-.887,0-1.433.471-1.42,1.195s.529,1.148,1.4,1.155C563.56,231.757,564.665,231.75,565.77,231.75Z" transform="translate(-546.86 -179.79)" fill="#fff"/>
        <path id="Path_47829" data-name="Path 47829" d="M602.645,291.427c-1.088,0-2.176.007-3.263,0-.979-.008-1.429-.437-1.435-1.412q-.02-3.291,0-6.582c.005-1,.465-1.441,1.468-1.443q3.263-.007,6.527,0c1,0,1.458.447,1.463,1.447q.016,3.263,0,6.527c0,1.037-.445,1.458-1.5,1.464C604.821,291.432,603.733,291.428,602.645,291.427Z" transform="translate(-590.854 -267.812)" fill="#fff"/>
        <path id="Path_47830" data-name="Path 47830" d="M704.845,291.427c-1.088,0-2.176.007-3.263,0-.98-.008-1.429-.437-1.435-1.412q-.02-3.291,0-6.582c.005-1,.465-1.441,1.468-1.443q3.263-.007,6.527,0c1,0,1.459.447,1.463,1.447q.016,3.263,0,6.527c0,1.037-.445,1.458-1.5,1.464C707.021,291.432,705.933,291.428,704.845,291.427Z" transform="translate(-678.881 -267.812)" fill="#fff"/>
        <path id="Path_47831" data-name="Path 47831" d="M602.684,393.624c-1.088,0-2.176.005-3.263,0-1.021-.006-1.469-.428-1.474-1.429q-.018-3.291,0-6.582a1.25,1.25,0,0,1,1.428-1.426q3.291-.01,6.582,0c.972,0,1.44.443,1.446,1.408q.021,3.319,0,6.638a1.228,1.228,0,0,1-1.4,1.391C604.9,393.633,603.79,393.624,602.684,393.624Z" transform="translate(-590.854 -355.836)" fill="#fff"/>
        <path id="Path_47832" data-name="Path 47832" d="M704.891,393.627c-1.106,0-2.213.007-3.319,0-.975-.008-1.42-.441-1.425-1.422q-.018-3.291,0-6.582c.005-1,.468-1.431,1.477-1.433q3.264-.006,6.527,0c.995,0,1.449.45,1.454,1.457q.015,3.263,0,6.527c0,1.013-.445,1.446-1.45,1.454C707.066,393.634,705.979,393.627,704.891,393.627Z" transform="translate(-678.881 -355.839)" fill="#fff"/>
        <path id="Path_47833" data-name="Path 47833" d="M668.654,233.278c-.423,0-.849.028-1.269-.007a1.109,1.109,0,0,1-1.051-1.081,1.056,1.056,0,0,1,.923-1.184,18.57,18.57,0,0,1,2.808-.006,1.068,1.068,0,0,1,.941,1.224,1.111,1.111,0,0,1-1.082,1.052c-.421.031-.846.006-1.27.006Z" transform="translate(-649.764 -223.855)" fill="#fff"/>
        <path id="Path_47834" data-name="Path 47834" d="M752.591,233.293a1.165,1.165,0,0,1-1.166-1.149,1.168,1.168,0,1,1,2.336,0A1.164,1.164,0,0,1,752.591,233.293Z" transform="translate(-723.057 -223.865)" fill="#fff"/>
      </g>
    </g>
  </g>
</svg>
