<svg id="Layer_1" data-name="Layer 1" xmlns="http://www.w3.org/2000/svg" viewBox="0 0 50 50"><defs><style>.cls-1{fill:#fff;}</style></defs><path class="cls-1" d="M25,30.45H1.68c-.44,0-.58-.15-.58-.6,0-4.7,0-9.4,0-14.1,0-3.7,0-7.4,0-11.09A4.26,4.26,0,0,1,3.54.48a4.84,4.84,0,0,1,2-.46Q21.92,0,38.28,0c2,0,4,0,6.06,0A4.45,4.45,0,0,1,48.9,4.5c0,6.49,0,13,0,19.49,0,2,0,3.91,0,5.86,0,.38-.07.59-.53.59H25Zm1.07-19.1h0V7.53c0-1.08,0-2.17,0-3.25a1,1,0,0,0-1.07-1,1.06,1.06,0,0,0-1,1c0,.2,0,.4,0,.61q0,6.55,0,13.12a.92.92,0,0,1-.53.93,3.16,3.16,0,0,0-.53,5.2A2.34,2.34,0,0,1,24,26.27a1,1,0,0,0,1,.9,1.05,1.05,0,0,0,1.07-.9,4.62,4.62,0,0,0,0-.91.74.74,0,0,1,.45-.77,3.24,3.24,0,0,0,0-5.71.75.75,0,0,1-.44-.76C26.07,15.86,26.07,13.61,26.07,11.35Zm8.71,7.76v6.77a1.15,1.15,0,0,0,1.07,1.29A1.16,1.16,0,0,0,37,25.86c0-1.6,0-3.19,0-4.78,0-2.92,0-5.84,0-8.76,0-.3,0-.56.34-.72a3.24,3.24,0,0,0,0-5.79A.63.63,0,0,1,37,5.16a5.14,5.14,0,0,0-.08-1.11,1,1,0,0,0-1.06-.77,1.08,1.08,0,0,0-1,1,4.12,4.12,0,0,0,0,.86.7.7,0,0,1-.45.75,3.08,3.08,0,0,0-1.69,2.82,3.08,3.08,0,0,0,1.69,2.87.74.74,0,0,1,.45.79C34.77,14.6,34.78,16.86,34.78,19.11ZM13,19.12h0V25c0,.4,0,.81,0,1.22a1.07,1.07,0,0,0,2.14,0c0-.2,0-.41,0-.61,0-4.37,0-8.75,0-13.12a.89.89,0,0,1,.52-.92,3.17,3.17,0,0,0,.47-5.24,2,2,0,0,1-1-2,1,1,0,0,0-1-1,1,1,0,0,0-1.09.8,4.14,4.14,0,0,0-.07,1.06.7.7,0,0,1-.44.71,3.08,3.08,0,0,0-1.69,2.81,3.11,3.11,0,0,0,1.63,2.86.85.85,0,0,1,.49.88C13,14.64,13,16.88,13,19.12Z"/><path class="cls-1" d="M25,32.59H48.19c.7,0,.73,0,.7.71a15.71,15.71,0,0,1-.28,2.92A4,4,0,0,1,45,39.07c-1.53.07-3.06,0-4.58,0H5.66A4.33,4.33,0,0,1,1.1,34.54V33.37c0-.77,0-.77.76-.77h8.86c4.77,0,9.53,0,14.3,0Zm1,3.28a1,1,0,0,0-1-1.08,1.05,1.05,0,0,0-1.08,1.09,1.06,1.06,0,0,0,2.11,0Z"/><path class="cls-1" d="M25,50H16.52c-.52,0-1-.14-1.16-.64a1.38,1.38,0,0,1,.08-1,1.33,1.33,0,0,1,.88-.48,9.42,9.42,0,0,1,1.68,0c.38,0,.49-.13.49-.5,0-1.81,0-3.63,0-5.45,0-.43.11-.59.57-.58H31c.45,0,.58.12.58.57,0,1.75,0,3.5,0,5.25,0,.7,0,.7.73.7h1.38a1.08,1.08,0,1,1,0,2.16c-.5,0-1,0-1.48,0Z"/><path class="cls-1" d="M25,22.8a1,1,0,0,1-1-1.06A1,1,0,0,1,25,20.68a1.06,1.06,0,0,1,0,2.12Z"/><path class="cls-1" d="M35.86,9.76a1,1,0,0,1-1.08-1,1.07,1.07,0,0,1,1.1-1.08,1.06,1.06,0,1,1,0,2.12Z"/><path class="cls-1" d="M14.14,9.76a1.06,1.06,0,0,1-1.09-1,1.08,1.08,0,0,1,1.06-1.08,1.06,1.06,0,0,1,1.1,1.07A1,1,0,0,1,14.14,9.76Z"/></svg>