<svg xmlns="http://www.w3.org/2000/svg" xmlns:xlink="http://www.w3.org/1999/xlink" width="55" height="55" viewBox="0 0 55 55">
  <defs>
    <clipPath id="clip-Motor_control_unit">
      <rect width="55" height="55"/>
    </clipPath>
  </defs>
  <g id="Motor_control_unit" data-name="Motor control unit" clip-path="url(#clip-Motor_control_unit)">
    <rect width="55" height="55" fill="#fff"/>
    <g id="Group_8" data-name="Group 8" transform="translate(-559.333 -267.228)">
      <g id="Group_7" data-name="Group 7" transform="translate(559.333 273.228)">
        <path id="Path_26" data-name="Path 26" d="M782.338,208.992a22.644,22.644,0,0,1-.06-10.648c.622.163,1.2.315,1.783.469.723.192,1.444.388,2.167.58.489.13.863-.033.961-.415.1-.4-.113-.72-.6-.853-1.21-.332-2.422-.658-3.633-.988-.094-.025-.185-.06-.329-.108a22.784,22.784,0,0,1,5.252-9.044c.55.579,1.068,1.133,1.6,1.678.422.436.854.863,1.286,1.288a.68.68,0,0,0,1.009.081.7.7,0,0,0-.073-1.014c-.957-.957-1.919-1.909-2.924-2.907a22.473,22.473,0,0,1,9.019-5.235c.192.707.376,1.38.557,2.054.176.654.344,1.31.527,1.961a.672.672,0,0,0,.8.564.66.66,0,0,0,.474-.893c-.306-1.188-.63-2.372-.945-3.558-.038-.145-.061-.294-.112-.54,1.176-.164,2.3-.37,3.43-.468a21.806,21.806,0,0,1,6.44.414c.535.114.538.112.391.662q-.431,1.615-.865,3.228c-.029.109-.063.217-.082.328a.66.66,0,0,0,.476.823.649.649,0,0,0,.8-.506c.282-1.019.547-2.043.822-3.065.087-.323.181-.643.282-1a22.474,22.474,0,0,1,8.987,5.213c-.1.116-.186.221-.281.316q-1.271,1.273-2.545,2.543c-.373.372-.43.78-.15,1.074s.691.251,1.068-.125q1.258-1.256,2.516-2.513c.108-.107.223-.208.361-.335a22.505,22.505,0,0,1,5.206,8.993c-.491.138-.96.274-1.431.4-.817.221-1.635.434-2.452.655-.56.152-.791.459-.673.88.113.4.463.54,1,.4l3.9-1.034a22.809,22.809,0,0,1-.049,10.643l-2.9-.775c-1.771-.475-3.539-.96-5.314-1.418-.327-.084-.381-.21-.318-.525a13.7,13.7,0,0,0-25.607-8.982,13.861,13.861,0,0,0-1.358,4.206.389.389,0,0,1-.385.389c-2,.357-3.995.728-5.991,1.1-.688.128-1.027.512-.943,1.065a1.364,1.364,0,0,0,.116.271,1.223,1.223,0,0,1,1.047-.577c5.11-.512,10.217-1.045,15.327-1.559a.528.528,0,0,0,.517-.434,4.1,4.1,0,1,1,5.2,5.27,4.042,4.042,0,0,1-4.881-1.851.748.748,0,0,0-.792-.438c-2.961.132-5.922.246-8.884.368-.11,0-.218.03-.387.054l.23,1.538Z" transform="translate(-776.937 -176.197)" fill="#fff"/>
        <path id="Path_27" data-name="Path 27" d="M779.686,159.273l-2.851-.758A24.251,24.251,0,0,0,775,141.8a23.023,23.023,0,0,0-9.077-9.92c-8.484-4.956-17.045-4.933-25.537.015a22.826,22.826,0,0,0-7.352,7.02,23.993,23.993,0,0,0-3.843,9.409,24.448,24.448,0,0,0,.342,10.186l-2.64.711c-.245.066-.286-.093-.316-.275-.214-1.307-.51-2.607-.631-3.923a25.633,25.633,0,0,1,1.834-12.524c3.97-9.341,10.948-15.156,20.976-16.814,9.68-1.6,18,1.425,24.684,8.607a26.223,26.223,0,0,1,6.929,15.533,27.078,27.078,0,0,1-.576,9.039C779.769,158.983,779.733,159.1,779.686,159.273Z" transform="translate(-725.826 -125.267)" fill="#fff"/>
        <path id="Path_28" data-name="Path 28" d="M946.985,573.951q3.6,0,7.2,0a2.021,2.021,0,0,1,2.185,2.191,6.046,6.046,0,0,1-.067,1.219,1.936,1.936,0,0,1-1.942,1.57q-7.365.009-14.729,0a1.961,1.961,0,0,1-1.99-1.769,5.917,5.917,0,0,1,0-1.476,1.962,1.962,0,0,1,2.021-1.733C942.1,573.946,944.544,573.951,946.985,573.951Z" transform="translate(-919.634 -535.897)" fill="#fff"/>
      </g>
    </g>
  </g>
</svg>
