<svg xmlns="http://www.w3.org/2000/svg" width="26.458" height="26.304"  fill="#06b2ff" xmlns:v="https://vecta.io/nano"><path d="M13.358.002a13.02 13.02 0 0 0-9.45 3.838 12.54 12.54 0 0 0-3.9 9.212 12.76 12.76 0 0 0 3.9 9.412c2.497 2.512 5.909 3.898 9.45 3.838 3.482.045 6.829-1.345 9.254-3.845a12.55 12.55 0 0 0 3.846-9.151c.051-3.525-1.337-6.919-3.842-9.4-2.411-2.529-5.764-3.943-9.258-3.904zM8.529 8.287a6.6 6.6 0 0 1 4.829-1.955 6.13 6.13 0 0 1 4.626 2 6.86 6.86 0 0 1 1.937 4.967c.017 1.761-.69 3.451-1.955 4.676a6.07 6.07 0 0 1-4.508 2 6.75 6.75 0 0 1-6.92-6.922c-.043-1.799.68-3.532 1.99-4.767zm9.514 4.865a4.82 4.82 0 0 1-4.817 4.817 4.82 4.82 0 0 1-4.817-4.817 4.82 4.82 0 0 1 4.817-4.817c1.278 0 2.503.508 3.406 1.411a4.82 4.82 0 0 1 1.411 3.406z"/></svg>