<svg xmlns="http://www.w3.org/2000/svg" width="57.565" height="57.591" viewBox="0 0 57.565 57.591">
  <g id="Group_55659" data-name="Group 55659" transform="translate(-0.073)">
    <path id="Path_37680" data-name="Path 37680" d="M582.26,209.745h.9a.333.333,0,0,0,.211.058l.948,0c.1,0,.206,0,.309,0a28.753,28.753,0,0,1,24.481,17.317,28.279,28.279,0,0,1,2.339,10.9v.956a1.682,1.682,0,0,0-.049.746c0,.084,0,.168,0,.252a23.571,23.571,0,0,1-.59,4.67,28.542,28.542,0,0,1-5.925,12.2A19.291,19.291,0,0,1,603.4,258.5c-.1-.088-.2-.173-.29-.265L588.3,243.426c-.046-.046-.1-.09-.138-.14s-.113-.076-.089-.162a.533.533,0,0,1,.3-.031c.881,0,1.762,0,2.643,0a.553.553,0,0,0,.354-.056c.007-.551.013-1.1.023-1.653,0-.111-.044-.151-.15-.143-.065,0-.131,0-.2,0h-4.683c-.112,0-.224-.007-.336-.011a.4.4,0,0,0-.135-.208l-1.069-1.069a.385.385,0,0,0-.184-.122c0-.1-.014-.205-.014-.308q0-1.335,0-2.669c0-.412.007-.824.011-1.236q2.752,0,5.5,0a.6.6,0,0,0,.381-.056c.052-.476.012-.954.022-1.43.007-.346-.005-.3-.307-.3h-5.256c-.075,0-.15,0-.225,0-.095,0-.136-.041-.132-.136,0-.065,0-.131,0-.2v-4.356c0-.2.006-.394,0-.59-.005-.137.053-.186.183-.175.065.005.131,0,.2,0h3.654c.7,0,1.405,0,2.108,0,.21,0,.213,0,.214-.22q0-.632,0-1.265c0-.245,0-.245-.247-.249h-7.729c-.4,0-.341-.016-.341.352q0,5.185,0,10.37c0,.112-.006.224-.01.337-.143-.022-.22-.137-.311-.228q-1.8-1.8-3.6-3.594c-.091-.091-.168-.205-.311-.227-.006-.112-.018-.224-.018-.335q0-1.713,0-3.427,0-1.5,0-3.005c0-.236,0-.24-.229-.241q-.73,0-1.461,0c-.225,0-.225,0-.23.241,0,.056,0,.112,0,.169q0,2.064,0,4.129c0,.112-.009.224-.014.336a.516.516,0,0,1-.3-.2q-.866-.864-1.73-1.729-5.724-5.724-11.448-11.449c-.1-.1-.235-.192-.266-.353a1.328,1.328,0,0,1,.091-.105,28.789,28.789,0,0,1,9.08-5.847,28.439,28.439,0,0,1,6.648-1.787,22.156,22.156,0,0,1,3.047-.256A1.209,1.209,0,0,0,582.26,209.745Zm17.233,25.968q0-3.5,0-7c0-.395-.006-.343.355-.343q2.067,0,4.133,0c.3,0,.279.024.279-.267,0-.375,0-.75,0-1.124s.041-.343-.348-.344H593.2a1.283,1.283,0,0,1-.14,0c-.145-.016-.2.043-.2.19.006.45.006.9,0,1.349,0,.137.03.217.187.2a1.621,1.621,0,0,1,.2,0q1.982,0,3.964,0c.393,0,.363-.056.364.357q0,6.957,0,13.915a2.208,2.208,0,0,1,0,.225c-.015.141.054.174.182.173.506,0,1.012,0,1.518,0,.214,0,.215,0,.22-.213,0-.065,0-.131,0-.2Z" transform="translate(-553.81 -209.745)" fill="#5c2d91"/>
    <path id="Path_37683" data-name="Path 37683" d="M687.39,209.745q-.059.015-.022.063l-.948,0a.333.333,0,0,1-.211-.058Z" transform="translate(-656.859 -209.745)" fill="#6d429c"/>
    <path id="Path_37684" data-name="Path 37684" d="M856.919,387.288a.062.062,0,0,1-.049.015,1.684,1.684,0,0,1,.049-.746Z" transform="translate(-799.28 -357.315)" fill="#6d429c"/>
    <path id="Path_37685" data-name="Path 37685" d="M676.808,209.784l.036-.039h.619A1.209,1.209,0,0,1,676.808,209.784Z" transform="translate(-649.013 -209.745)" fill="#6d429c"/>
    <path id="Path_37686" data-name="Path 37686" d="M558.707,299.042a16.636,16.636,0,0,1-1.485,1.451,28.808,28.808,0,0,1-32.576,4.118,28.852,28.852,0,0,1-14.736-19.042,27.809,27.809,0,0,1-.7-5.255,28.513,28.513,0,0,1,6.519-19.511,27.019,27.019,0,0,1,2.167-2.358c.046-.045.1-.083.15-.124.031.161.162.248.266.353q5.723,5.725,11.448,11.449.865.865,1.73,1.729a.516.516,0,0,0,.3.2.76.76,0,0,1,.016.11q0,3.3,0,6.607c0,.638.013,1.274.076,1.909a1.314,1.314,0,0,1,0,.428c-.19-.307-.347-.57-.511-.828q-2.192-3.435-4.386-6.869-1.921-3.008-3.84-6.018a.389.389,0,0,0-.379-.218c-.665.013-1.331,0-2,.006-.247,0-.247,0-.251.247,0,.047,0,.094,0,.141V283.2a1.857,1.857,0,0,1,0,.2c-.015.147.048.193.193.19.44-.008.881,0,1.321,0,.4,0,.4,0,.4-.4q0-5.637,0-11.273a21.655,21.655,0,0,0-.083-2.3c0-.033-.01-.078.045-.084.014.01.035.017.041.03a11.09,11.09,0,0,0,1.058,1.818q3.857,5.99,7.714,11.98a.43.43,0,0,0,.424.236c.581-.016,1.162,0,1.743-.006.379,0,.348.053.348-.342q0-4.357,0-8.715a1.118,1.118,0,0,1,.018-.335c.143.022.22.136.311.227q1.8,1.8,3.6,3.594c.091.091.168.206.311.228,0,.093.01.187.01.28q0,2.372,0,4.744c0,.347-.036.321.312.321l8.394,0a.554.554,0,0,1-.354.056c-.881,0-1.762,0-2.643,0a.533.533,0,0,0-.3.031c-.023.086.05.116.089.162s.092.094.138.14l14.812,14.809C558.51,298.87,558.61,298.954,558.707,299.042Zm-10.584-5.126a.506.506,0,0,0-.276.133,2.636,2.636,0,0,1-1.693.389,1.647,1.647,0,0,1-1.448-1.719c0-.112.051-.149.153-.144.065,0,.131,0,.2,0h3.035c.42,0,.42,0,.42-.433,0-.065,0-.131,0-.2a2.988,2.988,0,0,0-.389-1.448,1.88,1.88,0,0,0-1.144-.892,2.466,2.466,0,0,0-3,1.577,3.66,3.66,0,0,0-.185,1.577,2.881,2.881,0,0,0,.411,1.328,2.04,2.04,0,0,0,1.415,1.017,3.37,3.37,0,0,0,2.265-.307.376.376,0,0,0,.239-.417A4.5,4.5,0,0,1,548.123,293.917ZM532.694,288.6c0-.247,0-.442,0-.636,0-.259,0-.257-.262-.345a4.71,4.71,0,0,0-1.661-.22,3.549,3.549,0,0,0-3.145,1.792,4.258,4.258,0,0,0-.23,3.992,3.159,3.159,0,0,0,2.23,1.891,4.811,4.811,0,0,0,1.731.057,3.872,3.872,0,0,0,1.158-.325c.063-.028.154-.04.155-.139,0-.237,0-.474,0-.739-.081.036-.123.053-.164.074a3.857,3.857,0,0,1-1.536.405,2.657,2.657,0,0,1-2.9-2.047,4.093,4.093,0,0,1-.107-1.2,3.222,3.222,0,0,1,.708-1.973,2.643,2.643,0,0,1,1.872-1.014A3.748,3.748,0,0,1,532.694,288.6Zm6.34,3.711a3.111,3.111,0,0,0-.073-.889,2.383,2.383,0,0,0-1.723-1.858,3.124,3.124,0,0,0-.892-.08,2.555,2.555,0,0,0-2.445,1.736,3.445,3.445,0,0,0-.149,1.553,2.558,2.558,0,0,0,1.662,2.245,2.61,2.61,0,0,0,1.077.15,2.467,2.467,0,0,0,2.074-1.15A2.75,2.75,0,0,0,539.034,292.313Zm2.345-1.711-.06-.009c0-.252,0-.5,0-.755,0-.128-.035-.192-.174-.183s-.281,0-.421,0c-.317,0-.3-.037-.3.306q0,2.234,0,4.467c0,.195-.083.446.036.57s.39.042.592.048c.26.008.262,0,.263-.256,0-.871,0-1.742,0-2.613a2.361,2.361,0,0,1,.358-1.28,1.133,1.133,0,0,1,1.344-.485c.066.021.126.082.222.041,0-.21-.007-.425,0-.64.006-.142-.052-.2-.188-.221a1.372,1.372,0,0,0-1.321.444A2.2,2.2,0,0,0,541.38,290.6Zm-24.273-8.062a1.27,1.27,0,1,0-1.3,1.265A1.269,1.269,0,0,0,517.107,282.54Z" transform="translate(-509.114 -250.287)" fill="#6d429c"/>
    <path id="Path_37690" data-name="Path 37690" d="M696.475,393.042c-.41,0-.821.006-1.231.013-.11,0-.175-.023-.172-.153.011-.419-.016-.839.015-1.258a.386.386,0,0,1,.184.122l1.069,1.069A.4.4,0,0,1,696.475,393.042Z" transform="translate(-664.256 -361.56)" fill="#6d429c"/>
    <path id="Path_37691" data-name="Path 37691" d="M695.149,365.787c.068-.122.184-.06.275-.06,1.216-.005,2.432,0,3.647,0l1.964,0a.6.6,0,0,1-.381.056Q697.9,365.787,695.149,365.787Z" transform="translate(-664.32 -339.917)" fill="#6d429c"/>
    <path id="Path_37697" data-name="Path 37697" d="M724.086,453.068a1.61,1.61,0,0,1,1.65-1.554,1.164,1.164,0,0,1,1.022.634,1.978,1.978,0,0,1,.223.775c.011.118-.029.178-.154.168-.037,0-.075,0-.112,0l-2.412.006A.357.357,0,0,1,724.086,453.068Z" transform="translate(-688.472 -411.527)" fill="#6d429c"/>
    <path id="Path_37698" data-name="Path 37698" d="M662.979,453.534a2.234,2.234,0,0,1,.369-1.4,1.551,1.551,0,0,1,1.267-.721,1.857,1.857,0,0,1,.723.065,1.428,1.428,0,0,1,.854.686,2.815,2.815,0,0,1,.013,2.692,1.226,1.226,0,0,1-.295.372,1.785,1.785,0,0,1-2.592-.37A2.144,2.144,0,0,1,662.979,453.534Z" transform="translate(-637.466 -411.44)" fill="#6d429c"/>
  </g>
</svg>
