<svg xmlns="http://www.w3.org/2000/svg" width="228.995" height="170.601" viewBox="0 0 228.995 170.601">
  <g id="Group_40" data-name="Group 40" transform="translate(-585.503 -685.699)">
    <g id="no_data_03" data-name="no data 03" transform="translate(585.503 630.699)">
      <g id="Background_Complete" transform="translate(0 55)">
        <g id="Group_23" data-name="Group 23">
          <g id="Group_21" data-name="Group 21">
            <rect id="Rectangle_11" data-name="Rectangle 11" width="228.995" height="0.137" transform="translate(0 149.946)" fill="#d0e1eb"/>
            <path id="Path_37" data-name="Path 37" d="M129.248,184.519H40.811a2.639,2.639,0,0,1-2.611-2.611V57.611A2.639,2.639,0,0,1,40.811,55h88.438a2.639,2.639,0,0,1,2.611,2.611v124.3A2.609,2.609,0,0,1,129.248,184.519ZM40.811,55.092a2.512,2.512,0,0,0-2.519,2.519v124.3a2.512,2.512,0,0,0,2.519,2.519h88.438a2.512,2.512,0,0,0,2.519-2.519V57.611a2.512,2.512,0,0,0-2.519-2.519Z" transform="translate(-20.705 -55)" fill="#d0e1eb"/>
            <path id="Path_38" data-name="Path 38" d="M345.548,184.519H257.111a2.639,2.639,0,0,1-2.611-2.611V57.611A2.639,2.639,0,0,1,257.111,55h88.438a2.639,2.639,0,0,1,2.611,2.611v124.3A2.609,2.609,0,0,1,345.548,184.519ZM257.111,55.092a2.512,2.512,0,0,0-2.519,2.519v124.3a2.512,2.512,0,0,0,2.519,2.519h88.438a2.512,2.512,0,0,0,2.519-2.519V57.611a2.512,2.512,0,0,0-2.519-2.519Z" transform="translate(-137.942 -55)" fill="#d0e1eb"/>
          </g>
          <g id="Group_22" data-name="Group 22" transform="translate(23.495 153.06)">
            <rect id="Rectangle_12" data-name="Rectangle 12" width="11.908" height="0.137" transform="translate(0 1.237)" fill="#ebebeb"/>
            <rect id="Rectangle_13" data-name="Rectangle 13" width="20.61" height="0.137" transform="translate(43.005)" fill="#ebebeb"/>
            <rect id="Rectangle_14" data-name="Rectangle 14" width="27.846" height="0.137" transform="translate(12.366 5.496)" fill="#ebebeb"/>
            <rect id="Rectangle_15" data-name="Rectangle 15" width="8.793" height="0.137" transform="translate(173.212 4.717)" fill="#ebebeb"/>
            <rect id="Rectangle_16" data-name="Rectangle 16" width="25.327" height="0.137" transform="translate(143.809 4.717)" fill="#ebebeb"/>
            <rect id="Rectangle_17" data-name="Rectangle 17" width="34.12" height="0.137" transform="translate(94.208 2.794)" fill="#ebebeb"/>
          </g>
        </g>
        <g id="Group_27" data-name="Group 27" transform="translate(22.209 12.824)">
          <g id="Group_24" data-name="Group 24" transform="translate(51.528 60.638)">
            <path id="Path_39" data-name="Path 39" d="M183.916,215.4,178.1,291.884h55.875l5.816-76.484Zm35.128,54.089A12.4,12.4,0,0,1,206.908,280.8a10.335,10.335,0,0,1-10.442-11.312l2.015-26.884a12.4,12.4,0,0,1,12.137-11.312,10.3,10.3,0,0,1,10.442,11.267Z" transform="translate(-170.268 -215.4)" fill="#cfe2ee"/>
            <path id="Path_40" data-name="Path 40" d="M242.476,376.438H161l.458-5.038h81.476Z" transform="translate(-161 -299.954)" fill="#cfe2ee"/>
          </g>
          <g id="Group_26" data-name="Group 26">
            <path id="Path_41" data-name="Path 41" d="M406.224,318.069h7.236a.723.723,0,0,0,.733-.733l-.046-.5a.763.763,0,0,0-.779-.733h-7.236a.723.723,0,0,0-.733.733l.046.5A.8.8,0,0,0,406.224,318.069Z" transform="translate(-241.94 -209.343)" fill="#cfe2ee"/>
            <path id="Path_42" data-name="Path 42" d="M379.924,318.069h7.236a.723.723,0,0,0,.733-.733l-.046-.5a.763.763,0,0,0-.779-.733h-7.236a.723.723,0,0,0-.733.733l.046.5A.763.763,0,0,0,379.924,318.069Z" transform="translate(-227.685 -209.343)" fill="#cfe2ee"/>
            <path id="Path_43" data-name="Path 43" d="M225.6,191.177H57.243a3.784,3.784,0,0,1-3.71-3.527L48.5,86.527A3.348,3.348,0,0,1,51.839,83H220.2a3.784,3.784,0,0,1,3.71,3.527l5.084,101.124A3.385,3.385,0,0,1,225.6,191.177Z" transform="translate(-48.491 -83)" fill="#bccdd8"/>
            <path id="Path_44" data-name="Path 44" d="M230.1,191.177H61.743a3.784,3.784,0,0,1-3.71-3.527L53,86.527A3.3,3.3,0,0,1,56.339,83H224.7a3.784,3.784,0,0,1,3.71,3.527l5.038,101.124A3.321,3.321,0,0,1,230.1,191.177Z" transform="translate(-50.93 -83)" fill="#cfe2ee"/>
            <path id="Path_45" data-name="Path 45" d="M68.715,189.869,64,95.8A2.069,2.069,0,0,1,66.1,93.6h161.3a2.386,2.386,0,0,1,2.336,2.2l4.626,94.071a2.069,2.069,0,0,1-2.107,2.2H71.005A2.343,2.343,0,0,1,68.715,189.869Z" transform="translate(-56.895 -88.745)" fill="#e8f5fc"/>
            <path id="Path_46" data-name="Path 46" d="M81.091,101.769a1.843,1.843,0,0,1-1.832,1.969,2.065,2.065,0,0,1-2.061-1.969A1.843,1.843,0,0,1,79.03,99.8,2.167,2.167,0,0,1,81.091,101.769Z" transform="translate(-64.05 -92.106)" fill="#fff"/>
            <path id="Path_47" data-name="Path 47" d="M100.291,101.769a1.843,1.843,0,0,1-1.832,1.969,2.065,2.065,0,0,1-2.061-1.969A1.843,1.843,0,0,1,98.23,99.8,2.132,2.132,0,0,1,100.291,101.769Z" transform="translate(-74.456 -92.106)" fill="#fff"/>
            <path id="Path_48" data-name="Path 48" d="M119.591,101.769a1.843,1.843,0,0,1-1.832,1.969,2.065,2.065,0,0,1-2.061-1.969A1.843,1.843,0,0,1,117.53,99.8,2.1,2.1,0,0,1,119.591,101.769Z" transform="translate(-84.917 -92.106)" fill="#fff"/>
            <g id="Group_25" data-name="Group 25" transform="translate(28.583 4.855)" opacity="0.55">
              <path id="Path_49" data-name="Path 49" d="M110.9,192.068h23.22L155.371,93.6h-23.22Z" transform="translate(-110.9 -93.6)" fill="#fff"/>
              <path id="Path_50" data-name="Path 50" d="M329.3,192.068h5.862L356.413,93.6h-5.862Z" transform="translate(-229.275 -93.6)" fill="#fff"/>
              <path id="Path_51" data-name="Path 51" d="M172.9,192.068h32.975L227.126,93.6H194.151Z" transform="translate(-144.505 -93.6)" fill="#fff"/>
            </g>
          </g>
        </g>
      </g>
      <g id="Shadow_1_" transform="translate(25.693 215.251)">
        <ellipse id="_x3C_Path_x3E__368_" cx="88.804" cy="5.175" rx="88.804" ry="5.175" fill="#d7e2e9"/>
      </g>
      <g id="Character_1_" transform="translate(45.373 80.006)">
        <g id="Group_39" data-name="Group 39">
          <g id="Group_33" data-name="Group 33" transform="translate(0 0.137)">
            <path id="Path_52" data-name="Path 52" d="M335.1,233.533h-.183c-12.182-1.008-20.61-11.4-20.93-11.862a2.053,2.053,0,0,1,3.206-2.565c.092.137,7.282,8.977,17.22,10.259,3.206-3.206,5.954-11.679,5.633-14.243v-.092c-.046-.824-.229-3.664.6-5.313a2.059,2.059,0,0,1,3.71,1.786,10.253,10.253,0,0,0-.183,3.206c.458,4.214-3.206,14.839-7.786,18.411A2.5,2.5,0,0,1,335.1,233.533Z" transform="translate(-215.319 -163.369)" fill="#263238"/>
            <path id="Path_53" data-name="Path 53" d="M121.845,191.04a30.1,30.1,0,0,1-22.258-10.213,2.069,2.069,0,0,1-.137-2.565c3.3-4.442,9.16-14.93,10.03-18.365a4.829,4.829,0,0,0-1.878-1.969,1.991,1.991,0,0,1-1.145-1.649l-.321-3.343a2.086,2.086,0,0,1,1.832-2.244,2.053,2.053,0,0,1,2.244,1.832l.229,2.336a10.144,10.144,0,0,1,3.114,3.939,2.04,2.04,0,0,1,.137,1.053c-.412,3.618-6.32,14.152-9.938,19.465a25.934,25.934,0,0,0,19.052,7.648,2.042,2.042,0,0,1,2.2,1.832,2.015,2.015,0,0,1-1.832,2.2C123.082,190.994,122.624,191.04,121.845,191.04Z" transform="translate(-99.069 -132.005)" fill="#263238"/>
            <path id="Path_54" data-name="Path 54" d="M282.658,370.465h-5.5a2.152,2.152,0,0,1-1.649-.824,2.075,2.075,0,0,1-.321-1.786,76.036,76.036,0,0,0,2.656-15.892c-1.924-9.114-3.756-17.5-3.8-17.587a2.039,2.039,0,1,1,3.984-.87c0,.092,1.878,8.656,3.847,17.907a2.61,2.61,0,0,1,.046.6,81.9,81.9,0,0,1-2.153,14.381h2.84a2.038,2.038,0,1,1,.046,4.076Z" transform="translate(-193.886 -230.228)" fill="#263238"/>
            <path id="Path_55" data-name="Path 55" d="M194.167,370.508h-3.114a2.225,2.225,0,0,1-1.557-.687,2.315,2.315,0,0,1-.5-1.6c.5-3.756,3.206-10.58,6.091-17.449,1.008-9.068,1.878-16.854,1.878-16.946a2.048,2.048,0,0,1,4.076.412c0,.092-.87,8.061-1.924,17.266a2.416,2.416,0,0,1-.137.55,147.989,147.989,0,0,0-5.4,14.381h.55a2.052,2.052,0,0,1,2.061,2.061A1.975,1.975,0,0,1,194.167,370.508Z" transform="translate(-147.804 -230.272)" fill="#263238"/>
            <g id="Group_28" data-name="Group 28" transform="translate(23.017)">
              <path id="Path_56" data-name="Path 56" d="M174.945,110.946l-23.861,23.815c-1.191,26.426-1.1,54.18,0,82.988h78.866c-1.557-37.143-1.695-72.912,0-106.849h-55Z" transform="translate(-149.812 -110.442)" fill="#fff"/>
              <path id="Path_57" data-name="Path 57" d="M229.462,217.619H150.6a.41.41,0,0,1-.412-.412c-1.145-29.907-1.145-57.8,0-83.034a.4.4,0,0,1,.137-.275l23.861-23.861a.4.4,0,0,1,.275-.137h55a.326.326,0,0,1,.275.137.283.283,0,0,1,.092.321c-1.649,32.655-1.649,67.6,0,106.8a.849.849,0,0,1-.092.321A.277.277,0,0,1,229.462,217.619Zm-78.454-.824H229.05c-1.6-38.883-1.6-73.553,0-106.025H174.64L151.008,134.4C149.909,159.454,149.863,187.163,151.008,216.795Z" transform="translate(-149.325 -109.9)" fill="#263238"/>
            </g>
            <path id="Path_76" data-name="Path 76" d="M282.831,318.741h-8.61a.321.321,0,0,1,0-.641h8.61a.321.321,0,0,1,0,.641Z" transform="translate(-193.829 -222.747)" fill="#407bff"/>
            <path id="Path_77" data-name="Path 77" d="M221.046,318.741H182.621a.321.321,0,0,1,0-.641h38.425a.321.321,0,1,1,0,.641Z" transform="translate(-144.181 -222.747)" fill="#407bff"/>
            <g id="Group_31" data-name="Group 31" transform="translate(39.627 30.657)">
              <path id="Path_78" data-name="Path 78" d="M208.71,215.025c-.092-2.015-1.237-3.572-2.519-3.527-1.328.046-2.29,1.695-2.2,3.71s1.237,3.572,2.519,3.527S208.8,216.995,208.71,215.025Z" transform="translate(-195.563 -195.624)" fill="#407bff"/>
              <path id="Path_79" data-name="Path 79" d="M269.01,213.625c-.092-2.015-1.237-3.572-2.519-3.527-1.328.046-2.29,1.695-2.2,3.71s1.237,3.572,2.519,3.527C268.14,217.289,269.1,215.641,269.01,213.625Z" transform="translate(-228.246 -194.865)" fill="#407bff"/>
              <path id="Path_80" data-name="Path 80" d="M226.082,235.759a16.591,16.591,0,0,1,13.1.6.587.587,0,0,1,.229.779.629.629,0,0,1-.824.229,15.99,15.99,0,0,0-14.381.458.574.574,0,1,1-.55-1.008A26.023,26.023,0,0,1,226.082,235.759Z" transform="translate(-206.065 -208.205)" fill="#407bff"/>
              <path id="Path_81" data-name="Path 81" d="M194.756,178.3a1.007,1.007,0,0,1,.6.183,1.184,1.184,0,0,1,.412,1.6,11.8,11.8,0,0,1-8.931,5.862,1.193,1.193,0,0,1-.137-2.382h0a9.289,9.289,0,0,0,7.053-4.717A1.259,1.259,0,0,1,194.756,178.3Z" transform="translate(-185.594 -177.631)" fill="#407bff"/>
              <path id="Path_82" data-name="Path 82" d="M264.935,176.867a1.142,1.142,0,0,1,1.053.321A9.387,9.387,0,0,0,274,180.072a1.168,1.168,0,0,1,.458,2.29,11.862,11.862,0,0,1-10.167-3.527,1.161,1.161,0,0,1,0-1.649A1.221,1.221,0,0,1,264.935,176.867Z" transform="translate(-228.064 -176.838)" fill="#407bff"/>
            </g>
            <path id="Path_83" data-name="Path 83" d="M309.168,172.325l-3.343.321a2.433,2.433,0,0,1-2.565-1.878l-4.626-20.793a2.423,2.423,0,0,1,1.74-2.84l8.977-2.336Z" transform="translate(-207.206 -128.816)" opacity="0.2"/>
            <path id="Path_84" data-name="Path 84" d="M178.16,136.968c-2.336-6.366-4.671-16.533-2.2-25.968L152.1,134.815C158.878,137.105,169.6,138.067,178.16,136.968Z" transform="translate(-127.812 -110.496)" opacity="0.2"/>
            <g id="Group_32" data-name="Group 32" transform="translate(23.903 0.074)">
              <path id="Path_85" data-name="Path 85" d="M175.961,134.761c-2.611-7.74-1.557-18.228,0-23.861L152.1,134.761C159.336,136.089,167.4,135.906,175.961,134.761Z" transform="translate(-151.716 -110.516)" fill="#fff"/>
              <path id="Path_86" data-name="Path 86" d="M162.591,135.634a63.123,63.123,0,0,1-10.992-.916.484.484,0,0,1-.321-.275.439.439,0,0,1,.092-.412l23.861-23.861a.411.411,0,0,1,.5-.046.375.375,0,0,1,.183.458c-1.42,5.221-2.611,15.846,0,23.586a.359.359,0,0,1-.046.366.377.377,0,0,1-.275.183A97.294,97.294,0,0,1,162.591,135.634Zm-10.076-1.557c6.32,1.053,13.694,1.008,22.441-.092-2.153-6.824-1.649-15.892-.229-22.167Z" transform="translate(-151.261 -110.061)" fill="#263238"/>
            </g>
          </g>
          <g id="Group_38" data-name="Group 38" transform="translate(93.048)">
            <path id="Path_87" data-name="Path 87" d="M372.4,199.618a.6.6,0,0,1-.641-.5L363.376,167.1a.683.683,0,0,1,1.328-.321l8.381,32.013a.683.683,0,0,1-.5.824Z" transform="translate(-335.364 -140.308)" fill="#263238"/>
            <rect id="Rectangle_18" data-name="Rectangle 18" width="0.458" height="2.519" transform="matrix(0.967, -0.254, 0.254, 0.967, 51.936, 12.567)" fill="#407bff"/>
            <path id="Path_88" data-name="Path 88" d="M401.2,119.447l-1.786-6.732a3.574,3.574,0,0,0-3.435-2.656,3.173,3.173,0,0,0-.916.137l-4.626,1.191-.137-.458,4.626-1.191a3.815,3.815,0,0,1,1.008-.137,4.067,4.067,0,0,1,3.893,2.977l1.786,6.732Z" transform="translate(-349.968 -109.6)" fill="#407bff"/>
            <path id="Path_89" data-name="Path 89" d="M354.43,138.9l-43.646,11.45a2.4,2.4,0,0,1-2.931-1.695l-5.542-21.068a2.4,2.4,0,0,1,1.695-2.931l43.646-11.45a2.4,2.4,0,0,1,2.931,1.695l5.542,21.068A2.4,2.4,0,0,1,354.43,138.9Z" transform="translate(-302.236 -111.517)" fill="#407bff"/>
            <path id="Path_90" data-name="Path 90" d="M364.908,178.032l-27.525,7.236a2.4,2.4,0,0,1-2.931-1.695l-1.74-6.6a2.4,2.4,0,0,1,1.695-2.931l27.571-7.236a2.4,2.4,0,0,1,2.931,1.695l1.74,6.6A2.423,2.423,0,0,1,364.908,178.032Z" transform="translate(-318.713 -140.568)" fill="#407bff"/>
          </g>
        </g>
      </g>
    </g>
    <text id="No_Data" data-name="No
Data" transform="matrix(0.966, -0.259, 0.259, 0.966, 750.612, 729.051)" fill="#f7fcff" font-size="12" font-family="Poppins-SemiBold, Poppins" font-weight="600"><tspan x="-9" y="0">NO</tspan><tspan x="-16" y="14">DATA</tspan></text>
  </g>
</svg>
