<svg xmlns="http://www.w3.org/2000/svg" width="49.483" height="58.105" viewBox="0 0 49.483 58.105">
  <g id="Group_55621" data-name="Group 55621" transform="translate(-519.891 -192)">
    <path id="Path_14067" data-name="Path 14067" d="M615.84,407.951c-.987-.717-1.968-1.444-2.962-2.15q-3.253-2.313-6.517-4.611c-.936-.662-.929-1.259.014-1.925q4.507-3.187,9.011-6.379c.382-.271.758-.52,1.243-.257.456.247.481.674.477,1.126-.01.979,0,1.958,0,3.1a31.418,31.418,0,0,0,3.692-.413c7.605-1.759,12.334-6.466,14.115-14.086a21.137,21.137,0,0,0,.338-3.149c.075-.949.317-1.212,1.244-1.213,1.529,0,3.057,0,4.586,0,.776,0,1.094.335,1.09,1.112A24.739,24.739,0,0,1,621.744,403.3c-1.5.259-3.03.336-4.642.508,0,.918-.022,1.911.009,2.9a1.279,1.279,0,0,1-.591,1.245Z" transform="translate(-72.794 -157.846)" fill="#fff"/>
    <path id="Path_14068" data-name="Path 14068" d="M543.726,192l9.231,6.548c.169.12.343.235.508.361a.905.905,0,0,1,.02,1.6q-4.728,3.369-9.486,6.694a1.1,1.1,0,0,1-.973.1,1.28,1.28,0,0,1-.506-.908c-.064-.995-.023-2-.023-3.157a33.712,33.712,0,0,0-3.281.806c-6.841,2.413-10.913,7.226-12.222,14.368a21.375,21.375,0,0,0-.192,2.428c-.056.832-.342,1.121-1.158,1.123q-2.322.006-4.644,0c-.8,0-1.116-.335-1.108-1.153A24.686,24.686,0,0,1,537.933,197.2c1.318-.371,2.7-.528,4.047-.784.147-.028.294-.052.516-.09,0-.982.026-1.959-.01-2.934a1.556,1.556,0,0,1,.56-1.389Z" transform="translate(0)" fill="#fff"/>
    <path id="Path_14069" data-name="Path 14069" d="M621.453,325.563c-.269-.12-.481-.2-.673-.305-.492-.28-.974-.577-1.461-.865a.825.825,0,0,0-1.349.552q-.22.849-.427,1.7a1,1,0,0,1-1.093.851c-1.132-.013-2.265,0-3.4-.005-.667,0-.94-.226-1.114-.892-.157-.6-.3-1.208-.461-1.811a.773.773,0,0,0-1.175-.481c-.554.323-1.1.654-1.654.982a.976.976,0,0,1-1.327-.17q-1.209-1.235-2.439-2.449a.977.977,0,0,1-.176-1.327c.3-.5.6-1.006.9-1.51.417-.7.208-1.2-.6-1.4q-.822-.208-1.646-.41a1,1,0,0,1-.839-1.1c.014-1.134,0-2.269.005-3.4a.956.956,0,0,1,.842-1.093c.582-.157,1.168-.3,1.751-.452a.8.8,0,0,0,.52-1.313c-.307-.521-.619-1.038-.924-1.559a.955.955,0,0,1,.153-1.284c.845-.838,1.683-1.683,2.523-2.526a.93.93,0,0,1,1.236-.146c.522.3,1.038.617,1.557.925a.837.837,0,0,0,1.376-.584c.151-.585.3-1.17.449-1.755a.917.917,0,0,1,.987-.752c1.17,0,2.34.009,3.51,0a.978.978,0,0,1,1.053.828c.156.6.3,1.208.463,1.81a.819.819,0,0,0,1.257.512c.537-.314,1.067-.641,1.6-.956a.953.953,0,0,1,1.281.161q1.235,1.249,2.484,2.485a.979.979,0,0,1,.148,1.332q-.451.754-.893,1.512a.84.84,0,0,0,.548,1.361q.874.23,1.752.45a.943.943,0,0,1,.79,1.019q-.006,1.758,0,3.517a.959.959,0,0,1-.791,1.024c-.6.16-1.2.312-1.8.471a.811.811,0,0,0-.542,1.276c.305.521.612,1.042.925,1.559a.98.98,0,0,1-.14,1.334c-.83.827-1.647,1.666-2.49,2.479A3.415,3.415,0,0,1,621.453,325.563Zm-6.716-5.124a5.2,5.2,0,1,0-5.167-5.28A5.223,5.223,0,0,0,614.737,320.439Z" transform="translate(-70.126 -94.186)" fill="#fff"/>
    <path id="Path_14071" data-name="Path 14071" d="M664.455,368.422a3.382,3.382,0,1,1,3.38-3.405A3.4,3.4,0,0,1,664.455,368.422Z" transform="translate(-119.827 -143.986)" fill="#fff"/>
  </g>
</svg>
