<svg xmlns="http://www.w3.org/2000/svg" width="681.288" height="667.53" viewBox="0 0 681.288 667.53">
  <g id="Group_6456" data-name="Group 6456" transform="translate(0 13)" opacity="0.037">
    <path id="Path_2269" data-name="Path 2269" d="M452.431,7.692A337.84,337.84,0,0,0,209.087,105.1,316,316,0,0,0,108.592,338.877a321.612,321.612,0,0,0,100.5,238.847,337.714,337.714,0,0,0,243.342,97.405,328.487,328.487,0,0,0,238.292-97.584A316.235,316.235,0,0,0,789.8,345.317,326.641,326.641,0,0,0,690.874,106.8,326.606,326.606,0,0,0,452.431,7.692ZM328.1,217.947a171.2,171.2,0,0,1,124.334-49.612,159.685,159.685,0,0,1,90.992,26.809A156.471,156.471,0,0,1,571.562,219.2a172.73,172.73,0,0,1,49.885,126.058A161.84,161.84,0,0,1,571.108,463.92a157.381,157.381,0,0,1-116.075,50.685,175.179,175.179,0,0,1-127.348-50.143,170.018,170.018,0,0,1-50.834-125.527A159.861,159.861,0,0,1,328.1,217.947Z" transform="translate(-108.542 -20.646)" fill="#c9e6ff" opacity="0.658"/>
    <path id="Path_2270" data-name="Path 2270" d="M363.762,136.982c0,67.512-55.53,122.241-124.031,122.241S115.7,204.494,115.7,136.982,171.231,14.741,239.731,14.741,363.762,69.47,363.762,136.982Z" transform="translate(100.83 183.782)" fill="#c9e6ff" opacity="0.658"/>
  </g>
</svg>
