<svg xmlns="http://www.w3.org/2000/svg" width="35.728" height="55.506" viewBox="0 0 35.728 55.506">
  <path id="Path_14073" data-name="Path 14073" d="M549.622,128a5.094,5.094,0,0,1,.734.519,1.636,1.636,0,0,1,.114,2.141q-2.066,3.65-4.144,7.293-3.517,6.187-7.032,12.374c-.087.153-.166.311-.292.548h.633q6.2,0,12.406,0a3.246,3.246,0,0,1,.805.071,1.592,1.592,0,0,1,.955,2.409,3.931,3.931,0,0,1-.4.51q-12.731,14.378-25.473,28.744a7.424,7.424,0,0,1-1.181.895h-.759c-1.321-.9-1.447-1.356-.8-2.879q4.136-9.7,8.27-19.4c.076-.178.139-.361.227-.591H520.264c-1.578,0-2.275-.955-1.78-2.448q4.749-14.32,9.5-28.641a2.186,2.186,0,0,1,1.37-1.543Z" transform="translate(-518.327 -128)" fill="#fff"/>
</svg>
