<svg xmlns="http://www.w3.org/2000/svg" width="42.281" height="48.09" viewBox="0 0 42.281 48.09">
  <g id="Group_23856" data-name="Group 23856" transform="translate(0 0)">
    <path id="Path_13417" data-name="Path 13417" d="M323.408,268.482a3.648,3.648,0,0,1-1.832-.493l-5.831-3.484c-.861-.491-.444-.665-.158-.767a11.81,11.81,0,0,0,2.638-1.2.425.425,0,0,1,.431.029l4.488,2.68a.574.574,0,0,0,.54,0l17.457-10.18a.557.557,0,0,0,.268-.478V234.26a.569.569,0,0,0-.27-.484l-17.456-10.162a.534.534,0,0,0-.54,0l-17.456,10.162a.561.561,0,0,0-.276.48v20.333a.545.545,0,0,0,.27.474l4.782,2.787c2.6,1.309,4.185-.233,4.185-1.783V235.992a.5.5,0,0,1,.5-.507h2.224a.5.5,0,0,1,.5.5v20.082c0,3.5-1.889,5.5-5.177,5.5a7.425,7.425,0,0,1-4.024-1.1l-4.584-2.664a3.739,3.739,0,0,1-1.832-3.216V234.256a3.707,3.707,0,0,1,1.832-3.21l17.483-10.18a3.8,3.8,0,0,1,3.676,0l17.456,10.18a3.717,3.717,0,0,1,1.834,3.21v20.333a3.722,3.722,0,0,1-1.834,3.21l-17.456,10.178a3.663,3.663,0,0,1-1.844.5" transform="translate(-302.253 -220.392)" fill="#64c14d"/>
    <path id="Path_13418" data-name="Path 13418" d="M320.337,247.346c-7.64,0-9.243-3.537-9.243-6.506a.508.508,0,0,1,.5-.509h2.261a.507.507,0,0,1,.5.433c.345,2.319,1.356,3.488,5.976,3.488,3.684,0,5.248-.84,5.248-2.809,0-1.133-.448-1.977-6.166-2.541-4.782-.478-7.737-1.538-7.737-5.4,0-3.557,2.973-5.672,7.953-5.672,5.59,0,8.362,1.957,8.712,6.166a.519.519,0,0,1-.478.554l-.031,0h-2.267a.5.5,0,0,1-.491-.4c-.548-2.439-1.867-3.22-5.455-3.22-4.018,0-4.486,1.413-4.486,2.47,0,1.284.55,1.66,5.972,2.384,5.369.72,7.917,1.726,7.917,5.541,0,3.834-3.175,6.036-8.708,6.036" transform="translate(-293.789 -213.269)" fill="#64c14d"/>
  </g>
</svg>
