<svg id="Layer_1" data-name="Layer 1" xmlns="http://www.w3.org/2000/svg" viewBox="0 0 74.78 57.12"><defs><style>.cls-1{fill:#fff;}</style></defs><path class="cls-1" d="M38.48,0,61.39,12.68a4.46,4.46,0,0,1,2.41,4.15q0,11.93,0,23.85a4.48,4.48,0,0,1-2.48,4.11c-7,3.93-14,8-21.19,11.72a6.15,6.15,0,0,1-4.63.27,78.51,78.51,0,0,1-8.39-4.6c2.33-1.34,4.38-2.6,6.73-.45s4.44,1.75,7.06.15c5.75-3.52,11.73-6.67,17.65-9.91a2.23,2.23,0,0,0,1.33-2.26q-.08-11,0-22a2.21,2.21,0,0,0-1.27-2.29Q48.52,9.89,38.53,4.25a2.2,2.2,0,0,0-2.47.06Q26.13,9.89,16.15,15.36a2.09,2.09,0,0,0-1.28,2.09q.08,11.21,0,22.4A2,2,0,0,0,16.14,42c1.62.8,3.16,1.74,4.74,2.63,2.71,1.52,5.75.73,5.64-3.31-.2-7.16,0-14.33-.1-21.49,0-1.72.77-1.77,2.08-1.78s2.07.16,2.05,1.83c-.09,7.47,0,14.93-.05,22.4,0,5.38-3.82,8.31-8.94,6.52a41.12,41.12,0,0,1-8.78-4.55,5.12,5.12,0,0,1-1.72-3.71C10.91,32.61,11,24.72,11,16.83a4.47,4.47,0,0,1,2.42-4.15q10.72-6,21.47-12c.46-.26.95-.47,1.43-.71Z"/><path class="cls-1" d="M54.1,25.31a11.35,11.35,0,0,1-2.59,0,2.36,2.36,0,0,1-1.46-1.08c-.7-1.64-1.8-2.8-3.59-2.9a42.08,42.08,0,0,0-6.45.11,2.41,2.41,0,0,0-2.33,2.55c0,1.56,1.23,1.83,2.33,2,2.9.54,5.83,1,8.74,1.45A14.88,14.88,0,0,1,51,28c2.06.7,3.61,1.87,3.92,4.23s-.25,4.66-2.32,6.07A12.46,12.46,0,0,1,48,40.21a19.75,19.75,0,0,1-10.87-.72,6.35,6.35,0,0,1-4.43-5.62c0-.53.54-1.61.77-1.59,1.08.09,2.74-.9,3.14.72.76,3,2.93,3.77,5.55,3.82a39.31,39.31,0,0,0,5.94-.35,2.78,2.78,0,0,0,2.64-2.93c0-1.67-1.37-2.05-2.59-2.28-2.73-.5-5.49-.8-8.22-1.25a15.78,15.78,0,0,1-3-.8,5,5,0,0,1-3.57-4.35,5.79,5.79,0,0,1,2.43-5.67c3.58-2.53,11.83-2.59,15.41-.07C53.29,20.55,54.11,22.57,54.1,25.31Z"/></svg>