<svg xmlns="http://www.w3.org/2000/svg" width="42.415" height="44.707" viewBox="0 0 42.415 44.707">
  <g id="Group_55618" data-name="Group 55618" transform="translate(-531.51 -223.931)">
    <path id="Path_14064" data-name="Path 14064" d="M531.514,246.267q0-4.847,0-9.695a13.216,13.216,0,0,1,1.823-7.158,11.441,11.441,0,0,1,8.574-5.342,16.077,16.077,0,0,1,2.189-.133c3.015-.014,6.031-.008,9.046-.005a2.252,2.252,0,0,1,2.5,2.489c0,2.044-.006,4.087,0,6.131a9.56,9.56,0,0,0,9.4,9.66c2.108.052,4.218.013,6.327.017a2.294,2.294,0,0,1,2.55,2.561q0,5.607,0,11.214a13.227,13.227,0,0,1-1.8,7.112,11.427,11.427,0,0,1-8.607,5.377,15.9,15.9,0,0,1-2.189.132c-5.734.01-11.469,0-17.2.009a13.205,13.205,0,0,1-7.18-1.877,11.144,11.144,0,0,1-5.226-8.191,19.6,19.6,0,0,1-.19-2.818C531.5,252.59,531.514,249.428,531.514,246.267Zm17.856,3.921c2.194,0,4.389.006,6.583,0a1.683,1.683,0,0,0,1.783-1.653,1.705,1.705,0,0,0-1.756-1.694c-.557-.015-1.115,0-1.672,0q-5.7,0-11.39,0a1.764,1.764,0,0,0-1.729.946,1.654,1.654,0,0,0,1.545,2.4C544.947,250.2,547.158,250.187,549.37,250.188Zm-2.193,5.608c-1.446,0-2.892-.021-4.337.015a2.322,2.322,0,0,0-1.122.318,1.546,1.546,0,0,0-.626,1.836,1.7,1.7,0,0,0,1.724,1.182q4.311.012,8.622,0a1.682,1.682,0,1,0-.028-3.349C550,255.791,548.588,255.8,547.177,255.8Z" transform="translate(0 0)" fill="#fff"/>
    <path id="Path_14065" data-name="Path 14065" d="M726.071,229.615c0-1.292.008-2.584,0-3.876a1.48,1.48,0,0,1,2.608-1.093q6.019,6.078,12.044,12.15a1.4,1.4,0,0,1,.406,1.657,1.432,1.432,0,0,1-1.472.868c-2.491-.013-4.982,0-7.473-.018a6.1,6.1,0,0,1-6.11-6.178C726.069,231.954,726.071,230.784,726.071,229.615Z" transform="translate(-167.381 -0.151)" fill="#fff"/>
  </g>
</svg>
