<svg xmlns="http://www.w3.org/2000/svg" width="119.705" height="119.705" viewBox="0 0 119.705 119.705">
  <path id="Subtraction_1" data-name="Subtraction 1" d="M118.984,129.078H18.211a4.844,4.844,0,0,1-4.838-4.838V23.466L31.108,41.2c-.026.4-.04.813-.04,1.22A18.5,18.5,0,0,0,49.544,60.9c.405,0,.816-.013,1.22-.04L70.741,80.835,64.034,91.362,54.4,76.239a3.9,3.9,0,0,0-6.583,0L27.753,107.723a3.9,3.9,0,0,0,3.292,6H103.63l15.352,15.352,0,0h0Zm13.218-4.786h0l-13.13-13.13a3.925,3.925,0,0,0-.374-3.438L89.445,61.817a3.9,3.9,0,0,0-6.584,0l-5.112,8.022L62.99,55.081A18.467,18.467,0,0,0,36.885,28.975L18.158,10.248a8.451,8.451,0,0,1,3.767-.875h102.6a8.563,8.563,0,0,1,8.553,8.553v102.6a8.451,8.451,0,0,1-.875,3.766Z" transform="translate(-13.372 -9.373)" fill="#c3cddc"/>
</svg>
