<svg xmlns="http://www.w3.org/2000/svg" width="52.34" height="58.115" viewBox="0 0 52.34 58.115">
  <g id="Group_69744" data-name="Group 69744" transform="translate(436.643 472.662)">
    <path id="Path_50456" data-name="Path 50456" d="M-269.858-472.412a1.518,1.518,0,0,1,.8,1.526c-.033,2.283-.01,4.566-.014,6.849a1.163,1.163,0,0,1-.986,1.292,1.1,1.1,0,0,1-1.255-1.068c-.021-2.507-.011-5.015-.006-7.523,0-.537.384-.817.783-1.077Z" transform="translate(-140.286)" fill="#002d7c" stroke="#002d7c" stroke-width="0.5"/>
    <path id="Path_50457" data-name="Path 50457" d="M-410.868-354.151a26.781,26.781,0,0,1-13.816-4.3,40.48,40.48,0,0,1-11.378-10.607,1.134,1.134,0,0,1-.045-1.634,38.334,38.334,0,0,1,15.65-12.846,24.5,24.5,0,0,1,20.882.406,38.792,38.792,0,0,1,14.688,12.4,1.1,1.1,0,0,1,.077,1.543c-4.754,6.365-10.579,11.339-18.252,13.871A24.44,24.44,0,0,1-410.868-354.151Zm.27-2.247a23.261,23.261,0,0,0,9.33-1.99,36.661,36.661,0,0,0,13.958-11.186.457.457,0,0,0-.01-.678A37.717,37.717,0,0,0-399.2-380.44c-6.892-3.642-13.92-4.015-21.058-.732A36.916,36.916,0,0,0-433.687-370.2c-.262.329-.052.5.119.719a38.859,38.859,0,0,0,9.857,8.979A24.909,24.909,0,0,0-410.6-356.4Z" transform="translate(0 -73.696)" fill="#002d7c" stroke="#002d7c" stroke-width="0.5"/>
    <path id="Path_50458" data-name="Path 50458" d="M-269.08-148.653c0,1.179.006,2.358,0,3.537a1.148,1.148,0,0,1-1.118,1.279,1.141,1.141,0,0,1-1.133-1.263q-.009-3.565,0-7.129a1.144,1.144,0,0,1,1.117-1.278,1.143,1.143,0,0,1,1.133,1.262C-269.074-151.049-269.08-149.851-269.08-148.653Z" transform="translate(-140.275 -270.958)" fill="#002d7c" stroke="#002d7c" stroke-width="0.5"/>
    <path id="Path_50459" data-name="Path 50459" d="M-406.28-409.149a1.15,1.15,0,0,1-1.67,1.114,2.1,2.1,0,0,1-.433-.353c-1.487-1.479-2.986-2.948-4.441-4.457a1.522,1.522,0,0,1-.444-1.068,1.281,1.281,0,0,1,.707-.878,1.294,1.294,0,0,1,1.116.21c1.642,1.561,3.235,3.174,4.824,4.789A2.154,2.154,0,0,1-406.28-409.149Z" transform="translate(-19.677 -48.916)" fill="#002d7c" stroke="#002d7c" stroke-width="0.5"/>
    <path id="Path_50460" data-name="Path 50460" d="M-153.708-414.321a5.632,5.632,0,0,1-.594.957q-2.266,2.3-4.569,4.568a1.122,1.122,0,0,1-1.693.1,1.114,1.114,0,0,1,.107-1.689c1.518-1.528,3.047-3.044,4.571-4.567a1.058,1.058,0,0,1,1.365-.3A4.245,4.245,0,0,1-153.708-414.321Z" transform="translate(-234.105 -48.438)" fill="#002d7c" stroke="#002d7c" stroke-width="0.5"/>
    <path id="Path_50461" data-name="Path 50461" d="M-411.9-178.061c-.352-.27-.765-.441-.911-.742a2.118,2.118,0,0,1,0-1.1c.018-.14.192-.268.311-.387,1.483-1.484,2.954-2.98,4.466-4.433a1.6,1.6,0,0,1,1.068-.458,1.445,1.445,0,0,1,.892.64.933.933,0,0,1-.183,1.186c-.433.467-.89.91-1.34,1.36-1.1,1.1-2.191,2.206-3.309,3.286A6.64,6.64,0,0,1-411.9-178.061Z" transform="translate(-20.006 -244.045)" fill="#002d7c" stroke="#002d7c" stroke-width="0.5"/>
    <path id="Path_50462" data-name="Path 50462" d="M-154.872-178.363a4.992,4.992,0,0,1-.976-.56q-2.35-2.3-4.658-4.639a1.1,1.1,0,0,1-.048-1.648,1.1,1.1,0,0,1,1.611.038c1.575,1.55,3.135,3.116,4.7,4.68a1.008,1.008,0,0,1,.277,1.271A4.705,4.705,0,0,1-154.872-178.363Z" transform="translate(-234.107 -243.74)" fill="#002d7c" stroke="#002d7c" stroke-width="0.5"/>
    <path id="Path_50463" data-name="Path 50463" d="M-310.634-338.06a10.228,10.228,0,0,1-9.433,10.078,10.142,10.142,0,0,1-10.754-8.461,16.207,16.207,0,0,1-.014-3.245,1.117,1.117,0,0,1,1.247-1.155,1.113,1.113,0,0,1,.975,1.431,7.813,7.813,0,0,0,1.42,5.962,7.878,7.878,0,0,0,9.3,2.677,7.907,7.907,0,0,0,4.937-8.053,7.9,7.9,0,0,0-6.743-7.055,8.151,8.151,0,0,0-3.56.3c-.162.048-.318.119-.482.155a1.118,1.118,0,0,1-1.361-.706,1.1,1.1,0,0,1,.681-1.414,9.447,9.447,0,0,1,4.476-.63,10.11,10.11,0,0,1,9.1,8.278C-310.731-339.295-310.7-338.673-310.634-338.06Z" transform="translate(-89.657 -105.515)" fill="#009eff" stroke="#009eff" stroke-width="0.5"/>
    <path id="Path_50464" data-name="Path 50464" d="M-289.258-310.717a4.515,4.515,0,0,1,4.462,4.559,4.517,4.517,0,0,1-4.582,4.44,4.519,4.519,0,0,1-4.434-4.532A4.516,4.516,0,0,1-289.258-310.717Zm-.048,6.749a2.262,2.262,0,0,0,2.256-2.248,2.259,2.259,0,0,0-2.251-2.251,2.257,2.257,0,0,0-2.255,2.247A2.259,2.259,0,0,0-289.306-303.968Z" transform="translate(-121.179 -137.385)" fill="#009eff" stroke="#009eff" stroke-width="0.5"/>
    <path id="Path_50465" data-name="Path 50465" d="M-314.051-324.573a1.135,1.135,0,0,1-1.129,1.144,1.135,1.135,0,0,1-1.117-1.1,1.133,1.133,0,0,1,1.128-1.143A1.137,1.137,0,0,1-314.051-324.573Z" transform="translate(-102.074 -124.679)" fill="#009eff" stroke="#009eff" stroke-width="0.5"/>
  </g>
</svg>
