<svg xmlns="http://www.w3.org/2000/svg" width="48.033" height="48.129" viewBox="0 0 48.033 48.129">
  <g id="Group_56497" data-name="Group 56497" transform="translate(-491.114 -192)">
    <g id="Group_56496" data-name="Group 56496" transform="translate(491.114 192)">
      <path id="Path_14223" data-name="Path 14223" d="M557.322,195.1c-.117.944-.213,1.891-.355,2.831a36.1,36.1,0,0,1-4.273,12.2,36.989,36.989,0,0,1-7.445,9.485,1.042,1.042,0,0,0-.3.841,25.125,25.125,0,0,1-7.153,16.6,1.8,1.8,0,0,1-.915.493c-.522.1-.961-.366-1.047-.97-.353-2.478-.708-4.957-1.078-7.551l-.864.768a1.082,1.082,0,0,1-1.779-.058q-6.237-6.246-12.471-12.5a1.081,1.081,0,0,1-.045-1.78c.235-.264.469-.529.761-.858-1.218-.178-2.339-.343-3.461-.5q-2.064-.3-4.128-.583a1.021,1.021,0,0,1-.919-.694,1.056,1.056,0,0,1,.344-1.142,25.306,25.306,0,0,1,10.228-6.153,24.968,24.968,0,0,1,6.674-1.157,1.008,1.008,0,0,0,.637-.288,38.354,38.354,0,0,1,18.544-11.077,29.208,29.208,0,0,1,5.677-.934,2.487,2.487,0,0,0,.361-.076h2.252l.75.752Zm-8.739,10.675a5.006,5.006,0,1,0-5.025,5.01A5.032,5.032,0,0,0,548.582,205.777Z" transform="translate(-509.289 -192)" fill="#fff"/>
      <path id="Path_14224" data-name="Path 14224" d="M492.515,464.066c-.736-.418-.885-.751-.637-1.533a75.647,75.647,0,0,1,3.994-10.652,6.44,6.44,0,0,1,3.561-3.47,6.193,6.193,0,0,1,6.634,10.081,9.755,9.755,0,0,1-3.089,1.912,79.652,79.652,0,0,1-9.434,3.474c-.159.051-.311.125-.466.188Z" transform="translate(-491.767 -415.937)" fill="#fff"/>
      <path id="Path_14225" data-name="Path 14225" d="M869.763,192.752l-.751-.752h.751Z" transform="translate(-821.73 -192)" fill="#fff"/>
    </g>
  </g>
</svg>
