<svg xmlns="http://www.w3.org/2000/svg" xmlns:xlink="http://www.w3.org/1999/xlink" width="556.658" height="447.165" viewBox="0 0 556.658 447.165">
  <defs>
    <clipPath id="clip-path">
      <circle id="Ellipse_274" data-name="Ellipse 274" cx="30.496" cy="30.496" r="30.496"/>
    </clipPath>
    <linearGradient id="linear-gradient" x1="0.5" x2="0.5" y2="1" gradientUnits="objectBoundingBox">
      <stop offset="0" stop-color="#ffd58a"/>
      <stop offset="1" stop-color="#fa8974"/>
    </linearGradient>
    <linearGradient id="linear-gradient-2" x1="0.5" x2="0.5" y2="1" gradientUnits="objectBoundingBox">
      <stop offset="0" stop-color="#ffd98b"/>
      <stop offset="1" stop-color="#fa8473"/>
    </linearGradient>
    <linearGradient id="linear-gradient-3" x1="1.936" y1="1.458" x2="64.037" y2="42.887" gradientUnits="objectBoundingBox">
      <stop offset="0" stop-color="#ddf4ff"/>
      <stop offset="1" stop-color="#afe6ff"/>
    </linearGradient>
    <linearGradient id="linear-gradient-4" x1="-3.845" y1="-2.399" x2="58.266" y2="39.037" xlink:href="#linear-gradient-3"/>
    <linearGradient id="linear-gradient-5" x1="-4.867" y1="-3.08" x2="33.257" y2="22.353" xlink:href="#linear-gradient-3"/>
    <linearGradient id="linear-gradient-6" x1="-20.549" y1="-13.546" x2="54.021" y2="36.214" gradientUnits="objectBoundingBox">
      <stop offset="0" stop-color="#ddf4ff"/>
      <stop offset="1" stop-color="#d9ffff"/>
    </linearGradient>
    <linearGradient id="linear-gradient-7" x1="0" y1="0.5" x2="1" y2="0.5" xlink:href="#linear-gradient-3"/>
    <linearGradient id="linear-gradient-8" x1="0" y1="0.5" x2="1" y2="0.5" xlink:href="#linear-gradient-3"/>
    <linearGradient id="linear-gradient-9" x1="-103.506" y1="-68.884" x2="28.934" y2="19.468" xlink:href="#linear-gradient-3"/>
    <linearGradient id="linear-gradient-10" x1="-33.431" y1="-22.136" x2="4.692" y2="3.297" xlink:href="#linear-gradient-3"/>
    <linearGradient id="linear-gradient-11" x1="-16.494" y1="-10.837" x2="69.157" y2="46.302" xlink:href="#linear-gradient-3"/>
    <linearGradient id="linear-gradient-12" x1="-16.494" y1="-10.837" x2="69.158" y2="46.303" xlink:href="#linear-gradient-6"/>
    <linearGradient id="linear-gradient-13" x1="-16.494" y1="-10.837" x2="69.158" y2="46.302" xlink:href="#linear-gradient-3"/>
    <linearGradient id="linear-gradient-14" x1="-16.498" y1="-10.84" x2="69.175" y2="46.314" xlink:href="#linear-gradient-6"/>
    <linearGradient id="linear-gradient-15" x1="-25.851" y1="-17.079" x2="12.274" y2="8.355" xlink:href="#linear-gradient-3"/>
    <linearGradient id="linear-gradient-16" x1="-33.383" y1="-22.104" x2="28.728" y2="19.331" xlink:href="#linear-gradient-3"/>
    <linearGradient id="linear-gradient-17" x1="-44.152" y1="-29.288" x2="17.959" y2="12.147" xlink:href="#linear-gradient-6"/>
    <linearGradient id="linear-gradient-18" x1="-23.161" y1="-15.285" x2="74.629" y2="49.953" xlink:href="#linear-gradient-3"/>
    <linearGradient id="linear-gradient-19" x1="0" y1="0.5" x2="1" y2="0.5" xlink:href="#linear-gradient-3"/>
    <linearGradient id="linear-gradient-20" x1="0.147" y1="0.147" x2="0.86" y2="0.86" xlink:href="#linear-gradient-3"/>
    <linearGradient id="linear-gradient-21" x1="0.02" y1="0.02" x2="1.195" y2="1.195" xlink:href="#linear-gradient-3"/>
  </defs>
  <g id="Group_20212" data-name="Group 20212" transform="translate(-349.729 -3775)">
    <g id="OBJECTS" transform="translate(206.433 3424.494)" style="mix-blend-mode: normal;isolation: isolate">
      <g id="Group_20201" data-name="Group 20201" transform="translate(165 415.694)">
        <g id="Group_20152" data-name="Group 20152" transform="translate(16.361 40.445)">
          <path id="Path_10735" data-name="Path 10735" d="M1432.7,900.322l-.674-.415c38.382-62.423,58.385-118.823,59.451-167.633,1.1-50.478-18.471-81.344-35.084-98.348a113.637,113.637,0,0,0-58.818-31.987c-20.6-4.027-40.761-1.469-55.313,7.02l-.4-.685c14.716-8.584,35.079-11.177,55.864-7.113a114.442,114.442,0,0,1,59.233,32.211c16.72,17.112,36.417,48.165,35.309,98.919C1491.205,781.245,1471.162,837.78,1432.7,900.322Z" transform="translate(-985.342 -581.557)" fill="#017ced"/>
          <path id="Path_10736" data-name="Path 10736" d="M720.711,640.9c-17.925-38.833-52.746-69.185-96.058-74.462-34.556-4.21-69.309-4.773-104.015-6.89-36.63-2.235-72.492-9.032-108.689-14.987-23.235-3.823-43.591,1.823-66.119,10-30.774,11.163-60.511,47.207-73.931,76.043-32.33,69.473-14.473,156.861,14.017,224.561,1.4,3.317,11.017,29.707,13.9,29.707H676.632c22.732-33.339,41.363-70.006,51.707-107.866C740.631,732.02,740.5,683.777,720.711,640.9Z" transform="translate(-242.581 -543.343)" fill="#d2e0f3" opacity="0.4"/>
          <path id="Path_10737" data-name="Path 10737" d="M236.337,803.763c-14.8-46.136-21.31-86.255-19.362-119.241,1.619-27.435,9.089-50.222,22.2-67.727,30.04-40.107,80.216-39.314,80.722-39.3l-.02.792c-.487-.015-50.285-.789-80.074,38.992-13.014,17.379-20.428,40.021-22.037,67.3-1.94,32.887,4.562,72.906,19.326,118.945Z" transform="translate(-216.638 -566.671)" fill="#017ded"/>
        </g>
        <g id="Group_20164" data-name="Group 20164" transform="translate(117.628)">
          <g id="Group_20153" data-name="Group 20153">
            <path id="Path_10738" data-name="Path 10738" d="M817.648,699.476H547.255a9.76,9.76,0,0,1-9.76-9.76V426.7a9.76,9.76,0,0,1,9.76-9.76H817.648a9.761,9.761,0,0,1,9.76,9.76V689.717A9.758,9.758,0,0,1,817.648,699.476Z" transform="translate(-537.099 -416.547)" fill="#fff"/>
            <path id="Path_10739" data-name="Path 10739" d="M816.795,699.019H546.4a10.168,10.168,0,0,1-10.156-10.157V425.85A10.168,10.168,0,0,1,546.4,415.694H816.795a10.168,10.168,0,0,1,10.157,10.156V688.863A10.166,10.166,0,0,1,816.795,699.019ZM546.4,416.486a9.375,9.375,0,0,0-9.364,9.364V688.863a9.375,9.375,0,0,0,9.364,9.365H816.8a9.376,9.376,0,0,0,9.365-9.365V425.85a9.375,9.375,0,0,0-9.365-9.364H546.4Z" transform="translate(-536.246 -415.694)" fill="#cbcbff"/>
          </g>
          <g id="Group_20154" data-name="Group 20154" transform="translate(175.851 33.313)">
            <rect id="Rectangle_9053" data-name="Rectangle 9053" width="61.785" height="4.508" transform="translate(0)" fill="#06b2ff"/>
            <rect id="Rectangle_9054" data-name="Rectangle 9054" width="98.442" height="4.508" transform="translate(0 19.407)" fill="#99d2ec"/>
            <rect id="Rectangle_9055" data-name="Rectangle 9055" width="88.663" height="4.508" transform="translate(0 32.741)" fill="#99d2ec"/>
            <rect id="Rectangle_9056" data-name="Rectangle 9056" width="78.481" height="4.508" transform="translate(0 46.075)" fill="#99d2ec"/>
            <rect id="Rectangle_9057" data-name="Rectangle 9057" width="98.442" height="4.508" transform="translate(0 59.409)" fill="#99d2ec"/>
            <rect id="Rectangle_9058" data-name="Rectangle 9058" width="72.666" height="4.508" transform="translate(0 72.743)" fill="#99d2ec"/>
          </g>
          <g id="Group_20155" data-name="Group 20155" transform="translate(21.296 179.194)">
            <rect id="Rectangle_9059" data-name="Rectangle 9059" width="94.48" height="4.508" fill="#99d2ec"/>
            <rect id="Rectangle_9060" data-name="Rectangle 9060" width="244.29" height="4.508" transform="translate(0.271 12.278)" fill="#99d2ec"/>
          </g>
          <g id="Group_20158" data-name="Group 20158" transform="translate(21.296 33.313)">
            <rect id="Rectangle_9061" data-name="Rectangle 9061" width="113.776" height="120.41" fill="#d2f1ff"/>
            <g id="Group_20156" data-name="Group 20156" transform="translate(10.289 25.876)">
              <rect id="Rectangle_9062" data-name="Rectangle 9062" width="7.91" height="27.692" transform="translate(0 53.665)" fill="#71c5eb"/>
              <rect id="Rectangle_9063" data-name="Rectangle 9063" width="7.91" height="23.788" transform="translate(14.215 57.568)" fill="#c4ebfc"/>
              <rect id="Rectangle_9064" data-name="Rectangle 9064" width="7.91" height="38.875" transform="translate(28.429 42.481)" fill="#71c5eb"/>
              <rect id="Rectangle_9065" data-name="Rectangle 9065" width="7.91" height="36.091" transform="translate(42.644 45.265)" fill="#c4ebfc"/>
              <rect id="Rectangle_9066" data-name="Rectangle 9066" width="7.91" height="48.549" transform="translate(56.859 32.807)" fill="#71c5eb"/>
              <rect id="Rectangle_9067" data-name="Rectangle 9067" width="7.91" height="55.28" transform="translate(71.073 26.077)" fill="#c4ebfc"/>
              <rect id="Rectangle_9068" data-name="Rectangle 9068" width="7.91" height="61.281" transform="translate(85.288 20.076)" fill="#71c5eb"/>
              <path id="Path_10740" data-name="Path 10740" d="M657.174,640.982l-14.939-5.975.285-.713,14.515,5.806,14.79-12.24,13.8.321,41.587-25.68.4.654-41.78,25.8-13.737-.319Z" transform="translate(-640.386 -602.5)" fill="#06b2ff"/>
            </g>
            <g id="Group_20157" data-name="Group 20157" transform="translate(8.848 23.855)">
              <rect id="Rectangle_9069" data-name="Rectangle 9069" width="16.23" height="6.747" fill="#06b2ff"/>
              <rect id="Rectangle_9070" data-name="Rectangle 9070" width="15.182" height="0.792" transform="translate(21.593 3.869)" fill="#06b2ff"/>
            </g>
          </g>
          <g id="Group_20160" data-name="Group 20160" transform="translate(178.254 126.516)">
            <circle id="Ellipse_271" data-name="Ellipse 271" cx="17.719" cy="17.719" r="17.719" transform="translate(50.487 0.002)" fill="#fff"/>
            <g id="Group_20159" data-name="Group 20159">
              <path id="Path_10741" data-name="Path 10741" d="M1116.551,850.433a17.723,17.723,0,0,1-2.741-35.232,18.069,18.069,0,0,1,2.742-.208,17.72,17.72,0,0,1,0,35.439Z" transform="translate(-1098.835 -814.994)" fill="#fff"/>
              <path id="Path_10742" data-name="Path 10742" d="M1148.839,832.717,1146.1,815.2a18.069,18.069,0,0,1,2.742-.208,17.643,17.643,0,0,1,13.188,5.9Z" transform="translate(-1131.122 -814.994)" fill="#06b2ff"/>
            </g>
          </g>
          <g id="Group_20163" data-name="Group 20163" transform="translate(23.375 212.852)">
            <g id="Group_20161" data-name="Group 20161">
              <rect id="Rectangle_9071" data-name="Rectangle 9071" width="243.142" height="46.735" fill="#fff"/>
            </g>
            <g id="Group_20162" data-name="Group 20162" transform="translate(0.118 0.106)">
              <path id="Path_10743" data-name="Path 10743" d="M854.122,1135.144H610.392v-47.329H854.121v47.329Zm-243.135-.6H853.527v-46.141H610.986Z" transform="translate(-610.392 -1087.815)" fill="#99d2ec"/>
              <rect id="Rectangle_9072" data-name="Rectangle 9072" width="243.135" height="0.594" transform="translate(0.297 37.386)" fill="#99d2ec"/>
              <rect id="Rectangle_9073" data-name="Rectangle 9073" width="243.135" height="0.594" transform="translate(0.297 28.039)" fill="#99d2ec"/>
              <rect id="Rectangle_9074" data-name="Rectangle 9074" width="243.135" height="0.594" transform="translate(0.297 18.692)" fill="#99d2ec"/>
              <rect id="Rectangle_9075" data-name="Rectangle 9075" width="243.135" height="0.594" transform="translate(0.297 9.345)" fill="#99d2ec"/>
              <rect id="Rectangle_9076" data-name="Rectangle 9076" width="0.594" height="46.735" transform="translate(202.613 0.296)" fill="#99d2ec"/>
              <rect id="Rectangle_9077" data-name="Rectangle 9077" width="0.594" height="46.735" transform="translate(162.091 0.296)" fill="#99d2ec"/>
              <rect id="Rectangle_9078" data-name="Rectangle 9078" width="0.594" height="46.735" transform="translate(121.568 0.296)" fill="#99d2ec"/>
              <rect id="Rectangle_9079" data-name="Rectangle 9079" width="0.594" height="46.735" transform="translate(81.045 0.296)" fill="#99d2ec"/>
              <rect id="Rectangle_9080" data-name="Rectangle 9080" width="0.594" height="46.735" transform="translate(40.522 0.296)" fill="#99d2ec"/>
            </g>
            <path id="Path_10744" data-name="Path 10744" d="M630.774,1143.763c3.535-4.925,4.3-11.265,7.456-16.45,1.541-2.53,3.58-5.039,6.4-6.17,4.864-1.95,6.1,4.327,6.208,7.813.152,5.128-.7,10.692,3.537,14.542a5.61,5.61,0,0,0,5.193,1.542c2.288-.607,3.712-2.7,4.844-4.629,3.242-5.513,5.3-11.831,7.554-17.793,1.138-3.012,2.584-6.87,5.565-8.558,4.247-2.406,4.712,2.917,4.7,5.722-.011,3.074.021,6.147.048,9.221.013,1.478-.291,4.56,1.445,5.383,1.022.485,1.832-.441,2.4-1.184.5-.646.845-1.4,1.342-2.045a2.2,2.2,0,0,1,1.73-1.041c.776-.064,1.147-.073,1.674.642a4.284,4.284,0,0,1,.553,1.426c.611,2.306-.016,4.918,1.29,7.049.727,1.186,2.291,2.369,3.762,2.136,2.968-.469,3.722-5.305,4.078-7.631a76.179,76.179,0,0,1,1.779-9.24c.863-3.057,1.982-6.71,4.307-9a4.5,4.5,0,0,1,3.413-1.592c1.912.214,2.511,2.373,2.979,3.921a37.425,37.425,0,0,1,1.684,10.8c0,2.524-.736,5.682.946,7.866a3.849,3.849,0,0,0,3.9,1.479c2.141-.533,2.658-2.612,3.093-4.5a7.878,7.878,0,0,1,.293-1.122c.417-1.062.583-1.186,1.73-1.233,1.262-.052,1.311.244,1.514,1.29a29.9,29.9,0,0,0,.416,3.16c.4,1.318,1.327,2.531,2.853,2.076,1.408-.42,2.161-1.926,2.626-3.2,1.337-3.657,1.213-7.707,1.412-11.535a18.811,18.811,0,0,1,1.507-7.56c.762-1.5,3.012-3.922,4.751-2.343,2.264,2.056,2.043,7.066,2.094,9.832.111,5.934-.885,11.892-.055,17.807.31,2.211.938,5.514,3.392,6.351,3.4,1.158,5.9-2.542,6.806-5.249.718-2.152.882-4.405,1.393-6.6.269-1.155.68-3.265,2.257-2.606,1.359.568,1.921,2.492,3.116,3.361,3.861,2.809,6.225-2.669,6.679-5.635.664-4.334-.02-9.108,1.6-13.255a5.863,5.863,0,0,1,2.017-2.795c2.359-1.553,4.682.6,5.393,2.792a18.328,18.328,0,0,1,.469,5.265c.034,1.877.084,3.754.119,5.631.058,3.1-.221,6.267-.022,9.357a6.529,6.529,0,0,0,2.807,5.316c4.659,3.044,10.105-1.7,13.078-5.036a40.058,40.058,0,0,0,7.4-13.006,35.551,35.551,0,0,1,3.15-6.979c.759-1.182,2.868-4.015,4.6-3.233,1.127.51,1.5,2.549,1.744,3.6a37.562,37.562,0,0,1,.753,5.4c.28,3.446.3,6.9.363,10.355.053,2.924.3,7.336,3.552,8.521,5.076,1.849,7.5-5.421,8.9-8.779,1.164-2.781,2.583-6.554,5.29-8.208,2.3-1.406,3.9.762,4.756,2.692a15.291,15.291,0,0,1,1.263,5.923c.018,1.409-.092,3.175,1.451,3.855,3.369,1.485,6.437-4.088,7.746-6.283,1.194-2,2.1-4.1,3.1-6.2,1.257-2.639,5.374-7.683,7.085-2.627a15.342,15.342,0,0,1,.292,5.94c-.144,2.237-.3,4.479-.233,6.722.081,2.591.551,8.242,4.46,7.642,2.368-.364,4.808-2.973,6.583-4.452a86.425,86.425,0,0,0,7.381-6.954c.35-.37-.208-.931-.56-.56a86.5,86.5,0,0,1-7.381,6.954,53.831,53.831,0,0,1-4.314,3.352c-1.957,1.318-3.872.721-4.653-1.3-1.533-3.962-.6-8.864-.394-12.988.122-2.452-.185-8.064-3.942-7.383-2.25.408-3.8,2.835-4.744,4.707-1.066,2.123-1.939,4.308-3.139,6.365-1.19,2.041-2.561,4.47-4.544,5.841-1.5,1.034-3.247.544-3.414-1.464-.076-.917.022-1.829-.086-2.75-.312-2.659-1.323-7.052-4.2-8.128-4-1.494-6.906,5.229-8.043,7.86-1.164,2.694-2.066,6.144-4.218,8.246-1.517,1.482-3.979,2-5.531.282-1.135-1.253-1.42-3.229-1.579-4.841-.617-6.261.317-12.73-1.47-18.868-.515-1.77-1.5-3.957-3.687-3.182-3.673,1.3-5.345,6.072-6.6,9.359-2,5.256-4.217,10.287-8.115,14.465-2.249,2.411-5.509,5.391-9.028,5.319-4.62-.093-5.2-4.7-5.063-8.236.13-3.455-.006-6.92-.081-10.374-.061-2.784.314-6.1-1.06-8.648a4.658,4.658,0,0,0-4.648-2.575c-1.627.288-2.836,1.821-3.493,3.23-1.768,3.791-1.3,8.365-1.7,12.422-.228,2.317-.64,6.292-3.352,7.1-3.411,1.014-3.52-4.114-6.39-4.211-3.043-.1-3.068,7.2-3.594,9.126-.649,2.372-1.884,5.2-4.585,5.717-1.671.318-2.784-.733-3.433-2.17-1.476-3.267-1.294-7.384-1.2-10.884.068-2.614.3-5.221.348-7.836.049-2.819.61-14.928-4.767-13.629-3.72.9-4.672,5.7-5,8.884-.441,4.241-.068,8.585-1.278,12.727a6,6,0,0,1-1.633,3.052c-.939.763-2.059.111-2.521-.871a6.6,6.6,0,0,1-.36-2.215c-.1-1.206-.256-3-1.6-3.506-1.553-.585-2.826,1-3.294,2.277-.579,1.58-.39,3.657-1.995,4.7a3.015,3.015,0,0,1-4.277-1.495c-.809-1.62-.517-3.592-.438-5.335a33.094,33.094,0,0,0-.2-5.3,31.643,31.643,0,0,0-2.129-9.015c-1.691-3.809-5.46-2.8-7.7-.06-3.807,4.645-4.765,11.707-5.59,17.438a18.246,18.246,0,0,1-1.437,5.427c-.421.861-1.026,1.881-2.052,2.055-1.715.291-3.135-1.687-3.511-3.093-.612-2.286-.034-10.394-4.794-7.9-1.477.772-1.619,2.617-2.879,3.545-1.97,1.45-2.091-1.755-2.1-3-.021-1.861-.032-3.722-.048-5.583a67.77,67.77,0,0,0-.136-7.581c-.195-1.587-.679-3.437-2.318-4.091-4.436-1.771-7.745,5.388-8.935,8.389-2.524,6.365-4.546,13.168-8.1,19.056-1.949,3.233-5.274,5.655-8.614,2.629-2.386-2.162-3.265-5.339-3.327-8.451-.081-4.045,1.13-12.221-3.718-14.324-4.225-1.832-8.7,4-10.49,6.993-3.053,5.121-3.843,11.375-7.312,16.208-.3.415.388.811.683.4Z" transform="translate(-623.681 -1104.027)" fill="#99d2ec"/>
          </g>
        </g>
        <g id="Group_20166" data-name="Group 20166" transform="translate(320.285 323.754)">
          <g id="Group_20165" data-name="Group 20165">
            <path id="Path_10745" data-name="Path 10745" d="M1239.867,1518.351h-59.852a4.158,4.158,0,0,1-4.158-4.158v-39.409a4.158,4.158,0,0,1,4.158-4.158h59.852a4.158,4.158,0,0,1,4.158,4.158v39.409A4.155,4.155,0,0,1,1239.867,1518.351Z" transform="translate(-1175.857 -1460.129)" fill="#000070"/>
            <rect id="Rectangle_9081" data-name="Rectangle 9081" width="65.162" height="0.755" transform="translate(1.503 31.175)" fill="#abd2fb"/>
            <path id="Path_10746" data-name="Path 10746" d="M1271.631,1542.811a5.478,5.478,0,0,1-5.472-5.472v-1.447H1277.1v1.447A5.477,5.477,0,0,1,1271.631,1542.811Zm-4.715-6.166v.692a4.717,4.717,0,0,0,9.434,0v-.692Z" transform="translate(-1237.547 -1504.715)" fill="#abd2fb"/>
            <path id="Path_10747" data-name="Path 10747" d="M1268.529,1450.432h-.755v-9.789a2.393,2.393,0,0,0-2.391-2.39h-19.5a2.393,2.393,0,0,0-2.39,2.39v9.789h-.755v-9.789a3.149,3.149,0,0,1,3.145-3.145h19.5a3.149,3.149,0,0,1,3.146,3.145v9.789Z" transform="translate(-1221.549 -1437.497)" fill="#abd2fb"/>
            <rect id="Rectangle_9082" data-name="Rectangle 9082" width="3.68" height="3.962" transform="translate(19.75 10.498)" fill="#abd2fb"/>
          </g>
          <rect id="Rectangle_9083" data-name="Rectangle 9083" width="3.68" height="3.962" transform="translate(44.749 10.498)" fill="#abd2fb"/>
        </g>
        <g id="Group_20167" data-name="Group 20167" transform="translate(142.432 338.608)">
          <path id="Path_10838" data-name="Path 10838" d="M0,0H48.588V40.5H0Z" transform="translate(3.578 2.867)" fill="#000070"/>
          <path id="Path_10839" data-name="Path 10839" d="M0,0H55.745V8.506H0Z" fill="#3535aa"/>
          <path id="Path_10748" data-name="Path 10748" d="M674.413,1545.813H625.825v-34.987S645.5,1540.4,674.413,1545.813Z" transform="translate(-622.247 -1502.446)" fill="#3535aa" opacity="0.6"/>
        </g>
        <g id="Group_20175" data-name="Group 20175" transform="translate(433.865 35.456)">
          <g id="Group_20168" data-name="Group 20168">
            <path id="Path_10749" data-name="Path 10749" d="M1565.705,528.847a30.127,30.127,0,0,0-16.9,55.066l-1.156,13.879,11.307-9.462a30.125,30.125,0,1,0,6.75-59.483Z" transform="translate(-1535.182 -528.451)" fill="#05eff7"/>
            <path id="Path_10750" data-name="Path 10750" d="M1546.317,597.849l1.216-14.594a30.6,30.6,0,1,1,10.669,4.65Zm18.532-69.461a29.731,29.731,0,0,0-16.679,54.342l.191.13-1.1,13.164L1558,587.045l.192.044a29.729,29.729,0,1,0,6.662-58.7Z" transform="translate(-1534.326 -527.596)" fill="#06b2ff"/>
          </g>
          <g id="Group_20174" data-name="Group 20174" transform="translate(16.727 10.146)">
            <g id="Group_20172" data-name="Group 20172" transform="translate(6.78 12.627)">
              <g id="Group_20169" data-name="Group 20169" transform="translate(2.789 13.691)">
                <rect id="Rectangle_9086" data-name="Rectangle 9086" width="8.958" height="9.296" transform="translate(0.396 0.396)" fill="#038dfb"/>
                <path id="Path_10751" data-name="Path 10751" d="M1627.069,652.769h-9.75V642.681h9.75Zm-8.957-.792h8.165v-8.5h-8.165Z" transform="translate(-1617.319 -642.681)" fill="#06b2ff"/>
              </g>
              <g id="Group_20170" data-name="Group 20170">
                <path id="Path_10752" data-name="Path 10752" d="M1624.3,607.989a7.268,7.268,0,1,0-13.57,3.615,12.828,12.828,0,0,1,1.823,6.395v1.653h8.958v-1.718a12.566,12.566,0,0,1,1.809-6.305A7.19,7.19,0,0,0,1624.3,607.989Z" transform="translate(-1609.369 -600.325)" fill="#038dfb"/>
                <path id="Path_10753" data-name="Path 10753" d="M1621.055,619.193h-9.75v-2.048a12.343,12.343,0,0,0-1.77-6.2,7.639,7.639,0,0,1-1.019-3.909,7.762,7.762,0,0,1,7.3-7.56,7.66,7.66,0,0,1,6.991,11.494,12.085,12.085,0,0,0-1.755,6.106Zm-8.957-.792h8.166v-1.322a12.859,12.859,0,0,1,1.863-6.5,6.87,6.87,0,0,0-6.27-10.3,6.959,6.959,0,0,0-6.547,6.778,6.86,6.86,0,0,0,.912,3.5,13.113,13.113,0,0,1,1.877,6.593V618.4Z" transform="translate(-1608.516 -599.47)" fill="#06b2ff"/>
              </g>
              <g id="Group_20171" data-name="Group 20171" transform="translate(3.03 4.009)">
                <path id="Path_10754" data-name="Path 10754" d="M1621.9,615.778a1.387,1.387,0,1,1-.071-2.217A1.6,1.6,0,0,1,1621.9,615.778Z" transform="translate(-1618.928 -612.976)" fill="#fff"/>
                <path id="Path_10755" data-name="Path 10755" d="M1619.569,616.2a1.455,1.455,0,0,1-.848-.262,1.566,1.566,0,0,1-.64-1.277,2.608,2.608,0,0,1,1.714-2.444,1.506,1.506,0,0,1,2.06,1.445,2.493,2.493,0,0,1-.474,1.491h0a2.494,2.494,0,0,1-1.241.953A1.859,1.859,0,0,1,1619.569,616.2Zm.792-3.285a1.031,1.031,0,0,0-.322.055,1.821,1.821,0,0,0-1.168,1.665.72.72,0,0,0,1.022.717,1.7,1.7,0,0,0,.838-.654h0a1.723,1.723,0,0,0,.33-1.011.8.8,0,0,0-.3-.654A.687.687,0,0,0,1620.361,612.915Z" transform="translate(-1618.08 -612.124)" fill="#06b2ff"/>
              </g>
            </g>
            <g id="Group_20173" data-name="Group 20173" transform="translate(0 0)">
              <rect id="Rectangle_9087" data-name="Rectangle 9087" width="0.792" height="5.761" transform="translate(0 8.156) rotate(-51.553)" fill="#06b2ff"/>
              <rect id="Rectangle_9088" data-name="Rectangle 9088" width="0.792" height="7.735" transform="matrix(0.999, -0.032, 0.032, 0.999, 13.378, 0.025)" fill="#06b2ff"/>
              <rect id="Rectangle_9089" data-name="Rectangle 9089" width="6.52" height="0.792" transform="translate(22.803 10.525) rotate(-44.21)" fill="#06b2ff"/>
            </g>
          </g>
        </g>
        <g id="Group_20177" data-name="Group 20177" transform="translate(33.005 47.022)">
          <g id="Group_20176" data-name="Group 20176">
            <path id="Path_10756" data-name="Path 10756" d="M323.39,591.838A26.486,26.486,0,1,0,303.847,617.4l9.195,7.693-.963-11.552A26.449,26.449,0,0,0,323.39,591.838Z" transform="translate(-270.02 -564.955)" fill="#05eff7"/>
            <path id="Path_10757" data-name="Path 10757" d="M312.661,625.151l-9.764-8.17a26.908,26.908,0,1,1,8.741-4.1Zm-9.572-9.042,8.625,7.217-.9-10.832.186-.131a26.031,26.031,0,1,0-8.108,3.8Z" transform="translate(-269.166 -564.101)" fill="#06b2ff"/>
          </g>
          <path id="Path_10758" data-name="Path 10758" d="M336.718,633.963l-7.51-7.51.56-.56,6.691,6.691,7.755-17.665.726.319Z" transform="translate(-310.184 -598.818)" fill="#06b2ff"/>
        </g>
        <g id="Group_20182" data-name="Group 20182" transform="translate(114.754 48.757)">
          <g id="Group_20178" data-name="Group 20178" transform="translate(0 50.387)">
            <path id="Path_10759" data-name="Path 10759" d="M616.373,738.082l-7.1,4.159L533.745,786.5c-2.324,1.362-5.044,1.041-6.122-.725l0-.005c-1.078-1.766-.121-4.332,2.152-5.777l73.72-46.875,7.094-4.51Z" transform="translate(-527.177 -728.604)" fill="#06b2ff"/>
            <path id="Path_10760" data-name="Path 10760" d="M780.917,738.083l-7.1,4.159a22.418,22.418,0,0,1-3.632-4.519,22.777,22.777,0,0,1-2.145-4.608l7.094-4.51Z" transform="translate(-691.721 -728.605)" fill="#1b1b43" opacity="0.6"/>
          </g>
          <path id="Path_10761" data-name="Path 10761" d="M769.4,756.506a2.376,2.376,0,1,1,.79-3.266A2.376,2.376,0,0,1,769.4,756.506Z" transform="translate(-690.183 -694.27)" fill="#fff"/>
          <path id="Path_10836" data-name="Path 10836" d="M37.6,0A37.6,37.6,0,1,1,0,37.6,37.6,37.6,0,0,1,37.6,0Z" transform="translate(77.413)" fill="#06b2ff"/>
          <g id="Group_20181" data-name="Group 20181" transform="translate(84.514 7.1)">
            <circle id="Ellipse_273" data-name="Ellipse 273" cx="30.496" cy="30.496" r="30.496" fill="#fff"/>
            <g id="Group_20179" data-name="Group 20179" clip-path="url(#clip-path)">
              <rect id="Rectangle_9090" data-name="Rectangle 9090" width="9.559" height="58.669" transform="translate(8.539 40.804)" fill="#71c5eb"/>
              <rect id="Rectangle_9091" data-name="Rectangle 9091" width="9.559" height="66.803" transform="translate(25.717 33.067)" fill="#c0eafc"/>
              <path id="Path_10837" data-name="Path 10837" d="M0,0H9.559V74.055H0Z" transform="translate(42.895 24.758)" fill="#71c5eb"/>
            </g>
            <g id="Group_20180" data-name="Group 20180" clip-path="url(#clip-path)">
              <rect id="Rectangle_9093" data-name="Rectangle 9093" width="45.987" height="1.188" transform="matrix(0.952, -0.305, 0.305, 0.952, -2.009, 27.564)" fill="#06b2ff"/>
              <path id="Path_10762" data-name="Path 10762" d="M912.278,636.926l-.968-.689,2.885-4.05-4.178-1.43.385-1.124,4.612,1.579a.814.814,0,0,1,.542.55.831.831,0,0,1-.163.785Zm2.347-4.592a.316.316,0,0,0,.038.013Zm-.167-.516a.137.137,0,0,0-.017.025Z" transform="translate(-873.23 -617.705)" fill="#06b2ff"/>
            </g>
          </g>
        </g>
        <g id="Group_20189" data-name="Group 20189" transform="translate(61.05 83.018)">
          <g id="Group_20185" data-name="Group 20185" transform="translate(0 99.344)">
            <g id="Group_20183" data-name="Group 20183" transform="translate(77.345 169.116)">
              <path id="Path_10763" data-name="Path 10763" d="M618.055,1539.746c-4.784.071-11.644.182-16.08.246.047-2.147.127-4.285.222-6.242.214-4.88.491-8.65.491-8.65l13.711-.1s-.063,1.362,0,3.406A43.707,43.707,0,0,0,618.055,1539.746Z" transform="translate(-601.917 -1525.003)" fill="#ffbc96"/>
              <path id="Path_10764" data-name="Path 10764" d="M623.24,1578.229c-2.63-.814-4.277-3.5-5.307-6.707-4.788.074-11.647.181-16.086.248a82.478,82.478,0,0,0,.41,12.991,2.565,2.565,0,0,0,2.527,2.145h23.564a3.314,3.314,0,0,0,3.379-3.516C631.487,1581.1,628.791,1579.946,623.24,1578.229Z" transform="translate(-601.79 -1556.782)" fill="#1b1b43"/>
              <path id="Path_10765" data-name="Path 10765" d="M616.878,1528.406l-14.2,5.339c.214-4.879.491-8.65.491-8.65l13.711-.1S616.814,1526.362,616.878,1528.406Z" transform="translate(-602.395 -1525)" fill="#d28572"/>
              <path id="Path_10766" data-name="Path 10766" d="M609.4,1605.5c-.5-2.387-1.5-4.047-2.971-4.935a5.639,5.639,0,0,0-4.058-.575l-.219-.761a6.331,6.331,0,0,1,4.676.653c1.67,1,2.8,2.839,3.347,5.456Z" transform="translate(-602.039 -1575.581)" fill="#656590"/>
            </g>
            <g id="Group_20184" data-name="Group 20184" transform="translate(0 161.781)">
              <path id="Path_10767" data-name="Path 10767" d="M389.93,1506.619a58.133,58.133,0,0,0-2.614,7.881,34.529,34.529,0,0,0-1.054,6.488c-4.507-1.624-10.955-3.953-15.137-5.466,1.941-4.768,4.016-9.442,5.133-11.9l.032-.063c.483-1.077.776-1.711.776-1.711Z" transform="translate(-366.865 -1501.85)" fill="#ffbc96"/>
              <path id="Path_10768" data-name="Path 10768" d="M379.668,1558.628c-2.172-1.693-2.761-4.788-2.59-8.151-4.5-1.625-10.957-3.953-15.133-5.462a82.507,82.507,0,0,0-4.214,12.295,2.565,2.565,0,0,0,1.6,2.9l22.039,8.34a3.314,3.314,0,0,0,4.4-2.093C386.363,1564.237,384.252,1562.2,379.668,1558.628Z" transform="translate(-357.681 -1531.338)" fill="#1b1b43"/>
              <path id="Path_10769" data-name="Path 10769" d="M400.058,1506.619a58.131,58.131,0,0,0-2.614,7.881l-11.494-9.672.436-1.2.032-.063c.483-1.077.776-1.711.776-1.711Z" transform="translate(-376.993 -1501.85)" fill="#d28572"/>
              <path id="Path_10770" data-name="Path 10770" d="M367.18,1576.037l-.7-.367a6.075,6.075,0,0,0-2.472-8.575l.367-.7C364.434,1566.424,370.493,1569.687,367.18,1576.037Z" transform="translate(-362.001 -1545.943)" fill="#656590"/>
            </g>
            <path id="Path_10771" data-name="Path 10771" d="M556.883,1163.139l-25.213,1.98-5.283-90.041-7.81-29.6-10.218-38.711-.531-2.02-2.464-9.331L505,994.022l4.824-.436,26.068-2.337,1.576,7.129v.008l15.613,70.6a38.492,38.492,0,0,1,.887,6.994Z" transform="translate(-458.323 -991.25)" fill="#000070"/>
            <path id="Path_10772" data-name="Path 10772" d="M430.917,1031.425l-2,20.033-3.248,32.429a45.454,45.454,0,0,1-2.479,10.939l-26.861,74.291L373.75,1160.4l20.991-76.043c5.41-31.3,4.515-55.329,5.909-70.569.087-.951.182-1.861.285-2.741.562-4.666,1.434-8.365,2.915-11.05l11.85,1.394,8.349.982,1.814,7.676.364,1.553Z" transform="translate(-368.659 -997.228)" fill="#000070"/>
            <path id="Path_10773" data-name="Path 10773" d="M505.8,998.379l.272,3.036s-35.381,9.505-47.426,6.4c.087-.95.182-1.861.285-2.741.562-4.665,1.434-8.365,2.915-11.05l11.85,1.394-.364-1.394,4.824-.436,26.068-2.337Z" transform="translate(-426.659 -991.25)" fill="#3d3d9f"/>
            <path id="Path_10774" data-name="Path 10774" d="M524.889,1148.135l-11.828-46.719-9.692-3.1.241-.754,10.111,3.235.054.212,11.882,46.934Z" transform="translate(-457.209 -1063.876)" fill="#1b1b43"/>
            <path id="Path_10775" data-name="Path 10775" d="M627.965,1252.334l-.279-.741a55.488,55.488,0,0,0,9.628-4.517l.43.666A55.065,55.065,0,0,1,627.965,1252.334Z" transform="translate(-542.136 -1166.019)" fill="#1b1b43"/>
            <path id="Path_10776" data-name="Path 10776" d="M507.246,1282.369a86.6,86.6,0,0,1-11.944-2.189l.2-.766a85.925,85.925,0,0,0,11.819,2.168Z" transform="translate(-451.698 -1188.11)" fill="#1b1b43"/>
            <rect id="Rectangle_9094" data-name="Rectangle 9094" width="0.793" height="24.476" transform="translate(6.921 157.074) rotate(-69.805)" fill="#1b1b43"/>
            <rect id="Rectangle_9095" data-name="Rectangle 9095" width="25.213" height="0.792" transform="translate(72.991 166.916) rotate(-4.031)" fill="#1b1b43"/>
          </g>
          <path id="Union_2" data-name="Union 2" d="M-1284.367-2814.779c-2.9-2.223,1.848-5.28,3.96-9.172.63-1.16.814-4.789.762-9.311l-3.414,1.255a10.724,10.724,0,0,1-10.63-1.88,10.724,10.724,0,0,1-2.965-12.318l8.994-21.523a12.6,12.6,0,0,1,6.9-6.789l10.714-4.313-.02.159.02-.034,8.383-2.5,10.546,2.837.02.018,0-.016,11.17,2.243a14.662,14.662,0,0,1,9.6,6.69l9.2,13.642,7.928-16.478,13.85,1.889c-6.108,32.649-17.187,37.611-25.54,34.59-3.614-1.307-7.378-4.286-10.63-7.442.716,10.392,1.61,20.7,2.378,21.507,1.584,1.668,6.337,5.28-.528,7.226a119.1,119.1,0,0,1-27.011,3.066C-1273.3-2811.435-1282.59-2813.419-1284.367-2814.779Z" transform="translate(1314.938 2923.651)" fill="url(#linear-gradient)"/>
          <g id="Group_20186" data-name="Group 20186" transform="translate(105.722 25.056)">
            <path id="Path_10778" data-name="Path 10778" d="M725.432,757c-2,.99-4.312,5.2-3.436,6.718.718,1.242,2.391-.439,2.942-1.015,1.013-1.059,3.629-3.887,2.185-5.494A1.311,1.311,0,0,0,725.432,757Z" transform="translate(-712.156 -756.786)" fill="#ffbc96"/>
            <path id="Path_10779" data-name="Path 10779" d="M713.551,761.26c-1.662,1.492-2.753,6.171-1.5,7.395,1.026,1,2.184-1.066,2.56-1.77.691-1.292,2.449-4.72.625-5.879A1.311,1.311,0,0,0,713.551,761.26Z" transform="translate(-705.122 -759.528)" fill="#ffbc96"/>
            <path id="Path_10780" data-name="Path 10780" d="M703.174,768.689c-1.679,1.441-2.861,5.868-1.647,6.992.995.921,2.187-1.051,2.575-1.721.713-1.231,2.529-4.5.748-5.546A1.37,1.37,0,0,0,703.174,768.689Z" transform="translate(-697.963 -764.606)" fill="#ffbc96"/>
            <path id="Path_10781" data-name="Path 10781" d="M693.5,772.145c-1.679,1.441-2.861,5.868-1.647,6.992.995.921,2.187-1.051,2.575-1.721.713-1.231,2.529-4.5.747-5.547A1.37,1.37,0,0,0,693.5,772.145Z" transform="translate(-691.353 -766.967)" fill="#ffbc96"/>
          </g>
          <path id="Path_10783" data-name="Path 10783" d="M515.577,816.569c-1.98,3.466-25.288,7.028-18.714-.462l6.733-1.419Z" transform="translate(-451.968 -771.286)" fill="#1b1b43" opacity="0.2"/>
          <g id="Group_20187" data-name="Group 20187" transform="translate(63.84 33.86)">
            <path id="Path_10785" data-name="Path 10785" d="M700.219,784.576c-1.4-.179-6.2,7.063-6.2,7.063l-7.766,2.644a11.2,11.2,0,0,0-6.483,5.747l-.993,2.063,13.85,1.889c.228-1.219.451-2.465.665-3.762C698.04,795.93,703.321,784.972,700.219,784.576Z" transform="translate(-640.876 -784.573)" fill="#ffbc96"/>
          </g>
          <g id="Group_20188" data-name="Group 20188" transform="translate(38.852)">
            <path id="Path_10786" data-name="Path 10786" d="M558.866,724.039l2.809,3.886a1.22,1.22,0,0,1-.617,1.865l-3,1.157-2.116-4.7Z" transform="translate(-531.978 -709.359)" fill="#d28572"/>
            <path id="Path_10787" data-name="Path 10787" d="M507.85,760.556a118.6,118.6,0,0,0,.42-14.306l12.8.927a38.265,38.265,0,0,0-.071,4.38,58.755,58.755,0,0,0,.713,6.994c.2,1.259.428,2.5.673,3.683Z" transform="translate(-499.122 -724.533)" fill="#ffbc96"/>
            <path id="Path_10788" data-name="Path 10788" d="M535.426,769.789a14.851,14.851,0,0,1-7.5-7.089l6.788.1A58.768,58.768,0,0,0,535.426,769.789Z" transform="translate(-512.836 -735.771)" fill="#d28572"/>
            <path id="Path_10789" data-name="Path 10789" d="M502.058,791.388l-2.683,8.8a46.883,46.883,0,0,0,18.945.462l-1.723-7.583Z" transform="translate(-493.332 -755.369)" fill="#fff5e8"/>
            <path id="Path_10790" data-name="Path 10790" d="M522.324,699.063l1.326,17.711a2.44,2.44,0,0,1-1,2.063,5.776,5.776,0,0,1-4.2,1.462l-9.07-.377-6.469-7.261,5.017-15.446,9.109-.132Z" transform="translate(-495.752 -690.943)" fill="#ffbc96"/>
            <path id="Path_10791" data-name="Path 10791" d="M491.99,696.356s2.376,7.426-2.674,11.189c-5.446-1.782-15.545-18.318-2.97-23.565,0,0,3.466-8.812,12.872-5.545,8.3,2.884,10.5,7.921,10.5,7.921a11.749,11.749,0,0,1-12.674.3S497.733,695.464,491.99,696.356Z" transform="translate(-480.304 -677.708)" fill="#1b1b43"/>
            <path id="Path_10792" data-name="Path 10792" d="M512.611,723.361a3.88,3.88,0,1,1-5.681-.89A4.076,4.076,0,0,1,512.611,723.361Z" transform="translate(-497.573 -707.746)" fill="#ffbc96"/>
            <path id="Path_10793" data-name="Path 10793" d="M515.377,733.26c-.032-.129-.823-3.148-2.949-2.687l-.125-.581c2.15-.466,3.331,1.84,3.651,3.123Z" transform="translate(-502.163 -713.385)" fill="#1b1b43"/>
            <circle id="Ellipse_276" data-name="Ellipse 276" cx="2.64" cy="2.64" r="2.64" transform="translate(18.771 21.192) rotate(-76.714)" fill="#fe5b52" opacity="0.4"/>
          </g>
          <path id="Path_10794" data-name="Path 10794" d="M454.04,926.374c-2.4-.573-3.763-1.464-4.156-2.727-.64-2.057,1.484-4.413,3.357-6.492.292-.324.575-.638.834-.937a4.6,4.6,0,0,0,1.032-2.052c1.737-8.235-1.142-33.874-1.171-34.133l.787-.089c.12,1.059,2.923,26.026,1.16,34.385a5.389,5.389,0,0,1-1.209,2.408c-.262.3-.548.62-.844.948-1.647,1.827-3.7,4.1-3.189,5.725.3.96,1.5,1.7,3.583,2.192Z" transform="translate(-420.591 -815.867)" fill="#1b1b43"/>
          <path id="Path_10795" data-name="Path 10795" d="M605.65,945.389l-.036-.791c2.706-.121,4.361-.766,4.786-1.868s-.353-2.766-2.143-4.541a3.426,3.426,0,0,1-.923-1.7c-1.424-6.4-2.94-27.563-2.955-27.776l.79-.056c.015.213,1.528,21.315,2.939,27.661a2.631,2.631,0,0,0,.708,1.305c2.054,2.037,2.879,3.95,2.324,5.389S608.738,945.253,605.65,945.389Z" transform="translate(-526.214 -835.485)" fill="#1b1b43"/>
          <path id="Path_10796" data-name="Path 10796" d="M647.714,858.959l-.712-.348,9.836-20.1,14.133,1.927-.107.785-13.567-1.85Z" transform="translate(-555.332 -787.561)" fill="#1b1b43"/>
        </g>
        <g id="Group_20200" data-name="Group 20200" transform="translate(318.053 90.304)">
          <path id="Path_10797" data-name="Path 10797" d="M1392.312,715.4c-4.687-2.838-5.743-10.957-1.386-13.4s7.129-.264,7.129-.264,14.613-5.33,20.133,8.251c4.159,10.232.858,15.578,4.489,20.727,4.137,5.867,10.76,11.156,2.113,21.453l-20.2-4.951-5.281-24.886Z" transform="translate(-1318.665 -700.705)" fill="#1b1b43"/>
          <g id="Group_20192" data-name="Group 20192" transform="translate(53.41 99.843)">
            <g id="Group_20190" data-name="Group 20190" transform="translate(74.123 142.951)">
              <path id="Path_10798" data-name="Path 10798" d="M1589.854,1466.99,1575,1473.523s2.134,5.514,3.96,11.929l15.272-4.879Z" transform="translate(-1573.835 -1466.99)" fill="#ffbc96"/>
              <path id="Path_10799" data-name="Path 10799" d="M1591.719,1509.86l-15.273,4.879c2.092,7.348,3.78,15.877,1.394,18.659-3.1,3.619-5.811,6.61-6.46,9.126a1.768,1.768,0,0,0,2.5,2.038l19.732-9.952a6.893,6.893,0,0,0,3.21-8.921Z" transform="translate(-1571.321 -1496.277)" fill="#1b1b43"/>
              <rect id="Rectangle_9096" data-name="Rectangle 9096" width="16.326" height="0.793" transform="translate(6.462 23.566) rotate(-17.373)" fill="#656590"/>
              <path id="Path_10800" data-name="Path 10800" d="M1582.406,1569.858l-.164-.775c3.782-.8,5.983-2.192,6.542-4.129.919-3.186-2.869-6.913-2.908-6.95l.552-.568c.17.165,4.166,4.1,3.116,7.738C1588.9,1567.415,1586.5,1568.99,1582.406,1569.858Z" transform="translate(-1578.782 -1528.779)" fill="#656590"/>
            </g>
            <g id="Group_20191" data-name="Group 20191" transform="translate(0 157.371)">
              <path id="Path_10801" data-name="Path 10801" d="M1403.649,1512.5l-17.162,1.584a87.842,87.842,0,0,1-.082,12.207l16.509-.243Z" transform="translate(-1370.872 -1512.5)" fill="#ffbc96"/>
              <path id="Path_10802" data-name="Path 10802" d="M1352.915,1555.506c-.467,5.413-1.7,10.844-4.671,12.084-6.337,2.64-11.354,4.489-10.826,8.185h24.363a6.894,6.894,0,0,0,6.883-6.52l.759-13.992Z" transform="translate(-1337.38 -1541.714)" fill="#1b1b43"/>
              <rect id="Rectangle_9097" data-name="Rectangle 9097" width="0.792" height="15.844" transform="translate(15.607 18.309) rotate(-89.049)" fill="#656590"/>
              <path id="Path_10803" data-name="Path 10803" d="M1362.463,1588.833a17.206,17.206,0,0,1-3.677-.467l.173-.773c3.472.777,5.833.537,6.821-.689,1.314-1.633-.026-4.569-.039-4.6l.718-.334c.065.139,1.558,3.417-.063,5.429C1365.631,1588.354,1364.313,1588.833,1362.463,1588.833Z" transform="translate(-1352.004 -1559.959)" fill="#656590"/>
            </g>
            <path id="Path_10804" data-name="Path 10804" d="M1381.651,1177.253a5.312,5.312,0,0,1-.57.159c-3.43.792-14.781,0-14.781,0a11.844,11.844,0,0,1-1.473-.42c-10.614-3.865-9.893-22.425-8.3-38.655,1.465-14.884-4.753-90.832-.46-116.639l26.869-5.877.158,4.523.325,9.236.57,16.341s1.014,15.81,2.4,35.621c2.075,29.7,4.99,68.415,6.575,76.336C1395.487,1170.482,1385.944,1176,1381.651,1177.253Z" transform="translate(-1349.095 -1015.82)" fill="#000070"/>
            <path id="Path_10805" data-name="Path 10805" d="M1477.765,1169.208a12.53,12.53,0,0,1-1.957,1.83c-3.612,2.78-8.484,3.8-12.761,4.959a16.037,16.037,0,0,1-2.337.452c-3.984.491-8.333-.42-10.194-3.8-9.537-17.379-20.286-51.875-28.8-82.7-6.226-22.5-11.256-43.059-13.759-53.539-1.1-4.634-1.711-7.3-1.711-7.3l12.175-.364,20.7-.626c.563,2.788,1.2,5.727,1.925,8.777,7.066,30.156,20.983,71.615,26.433,87.473,3.271,9.5,8.222,17.973,10.4,27.922C1479.032,1157.564,1481.725,1164.636,1477.765,1169.208Z" transform="translate(-1384.426 -1024.226)" fill="#000070"/>
            <path id="Path_10806" data-name="Path 10806" d="M1409.02,1028.494a93.852,93.852,0,0,1-22.3,1.085,75.419,75.419,0,0,1-10.788-1.576c-10.844-2.392-16.563-6.305-16.563-6.305l26.869-5.877.159,4.523,20.7-.626C1407.66,1022.509,1408.3,1025.446,1409.02,1028.494Z" transform="translate(-1352.403 -1015.82)" fill="#1b1b43" opacity="0.6"/>
            <path id="Path_10807" data-name="Path 10807" d="M1417.629,1152.023l-8.285-29.349-8.523-3.1.272-.741,8.9,3.235.054.2,8.343,29.546Z" transform="translate(-1380.72 -1086.192)" fill="#1b1b43"/>
            <path id="Path_10808" data-name="Path 10808" d="M1525.165,1173.968l-.687-.4c4-6.942-4.016-28.333-14.162-55.417-9.852-26.3-22.113-59.026-26.548-88.227l.783-.119c4.422,29.119,16.667,61.8,26.506,88.068C1521.277,1145.157,1529.347,1166.7,1525.165,1173.968Z" transform="translate(-1437.386 -1025.377)" fill="#1b1b43"/>
          </g>
          <g id="Group_20196" data-name="Group 20196" transform="translate(0 36.539)">
            <path id="Path_10809" data-name="Path 10809" d="M1338.661,932.577c-.958,6.693-2.392,15.438-2.392,15.438h-15.644l3.81-20.936.943-5.2s13.466,3.168,14.06,3.168C1339.666,925.044,1339.257,928.418,1338.661,932.577Z" transform="translate(-1272.524 -888.337)" fill="#ffbc96"/>
            <path id="Path_10810" data-name="Path 10810" d="M1346.876,932.577l-.713,1.576-13.513-7.074.943-5.2s13.466,3.168,14.06,3.168C1347.881,925.044,1347.472,928.418,1346.876,932.577Z" transform="translate(-1280.739 -888.337)" fill="#d28572"/>
            <path id="Union_1" data-name="Union 1" d="M-1542.01-2858.728c4.951-14.654,2.377-29.7,2.377-29.7l0-.006v.006l-14.852-2.839,5.135-22.289a13.44,13.44,0,0,1,9.914-10.039l4.6-1.121c2.838,3.85,7.987,8.563,16.2,8.563,6.981,0,11.764-4.975,14.445-8.877l6.656,2.01a14.826,14.826,0,0,1,9.706,9.3l6.751,19.289c-7.355-4.991-18.431-.183-18.547-.133h0l5.347,33.862a68.722,68.722,0,0,1-26.025,4.807A81.72,81.72,0,0,1-1542.01-2858.728Z" transform="translate(1602.39 2927.91)" fill="url(#linear-gradient-2)"/>
            <path id="Path_10813" data-name="Path 10813" d="M1519.888,828.771c-2.139,4.182-5.014,22.314-6.337,36.437a23.083,23.083,0,0,1-3.588,10.971c-2.693,3.945-6.511,5.735-10.218,5.339a10.087,10.087,0,0,1-4.151-1.394c-6.376-3.778-5.561-19.922-4.848-27.185.222-2.186.428-3.572.428-3.572,3.763-2.075,9.7-2.376,9.7-2.376.079-.816.174-1.64.269-2.487.808-7.3,2.036-15.573,3.1-21.078,1.188-6.139,3.565-3.858,3.565-3.858,1.188-2.186,2.97-.3,2.97-.3,1.584-3.469,3.564-.2,3.564-.2,2.471-3.565,3.826,1.782,3.826,1.782s7.676-6.321,8.982-4.491C1527.809,817.285,1522.92,822.83,1519.888,828.771Z" transform="translate(-1388.417 -816.026)" fill="#ffbc96"/>
            <g id="Group_20193" data-name="Group 20193" transform="translate(0 26.176)">
              <rect id="Rectangle_9098" data-name="Rectangle 9098" width="33.269" height="3.994" transform="translate(37.409 29.507)" fill="#fff"/>
              <path id="Path_10814" data-name="Path 10814" d="M1220.467,932.179h-34.316a4.228,4.228,0,0,1-3.84-2.459l-13.363-29.014a1.456,1.456,0,0,1,1.322-2.065h32.186a4.005,4.005,0,0,1,3.638,2.329Z" transform="translate(-1168.812 -898.641)" fill="#06b2ff"/>
            </g>
            <path id="Path_10815" data-name="Path 10815" d="M1287.758,994.8a16.826,16.826,0,0,1-1.743,4.269,11.862,11.862,0,0,1-9.323,5.806,22.968,22.968,0,0,1-5.236.024c-15.723-1.56-20.27-10.163-20.27-10.163s-1.751-3.652,1.964-2.812c0,0,.7-2.321,3.565.1,0,0-.341-2.875,2.479-.246,0,0-.4-2.923,2.67-.4a13.5,13.5,0,0,0,9.165,3.414C1274.736,994.95,1287.758,994.8,1287.758,994.8Z" transform="translate(-1224.805 -935.122)" fill="#ffbc96"/>
            <g id="Group_20194" data-name="Group 20194" transform="translate(61.351 12.801)">
              <rect id="Rectangle_9099" data-name="Rectangle 9099" width="0.792" height="17.059" transform="matrix(0.998, -0.058, 0.058, 0.998, 0, 9.684)"/>
              <path id="Path_10816" data-name="Path 10816" d="M1400.842,861.521a22.332,22.332,0,0,1-4.912-.538,19.193,19.193,0,0,1-7.558-3.382l.505-.61c.107.088,10.809,8.678,26.212-.562l.407.679A28.3,28.3,0,0,1,1400.842,861.521Z" transform="translate(-1380.157 -856.428)"/>
              <rect id="Rectangle_9100" data-name="Rectangle 9100" width="0.793" height="7.812" transform="translate(40.402 12.802) rotate(-4.359)"/>
              <path id="Path_10817" data-name="Path 10817" d="M1442.12,910.283a4.967,4.967,0,0,1-4.953-4.427l-.636-5.645,10.892-.717-.323,6.069a5,5,0,0,1-4.9,4.72Zm-4.708-9.337.543,4.821a4.194,4.194,0,0,0,8.355-.246l.275-5.178Z" transform="translate(-1413.057 -885.849)"/>
            </g>
            <rect id="Rectangle_9101" data-name="Rectangle 9101" width="20.103" height="0.792" transform="matrix(0.142, -0.99, 0.99, 0.142, 109.172, 50.869)" fill="#d28572"/>
            <g id="Group_20195" data-name="Group 20195" transform="translate(119.119 2.624)">
              <rect id="Rectangle_9102" data-name="Rectangle 9102" width="0.594" height="3.321" transform="matrix(0.984, -0.179, 0.179, 0.984, 6.534, 0.472)" fill="#d28572"/>
              <rect id="Rectangle_9103" data-name="Rectangle 9103" width="0.594" height="3.321" transform="matrix(0.984, -0.179, 0.179, 0.984, 2.969, 0.571)" fill="#d28572"/>
              <rect id="Rectangle_9104" data-name="Rectangle 9104" width="0.594" height="3.321" transform="matrix(0.984, -0.179, 0.179, 0.984, 0, 0.769)" fill="#d28572"/>
              <rect id="Rectangle_9105" data-name="Rectangle 9105" width="0.594" height="5.284" transform="translate(9.551 0.208) rotate(-20.468)" fill="#d28572"/>
            </g>
            <path id="Path_10818" data-name="Path 10818" d="M1501.791,913.735l-10.171,5.925c.222-2.186.428-3.572.428-3.572C1495.809,914.012,1501.791,913.735,1501.791,913.735Z" transform="translate(-1389.34 -882.776)" fill="#d28572"/>
            <path id="Path_10819" data-name="Path 10819" d="M1530.279,1002.43c-2.693,3.945-6.511,5.735-10.218,5.339a5.366,5.366,0,0,1-.055-.8,6.14,6.14,0,0,1,10.274-4.539Z" transform="translate(-1408.731 -942.276)" fill="#fe5b52" opacity="0.4"/>
            <path id="Path_10820" data-name="Path 10820" d="M1341.847,1015.9a11.862,11.862,0,0,1-9.323,5.806q-.024-.285-.024-.57a6.141,6.141,0,0,1,9.347-5.236Z" transform="translate(-1280.636 -951.956)" fill="#fe5b52" opacity="0.4"/>
            <path id="Path_10821" data-name="Path 10821" d="M1280.7,998.69c-1.566-.306-3.524-2.729-4.181-4l.528-.273c.676,1.307,2.523,3.445,3.768,3.688Z" transform="translate(-1242.389 -937.895)" fill="#d28572"/>
            <path id="Path_10822" data-name="Path 10822" d="M1271.4,999.576a16.112,16.112,0,0,1-3.046-4.232l.548-.231a15.47,15.47,0,0,0,2.923,4.049Z" transform="translate(-1236.817 -938.37)" fill="#d28572"/>
            <path id="Path_10823" data-name="Path 10823" d="M1259.844,999.256a16.111,16.111,0,0,1-3.045-4.232l.548-.231a15.463,15.463,0,0,0,2.923,4.049Z" transform="translate(-1228.92 -938.151)" fill="#d28572"/>
          </g>
          <g id="Group_20199" data-name="Group 20199" transform="translate(67.554 4.199)">
            <path id="Path_10824" data-name="Path 10824" d="M1412.659,775.793c-2.685,3.905-7.47,8.88-14.448,8.88-8.206,0-13.355-4.713-16.191-8.563l8.468-2.067c.206-1.521.38-3,.523-4.4.111-1.1.206-2.155.293-3.153.142-1.64.238-3.121.317-4.388.1-1.735.151-3.05.174-3.778.016-.42.016-.642.016-.642l11.881-4.753s-.4,15.446,3.169,21.118Z" transform="translate(-1382.02 -740.578)" fill="#ffbc96"/>
            <path id="Path_10825" data-name="Path 10825" d="M1420.639,783.2s-3.179,3.717-10.237,6.221c.111-1.1.206-2.154.293-3.153.143-1.64.238-3.121.317-4.388Z" transform="translate(-1401.409 -760.356)" fill="#d28572"/>
            <path id="Path_10826" data-name="Path 10826" d="M1395.827,720.508s-6.073,16.5-1.716,19.539c3.875,2.7,8.977,3.036,13.994,1.716l3.3-11.222-1.98-10.958Z" transform="translate(-1389.205 -717.801)" fill="#ffbc96"/>
            <path id="Path_10827" data-name="Path 10827" d="M1416.782,726.83s-4.289,1.645-6.073-4.357c-1.452-4.885-7.789-5.809-7.789-5.809l2.574-2.376,12.212-.33,4.489,5.479-1.518,7.129Z" transform="translate(-1396.298 -713.958)" fill="#1b1b43"/>
            <ellipse id="Ellipse_277" data-name="Ellipse 277" cx="5.017" cy="3.961" rx="5.017" ry="3.961" transform="matrix(0.5, -0.866, 0.866, 0.5, 16.651, 16.701)" fill="#ffbc96"/>
            <path id="Path_10828" data-name="Path 10828" d="M1447.629,756.979l-.594-.006a4.245,4.245,0,0,1,3.745-4.154l.068.59A3.6,3.6,0,0,0,1447.629,756.979Z" transform="translate(-1426.435 -740.506)" fill="#1b1b43"/>
            <g id="Group_20198" data-name="Group 20198" transform="translate(4.757 8.137)">
              <circle id="Ellipse_278" data-name="Ellipse 278" cx="0.676" cy="0.676" r="0.676" transform="translate(0.377 1.897)" fill="#1b1b43"/>
              <path id="Path_10829" data-name="Path 10829" d="M1413.538,748.957a.819.819,0,1,1-.819-.819A.819.819,0,0,1,1413.538,748.957Z" transform="translate(-1407.19 -745.445)" fill="#1b1b43"/>
              <path id="Path_10830" data-name="Path 10830" d="M1399.571,740.67h-2.021a.516.516,0,0,1-.516-.516h0a.516.516,0,0,1,.516-.516h2.021a.516.516,0,0,1,.516.516h0A.515.515,0,0,1,1399.571,740.67Z" transform="translate(-1397.034 -739.638)" fill="#1b1b43"/>
              <path id="Path_10831" data-name="Path 10831" d="M1415.56,743.2l-2.236-.944a.516.516,0,0,1-.274-.676h0a.516.516,0,0,1,.676-.274l2.236.945a.516.516,0,0,1,.274.676h0A.515.515,0,0,1,1415.56,743.2Z" transform="translate(-1407.948 -740.747)" fill="#1b1b43"/>
              <path id="Path_10832" data-name="Path 10832" d="M1398.13,754.057a.3.3,0,0,1-.275-.184,2.206,2.206,0,0,1-.032-2.2,1.8,1.8,0,0,1,1.441-.594l.755-1.465a.3.3,0,1,1,.527.272l-.934,1.815-.2-.022c-.008,0-.788-.079-1.113.354-.235.313-.2.871.108,1.614a.3.3,0,0,1-.162.388A.316.316,0,0,1,1398.13,754.057Z" transform="translate(-1397.386 -746.343)" fill="#1b1b43"/>
              <g id="Group_20197" data-name="Group 20197" transform="translate(0.287 9.13)">
                <path id="Path_10833" data-name="Path 10833" d="M1399.82,772.127c1.15,1.622,2.606.929,3.6.1A20.962,20.962,0,0,1,1399.82,772.127Z" transform="translate(-1399.225 -770.963)" fill="#1b1b43"/>
                <path id="Path_10834" data-name="Path 10834" d="M1402.136,769.715a7.8,7.8,0,0,0,1.107-1.153c.014-.018,0-.038-.027-.037a31.812,31.812,0,0,1-5.25-.073c-.02,0-.03.02-.022.039a5.375,5.375,0,0,0,.593,1.125A20.951,20.951,0,0,0,1402.136,769.715Z" transform="translate(-1397.941 -768.453)" fill="#fff"/>
              </g>
              <path id="Path_10835" data-name="Path 10835" d="M1424.27,757.749a2.071,2.071,0,1,1-2.071-2.071A2.071,2.071,0,0,1,1424.27,757.749Z" transform="translate(-1412.811 -750.596)" fill="#fe5b52" opacity="0.4"/>
            </g>
          </g>
        </g>
        <rect id="Rectangle_9106" data-name="Rectangle 9106" width="529.132" height="0.792" transform="translate(0 381.183)" fill="#9ab0d1"/>
      </g>
    </g>
    <g id="Group_20052" data-name="Group 20052" transform="translate(256.272 3698.95)">
      <path id="Path_10667" data-name="Path 10667" d="M123.034,164.885a1.984,1.984,0,1,1-1.984-1.984A1.984,1.984,0,0,1,123.034,164.885Z" fill="url(#linear-gradient-3)"/>
      <circle id="Ellipse_263" data-name="Ellipse 263" cx="3.966" cy="3.966" r="3.966" transform="translate(242.919 97.771)" opacity="0.3" fill="url(#linear-gradient-4)"/>
      <circle id="Ellipse_264" data-name="Ellipse 264" cx="2.226" cy="2.226" r="2.226" transform="translate(93.457 352.026)" opacity="0.3" fill="url(#linear-gradient-5)"/>
      <path id="Path_10668" data-name="Path 10668" d="M336.532,80a2.091,2.091,0,1,1-2.091-2.091A2.09,2.09,0,0,1,336.532,80Z" transform="translate(-1.212 39.289)" fill="url(#linear-gradient-6)"/>
      <path id="Path_10669" data-name="Path 10669" d="M425.625,180.93a3.305,3.305,0,1,1-2.6-2.6A3.308,3.308,0,0,1,425.625,180.93Z" opacity="0.3" fill="url(#linear-gradient-7)"/>
      <path id="Path_10670" data-name="Path 10670" d="M508.651,399.575a3.3,3.3,0,1,1-3.3-3.3A3.3,3.3,0,0,1,508.651,399.575Z" opacity="0.3" fill="url(#linear-gradient-8)"/>
      <path id="Path_10671" data-name="Path 10671" d="M545.109,405.351a1.86,1.86,0,1,1-1.86-1.86A1.86,1.86,0,0,1,545.109,405.351Z" opacity="0.3" fill="url(#linear-gradient-9)"/>
      <circle id="Ellipse_265" data-name="Ellipse 265" cx="2.383" cy="2.383" r="2.383" transform="translate(587.101 140.854)" fill="url(#linear-gradient-10)"/>
      <path id="Path_10672" data-name="Path 10672" d="M294.5,408.654a2.876,2.876,0,1,1-2.876-2.876A2.876,2.876,0,0,1,294.5,408.654Z" opacity="0.3" fill="url(#linear-gradient-11)"/>
      <path id="Path_10673" data-name="Path 10673" d="M148.991,405.778a2.876,2.876,0,1,1-2.876-2.876A2.876,2.876,0,0,1,148.991,405.778Z" fill="url(#linear-gradient-12)"/>
      <path id="Path_10674" data-name="Path 10674" d="M604.909,207.062a2.876,2.876,0,1,1-2.876-2.876A2.876,2.876,0,0,1,604.909,207.062Z" opacity="0.3" fill="url(#linear-gradient-13)"/>
      <path id="Path_10676" data-name="Path 10676" d="M419.2,276.264a1.583,1.583,0,1,1-1.583-1.583A1.583,1.583,0,0,1,419.2,276.264Z" fill="url(#linear-gradient-14)"/>
      <circle id="Ellipse_266" data-name="Ellipse 266" cx="2.942" cy="2.942" r="2.942" transform="translate(260.389 140.468)" opacity="0.3" fill="url(#linear-gradient-15)"/>
      <circle id="Ellipse_267" data-name="Ellipse 267" cx="3.966" cy="3.966" r="3.966" transform="translate(525.563 113.443)" fill="url(#linear-gradient-16)"/>
      <path id="Path_10678" data-name="Path 10678" d="M617,307.88a3.966,3.966,0,1,1-3.966-3.966A3.966,3.966,0,0,1,617,307.88Z" transform="translate(-9.909 2.241)" fill="url(#linear-gradient-17)"/>
      <circle id="Ellipse_269" data-name="Ellipse 269" cx="2.519" cy="2.519" r="2.519" transform="translate(177.416 308.401)" fill="url(#linear-gradient-18)"/>
      <path id="Path_10679" data-name="Path 10679" d="M580.711,231.591h-1.957v-1.957a1.4,1.4,0,1,0-2.808,0v1.957h-1.957a1.4,1.4,0,0,0,0,2.808h1.957v1.957a1.4,1.4,0,1,0,2.808,0V234.4h1.957a1.4,1.4,0,0,0,0-2.808Z" transform="translate(68 -7)" fill="#fff"/>
      <path id="Path_10680" data-name="Path 10680" d="M614,393.407h-1.957V391.45a1.4,1.4,0,0,0-2.808,0v1.957h-1.957a1.4,1.4,0,0,0,0,2.808h1.957v1.957a1.4,1.4,0,1,0,2.808,0v-1.957H614a1.4,1.4,0,0,0,0-2.808Z" transform="translate(29.942 8.067)" fill="#fff"/>
      <path id="Path_10681" data-name="Path 10681" d="M329.735,175.409h-1.957v-1.957a1.4,1.4,0,1,0-2.808,0v1.957h-1.957a1.4,1.4,0,0,0,0,2.807h1.957v1.957a1.4,1.4,0,1,0,2.808,0v-1.957h1.957a1.4,1.4,0,0,0,0-2.807Z" opacity="0.3" fill="url(#linear-gradient-19)"/>
      <path id="Path_10682" data-name="Path 10682" d="M102.536,304.752h-1.957V302.8a1.4,1.4,0,1,0-2.807,0v1.957H95.815a1.4,1.4,0,1,0,0,2.807h1.957v1.957a1.4,1.4,0,1,0,2.807,0v-1.957h1.957a1.4,1.4,0,1,0,0-2.807Z" fill="url(#linear-gradient-20)"/>
      <path id="Path_10683" data-name="Path 10683" d="M429.874,73.41h-1.957V71.453a1.4,1.4,0,0,0-2.807,0V73.41h-1.957a1.4,1.4,0,1,0,0,2.807h1.957v1.957a1.4,1.4,0,0,0,2.807,0V76.217h1.957a1.4,1.4,0,1,0,0-2.807Z" transform="translate(-0.827 6)" fill="url(#linear-gradient-21)"/>
    </g>
  </g>
</svg>
