<svg xmlns="http://www.w3.org/2000/svg" xmlns:xlink="http://www.w3.org/1999/xlink" width="394.498" height="330.962" viewBox="0 0 394.498 330.962">
  <defs>
    <clipPath id="clip-path">
      <rect id="Rectangle_8899" data-name="Rectangle 8899" width="268.899" height="283.511" fill="none"/>
    </clipPath>
    <clipPath id="clip-path-4">
      <rect id="Rectangle_8901" data-name="Rectangle 8901" width="11.221" height="23.9" fill="none"/>
    </clipPath>
    <clipPath id="clip-path-5">
      <rect id="Rectangle_8902" data-name="Rectangle 8902" width="20.974" height="13.125" fill="none"/>
    </clipPath>
    <clipPath id="clip-path-7">
      <rect id="Rectangle_8905" data-name="Rectangle 8905" width="42.645" height="42.645" fill="none"/>
    </clipPath>
    <clipPath id="clip-path-9">
      <rect id="Rectangle_8908" data-name="Rectangle 8908" width="1.983" height="2.01" fill="none"/>
    </clipPath>
    <clipPath id="clip-path-10">
      <rect id="Rectangle_8909" data-name="Rectangle 8909" width="16.886" height="10.203" fill="none"/>
    </clipPath>
    <clipPath id="clip-path-11">
      <rect id="Rectangle_8910" data-name="Rectangle 8910" width="96.288" height="101.425" fill="none"/>
    </clipPath>
    <clipPath id="clip-path-12">
      <rect id="Rectangle_8912" data-name="Rectangle 8912" width="9.653" height="17.257" fill="none"/>
    </clipPath>
    <clipPath id="clip-path-13">
      <rect id="Rectangle_8913" data-name="Rectangle 8913" width="25.983" height="9.826" fill="none"/>
    </clipPath>
  </defs>
  <g id="Group_20012" data-name="Group 20012" transform="translate(-1412.738 -3297.472)">
    <g id="illustration" transform="translate(1412.738 3298.472)">
      <path id="Path_10450" data-name="Path 10450" d="M753.033,995.988c-97.391,0-176.352-3.292-176.352-7.354s78.96-7.354,176.352-7.354,176.349,3.293,176.349,7.354S850.43,995.988,753.033,995.988Z" transform="translate(-559.438 -666.026)" fill="rgba(171,180,194,0.24)"/>
      <g id="Group_19581" data-name="Group 19581" transform="translate(0 0)">
        <g id="Group_19580" data-name="Group 19580" transform="translate(0 0)">
          <g id="Group_19579" data-name="Group 19579">
            <g id="Group_19572" data-name="Group 19572" transform="translate(0 252.081)">
              <line id="Line_10" data-name="Line 10" x2="16.99" fill="none" stroke="#d8e1ee" stroke-miterlimit="10" stroke-width="2"/>
              <line id="Line_11" data-name="Line 11" x2="8.496" transform="translate(19.522)" fill="none" stroke="#d8e1ee" stroke-miterlimit="10" stroke-width="2"/>
            </g>
            <g id="Group_19573" data-name="Group 19573" transform="translate(361.861 185.321)">
              <line id="Line_12" data-name="Line 12" x2="19.79" fill="none" stroke="#d8e1ee" stroke-miterlimit="10" stroke-width="2"/>
              <line id="Line_13" data-name="Line 13" x2="9.896" transform="translate(22.742)" fill="none" stroke="#d8e1ee" stroke-miterlimit="10" stroke-width="2"/>
            </g>
            <g id="Group_19574" data-name="Group 19574" transform="translate(339.775 102.788)">
              <line id="Line_14" data-name="Line 14" x1="16.991" transform="translate(11.027)" fill="none" stroke="#d8e1ee" stroke-miterlimit="10" stroke-width="2"/>
              <line id="Line_15" data-name="Line 15" x1="8.495" fill="none" stroke="#d8e1ee" stroke-miterlimit="10" stroke-width="2"/>
            </g>
            <g id="Group_19575" data-name="Group 19575" transform="translate(188.677 12.157)">
              <line id="Line_16" data-name="Line 16" x2="2.369" y2="2.368" fill="none" stroke="#d8e1ee" stroke-miterlimit="10" stroke-width="2"/>
              <line id="Line_17" data-name="Line 17" x2="2.369" y2="2.369" transform="translate(4.04 4.039)" fill="none" stroke="#d8e1ee" stroke-miterlimit="10" stroke-width="2"/>
              <line id="Line_18" data-name="Line 18" x1="2.369" y2="2.368" transform="translate(4.04)" fill="none" stroke="#d8e1ee" stroke-miterlimit="10" stroke-width="2"/>
              <line id="Line_19" data-name="Line 19" x1="2.369" y2="2.369" transform="translate(0 4.039)" fill="none" stroke="#d8e1ee" stroke-miterlimit="10" stroke-width="2"/>
            </g>
            <g id="Group_19576" data-name="Group 19576" transform="translate(2.875 110.69)">
              <line id="Line_20" data-name="Line 20" x2="2.369" y2="2.368" fill="none" stroke="#d8e1ee" stroke-miterlimit="10" stroke-width="2"/>
              <line id="Line_21" data-name="Line 21" x2="2.368" y2="2.369" transform="translate(4.04 4.039)" fill="none" stroke="#d8e1ee" stroke-miterlimit="10" stroke-width="2"/>
              <line id="Line_22" data-name="Line 22" x1="2.368" y2="2.368" transform="translate(4.04)" fill="none" stroke="#d8e1ee" stroke-miterlimit="10" stroke-width="2"/>
              <line id="Line_23" data-name="Line 23" x1="2.369" y2="2.369" transform="translate(0 4.039)" fill="none" stroke="#d8e1ee" stroke-miterlimit="10" stroke-width="2"/>
            </g>
            <g id="Group_19577" data-name="Group 19577" transform="translate(246.638 106.928)">
              <line id="Line_24" data-name="Line 24" x2="2.369" y2="2.368" fill="none" stroke="#d8e1ee" stroke-miterlimit="10" stroke-width="2"/>
              <line id="Line_25" data-name="Line 25" x2="2.369" y2="2.368" transform="translate(4.04 4.04)" fill="none" stroke="#d8e1ee" stroke-miterlimit="10" stroke-width="2"/>
              <line id="Line_26" data-name="Line 26" x1="2.369" y2="2.368" transform="translate(4.04)" fill="none" stroke="#d8e1ee" stroke-miterlimit="10" stroke-width="2"/>
              <line id="Line_27" data-name="Line 27" x1="2.369" y2="2.368" transform="translate(0 4.04)" fill="none" stroke="#d8e1ee" stroke-miterlimit="10" stroke-width="2"/>
            </g>
            <g id="Group_19578" data-name="Group 19578" transform="translate(381.398 238.82)">
              <line id="Line_28" data-name="Line 28" x2="2.369" y2="2.367" fill="none" stroke="#d8e1ee" stroke-miterlimit="10" stroke-width="2"/>
              <line id="Line_29" data-name="Line 29" x2="2.369" y2="2.369" transform="translate(4.04 4.038)" fill="none" stroke="#d8e1ee" stroke-miterlimit="10" stroke-width="2"/>
              <line id="Line_30" data-name="Line 30" x1="2.369" y2="2.367" transform="translate(4.04)" fill="none" stroke="#d8e1ee" stroke-miterlimit="10" stroke-width="2"/>
              <line id="Line_31" data-name="Line 31" x1="2.369" y2="2.369" transform="translate(0 4.038)" fill="none" stroke="#d8e1ee" stroke-miterlimit="10" stroke-width="2"/>
            </g>
            <circle id="Ellipse_262" data-name="Ellipse 262" cx="2.94" cy="2.94" r="2.94" transform="translate(341.656)" fill="none" stroke="#d8e1ee" stroke-miterlimit="10" stroke-width="2"/>
            <circle id="Ellipse_263" data-name="Ellipse 263" cx="2.94" cy="2.94" r="2.94" transform="translate(76.558 3.445)" fill="none" stroke="#d8e1ee" stroke-miterlimit="10" stroke-width="2"/>
            <path id="Path_10451" data-name="Path 10451" d="M626.345,835.9a2.939,2.939,0,1,1-2.94-2.939A2.939,2.939,0,0,1,626.345,835.9Z" transform="translate(-524.14 -697.449)" fill="none" stroke="#d8e1ee" stroke-miterlimit="10" stroke-width="2"/>
          </g>
        </g>
      </g>
      <g id="Group_20011" data-name="Group 20011" transform="translate(59.143 46.452)">
        <g id="Group_20008" data-name="Group 20008">
          <g id="Group_20009" data-name="Group 20009">
            <g id="Group_19972" data-name="Group 19972">
              <g id="Group_19971" data-name="Group 19971" clip-path="url(#clip-path)">
                <path id="Path_10635" data-name="Path 10635" d="M161.829,206.28H30.191a4.535,4.535,0,0,1-4.535-4.535V18.155a4.535,4.535,0,0,1,4.535-4.535H161.829a4.535,4.535,0,0,1,4.535,4.535v183.59a4.535,4.535,0,0,1-4.535,4.535" transform="translate(-9.491 -5.039)" fill="#f5f5f5"/>
                <path id="Path_10636" data-name="Path 10636" d="M394.935,27.1l.264,1.338-2.65,14.336a8.551,8.551,0,0,1-6.611,1.513l-14.995-2.772s-2.384-.532-1.719-3.627c0,0,.118-1.632,1.517-1.741,0,0-2.906-1.181-2.585-3.419s1.971-2.209,1.971-2.209-2.722-.687-2.44-3.208,1.753-2.525,1.753-2.525-3.167-.769-2.374-3.564a2.877,2.877,0,0,1,3.514-2.108l10.666,1.97,9.349,1.728a5.429,5.429,0,0,1,4.34,4.289" transform="translate(-135.743 -7.043)" fill="#ebebeb"/>
                <path id="Path_10637" data-name="Path 10637" d="M400.28,17.156a18.652,18.652,0,0,1-4.44-6.2,15.956,15.956,0,0,1-.781-4.991c.023-.127.216-1.256.374-2.18a1.435,1.435,0,0,0-1.115-1.639,4.687,4.687,0,0,0-5.189,3.438c-1.247,4.3-.181,7.224-.145,8.532l.035,1.308Z" transform="translate(-143.729 -0.766)" fill="#ebebeb"/>
                <rect id="Rectangle_8897" data-name="Rectangle 8897" width="21.64" height="10.651" transform="translate(254.492 37.873) rotate(-79.526)" fill="#ebebeb"/>
                <path id="Path_10638" data-name="Path 10638" d="M403.914,47.616c-.023,0,.839-4.771,1.925-10.647s1.985-10.637,2.008-10.632-.839,4.77-1.926,10.647-1.985,10.636-2.007,10.632" transform="translate(-149.422 -9.743)" fill="#e0e0e0"/>
                <path id="Path_10639" data-name="Path 10639" d="M420.537,50.689c-.023,0,.839-4.771,1.925-10.647s1.985-10.637,2.008-10.632-.839,4.77-1.926,10.647-1.985,10.636-2.007,10.632" transform="translate(-155.571 -10.88)" fill="#e0e0e0"/>
                <path id="Path_10640" data-name="Path 10640" d="M414.576,34.2a1.993,1.993,0,1,0,2.322-1.6,1.992,1.992,0,0,0-2.322,1.6" transform="translate(-153.354 -12.047)" fill="#fff"/>
                <path id="Path_10641" data-name="Path 10641" d="M385.751,21.562c0-.023,1.149.17,2.558.43s2.547.49,2.543.512-1.149-.169-2.558-.43-2.547-.49-2.543-.512" transform="translate(-142.703 -7.976)" fill="#e0e0e0"/>
                <path id="Path_10642" data-name="Path 10642" d="M371.631,37.355a32.772,32.772,0,0,1,3.26.6c0,.022-.737-.094-1.638-.261a16.478,16.478,0,0,1-1.622-.342" transform="translate(-137.479 -13.818)" fill="#e0e0e0"/>
                <path id="Path_10643" data-name="Path 10643" d="M370.6,28.016c0-.023,1.043.151,2.321.387s2.31.446,2.307.468-1.043-.15-2.322-.386-2.31-.446-2.306-.469" transform="translate(-137.097 -10.363)" fill="#e0e0e0"/>
                <path id="Path_10644" data-name="Path 10644" d="M371.924,46.042c0-.023,1.044.151,2.321.387s2.311.446,2.306.469-1.043-.151-2.321-.387-2.31-.446-2.307-.469" transform="translate(-137.588 -17.032)" fill="#e0e0e0"/>
                <path id="Path_10645" data-name="Path 10645" d="M413.9,28.018c0-.023,1.471.229,3.276.563s3.265.623,3.261.645-1.471-.229-3.277-.563-3.265-.623-3.261-.645" transform="translate(-153.116 -10.364)" fill="#fff"/>
                <path id="Path_10646" data-name="Path 10646" d="M369.637,32.172c-.006,0-.022-.041-.047-.12a1.833,1.833,0,0,1-.07-.346,2.5,2.5,0,0,1-.006-.524,2.9,2.9,0,0,1,.137-.628,2.933,2.933,0,0,1,.282-.578,2.46,2.46,0,0,1,.33-.407,1.8,1.8,0,0,1,.269-.227c.069-.047.108-.071.112-.066s-.141.118-.338.334a2.816,2.816,0,0,0-.307.408,2.847,2.847,0,0,0-.408,1.172,2.909,2.909,0,0,0-.012.51c.021.291.073.467.058.471" transform="translate(-136.693 -10.83)" fill="#fff"/>
                <path id="Path_10647" data-name="Path 10647" d="M368.6,23.616a.769.769,0,0,1-.208-.27,1.644,1.644,0,0,1,.03-1.592.753.753,0,0,1,.218-.261c.011.009-.074.108-.166.29a1.786,1.786,0,0,0-.029,1.537c.086.186.168.287.156.3" transform="translate(-136.211 -7.951)" fill="#fff"/>
                <path id="Path_10648" data-name="Path 10648" d="M370.607,42.216a.821.821,0,0,1-.292-.262,1.419,1.419,0,0,1,.025-1.78.818.818,0,0,1,.3-.253c.009.012-.113.1-.252.29a1.451,1.451,0,0,0-.025,1.709c.134.194.253.285.244.3" transform="translate(-136.881 -14.768)" fill="#fff"/>
                <path id="Path_10649" data-name="Path 10649" d="M372.623,50.9a.845.845,0,0,1-.2-.286,1.87,1.87,0,0,1-.006-1.648.855.855,0,0,1,.2-.287c.012.009-.064.118-.146.312a2.059,2.059,0,0,0,.005,1.6c.083.194.16.3.148.311" transform="translate(-137.7 -18.01)" fill="#fff"/>
                <path id="Path_10650" data-name="Path 10650" d="M389.5,11.978a1.361,1.361,0,0,1-.073-.237c-.022-.077-.046-.171-.067-.283s-.052-.238-.069-.379a7.331,7.331,0,0,1-.084-1,8.4,8.4,0,0,1,.079-1.227,8.292,8.292,0,0,1,.275-1.2,7.331,7.331,0,0,1,.365-.935c.057-.131.121-.243.174-.344s.1-.185.145-.252a1.39,1.39,0,0,1,.137-.206,1.435,1.435,0,0,1-.11.222c-.038.069-.084.155-.131.257s-.109.215-.162.347a8.225,8.225,0,0,0-.346.933,9.014,9.014,0,0,0-.265,1.188,8.926,8.926,0,0,0-.085,1.214,8.2,8.2,0,0,0,.066.992c.013.142.038.267.056.379s.035.207.052.284a1.4,1.4,0,0,1,.042.244" transform="translate(-143.981 -2.189)" fill="#fff"/>
                <path id="Path_10651" data-name="Path 10651" d="M373,239.023l.71.813,3.855,10.878a6.764,6.764,0,0,1-3.934,3.653L362.256,258.4s-1.844.578-2.614-1.806c0,0-.565-1.166.351-1.794,0,0-2.46.34-3.125-1.321s.477-2.295.477-2.295-2.138.606-2.942-1.234.2-2.425.2-2.425-2.475.726-3.038-1.5a2.277,2.277,0,0,1,1.576-2.836l8.091-2.87,7.094-2.514A4.3,4.3,0,0,1,373,239.023" transform="translate(-130.023 -87.879)" fill="#ebebeb"/>
                <path id="Path_10652" data-name="Path 10652" d="M373.216,232.863a14.768,14.768,0,0,1-5.5-2.5,12.631,12.631,0,0,1-2.51-3.113c-.034-.1-.348-.948-.607-1.643a1.135,1.135,0,0,0-1.412-.683,3.71,3.71,0,0,0-2.2,4.41c.845,3.438,2.734,5.025,3.276,5.907l.542.883Z" transform="translate(-133.499 -83.189)" fill="#ebebeb"/>
                <rect id="Rectangle_8898" data-name="Rectangle 8898" width="8.431" height="17.13" transform="translate(241.084 149.073) rotate(-19.514)" fill="#ebebeb"/>
                <path id="Path_10653" data-name="Path 10653" d="M388.357,252.745c-.017.006-1.312-3.6-2.893-8.062s-2.847-8.078-2.83-8.084,1.312,3.6,2.893,8.062,2.847,8.077,2.83,8.084" transform="translate(-141.55 -87.527)" fill="#e0e0e0"/>
                <path id="Path_10654" data-name="Path 10654" d="M400.969,248.275c-.017.006-1.312-3.6-2.892-8.062s-2.848-8.078-2.831-8.084,1.312,3.6,2.893,8.062,2.847,8.077,2.83,8.084" transform="translate(-146.215 -85.873)" fill="#e0e0e0"/>
                <path id="Path_10655" data-name="Path 10655" d="M389.112,239.651a1.578,1.578,0,1,0,.96-2.014,1.578,1.578,0,0,0-.96,2.014" transform="translate(-143.913 -87.877)" fill="#fff"/>
                <path id="Path_10656" data-name="Path 10656" d="M364.012,242.177c-.006-.017.856-.338,1.924-.717s1.94-.672,1.946-.655-.856.338-1.924.717-1.94.672-1.946.655" transform="translate(-134.661 -89.082)" fill="#e0e0e0"/>
                <path id="Path_10657" data-name="Path 10657" d="M360.581,258.883a13.034,13.034,0,0,1,1.225-.469c.684-.242,1.242-.425,1.248-.408a12.9,12.9,0,0,1-1.226.47,13.042,13.042,0,0,1-1.248.407" transform="translate(-133.392 -95.445)" fill="#e0e0e0"/>
                <path id="Path_10658" data-name="Path 10658" d="M356.175,252.673c-.006-.017.775-.31,1.745-.653s1.76-.609,1.767-.591-.775.309-1.745.653-1.76.608-1.767.591" transform="translate(-131.762 -93.012)" fill="#e0e0e0"/>
                <path id="Path_10659" data-name="Path 10659" d="M364.218,264.506c-.006-.017.775-.31,1.745-.653s1.76-.609,1.767-.591-.775.309-1.745.653-1.76.608-1.767.591" transform="translate(-134.737 -97.389)" fill="#e0e0e0"/>
                <path id="Path_10660" data-name="Path 10660" d="M385.866,235.24c-.006-.017,1.1-.425,2.469-.91s2.485-.865,2.491-.847-1.1.425-2.469.91-2.485.865-2.491.848" transform="translate(-142.745 -86.373)" fill="#fff"/>
                <path id="Path_10661" data-name="Path 10661" d="M357.5,256.368s-.031-.02-.079-.064a1.408,1.408,0,0,1-.185-.209,1.974,1.974,0,0,1-.212-.357,2.338,2.338,0,0,1-.154-.485,2.306,2.306,0,0,1-.035-.508,1.975,1.975,0,0,1,.064-.41,1.5,1.5,0,0,1,.095-.262.3.3,0,0,1,.05-.089c.011.005-.05.137-.1.363a2.246,2.246,0,0,0-.049.4,2.525,2.525,0,0,0,.039.493,2.454,2.454,0,0,0,.146.472,2.194,2.194,0,0,0,.193.355c.13.192.235.292.226.3" transform="translate(-132.004 -93.958)" fill="#fff"/>
                <path id="Path_10662" data-name="Path 10662" d="M353.215,251.075a.613.613,0,0,1-.249-.1,1.307,1.307,0,0,1-.61-1.1.608.608,0,0,1,.047-.266c.011,0-.008.1,0,.265a1.415,1.415,0,0,0,.588,1.066c.132.093.228.13.224.141" transform="translate(-130.349 -92.337)" fill="#fff"/>
                <path id="Path_10663" data-name="Path 10663" d="M361.982,262.989a.645.645,0,0,1-.3-.064,1.124,1.124,0,0,1-.687-1.23.653.653,0,0,1,.1-.292c.011,0-.038.113-.058.3a1.149,1.149,0,0,0,.659,1.181c.169.081.287.1.285.107" transform="translate(-133.538 -96.702)" fill="#fff"/>
                <path id="Path_10664" data-name="Path 10664" d="M366.762,268.2a.665.665,0,0,1-.251-.117,1.476,1.476,0,0,1-.655-1.127.656.656,0,0,1,.023-.276c.011,0,0,.106.023.272a1.635,1.635,0,0,0,.636,1.094c.134.1.23.144.225.154" transform="translate(-135.342 -98.656)" fill="#fff"/>
                <path id="Path_10665" data-name="Path 10665" d="M363.252,234.656a1.093,1.093,0,0,1-.144-.134c-.045-.044-.1-.1-.158-.168s-.129-.142-.2-.232a5.961,5.961,0,0,1-.453-.653,6.609,6.609,0,0,1-.431-.872,6.543,6.543,0,0,1-.286-.931,5.92,5.92,0,0,1-.12-.785c-.013-.113-.013-.216-.016-.3s0-.167,0-.23a1.134,1.134,0,0,1,.013-.2,1.155,1.155,0,0,1,.013.2c0,.063,0,.14.011.229s.011.191.026.3a6.6,6.6,0,0,0,.132.777,6.4,6.4,0,0,0,.711,1.785,6.433,6.433,0,0,0,.437.655c.065.092.132.168.188.238s.106.127.149.174a1.173,1.173,0,0,1,.125.151" transform="translate(-133.711 -85.141)" fill="#fff"/>
                <path id="Path_10666" data-name="Path 10666" d="M206.571,410.284H175.888A8.385,8.385,0,0,1,167.5,401.9V371.216a8.385,8.385,0,0,1,8.385-8.385h30.684a8.385,8.385,0,0,1,8.385,8.385V401.9a8.385,8.385,0,0,1-8.385,8.385" transform="translate(-61.965 -134.224)" fill="#e0e0e0"/>
                <path id="Path_10667" data-name="Path 10667" d="M193.047,410.284H162.364a8.385,8.385,0,0,1-8.385-8.385V371.216a8.385,8.385,0,0,1,8.385-8.385h30.684a8.384,8.384,0,0,1,8.385,8.385V401.9a8.384,8.384,0,0,1-8.385,8.385" transform="translate(-56.962 -134.224)" fill="#ebebeb"/>
                <path id="Path_10668" data-name="Path 10668" d="M165.633,394.5l4.78-4.78,9.218,8.194,15.394-15.453,4.438,4.78-20.516,19.892Z" transform="translate(-61.273 -141.487)" fill="#fff"/>
                <path id="Path_10669" data-name="Path 10669" d="M38.92,415.811H18.876a8.385,8.385,0,0,1-8.385-8.385V387.382A8.385,8.385,0,0,1,18.876,379H38.92a8.385,8.385,0,0,1,8.385,8.385v20.044a8.385,8.385,0,0,1-8.385,8.385" transform="translate(-3.881 -140.204)" fill="#e0e0e0"/>
                <path id="Path_10670" data-name="Path 10670" d="M28.429,415.811H8.385A8.385,8.385,0,0,1,0,407.426V387.382A8.385,8.385,0,0,1,8.385,379H28.429a8.385,8.385,0,0,1,8.385,8.385v20.044a8.385,8.385,0,0,1-8.385,8.385" transform="translate(0 -140.204)" fill="#ebebeb"/>
                <path id="Path_10671" data-name="Path 10671" d="M9.04,403.568l3.709-3.709,7.151,6.357,11.943-11.989,3.444,3.709L19.371,413.369Z" transform="translate(-3.344 -145.839)" fill="#fff"/>
              </g>
            </g>
            <g id="Group_19974" data-name="Group 19974">
              <g id="Group_19973" data-name="Group 19973" clip-path="url(#clip-path)">
                <path id="Path_10672" data-name="Path 10672" d="M264.4,435.606c0,.091-56.679.164-126.579.164-69.925,0-126.591-.073-126.591-.164s56.667-.164,126.591-.164c69.9,0,126.579.073,126.579.164" transform="translate(-4.154 -161.085)" fill="#263238"/>
              </g>
            </g>
            <g id="Group_19982" data-name="Group 19982">
              <g id="Group_19981" data-name="Group 19981" clip-path="url(#clip-path)">
                <path id="Path_10673" data-name="Path 10673" d="M371.359,377.184s-2.626-18.056-2.407-28.561-.013-22.323-.013-22.323h1.21s-.819,20.852.072,33.427,3.24,17.457,3.24,17.457Z" transform="translate(-136.483 -120.71)" fill="#263238"/>
                <path id="Path_10674" data-name="Path 10674" d="M378.086,292.937a3.187,3.187,0,0,0-1.1-1.614,3.069,3.069,0,0,0-2.631.019c-3.656,1.293-6.9,8.11-8.376,11.7l4.855,16.357c8.762-8.128,10.28-18.792,7.255-26.458" transform="translate(-135.388 -107.663)" fill="#455a64"/>
                <path id="Path_10675" data-name="Path 10675" d="M379.548,292.546a.983.983,0,0,1-.071.214c-.062.156-.141.353-.238.6-.213.513-.512,1.263-.868,2.192-.715,1.857-1.626,4.455-2.44,7.38s-1.369,5.621-1.713,7.582c-.173.98-.3,1.776-.386,2.326-.042.257-.076.467-.1.633a.113.113,0,1,1-.04-.006c.018-.168.04-.379.066-.638.059-.554.168-1.354.324-2.339a69.518,69.518,0,0,1,4.162-14.99c.374-.925.693-1.667.928-2.172.111-.236.2-.429.273-.581a.888.888,0,0,1,.107-.2" transform="translate(-138.236 -108.223)" fill="#263238"/>
                <path id="Path_10676" data-name="Path 10676" d="M365.853,328.242a14.812,14.812,0,0,1-7.482-12.437c-.175-3.63.94-7.192,2.2-10.6a1.367,1.367,0,0,1,.514-.769,1.306,1.306,0,0,1,1.24.193c3.307,1.883,5.31,5.472,6.376,9.125a18.412,18.412,0,0,1,.749,7.5,12.462,12.462,0,0,1-3.6,6.984" transform="translate(-132.568 -112.587)" fill="#455a64"/>
                <path id="Path_10677" data-name="Path 10677" d="M368.362,329.807a.925.925,0,0,1-.018-.219c0-.166-.008-.374-.012-.628,0-.544-.024-1.333-.069-2.305a62.922,62.922,0,0,0-.844-7.556c-.5-2.93-1.118-5.553-1.569-7.449-.222-.928-.4-1.689-.539-2.246-.057-.248-.1-.451-.14-.612a.967.967,0,0,1-.036-.217.86.86,0,0,1,.075.207c.047.159.1.359.176.6.15.524.357,1.287.6,2.231.487,1.888,1.122,4.511,1.629,7.449a55.3,55.3,0,0,1,.789,7.585c.026.976.027,1.766,0,2.312-.01.255-.019.462-.025.628a.9.9,0,0,1-.023.219" transform="translate(-135.076 -114.152)" fill="#263238"/>
                <g id="Group_19977" data-name="Group 19977" transform="translate(225.785 191.755)" opacity="0.3">
                  <g id="Group_19976" data-name="Group 19976">
                    <g id="Group_19975" data-name="Group 19975" clip-path="url(#clip-path-4)">
                      <path id="Path_10678" data-name="Path 10678" d="M365.853,328.242a14.812,14.812,0,0,1-7.482-12.437c-.175-3.63.94-7.192,2.2-10.6a1.367,1.367,0,0,1,.514-.769,1.306,1.306,0,0,1,1.24.193c3.307,1.883,5.31,5.472,6.376,9.125a18.412,18.412,0,0,1,.749,7.5,12.462,12.462,0,0,1-3.6,6.984" transform="translate(-358.353 -304.342)"/>
                    </g>
                  </g>
                </g>
                <path id="Path_10679" data-name="Path 10679" d="M378.4,385.894c4.479.984,8.166,4.143,12.486,5.678,2.859,1.016,6.091,1.376,8.374,3.375a7.1,7.1,0,0,0-3.108-3.091,55.671,55.671,0,0,0-11.317-5.4c-2.033-.7-4.238-1.289-6.309-.71" transform="translate(-139.985 -142.613)" fill="#455a64"/>
                <path id="Path_10680" data-name="Path 10680" d="M358.09,388.978c-5.608-.09-11.513-4.865-17.1-5.15,5.842-1.886,14.207-.345,17.1,5.15" transform="translate(-126.146 -141.707)" fill="#455a64"/>
                <path id="Path_10681" data-name="Path 10681" d="M371.606,367.089a18.258,18.258,0,0,1,8.966-.61,54.5,54.5,0,0,1,8.753,2.379c-.288-1.946-1.864-3.409-3.344-4.7a23.409,23.409,0,0,0-3.515-2.7,7.837,7.837,0,0,0-4.215-1.189,6.666,6.666,0,0,0-4.652,2.345,7.725,7.725,0,0,0-1.993,4.481" transform="translate(-137.47 -133.272)" fill="#455a64"/>
                <path id="Path_10682" data-name="Path 10682" d="M345.4,359.7c-3.53-3.014-8.878-2.719-13.519-2.615a110.132,110.132,0,0,1,20.965,13.065c.189-3.281-2.987-6.643-7.447-10.45" transform="translate(-122.775 -132.077)" fill="#455a64"/>
                <g id="Group_19980" data-name="Group 19980" transform="translate(209.106 224.95)" opacity="0.3">
                  <g id="Group_19979" data-name="Group 19979">
                    <g id="Group_19978" data-name="Group 19978" clip-path="url(#clip-path-5)">
                      <path id="Path_10683" data-name="Path 10683" d="M345.4,359.7c-3.53-3.014-8.878-2.719-13.519-2.615a110.132,110.132,0,0,1,20.965,13.065c.189-3.281-2.987-6.643-7.447-10.45" transform="translate(-331.881 -357.027)"/>
                    </g>
                  </g>
                </g>
                <path id="Path_10684" data-name="Path 10684" d="M374.115,346.152A39.313,39.313,0,0,1,379.544,343c1.858-.844,3.592-2.189,5.387-3.161a58.849,58.849,0,0,0,6.479-4.574,16.817,16.817,0,0,1,7.1-3.386,13.956,13.956,0,0,0-6.458.373,41.682,41.682,0,0,0-6.078,2.365,29.627,29.627,0,0,0-7.807,4.526c-2.251,2.014-4.286,4-4.048,7.013" transform="translate(-138.391 -122.689)" fill="#455a64"/>
                <path id="Path_10685" data-name="Path 10685" d="M388.068,389.969a.743.743,0,0,1-.178-.077l-.489-.253c-.423-.225-1.029-.558-1.793-.942-.378-.2-.8-.408-1.251-.621s-.939-.444-1.457-.668a21.3,21.3,0,0,0-3.453-1.2,7.414,7.414,0,0,0-3.6-.091,10.238,10.238,0,0,0-1.524.456,7.73,7.73,0,0,0-1.23.631,7.855,7.855,0,0,0-1.547,1.278c-.324.348-.483.561-.5.55a.707.707,0,0,1,.1-.165,5.388,5.388,0,0,1,.339-.437,7.231,7.231,0,0,1,1.528-1.344,7.629,7.629,0,0,1,1.244-.667,10.1,10.1,0,0,1,1.545-.481,7.479,7.479,0,0,1,3.686.075,20.444,20.444,0,0,1,3.481,1.229c.519.23,1.007.457,1.455.687s.87.437,1.244.645c.757.4,1.354.753,1.765,1l.471.287a.708.708,0,0,1,.158.112" transform="translate(-137.265 -142.698)" fill="#263238"/>
                <path id="Path_10686" data-name="Path 10686" d="M361.488,388.041a1.288,1.288,0,0,1,.351.1,7.884,7.884,0,0,1,.914.4,11.089,11.089,0,0,1,4.686,4.5,7.9,7.9,0,0,1,.434.9,1.3,1.3,0,0,1,.117.347c-.032.015-.241-.461-.672-1.173a12.413,12.413,0,0,0-4.63-4.448c-.729-.4-1.212-.592-1.2-.625" transform="translate(-133.727 -143.549)" fill="#263238"/>
                <path id="Path_10687" data-name="Path 10687" d="M341.794,360.824a1.142,1.142,0,0,1,.239.071l.674.239,1.061.392c.414.154.863.381,1.371.6a32.4,32.4,0,0,1,7.3,4.652,35.74,35.74,0,0,1,3.4,3.353,37.743,37.743,0,0,1,2.416,3.061c.64.907,1.126,1.663,1.459,2.186l.384.6a1.165,1.165,0,0,1,.124.217,1.189,1.189,0,0,1-.158-.193c-.1-.13-.24-.326-.415-.582-.353-.51-.856-1.252-1.508-2.145s-1.473-1.926-2.44-3.022a37.33,37.33,0,0,0-3.4-3.323,34.192,34.192,0,0,0-7.232-4.676c-.5-.231-.945-.466-1.353-.629l-1.046-.421-.659-.275a1.206,1.206,0,0,1-.226-.108" transform="translate(-126.442 -133.481)" fill="#263238"/>
                <path id="Path_10688" data-name="Path 10688" d="M379.584,365.86a2.013,2.013,0,0,1-.447-.057l-.515-.1c-.2-.039-.434-.04-.689-.066a7.048,7.048,0,0,0-3.854.76,6.935,6.935,0,0,0-1.754,1.3A7.932,7.932,0,0,0,371.2,369.1a11.622,11.622,0,0,0-.771,1.471,1.6,1.6,0,0,1,.114-.437,6.2,6.2,0,0,1,.537-1.109,7.424,7.424,0,0,1,1.116-1.448,6.824,6.824,0,0,1,5.752-2.074c.258.036.495.047.695.1l.514.129a1.955,1.955,0,0,1,.43.134" transform="translate(-137.033 -135.196)" fill="#263238"/>
                <path id="Path_10689" data-name="Path 10689" d="M385.071,338.343a1.158,1.158,0,0,1-.212.131l-.626.34c-.544.293-1.327.726-2.278,1.286s-2.062,1.266-3.249,2.114a27.21,27.21,0,0,0-3.627,3.039,9.228,9.228,0,0,0-1.484,1.921c-.367.706-.718,1.387-1.042,2.042a37.1,37.1,0,0,0-1.558,3.547,21.664,21.664,0,0,0-.758,2.5c-.144.6-.2.939-.215.936a1.124,1.124,0,0,1,.022-.248c.021-.162.055-.4.117-.7a18.562,18.562,0,0,1,.7-2.529,34.082,34.082,0,0,1,1.526-3.581c.319-.659.667-1.344,1.033-2.051a9.289,9.289,0,0,1,1.514-1.97,26.318,26.318,0,0,1,3.664-3.05c1.2-.844,2.326-1.532,3.285-2.086s1.758-.961,2.314-1.233l.643-.307a1.16,1.16,0,0,1,.231-.095" transform="translate(-136.883 -125.165)" fill="#263238"/>
                <path id="Path_10690" data-name="Path 10690" d="M366.748,358.446a2.282,2.282,0,0,1-.112-.473l-.245-1.3a33.154,33.154,0,0,0-2.662-8.243l-.547-1.2a2.273,2.273,0,0,1-.18-.451,2.288,2.288,0,0,1,.25.417c.149.274.358.674.6,1.174a27.676,27.676,0,0,1,2.673,8.278c.088.552.151,1,.183,1.309a2.263,2.263,0,0,1,.034.485" transform="translate(-134.287 -128.287)" fill="#263238"/>
                <path id="Path_10691" data-name="Path 10691" d="M359.28,335.556a15.21,15.21,0,0,0-1.824-6.055,19.989,19.989,0,0,0-13.547-10.1q6.271,9.346,12.542,18.693l1.619,3.337a9.6,9.6,0,0,0,1.21-5.873" transform="translate(-127.224 -118.157)" fill="#455a64"/>
                <rect id="Rectangle_8903" data-name="Rectangle 8903" width="29.164" height="5.169" transform="translate(220.882 254.24)" fill="#06b2ff"/>
                <path id="Path_10692" data-name="Path 10692" d="M354.028,410.091l2.483,16.039h19.362l2.964-16.039Z" transform="translate(-130.967 -151.707)" fill="#06b2ff"/>
                <path id="Path_10693" data-name="Path 10693" d="M379.58,411.669c0,.057-6.579.1-14.691.1s-14.693-.046-14.693-.1,6.577-.1,14.693-.1,14.691.046,14.691.1" transform="translate(-129.55 -152.253)" fill="#263238"/>
              </g>
            </g>
            <g id="Group_19987" data-name="Group 19987">
              <g id="Group_19986" data-name="Group 19986" clip-path="url(#clip-path)">
                <path id="Path_10694" data-name="Path 10694" d="M89.168,410.664H63.292a8.385,8.385,0,0,1-8.384-8.385V376.4a8.385,8.385,0,0,1,8.384-8.385H89.168a8.385,8.385,0,0,1,8.385,8.385v25.875a8.385,8.385,0,0,1-8.385,8.385" transform="translate(-20.312 -136.143)" fill="#06b2ff"/>
                <g id="Group_19985" data-name="Group 19985" transform="translate(34.595 231.876)" opacity="0.3">
                  <g id="Group_19984" data-name="Group 19984">
                    <g id="Group_19983" data-name="Group 19983" clip-path="url(#clip-path-7)">
                      <path id="Path_10695" data-name="Path 10695" d="M89.168,410.664H63.292a8.385,8.385,0,0,1-8.384-8.385V376.4a8.385,8.385,0,0,1,8.384-8.385H89.168a8.385,8.385,0,0,1,8.385,8.385v25.875a8.385,8.385,0,0,1-8.385,8.385" transform="translate(-54.908 -368.019)"/>
                    </g>
                  </g>
                </g>
                <path id="Path_10696" data-name="Path 10696" d="M77.015,410.664H51.139a8.385,8.385,0,0,1-8.384-8.385V376.4a8.385,8.385,0,0,1,8.384-8.385H77.015A8.385,8.385,0,0,1,85.4,376.4v25.875a8.385,8.385,0,0,1-8.385,8.385" transform="translate(-15.817 -136.143)" fill="#06b2ff"/>
                <path id="Path_10697" data-name="Path 10697" d="M53.227,396.482l4.3-4.3,8.285,7.364,13.834-13.888,3.989,4.3L65.194,407.835Z" transform="translate(-19.691 -142.67)" fill="#fff"/>
                <path id="Path_10698" data-name="Path 10698" d="M131.857,419.686H114.945a5.183,5.183,0,0,1-5.183-5.183V397.591a5.183,5.183,0,0,1,5.183-5.184h16.912a5.183,5.183,0,0,1,5.183,5.184V414.5a5.183,5.183,0,0,1-5.183,5.183" transform="translate(-40.605 -145.165)" fill="#263238"/>
                <path id="Path_10699" data-name="Path 10699" d="M124.084,419.686H107.172a5.183,5.183,0,0,1-5.183-5.183V397.591a5.183,5.183,0,0,1,5.183-5.184h16.912a5.183,5.183,0,0,1,5.183,5.184V414.5a5.183,5.183,0,0,1-5.183,5.183" transform="translate(-37.729 -145.165)" fill="#455a64"/>
                <path id="Path_10700" data-name="Path 10700" d="M108.687,410.615l2.748-2.748,5.3,4.71,8.849-8.883,2.552,2.748-11.794,11.435Z" transform="translate(-40.207 -149.341)" fill="#fff"/>
              </g>
            </g>
            <g id="Group_19989" data-name="Group 19989">
              <g id="Group_19988" data-name="Group 19988" clip-path="url(#clip-path)">
                <path id="Path_10701" data-name="Path 10701" d="M171.878,192.92H40.241a4.535,4.535,0,0,1-4.536-4.535V4.8A4.535,4.535,0,0,1,40.241.26H171.878A4.536,4.536,0,0,1,176.414,4.8v183.59a4.536,4.536,0,0,1-4.536,4.535" transform="translate(-13.209 -0.096)" fill="#fff"/>
                <path id="Path_10702" data-name="Path 10702" d="M171.781,192.824a4.794,4.794,0,0,0,1.655-.334,4.447,4.447,0,0,0,1.692-1.185,4.505,4.505,0,0,0,1.135-2.592c.032-4.381-.01-10.86-.01-19.195-.012-16.676-.03-40.8-.052-70.61-.006-14.905-.012-31.232-.02-48.759q0-13.146-.008-27.164,0-7,0-14.205,0-1.8,0-3.613a4.56,4.56,0,0,0-1.03-3.288,4.39,4.39,0,0,0-3.073-1.55C170.86.3,169.617.321,168.39.315L40.159.328a4.387,4.387,0,0,0-3.531,1.782,4.214,4.214,0,0,0-.791,1.866,15.992,15.992,0,0,0-.065,2.091v8.452q0,8.426,0,16.735,0,16.617,0,32.719c0,21.451-.007,42.141-.009,61.852s-.011,38.44-.015,55.969q0,3.286,0,6.516a4.431,4.431,0,0,0,1.076,2.86,4.351,4.351,0,0,0,2.648,1.467,10.532,10.532,0,0,0,1.559.058h4.7l6.163,0,23.4.011,70.606.052,19.2.03,4.993.016c1.125.006,1.7.017,1.7.017s-.576.011-1.7.017l-4.993.016-19.2.03-70.606.052-23.4.011-6.163,0h-4.7a10.89,10.89,0,0,1-1.6-.06,4.622,4.622,0,0,1-2.808-1.554,4.7,4.7,0,0,1-1.142-3.032q0-3.229,0-6.517c-.006-17.529-.011-36.259-.016-55.969s-.006-40.4-.01-61.852q0-16.088,0-32.719,0-8.308,0-16.735V6.066a15.891,15.891,0,0,1,.069-2.144,4.54,4.54,0,0,1,.85-2.007A4.714,4.714,0,0,1,40.159,0L168.39.013c1.236.007,2.451-.014,3.693.016a4.69,4.69,0,0,1,3.283,1.657,4.86,4.86,0,0,1,1.1,3.481q0,1.813,0,3.613,0,7.2,0,14.205,0,14-.008,27.164c-.007,17.527-.013,33.854-.02,48.759-.023,29.81-.04,53.934-.052,70.61-.02,8.338,0,14.807-.054,19.2a4.545,4.545,0,0,1-1.162,2.619,4.519,4.519,0,0,1-2.955,1.472c-.285.011-.429.013-.429.013" transform="translate(-13.111 0)" fill="#263238"/>
                <path id="Path_10703" data-name="Path 10703" d="M179.229,99.527H116.856a3.972,3.972,0,0,1-3.972-3.972v-.379a3.972,3.972,0,0,1,3.972-3.972h62.373a3.972,3.972,0,0,1,3.972,3.972v.379a3.972,3.972,0,0,1-3.972,3.972" transform="translate(-41.76 -33.74)" fill="#e0e0e0"/>
                <path id="Path_10704" data-name="Path 10704" d="M86.292,102.611H73.484a3.238,3.238,0,0,1-3.237-3.237V86.566a3.237,3.237,0,0,1,3.237-3.237H86.292a3.237,3.237,0,0,1,3.237,3.237V99.374a3.237,3.237,0,0,1-3.237,3.237" transform="translate(-25.987 -30.826)" fill="#06b2ff"/>
                <path id="Path_10705" data-name="Path 10705" d="M74.982,96.2l1.942-1.943,3.746,3.33,6.256-6.279,1.8,1.942-8.336,8.083Z" transform="translate(-27.739 -33.778)" fill="#fff"/>
                <path id="Path_10706" data-name="Path 10706" d="M179.229,147H116.856a3.972,3.972,0,0,1-3.972-3.972v-.379a3.972,3.972,0,0,1,3.972-3.972h62.373a3.972,3.972,0,0,1,3.972,3.972v.379A3.972,3.972,0,0,1,179.229,147" transform="translate(-41.76 -51.302)" fill="#e0e0e0"/>
                <path id="Path_10707" data-name="Path 10707" d="M86.292,150.085H73.484a3.237,3.237,0,0,1-3.237-3.237V134.04a3.237,3.237,0,0,1,3.237-3.237H86.292a3.237,3.237,0,0,1,3.237,3.237v12.808a3.237,3.237,0,0,1-3.237,3.237" transform="translate(-25.987 -48.389)" fill="#06b2ff"/>
                <path id="Path_10708" data-name="Path 10708" d="M74.982,143.674l1.942-1.942,3.746,3.33,6.256-6.279,1.8,1.942-8.336,8.083Z" transform="translate(-27.739 -51.34)" fill="#fff"/>
                <path id="Path_10709" data-name="Path 10709" d="M179.229,194.476H116.856a3.972,3.972,0,0,1-3.972-3.972v-.379a3.972,3.972,0,0,1,3.972-3.972h62.373a3.972,3.972,0,0,1,3.972,3.972v.379a3.972,3.972,0,0,1-3.972,3.972" transform="translate(-41.76 -68.865)" fill="#e0e0e0"/>
                <path id="Path_10710" data-name="Path 10710" d="M86.292,197.56H73.484a3.237,3.237,0,0,1-3.237-3.237V181.515a3.237,3.237,0,0,1,3.237-3.237H86.292a3.237,3.237,0,0,1,3.237,3.237v12.808a3.237,3.237,0,0,1-3.237,3.237" transform="translate(-25.987 -65.951)" fill="#06b2ff"/>
                <path id="Path_10711" data-name="Path 10711" d="M74.982,191.148l1.942-1.943,3.746,3.33,6.256-6.279,1.8,1.942-8.336,8.083Z" transform="translate(-27.739 -68.903)" fill="#fff"/>
                <path id="Path_10712" data-name="Path 10712" d="M179.229,241.951H116.856a3.972,3.972,0,0,1-3.972-3.972V237.6a3.972,3.972,0,0,1,3.972-3.972h62.373A3.972,3.972,0,0,1,183.2,237.6v.379a3.972,3.972,0,0,1-3.972,3.972" transform="translate(-41.76 -86.427)" fill="#e0e0e0"/>
                <path id="Path_10713" data-name="Path 10713" d="M86.292,245.035H73.484a3.237,3.237,0,0,1-3.237-3.237V228.99a3.237,3.237,0,0,1,3.237-3.237H86.292a3.237,3.237,0,0,1,3.237,3.237V241.8a3.237,3.237,0,0,1-3.237,3.237" transform="translate(-25.987 -83.514)" fill="#06b2ff"/>
                <path id="Path_10714" data-name="Path 10714" d="M74.982,238.623l1.942-1.942,3.746,3.33,6.256-6.279,1.8,1.942-8.336,8.084Z" transform="translate(-27.739 -86.465)" fill="#fff"/>
                <path id="Path_10807" data-name="Path 10807" d="M6.51-5.012a2.2,2.2,0,0,1,1.358.826A2.412,2.412,0,0,1,8.4-2.646a2.482,2.482,0,0,1-.385,1.379A2.564,2.564,0,0,1,6.9-.336,4.078,4.078,0,0,1,5.18,0H.966V-9.772H5a4.181,4.181,0,0,1,1.715.322,2.442,2.442,0,0,1,1.092.9,2.346,2.346,0,0,1,.371,1.3,2.227,2.227,0,0,1-.455,1.428A2.434,2.434,0,0,1,6.51-5.012ZM2.926-5.74H4.718A1.641,1.641,0,0,0,5.8-6.055a1.109,1.109,0,0,0,.378-.9,1.13,1.13,0,0,0-.378-.91A1.616,1.616,0,0,0,4.718-8.19H2.926ZM4.9-1.6a1.677,1.677,0,0,0,1.113-.336,1.176,1.176,0,0,0,.4-.952,1.226,1.226,0,0,0-.42-.987,1.693,1.693,0,0,0-1.134-.357H2.926V-1.6ZM11.928-8.19v2.45h3.29v1.554h-3.29V-1.6h3.71V0H9.968V-9.786h5.67v1.6ZM25.774,0h-1.96L19.376-6.706V0h-1.96V-9.786h1.96l4.438,6.72v-6.72h1.96Zm3.892-8.19v2.45h3.29v1.554h-3.29V-1.6h3.71V0h-5.67V-9.786h5.67v1.6ZM41.188-9.772V-8.19H37.114v2.506h3.122V-4.13H37.114V0h-1.96V-9.772Zm3.346,0V0h-1.96V-9.772Zm8.582,0V-8.19h-2.6V0h-1.96V-8.19h-2.6V-9.772ZM57.918.1a4.641,4.641,0,0,1-1.841-.35,3.023,3.023,0,0,1-1.3-1.008,2.654,2.654,0,0,1-.49-1.554h2.1a1.358,1.358,0,0,0,.427.952,1.513,1.513,0,0,0,1.057.35,1.626,1.626,0,0,0,1.078-.329,1.07,1.07,0,0,0,.392-.861,1,1,0,0,0-.266-.714,1.864,1.864,0,0,0-.665-.441,11,11,0,0,0-1.1-.357,11.77,11.77,0,0,1-1.547-.553,2.71,2.71,0,0,1-1.022-.826A2.354,2.354,0,0,1,54.32-7.07a2.641,2.641,0,0,1,.434-1.512,2.76,2.76,0,0,1,1.218-.987,4.431,4.431,0,0,1,1.792-.343,3.888,3.888,0,0,1,2.457.735,2.725,2.725,0,0,1,1.043,2.051H59.108a1.12,1.12,0,0,0-.427-.833,1.609,1.609,0,0,0-1.057-.329,1.361,1.361,0,0,0-.917.294,1.063,1.063,0,0,0-.343.854.883.883,0,0,0,.259.651,1.975,1.975,0,0,0,.644.42q.385.161,1.085.371a11.4,11.4,0,0,1,1.554.56,2.791,2.791,0,0,1,1.036.84,2.333,2.333,0,0,1,.434,1.47,2.765,2.765,0,0,1-.406,1.456A2.866,2.866,0,0,1,59.78-.3,4.059,4.059,0,0,1,57.918.1Z" transform="translate(63.356 30.077)" fill="#455a64"/>
              </g>
            </g>
            <g id="Group_20006" data-name="Group 20006" transform="translate(140.56 10.802)">
              <g id="Group_20010" data-name="Group 20010">
                <path id="Path_10725" data-name="Path 10725" d="M290.247,400.342l-.541,14.225s14.277,5.327,14.433,7.965l-27.618-.058-.067-22.2Z" transform="translate(-242.83 -158.878)" fill="#263238"/>
                <path id="Path_10726" data-name="Path 10726" d="M283.464,421a1.128,1.128,0,0,0-.783,1.285,1.084,1.084,0,0,0,1.268.787,1.19,1.19,0,0,0,.821-1.366,1.124,1.124,0,0,0-1.409-.672" transform="translate(-245.125 -166.529)" fill="#e0e0e0"/>
                <path id="Path_10727" data-name="Path 10727" d="M276.56,434.194l.081-2.238,26.45.893s1.229.537,1.088,1.4Z" transform="translate(-242.869 -170.598)" fill="#455a64"/>
                <path id="Path_10728" data-name="Path 10728" d="M296.719,422.662c-.005.135-.679.195-1.344.627-.675.415-1.019,1-1.143.944-.124-.026.079-.832.892-1.341s1.624-.353,1.595-.23" transform="translate(-249.394 -167.113)" fill="#fff"/>
                <path id="Path_10729" data-name="Path 10729" d="M301.715,424.615c.03.13-.554.359-1.013.928-.476.556-.593,1.173-.727,1.166-.127.021-.219-.769.366-1.466s1.372-.757,1.374-.628" transform="translate(-251.496 -167.862)" fill="#fff"/>
                <path id="Path_10730" data-name="Path 10730" d="M305.3,428.791c-.123.028-.309-.646.039-1.384s.979-1.031,1.036-.918c.076.111-.334.507-.611,1.116s-.33,1.172-.464,1.185" transform="translate(-253.441 -168.567)" fill="#fff"/>
                <path id="Path_10731" data-name="Path 10731" d="M296.137,417.283c-.057.123-.675-.065-1.437-.014-.764.035-1.358.289-1.428.174-.077-.1.5-.6,1.4-.643s1.53.377,1.464.483" transform="translate(-249.049 -164.989)" fill="#fff"/>
                <path id="Path_10732" data-name="Path 10732" d="M237.005,397.311l-1.5,17.157,2.729,13.911a1.764,1.764,0,0,1-3.027,1.537c-2.462-2.684-11.467-12.6-11.288-13.851.209-1.447.376-18.2.376-18.2Z" transform="translate(-223.396 -157.781)" fill="#263238"/>
                <path id="Path_10733" data-name="Path 10733" d="M236.744,440.8l-12.73-15.564-.047.728a2.652,2.652,0,0,0,.518,1.759c1.009,1.353,3.877,5.027,10.69,12.521a1.763,1.763,0,0,0,1.569.556" transform="translate(-223.411 -168.112)" fill="#455a64"/>
                <g id="Group_19992" data-name="Group 19992" transform="translate(2.885 251.604)" opacity="0.6">
                  <g id="Group_19991" data-name="Group 19991">
                    <g id="Group_19990" data-name="Group 19990" clip-path="url(#clip-path-9)">
                      <path id="Path_10734" data-name="Path 10734" d="M229.267,416.677a1.067,1.067,0,0,1,.2,1.41,1.026,1.026,0,0,1-1.4.213,1.127,1.127,0,0,1-.207-1.495,1.065,1.065,0,0,1,1.477-.06" transform="translate(-227.667 -416.474)" fill="#fff"/>
                    </g>
                  </g>
                </g>
                <path id="Path_10735" data-name="Path 10735" d="M238.771,436.558a3.809,3.809,0,0,1,3.6-1.492c.018-.041-.192-.188-.59-.271a2.813,2.813,0,0,0-2.782,1.154c-.223.34-.266.592-.224.609" transform="translate(-228.884 -171.631)" fill="#fff"/>
                <path id="Path_10736" data-name="Path 10736" d="M240.483,440.761a14.577,14.577,0,0,1,1.569-.641,14.453,14.453,0,0,1,1.692-.108,1.955,1.955,0,0,0-1.777-.26c-1.031.231-1.571.958-1.485,1.01" transform="translate(-229.52 -173.454)" fill="#fff"/>
                <path id="Path_10737" data-name="Path 10737" d="M235.46,431.665a9.06,9.06,0,0,1,4.943-1.584,4.825,4.825,0,0,0-4.943,1.584" transform="translate(-227.663 -169.835)" fill="#fff"/>
                <path id="Path_10738" data-name="Path 10738" d="M235.492,424.03c.039.106,1.014-.23,2.252-.2,1.239.018,2.2.394,2.242.29a4.379,4.379,0,0,0-4.495-.1" transform="translate(-227.676 -167.453)" fill="#fff"/>
                <path id="Path_10739" data-name="Path 10739" d="M235.986,415.969a5.6,5.6,0,0,1,4.582.453c.03-.034-.144-.262-.525-.516a3.843,3.843,0,0,0-3.441-.34c-.424.174-.64.364-.616.4" transform="translate(-227.859 -164.439)" fill="#fff"/>
                <path id="Path_10740" data-name="Path 10740" d="M238.416,412.367a1.482,1.482,0,0,0,.066-.648,4.541,4.541,0,0,0-.408-1.736,2.007,2.007,0,0,0-.8-1.011.709.709,0,0,0-.808.106,1.156,1.156,0,0,0-.321.759,2.493,2.493,0,0,0,2.033,2.442,2.892,2.892,0,0,0,2.933-1.328,1,1,0,0,0,.1-.83.7.7,0,0,0-.7-.414,2.454,2.454,0,0,0-1.169.515,5.049,5.049,0,0,0-1.259,1.26,1.544,1.544,0,0,0-.3.577,8.05,8.05,0,0,1,1.709-1.615,2.307,2.307,0,0,1,1.031-.425.37.37,0,0,1,.384.224.687.687,0,0,1-.1.542,2.581,2.581,0,0,1-2.556,1.122,2.166,2.166,0,0,1-1.757-2.049.839.839,0,0,1,.2-.539.385.385,0,0,1,.445-.065,1.809,1.809,0,0,1,.691.844,6.69,6.69,0,0,1,.583,2.269" transform="translate(-227.918 -162.065)" fill="#fff"/>
                <path id="Path_10741" data-name="Path 10741" d="M283.809,207.82a61.163,61.163,0,0,1,1.335,17.986c-.294,3.821-13.192,109.56-13.192,109.56H254.537l4.895-99.379-1.426.309s-9.506,42.385-10.282,49.248c-.7,6.168-8.714,50.98-8.714,50.98l-15.922.183,5.085-59.273,5.918-56.875L236.317,204Z" transform="translate(-223.088 -86.269)" fill="#263238"/>
                <path id="Path_10742" data-name="Path 10742" d="M279.765,236.337c-.008.009.03.049.113.119a1.2,1.2,0,0,0,.425.2,1.99,1.99,0,0,0,1.651-.391,3.271,3.271,0,0,0,1.127-2.251c.125-.946.144-1.964.214-3.041.117-2.15.2-4.1.25-5.51a15.3,15.3,0,0,0,0-2.287,15.348,15.348,0,0,0-.244,2.275c-.107,1.408-.232,3.353-.349,5.5-.07,1.072-.082,2.109-.185,3.016a3.1,3.1,0,0,1-.964,2.1,1.924,1.924,0,0,1-1.478.452,3.34,3.34,0,0,1-.565-.19" transform="translate(-244.055 -93.363)" fill="#455a64"/>
                <path id="Path_10743" data-name="Path 10743" d="M239.106,225.162a1.428,1.428,0,0,0,.488.176,8.333,8.333,0,0,0,1.392.234,10.019,10.019,0,0,0,8.38-3.366,8.229,8.229,0,0,0,.843-1.132,1.416,1.416,0,0,0,.231-.464c-.049-.032-.437.593-1.249,1.433a10.7,10.7,0,0,1-8.19,3.29c-1.169-.044-1.881-.227-1.894-.17" transform="translate(-229.014 -92.413)" fill="#455a64"/>
                <path id="Path_10744" data-name="Path 10744" d="M308.44,220.816a5.7,5.7,0,0,0,.264,1.748,13.082,13.082,0,0,0,4.665,7.019,5.713,5.713,0,0,0,1.508.921,15.857,15.857,0,0,1-6.437-9.688" transform="translate(-254.658 -92.489)" fill="#455a64"/>
                <path id="Path_10745" data-name="Path 10745" d="M391.707,171.718l4,1.263,7.26-4.012,4.119,11.471-9.879,2.351-7.484-.823Z" transform="translate(-284.731 -73.31)" fill="#f8a07d"/>
                <path id="Path_10746" data-name="Path 10746" d="M319.1,100.235s4.083,2.451,7.464,10.779c6.643,16.36,10.815,25.191,10.815,25.191l30.5,9.632-2.436,12.225s-30.912-4.307-35.052-5.859c-5.663-2.123-9.863-13.293-9.863-13.293Z" transform="translate(-258.607 -47.882)" fill="#e0e0e0"/>
                <path id="Path_10747" data-name="Path 10747" d="M295.52,32.794a3.218,3.218,0,0,0,1.043-6.317,3.348,3.348,0,0,0-3.2-5.489,4.006,4.006,0,0,0-6.2-2.971,4.5,4.5,0,0,0-5.545.17,3.2,3.2,0,0,0-2.549,5.571" transform="translate(-243.406 -17.144)" fill="#263238"/>
                <path id="Path_10748" data-name="Path 10748" d="M276.862,23.856l.706-.035a13.652,13.652,0,0,1,14.215,11.863c.858,6.561,1.723,13.821,1.855,17.358.273,7.322-6.99,8.824-6.99,8.824l1.056,8.761-17.787.332-3.155-31.808c-1.033-7.565,2.51-14.473,10.1-15.3" transform="translate(-239.18 -19.608)" fill="#f8a07d"/>
                <path id="Path_10749" data-name="Path 10749" d="M292.812,82.824a17.771,17.771,0,0,1-9.728-2.33s2.517,5.155,9.786,4.133Z" transform="translate(-245.283 -40.579)" fill="#6f4439"/>
                <path id="Path_10750" data-name="Path 10750" d="M2.083.448C2.13.724,1.7.972,1.128,1S.05.833,0,.556.384.033.957,0s1.079.17,1.125.445" transform="matrix(0.985, 0.174, -0.174, 0.985, 47.992, 21.759)" fill="#263238"/>
                <path id="Path_10751" data-name="Path 10751" d="M301.936,47.879c-.123.143-.943-.4-2.068-.345-1.124.043-1.92.662-2.049.531-.063-.059.057-.311.4-.59a2.876,2.876,0,0,1,1.633-.594,2.759,2.759,0,0,1,1.654.445c.359.248.488.489.427.553" transform="translate(-250.728 -28.144)" fill="#263238"/>
                <path id="Path_10752" data-name="Path 10752" d="M2.71.517c.061.318-.5.6-1.243.638S.065.96,0,.642.5.038,1.246,0s1.4.2,1.464.514" transform="translate(36.903 22.589) rotate(-14)" fill="#263238"/>
                <path id="Path_10753" data-name="Path 10753" d="M284.409,49.084c-.123.143-.944-.4-2.069-.345-1.123.043-1.92.662-2.049.531-.063-.058.055-.311.4-.59a2.869,2.869,0,0,1,1.632-.593,2.754,2.754,0,0,1,1.655.444c.358.248.488.489.428.553" transform="translate(-244.244 -28.59)" fill="#263238"/>
                <path id="Path_10754" data-name="Path 10754" d="M293.39,57.1a7.437,7.437,0,0,1,1.81-.42c.285-.044.555-.115.593-.313a1.466,1.466,0,0,0-.234-.842L294.6,53.38a37.564,37.564,0,0,1-2.191-5.625,37.68,37.68,0,0,1,2.639,5.435q.483,1.13.922,2.159a1.66,1.66,0,0,1,.205,1.12.722.722,0,0,1-.451.444,1.947,1.947,0,0,1-.484.091,7.36,7.36,0,0,1-1.851.1" transform="translate(-248.729 -28.468)" fill="#263238"/>
                <path id="Path_10755" data-name="Path 10755" d="M285.336,42.087c-.134.292-1.113.032-2.3.052-1.189-.006-2.177.267-2.3-.024-.054-.139.144-.405.561-.655A3.559,3.559,0,0,1,283.055,41a3.437,3.437,0,0,1,1.745.441c.406.244.595.509.536.648" transform="translate(-244.41 -25.968)" fill="#263238"/>
                <path id="Path_10756" data-name="Path 10756" d="M301.384,40.485c-.224.267-1.166.048-2.282.091-1.118.01-2.053.273-2.283.018-.1-.125.034-.389.435-.651a3.636,3.636,0,0,1,1.834-.51,3.583,3.583,0,0,1,1.845.423c.407.243.549.5.451.629" transform="translate(-250.352 -25.389)" fill="#263238"/>
                <path id="Path_10757" data-name="Path 10757" d="M289.86,31.812s-2.158-4.487-4.421-5.446c-2.74-1.162-3.746,1.832-6.33,1.246s-5.2-1.7-7.708.4c-2.745,2.3-1.334,3.746-1.348,7-.06,13.2-2.279,17.041-3.271,10.875-.108-.675-2.021-1.122-2.443-3.978-.547-3.7-.915-8.215-.215-10.9A10.427,10.427,0,0,1,268.1,25.34c3.46-2.855,8.392-3.158,11.761-2.987s10.021,3.707,10,9.46" transform="translate(-238.127 -19.057)" fill="#263238"/>
                <path id="Path_10758" data-name="Path 10758" d="M266.432,58.3a1.988,1.988,0,0,0-2.24-1.808c-1.358.2-2.838,1.048-2.608,3.864.409,5,5.339,3.555,5.336,3.411,0-.1-.3-3.378-.488-5.466" transform="translate(-237.32 -31.694)" fill="#f8a07d"/>
                <path id="Path_10759" data-name="Path 10759" d="M266.694,62.932c-.023-.014-.083.068-.224.147a.872.872,0,0,1-.65.067,2.16,2.16,0,0,1-1.154-1.851,2.869,2.869,0,0,1,.142-1.266,1,1,0,0,1,.6-.721.444.444,0,0,1,.533.2c.078.134.055.237.082.243s.1-.093.043-.3a.552.552,0,0,0-.222-.3.659.659,0,0,0-.491-.088,1.228,1.228,0,0,0-.846.849,2.967,2.967,0,0,0-.188,1.417,2.268,2.268,0,0,0,1.446,2.053.935.935,0,0,0,.785-.2c.144-.136.162-.25.144-.258" transform="translate(-238.334 -32.648)" fill="#6f4439"/>
                <path id="Path_10760" data-name="Path 10760" d="M265.743,34.965a4.76,4.76,0,0,0,2.167.873,1.634,1.634,0,0,0,1.753-1.238c.042-.351-.063-.751.152-1.031.257-.335.766-.259,1.188-.236,1.462.082,3.082-1.609,3.382-3.042a1.307,1.307,0,0,0,1.762.275,4.681,4.681,0,0,0,1.152-1.132,2.061,2.061,0,0,1,1.675-.944,4.981,4.981,0,0,0,1.1.186c.654-.091.936-.876,1-1.534s.107-1.421.645-1.8a2.62,2.62,0,0,1,1.786-.138c.609.059,1.383-.122,1.508-.721a1.187,1.187,0,0,0-.269-.9,3.244,3.244,0,0,0-3.886-1.036,4.4,4.4,0,0,0-8.111-.45,4.463,4.463,0,0,0-7.044,1.979,3.235,3.235,0,0,0-3.409,4.88,3.072,3.072,0,0,0-1.566,2.527,1.759,1.759,0,0,0,2.079,1.7A1.791,1.791,0,0,0,266,34.809" transform="translate(-237.014 -18.055)" fill="#263238"/>
                <path id="Path_10761" data-name="Path 10761" d="M281.589,26.58s.005.031,0,.092,0,.151-.018.268a3.155,3.155,0,0,1-.315.982,3.586,3.586,0,0,1-1.051,1.237,3.335,3.335,0,0,1-2.02.687l.079-.115a1.811,1.811,0,0,1-.032,1.386,5.18,5.18,0,0,1-.8,1.273,3.768,3.768,0,0,1-.531.6,1.753,1.753,0,0,1-.778.333,1.829,1.829,0,0,1-1.639-.5l.185-.062a3.76,3.76,0,0,1-1.462,2.675,2.741,2.741,0,0,1-1.616.62,4.952,4.952,0,0,1-1.637-.275l.131-.066a3.953,3.953,0,0,1-1.108,1.6,2.1,2.1,0,0,1-1.719.561,2.76,2.76,0,0,1-2.229-2.051l.116.047a2.58,2.58,0,0,1-1.706.338,2.8,2.8,0,0,1-1.225-.475,2.412,2.412,0,0,1-.59-.583,1.135,1.135,0,0,1-.139-.253,2.992,2.992,0,0,0,.776.766,2.77,2.77,0,0,0,1.193.425,2.47,2.47,0,0,0,1.609-.347l.091-.057.025.105a2.6,2.6,0,0,0,2.107,1.9,1.912,1.912,0,0,0,1.56-.528,3.763,3.763,0,0,0,1.04-1.52l.035-.095.1.029a4.791,4.791,0,0,0,1.565.261,2.525,2.525,0,0,0,1.492-.577,3.552,3.552,0,0,0,1.384-2.522l.02-.238.165.175a1.623,1.623,0,0,0,1.447.439,1.552,1.552,0,0,0,.69-.289,3.675,3.675,0,0,0,.5-.565,5.056,5.056,0,0,0,.779-1.219,1.645,1.645,0,0,0,.047-1.256l-.047-.117.126,0a3.219,3.219,0,0,0,1.937-.627,3.567,3.567,0,0,0,1.047-1.174,3.877,3.877,0,0,0,.413-1.3" transform="translate(-237.294 -20.635)" fill="#455a64"/>
                <path id="Path_10762" data-name="Path 10762" d="M5.776,3.8c-.051-.252-1.71.181-3.262-.928S.679-.047.444,0A4.285,4.285,0,0,0,.039,2.3c.167.738.186,1.959,1.136,2.64a3.117,3.117,0,0,0,2.579.378A4.74,4.74,0,0,0,5.776,3.8" transform="matrix(0.839, -0.545, 0.545, 0.839, 40.058, 31.843)" fill="#fff"/>
                <path id="Path_10763" data-name="Path 10763" d="M298.642,125.158c-.112-.4-6.626-18.127-8.7-22.009-2.486-4.643-7.713-6.7-10.957-6.9s-37.966,2.567-37.966,2.567-10.371,2.324-11.693,11.243c-1.522,10.268-2.855,33.775-2.855,33.775l15.8-8.1,2.047-5.155,32.7,7.295L285,126.067Z" transform="translate(-224.338 -46.405)" fill="#e0e0e0"/>
                <path id="Path_10764" data-name="Path 10764" d="M244.444,94.993l13.562-5.979,1.52-5.849,15.83,7.484,3.316-3.663,1.389,4.129,3.469,1.134,8.108,14.26-.025,30.385,1.641,26.211-1.758,4.137-14.524,2.143a16.542,16.542,0,0,1-4.791.006l-29.481-4.82-.76-8.66,3.149-23.868Z" transform="translate(-230.062 -41.568)" fill="#e0e0e0"/>
                <path id="Path_10765" data-name="Path 10765" d="M269.029,83.165a39.848,39.848,0,0,1,6.316,2.938c4.453,2.376,9.515,4.546,9.515,4.546l-.385,7.149L267.628,89.34" transform="translate(-239.565 -41.568)" fill="#e0e0e0"/>
                <path id="Path_10766" data-name="Path 10766" d="M298.293,89.229l-3.316,3.664,1.772,7.662,2.953-6.926" transform="translate(-249.682 -43.811)" fill="#e0e0e0"/>
                <g id="Group_19995" data-name="Group 19995" transform="translate(29.537 48.512)" opacity="0.3">
                  <g id="Group_19994" data-name="Group 19994">
                    <g id="Group_19993" data-name="Group 19993" clip-path="url(#clip-path-10)">
                      <path id="Path_10767" data-name="Path 10767" d="M285.787,95.5c.147.11,1.067,8.843,1.067,8.843l-16.887-10.2,15.373,7.718Z" transform="translate(-269.968 -94.14)"/>
                    </g>
                  </g>
                </g>
                <path id="Path_10768" data-name="Path 10768" d="M294.871,133.894c-.253-6.68.8-23.721.8-23.721l2.2-.355a248.749,248.749,0,0,1,5.647,36.866c.622,8.215.622,17.731.622,17.731l-4.422,9.491-4.887-9.429s.348-22.466.04-30.583" transform="translate(-249.628 -51.427)" fill="#455a64"/>
                <path id="Path_10769" data-name="Path 10769" d="M244.312,103.577c-.026.033.457.41,1.141,1.114a13.817,13.817,0,0,1,3.579,6.658c.21.959.257,1.569.3,1.566a1.535,1.535,0,0,0,0-.432,8.958,8.958,0,0,0-.141-1.167,12.455,12.455,0,0,0-3.625-6.744,8.949,8.949,0,0,0-.9-.761,1.535,1.535,0,0,0-.362-.235" transform="translate(-230.939 -49.118)" fill="#263238"/>
                <path id="Path_10770" data-name="Path 10770" d="M294.7,100.123l1.508-.588,1.43,2.452.258,4.027-2.014.324-1.513-2.486Z" transform="translate(-249.457 -47.623)" fill="#455a64"/>
                <path id="Path_10771" data-name="Path 10771" d="M320.709,119.486c-.065,0-.117,8.719-.117,19.472s.052,19.473.117,19.473.117-8.717.117-19.473-.052-19.472-.117-19.472" transform="translate(-259.158 -55.004)" fill="#263238"/>
                <path id="Path_10772" data-name="Path 10772" d="M294.724,94.945c-.029.02.325.561.86,1.457s1.242,2.151,1.917,3.59l.161.345.105.227.107-.225a28.116,28.116,0,0,0,1.41-3.57c.146-.464.251-.843.315-1.106a1.451,1.451,0,0,0,.076-.415c-.032-.009-.213.558-.543,1.469s-.82,2.164-1.469,3.52l.212,0-.161-.348a29.759,29.759,0,0,0-1.988-3.578c-.287-.439-.531-.785-.706-1.02a1.683,1.683,0,0,0-.294-.349" transform="translate(-249.588 -45.925)" fill="#263238"/>
                <path id="Path_10773" data-name="Path 10773" d="M267.44,92.447a1.178,1.178,0,0,0,.231.139l.684.357,2.516,1.3c2.123,1.1,5.031,2.678,8.253,4.4,1.963,1.046,3.821,2.014,5.438,2.823l.149.075v-.166c.021-2.1.038-3.864.05-5.142,0-.6,0-1.085,0-1.45a3.075,3.075,0,0,0-.023-.515,3.085,3.085,0,0,0-.042.514c-.014.364-.033.848-.055,1.448-.033,1.278-.08,3.044-.135,5.141l.151-.091c-1.607-.824-3.46-1.8-5.422-2.845-3.221-1.721-6.144-3.273-8.288-4.341-1.071-.535-1.945-.955-2.552-1.237l-.7-.318a1.127,1.127,0,0,0-.252-.1" transform="translate(-239.495 -45.001)" fill="#263238"/>
                <path id="Path_10774" data-name="Path 10774" d="M317.543,101.191c-.034.021.231.469.572,1.234a13.627,13.627,0,0,1,1.169,6.355c-.047.835-.135,1.349-.1,1.356a1.127,1.127,0,0,0,.105-.353,8.161,8.161,0,0,0,.156-.99,11.8,11.8,0,0,0-1.185-6.439,8.094,8.094,0,0,0-.5-.87c-.132-.2-.21-.3-.224-.292" transform="translate(-258.029 -48.236)" fill="#263238"/>
                <path id="Path_10775" data-name="Path 10775" d="M297.351,110.153c.035.055.418-.125.855-.4s.765-.545.73-.6-.418.125-.856.4-.764.545-.73.6" transform="translate(-250.56 -51.178)" fill="#263238"/>
                <path id="Path_10776" data-name="Path 10776" d="M296.2,106.736a11.178,11.178,0,0,0,1.024-2.039,11.2,11.2,0,0,0,.809-2.133,22.181,22.181,0,0,0-1.833,4.172" transform="translate(-250.132 -48.744)" fill="#263238"/>
                <path id="Path_10777" data-name="Path 10777" d="M235.542,104.316s-5.225,3.761-5.879,5.839-3.429,35.846-3.919,39.864-.98,11.529,2.123,13.979,9.8,4.286,9.8,4.286l6.185-12.778-3.276-6.858L243.85,123Z" transform="translate(-223.937 -49.392)" fill="#e0e0e0"/>
                <path id="Path_10778" data-name="Path 10778" d="M242.51,178.215a1.654,1.654,0,0,1,.335-.025,8.158,8.158,0,0,0,.961-.062,7.125,7.125,0,0,0,3.343-1.209,9.159,9.159,0,0,0,3.189-4.364,20.021,20.021,0,0,0,1.209-6.873l.029.088-4.8-6.643-.038-.052.008-.065c.021-.17.045-.355.069-.539.923-7.193,1.759-13.7,2.368-18.451.3-2.336.55-4.238.725-5.59q.126-.955.2-1.519a3.482,3.482,0,0,1,.077-.529.417.417,0,0,1,.006.136c0,.089-.005.224-.017.4q-.051.568-.138,1.527c-.132,1.325-.346,3.24-.622,5.6-.552,4.729-1.355,11.257-2.274,18.464-.023.185-.047.369-.069.539l-.03-.117,4.784,6.655.03.042v.046a20.008,20.008,0,0,1-1.275,6.974,9.267,9.267,0,0,1-3.326,4.427,6.445,6.445,0,0,1-1.9.881l-.428.118-.4.069a4.475,4.475,0,0,1-.705.084,6.254,6.254,0,0,1-.972.012,1.605,1.605,0,0,1-.333-.028" transform="translate(-230.273 -59.774)" fill="#263238"/>
                <path id="Path_10779" data-name="Path 10779" d="M232.488,176.9a5.451,5.451,0,0,1,1.372-.975,12.8,12.8,0,0,1,7.883-1.532,5.474,5.474,0,0,1,1.637.391,15.685,15.685,0,0,0-10.891,2.116" transform="translate(-226.565 -75.278)" fill="#263238"/>
                <path id="Path_10780" data-name="Path 10780" d="M281.926,100.943h0c.018,0,.3,1.121.776,3.1a13.954,13.954,0,0,1,4.027-3.853l-.019,0s8.067-8.014,10.644-16.441a40.936,40.936,0,0,0,1.4-12.892c-.074-.323-.7-3.2-1.219-5.548a3.682,3.682,0,0,1,2.661-4.337c4.006-1.079,14.851-3.19,17.338,4.094,3.712,10.868-2.288,22.607-2.223,25.966.011.634.021,1.149.03,1.566,3.179-.736,5.645-1.266,5.657-1.212l0,0,20.882-4.872s6.9-2.088,9.265,4.985-5.662,9.424-5.662,9.424,3.773-.166,4.8,6.267-5.874,8.52-5.874,8.52,4.226-.272,5.319,5.43c1.064,5.55-5.834,8.9-6.2,9.07a13.612,13.612,0,0,1,1.663-.313,9.35,9.35,0,0,1-1.266.364c3.217.411,3.683,4.242,3.683,4.242,2.074,7.856-3.976,9.507-3.976,9.507l-38.125,8.9a21.942,21.942,0,0,1-11.494-.417c.366,1.624.563,2.539.548,2.544l-26.628,6.219c-.059.013-2.933-12.088-6.422-27.026s-6.271-27.063-6.214-27.077Z" transform="translate(-235.003 -32.939)" fill="#43a6e3"/>
                <g id="Group_19998" data-name="Group 19998" transform="translate(20.293 26.901)" opacity="0.3">
                  <g id="Group_19997" data-name="Group 19997">
                    <g id="Group_19996" data-name="Group 19996" clip-path="url(#clip-path-11)">
                      <path id="Path_10781" data-name="Path 10781" d="M281.926,100.943h0c.018,0,.3,1.121.776,3.1a13.954,13.954,0,0,1,4.027-3.853l-.019,0s8.067-8.014,10.644-16.441a40.936,40.936,0,0,0,1.4-12.892c-.074-.323-.7-3.2-1.219-5.548a3.682,3.682,0,0,1,2.661-4.337c4.006-1.079,14.851-3.19,17.338,4.094,3.712,10.868-2.288,22.607-2.223,25.966.011.634.021,1.149.03,1.566,3.179-.736,5.645-1.266,5.657-1.212l0,0,20.882-4.872s6.9-2.088,9.265,4.985-5.662,9.424-5.662,9.424,3.773-.166,4.8,6.267-5.874,8.52-5.874,8.52,4.226-.272,5.319,5.43c1.064,5.55-5.834,8.9-6.2,9.07a13.612,13.612,0,0,1,1.663-.313,9.35,9.35,0,0,1-1.266.364c3.217.411,3.683,4.242,3.683,4.242,2.074,7.856-3.976,9.507-3.976,9.507l-38.125,8.9a21.942,21.942,0,0,1-11.494-.417c.366,1.624.563,2.539.548,2.544l-26.628,6.219c-.059.013-2.933-12.088-6.422-27.026s-6.271-27.063-6.214-27.077Z" transform="translate(-255.296 -59.839)"/>
                    </g>
                  </g>
                </g>
                <path id="Path_10782" data-name="Path 10782" d="M305.429,123.212l-.517,3.462,8.513,36.451a21.95,21.95,0,0,0,17.136,3.09l38.125-8.9s6.048-1.651,3.975-9.507c0,0-.5-4.173-4.1-4.285,0,0,7.314-3.376,6.221-9.078s-5.319-5.43-5.319-5.43,6.9-2.088,5.873-8.52-4.8-6.267-4.8-6.267,8.03-2.351,5.663-9.425-9.266-4.984-9.266-4.984l-27.117,6.327-23.77,5.551a13.941,13.941,0,0,0-10.618,11.518" transform="translate(-253.358 -47.621)" fill="#06b2ff"/>
                <path id="Path_10783" data-name="Path 10783" d="M315.785,98.5s8.067-8.014,10.644-16.441a40.948,40.948,0,0,0,1.405-12.892c-.076-.324-.705-3.2-1.219-5.548a3.68,3.68,0,0,1,2.661-4.337c4.005-1.081,11.233.911,13.72,8.2,3.712,10.868,1.329,18.5,1.394,21.863l.065,3.359Z" transform="translate(-257.38 -32.632)" fill="#06b2ff"/>
                <rect id="Rectangle_8911" data-name="Rectangle 8911" width="27.346" height="55.558" transform="translate(26.993 72.838) rotate(-13.145)" fill="#1098d5"/>
                <path id="Path_10784" data-name="Path 10784" d="M320.828,176.981c.058-.013-2.724-12.137-6.213-27.074s-6.364-27.042-6.422-27.028,2.724,12.134,6.214,27.077,6.364,27.039,6.422,27.025" transform="translate(-254.571 -56.259)" fill="#263238"/>
                <path id="Path_10785" data-name="Path 10785" d="M278.564,186.851c.057-.013-2.724-12.137-6.213-27.075s-6.364-27.042-6.422-27.028,2.724,12.134,6.214,27.077,6.364,27.039,6.422,27.025" transform="translate(-238.936 -59.91)" fill="#263238"/>
                <path id="Path_10786" data-name="Path 10786" d="M291.933,143.7a5.117,5.117,0,1,1-6.146-3.819,5.117,5.117,0,0,1,6.146,3.819" transform="translate(-244.82 -62.498)" fill="#fff"/>
                <path id="Path_10787" data-name="Path 10787" d="M362.6,107.712c-.013-.057-2.929.573-6.509,1.41s-6.475,1.561-6.461,1.619,2.927-.573,6.509-1.41,6.473-1.561,6.46-1.619" transform="translate(-269.9 -50.647)" fill="#263238"/>
                <path id="Path_10788" data-name="Path 10788" d="M403.449,146.526a84.7,84.7,0,0,0-8.289,1.936c.013.057,1.879-.33,4.169-.864a42.418,42.418,0,0,0,4.12-1.072" transform="translate(-286.743 -65.005)" fill="#263238"/>
                <path id="Path_10789" data-name="Path 10789" d="M402.945,122.448c-.013-.057-2.658.511-5.907,1.27s-5.872,1.421-5.858,1.478,2.658-.511,5.907-1.27,5.872-1.421,5.858-1.478" transform="translate(-285.271 -56.098)" fill="#263238"/>
                <path id="Path_10790" data-name="Path 10790" d="M401.7,168.837c-.013-.057-2.658.511-5.907,1.27s-5.872,1.421-5.858,1.478,2.658-.51,5.907-1.27,5.872-1.42,5.858-1.478" transform="translate(-284.809 -73.259)" fill="#263238"/>
                <g id="Group_20001" data-name="Group 20001" transform="translate(71.348 28.307)" opacity="0.3">
                  <g id="Group_20000" data-name="Group 20000">
                    <g id="Group_19999" data-name="Group 19999" clip-path="url(#clip-path-12)">
                      <path id="Path_10791" data-name="Path 10791" d="M337.1,63.1a3.16,3.16,0,0,0-.61,3.17,20.185,20.185,0,0,0,1.455,3.066,11.533,11.533,0,0,1,.891,7.329,2.653,2.653,0,0,0,.113,2.212c.68.845,2.053.376,2.912-.287a10.885,10.885,0,0,0,3.816-11,7.653,7.653,0,0,0-2.688-4.327A4.531,4.531,0,0,0,337.1,63.1" transform="translate(-336.327 -62.071)" fill="#fff"/>
                    </g>
                  </g>
                </g>
                <g id="Group_20004" data-name="Group 20004" transform="translate(91.993 53.074)" opacity="0.3">
                  <g id="Group_20003" data-name="Group 20003">
                    <g id="Group_20002" data-name="Group 20002" clip-path="url(#clip-path-13)">
                      <path id="Path_10792" data-name="Path 10792" d="M393.172,101.443a6.554,6.554,0,0,0-2.816.29l-16.092,4.087c-1.755.445-5.047.842-5.08,2.633a2.128,2.128,0,0,0,1.35,2.483,5.678,5.678,0,0,0,3.077.114c2.152-.344,4.276-.845,6.4-1.351a82.434,82.434,0,0,0,12.577-3.748,5.871,5.871,0,0,0,1.692-.953,2.177,2.177,0,0,0,.8-1.706,2.238,2.238,0,0,0-1.9-1.85" transform="translate(-369.094 -101.38)" fill="#fff"/>
                    </g>
                  </g>
                </g>
                <path id="Path_10793" data-name="Path 10793" d="M289.036,127.638c-.013-.057-3.746.765-8.335,1.837s-8.3,1.987-8.287,2.045,3.744-.765,8.335-1.837,8.3-1.988,8.286-2.045" transform="translate(-241.336 -58.019)" fill="#fff"/>
                <path id="Path_10794" data-name="Path 10794" d="M411.094,133.074a.985.985,0,0,0,.105-.315,4.719,4.719,0,0,0,.138-.894,6.377,6.377,0,0,0-.049-1.345,6.9,6.9,0,0,0-1.218-3.039,6.412,6.412,0,0,0-.894-1.006,4.772,4.772,0,0,0-.717-.552c-.182-.112-.286-.167-.294-.154-.023.033.375.287.906.815a7.293,7.293,0,0,1,.837,1.009,7.318,7.318,0,0,1,1.185,2.957,7.251,7.251,0,0,1,.092,1.307c-.018.749-.132,1.207-.092,1.216" transform="translate(-291.555 -57.328)" fill="#fff"/>
                <path id="Path_10795" data-name="Path 10795" d="M413.781,110.957a1.973,1.973,0,0,0,.5-.716,4.231,4.231,0,0,0-.267-4.081,1.977,1.977,0,0,0-.59-.645c-.028.026.2.267.461.723a4.587,4.587,0,0,1,.258,3.94c-.2.486-.4.755-.364.778" transform="translate(-293.5 -49.836)" fill="#fff"/>
                <path id="Path_10796" data-name="Path 10796" d="M410.583,158.911a2.084,2.084,0,0,0,.716-.707,3.639,3.639,0,0,0-.278-4.561,2.085,2.085,0,0,0-.8-.614c-.023.031.3.241.681.713a3.728,3.728,0,0,1,.267,4.38c-.319.515-.616.762-.59.79" transform="translate(-292.316 -67.412)" fill="#fff"/>
                <path id="Path_10797" data-name="Path 10797" d="M406.809,181.419a2.178,2.178,0,0,0,.483-.758,4.8,4.8,0,0,0-.183-4.225,2.184,2.184,0,0,0-.546-.713c-.03.023.178.294.412.783a5.292,5.292,0,0,1,.178,4.1c-.19.507-.374.8-.343.815" transform="translate(-290.961 -75.808)" fill="#fff"/>
                <path id="Path_10798" data-name="Path 10798" d="M357.687,83.663a3.583,3.583,0,0,0,.159-.616c.047-.2.1-.445.137-.733s.1-.615.131-.981a19.134,19.134,0,0,0,.095-2.574,19.7,19.7,0,0,0-1.2-6.178,19.178,19.178,0,0,0-1.049-2.353c-.162-.329-.341-.609-.488-.861s-.284-.462-.4-.629a3.638,3.638,0,0,0-.377-.512,3.569,3.569,0,0,0,.307.557c.107.173.234.387.369.645s.3.539.456.87a21.237,21.237,0,0,1,1,2.351,20.9,20.9,0,0,1,1.185,6.118,21.207,21.207,0,0,1-.049,2.554c-.018.364-.067.69-.1.978s-.067.534-.1.735a3.642,3.642,0,0,0-.077.631" transform="translate(-271.775 -36.04)" fill="#fff"/>
                <path id="Path_10799" data-name="Path 10799" d="M260.118,192.874s2.094-1.621,3.647-1.689,3.58.541,3.986.338,1.351-1.091,1.959-.343,1.351,3.45-1.891,4.194h-2.229a10.859,10.859,0,0,0,.811,3.107c.54.878,8.106,10.4,8.106,10.4s.946.946.473,1.891-2.5.405-2.5.405a3.226,3.226,0,0,1-3.04.675,11.394,11.394,0,0,1-2.3-1.081,3,3,0,0,1-3.647,0c-1.891-1.419-8.2-9.322-8.2-9.322l2.254-8.849Z" transform="translate(-235.003 -81.417)" fill="#eba483"/>
                <path id="Path_10800" data-name="Path 10800" d="M247.906,185.745l6.565,5.228-4.821,8.578-9.614-3.491s.276-10.131,7.87-10.315" transform="translate(-229.358 -79.516)" fill="#eba483"/>
                <path id="Path_10801" data-name="Path 10801" d="M413.065,166.073s-.207-2.351-1.521-1.867-1.867,3.25-1.867,3.25Z" transform="translate(-292.114 -71.523)" fill="#f8a07d"/>
                <path id="Path_10802" data-name="Path 10802" d="M407.309,169.5a7.445,7.445,0,0,1,5.463-2.351c3.181.207,1.176,2.9,1.176,2.9s2.353,1.452.624,3.526l-.279.553s2.005.76-.069,2.9a2.112,2.112,0,0,1-.277,2.42c-1.038,1.037-3.63-.346-3.63-.346s-2.385.553-2.593-.415a1.847,1.847,0,0,1,.553-1.8c.208-.138,1.452-.622,1.452-.622s-2.766.346-2.835-.345-.345-1.452,1.729-2.144l1.106-.3s-2.868.089-2.886-.6-.156-.968.881-1.452a15.823,15.823,0,0,0,1.867-1.037s-2.7.553-2.282-.9" transform="translate(-291.06 -72.632)" fill="#f8a07d"/>
                <path id="Path_10803" data-name="Path 10803" d="M406.784,173.808a9.784,9.784,0,0,1,7.253-2.05,3.082,3.082,0,0,0-1.13-.243,7.824,7.824,0,0,0-5.288,1.495,3.1,3.1,0,0,0-.835.8" transform="translate(-291.043 -74.24)" fill="#ef856a"/>
                <path id="Path_10804" data-name="Path 10804" d="M407.081,179.735c.016-.02-.067-.088-.133-.247a1.07,1.07,0,0,1,.006-.718,1.61,1.61,0,0,1,.625-.868,3.609,3.609,0,0,1,1.265-.527,29.164,29.164,0,0,1,3.625-.437,3.175,3.175,0,0,0-1.081-.12,11.115,11.115,0,0,0-2.612.28,3.576,3.576,0,0,0-1.353.593,1.756,1.756,0,0,0-.665,1.028,1.1,1.1,0,0,0,.089.821c.113.171.227.207.233.2" transform="translate(-291.02 -76.213)" fill="#ef856a"/>
                <path id="Path_10805" data-name="Path 10805" d="M408.667,184.509c.008-.022-.1-.062-.241-.194a1.174,1.174,0,0,1,.062-1.731,4.714,4.714,0,0,1,1.357-.629,9.046,9.046,0,0,1,2.77-.146,3.425,3.425,0,0,0,1.179-.062,8.336,8.336,0,0,0-1.166-.138,7.63,7.63,0,0,0-2.864.073,4.532,4.532,0,0,0-1.447.7,1.276,1.276,0,0,0-.406.621,1.511,1.511,0,0,0-.029.636,1.157,1.157,0,0,0,.474.761c.181.12.307.122.309.107" transform="translate(-291.443 -77.947)" fill="#ef856a"/>
                <path id="Path_10806" data-name="Path 10806" d="M407.516,169.514c.021,0,.06-.087.2-.217a6.31,6.31,0,0,1,.629-.511,9.01,9.01,0,0,1,2.343-1.26,6.051,6.051,0,0,1,2.612-.379,10.03,10.03,0,0,1,1.064.3,1.885,1.885,0,0,0-1.027-.5,5.446,5.446,0,0,0-2.731.3c-2.067.742-3.265,2.167-3.093,2.26" transform="translate(-291.309 -72.535)" fill="#ef856a"/>
              </g>
            </g>
          </g>
        </g>
      </g>
    </g>
  </g>
</svg>
