<svg xmlns="http://www.w3.org/2000/svg" xmlns:xlink="http://www.w3.org/1999/xlink" width="232" height="232" viewBox="0 0 232 232">
  <defs>
    <linearGradient id="linear-gradient" x1="0.319" x2="0.714" y2="0.764" gradientUnits="objectBoundingBox">
      <stop offset="0" stop-color="#09adfe"/>
      <stop offset="1" stop-color="#0275f9"/>
    </linearGradient>
    <clipPath id="clip-Our_Performance_Measures_in_market">
      <rect width="232" height="232"/>
    </clipPath>
  </defs>
  <g id="Our_Performance_Measures_in_market" data-name="Our Performance Measures in market" clip-path="url(#clip-Our_Performance_Measures_in_market)">
    <rect width="232" height="232" fill="#fff"/>
    <g id="Group_4" data-name="Group 4" transform="translate(403.578 10.737)">
      <path id="Path_20" data-name="Path 20" d="M-403.578,251.053c1.808-3.923,4.915-5.413,9.132-5.008,1.552.149,3.131.024,4.917.024V243.2q0-28.54,0-57.08c0-5.46,2.535-7.849,8.025-8.083,8.217-.351,16.429-.862,24.636-1.419,5-.34,8.112,2.352,8.117,7.372q.024,29.558.007,59.118v2.817h13.6V243.2q0-31.6,0-63.2c0-5.007,1.727-6.993,6.5-8.319q11.977-3.327,23.852-7.019c6.466-2.022,10.43.7,10.431,7.456q0,35.448,0,70.9V245.9h13.595v-2.6c0-27.558.039-55.117-.044-82.675-.012-3.939,1.5-6.4,4.964-8.313,8.181-4.516,16.228-9.284,24.243-14.093,2.642-1.585,5.174-2.5,8.054-.922s3.594,4.174,3.591,7.265q-.055,49.265-.023,98.53v2.835h13.6v-2.691q0-59.8-.042-119.6a10.338,10.338,0,0,1,3.378-7.738c8.36-8.6,16.529-17.386,24.7-26.165,1.606-1.724,3.233-3.144,5.718-3.2a6.727,6.727,0,0,1,7,6.283c.067.826.031,1.66.031,2.491q0,73.729,0,147.456v3.308c2.059,0,4.061,0,6.063,0,4.325.007,6.99,1.842,7.829,5.385.76,3.21-.856,5.988-4.564,7.873-.115.058-.177.22-.264.333H-398.593a10.445,10.445,0,0,1-4.985-4.983Z" transform="translate(0 -38.398)" fill="url(#linear-gradient)"/>
      <path id="Path_21" data-name="Path 21" d="M-403.578,114.336c2.159-4.4,5.7-5.053,10.328-4.723A205.127,205.127,0,0,0-281.962,86.442c24.48-12.748,45.368-29.977,63.376-50.83,9.078-10.513,18.4-20.818,27.606-31.219.33-.373.626-.777,1.218-1.515-5.2,0-9.993.023-14.789-.018a10.721,10.721,0,0,1-3.11-.4A6.693,6.693,0,0,1-212.3-4.73a6.635,6.635,0,0,1,6.2-5.919q14.156-.177,28.315.013a6.025,6.025,0,0,1,5.851,6.055c.182,9.282.317,18.565.345,27.848a6.714,6.714,0,0,1-6.76,6.786,6.821,6.821,0,0,1-6.79-6.777c-.049-1.415-.008-2.832-.008-4.906-1.156,1.275-1.933,2.122-2.7,2.978-10.117,11.309-19.9,22.936-30.41,33.871-31.058,32.324-68.69,53.218-112.37,63.154a213.423,213.423,0,0,1-65.91,4.7c-3.561-.306-5.591-2.173-7.041-5.111Z" fill="url(#linear-gradient)"/>
    </g>
  </g>
</svg>
