<svg xmlns="http://www.w3.org/2000/svg" width="199.39" height="40" viewBox="0 0 199.39 40">
  <g id="Group_119" data-name="Group 119" transform="translate(-27 -39)">
    <text id="P2P_Lending" data-name="P2P Lending" transform="translate(80.39 67)" fill="#4571c4" font-size="24" font-family="Poppins-SemiBold, Poppins" font-weight="600"><tspan x="0" y="0">P</tspan><tspan y="0" fill="#284479">2</tspan><tspan y="0">P Lending</tspan></text>
    <circle id="Ellipse_748" data-name="Ellipse 748" cx="20" cy="20" r="20" transform="translate(27 39)" fill="#4e7ed9"/>
    <g id="peer-to-peer" transform="translate(37.113 49.113)">
      <path id="Path_51295" data-name="Path 51295" d="M353,343.591a1.193,1.193,0,1,0-1.193,1.194A1.195,1.195,0,0,0,353,343.591Z" transform="translate(-337.073 -329.173)" fill="#fff"/>
      <path id="Path_51296" data-name="Path 51296" d="M325.612,436.589a2.339,2.339,0,1,0-4.678,0v.084a5.028,5.028,0,0,0,4.678,0Z" transform="translate(-308.539 -417.476)" fill="#fff"/>
      <path id="Path_51297" data-name="Path 51297" d="M15.188,9.706V3.782h-2.8V2.92L10.052,4.511A5.04,5.04,0,1,0,1.629,8.754a3.513,3.513,0,0,1,1.719-2.29,2.351,2.351,0,1,1,3.384,0A3.513,3.513,0,0,1,8.452,8.754a5.033,5.033,0,0,0,1.629-3.71c0-.113,0-.225-.011-.336l2.319,1.583V5.425h1.159V8.487h0v1.34a5.052,5.052,0,0,0-3.852,4.9c0,.1,0,.208.01.311L7.316,13.41v.89H6.156l.006-4.337a5,5,0,0,0,1.217-.451,2.339,2.339,0,0,0-4.677,0,5,5,0,0,0,1.769.545v5.931H7.315v.884l2.4-1.637A5.037,5.037,0,0,0,11.3,18.423a3.512,3.512,0,0,1,1.737-2.373,2.352,2.352,0,1,1,3.384,0,3.512,3.512,0,0,1,1.737,2.373,5.043,5.043,0,0,0-2.976-8.717Z" fill="#fff"/>
      <path id="Path_51298" data-name="Path 51298" d="M102.005,95.4a1.193,1.193,0,1,0-1.193,1.194A1.195,1.195,0,0,0,102.005,95.4Z" transform="translate(-95.773 -90.568)" fill="#fff"/>
    </g>
  </g>
</svg>
