<svg xmlns="http://www.w3.org/2000/svg" width="43.706" height="49.858" viewBox="0 0 43.706 49.858">
  <g id="paper" transform="translate(-18.149 -11.908)">
    <path id="Path_14979" data-name="Path 14979" d="M57.248,67.428h-34.3a4.8,4.8,0,0,1-4.8-4.8v-35.9A3.66,3.66,0,0,1,21.8,23.071H50.662a3.66,3.66,0,0,1,3.655,3.655V60.189H52.347V26.726a1.686,1.686,0,0,0-1.684-1.684H21.8a1.686,1.686,0,0,0-1.684,1.684v35.9a2.831,2.831,0,0,0,2.828,2.828h34.3Z" transform="translate(0 -5.663)" fill="#222872"/>
    <path id="Path_14980" data-name="Path 14980" d="M32.349,51.585h11.8v1.971h-11.8Z" transform="translate(-7.203 -20.127)" fill="#009eff"/>
    <path id="Path_14981" data-name="Path 14981" d="M32.349,67.106H55.755v1.971H32.349Z" transform="translate(-7.203 -28)" fill="#009eff"/>
    <path id="Path_14982" data-name="Path 14982" d="M32.349,82.628H55.755V84.6H32.349Z" transform="translate(-7.203 -35.874)" fill="#009eff"/>
    <path id="Path_14983" data-name="Path 14983" d="M69.406,49.026H67.435V15.563a1.686,1.686,0,0,0-1.684-1.684H36.893V11.908H65.751a3.659,3.659,0,0,1,3.655,3.655Z" transform="translate(-9.508)" fill="#222872"/>
    <path id="Path_14984" data-name="Path 14984" d="M63.184,104.625v-1.971a2.64,2.64,0,0,0,2.637-2.637V98.371H34.457v1.645a4.613,4.613,0,0,1-4.607,4.608v-1.971a2.64,2.64,0,0,0,2.636-2.637v-2.63a.985.985,0,0,1,.985-.985H66.805a.985.985,0,0,1,.985.985v2.63A4.614,4.614,0,0,1,63.184,104.625Z" transform="translate(-5.935 -42.86)" fill="#222872"/>
  </g>
</svg>
