<svg xmlns="http://www.w3.org/2000/svg" xmlns:xlink="http://www.w3.org/1999/xlink" width="97" height="127" viewBox="0 0 97 127">
  <defs>
    <clipPath id="clip-path">
      <rect width="97" height="127" fill="none"/>
    </clipPath>
  </defs>
  <g id="Repeat_Grid_1" data-name="Repeat Grid 1" clip-path="url(#clip-path)">
    <g transform="translate(-519 -1322)">
      <circle id="Ellipse_5" data-name="Ellipse 5" cx="2" cy="2" r="2" transform="translate(519 1322)" fill="#a9bdec"/>
    </g>
    <g transform="translate(-501 -1322)">
      <circle id="Ellipse_5-2" data-name="Ellipse 5" cx="2" cy="2" r="2" transform="translate(519 1322)" fill="#a9bdec"/>
    </g>
    <g transform="translate(-483 -1322)">
      <circle id="Ellipse_5-3" data-name="Ellipse 5" cx="2" cy="2" r="2" transform="translate(519 1322)" fill="#a9bdec"/>
    </g>
    <g transform="translate(-465 -1322)">
      <circle id="Ellipse_5-4" data-name="Ellipse 5" cx="2" cy="2" r="2" transform="translate(519 1322)" fill="#a9bdec"/>
    </g>
    <g transform="translate(-447 -1322)">
      <circle id="Ellipse_5-5" data-name="Ellipse 5" cx="2" cy="2" r="2" transform="translate(519 1322)" fill="#a9bdec"/>
    </g>
    <g transform="translate(-429 -1322)">
      <circle id="Ellipse_5-6" data-name="Ellipse 5" cx="2" cy="2" r="2" transform="translate(519 1322)" fill="#a9bdec"/>
    </g>
    <g transform="translate(-519 -1305)">
      <circle id="Ellipse_5-7" data-name="Ellipse 5" cx="2" cy="2" r="2" transform="translate(519 1322)" fill="#a9bdec"/>
    </g>
    <g transform="translate(-501 -1305)">
      <circle id="Ellipse_5-8" data-name="Ellipse 5" cx="2" cy="2" r="2" transform="translate(519 1322)" fill="#a9bdec"/>
    </g>
    <g transform="translate(-483 -1305)">
      <circle id="Ellipse_5-9" data-name="Ellipse 5" cx="2" cy="2" r="2" transform="translate(519 1322)" fill="#a9bdec"/>
    </g>
    <g transform="translate(-465 -1305)">
      <circle id="Ellipse_5-10" data-name="Ellipse 5" cx="2" cy="2" r="2" transform="translate(519 1322)" fill="#a9bdec"/>
    </g>
    <g transform="translate(-447 -1305)">
      <circle id="Ellipse_5-11" data-name="Ellipse 5" cx="2" cy="2" r="2" transform="translate(519 1322)" fill="#a9bdec"/>
    </g>
    <g transform="translate(-429 -1305)">
      <circle id="Ellipse_5-12" data-name="Ellipse 5" cx="2" cy="2" r="2" transform="translate(519 1322)" fill="#a9bdec"/>
    </g>
    <g transform="translate(-519 -1288)">
      <circle id="Ellipse_5-13" data-name="Ellipse 5" cx="2" cy="2" r="2" transform="translate(519 1322)" fill="#a9bdec"/>
    </g>
    <g transform="translate(-501 -1288)">
      <circle id="Ellipse_5-14" data-name="Ellipse 5" cx="2" cy="2" r="2" transform="translate(519 1322)" fill="#a9bdec"/>
    </g>
    <g transform="translate(-483 -1288)">
      <circle id="Ellipse_5-15" data-name="Ellipse 5" cx="2" cy="2" r="2" transform="translate(519 1322)" fill="#a9bdec"/>
    </g>
    <g transform="translate(-465 -1288)">
      <circle id="Ellipse_5-16" data-name="Ellipse 5" cx="2" cy="2" r="2" transform="translate(519 1322)" fill="#a9bdec"/>
    </g>
    <g transform="translate(-447 -1288)">
      <circle id="Ellipse_5-17" data-name="Ellipse 5" cx="2" cy="2" r="2" transform="translate(519 1322)" fill="#a9bdec"/>
    </g>
    <g transform="translate(-429 -1288)">
      <circle id="Ellipse_5-18" data-name="Ellipse 5" cx="2" cy="2" r="2" transform="translate(519 1322)" fill="#a9bdec"/>
    </g>
    <g transform="translate(-519 -1271)">
      <circle id="Ellipse_5-19" data-name="Ellipse 5" cx="2" cy="2" r="2" transform="translate(519 1322)" fill="#a9bdec"/>
    </g>
    <g transform="translate(-501 -1271)">
      <circle id="Ellipse_5-20" data-name="Ellipse 5" cx="2" cy="2" r="2" transform="translate(519 1322)" fill="#a9bdec"/>
    </g>
    <g transform="translate(-483 -1271)">
      <circle id="Ellipse_5-21" data-name="Ellipse 5" cx="2" cy="2" r="2" transform="translate(519 1322)" fill="#a9bdec"/>
    </g>
    <g transform="translate(-465 -1271)">
      <circle id="Ellipse_5-22" data-name="Ellipse 5" cx="2" cy="2" r="2" transform="translate(519 1322)" fill="#a9bdec"/>
    </g>
    <g transform="translate(-447 -1271)">
      <circle id="Ellipse_5-23" data-name="Ellipse 5" cx="2" cy="2" r="2" transform="translate(519 1322)" fill="#a9bdec"/>
    </g>
    <g transform="translate(-429 -1271)">
      <circle id="Ellipse_5-24" data-name="Ellipse 5" cx="2" cy="2" r="2" transform="translate(519 1322)" fill="#a9bdec"/>
    </g>
    <g transform="translate(-519 -1254)">
      <circle id="Ellipse_5-25" data-name="Ellipse 5" cx="2" cy="2" r="2" transform="translate(519 1322)" fill="#a9bdec"/>
    </g>
    <g transform="translate(-501 -1254)">
      <circle id="Ellipse_5-26" data-name="Ellipse 5" cx="2" cy="2" r="2" transform="translate(519 1322)" fill="#a9bdec"/>
    </g>
    <g transform="translate(-483 -1254)">
      <circle id="Ellipse_5-27" data-name="Ellipse 5" cx="2" cy="2" r="2" transform="translate(519 1322)" fill="#a9bdec"/>
    </g>
    <g transform="translate(-465 -1254)">
      <circle id="Ellipse_5-28" data-name="Ellipse 5" cx="2" cy="2" r="2" transform="translate(519 1322)" fill="#a9bdec"/>
    </g>
    <g transform="translate(-447 -1254)">
      <circle id="Ellipse_5-29" data-name="Ellipse 5" cx="2" cy="2" r="2" transform="translate(519 1322)" fill="#a9bdec"/>
    </g>
    <g transform="translate(-429 -1254)">
      <circle id="Ellipse_5-30" data-name="Ellipse 5" cx="2" cy="2" r="2" transform="translate(519 1322)" fill="#a9bdec"/>
    </g>
    <g transform="translate(-519 -1237)">
      <circle id="Ellipse_5-31" data-name="Ellipse 5" cx="2" cy="2" r="2" transform="translate(519 1322)" fill="#a9bdec"/>
    </g>
    <g transform="translate(-501 -1237)">
      <circle id="Ellipse_5-32" data-name="Ellipse 5" cx="2" cy="2" r="2" transform="translate(519 1322)" fill="#a9bdec"/>
    </g>
    <g transform="translate(-483 -1237)">
      <circle id="Ellipse_5-33" data-name="Ellipse 5" cx="2" cy="2" r="2" transform="translate(519 1322)" fill="#a9bdec"/>
    </g>
    <g transform="translate(-465 -1237)">
      <circle id="Ellipse_5-34" data-name="Ellipse 5" cx="2" cy="2" r="2" transform="translate(519 1322)" fill="#a9bdec"/>
    </g>
    <g transform="translate(-447 -1237)">
      <circle id="Ellipse_5-35" data-name="Ellipse 5" cx="2" cy="2" r="2" transform="translate(519 1322)" fill="#a9bdec"/>
    </g>
    <g transform="translate(-429 -1237)">
      <circle id="Ellipse_5-36" data-name="Ellipse 5" cx="2" cy="2" r="2" transform="translate(519 1322)" fill="#a9bdec"/>
    </g>
    <g transform="translate(-519 -1220)">
      <circle id="Ellipse_5-37" data-name="Ellipse 5" cx="2" cy="2" r="2" transform="translate(519 1322)" fill="#a9bdec"/>
    </g>
    <g transform="translate(-501 -1220)">
      <circle id="Ellipse_5-38" data-name="Ellipse 5" cx="2" cy="2" r="2" transform="translate(519 1322)" fill="#a9bdec"/>
    </g>
    <g transform="translate(-483 -1220)">
      <circle id="Ellipse_5-39" data-name="Ellipse 5" cx="2" cy="2" r="2" transform="translate(519 1322)" fill="#a9bdec"/>
    </g>
    <g transform="translate(-465 -1220)">
      <circle id="Ellipse_5-40" data-name="Ellipse 5" cx="2" cy="2" r="2" transform="translate(519 1322)" fill="#a9bdec"/>
    </g>
    <g transform="translate(-447 -1220)">
      <circle id="Ellipse_5-41" data-name="Ellipse 5" cx="2" cy="2" r="2" transform="translate(519 1322)" fill="#a9bdec"/>
    </g>
    <g transform="translate(-429 -1220)">
      <circle id="Ellipse_5-42" data-name="Ellipse 5" cx="2" cy="2" r="2" transform="translate(519 1322)" fill="#a9bdec"/>
    </g>
    <g transform="translate(-519 -1203)">
      <circle id="Ellipse_5-43" data-name="Ellipse 5" cx="2" cy="2" r="2" transform="translate(519 1322)" fill="#a9bdec"/>
    </g>
    <g transform="translate(-501 -1203)">
      <circle id="Ellipse_5-44" data-name="Ellipse 5" cx="2" cy="2" r="2" transform="translate(519 1322)" fill="#a9bdec"/>
    </g>
    <g transform="translate(-483 -1203)">
      <circle id="Ellipse_5-45" data-name="Ellipse 5" cx="2" cy="2" r="2" transform="translate(519 1322)" fill="#a9bdec"/>
    </g>
    <g transform="translate(-465 -1203)">
      <circle id="Ellipse_5-46" data-name="Ellipse 5" cx="2" cy="2" r="2" transform="translate(519 1322)" fill="#a9bdec"/>
    </g>
    <g transform="translate(-447 -1203)">
      <circle id="Ellipse_5-47" data-name="Ellipse 5" cx="2" cy="2" r="2" transform="translate(519 1322)" fill="#a9bdec"/>
    </g>
    <g transform="translate(-429 -1203)">
      <circle id="Ellipse_5-48" data-name="Ellipse 5" cx="2" cy="2" r="2" transform="translate(519 1322)" fill="#a9bdec"/>
    </g>
  </g>
</svg>
