<svg xmlns="http://www.w3.org/2000/svg" width="20.232" height="20.228" viewBox="0 0 20.232 20.228">
  <path id="phone-1" d="M37.569,33.6l-.1-.3a2.844,2.844,0,0,0-1.738-1.643l-2.658-.726a2.6,2.6,0,0,0-2.276.595l-.962.962A10.2,10.2,0,0,1,22.653,25.3l.962-.962a2.6,2.6,0,0,0,.595-2.275l-.725-2.659a2.841,2.841,0,0,0-1.644-1.737l-.3-.1a2.412,2.412,0,0,0-2.247.53l-1.439,1.44a2.684,2.684,0,0,0-.421.99A16.983,16.983,0,0,0,34.567,37.705a2.673,2.673,0,0,0,1.034-.417l1.439-1.439A2.412,2.412,0,0,0,37.569,33.6Z" transform="translate(-17.429 -17.478)" fill="#06b2ff"/>
</svg>
