<svg xmlns="http://www.w3.org/2000/svg" width="21.468" height="21.468" viewBox="0 0 21.468 21.468">
  <path id="Path_3855" data-name="Path 3855" d="M18.323,3.142a10.734,10.734,0,1,0,3.145,7.589A10.734,10.734,0,0,0,18.323,3.142Zm-2.067,11.81h0v0l-.544.54a2.862,2.862,0,0,1-2.7.773,9.511,9.511,0,0,1-2.762-1.238,12.763,12.763,0,0,1-2.179-1.757A12.861,12.861,0,0,1,6.44,11.293,10.017,10.017,0,0,1,5.216,8.817a2.862,2.862,0,0,1,.716-2.923l.637-.637a.454.454,0,0,1,.643,0h0L9.224,7.268a.454.454,0,0,1,0,.643h0L8.043,9.093a.962.962,0,0,0-.1,1.252,13.809,13.809,0,0,0,1.413,1.649,13.724,13.724,0,0,0,1.861,1.564.97.97,0,0,0,1.238-.107L13.6,12.292a.454.454,0,0,1,.643,0h0l2.014,2.018A.454.454,0,0,1,16.256,14.952Z" transform="translate(0 0)" fill="#06b2ff"/>
</svg>
