<svg xmlns="http://www.w3.org/2000/svg" width="470.183" height="411.752" viewBox="0 0 470.183 411.752">
  <g id="Group_69725" data-name="Group 69725" transform="translate(-673.032 -514.802)">
    <g id="Group_69724" data-name="Group 69724" transform="translate(673.032 514.802)">
      <g id="Group_69717" data-name="Group 69717" transform="translate(64.038 90.553)">
        <path id="Path_50221" data-name="Path 50221" d="M886.919,1134.345l-.252-306.519a10.607,10.607,0,0,1,10.6-10.615l384.68-.316a10.606,10.606,0,0,1,10.615,10.6l.252,306.519Z" transform="translate(-886.667 -816.895)" fill="#253099"/>
        <path id="Path_50222" data-name="Path 50222" d="M1301.164,1197.311l-394.249.324.368-281.712,394.249-.324Z" transform="translate(-900.846 -886.013)" fill="#4299f6"/>
        <path id="Path_50225" data-name="Path 50225" d="M1047.08,1101.747l-56.606.047a6.272,6.272,0,0,1-6.277-6.266h0a6.272,6.272,0,0,1,6.266-6.276l56.606-.047a6.272,6.272,0,0,1,6.276,6.266h0A6.271,6.271,0,0,1,1047.08,1101.747Z" transform="translate(-954.962 -1007.579)" fill="#d1d1d1"/>
        <path id="Path_50243" data-name="Path 50243" d="M1078.632,1528.973l-87.807.073a6.272,6.272,0,0,1-6.277-6.266h0a6.271,6.271,0,0,1,6.266-6.276l87.807-.073a6.272,6.272,0,0,1,6.276,6.266h0A6.271,6.271,0,0,1,1078.632,1528.973Z" transform="translate(-955.209 -1306.743)" fill="#d1d1d1"/>
        <path id="Path_50244" data-name="Path 50244" d="M1044.741,1590.111l-53.865.045a6.271,6.271,0,0,1-6.276-6.266h0a6.271,6.271,0,0,1,6.266-6.276l53.865-.044a6.271,6.271,0,0,1,6.276,6.266h0A6.271,6.271,0,0,1,1044.741,1590.111Z" transform="translate(-955.244 -1349.554)" fill="#d1d1d1"/>
        <g id="Group_69728" data-name="Group 69728" style="mix-blend-mode: multiply;isolation: isolate">
          <g id="Group_69727" data-name="Group 69727">
            <g id="Group_69726" data-name="Group 69726">
              <path id="Path_50223" data-name="Path 50223" d="M1159.136,979.349l-168.761.139a6.271,6.271,0,0,1-6.276-6.266h0a6.271,6.271,0,0,1,6.266-6.276l168.761-.139a6.271,6.271,0,0,1,6.276,6.266h0A6.271,6.271,0,0,1,1159.136,979.349Z" transform="translate(-954.893 -921.871)" fill="#d1d1d1"/>
              <path id="Path_50224" data-name="Path 50224" d="M1122.187,1040.5l-131.763.108a6.271,6.271,0,0,1-6.276-6.266h0a6.271,6.271,0,0,1,6.266-6.276l131.763-.109a6.271,6.271,0,0,1,6.276,6.266h0A6.271,6.271,0,0,1,1122.187,1040.5Z" transform="translate(-954.928 -964.688)" fill="#d1d1d1"/>
              <path id="Path_50226" data-name="Path 50226" d="M1094.705,1162.661l-104.181.086a6.272,6.272,0,0,1-6.276-6.266h0a6.271,6.271,0,0,1,6.266-6.277l104.181-.086a6.271,6.271,0,0,1,6.276,6.266h0A6.272,6.272,0,0,1,1094.705,1162.661Z" transform="translate(-954.998 -1050.234)" fill="#d1d1d1"/>
              <path id="Path_50227" data-name="Path 50227" d="M1430.243,1162.526l-31.1.026a6.271,6.271,0,0,1-6.276-6.266h0a6.271,6.271,0,0,1,6.266-6.276l31.1-.026a6.271,6.271,0,0,1,6.276,6.266h0A6.271,6.271,0,0,1,1430.243,1162.526Z" transform="translate(-1241.134 -1050.139)" fill="#d1d1d1"/>
              <path id="Path_50228" data-name="Path 50228" d="M1593.058,1162.391l-31.1.026a6.271,6.271,0,0,1-6.277-6.266h0a6.272,6.272,0,0,1,6.266-6.276l31.1-.025a6.271,6.271,0,0,1,6.276,6.266h0A6.271,6.271,0,0,1,1593.058,1162.391Z" transform="translate(-1355.146 -1050.045)" fill="#d1d1d1"/>
              <path id="Path_50229" data-name="Path 50229" d="M1525.207,1040.358l-31.1.025a6.271,6.271,0,0,1-6.276-6.266h0a6.271,6.271,0,0,1,6.266-6.276l31.1-.025a6.272,6.272,0,0,1,6.276,6.266h0A6.271,6.271,0,0,1,1525.207,1040.358Z" transform="translate(-1307.632 -964.592)" fill="#d1d1d1"/>
              <path id="Path_50230" data-name="Path 50230" d="M1688.374,1040.223l-31.1.026a6.272,6.272,0,0,1-6.276-6.266h0a6.27,6.27,0,0,1,6.266-6.276l31.1-.026a6.271,6.271,0,0,1,6.276,6.266h0A6.271,6.271,0,0,1,1688.374,1040.223Z" transform="translate(-1421.889 -964.498)" fill="#d1d1d1"/>
              <path id="Path_50231" data-name="Path 50231" d="M1854.354,1040.088l-31.1.026a6.271,6.271,0,0,1-6.277-6.266h0a6.271,6.271,0,0,1,6.266-6.276l31.1-.026a6.27,6.27,0,0,1,6.276,6.266h0A6.271,6.271,0,0,1,1854.354,1040.088Z" transform="translate(-1538.116 -964.402)" fill="#d1d1d1"/>
              <path id="Path_50232" data-name="Path 50232" d="M1752.123,1162.26l-31.1.025a6.271,6.271,0,0,1-6.276-6.266h0a6.271,6.271,0,0,1,6.266-6.276l31.1-.026a6.271,6.271,0,0,1,6.276,6.266h0A6.271,6.271,0,0,1,1752.123,1162.26Z" transform="translate(-1466.529 -1049.953)" fill="#d1d1d1"/>
              <path id="Path_50233" data-name="Path 50233" d="M1911.071,1162.129l-31.1.026a6.272,6.272,0,0,1-6.276-6.266h0a6.271,6.271,0,0,1,6.266-6.276l31.1-.026a6.27,6.27,0,0,1,6.276,6.266h0A6.271,6.271,0,0,1,1911.071,1162.129Z" transform="translate(-1577.832 -1049.861)" fill="#d1d1d1"/>
              <path id="Path_50234" data-name="Path 50234" d="M1255.047,1223.266l-264.473.217a6.271,6.271,0,0,1-6.276-6.266h0a6.272,6.272,0,0,1,6.266-6.277l264.473-.217a6.271,6.271,0,0,1,6.276,6.266h0A6.271,6.271,0,0,1,1255.047,1223.266Z" transform="translate(-955.033 -1092.672)" fill="#d1d1d1"/>
              <path id="Path_50235" data-name="Path 50235" d="M1138.483,1284.631l-147.859.121a6.271,6.271,0,0,1-6.277-6.266h0a6.271,6.271,0,0,1,6.266-6.276l147.859-.121a6.271,6.271,0,0,1,6.276,6.266h0A6.271,6.271,0,0,1,1138.483,1284.631Z" transform="translate(-955.067 -1135.643)" fill="#d1d1d1"/>
              <path id="Path_50236" data-name="Path 50236" d="M1116.43,1345.735l-125.754.1a6.271,6.271,0,0,1-6.276-6.266h0a6.271,6.271,0,0,1,6.266-6.276l125.754-.1a6.271,6.271,0,0,1,6.276,6.266h0A6.271,6.271,0,0,1,1116.43,1345.735Z" transform="translate(-955.104 -1178.432)" fill="#d1d1d1"/>
              <path id="Path_50237" data-name="Path 50237" d="M1546.048,1345.47l-79.937.066a6.271,6.271,0,0,1-6.276-6.266h0a6.271,6.271,0,0,1,6.266-6.277l79.936-.065a6.271,6.271,0,0,1,6.276,6.266h0A6.271,6.271,0,0,1,1546.048,1345.47Z" transform="translate(-1288.026 -1178.246)" fill="#d1d1d1"/>
              <path id="Path_50238" data-name="Path 50238" d="M1868.631,1345.2l-79.937.066a6.272,6.272,0,0,1-6.276-6.266h0a6.271,6.271,0,0,1,6.266-6.276l79.936-.066a6.271,6.271,0,0,1,6.276,6.266h0A6.271,6.271,0,0,1,1868.631,1345.2Z" transform="translate(-1513.914 -1178.061)" fill="#d1d1d1"/>
              <path id="Path_50239" data-name="Path 50239" d="M1192.4,1406.572l-201.677.166a6.271,6.271,0,0,1-6.276-6.266h0a6.271,6.271,0,0,1,6.266-6.277l201.677-.166a6.271,6.271,0,0,1,6.276,6.266h0A6.271,6.271,0,0,1,1192.4,1406.572Z" transform="translate(-955.139 -1221.031)" fill="#d1d1d1"/>
              <path id="Path_50240" data-name="Path 50240" d="M1775.824,1406.375l-54.6.045a6.271,6.271,0,0,1-6.276-6.266h0a6.272,6.272,0,0,1,6.266-6.277l54.6-.044a6.27,6.27,0,0,1,6.276,6.266h0A6.271,6.271,0,0,1,1775.824,1406.375Z" transform="translate(-1466.671 -1220.895)" fill="#d1d1d1"/>
              <path id="Path_50241" data-name="Path 50241" d="M1152.79,1467.725l-162.015.133a6.272,6.272,0,0,1-6.277-6.266h0a6.272,6.272,0,0,1,6.266-6.276l162.015-.133a6.272,6.272,0,0,1,6.277,6.266h0A6.271,6.271,0,0,1,1152.79,1467.725Z" transform="translate(-955.173 -1263.855)" fill="#d1d1d1"/>
              <path id="Path_50242" data-name="Path 50242" d="M1627.813,1467.571l-38.757.032a6.272,6.272,0,0,1-6.277-6.266h0a6.272,6.272,0,0,1,6.266-6.276l38.757-.031a6.271,6.271,0,0,1,6.276,6.266h0A6.271,6.271,0,0,1,1627.813,1467.571Z" transform="translate(-1374.117 -1263.746)" fill="#d1d1d1"/>
              <path id="Path_50245" data-name="Path 50245" d="M1261.379,1589.978,1230.7,1590a6.271,6.271,0,0,1-6.276-6.266h0a6.271,6.271,0,0,1,6.266-6.276l30.676-.025a6.271,6.271,0,0,1,6.276,6.266h0A6.27,6.27,0,0,1,1261.379,1589.978Z" transform="translate(-1123.183 -1349.463)" fill="#d1d1d1"/>
              <path id="Path_50246" data-name="Path 50246" d="M1421.733,1589.846l-30.675.025a6.271,6.271,0,0,1-6.277-6.266h0a6.271,6.271,0,0,1,6.266-6.276l30.676-.025a6.271,6.271,0,0,1,6.277,6.266h0A6.272,6.272,0,0,1,1421.733,1589.846Z" transform="translate(-1235.47 -1349.369)" fill="#d1d1d1"/>
              <path id="Path_50247" data-name="Path 50247" d="M1583.494,1589.713l-30.675.025a6.271,6.271,0,0,1-6.276-6.266h0a6.271,6.271,0,0,1,6.266-6.276l30.675-.025a6.271,6.271,0,0,1,6.277,6.266h0A6.271,6.271,0,0,1,1583.494,1589.713Z" transform="translate(-1348.743 -1349.275)" fill="#d1d1d1"/>
              <path id="Path_50248" data-name="Path 50248" d="M1135.794,1650.906l-144.868.119a6.272,6.272,0,0,1-6.276-6.266h0a6.272,6.272,0,0,1,6.266-6.276l144.868-.119a6.272,6.272,0,0,1,6.276,6.266h0A6.271,6.271,0,0,1,1135.794,1650.906Z" transform="translate(-955.278 -1392.127)" fill="#d1d1d1"/>
              <path id="Path_50249" data-name="Path 50249" d="M1580.926,1650.723l-49.859.041a6.271,6.271,0,0,1-6.277-6.266h0a6.271,6.271,0,0,1,6.266-6.277l49.86-.041a6.272,6.272,0,0,1,6.277,6.266h0A6.271,6.271,0,0,1,1580.926,1650.723Z" transform="translate(-1333.511 -1391.998)" fill="#d1d1d1"/>
              <path id="Path_50250" data-name="Path 50250" d="M1801.765,1650.542l-49.86.041a6.271,6.271,0,0,1-6.276-6.266h0a6.271,6.271,0,0,1,6.266-6.276l49.86-.041a6.271,6.271,0,0,1,6.277,6.266h0A6.272,6.272,0,0,1,1801.765,1650.542Z" transform="translate(-1488.152 -1391.871)" fill="#d1d1d1"/>
              <path id="Path_50251" data-name="Path 50251" d="M1068.664,1712.136l-77.688.063a6.271,6.271,0,0,1-6.276-6.266h0a6.271,6.271,0,0,1,6.266-6.276l77.688-.064a6.271,6.271,0,0,1,6.276,6.266h0A6.271,6.271,0,0,1,1068.664,1712.136Z" transform="translate(-955.314 -1435.002)" fill="#d1d1d1"/>
              <path id="Path_50252" data-name="Path 50252" d="M1339.007,1712l-30.605.025a6.272,6.272,0,0,1-6.276-6.266h0a6.271,6.271,0,0,1,6.266-6.276l30.605-.025a6.271,6.271,0,0,1,6.276,6.266h0A6.272,6.272,0,0,1,1339.007,1712Z" transform="translate(-1177.591 -1434.91)" fill="#d1d1d1"/>
              <path id="Path_50253" data-name="Path 50253" d="M1497.016,1711.874l-30.6.025a6.271,6.271,0,0,1-6.276-6.266h0a6.271,6.271,0,0,1,6.266-6.276l30.6-.025a6.272,6.272,0,0,1,6.276,6.266h0A6.272,6.272,0,0,1,1497.016,1711.874Z" transform="translate(-1288.236 -1434.818)" fill="#d1d1d1"/>
            </g>
          </g>
        </g>
        <path id="Path_50254" data-name="Path 50254" d="M2064.668,873.233h0a3.432,3.432,0,0,1-3.434-3.428h0a3.432,3.432,0,0,1,3.428-3.434h0a3.431,3.431,0,0,1,3.434,3.428h0A3.431,3.431,0,0,1,2064.668,873.233Z" transform="translate(-1709.155 -851.541)" fill="#9bc1f9"/>
        <path id="Path_50255" data-name="Path 50255" d="M2114.9,862.758h0a5.663,5.663,0,0,1-5.668-5.658h0a5.663,5.663,0,0,1,5.658-5.667h0a5.663,5.663,0,0,1,5.667,5.658h0A5.663,5.663,0,0,1,2114.9,862.758Z" transform="translate(-1742.766 -841.08)" fill="#9bc1f9"/>
        <path id="Path_50256" data-name="Path 50256" d="M2176.162,857.1h0a6.862,6.862,0,0,1-6.868-6.856h0a6.862,6.862,0,0,1,6.856-6.868h0a6.862,6.862,0,0,1,6.868,6.856h0A6.862,6.862,0,0,1,2176.162,857.1Z" transform="translate(-1784.823 -835.436)" fill="#dd513a"/>
      </g>
      <g id="Group_69720" data-name="Group 69720" transform="translate(0 87.308)">
        <path id="Path_50257" data-name="Path 50257" d="M692.792,1605.806h-6.206l23.126-120.163,5.159.981Z" transform="translate(-682.524 -1281.938)" fill="#0e2e35"/>
        <path id="Path_50258" data-name="Path 50258" d="M1226.032,1605.266l5.159-.981L1208.9,1485.643l-5.159.981Z" transform="translate(-1044.659 -1281.938)" fill="#0e2e35"/>
        <path id="Path_50259" data-name="Path 50259" d="M1071.8,1605.806H1065.6l23.125-120.163,5.159.981Z" transform="translate(-947.925 -1281.938)" fill="#0e2e35"/>
        <path id="Path_50260" data-name="Path 50260" d="M843.836,1607.066l5.038.06L826.7,1487.443l-5.159.981Z" transform="translate(-777.028 -1283.199)" fill="#0e2e35"/>
        <path id="Path_50261" data-name="Path 50261" d="M762.349,944.565c-20.429,2.2-46.867,4.511-73.408,49.7-29.008,49.394-13.738,123.175,9.157,143.678s97.671,45.819,160.53,7.92c0,0,37.955-22.968,18.476-61.085-29.976-58.659-25.74-70.891-39.143-93.879S805.713,939.905,762.349,944.565Z" transform="translate(-673.032 -902.691)" fill="#fae0b2"/>
        <path id="Path_50262" data-name="Path 50262" d="M688.941,1003.638c18.115-30.846,36.182-41.715,52.323-46.207a135.6,135.6,0,0,0-18.908,25.611c-29.007,49.393-13.738,123.175,9.157,143.678,20.3,18.183,81.408,40.142,138.821,18.45a58.391,58.391,0,0,1-11.7,10.065c-62.859,37.9-137.635,12.584-160.53-7.92S659.934,1053.031,688.941,1003.638Z" transform="translate(-673.032 -912.059)" fill="#f7cc7f"/>
        <g id="Group_69719" data-name="Group 69719" transform="translate(52.905)">
          <path id="Path_50263" data-name="Path 50263" d="M1164.694,1196.223l5.251,15.806-16-6.315Z" transform="translate(-1062.694 -1079.273)" fill="#f79c8d"/>
          <path id="Path_50264" data-name="Path 50264" d="M1110.919,1039.3c1.067.044,3.99,1.022,8.265,9.1,5.459,10.317,13.438,41.484,13.438,41.484l-23.816,8.87-3.06-6.505-5.039-50.081S1110.623,1039.292,1110.919,1039.3Z" transform="translate(-1025.415 -969.391)" fill="#04a1fe"/>
          <path id="Path_50265" data-name="Path 50265" d="M931.072,1024.317c6.81.009,23.661,2,31.482,4.495,0,0,5.746,49.383-5.173,86.907-2.444,8.4,2.022,34.821,2.022,34.821l-70.571-.931s8.36-63.873,5.211-74.19-3.225-46.274-3.225-46.274.483-.075,15.855-2.732A159.678,159.678,0,0,1,931.072,1024.317Z" transform="translate(-877.051 -958.896)" fill="#04a1fe"/>
          <path id="Path_50266" data-name="Path 50266" d="M955.457,1751.179s1.561,18.019,4.432,23.009-.151,13.473-.3,14.637-6.043,2.828-15.41,1.83-9.216-3.16-8.461-6.653,5.741-7.984,6.043-11.31-2.871-15.3-2.871-15.3Z" transform="translate(-909.659 -1467.879)" fill="#f7a491"/>
          <path id="Path_50267" data-name="Path 50267" d="M948.629,1393.2s48.715-2.705,59.593,3.883-1.967,20.117-1.967,20.117S966.6,1434.448,900.2,1438.28c-15.722.908-17.078-41-14.138-44.464S948.629,1393.2,948.629,1393.2Z" transform="translate(-874.239 -1216.435)" fill="#191d67"/>
          <path id="Path_50268" data-name="Path 50268" d="M941.667,1848.338c-9.645-1.028-8.453-5.766-7.674-9.363.487-2.252,3.254-4.907,4.9-7.419.862.687,2.265,1.9,6.454,3.137,4.35,1.285,10.312-1.258,14.112-2.851a46.6,46.6,0,0,1,1.29,12.442C960.594,1845.483,951.312,1849.365,941.667,1848.338Z" transform="translate(-908.318 -1524.163)" fill="#184655"/>
          <path id="Path_50269" data-name="Path 50269" d="M892.306,1429.186c1.946,14.728,11.583,88.045,11.583,88.045L881.529,1520s-27.5-95.7-26.087-110.334,11.7-15.868,11.7-15.868S887.154,1390.2,892.306,1429.186Z" transform="translate(-853.633 -1217.565)" fill="#191d67"/>
          <path id="Path_50270" data-name="Path 50270" d="M867.188,1058.556c6.6-2.475,9.826,56.977,10.715,81.447,11.685,1.124,32.051.009,37.122-.372,2.385-.179,7.884-2.194,10.256-2.5a23.745,23.745,0,0,1,5.829-.276c.439.077,12.618,5.057,13.66,6.149,1.292,1.355,4.785,4.772,4.2,6.249s-6.718-4.117-6.718-4.117l-2.995-1.68c3.728,3.643,10.841,8.44,9.816,10.187-1,1.7-7.415-3.165-11.987-6.483,3.922,3.542,8.794,9.881,7.671,10.869-1.009.888-6.55-6.451-12.474-8.564-2.195-.783-4.383,1.386-6.109,1.648-1.269.193-3.228.6-4.473.249l-6.413-1.818c-2.185.2-2.239,1.49-4.445,1.959-2.561.545-6.763,1.119-10.024,1.916-18.781,4.589-25.045,6.719-30.795,6.716C852.6,1160.12,851.594,1064.406,867.188,1058.556Z" transform="translate(-854.189 -982.819)" fill="#f7a491"/>
          <path id="Path_50271" data-name="Path 50271" d="M850.007,1101.393c-1.236-25.065-1.055-55.96,13-61.231,5.544-2.08,15.318,10.425,13.56,61.74C869.061,1102.522,858.049,1103.02,850.007,1101.393Z" transform="translate(-849.529 -969.842)" fill="#04a1fe"/>
          <path id="Path_50272" data-name="Path 50272" d="M1059.728,1209.006H1058.3l-21.531,52.913,1.483-.226Z" transform="translate(-980.64 -1088.224)" fill="#f79c8d"/>
          <path id="Path_50273" data-name="Path 50273" d="M1179.5,1802.6s-1.951,6.255,1.543,10.392,18.01,8.2,19.915,10.435a6.282,6.282,0,0,1,1.761,4.149l-40.744-1.122.444-12.3,1.876-8.843Z" transform="translate(-1068.322 -1503.886)" fill="#f7a491"/>
          <path id="Path_50274" data-name="Path 50274" d="M1178.254,1841.958s-10.469,4.235-15.526,1.728-4.9-3.2-6.367-2.267-1.988,12.47-1.988,12.47l45.815,1.347c3.188-.074,4.8-2.421,2.21-4.432a37.412,37.412,0,0,0-5-2.97C1193.819,1845.778,1178.254,1841.958,1178.254,1841.958Z" transform="translate(-1062.995 -1530.791)" fill="#184655"/>
          <path id="Path_50275" data-name="Path 50275" d="M1179.8,1407.094c3.148-6.627,10.311-15.255,22.913-10.059,12.019,4.956,15.245,17.137,11.453,29.61s-28.757,85.8-29.627,95.881l-19.933.132s3.623-58.06,4.511-72.094C1169.97,1437.06,1174.347,1418.563,1179.8,1407.094Z" transform="translate(-1070.159 -1218.776)" fill="#191d67"/>
          <path id="Path_50276" data-name="Path 50276" d="M1020.115,1209.006H953.486a4.344,4.344,0,0,0-4.02,2.705l-20.516,50.208H892.217a1.862,1.862,0,0,0-1.86,1.865h0a1.863,1.863,0,0,0,1.86,1.865H996.763a7.3,7.3,0,0,0,6.658-4.324l20.658-46.174A4.358,4.358,0,0,0,1020.115,1209.006Z" transform="translate(-878.119 -1088.224)"/>
          <path id="Path_50277" data-name="Path 50277" d="M1186.7,1295.183a3.668,3.668,0,1,1-2.749-4.8A3.922,3.922,0,0,1,1186.7,1295.183Z" transform="translate(-1080.574 -1145.165)" fill="#fff"/>
          <g id="Group_69718" data-name="Group 69718" transform="translate(32.768)">
            <path id="Path_50278" data-name="Path 50278" d="M995.934,811.174a50.939,50.939,0,0,1-5.894-2.36,29.585,29.585,0,0,0-6.721-2.532c-3.719-.574-10.107-.191-13.635,3.635-4.395,4.768-12.2.862-10.631,25.831,1.781,28.263,17.5,25.162,17.877,24.683s14.016-18.082,14.016-18.082,4.767,10.428,4.767,10.046S1020.056,819.3,995.934,811.174Z" transform="translate(-958.847 -806.067)" fill="#0e2e35"/>
            <path id="Path_50279" data-name="Path 50279" d="M1005.065,957.235l1.357,10.1s3.039,14.55-.871,17.355-16.626-17.769-16.626-17.769l1.343-25.59Z" transform="translate(-979.909 -900.784)" fill="#f7a491"/>
            <path id="Path_50280" data-name="Path 50280" d="M991.958,949.621c3.23,8.728,10.921,14.094,16.382,16.175l-1.15-8.562-14.8-15.906Z" transform="translate(-982.033 -900.783)" fill="#f47458"/>
            <path id="Path_50281" data-name="Path 50281" d="M1000.2,848.027a13.466,13.466,0,0,1,15.509,13.618,102.419,102.419,0,0,1-1.135,12.953c-1.8,11.658-9.755,21.923-15.014,21.007s-18.492-10.973-16.162-27.563C984.839,857.8,991.509,849.43,1000.2,848.027Z" transform="translate(-975.85 -835.329)" fill="#f7a491"/>
            <path id="Path_50282" data-name="Path 50282" d="M978.339,909.312c-.444,2.564-2.5,4.347-4.587,3.982s-3.423-2.738-2.979-5.3,2.5-4.347,4.587-3.983S978.782,906.748,978.339,909.312Z" transform="translate(-967.138 -874.619)" fill="#f7a491"/>
            <path id="Path_50283" data-name="Path 50283" d="M981.582,855.683s6.358,1.58,8.718-2.51,10.8-12.915,21.524-9.256-9.439-8.9-10.3-8.9-11.155-.071-11.155-.071-7.938,6.529-8.224,7.247-2.574,8.538-2.574,8.538Z" transform="translate(-973.361 -826.291)" fill="#0e2e35"/>
          </g>
          <path id="Path_50284" data-name="Path 50284" d="M1024.981,961.048l11.571,2.212s-1.1,4.359-6.22,3.533C1024.093,965.787,1024.981,961.048,1024.981,961.048Z" transform="translate(-972.358 -914.592)" fill="#fff"/>
        </g>
      </g>
      <g id="Group_69723" data-name="Group 69723" transform="translate(151.931)">
        <path id="Path_50285" data-name="Path 50285" d="M1297.549,514.8h-107.64a9.994,9.994,0,0,0-10.022,9.966v47.083a9.994,9.994,0,0,0,10.022,9.966h18.65l-5.91,14.386,19.068-14.386h75.833a9.994,9.994,0,0,0,10.022-9.966V524.768A9.994,9.994,0,0,0,1297.549,514.8Z" transform="translate(-1179.886 -514.802)" fill="#f7cc7f"/>
        <g id="Group_69722" data-name="Group 69722" transform="translate(26.479 20.53)">
          <g id="Group_69721" data-name="Group 69721">
            <path id="Path_50286" data-name="Path 50286" d="M1268.221,609.247V583.293h11.419c12.422.038,12.422,19.318,0,19.318h-4.782v6.636Zm11.383-20.022c-1.558-.037-3.226,0-4.746,0v7.417h4.746C1283.237,596.642,1283.459,589.263,1279.6,589.225Z" transform="translate(-1268.221 -583.293)" fill="#f47458"/>
            <path id="Path_50287" data-name="Path 50287" d="M1375.779,609.247h-6.785V598.829h-8.007v10.419H1354.2V583.293h6.785v9.418h8.007v-9.418h6.785Z" transform="translate(-1328.428 -583.293)" fill="#f47458"/>
            <path id="Path_50288" data-name="Path 50288" d="M1448.343,609.247V583.293h11.419c12.422.038,12.422,19.318,0,19.318h-4.781v6.636Zm11.383-20.022c-1.558-.037-3.225,0-4.745,0v7.417h4.745C1463.359,596.642,1463.581,589.263,1459.726,589.225Z" transform="translate(-1394.351 -583.293)" fill="#f47458"/>
          </g>
        </g>
      </g>
    </g>
  </g>
</svg>
