<svg xmlns="http://www.w3.org/2000/svg" width="61.397" height="30.851" viewBox="0 0 61.397 30.851">
  <g id="Group_1399" data-name="Group 1399" transform="translate(0 0)">
    <path id="Path_13759" data-name="Path 13759" d="M270.266,252.76h9.105q4.009.035,5.81,2.311t1.189,6.216a11.905,11.905,0,0,1-1.054,3.534,10.489,10.489,0,0,1-2.173,3.126,7.6,7.6,0,0,1-3.636,2.243,16.73,16.73,0,0,1-4.009.475h-4.077l-1.291,6.456h-4.723Zm3.974,3.874L272.2,266.828a2.58,2.58,0,0,0,.409.032h.475a17.824,17.824,0,0,0,5.437-.645q2.172-.712,2.921-4.959.612-3.571-1.224-4.112a15.241,15.241,0,0,0-4.518-.509c-.271.022-.532.032-.781.032h-.714l.034-.032" transform="translate(-265.407 -246.27)" fill="#325578"/>
    <path id="Path_13760" data-name="Path 13760" d="M287.867,247.445h4.689l-1.325,6.489h4.211a8.458,8.458,0,0,1,5.164,1.427q1.735,1.361,1.02,5.165l-2.275,11.313h-4.758l2.175-10.8a3.054,3.054,0,0,0-.2-2.412,2.889,2.889,0,0,0-2.343-.711l-3.773-.037-2.785,13.964h-4.688l4.892-24.394" transform="translate(-261.524 -247.445)" fill="#325578"/>
    <path id="Path_13761" data-name="Path 13761" d="M303.254,252.76h9.1q4.011.035,5.811,2.311t1.191,6.216a11.908,11.908,0,0,1-1.055,3.534,10.471,10.471,0,0,1-2.175,3.126,7.593,7.593,0,0,1-3.635,2.243,16.721,16.721,0,0,1-4.009.475h-4.077l-1.292,6.456h-4.722Zm3.975,3.874-2.039,10.193a2.549,2.549,0,0,0,.407.032h.477a17.807,17.807,0,0,0,5.435-.645q2.174-.712,2.922-4.959.613-3.571-1.223-4.112a15.239,15.239,0,0,0-4.519-.509c-.271.022-.53.032-.78.032h-.714l.035-.032" transform="translate(-258.116 -246.27)" fill="#325578"/>
  </g>
</svg>
