<svg xmlns="http://www.w3.org/2000/svg" width="22.23" height="22.1" viewBox="0 0 22.23 22.1">
  <g id="Group_19528" data-name="Group 19528" transform="translate(0 289)">
    <g id="Group_6456" data-name="Group 6456" transform="translate(0 -289)">
      <g id="Group_17482" data-name="Group 17482">
        <g id="Group_17582" data-name="Group 17582">
          <path id="Path_2269" data-name="Path 2269" d="M119.763,7.648a10.94,10.94,0,0,0-7.94,3.225,10.535,10.535,0,0,0-3.279,7.74,10.725,10.725,0,0,0,3.279,7.908,10.936,10.936,0,0,0,7.94,3.225,11.035,11.035,0,0,0,11.008-10.919,10.9,10.9,0,0,0-3.228-7.9A10.581,10.581,0,0,0,119.763,7.648Zm-4.057,6.961a5.543,5.543,0,0,1,4.057-1.643,5.149,5.149,0,0,1,3.887,1.684,5.764,5.764,0,0,1,1.628,4.173,5.4,5.4,0,0,1-1.643,3.929,5.1,5.1,0,0,1-3.787,1.678,5.672,5.672,0,0,1-5.814-5.816,5.33,5.33,0,0,1,1.672-4.006Z" transform="translate(-108.542 -7.646)" fill="#06b2ff"/>
          <path id="Path_2270" data-name="Path 2270" d="M122.426,18.1a3.363,3.363,0,1,1-3.363-3.363A3.363,3.363,0,0,1,122.426,18.1Z" transform="translate(-107.948 -7.053)" fill="#06b2ff"/>
        </g>
      </g>
    </g>
  </g>
</svg>
