<svg xmlns="http://www.w3.org/2000/svg" width="359" height="327.874" viewBox="0 0 359 327.874">
  <g id="illustration" transform="translate(-89.447 -134.583)">
    <g id="Group_19571" data-name="Group 19571" transform="translate(200.801 134.583)">
      <path id="Path_10401" data-name="Path 10401" d="M746.829,1002.3c0,6.667-12.148,12.072-27.133,12.072s-27.132-5.405-27.132-12.072,12.148-12.072,27.132-12.072S746.829,995.628,746.829,1002.3Z" transform="translate(-692.563 -832.247)" fill="#9eabd3"/>
      <g id="Group_19570" data-name="Group 19570" transform="translate(1.601 0)">
        <g id="Group_19547" data-name="Group 19547" transform="translate(31.251 162.488)">
          <g id="Group_19546" data-name="Group 19546">
            <path id="Path_10402" data-name="Path 10402" d="M873.916,1019.511a14.791,14.791,0,0,0,5.076,2.96,4.334,4.334,0,0,0,4.23-1.1.809.809,0,0,0-.123-1.239c-5.617-4.27-7.3-5.48-7.3-5.48h-5.155a11.754,11.754,0,0,0-.112,2.909,4.459,4.459,0,0,0,2.828,1.714c.106.019.3-.137.4-.1Z" transform="translate(-870.496 -1014.656)" fill="#17181c"/>
          </g>
          <path id="Path_10403" data-name="Path 10403" d="M883.137,1028.505a1.44,1.44,0,0,1-.108.352,2.824,2.824,0,0,1-2.61,1.306,7.55,7.55,0,0,1-3.21-1.089,14.27,14.27,0,0,1-2.659-1.8,7.994,7.994,0,0,0-2.011-1.006,10.226,10.226,0,0,1-2.028-1.366c0,.557.036,1.018.036,1.018a4.459,4.459,0,0,0,2.828,1.714c.106.019.3-.137.4-.1l.149.328a14.791,14.791,0,0,0,5.076,2.96,4.334,4.334,0,0,0,4.23-1.1A.808.808,0,0,0,883.137,1028.505Z" transform="translate(-870.509 -1023.008)"/>
        </g>
        <g id="Group_19548" data-name="Group 19548" transform="translate(23.531 78.313)">
          <path id="Path_10404" data-name="Path 10404" d="M835.984,601.105c5.734,6.331,8.006-.366,8.006-.366l.711-38.908c.074.578.264-3.925-6.973-2.95-7.218.972-9.046,3.785-9.046,3.785s3.971,26.876,7.3,38.439" transform="translate(-828.682 -558.742)" fill="#e59375"/>
          <path id="Path_10405" data-name="Path 10405" d="M863.944,769.59S861.035,810.567,860.8,812c0,0-3.536.782-3.552-.032-.04-1.963-4.078-25.941-4.13-29.025-.132-7.809,1.881-9.285,3.889-14.545C857,768.4,863.959,763.261,863.944,769.59Z" transform="translate(-848.6 -728.086)" fill="#e59375"/>
        </g>
        <g id="Group_19550" data-name="Group 19550" transform="translate(23.531 78.313)">
          <g id="Group_19549" data-name="Group 19549">
            <path id="Path_10406" data-name="Path 10406" d="M834.661,601.362c-3.331-11.562-5.979-38.7-5.979-38.7s1.828-2.814,9.046-3.785c7.238-.976,7.047,3.528,6.973,2.949a253.437,253.437,0,0,1-.674,38.416S839.105,604.173,834.661,601.362Z" transform="translate(-828.682 -558.741)" fill="#0b152a"/>
            <path id="Path_10407" data-name="Path 10407" d="M868.232,786.572c5.734,6.33,8.006-.366,8.006-.366" transform="translate(-860.93 -744.209)" fill="#0b152a"/>
            <path id="Path_10408" data-name="Path 10408" d="M862.778,807.821c.845-1.188,1.148-42.318,1.148-42.318.014-6.329-7.779-3.412-7.779-3.412a37.963,37.963,0,0,0-3.05,16.768c.052,3.084,2.113,27.562,2.152,29.525C855.25,808.384,860.358,811.221,862.778,807.821Z" transform="translate(-848.582 -723.999)" fill="#0b152a"/>
          </g>
        </g>
        <path id="Path_10409" data-name="Path 10409" d="M822.643,524.8a13.739,13.739,0,0,0,0,13.268c3.877,7.014,15.713,4.457,15.748-4.627C838.425,524.469,830.259,521.038,822.643,524.8Z" transform="translate(-798.822 -451.526)" fill="#0b152a"/>
        <path id="Path_10410" data-name="Path 10410" d="M776.471,451.522c-1.024,3.641-5.244,17.535-5.244,17.535,15.111,18.079,26.5,2.26,26.646.611.18-1.974-2.023-9.51-2.423-17.639C795.45,452.028,791.33,445.685,776.471,451.522Z" transform="translate(-758.304 -390.992)" fill="#f7a483"/>
        <path id="Path_10411" data-name="Path 10411" d="M797.669,520.287c.716-4.869-.768-9.78-1.533-14.7H774c-1.416,4.719-2.889,9.566-2.889,9.566s-.947,11.161,8.533,12.5C779.643,527.652,796.164,530.514,797.669,520.287Z" transform="translate(-758.188 -437.087)" fill="#0b152a"/>
        <g id="Group_19551" data-name="Group 19551" transform="translate(10.691 79.398)">
          <path id="Path_10412" data-name="Path 10412" d="M772.51,606.749c4.733,7.111,7.972.826,7.972.826l7.677-37.9c-.012.583-.23-4.938-7.532-5.046-7.283-.107-9.507,2.4-9.507,2.4s-.191,27.792,1.391,39.72" transform="translate(-768.902 -564.621)" fill="#f7a483"/>
          <path id="Path_10413" data-name="Path 10413" d="M770.829,779.221s-7.6,43.179-8.049,44.566c0,0-3.614.25-3.508-.558.251-1.946-.4-29.175.005-32.232,1.027-7.742,2.1-9.074,4.865-13.978C764.143,777.018,771.781,772.962,770.829,779.221Z" transform="translate(-759.14 -736.75)" fill="#f7a483"/>
        </g>
        <g id="Group_19552" data-name="Group 19552" transform="translate(9.765 164.717)">
          <path id="Path_10414" data-name="Path 10414" d="M759.036,1027.613l2.138,6.521s-.441,5.838-5.123,2.22L754.657,1035a1.492,1.492,0,0,1-.5-1.433l.417-2.5.5-3.458S758,1025.623,759.036,1027.613Z" transform="translate(-754.125 -1026.729)" fill="#17181c"/>
          <path id="Path_10415" data-name="Path 10415" d="M756.05,1065.087l-1.394-1.351a1.451,1.451,0,0,1-.48-.747l-.025.146a1.492,1.492,0,0,0,.5,1.433l1.394,1.352c4.682,3.618,5.123-2.22,5.123-2.22l-.083-.254C760.827,1064.823,759.8,1067.982,756.05,1065.087Z" transform="translate(-754.124 -1056.294)"/>
        </g>
        <g id="Group_19554" data-name="Group 19554" transform="translate(9.055 75.359)">
          <g id="Group_19553" data-name="Group 19553">
            <path id="Path_10416" data-name="Path 10416" d="M773.215,793.6" transform="translate(-768.98 -747.284)" fill="#152035"/>
            <path id="Path_10417" data-name="Path 10417" d="M769.627,589.059c-1.582-11.928-.367-43.61-.367-43.61s1.892-2.811,9.175-2.7c7.3.108,8.8,8.422,8.81,7.838,0,0-6.144,32.449-8.81,40.275C778.435,590.859,773.925,594.713,769.627,589.059Z" transform="translate(-765.392 -542.743)" fill="#152035"/>
            <path id="Path_10418" data-name="Path 10418" d="M757.357,817.387c.447-1.387,6.42-44.46,6.42-44.46.073-5.852-7.625-4.416-7.625-4.416-2.765,4.9-3.407,7.2-4.434,14.938-.406,3.058-1.189,31.339-1.441,33.286A7.856,7.856,0,0,0,757.357,817.387Z" transform="translate(-750.278 -726.701)" fill="#152035"/>
          </g>
        </g>
        <g id="Group_19556" data-name="Group 19556" transform="translate(34.712 27.297)">
          <path id="Path_10419" data-name="Path 10419" d="M889.775,298.542s2.662,18.9,5.276,26.263c0,0,4.307.922,5.7-1.519,0,0-.48-16.158-1.04-25.892C899.715,297.395,894.41,291.411,889.775,298.542Z" transform="translate(-889.677 -292.717)" fill="#e59375"/>
          <path id="Path_10420" data-name="Path 10420" d="M923.2,435.793s.926,15.6,1.832,21.709c0,0-.754,1.706-1.774.44-1.7-2.118-6.81-21.316-5.833-22.516C921.984,429.823,923.2,435.793,923.2,435.793Z" transform="translate(-912.122 -405.223)" fill="#e59375"/>
          <path id="Path_10421" data-name="Path 10421" d="M897.3,291.377a5.039,5.039,0,0,1-7.037-.928,4.97,4.97,0,0,1,.97-6.99,5.039,5.039,0,0,1,7.037.93A4.968,4.968,0,0,1,897.3,291.377Z" transform="translate(-889.242 -282.432)" fill="#e59375"/>
          <g id="Group_19555" data-name="Group 19555" transform="translate(10.485 50.434)">
            <path id="Path_10422" data-name="Path 10422" d="M950.027,580.53l.749,2.168-.741,3.2s.641.387,1.066-.7l.7-2.657-.635-2.481Z" transform="translate(-949.29 -575.547)" fill="#e59375"/>
            <path id="Path_10423" data-name="Path 10423" d="M954.014,583.73l.87,2.124-.562,3.238s.661.351,1.025-.755l.549-2.692-.773-2.442Z" transform="translate(-952.541 -578.105)" fill="#e59375"/>
            <path id="Path_10424" data-name="Path 10424" d="M950.092,561.241l-.891-2.516-1.049-3.135-2.066.1-.053,3.522.166,1.813.255,2.471.04.806s.668.086.924-1.258l.082-2.39,1.212,1.638-.143,3.306s.5,1.617.879.9l.828-4.757Z" transform="translate(-946.033 -555.591)" fill="#e59375"/>
          </g>
        </g>
        <path id="Path_10425" data-name="Path 10425" d="M893.748,282.334a6.6,6.6,0,0,1,4.794,6.329l.736,18.989a17.817,17.817,0,0,1-10.433,2.5S882.053,284.8,893.748,282.334Z" transform="translate(-852.607 -255.055)" fill="#00bac5"/>
        <path id="Path_10426" data-name="Path 10426" d="M883.9,160.7c.584-.517,1.721-2.1,1.664-2.907-.017-.242-.257-.434-.257-.738s.138-.436.251-.69a2.991,2.991,0,0,0,.287-1.46c0-.442.083-1.312-.219-1.664-.449-.524-1.343-.095-1.814.186-.979.583-1.53,1.53-2.544,2.089a4.072,4.072,0,0,0-1.622,1.879c-.609,1.044-1.117,2.981.184,3.77A3.757,3.757,0,0,0,883.9,160.7Z" transform="translate(-846.19 -149.599)" fill="#3c2415"/>
        <path id="Path_10427" data-name="Path 10427" d="M777.607,812.359" transform="translate(-763.506 -687.221)" fill="#f7a483"/>
        <path id="Path_10428" data-name="Path 10428" d="M816.826,171.86s-.89-1.712-2.854-5c0,0-4.179-4.292-1.837-9.685,0,0,1.285-4.511,9.172-3.855C821.308,153.322,822.063,165.737,816.826,171.86Z" transform="translate(-791.078 -149.809)" fill="#f8a07d"/>
        <path id="Path_10429" data-name="Path 10429" d="M832.362,215.943s1.327,12.374-1.5,13.31l10.091-.6s-1.586-3.74.258-6.5Z" transform="translate(-806.926 -200.921)" fill="#f7a483"/>
        <path id="Path_10430" data-name="Path 10430" d="M847.033,226.491c-.168-2.827.188-3.4.813-4.335L839,215.943a60.234,60.234,0,0,1,.279,7.621A9.576,9.576,0,0,0,847.033,226.491Z" transform="translate(-813.564 -200.921)" fill="#e1876f"/>
        <path id="Path_10431" data-name="Path 10431" d="M791.6,277.851c2.247,1.642,2.505,5.568,1.7,8.021-.921,2.816-1.286,6.41-2.208,10.483-1.25,5.52-2.1,9.771-3.49,15.253-1.153,4.534-19.37.881-19.37.881L761.7,290.177s-1.124-5.824,4.152-7.762a78.837,78.837,0,0,1,9.628-4.379,17.546,17.546,0,0,1,8.583-1.1A42.635,42.635,0,0,1,791.6,277.851Z" transform="translate(-750.458 -250.572)" fill="#f7a483"/>
        <path id="Path_10432" data-name="Path 10432" d="M835.511,172.574l.419-1.4L836.993,166a5.245,5.245,0,0,0-.083-2.149,5.277,5.277,0,0,1-.183-2.208,6.414,6.414,0,0,0-1.382-5.64c-2.312-3.285-7.385-3.027-7.385-3.027-6.259.624-6.481,6.723-6.481,6.723-.816,4.09,2.566,7.291,2.573,7.3.27.255.205,1.592.3,1.966.412,1.6,2,2.509,3.4,3.122a15.107,15.107,0,0,0,5.082,1.45C833.479,173.561,835.27,173.377,835.511,172.574Z" transform="translate(-799.174 -149.577)" fill="#f8a07d"/>
        <path id="Path_10433" data-name="Path 10433" d="M811.709,144.723c1.875-2.3,5.486-.221,7.813-1.636,1.085-.66,1.069-1.844,2.486-1.846,3.027-.006,2.67-3.257.989-4.205a5.585,5.585,0,0,0-1.02.043c-.839.1-1.383.462-2.227.158a23.479,23.479,0,0,1-2.476-1.338,8.8,8.8,0,0,0-3.412-1.312c-1.525-.07-2.009,1.043-3.137,1.774a11.212,11.212,0,0,1-2.511.729,21.319,21.319,0,0,0-3.463,1.873c-.788.463-1.863,1.084-1.751,2.151.1,1.013,1.135,1.244.82,2.343a9.086,9.086,0,0,0,.525,5.681,16.927,16.927,0,0,0,1.471,3.233,12.743,12.743,0,0,0,2.422,2.68,10.515,10.515,0,0,1,1.714,1.583c.059-2.494-.442-2.289.211-3.53.254-.483-.027-.888-.206-1.366s-.6-.874-.533-1.394c.323.1.63.148.806,0,.308-.259.057-1.124.109-1.462a10.739,10.739,0,0,1,.9-3.429A4.47,4.47,0,0,1,811.709,144.723Z" transform="translate(-784.204 -134.583)" fill="#3c2415"/>
        <g id="Group_19565" data-name="Group 19565" transform="translate(22.871 14.809)">
          <g id="Group_19561" data-name="Group 19561">
            <g id="Group_19560" data-name="Group 19560">
              <g id="Group_19559" data-name="Group 19559">
                <g id="Group_19558" data-name="Group 19558">
                  <g id="Group_19557" data-name="Group 19557">
                    <path id="Path_10434" data-name="Path 10434" d="M828.084,218.514a1.393,1.393,0,0,1-.86.38,2.04,2.04,0,0,1-2.1-1.857,1.87,1.87,0,0,1,1.513-2.235,1.761,1.761,0,0,1,1.3.414,2.538,2.538,0,0,1,.628,2.012A1.909,1.909,0,0,1,828.084,218.514Z" transform="translate(-825.106 -214.794)" fill="#f8a07d"/>
                  </g>
                </g>
              </g>
            </g>
          </g>
          <g id="Group_19564" data-name="Group 19564" transform="translate(0.873 0.666)">
            <g id="Group_19562" data-name="Group 19562">
              <path id="Path_10435" data-name="Path 10435" d="M831.028,218.75c-.13-.587-1.265.126-1.042.439a1.843,1.843,0,0,0,.538.412.883.883,0,0,1,.448.6c.008.034.027.137,0,.166-.143.127-.723-.393-.85-.5a1,1,0,0,1-.26-.933.6.6,0,0,1,.608-.526c.271-.017.549-.031.573.306,0,.008,0,.065-.011.035Z" transform="translate(-829.835 -218.402)" fill="#e98b6f"/>
            </g>
            <g id="Group_19563" data-name="Group 19563" transform="translate(0.309 0.938)">
              <path id="Path_10436" data-name="Path 10436" d="M832.081,223.556c.11-.141.241-.052.381.026a.568.568,0,0,1,.257.325,1.408,1.408,0,0,1-.03,1.011.756.756,0,0,1-.605.421c-.362.033-.509-.274-.56-.579-.014-.081-.045-.276.03-.336s.158.063.223.114a.519.519,0,0,0,.321.079.662.662,0,0,0,.51-.305.342.342,0,0,0,.043-.1c.023.2.018.246-.016.138a.523.523,0,0,0-.085-.132c-.1-.129-.254-.207-.364-.328-.052-.056-.162-.261-.106-.333Z" transform="translate(-831.506 -223.481)" fill="#e98b6f"/>
            </g>
          </g>
        </g>
        <path id="Path_10437" data-name="Path 10437" d="M880.759,210.726l-1.706.66s2.3.142,2.39-.526c0,0-.349-1.3-.726-2.54C880.717,208.319,881.011,210.629,880.759,210.726Z" transform="translate(-846.222 -194.705)" fill="#e98b6f"/>
        <g id="Group_19566" data-name="Group 19566" transform="translate(29.108 11.034)">
          <ellipse id="Ellipse_260" data-name="Ellipse 260" cx="0.443" cy="0.652" rx="0.443" ry="0.652" transform="translate(1.565 1.928)" fill="#3c2415"/>
          <ellipse id="Ellipse_261" data-name="Ellipse 261" cx="0.443" cy="0.652" rx="0.443" ry="0.652" transform="translate(6.485 1.382)" fill="#3c2415"/>
          <path id="Path_10438" data-name="Path 10438" d="M861.8,198.054c.159.033.2-.181.2-.181a.749.749,0,0,0-.011-.383.371.371,0,0,0-.19-.193,5.361,5.361,0,0,0-1.884.246c-.374.111-.981.39-1.02.734-.012.1-.021.281.1.312A15.36,15.36,0,0,1,861.8,198.054Z" transform="translate(-858.888 -196.74)" fill="#3c2415"/>
          <path id="Path_10439" data-name="Path 10439" d="M893.776,195.1a13.42,13.42,0,0,0-2.2.23c-.145.075-.24-.12-.241-.12a.757.757,0,0,1-.094-.372.368.368,0,0,1,.129-.236,4.012,4.012,0,0,1,1.631-.255,3.178,3.178,0,0,1,.819.111A1.559,1.559,0,0,1,893.776,195.1Z" transform="translate(-885.269 -194.346)" fill="#3c2415"/>
        </g>
        <g id="Group_19567" data-name="Group 19567" transform="translate(31.974 18.104)">
          <path id="Path_10440" data-name="Path 10440" d="M877.928,232.641c.14,0,.215.064.162.164a2.1,2.1,0,0,1-3.64.44c-.086-.095-.011-.189.163-.211C874.612,233.034,876.467,232.8,877.928,232.641Z" transform="translate(-874.414 -232.641)" fill="#fff"/>
        </g>
        <path id="Path_10441" data-name="Path 10441" d="M771.9,526.811a13.739,13.739,0,0,0,0,13.268c3.877,7.014,15.713,4.457,15.748-4.627C787.681,526.479,779.514,523.048,771.9,526.811Z" transform="translate(-757.447 -453.165)" fill="#152035"/>
        <path id="Path_10442" data-name="Path 10442" d="M784.069,277.348a42.633,42.633,0,0,1,7.53.921c2.247,1.642,2.505,5.568,1.7,8.021-.921,2.816-1.286,6.41-2.208,10.483-1.25,5.52-1.14,9.816-2.532,15.3-1.153,4.533-22.5.5-22.5.5L761.7,290.594s-1.124-5.824,4.152-7.762a72.766,72.766,0,0,1,9.376-4.291s-.635,4.291,6.361,3.106C781.594,281.647,785.868,280.615,784.069,277.348Z" transform="translate(-750.458 -250.989)" fill="#3dc0c6"/>
        <path id="Path_10443" data-name="Path 10443" d="M771.944,453.785c-1.023,3.642-3.13,15.155-3.13,15.155,2.771,11.492,28.266,3.223,28.417,1.574.18-1.974-2.037-10.626-2.437-18.755C794.794,451.759,786.8,447.948,771.944,453.785Z" transform="translate(-756.337 -392.202)" fill="#3dc0c6"/>
        <path id="Path_10444" data-name="Path 10444" d="M721.834,321.845c-2.493,2.827-11.381,15.8-14,17.884-.7.555-6.663,3.075-6.6-1.539,7.36-16.368,12.749-23.82,12.749-23.82s5.866-2.687,8.683,2.037C722.667,316.409,723.582,319.89,721.834,321.845Z" transform="translate(-701.234 -280.556)" fill="#f7a483"/>
        <path id="Path_10445" data-name="Path 10445" d="M770.929,313.7a5.963,5.963,0,1,1-6.872-4.889A5.963,5.963,0,0,1,770.929,313.7Z" transform="translate(-748.403 -276.571)" fill="#f7a483"/>
        <path id="Path_10446" data-name="Path 10446" d="M737.2,301.539s-4.953,1.927-7.214,5.622l-5.9,9.134s2.418,6.9,8.433,8.333l9.447-11.48S747.3,306.419,737.2,301.539Z" transform="translate(-719.863 -270.714)" fill="#3dc0c6"/>
        <path id="Path_10447" data-name="Path 10447" d="M710.95,442.121a203.505,203.505,0,0,1,10.3,19.79s.023,2.33-1.724,1.695-15.195-17.393-15.3-19.174C703.968,439.851,710.95,442.121,710.95,442.121Z" transform="translate(-703.669 -384.881)" fill="#f7a483"/>
        <g id="Group_19569" data-name="Group 19569" transform="translate(15.918 77.082)">
          <g id="Group_19568" data-name="Group 19568">
            <path id="Path_10448" data-name="Path 10448" d="M790.52,558c-2.373-2.155-2.5-2.69-2.81-3.5-1.342-3.484,2.849-2.334,3.849-1.827.574.292.249,1.748,1.693,3.988,0,0,2.536,2.468,3.3,2.529,0,0,.734.3.6.848C797.146,560.038,794.753,560.746,790.52,558Z" transform="translate(-787.447 -552.077)" fill="#f7a483"/>
          </g>
          <path id="Path_10449" data-name="Path 10449" d="M807.672,555.592s-1.6.434-.19,1.841l2.284.771a.753.753,0,0,0,.95-.179s.141-.372-.47-.7Z" transform="translate(-803.307 -554.943)" fill="#f7a483"/>
        </g>
      </g>
    </g>
    <path id="Path_10450" data-name="Path 10450" d="M671.418,1089.307c-52.319,0-94.737-24.18-94.737-54.016S619.1,981.28,671.418,981.28s94.736,24.186,94.736,54.012S723.741,1089.307,671.418,1089.307Z" transform="translate(-397.276 -690.371)" fill="rgba(171,180,194,0.24)"/>
    <g id="Group_19581" data-name="Group 19581" transform="translate(103.186 144.929)">
      <g id="Group_19580" data-name="Group 19580" transform="translate(0 0)">
        <g id="Group_19579" data-name="Group 19579">
          <g id="Group_19572" data-name="Group 19572" transform="translate(0 220.619)">
            <line id="Line_10" data-name="Line 10" x2="14.87" fill="none" stroke="#d8e1ee" stroke-width="2"/>
            <line id="Line_11" data-name="Line 11" x2="7.436" transform="translate(17.086)" fill="none" stroke="#d8e1ee" stroke-width="2"/>
          </g>
          <g id="Group_19573" data-name="Group 19573" transform="translate(316.697 162.191)">
            <line id="Line_12" data-name="Line 12" x2="17.32" fill="none" stroke="#d8e1ee" stroke-width="2"/>
            <line id="Line_13" data-name="Line 13" x2="8.661" transform="translate(19.903)" fill="none" stroke="#d8e1ee" stroke-width="2"/>
          </g>
          <g id="Group_19574" data-name="Group 19574" transform="translate(297.368 89.959)">
            <line id="Line_14" data-name="Line 14" x1="14.87" transform="translate(9.651)" fill="none" stroke="#d8e1ee" stroke-width="2"/>
            <line id="Line_15" data-name="Line 15" x1="7.435" fill="none" stroke="#d8e1ee" stroke-width="2"/>
          </g>
          <g id="Group_19575" data-name="Group 19575" transform="translate(165.128 10.64)">
            <line id="Line_16" data-name="Line 16" x2="2.073" y2="2.073" fill="none" stroke="#d8e1ee" stroke-width="2"/>
            <line id="Line_17" data-name="Line 17" x2="2.073" y2="2.073" transform="translate(3.536 3.535)" fill="none" stroke="#d8e1ee" stroke-width="2"/>
            <line id="Line_18" data-name="Line 18" x1="2.073" y2="2.073" transform="translate(3.536)" fill="none" stroke="#d8e1ee" stroke-width="2"/>
            <line id="Line_19" data-name="Line 19" x1="2.073" y2="2.073" transform="translate(0 3.535)" fill="none" stroke="#d8e1ee" stroke-width="2"/>
          </g>
          <g id="Group_19576" data-name="Group 19576" transform="translate(2.516 96.875)">
            <line id="Line_20" data-name="Line 20" x2="2.073" y2="2.073" fill="none" stroke="#d8e1ee" stroke-width="2"/>
            <line id="Line_21" data-name="Line 21" x2="2.073" y2="2.073" transform="translate(3.535 3.535)" fill="none" stroke="#d8e1ee" stroke-width="2"/>
            <line id="Line_22" data-name="Line 22" x1="2.073" y2="2.073" transform="translate(3.535)" fill="none" stroke="#d8e1ee" stroke-width="2"/>
            <line id="Line_23" data-name="Line 23" x1="2.073" y2="2.073" transform="translate(0 3.535)" fill="none" stroke="#d8e1ee" stroke-width="2"/>
          </g>
          <g id="Group_19577" data-name="Group 19577" transform="translate(215.855 93.582)">
            <line id="Line_24" data-name="Line 24" x2="2.073" y2="2.073" fill="none" stroke="#d8e1ee" stroke-width="2"/>
            <line id="Line_25" data-name="Line 25" x2="2.073" y2="2.073" transform="translate(3.536 3.535)" fill="none" stroke="#d8e1ee" stroke-width="2"/>
            <line id="Line_26" data-name="Line 26" x1="2.073" y2="2.073" transform="translate(3.536)" fill="none" stroke="#d8e1ee" stroke-width="2"/>
            <line id="Line_27" data-name="Line 27" x1="2.073" y2="2.073" transform="translate(0 3.535)" fill="none" stroke="#d8e1ee" stroke-width="2"/>
          </g>
          <g id="Group_19578" data-name="Group 19578" transform="translate(333.796 209.013)">
            <line id="Line_28" data-name="Line 28" x2="2.073" y2="2.072" fill="none" stroke="#d8e1ee" stroke-width="2"/>
            <line id="Line_29" data-name="Line 29" x2="2.073" y2="2.073" transform="translate(3.536 3.534)" fill="none" stroke="#d8e1ee" stroke-width="2"/>
            <line id="Line_30" data-name="Line 30" x1="2.073" y2="2.072" transform="translate(3.536)" fill="none" stroke="#d8e1ee" stroke-width="2"/>
            <line id="Line_31" data-name="Line 31" x1="2.073" y2="2.073" transform="translate(0 3.534)" fill="none" stroke="#d8e1ee" stroke-width="2"/>
          </g>
          <circle id="Ellipse_262" data-name="Ellipse 262" cx="2.573" cy="2.573" r="2.573" transform="translate(299.014)" fill="none" stroke="#d8e1ee" stroke-width="2"/>
          <circle id="Ellipse_263" data-name="Ellipse 263" cx="2.573" cy="2.573" r="2.573" transform="translate(67.003 3.015)" fill="none" stroke="#d8e1ee" stroke-width="2"/>
          <path id="Path_10451" data-name="Path 10451" d="M625.611,835.529a2.572,2.572,0,1,1-2.573-2.572A2.572,2.572,0,0,1,625.611,835.529Z" transform="translate(-536.162 -714.362)" fill="none" stroke="#d8e1ee" stroke-width="2"/>
        </g>
      </g>
    </g>
    <g id="Group_19604" data-name="Group 19604" transform="translate(305.572 142.724)">
      <path id="Path_10452" data-name="Path 10452" d="M1446.21,1053.877c0,6.668,12.148,12.073,27.133,12.073s27.132-5.4,27.132-12.073-12.148-12.072-27.132-12.072S1446.21,1047.21,1446.21,1053.877Z" transform="translate(-1411.835 -882.445)" fill="rgba(171,180,194,0.24)"/>
      <g id="Group_19603" data-name="Group 19603" transform="translate(0 0)">
        <g id="Group_19583" data-name="Group 19583" transform="translate(42.835 163.871)">
          <g id="Group_19582" data-name="Group 19582">
            <path id="Path_10453" data-name="Path 10453" d="M1501.565,1071.091a14.765,14.765,0,0,1-5.076,2.961,4.332,4.332,0,0,1-4.23-1.1.81.81,0,0,1,.124-1.24c5.616-4.27,7.3-5.48,7.3-5.48h5.156a11.75,11.75,0,0,1,.112,2.909,4.463,4.463,0,0,1-2.828,1.714c-.106.018-.3-.138-.4-.1Z" transform="translate(-1492.033 -1066.236)" fill="#17181c"/>
          </g>
          <path id="Path_10454" data-name="Path 10454" d="M1492.362,1080.1a1.407,1.407,0,0,0,.108.352,2.824,2.824,0,0,0,2.61,1.306,7.555,7.555,0,0,0,3.211-1.089,14.287,14.287,0,0,0,2.659-1.8,8,8,0,0,1,2.01-1.006,10.214,10.214,0,0,0,2.028-1.366c0,.556-.035,1.017-.035,1.017a4.463,4.463,0,0,1-2.829,1.714c-.106.019-.3-.138-.4-.1l-.149.328a14.768,14.768,0,0,1-5.076,2.961,4.333,4.333,0,0,1-4.23-1.1A.807.807,0,0,1,1492.362,1080.1Z" transform="translate(-1492.036 -1074.598)"/>
        </g>
        <g id="Group_19584" data-name="Group 19584" transform="translate(47.47 79.696)">
          <path id="Path_10455" data-name="Path 10455" d="M1525.872,652.687c-5.734,6.331-8.006-.366-8.006-.366l-.711-38.909c-.074.578-.265-3.925,6.974-2.949,7.218.972,9.045,3.786,9.045,3.786s-3.97,26.875-7.3,38.438" transform="translate(-1517.137 -610.325)" fill="#e59375"/>
          <path id="Path_10456" data-name="Path 10456" d="M1520.9,821.175s2.909,40.977,3.147,42.415c0,0,3.536.782,3.552-.033.04-1.963,4.078-25.942,4.13-29.026.132-7.809-1.881-9.285-3.89-14.545C1527.839,819.986,1520.885,814.845,1520.9,821.175Z" transform="translate(-1520.205 -779.67)" fill="#e59375"/>
        </g>
        <g id="Group_19586" data-name="Group 19586" transform="translate(46.459 79.696)">
          <g id="Group_19585" data-name="Group 19585">
            <path id="Path_10457" data-name="Path 10457" d="M1523.137,654.16c3.331-11.562,5.576-39.911,5.576-39.911s-1.827-2.814-9.045-3.786c-7.239-.975-7.048,3.528-6.974,2.949,0,0-2.193,21.1-.185,40.274C1512.507,653.687,1518.691,656.971,1523.137,654.16Z" transform="translate(-1511.662 -610.324)" fill="#104473"/>
          </g>
        </g>
        <path id="Path_10458" data-name="Path 10458" d="M1538.5,503.1c1.023,3.641,5.244,17.535,5.244,17.535-15.112,18.079-26.5,2.259-26.646.611-.18-1.974,2.023-9.511,2.423-17.639C1519.516,503.611,1523.637,497.268,1538.5,503.1Z" transform="translate(-1469.623 -441.192)" fill="#f7a483"/>
        <path id="Path_10459" data-name="Path 10459" d="M1516.78,571.872c-.717-4.87.769-9.78,1.533-14.7h22.136c1.417,4.719,2.89,9.566,2.89,9.566s.946,11.162-8.533,12.5C1534.806,579.235,1518.285,582.1,1516.78,571.872Z" transform="translate(-1469.221 -487.288)" fill="#104473"/>
        <g id="Group_19587" data-name="Group 19587" transform="translate(57.092 80.782)">
          <path id="Path_10460" data-name="Path 10460" d="M1584.9,658.335c-4.733,7.111-7.971.825-7.971.825l-7.677-37.9c.012.583.229-4.937,7.533-5.045,7.283-.107,9.507,2.4,9.507,2.4s.189,27.792-1.391,39.721" transform="translate(-1569.254 -616.207)" fill="#f7a483"/>
          <path id="Path_10461" data-name="Path 10461" d="M1609.868,830.8s7.6,43.18,8.05,44.567c0,0,3.613.25,3.508-.558-.251-1.947.4-29.175,0-32.233-1.027-7.742-2.1-9.073-4.865-13.978C1616.557,828.6,1608.917,824.547,1609.868,830.8Z" transform="translate(-1602.303 -788.334)" fill="#f7a483"/>
        </g>
        <g id="Group_19588" data-name="Group 19588" transform="translate(70.224 166.1)">
          <path id="Path_10462" data-name="Path 10462" d="M1642.515,1079.193l-2.139,6.521s.442,5.838,5.123,2.22l1.4-1.351a1.493,1.493,0,0,0,.5-1.433l-.416-2.5-.5-3.458S1643.552,1077.2,1642.515,1079.193Z" transform="translate(-1640.376 -1078.309)" fill="#17181c"/>
          <path id="Path_10463" data-name="Path 10463" d="M1645.5,1116.668l1.395-1.35a1.457,1.457,0,0,0,.479-.747l.025.146a1.493,1.493,0,0,1-.5,1.433l-1.395,1.351c-4.682,3.618-5.124-2.22-5.124-2.22l.084-.254C1640.727,1116.406,1641.759,1119.563,1645.5,1116.668Z" transform="translate(-1640.379 -1107.876)"/>
        </g>
        <g id="Group_19590" data-name="Group 19590" transform="translate(56.131 76.742)">
          <g id="Group_19589" data-name="Group 19589">
            <path id="Path_10464" data-name="Path 10464" d="M1659.48,845.185" transform="translate(-1641.86 -798.869)" fill="#152035"/>
            <path id="Path_10465" data-name="Path 10465" d="M1571.747,642.366c-2.667-7.826-7.7-40.2-7.7-40.2.012.583,1.508-7.731,8.811-7.838,7.282-.108,9.175,2.7,9.175,2.7s2.281,31.682.7,43.61C1582.732,640.644,1577.6,646.568,1571.747,642.366Z" transform="translate(-1564.047 -594.328)" fill="#065099"/>
          </g>
        </g>
        <path id="Path_10466" data-name="Path 10466" d="M1436.878,350.216s-12.366,14.542-18.515,19.36c0,0-4.132-1.527-4-4.335,0,0,9.053-13.392,14.737-21.315C1429.1,343.926,1436.78,341.712,1436.878,350.216Z" transform="translate(-1385.863 -313.204)" fill="#e59375"/>
        <path id="Path_10467" data-name="Path 10467" d="M1330.433,452.549s-15.588,1.063-21.766.941c0,0-1.6.964-.21,1.815,2.317,1.422,22.008,4.046,23.075,2.925C1336.511,453,1330.433,452.549,1330.433,452.549Z" transform="translate(-1299.054 -401.983)" fill="#e59375"/>
        <path id="Path_10468" data-name="Path 10468" d="M1489.464,340.622a5.039,5.039,0,0,0,6.442,2.982,4.97,4.97,0,0,0,2.923-6.424,5.04,5.04,0,0,0-6.442-2.982A4.971,4.971,0,0,0,1489.464,340.622Z" transform="translate(-1446.842 -305.234)" fill="#e59375"/>
        <path id="Path_10469" data-name="Path 10469" d="M1443.842,332.868a6.6,6.6,0,0,0-7.438,2.78l-10.785,15.645a17.815,17.815,0,0,0,7.472,7.7S1452.4,341.21,1443.842,332.868Z" transform="translate(-1395.046 -304.18)" fill="#872952"/>
        <path id="Path_10470" data-name="Path 10470" d="M1655.09,863.943" transform="translate(-1582.15 -737.421)" fill="#f7a483"/>
        <path id="Path_10471" data-name="Path 10471" d="M1572.04,223.443s.89-1.712,2.854-5c0,0,4.179-4.292,1.837-9.686,0,0-1.286-4.511-9.173-3.855C1567.557,204.9,1566.8,217.319,1572.04,223.443Z" transform="translate(-1510.748 -200.009)" fill="#f8a07d"/>
        <path id="Path_10472" data-name="Path 10472" d="M1554.625,267.529s-1.327,12.374,1.5,13.309l-10.092-.6s1.586-3.739-.258-6.5Z" transform="translate(-1493.021 -251.124)" fill="#f7a483"/>
        <path id="Path_10473" data-name="Path 10473" d="M1546.592,278.076c.168-2.827-.187-3.4-.812-4.335l8.846-6.212a60.22,60.22,0,0,0-.279,7.621A9.576,9.576,0,0,1,1546.592,278.076Z" transform="translate(-1493.022 -251.124)" fill="#e1876f"/>
        <path id="Path_10474" data-name="Path 10474" d="M1499.278,329.434c-2.248,1.642-2.505,5.567-1.7,8.02.921,2.816,1.286,6.411,2.208,10.483,1.25,5.52,2.1,9.771,3.489,15.253,1.153,4.533,19.37.88,19.37.88l6.529-22.312s1.125-5.824-4.152-7.762a78.855,78.855,0,0,0-9.628-4.379,17.553,17.553,0,0,0-8.584-1.1A42.7,42.7,0,0,0,1499.278,329.434Z" transform="translate(-1453.379 -300.772)" fill="#f7a483"/>
        <path id="Path_10475" data-name="Path 10475" d="M1522.919,210.27c-.52,2.373-1.111,3.614-.455,5.79.59,1.955.453,4.007,1.306,5.9,1.217,2.7,2.8,2.349,4.012-.136,1.24-2.544,2.531-5.982-.267-7.866-1.8-1.21-2.445-3.291-4.6-3.69Z" transform="translate(-1473.774 -204.436)" fill="#271000"/>
        <path id="Path_10476" data-name="Path 10476" d="M1527.77,224.155l-.42-1.4s-1.062-5.172-1.062-5.173a5.24,5.24,0,0,1,.083-2.15,5.283,5.283,0,0,0,.184-2.207,6.413,6.413,0,0,1,1.382-5.641c2.311-3.285,7.384-3.027,7.384-3.027,6.259.625,6.482,6.724,6.482,6.724.816,4.09-2.567,7.291-2.574,7.3-.27.255-.2,1.591-.3,1.966-.412,1.6-2,2.508-3.4,3.122a15.108,15.108,0,0,1-5.082,1.45C1529.8,225.143,1528.01,224.958,1527.77,224.155Z" transform="translate(-1477.067 -199.775)" fill="#f8a07d"/>
        <path id="Path_10477" data-name="Path 10477" d="M1526.583,266.381c.823.742,1.942.4,2.818.941a1.478,1.478,0,0,0,1.483.145,2.326,2.326,0,0,1,1.415.048c.522.151,1.471.605,1.977.81a1.87,1.87,0,0,0,2.245-.519,4.436,4.436,0,0,0,1.164-1.843c.543-1.692,2.254-1.794,3.432-.845a10.133,10.133,0,0,1-1.721,2.354c-.27.255-.2,2.7-.3,3.069-.412,1.6-2,2.508-3.4,3.122a17.214,17.214,0,0,1-5.574.837,2.674,2.674,0,0,1-2.179-1.452l-.42-1.4s-1.062-5.172-1.062-5.173c-.019-.09-.026-.191-.037-.287A1.665,1.665,0,0,0,1526.583,266.381Z" transform="translate(-1477.235 -248.669)" fill="#271000"/>
        <path id="Path_10478" data-name="Path 10478" d="M1516.482,186.715c1.418,0,1.4,1.186,2.487,1.847,2.327,1.415,5.938-.66,7.813,1.635a4.458,4.458,0,0,1,.475.727,10.737,10.737,0,0,1,.9,3.43c.052.339-.2,1.2.109,1.463.176.149.482.105.806,0,.063.519-.354.917-.533,1.393s-.459.884-.206,1.367c.654,1.242.152,1.036.211,3.53a10.586,10.586,0,0,1,1.715-1.584,12.685,12.685,0,0,0,2.422-2.68,16.955,16.955,0,0,0,1.472-3.233,9.1,9.1,0,0,0,.524-5.681s-.428-4.422-4.128-4.9c0,0,.47-2.848-6.292-3.6,0,0-5.339.084-5.632-1.759a2.621,2.621,0,0,0-.812,2.345,2.623,2.623,0,0,1-3.183-1.843S1512.8,185.793,1516.482,186.715Z" transform="translate(-1467.249 -178.674)" fill="#271000"/>
        <g id="Group_19599" data-name="Group 19599" transform="translate(60.852 16.193)">
          <g id="Group_19595" data-name="Group 19595">
            <g id="Group_19594" data-name="Group 19594">
              <g id="Group_19593" data-name="Group 19593">
                <g id="Group_19592" data-name="Group 19592">
                  <g id="Group_19591" data-name="Group 19591">
                    <path id="Path_10479" data-name="Path 10479" d="M1589.959,270.034a1.117,1.117,0,0,0,.709.422c.842.154,1.685-.63,1.884-1.751a1.872,1.872,0,0,0-1.163-2.307,1.359,1.359,0,0,0-1.13.349,2.841,2.841,0,0,0-.645,1.978A2.129,2.129,0,0,0,1589.959,270.034Z" transform="translate(-1589.615 -266.38)" fill="#f8a07d"/>
                  </g>
                </g>
              </g>
            </g>
          </g>
          <g id="Group_19598" data-name="Group 19598" transform="translate(0.843 0.666)">
            <g id="Group_19596" data-name="Group 19596" transform="translate(0.396)">
              <path id="Path_10480" data-name="Path 10480" d="M1596.337,270.333c.13-.587,1.265.126,1.042.438a1.843,1.843,0,0,1-.539.411.883.883,0,0,0-.448.605c-.009.034-.027.137,0,.166.143.126.722-.393.85-.5a1,1,0,0,0,.259-.934.6.6,0,0,0-.608-.526c-.271-.017-.549-.031-.573.307,0,.007,0,.064.012.034Z" transform="translate(-1596.325 -269.985)" fill="#e98b6f"/>
            </g>
            <g id="Group_19597" data-name="Group 19597" transform="translate(0 0.938)">
              <path id="Path_10481" data-name="Path 10481" d="M1594.9,275.14c-.11-.141-.241-.052-.381.026a.569.569,0,0,0-.258.324,1.41,1.41,0,0,0,.031,1.011.756.756,0,0,0,.6.422c.363.032.51-.274.56-.579.014-.081.044-.276-.03-.336s-.158.062-.223.113a.509.509,0,0,1-.321.079.658.658,0,0,1-.51-.3.345.345,0,0,1-.043-.1c-.023.2-.019.246.016.138a.556.556,0,0,1,.085-.133c.1-.129.254-.207.363-.328.053-.056.162-.261.107-.333Z" transform="translate(-1594.183 -275.066)" fill="#e98b6f"/>
            </g>
          </g>
        </g>
        <path id="Path_10482" data-name="Path 10482" d="M1541.379,262.309l1.706.659s-2.3.143-2.39-.525c0,0,.348-1.3.725-2.541C1541.42,259.9,1541.126,262.212,1541.379,262.309Z" transform="translate(-1488.876 -244.905)" fill="#e98b6f"/>
        <g id="Group_19600" data-name="Group 19600" transform="translate(49.366 12.418)">
          <path id="Path_10483" data-name="Path 10483" d="M1560.52,257.023c0,.361.2.652.443.652s.443-.291.443-.652-.2-.652-.443-.652S1560.52,256.663,1560.52,257.023Z" transform="translate(-1554.406 -254.444)" fill="#271000"/>
          <path id="Path_10484" data-name="Path 10484" d="M1533.87,254.062c0,.361.2.652.444.652s.442-.291.442-.652-.2-.652-.442-.652S1533.87,253.7,1533.87,254.062Z" transform="translate(-1532.677 -252.029)" fill="#271000"/>
          <path id="Path_10485" data-name="Path 10485" d="M1557.057,249.639c-.159.033-.2-.181-.2-.181a.744.744,0,0,1,.011-.382.368.368,0,0,1,.189-.193,5.362,5.362,0,0,1,1.884.246c.374.112.981.389,1.02.735.012.1.021.281-.1.312A15.3,15.3,0,0,0,1557.057,249.639Z" transform="translate(-1551.405 -248.325)" fill="#271000"/>
          <path id="Path_10486" data-name="Path 10486" d="M1527.465,246.686a13.349,13.349,0,0,1,2.2.23c.144.075.239-.12.239-.12a.747.747,0,0,0,.094-.371.365.365,0,0,0-.13-.237,4,4,0,0,0-1.63-.255,3.2,3.2,0,0,0-.819.111A1.606,1.606,0,0,0,1527.465,246.686Z" transform="translate(-1527.408 -245.932)" fill="#271000"/>
        </g>
        <g id="Group_19601" data-name="Group 19601" transform="translate(51.372 19.488)">
          <path id="Path_10487" data-name="Path 10487" d="M1538.45,284.223c-.14,0-.215.064-.162.165a2.1,2.1,0,0,0,3.64.44c.085-.094.011-.189-.163-.211C1541.766,284.616,1539.91,284.379,1538.45,284.223Z" transform="translate(-1538.271 -284.223)" fill="#fff"/>
        </g>
        <path id="Path_10488" data-name="Path 10488" d="M1583.634,578.4a13.741,13.741,0,0,1,0,13.269c-3.876,7.014-15.713,4.457-15.748-4.627C1567.852,578.064,1576.018,574.633,1583.634,578.4Z" transform="translate(-1511.047 -503.366)" fill="#065099"/>
        <path id="Path_10489" data-name="Path 10489" d="M1506.805,328.932a42.661,42.661,0,0,0-7.53.921c-2.248,1.642-2.505,5.567-1.7,8.02.921,2.816,1.286,6.411,2.208,10.483,1.25,5.52-.326,9.555,1.067,15.036,1.153,4.534,25.259,0,25.259,0l3.062-21.215s1.125-5.825-4.152-7.762a72.886,72.886,0,0,0-9.376-4.292s.635,4.292-6.361,3.106C1509.281,333.23,1505.007,332.2,1506.805,328.932Z" transform="translate(-1453.377 -301.19)" fill="#872952"/>
        <path id="Path_10490" data-name="Path 10490" d="M1536.427,501.278c1.023,3.641,1.833,15.918,1.833,15.918-2.772,11.492-28.267,3.224-28.418,1.575-.18-1.974.6-11.366,1-19.494C1510.842,499.277,1521.566,495.442,1536.427,501.278Z" transform="translate(-1463.697 -439.075)" fill="#872952"/>
        <path id="Path_10491" data-name="Path 10491" d="M1611.492,372.339c1.664,3.382,7.838,20.459,9.823,23.158.528.718,5.617,4,6.762-.472-2.805-17.726-7.048-27.837-7.048-27.837s-4.955-4.132-8.914-.313C1612.117,366.875,1610.318,370,1611.492,372.339Z" transform="translate(-1546.277 -330.807)" fill="#f7a483"/>
        <path id="Path_10492" data-name="Path 10492" d="M1609.079,365.279a5.964,5.964,0,1,0,6.872-4.889A5.963,5.963,0,0,0,1609.079,365.279Z" transform="translate(-1544.565 -326.771)" fill="#f7a483"/>
        <path id="Path_10493" data-name="Path 10493" d="M1607.413,355.1s5.125,1.922,6.339,6.081l3.163,11.32s-4.145,6.027-10.323,5.828l-6.1-13.558S1596.382,357.156,1607.413,355.1Z" transform="translate(-1537.019 -322.526)" fill="#872952"/>
        <g id="Group_19602" data-name="Group 19602" transform="translate(69.985 62.503)">
          <path id="Path_10494" data-name="Path 10494" d="M1665.47,519.39a210.806,210.806,0,0,0,.384,25.627s1.122,2.042,2.334.632,4.83-25.128,4.045-26.731C1670.215,514.8,1665.47,519.39,1665.47,519.39Z" transform="translate(-1660.417 -517.201)" fill="#f7a483"/>
          <path id="Path_10495" data-name="Path 10495" d="M1644.521,667.854l-2.209,2.134-3.227,1.859a1.738,1.738,0,0,0,2.26.314,35.751,35.751,0,0,0-.868,4.088c-.295.85.513.8.513.8a16.821,16.821,0,0,0,2.115-3.618,41.057,41.057,0,0,1-1.608,4.188c-.115.742.633.543.633.543,1.549-.881,2.112-4.182,2.112-4.182a23.856,23.856,0,0,1-1.206,3.813c.169.514.42.344.42.344,1.334-.511,1.867-3.687,1.867-3.687l-.23,1.185c-.461,1.594.539,1.2.539,1.2l.371-.8a9.677,9.677,0,0,0,.811-4.669l.041-2.882Z" transform="translate(-1639.084 -640.039)" fill="#f7a483"/>
        </g>
        <path id="Path_10496" data-name="Path 10496" d="M1262.283,438.466l1.434.661s-2.908-.613-3.327-1.862c0,0-.147-.238.332-.375a21.935,21.935,0,0,0,3.468,1.259,16.04,16.04,0,0,1-4.057-1.528s-.426-.725.439-.765c-.414-.451.19-.573.19-.573a10.023,10.023,0,0,1,1.83.167,40.858,40.858,0,0,0,4.2.368s-1.008-1.711-.062-2.221l1.7,2.346,1.418,2.365-.419,1.543-2.906.434a15.009,15.009,0,0,1-3.73-.742S1259.442,437.735,1262.283,438.466Z" transform="translate(-1260.029 -386.53)" fill="#e59375"/>
        <path id="Path_10497" data-name="Path 10497" d="M1605.75,832.467l6.631,41.32s2.2,2.116,7.293,0l.846-20.19s1.5-13.338-3.785-22.852C1616.735,830.744,1606.33,822.347,1605.75,832.467Z" transform="translate(-1541.919 -707.686)" fill="#065099"/>
        <path id="Path_10498" data-name="Path 10498" d="M1526.519,829.756s2.823,4.082.293,19.409l-2.588,20.931a6.9,6.9,0,0,1-6.327.081l-2.087-41.7S1517.68,821.4,1526.519,829.756Z" transform="translate(-1468.585 -706.224)" fill="#104473"/>
      </g>
    </g>
    <g id="Group_19629" data-name="Group 19629" transform="translate(120.273 164.325)">
      <path id="Path_10499" data-name="Path 10499" d="M369.665,308.04c.521,3.789,1.852,4.779.664,8.73-1.1,3.651-4.117,6.329-4.521,10.266-.287,2.8.436,7.346,2.291,9.6,2.69,3.268,8.823,1.43,12.321.864,3.98-.644,12.859-.923,15.312-4.848,1.861-2.978-.5-8.264-1.262-11.307-.967-3.862-1.979-7.716-2.873-11.6-.812-3.526-1.836-9.424-4.62-12.041s-5.921-1.881-9.427-1.486C373.348,296.693,369.015,303.308,369.665,308.04Z" transform="translate(-345.56 -295.788)" fill="#3f1901"/>
      <path id="Path_10500" data-name="Path 10500" d="M310.67,1104.079c0,6.668-12.148,12.073-27.133,12.073s-27.132-5.4-27.132-12.073,12.148-12.072,27.132-12.072S310.67,1097.412,310.67,1104.079Z" transform="translate(-256.405 -944.979)" fill="rgba(171,180,194,0.24)"/>
      <g id="Group_19628" data-name="Group 19628" transform="translate(5.486 0)">
        <g id="Group_19607" data-name="Group 19607" transform="translate(27.922 148.77)">
          <path id="Path_10501" data-name="Path 10501" d="M441.687,1130.033l.446-.083.445-3.735-1.169-1.385Z" transform="translate(-440.659 -1120.512)" fill="#561136"/>
          <g id="Group_19606" data-name="Group 19606">
            <path id="Path_10502" data-name="Path 10502" d="M437.844,1124.755l.536.3-.083-6.115-.944-.214Z" transform="translate(-437.352 -1115.538)" fill="#152035"/>
            <g id="Group_19605" data-name="Group 19605">
              <path id="Path_10503" data-name="Path 10503" d="M442.193,1102.964l.992,3.279a22.07,22.07,0,0,0,2.465,4.4s2.011,2.757-1.752,2.573c0,0-4.013-.214-3.952-2.788.053-2.214-1.981-4.962-1.981-4.962a2.237,2.237,0,0,1,.262-2.643l.7-.8,3.375-.589Z" transform="translate(-437.589 -1101.443)" fill="#e59375"/>
              <path id="Path_10504" data-name="Path 10504" d="M445.63,1114.26a5.056,5.056,0,0,1-4.371-1.323c-1.043-1.027-2.234-4.788-1.84-3.539.164.517-1.063-4.056-.736-4.77l-.7.8a2.335,2.335,0,0,0-.332,2.713s2.1,2.678,2.051,4.893c-.061,2.574,3.952,2.788,3.952,2.788,2.259.11,2.436-.839,2.218-1.615A2.477,2.477,0,0,1,445.63,1114.26Z" transform="translate(-437.35 -1104.04)" fill="#152035"/>
              <path id="Path_10505" data-name="Path 10505" d="M457.267,1142.532s.566,1.071-1.231,1.071c0,0-6.734-.428-6.731-3.321l0-2.331s.529,3.326,4.688,3.335c0,0,1.847,0,.893-1.177Z" transform="translate(-447.095 -1131.211)" fill="#152035"/>
            </g>
          </g>
        </g>
        <g id="Group_19627" data-name="Group 19627">
          <path id="Path_10506" data-name="Path 10506" d="M421.049,372.968h8.827c-.4-1.285-1.233-4.612.053-6.875l-8.917-5.856S422.6,370.062,421.049,372.968Z" transform="translate(-396.106 -348.316)" fill="#f7a483"/>
          <path id="Path_10507" data-name="Path 10507" d="M422.038,367.423a3.881,3.881,0,0,0,2.779,2.45,9.323,9.323,0,0,0,4.482.332,6.984,6.984,0,0,1,.629-4.113l-8.917-5.856s.483,3,.656,6.17C421.788,366.745,421.9,367.084,422.038,367.423Z" transform="translate(-396.106 -348.316)" fill="#e1876f"/>
          <path id="Path_10508" data-name="Path 10508" d="M420.629,318.193l.468-1.328,1.143-3.905a3.933,3.933,0,0,0,.02-2.073,6.272,6.272,0,0,1-.182-3.241c.727-3.554-.851-5.409-.851-5.409-2.074-3.267-6.968-3.252-6.968-3.252-6.053.315-6.546,6.175-6.546,6.175-.973,3.9,2.137,7.136,2.142,7.141a4.3,4.3,0,0,1,.626,1.581,4.868,4.868,0,0,0,.888,1.48,10.874,10.874,0,0,0,3.1,2.491,11.983,11.983,0,0,0,4.666,1.1C419.755,318.948,420.361,318.955,420.629,318.193Z" transform="translate(-385.109 -298.373)" fill="#f7a483"/>
          <g id="Group_19610" data-name="Group 19610" transform="translate(6.86 150.436)">
            <path id="Path_10509" data-name="Path 10509" d="M325.492,1133.606l.448.065,1.62-3.4-.662-1.686Z" transform="translate(-325.082 -1125.244)" fill="#561136"/>
            <g id="Group_19609" data-name="Group 19609">
              <path id="Path_10510" data-name="Path 10510" d="M323.273,1127.366l.41.46,1.883-5.819-.826-.506Z" transform="translate(-323.273 -1119.463)" fill="#152035"/>
              <g id="Group_19608" data-name="Group 19608" transform="translate(1.42)">
                <path id="Path_10511" data-name="Path 10511" d="M336.278,1112.4c-.089,2.733-.291,5.8.811,8.387,0,0,1.02,3.257-2.485,1.875,0,0-3.733-1.49-2.849-3.908.76-2.081-.286-5.336-.286-5.336a2.24,2.24,0,0,1,1.1-2.419l.915-.531h3.509Z" transform="translate(-331.334 -1110.465)" fill="#f7a483"/>
                <path id="Path_10512" data-name="Path 10512" d="M336.6,1121.817a5.056,5.056,0,0,1-3.716-2.655c-.659-1.308-.58-5.252-.607-3.943-.011.542.294-4.182.833-4.754l-.915.531a2.335,2.335,0,0,0-1.184,2.463s1.133,3.212.373,5.293c-.883,2.419,2.849,3.908,2.849,3.908,2.1.829,2.577-.012,2.619-.818A2.529,2.529,0,0,1,336.6,1121.817Z" transform="translate(-330.962 -1110.465)" fill="#152035"/>
                <path id="Path_10513" data-name="Path 10513" d="M338.737,1150.437s.193,1.2-1.51.619c0,0-6.241-2.565-5.31-5.3l.745-2.208s-.566,3.32,3.371,4.663c0,0,1.749.592,1.223-.829Z" transform="translate(-331.664 -1137.437)" fill="#152035"/>
              </g>
            </g>
          </g>
          <path id="Path_10514" data-name="Path 10514" d="M348.433,884.507c-4.476,8.265-5.268,11.628-6.064,17.912-.465,3.655-.31,19.05-.79,21.347-.2.953,3.418.43,3.418.43.661-1.61,11.2-36.984,11.2-36.984s1.178-3.664.2-4.3C351.485,879.711,350.384,880.905,348.433,884.507Z" transform="translate(-331.333 -772.974)" fill="#f7a483"/>
          <path id="Path_10515" data-name="Path 10515" d="M387.877,566.821s3.439,14.557,2.978,16.148c-1.33,4.58-14.3,15.257-25.548,5.883,0,0,2.317-16.326,8.539-24.123C373.846,564.729,375.808,566.756,387.877,566.821Z" transform="translate(-350.686 -515.053)" fill="#f7a483"/>
          <path id="Path_10516" data-name="Path 10516" d="M402.775,414.987s4.5,8.7,6.511,13.476c-.842,5.6-3.883,13.9-5.106,15.65-2.678,3.836-14.921.411-14.921.411l-3.53-11.782c10.3-3.7,4.877-14.555,4.877-14.555l1.614-1.02s1.648,5.335,8.353,5.145c0,0,2.2-1.434.581-7.52A9.473,9.473,0,0,1,402.775,414.987Z" transform="translate(-367.339 -392.799)" fill="#6652a2"/>
          <path id="Path_10517" data-name="Path 10517" d="M417.359,648.758s1.185,23.485,5.53,36.115c.647,1.883,8.072-.619,8.072-.619s3.746-20.206,3.522-28.578c-.128-4.732-1.821-14.935-1.821-14.935S418.738,638.921,417.359,648.758Z" transform="translate(-393.128 -576.922)" fill="#e59375"/>
          <path id="Path_10518" data-name="Path 10518" d="M433.063,877.537l7.859-.535s-4.829,40.091-5.267,41.776c0,0-3.379,1.222-3.31.251.164-2.341-2.655-20.333-2.74-24.016C429.467,889.1,429.7,885.359,433.063,877.537Z" transform="translate(-403.089 -769.67)" fill="#e59375"/>
          <g id="Group_19611" data-name="Group 19611" transform="translate(32.54 22.375)">
            <path id="Path_10519" data-name="Path 10519" d="M462.444,421.021a5.176,5.176,0,0,0,4.184,6.007c2.814.5,9.607.774,8.5-1.86-2.142-5.082-4.487-7.719-7.3-8.222S462.947,418.207,462.444,421.021Z" transform="translate(-462.362 -416.86)" fill="#e59375"/>
            <path id="Path_10520" data-name="Path 10520" d="M475.791,440.646l2.366-4.655,5.361-.1s6.919,12.733,8.216,16.52c1.383,4.033-1.872,2.519-3.241,2.063C488.493,454.474,477.161,443.684,475.791,440.646Z" transform="translate(-473.312 -432.377)" fill="#e59375"/>
            <path id="Path_10521" data-name="Path 10521" d="M544.59,527.089s4.424,5.589,7.37,6.929c0,0,3.035-2.068-3.919-8.278C548.042,525.741,545.495,523.258,544.59,527.089Z" transform="translate(-529.408 -504.993)" fill="#e59375"/>
          </g>
          <path id="Path_10522" data-name="Path 10522" d="M365.307,669.4s.09,23.494,3.19,36.487c.461,1.938,7.54,1.344,7.54,1.344s4.619-22.219,5.208-30.573c.333-4.722,1.277-12.985,1.277-12.985S365.951,662.034,365.307,669.4Z" transform="translate(-350.686 -595.605)" fill="#f7a483"/>
          <path id="Path_10523" data-name="Path 10523" d="M373.991,420.481a5.434,5.434,0,0,0-1.765,6.611l6.821,16.565s11.061,3.762,13.738-.075c1.223-1.75,2.355-6.395,3.84-13.092,1.009-4.552,1.077-12.5-1.485-14.857-1.478-1.358-6.26-1.33-6.3-1.491l-7.748,2.5Z" transform="translate(-355.944 -392.268)" fill="#f7a483"/>
          <path id="Path_10524" data-name="Path 10524" d="M387.874,562.2c.656-.118,4.191,1.278,4.191,1.278s2.547,10.855,2.692,12.505-11.207,10.194-23.886,5.329c0,0,6.4-15.1,7.339-18.26C379.284,559.423,387.874,562.2,387.874,562.2Z" transform="translate(-355.223 -512.161)" fill="#f7a483"/>
          <path id="Path_10525" data-name="Path 10525" d="M486.84,452.209s3.742,4.408,4.056,7.681c.176,1.824-2.127,4.875-3.278,6C486.8,466.688,481.968,455.251,486.84,452.209Z" transform="translate(-448.031 -423.307)" fill="#122b67"/>
          <path id="Path_10526" data-name="Path 10526" d="M400.148,311.859a11.322,11.322,0,0,1,.039-2.595c.065-.808,1.649.934,1.617-.119-.15-4.815,1.6-7.108,2.284-7.478a8.475,8.475,0,0,1,5.372-1.019c2.435.432,2.343,3.674,2.343,3.674,2.075-11.869-11.162-8.076-11.162-8.076a7.336,7.336,0,0,0-5.782,7.768c-.79,6.522,5.39,10.291,5.39,10.291Z" transform="translate(-374.725 -295.671)" fill="#3f1901"/>
          <g id="Group_19620" data-name="Group 19620" transform="translate(23.269 11.64)">
            <g id="Group_19616" data-name="Group 19616">
              <g id="Group_19615" data-name="Group 19615">
                <g id="Group_19614" data-name="Group 19614">
                  <g id="Group_19613" data-name="Group 19613">
                    <g id="Group_19612" data-name="Group 19612">
                      <path id="Path_10527" data-name="Path 10527" d="M414.724,362.323a1.3,1.3,0,0,1-.84.256,1.906,1.906,0,0,1-1.737-1.957,1.749,1.749,0,0,1,1.655-1.905,1.644,1.644,0,0,1,1.161.53,2.372,2.372,0,0,1,.357,1.938A1.794,1.794,0,0,1,414.724,362.323Z" transform="translate(-412.146 -358.716)" fill="#f8a07d"/>
                    </g>
                  </g>
                </g>
              </g>
            </g>
            <g id="Group_19619" data-name="Group 19619" transform="translate(0.873 0.612)">
              <g id="Group_19617" data-name="Group 19617">
                <path id="Path_10528" data-name="Path 10528" d="M418.037,362.411c-.056-.56-1.189-.025-1.018.29a1.728,1.728,0,0,0,.455.442.821.821,0,0,1,.348.612c0,.032.011.129-.023.152-.146.1-.627-.445-.732-.56a.938.938,0,0,1-.136-.9.561.561,0,0,1,.621-.42c.255.015.513.033.5.348,0,.007-.012.059-.014.031Z" transform="translate(-416.876 -362.03)" fill="#e98b6f"/>
              </g>
              <g id="Group_19618" data-name="Group 19618" transform="translate(0.145 0.908)">
                <path id="Path_10529" data-name="Path 10529" d="M418.313,367c.119-.118.23-.019.351.067a.538.538,0,0,1,.2.33,1.314,1.314,0,0,1-.14.935.709.709,0,0,1-.609.323c-.34-.009-.443-.311-.455-.6,0-.076-.01-.259.066-.307s.139.075.194.129a.483.483,0,0,0,.289.109.618.618,0,0,0,.506-.226.285.285,0,0,0,.052-.088c0,.189-.011.23-.03.127a.513.513,0,0,0-.064-.133c-.08-.131-.212-.22-.3-.344-.042-.057-.122-.26-.062-.321Z" transform="translate(-417.66 -366.946)" fill="#e98b6f"/>
              </g>
            </g>
          </g>
          <g id="Group_19622" data-name="Group 19622" transform="translate(29.209 8.445)">
            <path id="Path_10530" data-name="Path 10530" d="M451.532,353.418c.032.336-.126.625-.353.647s-.438-.232-.47-.567.126-.625.352-.647S451.5,353.084,451.532,353.418Z" transform="translate(-449.525 -350.738)" fill="#3c2415"/>
            <path id="Path_10531" data-name="Path 10531" d="M476.749,349.9c.013.337-.162.616-.392.625s-.423-.258-.436-.594.163-.616.392-.624S476.736,349.566,476.749,349.9Z" transform="translate(-470.087 -347.85)" fill="#3c2415"/>
            <path id="Path_10532" data-name="Path 10532" d="M444.32,346.359c.875-.919,2.934-.846,2.934-.846s.137-.007.1-.426c0,0-.011-.371-.307-.335C447.047,344.752,444.428,344.578,444.32,346.359Z" transform="translate(-444.32 -344.131)" fill="#3f1901"/>
            <path id="Path_10533" data-name="Path 10533" d="M474.4,341.617a3.84,3.84,0,0,0-2.618.1c-.3.043-.209.4-.209.4.075.414.209.384.209.384a4.643,4.643,0,0,1,2.547-.479C474.381,341.745,474.363,341.768,474.4,341.617Z" transform="translate(-466.53 -341.409)" fill="#3f1901"/>
            <g id="Group_19621" data-name="Group 19621" transform="translate(2.566 6.932)">
              <path id="Path_10534" data-name="Path 10534" d="M461.728,378.954l-3.315.613c-.175.033-.243.136-.15.229a2.1,2.1,0,0,0,3.641-.682C461.95,379.006,461.87,378.943,461.728,378.954Z" transform="translate(-458.22 -378.953)" fill="#fff"/>
            </g>
            <path id="Path_10535" data-name="Path 10535" d="M464.32,362.649c1.737-.126,1.832-.581,1.832-.581l-.912-1.831S465.451,362.068,464.32,362.649Z" transform="translate(-460.627 -356.761)" fill="#e98b6f"/>
          </g>
          <g id="Group_19625" data-name="Group 19625" transform="translate(44.628 40.639)">
            <g id="Group_19624" data-name="Group 19624">
              <path id="Path_10536" data-name="Path 10536" d="M543.381,518.429l-4.191,16.918c0,.313-.211.37-.211.37l-7.413,3.09a.259.259,0,0,1-.336-.3l4.191-16.827c0-.354.232-.406.232-.406l7.38-3.076S543.381,518.056,543.381,518.429Z" transform="translate(-530.601 -517.733)" fill="#25386f"/>
              <g id="Group_19623" data-name="Group 19623">
                <path id="Path_10537" data-name="Path 10537" d="M527.885,552.053l.72.482c-.134-.043-.142-.274-.142-.274l4.187-16.875-.628-.427-4.191,16.963A.146.146,0,0,0,527.885,552.053Z" transform="translate(-527.831 -531.418)" fill="#365195"/>
                <path id="Path_10538" data-name="Path 10538" d="M551.326,533.319a.409.409,0,0,0-.165.388l-.628-.423a.464.464,0,0,1,.174-.385Z" transform="translate(-546.342 -529.739)" fill="#365195"/>
                <path id="Path_10539" data-name="Path 10539" d="M551.453,518.947a.252.252,0,0,1,.052-.034l7.38-3.081a.417.417,0,0,1,.425.022l.449.3a.24.24,0,0,1,.1.233s-.034-.235-.334-.136l-7.452,3.112Z" transform="translate(-547.092 -515.783)" fill="#a4def6"/>
              </g>
              <path id="Path_10540" data-name="Path 10540" d="M543.381,518.429l-4.191,16.918c0,.313-.211.37-.211.37l-7.413,3.09a.259.259,0,0,1-.336-.3l4.191-16.827c0-.354.232-.406.232-.406l7.38-3.076S543.381,518.056,543.381,518.429Z" transform="translate(-530.601 -517.733)" fill="none" stroke="#365195" stroke-width="0.59"/>
            </g>
            <path id="Path_10541" data-name="Path 10541" d="M570.04,553.637a5.889,5.889,0,0,1-1.457,1.894c-.727.575-1.94.4-2.407.82-.815.731-.237,2.7,1.481,4.684,1.49,1.718,2.588-.53,3.09-1.913.741-2.043.692-2.956-.153-4.6Z" transform="translate(-558.799 -546.648)" fill="#e59375"/>
          </g>
          <circle id="Ellipse_264" data-name="Ellipse 264" cx="0.574" cy="0.574" r="0.574" transform="translate(24.744 14.869)" fill="#fff"/>
          <path id="Path_10542" data-name="Path 10542" d="M392.256,593.806a108.411,108.411,0,0,0-.988-10.837c-.157-2.654-3.177-16.148-3.177-16.148-12.068-.065-14.792-2.092-14.792-2.092a59.777,59.777,0,0,0-6.736,17.944,42,42,0,0,0-.974,10.194c.146,4.674.326,9.34.66,14,.058.82.5,9.213.885,9.249,0,0,20.243,2.105,23.758-7.05A108.644,108.644,0,0,0,392.256,593.806Z" transform="translate(-350.901 -515.053)" fill="#cc4e7e"/>
          <path id="Path_10543" data-name="Path 10543" d="M390.269,444.524s12.591,3.88,15.27.043c1.222-1.75,3.915-10.507,4.757-16.1-2.01-4.774-6.511-13.476-6.511-13.476a9.472,9.472,0,0,0-1.619-.194c1.621,6.086-.581,7.52-.581,7.52-6.705.19-8.353-5.145-8.353-5.145l-1.614,1.019s4.995,10.375-4.645,15.12C386.971,433.306,386.739,444.436,390.269,444.524Z" transform="translate(-368.348 -392.799)" fill="#122b67"/>
          <g id="Group_19626" data-name="Group 19626" transform="translate(0 28.267)">
            <path id="Path_10544" data-name="Path 10544" d="M356.58,453.1a5.175,5.175,0,0,1-4.413,5.841c-2.831.395-10.331-.341-8.728-2.709,3.15-4.654,5.093-7.018,7.924-7.412S356.187,450.273,356.58,453.1Z" transform="translate(-332.675 -448.772)" fill="#f7a483"/>
            <path id="Path_10545" data-name="Path 10545" d="M307.468,471.665l-2.183-4.743-5.354-.307s-11.971,12.3-13.414,16.028c-1.537,3.977,1.773,2.589,3.159,2.186C289.676,484.828,305.982,474.647,307.468,471.665Z" transform="translate(-286.118 -463.32)" fill="#f7a483"/>
            <path id="Path_10546" data-name="Path 10546" d="M287.213,547.688s5.6,8.679,11.379,14.033c0,0,2.582-.163,1.817-1.6-1.3-2.433-6.6-13.8-7.912-16.242C291.757,542.512,287.213,547.688,287.213,547.688Z" transform="translate(-287.011 -526.135)" fill="#f7a483"/>
            <path id="Path_10547" data-name="Path 10547" d="M351.012,629.476l2.923.944,1.351-1.633a7.824,7.824,0,0,0,.475,3.158,36.072,36.072,0,0,1,2.581,3.288c.639.632-.109.943-.109.943a16.829,16.829,0,0,1-3.492-2.317,41.279,41.279,0,0,0,3.287,3.054c.431.614-.329.765-.329.765-1.777-.109-3.737-2.824-3.737-2.824a23.892,23.892,0,0,0,2.763,2.892c.075.536-.226.494-.226.494-1.422.129-3.3-2.488-3.3-2.488l.729.962c1.116,1.228.043,1.313.043,1.313l-.684-.551a9.678,9.678,0,0,1-2.784-3.836l-1.307-2.569Z" transform="translate(-337.548 -595.55)" fill="#f7a483"/>
          </g>
        </g>
      </g>
      <path id="Path_10548" data-name="Path 10548" d="M381.939,303.668c-4,2.192-6.256,4.207-5.218,9.074.936,4.388,1.255,6.791-1.164,10.706-2.271,3.676-2.474,5.775-.518,9.716,1.57,3.164,3.114,6.2-.821,8.1-7.428,3.588-14.333-2.3-11.548-10.344,1.248-3.605,4.281-6.062,5.725-9.527,1.462-3.511.053-6.5-.259-10.051-.521-5.935,7.582-14.554,12.687-8.8a10.375,10.375,0,0,1,1.117,1.648Z" transform="translate(-342.535 -299.728)" fill="#3f1901"/>
    </g>
    <g id="Group_19632" data-name="Group 19632" transform="translate(191.606 200.597)">
      <g id="Group_19630" data-name="Group 19630" transform="translate(0 71.15)">
        <path id="Path_10549" data-name="Path 10549" d="M642.764,1132.35v19.057c0,25.992,36.955,47.058,82.535,47.058s82.534-21.066,82.534-47.058V1132.35Z" transform="translate(-642.764 -1085.295)" fill="#133a7d"/>
        <path id="Path_10550" data-name="Path 10550" d="M725.3,971.605c-45.581,0-82.535-21.066-82.535-47.058s36.954-47.055,82.535-47.055,82.534,21.071,82.534,47.055S770.882,971.605,725.3,971.605Z" transform="translate(-642.761 -877.492)" fill="#0a73d7"/>
        <path id="Path_10551" data-name="Path 10551" d="M802.667,1005.722c-35.906,0-65.016-16.594-65.016-37.069s29.11-37.067,65.016-37.067,65.014,16.6,65.014,37.067S838.575,1005.722,802.667,1005.722Z" transform="translate(-720.131 -921.599)" fill="#fff"/>
        <path id="Path_10552" data-name="Path 10552" d="M872.373,1036.467c-27.189,0-49.231-12.565-49.231-28.069s22.043-28.068,49.231-28.068S921.6,992.9,921.6,1008.4,899.564,1036.467,872.373,1036.467Z" transform="translate(-789.838 -961.343)" fill="#0a73d7"/>
        <path id="Path_10553" data-name="Path 10553" d="M947.132,1069.441c-17.84,0-32.3-8.245-32.3-18.418s14.463-18.417,32.3-18.417,32.3,8.246,32.3,18.417S964.973,1069.441,947.132,1069.441Z" transform="translate(-864.597 -1003.967)" fill="#fff"/>
        <path id="Path_10554" data-name="Path 10554" d="M1017.663,1100.547c-9.02,0-16.332-4.169-16.332-9.312s7.312-9.311,16.332-9.311,16.331,4.169,16.331,9.311S1026.684,1100.547,1017.663,1100.547Z" transform="translate(-935.128 -1044.179)" fill="#0a73d7"/>
        <path id="Path_10555" data-name="Path 10555" d="M1065.4,1121.6c-3.05,0-5.523-1.409-5.523-3.148s2.472-3.148,5.523-3.148,5.522,1.41,5.522,3.148S1068.451,1121.6,1065.4,1121.6Z" transform="translate(-982.865 -1071.398)" fill="#133a7d"/>
      </g>
      <g id="Group_19631" data-name="Group 19631" transform="translate(65.952)">
        <path id="Path_10556" data-name="Path 10556" d="M1089.79,536.684V500.837l16.584-8.71V526.3Z" transform="translate(-1073.207 -492.127)" fill="#447fc1"/>
        <path id="Path_10557" data-name="Path 10557" d="M1016.554,536.684V500.837l-16.583-8.71V526.3Z" transform="translate(-999.971 -492.127)" fill="#3dafe4"/>
        <line id="Line_32" data-name="Line 32" y2="112.122" transform="translate(16.583 6.868)" fill="none" stroke="#196eab" stroke-width="5"/>
      </g>
    </g>
    <g id="Group_19645" data-name="Group 19645" transform="translate(333.18 274.249)">
      <path id="Path_10558" data-name="Path 10558" d="M1451.2,1148.19" transform="translate(-1443.512 -1100.713)" fill="#f8a07d"/>
      <path id="Path_10559" data-name="Path 10559" d="M1450.273,1137.647s-.705-1.839,1.741-2.5a30.422,30.422,0,0,0,8.671,3.246c5.99,2.012,18.324-.553,23.936-1.719,6.3-1.309,9.223,5.818,3.178,8.15-11.311,4.364-29.245-.378-37.588-6.938" transform="translate(-1442.679 -1090.074)" fill="#f8a07d"/>
      <path id="Path_10560" data-name="Path 10560" d="M1750.254,1362.394c-2.519-11.766-3.273-39.018-3.273-39.018s2.019-2.68,9.287-3.148c7.288-.469,6.785,4.009,6.751,3.427a253.4,253.4,0,0,1-3.344,38.276S1754.492,1365.507,1750.254,1362.394Z" transform="translate(-1684.683 -1240.959)" fill="#053b6b"/>
      <path id="Path_10561" data-name="Path 10561" d="M1716.049,1281.248c.717-4.869-.767-9.78-1.533-14.7h-22.136c-1.416,4.719-2.889,9.565-2.889,9.565s-.947,11.162,8.533,12.5C1698.023,1288.613,1714.544,1291.477,1716.049,1281.248Z" transform="translate(-1637.785 -1197.218)" fill="#007ea3"/>
      <path id="Path_10562" data-name="Path 10562" d="M1566.533,1731.351c0,9.384-17.1,16.992-38.19,16.992s-38.189-7.607-38.189-16.992,17.1-16.992,38.189-16.992S1566.533,1721.966,1566.533,1731.351Z" transform="translate(-1475.274 -1562.349)" fill="rgba(171,180,194,0.24)"/>
      <g id="Group_19633" data-name="Group 19633" transform="translate(23.436 162.977)">
        <path id="Path_10563" data-name="Path 10563" d="M1543.913,1779.172l1.261-.073c.43-.066.427.609.485.633a13.724,13.724,0,0,0,2.987.947s2.334-.3,2.583-1.011l-.33-4.329c-2.6-.218-5.314-.721-5.314-.721l-5.715-.8c-2.75-.286-3.25.708-3.25.708S1534.939,1777.038,1543.913,1779.172Z" transform="translate(-1536.496 -1773.763)" fill="#17181c"/>
        <path id="Path_10564" data-name="Path 10564" d="M1547.382,1780.853a6.837,6.837,0,0,0-1.478-.481c-2.819-.494-5.576-.773-7.923-2.586a2.317,2.317,0,0,1-1.018-1.649,1.013,1.013,0,0,0-.341.323s-1.684,2.515,7.292,4.65l1.261-.073c.43-.066.427.609.485.633a13.7,13.7,0,0,0,2.987.947s2.333-.3,2.583-1.01l-.08-1.055A4.509,4.509,0,0,1,1547.382,1780.853Z" transform="translate(-1536.495 -1775.699)" fill="#040308"/>
      </g>
      <g id="Group_19634" data-name="Group 19634" transform="translate(61.616 161.905)">
        <path id="Path_10565" data-name="Path 10565" d="M1750.7,1773.362l1.262-.073c.43-.067.426.609.485.632a13.748,13.748,0,0,0,2.986.947s2.333-.3,2.582-1.01l-.328-4.329c-2.6-.219-5.315-.721-5.315-.721l-5.715-.8c-2.75-.287-3.25.708-3.25.708S1741.725,1771.228,1750.7,1773.362Z" transform="translate(-1743.284 -1767.953)" fill="#17181c"/>
        <path id="Path_10566" data-name="Path 10566" d="M1754.17,1775.04a6.826,6.826,0,0,0-1.478-.48c-2.82-.495-5.576-.774-7.924-2.587a2.317,2.317,0,0,1-1.018-1.649,1.019,1.019,0,0,0-.341.324s-1.684,2.515,7.292,4.648l1.262-.072c.43-.067.426.609.485.632a13.722,13.722,0,0,0,2.986.947s2.333-.3,2.582-1.011l-.079-1.053A4.5,4.5,0,0,1,1754.17,1775.04Z" transform="translate(-1743.283 -1769.886)" fill="#040308"/>
      </g>
      <path id="Path_10567" data-name="Path 10567" d="M1768.3,1573.4c-.936-1.117-4.009-42.165-4.009-42.165-.509-6.31,9.983-3.66,9.983-3.66,1.528,6.282,1.281,7.464,1.761,15.259.19,3.079-.3,28.578-.187,30.539C1775.846,1573.37,1770.977,1576.6,1768.3,1573.4Z" transform="translate(-1698.781 -1409.599)" fill="#053b6b"/>
      <path id="Path_10568" data-name="Path 10568" d="M1726.21,1291.112s-6.3,10.727-2.423,17.74,20.212-.619,19.207-8.741C1741.894,1291.2,1733.826,1287.349,1726.21,1291.112Z" transform="translate(-1664.742 -1216.076)" fill="#30528b"/>
      <path id="Path_10569" data-name="Path 10569" d="M1694.852,1212.483c-1.024,3.641-5.244,17.535-5.244,17.535,11.566,10.908,26.5,2.259,26.646.611.18-1.974-2.022-9.51-2.423-17.639C1713.83,1212.989,1709.711,1206.646,1694.852,1212.483Z" transform="translate(-1637.902 -1151.122)" fill="#f7a483"/>
      <path id="Path_10570" data-name="Path 10570" d="M1691.6,1554.56" transform="translate(-1639.527 -1432.054)" fill="#152035"/>
      <path id="Path_10571" data-name="Path 10571" d="M1642.63,1344.767c1.228-11.97,9.755-42.507,9.755-42.507s2.492-2.3,9.552-.5c7.078,1.8,7.841,11.009,7.988,10.444a280.493,280.493,0,0,1-19.145,36.358S1645.5,1351.262,1642.63,1344.767Z" transform="translate(-1599.598 -1225.368)" fill="#30528b"/>
      <path id="Path_10572" data-name="Path 10572" d="M1584.94,1569.877c.207-1.443,10.852-44.333,10.852-44.333,2.506-5.289,9.7.28,9.7.28a45.584,45.584,0,0,1-2.606,15.875c-.978,2.925-10.028,29.413-10.659,31.272C1592.231,1572.972,1586.882,1574.669,1584.94,1569.877Z" transform="translate(-1552.559 -1406.537)" fill="#30528b"/>
      <g id="Group_19635" data-name="Group 19635" transform="translate(74.256 28.973)">
        <path id="Path_10573" data-name="Path 10573" d="M1822.151,1062.831s1.145,19.264.415,27.041c0,0,0,3.535-6.225,5.306,0,0-2.264-21.449-4.107-31.023C1812.233,1064.155,1815.91,1057.054,1822.151,1062.831Z" transform="translate(-1812.143 -1058.24)" fill="#e59375"/>
        <path id="Path_10574" data-name="Path 10574" d="M1814.806,1057.534a5.038,5.038,0,0,0,6.595-2.626,4.969,4.969,0,0,0-2.653-6.539,5.04,5.04,0,0,0-6.6,2.627A4.968,4.968,0,0,0,1814.806,1057.534Z" transform="translate(-1811.748 -1047.968)" fill="#e59375"/>
      </g>
      <path id="Path_10575" data-name="Path 10575" d="M1812.129,1043.3a6.6,6.6,0,0,1,4.793,6.329l.736,18.988a17.812,17.812,0,0,1-10.433,2.5S1800.434,1045.765,1812.129,1043.3Z" transform="translate(-1732.205 -1015.189)" fill="#ffd47c"/>
      <path id="Path_10576" data-name="Path 10576" d="M1695.99,1573.32" transform="translate(-1643.106 -1447.351)" fill="#f7a483"/>
      <path id="Path_10577" data-name="Path 10577" d="M1746.6,978.006s-.041,6.782-.633,13.537l8.946-1.482a6.619,6.619,0,0,1,.534-5.843Z" transform="translate(-1683.86 -961.95)" fill="#f7a483"/>
      <path id="Path_10578" data-name="Path 10578" d="M1709.977,1038.816c2.247,1.642,2.5,5.568,1.7,8.02-.922,2.816-1.287,6.411-2.209,10.484-1.25,5.519-2.1,9.771-3.489,15.252-1.153,4.534-19.369.88-19.369.88l-6.53-22.311s-1.124-5.824,4.153-7.762a78.894,78.894,0,0,1,9.628-4.379,17.55,17.55,0,0,1,8.583-1.1A42.689,42.689,0,0,1,1709.977,1038.816Z" transform="translate(-1630.054 -1010.704)" fill="#f7a483"/>
      <path id="Path_10579" data-name="Path 10579" d="M1690.281,1287.775a13.74,13.74,0,0,0,0,13.269c3.877,7.014,15.713,4.457,15.748-4.626C1706.063,1287.445,1697.9,1284.013,1690.281,1287.775Z" transform="translate(-1637.046 -1213.298)" fill="#30528b"/>
      <path id="Path_10580" data-name="Path 10580" d="M1702.452,1038.31a42.621,42.621,0,0,1,7.53.921c2.338,1.708,2.3,5.063,1.846,7.6-.862,4.854-1.737,9.759-2.187,14.67-.2,2.176-.742,6.6-.9,8.782a4.653,4.653,0,0,1-2.99,4.395c-1.644.849-2.866.175-4.657.223a90.3,90.3,0,0,1-13.566-.932c-.19-.023-7.235,4.729-4.917,1.232l-2.52-23.648s-1.124-5.824,4.153-7.762a42.5,42.5,0,0,1,7.78-3.7S1699.1,1040.273,1702.452,1038.31Z" transform="translate(-1630.058 -1011.12)" fill="#ffd47c"/>
      <path id="Path_10581" data-name="Path 10581" d="M1727.2,931.485l-.381-1.473-.905-5.431a5.473,5.473,0,0,1,.17-2.236,5.5,5.5,0,0,0,.278-2.292,6.681,6.681,0,0,1,1.66-5.822c2.535-3.332,7.809-2.866,7.811-2.865,2.735.414,5.124,1.544,6.484,4.039a10.179,10.179,0,0,1,1.173,7.548,15.293,15.293,0,0,1-4.407,6.9c-1.315,1.257-2.657,1.411-4.377,2.04a17.843,17.843,0,0,1-4.761.7C1729.271,932.592,1727.416,932.33,1727.2,931.485Z" transform="translate(-1667.461 -907.596)" fill="#f8a07d"/>
      <path id="Path_10582" data-name="Path 10582" d="M1733.481,911.348l.84,3.371a1.638,1.638,0,0,1,1.212,2.052l-.3,2.785.758.291c-.063-1.115,1.483-1.131,1.483-1.131,1.13-.065,1.323.9,1.258,1.827-.167,2.409.71,6.236,2.729,6.909.8.266,2.3.543,2.554-.538.308-1.321,2.811-3.946,2.811-3.946,3.006-2.911,3.76-7.88,2.339-11.677A9.184,9.184,0,0,0,1747,908.1a11.652,11.652,0,0,0-6.724-3s-3.427-.418-5.354.935a11.123,11.123,0,0,0-2.489,2.276A2.594,2.594,0,0,0,1733.481,911.348Z" transform="translate(-1672.704 -902.457)" fill="#3f1901"/>
      <g id="Group_19640" data-name="Group 19640" transform="translate(62.955 15.965)">
        <g id="Group_19639" data-name="Group 19639">
          <g id="Group_19638" data-name="Group 19638">
            <g id="Group_19637" data-name="Group 19637">
              <g id="Group_19636" data-name="Group 19636">
                <path id="Path_10583" data-name="Path 10583" d="M1751.123,981.3a1.39,1.39,0,0,0,.879.33,2.039,2.039,0,0,0,1.988-1.971,1.87,1.87,0,0,0-1.637-2.147,1.762,1.762,0,0,0-1.276.487,2.538,2.538,0,0,0-.514,2.044A1.911,1.911,0,0,0,1751.123,981.3Z" transform="translate(-1750.539 -977.513)" fill="#f8a07d"/>
              </g>
            </g>
          </g>
        </g>
      </g>
      <g id="Group_19643" data-name="Group 19643" transform="translate(63.973 16.629)">
        <g id="Group_19641" data-name="Group 19641" transform="translate(0.311)">
          <path id="Path_10584" data-name="Path 10584" d="M1757.753,981.479c.1-.594,1.27.055,1.065.379a1.84,1.84,0,0,1-.514.441.881.881,0,0,0-.413.629c-.006.035-.02.138.014.165.15.118.7-.433.819-.549a1,1,0,0,0,.208-.946.6.6,0,0,0-.636-.491c-.272,0-.55,0-.556.339,0,.007.007.063.013.033Z" transform="translate(-1757.74 -981.107)" fill="#e98b6f"/>
        </g>
        <g id="Group_19642" data-name="Group 19642" transform="translate(0 0.951)">
          <path id="Path_10585" data-name="Path 10585" d="M1756.725,986.323c-.118-.135-.244-.037-.379.048a.569.569,0,0,0-.239.339,1.407,1.407,0,0,0,.087,1.007.756.756,0,0,0,.628.387c.364.012.493-.3.526-.609.009-.082.029-.278-.049-.333s-.154.071-.216.126a.512.512,0,0,1-.316.1.661.661,0,0,1-.526-.276.333.333,0,0,1-.048-.1c-.012.2,0,.247.023.138a.52.52,0,0,1,.078-.138c.093-.134.242-.221.344-.348.049-.058.147-.27.088-.339Z" transform="translate(-1756.053 -986.256)" fill="#e98b6f"/>
        </g>
      </g>
      <g id="Group_19644" data-name="Group 19644" transform="translate(1.95 41.692)">
        <path id="Path_10586" data-name="Path 10586" d="M1421.862,1117.362c.778-.282.661-.809,1.437-.282.885.6,1.97.736,2.546,1.179,1,.773,4.205,4.48.008,4.8-.977.078-4.381,1.129-5.077-.424-1.029-2.294-.7-1.485,0-4.333Z" transform="translate(-1420.121 -1116.855)" fill="#f7a483"/>
      </g>
      <path id="Path_10587" data-name="Path 10587" d="M1683,1079.929a5.6,5.6,0,1,1-7.74-1.687A5.6,5.6,0,0,1,1683,1079.929Z" transform="translate(-1624.101 -1042.956)" fill="#f7a483"/>
      <path id="Path_10588" data-name="Path 10588" d="M1685.226,1194.033c-.726,7.638-1.2,26.342-1.2,26.342,2.71,7.233,28.567,1.128,28.717-.521.181-1.974-.349-15.874-.749-24A31.179,31.179,0,0,0,1685.226,1194.033Z" transform="translate(-1633.354 -1136.303)" fill="#ffd47c"/>
      <path id="Path_10589" data-name="Path 10589" d="M1634.881,1066.852c-5.259-1.758-10.388,5.005-10.388,5.005l-10.449,9.137s2.648,9.514,7.478,10.892c0,0,11.979-6.274,16.082-13.528C1637.6,1078.356,1640.617,1074.158,1634.881,1066.852Z" transform="translate(-1576.29 -1034.154)" fill="#ffd47c"/>
      <path id="Path_10590" data-name="Path 10590" d="M1719.805,899.855c.77.62,1.75.213,2.629.009,1.2,1.407-.236,2.813,1.58,3.494a20.108,20.108,0,0,0,3.451.636c.851.137,1.712-.059,2.32.576.659.688.035,2.831.813,3.242,1.362.718,2.43-3.007,4.164-2.712,1.481.252,1.742,2.6,1.224,3.756a1.772,1.772,0,0,1,.388-.263c.705-1.839,1.606-1.872,2.385-3.18,1.205-2.027,1-1.544,1.242-3.491,0-.018-.237-.852-.24-.863-.566-2.073-1.535-2.426-2-3.305a17.429,17.429,0,0,0-1.878-2.4,23.99,23.99,0,0,0-1.537-2.442,7.2,7.2,0,0,0-4.059-1.719c-1.5-.2-2.924.733-4.409.473-.609-.107-1.179-.66-1.79-.626-.745.042-1.261.781-1.905,1.071-1.2.538-3.083.321-4.107,1.164-1.131.932-.888,2.278-.191,3.419.39.64,1.182,1.008,1.534,1.672C1719.515,898.553,1719.779,899.836,1719.805,899.855Z" transform="translate(-1660.478 -891.042)" fill="#3f1901"/>
      <path id="Path_10591" data-name="Path 10591" d="M1414.688,1105.975l-5.031-2.741s-1.106,1.035,4.114,3.834Z" transform="translate(-1409.559 -1064.057)" fill="#f7a483"/>
    </g>
    <g id="Group_19646" data-name="Group 19646" transform="translate(232.538 404.825)">
      <path id="Path_10592" data-name="Path 10592" d="M864.461,1623.875l25.171-10.593a12.183,12.183,0,0,1,1.969,1.494c1.177,1.55-.341,3.663,1.632,5,2.431,1.639,8.409,1.28,13.356-.8q.207-.087.407-.176c4.648-2.073,6.512-4.967,4.149-6.56-1.51-1.019-4.112-.955-6.233-1.346a13.841,13.841,0,0,1-3.11-.906,10.921,10.921,0,0,1-1.7-1.106l25.2-10.6,47.466,32.028-60.846,25.6-19.637-13.252c.077-.037.158-.073.243-.111a23.532,23.532,0,0,1,2.592-.95c2.929-.643,6.89.137,9.42-.927,3.1-1.381,2.468-4.513-1.348-7.088-3.858-2.6-9.511-3.653-12.625-2.342-1.934.861-1.858,2.218-2.606,3.327a5.739,5.739,0,0,1-1.741,1.665c-.092.056-.447.234-.894.435-.37.165-.8.344-1.209.481Z" transform="translate(-864.461 -1598.273)" fill="rgba(171,180,194,0.24)"/>
    </g>
    <g id="Group_19649" data-name="Group 19649" transform="translate(237.336 392.896)">
      <path id="Path_10593" data-name="Path 10593" d="M1074.012,1589.559a1.816,1.816,0,0,0-.917-1.5,3.175,3.175,0,0,0-.311-.182c-.033-.018-.068-.034-.1-.05-.077-.037-.157-.074-.239-.107l-.059-.027c-.018-.007-.037-.011-.054-.019-.13-.049-.264-.1-.4-.136l-.007,0h0c-.141-.041-.286-.076-.433-.111l-.05-.013-.062-.012c-.174-.037-.35-.071-.532-.1l-.014,0-.045-.007c-.187-.031-.375-.057-.566-.083l-.061-.008c-.2-.026-.4-.049-.6-.073l-.035,0-.49-.056c-.192-.021-.384-.045-.574-.069l-.1-.013q-.28-.037-.553-.08c-.094-.016-.189-.031-.281-.048-.19-.035-.382-.075-.572-.117l-.1-.023c-.14-.031-.278-.064-.415-.1l-.011,0c-.139-.036-.275-.073-.412-.112l-.129-.04c-.094-.027-.188-.058-.28-.088l-.135-.046c-.1-.032-.188-.066-.279-.1l-.105-.039q-.177-.07-.341-.144a9.818,9.818,0,0,1-1.52-.99l.112,12.665a9.8,9.8,0,0,0,1.52.991c.109.05.224.1.34.144a.134.134,0,0,1,.025.01l.08.029c.092.035.186.07.282.1l.131.044q.142.046.287.09l.08.025.041.011c.137.039.275.078.416.114h0c.14.036.283.07.426.1l.04.009.058.012c.192.042.384.083.576.118l.236.041.047.007c.181.029.364.056.55.08l.111.014c.186.025.374.046.564.069h.006l.372.042.15.017c.2.023.41.047.612.073l.048.007c.193.025.385.053.572.083l.06.009c.181.03.357.065.531.1l.112.025c.148.034.293.071.434.112s.277.088.409.138l.113.044c.082.034.162.071.239.108.034.017.069.032.1.05.108.057.212.116.31.182a1.818,1.818,0,0,1,.917,1.5Z" transform="translate(-1031.316 -1575.566)" fill="#394572"/>
      <path id="Path_10594" data-name="Path 10594" d="M914.794,1676.73l.13-.029c.059-.012.117-.026.177-.038s.1-.018.147-.025l.124-.022.093,10.613,17.575,11.859-.112-12.665L918.37,1676.6c.213.026.427.056.642.091l.148.026c.081.014.161.027.242.044l.174.034.23.048.162.036c.125.028.25.059.375.09l.1.026q.234.061.468.13l.09.027c.214.063.429.131.642.2l.033.012c.213.072.425.151.635.233l.051.021q.361.142.717.3l.035.015q.36.163.708.343l.023.011c.235.123.467.25.693.384l.012.006c.23.136.454.276.672.424,1.94,1.309,2.96,2.779,2.971,4.031q-.056-6.334-.111-12.665c-.012-1.252-1.032-2.722-2.972-4.031q-.327-.221-.671-.424l-.013-.008q-.339-.2-.692-.382l-.024-.012c-.232-.12-.467-.235-.707-.342l-.035-.015c-.236-.107-.475-.208-.717-.3l-.014-.005-.037-.013c-.212-.083-.426-.162-.641-.236l-.025-.008q-.323-.111-.648-.206l-.05-.016-.033-.01c-.158-.046-.315-.089-.473-.13l-.1-.024q-.193-.049-.386-.093l-.072-.017-.08-.017c-.081-.018-.161-.035-.241-.05l-.167-.033c-.081-.016-.162-.029-.243-.043l-.118-.021-.03,0c-.218-.035-.434-.066-.649-.092l-.05-.006-.038,0q-.281-.031-.559-.051l-.046,0-.061,0q-.515-.032-1.006-.02c-.02,0-.039,0-.059,0l-.051,0c-.159.005-.316.013-.469.026H915.9a.175.175,0,0,1-.027,0c-.161.014-.319.032-.473.054l-.05.005-.035.006-.189.032-.134.023-.193.042c-.034.008-.069.014-.1.022l-.014,0c-.137.032-.271.071-.4.112l-.088.029c-.13.043-.258.089-.38.14-.1.043-.187.089-.275.135l-.075.044c-.031.017-.064.033-.093.051s-.048.031-.072.048-.063.04-.093.06c-.048.032-.093.065-.136.1l-.078.059-.026.021c-.053.043-.1.088-.148.132l-.017.017c-.037.037-.075.073-.109.111l-.029.035c-.017.019-.033.038-.049.057-.033.039-.065.079-.094.12l-.042.055-.022.031c-.015.021-.027.042-.041.063-.026.038-.051.077-.075.116l-.053.091q-.033.057-.063.115c-.007.013-.015.026-.021.041s-.015.03-.022.044c-.034.068-.066.136-.1.2l-.02.044-.119.273c-.03.07-.06.14-.09.208l-.035.08c-.037.084-.076.166-.118.249-.022.043-.046.086-.07.128-.012.02-.022.042-.033.061-.036.063-.074.125-.116.186-.026.038-.054.076-.082.115q-.06.082-.126.167c-.019.025-.037.048-.057.071-.058.072-.119.143-.184.215l-.015.018c-.068.073-.141.147-.217.22l-.067.063c-.056.05-.112.1-.171.152l-.088.073c-.058.048-.12.1-.182.141l-.086.064c-.092.065-.187.129-.286.19l-.031.018-.014.008-.04.022-.022.011-.048.024-.034.017-.051.025-.046.023c-.016.009-.035.017-.052.025l-.061.03-.058.027-.065.031-.092.042-.043.02-.145.065c-.332.148-.721.308-1.082.431l-17.595-11.873.111,12.665,17.6,11.873c.361-.122.75-.283,1.081-.431l.273-.124,0,0c.04-.019.077-.036.114-.054l.009,0,.08-.038.033-.016.059-.03.038-.019.044-.023.037-.019.031-.017.032-.016.021-.012.02-.012.005,0c.1-.061.195-.126.286-.191l.083-.061c.064-.047.126-.1.186-.144l.045-.035c.014-.012.026-.025.041-.036.058-.051.115-.1.17-.152l.07-.065c.075-.071.147-.145.215-.218l0,0,.016-.017c.063-.07.124-.141.182-.212l.058-.073c.043-.055.084-.11.123-.165l.033-.044c.017-.023.033-.048.049-.071.041-.062.08-.123.116-.186l.037-.069c.021-.038.042-.076.061-.113l0-.006c.042-.083.081-.166.119-.251l.034-.078.09-.208c.039-.092.079-.184.12-.277.005-.013.012-.026.018-.038.032-.071.065-.141.1-.21l.041-.081q.032-.06.066-.12c.017-.03.033-.059.051-.088s.05-.08.076-.119.04-.062.061-.092l.043-.057c.03-.039.061-.078.093-.117.017-.019.032-.039.05-.058.043-.049.088-.1.137-.143l.018-.019c.055-.052.113-.1.175-.153l.075-.058c.044-.034.09-.068.139-.1l.092-.059q.079-.05.166-.1l.075-.041c.087-.046.177-.091.275-.135.122-.052.25-.1.379-.14l.088-.029C914.524,1676.8,914.657,1676.763,914.794,1676.73Z" transform="translate(-890.448 -1634.846)" fill="#3f5375"/>
      <g id="Group_19647" data-name="Group 19647" transform="translate(42.479 28.662)">
        <path id="Path_10595" data-name="Path 10595" d="M1174.975,1688.9l.111,12.666-54.453,22.915-.113-12.666Z" transform="translate(-1120.52 -1688.9)" fill="#133a7d"/>
      </g>
      <g id="Group_19648" data-name="Group 19648" transform="translate(0)">
        <path id="Path_10596" data-name="Path 10596" d="M890.445,1556.574l22.526-9.48a10.856,10.856,0,0,1,1.762,1.337c1.053,1.387-.3,3.279,1.461,4.471,2.175,1.467,7.526,1.146,11.952-.717q.186-.078.365-.157c4.16-1.855,5.828-4.445,3.713-5.872-1.352-.912-3.681-.854-5.579-1.2a12.482,12.482,0,0,1-2.783-.812,9.8,9.8,0,0,1-1.52-.99l22.555-9.489,42.481,28.663-54.455,22.914-17.574-11.86c.069-.032.142-.067.218-.1a21.12,21.12,0,0,1,2.32-.851c2.621-.576,6.166.124,8.43-.829,2.774-1.236,2.208-4.039-1.206-6.343-3.453-2.33-8.511-3.269-11.3-2.1-1.73.77-1.662,1.984-2.332,2.977a5.128,5.128,0,0,1-1.559,1.489c-.083.05-.4.21-.8.389-.332.148-.72.308-1.082.431Z" transform="translate(-890.445 -1533.661)" fill="#06b2ff"/>
      </g>
    </g>
    <g id="Group_19652" data-name="Group 19652" transform="translate(89.447 363.946)">
      <path id="Path_10597" data-name="Path 10597" d="M183.6,1489.734c-1.51-1.02-4.114-.956-6.232-1.346a13.892,13.892,0,0,1-3.111-.907,10.875,10.875,0,0,1-1.7-1.107l25.2-10.6-19.636-13.25c.079-.039.165-.078.253-.117a23.3,23.3,0,0,1,2.582-.947c2.927-.643,6.888.138,9.522-.971,3-1.336,2.366-4.468-1.451-7.042-3.858-2.6-9.511-3.652-12.719-2.3-1.838.82-1.764,2.175-2.513,3.286a5.724,5.724,0,0,1-1.742,1.665c-.092.056-.446.235-.894.435-.371.165-.8.344-1.209.481l-19.66-13.267-60.846,25.6,47.466,32.029,25.174-10.592a12.211,12.211,0,0,1,1.966,1.494c1.177,1.549-.341,3.663,1.632,4.995,2.431,1.639,8.409,1.28,13.356-.8.139-.057.276-.118.41-.177C184.1,1494.219,185.959,1491.326,183.6,1489.734Z" transform="translate(-89.447 -1431.393)" fill="rgba(171,180,194,0.24)"/>
      <g id="Group_19651" data-name="Group 19651" transform="translate(7.433 0)">
        <g id="Group_19650" data-name="Group 19650" transform="translate(79.361 12.737)">
          <path id="Path_10598" data-name="Path 10598" d="M589.58,1445.85c0,.03,0,.061,0,.092s0,.065,0,.1-.006.054-.009.081-.007.064-.012.1-.011.061-.018.091-.009.046-.014.07-.017.063-.026.093-.012.045-.019.066-.01.027-.014.039a2.107,2.107,0,0,1-.106.253l0,.006a2.244,2.244,0,0,1-.14.231l-.025.038a2.516,2.516,0,0,1-.172.213l-.053.057-.061.061c-.023.023-.048.045-.072.067s-.044.04-.068.06l-.064.052c-.039.031-.081.062-.122.093l-.067.047c-.045.031-.092.062-.14.091l-.063.04c-.042.024-.085.048-.129.07l-.073.041c-.07.035-.142.069-.216.1a5.781,5.781,0,0,1-.895.289q-.374.09-.771.146-.378.054-.771.086c-.365.029-.738.047-1.116.057-.827.024-1.674.016-2.5.039-.371.011-.738.028-1.095.057l.111,12.666c.357-.03.723-.047,1.094-.057.824-.023,1.672-.016,2.5-.039.378-.011.751-.027,1.116-.057.261-.021.52-.05.771-.086s.521-.087.771-.147a5.684,5.684,0,0,0,.9-.289c.075-.033.147-.068.217-.1l.059-.032c.048-.026.1-.052.143-.079l.014-.008.042-.026c.05-.031.1-.062.146-.095l.066-.046c.042-.031.083-.062.122-.093l.037-.028c.009-.008.018-.016.028-.024l.067-.06c.024-.022.049-.044.072-.067l.06-.061c.012-.013.026-.026.038-.038l.015-.019a2.237,2.237,0,0,0,.172-.214l.011-.013c.005-.008.009-.015.014-.023a2.084,2.084,0,0,0,.14-.233h0v0a2.2,2.2,0,0,0,.108-.256c0-.008.006-.013.008-.02l0-.015c.008-.025.015-.05.022-.075s.016-.055.023-.084.011-.051.016-.076.01-.042.013-.063,0-.015,0-.023c.005-.033.009-.068.013-.1s.006-.048.008-.073,0-.074.005-.113c0-.019,0-.037,0-.055v-.025Z" transform="translate(-576.83 -1445.85)" fill="#7c294b"/>
          <path id="Path_10599" data-name="Path 10599" d="M562.079,1461.868l-.013,0a21.287,21.287,0,0,0-2.3.844c-.079.035-.155.07-.226.1l.111,12.665c.071-.035.147-.07.226-.1a21.489,21.489,0,0,1,2.3-.844l.013,0c.2-.044.4-.081.613-.111.249-.035.5-.063.765-.084l-.112-12.666q-.391.031-.765.084Q562.377,1461.8,562.079,1461.868Z" transform="translate(-559.541 -1458.752)" fill="#7c294b"/>
        </g>
        <path id="Path_10600" data-name="Path 10600" d="M414.352,1544.777l-.111-12.665-22.554,9.491.092,10.54c-2.619.313-4.972.067-6.242-.79a2.264,2.264,0,0,1-1-2.06c0-.209,0-.418-.006-.626a2.813,2.813,0,0,0-.46-1.784,10.94,10.94,0,0,0-1.759-1.338l-22.53,9.481.112,12.665,22.529-9.48a10.8,10.8,0,0,1,1.759,1.337,2.6,2.6,0,0,1,.457,1.589q0,.313.005.626a2.38,2.38,0,0,0,1,2.255c2.176,1.466,7.526,1.146,11.953-.716l.368-.159c2.945-1.313,4.64-3,4.627-4.372q-.039-4.506-.079-9.014Z" transform="translate(-317.307 -1503.448)" fill="#133a7d"/>
        <path id="Path_10601" data-name="Path 10601" d="M570.6,1458.03l.111,12.665c-2.357.994-5.9.294-8.521.87a21.133,21.133,0,0,0-2.312.847c-.079.035-.155.071-.226.1l-.111-12.665c.071-.035.148-.07.226-.1a20.87,20.87,0,0,1,2.312-.848C564.7,1458.322,568.244,1459.022,570.6,1458.03Z" transform="translate(-480.181 -1443.044)" fill="#7c294b"/>
        <path id="Path_10602" data-name="Path 10602" d="M172.187,1529.634l-42.48-28.664.112,12.666L172.3,1542.3Z" transform="translate(-129.707 -1478.056)" fill="#3f5375"/>
        <path id="Path_10603" data-name="Path 10603" d="M213.968,1418.022c-1.351-.913-3.682-.854-5.577-1.2a12.4,12.4,0,0,1-2.784-.811,9.738,9.738,0,0,1-1.52-.99l22.554-9.491-17.574-11.858c.071-.035.148-.07.226-.1a20.874,20.874,0,0,1,2.312-.848c2.62-.575,6.165.124,8.521-.869,2.683-1.2,2.118-4-1.3-6.3-3.452-2.331-8.512-3.269-11.383-2.059-1.644.734-1.579,1.946-2.248,2.941a5.136,5.136,0,0,1-1.559,1.489c-.083.051-.4.21-.8.389-.332.148-.72.308-1.082.431l-17.595-11.873-54.454,22.914,42.48,28.665,22.53-9.48a10.911,10.911,0,0,1,1.759,1.337c1.053,1.386-.3,3.278,1.462,4.47,2.175,1.467,7.526,1.146,11.952-.716.125-.052.247-.106.368-.159C214.416,1422.038,216.081,1419.448,213.968,1418.022Z" transform="translate(-129.708 -1376.861)" fill="#0a73d7"/>
      </g>
    </g>
    <g id="Group_19685" data-name="Group 19685" transform="translate(161.357 292.262)">
      <path id="Path_10604" data-name="Path 10604" d="M478.928,1785.725c0,6.668,12.148,12.072,27.134,12.072s27.132-5.4,27.132-12.072-12.148-12.072-27.132-12.072S478.928,1779.057,478.928,1785.725Z" transform="translate(-478.928 -1628.709)" fill="rgba(171,180,194,0.24)"/>
      <g id="Group_19684" data-name="Group 19684" transform="translate(1.092)">
        <g id="Group_19654" data-name="Group 19654" transform="translate(26.863 154.107)">
          <g id="Group_19653" data-name="Group 19653" transform="translate(0.749)">
            <path id="Path_10605" data-name="Path 10605" d="M646.578,1825.822s2.878-.526,2.068,1.822c0,0-6.719,2.886-11.412,2.235a2.939,2.939,0,0,1-2.781-3.689l-.055-2.908,4.425.838-.251,2.764Z" transform="translate(-634.397 -1823.282)" fill="#e59375"/>
          </g>
          <path id="Path_10606" data-name="Path 10606" d="M631.143,1835.994a1.858,1.858,0,0,0,.441,1.247c1.158,1.335,3.435,1.375,5.037,1.274a54.373,54.373,0,0,0,7.665-1.073c.549-.116.7-.3.706-.456a2.237,2.237,0,0,0-1.724-1.36l2.45-.313a6.174,6.174,0,0,1,3.815.779c.626,1.789-2.42,2.982-2.42,2.982a49.574,49.574,0,0,1-7.134,1.992s-8.6,2.028-9.64-.617Z" transform="translate(-630.338 -1833.085)" fill="#4f1531"/>
        </g>
        <g id="Group_19656" data-name="Group 19656" transform="translate(9.777 150.11)">
          <g id="Group_19655" data-name="Group 19655" transform="translate(0.749)">
            <path id="Path_10607" data-name="Path 10607" d="M554.039,1804.172s2.878-.526,2.068,1.821c0,0-6.719,2.886-11.412,2.235a2.938,2.938,0,0,1-2.781-3.689l-.055-2.908,4.425.838-.251,2.764Z" transform="translate(-541.858 -1801.632)" fill="#e59375"/>
          </g>
          <path id="Path_10608" data-name="Path 10608" d="M538.6,1814.333a1.856,1.856,0,0,0,.442,1.246c1.158,1.336,3.435,1.376,5.037,1.274a54.394,54.394,0,0,0,7.664-1.072c.549-.116.7-.3.707-.457a2.236,2.236,0,0,0-1.724-1.36l2.45-.314a6.176,6.176,0,0,1,3.815.78c.626,1.789-2.42,2.982-2.42,2.982a49.589,49.589,0,0,1-7.134,1.992s-8.6,2.028-9.64-.617Z" transform="translate(-537.799 -1811.425)" fill="#4f1531"/>
        </g>
        <g id="Group_19660" data-name="Group 19660" transform="translate(7.078 58.411)">
          <g id="Group_19657" data-name="Group 19657" transform="translate(0 8.359)">
            <path id="Path_10609" data-name="Path 10609" d="M539.607,1358.459a8.213,8.213,0,1,1-8.213-8.213A8.213,8.213,0,0,1,539.607,1358.459Z" transform="translate(-523.182 -1350.246)" fill="#00468b"/>
            <path id="Path_10610" data-name="Path 10610" d="M526.226,1429.309s.114,2.065,3.823,2.116c0,0,3.511,1.2,5.027-3.374,5.973-18,4.4-36.793,4.4-36.793s-8.434-4.7-16.289-1.485C523.182,1389.772,524.453,1413.4,526.226,1429.309Z" transform="translate(-523.182 -1381.559)" fill="#00468b"/>
          </g>
          <path id="Path_10611" data-name="Path 10611" d="M538.737,1602.05s-2.894,38.913-3.163,40.3a4.825,4.825,0,0,1-5.317-.049c.014-1.909-2.066-17.821-2.282-20.809-.369-5.136-.986-11.624,2.259-19.005Z" transform="translate(-526.843 -1547.201)" fill="#00468b"/>
          <g id="Group_19658" data-name="Group 19658" transform="translate(9.967 8.357)">
            <path id="Path_10612" data-name="Path 10612" d="M596.1,1426.311s.792,1.91,4.308.729c0,0,3.709-.032,3.625-4.848-.329-18.967-8.64-38.623-8.64-38.623s-9.361-.894-15.709,4.74C579.688,1388.307,589.161,1411.893,596.1,1426.311Z" transform="translate(-579.222 -1377.372)" fill="#0058a9"/>
            <path id="Path_10613" data-name="Path 10613" d="M593.128,1355.728a8.213,8.213,0,1,1-10.469-5.028A8.213,8.213,0,0,1,593.128,1355.728Z" transform="translate(-577.164 -1350.234)" fill="#0058a9"/>
          </g>
          <path id="Path_10614" data-name="Path 10614" d="M523.182,1320.35c.993-9.133,5.575-13.372,5.575-13.372l15.875-2.006s4.377,7.616,4.835,15.377c-1.9,5.176-8.662,6.685-8.662,6.685l-5.135,1.524S524.03,1326.79,523.182,1320.35Z" transform="translate(-523.182 -1304.973)" fill="#0058a9"/>
          <g id="Group_19659" data-name="Group 19659" transform="translate(20.239 52.942)">
            <path id="Path_10615" data-name="Path 10615" d="M646.608,1595.732s-7.875,40.877-8.348,42.212c.208-.1-3.722,1.806-5.461-.654.3-1.885.462-22.649.692-25.636.395-5.135.34-9.926,4.643-16.745C638.133,1594.908,648.885,1587.213,646.608,1595.732Z" transform="translate(-632.799 -1591.72)" fill="#0058a9"/>
          </g>
        </g>
        <path id="Path_10616" data-name="Path 10616" d="M632.182,1771.45" transform="translate(-604.979 -1626.913)" fill="#340f08"/>
        <g id="Group_19663" data-name="Group 19663" transform="translate(0 21.858)">
          <g id="Group_19661" data-name="Group 19661" transform="translate(0.559 21.933)">
            <path id="Path_10617" data-name="Path 10617" d="M493.215,1225.79s2.891,3.407,8.644,11.627l-.994,1.686s-9.852-4.963-12.995-10.533Z" transform="translate(-487.87 -1225.79)" fill="#e59375"/>
          </g>
          <g id="Group_19662" data-name="Group 19662">
            <path id="Path_10618" data-name="Path 10618" d="M498.89,1116.741s-7.415,16.183-11.87,15.567c0,0-1.537.1-1.845-1.062,0,0-3.146-2.79,9.934-22.912a4.034,4.034,0,0,1,3.9-1.268S502.977,1109.69,498.89,1116.741Z" transform="translate(-484.844 -1106.993)" fill="#e59375"/>
          </g>
        </g>
        <g id="Group_19664" data-name="Group 19664" transform="translate(18.023 18.939)">
          <rect id="Rectangle_8895" data-name="Rectangle 8895" width="8.017" height="8.521" fill="#f4b78e"/>
        </g>
        <g id="Group_19665" data-name="Group 19665" transform="translate(13.708 1.184)">
          <path id="Path_10619" data-name="Path 10619" d="M576.381,1012.966l.3-1.362s.6-4.989.6-4.99a4.543,4.543,0,0,0-.3-2.026,4.607,4.607,0,0,1-.408-2.073,5.847,5.847,0,0,0-2-5.215c-2.736-2.9-8.008-2.208-8.009-2.208-2.725.518-5.06,1.67-6.286,4.012a8.5,8.5,0,0,0-.751,6.933,14.076,14.076,0,0,0,4.818,6.052c1.393,1.077,2.75,1.148,4.514,1.633a19.736,19.736,0,0,0,4.822.393C574.357,1014.082,576.208,1013.749,576.381,1012.966Z" transform="translate(-559.089 -995.018)" fill="#f7a483"/>
        </g>
        <g id="Group_19666" data-name="Group 19666" transform="translate(27.348 14.515)">
          <path id="Path_10620" data-name="Path 10620" d="M632.969,1067.22" transform="translate(-632.969 -1067.22)" fill="#340f08"/>
        </g>
        <g id="Group_19667" data-name="Group 19667" transform="translate(12.854)">
          <path id="Path_10621" data-name="Path 10621" d="M568.956,1003.119c-.4-.562-1.836-.907-1.836-.907-1.741,0-1.513,2.323-1.678,3.329-.053.327-.117.664-.19,1-.829,2.954-3.312,2.928-5.433,3.286-.079-.047-.162-.094-.248-.141a8.5,8.5,0,0,0-1.606-2.67c-3.186-2.754-4.225-7.7-3.012-11.6a9.239,9.239,0,0,1,1.988-3.326,11.722,11.722,0,0,1,6.584-3.4c2.466-.464,11.29.733,8.882,6.092,0,0-3.631,4.187-3.451,8.332" transform="translate(-554.461 -988.604)" fill="#340f08"/>
        </g>
        <g id="Group_19675" data-name="Group 19675" transform="translate(24.225 13.143)">
          <g id="Group_19671" data-name="Group 19671">
            <g id="Group_19668" data-name="Group 19668" transform="translate(0.193 0.163)">
              <path id="Path_10622" data-name="Path 10622" d="M620.026,1061.88a1.668,1.668,0,0,0-1.964-1.149,1.311,1.311,0,0,0-.959,1.416c.013.143.044.284.058.427a3.016,3.016,0,0,0,1.865,2.111" transform="translate(-617.095 -1060.67)" fill="#f8b78f"/>
            </g>
            <g id="Group_19669" data-name="Group 19669" transform="translate(1.024 0.839)">
              <path id="Path_10623" data-name="Path 10623" d="M621.894,1064.439a.892.892,0,0,1,.387-.106c.585-.037,1.056.865.471,1.025a.333.333,0,0,0,.008.462c.2.218.472.532.411.84-.037.182-.24.281-.423.326-.147.036-.176-.079-.059-.134a.641.641,0,0,0,.222-.183c0-.011.012-.02.017-.031a.09.09,0,0,0,.014-.024.191.191,0,0,0,.006-.133.36.36,0,0,1-.454-.006c-.111-.133-.026-.342-.064-.494a1.156,1.156,0,0,0-.135-.3.312.312,0,0,1,.215-.522,1.565,1.565,0,0,1,.177.013c.245-.127-.028-.495-.177-.553a.471.471,0,0,0-.51.089.725.725,0,0,0-.162.516,1.7,1.7,0,0,0,.158.618c.053.111.121.24.174.351s-.085.18-.146.055a3.682,3.682,0,0,1-.417-1.018A.771.771,0,0,1,621.894,1064.439Z" transform="translate(-621.596 -1064.332)" fill="#dd9d7e"/>
            </g>
            <g id="Group_19670" data-name="Group 19670">
              <path id="Path_10624" data-name="Path 10624" d="M619.175,1061.161s-.07-.1-.184-.28a2.344,2.344,0,0,0-.243-.28,1.925,1.925,0,0,0-.37-.287,1.52,1.52,0,0,0-.5-.181,1.278,1.278,0,0,0-.57.039,1.576,1.576,0,0,0-.29.122,1.44,1.44,0,0,0-.23.177,1.1,1.1,0,0,0-.3.519,1.555,1.555,0,0,0-.01.645l.022.175,0,.023v0c0-.01,0,.026,0-.021v.005l0,.011.009.042.017.087a1.892,1.892,0,0,0,.083.309,2.529,2.529,0,0,0,.272.541,3.263,3.263,0,0,0,.35.435,3.971,3.971,0,0,0,.66.548c.175.115.284.174.284.174a2.008,2.008,0,0,1-.32-.1,3.325,3.325,0,0,1-.779-.445,2.664,2.664,0,0,1-.437-.428,2.4,2.4,0,0,1-.479-.946l-.022-.085-.011-.043,0-.011-.006-.034,0-.023-.026-.176a1.913,1.913,0,0,1,.008-.786,1.51,1.51,0,0,1,.429-.7c.053-.043.1-.09.158-.129l.184-.1a1.736,1.736,0,0,1,.353-.125,1.457,1.457,0,0,1,.722.011,1.571,1.571,0,0,1,.566.283,1.616,1.616,0,0,1,.354.382,2.446,2.446,0,0,1,.2.34C619.136,1061.043,619.175,1061.161,619.175,1061.161Z" transform="translate(-616.051 -1059.79)" fill="#dd9d7e"/>
            </g>
          </g>
          <g id="Group_19674" data-name="Group 19674" transform="translate(2.121 3.318)">
            <g id="Group_19672" data-name="Group 19672">
              <path id="Path_10625" data-name="Path 10625" d="M627.541,1078.248a.486.486,0,1,0,.486-.485A.487.487,0,0,0,627.541,1078.248Z" transform="translate(-627.541 -1077.763)" fill="#fff"/>
            </g>
            <g id="Group_19673" data-name="Group 19673" transform="translate(0 0.001)">
              <path id="Path_10626" data-name="Path 10626" d="M627.91,1078.512a.385.385,0,0,0,.385-.385.377.377,0,0,0-.268-.36h0a.485.485,0,1,1-.486.485c0-.012,0-.023,0-.034A.379.379,0,0,0,627.91,1078.512Z" transform="translate(-627.541 -1077.767)" fill="#e6e7e8"/>
            </g>
          </g>
        </g>
        <g id="Group_19676" data-name="Group 19676" transform="translate(5.061 21.873)">
          <path id="Path_10627" data-name="Path 10627" d="M512.344,1149.423l8.85-12.7c.413-1.866-.518-5.579-.518-5.579l-2.829-19.46c.335-2.23.489-5.061,3.508-4.556a18.732,18.732,0,0,1,3.862,1.077c-.385,1.807,2.734,2.969,2.734,2.969,4.291,1.853,5.282.632,5.282.632a63.869,63.869,0,0,1,6.006,3.372c1.042.857,1.671,2.191,1.344,4.437l-3.088,18.443.543,4.582,5.642,14.3a12.131,12.131,0,0,0-5.5-.657c-1.754.21-3.265,1.244-5.008,1.437-2.632.29-4.586-.66-6.573-1.919A31.711,31.711,0,0,1,519,1153.13h-.165c-1.969.01-4.2-.024-5.652-1.565C512.873,1151.24,511.972,1149.958,512.344,1149.423Z" transform="translate(-512.255 -1107.071)" fill="#4f1531"/>
        </g>
        <g id="Group_19677" data-name="Group 19677" transform="translate(26.779 29.947)">
          <path id="Path_10628" data-name="Path 10628" d="M638.8,1180.358l-.052-22.4c-.545-6.14-3.595-7.12-3.595-7.12-6.162-.722-5.214,10.7-5.214,10.7l2.574,19.3" transform="translate(-629.887 -1150.801)" fill="#f7a483"/>
        </g>
        <g id="Group_19678" data-name="Group 19678" transform="translate(38.058 23.418)">
          <path id="Path_10629" data-name="Path 10629" d="M703.253,1142.583l-12.276-5.293,9.659-21.849,13.18,5.292Z" transform="translate(-690.977 -1115.44)" fill="#c7eafb"/>
        </g>
        <g id="Group_19679" data-name="Group 19679" transform="translate(48.952 41.805)">
          <path id="Path_10630" data-name="Path 10630" d="M755.588,1215.03a6.035,6.035,0,0,1-1.493,1.943c-.743.589-1.988.411-2.467.841-.834.749-3.423,4.24.311,4.25.869,0,3.859.01,4.372-1.408.759-2.1.71-3.031-.157-4.722Z" transform="translate(-749.977 -1215.03)" fill="#f7a483"/>
        </g>
        <g id="Group_19682" data-name="Group 19682" transform="translate(29.015 45.84)">
          <g id="Group_19680" data-name="Group 19680" transform="translate(0 12.091)">
            <path id="Path_10631" data-name="Path 10631" d="M642,1302.37" transform="translate(-641.996 -1302.37)" fill="#f8b78f"/>
          </g>
          <g id="Group_19681" data-name="Group 19681" transform="translate(0.122)">
            <path id="Path_10632" data-name="Path 10632" d="M645.188,1246.476l19.66-9.6c2.364.658,2.019,1.72,2.019,1.72l-12.073,9.657c-5.05,4.2-8.676,4.709-8.676,4.709s-3.17,1.153-3.461-3.388C642.657,1249.578,642.547,1247.526,645.188,1246.476Z" transform="translate(-642.656 -1236.881)" fill="#f7a483"/>
          </g>
        </g>
        <g id="Group_19683" data-name="Group 19683" transform="translate(6.282 0.27)">
          <path id="Path_10633" data-name="Path 10633" d="M541.638,1002.94c-.5,3.715.063,8.634-1.788,12.694-.824,1.808-1.733,2.7-1.239,4.8.4,1.717,1.216,3.337,1.657,5.114.972,3.924-.349,7.756-4.921,6.335-2.192-.681-2.438-.67-4.433.1a5.8,5.8,0,0,1-4.92.02c-2.584-1.259-1.807-3.161-3.255-5.068-1.1-1.452-2.663-1.416-3.5-3.367-1-2.356.192-3.613,1.415-5.612a7.349,7.349,0,0,0,1.057-5.963c-.352-2.109.169-3.175.867-5.115.716-1.987.4-3.718.743-5.71.671-3.94,2.824-9.287,6.951-10.442,2.023-.567,4.637-1.01,6.583-.3,2.651.972,5.6,2.009,5.488,5.268A53.779,53.779,0,0,1,541.638,1002.94Z" transform="translate(-518.868 -990.066)" fill="#340f08"/>
        </g>
        <path id="Path_10634" data-name="Path 10634" d="M756.98,1215.764s.973,1.349,1.79-.473l-.085-2.407a.754.754,0,0,0-.5-.827s-.4,0-.488.686Z" transform="translate(-706.735 -1170.8)" fill="#f7a483"/>
      </g>
    </g>
  </g>
</svg>
