<svg id="Layer_1" data-name="Layer 1" xmlns="http://www.w3.org/2000/svg" viewBox="0 0 74.78 57.12"><defs><style>.cls-1{fill:#fff;}</style></defs><path class="cls-1" d="M55.32,34.27C52.86,35,52.77,37,52.59,39c-.36,3.87-.73,7.74-1.35,11.57-.67,4.12-2.79,6-6.89,6.52-2.39.33-4.27-.6-5-2.92a25.49,25.49,0,0,1-1.06-6.08c-.17-3.1,0-6.22,0-9.34,0-2.89-.78-3.85-3.76-4.62A38.29,38.29,0,0,1,36,30c2.06-4.18,1.87-8.44.67-12.75-1-3.52-3-4.68-6.54-3.77-1.24.31-2.43.84-3.63,1.26C26.62,6.44,31.32-.39,40.58.68c7.32.86,12,5.12,14.85,11.75a2.2,2.2,0,0,1,.13.36.86.86,0,0,1,0,.27,24.63,24.63,0,0,0-2.58.13c-4,.59-5.59,3-4.67,6.89A34.84,34.84,0,0,0,52.8,30.2C53.6,31.52,54.43,32.82,55.32,34.27Z"/><path class="cls-1" d="M29.57,2.21C26.23,6.05,25,10.46,24.49,15.13c-.09.81,0,1.63,0,2.45a74.42,74.42,0,0,1-.28,7.63,9.2,9.2,0,0,0,2.3,7.54c.23.26.44.53.65.8,0,0,0,.08.08.27-1.82,2-3.66,4.13-5.57,6.17A1.8,1.8,0,0,1,19,40a9.25,9.25,0,0,1-2-2.48C12.85,29.43,10.1,20.94,10,11.77a16.13,16.13,0,0,1,.68-4.46,8.55,8.55,0,0,1,7.9-6.4,21.55,21.55,0,0,1,4.25,0C25,1.21,27.15,1.74,29.57,2.21Z"/><path class="cls-1" d="M46.75.38c5.78-1,10.88-.11,15.44,3.47,2.4,1.88,2.83,4.34,2.47,7.07A50.57,50.57,0,0,1,59,28.4a21.38,21.38,0,0,1-2.41,3.81c.17-.64.28-1.3.5-1.91a9.13,9.13,0,0,0,.39-5.72c-.76-2.69-.15-5.31.32-7.93a9.85,9.85,0,0,0-1-6,19.09,19.09,0,0,0-8.68-9.28c-.3-.15-.59-.34-.88-.52A6,6,0,0,1,46.75.38Z"/><path class="cls-1" d="M36,23.16c-.45,1.72-.87,3.6-1.43,5.43C34.11,30,33.42,31.4,33,32.84c-.3,1-.81,1.12-1.71.91C28,33,25.84,29.94,25.94,26.14c.08-2.8.22-5.61.36-8.41a1,1,0,0,1,.31-.75,10.24,10.24,0,0,1,5.71-1.8,2.37,2.37,0,0,1,2.47,1.89C35.24,19,35.56,21,36,23.16ZM32.11,16.4c-.64.4-1.43.68-1.42.93a1.42,1.42,0,0,0,1.66,1.41c.54-.06,1-.66,1.51-1Z"/><path class="cls-1" d="M56,14.81A16.32,16.32,0,0,0,55.71,17c0,2.92.16,5.84.12,8.75a46.16,46.16,0,0,1-.47,4.67l-.66.11c-1.54-3.66-3.1-7.32-4.6-11A4.26,4.26,0,0,1,50,17.72a2.38,2.38,0,0,1,2.21-2.58C53.35,14.94,54.55,14.93,56,14.81Zm-1.89,2c-1.19-1-2.16-.86-3.06.31C52.22,18.47,52.91,18.42,54.09,16.82Z"/><path class="cls-1" d="M27.32,40.66a2.84,2.84,0,0,1,.62-.3A8.23,8.23,0,0,0,34,36.86c.4-.56,1-1.11,1.59-.54a2.46,2.46,0,0,1,.58,1.88,3,3,0,0,1-1.12,1.65C32.75,41.66,30.2,41.66,27.32,40.66Z"/><path class="cls-1" d="M64.05,36.41c-1.73,1.88-6.72,3.07-8.88,2.28-.87-.32-.68-1-.5-1.47a1.65,1.65,0,0,1,2-1.23c.66.14,1.27.65,1.93.68,1.4.08,2.81,0,4.22-.09A11.68,11.68,0,0,0,64.05,36.41Z"/></svg>