<svg xmlns="http://www.w3.org/2000/svg" width="109" height="109" viewBox="0 0 109 109">
  <g id="Group_20347" data-name="Group 20347" transform="translate(-1058 -6243)">
    <path id="Path_10868" data-name="Path 10868" d="M54.5,0A54.5,54.5,0,1,1,0,54.5,54.5,54.5,0,0,1,54.5,0Z" transform="translate(1058 6243)" fill="#006bf8"/>
    <g id="Group_20346" data-name="Group 20346" transform="translate(50.601 6917.723)">
      <path id="Path_10855" data-name="Path 10855" d="M1082.222-620.192q0,9.347,0,18.695a6.529,6.529,0,0,1-3.379,5.931,6.065,6.065,0,0,1-3.148.852q-13.376.006-26.751,0a6.579,6.579,0,0,1-6.522-6.573q-.04-14.176,0-28.352a6.507,6.507,0,0,1,2.19-4.942q4.856-4.484,9.646-9.04a6.418,6.418,0,0,1,3.269-1.933,9.291,9.291,0,0,1,1.637-.158q8.134-.017,16.268-.007a6.622,6.622,0,0,1,6.791,6.783Q1082.233-629.566,1082.222-620.192Zm-22.872,9.808c.157.232.274.4.387.572l3.82,5.823a2.284,2.284,0,0,0,3.858.309c1.444-1.618,2.874-3.249,4.31-4.873,1.185-1.341,2.381-2.673,3.554-4.026a1.91,1.91,0,0,0-.948-3.266,2.191,2.191,0,0,0-2.22.775q-2.738,3.127-5.483,6.248c-.155.176-.315.347-.505.557-.161-.241-.284-.423-.405-.607-1.3-1.983-2.6-3.971-3.912-5.947a2.266,2.266,0,0,0-3.532-.376q-4.37,4.538-8.7,9.115a1.9,1.9,0,0,0-.544,1.753,2.1,2.1,0,0,0,1.51,1.673,1.955,1.955,0,0,0,2.1-.617c1-1.044,1.983-2.1,2.974-3.157C1056.845-607.728,1058.072-609.028,1059.35-610.384Zm-.25-31.075a2.624,2.624,0,0,0-1.989.751q-2.959,2.845-5.934,5.673c-1.207,1.154-2.415,2.306-3.614,3.468a2.414,2.414,0,0,0-.87,1.746c.234,0,.421-.008.607,0,2.423.12,4.849.2,7.268.374a4.036,4.036,0,0,0,4.555-4.156q.008-3.666,0-7.333C1059.123-641.1,1059.109-641.268,1059.1-641.459Zm10.933,3.368c-1.513,0-3.026-.011-4.539,0a2,2,0,0,0-2.116,2.1,1.974,1.974,0,0,0,2.047,2.114c3.077.031,6.155.024,9.233,0a1.912,1.912,0,0,0,1.918-1.366,2.132,2.132,0,0,0-2.055-2.851C1073.025-638.1,1071.529-638.091,1070.033-638.091Zm-.011,8.467c-1.478,0-2.957,0-4.436,0a2,2,0,0,0-2.207,2.058,1.975,1.975,0,0,0,2.058,2.152c3.06.038,6.121.024,9.181.005a1.925,1.925,0,0,0,1.849-1.092,2.137,2.137,0,0,0-1.907-3.12C1073.048-629.638,1071.535-629.623,1070.022-629.624Z" transform="translate(0)" fill="#fff"/>
    </g>
  </g>
</svg>
