<svg xmlns="http://www.w3.org/2000/svg" width="109" height="109" viewBox="0 0 109 109">
  <g id="Group_20343" data-name="Group 20343" transform="translate(-1058 -5861)">
    <path id="Path_10867" data-name="Path 10867" d="M54.5,0A54.5,54.5,0,1,1,0,54.5,54.5,54.5,0,0,1,54.5,0Z" transform="translate(1058 5861)" fill="#006bf8"/>
    <g id="Group_20342" data-name="Group 20342" transform="translate(-40.799 6563.238)">
      <path id="Path_10852" data-name="Path 10852" d="M1218.978-673.238c.167.063.332.13.5.187a3.821,3.821,0,0,1,2.6,2.666,1.081,1.081,0,0,0,1.257.943c.961,0,1.921,0,2.963,0a18.087,18.087,0,0,1-.125,2.37,3.62,3.62,0,0,1-3.627,3.023q-4.293.036-8.586,0a3.678,3.678,0,0,1-3.684-3.58c-.03-.579,0-1.161,0-1.811h2.7c1.05,0,1.188-.116,1.527-1.11a3.9,3.9,0,0,1,2.765-2.572c.108-.032.213-.076.319-.114Z" transform="translate(-64.901 0)" fill="#fff"/>
      <path id="Path_10853" data-name="Path 10853" d="M1143.338-646.134a21.747,21.747,0,0,0,.217,2.8,5.465,5.465,0,0,0,5.3,4.515c3.124.107,6.258.091,9.381-.037a5.533,5.533,0,0,0,5.034-5.193c.033-.677.005-1.356.005-2.082,1.2,0,2.33-.011,3.458,0a12.865,12.865,0,0,1,2.234.1,3.7,3.7,0,0,1,2.967,3.54c0,.116,0,.233,0,.349q0,19.671,0,39.341a3.781,3.781,0,0,1-3.113,3.94,3.821,3.821,0,0,1-.744.054q-14.7,0-29.406,0a3.72,3.72,0,0,1-3.875-3.858q-.008-19.8,0-39.591a3.723,3.723,0,0,1,3.9-3.882Q1141.02-646.136,1143.338-646.134Zm7.776,29.186c-.178-.167-.325-.3-.466-.438q-2.179-2.126-4.356-4.254c-.285-.279-.621-.552-1.007-.371a1.662,1.662,0,0,0-.732.72c-.19.385.07.727.358,1.007q2.642,2.58,5.282,5.162c.68.665,1.132.669,1.824-.006q4.843-4.72,9.682-9.443a2.977,2.977,0,0,0,.306-.327.979.979,0,0,0-.074-1.276.919.919,0,0,0-1.266-.078,6.145,6.145,0,0,0-.549.508C1157.13-622.825,1154.144-619.908,1151.115-616.947Z" transform="translate(0 -23.307)" fill="#fff"/>
    </g>
  </g>
</svg>
