<svg xmlns="http://www.w3.org/2000/svg" width="109" height="109" viewBox="0 0 109 109">
  <g id="Group_20345" data-name="Group 20345" transform="translate(-310 -6243)">
    <circle id="Ellipse_294" data-name="Ellipse 294" cx="54.5" cy="54.5" r="54.5" transform="translate(310 6243)" fill="#006bf8"/>
    <g id="Group_20344" data-name="Group 20344" transform="translate(-652.015 6943.408)">
      <path id="Path_10854" data-name="Path 10854" d="M1015.188-671.408h3.423a3.188,3.188,0,0,0,.438.091,24.638,24.638,0,0,1,6.936,1.53,15.856,15.856,0,0,1,3.568,1.836l-3.837,9.466a31.2,31.2,0,0,1,7.447-.81v3.042c-.91.045-1.781.069-2.649.138s-1.7.18-2.642.282c.407.5.73.882,1.038,1.277a43.837,43.837,0,0,1,7.4,14.943,29.612,29.612,0,0,1,1.33,11.5,8.378,8.378,0,0,1-6.655,7.63,21.906,21.906,0,0,1-5.181.6c-5.6.019-11.2.031-16.807,0a41.348,41.348,0,0,1-4.71-.312,9.914,9.914,0,0,1-4.881-1.839c-2.315-1.746-3.132-4.221-3.335-6.973a26.4,26.4,0,0,1,.7-7.783,44.917,44.917,0,0,1,8.113-17.762c.312-.406.644-.8,1.073-1.326l-5.331-.416V-659.3a32.156,32.156,0,0,1,7.453.814l-3.839-9.469A20.919,20.919,0,0,1,1012.26-671C1013.229-671.17,1014.212-671.273,1015.188-671.408Zm-4.268,39.492a9.956,9.956,0,0,0,4.39,2.06v2.115h3.009c0-.623.021-1.223-.008-1.82-.017-.342.1-.481.422-.6a5.428,5.428,0,0,0,3.486-5.921,4.781,4.781,0,0,0-3.176-3.831c-1.115-.449-2.233-.9-3.308-1.436-.837-.416-.958-.991-.548-1.839a1.811,1.811,0,0,1,1.448-1.035,4.753,4.753,0,0,1,2.911.554c.486.245.962.51,1.469.781l1.432-2.66a11.869,11.869,0,0,0-3.706-1.592c-.337-.061-.444-.192-.428-.522.025-.495.007-.992.007-1.474h-3.035c0,.576-.023,1.113.008,1.646.021.358-.113.5-.438.653a4.785,4.785,0,0,0-2.884,4.057,3.9,3.9,0,0,0,2.386,4.148c1.149.574,2.352,1.042,3.538,1.539a1.937,1.937,0,0,1,1.329,1.443,2.459,2.459,0,0,1-1.985,2.766,4.434,4.434,0,0,1-3.229-.632c-.456-.326-.942-.608-1.436-.925Zm-4.9-23.977a35.66,35.66,0,0,0,21.757,0c-.649-.8-1.3-1.623-1.983-2.425-.071-.084-.3-.088-.44-.052a27.549,27.549,0,0,1-6.875,1.081c-1.907,0-3.823-.037-5.717-.228-1.438-.145-2.849-.566-4.275-.846a.657.657,0,0,0-.523.084C1007.3-657.5,1006.673-656.7,1006.023-655.893Z" fill="#fff"/>
    </g>
  </g>
</svg>
