<svg xmlns="http://www.w3.org/2000/svg" width="109" height="109" viewBox="0 0 109 109">
  <g id="Group_20352" data-name="Group 20352" transform="translate(-1058 -6625)">
    <path id="Path_10870" data-name="Path 10870" d="M54.5,0A54.5,54.5,0,1,1,0,54.5,54.5,54.5,0,0,1,54.5,0Z" transform="translate(1058 6625)" fill="#006bf8"/>
    <g id="Group_20351" data-name="Group 20351" transform="translate(102.63 7282.813)">
      <path id="Path_10860" data-name="Path 10860" d="M1267.209-499.283a1.25,1.25,0,0,0-.1.211,4.017,4.017,0,0,1-3.693,3.205c-1.452.1-2.918.021-4.421.021a14.573,14.573,0,0,0-6.782-12.219c.317-.3.605-.613.937-.873a6.005,6.005,0,0,1,3.792-1.311c1.621,0,3.252-.07,4.859.089a6.033,6.033,0,0,1,5.309,5.019,1.819,1.819,0,0,0,.094.27Z" transform="translate(-232.493 -97.186)" fill="#fff"/>
      <path id="Path_10861" data-name="Path 10861" d="M1093.511-460.288c-2.055,0-4.11,0-6.165,0a6.153,6.153,0,0,1-6.14-6.163,18.792,18.792,0,0,1,.266-4.454,10.085,10.085,0,0,1,8.677-7.762,25.028,25.028,0,0,1,7.906.185,10.13,10.13,0,0,1,7.712,8.62,14.365,14.365,0,0,1-.107,4.979,6.131,6.131,0,0,1-5.888,4.6h-6.261Z" transform="translate(-83.491 -124.522)" fill="#fff"/>
      <path id="Path_10862" data-name="Path 10862" d="M1129.583-613.572a8.246,8.246,0,0,1-8.245,8.224,8.25,8.25,0,0,1-8.21-8.26,8.209,8.209,0,0,1,8.389-8.2A8.212,8.212,0,0,1,1129.583-613.572Z" transform="translate(-111.31 -0.001)" fill="#fff"/>
      <path id="Path_10863" data-name="Path 10863" d="M1000.312-508.4a14.492,14.492,0,0,0-6.727,12.12c-.048.031-.074.062-.1.061-1.554-.019-3.119.066-4.66-.088a3.97,3.97,0,0,1-3.447-3.951c-.01-1.477-.015-2.953,0-4.43a6.1,6.1,0,0,1,5.277-5.84,24.215,24.215,0,0,1,6.426.095A5.3,5.3,0,0,1,1000.312-508.4Z" transform="translate(0 -96.815)" fill="#fff"/>
      <path id="Path_10864" data-name="Path 10864" d="M1013.6-615.635a6.16,6.16,0,0,1-6.244,6.155,6.19,6.19,0,0,1-6.112-6.2,6.184,6.184,0,0,1,6.28-6.128A6.16,6.16,0,0,1,1013.6-615.635Z" transform="translate(-13.828 0)" fill="#fff"/>
      <path id="Path_10865" data-name="Path 10865" d="M1256.844-615.645a6.152,6.152,0,0,1,6.182-6.167,6.177,6.177,0,0,1,6.175,6.186,6.182,6.182,0,0,1-6.218,6.145A6.161,6.161,0,0,1,1256.844-615.645Z" transform="translate(-236.524 0)" fill="#fff"/>
    </g>
  </g>
</svg>
