<svg xmlns="http://www.w3.org/2000/svg" width="109" height="109" viewBox="0 0 109 109">
  <g id="Group_20341" data-name="Group 20341" transform="translate(-310 -5861)">
    <path id="Path_10866" data-name="Path 10866" d="M54.5,0A54.5,54.5,0,1,1,0,54.5,54.5,54.5,0,0,1,54.5,0Z" transform="translate(310 5861)" fill="#006bf8"/>
    <g id="Group_20340" data-name="Group 20340" transform="translate(-600.09 6808.941)">
      <path id="Path_10848" data-name="Path 10848" d="M957.9-566.754a27.86,27.86,0,0,0,6.287,16.207,27.8,27.8,0,0,0,6.287-16.238c2.84,1.335,5.927,1.891,8.933,2.7a12.016,12.016,0,0,1,4.757,2.178,8.081,8.081,0,0,1,3.091,6.224c.062,3.159-.043,6.321-.077,9.481a1.916,1.916,0,0,1-.031.226h-46c0-.947,0-1.88,0-2.813-.012-2.056,0-4.112-.049-6.168a8.756,8.756,0,0,1,6.693-8.792c2.663-.74,5.337-1.441,8-2.195C956.5-566.142,957.181-566.474,957.9-566.754Z" transform="translate(0 -322.598)" fill="#fff"/>
      <path id="Path_10849" data-name="Path 10849" d="M1079.921-905.829c-.1-.609-.222-1.224-.3-1.843a12.234,12.234,0,0,1,.289-5.068,7.838,7.838,0,0,1,5.469-5.59,13.15,13.15,0,0,1,7.725-.06,3.976,3.976,0,0,1,2.328,1.613,4.159,4.159,0,0,1,4.54,2.4,8.217,8.217,0,0,1,.892,3.634c.034,1.491-.074,2.985-.122,4.477-.005.151-.018.3-.027.452,1,.08,1.379.561,1.145,1.543a5.892,5.892,0,0,1-2.558,3.837.811.811,0,0,0-.243.49,16.505,16.505,0,0,1-2.507,6.121,7.542,7.542,0,0,1-4.69,3.355,7.249,7.249,0,0,1-7.754-3.028,15.8,15.8,0,0,1-2.662-6.408.976.976,0,0,0-.327-.533,6.03,6.03,0,0,1-2.206-3.605C1078.718-904.891,1078.96-905.31,1079.921-905.829Z" transform="translate(-126.195 0)" fill="#fff"/>
      <path id="Path_10850" data-name="Path 10850" d="M1192.759-485.852c-.674-1.118-1.352-2.234-2.016-3.358a.588.588,0,0,1-.017-.362c.233-1.348.481-2.694.7-4.044a.6.6,0,0,1,.665-.595q.776,0,1.552,0a.539.539,0,0,1,.6.5c.237,1.39.483,2.778.721,4.168a.526.526,0,0,1-.014.323c-.665,1.126-1.343,2.244-2.017,3.365Z" transform="translate(-228.665 -389.081)" fill="#fff"/>
      <path id="Path_10851" data-name="Path 10851" d="M1184.429-560.331c.838,0,1.676.008,2.514,0,.333,0,.468.068.339.434q-.734,2.092-1.432,4.2a.4.4,0,0,1-.455.316c-.656-.015-1.313-.013-1.969,0a.392.392,0,0,1-.457-.307q-.7-2.1-1.43-4.2c-.124-.355-.009-.45.334-.445.852.011,1.7,0,2.556,0Z" transform="translate(-220.222 -328.502)" fill="#fff"/>
    </g>
  </g>
</svg>
