<svg xmlns="http://www.w3.org/2000/svg" width="109" height="109" viewBox="0 0 109 109">
  <g id="Group_20350" data-name="Group 20350" transform="translate(-310 -6625)">
    <path id="Path_10869" data-name="Path 10869" d="M54.5,0A54.5,54.5,0,1,1,0,54.5,54.5,54.5,0,0,1,54.5,0Z" transform="translate(310 6625)" fill="#006bf8"/>
    <g id="Group_20349" data-name="Group 20349" transform="translate(-4439 4636)">
      <g id="Group_20348" data-name="Group 20348" transform="translate(4778 2018)">
        <path id="Path_10856" data-name="Path 10856" d="M1063.924-659.93h-50.712v-.6q0-10.469,0-20.939a5.4,5.4,0,0,1,5.587-5.6q19.779,0,39.557,0a5.393,5.393,0,0,1,5.566,5.566q.005,10.5,0,21Zm-10.868-13.081v.563q0,2.574,0,5.149a1.843,1.843,0,0,0,.685,1.543,1.686,1.686,0,0,0,1.854.249,1.775,1.775,0,0,0,1.083-1.712c.013-1.9,0-3.81,0-5.715,0-1.641.006-3.282,0-4.922a1.843,1.843,0,0,0-1.213-1.853,1.8,1.8,0,0,0-2.1.682c-.243.288-.481.581-.723.87l-2.3,2.757c-1.033-1.239-2.019-2.425-3.008-3.609a1.811,1.811,0,0,0-2.149-.691,1.853,1.853,0,0,0-1.181,1.876q-.007,5.234,0,10.467a1.859,1.859,0,0,0,1.828,2.019,1.855,1.855,0,0,0,1.795-2c.007-1.659,0-3.319,0-4.979v-.7c.437.518.776.911,1.105,1.31a1.9,1.9,0,0,0,3.237-.021C1052.29-672.109,1052.62-672.493,1053.057-673.011Zm-13.985,2.047c.223-.11.353-.176.484-.239a4.527,4.527,0,0,0,2.605-4.549,4.33,4.33,0,0,0-3.8-3.965,49.7,49.7,0,0,0-4.969-.108,1.855,1.855,0,0,0-2.072,2.055c0,1.546,0,3.093,0,4.639,0,1.961-.013,3.923,0,5.884a1.806,1.806,0,0,0,2.43,1.787,1.857,1.857,0,0,0,1.19-1.815c.01-.874,0-1.748,0-2.731.232.219.369.343.5.473q1.8,1.8,3.6,3.6a1.771,1.771,0,0,0,1.8.543,1.787,1.787,0,0,0,.785-3.048C1040.81-669.28,1039.954-670.094,1039.072-670.964Zm-14.961,2V-676.2c1.194,0,2.359.014,3.524,0a1.838,1.838,0,0,0,1.876-1.8,1.831,1.831,0,0,0-1.857-1.817c-1.207-.02-2.415-.029-3.621,0a3.587,3.587,0,0,0-3.563,3.527c-.046,2.47-.04,4.942,0,7.413a3.416,3.416,0,0,0,3,3.436,29.717,29.717,0,0,0,4.458.059,1.951,1.951,0,0,0,1.143-.635,1.57,1.57,0,0,0,.279-1.838,1.772,1.772,0,0,0-1.7-1.1C1026.479-668.971,1025.313-668.959,1024.11-668.959Z" transform="translate(-1013.209 687.069)" fill="#fff"/>
        <path id="Path_10857" data-name="Path 10857" d="M1063.8-483.19a59.477,59.477,0,0,1-.048,6.464,5.153,5.153,0,0,1-5.164,4.354q-20.032.012-40.064,0a5.392,5.392,0,0,1-5.326-5.349c-.011-1.809,0-3.618,0-5.468Z" transform="translate(-1013.196 514.024)" fill="#fff"/>
        <path id="Path_10858" data-name="Path 10858" d="M1109.664-382.212c-3.545,0-7.09-.01-10.635.007a1.823,1.823,0,0,1-1.866-1.1,1.866,1.866,0,0,1,.448-2.124c.531-.607.979-1.285,1.491-1.911a.807.807,0,0,1,.529-.295q10.041-.022,20.082,0a.8.8,0,0,1,.537.279c.525.638.99,1.328,1.528,1.953a1.857,1.857,0,0,1,.409,2.131,1.813,1.813,0,0,1-1.831,1.062C1116.791-382.221,1113.227-382.212,1109.664-382.212Z" transform="translate(-1084.323 432.925)" fill="#fff"/>
        <path id="Path_10859" data-name="Path 10859" d="M1157.1-613.39v-1.8c.96,0,1.913-.026,2.863.012a.844.844,0,0,1,.728.926.864.864,0,0,1-.873.852C1158.937-613.377,1158.053-613.39,1157.1-613.39Z" transform="translate(-1135.339 626.064)" fill="#fff"/>
      </g>
    </g>
  </g>
</svg>
