<svg id="Group_56884" data-name="Group 56884" xmlns="http://www.w3.org/2000/svg" width="15.218" height="15.218" viewBox="0 0 15.218 15.218">
  <path id="Path_2269" data-name="Path 2269" d="M116.224,7.648a7.466,7.466,0,0,0-5.436,2.221,7.275,7.275,0,0,0-2.245,5.329,7.623,7.623,0,0,0,7.68,7.666,7.262,7.262,0,0,0,5.323-2.225,7.282,7.282,0,0,0,2.213-5.294,7.524,7.524,0,0,0-2.21-5.438A7.222,7.222,0,0,0,116.224,7.648Zm-2.777,4.793a3.783,3.783,0,0,1,2.777-1.131,3.515,3.515,0,0,1,2.661,1.16A3.981,3.981,0,0,1,120,15.343a3.727,3.727,0,0,1-1.124,2.705,3.483,3.483,0,0,1-2.593,1.155,3.871,3.871,0,0,1-2.845-1.143A3.918,3.918,0,0,1,112.3,15.2a3.681,3.681,0,0,1,1.145-2.758Z" transform="translate(-108.542 -7.646)" fill="#06b2ff"/>
  <path id="Path_2270" data-name="Path 2270" d="M120.3,17.043a2.3,2.3,0,1,1-2.3-2.3A2.3,2.3,0,0,1,120.3,17.043Z" transform="translate(-110.393 -9.447)" fill="#06b2ff"/>
</svg>
