<svg xmlns="http://www.w3.org/2000/svg" width="38.069" height="45.794" viewBox="0 0 38.069 45.794">
  <g id="Group_56493" data-name="Group 56493" transform="translate(-571.101 -239.527)">
    <path id="Path_14075" data-name="Path 14075" d="M592.07,239.586c0,.288,0,.5,0,.715-.024,2.575-.032,5.151-.076,7.725a8.637,8.637,0,0,0,9.068,8.739c2.663-.117,5.336-.021,8.1-.021v.684q0,9.84,0,19.679a16.616,16.616,0,0,1-.093,2.78,6.634,6.634,0,0,1-7.1,5.409c-.275-.023-.553-.034-.829-.035q-10.975,0-21.951-.007a14.422,14.422,0,0,1-2.885-.132,6.657,6.657,0,0,1-5.158-7.292,5.61,5.61,0,0,0,.033-.652q0-14.745.007-29.489a14.174,14.174,0,0,1,.152-3.061,6.6,6.6,0,0,1,7.056-5.078c.3.025.592.032.888.033q6.022,0,12.044,0Zm-10.733,32.908a4.361,4.361,0,0,0,.595-.41c1.069-1.057,2.139-2.113,3.185-3.193a1.881,1.881,0,0,0,.02-2.673,1.856,1.856,0,0,0-2.665-.034q-2.559,2.518-5.07,5.085a1.8,1.8,0,0,0-.068,2.532c1.745,1.807,3.5,3.6,5.327,5.33a1.892,1.892,0,0,0,2.469-2.867C583.913,275.051,582.693,273.841,581.337,272.494Zm12.5.075c-1.311,1.3-2.557,2.52-3.775,3.763a1.893,1.893,0,1,0,2.652,2.7q2.58-2.54,5.114-5.127a1.826,1.826,0,0,0,.007-2.667c-1.658-1.7-3.344-3.372-5.03-5.044a1.782,1.782,0,0,0-1.744-.5,1.89,1.89,0,0,0-.891,3.22C591.356,270.135,592.578,271.316,593.839,272.568Z" transform="translate(0 0)" fill="#fff"/>
    <path id="Path_14076" data-name="Path 14076" d="M738.589,264.881c-.292,0-.639,0-.985,0-1.936-.026-3.882.062-5.806-.108-2.683-.239-4.023-1.474-4.266-4.147-.21-2.308-.044-4.651-.044-6.869Z" transform="translate(-131.541 -11.973)" fill="#fff"/>
  </g>
</svg>
