<svg xmlns="http://www.w3.org/2000/svg" width="48.847" height="48.861" viewBox="0 0 48.847 48.861">
  <g id="Group_56492" data-name="Group 56492" transform="translate(-478.093 -179.078)">
    <g id="Group_56491" data-name="Group 56491" transform="translate(478.093 179.078)">
      <path id="Path_14213" data-name="Path 14213" d="M527.582,187.162a1.812,1.812,0,0,1-1.923,1.063c-1.7-.046-3.4-.011-5.1-.014a1.467,1.467,0,0,1-1.654-1.637c0-.393,0-.787,0-1.2h-5.8c.19.141.319.241.453.334a18.245,18.245,0,0,1,7.9,12.736,2.464,2.464,0,0,0,1.315,2.166,4,4,0,0,1,1.736,4.4,4.307,4.307,0,0,1-3.475,3.255,4.268,4.268,0,0,1-2.546-8.061.423.423,0,0,0,.279-.509,15.7,15.7,0,0,0-6-10.982,15.253,15.253,0,0,0-5.5-2.757.378.378,0,0,0-.5.207,4.219,4.219,0,0,1-7.226.01.393.393,0,0,0-.535-.2A15.463,15.463,0,0,0,487.8,198.132c-.111.494-.133,1.008-.235,1.5a.454.454,0,0,0,.3.588,4.057,4.057,0,0,1,2.4,3.768,4.1,4.1,0,0,1-2.29,3.844,4.272,4.272,0,0,1-5.879-2,4.228,4.228,0,0,1,2.087-5.621.831.831,0,0,0,.551-.813,18.43,18.43,0,0,1,5.784-11.9c.8-.764,1.712-1.414,2.571-2.115h-5.667c0,.444.008.885,0,1.326a1.426,1.426,0,0,1-1.5,1.5q-2.838.016-5.676,0a1.418,1.418,0,0,1-1.5-1.5q-.016-2.791,0-5.581a1.418,1.418,0,0,1,1.5-1.5q2.838-.016,5.676,0a1.426,1.426,0,0,1,1.5,1.5c.009.428,0,.857,0,1.358h.52c3.561,0,7.123-.005,10.684.008a.665.665,0,0,0,.716-.433,4.23,4.23,0,0,1,7.649.007.634.634,0,0,0,.671.428c3.577-.016,7.154-.009,10.731-.009h.51c0-.47-.005-.895,0-1.32a1.439,1.439,0,0,1,1.558-1.54c1.828-.007,3.657.016,5.485-.01a1.686,1.686,0,0,1,1.637,1.058Z" transform="translate(-478.734 -179.616)" fill="#fff"/>
      <path id="Path_14214" data-name="Path 14214" d="M602.429,545.581c-.111-.057-.222-.113-.333-.172a1.351,1.351,0,0,1-.668-1.733,5.776,5.776,0,0,1,5.394-3.9q4.287-.052,8.576,0a5.776,5.776,0,0,1,5.394,3.9c.3.818,0,1.391-1,1.906Z" transform="translate(-586.684 -496.719)" fill="#fff"/>
      <path id="Path_14215" data-name="Path 14215" d="M595.788,313.457a5.929,5.929,0,0,0-.822-.252,18.907,18.907,0,0,0-2.586-.342c-2.654-.044-5.309-.008-7.963-.02a9.4,9.4,0,0,0-3.321.531,1.421,1.421,0,0,1-.23.05c-.356-1.155-.658-2.307-1.065-3.42a16.811,16.811,0,0,0-3.443-5.608c-.118-.129-.24-.255-.357-.384a1.523,1.523,0,0,1-.174-2.222q2.416-3.63,4.837-7.257l5.815-8.725c.1-.145.2-.288.347-.509.02.186.042.294.042.4,0,4.229,0,8.458.011,12.686a.555.555,0,0,1-.4.59,4.248,4.248,0,0,0-2.366,4.779,4.288,4.288,0,0,0,8.371,0,4.257,4.257,0,0,0-2.36-4.784c-.243-.113-.405-.208-.4-.538.014-4.276.009-8.553.01-12.829,0-.074.009-.149.019-.319.13.178.214.283.288.394q5.368,8.049,10.733,16.1a1.487,1.487,0,0,1-.14,2.183,18.133,18.133,0,0,0-4.743,9.13C595.868,313.207,595.83,313.31,595.788,313.457Z" transform="translate(-563.876 -272.668)" fill="#fff"/>
      <path id="Path_14216" data-name="Path 14216" d="M674.093,421.554a1.427,1.427,0,1,1-1.413-1.441A1.441,1.441,0,0,1,674.093,421.554Z" transform="translate(-648.24 -391.38)" fill="#fff"/>
    </g>
  </g>
</svg>
