<svg xmlns="http://www.w3.org/2000/svg" width="56.295" height="56.293" viewBox="0 0 56.295 56.293">
  <g id="Group_56495" data-name="Group 56495" transform="translate(-478.115 -179.118)">
    <g id="Group_56494" data-name="Group 56494" transform="translate(478.115 179.118)">
      <path id="Path_14218" data-name="Path 14218" d="M505.265,236.078c-1.049-.142-2.106-.242-3.145-.434A27.9,27.9,0,0,1,483.4,223.3a27.385,27.385,0,0,1-1.943-27.019c.014-.03.053-.048.1-.092.1.091.21.18.309.279,1.465,1.463,2.922,2.935,4.4,4.386a.653.653,0,0,1,.19.764,20.707,20.707,0,0,0-.881,8.3,21.43,21.43,0,0,0,42.214,2.82A20.885,20.885,0,0,0,527.18,201a21.448,21.448,0,0,0-17.344-14.3,20.786,20.786,0,0,0-9.12.742.8.8,0,0,1-.95-.239c-1.393-1.431-2.816-2.833-4.228-4.247-.125-.125-.241-.257-.466-.5,1.526-.548,2.943-1.139,4.408-1.571,15.259-4.5,31.4,5.268,34.906,21.007.281,1.264.386,2.567.575,3.852.026.179.066.356.1.533v3.3c-.045.379-.093.757-.134,1.137a27.426,27.426,0,0,1-4.619,12.776,27.885,27.885,0,0,1-18.6,12.156c-1.04.191-2.1.291-3.145.434Z" transform="translate(-478.767 -179.786)" fill="#fff"/>
      <path id="Path_14220" data-name="Path 14220" d="M585.369,277.378A14.623,14.623,0,0,1,602.625,283a14.82,14.82,0,1,1-26.214,3.327c.568,0,1.153-.016,1.736.011a.785.785,0,0,1,.46.23c1.122,1.106,2.238,2.218,3.336,3.347a.788.788,0,0,1,.189.569,8.235,8.235,0,1,0,7.4-7.4.92.92,0,0,1-.649-.254c-1.066-1.032-2.1-2.1-3.163-3.133a1.021,1.021,0,0,1-.362-.859C585.392,278.367,585.369,277.89,585.369,277.378Z" transform="translate(-562.169 -263.138)" fill="#fff"/>
      <path id="Path_14221" data-name="Path 14221" d="M485.49,186.387c0-1.476,0-2.9,0-4.323a5.848,5.848,0,0,1,.026-.823,1.623,1.623,0,0,1,2.624-1.086,4.534,4.534,0,0,1,.486.444q4.658,4.707,9.319,9.411a2.343,2.343,0,0,1,.749,1.806c-.031,1.648,0,3.3-.018,4.946a1.266,1.266,0,0,0,.407,1.007q4.407,4.375,8.788,8.777a1.747,1.747,0,0,1,.612,1.914,1.619,1.619,0,0,1-2.505.8,4.42,4.42,0,0,1-.53-.476q-4.374-4.369-8.74-8.747a1.094,1.094,0,0,0-.863-.353c-1.722.016-3.444,0-5.165.013a2.067,2.067,0,0,1-1.569-.647q-4.811-4.826-9.636-9.638a1.712,1.712,0,0,1-.54-2.025,1.731,1.731,0,0,1,1.792-1.006C482.3,186.4,483.866,186.387,485.49,186.387Z" transform="translate(-478.783 -179.801)" fill="#fff"/>
    </g>
  </g>
</svg>
