<svg xmlns="http://www.w3.org/2000/svg" width="113" height="113" viewBox="0 0 113 113">
  <g id="Group_58338" data-name="Group 58338" transform="translate(-1017 -2321)">
    <circle id="Ellipse_727" data-name="Ellipse 727" cx="56.5" cy="56.5" r="56.5" transform="translate(1017 2321)" fill="#06b2ff"/>
    <g id="Group_58324" data-name="Group 58324" transform="translate(561.574 2159.756)">
      <g id="Group_58290" data-name="Group 58290" transform="translate(492.614 192)">
        <path id="Path_47663" data-name="Path 47663" d="M514.567,499.259c-.316-.295-.746-.533-.925-.9a1.341,1.341,0,0,1,1.25-1.882c.755-.023,1.511-.016,2.266-.023.012,0,.023-.017.06-.047V493.3h-.567c-3.255,0-6.51.007-9.765,0a3.7,3.7,0,0,1-3.849-3.22,11.845,11.845,0,0,1-.012-1.647h38.6a3.914,3.914,0,0,1-2.773,4.738,5.228,5.228,0,0,1-1.237.127c-3.193.01-6.386.006-9.58.006h-.576v3.177h1.883c1.038,0,1.581.327,1.768,1.065.173.683-.139,1.225-.991,1.718Z" transform="translate(-502.995 -451.772)" fill="#fff"/>
        <path id="Path_47664" data-name="Path 47664" d="M754.695,192a1.5,1.5,0,0,0,.2.094,2.833,2.833,0,0,1,1.428,4.6c-1.33,1.665-2.687,3.307-4.033,4.959q-2.106,2.586-4.213,5.171c-.087.107-.181.207-.242.276l-5.892-5.9c.217-.183.48-.409.748-.629,3.177-2.6,6.346-5.21,9.54-7.789a8.7,8.7,0,0,1,1.445-.779Z" transform="translate(-712.388 -192)" fill="#fff"/>
        <path id="Path_47665" data-name="Path 47665" d="M541.606,290.5v18.2H502.949V308.2q0-8.833,0-17.666a3.722,3.722,0,0,1,3.906-3.943q8.978-.007,17.957,0h.358a.6.6,0,0,1-.051.18,7.87,7.87,0,0,0-1.381,2.856.448.448,0,0,1-.286.281c-3.571.559-6.9,3.36-6.668,8.694a12.075,12.075,0,0,1-.052,1.527,4.178,4.178,0,0,1-.708,1.883,3.231,3.231,0,0,0,2.41,5.023,2.706,2.706,0,0,0,1.979-.487,4.707,4.707,0,0,1,3.065-.817,11.264,11.264,0,0,0,4.061-.491,7.466,7.466,0,0,0,4.942-5.819.819.819,0,0,1,.685-.744,7.2,7.2,0,0,0,3.735-2.441c1.472-1.788,2.929-3.589,4.393-5.383C541.376,290.747,541.468,290.654,541.606,290.5Z" transform="translate(-502.948 -274.89)" fill="#fff"/>
        <path id="Path_47666" data-name="Path 47666" d="M632.7,345.3c-.388.036-1.126.074-1.856.178a5.763,5.763,0,0,0-2.6,1.018.628.628,0,0,1-.6,0,.61.61,0,0,1-.052-.6,7.572,7.572,0,0,0,1.2-4.437,15.807,15.807,0,0,1,.142-2.489,4.591,4.591,0,0,1,3.782-3.836,4.936,4.936,0,0,1,5.263,1.883,5.146,5.146,0,0,1-1.717,7.805A7.506,7.506,0,0,1,632.7,345.3Z" transform="translate(-612.13 -317.311)" fill="#fff"/>
        <path id="Path_47667" data-name="Path 47667" d="M697.532,281.248l6.339,6.353c-1.212,1.32-2.047,3.093-4.055,3.675a8.143,8.143,0,0,0-5.939-5.962C694.425,283.324,696.2,282.5,697.532,281.248Z" transform="translate(-670.266 -270.211)" fill="#fff"/>
      </g>
    </g>
  </g>
</svg>
