<svg xmlns="http://www.w3.org/2000/svg" xmlns:xlink="http://www.w3.org/1999/xlink" width="150" height="150" viewBox="0 0 150 150">
  <defs>
    <linearGradient id="linear-gradient" x1="0.5" x2="0.5" y2="1" gradientUnits="objectBoundingBox">
      <stop offset="0" stop-color="#98e4ff"/>
      <stop offset="1" stop-color="#f1f8fd"/>
    </linearGradient>
  </defs>
  <g id="Group_58175" data-name="Group 58175" transform="translate(-325 -1899)">
    <circle id="Ellipse_727" data-name="Ellipse 727" cx="75" cy="75" r="75" transform="translate(325 1899)" fill="url(#linear-gradient)"/>
    <g id="Group_58312" data-name="Group 58312" transform="translate(-119.394 1752.999)">
      <g id="Group_58311" data-name="Group 58311" transform="translate(491.145 194.914)">
        <path id="Path_47717" data-name="Path 47717" d="M644.178,309.75v33.169c-.024.027-.061.049-.07.08a4.6,4.6,0,0,1-4.967,3.781H604.267V309.75Zm-6.883,11.85a6.38,6.38,0,0,0-.735-1.241c-1.469-1.523-2.974-3.013-4.477-4.5a1.651,1.651,0,0,0-2.532.009q-2.252,2.239-4.485,4.5a1.655,1.655,0,0,0-.029,2.5q2.268,2.3,4.564,4.573a1.611,1.611,0,0,0,2.409.029c1.562-1.535,3.113-3.083,4.635-4.658A5.348,5.348,0,0,0,637.295,321.6Zm-21.065,6.18h3.2a1.636,1.636,0,0,0,1.748-1.668q.045-3.288,0-6.578a1.643,1.643,0,0,0-1.775-1.7q-3.172-.011-6.344,0a1.651,1.651,0,0,0-1.8,1.783q-.017,3.206,0,6.412a1.634,1.634,0,0,0,1.767,1.752C614.1,327.787,615.163,327.78,616.23,327.78Zm-4.971,8.473c0,1.069-.009,2.137,0,3.206a1.66,1.66,0,0,0,1.8,1.79q3.144.016,6.289,0a1.685,1.685,0,0,0,1.839-1.816q.022-3.178,0-6.357a1.651,1.651,0,0,0-1.807-1.775q-3.144-.006-6.289,0a1.648,1.648,0,0,0-1.827,1.8C611.251,334.153,611.259,335.2,611.259,336.253Zm18.193-4.951c-1.066,0-2.133,0-3.2,0a1.621,1.621,0,0,0-1.757,1.7q-.03,3.261,0,6.522a1.64,1.64,0,0,0,1.754,1.72q3.2.02,6.4,0a1.644,1.644,0,0,0,1.761-1.717q.036-3.26,0-6.522a1.621,1.621,0,0,0-1.758-1.706C631.585,331.3,630.519,331.3,629.452,331.3Z" transform="translate(-587.679 -294.61)" fill="#40bdff"/>
        <path id="Path_47718" data-name="Path 47718" d="M548.247,210.911v7.961H491.8a1,1,0,0,1-.048-.173c0-2.284-.01-4.569-.006-6.853a4.572,4.572,0,0,1,4.739-4.791q23.5-.012,47,0a4.557,4.557,0,0,1,4.664,3.671A.9.9,0,0,0,548.247,210.911ZM536.1,212.982a1.653,1.653,0,1,0-1.674,1.637A1.677,1.677,0,0,0,536.1,212.982Zm4.963-1.664a1.642,1.642,0,0,0-1.648,1.647,1.653,1.653,0,1,0,1.648-1.647Zm-41.039,1.648a1.654,1.654,0,0,0-3.308-.006,1.654,1.654,0,1,0,3.308.006Z" transform="translate(-491.748 -207.048)" fill="#40bdff"/>
        <path id="Path_47727" data-name="Path 47727" d="M491.747,309.832h13.2V346.82c-.162.01-.321.029-.481.029-2.63,0-5.259.007-7.889,0a4.59,4.59,0,0,1-4.829-4.87q0-15.782,0-31.563Zm6.614,12.716a1.647,1.647,0,0,0,1.661-1.625,1.654,1.654,0,1,0-3.308-.015A1.651,1.651,0,0,0,498.361,322.548Zm.024,6.634a1.648,1.648,0,0,0,1.637-1.649,1.654,1.654,0,1,0-3.308.034A1.651,1.651,0,0,0,498.385,329.182Zm-.041,6.634a1.647,1.647,0,0,0,1.677-1.609,1.654,1.654,0,1,0-3.307-.048A1.651,1.651,0,0,0,498.344,335.816Z" transform="translate(-491.747 -294.68)" fill="#40bdff"/>
        <path id="Path_47728" data-name="Path 47728" d="M769.663,377.457l2.113-2.12,2.237,2.244-2.117,2.125Z" transform="translate(-728.693 -350.528)" fill="#40bdff"/>
        <path id="Path_47729" data-name="Path 47729" d="M677.691,390.559h-3.215V387.3h3.215Z" transform="translate(-647.538 -360.724)" fill="#40bdff"/>
        <path id="Path_47730" data-name="Path 47730" d="M674.366,481.894v-3.259h3.241v3.259Z" transform="translate(-647.445 -438.598)" fill="#40bdff"/>
        <path id="Path_47731" data-name="Path 47731" d="M767.415,481.921h-3.224v-3.263h3.224Z" transform="translate(-724.028 -438.617)" fill="#40bdff"/>
      </g>
    </g>
  </g>
</svg>
