<svg xmlns="http://www.w3.org/2000/svg" width="34.15" height="34.149" viewBox="0 0 34.15 34.149">
  <g id="shuttle" transform="translate(0)">
    <path id="Path_51870" data-name="Path 51870" d="M8.686,138.268l-2.959.229a2.64,2.64,0,0,0-2.012,1.184L.3,144.841a1.829,1.829,0,0,0,1.246,2.816l2.709.42A24.257,24.257,0,0,1,8.686,138.268Z" transform="translate(0 -129.046)" fill="#fff"/>
    <path id="Path_51871" data-name="Path 51871" d="M226.682,386.192l.42,2.709a1.827,1.827,0,0,0,2.816,1.246l5.161-3.412a2.64,2.64,0,0,0,1.184-2.012l.229-2.959A24.256,24.256,0,0,1,226.682,386.192Z" transform="translate(-211.563 -356.301)" fill="#fff"/>
    <path id="Path_51872" data-name="Path 51872" d="M99.968,247.757a1.717,1.717,0,0,0,.283-.024,19.6,19.6,0,0,0,4.062-1.152L93.179,235.448a19.6,19.6,0,0,0-1.152,4.062,1.746,1.746,0,0,0,.492,1.519l6.212,6.212A1.752,1.752,0,0,0,99.968,247.757Z" transform="translate(-85.868 -219.744)" fill="#fff"/>
    <path id="Path_51873" data-name="Path 51873" d="M146.141,15.141A26.975,26.975,0,0,0,148.825,1.7,1.754,1.754,0,0,0,147.168.04c-.425-.023-.929-.04-1.5-.04a26.431,26.431,0,0,0-11.948,2.723,27.178,27.178,0,0,0-10.811,11.049,1,1,0,0,1,.093.081l12.006,12.006a1.008,1.008,0,0,1,.081.093A27.179,27.179,0,0,0,146.141,15.141ZM134.571,7.219a5,5,0,1,1-1.465,3.537,5.008,5.008,0,0,1,1.465-3.537Z" transform="translate(-114.715)" fill="#fff"/>
    <path id="Path_51874" data-name="Path 51874" d="M306.61,121.416a3,3,0,1,0-.879-2.122A3,3,0,0,0,306.61,121.416Z" transform="translate(-285.34 -108.537)" fill="#fff"/>
    <path id="Path_51875" data-name="Path 51875" d="M1.305,348.232a1,1,0,0,0,.707-.293l3.266-3.266a1,1,0,0,0-1.415-1.415L.6,346.524a1,1,0,0,0,.707,1.708Z" transform="translate(-0.284 -320.09)" fill="#fff"/>
    <path id="Path_51876" data-name="Path 51876" d="M7.991,388.139a1,1,0,0,0-1.415,0L.3,394.419a1,1,0,0,0,1.415,1.415l6.28-6.28a1,1,0,0,0,0-1.415Z" transform="translate(-0.004 -361.977)" fill="#fff"/>
    <path id="Path_51877" data-name="Path 51877" d="M93.626,433.02l-3.266,3.266a1,1,0,1,0,1.415,1.415l3.266-3.266a1,1,0,0,0-1.415-1.415Z" transform="translate(-84.06 -403.865)" fill="#fff"/>
  </g>
</svg>
