<?xml version="1.0" encoding="utf-8"?>
<!-- Generator: Adobe Illustrator 23.0.0, SVG Export Plug-In . SVG Version: 6.00 Build 0)  -->
<svg version="1.1" id="Layer_1" xmlns="http://www.w3.org/2000/svg" xmlns:xlink="http://www.w3.org/1999/xlink" x="0px" y="0px"
	 viewBox="0 0 52.4 52.9" style="enable-background:new 0 0 52.4 52.9;" xml:space="preserve">
<style type="text/css">
	.st0{fill:#FFFFFF;}
</style>
<g>
	<path class="st0" d="M115.3,16.3H71.5c-0.8,0-1.4,0.6-1.4,1.3V47c0,0.7,0.6,1.3,1.4,1.3h43.7c0.8,0,1.4-0.6,1.4-1.3V17.5
		C116.7,16.9,116,16.3,115.3,16.3L115.3,16.3z M115.3,13.4c2.4,0,4.3,1.9,4.3,4.2V47c0,2.3-2,4.2-4.3,4.2H71.5
		c-2.4,0-4.3-1.9-4.3-4.2V17.5c0-2.3,2-4.2,4.3-4.2L115.3,13.4L115.3,13.4z M77.4,1.7h32c1,0,1.5,0.5,1.5,1.5s-0.5,1.5-1.5,1.5h-32
		c-1,0-1.5-0.5-1.5-1.5S76.4,1.7,77.4,1.7z M71.6,7.5h43.6c1,0,1.5,0.5,1.5,1.5s-0.5,1.5-1.5,1.5H71.6c-1,0-1.5-0.5-1.5-1.5
		S70.6,7.5,71.6,7.5z"/>
	<path class="st0" d="M75.9,25c0,1.6,1.3,2.9,2.9,2.9s2.9-1.3,2.9-2.9c0-1.6-1.3-2.9-2.9-2.9C77.3,22.1,75.9,23.4,75.9,25L75.9,25
		L75.9,25z M84.7,39.5c0,1.6,1.3,2.9,2.9,2.9s2.9-1.3,2.9-2.9s-1.3-2.9-2.9-2.9S84.7,37.9,84.7,39.5L84.7,39.5z M93.4,25
		c0,1.6,1.3,2.9,2.9,2.9c1.6,0,2.9-1.3,2.9-2.9c0,0,0,0,0,0c0-1.6-1.3-2.9-2.9-2.9C94.7,22.1,93.4,23.4,93.4,25L93.4,25L93.4,25z
		 M105,39.5c0,1.6,1.3,2.9,2.9,2.9c1.6,0,2.9-1.3,2.9-2.9c0,0,0,0,0,0c0-1.6-1.3-2.9-2.9-2.9C106.3,36.6,105,37.9,105,39.5
		C105,39.5,105,39.5,105,39.5z"/>
	<path class="st0" d="M87.5,42.8l-9.9-16.9l2.5-1.5l7.5,12.7l8.7-14.5L108.9,39l-2.3,1.8L96.6,27.7L87.5,42.8z"/>
</g>
<g>
	<g>
		<g>
			<path class="st0" d="M-19,18.1h-12.4l0.6-3.6l-6.8-8.8l-6.8,8.8l0.6,3.6h-12.4c-1.9,0-3.4,1.5-3.4,3.4v22.1
				c0,1.9,1.5,3.4,3.4,3.4h11v4.2h-3.4v1.7h3.4H-30h3.4v-1.7H-30v-4.2h11c1.9,0,3.4-1.5,3.4-3.4V21.5C-15.6,19.6-17.1,18.1-19,18.1z
				 M-37.7,14.7c0.5,0,0.8,0.4,0.8,0.8s-0.4,0.8-0.8,0.8s-0.8-0.4-0.8-0.8S-38.1,14.7-37.7,14.7z M-38.5,9.5v3.6
				c-1,0.4-1.7,1.3-1.7,2.4c0,1.4,1.1,2.5,2.5,2.5c1.4,0,2.5-1.1,2.5-2.5c0-1.1-0.7-2-1.7-2.4V9.5l4.2,5.4l-1.5,9.1h-7.1l-1.5-9.1
				L-38.5,9.5z M-41.9,25.7h8.5c0.5,0,0.8,0.4,0.8,0.8c0,0.5-0.4,0.8-0.8,0.8h-8.5c-0.5,0-0.8-0.4-0.8-0.8
				C-42.7,26.1-42.4,25.7-41.9,25.7z M-34.3,35.1H-41v-5.9h6.8L-34.3,35.1z M-42.9,24.2c-0.9,0.4-1.6,1.3-1.6,2.4
				c0,1.1,0.7,2,1.7,2.4v6.1c0,0.9,0.8,1.7,1.7,1.7h6.8c0.9,0,1.7-0.8,1.7-1.7V29c1-0.4,1.7-1.3,1.7-2.4c0-1.1-0.7-2-1.6-2.4l0.2-1
				h11.6v18.7h-34V23.2H-43L-42.9,24.2z M-31.7,51.2h-11.9v-4.2h11.9V51.2z M-17.3,43.5L-17.3,43.5c0,0.9-0.8,1.7-1.7,1.7h-11h-15.3
				h-11c-0.9,0-1.7-0.8-1.7-1.7V21.5c0-0.9,0.8-1.7,1.7-1.7h12.7l0.3,1.7h-13v22.1H-19V21.5h-13l0.3-1.7H-19c0.9,0,1.7,0.8,1.7,1.7
				L-17.3,43.5L-17.3,43.5z"/>
			<path class="st0" d="M-51.2,5.4c1.1,0,2-0.7,2.4-1.7h5.1c-3,1.8-5.1,4.9-5.7,8.5h-1.8v5.1h5.1v-5.1h-1.5c0.8-4.8,5-8.5,10-8.5
				s9.2,3.7,10,8.5h-1.5v5.1h5.1v-5.1h-1.8c-0.5-3.6-2.7-6.7-5.7-8.5h4.3c0.4,1,1.3,1.7,2.4,1.7c1.4,0,2.5-1.1,2.5-2.5
				s-1.1-2.5-2.5-2.5C-26,0.3-27,1-27.3,2h-21.5c-0.4-1-1.3-1.7-2.4-1.7c-1.4,0-2.5,1.1-2.5,2.5S-52.6,5.4-51.2,5.4z M-47.8,15.5
				h-1.7v-1.7h1.7V15.5z M-27.5,13.8h1.7v1.7h-1.7V13.8z M-24.9,2c0.5,0,0.8,0.4,0.8,0.8s-0.4,0.8-0.8,0.8c-0.5,0-0.8-0.4-0.8-0.8
				S-25.4,2-24.9,2z M-51.2,2c0.5,0,0.8,0.4,0.8,0.8s-0.4,0.8-0.8,0.8c-0.5,0-0.8-0.4-0.8-0.8S-51.7,2-51.2,2z"/>
			<rect x="-30.9" y="32.5" class="st0" width="1.7" height="1.7"/>
			<rect x="-27.5" y="32.5" class="st0" width="1.7" height="1.7"/>
			<rect x="-24.1" y="32.5" class="st0" width="1.7" height="1.7"/>
			<rect x="-52.9" y="32.5" class="st0" width="1.7" height="1.7"/>
			<rect x="-49.5" y="32.5" class="st0" width="1.7" height="1.7"/>
			<rect x="-46.1" y="32.5" class="st0" width="1.7" height="1.7"/>
		</g>
	</g>
</g>
<g>
	<g>
		<g>
			<path class="st0" d="M51.5,0.4H0.9C0.3,0.4,0,0.7,0,1.3v40.1c0,0.5,0.3,0.9,0.9,0.9h19.2V51h-2.6v1.7h3.5h10.5h3.5V51h-2.6v-8.7
				h19.2c0.5,0,0.9-0.3,0.9-0.9V1.3C52.4,0.7,52,0.4,51.5,0.4z M30.5,51h-8.7v-8.7h8.7V51z M50.6,40.5H31.4H20.9H1.7v-7h2.6h19.2
				h5.2H48h2.6V40.5z M22.7,31.8H5.2V5.6h41.9v26.2H29.7 M25.3,31.8h-0.9 M27.9,31.8h-0.9 M50.6,31.8h-1.7V4.8
				c0-0.5-0.3-0.9-0.9-0.9H4.4c-0.5,0-0.9,0.3-0.9,0.9v27.1H1.7V2.1h48.9V31.8z"/>
			<path class="st0" d="M44.5,22.2v-7c0-0.5-0.3-0.9-0.9-0.9H33.2v0.9v0.9v2.6h1.7v-2.6h3.5v2.6h1.7v-2.6h2.6v5.2h-9.6v1.7h10.5
				C44.2,23.1,44.5,22.7,44.5,22.2z"/>
			<path class="st0" d="M7.9,15.2v7c0,0.5,0.3,0.9,0.9,0.9h10.5v-1.7H9.6v-5.2h2.6v2.6H14v-2.6h3.5v2.6h1.7v-2.6v-0.9v-0.9H8.7
				C8.2,14.4,7.9,14.7,7.9,15.2z"/>
			<rect x="10.5" y="24.8" class="st0" width="1.7" height="1.7"/>
			<rect x="14" y="24.8" class="st0" width="1.7" height="1.7"/>
			<rect x="17.5" y="24.8" class="st0" width="1.7" height="1.7"/>
			<rect x="33.2" y="24.8" class="st0" width="1.7" height="1.7"/>
			<rect x="36.7" y="24.8" class="st0" width="1.7" height="1.7"/>
			<rect x="40.1" y="24.8" class="st0" width="1.7" height="1.7"/>
			<rect x="33.2" y="10.9" class="st0" width="1.7" height="1.7"/>
			<rect x="36.7" y="10.9" class="st0" width="1.7" height="1.7"/>
			<rect x="40.1" y="10.9" class="st0" width="1.7" height="1.7"/>
			<rect x="10.5" y="10.9" class="st0" width="1.7" height="1.7"/>
			<rect x="14" y="10.9" class="st0" width="1.7" height="1.7"/>
			<rect x="17.5" y="10.9" class="st0" width="1.7" height="1.7"/>
		</g>
	</g>
	<polygon class="st0" points="31.8,21.3 29.6,20 29.6,20.8 27.5,20.8 27.5,17.5 27,17.5 24.7,17.5 24.7,15.6 22.1,15.6 22.1,14.9 
		20,16.1 22.1,17.4 22.1,16.6 23.7,16.6 23.7,18.5 24.2,18.5 26.5,18.5 26.5,21.8 29.6,21.8 29.6,22.5 	"/>
</g>
</svg>
