<svg xmlns="http://www.w3.org/2000/svg" xmlns:xlink="http://www.w3.org/1999/xlink" width="530.884" height="538.842" viewBox="0 0 530.884 538.842">
  <defs>
    <linearGradient id="linear-gradient" x1="0.52" y1="1.509" x2="0.468" y2="0.18" gradientUnits="objectBoundingBox">
      <stop offset="0" stop-color="#2b3582"/>
      <stop offset="1" stop-color="#150e42"/>
    </linearGradient>
    <linearGradient id="linear-gradient-2" x1="0.525" y1="0.297" x2="0.225" y2="5.134" xlink:href="#linear-gradient"/>
    <linearGradient id="linear-gradient-3" x1="0" y1="0.5" x2="1" y2="0.5" xlink:href="#linear-gradient"/>
    <linearGradient id="linear-gradient-4" x1="0.061" y1="-0.121" x2="1.252" y2="1.567" gradientUnits="objectBoundingBox">
      <stop offset="0" stop-color="#53d8ff"/>
      <stop offset="1" stop-color="#3840f7"/>
    </linearGradient>
    <linearGradient id="linear-gradient-5" y1="0.5" x2="1" y2="0.5" gradientUnits="objectBoundingBox">
      <stop offset="0" stop-color="#b37cff"/>
      <stop offset="1" stop-color="#f895e7"/>
    </linearGradient>
    <linearGradient id="linear-gradient-11" x1="0.681" y1="-0.275" x2="0.309" y2="1.315" gradientUnits="objectBoundingBox">
      <stop offset="0" stop-color="#a737d5"/>
      <stop offset="1" stop-color="#ef497a"/>
    </linearGradient>
    <linearGradient id="linear-gradient-15" x1="0" y1="0.5" x2="1" y2="0.5" xlink:href="#linear-gradient-5"/>
    <linearGradient id="linear-gradient-18" x1="0.724" y1="-0.451" x2="0.375" y2="1.031" xlink:href="#linear-gradient-11"/>
    <linearGradient id="linear-gradient-19" x1="-37.93" y1="0.5" x2="-36.93" y2="0.5" xlink:href="#linear-gradient-4"/>
    <linearGradient id="linear-gradient-20" x1="-39.03" y1="0.5" x2="-38.03" y2="0.5" xlink:href="#linear-gradient"/>
    <linearGradient id="linear-gradient-21" x1="-134.654" y1="0.5" x2="-133.654" y2="0.5" gradientUnits="objectBoundingBox">
      <stop offset="0" stop-color="#f9b776"/>
      <stop offset="1" stop-color="#f47960"/>
    </linearGradient>
    <linearGradient id="linear-gradient-22" x1="-98.978" y1="0.5" x2="-97.978" y2="0.5" xlink:href="#linear-gradient-4"/>
    <linearGradient id="linear-gradient-23" x1="-67.432" y1="0.5" x2="-66.432" y2="0.5" xlink:href="#linear-gradient"/>
    <linearGradient id="linear-gradient-24" x1="-112.673" y1="0.5" x2="-111.673" y2="0.5" xlink:href="#linear-gradient-21"/>
    <linearGradient id="linear-gradient-25" x1="-14.168" y1="0.066" x2="-15.324" y2="1.243" gradientUnits="objectBoundingBox">
      <stop offset="0" stop-color="#cb236d"/>
      <stop offset="1" stop-color="#4c246d"/>
    </linearGradient>
    <linearGradient id="linear-gradient-26" x1="1.21" y1="-19.618" x2="0.741" y2="-6.323" xlink:href="#linear-gradient-25"/>
    <linearGradient id="linear-gradient-27" x1="-24.237" y1="0.308" x2="-25.108" y2="1.354" xlink:href="#linear-gradient-21"/>
    <linearGradient id="linear-gradient-28" x1="0.564" y1="0.086" x2="-0.072" y2="1.841" gradientUnits="objectBoundingBox">
      <stop offset="0" stop-color="#fdf53f"/>
      <stop offset="1" stop-color="#d93c65"/>
    </linearGradient>
    <linearGradient id="linear-gradient-29" x1="20.468" y1="-11.623" x2="-12.15" y2="8.18" xlink:href="#linear-gradient-28"/>
    <linearGradient id="linear-gradient-30" x1="-70.551" y1="1.478" x2="-70.279" y2="0.434" xlink:href="#linear-gradient-21"/>
    <linearGradient id="linear-gradient-31" x1="-49.859" y1="0.35" x2="-50.971" y2="1.106" xlink:href="#linear-gradient-21"/>
    <linearGradient id="linear-gradient-32" x1="-36.413" y1="0.152" x2="-35.663" y2="1.129" xlink:href="#linear-gradient"/>
    <linearGradient id="linear-gradient-33" x1="-204.654" y1="-0.685" x2="-209.204" y2="1.784" xlink:href="#linear-gradient-21"/>
    <linearGradient id="linear-gradient-34" x1="-27.08" y1="-0.752" x2="-27.433" y2="0.28" xlink:href="#linear-gradient-21"/>
    <linearGradient id="linear-gradient-35" x1="15.447" y1="-4.334" x2="14.875" y2="-1.249" xlink:href="#linear-gradient-21"/>
    <linearGradient id="linear-gradient-36" x1="9.641" y1="7.245" x2="8.901" y2="9.708" xlink:href="#linear-gradient"/>
    <linearGradient id="linear-gradient-37" x1="6.327" y1="0.133" x2="5.929" y2="0.802" xlink:href="#linear-gradient"/>
    <linearGradient id="linear-gradient-38" x1="56.193" y1="-0.305" x2="54.371" y2="1.584" xlink:href="#linear-gradient-4"/>
    <linearGradient id="linear-gradient-39" x1="0.562" y1="-0.429" x2="0.505" y2="0.65" gradientUnits="objectBoundingBox">
      <stop offset="0" stop-color="#5ab6ff"/>
      <stop offset="1" stop-color="#2f68e3"/>
    </linearGradient>
    <linearGradient id="linear-gradient-40" x1="0.548" y1="0.417" x2="0.384" y2="1.597" xlink:href="#linear-gradient-4"/>
  </defs>
  <g id="Group_70114" data-name="Group 70114" transform="translate(-521.521 -451.187)">
    <g id="Group_70096" data-name="Group 70096" transform="translate(528.438 555.205)">
      <g id="Group_70092" data-name="Group 70092" transform="translate(0 0)">
        <path id="Path_50760" data-name="Path 50760" d="M1465.762,2410.815l-12.993,116.527h150.74l-19.634-116.527Z" transform="translate(-1276.659 -2129.69)" fill="url(#linear-gradient)"/>
        <path id="Path_50761" data-name="Path 50761" d="M1444.138,2991.478H1223.519c-5.994,0-10.494-4.267-9.336-8.85l2.831-11.2c.851-3.367,4.555-5.839,8.955-5.976l212.685-6.637c4.6-.143,8.666,2.3,9.668,5.8l5.1,17.833C1454.751,2987.081,1450.228,2991.478,1444.138,2991.478Z" transform="translate(-1084.818 -2569.985)" fill="url(#linear-gradient-2)"/>
        <path id="Path_50762" data-name="Path 50762" d="M556.714,1010.195V1277.07a40.485,40.485,0,0,0,39.442,40.473c97.476,2.514,348.537,8.608,441.328,7.24a29.789,29.789,0,0,0,29.328-28.941c1.789-62,4.7-211.085-6.059-280.3a30.655,30.655,0,0,0-29.311-25.947c-81.673-2.613-353.211-10.909-445.959-8.826A29.427,29.427,0,0,0,556.714,1010.195Z" transform="translate(-556.714 -980.438)" fill="url(#linear-gradient-3)"/>
        <path id="Path_50763" data-name="Path 50763" d="M641.917,1051.282v253.55a23.457,23.457,0,0,0,23.106,23.454l427.568,6.393a22.829,22.829,0,0,0,23.17-22.741l.866-251.285a16.7,16.7,0,0,0-16.289-16.753l-439.891-10.7A18.09,18.09,0,0,0,641.917,1051.282Z" transform="translate(-625.171 -1022.824)" fill="url(#linear-gradient-4)"/>
        <path id="Path_50764" data-name="Path 50764" d="M1116.952,2574.808h-.014L639.2,2565.137a.662.662,0,1,1,.026-1.323l477.739,9.671a.662.662,0,0,1-.013,1.323Z" transform="translate(-622.466 -2252.618)" fill="#fff" opacity="0.65"/>
        <path id="Path_50765" data-name="Path 50765" d="M1864,3001.8a.662.662,0,0,1-.01-1.323l9.114-.133h.01a.662.662,0,0,1,.009,1.323l-9.114.133Z" transform="translate(-1606.535 -2603.352)" fill="#fff"/>
        <path id="Path_50766" data-name="Path 50766" d="M1253.78,3019.983a.662.662,0,0,1-.654-.766l1.3-8.143a9.026,9.026,0,0,1,8.8-7.616l96.666-1.414a.691.691,0,0,1,.671.652.661.661,0,0,1-.652.671l-96.666,1.414a7.7,7.7,0,0,0-7.509,6.5l-1.3,8.143A.662.662,0,0,1,1253.78,3019.983Z" transform="translate(-1116.247 -2604.72)" fill="#fff"/>
      </g>
      <circle id="Ellipse_971" data-name="Ellipse 971" cx="8.003" cy="8.003" r="8.003" transform="translate(62.493 58.035) rotate(-80.783)" fill="#fff"/>
      <circle id="Ellipse_972" data-name="Ellipse 972" cx="8.003" cy="8.003" r="8.003" transform="translate(61.218 89.43) rotate(-22.5)" fill="#fff"/>
      <circle id="Ellipse_973" data-name="Ellipse 973" cx="8.003" cy="8.003" r="8.003" transform="translate(63.671 128.103)" fill="#fff"/>
      <circle id="Ellipse_974" data-name="Ellipse 974" cx="8.003" cy="8.003" r="8.003" transform="translate(62.493 185.067) rotate(-80.783)" fill="#fff"/>
      <circle id="Ellipse_975" data-name="Ellipse 975" cx="8.003" cy="8.003" r="8.003" transform="translate(63.671 217.422)" fill="#fff"/>
      <circle id="Ellipse_976" data-name="Ellipse 976" cx="8.003" cy="8.003" r="8.003" transform="translate(63.671 259.766)" fill="#fff"/>
      <rect id="Rectangle_27674" data-name="Rectangle 27674" width="9.263" height="282.515" rx="4.442" transform="translate(99.399 20.131)" fill="#fff" opacity="0.7"/>
      <g id="Group_70093" data-name="Group 70093" transform="translate(121.894 71.738)" opacity="0.6">
        <rect id="Rectangle_27675" data-name="Rectangle 27675" width="236.201" height="9.263" rx="4.442" fill="#fff"/>
        <rect id="Rectangle_27676" data-name="Rectangle 27676" width="87.555" height="9.263" rx="4.442" transform="translate(0 30.026)" fill="#fff"/>
        <rect id="Rectangle_27677" data-name="Rectangle 27677" width="87.555" height="9.263" rx="4.442" transform="translate(251.418 89.375)" fill="#fff"/>
        <rect id="Rectangle_27678" data-name="Rectangle 27678" width="87.555" height="9.263" rx="4.442" transform="translate(134.908 118.841)" fill="#fff"/>
        <rect id="Rectangle_27679" data-name="Rectangle 27679" width="54.033" height="9.263" rx="4.442" transform="translate(101.89 145.684)" fill="#fff"/>
        <rect id="Rectangle_27680" data-name="Rectangle 27680" width="54.033" height="9.263" rx="4.442" transform="translate(3.308 170.164)" fill="#fff"/>
        <rect id="Rectangle_27681" data-name="Rectangle 27681" width="87.555" height="9.263" rx="4.442" transform="translate(3.308 145.684)" fill="#fff"/>
        <rect id="Rectangle_27682" data-name="Rectangle 27682" width="144.676" height="9.263" rx="4.442" transform="translate(167.833 145.684)" fill="#fff"/>
        <rect id="Rectangle_27683" data-name="Rectangle 27683" width="126.812" height="9.263" rx="4.442" transform="translate(201.134 59.736)" fill="#fff"/>
        <rect id="Rectangle_27684" data-name="Rectangle 27684" width="126.812" height="9.263" rx="4.442" transform="translate(0 118.841)" fill="#fff"/>
        <rect id="Rectangle_27685" data-name="Rectangle 27685" width="189.446" height="9.263" rx="4.442" transform="translate(99.244 30.026)" fill="#fff"/>
        <rect id="Rectangle_27686" data-name="Rectangle 27686" width="189.446" height="9.263" rx="4.442" transform="translate(0 59.736)" fill="#fff"/>
        <rect id="Rectangle_27687" data-name="Rectangle 27687" width="236.201" height="9.263" rx="4.442" transform="translate(0 89.375)" fill="#fff"/>
      </g>
      <g id="Group_70094" data-name="Group 70094" transform="translate(136.87 38.242)">
        <path id="Path_50767" data-name="Path 50767" d="M1262.979,1202.973l-9.862-7.312.194-2.3,10.944-5.528-.28,3.321-7.544,3.63,6.828,4.871Z" transform="translate(-1253.117 -1185.312)" fill="#fff"/>
        <path id="Path_50768" data-name="Path 50768" d="M1324.849,1175.333l-9.862,20.9-3.777-.318,9.861-20.9Z" transform="translate(-1299.792 -1175.015)" fill="#fff"/>
        <path id="Path_50769" data-name="Path 50769" d="M1381.816,1206.247l7.591-3.656-6.874-4.845.28-3.321,9.864,7.282-.194,2.3-10.947,5.557Z" transform="translate(-1356.297 -1190.611)" fill="#fff"/>
      </g>
      <g id="Group_70095" data-name="Group 70095" transform="translate(128.384 265.164)">
        <path id="Path_50770" data-name="Path 50770" d="M1219.8,2357.56l-9.862-7.311.194-2.3,10.944-5.528-.28,3.32-7.544,3.63,6.828,4.871Z" transform="translate(-1209.938 -2339.9)" fill="#fff"/>
        <path id="Path_50771" data-name="Path 50771" d="M1281.669,2329.922l-9.862,20.9-3.777-.318,9.861-20.9Z" transform="translate(-1256.613 -2329.603)" fill="#fff"/>
        <path id="Path_50772" data-name="Path 50772" d="M1338.637,2360.835l7.591-3.655-6.874-4.845.28-3.321,9.864,7.282-.194,2.3-10.946,5.557Z" transform="translate(-1313.118 -2345.199)" fill="#fff"/>
      </g>
    </g>
    <g id="Group_70105" data-name="Group 70105" transform="translate(807.557 451.511)">
      <g id="Group_70100" data-name="Group 70100" transform="translate(74.967 40.808)">
        <g id="Group_70097" data-name="Group 70097" transform="translate(0 59.34)" opacity="0.24">
          <path id="Path_50773" data-name="Path 50773" d="M2375.523,962.389a1.293,1.293,0,0,0-1.247.917q-.3,1-.585,2.014a1.292,1.292,0,0,0,2.49.69q.271-.981.567-1.953a1.294,1.294,0,0,0-1.224-1.667Z" transform="translate(-2370.632 -962.389)" fill="url(#linear-gradient-5)"/>
          <path id="Path_50774" data-name="Path 50774" d="M2361.339,1005.749a1.291,1.291,0,0,1,1.025,1.512c-.253,1.323-.477,2.673-.666,4.011a1.292,1.292,0,0,1-2.558-.359c.194-1.381.425-2.773.687-4.138a1.291,1.291,0,0,1,1.279-1.049A1.32,1.32,0,0,1,2361.339,1005.749Zm-1.509,10.732a1.292,1.292,0,0,1,1.213,1.365c-.08,1.347-.127,2.714-.141,4.065a1.291,1.291,0,0,1-1.3,1.279h0a1.292,1.292,0,0,1-1.279-1.3c.014-1.393.063-2.8.145-4.192a1.292,1.292,0,0,1,1.3-1.215Zm1.268,12.038c.093,1.349.221,2.711.379,4.049a1.292,1.292,0,0,1-2.566.3c-.163-1.38-.295-2.784-.391-4.174a1.292,1.292,0,0,1,1.2-1.378c.034,0,.069,0,.1,0A1.292,1.292,0,0,1,2361.1,1028.519Zm1.415,10.573c.264,1.32.566,2.654.9,3.966a1.292,1.292,0,0,1-2.5.631c-.341-1.352-.652-2.728-.925-4.09a1.291,1.291,0,0,1,1.013-1.52,1.258,1.258,0,0,1,.267-.026A1.292,1.292,0,0,1,2362.514,1039.092Zm2.768,10.3c.434,1.276.906,2.56,1.4,3.815a1.291,1.291,0,1,1-2.4.952c-.514-1.295-1-2.619-1.449-3.936a1.292,1.292,0,1,1,2.446-.832Zm4.087,9.856c.6,1.21,1.234,2.423,1.892,3.606a1.292,1.292,0,1,1-2.257,1.257c-.679-1.22-1.336-2.471-1.952-3.719a1.292,1.292,0,1,1,2.317-1.144Zm5.338,9.246c.749,1.123,1.537,2.242,2.343,3.328a1.292,1.292,0,0,1-2.075,1.538c-.83-1.12-1.643-2.275-2.416-3.432a1.292,1.292,0,0,1,2.148-1.435Zm6.489,8.475c.889,1.017,1.815,2.026,2.751,3a1.292,1.292,0,0,1-1.859,1.794c-.965-1-1.92-2.041-2.837-3.091a1.291,1.291,0,0,1,1.946-1.7Zm7.524,7.567c1.012.9,2.059,1.776,3.112,2.617a1.292,1.292,0,1,1-1.614,2.017c-1.085-.868-2.165-1.776-3.209-2.7a1.292,1.292,0,0,1,1.711-1.935Zm8.431,6.536c1.119.757,2.27,1.5,3.42,2.194a1.291,1.291,0,1,1-1.34,2.208c-1.188-.721-2.374-1.482-3.528-2.263a1.291,1.291,0,1,1,1.447-2.139Zm86.762,4.9a1.291,1.291,0,0,1-.528,1.749c-1.231.66-2.492,1.3-3.746,1.89a1.292,1.292,0,1,1-1.106-2.334c1.216-.576,2.438-1.193,3.631-1.833a1.292,1.292,0,0,1,1.749.528Zm-77.563.49c1.2.605,2.44,1.188,3.672,1.733a1.291,1.291,0,1,1-1.043,2.362c-1.271-.561-2.546-1.162-3.788-1.787a1.291,1.291,0,1,1,1.16-2.308Zm67.768,4.152a1.292,1.292,0,0,1-.751,1.665c-1.3.492-2.632.959-3.961,1.387a1.292,1.292,0,0,1-.792-2.459c1.288-.415,2.579-.868,3.839-1.344a1.289,1.289,0,0,1,1.665.75Zm-57.954,0c1.276.444,2.575.862,3.862,1.24a1.292,1.292,0,1,1-.729,2.478c-1.328-.391-2.669-.821-3.985-1.28a1.291,1.291,0,1,1,.851-2.439Zm47.637,3.324a1.292,1.292,0,0,1-.961,1.553c-1.359.32-2.741.609-4.107.86a1.291,1.291,0,0,1-.467-2.54c1.325-.244,2.665-.524,3.982-.834a1.289,1.289,0,0,1,1.553.961Zm-37.368-.476c1.315.274,2.661.519,4,.729a1.292,1.292,0,1,1-.4,2.552c-1.38-.217-2.769-.47-4.125-.752a1.291,1.291,0,1,1,.527-2.529Zm26.706,2.437a1.291,1.291,0,0,1-1.153,1.416c-1.213.124-2.444.224-3.657.3l-.528.03a1.292,1.292,0,0,1-.135-2.58l.507-.029c1.178-.071,2.372-.167,3.55-.287a1.289,1.289,0,0,1,1.416,1.153Zm-16.145-.95c1.346.1,2.712.17,4.061.2a1.292,1.292,0,0,1-.066,2.583c-1.391-.036-2.8-.107-4.189-.211a1.292,1.292,0,0,1,.108-2.579Z" transform="translate(-2358.32 -997.208)" fill="url(#linear-gradient-5)"/>
          <path id="Path_50775" data-name="Path 50775" d="M3017.665,1438.155a1.285,1.285,0,0,0-.738.224q-.839.572-1.694,1.124a1.292,1.292,0,1,0,1.4,2.171q.882-.569,1.748-1.159a1.292,1.292,0,0,0-.716-2.359Z" transform="translate(-2885.648 -1344.648)" fill="url(#linear-gradient-5)"/>
        </g>
        <g id="Group_70098" data-name="Group 70098" transform="translate(33.447)" opacity="0.24">
          <path id="Path_50776" data-name="Path 50776" d="M3202.063,1164.711a1.292,1.292,0,0,0-1.28,1.054q-.187,1-.4,1.994a1.292,1.292,0,0,0,2.527.537q.218-1.025.411-2.056a1.292,1.292,0,0,0-1.032-1.508A1.353,1.353,0,0,0,3202.063,1164.711Z" transform="translate(-3068.31 -1065.607)" fill="url(#linear-gradient-5)"/>
          <path id="Path_50777" data-name="Path 50777" d="M2611.213,660.479a1.292,1.292,0,0,1-.034,2.583h-.01l-.745-.011c-1.077-.01-2.174,0-3.259.033a1.291,1.291,0,1,1-.077-2.582c1.119-.034,2.25-.045,3.363-.034Zm6.7.387c1.366.133,2.744.3,4.1.5a1.292,1.292,0,0,1-.376,2.556c-1.311-.193-2.648-.356-3.972-.486a1.292,1.292,0,0,1,.136-2.577C2617.832,660.86,2617.87,660.862,2617.909,660.866Zm-16.092,1.24a1.292,1.292,0,0,1-1.146,1.423c-1.319.142-2.655.319-3.971.524a1.292,1.292,0,1,1-.4-2.552c1.356-.212,2.733-.394,4.094-.541a1.319,1.319,0,0,1,.152-.007A1.292,1.292,0,0,1,2601.817,662.106Zm26.778.5c1.337.307,2.683.65,4,1.021a1.292,1.292,0,1,1-.7,2.487c-1.276-.359-2.581-.693-3.876-.99a1.292,1.292,0,1,1,.577-2.518Zm-37.32,1.152a1.292,1.292,0,0,1-.956,1.557c-1.3.309-2.6.655-3.871,1.025a1.292,1.292,0,1,1-.722-2.48c1.313-.382,2.656-.738,3.992-1.058a1.289,1.289,0,0,1,1.557.956Zm47.693,1.941c1.281.474,2.569.986,3.828,1.522a1.292,1.292,0,1,1-1.012,2.377c-1.221-.52-2.47-1.016-3.712-1.475a1.292,1.292,0,1,1,.9-2.424Zm-57.938,1.04a1.292,1.292,0,0,1-.749,1.666c-1.245.473-2.492.982-3.706,1.512a1.292,1.292,0,1,1-1.035-2.367c1.253-.548,2.54-1.073,3.824-1.561a1.291,1.291,0,0,1,1.666.75Zm67.825,3.351c1.209.632,2.423,1.3,3.607,2a1.291,1.291,0,1,1-1.306,2.228c-1.148-.673-2.325-1.325-3.5-1.937a1.292,1.292,0,1,1,1.2-2.289Zm-77.6.918a1.291,1.291,0,0,1-.528,1.748c-1.17.627-2.342,1.291-3.483,1.975a1.292,1.292,0,0,1-1.328-2.216c1.177-.706,2.385-1.39,3.591-2.037a1.291,1.291,0,0,1,1.748.529Zm86.856,4.7c1.123.783,2.242,1.6,3.326,2.44a1.292,1.292,0,0,1-1.578,2.046c-1.052-.811-2.137-1.607-3.226-2.367a1.291,1.291,0,1,1,1.478-2.118Zm8.47,6.743c1.015.919,2.022,1.876,2.992,2.843a1.292,1.292,0,0,1-1.824,1.829c-.941-.939-1.917-1.866-2.9-2.757a1.291,1.291,0,0,1,1.733-1.915Zm7.551,7.763c.892,1.042,1.77,2.119,2.609,3.2a1.291,1.291,0,1,1-2.041,1.583c-.814-1.049-1.666-2.094-2.53-3.1a1.292,1.292,0,1,1,1.962-1.681Zm6.508,8.66c.753,1.148,1.488,2.329,2.182,3.509a1.292,1.292,0,1,1-2.226,1.31c-.673-1.144-1.385-2.289-2.116-3.4a1.291,1.291,0,1,1,2.16-1.417Zm5.354,9.423c.6,1.234,1.177,2.5,1.716,3.763a1.292,1.292,0,1,1-2.376,1.014c-.522-1.223-1.082-2.451-1.664-3.648a1.291,1.291,0,1,1,2.323-1.129Zm4.1,10.03c.435,1.294.845,2.621,1.219,3.943a1.292,1.292,0,0,1-2.486.7c-.362-1.282-.759-2.568-1.181-3.823a1.291,1.291,0,1,1,2.448-.823Zm2.782,10.463c.266,1.344.5,2.712.7,4.067a1.292,1.292,0,1,1-2.555.378c-.2-1.313-.425-2.64-.683-3.943a1.292,1.292,0,0,1,1.016-1.518,1.306,1.306,0,0,1,.265-.025A1.292,1.292,0,0,1,2692.875,728.786Zm1.428,10.731q.029.42.054.841c.065,1.092.11,2.2.133,3.282a1.292,1.292,0,1,1-2.583.055c-.022-1.053-.066-2.124-.129-3.183q-.025-.409-.052-.817a1.291,1.291,0,0,1,1.2-1.378c.035,0,.069,0,.1,0A1.292,1.292,0,0,1,2694.3,739.517Zm-1.146,9.466a1.291,1.291,0,0,1,1.216,1.363c-.078,1.371-.19,2.755-.334,4.114a1.292,1.292,0,0,1-2.569-.271c.139-1.319.249-2.661.324-3.99a1.291,1.291,0,0,1,1.3-1.218Z" transform="translate(-2558.056 -660.464)" fill="url(#linear-gradient-5)"/>
          <path id="Path_50778" data-name="Path 50778" d="M2531.471,739.4a1.286,1.286,0,0,0-.761.24q-.853.608-1.691,1.239a1.291,1.291,0,1,0,1.551,2.065q.812-.61,1.64-1.2a1.292,1.292,0,0,0-.739-2.343Z" transform="translate(-2528.502 -723.883)" fill="url(#linear-gradient-5)"/>
        </g>
        <g id="Group_70099" data-name="Group 70099" transform="translate(20.232 20.846)">
          <path id="Path_50779" data-name="Path 50779" d="M2471.86,795.768a1,1,0,0,0-.086,1.163l6.333,10.451a53.249,53.249,0,0,0-5.123,16.469l-11.134,5.019a1,1,0,0,0-.587,1.007l1.339,14.6a1,1,0,0,0,.76.883l11.862,2.91a53.232,53.232,0,0,0,8.033,15.262l-4.326,11.429a1,1,0,0,0,.3,1.128l11.269,9.375a1,1,0,0,0,1.162.087l10.452-6.334a53.223,53.223,0,0,0,16.469,5.123l5.02,11.134a1,1,0,0,0,1.007.587l14.6-1.339a1,1,0,0,0,.883-.761L2543,882.1a53.23,53.23,0,0,0,15.262-8.033l11.429,4.326a1,1,0,0,0,1.127-.3l9.375-11.269a1,1,0,0,0,.087-1.162l-6.333-10.452a53.238,53.238,0,0,0,5.123-16.469l11.134-5.019a1,1,0,0,0,.587-1.007l-1.339-14.6a1,1,0,0,0-.761-.883l-11.861-2.91a53.22,53.22,0,0,0-8.033-15.262l4.327-11.429a1,1,0,0,0-.3-1.127l-11.269-9.375a1,1,0,0,0-1.163-.087l-10.451,6.333a53.23,53.23,0,0,0-16.469-5.123l-5.02-11.134a1,1,0,0,0-1.007-.587l-14.6,1.339a1,1,0,0,0-.884.76l-2.91,11.861a53.24,53.24,0,0,0-15.262,8.034l-11.429-4.327a1,1,0,0,0-1.127.3Z" transform="translate(-2461.26 -766.531)" fill="url(#linear-gradient-11)"/>
          <path id="Path_50780" data-name="Path 50780" d="M2735.529,1024.743a14,14,0,1,1-2.076-.172A14.262,14.262,0,0,1,2735.529,1024.743Zm4.876,23.564a11.983,11.983,0,0,0-5.2-21.523h0a11.983,11.983,0,0,0-3.719,23.675,12.145,12.145,0,0,0,1.771.147A11.891,11.891,0,0,0,2740.4,1048.307Z" transform="translate(-2668.582 -973.855)" fill="#fff"/>
          <path id="Path_50781" data-name="Path 50781" d="M2645.58,914.572a36.063,36.063,0,0,0-3.645.15h0q-.732.067-1.461.164a36.188,36.188,0,0,0-5.042,1.038l-.141.04q-.427.122-.85.255a.516.516,0,1,0,.309.986,35.116,35.116,0,0,1,7.278-1.454h0a34.883,34.883,0,0,1,37.723,30.024c.067.5.124,1,.17,1.5a35.39,35.39,0,0,1,.147,3.584,34.857,34.857,0,1,1-66.281-15.49.517.517,0,1,0-.931-.448,35.891,35.891,0,1,0,68.245,15.949,36.705,36.705,0,0,0-.152-3.69A35.94,35.94,0,0,0,2645.58,914.572Z" transform="translate(-2580.224 -885.475)" fill="#fff"/>
        </g>
      </g>
      <g id="Group_70104" data-name="Group 70104">
        <g id="Group_70101" data-name="Group 70101" transform="translate(0 35.835)" opacity="0.3">
          <path id="Path_50782" data-name="Path 50782" d="M1986.642,635.162a.72.72,0,0,0-.7.511q-.265.87-.5,1.756a.72.72,0,1,0,1.392.369q.228-.859.485-1.706a.719.719,0,0,0-.683-.93Z" transform="translate(-1983.745 -635.162)" fill="url(#linear-gradient-5)"/>
          <path id="Path_50783" data-name="Path 50783" d="M1978.608,662.161a.72.72,0,0,1,.575.841c-.221,1.177-.4,2.379-.538,3.571a.721.721,0,1,1-1.432-.163c.139-1.227.326-2.463.554-3.675a.72.72,0,0,1,.714-.587A.743.743,0,0,1,1978.608,662.161Zm-.931,7.264a.72.72,0,0,1,.691.749q-.031.778-.039,1.564-.01,1.019.022,2.048a.72.72,0,1,1-1.44.044q-.032-1.055-.023-2.105.008-.807.041-1.609a.72.72,0,0,1,.726-.691Zm.914,7.964c.123,1.194.29,2.4.5,3.575a.721.721,0,1,1-1.419.25c-.213-1.212-.385-2.45-.511-3.678a.72.72,0,0,1,.643-.79.74.74,0,0,1,.081,0A.721.721,0,0,1,1978.591,677.389Zm1.251,7.105c.293,1.163.632,2.329,1.009,3.466a.72.72,0,0,1-1.368.453c-.388-1.17-.737-2.371-1.038-3.568a.72.72,0,0,1,.522-.874.755.755,0,0,1,.183-.022A.72.72,0,0,1,1979.842,684.494Zm2.268,6.849c.459,1.108.965,2.214,1.5,3.287a.72.72,0,1,1-1.288.646c-.555-1.1-1.075-2.241-1.548-3.381a.721.721,0,0,1,1.332-.552Zm3.242,6.452c.615,1.028,1.275,2.049,1.965,3.033a.72.72,0,1,1-1.18.826c-.709-1.013-1.389-2.062-2.021-3.119a.721.721,0,0,1,.249-.988.721.721,0,0,1,.988.248Zm4.143,5.912c.754.925,1.555,1.84,2.381,2.717a.721.721,0,0,1-1.049.988c-.849-.9-1.673-1.842-2.448-2.795a.72.72,0,1,1,1.117-.91Zm4.95,5.253c.879.808,1.8,1.6,2.745,2.346a.721.721,0,0,1-.9,1.128c-.969-.77-1.919-1.583-2.823-2.413a.721.721,0,0,1,.975-1.062Zm5.652,4.488c.984.672,2.012,1.32,3.053,1.927a.72.72,0,1,1-.725,1.245c-1.071-.624-2.128-1.291-3.141-1.982a.72.72,0,1,1,.813-1.19Zm52.435,3.129a.72.72,0,0,1-.3.975c-1.09.581-2.214,1.127-3.342,1.626a.721.721,0,0,1-.582-1.318c1.1-.483,2.188-1.015,3.247-1.579a.72.72,0,0,1,.974.3Zm-46.2.5c1.078.527,2.188,1.019,3.3,1.465a.721.721,0,1,1-.537,1.337c-1.141-.459-2.283-.965-3.393-1.508a.72.72,0,0,1,.633-1.294Zm39.545,2.561a.721.721,0,0,1-.436.921c-1.158.414-2.35.791-3.543,1.122a.72.72,0,0,1-.385-1.388c1.16-.322,2.318-.688,3.444-1.09a.721.721,0,0,1,.921.436Zm-32.853.124c1.145.365,2.314.692,3.477.971a.721.721,0,1,1-.337,1.4c-1.2-.288-2.4-.623-3.578-1a.72.72,0,1,1,.438-1.372Zm25.823,1.932a.72.72,0,0,1-.565.847c-1.209.242-2.444.443-3.667.6a.721.721,0,0,1-.18-1.43c1.19-.15,2.389-.344,3.565-.58a.706.706,0,0,1,.149-.014A.719.719,0,0,1,2038.848,721.691Zm-18.808-.248c1.181.194,2.386.348,3.58.455a.721.721,0,0,1-.129,1.436c-1.23-.111-2.47-.268-3.686-.468a.721.721,0,0,1,.123-1.431A.777.777,0,0,1,2020.04,721.443Zm11.555,1.265a.72.72,0,0,1-.681.758c-1.09.059-2.2.083-3.288.073l-.428-.006a.721.721,0,0,1,.021-1.441h.008l.413.006c1.062.01,2.138-.013,3.2-.071h.046A.721.721,0,0,1,2031.6,722.708Z" transform="translate(-1976.885 -656.845)" fill="url(#linear-gradient-5)"/>
          <path id="Path_50784" data-name="Path 50784" d="M2373.4,922.676a.715.715,0,0,0-.412.125q-.732.5-1.484.974a.721.721,0,0,0,.77,1.219q.773-.489,1.526-1a.721.721,0,0,0-.4-1.316Z" transform="translate(-2293.673 -866.168)" fill="url(#linear-gradient-5)"/>
        </g>
        <g id="Group_70102" data-name="Group 70102" transform="translate(20.216)" opacity="0.3">
          <path id="Path_50785" data-name="Path 50785" d="M2486.833,754.662a.721.721,0,0,0-.716.6c-.1.585-.215,1.164-.338,1.741a.72.72,0,0,0,1.409.3q.19-.891.348-1.793a.721.721,0,0,0-.586-.834A.669.669,0,0,0,2486.833,754.662Z" transform="translate(-2405.965 -695.341)" fill="url(#linear-gradient-15)"/>
          <path id="Path_50786" data-name="Path 50786" d="M2131.047,452.834c1.217.042,2.444.126,3.646.253a.72.72,0,0,1,.641.791.711.711,0,0,1-.792.641c-1.168-.122-2.361-.2-3.544-.245a.721.721,0,0,1,.031-1.441Zm-2.91.7a.72.72,0,0,1-.694.746q-.566.021-1.135.055c-.8.048-1.612.116-2.412.2a.72.72,0,1,1-.153-1.433c.82-.088,1.655-.157,2.479-.207.39-.023.78-.043,1.168-.057h.034A.721.721,0,0,1,2128.137,453.536Zm10.175.063c1.2.214,2.4.472,3.573.77a.72.72,0,0,1-.354,1.4c-1.14-.289-2.308-.54-3.472-.748a.72.72,0,0,1,.132-1.43A.762.762,0,0,1,2138.312,453.6Zm-17.351.61a.721.721,0,0,1-.581.837c-1.164.21-2.332.463-3.473.754a.721.721,0,0,1-.356-1.4c1.174-.3,2.376-.56,3.573-.776a.745.745,0,0,1,.135-.012A.721.721,0,0,1,2120.961,454.209Zm24.429,1.183c1.148.38,2.3.808,3.423,1.272a.72.72,0,1,1-.549,1.331c-1.093-.45-2.212-.866-3.327-1.236a.72.72,0,0,1,.234-1.4A.738.738,0,0,1,2145.39,455.392Zm-31.437.5a.721.721,0,0,1-.457.911c-1.122.373-2.242.791-3.328,1.243a.721.721,0,1,1-.553-1.331c1.119-.464,2.271-.9,3.427-1.28a.734.734,0,0,1,.234-.037A.722.722,0,0,1,2113.953,455.889Zm38.185,2.287c1.083.54,2.163,1.128,3.209,1.748a.72.72,0,0,1-.733,1.24c-1.017-.6-2.066-1.173-3.119-1.7a.721.721,0,0,1,.643-1.29Zm-44.881.379a.721.721,0,0,1-.321.967c-1.055.53-2.1,1.1-3.117,1.707a.72.72,0,0,1-.737-1.238c1.043-.62,2.122-1.211,3.208-1.756a.712.712,0,0,1,.329-.077A.722.722,0,0,1,2107.258,458.555Zm51.167,3.34c1,.694,1.987,1.429,2.93,2.185a.721.721,0,0,1-.9,1.125c-.916-.736-1.875-1.451-2.848-2.125a.72.72,0,0,1,.418-1.312A.712.712,0,0,1,2158.425,461.895Zm5.7,4.572c.893.828,1.765,1.7,2.592,2.578a.72.72,0,1,1-1.051.985c-.8-.857-1.652-1.7-2.521-2.505a.721.721,0,0,1,.98-1.057Zm5,5.332c.766.945,1.507,1.928,2.2,2.921a.72.72,0,0,1-1.181.826c-.676-.965-1.4-1.921-2.14-2.838a.72.72,0,0,1,1.118-.909Zm4.191,5.99c.624,1.044,1.218,2.123,1.764,3.206a.72.72,0,1,1-1.286.649c-.531-1.052-1.108-2.1-1.715-3.115a.721.721,0,0,1,1.237-.74Zm3.3,6.529c.468,1.121.9,2.272,1.286,3.421a.72.72,0,1,1-1.366.458c-.375-1.117-.8-2.235-1.25-3.325a.72.72,0,0,1,.387-.942.7.7,0,0,1,.284-.056A.719.719,0,0,1,2176.606,484.317Zm2.324,6.927c.3,1.174.566,2.375.784,3.57a.72.72,0,1,1-1.417.258c-.212-1.16-.469-2.328-.762-3.468a.72.72,0,1,1,1.4-.359Zm1.313,7.186c.094.863.169,1.739.22,2.6q.031.521.051,1.04a.72.72,0,1,1-1.439.058c-.014-.338-.03-.675-.05-1.013-.05-.84-.122-1.691-.214-2.53a.721.721,0,0,1,.637-.8.712.712,0,0,1,.086,0A.721.721,0,0,1,2180.243,498.431Zm-.41,6.557a.721.721,0,0,1,.7.742c-.038,1.215-.119,2.443-.244,3.648a.72.72,0,1,1-1.433-.148c.12-1.172.2-2.364.235-3.545a.721.721,0,0,1,.727-.7Z" transform="translate(-2098.213 -452.834)" fill="url(#linear-gradient-5)"/>
          <path id="Path_50787" data-name="Path 50787" d="M2081.927,498.776a.719.719,0,0,0-.418.13q-.749.522-1.478,1.07a.721.721,0,1,0,.866,1.152q.708-.533,1.437-1.041a.72.72,0,0,0-.406-1.311Z" transform="translate(-2079.743 -489.746)" fill="url(#linear-gradient-5)"/>
        </g>
        <g id="Group_70103" data-name="Group 70103" transform="translate(12.169 12.511)">
          <path id="Path_50788" data-name="Path 50788" d="M2045.207,534.158a.607.607,0,0,0-.052.7l3.828,6.316a32.176,32.176,0,0,0-3.1,9.953l-6.729,3.034a.607.607,0,0,0-.355.609l.81,8.821a.605.605,0,0,0,.459.534l7.168,1.759a32.161,32.161,0,0,0,4.855,9.224l-2.615,6.907a.608.608,0,0,0,.18.681l6.81,5.665a.607.607,0,0,0,.7.053l6.316-3.828a32.159,32.159,0,0,0,9.952,3.1l3.033,6.729a.607.607,0,0,0,.609.355l8.822-.809a.606.606,0,0,0,.534-.46l1.759-7.168a32.168,32.168,0,0,0,9.223-4.855l6.907,2.615a.607.607,0,0,0,.681-.18l5.666-6.81a.607.607,0,0,0,.052-.7l-3.828-6.316a32.163,32.163,0,0,0,3.1-9.953l6.729-3.033a.607.607,0,0,0,.355-.609l-.81-8.822a.606.606,0,0,0-.459-.534l-7.168-1.758a32.175,32.175,0,0,0-4.855-9.224l2.614-6.907a.607.607,0,0,0-.18-.681l-6.81-5.665a.607.607,0,0,0-.7-.053l-6.316,3.828a32.18,32.18,0,0,0-9.953-3.1l-3.034-6.729a.607.607,0,0,0-.609-.355l-8.822.809a.606.606,0,0,0-.534.46l-1.759,7.168a32.166,32.166,0,0,0-9.224,4.855l-6.907-2.615a.608.608,0,0,0-.682.179Z" transform="translate(-2038.8 -516.489)" fill="url(#linear-gradient-18)"/>
          <path id="Path_50789" data-name="Path 50789" d="M2204.172,672.045a8.544,8.544,0,1,1-1.27-.106A8.721,8.721,0,0,1,2204.172,672.045Zm2.875,14.257a7.145,7.145,0,0,0-3.1-12.834h0a7.145,7.145,0,0,0-2.217,14.118,7.244,7.244,0,0,0,1.057.088A7.088,7.088,0,0,0,2207.046,686.3Z" transform="translate(-2163.699 -641.387)" fill="#fff" opacity="0.56"/>
          <path id="Path_50790" data-name="Path 50790" d="M2148.527,603.88a22.4,22.4,0,0,0-2.244.092h0l-.1.009a22.184,22.184,0,0,0-4.434.888l-.079.025a.72.72,0,1,0,.431,1.375,20.778,20.778,0,0,1,4.313-.861h0l.017,0a20.647,20.647,0,1,1-16.753,11.629.721.721,0,1,0-1.3-.625,22.1,22.1,0,1,0,42.018,9.8,22.406,22.406,0,0,0-.092-2.248A22.129,22.129,0,0,0,2148.527,603.88Z" transform="translate(-2109.026 -586.704)" fill="#fff" opacity="0.56"/>
        </g>
      </g>
    </g>
    <g id="Group_70109" data-name="Group 70109" transform="translate(521.521 623.504)">
      <path id="Path_50791" data-name="Path 50791" d="M931.439,3112.609c-6.985.6-19.108,1.584-28.666,2.005-5.745.253-9.053-.31-10.958-1.073,0,.215.009.418.018.606a1.977,1.977,0,0,0,1.878,1.867,335.767,335.767,0,0,0,37.535.038,1.408,1.408,0,0,0,1.147-2.115A11.521,11.521,0,0,0,931.439,3112.609Z" transform="translate(-819.039 -2761.853)" fill="url(#linear-gradient-19)"/>
      <path id="Path_50792" data-name="Path 50792" d="M902.764,3056.953c9.557-.421,21.681-1.4,28.666-2.005-6.868-8.426-28.666-14.1-28.666-14.1h-6.156a25.818,25.818,0,0,0-4.8,15.038C893.711,3056.643,897.019,3057.206,902.764,3056.953Z" transform="translate(-819.029 -2704.192)" fill="url(#linear-gradient-20)"/>
      <path id="Path_50793" data-name="Path 50793" d="M910.969,2989.7l.576,11.4a2.6,2.6,0,0,0,2.223,2.449,10.116,10.116,0,0,0,4.625-.383,3.08,3.08,0,0,0,2.071-2.368l1.991-11.1Z" transform="translate(-834.427 -2663.104)" fill="url(#linear-gradient-21)"/>
      <g id="Group_70106" data-name="Group 70106" transform="translate(0 330.112)">
        <path id="Path_50794" data-name="Path 50794" d="M526.609,3160.09a6.009,6.009,0,0,1-4.975-4.754l-.011.058a5.42,5.42,0,0,0,2.653,5.8,13.816,13.816,0,0,0,7.346,1.487,6.793,6.793,0,0,0,5.508-3.283l.017-.029C534.865,3160.829,531.661,3161,526.609,3160.09Z" transform="translate(-521.521 -3126.294)" fill="url(#linear-gradient-22)"/>
        <path id="Path_50795" data-name="Path 50795" d="M541.356,3007.571h-5.077c-7.733-.2-12.59,20.877-14.179,29.041a6.009,6.009,0,0,0,4.975,4.754c5.052.911,8.255.739,10.537-.72,4.178-7.106,6.25-17.512,7.245-23.586C545.989,3010.151,541.356,3007.571,541.356,3007.571Z" transform="translate(-521.985 -3007.569)" fill="url(#linear-gradient-23)"/>
      </g>
      <path id="Path_50796" data-name="Path 50796" d="M585.667,2953.735l-2.819,11.213a3.043,3.043,0,0,0,1.583,3.449,10.8,10.8,0,0,0,5.838,1.414,2.543,2.543,0,0,0,2.074-1.7l4.139-11.8Z" transform="translate(-570.721 -2634.204)" fill="url(#linear-gradient-24)"/>
      <path id="Path_50797" data-name="Path 50797" d="M687.741,2189.313s-25.194,157.485-24.779,158.351a20.956,20.956,0,0,1-14.544.4s2.278-84.187,7.617-116.467c0,0-43,75.247-56.652,112.741a34.133,34.133,0,0,1-13.017-4.729s46.3-135.441,58.648-153.481Z" transform="translate(-573.621 -2017.464)" fill="url(#linear-gradient-25)"/>
      <path id="Path_50798" data-name="Path 50798" d="M945.138,2341.243l9.343-14.922,6.8-1.368-.125-.621-7.063,1.421-9.487,15.154Z" transform="translate(-861.45 -2128.503)" fill="url(#linear-gradient-26)"/>
      <path id="Path_50799" data-name="Path 50799" d="M1435.927,1417.68s-17,3.75-27.341,8.524a9.441,9.441,0,0,0-4.625,4.65c-3.092,6.774-12.345,23.762-30.289,31.868,2.584,3.43,6.745,10.564,8.557,22.555,10.777-8.021,20.081-21.417,24.548-43.387a8.766,8.766,0,0,0,7.644-.212c2.242-1.089,4.83-2.633,6.774-3.848a8.878,8.878,0,0,0,3.938-5.289c.74-2.9.3-5.452.3-8.189l8.739-2.707A3.108,3.108,0,0,0,1435.927,1417.68Z" transform="translate(-1206.192 -1400.044)" fill="url(#linear-gradient-27)"/>
      <path id="Path_50800" data-name="Path 50800" d="M813.482,1664.664c-1.812-11.991-5.973-19.125-8.557-22.555-11.147,5.036-25.647,6.646-44.111.248a19.614,19.614,0,0,0-5.278-1.041c-9.829-.576-42.221-1.628-69.024,7.227a20.828,20.828,0,0,0-12.564,11.437c-7.251,16.639-18.989,54.532,13.6,73.662a80.82,80.82,0,0,1,7.864-14.883c-5.248-8.852-6.8-20.942,2.51-36.686,6.791,18.336,9.976,45.09,10.642,56.93a25.45,25.45,0,0,1-1.994,11.388l-.167.392a1.348,1.348,0,0,0,.947,1.84c18.345,4.121,37.426,3,43.126,2.53a2.352,2.352,0,0,0,2.1-1.8c8.921-37.589,8.941-63.229,6.757-79.438C767.674,1675.786,793.192,1679.766,813.482,1664.664Z" transform="translate(-637.444 -1579.431)" fill="url(#linear-gradient-28)"/>
      <path id="Path_50801" data-name="Path 50801" d="M1108.73,1692.534s4.365,6.878,6.513,23.1Z" transform="translate(-993.32 -1620.878)" fill="url(#linear-gradient-29)"/>
      <path id="Path_50802" data-name="Path 50802" d="M896.938,1531.409s-1.856,19.623-3.49,25.427a1.984,1.984,0,0,0,.935,2.266c2.773,1.585,9.425,4.17,18.524-.29a4.128,4.128,0,0,0,2.291-3.885l-.8-18.962Z" transform="translate(-820.29 -1491.421)" fill="url(#linear-gradient-30)"/>
      <g id="Group_70107" data-name="Group 70107" transform="translate(60.049 0)">
        <path id="Path_50803" data-name="Path 50803" d="M905.049,1403.681s5.936,13.636,6.335,20.793,1.941,11.8-6.335,13.242-15.247-2.681-19.023-9.811c0,0-5.918-10.985-4.59-15.484S905.049,1403.681,905.049,1403.681Z" transform="translate(-870.591 -1388.796)" fill="url(#linear-gradient-31)"/>
        <path id="Path_50804" data-name="Path 50804" d="M845.316,1361.929l.471-.208a1.136,1.136,0,0,0,.555-1.561c-1.167-2.255-3.442-7.421-.5-8.627,3.788-1.553,18.79-4.613,22.027-9.936,3.111-5.116.354-11.72-3.788-13.6a.57.57,0,0,0-.746.243l-.345.653a.562.562,0,0,1-1.037-.106h0a.56.56,0,0,0-1.013-.145c-1,1.593-3.681,4.175-10.865,5.5-10.209,1.884-16.959,6.016-17.127,13.07a.563.563,0,0,1-.87.464c-.754-.459-1.96-.675-3.572.681-2.8,2.358-1.656,8.473,4.49,13.5a.559.559,0,0,1-.026.9c-1.114.725-2.775,2.451,1.529,4.752,4.452,2.38,7.776,2.184,9.056,1.973a.56.56,0,0,0,.454-.676l-1.366-6.2a.562.562,0,0,1,.549-.683Z" transform="translate(-827.054 -1327.946)" fill="url(#linear-gradient-32)"/>
        <path id="Path_50805" data-name="Path 50805" d="M890.794,1480.123s-2.265-8.71-6.17-6.268,2.026,9.76,5.166,10.085Z" transform="translate(-872.275 -1444.831)" fill="url(#linear-gradient-33)"/>
      </g>
      <path id="Path_50806" data-name="Path 50806" d="M1555.414,1474.22a.652.652,0,0,1-.505-1.063c.642-.79,6.336-7.752,8.519-8.986.835-.472,1.314-.946,1.423-1.408a1.237,1.237,0,0,0-.136-.826l-6.8,1.362-3.816,3.275a.652.652,0,1,1-.849-.989l3.945-3.386a.649.649,0,0,1,.3-.144l7.421-1.487a.65.65,0,0,1,.668.274,2.749,2.749,0,0,1,.537,2.22,3.751,3.751,0,0,1-2.05,2.243c-1.666.941-6.447,6.58-8.149,8.674A.65.65,0,0,1,1555.414,1474.22Z" transform="translate(-1350.293 -1434.492)" fill="#f8a570"/>
      <path id="Path_50807" data-name="Path 50807" d="M804.746,2065.138l26.787-.583s-23.359-6.6-24.808-4.8c0,0-14.478-9.514-22.412-22.9a80.813,80.813,0,0,0-7.864,14.883C783.561,2055.913,792.9,2063.167,804.746,2065.138Z" transform="translate(-726.345 -1897.526)" fill="url(#linear-gradient-34)"/>
      <path id="Path_50808" data-name="Path 50808" d="M916.573,2157.165s-.552,10.673,13.458,9.123c7.614-.842,19.906-7.942,19.906-7.942S917.9,2158.261,916.573,2157.165Z" transform="translate(-838.927 -1994.191)" fill="url(#linear-gradient-35)"/>
      <g id="Group_70108" data-name="Group 70108" transform="translate(80.3 106.005)">
        <path id="Path_50809" data-name="Path 50809" d="M932.923,2147.335c.051,0,.1,0,.153,0l66.6-.072a2.95,2.95,0,1,0-.006-5.9l-66.6.072a2.949,2.949,0,0,0-.147,5.9Z" transform="translate(-930.092 -2087.504)" fill="url(#linear-gradient-36)"/>
        <path id="Path_50810" data-name="Path 50810" d="M1218.121,1867.306h-55.467a10.58,10.58,0,0,0-9.562,6l-25.642,53.8h68.93a6.424,6.424,0,0,0,5.975-4.02l19.884-49.783A4.388,4.388,0,0,0,1218.121,1867.306Z" transform="translate(-1088.662 -1867.306)" fill="url(#linear-gradient-37)"/>
        <path id="Path_50811" data-name="Path 50811" d="M1387.77,1985.184c-1.2,3.7-.314,7.283,1.983,8.015s5.134-1.671,6.336-5.366.314-7.283-1.984-8.015S1388.972,1981.489,1387.77,1985.184Z" transform="translate(-1297.388 -1957.6)" fill="url(#linear-gradient-38)"/>
      </g>
    </g>
    <g id="Group_70113" data-name="Group 70113" transform="translate(630.73 451.187)">
      <g id="Group_70110" data-name="Group 70110" transform="translate(0 0)">
        <path id="Path_50812" data-name="Path 50812" d="M1203.525,492.451a1.015,1.015,0,0,1-.985-1c-.1-5.609-1.829-33.461-26.056-39.282-26.973-6.48-39.316,21.291-39.316,21.291S1103.8,460.5,1097.4,495.211c-20.925,5.085-26.362,32.752-12.752,46.271a11.627,11.627,0,0,0,8.09,3.39l131.048,1.2a8.641,8.641,0,0,0,8.349-6.247C1236.224,525.832,1241.59,493.353,1203.525,492.451Z" transform="translate(-1077.178 -451.187)" fill="url(#linear-gradient-39)"/>
        <path id="Path_50813" data-name="Path 50813" d="M1216.188,506.633a1.015,1.015,0,0,1-.985-1c-.107-5.38-1.819-31.206-24.637-36.62-25.5-6.051-37.176,19.882-37.176,19.882s-31.556-12.1-37.608,20.314c-19.6,4.7-24.827,30.091-12.423,42.843a11.632,11.632,0,0,0,8.235,3.534l123.364,1.111a8.641,8.641,0,0,0,8.355-6.271C1247.161,537.144,1251.726,507.494,1216.188,506.633Z" transform="translate(-1092.836 -464.774)" fill="url(#linear-gradient-40)"/>
      </g>
      <g id="Group_70111" data-name="Group 70111" transform="translate(61.663 30.868)">
        <path id="Path_50814" data-name="Path 50814" d="M1414.857,642.324l-11.662.471-1.347-33.344a.769.769,0,0,1,.738-.8l10.073-.407a.82.82,0,0,1,.853.787Z" transform="translate(-1399.7 -608.244)" fill="#fff"/>
        <path id="Path_50815" data-name="Path 50815" d="M1391.027,773.556s7.135,12.642,9.545,16.472a.755.755,0,0,0,1.324-.089L1409.8,772.9c.283-.5.02-1.292-.423-1.274l-17.978.726C1391,772.365,1390.783,773.055,1391.027,773.556Z" transform="translate(-1390.923 -739.512)" fill="#fff"/>
      </g>
      <g id="Group_70112" data-name="Group 70112" transform="translate(82.085 30.951)">
        <path id="Rectangle_27688" data-name="Rectangle 27688" d="M3.913,0H7.5a4.174,4.174,0,0,1,4.174,4.174V34.14a0,0,0,0,1,0,0H0a0,0,0,0,1,0,0V3.913A3.913,3.913,0,0,1,3.913,0Z" transform="matrix(-1, 0.015, -0.015, -1, 16.041, 50.622)" fill="#fff"/>
        <path id="Path_50816" data-name="Path 50816" d="M1513.749,625.747s-6.808-12.821-9.118-16.712a.755.755,0,0,0-1.326.055l-8.343,16.833c-.3.5-.053,1.291.391,1.285l17.991-.264C1513.747,626.938,1513.98,626.253,1513.749,625.747Z" transform="translate(-1494.831 -608.667)" fill="#fff"/>
      </g>
    </g>
  </g>
</svg>
