<svg xmlns="http://www.w3.org/2000/svg" width="49.031" height="48.749" viewBox="0 0 49.031 48.749">
  <g id="Group_55655" data-name="Group 55655" transform="translate(-225.228 -212.21)">
    <path id="Path_37660" data-name="Path 37660" d="M240.971,224.862c2.742,0,5.485-.024,8.227.018.663.01.724-.265.7-.791-.023-.484.082-.9-.692-.887-3.48.044-6.962.006-10.442.032-.582,0-.77-.134-.755-.741.043-1.686.076-3.378,0-5.061a3.3,3.3,0,0,1,1.79-2.991,14.006,14.006,0,0,1,5.962-1.926,24.328,24.328,0,0,1,6.366-.165c2.776.324,5.487.848,7.722,2.708a4.43,4.43,0,0,1,1.716,3.472c.025,3.639.034,7.278,0,10.916a6.212,6.212,0,0,1-6.386,6.326c-3.164.014-6.329,0-9.493.013a25.592,25.592,0,0,0-3.782.266c-3.309.508-4.828,2.067-5.307,5.4a30.03,30.03,0,0,0-.218,6.232c.042.644-.151.829-.77.8-.974-.042-1.952-.033-2.927-.009a5.712,5.712,0,0,1-5.218-3.1,14.77,14.77,0,0,1-2.08-6.357,19.573,19.573,0,0,1,.474-7.478,11.518,11.518,0,0,1,2.276-4.582,6.227,6.227,0,0,1,4.853-2.1C235.644,224.852,238.308,224.861,240.971,224.862Zm4.2-6.785a1.958,1.958,0,0,0-2.012-2.063,2.246,2.246,0,0,0-2.23,2.207,2,2,0,0,0,2.051,2.043A2.121,2.121,0,0,0,245.175,218.077Z" transform="translate(0 0)" fill="#357ab4"/>
    <path id="Path_37661" data-name="Path 37661" d="M326.6,314.2c-2.8,0-5.591.022-8.386-.017-.669-.009-.763.247-.771.822-.008.608.09.886.8.878,3.4-.037,6.8,0,10.205-.032.663-.006.858.19.839.846-.044,1.581-.051,3.165,0,4.746a3.346,3.346,0,0,1-1.582,2.986,14.233,14.233,0,0,1-5.173,1.982,23.162,23.162,0,0,1-6.79.419,14.632,14.632,0,0,1-8.013-2.493,4.293,4.293,0,0,1-1.932-3.515c-.028-3.955-.04-7.911.015-11.866a5.412,5.412,0,0,1,5.644-5.651c3.137-.057,6.276-.012,9.414-.037a28.047,28.047,0,0,0,3.782-.269c3.661-.528,5.432-2.295,6.011-5.964a28.413,28.413,0,0,0,.283-5.677c-.028-.642.176-.82.791-.787a27.3,27.3,0,0,1,4.023.127,6.553,6.553,0,0,1,4.5,3.843,17.742,17.742,0,0,1,1.716,9.674,15.021,15.021,0,0,1-1.609,5.984,7,7,0,0,1-4.7,3.89,6.255,6.255,0,0,1-1.394.1C331.721,314.205,329.163,314.2,326.6,314.2Zm-.217,6.624a1.987,1.987,0,0,0-2.063-2.025,2.158,2.158,0,0,0-2.2,2.2,1.99,1.99,0,0,0,2.051,2.042A2.236,2.236,0,0,0,326.388,320.821Z" transform="translate(-67.798 -65.94)" fill="#fec91e"/>
  </g>
</svg>
