<svg id="Layer_1" data-name="Layer 1" xmlns="http://www.w3.org/2000/svg" viewBox="0 0 74.78 57.12"><defs><style>.cls-1{fill:#fff;}</style></defs><path class="cls-1" d="M65.92,24.58a8.18,8.18,0,0,0-6.71-8.08,42.07,42.07,0,0,0-6.27-.06v.95c0,2.23,0,4.47,0,6.7a6.06,6.06,0,0,1-6.18,6.09l-18.61,0a2.8,2.8,0,0,0-3,3c0,5.15,0,10.31,0,15.47a8.36,8.36,0,0,0,8.34,8.38c2.62,0,5.25,0,7.87,0A8.18,8.18,0,0,0,49.4,50.6a50.36,50.36,0,0,0,.36-6.48H39.19c-.67,0-1.33,0-2,0a1.62,1.62,0,0,1,0-3.23c.3,0,.61,0,.91,0,6.42,0,12.85,0,19.27,0a8.36,8.36,0,0,0,8.52-8.38C66,29.83,66,27.21,65.92,24.58ZM41.28,48.64a1.63,1.63,0,1,1-1.63,1.68A1.63,1.63,0,0,1,41.28,48.64Z"/><path class="cls-1" d="M49.67,8.61A8.38,8.38,0,0,0,41.18,0c-2.54,0-5.07,0-7.61,0a8.18,8.18,0,0,0-7.63,4.75c-1.32,2.61-.73,5.41-.84,8.21H36.81a5.37,5.37,0,0,1,.9,0,1.63,1.63,0,0,1-.05,3.2,6.51,6.51,0,0,1-1,0c-6.46,0-12.91,0-19.37,0a8.33,8.33,0,0,0-8.43,8.17c-.06,2.74-.06,5.49,0,8.23a8.17,8.17,0,0,0,7.19,8,52.35,52.35,0,0,0,5.76,0V33.53c0-4.07,2.53-6.61,6.6-6.61,6.06,0,12.12,0,18.18,0a2.84,2.84,0,0,0,3.1-3.19C49.69,18.68,49.67,13.65,49.67,8.61ZM33.44,8.47a1.63,1.63,0,1,1,.09-3.26,1.68,1.68,0,0,1,1.61,1.63A1.65,1.65,0,0,1,33.44,8.47Z"/></svg>