<svg xmlns="http://www.w3.org/2000/svg" width="88.988" height="65.95" viewBox="0 0 88.988 65.95">
  <g id="Quote" transform="translate(0)" opacity="0.16">
    <g id="Group_1" data-name="Group 1" transform="translate(0)">
      <path id="Path_1" data-name="Path 1" d="M43.031-373.91a77.5,77.5,0,0,0-9.315,3.415c-13.705,6.521-22.022,18.253-23.486,33.222-1.308,13.285,2.994,23.242,11.821,27.323,3.172,1.442,4.834,1.752,9.559,1.73,3.815-.023,4.413-.066,6.409-.6,9.47-2.529,14.858-10.269,14.26-20.516a19.556,19.556,0,0,0-2.062-8.028,12.014,12.014,0,0,0-2.949-4.014c-3.327-3.3-6.9-4.679-12.22-4.7-5.389-.022-9.049,1.33-12.242,4.547a20.793,20.793,0,0,1-1.841,1.73c-.244,0-.089-1.664.355-3.7A30.638,30.638,0,0,1,31.811-361a39.119,39.119,0,0,1,12.353-6.52c3.349-1.131,3.393-1.153,3.748-2a4.29,4.29,0,0,0-1.53-4.281A4.823,4.823,0,0,0,43.031-373.91Z" transform="translate(-10 374.148)" fill="#06b2ff"/>
      <path id="Path_2" data-name="Path 2" d="M557.374-373.5c-12.863,3.549-22.865,11.421-27.944,21.956-4.967,10.291-5.611,23.576-1.552,32.2a18.239,18.239,0,0,0,3.749,5.477,19.2,19.2,0,0,0,9.115,5.279c1.641.443,2.417.51,5.877.51a23.264,23.264,0,0,0,5.766-.421c7.828-1.8,12.929-6.787,14.681-14.349a22.725,22.725,0,0,0,.355-5.189c0-4.213-.377-5.921-1.974-9.2a12.028,12.028,0,0,0-2.949-4.014c-3.349-3.3-6.92-4.679-12.22-4.7-5.634-.022-9.713,1.575-12.686,4.945a6.914,6.914,0,0,1-1.375,1.331c-.31,0,0-2.373.643-4.9A30.377,30.377,0,0,1,552.94-364.74a56.761,56.761,0,0,1,7.1-2.883,9.146,9.146,0,0,0,1.442-.466c1.907-.709,2.24-1.664,1.419-3.859C562.076-374.12,560.878-374.475,557.374-373.5Z" transform="translate(-478.436 374.027)" fill="#06b2ff"/>
    </g>
  </g>
</svg>
