<svg xmlns="http://www.w3.org/2000/svg" width="165.636" height="165.636" viewBox="0 0 165.636 165.636">
  <path id="Path_2033" data-name="Path 2033" d="M92.818,175.636a82.818,82.818,0,1,1,82.818-82.818A82.822,82.822,0,0,1,92.818,175.636ZM83.792,63.612q-7.251,0-16.986,9.938Q55.22,85.339,55.212,99.646q0,8.7,4.563,13.251,3.727,3.727,9.938,3.718a16.249,16.249,0,0,0,10.665-3.837,11.749,11.749,0,0,0,4.665-9.414q0-9.938-8.282-14.5a34.248,34.248,0,0,0-8.282-2.687c.558-2.89,2.89-6.49,7.031-10.766q10.344-10.978,9.938-11.392A2.425,2.425,0,0,0,83.792,63.612Zm30.237,9.516q-13.462,12.828-13.454,28.361,0,8.493,4.563,13.048a13.476,13.476,0,0,0,9.938,3.938,16.249,16.249,0,0,0,10.665-3.837,11.749,11.749,0,0,0,4.665-9.414q0-9.938-8.687-14.282a33.814,33.814,0,0,0-8.7-2.485c.693-3.042,3.177-6.828,7.454-11.392q5.172-6.211,10.361-12.423Q126.444,61.322,114.029,73.128Z" transform="translate(-10 -10)" fill="#0a73d7" opacity="0.15"/>
</svg>
