<svg id="Layer_1" data-name="Layer 1" xmlns="http://www.w3.org/2000/svg" viewBox="0 0 20 20"><defs><style>.cls-1{fill:#fff;}</style></defs><path class="cls-1" d="M15.09,1.46l-.91.35a12,12,0,0,0-3,1.66.08.08,0,0,1-.12,0A1.14,1.14,0,0,1,10.48,2,3,3,0,0,1,11.27.72l0,0,.11.28.67-.7c0,.15-.06.29.1.37a2,2,0,0,1,.62-.51c-.08.14-.08.25,0,.34A2.31,2.31,0,0,1,13.63,0c-.08.13-.21.24-.08.37L14.43,0l0,0-.07.07a1.36,1.36,0,0,0-.12.12s0,.08,0,.13h.1L15.1.18v0L15,.3a.33.33,0,0,0-.07.13c0,.08,0,.13.11.1a2.36,2.36,0,0,1,.79-.11l.18,0-.25.22,0,0h1a2.46,2.46,0,0,0-.38.76h.4c-.1.3-.38.43-.59.63a.47.47,0,0,0,.47,0c-.14.3-.43.44-.62.68a.51.51,0,0,0,.34,0v0l-.72.59.4.06a4.31,4.31,0,0,1-.9.58.55.55,0,0,0,.37.09,3.17,3.17,0,0,1-.9.4c0,.12.15.12.26.17a3.86,3.86,0,0,1-1.05.18c0,.13.12.17.22.24H14a3.52,3.52,0,0,1-1.64-.29A1.56,1.56,0,0,1,11.51,4a.17.17,0,0,1,0-.19,8.56,8.56,0,0,1,1.59-1.23c.61-.36,1.23-.7,1.85-1l.11-.06Z"/><path class="cls-1" d="M5,1.5l.47.24A15.76,15.76,0,0,1,7.82,3.22c.24.19.46.41.69.61a.14.14,0,0,1,0,.18,1.55,1.55,0,0,1-.92.92,3.57,3.57,0,0,1-1.25.25H6l.13-.1c.08-.08.07-.16,0-.19L5.58,4.8a2.77,2.77,0,0,1-.41-.12c.09,0,.21-.06.26-.18a3,3,0,0,1-.95-.39c.16,0,.3,0,.41-.08A2.81,2.81,0,0,1,4,3.47l.38-.06v0a3.1,3.1,0,0,1-.73-.59c.13,0,.25,0,.36-.06a2.62,2.62,0,0,1-.6-.68l.22,0a.76.76,0,0,0,.21,0c-.25-.16-.53-.29-.64-.6h.4A2.27,2.27,0,0,0,3.23.71h.94v0L4,.43a1.39,1.39,0,0,1,.61,0,2.3,2.3,0,0,1,.35.1S5,.54,5,.53s0-.08,0-.1A1.39,1.39,0,0,0,4.86.24l0,0v0l.56.12L5.6.37s.09,0,.09,0a.14.14,0,0,0,0-.11A.66.66,0,0,0,5.55.1L5.5,0a1.79,1.79,0,0,1,.88.34C6.49.29,6.49.25,6.32,0a2.2,2.2,0,0,1,.8.51A.23.23,0,0,0,7.19.19l0,0,.59.49c.12-.07.08-.2.07-.34A3.65,3.65,0,0,1,8.55,1L8.66.72,8.8.87a3.11,3.11,0,0,1,.77,1.41A1,1,0,0,1,9,3.5a.12.12,0,0,1-.16,0,12.66,12.66,0,0,0-3.78-2H5Z"/><path class="cls-1" d="M7,13a1.93,1.93,0,0,1-1.92-1.71A3,3,0,0,1,7.14,8.16a2,2,0,0,1,2.31,1,2.21,2.21,0,0,1,.13,1.76,2.88,2.88,0,0,1-2,2A1.11,1.11,0,0,1,7.3,13Z"/><path class="cls-1" d="M15.18,10.76a2.1,2.1,0,0,1-.48,1.46,1.86,1.86,0,0,1-2,.6,2.93,2.93,0,0,1-2.12-2.4,2.46,2.46,0,0,1,.15-1.29A1.78,1.78,0,0,1,12.44,8a2.52,2.52,0,0,1,2.2,1.16A2.77,2.77,0,0,1,15.18,10.76Z"/><path class="cls-1" d="M10.1,17.05a2.41,2.41,0,0,1-2-1,2.18,2.18,0,0,1,.44-3,2.55,2.55,0,0,1,3.7.58,2.13,2.13,0,0,1-.43,2.79A2.52,2.52,0,0,1,10.1,17.05Z"/><path class="cls-1" d="M16.48,15a2.94,2.94,0,0,1-2.1,2.81,1.89,1.89,0,0,1-1,0,.7.7,0,0,1-.59-.67A3,3,0,0,1,13,15.81a4.15,4.15,0,0,1,1.18-1.65,6.76,6.76,0,0,1,.74-.55,1.14,1.14,0,0,1,.65-.21.7.7,0,0,1,.68.43A3,3,0,0,1,16.48,15Z"/><path class="cls-1" d="M3.69,14.88a5.86,5.86,0,0,1,.1-.58.7.7,0,0,1,.76-.56A1.51,1.51,0,0,1,5.4,14,3.61,3.61,0,0,1,7.24,16.4a2.35,2.35,0,0,1,0,.65.76.76,0,0,1-.79.79,2.25,2.25,0,0,1-1.59-.52,3,3,0,0,1-1.18-2.08c0-.06,0-.12,0-.17v-.19Z"/><path class="cls-1" d="M10.23,7.89a3.76,3.76,0,0,1-1.59-.35A1.65,1.65,0,0,1,8,7a.58.58,0,0,1,0-.77,2.68,2.68,0,0,1,1.13-.78,2.71,2.71,0,0,1,2.88.66l.14.18a.74.74,0,0,1-.15,1,1.84,1.84,0,0,1-.93.42C10.82,7.82,10.53,7.85,10.23,7.89Z"/><path class="cls-1" d="M9.84,20a2.94,2.94,0,0,1-1.92-1,.66.66,0,0,1-.12-.17.32.32,0,0,1,0-.45A1.55,1.55,0,0,1,8.51,18a4.92,4.92,0,0,1,1.62-.27,5.13,5.13,0,0,1,1.35.15c.24.07.46.17.69.26a.47.47,0,0,1,.09.06.38.38,0,0,1,.13.56,2.15,2.15,0,0,1-.63.68A3,3,0,0,1,9.84,20Z"/><path class="cls-1" d="M4.27,10.7A6.83,6.83,0,0,1,3.83,13a3,3,0,0,1-.22.39.54.54,0,0,1-.15.15.24.24,0,0,1-.34,0,2.08,2.08,0,0,1-.6-1,2.64,2.64,0,0,1,.42-2.41,2.48,2.48,0,0,1,.68-.61.3.3,0,0,1,.44.1,1.1,1.1,0,0,1,.17.5C4.25,10.34,4.26,10.57,4.27,10.7Z"/><path class="cls-1" d="M15.76,10.52a2.26,2.26,0,0,1,.1-.77A.92.92,0,0,1,16,9.48a.26.26,0,0,1,.36,0,2.52,2.52,0,0,1,1.22,2,2.65,2.65,0,0,1-.54,1.8c0,.06-.11.11-.16.16a.22.22,0,0,1-.32,0,1.27,1.27,0,0,1-.25-.27,3.26,3.26,0,0,1-.37-1A6.73,6.73,0,0,1,15.76,10.52Z"/><path class="cls-1" d="M4,8.4a2.63,2.63,0,0,1,.8-1.94,2.57,2.57,0,0,1,1.51-.69,3.09,3.09,0,0,1,1.05,0c.1,0,.14.06.09.16a1.52,1.52,0,0,1-.2.33c-.3.32-.59.64-.9.94A10.47,10.47,0,0,1,4.72,8.52a3.11,3.11,0,0,1-.41.2.66.66,0,0,1-.15,0A.11.11,0,0,1,4,8.63Z"/><path class="cls-1" d="M13.12,5.8A2.9,2.9,0,0,1,15,6.37a2.53,2.53,0,0,1,1,1.77,3.59,3.59,0,0,1,0,.47c0,.14-.06.2-.19.15a1.92,1.92,0,0,1-.46-.21,10.49,10.49,0,0,1-1.42-1.06,9.11,9.11,0,0,1-1.12-1.12A2.25,2.25,0,0,1,12.55,6c-.06-.1,0-.15.1-.16Z"/></svg>