<svg xmlns="http://www.w3.org/2000/svg" xmlns:xlink="http://www.w3.org/1999/xlink" width="55" height="55" viewBox="0 0 55 55">
  <defs>
    <clipPath id="clip-Raspberry_Pi_4">
      <rect width="55" height="55"/>
    </clipPath>
  </defs>
  <g id="Raspberry_Pi_4" data-name="Raspberry Pi 4" clip-path="url(#clip-Raspberry_Pi_4)">
    <rect width="55" height="55" fill="#fff"/>
    <g id="Group_3" data-name="Group 3" transform="translate(-62.791 19.729)">
      <g id="Group_2" data-name="Group 2" transform="translate(68.791 -19.729)">
        <g id="Group_1" data-name="Group 1">
          <path id="Path_2" data-name="Path 2" d="M202.025,205.717a3.1,3.1,0,1,1-3.119-3.09A3.113,3.113,0,0,1,202.025,205.717Zm-5.619,0a2.553,2.553,0,0,0,2.516,2.559,2.606,2.606,0,0,0,2.558-2.539,2.554,2.554,0,0,0-2.541-2.531A2.489,2.489,0,0,0,196.406,205.72Z" transform="translate(-158.028 -190.39)" fill="#fff"/>
          <path id="Path_3" data-name="Path 3" d="M185.928,194.668l.311.817,1.79-1.9.332.983,1.613-1.424.3.973,2.019-1.344.082.088c-.181.3-.452.584-.129.914l2.386-.953.066.135a2.989,2.989,0,0,0-.389.437,1.023,1.023,0,0,0-.053.394,1.191,1.191,0,0,0,.349.016c.653-.164,1.3-.342,1.955-.516l.042.1a1.559,1.559,0,0,0-.267.368.787.787,0,0,0,0,.432c.007.03.225.035.334.006a5.14,5.14,0,0,1,2.485-.256c.039.009.076.024.154.05l-.677.73h2.753a5.111,5.111,0,0,0-1.016,2.141h1.08c-.3.835-1.119,1.157-1.584,1.785l.021.149,1.242.058-1.866,1.878,1.116.123-2.112,1.685.97.175.062.111-2.593,1.5.978.256.046.1-2.644.988.646.475c-.887.478-1.921.242-2.941.564l.6.673a9.584,9.584,0,0,1-5.322-1.181,4.076,4.076,0,0,1-1.5-1.614c-.4-.775-.378-.84.243-1.434a34.847,34.847,0,0,1,7.2-4.99c.867-.488,1.75-.947,2.591-1.5-.9.34-1.806.663-2.7,1.026a33.5,33.5,0,0,0-8.341,4.754.491.491,0,0,1-.645.043,3.1,3.1,0,0,1-1.5-3.589A9.017,9.017,0,0,1,185.928,194.668Z" transform="translate(-161.056 -192.777)" fill="#fff"/>
          <path id="Path_4" data-name="Path 4" d="M171.457,196.733c1.025.557,2.057,1.1,3.072,1.673a36.716,36.716,0,0,1,5.957,4.015c.39.335.75.7,1.132,1.05a.494.494,0,0,1,.127.609,4.432,4.432,0,0,1-2.557,2.56,10.567,10.567,0,0,1-4.482.724l.639-.689-3.1-.437.771-.578-2.647-.981.031-.1.989-.255-2.577-1.492.05-.114.975-.175-2.133-1.692,1.139-.107-1.857-1.868,1.319-.089c-.5-.775-1.37-1.075-1.656-1.922h1.078a4.949,4.949,0,0,0-1-2.114h2.6l.041-.13-.593-.629a4.619,4.619,0,0,1,2.425.134,3.334,3.334,0,0,0,.611.016c-.083-.21-.164-.421-.251-.631a.362.362,0,0,1-.051-.225c.629.164,1.256.334,1.887.484a1.777,1.777,0,0,0,.458-.009,2.078,2.078,0,0,0-.168-.488c-.07-.112-.219-.173-.294-.306a5.051,5.051,0,0,1,2.367.85c.312-.323.309-.422.017-1,.332.183.677.345.993.554s.632.482,1.042.8l.306-1.029,1.624,1.424.3-.993,1.805,1.892.342-.856c.352.424.7.805,1.009,1.222a7.811,7.811,0,0,1,1.543,3.485,2.992,2.992,0,0,1-1.691,3.209.553.553,0,0,1-.477-.08,29.48,29.48,0,0,0-5.928-3.656c-1.631-.747-3.317-1.373-4.979-2.05a1.366,1.366,0,0,0-.193-.05Z" transform="translate(-165.098 -192.768)" fill="#fff"/>
          <path id="Path_5" data-name="Path 5" d="M196.088,218.158a5.386,5.386,0,0,1-4.173,5.5,5.729,5.729,0,0,1-3.877-.473,7.618,7.618,0,0,1-4.63-6.994,5.379,5.379,0,0,1,7.255-5.4A7.98,7.98,0,0,1,196.088,218.158Z" transform="translate(-161.037 -188.484)" fill="#fff"/>
          <path id="Path_6" data-name="Path 6" d="M183.77,216.408a7.921,7.921,0,0,1-6.249,7.552,5.371,5.371,0,0,1-6.433-4.806,7.917,7.917,0,0,1,6.464-8.351,5.338,5.338,0,0,1,6.079,4.375C183.7,215.584,183.725,216,183.77,216.408Z" transform="translate(-164.031 -188.425)" fill="#fff"/>
          <path id="Path_7" data-name="Path 7" d="M183.005,232.692a6.439,6.439,0,0,1-5.016-2.825,5.781,5.781,0,0,1,2.091-8.422,7.178,7.178,0,0,1,8.455,1,5.767,5.767,0,0,1-.709,8.917A7.586,7.586,0,0,1,183.005,232.692Z" transform="translate(-162.603 -186.058)" fill="#fff"/>
          <path id="Path_8" data-name="Path 8" d="M198.294,226.726c.12,4.211-3.857,7.6-7,7.8a6.336,6.336,0,0,1-1.692-.168,1.811,1.811,0,0,1-1.43-1.67,7.382,7.382,0,0,1,.571-3.805,11.982,11.982,0,0,1,4.968-5.83,3.671,3.671,0,0,1,2.131-.678,1.859,1.859,0,0,1,1.757,1.076A7.851,7.851,0,0,1,198.294,226.726Z" transform="translate(-159.899 -185.606)" fill="#fff"/>
          <path id="Path_9" data-name="Path 9" d="M178,231.626a5.686,5.686,0,0,1-.04.683,2.027,2.027,0,0,1-2.287,1.886,6.941,6.941,0,0,1-4.9-2.008,8.027,8.027,0,0,1-2.619-5.763,6.335,6.335,0,0,1,.325-2.049,1.747,1.747,0,0,1,1.677-1.241,4.217,4.217,0,0,1,2.432.529,9.69,9.69,0,0,1,5.275,6.687,5.923,5.923,0,0,1,.112.675c.019.2,0,.4,0,.6Z" transform="translate(-164.734 -185.426)" fill="#fff"/>
          <path id="Path_10" data-name="Path 10" d="M183.911,211.658a9.292,9.292,0,0,1-5.083-1.293,3.191,3.191,0,0,1-1.232-1.39,1.33,1.33,0,0,1,.083-1.385,6.4,6.4,0,0,1,1.076-1.208,7.45,7.45,0,0,1,9.834.34,3.736,3.736,0,0,1,.58.683,1.949,1.949,0,0,1-.334,2.726,5.954,5.954,0,0,1-3.148,1.333C185.026,211.575,184.354,211.612,183.911,211.658Z" transform="translate(-162.482 -189.89)" fill="#fff"/>
          <path id="Path_11" data-name="Path 11" d="M183.431,231.883a12.436,12.436,0,0,1,5.553.964c1.314.631,1.478,1.342.477,2.416a7.694,7.694,0,0,1-10.433,1.26,9.371,9.371,0,0,1-1.651-1.534c-.448-.512-.364-.96.147-1.419a5.812,5.812,0,0,1,2.37-1.134A12.737,12.737,0,0,1,183.431,231.883Z" transform="translate(-162.568 -183.302)" fill="#fff"/>
          <path id="Path_12" data-name="Path 12" d="M194.923,216.907c.117-.757.212-1.517.364-2.267a1.8,1.8,0,0,1,.376-.706.691.691,0,0,1,.959-.161,6.76,6.76,0,0,1,3.405,6.571,6.472,6.472,0,0,1-1.826,4.179c-.442.441-.87.48-1.222-.036a8.812,8.812,0,0,1-1.077-2.065A19.922,19.922,0,0,1,194.923,216.907Z" transform="translate(-158.246 -187.719)" fill="#fff"/>
          <path id="Path_13" data-name="Path 13" d="M170.414,217.147a16.492,16.492,0,0,1-1.133,6.136,5.433,5.433,0,0,1-.84,1.375c-.369.45-.75.425-1.168.019a6.216,6.216,0,0,1-1.809-3.83,6.69,6.69,0,0,1,2.134-6.038,8.758,8.758,0,0,1,1.129-.844.754.754,0,0,1,1.212.312,8.446,8.446,0,0,1,.461,1.759A6.243,6.243,0,0,1,170.414,217.147Z" transform="translate(-165.4 -187.687)" fill="#fff"/>
          <path id="Path_14" data-name="Path 14" d="M169.093,212.793a7.02,7.02,0,0,1,6.628-7.12,23.116,23.116,0,0,1,2.47.056c.412.014.445.271.275.552a6.884,6.884,0,0,1-.762,1.078,32.379,32.379,0,0,1-6.821,5.744,5.628,5.628,0,0,1-1.117.527c-.524.183-.671.055-.672-.494C169.092,213.021,169.093,212.907,169.093,212.793Z" transform="translate(-164.505 -189.657)" fill="#fff"/>
          <path id="Path_15" data-name="Path 15" d="M197.426,212.908c.086,1.163-.348,1.132-1.1.691a35.385,35.385,0,0,1-3.508-2.358,26,26,0,0,1-4.2-3.954,5.819,5.819,0,0,1-.6-.883c-.154-.272-.117-.475.261-.538,3.707-.615,8.059.954,8.984,5.73C197.347,212.028,197.373,212.471,197.426,212.908Z" transform="translate(-159.94 -189.636)" fill="#fff"/>
          <path id="Path_16" data-name="Path 16" d="M196.293,205.607a2.489,2.489,0,0,1,2.533-2.511,2.554,2.554,0,0,1,2.541,2.531,2.606,2.606,0,0,1-2.558,2.539A2.553,2.553,0,0,1,196.293,205.607Zm1.242-1.7V207.2h.763v-1.283c.347.041.786-.032.926.138a3.892,3.892,0,0,1,.447,1.152h.716l-.4-1.661a.912.912,0,0,0,.251-1.011.858.858,0,0,0-.8-.614C198.811,203.887,198.185,203.911,197.535,203.911Z" transform="translate(-157.914 -190.277)" fill="#0a73d7"/>
          <path id="Path_17" data-name="Path 17" d="M197.293,203.754c.65,0,1.276-.024,1.9.009a.858.858,0,0,1,.8.614.912.912,0,0,1-.251,1.011l.4,1.661h-.716a3.891,3.891,0,0,0-.447-1.152c-.139-.17-.579-.1-.926-.138v1.283h-.763Zm.763,1.482c.294,0,.549.014.8,0s.455-.181.381-.446a.657.657,0,0,0-.379-.4,3.191,3.191,0,0,0-.8-.017Z" transform="translate(-157.672 -190.119)" fill="#fff"/>
          <path id="Path_18" data-name="Path 18" d="M197.907,205.118v-.871a3.19,3.19,0,0,1,.8.017.657.657,0,0,1,.379.4c.073.265-.116.427-.381.446S198.2,205.118,197.907,205.118Z" transform="translate(-157.523 -190.002)" fill="#0a73d7"/>
        </g>
      </g>
    </g>
  </g>
</svg>
