<svg xmlns="http://www.w3.org/2000/svg" width="540.891" height="433.756" viewBox="0 0 540.891 433.756">
  <g id="Group_69826" data-name="Group 69826" transform="translate(-287.392 -4475.735)">
    <g id="Group_69825" data-name="Group 69825" transform="translate(0 5.066)">
      <g id="_04_How_it_works" data-name="04_How_it_works" transform="translate(0 1729.531)">
        <g id="Group_7313" data-name="Group 7313" transform="translate(310.423 2970.995)">
          <g id="Icon_feather-arrow-left" data-name="Icon feather-arrow-left" transform="translate(300.378 24.905)">
            <path id="Path_5019" data-name="Path 5019" d="M7.5,18H19.7" transform="translate(-7.5 -11.9)" fill="none" stroke="#fff" stroke-linecap="round" stroke-linejoin="round" stroke-width="2"/>
          </g>
        </g>
      </g>
      <g id="Group_69823" data-name="Group 69823" transform="translate(226.889 4362.688)">
        <g id="Tabs" transform="translate(186.574 107.981)">
          <g id="Group_69805" data-name="Group 69805">
            <g id="Group_69768" data-name="Group 69768">
              <rect id="Rectangle_27545" data-name="Rectangle 27545" width="172.9" height="125.152"/>
              <rect id="Rectangle_27546" data-name="Rectangle 27546" width="172.9" height="125.152" fill="#fff" opacity="0.9" style="isolation: isolate"/>
              <rect id="Rectangle_27547" data-name="Rectangle 27547" width="24.082" height="125.152" opacity="0.1"/>
              <rect id="Rectangle_27548" data-name="Rectangle 27548" width="172.9" height="11.7" fill="#253099"/>
              <g id="Group_69756" data-name="Group 69756" transform="translate(36.472 26.53)" opacity="0.2">
                <g id="Group_69741" data-name="Group 69741">
                  <path id="Path_50421" data-name="Path 50421" d="M207.3,129.6h-31.5a1.411,1.411,0,0,1,0-2.823h31.5a1.411,1.411,0,0,1,0,2.823Z" transform="translate(-174.395 -126.779)"/>
                </g>
                <g id="Group_69742" data-name="Group 69742" transform="translate(39.871)">
                  <path id="Path_50422" data-name="Path 50422" d="M265.194,129.6H204.057a1.411,1.411,0,0,1,0-2.823h61.137a1.411,1.411,0,0,1,0,2.823Z" transform="translate(-202.646 -126.779)"/>
                </g>
                <g id="Group_69743" data-name="Group 69743" transform="translate(4.237 9.213)">
                  <path id="Path_50423" data-name="Path 50423" d="M261.062,136.13H178.808a1.411,1.411,0,0,1,0-2.823h82.254a1.411,1.411,0,1,1,0,2.823Z" transform="translate(-177.397 -133.307)"/>
                </g>
                <g id="Group_69744" data-name="Group 69744" transform="translate(0 18.425)">
                  <path id="Path_50424" data-name="Path 50424" d="M228.8,142.657H175.806a1.411,1.411,0,1,1,0-2.823H228.8a1.411,1.411,0,1,1,0,2.823Z" transform="translate(-174.395 -139.834)"/>
                </g>
                <g id="Group_69745" data-name="Group 69745" transform="translate(63.042 18.425)">
                  <path id="Path_50425" data-name="Path 50425" d="M258.441,142.657H220.475a1.411,1.411,0,1,1,0-2.823h37.966a1.411,1.411,0,1,1,0,2.823Z" transform="translate(-219.064 -139.834)"/>
                </g>
                <g id="Group_69746" data-name="Group 69746" transform="translate(0 27.638)">
                  <path id="Path_50426" data-name="Path 50426" d="M205.07,149.185H175.806a1.411,1.411,0,0,1,0-2.823H205.07a1.411,1.411,0,1,1,0,2.823Z" transform="translate(-174.395 -146.362)"/>
                </g>
                <g id="Group_69747" data-name="Group 69747" transform="translate(38.755 27.638)">
                  <path id="Path_50427" data-name="Path 50427" d="M249.327,149.185H203.266a1.411,1.411,0,0,1,0-2.823h46.061a1.411,1.411,0,0,1,0,2.823Z" transform="translate(-201.855 -146.362)"/>
                </g>
                <g id="Group_69748" data-name="Group 69748" transform="translate(4.237 36.849)">
                  <path id="Path_50428" data-name="Path 50428" d="M218.17,155.712H178.808a1.411,1.411,0,1,1,0-2.823H218.17a1.411,1.411,0,1,1,0,2.823Z" transform="translate(-177.397 -152.889)"/>
                </g>
                <g id="Group_69749" data-name="Group 69749" transform="translate(4.237 46.061)">
                  <path id="Path_50429" data-name="Path 50429" d="M223.1,162.239H178.808a1.411,1.411,0,0,1,0-2.823H223.1a1.411,1.411,0,1,1,0,2.823Z" transform="translate(-177.397 -159.416)"/>
                </g>
                <g id="Group_69750" data-name="Group 69750" transform="translate(55.784 46.061)">
                  <path id="Path_50430" data-name="Path 50430" d="M260.556,162.239H215.332a1.411,1.411,0,1,1,0-2.823h45.224a1.411,1.411,0,1,1,0,2.823Z" transform="translate(-213.921 -159.416)"/>
                </g>
                <g id="Group_69751" data-name="Group 69751" transform="translate(0 55.274)">
                  <path id="Path_50431" data-name="Path 50431" d="M201.161,168.767H175.806a1.411,1.411,0,0,1,0-2.823h25.354a1.411,1.411,0,1,1,0,2.823Z" transform="translate(-174.395 -165.944)"/>
                </g>
                <g id="Group_69752" data-name="Group 69752" transform="translate(34.008 55.274)">
                  <path id="Path_50432" data-name="Path 50432" d="M266.9,168.767h-67a1.411,1.411,0,0,1,0-2.823h67a1.411,1.411,0,1,1,0,2.823Z" transform="translate(-198.492 -165.944)"/>
                </g>
                <g id="Group_69753" data-name="Group 69753" transform="translate(4.237 64.487)">
                  <path id="Path_50433" data-name="Path 50433" d="M222.817,175.295H178.808a1.411,1.411,0,0,1,0-2.823h44.009a1.411,1.411,0,0,1,0,2.823Z" transform="translate(-177.397 -172.472)"/>
                </g>
                <g id="Group_69754" data-name="Group 69754" transform="translate(54.388 64.487)">
                  <path id="Path_50434" data-name="Path 50434" d="M242.818,175.295H214.343a1.411,1.411,0,1,1,0-2.823h28.475a1.411,1.411,0,0,1,0,2.823Z" transform="translate(-212.932 -172.472)"/>
                </g>
                <g id="Group_69755" data-name="Group 69755" transform="translate(4.237 73.699)">
                  <path id="Path_50435" data-name="Path 50435" d="M229.467,181.822H178.808a1.411,1.411,0,1,1,0-2.823h50.659a1.411,1.411,0,0,1,0,2.823Z" transform="translate(-177.397 -178.999)"/>
                </g>
              </g>
              <g id="Group_69757" data-name="Group 69757" transform="translate(146.09 3.511)">
                <circle id="Ellipse_959" data-name="Ellipse 959" cx="2.419" cy="2.419" r="2.419" transform="translate(16.946)" fill="#fff" opacity="0.4"/>
                <circle id="Ellipse_960" data-name="Ellipse 960" cx="2.419" cy="2.419" r="2.419" transform="translate(8.473)" fill="#fff" opacity="0.4"/>
                <circle id="Ellipse_961" data-name="Ellipse 961" cx="2.419" cy="2.419" r="2.419" fill="#fff" opacity="0.4"/>
              </g>
              <g id="Group_69767" data-name="Group 69767" transform="translate(10.988 26.53)" opacity="0.2">
                <g id="Group_69758" data-name="Group 69758">
                  <path id="Path_50436" data-name="Path 50436" d="M157.814,129.6h-.065a1.411,1.411,0,0,1,0-2.823,1.44,1.44,0,0,1,1.444,1.411A1.384,1.384,0,0,1,157.814,129.6Z" transform="translate(-156.338 -126.779)"/>
                </g>
                <g id="Group_69759" data-name="Group 69759" transform="translate(0 9.213)">
                  <path id="Path_50437" data-name="Path 50437" d="M157.814,136.13h-.065a1.411,1.411,0,1,1,0-2.823,1.439,1.439,0,0,1,1.444,1.411A1.384,1.384,0,0,1,157.814,136.13Z" transform="translate(-156.338 -133.307)"/>
                </g>
                <g id="Group_69760" data-name="Group 69760" transform="translate(0 18.425)">
                  <path id="Path_50438" data-name="Path 50438" d="M157.814,142.657h-.065a1.411,1.411,0,1,1,0-2.823,1.44,1.44,0,0,1,1.444,1.411A1.384,1.384,0,0,1,157.814,142.657Z" transform="translate(-156.338 -139.834)"/>
                </g>
                <g id="Group_69761" data-name="Group 69761" transform="translate(0 27.638)">
                  <path id="Path_50439" data-name="Path 50439" d="M157.814,149.185h-.065a1.411,1.411,0,0,1,0-2.823,1.44,1.44,0,0,1,1.444,1.411A1.384,1.384,0,0,1,157.814,149.185Z" transform="translate(-156.338 -146.362)"/>
                </g>
                <g id="Group_69762" data-name="Group 69762" transform="translate(0 36.849)">
                  <path id="Path_50440" data-name="Path 50440" d="M157.814,155.712h-.065a1.411,1.411,0,1,1,0-2.823,1.44,1.44,0,0,1,1.444,1.411A1.384,1.384,0,0,1,157.814,155.712Z" transform="translate(-156.338 -152.889)"/>
                </g>
                <g id="Group_69763" data-name="Group 69763" transform="translate(0 46.061)">
                  <path id="Path_50441" data-name="Path 50441" d="M157.814,162.239h-.065a1.411,1.411,0,1,1,0-2.823,1.44,1.44,0,0,1,1.444,1.411A1.384,1.384,0,0,1,157.814,162.239Z" transform="translate(-156.338 -159.416)"/>
                </g>
                <g id="Group_69764" data-name="Group 69764" transform="translate(0 55.274)">
                  <path id="Path_50442" data-name="Path 50442" d="M157.814,168.767h-.065a1.411,1.411,0,0,1,0-2.823,1.439,1.439,0,0,1,1.444,1.411A1.384,1.384,0,0,1,157.814,168.767Z" transform="translate(-156.338 -165.944)"/>
                </g>
                <g id="Group_69765" data-name="Group 69765" transform="translate(0 64.487)">
                  <path id="Path_50443" data-name="Path 50443" d="M157.814,175.295h-.065a1.411,1.411,0,1,1,0-2.823,1.439,1.439,0,0,1,1.444,1.411A1.384,1.384,0,0,1,157.814,175.295Z" transform="translate(-156.338 -172.472)"/>
                </g>
                <g id="Group_69766" data-name="Group 69766" transform="translate(0 73.699)">
                  <path id="Path_50444" data-name="Path 50444" d="M157.814,181.822h-.065a1.411,1.411,0,1,1,0-2.823,1.44,1.44,0,0,1,1.444,1.411A1.384,1.384,0,0,1,157.814,181.822Z" transform="translate(-156.338 -178.999)"/>
                </g>
              </g>
            </g>
            <g id="Group_69804" data-name="Group 69804" transform="translate(102.94 102.127)">
              <rect id="Rectangle_27549" data-name="Rectangle 27549" width="226.564" height="145.063" fill="#263238"/>
              <rect id="Rectangle_27550" data-name="Rectangle 27550" width="226.564" height="145.063" fill="#fff" opacity="0.9" style="isolation: isolate"/>
              <rect id="Rectangle_27551" data-name="Rectangle 27551" width="35.341" height="145.063" opacity="0.1"/>
              <rect id="Rectangle_27552" data-name="Rectangle 27552" width="226.564" height="11.7" fill="#253099"/>
              <g id="Group_69769" data-name="Group 69769" transform="translate(10.634 20.347)">
                <path id="Path_50445" data-name="Path 50445" d="M234.4,198.127l-3.758,1.377,3.758,1.365v1.411l-5.373-2.044v-1.466l5.373-2.044Z" transform="translate(-229.026 -193.952)" fill="#fff"/>
                <path id="Path_50446" data-name="Path 50446" d="M236.783,194.761h1.569l-3.723,10.63H233.06Z" transform="translate(-227.367 -194.761)" fill="#fff"/>
                <path id="Path_50447" data-name="Path 50447" d="M242.328,198.771v1.466l-5.371,2.044v-1.411l3.757-1.365-3.757-1.377v-1.4Z" transform="translate(-225.764 -193.952)" fill="#fff"/>
              </g>
              <g id="Group_69779" data-name="Group 69779" transform="translate(9.64 37.828)" opacity="0.2">
                <g id="Group_69770" data-name="Group 69770">
                  <path id="Path_50448" data-name="Path 50448" d="M245.088,209.97H229.733a1.411,1.411,0,0,1,0-2.823h15.355a1.411,1.411,0,1,1,0,2.823Z" transform="translate(-228.322 -207.147)"/>
                </g>
                <g id="Group_69771" data-name="Group 69771" transform="translate(0 9.212)">
                  <path id="Path_50449" data-name="Path 50449" d="M245.088,216.5H229.733a1.411,1.411,0,0,1,0-2.823h15.355a1.411,1.411,0,1,1,0,2.823Z" transform="translate(-228.322 -213.674)"/>
                </g>
                <g id="Group_69772" data-name="Group 69772" transform="translate(0 18.425)">
                  <path id="Path_50450" data-name="Path 50450" d="M245.088,223.025H229.733a1.411,1.411,0,1,1,0-2.823h15.355a1.411,1.411,0,1,1,0,2.823Z" transform="translate(-228.322 -220.202)"/>
                </g>
                <g id="Group_69773" data-name="Group 69773" transform="translate(0 27.638)">
                  <path id="Path_50451" data-name="Path 50451" d="M245.088,229.553H229.733a1.411,1.411,0,0,1,0-2.823h15.355a1.411,1.411,0,1,1,0,2.823Z" transform="translate(-228.322 -226.73)"/>
                </g>
                <g id="Group_69774" data-name="Group 69774" transform="translate(0 36.849)">
                  <path id="Path_50452" data-name="Path 50452" d="M245.088,236.08H229.733a1.411,1.411,0,0,1,0-2.823h15.355a1.411,1.411,0,1,1,0,2.823Z" transform="translate(-228.322 -233.257)"/>
                </g>
                <g id="Group_69775" data-name="Group 69775" transform="translate(0 46.061)">
                  <path id="Path_50453" data-name="Path 50453" d="M245.088,242.607H229.733a1.411,1.411,0,1,1,0-2.823h15.355a1.411,1.411,0,0,1,0,2.823Z" transform="translate(-228.322 -239.784)"/>
                </g>
                <g id="Group_69776" data-name="Group 69776" transform="translate(0 55.273)">
                  <path id="Path_50454" data-name="Path 50454" d="M245.088,249.134H229.733a1.411,1.411,0,1,1,0-2.823h15.355a1.411,1.411,0,1,1,0,2.823Z" transform="translate(-228.322 -246.311)"/>
                </g>
                <g id="Group_69777" data-name="Group 69777" transform="translate(0 64.486)">
                  <path id="Path_50455" data-name="Path 50455" d="M245.088,255.662H229.733a1.411,1.411,0,0,1,0-2.823h15.355a1.411,1.411,0,1,1,0,2.823Z" transform="translate(-228.322 -252.839)"/>
                </g>
                <g id="Group_69778" data-name="Group 69778" transform="translate(0 73.697)">
                  <path id="Path_50456" data-name="Path 50456" d="M245.088,262.189H229.733a1.411,1.411,0,1,1,0-2.823h15.355a1.411,1.411,0,1,1,0,2.823Z" transform="translate(-228.322 -259.366)"/>
                </g>
              </g>
              <g id="Group_69802" data-name="Group 69802" transform="translate(37.885 37.828)">
                <g id="Group_69780" data-name="Group 69780">
                  <path id="Path_50457" data-name="Path 50457" d="M281.243,209.97h-31.5a1.411,1.411,0,0,1,0-2.823h31.5a1.411,1.411,0,1,1,0,2.823Z" transform="translate(-248.335 -207.147)" fill="#407bff"/>
                </g>
                <g id="Group_69781" data-name="Group 69781" transform="translate(39.871)">
                  <path id="Path_50458" data-name="Path 50458" d="M360.071,209.97H278a1.411,1.411,0,0,1,0-2.823h82.073a1.411,1.411,0,0,1,0,2.823Z" transform="translate(-276.586 -207.147)" fill="#263238"/>
                </g>
                <g id="Group_69782" data-name="Group 69782" transform="translate(135.624)" opacity="0.2">
                  <path id="Path_50459" data-name="Path 50459" d="M369.618,209.97H345.844a1.411,1.411,0,0,1,0-2.823h23.774a1.411,1.411,0,0,1,0,2.823Z" transform="translate(-344.433 -207.147)" fill="#263238"/>
                </g>
                <g id="Group_69783" data-name="Group 69783" transform="translate(4.237 9.212)" opacity="0.2">
                  <path id="Path_50460" data-name="Path 50460" d="M335,216.5H252.748a1.411,1.411,0,0,1,0-2.823H335a1.411,1.411,0,0,1,0,2.823Z" transform="translate(-251.337 -213.674)" fill="#263238"/>
                </g>
                <g id="Group_69784" data-name="Group 69784" transform="translate(94.029 9.212)">
                  <path id="Path_50461" data-name="Path 50461" d="M393.038,216.5H316.371a1.411,1.411,0,1,1,0-2.823h76.667a1.411,1.411,0,0,1,0,2.823Z" transform="translate(-314.96 -213.674)" fill="#407bff"/>
                </g>
                <g id="Group_69785" data-name="Group 69785" transform="translate(4.237 18.425)">
                  <path id="Path_50462" data-name="Path 50462" d="M301.5,223.025H252.748a1.411,1.411,0,1,1,0-2.823H301.5a1.411,1.411,0,1,1,0,2.823Z" transform="translate(-251.337 -220.202)" fill="#263238"/>
                </g>
                <g id="Group_69786" data-name="Group 69786" transform="translate(63.042 18.425)">
                  <path id="Path_50463" data-name="Path 50463" d="M342.431,223.025H294.415a1.411,1.411,0,1,1,0-2.823h48.016a1.411,1.411,0,1,1,0,2.823Z" transform="translate(-293.004 -220.202)" fill="#407bff"/>
                </g>
                <g id="Group_69787" data-name="Group 69787" transform="translate(118.875 18.425)">
                  <path id="Path_50464" data-name="Path 50464" d="M385.8,223.025H333.976a1.411,1.411,0,1,1,0-2.823H385.8a1.411,1.411,0,1,1,0,2.823Z" transform="translate(-332.565 -220.202)" fill="#263238"/>
                </g>
                <g id="Group_69788" data-name="Group 69788" transform="translate(28.245 27.638)">
                  <path id="Path_50465" data-name="Path 50465" d="M299.023,229.553H269.759a1.411,1.411,0,1,1,0-2.823h29.264a1.411,1.411,0,1,1,0,2.823Z" transform="translate(-268.348 -226.73)" fill="#263238"/>
                </g>
                <g id="Group_69789" data-name="Group 69789" transform="translate(66.999 27.638)">
                  <path id="Path_50466" data-name="Path 50466" d="M329.159,229.553H297.219a1.411,1.411,0,0,1,0-2.823h31.939a1.411,1.411,0,0,1,0,2.823Z" transform="translate(-295.808 -226.73)" fill="#263238"/>
                </g>
                <g id="Group_69790" data-name="Group 69790" transform="translate(106.197 27.638)" opacity="0.2">
                  <path id="Path_50467" data-name="Path 50467" d="M376.783,229.553h-51.79a1.411,1.411,0,0,1,0-2.823h51.79a1.411,1.411,0,0,1,0,2.823Z" transform="translate(-323.582 -226.73)" fill="#263238"/>
                </g>
                <g id="Group_69791" data-name="Group 69791" transform="translate(4.237 36.849)" opacity="0.2">
                  <path id="Path_50468" data-name="Path 50468" d="M292.11,236.08H252.748a1.411,1.411,0,0,1,0-2.823H292.11a1.411,1.411,0,0,1,0,2.823Z" transform="translate(-251.337 -233.257)" fill="#263238"/>
                </g>
                <g id="Group_69792" data-name="Group 69792" transform="translate(4.237 46.061)">
                  <path id="Path_50469" data-name="Path 50469" d="M297.037,242.607H252.748a1.411,1.411,0,1,1,0-2.823h44.288a1.411,1.411,0,1,1,0,2.823Z" transform="translate(-251.337 -239.784)" fill="#407bff"/>
                </g>
                <g id="Group_69793" data-name="Group 69793" transform="translate(55.784 46.061)">
                  <path id="Path_50470" data-name="Path 50470" d="M355.992,242.607h-66.72a1.411,1.411,0,1,1,0-2.823h66.72a1.411,1.411,0,1,1,0,2.823Z" transform="translate(-287.861 -239.784)" fill="#263238"/>
                </g>
                <g id="Group_69794" data-name="Group 69794" transform="translate(130.599 46.061)">
                  <path id="Path_50471" data-name="Path 50471" d="M382.38,242.607h-40.1a1.411,1.411,0,0,1,0-2.823h40.1a1.411,1.411,0,0,1,0,2.823Z" transform="translate(-340.872 -239.784)" fill="#263238"/>
                </g>
                <g id="Group_69795" data-name="Group 69795" transform="translate(18.358 55.273)" opacity="0.2">
                  <path id="Path_50472" data-name="Path 50472" d="M288.11,249.134H262.754a1.411,1.411,0,0,1,0-2.823H288.11a1.411,1.411,0,0,1,0,2.823Z" transform="translate(-261.343 -246.311)" fill="#263238"/>
                </g>
                <g id="Group_69796" data-name="Group 69796" transform="translate(52.367 55.273)" opacity="0.2">
                  <path id="Path_50473" data-name="Path 50473" d="M335.492,249.134H286.851a1.411,1.411,0,1,1,0-2.823h48.641a1.411,1.411,0,0,1,0,2.823Z" transform="translate(-285.44 -246.311)" fill="#263238"/>
                </g>
                <g id="Group_69797" data-name="Group 69797" transform="translate(110.5 55.273)">
                  <path id="Path_50474" data-name="Path 50474" d="M375.529,249.134H328.042a1.411,1.411,0,1,1,0-2.823h47.486a1.411,1.411,0,1,1,0,2.823Z" transform="translate(-326.631 -246.311)" fill="#263238"/>
                </g>
                <g id="Group_69798" data-name="Group 69798" transform="translate(32.481 64.486)">
                  <path id="Path_50475" data-name="Path 50475" d="M302.647,255.662H272.761a1.411,1.411,0,0,1,0-2.823h29.886a1.411,1.411,0,1,1,0,2.823Z" transform="translate(-271.35 -252.839)" fill="#263238"/>
                </g>
                <g id="Group_69799" data-name="Group 69799" transform="translate(68.509 64.486)" opacity="0.2">
                  <path id="Path_50476" data-name="Path 50476" d="M326.764,255.662H298.289a1.411,1.411,0,1,1,0-2.823h28.475a1.411,1.411,0,0,1,0,2.823Z" transform="translate(-296.878 -252.839)" fill="#263238"/>
                </g>
                <g id="Group_69800" data-name="Group 69800" transform="translate(105.918 64.486)">
                  <path id="Path_50477" data-name="Path 50477" d="M376.864,255.662H324.8a1.411,1.411,0,1,1,0-2.823h52.069a1.411,1.411,0,0,1,0,2.823Z" transform="translate(-323.384 -252.839)" fill="#407bff"/>
                </g>
                <g id="Group_69801" data-name="Group 69801" transform="translate(32.481 73.697)" opacity="0.2">
                  <path id="Path_50478" data-name="Path 50478" d="M309.3,262.189H272.761a1.411,1.411,0,1,1,0-2.823H309.3a1.411,1.411,0,1,1,0,2.823Z" transform="translate(-271.35 -259.366)" fill="#263238"/>
                </g>
              </g>
              <g id="Group_69803" data-name="Group 69803" transform="translate(199.754 3.511)">
                <path id="Path_50479" data-name="Path 50479" d="M375.037,185.251a2.419,2.419,0,1,0,2.419-2.419A2.419,2.419,0,0,0,375.037,185.251Z" transform="translate(-358.09 -182.832)" fill="#fff" opacity="0.4"/>
                <circle id="Ellipse_962" data-name="Ellipse 962" cx="2.419" cy="2.419" r="2.419" transform="translate(8.473)" fill="#fff" opacity="0.4"/>
                <circle id="Ellipse_963" data-name="Ellipse 963" cx="2.419" cy="2.419" r="2.419" fill="#fff" opacity="0.4"/>
              </g>
            </g>
          </g>
        </g>
        <g id="Character" transform="translate(72.364 274.193)">
          <g id="Group_69817" data-name="Group 69817">
            <g id="Group_69815" data-name="Group 69815">
              <g id="Group_69806" data-name="Group 69806" transform="translate(190.426 192.889)">
                <path id="Path_50480" data-name="Path 50480" d="M205.616,363.915l30.294-1.489-2.945,26.352s-21.029,4.017-30.41-10.946Z" transform="translate(-202.555 -362.426)" fill="#ebb376"/>
                <path id="Path_50481" data-name="Path 50481" d="M246.585,371.612l-6.9,19.117L224.1,388.778l2.946-26.352Z" transform="translate(-193.692 -362.426)" fill="#ebb376"/>
              </g>
              <path id="Path_50482" data-name="Path 50482" d="M200.919,418.376a123.817,123.817,0,0,0,31.155-23.14l-2.062-19.627c-28.638,4.175-45.148,10.289-45.148,10.289s10.6-38.043.9-51.9l-26.658,4.832s-28.324,58.877-9.275,79.547Z" transform="translate(-36.525 -181.23)" fill="#407bff"/>
              <path id="Path_50483" data-name="Path 50483" d="M200.878,418.38a123.972,123.972,0,0,0,31.183-23.129L230,375.6c-27.713,4.065-44.1,9.9-45.1,10.259.356-1.387,10.389-38.262.872-51.877l-26.648,4.839a206.252,206.252,0,0,0-13,36.779c-3.808,16.072-4.931,33.378,3.74,42.775Z" transform="translate(-36.521 -181.234)" fill="#04a1fe" opacity="0.7" style="isolation: isolate"/>
              <path id="Path_50484" data-name="Path 50484" d="M178.961,415.578c9.409-59.655,1.061-74.78,1.061-74.78l-33.907,32c-3.808,16.072-4.931,33.378,3.74,42.775Z" transform="translate(-36.521 -178.432)" opacity="0.2"/>
              <path id="Path_50485" data-name="Path 50485" d="M196.115,428.156c6.347-30.153,13.475-77.353,12.692-84.38-1.139-10.211-56.715-54-104.942-22.122-9.851,6.509-14.922,76.686-16.644,106.5Z" transform="translate(-59.568 -191.011)" fill="#407bff"/>
              <path id="Path_50486" data-name="Path 50486" d="M196.111,428.154c6.348-30.156,13.474-77.354,12.7-84.394-1.13-10.2-56.716-53.974-104.948-22.1-3.581,2.388-6.517,13.163-8.936,27.391-3.226,19.356-5.452,45.069-6.774,64.459-.373,5.49-.677,10.455-.919,14.644Z" transform="translate(-59.564 -191.009)" fill="#04a1fe" opacity="0.7" style="isolation: isolate"/>
              <path id="Path_50487" data-name="Path 50487" d="M165,226.873c-16.727-6.759-56.159,17.5-59.615,60.764S123.857,318.9,123.857,318.9s3.9,16.507,19.876,11.409c0,0,13.2,14.949,25.481,8.867,0,0,15.277,15.918,23.48,7.515,0,0,8.925,10.187,17.068,2.47s31.4-86.375-5.1-104.561S165,226.873,165,226.873Z" transform="translate(-52.25 -225.752)" fill="#263238"/>
              <g id="Group_69807" data-name="Group 69807" transform="translate(38.98 99.762)">
                <path id="Path_50488" data-name="Path 50488" d="M148.807,361l-1.607-.144c1.854-20.827-2.727-30.048-2.773-30.139l1.432-.741C146.057,330.366,150.708,339.637,148.807,361Z" transform="translate(-75.019 -282.644)" fill="#04a1fe"/>
                <path id="Path_50489" data-name="Path 50489" d="M154.219,361.585c-11.068-26.105,1.382-32.179,1.917-32.425l.673,1.466-.337-.733.342.731c-.117.054-11.518,5.778-1.108,30.332Z" transform="translate(-72.871 -282.981)" fill="#04a1fe"/>
                <path id="Path_50490" data-name="Path 50490" d="M165.769,348.8s-21.38-16.91-54.57-26.475l-10.636,4.992S82.695,305.2,112.475,297.966s70.285,12.659,80.463,29.78-17.668,22.547-17.668,22.547S172.672,346.858,165.769,348.8Z" transform="translate(-95.247 -296.44)" fill="#04a1fe"/>
                <path id="Path_50491" data-name="Path 50491" d="M165.769,348.8s-21.38-16.91-54.57-26.475l-10.636,4.992S82.695,305.2,112.475,297.966s70.285,12.659,80.463,29.78-17.668,22.547-17.668,22.547S172.672,346.858,165.769,348.8Z" transform="translate(-95.247 -296.44)" fill="#04a1fe" opacity="0.6" style="isolation: isolate"/>
                <path id="Path_50492" data-name="Path 50492" d="M155.182,352.324a1.41,1.41,0,1,1-1.41-1.41A1.41,1.41,0,0,1,155.182,352.324Z" transform="translate(-71.755 -274.034)" fill="#04a1fe"/>
                <path id="Path_50493" data-name="Path 50493" d="M148.687,352.324a1.409,1.409,0,1,1-1.41-1.41A1.409,1.409,0,0,1,148.687,352.324Z" transform="translate(-74.425 -274.034)" fill="#04a1fe"/>
              </g>
              <g id="Group_69808" data-name="Group 69808" transform="translate(79.88 72.279)">
                <path id="Path_50494" data-name="Path 50494" d="M142.491,276.966c-1.3,15.155-5.94,42.1-18.264,48.033,0,0,13.781,2.806,35.26,30.082,12.235-8.589,7.608-14.438,7.608-14.438-14.315-9.387-10.6-20.964-4.813-30.994Z" transform="translate(-124.227 -276.966)" fill="#ebb376"/>
                <path id="Path_50495" data-name="Path 50495" d="M143.648,286.413l11.717,19.334a45.57,45.57,0,0,0-3.531,7.333c-5.63-3.016-11.83-12.586-10.665-19.135C141.749,290.681,142.734,287.7,143.648,286.413Z" transform="translate(-117.317 -273.08)" opacity="0.2"/>
              </g>
              <g id="Group_69812" data-name="Group 69812" transform="translate(80.782 0.473)">
                <path id="Path_50496" data-name="Path 50496" d="M136.981,262.078c-3.942,23.8-6.105,33.763,2.705,49.083,13.252,23.045,42.619,24.128,53.415,2.339,9.717-19.613,14.531-55.237-5.736-70.966C167.4,227.038,140.923,238.279,136.981,262.078Z" transform="translate(-121.294 -222.255)" fill="#ebb376"/>
                <g id="Group_69809" data-name="Group 69809">
                  <path id="Path_50497" data-name="Path 50497" d="M189.316,233.114c15.419,8.561,30.109,35.294,8.163,28.612-3.307,6.419-15.128.543-21.994-7.168-1.156,5.342-13.814,10.709-23.123,2.426,4.5,6.495-3.156,22.883-11.137,20.056s-25.874-6.537-10.01-31.8S172.841,223.966,189.316,233.114Z" transform="translate(-124.866 -226.087)" fill="#263238"/>
                </g>
                <path id="Path_50498" data-name="Path 50498" d="M167.41,270.219s1.42,9.45,4.094,14.573c-3.017,1.733-7.037-.59-7.037-.59Z" transform="translate(-108.577 -207.936)" fill="#d58745"/>
                <path id="Path_50499" data-name="Path 50499" d="M158.184,286.047a18.893,18.893,0,0,0,3.119,1.188.541.541,0,0,0,.679-.426.635.635,0,0,0-.435-.74,16.82,16.82,0,0,1-10.95-9.611.566.566,0,1,0-1.067.368A17.7,17.7,0,0,0,158.184,286.047Z" transform="translate(-114.736 -205.542)" fill="#263238"/>
                <path id="Path_50500" data-name="Path 50500" d="M127.614,270.084a19.339,19.339,0,0,0,9,11.736c5.748,3.15,9.946-2.244,9.456-8.958-.44-6.042-3.963-14.961-10.267-15.316C129.6,257.2,125.9,263.813,127.614,270.084Z" transform="translate(-123.908 -213.153)" fill="#ebb376"/>
                <path id="Path_50501" data-name="Path 50501" d="M154.738,255.807a1.075,1.075,0,0,0,.895-.049,8.661,8.661,0,0,1,8.218-.137,1.084,1.084,0,0,0,1.541-.425,1.285,1.285,0,0,0-.476-1.654,10.816,10.816,0,0,0-10.39.051,1.206,1.206,0,0,0-.443,1.617A1.244,1.244,0,0,0,154.738,255.807Z" transform="translate(-112.907 -215.331)" fill="#263238"/>
                <path id="Path_50502" data-name="Path 50502" d="M183.476,264.153a1.091,1.091,0,0,0,.847.09,1.168,1.168,0,0,0,.71-1.5,12.391,12.391,0,0,0-7.347-8.163,1.076,1.076,0,0,0-1.384.8,1.28,1.28,0,0,0,.821,1.506,9.9,9.9,0,0,1,5.753,6.527A1.269,1.269,0,0,0,183.476,264.153Z" transform="translate(-103.724 -214.388)" fill="#263238"/>
                <g id="Group_69810" data-name="Group 69810" transform="translate(44.547 51.611)">
                  <path id="Path_50503" data-name="Path 50503" d="M161.292,267.068c-.692,1.88-2.268,3.03-3.521,2.569s-1.709-2.358-1.018-4.238,2.268-3.03,3.521-2.57S161.983,265.188,161.292,267.068Z" transform="translate(-156.43 -262.628)" fill="#263238"/>
                  <path id="Path_50504" data-name="Path 50504" d="M158.76,262.757l4.679-.1S160.137,265.348,158.76,262.757Z" transform="translate(-155.472 -262.657)" fill="#263238"/>
                </g>
                <g id="Group_69811" data-name="Group 69811" transform="translate(68.252 59.122)">
                  <path id="Path_50505" data-name="Path 50505" d="M178.088,272.39c-.692,1.881-2.268,3.032-3.521,2.57s-1.709-2.358-1.018-4.238,2.268-3.031,3.521-2.57S178.779,270.51,178.088,272.39Z" transform="translate(-173.226 -267.95)" fill="#263238"/>
                  <path id="Path_50506" data-name="Path 50506" d="M175.556,268.079l4.678-.1S176.933,270.672,175.556,268.079Z" transform="translate(-172.268 -267.979)" fill="#263238"/>
                </g>
                <path id="Path_50507" data-name="Path 50507" d="M161.4,282.7a10.25,10.25,0,0,1-4.2-.895,10.729,10.729,0,0,1-5.854-6.834,14.311,14.311,0,0,1,7.477-16.725,10.514,10.514,0,0,1,14.85,6.639,13.9,13.9,0,0,1-.71,9.715h0a13.886,13.886,0,0,1-6.764,7.009A11.411,11.411,0,0,1,161.4,282.7Zm2.217-23.93a9.819,9.819,0,0,0-4.12.94,12.7,12.7,0,0,0-6.611,14.789,8.905,8.905,0,0,0,12.631,5.647,12.283,12.283,0,0,0,5.97-6.2l.737.329-.737-.329a12.271,12.271,0,0,0,.641-8.585,9.146,9.146,0,0,0-4.969-5.834A8.658,8.658,0,0,0,163.613,258.767Z" transform="translate(-114.21 -213.31)" fill="#263238"/>
                <path id="Path_50508" data-name="Path 50508" d="M178.032,287.79a10.182,10.182,0,0,1-4.18-.886A10.729,10.729,0,0,1,168,280.069a14.308,14.308,0,0,1,7.474-16.725,10.518,10.518,0,0,1,14.851,6.637,13.9,13.9,0,0,1-.71,9.717h0C187.371,284.718,182.691,287.79,178.032,287.79Zm2.238-23.923a9.8,9.8,0,0,0-4.12.941,12.7,12.7,0,0,0-6.611,14.789,9.148,9.148,0,0,0,4.971,5.834c4.948,2.214,11.065-.656,13.63-6.393h0a12.275,12.275,0,0,0,.641-8.584,9.143,9.143,0,0,0-4.969-5.834A8.631,8.631,0,0,0,180.271,263.867Z" transform="translate(-107.358 -211.212)" fill="#263238"/>
                <path id="Path_50509" data-name="Path 50509" d="M168.664,270.545a.705.705,0,0,0-.418-.452,2.847,2.847,0,0,0-1.818.27l-.711-1.448a4.387,4.387,0,0,1,3.106-.329,2.33,2.33,0,0,1,1.339,1.363Z" transform="translate(-108.063 -208.68)" fill="#263238"/>
                <rect id="Rectangle_27553" data-name="Rectangle 27553" width="1.613" height="19.893" transform="matrix(0.296, -0.955, 0.955, 0.296, 18.982, 47.948)" fill="#263238"/>
              </g>
              <path id="Path_50510" data-name="Path 50510" d="M157.6,377.169s-37.133,28.455-69.716,26.746c1.322-19.39,3.548-45.1,6.774-64.459,3.324-3.678,5.517-5.9,5.517-5.9l19.809,14.775-4.807,6.033s29.906-1.517,40.327,0Z" transform="translate(-59.296 -181.413)" opacity="0.2"/>
              <g id="Group_69814" data-name="Group 69814" transform="translate(0 125.652)">
                <g id="Group_69813" data-name="Group 69813" transform="translate(101.214 41.251)">
                  <path id="Path_50511" data-name="Path 50511" d="M140.265,350.063l29.721-6.05,1.073,26.495s-20.182,7.15-31.715-6.224Z" transform="translate(-139.343 -344.013)" fill="#ebb376"/>
                  <path id="Path_50512" data-name="Path 50512" d="M181.756,350.141l-3.929,19.94-15.7.427-1.071-26.495Z" transform="translate(-130.412 -344.013)" fill="#ebb376"/>
                </g>
                <path id="Path_50513" data-name="Path 50513" d="M142.648,348.3l1.453,20.444-7.39,3.317L133.549,348.3Z" transform="translate(-40.512 -300.998)" fill="#04a1fe"/>
                <path id="Path_50514" data-name="Path 50514" d="M142.648,348.3l1.453,20.444-7.39,3.317L133.549,348.3Z" transform="translate(-40.512 -300.998)" fill="#04a1fe" opacity="0.6" style="isolation: isolate"/>
                <path id="Path_50515" data-name="Path 50515" d="M122.56,314.784a34.337,34.337,0,0,0-20.389,11.8c-8.966,10.528-40.554,41.8-33.534,67.324s74.555,6.534,95.189-8.06l-3.161-23.761-46.789,3.437,14.428-9.487C138.194,328.5,122.56,314.784,122.56,314.784Z" transform="translate(-67.627 -314.784)" fill="#04a1fe"/>
                <path id="Path_50516" data-name="Path 50516" d="M122.56,314.784a34.337,34.337,0,0,0-20.389,11.8c-8.966,10.528-40.554,41.8-33.534,67.324s74.555,6.534,95.189-8.06l-3.161-23.761-46.789,3.437,14.428-9.487C138.194,328.5,122.56,314.784,122.56,314.784Z" transform="translate(-67.627 -314.784)" fill="#04a1fe" opacity="0.7" style="isolation: isolate"/>
              </g>
              <path id="Path_50517" data-name="Path 50517" d="M202.555,364.22l8.514-1.434V385.6l-6.739,1.1Z" transform="translate(-12.129 -169.388)" fill="#407bff"/>
              <path id="Path_50518" data-name="Path 50518" d="M202.555,364.22l8.514-1.434V385.6l-6.739,1.1Z" transform="translate(-12.129 -169.388)" fill="#fff" opacity="0.6" style="isolation: isolate"/>
            </g>
            <g id="Group_69816" data-name="Group 69816" transform="translate(153.171 174.057)">
              <path id="Path_50519" data-name="Path 50519" d="M196.221,381.99a26.459,26.459,0,0,1,.184-3.74l.25-1.881-1.822,1.075-1.085.639a10.611,10.611,0,0,1-1.1.421,3.292,3.292,0,0,1-1.979.042,3.724,3.724,0,0,1-1.586-1.15,6.694,6.694,0,0,1-1.115-1.921l-1.592-4.451-1.125,4.707c-.112.467-.186.941-.277,1.414-.11.456-.274.871-.4,1.313a4.275,4.275,0,0,1-1.317,1.788,2.8,2.8,0,0,1-2.13.189,8.457,8.457,0,0,1-2.519-1.108l-2.453-1.529,1,2.491a22.948,22.948,0,0,1,1.012,3.279,10.632,10.632,0,0,1,.229,1.7,2.739,2.739,0,0,1-.37,1.661,2.726,2.726,0,0,0,.958-1.583,7.836,7.836,0,0,0,.254-1.864,14.3,14.3,0,0,0-.051-1.479,10.029,10.029,0,0,0,1.266.617,4.992,4.992,0,0,0,4.018-.089,6.033,6.033,0,0,0,2.636-3c.021-.061.044-.123.065-.185a5.613,5.613,0,0,0,2.835,1.691,5.5,5.5,0,0,0,3.445-.351,8.741,8.741,0,0,0,1.2-.652c.007.052.013.1.02.158a14.45,14.45,0,0,0,.411,1.976,9.368,9.368,0,0,0,.7,1.9,4.355,4.355,0,0,0,1.226,1.588,4.91,4.91,0,0,1-.617-1.794A13.609,13.609,0,0,1,196.221,381.99Z" transform="translate(-176.158 -340.057)" fill="#fff"/>
              <path id="Path_50520" data-name="Path 50520" d="M234.515,359.167a8.086,8.086,0,0,1-3.256-.344,11.745,11.745,0,0,1-3.074-1.48,9,9,0,0,1-2.267-2.436,12.943,12.943,0,0,1-1.51-3.033l-.924-2.792-1.585,2.494a13.779,13.779,0,0,1-2.426,2.811,4.491,4.491,0,0,1-2.838,1.291l-.342-.02c-.13-.018-.285-.058-.426-.085a8.2,8.2,0,0,1-.871-.222,10.215,10.215,0,0,1-1.7-.73,14.475,14.475,0,0,1-3.043-2.252l-2.454-2.357.5,3.228a25.792,25.792,0,0,1,.336,5.218,7.332,7.332,0,0,1-.5,2.4,1.58,1.58,0,0,1-1.719.991l-.644-.051.2.522c.405,1.06.834,2.114,1.276,3.164-.138-.941-.294-1.878-.456-2.813l.26.039a4.139,4.139,0,0,0,.843-.147,5.354,5.354,0,0,0,.747-.446c.185-.2.375-.408.553-.622a7.547,7.547,0,0,0,1.054-2.823,17.655,17.655,0,0,0,.315-2.858c0-.016,0-.03,0-.044a16.147,16.147,0,0,0,1.456,1.036,12.83,12.83,0,0,0,2.09,1.04,7.68,7.68,0,0,0,2.444.55,7.159,7.159,0,0,0,4.719-1.87A12.662,12.662,0,0,0,222.814,355a14.3,14.3,0,0,0,.912,1.441,11.561,11.561,0,0,0,3.092,2.948,12.023,12.023,0,0,0,3.916,1.526,10.915,10.915,0,0,0,2.69.2c-.109.289-.236.572-.333.867a17.845,17.845,0,0,0-.583,2.488,10.112,10.112,0,0,0-.109,2.553,5.04,5.04,0,0,0,.744,2.4,5.279,5.279,0,0,1-.176-2.392,11.421,11.421,0,0,1,.543-2.319,22.9,22.9,0,0,1,2.048-4.3l.889-1.509Z" transform="translate(-163.975 -349.082)" fill="#fff"/>
            </g>
          </g>
        </g>
        <g id="Table" transform="translate(60.503 510.911)">
          <g id="Group_69820" data-name="Group 69820">
            <g id="Group_69818" data-name="Group 69818" transform="translate(16.702 9.315)">
              <path id="Rectangle_27554" data-name="Rectangle 27554" d="M4.441,0H503.046a4.441,4.441,0,0,1,4.441,4.441v17.07a0,0,0,0,1,0,0H0a0,0,0,0,1,0,0V4.441A4.441,4.441,0,0,1,4.441,0Z" transform="translate(507.487 21.511) rotate(180)" fill="#407bff"/>
            </g>
            <rect id="Rectangle_27555" data-name="Rectangle 27555" width="507.487" height="10.755" transform="translate(524.189 20.071) rotate(180)" opacity="0.2" style="isolation: isolate"/>
            <g id="Group_69819" data-name="Group 69819">
              <path id="Path_50521" data-name="Path 50521" d="M65.283,405.6H594.054a6.061,6.061,0,0,0,6.06-6.06h0a6.061,6.061,0,0,0-6.06-6.06H65.283a6.061,6.061,0,0,0-6.06,6.06h0A6.061,6.061,0,0,0,65.283,405.6Z" transform="translate(-59.223 -393.481)" fill="#407bff"/>
            </g>
          </g>
        </g>
        <g id="Device_2" data-name="Device 2" transform="translate(410.699 433.589)">
          <g id="Group_69821" data-name="Group 69821" transform="translate(0 0)">
            <path id="Path_50522" data-name="Path 50522" d="M444.278,342l-15.438,70.024a5.247,5.247,0,0,1-5.012,3.979H339.5a3.4,3.4,0,0,1-3.168-4.4l15.419-69.489c.522-2.286,2.748-3.425,5.013-3.425h84.33C443.356,338.694,444.779,339.719,444.278,342Z" transform="translate(-295.486 -338.694)" fill="#263238"/>
            <path id="Path_50523" data-name="Path 50523" d="M443.446,342l-15.438,70.024A5.247,5.247,0,0,1,423,416.007H341.533c-2.267,0-3.689-2.093-3.188-4.4l15.438-69.489c.5-2.286,2.746-3.425,5.013-3.425h81.462C442.524,338.694,443.947,339.719,443.446,342Z" transform="translate(-294.654 -338.694)" fill="#fff" opacity="0.4" style="isolation: isolate"/>
            <path id="Path_50524" data-name="Path 50524" d="M429.458,413.184l15.361-69.672c.5-2.286-.922-3.311-3.187-3.311H360.168c-2.267,0-4.511,1.139-5.013,3.425l-15.591,70.463Z" transform="translate(-294.111 -338.074)" fill="#407bff"/>
            <path id="Path_50525" data-name="Path 50525" d="M444.806,343.495l-8.1,36.811-7.258,32.875-48.134.483-41.747.421,15.582-70.46c.517-2.291,2.742-3.42,5-3.42h81.493C443.9,340.2,445.322,341.237,444.806,343.495Z" transform="translate(-294.109 -338.073)" fill="#fff" opacity="0.4" style="isolation: isolate"/>
            <path id="Path_50526" data-name="Path 50526" d="M436.191,368.619l-7.258,32.875-48.134.483H340.826l6.54-30.057a4.194,4.194,0,0,1,4.1-3.3Z" transform="translate(-293.592 -326.385)" opacity="0.2" style="isolation: isolate"/>
            <path id="Path_50527" data-name="Path 50527" d="M438.1,372.862c-.5-2.285-2.746-3.425-5.012-3.425H351.625c-2.265,0-3.688,1.026-3.187,3.311l6.177,28.017H340.862a1.3,1.3,0,1,0,0,2.6H441.2a2.949,2.949,0,0,0,2.879-3.588Z" transform="translate(-294.111 -326.049)" fill="#407bff"/>
            <path id="Path_50528" data-name="Path 50528" d="M438.1,372.862c-.5-2.285-2.746-3.425-5.012-3.425H351.625c-2.265,0-3.688,1.026-3.187,3.311l6.177,28.017H340.862a1.3,1.3,0,1,0,0,2.6H441.2a2.949,2.949,0,0,0,2.879-3.588Z" transform="translate(-294.111 -326.049)" fill="#fff" opacity="0.4" style="isolation: isolate"/>
            <path id="Path_50529" data-name="Path 50529" d="M340.3,383.909h-4.733l-.585,2.552h4.6Z" transform="translate(-295.995 -320.096)"/>
            <path id="Path_50530" data-name="Path 50530" d="M321.783,397.608H308.164a.807.807,0,0,1,0-1.613h13.619a14.885,14.885,0,0,0,11.65-5.578,16.5,16.5,0,0,1,12.908-6.179h2.4a.807.807,0,1,1,0,1.613h-2.4a14.887,14.887,0,0,0-11.65,5.578A16.5,16.5,0,0,1,321.783,397.608Z" transform="translate(-307.358 -319.961)"/>
          </g>
        </g>
        <g id="Device_1" data-name="Device 1" transform="translate(198.185 384.045)">
          <g id="Group_69822" data-name="Group 69822" transform="translate(0 0)">
            <path id="Path_50531" data-name="Path 50531" d="M156.779,386.648v5.894c0,2.655,3.2,3.741,5.854,3.741H369.506c2.624,0,5.751-1.087,5.751-3.741v-5.894Z" transform="translate(-156.779 -269.426)" fill="#263238"/>
            <path id="Path_50532" data-name="Path 50532" d="M156.779,386.648v5.894c0,2.655,3.2,3.741,5.854,3.741H369.506c2.624,0,5.751-1.087,5.751-3.741v-5.894Z" transform="translate(-156.779 -269.426)" fill="#fff" opacity="0.4" style="isolation: isolate"/>
            <path id="Path_50533" data-name="Path 50533" d="M206.716,386.648v5.894c0,2.655,3.151,3.741,5.806,3.741H348.966c2.624,0,5.751-1.087,5.751-3.741v-5.894Z" transform="translate(-136.239 -269.426)" opacity="0.2" style="isolation: isolate"/>
            <path id="Path_50534" data-name="Path 50534" d="M386.345,308.87l-24.627,111.7a8.368,8.368,0,0,1-8,6.348H219.2c-3.582,0-5.885-3.339-5.054-7.017l24.6-110.853c.831-3.645,4.382-5.463,8-5.463H381.26C384.875,303.589,387.145,305.225,386.345,308.87Z" transform="translate(-133.255 -303.589)" fill="#263238"/>
            <path id="Path_50535" data-name="Path 50535" d="M385.019,308.87l-24.627,111.7a8.368,8.368,0,0,1-8,6.348H222.444c-3.614,0-5.885-3.339-5.086-7.017l24.629-110.853c.8-3.645,4.382-5.463,8-5.463H379.934C383.548,303.589,385.819,305.225,385.019,308.87Z" transform="translate(-131.928 -303.589)" fill="#fff" opacity="0.4" style="isolation: isolate"/>
            <path id="Path_50536" data-name="Path 50536" d="M297.312,352.595v.031c0,9.564-10.255,17.337-17.771,17.337s-11.971-7.772-9.828-17.337c2.144-9.371,9.622-17.016,16.978-17.3-2.142,9.563,2.449,17.3,9.933,17.3A4.034,4.034,0,0,0,297.312,352.595Z" transform="translate(-110.549 -290.536)" opacity="0.2" style="isolation: isolate"/>
          </g>
        </g>
      </g>
    </g>
  </g>
</svg>
