<svg xmlns="http://www.w3.org/2000/svg" width="64.718" height="57.641" viewBox="0 0 64.718 57.641">
  <g id="Group_1397" data-name="Group 1397" transform="translate(0 0)">
    <path id="Path_13763" data-name="Path 13763" d="M99.887,267.352c0-4.288-5.369-8.352-13.6-10.868,1.89-8.39,1.055-15.065-2.663-17.2a5.8,5.8,0,0,0-2.945-.736v-.012c-3.627,0-8.375,2.587-13.179,7.069-4.8-4.461-9.548-7.017-13.179-7.017v.012a5.9,5.9,0,0,0-2.98.739c-3.707,2.129-4.539,8.8-2.626,17.16-8.2,2.533-13.547,6.587-13.547,10.868s5.373,8.353,13.6,10.866c-1.891,8.393-1.057,15.066,2.662,17.2a5.762,5.762,0,0,0,2.969.74c3.628,0,8.379-2.587,13.18-7.069,4.8,4.458,9.552,7.017,13.18,7.017a5.892,5.892,0,0,0,2.979-.74c3.7-2.126,4.542-8.8,2.623-17.162,8.172-2.524,13.52-6.588,13.52-10.866M80.665,241.473v.011a3.1,3.1,0,0,1,1.507.343c1.792,1.03,2.571,4.948,1.968,9.987-.147,1.235-.385,2.546-.677,3.876a64.484,64.484,0,0,0-8.375-1.438,64.91,64.91,0,0,0-5.489-6.6c4.3-3.988,8.323-6.177,11.067-6.183m-4,31.129c-1.027,1.781-2.083,3.468-3.178,5.038-1.964.173-3.959.264-5.965.264s-3.984-.091-5.934-.249q-1.654-2.363-3.19-5.014-1.51-2.6-2.751-5.252c.821-1.766,1.741-3.542,2.734-5.261,1.03-1.783,2.085-3.471,3.179-5.038,1.964-.173,3.958-.264,5.962-.264s3.986.091,5.937.249q1.654,2.365,3.192,5.012,1.5,2.6,2.743,5.253c-.835,1.77-1.743,3.536-2.736,5.267Zm-20.84,1.505c.622,1.053,1.257,2.088,1.9,3.089h-.007c-1.871-.275-3.681-.619-5.406-1.044.486-1.7,1.095-3.454,1.779-5.211.537,1.056,1.107,2.114,1.729,3.167m-3.542-15.552c1.722-.418,3.539-.765,5.422-1.038-.643,1.012-1.291,2.055-1.883,3.12s-1.185,2.115-1.719,3.168c-.7-1.767-1.317-3.542-1.82-5.25M79.2,274.067c.6-1.07,1.182-2.116,1.724-3.169.7,1.759,1.314,3.536,1.814,5.241-1.725.422-3.538.777-5.433,1.056.65-1.018,1.3-2.057,1.9-3.128m0-13.467c-.624-1.056-1.255-2.083-1.886-3.089,1.853.28,3.674.628,5.391,1.045l.007,0c-.49,1.7-1.1,3.457-1.787,5.211-.536-1.056-1.1-2.109-1.725-3.163m-8.056-6.633c-1.182-.054-2.4-.093-3.63-.093s-2.467.025-3.667.093a51.267,51.267,0,0,1,3.633-4.22,54.371,54.371,0,0,1,3.664,4.22M52.809,241.874a2.886,2.886,0,0,1,1.513-.342v-.007c2.732,0,6.779,2.173,11.082,6.142a62.1,62.1,0,0,0-5.447,6.583,61.913,61.913,0,0,0-8.393,1.45c-.3-1.318-.526-2.6-.683-3.826-.618-5.04.141-8.959,1.927-10m-3.321,33.5a36.622,36.622,0,0,1-3.7-1.343c-4.667-1.99-7.691-4.6-7.691-6.672s3.024-4.7,7.691-6.679c1.133-.488,2.375-.924,3.652-1.332a62.8,62.8,0,0,0,2.973,8.032,61.88,61.88,0,0,0-2.929,7.994m4.88,17.866a3.1,3.1,0,0,1-1.489-.36c-1.794-1.027-2.575-4.943-1.964-9.983.144-1.241.383-2.545.67-3.878a63.887,63.887,0,0,0,8.379,1.438,64.1,64.1,0,0,0,5.487,6.6c-4.3,4-8.338,6.188-11.083,6.188m13.183-8.271,0,0a53.983,53.983,0,0,1-3.668-4.219c1.178.049,2.4.089,3.623.089s2.468-.027,3.671-.089a53.794,53.794,0,0,1-3.622,4.223m14.7,7.861a2.946,2.946,0,0,1-1.518.341c-2.729,0-6.778-2.173-11.079-6.138a62.867,62.867,0,0,0,5.445-6.585A62.013,62.013,0,0,0,83.486,279a36.936,36.936,0,0,1,.684,3.836c.621,5.038-.14,8.956-1.923,10m7.01-18.8H89.25c-1.136.49-2.37.924-3.655,1.334a61.992,61.992,0,0,0-2.973-8.032,61.854,61.854,0,0,0,2.932-7.993c1.307.407,2.548.858,3.707,1.346,4.672,1.99,7.692,4.6,7.692,6.676s-3.031,4.693-7.7,6.669" transform="translate(-35.169 -238.533)" fill="#35aeed"/>
    <path id="Path_13764" data-name="Path 13764" d="M60.355,255.131a6.028,6.028,0,1,0,6.026,6.029,6.028,6.028,0,0,0-6.026-6.029" transform="translate(-28.016 -232.336)" fill="#35aeed"/>
  </g>
</svg>
