<svg xmlns="http://www.w3.org/2000/svg" xmlns:xlink="http://www.w3.org/1999/xlink" width="206.562" height="205.8" viewBox="0 0 206.562 205.8">
  <defs>
    <linearGradient id="linear-gradient" x1="0.5" y1="-0.21" x2="0.5" y2="1" gradientUnits="objectBoundingBox">
      <stop offset="0" stop-color="#1783f2"/>
      <stop offset="1" stop-color="#19b0f5"/>
    </linearGradient>
  </defs>
  <g id="Group_69829" data-name="Group 69829" transform="translate(570.714 -212.562)">
    <path id="Path_50539" data-name="Path 50539" d="M-440.927,397.378l-24.174,6.694c16.84-14.148,24.177-31.53,20.551-53.342-5.432,20.405-17.268,34.739-38.007,40.475-12.32,3.407-27.179,1.107-37.3-5.345l6.182-2.143c-6.4-6.234-10.09-13.2-9.429-21.956.609-8.057,8.14-13.847,15.227-11.909,3.737,1.022,4.412,3.053,3.2,6.438a11.005,11.005,0,0,0,11.509,14.66,5.229,5.229,0,0,0,3.316-2.271c1.737-2.634,3.114-5.5,4.919-8.8.15,2.686.276,4.929.4,7.173l1.094.706a90.421,90.421,0,0,0,5.783-7.545c3.179-5.135,5.658-5.563,10.178-1.295a7.884,7.884,0,0,0,3.079,2.209c-.792-3.381-1.387-6.822-2.408-10.133a62.029,62.029,0,0,0-69.421-43.143c-2.469.408-4.732,2.609-6.873,4.26-1.289.994-2.155,2.535-3.881,4.651-.18-3.573-.3-5.995-.467-9.253l-4.144,4.765c.447-5.256-3.52-6.789-6.778-9.115-1.572-1.122-2.342-3.338-3.552-5a21.34,21.34,0,0,0-3.424-4.252c-3.522-2.844-6.4-5.666-5.013-10.881,1.443-5.417,4.4-9.724,9.892-10.553,11.345-1.712,20.278-7,27.915-15.405,8.213-9.043,19.1-13,30.988-14.638a96.611,96.611,0,0,1,52.129,6.7,19.8,19.8,0,0,0,2.71.794c.109.029.264-.119.821-.392-2.309-8.435,1.562-13.919,8.66-18.531,3-1.946,4.51-6.172,6.932-9.7,11.444,2.886,22.424,16.585,23.347,30.252a36.136,36.136,0,0,1-8.269,26.338c-6.229,7.553-14.5,11.582-24.808,13,18.543,8.964,40.188-5.5,47.675-30.91,29.754,30.718,39.4,85.447,12.12,120.6q-.717-10.7-1.433-21.412l-1.459-.267c-4.512,21.99-15.119,40.079-32.926,53.32l11.729-29.854-1.645-.851c-9.609,15.994-22.626,28.253-39.794,35.461-7.385,3.1-15.328,4.875-23.375,6.424C-458.6,416.057-448.631,408.5-440.927,397.378Z" transform="translate(0 -5.049)" fill="url(#linear-gradient)"/>
    <path id="Path_50540" data-name="Path 50540" d="M-287.916,238c.359-2.833.01-6.02,1.215-8.429,3.04-6.078,2.484-11.334-2.078-16.288,4.367-1.418,7.378-.761,10.783,2.269,4.172,3.714,4.151,5.921-.5,9.436-4.465,3.376-7.9,7.272-8.075,13.293Z" transform="translate(-162.857)" fill="url(#linear-gradient)"/>
  </g>
</svg>
