<svg id="Layer_1" data-name="Layer 1" xmlns="http://www.w3.org/2000/svg" viewBox="0 0 74.78 57.12"><defs><style>.cls-1{fill:#fff;}</style></defs><path class="cls-1" d="M18.78,17.86c-.28-1.57-.59-3.08-.79-4.61A19.17,19.17,0,0,1,18.4,5a9.24,9.24,0,0,1,1.25-2.61C21.08.36,23.19-.09,25.53.24A15.49,15.49,0,0,1,32.22,3c1.61,1.11,3.1,2.4,4.65,3.61.17.14.33.3.51.47C38.2,6.4,39,5.7,39.78,5A23.19,23.19,0,0,1,47.33.61,9.13,9.13,0,0,1,51,.1a5.6,5.6,0,0,1,4.8,3.56A14,14,0,0,1,56.94,9a31.25,31.25,0,0,1-.86,8.29c0,.18-.07.36-.12.6l1.54.49a24.85,24.85,0,0,1,8.62,4.49,13.16,13.16,0,0,1,2.42,2.79,5.23,5.23,0,0,1,.08,5.65,11.67,11.67,0,0,1-3.54,3.76,29.13,29.13,0,0,1-8.32,4l-.65.21c.19,1,.39,1.87.54,2.8a22.28,22.28,0,0,1-.18,9.65A11.14,11.14,0,0,1,55.55,54a5.72,5.72,0,0,1-6,3,14.48,14.48,0,0,1-6.39-2.5c-1.94-1.32-3.78-2.81-5.67-4.23l0-.19-.61.56a28,28,0,0,1-7.72,5.25A11,11,0,0,1,23.49,57a5.4,5.4,0,0,1-4.07-2.55A11.46,11.46,0,0,1,17.82,49a28.25,28.25,0,0,1,.86-9c.12-.54,0-.67-.5-.81A27.78,27.78,0,0,1,9.47,35a12.34,12.34,0,0,1-3-3.16A5.73,5.73,0,0,1,6.55,25,13.93,13.93,0,0,1,11,21.12a31.47,31.47,0,0,1,7.19-3.07ZM37.43,38.92c1.74-.06,3.51-.11,5.28-.21a1.11,1.11,0,0,0,.77-.43c1.81-3.09,3.58-6.2,5.38-9.3a.82.82,0,0,0,0-.9q-2.67-4.56-5.3-9.15a1,1,0,0,0-.92-.53,75.43,75.43,0,0,0-10.63,0,1.1,1.1,0,0,0-.72.42A77.16,77.16,0,0,0,26,28a1.13,1.13,0,0,0,0,1.11,77.21,77.21,0,0,0,5.39,9.23,1,1,0,0,0,.74.39C33.85,38.81,35.62,38.86,37.43,38.92ZM19.48,36.76a1.13,1.13,0,0,0,.11-.16c1-2.58,2-5.15,3-7.73a1.09,1.09,0,0,0,0-.69c-.92-2.42-1.87-4.83-2.78-7.25-.15-.38-.3-.46-.67-.32-1.44.54-2.91,1-4.32,1.62A15,15,0,0,0,9.18,26c-1.43,1.68-1.45,3.09-.1,4.83a2,2,0,0,0,.29.35,40.15,40.15,0,0,0,3.35,2.65A24.86,24.86,0,0,0,19.48,36.76Zm1.95,3.36a28,28,0,0,0-.94,8.33,10,10,0,0,0,1,4.14,3,3,0,0,0,2.89,1.7A8.44,8.44,0,0,0,26.24,54a19.26,19.26,0,0,0,7-3.85c.8-.64,1.55-1.34,2.3-2a.65.65,0,0,0-.09-.19c-1.72-2.13-3.44-4.27-5.18-6.39a1.19,1.19,0,0,0-.67-.33c-1-.13-2-.19-3-.33C24.9,40.7,23.21,40.41,21.43,40.12ZM53.51,40l-.59.1c-2.54.39-5.08.79-7.63,1.16a1.12,1.12,0,0,0-.83.48c-1.58,2-3.18,4-4.77,6.07-.09.11-.17.23-.27.37a26.08,26.08,0,0,0,7.45,5.29,12.75,12.75,0,0,0,2.72.82,3.1,3.1,0,0,0,3.77-1.94,8.24,8.24,0,0,0,.51-1.39,18.24,18.24,0,0,0,.28-7.21C54,42.47,53.73,41.24,53.51,40ZM35.47,9c-.73-.64-1.43-1.29-2.18-1.88A20.25,20.25,0,0,0,26.06,3.1c-2.89-.79-4.48.16-5.19,3.08a19.71,19.71,0,0,0,0,7.84c.16,1,.4,2.07.6,3.09.18,0,.26,0,.33,0,2.66-.41,5.31-.82,8-1.25a1,1,0,0,0,.54-.34c.6-.77,1.15-1.57,1.76-2.33C33.14,11.81,34.28,10.46,35.47,9ZM39.29,9a2.82,2.82,0,0,0,.21.32c1.67,2.1,3.35,4.2,5,6.28a1,1,0,0,0,.61.32c1.58.23,3.17.42,4.75.66,1.12.18,2.24.42,3.37.63a2,2,0,0,0,.12-.29,30,30,0,0,0,.85-7.31A12.14,12.14,0,0,0,53.42,5,3.17,3.17,0,0,0,49.5,2.86a14.06,14.06,0,0,0-5.82,2.66C42.17,6.6,40.75,7.81,39.29,9ZM55.36,36.59a27.85,27.85,0,0,0,7.47-3.27,10.68,10.68,0,0,0,3.2-3A2.84,2.84,0,0,0,66,26.64a12.17,12.17,0,0,0-2.22-2.2,25.38,25.38,0,0,0-8.08-3.8l-.42-.09a1.46,1.46,0,0,0-.11.18c-1,2.49-1.94,5-2.89,7.46a1.11,1.11,0,0,0,0,.74c1,2.43,1.94,4.85,2.91,7.27ZM46.74,38.4l6-1c-.75-1.95-1.45-3.77-2.18-5.69ZM24.2,31.77l-2.09,5.72,5.95.95Zm9.37,9.79c1.35,1.61,2.59,3.09,3.91,4.68l3.81-4.68ZM52.65,19.79l-5.91-1,3.83,6.6ZM37.4,11l-3.83,4.61h7.65ZM24.2,25.35l3.8-6.6-5.85,1Z"/><path class="cls-1" d="M37.35,22.8a5.7,5.7,0,1,1-5.68,5.74A5.68,5.68,0,0,1,37.35,22.8Z"/></svg>