<svg xmlns="http://www.w3.org/2000/svg" xmlns:xlink="http://www.w3.org/1999/xlink" width="150" height="150" viewBox="0 0 150 150">
  <defs>
    <linearGradient id="linear-gradient" x1="0.5" x2="0.5" y2="1" gradientUnits="objectBoundingBox">
      <stop offset="0" stop-color="#98e4ff"/>
      <stop offset="1" stop-color="#f1f8fd"/>
    </linearGradient>
  </defs>
  <g id="Group_58175" data-name="Group 58175" transform="translate(-325 -1899)">
    <circle id="Ellipse_727" data-name="Ellipse 727" cx="75" cy="75" r="75" transform="translate(325 1899)" fill="url(#linear-gradient)"/>
    <g id="Group_58308" data-name="Group 58308" transform="translate(364.079 1942.006)">
      <path id="Path_13763" data-name="Path 13763" d="M107.012,270.525c0-4.76-5.96-9.271-15.1-12.064,2.1-9.314,1.171-16.723-2.956-19.1a6.433,6.433,0,0,0-3.269-.817v-.014c-4.026,0-9.3,2.872-14.63,7.847-5.333-4.952-10.6-7.789-14.63-7.789v.014a6.55,6.55,0,0,0-3.308.82c-4.115,2.363-5.039,9.77-2.915,19.05-9.1,2.811-15.039,7.312-15.039,12.064s5.964,9.273,15.1,12.063c-2.1,9.317-1.174,16.725,2.955,19.1a6.4,6.4,0,0,0,3.3.822c4.028,0,9.3-2.872,14.631-7.847,5.333,4.949,10.6,7.789,14.631,7.789a6.541,6.541,0,0,0,3.307-.822c4.11-2.36,5.042-9.768,2.912-19.051,9.071-2.8,15.008-7.313,15.008-12.063M85.674,241.8v.012a3.441,3.441,0,0,1,1.672.381c1.99,1.143,2.854,5.493,2.185,11.087-.163,1.371-.427,2.827-.752,4.3a71.588,71.588,0,0,0-9.3-1.6,72.056,72.056,0,0,0-6.094-7.323c4.77-4.427,9.239-6.858,12.285-6.864m-4.435,34.556c-1.14,1.977-2.313,3.85-3.528,5.592-2.18.192-4.4.293-6.621.293s-4.423-.1-6.588-.276q-1.836-2.623-3.542-5.566-1.676-2.884-3.054-5.83c.912-1.961,1.933-3.932,3.035-5.841,1.143-1.979,2.314-3.853,3.529-5.592,2.18-.192,4.394-.293,6.618-.293s4.424.1,6.591.276q1.836,2.625,3.543,5.563,1.669,2.886,3.045,5.832c-.927,1.965-1.935,3.926-3.037,5.847ZM58.1,278.024c.691,1.169,1.4,2.317,2.115,3.429l-.008,0c-2.076-.3-4.086-.688-6-1.159.54-1.886,1.215-3.834,1.974-5.784.6,1.172,1.229,2.346,1.919,3.516M54.173,260.76c1.912-.464,3.929-.849,6.019-1.153-.714,1.124-1.433,2.281-2.09,3.464s-1.316,2.348-1.909,3.517c-.782-1.962-1.462-3.932-2.02-5.828M84.05,277.979c.662-1.188,1.313-2.35,1.913-3.517.781,1.953,1.459,3.926,2.014,5.818-1.915.468-3.927.863-6.031,1.172.721-1.13,1.439-2.284,2.1-3.473m0-14.95c-.692-1.172-1.393-2.313-2.093-3.429,2.057.311,4.078.7,5.984,1.16l.008,0c-.544,1.886-1.22,3.837-1.984,5.784-.595-1.172-1.226-2.342-1.915-3.511m-8.943-7.364c-1.313-.06-2.668-.1-4.029-.1s-2.738.027-4.071.1a56.912,56.912,0,0,1,4.033-4.685,60.352,60.352,0,0,1,4.068,4.685M54.751,242.242a3.2,3.2,0,0,1,1.68-.38v-.008c3.032,0,7.525,2.412,12.3,6.818a68.936,68.936,0,0,0-6.047,7.307,68.731,68.731,0,0,0-9.317,1.61c-.331-1.464-.584-2.883-.758-4.247-.686-5.6.157-9.945,2.139-11.1m-3.686,37.186a40.658,40.658,0,0,1-4.1-1.491c-5.181-2.209-8.538-5.109-8.538-7.406s3.357-5.216,8.538-7.414c1.258-.541,2.636-1.026,4.054-1.479a69.707,69.707,0,0,0,3.3,8.916,68.692,68.692,0,0,0-3.252,8.875m5.417,19.833a3.437,3.437,0,0,1-1.653-.4c-1.991-1.141-2.859-5.487-2.18-11.082.16-1.378.425-2.825.744-4.305a70.92,70.92,0,0,0,9.3,1.6,71.162,71.162,0,0,0,6.091,7.321c-4.775,4.438-9.256,6.87-12.3,6.87m14.634-9.181,0,0a59.924,59.924,0,0,1-4.072-4.683c1.308.055,2.663.1,4.022.1s2.74-.03,4.075-.1a59.715,59.715,0,0,1-4.02,4.688m16.315,8.727a3.27,3.27,0,0,1-1.685.378c-3.029,0-7.524-2.412-12.3-6.813a69.787,69.787,0,0,0,6.045-7.31,68.837,68.837,0,0,0,9.314-1.611,41,41,0,0,1,.759,4.258c.689,5.592-.156,9.942-2.134,11.1m7.781-20.87H95.2c-1.261.544-2.631,1.026-4.057,1.48a68.815,68.815,0,0,0-3.3-8.916,68.665,68.665,0,0,0,3.255-8.873c1.451.451,2.828.953,4.115,1.494,5.187,2.209,8.539,5.112,8.539,7.411s-3.365,5.21-8.544,7.4" transform="translate(-35.169 -238.533)" fill="#40bdff"/>
      <path id="Path_13764" data-name="Path 13764" d="M61.018,255.131a6.692,6.692,0,1,0,6.69,6.693,6.692,6.692,0,0,0-6.69-6.693" transform="translate(-25.119 -229.826)" fill="#40bdff"/>
    </g>
  </g>
</svg>
