<svg xmlns="http://www.w3.org/2000/svg" width="54.733" height="48.748" viewBox="0 0 54.733 48.748">
  <g id="Group_1397" data-name="Group 1397" transform="translate(0 0)">
    <path id="Path_13763" data-name="Path 13763" d="M89.9,262.906c0-3.626-4.54-7.063-11.5-9.191,1.6-7.1.892-12.74-2.252-14.549a4.9,4.9,0,0,0-2.49-.623v-.01c-3.067,0-7.083,2.188-11.146,5.978-4.063-3.773-8.075-5.934-11.146-5.934v.01a4.99,4.99,0,0,0-2.52.625c-3.135,1.8-3.839,7.443-2.221,14.513-6.936,2.142-11.457,5.571-11.457,9.191s4.544,7.064,11.506,9.19c-1.6,7.1-.894,12.742,2.251,14.548a4.873,4.873,0,0,0,2.511.626c3.069,0,7.086-2.188,11.147-5.978,4.063,3.77,8.078,5.934,11.147,5.934a4.983,4.983,0,0,0,2.519-.626c3.131-1.8,3.841-7.442,2.218-14.514,6.911-2.135,11.434-5.572,11.434-9.19M73.646,241.02v.009a2.622,2.622,0,0,1,1.274.29c1.516.871,2.174,4.185,1.664,8.446-.124,1.044-.325,2.153-.573,3.278a54.534,54.534,0,0,0-7.083-1.216,54.9,54.9,0,0,0-4.642-5.579c3.634-3.373,7.039-5.224,9.359-5.229m-3.379,26.326c-.869,1.507-1.762,2.933-2.688,4.26-1.661.146-3.349.223-5.044.223s-3.369-.077-5.019-.21q-1.4-2-2.7-4.241-1.277-2.2-2.326-4.442c.695-1.494,1.473-3,2.313-4.45.871-1.508,1.763-2.935,2.689-4.26,1.661-.146,3.347-.223,5.042-.223s3.371.077,5.021.21q1.4,2,2.7,4.238,1.272,2.2,2.319,4.443c-.706,1.5-1.474,2.991-2.314,4.454Zm-17.624,1.273c.526.891,1.063,1.765,1.611,2.612h-.006c-1.582-.232-3.113-.524-4.572-.883.411-1.437.926-2.921,1.5-4.407.454.893.936,1.788,1.462,2.678m-3-13.153c1.457-.353,2.993-.647,4.586-.878-.544.856-1.092,1.738-1.592,2.639s-1,1.789-1.454,2.68c-.6-1.495-1.114-3-1.539-4.44m22.762,13.118c.5-.9,1-1.79,1.458-2.68.595,1.488,1.112,2.991,1.534,4.432-1.459.357-2.992.657-4.595.893.549-.861,1.1-1.74,1.6-2.646m0-11.39c-.527-.893-1.062-1.762-1.595-2.612,1.567.237,3.107.531,4.559.884l.006,0c-.415,1.437-.929,2.923-1.511,4.407-.453-.893-.934-1.784-1.459-2.675m-6.813-5.61c-1-.045-2.033-.079-3.07-.079s-2.086.021-3.1.079a43.358,43.358,0,0,1,3.072-3.569,45.983,45.983,0,0,1,3.1,3.569M50.087,241.359a2.441,2.441,0,0,1,1.28-.289v-.006c2.31,0,5.733,1.837,9.372,5.194a52.515,52.515,0,0,0-4.606,5.567,52.359,52.359,0,0,0-7.1,1.227c-.252-1.115-.445-2.2-.577-3.236-.523-4.263.12-7.576,1.63-8.457m-2.808,28.33a30.972,30.972,0,0,1-3.126-1.136c-3.947-1.683-6.5-3.892-6.5-5.642s2.558-3.973,6.5-5.648c.958-.412,2.008-.782,3.088-1.127a53.106,53.106,0,0,0,2.515,6.792,52.333,52.333,0,0,0-2.477,6.761m4.127,15.11a2.619,2.619,0,0,1-1.259-.3c-1.517-.869-2.178-4.18-1.661-8.443.122-1.05.324-2.152.567-3.28a54.032,54.032,0,0,0,7.086,1.216,54.21,54.21,0,0,0,4.64,5.577c-3.638,3.381-7.051,5.234-9.373,5.234M62.555,277.8l0,0a45.651,45.651,0,0,1-3.1-3.568c1,.042,2.029.075,3.064.075s2.087-.023,3.1-.075a45.5,45.5,0,0,1-3.063,3.571m12.429,6.648a2.491,2.491,0,0,1-1.283.288c-2.308,0-5.732-1.837-9.37-5.191a53.168,53.168,0,0,0,4.605-5.569,52.444,52.444,0,0,0,7.1-1.228A31.239,31.239,0,0,1,76.61,276c.525,4.26-.118,7.574-1.626,8.456m5.928-15.9h-.006c-.961.415-2,.782-3.091,1.128a52.426,52.426,0,0,0-2.515-6.792,52.311,52.311,0,0,0,2.48-6.76c1.106.344,2.155.726,3.135,1.138,3.951,1.683,6.505,3.894,6.505,5.646s-2.563,3.969-6.509,5.64" transform="translate(-35.169 -238.533)" fill="#35aeed"/>
    <path id="Path_13764" data-name="Path 13764" d="M59.425,255.131a5.1,5.1,0,1,0,5.1,5.1,5.1,5.1,0,0,0-5.1-5.1" transform="translate(-32.075 -235.853)" fill="#35aeed"/>
  </g>
</svg>
