<svg xmlns="http://www.w3.org/2000/svg" width="29.451" height="26.727"  fill="#5bccf2" xmlns:v="https://vecta.io/nano"><path d="M29.451 13.366c0-1.988-2.443-3.872-6.189-5.041.864-3.891.48-6.986-1.213-7.977-.409-.234-.874-.353-1.345-.343V1.37a1.37 1.37 0 0 1 .684.159c.816.477 1.171 2.294.894 4.631-.066.575-.174 1.181-.306 1.8a28.6 28.6 0 0 0-3.812-.667 29.72 29.72 0 0 0-2.5-3.059c1.957-1.854 3.794-2.869 5.043-2.869V0h0c-1.651 0-3.812 1.2-6 3.279-2.185-2.068-4.346-3.254-6-3.254v1.364c1.243 0 3.086 1.009 5.043 2.851-.895.96-1.723 1.979-2.479 3.052-1.287.134-2.563.359-3.818.673l-.312-1.774c-.282-2.337.066-4.154.876-4.637.211-.115.45-.17.69-.159V.031h0C8.232.021 7.763.14 7.35.374c-1.687.991-2.065 4.08-1.195 7.958C2.421 9.507-.01 11.384-.01 13.366s2.443 3.872 6.189 5.041c-.864 3.891-.48 6.986 1.213 7.977a2.6 2.6 0 0 0 1.351.343c1.651 0 3.812-1.2 6-3.279 2.185 2.068 4.346 3.254 6 3.254.475.01.944-.109 1.357-.343 1.687-.991 2.065-4.08 1.195-7.959 3.725-1.168 6.156-3.052 6.156-5.034zm-7.816-4.08l-.81 2.416-.786-1.468-.864-1.431 2.46.483zM18.886 15.8l-1.447 2.337-2.713.122a32.89 32.89 0 0 1-2.7-.116q-.747-1.092-1.453-2.325l-1.249-2.435 1.243-2.441 1.447-2.337 2.713-.122 2.7.116q.747 1.092 1.453 2.325.684 1.2 1.249 2.435L18.886 15.8zm1.939-.8l.828 2.435c-.786.2-1.615.361-2.473.489l.864-1.45.781-1.468zm-6.087 6.527c-.589-.624-1.147-1.277-1.669-1.958l1.651.043 1.669-.043a23.77 23.77 0 0 1-1.651 1.964zm-4.466-3.6l-2.461-.483.81-2.416.786 1.468.864 1.434zm4.436-12.73c.589.624 1.147 1.277 1.669 1.958l-1.651-.043-1.669.043a23.76 23.76 0 0 1 1.65-1.955zm-4.442 3.6l-.864 1.45-.78 1.468-.828-2.435 2.471-.48zm-5.433 7.659c-2.125-.924-3.5-2.135-3.5-3.1s1.375-2.178 3.5-3.1c.516-.226 1.081-.428 1.663-.618a29.74 29.74 0 0 0 1.351 3.725 29.32 29.32 0 0 0-1.333 3.707 13.59 13.59 0 0 1-1.681-.609zm3.23 8.742c-.816-.477-1.171-2.294-.894-4.631.066-.575.174-1.181.306-1.8a28.6 28.6 0 0 0 3.812.667c.765 1.074 1.6 2.096 2.5 3.059-1.957 1.854-3.794 2.869-5.043 2.869a1.41 1.41 0 0 1-.682-.162zM22.3 20.542c.282 2.337-.066 4.154-.876 4.637-.211.115-.45.17-.69.159-1.243 0-3.086-1.009-5.043-2.851a28.78 28.78 0 0 0 2.479-3.052c1.287-.134 2.563-.359 3.818-.673.135.588.239 1.182.312 1.78zm2.311-4.08c-.516.226-1.081.428-1.663.618-.367-1.27-.818-2.515-1.351-3.725a29.32 29.32 0 0 0 1.333-3.707l1.687.624c2.125.924 3.5 2.135 3.5 3.1s-1.379 2.172-3.505 3.089z"/><ellipse cx="14.719" cy="13.367" rx="2.743" ry="2.796"/></svg>