<svg xmlns="http://www.w3.org/2000/svg" width="58.292" height="55.34" viewBox="0 0 58.292 55.34">
  <path id="redux" d="M40.39,38.649a4.167,4.167,0,0,0-.445-8.308H39.8a4.15,4.15,0,0,0-4.006,4.3,4.26,4.26,0,0,0,1.187,2.745c-2.522,4.97-6.379,8.605-12.165,11.647a20.06,20.06,0,0,1-12.091,2.3,10.312,10.312,0,0,1-7.567-4.377,10.9,10.9,0,0,1-.593-11.5,17.461,17.461,0,0,1,5.044-5.935c-.3-.964-.742-2.6-.964-3.783C-2.114,33.53-1,44.064,2.262,49.034c2.448,3.709,7.418,6.009,12.907,6.009a18.246,18.246,0,0,0,4.451-.519A28.467,28.467,0,0,0,40.39,38.649Zm13.056-9.2c-5.638-6.6-13.946-10.237-23.441-10.237H28.818a4.076,4.076,0,0,0-3.635-2.226h-.148a4.156,4.156,0,0,0,.148,8.308h.148a4.179,4.179,0,0,0,3.635-2.522H30.3A28.272,28.272,0,0,1,46.1,27.6a19.872,19.872,0,0,1,7.863,9.5,10.283,10.283,0,0,1-.148,8.754,10.89,10.89,0,0,1-10.162,6.083,18.973,18.973,0,0,1-7.27-1.558c-.816.742-2.3,1.929-3.338,2.671a22.9,22.9,0,0,0,9.569,2.3c7.121,0,12.388-3.932,14.391-7.863,2.151-4.3,2-11.721-3.561-18.026ZM15.763,39.91a4.167,4.167,0,0,0,4.154,4.006h.148a4.155,4.155,0,0,0-.148-8.308h-.148a1.264,1.264,0,0,0-.519.074,27.18,27.18,0,0,1-3.857-16.468,19.9,19.9,0,0,1,4.376-11.5c2.151-2.745,6.305-4.08,9.124-4.154,7.863-.148,11.2,9.643,11.423,13.575.964.222,2.6.742,3.709,1.113C43.135,6.231,35.717,0,28.6,0,21.92,0,15.763,4.822,13.315,11.943c-3.412,9.5-1.187,18.62,2.967,25.815a3.333,3.333,0,0,0-.519,2.151Z" fill="#fff"/>
</svg>
