<?xml version="1.0" standalone="no"?>
<!DOCTYPE svg PUBLIC "-//W3C//DTD SVG 20010904//EN"
 "http://www.w3.org/TR/2001/REC-SVG-20010904/DTD/svg10.dtd">
<svg version="1.0" xmlns="http://www.w3.org/2000/svg"
 width="860.000000pt" height="609.000000pt" viewBox="0 0 860.000000 609.000000"
 preserveAspectRatio="xMidYMid meet">
<metadata>
Created by potrace 1.16, written by Peter Selinger 2001-2019
</metadata>
<g transform="translate(0.000000,609.000000) scale(0.100000,-0.100000)"
fill="#06B2FF" stroke="none">
<path d="M1665 5342 c-192 -185 -350 -340 -350 -344 0 -4 457 -444 1015 -979
558 -534 1016 -974 1018 -978 1 -4 -442 -433 -985 -953 -544 -520 -998 -957
-1011 -970 l-22 -24 355 -340 c196 -186 359 -339 363 -339 5 0 623 589 1376
1309 l1367 1309 -48 47 c-26 26 -412 396 -858 822 -445 426 -1046 1000 -1335
1276 -289 276 -527 502 -530 501 -3 0 -162 -152 -355 -337z"/>
<path d="M4166 5339 l-358 -342 34 -32 c18 -17 240 -230 493 -471 1196 -1144
1510 -1445 1513 -1453 1 -5 -453 -444 -1009 -977 l-1012 -968 70 -66 c39 -36
200 -189 358 -340 158 -151 290 -275 295 -275 4 0 257 239 561 530 305 292
920 881 1367 1309 l814 779 -59 57 c-32 32 -274 264 -538 516 -264 253 -847
810 -1295 1238 -448 429 -829 792 -846 808 l-31 29 -357 -342z"/>
</g>
</svg>
