<svg id="Group_6456" data-name="Group 6456" xmlns="http://www.w3.org/2000/svg" width="22.84" height="22.707" viewBox="0 0 22.84 22.707">
  <path id="Path_2269" data-name="Path 2269" d="M120.071,7.648a11.24,11.24,0,0,0-8.158,3.313,10.824,10.824,0,0,0-3.369,7.952,11.019,11.019,0,0,0,3.369,8.125,11.236,11.236,0,0,0,8.158,3.313,10.932,10.932,0,0,0,7.989-3.319,10.833,10.833,0,0,0,3.321-7.9,11.193,11.193,0,0,0-3.316-8.113A10.871,10.871,0,0,0,120.071,7.648ZM115.9,14.8a5.7,5.7,0,0,1,4.168-1.688,5.29,5.29,0,0,1,3.994,1.73,5.922,5.922,0,0,1,1.672,4.288,5.545,5.545,0,0,1-1.688,4.036,5.241,5.241,0,0,1-3.891,1.724,5.827,5.827,0,0,1-5.973-5.976A5.477,5.477,0,0,1,115.9,14.8Z" transform="translate(-108.542 -7.646)" fill="#fff"/>
  <path id="Path_2270" data-name="Path 2270" d="M124.016,18.9a4.158,4.158,0,1,1-4.158-4.158A4.158,4.158,0,0,1,124.016,18.9Z" transform="translate(-108.441 -7.546)" fill="#fff"/>
</svg>
