<svg xmlns="http://www.w3.org/2000/svg" width="280" height="285"  xmlns:v="https://vecta.io/nano"><defs><clipPath id="A"><path transform="translate(1308 10076)" fill="#fff" d="M0 0h285v280H0z"/></clipPath><linearGradient id="B" x1=".5" x2=".5" y2="1"><stop offset="0" stop-color="#06b2ff"/><stop offset="1" stop-color="#00afff" stop-opacity="0"/></linearGradient></defs><g transform="matrix(0 1 -1 0 10356 -1308)" clip-path="url(#A)"><g opacity=".25" fill="url(#B)"><path d="M1590.904 9850.071a230.8 230.8 0 0 0-167.515 68.034c-44.715 42.474-69.773 101.617-69.18 163.287-1.095 62.801 23.964 123.231 69.18 166.828a230.72 230.72 0 0 0 167.515 68.035c61.726.801 121.057-23.853 164.038-68.163 44.06-42.397 68.726-101.061 68.2-162.205.891-62.482-23.697-122.633-68.1-166.6a223.22 223.22 0 0 0-164.138-69.216zm-85.59 146.857c22.569-22.801 53.515-35.33 85.59-34.653 31.167-.473 61.036 12.467 82.008 35.527a121.6 121.6 0 0 1 34.34 88.048 113.85 113.85 0 0 1-34.653 82.883c-20.43 22.57-49.462 35.432-79.905 35.4a119.66 119.66 0 0 1-122.662-122.698c-.762-31.898 12.062-62.618 35.277-84.507z"/><path d="M1673.995 10083.163c0 47.155-38.227 85.382-85.382 85.382s-85.382-38.227-85.382-85.382 38.227-85.382 85.382-85.382a85.38 85.38 0 0 1 85.382 85.382z"/></g><g fill="none" stroke="#06b2ff" opacity=".71"><circle cx="1585.5" cy="10081.5" r="265" stroke-width="3"/></g></g></svg>