<svg xmlns="http://www.w3.org/2000/svg" width="58.292" height="58.32" viewBox="0 0 58.292 58.32">
  <g id="Group_58750" data-name="Group 58750" transform="translate(-187.998 -23.383)">
    <g id="Group_58751" data-name="Group 58751" transform="translate(187.998 23.383)">
      <g id="Group_58748" data-name="Group 58748" transform="translate(0 0)">
        <g id="Group_58752" data-name="Group 58752">
          <g id="Group_58746" data-name="Group 58746">
            <g id="Group_58753" data-name="Group 58753">
              <path id="Path_33" data-name="Path 33" d="M123,51.521a29.152,29.152,0,0,1,58.165-2.826,28.451,28.451,0,0,1-8.353,23.393,28.217,28.217,0,0,1-21.817,8.595,29.086,29.086,0,0,1-28-29.162m32.559,16.722a1.44,1.44,0,0,0-.047-.249,42.243,42.243,0,0,1-2.5-8.841,26.146,26.146,0,0,1-.191-8.806,13.986,13.986,0,0,1,7.706-10.574,8.32,8.32,0,0,1,6.024-.875,7.469,7.469,0,0,1,3.026,1.645l.809-1.231c-1.122-.8-2.184-1.659-3.339-2.367a13.9,13.9,0,0,0-11.56-1.724,17.363,17.363,0,0,0-9.515,7.05,49.931,49.931,0,0,0-4.86,9.2,42.274,42.274,0,0,0-3.283,13.857c-.068.968-.01,1.946-.01,2.919Zm-18.381-5.218.591-3.422c-1.044-.072-2.058-.156-3.074-.2a.524.524,0,0,0-.394.323c-.137.948-.229,1.9-.342,2.906l3.219.39m.5-14.831-.983,2.754,3.083.985c.292-.8.576-1.546.832-2.306a.391.391,0,0,0-.16-.345c-.9-.369-1.806-.713-2.772-1.087M155,64.966l3.48.217c-.4-.821-.771-1.6-1.16-2.366a.413.413,0,0,0-.291-.2c-.863-.016-1.727-.009-2.68-.009L155,64.966m-10.86-21.978,1.78-2.1-2.3-1.51-1.833,2.037,2.351,1.575m8.521-7.6c-.493-.564-.918-1.07-1.372-1.55a.464.464,0,0,0-.421-.089c-.643.306-1.269.647-1.933.994l1.573,1.894,2.154-1.248m3.5,22.426c-.055-.716-.094-1.335-.156-1.953a.449.449,0,0,0-.19-.308c-.739-.4-1.488-.781-2.266-1.184-.056.692-.117,1.324-.149,1.957a.442.442,0,0,0,.161.356c.831.38,1.675.734,2.6,1.132m-.323-5.952c.164-.684.313-1.267.437-1.856a.475.475,0,0,0-.069-.388c-.564-.454-1.149-.882-1.759-1.342l-.844,1.7,2.234,1.89m.94-19.216c.1.485.183,1.018.317,1.54a.448.448,0,0,0,.343.251c.771-.016,1.541-.068,2.356-.11-.061-.479-.094-.928-.19-1.363a.5.5,0,0,0-.362-.3c-.789-.028-1.58-.014-2.464-.014m.323,10.066-1.346,1.241,1.885,2.085c.242-.425.467-.788.655-1.17a.475.475,0,0,0-.025-.394c-.36-.572-.745-1.128-1.169-1.761m3.61-.579c1.533-1.08,1.327-.8.937-1.948l-1.749.45.812,1.5m5.33-7.477a4.65,4.65,0,0,0-.028.732c.024.183.067.442.194.52.506.314,1.047.57,1.592.856l.362-.563-2.119-1.546m1.325,5.516-1.684-.384v.926l1.684.2Z" transform="translate(-122.998 -22.383)" fill="#fff"/>
            </g>
          </g>
        </g>
      </g>
    </g>
  </g>
</svg>
