<svg xmlns="http://www.w3.org/2000/svg" width="74.775" height="57.116" viewBox="0 0 74.775 57.116">
  <path id="sass-1" d="M64.254,33.038a15.17,15.17,0,0,0-6.777,1.608,14.35,14.35,0,0,1-1.519-3.572,10.064,10.064,0,0,1-.131-3.006,24.446,24.446,0,0,1,.891-3.245c-.015-.134-.161-.789-1.665-.8s-2.8.3-2.95.7A17.347,17.347,0,0,0,51.474,27c-.263,1.4-3.009,6.355-4.572,8.96a9.243,9.243,0,0,1-1.037-2.62,10.063,10.063,0,0,1-.131-3.006,24.458,24.458,0,0,1,.891-3.245c-.015-.134-.161-.789-1.665-.8s-2.8.3-2.95.7-.307,1.354-.628,2.277-3.958,9.2-4.908,11.356c-.482,1.1-.905,1.98-1.212,2.575s-.015.045-.044.1c-.263.506-.409.789-.409.789V44.1c-.2.372-.424.729-.526.729a5.055,5.055,0,0,1,.029-2.366c.54-2.873,1.855-7.353,1.84-7.516,0-.074.248-.863-.847-1.265a1.315,1.315,0,0,0-1.534.268c-.088,0-.161.238-.161.238s1.183-5.045-2.264-5.045c-2.162,0-5.141,2.4-6.616,4.584-.935.521-2.921,1.622-5.024,2.8-.8.447-1.636.923-2.425,1.354l-.161-.179c-4.177-4.54-11.9-7.754-11.582-13.857.117-2.218.876-8.067,14.84-15.152,11.436-5.8,20.594-4.212,22.186-.67,2.264,5.06-4.893,14.467-16.782,15.821-4.528.521-6.909-1.265-7.507-1.935-.628-.7-.716-.729-.949-.6-.38.208-.146.833,0,1.206a7.084,7.084,0,0,0,4.294,3.438c2.176.729,7.493,1.131,13.919-1.4,7.2-2.843,12.824-10.731,11.173-17.325-1.68-6.713-12.6-8.915-22.931-5.18-6.149,2.233-12.809,5.715-17.6,10.285C.485,17.753-.42,22.486-.04,24.45,1.289,31.46,10.768,36.03,14.565,39.408c-.19.1-.365.208-.526.3-1.9.952-9.129,4.807-10.94,8.885-2.045,4.614.321,7.933,1.9,8.38,4.878,1.384,9.873-1.1,12.576-5.194S19.94,42.37,18.7,39.944l-.044-.089,1.49-.893c.964-.58,1.913-1.116,2.746-1.578a18.839,18.839,0,0,0-.978,5.06c-.2,2.62.847,6.013,2.235,7.353a2.441,2.441,0,0,0,1.8.6c1.607,0,2.337-1.355,3.14-2.977.993-1.98,1.87-4.272,1.87-4.272s-1.1,6.206,1.9,6.206c1.1,0,2.191-1.444,2.687-2.188v.015s.029-.045.088-.149.12-.187.175-.283v-.03c.438-.774,1.417-2.545,2.877-5.477,1.884-3.78,3.7-8.513,3.7-8.513a27.608,27.608,0,0,0,.716,3.066,29.623,29.623,0,0,0,1.563,3.572c-.438.625-.7.982-.7.982l.015.015c-.35.476-.745.982-1.154,1.488a43.146,43.146,0,0,0-3.505,4.48,1.241,1.241,0,0,0,.321,1.637,2.877,2.877,0,0,0,1.84.3,8.073,8.073,0,0,0,2.746-.64,9.449,9.449,0,0,0,2.366-1.265,5.4,5.4,0,0,0,2.264-4.748,9.691,9.691,0,0,0-.862-3.349c.131-.193.263-.387.394-.6a63.161,63.161,0,0,0,4.09-7.219,27.6,27.6,0,0,0,.716,3.066,21.706,21.706,0,0,0,1.329,3.066,13.212,13.212,0,0,0-3.987,5.254c-.862,2.53-.19,3.676,1.081,3.944a3.826,3.826,0,0,0,2-.417,9.005,9.005,0,0,0,2.527-1.325c1.461-1.1,2.863-2.634,2.79-4.7a9.161,9.161,0,0,0-.628-2.783,13.985,13.985,0,0,1,7.244-.848c6.5.774,7.785,4.912,7.537,6.638a4.438,4.438,0,0,1-2.06,2.977c-.453.283-.6.387-.555.6.058.313.263.3.657.238a5.123,5.123,0,0,0,3.535-4.6c.175-4.094-3.637-8.559-10.4-8.514ZM14.127,50.258c-2.147,2.4-5.17,3.3-6.456,2.53-1.388-.819-.847-4.346,1.8-6.891a34.419,34.419,0,0,1,5.068-3.855c.307-.193.774-.476,1.329-.819a1.552,1.552,0,0,1,.146-.089c.1-.06.219-.134.336-.208a9.622,9.622,0,0,1-2.22,9.332Zm15.7-10.88c-.745,1.86-2.322,6.638-3.272,6.37-.818-.223-1.315-3.84-.161-7.412a16.641,16.641,0,0,1,2.556-4.778c1.183-1.34,2.468-1.786,2.79-1.235C32.121,33.038,30.3,38.218,29.828,39.379Zm12.955,6.311c-.321.164-.613.283-.745.194-.1-.06.131-.283.131-.283s1.621-1.771,2.264-2.59c.365-.476.8-1.027,1.271-1.652v.179c0,2.143-2.015,3.572-2.921,4.152Zm9.99-2.322c-.234-.179-.2-.729.584-2.456a9.188,9.188,0,0,1,2.22-2.917,3.745,3.745,0,0,1,.219,1.28A4.171,4.171,0,0,1,52.774,43.367Z" transform="translate(0.116 -0.241)" fill="#fff"/>
</svg>
