<svg xmlns="http://www.w3.org/2000/svg" width="34.19" height="26.116"  xmlns:v="https://vecta.io/nano"><path d="M29.433 14.997c-1.076.001-2.138.253-3.1.735a6.56 6.56 0 0 1-.694-1.633 4.6 4.6 0 0 1-.06-1.375c.101-.503.237-.999.407-1.484-.007-.061-.074-.361-.761-.367s-1.282.136-1.349.32a7.93 7.93 0 0 0-.287 1.041c-.569 1.428-1.268 2.801-2.09 4.1-.218-.373-.378-.778-.474-1.2a4.6 4.6 0 0 1-.061-1.374c.101-.503.237-.999.407-1.484-.007-.061-.073-.361-.761-.367s-1.282.136-1.349.32-.14.619-.287 1.041-1.81 4.206-2.244 5.192l-.554 1.177c-.14.272-.007.02-.02.048l-.187.361v.007c-.093.17-.194.333-.24.333a2.31 2.31 0 0 1 .013-1.082c.247-1.313.848-3.362.842-3.437 0-.034.113-.395-.387-.578a.6.6 0 0 0-.7.122c-.04 0-.073.109-.073.109s.541-2.307-1.035-2.307c-.988 0-2.351 1.1-3.025 2.1l-2.3 1.279-1.109.619-.073-.082c-1.91-2.076-5.443-3.546-5.3-6.336.053-1.014.4-3.688 6.785-6.928 5.233-2.658 9.42-1.93 10.149-.307 1.035 2.314-2.237 6.615-7.673 7.234-1.22.252-2.487-.075-3.433-.885-.287-.32-.327-.333-.434-.272-.174.1-.067.381 0 .551a3.24 3.24 0 0 0 1.963 1.572c2.135.473 4.366.248 6.364-.64 3.292-1.3 5.864-4.907 5.109-7.921C20.644.127 15.649-.88 10.927.828 7.96 1.846 5.224 3.443 2.88 5.528.275 8.008-.139 10.172.035 11.07c.608 3.205 4.942 5.29 6.681 6.839-.087.048-.167.1-.24.136-.868.435-4.174 2.2-5 4.063-.935 2.11.147 3.627.868 3.831 2.228.534 4.547-.426 5.745-2.379 1.029-1.617 1.22-3.629.514-5.41l-.02-.041.681-.408c.441-.265.875-.51 1.256-.721-.254.747-.405 1.526-.447 2.314-.089 1.21.275 2.41 1.021 3.366.226.197.522.295.821.272.735 0 1.069-.619 1.436-1.361.454-.905.855-1.953.855-1.953s-.5 2.838.868 2.838c.5 0 1-.66 1.229-1v.004s.013-.02.04-.068.055-.085.08-.129v-.014c.2-.354.648-1.164 1.316-2.5.861-1.729 1.69-3.893 1.69-3.893.082.472.191.94.327 1.4.202.559.441 1.105.715 1.633l-.321.449.007.007a19.39 19.39 0 0 1-.528.681 19.73 19.73 0 0 0-1.6 2.048c-.152.25-.088.575.147.749.257.137.553.185.841.136a3.69 3.69 0 0 0 1.256-.293 4.32 4.32 0 0 0 1.082-.578 2.47 2.47 0 0 0 1.035-2.171 4.43 4.43 0 0 0-.394-1.531l.18-.272a28.88 28.88 0 0 0 1.87-3.3 12.62 12.62 0 0 0 .327 1.4c.166.482.37.95.608 1.4a6.04 6.04 0 0 0-1.823 2.4c-.394 1.157-.087 1.681.494 1.8a1.75 1.75 0 0 0 .915-.191c.415-.139.805-.344 1.155-.606a2.67 2.67 0 0 0 1.276-2.15 4.19 4.19 0 0 0-.287-1.273c1.05-.42 2.193-.554 3.312-.388 2.972.354 3.56 2.246 3.446 3.035a2.03 2.03 0 0 1-.942 1.361c-.207.129-.274.177-.254.272.027.143.12.136.3.109a2.34 2.34 0 0 0 1.616-2.1c.08-1.872-1.663-3.913-4.755-3.893zM6.516 22.871c-.982 1.1-2.364 1.511-2.952 1.157-.634-.374-.387-1.987.821-3.151a15.74 15.74 0 0 1 2.317-1.763l.608-.374a.71.71 0 0 1 .067-.041c.047-.027.1-.061.154-.1a4.4 4.4 0 0 1-1.015 4.272zm7.179-4.975c-.341.851-1.062 3.035-1.5 2.913-.374-.1-.6-1.756-.074-3.389a7.61 7.61 0 0 1 1.169-2.185c.541-.612 1.129-.817 1.276-.565.174.327-.66 2.695-.874 3.226zm5.921 2.885c-.147.075-.28.129-.341.089s.06-.129.06-.129.741-.81 1.035-1.184l.581-.755v.082a2.51 2.51 0 0 1-1.336 1.9zm4.568-1.062c-.107-.082-.093-.333.267-1.123a4.2 4.2 0 0 1 1.015-1.336 1.71 1.71 0 0 1 .1.585c.019.867-.549 1.637-1.383 1.875z" fill="#cf649a"/></svg>