<svg xmlns="http://www.w3.org/2000/svg" xmlns:xlink="http://www.w3.org/1999/xlink" width="279.381" height="266.637"  xmlns:v="https://vecta.io/nano"><defs><linearGradient id="A" x1="-62.343" y1="4.953" x2="-70.343" y2="5.811"><stop offset="0" stop-color="#09005d"/><stop offset="1" stop-color="#1a0f91"/></linearGradient><linearGradient id="B" x1="1.379" y1="-.022" x2=".271" y2=".828"><stop offset="0" stop-color="#febbba"/><stop offset="1" stop-color="#ff928e"/></linearGradient><linearGradient id="C" x1="2.157" y1="-1.159" x2=".484" y2=".707"><stop offset="0" stop-color="#ff928e"/><stop offset="1" stop-color="#fe7062"/></linearGradient><linearGradient id="D" x1="1.267" y1="-.243" x2=".257" y2=".629" xlink:href="#C" /><linearGradient id="E" x1="-6.718" y1=".416" x2="-6.997" y2="-.651" xlink:href="#B" /><linearGradient id="F" x1=".112" y1=".34" x2="1.184" y2=".762" xlink:href="#B" /><linearGradient id="G" x1="20.71" y1="18.482" x2="21.616" y2="18.482" xlink:href="#A" /><linearGradient id="H" x1="-1.807" y1="-.608" x2="1.164" y2=".819" xlink:href="#B" /><linearGradient id="I" x1="10.185" y1=".5" x2="11.185" y2=".5" xlink:href="#A" /><linearGradient id="J" x1="3.484" y1="-1.365" x2="-.242" y2="1.237"><stop offset="0" stop-color="#4f52ff"/><stop offset="1" stop-color="#4042e2"/></linearGradient><linearGradient id="K" x1="34.262" y1=".5" x2="35.262" y2=".5" xlink:href="#B" /><linearGradient id="L" x1="14.562" y1=".5" x2="15.562" y2=".5" xlink:href="#A" /><linearGradient id="M" x1="-1.837" y1="-.771" x2="2.175" y2="1.483" xlink:href="#J" /><linearGradient id="N" x1="18.193" y1=".5" x2="19.193" y2=".5" xlink:href="#B" /><linearGradient id="O" x1="-.778" y1="1.073" x2="1.169" y2="-.534" xlink:href="#A" /><linearGradient id="P" x1="-3.783" y1="4.662" x2="-3.796" y2="2.438" xlink:href="#J" /><linearGradient id="Q" x1="-31.324" y1="20.166" x2="-31.367" y2="17.405" xlink:href="#J" /><linearGradient id="R" x1="-85.817" y1="9.161" x2="-85.242" y2="13.288" xlink:href="#J" /><linearGradient id="S" x1="-31.306" y1="20.826" x2="-31.348" y2="18.066" xlink:href="#J" /><linearGradient id="T" x1="-83.996" y1="8.725" x2="-83.433" y2="12.529" xlink:href="#J" /><linearGradient id="U" x1="-8.581" y1="4.568" x2="-8.663" y2="6.155" xlink:href="#J" /><linearGradient id="V" x1=".489" y1=".99" x2=".51" y2="-.032" xlink:href="#J" /><linearGradient id="W" x1="0" y1=".5" x2="1" y2=".5" xlink:href="#A" /><linearGradient id="X" x1="0" y1=".5" x2="1" y2=".5" xlink:href="#J" /><linearGradient id="Y" x1=".727" y1=".159" x2="-.108" y2="1.39" xlink:href="#B" /><linearGradient id="Z" x1="1.75" y1="-.379" x2="-.211" y2="1.228" xlink:href="#C" /><linearGradient id="a" x1="2.625" y1="-1.189" x2="-1.321" y2="1.948"><stop offset="0" stop-color="#e1473d"/><stop offset="1" stop-color="#e9605a"/></linearGradient><linearGradient id="b" x1="-8.783" y1=".5" x2="-7.783" y2=".5" xlink:href="#A" /><linearGradient id="c" x1="-6.4" y1="-12.944" x2="-10.098" y2="11.132" xlink:href="#J" /><linearGradient id="d" x1="-22.592" y1="-.843" x2="-23.099" y2="2.39" xlink:href="#B" /><linearGradient id="e" x1="-4.95" y1="-5.387" x2="-7.466" y2="17.679" xlink:href="#J" /><linearGradient id="f" x1="-6.101" y1=".5" x2="-5.101" y2=".5" xlink:href="#A" /><linearGradient id="g" x1="-19.551" y1="-1.623" x2="-20.03" y2="1.092" xlink:href="#B" /><linearGradient id="h" x1=".59" y1=".81" x2=".167" y2="-.072" xlink:href="#A" /><linearGradient id="i" x1="-7.552" y1="1.219" x2="-7.161" y2=".33" xlink:href="#B" /><linearGradient id="j" x1=".952" y1="1.247" x2=".186" y2="-.167" xlink:href="#B" /><linearGradient id="k" x1="-.002" y1="-.153" x2=".677" y2=".651" xlink:href="#A" /><linearGradient id="l" x1="2.396" y1="3.26" x2="-.737" y2="-1.354" xlink:href="#B" /><linearGradient id="m" x1=".575" y1="-.79" x2=".392" y2="2.407" xlink:href="#B" /><linearGradient id="n" x1="2.417" y1="-5.187" x2="1" y2="-1.152" xlink:href="#B" /><linearGradient id="o" x1=".571" y1="-1.981" x2=".263" y2="8.48" xlink:href="#B" /><linearGradient id="p" x1=".682" y1=".492" x2="-.355" y2=".55" xlink:href="#B" /></defs><g transform="translate(517.125 -423.674)"><path d="M-497.901 655.102c.008 2.416 1.966 4.372 4.382 4.378h236.973c2.416-.006 4.374-1.962 4.382-4.378l1.972-136.182c-.458-4.029-3.988-6.997-8.036-6.756l-231.6-5.992c-3.024-.079-5.947 1.085-8.09 3.22a11.03 11.03 0 0 0-3.242 8.074z" fill="#069bff"/><path d="M-493.575 650.902a4.16 4.16 0 0 0 4.146 4.146h227.168a4.16 4.16 0 0 0 4.146-4.146l1.861-123.627c-.219-7.44-6.742-10.113-10.7-9.956l-221.959-5.959c-2.125-.057-4.18.762-5.684 2.263s-2.33 3.554-2.279 5.68z" fill="#b9e3f6"/><path d="M-260.57 592.171h-.009c-.162-.002-.316-.068-.428-.184s-.174-.272-.172-.433l.147-10.026a.61.61 0 0 1 .607-.6h.009a.61.61 0 0 1 .6.617l-.147 10.026a.61.61 0 0 1-.607.6zm.361-24.569h-.009c-.162-.002-.316-.068-.428-.184s-.174-.272-.172-.433l.564-38.4a7.21 7.21 0 0 0-2.058-5.4c-2.53-2.423-6.546-2.3-6.715-2.292l-70.945-1.9c-.161-.004-.314-.072-.425-.189s-.171-.273-.166-.434a.58.58 0 0 1 .624-.591l70.9 1.9c.441-.026 4.717-.1 7.565 2.628a8.39 8.39 0 0 1 2.433 6.284l-.564 38.412a.61.61 0 0 1-.604.599z" fill="#06aefa"/><path d="M-243.398 670.785h-268.074c-1.499 0-2.937-.596-3.997-1.656s-1.656-2.498-1.656-3.997v-.658c0-3.123 2.531-5.654 5.654-5.654h268.073c3.122 0 5.653 2.531 5.654 5.653v.658c0 3.123-2.531 5.654-5.654 5.654z" fill="#069bff"/><g transform="translate(-390.119 423.674)"><circle cx="51.128" cy="51.128" r="51.128" transform="matrix(.707107 -.707107 .707107 .707107 0 72.306)" fill="#bdd0fb"/><circle cx="72.307" cy="72.306" r="43.636" fill="#06b2ff"/><path d="M72.306 118.127c-18.533 0-35.242-11.164-42.335-28.286s-3.173-36.831 9.932-49.937 32.814-17.026 49.936-9.933 28.287 23.801 28.287 42.334c-.029 25.295-20.526 45.793-45.821 45.822zm0-89.457a43.64 43.64 0 0 0-30.855 74.491 43.64 43.64 0 0 0 74.491-30.855c-.027-24.088-19.548-43.609-43.636-43.636z" fill="#fff"/><circle cx="26.603" cy="26.603" r="26.603" transform="matrix(.707107 -.707107 .707107 .707107 34.684 72.306)" fill="#06b2ff"/><path d="M72.305 101.094c-15.899 0-28.788-12.889-28.788-28.788s12.889-28.788 28.788-28.788 28.788 12.889 28.788 28.788c-.018 15.892-12.896 28.77-28.788 28.788zm0-53.205A24.42 24.42 0 0 0 55.04 89.571a24.42 24.42 0 0 0 41.682-17.265c-.015-13.479-10.938-24.402-24.417-24.417z" fill="#fff"/><path d="M82.613 72.303A10.31 10.31 0 0 1 72.306 82.61a10.31 10.31 0 0 1-10.307-10.307 10.31 10.31 0 0 1 10.307-10.307c2.734 0 5.355 1.086 7.288 3.019s3.019 4.555 3.019 7.288z" fill="#06b2ff"/><path d="M72.306 84.798c-5.053 0-9.608-3.044-11.541-7.712s-.865-10.041 2.708-13.614 8.946-4.641 13.614-2.708 7.712 6.489 7.712 11.541a12.51 12.51 0 0 1-12.492 12.492zm0-20.614c-4.485 0-8.121 3.636-8.121 8.121s3.636 8.121 8.121 8.121 8.121-3.636 8.121-8.121a8.13 8.13 0 0 0-8.121-8.12z" fill="#fff"/><path transform="matrix(-.707 -.707 .707 -.707 83.487 63.721)" fill="url(#A)" d="M0 0h1.949v73.794H0z"/><path d="M83.084 59.018c.791-.791 4.517 2.936 3.727 3.727L72.988 73.612a.55.55 0 0 1-.771-.771zm52.552-47.447l7.02.7-9.637 9.637a14.9 14.9 0 0 1-12.008 4.29h0zm-1.377-1.378l-.7-7.02-9.637 9.637a14.9 14.9 0 0 0-4.291 12.008h0z" fill="#b8e9ff"/></g><path d="M-265.027 652.337h-11.208V601.61h11.208zm-18.727 0h-11.208v-33.293h11.208zm-18.727 0h-11.207v-76.38h11.207zm-18.727 0h-11.207v-18.349h11.207zm-18.727 0h-11.208v-66.168h11.208zm-18.726 0h-11.208v-54.712h11.208zm-18.727 0h-11.207v-42.259h11.207zm-18.727 0h-11.207v-91.821h11.207zm-18.727 0h-11.208v-82.108h11.208zm-18.727 0h-11.208v-67.414h11.208zm-18.727 0h-11.207v-16.646h11.207zm-18.726 0h-11.208v-48.983h11.208z" opacity=".54" fill="#fff"/><path d="M-413.26 548.295s-1.608-4.233-3.486-3.845a12.84 12.84 0 0 0-3.933 1.831l-3.017 4.081s8.471 3.337 11.45 1.425a65.19 65.19 0 0 0 19.578-.3 42.82 42.82 0 0 1-3.078-9.278 45.58 45.58 0 0 1-17.514 6.086z" fill="url(#B)"/><path d="M-367.429 517.59s-12.388 15.6-28.318 24.62a42.82 42.82 0 0 0 3.078 9.277c8.264-1.356 17.829-4.592 25.937-11.784z" fill="url(#C)"/><path d="M-351.98 586.745c-2.423-11.507-4.845-18.169-12.957-39.981-2.553-6.864-4.871-13.809-3.75-21.046l1.258-8.128c10.844-3.157 22.352-3.235 33.238-.225 0 0 23.841 10.357 7.647 61.506-7.298 8.167-15.84 10.497-25.436 7.874z" fill="url(#D)"/><path d="M-364.745 507.217l4.088 9.82c.258.62.816 1.063 1.478 1.176 2.357.4 8.057 1.036 11.8-1.426a.95.95 0 0 0 .255-1.338l-7.552-10.842z" fill="url(#E)"/><path d="M-360.518 492.191c-.172.162-7.245 14.053-7.245 14.053l8.017 3.87 8.66-12.169s-6.558-8.459-9.432-5.754z" fill="url(#F)"/><path d="M-354.729 499.405l-4 6.666a1.23 1.23 0 0 1-.219.273c-.476.443-2.1 1.732-3.363-.023a11.28 11.28 0 0 0-3.159-3.415 1.28 1.28 0 0 0-1.725.568 47.72 47.72 0 0 0-2.737 6.492c-.198.634.125 1.314.741 1.561 2.467 1.034 5.043 1.785 7.679 2.24a1.28 1.28 0 0 0 1.209-.514l5.856-7.542c1.095-1.091 3.115-.679 4.026-.418.344.1.715.051 1.022-.134a2.82 2.82 0 0 0 1.061-4.288 1.28 1.28 0 0 1 .4-1.739 2.83 2.83 0 0 0 1.084-4.014 3.99 3.99 0 0 0-4.319-2.114 1.33 1.33 0 0 1-1.393-.775c-.112-.278-.363-.476-.66-.52a1.24 1.24 0 0 1-1-1.458c.37-1.528-.398-3.103-1.829-3.753-3.459-1.9-6.489 1.2-7.26 3.813s3.1 4.465 5.53 4.773c1.787.227 2.767 2.177 3.161 3.2a1.28 1.28 0 0 1-.105 1.121z" fill="url(#G)"/><path d="M-356.13 507.706s1.721-4.049 3.689-3.883 3.519 2.127 1.078 4.332c-3.035 2.742-4.767-.449-4.767-.449z" fill="url(#H)"/><path d="M-353.531 688.16c3.807.329 10.415.864 15.625 1.093a15.04 15.04 0 0 0 5.972-.584 6.74 6.74 0 0 1-.01.331 1.08 1.08 0 0 1-1.024 1.018c-6.814.388-13.644.395-20.459.02-.268-.013-.509-.165-.637-.401s-.123-.521.012-.752c.156-.254.331-.496.521-.725z" fill="url(#I)"/><path d="M-337.906 689.253c-5.209-.229-11.817-.764-15.625-1.093 3.743-4.592 15.625-7.687 15.625-7.687h3.356a14.07 14.07 0 0 1 2.617 8.2 15.05 15.05 0 0 1-5.973.58z" fill="url(#J)"/><path d="M-333.986 674.994l-.314 6.214a1.42 1.42 0 0 1-1.212 1.335c-.845.126-1.708.055-2.521-.209a1.68 1.68 0 0 1-1.129-1.291l-1.085-6.049z" fill="url(#K)"/><path d="M-290.4 689.206c1.228-.053 2.301-.846 2.711-2.005l.006.025c.205 1.064-.416 2.113-1.446 2.447-1.272.495-2.637.709-4 .627a3.98 3.98 0 0 1-3-1.385l-.01-.012c1.239.615 2.99.687 5.739.303z" fill="url(#L)"/><path d="M-298.185 674.954h2.767c4.215-.086 6.862 8.8 7.729 12.248-.412 1.157-1.484 1.948-2.711 2-2.753.384-4.5.312-5.744-.3-2.277-3-3.406-7.386-3.949-9.947a3.49 3.49 0 0 1 1.908-4.001z" fill="url(#M)"/><path d="M-295.773 669.186l1.536 6.112a1.66 1.66 0 0 1-.863 1.88c-.967.552-2.07.82-3.182.771-.522-.068-.96-.426-1.131-.924l-2.256-6.43z" fill="url(#N)"/><path d="M-293.94 670.952c-1.912 1.7-8.13 1.919-8.13 1.919-22.4-53.763-31.739-68.563-31.739-68.563 3.234 20.292.7 72.381.7 72.381-3.7 1.631-8.462 0-8.462 0-.3-33.221-4.978-68.92-11.01-91.761 15.14-.34 23.368-3.641 26-5.72 12.613 20.346 32.641 91.744 32.641 91.744z" fill="url(#O)"/><path d="M-356.399 599.952l2.786 17.327a5.71 5.71 0 0 0 6.337 4.745l41.7-5.086a4.12 4.12 0 0 0 3.627-4c.195-6.624-.466-13.245-1.966-19.7z" fill="url(#P)"/><path d="M-346.931 620.947c-.064 0-.115-.051-.115-.115s.051-.115.115-.115l.481-.037.423-.052c.03-.005.061.003.086.022s.04.047.042.078-.004.061-.023.085-.046.04-.077.043l-.423.052-.5.039zm3.047-.35c-.06-.001-.11-.048-.114-.108s.04-.113.1-.121l.913-.112c.03-.005.061.003.086.022s.04.047.042.078c.008.063-.037.12-.1.128l-.913.111zm-5.15 0a.12.12 0 0 1-.041-.007 5.59 5.59 0 0 1-.846-.405c-.026-.015-.046-.041-.053-.07s-.003-.061.012-.088c.032-.054.102-.072.157-.041a5.25 5.25 0 0 0 .811.389c.053.019.084.074.074.129s-.059.095-.115.094zm8.194-.371c-.06-.001-.11-.048-.114-.108s.04-.113.1-.121l.913-.111c.03-.005.061.003.086.022s.04.047.042.078c.008.063-.037.12-.1.128l-.913.112zm3.044-.371c-.06-.001-.11-.048-.114-.108s.04-.113.1-.121l.913-.111c.03-.005.061.004.085.023s.04.047.043.077c.008.063-.037.12-.1.128l-.913.111zm3.044-.372c-.06-.001-.11-.048-.114-.108s.04-.113.1-.121l.913-.111c.03-.005.061.003.086.022s.04.047.042.078c.008.063-.037.12-.1.128l-.913.111zm3.044-.372c-.06-.001-.11-.048-.114-.108s.04-.113.1-.121l.913-.112c.03-.005.061.004.085.023s.04.047.043.077c.008.063-.037.12-.1.128l-.913.111zm-19.748-.331c-.036 0-.07-.016-.092-.045a5.5 5.5 0 0 1-.5-.8c-.012-.052.013-.105.061-.129s.105-.012.139.029a5.27 5.27 0 0 0 .477.762c.027.035.032.082.012.121s-.06.064-.104.063zm22.792-.04c-.06-.001-.11-.048-.114-.108s.04-.113.1-.121l.914-.111c.03-.005.061.003.086.022s.04.047.042.078c.007.063-.037.12-.1.128l-.913.111zm3.044-.371c-.06-.001-.11-.048-.114-.108s.04-.113.1-.121l.913-.112c.03-.005.061.004.085.023s.04.047.043.077c.008.063-.037.12-.1.128l-.913.112zm3.044-.372c-.06-.001-.11-.048-.114-.108s.04-.113.1-.121l.913-.111c.03-.005.061.004.085.023s.04.047.043.077c.008.063-.037.12-.1.128l-.913.111zm3.044-.371c-.06-.001-.11-.048-.114-.108s.04-.113.1-.121l.913-.111c.03-.005.061.003.086.022s.04.047.042.078c.008.063-.037.12-.1.128l-.913.111zm3.044-.372c-.06-.001-.11-.048-.114-.108s.04-.113.1-.121l.913-.111c.03-.005.061.003.086.022s.04.047.042.078c.008.063-.037.12-.1.128l-.913.111zm3.045-.371c-.06-.001-.11-.048-.114-.108s.04-.113.1-.121l.913-.112c.03-.005.061.004.085.023s.04.047.043.077c.008.063-.037.12-.1.128l-.913.111zm3.044-.372c-.06-.001-.11-.048-.114-.108s.04-.113.1-.121l.913-.111c.03-.005.061.003.086.022s.04.047.042.078c.008.063-.037.12-.1.128l-.913.111zm3.044-.371c-.06-.001-.11-.048-.114-.108s.04-.113.1-.121l.594-.072.308-.05c.041-.011.085.002.114.033s.038.076.024.116-.049.069-.092.075l-.327.054-.594.072zm-45.188-.189c-.057-.001-.106-.043-.113-.1l-.146-.908c-.007-.041.009-.082.04-.108s.075-.033.114-.019.066.049.073.09l.146.908c.005.031-.003.062-.022.087s-.047.041-.078.045zm47.984-.9c-.048 0-.09-.029-.108-.073s-.005-.095.03-.127a3.83 3.83 0 0 0 .578-.678c.036-.051.106-.064.158-.029s.066.104.033.157c-.176.263-.381.504-.613.719-.021.018-.048.027-.075.027zm-48.471-2.123c-.057-.001-.106-.043-.113-.1l-.146-.908c-.005-.031.003-.062.022-.087s.047-.041.078-.045.063.003.088.022.041.047.044.078l.146.909c.005.031-.003.062-.022.087s-.047.041-.078.045zm49.719-.591h0c-.031-.001-.059-.015-.08-.037s-.031-.052-.03-.083v-.062q.008-.409.013-.854c.001-.063.052-.114.115-.114h0c.031 0 .06.013.081.034s.033.051.033.082q0 .446-.013.854v.07c-.005.061-.056.107-.117.106zm-50.206-2.437c-.058 0-.106-.043-.114-.1l-.146-.908c-.007-.041.009-.082.04-.108s.075-.033.114-.019.066.049.073.09l.146.908c.005.031-.003.063-.022.088s-.047.041-.078.044zm50.216-.631c-.063 0-.114-.05-.115-.113q-.006-.448-.018-.919c-.001-.031.011-.06.032-.083s.05-.035.081-.035h0c.062 0 .113.05.115.112q.011.472.018.922c.001.063-.05.115-.113.116zm-50.7-2.4c-.057-.001-.106-.043-.113-.1l-.146-.909c-.005-.031.004-.062.022-.087s.047-.041.078-.044.063.002.088.021.041.048.044.079l.146.908c.01.063-.032.122-.095.132zm50.607-.669c-.061.001-.112-.048-.115-.109q-.022-.453-.05-.918c-.006-.043.013-.085.048-.109s.081-.027.119-.007.062.06.061.103q.028.466.05.92c.003.063-.046.117-.109.12zm-51.094-2.359c-.057-.001-.106-.043-.113-.1l-.146-.909c-.007-.061.035-.118.096-.127s.119.031.131.091l.146.909c.005.031-.003.062-.022.087s-.047.041-.078.045zm50.887-.7c-.058 0-.106-.043-.114-.1q-.04-.454-.085-.915c-.006-.062.038-.118.1-.126.03-.004.061.004.084.023s.039.047.042.077q.046.462.085.918c.006.062-.038.117-.1.125zm-51.374-2.327c-.058 0-.106-.043-.114-.1l-.146-.908c-.007-.041.009-.082.04-.108s.075-.033.114-.019.066.049.073.09l.146.908c.01.063-.032.122-.095.132zm51.043-.723c-.058 0-.106-.043-.114-.1q-.06-.453-.125-.91c-.004-.031.004-.062.023-.086s.047-.04.077-.044.062.003.087.022.04.047.043.078q.066.458.126.913c.004.03-.004.061-.023.085s-.046.04-.077.044zm-50.273-.3c-.061 0-.111-.047-.115-.107s.04-.114.1-.122l.913-.117c.031-.005.062.003.086.022s.04.047.043.078c.008.063-.037.121-.1.129l-.912.117zm3.042-.389c-.061 0-.111-.047-.115-.107s.04-.114.1-.122l.913-.117a.11.11 0 0 1 .129.1c.004.03-.004.061-.023.085s-.046.04-.077.044l-.912.116zm3.042-.39c-.061 0-.111-.047-.115-.107s.04-.114.1-.122l.913-.117c.031-.005.062.003.086.022s.04.047.043.078-.004.061-.023.085-.046.04-.077.044l-.912.117zm3.042-.389c-.061 0-.111-.047-.115-.107s.04-.114.1-.122l.913-.116a.11.11 0 0 1 .129.1c.004.03-.004.061-.023.085s-.046.04-.077.044l-.912.117zm3.042-.389c-.061 0-.111-.047-.115-.107s.04-.114.1-.122l.912-.116c.031-.005.062.003.086.022s.04.047.043.078c.008.063-.037.121-.1.129l-.913.117zm3.042-.39c-.061 0-.111-.047-.115-.107s.04-.114.1-.122l.913-.117c.031-.005.062.003.086.022s.04.047.043.078c.008.063-.037.121-.1.129l-.913.117zm3.042-.389c-.061 0-.111-.047-.115-.107s.04-.114.1-.122l.912-.117c.031-.005.062.003.086.022s.04.047.043.078-.004.061-.023.085-.046.04-.077.043l-.913.117zm3.042-.39c-.061 0-.111-.047-.115-.107s.04-.114.1-.122l.913-.117c.03-.004.061.004.086.023s.04.047.043.077c.008.063-.037.12-.1.128l-.913.117zm28.508 0c-.056 0-.103-.04-.113-.095q-.082-.451-.172-.9c-.012-.062.028-.123.091-.135s.123.028.135.09q.089.453.172.905c.012.062-.03.122-.092.134zm-25.466-.388c-.061 0-.111-.047-.115-.107s.04-.114.1-.122l.913-.117c.03-.005.061.004.086.022s.04.047.043.078c.008.063-.037.12-.1.128l-.913.117zm3.042-.39c-.061 0-.111-.047-.115-.107s.04-.114.1-.122l.913-.117a.11.11 0 0 1 .129.1c.004.03-.004.061-.023.085s-.046.04-.077.044l-.913.117zm3.042-.389c-.061 0-.111-.047-.115-.107s.04-.114.1-.122l.913-.117c.031-.005.062.003.086.022s.04.047.043.078c.008.063-.037.12-.1.128l-.912.117zm3.042-.389c-.061 0-.111-.047-.115-.107s.04-.114.1-.122l.913-.117c.031-.005.062.003.086.022s.04.047.043.078-.004.061-.023.085-.046.04-.077.044l-.913.117zm3.042-.389c-.061 0-.111-.047-.115-.107s.04-.114.1-.122l.912-.116a.11.11 0 0 1 .129.1c.008.063-.037.12-.1.128l-.912.117zm3.042-.389c-.061 0-.111-.047-.115-.107s.04-.114.1-.122l.912-.116c.031-.005.062.003.086.022s.04.047.043.078c.008.063-.037.12-.1.128l-.912.117zm3.042-.389c-.061 0-.111-.047-.115-.107s.04-.114.1-.122l.913-.117c.031-.005.062.003.086.022s.04.047.043.078-.004.061-.023.085-.046.04-.077.044l-.913.116zm6.575-.277c-.053 0-.099-.036-.112-.087l-.112-.447-.253.032c-.042.007-.084-.009-.109-.043s-.032-.078-.015-.117.053-.065.095-.069l.454-.058.025.1.138.548c.015.062-.022.124-.084.139-.009-.001-.017-.003-.025-.006zm-3.533-.112c-.061 0-.111-.047-.115-.107s.04-.114.1-.122l.913-.117a.11.11 0 0 1 .129.1c.008.063-.037.12-.1.128l-.912.117z" fill="#fff"/><path d="M-345.805 585.759l-.046-1.358a1.04 1.04 0 0 1 .705-.7c1.272-.373 4.444-1.148 6.142-.188l.431 1.53z" fill="url(#Q)"/><path d="M-341.916 583.949c-.286.111-.595.15-.9.114a.82.82 0 0 1-.719-.707l-.538-4.2 2.138-.274.537 4.2a.82.82 0 0 1-.518.867z" fill="url(#R)"/><path d="M-325.095 583.109l-.046-1.358a1.04 1.04 0 0 1 .706-.7c1.272-.373 4.444-1.148 6.142-.188l.431 1.53z" fill="url(#S)"/><path d="M-321.205 581.299a1.87 1.87 0 0 1-.9.114.82.82 0 0 1-.719-.707l-.594-4.644 2.138-.274.594 4.641a.82.82 0 0 1-.519.87z" fill="url(#T)"/><path d="M-344.156 580.211l22.9-3.7a1.12 1.12 0 0 0 .943-1.045 9.46 9.46 0 0 0-.3-2.924c-.361-1.248-1.566-2.056-2.858-1.916-4.3.447-15.224 1.847-20.938 5a2.12 2.12 0 0 0-1.083 1.621c-.101.789-.018 1.591.244 2.342a1 1 0 0 0 1.092.622z" fill="url(#U)"/><path d="M-344.72 579.273c-.143 0-.267-.098-.3-.237-.127-.6-.156-1.216-.087-1.825a2.14 2.14 0 0 1 1.257-1.654c1.804-.822 3.697-1.433 5.642-1.819.111-.022.225.018.297.105s.091.206.049.311-.138.178-.251.19a25.7 25.7 0 0 0-5.491 1.775 1.52 1.52 0 0 0-.9 1.175 5.1 5.1 0 0 0 .077 1.6c.038.165-.064.329-.229.368-.021.006-.042.01-.064.011z" fill="#91b3fa"/><path d="M-356.546 586.602c7.417-1.045 39.512-5.5 48.991-5.564.814-.008 1.544.498 1.822 1.263a63.27 63.27 0 0 1 3.325 13.834 1.68 1.68 0 0 1-1.159 1.761l-20.794 6.758-7.57.969-23.283-1.608a1.79 1.79 0 0 1-1.642-1.465c-.517-2.87-1.616-9.62-1.393-14.083a1.98 1.98 0 0 1 1.703-1.865z" fill="url(#V)"/><path d="M-331.979 603.878h-.008l-.918-.063c-.031-.002-.059-.016-.079-.039s-.03-.053-.028-.084c.006-.062.059-.109.122-.107l.918.064c.064.002.113.055.111.119s-.055.113-.119.111zm-3.06-.211h-.008l-.918-.063c-.031-.002-.059-.016-.079-.039s-.03-.053-.028-.084c.005-.063.06-.11.123-.107l.918.063c.064.002.113.055.111.119s-.055.113-.119.111zm5.01-.038c-.061 0-.111-.047-.115-.107s.04-.114.1-.122l.913-.117c.031-.005.062.003.086.022s.04.047.043.078-.004.061-.023.085-.046.04-.077.044l-.913.117zm-8.069-.173h-.008l-.918-.063c-.031-.002-.059-.016-.079-.039s-.03-.053-.028-.084c.007-.062.061-.108.123-.107l.918.063c.064.002.113.055.111.119s-.055.113-.119.111zm-3.059-.212h-.008l-.918-.063c-.031-.002-.059-.016-.079-.039s-.03-.053-.028-.084c.006-.062.06-.109.122-.107l.918.063c.059.007.103.059.101.118s-.049.108-.109.111zm14.171 0c-.061 0-.111-.047-.115-.107s.04-.114.1-.122l.913-.116c.031-.005.062.003.086.022s.04.047.043.078-.004.061-.023.085-.046.04-.077.044l-.913.117zm-17.231-.206h-.008l-.918-.063c-.031-.002-.059-.016-.079-.039s-.03-.053-.028-.084c.006-.063.06-.11.123-.107l.918.063c.064.002.113.055.111.119s-.055.113-.119.111zm-3.06-.211h-.008l-.918-.063c-.031-.002-.059-.016-.079-.039s-.03-.053-.028-.084c.005-.063.06-.11.123-.107l.918.063c.064.002.113.055.111.119s-.055.113-.119.111zm23.3-.122c-.056 0-.104-.041-.113-.097s.024-.109.077-.127l.875-.284c.06-.02.125.014.145.074s-.014.125-.074.145l-.875.284c-.012.002-.024.002-.036 0zm-26.359-.089h-.008l-.918-.063c-.031-.002-.059-.016-.079-.039s-.03-.053-.028-.084c.005-.063.06-.11.123-.107l.918.063c.064.002.113.055.111.119s-.055.113-.119.111zm-3.06-.212h-.008l-.918-.063c-.031-.002-.059-.016-.079-.039s-.03-.053-.028-.084c.006-.063.06-.11.123-.107l.918.063c.064.002.113.055.111.119s-.055.113-.119.111zm32.335-.647c-.056 0-.104-.041-.113-.097s.024-.109.077-.127l.875-.284c.06-.02.125.014.145.074s-.014.125-.074.145l-.875.284a.12.12 0 0 1-.036 0zm-34.219-.868c-.057-.001-.106-.043-.113-.1l-.148-.91c-.008-.041.007-.084.039-.111s.077-.034.116-.018.067.051.072.093l.148.908c.005.03-.002.061-.02.086s-.045.042-.075.047zm37.136-.08c-.057.001-.107-.04-.116-.097s.025-.111.08-.128l.875-.284c.06-.02.125.014.145.074s-.014.125-.074.145l-.875.284c-.012.002-.024.002-.036.001zm2.917-.948c-.056 0-.104-.041-.113-.097s.024-.109.077-.127l.875-.284c.06-.02.125.014.145.074s-.014.125-.074.145l-.875.284c-.013.002-.025.002-.038 0zm2.917-.948c-.056 0-.104-.041-.113-.097s.024-.109.077-.127l.875-.285c.06-.02.125.014.145.074s-.014.125-.074.145l-.875.284c-.012.002-.025.003-.037.001zm2.917-.948c-.056-.001-.103-.042-.112-.097s.024-.109.077-.127l.875-.284c.06-.02.125.014.145.074s-.014.125-.074.145l-.875.285c-.013.002-.025.001-.038-.001zm-46.352-.11c-.058 0-.106-.043-.114-.1q-.062-.449-.124-.914c-.004-.03.004-.061.023-.085s.046-.04.077-.044.061.004.086.022.04.047.043.078q.061.463.123.911c.004.031-.004.062-.023.086s-.047.04-.077.044zm49.268-.838c-.057.001-.106-.041-.115-.097s.025-.111.08-.128l.875-.284c.06-.02.125.014.145.074s-.014.125-.074.145l-.875.285a.12.12 0 0 1-.038.004zm2.133-1.45c-.058 0-.106-.043-.114-.1q-.059-.456-.126-.909c-.005-.031.004-.062.022-.087s.047-.041.078-.044.062.003.087.022.041.047.044.078q.068.456.127.914c.004.03-.004.061-.023.085s-.046.04-.077.044zm-51.776-.758c-.058 0-.107-.042-.115-.1q-.048-.458-.09-.917c-.005-.041.014-.082.047-.106s.078-.028.116-.011.063.054.066.096q.042.457.09.915c.006.062-.038.118-.1.126zm51.285-2.271c-.055 0-.102-.039-.113-.093q-.088-.454-.183-.9c-.013-.062.026-.123.089-.136s.123.026.136.088q.095.448.183.9c.006.03 0 .061-.017.086s-.044.043-.074.049zm-51.532-.788c-.061 0-.112-.048-.115-.109q-.025-.468-.039-.922c-.002-.063.048-.116.111-.118a.12.12 0 0 1 .119.111l.038.917c.002.031-.009.06-.029.083s-.049.036-.08.038zm50.866-2.206c-.053 0-.098-.036-.111-.087q-.113-.454-.229-.89c-.014-.041-.004-.086.026-.117s.074-.043.116-.03.072.047.08.089q.115.437.229.893c.015.062-.022.124-.084.139-.01.001-.019.001-.029-.001zm-50.892-.854h0a.12.12 0 0 1-.114-.122c0-.008 0-.016 0-.024.008-.114.096-.205.209-.219l.727-.1c.031-.005.062.004.086.022s.04.047.044.078-.004.062-.023.086-.047.04-.077.044l-.727.109-.014.022c-.005.058-.055.102-.113.1zm2.967-.535c-.061 0-.111-.046-.116-.107s.039-.114.1-.122l.912-.126c.063-.009.121.036.129.098s-.036.121-.098.13l-.912.126zm3.04-.419c-.061 0-.111-.046-.116-.107s.039-.114.1-.122l.912-.125c.063-.009.121.036.13.098s-.036.121-.098.13l-.912.125zm3.04-.414c-.061 0-.111-.047-.115-.107s.04-.114.1-.122l.912-.123c.063-.009.121.036.13.098s-.036.121-.098.13l-.912.123zm3.041-.407c-.061 0-.111-.047-.115-.107s.04-.114.1-.122l.912-.121c.041-.006.082.01.108.043s.031.077.015.115-.052.065-.093.07l-.912.121zm38-.331c-.051 0-.095-.034-.11-.082q-.137-.458-.268-.879c-.012-.039-.002-.082.026-.112s.07-.043.11-.034.072.039.084.078q.131.422.269.882c.018.061-.016.125-.077.143-.014.003-.027.003-.041 0zm-34.954-.07c-.061 0-.111-.047-.115-.107s.04-.114.1-.122l.913-.119c.062-.007.119.037.127.099s-.035.119-.097.129l-.912.119zm3.043-.395c-.061 0-.111-.047-.115-.107s.04-.114.1-.122l.913-.117c.03-.005.061.004.086.022s.04.047.043.078-.004.061-.023.085-.046.04-.077.044l-.912.117zm3.043-.387c-.06-.001-.11-.048-.114-.108s.04-.113.1-.121l.912-.115c.031-.005.062.003.086.022s.04.047.043.078c.008.063-.037.12-.1.128l-.913.115zm3.044-.379c-.06-.001-.11-.048-.114-.108s.04-.113.1-.121l.913-.112a.11.11 0 0 1 .128.1c.008.063-.037.12-.1.128l-.913.112zm3.044-.37c-.06-.001-.11-.048-.114-.108s.04-.113.1-.121l.914-.109c.03-.005.061.004.085.023s.04.047.043.077c.008.063-.037.12-.1.128l-.913.109zm3.046-.358c-.06-.001-.109-.048-.113-.108s.04-.113.1-.121l.914-.105c.063-.007.12.038.127.102s-.038.12-.102.127l-.914.105zm3.047-.345c-.06-.001-.109-.048-.113-.108s.04-.113.1-.121l.915-.1c.03-.004.061.004.085.023s.039.047.042.077c.007.063-.038.119-.1.127l-.914.1zm3.05-.329c-.06-.001-.109-.049-.112-.109s.04-.112.1-.12l.916-.095c.062-.005.117.039.126.1s-.038.118-.1.126l-.915.094zm12.7-.289c-.049 0-.093-.031-.109-.077l-.2-.578h-.156 0c-.064 0-.115-.051-.115-.115s.051-.115.115-.115h.185c.077-.003.147.042.176.113l.218.62c.021.06-.011.125-.071.146-.017.005-.035.006-.053.003zm-9.647-.018c-.06-.002-.108-.05-.111-.109s.041-.112.1-.12l.916-.087c.03-.004.06.005.084.023s.038.047.041.077c.006.062-.038.117-.1.125l-.916.087zm3.054-.276c-.06-.002-.108-.05-.11-.11s.041-.112.1-.119q.471-.04.917-.075c.031-.004.061.006.085.026s.038.049.039.079c.005.063-.042.119-.105.124q-.446.035-.917.075zm3.059-.228c-.064.002-.117-.048-.118-.112s.048-.117.111-.118q.479-.03.919-.054c.06.001.109.049.112.109s-.04.112-.1.12q-.439.024-.918.054z" fill="#fff"/><path d="M-324.662 607.923l-6.632.849a1.73 1.73 0 0 1-1.9-1.288l-1.583-6.283c-.119-.479-.028-.986.251-1.393s.719-.675 1.208-.736l7.967-1.019c.48-.063.964.079 1.335.391s.592.765.612 1.249l.248 6.454c.033.892-.62 1.662-1.506 1.776z" fill="url(#W)"/><path d="M-325.628 606.855l-5.047.646c-.66.086-1.279-.335-1.443-.98l-1.2-4.782c-.091-.364-.021-.75.191-1.06s.547-.514.92-.56l6.063-.776c.366-.048.734.06 1.016.298s.451.583.466.951l.188 4.912c.024.681-.477 1.268-1.154 1.351z" fill="url(#X)"/><path d="M-329.571 556.001a51.74 51.74 0 0 1 1.368 15.089c-.089.867-.788 1.545-1.658 1.606l-3.538.229a6.6 6.6 0 0 1-3.77-1.458.59.59 0 0 0-.869.746c.536.922 1.271 1.713 2.15 2.317.5.38 2.162 1.055 2.046 1.8-.052.234-.167.45-.332.625-1.003 1.049-2.288 1.786-3.7 2.123-.178.037-.343.121-.478.243-.034.892 2.708 1.882 3.416 2.117a7.87 7.87 0 0 0 3.3.384c2.812-.435 5.293-2.075 6.795-4.492 3.598-5.855 5.909-12.408 6.779-19.225-3.697-3.69-9.277-2.754-11.509-2.104z" fill="url(#Y)"/><path d="M-318.063 558.693c2.948-22.269-14.213-39.392-14.213-39.392l-10.21 11.9c7.752 9.662 11.437 18.516 13.12 25.47 2.232-.645 7.607-1.669 11.303 2.022z" fill="url(#Z)"/><path d="M-329.609 556.567c-.292-.001-.545-.2-.614-.484-2.075-8.572-6.448-17.059-13-25.223-.219-.272-.175-.67.097-.889s.67-.175.889.097c6.667 8.311 11.122 16.963 13.241 25.718.045.188.002.387-.118.54s-.303.241-.497.241z" fill="url(#a)"/><path d="M-467.887 688.581c.004-.111-.008-.221-.033-.329-1.642-6.51-9.792-10.565-9.792-10.565l-3.23.253c-1.857 5.738-1.618 9.257-1.32 10.825.008.044.022.086.033.128 4.78.344 9.582.24 14.342-.312z" fill="url(#b)"/><path d="M-482.233 688.892a1.4 1.4 0 0 0 1.025 1.035c3.79.8 9.813.156 12.342-.175.568-.098.981-.594.975-1.171a76.64 76.64 0 0 1-14.342.311z" fill="url(#c)"/><path d="M-482.245 673.129l1.368 6.584c.079.465.452.825.92.887a9.17 9.17 0 0 0 2.119-.034c.353-.068.665-.274.866-.572s.275-.665.206-1.018l-.951-5.847z" fill="url(#d)"/><path d="M-453.903 688.809c-2.158.055-4.31-.253-6.366-.91l.011 1.09a.7.7 0 0 0 .672.716l19.585-.126c.297-.025.562-.197.706-.458s.149-.577.013-.842c-2.566.209-9.108.684-14.621.53z" fill="url(#e)"/><path d="M-439.282 688.277c-.022-.051-.048-.1-.078-.147-1.73-2.417-6.135-7.229-14.839-9.316l-4.176-.132s-1.86 3.232-1.895 9.219a19.29 19.29 0 0 0 6.366.91c5.514.153 12.055-.322 14.622-.534z" fill="url(#f)"/><path d="M-459.334 672.546l1.271 6.81a.91.91 0 0 0 .817.771c.959.069 1.923-.006 2.86-.225.557-.176.914-.719.856-1.3l-.467-7.411z" fill="url(#g)"/><path d="M-462.499 586.029s5.744 39.473 9.89 86.444a1.79 1.79 0 0 1-1.479 1.817c-1.532.348-3.098.529-4.669.54a1.73 1.73 0 0 1-1.649-1.445c-1.412-8.282-11.49-52.73-14.134-62.512 0 0-3.038 41.554-2.067 63.112a1.02 1.02 0 0 1-.9 1.063 17.17 17.17 0 0 1-3.749-.01 1.37 1.37 0 0 1-1.218-1.161c-1.006-7.009-6.8-48.73-6.55-78.785.014-1.7 1.988-15.62 1.988-15.62z" fill="url(#h)"/><path d="M-487.9 588.309c-.59-.212-1.005-.745-1.067-1.369-.764-7.411-4.463-53.363 18.888-72.266 0 0 1.339-3.5 12.346 5.108s5.114 17.639 2.479 30.09c-3.189 15.067-8.784 27.382-6.308 36.654.175.64-.166 1.307-.787 1.541a36.46 36.46 0 0 1-25.551.242z" fill="#06b2ff"/><path d="M-460.971 500.906c-.007.654-9.331 13.9-9.331 13.9s1.674 3.3 9.663 5.972l6.9-14.18z" fill="url(#i)"/><path d="M-453.629 493.317s3.318 7.621 3.54 11.622 1.085 6.6-3.54 7.4-8.522-1.5-10.632-5.483c0 0-3.307-6.14-2.565-8.655s13.197-4.884 13.197-4.884z" fill="url(#j)"/><path d="M-462.681 503.992l.263-.116c.161-.07.285-.204.344-.369s.047-.347-.034-.503c-.652-1.26-1.924-4.148-.281-4.822 2.117-.868 10.5-2.578 12.311-5.553.739-1.286.931-2.815.533-4.243s-1.353-2.638-2.65-3.357a.32.32 0 0 0-.417.136l-.193.365c-.06.114-.182.18-.31.167s-.235-.102-.27-.226h0c-.034-.119-.134-.207-.257-.224s-.243.039-.309.143c-.556.89-2.057 2.333-6.072 3.074-5.706 1.053-9.479 3.362-9.572 7.305-.002.114-.066.219-.167.272s-.223.049-.319-.013c-.421-.257-1.1-.377-2 .38-1.567 1.318-.926 4.736 2.509 7.547.077.061.121.155.118.254s-.052.19-.133.246c-.623.405-1.551 1.37.854 2.656a8.1 8.1 0 0 0 5.062 1.1c.085-.014.16-.063.209-.134s.065-.16.045-.244l-.763-3.465c-.021-.093.002-.19.062-.265s.15-.117.245-.117z" fill="url(#k)"/><path d="M-462.537 504.724s-1.266-4.869-3.448-3.5 1.133 5.455 2.887 5.637z" fill="url(#l)"/><path d="M-454.192 523.775l.643 17.265c1.71.593 3.453 1.088 5.22 1.482a52.16 52.16 0 0 1 5.182-10.467c-4.371-1.696-8.191-4.561-11.045-8.28z" fill="#06b2ff"/><path d="M-419.945 523.486c-9.409 10.159-17.025 10.757-23.2 8.574-2.114 3.284-3.852 6.795-5.182 10.467 25.128 5.54 31.045-17.56 31.045-17.56z" fill="url(#m)"/><path d="M-418.037 522.407a3.45 3.45 0 0 1 3.09-.8c2.006.366 3.792 1.063 5.042 0s1.689.363 1.689.363l-3.743 2.845z" fill="url(#n)"/><path d="M-420.276 524.396s.743-3.105 2.981-2.68 7.319 3.189 8.629 2.68 2.984-1.727 3.843-1.3l-1.513 1.881s3.89-2.244 4.56-.865l-6.474 3.645s-9.47-.947-12.026-3.361z" fill="url(#o)"/><path d="M-464.637 546.377s17.69 14.815 36.793 8.351a4.55 4.55 0 0 1 3.586.27l5.492 2.9a4.9 4.9 0 0 0 6.5-1.819c.806-1.25 1.333-2.659 1.544-4.131l-10.746-4.35.792-1.318s-5.247-.445-6.62 3.316c0 0-9.993 4.156-26.846-14.38-.003 0-7.651 6.503-10.495 11.161z" fill="url(#p)"/><path d="M-465.59 546.223a.3.3 0 0 1-.169-.052 34.04 34.04 0 0 1-10.987-13.237.3.3 0 0 1 .561-.24 33.39 33.39 0 0 0 10.769 12.976.3.3 0 0 1 .081.421.3.3 0 0 1-.255.132zm11.1-11.258a.3.3 0 0 1-.255-.139c-.023-.035-2.3-3.577-6.632-11.338-1.05-2.147-2.934-3.77-5.213-4.491a10.17 10.17 0 0 0-6.933.921.3.3 0 1 1-.299-.527 10.57 10.57 0 0 1 7.39-.979 9.31 9.31 0 0 1 5.577 4.78c4.323 7.741 6.59 11.271 6.613 11.306a.3.3 0 0 1-.248.467z" opacity=".35" fill="#2d7697"/></g></svg>