<svg xmlns="http://www.w3.org/2000/svg" xmlns:xlink="http://www.w3.org/1999/xlink" width="136" height="136" viewBox="0 0 136 136">
  <defs>
    <linearGradient id="linear-gradient" x1="0.5" x2="0.5" y2="1" gradientUnits="objectBoundingBox">
      <stop offset="0" stop-color="#98e4ff"/>
      <stop offset="1" stop-color="#f1f8fd"/>
    </linearGradient>
  </defs>
  <g id="Group_71111" data-name="Group 71111" transform="translate(5654 -2759)">
    <circle id="Ellipse_1018" data-name="Ellipse 1018" cx="68" cy="68" r="68" transform="translate(-5654 2759)" fill="url(#linear-gradient)"/>
    <g id="_x3C_Group_x3E_" transform="translate(-5611.853 2790.231)">
      <path id="_x31_2" d="M12.895,34.849l.4,1.168a.867.867,0,0,1-.468,1.069L8.748,39.106A.868.868,0,0,1,7.6,38.739L4.472,32.926a.864.864,0,0,1,.189-1.059l10.8-10.237-2.23-2.779a.864.864,0,0,1,.134-1.215.68.68,0,0,1,.142-.093v0a4.862,4.862,0,0,1,3.994-.232,10.651,10.651,0,0,1,3.056,1.8,12.514,12.514,0,0,1,4.432.552c3.918,1.239,6.873,4.358,8.914,8.131a30.5,30.5,0,0,1,3.409,11.824,18.069,18.069,0,0,1-.536,6.533.867.867,0,0,1-.808.607,3.988,3.988,0,0,0-3.258,2.621,2.917,2.917,0,0,0,.027,1.945,4.915,4.915,0,0,0,1.921,2.244.866.866,0,0,1-.493,1.578H12.342a.866.866,0,0,1-.843-.665,13.6,13.6,0,0,1,3.806-13.159c4.257-4.257,4.653-5.458,3.967-7.072-1.2,1.129-2.905.889-4.468.67a4.806,4.806,0,0,0-1.91-.065Zm-1.485,1.01-.326-.958a.862.862,0,0,1,.06-.69c.788-1.45,2.271-1.242,3.9-1.012,1.392.2,2.949.418,3.54-1v0a.866.866,0,0,1,1.565-.071l.145.279c.008.014.016.03.025.044,1.633,3.1,2.172,4.128-3.786,10.084a11.907,11.907,0,0,0-3.513,10.863h18.94a5.334,5.334,0,0,1-.845-1.491,4.61,4.61,0,0,1-.049-3.077,5.6,5.6,0,0,1,1.62-2.411,5.68,5.68,0,0,1,2.585-1.318,17.384,17.384,0,0,0,.315-5.368,28.676,28.676,0,0,0-3.2-11.135c-1.841-3.406-4.471-6.208-7.912-7.3a10.9,10.9,0,0,0-4.126-.457v0a.86.86,0,0,1-.613-.194,9.644,9.644,0,0,0-2.791-1.718,3.522,3.522,0,0,0-1.573-.194l1.94,2.421,0,0a.864.864,0,0,1-.077,1.168L6.308,32.688l2.424,4.494Z" transform="translate(-2.413 -9.61)" fill="#212771"/>
      <path id="_x31_1" d="M13.684,101H41.031a1.779,1.779,0,0,1,1.775,1.778v2.955a1.773,1.773,0,0,1-1.775,1.774H13.684a1.778,1.778,0,0,1-1.776-1.774v-2.955a1.766,1.766,0,0,1,.522-1.255h0A1.759,1.759,0,0,1,13.684,101Zm27.347,1.734H13.684a.065.065,0,0,0-.03.011l0,0a.042.042,0,0,0-.013.029v2.955a.034.034,0,0,0,.013.027.036.036,0,0,0,.027.013H41.031a.033.033,0,0,0,.027-.013.031.031,0,0,0,.013-.027v-2.955a.041.041,0,0,0-.013-.029.031.031,0,0,0-.027-.013Z" transform="translate(-6.685 -57.2)" fill="#212771"/>
      <path id="_x31_0" d="M2.241,117.217H39.1a.4.4,0,0,0,.282-.115v0a.4.4,0,0,0,.117-.284v-2.67a.4.4,0,0,0-.115-.284l0,0a.4.4,0,0,0-.282-.115H2.241a.4.4,0,0,0-.282.115l0,0a.4.4,0,0,0-.115.284v2.67a.408.408,0,0,0,.117.284v0a.4.4,0,0,0,.282.115ZM39.1,118.951H2.241a2.126,2.126,0,0,1-1.5-.629l0,0a2.133,2.133,0,0,1-.626-1.509v-2.67a2.138,2.138,0,0,1,.626-1.507h0v0a2.133,2.133,0,0,1,1.5-.626H39.1a2.137,2.137,0,0,1,1.5.626l0,0a2.135,2.135,0,0,1,.626,1.507v2.67a2.132,2.132,0,0,1-.626,1.509v0A2.13,2.13,0,0,1,39.1,118.951Z" transform="translate(0 -63.438)" fill="#212771"/>
      <path id="_x39_" d="M92.086,25.281a.867.867,0,1,1,1.735,0V37.013H101.6a.865.865,0,0,1,.867.864V48.325a.867.867,0,0,1-1.735,0V38.744H92.953a.867.867,0,0,1-.867-.867Z" transform="translate(-52.104 -13.817)" fill="#009eff"/>
      <path id="_x38_" d="M85.9,29.121a.864.864,0,1,1-1.346-1.083L87.9,23.892a.869.869,0,0,1,1.218-.131.964.964,0,0,1,.131.131v0L92.6,28.032a.867.867,0,1,1-1.349,1.091l-2.678-3.31Z" transform="translate(-47.728 -13.339)" fill="#009eff"/>
      <path id="_x37_" d="M89.707.023a3.354,3.354,0,1,1-2.369.982A3.34,3.34,0,0,1,89.707.023Zm1.144,2.208a1.618,1.618,0,1,0,.473,1.144,1.612,1.612,0,0,0-.473-1.144Z" transform="translate(-48.858)" fill="#009eff"/>
      <path id="_x36_" d="M109.65,89.541a3.348,3.348,0,1,1-2.37.98,3.348,3.348,0,0,1,2.37-.98Zm1.141,2.208a1.615,1.615,0,1,0,.473,1.141A1.6,1.6,0,0,0,110.79,91.749Z" transform="translate(-60.155 -50.711)" fill="#009eff"/>
      <path id="_x35_" d="M118.462,25.079a.867.867,0,0,1,1.226,1.226l-4.515,4.514a.866.866,0,1,1-1.225-1.226Z" transform="translate(-64.345 -14.05)" fill="#009eff"/>
      <path id="_x34_" d="M119.688,29.593a.867.867,0,0,1-1.226,1.226L113.948,26.3a.866.866,0,0,1,1.225-1.226Z" transform="translate(-64.345 -14.05)" fill="#009eff"/>
      <path id="_x33_" d="M63.357,6.829a.867.867,0,1,1,1.226,1.226l-4.515,4.514a.866.866,0,1,1-1.225-1.226Z" transform="translate(-33.128 -3.711)" fill="#009eff"/>
      <path id="_x32_" d="M64.584,11.343a.867.867,0,0,1-1.226,1.226L58.844,8.054a.867.867,0,1,1,1.226-1.226Z" transform="translate(-33.129 -3.711)" fill="#009eff"/>
      <path id="_x31_" d="M46.456,31.695a.865.865,0,0,1,.689-1.587,15.278,15.278,0,0,1,7.149,7.433,26.085,26.085,0,0,1,2.457,11.822.863.863,0,0,1-1.727-.014,24.392,24.392,0,0,0-2.282-11.042A13.55,13.55,0,0,0,46.456,31.695Z" transform="translate(-25.961 -17.002)" fill="#212771"/>
    </g>
  </g>
</svg>
