<svg xmlns="http://www.w3.org/2000/svg" xmlns:xlink="http://www.w3.org/1999/xlink" width="136" height="136" viewBox="0 0 136 136">
  <defs>
    <linearGradient id="linear-gradient" x1="0.5" x2="0.5" y2="1" gradientUnits="objectBoundingBox">
      <stop offset="0" stop-color="#98e4ff"/>
      <stop offset="1" stop-color="#f1f8fd"/>
    </linearGradient>
  </defs>
  <g id="Group_71113" data-name="Group 71113" transform="translate(5654 -3011)">
    <circle id="Ellipse_1019" data-name="Ellipse 1019" cx="68" cy="68" r="68" transform="translate(-5654 3011)" fill="url(#linear-gradient)"/>
    <g id="shapes-and-symbols" transform="translate(-5612.017 3040.999)">
      <path id="Path_52070" data-name="Path 52070" d="M119.894,6.472,109.879.407a3.3,3.3,0,0,0-3.169,0l-.043.024L96.7,6.472a1.1,1.1,0,0,0-.531.943v10.82a3.282,3.282,0,0,0,1.676,2.877l8.87,5.441a3.26,3.26,0,0,0,1.57.4,3.423,3.423,0,0,0,1.647-.431L118.7,21.14a3.31,3.31,0,0,0,1.724-2.905V7.415a1.1,1.1,0,0,0-.531-.943ZM107.785,2.333a1.07,1.07,0,0,1,.992-.016l8.416,5.1-8.372,5.073a1.072,1.072,0,0,1-1.011.024L99.4,7.415ZM98.944,19.206a1.1,1.1,0,0,1-.575-.97V9.372l8.34,5.051a3.287,3.287,0,0,0,.482.191v9.649Zm18.652.029-8.2,5.03V14.607a3.415,3.415,0,0,0,.525-.208l8.3-5.027v8.863a1.133,1.133,0,0,1-.623,1Zm0,0" transform="translate(-82.674 0)" fill="#009eff"/>
      <path id="Path_52071" data-name="Path 52071" d="M119.894,286.472l-10.014-6.065a3.3,3.3,0,0,0-3.169,0l-.043.024L96.7,286.472a1.1,1.1,0,0,0-.531.943v10.82a3.282,3.282,0,0,0,1.676,2.877l8.87,5.441a3.259,3.259,0,0,0,1.57.4,3.423,3.423,0,0,0,1.647-.431l8.775-5.386a3.31,3.31,0,0,0,1.724-2.9v-10.82a1.1,1.1,0,0,0-.531-.943Zm-12.108-4.139a1.071,1.071,0,0,1,.992-.016l8.416,5.1-8.372,5.073a1.076,1.076,0,0,1-1.011.024l-8.416-5.1Zm-8.841,16.872a1.1,1.1,0,0,1-.575-.97v-8.863l8.34,5.051a3.292,3.292,0,0,0,.482.191v9.649Zm18.652.029-8.2,5.03v-9.657a3.414,3.414,0,0,0,.525-.208l8.3-5.027v8.863a1.133,1.133,0,0,1-.623,1Zm0,0" transform="translate(-82.674 -241.403)" fill="#212771"/>
      <path id="Path_52072" data-name="Path 52072" d="M166.781,217.093a3.308,3.308,0,1,0-3.308,3.308A3.308,3.308,0,0,0,166.781,217.093Zm-4.411,0a1.1,1.1,0,1,1,1.1,1.1A1.1,1.1,0,0,1,162.37,217.093Zm0,0" transform="translate(-137.852 -184.315)" fill="#009eff"/>
      <path id="Path_52073" data-name="Path 52073" d="M9.245,109.234l-1.559-1.559a25.379,25.379,0,0,0-4.581,29.578L.4,139.247l8.062,3.519-.983-8.741L4.9,135.93a23.178,23.178,0,0,1,4.346-26.7Zm0,0" transform="translate(0 -92.832)" fill="#212771"/>
      <path id="Path_52074" data-name="Path 52074" d="M309.1,118.847l2.7-1.992-8.062-3.519.983,8.741,2.584-1.906a23.179,23.179,0,0,1-4.346,26.7l1.559,1.559a25.381,25.381,0,0,0,4.581-29.579Zm0,0" transform="translate(-260.961 -97.712)" fill="#212771"/>
    </g>
  </g>
</svg>
