<svg xmlns="http://www.w3.org/2000/svg" xmlns:xlink="http://www.w3.org/1999/xlink" width="136" height="136" viewBox="0 0 136 136">
  <defs>
    <linearGradient id="linear-gradient" x1="0.5" x2="0.5" y2="1" gradientUnits="objectBoundingBox">
      <stop offset="0" stop-color="#98e4ff"/>
      <stop offset="1" stop-color="#f1f8fd"/>
    </linearGradient>
    <clipPath id="clip-path">
      <rect id="Rectangle_28091" data-name="Rectangle 28091" width="62.714" height="64.509" fill="none"/>
    </clipPath>
  </defs>
  <g id="Group_71164" data-name="Group 71164" transform="translate(-762 -9801)">
    <circle id="Ellipse_1014" data-name="Ellipse 1014" cx="68" cy="68" r="68" transform="translate(762 9801)" fill="url(#linear-gradient)"/>
    <g id="Group_71102" data-name="Group 71102" transform="translate(796 9830.715)">
      <g id="Group_71076" data-name="Group 71076" clip-path="url(#clip-path)">
        <path id="Path_52060" data-name="Path 52060" d="M9.184,10.609l4.961,4.96a1.008,1.008,0,0,0,1.425-1.425l-4.96-4.96a1.008,1.008,0,0,0-1.426,1.425M1.008,32.364H8.024a1.008,1.008,0,0,0,0-2.016H1.008a1.008,1.008,0,0,0,0,2.016m53.683,0h7.015a1.008,1.008,0,0,0,0-2.016H54.691a1.008,1.008,0,0,0,0,2.016ZM32.365,8.023V1.008a1.008,1.008,0,0,0-2.016,0V8.023a1.008,1.008,0,1,0,2.016,0m-19.9,22.326A18.948,18.948,0,0,1,30.349,12.462v3.2a5.035,5.035,0,0,0,0,9.867v4.815H24.628a1.008,1.008,0,0,0-1.008,1.008,3.019,3.019,0,0,1-6.037,0,1.008,1.008,0,0,0-1.008-1.008Zm19.9,6.83a5.035,5.035,0,0,1,0,9.867v4.586h6.147a6.9,6.9,0,0,1,3.059-4.348,18.854,18.854,0,0,0,8.68-14.92H46.14a1.008,1.008,0,0,1-1.008-1.008,3.019,3.019,0,1,0-6.037-.039c0,.013,0,.026,0,.039a1.008,1.008,0,0,1-1.008,1.008H32.365Zm5.975,20.086V56.8H24.374v.46a1,1,0,0,0,1,1H37.339a1,1,0,0,0,1-1ZM24.374,54.79H38.339V53.648H24.374Zm6.983-44.37a20.937,20.937,0,0,0-11.3,38.559A4.871,4.871,0,0,1,22.358,53.2v4.063A3.021,3.021,0,0,0,24.672,60.2l.542,2.06a2.981,2.981,0,0,0,2.917,2.251h6.452a2.983,2.983,0,0,0,2.919-2.25l.54-2.06a3.02,3.02,0,0,0,2.313-2.933V53.2a4.872,4.872,0,0,1,2.306-4.222,20.866,20.866,0,0,0,9.633-17.623,1.008,1.008,0,0,0-1.008-1.008H47.047a5.035,5.035,0,0,0-9.867,0H32.365V24.627a1.008,1.008,0,0,0-1.008-1.008,3.019,3.019,0,0,1,0-6.037,1.008,1.008,0,0,0,1.008-1.008V11.428a1.008,1.008,0,0,0-1.008-1.008Zm21.461,43.4a1.006,1.006,0,0,1-.713-.3l-4.961-4.961a1.008,1.008,0,1,1,1.425-1.426L53.529,52.1a1.008,1.008,0,0,1-.712,1.72M9.184,52.1l4.961-4.962a1.008,1.008,0,1,1,1.425,1.426l-4.96,4.961A1.008,1.008,0,0,1,9.184,52.1" fill="#222872" fill-rule="evenodd"/>
        <path id="Path_52061" data-name="Path 52061" d="M273.8,20.694A20.96,20.96,0,0,1,294.734,41.63a1.008,1.008,0,0,1-1.008,1.008h-5.146a1.006,1.006,0,0,1-1.008-1v0a3.019,3.019,0,0,0-6.038,0,1.008,1.008,0,0,1-1.008,1.008H273.8a1.008,1.008,0,0,1-1.008-1.008V35.807a5.035,5.035,0,0,1,0-9.867V21.7a1.008,1.008,0,0,1,1.008-1.008Z" transform="translate(-234.9 -18.087)" fill="#009eff" fill-rule="evenodd"/>
      </g>
    </g>
  </g>
</svg>
