<svg xmlns="http://www.w3.org/2000/svg" xmlns:xlink="http://www.w3.org/1999/xlink" width="136" height="136" viewBox="0 0 136 136">
  <defs>
    <linearGradient id="linear-gradient" x1="0.5" x2="0.5" y2="1" gradientUnits="objectBoundingBox">
      <stop offset="0" stop-color="#98e4ff"/>
      <stop offset="1" stop-color="#f1f8fd"/>
    </linearGradient>
  </defs>
  <g id="Group_71105" data-name="Group 71105" transform="translate(5654 -2003)">
    <circle id="Ellipse_1015" data-name="Ellipse 1015" cx="68" cy="68" r="68" transform="translate(-5654 2003)" fill="url(#linear-gradient)"/>
    <g id="Layer_x0020_1" transform="translate(-5638.666 2022.801)">
      <g id="_538204760" transform="translate(15.963 12.444)">
        <path id="_538205360" d="M96.247,45.961H92.008V43.024h4.239a.151.151,0,0,0,.144-.121l1.721-8.381a3.1,3.1,0,0,1,3.023-2.468h2.9a5.26,5.26,0,0,0,0,2.939h-2.9a.152.152,0,0,0-.144.119L99.27,43.493A3.1,3.1,0,0,1,96.247,45.961Zm3.607,4.25,1.878-5.671a2.594,2.594,0,0,1,2.469-1.773h5.326a5.259,5.259,0,0,0,.01,2.939h-5.094l-1.88,5.669a2.593,2.593,0,0,1-2.468,1.775H92.008V50.212Zm4.178,34.483h-2.9a3.1,3.1,0,0,1-3.023-2.468l-1.721-8.379a.15.15,0,0,0-.144-.121H92.008V70.787h4.239a3.1,3.1,0,0,1,3.024,2.468l1.719,8.379a.152.152,0,0,0,.144.121h2.9a5.26,5.26,0,0,0,0,2.939ZM99.854,66.538H92.008V63.6H100.1a2.594,2.594,0,0,1,2.468,1.772l1.879,5.671h5.1a5.257,5.257,0,0,0-.011,2.939H104.2a2.593,2.593,0,0,1-2.468-1.772Zm15.079-6.695H92.008V56.9h22.925a5.259,5.259,0,0,0,0,2.939Z" transform="translate(-55.391 -22.612)" fill="#222872" fill-rule="evenodd"/>
        <path id="_538205576" d="M23.253,26.1l4.378,5.878a.858.858,0,0,1,.036.973,28.2,28.2,0,0,0-3.736,9.026.856.856,0,0,1-.712.661L15.963,43.7V52.7l7.256,1.067a.859.859,0,0,1,.712.663,28.213,28.213,0,0,0,3.736,9.026.857.857,0,0,1-.036.973L23.253,70.3l6.361,6.359,5.878-4.377a.849.849,0,0,1,.512-.17.86.86,0,0,1,.46.134,28.236,28.236,0,0,0,9.026,3.736.855.855,0,0,1,.661.712l1.068,7.256h3.647V71.328a23.137,23.137,0,0,1,0-46.242V12.444H47.22L46.152,19.7a.856.856,0,0,1-.662.712,28.2,28.2,0,0,0-9.026,3.736.858.858,0,0,1-.973-.036l-5.878-4.378L23.253,26.1Z" transform="translate(-15.963 -12.444)" fill="#009eff" fill-rule="evenodd"/>
        <g id="Group_71079" data-name="Group 71079" transform="translate(20.933 7.375)">
          <path id="_538205120" d="M73.408,55.97a14.829,14.829,0,0,0,0,29.609Z" transform="translate(-59.436 -42.387)" fill="#222872" fill-rule="evenodd"/>
          <g id="Group_71078" data-name="Group 71078" transform="translate(29.21)">
            <path id="_538205072" d="M123.638,27.761a3.537,3.537,0,1,0,3.537,3.537A3.541,3.541,0,0,0,123.638,27.761Z" transform="translate(-120.1 -27.761)" fill="#222872" fill-rule="evenodd"/>
            <path id="_538205456" d="M131.525,53.512a3.538,3.538,0,1,0,3.539-3.539,3.543,3.543,0,0,0-3.539,3.539Z" transform="translate(-126.024 -39.278)" fill="#222872" fill-rule="evenodd"/>
            <path id="_538204688" d="M146.277,79.37a3.537,3.537,0,1,0,3.539,3.537A3.541,3.541,0,0,0,146.277,79.37Z" transform="translate(-131.838 -54.52)" fill="#222872" fill-rule="evenodd"/>
            <path id="_538204424" d="M123.638,130.98a3.538,3.538,0,1,0,3.537,3.537A3.541,3.541,0,0,0,123.638,130.98Z" transform="translate(-120.1 -81.279)" fill="#222872" fill-rule="evenodd"/>
            <path id="_538204400" d="M131.525,112.3a3.538,3.538,0,1,0,3.539-3.539,3.543,3.543,0,0,0-3.539,3.539Z" transform="translate(-126.024 -69.76)" fill="#222872" fill-rule="evenodd"/>
          </g>
        </g>
      </g>
    </g>
  </g>
</svg>
