<svg xmlns="http://www.w3.org/2000/svg" xmlns:xlink="http://www.w3.org/1999/xlink" width="136" height="136" viewBox="0 0 136 136">
  <defs>
    <linearGradient id="linear-gradient" x1="0.5" x2="0.5" y2="1" gradientUnits="objectBoundingBox">
      <stop offset="0" stop-color="#98e4ff"/>
      <stop offset="1" stop-color="#f1f8fd"/>
    </linearGradient>
  </defs>
  <g id="Group_71107" data-name="Group 71107" transform="translate(5654 -2255)">
    <circle id="Ellipse_1016" data-name="Ellipse 1016" cx="68" cy="68" r="68" transform="translate(-5654 2255)" fill="url(#linear-gradient)"/>
    <g id="Scalability" transform="translate(-5637.084 2273.916)">
      <path id="Path_52062" data-name="Path 52062" d="M49.294,228.007v13.042a4.246,4.246,0,0,1-4.245,4.245h-20.8A4.246,4.246,0,0,1,20,241.048v-20.8A4.246,4.246,0,0,1,24.245,216H37.287" transform="translate(0 -175.126)" fill="none" stroke="#222872" stroke-linecap="round" stroke-linejoin="round" stroke-width="4"/>
      <path id="Path_52063" data-name="Path 52063" d="M32.312,20H26.368A6.368,6.368,0,0,0,20,26.368v5.944" transform="translate(0 0.071)" fill="none" stroke="#222872" stroke-linecap="round" stroke-linejoin="round" stroke-width="4"/>
      <line id="Line_130" data-name="Line 130" x2="10" transform="translate(40.084 19.084)" fill="none" stroke="#222872" stroke-linecap="round" stroke-linejoin="round" stroke-width="4"/>
      <path id="Path_52064" data-name="Path 52064" d="M376,20h5.944a6.368,6.368,0,0,1,6.368,6.368v5.944" transform="translate(-318.215 0.071)" fill="none" stroke="#222872" stroke-linecap="round" stroke-linejoin="round" stroke-width="4"/>
      <path id="Path_52065" data-name="Path 52065" d="M388.312,376v5.944a6.368,6.368,0,0,1-6.368,6.368H376" transform="translate(-318.215 -318.145)" fill="none" stroke="#222872" stroke-linecap="round" stroke-linejoin="round" stroke-width="4"/>
      <line id="Line_131" data-name="Line 131" y2="10" transform="translate(71.084 40.084)" fill="none" stroke="#222872" stroke-linecap="round" stroke-linejoin="round" stroke-width="4"/>
      <line id="Line_132" data-name="Line 132" y1="26.807" x2="26.807" transform="translate(33.555 29.805)" fill="none" stroke="#009eff" stroke-linecap="round" stroke-linejoin="round" stroke-width="4"/>
      <path id="Path_52066" data-name="Path 52066" d="M136,316v6.368h6.368" transform="translate(-103.688 -264.513)" fill="none" stroke="#009eff" stroke-linecap="round" stroke-linejoin="round" stroke-width="4"/>
      <path id="Path_52067" data-name="Path 52067" d="M352,100h6.368v6.368" transform="translate(-296.763 -71.438)" fill="none" stroke="#009eff" stroke-linecap="round" stroke-linejoin="round" stroke-width="4"/>
    </g>
  </g>
</svg>
