<svg xmlns="http://www.w3.org/2000/svg" xmlns:xlink="http://www.w3.org/1999/xlink" width="136" height="136" viewBox="0 0 136 136">
  <defs>
    <linearGradient id="linear-gradient" x1="0.5" x2="0.5" y2="1" gradientUnits="objectBoundingBox">
      <stop offset="0" stop-color="#98e4ff"/>
      <stop offset="1" stop-color="#f1f8fd"/>
    </linearGradient>
    <clipPath id="clip-path">
      <rect id="Rectangle_28092" data-name="Rectangle 28092" width="57.676" height="57.676" fill="#212771"/>
    </clipPath>
  </defs>
  <g id="Group_71115" data-name="Group 71115" transform="translate(5654 -3263)">
    <circle id="Ellipse_1020" data-name="Ellipse 1020" cx="68" cy="68" r="68" transform="translate(-5654 3263)" fill="url(#linear-gradient)"/>
    <g id="Group_71103" data-name="Group 71103" transform="translate(-5616.203 3299.938)">
      <g id="Group_71084" data-name="Group 71084" clip-path="url(#clip-path)">
        <path id="Path_52075" data-name="Path 52075" d="M45.657,38.472a1.353,1.353,0,0,0-1.913,0l-.139.139-2.555-2.555a22.711,22.711,0,1,0-5,4.992l2.557,2.557-.139.139a1.353,1.353,0,0,0,0,1.913h0L49.033,56.219a5.081,5.081,0,0,0,7.185-7.185ZM8.551,36.833a20,20,0,1,1,28.281,0,20.021,20.021,0,0,1-28.281,0m29.6,2.485c.2-.187.4-.377.6-.572s.385-.395.572-.6l2.374,2.374-1.168,1.168Zm6.55,2.023,1.206,1.206-3.359,3.359L41.341,44.7Zm9.6,12.964a2.378,2.378,0,0,1-3.359,0L44.459,47.82l3.359-3.359L54.3,50.947A2.378,2.378,0,0,1,54.3,54.306Z" transform="translate(0 0)" fill="#212771"/>
        <path id="Path_52076" data-name="Path 52076" d="M107.451,238.2v3.772a1.353,1.353,0,1,1-2.705,0V238.2a1.353,1.353,0,0,1,2.705,0Z" transform="translate(-92.939 -210.149)" fill="#009eff"/>
        <path id="Path_52077" data-name="Path 52077" d="M157.851,186.216v9.631a1.353,1.353,0,1,1-2.705,0v-9.631a1.353,1.353,0,0,1,2.705,0Z" transform="translate(-137.658 -164.025)" fill="#009eff"/>
        <path id="Path_52078" data-name="Path 52078" d="M208.251,210.8v6.86a1.353,1.353,0,1,1-2.705,0V210.8a1.353,1.353,0,0,1,2.705,0Z" transform="translate(-182.377 -185.839)" fill="#009eff"/>
        <path id="Path_52079" data-name="Path 52079" d="M258.651,151.172v13.582a1.353,1.353,0,1,1-2.705,0V151.172a1.353,1.353,0,0,1,2.705,0Z" transform="translate(-227.096 -132.931)" fill="#009eff"/>
        <path id="Path_52080" data-name="Path 52080" d="M116.871,105.218l-4.718-2.3-5,6.121a1.353,1.353,0,0,1-2.094-1.712l5.681-6.95a1.353,1.353,0,0,1,1.64-.36l4.735,2.31,5-5.918a1.353,1.353,0,0,1,2.066,1.746l-5.682,6.721a1.353,1.353,0,0,1-1.626.343Z" transform="translate(-92.942 -85.12)" fill="#009eff"/>
      </g>
    </g>
  </g>
</svg>
