<svg xmlns="http://www.w3.org/2000/svg" width="45.733" height="45.737" viewBox="0 0 45.733 45.737">
  <path id="security" d="M5.1,29.6a17.338,17.338,0,1,1,24.52,0,17.338,17.338,0,0,1-24.52,0ZM44.779,44.758a3.371,3.371,0,0,0,0-4.747L33.469,28.7A20.028,20.028,0,0,1,31.3,31.274a19.814,19.814,0,0,1-2.574,2.174L40.032,44.758a3.361,3.361,0,0,0,4.748,0ZM26.851,8.535c-4.366.328-7.124-.8-8.427-3.448a1.183,1.183,0,0,0-2.123,0C15,7.735,12.241,8.863,7.874,8.535a1.184,1.184,0,0,0-1.255.985A19.871,19.871,0,0,0,8.7,22.509a17.439,17.439,0,0,0,8.19,7.65,1.177,1.177,0,0,0,.94,0,17.439,17.439,0,0,0,8.19-7.65A19.87,19.87,0,0,0,28.107,9.52a1.182,1.182,0,0,0-1.256-.985ZM17.362,27.773c4.96-2.395,9.512-8.5,8.558-16.825q-.231.006-.458.006c-3.65,0-6.362-1.062-8.1-3.168-1.81,2.194-4.677,3.254-8.557,3.162C7.851,19.268,12.4,25.378,17.362,27.773ZM22.4,15.1a1.183,1.183,0,1,0-1.861-1.46L16.656,18.59l-2.611-2.331a1.182,1.182,0,1,0-1.575,1.764l3.551,3.171a1.185,1.185,0,0,0,.788.3,1.016,1.016,0,0,0,.1,0,1.181,1.181,0,0,0,.826-.448Z" transform="translate(-0.024 -0.003)" fill="#fff" fill-rule="evenodd"/>
</svg>
