<svg xmlns="http://www.w3.org/2000/svg" xmlns:xlink="http://www.w3.org/1999/xlink" width="232" height="232" viewBox="0 0 232 232">
  <defs>
    <linearGradient id="linear-gradient" x1="0.368" y1="0.752" x2="0.121" y2="0.149" gradientUnits="objectBoundingBox">
      <stop offset="0" stop-color="#0275f9"/>
      <stop offset="1" stop-color="#04afff"/>
    </linearGradient>
    <clipPath id="clip-See_how_your_ads_are_doing">
      <rect width="232" height="232"/>
    </clipPath>
  </defs>
  <g id="See_how_your_ads_are_doing" data-name="See how your ads are doing" clip-path="url(#clip-See_how_your_ads_are_doing)">
    <rect width="232" height="232" fill="#fff"/>
    <g id="Group_5" data-name="Group 5" transform="translate(430.04 103.373)">
      <path id="Path_22" data-name="Path 22" d="M-280.9,74.021-349.313,5.635c.259-.541.563-1.242.92-1.916q20.823-39.359,41.655-78.712c3.465-6.544,8.686-7.367,13.882-2.175q47.311,47.268,94.612,94.547c4.952,4.95,4.168,10.38-1.986,13.667q-39.485,21.084-78.985,42.143C-279.767,73.482-280.336,73.743-280.9,74.021Z" transform="translate(-25.897 -7.623)" fill="url(#linear-gradient)"/>
      <path id="Path_23" data-name="Path 23" d="M-371.616,84.515l53.646,53.683c-.309.34-.756.874-1.247,1.363q-9.564,9.547-19.142,19.078c-10,9.908-23.753,9.869-33.742-.087q-9.99-9.957-19.947-19.948c-9.838-9.88-9.884-23.687-.084-33.568C-385.289,98.136-378.393,91.291-371.616,84.515Z" transform="translate(-7.538 -68.064)" fill="url(#linear-gradient)"/>
      <path id="Path_24" data-name="Path 24" d="M-295.2,211.913l26.746-26.287c5.113,5.33,10.614,10.275,15.146,15.988,5.856,7.382,4.4,18.362-2.489,24.772-6.867,6.387-17.652,7.03-24.69.783C-285.832,222.421-290.469,216.87-295.2,211.913Z" transform="translate(-45.712 -105.086)" fill="url(#linear-gradient)"/>
      <path id="Path_25" data-name="Path 25" d="M-380.568,209.155c-6.386,3.09-19.721,2.382-29-5.941-9.221-8.274-12.918-21.816-8.809-31.921A257.872,257.872,0,0,0-380.568,209.155Z" transform="translate(0 -99.838)" fill="url(#linear-gradient)"/>
      <path id="Path_26" data-name="Path 26" d="M-137.936-56.8c-.493.915-1.093,2.894-2.367,4.236-4.9,5.159-9.965,10.155-15.051,15.128a7.485,7.485,0,0,1-10.829.015,7.471,7.471,0,0,1,.1-10.659q7.546-7.712,15.262-15.255A7.082,7.082,0,0,1-142.5-64.79C-139.547-63.477-138.128-61.044-137.936-56.8Z" transform="translate(-92.15 -13.122)" fill="url(#linear-gradient)"/>
      <path id="Path_27" data-name="Path 27" d="M-201.1-86.2c0,2.45.037,4.9-.006,7.351a7.62,7.62,0,0,1-7.527,7.821,7.59,7.59,0,0,1-7.629-7.713q-.092-7.468,0-14.938a7.55,7.55,0,0,1,7.632-7.7,7.6,7.6,0,0,1,7.516,7.59C-201.043-91.256-201.1-88.725-201.1-86.2Z" transform="translate(-74.599)" fill="url(#linear-gradient)"/>
      <path id="Path_28" data-name="Path 28" d="M-117.156,6.39c2.529,0,5.06-.058,7.587.014a7.6,7.6,0,0,1,7.507,7.6,7.554,7.554,0,0,1-7.55,7.547q-7.585.125-15.175,0a7.577,7.577,0,0,1-7.623-7.481A7.576,7.576,0,0,1-124.744,6.4C-122.216,6.345-119.685,6.39-117.156,6.39Z" transform="translate(-105.317 -39.45)" fill="url(#linear-gradient)"/>
    </g>
  </g>
</svg>
