<svg xmlns="http://www.w3.org/2000/svg" width="85.185" height="93.496" viewBox="0 0 85.185 93.496">
  <g id="Group_17835" data-name="Group 17835" transform="translate(0.01)">
    <circle id="Ellipse_171" data-name="Ellipse 171" cx="5.194" cy="5.194" r="5.194" transform="translate(47.777 54.02)" fill="#06b2ff"/>
    <circle id="Ellipse_161" data-name="Ellipse 161" cx="5.194" cy="5.194" r="5.194" transform="translate(-0.01)" fill="#06b2ff"/>
    <circle id="Ellipse_165" data-name="Ellipse 165" cx="5.194" cy="5.194" r="5.194" transform="translate(-0.01 27.01)" fill="#06b2ff"/>
    <circle id="Ellipse_169" data-name="Ellipse 169" cx="5.194" cy="5.194" r="5.194" transform="translate(-0.01 54.02)" fill="#06b2ff"/>
    <circle id="Ellipse_173" data-name="Ellipse 173" cx="5.194" cy="5.194" r="5.194" transform="translate(-0.01 83.108)" fill="#06b2ff"/>
    <circle id="Ellipse_162" data-name="Ellipse 162" cx="5.194" cy="5.194" r="5.194" transform="translate(24.923)" fill="#06b2ff"/>
    <circle id="Ellipse_166" data-name="Ellipse 166" cx="5.194" cy="5.194" r="5.194" transform="translate(24.923 27.01)" fill="#06b2ff"/>
    <circle id="Ellipse_170" data-name="Ellipse 170" cx="5.194" cy="5.194" r="5.194" transform="translate(24.923 54.02)" fill="#06b2ff"/>
    <circle id="Ellipse_174" data-name="Ellipse 174" cx="5.194" cy="5.194" r="5.194" transform="translate(24.923 83.108)" fill="#06b2ff"/>
    <circle id="Ellipse_163" data-name="Ellipse 163" cx="5.194" cy="5.194" r="5.194" transform="translate(47.777)" fill="#06b2ff" opacity="0.5"/>
    <circle id="Ellipse_175" data-name="Ellipse 175" cx="5.194" cy="5.194" r="5.194" transform="translate(47.777 83.108)" fill="#06b2ff"/>
    <circle id="Ellipse_164" data-name="Ellipse 164" cx="5.194" cy="5.194" r="5.194" transform="translate(74.787)" fill="#06b2ff" opacity="0.5"/>
    <circle id="Ellipse_168" data-name="Ellipse 168" cx="5.194" cy="5.194" r="5.194" transform="translate(74.787 27.01)" fill="#06b2ff" opacity="0.5"/>
    <circle id="Ellipse_172" data-name="Ellipse 172" cx="5.194" cy="5.194" r="5.194" transform="translate(74.787 54.02)" fill="#06b2ff"/>
    <circle id="Ellipse_176" data-name="Ellipse 176" cx="5.194" cy="5.194" r="5.194" transform="translate(74.787 83.108)" fill="#06b2ff"/>
    <circle id="Ellipse_727" data-name="Ellipse 727" cx="5.194" cy="5.194" r="5.194" transform="translate(49.855 27.01)" fill="#06b2ff" opacity="0.5"/>
  </g>
</svg>
