<svg xmlns="http://www.w3.org/2000/svg" width="19.519" height="19.877" viewBox="0 0 19.519 19.877">
  <path id="Path_3822" data-name="Path 3822" d="M13.171,0h-.032A9.751,9.751,0,0,0,5.491,15.828L4.069,19.135a.53.53,0,0,0,.277.7.541.541,0,0,0,.3.037l5.214-.916a9.4,9.4,0,0,0,3.249.565A9.759,9.759,0,0,0,13.171,0ZM9.826,7.807H12.7a.533.533,0,0,1,0,1.065H9.826a.533.533,0,0,1,0-1.065Zm6.6,3.728h-6.6a.533.533,0,0,1,0-1.065h6.6a.533.533,0,1,1,0,1.065Z" transform="translate(-3.366)" fill="#06b2ff"/>
</svg>
