<svg xmlns="http://www.w3.org/2000/svg" xmlns:xlink="http://www.w3.org/1999/xlink" width="173" height="173" viewBox="0 0 173 173">
  <defs>
    <linearGradient id="linear-gradient" x1="0.5" x2="0.5" y2="1" gradientUnits="objectBoundingBox">
      <stop offset="0" stop-color="#99e4ff"/>
      <stop offset="1" stop-color="#f1f8fd"/>
    </linearGradient>
  </defs>
  <g id="Group_70555" data-name="Group 70555" transform="translate(-323 -2314)">
    <circle id="Ellipse_990" data-name="Ellipse 990" cx="86.5" cy="86.5" r="86.5" transform="translate(323 2314)" fill="url(#linear-gradient)"/>
    <g id="a" transform="translate(374.612 2365.78)">
      <path id="Path_51853" data-name="Path 51853" d="M53.554,56.405a2.337,2.337,0,0,1-1.726-3.911L55.65,48.3a.177.177,0,0,0,0-.15l-3.411-3.7a4.8,4.8,0,0,1,0-6.472l3.413-3.707a.186.186,0,0,0,0-.141l-3.411-3.7a4.8,4.8,0,0,1,0-6.471l3.413-3.707a.185.185,0,0,0,0-.141l-3.827-4.2a2.337,2.337,0,1,1,3.453-3.149l3.822,4.19a4.8,4.8,0,0,1-.007,6.463l-3.413,3.707a.186.186,0,0,0,0,.141l3.411,3.7a4.8,4.8,0,0,1,0,6.471l-3.413,3.707a.185.185,0,0,0,0,.141l3.411,3.7a4.8,4.8,0,0,1,0,6.471l-3.815,4.182a2.331,2.331,0,0,1-1.727.762Z" transform="translate(8.427 1.686)" fill="#26aefe"/>
      <path id="Path_51854" data-name="Path 51854" d="M7.8,56.405a2.337,2.337,0,0,0,1.726-3.911L5.7,48.3a.177.177,0,0,1,0-.15l3.411-3.7a4.8,4.8,0,0,0,0-6.472L5.693,34.273a.185.185,0,0,1,0-.141l3.411-3.7a4.8,4.8,0,0,0,0-6.471L5.693,20.25a.185.185,0,0,1,0-.141l3.827-4.2a2.337,2.337,0,1,0-3.453-3.149l-3.822,4.19a4.8,4.8,0,0,0,.007,6.463l3.413,3.707a.185.185,0,0,1,0,.141l-3.411,3.7a4.8,4.8,0,0,0,0,6.471l3.413,3.707a.185.185,0,0,1,0,.141l-3.411,3.7a4.8,4.8,0,0,0,0,6.471l3.815,4.182a2.331,2.331,0,0,0,1.727.762Z" transform="translate(0 1.686)" fill="#26aefe"/>
      <ellipse id="Ellipse_995" data-name="Ellipse 995" cx="4" cy="3.5" rx="4" ry="3.5" transform="translate(30.888 50.72)" fill="#26aefe"/>
      <path id="Path_51855" data-name="Path 51855" d="M30.169,4.337a1.17,1.17,0,0,0,1.169-1.169V2H29V3.169A1.17,1.17,0,0,0,30.169,4.337Z" transform="translate(4.72)" fill="#26aefe"/>
      <path id="Path_51856" data-name="Path 51856" d="M19.826,56.339A8.15,8.15,0,0,1,14.1,53.991a5.851,5.851,0,0,0,5.726,4.685H45.534a5.852,5.852,0,0,0,5.726-4.685,8.15,8.15,0,0,1-5.726,2.348Z" transform="translate(2.208 8.764)" fill="#26aefe"/>
      <path id="Path_51857" data-name="Path 51857" d="M31.475,10H29.782a3.507,3.507,0,0,0-3.5,3.739l1.787,26.8A2.343,2.343,0,0,0,30.4,42.721h.452a2.344,2.344,0,0,0,2.332-2.182l1.787-26.8A3.507,3.507,0,0,0,31.477,10Z" transform="translate(4.261 1.348)" fill="#26aefe"/>
      <path id="Path_51858" data-name="Path 51858" d="M45.551,2H36.2V3.169a3.506,3.506,0,1,1-7.011,0V2H19.843A5.849,5.849,0,0,0,14,7.843v49.08a5.849,5.849,0,0,0,5.843,5.843H45.551a5.849,5.849,0,0,0,5.843-5.843V7.843A5.849,5.849,0,0,0,45.551,2ZM32.7,60.428a5.843,5.843,0,1,1,5.843-5.843A5.849,5.849,0,0,1,32.7,60.428Zm4.889-18.386a4.685,4.685,0,0,1-4.664,4.363H32.47a4.685,4.685,0,0,1-4.664-4.363l-1.787-26.8A5.843,5.843,0,0,1,31.85,9.01h1.693a5.843,5.843,0,0,1,5.83,6.232Z" transform="translate(2.191)" fill="#26aefe"/>
    </g>
  </g>
</svg>
