<svg xmlns="http://www.w3.org/2000/svg" xmlns:xlink="http://www.w3.org/1999/xlink" width="173" height="173" viewBox="0 0 173 173">
  <defs>
    <linearGradient id="linear-gradient" x1="0.5" x2="0.5" y2="1" gradientUnits="objectBoundingBox">
      <stop offset="0" stop-color="#99e4ff"/>
      <stop offset="1" stop-color="#f1f8fd"/>
    </linearGradient>
  </defs>
  <g id="Group_70650" data-name="Group 70650" transform="translate(-323 -1878)">
    <circle id="Ellipse_727" data-name="Ellipse 727" cx="86.5" cy="86.5" r="86.5" transform="translate(323 1878)" fill="url(#linear-gradient)"/>
    <g id="Glyph" transform="translate(373.307 1928.297)">
      <g id="Glyph-2" data-name="Glyph" transform="translate(0.15 0.16)">
        <path id="Path_51848" data-name="Path 51848" d="M74.045,48.032a.847.847,0,0,0-.627,1.016,34.953,34.953,0,0,1,.931,7.993A34.391,34.391,0,0,1,40,91.391a33.947,33.947,0,0,1-20.706-6.955,5.683,5.683,0,1,0-1.146,1.253A35.62,35.62,0,0,0,40,93.085a36.082,36.082,0,0,0,35.067-44.42.847.847,0,0,0-1.022-.632Z" transform="translate(-3.956 -20.998)" fill="#26aefe"/>
        <path id="Path_51849" data-name="Path 51849" d="M1.843,36.2A34.352,34.352,0,0,1,54.184,6.94a5.062,5.062,0,1,0,.965-1.394A36.054,36.054,0,0,0,.748,42.763a.841.841,0,0,0,.83.694.7.7,0,0,0,.152-.017.847.847,0,0,0,.683-.982,34.373,34.373,0,0,1-.57-6.255Z" transform="translate(-0.15 -0.16)" fill="#26aefe"/>
        <path id="Path_51850" data-name="Path 51850" d="M55,50.128v.508H65.161v-.508C65.082,43.264,55.079,43.264,55,50.128Z" transform="translate(-24.037 -19.679)" fill="#26aefe"/>
        <path id="Path_51851" data-name="Path 51851" d="M67.417,26.043c-9.529.1-18.7-5.792-22.2-8.332a2.526,2.526,0,0,0-2.958,0c-3.506,2.54-12.7,8.405-22.2,8.332a2.56,2.56,0,0,0-2.585,2.552c.006,13.034,2.614,31.68,25.12,43.071a2.523,2.523,0,0,0,2.292,0C67.389,60.274,70,41.629,70,28.595a2.571,2.571,0,0,0-2.585-2.552ZM53.05,51.818a4.234,4.234,0,0,1-4.234,4.234H38.656a4.234,4.234,0,0,1-4.234-4.234V42.786a4.234,4.234,0,0,1,2.54-3.878v-.875c.1-9.06,13.446-9.06,13.548,0v.875a4.234,4.234,0,0,1,2.54,3.878Z" transform="translate(-7.693 -7.595)" fill="#26aefe"/>
        <path id="Path_51852" data-name="Path 51852" d="M63.705,66.24a.546.546,0,0,1,.113-.431,1.822,1.822,0,1,0-3,0,.541.541,0,0,1,.113.427c-.133.661-.508,2.551-.773,3.863a1.129,1.129,0,0,0,1.108,1.347h2.1a1.129,1.129,0,0,0,1.108-1.35Z" transform="translate(-26.275 -27.505)" fill="#26aefe"/>
      </g>
    </g>
  </g>
</svg>
