<svg id="Group_70655" data-name="Group 70655" xmlns="http://www.w3.org/2000/svg" xmlns:xlink="http://www.w3.org/1999/xlink" width="100" height="100" viewBox="0 0 100 100">
  <defs>
    <linearGradient id="linear-gradient" x1="0.5" y1="1" x2="0.5" gradientUnits="objectBoundingBox">
      <stop offset="0" stop-color="#f1f8fd"/>
      <stop offset="1" stop-color="#d8f4ff"/>
    </linearGradient>
  </defs>
  <circle id="Ellipse_988" data-name="Ellipse 988" cx="50" cy="50" r="50" fill="url(#linear-gradient)"/>
  <g id="Screenshot_2023-05-30_at_1.44.45_PM" data-name="Screenshot 2023-05-30 at 1.44.45 PM" transform="translate(-26.19 -25.185)">
    <path id="Path_51831" data-name="Path 51831" d="M66.852,55.437a1.241,1.241,0,0,1,.449.616,1.212,1.212,0,0,1-1.274,1.532q-3.568.013-7.309.013a.116.116,0,0,0-.116.116q0,3.74,0,7.309a1.3,1.3,0,0,1-.418,1.027,1.16,1.16,0,0,1-.957.28,1.075,1.075,0,0,1-.8-.506,1.644,1.644,0,0,1-.2-.855q-.072-4.116,0-8.233a2.265,2.265,0,0,1,.143-.907,1.083,1.083,0,0,1,.486-.482,1.509,1.509,0,0,1,.644-.122q4.438-.08,8.75,0A1.007,1.007,0,0,1,66.852,55.437Z" transform="translate(0 0)" fill="#06b2ff"/>
    <path id="Path_51832" data-name="Path 51832" d="M270.6,57.66q-5.844-.026-7.022-.009a3.347,3.347,0,0,1-.7-.055,1.185,1.185,0,0,1-.6-.314,1.07,1.07,0,0,1-.255-1.271,1.146,1.146,0,0,1,.445-.558,1.325,1.325,0,0,1,.726-.2q4.251-.009,8.5.026a1.194,1.194,0,0,1,1.354,1.336v4.6q0,.329.024,1.842.014.923-.009,1.844a2.05,2.05,0,0,1-.2.964,1.026,1.026,0,0,1-.945.522,1.214,1.214,0,0,1-.871-.32,1.239,1.239,0,0,1-.363-.953q.011-2.476-.009-7.379A.072.072,0,0,0,270.6,57.66Z" transform="translate(-176.215 -0.054)" fill="#06b2ff"/>
    <path id="Path_51833" data-name="Path 51833" d="M85.933,79.817q.275.263.109.515a.429.429,0,0,1-.38.207l-4.232-.009a.083.083,0,0,0-.085.072l-.049.539a.249.249,0,0,1-.194.227q-.5.095-.554-.228-.02-.135-.043-.815-.017-.475.33-.561a5.03,5.03,0,0,1,.557-.014h4.375A.238.238,0,0,1,85.933,79.817Z" transform="translate(-20.826 -21.041)" fill="#06b2ff"/>
    <rect id="Rectangle_27835" data-name="Rectangle 27835" width="2.255" height="0.783" rx="0.392" transform="translate(88.486 58.709)" fill="#06b2ff"/>
    <path id="Path_51834" data-name="Path 51834" d="M304.021,80.551l-.676-.067a.136.136,0,0,1-.1-.077q-.207-.4.079-.568a1.043,1.043,0,0,1,.5-.088h.726a.276.276,0,0,1,.31.3q.06,1.6.067,3.287,0,.7-.654.475a.2.2,0,0,1-.135-.181l-.044-3.01a.075.075,0,0,0-.07-.07Z" transform="translate(-211.532 -21.041)" fill="#06b2ff"/>
    <rect id="Rectangle_27836" data-name="Rectangle 27836" width="0.778" height="2.043" rx="0.389" transform="translate(59.717 60.897)" fill="#06b2ff"/>
    <path id="Path_51835" data-name="Path 51835" d="M142.363,131.735l.634-.075a.146.146,0,0,1,.119.06q.284.333,0,.58a1.107,1.107,0,0,1-.392.169,2.442,2.442,0,0,0-.341.126.109.109,0,0,0-.062.1,2.8,2.8,0,0,1-.106.877,1.069,1.069,0,0,1-.393.557q-.3.227-.786.547-6.677,4.37-8.339,5.4a1,1,0,0,1-1.135-.075q-4.432-2.818-8.829-5.687a2.379,2.379,0,0,1-.452-.353.821.821,0,0,1-.228-.548,4.676,4.676,0,0,0-.069-.783.092.092,0,0,0-.083-.075,1.3,1.3,0,0,1-.644-.255.223.223,0,0,1-.079-.11q-.155-.506.347-.534a.886.886,0,0,1,.263.036q.092.026.187.047a.055.055,0,0,0,.048-.011.058.058,0,0,0,.021-.046q-.046-3.653-.027-7.307a1.226,1.226,0,0,1,.572-1.076q4.324-2.88,8.719-5.654a1.734,1.734,0,0,1,.874-.326,1.418,1.418,0,0,1,.844.284l.327.237q4.106,2.633,8.187,5.307a2.539,2.539,0,0,1,.486.4.965.965,0,0,1,.225.56,9.44,9.44,0,0,1,.069,1.234q-.056,3.169-.027,6.34a.047.047,0,0,0,.02.038A.069.069,0,0,0,142.363,131.735Zm-3.519-7.469-6.562-4.277a.2.2,0,0,0-.217,0l-6.575,4.276a.047.047,0,0,0,0,.079l6.554,4.214a.237.237,0,0,0,.255,0l6.544-4.211a.05.05,0,0,0,.022-.04A.046.046,0,0,0,138.844,124.266Zm-8.244,9.474a.25.25,0,0,1-.024-.208.466.466,0,0,1,.169-.172.721.721,0,0,0,.151-.145.3.3,0,0,0,.057-.189v-2.139a.354.354,0,0,0-.164-.3q-2.888-1.844-5.69-3.647a3.8,3.8,0,0,1-.564-.445q-.072-.069-.075.032-.088,3,0,5.991a.135.135,0,0,0,.062.11l6.346,4.1q.086.056.086-.047v-2.142q0-.011.02-.244a.435.435,0,0,0-.268-.469.228.228,0,0,1-.1-.089Zm3.2-.25a.321.321,0,0,1-.05.291.257.257,0,0,1-.113.077.468.468,0,0,0-.283.489v2.333q0,.141.118.065l6.343-4.125a.138.138,0,0,0,.062-.109q.1-2.851,0-5.95,0-.075-.065-.034l-6.276,4.067a.39.39,0,0,0-.179.327q0,.987,0,1.848a.606.606,0,0,0,.353.63A.154.154,0,0,1,133.8,133.49Z" transform="translate(-55.636 -53.22)" fill="#06b2ff"/>
    <rect id="Rectangle_27837" data-name="Rectangle 27837" width="1.94" height="0.786" rx="0.393" transform="translate(65.975 68.205) rotate(-15.9)" fill="#06b2ff"/>
    <rect id="Rectangle_27838" data-name="Rectangle 27838" width="1.96" height="0.786" rx="0.393" transform="matrix(0.961, 0.276, -0.276, 0.961, 85.213, 67.668)" fill="#06b2ff"/>
    <rect id="Rectangle_27839" data-name="Rectangle 27839" width="3.159" height="0.803" rx="0.402" transform="translate(61.525 70.385) rotate(-30)" fill="#06b2ff"/>
    <rect id="Rectangle_27840" data-name="Rectangle 27840" width="3.142" height="0.798" rx="0.399" transform="translate(88.768 68.791) rotate(29.9)" fill="#06b2ff"/>
    <path id="Path_51837" data-name="Path 51837" d="M307.046,171.99q.192-.369.486-.242a.661.661,0,0,1,.3.324,3.222,3.222,0,0,1,.253,2.33q-.169.673-.664.307a.346.346,0,0,1-.133-.346,3.082,3.082,0,0,0-.241-2.136.249.249,0,0,1,0-.237Z" transform="translate(-214.839 -99.812)" fill="#06b2ff"/>
    <path id="Path_51838" data-name="Path 51838" d="M81.678,172.133a.3.3,0,0,1,.145.458,2.651,2.651,0,0,0-.237,1.923.725.725,0,0,1,.022.4.392.392,0,0,1-.407.228.331.331,0,0,1-.316-.225,3.127,3.127,0,0,1,.254-2.65A.357.357,0,0,1,81.678,172.133Z" transform="translate(-20.995 -100.11)" fill="#06b2ff"/>
    <rect id="Rectangle_27841" data-name="Rectangle 27841" width="3.122" height="0.795" rx="0.397" transform="translate(61.551 76.077) rotate(33)" fill="#06b2ff"/>
    <rect id="Rectangle_27842" data-name="Rectangle 27842" width="3.145" height="0.795" rx="0.397" transform="translate(88.928 77.763) rotate(-33.2)" fill="#06b2ff"/>
    <rect id="Rectangle_27843" data-name="Rectangle 27843" width="3.119" height="0.786" rx="0.393" transform="matrix(0.992, -0.125, 0.125, 0.992, 79.752, 79.9)" fill="#06b2ff"/>
    <rect id="Rectangle_27844" data-name="Rectangle 27844" width="3.136" height="0.783" rx="0.392" transform="translate(70.247 79.52) rotate(7)" fill="#06b2ff"/>
    <path id="Path_51841" data-name="Path 51841" d="M58.572,269.517a.12.12,0,0,0,.121.123q3.7,0,7.3,0a1.171,1.171,0,0,1,1.3.861,1.183,1.183,0,0,1-.1.917,1.162,1.162,0,0,1-.5.475,1.536,1.536,0,0,1-.649.129q-2,.053-3.993.019-.888-.016-2.32.009-1.159.02-2.32-.029a1.173,1.173,0,0,1-.978-.484,1.8,1.8,0,0,1-.214-.963q-.072-4.2,0-8.4a1.594,1.594,0,0,1,.125-.677,1.035,1.035,0,0,1,.527-.5,1.131,1.131,0,0,1,1.23.116,1.3,1.3,0,0,1,.442.745,2.592,2.592,0,0,1,.066.679q-.014.429-.014.436Q58.63,266.269,58.572,269.517Z" transform="translate(-0.004 -176.174)" fill="#06b2ff"/>
    <path id="Path_51842" data-name="Path 51842" d="M270.593,269.84a.142.142,0,0,0,.142-.142v-7.238a1.356,1.356,0,0,1,.409-1.062,1.2,1.2,0,0,1,.979-.274q.979.11.98,1.3,0,4.161,0,8.323a1.934,1.934,0,0,1-.155.9,1.113,1.113,0,0,1-.5.461,1.6,1.6,0,0,1-.643.113q-4.211.075-8.423,0a1.718,1.718,0,0,1-.821-.169,1.1,1.1,0,0,1-.539-.72,1.208,1.208,0,0,1,.172-.991,1.128,1.128,0,0,1,1.011-.494Q266.946,269.855,270.593,269.84Z" transform="translate(-176.265 -176.382)" fill="#06b2ff"/>
    <rect id="Rectangle_27845" data-name="Rectangle 27845" width="0.783" height="1.859" rx="0.392" transform="translate(92.575 87.474) rotate(0.1)" fill="#06b2ff"/>
    <path id="Path_51843" data-name="Path 51843" d="M81.02,285.807a.3.3,0,0,1-.27-.33V281.92q0-.5.006-.531.073-.415.6-.25a.2.2,0,0,1,.145.189l.033,3.636a.109.109,0,0,0,.1.1l.824.06a.123.123,0,0,1,.1.08.531.531,0,0,1-.027.5.163.163,0,0,1-.109.075A3.408,3.408,0,0,1,81.02,285.807Z" transform="translate(-21.036 -193.496)" fill="#06b2ff"/>
    <path id="Path_51844" data-name="Path 51844" d="M283.338,300.289l.047-1.092a.156.156,0,0,1,.062-.118.445.445,0,0,1,.59,0,.165.165,0,0,1,.063.118,8.019,8.019,0,0,1,.012,1.657.306.306,0,0,1-.341.307h-4.156q-.4,0-.42,0-.253-.059-.267-.41a.317.317,0,0,1,.36-.374l3.981-.009A.073.073,0,0,0,283.338,300.289Z" transform="translate(-190.779 -208.806)" fill="#06b2ff"/>
    <rect id="Rectangle_27846" data-name="Rectangle 27846" width="2.476" height="0.786" rx="0.393" transform="translate(62.76 91.568)" fill="#06b2ff"/>
  </g>
</svg>
