<svg id="Group_70654" data-name="Group 70654" xmlns="http://www.w3.org/2000/svg" xmlns:xlink="http://www.w3.org/1999/xlink" width="100" height="100" viewBox="0 0 100 100">
  <defs>
    <linearGradient id="linear-gradient" x1="0.5" y1="1" x2="0.5" gradientUnits="objectBoundingBox">
      <stop offset="0" stop-color="#f1f8fd"/>
      <stop offset="1" stop-color="#d8f4ff"/>
    </linearGradient>
  </defs>
  <circle id="Ellipse_988" data-name="Ellipse 988" cx="50" cy="50" r="50" fill="url(#linear-gradient)"/>
  <g id="Screenshot_2023-05-30_at_1.40.44_PM" data-name="Screenshot 2023-05-30 at 1.40.44 PM" transform="translate(-137.696 -68.134)">
    <g id="Group_70634" data-name="Group 70634" transform="translate(168.696 95.134)">
      <path id="Path_51789" data-name="Path 51789" d="M545.376,109.03l2.59.409a.023.023,0,0,0,.018,0,.024.024,0,0,0,.009-.016,10.958,10.958,0,0,0,.107-2.277,11.839,11.839,0,0,0-2.01-6.017,13.322,13.322,0,0,0-4.437-4.166,14.7,14.7,0,0,0-5.125-1.824.036.036,0,0,0-.041.029l-.4,2.561a.057.057,0,0,0,.047.066,12.541,12.541,0,0,1,3.41,1.079,10.694,10.694,0,0,1,4.135,3.474,9.859,9.859,0,0,1,.737,1.205,9.119,9.119,0,0,1,.929,5.445.034.034,0,0,0,.028.037" transform="translate(-510.121 -95.134)" fill="none"/>
      <path id="Path_51790" data-name="Path 51790" d="M537.1,172.867l2.644.271a.029.029,0,0,0,.021-.007.03.03,0,0,0,.01-.02,8.8,8.8,0,0,0-1.421-5.8,8.122,8.122,0,0,0-2.217-2.272,7.835,7.835,0,0,0-3.62-1.342.036.036,0,0,0-.04.033l-.269,2.668a.037.037,0,0,0,.033.041,5.171,5.171,0,0,1,2.234.794,5.27,5.27,0,0,1,1.067.922,5.953,5.953,0,0,1,1.467,3.161,6.27,6.27,0,0,1,.039,1.489.058.058,0,0,0,.052.063" transform="translate(-506.513 -158.85)" fill="none"/>
      <path id="Path_51791" data-name="Path 51791" d="M175.225,186.8q.616-.592,1.388-1.21a10.071,10.071,0,0,1,2.19-1.343,12.951,12.951,0,0,1,1.317-.512,7.976,7.976,0,0,1,1.569-.332,18.964,18.964,0,0,1,2.935-.1,9.748,9.748,0,0,1,1.4.16,11.693,11.693,0,0,1,3.076,1.056,10.171,10.171,0,0,1,2.636,1.945,13.845,13.845,0,0,1,2.668,3.746,9.387,9.387,0,0,1,.681,1.97q.164.713.261,1.39a9.576,9.576,0,0,1-.125,3.422,5.626,5.626,0,0,1-.354,1.108,6.465,6.465,0,0,1-.577,1.016q-.769,1.114-1.568,2.067l-.583.667a18.116,18.116,0,0,0-2.482,3.649,7.88,7.88,0,0,0-.814,2.485q-.17,1.173-.34,3.123a4.957,4.957,0,0,1-.418,1.569,5.255,5.255,0,0,1-.539.922q-.291.407-.647.853a9.737,9.737,0,0,1-.758.846,3.535,3.535,0,0,1-.819.616,4.228,4.228,0,0,1-.968.376q-.7.175-2.282.492a3.417,3.417,0,0,0-.549.15,2.656,2.656,0,0,0-.512.255,1.683,1.683,0,0,0-.695,1.006.778.778,0,0,0,.01.447,1.876,1.876,0,0,0,1.159,1.281,3.361,3.361,0,0,0,1.163.146,7.575,7.575,0,0,0,1.178-.1,8.926,8.926,0,0,0,4.076-1.785q.568-.444,1.071-.923a8.458,8.458,0,0,0,1.494-1.891,11.335,11.335,0,0,0,1.52-5.243s0-.074.006-.215a7.425,7.425,0,0,1,.44-2.225,10.338,10.338,0,0,1,.748-1.672,8.069,8.069,0,0,1,.777-1.084q1.05-1.282,2.079-2.579a12.958,12.958,0,0,0,.828-1.144,11.418,11.418,0,0,0,1.718-6.721,16.959,16.959,0,0,0-1.123-5.333,9.444,9.444,0,0,0-.764-1.527,24.213,24.213,0,0,0-1.378-2.032,10.517,10.517,0,0,0-1.84-1.923,20.287,20.287,0,0,0-4.214-2.554,12.152,12.152,0,0,0-5.242-1.082q-.657.011-1.315.013a9.268,9.268,0,0,0-.939.042,7.429,7.429,0,0,0-.927.153q-.572.136-1.959.574a10.58,10.58,0,0,0-1.579.642,24.2,24.2,0,0,0-2.285,1.311,10.516,10.516,0,0,0-1.136.839q-.527.453-1.139,1.065a10.8,10.8,0,0,0-1.9,2.516q-.5.925-.922,1.884a9.883,9.883,0,0,0-.582,1.682q-.247,1.035-.489,2.391-.094.528-.123.876a7.688,7.688,0,0,0-.024.886,1.53,1.53,0,0,0,1.057,1.485,1.511,1.511,0,0,0,.987.043,1.365,1.365,0,0,0,.9-.773,3.938,3.938,0,0,0,.327-1.392q.047-.7.047-.7a9.168,9.168,0,0,1,.27-1.393,16.632,16.632,0,0,1,1.079-2.827,8.908,8.908,0,0,1,1.855-2.545" transform="translate(-168.696 -174.028)" fill="none"/>
      <path id="Path_51792" data-name="Path 51792" d="M413.651,265.855l.064-.156a.043.043,0,0,0-.025-.051q-.182-.1-.358-.2a2.064,2.064,0,0,0-.393-.182q-.29-.1-.405-.148a5.176,5.176,0,0,0-.486-.178q-.016-.006-.234-.109a.281.281,0,0,0-.353.084" transform="translate(-394.301 -252.806)" fill="none"/>
      <path id="Path_51793" data-name="Path 51793" d="M261.461,263.054q-.791-.159-.969-.172-1.015-.071-2.032-.085a2.367,2.367,0,0,0-.513.049q-.618.127-1.228.291a8.744,8.744,0,0,0-1.192.406,8.511,8.511,0,0,0-2.807,1.923,12.639,12.639,0,0,0-1.582,2.088,7.068,7.068,0,0,0-.605,1.2,8.408,8.408,0,0,0-.38,1.3,5.276,5.276,0,0,0,.051,2.294,1.666,1.666,0,0,0,1.267,1.194,1.454,1.454,0,0,0,.911-.134,1.5,1.5,0,0,0,.753-.863,2.531,2.531,0,0,0,.146-.476q.052-.5.113-.99a5.117,5.117,0,0,1,.2-.973,6.086,6.086,0,0,1,1.279-2.192,5.442,5.442,0,0,1,1.072-.917,5.579,5.579,0,0,1,2.652-.884,6.316,6.316,0,0,1,2.175.208,5.319,5.319,0,0,1,2.247,1.255,10.911,10.911,0,0,1,1.187,1.286,4.212,4.212,0,0,1,.591,1,4.705,4.705,0,0,1,.3,1.132q.131.968.165,1.148a1.64,1.64,0,0,0,1.228,1.371.841.841,0,0,0,.341.033.949.949,0,0,0,.335-.1,3.026,3.026,0,0,0,.939-.79.571.571,0,0,0,.126-.311,7.674,7.674,0,0,0-.176-2.5,10.342,10.342,0,0,0-.42-1.349,7.954,7.954,0,0,0-1.786-2.777,12.623,12.623,0,0,0-2.2-1.727" transform="translate(-244.301 -250.946)" fill="none"/>
      <path id="Path_51794" data-name="Path 51794" d="M411.46,266.43a11.627,11.627,0,0,1,2.191.941" transform="translate(-394.301 -254.322)" fill="none"/>
      <path id="Path_51795" data-name="Path 51795" d="M380.6,404.871a1.6,1.6,0,1,0-1.6,1.6,1.6,1.6,0,0,0,1.6-1.6" transform="translate(-362.648 -381.49)" fill="none"/>
      <path id="Path_51796" data-name="Path 51796" d="M312.926,466.743a1.6,1.6,0,1,0-1.6,1.6,1.6,1.6,0,0,0,1.6-1.6" transform="translate(-299.752 -438.987)" fill="none"/>
      <path id="Path_51797" data-name="Path 51797" d="M201.108,472.755a.031.031,0,0,0-.044,0l-2.192,2.044a.031.031,0,0,0,0,.044l7.294,7.821a.031.031,0,0,0,.044,0l2.192-2.044a.031.031,0,0,0,0-.044l-7.294-7.821" transform="translate(-196.73 -446.054)" fill="none"/>
      <path id="Path_51798" data-name="Path 51798" d="M177.146,591.6a1.6,1.6,0,1,0-1.6,1.6,1.6,1.6,0,0,0,1.6-1.6" transform="translate(-173.569 -555.021)" fill="none"/>
    </g>
    <path id="Path_51800" data-name="Path 51800" d="M545.376,109.03a.034.034,0,0,1-.028-.037,9.119,9.119,0,0,0-.929-5.445,9.859,9.859,0,0,0-.737-1.205,10.694,10.694,0,0,0-4.135-3.474,12.541,12.541,0,0,0-3.41-1.079.057.057,0,0,1-.047-.066l.4-2.561a.036.036,0,0,1,.041-.029,14.7,14.7,0,0,1,5.125,1.824,13.322,13.322,0,0,1,4.438,4.166,11.839,11.839,0,0,1,2.01,6.017,10.958,10.958,0,0,1-.107,2.277.024.024,0,0,1-.009.016.023.023,0,0,1-.018,0Z" transform="translate(-341.425)" fill="#06b2ff"/>
    <path id="Path_51801" data-name="Path 51801" d="M537.1,172.867a.058.058,0,0,1-.052-.063,6.27,6.27,0,0,0-.039-1.489,5.953,5.953,0,0,0-1.467-3.161,5.271,5.271,0,0,0-1.067-.922,5.171,5.171,0,0,0-2.234-.794.037.037,0,0,1-.033-.041l.269-2.668a.036.036,0,0,1,.04-.033,7.834,7.834,0,0,1,3.62,1.342,8.122,8.122,0,0,1,2.217,2.272,8.8,8.8,0,0,1,1.421,5.8.03.03,0,0,1-.01.02.029.029,0,0,1-.021.007Z" transform="translate(-337.817 -63.716)" fill="#06b2ff"/>
    <path id="Path_51802" data-name="Path 51802" d="M175.225,186.8a8.908,8.908,0,0,0-1.855,2.545,16.632,16.632,0,0,0-1.079,2.827,9.168,9.168,0,0,0-.27,1.393q0,.008-.047.7a3.938,3.938,0,0,1-.327,1.392,1.365,1.365,0,0,1-.9.773,1.511,1.511,0,0,1-.987-.043A1.53,1.53,0,0,1,168.7,194.9a7.688,7.688,0,0,1,.024-.886q.029-.348.123-.876.242-1.356.489-2.391a9.883,9.883,0,0,1,.582-1.682q.425-.96.922-1.884a10.8,10.8,0,0,1,1.9-2.516q.611-.612,1.139-1.065a10.516,10.516,0,0,1,1.136-.839,24.2,24.2,0,0,1,2.285-1.311,10.58,10.58,0,0,1,1.579-.642q1.387-.438,1.959-.574a7.429,7.429,0,0,1,.927-.153,9.268,9.268,0,0,1,.939-.042q.657,0,1.315-.013a12.152,12.152,0,0,1,5.242,1.082,20.287,20.287,0,0,1,4.214,2.554,10.517,10.517,0,0,1,1.84,1.923,24.213,24.213,0,0,1,1.378,2.032,9.444,9.444,0,0,1,.764,1.527,16.959,16.959,0,0,1,1.123,5.333,11.418,11.418,0,0,1-1.718,6.721,12.958,12.958,0,0,1-.828,1.144q-1.03,1.3-2.079,2.579a8.069,8.069,0,0,0-.777,1.084,10.338,10.338,0,0,0-.748,1.672,7.425,7.425,0,0,0-.44,2.225q-.006.212-.006.215a11.335,11.335,0,0,1-1.52,5.243,8.458,8.458,0,0,1-1.494,1.891q-.5.479-1.071.923a8.926,8.926,0,0,1-4.076,1.785,7.575,7.575,0,0,1-1.178.1,3.361,3.361,0,0,1-1.163-.146,1.876,1.876,0,0,1-1.159-1.281.778.778,0,0,1-.01-.447,1.683,1.683,0,0,1,.695-1.006,2.656,2.656,0,0,1,.512-.255,3.417,3.417,0,0,1,.549-.15q1.58-.317,2.282-.492a4.228,4.228,0,0,0,.968-.376,3.535,3.535,0,0,0,.819-.616,9.737,9.737,0,0,0,.758-.846q.356-.446.647-.853a5.255,5.255,0,0,0,.539-.922,4.957,4.957,0,0,0,.418-1.569q.17-1.95.34-3.123a7.88,7.88,0,0,1,.814-2.485,18.116,18.116,0,0,1,2.482-3.649l.583-.667q.8-.953,1.568-2.067a6.465,6.465,0,0,0,.577-1.016,5.626,5.626,0,0,0,.354-1.108,9.576,9.576,0,0,0,.125-3.422q-.1-.676-.261-1.39a9.387,9.387,0,0,0-.681-1.97,13.845,13.845,0,0,0-2.668-3.746,10.171,10.171,0,0,0-2.636-1.945,11.693,11.693,0,0,0-3.076-1.056,9.748,9.748,0,0,0-1.4-.16,18.964,18.964,0,0,0-2.935.1,7.976,7.976,0,0,0-1.569.332,12.951,12.951,0,0,0-1.317.512,10.071,10.071,0,0,0-2.19,1.343Q175.841,186.206,175.225,186.8Z" transform="translate(0 -78.894)" fill="#06b2ff"/>
    <path id="Path_51803" data-name="Path 51803" d="M261.461,263.054a11.627,11.627,0,0,1,2.191.942,12.623,12.623,0,0,1,2.2,1.727,7.954,7.954,0,0,1,1.786,2.777,10.342,10.342,0,0,1,.42,1.349,7.674,7.674,0,0,1,.176,2.5.571.571,0,0,1-.126.311,3.026,3.026,0,0,1-.939.79.949.949,0,0,1-.335.1.841.841,0,0,1-.341-.033,1.64,1.64,0,0,1-1.228-1.371q-.034-.18-.165-1.148a4.705,4.705,0,0,0-.3-1.132,4.212,4.212,0,0,0-.591-1,10.911,10.911,0,0,0-1.187-1.286,5.319,5.319,0,0,0-2.247-1.255,6.316,6.316,0,0,0-2.175-.208,5.579,5.579,0,0,0-2.652.884,5.442,5.442,0,0,0-1.072.917,6.086,6.086,0,0,0-1.279,2.192,5.117,5.117,0,0,0-.2.973q-.061.494-.113.99a2.531,2.531,0,0,1-.146.476,1.5,1.5,0,0,1-.753.863,1.454,1.454,0,0,1-.911.134,1.666,1.666,0,0,1-1.267-1.194,5.276,5.276,0,0,1-.051-2.294,8.408,8.408,0,0,1,.38-1.3,7.068,7.068,0,0,1,.605-1.2,12.639,12.639,0,0,1,1.582-2.088,8.511,8.511,0,0,1,2.807-1.923,8.744,8.744,0,0,1,1.192-.406q.609-.164,1.228-.291a2.367,2.367,0,0,1,.513-.049q1.017.013,2.032.085Q260.67,262.895,261.461,263.054Z" transform="translate(-75.605 -155.812)" fill="#06b2ff"/>
    <circle id="Ellipse_992" data-name="Ellipse 992" cx="1.601" cy="1.601" r="1.601" transform="translate(183.448 116.914)" fill="#06b2ff"/>
    <circle id="Ellipse_993" data-name="Ellipse 993" cx="1.603" cy="1.603" r="1.603" transform="translate(178.664 121.287)" fill="#06b2ff"/>
    <rect id="Rectangle_27834" data-name="Rectangle 27834" width="3.059" height="10.757" rx="0.44" transform="translate(170.815 123.898) rotate(-43)" fill="#06b2ff"/>
    <circle id="Ellipse_994" data-name="Ellipse 994" cx="1.603" cy="1.603" r="1.603" transform="translate(169.067 130.112)" fill="#06b2ff"/>
  </g>
</svg>
