<svg xmlns="http://www.w3.org/2000/svg" xmlns:xlink="http://www.w3.org/1999/xlink" width="620.141" height="366.92" viewBox="0 0 620.141 366.92">
  <defs>
    <linearGradient id="linear-gradient" x1="0.5" x2="0.5" y2="1" gradientUnits="objectBoundingBox">
      <stop offset="0" stop-color="#3194ff"/>
      <stop offset="1" stop-color="#007bff" stop-opacity="0"/>
    </linearGradient>
  </defs>
  <g id="Group_71518" data-name="Group 71518" transform="translate(-41.493 -99.52)">
    <path id="Path_52637" data-name="Path 52637" d="M161.38,466.37c-22.81-27.76-44.69-57.78-50.69-92.01s8.09-73.64,42.02-89.4c38.05-17.67,84.87-.78,126.49-9.55,37.62-7.93,65.77-35.38,97.73-55.1,37.03-22.84,81.28-35.87,126-37.09,31.94-.87,65.17,4.62,91.09,21.63,33.6,22.06,50.32,60.88,51.67,98.56s-10.78,74.68-25.31,109.99c-7.06,17.15-14.64,36.68-5.59,53.04Z" fill="url(#linear-gradient)"/>
    <g id="Group_71477" data-name="Group 71477">
      <g id="Group_71473" data-name="Group 71473">
        <g id="Group_71471" data-name="Group 71471">
          <path id="Path_52638" data-name="Path 52638" d="M151.18,300.83q-10.83-17.925-22.15-35.34c-6.13-9.42-30.88-52.68-42.92-42.2-6.05,5.27-2.01,23.76-.34,31.01a82.445,82.445,0,0,0,9.47,23.86c5.01-.67,10.01-1.38,15.05-1.81,7.62-.64,15.58-.8,22.98,1.45a1.236,1.236,0,0,1-.66,2.38c-7.32-2.23-15.19-1.98-22.73-1.32-4.42.39-8.81.99-13.21,1.58a64.528,64.528,0,0,0,3.92,5.35c5.99,7.3,13.07,12.7,20.43,17.57C131.08,302.5,141.04,299.74,151.18,300.83Z"/>
          <path id="Path_52639" data-name="Path 52639" d="M152.4,302.88a.974.974,0,0,1-.99.43c-9.11-1.04-18.09,1.09-27.12,2.18,4.48,2.87,9.01,5.63,13.43,8.57,12.82,8.54,25.62,20.03,30.83,37.38-7.37-2.57-15.03-5.15-22.54-3.43s-14.83,9.08-15.4,18.9c-.41,6.97,2.4,12.84,6.41,17.76,12.64-1.91,25.12-4.93,37.94-5.33,1.59-.05,1.58,2.41,0,2.46-12.18.38-24.05,3.13-36.04,5.04a68.746,68.746,0,0,0,8.83,7.76c1.45,1.09,2.89,2.18,4.34,3.27.94-.11,1.88-.23,2.82-.33a145.451,145.451,0,0,1,20.64-1.27c6.32.17,12.85,1.04,18.51,4.03,1.4.74.16,2.87-1.24,2.13a31.614,31.614,0,0,0-9.63-3.03c-9.34-1.52-18.86-.54-28.28.6l50.61,38.16-25.84,1.17c-3.66.17-8.45,1.68-8.6,6.39-.15,4.6,4.32,6.7,7.85,7.41q20.955,4.245,41.91,8.5h12.99A1343.8,1343.8,0,0,0,152.4,302.88Z"/>
          <path id="Path_52640" data-name="Path 52640" d="M81.31,205.51c-6.38,13.65-2.38,31.35,4.01,44.99a76,76,0,0,0,5.38,9.59c10.69-.25,21.4-.59,31.95,1.56,1.56.32.89,2.69-.66,2.38-9.78-1.99-19.73-1.77-29.66-1.52,5.64,8.03,12.39,14.9,19.03,21.62l4.95,5.01c.88,0,1.76-.01,2.64,0,7.89.06,15.99.51,23.55,2.99,1.5.49.86,2.87-.66,2.38-7.42-2.43-15.34-2.85-23.09-2.9q16.815,17.025,33.64,34.04c-6.7-4.44-14.38-3.93-21.92-4.02s-15.68,5.79-17.05,15.34c-1.04,7.27,1.85,13.73,6.03,19.16,14.35-.52,28.69-2.35,43.04-.8,1.56.17,1.57,2.63,0,2.46-13.69-1.48-27.38.12-41.08.71a67.021,67.021,0,0,0,6.57,6.42q12.9,11.115,26.17,21.48c14.78-.28,29.56-2.53,44.36-1.53,1.58.11,1.58,2.57,0,2.46-13.78-.93-27.54.95-41.3,1.45q25.74,19.86,52.75,36.8c-11.81-1.63-22.92-.86-34.74-2.49-3.09-.43-6.93-.39-8.43,3.12-1.24,2.9.02,6.7,2.07,8.69s4.67,2.63,7.17,3.36c13.74,3.99,26.73,12.09,37.78,23.35h31.77C210.8,358.72,153.19,268.81,81.31,205.51Z" fill="#439eff"/>
        </g>
        <g id="Group_71472" data-name="Group 71472">
          <path id="Path_52641" data-name="Path 52641" d="M86.14,353.06c-5.89-5.46-30.45-31.39-37.81-20.73-3.7,5.35,1.98,18.02,4.27,22.96a57.643,57.643,0,0,0,4.92,8.63c9.97-3,20.18-5.3,30.63-5.34a1.231,1.231,0,0,1,0,2.46c-9.92.03-19.61,2.17-29.09,4.98a43.581,43.581,0,0,0,9.05,8.91,49.106,49.106,0,0,0,11.5,5.99c8.58-2.5,17.04-5.66,26.08-5.72a1.231,1.231,0,0,1,0,2.46c-7.64.05-14.87,2.39-22.12,4.62,5.3,1.68,10.73,2.92,16.04,4.51,10.7,3.2,21.82,8.57,28.19,20.11-5.81-.11-11.84-.16-17.13,2.93a18.464,18.464,0,0,0-8.61,17.67,15.734,15.734,0,0,0,4.02,8.62c9.13-3.6,17.7-9.13,27.77-9.22a1.231,1.231,0,0,1,0,2.46c-9.31.08-17.39,5.04-25.85,8.59a35.7,35.7,0,0,0,10.74,5.81c2.29.85,4.57,1.69,6.86,2.54,10.45-4.08,20.6-10.35,32.13-8.75,1.57.22.9,2.59-.66,2.38-6.36-.88-12.72,1.22-18.55,3.56-3.19,1.29-6.34,2.73-9.52,4.07q18.96,7.02,37.91,14.05h17.06A836.316,836.316,0,0,0,86.14,353.06Z"/>
          <path id="Path_52642" data-name="Path 52642" d="M137.69,461.62h58.14C155.66,397.95,102,348.5,42.2,320.36c-2.47,10.56,1.88,21.49,7.72,29.8,8.32-2.14,16.67-4.16,25.31-4.52,1.59-.07,1.58,2.4,0,2.46-8.09.34-15.93,2.18-23.74,4.19.07.1.15.2.22.29,5.38,6.84,12.12,11.46,19.02,15.55,8.56-.99,17.1-2.14,25.74-1.25,1.56.16,1.58,2.63,0,2.46-7.45-.77-14.83-.01-22.21.84.52.3,1.05.6,1.57.89q18.15,10.35,36.31,20.69c-5.59-1.65-11.18.59-16.75,2.35a15.741,15.741,0,0,0-10.34,15.45c.39,7.61,5.89,12.36,11.57,15.48,8.5-3.96,17.1-7.71,26.3-9.65,1.55-.33,2.21,2.05.65,2.38-8.45,1.78-16.36,5.09-24.17,8.68l.45.21q9.48,4.32,19.08,8.16c9.78-2.28,19.64-4.21,29.7-4.24a1.231,1.231,0,0,1,0,2.46,120.126,120.126,0,0,0-25.66,3.38,432.4,432.4,0,0,0,46.19,15.13c-8.95,1.66-17.04,4.92-25.99,6.58C141.08,458.53,138.62,459.34,137.69,461.62Z" fill="#439eff"/>
        </g>
      </g>
      <g id="Group_71476" data-name="Group 71476">
        <g id="Group_71474" data-name="Group 71474">
          <path id="Path_52643" data-name="Path 52643" d="M567.83,324.11q9.255-15.33,18.94-30.22c5.24-8.06,26.4-45.06,36.7-36.09,5.18,4.51,1.72,20.32.29,26.52a70.367,70.367,0,0,1-8.1,20.41c-4.28-.57-8.56-1.18-12.87-1.54-6.52-.55-13.33-.68-19.65,1.24-1.3.39-.74,2.43.56,2.03,6.26-1.9,12.99-1.69,19.44-1.13,3.78.33,7.54.84,11.3,1.35a55.5,55.5,0,0,1-3.35,4.58c-5.12,6.24-11.18,10.86-17.47,15.03C585.01,325.54,576.5,323.18,567.83,324.11Z" fill="#062d70"/>
          <path id="Path_52644" data-name="Path 52644" d="M566.78,325.87a.829.829,0,0,0,.85.37c7.79-.89,15.47.93,23.2,1.86-3.83,2.45-7.71,4.81-11.49,7.33-10.96,7.31-21.91,17.13-26.37,31.97,6.3-2.19,12.85-4.41,19.28-2.93a17.8,17.8,0,0,1,13.17,16.16c.35,5.96-2.05,10.98-5.48,15.19-10.81-1.63-21.48-4.22-32.45-4.56-1.36-.04-1.35,2.07,0,2.11,10.42.32,20.57,2.67,30.83,4.31a57.741,57.741,0,0,1-7.55,6.63c-1.24.93-2.47,1.86-3.71,2.8-.8-.1-1.61-.19-2.41-.29A124.031,124.031,0,0,0,547,405.73c-5.41.15-10.99.89-15.83,3.44-1.2.63-.14,2.45,1.06,1.82a27.1,27.1,0,0,1,8.24-2.59c7.99-1.3,16.13-.47,24.19.51q-21.645,16.32-43.28,32.63,11.055.495,22.1,1c3.13.14,7.22,1.44,7.35,5.47.13,3.93-3.7,5.73-6.71,6.34q-17.925,3.63-35.85,7.27H497.16A1144.959,1144.959,0,0,1,566.78,325.87Z" fill="#062d70"/>
          <path id="Path_52645" data-name="Path 52645" d="M627.58,242.59c5.46,11.67,2.03,26.81-3.43,38.47a64.959,64.959,0,0,1-4.6,8.2c-9.15-.21-18.3-.5-27.33,1.33-1.33.27-.76,2.3.56,2.03,8.37-1.7,16.87-1.51,25.36-1.3-4.83,6.87-10.59,12.74-16.28,18.49q-2.115,2.145-4.23,4.28h-2.26c-6.75.05-13.68.43-20.14,2.55-1.28.42-.73,2.46.56,2.03,6.35-2.08,13.12-2.43,19.75-2.48q-14.385,14.55-28.77,29.11c5.73-3.8,12.3-3.36,18.74-3.43a15.051,15.051,0,0,1,14.58,13.12c.89,6.22-1.58,11.74-5.15,16.39-12.28-.44-24.54-2.01-36.81-.68-1.34.14-1.35,2.25,0,2.11,11.71-1.27,23.42.1,35.13.61a55.633,55.633,0,0,1-5.62,5.49q-11.025,9.51-22.38,18.37c-12.64-.24-25.28-2.16-37.93-1.31-1.35.09-1.35,2.2,0,2.11,11.78-.79,23.55.82,35.32,1.24q-22,16.995-45.11,31.47c10.1-1.39,19.6-.74,29.71-2.13,2.64-.36,5.92-.33,7.21,2.67,1.06,2.48-.02,5.73-1.77,7.43s-3.99,2.25-6.13,2.87c-11.75,3.41-22.86,10.34-32.31,19.97H487.08C516.84,373.62,566.1,296.73,627.58,242.59Z" fill="#5a9de5"/>
        </g>
        <g id="Group_71475" data-name="Group 71475">
          <path id="Path_52646" data-name="Path 52646" d="M623.45,368.77c5.04-4.67,26.04-26.84,32.33-17.73,3.16,4.58-1.69,15.41-3.65,19.63a50.09,50.09,0,0,1-4.21,7.38c-8.53-2.57-17.26-4.54-26.2-4.57a1.056,1.056,0,0,0,0,2.11c8.48.03,16.77,1.85,24.87,4.26a37.439,37.439,0,0,1-7.74,7.62,41.912,41.912,0,0,1-9.83,5.12c-7.34-2.14-14.57-4.84-22.31-4.89a1.056,1.056,0,0,0,0,2.11c6.54.04,12.72,2.05,18.92,3.95-4.53,1.44-9.18,2.5-13.72,3.86-9.15,2.73-18.66,7.33-24.11,17.2,4.97-.09,10.12-.14,14.65,2.51a15.8,15.8,0,0,1,7.36,15.11,13.457,13.457,0,0,1-3.44,7.37c-7.81-3.08-15.14-7.81-23.75-7.88a1.056,1.056,0,0,0,0,2.11c7.96.07,14.88,4.31,22.11,7.35a30.717,30.717,0,0,1-9.19,4.97c-1.95.72-3.91,1.45-5.86,2.17-8.94-3.49-17.62-8.85-27.48-7.48-1.34.19-.77,2.22.56,2.03,5.44-.76,10.88,1.04,15.86,3.05,2.73,1.1,5.42,2.34,8.14,3.48q-16.215,6-32.42,12.01H539.75A718.71,718.71,0,0,1,623.45,368.77Z"/>
          <path id="Path_52647" data-name="Path 52647" d="M579.37,461.62H529.65c34.35-54.45,80.23-96.74,131.38-120.8,2.11,9.03-1.6,18.38-6.6,25.48-7.12-1.83-14.26-3.56-21.64-3.87-1.36-.06-1.35,2.05,0,2.11,6.92.29,13.63,1.86,20.3,3.58-.06.08-.13.17-.19.25-4.6,5.85-10.36,9.8-16.26,13.3-7.32-.84-14.62-1.83-22.01-1.07-1.34.14-1.35,2.25,0,2.11,6.37-.65,12.68-.01,18.99.72-.45.26-.89.51-1.34.77q-15.525,8.85-31.05,17.69c4.78-1.41,9.56.5,14.33,2.01a13.481,13.481,0,0,1,8.85,13.21c-.34,6.51-5.04,10.57-9.9,13.24-7.27-3.39-14.62-6.59-22.5-8.25-1.33-.28-1.89,1.75-.56,2.03,7.22,1.52,13.99,4.35,20.67,7.43-.13.06-.26.12-.38.18-5.4,2.47-10.85,4.78-16.32,6.98-8.37-1.95-16.8-3.6-25.4-3.63a1.056,1.056,0,0,0,0,2.11,102.421,102.421,0,0,1,21.95,2.89,367.957,367.957,0,0,1-39.5,12.94c7.66,1.42,14.57,4.2,22.23,5.62C576.46,458.98,578.57,459.67,579.37,461.62Z" fill="#439eff"/>
        </g>
      </g>
    </g>
    <g id="Group_71493" data-name="Group 71493">
      <g id="Group_71481" data-name="Group 71481">
        <path id="Path_52648" data-name="Path 52648" d="M304.18,305.35c-3.43-14.59-7.27-29.95-17.75-40.66q-5.235,20.835-8.37,42.13c-2.15,14.62-6.19,40.6,7.17,51.5,4.97,4.06,11.51,4.08,17.49,2.69,3.12-.72,10.05-2.15,11.93-4.98,2.24-3.38-1.07-10.69-1.93-14.31Q308.46,323.525,304.18,305.35Z" fill="#536dfe"/>
        <g id="Group_71480" data-name="Group 71480">
          <path id="Path_52649" data-name="Path 52649" d="M382.53,392.45c-6.42-.84-45.43,0-74.03-7.16-.49-8.47.8-32.42.8-32.42-15.6-11.55-27.96-7.23-45.35,1.4q-1.8,27.795-3.59,55.58c-.45,6.93-.66,14.62,3.82,19.93,6.11,7.23,17.38,6.21,26.63,4.2,43.03-9.33,53.9-19.15,93.28-21.41C383.36,407.09,386.97,396.11,382.53,392.45Z" fill="#ff9b6d"/>
          <path id="Path_52650" data-name="Path 52650" d="M295.31,399.61c2.32-3.88,7.87-10.96,13.19-14.32" fill="none" stroke="#000" stroke-linecap="round" stroke-linejoin="round" stroke-width="1"/>
          <g id="Group_71479" data-name="Group 71479">
            <g id="Group_71478" data-name="Group 71478">
              <path id="Path_52651" data-name="Path 52651" d="M402.86,408.51a66.519,66.519,0,0,1,7.85,14.81c-1.07,4.06-2.86,7.41-4.66,11.2a2.434,2.434,0,0,1-2.04-1.4,5.136,5.136,0,0,1-.36-2.4,17.329,17.329,0,0,1,1.53-6.52,38.387,38.387,0,0,0-7.76-11.03Z" fill="#de875f"/>
              <path id="Path_52652" data-name="Path 52652" d="M409.74,403.82a93.023,93.023,0,0,1,10.93,20.62c-1.48,5.65-3.98,10.32-6.49,15.6a3.4,3.4,0,0,1-2.84-1.95,7.136,7.136,0,0,1-.5-3.34,23.94,23.94,0,0,1,2.13-9.07,53.019,53.019,0,0,0-10.8-15.35Z" fill="#de875f"/>
              <path id="Path_52653" data-name="Path 52653" d="M420.45,405.28a93.023,93.023,0,0,1,10.93,20.62c-1.48,5.65-3.98,10.32-6.49,15.6a3.4,3.4,0,0,1-2.84-1.95,7.136,7.136,0,0,1-.5-3.34,23.94,23.94,0,0,1,2.13-9.07,53.019,53.019,0,0,0-10.8-15.35Z" fill="#de875f"/>
            </g>
            <path id="Path_52654" data-name="Path 52654" d="M382.53,392.45c-3.14,3.04-4.29,15.91-1.04,18.83,14.94,13.4,22.04-.48,36.66,4.95,0,0,.14-9.7,1.53-11.65Z" fill="#ff9b6d"/>
            <path id="Path_52655" data-name="Path 52655" d="M419.68,404.59a103.748,103.748,0,0,1,19.48,17.17c.68,6.47-.09,12.3-.63,18.78a3.817,3.817,0,0,1-3.73-.91,7.89,7.89,0,0,1-1.84-3.28,26.566,26.566,0,0,1-1.35-10.28,59.34,59.34,0,0,0-17.27-11.74Z" fill="#ff9b6d"/>
            <path id="Path_52656" data-name="Path 52656" d="M390.3,418.96c3.47,4.77,8.66,7.96,13.7,11.02q6.99,4.245,13.98,8.48a1.461,1.461,0,0,0,.51.23c.93.16,1.25-1.21,1.07-2.13-1.11-5.61-5.05-9.08-9.36-12.37a10.919,10.919,0,0,1-4.7-8.62,17.407,17.407,0,0,0-1.12-6.02c-1.2-2.77-3.57-4.86-6.01-6.64a14.43,14.43,0,0,0-4.51-2.44c-4.8-1.33-7.43,2.86-7.88,7.12C385.59,411.38,388.17,416.03,390.3,418.96Z" fill="#ff9b6d"/>
          </g>
        </g>
        <path id="Path_52657" data-name="Path 52657" d="M311.94,355.7a38.79,38.79,0,0,0-31.88-10.89" fill="none" stroke="#000" stroke-linecap="round" stroke-linejoin="round" stroke-width="1"/>
      </g>
      <path id="Path_52658" data-name="Path 52658" d="M180.65,227.46c-22.86,2.23-48.7,9.68-58.13,30.62-18.48,41.03,8.99,86.42,8.99,86.42a783.823,783.823,0,0,0,2.55,86.54c.72,8.42,1.59,16.94,4.53,24.87H298.18c-2.77-50.66-5.92-103.32.66-153.89a59.9,59.9,0,0,0-41.89-65.22C234.46,229.97,207.13,224.88,180.65,227.46Z" fill="#536dfe"/>
      <path id="Path_52659" data-name="Path 52659" d="M238.91,258.09c12.14,47.35,11.33,96.93,10.44,145.81q-.465,25.59-.93,51.17" fill="none" stroke="#000" stroke-linecap="round" stroke-linejoin="round" stroke-width="1"/>
      <g id="Group_71488" data-name="Group 71488">
        <g id="Group_71487" data-name="Group 71487">
          <path id="Path_52660" data-name="Path 52660" d="M266.66,147.61q-19.845,18.705-39.7,37.4a26.949,26.949,0,0,1-6,4.66c-2.27,1.15-3.9,1.95-6.24.97a53.708,53.708,0,0,0-12.8-21.95,10.692,10.692,0,0,1-2.9-4c-.78-2.51.56-5.18,2.19-7.23-.44.56-4.86-4.1-5.15-4.8-.79-1.93-.41-5.99,1.92-6.73a26.287,26.287,0,0,1-2.43-3.43c-1.33-2.46-2.61-8.48,1.9-8.78a9.387,9.387,0,0,1,.16-7.56,7.442,7.442,0,0,1,5.51-3.82c-.63-1.64.03-4.22.9-5.74a8.522,8.522,0,0,1,3.18-3.49,3.781,3.781,0,0,1,4.43.45c1.17-4.04,5.32-7.35,9.47-8.01a6.052,6.052,0,0,1,3.5.32,3.241,3.241,0,0,1,1.97,2.74,12.805,12.805,0,0,1,5.63-4.66,12.66,12.66,0,0,1,4.26-.84,6.5,6.5,0,0,1,4.22,1.03,3.04,3.04,0,0,1,.92,3.91,9.055,9.055,0,0,1,8.86-5.34c2.3.26,4.65,1.74,5.1,4.01,1.95-1.96,6.07-1.68,8.43-.23a6.378,6.378,0,0,1,2.64,7.22,7.521,7.521,0,0,1,7.3,2.72,6.81,6.81,0,0,1,.22,7.37c2.12.52,3.22,3.02,3.56,5.18a5.742,5.742,0,0,1-2.54,5.63c1.74.76,1.84,3.24,1.37,5.08a8.407,8.407,0,0,1-3.39,4.44c-1.53,1.13-3.23,2.01-4.71,3.2" fill="#773040"/>
          <g id="Group_71482" data-name="Group 71482">
            <path id="Path_52661" data-name="Path 52661" d="M248.7,193.21a84.28,84.28,0,0,0-31.95-25.59,291.9,291.9,0,0,1-17.33,67.55c13.41,8.88,28.81,13.62,44.52,15.7A294.648,294.648,0,0,1,248.7,193.21Z" fill="#ff9b6d"/>
            <path id="Path_52662" data-name="Path 52662" d="M248.7,193.21a83.508,83.508,0,0,0-26.67-22.9c.21,19.63,8.43,38.43,22.97,50.53C245.79,211.58,247,202.35,248.7,193.21Z"/>
          </g>
          <g id="Group_71484" data-name="Group 71484">
            <path id="Path_52663" data-name="Path 52663" d="M270.17,133.47c-11.29-7.65-38.46-2.34-46.2,1.46.62,4.79,2.16,12.85,2.16,12.85l-4.91,15.97s-10.34-5.98-14.94-2.46c-8.63,6.61,4.81,24.99,15.24,19.93.47-.23,4.49,22.52,32.31,25.37,11.06,1.13,18.2-2.98,19.47-15.66C275.24,171.62,275.61,155.15,270.17,133.47Z" fill="#ff9b6d"/>
            <g id="Group_71483" data-name="Group 71483">
              <path id="Path_52664" data-name="Path 52664" d="M244.23,189.49a17.394,17.394,0,0,0,6.86,5.79,11.116,11.116,0,0,0,8.3.72,6.211,6.211,0,0,0,.75-.34C257.47,190.3,250.19,187.88,244.23,189.49Z" fill="#961717"/>
              <path id="Path_52665" data-name="Path 52665" d="M265.03,187.91c-3.47-2.53-13.93-1.76-22.39-.74.51.81,1.04,1.58,1.6,2.31,5.96-1.61,13.24.81,15.91,6.17A10.2,10.2,0,0,0,265.03,187.91Z" fill="#520c0c"/>
            </g>
            <path id="Path_52666" data-name="Path 52666" d="M258.5,181.06a12.17,12.17,0,0,0,3.71-1.35,5.32,5.32,0,0,0,2.46-3.38c.38-1.86-.38-3.76-1.12-5.47l-4.38-10.11" fill="none" stroke="#000" stroke-linecap="round" stroke-linejoin="round" stroke-width="1"/>
            <path id="Path_52667" data-name="Path 52667" d="M207.68,167.34a3.63,3.63,0,0,1,3.64-3.59,5.574,5.574,0,0,1,4.61,2.96,12.337,12.337,0,0,1,1.36,5.52,2.562,2.562,0,1,0-1.21,4.73" fill="none" stroke="#000" stroke-linecap="round" stroke-linejoin="round" stroke-width="1"/>
            <path id="Path_52668" data-name="Path 52668" d="M246.37,161.58a3.549,3.549,0,1,1-1.59-4.76A3.559,3.559,0,0,1,246.37,161.58Z"/>
            <path id="Path_52669" data-name="Path 52669" d="M271.5,161.58a3.549,3.549,0,1,1-1.59-4.76A3.559,3.559,0,0,1,271.5,161.58Z"/>
            <path id="Path_52670" data-name="Path 52670" d="M233.48,151.47c2.73-1.96,9.01-5.61,15.12-3.21" fill="none" stroke="#000" stroke-linecap="round" stroke-linejoin="round" stroke-width="2"/>
            <path id="Path_52671" data-name="Path 52671" d="M261.64,149.04a8.241,8.241,0,0,1,10.08,1.21" fill="none" stroke="#000" stroke-linecap="round" stroke-linejoin="round" stroke-width="2"/>
          </g>
          <g id="Group_71485" data-name="Group 71485">
            <circle id="Ellipse_1019" data-name="Ellipse 1019" cx="11.54" cy="11.54" r="11.54" transform="matrix(0.227, -0.974, 0.974, 0.227, 231.083, 169.82)" fill="none" stroke="#000" stroke-linecap="round" stroke-linejoin="round" stroke-width="1"/>
            <ellipse id="Ellipse_1020" data-name="Ellipse 1020" cx="8.96" cy="11.54" rx="8.96" ry="11.54" transform="translate(262.35 149.66)" fill="none" stroke="#000" stroke-linecap="round" stroke-linejoin="round" stroke-width="1"/>
            <path id="Path_52672" data-name="Path 52672" d="M255.06,155.75a13.759,13.759,0,0,1,4.01-1.35,4.734,4.734,0,0,1,3.94,1.15" fill="none" stroke="#000" stroke-linecap="round" stroke-linejoin="round" stroke-width="1"/>
            <path id="Path_52673" data-name="Path 52673" d="M233.62,158.62q-8.475.93-16.83,2.67" fill="none" stroke="#000" stroke-linecap="round" stroke-linejoin="round" stroke-width="1"/>
          </g>
          <g id="Group_71486" data-name="Group 71486">
            <path id="Path_52674" data-name="Path 52674" d="M221.38,168.66c1.66,7.16-1.34,13.97-6.69,15.21s-11.04-3.56-12.69-10.71,1.33-13.97,6.69-15.21S219.72,161.5,221.38,168.66Z"/>
            <path id="Path_52675" data-name="Path 52675" d="M215.74,111.5c-8.69,7.51-12.09,19.04-12.57,30.18-.32,7.46.59,14.9,1.5,22.29.23,1.9,3.23,1.74,3-.18-1.4-11.42-2.85-23.23.45-34.47,2.92-9.95,9.95-18.24,20.01-21.39.01,0,.03-.01.04-.01l3.43-3.78A31.921,31.921,0,0,0,215.74,111.5Z"/>
            <path id="Path_52676" data-name="Path 52676" d="M234.29,190.15a42.637,42.637,0,0,1-16.13-11.47c-.42-.48-1.09.26-.67.74a43.287,43.287,0,0,0,16.35,11.62C234.42,191.27,234.89,190.39,234.29,190.15Z"/>
            <path id="Path_52677" data-name="Path 52677" d="M234.25,188.17c-3.22,0-2.92,4.99.3,4.99S237.46,188.17,234.25,188.17Z"/>
          </g>
        </g>
        <path id="Path_52678" data-name="Path 52678" d="M188.96,239.14a63.5,63.5,0,0,1,6.54-16.91,171.071,171.071,0,0,1,33.17,15.53,174.056,174.056,0,0,1,2.37,17.7C220.28,257.69,201.82,250.32,188.96,239.14Z" fill="#536dfe"/>
        <path id="Path_52679" data-name="Path 52679" d="M192.41,233.82a89.665,89.665,0,0,0,27.04,19.29,104.243,104.243,0,0,1,8.81-15.35c1.05,5.84,2.17,11.8,2.77,17.7" fill="none" stroke="#000" stroke-linecap="round" stroke-linejoin="round" stroke-width="1"/>
        <path id="Path_52680" data-name="Path 52680" d="M243.74,254.94q2.595-7.395,5.42-14.69,1.59,5.79,3.18,11.57l-6.98-1.45" fill="none" stroke="#000" stroke-linecap="round" stroke-linejoin="round" stroke-width="1"/>
        <path id="Path_52681" data-name="Path 52681" d="M244.55,238.51c1.52.62,3.09,1.12,4.61,1.74" fill="none" stroke="#000" stroke-linecap="round" stroke-linejoin="round" stroke-width="1"/>
      </g>
      <g id="Group_71492" data-name="Group 71492">
        <path id="Path_52682" data-name="Path 52682" d="M157.87,385.07a7.783,7.783,0,0,0,4.64-1.58c15.33-9.58,25.47-25.47,34.26-41.27,2.19-3.94,4.37-8.05,4.72-12.54-9.46.61-18.15,5.56-25.46,11.6a64.489,64.489,0,0,0-15.24,17.52,44.857,44.857,0,0,0-5.36,14.72C154.94,376.46,152.97,384.62,157.87,385.07Z"/>
        <g id="Group_71491" data-name="Group 71491">
          <g id="Group_71490" data-name="Group 71490">
            <path id="Path_52683" data-name="Path 52683" d="M274.9,296.62q-21.18,26.895-41.29,54.63-10.05,13.86-19.82,27.91c-5.04,7.24-10.88,15.94-10.16,25.22.64,8.28,6.35,16.37,13.07,20.95,7.59,5.18,20.66,2.35,28.2-9.36,8.85-13.74,33.91-74.64,45.11-104.67Z" fill="#ff9b6d"/>
            <g id="Group_71489" data-name="Group 71489">
              <path id="Path_52684" data-name="Path 52684" d="M338.69,293.89c2.97-1.55,9.71-17.59,9.18-18.2a1.586,1.586,0,0,0-.84-.5c-4.49-1.01-11.74,8.77-13.12,12.04-5.95,1.42-14.69,2.79-20.64,4.21-.75.18-1.62.46-1.85,1.2a2.192,2.192,0,0,0,.14,1.33c.58,1.86,1.16,3.71,1.74,5.57a2.437,2.437,0,0,0,.64,1.18,2.381,2.381,0,0,0,2.03.15C324.13,298.94,336.72,294.92,338.69,293.89Z" fill="#de875f"/>
              <path id="Path_52685" data-name="Path 52685" d="M330.28,291.65c2.86-1.74,8.59-18.16,8.02-18.73a1.592,1.592,0,0,0-.87-.45c-4.54-.73-11.17,9.48-12.35,12.83-5.85,1.78-14.49,3.7-20.34,5.49-.74.22-1.58.56-1.77,1.31a2.264,2.264,0,0,0,.22,1.32c.7,1.82,1.39,3.63,2.09,5.45a1.764,1.764,0,0,0,2.74,1.16C316.06,297.61,328.38,292.81,330.28,291.65Z" fill="#de875f"/>
              <path id="Path_52686" data-name="Path 52686" d="M317.79,292.12c2.52-1.53,7.56-15.99,7.06-16.49a1.437,1.437,0,0,0-.77-.4c-4-.64-9.84,8.35-10.87,11.3-5.15,1.57-12.75,3.26-17.9,4.83-.65.2-1.4.49-1.56,1.15a1.963,1.963,0,0,0,.19,1.16q.915,2.4,1.84,4.8a2.022,2.022,0,0,0,.63,1,2.109,2.109,0,0,0,1.79.02C305.27,297.36,316.11,293.13,317.79,292.12Z" fill="#de875f"/>
              <path id="Path_52687" data-name="Path 52687" d="M285.47,319.19c8.76-5.61,31.13-17.17,31.13-17.17,11.08-3.59,21.63-4.91,32.9-6.24a3.135,3.135,0,0,0,2.25-1.32,2.648,2.648,0,0,0-.95-3.4,7.114,7.114,0,0,0-3.72-.98c-6.36-.41-20.83,1.13-27.04,2.53a45.549,45.549,0,0,1-17.36,1.07c-1.32-.13-5.7-3.34-5.26-4.59,1.36-3.86,5.25-4.82,7.61-8.16,3.21-4.55,7.49-9.08,7.28-14.65a2.635,2.635,0,0,0-.39-1.47,2.147,2.147,0,0,0-2.8-.3,7.65,7.65,0,0,0-2.06,2.28c-3.33,4.66-8.29,7.89-13.29,10.68s-10.24,5.28-14.66,8.94-8.02,8.73-8.42,14.45S279.86,318,285.47,319.19Z" fill="#ff9b6d"/>
            </g>
          </g>
          <path id="Path_52688" data-name="Path 52688" d="M229.19,373.86q-15.03-21.57-28.05-44.45c-21.89,4.02-40.46,21.25-44.64,43.11,12.62,22.41,34.81,36.94,56.8,50.27,4.3,2.61,9.08,5.3,14.05,4.53,4.2-.66,7.72-3.81,9.67-7.59s2.52-8.13,2.59-12.38A59.48,59.48,0,0,0,229.19,373.86Z" fill="#ff9b6d"/>
        </g>
        <path id="Path_52689" data-name="Path 52689" d="M137.77,354.73c4.67,9.59,10.57,20.18,17.06,28.66-.15-12.72,5.55-26.73,14.3-35.97s19.93-16.14,32.53-17.62a453.111,453.111,0,0,1-20.38-59.13" fill="none" stroke="#000" stroke-linecap="round" stroke-linejoin="round" stroke-width="1"/>
        <path id="Path_52690" data-name="Path 52690" d="M222.78,365.37a37.759,37.759,0,0,0-9.98,35.47" fill="none" stroke="#000" stroke-linecap="round" stroke-linejoin="round" stroke-width="1"/>
      </g>
    </g>
    <g id="Group_71499" data-name="Group 71499">
      <g id="Group_71494" data-name="Group 71494">
        <path id="Path_52691" data-name="Path 52691" d="M305.21,452.5v3.42h58.9v-9.33Z" fill="#323e78"/>
        <rect id="Rectangle_27910" data-name="Rectangle 27910" width="100.26" height="9.33" transform="translate(364.11 446.59)"/>
      </g>
      <g id="Group_71498" data-name="Group 71498">
        <g id="Group_71497" data-name="Group 71497">
          <g id="Group_71495" data-name="Group 71495">
            <path id="Path_52692" data-name="Path 52692" d="M525.45,426.28H362.13c-2.47,0-3.89-2-3.16-4.48l30.06-102.38a6.484,6.484,0,0,1,5.79-4.48H558.14c2.47,0,3.89,2,3.16,4.48L531.24,421.8A6.473,6.473,0,0,1,525.45,426.28Z" fill="#323e78"/>
          </g>
          <g id="Group_71496" data-name="Group 71496">
            <path id="Path_52693" data-name="Path 52693" d="M531.21,426.28H367.89c-2.47,0-3.89-2-3.16-4.48l30.06-102.38a6.484,6.484,0,0,1,5.79-4.48H563.9c2.47,0,3.89,2,3.16,4.48L537,421.8A6.484,6.484,0,0,1,531.21,426.28Z"/>
          </g>
        </g>
        <path id="Path_52694" data-name="Path 52694" d="M442.54,397.51h-2.97L471.5,453.1H436.88v2.82h38.46v-2.95Z" fill="#323e78"/>
        <path id="Path_52695" data-name="Path 52695" d="M477.32,397.51H442.54l32.8,55.46v2.95h33.62v-3.33Z"/>
      </g>
    </g>
    <g id="Group_71510" data-name="Group 71510">
      <g id="Group_71507" data-name="Group 71507">
        <g id="Group_71506" data-name="Group 71506">
          <path id="Path_52697" data-name="Path 52697" d="M642.95,114.29V260.61a14.775,14.775,0,0,1-14.77,14.78H515.5a14.583,14.583,0,0,1-5.99-1.27,14.764,14.764,0,0,1-8.79-13.51V114.29A14.769,14.769,0,0,1,515.5,99.52H628.18A14.766,14.766,0,0,1,642.95,114.29Z" fill="#536dfe"/>
          <g id="Group_71505" data-name="Group 71505">
            <g id="Group_71500" data-name="Group 71500">
              <path id="Path_52698" data-name="Path 52698" d="M642.95,252.26v8.35a14.775,14.775,0,0,1-14.77,14.78H515.5a14.583,14.583,0,0,1-5.99-1.27c9.51-12.07,13.26-28.42,26.62-36.76a118.838,118.838,0,0,1,27.29-12.12,86.2,86.2,0,0,1,23.8-3.73,61.338,61.338,0,0,1,22,3.66C623.09,230.42,633.57,240.52,642.95,252.26Z" fill="#773040"/>
              <path id="Path_52699" data-name="Path 52699" d="M554.98,242.22c-.83,2.67-1.64,5.67-.36,8.15a7,7,0,0,0,4.98,3.4,15.842,15.842,0,0,0,6.2-.32,43.957,43.957,0,0,0,26.05-16.76" fill="none" stroke="#000" stroke-linecap="round" stroke-linejoin="round" stroke-width="1"/>
            </g>
            <g id="Group_71504" data-name="Group 71504">
              <path id="Path_52700" data-name="Path 52700" d="M543.99,129.59c-4.88,2.74-8.34,7.52-10.72,12.59-3.84,8.18-4.99,18.54.38,25.81,3.27,4.43,8.47,7.1,11.89,11.42a18.993,18.993,0,0,1,3.16,17.24c-1.35,4.27-4.18,7.91-5.88,12.05s-3.08,11.49,1.26,12.57c16.53,4.08,42.34,1.3,60.81-8,3.04-1.53,6.12-3.27,8.14-6.02,1.95-2.65-.97-6.41-2.74-9.18-3.68-5.78-6.78-12.55-5.49-19.28.4-2.09,1.22-4.08,1.75-6.14a33.786,33.786,0,0,0,.81-9.83,61.352,61.352,0,0,0-4.57-20.7,25.69,25.69,0,0,0-3.52-6.34,23.772,23.772,0,0,0-8.98-6.38,59.391,59.391,0,0,0-23.5-4.71,45.083,45.083,0,0,0-10.05.81C552.37,126.44,547.89,127.4,543.99,129.59Z" fill="#8c5a2c"/>
              <g id="Group_71501" data-name="Group 71501">
                <path id="Path_52701" data-name="Path 52701" d="M587.8,225.13c-3.06-18.33-3.76-37.23-4.26-55.92a63.55,63.55,0,0,0-23.71,19.12,221.525,221.525,0,0,1,3.59,43.56C543.73,264,592.38,241.81,587.8,225.13Z" fill="#ff9b6d"/>
                <path id="Path_52702" data-name="Path 52702" d="M559.83,188.33a63.015,63.015,0,0,1,20.14-17.29c-.16,14.83-6.37,29.03-17.35,38.17Q561.735,198.71,559.83,188.33Z"/>
              </g>
              <g id="Group_71503" data-name="Group 71503">
                <path id="Path_52703" data-name="Path 52703" d="M543.61,143.21c8.53-5.78,29.05-1.77,34.9,1.1-.47,3.61-1.63,9.71-1.63,9.71l3.71,12.07s7.81-4.52,11.29-1.86c6.52,5-3.63,18.88-11.51,15.05-.36-.17-11.59,17.3-30.65,17.34-3.23.01-8.09-4.63-9.05-14.21C539.19,167.82,541.03,160.56,543.61,143.21Z" fill="#ff9b6d"/>
                <g id="Group_71502" data-name="Group 71502">
                  <path id="Path_52704" data-name="Path 52704" d="M560.25,184.73a11.669,11.669,0,0,1-4.54,2.43,11.278,11.278,0,0,1-5.5.3c-.17-.04-.33-.09-.5-.14C551.48,185.07,556.3,184.05,560.25,184.73Z" fill="#961717"/>
                  <path id="Path_52705" data-name="Path 52705" d="M546.48,184.06c2.3-1.06,9.22-.74,14.83-.31-.34.34-.69.66-1.06.97-3.95-.68-8.77.34-10.54,2.59C548.02,186.75,546.55,185.28,546.48,184.06Z" fill="#520c0c"/>
                </g>
                <path id="Path_52706" data-name="Path 52706" d="M590.81,168.79a2.74,2.74,0,0,0-2.75-2.71,4.187,4.187,0,0,0-3.48,2.23,9.482,9.482,0,0,0-1.03,4.17,1.938,1.938,0,1,1,.92,3.58" fill="none" stroke="#000" stroke-linecap="round" stroke-linejoin="round" stroke-width="1"/>
                <path id="Path_52707" data-name="Path 52707" d="M560.53,164.44a2.677,2.677,0,1,0,1.2-3.59A2.68,2.68,0,0,0,560.53,164.44Z"/>
                <path id="Path_52708" data-name="Path 52708" d="M542.61,164.44a2.677,2.677,0,1,0,1.2-3.59A2.68,2.68,0,0,0,542.61,164.44Z"/>
                <path id="Path_52709" data-name="Path 52709" d="M571.33,156.81c-1.74-1.83-7.64-3.89-12.26-2.07" fill="none" stroke="#000" stroke-linecap="round" stroke-linejoin="round" stroke-width="2"/>
                <path id="Path_52710" data-name="Path 52710" d="M550.06,154.97a6.218,6.218,0,0,0-7.62.92" fill="none" stroke="#000" stroke-linecap="round" stroke-linejoin="round" stroke-width="2"/>
                <path id="Path_52711" data-name="Path 52711" d="M550.77,166.78a40.844,40.844,0,0,1-5.03,6.98,11.933,11.933,0,0,0,3.76,5.45" fill="none" stroke="#000" stroke-linecap="round" stroke-linejoin="round" stroke-width="1"/>
              </g>
              <path id="Path_52712" data-name="Path 52712" d="M567.1,160.64c8.51,5.26,18.94,6.66,28.92,5.99a2.584,2.584,0,0,0,1.5-.43,2.209,2.209,0,0,0,.64-1.46,15.6,15.6,0,0,0-1.09-6.85c-1.79-5.44-4.03-10.83-7.63-15.28a29.635,29.635,0,0,0-31.3-9.83c-4.29,1.23-5.45,2.83-4.92,7.26C554.24,148.57,559.9,156.18,567.1,160.64Z" fill="#8c5a2c"/>
            </g>
          </g>
        </g>
        <path id="Path_52713" data-name="Path 52713" d="M522.13,270.3v38.5l15.74-38.5Z" fill="#773040"/>
      </g>
      <g id="Group_71509" data-name="Group 71509">
        <g id="Group_71508" data-name="Group 71508">
          <path id="Path_52714" data-name="Path 52714" d="M506.54,166.6H443.07a10.473,10.473,0,0,1-10.47-10.47V151a10.473,10.473,0,0,1,10.47-10.47h63.47A10.473,10.473,0,0,1,517.01,151v5.13A10.467,10.467,0,0,1,506.54,166.6Z" fill="#1377e3"/>
          <path id="Path_52715" data-name="Path 52715" d="M504.49,163.26,530,185.81l-18.89-25.88Z" fill="#1377e3"/>
        </g>
        <line id="Line_1" data-name="Line 1" x2="67.56" transform="translate(440.94 149.28)" fill="none" stroke="#fff" stroke-linecap="round" stroke-linejoin="round" stroke-width="1"/>
        <line id="Line_2" data-name="Line 2" x2="67.56" transform="translate(440.94 152.97)" fill="none" stroke="#fff" stroke-linecap="round" stroke-linejoin="round" stroke-width="1"/>
        <line id="Line_3" data-name="Line 3" x2="41.54" transform="translate(440.94 156.65)" fill="none" stroke="#fff" stroke-linecap="round" stroke-linejoin="round" stroke-width="1"/>
      </g>
    </g>
    <g id="Group_71514" data-name="Group 71514">
      <g id="Group_71511" data-name="Group 71511">
        <path id="Path_52716" data-name="Path 52716" d="M387.34,205.6H341.08a17.622,17.622,0,0,1-17.62-17.62V147.24a17.622,17.622,0,0,1,17.62-17.62h46.26a17.622,17.622,0,0,1,17.62,17.62v40.74A17.622,17.622,0,0,1,387.34,205.6Z" fill="#1377e3"/>
        <path id="Path_52717" data-name="Path 52717" d="M328.18,177.63l-37.34,13.2h40.05Z" fill="#1377e3"/>
      </g>
      <g id="Group_71513" data-name="Group 71513" transform="translate(5.837 9.223)">
        <g id="Group_71512" data-name="Group 71512" transform="translate(347.55 141.28)">
          <path id="Path_52718" data-name="Path 52718" d="M354.741,164.615a14.976,14.976,0,0,1,.76-5.3,8.272,8.272,0,0,1,2.462-3.365,16.078,16.078,0,0,0,2.586-2.612,4.241,4.241,0,0,0,.883-2.612q0-3.469-2.988-3.469a2.761,2.761,0,0,0-2.228,1.013,4.323,4.323,0,0,0-.9,2.735h-7.77a9.259,9.259,0,0,1,2.9-7.159q2.845-2.563,8-2.566,5.126,0,7.939,2.365a8.313,8.313,0,0,1,2.813,6.737,7.811,7.811,0,0,1-.76,3.469,11.869,11.869,0,0,1-2.436,3.2l-2.644,2.462a6.251,6.251,0,0,0-1.566,2.215,8.626,8.626,0,0,0-.481,2.884h-6.568Zm-.948,6.984a3.566,3.566,0,0,1,1.228-2.793,4.853,4.853,0,0,1,6.133,0,3.792,3.792,0,0,1,0,5.587,4.853,4.853,0,0,1-6.133,0A3.588,3.588,0,0,1,353.793,171.6Z" transform="translate(-347.55 -141.28)" fill="#fff"/>
        </g>
      </g>
    </g>
    <g id="Group_71517" data-name="Group 71517">
      <g id="Group_71516" data-name="Group 71516">
        <path id="Path_52719" data-name="Path 52719" d="M613.99,455.92H584.06a2.364,2.364,0,0,1-2.36-2.36V412.24a2.364,2.364,0,0,1,2.36-2.36h29.93a2.364,2.364,0,0,1,2.36,2.36v41.32A2.364,2.364,0,0,1,613.99,455.92Z" fill="#002e5f"/>
        <g id="Group_71515" data-name="Group 71515">
          <path id="Path_52720" data-name="Path 52720" d="M586.03,445.78h-7.84a8.8,8.8,0,0,1-8.79-8.79v-8.18a8.8,8.8,0,0,1,8.79-8.79h7.84v-4.2h-7.84a13.008,13.008,0,0,0-12.99,12.99v8.18a13.008,13.008,0,0,0,12.99,12.99h7.84Z" fill="#002e5f"/>
        </g>
      </g>
      <path id="Path_52721" data-name="Path 52721" d="M598.74,408.6c-1.47-2.93-3.37-5.31-4.79-8.42a15.121,15.121,0,0,1-1.36-5.11,11.113,11.113,0,0,1,.17-2.86,10.308,10.308,0,0,1,1.02-2.75,41.374,41.374,0,0,1,2.81-4.02,11.876,11.876,0,0,0,1.03-1.74,13.418,13.418,0,0,0,.71-1.93,14.259,14.259,0,0,0-.48-8.82,11.049,11.049,0,0,1,3.58,9.34,12.16,12.16,0,0,1-1.64,5.18c-.9,1.53-1.89,2.75-2.5,3.9a7.224,7.224,0,0,0-.92,3.58,17.108,17.108,0,0,0,.54,4.2C597.59,402.04,598.89,405.27,598.74,408.6Z" fill="#fff"/>
    </g>
  </g>
</svg>
