<svg id="Layer_1" data-name="Layer 1" xmlns="http://www.w3.org/2000/svg" viewBox="0 0 55 55"><defs><style>.cls-1{fill:#19c0ff;}</style></defs><g id="Group_1" data-name="Group 1"><path id="Path_1" data-name="Path 1" class="cls-1" d="M34.81,0a2,2,0,0,1,1.31,2.1,22.31,22.31,0,0,0,2,9,1.61,1.61,0,0,0,.44.59,6.86,6.86,0,0,1,2.68,5.59v.92a.36.36,0,0,0,0,.09c.65-1,1.35-1.33,2.19-1.06a1.67,1.67,0,0,1,1.2,1.65q0,1.66,0,3.33a1.71,1.71,0,0,1-3.25.86l-.18-.32v.68c0,4.71,0,9.41,0,14.12a6.91,6.91,0,0,1-2.7,5.69,1.47,1.47,0,0,0-.41.55,23.27,23.27,0,0,0-2,9.19c0,1.37-.65,2-2,2H17.47a1.72,1.72,0,0,1-2-1.95,23.13,23.13,0,0,0-2-9.19,2.19,2.19,0,0,0-.52-.65,6.66,6.66,0,0,1-2.58-5.26q0-10.44,0-20.89a6.65,6.65,0,0,1,2.59-5.25,2,2,0,0,0,.51-.66,22.15,22.15,0,0,0,2-9A2,2,0,0,1,16.76,0ZM13.76,27.5v10A3.5,3.5,0,0,0,17,41.23a4.51,4.51,0,0,0,.52,0H34.05A3.5,3.5,0,0,0,37.81,38a2.26,2.26,0,0,0,0-.52q0-10,0-20a3.5,3.5,0,0,0-3.22-3.77,2.72,2.72,0,0,0-.57,0H17.54a4.6,4.6,0,0,0-1.27.15,3.42,3.42,0,0,0-2.51,3.51C13.75,20.78,13.76,24.14,13.76,27.5ZM19,3.46l-1.36,6.83H33.92L32.56,3.46ZM33.92,44.7H17.66L19,51.51H32.57Z"/><path id="Path_2" data-name="Path 2" class="cls-1" d="M27.5,22.64c0,1.22,0,2.43,0,3.65a1,1,0,0,0,.35.84q2.14,2.1,4.25,4.25a1.7,1.7,0,0,1,.13,2.4,1.65,1.65,0,0,1-.81.51,1.56,1.56,0,0,1-1.64-.39c-1.76-1.73-3.51-3.47-5.23-5.25a1.94,1.94,0,0,1-.46-1.2c0-2.84,0-5.69,0-8.53a1.69,1.69,0,0,1,1.65-1.73h.08a1.69,1.69,0,0,1,1.7,1.68v.07C27.51,20.17,27.5,21.41,27.5,22.64Z"/></g></svg>