<svg xmlns="http://www.w3.org/2000/svg" xmlns:xlink="http://www.w3.org/1999/xlink" width="510.457" height="350.454" viewBox="0 0 510.457 350.454">
  <defs>
    <linearGradient id="linear-gradient" x1="0.674" y1="0.825" x2="0.365" y2="0.004" gradientUnits="objectBoundingBox">
      <stop offset="0" stop-color="#a9dff4"/>
      <stop offset="1" stop-color="#eff8f8"/>
    </linearGradient>
    <clipPath id="clip-path">
      <path id="Path_52735" data-name="Path 52735" d="M624.211,539.159c-18.232,26.7-40.252,46.643-63.484,59.981-39.413,22.618-82.36,26.286-116.4,11.856a97.344,97.344,0,0,1-33.561-23.442c-50.461-54.323-98.571-48.125-151.352-91.76s-48.9-167.474,39.578-207.83,111.729,10.912,190.3-9.311C718.412,219.645,684.761,450.452,624.211,539.159Z" transform="translate(-224.965 -269.125)"/>
    </clipPath>
    <linearGradient id="linear-gradient-2" x1="0.326" y1="0.666" x2="0.684" y2="0.323" gradientUnits="objectBoundingBox">
      <stop offset="0" stop-color="#716db2"/>
      <stop offset="1" stop-color="#987db9"/>
    </linearGradient>
    <linearGradient id="linear-gradient-3" x1="0.064" y1="0.414" x2="1.169" y2="0.632" xlink:href="#linear-gradient-2"/>
    <linearGradient id="linear-gradient-4" x1="0" y1="0.5" x2="1" y2="0.5" xlink:href="#linear-gradient-2"/>
    <radialGradient id="radial-gradient" cx="0.749" cy="0.313" r="0.617" gradientUnits="objectBoundingBox">
      <stop offset="0" stop-color="#63cefe"/>
      <stop offset="1" stop-color="#36b5f0"/>
    </radialGradient>
    <linearGradient id="linear-gradient-5" x1="0.273" y1="0.257" x2="0.799" y2="0.821" gradientUnits="objectBoundingBox">
      <stop offset="0" stop-color="#ed66fb"/>
      <stop offset="1" stop-color="#eaa6f2"/>
    </linearGradient>
    <linearGradient id="linear-gradient-6" x1="0" y1="0.5" x2="1" y2="0.5" xlink:href="#linear-gradient-5"/>
    <linearGradient id="linear-gradient-7" x1="0.838" y1="1.001" x2="0.237" y2="0.11" xlink:href="#linear-gradient-5"/>
    <linearGradient id="linear-gradient-8" x1="0.188" y1="0.556" x2="1.148" y2="0.218" gradientUnits="objectBoundingBox">
      <stop offset="0" stop-color="#2e3c82"/>
      <stop offset="1" stop-color="#31499b"/>
    </linearGradient>
    <linearGradient id="linear-gradient-9" x1="0.636" y1="0.889" x2="0.524" y2="0.389" gradientUnits="objectBoundingBox">
      <stop offset="0" stop-color="#18bad8"/>
      <stop offset="1" stop-color="#47dedb"/>
    </linearGradient>
    <linearGradient id="linear-gradient-10" x1="-0.607" y1="0.8" x2="0.805" y2="0.404" gradientUnits="objectBoundingBox">
      <stop offset="0" stop-color="#f7a7a9"/>
      <stop offset="1" stop-color="#f9c3d5"/>
    </linearGradient>
    <linearGradient id="linear-gradient-11" x1="0.924" y1="0.847" x2="0.413" y2="0.341" xlink:href="#linear-gradient-9"/>
    <linearGradient id="linear-gradient-12" x1="0.813" y1="1.069" x2="0.413" y2="0.341" gradientUnits="objectBoundingBox">
      <stop offset="0" stop-color="#7286ef"/>
      <stop offset="1" stop-color="#95b3fc"/>
    </linearGradient>
    <linearGradient id="linear-gradient-13" x1="0.5" y1="0.899" x2="0.5" y2="-0.105" gradientUnits="objectBoundingBox">
      <stop offset="0" stop-color="#4f63ae"/>
      <stop offset="1" stop-color="#6f9bd1"/>
    </linearGradient>
    <linearGradient id="linear-gradient-14" x1="0.415" y1="0.807" x2="0.549" y2="0.152" xlink:href="#linear-gradient-10"/>
    <linearGradient id="linear-gradient-15" x1="0.349" y1="0.591" x2="1.087" y2="0.157" gradientUnits="objectBoundingBox">
      <stop offset="0.005" stop-color="#382129"/>
      <stop offset="1" stop-color="#63323c"/>
    </linearGradient>
    <linearGradient id="linear-gradient-16" x1="0.783" y1="0.874" x2="0.459" y2="0.23" gradientUnits="objectBoundingBox">
      <stop offset="0.005" stop-color="#dbedea"/>
      <stop offset="1" stop-color="#f5fafd"/>
    </linearGradient>
    <linearGradient id="linear-gradient-17" x1="0.375" y1="0.887" x2="0.644" y2="0.05" xlink:href="#linear-gradient-15"/>
    <linearGradient id="linear-gradient-18" x1="0.496" y1="0.18" x2="0.503" y2="0.767" xlink:href="#linear-gradient-10"/>
    <linearGradient id="linear-gradient-19" x1="0.744" y1="1.226" x2="0.518" y2="0.506" xlink:href="#linear-gradient-10"/>
    <linearGradient id="linear-gradient-20" x1="0.591" y1="1.023" x2="0.438" y2="0.123" gradientUnits="objectBoundingBox">
      <stop offset="0.005" stop-color="#281f4e"/>
      <stop offset="1" stop-color="#2a3b7d"/>
    </linearGradient>
    <linearGradient id="linear-gradient-21" x1="0.498" y1="0.97" x2="0.502" y2="0.022" xlink:href="#linear-gradient-16"/>
    <linearGradient id="linear-gradient-22" x1="0.479" y1="1.064" x2="0.514" y2="-0.036" xlink:href="#linear-gradient-2"/>
    <linearGradient id="linear-gradient-23" x1="0.358" y1="2.038" x2="0.559" y2="-0.16" gradientUnits="objectBoundingBox">
      <stop offset="0" stop-color="#fff"/>
      <stop offset="1" stop-color="#fff" stop-opacity="0.102"/>
    </linearGradient>
    <linearGradient id="linear-gradient-24" x1="0.302" y1="2.081" x2="0.582" y2="-0.141" xlink:href="#linear-gradient-23"/>
  </defs>
  <g id="new_illustration_06" data-name="new illustration 06" transform="translate(-180.513 -269.125)">
    <path id="Path_52722" data-name="Path 52722" d="M624.2,539.152q-4.917,7.208-10.194,13.757c-.479.6-.958,1.182-1.437,1.766a190.022,190.022,0,0,1-51.838,44.458,164.118,164.118,0,0,1-17.259,8.622c-.569.24-1.153.494-1.721.719-33.141,13.712-67.361,14.625-95.667,3.218-.584-.225-1.168-.464-1.751-.7h-.015a97.286,97.286,0,0,1-33.546-23.441c-1.033-1.123-2.081-2.216-3.114-3.278-.434-.449-.868-.9-1.332-1.332-43.919-44.4-86.207-45.147-131.548-75.668-.913-.614-1.856-1.257-2.769-1.916-4.161-2.9-8.353-6.077-12.589-9.565-18.681-15.463-30.267-40.955-33.5-69.232q-.157-1.3-.269-2.6c-3.024-31.375,4.161-65.894,23.2-93.781.449-.659.913-1.317,1.377-1.961a120.721,120.721,0,0,1,48.784-40.237c.883-.389,1.751-.793,2.62-1.183,1.033-.449,2.066-.913,3.084-1.332,75.4-32.064,102.343,4.057,162.923-2.754.644-.075,1.287-.135,1.946-.24a161.153,161.153,0,0,0,19.729-3.8q13.18-3.39,25.223-5.524c.6-.12,1.212-.225,1.811-.329,32.782-5.643,59.277-4.536,80.4,1.677.763.21,1.512.449,2.26.689,16.316,5.149,29.324,13.412,39.473,23.95.883.913,1.751,1.841,2.59,2.8C692.446,360,664.184,480.563,624.2,539.152Z" transform="translate(22.098 0.007)" fill="url(#linear-gradient)"/>
    <g id="Group_71519" data-name="Group 71519" transform="translate(247.734 272.785)" opacity="0.6">
      <path id="Path_52723" data-name="Path 52723" d="M472.11,484.069c-2.769,34.055-14.864,59.412-26.271,76.237-.584-.224-1.168-.464-1.751-.7h-.015c11.3-16.586,23.412-41.764,26.166-75.683,2.829-34.7-3.323-57.9-19.355-73-23.127-21.78-68.6-27.528-139.032-17.559-35.477,5.03-64.427-1.108-86.162-18.2q-.157-1.3-.269-2.6c21.5,17.648,50.446,24.025,86.162,18.966,71.013-10.059,117.013-4.146,140.574,18.053C468.637,425.076,474.969,448.757,472.11,484.069Z" transform="translate(-225.42 -221.393)" fill="#fff"/>
      <path id="Path_52724" data-name="Path 52724" d="M392.044,508.639c-.434-.449-.868-.9-1.332-1.332,22.034-25.642,29.893-48.8,21.585-64.367-9.371-17.529-37.288-23.816-76.626-17.214a440.288,440.288,0,0,1-76.522,5.913c-.913-.614-1.856-1.257-2.769-1.916a439.991,439.991,0,0,0,78.977-5.838c40.177-6.736,68.813-.1,78.572,18.187C422.761,458.613,414.992,482.054,392.044,508.639Z" transform="translate(-210.036 -197.163)" fill="#fff"/>
      <path id="Path_52725" data-name="Path 52725" d="M469.173,447.249c-41.479,56.763-41.045,107.3-33.4,139.691A154.022,154.022,0,0,0,441.615,606c-.569.24-1.153.494-1.721.719a155.577,155.577,0,0,1-5.913-19.355c-7.769-32.767-8.2-83.886,33.7-141.218,41.509-56.778,42.392-109.319,35.836-143.418a177.442,177.442,0,0,0-8.622-30.043c.763.21,1.512.449,2.26.689a179.045,179.045,0,0,1,8.2,28.995C511.969,336.822,511.086,389.917,469.173,447.249Z" transform="translate(-123.807 -271.018)" fill="#fff"/>
      <path id="Path_52726" data-name="Path 52726" d="M501.543,430.937c-23.232,48.395-21.2,87-14.595,112.043-.479.6-.958,1.183-1.437,1.766-6.961-25.328-9.49-64.891,14.355-114.6,24.669-51.419,20.253-103.481,12.23-138.1-.225-.973-.449-1.931-.7-2.889.883.913,1.751,1.841,2.59,2.8C522.035,326.857,526.361,379.189,501.543,430.937Z" transform="translate(-98.576 -262.834)" fill="#fff"/>
      <path id="Path_52727" data-name="Path 52727" d="M502.13,334.9c-8.278,13.951-22.319,22.3-41.734,24.864a163.246,163.246,0,0,1-21.331,1.317c-34.968,0-73.258-9.43-107.732-17.933-33.86-8.338-66.193-16.316-90.413-14.221.449-.659.913-1.317,1.377-1.961,24.37-1.662,56.194,6.167,89.485,14.385,41.479,10.224,88.512,21.81,128.389,16.571,18.816-2.47,32.408-10.523,40.371-23.95,10.718-18.053,9.535-42.826,6.048-62.077.6-.12,1.212-.225,1.811-.329C511.934,291.15,513.117,316.4,502.13,334.9Z" transform="translate(-217.718 -271.57)" fill="#fff"/>
      <path id="Path_52728" data-name="Path 52728" d="M444.138,278.02c-.18,8.592-2.185,17.5-8.113,24.1-5.973,6.661-15.119,10-27.289,10a99.133,99.133,0,0,1-22.663-2.994c-19.011-4.506-36.15-8.981-51.254-12.918-22.513-5.883-41.524-10.838-58.649-13.861,1.033-.449,2.066-.913,3.084-1.332,16.481,3.069,34.683,7.814,56.029,13.382,15.1,3.952,32.213,8.413,51.209,12.918,23.172,5.494,39.369,3.323,48.125-6.437,5.464-6.092,7.365-14.445,7.559-22.618C442.835,278.185,443.479,278.11,444.138,278.02Z" transform="translate(-200.202 -268.365)" fill="#fff"/>
    </g>
    <g id="Group_71529" data-name="Group 71529" transform="translate(247.054 269.125)">
      <g id="Group_71528" data-name="Group 71528" clip-path="url(#clip-path)">
        <g id="Group_71524" data-name="Group 71524" transform="translate(341.436 189.381)">
          <g id="Group_71523" data-name="Group 71523">
            <g id="Group_71520" data-name="Group 71520" transform="translate(0 31.734)">
              <path id="Path_52729" data-name="Path 52729" d="M504.628,517.866l-51.568-57.81,19.19-43.216,51.568,57.81Z" transform="translate(-453.06 -416.84)" fill="url(#linear-gradient-2)"/>
            </g>
            <g id="Group_71521" data-name="Group 71521" transform="translate(19.19)">
              <path id="Path_52730" data-name="Path 52730" d="M517.448,485.185l-51.568-57.81,55.685-31.734,51.568,57.8Z" transform="translate(-465.88 -395.64)" fill="url(#linear-gradient-3)"/>
            </g>
            <g id="Group_71522" data-name="Group 71522" transform="translate(51.568 57.795)">
              <path id="Path_52731" data-name="Path 52731" d="M562.385,434.25l-19.19,43.216L487.51,509.215,506.7,466Z" transform="translate(-487.51 -434.25)" fill="url(#linear-gradient-4)"/>
            </g>
          </g>
        </g>
        <circle id="Ellipse_1021" data-name="Ellipse 1021" cx="49.847" cy="49.847" r="49.847" transform="translate(35.289 197.18)" fill="url(#radial-gradient)"/>
        <g id="Group_71527" data-name="Group 71527" transform="translate(171.128 -41.662)">
          <g id="Group_71526" data-name="Group 71526">
            <path id="Path_52732" data-name="Path 52732" d="M341.715,277.89a7.822,7.822,0,0,0-1.228,4.087l-1.2,38.815,21.945-34.01,1.2-38.815a7.822,7.822,0,0,1,1.228-4.087Z" transform="translate(-339.285 -240.007)" fill="url(#linear-gradient-5)"/>
            <path id="Path_52733" data-name="Path 52733" d="M420.9,300.308,374.184,287.3c-7.35-2.051-13.143-8.652-12.948-14.759l-21.945,34.01c-.195,6.107,5.6,12.709,12.948,14.759l46.718,13.008c5.464,1.527,10.239.09,12.409-3.263l21.945-34.01C431.142,300.4,426.366,301.834,420.9,300.308Z" transform="translate(-339.287 -225.766)" fill="url(#linear-gradient-6)"/>
            <g id="Group_71525" data-name="Group 71525" transform="translate(21.945)">
              <path id="Path_52734" data-name="Path 52734" d="M415.5,254.91c7.35,2.051,13.143,8.652,12.948,14.759l-1.2,38.815c-.195,6.107-6.287,9.4-13.637,7.35L366.9,302.826c-7.35-2.051-13.143-8.652-12.948-14.759l1.2-38.815c.195-6.107,6.287-9.4,13.637-7.35Z" transform="translate(-353.947 -241.293)" fill="url(#linear-gradient-7)"/>
            </g>
          </g>
        </g>
      </g>
    </g>
    <g id="Group_71538" data-name="Group 71538" transform="translate(412.374 305.743)">
      <g id="Group_71530" data-name="Group 71530" transform="translate(54.04 210.409)">
        <path id="Path_52736" data-name="Path 52736" d="M487.91,517.138a155.424,155.424,0,0,1-46.239,17.723c-24.834,5.06-49.173,3.024-70.16-5.868-.21-39.264,11.376-77.091,11.376-77.091v-.12A31.317,31.317,0,0,1,388.2,434.15a101.819,101.819,0,0,0,37.737,9.191c27.738,1.317,47.212-9.191,47.212-9.191,4.117,8.158,3.428,17.424,3.428,17.424C483.105,470.54,486.338,497.05,487.91,517.138Z" transform="translate(-371.508 -434.15)" fill="url(#linear-gradient-8)"/>
        <path id="Path_52737" data-name="Path 52737" d="M441.671,534.862c-24.834,5.06-49.173,3.024-70.16-5.868-.21-39.264,11.376-77.091,11.376-77.091v-.12A31.317,31.317,0,0,1,388.2,434.15a101.819,101.819,0,0,0,37.737,9.191l.03.015a57.675,57.675,0,0,0-15,16.212c-5.958,10.089-8.5,23.921,5.524,38.605A142.828,142.828,0,0,1,441.671,534.862Z" transform="translate(-371.508 -434.15)" fill="#29316d" opacity="0.25"/>
      </g>
      <g id="Group_71535" data-name="Group 71535" transform="translate(0 56.001)">
        <g id="Group_71531" data-name="Group 71531" transform="translate(0.008)">
          <path id="Path_52738" data-name="Path 52738" d="M510.352,446.187a72.351,72.351,0,0,1-1.512,9.715c-3.757,16.062-11.99,18.771-16.571,18.936-.015.015-.045.015-.045,0a11.073,11.073,0,0,1-3.173-.3.055.055,0,0,0-.045-.015l.419,1.078a71.494,71.494,0,0,1,2.8,8.682A70.2,70.2,0,0,1,494.38,501.6c-12.005,8.233-25.283,11.077-37.917,11.077-28.441,0-53.619-14.43-53.619-14.43s3.2-7.335,5.239-26.825a100.9,100.9,0,0,0-.344-21.675,141.1,141.1,0,0,0-2.485-14.655c-.554-2.44-.943-3.847-.943-3.847a2.317,2.317,0,0,1-.359.24,74.028,74.028,0,0,1-15.613,8.173c-6.3,2.365-13.7,3.952-20.7,2.649-7.8-1.452-13.951-16.2-18.337-31.869a331.913,331.913,0,0,1-8.023-39.009c-5.074-3.188-7.844-21.091-4.206-26.63,3.637-5.524,11.346-14.984,14.116-13.682s1.467,25.672,1.467,25.672,8.577-14.31,9.445-7.9-5.239,18.068-5.239,18.068a191.213,191.213,0,0,0,11.826,29.294,186.273,186.273,0,0,0,9.58,16.81s23.427-30.267,36.674-38.276,21.675-4.625,21.675-4.625l43.8-.614c14.116-.763,22.2,7.395,26.555,19.654.24.644.359,1.018.359,1.018C512.552,405.831,512.059,427.641,510.352,446.187Z" transform="translate(-335.412 -330.999)" fill="url(#linear-gradient-9)"/>
          <path id="Path_52739" data-name="Path 52739" d="M389.35,393.865c-3.757,8.1-3.682,13.891-2.964,17.289a74.026,74.026,0,0,1-15.613,8.173c-.12-7.155.868-20.672,8.981-27.318a59.785,59.785,0,0,0,16-20.088S395.756,380.078,389.35,393.865Z" transform="translate(-317.846 -310.665)" fill="#1688f5" opacity="0.36"/>
          <path id="Path_52740" data-name="Path 52740" d="M481.914,434.416c-3.757,16.062-11.99,18.771-16.571,18.936-.015.015-.045.015-.045,0a11.073,11.073,0,0,1-3.173-.3.055.055,0,0,0-.045-.015l.419,1.078a71.493,71.493,0,0,1,2.8,8.682c-8.1,1.317-19.43,2.35-27.094-.344-25.612-9.026-48.6-41.913-48.6-41.913l11.99-12.769s25.567,5.778,37.5,2.29,15.253-35.821,15.253-35.821Z" transform="translate(-308.486 -309.512)" fill="#1688f5" opacity="0.36"/>
        </g>
        <g id="Group_71534" data-name="Group 71534" transform="translate(0 0)">
          <path id="Path_52741" data-name="Path 52741" d="M368.673,396.251a39.038,39.038,0,0,1-19.385,14.191,333.028,333.028,0,0,1-8.008-39.009c-5.089-3.188-7.844-21.091-4.221-26.63s11.346-14.984,14.116-13.682,1.467,25.657,1.467,25.657,8.577-14.31,9.46-7.9-5.239,18.068-5.239,18.068A191.61,191.61,0,0,0,368.673,396.251Z" transform="translate(-335.407 -330.999)" fill="url(#linear-gradient-10)"/>
          <g id="Group_71533" data-name="Group 71533" transform="translate(51.154 43.799)">
            <path id="Path_52742" data-name="Path 52742" d="M483.65,431.663c-2.275,24.759-12.694,28.441-18.083,28.651a.028.028,0,0,1-.045,0,20.866,20.866,0,0,1-3.173-.3A.055.055,0,0,0,462.3,460c-8.772-1.587-17.364-5.329-24.789-9.505-13.547-7.589-25.852-21.75-25.852-21.75-1.317,2.38-3.578-.15-4.176.09.419-.135-2.59,3.623-2.335,6.407.284,3.2-1.647,4.566-9.505.778s-5.823-8.532-5.823-8.532c-2.53-3.1,1.961-13.592,9.894-13.1,5,.3,29.624,8.607,44.7,13.068,6.781,2.021,11.631,3.263,11.87,2.65,4.655-16.3-10.284-59.667,6.317-68.693,9.79-5.314,16.122,9.206,17.678,13.248.24.644.359,1.018.359,1.018C485.866,391.292,485.357,413.117,483.65,431.663Z" transform="translate(-359.871 -360.258)" fill="url(#linear-gradient-11)"/>
            <g id="Group_71532" data-name="Group 71532" transform="translate(0 65.148)">
              <path id="Path_52743" data-name="Path 52743" d="M384.292,437.266c-.718-1.078-2.126-22.3,6.541-30.836,2.6-2.56,10-4.072,16.152-.7,4.745,2.6,12.035,10.1,7.559,31.136l-2.275-.479c3.084-14.505.808-24.654-6.392-28.606-5.06-2.769-11.406-1.647-13.4.314-7.185,7.1-6.631,26.091-6.107,28.142l-.823.21Z" transform="translate(-362.542 -403.78)" fill="#4f7ef1"/>
              <path id="Path_52744" data-name="Path 52744" d="M427.78,489.713h-58.2l7.859-66.073H427.78Z" transform="translate(-369.58 -393.912)" fill="url(#linear-gradient-12)"/>
              <path id="Path_52745" data-name="Path 52745" d="M408.46,423.64h7.889l7.724,66.073-7.8-2.036-7.814,2.036Z" transform="translate(-350.26 -393.912)" fill="url(#linear-gradient-13)"/>
            </g>
            <path id="Path_52746" data-name="Path 52746" d="M444.407,409.5a49.294,49.294,0,0,1-6.9,23.022,154.03,154.03,0,0,1-25.477-18.636c-3.293,2.23-.928,3.877-2.814,7.185-1.6,2.784-6.886,3.293-14.745-.479s-4.655-11.062-4.655-11.062c-2.23-3.009,1.961-13.592,9.895-13.1C404.709,396.72,429.333,405.028,444.407,409.5Z" transform="translate(-359.846 -342.29)" fill="url(#linear-gradient-14)"/>
          </g>
        </g>
      </g>
      <g id="Group_71537" data-name="Group 71537" transform="translate(84.303)">
        <path id="Path_52747" data-name="Path 52747" d="M415.33,305.282s2.365-14.355,20.178-11.257c13.727,2.4,26.39,21.346,17.469,44.054s-9.7,32.019-1.557,31.435c0,0-20.418,12.11-23.5-10.493S415.33,305.282,415.33,305.282Z" transform="translate(-379.996 -293.587)" fill="url(#linear-gradient-15)"/>
        <path id="Path_52748" data-name="Path 52748" d="M420.27,300.108s3.383-2.575,11.317,1.826c8.338,4.61,9.7,15.792,5.778,18.726C432.35,324.4,420.27,300.108,420.27,300.108Z" transform="translate(-377.541 -290.719)" fill="url(#linear-gradient-16)"/>
        <path id="Path_52749" data-name="Path 52749" d="M397.465,337.721a22.921,22.921,0,0,1-5.718-15.912c.434-9.61,8.443-11.93,8.443-11.93s15.718-18.771,35.222-8.727c25.822,13.293,19.5,32.288,6.407,49.907H405.145Z" transform="translate(-391.725 -291.298)" fill="url(#linear-gradient-17)"/>
        <path id="Path_52750" data-name="Path 52750" d="M447.535,367.906s-23.292,24.16-32.737,28.082-13.248-27.633-13.248-27.633,8.308,1.6,9.76-4.955c.1-.449.18-.9.254-1.332a32.555,32.555,0,0,0-.554-11.9L436.188,334.3s-.733,26.645,2.021,30.417C440.993,368.489,447.535,367.906,447.535,367.906Z" transform="translate(-386.843 -273.357)" fill="url(#linear-gradient-18)"/>
        <path id="Path_52751" data-name="Path 52751" d="M433.063,334.29s-4.251,28.2-24.639,27.767a32.555,32.555,0,0,0-.554-11.9Z" transform="translate(-383.703 -273.362)" fill="#ff97b2" opacity="0.4"/>
        <path id="Path_52752" data-name="Path 52752" d="M395.11,323.785s1.5,27.393,9.505,36.824c6.556,7.709,15.134,7.425,22.409,1.452s11.212-10.044,12.364-16.451c0,0,5.194.24,6.931-5.868,1.751-6.107-5.434-7.769-7.47,0,0,0-4.655-2.425-3.1-12.23,0,0-30.372-.284-32.3-16C403.448,311.51,403.163,320.881,395.11,323.785Z" transform="translate(-390.044 -284.682)" fill="url(#linear-gradient-19)"/>
        <path id="Path_52753" data-name="Path 52753" d="M428.92,322.766s13.487,1.916,18.936,5.479c0,0,2.68,11.766-7.8,12.29a33.283,33.283,0,0,0-8.8-2.185s-.12,3.637-1.781,4.76c-1.467.988-4.027,1.527-7.964,1.8-10.927.734-20.538,0-23.666-.584-1.422-.269-2.425-2.545-3.084-4.94a27.937,27.937,0,0,1-.913-9.116l.269-5.179a2.489,2.489,0,0,1,1.736-2.23h0a2.473,2.473,0,0,1,.479-.1A132.608,132.608,0,0,1,428.92,322.766Z" transform="translate(-390.697 -279.592)" fill="url(#linear-gradient-20)"/>
        <path id="Path_52754" data-name="Path 52754" d="M425.9,323.362c-4.6-.389-18.472-1.332-29.4.24a2.019,2.019,0,0,0-1.706,1.8c-.449,3.907-1.153,13.876,3.084,15,5.284,1.392,22.8,1.751,27.423-.7,3.667-1.946,2.874-10.942,2.4-14.625A1.975,1.975,0,0,0,425.9,323.362Z" transform="translate(-390.371 -279.109)" fill="url(#linear-gradient-21)"/>
        <path id="Path_52755" data-name="Path 52755" d="M424.094,324.653l-.045-.359-.344-.03c-.973-.075-2.29-.18-3.862-.3-.883-.06-1.856-.12-2.889-.165-.748-.03-1.512-.075-2.32-.09-1.6-.06-3.278-.09-5.015-.09-.554,0-1.093,0-1.632.015a85.463,85.463,0,0,0-11.811.868l-.329.045-.03.344c-.584,5.314-.434,13.113,1.721,13.742a23.926,23.926,0,0,0,4.087.689c1.916.21,4.191.344,6.526.389.539.03,1.078.03,1.632.03.239,0,.494,0,.719-.015,1.033,0,2.036-.03,2.979-.075,4.4-.21,7.769-.793,9.176-1.6C424.753,336.793,424.663,329.353,424.094,324.653Z" transform="translate(-389.838 -278.664)" fill="url(#linear-gradient-22)"/>
        <g id="Group_71536" data-name="Group 71536" transform="translate(11.788 44.941)" opacity="0.64">
          <path id="Path_52756" data-name="Path 52756" d="M412.608,323.7l-6.482,16c-2.335-.03-4.61-.18-6.526-.389l6.362-15.688c.539-.015,1.078-.015,1.632-.015C409.315,323.61,411.006,323.64,412.608,323.7Z" transform="translate(-399.6 -323.61)" fill="url(#linear-gradient-23)"/>
          <path id="Path_52757" data-name="Path 52757" d="M414.861,323.89,408.5,339.577c-.943.045-1.946.075-2.979.075l6.452-15.912C413.02,323.77,413.978,323.83,414.861,323.89Z" transform="translate(-396.658 -323.545)" fill="url(#linear-gradient-24)"/>
        </g>
      </g>
    </g>
    <g id="Group_71554" data-name="Group 71554" transform="translate(180.513 334.532)">
      <g id="Group_71539" data-name="Group 71539" transform="translate(282.532 53.185)">
        <path id="Path_52758" data-name="Path 52758" d="M437.146,425.875H388.436a8.433,8.433,0,0,1-7.979-6.811l-11.092-63.9c-.659-3.757,1.766-6.811,5.419-6.811h47.242a8.6,8.6,0,0,1,7.949,6.811l12.649,63.9A5.454,5.454,0,0,1,437.146,425.875Z" transform="translate(-369.258 -348.35)" fill="#b3e6f7"/>
        <path id="Path_52759" data-name="Path 52759" d="M411.6,364.892a66.152,66.152,0,0,0-5.613-7.425c-2.1-1.931-7.14-1.482-7.14-1.482a8.168,8.168,0,0,1-2.32,6.5c-.853-.539-4.057-3.308-4.85-6.5,0,0-5.209-.449-6.556,1.482-.748,1.078-1.886,4.536-2.754,7.425a17.885,17.885,0,0,0-.284,8.742l.4,2.006a6.782,6.782,0,0,0,4.835-.659,15.747,15.747,0,0,1,2.036-9.221l3.488,8.937-1.317,17.184a42.187,42.187,0,0,0,20.642,0l-7.11-17.184-.6-9.386s5.239,5.673,5.973,9.67a7.681,7.681,0,0,0,5.075.659l-.329-2.006A22.562,22.562,0,0,0,411.6,364.892Z" transform="translate(-363.086 -344.579)" fill="#dcf5ff"/>
        <path id="Path_52760" data-name="Path 52760" d="M417.081,396.892H389.762a5.3,5.3,0,0,1-5-4.251h0a3.451,3.451,0,0,1,3.458-4.251h27.229a5.38,5.38,0,0,1,5.045,4.251h0A3.39,3.39,0,0,1,417.081,396.892Z" transform="translate(-361.587 -328.454)" fill="#dcf5ff"/>
      </g>
      <g id="Group_71553" data-name="Group 71553">
        <path id="Path_52761" data-name="Path 52761" d="M457.795,467.315H213.2a9.694,9.694,0,0,1-9.191-7.874L180.628,320.694c-.733-4.341,2.126-7.874,6.377-7.874H426.36a10.053,10.053,0,0,1,9.311,7.874l28.4,138.748C464.935,463.8,462.136,467.315,457.795,467.315Z" transform="translate(-180.513 -312.82)" fill="#b3e6f7"/>
        <g id="Group_71552" data-name="Group 71552" transform="translate(23.762 12.379)">
          <path id="Path_52762" data-name="Path 52762" d="M304.422,450.857h0a2.325,2.325,0,0,1-2.185-1.841L278.391,322.931a1.468,1.468,0,0,1,1.452-1.841h0A2.306,2.306,0,0,1,282,322.931L305.9,449.015A1.467,1.467,0,0,1,304.422,450.857Z" transform="translate(-155.657 -321.09)" fill="#49bff6"/>
          <g id="Group_71547" data-name="Group 71547" transform="translate(0 2.186)">
            <g id="Group_71540" data-name="Group 71540">
              <path id="Path_52763" data-name="Path 52763" d="M248.241,372.157h34.324a4.166,4.166,0,0,0,4.161-5.194l-7.29-39.219a6.486,6.486,0,0,0-6.062-5.194H239.289a4.186,4.186,0,0,0-4.161,5.194l7.05,39.219A6.475,6.475,0,0,0,248.241,372.157Z" transform="translate(-177.179 -322.55)" fill="#49bff6"/>
              <path id="Path_52764" data-name="Path 52764" d="M209.22,372.157h34.324a4.207,4.207,0,0,0,4.206-5.194l-6.976-39.219a6.411,6.411,0,0,0-6.018-5.194H200.672a4.221,4.221,0,0,0-4.206,5.194l6.736,39.219A6.4,6.4,0,0,0,209.22,372.157Z" transform="translate(-196.388 -322.55)" fill="#49bff6"/>
            </g>
            <g id="Group_71541" data-name="Group 71541" transform="translate(43.002 58.454)">
              <path id="Path_52765" data-name="Path 52765" d="M244.974,364.115a3.136,3.136,0,0,0,2.949,2.515,2.029,2.029,0,0,0,2.036-2.515,3.136,3.136,0,0,0-2.949-2.515A2.029,2.029,0,0,0,244.974,364.115Z" transform="translate(-215.267 -361.6)" fill="#dcf5ff"/>
              <path id="Path_52766" data-name="Path 52766" d="M235.113,364.115a3.119,3.119,0,0,0,2.934,2.515,2.029,2.029,0,0,0,2.036-2.515,3.119,3.119,0,0,0-2.934-2.515A2.036,2.036,0,0,0,235.113,364.115Z" transform="translate(-220.166 -361.6)" fill="#dcf5ff"/>
              <path id="Path_52767" data-name="Path 52767" d="M225.153,364.115a3.106,3.106,0,0,0,2.934,2.515,2.046,2.046,0,0,0,2.051-2.515A3.106,3.106,0,0,0,227.2,361.6,2.045,2.045,0,0,0,225.153,364.115Z" transform="translate(-225.115 -361.6)" fill="#dcf5ff"/>
            </g>
            <g id="Group_71546" data-name="Group 71546" transform="translate(7.718 83.303)">
              <g id="Group_71542" data-name="Group 71542" transform="translate(70.2 24.894)">
                <path id="Path_52768" data-name="Path 52768" d="M276.611,410.668h9.909a2.308,2.308,0,0,0,2.32-2.859l-1.856-9.939a3.6,3.6,0,0,0-3.383-2.859h-9.895a2.308,2.308,0,0,0-2.32,2.859l1.841,9.939A3.6,3.6,0,0,0,276.611,410.668Z" transform="translate(-237.063 -394.741)" fill="#49bff6"/>
                <path id="Path_52769" data-name="Path 52769" d="M256.2,398.423h15.194a1.459,1.459,0,0,0,1.467-1.8h0a2.262,2.262,0,0,0-2.126-1.8H255.537a1.459,1.459,0,0,0-1.467,1.8h0A2.275,2.275,0,0,0,256.2,398.423Z" transform="translate(-245.658 -394.83)" fill="#dcf5ff"/>
                <path id="Path_52770" data-name="Path 52770" d="M250.6,403.663h25.013a1.459,1.459,0,0,0,1.467-1.8h0a2.262,2.262,0,0,0-2.126-1.8H249.937a1.459,1.459,0,0,0-1.467,1.8h0A2.262,2.262,0,0,0,250.6,403.663Z" transform="translate(-248.44 -392.226)" fill="#dcf5ff"/>
              </g>
              <g id="Group_71543" data-name="Group 71543" transform="translate(65.725)">
                <path id="Path_52771" data-name="Path 52771" d="M273.53,394.028h9.88a2.314,2.314,0,0,0,2.32-2.859l-1.856-9.939a3.6,3.6,0,0,0-3.383-2.859h-9.865a2.314,2.314,0,0,0-2.32,2.859l1.841,9.939A3.6,3.6,0,0,0,273.53,394.028Z" transform="translate(-234.117 -378.116)" fill="#49bff6"/>
                <path id="Path_52772" data-name="Path 52772" d="M253.18,381.793h15.149a1.443,1.443,0,0,0,1.452-1.8h0a2.259,2.259,0,0,0-2.111-1.8H252.537a1.459,1.459,0,0,0-1.467,1.8h0A2.232,2.232,0,0,0,253.18,381.793Z" transform="translate(-242.673 -378.2)" fill="#dcf5ff"/>
                <path id="Path_52773" data-name="Path 52773" d="M247.605,387.023h24.938a1.443,1.443,0,0,0,1.452-1.8h0a2.262,2.262,0,0,0-2.126-1.8H246.947a1.459,1.459,0,0,0-1.467,1.8h0A2.262,2.262,0,0,0,247.605,387.023Z" transform="translate(-245.45 -375.601)" fill="#dcf5ff"/>
              </g>
              <g id="Group_71544" data-name="Group 71544" transform="translate(4.217 24.894)">
                <path id="Path_52774" data-name="Path 52774" d="M232.465,410.668h9.909a2.333,2.333,0,0,0,2.35-2.859l-1.766-9.939a3.555,3.555,0,0,0-3.368-2.859H229.7a2.333,2.333,0,0,0-2.35,2.859l1.751,9.939A3.57,3.57,0,0,0,232.465,410.668Z" transform="translate(-192.962 -394.741)" fill="#49bff6"/>
                <path id="Path_52775" data-name="Path 52775" d="M212.16,398.423h15.194a1.475,1.475,0,0,0,1.482-1.8h0a2.245,2.245,0,0,0-2.111-1.8H211.532a1.469,1.469,0,0,0-1.482,1.8h0A2.219,2.219,0,0,0,212.16,398.423Z" transform="translate(-201.548 -394.83)" fill="#dcf5ff"/>
                <path id="Path_52776" data-name="Path 52776" d="M206.5,403.663h25.013a1.469,1.469,0,0,0,1.482-1.8h0a2.245,2.245,0,0,0-2.111-1.8H205.872a1.469,1.469,0,0,0-1.482,1.8h0A2.246,2.246,0,0,0,206.5,403.663Z" transform="translate(-204.361 -392.226)" fill="#dcf5ff"/>
              </g>
              <g id="Group_71545" data-name="Group 71545">
                <path id="Path_52777" data-name="Path 52777" d="M229.53,394.028h9.88a2.324,2.324,0,0,0,2.335-2.859l-1.766-9.939a3.551,3.551,0,0,0-3.353-2.859h-9.865a2.324,2.324,0,0,0-2.335,2.859l1.751,9.939A3.551,3.551,0,0,0,229.53,394.028Z" transform="translate(-190.196 -378.116)" fill="#49bff6"/>
                <path id="Path_52778" data-name="Path 52778" d="M209.284,381.793h15.149A1.459,1.459,0,0,0,225.9,380h0a2.229,2.229,0,0,0-2.1-1.8H208.67a1.475,1.475,0,0,0-1.482,1.8h0A2.216,2.216,0,0,0,209.284,381.793Z" transform="translate(-198.751 -378.2)" fill="#dcf5ff"/>
                <path id="Path_52779" data-name="Path 52779" d="M203.649,387.023h24.938a1.475,1.475,0,0,0,1.482-1.8h0a2.229,2.229,0,0,0-2.1-1.8H203.05a1.475,1.475,0,0,0-1.482,1.8h0A2.2,2.2,0,0,0,203.649,387.023Z" transform="translate(-201.543 -375.601)" fill="#dcf5ff"/>
              </g>
            </g>
          </g>
          <g id="Group_71551" data-name="Group 71551" transform="translate(156.036 9.071)">
            <path id="Path_52780" data-name="Path 52780" d="M362.394,358.181c3.458,17.14-7.5,31.031-24.474,31.031s-33.4-13.891-36.7-31.031,7.649-31.031,24.474-31.031C342.5,327.15,358.936,341.041,362.394,358.181Z" transform="translate(-300.626 -327.15)" fill="#49bff6"/>
            <g id="Group_71549" data-name="Group 71549" transform="translate(0.982 73.842)">
              <path id="Path_52781" data-name="Path 52781" d="M314.047,389.563h-8.353a2.944,2.944,0,0,1-2.754-2.335l-1.617-8.413a1.866,1.866,0,0,1,1.856-2.335h8.338a2.944,2.944,0,0,1,2.754,2.335l1.632,8.413A1.86,1.86,0,0,1,314.047,389.563Z" transform="translate(-301.282 -376.48)" fill="#f4d34a"/>
              <path id="Path_52782" data-name="Path 52782" d="M328.509,389.563h-8.353a2.974,2.974,0,0,1-2.769-2.335l-1.632-8.413a1.86,1.86,0,0,1,1.856-2.335h8.338a2.974,2.974,0,0,1,2.769,2.335l1.647,8.413A1.854,1.854,0,0,1,328.509,389.563Z" transform="translate(-294.113 -376.48)" fill="#ec74f9"/>
              <path id="Path_52783" data-name="Path 52783" d="M343.2,389.563h-8.353a2.974,2.974,0,0,1-2.769-2.335l-1.662-8.413a1.854,1.854,0,0,1,1.856-2.335h8.338a2.974,2.974,0,0,1,2.769,2.335l1.677,8.413A1.854,1.854,0,0,1,343.2,389.563Z" transform="translate(-286.829 -376.48)" fill="#49bff6"/>
              <g id="Group_71548" data-name="Group 71548" transform="translate(65.14)">
                <path id="Path_52784" data-name="Path 52784" d="M357.674,389.563h-8.353a2.991,2.991,0,0,1-2.784-2.335l-1.691-8.413a1.851,1.851,0,0,1,1.841-2.335h8.338a3,3,0,0,1,2.784,2.335l1.706,8.413A1.851,1.851,0,0,1,357.674,389.563Z" transform="translate(-344.799 -376.48)" fill="#467bd1"/>
              </g>
            </g>
            <g id="Group_71550" data-name="Group 71550" transform="translate(4.873 94.29)">
              <path id="Path_52785" data-name="Path 52785" d="M363.83,394.6H306.574a2.833,2.833,0,0,1-2.65-2.23h0a1.785,1.785,0,0,1,1.781-2.23h57.227a2.864,2.864,0,0,1,2.664,2.23h0A1.776,1.776,0,0,1,363.83,394.6Z" transform="translate(-303.882 -390.14)" fill="#dcf5ff"/>
              <path id="Path_52786" data-name="Path 52786" d="M352.224,407.391h-43.2a2.833,2.833,0,0,1-2.65-2.23h0a1.788,1.788,0,0,1,1.8-2.23h43.171a2.85,2.85,0,0,1,2.664,2.23h0A1.779,1.779,0,0,1,352.224,407.391Z" transform="translate(-302.664 -383.785)" fill="#dcf5ff"/>
              <path id="Path_52787" data-name="Path 52787" d="M381.83,400.991H307.794a2.833,2.833,0,0,1-2.65-2.23h0a1.788,1.788,0,0,1,1.8-2.23h73.977a2.85,2.85,0,0,1,2.664,2.23h0A1.743,1.743,0,0,1,381.83,400.991Z" transform="translate(-303.276 -386.965)" fill="#dcf5ff"/>
            </g>
            <path id="Path_52788" data-name="Path 52788" d="M340.874,344.082a72.879,72.879,0,0,0-6.122-8.053c-2.23-2.1-7.47-1.6-7.47-1.6a8.94,8.94,0,0,1-2.35,7.065c-.9-.584-4.281-3.593-5.134-7.065,0,0-5.434-.494-6.841,1.6-.778,1.168-2.006,4.925-2.949,8.053a19.814,19.814,0,0,0-.374,9.49l.419,2.185a7.116,7.116,0,0,0,5.164-.719,17.473,17.473,0,0,1,2.156-10.014l3.772,9.7-1.257,18.666a46.628,46.628,0,0,0,22.633,0L334.2,354.725l-.883-10.194s5.718,6.167,6.631,10.508a8.282,8.282,0,0,0,5.449.719l-.434-2.185A25.038,25.038,0,0,0,340.874,344.082Z" transform="translate(-296.35 -323.559)" fill="#d2f0f8"/>
          </g>
        </g>
      </g>
    </g>
  </g>
</svg>
