<svg xmlns="http://www.w3.org/2000/svg" width="194.022" height="39" viewBox="0 0 194.022 39">
  <g id="Group_119" data-name="Group 119" transform="translate(-26 -39)">
    <g id="Group_70619" data-name="Group 70619">
      <g id="Group_71564" data-name="Group 71564">
        <path id="Path_52792" data-name="Path 52792" d="M7.44.168a7.957,7.957,0,0,1-3.156-.6A5.182,5.182,0,0,1,2.064-2.16a4.55,4.55,0,0,1-.84-2.664h3.6a2.328,2.328,0,0,0,.732,1.632,2.593,2.593,0,0,0,1.812.6,2.787,2.787,0,0,0,1.848-.564,1.834,1.834,0,0,0,.672-1.476,1.705,1.705,0,0,0-.456-1.224,3.2,3.2,0,0,0-1.14-.756,18.865,18.865,0,0,0-1.884-.612,20.178,20.178,0,0,1-2.652-.948A4.645,4.645,0,0,1,2-9.588a4.035,4.035,0,0,1-.732-2.532,4.527,4.527,0,0,1,.744-2.592A4.732,4.732,0,0,1,4.1-16.4a7.6,7.6,0,0,1,3.072-.588,6.665,6.665,0,0,1,4.212,1.26,4.671,4.671,0,0,1,1.788,3.516H9.48a1.92,1.92,0,0,0-.732-1.428,2.758,2.758,0,0,0-1.812-.564,2.333,2.333,0,0,0-1.572.5,1.822,1.822,0,0,0-.588,1.464,1.513,1.513,0,0,0,.444,1.116,3.386,3.386,0,0,0,1.1.72q.66.276,1.86.636a19.54,19.54,0,0,1,2.664.96,4.784,4.784,0,0,1,1.776,1.44,4,4,0,0,1,.744,2.52,4.74,4.74,0,0,1-.7,2.5,4.913,4.913,0,0,1-2.04,1.836A6.958,6.958,0,0,1,7.44.168ZM32.784-13.488a5.338,5.338,0,0,1,3.948,1.5,5.661,5.661,0,0,1,1.5,4.188V0h-3.36V-7.344a3.322,3.322,0,0,0-.792-2.388,2.848,2.848,0,0,0-2.16-.828,2.888,2.888,0,0,0-2.172.828,3.291,3.291,0,0,0-.8,2.388V0h-3.36V-7.344a3.322,3.322,0,0,0-.792-2.388,2.848,2.848,0,0,0-2.16-.828,2.919,2.919,0,0,0-2.2.828,3.291,3.291,0,0,0-.8,2.388V0h-3.36V-13.3h3.36v1.608a4.472,4.472,0,0,1,1.668-1.32,5.2,5.2,0,0,1,2.244-.48,5.772,5.772,0,0,1,2.784.66,4.625,4.625,0,0,1,1.9,1.884,4.814,4.814,0,0,1,1.884-1.848A5.364,5.364,0,0,1,32.784-13.488ZM40.56-6.7a7.7,7.7,0,0,1,.8-3.576,5.893,5.893,0,0,1,2.184-2.4,5.814,5.814,0,0,1,3.084-.84,5.417,5.417,0,0,1,2.6.6A5.284,5.284,0,0,1,51.024-11.4v-1.9h3.384V0H51.024V-1.944A5,5,0,0,1,49.236-.4a5.471,5.471,0,0,1-2.628.612,5.65,5.65,0,0,1-3.06-.864,6.047,6.047,0,0,1-2.184-2.436A7.823,7.823,0,0,1,40.56-6.7Zm10.464.048a4.31,4.31,0,0,0-.48-2.1,3.384,3.384,0,0,0-1.3-1.344A3.464,3.464,0,0,0,47.5-10.56a3.4,3.4,0,0,0-1.728.456,3.434,3.434,0,0,0-1.284,1.332A4.173,4.173,0,0,0,43.992-6.7a4.31,4.31,0,0,0,.492,2.1,3.542,3.542,0,0,0,1.3,1.38,3.292,3.292,0,0,0,1.716.48A3.464,3.464,0,0,0,49.248-3.2a3.384,3.384,0,0,0,1.3-1.344A4.31,4.31,0,0,0,51.024-6.648Zm10.032-4.584a4.724,4.724,0,0,1,1.692-1.656,4.706,4.706,0,0,1,2.388-.6V-9.96h-.888a3.4,3.4,0,0,0-2.388.744,3.43,3.43,0,0,0-.8,2.592V0H57.7V-13.3h3.36Zm10.248.7V-4.1a1.271,1.271,0,0,0,.324.972,1.592,1.592,0,0,0,1.092.3h1.56V0H72.168Q67.92,0,67.92-4.128v-6.408H66.336V-13.3H67.92v-3.288H71.3V-13.3H74.28v2.76ZM91.872,0l-6.1-7.464V0h-3.36V-16.752h3.36V-9.24l6.1-7.512h4.056l-6.912,8.3L96.12,0Zm8.16-14.88a2.047,2.047,0,0,1-1.476-.564,1.866,1.866,0,0,1-.588-1.4,1.866,1.866,0,0,1,.588-1.4,2.047,2.047,0,0,1,1.476-.564,2.047,2.047,0,0,1,1.476.564,1.866,1.866,0,0,1,.588,1.4,1.866,1.866,0,0,1-.588,1.4A2.047,2.047,0,0,1,100.032-14.88Zm1.656,1.584V0h-3.36V-13.3ZM110.9.216a7,7,0,0,1-3.456-.852,6.135,6.135,0,0,1-2.412-2.412,7.227,7.227,0,0,1-.876-3.6,7.074,7.074,0,0,1,.9-3.6,6.254,6.254,0,0,1,2.46-2.412,7.14,7.14,0,0,1,3.48-.852,7.14,7.14,0,0,1,3.48.852,6.254,6.254,0,0,1,2.46,2.412,7.074,7.074,0,0,1,.9,3.6,6.93,6.93,0,0,1-.924,3.6,6.4,6.4,0,0,1-2.5,2.412A7.258,7.258,0,0,1,110.9.216Zm0-2.928a3.5,3.5,0,0,0,1.716-.444A3.227,3.227,0,0,0,113.9-4.488a4.489,4.489,0,0,0,.48-2.16,4,4,0,0,0-1-2.916,3.274,3.274,0,0,0-2.436-1.02,3.2,3.2,0,0,0-2.412,1.02,4.063,4.063,0,0,0-.972,2.916,4.127,4.127,0,0,0,.948,2.916A3.121,3.121,0,0,0,110.9-2.712ZM125.4.216a7.011,7.011,0,0,1-2.928-.588,5.174,5.174,0,0,1-2.052-1.6,4.045,4.045,0,0,1-.828-2.232h3.384a1.843,1.843,0,0,0,.756,1.272,2.63,2.63,0,0,0,1.644.5,2.553,2.553,0,0,0,1.5-.384,1.162,1.162,0,0,0,.54-.984,1.038,1.038,0,0,0-.66-.972,12.419,12.419,0,0,0-2.1-.708,17.8,17.8,0,0,1-2.436-.744,4.229,4.229,0,0,1-1.632-1.176,3.156,3.156,0,0,1-.684-2.136,3.447,3.447,0,0,1,.636-2.016,4.27,4.27,0,0,1,1.824-1.44,6.838,6.838,0,0,1,2.8-.528,5.709,5.709,0,0,1,3.792,1.188,4.4,4.4,0,0,1,1.56,3.2H127.3a1.741,1.741,0,0,0-.66-1.26,2.453,2.453,0,0,0-1.572-.468,2.477,2.477,0,0,0-1.4.336,1.071,1.071,0,0,0-.492.936,1.1,1.1,0,0,0,.672,1.02,10.436,10.436,0,0,0,2.088.708A17.724,17.724,0,0,1,128.3-7.1a4.2,4.2,0,0,1,1.62,1.188,3.262,3.262,0,0,1,.708,2.124A3.522,3.522,0,0,1,130-1.728,4.189,4.189,0,0,1,128.172-.3,6.911,6.911,0,0,1,125.4.216ZM141.264,0l-4.512-5.664V0h-3.36V-17.76h3.36v10.1l4.464-5.64h4.368l-5.856,6.672L145.632,0Z" transform="translate(74.39 67)" fill="#3b3b3b"/>
        <g id="Group_71565" data-name="Group 71565">
          <circle id="Ellipse_1022" data-name="Ellipse 1022" cx="19.5" cy="19.5" r="19.5" transform="translate(26 39)" fill="#54be24"/>
          <g id="letter-k" transform="translate(32.065 49.898)">
            <path id="Path_52789" data-name="Path 52789" d="M7.507,51.119v1.272a1.937,1.937,0,0,0,3.873,0V51.119Z" transform="translate(0 -37.581)" fill="#fff"/>
            <path id="Path_52790" data-name="Path 52790" d="M34.965,6.937l2.971-3.066a1.936,1.936,0,1,0-2.781-2.7l-2.614,2.7Z" transform="translate(-18.57 -0.098)" fill="#fff"/>
            <path id="Path_52791" data-name="Path 52791" d="M19.748,13.621l-3.812-4.9L12.9,4.881,11.38,6.45V2.393a1.937,1.937,0,0,0-3.873,0v9.62h3.876l1.226-1.265L16.691,16a1.937,1.937,0,1,0,3.058-2.378Z" fill="#fff"/>
          </g>
        </g>
      </g>
    </g>
  </g>
</svg>
