<svg xmlns="http://www.w3.org/2000/svg" width="196.53" height="41.463" viewBox="0 0 196.53 41.463">
  <g id="Group_70629" data-name="Group 70629" transform="translate(-987 -4478)">
    <g id="Group_59141" data-name="Group 59141" transform="translate(987 4478)">
      <g id="Group_58899" data-name="Group 58899" transform="translate(0 0)">
        <path id="Union_1" data-name="Union 1" d="M17,41.463a.27.27,0,0,1-.27-.27V32.26a.27.27,0,0,1,.27-.27h7.224a.27.27,0,0,1,.27.27v8.933a.27.27,0,0,1-.27.27Zm16.612-.034a.015.015,0,0,1-.005-.012l0-13.725a.053.053,0,0,0-.021-.041L20.63,17.788a.034.034,0,0,0-.041,0L7.636,27.658a.038.038,0,0,0-.014.03V41.339a.022.022,0,0,1-.008.017.025.025,0,0,1-.019.005,8.846,8.846,0,0,1-3.416-1.237,8.606,8.606,0,0,1-1.071-.77,8.708,8.708,0,0,1-2.588-3.7,8.513,8.513,0,0,1-.514-2.942Q0,21.007,0,9.3q0-.575,0-.7A8.583,8.583,0,0,1,2.266,2.93,8.888,8.888,0,0,1,8,.054Q8.542,0,9.092,0h22.9c.423,0,.773,0,1.052,0s.515.014.712.032a8.85,8.85,0,0,1,4.679,1.816,8.655,8.655,0,0,1,3.077,4.44q.1.343.175.679a8.709,8.709,0,0,1,.182,1.566q.014.556.014,1.113,0,11.248,0,22.5,0,.4-.007.727-.009.394-.041.7a8.643,8.643,0,0,1-1.715,4.358q-.211.281-.448.545A8.873,8.873,0,0,1,35.1,41.215a8.26,8.26,0,0,1-1.475.218A.017.017,0,0,1,33.612,41.429ZM20.63,14.877,37.745,27.913c.016.013.025.009.025-.011l.006-5.656a.066.066,0,0,0-.026-.052L20.634,9.157a.036.036,0,0,0-.044,0L3.8,21.945a.053.053,0,0,0-.021.041v5.669c0,.02.008.023.024.012l16.8-12.79a.023.023,0,0,1,.014,0A.026.026,0,0,1,20.63,14.877Zm-.162,15.549a14.946,14.946,0,0,1-2.387-1.8A8.043,8.043,0,0,1,17,27.4a4.037,4.037,0,0,1-.411-.719,2.561,2.561,0,0,1-.223-1,1.989,1.989,0,0,1,.4-1.247,2.112,2.112,0,0,1,1.274-.83,2.225,2.225,0,0,1,1.061.009,2.19,2.19,0,0,1,.644.291,2.923,2.923,0,0,1,.769.723.022.022,0,0,0,.016.008.023.023,0,0,0,.016-.007,3.32,3.32,0,0,1,.788-.714,2.1,2.1,0,0,1,1.457-.31,2.355,2.355,0,0,1,.826.262,2.054,2.054,0,0,1,.549.442,2.031,2.031,0,0,1,.483.974,2.113,2.113,0,0,1,.03.625,2.331,2.331,0,0,1-.149.616,3.6,3.6,0,0,1-.382.731,7.464,7.464,0,0,1-1.117,1.3,14.819,14.819,0,0,1-2.517,1.876.039.039,0,0,1-.018,0A.037.037,0,0,1,20.468,30.426Z" transform="translate(0 0)" fill="#524bf9"/>
      </g>
    </g>
    <text id="Salefox" transform="translate(1040.53 4508)" fill="#524bf9" font-size="25" font-family="Kanit-Regular, Kanit"><tspan x="0" y="0">Smart</tspan><tspan y="0" xml:space="preserve" font-family="Kanit-SemiBold, Kanit" font-weight="600"> Home</tspan></text>
  </g>
</svg>
