<svg xmlns="http://www.w3.org/2000/svg" width="117" height="117" viewBox="0 0 117 117">
  <g id="Group_58238" data-name="Group 58238" transform="translate(-40.9 -87)">
    <circle id="Ellipse_727" data-name="Ellipse 727" cx="58.5" cy="58.5" r="58.5" transform="translate(40.9 87)" fill="#e9f7ff"/>
    <g id="Group_58252" data-name="Group 58252" transform="translate(-416.211 -71.658)">
      <g id="Group_58251" data-name="Group 58251" transform="translate(491.111 194.658)">
        <path id="Path_47563" data-name="Path 47563" d="M540.983,374.146a1.245,1.245,0,0,1-1.1.434q-23.5-.011-47-.007c-.772,0-1.127-.236-1.114-.737s.351-.706,1.1-.707h2.935v-.554q0-3.611,0-7.222a1.71,1.71,0,0,1,1.923-1.926q2.355-.009,4.709,0a1.708,1.708,0,0,1,1.889,1.917q.007,3.563,0,7.126v.616h2.343c0-1.133,0-2.252,0-3.372,0-.193-.007-.386,0-.578a.723.723,0,0,1,.731-.78.7.7,0,0,1,.707.794c.008,1.188,0,2.375,0,3.563v.373h5.64v-.469q0-6.187,0-12.374c0-.637,0-.637-.648-.638-1.49,0-2.98.011-4.469-.008-.4-.005-.532.131-.529.527q.021,2.913,0,5.826a1.087,1.087,0,0,1-.21.7.766.766,0,0,1-.673.181,1.126,1.126,0,0,1-.524-.6,2.165,2.165,0,0,1-.027-.763q0-2.7,0-5.393a1.721,1.721,0,0,1,1.933-1.921q2.331,0,4.661,0a1.725,1.725,0,0,1,1.932,1.925q0,6.211,0,12.422v.595h2.341v-.628q0-8.763,0-17.525c0-1.428.629-2.063,2.043-2.063q2.259,0,4.517,0a1.75,1.75,0,0,1,1.967,1.993q0,8.811,0,17.622v.6h2.343v-.616q0-11.411,0-22.822a1.721,1.721,0,0,1,.462-1.461,2.213,2.213,0,0,1,1.174-.541c1.744-.059,3.491-.048,5.236-.019a1.63,1.63,0,0,1,1.65,1.705c.011,2.407.007,4.815,0,7.222,0,.529-.278.837-.719.839s-.719-.3-.72-.833c0-2.295-.012-4.59.006-6.885,0-.445-.1-.628-.585-.619-1.505.026-3.011.023-4.517,0-.427-.006-.549.146-.548.559q.013,11.531.008,23.063c0,.125.018.25.031.406h5.6v-.554q0-6.283,0-12.566a4.264,4.264,0,0,1,.006-.433.675.675,0,0,1,.688-.668.682.682,0,0,1,.734.62,2.654,2.654,0,0,1,.014.48q0,6.259,0,12.518v.636c1.009,0,1.98.014,2.95-.006a1.189,1.189,0,0,1,1.089.446Zm-16.38-1.051c.011-.136.029-.245.029-.353q0-8.949.007-17.9c0-.408-.158-.527-.542-.524-1.472.013-2.945.005-4.417.006-.686,0-.686,0-.686.706q0,8.756,0,17.512v.551Zm-21.755,0a1.506,1.506,0,0,0,.04-.224c0-2.517,0-5.034.008-7.552,0-.373-.172-.454-.5-.452-1.52.011-3.041.022-4.56-.005-.48-.009-.589.17-.585.616.018,2.373.008,4.746.008,7.119v.5Z" transform="translate(-491.777 -330.02)" fill="#222872"/>
        <path id="Path_47564" data-name="Path 47564" d="M572.957,219.859l-.769-7.651-7.435,1.936c.565.4,1.045.731,1.522,1.069.551.392.631.692.3,1.257a24.452,24.452,0,0,1-3.877,4.821.71.71,0,0,1-1.068.02.748.748,0,0,1,.077-1.072q1.554-1.831,3.093-3.674a4.408,4.408,0,0,0,.277-.421c-.777-.543-1.533-1.081-2.3-1.6a.773.773,0,0,1-.428-.833c.077-.386.352-.524.708-.616q4.645-1.2,9.284-2.421c.829-.216,1.135-.016,1.221.829.328,3.223.658,6.446.955,9.672a1.108,1.108,0,0,1-.324.773c-.255.251-.587.145-.877-.06-.757-.537-1.522-1.062-2.319-1.617-.362.445-.707.88-1.063,1.306a37.215,37.215,0,0,1-17.09,11.465,47.9,47.9,0,0,1-11.694,2.3,1.616,1.616,0,0,1-1.832-1.264,1.58,1.58,0,0,1,1.175-1.923,66.838,66.838,0,0,0,9.923-3.968,46.666,46.666,0,0,0,8.929-5.79,1.445,1.445,0,0,1,.482-.3.66.66,0,0,1,.817.339.71.71,0,0,1-.251.973c-1.052.813-2.084,1.656-3.173,2.416a58.115,58.115,0,0,1-15.7,7.516,3.224,3.224,0,0,0-.5.169,1.336,1.336,0,0,0-.276.261c.123.042.25.132.367.119,1.336-.145,2.678-.26,4-.47a41.878,41.878,0,0,0,13.217-4.3,34.675,34.675,0,0,0,11.556-9.817c.106-.141.207-.286.32-.421a.716.716,0,0,1,1.095-.159C571.836,219.074,572.356,219.444,572.957,219.859Z" transform="translate(-533.176 -210.589)" fill="#009eff"/>
      </g>
    </g>
  </g>
</svg>
