<svg xmlns="http://www.w3.org/2000/svg" width="117" height="117" viewBox="0 0 117 117">
  <g id="Group_58238" data-name="Group 58238" transform="translate(-40.9 -87)">
    <circle id="Ellipse_727" data-name="Ellipse 727" cx="58.5" cy="58.5" r="58.5" transform="translate(40.9 87)" fill="#e9f7ff"/>
    <g id="Group_58254" data-name="Group 58254" transform="translate(-415.084 -69.893)">
      <g id="Group_58253" data-name="Group 58253" transform="translate(491 192)">
        <path id="Path_47566" data-name="Path 47566" d="M528.643,207.8q8.048,0,16.1,0a4.712,4.712,0,0,1,4.816,3.752,5.5,5.5,0,0,1,.112,1.16q.009,16.177,0,32.353a4.7,4.7,0,0,1-3.712,4.8,5.72,5.72,0,0,1-1.245.124q-16.1.01-32.194,0a4.736,4.736,0,0,1-4.954-4.98q0-16.132,0-32.264a4.716,4.716,0,0,1,3.734-4.833,6.325,6.325,0,0,1,1.336-.117Q520.639,207.8,528.643,207.8Zm19.08,7.685h-.637q-6.882,0-13.764,0a5.866,5.866,0,0,1-5.739-3.933c-.174-.477-.347-.957-.477-1.447-.082-.311-.24-.377-.539-.377-4.708.009-9.416,0-14.123.008a2.763,2.763,0,0,0-2.949,2.947q-.006,16.221,0,32.442a2.764,2.764,0,0,0,2.953,2.943q16.163.005,32.326,0a3.581,3.581,0,0,0,.8-.067,2.792,2.792,0,0,0,2.169-2.95q0-14.536,0-29.072C547.744,215.833,547.732,215.687,547.722,215.488Zm.044-1.933a11.406,11.406,0,0,0-.09-1.62,2.747,2.747,0,0,0-2.872-2.2q-7.662-.006-15.325,0h-.437c.508,2.577,2.145,3.859,4.434,3.834,4.555-.049,9.111-.014,13.667-.014Z" transform="translate(-505.579 -205.909)" fill="#222872"/>
        <path id="Path_47569" data-name="Path 47569" d="M569.793,310.919v-14.4l-6.443,4.692.01.109c.2,0,.391-.005.586,0a.984.984,0,0,1,1.084,1.088q.008,2.764,0,5.527A.953.953,0,0,1,564.015,309q-3.766.021-7.532,0a.943.943,0,0,1-1.017-1.018q-.023-2.808,0-5.617a.969.969,0,0,1,1.089-1.04c1.016-.012,2.033.006,3.049-.011a1.066,1.066,0,0,0,.577-.168q3.653-2.64,7.288-5.3c.078-.057.147-.128.311-.272h-2.419c-.986,0-1.289-.3-1.29-1.283q0-2.539,0-5.078c0-.981.315-1.3,1.277-1.3h10.9c.9,0,1.234.338,1.235,1.253q0,2.584,0,5.167c0,.921-.321,1.239-1.243,1.241-.783,0-1.567,0-2.488,0,.227.178.337.27.452.354q3.55,2.591,7.106,5.173a1.224,1.224,0,0,0,.651.215c.986.023,1.973.005,2.959.011.813.005,1.17.365,1.172,1.188q.007,2.651,0,5.3c0,.824-.359,1.189-1.17,1.191q-3.632.007-7.263,0c-.784,0-1.137-.372-1.138-1.168q0-2.606,0-5.212c0-.981.307-1.292,1.276-1.3.128,0,.256-.013.517-.028l-6.535-4.763v14.387h1.32c.493,0,.987-.01,1.479,0a.917.917,0,0,1,.97.956q.024,1.91,0,3.819a.912.912,0,0,1-.958.968q-3.811.015-7.622,0A.912.912,0,0,1,566,315.7q-.021-1.887,0-3.774a.93.93,0,0,1,1.018-1C567.928,310.912,568.838,310.919,569.793,310.919Zm5.734-21.07h-9.5v3.78h9.5Zm-18.12,17.2H563.1v-3.76h-5.695Zm21.042-3.768v3.759h5.679v-3.759Zm-4.819,9.586h-5.7v1.862h5.7Z" transform="translate(-547.733 -276.419)" fill="#009eff"/>
        <path id="Path_47570" data-name="Path 47570" d="M589.418,240.867a.922.922,0,0,1-.92.947.944.944,0,0,1-.977-.944.963.963,0,0,1,.974-.955A.944.944,0,0,1,589.418,240.867Z" transform="translate(-575.959 -234.174)" fill="#222872"/>
        <path id="Path_47571" data-name="Path 47571" d="M620.5,241.813a.925.925,0,0,1-.951-.962.945.945,0,0,1,.937-.939.964.964,0,0,1,.959.97A.948.948,0,0,1,620.5,241.813Z" transform="translate(-604.153 -234.172)" fill="#222872"/>
        <path id="Path_47572" data-name="Path 47572" d="M556.509,241.815a.949.949,0,0,1-.95-.929.956.956,0,0,1,1.912-.034A.951.951,0,0,1,556.509,241.815Z" transform="translate(-547.825 -234.175)" fill="#222872"/>
      </g>
    </g>
  </g>
</svg>
