<svg xmlns="http://www.w3.org/2000/svg" width="117" height="117" viewBox="0 0 117 117">
  <g id="Group_58238" data-name="Group 58238" transform="translate(-40.9 -87)">
    <circle id="Ellipse_727" data-name="Ellipse 727" cx="58.5" cy="58.5" r="58.5" transform="translate(40.9 87)" fill="#e9f7ff"/>
    <g id="Group_2750" data-name="Group 2750" transform="translate(77.089 119.911)">
      <path id="Path_2531" data-name="Path 2531" d="M15.124,7.652a1.024,1.024,0,1,1,.732,1.912q-.992.38-1.942.857A21.534,21.534,0,0,0,2.268,32.74a1.023,1.023,0,0,1-2.026.292A23.581,23.581,0,0,1,13,8.59Q14.035,8.069,15.124,7.652ZM9.042,48.194A1.023,1.023,0,1,1,10.3,46.582a21.5,21.5,0,0,0,26.622-.112,1.024,1.024,0,1,1,1.276,1.6,23.548,23.548,0,0,1-29.16.124Zm5.678-2.039a1.023,1.023,0,0,1-.816,1.2l-3.515.665.318,3.774a1.024,1.024,0,0,1-2.04.175l-.4-4.7a1.023,1.023,0,0,1,.83-1.092l4.422-.837a1.023,1.023,0,0,1,1.2.816ZM31.559,7.5A23.551,23.551,0,0,1,47.09,29.646q0,.883-.065,1.756l1.923-1.443A1.024,1.024,0,0,1,50.176,31.6L46.4,34.422a1.023,1.023,0,0,1-1.366-.125L41.985,30.99a1.024,1.024,0,0,1,1.5-1.391l1.494,1.618q.057-.785.057-1.571A21.5,21.5,0,0,0,30.857,9.423a1.024,1.024,0,0,1,.7-1.923ZM10.531,6.265a1.023,1.023,0,0,1,1.339-.549h0l4.152,1.738A1.023,1.023,0,0,1,16.607,8.7h0L15.245,13.2a1.024,1.024,0,0,1-1.96-.592h0l1.1-3.625L11.081,7.6a1.023,1.023,0,0,1-.549-1.339Z" transform="translate(0.001 -3.712)" fill="#222872"/>
      <path id="Path_2532" data-name="Path 2532" d="M24.2,8.872a4.436,4.436,0,1,0-4.436-4.436A4.436,4.436,0,0,0,24.2,8.872Zm19.45,23.544a4.436,4.436,0,1,1-4.435,4.436,4.436,4.436,0,0,1,4.435-4.436Zm-38.217,0A4.436,4.436,0,1,1,1,36.851a4.436,4.436,0,0,1,4.435-4.436Zm38.217,2.047a2.388,2.388,0,1,0,2.388,2.388,2.388,2.388,0,0,0-2.388-2.388Zm-38.217,0a2.388,2.388,0,1,0,2.388,2.388,2.388,2.388,0,0,0-2.388-2.388ZM24.2,2.047a2.388,2.388,0,1,1-2.388,2.388A2.388,2.388,0,0,1,24.2,2.047Z" transform="translate(-0.658)" fill="#222872"/>
      <path id="Path_2533" data-name="Path 2533" d="M36.8,58.352l-2.189-.184a1.023,1.023,0,0,1-.873-.656A12.04,12.04,0,0,1,33,54.335a1.023,1.023,0,0,1,.5-.976l1.879-1.1a9.69,9.69,0,0,1,.572-2.468L34.751,48a1.023,1.023,0,0,1-.023-1.1A12.284,12.284,0,0,1,36.8,44.347a1.023,1.023,0,0,1,1.064-.21l2.058.785a9.961,9.961,0,0,1,2.2-1.047l.661-2.067a1.023,1.023,0,0,1,.839-.7,12.6,12.6,0,0,1,3.316,0,1.023,1.023,0,0,1,.839.7l.663,2.071a9.962,9.962,0,0,1,2.2,1.047l2.058-.785a1.024,1.024,0,0,1,1.065.21A12.284,12.284,0,0,1,55.84,46.9a1.024,1.024,0,0,1-.023,1.1l-1.2,1.791a9.69,9.69,0,0,1,.571,2.464l1.874,1.1a1.023,1.023,0,0,1,.5.976,12.05,12.05,0,0,1-.736,3.177,1.023,1.023,0,0,1-.873.656l-2.189.184A9.9,9.9,0,0,1,52.2,60.283l.3,2.136a1.024,1.024,0,0,1-.455,1,12.341,12.341,0,0,1-2.988,1.416A1.023,1.023,0,0,1,48,64.565l-1.51-1.592a10.187,10.187,0,0,1-2.413,0l-1.51,1.592a1.023,1.023,0,0,1-1.052.271,12.34,12.34,0,0,1-2.993-1.413,1.024,1.024,0,0,1-.455-1l.3-2.136a9.9,9.9,0,0,1-1.57-1.934Zm.7-2a1.023,1.023,0,0,1,.813.53,7.849,7.849,0,0,0,1.808,2.221,1.023,1.023,0,0,1,.349.923l-.284,2.007a10.222,10.222,0,0,0,1.348.637l1.42-1.5a1.023,1.023,0,0,1,.921-.3,8.114,8.114,0,0,0,2.81,0,1.023,1.023,0,0,1,.921.3l1.42,1.5a10.222,10.222,0,0,0,1.348-.637l-.284-2.007a1.024,1.024,0,0,1,.349-.923,7.853,7.853,0,0,0,1.808-2.221,1.023,1.023,0,0,1,.822-.531l2.055-.174a9.991,9.991,0,0,0,.325-1.4l-1.763-1.033a1.024,1.024,0,0,1-.5-.843,7.653,7.653,0,0,0-.654-2.817,1.023,1.023,0,0,1,.087-.986l1.126-1.681a10.242,10.242,0,0,0-.925-1.134l-1.935.736a1.023,1.023,0,0,1-.96-.124,7.918,7.918,0,0,0-2.552-1.207,1.024,1.024,0,0,1-.709-.677l-.621-1.942q-.374-.027-.752-.027t-.752.027l-.626,1.941a1.023,1.023,0,0,1-.709.677A7.918,7.918,0,0,0,40.644,46.9a1.023,1.023,0,0,1-.96.124l-1.935-.736a10.241,10.241,0,0,0-.925,1.134l1.126,1.68a1.023,1.023,0,0,1,.087.986,7.653,7.653,0,0,0-.654,2.817,1.024,1.024,0,0,1-.5.843l-1.758,1.039a9.989,9.989,0,0,0,.321,1.4Zm7.952,3.068a6.144,6.144,0,1,1,5.972-6.142,6.058,6.058,0,0,1-5.968,6.143Zm0-2.047a4.1,4.1,0,1,0-3.926-4.095,4.014,4.014,0,0,0,3.93,4.095Z" transform="translate(-21.739 -27.009)" fill="#009eff"/>
    </g>
  </g>
</svg>
