<svg xmlns="http://www.w3.org/2000/svg" width="117" height="117" viewBox="0 0 117 117">
  <g id="Group_58238" data-name="Group 58238" transform="translate(-40.9 -87)">
    <circle id="Ellipse_727" data-name="Ellipse 727" cx="58.5" cy="58.5" r="58.5" transform="translate(40.9 87)" fill="#e9f7ff"/>
    <g id="Group_58262" data-name="Group 58262" transform="translate(-402.176 -57.068)">
      <g id="Group_58261" data-name="Group 58261" transform="translate(478.077 179.068)">
        <path id="Path_47634" data-name="Path 47634" d="M599.968,297.885a1.313,1.313,0,0,1-.659-1.316c.025-1.562.009-3.124.009-4.526a9.789,9.789,0,0,1-1.344-1.224,2.7,2.7,0,0,1,.656-3.816c.341-.234.333-.418.208-.747-1.036-2.714-2.051-5.436-3.091-8.148a1.349,1.349,0,0,1,.082-1.232q4.527-8.256,9.034-16.523c.22-.4.473-.74.979-.728.482.011.722.343.932.728q4.51,8.265,9.034,16.523a1.35,1.35,0,0,1,.083,1.232c-1.034,2.7-2.038,5.408-3.073,8.106-.142.37-.133.561.226.82a2.74,2.74,0,0,1-.375,4.662.563.563,0,0,0-.355.6c.015,1.424-.011,2.849.015,4.272a1.31,1.31,0,0,1-.659,1.316Zm6.794-22.981.258.133a2.75,2.75,0,0,1,1.5,3.134,2.772,2.772,0,0,1-5.4.031,2.719,2.719,0,0,1,1.47-3.142.492.492,0,0,0,.3-.537q-.008-4.923,0-9.845c0-.105-.021-.21-.043-.416L598.1,276.614c.733,0,1.38-.009,2.028,0a.933.933,0,1,1,0,1.853c-.309.009-.619,0-.929,0h-1.3c.037.135.048.194.069.25.932,2.473,1.871,4.942,2.788,7.42.116.313.3.322.563.321,2.987-.005,5.974-.01,8.961.006a.56.56,0,0,0,.636-.426c.873-2.362,1.768-4.717,2.655-7.074.056-.15.1-.3.167-.5-.782,0-1.492,0-2.2,0a.984.984,0,0,1-.964-.521.926.926,0,0,1,.9-1.333c.659-.019,1.319,0,2.06,0l-6.7-12.271-.073.034Zm-5.553,17.149v3.937h9.229v-3.937Zm4.583-1.878h2.971c.866,0,1.733.013,2.6-.008a.931.931,0,0,0,.95-.893.947.947,0,0,0-.942-.953c-.092-.008-.186,0-.278,0q-5.269,0-10.538,0a2.086,2.086,0,0,0-.551.053.881.881,0,0,0-.675.846.892.892,0,0,0,.666.9,2.142,2.142,0,0,0,.55.057Q603.169,290.179,605.792,290.175Zm.949-12.648a.921.921,0,1,0-.906.937A.952.952,0,0,0,606.74,277.527Z" transform="translate(-582.038 -250.32)" fill="#009eff"/>
        <path id="Path_47635" data-name="Path 47635" d="M526.346,182.9a3.138,3.138,0,0,1-1.4,1.938,2.755,2.755,0,0,1-3.876-1.173c-.1-.2-.193-.307-.438-.306-2.94.008-5.881.005-8.855.079.138.067.274.139.414.2a20.04,20.04,0,0,1,4.429,2.688,2.535,2.535,0,0,1,.372.346.906.906,0,0,1-1.088,1.4,2.292,2.292,0,0,1-.424-.282,21.156,21.156,0,0,0-10.128-4.228c0,.235.008.444,0,.652a.94.94,0,0,1-.986,1q-1.787.027-3.575,0a.946.946,0,0,1-1.007-1.03c-.007-.2,0-.4,0-.625a21.288,21.288,0,0,0-10.08,4.178,1.847,1.847,0,0,1-.857.4.792.792,0,0,1-.853-.581.884.884,0,0,1,.291-1.044,12.414,12.414,0,0,1,1.371-1.031c1.2-.727,2.427-1.412,3.616-2.1a2.071,2.071,0,0,0-.25-.022c-2.8,0-5.6,0-8.4-.009a.561.561,0,0,0-.588.372,2.728,2.728,0,0,1-3.136,1.4,2.773,2.773,0,0,1,.042-5.388,2.734,2.734,0,0,1,3.095,1.4c.126.24.231.376.537.376q7.43-.017,14.859-.008h.357c0-.287,0-.531,0-.774a.962.962,0,0,1,1.052-1.08q1.741-.018,3.482,0a.955.955,0,0,1,1.035,1.05c.007.246,0,.492,0,.782.17.008.319.021.467.021q7.36,0,14.72,0a.491.491,0,0,0,.535-.3,2.727,2.727,0,0,1,2.686-1.545,2.786,2.786,0,0,1,2.466,2.011c.032.1.077.2.115.3Zm-24.686.442h1.813v-1.8H501.66Zm-19.157-.9a.921.921,0,1,0-.93.913A.954.954,0,0,0,482.5,182.44Zm41.073-.93a.922.922,0,1,0,.905.938A.953.953,0,0,0,523.576,181.509Z" transform="translate(-478.789 -179.639)" fill="#222872"/>
        <path id="Path_47636" data-name="Path 47636" d="M840.088,299.068a1.3,1.3,0,0,1-1.315.659c-1.02-.03-2.042-.006-3.064-.009-.855,0-1.19-.332-1.192-1.175,0-1.052,0-2.1,0-3.157,0-.918.31-1.23,1.221-1.241.137,0,.273-.012.421-.018A19,19,0,0,0,834.3,288.2c-.105-.207-.215-.411-.313-.621a.968.968,0,0,1,.347-1.4.945.945,0,0,1,1.3.541c.332.645.653,1.3.94,1.964a19.55,19.55,0,0,1,1.4,4.983c.022.15.061.3.1.463.734.065,1.575-.211,2.023.662Zm-3.691-3.046v1.811h1.8v-1.811Z" transform="translate(-792.532 -273.704)" fill="#222872"/>
        <path id="Path_47637" data-name="Path 47637" d="M480.76,294.148a20.935,20.935,0,0,1,1.5-5.519c.282-.651.6-1.289.926-1.918a.933.933,0,1,1,1.646.846,20.181,20.181,0,0,0-1.782,4.562c-.159.656-.281,1.322-.43,2.031.266,0,.481-.01.695,0a.931.931,0,0,1,.969.97q.028,1.809,0,3.62a.914.914,0,0,1-.963.972q-1.809.029-3.619,0a.926.926,0,0,1-.978-1.007q-.022-1.763,0-3.527a.954.954,0,0,1,1.053-1.031C480.088,294.141,480.4,294.148,480.76,294.148Zm1.669,1.887h-1.815v1.791h1.815Z" transform="translate(-478.717 -273.706)" fill="#222872"/>
        <path id="Path_47638" data-name="Path 47638" d="M535.658,259.615a.922.922,0,1,1-.932.911A.951.951,0,0,1,535.658,259.615Z" transform="translate(-528.212 -250.313)" fill="#222872"/>
        <path id="Path_47639" data-name="Path 47639" d="M816.74,259.614a.922.922,0,1,1-.943.9A.95.95,0,0,1,816.74,259.614Z" transform="translate(-776.591 -250.312)" fill="#222872"/>
      </g>
    </g>
  </g>
</svg>
