<svg xmlns="http://www.w3.org/2000/svg" width="117" height="117" viewBox="0 0 117 117">
  <g id="Group_58238" data-name="Group 58238" transform="translate(-40.9 -87)">
    <circle id="Ellipse_727" data-name="Ellipse 727" cx="58.5" cy="58.5" r="58.5" transform="translate(40.9 87)" fill="#e9f7ff"/>
    <g id="Group_58260" data-name="Group 58260" transform="translate(-417.061 -71.723)">
      <g id="Group_58259" data-name="Group 58259" transform="translate(490.568 196.073)">
        <path id="Path_47607" data-name="Path 47607" d="M605.467,301.19q0-5.683,0-11.365a1.7,1.7,0,0,1,1.9-1.923q8.881,0,17.763,0a1.69,1.69,0,0,1,1.88,1.894q0,11.391,0,22.782a1.688,1.688,0,0,1-1.877,1.9q-8.908,0-17.815,0a1.685,1.685,0,0,1-1.854-1.868Q605.464,306.9,605.467,301.19ZM625.333,289.6H607.165v23.188h18.168Z" transform="translate(-590.549 -279.582)" fill="#009eff"/>
        <path id="Path_47608" data-name="Path 47608" d="M556.094,227.807v1.642h-.575q-4.942,0-9.885,0a4.165,4.165,0,0,0-4.434,4.442c0,1.537,0,3.075,0,4.652h-1.658c0-.21,0-.428,0-.646.026-1.727-.083-3.469.112-5.176a5.472,5.472,0,0,1,5.173-4.882C548.565,227.711,552.309,227.807,556.094,227.807Z" transform="translate(-533.74 -227.772)" fill="#222872"/>
        <path id="Path_47609" data-name="Path 47609" d="M707.478,229.541V227.88h.529q4.968,0,9.936,0a5.813,5.813,0,0,1,6.084,6.093q0,2.074,0,4.149v.528h-1.657V238.1c0-1.435.007-2.87,0-4.3a4.14,4.14,0,0,0-4.255-4.256c-3.346-.009-6.693,0-10.04,0Z" transform="translate(-678.446 -227.864)" fill="#222872"/>
        <path id="Path_47610" data-name="Path 47610" d="M556.142,471.342V473h-.5q-5.02,0-10.04,0a5.814,5.814,0,0,1-6.021-6.052c0-1.555,0-3.109,0-4.7h1.634c.008.159.022.326.023.493,0,1.4,0,2.8,0,4.2a4.158,4.158,0,0,0,4.371,4.4q4.968,0,9.936,0Z" transform="translate(-533.777 -429.804)" fill="#222872"/>
        <path id="Path_47611" data-name="Path 47611" d="M722.467,462.039h1.569c.029.033.071.059.071.084-.023,1.951.088,3.915-.11,5.849a5.531,5.531,0,0,1-5.293,4.819c-3.689.08-7.381.02-11.113.02v-1.648h.535q4.968,0,9.935,0a4.162,4.162,0,0,0,4.4-4.421C722.469,465.19,722.467,463.638,722.467,462.039Z" transform="translate(-678.544 -429.626)" fill="#222872"/>
        <path id="Path_47612" data-name="Path 47612" d="M508.429,322.131v1.648c-.872,0-1.73.032-2.583-.022a1.085,1.085,0,0,1-.638-.46c-.4-.538-.755-1.115-1.132-1.673a1.192,1.192,0,0,0-1.758.057,2.463,2.463,0,0,1-2.833,1.18,2.479,2.479,0,0,1,.043-4.784,2.4,2.4,0,0,1,2.8,1.232.57.57,0,0,0,.6.336c2.137.022,1.648-.311,2.812,1.536a1.625,1.625,0,0,0,1.806.957A5.565,5.565,0,0,1,508.429,322.131Zm-7.442-1.663a.825.825,0,1,0-.81.829A.831.831,0,0,0,500.987,320.468Z" transform="translate(-497.675 -305.507)" fill="#222872"/>
        <path id="Path_47613" data-name="Path 47613" d="M791.231,323.661V322c.562,0,1.125.023,1.684-.013a.8.8,0,0,0,.529-.284c.4-.541.766-1.108,1.127-1.676a1.008,1.008,0,0,1,.994-.519c.12.009.242-.008.362,0a1.573,1.573,0,0,0,1.738-.76,2.232,2.232,0,0,1,2.783-.711,2.476,2.476,0,0,1-.329,4.7,2.457,2.457,0,0,1-2.721-1.117,1.157,1.157,0,0,0-1.873-.023c-.345.517-.7,1.031-1.031,1.554a1.019,1.019,0,0,1-.946.514C792.791,323.651,792.035,323.661,791.231,323.661Zm9.1-3.321a.825.825,0,1,0-.815.826A.834.834,0,0,0,800.331,320.34Z" transform="translate(-750.611 -305.376)" fill="#222872"/>
        <path id="Path_47614" data-name="Path 47614" d="M508.415,407.918v1.661c-.55,0-1.1.017-1.638-.007a.619.619,0,0,0-.624.34c-.336.543-.712,1.061-1.052,1.6a1.037,1.037,0,0,1-1.027.558c-.12-.01-.242.008-.362,0a1.575,1.575,0,0,0-1.736.764,2.246,2.246,0,0,1-2.832.686,2.477,2.477,0,0,1,.49-4.7,2.458,2.458,0,0,1,2.647,1.186,1.179,1.179,0,0,0,1.785.061c.366-.545.735-1.088,1.089-1.64a1.02,1.02,0,0,1,.947-.512C506.857,407.928,507.613,407.918,508.415,407.918Zm-7.452,3.306a.825.825,0,1,0-.8.843A.831.831,0,0,0,500.963,411.224Z" transform="translate(-497.651 -382.989)" fill="#222872"/>
        <path id="Path_47615" data-name="Path 47615" d="M791.423,407.874c.827,0,1.623-.041,2.41.022a1.288,1.288,0,0,1,.789.473c.418.525.759,1.112,1.135,1.67a1.19,1.19,0,0,0,1.757-.056,2.473,2.473,0,0,1,2.883-1.169,2.483,2.483,0,0,1-.293,4.821,2.426,2.426,0,0,1-2.577-1.232.614.614,0,0,0-.625-.387c-2.136-.012-1.644.313-2.813-1.532a1.614,1.614,0,0,0-1.805-.958,5.03,5.03,0,0,1-.861.008Zm9.073,3.3a.825.825,0,1,0-.8.845A.835.835,0,0,0,800.5,411.175Z" transform="translate(-750.776 -382.943)" fill="#222872"/>
        <path id="Path_47616" data-name="Path 47616" d="M521.212,367.614v1.661h-.545c-1.933,0-3.865,0-5.8-.005a.564.564,0,0,0-.6.343,2.4,2.4,0,0,1-2.8,1.232,2.482,2.482,0,0,1-.012-4.8,2.414,2.414,0,0,1,2.807,1.219.6.6,0,0,0,.643.355c1.9-.011,3.8-.006,5.695-.006Zm-8.28.845a.826.826,0,1,0-.828.812A.836.836,0,0,0,512.932,368.459Z" transform="translate(-507.963 -346.838)" fill="#222872"/>
        <path id="Path_47617" data-name="Path 47617" d="M773.269,369.289v-1.661h.557c1.915,0,3.831-.005,5.746.005a.6.6,0,0,0,.642-.356,2.418,2.418,0,0,1,2.807-1.219,2.485,2.485,0,0,1,.037,4.789,2.416,2.416,0,0,1-2.825-1.176.646.646,0,0,0-.675-.391c-1.915.015-3.831.007-5.746.007Zm9.1-1.657a.827.827,0,1,0,.832.806A.832.832,0,0,0,782.365,367.632Z" transform="translate(-735.134 -346.852)" fill="#222872"/>
        <path id="Path_47618" data-name="Path 47618" d="M674.824,229.689h-3.243v-1.616h3.243Z" transform="translate(-647.516 -228.031)" fill="#222872"/>
        <path id="Path_47619" data-name="Path 47619" d="M674.878,528.2v1.591H671.61V528.2Z" transform="translate(-647.541 -486.634)" fill="#222872"/>
        <path id="Path_47620" data-name="Path 47620" d="M583.393,348.165v1.585h-1.609v-1.585Z" transform="translate(-570.143 -331.507)" fill="#222872"/>
        <path id="Path_47621" data-name="Path 47621" d="M774.959,349.8h-1.6v-1.6h1.6Z" transform="translate(-735.214 -331.544)" fill="#222872"/>
        <path id="Path_47622" data-name="Path 47622" d="M581.789,408.1h1.59v1.615h-1.59Z" transform="translate(-570.148 -383.146)" fill="#222872"/>
        <path id="Path_47623" data-name="Path 47623" d="M773.437,408.115h1.595v1.6h-1.595Z" transform="translate(-735.279 -383.163)" fill="#222872"/>
        <path id="Path_47631" data-name="Path 47631" d="M655.809,363.037v-4.154c-.377,0-.748.006-1.119,0a1.26,1.26,0,0,1-1.354-1.362c-.009-.761-.01-1.522,0-2.283a1.244,1.244,0,0,1,1.329-1.332q2.382-.016,4.764,0a1.254,1.254,0,0,1,1.361,1.4c.005,2.37,0,4.74,0,7.109v.6c.169.008.3.01.433.02a1.229,1.229,0,0,1,1.216,1.232c.022.83.021,1.661,0,2.49a1.212,1.212,0,0,1-1.249,1.25q-3.314.022-6.628,0a1.2,1.2,0,0,1-1.224-1.221c-.023-.83-.02-1.661,0-2.491a1.228,1.228,0,0,1,1.243-1.258C654.976,363.024,655.37,363.037,655.809,363.037Zm3.326-7.439h-4.119v1.624c.519,0,1.015-.007,1.511,0a.847.847,0,0,1,.948.965q.01,2.775,0,5.549a.846.846,0,0,1-.958.956c-.495.008-.989,0-1.49,0v1.621h5.738V364.7c-.264,0-.5.008-.739,0a.834.834,0,0,1-.888-.87c-.009-.172,0-.346,0-.518Z" transform="translate(-631.786 -336.446)" fill="#009eff"/>
        <path id="Path_47632" data-name="Path 47632" d="M665.38,314.421a2.483,2.483,0,1,1,2.453,2.492A2.5,2.5,0,0,1,665.38,314.421Zm2.461.83a.827.827,0,1,0-.8-.836A.835.835,0,0,0,667.841,315.251Z" transform="translate(-642.173 -300.291)" fill="#009eff"/>
      </g>
    </g>
  </g>
</svg>
