<svg xmlns="http://www.w3.org/2000/svg" width="117" height="117" viewBox="0 0 117 117">
  <g id="Group_58238" data-name="Group 58238" transform="translate(-40.9 -87)">
    <circle id="Ellipse_727" data-name="Ellipse 727" cx="58.5" cy="58.5" r="58.5" transform="translate(40.9 87)" fill="#e9f7ff"/>
    <g id="Group_58258" data-name="Group 58258" transform="translate(-354.355 -9.255)">
      <g id="Group_58257" data-name="Group 58257" transform="translate(427 128)">
        <path id="Path_47580" data-name="Path 47580" d="M435.883,128a1.416,1.416,0,0,1,.743,1.421c-.029,2.3-.01,4.6-.012,6.894,0,.933-.366,1.3-1.3,1.3-2.3,0-4.6-.017-6.894.012a1.414,1.414,0,0,1-1.421-.743V128Zm-1.383,2.126h-5.37V135.5h5.37Z" transform="translate(-427 -128)" fill="#222872"/>
        <path id="Path_47581" data-name="Path 47581" d="M856.511,136.883a1.426,1.426,0,0,1-1.421.743c-2.3-.03-4.6-.01-6.9-.012-.934,0-1.3-.364-1.3-1.3,0-2.3.017-4.6-.012-6.9a1.4,1.4,0,0,1,.744-1.42h8.883Zm-2.117-1.381v-5.381h-5.372V135.5Z" transform="translate(-803.001 -128)" fill="#222872"/>
        <path id="Path_47582" data-name="Path 47582" d="M847.627,557.513a1.408,1.408,0,0,1-.744-1.42c.03-2.3.01-4.6.012-6.9,0-.935.362-1.3,1.3-1.3,2.3,0,4.6.017,6.9-.012a1.424,1.424,0,0,1,1.421.743v8.883Zm6.756-2.114v-5.37h-5.37v5.37Z" transform="translate(-803.001 -504.004)" fill="#222872"/>
        <path id="Path_47583" data-name="Path 47583" d="M427,548.632a1.413,1.413,0,0,1,1.421-.743c2.3.029,4.6.01,6.895.012.934,0,1.3.364,1.3,1.3,0,2.3-.017,4.6.012,6.895a1.419,1.419,0,0,1-.743,1.421H427Zm2.127,1.382v5.37H434.5v-5.37Z" transform="translate(-427 -504.006)" fill="#222872"/>
        <path id="Path_47584" data-name="Path 47584" d="M527.172,233.92l2.106,2.133c.879-.883,1.765-1.791,2.672-2.678a1.043,1.043,0,0,1,1.811.439,1.093,1.093,0,0,1-.38,1.077q-1.148,1.143-2.291,2.291c-.121.121-.235.249-.346.367l1.68,1.68c.25-.3.486-.62.767-.9a1.047,1.047,0,1,1,1.464,1.483c-.263.275-.546.532-.918.892.509.474.985.9,1.441,1.345s.873.9,1.271,1.308l5.87-5.886c-1.232-1.227-2.526-2.516-3.82-3.806-.712-.71-.806-1.3-.291-1.793.5-.48,1.075-.381,1.758.3q2.217,2.216,4.434,4.434c.7.706.709,1.217.012,1.916q-3.452,3.458-6.909,6.91c-.695.694-1.209.687-1.915-.019q-4.731-4.728-9.457-9.46c-.135-.135-.243-.3-.5-.62a3.315,3.315,0,0,1-.355.586c-1.508,1.522-3.012,3.047-4.55,4.539a3.525,3.525,0,0,1-1.21.763c-2.466.9-4.948,1.754-7.425,2.624-.066.023-.133.043-.2.068a1.058,1.058,0,0,1-1.412-1.385c.939-2.655,1.863-5.316,2.814-7.967a2.211,2.211,0,0,1,.521-.762q2.313-2.342,4.654-4.657a6.447,6.447,0,0,1,.57-.437,5.557,5.557,0,0,1-.574-.423q-4.735-4.724-9.461-9.456c-.731-.732-.734-1.227-.011-1.95q3.435-3.437,6.872-6.872c.721-.72,1.219-.716,1.951.016q4.73,4.729,9.456,9.462a3.859,3.859,0,0,1,.357.5c1.565-1.568,3.027-3.034,4.491-4.5.936-.936,1.855-1.891,2.82-2.8a4.747,4.747,0,0,1,5.292-.836,4.808,4.808,0,0,1,2.756,4.6,4.657,4.657,0,0,1-1.136,2.858c-.181.212-.377.411-.574.608q-6.815,6.818-13.635,13.631A4.467,4.467,0,0,1,527.172,233.92Zm5.888-16.272-17.122,17.12,3.721,3.73,17.126-17.126ZM516.951,223.7a3.637,3.637,0,0,1,.33-.447c.77-.781,1.542-1.561,2.329-2.324a.984.984,0,0,1,1.288-.157.957.957,0,0,1,.445,1.128,1.6,1.6,0,0,1-.415.642c-.859.878-1.735,1.74-2.583,2.585l1.96,1.967,5.727-5.712-9.221-9.223-5.691,5.684,2.728,2.725c.233-.259.483-.571.768-.846a1.028,1.028,0,0,1,1.53-.058,1.045,1.045,0,0,1-.064,1.535c-.273.287-.575.548-.836.793Zm21.406-3.847c.634-.629,1.279-1.217,1.863-1.859a2.671,2.671,0,0,0,.005-3.575,2.616,2.616,0,0,0-3.537-.446,27.07,27.07,0,0,0-2.167,2.04Zm-23.646,16.922-1.569,4.487,4.482-1.579Z" transform="translate(-499.936 -200.954)" fill="#009eff"/>
        <path id="Path_47585" data-name="Path 47585" d="M730.156,590.006c-.348,0-.7.017-1.045,0a1.047,1.047,0,0,1-1.014-1.054,1.031,1.031,0,0,1,.994-1.018c.731-.027,1.463-.027,2.194,0a1,1,0,0,1,1,1.052A1.016,1.016,0,0,1,731.253,590c-.365.017-.731,0-1.1,0Z" transform="translate(-696.629 -539.844)" fill="#222872"/>
        <path id="Path_47586" data-name="Path 47586" d="M599.863,170.012c-.348,0-.7.014-1.045,0a1.014,1.014,0,0,1-1.023-1.033,1,1,0,0,1,1.01-1.043c.713-.024,1.428-.023,2.142,0a1.043,1.043,0,0,1,1.037,1.031,1.059,1.059,0,0,1-1.077,1.047C600.56,170.023,600.212,170.012,599.863,170.012Z" transform="translate(-579.946 -163.743)" fill="#222872"/>
        <path id="Path_47587" data-name="Path 47587" d="M599.868,590.011c-.348,0-.7.014-1.045,0a1.016,1.016,0,0,1-1.028-1.028,1,1,0,0,1,1-1.048c.713-.025,1.428-.022,2.142,0a1.045,1.045,0,0,1,1.043,1.026,1.058,1.058,0,0,1-1.071,1.053C600.565,590.023,600.217,590.012,599.868,590.011Z" transform="translate(-579.946 -539.848)" fill="#222872"/>
        <path id="Path_47588" data-name="Path 47588" d="M730.18,167.976c.366,0,.732-.016,1.1,0a1.038,1.038,0,0,1-.012,2.076q-1.07.032-2.142,0a1.038,1.038,0,0,1-1.024-1.042,1.052,1.052,0,0,1,1.036-1.034C729.482,167.96,729.831,167.976,730.18,167.976Z" transform="translate(-696.631 -163.792)" fill="#222872"/>
        <path id="Path_47589" data-name="Path 47589" d="M465.011,304.936c0,.348.018.7,0,1.045a1.038,1.038,0,0,1-2.076-.029c-.019-.714-.022-1.429,0-2.142a1.037,1.037,0,0,1,2.073-.023C465.032,304.168,465.011,304.553,465.011,304.936Z" transform="translate(-459.163 -284.539)" fill="#222872"/>
        <path id="Path_47590" data-name="Path 47590" d="M885.01,304.93c0,.348.016.7,0,1.045a1.038,1.038,0,0,1-2.076,0q-.032-1.07,0-2.142a1.038,1.038,0,0,1,2.076,0C885.026,304.2,885.01,304.564,885.01,304.93Z" transform="translate(-835.266 -284.547)" fill="#222872"/>
        <path id="Path_47591" data-name="Path 47591" d="M465.016,435.231c0,.348.015.7,0,1.045a1.04,1.04,0,1,1-2.08-.028c-.017-.7-.018-1.394,0-2.09a1.038,1.038,0,0,1,2.076-.024C465.033,434.5,465.016,434.865,465.016,435.231Z" transform="translate(-459.167 -401.228)" fill="#222872"/>
        <path id="Path_47592" data-name="Path 47592" d="M885.01,435.251c0,.348.017.7,0,1.045a1.038,1.038,0,0,1-2.076-.015q-.03-1.07,0-2.142a1.038,1.038,0,0,1,2.076.015C885.026,434.518,885.011,434.885,885.01,435.251Z" transform="translate(-835.267 -401.228)" fill="#222872"/>
        <path id="Path_47593" data-name="Path 47593" d="M882.969,370.034c0-.347-.014-.694,0-1.04a1.038,1.038,0,0,1,2.075-.006c.025.727.027,1.457,0,2.184a1.013,1.013,0,0,1-1.058.991,1.027,1.027,0,0,1-1.016-1.037C882.956,370.763,882.969,370.4,882.969,370.034Z" transform="translate(-835.311 -342.897)" fill="#222872"/>
        <path id="Path_47594" data-name="Path 47594" d="M465.007,370.1c0,.347.017.694,0,1.04a1.027,1.027,0,0,1-1.037,1.017,1.014,1.014,0,0,1-1.038-1.012c-.023-.727-.024-1.457,0-2.184a1.009,1.009,0,0,1,1.006-.99,1.023,1.023,0,0,1,1.065.986C465.027,369.339,465.007,369.722,465.007,370.1Z" transform="translate(-459.159 -342.894)" fill="#222872"/>
        <path id="Path_47595" data-name="Path 47595" d="M665.012,170.015c-.329,0-.659.011-.988,0a1.031,1.031,0,0,1-1.059-1.047,1.016,1.016,0,0,1,1.02-1.031c.71-.023,1.422-.022,2.132,0a1.039,1.039,0,1,1-.012,2.078C665.741,170.028,665.376,170.015,665.012,170.015Z" transform="translate(-638.304 -163.746)" fill="#222872"/>
        <path id="Path_47596" data-name="Path 47596" d="M665.033,590.019c-.329,0-.659.01-.988,0a1.034,1.034,0,0,1-1.081-1.026,1.021,1.021,0,0,1,1.05-1.054q1.04-.029,2.08,0a1.041,1.041,0,1,1-.021,2.081C665.727,590.03,665.38,590.019,665.033,590.019Z" transform="translate(-638.303 -539.855)" fill="#222872"/>
        <path id="Path_47597" data-name="Path 47597" d="M465,499.888a4.251,4.251,0,0,1,0,.574,1.039,1.039,0,0,1-2.062-.032,7.677,7.677,0,0,1-.007-1.044,1.04,1.04,0,0,1,2.08-.02c.013.173,0,.348,0,.522Z" transform="translate(-459.162 -459.64)" fill="#222872"/>
        <path id="Path_47598" data-name="Path 47598" d="M885,499.888a4.221,4.221,0,0,1,0,.574,1.016,1.016,0,0,1-1.047.9,1,1,0,0,1-1.015-.929,7.811,7.811,0,0,1-.007-1.044,1.04,1.04,0,0,1,2.08-.019c.013.173,0,.348,0,.522Z" transform="translate(-835.266 -459.64)" fill="#222872"/>
        <path id="Path_47599" data-name="Path 47599" d="M465,250.342a4.022,4.022,0,0,1-.005.625,1.036,1.036,0,0,1-2.054-.051,7.585,7.585,0,0,1-.01-1.044,1.041,1.041,0,1,1,2.082,0c.009.156,0,.313,0,.47Z" transform="translate(-459.161 -236.202)" fill="#222872"/>
        <path id="Path_47600" data-name="Path 47600" d="M794.8,170.076c-.979,0-1.5-.371-1.482-1.063.014-.674.517-1.026,1.468-1.027.157,0,.314,0,.47,0a1.043,1.043,0,1,1,.014,2.086C795.116,170.082,794.959,170.076,794.8,170.076Z" transform="translate(-755.035 -163.806)" fill="#222872"/>
        <path id="Path_47601" data-name="Path 47601" d="M545.314,589.994a5.071,5.071,0,0,1-.574,0,1.015,1.015,0,0,1-.927-1.019,1,1,0,0,1,.9-1.042,6.558,6.558,0,0,1,1.148-.006,1.035,1.035,0,0,1,.966,1.044,1.049,1.049,0,0,1-.989,1.027c-.173.015-.348,0-.522,0Z" transform="translate(-531.605 -539.837)" fill="#222872"/>
        <path id="Path_47602" data-name="Path 47602" d="M545.281,170.011c-.174,0-.35.015-.522,0a1.039,1.039,0,0,1-.022-2.068,7.231,7.231,0,0,1,1.044-.008,1.041,1.041,0,1,1-.03,2.082c-.156.008-.313,0-.47,0Z" transform="translate(-531.601 -163.746)" fill="#222872"/>
        <path id="Path_47603" data-name="Path 47603" d="M794.828,590.015a4.908,4.908,0,0,1-.574,0,1.037,1.037,0,0,1,.039-2.068,8.1,8.1,0,0,1,.992-.006,1.042,1.042,0,1,1,.013,2.083c-.156.009-.313,0-.47,0Z" transform="translate(-755.035 -539.859)" fill="#222872"/>
        <path id="Path_47604" data-name="Path 47604" d="M882.988,250.291c0-.157-.01-.314,0-.47a1.04,1.04,0,0,1,2.077,0,7.857,7.857,0,0,1,0,.992,1.04,1.04,0,0,1-2.08,0C882.978,250.64,882.988,250.465,882.988,250.291Z" transform="translate(-835.329 -236.201)" fill="#222872"/>
        <path id="Path_47605" data-name="Path 47605" d="M762.939,392.9a1.045,1.045,0,0,1,1.021,1.043,1.077,1.077,0,0,1-1.044,1.034,1.046,1.046,0,0,1-1.033-1.084A1.012,1.012,0,0,1,762.939,392.9Z" transform="translate(-726.885 -365.211)" fill="#009eff"/>
      </g>
    </g>
  </g>
</svg>
