<svg xmlns="http://www.w3.org/2000/svg" width="113" height="113" viewBox="0 0 113 113">
  <g id="Group_58270" data-name="Group 58270" transform="translate(-301 -2587.054)">
    <circle id="Ellipse_727" data-name="Ellipse 727" cx="56.5" cy="56.5" r="56.5" transform="translate(301 2587.054)" fill="#06b2ff"/>
    <g id="Group_58287" data-name="Group 58287" transform="translate(-155.192 2431.265)">
      <g id="Group_58287-2" data-name="Group 58287" transform="translate(491.092 192)">
        <path id="Path_47645" data-name="Path 47645" d="M534.933,200.115c-.053.172-.1.345-.158.517a3.149,3.149,0,0,1-2.909,2.185c-.1,0-.2,0-.3,0H495.093a3.157,3.157,0,0,1-3.315-2.687,3.808,3.808,0,0,1-.038-.631q0-2.092,0-4.183a3.15,3.15,0,0,1,2.473-3.242.714.714,0,0,0,.142-.076h37.963a3.239,3.239,0,0,1,1.886,1.168,11.72,11.72,0,0,1,.73,1.537Z" transform="translate(-491.733 -192)" fill="#fff"/>
        <path id="Path_47646" data-name="Path 47646" d="M719.04,357.622a6.765,6.765,0,0,1-.284.833,3.024,3.024,0,0,1-2.832,1.862q-6.768.034-13.537.005a3.155,3.155,0,0,1-3.148-3.19c-.019-.831,0-1.662,0-2.493q0-7.648,0-15.3a3.148,3.148,0,0,1,2.006-3.123,3.466,3.466,0,0,1,1.189-.227q6.705-.023,13.41-.008a3.148,3.148,0,0,1,3.111,2.426c.025.093.058.184.087.276Zm-2.7-10.17v-.528q0-3.739,0-7.478c0-.665-.093-.758-.75-.758h-12.9c-.647,0-.752.106-.752.762q0,4.943,0,9.886c0,.133.013.266.025.51.477-.483.875-.9,1.283-1.3a3.155,3.155,0,0,1,4.6,0c.232.226.457.458.686.686.417.416.626.412,1-.034q.8-.957,1.58-1.925a3,3,0,0,1,1.579-1.068A3.3,3.3,0,0,1,716.341,347.453Z" transform="translate(-675.84 -319.754)" fill="#fff"/>
        <path id="Path_47648" data-name="Path 47648" d="M501.653,335.985q4.216,0,8.432,0a1.35,1.35,0,0,1,1.4,1.7,1.336,1.336,0,0,1-1.3,1c-.8.012-1.6,0-2.4,0q-7.209,0-14.419,0a2.539,2.539,0,0,1-.586-.042,1.347,1.347,0,0,1,.315-2.657c1.841-.01,3.682,0,5.523,0Z" transform="translate(-491.737 -319.755)" fill="#fff"/>
        <path id="Path_47649" data-name="Path 47649" d="M501.612,386.7q-4.216,0-8.432,0a1.353,1.353,0,0,1-.237-2.695,2.6,2.6,0,0,1,.295-.008q8.411,0,16.822,0a1.375,1.375,0,0,1,1.421.964,1.349,1.349,0,0,1-1.352,1.737c-2.347.008-4.694,0-7.041,0Z" transform="translate(-491.736 -362.36)" fill="#fff"/>
        <path id="Path_47650" data-name="Path 47650" d="M501.612,434.694q-4.237,0-8.474,0a1.355,1.355,0,1,1,.007-2.7c1.8,0,3.6,0,5.4,0q5.755,0,11.51,0a1.354,1.354,0,1,1-.007,2.7q-3.31.005-6.619,0Z" transform="translate(-491.69 -404.94)" fill="#fff"/>
        <path id="Path_47651" data-name="Path 47651" d="M501.595,482.681c-2.825,0-5.649,0-8.474,0a1.346,1.346,0,0,1-1.316-1.852,1.29,1.29,0,0,1,1.247-.847c.759-.012,1.518,0,2.277,0H510a1.386,1.386,0,0,1,1.437.944,1.349,1.349,0,0,1-1.326,1.757c-1.588.011-3.176,0-4.764,0Z" transform="translate(-491.698 -447.518)" fill="#fff"/>
        <path id="Path_47652" data-name="Path 47652" d="M501.674,528q4.237,0,8.474,0a1.358,1.358,0,0,1,1.318.872,1.233,1.233,0,0,1-.361,1.453,2.033,2.033,0,0,1-1.077.362c-4.37.024-8.741.016-13.112.016-1.223,0-2.445,0-3.668,0a1.358,1.358,0,1,1-.007-2.7Q497.458,527.994,501.674,528Z" transform="translate(-491.752 -490.128)" fill="#fff"/>
      </g>
    </g>
  </g>
</svg>
