<svg xmlns="http://www.w3.org/2000/svg" width="113" height="113" viewBox="0 0 113 113">
  <g id="Group_58268" data-name="Group 58268" transform="translate(-1017 -2321)">
    <circle id="Ellipse_727" data-name="Ellipse 727" cx="56.5" cy="56.5" r="56.5" transform="translate(1017 2321)" fill="#06b2ff"/>
    <g id="Group_58295" data-name="Group 58295" transform="translate(552.864 2155.499)">
      <g id="Group_58294" data-name="Group 58294" transform="translate(494.355 195.225)">
        <path id="Path_47684" data-name="Path 47684" d="M597.369,273.908V262.567h-3.633v.586c0,4.108-.006,8.216.009,12.323,0,.411-.073.693-.495.813-.338.1-.441.323-.43.68.028.907.009,1.816.009,2.771h-4.518v-8.1h-3.616v8.109h-4.561c0-.913-.018-1.816.008-2.718.012-.389-.07-.659-.473-.768-.371-.1-.456-.347-.452-.723.021-1.89.01-3.781.01-5.71h-3.611v3.957l-.134.1c-.653-.606-1.361-1.161-1.948-1.825-4.141-4.678-5.406-10.071-3.393-15.981a15.057,15.057,0,0,1,12.48-10.566,20.43,20.43,0,0,1,11.105.887,15.954,15.954,0,0,1,9.957,15.7,15.627,15.627,0,0,1-5.737,11.362C597.79,273.595,597.623,273.713,597.369,273.908Zm-16.413-8.661c.51,0,1.021.022,1.529-.008a.564.564,0,0,1,.651.439,3.6,3.6,0,1,0,6.64-2.782.549.549,0,0,1,.146-.727c1.145-1.128,2.284-2.262,3.4-3.413a.647.647,0,0,1,.865-.168,3.6,3.6,0,0,0,4.979-3.148,3.628,3.628,0,0,0-6.177-2.767,3.574,3.574,0,0,0-.743,4.03c.106.245.164.417-.067.643-1.215,1.191-2.4,2.409-3.623,3.6a.642.642,0,0,1-.564.1,3.571,3.571,0,0,0-4.886,2.024.506.506,0,0,1-.582.371c-.982-.013-1.965-.02-2.946,0a1.1,1.1,0,0,1-.926-.382,1.742,1.742,0,0,0-2.494-.03,1.8,1.8,0,0,0-.106,2.509,1.7,1.7,0,0,0,2.476.184,1.574,1.574,0,0,1,1.347-.474C580.238,265.26,580.6,265.247,580.956,265.247Z" transform="translate(-560.218 -239.841)" fill="#fff"/>
        <path id="Path_47685" data-name="Path 47685" d="M751.67,408.553a4.248,4.248,0,0,0-2.973,3.572,11.177,11.177,0,0,0,.249,2.331.815.815,0,0,1-.11.572c-.754.8-1.533,1.569-2.321,2.332a.573.573,0,0,1-.467.138c-2.833-.861-4.681-.048-6.008,2.677h-3.964a4.446,4.446,0,0,0-3.2-2.936l.7-2.731a9.124,9.124,0,1,0,8.235-16.267c.372-.734.736-1.472,1.125-2.2a.413.413,0,0,1,.354-.154,4.644,4.644,0,0,0,2.776-.27.5.5,0,0,1,.424.112c.814.791,1.617,1.592,2.4,2.411a.544.544,0,0,1,.071.48,4.442,4.442,0,0,0,2.435,5.835.486.486,0,0,1,.267.349C751.677,406.058,751.67,407.306,751.67,408.553Z" transform="translate(-699.109 -367.527)" fill="#fff"/>
        <path id="Path_47686" data-name="Path 47686" d="M511.8,227.389a2.729,2.729,0,0,0-1.941-4.6V219.2a2.7,2.7,0,0,0,2.461-1.679,2.641,2.641,0,0,0-.534-2.921l2.531-2.532a2.727,2.727,0,0,0,4.6-1.945h3.578a2.713,2.713,0,0,0,1.669,2.46,2.627,2.627,0,0,0,2.914-.527l2.423,2.435c-.069.034-.173.088-.28.138-1.193.558-2.4,1.1-3.573,1.686a.569.569,0,0,1-.771-.09,6.246,6.246,0,0,0-7.02-.913,6.351,6.351,0,0,0-3.475,6.143,6.229,6.229,0,0,0,2.725,4.754c.2.142.409.266.632.411l-.55,2.7a2.789,2.789,0,0,0-2.847.612Z" transform="translate(-509.862 -210.127)" fill="#fff"/>
        <path id="Path_47687" data-name="Path 47687" d="M745.228,439.042a5.44,5.44,0,0,1-10.2,2.6.942.942,0,0,1-.036-.869,4.574,4.574,0,0,0,.241-1.816,1.638,1.638,0,0,1,1.036-1.7,20.209,20.209,0,0,0,4.592-3.274.82.82,0,0,1,.688-.115A5.41,5.41,0,0,1,745.228,439.042Z" transform="translate(-700.829 -399.966)" fill="#fff"/>
        <path id="Path_47688" data-name="Path 47688" d="M641.4,510.122h12.656a6.332,6.332,0,0,1-2.483,5.924,5.97,5.97,0,0,1-6.853.529C642.229,515.215,641.246,512.975,641.4,510.122Z" transform="translate(-621.474 -464.703)" fill="#fff"/>
        <path id="Path_47689" data-name="Path 47689" d="M807.694,219.875h-1.087v15.408H803V219.89h-1.121l2.908-4.67Z" transform="translate(-757.669 -214.449)" fill="#fff"/>
        <path id="Path_47690" data-name="Path 47690" d="M531.193,451.362h-3.644V435.937h-1.082l2.891-4.641,2.881,4.611h-1.045Z" transform="translate(-523.953 -397.811)" fill="#fff"/>
        <path id="Path_47691" data-name="Path 47691" d="M666.781,486.263V488h-7.2v-1.739Z" transform="translate(-636.911 -444.456)" fill="#fff"/>
        <path id="Path_47692" data-name="Path 47692" d="M567.844,264.353l-3.227,4.331a2.549,2.549,0,0,1-1.028-2.267,2.6,2.6,0,0,1,1.662-2.362A2.5,2.5,0,0,1,567.844,264.353Z" transform="translate(-555.45 -255.693)" fill="#fff"/>
        <path id="Path_47694" data-name="Path 47694" d="M739.074,306.848a.9.9,0,1,1-.9-.91A.914.914,0,0,1,739.074,306.848Z" transform="translate(-702.84 -291.432)" fill="#fff"/>
        <path id="Path_47695" data-name="Path 47695" d="M678.27,367.766a.9.9,0,1,1,.908-.9A.912.912,0,0,1,678.27,367.766Z" transform="translate(-652.013 -342.365)" fill="#fff"/>
      </g>
    </g>
  </g>
</svg>
