<svg xmlns="http://www.w3.org/2000/svg" width="113" height="113" viewBox="0 0 113 113">
  <g id="Group_58337" data-name="Group 58337" transform="translate(-1017 -2570)">
    <circle id="Ellipse_747" data-name="Ellipse 747" cx="56.5" cy="56.5" r="56.5" transform="translate(1017 2570)" fill="#06b2ff"/>
    <g id="Group_58289" data-name="Group 58289" transform="translate(588.775 2440.265)">
      <g id="Group_58288" data-name="Group 58288" transform="translate(458.113 163.325)">
        <path id="Path_47654" data-name="Path 47654" d="M869.819,306.012l-1.041,3.955c-.1.385-.181.777-.307,1.154a1.21,1.21,0,0,1-1.226.858,1.181,1.181,0,0,1-1.165-.872c-.46-1.759-.892-3.525-1.324-5.291a2.44,2.44,0,0,1-.024-.57q0-14.1,0-28.2v-.618h5.088Z" transform="translate(-816.481 -266.287)" fill="#fff"/>
        <path id="Path_47655" data-name="Path 47655" d="M869.837,198.751h-5.088v-1.987c0-.971,0-1.941,0-2.912a2.577,2.577,0,0,1,2.094-2.705A2.527,2.527,0,0,1,869.751,193a.543.543,0,0,0,.086.123Z" transform="translate(-816.499 -191.109)" fill="#fff"/>
        <path id="Path_47656" data-name="Path 47656" d="M466.454,233.708h.6q16.638,0,33.276,0a3.4,3.4,0,0,1,.672.051,1.189,1.189,0,0,1,.982,1.069,5.636,5.636,0,0,1,.025.676q0,17.263,0,34.526a5.4,5.4,0,0,1-.027.675,1.226,1.226,0,0,1-1.14,1.094c-.138.013-.278.009-.416.009h-38.8a2.581,2.581,0,0,1-2.666-1.747,2.546,2.546,0,0,1,2.463-3.335c1.162-.028,2.326,0,3.489-.007,1.1,0,1.536-.441,1.536-1.553q0-15.362,0-30.725Zm26.666,19.054c0-1.631-.011-3.262.006-4.892a1.418,1.418,0,0,0-.767-1.364q-4.316-2.455-8.623-4.925a1.449,1.449,0,0,0-1.568.016q-4.258,2.45-8.531,4.875a1.5,1.5,0,0,0-.837,1.431q.016,4.866,0,9.733a1.5,1.5,0,0,0,.844,1.429q4.252,2.409,8.487,4.848a1.511,1.511,0,0,0,1.658.012q4.257-2.453,8.531-4.875a1.453,1.453,0,0,0,.807-1.395C493.108,256.023,493.121,254.392,493.121,252.762Z" transform="translate(-458.837 -228.644)" fill="#fff"/>
        <path id="Path_47657" data-name="Path 47657" d="M463.963,245.4h-5.088v-.552q0-14.815,0-29.63a2.555,2.555,0,0,1,2.8-2.819c.33,0,.66-.009.989,0a1.267,1.267,0,0,1,1.287,1.183,4.02,4.02,0,0,1,.012.468q0,15.388,0,30.776Z" transform="translate(-458.871 -209.869)" fill="#fff"/>
        <path id="Path_47659" data-name="Path 47659" d="M678.892,369.979c0,2.369,0,4.641-.01,6.913a.551.551,0,0,1-.224.405c-1.98,1.145-3.969,2.274-5.958,3.4-.025.014-.065,0-.135,0-.008-.166-.022-.332-.022-.5,0-2.047.007-4.095-.009-6.142a.714.714,0,0,1,.411-.735c1.831-1.022,3.647-2.072,5.469-3.111C678.544,370.144,678.682,370.084,678.892,369.979Z" transform="translate(-647.133 -348.718)" fill="#fff"/>
        <path id="Path_47660" data-name="Path 47660" d="M597.775,369.884c1.729.987,3.366,2,5.08,2.866a1.953,1.953,0,0,1,1.254,2.154c-.109,1.711-.029,3.435-.029,5.153v.618c-.178-.082-.288-.123-.388-.18-1.868-1.065-3.738-2.124-5.594-3.209a.773.773,0,0,1-.348-.543c-.024-2.187-.015-4.374-.013-6.561C597.737,370.116,597.753,370.049,597.775,369.884Z" transform="translate(-581.224 -348.634)" fill="#fff"/>
        <path id="Path_47661" data-name="Path 47661" d="M608.66,325.053c2.09-1.194,4.106-2.348,6.127-3.491a.448.448,0,0,1,.373-.013c2.036,1.15,4.066,2.311,6.155,3.5-1.624.929-3.186,1.826-4.751,2.716-.526.3-1.058.8-1.592.809-.511.007-1.03-.507-1.542-.8C611.864,326.887,610.3,325.99,608.66,325.053Z" transform="translate(-590.851 -306.013)" fill="#fff"/>
      </g>
    </g>
  </g>
</svg>
