<svg xmlns="http://www.w3.org/2000/svg" width="113" height="113" viewBox="0 0 113 113">
  <g id="Group_58339" data-name="Group 58339" transform="translate(-1017 -2836)">
    <circle id="Ellipse_877" data-name="Ellipse 877" cx="56.5" cy="56.5" r="56.5" transform="translate(1017 2836)" fill="#06b2ff"/>
    <g id="Group_58293" data-name="Group 58293" transform="translate(560.104 2678.002)">
      <g id="Group_58292" data-name="Group 58292" transform="translate(491.115 192.944)">
        <path id="Path_47668" data-name="Path 47668" d="M536.191,200.294v24.787c-.115.005-.231.015-.346.015H492.187c-.138,0-.276-.015-.438-.024v-.339q0-11.958,0-23.915a2.755,2.755,0,0,1,.042-.518,2.622,2.622,0,0,1,2.742-2.163q19.442,0,38.884,0c.087,0,.174,0,.26,0a2.535,2.535,0,0,1,2.091,1.213A7.378,7.378,0,0,1,536.191,200.294Zm-22.063,10.887h3.208c1.344,0,2.688.009,4.032-.007a1.274,1.274,0,0,0,1.28-1.221,1.3,1.3,0,0,0-1.1-1.353,2.952,2.952,0,0,0-.518-.026H509.674c-.882,0-1.763,0-2.645,0a1.307,1.307,0,0,0-1.222.683,1.289,1.289,0,0,0,1.211,1.921C509.388,211.188,511.758,211.181,514.129,211.181Zm-4.161,5.218c.982,0,1.963.006,2.945,0a1.3,1.3,0,0,0,1.4-1.277,1.322,1.322,0,0,0-1.406-1.328q-2.923-.011-5.847,0a1.325,1.325,0,0,0-1.425,1.309,1.307,1.307,0,0,0,1.428,1.3C508.033,216.4,509,216.4,509.968,216.4ZM506.2,205.963c.866,0,1.732,0,2.6,0a1.308,1.308,0,0,0,1.435-1.288,1.323,1.323,0,0,0-1.416-1.317q-2.62-.01-5.24,0a1.323,1.323,0,0,0-1.414,1.319,1.3,1.3,0,0,0,1.395,1.285C504.441,205.969,505.322,205.963,506.2,205.963Zm0,15.655c.866,0,1.732,0,2.6,0a1.307,1.307,0,0,0,1.431-1.292,1.324,1.324,0,0,0-1.42-1.313q-2.62-.01-5.24,0a1.322,1.322,0,0,0-1.41,1.324,1.3,1.3,0,0,0,1.4,1.281C504.446,221.623,505.326,221.617,506.207,221.617ZM519.7,216.4c.736,0,1.473.006,2.209,0a1.3,1.3,0,1,0,.016-2.6q-2.165-.016-4.331,0a1.3,1.3,0,1,0-.016,2.6C518.283,216.406,518.991,216.4,519.7,216.4Zm8.418-5.22v0h1.471l.086,0a1.3,1.3,0,0,0,.07-2.594q-1.621-.052-3.245,0a1.3,1.3,0,0,0,.059,2.592C527.078,211.19,527.6,211.179,528.116,211.179ZM528.1,216.4v0h1.558a1.3,1.3,0,0,0,1.325-1.267,1.283,1.283,0,0,0-1.221-1.326c-1.1-.037-2.193-.037-3.288,0a1.3,1.3,0,0,0,.069,2.588C527.061,216.409,527.58,216.4,528.1,216.4Zm-29.871-10.438a1.3,1.3,0,0,0,1.331-1.265,1.3,1.3,0,1,0-2.6-.06A1.3,1.3,0,0,0,498.229,205.958Zm0,5.219a1.3,1.3,0,0,0,1.327-1.268,1.3,1.3,0,1,0-2.6-.053A1.3,1.3,0,0,0,498.233,211.177Zm0,5.218a1.3,1.3,0,0,0,1.326-1.27,1.3,1.3,0,1,0-2.6-.051A1.3,1.3,0,0,0,498.234,216.4Zm.008,5.218a1.3,1.3,0,0,0,1.318-1.278,1.3,1.3,0,1,0-2.6-.035A1.3,1.3,0,0,0,498.242,221.614Z" transform="translate(-491.749 -198.135)" fill="#fff"/>
        <path id="Path_47670" data-name="Path 47670" d="M536.206,456.131c-.082.2-.153.4-.247.589a2.532,2.532,0,0,1-2.258,1.508c-.144.008-.289.006-.434.006q-19.283,0-38.567.006a2.9,2.9,0,0,1-2.051-.654,2.36,2.36,0,0,1-.86-1.654c-.047-.951-.012-1.906-.012-2.915H535.6c.2,0,.4-.01.606-.015Z" transform="translate(-491.764 -423.445)" fill="#fff"/>
        <path id="Path_47682" data-name="Path 47682" d="M581.607,523.914v-3.076h15.6v3.076h.511c.911,0,1.822-.01,2.733.007a1.279,1.279,0,0,1,1.283,1.22,1.306,1.306,0,0,1-1.1,1.354,2.922,2.922,0,0,1-.518.027h-21.43a3.167,3.167,0,0,1-.433-.013,1.32,1.32,0,0,1-1.166-1.385,1.286,1.286,0,0,1,1.3-1.2c.9-.015,1.793,0,2.69-.006Z" transform="translate(-567.185 -483.417)" fill="#fff"/>
      </g>
    </g>
  </g>
</svg>
