<svg xmlns="http://www.w3.org/2000/svg" width="113" height="113" viewBox="0 0 113 113">
  <g id="Group_58266" data-name="Group 58266" transform="translate(-301 -2321)">
    <circle id="Ellipse_727" data-name="Ellipse 727" cx="56.5" cy="56.5" r="56.5" transform="translate(301 2321)" fill="#06b2ff"/>
    <g id="Group_58286" data-name="Group 58286" transform="translate(-154.425 2163.691)">
      <g id="Group_58285" data-name="Group 58285" transform="translate(491.103 195.722)">
        <path id="Path_47640" data-name="Path 47640" d="M533.388,218.5v34.224a1.44,1.44,0,0,1-1.553.975c-4.039-.015-8.077-.007-12.116-.007h-.475c0-1.118.01-2.187-.007-3.256a.766.766,0,0,1,.294-.659,10.643,10.643,0,0,0,3.794-7.611,10.777,10.777,0,0,0-7.385-10.888,1.224,1.224,0,0,0-1.761,1.266c0,1.507,0,3.015,0,4.522a3.963,3.963,0,0,1-.077,1.642c-.234.463-.85.724-1.279,1.1-.2.177-.339.135-.521-.017-.344-.286-.7-.563-1.06-.822a.658.658,0,0,1-.3-.61q.018-2.953,0-5.907a1.206,1.206,0,0,0-1.627-1.212,10.829,10.829,0,0,0-3.668,18.6.768.768,0,0,1,.231.509c.022.991.012,1.982.009,2.974,0,.116-.017.232-.027.355-.13.007-.223.016-.317.016q-6.2,0-12.4,0a1.26,1.26,0,0,1-1.4-1.416q0-12.71,0-25.42c0-.132.012-.263.02-.435h25.141c.923,0,1.206-.2,1.542-1.074l2.574-6.72a1.358,1.358,0,0,1,1.58-1.093c3.076,0,6.153.011,9.229-.008A1.443,1.443,0,0,1,533.388,218.5Z" transform="translate(-491.744 -217.521)" fill="#fff"/>
        <path id="Path_47642" data-name="Path 47642" d="M619.142,390.924H610.67v-.437c0-1.181-.018-2.362.007-3.543a1.624,1.624,0,0,0-.73-1.445,8.347,8.347,0,0,1,.446-13.734c.123-.08.251-.151.431-.26.009.188.021.328.021.468,0,1.466.011,2.932,0,4.4a1.508,1.508,0,0,0,.655,1.318c.846.633,1.67,1.3,2.506,1.944a1.258,1.258,0,0,0,1.8.009c.857-.664,1.705-1.34,2.566-2a1.437,1.437,0,0,0,.591-1.228c-.007-1.466,0-2.932,0-4.4v-.508c.149.076.254.121.35.181a8.355,8.355,0,0,1,.727,13.673,2.018,2.018,0,0,0-.9,1.853C619.181,388.435,619.142,389.657,619.142,390.924Z" transform="translate(-594.082 -354.775)" fill="#fff"/>
        <path id="Path_47643" data-name="Path 47643" d="M491.717,251.942c0-.684-.024-1.308.007-1.929a1.188,1.188,0,0,1,1.152-1.107c.122-.007.244,0,.366,0h24.246c-.294.774-.57,1.5-.848,2.233-.309.807-.31.807-1.182.807h-23.74Z" transform="translate(-491.708 -245.492)" fill="#fff"/>
      </g>
    </g>
  </g>
</svg>
