<svg xmlns="http://www.w3.org/2000/svg" width="59" height="59" viewBox="0 0 59 59">
  <path id="Exclusion_1" data-name="Exclusion 1" d="M-10205.5-2276a29.32,29.32,0,0,1-11.482-2.318,29.422,29.422,0,0,1-9.378-6.322,29.4,29.4,0,0,1-6.321-9.377A29.325,29.325,0,0,1-10235-2305.5a29.326,29.326,0,0,1,2.318-11.483,29.408,29.408,0,0,1,6.321-9.377,29.421,29.421,0,0,1,9.378-6.322A29.316,29.316,0,0,1-10205.5-2335a29.314,29.314,0,0,1,11.483,2.318,29.408,29.408,0,0,1,9.378,6.322,29.427,29.427,0,0,1,6.321,9.377A29.342,29.342,0,0,1-10176-2305.5a29.341,29.341,0,0,1-2.317,11.483,29.413,29.413,0,0,1-6.321,9.377,29.409,29.409,0,0,1-9.378,6.322A29.318,29.318,0,0,1-10205.5-2276Zm-10.5-22.216v.974h4.912c.076-.021.154-.041.229-.06l.021-.005a4.275,4.275,0,0,0,.54-.163,1.467,1.467,0,0,0,1.036-1.526c-.014-1.073-.011-2.166-.008-3.224v-.151q0-.73,0-1.46v-.239h-1.438v3.829h-3.2a.963.963,0,0,1-.146-.021h0l-.038-.008a.568.568,0,0,1-.527-.663v-3.113h-1.421q0,.442,0,.881v.259c0,.656,0,1.335-.008,2a1.2,1.2,0,0,0,.545,1.073,2.788,2.788,0,0,0,1.6.482c.4,0,.82.007,1.3.007l.762,0h1.135v.45a.519.519,0,0,1-.405.587,1.946,1.946,0,0,1-.561.092c-.842,0-1.69.005-2.482.005H-10216Zm19.47-1.112a1.018,1.018,0,0,1,.9.421,1.522,1.522,0,0,0,1.262.656,1.958,1.958,0,0,0,.312-.027,1.691,1.691,0,0,1,.254-.016c.063,0,.125,0,.191,0h.028c.083,0,.172.006.268.006-.567-.533-.985-.929-1.4-1.322a1.271,1.271,0,0,0,.852-1.314c0-1.189,0-2.394,0-3.583a1.313,1.313,0,0,0-.808-1.3,3.582,3.582,0,0,0-1.219-.308c-.5-.022-1.01-.034-1.514-.034s-1.013.011-1.513.034a3.636,3.636,0,0,0-1.218.308,1.237,1.237,0,0,0-.792,1.17c-.014,1.153-.014,2.4,0,3.823a1.279,1.279,0,0,0,.571,1.068,2.2,2.2,0,0,0,1.186.43c.478.019.875.028,1.253.028.439,0,.838-.012,1.219-.037C-10196.642-2299.325-10196.588-2299.327-10196.534-2299.327Zm-29.135-5.693c.256.486.477.99.688,1.476l.01.02.036.086q.212.491.423.984c.338.789.721,1.683,1.1,2.537a1.427,1.427,0,0,0,1.312.728,1.251,1.251,0,0,0,.887-.321,1.769,1.769,0,0,0,.254-.348,2.058,2.058,0,0,0,.13-.272l0-.006c0-.012.01-.023.015-.035a.384.384,0,0,1,.018-.042q.951-2.209,1.9-4.417l.092-.212.039-.085.006-.009c.011-.024.021-.048.033-.072l.013-.03.027.008.025.007v5.707h1.416v-5.575c0-.931-.188-1.17-1.063-1.349a2.238,2.238,0,0,0-.446-.049,1.429,1.429,0,0,0-1.362,1.015l-.168.395c-.231.541-.465,1.082-.7,1.623q-.564,1.318-1.13,2.636c-.014.033-.031.067-.047.1s-.038.077-.059.125c-.061-.14-.12-.285-.182-.432l-.227-.55-.262-.627-.124-.3c-.415-1-.846-2.029-1.265-3.043a1.336,1.336,0,0,0-.988-.9,1.919,1.919,0,0,0-.382-.039,2.479,2.479,0,0,0-1,.233.727.727,0,0,0-.43.584,2.641,2.641,0,0,0-.034.413v5.744h1.428v-5.708Zm40.721,3.612a1.06,1.06,0,0,0-1.041,1.093,1.046,1.046,0,0,0,1.036,1.1,1.024,1.024,0,0,0,.737-.3,1.114,1.114,0,0,0,.313-.8,1.054,1.054,0,0,0-1.037-1.086Zm-8.022-4.73v.191q0,.817,0,1.635v.807c0,.815,0,1.644,0,2.462a1.461,1.461,0,0,0,.919,1.436,4,4,0,0,0,1.678.305c.457,0,.921,0,1.369,0,.7,0,1.418,0,2.124,0,.063,0,.127,0,.2-.009h.012v-.971h-3.31c-.271,0-.55,0-.825-.03-.554-.052-.74-.267-.74-.852v-4.974Zm-15.187,5.856v.962l.008,0,.019.007a.062.062,0,0,0,.023.008h2.032c.687,0,1.5,0,2.289-.015a2.434,2.434,0,0,0,1.365-.469,1.2,1.2,0,0,0,.57-1.083c-.009-.248-.017-.575,0-.9a.918.918,0,0,0-.433-.872,2.8,2.8,0,0,0-.934-.433,9.276,9.276,0,0,0-1.252-.1c-.13,0-.26-.01-.389-.016-.183-.008-.374-.008-.529-.009h-.013c-.231,0-.472,0-.705-.02a.612.612,0,0,1-.624-.621,7.609,7.609,0,0,1,0-.79.423.423,0,0,1,.343-.442,3.822,3.822,0,0,1,.648-.077c.408,0,.828,0,1.322,0h2.605v-.979l-.032,0a.684.684,0,0,0-.1-.01h-.954c-1.062,0-2.159,0-3.237.025a3.556,3.556,0,0,0-1.11.226,1.329,1.329,0,0,0-.922,1.394c0,.066,0,.132,0,.2,0,.129,0,.262,0,.4a1.222,1.222,0,0,0,.729,1.245,3.187,3.187,0,0,0,1.446.368c.14,0,.284,0,.44,0l.3,0h.3c.218,0,.409,0,.583.009a2.624,2.624,0,0,1,.705.122.5.5,0,0,1,.366.547c-.007.139,0,.285,0,.41,0,.069,0,.138,0,.207a.591.591,0,0,1-.465.641,2.454,2.454,0,0,1-.584.08c-.507,0-1.045,0-1.746,0h-2.073Zm22.279-7.511a5.094,5.094,0,0,0-1.907.4c-.094.039-.145.08-.161.133a.211.211,0,0,0,.042.177,2.216,2.216,0,0,1,.1.2l.006.011a2.032,2.032,0,0,0,.162.284,3.883,3.883,0,0,0,1.537,1.207,6.666,6.666,0,0,1,1.789,1.19.39.39,0,0,0,.086.059.3.3,0,0,1,.04.023l.055-.06c-.213-.265-.4-.494-.582-.728a5.373,5.373,0,0,0-1.4-1.262,7.451,7.451,0,0,1-.681-.482.857.857,0,0,1-.175-.2l0,0c-.029-.042-.062-.089-.1-.138l.7-.148.186-.039.394-.083.482-.1.488-.1c.069-.015.108-.04.121-.073s0-.072-.042-.121-.08-.106-.118-.159l-.015-.021a2.549,2.549,0,0,0-.312-.376,9.61,9.61,0,0,0-3.087-2.074.837.837,0,0,1-.51-.482c-.113-.248-.229-.495-.343-.742l-.056-.121c-.191-.411-.408-.877-.613-1.336-.092-.205-.178-.419-.261-.625l0-.01a9.839,9.839,0,0,0-.5-1.1,10.917,10.917,0,0,0-3.843-3.973,4.24,4.24,0,0,0-2.2-.686,1.009,1.009,0,0,1-.651-.256,3.618,3.618,0,0,0-1.892-.867,1.169,1.169,0,0,0-.137-.009.883.883,0,0,0-.678.293.934.934,0,0,0-.211.752,2.252,2.252,0,0,0,.32.8c.109.181.238.354.363.522l.018.022c.117.156.223.3.319.447a3.084,3.084,0,0,1,.331.656c.072.2.136.4.2.6l0,.008c.06.2.119.387.187.574a4.494,4.494,0,0,0,.893,1.655.289.289,0,0,1,.05.216c-.038.152-.081.306-.122.454l-.01.03c-.054.188-.095.342-.132.485a5.1,5.1,0,0,0,.17,3.23,3.028,3.028,0,0,0,.622.947.677.677,0,0,0,.478.222.682.682,0,0,0,.623-.607c.015-.062.023-.126.032-.188l0-.01c0-.034.01-.07.016-.1.036-.236.074-.472.118-.75l.02-.12,0-.022c.029.056.052.1.073.139l0,0c.023.045.044.084.063.125a4.477,4.477,0,0,0,.909,1.441c.323.316.651.625.986.939l.355.335a.5.5,0,0,0,.1.067l.007,0,.048.03a13.052,13.052,0,0,1-2.539-4.4,2.865,2.865,0,0,0-.809,2.06c-.014.133-.029.274-.049.412-.258-.05-.383-.165-.517-.472a4.878,4.878,0,0,1-.158-3.508l.006-.017.015-.048c.06-.191.121-.389.183-.581a.693.693,0,0,0-.171-.681,4.957,4.957,0,0,1-.557-.847,4.232,4.232,0,0,1-.329-.9,6.116,6.116,0,0,0-1.249-2.464,2.762,2.762,0,0,1-.3-.5l-.007-.012,0-.01a.437.437,0,0,1,.016-.517.324.324,0,0,1,.258-.114.68.68,0,0,1,.216.042,4.528,4.528,0,0,1,1.6.86.716.716,0,0,0,.489.213,4.3,4.3,0,0,1,2.182.591,9.743,9.743,0,0,1,2.554,2.146,9.644,9.644,0,0,1,1.546,2.53c.283.693.595,1.385.9,2.055l0,.009c.155.344.295.655.434.969a1.368,1.368,0,0,0,.959.808,4.772,4.772,0,0,1,1.722.817c.176.139.363.268.545.393l.009.006c.133.091.271.186.4.284a2.419,2.419,0,0,1,.25.219l.105.1-.008.014c-.01.018-.02.036-.03.053h-.065c-.112,0-.22,0-.333,0Zm-10.8-9.881a.636.636,0,0,0-.262.063l.6.984a.513.513,0,0,0,.172-.654A.583.583,0,0,0-10196.676-2317.674Zm11.732,18.23h-.029a.8.8,0,0,1-.562-.264.869.869,0,0,1-.226-.641.831.831,0,0,1,.807-.83.131.131,0,0,1,.032,0,.836.836,0,0,1,.792.879A.841.841,0,0,1-10184.943-2299.444Zm-.171-.816h0c.015.01.028.019.044.028l.016.011a.555.555,0,0,1,.144.112,1.144,1.144,0,0,1,.086.141.759.759,0,0,0,.095.152.52.52,0,0,0,.153.1c.027.014.055.027.08.042,0-.006.006-.012.01-.018l0-.007a.306.306,0,0,1,.021-.04c-.05-.08-.1-.161-.145-.239s-.089-.14-.133-.212l-.014-.022c.273-.145.346-.259.291-.472-.062-.232-.243-.251-.437-.251-.147,0-.294,0-.464,0,0,.047,0,.094,0,.141s0,.094,0,.14c0,.279,0,.553.007.83,0,.033.037.066.073.1a.551.551,0,0,1,.051.05l0,0,.013-.008c.016-.012.031-.023.049-.034v-.492l.012-.012.008-.007.03-.028Zm-12.026.02h0c-.178-.009-.358-.014-.519-.018a10.389,10.389,0,0,1-1.132-.072c-.395-.054-.613-.345-.613-.82,0-1.056,0-2.126,0-3.182a.649.649,0,0,1,.465-.7,1.918,1.918,0,0,1,.578-.11c.339,0,.674-.008.994-.008s.648,0,.966,0h.156a1.95,1.95,0,0,1,.4.042.736.736,0,0,1,.649.827v.868c0,.757,0,1.54,0,2.317a.729.729,0,0,1-.375.686l-.26-.246,0-.005c-.218-.206-.423-.4-.638-.593a.492.492,0,0,0-.3-.122c-.28-.008-.562-.009-.8-.009h-.682c.227.215.439.418.646.617l.477.454a.135.135,0,0,1,0,.02l0,.01a.246.246,0,0,0-.006.036Zm11.984-.114h0v-.438l.129.033.013,0a3.032,3.032,0,0,1,.318.091c.007,0,.013.021.016.052a.213.213,0,0,1-.007.1c-.1.041-.2.073-.317.11l-.013,0-.095.03-.043.014Z" transform="translate(10235 2335)" fill="#fff"/>
</svg>
