<svg xmlns="http://www.w3.org/2000/svg" xmlns:xlink="http://www.w3.org/1999/xlink" width="150" height="150" viewBox="0 0 150 150">
  <defs>
    <linearGradient id="linear-gradient" x1="0.5" x2="0.5" y2="1" gradientUnits="objectBoundingBox">
      <stop offset="0" stop-color="#98e4ff"/>
      <stop offset="1" stop-color="#f1f8fd"/>
    </linearGradient>
  </defs>
  <g id="Group_58175" data-name="Group 58175" transform="translate(-325 -1899)">
    <circle id="Ellipse_727" data-name="Ellipse 727" cx="75" cy="75" r="75" transform="translate(325 1899)" fill="url(#linear-gradient)"/>
    <g id="Group_58314" data-name="Group 58314" transform="translate(-121.055 1751.96)">
      <g id="Group_58313" data-name="Group 58313" transform="translate(491.146 192)">
        <path id="Path_47733" data-name="Path 47733" d="M629.547,199.979c-.113,1.162-.215,2.326-.342,3.487a40.689,40.689,0,0,1-10.815,24.082,48.714,48.714,0,0,1-12.665,9.917l-.266.139-21.437-21.484c.418-.735.862-1.576,1.36-2.383a47.54,47.54,0,0,1,16.273-16.207,38.13,38.13,0,0,1,13.146-4.685c2.09-.361,4.216-.509,6.326-.756.154-.018.3-.058.456-.087h4.685c.17.033.339.078.511.1a3.062,3.062,0,0,1,2.617,2.333c.065.281.1.569.151.854Zm-27.659,10.956a8.781,8.781,0,1,0,8.759-8.814A8.742,8.742,0,0,0,601.888,210.935Z" transform="translate(-569.585 -192)" fill="#40bdff"/>
        <path id="Path_47734" data-name="Path 47734" d="M664.706,493.642a3.272,3.272,0,0,1-2.5-2.441c-.326-1.645-.546-3.31-.822-5.037a40.388,40.388,0,0,0,8.991-2.916,47.71,47.71,0,0,0,8.231-4.881c-.067.85-.123,1.561-.179,2.272-.078.993-.148,1.987-.235,2.979a4.459,4.459,0,0,1-2.036,3.459q-4.52,3.029-9.073,6.008a8.737,8.737,0,0,1-1.2.557Z" transform="translate(-634.842 -433.563)" fill="#40bdff"/>
        <path id="Path_47735" data-name="Path 47735" d="M493.035,497.552c-.094-.059-.185-.125-.283-.177a1.747,1.747,0,0,1-.5-2.811c.394-.432.822-.833,1.236-1.248q4.838-4.848,9.678-9.693a1.759,1.759,0,0,1,3.057.681,1.889,1.889,0,0,1-.646,1.892q-4.145,4.134-8.273,8.283c-.634.635-1.253,1.287-1.908,1.9-.448.419-.947.783-1.423,1.172Z" transform="translate(-491.747 -437.473)" fill="#40bdff"/>
        <path id="Path_47736" data-name="Path 47736" d="M560.611,525.85c-.106-.044-.21-.091-.317-.131a1.734,1.734,0,0,1-.708-2.864c1.906-1.96,3.845-3.889,5.792-5.809a1.734,1.734,0,0,1,2.434,0,1.705,1.705,0,0,1,.064,2.43q-2.883,2.958-5.836,5.846a3.971,3.971,0,0,1-.96.524Z" transform="translate(-548.549 -465.771)" fill="#40bdff"/>
        <path id="Path_47738" data-name="Path 47738" d="M582.134,389.363c-1.731.5-3.537,1.022-5.343,1.543-.112.032-.231.043-.342.078a4.245,4.245,0,0,1-4.77-1.357c-3.2-3.368-6.531-6.615-9.832-9.889a3.368,3.368,0,0,1-1.08-3.386c.284-1.176.518-2.365.845-3.528.294-1.05.683-2.073,1-3.02Z" transform="translate(-549.879 -341.985)" fill="#40bdff"/>
        <path id="Path_47739" data-name="Path 47739" d="M507,295.712a43.213,43.213,0,0,0-7.769,17.24c-1.2-.181-2.368-.356-3.536-.534-.385-.059-.769-.127-1.154-.187a3.193,3.193,0,0,1-2.236-4.958c1.558-2.433,3.174-4.829,4.765-7.241.4-.6.789-1.21,1.2-1.807a4.568,4.568,0,0,1,3.545-2.1C503.5,295.987,505.184,295.856,507,295.712Z" transform="translate(-491.76 -279.486)" fill="#40bdff"/>
        <path id="Path_47740" data-name="Path 47740" d="M501.224,451.213a3.806,3.806,0,0,1-.575,1.025c-1.861,1.916-3.754,3.8-5.652,5.68a1.753,1.753,0,1,1-2.457-2.5q2.816-2.85,5.66-5.673a1.7,1.7,0,0,1,1.987-.384A1.859,1.859,0,0,1,501.224,451.213Z" transform="translate(-491.938 -408.954)" fill="#40bdff"/>
        <path id="Path_47742" data-name="Path 47742" d="M720.686,284.433a5.266,5.266,0,1,1,5.193,5.3A5.27,5.27,0,0,1,720.686,284.433Z" transform="translate(-684.867 -265.546)" fill="#40bdff"/>
      </g>
    </g>
  </g>
</svg>
