<svg xmlns="http://www.w3.org/2000/svg" width="37.326" height="37.326" viewBox="0 0 37.326 37.326">
  <g id="start-up" transform="translate(-0.001 -0.001)">
    <path id="Path_51316" data-name="Path 51316" d="M73.265,285.149a1.1,1.1,0,0,0,.2,1.264l.267.267c.773-.916,1.673-1.909,2.765-3,.077-.077.157-.115.234-.186l-1.72-1.721C74.015,283.582,73.432,284.818,73.265,285.149Zm0,0" transform="translate(-67.816 -261.23)" fill="#fff"/>
    <path id="Path_51317" data-name="Path 51317" d="M165.887,389.8c-1.095,1.095-2.086,2-3,2.77l.362.362a1.093,1.093,0,0,0,1.273.2c.566-.292,1.457-.711,3.348-1.764l-1.8-1.8C166,389.64,165.964,389.719,165.887,389.8Zm0,0" transform="translate(-151.015 -361.161)" fill="#fff"/>
    <path id="Path_51318" data-name="Path 51318" d="M69.532,311.639c-.79-.79-3.013-.082-4.057.962a29.081,29.081,0,0,0-5.778,7.431,1.094,1.094,0,0,0,1.462,1.46,29.294,29.294,0,0,0,7.409-5.8c1.148-1.148,1.714-3.3.964-4.054Zm0,0" transform="translate(-55.243 -288.606)" fill="#fff"/>
    <path id="Path_51319" data-name="Path 51319" d="M3.414,166.4.321,169.5a1.094,1.094,0,0,0,1.056,1.83,8.986,8.986,0,0,1,4.133-.384,58.679,58.679,0,0,1,4.527-6.906C9.109,163.441,6.044,163.772,3.414,166.4Zm0,0" transform="translate(0 -151.842)" fill="#fff"/>
    <path id="Path_51320" data-name="Path 51320" d="M246.242,386.254a1.091,1.091,0,0,0,1.265-.2l3.093-3.093c2.395-2.4,2.816-5.486,2.273-6.466a62.415,62.415,0,0,1-6.911,4.492,13.4,13.4,0,0,1-.309,4.133A1.091,1.091,0,0,0,246.242,386.254Zm0,0" transform="translate(-227.731 -349.044)" fill="#fff"/>
    <path id="Path_51321" data-name="Path 51321" d="M285.6,138.268a3.281,3.281,0,1,0,4.639,0A3.284,3.284,0,0,0,285.6,138.268Zm0,0" transform="translate(-263.892 -127.297)" fill="#fff"/>
    <path id="Path_51322" data-name="Path 51322" d="M396.765,1.068A1.092,1.092,0,0,0,395.756.059a21.618,21.618,0,0,0-7.983.93,9.181,9.181,0,0,0,2.72,5.342,9.152,9.152,0,0,0,5.446,2.715,22.614,22.614,0,0,0,.826-7.978Zm0,0" transform="translate(-359.503 0)" fill="#fff"/>
    <path id="Path_51323" data-name="Path 51323" d="M135.447,30.123A11.488,11.488,0,0,1,132.16,24c-6.567,2.693-12.853,8.574-17.82,16.836l2.468,2.468c1.686-.685,3.733-.865,5.031.433s1.116,3.346.431,5.03l2.549,2.549c6.357-3.831,13.757-9.867,16.9-17.9A11.433,11.433,0,0,1,135.447,30.123ZM133.9,39.4a5.468,5.468,0,1,1,0-7.732A5.474,5.474,0,0,1,133.9,39.4Zm0,0" transform="translate(-106.004 -22.246)" fill="#fff"/>
  </g>
</svg>
