<svg xmlns="http://www.w3.org/2000/svg" xmlns:xlink="http://www.w3.org/1999/xlink" width="232" height="232" viewBox="0 0 232 232">
  <defs>
    <linearGradient id="linear-gradient" x1="0.322" y1="1.369" x2="0.076" y2="0.195" gradientUnits="objectBoundingBox">
      <stop offset="0" stop-color="#0275f9"/>
      <stop offset="1" stop-color="#07affd"/>
    </linearGradient>
    <clipPath id="clip-Stay_in_control_of_your_budget">
      <rect width="232" height="232"/>
    </clipPath>
  </defs>
  <g id="Stay_in_control_of_your_budget" data-name="Stay in control of your budget" clip-path="url(#clip-Stay_in_control_of_your_budget)">
    <rect width="232" height="232" fill="#fff"/>
    <g id="Group_7" data-name="Group 7" transform="translate(5.638 -1)">
      <g id="Group_6" data-name="Group 6" transform="translate(435.464 93.88)">
        <path id="Path_29" data-name="Path 29" d="M-339.854-34.358q-5.539-13.812-11.08-27.623c-1.918-4.773-3.858-9.536-5.835-14.421a70.8,70.8,0,0,1,17.175-8.668,111.394,111.394,0,0,1,30.58-6.442,8.388,8.388,0,0,0,1.483-.367h14.38c4.423.6,8.874,1.039,13.264,1.82,12.3,2.191,24.047,5.957,34.685,12.713.373.237.733.5,1.3.881-1.224,3.035-2.437,6.06-3.663,9.08q-6.318,15.562-12.638,31.124c-.25.618-.419,1.269-.626,1.9l.061-.052c-4.835,1.21-9.626,2.646-14.513,3.588A133.773,133.773,0,0,1-316.988-29.6c-7.723-.944-15.291-3.163-22.928-4.807Z" transform="translate(-24.512)" fill="url(#linear-gradient)"/>
        <path id="Path_30" data-name="Path 30" d="M-275.875,24.129c22.985,27.405,36.351,59.187,42.56,94.148,1.931,10.875,2.521,21.886.457,32.844-3.306,17.553-14.177,27.768-31.415,31.12a117.814,117.814,0,0,1-20.945,2.165c-18.04.219-36.086-.086-54.13-.173-11.076-.053-22.172.285-33.222-.274a79.172,79.172,0,0,1-18.7-3.319c-14.869-4.491-23.076-15.115-25.681-30.191-2.281-13.195-.9-26.294,1.836-39.243,6-28.375,17.018-54.607,34.145-78.135,2.243-3.081,4.755-5.966,7.142-8.942l-.038.025c9.78,2.015,19.492,4.491,29.354,5.937a139.108,139.108,0,0,0,42.875-.439c8.668-1.425,17.206-3.639,25.8-5.5Zm-56.189,29.6c0,2.786-.058,5.322.025,7.853a2.045,2.045,0,0,1-1.491,2.322c-6.759,2.813-10.9,8.007-12.79,14.953-2.31,8.476.529,15.834,7.868,20.638a46.36,46.36,0,0,0,6.684,3.644c3.758,1.655,7.621,3.07,11.438,4.591,4.6,1.832,6.638,5.305,5.8,9.865-.776,4.233-4.341,8.149-8.607,8.752-4.791.676-9.575.468-13.86-2.314-2.315-1.5-4.645-2.984-7.175-4.607l-7.5,11.471c3.212,1.976,6.143,4.081,9.335,5.655,3.231,1.593,6.721,2.659,10.383,4.065v8.763h13.487V139.4c.616-.255,1.093-.468,1.58-.651a24.4,24.4,0,0,0,16.1-22.931c.049-9.937-5.574-17.357-15.858-21.3-4.524-1.734-8.958-3.733-13.334-5.819-3.906-1.862-4.277-4.357-2.393-8.4,1.311-2.814,3.782-4.169,6.795-4.5a21.779,21.779,0,0,1,12.76,2.672c2.083,1.1,4.163,2.2,6.353,3.36l6.415-11.916c-5.361-3.062-10.539-6.047-16.529-7.126-1.44-.259-2.025-.81-1.936-2.332.13-2.209.034-4.431.034-6.724Z" transform="translate(0 -46.363)" fill="url(#linear-gradient)"/>
        <path id="Path_31" data-name="Path 31" d="M-360.076,14l-23.608-2.41V-1.074c4.31,0,8.654-.351,12.918.08,6.747.682,13.44,1.888,20.156,2.873l-.063-.053a7.486,7.486,0,0,1-.741,1.525c-2.88,3.574-5.8,7.12-8.7,10.675Z" transform="translate(-13.756 -36.237)" fill="url(#linear-gradient)"/>
        <path id="Path_32" data-name="Path 32" d="M-196.958,1.525c5.005-.822,9.986-1.871,15.021-2.407,5.93-.632,11.906-.819,18.064-1.213V11.25l-23.619,2.4.036.022c-2.577-3.15-5.176-6.283-7.716-9.462A27.737,27.737,0,0,1-196.9,1.473Z" transform="translate(-88.382 -35.883)" fill="url(#linear-gradient)"/>
      </g>
    </g>
  </g>
</svg>
