<svg xmlns="http://www.w3.org/2000/svg" xmlns:xlink="http://www.w3.org/1999/xlink" width="174.022" height="343.565" viewBox="0 0 174.022 343.565">
  <defs>
    <clipPath id="clip-path">
      <rect id="Rectangle_28137" data-name="Rectangle 28137" width="17.815" height="5.515" fill="none"/>
    </clipPath>
    <clipPath id="clip-path-2">
      <rect id="Rectangle_28138" data-name="Rectangle 28138" width="4.141" height="5.216" fill="none"/>
    </clipPath>
    <clipPath id="clip-path-3">
      <rect id="Rectangle_28142" data-name="Rectangle 28142" width="37.012" height="32.34" fill="none"/>
    </clipPath>
  </defs>
  <g id="Group_71164" data-name="Group 71164" transform="translate(-784.744 -16183.544)">
    <g id="Group_71158" data-name="Group 71158" transform="translate(9117.086 8221.212)">
      <path id="Path_52127" data-name="Path 52127" d="M951.995,1232.73l.109-9.774-14.159,1-.408,8.077a49.157,49.157,0,0,0,14.457.7" transform="translate(-9166.809 7059.908)" fill="#f9b384"/>
      <path id="Path_52128" data-name="Path 52128" d="M965.337,1271.548c-3.839-6.287-9.088-8.385-15.355-9.18l.029-4.079a49.169,49.169,0,0,1-14.457-.7l-.7,13.954Z" transform="translate(-9164.824 7034.349)" fill="#102048"/>
      <path id="Path_52129" data-name="Path 52129" d="M672.979,1263.882l-1.295,2.96c-6.267.795-11.876,4.169-17.024,9.346h29.708l3.16-12.27a41.845,41.845,0,0,1-14.55-.036" transform="translate(-8958.072 7029.709)" fill="#102048"/>
      <path id="Path_52130" data-name="Path 52130" d="M739.1,1234.658l2.514-9.761-12.518-.667-4.547,10.393a41.843,41.843,0,0,0,14.551.036" transform="translate(-9009.646 7058.969)" fill="#f9b384"/>
      <path id="Path_52131" data-name="Path 52131" d="M799.6,643.453c7.455,48.513,5.341,96.8-5.007,145.538h-17.8c2.126-31.632,3.75-69.233-1.223-94.133L741.6,789.409H722.16L754.205,654.8l11.016-21.586,25.814-3.116Z" transform="translate(-9007.88 7497.377)" fill="#102048"/>
      <path id="Path_52132" data-name="Path 52132" d="M1108.057,245.823l4.785-14.354,12.952,3.025c.975,4.806-4.844,12.1-9.169,17.559Z" transform="translate(-9292.635 7791.529)" fill="#f9b384"/>
      <path id="Path_52133" data-name="Path 52133" d="M894.77,420.241l-14.914.174-1.482-19.534-.174-2.337,14.981-.134.534,7.411Z" transform="translate(-9123.022 7668.342)" fill="#f9b384"/>
      <path id="Path_52134" data-name="Path 52134" d="M893.632,404.475c-4.882,3.484-11.266,1.314-15.258-3.6l-.173-2.337,14.981-.133Z" transform="translate(-9123.022 7668.342)" fill="#102048"/>
      <path id="Path_52135" data-name="Path 52135" d="M868.036,338.862c-7.569,1.73-16.019-3.124-19.353-9.572l-.451-11.574,4.235-6.007,18.022,1.552c-.084.021-.073.273,0,.7.21,1.122.9,3.512,1.541,6.4,1.573,7.014,2.831,16.942-3.994,18.5" transform="translate(-9100.91 7732.32)" fill="#f9b384"/>
      <path id="Path_52136" data-name="Path 52136" d="M866.017,442.846s11.127,8.9,20.807-3.783l18.359,60.975c-11.241,7.942-25.452,10.685-42.5,8.456Z" transform="translate(-9111.57 7638.344)" fill="#fff"/>
      <g id="Group_71155" data-name="Group 71155" transform="translate(-8243.166 8085.439)" opacity="0.3">
        <g id="Group_71131" data-name="Group 71131">
          <g id="Group_71130" data-name="Group 71130" clip-path="url(#clip-path)">
            <path id="Path_52099" data-name="Path 52099" d="M884.517,473.024a20.28,20.28,0,0,0,4.688,1.066,15.57,15.57,0,0,0,4.685-.188,15.077,15.077,0,0,0,4.418-1.544,20.083,20.083,0,0,0,2.055-1.217c.682-.429,1.277-.976,1.969-1.434a23.767,23.767,0,0,1-1.626,1.859,13.4,13.4,0,0,1-1.96,1.543A12.417,12.417,0,0,1,894.095,475a12.825,12.825,0,0,1-9.577-1.973" transform="translate(-884.517 -469.707)" fill="#1f3c88"/>
          </g>
        </g>
      </g>
      <path id="Path_52137" data-name="Path 52137" d="M982.1,276.044c-10.067,17-19.885,31.937-28.76,39.055a6.886,6.886,0,0,1-4.683,1.442,37.308,37.308,0,0,0-10.619,1.145c.8,30.5,3.7,58.757,14.075,76.079,6.25-1.8,13.833-4.7,18.025-8.234-3.415-11.591-7.454-28.208-10.459-42.727l33.269-59.417Z" transform="translate(-9167.174 7758.637)" fill="#1f3c88"/>
      <path id="Path_52138" data-name="Path 52138" d="M879.97,326.7c-11.455,6.521-20.978-5.361-20.978-5.361l19.437-1.035c.21,1.122.9,3.512,1.541,6.4" transform="translate(-9108.849 7725.974)" fill="#e28b6d"/>
      <path id="Path_52139" data-name="Path 52139" d="M832.413,303.69c1.4-1.817,2.046-4.868.779-11.015,4.173,4.72,10.377,5.823,19.472,1.78,0,0,5.916-2.315,4.562-8.345-1.224-5.452-5.786-8.345-9.346-3.895-8.079-2.358-16.023-2.782-19.583,4.562,0,0-11.349,5.9-1.669,15.466Z" transform="translate(-9082.083 7755.692)" fill="#102048"/>
      <path id="Path_52140" data-name="Path 52140" d="M748.3,807.9l-1.954-.435,2.039-9.139-13.484-3.279-1.787,8.34-1.958-.42,2.218-10.353,17.393,4.231Z" transform="translate(-9014.521 7377.455)" fill="#1f3c88"/>
      <path id="Path_52141" data-name="Path 52141" d="M753.335,741.017c-.334.465-1.557,9.875-1.557,9.875S746.325,756,750,759.141s8.123,3.02,10.237.7a13.752,13.752,0,0,0-.111-8.133l2.114-10.456Z" transform="translate(-9027.483 7415.531)" fill="#f9b384"/>
      <path id="Path_52142" data-name="Path 52142" d="M715.291,820.654l-5.381,22.792-2.07,8.8L672.9,839.12l4.607-19.214,2.19-9.16Z" transform="translate(-8971.529 7364.078)" fill="#acbfee"/>
      <path id="Path_52143" data-name="Path 52143" d="M1153.665,259.784l-18.554,11.248-.831-6.522,13.987-8.479Z" transform="translate(-9311.984 7773.405)" fill="#6f3428"/>
      <path id="Path_52144" data-name="Path 52144" d="M1124.848,217.609l-4.757,2.884L1108.8,204.439l7.041-4.268Z" transform="translate(-9293.181 7814.624)" fill="#bb9132"/>
      <path id="Path_52145" data-name="Path 52145" d="M1054.918,120.619l-8.937,5.418a4.717,4.717,0,0,1-6.08-1.028l-14.954-18.084L1047.7,93.13l9.117,21.623a4.717,4.717,0,0,1-1.9,5.866" transform="translate(-9231.307 7893.609)" fill="#fbc343"/>
      <path id="Path_52146" data-name="Path 52146" d="M1115.53,102.19l-1.232-.513c3.434-8.267,2.835-14.984.313-16.465-1.314-.77-3.13.139-4.988,2.493l-1.049-.827c3.29-4.168,5.79-3.359,6.713-2.817,3.072,1.8,4,9.078.244,18.129" transform="translate(-9293.016 7900.63)" fill="#fbc343"/>
      <path id="Path_52147" data-name="Path 52147" d="M1022.241,158.421c-9.764-.853-15.782-5.043-15.96-8.6-.053-1.068.385-3.66,5.6-4.647l.248,1.312c-2.946.558-4.593,1.75-4.517,3.269.146,2.922,5.824,6.559,14.742,7.338Z" transform="translate(-9217.531 7855.208)" fill="#fbc343"/>
      <g id="Group_71156" data-name="Group 71156" transform="translate(-8187.563 7994.972)" opacity="0.6">
        <g id="Group_71134" data-name="Group 71134">
          <g id="Group_71133" data-name="Group 71133" clip-path="url(#clip-path-2)">
            <path id="Path_52111" data-name="Path 52111" d="M1097.229,128.014c-.784-1.357-.744-2.847.089-3.328s2.144.23,2.928,1.587.743,2.847-.089,3.328-2.144-.23-2.927-1.587" transform="translate(-1096.667 -124.537)" fill="#fff"/>
          </g>
        </g>
      </g>
      <path id="Path_52148" data-name="Path 52148" d="M1148.852,223.217c.324,2.314-1.137,4.379-4.222,4.379-1.927,0-4.628-2.644-5.2-5.784-.469-2.589.526-4.287,2.354-5.04,1.876-.773,6.451,2.081,7.064,6.445" transform="translate(-9315.703 7802.468)" fill="#f9b384"/>
      <rect id="Rectangle_28151" data-name="Rectangle 28151" width="2.097" height="17.033" transform="matrix(0.301, -0.954, 0.954, 0.301, -8226.508, 7985.61)" fill="#fbc343"/>
      <rect id="Rectangle_28152" data-name="Rectangle 28152" width="17.032" height="2.096" transform="translate(-8194.063 7979.104) rotate(-79.983)" fill="#fbc343"/>
      <rect id="Rectangle_28153" data-name="Rectangle 28153" width="2.096" height="17.032" transform="translate(-8213.307 7967.878) rotate(-32.625)" fill="#fbc343"/>
      <path id="Path_52149" data-name="Path 52149" d="M773.248,484.894l-2.671,40.279c14.91-.668,24.924-5.563,24.924-5.563,1.294-24.041-1.792-50.941-11.307-75.134-24.167,8.981-30.983,38.737-34.569,82.955l14.157,1.642Z" transform="translate(-9028.146 7634.352)" fill="#1f3c88"/>
      <path id="Path_52150" data-name="Path 52150" d="M838.878,366.411c-4.546,1.622-7.453,1.255-7.694-3.091a3.432,3.432,0,0,1,4.695-3.427,7.689,7.689,0,0,1,2.777,2.512Z" transform="translate(-9088.325 7696.977)" fill="#f9b384"/>
      <g id="Group_71157" data-name="Group 71157" transform="translate(-8298.632 8183.985)" opacity="0.15">
        <g id="Group_71137" data-name="Group 71137">
          <g id="Group_71136" data-name="Group 71136" clip-path="url(#clip-path-3)">
            <path id="Path_52115" data-name="Path 52115" d="M709.91,869.234l-2.07,8.8L672.9,864.908l4.606-19.214c4.3,8.893,13.392,19.921,32.406,23.54" transform="translate(-672.898 -845.693)" fill="#102048"/>
          </g>
        </g>
      </g>
      <path id="Path_52151" data-name="Path 52151" d="M1007.619,478.323c.6,1.912,1.125,3.841,1.63,5.774s.978,3.875,1.433,5.819.876,3.9,1.256,5.86.748,3.927,1.021,5.913l-.508.116c-.617-1.908-1.136-3.838-1.649-5.77s-.972-3.876-1.414-5.824-.867-3.9-1.237-5.864-.751-3.926-1.04-5.909Z" transform="translate(-9218.146 7609.375)" fill="#102048"/>
      <path id="Path_52152" data-name="Path 52152" d="M837.67,546.87c.067,1.936.055,3.869.024,5.8-.016,1.932-.1,3.862-.177,5.791s-.2,3.856-.359,5.782-.331,3.85-.6,5.77l-.521-.025c-.084-1.937-.067-3.869-.044-5.8s.1-3.861.2-5.79.209-3.856.379-5.781.328-3.85.581-5.771Z" transform="translate(-9091.864 7558.813)" fill="#102048"/>
      <path id="Path_52153" data-name="Path 52153" d="M913.532,836.436c.6-2.2,1.275-4.382,1.967-6.553s1.443-4.323,2.161-6.486q1.135-3.224,2.327-6.428c.817-2.128,1.64-4.254,2.558-6.347l.493.172c-.585,2.209-1.264,4.386-1.949,6.56q-1.059,3.25-2.179,6.479c-.785,2.14-1.521,4.3-2.346,6.422-.81,2.131-1.637,4.255-2.539,6.354Z" transform="translate(-9149.095 7364.17)" fill="#708cd5"/>
      <path id="Path_52154" data-name="Path 52154" d="M840.98,368.429c-.234-.327-.451-.664-.68-.974a4.88,4.88,0,0,0-.722-.831.8.8,0,0,0-.742-.278c-.276.035-.551.331-.858.578l-.258-.163a1.8,1.8,0,0,1,.889-1.057,1.413,1.413,0,0,1,1.479.339,4.206,4.206,0,0,1,1.178,2.278Z" transform="translate(-9093.153 7692.546)" fill="#102048"/>
      <path id="Path_52155" data-name="Path 52155" d="M1128.863,233.809c.487-1.841.236-3.5-.559-3.714s-2.018.651-2.5,2.492-1.045,4.493.209,5.085c2.223,1.05,2.369-2.022,2.855-3.863" transform="translate(-9305.317 7792.566)" fill="#f9b384"/>
    </g>
    <path id="Path_52169" data-name="Path 52169" d="M66.064,626.535a3.858,3.858,0,0,1-.27,1.414H50.638a.062.062,0,0,1-.032-.032c0,.016-.008.024-.008.032S0,628.275,0,627.862a7.525,7.525,0,0,1,7.3-7.737,6.957,6.957,0,0,1,2.669.532,4.331,4.331,0,0,1,2.8-1.041,4.442,4.442,0,0,1,3.71,2.057c1.1-2.415,3.741-4.281,7.046-4.941a13.046,13.046,0,0,1,2.709-.278,13.294,13.294,0,0,1,1.7.1A12.469,12.469,0,0,1,38.97,609.6a12.777,12.777,0,0,1,12.32,10.723,4.249,4.249,0,0,1,2.359-.707,4.468,4.468,0,0,1,3.988,2.566,7.248,7.248,0,0,1,2.462-.429c3.289,0,5.965,2.145,5.965,4.782" transform="translate(784.744 15694.999)" fill="#dee5f8" opacity="0.23"/>
    <path id="Path_52167" data-name="Path 52167" d="M178.8,26.959c0,.6-74.7.119-74.7.119a.072.072,0,0,1-.008-.04c-.016.016-.032.024-.048.04H81.669A5.762,5.762,0,0,1,81.28,25c0-3.9,3.94-7.054,8.8-7.054a10.745,10.745,0,0,1,3.63.62,6.6,6.6,0,0,1,5.894-3.781,6.325,6.325,0,0,1,3.471,1.041C104.752,6.8,112.267,0,121.266,0a1.53,1.53,0,0,1,.191.008,18.385,18.385,0,0,1,16.1,10.263,19.9,19.9,0,0,1,2.51-.159c6.672,0,12.352,3.217,14.393,7.7a6.563,6.563,0,0,1,5.473-3.034,6.364,6.364,0,0,1,4.146,1.541,10.2,10.2,0,0,1,3.94-.786,10.756,10.756,0,0,1,9.754,6.561,11.867,11.867,0,0,1,1.025,4.861" transform="translate(719.605 16183.544)" fill="#dee5f8" opacity="0.23"/>
  </g>
</svg>
