<svg xmlns="http://www.w3.org/2000/svg" xmlns:xlink="http://www.w3.org/1999/xlink" width="52" height="52" viewBox="0 0 52 52">
  <defs>
    <linearGradient id="linear-gradient" x1="0.5" x2="0.5" y2="1" gradientUnits="objectBoundingBox">
      <stop offset="0" stop-color="#aee4fc"/>
      <stop offset="1" stop-color="#f1f7fc"/>
    </linearGradient>
  </defs>
  <g id="Group_58482" data-name="Group 58482" transform="translate(-880 -227)">
    <circle id="Ellipse_180" data-name="Ellipse 180" cx="26" cy="26" r="26" transform="translate(880 227)" fill="url(#linear-gradient)"/>
    <g id="Group_58291" data-name="Group 58291" transform="translate(402.975 48.225)">
      <g id="Group_58290" data-name="Group 58290" transform="translate(492.614 192)">
        <path id="Path_47663" data-name="Path 47663" d="M508.4,493.483c-.147-.138-.348-.249-.432-.418a.625.625,0,0,1,.583-.878c.352-.011.7-.007,1.057-.011.005,0,.011-.008.028-.022V490.7h-.264c-1.519,0-3.037,0-4.556,0a1.726,1.726,0,0,1-1.8-1.5,5.53,5.53,0,0,1-.005-.769h18.009a1.826,1.826,0,0,1-1.294,2.211,2.44,2.44,0,0,1-.577.059c-1.49,0-2.98,0-4.47,0h-.269v1.482h.878c.484,0,.738.152.825.5.081.319-.065.572-.462.8Z" transform="translate(-502.998 -471.326)" fill="#00a7ff"/>
        <path id="Path_47664" data-name="Path 47664" d="M747.893,192a.692.692,0,0,0,.093.044,1.322,1.322,0,0,1,.666,2.146c-.62.777-1.254,1.543-1.882,2.314l-1.966,2.413c-.04.05-.085.1-.113.129l-2.749-2.754c.1-.085.224-.191.349-.294,1.482-1.213,2.961-2.431,4.451-3.634a4.058,4.058,0,0,1,.674-.364Z" transform="translate(-728.153 -192)" fill="#00a7ff"/>
        <path id="Path_47665" data-name="Path 47665" d="M520.985,288.413v8.494H502.949v-.236q0-4.121,0-8.243a1.736,1.736,0,0,1,1.823-1.84q4.189,0,8.378,0h.167a.282.282,0,0,1-.024.084,3.672,3.672,0,0,0-.644,1.333.209.209,0,0,1-.133.131,3.649,3.649,0,0,0-3.111,4.056,5.643,5.643,0,0,1-.024.712,1.95,1.95,0,0,1-.33.879,1.508,1.508,0,0,0,1.125,2.344,1.263,1.263,0,0,0,.923-.227,2.2,2.2,0,0,1,1.43-.381,5.255,5.255,0,0,0,1.895-.229,3.484,3.484,0,0,0,2.306-2.715.382.382,0,0,1,.319-.347,3.361,3.361,0,0,0,1.743-1.139c.687-.834,1.366-1.675,2.05-2.512C520.878,288.528,520.921,288.484,520.985,288.413Z" transform="translate(-502.948 -281.129)" fill="#00a7ff"/>
        <path id="Path_47666" data-name="Path 47666" d="M629.946,339.8c-.181.017-.526.035-.866.083a2.689,2.689,0,0,0-1.212.475.293.293,0,0,1-.281,0,.284.284,0,0,1-.024-.278,3.534,3.534,0,0,0,.561-2.07,7.373,7.373,0,0,1,.066-1.161,2.142,2.142,0,0,1,1.765-1.79,2.3,2.3,0,0,1,2.456.878,2.4,2.4,0,0,1-.8,3.642A3.5,3.5,0,0,1,629.946,339.8Z" transform="translate(-620.348 -326.743)" fill="#00a7ff"/>
        <path id="Path_47667" data-name="Path 47667" d="M695.582,281.248l2.958,2.964c-.566.616-.955,1.443-1.892,1.715a3.8,3.8,0,0,0-2.771-2.782C694.133,282.216,694.963,281.832,695.582,281.248Z" transform="translate(-682.86 -276.098)" fill="#00a7ff"/>
      </g>
    </g>
  </g>
</svg>
