<svg xmlns="http://www.w3.org/2000/svg" xmlns:xlink="http://www.w3.org/1999/xlink" width="52" height="52" viewBox="0 0 52 52">
  <defs>
    <linearGradient id="linear-gradient" x1="0.5" x2="0.5" y2="1" gradientUnits="objectBoundingBox">
      <stop offset="0" stop-color="#aee4fc"/>
      <stop offset="1" stop-color="#f1f7fc"/>
    </linearGradient>
  </defs>
  <g id="Group_58483" data-name="Group 58483" transform="translate(-880 -227)">
    <circle id="Ellipse_180" data-name="Ellipse 180" cx="26" cy="26" r="26" transform="translate(880 227)" fill="url(#linear-gradient)"/>
    <g id="Group_58330" data-name="Group 58330" transform="translate(468.999 114.899)">
      <g id="Group_58329" data-name="Group 58329" transform="translate(427 128.101)">
        <path id="Path_47816" data-name="Path 47816" d="M464.153,231.107h-.509a3.269,3.269,0,0,1-.336-.37c-.354-.531-.7-1.07-1.042-1.606-.033-.052-.071-.1-.107-.151a10.152,10.152,0,0,0-.032,1.329.8.8,0,0,1-.363.8h-.431a.712.712,0,0,1-.389-.742c.013-.194,0-.39,0-.585v-.844c-.072.1-.109.152-.143.2-.321.5-.637,1-.965,1.488-.113.17-.255.32-.384.479h-.509a.618.618,0,0,1-.177-.985l1.56-2.414c.037-.057.07-.116.12-.2H454.29a1.589,1.589,0,0,1-1.7-1.7q0-5.577,0-11.153c0-.069.007-.137.011-.2h17.89v.208q0,5.567,0,11.134a1.6,1.6,0,0,1-1.707,1.715h-6.158c.057.093.089.149.124.2l1.529,2.365C464.57,230.528,464.542,230.752,464.153,231.107Zm-1.225-8.668c-.057-.073-.093-.128-.137-.174q-.876-.922-1.755-1.841a.928.928,0,0,0-1.48-.037l-2.826,2.706c-.306.293-.617.582-.916.882a.586.586,0,0,0,.8.859c.05-.041.1-.088.143-.133l3.349-3.206c.054-.052.112-.1.174-.156l1.932,2.026a.925.925,0,0,0,1.533-.061l2.013-2.5c.183-.227.367-.452.553-.681.243.3.47.391.737.3a.618.618,0,0,0,.388-.692c-.018-.351-.035-.7-.069-1.054a.691.691,0,0,0-.718-.635c-.436.02-.871.064-1.3.114a.571.571,0,0,0-.484.517.6.6,0,0,0,.371.607c.058.022.118.039.2.064Zm-8.336-4.239a1.865,1.865,0,1,0,1.864-1.869A1.867,1.867,0,0,0,454.592,218.2Zm11.952,6.383c-.2.187-.368.339-.528.5a.6.6,0,0,0-.022.873.59.59,0,0,0,.857-.043c.162-.16.317-.327.488-.5.171.176.323.337.48.494a.589.589,0,0,0,.87.047.6.6,0,0,0-.033-.872c-.16-.161-.334-.306-.527-.482.2-.194.376-.345.535-.509a.6.6,0,0,0,.018-.872.585.585,0,0,0-.855.048c-.16.16-.313.326-.484.5-.176-.182-.327-.344-.484-.5a.588.588,0,0,0-.87-.045.6.6,0,0,0,.034.872C466.182,224.26,466.354,224.409,466.544,224.584Z" transform="translate(-451.587 -211.107)" fill="#00a7ff"/>
        <path id="Path_47818" data-name="Path 47818" d="M427,129.677c.066-.1.125-.209.2-.3a1.028,1.028,0,0,1,.814-.4c.215,0,.43,0,.646,0h17.181a1.077,1.077,0,1,1,.131,2.15c-.072,0-.144,0-.215,0q-8.767,0-17.534.005a1.185,1.185,0,0,1-1.224-.747Z" transform="translate(-427 -128.971)" fill="#00a7ff"/>
        <path id="Path_47824" data-name="Path 47824" d="M535.148,293.461a.691.691,0,1,1-.686-.7A.688.688,0,0,1,535.148,293.461Z" transform="translate(-529.587 -286.352)" fill="#00a7ff"/>
      </g>
    </g>
  </g>
</svg>
