<svg xmlns="http://www.w3.org/2000/svg" xmlns:xlink="http://www.w3.org/1999/xlink" width="52" height="52" viewBox="0 0 52 52">
  <defs>
    <linearGradient id="linear-gradient" x1="0.5" x2="0.5" y2="1" gradientUnits="objectBoundingBox">
      <stop offset="0" stop-color="#aee4fc"/>
      <stop offset="1" stop-color="#f1f7fc"/>
    </linearGradient>
  </defs>
  <g id="Group_58484" data-name="Group 58484" transform="translate(-611 -427)">
    <circle id="Ellipse_180" data-name="Ellipse 180" cx="26" cy="26" r="26" transform="translate(611 427)" fill="url(#linear-gradient)"/>
    <g id="Group_58336" data-name="Group 58336" transform="translate(626.101 443.21)">
      <g id="Group_58337" data-name="Group 58337" transform="translate(0.056)">
        <g id="Group_58334" data-name="Group 58334">
          <g id="Group_58338" data-name="Group 58338">
            <g id="Group_58332" data-name="Group 58332">
              <g id="Group_58339" data-name="Group 58339">
                <path id="Path_47825" data-name="Path 47825" d="M10.158,0h1.016a1.016,1.016,0,0,0,.142.034,6.466,6.466,0,0,1,3.743,1.655.4.4,0,0,0,.3.078,4.706,4.706,0,0,1,1.682.01A4.453,4.453,0,0,1,20.6,6.456a.292.292,0,0,0,.126.3,3.877,3.877,0,0,1,1.511,3.891,3.973,3.973,0,0,1-4.025,3.321q-6.7,0-13.392,0a4.772,4.772,0,0,1-.569-.035,4.018,4.018,0,0,1-.531-7.874c.414-.108.414-.108.473-.522A6.573,6.573,0,0,1,8.857.259c.427-.113.867-.174,1.3-.259m5.591,7.209a1.666,1.666,0,0,0-.257-.4A5.609,5.609,0,0,0,9.981,5.4,5.4,5.4,0,0,0,7.5,6.829a.615.615,0,0,0-.18.674.6.6,0,0,0,.525.428.733.733,0,0,0,.616-.263,4.391,4.391,0,0,1,5.057-.722,8.319,8.319,0,0,1,1.145.821.648.648,0,0,0,.709.107.69.69,0,0,0,.375-.665m-4.091.518a3.249,3.249,0,0,0-2.323.862.652.652,0,0,0-.085.939.64.64,0,0,0,.94,0,1.9,1.9,0,0,1,2.654.006.638.638,0,0,0,.925,0A.646.646,0,0,0,13.7,8.6a3.048,3.048,0,0,0-2.041-.87m.489,3.169a.634.634,0,1,0-.634.632.638.638,0,0,0,.634-.632" transform="translate(-0.718)" fill="#00a7ff"/>
                <path id="Path_47827" data-name="Path 47827" d="M50.507,341.55c-.053-.018-.1-.037-.158-.054a1.271,1.271,0,1,1,.739,0c-.053.017-.105.036-.158.054Z" transform="translate(-46.696 -319.88)" fill="#00a7ff"/>
                <path id="Path_47828" data-name="Path 47828" d="M170.507,341.55c-.053-.018-.1-.037-.158-.054a1.271,1.271,0,1,1,.739,0c-.053.017-.105.036-.158.054Z" transform="translate(-159.925 -319.88)" fill="#00a7ff"/>
                <path id="Path_47829" data-name="Path 47829" d="M290.507,341.55c-.053-.018-.1-.037-.158-.054a1.271,1.271,0,1,1,.739,0c-.053.017-.105.036-.158.054Z" transform="translate(-273.153 -319.88)" fill="#00a7ff"/>
                <path id="Path_47833" data-name="Path 47833" d="M248.255,270.155h1.268v.228c0,.761,0,1.522,0,2.283a.328.328,0,0,0,.172.325c.174.105.333.234.487.345l-.747,1.035c-.326-.245-.69-.5-1.03-.788a.526.526,0,0,1-.14-.362c-.011-1.014-.006-2.028-.006-3.066" transform="translate(-234.285 -254.91)" fill="#00a7ff"/>
                <path id="Path_47834" data-name="Path 47834" d="M102.36,270.182h1.27v.194c0,.916,0,1.832,0,2.748a.734.734,0,0,1-.336.662c-.295.2-.582.413-.85.6l-.737-1.03c.157-.113.346-.234.515-.378a.386.386,0,0,0,.13-.253c.01-.768.006-1.536.006-2.3Z" transform="translate(-96.01 -254.936)" fill="#00a7ff"/>
                <rect id="Rectangle_13198" data-name="Rectangle 13198" width="1.251" height="2.644" transform="translate(10.167 15.249)" fill="#00a7ff"/>
              </g>
            </g>
          </g>
        </g>
      </g>
    </g>
  </g>
</svg>
