<svg xmlns="http://www.w3.org/2000/svg" xmlns:xlink="http://www.w3.org/1999/xlink" width="52" height="52" viewBox="0 0 52 52">
  <defs>
    <linearGradient id="linear-gradient" x1="0.5" x2="0.5" y2="1" gradientUnits="objectBoundingBox">
      <stop offset="0" stop-color="#aee4fc"/>
      <stop offset="1" stop-color="#f1f7fc"/>
    </linearGradient>
  </defs>
  <g id="Group_58480" data-name="Group 58480" transform="translate(-611 -211)">
    <circle id="Ellipse_180" data-name="Ellipse 180" cx="26" cy="26" r="26" transform="translate(611 211)" fill="url(#linear-gradient)"/>
    <g id="Group_58316" data-name="Group 58316" transform="translate(626.154 227.154)">
      <path id="Path_47704" data-name="Path 47704" d="M21.691,7.163V19.238c-.077,0-.155.007-.232.007H.232c-.077,0-.155,0-.232-.007V7.163A1.349,1.349,0,0,1,1.564,6.111H20.213c.078,0,.155,0,.233,0a1.238,1.238,0,0,1,1.03.574,3.457,3.457,0,0,1,.216.476m-10.768,5.3h1.566c.656,0,1.312,0,1.968,0a.621.621,0,0,0,.625-.6.636.636,0,0,0-.536-.659,1.443,1.443,0,0,0-.253-.013H8.749c-.43,0-.861,0-1.291,0a.638.638,0,0,0-.6.333.628.628,0,0,0,.591.936c1.157.005,2.314,0,3.47,0M8.9,15.008c.472,0,.944,0,1.416,0a.636.636,0,0,0,.7-.632.646.646,0,0,0-.7-.637q-1.427,0-2.854,0a.644.644,0,0,0-.686.647.636.636,0,0,0,.685.622c.479,0,.958,0,1.437,0M7.041,9.924c.437,0,.874,0,1.31,0a.632.632,0,0,0,.672-.634.641.641,0,0,0-.677-.634q-1.289-.007-2.579,0a.644.644,0,0,0-.683.629.635.635,0,0,0,.688.64c.423,0,.845,0,1.268,0m.015,7.626c.423,0,.845,0,1.268,0a.638.638,0,0,0,.7-.628.646.646,0,0,0-.692-.641q-1.279,0-2.557,0a.645.645,0,0,0-.689.644.635.635,0,0,0,.682.625c.43,0,.86,0,1.289,0m6.62-2.542c.352,0,.7,0,1.057,0a.635.635,0,1,0,0-1.268q-1.067-.009-2.135,0a.634.634,0,1,0,0,1.268c.359,0,.719,0,1.078,0m4.079-2.542c.246,0,.493,0,.739,0a.633.633,0,1,0,.026-1.266q-.771-.017-1.542,0a.632.632,0,0,0,.016,1.265c.253.006.507,0,.76,0m-.011,2.541h.76a.633.633,0,0,0,.645-.619.626.626,0,0,0-.6-.644c-.534-.018-1.07-.018-1.6,0a.631.631,0,0,0,.037,1.261c.253.007.507,0,.76,0M3.179,9.922a.633.633,0,0,0,.633-.632.635.635,0,1,0-1.27,0,.634.634,0,0,0,.636.63m0,2.542a.633.633,0,0,0,.631-.635.635.635,0,1,0-1.27.008.634.634,0,0,0,.639.627m-.011,2.542a.633.633,0,0,0,.642-.624.635.635,0,1,0-1.27-.013.635.635,0,0,0,.628.638m0,2.542a.633.633,0,0,0,.638-.628.635.635,0,1,0-1.27-.007.634.634,0,0,0,.632.634" transform="translate(0 -5.765)" fill="#00a7ff"/>
      <path id="Path_47706" data-name="Path 47706" d="M21.691,262.521c-.04.1-.075.194-.121.287a1.235,1.235,0,0,1-1.1.734c-.1.005-.2,0-.3,0-6.19,0-12.379-.007-18.569.009A1.45,1.45,0,0,1,0,262.521V261c.077,0,.155.007.232.007H21.459c.077,0,.155,0,.232-.007Z" transform="translate(0 -246.253)" fill="#00a7ff"/>
      <path id="Path_47720" data-name="Path 47720" d="M87.7,330.415v-1.494h7.628v1.494c.53,0,1.036,0,1.543,0a.622.622,0,0,1,.569.3.634.634,0,0,1-.491.962,1.782,1.782,0,0,1-.211,0H86.294a1.416,1.416,0,0,1-.274-.017A.634.634,0,0,1,85.5,331a.625.625,0,0,1,.62-.579c.445-.009.889,0,1.334,0H87.7" transform="translate(-80.668 -310.341)" fill="#00a7ff"/>
    </g>
  </g>
</svg>
