<svg xmlns="http://www.w3.org/2000/svg" xmlns:xlink="http://www.w3.org/1999/xlink" width="52" height="52" viewBox="0 0 52 52">
  <defs>
    <linearGradient id="linear-gradient" x1="0.5" x2="0.5" y2="1" gradientUnits="objectBoundingBox">
      <stop offset="0" stop-color="#aee4fc"/>
      <stop offset="1" stop-color="#f1f7fc"/>
    </linearGradient>
  </defs>
  <g id="Group_58481" data-name="Group 58481" transform="translate(-880 -227)">
    <circle id="Ellipse_180" data-name="Ellipse 180" cx="26" cy="26" r="26" transform="translate(880 227)" fill="url(#linear-gradient)"/>
    <g id="Group_58324" data-name="Group 58324" transform="translate(894.5 241.5)">
      <path id="Path_47722" data-name="Path 47722" d="M70.553,23.745a2.157,2.157,0,0,1-1.153-.592,2,2,0,0,1-.539-1.429q0-9.459,0-18.918A1.92,1.92,0,0,1,70.9.791q5.615,0,11.23,0A1.9,1.9,0,0,1,84.1,2.253a2.333,2.333,0,0,1,.066.6q0,9.414.006,18.828a1.953,1.953,0,0,1-1.658,2.042c-.013,0-.025.015-.037.023Zm.236-4.8h11.45V2.717H70.789Zm5.728,2.884c.44,0,.88,0,1.32,0a.875.875,0,0,0,.306-.047.449.449,0,0,0,.262-.531.475.475,0,0,0-.514-.371q-1.354-.006-2.708,0c-.359,0-.58.191-.575.484s.214.465.566.468c.448,0,.9,0,1.343,0" transform="translate(-64.993 -0.745)" fill="#00a7ff"/>
      <path id="Path_47725" data-name="Path 47725" d="M121.843,106.807c-.44,0-.881,0-1.321,0-.4,0-.578-.177-.581-.572q-.008-1.333,0-2.665c0-.4.188-.583.594-.584q1.321,0,2.643,0c.4,0,.59.181.592.586q.007,1.321,0,2.643c0,.42-.18.591-.606.593s-.881,0-1.321,0" transform="translate(-113.202 -97.201)" fill="#00a7ff"/>
      <path id="Path_47726" data-name="Path 47726" d="M224.044,106.807c-.44,0-.881,0-1.321,0-.4,0-.578-.177-.581-.572q-.008-1.333,0-2.665c0-.4.188-.583.594-.584q1.321,0,2.643,0c.4,0,.591.181.593.586q.007,1.321,0,2.643c0,.42-.18.591-.606.593s-.881,0-1.321,0" transform="translate(-209.665 -97.201)" fill="#00a7ff"/>
      <path id="Path_47727" data-name="Path 47727" d="M121.859,209c-.44,0-.881,0-1.321,0-.413,0-.595-.174-.6-.579q-.007-1.333,0-2.665a.506.506,0,0,1,.578-.577q1.333,0,2.665,0c.394,0,.583.179.585.57q.009,1.344,0,2.688a.5.5,0,0,1-.567.563c-.448,0-.9,0-1.344,0" transform="translate(-113.203 -193.66)" fill="#00a7ff"/>
      <path id="Path_47728" data-name="Path 47728" d="M224.062,209.008c-.448,0-.9,0-1.344,0-.395,0-.575-.179-.577-.576q-.007-1.333,0-2.665c0-.4.189-.58.6-.58q1.321,0,2.643,0c.4,0,.587.182.589.59q.006,1.321,0,2.643c0,.41-.18.586-.587.589-.44,0-.881,0-1.321,0" transform="translate(-209.664 -193.663)" fill="#00a7ff"/>
      <path id="Path_47729" data-name="Path 47729" d="M189.273,52.893c-.171,0-.344.011-.514,0a.449.449,0,0,1-.426-.438.428.428,0,0,1,.374-.479,7.511,7.511,0,0,1,1.137,0,.432.432,0,0,1,.381.5.45.45,0,0,1-.438.426c-.17.013-.343,0-.514,0v0" transform="translate(-177.757 -49.034)" fill="#00a7ff"/>
      <path id="Path_47730" data-name="Path 47730" d="M273.9,52.905a.472.472,0,0,1-.472-.465.473.473,0,1,1,.946,0,.471.471,0,0,1-.474.463" transform="translate(-258.072 -49.043)" fill="#00a7ff"/>
    </g>
  </g>
</svg>
