<svg xmlns="http://www.w3.org/2000/svg" xmlns:xlink="http://www.w3.org/1999/xlink" width="52" height="52" viewBox="0 0 52 52">
  <defs>
    <linearGradient id="linear-gradient" x1="0.5" x2="0.5" y2="1" gradientUnits="objectBoundingBox">
      <stop offset="0" stop-color="#aee4fc"/>
      <stop offset="1" stop-color="#f1f7fc"/>
    </linearGradient>
  </defs>
  <g id="Group_58486" data-name="Group 58486" transform="translate(-880 -227)">
    <circle id="Ellipse_180" data-name="Ellipse 180" cx="26" cy="26" r="26" transform="translate(880 227)" fill="url(#linear-gradient)"/>
    <g id="Group_58354" data-name="Group 58354" transform="translate(893.779 240.891)">
      <g id="Group_58355" data-name="Group 58355" transform="translate(0.817)">
        <g id="Group_58352" data-name="Group 58352">
          <g id="Group_58356" data-name="Group 58356">
            <g id="Group_58350" data-name="Group 58350">
              <g id="Group_58357" data-name="Group 58357">
                <path id="Path_47844" data-name="Path 47844" d="M20.694,0A7.722,7.722,0,0,1,21.85.375,3.4,3.4,0,0,1,23.8,3.357c.007.094,0,.189,0,.283q0,8.47,0,16.939a3.5,3.5,0,1,1-4.087-3.362c.171-.026.343-.035.515-.051s.33-.071.331-.287c0-.174-.137-.265-.374-.259a4.053,4.053,0,0,0-3.922,3.819c-.008.125,0,.251,0,.4a3.155,3.155,0,0,1-1.148-.153,3.494,3.494,0,0,1,1.072-6.832,6.935,6.935,0,0,1,1.176.211c.068.013.131.052.2.072a.253.253,0,0,0,.345-.157.238.238,0,0,0-.158-.34,7,7,0,0,0-1.321-.316A3.983,3.983,0,0,0,12.525,15.6l-.135.271A3.509,3.509,0,0,1,11.8,9.908a12.274,12.274,0,0,0,1.278.92,3.89,3.89,0,0,0,3.368.2c.3-.115.4-.243.323-.425s-.225-.189-.511-.082a3.45,3.45,0,0,1-3.164-.3A3.5,3.5,0,0,1,14.44,3.817a3.643,3.643,0,0,1,1.673.151.291.291,0,0,1,.224.257,4.04,4.04,0,0,0,3.84,3.319c.189.008.355-.017.389-.243.027-.182-.1-.3-.359-.3a3.331,3.331,0,0,1-2.3-.953,3.337,3.337,0,0,1-.939-3.561A3.383,3.383,0,0,1,19.741.048,1.393,1.393,0,0,0,19.892,0Zm1.135,12.356c.433,0,.865,0,1.3,0,.183,0,.341-.06.344-.271s-.151-.276-.336-.278c-.291,0-.582,0-.873,0-.566,0-1.133,0-1.7,0-.235,0-.36.113-.343.293.02.2.164.253.335.255.425,0,.849,0,1.274,0m.578-2.907c.243,0,.487,0,.73,0,.191,0,.337-.065.334-.274,0-.192-.14-.263-.323-.262q-.742,0-1.484,0c-.181,0-.316.065-.32.263s.126.272.309.272h.754m0,5.265c-.243,0-.487,0-.73,0-.19,0-.334.063-.328.276.005.2.144.259.324.259q.742,0,1.484,0c.183,0,.317-.074.319-.266s-.131-.27-.314-.269c-.251,0-.5,0-.754,0m.449-7.839v0a1.017,1.017,0,0,0,.372-.01c.1-.043.234-.171.233-.26a.356.356,0,0,0-.235-.255,2.4,2.4,0,0,0-.726,0,.391.391,0,0,0-.246.252c-.041.163.091.257.249.275a3.226,3.226,0,0,0,.353,0m0,10.949h0a1.014,1.014,0,0,0,.372-.01.417.417,0,0,0,.234-.263c.01-.075-.127-.234-.214-.245a3,3,0,0,0-.772,0c-.087.011-.2.148-.223.246-.037.15.078.251.227.27a2.946,2.946,0,0,0,.376,0" transform="translate(-10.402)" fill="#00a7ff"/>
                <path id="Path_47845" data-name="Path 47845" d="M226.662,258.628c-.307,0-.614-.01-.92,0a.607.607,0,0,1-.5-.2c-.755-.768-1.523-1.523-2.279-2.291a.487.487,0,0,0-.413-.166,5.067,5.067,0,0,1-.566,0c-.168-.007-.29-.086-.291-.272s.126-.265.292-.27a8.129,8.129,0,0,1,.9.006.579.579,0,0,1,.313.179q1.166,1.152,2.318,2.318a.493.493,0,0,0,.392.161c.6-.009,1.2-.007,1.792,0a.249.249,0,0,0,.28-.176,1.111,1.111,0,0,1,1.286-.669,1.131,1.131,0,0,1,.893,1.1,1.143,1.143,0,0,1-.87,1.12,1.119,1.119,0,0,1-1.31-.669.245.245,0,0,0-.279-.175c-.346.01-.692,0-1.038,0" transform="translate(-207.403 -238.144)" fill="#00a7ff"/>
                <path id="Path_47846" data-name="Path 47846" d="M226.671,42.346c.346,0,.692-.007,1.038,0a.245.245,0,0,0,.278-.176,1.12,1.12,0,0,1,1.31-.667,1.14,1.14,0,0,1-.116,2.237A1.1,1.1,0,0,1,228,43.078a.278.278,0,0,0-.314-.2c-.6.008-1.2,0-1.792.01a.555.555,0,0,0-.344.142q-1.162,1.139-2.3,2.3a.655.655,0,0,1-.542.22c-.227-.013-.456,0-.684-.005-.175,0-.315-.072-.314-.274s.138-.265.315-.274a.309.309,0,0,1,.071,0,1.264,1.264,0,0,0,1.24-.509c.608-.668,1.275-1.282,1.906-1.929a.645.645,0,0,1,.539-.218c.3.016.6,0,.9,0" transform="translate(-207.412 -38.668)" fill="#00a7ff"/>
                <path id="Path_47847" data-name="Path 47847" d="M223.085,102.654a3.335,3.335,0,0,0,1.189-.031,2.72,2.72,0,0,0,.863-.819.935.935,0,0,1,.923-.375c.174.029.257-.041.329-.209a1.108,1.108,0,0,1,1.261-.637,1.144,1.144,0,0,1,.907,1.117,1.158,1.158,0,0,1-.889,1.11,1.143,1.143,0,0,1-1.288-.641.494.494,0,0,0-.717-.112c-.337.33-.662.673-1.007.994a.573.573,0,0,1-.348.145c-.747.013-1.494.005-2.241.007-.193,0-.362-.039-.36-.27s.172-.269.364-.267c.338,0,.676,0,1.014,0v-.014" transform="translate(-207.413 -93.755)" fill="#00a7ff"/>
                <path id="Path_47848" data-name="Path 47848" d="M223.024,217.463c.37,0,.74-.012,1.108.007a.6.6,0,0,1,.348.146c.328.3.649.619.951.949.136.149.289.115.448.138.211.031.273-.087.35-.249a1.124,1.124,0,0,1,1.288-.591,1.157,1.157,0,0,1,.863,1.106,1.144,1.144,0,0,1-.886,1.109,1.1,1.1,0,0,1-1.262-.592c-.09-.2-.19-.284-.4-.248a.849.849,0,0,1-.841-.344c-.223-.263-.491-.488-.726-.741a.477.477,0,0,0-.392-.158c-.668.008-1.337.01-2,0a.435.435,0,0,1-.311-.152c-.116-.169.029-.369.263-.374.4-.008.8,0,1.2,0Z" transform="translate(-207.237 -202.75)" fill="#00a7ff"/>
                <path id="Path_47849" data-name="Path 47849" d="M223.625,163.549h-1.378c-.071,0-.141,0-.212,0-.185-.007-.333-.071-.327-.285s.149-.262.324-.264c.4,0,.8,0,1.2,0h.39a1.107,1.107,0,0,1,.7-.772,1.52,1.52,0,0,1,.732-.035,1.079,1.079,0,0,1,.824,1.162,1.14,1.14,0,0,1-.93,1.044,1.18,1.18,0,0,1-1.321-.848" transform="translate(-207.415 -151.192)" fill="#00a7ff"/>
              </g>
            </g>
          </g>
        </g>
      </g>
    </g>
  </g>
</svg>
