<svg xmlns="http://www.w3.org/2000/svg" xmlns:xlink="http://www.w3.org/1999/xlink" width="52" height="52" viewBox="0 0 52 52">
  <defs>
    <linearGradient id="linear-gradient" x1="0.5" x2="0.5" y2="1" gradientUnits="objectBoundingBox">
      <stop offset="0" stop-color="#aee4fc"/>
      <stop offset="1" stop-color="#f1f7fc"/>
    </linearGradient>
  </defs>
  <g id="Group_58485" data-name="Group 58485" transform="translate(-880 -227)">
    <circle id="Ellipse_180" data-name="Ellipse 180" cx="26" cy="26" r="26" transform="translate(880 227)" fill="url(#linear-gradient)"/>
    <g id="Group_58345" data-name="Group 58345" transform="translate(893 240)">
      <g id="Group_58346" data-name="Group 58346" transform="translate(0)">
        <g id="Group_58343" data-name="Group 58343">
          <g id="Group_58347" data-name="Group 58347">
            <g id="Group_58341" data-name="Group 58341">
              <g id="Group_58348" data-name="Group 58348">
                <path id="Path_47836" data-name="Path 47836" d="M179.978,222.5h2.027c.118,0,.238.009.355,0a1.4,1.4,0,0,1,1.1.341,2.353,2.353,0,0,0,2.734.089,2.451,2.451,0,0,0,1.043-2.588,2.428,2.428,0,0,0-4.066-1.207.387.387,0,0,1-.235.111c-.973.008-1.945,0-2.941,0-.006-.082-.015-.154-.015-.226,0-.736-.005-1.473,0-2.209a.756.756,0,0,1,.81-.813q4.405-.005,8.81,0c.033,0,.065.006.128.013v.274q0,4.253,0,8.505c0,.684-.271.957-.95.957h-7.871c-.648,0-.929-.28-.929-.926,0-.761,0-1.523,0-2.324" transform="translate(-167.791 -201.373)" fill="#00a7ff"/>
                <path id="Path_47837" data-name="Path 47837" d="M30.488,69.748c0-1.011,0-1.984,0-2.957a.387.387,0,0,1,.112-.235,2.444,2.444,0,0,0-.016-3.43,2.5,2.5,0,0,0-3.463.012,2.44,2.44,0,0,0-.01,3.41.361.361,0,0,1,.117.207c.008.931.005,1.862.005,2.793v.2H25.675c-.279,0-.559,0-.838,0a.773.773,0,0,1-.849-.853q0-2.78,0-5.56c0-.829,0-1.659,0-2.488A.766.766,0,0,1,24.817,60q4.392,0,8.785,0c.033,0,.066,0,.136.01v.269q0,4.265,0,8.531c0,.663-.277.939-.942.939H30.488" transform="translate(-22.363 -55.936)" fill="#00a7ff"/>
                <path id="Path_47838" data-name="Path 47838" d="M74.466,119.383h.245q3.948,0,7.9,0a.347.347,0,0,0,.331-.163,1.581,1.581,0,0,1,1.759-.578,1.621,1.621,0,0,1,.057,3.079,1.561,1.561,0,0,1-1.776-.51.469.469,0,0,0-.437-.21q-4.367.009-8.734,0c-.7,0-.966-.267-.966-.966q0-4.392,0-8.785a.37.37,0,0,0-.169-.354,1.578,1.578,0,0,1-.568-1.761,1.62,1.62,0,0,1,3.078-.04,1.567,1.567,0,0,1-.519,1.775.448.448,0,0,0-.2.414q.008,3.9,0,7.795Z" transform="translate(-67.153 -100.696)" fill="#00a7ff"/>
                <path id="Path_47839" data-name="Path 47839" d="M36.173,25.49c.435-.434.857-.822,1.237-1.247a1.077,1.077,0,0,1,.9-.373c2.689.017,5.379.009,8.069.009h.314c-.053.067-.083.113-.121.151-.448.449-.893.9-1.348,1.343a.452.452,0,0,1-.28.126q-4.313.01-8.627,0c-.031,0-.061-.005-.143-.013" transform="translate(-33.724 -22.253)" fill="#00a7ff"/>
                <path id="Path_47840" data-name="Path 47840" d="M179.95,46.78v-.3q0-4.2,0-8.4a.528.528,0,0,1,.174-.42c.42-.405.828-.823,1.241-1.235.057-.057.118-.11.214-.2v.291q0,4.187,0,8.373a.556.556,0,0,1-.183.442c-.473.458-.933.928-1.446,1.441" transform="translate(-167.762 -33.779)" fill="#00a7ff"/>
                <path id="Path_47841" data-name="Path 47841" d="M192.124,181.451c.406-.4.806-.753,1.149-1.154a1.3,1.3,0,0,1,1.118-.465c2.647.023,5.294.011,7.942.011h.313a1.906,1.906,0,0,1-.119.15c-.448.449-.893.9-1.348,1.343a.451.451,0,0,1-.28.126q-4.313.01-8.627,0c-.031,0-.062-.007-.147-.017" transform="translate(-179.116 -167.656)" fill="#00a7ff"/>
                <path id="Path_47842" data-name="Path 47842" d="M337.624,191.988v.3q0,4.2-.007,8.4a.627.627,0,0,1-.16.392c-.46.483-.937.949-1.44,1.452-.008-.109-.018-.179-.018-.249q0-4.225.006-8.449a.591.591,0,0,1,.151-.37c.465-.487.947-.957,1.468-1.478" transform="translate(-313.249 -178.989)" fill="#00a7ff"/>
              </g>
            </g>
          </g>
        </g>
      </g>
    </g>
  </g>
</svg>
