<svg xmlns="http://www.w3.org/2000/svg" xmlns:xlink="http://www.w3.org/1999/xlink" width="361.549" height="225.728" viewBox="0 0 361.549 225.728">
  <defs>
    <clipPath id="clip-path">
      <rect id="Rectangle_13200" data-name="Rectangle 13200" width="52.261" height="51.212" fill="none"/>
    </clipPath>
    <clipPath id="clip-path-2">
      <rect id="Rectangle_13202" data-name="Rectangle 13202" width="163.315" height="98.095" fill="none"/>
    </clipPath>
    <clipPath id="clip-path-3">
      <rect id="Rectangle_13207" data-name="Rectangle 13207" width="30.348" height="44.927" fill="none"/>
    </clipPath>
    <clipPath id="clip-path-4">
      <path id="Path_51117" data-name="Path 51117" d="M39.172,196.932a7.957,7.957,0,1,1,7.957,7.957,7.957,7.957,0,0,1-7.957-7.957m-7.064,0a15.021,15.021,0,1,0,15.021-15.021,15.021,15.021,0,0,0-15.021,15.021" transform="translate(-32.108 -181.911)" fill="none"/>
    </clipPath>
    <clipPath id="clip-path-5">
      <rect id="Rectangle_13217" data-name="Rectangle 13217" width="361.549" height="225.728" fill="none"/>
    </clipPath>
  </defs>
  <g id="Group_58475" data-name="Group 58475" transform="translate(-26.206 -16.361)">
    <g id="Group_58476" data-name="Group 58476" transform="translate(26.206 16.361)">
      <g id="Group_58469" data-name="Group 58469" transform="translate(0 0)">
        <g id="Group_58477" data-name="Group 58477">
          <path id="Path_50981" data-name="Path 50981" d="M40.765,93.583c54.453-20.215,109.8-2.343,147.334,36.583s116.31-26.868,158.088,12c28.511,26.522,15.452,94.711-23.642,124.246-53.138,40.144-251.1,41.35-283.946,27.574-56.128-23.54-.358-67.132-26.558-108.919-30.91-49.3,4.661-82.546,28.725-91.479" transform="translate(0 -76.189)" fill="#078cff"/>
          <path id="Path_50982" data-name="Path 50982" d="M433.46,1923.118c-27.258-1.333-119.984.925-148.184,1.8s-60.935-1.161-77.939-4.163-115.293.255-110.833,8.326,43.792,3.61,88.4,6.854,144.916-.405,167.544,0,43.377-.811,72.537-2.433,24.28-9.617,8.48-10.389" transform="translate(-86.181 -1716.932)" fill="#0084f5"/>
          <g id="Group_58461" data-name="Group 58461" transform="translate(236.067)" opacity="0.5">
            <g id="Group_58460" data-name="Group 58460">
              <g id="Group_58459" data-name="Group 58459" clip-path="url(#clip-path)">
                <path id="Path_50983" data-name="Path 50983" d="M2287.444,28.538a26.4,26.4,0,0,0,.165-2.934c0-.523-.017-1.043-.048-1.559l-4.848-1.569A21.314,21.314,0,0,0,2281,16.668l3.215-3.956a26.237,26.237,0,0,0-2.547-3.7l-4.848,1.582a21.546,21.546,0,0,0-4.8-3.689l.276-5.094a25.943,25.943,0,0,0-4.232-1.5l-2.994,4.132a21.561,21.561,0,0,0-6.053-.159L2256.241,0a25.95,25.95,0,0,0-4.306,1.273l.006,5.1a21.493,21.493,0,0,0-4.988,3.431L2242.2,7.968a26.249,26.249,0,0,0-2.74,3.562l3,4.121a21.31,21.31,0,0,0-2.023,5.709l-4.924,1.31a26.4,26.4,0,0,0-.165,2.934c0,.523.017,1.043.048,1.559l4.848,1.569a21.314,21.314,0,0,0,1.717,5.809l-3.214,3.956a26.154,26.154,0,0,0,2.546,3.7l4.848-1.582a21.546,21.546,0,0,0,4.8,3.689l-.276,5.094a25.935,25.935,0,0,0,4.232,1.5l2.994-4.132a21.554,21.554,0,0,0,6.053.159l2.772,4.285a25.933,25.933,0,0,0,4.306-1.273l-.006-5.1A21.509,21.509,0,0,0,2276,41.4l4.757,1.835a26.227,26.227,0,0,0,2.739-3.562l-3-4.121a21.32,21.32,0,0,0,2.024-5.709Zm-25.966,7.315A10.249,10.249,0,1,1,2271.727,25.6a10.249,10.249,0,0,1-10.249,10.249" transform="translate(-2235.347 0.002)" fill="#9ec8ff"/>
              </g>
            </g>
          </g>
          <path id="Path_50984" data-name="Path 50984" d="M2610.68,201a.528.528,0,0,1-.406-.866,17.194,17.194,0,0,0,3.029-16.561.528.528,0,0,1,1-.344,18.251,18.251,0,0,1-3.216,17.58.527.527,0,0,1-.406.19" transform="translate(-2334.505 -163.563)" fill="#fff"/>
          <path id="Path_50985" data-name="Path 50985" d="M2545.04,84.73a.527.527,0,0,1-.362-.144,17.067,17.067,0,0,0-5.909-3.641.528.528,0,0,1,.36-.993,18.114,18.114,0,0,1,6.273,3.865.528.528,0,0,1-.362.912" transform="translate(-2270.348 -71.481)" fill="#fff"/>
          <path id="Path_50986" data-name="Path 50986" d="M2440.668,71.516a.528.528,0,0,1-.129-1.04,18.291,18.291,0,0,1,4.473-.553.528.528,0,0,1,0,1.056,17.227,17.227,0,0,0-4.215.521.529.529,0,0,1-.13.016" transform="translate(-2182.447 -62.539)" fill="#fff"/>
          <g id="Group_58464" data-name="Group 58464" transform="translate(83.078 0.074)" opacity="0.5">
            <g id="Group_58463" data-name="Group 58463">
              <g id="Group_58462" data-name="Group 58462" clip-path="url(#clip-path-2)">
                <rect id="Rectangle_13201" data-name="Rectangle 13201" width="163.315" height="98.095" transform="translate(0 0)" fill="#9ec8ff"/>
              </g>
            </g>
          </g>
          <rect id="Rectangle_13203" data-name="Rectangle 13203" width="153.648" height="90.054" transform="translate(91.034 2.468)" fill="#fff"/>
          <path id="Path_50987" data-name="Path 50987" d="M2043.9,423.61c7.322-6.97,19.837-6.812,19.572,3.8s.613,11.611,3.626,17.179c10.455,19.319-12.462,18.182-22.019,18.815s-8.766-17.372-7.076-27.352,3.754-10.4,5.9-12.444" transform="translate(-1821.848 -374.602)" fill="#303c60"/>
          <path id="Path_50988" data-name="Path 50988" d="M2054.819,1040.3c-2.348,19.714-6.613,34.286-7.088,43.632s-2.376,46.143-2.376,46.143,5.227-.365,5.7-1.158,9.821-21.542,9.345-34.373,9.334-32.339,9.334-32.339l-2.365-19.141Z" transform="translate(-1829.353 -930.439)" fill="#2978e6"/>
          <path id="Path_50989" data-name="Path 50989" d="M2099.166,1121.569l-3.671,1.536c-1,6.251-2.1,11.872-3.077,16.857,5.842,3.777,8.86,16.36,10.153,24.054.659-8.608,4.72-19.01,7.241-24.763Z" transform="translate(-1871.446 -1003.124)" fill="#1460cc"/>
          <path id="Path_50990" data-name="Path 50990" d="M2184.165,1021.483s7.912,10.092,7.664,21.543c-.378,17.43-2.279,22.407,1.029,40.683,1.292,7.138-2.851,30.488-2.851,30.488s-3.539.277-5.44-.669c.158-1.715-2.287-29.624-7.051-42.454-2.306-6.213-5.548-23.612-7.291-33.592s-2.059-12.038-1.426-12.038,15.365-3.96,15.365-3.96" transform="translate(-1939.492 -913.608)" fill="#2978e6"/>
          <path id="Path_50991" data-name="Path 50991" d="M1841.9,672.592s.352-5.222-.211-6.835-5.421-3.021-5.421-3.021-.211,7.463.282,8.378a27.892,27.892,0,0,0,3.379,3.52Z" transform="translate(-1642.309 -592.746)" fill="#f09959"/>
          <path id="Path_50992" data-name="Path 50992" d="M1888.247,720.037c-11.123,11.972-14.753,17.01-15.6,17.01-2.64-4.66-11.41-14.517-11.41-14.517l-3.739,2.4s8.641,22.576,14.132,22.809,16.653-7.785,16.8-8.706-.18-19-.18-19" transform="translate(-1661.336 -643.997)" fill="#00c4ff"/>
          <path id="Path_50993" data-name="Path 50993" d="M2038.8,746.572c5.441-2.215,11.676-6.849,11.781-7.536.141-.921-.18-19-.18-19-2.425,2.61-4.542,4.925-6.379,6.949-1.992,7.421-1.862,15.5-5.222,19.586" transform="translate(-1823.486 -643.997)" fill="#0ad"/>
          <path id="Path_50994" data-name="Path 50994" d="M2109.056,645.4s10.644,5.335,12.967,14.779-4.551,21.112-5.4,27.338-20.275,7.322-20.275.657c0-6.39-4.869-19.953-4.594-23.408.645-8.106,12.495-18.037,12.495-18.037Z" transform="translate(-1870.845 -577.244)" fill="#00c4ff"/>
          <path id="Path_50995" data-name="Path 50995" d="M2153.023,529.55l4.57,14.091s-4.879,3.765-13.229,12.823c.324-6.027,5.374-12.6,5.374-12.6l-3.457-13.306Z" transform="translate(-1917.905 -473.626)" fill="#f09959"/>
          <path id="Path_50996" data-name="Path 50996" d="M2171.392,536.122l-2.131-6.572-6.742,1.01,3.456,13.306s-.337.538-.834,1.384a16.242,16.242,0,0,0,6.252-9.127" transform="translate(-1934.143 -473.626)" fill="#e38540"/>
          <path id="Path_50997" data-name="Path 50997" d="M2093.758,475.125c-1.232,4.484-6.005,6.953-9.4,6.021s-4.117-4.912-2.884-9.4,4.981-7.364,8.372-6.432,5.141,5.323,3.909,9.807" transform="translate(-1861.158 -416.021)" fill="#f09959"/>
          <path id="Path_50998" data-name="Path 50998" d="M2093.308,909.519c1.48,9.376-4.014,29.436-4.014,29.436s3.276.744,13.1-.206,14.151-10.752,15.63-11.026,2.238,9.122,2.967,9.864.84-11.865-1.066-16.821c-3.379-8.786-2.718-12.513-1.455-17.836,2.246-9.465-25.16,6.589-25.16,6.589" transform="translate(-1868.652 -804.904)" fill="#00c4ff"/>
          <path id="Path_50999" data-name="Path 50999" d="M1957.231,1846.7c.884,3.594-.862,6.445-3.2,8.522-1.9,1.69-7.744,2.408-7.463,3.253s7.181,1.112,9.5.76,2.957-1.479,5.849-1.477c1.9,0,2.248-1.541,1.4-3.446s-1.14-2.959-.377-4.667-5.717-2.944-5.717-2.944" transform="translate(-1740.99 -1651.678)" fill="#346ab5"/>
          <path id="Path_51000" data-name="Path 51000" d="M2320.379,1824.556c-.141,3.731-.574,6.511.341,8.241,3.535,2.957,6.473,6.316,5.351,6.548-5.351,1.1-7.392-2.1-10.42-3.013-3.715-1.119.352-5.787-1.1-11.775-.81-3.329,5.609-2.531,5.609-2.531Z" transform="translate(-2069.661 -1629.533)" fill="#346ab5"/>
          <path id="Path_51001" data-name="Path 51001" d="M2175,744.462a17.586,17.586,0,0,0-.8-3.059c-3.379-8.786-2.718-12.512-1.455-17.836a4.176,4.176,0,0,0,.128-1.111c.285-.949.551-1.911.784-2.879l-1.147-10.354-8.27-9.821c-6.2,9.082-2.015,20.382-2.945,26.613s-11.315,14.175-11.315,14.175l.338,2.211a5.614,5.614,0,0,0,6.314,4.717c4.28-.594,9.9-1.787,12.394-4.106,2.418-2.244,4.559-.508,5.973,1.45" transform="translate(-1922.928 -625.541)" fill="#0ad"/>
          <path id="Path_51002" data-name="Path 51002" d="M2106.642,1082.254s-4.584,1.283-5.133,1.57-.851,1.8-.851,1.8-2.624,2.279-1.619,3.086,2.8,2.85,5.174,1.9c1.457-.583,2.586-5.937,3.542-5.98s-1.113-2.377-1.113-2.377" transform="translate(-1877.162 -967.961)" fill="#f09959"/>
          <path id="Path_51003" data-name="Path 51003" d="M2176.606,688.044c4.907.139,9.355,8.976,10.906,16.644s3.182,18.567,3.182,18.567-8.132,6.418-16.167,8.293c-7.009,1.636-10.588,2.276-10.588,2.276l-1.422-4,16.77-9.85s-6.167-11.617-6.78-20.382.368-11.652,4.1-11.546" transform="translate(-1934.143 -615.38)" fill="#00c4ff"/>
          <rect id="Rectangle_13204" data-name="Rectangle 13204" width="12.475" height="7.923" transform="translate(183.031 70.685) rotate(-11.346)" fill="#f5dc95"/>
          <path id="Path_51004" data-name="Path 51004" d="M1839.307,685.8c.169-3.213-1.423-7.595-2.338-7.588s.282,2.871-.211,4.772c-.267,1.03,2.549,2.816,2.549,2.816" transform="translate(-1642.655 -606.589)" fill="#f09959"/>
          <path id="Path_51005" data-name="Path 51005" d="M2094.746,456.574c.271,8.8,10.551,8.126,13.367,7.583s-3.428,18.566,1.936,19.669c3.939.81,3.052-5.352,7.428-4.94,1.936.182,3.882,3.175,3.882,3.175a5.976,5.976,0,0,0-1.77-3.175c-1.479-1.331-5.355-9.5-6.374-15.342s-7.918-9.623-9.96-9.74-7.04,2.207-7.04,2.207Z" transform="translate(-1873.528 -405.876)" fill="#303c60"/>
          <path id="Path_51006" data-name="Path 51006" d="M2212.969,571.355a2.031,2.031,0,0,1-.424-.045c-1.717-.366-2.549-2.17-2.62-5.679a81.831,81.831,0,0,1,.963-10.954c.213-1.651.432-3.359.614-5.011a.257.257,0,0,1,.512.056c-.182,1.658-.4,3.368-.615,5.021-1.018,7.906-1.98,15.374,1.254,16.063a1.441,1.441,0,0,0,.3.032c1.857,0,3.53-3.62,4.506-7.147a.257.257,0,1,1,.5.137c-.644,2.327-2.375,7.526-4.986,7.526" transform="translate(-1976.539 -491.413)" fill="#303c60"/>
          <path id="Path_51007" data-name="Path 51007" d="M2206.176,573.4a2.03,2.03,0,0,1-1.521-.676c-3.5-3.7-.04-22.289.11-23.078a.257.257,0,1,1,.505.1c-.036.191-3.567,19.114-.242,22.629a1.536,1.536,0,0,0,1.4.5c1.82-.24,2.87-2.709,3.8-4.887.9-2.113,1.744-4.109,3.251-4.056a.257.257,0,1,1-.018.514h-.037c-1.129,0-1.9,1.819-2.723,3.744-.98,2.3-2.092,4.917-4.2,5.2a2.444,2.444,0,0,1-.319.022" transform="translate(-1970.433 -491.414)" fill="#303c60"/>
          <path id="Path_51008" data-name="Path 51008" d="M2199.375,543.416a1.63,1.63,0,1,1,.088-2.64,1.918,1.918,0,0,1-.088,2.64" transform="translate(-1964.409 -483.445)" fill="#f09959"/>
          <path id="Path_51009" data-name="Path 51009" d="M1311.728,827.993a9.2,9.2,0,0,1-4.5,12.838c-4.968,2.055-10.4.888-12.91-4.13a9.743,9.743,0,1,1,17.413-8.708" transform="translate(-1156.629 -735.432)" fill="#303c60"/>
          <path id="Path_51010" data-name="Path 51010" d="M1293.693,887.4a4.7,4.7,0,0,1-3.034-1.427,7.753,7.753,0,0,1-2.3-4.362,15.169,15.169,0,0,1,.845-7.774.257.257,0,0,1,.486.168,14.671,14.671,0,0,0-.826,7.509A7.241,7.241,0,0,0,1291,885.59c1.76,1.562,2.94,1.277,2.952,1.274a.257.257,0,0,1,.138.5,1.565,1.565,0,0,1-.4.042" transform="translate(-1152.121 -781.401)" fill="#303c60"/>
          <path id="Path_51011" data-name="Path 51011" d="M1400.735,1061.373c2.856.64,6.462,8.577,8.228,13.661,1.781,5.129,4.8,11.49,6.777,13.467s14.965,6.559,14.965,6.559-32.093.062-31.435,0,1.466-33.685,1.466-33.685" transform="translate(-1251.489 -949.286)" fill="#00c4ff"/>
          <path id="Path_51012" data-name="Path 51012" d="M1428.65,1092.51c-1.757-.251-8.095.565-5.4-.565s2.322-2.573,2.322-2.573-3.828,3.2-4.518.4c-.6-2.413-.823-10.932-3.082-19.471-1.866-4.234-4.308-8.47-6.363-8.93,0,0-.072,3.006-.191,7.222.788,9.329,2.126,23.035,2.465,26.489,4.254.007,11.373,0,17.329-.008l3.961-.189a42.525,42.525,0,0,0-6.526-2.377" transform="translate(-1262.366 -949.286)" fill="#16bef0"/>
          <path id="Path_51013" data-name="Path 51013" d="M1215.941,1044.719s-9.085,5.076-11.2,6.156,5.933,32.767,7.724,34.125,17.554.234,19.349-1.477-1.377-6.962.176-17.475-4.737-19.59-5.545-19.569a54.305,54.305,0,0,1-6.082-1.759Z" transform="translate(-1077.195 -934.39)" fill="#00c4ff"/>
          <path id="Path_51014" data-name="Path 51014" d="M1212.7,1141.056c1.79,1.358,13.071,1.388,17.872-.106.542-.169,3-1.149,3.06-2.071-.579-.109-2.88.167-3.814-.047-3.247-.746-5.036-4.769-5.036-4.769s-1.788-.643-5.789-2.338-2.353-6.824-2.447-9.083-3.953-9.648-11.2-15.248l-.665.3c-.517,5.15,6.363,32.108,8.02,33.364" transform="translate(-1077.436 -990.446)" fill="#00abde"/>
          <path id="Path_51015" data-name="Path 51015" d="M1602.244,1190.73h-21.876l-9.963,21.2h24.1l9.019-19.192a1.41,1.41,0,0,0-1.276-2.01" transform="translate(-1404.561 -1064.982)" fill="#00c4ff"/>
          <path id="Path_51016" data-name="Path 51016" d="M1458.745,1211.461h-13.164a1.479,1.479,0,0,1,0-2.957h12.22l8.262-17.781a1.478,1.478,0,1,1,2.682,1.246l-8.66,18.637a1.478,1.478,0,0,1-1.341.856" transform="translate(-1291.597 -1064.209)" fill="#3e6bab"/>
          <path id="Path_51017" data-name="Path 51017" d="M1353.108,1351.46c5.71,1.067,7.115,2.378,10.227,2.88,3.529.569,3.109,1.349.488,1.349s-9.207.1-11.467-.4.751-3.828.751-3.828" transform="translate(-1208.787 -1208.738)" fill="#f09959"/>
          <path id="Path_51018" data-name="Path 51018" d="M1118.833,1103.979c-4.377,13.993-10.581,29.871-9.593,29.871s26.118,1.016,27.107.17.706-4.093.565-4.517-14.287-2.934-14.287-2.934,1.863-3.63,2.569-10.725-5.531-14.519-6.361-11.865" transform="translate(-992.003 -986.899)" fill="#00c4ff"/>
          <path id="Path_51019" data-name="Path 51019" d="M1315.451,929.581l-3.525,12.883s5.957,9.3,7.595,8.473-.915-7.558-.915-8.473,2.553-10.353,2.553-10.353Z" transform="translate(-1173.379 -831.411)" fill="#f09959"/>
          <path id="Path_51020" data-name="Path 51020" d="M1338.7,943.12a3.44,3.44,0,0,1-.122-.657c0-.915,2.553-10.353,2.553-10.353l-5.708-2.53-1.167,4.263a22.224,22.224,0,0,0,4.443,9.276" transform="translate(-1193.356 -831.411)" fill="#e38540"/>
          <path id="Path_51021" data-name="Path 51021" d="M1362.777,878.916c.672,3.736.229,8.7-3.088,9.959s-7.313-1.152-8.925-5.391-.229-8.7,3.088-9.959a6.994,6.994,0,0,1,8.925,5.391" transform="translate(-1207.513 -780.96)" fill="#f09959"/>
          <path id="Path_51022" data-name="Path 51022" d="M1332.735,932.018c.465,1.306.061,2.643-.9,2.985s-2.121-.438-2.586-1.744-.061-2.643.9-2.986,2.121.438,2.586,1.744" transform="translate(-1188.698 -831.959)" fill="#f09959"/>
          <path id="Path_51023" data-name="Path 51023" d="M1342,858.1c-1.13,8.766-11.78,7.637-11.78,7.637s-2.2-2.888-3.185-1.373,1.371-8.888,7.483-9.215c2.008-.108,7.483,2.952,7.483,2.952" transform="translate(-1186.698 -764.838)" fill="#303c60"/>
          <path id="Path_51024" data-name="Path 51024" d="M1270.369,802.188a5.78,5.78,0,1,1-5.769-5.412,5.6,5.6,0,0,1,5.769,5.412" transform="translate(-1125.891 -712.632)" fill="#303c60"/>
          <path id="Path_51025" data-name="Path 51025" d="M1204.655,1660.423h1.319l8.518-39.465h-2.9Z" transform="translate(-1077.436 -1449.774)" fill="#2e5b9a"/>
          <path id="Path_51026" data-name="Path 51026" d="M1497.872,1648.607h-1.319l-9.913-40.861h2.9Z" transform="translate(-1329.641 -1437.958)" fill="#2e5b9a"/>
          <path id="Path_51027" data-name="Path 51027" d="M1226.009,1420.124c-5.284,0-8.632-.949-10.768-3.03-2.648-2.58-3.2-6.576-3.2-11.783-.006-4.1-.1-6.766-.326-8.924a1.479,1.479,0,0,1,2.942-.3c.233,2.261.335,5.019.341,9.222.008,5.277.677,8.078,2.31,9.669,1.675,1.632,4.7,2.305,9.819,2.177a58.092,58.092,0,0,0,11.071-1.368c3.593-.73,6.189-1.258,9.268.213a1.478,1.478,0,0,1-1.275,2.668c-2.185-1.044-4.039-.667-7.4.017a60.69,60.69,0,0,1-11.587,1.426q-.609.015-1.187.015" transform="translate(-1083.74 -1247.463)" fill="#2e5b9a"/>
          <path id="Path_51028" data-name="Path 51028" d="M1233.486,1393.1l8.088.337-2.153,22.332s-6.029-3.849-5.935-7.99,0-14.679,0-14.679" transform="translate(-1103.221 -1245.984)" fill="#2e5b9a"/>
          <path id="Path_51029" data-name="Path 51029" d="M1602.037,1409.185c6.84-1.038,9.164-.711,13.35,7.079s9.758,21.816,12.962,23.628c4.825,2.728,6.424,9.417,8.4,9.116s3.256.575,1.1,2.367-5.637,3.317-6.828,3-2.114-5.461-5.223-7.132-2.175-3.042-1.971-4.52-9.076-8.279-16.072-16.738c-4.275-5.169-6.476-8.58-6.8-11.672a8.112,8.112,0,0,1,1.078-5.127" transform="translate(-1431.843 -1259.984)" fill="#f09959"/>
          <path id="Path_51030" data-name="Path 51030" d="M1618.993,1437.433c-1.589-4.03-3.182-10.681-4.679-16.779-2.13-8.672-4.362-10.73-5.777-11.656-1.71-.428-3.736-.232-6.5.187a8.113,8.113,0,0,0-1.078,5.127c.326,3.092,2.528,6.5,6.8,11.673a122.7,122.7,0,0,0,11.232,11.448" transform="translate(-1431.843 -1259.985)" fill="#e38540"/>
          <path id="Path_51031" data-name="Path 51031" d="M1575.173,1416.042s-1.82,13.731-3.514,15.126c-1.212,1-2.071,1.065-2.918-3.03s1.318-19.38,1.318-19.38Z" transform="translate(-1402.896 -1259.984)" fill="#2e5b9a"/>
          <path id="Path_51032" data-name="Path 51032" d="M1474.945,1444.1l-16.842,2.83,9.508-13.634,7.236-1.474,4.339,1Z" transform="translate(-1304.118 -1280.615)" fill="#f09959"/>
          <path id="Path_51033" data-name="Path 51033" d="M1815.055,1730.375c-.546,2.2-.48,3.827.469,4.642s4.533,6.872,4.533,6.872l1.117-.17-2.586-5.542Z" transform="translate(-1623.066 -1547.637)" fill="#2e5b9a"/>
          <path id="Path_51034" data-name="Path 51034" d="M1822.706,1741.156c1.191.318,4.672-1.208,6.828-3s.88-2.667-1.1-2.367a.849.849,0,0,1-.332-.017c-.99,2.211-4.244,3.868-5.294,1.534-1.041-2.314-5.5-6.919-7.3-7.905a.417.417,0,0,1,0,.1c-.2,1.477-1.139,2.849,1.971,4.52s4.033,6.814,5.223,7.132" transform="translate(-1623.523 -1546.766)" fill="#2e5b9a"/>
          <path id="Path_51035" data-name="Path 51035" d="M1261.709,1413.044c-5.975,10.723-1.894,17.539,5.369,18.233s18.728-.632,25.411-6.185,12.169-11.426,11.4-12.3-42.182.253-42.182.253" transform="translate(-1125.891 -1263.293)" fill="#e38540"/>
          <path id="Path_51036" data-name="Path 51036" d="M1595.709,1438.385c1.224-3.671,2.634-6.487,5.365-6.539,2.871-.054,4.638,1.44,4.76,6.138.146,5.594.343,24.119.085,32.356-.2,6.235,1.622,8.232,1.468,14.732-.116,4.9,5.1,2.422,3.088,4.961-1.386,1.746-5.514,1.175-8.049.853-2.259-.287,1.169-7.057-1.957-8.866-2.682-1.553-2.735-4.074-1.041-5.983s.188-7.557-.941-11.51-2.882-8.23-4.032-17.578a22.394,22.394,0,0,1,1.253-8.565" transform="translate(-1426.006 -1280.633)" fill="#f09959"/>
          <path id="Path_51037" data-name="Path 51037" d="M1641.72,1861.212a11.839,11.839,0,0,1-2.86.586c-1.883.063-2.447-2.008-2.573-4.821a13.487,13.487,0,0,0-3.723-7.893c-.034.044-.068.088-.1.13-1.694,1.909-1.642,4.43,1.041,5.983,3.126,1.81-.3,8.579,1.957,8.866,2.535.322,6.662.893,8.049-.853,1.31-1.65-.316-1.781-1.786-2" transform="translate(-1459.036 -1653.809)" fill="#2e5b9a"/>
          <path id="Path_51038" data-name="Path 51038" d="M1624.92,1843.687s-2.745,2.867-2.494,4.059a45.564,45.564,0,0,1,1.239,6.526c.142,2.322.267,4.987.267,4.987s.988,0,1.067-.281.628-9.437.628-9.437Z" transform="translate(-1451.073 -1648.982)" fill="#2e5b9a"/>
          <path id="Path_51039" data-name="Path 51039" d="M1247.557,1408.758s-3.544,15.042.934,19.21,23.073.419,27.452.169c2.965-.169,5.836,3.45,5.836,3.45s-2.071-8.392-.659-15.169,3.69-7.233,3.69-7.233l-3.031-.427Z" transform="translate(-1114.616 -1259.984)" fill="#127edb"/>
          <path id="Path_51040" data-name="Path 51040" d="M1244.723,1371.519c1.516,3.215-1.631,8.769-.528,10.369s7.417.224,11.555-3.106,11.969-4.062,11.969-4.062Z" transform="translate(-1112.586 -1226.678)" fill="#00c4ff"/>
          <path id="Path_51041" data-name="Path 51041" d="M1273.8,1594.926c12.519.471,25.7.248,25.7-1.617s-.565-3.183-10.26-2.43-16.284,1.788-19.2,1.13,3.765,2.918,3.765,2.918" transform="translate(-1135.249 -1422.679)" fill="#2e5b9a"/>
          <path id="Path_51042" data-name="Path 51042" d="M1070.693,1394.905H894.308a1.363,1.363,0,0,1-1.363-1.363v-.682a1.364,1.364,0,0,1,1.363-1.363h176.385a1.363,1.363,0,0,1,1.363,1.363v.682a1.363,1.363,0,0,1-1.363,1.363" transform="translate(-798.644 -1244.546)" fill="#2e5b9a"/>
          <path id="Path_51043" data-name="Path 51043" d="M2694.561,906.089c1.213,4.276-1.749,8.682-5.012,9.608s-5.591-1.98-6.8-6.256.449-8.492,3.712-9.418,6.892,1.79,8.1,6.066" transform="translate(-2399.075 -804.813)" fill="#f09959"/>
          <path id="Path_51044" data-name="Path 51044" d="M2592.758,1743.547s8.363,12.989,9.492,13.553,3.953.706,2.894,2.824-1.483,10.448-2.471,10.871-9.459,1.412-8.189,0,2.052-.706,2.693-3.247,1.542-7.341.342-8.33-8.541-9.883-8.541-9.883Z" transform="translate(-2315.567 -1559.418)" fill="#f09959"/>
          <path id="Path_51045" data-name="Path 51045" d="M2082.089,1796.366s-10.166,16.754-12.048,18.26-8.095,3.765-3.012,4.142,7.53-1.694,10.73-2.635,7.154-1.506,5.648-3.953-.88-7.79,2.366-11.178-3.684-4.635-3.684-4.635" transform="translate(-1846.989 -1606.659)" fill="#f09959"/>
          <path id="Path_51046" data-name="Path 51046" d="M2241.518,1428.368s-25.165-.658-35.143,7.53c-5.836,8.848-19.954,34.954-21.051,37.831.753.753,4.989,2.112,6.871,1.924,5.553-6.622,12.894-12.346,15.813-17.541,3.6-6.4,4.706-9.6,10.542-10.166s19.014-2.447,22.967-2.447,0-17.131,0-17.131" transform="translate(-1954.541 -1277.512)" fill="#2b71d3"/>
          <path id="Path_51047" data-name="Path 51047" d="M2833.946,1674.683h-1.319l-9.459-39.465h2.9Z" transform="translate(-2525.023 -1462.529)" fill="#2e5b9a"/>
          <path id="Path_51048" data-name="Path 51048" d="M2551.055,1662.868h1.319l10.854-40.861h-2.9Z" transform="translate(-2281.648 -1450.713)" fill="#2e5b9a"/>
          <path id="Path_51049" data-name="Path 51049" d="M2434.14,1412.153l-14.631,2.525s-19.442.179-28.33,1.834c-8.085,1.506-9.277,10.693,0,23.343,5.27,7.186,9.726,12.918,18.837,19.382,2.318-1.7,3.2-2.346,3.845-6.44-.659-.9-2.366-6.563-2.9-7.671-5.04-10.535-11.767-14.366-11.86-15.4,1.129-1.835,29.918,9.567,35.642,2.86,5.465-6.4-.608-20.43-.608-20.43" transform="translate(-2132.826 -1263.021)" fill="#2978e6"/>
          <path id="Path_51050" data-name="Path 51050" d="M2700.834,1097.1a15.309,15.309,0,0,0-11.448,2.849c-3.207,3.269-6.836,8.661-6.614,17.554.282,11.295-1.748,12.02.37,15.126,8.833,3.647,23.939,19.319,20.382,2.518-2.576-12.165,5.649-21.233-.986-34.727-.54-1.1-1.215-2.163-1.7-3.32" transform="translate(-2398.912 -981.089)" fill="#f37168"/>
          <path id="Path_51051" data-name="Path 51051" d="M2682.773,1145.649c-.172,5.888-1,7.623-.367,9.469,3.6.368,10.188,1.808,11.834,4.113,1.882,2.635,3.765,3.012,2.886,1.067s-3.2-4.706.377-14.182,5.271-15.876,1.757-22.465Z" transform="translate(-2398.916 -1004.987)" fill="#d54a41"/>
          <path id="Path_51052" data-name="Path 51052" d="M2761.983,997.489a45.956,45.956,0,0,1-2.956-11.928l-6.212,1.835s3.53,7.906.141,10.73a32.463,32.463,0,0,0-2.422,2.212,15.311,15.311,0,0,1,11.449-2.849" transform="translate(-2460.061 -881.48)" fill="#f09959"/>
          <path id="Path_51053" data-name="Path 51053" d="M2778.609,989.871c-.368-.327-.829-.736-1.312-1.163l-5.067,1.5-.011.028a20.7,20.7,0,0,1,1.583,6.188,17.869,17.869,0,0,0,5.054-5.019c-.1-.579-.184-1.1-.247-1.53" transform="translate(-2479.456 -884.294)" fill="#e38540"/>
          <path id="Path_51054" data-name="Path 51054" d="M2497.96,1113.73c-6.4,2.238-5.688,8.978-11.577,18.919-3.048,5.144-5.878,5.068-5.878,5.068a136.32,136.32,0,0,1-15.792-1c-5.413-.662-5.757.95-1.992,2.3,7.593,2.715,15.473,5.637,21.826,4.931s17.219-16.916,17.78-21.136c.775-5.836-1.145-10.2-4.367-9.078" transform="translate(-2200.406 -995.954)" fill="#f09959"/>
          <path id="Path_51055" data-name="Path 51055" d="M2597.3,1290.971q-.6,0-1.22-.016a60.7,60.7,0,0,1-11.587-1.427c-3.365-.684-5.219-1.061-7.4-.017a1.478,1.478,0,1,1-1.275-2.668c3.078-1.471,5.675-.944,9.268-.213a58.091,58.091,0,0,0,11.071,1.368c5.562.138,8.965-.7,10.7-2.624,1.553-1.722,2.01-4.591,1.439-9.031-.193-1.5-.386-2.754-.557-3.857a26.54,26.54,0,0,1-.4-8.293c.364-2.939,1.339-6.859,3.6-14.466a1.479,1.479,0,0,1,2.835.842c-4.225,14.228-4.01,15.617-3.106,21.465.173,1.121.369,2.391.568,3.932.689,5.36,0,8.979-2.176,11.389-2.24,2.484-5.892,3.615-11.751,3.615" transform="translate(-2303.041 -1116.803)" fill="#2e5b9a"/>
          <path id="Path_51056" data-name="Path 51056" d="M2082.78,1930.081c-6.745,3.3-10.376,5.189-12.538,5.009-.51-.042-.934-.095-1.289-.15-2.405,1.422-6.245,3.1-1.925,3.422,5.083.377,7.53-1.694,10.73-2.635s7.154-1.506,5.648-3.953a5.152,5.152,0,0,1-.627-1.692" transform="translate(-1846.988 -1726.253)" fill="#d54a41"/>
          <path id="Path_51057" data-name="Path 51057" d="M2648.519,1874.5c-.165,5.34-.9,10.633-4.166,11.632a5.485,5.485,0,0,1-2.353.21c-.514.635-1.141.642-1.982,1.577-1.271,1.412,7.2.424,8.188,0s1.412-8.753,2.471-10.871c.87-1.74-.88-2.145-2.159-2.548" transform="translate(-2361.1 -1676.539)" fill="#d54a41"/>
          <path id="Path_51058" data-name="Path 51058" d="M2208.238,1211.46H2186.81a1.478,1.478,0,0,1-1.341-.855l-8.66-18.637a1.479,1.479,0,1,1,2.682-1.246l8.262,17.782h20.486a1.478,1.478,0,0,1,0,2.957" transform="translate(-1946.801 -1064.208)" fill="#75a1de"/>
          <path id="Path_51059" data-name="Path 51059" d="M2356.664,1315.149c-4.33-.063-8.624-2.643-10.757-2.267s-9.1,5.208-8.22,5.4,6.4-2.674,6.589-2.718a9.282,9.282,0,0,0,4.33,2.727c2.949.744.021-2.21,9.163.551,5.944,1.8-1.1-3.689-1.1-3.689" transform="translate(-2090.745 -1174.2)" fill="#f09959"/>
          <path id="Path_51060" data-name="Path 51060" d="M2728.777,1049.971l.637,5.126s-5.6.333-8.391,1.9-6.9,6.1-6.9,6.1l3.362-5.788.484-3.7Z" transform="translate(-2427.492 -939.088)" fill="#f2e5de"/>
          <path id="Path_51061" data-name="Path 51061" d="M2553.916,1108.522c-4.162-.78-6.087,2.949-8.785,9.036s-7.3,13.48-8.22,14.433-15.437,0-15.437,0-.439,4.2,0,4.706,2.949.439,2.949.439,1,.8,1.945,1.436,8.911,1.827,12.613,1.639,7.091-.5,7.593-1.067,10.6-16.127,11.232-21.712-1.767-8.513-3.891-8.911" transform="translate(-2255.016 -991.363)" fill="#f2e5de"/>
          <path id="Path_51062" data-name="Path 51062" d="M2657.32,842.927c-7.871.376-6.636,12.217-6.636,12.217s2.044.631,6.327-.075a23.635,23.635,0,0,1-.188-4.518,29.607,29.607,0,0,0,1.13,4.236c.906.415,1.929.047,3.671-.374a7.745,7.745,0,0,0,5.151,5.9c1.912.6,3.935,1.318,6.194.188s1.017-12.676-.182-15c-1.8-3.485-4.793-6.6-9.97-4.957a38.448,38.448,0,0,0-5.5,2.385" transform="translate(-2370.692 -751.371)" fill="#303c60"/>
          <path id="Path_51063" data-name="Path 51063" d="M2843.727,992.943l3.218,4.7s-3.566,8.911,6.806,12.948c8.123,3.162,7.166,8.733,3.5,14.335s2.2,10.495,2.2,10.495.9-6.206,8.787-7.377c10.762-1.6,13.809-16.046,5.771-23.27-6.652-5.978-8.675-1.028-13.178-6.392s-13-1.741-13-1.741l-3.115-4.543Z" transform="translate(-2543.412 -887.325)" fill="#303c60"/>
          <path id="Path_51064" data-name="Path 51064" d="M2910.2,1040.689a.257.257,0,0,1-.226-.381c2.712-4.957.5-10.963-.614-12.59-.117-.172-.229-.346-.347-.53-1.094-1.708-2.456-3.833-9.714-5.14a11.507,11.507,0,0,1-4.642-2.444c-3.1-2.273-6.606-4.849-14.231-1.34a.257.257,0,1,1-.215-.467c7.9-3.636,11.54-.964,14.75,1.393a11.141,11.141,0,0,0,4.429,2.353c7.479,1.346,8.908,3.577,10.056,5.369.116.181.226.352.339.517a13.933,13.933,0,0,1,1.839,5.337,12.53,12.53,0,0,1-1.2,7.79.258.258,0,0,1-.226.134" transform="translate(-2575.908 -908.715)" fill="#303c60"/>
          <path id="Path_51065" data-name="Path 51065" d="M2756.479,951.121a11.307,11.307,0,0,1-1.667-.134c-2.743-.411-6.424-1.971-6.713-10.738a.257.257,0,0,1,.249-.266.253.253,0,0,1,.265.249c.12,3.629.84,6.314,2.142,7.983a6.031,6.031,0,0,0,4.133,2.263c2.562.384,4.26-.091,5.05-1.412a.257.257,0,0,1,.442.264c-.712,1.192-2.021,1.791-3.9,1.791" transform="translate(-2457.883 -840.716)" fill="#303c60"/>
          <path id="Path_51066" data-name="Path 51066" d="M336.105,1104.348c-9.135,5.224-21.842,26.938-19.159,30.481s17.083-5.774,17.083-5.774Z" transform="translate(-283.149 -987.722)" fill="#00c4ff"/>
          <path id="Path_51067" data-name="Path 51067" d="M519.24,849.843c-3.488-.095-2.194-2.688-6.205-1.652-2.109.544-.552,1.412-3.292,1.13s-4.088-.565-4.433,1.224-.512,2.353-1.83,2.636-1.913,2.635,0,4.236.983,2.259.559,3.577,1.02,1.412,1.8,2.636-.722,1.455.408,2.516a4,4,0,0,0,2.714.967l4.755-9.117Z" transform="translate(-449.216 -758.399)" fill="#303c60"/>
          <path id="Path_51068" data-name="Path 51068" d="M1286.685,1869.518a26.9,26.9,0,0,0,9.036-1.412c3.953-1.553,6.636-3.953,5.93-1.13s-3.953,7.668-6.777,8.14-3.812,3.578-5.365,3.578-3.812-3.578-7.765-5.366c-3.6-1.63,4.941-3.81,4.941-3.81" transform="translate(-1145.591 -1668.643)" fill="#2e5b9a"/>
          <path id="Path_51069" data-name="Path 51069" d="M902.938,1869.042a19.547,19.547,0,0,0,5.858,5c3.842,2.118,8.275,3.137,5.526,4.1a18.027,18.027,0,0,1-10.687.564c-2.749-.8-5.972-.966-6.824-2.265s1-4.561.231-9.436c-.618-3.906,5.9,2.044,5.9,2.044" transform="translate(-801.898 -1668.643)" fill="#2e5b9a"/>
          <path id="Path_51070" data-name="Path 51070" d="M668.789,1448.947s29.443,11.024,31.815,14.106,33.321,31.156,33.321,33.227-5.271,5.836-5.271,5.836-26.544-16.284-33.133-24.567-22.669-12.276-31.219-13.044,4.487-15.558,4.487-15.558" transform="translate(-591.549 -1295.929)" fill="#276ed3"/>
          <path id="Path_51071" data-name="Path 51071" d="M537.931,1446.112s20.143-.753,24.473,0,13.827.744,7.615,18.276c-4.869,13.741-6.476,31.139-6.476,31.139l-9.681,2.378s.384-31.284,5-39.613a155.268,155.268,0,0,0-18.1,4.083c-15.876,4.54-24.58,2.267-24.58,2.267l-2.364-8.283Z" transform="translate(-459.561 -1293.095)" fill="#2978e6"/>
          <path id="Path_51072" data-name="Path 51072" d="M541.129,956.485l-4.922,14.542,6.218,4.094,3.524-12.565Z" transform="translate(-479.581 -855.475)" fill="#a86b48"/>
          <path id="Path_51073" data-name="Path 51073" d="M569.417,973.139l2.968-10.582-4.82-6.071-1.8,5.319a30.289,30.289,0,0,0,3.652,11.334" transform="translate(-506.017 -855.475)" fill="#7a4e34"/>
          <path id="Path_51074" data-name="Path 51074" d="M595.367,916.9c.16,4.423-2.013,8.251-5.466,8.591s-6.6-2.954-7.039-7.358,2.013-8.251,5.466-8.591,6.787.379,7.039,7.358" transform="translate(-521.263 -813.428)" fill="#a86b48"/>
          <path id="Path_51075" data-name="Path 51075" d="M443.241,1090.173c-15.108,10.2-5.711,26.69-2.394,38.739,2.825,10.262,2.733,16.464,3.157,16.464s10.814-1.553,16.743-6.918a90.856,90.856,0,0,0,9.939-10.561s-7.6-1.353-10.08-11.181c-1.26-4.989-.687-7.7-3.561-15.6s-13.8-10.938-13.8-10.938" transform="translate(-388.978 -975.044)" fill="#00c4ff"/>
          <path id="Path_51076" data-name="Path 51076" d="M513.825,1056.642l1.618-3.959s5.13,3.389,7.177,4.989a11.542,11.542,0,0,0,3.31,1.977s.74,5.675.259,5.16a29.079,29.079,0,0,0-12.365-8.167" transform="translate(-459.562 -941.513)" fill="#00c4ff"/>
          <path id="Path_51077" data-name="Path 51077" d="M450.423,1674.683h1.319l9.459-39.465h-2.9Z" transform="translate(-402.856 -1462.529)" fill="#2e5b9a"/>
          <path id="Path_51078" data-name="Path 51078" d="M721.5,1662.868h-1.319l-10.854-40.861h2.9Z" transform="translate(-634.414 -1450.713)" fill="#2e5b9a"/>
          <path id="Path_51079" data-name="Path 51079" d="M438.715,1337.521c-5.284,0-8.632-.949-10.768-3.03-2.648-2.58-3.2-6.576-3.2-11.783-.017-10.946-.622-13.209-3.7-19.893a1.479,1.479,0,0,1,2.685-1.238c3.257,7.065,3.958,9.662,3.975,21.126.008,5.277.677,8.078,2.31,9.669,1.675,1.632,4.7,2.3,9.819,2.177a58.091,58.091,0,0,0,11.071-1.368c3.593-.73,6.189-1.258,9.268.213a1.478,1.478,0,1,1-1.275,2.668c-2.185-1.044-4.039-.667-7.4.017a60.7,60.7,0,0,1-11.587,1.427q-.609.015-1.187.015" transform="translate(-376.453 -1163.354)" fill="#2e5b9a"/>
          <path id="Path_51080" data-name="Path 51080" d="M1013.693,1209.842H992.264a1.479,1.479,0,0,1,0-2.957h20.485l8.262-17.782a1.479,1.479,0,1,1,2.682,1.246l-8.66,18.637a1.479,1.479,0,0,1-1.341.856" transform="translate(-886.153 -1062.762)" fill="#3e6bab"/>
          <path id="Path_51081" data-name="Path 51081" d="M519.121,1110.414s3.765,11.484,8.424,16.237,14.036,6.35,16.972,6.164c-2.341-.941-6.8-3.618-8.59-10.713-1.26-4.99-.687-7.7-3.561-15.6-2.133-5.869-8.705-9.051-11.951-10.3,4.051,2.91,9.117,7.7,10.673,11.348,1.728,4.047-11.968,2.871-11.968,2.871" transform="translate(-464.299 -980.43)" fill="#00ade2"/>
          <path id="Path_51082" data-name="Path 51082" d="M990.247,1303.391s6.494-2.965,7.2-2.682,7.906,4.63,7.906,5.35-6.353-2.685-6.353-2.685.706,1.882.283,2.785-5.307.9-9.713.62.677-3.388.677-3.388" transform="translate(-883.458 -1163.329)" fill="#a86b48"/>
          <path id="Path_51083" data-name="Path 51083" d="M512.023,1141.1c-5.987,12.27,14.549,24.709,26.733,25.814s26.658-2.881,26.658-2.881l-1.632-3.983s-24.408-3.186-25.026-3.632-24.54-19.812-26.733-15.318" transform="translate(-456.993 -1019.99)" fill="#00c4ff"/>
          <path id="Path_51084" data-name="Path 51084" d="M560.279,943.352c.555,1.459.148,2.968-.909,3.37s-2.363-.455-2.918-1.915-.148-2.968.909-3.37,2.363.455,2.918,1.914" transform="translate(-497.465 -841.927)" fill="#a86b48"/>
          <path id="Path_51085" data-name="Path 51085" d="M587.031,860.033c1.654-.69,3.517-1.43,2.941,1.381-.251,1.224,0,.879.439,2.008s-1.107,2.016-1.609,2.644.731,1.309-.273,2.062-2.328-.279-3.263,0c-2.792.833-2.447-1.363-4.016-1.82s-2.338-.386-2.635.618,1.1,4.308-.094,3.994-1.461,2.353-1.781,3.859-1.139-1.04-1.086-2.762c.081-2.642-.575-3.752-1.548-4.491s-1.388-7.462,3.319-7.713a23.293,23.293,0,0,0,6.744-1.13c2.008-.424,2.11,1.664,2.864,1.349" transform="translate(-512.92 -767.95)" fill="#303c60"/>
          <path id="Path_51086" data-name="Path 51086" d="M3173.747,1598.823c3,2.74,1.7,5.48-.522,10.568s-2.609,23.876-2.609,23.876l1.826-.261s-.261-19.31,2.218-24.528,3.523-7.828,5.741-6.132-6.654-3.523-6.654-3.523" transform="translate(-2835.78 -1429.977)" fill="#74b570"/>
          <path id="Path_51087" data-name="Path 51087" d="M3183.284,1493.524c.365-1.624,2.529-3.381,5.423-4.871-.43,2.395-1.81,6.311-.382,7.114,1.926,1.083.188-4.384.931-7.389a35.764,35.764,0,0,1,9-2.951c0,.011-.008.022-.012.033-1.7,4.305-3.914,6-3,6.654.687.491,2.925-4.483,5.88-7.032,2.219-.118,4.095.183,5.205,1.061,1.716,1.359,2.867,2.564,1.142,6.7a7.753,7.753,0,0,1-3.747,1.358c-3.914.391-5.741.522-3,1.827,1.342.639,3.591-.036,5.414-.447-.592,1.09-1.318,2.324-2.2,3.729a13.861,13.861,0,0,1-1.834,2.334,5.79,5.79,0,0,1-2.944-.005c-1.826-.783-6.523-3.262-7.7-2.218-1.149,1.022,8.7,1.669,8.016,4.265-4.774,2.75-10.236,1.442-11.2-1.084-1.3-3.391-6.084-4.189-4.988-9.077" transform="translate(-2846.965 -1328.226)" fill="#9cd499"/>
          <path id="Path_51088" data-name="Path 51088" d="M3153.027,1726.758c-5.219-3.914-10.568-.261-13.308,3.914s-.783,13.569-.783,13.569,1.044,0,1.044-.391-2.87-11.09,3.914-15.917c4.244-3.02,7.306-1.566,7.7-.131s-1.7,4.045-1.7,4.045Z" transform="translate(-2806.839 -1542.908)" fill="#74b570"/>
          <path id="Path_51089" data-name="Path 51089" d="M3162.474,1664.713c5.219,0,6.915,8.089,5.48,12.786s-3.392,13.438-3.392,13.438l-1.3-1.3s4.958-12.264,3.783-17.744-4.044-6.393-4.566-6.393,0-.783,0-.783" transform="translate(-2828.29 -1488.909)" fill="#9cd499"/>
          <path id="Path_51090" data-name="Path 51090" d="M3194.793,1776.352a3.782,3.782,0,0,1,1.374-1.154,10.3,10.3,0,0,1-.271,1.118c-.654,2.14-1.416,5.119-2.052,7.729l-.285-1.644c-.032-.187-.058-.391-.075-.607a50.458,50.458,0,0,0,1.31-5.442" transform="translate(-2856.232 -1587.726)" fill="#74b570"/>
          <path id="Path_51091" data-name="Path 51091" d="M3196.544,1724.2c9.916-4.175,4.692-9.9,13.433-6.121a1.521,1.521,0,1,1-.652,2.088c-2.609-.391-1.7,1.7,2.61,2.218a9.683,9.683,0,0,1,2.018.426c2.051,3.94,2.975,9.123-1.365,10.925a9.829,9.829,0,0,1-3.089.634c-1.34-1.065.327-7.225-1.738-6.375-1.983.817.621,5.281.264,6.406a28.6,28.6,0,0,1-6.194-.868,3.083,3.083,0,0,1-1.638-1.885c-.652-2.74,3.653-4.436,3.784-6.784.12-2.159-1.578,4.75-6.077,5.767-4.067-1.9-5.99-4.479-1.355-6.43" transform="translate(-2856.556 -1535.535)" fill="#9cd499"/>
          <path id="Path_51092" data-name="Path 51092" d="M3017.688,1636.5c1.043-2.218-1.7-2.74-1.566-1.044.115,1.5.129,5.156-1.413,6.151a24.186,24.186,0,0,1-9.01-2.992,1.111,1.111,0,0,1,.115-.68c1.174-2.349,8.741-4.306,6.393-5.089-1.871-.623-5.148,3.057-7.789,4.91-1.586-1.2-2.649-2.638-2.649-4.239,0-2.168,2.634-4.621,6.04-5.794,1.533.154,2.956.993,5.181,2.253,3.285,1.862,2.525-1.148-.581-2.935a9.357,9.357,0,0,1,7.327,4.022,4.576,4.576,0,0,0,1.052,2.98c3.378,4.937-.521,7.82-5.181,7.633a30.612,30.612,0,0,1,2.079-5.176" transform="translate(-2684.765 -1455.214)" fill="#9cd499"/>
          <path id="Path_51093" data-name="Path 51093" d="M3265.243,1738.524a44.319,44.319,0,0,0,8.865,5.842c3.479,1.566,2.783,6.669,2.783,6.669s.522-4.407-2.378-5.915-4.813-3.305-7.017-3.653a31.941,31.941,0,0,1-3.421-.7s.7-1.392.29-1.914.877-.333.877-.333" transform="translate(-2919.369 -1554.896)" fill="#74b570"/>
          <path id="Path_51094" data-name="Path 51094" d="M3235.583,1519.572a40.919,40.919,0,0,0-17.455,9.916c-1.276,1.45-1.276,1.856-1.276,1.856l.986,1.856.464-.232s-.754-1.566,1.218-3.6a35.677,35.677,0,0,1,10.38-7.481c2.842-1.218,5.683-2.32,5.683-2.32" transform="translate(-2877.132 -1359.096)" fill="#74b570"/>
          <path id="Path_51095" data-name="Path 51095" d="M3111.287,1900.619h3.567a4.593,4.593,0,0,0,4.593-4.593v-8.2H3106.7v8.2a4.592,4.592,0,0,0,4.592,4.593" transform="translate(-2778.609 -1688.464)" fill="#75a1de"/>
          <rect id="Rectangle_13205" data-name="Rectangle 13205" width="12.752" height="0.898" transform="translate(328.086 200.832)" fill="#fff"/>
          <rect id="Rectangle_13206" data-name="Rectangle 13206" width="12.752" height="0.528" transform="translate(328.086 202.468)" fill="#fff"/>
          <path id="Path_51096" data-name="Path 51096" d="M1418.92,117.906a17.638,17.638,0,1,0-30.608,11.953,8,8,0,0,1,2.119,5.424v7.907a9.327,9.327,0,0,0,9.3,9.3h3.1a9.327,9.327,0,0,0,9.3-9.3v-7.906a8.085,8.085,0,0,1,2.152-5.46,17.573,17.573,0,0,0,4.636-11.918" transform="translate(-1237.522 -89.679)" fill="#f5dc95"/>
          <g id="Group_58467" data-name="Group 58467" transform="translate(148.586 14.237)" opacity="0.5">
            <g id="Group_58466" data-name="Group 58466">
              <g id="Group_58465" data-name="Group 58465" clip-path="url(#clip-path-3)">
                <path id="Path_51097" data-name="Path 51097" d="M1437.324,149.983a15.174,15.174,0,1,0-26.332,10.283,6.884,6.884,0,0,1,1.823,4.666v6.8a8.024,8.024,0,0,0,8,8h2.667a8.024,8.024,0,0,0,8-8v-6.8a6.956,6.956,0,0,1,1.851-4.7,15.118,15.118,0,0,0,3.989-10.253" transform="translate(-1406.976 -134.809)" fill="#fff"/>
              </g>
            </g>
          </g>
          <path id="Path_51098" data-name="Path 51098" d="M1467.869,327.021h-5.808a.528.528,0,0,1-.526-.48c-.01-.113-1.094-11.326-6.108-14.466a.528.528,0,0,1,.56-.9c4.891,3.063,6.281,12.511,6.548,14.784h4.776a17.3,17.3,0,0,1,.475-4.234,23.257,23.257,0,0,1,5.681-10.46.528.528,0,1,1,.778.714c-6.592,7.177-5.859,14.376-5.851,14.448a.528.528,0,0,1-.525.588" transform="translate(-1301.503 -278.246)" fill="#94bdf2"/>
          <path id="Path_51099" data-name="Path 51099" d="M1466.693,267c-1.961,0-4.635-1.393-7.45-2.9-3.637,1.937-7.033,3.674-8.934,2.521-.893-.542-1.321-1.6-1.306-3.241.014-1.543.456-2.583,1.315-3.092,1.9-1.128,5.308.671,8.927,2.614,3.69-1.968,7.165-3.8,9.063-2.645.852.519,1.274,1.573,1.254,3.135-.021,1.624-.488,2.717-1.388,3.248a2.865,2.865,0,0,1-1.481.364m-6.328-3.5c2.9,1.541,5.933,3.017,7.272,2.227.56-.33.853-1.121.868-2.351.015-1.161-.236-1.908-.747-2.219-1.294-.788-4.438.776-7.393,2.343m-8.621-2.511a1.727,1.727,0,0,0-.889.206c-.519.307-.787,1.045-.8,2.193-.011,1.218.257,2,.8,2.328,1.3.79,4.346-.678,7.266-2.219-2.36-1.259-4.838-2.508-6.377-2.508" transform="translate(-1295.978 -232.448)" fill="#94bdf2"/>
          <path id="Path_51100" data-name="Path 51100" d="M1521.39,579.172h-3.379a2.171,2.171,0,0,1-2.165-2.165v-.317a2.171,2.171,0,0,1,2.165-2.165h3.379a2.171,2.171,0,0,1,2.165,2.165v.317a2.171,2.171,0,0,1-2.165,2.165" transform="translate(-1355.763 -513.852)" fill="#94bdf2"/>
          <path id="Path_51101" data-name="Path 51101" d="M1443.061,452.859v5.592a9.768,9.768,0,0,0,9.74,9.74h3.247a9.768,9.768,0,0,0,9.74-9.74v-5.592Z" transform="translate(-1290.665 -405.034)" fill="#94bdf2"/>
          <path id="Path_51102" data-name="Path 51102" d="M1458.194,446.867h-22.248a1.271,1.271,0,0,1-1.267-1.267v-.141a1.271,1.271,0,0,1,1.267-1.267h22.248a1.271,1.271,0,0,1,1.267,1.267v.141a1.271,1.271,0,0,1-1.267,1.267" transform="translate(-1283.168 -397.283)" fill="#9ec8ff"/>
          <path id="Path_51103" data-name="Path 51103" d="M1458.912,465.948l-22.08,2.727a1.271,1.271,0,0,1-1.413-1.1l-.017-.14a1.271,1.271,0,0,1,1.1-1.413l22.08-2.727a1.271,1.271,0,0,1,1.413,1.1l.017.14a1.271,1.271,0,0,1-1.1,1.413" transform="translate(-1283.806 -414.358)" fill="#9ec8ff"/>
          <path id="Path_51104" data-name="Path 51104" d="M1458.912,502.54l-22.08,2.727a1.271,1.271,0,0,1-1.413-1.1l-.017-.14a1.271,1.271,0,0,1,1.1-1.413l22.08-2.727a1.271,1.271,0,0,1,1.413,1.1l.017.14a1.271,1.271,0,0,1-1.1,1.413" transform="translate(-1283.806 -447.085)" fill="#9ec8ff"/>
          <path id="Path_51105" data-name="Path 51105" d="M1478.039,541.7l-18.39,2.271a1.166,1.166,0,0,1-1.3-1.012l-.043-.347a1.166,1.166,0,0,1,1.012-1.3l18.389-2.271a1.166,1.166,0,0,1,1.3,1.012l.043.347a1.167,1.167,0,0,1-1.012,1.3" transform="translate(-1304.296 -482.115)" fill="#9ec8ff"/>
          <path id="Path_51106" data-name="Path 51106" d="M3052.46,511.356h11.853A11.853,11.853,0,1,1,3052.46,499.5Z" transform="translate(-2719.5 -446.752)" fill="#9ec8ff"/>
          <path id="Path_51107" data-name="Path 51107" d="M3183.494,495.641a11.853,11.853,0,0,0-11.853-11.853v11.853Z" transform="translate(-2836.696 -432.697)" fill="#fcd03f"/>
          <path id="Path_51108" data-name="Path 51108" d="M3059.4,596.024a11.853,11.853,0,0,0,11.853,11.853,11.909,11.909,0,0,1-11.853-11.853" transform="translate(-2736.312 -533.08)" fill="#f39892"/>
          <path id="Path_51109" data-name="Path 51109" d="M3071.257,483.787A11.853,11.853,0,0,0,3059.4,495.64a11.909,11.909,0,0,1,11.853-11.853" transform="translate(-2736.312 -432.696)" fill="#f39892"/>
          <path id="Path_51110" data-name="Path 51110" d="M3171.64,607.877a11.853,11.853,0,0,0,11.853-11.853,11.91,11.91,0,0,1-11.853,11.853" transform="translate(-2836.695 -533.08)" fill="#f39892"/>
          <rect id="Rectangle_13208" data-name="Rectangle 13208" width="2.589" height="7.49" transform="translate(100.984 56.763)" fill="#9ec8ff"/>
          <rect id="Rectangle_13209" data-name="Rectangle 13209" width="2.589" height="5.054" transform="translate(134.165 59.2)" fill="#9ec8ff"/>
          <rect id="Rectangle_13210" data-name="Rectangle 13210" width="2.589" height="17.526" transform="translate(111.955 46.728)" fill="#9ec8ff"/>
          <rect id="Rectangle_13211" data-name="Rectangle 13211" width="2.589" height="7.877" transform="translate(117.44 56.376)" fill="#9ec8ff"/>
          <rect id="Rectangle_13212" data-name="Rectangle 13212" width="2.589" height="10.107" transform="translate(122.926 54.146)" fill="#9ec8ff"/>
          <rect id="Rectangle_13213" data-name="Rectangle 13213" width="2.589" height="12.436" transform="translate(106.469 51.818)" fill="#9ec8ff"/>
          <rect id="Rectangle_13214" data-name="Rectangle 13214" width="2.589" height="15.317" transform="translate(128.429 48.937)" fill="#9ec8ff"/>
        </g>
      </g>
      <g id="Group_58471" data-name="Group 58471" transform="translate(3.391 19.211)">
        <g id="Group_58470" data-name="Group 58470" clip-path="url(#clip-path-4)">
          <path id="Path_51111" data-name="Path 51111" d="M167.123,332.449l-13.576-8.3-2.456,15.723a15.931,15.931,0,0,0,16.032-7.421" transform="translate(-138.526 -309.126)" fill="#a2dff2"/>
          <path id="Path_51112" data-name="Path 51112" d="M187.934,268.734c.037-.06.084-.142.082-.139a15.914,15.914,0,0,0,.352-15.665c-4.8,2.517-1.943.988-14.025,7.521,13.6,8.316,11.487,7.033,13.59,8.283" transform="translate(-159.323 -245.43)" fill="#9cd499"/>
          <path id="Path_51113" data-name="Path 51113" d="M33.029,184.021l14.924,5.5,14-7.57c-6.549-12.11-24.175-10.658-28.924,2.071" transform="translate(-32.932 -174.499)" fill="#9ec8ff"/>
          <path id="Path_51114" data-name="Path 51114" d="M37.023,293.3l2.456-15.723-14.924-5.5A15.946,15.946,0,0,0,37.023,293.3" transform="translate(-24.458 -262.555)" fill="#fff580"/>
          <path id="Path_51115" data-name="Path 51115" d="M21.34,232.925a1.531,1.531,0,0,1,.754.2A15.215,15.215,0,0,1,22.636,231l8.1,2.986s0,0,0-.007a1.44,1.44,0,0,1,.352-.988l-.811-.3-7.275-2.681a15.59,15.59,0,0,1,2.344-3.942,1.577,1.577,0,0,1-.809-.679,16.667,16.667,0,0,0-2.525,4.256l-.009,0-.184.493-.185.5.009,0a16.287,16.287,0,0,0-.594,2.317,1.467,1.467,0,0,1,.288-.03" transform="translate(-22.22 -220.8)" fill="#fff"/>
          <path id="Path_51116" data-name="Path 51116" d="M49.793,177.695l.009,0-.251-.464-.016-.028-.205-.382-.008,0a16.251,16.251,0,0,0-6.56-6.363,16.693,16.693,0,0,0-18.236,1.99,1.633,1.633,0,0,1,.671.818,15.421,15.421,0,0,1,8.89-3.548,15.148,15.148,0,0,1,14.276,7.551L44.228,179.5c-.854.459-2.047,1.105-4.045,2.186l-4.953,2.68-.128.069-.416-.254-.023.145-2.912-1.073a1.457,1.457,0,0,1-.389.982l3.135,1.155-2.306,14.764A15.485,15.485,0,0,1,19.7,185.225a1.512,1.512,0,0,1-.513.094,1.54,1.54,0,0,1-.543-.1A16.538,16.538,0,0,0,32.029,201.2v.009l.52.082.523.082v-.009a16.455,16.455,0,0,0,15.773-7.32l.011.006.1-.169s.168-.276.168-.276c.026-.042.057-.095.074-.125l.011-.019.008-.014.167-.273-.008,0a16.506,16.506,0,0,0,.412-15.474M33.235,200.321l2.251-14.411,5.858,3.582c2.362,1.445,3.712,2.271,4.563,2.79l2.022,1.237a15.324,15.324,0,0,1-14.694,6.8M48.489,192.6l-.1-.059c-.555-.329-.8-.471-1.9-1.145l-10.343-6.325,8.586-4.643c1.261-.678,1.778-.949,3.058-1.618l1.1-.574a15.448,15.448,0,0,1-.4,14.364" transform="translate(-20.065 -170.026)" fill="#e7f3fe"/>
        </g>
      </g>
      <g id="Group_58473" data-name="Group 58473" transform="translate(0 0)">
        <g id="Group_58472" data-name="Group 58472" clip-path="url(#clip-path-5)">
          <path id="Path_51118" data-name="Path 51118" d="M620.622,177.533h-43.78a.863.863,0,0,1-.863-.863v-18.84a.863.863,0,0,1,.863-.863h43.78a.863.863,0,0,1,.863.863v18.84a.863.863,0,0,1-.863.863" transform="translate(-515.152 -140.391)" fill="#9ec8ff"/>
          <path id="Path_51119" data-name="Path 51119" d="M630.081,222.327H588.457a.7.7,0,0,1-.7-.7v-12.8a.7.7,0,0,1,.7-.7h41.624a.7.7,0,0,1,.7.7v12.8a.7.7,0,0,1-.7.7" transform="translate(-525.689 -186.15)" fill="#fff"/>
          <path id="Path_51120" data-name="Path 51120" d="M595.139,172.9h-1.01a.386.386,0,0,1-.386-.386v-.832a.386.386,0,0,1,.386-.386h1.01a.386.386,0,0,1,.386.386v.832a.386.386,0,0,1-.386.386" transform="translate(-531.04 -153.209)" fill="#fff"/>
          <path id="Path_51121" data-name="Path 51121" d="M625.831,172.9h-1.01a.386.386,0,0,1-.386-.386v-.832a.386.386,0,0,1,.386-.386h1.01a.386.386,0,0,1,.386.386v.832a.386.386,0,0,1-.386.386" transform="translate(-558.49 -153.209)" fill="#fff"/>
          <path id="Path_51122" data-name="Path 51122" d="M656.524,172.9h-1.01a.386.386,0,0,1-.386-.386v-.832a.386.386,0,0,1,.386-.386h1.01a.386.386,0,0,1,.386.386v.832a.386.386,0,0,1-.386.386" transform="translate(-585.942 -153.209)" fill="#fff"/>
          <path id="Path_51123" data-name="Path 51123" d="M780.053,226.065H757.3a.681.681,0,1,1,0-1.361h22.754a.681.681,0,1,1,0,1.361" transform="translate(-676.714 -200.974)" fill="#9ec8ff"/>
          <path id="Path_51124" data-name="Path 51124" d="M618,325.509H595.242a.681.681,0,1,1,0-1.361H618a.681.681,0,0,1,0,1.361" transform="translate(-531.772 -289.916)" fill="#9ec8ff"/>
          <path id="Path_51125" data-name="Path 51125" d="M834.248,325.509h-2.354a.233.233,0,0,1-.233-.233v-.9a.233.233,0,0,1,.233-.233h2.354a.233.233,0,0,1,.233.233v.9a.233.233,0,0,1-.233.233" transform="translate(-743.833 -289.916)" fill="#9ec8ff"/>
          <path id="Path_51126" data-name="Path 51126" d="M867.857,325.509H865.5a.233.233,0,0,1-.233-.233v-.9a.233.233,0,0,1,.233-.233h2.354a.233.233,0,0,1,.233.233v.9a.233.233,0,0,1-.233.233" transform="translate(-773.892 -289.916)" fill="#9ec8ff"/>
          <path id="Path_51127" data-name="Path 51127" d="M657.564,257.854h-37.68a.462.462,0,0,1,0-.924h37.68a.462.462,0,0,1,0,.924" transform="translate(-554.007 -229.796)" fill="#9ec8ff"/>
          <path id="Path_51128" data-name="Path 51128" d="M657.564,276.73h-37.68a.462.462,0,0,1,0-.924h37.68a.462.462,0,0,1,0,.924" transform="translate(-554.007 -246.679)" fill="#9ec8ff"/>
          <path id="Path_51129" data-name="Path 51129" d="M1892.446,131.786h-19.432V120.46h14.614l4.818,4.818Z" transform="translate(-1675.212 -107.738)" fill="#ffb8b3"/>
          <path id="Path_51130" data-name="Path 51130" d="M2008.014,120.46V126.5h5.175v-1.162l-4.851-4.851Z" transform="translate(-1795.956 -107.738)" fill="#f39892"/>
          <path id="Path_51131" data-name="Path 51131" d="M2011.392,120.46v4.884h4.818Z" transform="translate(-1798.977 -107.738)" fill="#ffb8b3"/>
          <path id="Path_51132" data-name="Path 51132" d="M1899.517,154.89h-8.66a.343.343,0,0,1,0-.686h8.66a.343.343,0,1,1,0,.686" transform="translate(-1690.864 -137.919)" fill="#fff"/>
          <path id="Path_51133" data-name="Path 51133" d="M1899.517,171.518h-8.66a.343.343,0,0,1,0-.686h8.66a.343.343,0,1,1,0,.686" transform="translate(-1690.864 -152.791)" fill="#fff"/>
          <path id="Path_51134" data-name="Path 51134" d="M1899.517,189.018h-8.66a.343.343,0,0,1,0-.686h8.66a.343.343,0,1,1,0,.686" transform="translate(-1690.864 -168.443)" fill="#fff"/>
          <path id="Path_51135" data-name="Path 51135" d="M1955.176,123.785a.581.581,0,1,1-.581-.581.581.581,0,0,1,.581.581" transform="translate(-1747.658 -110.193)" fill="#3e6bab"/>
          <rect id="Rectangle_13216" data-name="Rectangle 13216" width="14.891" height="12.35" transform="translate(118.729 25.553) rotate(-79.065)" fill="#fae8b6"/>
          <path id="Path_51136" data-name="Path 51136" d="M1184.913,169.717l-6.429-1.242a.317.317,0,0,1,.12-.622l6.429,1.242a.317.317,0,1,1-.12.622" transform="translate(-1053.8 -150.122)" fill="#9ec8ff"/>
          <path id="Path_51137" data-name="Path 51137" d="M1181.973,184.936l-6.429-1.242a.317.317,0,0,1,.12-.622l6.429,1.242a.317.317,0,1,1-.12.622" transform="translate(-1051.17 -163.733)" fill="#9ec8ff"/>
          <path id="Path_51138" data-name="Path 51138" d="M1178.951,200.573l-6.429-1.242a.317.317,0,0,1,.12-.622l6.429,1.242a.317.317,0,1,1-.12.622" transform="translate(-1048.467 -177.718)" fill="#9ec8ff"/>
          <path id="Path_51139" data-name="Path 51139" d="M1191.461,116.763a.528.528,0,1,1-.418-.619.528.528,0,0,1,.418.619" transform="translate(-1064.699 -103.87)" fill="#3e6bab"/>
          <path id="Path_51140" data-name="Path 51140" d="M1983,261.392l-18.766-1.977,1.239-11.763,14.879,1.567,3.477,4.3Z" transform="translate(-1756.802 -221.498)" fill="#9ec8ff"/>
          <path id="Path_51141" data-name="Path 51141" d="M1987.19,257.98l-13.968-1.471-1.045,9.925,17.366,1.829.612-5.811-3.4-.358Z" transform="translate(-1763.903 -229.42)" fill="#fff"/>
          <path id="Path_51142" data-name="Path 51142" d="M2016.907,290.107l-9.048-.953a.379.379,0,0,1,.08-.754l9.048.953a.379.379,0,1,1-.079.754" transform="translate(-1795.513 -257.941)" fill="#9ec8ff"/>
          <path id="Path_51143" data-name="Path 51143" d="M2014.918,308.99l-9.048-.953a.379.379,0,0,1,.079-.754l9.048.953a.379.379,0,0,1-.08.754" transform="translate(-1793.734 -274.829)" fill="#9ec8ff"/>
          <path id="Path_51144" data-name="Path 51144" d="M2012.841,328.7l-9.048-.953a.379.379,0,0,1,.079-.754l9.048.953a.379.379,0,0,1-.079.754" transform="translate(-1791.876 -292.461)" fill="#9ec8ff"/>
          <path id="Path_51145" data-name="Path 51145" d="M2038.127,268.451a.581.581,0,1,1-.581-.581.581.581,0,0,1,.581.581" transform="translate(-1821.849 -239.581)" fill="#3e6bab"/>
          <path id="Path_51146" data-name="Path 51146" d="M2915.1,131.622a6.479,6.479,0,1,1-6.479-6.479,6.479,6.479,0,0,1,6.479,6.479" transform="translate(-2595.657 -111.927)" fill="#9cd499"/>
          <path id="Path_51147" data-name="Path 51147" d="M2939.813,170.962h-.012a.317.317,0,0,1-.226-.107l-1.76-2a.317.317,0,0,1,.476-.419l1.539,1.749,3.521-3.446a.317.317,0,1,1,.443.453l-3.759,3.679a.317.317,0,0,1-.222.09" transform="translate(-2627.493 -149.049)" fill="#fff"/>
          <path id="Path_51148" data-name="Path 51148" d="M184.561,613.482h37.353a1.746,1.746,0,0,0,1.741-1.741V598.4a1.746,1.746,0,0,0-1.741-1.741H184.561a1.746,1.746,0,0,0-1.741,1.741v13.345a1.746,1.746,0,0,0,1.741,1.741" transform="translate(-163.513 -533.644)" fill="#9ec8ff"/>
          <path id="Path_51149" data-name="Path 51149" d="M432.179,719.975v9.284l-10.7-10.7s10.481,1.414,10.7,1.414" transform="translate(-376.97 -642.676)" fill="#9ec8ff"/>
          <path id="Path_51150" data-name="Path 51150" d="M204.295,625.943h33.658a1.48,1.48,0,0,0,1.476-1.476V613.928a1.48,1.48,0,0,0-1.476-1.476H204.295a1.48,1.48,0,0,0-1.476,1.476v10.539a1.48,1.48,0,0,0,1.476,1.476" transform="translate(-181.4 -547.773)" fill="#fff"/>
          <path id="Path_51151" data-name="Path 51151" d="M354.556,631.76h16.537a.725.725,0,1,0,0-1.451H354.556a.725.725,0,1,0,0,1.451" transform="translate(-316.464 -563.744)" fill="#9ec8ff"/>
          <path id="Path_51152" data-name="Path 51152" d="M226.491,663.4h30.672a.4.4,0,0,0,.4-.4v-.008a.4.4,0,0,0-.4-.4H226.491a.4.4,0,0,0-.4.4V663a.4.4,0,0,0,.4.4" transform="translate(-202.212 -592.615)" fill="#9ec8ff"/>
          <path id="Path_51153" data-name="Path 51153" d="M226.491,678.352h30.672a.4.4,0,0,0,.4-.4v-.008a.4.4,0,0,0-.4-.4H226.491a.4.4,0,0,0-.4.4v.008a.4.4,0,0,0,.4.4" transform="translate(-202.212 -605.985)" fill="#9ec8ff"/>
          <path id="Path_51154" data-name="Path 51154" d="M2808.935,618.332h1.958a.749.749,0,0,0,.749-.749v-1.612a.749.749,0,0,0-.749-.749h-1.958a.749.749,0,0,0-.749.749v1.612a.749.749,0,0,0,.749.749" transform="translate(-2511.625 -550.251)" fill="#9ec8ff"/>
          <path id="Path_51155" data-name="Path 51155" d="M2749.456,618.332h1.958a.748.748,0,0,0,.749-.749v-1.612a.749.749,0,0,0-.749-.749h-1.958a.749.749,0,0,0-.749.749v1.612a.749.749,0,0,0,.749.749" transform="translate(-2458.427 -550.251)" fill="#9ec8ff"/>
          <path id="Path_51156" data-name="Path 51156" d="M2689.975,618.332h1.958a.749.749,0,0,0,.749-.749v-1.612a.749.749,0,0,0-.749-.749h-1.958a.749.749,0,0,0-.748.749v1.612a.749.749,0,0,0,.748.749" transform="translate(-2405.228 -550.251)" fill="#9ec8ff"/>
        </g>
      </g>
    </g>
  </g>
</svg>
