<svg xmlns="http://www.w3.org/2000/svg" width="55.344" height="55.452" viewBox="0 0 55.344 55.452">
  <g id="Group_55714" data-name="Group 55714" transform="translate(-351.931 -1841.941)">
    <g id="Group_55629" data-name="Group 55629" transform="translate(-140.24 1648.897)">
      <g id="Group_55628" data-name="Group 55628" transform="translate(492.17 193.044)">
        <path id="Path_14086" data-name="Path 14086" d="M586.615,278.517c-.468-.412-.861-.75-1.24-1.1-.068-.063-.137-.211-.109-.278a13.01,13.01,0,0,1,.928-2.008,2.262,2.262,0,0,1,1.835-.913c.724-.053.984-.328.988-1.061q.008-1.621,0-3.243c0-.744-.256-1.007-.977-1.071a2.635,2.635,0,0,1-2.386-1.806q-.494-1.272-1.046-2.522a2.688,2.688,0,0,1,.373-3.025c.5-.6.481-.932-.073-1.492q-1.1-1.112-2.21-2.213c-.582-.578-.91-.595-1.534-.083a2.666,2.666,0,0,1-2.972.371c-.833-.365-1.668-.726-2.516-1.051a2.65,2.65,0,0,1-1.833-2.426c-.057-.687-.33-.951-1.035-.955q-1.646-.009-3.292,0c-.721,0-.976.268-1.038,1.009a2.592,2.592,0,0,1-1.719,2.332c-.892.367-1.786.73-2.673,1.109a2.658,2.658,0,0,1-2.922-.387c-.631-.513-.953-.5-1.533.076q-1.108,1.1-2.209,2.214c-.56.565-.578.893-.084,1.49a2.7,2.7,0,0,1,.382,3.025c-.361.815-.713,1.636-1.028,2.469a2.658,2.658,0,0,1-2.457,1.869c-.653.05-.924.334-.928,1q-.011,1.677,0,3.355c0,.691.273.953.975,1.015a2.638,2.638,0,0,1,2.387,1.806c.33.848.677,1.691,1.046,2.522a2.693,2.693,0,0,1-.373,3.025c-.494.6-.48.932.074,1.492q1.12,1.131,2.249,2.253c.531.525.891.548,1.452.081a2.691,2.691,0,0,1,3.114-.359c.788.371,1.6.693,2.416,1a2.645,2.645,0,0,1,1.834,2.425c.057.686.332.952,1.034.955q1.646.009,3.292,0c.719,0,.971-.267,1.039-1.01a2.6,2.6,0,0,1,1.725-2.331c1.3-.515,1.3-.505,2.223.538.1.108.182.224.324.4-.6.231-1.141.458-1.7.647a1.065,1.065,0,0,0-.811,1.058,2.588,2.588,0,0,1-2.593,2.483c-1.227.02-2.455.017-3.682,0a2.6,2.6,0,0,1-2.627-2.509,1.066,1.066,0,0,0-.78-1.025q-1.245-.481-2.467-1.023a1.064,1.064,0,0,0-1.234.141,2.644,2.644,0,0,1-3.8-.193q-1.192-1.178-2.365-2.374a2.592,2.592,0,0,1-.159-3.712,1.079,1.079,0,0,0,.168-1.279c-.365-.813-.709-1.637-1.025-2.471a1.057,1.057,0,0,0-1.027-.773,2.6,2.6,0,0,1-2.494-2.641q-.021-1.817,0-3.634a2.593,2.593,0,0,1,2.488-2.645,1.087,1.087,0,0,0,1.052-.82c.307-.817.645-1.624,1-2.419a1.078,1.078,0,0,0-.16-1.28,2.591,2.591,0,0,1,.149-3.712q1.193-1.217,2.4-2.415a2.633,2.633,0,0,1,3.761-.165,1.059,1.059,0,0,0,1.231.157c.83-.369,1.669-.723,2.518-1.046a1.006,1.006,0,0,0,.739-.985,2.608,2.608,0,0,1,2.662-2.534c1.209-.013,2.418-.015,3.627,0a2.591,2.591,0,0,1,2.613,2.462,1.087,1.087,0,0,0,.795,1.07c.833.313,1.653.664,2.465,1.028a1.059,1.059,0,0,0,1.232-.152,2.636,2.636,0,0,1,3.761.167q1.215,1.194,2.406,2.412a2.6,2.6,0,0,1,.144,3.715,1.078,1.078,0,0,0-.156,1.28c.359.8.7,1.6,1,2.42a1.086,1.086,0,0,0,1.054.817,2.6,2.6,0,0,1,2.485,2.649q.021,1.817,0,3.634a2.6,2.6,0,0,1-2.5,2.636,1.015,1.015,0,0,0-1.023.768C587.087,277.32,586.861,277.87,586.615,278.517Z" transform="translate(-543.445 -243.783)" fill="#222872"/>
        <path id="Path_14087" data-name="Path 14087" d="M575.625,304.292l1.516-.735c4.162,7.809,4.452,21.045-4.62,30.9a27.724,27.724,0,0,1-38.667,1.821c-.538.554-1.086,1.107-1.621,1.672-.3.32-.686.585-1.076.358a1.5,1.5,0,0,1-.636-.885c-.427-1.944-.793-3.9-1.18-5.856-.182-.918.292-1.42,1.2-1.24,1.968.387,3.932.794,5.9,1.187a.973.973,0,0,1,.874.669,1,1,0,0,1-.365,1.044c-.59.565-1.17,1.14-1.756,1.712a25.6,25.6,0,0,0,29.173,3.526,25.184,25.184,0,0,0,12.473-14.83A25.737,25.737,0,0,0,575.625,304.292ZM531.307,332.3l.652,3.27,2.58-2.615Z" transform="translate(-524.586 -287.815)" fill="#222872"/>
        <path id="Path_14088" data-name="Path 14088" d="M501.977,236.916l-1.509.737c-4.148-7.716-4.536-21.077,4.688-30.963a27.7,27.7,0,0,1,38.613-1.739c.512-.54,1.037-1.083,1.549-1.637a1.051,1.051,0,0,1,1.124-.437c.478.147.591.557.676,1,.375,1.936.767,3.869,1.151,5.8.169.851-.3,1.374-1.139,1.213q-3.064-.586-6.117-1.23a.885.885,0,0,1-.453-1.575c.6-.628,1.243-1.22,1.869-1.83a25.675,25.675,0,0,0-29.74-3.211,25.217,25.217,0,0,0-12.017,14.8A25.735,25.735,0,0,0,501.977,236.916ZM546.3,208.9l-.648-3.225-2.546,2.579Z" transform="translate(-497.664 -197.946)" fill="#222872"/>
        <g id="atom" transform="translate(-7.139 16.059)">
          <path id="Path_14170" data-name="Path 14170" d="M43.235,12.009q-.307-.4-.663-.794.244-.284.464-.568c1.51-1.958,1.939-3.735,1.207-5S41.759,3.86,39.308,4.189q-.388.052-.79.131-.137-.4-.29-.773C37.287,1.26,35.963,0,34.5,0s-2.787,1.26-3.728,3.547q-.153.373-.29.773-.4-.078-.79-.131c-2.451-.329-4.2.188-4.936,1.455s-.3,3.044,1.207,5q.219.284.464.568-.356.4-.663.794c-1.51,1.958-1.939,3.735-1.207,5,.588,1.018,1.835,1.552,3.573,1.552a10.275,10.275,0,0,0,1.362-.1q.465-.062.952-.163c.1.306.211.6.327.883.941,2.287,2.265,3.547,3.728,3.547s2.787-1.26,3.728-3.547c.116-.282.225-.577.327-.883q.486.1.952.163a10.276,10.276,0,0,0,1.362.1c1.739,0,2.986-.534,3.573-1.552C45.174,15.743,44.745,13.967,43.235,12.009ZM40.678,5.422c1.218,0,2.078.309,2.412.888.438.758.033,2.042-1.109,3.523q-.163.212-.343.423A21.842,21.842,0,0,0,39.4,8.407,21.355,21.355,0,0,0,38.9,5.6a9.923,9.923,0,0,1,1.781-.18Zm-4.41,9.14c-.6.346-1.19.656-1.768.931-.579-.276-1.17-.586-1.769-.931-.661-.382-1.293-.785-1.89-1.2-.05-.637-.077-1.3-.077-1.991,0-.772.034-1.514.1-2.22.532-.365,1.091-.718,1.672-1.053.668-.386,1.326-.726,1.967-1.025.642.3,1.3.639,1.967,1.025.581.335,1.14.688,1.672,1.053.062.706.1,1.448.1,2.22,0,.69-.027,1.354-.077,1.991C37.561,13.777,36.929,14.181,36.268,14.562Zm1.687.533c-.089.567-.2,1.1-.322,1.607-.494-.144-1.009-.317-1.54-.522q.421-.224.841-.465.522-.3,1.021-.62Zm-5.049,1.085c-.531.2-1.046.378-1.54.522-.124-.5-.233-1.04-.322-1.607q.5.318,1.021.62Q32.484,15.958,32.906,16.181ZM29.449,12.3c-.422-.349-.817-.705-1.182-1.065q.554-.529,1.191-1.043-.026.583-.026,1.178Q29.432,11.834,29.449,12.3Zm1.633-4.885q.134-.8.316-1.506c.473.132.966.293,1.475.482q-.5.263-1.007.553Q31.467,7.17,31.081,7.411Zm5.045-1.024c.509-.189,1-.35,1.475-.482q.181.709.316,1.506-.386-.241-.785-.471Q36.631,6.65,36.126,6.386Zm3.415,3.8q.635.513,1.191,1.043c-.365.359-.76.715-1.182,1.065q.016-.462.016-.93Q39.567,10.772,39.541,10.189ZM34.5,1.332c.963,0,1.987,1.226,2.718,3.3a21.331,21.331,0,0,0-2.718.978,21.337,21.337,0,0,0-2.718-.978C32.513,2.558,33.536,1.332,34.5,1.332ZM25.909,6.31c.334-.579,1.195-.888,2.412-.888A9.92,9.92,0,0,1,30.1,5.6a21.35,21.35,0,0,0-.5,2.805,21.841,21.841,0,0,0-2.237,1.849q-.179-.212-.343-.423C25.876,8.352,25.472,7.068,25.909,6.31Zm2.213,10.922c-1.218,0-2.078-.309-2.412-.888-.438-.758-.033-2.042,1.109-3.523q.244-.317.524-.633a21.236,21.236,0,0,0,2.229,1.894,21.727,21.727,0,0,0,.5,2.938A10.155,10.155,0,0,1,28.123,17.233ZM34.5,21.4c-.982,0-2.026-1.274-2.76-3.421a21.736,21.736,0,0,0,2.76-1.021,21.736,21.736,0,0,0,2.76,1.021C36.526,20.126,35.482,21.4,34.5,21.4Zm8.789-5.056c-.493.853-2.127,1.12-4.365.676a21.721,21.721,0,0,0,.5-2.938,21.227,21.227,0,0,0,2.229-1.894q.279.316.524.633C43.322,14.3,43.726,15.587,43.289,16.345Z" transform="translate(0)" fill="#009eff"/>
          <circle id="Ellipse_728" data-name="Ellipse 728" cx="2.058" cy="2.058" r="2.058" transform="translate(32.442 9.308)" fill="#009eff"/>
        </g>
      </g>
    </g>
  </g>
</svg>
