<svg xmlns="http://www.w3.org/2000/svg" width="52.309" height="52.307" viewBox="0 0 52.309 52.307">
  <g id="Group_68963" data-name="Group 68963" transform="translate(-8764.102 -1981)">
    <path id="Path_51296" data-name="Path 51296" d="M136.97,48.8l-.456-16.095a3.237,3.237,0,0,0-3.21-2.9h-.047c-.8.013-3.424.451-3.4,5.543l.034,8.743a4.136,4.136,0,0,1-.088.88,2.971,2.971,0,0,0-.365-.444,3.009,3.009,0,0,0-4.145-.029.832.832,0,0,0-.077.079,37.653,37.653,0,0,1-4.55,4.315c-.487.411-.948.8-1.325,1.139-1.554,1.4-1.761,3.341-1.759,5.055l.016,11.067a.817.817,0,0,0,.817.816h8.923a.816.816,0,0,0,.817-.817v-5.9l7.041-7.041a5.875,5.875,0,0,0,1.777-4.413ZM126.756,59.343a.816.816,0,0,0-.239.578v5.422h-7.29l-.015-10.249a4.865,4.865,0,0,1,1.218-3.838c.357-.322.787-.684,1.284-1.1a39.306,39.306,0,0,0,4.7-4.463,1.355,1.355,0,0,1,1.857,0,1.334,1.334,0,0,1,.381.951,1.467,1.467,0,0,1-.41.942l-5.584,5.583a.817.817,0,0,0,1.156,1.156l5.613-5.614a11.328,11.328,0,0,0,.729-.889,5.687,5.687,0,0,0,1.359-3.728l-.033-8.743c-.009-2.426.662-3.885,1.8-3.9h.021a1.606,1.606,0,0,1,1.576,1.31l.456,16.095a4.225,4.225,0,0,1-1.3,3.212ZM102.3,50.04c-.377-.34-.837-.728-1.325-1.139a37.669,37.669,0,0,1-4.55-4.316.785.785,0,0,0-.077-.079,3.009,3.009,0,0,0-4.145.029,2.969,2.969,0,0,0-.365.443,4.159,4.159,0,0,1-.087-.88l.033-8.744c.019-5.093-2.6-5.531-3.4-5.543a3.235,3.235,0,0,0-3.257,2.9l-.457,16.1a5.881,5.881,0,0,0,1.777,4.414l7.041,7.041v5.9a.816.816,0,0,0,.817.817h8.923a.817.817,0,0,0,.817-.816l.016-11.067c0-1.713-.2-3.654-1.758-5.055Zm.109,15.3H95.12V59.921a.819.819,0,0,0-.239-.578l-7.28-7.28a4.227,4.227,0,0,1-1.3-3.212l.456-16.095a1.606,1.606,0,0,1,1.576-1.31h.021c1.134.018,1.805,1.477,1.8,3.9l-.034,8.744a5.69,5.69,0,0,0,1.359,3.728,11.228,11.228,0,0,0,.729.89l5.612,5.613a.817.817,0,1,0,1.156-1.156l-5.584-5.584a1.317,1.317,0,1,1,1.828-1.9,39.329,39.329,0,0,0,4.705,4.463c.5.419.927.781,1.284,1.1a4.866,4.866,0,0,1,1.218,3.838Zm23.274-35.808A14.864,14.864,0,1,0,110.818,44.4a14.881,14.881,0,0,0,14.864-14.864Zm-14.864,13.23a13.23,13.23,0,1,1,13.23-13.23A13.245,13.245,0,0,1,110.818,42.766Z" transform="translate(8679.438 1966.329)" fill="#222872"/>
    <path id="Path_51418" data-name="Path 51418" d="M269.078,69.278a.816.816,0,0,0-.687-.559l-5.978-.667-2.481-5.479a.818.818,0,0,0-1.489,0l-2.481,5.479-5.978.667a.817.817,0,0,0-.46,1.416l4.444,4.053-1.213,5.892a.818.818,0,0,0,1.205.876l5.227-2.976,5.228,2.974a.818.818,0,0,0,1.2-.876l-1.213-5.892,4.444-4.053a.815.815,0,0,0,.227-.855Zm-6.116,4.014a.817.817,0,0,0-.25.769l.943,4.579-4.063-2.311a.817.817,0,0,0-.809,0l-4.063,2.311.943-4.579a.819.819,0,0,0-.249-.769l-3.455-3.15,4.647-.518a.818.818,0,0,0,.654-.475l1.928-4.259,1.929,4.259a.816.816,0,0,0,.654.475l4.646.518Z" transform="translate(8531.068 1923.483)" fill="#009eff"/>
  </g>
</svg>
