<svg id="Group_55680" data-name="Group 55680" xmlns="http://www.w3.org/2000/svg" width="40.062" height="44.804" viewBox="0 0 40.062 44.804">
  <path id="Path_14188" data-name="Path 14188" d="M30.883,45.176a2.061,2.061,0,0,1-.949.228H8.864a2.08,2.08,0,0,1-2.078-2.078V40.033h19.6a.7.7,0,0,0,0-1.4H6.787V10.171H32.012V24.4a.7.7,0,0,0,1.4,0V5.478A3.482,3.482,0,0,0,29.934,2H8.864A3.482,3.482,0,0,0,5.386,5.478V43.326A3.482,3.482,0,0,0,8.864,46.8h21.07a3.491,3.491,0,0,0,1.587-.382.7.7,0,1,0-.639-1.246ZM8.864,3.4h21.07a2.08,2.08,0,0,1,2.078,2.078V8.771H6.787V5.478A2.08,2.08,0,0,1,8.864,3.4Z" transform="translate(-5.386 -2)" fill="#222872"/>
  <path id="Path_14195" data-name="Path 14195" d="M22.316,59.242a2.161,2.161,0,1,0,2.158-2.164A2.16,2.16,0,0,0,22.316,59.242Zm2.923,0a.762.762,0,0,1-.765.757.761.761,0,1,1,.765-.757Z" transform="translate(-10.464 -18.52)" fill="#222872"/>
  <path id="Path_14196" data-name="Path 14196" d="M24.62,8.236h3.9a.7.7,0,0,0,0-1.4h-3.9a.7.7,0,1,0,0,1.4Z" transform="translate(-10.945 -3.45)" fill="#222872"/>
  <path id="Path_14197" data-name="Path 14197" d="M20.019,8.236h.912a.7.7,0,1,0,0-1.4h-.912a.7.7,0,1,0,0,1.4Z" transform="translate(-9.565 -3.45)" fill="#222872"/>
  <path id="Path_14198" data-name="Path 14198" d="M54.546,42.731a.7.7,0,0,0,.7-.7V39.443a2.347,2.347,0,0,0-1.854-2.3,33.191,33.191,0,0,0-13.434-.015,2.381,2.381,0,0,0-1.909,2.314v8.706a2.428,2.428,0,0,0,.1.691c.986,3.327,3.432,5.957,7.48,8.042a2.322,2.322,0,0,0,2.034.042A13.786,13.786,0,0,0,55.1,48.929a2.436,2.436,0,0,0,.148-.84V45.473a.7.7,0,1,0-1.4,0v2.616a1.019,1.019,0,0,1-.061.352,12.446,12.446,0,0,1-6.72,7.212.909.909,0,0,1-.8-.02c-3.741-1.927-5.895-4.214-6.778-7.2a1.025,1.025,0,0,1-.04-.293V39.439a.965.965,0,0,1,.79-.943,31.809,31.809,0,0,1,12.871.015.943.943,0,0,1,.735.931v2.588a.7.7,0,0,0,.7.7Z" transform="translate(-15.183 -12.332)" fill="#222872"/>
  <path id="Path_14199" data-name="Path 14199" d="M49.113,52.25a.7.7,0,0,0,.7-.7V48.827a2.844,2.844,0,1,0-1.4,0V51.55A.7.7,0,0,0,49.113,52.25ZM47.669,46.08a1.444,1.444,0,1,1,1.444,1.444A1.445,1.445,0,0,1,47.669,46.08Z" transform="translate(-17.649 -14.368)" fill="#222872"/>
  <g id="Group_55686" data-name="Group 55686" transform="translate(5.699 14.211)">
    <g id="Group_55687" data-name="Group 55687" transform="translate(0 0)">
      <g id="Group_55684" data-name="Group 55684">
        <g id="Group_55688" data-name="Group 55688">
          <g id="Group_55682" data-name="Group 55682">
            <g id="Group_55689" data-name="Group 55689">
              <path id="Path_14201" data-name="Path 14201" d="M16.913,39.962l-.162.66c-.11-.136-.191-.247-.284-.348a2.5,2.5,0,0,0-1.461-.869,2.066,2.066,0,0,0-1.212.2c-.464.214-.919.449-1.391.642a5.881,5.881,0,0,1-2.563.367,9.122,9.122,0,0,1-3.38-.809,10.041,10.041,0,0,1-3.845-3.1,3.559,3.559,0,0,1-.347-.539l.185.113A10.5,10.5,0,0,0,5.6,37.619a7.114,7.114,0,0,0,4.284-.241c.216-.084.421-.195.651-.3-.212-.151-.4-.276-.581-.415a21.95,21.95,0,0,1-2.692-2.577c-1.24-1.349-2.42-2.75-3.559-4.185a.179.179,0,0,1-.037-.063C4.6,30.564,5.515,31.3,6.45,32.02a26.236,26.236,0,0,0,2.92,1.99,24.453,24.453,0,0,1-2-2.375c-.627-.824-1.241-1.658-1.849-2.5a72.082,72.082,0,0,0,7.036,5.546c.049-.144.094-.267.132-.393a6.642,6.642,0,0,0-.126-4.047,8.689,8.689,0,0,0-1.2-2.367.072.072,0,0,1-.012-.061c.143.1.288.2.43.3a11.825,11.825,0,0,1,2.849,2.8,6.924,6.924,0,0,1,1.335,4.116,4.989,4.989,0,0,1-.286,1.673.171.171,0,0,0,.037.191,5.521,5.521,0,0,1,1.069,1.962c.056.2.088.408.131.612Z" transform="translate(-2.269 -27.815)" fill="#009eff"/>
            </g>
          </g>
        </g>
      </g>
    </g>
  </g>
</svg>
