<svg xmlns="http://www.w3.org/2000/svg" width="509.665" height="360.228" viewBox="0 0 509.665 360.228">
  <g id="Pair_programming-rafiki" data-name="Pair programming-rafiki" transform="translate(-46.56 -143.297)">
    <g id="freepik--Shadows--inject-58" transform="translate(58.501 474.199)">
      <g id="freepik--Shadow--inject-214--inject-58">
        <ellipse id="freepik--path--inject-214--inject-58" cx="242.429" cy="14.663" rx="242.429" ry="14.663" fill="#f5f5f5"/>
      </g>
    </g>
    <g id="freepik--Desk--inject-58" transform="translate(46.56 311.464)">
      <g id="freepik--Group--inject-58">
        <rect id="Rectangle_28122" data-name="Rectangle 28122" width="509.665" height="6.645" fill="#18aef6"/>
        <path id="Path_51118" data-name="Path 51118" d="M70.84,276.8V435.274h3.976l5-158.474Z" transform="translate(-40.482 -272.033)" fill="#18aef6"/>
        <path id="Path_51119" data-name="Path 51119" d="M108.38,280.8V427.615h3.976l5-146.815Z" transform="translate(-31.084 -270.852)" fill="#18aef6"/>
        <path id="Path_51120" data-name="Path 51120" d="M108.38,280.8V427.615h3.976l5-146.815Z" transform="translate(-31.084 -270.852)" opacity="0.5"/>
        <path id="Path_51121" data-name="Path 51121" d="M433.147,276.8V435.274h-3.964L424.17,276.8Z" transform="translate(47.972 -272.033)" fill="#18aef6"/>
        <path id="Path_51122" data-name="Path 51122" d="M395.607,280.8V427.615h-3.976l-5-146.815Z" transform="translate(38.574 -270.852)" fill="#18aef6"/>
        <path id="Path_51123" data-name="Path 51123" d="M395.607,280.8V427.615h-3.976l-5-146.815Z" transform="translate(38.574 -270.852)" opacity="0.5"/>
        <path id="Path_51124" data-name="Path 51124" d="M534.621,285.361H65.418L55.04,278.25H545Z" transform="translate(-44.437 -271.605)" fill="#18aef6"/>
        <path id="Path_51125" data-name="Path 51125" d="M534.621,285.361H65.418L55.04,278.25H545Z" transform="translate(-44.437 -271.605)" opacity="0.5"/>
      </g>
    </g>
    <g id="freepik--Beverages--inject-58" transform="translate(77.118 285.789)">
      <path id="Path_51126" data-name="Path 51126" d="M73.35,258.35v5.181a3.312,3.312,0,0,0,.913,2.293l3.963,4.106a3.133,3.133,0,0,0,1.25.79,10.161,10.161,0,0,0,9.228,6.1h1.488a9.988,9.988,0,0,0,7.251-3.084,10.729,10.729,0,0,0,2.977-7.512V254.14H78.564v.984H76.476a3.183,3.183,0,0,0-3.126,3.225Zm2.5,0a.646.646,0,0,1,.184-.453.6.6,0,0,1,.441-.181h2.088v8.86l-2.5-2.591a.619.619,0,0,1-.188-.453Z" transform="translate(-70.412 -253.051)" fill="#18aef6"/>
      <path id="Path_51127" data-name="Path 51127" d="M73.35,258.35v5.181a3.312,3.312,0,0,0,.913,2.293l3.963,4.106a3.133,3.133,0,0,0,1.25.79,10.161,10.161,0,0,0,9.228,6.1h1.488a9.988,9.988,0,0,0,7.251-3.084,10.729,10.729,0,0,0,2.977-7.512V254.14H78.564v.984H76.476a3.183,3.183,0,0,0-3.126,3.225Zm2.5,0a.646.646,0,0,1,.184-.453.6.6,0,0,1,.441-.181h2.088v8.86l-2.5-2.591a.619.619,0,0,1-.188-.453Z" transform="translate(-70.412 -253.051)" fill="#fff" opacity="0.5"/>
      <path id="Path_51128" data-name="Path 51128" d="M106.185,273.437H74.751A5.717,5.717,0,0,1,71,271.52h38.886A5.682,5.682,0,0,1,106.185,273.437Z" transform="translate(-71 -247.918)" fill="#18aef6"/>
      <path id="Path_51129" data-name="Path 51129" d="M106.185,273.437H74.751A5.717,5.717,0,0,1,71,271.52h38.886A5.682,5.682,0,0,1,106.185,273.437Z" transform="translate(-71 -247.918)" fill="#fff" opacity="0.5"/>
      <path id="Path_51130" data-name="Path 51130" d="M442.873,262.963c-.163-5.181-3.939-6.4-8.865-6.982V254.1a.813.813,0,0,0-.813-.8h-17.03a.813.813,0,0,0-.825.8h0v24.5h18.68v-2.681C438.946,275.347,442.722,268.119,442.873,262.963Zm-8.865,9.793v-13.6c3.626.544,6.127,1.062,5.589,4.819C439.172,266.979,436.9,272.342,434.008,272.756Z" transform="translate(15.203 -253.3)" fill="#18aef6"/>
      <g id="Group_69953" data-name="Group 69953" transform="translate(430.543)" opacity="0.5">
        <path id="Path_51131" data-name="Path 51131" d="M442.873,262.963c-.163-5.181-3.939-6.4-8.865-6.982V254.1a.813.813,0,0,0-.813-.8h-17.03a.813.813,0,0,0-.825.8h0v24.5h18.68v-2.681C438.946,275.347,442.722,268.119,442.873,262.963Zm-8.865,9.793v-13.6c3.626.544,6.127,1.062,5.589,4.819C439.172,266.979,436.9,272.342,434.008,272.756Z" transform="translate(-415.34 -253.3)" fill="#fff"/>
      </g>
    </g>
    <g id="freepik--Device--inject-58" transform="translate(234.624 206.436)">
      <rect id="Rectangle_28123" data-name="Rectangle 28123" width="14.742" height="31.024" transform="translate(58.929 73.434)" fill="#18aef6"/>
      <rect id="Rectangle_28124" data-name="Rectangle 28124" width="14.742" height="31.024" transform="translate(58.929 73.434)" fill="#fff" opacity="0.5"/>
      <path id="Path_51132" data-name="Path 51132" d="M266.813,274.525H238.88l6.814-6.2H260Z" transform="translate(-186.478 -169.51)" fill="#18aef6"/>
      <path id="Path_51133" data-name="Path 51133" d="M266.813,274.525H238.88l6.814-6.2H260Z" transform="translate(-186.478 -169.51)" fill="#fff" opacity="0.5"/>
      <path id="Path_51134" data-name="Path 51134" d="M324.309,265.36H254.49l12.616,10.078h69.807Z" transform="translate(-182.57 -170.385)" fill="#18aef6"/>
      <path id="Path_51135" data-name="Path 51135" d="M324.309,265.36H254.49l12.616,10.078h69.807Z" transform="translate(-182.57 -170.385)" fill="#fff" opacity="0.4"/>
      <path id="Path_51136" data-name="Path 51136" d="M256.1,275.438,254.49,265.36l12.616,10.078Z" transform="translate(-182.57 -170.385)" fill="#18aef6"/>
      <path id="Path_51137" data-name="Path 51137" d="M256.1,275.438,254.49,265.36l12.616,10.078Z" transform="translate(-182.57 -170.385)" opacity="0.5"/>
      <rect id="Rectangle_28125" data-name="Rectangle 28125" width="131.899" height="85.726" rx="1.93" fill="#18aef6"/>
      <rect id="Rectangle_28126" data-name="Rectangle 28126" width="122.183" height="74.703" transform="translate(4.789 5.363)" opacity="0.5"/>
      <rect id="Rectangle_28127" data-name="Rectangle 28127" width="61.654" height="43.977" transform="translate(61.429 20.726)" opacity="0.4"/>
      <rect id="Rectangle_28128" data-name="Rectangle 28128" width="61.654" height="4.029" transform="translate(61.429 20.726)" fill="#18aef6"/>
      <rect id="Rectangle_28129" data-name="Rectangle 28129" width="4.176" height="4.326" transform="translate(9.803 12.254)" fill="#fff"/>
      <rect id="Rectangle_28130" data-name="Rectangle 28130" width="4.176" height="4.326" transform="translate(9.803 23.459)" fill="#fff"/>
      <rect id="Rectangle_28131" data-name="Rectangle 28131" width="4.176" height="4.326" transform="translate(9.803 34.651)" fill="#fff"/>
      <rect id="Rectangle_28132" data-name="Rectangle 28132" width="4.176" height="4.326" transform="translate(9.803 45.843)" fill="#fff"/>
      <rect id="Rectangle_28133" data-name="Rectangle 28133" width="4.176" height="4.326" transform="translate(9.803 57.034)" fill="#fff"/>
      <rect id="Rectangle_28134" data-name="Rectangle 28134" width="4.176" height="4.326" transform="translate(9.803 68.226)" fill="#fff"/>
      <rect id="Rectangle_28135" data-name="Rectangle 28135" width="16.642" height="1.295" transform="translate(17.942 13.239)" fill="#fff"/>
      <rect id="Rectangle_28136" data-name="Rectangle 28136" width="5.927" height="1.295" transform="translate(21.818 24.456)" fill="#fff"/>
      <rect id="Rectangle_28137" data-name="Rectangle 28137" width="5.927" height="1.295" transform="translate(47.613 37.047)" fill="#fff"/>
      <rect id="Rectangle_28138" data-name="Rectangle 28138" width="5.927" height="1.295" transform="translate(21.818 47.034)" fill="#fff"/>
      <rect id="Rectangle_28139" data-name="Rectangle 28139" width="5.927" height="1.295" transform="translate(30.358 47.034)" fill="#fff"/>
      <rect id="Rectangle_28140" data-name="Rectangle 28140" width="15.142" height="1.295" transform="translate(30.358 37.047)" fill="#fff"/>
      <rect id="Rectangle_28141" data-name="Rectangle 28141" width="9.965" height="1.295" transform="translate(39.186 47.034)" fill="#fff"/>
      <rect id="Rectangle_28142" data-name="Rectangle 28142" width="5.927" height="1.295" transform="translate(39.148 71.037)" fill="#fff"/>
      <rect id="Rectangle_28143" data-name="Rectangle 28143" width="5.927" height="1.295" transform="translate(47.701 71.037)" fill="#fff"/>
      <rect id="Rectangle_28144" data-name="Rectangle 28144" width="3.313" height="1.295" transform="translate(56.515 71.037)" fill="#fff"/>
      <rect id="Rectangle_28145" data-name="Rectangle 28145" width="18.443" height="1.295" transform="translate(30.708 24.456)" fill="#fff"/>
      <rect id="Rectangle_28146" data-name="Rectangle 28146" width="5.927" height="1.295" transform="translate(30.358 58.731)" fill="#fff"/>
      <rect id="Rectangle_28147" data-name="Rectangle 28147" width="3.426" height="1.295" transform="translate(38.273 58.731)" fill="#fff"/>
      <rect id="Rectangle_28148" data-name="Rectangle 28148" width="9.678" height="1.295" transform="translate(44.312 58.731)" fill="#fff"/>
      <path id="Subtraction_3" data-name="Subtraction 3" d="M22.276,25.8H9.806c-.295,0-.608,0-.92,0-.363,0-.679-.005-.968-.011a17.383,17.383,0,0,1-2.108-.149,8.386,8.386,0,0,1-2-.53,6.865,6.865,0,0,1-1.706-1A5.625,5.625,0,0,1,.862,22.74,5,5,0,0,1,.2,21.128a9.182,9.182,0,0,1-.185-1.695C.009,19.208,0,18.968,0,18.656c0-.275,0-.553,0-.821V7.968c0-.269,0-.547,0-.821,0-.313.007-.553.015-.779A9.192,9.192,0,0,1,.2,4.674a5,5,0,0,1,.66-1.611A5.63,5.63,0,0,1,2.1,1.69c.125-.1.256-.2.389-.289A7.038,7.038,0,0,1,3.808.693c.158-.065.321-.125.484-.179A8.718,8.718,0,0,1,5.81.163,14.929,14.929,0,0,1,7.39.029c.158-.006.331-.011.528-.016C8.2.007,8.508,0,8.886,0s.772,0,1.149,0H22.046c.377,0,.766,0,1.149,0s.689.005.968.012a17.418,17.418,0,0,1,2.108.149,8.386,8.386,0,0,1,2,.531,6.858,6.858,0,0,1,1.706,1A5.63,5.63,0,0,1,31.22,3.062a4.994,4.994,0,0,1,.66,1.611,9.162,9.162,0,0,1,.185,1.694c.008.224.012.465.014.779,0,.29,0,.583,0,.867v9.775c0,.284,0,.577,0,.867,0,.23,0,.5-.014.778a9.168,9.168,0,0,1-.185,1.695,4.994,4.994,0,0,1-.66,1.612,5.624,5.624,0,0,1-1.239,1.372,6.865,6.865,0,0,1-1.706,1,8.388,8.388,0,0,1-2,.53,17.393,17.393,0,0,1-2.108.149c-.29.006-.607.01-.968.011C22.884,25.8,22.571,25.8,22.276,25.8ZM24,19.4h0a3.858,3.858,0,0,1,1.661.347,3.4,3.4,0,0,1,1.417,1.277.119.119,0,0,0,.094.068c.04,0,.082-.034.12-.1a2.979,2.979,0,0,0,.019-1.891,6.717,6.717,0,0,0-1.886-3.179l0,0,.018-.05v0c.029-.079.059-.16.084-.241C26.84,11.41,23.72,6.377,18.1,3.665a12.637,12.637,0,0,1,1.545,2.06A9.945,9.945,0,0,1,20.628,7.9a7.732,7.732,0,0,1,.349,2.208,6.528,6.528,0,0,1-.343,2.147,6.254,6.254,0,0,1-.3.718c-.123-.065-.276-.138-.481-.229-.014-.007-1.389-.692-3.476-1.959-1.224-.743-2.449-1.537-3.641-2.36-1.489-1.029-2.93-2.106-4.282-3.2l0,0c-.009.016.8.986,2.075,2.344a62,62,0,0,0,4.856,4.67c-.9-.407-2.594-1.34-4.414-2.435C8.884,8.551,6.955,7.287,5.535,6.242a11.807,11.807,0,0,0,1.344,1.49,54.919,54.919,0,0,0,10.1,8.479,10.358,10.358,0,0,1-2.4.82,13.136,13.136,0,0,1-2.745.281,15.629,15.629,0,0,1-2.855-.27,17.515,17.515,0,0,1-2.955-.829A17.819,17.819,0,0,1,3.22,14.866a16.324,16.324,0,0,0,7.542,5.2,16.9,16.9,0,0,0,5.522.959,12.641,12.641,0,0,0,4.923-.938l0,0,.021-.01h0l.021-.01c.14-.061.246-.109.344-.155A6.5,6.5,0,0,1,24,19.4Z" transform="translate(76.216 31.634)" fill="#fff"/>
    </g>
    <g id="freepik--speech-code--inject-58" transform="translate(220.408 143.297)">
      <path id="Path_51141" data-name="Path 51141" d="M255.419,170.762c-.313,15.674-16.029,28.822-35.122,29.34a39.241,39.241,0,0,1-17.1-3.277c-1.926,4.922-5.977,9.145-17.592,11.036,12.116-9.7,5.489-17.915,2.726-25.13h0a23.493,23.493,0,0,1-2.088-10.078c.313-15.687,16.029-28.809,35.122-29.34S255.719,155.089,255.419,170.762Z" transform="translate(-185.6 -143.297)" fill="#18aef6"/>
      <rect id="Rectangle_28149" data-name="Rectangle 28149" width="16.642" height="1.295" transform="translate(18.993 11.053)" fill="#fff"/>
      <rect id="Rectangle_28150" data-name="Rectangle 28150" width="5.927" height="1.295" transform="translate(22.869 22.284)" fill="#fff"/>
      <rect id="Rectangle_28151" data-name="Rectangle 28151" width="5.927" height="1.295" transform="translate(48.663 34.875)" fill="#fff"/>
      <rect id="Rectangle_28152" data-name="Rectangle 28152" width="5.927" height="1.295" transform="translate(22.869 44.862)" fill="#fff"/>
      <rect id="Rectangle_28153" data-name="Rectangle 28153" width="5.927" height="1.295" transform="translate(31.421 44.862)" fill="#fff"/>
      <rect id="Rectangle_28154" data-name="Rectangle 28154" width="15.142" height="1.295" transform="translate(31.421 34.875)" fill="#fff"/>
      <rect id="Rectangle_28155" data-name="Rectangle 28155" width="9.965" height="1.295" transform="translate(40.236 44.862)" fill="#fff"/>
      <rect id="Rectangle_28156" data-name="Rectangle 28156" width="18.443" height="1.295" transform="translate(31.771 22.284)" fill="#fff"/>
    </g>
    <g id="freepik--character-2--inject-58" transform="translate(295.063 172.572)">
      <path id="Path_51142" data-name="Path 51142" d="M300.995,399.672l-9.115-2.824,2.126-23.148,9.115,2.824Z" transform="translate(-233.649 -104.522)" fill="#7f3e3b"/>
      <path id="Path_51143" data-name="Path 51143" d="M303.533,372.481l-9.115-2.811-1.188,12.966,9.215,1.775Z" transform="translate(-233.311 -105.712)" opacity="0.2"/>
      <path id="Path_51144" data-name="Path 51144" d="M354.947,283.38s-62.68,5.479-61.142,33.679c1.25,23.083,4.564,16.84-1.926,85.493l15.767.907s16.042-56.141,13.879-78.447c17.667,0,58.116,1.606,63.993-14.91a75.921,75.921,0,0,0,4.189-26.166Z" transform="translate(-233.649 -131.198)" fill="#18aef6"/>
      <path id="Path_51145" data-name="Path 51145" d="M310.616,381.466l-20.606-3.653.338-9.443,21.331,4.909Z" transform="translate(-234.117 -106.096)" fill="#263238"/>
      <path id="Path_51146" data-name="Path 51146" d="M294.744,388.576l10.528,2.163a.815.815,0,0,1,.6.907L305,402.009a1.863,1.863,0,0,1-.616,1.274,1.735,1.735,0,0,1-1.309.436c-3.651-.829-5.376-1.438-10-2.4-2.851-.583-9.365-1.995-13.329-2.461s-3.488-5.259-1.776-5.505c7.7-1.049,12.078-2.345,15.067-4.339A2.276,2.276,0,0,1,294.744,388.576Z" transform="translate(-237.451 -100.135)" fill="#263238"/>
      <path id="Path_51147" data-name="Path 51147" d="M287.73,390.607a11.522,11.522,0,0,0,2.5.078.188.188,0,0,0,.188-.142.281.281,0,0,0,0-.246c-.263-.272-2.626-2.591-3.839-2.332a.784.784,0,0,0-.613.544,1.335,1.335,0,0,0,.075,1.3,2.464,2.464,0,0,0,1.688.8Zm2.013-.35c-1.738,0-2.963-.207-3.326-.738a.814.814,0,0,1,0-.829.407.407,0,0,1,.288-.285c.588-.129,2.063.907,3.088,1.865Z" transform="translate(-235.163 -100.314)" fill="#18aef6"/>
      <path id="Path_51148" data-name="Path 51148" d="M289.7,391.126h.1a.256.256,0,0,0,.15-.168c0-.117.688-2.876-.112-3.977a1.053,1.053,0,0,0-.875-.479.834.834,0,0,0-.9.544c-.388,1.023.688,3.29,1.525,4.029A.135.135,0,0,0,289.7,391.126Zm-.65-4.158a.735.735,0,0,1,.438.285,5.358,5.358,0,0,1,.113,3.187,4.7,4.7,0,0,1-1.125-3.225c0-.13.138-.272.463-.259Z" transform="translate(-234.624 -100.743)" fill="#18aef6"/>
      <path id="Path_51149" data-name="Path 51149" d="M268.407,402.508l-8.677-4.041,6-22.176,8.677,4.042Z" transform="translate(-241.698 -103.757)" fill="#7f3e3b"/>
      <path id="Path_51150" data-name="Path 51150" d="M275,375.921l-8.677-4.042-3.088,11.438,8.677,4.041Z" transform="translate(-240.822 -105.059)" opacity="0.2"/>
      <path id="Path_51151" data-name="Path 51151" d="M343.757,283.38c-.413,0-70.269,7.448-70.357,32-.15,40.6-11.341,87.125-11.341,87.125l13.754,7.086S299.858,359.145,299.5,327.5c19.218-5.712,68.931,3.886,74.808-12.617,4.814-13.5,2.213-31.5,2.213-31.5Z" transform="translate(-241.114 -131.198)" fill="#18aef6"/>
      <path id="Path_51152" data-name="Path 51152" d="M278.565,386.157,260.06,377.53l1.488-7.85,19.518,6.982Z" transform="translate(-241.615 -105.709)" fill="#263238"/>
      <path id="Path_51153" data-name="Path 51153" d="M264.2,387.67l10.553,2.267a.91.91,0,0,1,.588,1.01l-.825,11.334c-.15,1.231-1,2.073-1.913,1.878h0c-3.651-.868-5.376-1.541-10-2.591-2.851-.6-10.615-2.591-14.529-3.614s-3.038-6.218-1.25-6.257c7.74-.117,12.753-1.425,15.729-3.666A2.043,2.043,0,0,1,264.2,387.67Z" transform="translate(-245.308 -100.409)" fill="#263238"/>
      <path id="Path_51154" data-name="Path 51154" d="M257.537,390.007a12.359,12.359,0,0,0,2.063-1.477.265.265,0,0,0,.075-.246.214.214,0,0,0-.188-.155c-.363,0-3.588-.492-4.426.479a.9.9,0,0,0-.175.816,1.285,1.285,0,0,0,.8,1A2.54,2.54,0,0,0,257.537,390.007Zm1.413-1.516c-1.363,1.1-2.5,1.632-3.088,1.451a.866.866,0,0,1-.488-.687.4.4,0,0,1,.088-.389c.375-.466,2.076-.505,3.426-.376Z" transform="translate(-242.918 -100.297)" fill="#18aef6"/>
      <path id="Path_51155" data-name="Path 51155" d="M259.34,389.2l.088-.065a.2.2,0,0,0,0-.22c-.062-.091-1.1-2.746-2.363-3.148a1.081,1.081,0,0,0-.975.155.88.88,0,0,0-.413,1c.263,1.075,2.426,2.228,3.538,2.306Zm-2.913-2.953a.63.63,0,0,1,.525,0,5.153,5.153,0,0,1,1.926,2.5,4.447,4.447,0,0,1-2.763-1.9c-.075-.1,0-.311.225-.492Z" transform="translate(-242.72 -100.972)" fill="#18aef6"/>
      <path id="Path_51156" data-name="Path 51156" d="M353.269,222.92c1.838,4.093,3.351,8.031,4.864,12.125s2.851,8.187,4.089,12.384,2.313,8.5,3.176,12.954a69.91,69.91,0,0,1,1.4,14.081,29.876,29.876,0,0,1-1.188,8.2,19.041,19.041,0,0,1-2.088,4.612,16.061,16.061,0,0,1-1.788,2.254l-.538.544c-.3.259-.625.544-.938.764a10.279,10.279,0,0,1-1.675.959,14.389,14.389,0,0,1-2.7.894,18.653,18.653,0,0,1-2.213.337,31.224,31.224,0,0,1-3.814,0,53.179,53.179,0,0,1-6.727-.777,124.445,124.445,0,0,1-24.269-7.2l1.813-7.137c7.94.984,16.042,2.034,23.682,2.4,1.9,0,3.751.091,5.477,0a17.283,17.283,0,0,0,2.288-.3c.625-.117,1.163-.35.975-.337a1.135,1.135,0,0,0-.35.181,1.832,1.832,0,0,0-.35.272h0a2.044,2.044,0,0,0,.113-.22,6.521,6.521,0,0,0,.375-1.153,19.307,19.307,0,0,0,.338-4.326,60.248,60.248,0,0,0-1.588-11c-.85-3.886-1.951-7.668-3.151-11.516s-2.5-7.694-3.926-11.529-2.926-7.681-4.4-11.3Z" transform="translate(-226.895 -149.055)" fill="#7f3e3b"/>
      <path id="Path_51157" data-name="Path 51157" d="M325.563,267.972l-8.29-4.832-4.164,9.3s9.69,4.184,11.728,1.567Z" transform="translate(-228.334 -137.176)" fill="#7f3e3b"/>
      <path id="Path_51158" data-name="Path 51158" d="M311.829,264.916l-3.789,6.218,6.339,1.256,4.164-9.3Z" transform="translate(-229.604 -137.191)" fill="#7f3e3b"/>
      <path id="Path_51159" data-name="Path 51159" d="M345.7,229.92c-1.588,4.132-3.251,8.083-5,12.086s-3.5,7.941-5.351,11.878a231.213,231.213,0,0,1-12.5,23.316c-1.25,1.917-2.5,3.821-3.9,5.725-.7.959-1.475,1.9-2.3,2.876-.45.492-.813.946-1.338,1.451l-.75.751-.425.415a10.536,10.536,0,0,1-4.1,2.254,17.656,17.656,0,0,1-2.426.531,24.644,24.644,0,0,1-4.026.168,49.655,49.655,0,0,1-6.927-.712,123.922,123.922,0,0,1-24.782-7.28l1.826-7.15c8.09,1.01,16.354,2.085,24.132,2.422a52.013,52.013,0,0,0,5.5-.078,14.025,14.025,0,0,0,2.188-.363,3.3,3.3,0,0,0,.675-.259c.075,0,0-.091-.338.13a1.316,1.316,0,0,0-.338.259l.125-.155.35-.4c.225-.233.5-.622.763-.933.513-.674,1.038-1.4,1.563-2.189,1.038-1.541,2.051-3.251,3.051-4.987,2-3.472,3.864-7.163,5.689-10.894s3.576-7.539,5.3-11.373c3.438-7.643,6.8-15.544,10-23.187Z" transform="translate(-238.659 -148.671)" fill="#7f3e3b"/>
      <path id="Path_51160" data-name="Path 51160" d="M278.666,266.935l-8.3-4.935-4.164,9.3s9.69,4.2,11.741,1.58Z" transform="translate(-240.078 -137.513)" fill="#7f3e3b"/>
      <path id="Path_51161" data-name="Path 51161" d="M264.931,263.869l-3.8,6.2,6.339,1.257,4.164-9.3Z" transform="translate(-241.347 -137.504)" fill="#7f3e3b"/>
      <path id="Path_51162" data-name="Path 51162" d="M351.752,193.14l-5.3,6.36-8.09,8.666.613,1.567a16.113,16.113,0,0,1,1.075,5.026c.188,3.472-.138,6.412-5.427,8.77,0,0-5.552,7.513,7.652,5.428s15.192-9.184,15.192-9.184C351.639,215.459,351.289,201.119,351.752,193.14Z" transform="translate(-223.239 -157.851)" fill="#7f3e3b"/>
      <path id="Path_51163" data-name="Path 51163" d="M326.953,187.943c0,.855-.413,1.58-.963,1.606s-.988-.648-1-1.5.425-1.58.963-1.606S326.941,187.088,326.953,187.943Z" transform="translate(-225.36 -159.83)" fill="#263238"/>
      <path id="Path_51164" data-name="Path 51164" d="M329.551,185.879a.472.472,0,0,1-.4-.233,4.066,4.066,0,0,0-3.026-1.995.51.51,0,0,1-.475-.518.5.5,0,0,1,.148-.358.466.466,0,0,1,.352-.135h0a4.984,4.984,0,0,1,3.826,2.461.53.53,0,0,1-.15.7A.56.56,0,0,1,329.551,185.879Z" transform="translate(-225.195 -160.952)" fill="#263238"/>
      <path id="Path_51165" data-name="Path 51165" d="M326.9,188a28.247,28.247,0,0,1-2.876,6.632,3.878,3.878,0,0,0,3.4.259Z" transform="translate(-225.603 -159.369)" fill="#630f0f"/>
      <path id="Path_51166" data-name="Path 51166" d="M354.517,187.668c-.488,10.57-.263,16.84-5.326,22.436a13,13,0,0,1-13.169,4.078A13.553,13.553,0,0,1,326.41,204c-2.3-9.365-1.1-25.078,8.752-29.793a13.032,13.032,0,0,1,13.445.915,14.088,14.088,0,0,1,5.911,12.544Z" transform="translate(-225.255 -163.869)" fill="#7f3e3b"/>
      <path id="Path_51167" data-name="Path 51167" d="M358.132,188.713a39.56,39.56,0,0,1-6.627,12.306l-13.279,2.591s-10.49-4.547-7.69-12.034c-1.776-1.554-1.113-6.36.138-9a5.273,5.273,0,0,0,7.089-.194,4.829,4.829,0,0,0,3.687,2.3,4.765,4.765,0,0,0,4-1.642,5.013,5.013,0,0,0,4.349,1.432,5.136,5.136,0,0,0,3.728-2.727,4.462,4.462,0,0,0,5.351-.363l.188-.181A19.547,19.547,0,0,1,358.132,188.713Z" transform="translate(-224.243 -161.377)" fill="#263238"/>
      <path id="Path_51168" data-name="Path 51168" d="M358.132,188.713a39.56,39.56,0,0,1-6.627,12.306l-13.279,2.591s-10.49-4.547-7.69-12.034c-1.776-1.554-1.113-6.36.138-9a5.273,5.273,0,0,0,7.089-.194,4.829,4.829,0,0,0,3.687,2.3,4.765,4.765,0,0,0,4-1.642,5.013,5.013,0,0,0,4.349,1.432,5.136,5.136,0,0,0,3.728-2.727,4.462,4.462,0,0,0,5.351-.363l.188-.181A19.547,19.547,0,0,1,358.132,188.713Z" transform="translate(-224.243 -161.377)" fill="#fff" opacity="0.1"/>
      <path id="Path_51169" data-name="Path 51169" d="M362.435,180.409a4.907,4.907,0,0,1-.975,5.246l-.188.181a4.462,4.462,0,0,1-5.351.363,5.136,5.136,0,0,1-3.728,2.727,5.014,5.014,0,0,1-4.349-1.432,4.765,4.765,0,0,1-4,1.642,4.829,4.829,0,0,1-3.687-2.3,5.273,5.273,0,0,1-7.089.194,4.443,4.443,0,0,1-1.25-1.606,3.074,3.074,0,0,1-.175-.427,3.016,3.016,0,0,1-.35.35,3.756,3.756,0,0,1-4.451.272,3.938,3.938,0,0,1-1.6-3.485,3.706,3.706,0,0,1,.137-.829,2.241,2.241,0,0,1-.375.531,3.05,3.05,0,0,1-4.451-.117,4.123,4.123,0,0,1-.542-3.1,4,4,0,0,1,1.793-2.546,4.479,4.479,0,0,1,2.351-.648,5.9,5.9,0,0,1,3.588,1.3,3.975,3.975,0,0,1,1.109-4.865,3.653,3.653,0,0,1,4.817.293,3.438,3.438,0,0,1,1.363-3.523c1.725-1.036,4.6-.143,6,1.593,0,0,1.926-4.819,5.251-4.275.725.1,4.139,1.671,4.051,2.94a.549.549,0,0,1,0,.246,2.077,2.077,0,0,1,.163-.285,3.7,3.7,0,0,1,3.2-1.567,10.449,10.449,0,0,1,3.851,1.062c2.588,1.1,5.339,2.332,6.839,4.78S365.123,179.632,362.435,180.409Z" transform="translate(-226.633 -165.897)" fill="#263238"/>
      <path id="Path_51170" data-name="Path 51170" d="M336.5,191.261a12.677,12.677,0,0,1-3.3,6.917c-2.263,2.241-4.189,0-4.214-3.407,0-3.083,1.113-7.966,3.751-8.873S337,187.855,336.5,191.261Z" transform="translate(-224.359 -160.039)" fill="#7f3e3b"/>
      <path id="Path_51171" data-name="Path 51171" d="M378.125,217.721c-.938-2.591-5.314-5.181-8-5.181h-1.776a93.8,93.8,0,0,0-10.715.712,184.823,184.823,0,0,0-21.256,3.7,92.1,92.1,0,0,0-8.815,2.953c-3.151,1.3-5,2.163-5,2.163s3.451,23.809,5.239,47.462c.988,13.174.575,26.244.9,35.234h53.34c1.838-10.8,1.55-20.22,1.7-39.728C383.814,253.292,381.976,228.382,378.125,217.721Z" transform="translate(-225.969 -152.121)" fill="#263238"/>
      <path id="Path_51172" data-name="Path 51172" d="M325.82,250.888c.4,4.961.813,10.169,1.25,15.376,6.252-9.456,9.7-35.324,9.7-35.324Z" transform="translate(-225.153 -146.686)" opacity="0.2"/>
      <path id="Path_51173" data-name="Path 51173" d="M323.169,221.827c-7.64,4.456-15.129,27.2-15.129,27.2l17.5,13.666c6.677-6.542,16.442-22.772,17.5-29.262C344.75,223.537,335.41,214.728,323.169,221.827Z" transform="translate(-229.604 -150.138)" fill="#263238"/>
      <path id="Path_51174" data-name="Path 51174" d="M310.238,401.725a5.442,5.442,0,1,1-5.439-5.635A5.54,5.54,0,0,1,310.238,401.725Z" transform="translate(-231.777 -97.909)" fill="#263238"/>
      <path id="Path_51175" data-name="Path 51175" d="M373,401.725a5.442,5.442,0,1,0,5.439-5.635A5.539,5.539,0,0,0,373,401.725Z" transform="translate(-213.341 -97.909)" fill="#263238"/>
      <path id="Path_51176" data-name="Path 51176" d="M336.27,400.285a5.442,5.442,0,1,0,5.439-5.635,5.539,5.539,0,0,0-5.439,5.635Z" transform="translate(-222.537 -98.334)" fill="#263238"/>
      <path id="Path_51177" data-name="Path 51177" d="M350.449,396.164V385.27H334.87a46.951,46.951,0,0,0-9.115.881l-29.008,5.829a2.722,2.722,0,0,0-2.117,2.988,2.67,2.67,0,0,0,2.7,2.426Z" transform="translate(-232.965 -101.104)" fill="#263238"/>
      <path id="Path_51178" data-name="Path 51178" d="M339.27,396.164V385.27h15.592a46.779,46.779,0,0,1,9.078.946l32.609,5.389a2.722,2.722,0,0,1,2.117,2.988,2.67,2.67,0,0,1-2.7,2.426Z" transform="translate(-221.785 -101.104)" fill="#263238"/>
      <rect id="Rectangle_28157" data-name="Rectangle 28157" width="19.293" height="49.884" transform="translate(107.832 234.295)" fill="#263238"/>
      <rect id="Rectangle_28158" data-name="Rectangle 28158" width="13.754" height="23.2" transform="translate(110.608 211.082)" fill="#263238"/>
      <path id="Path_51179" data-name="Path 51179" d="M333.77,335.664l13.754,3.588v-10.4H333.77Z" transform="translate(-223.162 -117.768)" opacity="0.5"/>
      <rect id="Rectangle_28159" data-name="Rectangle 28159" width="6.989" height="30.894" transform="translate(66.033 158.594)" fill="#263238"/>
      <path id="Path_51180" data-name="Path 51180" d="M331.74,365.406V231.091a17.868,17.868,0,0,1,5.814-13.264l9.24-8.381a16.64,16.64,0,0,1,11.253-4.365h33.372L407.7,223.111V365.406Z" transform="translate(-223.671 -154.324)" fill="#18aef6"/>
      <path id="Path_51181" data-name="Path 51181" d="M296.288,308.79h76.146v25.985H283.872a8.965,8.965,0,0,1-7.816-4.712,9.631,9.631,0,0,1,.064-9.368h0a23.233,23.233,0,0,1,20.168-11.9Z" transform="translate(-237.907 -123.693)" fill="#18aef6"/>
      <path id="Path_51182" data-name="Path 51182" d="M421.935,223.111V365.406H283.872a8.965,8.965,0,0,1-7.816-4.712,9.631,9.631,0,0,1,.064-9.368,23.246,23.246,0,0,1,20.168-11.9h38.348a11.6,11.6,0,0,0,11.391-11.8v-96.53a17.868,17.868,0,0,1,5.814-13.264l9.24-8.381a16.64,16.64,0,0,1,11.253-4.365h33.372Z" transform="translate(-237.907 -154.324)" fill="#fff" opacity="0.7"/>
      <path id="Path_51183" data-name="Path 51183" d="M340.62,365.406V231.091a17.921,17.921,0,0,1,5.814-13.264l9.24-8.381a16.64,16.64,0,0,1,11.253-4.365h26.02a16.72,16.72,0,0,1,12.4,5.557L412,217.956a18.019,18.019,0,0,1,4.614,12.086V351.947a13.7,13.7,0,0,1-3.806,9.525,12.753,12.753,0,0,1-9.2,3.934Z" transform="translate(-221.448 -154.324)" fill="#18aef6"/>
      <path id="Path_51184" data-name="Path 51184" d="M340.62,365.406V231.091a17.921,17.921,0,0,1,5.814-13.264l9.24-8.381a16.64,16.64,0,0,1,11.253-4.365h26.02a16.72,16.72,0,0,1,12.4,5.557L412,217.956a18.019,18.019,0,0,1,4.614,12.086V351.947a13.7,13.7,0,0,1-3.806,9.525,12.753,12.753,0,0,1-9.2,3.934Z" transform="translate(-221.448 -154.324)" fill="#fff" opacity="0.5"/>
      <path id="Path_51185" data-name="Path 51185" d="M331.182,299.43a69.636,69.636,0,0,0-47.513,0,6.677,6.677,0,0,1-8.365-3.3h0c-1.425-3.122.488-7.163,4.364-8.575a81.355,81.355,0,0,1,55.49,0c3.876,1.4,5.789,5.453,4.364,8.575h0a6.677,6.677,0,0,1-8.34,3.3Z" transform="translate(-237.917 -131.406)" fill="#18aef6"/>
      <path id="Path_51186" data-name="Path 51186" d="M331.182,299.43a69.636,69.636,0,0,0-47.513,0,6.677,6.677,0,0,1-8.365-3.3h0c-1.425-3.122.488-7.163,4.364-8.575a81.355,81.355,0,0,1,55.49,0c3.876,1.4,5.789,5.453,4.364,8.575h0a6.677,6.677,0,0,1-8.34,3.3Z" transform="translate(-237.917 -131.406)" fill="#fff" opacity="0.7"/>
    </g>
    <g id="freepik--character-1--inject-58" transform="translate(118.409 182.236)">
      <g id="freepik--group--inject-58-2" data-name="freepik--group--inject-58">
        <path id="Path_51187" data-name="Path 51187" d="M164.514,196.643c-.263.764-.075,1.529.413,1.7s1.088-.3,1.338-1.062.075-1.541-.4-1.71S164.776,195.866,164.514,196.643Z" transform="translate(-88.91 -166.808)" fill="#263238"/>
        <path id="Path_51188" data-name="Path 51188" d="M164.863,197a30.533,30.533,0,0,0,1.338,7.85,4.442,4.442,0,0,1-3.751-.6Z" transform="translate(-89.397 -166.375)" fill="#a02724"/>
        <path id="Path_51189" data-name="Path 51189" d="M163.577,192.632a.363.363,0,0,0,.288,0,3.643,3.643,0,0,1,3.288.518.45.45,0,0,0,.346.089.461.461,0,0,0,.3-.192.506.506,0,0,0,0-.622,4.471,4.471,0,0,0-4.151-.712.5.5,0,0,0-.288.609.446.446,0,0,0,.288.3Z" transform="translate(-89.173 -168.004)" fill="#263238"/>
        <path id="Path_51190" data-name="Path 51190" d="M143,198.57c1.4,7.371,2.788,20.881-2.188,25.8,0,0,1.951,7.474,15.179,7.474,14.541,0,6.952-7.474,6.952-7.474-7.94-1.969-6.664-8.07-5.276-13.8Z" transform="translate(-94.814 -165.911)" fill="#b55b52"/>
        <path id="Path_51191" data-name="Path 51191" d="M145.772,190.554c-2.6,9.637-4.6,15.143-1.625,21.632,4.464,9.78,20.068,11.049,24.319-.142,3.238-10.363,6.439-21.2-1.25-28.161a12.851,12.851,0,0,0-12.533-2.859,13.455,13.455,0,0,0-8.948,9.53Z" transform="translate(-94.35 -171.263)" fill="#b55b52"/>
        <path id="Path_51192" data-name="Path 51192" d="M137.187,195.861c-.675-3.549-.85-7.435.863-10.6s5.852-5.091,8.865-3.251a14.537,14.537,0,0,1,14.9-8.555,14.834,14.834,0,0,1,12.616,11.857,15.378,15.378,0,0,1-6.772,16.193c.688-2.655,1.388-5.3,2.076-7.953a15.547,15.547,0,0,1-5.326,9.391l1.25-7.941a12.179,12.179,0,0,1-5.677,9.132l1.463-5.557a49.126,49.126,0,0,1-2.826,7.435c-1.25,1.49-2.051,11.231-6.352,11.542C137.487,220.6,138.762,204.151,137.187,195.861Z" transform="translate(-95.842 -173.358)" fill="#263238"/>
        <path id="Path_51193" data-name="Path 51193" d="M153.012,195.118a11.746,11.746,0,0,0,1.525,7.086c1.663,2.772,4.1,1.71,5-1.127.8-2.591.888-7.06-1.425-8.86S153.362,192.152,153.012,195.118Z" transform="translate(-91.774 -168.003)" fill="#b55b52"/>
        <path id="Path_51194" data-name="Path 51194" d="M130.014,273.837c-1.588-.544-9.027-4.508-10.215-3.8,3.438-9.067,5.577-10.479,7.139-16.257a9.105,9.105,0,0,0-1.663-8.42c-2.2-3.057-2.963-4.6-6.614-4.223-5,8.7-11.366,19.43-13.841,29.262-.838,3.3-1.438,5.816.463,8.614,1.675,2.461,4.764,3.446,7.665,3.718,6.964.648,17.3-.674,17.167-4.961C130.039,275.068,130.014,273.837,130.014,273.837Z" transform="translate(-104.023 -153.353)" fill="#b55b52"/>
        <path id="Path_51195" data-name="Path 51195" d="M124.246,266.572l5.9-1.982-.525,11.049s-4.726.168-7.252-3.109Z" transform="translate(-99.43 -146.412)" fill="#b55b52"/>
        <path id="Path_51196" data-name="Path 51196" d="M136.072,264.45l-.838,9.119-7.064,2.111.525-11.049Z" transform="translate(-97.978 -146.453)" fill="#b55b52"/>
        <path id="Path_51197" data-name="Path 51197" d="M194.19,284.349s-8.265-6.71-19.043-28.731c-1.6-3.083-3.126-6.2-4.6-9.34s-2.876-6.27-4.226-9.6l12.779-5.7c2.626,5.933,6.727,12.06,9.628,17.954s9.74,19.858,10.6,21.153c.425.674.888,1.231,1.325,1.852l.663.907-8.24,9.871Z" transform="translate(-88.428 -156.339)" fill="#b55b52"/>
        <path id="Path_51198" data-name="Path 51198" d="M198,242.491l-2.5-3.161L194.32,234.6l7.715-7.422a34.966,34.966,0,0,1,3.138,4.948,2.669,2.669,0,0,1,.275,1.3l-.313,8.329Z" transform="translate(-81.418 -157.461)" fill="#b55b52"/>
        <path id="Path_51199" data-name="Path 51199" d="M194.383,230.208l5.764-5.428,1.826,3.174-7.7,7.384Z" transform="translate(-81.431 -158.17)" fill="#b55b52"/>
        <path id="Path_51200" data-name="Path 51200" d="M199.884,237.587c.2-.894.375.855.95.155,1.7-2.124,4.176-2.345,5.652,0s.213,25.415-2.138,32.656c-1.563,4.806-2.4,8.64-6.4,11.568a9.545,9.545,0,0,1-5.627,2.1,5.324,5.324,0,0,1-4.876-3.135c-1.25-3.018,3.226-13.9,4.8-17.41C197.184,252.47,197.521,248.027,199.884,237.587Z" transform="translate(-83.194 -154.837)" fill="#b55b52"/>
        <path id="Path_51201" data-name="Path 51201" d="M184.126,242.974l10.215-.1a9.58,9.58,0,0,0,4.276-.7,8,8,0,0,0,3.488-4.521c1.45-3.886,1.575-8.057,2.138-12.124s1.763-8.342,4.739-11.075c-5.426.751-15-1.01-19.193,3.588C187.59,220.486,183.7,242.974,184.126,242.974Z" transform="translate(-83.978 -161.221)" fill="#18aef6"/>
        <path id="Path_51202" data-name="Path 51202" d="M184.126,242.974l10.215-.1a9.58,9.58,0,0,0,4.276-.7,8,8,0,0,0,3.488-4.521c1.45-3.886,1.575-8.057,2.138-12.124s1.763-8.342,4.739-11.075c-5.426.751-15-1.01-19.193,3.588C187.59,220.486,183.7,242.974,184.126,242.974Z" transform="translate(-83.978 -161.221)" fill="#fff" opacity="0.5"/>
        <path id="Path_51203" data-name="Path 51203" d="M198.275,224.34h0c-.588.168-.975,2.332-.85,2.953l.575,1.062,1.163,5.181,3.9-2.228-3.513-6.477a1.131,1.131,0,0,0-1.275-.492Z" transform="translate(-80.647 -158.313)" fill="#b55b52"/>
        <path id="Path_51204" data-name="Path 51204" d="M132.161,219.987c-9.128,2.163-22.631,31.633-22.631,31.633l18.318,12.954A213.632,213.632,0,0,0,142.1,240.156C147.515,228.42,141.489,217.772,132.161,219.987Z" transform="translate(-102.645 -159.672)" fill="#18aef6"/>
        <path id="Path_51205" data-name="Path 51205" d="M138.534,222.074c-1.05-2.371-2.188-5.078.175-5.92,2.613-.933,16.917-1.891,21.843-.142a5.106,5.106,0,0,1,3.081,2.471,5.426,5.426,0,0,1,.483,4.006v.091Z" transform="translate(-95.688 -161.047)" fill="#263238"/>
        <path id="Path_51206" data-name="Path 51206" d="M134.746,233.06,121.73,258.449l3.063,2.176s5.9-8.51,10-15.868Z" transform="translate(-99.59 -155.724)" opacity="0.2"/>
        <path id="Path_51207" data-name="Path 51207" d="M183.311,233.378c1.976,10.363-2.638,34.975-2.588,75.13H128.684c-.338-8.109,5.364-27.332-1.725-65.623-.225-1.3-.325-22.215.875-22.436a133.967,133.967,0,0,1,15.229-1.865,185.509,185.509,0,0,1,22.131,0c3.013.324,7.752,2.254,10.753,3.368C180.61,223.663,182.361,228.288,183.311,233.378Z" transform="translate(-98.317 -160.097)" fill="#18aef6"/>
        <path id="Path_51208" data-name="Path 51208" d="M161,237.88c1.35,8.51,6.739,19.754,12.1,26.36.213-4.832.688-9.884.675-13.757Z" transform="translate(-89.76 -154.301)" opacity="0.2"/>
        <path id="Path_51209" data-name="Path 51209" d="M158.012,229.9c-1.25,9.547,16.88,33.912,16.88,33.912l18.242-12.954s-5.064-13.433-13.579-22.241C169.891,218.539,159.475,219.537,158.012,229.9Z" transform="translate(-90.523 -159.118)" fill="#18aef6"/>
        <path id="Path_51210" data-name="Path 51210" d="M205.72,396.455h9.728l2.213-23.355h-9.728Z" transform="translate(-78.564 -114.363)" fill="#b55b52"/>
        <path id="Path_51211" data-name="Path 51211" d="M217.325,374.19,216.2,386.224h-9.74L207.6,374.19Z" transform="translate(-78.379 -114.041)" opacity="0.2"/>
        <path id="Path_51212" data-name="Path 51212" d="M175.03,396.455h9.728l4.889-23.355h-9.728Z" transform="translate(-86.247 -114.363)" fill="#b55b52"/>
        <g id="Group_69954" data-name="Group 69954" transform="translate(90.933 259.981)" opacity="0.2">
          <path id="Path_51213" data-name="Path 51213" d="M179.276,374.06H189l-2.526,12.034H176.75Z" transform="translate(-176.75 -374.06)"/>
        </g>
        <path id="Path_51214" data-name="Path 51214" d="M216.631,387.63H206.015a.97.97,0,0,0-.838.907l-1.925,11.529a1.991,1.991,0,0,0,1.05,2.28,1.087,1.087,0,0,0,.35,0c3.826-.078,9.365-.389,14.179-.389,5.639,0,10.5.4,17.1.4,4,0,5.114-5.415,3.438-5.894-7.615-2.228-13.829-2.461-20.406-7.915a3.677,3.677,0,0,0-2.338-.92Z" transform="translate(-79.197 -110.072)" fill="#263238"/>
        <path id="Path_51215" data-name="Path 51215" d="M220.749,391.076c1.25,0,2.5-.181,2.863-.764a.947.947,0,0,0,0-1.049,1.255,1.255,0,0,0-.725-.557c-1.625-.453-5,1.554-5.164,1.645a.223.223,0,0,0-.113.246.23.23,0,0,0,.175.194A15.209,15.209,0,0,0,220.749,391.076Zm1.55-1.956h.438a.677.677,0,0,1,.45.337c.163.3.113.44,0,.518-.45.661-2.913.674-4.726.4a10.673,10.673,0,0,1,3.839-1.269Z" transform="translate(-75.589 -109.774)" fill="#18aef6"/>
        <path id="Path_51216" data-name="Path 51216" d="M217.811,391.341h.1c1.175-.544,3.5-2.72,3.313-3.886,0-.272-.225-.6-.85-.674a1.711,1.711,0,0,0-1.25.414c-1.25,1.049-1.5,3.77-1.513,3.886a.237.237,0,0,0,.088.22.2.2,0,0,0,.112.039Zm2.376-4.08h.138c.413,0,.438.22.45.272.113.687-1.475,2.4-2.676,3.135a5.716,5.716,0,0,1,1.25-3.1A1.346,1.346,0,0,1,220.186,387.26Z" transform="translate(-75.588 -110.324)" fill="#18aef6"/>
        <path id="Path_51217" data-name="Path 51217" d="M186.109,387.63H175.181a.958.958,0,0,0-.825.907l-1.926,11.529a2.014,2.014,0,0,0,1.113,2.293,1.3,1.3,0,0,0,.313,0c3.814-.078,5.677-.389,10.478-.389,2.963,0,6.752.4,10.84.4s4.614-5.415,2.938-5.894c-7.5-2.2-8.015-5.181-10.415-8.135a2.031,2.031,0,0,0-1.588-.712Z" transform="translate(-86.911 -110.072)" fill="#263238"/>
        <path id="Path_51218" data-name="Path 51218" d="M188.474,392.054a3.011,3.011,0,0,0,2.338-.661.987.987,0,0,0,0-1.127,1.067,1.067,0,0,0-.725-.557c-1.425-.35-4.114,1.554-4.226,1.632a.276.276,0,0,0-.1.246.217.217,0,0,0,.175.181,11.217,11.217,0,0,0,2.538.285Zm1.25-1.917H190a.626.626,0,0,1,.425.311c.213.4.088.557,0,.622-.413.557-2.4.57-3.864.324a7.5,7.5,0,0,1,3.138-1.3Z" transform="translate(-83.561 -109.47)" fill="#18aef6"/>
        <path id="Path_51219" data-name="Path 51219" d="M186.068,392.332h0c1.013-.57,2.963-2.772,2.751-3.886a.758.758,0,0,0-.738-.635,1.294,1.294,0,0,0-.975.311c-1.125.959-1.363,3.886-1.375,3.99a.248.248,0,0,0,.113.22Zm1.963-4.08h.1c.3,0,.325.181.338.246.125.661-1.125,2.332-2.126,3.122a6.022,6.022,0,0,1,1.15-3.161A.821.821,0,0,1,188.031,388.252Z" transform="translate(-83.569 -110.02)" fill="#18aef6"/>
        <path id="Path_51220" data-name="Path 51220" d="M165.173,287.91s46.075,19.715,55.6,34.858c-5.664,38.524-15.829,82.41-15.829,82.41h-17.33a366.761,366.761,0,0,1,4.489-56.685c2.5-47.086-79.3,1.632-63.4-60.584Z" transform="translate(-98.359 -139.524)" fill="#263238"/>
        <path id="Path_51221" data-name="Path 51221" d="M186.888,313.007a83.4,83.4,0,0,0-9.628,1.153l-10.09,1.606a152.1,152.1,0,0,0,16.442,12.461c3.488,2.293,7.289,4.495,11.4,4.508,4.626,0,17.18-6.14,15.1-12.526S192.139,312.773,186.888,313.007Z" transform="translate(-88.215 -132.12)" opacity="0.3"/>
        <path id="Path_51222" data-name="Path 51222" d="M179.29,287.91s42.587,5.7,66.068,19.547c7.227,4.262,6.252,17.954,6.027,26.969a219.579,219.579,0,0,1-13.254,70.752H223.652s.738-24.443.25-63.887c-.15-11.827-23.194-15.726-45.713-17.1-19.452-1.267-36.528-13.852-44.062-32.475l-1.538-3.808Z" transform="translate(-96.872 -139.524)" fill="#263238"/>
        <path id="Path_51223" data-name="Path 51223" d="M224.113,375.34c.075,0-.938,7.086-.938,7.086H203.17l-.55-6.321Z" transform="translate(-79.34 -113.701)" fill="#18aef6"/>
        <path id="Path_51224" data-name="Path 51224" d="M194.983,375.34c.075,0-1.838,7.086-1.838,7.086H173.14l.363-6.321Z" transform="translate(-86.72 -113.701)" fill="#18aef6"/>
        <path id="Path_51225" data-name="Path 51225" d="M151.01,315.7l-14.341,109.47-2.588-.376L145.146,314.87Z" transform="translate(-96.499 -131.561)" fill="#18aef6"/>
        <path id="Path_51226" data-name="Path 51226" d="M150.5,318.546,136.668,424.091l-2.588-.376,10.59-105.2Z" transform="translate(-96.499 -130.483)" opacity="0.4"/>
        <path id="Path_51227" data-name="Path 51227" d="M204.212,320.722H122.94a9.449,9.449,0,0,1,9.278-9.612h62.717a9.449,9.449,0,0,1,9.278,9.612Z" transform="translate(-99.288 -132.672)" fill="#18aef6"/>
        <path id="Path_51228" data-name="Path 51228" d="M204.212,320.722H122.94a9.449,9.449,0,0,1,9.278-9.612h62.717a9.449,9.449,0,0,1,9.278,9.612Z" transform="translate(-99.288 -132.672)" fill="#fff" opacity="0.7"/>
        <path id="Path_51229" data-name="Path 51229" d="M128.4,318.52,116.15,424.959h2.626L134.317,318.52Z" transform="translate(-100.987 -130.483)" fill="#18aef6"/>
        <path id="Path_51230" data-name="Path 51230" d="M186.112,318.52l12.253,106.439h-2.626L180.21,318.52Z" transform="translate(-84.95 -130.483)" fill="#18aef6"/>
        <path id="Path_51231" data-name="Path 51231" d="M186.112,318.52l12.253,106.439h-2.626L180.21,318.52Z" transform="translate(-84.95 -130.483)" opacity="0.4"/>
        <path id="Path_51232" data-name="Path 51232" d="M173,318.52l.238,106.439h-2.613L167.09,318.52Z" transform="translate(-88.235 -130.483)" fill="#18aef6"/>
      </g>
    </g>
  </g>
</svg>
