<svg xmlns="http://www.w3.org/2000/svg" width="42.964" height="42.875" viewBox="0 0 42.964 42.875">
  <g id="Group_55665" data-name="Group 55665" transform="translate(-195.186 -161.11)">
    <g id="Group_55664" data-name="Group 55664" transform="translate(195.186 161.11)">
      <path id="Path_37706" data-name="Path 37706" d="M238.147,182.351c0,4.185.006,8.371,0,12.556a8.947,8.947,0,0,1-7.009,8.833,9.247,9.247,0,0,1-2.139.241q-12.282,0-24.564,0a9.13,9.13,0,0,1-9.231-9.2q-.033-12.23,0-24.46a9.108,9.108,0,0,1,9.229-9.2q12.232-.017,24.464,0a9.1,9.1,0,0,1,9.149,7.829,10.674,10.674,0,0,1,.1,1.652Q238.155,176.474,238.147,182.351Zm-31.409-12.014c-.015-.046-.038-.087-.09-.052-.01.007.021.071.033.109l.123.177c.058.1.109.206.175.3a93.845,93.845,0,0,0,7.791,9.764.7.7,0,0,1,.291.576,121.232,121.232,0,0,1-12.208-9.136c4.421,5.87,9.049,11.537,14.943,16.115a10.5,10.5,0,0,1-3.014,1.331,16.318,16.318,0,0,1-10.6-.858,23.824,23.824,0,0,1-4.47-2.459l-.093-.05.044.1a3.069,3.069,0,0,0,.188.35,21.465,21.465,0,0,0,15.086,9.416,13.7,13.7,0,0,0,8.872-1.651,7.228,7.228,0,0,1,2.107-.794,4.517,4.517,0,0,1,5.251,2.273c.069.114.083.3.311.3a2.7,2.7,0,0,0,.242-1.306,11.394,11.394,0,0,0-2.344-6.809,1.172,1.172,0,0,1-.229-1.093,13.644,13.644,0,0,0-.073-6.852A20.812,20.812,0,0,0,221,168.444a9.177,9.177,0,0,0-1.675-1.07c3.142,4.774,4.748,9.719,2.868,15.362-.3-.176-.546-.311-.782-.465a88.916,88.916,0,0,1-7.235-5.327c-2.529-2.042-4.928-4.228-7.28-6.469Z" transform="translate(-195.185 -161.11)" fill="#ec5240"/>
      <path id="Path_37712" data-name="Path 37712" d="M246.954,226.556c2.352,2.241,4.751,4.427,7.28,6.469a88.913,88.913,0,0,0,7.235,5.327c.236.154.485.289.782.465,1.879-5.643.274-10.588-2.868-15.362a9.178,9.178,0,0,1,1.675,1.07,20.811,20.811,0,0,1,8.071,11.644,13.644,13.644,0,0,1,.073,6.852,1.172,1.172,0,0,0,.229,1.093,11.394,11.394,0,0,1,2.344,6.809,2.7,2.7,0,0,1-.242,1.306c-.228,0-.242-.183-.311-.3a4.517,4.517,0,0,0-5.251-2.273,7.227,7.227,0,0,0-2.107.794,13.7,13.7,0,0,1-8.872,1.651,21.465,21.465,0,0,1-15.086-9.416,3.074,3.074,0,0,1-.188-.35l.05-.052a23.818,23.818,0,0,0,4.47,2.459,16.318,16.318,0,0,0,10.6.858,10.5,10.5,0,0,0,3.014-1.331c-5.894-4.578-10.521-10.245-14.942-16.115a121.22,121.22,0,0,0,12.208,9.136.7.7,0,0,0-.291-.576,93.845,93.845,0,0,1-7.791-9.764c-.066-.095-.117-.2-.175-.3Z" transform="translate(-235.242 -217.191)" fill="#fefefe"/>
      <path id="Path_37713" data-name="Path 37713" d="M309.718,253.174,309.6,253c.02-.018.039-.037.057-.057l.159.138Z" transform="translate(-298.099 -243.713)" fill="#fefefe"/>
      <path id="Path_37714" data-name="Path 37714" d="M309.284,252.414c-.012-.038-.042-.1-.033-.109.052-.035.075.006.09.052Q309.314,252.387,309.284,252.414Z" transform="translate(-297.789 -243.13)" fill="#fefefe"/>
      <path id="Path_37715" data-name="Path 37715" d="M239.327,410.453l-.044-.1.093.05Z" transform="translate(-234.853 -385.307)" fill="#fefefe"/>
    </g>
  </g>
</svg>
