<svg xmlns="http://www.w3.org/2000/svg" xmlns:xlink="http://www.w3.org/1999/xlink" width="62.131" height="62.131" viewBox="0 0 62.131 62.131">
  <defs>
    <linearGradient id="linear-gradient" x1="0.069" y1="0.026" x2="1" y2="0.97" gradientUnits="objectBoundingBox">
      <stop offset="0" stop-color="#1f6acb"/>
      <stop offset="1" stop-color="#14b0ef"/>
    </linearGradient>
  </defs>
  <path id="Union_6" data-name="Union 6" d="M2.589,62.131A2.6,2.6,0,0,1,0,59.542V41.42a2.6,2.6,0,0,1,2.589-2.589h23.3a2.6,2.6,0,0,1,2.589,2.589V59.542a2.6,2.6,0,0,1-2.589,2.589Zm33.655,0a2.6,2.6,0,0,1-2.589-2.589V31.065a2.6,2.6,0,0,1,2.589-2.589h23.3a2.6,2.6,0,0,1,2.589,2.589V59.542a2.6,2.6,0,0,1-2.589,2.589ZM2.589,33.654A2.6,2.6,0,0,1,0,31.065V2.589A2.6,2.6,0,0,1,2.589,0h23.3a2.6,2.6,0,0,1,2.589,2.589V31.065a2.6,2.6,0,0,1-2.589,2.589ZM36.243,23.3a2.6,2.6,0,0,1-2.589-2.589V2.589A2.6,2.6,0,0,1,36.243,0h23.3a2.6,2.6,0,0,1,2.589,2.589V20.711A2.6,2.6,0,0,1,59.542,23.3Z" fill="url(#linear-gradient)"/>
</svg>
