<svg xmlns="http://www.w3.org/2000/svg" width="22.755" height="22.755" viewBox="0 0 22.755 22.755">
  <g id="feedback" transform="translate(0)">
    <path id="Path_51798" data-name="Path 51798" d="M362.229,4.209l-.12,1.517a.667.667,0,0,0,.92.668l1.405-.583,1.405.583a.667.667,0,0,0,.92-.668l-.12-1.517.988-1.157a.666.666,0,0,0-.351-1.081l-1.48-.355L365,.318a.667.667,0,0,0-1.137,0l-.795,1.3-1.48.355a.667.667,0,0,0-.351,1.081Z" transform="translate(-345.034 0)" fill="#eaf0ff"/>
    <path id="Path_51799" data-name="Path 51799" d="M181.69,4.209l-.12,1.517a.667.667,0,0,0,.92.668l1.405-.583,1.405.583a.667.667,0,0,0,.92-.668l-.12-1.517.988-1.157a.667.667,0,0,0-.351-1.081l-1.479-.355-.795-1.3a.667.667,0,0,0-1.137,0l-.795,1.3-1.48.355a.667.667,0,0,0-.351,1.081Z" transform="translate(-172.518 0)" fill="#eaf0ff"/>
    <path id="Path_51800" data-name="Path 51800" d="M1.148,4.209l-.12,1.517a.667.667,0,0,0,.92.668l1.405-.583,1.405.583a.667.667,0,0,0,.92-.668L5.56,4.209l.988-1.157A.667.667,0,0,0,6.2,1.971l-1.48-.355L3.922.318a.667.667,0,0,0-1.137,0l-.795,1.3-1.48.355A.667.667,0,0,0,.16,3.052Z" transform="translate(0 0)" fill="#eaf0ff"/>
    <path id="Path_51801" data-name="Path 51801" d="M20.814,176.017H1.941A1.943,1.943,0,0,0,0,177.958v7.852a1.943,1.943,0,0,0,1.941,1.941H8.316l2.556,2.969a.671.671,0,0,0,1.011,0l2.556-2.969h6.375a1.943,1.943,0,0,0,1.941-1.941v-7.852A1.943,1.943,0,0,0,20.814,176.017Zm-7.837,7.613a.667.667,0,0,1,0-1.333h5.111a.667.667,0,0,1,0,1.333Zm5.111-2.667H4.667a.667.667,0,0,1,0-1.333H18.088a.667.667,0,0,1,0,1.333Zm-7.644,2a.667.667,0,0,1-.667.667H4.667a.667.667,0,0,1,0-1.333H9.777A.667.667,0,0,1,10.444,182.964Z" transform="translate(0 -168.194)" fill="#eaf0ff"/>
  </g>
</svg>
