<svg xmlns="http://www.w3.org/2000/svg" width="57.033" height="57.03" viewBox="0 0 57.033 57.03">
  <g id="Group_68960" data-name="Group 68960" transform="translate(-351.464 -1840.985)">
    <g id="migrating" transform="translate(-108.526 1509.091)">
      <path id="Path_14158" data-name="Path 14158" d="M461.877,383.231v-.744c0-5.655-.016-11.325.016-16.98a2.845,2.845,0,0,0-.523-1.727,7.56,7.56,0,0,1,4.989-11.8c.19-.032.38-.079.586-.111-.982-5.322.57-9.6,5.465-12.149,4.213-2.186,8.237-1.346,11.9,1.647a13.281,13.281,0,0,1,8.395-8.712,13.09,13.09,0,0,1,9.551.3,13.407,13.407,0,0,1,6.431,18.817,23.4,23.4,0,0,1,2.55.333,7.594,7.594,0,0,1-1.695,14.968c-1.584.016-3.168,0-4.562,0a15.72,15.72,0,0,1-1,1.346c-.554.618-1.172,1.188-1.758,1.774-.935.935-.966.935-2.2.317-.111,1.251-.919,1.489-2,1.283v11.436c.269,0,.539-.016.808,0a.944.944,0,0,1,.935,1.125c-.127.855-.269,1.726-.475,2.566a2.83,2.83,0,0,1-2.534,2c-.19.016-.4,0-.586,0H463.746a2.9,2.9,0,0,1-3.279-2.772c-.079-.507-.174-1.014-.269-1.521-.174-.95.174-1.394,1.125-1.41C461.481,383.231,461.655,383.231,461.877,383.231Zm43.717-18.073c1.473,0,2.867.079,4.277-.016a5.682,5.682,0,0,0,.523-11.262c-1.125-.174-2.3-.063-3.437-.143a1.64,1.64,0,0,1-.966-.428c-.364-.428-.143-.871.174-1.283a11.152,11.152,0,0,0,2.186-8.221,11.376,11.376,0,0,0-21.779-3.041c-.38.9-.507,1.9-.839,2.835a1.279,1.279,0,0,1-.7.76c-.285.079-.665-.158-.982-.317-.143-.063-.222-.269-.333-.412a8.551,8.551,0,0,0-15.19,5.1,8.878,8.878,0,0,0,.665,3.58c.333.808-.1,1.41-.982,1.441H467.5a5.7,5.7,0,0,0-4.483,9.124,3.813,3.813,0,0,1,2.534-.57H488.5c-.158-1.093,0-1.948,1.315-2.012-.079-.158-.127-.253-.174-.333-.443-.776-.4-1.03.238-1.663.776-.792,1.568-1.568,2.344-2.36a.989.989,0,0,1,1.346-.174c.143.079.269.158.459.253.063-.222.111-.4.174-.586a.951.951,0,0,1,.95-.744h3.738a.955.955,0,0,1,.966.729c.063.19.111.38.174.586.19-.111.348-.19.507-.269a.968.968,0,0,1,1.251.158c.871.871,1.742,1.727,2.6,2.6a.966.966,0,0,1,.158,1.251c-.079.158-.174.3-.269.475.1.047.158.079.238.111,1,.317,1.077.444,1.077,1.473ZM494.079,370.5c-.222.127-.38.206-.523.285a.95.95,0,0,1-1.251-.158c-.871-.871-1.742-1.727-2.6-2.6a.966.966,0,0,1-.158-1.251c.079-.158.174-.3.317-.57-1.41,0-1.441-.95-1.362-1.98H465.187c-1.125,0-1.378.269-1.378,1.41v17.6H476.75c.871,0,1.045.111,1.378.935h3.706c.143-.776.681-.95,1.394-.95,4.071.016,8.157.016,12.228.016h.618V371.8C494.981,371.969,494.158,371.764,494.079,370.5Zm8.506-11.246c-.238-.206-.554-.412-.824-.681-.792-.776-.792-.776-1.758-.269a.955.955,0,0,1-1.536-.665c-.095-.333-.19-.665-.269-1h-2.3c-.1.38-.174.76-.285,1.109a.943.943,0,0,1-1.41.6c-.269-.127-.507-.317-.776-.444a.536.536,0,0,0-.443.032c-.507.428-1,.9-1.457,1.331,1.283,2.059.9,2.36-1.077,2.851v2.249c.6.333,1.441.127,1.758.9.333.792-.459,1.235-.586,1.774.57.6,1.077,1.14,1.6,1.679,1.917-.966,1.917-.966,2.74,1.172H498.2c.333-.6.111-1.457.919-1.774.792-.317,1.235.491,1.932.618.222-.222.444-.475.681-.713.808-.824.824-.824.285-1.853a.966.966,0,0,1,.618-1.489c.349-.111.713-.19,1.061-.285v-2.281C501.587,361.42,501.587,361.42,502.584,359.25Zm-40.328,25.913c.079,1.742.38,1.885,1.806,1.885q15.99-.024,32-.016c.19,0,.444.063.586-.016a2.1,2.1,0,0,0,.808-.665,3.852,3.852,0,0,0,.222-1.172H483.783c-.158.76-.681.95-1.41.935-1.616-.032-3.247-.032-4.863,0-.713.016-1.251-.158-1.394-.935C471.46,385.164,466.866,385.164,462.257,385.164Z" fill="#222872"/>
      <path id="Path_14159" data-name="Path 14159" d="M739.854,566.2h1.917v9.139c0,.966-.3,1.283-1.267,1.283h-4.4v-1.869h3.754Z" transform="translate(-232.375 -197.193)" fill="#009eff"/>
      <path id="Path_14160" data-name="Path 14160" d="M712.2,620.2h1.822v1.822H712.2Z" transform="translate(-212.261 -242.639)" fill="#009eff"/>
      <path id="Path_14161" data-name="Path 14161" d="M598.992,438.8h-1.885v-2.772H581.9v6.589h-1.869c-.016-.174-.032-.333-.032-.507v-6.763c0-.935.317-1.251,1.251-1.251h16.5c.935,0,1.251.317,1.251,1.251C598.992,436.476,598.992,437.616,598.992,438.8Z" transform="translate(-101.001 -86.017)" fill="#009eff"/>
      <path id="Path_14162" data-name="Path 14162" d="M701.735,365.836a7.8,7.8,0,0,0-7.635-7.619v-1.758c4.293-.4,9.551,3.691,9.425,9.377Z" transform="translate(-197.028 -20.651)" fill="#009eff"/>
      <path id="Path_14163" data-name="Path 14163" d="M532.833,398.2v1.853a4.843,4.843,0,0,0-4.752,4.752h-1.822A6.553,6.553,0,0,1,532.833,398.2Z" transform="translate(-55.766 -55.803)" fill="#009eff"/>
      <path id="Path_14164" data-name="Path 14164" d="M580.2,500.1h1.806v1.853H580.2Z" transform="translate(-101.169 -141.563)" fill="#009eff"/>
      <path id="Path_14166" data-name="Path 14166" d="M677.5,509.817A3.8,3.8,0,1,1,673.7,506,3.806,3.806,0,0,1,677.5,509.817Zm-1.9,0a1.9,1.9,0,1,0-1.9,1.869A1.9,1.9,0,0,0,675.6,509.817Z" transform="translate(-176.661 -146.528)" fill="#222872"/>
    </g>
    <g id="social" transform="translate(364.687 1875.689)">
      <path id="Path_51807" data-name="Path 51807" d="M6.432,0a6.431,6.431,0,1,0,6.43,6.431A6.438,6.438,0,0,0,6.432,0ZM.65,6.431a5.758,5.758,0,0,1,.5-2.353l2.758,7.557A5.783,5.783,0,0,1,.65,6.431Zm5.782,5.782A5.779,5.779,0,0,1,4.8,11.977L6.533,6.936l1.778,4.869a.486.486,0,0,0,.041.08,5.774,5.774,0,0,1-1.92.328Zm.8-8.493c.348-.018.662-.055.662-.055a.239.239,0,0,0-.037-.476s-.936.073-1.541.073c-.568,0-1.523-.073-1.523-.073a.239.239,0,0,0-.036.476s.3.037.606.055l.9,2.468L4.995,9.983,2.89,3.72c.349-.018.662-.055.662-.055a.239.239,0,0,0-.037-.476s-.936.073-1.541.073c-.109,0-.237,0-.372-.007a5.78,5.78,0,0,1,8.735-1.089c-.025,0-.049,0-.075,0a1,1,0,0,0-.971,1.026,2.707,2.707,0,0,0,.568,1.356,3.045,3.045,0,0,1,.477,1.595,6.983,6.983,0,0,1-.44,1.869L9.318,9.935Zm2.11,7.709L11.1,6.322a5.451,5.451,0,0,0,.44-2.071,4.4,4.4,0,0,0-.039-.595,5.783,5.783,0,0,1-2.167,7.772Z" transform="translate(0)" fill="#009eff"/>
    </g>
  </g>
</svg>
