<svg xmlns="http://www.w3.org/2000/svg" width="54.362" height="53.004" viewBox="0 0 54.362 53.004">
  <g id="Group_58127" data-name="Group 58127" transform="translate(-12201 -22119)">
    <path id="Path_43696" data-name="Path 43696" d="M9.626,0h35.11a9.626,9.626,0,0,1,9.626,9.626V43.377A9.626,9.626,0,0,1,44.736,53H9.626A9.626,9.626,0,0,1,0,43.377V9.626A9.626,9.626,0,0,1,9.626,0Z" transform="translate(12201 22119)" fill="#001e36"/>
    <path id="Path_43686" data-name="Path 43686" d="M115.24,150.768v-23.3c0-.169.072-.255.219-.255.388,0,.744,0,1.275-.018s1.112-.024,1.733-.036l1.969-.037q1.039-.018,2.06-.018a13.753,13.753,0,0,1,4.674.693,8.115,8.115,0,0,1,3.044,1.86,7.124,7.124,0,0,1,1.659,2.572,8.532,8.532,0,0,1,.509,2.938,8.1,8.1,0,0,1-1.349,4.814,7.629,7.629,0,0,1-3.647,2.753,14.533,14.533,0,0,1-5.106.765c-.531,0-.911-.005-1.13-.018s-.547-.018-.985-.018v7.275a.289.289,0,0,1-.246.328.264.264,0,0,1-.082,0h-4.341C115.321,151.059,115.24,150.963,115.24,150.768Zm4.925-19.182v7.6q.474.037.875.036h1.2a8.556,8.556,0,0,0,2.608-.416,3.93,3.93,0,0,0,1.86-1.2,3.505,3.505,0,0,0,.711-2.337,3.691,3.691,0,0,0-.531-2.006,3.4,3.4,0,0,0-1.585-1.295,6.765,6.765,0,0,0-2.656-.456q-.876,0-1.55.018t-.931.055Z" transform="translate(12098.002 22005.4)" fill="#31a8ff"/>
    <path id="Path_43687" data-name="Path 43687" d="M310.522,184.91a8.5,8.5,0,0,0-2.17-.766,11.5,11.5,0,0,0-2.535-.292,4.715,4.715,0,0,0-1.367.165,1.227,1.227,0,0,0-.712.456,1.146,1.146,0,0,0-.182.62.965.965,0,0,0,.219.583,2.47,2.47,0,0,0,.766.6,15.056,15.056,0,0,0,1.6.744,15.936,15.936,0,0,1,3.483,1.659,5.311,5.311,0,0,1,1.787,1.878,5.011,5.011,0,0,1,.531,2.337,5.249,5.249,0,0,1-.875,3.009,5.761,5.761,0,0,1-2.535,2.024,10.209,10.209,0,0,1-4.107.731,14.926,14.926,0,0,1-3.081-.292,9.819,9.819,0,0,1-2.316-.73.472.472,0,0,1-.256-.438v-3.938a.212.212,0,0,1,.091-.2.176.176,0,0,1,.2.018,9.733,9.733,0,0,0,2.811,1.112,11.543,11.543,0,0,0,2.663.346,4.094,4.094,0,0,0,1.878-.328,1.03,1.03,0,0,0,.6-.948,1.206,1.206,0,0,0-.547-.913,8.93,8.93,0,0,0-2.226-1.052,13.39,13.39,0,0,1-3.227-1.641,5.569,5.569,0,0,1-1.715-1.912,5.03,5.03,0,0,1-.531-2.316,5.227,5.227,0,0,1,.767-2.743,5.563,5.563,0,0,1,2.371-2.079,8.931,8.931,0,0,1,4.011-.8,17.754,17.754,0,0,1,2.809.2,7.392,7.392,0,0,1,1.955.531.332.332,0,0,1,.219.2.989.989,0,0,1,.036.273v3.684a.244.244,0,0,1-.106.219A.354.354,0,0,1,310.522,184.91Z" transform="translate(11933.962 21958.295)" fill="#31a8ff"/>
  </g>
</svg>
