<svg id="invision" xmlns="http://www.w3.org/2000/svg" width="53.824" height="53.824" viewBox="0 0 53.824 53.824">
  <path id="Path_48555" data-name="Path 48555" d="M48.945,0H4.879A4.879,4.879,0,0,0,0,4.879V48.945a4.879,4.879,0,0,0,4.879,4.879H48.945a4.879,4.879,0,0,0,4.879-4.879V4.879A4.879,4.879,0,0,0,48.945,0" fill="#dc395f"/>
  <path id="Path_48556" data-name="Path 48556" d="M54.861,56.207a3.24,3.24,0,1,0-3.288-3.24,3.25,3.25,0,0,0,3.288,3.24m-6.818,17.35a11.128,11.128,0,0,0-.29,2.434c0,2.853,1.547,4.747,4.835,4.747,2.727,0,4.938-1.619,6.53-4.234l-.972,3.9h5.415l3.095-12.413c.774-3.143,2.273-4.774,4.545-4.774a2.706,2.706,0,0,1,2.9,2.949,5.792,5.792,0,0,1-.242,1.741l-1.6,5.706a8.576,8.576,0,0,0-.338,2.418c0,2.709,1.6,4.69,4.932,4.69,2.853,0,5.125-1.837,6.383-6.237l-2.127-.821c-1.064,2.948-1.983,3.481-2.708,3.481s-1.112-.483-1.112-1.45a6.415,6.415,0,0,1,.242-1.5l1.548-5.559a12.26,12.26,0,0,0,.532-3.526c0-4.158-2.515-6.329-5.561-6.329-2.853,0-5.754,2.573-7.2,5.282L67.914,59.2H59.646l-1.161,4.282h3.868L59.971,73.02c-1.871,4.158-5.307,4.226-5.738,4.129-.708-.16-1.161-.429-1.161-1.349a9.119,9.119,0,0,1,.339-2.213L57.038,59.2H47.851L46.69,63.483h3.82L48.044,73.557" transform="translate(-36.873 -39.273)" fill="#fff"/>
</svg>
