<svg xmlns="http://www.w3.org/2000/svg" width="53.905" height="52.558" viewBox="0 0 53.905 52.558">
  <g id="Group_58126" data-name="Group 58126" transform="translate(-12723 -22119)">
    <path id="Path_43697" data-name="Path 43697" d="M9.546,0H44.359a9.546,9.546,0,0,1,9.546,9.546V43.011a9.546,9.546,0,0,1-9.546,9.546H9.546A9.546,9.546,0,0,1,0,43.011V9.546A9.546,9.546,0,0,1,9.546,0Z" transform="translate(12723 22119)" fill="#470137"/>
    <path id="Path_43688" data-name="Path 43688" d="M95.1,128.246l-6.726,11.1,7.2,11.789a.369.369,0,0,1,.036.271c-.024.084-.105.032-.252.055H90.218c-.362,0-.614-.013-.759-.254q-.723-1.411-1.446-2.8t-1.537-2.84q-.812-1.445-1.608-2.93H84.83q-.724,1.447-1.5,2.894t-1.537,2.875q-.759,1.427-1.555,2.84c-.1.217-.265.24-.506.24H74.775c-.1,0-.149.038-.162-.059a.365.365,0,0,1,.054-.254l6.979-11.466-6.8-11.5c-.073-.1-.084-.175-.036-.235a.259.259,0,0,1,.217-.086h5.1a.769.769,0,0,1,.326.054.668.668,0,0,1,.217.2q.65,1.445,1.446,2.893t1.609,2.85q.812,1.411,1.5,2.857h.037q.723-1.482,1.464-2.893t1.519-2.84q.776-1.428,1.5-2.84a.566.566,0,0,1,.145-.236.52.52,0,0,1,.289-.054h4.734a.21.21,0,0,1,.181.362Z" transform="translate(12656.239 22004.576)" fill="#ff61f6"/>
    <path id="Path_43689" data-name="Path 43689" d="M287.748,135.382a11.207,11.207,0,0,1-4.828-1.012,7.687,7.687,0,0,1-3.382-3.056,9.788,9.788,0,0,1-1.23-5.117,9.467,9.467,0,0,1,1.23-4.734,9.028,9.028,0,0,1,3.576-3.471,11.563,11.563,0,0,1,5.68-1.3c.12,0,.277,0,.47.018s.421.031.687.054v-7.128c0-.168.073-.252.217-.252h4.556a.192.192,0,0,1,.218.162.234.234,0,0,1,0,.055V130.97q0,.615.054,1.338t.09,1.3a.374.374,0,0,1-.217.362,17.956,17.956,0,0,1-3.652,1.085A19.607,19.607,0,0,1,287.748,135.382Zm2.209-4.483v-9.872a3.5,3.5,0,0,0-.6-.105,7.293,7.293,0,0,0-.742-.037,5.591,5.591,0,0,0-2.532.579,4.662,4.662,0,0,0-2.635,4.52,6.373,6.373,0,0,0,.38,2.314,4.411,4.411,0,0,0,1.012,1.592,3.873,3.873,0,0,0,1.519.9,5.957,5.957,0,0,0,1.863.288q.5,0,.939-.036a3.857,3.857,0,0,0,.787-.147Z" transform="translate(12473.968 22021.125)" fill="#ff61f6"/>
  </g>
</svg>
