<svg xmlns="http://www.w3.org/2000/svg" width="53.348" height="52.014" viewBox="0 0 53.348 52.014">
  <g id="Group_58125" data-name="Group 58125" transform="translate(-11679 -22119)">
    <path id="Path_43695" data-name="Path 43695" d="M9.447,0H43.9a9.447,9.447,0,0,1,9.447,9.447v33.12A9.447,9.447,0,0,1,43.9,52.014H9.447A9.447,9.447,0,0,1,0,42.567V9.447A9.447,9.447,0,0,1,9.447,0Z" transform="translate(11679 22119)" fill="#300"/>
    <path id="Path_43684" data-name="Path 43684" d="M120.4,145.575h-8.267l-1.681,5.225a.417.417,0,0,1-.43.322h-4.187q-.359,0-.25-.394l7.158-20.618q.1-.322.215-.73a7.771,7.771,0,0,0,.143-1.45.22.22,0,0,1,.188-.25.208.208,0,0,1,.063,0h5.69c.167,0,.262.059.287.178l8.124,22.9c.072.238,0,.358-.215.358h-4.652a.331.331,0,0,1-.358-.25Zm-6.978-4.512h5.653q-.214-.717-.5-1.611t-.608-1.915l-.645-2.039q-.322-1.02-.59-1.969t-.487-1.732h-.035a28.869,28.869,0,0,1-.752,2.862q-.5,1.612-1.02,3.293T113.421,141.062Z" transform="translate(11584.452 22004.641)" fill="#ff9a00"/>
    <path id="Path_43685" data-name="Path 43685" d="M338.368,116.163a2.6,2.6,0,0,1-1.968-.788,2.829,2.829,0,0,1-.751-2.04,2.626,2.626,0,0,1,.805-1.982,2.766,2.766,0,0,1,1.982-.77,2.659,2.659,0,0,1,2.022.77,2.82,2.82,0,0,1-2.089,4.81ZM335.9,135.451V118.345c0-.215.095-.322.286-.322h4.4c.19,0,.286.1.286.322v17.107c0,.238-.095.358-.286.358h-4.364C336.007,135.81,335.9,135.69,335.9,135.451Z" transform="translate(11378.364 22019.951)" fill="#ff9a00"/>
  </g>
</svg>
