<svg id="figma-icon" xmlns="http://www.w3.org/2000/svg" width="35.992" height="53.987" viewBox="0 0 35.992 53.987">
  <path id="Path_43690" data-name="Path 43690" d="M9,99.916a9,9,0,0,0,9-9v-9H9a9,9,0,0,0,0,18Z" transform="translate(0 -45.928)" fill="#0acf83"/>
  <path id="Path_43691" data-name="Path 43691" d="M0,49.958a9,9,0,0,1,9-9h9v18H9a9,9,0,0,1-9-9Z" transform="translate(0 -22.964)" fill="#a259ff"/>
  <path id="Path_43692" data-name="Path 43692" d="M0,9A9,9,0,0,1,9,0h9V18H9A9,9,0,0,1,0,9Z" fill="#f24e1e"/>
  <path id="Path_43693" data-name="Path 43693" d="M40.96,0h9a9,9,0,1,1,0,18h-9V0Z" transform="translate(-22.964)" fill="#ff7262"/>
  <path id="Path_43694" data-name="Path 43694" d="M58.956,49.958a9,9,0,1,1-9-9,9,9,0,0,1,9,9Z" transform="translate(-22.964 -22.964)" fill="#1abcfe"/>
</svg>
