<svg xmlns="http://www.w3.org/2000/svg" xmlns:xlink="http://www.w3.org/1999/xlink" width="72" height="72" viewBox="0 0 72 72">
  <defs>
    <linearGradient id="linear-gradient" x1="0.5" x2="0.5" y2="1" gradientUnits="objectBoundingBox">
      <stop offset="0" stop-color="#006cf9"/>
      <stop offset="1" stop-color="#05aafd"/>
    </linearGradient>
  </defs>
  <path id="Union_3" data-name="Union 3" d="M58.1,70.028a8.719,8.719,0,0,1-1.042-1.042L47.617,57.767c3.049-2.84,7.306-7.1,10.15-10.149l11.205,9.435A8.464,8.464,0,0,1,58.1,70.028ZM0,27.424A27.41,27.41,0,0,1,52.46,16.282l3.024-3.023a6.259,6.259,0,0,1-.634-2.712,6.329,6.329,0,1,1,6.329,6.328,6.255,6.255,0,0,1-2.712-.634l-4.481,4.481a26.942,26.942,0,0,1-3.223,21.03l3.768,3.156c-2.69,2.874-6.752,6.935-9.624,9.623L41.75,50.764A27.367,27.367,0,0,1,0,27.424Zm4.219,0A23.206,23.206,0,1,0,50.4,24.312l-4.62,4.62a6.257,6.257,0,0,1,.634,2.712,6.329,6.329,0,0,1-12.657,0,6.255,6.255,0,0,1,.634-2.712L30.136,24.68a6.114,6.114,0,0,1-5.423,0l-4.252,4.252a6.257,6.257,0,0,1,.634,2.712,6.329,6.329,0,1,1-6.328-6.329,6.254,6.254,0,0,1,2.711.634L21.729,21.7a6.254,6.254,0,0,1-.634-2.711,6.329,6.329,0,1,1,12.658,0,6.254,6.254,0,0,1-.634,2.711l4.252,4.252a6.112,6.112,0,0,1,5.423,0l6.423-6.422a23.189,23.189,0,0,0-45,7.9Z" fill="url(#linear-gradient)"/>
</svg>
