<svg xmlns="http://www.w3.org/2000/svg" width="21.884" height="17.781"  xmlns:v="https://vecta.io/nano"><path d="M21.884 2.1c-.823.359-1.694.597-2.585.708a4.46 4.46 0 0 0 1.974-2.48c-.879.522-1.842.889-2.845 1.086C17.169.069 15.217-.369 13.504.308s-2.838 2.332-2.837 4.174a4.62 4.62 0 0 0 .1 1.023A12.7 12.7 0 0 1 1.52.812a4.49 4.49 0 0 0 1.379 6 4.43 4.43 0 0 1-2.027-.553v.049a4.51 4.51 0 0 0 3.598 4.411 4.48 4.48 0 0 1-1.176.148c-.285.005-.57-.021-.849-.077a4.53 4.53 0 0 0 4.192 3.125c-1.588 1.242-3.547 1.915-5.563 1.913-.359.003-.718-.018-1.074-.061a12.63 12.63 0 0 0 6.883 2.013A12.68 12.68 0 0 0 19.652 5.014l-.016-.58A8.95 8.95 0 0 0 21.884 2.1z" fill="#06b2ff"/></svg>