<svg xmlns="http://www.w3.org/2000/svg" width="48" height="48" viewBox="0 0 48 48">
  <g id="ui" transform="translate(-0.5)">
    <path id="Path_14134" data-name="Path 14134" d="M142.909,368h-1.6v3.2h-14.4v1.6h14.4v2.4a2.4,2.4,0,0,1-2.4,2.4h-17.6a2.409,2.409,0,0,1-2.08-1.2l-1.386.8a4.016,4.016,0,0,0,3.466,2h17.6a4,4,0,0,0,4-4Zm0,0" transform="translate(-105.609 -331.2)" fill="#222872"/>
    <path id="Path_14135" data-name="Path 14135" d="M232.5,432h1.6v1.6h-1.6Zm0,0" transform="translate(-208.8 -388.8)" fill="#222872"/>
    <path id="Path_14136" data-name="Path 14136" d="M50.1,21.6V20H47.659A10.4,10.4,0,0,0,38.1,10.441V8H36.5v2.441a10.4,10.4,0,0,0-1.6.25V6.4H47.7V4.8H34.9V4a2.4,2.4,0,0,1,2.4-2.4H54.9a2.4,2.4,0,0,1,1.587.6L57.546,1A4,4,0,0,0,54.9,0H37.3a4,4,0,0,0-4,4v7.2A10.414,10.414,0,0,0,26.941,20H24.5v1.6h2.443A10.354,10.354,0,0,0,36.5,31.163V33.6h1.6V31.163A10.354,10.354,0,0,0,47.657,21.6ZM36.5,28v1.563a8.767,8.767,0,0,1-3.2-.923V27.2a4,4,0,0,1,8,0v1.44a8.775,8.775,0,0,1-3.2.926V28Zm-1.6-8.8a2.4,2.4,0,1,1,2.4,2.4A2.4,2.4,0,0,1,34.9,19.2Zm8.266,8.16c-.086.08-.179.144-.266.218V27.2a5.6,5.6,0,0,0-3.023-4.966,4,4,0,1,0-5.154,0A5.6,5.6,0,0,0,31.7,27.2v.382c-.089-.073-.181-.141-.266-.218A8.8,8.8,0,0,1,28.543,21.6H30.1V20H28.541A8.809,8.809,0,0,1,36.5,12.041V13.6h1.6V12.041A8.809,8.809,0,0,1,46.059,20H44.5v1.6h1.557a8.8,8.8,0,0,1-2.891,5.764Zm0,0" transform="translate(-21.6 0)" fill="#222872"/>
    <path id="Path_14137" data-name="Path 14137" d="M290.9,43.2a.8.8,0,0,0,.8-.8V32.8a.8.8,0,0,0-.8-.8H273.3a.8.8,0,0,0-.8.8v9.6a.8.8,0,0,0,.8.8Zm-16.8-9.6h16v8h-16Zm0,0" transform="translate(-244.8 -28.8)" fill="#222872"/>
    <path id="Path_14138" data-name="Path 14138" d="M304.5,64h3.2v1.6h-3.2Zm0,0" transform="translate(-273.6 -57.6)" fill="#222872"/>
    <path id="Path_14139" data-name="Path 14139" d="M352.5,64h8v1.6h-8Zm0,0" transform="translate(-316.8 -57.6)" fill="#222872"/>
    <path id="Path_14140" data-name="Path 14140" d="M304.5,96h12.8v1.6H304.5Zm0,0" transform="translate(-273.6 -86.4)" fill="#222872"/>
    <path id="Path_14141" data-name="Path 14141" d="M261.952,160a2.536,2.536,0,0,0-1.68.64l-6.979,6.152V160h-1.6v8h.231l-4.551,4.016a5.6,5.6,0,0,0-5.28,5.584v1.411a2.08,2.08,0,0,1-1.157,1.873.8.8,0,0,0,.357,1.516h5.6a5.6,5.6,0,0,0,5.584-5.28l11.381-12.9A2.542,2.542,0,0,0,261.952,160Zm-15.059,20.8h-3.659a3.691,3.691,0,0,0,.459-1.789V177.6a4.005,4.005,0,0,1,3.68-3.987l3.507,3.507A4,4,0,0,1,246.894,180.8Zm15.765-17.636-11,12.468-2.8-2.8,12.468-11a.942.942,0,0,1,1.329,1.329Zm0,0" transform="translate(-215.994 -144)" fill="#009eff"/>
    <path id="Path_14142" data-name="Path 14142" d="M1.3,332H18.9a.8.8,0,0,0,.8-.8v-6.4a.8.8,0,0,0-.8-.8H13.3v-4H11.7v4H1.3a.8.8,0,0,0-.8.8v6.4A.8.8,0,0,0,1.3,332Zm.8-6.4h16v4.8H2.1Zm0,0" transform="translate(0 -288)" fill="#222872"/>
    <path id="Path_14143" data-name="Path 14143" d="M32.5,392h4v1.6h-4Zm0,0" transform="translate(-28.8 -352.8)" fill="#222872"/>
    <path id="Path_14144" data-name="Path 14144" d="M88.5,392h7.2v1.6H88.5Zm0,0" transform="translate(-79.2 -352.8)" fill="#222872"/>
    <path id="Path_14145" data-name="Path 14145" d="M1.3,40h8a.8.8,0,0,0,.8-.8V32.8a.8.8,0,0,0-.8-.8h-8a.8.8,0,0,0-.8.8v6.4A.8.8,0,0,0,1.3,40Zm.8-6.4H8.5v4.8H2.1Zm0,0" transform="translate(0 -28.8)" fill="#222872"/>
    <path id="Path_14146" data-name="Path 14146" d="M32.5,64h3.2v1.6H32.5Zm0,0" transform="translate(-28.8 -57.6)" fill="#222872"/>
  </g>
</svg>
