<svg xmlns="http://www.w3.org/2000/svg" width="50.415" height="50.431" viewBox="0 0 50.415 50.431">
  <g id="Group_7172" data-name="Group 7172" transform="translate(0 50.43) rotate(-90)" opacity="0.15">
    <path id="Path_4955" data-name="Path 4955" d="M2,.1A3.126,3.126,0,0,0,.05,2.273,2.837,2.837,0,0,0,3.283,5.506a2.924,2.924,0,0,0,2.278-2.97A3.087,3.087,0,0,0,3.9.24,2.906,2.906,0,0,0,2,.1Z" transform="translate(0 0)" fill="#7595aa"/>
    <path id="Path_4956" data-name="Path 4956" d="M2,.1A3.126,3.126,0,0,0,.05,2.273,2.837,2.837,0,0,0,3.283,5.506a2.924,2.924,0,0,0,2.278-2.97A3.087,3.087,0,0,0,3.9.24,2.906,2.906,0,0,0,2,.1Z" transform="translate(11.215 0)" fill="#7595aa"/>
    <path id="Path_4957" data-name="Path 4957" d="M2,.1A3.126,3.126,0,0,0,.05,2.273,2.837,2.837,0,0,0,3.283,5.506a2.924,2.924,0,0,0,2.278-2.97A3.087,3.087,0,0,0,3.9.24,2.906,2.906,0,0,0,2,.1Z" transform="translate(22.429 0)" fill="#7595aa"/>
    <path id="Path_4958" data-name="Path 4958" d="M2,.1A3.125,3.125,0,0,0,.05,2.273,2.837,2.837,0,0,0,3.283,5.506a2.924,2.924,0,0,0,2.278-2.97A3.087,3.087,0,0,0,3.9.24,2.906,2.906,0,0,0,2,.1Z" transform="translate(33.644 0)" fill="#7595aa"/>
    <path id="Path_4959" data-name="Path 4959" d="M2,.1A3.125,3.125,0,0,0,.05,2.273,2.837,2.837,0,0,0,3.283,5.506a2.924,2.924,0,0,0,2.278-2.97A3.087,3.087,0,0,0,3.9.24,2.906,2.906,0,0,0,2,.1Z" transform="translate(44.858 0)" fill="#7595aa"/>
    <path id="Path_4965" data-name="Path 4965" d="M2,.1A3.125,3.125,0,0,0,.05,2.273,2.837,2.837,0,0,0,3.283,5.505a2.924,2.924,0,0,0,2.278-2.97A3.087,3.087,0,0,0,3.9.24,2.906,2.906,0,0,0,2,.1Z" transform="translate(0 11.215)" fill="#7595aa"/>
    <path id="Path_4966" data-name="Path 4966" d="M2,.1A3.125,3.125,0,0,0,.05,2.273,2.837,2.837,0,0,0,3.283,5.505a2.924,2.924,0,0,0,2.278-2.97A3.087,3.087,0,0,0,3.9.24,2.906,2.906,0,0,0,2,.1Z" transform="translate(11.215 11.215)" fill="#7595aa"/>
    <path id="Path_4967" data-name="Path 4967" d="M2,.1A3.125,3.125,0,0,0,.05,2.273,2.837,2.837,0,0,0,3.283,5.505a2.924,2.924,0,0,0,2.278-2.97A3.087,3.087,0,0,0,3.9.24,2.906,2.906,0,0,0,2,.1Z" transform="translate(22.429 11.215)" fill="#7595aa"/>
    <path id="Path_4968" data-name="Path 4968" d="M2,.1A3.125,3.125,0,0,0,.05,2.273,2.837,2.837,0,0,0,3.283,5.505a2.924,2.924,0,0,0,2.278-2.97A3.087,3.087,0,0,0,3.9.24,2.906,2.906,0,0,0,2,.1Z" transform="translate(33.644 11.215)" fill="#7595aa"/>
    <path id="Path_4969" data-name="Path 4969" d="M2,.1A3.125,3.125,0,0,0,.05,2.273,2.837,2.837,0,0,0,3.283,5.505a2.924,2.924,0,0,0,2.278-2.97A3.087,3.087,0,0,0,3.9.24,2.906,2.906,0,0,0,2,.1Z" transform="translate(44.858 11.215)" fill="#7595aa"/>
    <path id="Path_4975" data-name="Path 4975" d="M2,.1A3.125,3.125,0,0,0,.05,2.273,2.837,2.837,0,0,0,3.283,5.506a2.924,2.924,0,0,0,2.278-2.97A3.087,3.087,0,0,0,3.9.24,2.905,2.905,0,0,0,2,.1Z" transform="translate(0 22.429)" fill="#7595aa"/>
    <path id="Path_4976" data-name="Path 4976" d="M2,.1A3.125,3.125,0,0,0,.05,2.273,2.837,2.837,0,0,0,3.283,5.506a2.924,2.924,0,0,0,2.278-2.97A3.087,3.087,0,0,0,3.9.24,2.905,2.905,0,0,0,2,.1Z" transform="translate(11.215 22.429)" fill="#7595aa"/>
    <path id="Path_4977" data-name="Path 4977" d="M2,.1A3.125,3.125,0,0,0,.05,2.273,2.837,2.837,0,0,0,3.283,5.506a2.924,2.924,0,0,0,2.278-2.97A3.087,3.087,0,0,0,3.9.24,2.906,2.906,0,0,0,2,.1Z" transform="translate(22.429 22.429)" fill="#7595aa"/>
    <path id="Path_4978" data-name="Path 4978" d="M2,.1A3.125,3.125,0,0,0,.05,2.273,2.837,2.837,0,0,0,3.283,5.506a2.924,2.924,0,0,0,2.278-2.97A3.087,3.087,0,0,0,3.9.24,2.906,2.906,0,0,0,2,.1Z" transform="translate(33.644 22.429)" fill="#7595aa"/>
    <path id="Path_4979" data-name="Path 4979" d="M2,.1A3.125,3.125,0,0,0,.05,2.273,2.837,2.837,0,0,0,3.283,5.506a2.924,2.924,0,0,0,2.278-2.97A3.087,3.087,0,0,0,3.9.24,2.906,2.906,0,0,0,2,.1Z" transform="translate(44.858 22.429)" fill="#7595aa"/>
    <path id="Path_4985" data-name="Path 4985" d="M2,.1A3.126,3.126,0,0,0,.05,2.272,2.837,2.837,0,0,0,3.283,5.505a2.924,2.924,0,0,0,2.278-2.97A3.087,3.087,0,0,0,3.9.24,2.906,2.906,0,0,0,2,.1Z" transform="translate(0 33.644)" fill="#7595aa"/>
    <path id="Path_4986" data-name="Path 4986" d="M2,.1A3.126,3.126,0,0,0,.05,2.272,2.837,2.837,0,0,0,3.283,5.505a2.924,2.924,0,0,0,2.278-2.97A3.087,3.087,0,0,0,3.9.24,2.906,2.906,0,0,0,2,.1Z" transform="translate(11.215 33.644)" fill="#7595aa"/>
    <path id="Path_4987" data-name="Path 4987" d="M2,.1A3.126,3.126,0,0,0,.05,2.272,2.837,2.837,0,0,0,3.283,5.505a2.924,2.924,0,0,0,2.278-2.97A3.087,3.087,0,0,0,3.9.24,2.906,2.906,0,0,0,2,.1Z" transform="translate(22.429 33.644)" fill="#7595aa"/>
    <path id="Path_4988" data-name="Path 4988" d="M2,.1A3.125,3.125,0,0,0,.05,2.272,2.837,2.837,0,0,0,3.283,5.505a2.924,2.924,0,0,0,2.278-2.97A3.087,3.087,0,0,0,3.9.24,2.906,2.906,0,0,0,2,.1Z" transform="translate(33.644 33.644)" fill="#7595aa"/>
    <path id="Path_4989" data-name="Path 4989" d="M2,.1A3.125,3.125,0,0,0,.05,2.272,2.837,2.837,0,0,0,3.283,5.505a2.924,2.924,0,0,0,2.278-2.97A3.087,3.087,0,0,0,3.9.24,2.906,2.906,0,0,0,2,.1Z" transform="translate(44.858 33.644)" fill="#7595aa"/>
    <path id="Path_4995" data-name="Path 4995" d="M1.994.1A2.9,2.9,0,0,0,.049,3.271,3.076,3.076,0,0,0,2.283,5.505,2.854,2.854,0,0,0,5.56,2.535,3.087,3.087,0,0,0,3.895.24,2.905,2.905,0,0,0,1.994.1Z" transform="translate(0.002 44.858)" fill="#7595aa"/>
    <path id="Path_4996" data-name="Path 4996" d="M1.994.1A2.9,2.9,0,0,0,.049,3.271,3.076,3.076,0,0,0,2.283,5.505,2.854,2.854,0,0,0,5.56,2.535,3.087,3.087,0,0,0,3.895.24,2.905,2.905,0,0,0,1.994.1Z" transform="translate(11.216 44.858)" fill="#7595aa"/>
    <path id="Path_4997" data-name="Path 4997" d="M1.994.1A2.9,2.9,0,0,0,.049,3.271,3.075,3.075,0,0,0,2.283,5.505,2.855,2.855,0,0,0,5.56,2.535,3.087,3.087,0,0,0,3.895.24,2.905,2.905,0,0,0,1.994.1Z" transform="translate(22.431 44.858)" fill="#7595aa"/>
    <path id="Path_4998" data-name="Path 4998" d="M2,.1A3.125,3.125,0,0,0,.05,2.273,2.837,2.837,0,0,0,3.283,5.505a2.924,2.924,0,0,0,2.278-2.97A3.087,3.087,0,0,0,3.9.24,2.906,2.906,0,0,0,2,.1Z" transform="translate(33.644 44.858)" fill="#7595aa"/>
    <path id="Path_4999" data-name="Path 4999" d="M2,.1A3.125,3.125,0,0,0,.05,2.273,2.837,2.837,0,0,0,3.283,5.505a2.924,2.924,0,0,0,2.278-2.97A3.087,3.087,0,0,0,3.9.24,2.906,2.906,0,0,0,2,.1Z" transform="translate(44.858 44.858)" fill="#7595aa"/>
  </g>
</svg>
