<svg xmlns="http://www.w3.org/2000/svg" width="50.431" height="185.77" viewBox="0 0 50.431 185.77">
  <g id="Group_7170" data-name="Group 7170" transform="translate(0 0)" opacity="0.198">
    <path id="Path_4935" data-name="Path 4935" d="M674.221-1247.538a3.125,3.125,0,0,0-1.945,2.173,2.837,2.837,0,0,0,3.233,3.233,2.924,2.924,0,0,0,2.278-2.97,3.087,3.087,0,0,0-1.665-2.3A2.905,2.905,0,0,0,674.221-1247.538Z" transform="translate(-672.226 1360.564)" fill="#009eff"/>
    <path id="Path_4936" data-name="Path 4936" d="M802.221-1247.538a3.125,3.125,0,0,0-1.945,2.173,2.837,2.837,0,0,0,3.233,3.233,2.924,2.924,0,0,0,2.278-2.97,3.087,3.087,0,0,0-1.665-2.3A2.905,2.905,0,0,0,802.221-1247.538Z" transform="translate(-789.011 1360.564)" fill="#009eff"/>
    <path id="Path_4937" data-name="Path 4937" d="M930.221-1247.538a3.126,3.126,0,0,0-1.945,2.173,2.837,2.837,0,0,0,3.233,3.233,2.924,2.924,0,0,0,2.278-2.97,3.087,3.087,0,0,0-1.665-2.3A2.906,2.906,0,0,0,930.221-1247.538Z" transform="translate(-905.797 1360.564)" fill="#009eff"/>
    <path id="Path_4938" data-name="Path 4938" d="M1058.214-1247.7a3.126,3.126,0,0,0-1.945,2.173,2.764,2.764,0,0,0,1.244,2.795,2.512,2.512,0,0,0,2.953.026,2.667,2.667,0,0,0,.464-4.249A2.7,2.7,0,0,0,1058.214-1247.7Z" transform="translate(-1022.574 1360.728)" fill="#009eff"/>
    <path id="Path_4939" data-name="Path 4939" d="M1186.214-1247.7a3.125,3.125,0,0,0-1.945,2.173,2.763,2.763,0,0,0,1.244,2.795,2.512,2.512,0,0,0,2.953.026,2.667,2.667,0,0,0,.464-4.249A2.7,2.7,0,0,0,1186.214-1247.7Z" transform="translate(-1139.36 1360.728)" fill="#009eff"/>
    <path id="Path_4945" data-name="Path 4945" d="M674.221-1119.538a3.126,3.126,0,0,0-1.945,2.173,2.837,2.837,0,0,0,3.233,3.233,2.924,2.924,0,0,0,2.278-2.97,3.087,3.087,0,0,0-1.665-2.3A2.906,2.906,0,0,0,674.221-1119.538Z" transform="translate(-672.226 1243.779)" fill="#009eff"/>
    <path id="Path_4946" data-name="Path 4946" d="M802.221-1119.538a3.126,3.126,0,0,0-1.945,2.173,2.837,2.837,0,0,0,3.233,3.233,2.924,2.924,0,0,0,2.278-2.97,3.087,3.087,0,0,0-1.665-2.3A2.906,2.906,0,0,0,802.221-1119.538Z" transform="translate(-789.011 1243.779)" fill="#009eff"/>
    <path id="Path_4947" data-name="Path 4947" d="M930.221-1119.538a3.126,3.126,0,0,0-1.945,2.173,2.837,2.837,0,0,0,3.233,3.233,2.924,2.924,0,0,0,2.278-2.97,3.087,3.087,0,0,0-1.665-2.3A2.906,2.906,0,0,0,930.221-1119.538Z" transform="translate(-905.797 1243.779)" fill="#009eff"/>
    <path id="Path_4948" data-name="Path 4948" d="M1058.214-1119.7a3.126,3.126,0,0,0-1.945,2.173,2.764,2.764,0,0,0,1.244,2.8,2.512,2.512,0,0,0,2.953.026,2.667,2.667,0,0,0,.464-4.249A2.7,2.7,0,0,0,1058.214-1119.7Z" transform="translate(-1022.574 1243.943)" fill="#009eff"/>
    <path id="Path_4949" data-name="Path 4949" d="M1186.214-1119.7a3.125,3.125,0,0,0-1.945,2.173,2.764,2.764,0,0,0,1.244,2.8,2.512,2.512,0,0,0,2.953.026,2.667,2.667,0,0,0,.464-4.249A2.7,2.7,0,0,0,1186.214-1119.7Z" transform="translate(-1139.36 1243.943)" fill="#009eff"/>
    <path id="Path_4955" data-name="Path 4955" d="M674.221-991.538a3.126,3.126,0,0,0-1.945,2.173,2.837,2.837,0,0,0,3.233,3.233,2.924,2.924,0,0,0,2.278-2.97,3.087,3.087,0,0,0-1.665-2.3A2.906,2.906,0,0,0,674.221-991.538Z" transform="translate(-672.226 1126.993)" fill="#009eff"/>
    <path id="Path_4956" data-name="Path 4956" d="M802.221-991.538a3.126,3.126,0,0,0-1.945,2.173,2.837,2.837,0,0,0,3.233,3.233,2.924,2.924,0,0,0,2.278-2.97,3.087,3.087,0,0,0-1.665-2.3A2.906,2.906,0,0,0,802.221-991.538Z" transform="translate(-789.011 1126.993)" fill="#009eff"/>
    <path id="Path_4957" data-name="Path 4957" d="M930.221-991.538a3.126,3.126,0,0,0-1.945,2.173,2.837,2.837,0,0,0,3.233,3.233,2.924,2.924,0,0,0,2.278-2.97,3.087,3.087,0,0,0-1.665-2.3A2.906,2.906,0,0,0,930.221-991.538Z" transform="translate(-905.797 1126.993)" fill="#009eff"/>
    <path id="Path_4958" data-name="Path 4958" d="M1058.221-991.538a3.126,3.126,0,0,0-1.945,2.173,2.837,2.837,0,0,0,3.233,3.233,2.924,2.924,0,0,0,2.278-2.97,3.087,3.087,0,0,0-1.665-2.3A2.907,2.907,0,0,0,1058.221-991.538Z" transform="translate(-1022.582 1126.993)" fill="#009eff"/>
    <path id="Path_4959" data-name="Path 4959" d="M1186.221-991.538a3.125,3.125,0,0,0-1.945,2.173,2.837,2.837,0,0,0,3.233,3.233,2.924,2.924,0,0,0,2.278-2.97,3.087,3.087,0,0,0-1.665-2.3A2.907,2.907,0,0,0,1186.221-991.538Z" transform="translate(-1139.368 1126.993)" fill="#009eff"/>
    <path id="Path_4965" data-name="Path 4965" d="M674.221-863.538a3.125,3.125,0,0,0-1.945,2.173,2.837,2.837,0,0,0,3.233,3.233,2.924,2.924,0,0,0,2.278-2.97,3.087,3.087,0,0,0-1.665-2.3A2.905,2.905,0,0,0,674.221-863.538Z" transform="translate(-672.226 1010.208)" fill="#009eff"/>
    <path id="Path_4966" data-name="Path 4966" d="M802.221-863.538a3.125,3.125,0,0,0-1.945,2.173,2.837,2.837,0,0,0,3.233,3.233,2.924,2.924,0,0,0,2.278-2.97,3.087,3.087,0,0,0-1.665-2.3A2.905,2.905,0,0,0,802.221-863.538Z" transform="translate(-789.011 1010.208)" fill="#009eff"/>
    <path id="Path_4967" data-name="Path 4967" d="M930.221-863.538a3.126,3.126,0,0,0-1.945,2.173,2.837,2.837,0,0,0,3.233,3.233,2.924,2.924,0,0,0,2.278-2.97,3.087,3.087,0,0,0-1.665-2.3A2.906,2.906,0,0,0,930.221-863.538Z" transform="translate(-905.797 1010.208)" fill="#009eff"/>
    <path id="Path_4968" data-name="Path 4968" d="M1058.221-863.538a3.125,3.125,0,0,0-1.945,2.173,2.837,2.837,0,0,0,3.233,3.233,2.924,2.924,0,0,0,2.278-2.97,3.087,3.087,0,0,0-1.665-2.3A2.906,2.906,0,0,0,1058.221-863.538Z" transform="translate(-1022.582 1010.208)" fill="#009eff"/>
    <path id="Path_4969" data-name="Path 4969" d="M1186.221-863.538a3.125,3.125,0,0,0-1.945,2.173,2.837,2.837,0,0,0,3.233,3.233,2.924,2.924,0,0,0,2.278-2.97,3.087,3.087,0,0,0-1.665-2.3A2.906,2.906,0,0,0,1186.221-863.538Z" transform="translate(-1139.368 1010.208)" fill="#009eff"/>
    <path id="Path_4975" data-name="Path 4975" d="M674.221-735.538a3.125,3.125,0,0,0-1.945,2.173,2.837,2.837,0,0,0,3.233,3.233,2.924,2.924,0,0,0,2.278-2.97,3.087,3.087,0,0,0-1.665-2.3A2.905,2.905,0,0,0,674.221-735.538Z" transform="translate(-672.226 893.422)" fill="#009eff"/>
    <path id="Path_4976" data-name="Path 4976" d="M802.221-735.538a3.125,3.125,0,0,0-1.945,2.173,2.837,2.837,0,0,0,3.233,3.233,2.924,2.924,0,0,0,2.278-2.97,3.088,3.088,0,0,0-1.665-2.3A2.905,2.905,0,0,0,802.221-735.538Z" transform="translate(-789.011 893.422)" fill="#009eff"/>
    <path id="Path_4977" data-name="Path 4977" d="M930.221-735.538a3.125,3.125,0,0,0-1.945,2.173,2.837,2.837,0,0,0,3.233,3.233,2.924,2.924,0,0,0,2.278-2.97,3.087,3.087,0,0,0-1.665-2.3A2.906,2.906,0,0,0,930.221-735.538Z" transform="translate(-905.797 893.422)" fill="#009eff"/>
    <path id="Path_4978" data-name="Path 4978" d="M1058.221-735.538a3.125,3.125,0,0,0-1.945,2.173,2.837,2.837,0,0,0,3.233,3.233,2.924,2.924,0,0,0,2.278-2.97,3.087,3.087,0,0,0-1.665-2.3A2.906,2.906,0,0,0,1058.221-735.538Z" transform="translate(-1022.582 893.422)" fill="#009eff"/>
    <path id="Path_4979" data-name="Path 4979" d="M1186.221-735.538a3.125,3.125,0,0,0-1.945,2.173,2.837,2.837,0,0,0,3.233,3.233,2.924,2.924,0,0,0,2.278-2.97,3.087,3.087,0,0,0-1.665-2.3A2.906,2.906,0,0,0,1186.221-735.538Z" transform="translate(-1139.368 893.422)" fill="#009eff"/>
    <path id="Path_4985" data-name="Path 4985" d="M674.221-607.538a3.126,3.126,0,0,0-1.945,2.173,2.837,2.837,0,0,0,3.233,3.233,2.924,2.924,0,0,0,2.278-2.97,3.087,3.087,0,0,0-1.665-2.3A2.906,2.906,0,0,0,674.221-607.538Z" transform="translate(-672.226 776.637)" fill="#009eff"/>
    <path id="Path_4986" data-name="Path 4986" d="M802.221-607.538a3.126,3.126,0,0,0-1.945,2.173,2.837,2.837,0,0,0,3.233,3.233,2.924,2.924,0,0,0,2.278-2.97,3.087,3.087,0,0,0-1.665-2.3A2.906,2.906,0,0,0,802.221-607.538Z" transform="translate(-789.011 776.637)" fill="#009eff"/>
    <path id="Path_4987" data-name="Path 4987" d="M930.221-607.538a3.126,3.126,0,0,0-1.945,2.173,2.837,2.837,0,0,0,3.233,3.233,2.924,2.924,0,0,0,2.278-2.97,3.087,3.087,0,0,0-1.665-2.3A2.906,2.906,0,0,0,930.221-607.538Z" transform="translate(-905.797 776.637)" fill="#009eff"/>
    <path id="Path_4988" data-name="Path 4988" d="M1058.221-607.538a3.125,3.125,0,0,0-1.945,2.173,2.837,2.837,0,0,0,3.233,3.233,2.924,2.924,0,0,0,2.278-2.97,3.087,3.087,0,0,0-1.665-2.3A2.906,2.906,0,0,0,1058.221-607.538Z" transform="translate(-1022.582 776.637)" fill="#009eff"/>
    <path id="Path_4989" data-name="Path 4989" d="M1186.221-607.538a3.125,3.125,0,0,0-1.945,2.173,2.837,2.837,0,0,0,3.233,3.233,2.924,2.924,0,0,0,2.278-2.97,3.087,3.087,0,0,0-1.665-2.3A2.906,2.906,0,0,0,1186.221-607.538Z" transform="translate(-1139.368 776.637)" fill="#009eff"/>
    <path id="Path_4995" data-name="Path 4995" d="M674.238-479.538a2.9,2.9,0,0,0-1.945,3.172,3.076,3.076,0,0,0,2.234,2.234,2.854,2.854,0,0,0,3.277-2.97,3.087,3.087,0,0,0-1.665-2.3A2.905,2.905,0,0,0,674.238-479.538Z" transform="translate(-672.242 659.852)" fill="#009eff"/>
    <path id="Path_4996" data-name="Path 4996" d="M802.238-479.538a2.9,2.9,0,0,0-1.945,3.172,3.076,3.076,0,0,0,2.234,2.234,2.854,2.854,0,0,0,3.277-2.97,3.087,3.087,0,0,0-1.665-2.3A2.905,2.905,0,0,0,802.238-479.538Z" transform="translate(-789.028 659.852)" fill="#009eff"/>
    <path id="Path_4997" data-name="Path 4997" d="M930.238-479.538a2.9,2.9,0,0,0-1.945,3.172,3.075,3.075,0,0,0,2.234,2.234,2.855,2.855,0,0,0,3.277-2.97,3.087,3.087,0,0,0-1.665-2.3A2.905,2.905,0,0,0,930.238-479.538Z" transform="translate(-905.814 659.852)" fill="#009eff"/>
    <path id="Path_4998" data-name="Path 4998" d="M1058.221-479.538a3.125,3.125,0,0,0-1.945,2.173,2.837,2.837,0,0,0,3.233,3.233,2.924,2.924,0,0,0,2.278-2.97,3.087,3.087,0,0,0-1.665-2.3A2.906,2.906,0,0,0,1058.221-479.538Z" transform="translate(-1022.582 659.852)" fill="#009eff"/>
    <path id="Path_4999" data-name="Path 4999" d="M1186.221-479.538a3.125,3.125,0,0,0-1.945,2.173,2.837,2.837,0,0,0,3.233,3.233,2.924,2.924,0,0,0,2.278-2.97,3.087,3.087,0,0,0-1.665-2.3A2.906,2.906,0,0,0,1186.221-479.538Z" transform="translate(-1139.368 659.852)" fill="#009eff"/>
    <path id="Path_4935-2" data-name="Path 4935" d="M674.221-1247.538a3.125,3.125,0,0,0-1.945,2.173,2.837,2.837,0,0,0,3.233,3.233,2.924,2.924,0,0,0,2.278-2.97,3.087,3.087,0,0,0-1.665-2.3A2.905,2.905,0,0,0,674.221-1247.538Z" transform="translate(-672.226 1247.654)" fill="#009eff"/>
    <path id="Path_4936-2" data-name="Path 4936" d="M802.221-1247.538a3.125,3.125,0,0,0-1.945,2.173,2.837,2.837,0,0,0,3.233,3.233,2.924,2.924,0,0,0,2.278-2.97,3.087,3.087,0,0,0-1.665-2.3A2.905,2.905,0,0,0,802.221-1247.538Z" transform="translate(-789.011 1247.654)" fill="#009eff"/>
    <path id="Path_4937-2" data-name="Path 4937" d="M930.221-1247.538a3.126,3.126,0,0,0-1.945,2.173,2.837,2.837,0,0,0,3.233,3.233,2.924,2.924,0,0,0,2.278-2.97,3.087,3.087,0,0,0-1.665-2.3A2.906,2.906,0,0,0,930.221-1247.538Z" transform="translate(-905.797 1247.654)" fill="#009eff"/>
    <path id="Path_4938-2" data-name="Path 4938" d="M1058.214-1247.7a3.126,3.126,0,0,0-1.945,2.173,2.764,2.764,0,0,0,1.244,2.795,2.512,2.512,0,0,0,2.953.026,2.667,2.667,0,0,0,.464-4.249A2.7,2.7,0,0,0,1058.214-1247.7Z" transform="translate(-1022.574 1247.818)" fill="#009eff"/>
    <path id="Path_4939-2" data-name="Path 4939" d="M1186.214-1247.7a3.125,3.125,0,0,0-1.945,2.173,2.763,2.763,0,0,0,1.244,2.795,2.512,2.512,0,0,0,2.953.026,2.667,2.667,0,0,0,.464-4.249A2.7,2.7,0,0,0,1186.214-1247.7Z" transform="translate(-1139.36 1247.818)" fill="#009eff"/>
    <path id="Path_4945-2" data-name="Path 4945" d="M674.221-1119.538a3.126,3.126,0,0,0-1.945,2.173,2.837,2.837,0,0,0,3.233,3.233,2.924,2.924,0,0,0,2.278-2.97,3.087,3.087,0,0,0-1.665-2.3A2.906,2.906,0,0,0,674.221-1119.538Z" transform="translate(-672.226 1130.868)" fill="#009eff"/>
    <path id="Path_4946-2" data-name="Path 4946" d="M802.221-1119.538a3.126,3.126,0,0,0-1.945,2.173,2.837,2.837,0,0,0,3.233,3.233,2.924,2.924,0,0,0,2.278-2.97,3.087,3.087,0,0,0-1.665-2.3A2.906,2.906,0,0,0,802.221-1119.538Z" transform="translate(-789.011 1130.868)" fill="#009eff"/>
    <path id="Path_4947-2" data-name="Path 4947" d="M930.221-1119.538a3.126,3.126,0,0,0-1.945,2.173,2.837,2.837,0,0,0,3.233,3.233,2.924,2.924,0,0,0,2.278-2.97,3.087,3.087,0,0,0-1.665-2.3A2.906,2.906,0,0,0,930.221-1119.538Z" transform="translate(-905.797 1130.868)" fill="#009eff"/>
    <path id="Path_4948-2" data-name="Path 4948" d="M1058.214-1119.7a3.126,3.126,0,0,0-1.945,2.173,2.764,2.764,0,0,0,1.244,2.8,2.512,2.512,0,0,0,2.953.026,2.667,2.667,0,0,0,.464-4.249A2.7,2.7,0,0,0,1058.214-1119.7Z" transform="translate(-1022.574 1131.032)" fill="#009eff"/>
    <path id="Path_4949-2" data-name="Path 4949" d="M1186.214-1119.7a3.125,3.125,0,0,0-1.945,2.173,2.764,2.764,0,0,0,1.244,2.8,2.512,2.512,0,0,0,2.953.026,2.667,2.667,0,0,0,.464-4.249A2.7,2.7,0,0,0,1186.214-1119.7Z" transform="translate(-1139.36 1131.032)" fill="#009eff"/>
    <path id="Path_4955-2" data-name="Path 4955" d="M674.221-991.538a3.126,3.126,0,0,0-1.945,2.173,2.837,2.837,0,0,0,3.233,3.233,2.924,2.924,0,0,0,2.278-2.97,3.087,3.087,0,0,0-1.665-2.3A2.906,2.906,0,0,0,674.221-991.538Z" transform="translate(-672.226 1014.083)" fill="#009eff"/>
    <path id="Path_4956-2" data-name="Path 4956" d="M802.221-991.538a3.126,3.126,0,0,0-1.945,2.173,2.837,2.837,0,0,0,3.233,3.233,2.924,2.924,0,0,0,2.278-2.97,3.087,3.087,0,0,0-1.665-2.3A2.906,2.906,0,0,0,802.221-991.538Z" transform="translate(-789.011 1014.083)" fill="#009eff"/>
    <path id="Path_4957-2" data-name="Path 4957" d="M930.221-991.538a3.126,3.126,0,0,0-1.945,2.173,2.837,2.837,0,0,0,3.233,3.233,2.924,2.924,0,0,0,2.278-2.97,3.087,3.087,0,0,0-1.665-2.3A2.906,2.906,0,0,0,930.221-991.538Z" transform="translate(-905.797 1014.083)" fill="#009eff"/>
    <path id="Path_4958-2" data-name="Path 4958" d="M1058.221-991.538a3.126,3.126,0,0,0-1.945,2.173,2.837,2.837,0,0,0,3.233,3.233,2.924,2.924,0,0,0,2.278-2.97,3.087,3.087,0,0,0-1.665-2.3A2.907,2.907,0,0,0,1058.221-991.538Z" transform="translate(-1022.582 1014.083)" fill="#009eff"/>
    <path id="Path_4959-2" data-name="Path 4959" d="M1186.221-991.538a3.125,3.125,0,0,0-1.945,2.173,2.837,2.837,0,0,0,3.233,3.233,2.924,2.924,0,0,0,2.278-2.97,3.087,3.087,0,0,0-1.665-2.3A2.907,2.907,0,0,0,1186.221-991.538Z" transform="translate(-1139.368 1014.083)" fill="#009eff"/>
    <path id="Path_4965-2" data-name="Path 4965" d="M674.221-863.538a3.125,3.125,0,0,0-1.945,2.173,2.837,2.837,0,0,0,3.233,3.233,2.924,2.924,0,0,0,2.278-2.97,3.087,3.087,0,0,0-1.665-2.3A2.905,2.905,0,0,0,674.221-863.538Z" transform="translate(-672.226 897.297)" fill="#009eff"/>
    <path id="Path_4966-2" data-name="Path 4966" d="M802.221-863.538a3.125,3.125,0,0,0-1.945,2.173,2.837,2.837,0,0,0,3.233,3.233,2.924,2.924,0,0,0,2.278-2.97,3.087,3.087,0,0,0-1.665-2.3A2.905,2.905,0,0,0,802.221-863.538Z" transform="translate(-789.011 897.297)" fill="#009eff"/>
    <path id="Path_4967-2" data-name="Path 4967" d="M930.221-863.538a3.126,3.126,0,0,0-1.945,2.173,2.837,2.837,0,0,0,3.233,3.233,2.924,2.924,0,0,0,2.278-2.97,3.087,3.087,0,0,0-1.665-2.3A2.906,2.906,0,0,0,930.221-863.538Z" transform="translate(-905.797 897.297)" fill="#009eff"/>
    <path id="Path_4968-2" data-name="Path 4968" d="M1058.221-863.538a3.125,3.125,0,0,0-1.945,2.173,2.837,2.837,0,0,0,3.233,3.233,2.924,2.924,0,0,0,2.278-2.97,3.087,3.087,0,0,0-1.665-2.3A2.906,2.906,0,0,0,1058.221-863.538Z" transform="translate(-1022.582 897.297)" fill="#009eff"/>
    <path id="Path_4969-2" data-name="Path 4969" d="M1186.221-863.538a3.125,3.125,0,0,0-1.945,2.173,2.837,2.837,0,0,0,3.233,3.233,2.924,2.924,0,0,0,2.278-2.97,3.087,3.087,0,0,0-1.665-2.3A2.906,2.906,0,0,0,1186.221-863.538Z" transform="translate(-1139.368 897.297)" fill="#009eff"/>
    <path id="Path_4975-2" data-name="Path 4975" d="M674.221-735.538a3.125,3.125,0,0,0-1.945,2.173,2.837,2.837,0,0,0,3.233,3.233,2.924,2.924,0,0,0,2.278-2.97,3.087,3.087,0,0,0-1.665-2.3A2.905,2.905,0,0,0,674.221-735.538Z" transform="translate(-672.226 780.512)" fill="#009eff"/>
    <path id="Path_4976-2" data-name="Path 4976" d="M802.221-735.538a3.125,3.125,0,0,0-1.945,2.173,2.837,2.837,0,0,0,3.233,3.233,2.924,2.924,0,0,0,2.278-2.97,3.088,3.088,0,0,0-1.665-2.3A2.905,2.905,0,0,0,802.221-735.538Z" transform="translate(-789.011 780.512)" fill="#009eff"/>
    <path id="Path_4977-2" data-name="Path 4977" d="M930.221-735.538a3.125,3.125,0,0,0-1.945,2.173,2.837,2.837,0,0,0,3.233,3.233,2.924,2.924,0,0,0,2.278-2.97,3.087,3.087,0,0,0-1.665-2.3A2.906,2.906,0,0,0,930.221-735.538Z" transform="translate(-905.797 780.512)" fill="#009eff"/>
    <path id="Path_4978-2" data-name="Path 4978" d="M1058.221-735.538a3.125,3.125,0,0,0-1.945,2.173,2.837,2.837,0,0,0,3.233,3.233,2.924,2.924,0,0,0,2.278-2.97,3.087,3.087,0,0,0-1.665-2.3A2.906,2.906,0,0,0,1058.221-735.538Z" transform="translate(-1022.582 780.512)" fill="#009eff"/>
    <path id="Path_4979-2" data-name="Path 4979" d="M1186.221-735.538a3.125,3.125,0,0,0-1.945,2.173,2.837,2.837,0,0,0,3.233,3.233,2.924,2.924,0,0,0,2.278-2.97,3.087,3.087,0,0,0-1.665-2.3A2.906,2.906,0,0,0,1186.221-735.538Z" transform="translate(-1139.368 780.512)" fill="#009eff"/>
    <path id="Path_4985-2" data-name="Path 4985" d="M674.221-607.538a3.126,3.126,0,0,0-1.945,2.173,2.837,2.837,0,0,0,3.233,3.233,2.924,2.924,0,0,0,2.278-2.97,3.087,3.087,0,0,0-1.665-2.3A2.906,2.906,0,0,0,674.221-607.538Z" transform="translate(-672.226 663.727)" fill="#009eff"/>
    <path id="Path_4986-2" data-name="Path 4986" d="M802.221-607.538a3.126,3.126,0,0,0-1.945,2.173,2.837,2.837,0,0,0,3.233,3.233,2.924,2.924,0,0,0,2.278-2.97,3.087,3.087,0,0,0-1.665-2.3A2.906,2.906,0,0,0,802.221-607.538Z" transform="translate(-789.011 663.727)" fill="#009eff"/>
    <path id="Path_4987-2" data-name="Path 4987" d="M930.221-607.538a3.126,3.126,0,0,0-1.945,2.173,2.837,2.837,0,0,0,3.233,3.233,2.924,2.924,0,0,0,2.278-2.97,3.087,3.087,0,0,0-1.665-2.3A2.906,2.906,0,0,0,930.221-607.538Z" transform="translate(-905.797 663.727)" fill="#009eff"/>
    <path id="Path_4988-2" data-name="Path 4988" d="M1058.221-607.538a3.125,3.125,0,0,0-1.945,2.173,2.837,2.837,0,0,0,3.233,3.233,2.924,2.924,0,0,0,2.278-2.97,3.087,3.087,0,0,0-1.665-2.3A2.906,2.906,0,0,0,1058.221-607.538Z" transform="translate(-1022.582 663.727)" fill="#009eff"/>
    <path id="Path_4989-2" data-name="Path 4989" d="M1186.221-607.538a3.125,3.125,0,0,0-1.945,2.173,2.837,2.837,0,0,0,3.233,3.233,2.924,2.924,0,0,0,2.278-2.97,3.087,3.087,0,0,0-1.665-2.3A2.906,2.906,0,0,0,1186.221-607.538Z" transform="translate(-1139.368 663.727)" fill="#009eff"/>
    <path id="Path_4995-2" data-name="Path 4995" d="M674.238-479.538a2.9,2.9,0,0,0-1.945,3.172,3.076,3.076,0,0,0,2.234,2.234,2.854,2.854,0,0,0,3.277-2.97,3.087,3.087,0,0,0-1.665-2.3A2.905,2.905,0,0,0,674.238-479.538Z" transform="translate(-672.242 546.941)" fill="#009eff"/>
    <path id="Path_4996-2" data-name="Path 4996" d="M802.238-479.538a2.9,2.9,0,0,0-1.945,3.172,3.076,3.076,0,0,0,2.234,2.234,2.854,2.854,0,0,0,3.277-2.97,3.087,3.087,0,0,0-1.665-2.3A2.905,2.905,0,0,0,802.238-479.538Z" transform="translate(-789.028 546.941)" fill="#009eff"/>
    <path id="Path_4997-2" data-name="Path 4997" d="M930.238-479.538a2.9,2.9,0,0,0-1.945,3.172,3.075,3.075,0,0,0,2.234,2.234,2.855,2.855,0,0,0,3.277-2.97,3.087,3.087,0,0,0-1.665-2.3A2.905,2.905,0,0,0,930.238-479.538Z" transform="translate(-905.814 546.941)" fill="#009eff"/>
    <path id="Path_4998-2" data-name="Path 4998" d="M1058.221-479.538a3.125,3.125,0,0,0-1.945,2.173,2.837,2.837,0,0,0,3.233,3.233,2.924,2.924,0,0,0,2.278-2.97,3.087,3.087,0,0,0-1.665-2.3A2.906,2.906,0,0,0,1058.221-479.538Z" transform="translate(-1022.582 546.941)" fill="#009eff"/>
    <path id="Path_4999-2" data-name="Path 4999" d="M1186.221-479.538a3.125,3.125,0,0,0-1.945,2.173,2.837,2.837,0,0,0,3.233,3.233,2.924,2.924,0,0,0,2.278-2.97,3.087,3.087,0,0,0-1.665-2.3A2.906,2.906,0,0,0,1186.221-479.538Z" transform="translate(-1139.368 546.941)" fill="#009eff"/>
    <path id="Path_5005" data-name="Path 5005" d="M674.238-351.538a2.9,2.9,0,0,0-1.945,3.172,3.075,3.075,0,0,0,2.234,2.234,2.854,2.854,0,0,0,3.277-2.97,3.087,3.087,0,0,0-1.665-2.3A2.905,2.905,0,0,0,674.238-351.538Z" transform="translate(-672.242 430.156)" fill="#009eff"/>
    <path id="Path_5006" data-name="Path 5006" d="M802.238-351.538a2.9,2.9,0,0,0-1.945,3.172,3.075,3.075,0,0,0,2.234,2.234,2.854,2.854,0,0,0,3.277-2.97,3.087,3.087,0,0,0-1.665-2.3A2.905,2.905,0,0,0,802.238-351.538Z" transform="translate(-789.028 430.156)" fill="#009eff"/>
    <path id="Path_5007" data-name="Path 5007" d="M930.238-351.538a2.9,2.9,0,0,0-1.945,3.172,3.075,3.075,0,0,0,2.234,2.234,2.855,2.855,0,0,0,3.277-2.97,3.087,3.087,0,0,0-1.665-2.3A2.905,2.905,0,0,0,930.238-351.538Z" transform="translate(-905.814 430.156)" fill="#009eff"/>
    <path id="Path_5008" data-name="Path 5008" d="M1058.221-351.538a3.125,3.125,0,0,0-1.945,2.173,2.837,2.837,0,0,0,3.233,3.233,2.924,2.924,0,0,0,2.278-2.97,3.087,3.087,0,0,0-1.665-2.3A2.906,2.906,0,0,0,1058.221-351.538Z" transform="translate(-1022.582 430.156)" fill="#009eff"/>
    <path id="Path_5009" data-name="Path 5009" d="M1186.221-351.538a3.125,3.125,0,0,0-1.945,2.173,2.837,2.837,0,0,0,3.233,3.233,2.924,2.924,0,0,0,2.278-2.97,3.086,3.086,0,0,0-1.665-2.3A2.906,2.906,0,0,0,1186.221-351.538Z" transform="translate(-1139.368 430.156)" fill="#009eff"/>
    <path id="Path_5015" data-name="Path 5015" d="M674.221-223.538a3.125,3.125,0,0,0-1.945,2.173,2.837,2.837,0,0,0,3.233,3.233,2.924,2.924,0,0,0,2.278-2.97,3.087,3.087,0,0,0-1.665-2.3A2.905,2.905,0,0,0,674.221-223.538Z" transform="translate(-672.226 313.37)" fill="#009eff"/>
    <path id="Path_5016" data-name="Path 5016" d="M802.221-223.538a3.125,3.125,0,0,0-1.945,2.173,2.837,2.837,0,0,0,3.233,3.233,2.924,2.924,0,0,0,2.278-2.97,3.087,3.087,0,0,0-1.665-2.3A2.906,2.906,0,0,0,802.221-223.538Z" transform="translate(-789.011 313.37)" fill="#009eff"/>
    <path id="Path_5017" data-name="Path 5017" d="M930.221-223.538a3.126,3.126,0,0,0-1.945,2.173,2.837,2.837,0,0,0,3.233,3.233,2.924,2.924,0,0,0,2.278-2.97,3.087,3.087,0,0,0-1.665-2.3A2.906,2.906,0,0,0,930.221-223.538Z" transform="translate(-905.797 313.37)" fill="#009eff"/>
    <path id="Path_5018" data-name="Path 5018" d="M1058.221-223.538a3.125,3.125,0,0,0-1.945,2.173,2.837,2.837,0,0,0,3.233,3.233,2.924,2.924,0,0,0,2.278-2.97,3.087,3.087,0,0,0-1.665-2.3A2.906,2.906,0,0,0,1058.221-223.538Z" transform="translate(-1022.582 313.37)" fill="#009eff"/>
    <path id="Path_5019" data-name="Path 5019" d="M1186.221-223.538a3.125,3.125,0,0,0-1.945,2.173,2.837,2.837,0,0,0,3.233,3.233,2.924,2.924,0,0,0,2.278-2.97,3.087,3.087,0,0,0-1.665-2.3A2.906,2.906,0,0,0,1186.221-223.538Z" transform="translate(-1139.368 313.37)" fill="#009eff"/>
    <path id="Path_5025" data-name="Path 5025" d="M674.221-95.538a3.125,3.125,0,0,0-1.945,2.173,2.837,2.837,0,0,0,3.233,3.233,2.924,2.924,0,0,0,2.278-2.97,3.087,3.087,0,0,0-1.665-2.3A2.905,2.905,0,0,0,674.221-95.538Z" transform="translate(-672.226 196.585)" fill="#009eff"/>
    <path id="Path_5026" data-name="Path 5026" d="M802.221-95.538a3.125,3.125,0,0,0-1.945,2.173,2.837,2.837,0,0,0,3.233,3.233,2.924,2.924,0,0,0,2.278-2.97,3.087,3.087,0,0,0-1.665-2.3A2.905,2.905,0,0,0,802.221-95.538Z" transform="translate(-789.011 196.585)" fill="#009eff"/>
    <path id="Path_5027" data-name="Path 5027" d="M930.221-95.538a3.125,3.125,0,0,0-1.945,2.173,2.837,2.837,0,0,0,3.233,3.233,2.924,2.924,0,0,0,2.278-2.97,3.087,3.087,0,0,0-1.665-2.3A2.906,2.906,0,0,0,930.221-95.538Z" transform="translate(-905.797 196.585)" fill="#009eff"/>
    <path id="Path_5028" data-name="Path 5028" d="M1058.221-95.538a3.125,3.125,0,0,0-1.945,2.173,2.837,2.837,0,0,0,3.233,3.233,2.924,2.924,0,0,0,2.278-2.97,3.087,3.087,0,0,0-1.665-2.3A2.906,2.906,0,0,0,1058.221-95.538Z" transform="translate(-1022.582 196.585)" fill="#009eff"/>
    <path id="Path_5029" data-name="Path 5029" d="M1186.221-95.538a3.125,3.125,0,0,0-1.945,2.173,2.837,2.837,0,0,0,3.233,3.233,2.924,2.924,0,0,0,2.278-2.97,3.087,3.087,0,0,0-1.665-2.3A2.906,2.906,0,0,0,1186.221-95.538Z" transform="translate(-1139.368 196.585)" fill="#009eff"/>
  </g>
</svg>
