<svg xmlns="http://www.w3.org/2000/svg" width="185.77" height="50.431" viewBox="0 0 185.77 50.431">
  <g id="Group_7171" data-name="Group 7171" transform="translate(0 50.431) rotate(-90)" opacity="0.15">
    <path id="Path_4935" data-name="Path 4935" d="M2,.1A3.125,3.125,0,0,0,.05,2.272,2.837,2.837,0,0,0,3.283,5.505a2.924,2.924,0,0,0,2.278-2.97A3.087,3.087,0,0,0,3.9.24,2.905,2.905,0,0,0,2,.1Z" transform="translate(0 112.926)" fill="#7595aa"/>
    <path id="Path_4936" data-name="Path 4936" d="M2,.1A3.125,3.125,0,0,0,.05,2.272,2.837,2.837,0,0,0,3.283,5.505a2.924,2.924,0,0,0,2.278-2.97A3.087,3.087,0,0,0,3.9.24,2.905,2.905,0,0,0,2,.1Z" transform="translate(11.215 112.926)" fill="#7595aa"/>
    <path id="Path_4937" data-name="Path 4937" d="M2,.1A3.126,3.126,0,0,0,.05,2.272,2.837,2.837,0,0,0,3.283,5.505a2.924,2.924,0,0,0,2.278-2.97A3.087,3.087,0,0,0,3.9.24,2.906,2.906,0,0,0,2,.1Z" transform="translate(22.429 112.926)" fill="#7595aa"/>
    <path id="Path_4938" data-name="Path 4938" d="M2,.115A3.125,3.125,0,0,0,.051,2.288,2.764,2.764,0,0,0,1.3,5.083a2.512,2.512,0,0,0,2.953.026A2.667,2.667,0,0,0,4.712.86,2.7,2.7,0,0,0,2,.115Z" transform="translate(33.643 112.91)" fill="#7595aa"/>
    <path id="Path_4939" data-name="Path 4939" d="M2,.115A3.125,3.125,0,0,0,.051,2.288,2.763,2.763,0,0,0,1.3,5.083a2.512,2.512,0,0,0,2.953.026A2.667,2.667,0,0,0,4.712.86,2.7,2.7,0,0,0,2,.115Z" transform="translate(44.857 112.91)" fill="#7595aa"/>
    <path id="Path_4945" data-name="Path 4945" d="M2,.1A3.125,3.125,0,0,0,.05,2.272,2.837,2.837,0,0,0,3.283,5.505a2.924,2.924,0,0,0,2.278-2.97A3.087,3.087,0,0,0,3.9.24,2.905,2.905,0,0,0,2,.1Z" transform="translate(0 124.141)" fill="#7595aa"/>
    <path id="Path_4946" data-name="Path 4946" d="M2,.1A3.125,3.125,0,0,0,.05,2.272,2.837,2.837,0,0,0,3.283,5.505a2.924,2.924,0,0,0,2.278-2.97A3.087,3.087,0,0,0,3.9.24,2.905,2.905,0,0,0,2,.1Z" transform="translate(11.215 124.141)" fill="#7595aa"/>
    <path id="Path_4947" data-name="Path 4947" d="M2,.1A3.126,3.126,0,0,0,.05,2.272,2.837,2.837,0,0,0,3.283,5.505a2.924,2.924,0,0,0,2.278-2.97A3.087,3.087,0,0,0,3.9.24,2.906,2.906,0,0,0,2,.1Z" transform="translate(22.429 124.141)" fill="#7595aa"/>
    <path id="Path_4948" data-name="Path 4948" d="M2,.116A3.125,3.125,0,0,0,.051,2.288,2.764,2.764,0,0,0,1.3,5.083a2.512,2.512,0,0,0,2.953.026A2.667,2.667,0,0,0,4.712.86,2.7,2.7,0,0,0,2,.116Z" transform="translate(33.643 124.125)" fill="#7595aa"/>
    <path id="Path_4949" data-name="Path 4949" d="M2,.116A3.125,3.125,0,0,0,.051,2.288,2.764,2.764,0,0,0,1.3,5.083a2.512,2.512,0,0,0,2.953.026A2.667,2.667,0,0,0,4.712.86,2.7,2.7,0,0,0,2,.116Z" transform="translate(44.857 124.125)" fill="#7595aa"/>
    <path id="Path_4955" data-name="Path 4955" d="M2,.1A3.126,3.126,0,0,0,.05,2.273,2.837,2.837,0,0,0,3.283,5.506a2.924,2.924,0,0,0,2.278-2.97A3.087,3.087,0,0,0,3.9.24,2.906,2.906,0,0,0,2,.1Z" transform="translate(0 135.355)" fill="#7595aa"/>
    <path id="Path_4956" data-name="Path 4956" d="M2,.1A3.126,3.126,0,0,0,.05,2.273,2.837,2.837,0,0,0,3.283,5.506a2.924,2.924,0,0,0,2.278-2.97A3.087,3.087,0,0,0,3.9.24,2.906,2.906,0,0,0,2,.1Z" transform="translate(11.215 135.355)" fill="#7595aa"/>
    <path id="Path_4957" data-name="Path 4957" d="M2,.1A3.126,3.126,0,0,0,.05,2.273,2.837,2.837,0,0,0,3.283,5.506a2.924,2.924,0,0,0,2.278-2.97A3.087,3.087,0,0,0,3.9.24,2.906,2.906,0,0,0,2,.1Z" transform="translate(22.429 135.355)" fill="#7595aa"/>
    <path id="Path_4958" data-name="Path 4958" d="M2,.1A3.125,3.125,0,0,0,.05,2.273,2.837,2.837,0,0,0,3.283,5.506a2.924,2.924,0,0,0,2.278-2.97A3.087,3.087,0,0,0,3.9.24,2.906,2.906,0,0,0,2,.1Z" transform="translate(33.644 135.355)" fill="#7595aa"/>
    <path id="Path_4959" data-name="Path 4959" d="M2,.1A3.125,3.125,0,0,0,.05,2.273,2.837,2.837,0,0,0,3.283,5.506a2.924,2.924,0,0,0,2.278-2.97A3.087,3.087,0,0,0,3.9.24,2.906,2.906,0,0,0,2,.1Z" transform="translate(44.858 135.355)" fill="#7595aa"/>
    <path id="Path_4965" data-name="Path 4965" d="M2,.1A3.125,3.125,0,0,0,.05,2.273,2.837,2.837,0,0,0,3.283,5.505a2.924,2.924,0,0,0,2.278-2.97A3.087,3.087,0,0,0,3.9.24,2.906,2.906,0,0,0,2,.1Z" transform="translate(0 146.57)" fill="#7595aa"/>
    <path id="Path_4966" data-name="Path 4966" d="M2,.1A3.125,3.125,0,0,0,.05,2.273,2.837,2.837,0,0,0,3.283,5.505a2.924,2.924,0,0,0,2.278-2.97A3.087,3.087,0,0,0,3.9.24,2.906,2.906,0,0,0,2,.1Z" transform="translate(11.215 146.57)" fill="#7595aa"/>
    <path id="Path_4967" data-name="Path 4967" d="M2,.1A3.125,3.125,0,0,0,.05,2.273,2.837,2.837,0,0,0,3.283,5.505a2.924,2.924,0,0,0,2.278-2.97A3.087,3.087,0,0,0,3.9.24,2.906,2.906,0,0,0,2,.1Z" transform="translate(22.429 146.57)" fill="#7595aa"/>
    <path id="Path_4968" data-name="Path 4968" d="M2,.1A3.125,3.125,0,0,0,.05,2.273,2.837,2.837,0,0,0,3.283,5.505a2.924,2.924,0,0,0,2.278-2.97A3.087,3.087,0,0,0,3.9.24,2.906,2.906,0,0,0,2,.1Z" transform="translate(33.644 146.57)" fill="#7595aa"/>
    <path id="Path_4969" data-name="Path 4969" d="M2,.1A3.125,3.125,0,0,0,.05,2.273,2.837,2.837,0,0,0,3.283,5.505a2.924,2.924,0,0,0,2.278-2.97A3.087,3.087,0,0,0,3.9.24,2.906,2.906,0,0,0,2,.1Z" transform="translate(44.858 146.57)" fill="#7595aa"/>
    <path id="Path_4975" data-name="Path 4975" d="M2,.1A3.125,3.125,0,0,0,.05,2.273,2.837,2.837,0,0,0,3.283,5.506a2.924,2.924,0,0,0,2.278-2.97A3.087,3.087,0,0,0,3.9.24,2.905,2.905,0,0,0,2,.1Z" transform="translate(0 157.784)" fill="#7595aa"/>
    <path id="Path_4976" data-name="Path 4976" d="M2,.1A3.125,3.125,0,0,0,.05,2.273,2.837,2.837,0,0,0,3.283,5.506a2.924,2.924,0,0,0,2.278-2.97A3.087,3.087,0,0,0,3.9.24,2.905,2.905,0,0,0,2,.1Z" transform="translate(11.215 157.784)" fill="#7595aa"/>
    <path id="Path_4977" data-name="Path 4977" d="M2,.1A3.125,3.125,0,0,0,.05,2.273,2.837,2.837,0,0,0,3.283,5.506a2.924,2.924,0,0,0,2.278-2.97A3.087,3.087,0,0,0,3.9.24,2.906,2.906,0,0,0,2,.1Z" transform="translate(22.429 157.784)" fill="#7595aa"/>
    <path id="Path_4978" data-name="Path 4978" d="M2,.1A3.125,3.125,0,0,0,.05,2.273,2.837,2.837,0,0,0,3.283,5.506a2.924,2.924,0,0,0,2.278-2.97A3.087,3.087,0,0,0,3.9.24,2.906,2.906,0,0,0,2,.1Z" transform="translate(33.644 157.784)" fill="#7595aa"/>
    <path id="Path_4979" data-name="Path 4979" d="M2,.1A3.125,3.125,0,0,0,.05,2.273,2.837,2.837,0,0,0,3.283,5.506a2.924,2.924,0,0,0,2.278-2.97A3.087,3.087,0,0,0,3.9.24,2.906,2.906,0,0,0,2,.1Z" transform="translate(44.858 157.784)" fill="#7595aa"/>
    <path id="Path_4985" data-name="Path 4985" d="M2,.1A3.126,3.126,0,0,0,.05,2.272,2.837,2.837,0,0,0,3.283,5.505a2.924,2.924,0,0,0,2.278-2.97A3.087,3.087,0,0,0,3.9.24,2.906,2.906,0,0,0,2,.1Z" transform="translate(0 168.999)" fill="#7595aa"/>
    <path id="Path_4986" data-name="Path 4986" d="M2,.1A3.126,3.126,0,0,0,.05,2.272,2.837,2.837,0,0,0,3.283,5.505a2.924,2.924,0,0,0,2.278-2.97A3.087,3.087,0,0,0,3.9.24,2.906,2.906,0,0,0,2,.1Z" transform="translate(11.215 168.999)" fill="#7595aa"/>
    <path id="Path_4987" data-name="Path 4987" d="M2,.1A3.126,3.126,0,0,0,.05,2.272,2.837,2.837,0,0,0,3.283,5.505a2.924,2.924,0,0,0,2.278-2.97A3.087,3.087,0,0,0,3.9.24,2.906,2.906,0,0,0,2,.1Z" transform="translate(22.429 168.999)" fill="#7595aa"/>
    <path id="Path_4988" data-name="Path 4988" d="M2,.1A3.125,3.125,0,0,0,.05,2.272,2.837,2.837,0,0,0,3.283,5.505a2.924,2.924,0,0,0,2.278-2.97A3.087,3.087,0,0,0,3.9.24,2.906,2.906,0,0,0,2,.1Z" transform="translate(33.644 168.999)" fill="#7595aa"/>
    <path id="Path_4989" data-name="Path 4989" d="M2,.1A3.125,3.125,0,0,0,.05,2.272,2.837,2.837,0,0,0,3.283,5.505a2.924,2.924,0,0,0,2.278-2.97A3.087,3.087,0,0,0,3.9.24,2.906,2.906,0,0,0,2,.1Z" transform="translate(44.858 168.999)" fill="#7595aa"/>
    <path id="Path_4995" data-name="Path 4995" d="M1.994.1A2.9,2.9,0,0,0,.049,3.271,3.076,3.076,0,0,0,2.283,5.505,2.854,2.854,0,0,0,5.56,2.535,3.087,3.087,0,0,0,3.895.24,2.905,2.905,0,0,0,1.994.1Z" transform="translate(0.002 180.214)" fill="#7595aa"/>
    <path id="Path_4996" data-name="Path 4996" d="M1.994.1A2.9,2.9,0,0,0,.049,3.271,3.076,3.076,0,0,0,2.283,5.505,2.854,2.854,0,0,0,5.56,2.535,3.087,3.087,0,0,0,3.895.24,2.905,2.905,0,0,0,1.994.1Z" transform="translate(11.216 180.214)" fill="#7595aa"/>
    <path id="Path_4997" data-name="Path 4997" d="M1.994.1A2.9,2.9,0,0,0,.049,3.271,3.075,3.075,0,0,0,2.283,5.505,2.855,2.855,0,0,0,5.56,2.535,3.087,3.087,0,0,0,3.895.24,2.905,2.905,0,0,0,1.994.1Z" transform="translate(22.431 180.214)" fill="#7595aa"/>
    <path id="Path_4998" data-name="Path 4998" d="M2,.1A3.125,3.125,0,0,0,.05,2.273,2.837,2.837,0,0,0,3.283,5.505a2.924,2.924,0,0,0,2.278-2.97A3.087,3.087,0,0,0,3.9.24,2.906,2.906,0,0,0,2,.1Z" transform="translate(33.644 180.214)" fill="#7595aa"/>
    <path id="Path_4999" data-name="Path 4999" d="M2,.1A3.125,3.125,0,0,0,.05,2.273,2.837,2.837,0,0,0,3.283,5.505a2.924,2.924,0,0,0,2.278-2.97A3.087,3.087,0,0,0,3.9.24,2.906,2.906,0,0,0,2,.1Z" transform="translate(44.858 180.214)" fill="#7595aa"/>
    <path id="Path_4935-2" data-name="Path 4935" d="M2,.1A3.125,3.125,0,0,0,.05,2.272,2.837,2.837,0,0,0,3.283,5.505a2.924,2.924,0,0,0,2.278-2.97A3.087,3.087,0,0,0,3.9.24,2.905,2.905,0,0,0,2,.1Z" transform="translate(0 0.016)" fill="#7595aa"/>
    <path id="Path_4936-2" data-name="Path 4936" d="M2,.1A3.125,3.125,0,0,0,.05,2.272,2.837,2.837,0,0,0,3.283,5.505a2.924,2.924,0,0,0,2.278-2.97A3.087,3.087,0,0,0,3.9.24,2.905,2.905,0,0,0,2,.1Z" transform="translate(11.215 0.016)" fill="#7595aa"/>
    <path id="Path_4937-2" data-name="Path 4937" d="M2,.1A3.126,3.126,0,0,0,.05,2.272,2.837,2.837,0,0,0,3.283,5.505a2.924,2.924,0,0,0,2.278-2.97A3.087,3.087,0,0,0,3.9.24,2.906,2.906,0,0,0,2,.1Z" transform="translate(22.429 0.016)" fill="#7595aa"/>
    <path id="Path_4938-2" data-name="Path 4938" d="M2,.115A3.125,3.125,0,0,0,.051,2.288,2.764,2.764,0,0,0,1.3,5.083a2.512,2.512,0,0,0,2.953.026A2.667,2.667,0,0,0,4.712.86,2.7,2.7,0,0,0,2,.115Z" transform="translate(33.643 0)" fill="#7595aa"/>
    <path id="Path_4939-2" data-name="Path 4939" d="M2,.115A3.125,3.125,0,0,0,.051,2.288,2.763,2.763,0,0,0,1.3,5.083a2.512,2.512,0,0,0,2.953.026A2.667,2.667,0,0,0,4.712.86,2.7,2.7,0,0,0,2,.115Z" transform="translate(44.857 0)" fill="#7595aa"/>
    <path id="Path_4945-2" data-name="Path 4945" d="M2,.1A3.125,3.125,0,0,0,.05,2.272,2.837,2.837,0,0,0,3.283,5.505a2.924,2.924,0,0,0,2.278-2.97A3.087,3.087,0,0,0,3.9.24,2.905,2.905,0,0,0,2,.1Z" transform="translate(0 11.23)" fill="#7595aa"/>
    <path id="Path_4946-2" data-name="Path 4946" d="M2,.1A3.125,3.125,0,0,0,.05,2.272,2.837,2.837,0,0,0,3.283,5.505a2.924,2.924,0,0,0,2.278-2.97A3.087,3.087,0,0,0,3.9.24,2.905,2.905,0,0,0,2,.1Z" transform="translate(11.215 11.23)" fill="#7595aa"/>
    <path id="Path_4947-2" data-name="Path 4947" d="M2,.1A3.126,3.126,0,0,0,.05,2.272,2.837,2.837,0,0,0,3.283,5.505a2.924,2.924,0,0,0,2.278-2.97A3.087,3.087,0,0,0,3.9.24,2.906,2.906,0,0,0,2,.1Z" transform="translate(22.429 11.23)" fill="#7595aa"/>
    <path id="Path_4948-2" data-name="Path 4948" d="M2,.116A3.125,3.125,0,0,0,.051,2.288,2.764,2.764,0,0,0,1.3,5.083a2.512,2.512,0,0,0,2.953.026A2.667,2.667,0,0,0,4.712.86,2.7,2.7,0,0,0,2,.116Z" transform="translate(33.643 11.215)" fill="#7595aa"/>
    <path id="Path_4949-2" data-name="Path 4949" d="M2,.116A3.125,3.125,0,0,0,.051,2.288,2.764,2.764,0,0,0,1.3,5.083a2.512,2.512,0,0,0,2.953.026A2.667,2.667,0,0,0,4.712.86,2.7,2.7,0,0,0,2,.116Z" transform="translate(44.857 11.215)" fill="#7595aa"/>
    <path id="Path_4955-2" data-name="Path 4955" d="M2,.1A3.126,3.126,0,0,0,.05,2.273,2.837,2.837,0,0,0,3.283,5.506a2.924,2.924,0,0,0,2.278-2.97A3.087,3.087,0,0,0,3.9.24,2.906,2.906,0,0,0,2,.1Z" transform="translate(0 22.445)" fill="#7595aa"/>
    <path id="Path_4956-2" data-name="Path 4956" d="M2,.1A3.126,3.126,0,0,0,.05,2.273,2.837,2.837,0,0,0,3.283,5.506a2.924,2.924,0,0,0,2.278-2.97A3.087,3.087,0,0,0,3.9.24,2.906,2.906,0,0,0,2,.1Z" transform="translate(11.215 22.445)" fill="#7595aa"/>
    <path id="Path_4957-2" data-name="Path 4957" d="M2,.1A3.126,3.126,0,0,0,.05,2.273,2.837,2.837,0,0,0,3.283,5.506a2.924,2.924,0,0,0,2.278-2.97A3.087,3.087,0,0,0,3.9.24,2.906,2.906,0,0,0,2,.1Z" transform="translate(22.429 22.445)" fill="#7595aa"/>
    <path id="Path_4958-2" data-name="Path 4958" d="M2,.1A3.125,3.125,0,0,0,.05,2.273,2.837,2.837,0,0,0,3.283,5.506a2.924,2.924,0,0,0,2.278-2.97A3.087,3.087,0,0,0,3.9.24,2.906,2.906,0,0,0,2,.1Z" transform="translate(33.644 22.445)" fill="#7595aa"/>
    <path id="Path_4959-2" data-name="Path 4959" d="M2,.1A3.125,3.125,0,0,0,.05,2.273,2.837,2.837,0,0,0,3.283,5.506a2.924,2.924,0,0,0,2.278-2.97A3.087,3.087,0,0,0,3.9.24,2.906,2.906,0,0,0,2,.1Z" transform="translate(44.858 22.445)" fill="#7595aa"/>
    <path id="Path_4965-2" data-name="Path 4965" d="M2,.1A3.125,3.125,0,0,0,.05,2.273,2.837,2.837,0,0,0,3.283,5.505a2.924,2.924,0,0,0,2.278-2.97A3.087,3.087,0,0,0,3.9.24,2.906,2.906,0,0,0,2,.1Z" transform="translate(0 33.659)" fill="#7595aa"/>
    <path id="Path_4966-2" data-name="Path 4966" d="M2,.1A3.125,3.125,0,0,0,.05,2.273,2.837,2.837,0,0,0,3.283,5.505a2.924,2.924,0,0,0,2.278-2.97A3.087,3.087,0,0,0,3.9.24,2.906,2.906,0,0,0,2,.1Z" transform="translate(11.215 33.659)" fill="#7595aa"/>
    <path id="Path_4967-2" data-name="Path 4967" d="M2,.1A3.125,3.125,0,0,0,.05,2.273,2.837,2.837,0,0,0,3.283,5.505a2.924,2.924,0,0,0,2.278-2.97A3.087,3.087,0,0,0,3.9.24,2.906,2.906,0,0,0,2,.1Z" transform="translate(22.429 33.659)" fill="#7595aa"/>
    <path id="Path_4968-2" data-name="Path 4968" d="M2,.1A3.125,3.125,0,0,0,.05,2.273,2.837,2.837,0,0,0,3.283,5.505a2.924,2.924,0,0,0,2.278-2.97A3.087,3.087,0,0,0,3.9.24,2.906,2.906,0,0,0,2,.1Z" transform="translate(33.644 33.659)" fill="#7595aa"/>
    <path id="Path_4969-2" data-name="Path 4969" d="M2,.1A3.125,3.125,0,0,0,.05,2.273,2.837,2.837,0,0,0,3.283,5.505a2.924,2.924,0,0,0,2.278-2.97A3.087,3.087,0,0,0,3.9.24,2.906,2.906,0,0,0,2,.1Z" transform="translate(44.858 33.659)" fill="#7595aa"/>
    <path id="Path_4975-2" data-name="Path 4975" d="M2,.1A3.125,3.125,0,0,0,.05,2.273,2.837,2.837,0,0,0,3.283,5.506a2.924,2.924,0,0,0,2.278-2.97A3.087,3.087,0,0,0,3.9.24,2.905,2.905,0,0,0,2,.1Z" transform="translate(0 44.874)" fill="#7595aa"/>
    <path id="Path_4976-2" data-name="Path 4976" d="M2,.1A3.125,3.125,0,0,0,.05,2.273,2.837,2.837,0,0,0,3.283,5.506a2.924,2.924,0,0,0,2.278-2.97A3.087,3.087,0,0,0,3.9.24,2.905,2.905,0,0,0,2,.1Z" transform="translate(11.215 44.874)" fill="#7595aa"/>
    <path id="Path_4977-2" data-name="Path 4977" d="M2,.1A3.125,3.125,0,0,0,.05,2.273,2.837,2.837,0,0,0,3.283,5.506a2.924,2.924,0,0,0,2.278-2.97A3.087,3.087,0,0,0,3.9.24,2.906,2.906,0,0,0,2,.1Z" transform="translate(22.429 44.874)" fill="#7595aa"/>
    <path id="Path_4978-2" data-name="Path 4978" d="M2,.1A3.125,3.125,0,0,0,.05,2.273,2.837,2.837,0,0,0,3.283,5.506a2.924,2.924,0,0,0,2.278-2.97A3.087,3.087,0,0,0,3.9.24,2.906,2.906,0,0,0,2,.1Z" transform="translate(33.644 44.874)" fill="#7595aa"/>
    <path id="Path_4979-2" data-name="Path 4979" d="M2,.1A3.125,3.125,0,0,0,.05,2.273,2.837,2.837,0,0,0,3.283,5.506a2.924,2.924,0,0,0,2.278-2.97A3.087,3.087,0,0,0,3.9.24,2.906,2.906,0,0,0,2,.1Z" transform="translate(44.858 44.874)" fill="#7595aa"/>
    <path id="Path_4985-2" data-name="Path 4985" d="M2,.1A3.126,3.126,0,0,0,.05,2.272,2.837,2.837,0,0,0,3.283,5.505a2.924,2.924,0,0,0,2.278-2.97A3.087,3.087,0,0,0,3.9.24,2.906,2.906,0,0,0,2,.1Z" transform="translate(0 56.089)" fill="#7595aa"/>
    <path id="Path_4986-2" data-name="Path 4986" d="M2,.1A3.126,3.126,0,0,0,.05,2.272,2.837,2.837,0,0,0,3.283,5.505a2.924,2.924,0,0,0,2.278-2.97A3.087,3.087,0,0,0,3.9.24,2.906,2.906,0,0,0,2,.1Z" transform="translate(11.215 56.089)" fill="#7595aa"/>
    <path id="Path_4987-2" data-name="Path 4987" d="M2,.1A3.126,3.126,0,0,0,.05,2.272,2.837,2.837,0,0,0,3.283,5.505a2.924,2.924,0,0,0,2.278-2.97A3.087,3.087,0,0,0,3.9.24,2.906,2.906,0,0,0,2,.1Z" transform="translate(22.429 56.089)" fill="#7595aa"/>
    <path id="Path_4988-2" data-name="Path 4988" d="M2,.1A3.125,3.125,0,0,0,.05,2.272,2.837,2.837,0,0,0,3.283,5.505a2.924,2.924,0,0,0,2.278-2.97A3.087,3.087,0,0,0,3.9.24,2.906,2.906,0,0,0,2,.1Z" transform="translate(33.644 56.089)" fill="#7595aa"/>
    <path id="Path_4989-2" data-name="Path 4989" d="M2,.1A3.125,3.125,0,0,0,.05,2.272,2.837,2.837,0,0,0,3.283,5.505a2.924,2.924,0,0,0,2.278-2.97A3.087,3.087,0,0,0,3.9.24,2.906,2.906,0,0,0,2,.1Z" transform="translate(44.858 56.089)" fill="#7595aa"/>
    <path id="Path_4995-2" data-name="Path 4995" d="M1.994.1A2.9,2.9,0,0,0,.049,3.271,3.076,3.076,0,0,0,2.283,5.505,2.854,2.854,0,0,0,5.56,2.535,3.087,3.087,0,0,0,3.895.24,2.905,2.905,0,0,0,1.994.1Z" transform="translate(0.002 67.303)" fill="#7595aa"/>
    <path id="Path_4996-2" data-name="Path 4996" d="M1.994.1A2.9,2.9,0,0,0,.049,3.271,3.076,3.076,0,0,0,2.283,5.505,2.854,2.854,0,0,0,5.56,2.535,3.087,3.087,0,0,0,3.895.24,2.905,2.905,0,0,0,1.994.1Z" transform="translate(11.216 67.303)" fill="#7595aa"/>
    <path id="Path_4997-2" data-name="Path 4997" d="M1.994.1A2.9,2.9,0,0,0,.049,3.271,3.075,3.075,0,0,0,2.283,5.505,2.855,2.855,0,0,0,5.56,2.535,3.087,3.087,0,0,0,3.895.24,2.905,2.905,0,0,0,1.994.1Z" transform="translate(22.431 67.303)" fill="#7595aa"/>
    <path id="Path_4998-2" data-name="Path 4998" d="M2,.1A3.125,3.125,0,0,0,.05,2.273,2.837,2.837,0,0,0,3.283,5.505a2.924,2.924,0,0,0,2.278-2.97A3.087,3.087,0,0,0,3.9.24,2.906,2.906,0,0,0,2,.1Z" transform="translate(33.644 67.303)" fill="#7595aa"/>
    <path id="Path_4999-2" data-name="Path 4999" d="M2,.1A3.125,3.125,0,0,0,.05,2.273,2.837,2.837,0,0,0,3.283,5.505a2.924,2.924,0,0,0,2.278-2.97A3.087,3.087,0,0,0,3.9.24,2.906,2.906,0,0,0,2,.1Z" transform="translate(44.858 67.303)" fill="#7595aa"/>
    <path id="Path_5005" data-name="Path 5005" d="M1.994.1A2.9,2.9,0,0,0,.049,3.271,3.075,3.075,0,0,0,2.283,5.505,2.854,2.854,0,0,0,5.56,2.535,3.087,3.087,0,0,0,3.895.24,2.905,2.905,0,0,0,1.994.1Z" transform="translate(0.002 78.518)" fill="#7595aa"/>
    <path id="Path_5006" data-name="Path 5006" d="M1.994.1A2.9,2.9,0,0,0,.049,3.271,3.075,3.075,0,0,0,2.283,5.505,2.854,2.854,0,0,0,5.56,2.535,3.087,3.087,0,0,0,3.895.24,2.905,2.905,0,0,0,1.994.1Z" transform="translate(11.216 78.518)" fill="#7595aa"/>
    <path id="Path_5007" data-name="Path 5007" d="M1.994.1A2.9,2.9,0,0,0,.049,3.271,3.075,3.075,0,0,0,2.283,5.505,2.855,2.855,0,0,0,5.56,2.535,3.087,3.087,0,0,0,3.895.24,2.905,2.905,0,0,0,1.994.1Z" transform="translate(22.431 78.518)" fill="#7595aa"/>
    <path id="Path_5008" data-name="Path 5008" d="M2,.1A3.125,3.125,0,0,0,.05,2.273,2.837,2.837,0,0,0,3.283,5.505a2.924,2.924,0,0,0,2.278-2.97A3.087,3.087,0,0,0,3.9.24,2.906,2.906,0,0,0,2,.1Z" transform="translate(33.644 78.518)" fill="#7595aa"/>
    <path id="Path_5009" data-name="Path 5009" d="M2,.1A3.125,3.125,0,0,0,.05,2.273,2.837,2.837,0,0,0,3.283,5.505a2.924,2.924,0,0,0,2.278-2.97A3.086,3.086,0,0,0,3.9.24,2.906,2.906,0,0,0,2,.1Z" transform="translate(44.858 78.518)" fill="#7595aa"/>
    <path id="Path_5015" data-name="Path 5015" d="M2,.1A3.125,3.125,0,0,0,.05,2.273,2.837,2.837,0,0,0,3.283,5.505a2.924,2.924,0,0,0,2.278-2.97A3.087,3.087,0,0,0,3.9.24,2.905,2.905,0,0,0,2,.1Z" transform="translate(0 89.732)" fill="#7595aa"/>
    <path id="Path_5016" data-name="Path 5016" d="M2,.1A3.125,3.125,0,0,0,.05,2.273,2.837,2.837,0,0,0,3.283,5.505a2.924,2.924,0,0,0,2.278-2.97A3.087,3.087,0,0,0,3.9.24,2.906,2.906,0,0,0,2,.1Z" transform="translate(11.215 89.732)" fill="#7595aa"/>
    <path id="Path_5017" data-name="Path 5017" d="M2,.1A3.126,3.126,0,0,0,.05,2.273,2.837,2.837,0,0,0,3.283,5.505a2.924,2.924,0,0,0,2.278-2.97A3.087,3.087,0,0,0,3.9.24,2.906,2.906,0,0,0,2,.1Z" transform="translate(22.429 89.732)" fill="#7595aa"/>
    <path id="Path_5018" data-name="Path 5018" d="M2,.1A3.125,3.125,0,0,0,.05,2.273,2.837,2.837,0,0,0,3.283,5.505a2.924,2.924,0,0,0,2.278-2.97A3.087,3.087,0,0,0,3.9.24,2.906,2.906,0,0,0,2,.1Z" transform="translate(33.644 89.732)" fill="#7595aa"/>
    <path id="Path_5019" data-name="Path 5019" d="M2,.1A3.125,3.125,0,0,0,.05,2.273,2.837,2.837,0,0,0,3.283,5.505a2.924,2.924,0,0,0,2.278-2.97A3.087,3.087,0,0,0,3.9.24,2.906,2.906,0,0,0,2,.1Z" transform="translate(44.858 89.732)" fill="#7595aa"/>
    <path id="Path_5025" data-name="Path 5025" d="M2,.1A3.125,3.125,0,0,0,.05,2.273,2.837,2.837,0,0,0,3.283,5.505a2.924,2.924,0,0,0,2.278-2.97A3.087,3.087,0,0,0,3.9.24,2.905,2.905,0,0,0,2,.1Z" transform="translate(0 100.947)" fill="#7595aa"/>
    <path id="Path_5026" data-name="Path 5026" d="M2,.1A3.125,3.125,0,0,0,.05,2.273,2.837,2.837,0,0,0,3.283,5.505a2.924,2.924,0,0,0,2.278-2.97A3.087,3.087,0,0,0,3.9.24,2.905,2.905,0,0,0,2,.1Z" transform="translate(11.215 100.947)" fill="#7595aa"/>
    <path id="Path_5027" data-name="Path 5027" d="M2,.1A3.125,3.125,0,0,0,.05,2.273,2.837,2.837,0,0,0,3.283,5.505a2.924,2.924,0,0,0,2.278-2.97A3.087,3.087,0,0,0,3.9.24,2.906,2.906,0,0,0,2,.1Z" transform="translate(22.429 100.947)" fill="#7595aa"/>
    <path id="Path_5028" data-name="Path 5028" d="M2,.1A3.125,3.125,0,0,0,.05,2.273,2.837,2.837,0,0,0,3.283,5.505a2.924,2.924,0,0,0,2.278-2.97A3.087,3.087,0,0,0,3.9.24,2.906,2.906,0,0,0,2,.1Z" transform="translate(33.644 100.947)" fill="#7595aa"/>
    <path id="Path_5029" data-name="Path 5029" d="M2,.1A3.125,3.125,0,0,0,.05,2.273,2.837,2.837,0,0,0,3.283,5.505a2.924,2.924,0,0,0,2.278-2.97A3.087,3.087,0,0,0,3.9.24,2.906,2.906,0,0,0,2,.1Z" transform="translate(44.858 100.947)" fill="#7595aa"/>
  </g>
</svg>
