<svg xmlns="http://www.w3.org/2000/svg" width="48.886" height="48.587" viewBox="0 0 48.886 48.587">
  <g id="Group_58256" data-name="Group 58256" transform="translate(-491.095 -192.395)">
    <g id="Group_58255" data-name="Group 58255" transform="translate(491 192)">
      <path id="Path_47574" data-name="Path 47574" d="M493.751,419.628a2.553,2.553,0,0,1-1.945-1.95,3.5,3.5,0,0,1-.058-.711q0-8.774,0-17.547a2.46,2.46,0,0,1,2.65-2.651c1.225,0,2.45,0,3.674,0a2.525,2.525,0,0,1,2.387,1.375.672.672,0,0,0,.477.247c.933.076,1.876.06,2.8.189a7.141,7.141,0,0,1,3.447,1.534,7.1,7.1,0,0,0,4.645,1.559,41.04,41.04,0,0,1,4.67.09,4.536,4.536,0,0,1,3.99,4.739c-.023.283-.1.563-.166.96a12.64,12.64,0,0,0,1.5-.305q7.234-2.4,14.458-4.827a3.066,3.066,0,0,1,4.3,2.2.324.324,0,0,0,.053.078v1.052a3.852,3.852,0,0,1-1.844,2.314q-7.333,4.426-14.628,8.914A7.308,7.308,0,0,1,520.226,418c-4.583-.013-9.166,0-13.749,0-1.846,0-3.692,0-5.538.007-.148,0-.381.059-.431.161a2.852,2.852,0,0,1-1.792,1.461Zm6.979-3.26h.616q9.4,0,18.806.006a5.847,5.847,0,0,0,3.166-.88c2.924-1.8,5.862-3.583,8.794-5.373l6.15-3.753a1.383,1.383,0,0,0,.729-1.4,1.236,1.236,0,0,0-.921-1.161,2.427,2.427,0,0,0-1.247.071c-4.8,1.581-9.579,3.2-14.377,4.775a7.275,7.275,0,0,1-2.1.341c-2.195.043-4.391.014-6.586.018-.318,0-.636.016-.952.047a7.061,7.061,0,0,0-3.407,1.38.812.812,0,0,1-1.219-.139.853.853,0,0,1,.329-1.224,8.614,8.614,0,0,1,5.354-1.7c1.4.027,2.8-.008,4.2.015a.591.591,0,0,0,.644-.421,2.165,2.165,0,0,0-.155-2.017,3.274,3.274,0,0,0-2.979-1.659c-1.3-.011-2.609,0-3.914-.006a10.241,10.241,0,0,1-1.285-.067,8.172,8.172,0,0,1-4.072-1.738,7.458,7.458,0,0,0-5.577-1.417Zm-7.358-8.168q0,4.374,0,8.747c0,.76.283,1.047,1.031,1.05q1.813.006,3.626,0c.773,0,1.055-.288,1.056-1.077q0-8.723,0-17.447c0-.787-.284-1.073-1.059-1.075-1.145,0-2.29,0-3.435,0-.986,0-1.218.229-1.219,1.2Q493.372,403.9,493.373,408.2Z" transform="translate(-491.651 -370.647)" fill="#222872"/>
      <path id="Path_47576" data-name="Path 47576" d="M650.66,206.944c-.739,0-1.4,0-2.07,0a1.613,1.613,0,0,1-1.615-.966,1.577,1.577,0,0,1,.346-1.846q3.9-4.233,7.8-8.462a1.631,1.631,0,0,1,2.49,0q3.93,4.237,7.833,8.5a1.568,1.568,0,0,1,.311,1.815,1.59,1.59,0,0,1-1.57.96h-2.114v.578q0,5.689,0,11.377a1.68,1.68,0,0,1-1.934,1.92H652.6c-1.339,0-1.939-.6-1.94-1.962q0-5.665,0-11.329Zm9.785,12.227v-8.878c0-1.339,0-2.678,0-4.017,0-.67.292-.956.962-.961.811-.005,1.623,0,2.434,0,.115,0,.23-.023.411-.041l-7.887-8.552-7.916,8.6h2.622c1.014,0,1.222.211,1.223,1.238q0,6,0,12v.616Z" transform="translate(-626.94 -194.699)" fill="#009eff"/>
      <path id="Path_47577" data-name="Path 47577" d="M796.036,298.089q0,2.276,0,4.545c0,1.321-.6,1.916-1.93,1.917-1.209,0-2.418,0-3.627,0a1.612,1.612,0,0,1-1.76-1.749q-.015-2.176,0-4.351a.456.456,0,0,0-.35-.512,1.59,1.59,0,0,1-.644-2.587c1.129-1.276,2.289-2.525,3.462-3.76a1.6,1.6,0,0,1,2.351-.016c1.189,1.242,2.36,2.5,3.495,3.8a1.6,1.6,0,0,1-.675,2.584C796.259,298,796.158,298.039,796.036,298.089Zm-3.66-5.393-3.393,3.687c1.241.111,1.364.247,1.364,1.422q0,2.295,0,4.589v.5h4.058v-.542c0-1.625,0-3.251,0-4.876,0-.764.272-1.034,1.03-1.057.089,0,.178-.012.354-.024Z" transform="translate(-749.505 -278.431)" fill="#009eff"/>
      <path id="Path_47578" data-name="Path 47578" d="M585.271,298.068q0,2.273,0,4.541a1.687,1.687,0,0,1-1.928,1.931c-1.225,0-2.45,0-3.674,0a1.622,1.622,0,0,1-1.736-1.73c-.006-1.577,0-3.154,0-4.734-.191-.081-.371-.143-.537-.231a1.593,1.593,0,0,1-.487-2.45c1.147-1.3,2.328-2.575,3.524-3.832a1.59,1.59,0,0,1,2.316-.015c1.2,1.251,2.385,2.523,3.528,3.828a1.6,1.6,0,0,1-.673,2.561C585.5,297.979,585.4,298.018,585.271,298.068Zm-3.674-5.383-3.4,3.7c1.227.083,1.359.225,1.359,1.367q0,2.319,0,4.638v.487h4.085c0-1.74,0-3.443,0-5.146,0-1.124.126-1.26,1.231-1.333.019,0,.036-.04.072-.083Z" transform="translate(-565.614 -278.42)" fill="#009eff"/>
    </g>
  </g>
</svg>
