<svg xmlns="http://www.w3.org/2000/svg" width="39.617" height="45.076" viewBox="0 0 39.617 45.076">
  <g id="user_1_" data-name="user (1)" transform="translate(-31)">
    <g id="Group_55842" data-name="Group 55842" transform="translate(38.924)">
      <g id="Group_55841" data-name="Group 55841">
        <path id="Path_15004" data-name="Path 15004" d="M132.885,0a11.885,11.885,0,1,0,11.885,11.885A11.9,11.9,0,0,0,132.885,0Z" transform="translate(-121)" fill="#fff"/>
      </g>
    </g>
    <g id="Group_55844" data-name="Group 55844" transform="translate(31 26.412)">
      <g id="Group_55843" data-name="Group 55843" transform="translate(0)">
        <path id="Path_15005" data-name="Path 15005" d="M65.6,305.123A16.943,16.943,0,0,0,53.45,300H48.168a16.943,16.943,0,0,0-12.146,5.123A17.321,17.321,0,0,0,31,317.344a1.321,1.321,0,0,0,1.321,1.321H69.3a1.321,1.321,0,0,0,1.321-1.321A17.321,17.321,0,0,0,65.6,305.123Z" transform="translate(-31 -300)" fill="#fff"/>
      </g>
    </g>
  </g>
</svg>
