<svg xmlns="http://www.w3.org/2000/svg" width="46.824" height="46.824" viewBox="0 0 46.824 46.824">
  <g id="Group_55644" data-name="Group 55644" transform="translate(-443 -144)">
    <g id="Group_55643" data-name="Group 55643" transform="translate(443 144)">
      <path id="Path_37629" data-name="Path 37629" d="M443.009,167.412q0-11.506-.009-23.013c0-.334.066-.4.4-.4q23.013.016,46.026,0c.334,0,.4.065.4.4q-.016,23.013,0,46.026c0,.334-.065.4-.4.4q-23.013-.016-46.026,0c-.334,0-.4-.065-.4-.4Q443.018,178.919,443.009,167.412ZM478.8,187.107c.357,0,.717.028,1.071,0a7.387,7.387,0,0,0,4.846-2.1,6.312,6.312,0,0,0-.97-9.031,24.361,24.361,0,0,0-4.482-2.32,6.793,6.793,0,0,1-2.181-1.252,1.908,1.908,0,0,1-.465-1.983,1.738,1.738,0,0,1,1.415-1.257,2.8,2.8,0,0,1,3.179,1.43c.213.341.354.336.656.133.9-.606,1.822-1.187,2.743-1.765.2-.128.267-.217.122-.451a6.264,6.264,0,0,0-4.145-3.057,8.75,8.75,0,0,0-3.389-.074,5.519,5.519,0,0,0-4.695,3.81,5.971,5.971,0,0,0,1.353,6.241,11,11,0,0,0,3.738,2.318,18.754,18.754,0,0,1,3.23,1.571,2.027,2.027,0,0,1-.406,3.621,4.48,4.48,0,0,1-2.583.226,4.55,4.55,0,0,1-3.152-2.243c-.179-.283-.31-.316-.6-.143-.97.589-1.955,1.155-2.943,1.716-.211.12-.268.213-.132.441a8.257,8.257,0,0,0,7.784,4.176Zm-10.308-13.418c0-2.567-.01-5.134.01-7.7,0-.414-.117-.514-.516-.5q-1.68.041-3.362,0c-.42-.011-.546.087-.544.53.018,4.7.012,9.39.01,14.086,0,.357,0,.716-.03,1.071a1.94,1.94,0,0,1-1.7,2,2.584,2.584,0,0,1-2.731-1.084c-.2-.292-.4-.591-.576-.9-.1-.183-.189-.213-.373-.1q-1.533.945-3.08,1.866c-.217.129-.246.238-.126.459a6.935,6.935,0,0,0,1.573,2.028,7.656,7.656,0,0,0,6.832,1.482,5.308,5.308,0,0,0,4.344-4.1,9.411,9.411,0,0,0,.27-2.51Q468.491,177,468.494,173.689Z" transform="translate(-443 -144)" fill="#f6de1e"/>
      <path id="Path_37630" data-name="Path 37630" d="M737.312,383.616a8.258,8.258,0,0,1-7.784-4.176c-.136-.228-.08-.321.132-.441.987-.561,1.972-1.127,2.943-1.716.286-.174.417-.14.6.143a4.55,4.55,0,0,0,3.152,2.243,4.479,4.479,0,0,0,2.583-.226,2.027,2.027,0,0,0,.406-3.621,18.757,18.757,0,0,0-3.23-1.571,11,11,0,0,1-3.738-2.318,5.971,5.971,0,0,1-1.353-6.241,5.519,5.519,0,0,1,4.7-3.81,8.751,8.751,0,0,1,3.389.074,6.264,6.264,0,0,1,4.145,3.057c.144.234.081.323-.122.451-.921.578-1.84,1.159-2.743,1.765-.3.2-.443.208-.656-.133a2.8,2.8,0,0,0-3.179-1.43,1.738,1.738,0,0,0-1.415,1.257,1.908,1.908,0,0,0,.465,1.983,6.791,6.791,0,0,0,2.181,1.252,24.364,24.364,0,0,1,4.482,2.32,6.312,6.312,0,0,1,.97,9.031,7.386,7.386,0,0,1-4.846,2.1C738.029,383.645,737.669,383.616,737.312,383.616Z" transform="translate(-701.51 -340.51)" fill="#fff"/>
      <path id="Path_37631" data-name="Path 37631" d="M583.254,372.43q0,3.314,0,6.629a9.412,9.412,0,0,1-.27,2.51,5.308,5.308,0,0,1-4.344,4.1,7.657,7.657,0,0,1-6.832-1.482,6.943,6.943,0,0,1-1.573-2.028c-.12-.221-.092-.33.126-.459q1.549-.918,3.08-1.866c.184-.113.269-.083.373.1.175.31.372.609.576.9a2.584,2.584,0,0,0,2.731,1.084,1.94,1.94,0,0,0,1.7-2c.034-.355.03-.714.03-1.071,0-4.7.008-9.39-.01-14.086,0-.443.125-.542.544-.531q1.68.044,3.363,0c.4-.01.519.09.516.5C583.244,367.3,583.254,369.863,583.254,372.43Z" transform="translate(-557.76 -342.741)" fill="#fff"/>
    </g>
  </g>
</svg>
