<svg xmlns="http://www.w3.org/2000/svg" xmlns:xlink="http://www.w3.org/1999/xlink" width="478.458" height="565.999" viewBox="0 0 478.458 565.999">
  <defs>
    <clipPath id="clip-path">
      <path id="Path_50658" data-name="Path 50658" d="M733.207,930.831v-.009h-.585c-.393-.011-.783-.031-1.172-.057v-.031h-.438q-.442-.036-.88-.085v0h-.025c-.2-.022-.394-.045-.59-.07v-.018h-.124q-.2-.027-.4-.057v-.03h-.208c-.136-.022-.272-.045-.407-.068v-.02h-.118c-.137-.024-.273-.049-.409-.074v-.013h-.068q-.407-.078-.81-.166v-.009h-.043c-.1-.023-.207-.044-.309-.068v-.02h-.081c-.091-.021-.18-.044-.27-.066v-.022h-.087l-.264-.065v-.023h-.087l-.264-.072v-.016H725.5c-.1-.026-.2-.052-.293-.08v-.008h-.03c-.078-.022-.155-.047-.234-.07v-.018h-.061l-.29-.087h0c-.175-.054-.349-.11-.523-.167v-.009h-.027c-.079-.026-.158-.051-.237-.078v-.01h-.033l-.231-.081v-.007h-.02l-.156-.055v-.032h-.093L723.1,929v-.028h-.076l-.187-.071v-.017H722.8l-.22-.084v0h-.009c-.055-.022-.112-.042-.166-.064v-.024h-.064c-.068-.026-.133-.055-.2-.082v-.006h-.013c-.143-.057-.284-.115-.426-.174h0q-.4-.167-.788-.347v0H720.9l-.167-.078v-.01h-.021l-.155-.073v-.015h-.032l-.143-.067v-.021h-.044l-.132-.065v-.023h-.047l-.129-.064v-.024h-.047l-.129-.065v-.023H719.8l-.128-.064v-.024h-.047l-.129-.068v-.02h-.037l-.139-.074v-.014H719.3q-.385-.2-.764-.419v-.021H718.5l-.139-.078v-.01h-.018c-.082-.047-.164-.1-.246-.146v-.03h-.05l-.126-.074v-.014H717.9c-.081-.049-.161-.1-.241-.145v-.03h-.049l-.126-.079v-.009h-.014l-.25-.157v-.019h-.03q-.655-.417-1.288-.867V925.2h-.017c-.112-.08-.223-.163-.334-.244v-.02h-.026c-.079-.058-.159-.115-.237-.173v0h0l-.084-.065v-.023h-.03q-.161-.123-.322-.247v-.016h-.022c-.111-.087-.221-.174-.33-.262h0q-.265-.213-.525-.43v-.009h-.011q-.305-.257-.6-.521v-.006h-.008l-.08-.072v-.016h-.018l-.07-.061V923h-.029l-.059-.052v-.036h-.041l-.047-.044v-.044h-.048q-.468-.429-.919-.877v0h0l-.174-.175h0q-.448-.453-.878-.923v-.043h-.039l-.049-.055v-.034h-.029l-.059-.066v-.022h-.02l-.068-.076v-.011H710.7l-.078-.088q-.268-.3-.527-.615h0c-.119-.142-.236-.286-.351-.43V919.4h-.008c-.086-.107-.172-.213-.256-.321v-.031h-.023l-.064-.084v0h0c-.058-.074-.115-.149-.173-.225V918.7h-.03l-.058-.076v-.012h-.009c-.057-.075-.112-.151-.167-.226v-.037h-.027l-.061-.083v0h0c-.057-.078-.115-.156-.172-.235v-.028h-.02c-.082-.116-.163-.233-.243-.349v0h0c-.119-.171-.235-.343-.351-.516v-.011h-.007c-.056-.085-.113-.169-.168-.255v-.008H707.9l-.083-.127v-.049h-.03c-.049-.077-.1-.155-.146-.232v-.031h-.02c-.052-.084-.1-.166-.156-.25v-.014h-.009c-.026-.044-.052-.089-.079-.133v-.043h-.025c-.051-.084-.1-.169-.151-.253v-.01h-.006l-.082-.138v-.038h-.022c-.082-.142-.161-.286-.241-.429v-.01h-.006q-.364-.655-.7-1.33v-.076h-.038c-.016-.033-.034-.066-.05-.1v-.076h-.037c-.018-.036-.034-.074-.051-.109v-.066h-.031l-.057-.122v-.054h-.026l-.062-.133v-.043h-.02l-.068-.147v-.028h-.012c-.026-.057-.05-.115-.076-.172v0h0c-.09-.2-.177-.4-.262-.607v-.007h0c-.058-.14-.116-.28-.172-.421v-.018h-.008c-.027-.068-.053-.137-.08-.205v-.059h-.022l-.066-.172v-.092h-.035l-.053-.138v-.038H704.9c-.025-.068-.049-.136-.073-.2v-.06h-.022l-.066-.188v-.075h-.027l-.062-.174v0h0c-.03-.087-.058-.175-.087-.262h0q-.138-.414-.263-.834v-.045h-.013c-.024-.083-.05-.165-.074-.249v-.015h0c-.029-.1-.056-.2-.084-.3v-.052h-.014c-.024-.091-.05-.18-.074-.271v-.08h-.022c-.023-.086-.045-.172-.066-.259v-.093h-.023c-.022-.088-.044-.176-.065-.264v-.087h-.022c-.022-.1-.045-.193-.066-.288v-.063h-.014c-.025-.113-.05-.225-.074-.338v-.013h0q-.045-.209-.085-.42v-.02h0c-.028-.145-.057-.289-.084-.434v-.18h-.031q-.029-.17-.057-.342v-.184h-.031c-.02-.13-.039-.261-.057-.391v-.225H703.3q-.029-.22-.056-.44v-.086h-.01q-.044-.369-.078-.741v-.225h-.02q-.041-.478-.068-.959V901.3h-.029c-.01-.3-.016-.608-.016-.913V522.358c0-.3.006-.594.014-.889h.03v-.736c.018-.342.043-.682.073-1.022h.014v-.163q.033-.359.076-.716h.013v-.11q.031-.253.065-.5h.023v-.161c.018-.122.034-.245.053-.366h.035v-.209q.032-.2.067-.406h.02v-.116c.025-.138.053-.274.079-.411h.009V516.5q.074-.375.157-.747h.019v-.086c.02-.089.04-.177.061-.265h.027V515.3l.059-.24h.028v-.117c.02-.078.039-.157.059-.234h.028v-.1l.067-.247h.021v-.076c.026-.092.05-.184.076-.276h.011v-.039q.123-.423.257-.84h.006v-.02l.08-.244h.008v-.025c.026-.079.052-.159.079-.238h.009v-.026c.028-.079.057-.158.084-.237h0v-.011l.058-.165h.03v-.083l.064-.18h.024v-.061c.025-.068.052-.135.077-.2H705V511.6l.056-.149h.032v-.082l.07-.182h.018v-.042c.112-.281.23-.559.35-.836h0v0l.076-.172h.012v-.028l.065-.148h.023v-.052l.057-.124h.031v-.067c.057-.124.116-.249.175-.373h0c.028-.058.054-.117.082-.174h.005v-.011c.027-.055.055-.109.082-.164h.005v-.012l.082-.164h.007V508.8l.081-.164h.007v-.013l.083-.163h0v-.009q.251-.484.52-.958h.008v-.014c.08-.142.161-.284.244-.425h.02v-.033l.084-.143h0v-.005c.051-.086.1-.173.153-.258h.022v-.037c.028-.047.058-.092.087-.138h0v0l.054-.086h.034V506.3l.076-.122h.011v-.018l.155-.245h.021v-.03q.335-.519.693-1.024h.01v-.015q.121-.169.243-.337h.02v-.027c.057-.079.114-.158.172-.236h0v0l.062-.084h.026v-.034c.08-.106.162-.211.243-.317h.021v-.026c.084-.109.169-.218.255-.325h.009v-.011q.423-.531.869-1.044h.009v-.011l.069-.077h.019v-.022l.059-.066h.029v-.033l.049-.055h.039V502.1q.258-.289.524-.572h0v0l.078-.085h.009v-.009l.074-.078h.014v-.013l.072-.074h.015v-.016l.07-.072h.018v-.018q.295-.3.6-.6h.018v-.018l.072-.07h.016v-.016l.074-.072h.013v-.013l.08-.074h.009v-.008l.085-.08h0v0q.284-.267.573-.526h.043v-.037l.057-.051h.031v-.028l.068-.06h.02v-.018l.079-.07h.009v-.008q.513-.447,1.047-.87h.008v-.006c.109-.087.219-.172.329-.257h.022v-.018c.107-.082.213-.166.321-.247h.03v-.023c.109-.082.219-.161.328-.241h.023v-.017c.114-.082.228-.165.343-.247h.009v-.006q.508-.359,1.03-.7h.024v-.016l.253-.16h.011V496.6l.13-.081h.047v-.029c.078-.049.155-.1.234-.147h.03v-.018l.118-.07h.057v-.034l.239-.142h.024v-.014l.124-.074h.051v-.03c.086-.049.173-.1.259-.145h0v0q.564-.318,1.142-.613.355-.18.715-.351h.076v-.036l.112-.053h.063v-.03l.124-.058h.053v-.024l.139-.064h.037v-.016l.164-.072h.012v0q.3-.133.6-.259h.013v-.005c.138-.057.276-.115.415-.17h.024v-.01l.2-.078h.062v-.024l.169-.064h.095v-.037l.135-.051h.041v-.015c.068-.025.136-.048.2-.072h.06v-.022l.188-.066h.076v-.027l.172-.062h0c.365-.124.733-.239,1.1-.349h.039v-.012l.255-.076h.1v-.028c.074-.021.147-.04.222-.06h.043v-.011l.28-.076h.071v-.019c.091-.024.181-.046.272-.069h.079v-.02l.278-.068h.073v-.018l.309-.07h.043v-.009q.4-.088.8-.166h.08v-.016c.126-.024.253-.05.38-.072h.147v-.024c.126-.022.253-.043.38-.063h.236v-.039c.117-.018.235-.033.353-.049h.174v-.025q.254-.033.509-.063h.105v-.012q.376-.043.754-.076h.3v-.027c.339-.027.679-.046,1.02-.061h.649v-.023q.35-.009.7-.009H916.146c.232,0,.463,0,.694.009v.023h.656c.339.015.677.034,1.013.06v.028h.307q.375.032.747.074v.014h.112c.168.02.336.04.5.062v.026h.18c.145.02.291.039.434.062v.026h.155q.186.029.373.062v.026h.154q.452.081.9.176h0l.351.077v.011h.05l.3.068v.02h.08l.272.067v.021h.086c.089.022.177.043.265.067v.021h.078l.274.074V493h.049l.214.058v.03h.1l.248.074v.014h.046q.286.084.569.175h0l.262.086v0h.007c.085.028.172.055.257.084v0h.011l.165.059v.03h.083l.18.064v.024h.068l.2.07v.018h.047l.216.082v.005h.013l.162.061v.026h.068l.2.075v.013h.031q.2.082.408.168v.008h.02q.3.125.6.255v.008h.018l.157.069v.019h.042l.133.06v.028h.059l.117.055v.033h.071c.123.057.247.114.368.173v0h.006l.17.085v0h.006l.17.085v0h.006c.057.028.114.055.17.084v0h.007l.169.085v0h0c.324.168.644.342.962.52v.007H931c.143.08.286.162.428.245v.018h.031l.145.086v0h0l.084.05v.038h.064l.111.066v.022h.036l.139.087h0l.087.055v.033h.054l.122.077v.011h.018c.082.052.164.1.245.155v.02h.032q.519.336,1.023.693v.011h.016c.112.08.224.161.335.242v.022H934c.078.057.156.113.233.17v.005h.008l.081.06v.028h.037c.076.057.151.116.226.174v0h0l.085.065v.023h.03c.107.083.215.166.322.251v.012h.015q.483.384.952.788v0h0l.084.074v.014h.016l.072.063v.024h.027l.061.054v.034h.039q.291.258.576.524v0h0l.084.078v.009h.01l.078.072v.016h.016l.072.067v.021h.021l.067.065v.023h.023q.391.376.768.767v.024h.023l.065.066v.022h.021l.067.07v.018h.017l.071.077v.011h.011l.077.083v.005h0q.265.283.522.573v.042h.037l.051.057v.03h.027l.061.068v.02h.017l.07.08v.007h.007q.4.465.784.947v.02h.016c.083.1.165.209.247.315v.036h.028l.059.078v.01h.007c.056.073.113.145.169.219v.045h.034l.053.073v.015h.011l.165.225v.039h.028l.06.082v.006h0c.057.08.115.158.172.238v.026h.018q.215.3.422.611v0h0c.059.087.116.175.174.263h0l.088.133v.043h.028l.147.232v.031h.02q.079.125.156.249v.015h.009c.026.042.053.083.079.126v.05h.03c.049.08.1.163.145.245v.019h.011l.076.129v.047h.028l.148.254v.009h.005l.082.147v.028h.016q.17.3.335.611v0h0l.086.161v.015h.007l.08.151v.024h.013l.075.146v.03h.015l.073.147v.029h.014l.074.147v.028h.014c.024.049.05.1.074.148v.028h.014l.074.156v.02h.009l.078.168v.009h0c.088.188.175.378.26.568v.047h.02l.068.153v.022h.009c.087.2.171.4.254.6v.013h.005c.027.068.055.134.083.2v.062h.026l.062.16v.016h.006c.028.071.055.142.082.214v.049h.019l.069.18v.083h.032l.056.156v.107h.038l.05.141v.035h.012c.026.072.051.142.076.214v.05h.018c.024.071.046.142.07.212v.051h.017q.129.389.247.782v.009h0c.029.095.058.19.086.284V514h.02c.024.082.045.163.068.245v.107h.03l.058.216v.136h.037c.018.066.034.133.051.2v.153h.037l.05.205v.058h.015c.025.1.05.209.074.313v.038h.008q.089.393.168.789v0h0c.03.151.06.3.088.453v.161h.028c.021.117.04.236.06.355v.173h.029c.02.13.04.261.059.393v.222h.031c.02.142.039.284.057.427v.1h.011c.028.235.053.471.076.707v.172h.015q.044.483.072.972v.785h.035q.017.486.018.977V900.387c0,.335-.007.669-.018,1h-.035v.761q-.026.456-.067.909h-.021v.235q-.031.323-.069.644h-.019v.164c-.019.151-.039.3-.06.451h-.028v.2c-.016.109-.031.22-.049.329h-.039v.236c-.021.126-.041.253-.063.378H946.1v.137c-.024.13-.05.26-.075.39h-.013v.065q-.072.364-.153.726h-.022v.1c-.019.083-.039.166-.058.249h-.03v.122l-.056.229h-.031v.128l-.057.224h-.031v.112l-.065.24h-.023v.083c-.024.089-.049.179-.074.268H945.4v.043c-.056.191-.112.382-.172.572h0v.016c-.026.083-.055.165-.081.248h-.007v.022c-.026.081-.052.161-.079.242h-.009v.028c-.026.078-.051.157-.078.236h-.009v.026l-.053.149h-.035v.1l-.058.164h-.03v.083l-.065.18h-.023v.059c-.026.068-.052.136-.078.2h-.009v.026l-.057.15h-.03v.08l-.072.184h-.016v.039c-.054.134-.109.268-.165.4h-.011v.028q-.124.295-.254.587h-.009v.023c-.023.051-.045.1-.068.153H943.9v.047l-.059.128h-.029v.06l-.053.115h-.034v.072l-.048.1h-.04v.084c-.028.06-.057.12-.086.18h0v0c-.028.057-.057.114-.085.171h0v.005l-.085.17h0v.005l-.084.17h0v.006l-.087.17h0q-.207.4-.425.79h-.014v.025l-.084.151h0v.006c-.049.086-.1.172-.145.258H942.5v.051l-.074.124h-.014v.024l-.142.24h-.034v.057c-.024.04-.047.08-.071.12h-.016v.027c-.049.079-.1.157-.149.236h-.028v.044l-.082.132h-.005v.009c-.054.085-.107.17-.162.255h-.013v.02c-.053.082-.107.162-.161.243h-.015v.023q-.168.254-.342.5h-.009v.014l-.174.25h0v0l-.059.085h-.029v.039c-.053.076-.109.15-.164.225h-.011v.016l-.053.072h-.036v.049c-.053.072-.1.144-.158.215h-.017v.022l-.051.065h-.038v.049c-.055.072-.109.144-.165.215h-.011v.014l-.057.074h-.031v.041c-.082.1-.165.208-.248.311h-.016v.019c-.113.141-.228.281-.344.42h-.007v.01q-.256.306-.519.605h-.008v.009l-.07.079h-.018v.019l-.06.068h-.028v.031l-.051.057h-.037v.042l-.04.047h-.047v.051c-.2.22-.406.436-.613.651h0v0l-.084.086h0v0l-.082.084h-.006v.006l-.08.082h-.009v.008q-.127.129-.256.255h-.007v.007l-.082.08H937.4v.005l-.084.083h0v0l-.087.084h0c-.216.207-.433.413-.655.614h-.048v.043l-.051.045h-.037v.032l-.062.055h-.026v.023l-.074.065h-.014v.013l-.084.075h0v0q-.3.266-.613.524h0v0c-.143.118-.287.234-.43.35h-.009v.007c-.107.086-.214.172-.322.256h-.029v.022l-.086.066h0v0l-.227.174h-.036v.028l-.078.059h-.01v.008c-.076.057-.154.112-.23.168h-.034v.025l-.086.063h0c-.08.058-.159.117-.239.174h-.024v.017c-.288.205-.58.4-.876.6h0v0c-.087.058-.175.117-.263.174l-.138.088h-.038v.024l-.243.152h-.021v.013l-.12.075h-.056v.035l-.086.053h0l-.147.087h-.029v.018l-.119.07h-.057v.034c-.08.047-.159.1-.239.142h-.025v.014c-.361.208-.728.407-1.1.6h-.044v.023l-.122.065h-.053v.027l-.122.061h-.054v.027l-.122.061h-.055v.027l-.122.061H929.4v.026l-.124.061h-.051v.024l-.136.064h-.04v.018l-.148.07h-.028v.013l-.159.075H928.7v.007q-.6.274-1.209.52h-.021v.009l-.193.079h-.07v.027l-.159.061h-.016v.006l-.214.081h-.049v.019c-.06.023-.12.047-.18.069h-.083v.03l-.164.059h-.012v0l-.237.084h-.027v.009l-.224.078h-.04v.013l-.23.075h-.034v.011c-.172.056-.343.112-.516.165h-.011v0l-.283.084h-.069v.02l-.226.068H924.4v.01c-.095.027-.191.052-.286.078h-.066v.018c-.086.023-.171.047-.257.07h-.094v.025l-.258.063h-.094v.023c-.088.022-.176.045-.263.065h-.089v.022c-.1.024-.2.044-.3.066h-.049v.011q-.4.088-.8.165h-.075v.015c-.134.025-.268.05-.4.073h-.125v.022l-.4.067h-.215v.032l-.4.056h-.13v.018c-.194.026-.388.047-.583.07h-.032v0q-.435.049-.873.084h-.445v.031q-.58.04-1.165.057H916.4v.009c-.084,0-.17,0-.255,0H733.469c-.088,0-.174,0-.262,0" transform="translate(-703.026 -491.916)" fill="none" clip-rule="evenodd"/>
    </clipPath>
    <linearGradient id="linear-gradient" x1="0.687" y1="0.227" x2="0.232" y2="0.892" gradientUnits="objectBoundingBox">
      <stop offset="0" stop-color="#5da8dc"/>
      <stop offset="1" stop-color="#405da9"/>
    </linearGradient>
    <clipPath id="clip-path-2">
      <path id="Path_50671" data-name="Path 50671" d="M739.037,899.375v-.006h-.064c-.214-.022-.427-.047-.639-.078v-.01h-.066c-.155-.023-.309-.049-.461-.076v-.011h-.062c-.364-.068-.724-.15-1.08-.244v-.02h-.072c-.093-.025-.186-.051-.279-.079v-.009h-.031q-.519-.153-1.024-.342v-.009h-.024c-.139-.053-.278-.107-.415-.164v-.012h-.03q-.475-.2-.937-.425v-.014h-.028l-.147-.074v-.014h-.027l-.149-.077v-.01h-.02l-.156-.084v0h-.007q-.308-.167-.607-.349v0h0c-.087-.053-.174-.105-.259-.16v-.016h-.025l-.239-.153v-.022h-.032q-.433-.286-.846-.6v-.014h-.019c-.112-.085-.223-.172-.333-.26v0h0l-.084-.069v-.02h-.023a16.6,16.6,0,0,1-1.91-1.836V894.1h-.007c-.147-.166-.291-.336-.432-.508v-.019h-.016q-.31-.38-.6-.779v-.011h-.009c-.056-.078-.112-.155-.167-.234v-.03h-.02c-.272-.392-.529-.8-.77-1.213v-.017h-.01q-.224-.388-.429-.788v0h0c-.029-.057-.057-.115-.086-.172v0h0l-.087-.174h0q-.184-.381-.351-.772v-.02h-.008c-.122-.287-.236-.578-.343-.874v0h0q-.044-.121-.086-.241v-.023H725.5c-.027-.079-.053-.16-.08-.239v-.024h-.008c-.027-.083-.054-.166-.08-.249v-.014h0q-.09-.291-.171-.586v-.028h-.008c-.028-.1-.054-.2-.08-.307v-.045h-.012c-.026-.106-.052-.212-.076-.318v-.034h-.008c-.063-.272-.118-.547-.168-.824v-.055h-.01c-.028-.159-.054-.317-.078-.478v-.049h-.008q-.124-.847-.167-1.718v-.391h-.015q-.008-.257-.008-.518V546.946c0-.175,0-.349.008-.523h.015v-.386q.04-.828.155-1.635h.02v-.132c.024-.162.05-.322.078-.483h.009v-.049q.075-.419.169-.829h.007v-.028c.025-.108.051-.216.078-.323h.01v-.041q.039-.156.081-.311h.007v-.024c.054-.2.112-.4.173-.591h0v-.01c.026-.084.054-.17.082-.254h.006v-.019c.027-.082.053-.163.082-.245h.006v-.018l.088-.247h0q.162-.445.345-.878h.006v-.015c.023-.053.047-.107.071-.161h.017v-.04q.35-.793.771-1.542h.02v-.036c.026-.047.054-.093.08-.139h.007v-.012q.363-.627.774-1.218h.017v-.025c.056-.08.113-.159.171-.238h.005v-.007q.291-.4.6-.784h.011v-.014c.143-.174.287-.345.436-.513h0v0l.076-.084h.012v-.013a16.677,16.677,0,0,1,1.828-1.744h.017v-.015c.141-.115.283-.227.428-.337h.012v-.009c.113-.086.228-.171.345-.255h.007v0c.08-.057.16-.115.241-.171h.023v-.015q.119-.082.239-.161h.025v-.017q.123-.081.247-.159h.017v-.011q.51-.322,1.044-.6h.01v-.005l.159-.083h.017v-.008l.157-.08h.018v-.009l.161-.078h.014V531.3l.172-.081h0v0c.2-.092.4-.178.6-.261h.017v-.007q.213-.088.428-.169h.011v0c.248-.093.5-.18.752-.259h.039v-.013l.25-.075h.013v0c.1-.029.2-.057.3-.084h.053v-.014q.547-.146,1.109-.249h.033v-.006q.246-.046.5-.082h.031v0c.23-.034.461-.061.693-.083h.1v-.01q.65-.059,1.316-.059H923.118q.661,0,1.309.059v.01h.1q.345.032.688.082v.006h.036c.164.024.328.051.49.081v.007h.039q.558.1,1.1.248v.016h.057c.1.026.2.054.295.082v.005h.017c.082.024.165.048.247.074v.014h.043q.378.119.748.258v.005h.014c.143.053.284.109.425.168v.008h.02q.39.161.77.343v.008h.018c.053.026.106.051.158.077v.011h.022l.154.078v.009h.02l.155.081v.007h.013q.082.043.162.087h0q.448.242.878.515v.012h.02c.082.052.164.1.244.157v.019h.028c.079.052.157.105.235.159v.017h.026q.3.207.59.428v.011h.015q.17.13.336.263h0l.087.072v.017h.02a16.662,16.662,0,0,1,1.912,1.838v.007h.006c.148.167.292.337.434.51v.017h.014q.311.381.6.78v.011h.007q.085.116.168.235v.028h.019q.41.588.772,1.213v.017h.009q.273.471.517.962v0h0l.086.174v0h0q.184.38.351.77v.022h.01q.182.429.342.87v.008h0c.029.079.057.158.084.238v.026h.01c.027.078.053.157.078.235v.028h.009c.027.081.053.162.078.244v.02h.006c.06.192.116.385.17.58v.035h.009c.027.1.053.2.078.3v.053h.014c.026.1.05.205.074.309v.042h.009q.152.66.254,1.338v.068h.01q.044.3.078.6v.011h0q.059.521.086,1.05v.356h.015q.011.3.011.611V882.333c0,.2,0,.4-.011.605h-.015v.361q-.027.527-.086,1.044h0v.018c-.022.2-.047.4-.076.6h-.011v.072q-.1.676-.253,1.333h-.011v.049c-.024.1-.048.2-.073.3h-.015v.058c-.025.1-.05.2-.076.293H938.4v.041c-.053.193-.109.384-.168.574h-.008v.026c-.024.08-.05.16-.076.238h-.011v.034c-.025.076-.05.153-.076.229h-.012v.032c-.027.077-.055.155-.082.232h-.005v.014q-.159.438-.339.864h-.012v.028q-.165.387-.347.763h0v.008c-.027.056-.055.111-.083.168h0v.01c-.057.114-.115.228-.175.341h0v0q-.163.31-.339.613h-.013v.022a17.419,17.419,0,0,1-.955,1.471h-.011v.016q-.254.35-.524.686h0v0q-.252.312-.516.611h-.012v.013a16.57,16.57,0,0,1-1.491,1.481h0v0c-.136.119-.274.236-.413.349h-.027v.022l-.08.066H932.6v.006a16.106,16.106,0,0,1-1.465,1.048h-.028v.018c-.085.053-.17.105-.255.157h-.008v0q-.3.18-.6.347h-.012v.007l-.151.082h-.024v.012l-.145.075h-.03v.016l-.143.072H929.7v.016c-.173.086-.348.168-.524.247h0c-.134.06-.27.117-.405.174h-.034v.013c-.137.056-.273.11-.411.162h-.028v.011q-.5.188-1.019.34h-.036v.011c-.2.059-.407.115-.612.165h0c-.268.066-.538.124-.811.175h-.068v.012q-.227.041-.456.076h-.071v.011q-.315.046-.633.078h-.07v.006c-.461.045-.926.068-1.4.068H740.441c-.473,0-.941-.024-1.4-.068" transform="translate(-724.517 -529.836)" fill="none" clip-rule="evenodd"/>
    </clipPath>
    <linearGradient id="linear-gradient-2" x1="0.5" y1="1.166" x2="0.5" y2="-0.138" gradientUnits="objectBoundingBox">
      <stop offset="0" stop-color="#1e9cf7"/>
      <stop offset="0.121" stop-color="#40abf8"/>
      <stop offset="0.351" stop-color="#7cc5fa"/>
      <stop offset="0.562" stop-color="#acdafc"/>
      <stop offset="0.747" stop-color="#cee9fd"/>
      <stop offset="0.899" stop-color="#e3f2fe"/>
      <stop offset="1" stop-color="#ebf6ff"/>
    </linearGradient>
    <clipPath id="clip-path-3">
      <rect id="Rectangle_27640" data-name="Rectangle 27640" width="150.254" height="73.209" fill="none"/>
    </clipPath>
    <linearGradient id="linear-gradient-3" x1="0.5" y1="1" x2="0.5" y2="-1.221" gradientUnits="objectBoundingBox">
      <stop offset="0" stop-color="#1e9cf7"/>
      <stop offset="0.115" stop-color="#38a7f8"/>
      <stop offset="0.551" stop-color="#97d1fb"/>
      <stop offset="0.855" stop-color="#d3ebfe"/>
      <stop offset="1" stop-color="#ebf6ff"/>
    </linearGradient>
    <clipPath id="clip-path-4">
      <rect id="Rectangle_27642" data-name="Rectangle 27642" width="103.972" height="118.968" fill="none"/>
    </clipPath>
    <linearGradient id="linear-gradient-4" x1="0.5" y1="1.407" x2="0.5" y2="-0.283" xlink:href="#linear-gradient-3"/>
    <clipPath id="clip-path-5">
      <rect id="Rectangle_27644" data-name="Rectangle 27644" width="164.976" height="136.002" fill="none"/>
    </clipPath>
    <linearGradient id="linear-gradient-5" x1="0.5" y1="0.254" x2="0.5" y2="1.242" xlink:href="#linear-gradient"/>
    <clipPath id="clip-path-6">
      <path id="Path_50674" data-name="Path 50674" d="M759.152,823.665v1.776H755.6v-1.776Zm5.324,0v1.776h-3.55v-1.776Zm5.334,0v1.776h-3.558v-1.776Zm5.315,0v1.776h-3.549v-1.776Zm5.333,0v1.776h-3.55v-1.776Zm5.325,0v1.776h-3.55v-1.776Zm5.324,0v1.776h-3.549v-1.776Zm5.324,0v1.776h-3.549v-1.776Zm5.334,0v1.776h-3.55v-1.776Zm5.324,0v1.776h-3.549v-1.776Zm5.324,0v1.776h-3.55v-1.776Zm5.325,0v1.776h-3.55v-1.776Zm5.324,0v1.776h-3.549v-1.776Zm5.333,0v1.776h-3.558v-1.776Zm5.324,0v1.776h-3.558v-1.776Zm5.325,0v1.776H835.5v-1.776Zm5.324,0v1.776h-3.549v-1.776Zm5.324,0v1.776h-3.549v-1.776Zm5.325,0v1.776h-3.549v-1.776Zm5.333,0v1.776H856.8v-1.776Zm5.324,0v1.776h-3.55v-1.776Zm5.324,0v1.776H867.45v-1.776Zm5.325,0v1.776h-3.549v-1.776Zm5.333,0v1.776h-3.549v-1.776Zm5.325,0v1.776h-3.549v-1.776Zm5.324,0v1.776h-3.549v-1.776Zm5.324,0v1.776h-3.549v-1.776Zm5.324,0v1.776h-3.549v-1.776Zm5.334,0v1.776h-3.558v-1.776Zm5.315,0v1.776h-3.541v-1.776Zm5.334,0v1.776h-3.55v-1.776Zm5.324,0v1.776h-3.549v-1.776Zm3.146,3.957h-1.775v-3.07h.4v-.887h1.371Zm0,5.326h-1.775V829.4h1.775Zm0,5.326h-1.775v-3.551h1.775Zm0,5.328h-1.775v-3.552h1.775Zm0,5.326h-1.775v-3.551h1.775Zm0,5.326h-1.775V850.7h1.775Zm0,5.326h-1.775v-3.552h1.775Zm0,5.326h-1.775v-3.551h1.775Zm0,5.325h-1.775v-3.549h1.775Zm0,5.327h-1.775v-3.55h1.775Zm0,5.326h-1.775v-3.552h1.775Zm0,5.324h-1.775v-3.55h1.775Zm0,5.329h-1.775v-3.55h1.775Zm0,5.323h-1.775v-3.55h1.775Zm-3.541,3.562v-1.773h1.766v-.01h1.775v1.783Zm-5.325,0v-1.773h3.55v1.773Zm-5.324,0v-1.773h3.55v1.773Zm-5.333,0v-1.773h3.558v1.773Zm-5.325,0v-1.773h3.559v1.773Zm-5.324,0v-1.773h3.55v1.773Zm-5.324,0v-1.773h3.549v1.773Zm-5.325,0v-1.773h3.55v1.773Zm-5.324,0v-1.773h3.549v1.773Zm-5.333,0v-1.773h3.558v1.773Zm-5.325,0v-1.773h3.55v1.773Zm-5.324,0v-1.773h3.549v1.773Zm-5.324,0v-1.773h3.549v1.773Zm-5.325,0v-1.773h3.55v1.773Zm-5.333,0v-1.773h3.549v1.773Zm-5.324,0v-1.773h3.558v1.773Zm-5.324,0v-1.773h3.55v1.773Zm-5.325,0v-1.773h3.55v1.773Zm-5.333,0v-1.773h3.558v1.773Zm-5.316,0v-1.773h3.55v1.773Zm-5.333,0v-1.773h3.55v1.773Zm-5.324,0v-1.773h3.55v1.773Zm-5.324,0v-1.773h3.549v1.773Zm-5.325,0v-1.773h3.549v1.773Zm-5.333,0v-1.773h3.549v1.773Zm-5.324,0v-1.773h3.55v1.773Zm-5.325,0v-1.773h3.55v1.773Zm-5.324,0v-1.773h3.549v1.773Zm-5.324,0v-1.773h3.541v1.773Zm-5.334,0v-1.773h3.559v1.773Zm-5.32,0v-1.773h3.554v1.773Zm-5.33,0v-1.773h3.551v1.773Zm-5.324,0v-1.773h3.552v1.773Zm-4.045-3.056h1.778v1.284h.49v1.773h-2.267Zm0-5.324h1.778v3.546h-1.778Zm0-5.329h1.778v3.551h-1.778Zm0-5.324h1.778v3.55h-1.778Zm0-5.328h1.778v3.549h-1.778Zm0-5.326h1.778v3.55h-1.778Zm0-5.328h1.778v3.552h-1.778Zm0-5.325h1.778v3.55h-1.778Zm0-5.326h1.778v3.55h-1.778Zm0-5.326h1.778v3.55h-1.778Zm0-5.326h1.778v3.549h-1.778Zm0-5.328h1.778v3.552h-1.778Zm0-5.325h1.778V837h-1.778Zm0-5.326h1.778v3.552h-1.778Zm4.437-4.46v1.776h-2.659v.909h-1.778v-2.685Z" transform="translate(-749.386 -823.665)" fill="none" clip-rule="evenodd"/>
    </clipPath>
    <linearGradient id="linear-gradient-6" x1="0.548" y1="-0.064" x2="0.73" y2="-2.193" gradientUnits="objectBoundingBox">
      <stop offset="0" stop-color="#0051dc"/>
      <stop offset="1" stop-color="#52bbff"/>
    </linearGradient>
    <clipPath id="clip-path-7">
      <path id="Path_50683" data-name="Path 50683" d="M749.23,601.231a10.911,10.911,0,0,1,1.23.069v0h.037c.2.022.388.051.578.083v0h.023c.14.024.279.052.417.082v.006h.026q.164.037.325.078v.009h.035q.295.077.58.17v.005h.015c.084.028.167.057.249.086h0a9.262,9.262,0,0,1,1.49.695v.009h.014q.217.126.425.263h0A8.98,8.98,0,0,1,756,603.852h0l.088.086h0l.086.086h0a9.045,9.045,0,0,1,.877,1.042v.012h.009a9.162,9.162,0,0,1,.605.963v0h0c.06.11.117.222.174.334v.017h.008c.027.055.053.11.08.166v.01h0q.139.3.259.607v.007h0c.029.076.057.153.085.23v.034h.012c.1.272.18.549.251.832v.047h.012c.026.107.052.216.076.325v.026h.005c.031.144.058.289.082.436v0h0a10.585,10.585,0,0,1,0,3.427h0v.005q-.037.219-.082.434h-.006v.028c-.023.108-.049.216-.076.323h-.012v.049q-.107.423-.251.83h-.013v.035c-.027.076-.056.153-.085.228h0v.009q-.12.309-.258.606h-.005v.012c-.082.175-.169.347-.261.515h0v.006a9.242,9.242,0,0,1-.6.961h-.01v.014a9.073,9.073,0,0,1-.963,1.128h0v0l-.087.085h0a9.024,9.024,0,0,1-1.315,1.053h0q-.207.137-.423.262h-.016v.01a9.238,9.238,0,0,1-1.488.693h-.006v0c-.081.029-.163.058-.245.085h-.018v.006c-.086.028-.174.056-.261.082h0c-.1.031-.207.06-.313.087h-.039v.01c-.106.028-.213.054-.321.078h-.03v.007c-.136.03-.274.057-.412.081h-.028v.005q-.281.049-.57.083h-.045v0a11.026,11.026,0,0,1-2.46,0v0h-.045q-.289-.034-.57-.083v-.005h-.027c-.138-.024-.276-.051-.412-.081v-.007h-.03c-.108-.024-.215-.05-.321-.078v-.01h-.038c-.105-.028-.21-.056-.313-.087h0c-.088-.026-.175-.053-.262-.082v-.006h-.017c-.083-.027-.165-.056-.247-.086v0h-.005a9.3,9.3,0,0,1-1.488-.694v-.009h-.015q-.217-.127-.424-.264h0a9.061,9.061,0,0,1-2.372-2.277v-.007h0c-.122-.169-.236-.342-.347-.52v-.007h0q-.235-.381-.434-.785v-.006h0a9.507,9.507,0,0,1-.436-1.038v-.016h-.006c-.028-.081-.055-.163-.082-.245v-.019h-.007c-.063-.2-.118-.394-.169-.6v-.02h-.005q-.1-.409-.17-.833v-.045h-.007a10.545,10.545,0,0,1,0-3.251h.007v-.044q.068-.425.171-.835h0v-.018c.051-.2.107-.4.17-.6h.006V607.7c.026-.082.054-.164.082-.246h.005v-.014a9.354,9.354,0,0,1,.437-1.04h0v0c.028-.057.057-.114.086-.171h0v0q.162-.313.347-.612h0V605.6q.165-.267.347-.521h0v-.006a9.047,9.047,0,0,1,2.8-2.542h.013v-.008a9.277,9.277,0,0,1,1.491-.7h0c.082-.03.165-.059.249-.086h.014v0q.285-.094.58-.171h.035v-.009c.107-.028.215-.054.325-.078h.026v-.006c.137-.03.276-.057.417-.082h.022v0c.19-.032.383-.061.578-.083H748v0a10.911,10.911,0,0,1,1.23-.069M733,655.677h32.281l-.324-.6h0l-2.985-5.534h0v0l-.614-1.138h0v0l-3.6-6.675h0v0l-3.6-6.675h0v0l-.615-1.14h0l-3.6-6.677h0l-.8-1.473Zm-30.417,0h25.882l10.272-19.05-12.941-24Z" transform="translate(-702.584 -601.231)" fill="none" clip-rule="evenodd"/>
    </clipPath>
    <linearGradient id="linear-gradient-7" x1="0.498" y1="1.641" x2="0.501" y2="0.161" xlink:href="#linear-gradient-2"/>
  </defs>
  <g id="Group_69920" data-name="Group 69920" transform="translate(-459.049 -331.68)">
    <path id="Path_50654" data-name="Path 50654" d="M763.846,1042.12h4.726a6.754,6.754,0,0,1,0,13.508h-4.726a6.754,6.754,0,1,1,0-13.508" transform="translate(-96.689 -230.478)" fill="#76c4fa" fill-rule="evenodd"/>
    <path id="Path_50655" data-name="Path 50655" d="M510.117,994.13h31.046c-4.628,0-8.416,4.849-8.416,10.771s3.789,10.771,8.416,10.771H510.117c-4.628,0-8.415-4.844-8.415-10.771s3.787-10.771,8.415-10.771" transform="translate(-13.837 -214.909)" fill="#a16a68" fill-rule="evenodd"/>
    <path id="Path_50656" data-name="Path 50656" d="M551.164,1100.563h10.37v16.512l-4.932-3.829-5.438,3.829Z" transform="translate(-29.884 -249.438)" fill="#ba3048" fill-rule="evenodd"/>
    <path id="Path_50657" data-name="Path 50657" d="M943.356,491.916H760.68a30.531,30.531,0,0,0-30.442,30.442V900.387a30.536,30.536,0,0,0,30.442,30.448H943.356A30.536,30.536,0,0,0,973.8,900.387V522.358a30.531,30.531,0,0,0-30.445-30.442" transform="translate(-87.978 -51.983)" fill="#102b6e" fill-rule="evenodd"/>
    <g id="Group_69907" data-name="Group 69907" transform="translate(623.876 439.933)">
      <g id="Group_69906" data-name="Group 69906" transform="translate(0 0)" clip-path="url(#clip-path)">
        <rect id="Rectangle_27637" data-name="Rectangle 27637" width="243.565" height="438.919" transform="translate(0 0)" fill="url(#linear-gradient)"/>
      </g>
    </g>
    <path id="Path_50659" data-name="Path 50659" d="M885.654,513.064a1.92,1.92,0,1,0,0-3.839H850.1a1.92,1.92,0,0,0,0,3.839Zm6.414-3.839a1.92,1.92,0,1,0,0,3.839H893.7a1.92,1.92,0,1,0,0-3.839Z" transform="translate(-126.241 -57.598)" fill="#fff" fill-rule="evenodd"/>
    <path id="Path_50660" data-name="Path 50660" d="M581.255,1130.086h-29a2.683,2.683,0,0,1-2.66-2.329,2.548,2.548,0,0,1-.02-.562l1.18-15.234a16.7,16.7,0,0,1,2.9-.953,2.946,2.946,0,0,0,2.149-1.953c.026-.073.041-.145.062-.222.665-2.932,4.891-3.86,5.675-1,.1.372.185.732.262,1.077.015.088.036.176.051.257.124.614.217,1.181.278,1.681l.005.031a15.669,15.669,0,0,1,.144,2.067q.58.734,1.113,1.443c.187.232.361.469.536.7.382.495.753.979,1.119,1.442.17.217.334.428.505.634.4.505.8.984,1.2,1.428.18.2.355.4.541.588a8.341,8.341,0,0,0,4.782,2.9c3.149.433,8.282.778,10.766,5.391a1.811,1.811,0,0,1,.124.294,1.79,1.79,0,0,1-1.706,2.329" transform="translate(-29.366 -251.235)" fill="#9c1f39" fill-rule="evenodd"/>
    <path id="Path_50661" data-name="Path 50661" d="M477.452,938.623v17.848c0,19.786,3.489,63.237,4.752,87.253l13.281-.263,10.9-86.6,18.62,2.664.917-23.634c.222-81.7-41.627-62.675-37.967-16.353.4,5.1-12.456,13.492-10.5,19.084" transform="translate(-5.905 -177.787)" fill="#2a4589" fill-rule="evenodd"/>
    <path id="Path_50662" data-name="Path 50662" d="M536.3,968.932l-31.546,6.782,22.754,51.656,8.539,43.977,14,.365c-.365-21.321-2.05-42.765-3.072-55.041-.536-6.433-6.942-29.2-10.672-47.739" transform="translate(-14.827 -206.735)" fill="#2a4589" fill-rule="evenodd"/>
    <path id="Path_50663" data-name="Path 50663" d="M501.966,1131.451c-.237,4.231-15.24,2.773-17.635,1.505a2.886,2.886,0,0,1-1.386-2.582,17.924,17.924,0,0,1,1.154-5.994c.959-2.979.824-2.923,1.5-4.964,0,0-.176-3.308,4.741-4.576s6.716,6.984,7.556,8.571c.768,1.453,3.752,3.443,4.061,7.019a6.627,6.627,0,0,1,.016,1.02" transform="translate(-7.748 -254.027)" fill="#9c1f39" fill-rule="evenodd"/>
    <path id="Path_50664" data-name="Path 50664" d="M529.718,865.938c4.555,10,7.525,13.174,20.563,15.117,10.57,1.573,30.7-22.205,32.216-25.451s-4.257-11.727-6.122-10.747-23.553,17.56-25.037,17.453c-1.51-.11-6.623-2.447-18.224-9.981-1.1-.707-6.6,8.78-3.4,13.608" transform="translate(-22.605 -166.458)" fill="#76c4fa" fill-rule="evenodd"/>
    <path id="Path_50665" data-name="Path 50665" d="M467.2,858.633c-4.339,6.472,8.735,44.216,5.111,77.1,20.306,3.489,41.659.963,53.785-2.9-.026-24.882-2.313-54.543-7.467-73.125-1.211-3.014-3.613-5.161-9.545-6.822-14.445-4.049-35.937-3.127-41.884,5.741" transform="translate(-2.353 -168.342)" fill="#0096d5" fill-rule="evenodd"/>
    <path id="Path_50666" data-name="Path 50666" d="M511.265,826.116a15.163,15.163,0,0,1-6.257,6.461l.078,4.13.6.51c2.35,2.523.041,8.5-2.4,10.569-3.988-.464-12.456-8.253-10.421-11.269l.882-.986.2-5.844c-.351-.02-2.891-1.467-3.65-1.7a3.921,3.921,0,0,1-1.942-3.233c-.077-1.542,2.3-1.043,2.3-1.043-2.886-3.948-6.154-7.171-1.917-10.728s13.966-5.628,13.966-5.628l5.855-2.03c-.742,2.02.809,7.8,2.315,12.014,1.349,3.776,2.3,4.959.386,8.775" transform="translate(-8.975 -153.659)" fill="#f6cbce" fill-rule="evenodd"/>
    <path id="Path_50667" data-name="Path 50667" d="M501.511,842.585s3.309,5.682,6.03,6.2,1.329.134,2.345.013l-.078-4.13c-1.87.3-3.706.153-8.3-2.079" transform="translate(-13.776 -165.746)" fill="#e88284" fill-rule="evenodd"/>
    <path id="Path_50668" data-name="Path 50668" d="M478.484,863.6c-.263-5.577-4.8-7.979-9.251-7.275-11.188,2.851-11.57,36.675-8.622,45.524,2.067,5.984,33.989,13.106,38.05,11.844,1.7-.531,4.561-2.273,5.411-4.206.505-1.144,1.021-2.923-1.442-4.01-6.541-2.9-25.924-9.395-26.3-11.173-3.123-14.841,2.561-21.881,2.149-30.7" transform="translate(0 -170.165)" fill="#76c4fa" fill-rule="evenodd"/>
    <path id="Path_50669" data-name="Path 50669" d="M600.014,845.074c-.489,3.068,2.371,8.017,4.545,8.895.243-.432,1.7-2.305,2.66-3.743,2.067-3.09-2.815-9.549-4.247-8.117Z" transform="translate(-45.714 -165.525)" fill="#76c4fa" fill-rule="evenodd"/>
    <path id="Path_50670" data-name="Path 50670" d="M508.417,796.458c1.721,5.431.2,9.868-5.164,11.4-3.994,1.138-9.441.832-12.276,4.169-1.4,1.654-1.263,4.039.309,7.721.463,1.084,1.086,1.884-.748,1.035-.84-.388-2.227-.934-2.7-.553-1.051.853-.521,2.642.32,3.217.376.256,1.082.641,1.082.641a5.11,5.11,0,0,1-4.3-.576c-2.186-1.39-8.581-5.617-8.226-12.766.526-10.6,10.855-14.219,20.084-19.776,4.055-2.442,10.261,1.2,11.622,5.492" transform="translate(-5.725 -148.745)" fill="#092978" fill-rule="evenodd"/>
    <g id="Group_69909" data-name="Group 69909" transform="translate(638.395 465.551)">
      <g id="Group_69908" data-name="Group 69908" transform="translate(0)" clip-path="url(#clip-path-2)">
        <rect id="Rectangle_27638" data-name="Rectangle 27638" width="214.523" height="369.607" transform="translate(0 0)" fill="url(#linear-gradient-2)"/>
      </g>
    </g>
    <g id="Group_69911" data-name="Group 69911" transform="translate(681.189 665.833)">
      <g id="Group_69910" data-name="Group 69910" transform="translate(0)" clip-path="url(#clip-path-3)">
        <rect id="Rectangle_27639" data-name="Rectangle 27639" width="150.254" height="73.209" fill="url(#linear-gradient-3)"/>
      </g>
    </g>
    <g id="Group_69913" data-name="Group 69913" transform="translate(727.923 483.992)">
      <g id="Group_69912" data-name="Group 69912" transform="translate(0 0)" clip-path="url(#clip-path-4)">
        <rect id="Rectangle_27641" data-name="Rectangle 27641" width="103.972" height="118.968" fill="url(#linear-gradient-4)"/>
      </g>
    </g>
    <path id="Path_50672" data-name="Path 50672" d="M799.661,555.528v1.083h-1.792v-1.083Zm2.135,0v1.083H800v-1.083Zm2.136,0v1.083h-1.8v-1.083Zm2.126,0v1.083h-1.792v-1.083Zm2.135,0v1.083h-1.8v-1.083Zm2.127,0v1.083h-1.793v-1.083Zm2.126,0v1.083h-1.792v-1.083Zm2.135,0v1.083h-1.792v-1.083Zm2.127,0v1.083h-1.793v-1.083Zm2.135,0v1.083h-1.792v-1.083Zm2.126,0v1.083h-1.792v-1.083Zm2.135,0v1.083h-1.8v-1.083Zm2.126,0v1.083h-1.792v-1.083Zm2.135,0v1.083h-1.8v-1.083Zm2.127,0v1.083H827.7v-1.083Zm2.135,0v1.083h-1.792v-1.083Zm2.126,0v1.083H831.96v-1.083Zm2.136,0v1.083h-1.8v-1.083Zm2.126,0v1.083h-1.792v-1.083Zm2.135,0v1.083h-1.8v-1.083Zm2.127,0v1.083h-1.793v-1.083Zm2.126,0v1.083h-1.792v-1.083Zm2.135,0v1.083h-1.792v-1.083Zm2.127,0v1.083H846.87v-1.083Zm2.135,0v1.083h-1.792v-1.083Zm2.135,0v1.083h-1.8v-1.083Zm2.127,0v1.083h-1.793v-1.083Zm2.135,0v1.083h-1.8v-1.083Zm2.126,0v1.083h-1.792v-1.083Zm2.126,0v1.083h-1.792v-1.083Zm2.135,0v1.083h-1.792v-1.083Zm2.126,0v1.083h-1.792v-1.083Zm2.135,0v1.083h-1.8v-1.083Zm2.127,0v1.083h-1.792v-1.083Zm2.135,0v1.083h-1.8v-1.083Zm2.126,0v1.083h-1.792v-1.083Zm2.136,0v1.083h-1.792v-1.083Zm2.135,0v1.083h-1.8v-1.083Zm2.126,0v1.083h-1.792v-1.083Zm2.127,0v1.083h-1.792v-1.083Zm2.135,0v1.083H883.1v-1.083Zm2.126,0v1.083h-1.792v-1.083Zm2.135,0v1.083h-1.8v-1.083Zm2.126,0v1.083h-1.792v-1.083Zm2.126,0v1.083H891.61v-1.083Zm2.135,0v1.083h-1.793v-1.083Zm2.135,0v1.083h-1.8v-1.083Zm2.126,0v1.083h-1.792v-1.083Zm2.136,0v1.083h-1.8v-1.083Zm2.126,0v1.083h-1.792v-1.083Zm2.126,0v1.083h-1.792v-1.083Zm2.136,0v1.083h-1.793v-1.083Zm2.126,0v1.083h-1.792v-1.083Zm2.135,0v1.083h-1.8v-1.083Zm2.127,0v1.083h-1.792v-1.083Zm2.135,0v1.083h-1.8v-1.083Zm2.126,0v1.083h-1.792v-1.083Zm2.135,0v1.083h-1.793v-1.083Zm2.135,0v1.083h-1.8v-1.083Zm2.126,0v1.083h-1.792v-1.083Zm2.127,0v1.083H925.7v-1.083Zm2.135,0v1.083h-1.792v-1.083Zm2.126,0v1.083h-1.792v-1.083Zm2.135,0v1.083h-1.8v-1.083Zm2.126,0v1.083h-1.792v-1.083Zm2.126,0v1.083h-1.792v-1.083Zm2.136,0v1.083h-1.793v-1.083Zm.738,1.083h-.4v-1.083H942.1v1.4h-1.081Zm1.081,2.446h-1.081v-1.795H942.1Zm0,2.13h-1.081v-1.795H942.1Zm0,2.131h-1.081v-1.8H942.1Zm0,2.13h-1.081v-1.795H942.1Zm0,2.131h-1.081v-1.8H942.1Zm0,2.13h-1.081v-1.794H942.1Zm0,2.131h-1.081v-1.8H942.1Zm0,2.129h-1.081v-1.8H942.1Zm0,2.131h-1.081V574.3H942.1Zm0,2.131h-1.081v-1.8H942.1Zm0,2.131h-1.081v-1.8H942.1Zm0,2.129h-1.081V580.7H942.1Zm0,2.131h-1.081v-1.794H942.1Zm0,2.13h-1.081v-1.794H942.1Zm0,2.131h-1.081v-1.793H942.1Zm0,2.131h-1.081v-1.794H942.1Zm0,2.131h-1.081v-1.794H942.1Zm0,2.129h-1.081V593.48H942.1Zm0,2.131h-1.081V595.61H942.1Zm0,2.131h-1.081V597.74H942.1Zm0,2.131h-1.081v-1.793H942.1Zm0,2.13h-1.081V602H942.1Zm0,2.13h-1.081v-1.792H942.1Zm0,2.131h-1.081v-1.794H942.1Zm0,2.131h-1.081v-1.794H942.1Zm0,2.131h-1.081v-1.794H942.1Zm0,2.13h-1.081v-1.794H942.1Zm0,2.131h-1.081v-1.794H942.1Zm0,2.129h-1.081v-1.794H942.1Zm0,2.131h-1.081v-1.794H942.1Zm0,2.131h-1.081v-1.8H942.1Zm0,2.13h-1.081v-1.795H942.1Zm0,2.131h-1.081v-1.8H942.1Zm0,2.131h-1.081v-1.8H942.1Zm0,2.131h-1.081v-1.8H942.1Zm0,2.131h-1.081v-1.8H942.1Zm0,2.129h-1.081v-1.795H942.1Zm0,2.131h-1.081v-1.794H942.1Zm0,2.13h-1.081v-1.794H942.1Zm0,2.132h-1.081v-1.8H942.1Zm0,2.129h-1.081v-1.794H942.1Zm0,2.131h-1.081v-1.794H942.1Zm0,2.131h-1.081v-1.793H942.1Zm0,2.129h-1.081v-1.793H942.1Zm0,2.131h-1.081V651H942.1Zm0,2.13h-1.081v-1.793H942.1Zm0,2.13h-1.081v-1.793H942.1Zm0,2.131h-1.081v-1.793H942.1Zm0,2.131h-1.081v-1.794H942.1Zm0,2.131h-1.081v-1.795H942.1Zm0,2.131h-1.081v-1.795H942.1Zm0,2.13h-1.081v-1.794H942.1Zm0,2.13h-1.081v-1.794H942.1Zm0,2.13h-1.081v-1.794H942.1Zm0,2.131h-1.081v-1.794H942.1Zm-4.912,2.562v-1.084h1.792v1.084Zm-2.135,0v-1.084h1.8v1.084Zm-2.126,0v-1.084h1.792v1.084Zm-2.135,0v-1.084h1.8v1.084Zm-2.127,0v-1.084h1.793v1.084Zm-2.135,0v-1.084h1.792v1.084Zm-2.126,0v-1.084h1.792v1.084Zm-2.136,0v-1.084h1.793v1.084Zm-2.126,0v-1.084h1.792v1.084Zm-2.135,0v-1.084h1.8v1.084Zm-2.127,0v-1.084h1.793v1.084Zm-2.126,0v-1.084h1.792v1.084Zm-2.135,0v-1.084h1.792v1.084Zm-2.127,0v-1.084h1.792v1.084Zm-2.135,0v-1.084h1.792v1.084Zm-2.135,0v-1.084h1.8v1.084Zm-2.127,0v-1.084h1.793v1.084Zm-2.135,0v-1.084h1.792v1.084Zm-2.126,0v-1.084h1.792v1.084Zm-2.136,0v-1.084h1.8v1.084Zm-2.126,0v-1.084h1.792v1.084Zm-2.126,0v-1.084h1.792v1.084Zm-2.136,0v-1.084h1.8v1.084Zm-2.126,0v-1.084h1.792v1.084Zm-2.135,0v-1.084h1.8v1.084Zm-2.127,0v-1.084h1.793v1.084Zm-2.135,0v-1.084h1.792v1.084Zm-2.126,0v-1.084h1.792v1.084Zm-2.135,0v-1.084h1.793v1.084Zm-2.126,0v-1.084h1.792v1.084Zm-2.135,0v-1.084h1.792v1.084Zm-2.127,0v-1.084h1.793v1.084Zm-2.135,0v-1.084h1.8v1.084Zm-2.126,0v-1.084h1.792v1.084Zm-2.126,0v-1.084h1.792v1.084Zm-2.136,0v-1.084h1.792v1.084Zm-2.135,0v-1.084h1.8v1.084Zm-2.126,0v-1.084h1.792v1.084Zm-2.136,0v-1.084h1.792v1.084Zm-2.126,0v-1.084h1.792v1.084Zm-2.135,0v-1.084h1.8v1.084Zm-2.127,0v-1.084h1.792v1.084Zm-2.135,0v-1.084h1.8v1.084Zm-2.126,0v-1.084h1.792v1.084Zm-2.127,0v-1.084h1.792v1.084Zm-2.135,0v-1.084H843.1v1.084Zm-2.126,0v-1.084h1.792v1.084Zm-2.135,0v-1.084h1.792v1.084Zm-2.126,0v-1.084h1.792v1.084Zm-2.135,0v-1.084h1.792v1.084Zm-2.135,0v-1.084h1.8v1.084Zm-2.126,0v-1.084h1.792v1.084Zm-2.135,0v-1.084h1.8v1.084Zm-2.127,0v-1.084h1.792v1.084Zm-2.126,0v-1.084h1.792v1.084Zm-2.126,0v-1.084H821.8v1.084Zm-2.136,0v-1.084h1.792v1.084Zm-2.135,0v-1.084h1.8v1.084Zm-2.126,0v-1.084h1.792v1.084Zm-2.135,0v-1.084h1.8v1.084Zm-2.126,0v-1.084h1.792v1.084Zm-2.135,0v-1.084h1.792v1.084Zm-2.127,0v-1.084h1.792v1.084Zm-2.126,0v-1.084h1.792v1.084Zm-2.135,0v-1.084h1.792v1.084Zm-2.127,0v-1.084H800.5v1.084Zm-2.135,0v-1.084h1.792v1.084Zm-.334-.355v.355h-.844v-2.033h1.081v1.678Zm-.844-3.81h1.081v1.8h-1.081Zm0-2.13h1.081v1.794h-1.081Zm0-2.13h1.081v1.794h-1.081Zm0-2.13h1.081V667.9h-1.081Zm0-2.13h1.081v1.794h-1.081Zm0-2.131h1.081v1.8h-1.081Zm0-2.129h1.081v1.793h-1.081Zm0-2.131h1.081v1.794h-1.081Zm0-2.131h1.081v1.794h-1.081Zm0-2.131h1.081v1.795h-1.081Zm0-2.129h1.081v1.793h-1.081Zm0-2.131h1.081v1.794h-1.081Zm0-2.132h1.081v1.795h-1.081Zm0-2.131h1.081v1.8h-1.081Zm0-2.129h1.081v1.794h-1.081Zm0-2.13h1.081v1.794h-1.081Zm0-2.131h1.081v1.794h-1.081Zm0-2.131h1.081v1.794h-1.081Zm0-2.131h1.081v1.794h-1.081Zm0-2.131h1.081v1.8h-1.081Zm0-2.13h1.081v1.8h-1.081Zm0-2.13h1.081v1.8h-1.081Zm0-2.131h1.081v1.795h-1.081Zm0-2.13h1.081v1.794h-1.081Zm0-2.131h1.081v1.8h-1.081Zm0-2.13h1.081v1.794h-1.081Zm0-2.131h1.081v1.8h-1.081Zm0-2.13h1.081v1.794h-1.081Zm0-2.131h1.081v1.794h-1.081Zm0-2.13h1.081v1.795h-1.081Zm0-2.129h1.081v1.793h-1.081Zm0-2.131h1.081v1.793h-1.081Zm0-2.131h1.081v1.793h-1.081Zm0-2.131h1.081v1.794h-1.081Zm0-2.131h1.081v1.794h-1.081Zm0-2.131h1.081v1.794h-1.081Zm0-2.13h1.081V597.6h-1.081Zm0-2.131h1.081v1.794h-1.081Zm0-2.131h1.081v1.795h-1.081Zm0-2.129h1.081v1.794h-1.081Zm0-2.132h1.081v1.8h-1.081Zm0-2.131h1.081v1.8h-1.081Zm0-2.129h1.081v1.794h-1.081Zm0-2.131h1.081v1.795h-1.081Zm0-2.129h1.081v1.795h-1.081Zm0-2.131h1.081v1.8h-1.081Zm0-2.131h1.081v1.8h-1.081Zm0-2.131h1.081v1.795h-1.081Zm0-2.131h1.081v1.795h-1.081Zm0-2.129h1.081V569.9h-1.081Zm0-2.13h1.081v1.794h-1.081Zm0-2.131h1.081v1.794h-1.081Zm0-2.13h1.081v1.793h-1.081Zm0-2.131h1.081v1.793h-1.081Zm0-2.13h1.081v1.792h-1.081Zm1.081-.844v.507h-1.081v-1.59h2.144v1.083ZM941.015,675.579v-1.142H942.1v1.795H941.1v.431h-1.792v-1.084Z" transform="translate(-109.115 -72.62)" fill="#fff" fill-rule="evenodd"/>
    <path id="Path_50673" data-name="Path 50673" d="M849.884,636.031h8.4V622.683h25.137v13.348h8.7L871.006,658.6Z" transform="translate(-126.793 -94.406)" fill="#fff" fill-rule="evenodd"/>
    <g id="Group_69915" data-name="Group 69915" transform="translate(572.978 475.475)">
      <g id="Group_69914" data-name="Group 69914" transform="translate(0 0)" clip-path="url(#clip-path-5)">
        <rect id="Rectangle_27643" data-name="Rectangle 27643" width="164.976" height="136.002" fill="url(#linear-gradient-5)"/>
      </g>
    </g>
    <g id="Group_69917" data-name="Group 69917" transform="translate(655.196 664.057)">
      <g id="Group_69916" data-name="Group 69916" transform="translate(0)" clip-path="url(#clip-path-6)">
        <rect id="Rectangle_27645" data-name="Rectangle 27645" width="178.022" height="76.758" transform="translate(0 0)" fill="url(#linear-gradient-6)"/>
      </g>
    </g>
    <rect id="Rectangle_27646" data-name="Rectangle 27646" width="176.247" height="77.969" transform="translate(511.025 663.453)" fill="#35a1f0"/>
    <path id="Path_50675" data-name="Path 50675" d="M521.149,930.017l2.793.908,6.257-1.093c.7-.315,5.246-1.376,4.035.129-.851,1.052-3.464,2.788-3.4,2.9.84,1.525,9.308,3.814,9.4,3.953,1.176,1.927-4.287.789-5.221.64-.247-.042,3.583,1.617,3.408,1.777a1.889,1.889,0,0,1-1.779.536c-1.257-.237-3.35-.984-3.6-.8s3.469,1.768,3.21,1.928a1.661,1.661,0,0,1-1.375.21c-1.3-.278-3.19-1.092-3.509-.968s2.412,1.1,2.1,1.2c-.242.072-.3.51-.547.48-6.545-.865-6.437-4.226-13.956-5.014-4.18-.439.757-6.134,2.2-6.784" transform="translate(-18.901 -193.837)" fill="#f6cbce" fill-rule="evenodd"/>
    <path id="Path_50676" data-name="Path 50676" d="M777.476,997.99h-6.519V978.376h6.519Zm-11.527,0h-6.512V976.134h6.512Zm-11.521,0h-6.514V982.478h6.514Zm47.219,0h-6.519V958.581h6.519Zm34.987,0h-6.519V978.376h6.519Zm-11.528,0H818.6V962.4h6.511Zm-11.528,0h-6.511V982.478h6.511Zm47.218,0h-6.511V958.581H860.8Zm-12.643,0h-6.511V968.022h6.511Zm-59.158,0h-6.511V968.022h6.511Z" transform="translate(-93.713 -203.377)" fill="#e3f4fa" fill-rule="evenodd"/>
    <path id="Path_50677" data-name="Path 50677" d="M860.627,873.313h5.518v-8.756h16.492v8.756h5.7l-13.847,14.808Z" transform="translate(-130.278 -172.874)" fill="#fff" fill-rule="evenodd"/>
    <rect id="Rectangle_27647" data-name="Rectangle 27647" width="60.876" height="4.134" transform="translate(653.041 623.502)" fill="#008df3"/>
    <rect id="Rectangle_27648" data-name="Rectangle 27648" width="60.876" height="4.134" transform="translate(720.306 623.502)" fill="#008df3"/>
    <rect id="Rectangle_27649" data-name="Rectangle 27649" width="44.709" height="15.785" transform="translate(788.513 623.502)" fill="#fff"/>
    <rect id="Rectangle_27650" data-name="Rectangle 27650" width="88.964" height="4.134" transform="translate(653.041 635.152)" fill="#fff"/>
    <rect id="Rectangle_27651" data-name="Rectangle 27651" width="32.788" height="4.134" transform="translate(748.395 635.152)" fill="#008df3"/>
    <rect id="Rectangle_27652" data-name="Rectangle 27652" width="44.709" height="4.134" transform="translate(788.513 635.152)" fill="#fff"/>
    <rect id="Rectangle_27653" data-name="Rectangle 27653" width="44.482" height="4.134" transform="translate(653.041 647.263)" fill="#fff"/>
    <rect id="Rectangle_27654" data-name="Rectangle 27654" width="77.512" height="4.134" transform="translate(703.673 647.263)" fill="#fff"/>
    <rect id="Rectangle_27655" data-name="Rectangle 27655" width="44.709" height="4.134" transform="translate(788.513 647.263)" fill="#fff"/>
    <rect id="Rectangle_27656" data-name="Rectangle 27656" width="8.096" height="8.096" transform="translate(779.226 759.347)" fill="#e3f4fa"/>
    <rect id="Rectangle_27657" data-name="Rectangle 27657" width="8.096" height="8.096" transform="translate(779.226 773.139)" fill="#e3f4fa"/>
    <rect id="Rectangle_27658" data-name="Rectangle 27658" width="8.096" height="8.096" transform="translate(779.226 786.93)" fill="#e3f4fa"/>
    <path id="Path_50678" data-name="Path 50678" d="M993.636,967.353H952.7a2.116,2.116,0,0,0,0,4.216h40.935a2.117,2.117,0,0,0,0-4.216" transform="translate(-159.522 -206.222)" fill="#e3f4fa" fill-rule="evenodd"/>
    <path id="Path_50679" data-name="Path 50679" d="M993.636,988H952.7a2.116,2.116,0,0,0,0,4.216h40.935a2.117,2.117,0,0,0,0-4.216" transform="translate(-159.522 -212.919)" fill="#e3f4fa" fill-rule="evenodd"/>
    <path id="Path_50680" data-name="Path 50680" d="M993.636,1008.41H952.7a2.119,2.119,0,0,0,0,4.221h40.935a2.12,2.12,0,0,0,0-4.221" transform="translate(-159.522 -219.542)" fill="#e3f4fa" fill-rule="evenodd"/>
    <path id="Path_50681" data-name="Path 50681" d="M851.677,851.177v1.253H850.42v-1.253Zm2.5,0v1.253h-1.257v-1.253Zm2.5,0v1.253h-1.257v-1.253Zm2.5,0v1.253h-1.257v-1.253Zm2.5,0v1.253h-1.257v-1.253Zm2.5,0v1.253H862.94v-1.253Zm2.513,0v1.253h-1.265v-1.253Zm2.5,0v1.253h-1.256v-1.253Zm2.5,0v1.253h-1.257v-1.253Zm2.5,0v1.253h-1.257v-1.253Zm2.5,0v1.253H875.47v-1.253Zm2.5,0v1.253h-1.257v-1.253Zm2.5,0v1.253h-1.257v-1.253Zm2.5,0v1.253h-1.248v-1.253Zm2.5,0v1.253h-1.248v-1.253Zm2.645.312-.325,1.211-.018,0-.035-.012-.053-.014-.044-.01-.044-.012-.053-.011-.045-.012-.034-.009-.053-.012-.053-.011-.045-.007-.053-.012-.034-.007-.053-.01-.044-.008-.043-.009-.053-.007-.044-.007-.053-.009-.035-.007-.053-.007-.053-.007-.044-.005-.053-.006-.044-.005.132-1.245h.009l.061.007.053.008.053.007.061.006.053.007.061.01.044.009.053.008.061.01.053.01.053.009.061.011.053.012.052.011.053.011.053.012.053.009.062.014.053.013.044.012.061.015.053.013.044.012.053.013Zm2.452,1.1-.677,1.056-.009-.01-.035-.025-.044-.024-.035-.022-.044-.026-.035-.023-.044-.026-.035-.021-.044-.023-.035-.023-.044-.021-.044-.024-.035-.022-.044-.023-.035-.019-.044-.022-.044-.022-.035-.018-.044-.024-.044-.02-.035-.019-.053-.02-.035-.022-.035-.016-.053-.021-.026-.014.5-1.146.053.018.044.023.053.024.053.024.035.022.053.024.044.024.053.024.053.024.044.026.044.024.053.026.044.028.053.025.035.024.053.026.044.027.053.027.044.029.044.026.053.028.035.027.053.029.043.03.044.027Zm2.012,1.775-.949.81-.035-.033-.026-.036-.035-.037-.026-.036-.035-.03-.018-.032-.044-.036-.026-.038-.035-.03-.026-.032-.035-.036-.035-.036-.026-.029-.035-.032-.026-.032-.035-.033-.035-.032-.026-.028-.035-.034-.035-.033-.035-.031-.026-.028-.044-.033-.026-.036-.035-.027-.009-.008.817-.945.026.02.035.037.035.033.035.034.044.037.044.038.035.034.035.035.044.04.036.036.043.036.035.04.035.036.035.043.045.036.026.036.044.043.035.038.035.038.035.037.035.04.035.044.035.04.035.039.035.04Zm1.4,2.3-1.151.478-.009-.014-.017-.038-.018-.042-.018-.045-.026-.045-.018-.038-.018-.043-.017-.038-.018-.042-.018-.045-.026-.041-.018-.041-.018-.044-.026-.039-.018-.039-.026-.045-.018-.036-.026-.038-.018-.043-.026-.043-.018-.041-.026-.039-.027-.039-.017-.038-.026-.041-.018-.033,1.072-.651.018.039.026.043.035.049.026.047.026.047.026.047.018.043.026.046.036.049.026.051.018.045.027.049.026.05.018.044.027.049.026.048.018.047.026.049.026.052.018.048.026.051.017.048.027.048.017.049.017.053Zm.641,2.607-1.248.111v-.019l-.009-.049v-.047l-.009-.047-.009-.049v-.047l-.009-.051v-.048l-.018-.047v-.046l-.009-.043-.009-.05v-.051l-.018-.042V858.7l-.009-.051-.018-.045v-.043l-.009-.049-.009-.047-.018-.046-.009-.051-.009-.041-.009-.043-.009-.046,1.213-.3.009.045.017.055.009.06.009.05.018.053.009.054.009.05.018.059.009.056.009.05.009.055.009.059.009.051.009.051.009.061.009.055.009.055.009.055v.052l.009.055.009.057.009.056v.055l.009.056Zm.035,2.56h-1.257v-1.252h1.257Zm0,2.506h-1.257v-1.252h1.257Zm0,2.506h-1.257v-1.253h1.257Zm0,2.505h-1.257v-1.252h1.257Zm0,2.506h-1.257V870.6h1.257Zm0,2.508h-1.257V873.1h1.257Zm0,2.5h-1.257v-1.253h1.257Zm0,2.505h-1.257v-1.253h1.257Zm0,2.505h-1.257V880.62h1.257Zm-.4,2.653-1.2-.367.018-.048.009-.046.018-.043.009-.049.018-.044.009-.037.009-.047.018-.051.009-.042.018-.047.009-.05.009-.043.009-.041.009-.05.018-.047.009-.046.009-.05v-.041l.018-.047.009-.051v-.045l.018-.042V883.1l.009-.051.009-.019,1.239.18-.009.037-.009.053-.009.049-.009.06-.009.057-.009.05-.009.053-.018.06-.009.05-.009.054-.018.055-.009.05-.009.059-.017.055-.009.049-.018.053-.009.054-.017.049-.009.054-.018.059-.018.053-.009.047-.018.056-.018.051Zm-1.178,2.415-1.037-.714.009,0,.027-.039.026-.038.026-.037.026-.038.027-.041.018-.036.026-.041.027-.036.018-.039.026-.041.027-.039.026-.044.017-.037.027-.038.026-.04.018-.04.026-.042.018-.043.026-.039.018-.036.026-.044.018-.038.026-.039.018-.045.018-.041v0l1.133.541-.008.009-.027.048-.018.045-.026.05-.027.05-.018.044-.026.051-.036.05-.026.045-.018.043-.026.047-.026.048-.026.049-.035.049-.026.043-.026.042-.026.046-.026.047-.035.047-.026.041-.026.046-.026.046-.035.041-.026.052-.035.041-.026.041Zm-1.845,1.948-.773-.984.026-.021.035-.031.035-.025.035-.031.035-.026.036-.031.035-.03.035-.032.035-.03.035-.031.035-.025.035-.031.026-.032.044-.031.026-.031.035-.031.035-.036.035-.032.026-.025.035-.036.035-.03.026-.031.035-.036.026-.026.035-.04.026-.021.9.865-.017.021-.045.037-.035.041-.035.041-.035.036-.043.036-.036.036-.044.041-.035.036-.035.031-.044.041-.044.036-.035.031-.035.036-.035.036-.044.041-.044.031-.035.037-.044.03-.035.036-.044.037-.044.036-.035.031-.044.03-.044.037Zm-2.337,1.314-.457-1.17.053-.016.035-.02.053-.016.035-.015.053-.021.044-.015.035-.021.044-.016.045-.021.043-.02.035-.016.053-.02.035-.016.035-.02.053-.022.035-.02.044-.02.044-.026.035-.016.044-.02.044-.025.035-.021.044-.02.035-.022.044-.026.615,1.092h-.009l-.035.026-.053.026-.044.026-.053.026-.044.025-.044.026-.053.026-.053.02-.044.026-.053.021-.035.026-.053.021-.053.025-.044.022-.053.026-.053.02-.044.021-.053.021-.053.021-.044.02-.053.021-.053.02-.045.021-.052.015Zm-2.636.546-.07-1.247.044,0h.053l.044-.005.053-.005h.044l.053-.005.044,0,.044-.005.053-.005.044-.005.044,0,.053-.005.044-.01.053-.005.053,0,.035-.005.053-.01.044-.005.053-.01.043,0,.044-.011.053-.011.034-.009.053-.011h.009l.264,1.227-.018.005-.052.009-.053.011-.061.01-.053.009-.053.011-.061.01-.053,0-.044.011-.061.011-.053,0-.061.005-.053.011-.053,0-.061.011-.044,0-.061,0-.053.005-.062.005-.053.005-.061.005-.053,0h-.053l-.053,0Zm-2.539.016v-1.252h1.257v1.252Zm-2.513,0v-1.252h1.265v1.252Zm-2.5,0v-1.252h1.257v1.252Zm-2.5,0v-1.252h1.257v1.252Zm-2.5,0v-1.252h1.257v1.252Zm-2.5,0v-1.252h1.256v1.252Zm-2.5,0v-1.252h1.256v1.252Zm-2.5,0v-1.252H868.7v1.252Zm-2.513,0v-1.252H866.2v1.252Zm-2.5,0v-1.252h1.257v1.252Zm-2.5,0v-1.252h1.256v1.252Zm-2.5,0v-1.252h1.257v1.252Zm-2.5,0v-1.252h1.257v1.252Zm-2.5,0v-1.252h1.257v1.252Zm-2.5,0v-1.252h1.256v1.252Zm-2.548-.02.079-1.247h.035l.044,0h.053l.053.005h.193l.044.005h.79v1.252h-.861l-.053-.005h-.114l-.053,0h-.114l-.062-.005Zm-2.618-.573.448-1.164.026.009.035.011.052.021.044.016.044.016.035.016.053.015.044.016.035.01.053.015.035.016.053.015.053.016.035.01.053.015.044.011.044.01.035.016.053.01.044.011.044.009.053.015.044.011.035.009.053.011-.255,1.226-.009,0-.053-.01-.061-.016-.053-.011-.053-.01-.053-.016-.053-.016-.053-.009-.044-.016-.061-.016-.053-.015-.053-.016-.052-.015-.053-.016-.044-.015-.062-.016-.045-.016-.052-.02-.053-.016-.053-.016-.044-.02-.061-.021-.053-.016-.044-.02-.053-.021Zm-2.337-1.334.782-.984.035.031.035.026.035.031.035.031.044.026.035.025.035.026.035.026.036.026.043.031.036.025.034.026.044.026.036.026.035.02.044.026.035.025.035.026.035.026.044.02.044.026.035.026.044.026.035.021.035.02.018,0-.624,1.092-.018-.009-.044-.026-.044-.031-.044-.026-.052-.025-.036-.032-.053-.026-.044-.03-.044-.026-.044-.031-.044-.026-.044-.03-.053-.031-.035-.032-.044-.03-.044-.031-.053-.03-.035-.026-.044-.036-.044-.032-.044-.031-.044-.036-.035-.025-.044-.036-.044-.031Zm-1.819-1.968,1.028-.705.017.022.026.039.026.032.027.041.026.042.026.031.026.038.026.037.027.036.034.037.027.036.026.036.027.036.026.036.035.036.026.036.026.03.036.036.026.036.036.036.026.037.027.03.026.031.035.036.035.037.018.025-.914.851-.026-.03-.035-.036-.035-.036-.035-.041-.035-.047-.044-.036-.026-.041-.035-.042-.035-.036-.035-.047-.035-.041-.026-.036-.035-.043-.035-.041-.035-.045-.035-.041-.026-.041-.035-.041-.026-.042-.035-.047-.036-.047-.026-.041-.026-.04-.035-.047-.026-.041Zm-1.159-2.42,1.2-.366.009.028.018.049.009.041.018.047.017.041.009.044.017.046.018.044.018.041.009.047.018.045.017.039.018.044.018.047.018.041.017.043.018.046.018.04.018.043.018.043.018.045.018.04.026.042.018.041.017.041v.014l-1.125.542-.009-.013-.017-.049-.026-.053-.018-.047-.026-.052-.018-.047-.026-.049-.018-.049-.026-.052-.017-.047-.018-.051-.026-.053-.017-.047-.018-.05-.026-.055-.009-.049-.018-.049-.018-.055-.026-.052-.018-.048-.018-.051-.018-.055-.009-.051-.018-.053-.018-.05Zm-.378-2.654h1.257v.4l.008.053v.138l.009.053.009.049v.094l.01.048v.048l.008.047v.047l.01.047.009.053v.046l.009.041-1.239.172-.009-.049-.009-.055v-.051l-.009-.056-.009-.057-.009-.055v-.057l-.009-.057v-.055l-.009-.056-.009-.056v-.109l-.009-.061v-.223l-.009-.057Zm0-2.506h1.257v1.255h-1.257Zm0-2.5h1.257v1.252h-1.257Zm0-2.505h1.257v1.253h-1.257Zm0-2.506h1.257v1.254h-1.257Zm0-2.505h1.257v1.253h-1.257Zm0-2.505h1.257v1.252h-1.257Zm0-2.506h1.257v1.252h-1.257Zm0-2.506h1.257V863h-1.257Zm.044-2.564,1.248.118v.008l-.01.049v.094l-.009.048-.009.052v.141l-.008.053v.749h-1.257v-.629l.009-.057v-.222l.009-.063v-.108l.009-.057.009-.055v-.057l.009-.056Zm.659-2.6,1.16.491-.009.015-.018.038-.018.047-.017.044-.018.04-.018.047-.018.043-.017.039-.018.046-.009.045-.018.04-.018.044-.017.049-.009.042-.017.042-.018.046-.009.042-.018.049-.017.047-.009.042-.018.049-.008.044-.009.038-.018.046-.009.05v.019l-1.221-.305.009-.03.018-.048.009-.054.018-.058.018-.052.009-.05.017-.054.018-.049.018-.052.018-.052.009-.05.018-.055.018-.053.018-.047.026-.051.018-.056L839.6,857l.009-.049.026-.055.018-.049.017-.049.026-.053.018-.049.017-.047.026-.053Zm1.423-2.279.949.81-.017.027-.036.034-.026.034-.026.036-.035.036-.026.037-.027.036-.026.034-.027.037-.034.039-.027.032-.026.04-.026.037-.026.032-.026.041-.027.04-.026.034-.026.038-.026.039-.026.035-.017.04-.035.039-.017.038-.026.039-.026.038-.009.022-1.072-.655.017-.028.036-.047.026-.044.027-.047.026-.044.035-.042.026-.048.035-.043.026-.043.035-.048.026-.039.026-.041.036-.049.035-.042.026-.041.035-.046.026-.039.035-.04.035-.044.035-.041.035-.042.026-.041.035-.041.035-.044.035-.038Zm2.021-1.758.677,1.057-.018.008-.035.025-.035.025-.044.027-.035.026-.036.023-.044.027-.034.026-.036.024-.043.029-.036.028-.035.024-.035.029-.035.027-.044.024-.035.032-.035.029-.035.026-.035.03-.035.029-.035.028-.035.028-.035.028-.035.03-.035.031-.044.03-.809-.948.036-.032.034-.034.044-.035.044-.035.044-.034.035-.032.044-.032.044-.035.044-.033.044-.032.035-.029.044-.035.044-.031.044-.032.044-.034.035-.028.053-.03.044-.032.044-.029.035-.03.053-.031.044-.028.044-.029.044-.03.044-.027Zm2.469-1.076.307,1.213-.009,0-.035.012-.044.01-.044.014-.053.013-.035.012-.053.014-.053.014-.035.014-.053.013-.035.015-.044.014-.053.017-.035.014-.044.015-.044.018-.052.016-.035.016-.045.016-.043.019-.035.016-.053.018-.043.018-.036.017-.044.019-.026.012-.5-1.148.026-.012.053-.022.053-.023.044-.018.053-.021.053-.02.044-.02.053-.018.053-.022.044-.016.053-.019.061-.02.044-.018.053-.016.053-.018.052-.017.045-.017.062-.018.044-.013.053-.017.052-.017.053-.013.053-.016.061-.018.044-.013Zm2.24-.291h1.257m0,0v1.253h-1.257v-1.253h-.053l-.061,0h-.105l-.061,0-.053,0-.053,0-.061,0-.062,0-.053,0-.053,0-.053,0-.062.005-.052,0-.061.007-.053.005h-.027l.141,1.246.009,0,.053,0,.053-.005.044,0,.044,0,.044,0,.053,0,.053,0h.044l.053,0,.053,0,.044,0h.053l.044,0h.141" transform="translate(-123.279 -168.533)" fill="#fff"/>
    <path id="Path_50682" data-name="Path 50682" d="M645.386,555.8v.71h-1.417v-.71Zm2.129,0v.71H646.1v-.71Zm2.133,0v.71h-1.423v-.71Zm2.129,0v.71h-1.418v-.71Zm2.133,0v.71h-1.423v-.71Zm2.128,0v.71h-1.417v-.71Zm2.133,0v.71H656.75v-.71Zm2.129,0v.71h-1.422v-.71Zm2.129,0v.71h-1.417v-.71Zm2.133,0v.71H663.14v-.71Zm2.129,0v.71h-1.423v-.71Zm2.128,0v.71H667.4v-.71Zm2.134,0v.71h-1.422v-.71Zm2.129,0v.71h-1.417v-.71Zm2.134,0v.71h-1.423v-.71Zm2.127,0v.71h-1.422v-.71Zm2.129,0v.71h-1.417v-.71Zm2.133,0v.71h-1.422v-.71Zm2.128,0v.71h-1.417v-.71Zm2.129,0v.71h-1.417v-.71Zm2.134,0v.71h-1.423v-.71Zm2.127,0v.71h-1.417v-.71Zm2.134,0v.71h-1.422v-.71Zm2.129,0v.71h-1.417v-.71Zm2.134,0v.71H695.1v-.71Zm2.129,0v.71h-1.423v-.71Zm2.127,0v.71H699.36v-.71Zm2.134,0v.71H701.49v-.71Zm2.128,0v.71h-1.417v-.71Zm2.134,0v.71h-1.422v-.71Zm2.128,0v.71H707.88v-.71Zm2.129,0v.71h-1.419v-.71Zm2.133,0v.71h-1.423v-.71Zm2.128,0v.71h-1.421v-.71Zm2.129,0v.71H716.4v-.71Zm2.133,0v.71h-1.423v-.71Zm2.129,0v.71h-1.417v-.71Zm2.129,0v.71h-1.418v-.71Zm2.133,0v.71h-1.417v-.71Zm2.128,0v.71h-1.417v-.71Zm2.134,0v.71h-1.422v-.71Zm2.129,0v.71h-1.415v-.71Zm2.135,0v.71h-1.423v-.71Zm2.126,0v.71h-1.423v-.71Zm2.126,0v.71H737.71v-.71Zm2.136,0v.71h-1.423v-.71Zm2.126,0v.71h-1.415v-.71Zm2.135,0v.71H744.1v-.71Zm2.127,0v.71h-1.415v-.71Zm2.135,0v.71h-1.423v-.71Zm2.135,0v.71h-1.423v-.71Zm2.127,0v.71h-1.423v-.71Zm2.126,0v.71h-1.415v-.71Zm2.135,0v.71h-1.423v-.71Zm2.127,0v.71h-1.415v-.71Zm2.135,0v.71h-1.424v-.71Zm2.126,0v.71h-1.415v-.71Zm2.127,0v.71H765.4v-.71Zm2.135,0v.71h-1.424v-.71Zm2.135,0v.71h-1.423v-.71Zm2.127,0v.71h-1.423v-.71Zm2.135,0v.71h-1.423v-.71Zm2.126,0v.71h-1.415v-.71Zm2.135,0v.71h-1.424v-.71Zm2.126,0v.71h-1.415v-.71Zm2.126,0v.71H782.45v-.71Zm2.136,0v.71h-1.423v-.71Zm1.819,1.023h-.712v-.313h-.4v-.71h1.107Zm0,2.131h-.712v-1.421h.712Zm0,2.131h-.712v-1.421h.712Zm0,2.131h-.712V561.8h.712Zm0,2.129h-.712v-1.421h.712Zm0,2.131h-.712V566.06h.712Zm0,2.131h-.712V568.19h.712Zm0,2.129h-.712V570.32h.712Zm0,2.131h-.712V572.45h.712Zm0,2.13h-.712v-1.42h.712Zm0,2.132h-.712v-1.422h.712Zm0,2.13h-.712v-1.421h.712Zm0,2.13h-.712v-1.421h.712Zm0,2.131h-.712V583.1h.712Zm0,2.131h-.712v-1.42h.712Zm0,2.131h-.712v-1.421h.712Zm0,2.13h-.712v-1.421h.712Zm0,2.13h-.712v-1.421h.712Zm0,2.131h-.712v-1.419h.712Zm0,2.129h-.712v-1.419h.712Zm0,2.131h-.712v-1.419h.712Zm0,2.131h-.712v-1.419h.712Zm0,2.131h-.712v-1.42h.712Zm0,2.131h-.712v-1.42h.712Zm0,2.129h-.712V606.54h.712Zm0,2.131h-.712v-1.42h.712Zm0,2.131h-.712V610.8h.712Zm0,2.131h-.712v-1.422h.712Zm0,2.13h-.712v-1.42h.712Zm0,2.131h-.712v-1.421h.712Zm0,2.131h-.712v-1.421h.712Zm0,2.13h-.712v-1.421h.712Zm0,2.131h-.712v-1.422h.712Zm0,2.129h-.712v-1.421h.712Zm0,2.13h-.712v-1.42h.712Zm0,2.131h-.712v-1.421h.712Zm0,2.131h-.712v-1.421h.712Zm0,2.131h-.712v-1.421h.712Zm0,2.13h-.712v-1.421h.712Zm0,2.13h-.712V638.5h.712Zm0,2.131h-.712v-1.42h.712Zm0,2.129h-.712v-1.419h.712Zm0,2.131h-.712v-1.419h.712Zm0,2.13h-.712V647.02h.712Zm0,2.131h-.712v-1.42h.712Zm0,2.129h-.712V651.28h.712Zm0,2.131h-.712v-1.42h.712Zm0,2.131h-.712v-1.42h.712Zm0,2.129h-.712v-1.419h.712Zm0,2.132h-.712V659.8h.712Zm0,2.13h-.712v-1.421h.712Zm0,2.131h-.712v-1.421h.712Zm0,2.13h-.712v-1.42h.712Zm0,2.13h-.712v-1.421h.712Zm0,2.131h-.712v-1.421h.712Zm0,2.13h-.712v-1.421h.712Zm0,2.131h-.712v-1.421h.712Zm-2.408.43v-.711h1.423v.711Zm-2.135,0v-.711H784.7v.711Zm-2.127,0v-.711h1.415v.711Zm-2.135,0v-.711h1.424v.711Zm-2.126,0v-.711H778.3v.711Zm-2.135,0v-.711h1.423v.711Zm-2.126,0v-.711h1.415v.711Zm-2.135,0v-.711h1.424v.711Zm-2.126,0v-.711h1.414v.711Zm-2.136,0v-.711h1.423v.711Zm-2.126,0v-.711h1.423v.711Zm-2.135,0v-.711h1.424v.711Zm-2.127,0v-.711h1.423v.711Zm-2.135,0v-.711h1.423v.711Zm-2.126,0v-.711H757v.711Zm-2.135,0v-.711h1.423v.711Zm-2.126,0v-.711h1.415v.711Zm-2.135,0v-.711h1.423v.711Zm-2.127,0v-.711h1.415v.711Zm-2.135,0v-.711h1.423v.711Zm-2.126,0v-.711h1.423v.711Zm-2.127,0v-.711h1.415v.711Zm-2.135,0v-.711h1.423v.711Zm-2.126,0v-.711h1.415v.711Zm-2.135,0v-.711H735.7v.711Zm-2.135,0v-.711h1.423v.711Zm-2.125,0v-.711h1.422v.711Zm-2.128,0v-.711H729.3v.711Zm-2.134,0v-.711h1.423v.711Zm-2.127,0v-.711h1.417v.711Zm-2.135,0v-.711h1.423v.711Zm-2.128,0v-.711h1.417v.711Zm-2.134,0v-.711h1.422v.711Zm-2.129,0v-.711h1.423v.711Zm-2.127,0v-.711h1.416v.711Zm-2.134,0v-.711h1.422v.711Zm-2.129,0v-.711h1.423v.711Zm-2.128,0v-.711H708v.711Zm-2.133,0v-.711h1.421v.711Zm-2.129,0v-.711h1.417v.711Zm-2.133,0v-.711h1.422v.711Zm-2.129,0v-.711h1.417v.711Zm-2.129,0v-.711h1.418v.711Zm-2.133,0v-.711h1.422v.711Zm-2.128,0v-.711h1.417v.711Zm-2.133,0v-.711h1.421v.711Zm-2.129,0v-.711h1.422v.711Zm-2.129,0v-.711h1.418v.711Zm-2.133,0v-.711h1.422v.711Zm-2.129,0v-.711h1.422v.711Zm-2.128,0v-.711H680.3v.711Zm-2.133,0v-.711h1.421v.711Zm-2.129,0v-.711h1.417v.711Zm-2.133,0v-.711h1.422v.711Zm-2.129,0v-.711h1.417v.711Zm-2.133,0v-.711h1.423v.711Zm-2.129,0v-.711h1.422v.711Zm-2.128,0v-.711h1.417v.711Zm-2.134,0v-.711h1.422v.711Zm-2.128,0v-.711h1.422v.711Zm-2.129,0v-.711H659v.711Zm-2.133,0v-.711h1.423v.711Zm-2.128,0v-.711h1.421v.711Zm-2.134,0v-.711h1.423v.711Zm-2.129,0v-.711h1.423v.711Zm-2.128,0v-.711h1.417v.711Zm-2.134,0v-.711h1.421v.711Zm-2.129,0v-.711h1.417v.711Zm-1.186-1.659h.712v1.3h-.237v.354h-.475Zm0-2.131h.712V674.2h-.712Zm0-2.129h.712v1.419h-.712Zm0-2.131h.712v1.42h-.712Zm0-2.129h.712V667.8h-.712Zm0-2.131h.712v1.421h-.712Zm0-2.13h.712v1.422h-.712Zm0-2.13h.712v1.419h-.712Zm0-2.131h.712v1.419h-.712Zm0-2.13h.712v1.419h-.712Zm0-2.131h.712v1.42h-.712Zm0-2.13h.712v1.419h-.712Zm0-2.13h.712v1.42h-.712Zm0-2.132h.712v1.421h-.712Zm0-2.131h.712V646.5h-.712Zm0-2.131h.712v1.421h-.712Zm0-2.129h.712v1.421h-.712Zm0-2.131h.712v1.421h-.712Zm0-2.13h.712v1.42h-.712Zm0-2.132h.712v1.423h-.712Zm0-2.129h.712v1.421h-.712Zm0-2.132h.712v1.421h-.712Zm0-2.131h.712v1.421h-.712Zm0-2.131h.712v1.421h-.712Zm0-2.13h.712V625.2h-.712Zm0-2.129h.712v1.42h-.712Zm0-2.131h.712v1.42h-.712Zm0-2.131h.712V618.8h-.712Zm0-2.13h.712v1.421h-.712Zm0-2.131h.712v1.419h-.712Zm0-2.13h.712v1.42h-.712Zm0-2.13h.712v1.419h-.712Zm0-2.13h.712v1.419h-.712Zm0-2.131h.712v1.419h-.712Zm0-2.131h.712v1.419h-.712Zm0-2.13h.712v1.42h-.712Zm0-2.13h.712v1.419h-.712Zm0-2.13h.712V597.5h-.712Zm0-2.132h.712v1.421h-.712Zm0-2.131h.712v1.421h-.712Zm0-2.129h.712v1.42h-.712Zm0-2.131h.712v1.421h-.712Zm0-2.13h.712v1.42h-.712Zm0-2.131h.712v1.42h-.712Zm0-2.131h.712v1.421h-.712Zm0-2.131h.712v1.423h-.712Zm0-2.13h.712v1.421h-.712Zm0-2.13h.712v1.42h-.712Zm0-2.131h.712v1.42h-.712Zm0-2.131h.712v1.421h-.712Zm0-2.131h.712V569.8h-.712Zm0-2.129h.712v1.421h-.712Zm0-2.131h.712v1.42h-.712Zm0-2.131h.712v1.419h-.712Zm0-2.129h.712v1.419h-.712Zm0-2.131h.712v1.419h-.712Zm1.779-1.927v.71h-1.067v.506h-.712V555.8Z" transform="translate(-59.183 -72.709)" fill="#fff"/>
    <g id="Group_69919" data-name="Group 69919" transform="translate(623.577 513.784)">
      <g id="Group_69918" data-name="Group 69918" transform="translate(0)" clip-path="url(#clip-path-7)">
        <rect id="Rectangle_27659" data-name="Rectangle 27659" width="62.699" height="54.446" transform="translate(0 0)" fill="url(#linear-gradient-7)"/>
      </g>
    </g>
    <path id="Path_50684" data-name="Path 50684" d="M554.277,838.106h24.635a4.381,4.381,0,0,1,4.37,4.371v25.828a4.382,4.382,0,0,1-4.37,4.371H554.277a4.385,4.385,0,0,1-4.37-4.371V842.477a4.384,4.384,0,0,1,4.37-4.371" transform="translate(-29.476 -164.293)" fill="#99d2fb" fill-rule="evenodd"/>
    <path id="Path_50685" data-name="Path 50685" d="M614.908,838.106h24.635a4.381,4.381,0,0,1,4.37,4.371v25.828a4.382,4.382,0,0,1-4.37,4.371H614.908a4.385,4.385,0,0,1-4.37-4.371V842.477a4.384,4.384,0,0,1,4.37-4.371" transform="translate(-49.146 -164.293)" fill="#99d2fb" fill-rule="evenodd"/>
    <path id="Path_50686" data-name="Path 50686" d="M675.539,838.106h24.635a4.381,4.381,0,0,1,4.37,4.371v25.828a4.382,4.382,0,0,1-4.37,4.371H675.539a4.386,4.386,0,0,1-4.37-4.371V842.477a4.385,4.385,0,0,1,4.37-4.371" transform="translate(-68.815 -164.293)" fill="#99d2fb" fill-rule="evenodd"/>
    <path id="Path_50687" data-name="Path 50687" d="M736.171,838.106h24.638a4.377,4.377,0,0,1,4.366,4.371v25.828a4.378,4.378,0,0,1-4.366,4.371H736.171a4.385,4.385,0,0,1-4.37-4.371V842.477a4.384,4.384,0,0,1,4.37-4.371" transform="translate(-88.485 -164.293)" fill="#99d2fb" fill-rule="evenodd"/>
    <rect id="Rectangle_27660" data-name="Rectangle 27660" width="52.939" height="3.593" transform="translate(520.008 717.581)" fill="#b7e3ff"/>
    <rect id="Rectangle_27661" data-name="Rectangle 27661" width="52.944" height="3.593" transform="translate(578.503 717.581)" fill="#b7e3ff"/>
    <rect id="Rectangle_27662" data-name="Rectangle 27662" width="38.874" height="3.593" transform="translate(637.817 717.581)" fill="#fff"/>
    <rect id="Rectangle_27663" data-name="Rectangle 27663" width="77.368" height="3.592" transform="translate(520.008 727.713)" fill="#fff"/>
    <rect id="Rectangle_27664" data-name="Rectangle 27664" width="28.516" height="3.592" transform="translate(602.931 727.713)" fill="#b7e3ff"/>
    <rect id="Rectangle_27665" data-name="Rectangle 27665" width="38.874" height="3.592" transform="translate(637.817 727.713)" fill="#b7e3ff"/>
    <path id="Path_50688" data-name="Path 50688" d="M570.327,849.074l9.586,19.166H560.747Z" transform="translate(-32.992 -167.851)" fill="#ee8100" fill-rule="evenodd"/>
    <path id="Path_50689" data-name="Path 50689" d="M632,852.607a7.7,7.7,0,1,1-7.7,7.7,7.7,7.7,0,0,1,7.7-7.7" transform="translate(-53.61 -168.997)" fill="#d30b6f" fill-rule="evenodd"/>
    <path id="Path_50690" data-name="Path 50690" d="M692.114,851.812l2.6,5.057,5.613.9-4.009,4.03.871,5.616-5.071-2.566-5.071,2.566.876-5.616-4.009-4.03,5.612-.9Z" transform="translate(-72.949 -168.739)" fill="#3d7dda" fill-rule="evenodd"/>
    <rect id="Rectangle_27666" data-name="Rectangle 27666" width="12.025" height="12.025" transform="matrix(0.707, -0.707, 0.707, 0.707, 651.501, 691.099)" fill="#ee8100"/>
    <path id="Path_50691" data-name="Path 50691" d="M1095.349,972.166c-2.618,19.058,10.192,24.939-2.346,42.56,0,0-7.679-8.452-10.965-9.049s-3.726-10.936-3.726-11.467,2.917-21.146,2.917-21.146Z" transform="translate(-200.899 -207.784)" fill="#092978" fill-rule="evenodd"/>
    <path id="Path_50692" data-name="Path 50692" d="M1107.939,1145.221l17.775,5.329a13.573,13.573,0,0,1,2.495,4.483c.5,2.1,1.388,3.026,2.706,3.113,2.408.155,3.427-15.43,3.8-17.889l-20.253-5.694Z" transform="translate(-210.51 -260.468)" fill="#f3b0b0" fill-rule="evenodd"/>
    <path id="Path_50693" data-name="Path 50693" d="M1072.209,1011.676h-29.882c-3.735,0-12.916,7.059-14.524,16.264h-.009c-3.031,14.817-1.688,47.414,8.8,59.041l11.9-.155,36.437-9.034v-61.511a19.83,19.83,0,0,0-12.723-4.606" transform="translate(-184.05 -220.602)" fill="#009fe7" fill-rule="evenodd"/>
    <path id="Path_50694" data-name="Path 50694" d="M1042.326,1011.82c-14.762,1.448-16.132,19.986-15.938,31.561h15.92Z" transform="translate(-184.049 -220.648)" fill="#009fe7" fill-rule="evenodd"/>
    <path id="Path_50695" data-name="Path 50695" d="M1077.066,1010.857c3.383,5.787-.307,9.9-3.638,11.75-4.7-3.046-8.917-6.02-8.917-11.75,0,0-4.622-1.66-5.668.907,9.753,25.3,6.933,57.376,6.933,57.376,6.773-.211,24.839-3.231,24.988-2.7.729-6.169.641-46.171-11.071-55.479Z" transform="translate(-194.583 -220.165)" fill="#fff" fill-rule="evenodd"/>
    <path id="Path_50696" data-name="Path 50696" d="M1040.884,1058.65l-14.489-.113c-.018,8.756,14.242,28.958,31.147,28.958h21.1s-4.49-5.751-10.4-6.23-6.142.335-6.142.335c-3.268.114-18.285-8.627-21.219-22.95" transform="translate(-184.056 -235.804)" fill="#f3b0b0" fill-rule="evenodd"/>
    <path id="Path_50697" data-name="Path 50697" d="M1108.04,1101.4H1044.9a11.4,11.4,0,0,0-2.1.2c-17.028,0-17.344,10.555-18.618,22.486h83.856a11.341,11.341,0,0,0,0-22.682" transform="translate(-183.339 -249.71)" fill="#092978" fill-rule="evenodd"/>
    <path id="Path_50698" data-name="Path 50698" d="M1117.257,1102.482c-2.539-.577-5.334-1.473-8.339-1.086-9.349,1.215-65.018,18.053-65.018,18.053l9.823,11.38c11.466-.722,57.463,3.349,66.222-2.665,9.129-6.267,11.22-22.51-2.688-25.681" transform="translate(-189.735 -249.678)" fill="#092978" fill-rule="evenodd"/>
    <path id="Path_50699" data-name="Path 50699" d="M1086.54,986.146c1.2,4.406-4.287,11.859-8.153,11.653l.008,1.767.009.022c3.365,5.772-.315,9.869-3.646,11.724-4.683-3.035-8.891-6-8.918-11.7v-6.658c-.326-.1-.343.484-1,.082a7.4,7.4,0,0,1-1.863-4.932c.264-1.541,2.24-2.417,2.24-2.417-1.854-4.566-3.33-5.288,1.45-7.823s14.418-2.35,14.418-2.35l4.376,1.469c.193,4.241-.088,4.89,1.08,9.163" transform="translate(-195.913 -208.869)" fill="#f3b0b0" fill-rule="evenodd"/>
    <path id="Path_50700" data-name="Path 50700" d="M1082.93,1007.73a7.565,7.565,0,0,1-.966-.026,22.579,22.579,0,0,1-8-1.644,8.406,8.406,0,0,0,4.367,4.679,16.6,16.6,0,0,0,4.771,1.464,10.11,10.11,0,0,0-1.125-2.705l-.009-.022-.008-1.773Z" transform="translate(-199.49 -218.78)" fill="#ec8c8e" fill-rule="evenodd"/>
    <path id="Path_50701" data-name="Path 50701" d="M1112.384,1018.113c8.11,7.241,12.828,17.239,15.719,27.727-5.325-.349-10.886-.324-16.159-.495Z" transform="translate(-211.81 -222.69)" fill="#009fe7" fill-rule="evenodd"/>
    <path id="Path_50702" data-name="Path 50702" d="M1090.591,1052.93h41.436c1.6,0,3.26,1.35,2.908,2.906l-6.194,27.392c-.351,1.556-1.309,2.906-2.908,2.906H1084.4c-1.6,0-3.259-1.351-2.908-2.906l6.194-27.392c.352-1.556,1.3-2.906,2.908-2.906" transform="translate(-201.914 -233.985)" fill="#81b8d7" fill-rule="evenodd"/>
    <path id="Path_50703" data-name="Path 50703" d="M1123.53,1073.434a2.908,2.908,0,1,1-3.146,1.99,2.652,2.652,0,0,1,3.146-1.99" transform="translate(-214.495 -240.605)" fill="#fff" fill-rule="evenodd"/>
    <path id="Path_50704" data-name="Path 50704" d="M1051.756,1098.06H1072.8v2.716h-22.4v-1.36a1.359,1.359,0,0,1,1.353-1.356" transform="translate(-191.845 -248.626)" fill="#81b8d7" fill-rule="evenodd"/>
    <path id="Path_50705" data-name="Path 50705" d="M1035.393,1102.342c9.428.453,57.981,18.874,57.981,18.874l-5.122,17.506c-7.17-.875-57.946-7.6-61.8-9.807-16.325-9.359-4.718-27.8,8.945-26.573" transform="translate(-181.483 -249.996)" fill="#092978" fill-rule="evenodd"/>
    <path id="Path_50706" data-name="Path 50706" d="M1058.016,971.889s8.382,1.921,14.761.381c8.066-1.943,4.867-10.905-.255-14.529-7.706-5.442-21.316-3.252-25.709,5.984-5.649,11.9-5.034,14.749-17.318,21.155-4.709,2.458-11.387,8.312-11.984,16.59-.079.985,2.188.047,5.254-.736-3.576,4.581.43,12.569,1.186,13.523,1.213-21.011,22.747-20.5,27.254-21.031.212-2.547,1.2-4.217,1.2-5.809,0,0-2.442-1.665-2.293-4.273.167-2.608.51-1.865.809-1.8a20.089,20.089,0,0,1,2,1.057c.606-3.387.466-10.138,5.087-10.509" transform="translate(-181.174 -202.151)" fill="#092978" fill-rule="evenodd"/>
    <path id="Path_50707" data-name="Path 50707" d="M957.578,382.358h26.06c3.26,0,11.273,6.16,12.679,14.195,2.654,12.922,1.467,41.365-7.679,51.507l-10.385-.136-31.789-7.881V386.378a17.324,17.324,0,0,1,11.115-4.02" transform="translate(-158.125 -16.441)" fill="#76c4fa" fill-rule="evenodd"/>
    <path id="Path_50708" data-name="Path 50708" d="M1001.489,382.483c12.881,1.264,14.076,17.439,13.909,27.539h-13.891Z" transform="translate(-175.976 -16.481)" fill="#76c4fa" fill-rule="evenodd"/>
    <path id="Path_50709" data-name="Path 50709" d="M987.553,423.344l12.635-.1c-4.991,13.653-14.533,25.265-27.176,25.265H954.6s3.91-5.016,9.068-5.435,5.359.292,5.359.292c4.314-2.271,14.287-9.953,18.522-20.024" transform="translate(-160.766 -29.705)" fill="#f6cbce" fill-rule="evenodd"/>
    <path id="Path_50710" data-name="Path 50710" d="M1022.094,576.566l1.257,9.068,3.242,3s2.53-.12,2.82.761a8.247,8.247,0,0,1,0,2.751h-16.58a74.81,74.81,0,0,1-1.915-15.056Z" transform="translate(-179.035 -79.445)" fill="#630"/>
    <path id="Path_50711" data-name="Path 50711" d="M910.954,460.643h55.09a9.846,9.846,0,0,1,1.828.17c15.385-.079,17.291,9.876,18.373,20.727l6.2,62.341H971.571l-6.889-63.451H910.954a9.894,9.894,0,0,1,0-19.787" transform="translate(-143.396 -41.838)" fill="#092978" fill-rule="evenodd"/>
    <path id="Path_50712" data-name="Path 50712" d="M937.983,544.024l7.565,16.935a13.7,13.7,0,0,1-1.766,4.811c-1.265,1.746-1.388,3.024-.6,4.074s1,1.314,1,1.314l12.854-13.41L950.3,542Z" transform="translate(-155.374 -68.231)" fill="#630"/>
    <path id="Path_50713" data-name="Path 50713" d="M916.316,464.212a13.561,13.561,0,0,1,5.466,4.893c4.524,6.875,25.111,53.248,25.111,53.248H923.23L906,484.569c-.712-1.573-4.27-8.127-4.6-11.108-1.055-9.6,6.915-12.916,14.91-9.249" transform="translate(-143.477 -42.523)" fill="#092978" fill-rule="evenodd"/>
    <path id="Path_50714" data-name="Path 50714" d="M958.447,359.1c-2.733,4.865,1.959,11.648,7.714,11.154l-.009,1.544-3.146,4.478,3.093,4.6,3.225,1.171,7.785-2V366.028c.281-.088.29.424.869.071a6.474,6.474,0,0,0,1.625-4.3c-.228-1.343-1.951-2.113-1.951-2.113,1.617-3.98,2.891-4.612-1.274-6.825s-12.582-2.046-12.582-2.046l-3.813,1.28c-.167,3.7.351,3.63-1.538,7" transform="translate(-161.753 -6.206)" fill="#f6cbce" fill-rule="evenodd"/>
    <path id="Path_50715" data-name="Path 50715" d="M968.579,378.917a7.224,7.224,0,0,0,.844-.021,19.8,19.8,0,0,0,6.976-1.435,7.358,7.358,0,0,1-3.822,4.081,12.512,12.512,0,0,1-4.876,1.334l1.713-2.435.009-1.544Z" transform="translate(-165.015 -14.852)" fill="#dc7577" fill-rule="evenodd"/>
    <path id="Path_50716" data-name="Path 50716" d="M959.9,347.1c3.216.535,5.816.074,7.784.312a5.684,5.684,0,0,1,2.838,1.351c1.845,1.489,3.277,5.172,3.69,7.612,0,0,2.153-.9,2.856-.455s.255,1.522.158,1.97c-.114.447-1.107.924-1.423,1.2-.957.828,1.3,1.181,3.963-.967,8.1-6.542,3.927-18.448-6.1-21.858-4.868-1.659-4.3-3.619-7.653-4.327-12.169-2.372-15.639,12.148-6.115,15.159" transform="translate(-160.71 0)" fill="#092978" fill-rule="evenodd"/>
    <path id="Path_50717" data-name="Path 50717" d="M940.293,387.979c-7.081,6.313-11.194,15.037-13.716,24.189,4.64-.3,9.49-.282,14.085-.431Z" transform="translate(-151.674 -18.264)" fill="#76c4fa" fill-rule="evenodd"/>
    <path id="Path_50718" data-name="Path 50718" d="M971.475,399.958a.853.853,0,1,1-.853.853.85.85,0,0,1,.853-.853m0-4.946a.852.852,0,1,1-.853.853A.85.85,0,0,1,971.475,395.012Zm-3.286-13.147c-2.952,5.049.263,8.633,3.172,10.254,4.095-2.659,7.785-5.251,7.785-10.254,0,0,1.405-.026,2.328,2.219,1.511,3.632-1.028,11.792-1.028,11.792s-2.846-3.682-5.21-3.88a8.327,8.327,0,0,0-3.9.516c-3.023-2.221-5.087.656-7.117,2.764-.632-5.38-.553-9.247,3.471-13.411Z" transform="translate(-163.79 -16.281)" fill="#fff" fill-rule="evenodd"/>
    <path id="Path_50719" data-name="Path 50719" d="M945.244,413.724H905.381c-1.538,0-3.128,1.3-2.794,2.8l5.957,26.346c.342,1.5,1.257,2.8,2.794,2.8H951.2c1.538,0,3.137-1.3,2.794-2.8l-5.957-26.346c-.334-1.5-1.257-2.8-2.794-2.8" transform="translate(-143.876 -26.616)" fill="#4894d0" fill-rule="evenodd"/>
    <path id="Path_50720" data-name="Path 50720" d="M942.6,413.724H902.74c-1.538,0-3.137,1.3-2.794,2.8l5.957,26.346c.334,1.5,1.257,2.8,2.794,2.8h39.864c1.538,0,3.137-1.3,2.794-2.8L945.4,416.52c-.334-1.5-1.256-2.8-2.794-2.8" transform="translate(-143.019 -26.616)" fill="#fff" fill-rule="evenodd"/>
    <path id="Path_50721" data-name="Path 50721" d="M936.044,433.441a2.8,2.8,0,1,0,3.031,1.917,2.559,2.559,0,0,0-3.031-1.917" transform="translate(-154.261 -32.983)" fill="#009fe7" fill-rule="evenodd"/>
    <path id="Path_50722" data-name="Path 50722" d="M996.983,457.134H976.739v2.611h21.544v-1.306a1.3,1.3,0,0,0-1.3-1.305" transform="translate(-167.947 -40.699)" fill="#4894d0" fill-rule="evenodd"/>
  </g>
</svg>
