<svg xmlns="http://www.w3.org/2000/svg" width="49.252" height="42.369" viewBox="0 0 49.252 42.369">
  <g id="Group_55642" data-name="Group 55642" transform="translate(-483.015 -187.325)">
    <g id="Group_55641" data-name="Group 55641" transform="translate(483 184)">
      <path id="Path_37626" data-name="Path 37626" d="M532.375,211.205c-.945,1.364-1.707,2.838-2.538,4.269q-10.883,18.752-21.743,37.517c-.346.6-.344.6-.69,0q-11.964-20.649-23.931-41.3c-.1-.172-.159-.38-.35-.49v-.123l9.863.021c.407.711.811,1.423,1.222,2.132q3.45,5.955,6.9,11.908,3.188,5.5,6.371,11.009c.2.349.338.35.537,0,.751-1.316,1.516-2.625,2.276-3.936q3.728-6.433,7.455-12.865,2.385-4.121,4.763-8.247l9.863-.021Z" transform="translate(-483.108 -207.745)" fill="#41b783"/>
      <path id="Path_37628" data-name="Path 37628" d="M563.175,211.018c2.911-.007,5.823-.006,8.734-.031.374,0,.484.211.63.463q2.505,4.328,5.018,8.652c.109.188.228.37.347.564a1.275,1.275,0,0,0,.415-.565c1.666-2.864,3.334-5.727,4.983-8.6a.846.846,0,0,1,.852-.514c2.85.03,5.7.026,8.549.033q-2.381,4.123-4.763,8.247-3.725,6.434-7.455,12.865c-.76,1.311-1.525,2.62-2.276,3.936-.2.35-.335.35-.537,0q-3.179-5.508-6.371-11.009-3.45-5.955-6.9-11.908C563.986,212.442,563.582,211.729,563.175,211.018Z" transform="translate(-553.297 -207.66)" fill="#35495e"/>
    </g>
  </g>
</svg>
