<svg xmlns="http://www.w3.org/2000/svg" xmlns:xlink="http://www.w3.org/1999/xlink" width="497.532" height="382.196" viewBox="0 0 497.532 382.196">
  <defs>
    <radialGradient id="radial-gradient" cx="0.5" cy="0.5" r="0.464" gradientUnits="objectBoundingBox">
      <stop offset="0" stop-color="#3e84ff"/>
      <stop offset="0.04" stop-color="#002e7c"/>
      <stop offset="0.315" stop-color="#5269ff" stop-opacity="0.616"/>
      <stop offset="0.558" stop-color="#6057ff" stop-opacity="0.353"/>
      <stop offset="0.76" stop-color="#6b4aff" stop-opacity="0.161"/>
      <stop offset="0.913" stop-color="#7142ff" stop-opacity="0.043"/>
      <stop offset="1" stop-color="#7440ff" stop-opacity="0"/>
    </radialGradient>
    <linearGradient id="linear-gradient" x1="0.367" y1="-0.858" x2="0.753" y2="3.077" gradientUnits="objectBoundingBox">
      <stop offset="0" stop-color="#3e84ff"/>
      <stop offset="1" stop-color="#022a5d"/>
    </linearGradient>
    <radialGradient id="radial-gradient-2" cx="0.5" cy="0.5" r="0.5" gradientUnits="objectBoundingBox">
      <stop offset="0" stop-color="#fff"/>
      <stop offset="1"/>
    </radialGradient>
    <linearGradient id="linear-gradient-2" x1="0.5" y1="-4.596" x2="0.5" y2="12.452" gradientUnits="objectBoundingBox">
      <stop offset="0" stop-color="#3e84ff"/>
      <stop offset="1" stop-color="#022d62"/>
    </linearGradient>
    <linearGradient id="linear-gradient-3" x1="3.339" y1="-1.492" x2="-1.336" y2="2.121" gradientUnits="objectBoundingBox">
      <stop offset="0" stop-color="#3e84ff"/>
      <stop offset="1" stop-color="#002e7c"/>
    </linearGradient>
    <linearGradient id="linear-gradient-4" x1="2.018" y1="-0.877" x2="-2.656" y2="2.737" xlink:href="#linear-gradient-3"/>
    <linearGradient id="linear-gradient-5" x1="2.738" y1="-0.952" x2="-2.015" y2="2.132" xlink:href="#linear-gradient-3"/>
    <linearGradient id="linear-gradient-6" x1="0" y1="0.5" x2="1" y2="0.5" xlink:href="#linear-gradient-3"/>
    <linearGradient id="linear-gradient-7" x1="0.503" y1="1.044" x2="0.475" y2="-0.036" xlink:href="#linear-gradient-3"/>
    <linearGradient id="linear-gradient-8" x1="0.611" y1="-0.09" x2="0.518" y2="0.803" gradientUnits="objectBoundingBox">
      <stop offset="0" stop-color="#2b2b2b"/>
      <stop offset="1" stop-color="#111"/>
    </linearGradient>
    <linearGradient id="linear-gradient-9" x1="0.107" y1="1.416" x2="0.758" y2="0.153" gradientUnits="objectBoundingBox">
      <stop offset="0" stop-color="#3e84ff"/>
      <stop offset="1" stop-color="#2e4162"/>
    </linearGradient>
    <linearGradient id="linear-gradient-10" x1="0.781" y1="-0.158" x2="0.2" y2="1.065" gradientUnits="objectBoundingBox">
      <stop offset="0" stop-color="#f78b7c"/>
      <stop offset="1" stop-color="#ffb7a9"/>
    </linearGradient>
    <linearGradient id="linear-gradient-11" x1="0.263" y1="-0.14" x2="0.628" y2="0.844" xlink:href="#linear-gradient-3"/>
    <linearGradient id="linear-gradient-12" x1="0.587" y1="0.134" x2="0.435" y2="0.91" xlink:href="#linear-gradient-10"/>
    <linearGradient id="linear-gradient-13" x1="0.447" y1="0.278" x2="0.554" y2="0.932" xlink:href="#linear-gradient-8"/>
    <linearGradient id="linear-gradient-14" x1="1.171" y1="1.36" x2="0.294" y2="0.395" xlink:href="#linear-gradient-3"/>
    <linearGradient id="linear-gradient-15" x1="0.881" y1="-0.355" x2="0.437" y2="0.904" xlink:href="#linear-gradient-10"/>
    <linearGradient id="linear-gradient-16" x1="0.507" y1="1.177" x2="0.478" y2="0.097" xlink:href="#linear-gradient-3"/>
    <linearGradient id="linear-gradient-17" x1="0.483" y1="-0.344" x2="0.496" y2="0.313" gradientUnits="objectBoundingBox">
      <stop offset="0" stop-color="#6d5bd8"/>
      <stop offset="1" stop-color="#c7cfff"/>
    </linearGradient>
    <linearGradient id="linear-gradient-18" x1="1.432" y1="-0.291" x2="0.094" y2="0.793" xlink:href="#linear-gradient-17"/>
    <linearGradient id="linear-gradient-19" x1="-0.393" y1="-0.137" x2="0.88" y2="0.751" xlink:href="#linear-gradient-17"/>
    <linearGradient id="linear-gradient-20" x1="0.483" y1="-0.353" x2="0.496" y2="0.304" xlink:href="#linear-gradient-17"/>
    <linearGradient id="linear-gradient-21" x1="0.788" y1="3.21" x2="0.297" y2="-1.41" gradientUnits="objectBoundingBox">
      <stop offset="0" stop-color="#3e84ff"/>
      <stop offset="1" stop-color="#022f64"/>
    </linearGradient>
    <linearGradient id="linear-gradient-22" x1="2.068" y1="5.151" x2="-0.685" y2="-3.013" xlink:href="#linear-gradient-3"/>
    <radialGradient id="radial-gradient-3" cx="0.5" cy="0.5" r="0.464" gradientUnits="objectBoundingBox">
      <stop offset="0" stop-color="#3e84ff"/>
      <stop offset="0.04" stop-color="#4080ff" stop-opacity="0.949"/>
      <stop offset="0.315" stop-color="#5269ff" stop-opacity="0.616"/>
      <stop offset="0.558" stop-color="#6057ff" stop-opacity="0.353"/>
      <stop offset="0.76" stop-color="#6b4aff" stop-opacity="0.161"/>
      <stop offset="0.913" stop-color="#7142ff" stop-opacity="0.043"/>
      <stop offset="1" stop-color="#7440ff" stop-opacity="0"/>
    </radialGradient>
    <linearGradient id="linear-gradient-23" x1="0.233" y1="-0.524" x2="0.737" y2="1.409" xlink:href="#linear-gradient-3"/>
    <radialGradient id="radial-gradient-6" cx="-0.269" cy="2.003" r="2.086" gradientUnits="objectBoundingBox">
      <stop offset="0" stop-color="#f0f"/>
      <stop offset="1" stop-color="aqua" stop-opacity="0"/>
    </radialGradient>
    <linearGradient id="linear-gradient-24" x1="1.008" y1="-0.039" x2="0.32" y2="0.792" xlink:href="#linear-gradient-3"/>
    <linearGradient id="linear-gradient-25" x1="0.101" y1="-0.031" x2="0.702" y2="1.199" xlink:href="#linear-gradient-3"/>
  </defs>
  <g id="Group_68867" data-name="Group 68867" transform="translate(-429.655 -105.273)">
    <g id="Group_68834" data-name="Group 68834" transform="translate(505.687 114.55)">
      <g id="Group_68830" data-name="Group 68830" transform="translate(0 245.865)">
        <g id="Group_68828" data-name="Group 68828" transform="translate(14.822 0)">
          <rect id="Rectangle_27516" data-name="Rectangle 27516" width="26.456" height="9.903" transform="translate(56.099 9.903) rotate(180)" opacity="0.25" style="mix-blend-mode: overlay;isolation: isolate"/>
          <rect id="Rectangle_27517" data-name="Rectangle 27517" width="26.456" height="9.903" transform="translate(26.456 9.903) rotate(180)" opacity="0.25" style="mix-blend-mode: overlay;isolation: isolate"/>
        </g>
        <g id="Group_68829" data-name="Group 68829" transform="translate(0 13.942)">
          <rect id="Rectangle_27518" data-name="Rectangle 27518" width="26.456" height="9.903" transform="translate(56.099 9.903) rotate(180)" fill="#fff" opacity="0.25" style="mix-blend-mode: overlay;isolation: isolate"/>
          <rect id="Rectangle_27519" data-name="Rectangle 27519" width="26.456" height="9.903" transform="translate(26.456 9.903) rotate(180)" fill="#fff" opacity="0.25" style="mix-blend-mode: overlay;isolation: isolate"/>
        </g>
      </g>
      <g id="Group_68833" data-name="Group 68833" transform="translate(226.196)">
        <g id="Group_68831" data-name="Group 68831">
          <rect id="Rectangle_27520" data-name="Rectangle 27520" width="26.456" height="9.903" opacity="0.25" style="mix-blend-mode: overlay;isolation: isolate"/>
          <rect id="Rectangle_27521" data-name="Rectangle 27521" width="26.456" height="9.903" transform="translate(29.643)" opacity="0.25" style="mix-blend-mode: overlay;isolation: isolate"/>
        </g>
        <g id="Group_68832" data-name="Group 68832" transform="translate(14.822 13.942)">
          <rect id="Rectangle_27522" data-name="Rectangle 27522" width="26.456" height="9.903" fill="#fff" opacity="0.25" style="mix-blend-mode: overlay;isolation: isolate"/>
          <rect id="Rectangle_27523" data-name="Rectangle 27523" width="26.456" height="9.903" transform="translate(29.643)" fill="#fff" opacity="0.25" style="mix-blend-mode: overlay;isolation: isolate"/>
        </g>
      </g>
    </g>
    <g id="Group_68836" data-name="Group 68836" transform="translate(429.655 194.931)">
      <ellipse id="Ellipse_741" data-name="Ellipse 741" cx="67.024" cy="59.773" rx="67.024" ry="59.773" transform="translate(0 53.065) rotate(-23.32)" fill="url(#radial-gradient)"/>
      <path id="Path_14333" data-name="Path 14333" d="M545.35,189.608V270.36a5.287,5.287,0,0,1-5.285,5.285H437.708a5.281,5.281,0,0,1-5.279-5.285V189.608a5.281,5.281,0,0,1,5.279-5.279H540.065A5.286,5.286,0,0,1,545.35,189.608Z" transform="translate(-429.032 -177.162)" fill="url(#linear-gradient)"/>
      <path id="Path_14334" data-name="Path 14334" d="M478.776,196.481H440.694a2.013,2.013,0,0,1-2.012-2.012h0a2.012,2.012,0,0,1,2.012-2.011h38.081a2.011,2.011,0,0,1,2.011,2.011h0A2.012,2.012,0,0,1,478.776,196.481Z" transform="translate(-427.626 -175.335)" fill="#002a66"/>
      <path id="Path_14335" data-name="Path 14335" d="M478.776,207.6H440.694a2.013,2.013,0,0,1-2.012-2.012h0a2.012,2.012,0,0,1,2.012-2.011h38.081a2.011,2.011,0,0,1,2.011,2.011h0A2.012,2.012,0,0,1,478.776,207.6Z" transform="translate(-427.626 -172.836)" fill="#eef8ff"/>
      <path id="Path_14336" data-name="Path 14336" d="M491.524,218.716h-50.83a2.012,2.012,0,0,1-2.012-2.011h0a2.012,2.012,0,0,1,2.012-2.011h50.83a2.012,2.012,0,0,1,2.012,2.011h0A2.012,2.012,0,0,1,491.524,218.716Z" transform="translate(-427.626 -170.338)" fill="#002a66"/>
      <path id="Path_14337" data-name="Path 14337" d="M491.524,249.86h-50.83a2.012,2.012,0,0,1-2.012-2.011h0a2.013,2.013,0,0,1,2.012-2.012h50.83a2.013,2.013,0,0,1,2.012,2.012h0A2.012,2.012,0,0,1,491.524,249.86Z" transform="translate(-427.626 -163.338)" fill="#002a66"/>
      <path id="Path_14338" data-name="Path 14338" d="M517.1,249.86H491.455a2.012,2.012,0,0,1-2.012-2.011h0a2.013,2.013,0,0,1,2.012-2.012H517.1a2.013,2.013,0,0,1,2.012,2.012h0A2.012,2.012,0,0,1,517.1,249.86Z" transform="translate(-416.217 -163.338)" fill="#eef8ff"/>
      <g id="Group_68835" data-name="Group 68835" transform="translate(38.149 56.721)">
        <path id="Path_14339" data-name="Path 14339" d="M462.8,225.63v5.8a.84.84,0,0,0,.84.84h3.209a.84.84,0,0,0,.84-.84v-5.8a.84.84,0,0,1,.84-.84h.31a.84.84,0,0,1,.84.84v15.754a.84.84,0,0,1-.84.84h-.31a.84.84,0,0,1-.84-.84v-6.467a.84.84,0,0,0-.84-.841h-3.209a.84.84,0,0,0-.84.841v6.467a.84.84,0,0,1-.84.84h-.311a.841.841,0,0,1-.841-.84V225.63a.841.841,0,0,1,.841-.84h.311A.84.84,0,0,1,462.8,225.63Z" transform="translate(-460.803 -224.79)" fill="#fff"/>
        <path id="Path_14340" data-name="Path 14340" d="M471.991,226.576h-1.5a.841.841,0,0,1-.84-.841v-.1a.84.84,0,0,1,.84-.84h6.674a.84.84,0,0,1,.84.84v.1a.841.841,0,0,1-.84.841h-1.5a.84.84,0,0,0-.84.84v13.968a.841.841,0,0,1-.841.84h-.311a.84.84,0,0,1-.84-.84V227.416A.84.84,0,0,0,471.991,226.576Z" transform="translate(-458.815 -224.79)" fill="#fff"/>
        <path id="Path_14341" data-name="Path 14341" d="M488.589,234.723c-.13-2.3-.26-4.862-.181-6.828h-.1c-.389,1.939-.855,4.009-1.4,6.053l-2.147,8.174h-1.268l-2.044-7.838c-.57-2.224-1.085-4.371-1.422-6.388h-.077c0,2.043-.105,4.475-.207,6.958l-.3,6.57a.84.84,0,0,1-.839.8h-.091a.839.839,0,0,1-.839-.889l.935-15.754a.841.841,0,0,1,.839-.791h.7a.841.841,0,0,1,.814.632l1.882,7.335c.594,2.3,1.034,4.01,1.4,6h.077c.336-1.991.724-3.647,1.293-6l1.809-7.328a.84.84,0,0,1,.816-.639h.772a.842.842,0,0,1,.84.792l.911,15.754a.84.84,0,0,1-.839.888h-.171a.841.841,0,0,1-.84-.8Z" transform="translate(-457.011 -224.79)" fill="#fff"/>
        <path id="Path_14342" data-name="Path 14342" d="M491.456,224.79h.311a.84.84,0,0,1,.84.84V239.7a.84.84,0,0,0,.84.84h3.233a.84.84,0,0,1,.84.84h0a.84.84,0,0,1-.84.84h-5.225a.84.84,0,0,1-.84-.84V225.63A.84.84,0,0,1,491.456,224.79Z" transform="translate(-454.102 -224.79)" fill="#fff"/>
      </g>
      <circle id="Ellipse_742" data-name="Ellipse 742" cx="10.795" cy="10.795" r="10.795" transform="translate(89.857 73.715)" fill="url(#radial-gradient-2)" style="mix-blend-mode: color-dodge;isolation: isolate"/>
    </g>
    <g id="Group_68845" data-name="Group 68845" transform="translate(483.759 105.273)">
      <path id="Path_14343" data-name="Path 14343" d="M536.045,189.608v35.664h-57.8a4.418,4.418,0,0,1-4.419-4.419V184.329h56.93A5.286,5.286,0,0,1,536.045,189.608Z" transform="translate(-473.83 -87.505)" opacity="0.25" style="mix-blend-mode: overlay;isolation: isolate"/>
      <path id="Rectangle_27524" data-name="Rectangle 27524" d="M3.032,0H194.719a3.032,3.032,0,0,1,3.032,3.032V8.046a0,0,0,0,1,0,0H0a0,0,0,0,1,0,0V3.032A3.032,3.032,0,0,1,3.032,0Z" transform="translate(7.474)" fill="url(#linear-gradient-2)"/>
      <path id="Path_38811" data-name="Path 38811" d="M0,0H197.751V118.643a3.6,3.6,0,0,1-3.6,3.6H3.6a3.6,3.6,0,0,1-3.6-3.6Z" transform="translate(7.474 8.046)" fill="#91bbff" opacity="0.86"/>
      <g id="Group_68837" data-name="Group 68837" transform="translate(176.85 2.625)">
        <path id="Path_14344" data-name="Path 14344" d="M634.962,108.814a1.4,1.4,0,1,1-1.4-1.4A1.4,1.4,0,0,1,634.962,108.814Z" transform="translate(-615.093 -107.417)" fill="#eef8ff"/>
        <path id="Path_14345" data-name="Path 14345" d="M627.992,108.814a1.4,1.4,0,1,1-1.4-1.4A1.4,1.4,0,0,1,627.992,108.814Z" transform="translate(-616.659 -107.417)" fill="#eef8ff"/>
        <path id="Path_14346" data-name="Path 14346" d="M621.021,108.814a1.4,1.4,0,1,1-1.4-1.4A1.4,1.4,0,0,1,621.021,108.814Z" transform="translate(-618.226 -107.417)" fill="#eef8ff"/>
      </g>
      <path id="Path_14347" data-name="Path 14347" d="M597.8,124.962H496.6a2.012,2.012,0,0,1-2.012-2.011h0a2.013,2.013,0,0,1,2.012-2.012H597.8a2.012,2.012,0,0,1,2.011,2.012h0A2.011,2.011,0,0,1,597.8,124.962Z" transform="translate(-469.165 -101.752)" fill="#fff"/>
      <path id="Path_14348" data-name="Path 14348" d="M597.8,135.322H496.6a2.012,2.012,0,0,1-2.012-2.011h0A2.013,2.013,0,0,1,496.6,131.3H597.8a2.012,2.012,0,0,1,2.011,2.012h0A2.011,2.011,0,0,1,597.8,135.322Z" transform="translate(-469.165 -99.424)" fill="#fff"/>
      <rect id="Rectangle_27526" data-name="Rectangle 27526" width="50.598" height="4.023" rx="1.642" transform="translate(25.423 44.564)" fill="#002a66"/>
      <path id="Path_14349" data-name="Path 14349" d="M597.8,186.71H496.6a2.012,2.012,0,0,1-2.012-2.011h0a2.012,2.012,0,0,1,2.012-2.011H597.8a2.011,2.011,0,0,1,2.011,2.011h0A2.011,2.011,0,0,1,597.8,186.71Z" transform="translate(-469.165 -87.874)" fill="#002a66"/>
      <path id="Path_14350" data-name="Path 14350" d="M543.174,197.07H496.6a2.012,2.012,0,0,1-2.012-2.011h0a2.013,2.013,0,0,1,2.012-2.012h46.575a2.012,2.012,0,0,1,2.011,2.012h0A2.011,2.011,0,0,1,543.174,197.07Z" transform="translate(-469.165 -85.546)" fill="#002a66"/>
      <g id="Group_68838" data-name="Group 68838" transform="translate(152.732 31.573)">
        <path id="Path_14351" data-name="Path 14351" d="M615.547,131.052a17.014,17.014,0,1,0,17.014,17.014A17.033,17.033,0,0,0,615.547,131.052Zm0,31.139a14.126,14.126,0,1,1,14.126-14.125A14.142,14.142,0,0,1,615.547,162.191Z" transform="translate(-598.534 -131.052)" fill="#002a66"/>
        <path id="Path_14352" data-name="Path 14352" d="M621.1,148.133a10,10,0,0,1-14.125,0,1.021,1.021,0,0,0-1.445,1.444,12.046,12.046,0,0,0,17.014,0,1.021,1.021,0,0,0-1.444-1.444Z" transform="translate(-597.028 -127.28)" fill="#002a66"/>
        <path id="Path_14353" data-name="Path 14353" d="M607.747,144.808a1.7,1.7,0,1,0-1.7-1.7A1.7,1.7,0,0,0,607.747,144.808Z" transform="translate(-596.846 -128.725)" fill="#002a66"/>
        <path id="Path_14354" data-name="Path 14354" d="M617.728,144.808a1.7,1.7,0,1,0-1.7-1.7A1.7,1.7,0,0,0,617.728,144.808Z" transform="translate(-594.603 -128.725)" fill="#002a66"/>
      </g>
      <g id="Group_68843" data-name="Group 68843" transform="translate(25.423 63.715)">
        <g id="Group_68841" data-name="Group 68841" transform="translate(0 1.177)">
          <g id="Group_68839" data-name="Group 68839">
            <path id="Path_14355" data-name="Path 14355" d="M503.727,177.955a1.6,1.6,0,0,1-1.172-.519l-7.482-8.009a1.861,1.861,0,0,1,0-2.508l7.609-8.142a1.582,1.582,0,0,1,2.343,0,1.861,1.861,0,0,1,0,2.508l-6.436,6.888,6.31,6.755a1.861,1.861,0,0,1,0,2.508A1.6,1.6,0,0,1,503.727,177.955Z" transform="translate(-494.587 -158.257)" fill="url(#linear-gradient-3)"/>
          </g>
          <g id="Group_68840" data-name="Group 68840" transform="translate(31.328)">
            <path id="Path_14356" data-name="Path 14356" d="M521.95,177.955a1.6,1.6,0,0,1-1.172-.519,1.861,1.861,0,0,1,0-2.508l6.312-6.755-6.439-6.888a1.861,1.861,0,0,1,0-2.508,1.583,1.583,0,0,1,2.344,0l7.609,8.142a1.861,1.861,0,0,1,0,2.508l-7.483,8.009A1.6,1.6,0,0,1,521.95,177.955Z" transform="translate(-520.166 -158.257)" fill="url(#linear-gradient-4)"/>
          </g>
        </g>
        <g id="Group_68842" data-name="Group 68842" transform="translate(15.755)">
          <path id="Path_14357" data-name="Path 14357" d="M509.108,180.372a1.555,1.555,0,0,1-.623-.132,1.818,1.818,0,0,1-.911-2.311L515,158.4a1.62,1.62,0,0,1,2.16-.974,1.819,1.819,0,0,1,.91,2.311l-7.427,19.526A1.664,1.664,0,0,1,509.108,180.372Z" transform="translate(-507.451 -157.296)" fill="url(#linear-gradient-5)"/>
        </g>
      </g>
      <g id="Group_68844" data-name="Group 68844" transform="translate(138.702 17.543)">
        <path id="Path_14358" data-name="Path 14358" d="M644.4,181.684H591.84a4.767,4.767,0,0,1-4.761-4.761V124.358a4.766,4.766,0,0,1,4.761-4.761H644.4a4.767,4.767,0,0,1,4.761,4.761v52.565A4.767,4.767,0,0,1,644.4,181.684Zm-52.565-59.2a1.874,1.874,0,0,0-1.873,1.871v52.565a1.875,1.875,0,0,0,1.873,1.873H644.4a1.875,1.875,0,0,0,1.873-1.873V124.358a1.874,1.874,0,0,0-1.873-1.871Z" transform="translate(-587.079 -119.597)" fill="#002a66"/>
      </g>
      <path id="Path_14359" data-name="Path 14359" d="M575.813,161.851v-1.633a1.12,1.12,0,0,0-1.121-1.121h-2.667a8.387,8.387,0,0,0-1.034-2.485l1.89-1.89a1.121,1.121,0,0,0,0-1.585l-1.155-1.155a1.121,1.121,0,0,0-1.585,0l-1.89,1.89a8.417,8.417,0,0,0-2.485-1.034v-2.668a1.12,1.12,0,0,0-1.121-1.121h-1.633a1.12,1.12,0,0,0-1.121,1.121v2.668a8.413,8.413,0,0,0-2.485,1.034l-1.89-1.89a1.121,1.121,0,0,0-1.585,0l-1.155,1.155a1.121,1.121,0,0,0,0,1.585l1.89,1.89a8.416,8.416,0,0,0-1.034,2.485h-2.668a1.121,1.121,0,0,0-1.121,1.121v1.633a1.12,1.12,0,0,0,1.121,1.121h2.668a8.352,8.352,0,0,0,1.034,2.485l-1.89,1.89a1.121,1.121,0,0,0,0,1.585l1.155,1.155a1.121,1.121,0,0,0,1.585,0l1.89-1.89a8.382,8.382,0,0,0,2.485,1.034V171.9a1.12,1.12,0,0,0,1.121,1.121h1.633a1.12,1.12,0,0,0,1.121-1.121V169.23a8.386,8.386,0,0,0,2.485-1.034l1.89,1.89a1.121,1.121,0,0,0,1.585,0l1.155-1.155a1.121,1.121,0,0,0,0-1.585l-1.89-1.89a8.387,8.387,0,0,0,1.034-2.485h2.667A1.12,1.12,0,0,0,575.813,161.851Zm-11.2,3.74a4.624,4.624,0,1,1,3.772-3.772A4.629,4.629,0,0,1,564.614,165.591Z" transform="translate(-456.295 -95.434)" fill="url(#linear-gradient-6)"/>
    </g>
    <g id="Group_68851" data-name="Group 68851" transform="translate(707.397 201.829)">
      <g id="Group_68846" data-name="Group 68846" transform="translate(77.134 238.624)">
        <path id="Path_14360" data-name="Path 14360" d="M719.91,401.82l30.327-1.7s12.074-.152,1.553-6.341a34,34,0,0,1-4.968-3.574,38.176,38.176,0,0,1-8.789-11.258l-5.957,1.568-10.412,2.743c-.094.022-.181.043-.274.058C720.639,389.494,719.91,401.82,719.91,401.82Z" transform="translate(-719.294 -378.944)" fill="url(#linear-gradient-7)"/>
        <path id="Path_14361" data-name="Path 14361" d="M760.412,402.053S759.8,392,751.9,391.068s-8.8,6.747-8.8,6.747l-23.082-1.295-.616,5.532Z" transform="translate(-719.407 -376.237)" fill="#010d19"/>
        <path id="Path_14362" data-name="Path 14362" d="M729.844,380.512c.925,3.01,3.518,9.842,8.413,11.87a9.65,9.65,0,0,1,6.333-2.18,38.176,38.176,0,0,1-8.789-11.258Z" transform="translate(-717.061 -378.944)" fill="#010d19"/>
      </g>
      <path id="Path_14363" data-name="Path 14363" d="M749.2,400.3l-20.305,2.167s-7.972-63.675-15.158-89.98c-2.317,5.429-6.99,25.028-11.351,44.553-5.084,22.8-9.748,45.506-9.748,45.506s-11.64,1.308-18.14-3.956c2-36.321,16.068-108.821,17.908-119.428.015.087.035.174.057.261a5.24,5.24,0,0,0,.448,1.19,2.819,2.819,0,0,0,.382.513.225.225,0,0,1,.022.029c1.683,1.841,6.73,3.863,13.777,4.087,7.59.238,17.5-1.611,28.06-8.037a8.138,8.138,0,0,0,.137-3.344c.354.347,1.032,4.614,1.9,11.388C741.166,316.345,749.2,400.3,749.2,400.3Z" transform="translate(-652.367 -163.939)" fill="url(#linear-gradient-8)"/>
      <path id="Path_14364" data-name="Path 14364" d="M691.631,252.241l-1.422,5.546-.1.383-.339,1.314v.007a17.681,17.681,0,0,1-6.1-.925,20.357,20.357,0,0,1-5.386-2.658c-.462-.325-.925-.671-1.386-1.053.643-7.488,3.084-20.7,3.878-24.9.159-.845.252-1.321.252-1.321Z" transform="translate(-651.828 -174.102)" fill="url(#linear-gradient-9)"/>
      <path id="Path_14365" data-name="Path 14365" d="M693.926,253.736s-1.516,6.7-3.451,12.9c-1.38,4.375-2.962,8.506-4.376,9.848-3.431,3.251-12.248,8.587-12.248,8.587l-5.1-10.557,7.546-6.615,2.968-13.214.852-3.777a19.5,19.5,0,0,0,11.488,3.582l.339-1.322Z" transform="translate(-653.659 -169.098)" fill="url(#linear-gradient-10)"/>
      <path id="Path_14366" data-name="Path 14366" d="M733.919,290c-10.556,6.426-20.471,8.274-28.06,8.037-7.084-.224-12.146-2.268-13.8-4.116a2.818,2.818,0,0,1-.382-.513,5.238,5.238,0,0,1-.448-1.19c-.022-.087-.043-.174-.058-.261a52.673,52.673,0,0,1-.606-10.441c0-.636.007-1.271.015-1.913.021-1.726.05-3.459.065-5.091v-.022c.021-2.165.014-4.152-.087-5.748-.037-.707-.094-1.335-.174-1.863-.036-.195-.065-.382-.1-.549-.015-.058-.029-.122-.044-.187-.209-.925-.614-2.311-1.162-4.015v-.007c-.491-1.568-1.1-3.394-1.761-5.373-.2-.577-.391-1.17-.593-1.776-.6-1.8-1.235-3.7-1.863-5.6-.491-1.5-.982-3-1.451-4.47-.187-.6-.376-1.19-.556-1.776A94.434,94.434,0,0,1,680.13,232.9c-.013-.108-.036-.209-.05-.31-.043-.274-.08-.528-.108-.773.115-.18.238-.369.36-.549.087-.13.174-.26.261-.383a42.253,42.253,0,0,1,8.094-8.325c.794-.636,1.566-1.221,2.282-1.74.578-.426,1.119-.81,1.618-1.149l.05-.028,3.257-1.857a63.994,63.994,0,0,1,10.217-.866,62.255,62.255,0,0,1,10.514.83A39.311,39.311,0,0,1,722,218.979l.166,2.109.152,1.87.859,10.65.152,1.87.065.83a.117.117,0,0,0,.007.029c.094.375,1.033,4.1,2.311,9.438.144.584.289,1.19.44,1.811.745,3.1,1.568,6.622,2.413,10.29.13.6.267,1.2.4,1.805.779,3.437,1.552,6.962,2.252,10.333.122.614.246,1.22.376,1.82.78,3.848,1.444,7.444,1.9,10.412.1.643.189,1.264.268,1.842.13.946.223,1.805.288,2.563A8.14,8.14,0,0,1,733.919,290Z" transform="translate(-651.136 -176.736)" fill="url(#linear-gradient-11)"/>
      <g id="Group_68847" data-name="Group 68847" transform="translate(28.836 44.352)" opacity="0.35">
        <path id="Path_14367" data-name="Path 14367" d="M722.323,222.193l-42.193,9.943c-.013-.108-.036-.209-.05-.31-.043-.274-.08-.528-.108-.773.115-.18.238-.369.36-.549.087-.13.174-.26.261-.383l41.578-9.8Z" transform="translate(-679.972 -220.323)" opacity="0.25"/>
        <path id="Path_14368" data-name="Path 14368" d="M722.8,232.416l-39.924,9.416c-.188-.6-.376-1.19-.556-1.776l40.329-9.51Z" transform="translate(-679.443 -218.025)" opacity="0.25"/>
        <path id="Path_14369" data-name="Path 14369" d="M724.918,242.292l-38.841,9.156c-.2-.577-.391-1.17-.593-1.776l38.994-9.192C724.622,241.065,724.767,241.671,724.918,242.292Z" transform="translate(-678.733 -215.792)" opacity="0.25"/>
        <path id="Path_14370" data-name="Path 14370" d="M727.063,252.167l-38.416,9.055c-.037-.707-.094-1.335-.174-1.863l38.185-9C726.788,250.961,726.925,251.561,727.063,252.167Z" transform="translate(-678.061 -213.572)" opacity="0.25"/>
        <path id="Path_14371" data-name="Path 14371" d="M729.658,262.093l-41.037,9.676c0-.636.007-1.271.015-1.913l40.646-9.582C729.4,260.887,729.528,261.493,729.658,262.093Z" transform="translate(-678.028 -211.344)" opacity="0.25"/>
        <path id="Path_14372" data-name="Path 14372" d="M731.7,272.1l-41.709,9.827a2.824,2.824,0,0,1-.382-.513,5.236,5.236,0,0,1-.448-1.19l42.271-9.966C731.536,270.9,731.623,271.524,731.7,272.1Z" transform="translate(-677.906 -209.099)" opacity="0.25"/>
      </g>
      <path id="Path_14373" data-name="Path 14373" d="M715.026,217.752c-1.972,5.5-6.3,13.178-15.15,13.518-10.578.411-12.478-5.777-12.788-8.708.794-.636,1.566-1.221,2.282-1.74.578-.426,1.119-.81,1.618-1.149l.05-.028,3.257-1.857a63.993,63.993,0,0,1,10.217-.866A62.256,62.256,0,0,1,715.026,217.752Z" transform="translate(-649.537 -176.736)" opacity="0.25" style="mix-blend-mode: overlay;isolation: isolate"/>
      <g id="Group_68848" data-name="Group 68848" transform="translate(26.185 23.361)">
        <path id="Path_14374" data-name="Path 14374" d="M701.843,228.709a3.5,3.5,0,0,1-3.1,1.055,6.77,6.77,0,0,1-4.477-3.177,8.5,8.5,0,0,1-.83-1.631c-.015-.037-.022-.059-.022-.059a3.015,3.015,0,0,1-1.841.065,1.569,1.569,0,0,1-.2-.036.489.489,0,0,1-.065-.015,15.334,15.334,0,0,1-4.289-1.761,21.526,21.526,0,0,1-6.679-6.276c-.369-.512-.715-1.025-1.034-1.524-.36-.563-.686-1.112-.974-1.631,6.347-.636,10.528-5.149,12.4-10.535,0,0,3.48,5.726,4.252,5.726s1.394-5.416,3.712-5.488a1.707,1.707,0,0,1,1.01.26c1.351.86,1.336,3.792.232,6.854-.7,1.935,2.167,3.559,2.788,3.718.035.007.086-.022.158-.094a54.8,54.8,0,0,0,.838,5.922c.174.873.339,1.588.47,2.022C704.588,223.46,703.721,226.926,701.843,228.709Z" transform="translate(-677.69 -203.184)" fill="url(#linear-gradient-12)"/>
        <path id="Path_14375" data-name="Path 14375" d="M685.346,206.485a13.78,13.78,0,0,1-6.99,6.333c-.2-.361-.383-.708-.549-1.032A31.1,31.1,0,0,0,685.346,206.485Z" transform="translate(-677.808 -202.442)" fill="#ffb7a9"/>
      </g>
      <path id="Path_14376" data-name="Path 14376" d="M709.261,205.933c-.982,6.123-3.827,11.741-4.622,12.513-.072.072-.122.1-.158.094-.621-.159-3.488-1.783-2.787-3.718,1.329-3.69,1.083-7.193-1.242-7.113s-2.939,5.488-3.712,5.488-4.252-5.726-4.252-5.726c-1.87,5.386-6.052,9.9-12.4,10.535-.224.028-.448.043-.68.058.2-.072.4-.145.586-.217a13.78,13.78,0,0,0,6.99-6.333,31.1,31.1,0,0,1-7.538,5.3A10.926,10.926,0,0,1,673.532,218a6.63,6.63,0,0,1-.412-.585c-5.581-8.311-1.566-25.649,6.254-28.97a15.768,15.768,0,0,1-4.47-2.382c3.481.758,12.363-2.318,15.439-1.914a5.109,5.109,0,0,1,4.058,2.845s3.885-3.5,8.3-2.029c-2.165-.08-3.791,2.55-3.791,2.55a14.431,14.431,0,0,1,10.29,10.6A20.63,20.63,0,0,1,709.261,205.933Z" transform="translate(-653.261 -184.11)" fill="url(#linear-gradient-13)"/>
      <path id="Path_14377" data-name="Path 14377" d="M699.073,225.728a3.5,3.5,0,0,1-3.1,1.055,6.77,6.77,0,0,1-4.476-3.177,8.491,8.491,0,0,1-.83-1.631c1.524-.354,3.559-1.611,5.127-5.5v-.007c0-.007.007-.007.007-.015C697.246,217.518,697,224.046,699.073,225.728Z" transform="translate(-648.734 -176.842)" opacity="0.25" style="mix-blend-mode: overlay;isolation: isolate"/>
      <g id="Group_68849" data-name="Group 68849" transform="translate(26.185 23.361)">
        <path id="Path_14378" data-name="Path 14378" d="M678.357,212.818c-.2-.361-.383-.708-.549-1.032a31.1,31.1,0,0,0,7.538-5.3A13.78,13.78,0,0,1,678.357,212.818Z" transform="translate(-677.808 -202.442)" opacity="0.25" style="mix-blend-mode: overlay;isolation: isolate"/>
        <path id="Path_14379" data-name="Path 14379" d="M699.706,203.681c-3.677,1.208-2.156,7.132-4.141,7.436-2.477.389-3.672-3.29-3.672-3.29s-1.553,3.1-6.268,5.733a15.671,15.671,0,0,1-6.318,1.791c-.36-.563-.686-1.112-.974-1.631,6.347-.636,10.528-5.149,12.4-10.535,0,0,3.48,5.726,4.252,5.726s1.394-5.416,3.712-5.488A1.707,1.707,0,0,1,699.706,203.681Z" transform="translate(-677.69 -203.184)" opacity="0.25" style="mix-blend-mode: overlay;isolation: isolate"/>
      </g>
      <path id="Path_14380" data-name="Path 14380" d="M698.19,216.942c-1.568,3.892-3.6,5.149-5.127,5.5-.015-.037-.022-.059-.022-.059a3.214,3.214,0,0,1-2.037.029.493.493,0,0,1-.065-.015,15.333,15.333,0,0,1-4.289-1.761,21.527,21.527,0,0,1-6.679-6.276,2.79,2.79,0,0,1,1.978.758c1.913,1.509,3.653,4.99,8.009,5.922C694.283,221.974,697.078,218.573,698.19,216.942Z" transform="translate(-651.136 -177.312)" fill="#fff" opacity="0.25" style="mix-blend-mode: overlay;isolation: isolate"/>
      <path id="Path_14381" data-name="Path 14381" d="M695.072,205.429s-.745,2.165-.41,2.862S697.355,206.86,695.072,205.429Z" transform="translate(-647.854 -179.318)" opacity="0.25" style="mix-blend-mode: overlay;isolation: isolate"/>
      <path id="Path_14382" data-name="Path 14382" d="M708.784,203.413c-.982,6.123-3.828,11.741-4.622,12.513-.072.072-.122.1-.158.094-.621-.159-3.488-1.783-2.787-3.718,1.329-3.69,1.083-7.193-1.242-7.113s-2.939,5.488-3.712,5.488-4.252-5.726-4.252-5.726c-1.87,5.386-6.052,9.9-12.4,10.535-.224.028-.448.043-.68.058.2-.072.4-.145.586-.217a13.78,13.78,0,0,0,6.99-6.333,31.1,31.1,0,0,1-7.538,5.3,10.926,10.926,0,0,1-5.914,1.184,6.669,6.669,0,0,1-.412-.585c4.3-2.888,15.027-10.9,14.839-18.875a18.2,18.2,0,0,1,1.625,8.932s1.963-5.221,1.617-9.633a25.154,25.154,0,0,1,3.986,8.246,6.21,6.21,0,0,1,5.531-5.228c5.112-.808,5.322,6.615,5.322,6.615s1.762-2.665-.209-7.423C706.69,198.307,707.852,200.648,708.784,203.413Z" transform="translate(-652.783 -181.591)" opacity="0.25" style="mix-blend-mode: overlay;isolation: isolate"/>
      <path id="Path_14383" data-name="Path 14383" d="M698.049,229.267c-6.306.8-8.3-5.154-8.909-7.393a3.015,3.015,0,0,0,1.841-.065s.007.022.022.059a8.491,8.491,0,0,0,.83,1.631,6.77,6.77,0,0,0,4.476,3.177,3.5,3.5,0,0,0,3.1-1.055c1.878-1.783,2.745-5.249,2.348-6.606-.131-.434-.3-1.149-.47-2.022.947-.044,1.87-.065,2.758-.072C704.289,221.846,703.542,228.571,698.049,229.267Z" transform="translate(-649.076 -176.735)" fill="#0049b2"/>
      <path id="Path_14384" data-name="Path 14384" d="M690.093,269.584a46.191,46.191,0,0,0-.361-8.159c-.195-.917-.621-2.376-1.206-4.2a17.68,17.68,0,0,1-6.1-.925c.556-2.007.495-5.94.6-10.85a30.46,30.46,0,0,0-.6-6.718c2.347,5.3,5.453,11.322,6.543,16.788C690.136,261.4,690.54,266.638,690.093,269.584Z" transform="translate(-650.585 -171.834)" opacity="0.25" style="mix-blend-mode: overlay;isolation: isolate"/>
      <path id="Path_14385" data-name="Path 14385" d="M729.525,287.036c-10.556,6.426-20.471,8.274-28.06,8.037,9.019-3.777,6.376-12.868-1.942-14.537,8.369-6.187,15.111-11.679,13.756-31.714a87.812,87.812,0,0,1,.773-18.724l4.96,3.279C719.365,234.778,731.511,283.071,729.525,287.036Z" transform="translate(-646.742 -173.774)" opacity="0.25" style="mix-blend-mode: overlay;isolation: isolate"/>
      <path id="Path_14386" data-name="Path 14386" d="M727.758,242.741a1.712,1.712,0,0,1-.152.513c-.447.974-1.826,1.942-3.531,2.83a56.264,56.264,0,0,1-8.788,3.357c-.563.167-.9.261-.9.261s-5.012-9.951-5.907-18.624c-.571-5.509.521-10.506,5.618-12.124a11.266,11.266,0,0,1,1.524-.354s7.019,3.9,11.907,23.223C727.606,242.127,727.686,242.43,727.758,242.741Z" transform="translate(-644.758 -176.358)" fill="url(#linear-gradient-14)"/>
      <path id="Path_14387" data-name="Path 14387" d="M738.8,264.364c-2.008,3.87-34.04,19.5-34.04,19.5s-2.476,4.643-6.96,5.568-7.894-1.546-10.522-1.7-6.347,2.628-6.347,2.628a1.845,1.845,0,0,1-.838-.167c-.476-.245-.838-.852-.035-2.311,3.459-6.187,16.189-7.271,17.121-7.733.44-.217,6.873-5.366,13.524-10.723,7.416-5.965,15.1-12.2,15.1-12.2l-3.069-9.323-.982-2.99c2.773-.823,11.077-3.494,12.319-6.187.318,1.075.78,2.649,1.293,4.5C737.349,250.406,740.159,261.764,738.8,264.364Z" transform="translate(-651.223 -171.834)" fill="url(#linear-gradient-15)"/>
      <path id="Path_14388" data-name="Path 14388" d="M727.626,243.229c-4.124,3.863-9.749,4.585-12.63,4.679l-.982-2.99c2.773-.823,11.077-3.494,12.319-6.187C726.651,239.805,727.113,241.379,727.626,243.229Z" transform="translate(-643.485 -171.834)" opacity="0.25" style="mix-blend-mode: overlay;isolation: isolate"/>
      <path id="Path_14389" data-name="Path 14389" d="M690.833,258.5c-.6,2.361-1.4,5.292-2.288,8.131-3.944-2.478-8.68-8.492-11.215-11.951l.852-3.777a19.5,19.5,0,0,0,11.488,3.582C690.219,256.19,690.623,257.576,690.833,258.5Z" transform="translate(-651.73 -169.098)" opacity="0.25" style="mix-blend-mode: overlay;isolation: isolate"/>
      <rect id="Rectangle_27527" data-name="Rectangle 27527" width="23.128" height="6.189" rx="2.359" transform="translate(75.551 237.103) rotate(-4.846)" fill="#a2a5aa"/>
      <path id="Path_14390" data-name="Path 14390" d="M695.339,382.212a3.091,3.091,0,0,1-3,2.3,3.025,3.025,0,0,1-.513-.043c-.093-.015-.18-.035-.274-.058l-16.37-4.311-.844-.224a3.1,3.1,0,0,1,.786-6.094,3.054,3.054,0,0,1,.795.109l17.214,4.534A3.1,3.1,0,0,1,695.339,382.212Z" transform="translate(-652.92 -141.479)" fill="#a2a5aa"/>
      <g id="Group_68850" data-name="Group 68850" transform="translate(0 238.624)">
        <path id="Path_14391" data-name="Path 14391" d="M696.045,401.82l-30.329-1.7s-12.072-.152-1.552-6.341a34,34,0,0,0,4.968-3.574,38.188,38.188,0,0,0,8.788-11.258l5.957,1.568,10.413,2.743c.094.022.181.043.274.058C695.315,389.494,696.045,401.82,696.045,401.82Z" transform="translate(-655.656 -378.944)" fill="url(#linear-gradient-16)"/>
        <path id="Path_14392" data-name="Path 14392" d="M656.428,402.053s.615-10.054,8.508-10.985,8.8,6.747,8.8,6.747l23.082-1.295.616,5.532Z" transform="translate(-656.428 -376.237)" fill="#010d19"/>
        <path id="Path_14393" data-name="Path 14393" d="M682.176,380.512c-.923,3.01-3.516,9.842-8.412,11.87a9.649,9.649,0,0,0-6.333-2.18,38.188,38.188,0,0,0,8.788-11.258Z" transform="translate(-653.955 -378.944)" fill="#010d19"/>
      </g>
      <path id="Path_14394" data-name="Path 14394" d="M726.7,242.741a1.714,1.714,0,0,1-.152.513c-.447.974-1.826,1.942-3.531,2.83a48.762,48.762,0,0,0-1.978-13.562,36.661,36.661,0,0,0-7.994-13.568,11.27,11.27,0,0,1,1.524-.354s7.019,3.9,11.907,23.223C726.55,242.127,726.63,242.43,726.7,242.741Z" transform="translate(-643.702 -176.358)" opacity="0.25" style="mix-blend-mode: overlay;isolation: isolate"/>
      <path id="Path_14395" data-name="Path 14395" d="M718.019,283.165s-.464,6.724,6.267,8.116" transform="translate(-642.586 -161.847)" fill="none" stroke="#fff" stroke-linecap="round" stroke-linejoin="round" stroke-width="1.179" opacity="0.25" style="mix-blend-mode: overlay;isolation: isolate"/>
      <line id="Line_46" data-name="Line 46" x2="13.195" y2="100.164" transform="translate(78.563 132.142)" fill="none" stroke="#fff" stroke-linecap="round" stroke-linejoin="round" stroke-width="1.179" opacity="0.25" style="mix-blend-mode: overlay;isolation: isolate"/>
      <line id="Line_47" data-name="Line 47" x1="22.386" y2="85" transform="translate(35.763 147.306)" fill="none" stroke="#fff" stroke-linecap="round" stroke-linejoin="round" stroke-width="1.179" opacity="0.25" style="mix-blend-mode: overlay;isolation: isolate"/>
      <path id="Path_14396" data-name="Path 14396" d="M708.621,305.508c-2.317,5.429-6.99,25.028-11.351,44.553-.13-10.2.087-21.18,1.206-29.389C701.257,300.18,708.621,305.508,708.621,305.508Z" transform="translate(-647.256 -156.965)" opacity="0.25" style="mix-blend-mode: overlay;isolation: isolate"/>
      <path id="Path_14397" data-name="Path 14397" d="M733.733,285.245c-29.743,14.845-43.283-3.271-43.874-4.094,1.683,1.841,6.73,3.863,13.777,4.087,7.59.238,17.5-1.611,28.06-8.037a8.14,8.14,0,0,0,.137-3.344C732.188,274.2,732.866,278.471,733.733,285.245Z" transform="translate(-648.914 -163.939)" opacity="0.25" style="mix-blend-mode: overlay;isolation: isolate"/>
      <path id="Path_14398" data-name="Path 14398" d="M710.7,263.793c-1.242,4.78-11.387,12.448-13.177,12.326-2.029-.137-11.489,2.282-14.464,4.022a6.018,6.018,0,0,0-2.968,4.419c-.476-.245-.838-.852-.035-2.311,3.459-6.188,16.189-7.271,17.121-7.733C697.619,274.3,704.053,269.15,710.7,263.793Z" transform="translate(-651.223 -166.201)" fill="#fff" opacity="0.25" style="mix-blend-mode: overlay;isolation: isolate"/>
    </g>
    <g id="Group_68853" data-name="Group 68853" transform="translate(532.391 328.962)">
      <path id="Path_14399" data-name="Path 14399" d="M556.848,293.966l-2.364-1.658-2.364-1.661c-.359.511-8.9,12.783-17.513,35.509-7.921,20.891-17.363,54.929-17.363,98.448h5.777C523.021,343.191,556.51,294.449,556.848,293.966Z" transform="translate(-512.705 -287.298)" fill="url(#linear-gradient-17)"/>
      <path id="Path_14400" data-name="Path 14400" d="M599.046,293.966l-2.365-1.658-2.364-1.661c-.359.511-8.9,12.783-17.513,35.509-7.92,20.891-17.363,54.929-17.363,98.448h5.777C565.218,343.191,598.707,294.449,599.046,293.966Z" transform="translate(-503.221 -287.298)" fill="url(#linear-gradient-18)"/>
      <path id="Path_14401" data-name="Path 14401" d="M727.057,293.966l2.365-1.658,2.364-1.661c.359.511,8.9,12.783,17.513,35.509,7.921,20.891,17.362,54.929,17.362,98.448h-5.776C760.885,343.191,727.4,294.449,727.057,293.966Z" transform="translate(-465.548 -287.298)" fill="url(#linear-gradient-19)"/>
      <path id="Path_14402" data-name="Path 14402" d="M684.86,293.966l2.365-1.658,2.362-1.661c.36.511,8.9,12.783,17.513,35.509,7.922,20.891,17.363,54.929,17.363,98.448h-5.776C718.688,343.191,685.2,294.449,684.86,293.966Z" transform="translate(-475.032 -287.298)" fill="url(#linear-gradient-20)"/>
      <g id="Group_68852" data-name="Group 68852">
        <path id="Path_14403" data-name="Path 14403" d="M780.3,291.732a3.822,3.822,0,0,1-3.82,3.82H517.358a3.819,3.819,0,1,1,0-7.639H776.482A3.821,3.821,0,0,1,780.3,291.732Z" transform="translate(-513.538 -287.913)" fill="#9cacf2"/>
        <path id="Path_14404" data-name="Path 14404" d="M777.873,291.732a3.822,3.822,0,0,1-3.82,3.82H728.229a3.819,3.819,0,1,0,0-7.639h45.824A3.821,3.821,0,0,1,777.873,291.732Z" transform="translate(-465.285 -287.913)" fill="#c7cfff"/>
      </g>
    </g>
    <g id="Group_68854" data-name="Group 68854" transform="translate(556.733 216.992)">
      <path id="Path_14405" data-name="Path 14405" d="M602.532,196.492v83.864H542.078a8.663,8.663,0,0,1-8.665-8.665V205.157a8.663,8.663,0,0,1,8.665-8.665Z" transform="translate(-533.413 -196.49)" fill="#eef8ff"/>
      <path id="Path_14406" data-name="Path 14406" d="M591.437,280.356h0V196.49h0a8.666,8.666,0,0,0-8.665,8.665v66.536A8.666,8.666,0,0,0,591.437,280.356Z" transform="translate(-522.319 -196.49)" fill="#c7cfff"/>
      <path id="Path_14407" data-name="Path 14407" d="M569.172,271.44H547.964l5.249-32.531s2.491-4.816,7.944-1.7C565.591,239.754,563.511,261.692,569.172,271.44Z" transform="translate(-530.143 -187.574)" opacity="0.25" style="mix-blend-mode: overlay;isolation: isolate"/>
      <path id="Path_14408" data-name="Path 14408" d="M540.828,289.4l13.988-50.687a2.29,2.29,0,0,1,4.065-.741,22.5,22.5,0,0,1,3.764,15.388c-1.16,12.78-8.587,37.217-8.587,37.217Z" transform="translate(-531.746 -187.38)" fill="#9cacf2"/>
      <path id="Path_14409" data-name="Path 14409" d="M567.359,278.7h-28.3a5.638,5.638,0,0,0-5.638,5.639h0a5.639,5.639,0,0,0,5.638,5.639h28.3A5.639,5.639,0,0,0,573,284.344h0A5.638,5.638,0,0,0,567.359,278.7Z" transform="translate(-533.41 -178.012)" fill="#7189e2"/>
      <path id="Path_14410" data-name="Path 14410" d="M560.47,226.125c0,4.017-2.114,7.273-4.721,7.273s-4.721-3.255-4.721-7.273,2.114-7.273,4.721-7.273S560.47,222.109,560.47,226.125Z" transform="translate(-529.454 -191.464)" fill="url(#linear-gradient-21)"/>
    </g>
    <g id="Group_68855" data-name="Group 68855" transform="translate(650.033 277.506)">
      <path id="Path_14411" data-name="Path 14411" d="M709.6,285.017l-36.5-1.866v5.829h36.5Z" transform="translate(-595.316 -237.526)" fill="#9cacf2"/>
      <path id="Path_14412" data-name="Path 14412" d="M694.7,296.959H624.334a1.788,1.788,0,0,1-1.737-1.366L611.5,249.864a1.787,1.787,0,0,1,1.738-2.208h70.367a1.788,1.788,0,0,1,1.738,1.366l11.094,45.727A1.788,1.788,0,0,1,694.7,296.959Z" transform="translate(-609.173 -245.504)" fill="#c7cfff"/>
      <path id="Path_14413" data-name="Path 14413" d="M692.844,295.2H622.475a1.793,1.793,0,0,1-1.74-1.366l-11.091-45.73a1.795,1.795,0,0,1,1.74-2.209h70.368a1.784,1.784,0,0,1,1.733,1.364l11.091,45.73A1.786,1.786,0,0,1,692.844,295.2Z" transform="translate(-609.591 -245.899)" fill="#eef8ff"/>
      <path id="Path_14414" data-name="Path 14414" d="M647.842,267.237c.924,2.412.05,4.987-1.949,5.753s-4.37-.568-5.292-2.98-.052-4.986,1.949-5.751S646.919,264.827,647.842,267.237Z" transform="translate(-602.705 -241.821)" fill="url(#linear-gradient-22)"/>
    </g>
    <g id="Group_68859" data-name="Group 68859" transform="translate(743.499 126.242)">
      <ellipse id="Ellipse_743" data-name="Ellipse 743" cx="67.024" cy="59.773" rx="67.024" ry="59.773" transform="translate(0 53.065) rotate(-23.32)" fill="url(#radial-gradient-3)"/>
      <rect id="Rectangle_27528" data-name="Rectangle 27528" width="95.699" height="63.414" rx="4.198" transform="translate(29.428 41.281)" fill="url(#linear-gradient-23)"/>
      <g id="Group_68858" data-name="Group 68858" transform="translate(49.875 52.722)">
        <g id="Group_68856" data-name="Group 68856">
          <path id="Path_14415" data-name="Path 14415" d="M735.3,205.976a5.156,5.156,0,0,1-5.15-5.15v-9.214a2.556,2.556,0,0,0-.754-1.82l-1.848-1.849a3.162,3.162,0,0,1,0-4.468l1.848-1.848a2.561,2.561,0,0,0,.754-1.821v-9.214a5.156,5.156,0,0,1,5.15-5.15v2.574a2.579,2.579,0,0,0-2.574,2.576V179.8a5.117,5.117,0,0,1-1.509,3.641l-1.848,1.848a.587.587,0,0,0,0,.828l1.848,1.848a5.117,5.117,0,0,1,1.509,3.641v9.214A2.578,2.578,0,0,0,735.3,203.4Z" transform="translate(-726.627 -165.441)" fill="#eef8ff"/>
        </g>
        <g id="Group_68857" data-name="Group 68857" transform="translate(46.132)">
          <path id="Path_14416" data-name="Path 14416" d="M764.294,165.441a5.155,5.155,0,0,1,5.149,5.15V179.8a2.556,2.556,0,0,0,.754,1.82l1.848,1.849a3.162,3.162,0,0,1,0,4.468L770.2,189.79a2.561,2.561,0,0,0-.754,1.821v9.214a5.155,5.155,0,0,1-5.149,5.15V203.4a2.578,2.578,0,0,0,2.574-2.576v-9.214a5.112,5.112,0,0,1,1.509-3.641l1.848-1.848a.586.586,0,0,0,0-.828l-1.847-1.848a5.112,5.112,0,0,1-1.509-3.641v-9.214a2.578,2.578,0,0,0-2.574-2.576Z" transform="translate(-764.294 -165.441)" fill="#eef8ff"/>
        </g>
        <path id="Path_14417" data-name="Path 14417" d="M763.242,176.049a5.551,5.551,0,0,0-7.852,0l-3.927,3.925-3.927-3.925a5.553,5.553,0,0,0-7.853,7.852l3.927,3.927,7.853,7.853,7.852-7.853,3.927-3.927A5.551,5.551,0,0,0,763.242,176.049Z" transform="translate(-724.059 -163.423)" fill="#eef8ff"/>
      </g>
    </g>
    <g id="Group_68861" data-name="Group 68861" transform="translate(667.969 152.687)">
      <path id="Path_14418" data-name="Path 14418" d="M705.535,163.412v-2.478a1.7,1.7,0,0,0-1.7-1.7h-4.049a12.689,12.689,0,0,0-1.568-3.771l2.867-2.867a1.7,1.7,0,0,0,0-2.405l-1.753-1.753a1.7,1.7,0,0,0-2.405,0l-2.867,2.867a12.686,12.686,0,0,0-3.771-1.568v-4.049a1.7,1.7,0,0,0-1.7-1.7h-2.478a1.7,1.7,0,0,0-1.7,1.7v4.049a12.685,12.685,0,0,0-3.771,1.568l-2.867-2.867a1.7,1.7,0,0,0-2.406,0l-1.753,1.753a1.7,1.7,0,0,0,0,2.405l2.867,2.867a12.692,12.692,0,0,0-1.568,3.771h-4.049a1.7,1.7,0,0,0-1.7,1.7v2.478a1.7,1.7,0,0,0,1.7,1.7h4.049a12.692,12.692,0,0,0,1.568,3.771l-2.867,2.867a1.7,1.7,0,0,0,0,2.405l1.753,1.753a1.7,1.7,0,0,0,2.406,0l2.867-2.867a12.686,12.686,0,0,0,3.771,1.568v4.049a1.7,1.7,0,0,0,1.7,1.7h2.478a1.7,1.7,0,0,0,1.7-1.7V174.61a12.686,12.686,0,0,0,3.771-1.568l2.867,2.867a1.7,1.7,0,0,0,2.405,0l1.753-1.753a1.7,1.7,0,0,0,0-2.405l-2.867-2.867a12.689,12.689,0,0,0,1.568-3.771h4.049A1.7,1.7,0,0,0,705.535,163.412Zm-17,5.677a7.017,7.017,0,1,1,5.726-5.726A7.026,7.026,0,0,1,688.539,169.089Z" transform="translate(-614.139 -143.986)" fill="#b3cee8"/>
      <g id="Group_68860" data-name="Group 68860" transform="translate(0 58.546)">
        <path id="Path_14419" data-name="Path 14419" d="M662.169,210.462h0a1.82,1.82,0,0,1-1.8-1.65,15.062,15.062,0,0,0-29.046-3.716l3.516.737L630.4,209.1l-1.856,1.364h-.339l-1.336-2.3-2.636-4.541,3.524.736a18.671,18.671,0,0,1,36.2,4.075A1.818,1.818,0,0,1,662.169,210.462Z" transform="translate(-624.236 -191.788)" fill="#eef8ff"/>
        <path id="Path_14420" data-name="Path 14420" d="M627.91,211.106h0a1.82,1.82,0,0,1,1.8,1.65,15.062,15.062,0,0,0,29.046,3.716l-3.516-.736,4.441-3.264,1.855-1.366h.341l1.335,2.3,2.636,4.543-3.524-.737a18.671,18.671,0,0,1-36.2-4.074A1.819,1.819,0,0,1,627.91,211.106Z" transform="translate(-623.816 -187.446)" fill="#eef8ff"/>
        <path id="Path_14421" data-name="Path 14421" d="M627.818,207.035l-.238.173-.1-.173Z" transform="translate(-623.507 -188.361)" fill="#eef8ff"/>
      </g>
    </g>
    <path id="Path_14422" data-name="Path 14422" d="M830.6,411.134a10.8,10.8,0,0,1-10.889,10.088H518.456a10.605,10.605,0,0,1-10.593-11.113,10.4,10.4,0,0,1,3.407-7.177,11.07,11.07,0,0,1,7.482-2.91H820.009A10.6,10.6,0,0,1,830.6,411.134Z" transform="translate(17.575 66.247)" opacity="0.28" style="mix-blend-mode: overlay;isolation: isolate"/>
    <g id="Group_68862" data-name="Group 68862" transform="translate(828.71 253.55)">
      <line id="Line_48" data-name="Line 48" x2="60.535" transform="translate(10.795 0.017)" fill="none" stroke="#707070" stroke-linecap="round" stroke-linejoin="round" stroke-width="2.948"/>
      <line id="Line_49" data-name="Line 49" x2="39.182" transform="translate(10.795 10.795)" fill="none" stroke="#fff" stroke-linecap="round" stroke-linejoin="round" stroke-width="2.948"/>
      <line id="Line_50" data-name="Line 50" x2="39.182" transform="translate(10.795 21.342)" fill="none" stroke="#fff" stroke-linecap="round" stroke-linejoin="round" stroke-width="2.948"/>
      <circle id="Ellipse_744" data-name="Ellipse 744" cx="10.795" cy="10.795" r="10.795" fill="url(#radial-gradient-2)" style="mix-blend-mode: color-dodge;isolation: isolate"/>
    </g>
    <g id="Group_68863" data-name="Group 68863" transform="translate(464.742 298.351)">
      <line id="Line_51" data-name="Line 51" x1="60.535" transform="translate(0 14.31)" fill="none" stroke="#fff" stroke-linecap="round" stroke-linejoin="round" stroke-width="2.948"/>
      <line id="Line_52" data-name="Line 52" x1="39.182" transform="translate(21.353 25.089)" fill="none" stroke="#707070" stroke-linecap="round" stroke-linejoin="round" stroke-width="2.948"/>
      <line id="Line_53" data-name="Line 53" x1="39.182" transform="translate(21.353 35.635)" fill="none" stroke="#707070" stroke-linecap="round" stroke-linejoin="round" stroke-width="2.948"/>
      <circle id="Ellipse_745" data-name="Ellipse 745" cx="10.795" cy="10.795" r="10.795" transform="translate(46.801 8.307) rotate(-22.628)" fill="url(#radial-gradient-2)" style="mix-blend-mode: color-dodge;isolation: isolate"/>
    </g>
    <path id="Path_14423" data-name="Path 14423" d="M694.576,309.426,683.485,263.7a1.784,1.784,0,0,0-1.733-1.364H611.384a1.767,1.767,0,0,0-1.364.636l-.426-.239,12.954-70.194s101.624-50.443,121.742,9.9c1.258,3.771,34.811,52.371,35.426,55.7C788.939,308.126,694.576,309.426,694.576,309.426Z" transform="translate(40.44 16.299)" fill="url(#radial-gradient-6)"/>
    <g id="Group_68864" data-name="Group 68864" transform="translate(567.285 286.352)">
      <path id="Path_14424" data-name="Path 14424" d="M543.962,254.8s-19.155,101.72,63.131,112.724c62.482,8.355,130.751-41.74,113.721-75.081" transform="translate(-542.029 -252.746)" fill="none" stroke="#66d7ff" stroke-linecap="round" stroke-linejoin="round" stroke-width="1.179"/>
      <path id="Path_14425" data-name="Path 14425" d="M569.858,253.122s-26,46.072,0,111.061,183.594,83.184,154.757-70.208" transform="translate(-538.371 -253.122)" fill="none" stroke="#0098ff" stroke-linecap="round" stroke-linejoin="round" stroke-width="1.179"/>
      <circle id="Ellipse_746" data-name="Ellipse 746" cx="10.795" cy="10.795" r="10.795" transform="translate(143.293 80.175)" fill="url(#radial-gradient-2)" style="mix-blend-mode: color-dodge;isolation: isolate"/>
      <circle id="Ellipse_747" data-name="Ellipse 747" cx="10.795" cy="10.795" r="10.795" transform="translate(58.064 136.988)" fill="url(#radial-gradient-2)" style="mix-blend-mode: color-dodge;isolation: isolate"/>
    </g>
    <g id="Group_68865" data-name="Group 68865" transform="translate(883.192 274.81)">
      <path id="Path_14426" data-name="Path 14426" d="M833.414,310.3A256.084,256.084,0,0,1,807.795,359.8c1.646-11.95,13.1-90.544,33.693-116.1C844.087,260.3,839.133,287.226,833.414,310.3Z" transform="translate(-798.203 -243.698)" fill="url(#linear-gradient-24)"/>
      <path id="Path_14427" data-name="Path 14427" d="M815.114,343.71q-2.7,4.431-5.559,8.745-4.453,6.706-9.28,13.063c-.065-1.062-3.6-59.1,14.8-89.157C821.57,298.551,818.061,327.384,815.114,343.71Z" transform="translate(-799.963 -236.357)" fill="#b3cee8"/>
      <path id="Path_14428" data-name="Path 14428" d="M839.319,243.7s-18.055,64.092-21.874,96.458" transform="translate(-796.034 -243.698)" fill="none" stroke="#000" stroke-width="1.179" opacity="0.25" style="mix-blend-mode: overlay;isolation: isolate"/>
      <path id="Path_14429" data-name="Path 14429" d="M813.477,276.361s-9.193,47.585-5.524,76.094" transform="translate(-798.361 -236.357)" fill="none" stroke="#000" stroke-width="1.179" opacity="0.25" style="mix-blend-mode: overlay;isolation: isolate"/>
    </g>
    <g id="Group_68866" data-name="Group 68866" transform="translate(440.708 367.15)">
      <path id="Path_14430" data-name="Path 14430" d="M493.941,370.5s-28.642-17.461-39.4-51.4c29.947,3.815,56.654,53.036,56.654,53.036Z" transform="translate(-435.114 -319.093)" fill="#b3cee8"/>
      <path id="Path_14431" data-name="Path 14431" d="M454.544,319.093s28.313,25.962,45.549,47.316" transform="translate(-435.114 -319.093)" fill="none" stroke="#000" stroke-width="1.179" opacity="0.25" style="mix-blend-mode: overlay;isolation: isolate"/>
      <path id="Path_14432" data-name="Path 14432" d="M530.517,391.74a3.575,3.575,0,0,1-1.647.173A230.357,230.357,0,0,1,508.3,371.787c-35.339-20.2-69.625,22.371-69.625,22.371s14.283-49.666,54.295-41.29h.007C533,361.245,530.517,391.74,530.517,391.74Z" transform="translate(-438.68 -311.716)" fill="url(#linear-gradient-25)"/>
      <path id="Path_14433" data-name="Path 14433" d="M438.68,392.735s35.52-58.895,76.083-22.749C522.751,377.1,522.734,385,522.734,385" transform="translate(-438.68 -310.292)" fill="none" stroke="#000" stroke-width="1.179" opacity="0.25" style="mix-blend-mode: overlay;isolation: isolate"/>
    </g>
  </g>
</svg>
