<svg id="_8._Monitor_Screen" data-name="8. Monitor Screen" xmlns="http://www.w3.org/2000/svg" width="49.24" height="49.24" viewBox="0 0 49.24 49.24">
  <path id="Path_14292" data-name="Path 14292" d="M47.7,27.7a1.539,1.539,0,0,0,1.539-1.539V4.616A4.616,4.616,0,0,0,44.624,0H4.616A4.616,4.616,0,0,0,0,4.616V35.391a4.616,4.616,0,0,0,4.616,4.616H12.31a1.539,1.539,0,0,0,0-3.077H4.616a1.539,1.539,0,0,1-1.539-1.539V33.852H46.162v1.539a1.539,1.539,0,0,1-1.539,1.539H18.465a1.539,1.539,0,0,0-1.539,1.539v1.8a8.9,8.9,0,0,1-2.217,5.892h-2.4a1.539,1.539,0,0,0,0,3.077H36.93a1.539,1.539,0,1,0,0-3.077h-2.4a8.906,8.906,0,0,1-2.217-5.892v-.263h12.31a4.616,4.616,0,0,0,4.616-4.616V32.314A1.539,1.539,0,0,0,47.7,30.775H3.077V4.616A1.539,1.539,0,0,1,4.616,3.077H44.624a1.539,1.539,0,0,1,1.539,1.539V26.159A1.539,1.539,0,0,0,47.7,27.7ZM30.775,46.162H18.465A11.982,11.982,0,0,0,20,40.271v-.263h9.232v.263a11.982,11.982,0,0,0,1.539,5.892Z" fill="#fff"/>
  <path id="Path_14293" data-name="Path 14293" d="M27.081,19.077H5.539a1.539,1.539,0,1,1,0-3.077H27.081a1.539,1.539,0,1,1,0,3.077Z" transform="translate(2.155 8.62)" fill="#fff"/>
  <path id="Path_14294" data-name="Path 14294" d="M39.391,15.077H5.539a1.539,1.539,0,1,1,0-3.077H39.391a1.539,1.539,0,0,1,0,3.077Z" transform="translate(2.155 6.465)" fill="#fff"/>
  <path id="Path_14295" data-name="Path 14295" d="M39.391,11.077H5.539A1.539,1.539,0,1,1,5.539,8H39.391a1.539,1.539,0,0,1,0,3.077Z" transform="translate(2.155 4.31)" fill="#fff"/>
  <path id="Path_14296" data-name="Path 14296" d="M29,7.077H10.539a1.539,1.539,0,1,1,0-3.077H29a1.539,1.539,0,0,1,0,3.077Z" transform="translate(4.849 2.155)" fill="#fff"/>
</svg>
