<svg xmlns="http://www.w3.org/2000/svg" width="64" height="64" viewBox="0 0 64 64">
  <g id="Layer_2" data-name="Layer 2" transform="translate(-0.286 -0.286)">
    <g id="Icons">
      <g id="Development">
        <rect id="Rectangle_27355" data-name="Rectangle 27355" width="64" height="64" transform="translate(0.286 0.286)" fill="none"/>
        <circle id="Ellipse_738" data-name="Ellipse 738" cx="1.076" cy="1.076" r="1.076" transform="translate(8.965 15.863)" fill="#fff"/>
        <circle id="Ellipse_739" data-name="Ellipse 739" cx="1.076" cy="1.076" r="1.076" transform="translate(16.143 15.863)" fill="#fff"/>
        <circle id="Ellipse_740" data-name="Ellipse 740" cx="1.076" cy="1.076" r="1.076" transform="translate(12.559 15.863)" fill="#fff"/>
        <path id="Path_14300" data-name="Path 14300" d="M20.185,30.609l3.229-3.229a1.081,1.081,0,1,0-1.528-1.528l-4,4.014a1.076,1.076,0,0,0,0,1.517l4,4.014a1.077,1.077,0,1,0,1.528-1.517Z" transform="translate(1.339 1.946)" fill="#fff"/>
        <path id="Path_14301" data-name="Path 14301" d="M34.343,35.374a1.076,1.076,0,0,0,1.517,0l4.014-3.96a1.076,1.076,0,0,0,0-1.517L35.86,25.882a1.077,1.077,0,0,0-1.517,1.528l3.229,3.229-3.229,3.229A1.076,1.076,0,0,0,34.343,35.374Z" transform="translate(2.592 1.948)" fill="#fff"/>
        <path id="Path_14302" data-name="Path 14302" d="M31.4,26.16a1.076,1.076,0,0,0-1.474.4l-3.971,6.974a1.076,1.076,0,1,0,1.862,1.076l4.014-6.941a1.076,1.076,0,0,0-.43-1.507Z" transform="translate(1.964 1.982)" fill="#fff"/>
        <path id="Path_14303" data-name="Path 14303" d="M59.735,42.153a.312.312,0,0,1-.291-.2,11.224,11.224,0,0,0-1.8-3.11.312.312,0,0,1,0-.355,2.475,2.475,0,0,0-.9-3.379l-.807-.484V14.969a3.229,3.229,0,0,0-3.229-3.229H8.229A3.229,3.229,0,0,0,5,14.969V42.239a2.518,2.518,0,0,0,2.508,2.508H22.219l-1.076,3.982H19.711a4.66,4.66,0,0,0-4.531,3.584H12.533a1.076,1.076,0,1,0,0,2.152H39.944a2.282,2.282,0,0,0,.075.764,2.421,2.421,0,0,0,1.152,1.507l2.271,1.313a2.475,2.475,0,0,0,3.379-.915.334.334,0,0,1,.334-.151,10.482,10.482,0,0,0,3.573,0,.323.323,0,0,1,.334.161,2.475,2.475,0,0,0,2.152,1.227,2.443,2.443,0,0,0,1.238-.323l2.271-1.313a2.464,2.464,0,0,0,1.152-1.507,2.432,2.432,0,0,0-.248-1.873.323.323,0,0,1,0-.366,11.322,11.322,0,0,0,1.8-3.1.3.3,0,0,1,.291-.2,2.486,2.486,0,0,0,2.475-2.475V44.585A2.475,2.475,0,0,0,59.735,42.153ZM7.152,14.969a1.076,1.076,0,0,1,1.076-1.076H52.707a1.076,1.076,0,0,1,1.076,1.076V18.2H7.152Zm.355,27.626a.355.355,0,0,1-.355-.355V20.35H53.784V33.544a2.464,2.464,0,0,0-2.723,1.076h0a.312.312,0,0,1-.323.14,11.053,11.053,0,0,0-3.573,0,.3.3,0,0,1-.323-.14h0a2.464,2.464,0,0,0-3.379-.9l-2.271,1.313a2.411,2.411,0,0,0-1.152,1.5,2.5,2.5,0,0,0,.237,1.883.291.291,0,0,1,0,.355,11.225,11.225,0,0,0-1.8,3.11.312.312,0,0,1-.291.2,2.464,2.464,0,0,0-1.464.484Zm28.7,6.134H23.3l1.076-3.982h11.3v2.464a2.5,2.5,0,0,0,.538,1.517ZM19.722,50.881H38.878a11.837,11.837,0,0,0,.839,1.431H17.451a2.508,2.508,0,0,1,2.26-1.431Zm40.336-3.67a.323.323,0,0,1-.323.323,2.486,2.486,0,0,0-2.314,1.593,9.1,9.1,0,0,1-1.442,2.508,2.486,2.486,0,0,0-.226,2.8.28.28,0,0,1,0,.237.312.312,0,0,1-.151.2l-2.238,1.27a.323.323,0,0,1-.441-.129,2.486,2.486,0,0,0-2.551-1.195,8.524,8.524,0,0,1-2.863,0,2.486,2.486,0,0,0-2.551,1.205.334.334,0,0,1-.441.118l-2.271-1.313a.312.312,0,0,1-.151-.2.28.28,0,0,1,0-.237,2.508,2.508,0,0,0-.226-2.8,8.986,8.986,0,0,1-1.453-2.508,2.454,2.454,0,0,0-2.271-1.55.323.323,0,0,1-.323-.323V44.585a.312.312,0,0,1,.323-.323,2.475,2.475,0,0,0,2.3-1.593A8.836,8.836,0,0,1,41.9,40.162a2.508,2.508,0,0,0,.226-2.8.3.3,0,0,1,0-.248.28.28,0,0,1,.151-.194L44.55,35.61a.3.3,0,0,1,.161,0,.323.323,0,0,1,.269.151h0a2.5,2.5,0,0,0,2.551,1.205,8.523,8.523,0,0,1,2.863,0,2.508,2.508,0,0,0,2.529-1.27h0a.312.312,0,0,1,.43-.108L55.624,36.9a.28.28,0,0,1,.151.194.3.3,0,0,1,0,.248A2.475,2.475,0,0,0,56,40.13a9.159,9.159,0,0,1,1.442,2.518,2.5,2.5,0,0,0,2.292,1.657.312.312,0,0,1,.323.323Z" transform="translate(0.381 0.894)" fill="#fff"/>
        <path id="Path_14304" data-name="Path 14304" d="M46.176,38.94a4.886,4.886,0,1,0,4.886,4.886A4.886,4.886,0,0,0,46.176,38.94Zm0,7.619a2.723,2.723,0,1,0,0-.022Z" transform="translate(3.146 2.967)" fill="#fff"/>
      </g>
    </g>
  </g>
</svg>
