<svg xmlns="http://www.w3.org/2000/svg" width="140.684" height="115.529" viewBox="0 0 140.684 115.529">
  <g id="Group_6938" data-name="Group 6938" transform="translate(-28.908 -59.99)">
    <g id="Desk" transform="translate(36.041 85.773)">
      <g id="Group_6607" data-name="Group 6607" transform="translate(45.556 47.491)">
        <g id="Group_6604" data-name="Group 6604" transform="translate(1.506 0)">
          <rect id="Rectangle_448" data-name="Rectangle 448" width="35.498" height="38.985" transform="translate(0 2.59) rotate(-4.183)" fill="#263238"/>
        </g>
        <g id="Group_6605" data-name="Group 6605" transform="translate(4.393 8.149)">
          <path id="Path_4196" data-name="Path 4196" d="M235.231,343.008l-.52-11.494-30.923,2.9,1.18,11.94Z" transform="translate(-203.788 -331.514)" fill="#455a64"/>
        </g>
        <g id="Group_6606" data-name="Group 6606" transform="translate(0 34.578)">
          <path id="Path_4197" data-name="Path 4197" d="M232.637,417.491l-39.631,2.663a2.508,2.508,0,0,1-2.67-2.334h0a2.508,2.508,0,0,1,2.334-2.67l39.631-2.663a2.507,2.507,0,0,1,2.67,2.334h0A2.507,2.507,0,0,1,232.637,417.491Z" transform="translate(-190.33 -412.482)" fill="#455a64"/>
        </g>
      </g>
      <g id="Group_6610" data-name="Group 6610">
        <g id="Group_6608" data-name="Group 6608">
          <rect id="Rectangle_449" data-name="Rectangle 449" width="131.89" height="59.744" fill="#a2e3ff"/>
        </g>
        <g id="Group_6609" data-name="Group 6609" transform="translate(0 59.744)">
          <path id="Path_4198" data-name="Path 4198" d="M50.763,344.091l3.408,1.777,125.216-.119,3.265-1.658Z" transform="translate(-50.763 -344.091)" fill="#408dae"/>
        </g>
      </g>
    </g>
    <g id="Character" transform="translate(68.843 99.646)">
      <g id="Group_6716" data-name="Group 6716" transform="translate(0)">
        <g id="Group_6656" data-name="Group 6656" transform="translate(2.739)">
          <g id="Group_6631" data-name="Group 6631">
            <g id="Group_6611" data-name="Group 6611">
              <path id="Path_4199" data-name="Path 4199" d="M159.881,243.791l-.235-40.236h61.825v40.651Z" transform="translate(-159.646 -203.555)" fill="#455a64"/>
            </g>
            <g id="Group_6630" data-name="Group 6630" transform="translate(1.766 1.665)">
              <g id="Group_6612" data-name="Group 6612" transform="translate(0.117 4.524)">
                <path id="Path_4200" data-name="Path 4200" d="M176.523,248.9a44.138,44.138,0,0,1,7.217.714l-1.282-.34a7.709,7.709,0,0,1,8.575-8.334c1.7.2,3.373.963,5.062.679,3.1-.521,4.687-4.206,7.626-5.31,3.757-1.411,8.133,1.887,11.838.344,1.5-.626,2.592-1.95,3.986-2.788,1.194-.717,2.923-.925,3.93-.1v-8.646c-.991,1.915-3.427,2.845-5.623,2.663a16.046,16.046,0,0,1-6.473-2.522,17.856,17.856,0,0,0-6.424-2.672c-3.3-.423-6.5,1.05-9.695,1.951a16.3,16.3,0,0,1-8.881.331c-.1-.028-.19-.064-.285-.1a4.892,4.892,0,0,1-1.2.855c-2.453,1.189-5.727-.405-7.967,1.148-1.342.931-1.809,2.675-2.794,3.977-1.818,2.4-6.2,3.1-8.716,1.413v19.879l.009,2.572h1.32A12.745,12.745,0,0,1,176.523,248.9Zm37.872-17.731a1.316,1.316,0,0,1,.5-.241c.024-.007.046-.02.07-.026l-.026.012a1.494,1.494,0,1,1-.4.186Z" transform="translate(-165.412 -222.516)" fill="#fafafa"/>
              </g>
              <g id="Group_6613" data-name="Group 6613" transform="translate(17.133 15.242)">
                <path id="Path_4201" data-name="Path 4201" d="M258.589,255.886c-1.006-.825-2.736-.617-3.93.1-1.394.837-2.485,2.162-3.986,2.788-3.7,1.544-8.081-1.755-11.838-.344-2.939,1.1-4.53,4.789-7.626,5.31-1.688.284-3.361-.48-5.062-.679a7.709,7.709,0,0,0-8.575,8.334l1.282.34a12.407,12.407,0,0,0,5.471-.344c5.1-1.724,7.876-8.217,13.224-8.835,2.965-.342,5.926,1.307,8.869.806,2.387-.407,4.288-2.138,6.26-3.543,1.939-1.381,3.875-2.7,6.077-1.888v-1.89A1.969,1.969,0,0,0,258.589,255.886Z" transform="translate(-217.544 -255.352)" fill="#0fa4ff"/>
              </g>
              <g id="Group_6615" data-name="Group 6615" transform="translate(1.445 17.575)">
                <g id="Group_6614" data-name="Group 6614">
                  <path id="Path_4202" data-name="Path 4202" d="M220.3,264.632c-1.972,1.405-3.873,3.136-6.26,3.543-2.943.5-5.9-1.149-8.869-.806-5.348.618-8.124,7.11-13.224,8.835a12.409,12.409,0,0,1-5.471.344,44.137,44.137,0,0,0-7.217-.714,12.744,12.744,0,0,0-9.782,5.719h1.3a9.7,9.7,0,0,1,4.7-2.636,9.506,9.506,0,0,1,7.668,1.478c.5.358.974.768,1.448,1.172l9.732.01c.43-.243.861-.484,1.3-.708a8.825,8.825,0,0,1,5.71-1.106,4.985,4.985,0,0,1,2.981,1.824l10.421.011a2.861,2.861,0,0,1,1.683-1.482,7.885,7.885,0,0,0,2.365-.622c.782-.551.929-1.622,1.248-2.524a5.808,5.808,0,0,1,6.346-3.633V262.743C224.179,261.936,222.243,263.251,220.3,264.632ZM211.094,279.5a3.278,3.278,0,0,1-3.263-5.673l-.259.12a2.97,2.97,0,0,1,.964-.5,2.846,2.846,0,0,1,.34-.1l-.058.027a3.285,3.285,0,0,1,2.277,6.131Zm11.56-11.82a.877.877,0,0,1-.855-1.529l-.088.041a.8.8,0,0,1,.306-.147c.015,0,.028-.012.043-.016l-.016.008a.88.88,0,0,1,.61,1.642Z" transform="translate(-169.482 -262.497)" fill="#71aefb"/>
                </g>
              </g>
              <g id="Group_6617" data-name="Group 6617" transform="translate(2.742 33.737)">
                <path id="Path_4204" data-name="Path 4204" d="M178.156,312.271a9.7,9.7,0,0,0-4.7,2.636l13.815.014c-.474-.4-.947-.814-1.448-1.172A9.506,9.506,0,0,0,178.156,312.271Z" transform="translate(-173.457 -312.012)" fill="#0fa4ff"/>
              </g>
              <g id="Group_6618" data-name="Group 6618" transform="translate(26.29 34.714)">
                <path id="Path_4205" data-name="Path 4205" d="M252.609,315.134a8.825,8.825,0,0,0-5.71,1.106c-.44.224-.871.465-1.3.708l9.991.01A4.986,4.986,0,0,0,252.609,315.134Z" transform="translate(-245.598 -315.005)" fill="#e8505b"/>
              </g>
              <g id="Group_6619" data-name="Group 6619" transform="translate(20.762 0.003)">
                <path id="Path_4206" data-name="Path 4206" d="M237.168,211.57c-1.739.129-3.6-.17-5.146.636-1.385.722-2.227,2.191-3.36,3.251.1.033.19.069.286.1a16.3,16.3,0,0,0,8.881-.331c3.2-.9,6.4-2.375,9.695-1.951a17.854,17.854,0,0,1,6.424,2.671,16.037,16.037,0,0,0,6.473,2.522c2.2.182,4.632-.748,5.622-2.663v-7.127h0l-24.988-.012C240.931,210.385,238.9,211.442,237.168,211.57Z" transform="translate(-228.662 -208.664)" fill="#0fa4ff"/>
              </g>
              <g id="Group_6620" data-name="Group 6620" transform="translate(48.569 12.892)">
                <path id="Path_4207" data-name="Path 4207" d="M313.928,250.072a1.452,1.452,0,1,0,1-1.886l.026-.012c-.024.006-.046.019-.07.026a1.317,1.317,0,0,0-.5.241l.145-.068A1.515,1.515,0,0,0,313.928,250.072Z" transform="translate(-313.854 -248.151)" fill="#0fa4ff"/>
              </g>
              <g id="Group_6621" data-name="Group 6621" transform="translate(38.328 28.368)">
                <path id="Path_4208" data-name="Path 4208" d="M284.93,295.642l.058-.027a2.83,2.83,0,0,0-.339.1,2.969,2.969,0,0,0-.964.5l.259-.12a3.252,3.252,0,1,0,.986-.458Z" transform="translate(-282.478 -295.563)" fill="#fff"/>
              </g>
              <g id="Group_6624" data-name="Group 6624" transform="translate(53.35 21.094)">
                <path id="Path_4210" data-name="Path 4210" d="M330.124,273.674a.928.928,0,0,0-.966-.374l.016-.007c-.015,0-.028.011-.043.016a.8.8,0,0,0-.306.147l.088-.041a.877.877,0,1,0,1.211.26Z" transform="translate(-328.502 -273.279)" fill="#e8505b"/>
              </g>
              <g id="Group_6625" data-name="Group 6625">
                <path id="Path_4211" data-name="Path 4211" d="M173.887,221.42c.985-1.3,1.453-3.047,2.794-3.977,2.24-1.553,5.514.041,7.967-1.148a4.891,4.891,0,0,0,1.2-.855c1.133-1.06,1.975-2.529,3.36-3.251,1.547-.806,3.406-.507,5.145-.636s3.729-1.173,3.852-2.894H165.055l.048,14.133c.022.015.046.027.068.041C167.689,224.516,172.069,223.823,173.887,221.42Z" transform="translate(-165.055 -208.655)" fill="#4bceff"/>
              </g>
            </g>
          </g>
          <g id="Group_6645" data-name="Group 6645" transform="translate(15.683 9.317)">
            <g id="Group_6633" data-name="Group 6633" transform="translate(0.374 0.512)">
              <g id="Group_6632" data-name="Group 6632">
                <path id="Path_4214" data-name="Path 4214" d="M236.729,242.636l-2.293-8.935.028.016-25.573,6.508h0l.024-.041,2.27,8.941-.04-.024,25.586-6.465-25.57,6.529-.032.008-.008-.032-2.272-8.94-.008-.033.033-.008h0l25.579-6.486.022-.006.006.022Z" transform="translate(-208.839 -233.668)" fill="#263238"/>
              </g>
            </g>
            <g id="Group_6634" data-name="Group 6634" transform="translate(27.826 8.975)">
              <rect id="Rectangle_450" data-name="Rectangle 450" width="0.683" height="0.683" transform="matrix(0.969, -0.246, 0.246, 0.969, 0, 0.168)" fill="#455a64"/>
            </g>
            <g id="Group_6635" data-name="Group 6635" transform="translate(2.271 15.562)">
              <rect id="Rectangle_451" data-name="Rectangle 451" width="0.683" height="0.683" transform="matrix(0.969, -0.246, 0.246, 0.969, 0, 0.168)" fill="#455a64"/>
            </g>
            <g id="Group_6636" data-name="Group 6636" transform="translate(25.546 0)">
              <rect id="Rectangle_452" data-name="Rectangle 452" width="0.683" height="0.683" transform="matrix(0.969, -0.246, 0.246, 0.969, 0, 0.168)" fill="#455a64"/>
            </g>
            <g id="Group_6637" data-name="Group 6637" transform="translate(12.653 3.275)">
              <rect id="Rectangle_453" data-name="Rectangle 453" width="0.683" height="0.683" transform="matrix(0.969, -0.246, 0.246, 0.969, 0, 0.168)" fill="#455a64"/>
            </g>
            <g id="Group_6638" data-name="Group 6638" transform="translate(14.933 12.25)">
              <rect id="Rectangle_454" data-name="Rectangle 454" width="0.683" height="0.683" transform="matrix(0.969, -0.246, 0.246, 0.969, 0, 0.168)" fill="#455a64"/>
            </g>
            <g id="Group_6639" data-name="Group 6639" transform="translate(1.097 10.942)">
              <rect id="Rectangle_455" data-name="Rectangle 455" width="0.683" height="0.683" transform="matrix(0.969, -0.246, 0.246, 0.969, 0, 0.168)" fill="#455a64"/>
            </g>
            <g id="Group_6640" data-name="Group 6640" transform="translate(26.675 4.445)">
              <rect id="Rectangle_456" data-name="Rectangle 456" width="0.683" height="0.683" transform="translate(0 0.168) rotate(-14.25)" fill="#455a64"/>
            </g>
            <g id="Group_6641" data-name="Group 6641" transform="translate(0 6.622)">
              <rect id="Rectangle_457" data-name="Rectangle 457" width="0.683" height="0.683" transform="translate(0 0.168) rotate(-14.253)" fill="#455a64"/>
            </g>
            <g id="Group_6642" data-name="Group 6642" transform="translate(4.634 3.865)">
              <path id="Path_4215" data-name="Path 4215" d="M223.954,252.734l-1.841.468-.222-.873,4.714-1.2.222.873-1.841.468,1.189,4.682-1.031.262Z" transform="translate(-221.891 -248.785)" fill="#263238"/>
              <path id="Path_4216" data-name="Path 4216" d="M242.932,255.177l-3.325.844a1.323,1.323,0,0,0,1.631.667,1.565,1.565,0,0,0,1.033-.753l.687.476a2.455,2.455,0,0,1-4.424-.456,2.174,2.174,0,0,1,1.64-2.723,2.132,2.132,0,0,1,2.7,1.646C242.893,254.958,242.916,255.079,242.932,255.177Zm-3.5.188,2.4-.611a1.19,1.19,0,0,0-1.461-.727A1.209,1.209,0,0,0,239.431,255.365Z" transform="translate(-233.049 -250.146)" fill="#263238"/>
              <path id="Path_4217" data-name="Path 4217" d="M255.6,252.814l-1.46-1.192-.722,1.747-1.095.278,1.1-2.57-2.11-1.686,1.1-.28,1.392,1.124.687-1.653,1.072-.272-1.061,2.475,2.209,1.745Z" transform="translate(-241.715 -246.884)" fill="#263238"/>
              <path id="Path_4218" data-name="Path 4218" d="M269.231,248.523a1.6,1.6,0,0,1-.88.528,1.343,1.343,0,0,1-1.823-1.058l-.518-2.04-.7.178-.2-.793.7-.177-.246-.968.992-.252.246.968,1.135-.288.2.794L267,245.7l.512,2.016a.567.567,0,0,0,.748.486.918.918,0,0,0,.512-.316Z" transform="translate(-251.003 -243.94)" fill="#263238"/>
            </g>
            <g id="Group_6644" data-name="Group 6644" transform="translate(2.172 7.455)">
              <g id="Group_6643" data-name="Group 6643">
                <path id="Path_4219" data-name="Path 4219" d="M239.925,254.939c0,.018-5.718,1.487-12.78,3.281s-12.793,3.234-12.8,3.215,5.717-1.487,12.782-3.281S239.92,254.92,239.925,254.939Z" transform="translate(-214.347 -254.938)" fill="#263238"/>
              </g>
            </g>
          </g>
          <g id="Group_6647" data-name="Group 6647" transform="translate(61.825 6.819)">
            <g id="Group_6646" data-name="Group 6646">
              <path id="Path_4220" data-name="Path 4220" d="M384.028,234.615a2.453,2.453,0,0,0,.512-.4,2.585,2.585,0,0,0,.633-1.712,2.927,2.927,0,0,0-.256-1.307,2.809,2.809,0,0,0-1.043-1.177,4.02,4.02,0,0,0-3.74-.191,16.633,16.633,0,0,0-3.908,2.7,11.635,11.635,0,0,1-2.239,1.466,6.9,6.9,0,0,1-2.768.625,7.31,7.31,0,0,1-5.458-2.386,6.538,6.538,0,0,1-1.528-2.831,4.389,4.389,0,0,1,.375-3.265,3.642,3.642,0,0,1,1.162-1.224,2.716,2.716,0,0,1,1.6-.462,2.363,2.363,0,0,1,1.494.683,3.257,3.257,0,0,1,.791,1.41,4.047,4.047,0,0,1-.329,3.065,4.278,4.278,0,0,1-2.315,1.85,5.7,5.7,0,0,1-2.827.214,9.24,9.24,0,0,1-2.53-.878c-1.547-.778-2.84-1.738-4.1-2.471a10.556,10.556,0,0,0-3.624-1.456,5.507,5.507,0,0,0-2.909.292,4.29,4.29,0,0,0-1.546,1.03l-.19.21-.125.163c-.067.087-.105.13-.105.13s.028-.049.091-.14l.119-.169.185-.217A4.229,4.229,0,0,1,351,227.1a5.544,5.544,0,0,1,2.948-.325,10.591,10.591,0,0,1,3.669,1.447c1.272.73,2.57,1.684,4.1,2.449a9.123,9.123,0,0,0,2.492.857,5.558,5.558,0,0,0,2.75-.215,4.121,4.121,0,0,0,2.227-1.784,3.889,3.889,0,0,0,.309-2.938,3.093,3.093,0,0,0-.75-1.337,2.2,2.2,0,0,0-1.385-.633,2.547,2.547,0,0,0-1.5.436,3.472,3.472,0,0,0-1.108,1.167,4.224,4.224,0,0,0-.357,3.139,6.377,6.377,0,0,0,1.488,2.759,7.157,7.157,0,0,0,5.333,2.341,6.753,6.753,0,0,0,2.706-.6,11.535,11.535,0,0,0,2.215-1.441,16.634,16.634,0,0,1,3.951-2.7,4.119,4.119,0,0,1,3.837.223,2.886,2.886,0,0,1,1.064,1.223,2.982,2.982,0,0,1,.249,1.343,2.592,2.592,0,0,1-.674,1.733,1.246,1.246,0,0,1-.215.188.824.824,0,0,1-.173.113C384.079,234.593,384.028,234.615,384.028,234.615Z" transform="translate(-349.056 -224.446)" fill="#263238"/>
            </g>
          </g>
          <g id="Group_6651" data-name="Group 6651" transform="translate(55.116 22.758)" opacity="0.3">
            <g id="Group_6650" data-name="Group 6650">
              <path id="Path_4222" data-name="Path 4222" d="M330.124,273.674a.928.928,0,0,0-.966-.374l.016-.007c-.015,0-.028.011-.043.016a.8.8,0,0,0-.306.147l.088-.041a.877.877,0,1,0,1.211.26Z" transform="translate(-328.502 -273.279)"/>
            </g>
          </g>
          <g id="Group_6655" data-name="Group 6655" transform="translate(28.056 36.378)" opacity="0.3">
            <g id="Group_6654" data-name="Group 6654">
              <path id="Path_4224" data-name="Path 4224" d="M252.609,315.134a8.825,8.825,0,0,0-5.71,1.106c-.44.224-.871.465-1.3.708l9.991.01A4.986,4.986,0,0,0,252.609,315.134Z" transform="translate(-245.598 -315.005)"/>
            </g>
          </g>
        </g>
        <g id="Group_6660" data-name="Group 6660" transform="translate(19.221 49.25)">
          <g id="Group_6657" data-name="Group 6657">
            <path id="Path_4225" data-name="Path 4225" d="M210.543,359.48c.9-1.611,2.967-2.176,4.81-2.112s3.659.594,5.5.508c4.209-.2,7.857-3.555,12.069-3.434,2.529.072,5,1.414,7.485.946.6-.113,1.312-.3,1.753.122a1.111,1.111,0,0,1,.038,1.384,2.99,2.99,0,0,1-1.188.9c-6.429,3.248-13.871,3.564-21.017,4.462a18.531,18.531,0,0,1-5.5.181,5.7,5.7,0,0,1-4.347-3.04" transform="translate(-210.142 -354.438)" fill="#33b2ff"/>
          </g>
        </g>
        <g id="Group_6715" data-name="Group 6715" transform="translate(0 17.773)">
          <g id="Group_6666" data-name="Group 6666" transform="translate(46.459)">
            <g id="Group_6661" data-name="Group 6661" transform="translate(1.556)">
              <path id="Path_4227" data-name="Path 4227" d="M320.81,284.056,309.154,263.5l-.95-1.837a2.764,2.764,0,0,0-2.228-1.485l-1.882-.156s.139-2.18-.879-2.008c-.656.111-3.029,2.15-2.569,2.75s1.809-.948,1.809-.948l.513,3.813s-3.575-2.08-4.151-1.958a.538.538,0,0,0-.145,1.025,10.06,10.06,0,0,1,4.1,4.4l-.01.006,8.256,18.438L308.2,287.8l3.351,8.764,7.06-4.831A5.475,5.475,0,0,0,320.81,284.056Z" transform="translate(-298.356 -258.005)" fill="#ffbe9d"/>
            </g>
            <g id="Group_6665" data-name="Group 6665" transform="translate(0 1.58)">
              <g id="Group_6662" data-name="Group 6662" transform="translate(0 0)">
                <rect id="Rectangle_458" data-name="Rectangle 458" width="0.384" height="0.068" transform="matrix(0.887, 0.462, -0.462, 0.887, 0.032, 0)" fill="#263238"/>
              </g>
              <g id="Group_6663" data-name="Group 6663" transform="translate(0.231 0.113)">
                <path id="Path_4228" data-name="Path 4228" d="M294.4,263.192l1.465.04,8.336,4.586a.628.628,0,0,1,.252.845h0a.629.629,0,0,1-.851.26l-8.274-4.422-1.006-1.144A.1.1,0,0,1,294.4,263.192Z" transform="translate(-294.297 -263.192)" fill="#263238"/>
              </g>
              <g id="Group_6664" data-name="Group 6664" transform="translate(8.373 4.097)">
                <path id="Path_4229" data-name="Path 4229" d="M320.171,275.581l-.591,1.135-.338-.176.595-1.142Z" transform="translate(-319.242 -275.397)" fill="#455a64"/>
              </g>
            </g>
          </g>
          <g id="Group_6667" data-name="Group 6667" transform="translate(0 3.256)">
            <path id="Path_4230" data-name="Path 4230" d="M173.514,271c-.586-.059-2.8,1.911-2.8,1.911l-1.093-3.94s1.465.132,1.859-.514-3.579-.584-3.67-.146a5.758,5.758,0,0,0,.229,1.627l-1.505.29a2.956,2.956,0,0,0-2.377,2.559l-.246,2.1.042.017L152.31,294.367a7.428,7.428,0,0,0,1.505,9.425l11.667,8.288,4.353-9.491-8.625-5.666,9.879-19.062s2.225-5.579,2.678-5.855A.536.536,0,0,0,173.514,271Z" transform="translate(-151.255 -267.981)" fill="#ffbe9d"/>
          </g>
          <g id="Group_6668" data-name="Group 6668" transform="translate(9.738 28.254)">
            <path id="Path_4231" data-name="Path 4231" d="M234.34,355.405l-.137-1.355a5.912,5.912,0,0,0-2.243-4.064h0a5.912,5.912,0,0,1-2.27-4.858l.019-.562-5.964,3.664a12.793,12.793,0,0,0-1.776,1.446l-.013-.029a269.742,269.742,0,0,0-31.226,2.912l-7-2.534.6.474a5.429,5.429,0,0,1-1.6,4.869h0a5.912,5.912,0,0,0-1.642,4.342l.057,1.361a40.99,40.99,0,0,0,7.225,3.751c.038.013.075.022.113.033a36.372,36.372,0,0,0,16.247,3.1c11.381-.464,20.735-6.524,21.963-7.351A68.557,68.557,0,0,0,234.34,355.405Z" transform="translate(-181.088 -344.566)" fill="#0fa4ff"/>
          </g>
          <g id="Group_6683" data-name="Group 6683" transform="translate(17.163 32.481)">
            <g id="Group_6670" data-name="Group 6670" transform="translate(0 3.766)">
              <g id="Group_6669" data-name="Group 6669">
                <path id="Path_4232" data-name="Path 4232" d="M206.055,369.051a.572.572,0,0,1,.125.1c.079.067.19.172.33.309a8.978,8.978,0,0,1,1.068,1.279,7.754,7.754,0,0,1,1.062,2.233,7.068,7.068,0,0,1,.251,3.015,5.385,5.385,0,0,1-.459,1.511,9.555,9.555,0,0,1-.752,1.258,6.577,6.577,0,0,1-1.741,1.754,5.67,5.67,0,0,1-1.508.71,4.342,4.342,0,0,1-.438.115.558.558,0,0,1-.156.025c0-.017.207-.068.573-.2a6.166,6.166,0,0,0,1.461-.747,6.649,6.649,0,0,0,1.681-1.744,9.735,9.735,0,0,0,.73-1.24,5.286,5.286,0,0,0,.441-1.466,7.047,7.047,0,0,0-.234-2.946,7.916,7.916,0,0,0-1.012-2.209,10.462,10.462,0,0,0-1.015-1.3A5.723,5.723,0,0,1,206.055,369.051Z" transform="translate(-203.837 -369.051)" fill="#263238"/>
              </g>
            </g>
            <g id="Group_6672" data-name="Group 6672" transform="translate(0.009 11.093)" opacity="0.2">
              <g id="Group_6671" data-name="Group 6671">
                <path id="Path_4233" data-name="Path 4233" d="M238.591,394.237c.922-.659.464-2-.561-2.483a4.556,4.556,0,0,0-3.311.16c-3.478,1.136-6.763,2.8-10.236,3.952s-7.27,1.767-10.78.736c-2.444-.717-4.09-2.324-6.621-2.036-1.151.131-1.513,1.6-3.217,1.95a37.329,37.329,0,0,0,7.653,2.4,35.518,35.518,0,0,0,9.549.6,42.542,42.542,0,0,0,9.65-1.938A48.218,48.218,0,0,0,238.591,394.237Z" transform="translate(-203.865 -391.5)"/>
              </g>
            </g>
            <g id="Group_6673" data-name="Group 6673" transform="translate(2.168 3.594)" opacity="0.2">
              <path id="Path_4234" data-name="Path 4234" d="M213.287,373.489s.3-3.093-1.562-4.965l-1.245.187S212.117,369.891,213.287,373.489Z" transform="translate(-210.479 -368.524)"/>
            </g>
            <g id="Group_6676" data-name="Group 6676" transform="translate(9.381)">
              <g id="Group_6674" data-name="Group 6674" transform="translate(1.513)">
                <path id="Path_4235" data-name="Path 4235" d="M237.217,357.857c-.064.169.631,7.322.631,7.322s3.627,5.062,9.329.134l.688-7.8Z" transform="translate(-237.213 -357.514)" fill="#ffbe9d"/>
              </g>
              <g id="Group_6675" data-name="Group 6675" transform="translate(0 2.629)" opacity="0.2">
                <path id="Path_4236" data-name="Path 4236" d="M234.726,370.6a21.053,21.053,0,0,1-2.148-4.867l1.382-.169.338.388Z" transform="translate(-232.578 -365.567)"/>
              </g>
            </g>
            <g id="Group_6678" data-name="Group 6678" transform="translate(32.258 0.911)">
              <g id="Group_6677" data-name="Group 6677">
                <path id="Path_4237" data-name="Path 4237" d="M311.893,369.084a.644.644,0,0,1-.139.1c-.094.059-.235.143-.421.243a6.648,6.648,0,0,1-1.671.644,4.261,4.261,0,0,1-1.242.1,5.874,5.874,0,0,1-1.4-.294,6.208,6.208,0,0,1-2.682-1.824,5.94,5.94,0,0,1-.912-1.429,10.174,10.174,0,0,1-.508-1.49,6.778,6.778,0,0,1-.2-2.647,4,4,0,0,1,.628-1.674,2.7,2.7,0,0,1,.3-.385c.075-.083.116-.124.12-.12a.669.669,0,0,1-.094.142,3.56,3.56,0,0,0-.271.4,4.144,4.144,0,0,0-.565,1.655,6.845,6.845,0,0,0,.231,2.591,10.33,10.33,0,0,0,.508,1.461,5.864,5.864,0,0,0,.889,1.387,5.635,5.635,0,0,0,5.168,2.012,7.243,7.243,0,0,0,1.666-.586C311.682,369.183,311.886,369.072,311.893,369.084Z" transform="translate(-302.665 -360.305)" fill="#263238"/>
              </g>
            </g>
            <g id="Group_6680" data-name="Group 6680" transform="translate(4.557 7.883)">
              <g id="Group_6679" data-name="Group 6679">
                <path id="Path_4238" data-name="Path 4238" d="M246.6,381.665a.276.276,0,0,1-.064.042l-.2.11-.763.41c-.331.178-.738.394-1.225.614s-1.028.5-1.655.746-1.3.546-2.05.8c-.74.282-1.55.526-2.4.787a43.708,43.708,0,0,1-5.656,1.222,45.276,45.276,0,0,1-5.773.416l-1.3-.012c-.421,0-.83-.036-1.225-.051-.791-.028-1.525-.1-2.194-.166s-1.272-.153-1.8-.218-.983-.146-1.353-.214l-.851-.157-.221-.045a.257.257,0,0,1-.074-.021.268.268,0,0,1,.077,0l.224.028.856.125c.371.058.825.129,1.355.185s1.131.15,1.8.193,1.4.123,2.19.145c.394.012.8.045,1.221.043l1.3,0a46.885,46.885,0,0,0,5.75-.427,45.2,45.2,0,0,0,5.637-1.2c.849-.256,1.658-.494,2.4-.769.749-.248,1.428-.529,2.051-.779s1.172-.509,1.661-.721.9-.418,1.235-.587l.777-.381.2-.1A.253.253,0,0,1,246.6,381.665Z" transform="translate(-217.799 -381.665)" fill="#263238"/>
              </g>
            </g>
            <g id="Group_6682" data-name="Group 6682" transform="translate(14.589 0.49)" opacity="0.2">
              <g id="Group_6681" data-name="Group 6681">
                <path id="Path_4239" data-name="Path 4239" d="M248.681,368.194a2.28,2.28,0,0,0,2.168,3.1,2.63,2.63,0,0,1,1.008.037c.382.149.594.545.846.869a3.018,3.018,0,0,0,5.4-1.721,1.061,1.061,0,0,1,.154-.668c.327-.378.915-.011,1.359.22a2.569,2.569,0,0,0,3.262-1.107,3.515,3.515,0,0,0-.289-3.606,5.684,5.684,0,0,0-3.087-2.107,5.751,5.751,0,0,1-2.241-.922c-.879-.78-.96-2.1-.977-3.276" transform="translate(-248.532 -359.016)"/>
              </g>
            </g>
          </g>
          <g id="Group_6714" data-name="Group 6714" transform="translate(25.16 15.153)">
            <g id="Group_6684" data-name="Group 6684">
              <path id="Path_4240" data-name="Path 4240" d="M244.358,309.224a11.449,11.449,0,0,1,1.335,4.623,13.959,13.959,0,0,1-2.4,9.039h0c-1.359,2.069-5.425,4.65-6.629,5s-5.994-2.633-6.962-5.987-2.211-5.389-.563-11.249c1.689-6.006,9.781-6.22,9.781-6.22s5.434,0,6.428,3.152S244.358,309.224,244.358,309.224Z" transform="translate(-228.335 -304.428)" fill="#263238"/>
            </g>
            <g id="Group_6685" data-name="Group 6685" transform="translate(3.976 9.963)">
              <path id="Path_4241" data-name="Path 4241" d="M244.005,336.512a3.88,3.88,0,0,0-2.818,6.056c.671.978,1.776,1.632,2.3,2.7a4.952,4.952,0,0,1,.149,3.2,14.483,14.483,0,0,0-.559,3.2,2.99,2.99,0,0,0,1.474,2.718,1.709,1.709,0,0,0,2.424-1.274,2.491,2.491,0,1,0,4.016-1.466,4.611,4.611,0,0,0,3.583-.4,2.426,2.426,0,0,0,.852-3.218c-.831-1.2-2.727-1.095-3.776-2.115-.867-.843-.915-2.19-.979-3.4a10.886,10.886,0,0,0-1.238-5.016,4.836,4.836,0,0,0-4.259-2.534" transform="translate(-240.517 -334.952)" fill="#263238"/>
            </g>
            <g id="Group_6687" data-name="Group 6687" transform="translate(8.454 11.152)">
              <g id="Group_6686" data-name="Group 6686">
                <path id="Path_4242" data-name="Path 4242" d="M256.368,355.487a.823.823,0,0,1-.173-.081,1.436,1.436,0,0,1-.2-.119,2.121,2.121,0,0,1-.256-.188,3.927,3.927,0,0,1-1.151-1.644,5.242,5.242,0,0,1-.326-1.359,6.517,6.517,0,0,1,.05-1.6,16.54,16.54,0,0,1,1.052-3.5,16.39,16.39,0,0,0,1.043-3.463,6.4,6.4,0,0,0,.05-1.566,5.188,5.188,0,0,0-.316-1.326,3.98,3.98,0,0,0-1.107-1.619c-.359-.3-.6-.41-.593-.427a.81.81,0,0,1,.175.077,1.41,1.41,0,0,1,.2.116,2.132,2.132,0,0,1,.259.183,3.893,3.893,0,0,1,1.176,1.625,5.186,5.186,0,0,1,.344,1.355,6.414,6.414,0,0,1-.035,1.6,15.99,15.99,0,0,1-1.039,3.5,16.988,16.988,0,0,0-1.056,3.46,6.48,6.48,0,0,0-.065,1.566,5.219,5.219,0,0,0,.3,1.33,4.008,4.008,0,0,0,1.081,1.636C256.137,355.358,256.379,355.47,256.368,355.487Z" transform="translate(-254.236 -338.593)" fill="#fafafa"/>
              </g>
            </g>
            <g id="Group_6689" data-name="Group 6689" transform="translate(9.032 10.817)">
              <g id="Group_6688" data-name="Group 6688">
                <path id="Path_4243" data-name="Path 4243" d="M262.469,353.492a.839.839,0,0,1-.2.045,3.2,3.2,0,0,1-.595.027,3.492,3.492,0,0,1-3.3-3.678,6.335,6.335,0,0,1,.456-1.867,20.057,20.057,0,0,0,.68-1.919,8.41,8.41,0,0,0,.156-3.875,6.671,6.671,0,0,0-1.338-2.866,6.091,6.091,0,0,0-1.615-1.415c-.44-.261-.708-.359-.7-.376a.917.917,0,0,1,.2.066,4.158,4.158,0,0,1,.538.253,5.83,5.83,0,0,1,1.674,1.4,6.68,6.68,0,0,1,1.4,2.91,8.452,8.452,0,0,1-.146,3.951,19.472,19.472,0,0,1-.689,1.934,6.267,6.267,0,0,0-.456,1.817,3.439,3.439,0,0,0,1.2,2.805,3.521,3.521,0,0,0,1.955.8A6.318,6.318,0,0,0,262.469,353.492Z" transform="translate(-256.007 -337.568)" fill="#455a64"/>
              </g>
            </g>
            <g id="Group_6691" data-name="Group 6691" transform="translate(7.002 9.449)">
              <g id="Group_6690" data-name="Group 6690">
                <path id="Path_4244" data-name="Path 4244" d="M253.344,334.258a4.5,4.5,0,0,0-.574-.445,1.9,1.9,0,0,0-2.8,1.045,4.536,4.536,0,0,0-.142.712c-.01,0-.03-.069-.039-.2a1.685,1.685,0,0,1,.066-.549,1.944,1.944,0,0,1,2.979-1.111,1.673,1.673,0,0,1,.409.372C253.322,334.187,253.352,334.252,253.344,334.258Z" transform="translate(-249.786 -333.377)" fill="#08f"/>
              </g>
            </g>
            <g id="Group_6693" data-name="Group 6693" transform="translate(5.561 10.635)">
              <g id="Group_6692" data-name="Group 6692">
                <path id="Path_4245" data-name="Path 4245" d="M247.264,350.024s-.044-.027-.118-.09a4.033,4.033,0,0,1-.3-.3,5.559,5.559,0,0,1-.889-1.286,5.255,5.255,0,0,1-.58-2.246,3.028,3.028,0,0,1,.285-1.357,5.5,5.5,0,0,1,.888-1.184,3.316,3.316,0,0,0,.767-1.189,2.244,2.244,0,0,0-.044-1.295,16.212,16.212,0,0,1-.753-2.183,2.076,2.076,0,0,1,.268-1.529,1.107,1.107,0,0,1,.312-.294.478.478,0,0,1,.135-.064,1.708,1.708,0,0,0-.393.4,2.065,2.065,0,0,0-.2,1.472,18.044,18.044,0,0,0,.784,2.158,2.385,2.385,0,0,1,.053,1.388,3.44,3.44,0,0,1-.8,1.253,5.45,5.45,0,0,0-.866,1.145,2.9,2.9,0,0,0-.278,1.284,5.275,5.275,0,0,0,.532,2.193,6.113,6.113,0,0,0,.831,1.3C247.127,349.872,247.274,350.013,247.264,350.024Z" transform="translate(-245.372 -337.009)" fill="#455a64"/>
              </g>
            </g>
            <g id="Group_6695" data-name="Group 6695" transform="translate(9.853 10.463)">
              <g id="Group_6694" data-name="Group 6694">
                <path id="Path_4246" data-name="Path 4246" d="M263.032,346.326a2.606,2.606,0,0,1,.021-.466c.022-.3.053-.732.066-1.266a11.222,11.222,0,0,0-.586-4.1,6.817,6.817,0,0,0-2.465-3.255,7.14,7.14,0,0,0-1.545-.755.336.336,0,0,1,.12.017,2.891,2.891,0,0,1,.336.088,4.74,4.74,0,0,1,1.156.55,6.677,6.677,0,0,1,2.558,3.3,10.6,10.6,0,0,1,.546,4.161c-.029.538-.077.971-.12,1.269A2.307,2.307,0,0,1,263.032,346.326Z" transform="translate(-258.522 -336.483)" fill="#455a64"/>
              </g>
            </g>
            <g id="Group_6697" data-name="Group 6697" transform="translate(9.089 7.27)">
              <g id="Group_6696" data-name="Group 6696">
                <path id="Path_4247" data-name="Path 4247" d="M258.49,330.531a4.3,4.3,0,0,1,.011-.767,4,4,0,0,0-.269-1.776,2.02,2.02,0,0,0-1.3-1.129,4.717,4.717,0,0,0-.746-.1,1.3,1.3,0,0,1,.776-.017,2.032,2.032,0,0,1,1.429,1.176,3.667,3.667,0,0,1,.235,1.854A2.906,2.906,0,0,1,258.49,330.531Z" transform="translate(-256.182 -326.7)" fill="#455a64"/>
              </g>
            </g>
            <g id="Group_6699" data-name="Group 6699" transform="translate(8.88 4.541)">
              <g id="Group_6698" data-name="Group 6698">
                <path id="Path_4248" data-name="Path 4248" d="M258.586,318.834a3.174,3.174,0,0,1-.449-.169,2.589,2.589,0,0,0-2.181.19,3.164,3.164,0,0,1-.413.245c-.015-.014.1-.169.349-.347a2.313,2.313,0,0,1,2.291-.2C258.46,318.685,258.6,318.818,258.586,318.834Z" transform="translate(-255.541 -318.34)" fill="#f5f5f5"/>
              </g>
            </g>
            <g id="Group_6701" data-name="Group 6701" transform="translate(9.018 3.111)">
              <g id="Group_6700" data-name="Group 6700">
                <path id="Path_4249" data-name="Path 4249" d="M262.806,315.87a7.78,7.78,0,0,0-.834-.831,4.049,4.049,0,0,0-5.2.066,7.842,7.842,0,0,0-.813.852,1,1,0,0,1,.155-.282,3.572,3.572,0,0,1,.579-.661,4.014,4.014,0,0,1,5.35-.068,3.579,3.579,0,0,1,.6.645A1.01,1.01,0,0,1,262.806,315.87Z" transform="translate(-255.963 -313.959)" fill="#455a64"/>
              </g>
            </g>
            <g id="Group_6703" data-name="Group 6703" transform="translate(8.919 0.425)">
              <g id="Group_6702" data-name="Group 6702">
                <path id="Path_4250" data-name="Path 4250" d="M260.762,305.741c0,.03-.42.054-1.066.248a5.672,5.672,0,0,0-3.7,3.44c-.241.629-.3,1.049-.326,1.044a.915.915,0,0,1,.02-.3,4.622,4.622,0,0,1,.194-.788,5.4,5.4,0,0,1,3.785-3.515,4.56,4.56,0,0,1,.8-.135A.9.9,0,0,1,260.762,305.741Z" transform="translate(-255.66 -305.731)" fill="#f5f5f5"/>
              </g>
            </g>
            <g id="Group_6705" data-name="Group 6705" transform="translate(7.899 0.4)">
              <g id="Group_6704" data-name="Group 6704">
                <path id="Path_4251" data-name="Path 4251" d="M253.542,305.653c.022.019-.18.233-.4.64a3.485,3.485,0,0,0,.033,3.436c.229.4.434.613.413.632a1.732,1.732,0,0,1-.515-.57,3.306,3.306,0,0,1-.034-3.559A1.727,1.727,0,0,1,253.542,305.653Z" transform="translate(-252.535 -305.652)" fill="#455a64"/>
              </g>
            </g>
            <g id="Group_6707" data-name="Group 6707" transform="translate(4.389 1.615)">
              <g id="Group_6706" data-name="Group 6706">
                <path id="Path_4252" data-name="Path 4252" d="M241.795,309.377a5.468,5.468,0,0,0,.251.841,3.633,3.633,0,0,0,1.388,1.539,7.623,7.623,0,0,0,1.958.807,5.718,5.718,0,0,1,.852.26,3.9,3.9,0,0,1-.882-.143,6.55,6.55,0,0,1-2.019-.78,3.48,3.48,0,0,1-1.408-1.637,2.246,2.246,0,0,1-.15-.645A.579.579,0,0,1,241.795,309.377Z" transform="translate(-241.78 -309.377)" fill="#455a64"/>
              </g>
            </g>
            <g id="Group_6709" data-name="Group 6709" transform="translate(2.751 5.84)">
              <g id="Group_6708" data-name="Group 6708">
                <path id="Path_4253" data-name="Path 4253" d="M240.9,332.365a.6.6,0,0,1-.16-.038,4.267,4.267,0,0,1-.445-.157,5.978,5.978,0,0,1-1.488-.89,5.769,5.769,0,0,1-1.579-2.027,5.2,5.2,0,0,1-.378-3.112,4.739,4.739,0,0,1,1.526-2.733,4.61,4.61,0,0,1,2.341-1.049,4.18,4.18,0,0,1,1.729.117,3.028,3.028,0,0,1,.442.166.6.6,0,0,1,.145.077c-.008.019-.212-.083-.6-.18a4.362,4.362,0,0,0-1.694-.062,4.565,4.565,0,0,0-2.255,1.048,4.634,4.634,0,0,0-1.461,2.646,5.1,5.1,0,0,0,.354,3.016,5.786,5.786,0,0,0,1.514,2,6.485,6.485,0,0,0,1.437.922C240.689,332.282,240.905,332.349,240.9,332.365Z" transform="translate(-236.763 -322.32)" fill="#455a64"/>
              </g>
            </g>
            <g id="Group_6711" data-name="Group 6711" transform="translate(0.578 5.242)">
              <g id="Group_6710" data-name="Group 6710">
                <path id="Path_4254" data-name="Path 4254" d="M235.983,334.578a1.094,1.094,0,0,1-.2-.093c-.132-.065-.324-.165-.562-.312a10.885,10.885,0,0,1-1.873-1.444,11.136,11.136,0,0,1-2.9-4.725,7.161,7.161,0,0,1-.335-2.211,4.741,4.741,0,0,1,.569-2.163,5.616,5.616,0,0,1,1.314-1.619,6.446,6.446,0,0,1,3.19-1.424,8.427,8.427,0,0,1,2.365-.028c.277.034.491.074.635.105a.112.112,0,1,1-.006.034c-.145-.02-.359-.05-.636-.074a8.961,8.961,0,0,0-2.338.081,6.407,6.407,0,0,0-3.108,1.424,5,5,0,0,0-1.814,3.667,7.064,7.064,0,0,0,.324,2.159,11.2,11.2,0,0,0,.774,1.9,11.393,11.393,0,0,0,2.052,2.791,11.817,11.817,0,0,0,1.824,1.474C235.716,334.423,235.992,334.561,235.983,334.578Z" transform="translate(-230.107 -320.488)" fill="#455a64"/>
              </g>
            </g>
            <g id="Group_6713" data-name="Group 6713" transform="translate(9.024 5.766)">
              <g id="Group_6712" data-name="Group 6712">
                <path id="Path_4255" data-name="Path 4255" d="M261.3,332.157a8.656,8.656,0,0,0,.869-1.88,6.67,6.67,0,0,0,.267-2.216,6.217,6.217,0,0,0-.72-2.62,6.324,6.324,0,0,0-3.71-3.125,3.24,3.24,0,0,0-1.491-.075c-.348.077-.525.176-.532.16s.04-.031.125-.076a2.142,2.142,0,0,1,.393-.149,3.141,3.141,0,0,1,1.535.024,5.6,5.6,0,0,1,2.036,1.026,6.613,6.613,0,0,1,1.795,2.137,6.246,6.246,0,0,1,.726,2.692,6.565,6.565,0,0,1-.308,2.259,6.248,6.248,0,0,1-.65,1.392,3.507,3.507,0,0,1-.239.342C261.337,332.123,261.3,332.161,261.3,332.157Z" transform="translate(-255.983 -322.092)" fill="#455a64"/>
              </g>
            </g>
          </g>
        </g>
      </g>
    </g>
    <g id="Windows" transform="translate(28.908 59.99)">
      <g id="Group_6720" data-name="Group 6720" transform="translate(77.71)">
        <g id="Group_6717" data-name="Group 6717" transform="translate(0.085 0.085)">
          <rect id="Rectangle_459" data-name="Rectangle 459" width="50.261" height="37.477" fill="#fff"/>
        </g>
        <g id="Group_6719" data-name="Group 6719">
          <g id="Group_6718" data-name="Group 6718">
            <path id="Path_4256" data-name="Path 4256" d="M317.329,119.628s-.005-.236-.008-.687,0-1.12-.008-1.991c0-1.745-.01-4.3-.018-7.571-.009-6.529-.021-15.89-.036-27.227l.07.07-50.257.015h0l.085-.085c0,13.466-.006,26.223-.008,37.477l-.077-.077,36.273.038,10.306.02,2.735.009.705,0c.159,0,.242,0,.242,0s-.077,0-.233,0l-.7,0-2.72.009-10.289.021-36.323.038h-.077v-.077c0-11.254-.005-24.011-.008-37.477v-.085h.089l50.257.016h.069v.07c-.015,11.355-.027,20.731-.036,27.271-.008,3.261-.014,5.814-.018,7.555,0,.865-.006,1.528-.008,1.978S317.329,119.628,317.329,119.628Z" transform="translate(-266.983 -82.066)" fill="#263238"/>
          </g>
        </g>
      </g>
      <g id="Group_6747" data-name="Group 6747" transform="translate(103.624 22.125)">
        <g id="Group_6724" data-name="Group 6724">
          <g id="Group_6721" data-name="Group 6721" transform="translate(0.085 0.085)">
            <rect id="Rectangle_460" data-name="Rectangle 460" width="30.561" height="11.881" fill="#fafafa"/>
          </g>
          <g id="Group_6723" data-name="Group 6723">
            <g id="Group_6722" data-name="Group 6722">
              <path id="Path_4257" data-name="Path 4257" d="M377.023,161.814s0-.074-.006-.214,0-.349-.006-.616c0-.545-.008-1.339-.015-2.361-.008-2.049-.018-5.012-.032-8.69l.059.059-30.559.026h0l.085-.085c0,4.154,0,8.168,0,11.881l-.082-.082,21.89.038,6.367.023,1.707.01.443.005c.1,0,.154,0,.154,0s-.047,0-.144.005l-.434,0-1.69.01-6.348.023-21.946.038h-.082v-.082c0-3.713,0-7.727,0-11.881v-.085h.087l30.559.026h.059v.059c-.013,3.693-.024,6.668-.032,8.725-.006,1.017-.011,1.806-.014,2.348,0,.262,0,.464-.007.606S377.023,161.814,377.023,161.814Z" transform="translate(-346.376 -149.849)" fill="#263238"/>
            </g>
          </g>
        </g>
        <g id="Group_6725" data-name="Group 6725" transform="translate(0.085 0.085)">
          <rect id="Rectangle_461" data-name="Rectangle 461" width="30.561" height="2.546" fill="#00578d"/>
        </g>
        <g id="Group_6726" data-name="Group 6726" transform="translate(3.717 4.572)">
          <rect id="Rectangle_462" data-name="Rectangle 462" width="3.001" height="3.001" fill="#263238"/>
        </g>
        <g id="Group_6727" data-name="Group 6727" transform="translate(5.535 6.39)">
          <rect id="Rectangle_463" data-name="Rectangle 463" width="3.001" height="3.001" fill="#263238"/>
        </g>
        <g id="Group_6728" data-name="Group 6728" transform="translate(10.871 4.572)">
          <rect id="Rectangle_464" data-name="Rectangle 464" width="3.001" height="3.001" fill="#263238"/>
        </g>
        <g id="Group_6732" data-name="Group 6732" transform="translate(12.585 6.303)">
          <g id="Group_6729" data-name="Group 6729" transform="translate(0.104 0.086)">
            <rect id="Rectangle_465" data-name="Rectangle 465" width="3.001" height="3.001" fill="#f5f5f5"/>
          </g>
          <g id="Group_6731" data-name="Group 6731">
            <g id="Group_6730" data-name="Group 6730">
              <path id="Path_4258" data-name="Path 4258" d="M388.036,172.248a1.446,1.446,0,0,1-.017-.231c-.005-.169-.011-.373-.019-.618-.014-.528-.03-1.268-.037-2.152l.073.073-3,.011.085-.085h0v.808q0,.4,0,.776c0,.5-.006.977-.008,1.416l-.073-.073c.884.007,1.624.023,2.152.037l.618.019a1.446,1.446,0,0,1,.231.017.859.859,0,0,1-.2.017l-.6.019c-.523.014-1.283.03-2.2.038h-.073v-.074c0-.439-.006-.914-.008-1.416q0-.379,0-.776v-.808h0l.085-.086,3,.012h.074v.073c-.007.916-.024,1.676-.038,2.2-.008.238-.014.437-.019.6A.864.864,0,0,1,388.036,172.248Z" transform="translate(-384.931 -169.16)" fill="#263238"/>
            </g>
          </g>
        </g>
        <g id="Group_6742" data-name="Group 6742" transform="translate(17.442 4.486)">
          <g id="Group_6736" data-name="Group 6736">
            <g id="Group_6733" data-name="Group 6733" transform="translate(0.104 0.086)">
              <rect id="Rectangle_466" data-name="Rectangle 466" width="3.001" height="3.001" fill="#f5f5f5"/>
            </g>
            <g id="Group_6735" data-name="Group 6735">
              <g id="Group_6734" data-name="Group 6734">
                <path id="Path_4259" data-name="Path 4259" d="M402.917,166.679a1.437,1.437,0,0,1-.017-.231c-.005-.169-.011-.373-.019-.618-.014-.528-.03-1.268-.037-2.152l.073.073-3,.012.084-.085h0v.407q0,.2,0,.4c0,.264,0,.524,0,.776,0,.5-.006.977-.008,1.416l-.073-.073c.884.007,1.625.024,2.152.038l.618.019a1.452,1.452,0,0,1,.231.017.861.861,0,0,1-.2.017l-.6.019c-.523.014-1.283.03-2.2.038h-.073v-.074c0-.439-.006-.914-.008-1.416,0-.252,0-.511,0-.776v-.809h0l.085-.086,3,.011h.074v.073c-.007.917-.024,1.676-.037,2.2-.008.238-.014.437-.019.6A.861.861,0,0,1,402.917,166.679Z" transform="translate(-399.812 -163.592)" fill="#263238"/>
              </g>
            </g>
          </g>
          <g id="Group_6740" data-name="Group 6740" transform="translate(1.818 1.817)">
            <g id="Group_6737" data-name="Group 6737" transform="translate(0.104 0.086)">
              <rect id="Rectangle_467" data-name="Rectangle 467" width="3.001" height="3.001" fill="#f5f5f5"/>
            </g>
            <g id="Group_6739" data-name="Group 6739">
              <g id="Group_6738" data-name="Group 6738">
                <path id="Path_4260" data-name="Path 4260" d="M408.486,172.248a1.453,1.453,0,0,1-.017-.231c-.005-.169-.012-.373-.019-.618-.014-.528-.03-1.268-.038-2.152l.073.073-3,.011.085-.085h0v.407c0,.135,0,.269,0,.4q0,.4,0,.776c0,.5-.006.977-.008,1.416l-.073-.073c.884.007,1.625.023,2.152.037l.618.019a1.45,1.45,0,0,1,.231.017.858.858,0,0,1-.2.017l-.6.019c-.523.014-1.283.03-2.2.038h-.073v-.074c0-.439-.005-.914-.009-1.416q0-.379,0-.776v-.808h0l.086-.086,3,.012h.074v.073c-.007.916-.024,1.676-.038,2.2-.008.238-.014.437-.019.6A.859.859,0,0,1,408.486,172.248Z" transform="translate(-405.38 -169.16)" fill="#263238"/>
              </g>
            </g>
          </g>
          <g id="Group_6741" data-name="Group 6741" transform="translate(1.921 1.904)">
            <rect id="Rectangle_468" data-name="Rectangle 468" width="1.184" height="1.184" fill="#263238"/>
          </g>
        </g>
        <g id="Group_6746" data-name="Group 6746" transform="translate(23.682 4.572)">
          <g id="Group_6743" data-name="Group 6743">
            <rect id="Rectangle_469" data-name="Rectangle 469" width="3.001" height="3.001" fill="#263238"/>
          </g>
          <g id="Group_6744" data-name="Group 6744" transform="translate(1.818 1.818)">
            <rect id="Rectangle_470" data-name="Rectangle 470" width="3.001" height="3.001" fill="#263238"/>
          </g>
          <g id="Group_6745" data-name="Group 6745" transform="translate(1.818 1.818)">
            <rect id="Rectangle_471" data-name="Rectangle 471" width="1.184" height="1.184" fill="#fafafa"/>
          </g>
        </g>
      </g>
      <g id="Group_6777" data-name="Group 6777" transform="translate(110.904 58.408)">
        <g id="Group_6748" data-name="Group 6748">
          <rect id="Rectangle_472" data-name="Rectangle 472" width="29.37" height="11.418" transform="translate(0.041 0.041)" fill="#fafafa"/>
          <path id="Path_4261" data-name="Path 4261" d="M398.131,272.507H368.679v-11.5h29.452Zm-29.371-.082H398.05V261.089H368.761Z" transform="translate(-368.679 -261.007)" fill="#222221"/>
        </g>
        <g id="Group_6749" data-name="Group 6749" transform="translate(0.041 0.041)">
          <rect id="Rectangle_473" data-name="Rectangle 473" width="29.37" height="2.447" fill="#00578d"/>
        </g>
        <g id="Group_6758" data-name="Group 6758" transform="translate(1.592 5.455)">
          <g id="Group_6753" data-name="Group 6753">
            <g id="Group_6750" data-name="Group 6750" transform="translate(0.104 0.086)">
              <rect id="Rectangle_474" data-name="Rectangle 474" width="2.902" height="2.902" fill="#f5f5f5"/>
            </g>
            <g id="Group_6752" data-name="Group 6752">
              <g id="Group_6751" data-name="Group 6751">
                <path id="Path_4262" data-name="Path 4262" d="M376.563,280.708a1.4,1.4,0,0,1-.017-.224c-.005-.165-.012-.363-.019-.6-.014-.51-.03-1.226-.038-2.08l.073.073-2.9.012.085-.085h0v.394c0,.131,0,.26,0,.388q0,.383,0,.75c0,.485-.006.944-.008,1.369l-.074-.073c.854.007,1.57.024,2.08.038l.6.019a1.38,1.38,0,0,1,.224.017,7.109,7.109,0,0,1-.775.036c-.505.014-1.24.03-2.127.038h-.073v-.074c0-.425-.006-.884-.009-1.369q0-.366,0-.75v-.782h0l.085-.085,2.9.011h.074v.073c-.007.887-.024,1.622-.037,2.127A7.079,7.079,0,0,1,376.563,280.708Z" transform="translate(-373.557 -277.72)" fill="#263238"/>
              </g>
            </g>
          </g>
          <g id="Group_6757" data-name="Group 6757" transform="translate(0.102 0.085)">
            <g id="Group_6754" data-name="Group 6754" transform="translate(0.001 0.001)">
              <line id="Line_5" data-name="Line 5" x1="2.902" y2="2.902" fill="#fafafa"/>
            </g>
            <g id="Group_6756" data-name="Group 6756">
              <g id="Group_6755" data-name="Group 6755">
                <path id="Path_4263" data-name="Path 4263" d="M373.872,280.883a24.839,24.839,0,0,1,2.9-2.9,24.764,24.764,0,0,1-2.9,2.9Z" transform="translate(-373.871 -277.98)" fill="#e8505b"/>
              </g>
            </g>
          </g>
        </g>
        <g id="Group_6760" data-name="Group 6760" transform="translate(5.472 5.542)">
          <g id="Group_6759" data-name="Group 6759">
            <rect id="Rectangle_475" data-name="Rectangle 475" width="2.902" height="2.902" fill="#263238"/>
          </g>
        </g>
        <g id="Group_6762" data-name="Group 6762" transform="translate(9.248 5.542)">
          <g id="Group_6761" data-name="Group 6761">
            <rect id="Rectangle_476" data-name="Rectangle 476" width="2.902" height="2.902" fill="#455a64"/>
          </g>
        </g>
        <g id="Group_6764" data-name="Group 6764" transform="translate(13.024 5.542)">
          <g id="Group_6763" data-name="Group 6763">
            <rect id="Rectangle_477" data-name="Rectangle 477" width="2.902" height="2.902" fill="#0fa4ff"/>
          </g>
        </g>
        <g id="Group_6766" data-name="Group 6766" transform="translate(16.8 5.542)">
          <g id="Group_6765" data-name="Group 6765">
            <rect id="Rectangle_478" data-name="Rectangle 478" width="2.902" height="2.902" fill="#2aa3e9"/>
          </g>
        </g>
        <g id="Group_6770" data-name="Group 6770" transform="translate(20.576 5.542)">
          <g id="Group_6769" data-name="Group 6769">
            <rect id="Rectangle_480" data-name="Rectangle 480" width="2.902" height="2.902" fill="#71aefb"/>
          </g>
        </g>
        <g id="Group_6774" data-name="Group 6774" transform="translate(24.351 5.542)">
          <g id="Group_6773" data-name="Group 6773">
            <rect id="Rectangle_482" data-name="Rectangle 482" width="2.902" height="2.902" fill="#3b22e6"/>
          </g>
        </g>
      </g>
      <g id="Group_6798" data-name="Group 6798" transform="translate(24.441)">
        <g id="Group_6791" data-name="Group 6791">
          <g id="Group_6782" data-name="Group 6782">
            <g id="Group_6781" data-name="Group 6781">
              <g id="Group_6778" data-name="Group 6778" transform="translate(0.085 0.085)">
                <rect id="Rectangle_484" data-name="Rectangle 484" width="41.069" height="28.6" fill="#fff"/>
              </g>
              <g id="Group_6780" data-name="Group 6780">
                <g id="Group_6779" data-name="Group 6779">
                  <path id="Path_4264" data-name="Path 4264" d="M144.939,110.751s0-.18-.007-.523,0-.852-.008-1.514c0-1.328-.01-3.274-.018-5.762-.008-4.974-.021-12.115-.036-20.8l.069.069-41.065.016h0l.085-.085c0,10.222-.005,19.929-.007,28.6l-.077-.077,29.6.038,8.443.021,2.244.009.58,0c.131,0,.2,0,.2,0s-.063,0-.19,0l-.571,0-2.229.009-8.425.021-29.653.039h-.078v-.078c0-8.671,0-18.378-.008-28.6v-.085h.088l41.065.017h.069v.069c-.015,8.7-.027,15.86-.036,20.844-.008,2.482-.013,4.423-.017,5.747,0,.656-.006,1.158-.008,1.5S144.939,110.751,144.939,110.751Z" transform="translate(-103.785 -82.066)" fill="#263238"/>
                </g>
              </g>
            </g>
          </g>
          <g id="Group_6784" data-name="Group 6784" transform="translate(0.085 0.085)">
            <g id="Group_6783" data-name="Group 6783">
              <rect id="Rectangle_485" data-name="Rectangle 485" width="41.069" height="3.574" fill="#00578d"/>
            </g>
          </g>
          <g id="Group_6786" data-name="Group 6786" transform="translate(1.458 1.526)">
            <g id="Group_6785" data-name="Group 6785">
              <path id="Path_4265" data-name="Path 4265" d="M109.108,87.19a.429.429,0,1,1-.429-.448A.439.439,0,0,1,109.108,87.19Z" transform="translate(-108.251 -86.742)" fill="#fff"/>
            </g>
          </g>
          <g id="Group_6788" data-name="Group 6788" transform="translate(3.196 1.526)">
            <g id="Group_6787" data-name="Group 6787">
              <path id="Path_4266" data-name="Path 4266" d="M114.433,87.19a.429.429,0,1,1-.429-.448A.439.439,0,0,1,114.433,87.19Z" transform="translate(-113.576 -86.742)" fill="#fff"/>
            </g>
          </g>
          <g id="Group_6790" data-name="Group 6790" transform="translate(4.934 1.526)">
            <g id="Group_6789" data-name="Group 6789">
              <path id="Path_4267" data-name="Path 4267" d="M119.757,87.19a.429.429,0,1,1-.429-.448A.438.438,0,0,1,119.757,87.19Z" transform="translate(-118.9 -86.742)" fill="#fff"/>
            </g>
          </g>
        </g>
        <g id="Group_6792" data-name="Group 6792" transform="translate(3.99 7.162)">
          <rect id="Rectangle_486" data-name="Rectangle 486" width="5.853" height="14.042" fill="#0da1ff"/>
        </g>
        <g id="Group_6793" data-name="Group 6793" transform="translate(13.015 7.162)">
          <rect id="Rectangle_487" data-name="Rectangle 487" width="5.853" height="14.042" fill="#ebebeb"/>
        </g>
        <g id="Group_6794" data-name="Group 6794" transform="translate(22.04 7.162)">
          <rect id="Rectangle_488" data-name="Rectangle 488" width="5.853" height="14.042" fill="#fafafa"/>
        </g>
        <g id="Group_6795" data-name="Group 6795" transform="translate(31.065 7.272)">
          <rect id="Rectangle_489" data-name="Rectangle 489" width="5.853" height="14.042" fill="#e0e0e0"/>
        </g>
        <g id="Group_6796" data-name="Group 6796" transform="translate(3.312 22.753)">
          <rect id="Rectangle_490" data-name="Rectangle 490" width="35.475" height="3.209" fill="#0fa4ff"/>
        </g>
        <g id="Group_6797" data-name="Group 6797" transform="translate(36.089 25.304)">
          <path id="Path_4268" data-name="Path 4268" d="M214.348,159.589l.763,3.863.628-1.078,1.348,1.926.674-.433-1.348-1.926,1.238-.181Z" transform="translate(-214.348 -159.589)" fill="#263238"/>
        </g>
      </g>
      <g id="Group_6820" data-name="Group 6820" transform="translate(31.693 31.999)">
        <g id="Group_6802" data-name="Group 6802">
          <g id="Group_6799" data-name="Group 6799" transform="translate(0.085 0.085)">
            <rect id="Rectangle_491" data-name="Rectangle 491" width="18.077" height="31.005" fill="#fafafa"/>
          </g>
          <g id="Group_6801" data-name="Group 6801">
            <g id="Group_6800" data-name="Group 6800">
              <path id="Path_4269" data-name="Path 4269" d="M144.167,211.191s0-.053,0-.153,0-.251,0-.443c0-.393-.006-.966-.01-1.709,0-1.494-.012-3.667-.021-6.406-.009-5.477-.023-13.218-.039-22.294l.079.079-18.075.006h0l.085-.085c-.007,11.827-.014,22.675-.02,31.005l-.066-.066,13.179.035,3.621.017.949.007c.214,0,.328.007.328.007s-.1,0-.315.007l-.936.007-3.606.017-13.219.035h-.066v-.066c-.005-8.33-.012-19.178-.019-31.005V180.1h.087l18.075.006h.079v.079c-.016,9.1-.029,16.856-.038,22.346-.009,2.732-.016,4.9-.022,6.388,0,.736-.007,1.3-.009,1.693,0,.188,0,.332,0,.434S144.167,211.191,144.167,211.191Z" transform="translate(-126.005 -180.101)" fill="#222221"/>
            </g>
          </g>
        </g>
        <g id="Group_6803" data-name="Group 6803" transform="translate(0.085 0.085)">
          <rect id="Rectangle_492" data-name="Rectangle 492" width="18.077" height="2.613" fill="#263238"/>
        </g>
        <g id="Group_6819" data-name="Group 6819" transform="translate(2.066 5.958)">
          <g id="Group_6804" data-name="Group 6804" transform="translate(2.364 0)">
            <path id="Path_4270" data-name="Path 4270" d="M139.574,198.354l.219,2.895.809-1.055,1.352-.056Z" transform="translate(-139.574 -198.354)" fill="#263238"/>
          </g>
          <g id="Group_6806" data-name="Group 6806" transform="translate(10.175)">
            <g id="Group_6805" data-name="Group 6805">
              <path id="Path_4271" data-name="Path 4271" d="M163.506,198.353s.057.037.171.118l.494.355c.426.305,1.04.746,1.744,1.271l.109.081-.136.006-1.3.057-.047,0,.039-.02-.811,1.054-.077.1-.009-.126c-.062-.857-.1-1.595-.131-2.1-.012-.227-.023-.423-.032-.592-.007-.136-.01-.207-.008-.2s.011.085.025.228c.017.174.036.374.058.607.049.515.118,1.226.184,2.056l-.087-.026.807-1.057.014-.019h.024l.047,0,1.3-.052-.027.087c-.679-.512-1.255-.963-1.673-1.29l-.493-.385C163.574,198.41,163.509,198.358,163.506,198.353Z" transform="translate(-163.505 -198.353)" fill="#263238"/>
            </g>
          </g>
          <g id="Group_6808" data-name="Group 6808" transform="translate(1.838 8.382)">
            <g id="Group_6807" data-name="Group 6807">
              <path id="Path_4272" data-name="Path 4272" d="M137.963,228.246c-.02-.02.88-.979,2.011-2.142s2.064-2.091,2.084-2.071-.88.979-2.011,2.143S137.984,228.266,137.963,228.246Z" transform="translate(-137.963 -224.032)" fill="#263238"/>
            </g>
          </g>
          <g id="Group_6810" data-name="Group 6810" transform="translate(9.099 7.724)">
            <g id="Group_6809" data-name="Group 6809">
              <path id="Path_4273" data-name="Path 4273" d="M165.5,224.753a5.134,5.134,0,0,0-.1-.645,2.7,2.7,0,0,0-.943-1.458,2.56,2.56,0,0,0-1.094-.5,2.525,2.525,0,0,0-1.369.122,2.558,2.558,0,0,0-1.192.933,2.7,2.7,0,0,0,0,3.1,2.555,2.555,0,0,0,1.192.933,2.522,2.522,0,0,0,1.369.122,2.551,2.551,0,0,0,1.094-.5,2.7,2.7,0,0,0,.943-1.458,5.16,5.16,0,0,0,.1-.645,2.215,2.215,0,0,1-.06.654,2.692,2.692,0,0,1-.937,1.505,2.611,2.611,0,0,1-3.782-.552,2.789,2.789,0,0,1,0-3.214,2.64,2.64,0,0,1,1.24-.964,2.583,2.583,0,0,1,2.541.411,2.693,2.693,0,0,1,.937,1.505A2.215,2.215,0,0,1,165.5,224.753Z" transform="translate(-160.209 -222.017)" fill="#263238"/>
            </g>
          </g>
          <g id="Group_6812" data-name="Group 6812" transform="translate(8.851 17.346)">
            <g id="Group_6811" data-name="Group 6811">
              <path id="Path_4274" data-name="Path 4274" d="M162.645,251.5a.329.329,0,0,1,.065.048l.187.156.712.611.023.02-.021.023-3.036,3.489-.012.014-.019,0-.365.056-.658.1-.071.011.014-.07c.082-.415.162-.816.237-1.2l0-.013.008-.009c.823-.968,1.541-1.793,2.062-2.368a5.429,5.429,0,0,1,.872-.873.576.576,0,0,1-.061.058c-.037.039-.1.1-.165.175-.143.155-.346.387-.6.68-.508.586-1.215,1.419-2.033,2.391l.01-.022-.233,1.2-.057-.06.658-.1.365-.055-.03.017,3.066-3.462,0,.043-.681-.625-.181-.171A.487.487,0,0,1,162.645,251.5Z" transform="translate(-159.45 -251.494)" fill="#263238"/>
            </g>
          </g>
          <g id="Group_6814" data-name="Group 6814" transform="translate(1.133 17.163)">
            <g id="Group_6813" data-name="Group 6813">
              <path id="Path_4275" data-name="Path 4275" d="M140.106,255.348a.631.631,0,0,1,0-.085l-.005-.238q0-.343-.012-.892c-.006-.785-.013-1.863-.022-3.147l.044.044-4.238.007.051-.05h0v.592q0,.295,0,.584,0,.578,0,1.128c0,.731,0,1.421-.005,2.055l-.044-.044,3.059.022.866.011.231.005a.586.586,0,0,1,.083,0,.378.378,0,0,1-.073,0l-.223,0-.856.011-3.088.023h-.044v-.044c0-.634,0-1.324-.005-2.055q0-.55,0-1.128,0-.289,0-.584v-.592h0l.051-.052,4.238.007h.045v.044c-.009,1.295-.017,2.382-.023,3.175q-.007.543-.012.882l-.005.229A.406.406,0,0,1,140.106,255.348Z" transform="translate(-135.805 -250.934)" fill="#263238"/>
            </g>
          </g>
          <g id="Group_6816" data-name="Group 6816" transform="translate(0 17.164)">
            <g id="Group_6815" data-name="Group 6815">
              <path id="Path_4276" data-name="Path 4276" d="M134.171,250.988a8.316,8.316,0,0,1-1.838,0,8.316,8.316,0,0,1,1.838,0Z" transform="translate(-132.333 -250.937)" fill="#263238"/>
            </g>
          </g>
          <g id="Group_6818" data-name="Group 6818" transform="translate(1.145 15.985)">
            <g id="Group_6817" data-name="Group 6817">
              <path id="Path_4277" data-name="Path 4277" d="M135.891,249.393a10.529,10.529,0,0,1,0-2.069,10.535,10.535,0,0,1,0,2.069Z" transform="translate(-135.84 -247.324)" fill="#263238"/>
            </g>
          </g>
        </g>
      </g>
      <g id="Group_6821" data-name="Group 6821" transform="translate(3.824 41.323)">
        <rect id="Rectangle_493" data-name="Rectangle 493" width="23.934" height="23.934" fill="#f5f5f5"/>
      </g>
      <g id="Group_6830" data-name="Group 6830" transform="translate(26.969 67.331)">
        <g id="Group_6822" data-name="Group 6822" transform="translate(0 0.999)">
          <circle id="Ellipse_176" data-name="Ellipse 176" cx="4.486" cy="4.486" r="4.486" transform="translate(0 6.345) rotate(-45)" fill="#e0e0e0"/>
        </g>
        <g id="Group_6829" data-name="Group 6829" transform="translate(1.236 0)">
          <g id="Group_6823" data-name="Group 6823" transform="translate(0)">
            <circle id="Ellipse_177" data-name="Ellipse 177" cx="3.922" cy="3.922" r="3.922" transform="translate(0 5.546) rotate(-45)" fill="#fafafa"/>
          </g>
          <g id="Group_6824" data-name="Group 6824" transform="translate(1.765 1.765)">
            <circle id="Ellipse_178" data-name="Ellipse 178" cx="3.781" cy="3.781" r="3.781" fill="#0fa4ff"/>
          </g>
          <g id="Group_6825" data-name="Group 6825" transform="translate(2.65 2.65)">
            <path id="Path_4278" data-name="Path 4278" d="M126.335,302.257a2.9,2.9,0,1,1,2.9-2.9A2.9,2.9,0,0,1,126.335,302.257Zm0-5.775a2.879,2.879,0,1,0,2.88,2.879A2.883,2.883,0,0,0,126.335,296.482Z" transform="translate(-123.439 -296.465)" fill="#263238"/>
          </g>
          <g id="Group_6827" data-name="Group 6827" transform="translate(3.561 2.857)" opacity="0.2">
            <g id="Group_6826" data-name="Group 6826">
              <path id="Path_4279" data-name="Path 4279" d="M128.522,297.145a1.873,1.873,0,1,0,1.433,2.011,1.684,1.684,0,0,0-.264-1.107,1.754,1.754,0,0,0-1.169-.9" transform="translate(-126.229 -297.099)"/>
            </g>
          </g>
          <g id="Group_6828" data-name="Group 6828" transform="translate(4.838 7.987)">
            <path id="Path_4280" data-name="Path 4280" d="M130.141,312.816l.214.295,1.153-.036.222-.259Z" transform="translate(-130.141 -312.816)" fill="#263238"/>
          </g>
        </g>
      </g>
      <g id="Group_6833" data-name="Group 6833" transform="translate(107.87 72.806)">
        <g id="Group_6831" data-name="Group 6831">
          <circle id="Ellipse_179" data-name="Ellipse 179" cx="2.394" cy="2.394" r="2.394" fill="#263238"/>
        </g>
        <g id="Group_6832" data-name="Group 6832" transform="translate(1.519 1.52)">
          <path id="Path_4281" data-name="Path 4281" d="M365.788,310.649a.875.875,0,1,1-.875-.875A.875.875,0,0,1,365.788,310.649Z" transform="translate(-364.038 -309.774)" fill="#455a64"/>
        </g>
      </g>
      <g id="Group_6937" data-name="Group 6937" transform="translate(0 44.986)">
        <g id="Group_6932" data-name="Group 6932" transform="translate(0.758 0.921)">
          <g id="Group_6835" data-name="Group 6835" transform="translate(21.802 22.649)">
            <g id="Group_6834" data-name="Group 6834">
              <path id="Path_4282" data-name="Path 4282" d="M98.025,292.179c0-.044.208-.081.464-.081s.464.036.464.081-.208.08-.464.08S98.025,292.223,98.025,292.179Z" transform="translate(-98.025 -292.098)" fill="#263238"/>
            </g>
          </g>
          <g id="Group_6837" data-name="Group 6837" transform="translate(19.947 22.649)">
            <g id="Group_6836" data-name="Group 6836">
              <path id="Path_4283" data-name="Path 4283" d="M92.343,292.179c0-.044.208-.081.464-.081s.464.036.464.081-.208.08-.464.08S92.343,292.223,92.343,292.179Z" transform="translate(-92.343 -292.098)" fill="#263238"/>
            </g>
          </g>
          <g id="Group_6839" data-name="Group 6839" transform="translate(18.093 22.649)">
            <g id="Group_6838" data-name="Group 6838">
              <path id="Path_4284" data-name="Path 4284" d="M86.661,292.179c0-.044.208-.081.464-.081s.464.036.464.081-.208.08-.464.08S86.661,292.223,86.661,292.179Z" transform="translate(-86.661 -292.098)" fill="#263238"/>
            </g>
          </g>
          <g id="Group_6841" data-name="Group 6841" transform="translate(16.239 22.649)">
            <g id="Group_6840" data-name="Group 6840">
              <path id="Path_4285" data-name="Path 4285" d="M80.98,292.179c0-.044.208-.081.464-.081s.464.036.464.081-.208.08-.464.08S80.98,292.223,80.98,292.179Z" transform="translate(-80.98 -292.098)" fill="#263238"/>
            </g>
          </g>
          <g id="Group_6843" data-name="Group 6843" transform="translate(14.384 22.649)">
            <g id="Group_6842" data-name="Group 6842">
              <path id="Path_4286" data-name="Path 4286" d="M75.3,292.179c0-.044.208-.081.464-.081s.464.036.464.081-.208.08-.464.08S75.3,292.223,75.3,292.179Z" transform="translate(-75.298 -292.098)" fill="#263238"/>
            </g>
          </g>
          <g id="Group_6845" data-name="Group 6845" transform="translate(12.529 22.649)">
            <g id="Group_6844" data-name="Group 6844">
              <path id="Path_4287" data-name="Path 4287" d="M69.616,292.179c0-.044.208-.081.464-.081s.464.036.464.081-.208.08-.464.08S69.616,292.223,69.616,292.179Z" transform="translate(-69.616 -292.098)" fill="#263238"/>
            </g>
          </g>
          <g id="Group_6847" data-name="Group 6847" transform="translate(10.675 22.649)">
            <g id="Group_6846" data-name="Group 6846">
              <path id="Path_4288" data-name="Path 4288" d="M63.934,292.179c0-.044.208-.081.464-.081s.464.036.464.081-.208.08-.464.08S63.934,292.223,63.934,292.179Z" transform="translate(-63.934 -292.098)" fill="#263238"/>
            </g>
          </g>
          <g id="Group_6849" data-name="Group 6849" transform="translate(8.82 22.649)">
            <g id="Group_6848" data-name="Group 6848">
              <path id="Path_4289" data-name="Path 4289" d="M58.253,292.179c0-.044.208-.081.464-.081s.464.036.464.081-.208.08-.464.08S58.253,292.223,58.253,292.179Z" transform="translate(-58.253 -292.098)" fill="#263238"/>
            </g>
          </g>
          <g id="Group_6851" data-name="Group 6851" transform="translate(6.966 22.649)">
            <g id="Group_6850" data-name="Group 6850">
              <path id="Path_4290" data-name="Path 4290" d="M52.571,292.179c0-.044.208-.081.464-.081s.464.036.464.081-.208.08-.464.08S52.571,292.223,52.571,292.179Z" transform="translate(-52.571 -292.098)" fill="#263238"/>
            </g>
          </g>
          <g id="Group_6853" data-name="Group 6853" transform="translate(5.111 22.649)">
            <g id="Group_6852" data-name="Group 6852">
              <path id="Path_4291" data-name="Path 4291" d="M46.889,292.179c0-.044.208-.081.464-.081s.464.036.464.081-.208.08-.464.08S46.889,292.223,46.889,292.179Z" transform="translate(-46.889 -292.098)" fill="#263238"/>
            </g>
          </g>
          <g id="Group_6855" data-name="Group 6855" transform="translate(3.257 22.649)">
            <g id="Group_6854" data-name="Group 6854">
              <path id="Path_4292" data-name="Path 4292" d="M41.208,292.179c0-.044.207-.081.463-.081s.464.036.464.081-.208.08-.464.08S41.208,292.223,41.208,292.179Z" transform="translate(-41.208 -292.098)" fill="#263238"/>
            </g>
          </g>
          <g id="Group_6857" data-name="Group 6857" transform="translate(1.402 22.649)">
            <g id="Group_6856" data-name="Group 6856">
              <path id="Path_4293" data-name="Path 4293" d="M35.526,292.179c0-.044.208-.081.464-.081s.464.036.464.081-.208.08-.464.08S35.526,292.223,35.526,292.179Z" transform="translate(-35.526 -292.098)" fill="#263238"/>
            </g>
          </g>
          <g id="Group_6859" data-name="Group 6859" transform="translate(0 22.196)">
            <g id="Group_6858" data-name="Group 6858">
              <path id="Path_4294" data-name="Path 4294" d="M31.311,290.711c.044,0,.081.208.081.464v.07l-.08-.08c.224.006.394.039.394.08s-.171.073-.394.079l-.078,0v-.151C31.231,290.919,31.267,290.711,31.311,290.711Z" transform="translate(-31.231 -290.711)" fill="#263238"/>
            </g>
          </g>
          <g id="Group_6861" data-name="Group 6861" transform="translate(0 20.342)">
            <g id="Group_6860" data-name="Group 6860">
              <path id="Path_4295" data-name="Path 4295" d="M31.311,285.03c.044,0,.081.208.081.463s-.036.464-.081.464-.08-.208-.08-.464S31.267,285.03,31.311,285.03Z" transform="translate(-31.231 -285.03)" fill="#263238"/>
            </g>
          </g>
          <g id="Group_6863" data-name="Group 6863" transform="translate(0 18.487)">
            <g id="Group_6862" data-name="Group 6862">
              <path id="Path_4296" data-name="Path 4296" d="M31.311,279.348c.044,0,.081.208.081.464s-.036.464-.081.464-.08-.208-.08-.464S31.267,279.348,31.311,279.348Z" transform="translate(-31.231 -279.348)" fill="#263238"/>
            </g>
          </g>
          <g id="Group_6865" data-name="Group 6865" transform="translate(0 16.633)">
            <g id="Group_6864" data-name="Group 6864">
              <path id="Path_4297" data-name="Path 4297" d="M31.311,273.666c.044,0,.081.208.081.464s-.036.464-.081.464-.08-.208-.08-.464S31.267,273.666,31.311,273.666Z" transform="translate(-31.231 -273.666)" fill="#263238"/>
            </g>
          </g>
          <g id="Group_6867" data-name="Group 6867" transform="translate(0 14.778)">
            <g id="Group_6866" data-name="Group 6866">
              <path id="Path_4298" data-name="Path 4298" d="M31.311,267.985c.044,0,.081.208.081.464s-.036.463-.081.463-.08-.207-.08-.463S31.267,267.985,31.311,267.985Z" transform="translate(-31.231 -267.985)" fill="#263238"/>
            </g>
          </g>
          <g id="Group_6869" data-name="Group 6869" transform="translate(0 12.924)">
            <g id="Group_6868" data-name="Group 6868">
              <path id="Path_4299" data-name="Path 4299" d="M31.311,262.3c.044,0,.081.208.081.463s-.036.464-.081.464-.08-.208-.08-.464S31.267,262.3,31.311,262.3Z" transform="translate(-31.231 -262.303)" fill="#263238"/>
            </g>
          </g>
          <g id="Group_6871" data-name="Group 6871" transform="translate(0 11.069)">
            <g id="Group_6870" data-name="Group 6870">
              <path id="Path_4300" data-name="Path 4300" d="M31.311,256.621c.044,0,.081.208.081.463s-.036.464-.081.464-.08-.208-.08-.464S31.267,256.621,31.311,256.621Z" transform="translate(-31.231 -256.621)" fill="#263238"/>
            </g>
          </g>
          <g id="Group_6873" data-name="Group 6873" transform="translate(0 9.215)">
            <g id="Group_6872" data-name="Group 6872">
              <path id="Path_4301" data-name="Path 4301" d="M31.311,250.939c.044,0,.081.208.081.464s-.036.464-.081.464-.08-.208-.08-.464S31.267,250.939,31.311,250.939Z" transform="translate(-31.231 -250.939)" fill="#263238"/>
            </g>
          </g>
          <g id="Group_6875" data-name="Group 6875" transform="translate(0 7.36)">
            <g id="Group_6874" data-name="Group 6874">
              <path id="Path_4302" data-name="Path 4302" d="M31.311,245.258c.044,0,.081.208.081.463s-.036.464-.081.464-.08-.207-.08-.464S31.267,245.258,31.311,245.258Z" transform="translate(-31.231 -245.258)" fill="#263238"/>
            </g>
          </g>
          <g id="Group_6877" data-name="Group 6877" transform="translate(0 5.506)">
            <g id="Group_6876" data-name="Group 6876">
              <path id="Path_4303" data-name="Path 4303" d="M31.311,239.576c.044,0,.081.208.081.464s-.036.464-.081.464-.08-.208-.08-.464S31.267,239.576,31.311,239.576Z" transform="translate(-31.231 -239.576)" fill="#263238"/>
            </g>
          </g>
          <g id="Group_6879" data-name="Group 6879" transform="translate(0 3.651)">
            <g id="Group_6878" data-name="Group 6878">
              <path id="Path_4304" data-name="Path 4304" d="M31.311,233.894c.044,0,.081.208.081.463s-.036.464-.081.464-.08-.208-.08-.464S31.267,233.894,31.311,233.894Z" transform="translate(-31.231 -233.894)" fill="#263238"/>
            </g>
          </g>
          <g id="Group_6881" data-name="Group 6881" transform="translate(0 1.796)">
            <g id="Group_6880" data-name="Group 6880">
              <path id="Path_4305" data-name="Path 4305" d="M31.311,228.212c.044,0,.081.208.081.464s-.036.464-.081.464-.08-.208-.08-.464S31.267,228.212,31.311,228.212Z" transform="translate(-31.231 -228.212)" fill="#263238"/>
            </g>
          </g>
          <g id="Group_6883" data-name="Group 6883" transform="translate(0 0.015)">
            <g id="Group_6882" data-name="Group 6882">
              <path id="Path_4306" data-name="Path 4306" d="M31.45,222.821c0,.023-.053.043-.139.057l.057-.057a2.016,2.016,0,0,1,.023.325c0,.256-.036.464-.081.464s-.08-.208-.08-.464a2.06,2.06,0,0,1,.023-.325l.011-.065.046.008C31.4,222.778,31.45,222.8,31.45,222.821Z" transform="translate(-31.231 -222.756)" fill="#263238"/>
            </g>
          </g>
          <g id="Group_6885" data-name="Group 6885" transform="translate(1.146)">
            <g id="Group_6884" data-name="Group 6884">
              <path id="Path_4307" data-name="Path 4307" d="M35.67,222.79c0,.044-.208.081-.463.081s-.464-.036-.464-.081.208-.081.464-.081S35.67,222.745,35.67,222.79Z" transform="translate(-34.743 -222.709)" fill="#263238"/>
            </g>
          </g>
          <g id="Group_6887" data-name="Group 6887" transform="translate(3.001)">
            <g id="Group_6886" data-name="Group 6886">
              <path id="Path_4308" data-name="Path 4308" d="M41.352,222.79c0,.044-.208.081-.464.081s-.464-.036-.464-.081.208-.081.464-.081S41.352,222.745,41.352,222.79Z" transform="translate(-40.425 -222.709)" fill="#263238"/>
            </g>
          </g>
          <g id="Group_6889" data-name="Group 6889" transform="translate(4.856)">
            <g id="Group_6888" data-name="Group 6888">
              <path id="Path_4309" data-name="Path 4309" d="M47.034,222.79c0,.044-.208.081-.464.081s-.464-.036-.464-.081.208-.081.464-.081S47.034,222.745,47.034,222.79Z" transform="translate(-46.107 -222.709)" fill="#263238"/>
            </g>
          </g>
          <g id="Group_6891" data-name="Group 6891" transform="translate(6.71)">
            <g id="Group_6890" data-name="Group 6890">
              <path id="Path_4310" data-name="Path 4310" d="M52.716,222.79c0,.044-.208.081-.464.081s-.463-.036-.463-.081.208-.081.463-.081S52.716,222.745,52.716,222.79Z" transform="translate(-51.789 -222.709)" fill="#263238"/>
            </g>
          </g>
          <g id="Group_6893" data-name="Group 6893" transform="translate(8.565)">
            <g id="Group_6892" data-name="Group 6892">
              <path id="Path_4311" data-name="Path 4311" d="M58.4,222.79c0,.044-.208.081-.463.081s-.464-.036-.464-.081.208-.081.464-.081S58.4,222.745,58.4,222.79Z" transform="translate(-57.47 -222.709)" fill="#263238"/>
            </g>
          </g>
          <g id="Group_6895" data-name="Group 6895" transform="translate(10.419)">
            <g id="Group_6894" data-name="Group 6894">
              <path id="Path_4312" data-name="Path 4312" d="M64.079,222.79c0,.044-.208.081-.463.081s-.464-.036-.464-.081.208-.081.464-.081S64.079,222.745,64.079,222.79Z" transform="translate(-63.152 -222.709)" fill="#263238"/>
            </g>
          </g>
          <g id="Group_6897" data-name="Group 6897" transform="translate(12.274)">
            <g id="Group_6896" data-name="Group 6896">
              <path id="Path_4313" data-name="Path 4313" d="M69.761,222.79c0,.044-.208.081-.464.081s-.464-.036-.464-.081.208-.081.464-.081S69.761,222.745,69.761,222.79Z" transform="translate(-68.834 -222.709)" fill="#263238"/>
            </g>
          </g>
          <g id="Group_6899" data-name="Group 6899" transform="translate(14.129)">
            <g id="Group_6898" data-name="Group 6898">
              <path id="Path_4314" data-name="Path 4314" d="M75.443,222.79c0,.044-.208.081-.464.081s-.464-.036-.464-.081.208-.081.464-.081S75.443,222.745,75.443,222.79Z" transform="translate(-74.516 -222.709)" fill="#263238"/>
            </g>
          </g>
          <g id="Group_6901" data-name="Group 6901" transform="translate(15.983)">
            <g id="Group_6900" data-name="Group 6900">
              <path id="Path_4315" data-name="Path 4315" d="M81.124,222.79c0,.044-.208.081-.464.081s-.464-.036-.464-.081.208-.081.464-.081S81.124,222.745,81.124,222.79Z" transform="translate(-80.197 -222.709)" fill="#263238"/>
            </g>
          </g>
          <g id="Group_6903" data-name="Group 6903" transform="translate(17.838)">
            <g id="Group_6902" data-name="Group 6902">
              <path id="Path_4316" data-name="Path 4316" d="M86.806,222.79c0,.044-.208.081-.464.081s-.464-.036-.464-.081.208-.081.464-.081S86.806,222.745,86.806,222.79Z" transform="translate(-85.879 -222.709)" fill="#263238"/>
            </g>
          </g>
          <g id="Group_6905" data-name="Group 6905" transform="translate(19.692)">
            <g id="Group_6904" data-name="Group 6904">
              <path id="Path_4317" data-name="Path 4317" d="M92.488,222.79c0,.044-.208.081-.464.081s-.464-.036-.464-.081.208-.081.464-.081S92.488,222.745,92.488,222.79Z" transform="translate(-91.561 -222.709)" fill="#263238"/>
            </g>
          </g>
          <g id="Group_6907" data-name="Group 6907" transform="translate(21.547)">
            <g id="Group_6906" data-name="Group 6906">
              <path id="Path_4318" data-name="Path 4318" d="M98.17,222.79c0,.044-.208.081-.463.081s-.464-.036-.464-.081.207-.081.464-.081S98.17,222.745,98.17,222.79Z" transform="translate(-97.243 -222.709)" fill="#263238"/>
            </g>
          </g>
          <g id="Group_6909" data-name="Group 6909" transform="translate(22.649 0.753)">
            <g id="Group_6908" data-name="Group 6908">
              <path id="Path_4319" data-name="Path 4319" d="M100.7,225.942c-.044,0-.081-.208-.081-.464s.036-.464.081-.464.08.208.08.464S100.744,225.942,100.7,225.942Z" transform="translate(-100.619 -225.015)" fill="#263238"/>
            </g>
          </g>
          <g id="Group_6911" data-name="Group 6911" transform="translate(22.649 2.607)">
            <g id="Group_6910" data-name="Group 6910">
              <path id="Path_4320" data-name="Path 4320" d="M100.7,231.624c-.044,0-.081-.208-.081-.463s.036-.463.081-.463.08.207.08.463S100.744,231.624,100.7,231.624Z" transform="translate(-100.619 -230.697)" fill="#263238"/>
            </g>
          </g>
          <g id="Group_6913" data-name="Group 6913" transform="translate(22.649 4.462)">
            <g id="Group_6912" data-name="Group 6912">
              <path id="Path_4321" data-name="Path 4321" d="M100.7,237.305c-.044,0-.081-.208-.081-.464s.036-.464.081-.464.08.208.08.464S100.744,237.305,100.7,237.305Z" transform="translate(-100.619 -236.378)" fill="#263238"/>
            </g>
          </g>
          <g id="Group_6915" data-name="Group 6915" transform="translate(22.649 6.316)">
            <g id="Group_6914" data-name="Group 6914">
              <path id="Path_4322" data-name="Path 4322" d="M100.7,242.987c-.044,0-.081-.208-.081-.463s.036-.464.081-.464.08.208.08.464S100.744,242.987,100.7,242.987Z" transform="translate(-100.619 -242.06)" fill="#263238"/>
            </g>
          </g>
          <g id="Group_6917" data-name="Group 6917" transform="translate(22.649 8.171)">
            <g id="Group_6916" data-name="Group 6916">
              <path id="Path_4323" data-name="Path 4323" d="M100.7,248.669c-.044,0-.081-.208-.081-.464s.036-.463.081-.463.08.208.08.463S100.744,248.669,100.7,248.669Z" transform="translate(-100.619 -247.742)" fill="#263238"/>
            </g>
          </g>
          <g id="Group_6919" data-name="Group 6919" transform="translate(22.649 10.025)">
            <g id="Group_6918" data-name="Group 6918">
              <path id="Path_4324" data-name="Path 4324" d="M100.7,254.35c-.044,0-.081-.208-.081-.463s.036-.464.081-.464.08.208.08.464S100.744,254.35,100.7,254.35Z" transform="translate(-100.619 -253.423)" fill="#263238"/>
            </g>
          </g>
          <g id="Group_6921" data-name="Group 6921" transform="translate(22.649 11.88)">
            <g id="Group_6920" data-name="Group 6920">
              <path id="Path_4325" data-name="Path 4325" d="M100.7,260.032c-.044,0-.081-.208-.081-.464s.036-.464.081-.464.08.208.08.464S100.744,260.032,100.7,260.032Z" transform="translate(-100.619 -259.105)" fill="#263238"/>
            </g>
          </g>
          <g id="Group_6923" data-name="Group 6923" transform="translate(22.649 13.735)">
            <g id="Group_6922" data-name="Group 6922">
              <path id="Path_4326" data-name="Path 4326" d="M100.7,265.714c-.044,0-.081-.208-.081-.464s.036-.464.081-.464.08.208.08.464S100.744,265.714,100.7,265.714Z" transform="translate(-100.619 -264.787)" fill="#263238"/>
            </g>
          </g>
          <g id="Group_6925" data-name="Group 6925" transform="translate(22.649 15.589)">
            <g id="Group_6924" data-name="Group 6924">
              <path id="Path_4327" data-name="Path 4327" d="M100.7,271.4c-.044,0-.081-.207-.081-.464s.036-.463.081-.463.08.207.08.463S100.744,271.4,100.7,271.4Z" transform="translate(-100.619 -270.469)" fill="#263238"/>
            </g>
          </g>
          <g id="Group_6927" data-name="Group 6927" transform="translate(22.649 17.444)">
            <g id="Group_6926" data-name="Group 6926">
              <path id="Path_4328" data-name="Path 4328" d="M100.7,277.077c-.044,0-.081-.208-.081-.464s.036-.464.081-.464.08.208.08.464S100.744,277.077,100.7,277.077Z" transform="translate(-100.619 -276.15)" fill="#263238"/>
            </g>
          </g>
          <g id="Group_6929" data-name="Group 6929" transform="translate(22.649 19.298)">
            <g id="Group_6928" data-name="Group 6928">
              <path id="Path_4329" data-name="Path 4329" d="M100.7,282.759c-.044,0-.081-.208-.081-.463s.036-.464.081-.464.08.208.08.464S100.744,282.759,100.7,282.759Z" transform="translate(-100.619 -281.832)" fill="#263238"/>
            </g>
          </g>
          <g id="Group_6931" data-name="Group 6931" transform="translate(22.649 21.153)">
            <g id="Group_6930" data-name="Group 6930">
              <path id="Path_4330" data-name="Path 4330" d="M100.7,288.441c-.044,0-.081-.208-.081-.464s.036-.464.081-.464.08.208.08.464S100.744,288.441,100.7,288.441Z" transform="translate(-100.619 -287.514)" fill="#263238"/>
            </g>
          </g>
        </g>
        <g id="Group_6933" data-name="Group 6933" transform="translate(22.649 22.583)">
          <rect id="Rectangle_494" data-name="Rectangle 494" width="1.677" height="1.677" fill="#263238"/>
        </g>
        <g id="Group_6934" data-name="Group 6934" transform="translate(0 22.812)">
          <rect id="Rectangle_495" data-name="Rectangle 495" width="1.677" height="1.677" fill="#263238"/>
        </g>
        <g id="Group_6935" data-name="Group 6935" transform="translate(22.649)">
          <rect id="Rectangle_496" data-name="Rectangle 496" width="1.677" height="1.677" fill="#263238"/>
        </g>
        <g id="Group_6936" data-name="Group 6936" transform="translate(0 0.163)">
          <rect id="Rectangle_497" data-name="Rectangle 497" width="1.677" height="1.677" fill="#263238"/>
        </g>
      </g>
    </g>
  </g>
</svg>
