<svg xmlns="http://www.w3.org/2000/svg" width="60.287" height="45.48" viewBox="0 0 60.287 45.48">
  <g id="_463002_app_application_browser_page_web_icon" data-name="463002_app_application_browser_page_web_icon" transform="translate(-7 -21)">
    <path id="Path_14297" data-name="Path 14297" d="M62,23.115a3.182,3.182,0,0,1,3.173,3.173v34.9A3.182,3.182,0,0,1,62,64.364H12.288a3.182,3.182,0,0,1-3.173-3.173v-34.9a3.182,3.182,0,0,1,3.173-3.173H62M62,21H12.288A5.3,5.3,0,0,0,7,26.288v34.9a5.3,5.3,0,0,0,5.288,5.288H62a5.3,5.3,0,0,0,5.288-5.288v-34.9A5.3,5.3,0,0,0,62,21Z" fill="#fff"/>
    <path id="Path_14298" data-name="Path 14298" d="M66.5,43.058H16.529a.529.529,0,1,1,0-1.058H66.5a.529.529,0,1,1,0,1.058Z" transform="translate(-4.24 -9.894)" fill="#fff"/>
    <path id="Path_14299" data-name="Path 14299" d="M66.5,43.058H16.529a.529.529,0,1,1,0-1.058H66.5a.529.529,0,1,1,0,1.058Z" transform="translate(-4.24 -6.087)" fill="#fff"/>
    <circle id="Ellipse_735" data-name="Ellipse 735" cx="1.587" cy="1.587" r="1.587" transform="translate(13.082 26.183)" fill="#fff"/>
    <circle id="Ellipse_736" data-name="Ellipse 736" cx="1.587" cy="1.587" r="1.587" transform="translate(17.841 26.183)" fill="#fff"/>
    <circle id="Ellipse_737" data-name="Ellipse 737" cx="1.587" cy="1.587" r="1.587" transform="translate(22.601 26.183)" fill="#fff"/>
  </g>
</svg>
