<svg xmlns="http://www.w3.org/2000/svg" width="55.517" height="44.041" viewBox="0 0 55.517 44.041">
  <g id="_4230280_fast_quick_stopwatch_time_timer_icon" data-name="4230280_fast_quick_stopwatch_time_timer_icon" transform="translate(-5 -30.5)">
    <path id="Path_14308" data-name="Path 14308" d="M18.115,106.3H6.106a1.106,1.106,0,1,0,0,2.212H18.115a1.106,1.106,0,1,0,0-2.212Z" transform="translate(0 -58.689)" fill="#fff"/>
    <path id="Path_14309" data-name="Path 14309" d="M40.337,135.2h-5.53a1.106,1.106,0,1,0,0,2.212h5.53a1.106,1.106,0,1,0,0-2.212Z" transform="translate(-22.221 -81.066)" fill="#fff"/>
    <path id="Path_14310" data-name="Path 14310" d="M28.026,164.1h-9.12a1.106,1.106,0,0,0,0,2.212h9.12a1.106,1.106,0,0,0,0-2.212Z" transform="translate(-9.911 -103.442)" fill="#fff"/>
    <path id="Path_14311" data-name="Path 14311" d="M116.678,47.069a19.041,19.041,0,0,0-3.567-5.169,17.867,17.867,0,0,0-2.3-2.032l1.445-1.919a1.113,1.113,0,1,0-1.783-1.332l-1.535,2.032a18.881,18.881,0,0,0-3.205-1.512,22.333,22.333,0,0,0-2.98-.813,19.894,19.894,0,0,0-1.986-.248V32.712H103a1.106,1.106,0,0,0,0-2.212h-6.7a1.106,1.106,0,0,0,0,2.212h2.235v3.273a19.261,19.261,0,0,0-12.664,5.327,19.3,19.3,0,0,0-4.808,7.359,19.576,19.576,0,0,0-.835,3.047,20.864,20.864,0,0,0-.339,3.115A19.329,19.329,0,0,0,92.66,73.412a22.331,22.331,0,0,0,2.98.813,19.935,19.935,0,0,0,3.07.316h.5a19.346,19.346,0,0,0,13.273-5.3,19.31,19.31,0,0,0,4.853-7.4,17.6,17.6,0,0,0,.813-3.025,18.524,18.524,0,0,0,.339-3.138A18.836,18.836,0,0,0,116.678,47.069Zm-.7,11.309h0a18.124,18.124,0,0,1-.722,2.686,17.121,17.121,0,0,1-4.289,6.546,16.6,16.6,0,0,1-4.56,3.093,16.82,16.82,0,0,1-7.607,1.58,15.781,15.781,0,0,1-2.709-.293,17.491,17.491,0,0,1-2.641-.7A17.065,17.065,0,0,1,82.163,54.857a16.058,16.058,0,0,1,.293-2.754,20.4,20.4,0,0,1,.722-2.686,17.028,17.028,0,0,1,8.849-9.639,17.146,17.146,0,0,1,7.178-1.58h.429a15.781,15.781,0,0,1,2.709.293,15.239,15.239,0,0,1,2.641.722,16.881,16.881,0,0,1,6.524,4.221,17.842,17.842,0,0,1,3.16,4.582,17.016,17.016,0,0,1,1.6,7.607A16.3,16.3,0,0,1,115.978,58.378Z" transform="translate(-57.976 0)" fill="#fff"/>
    <path id="Path_14312" data-name="Path 14312" d="M158.695,104.937l-4.763,4.312a4.873,4.873,0,0,0-.768-.384,3.031,3.031,0,0,0-.609-.158,3.175,3.175,0,0,0-.632-.068,3.888,3.888,0,0,0-1.806.384,3.571,3.571,0,0,0-1.084.745,3.841,3.841,0,0,0-.993,1.535,5.163,5.163,0,0,0-.181.632,3.223,3.223,0,0,0-.068.655,3.829,3.829,0,0,0,.384,1.806,3.473,3.473,0,0,0,.745,1.061,4,4,0,0,0,1.535.993,4.309,4.309,0,0,0,1.242.226h.113a3.955,3.955,0,0,0,1.693-.384,3.975,3.975,0,0,0,2.1-2.257,5.161,5.161,0,0,0,.181-.632,3.223,3.223,0,0,0,.068-.655,3.888,3.888,0,0,0-.384-1.806c0-.023-.023-.023-.023-.045l4.786-4.312a1.133,1.133,0,0,0,.09-1.58A1.212,1.212,0,0,0,158.695,104.937ZM153.57,113h0c-.023.09-.045.2-.068.293a1.7,1.7,0,0,1-.451.677,1.345,1.345,0,0,1-.474.316,1.9,1.9,0,0,1-.79.158c-.09,0-.2-.023-.293-.023l-.271-.068a1.7,1.7,0,0,1-.677-.451,1.807,1.807,0,0,1-.339-.474,1.924,1.924,0,0,1-.181-.79c0-.09.023-.2.023-.293.023-.09.045-.2.068-.293a1.7,1.7,0,0,1,.451-.677,1.808,1.808,0,0,1,.474-.339,1.77,1.77,0,0,1,.745-.158h.045c.09,0,.181.023.293.023l.271.068a1.56,1.56,0,0,1,.677.451,2.278,2.278,0,0,1,.339.474,1.6,1.6,0,0,1,.158.79A1.474,1.474,0,0,1,153.57,113Z" transform="translate(-110.557 -57.417)" fill="#fff"/>
  </g>
</svg>
