<svg xmlns="http://www.w3.org/2000/svg" width="55.444" height="55.443" viewBox="0 0 55.444 55.443">
  <g id="Group_68827" data-name="Group 68827" transform="translate(831.726 -0.097)">
    <path id="Path_14322" data-name="Path 14322" d="M-831.726,333.734c.139-.134.117-.326.17-.49a3.852,3.852,0,0,1,3.588-2.688,3.777,3.777,0,0,1,3.686,2.585.449.449,0,0,0,.526.369c.985-.017,1.972-.012,2.957,0a.835.835,0,0,1,.85.729.872.872,0,0,1-.566.974,1.292,1.292,0,0,1-.463.05c-.962,0-1.923.006-2.885,0a.319.319,0,0,0-.376.266,3.814,3.814,0,0,1-3.836,2.684,3.838,3.838,0,0,1-3.533-2.9c-.026-.093.008-.224-.117-.281Zm1.775.638a2.067,2.067,0,0,0,2.048,2.078,2.086,2.086,0,0,0,2.079-2.055,2.083,2.083,0,0,0-2.057-2.077A2.066,2.066,0,0,0-829.952,334.372Z" transform="translate(0 -306.564)" fill="#fff"/>
    <path id="Path_14323" data-name="Path 14323" d="M-496.929.1c.212.057.425.109.635.174a3.842,3.842,0,0,1,2.688,3.586,3.782,3.782,0,0,1-2.588,3.684.448.448,0,0,0-.368.527c.016.985.012,1.972,0,2.957a.837.837,0,0,1-.731.849.873.873,0,0,1-.973-.568,1.3,1.3,0,0,1-.047-.463c0-.962-.006-1.924,0-2.885a.319.319,0,0,0-.268-.374,3.812,3.812,0,0,1-2.683-3.836,3.839,3.839,0,0,1,2.9-3.533c.093-.026.224.008.281-.117Zm-.484,1.774A2.065,2.065,0,0,0-499.5,3.909,2.082,2.082,0,0,0-497.457,6a2.083,2.083,0,0,0,2.088-2.046A2.066,2.066,0,0,0-497.413,1.871Z" transform="translate(-306.568 0)" fill="#fff"/>
    <path id="Path_14324" data-name="Path 14324" d="M-629.923,216.073a14.169,14.169,0,0,1-14.135-14.162,14.167,14.167,0,0,1,14.188-14.144,14.167,14.167,0,0,1,14.118,14.179A14.168,14.168,0,0,1-629.923,216.073Zm-4.4-2.7-.079.045.024.024.052-.071c-.131-.037-.164-.165-.229-.259a10.542,10.542,0,0,1-1.074-1.947c-.095-.229-.187-.255-.385-.118-.345.237-.7.46-1.061.675-.192.115-.151.187,0,.295a12.466,12.466,0,0,0,2.517,1.373C-634.488,213.42-634.385,213.543-634.322,213.378Zm0-22.917c-.021-.076-.068-.083-.135-.057a12.165,12.165,0,0,0-2.673,1.46c-.152.109-.071.163.028.228.26.171.517.348.782.512.552.341.541.332.824-.23a7.663,7.663,0,0,1,1.171-1.91c-.026-.013-.007-.1-.074-.045Zm-5.507,10.579c.709,0,1.419-.006,2.128,0,.2,0,.292-.023.3-.263a23.567,23.567,0,0,1,.961-5.955.235.235,0,0,0-.139-.337,11.36,11.36,0,0,1-1.846-1.182c-.169-.132-.26-.127-.41.031a12.45,12.45,0,0,0-3.411,7.414c-.028.256.061.3.288.293C-641.247,201.033-640.537,201.041-639.828,201.041Zm-.01,1.759c-.721,0-1.443.008-2.164,0-.215,0-.274.065-.241.267.052.32.08.644.136.963a12.325,12.325,0,0,0,3.283,6.483c.132.139.218.167.38.04a11.4,11.4,0,0,1,1.877-1.2c.165-.084.176-.174.125-.342a23.7,23.7,0,0,1-.955-5.92c-.01-.244-.089-.294-.314-.29C-638.42,202.808-639.129,202.8-639.838,202.8Zm19.86-1.759c.7,0,1.4-.019,2.091.009.322.013.355-.116.311-.372-.051-.3-.077-.6-.13-.891a12.351,12.351,0,0,0-3.274-6.449c-.126-.133-.213-.181-.38-.049a11.677,11.677,0,0,1-1.875,1.2c-.156.081-.19.161-.136.337a23.878,23.878,0,0,1,.962,5.956c.009.2.063.264.268.261C-621.421,201.033-620.7,201.041-619.978,201.041Zm.027,1.759c-.721,0-1.443.008-2.164,0-.21,0-.286.039-.3.27a23.638,23.638,0,0,1-.964,5.955c-.056.183,0,.256.148.333a12.026,12.026,0,0,1,1.874,1.2c.145.114.226.1.353-.034a12.429,12.429,0,0,0,3.432-7.441c.023-.217-.02-.294-.257-.288C-618.533,202.81-619.242,202.8-619.952,202.8Zm-13.238-1.759c.709,0,1.419-.009,2.128.005.222,0,.285-.059.284-.282q-.014-2.182,0-4.364c0-.2-.053-.262-.255-.278a13.675,13.675,0,0,1-3.477-.73c-.226-.08-.258.011-.308.188a22.516,22.516,0,0,0-.807,5.182c-.009.224.046.288.272.284C-634.633,201.032-633.911,201.041-633.19,201.041Zm4.164-2.461c0,.733,0,1.467,0,2.2,0,.163.01.267.224.266q2.2-.012,4.4,0c.173,0,.227-.048.22-.226a22.671,22.671,0,0,0-.819-5.289c-.045-.16-.1-.206-.277-.143a13.566,13.566,0,0,1-3.512.736c-.223.018-.239.115-.237.293C-629.022,197.137-629.026,197.858-629.026,198.58Zm-1.757,6.68c0-.733,0-1.467,0-2.2,0-.165-.013-.266-.226-.264q-2.2.012-4.4,0c-.175,0-.226.051-.219.227a22.6,22.6,0,0,0,.819,5.289c.045.161.1.2.278.141a13.679,13.679,0,0,1,3.512-.736c.224-.017.238-.117.237-.294C-630.788,206.7-630.783,205.981-630.784,205.259Zm1.757,0c0,.721.009,1.443-.006,2.164,0,.219.058.28.275.3a13.476,13.476,0,0,1,3.442.72c.2.072.266.037.322-.163a22.851,22.851,0,0,0,.809-5.219c.008-.209-.049-.265-.255-.264q-2.164.012-4.328,0c-.206,0-.267.06-.264.265C-629.02,203.793-629.026,204.526-629.026,205.26Zm0-13.23c0,.673.014,1.347-.007,2.019-.008.269.084.32.327.294a13.679,13.679,0,0,0,2.808-.606c.182-.06.213-.122.131-.3a10.293,10.293,0,0,0-1.319-2.221,5.031,5.031,0,0,0-1.666-1.407c-.193-.1-.287-.108-.28.17C-629.014,190.659-629.027,191.344-629.027,192.029Zm0,22.1a3.042,3.042,0,0,0,1.053-.6,8.507,8.507,0,0,0,2.221-3.149c.085-.184,0-.224-.142-.272a12.891,12.891,0,0,0-2.843-.61c-.206-.021-.3.008-.294.254C-629.02,211.193-629.027,212.636-629.027,214.131Zm-1.757-24.451c-.217.108-.382.175-.532.268a7.651,7.651,0,0,0-2.76,3.557c-.072.156.031.174.141.213a12.153,12.153,0,0,0,2.876.625c.18.018.283.006.281-.229C-630.789,192.659-630.783,191.205-630.783,189.68Zm0,24.456c0-1.5-.005-2.955.005-4.408,0-.234-.1-.248-.281-.23a12.512,12.512,0,0,0-2.877.621c-.183.063-.178.129-.109.281a9.341,9.341,0,0,0,1.721,2.683A3.994,3.994,0,0,0-630.783,214.136Zm5.357-23.666a12.355,12.355,0,0,1,1.3,2.3c.078.181.171.114.277.047.364-.231.722-.471,1.093-.689.234-.138.167-.211-.012-.336a12.7,12.7,0,0,0-2.318-1.287A.374.374,0,0,0-625.427,190.471Zm-.051,23a9.9,9.9,0,0,0,1.418-.639,14.429,14.429,0,0,0,1.287-.792c.184-.125.245-.2.011-.337s-.457-.309-.692-.454c-.588-.362-.584-.357-.891.275-.157.323-.327.641-.508.951S-625.242,213.1-625.478,213.475Z" transform="translate(-174.098 -174.1)" fill="#fff"/>
    <path id="Path_14325" data-name="Path 14325" d="M-727.27,100.658a3.565,3.565,0,0,1-.435,1.763.313.313,0,0,0,.074.452c.715.7,1.416,1.408,2.121,2.114a.882.882,0,0,1,.238.99.835.835,0,0,1-.735.558.949.949,0,0,1-.8-.334c-.686-.692-1.383-1.373-2.061-2.072a.341.341,0,0,0-.485-.07,3.809,3.809,0,0,1-4.429-.668,3.831,3.831,0,0,1-.8-4.32,3.843,3.843,0,0,1,3.856-2.236A3.837,3.837,0,0,1-727.27,100.658Zm-5.892.011a2.078,2.078,0,0,0,2.079,2.053,2.077,2.077,0,0,0,2.05-2.082,2.07,2.07,0,0,0-2.079-2.05A2.071,2.071,0,0,0-733.162,100.67Z" transform="translate(-89.798 -89.728)" fill="#fff"/>
    <path id="Path_14326" data-name="Path 14326" d="M-731.17,537.715a3.488,3.488,0,0,1,1.762.437.313.313,0,0,0,.453-.076c.7-.714,1.408-1.415,2.114-2.121a.877.877,0,0,1,.99-.235.835.835,0,0,1,.554.738.956.956,0,0,1-.336.8c-.675.669-1.337,1.351-2.02,2.011a.4.4,0,0,0-.106.568,3.8,3.8,0,0,1-.684,4.4,3.826,3.826,0,0,1-4.32.8A3.832,3.832,0,0,1-735,541.172,3.844,3.844,0,0,1-731.17,537.715Zm.008,5.894a2.074,2.074,0,0,0,2.05-2.08,2.077,2.077,0,0,0-2.08-2.052,2.076,2.076,0,0,0-2.05,2.082A2.072,2.072,0,0,0-731.163,543.609Z" transform="translate(-89.718 -496.833)" fill="#fff"/>
    <path id="Path_14327" data-name="Path 14327" d="M-286.449,541.545a3.826,3.826,0,0,1-2.42,3.561,3.818,3.818,0,0,1-4.25-.992,3.782,3.782,0,0,1-.572-4.29.381.381,0,0,0-.1-.54c-.68-.663-1.349-1.339-2.019-2.013a.9.9,0,0,1-.09-1.364.9.9,0,0,1,1.339.109c.675.669,1.35,1.338,2.013,2.018a.382.382,0,0,0,.539.1A3.823,3.823,0,0,1-286.449,541.545Zm-3.847,2.063a2.069,2.069,0,0,0,2.081-2.047,2.076,2.076,0,0,0-2.048-2.084,2.079,2.079,0,0,0-2.082,2.05A2.075,2.075,0,0,0-290.3,543.608Z" transform="translate(-496.832 -496.832)" fill="#fff"/>
    <path id="Path_14328" data-name="Path 14328" d="M-290.248,104.362a3.526,3.526,0,0,1-1.761-.444.291.291,0,0,0-.423.07c-.707.722-1.425,1.433-2.142,2.145a.867.867,0,0,1-.993.217.837.837,0,0,1-.541-.748.941.941,0,0,1,.326-.768c.692-.686,1.375-1.38,2.071-2.062a.34.34,0,0,0,.092-.48,3.761,3.761,0,0,1,.458-4.214,3.656,3.656,0,0,1,4.033-1.207,3.659,3.659,0,0,1,2.713,3.259A3.821,3.821,0,0,1-290.248,104.362Zm-2.042-3.862a2.079,2.079,0,0,0,2.034,2.1,2.076,2.076,0,0,0,2.1-2.036,2.069,2.069,0,0,0-2.033-2.1A2.073,2.073,0,0,0-292.29,100.5Z" transform="translate(-496.887 -89.604)" fill="#fff"/>
    <path id="Path_14329" data-name="Path 14329" d="M-225.508,333.344c.493,0,.986-.01,1.479,0a.334.334,0,0,0,.4-.285,3.818,3.818,0,0,1,4.208-2.627,3.832,3.832,0,0,1,3.269,3.949,3.854,3.854,0,0,1-3.337,3.642,3.812,3.812,0,0,1-4.1-2.543.468.468,0,0,0-.549-.39c-.937.026-1.876.013-2.814.008a.872.872,0,0,1-.987-.9.873.873,0,0,1,.987-.861C-226.47,333.34-225.989,333.344-225.508,333.344Zm7.583.877a2.066,2.066,0,0,0-2.062-2.063,2.082,2.082,0,0,0-2.065,2.069,2.085,2.085,0,0,0,2.07,2.064A2.068,2.068,0,0,0-217.925,334.221Z" transform="translate(-560.13 -306.404)" fill="#fff"/>
    <path id="Path_14330" data-name="Path 14330" d="M-498.537,606.294c0-.505-.008-1.01,0-1.515a.854.854,0,0,1,.879-.893.851.851,0,0,1,.872.9q.015,1.515,0,3.03a.318.318,0,0,0,.272.371A3.823,3.823,0,0,1-493.9,612.6a3.843,3.843,0,0,1-3.94,3.068,3.859,3.859,0,0,1-3.624-3.359,3.818,3.818,0,0,1,2.6-4.1.4.4,0,0,0,.334-.476c-.023-.48-.007-.962-.007-1.443Zm.873,7.6a2.067,2.067,0,0,0,2.071-2.055,2.081,2.081,0,0,0-2.061-2.072,2.081,2.081,0,0,0-2.071,2.062A2.068,2.068,0,0,0-497.665,613.9Z" transform="translate(-306.344 -560.131)" fill="#fff"/>
    <path id="Path_14331" data-name="Path 14331" d="M-510.383,224.248l-.077-.042c.068-.056.048.031.075.045Z" transform="translate(-298.036 -207.887)" fill="#fff"/>
    <path id="Path_14332" data-name="Path 14332" d="M-510.417,541.94l-.052.071-.024-.024.079-.045Z" transform="translate(-298.006 -502.664)" fill="#fff"/>
  </g>
</svg>
