<svg xmlns="http://www.w3.org/2000/svg" width="40.312" height="43" viewBox="0 0 40.312 43">
  <g id="Group_68825" data-name="Group 68825" transform="translate(-274.242 -1921.625)">
    <path id="_8687830_ic_fluent_shield_lock_regular_icon" data-name="8687830_ic_fluent_shield_lock_regular_icon" d="M21.067,2.226a1.344,1.344,0,0,1,1.491,0A40.446,40.446,0,0,0,39.471,8.732a1.344,1.344,0,0,1,1.154,1.33V21.729A8.1,8.1,0,0,0,37.937,19.2V11.212a42.916,42.916,0,0,1-15.048-5.6l-1.077-.668-1.077.668a42.916,42.916,0,0,1-15.048,5.6V22.156c0,9.116,5.289,15.758,16.125,20.057v.1a5.352,5.352,0,0,0,.636,2.539l-.154.059a1.345,1.345,0,0,1-.965,0C9.2,40.245,3,32.614,3,22.156V10.062a1.344,1.344,0,0,1,1.154-1.33A40.447,40.447,0,0,0,21.067,2.226Zm7.464,26.649V26.187a5.375,5.375,0,0,1,10.75,0v2.687h1.344a2.687,2.687,0,0,1,2.687,2.687v10.75A2.687,2.687,0,0,1,40.625,45H27.187A2.687,2.687,0,0,1,24.5,42.312V31.562a2.687,2.687,0,0,1,2.687-2.687Zm2.687-2.687v2.687h5.375V26.187a2.687,2.687,0,1,0-5.375,0Zm4.7,10.75a2.016,2.016,0,1,0-2.016,2.016A2.016,2.016,0,0,0,35.922,36.937Z" transform="translate(271.242 1919.625)" fill="#fff"/>
    <path id="_8687830_ic_fluent_shield_lock_regular_icon-2" data-name="8687830_ic_fluent_shield_lock_regular_icon" d="M32.907,32.7V30.016a5.375,5.375,0,0,1,10.75,0V32.7H45a2.687,2.687,0,0,1,2.687,2.687v10.75A2.687,2.687,0,0,1,45,48.828H31.563a2.687,2.687,0,0,1-2.687-2.687V35.391A2.687,2.687,0,0,1,31.563,32.7Zm2.687-2.687V32.7h5.375V30.016a2.687,2.687,0,1,0-5.375,0Zm4.7,10.75a2.016,2.016,0,1,0-2.016,2.016A2.016,2.016,0,0,0,40.3,40.766Z" transform="translate(266.866 1915.796)" fill="#fff"/>
  </g>
</svg>
