<svg id="Group_6456" data-name="Group 6456" xmlns="http://www.w3.org/2000/svg" width="98.333" height="97.759" viewBox="0 0 98.333 97.759">
  <path id="Path_2269" data-name="Path 2269" d="M158.177,7.653a48.392,48.392,0,0,0-35.123,14.265,46.6,46.6,0,0,0-14.5,34.237,47.44,47.44,0,0,0,14.505,34.979A48.375,48.375,0,0,0,158.177,105.4a47.065,47.065,0,0,0,34.394-14.291,46.641,46.641,0,0,0,14.3-34.01,48.191,48.191,0,0,0-14.278-34.931A46.8,46.8,0,0,0,158.177,7.653ZM140.232,38.445a24.522,24.522,0,0,1,17.946-7.266,22.775,22.775,0,0,1,17.195,7.449,25.5,25.5,0,0,1,7.2,18.461,23.871,23.871,0,0,1-7.266,17.378,22.565,22.565,0,0,1-16.754,7.423,25.089,25.089,0,0,1-25.718-25.727,23.579,23.579,0,0,1,7.4-17.719Z" transform="translate(-108.542 -7.646)" fill="#fff"/>
  <path id="Path_2270" data-name="Path 2270" d="M151.5,32.643a17.9,17.9,0,1,1-17.9-17.9A17.9,17.9,0,0,1,151.5,32.643Z" transform="translate(-84.447 16.236)" fill="#fff"/>
</svg>
