<svg xmlns="http://www.w3.org/2000/svg" width="60.611" height="60.01" viewBox="0 0 60.611 60.01">
  <path id="trust" d="M13.6,49.76a2,2,0,0,1,0-2.8l3.6-3.595a1.951,1.951,0,0,1,1.4-.579,1.981,1.981,0,0,1,1.405,3.383L16.4,49.76a1.988,1.988,0,0,1-2.8,0Zm4.252,4.252a1.988,1.988,0,0,0,2.8,0l3.594-3.6a1.951,1.951,0,0,0,.579-1.4,1.981,1.981,0,0,0-3.383-1.405l-3.594,3.6a1.987,1.987,0,0,0,0,2.8ZM22.1,58.258a1.988,1.988,0,0,1,0-2.8L25.7,51.859a1.983,1.983,0,1,1,2.8,2.8c-.036.036-.066.072-.1.109q-.154.127-.308.271l-2.81,2.817a3.279,3.279,0,0,0-.271.308.509.509,0,0,0-.109.09,1.988,1.988,0,0,1-2.8,0Zm4.632,2.925a1.332,1.332,0,0,0,1.876,0l2.817-2.81a1.331,1.331,0,0,0-1.882-1.882l-2.81,2.817a1.325,1.325,0,0,0,0,1.876Zm5.651.977a1.334,1.334,0,0,1-1.87.012l1.876-1.882a1.335,1.335,0,0,1-.006,1.87Zm4.631-2.925a1.987,1.987,0,0,1-2.8,0,.889.889,0,0,0-.115-.1c-.084-.1-.169-.205-.265-.3l-.2-.2a3.392,3.392,0,0,0-.76-3.594,3.341,3.341,0,0,0-1.839-.941,3.962,3.962,0,0,0,.018-1.6,1.989,1.989,0,0,1,2.364.331l3.6,3.595a1.988,1.988,0,0,1,0,2.8Zm4.246-4.252a1.977,1.977,0,0,0,0-2.8l-3.595-3.594a1.983,1.983,0,1,0-2.8,2.8l3.594,3.594a1.975,1.975,0,0,0,1.405.579,1.951,1.951,0,0,0,1.4-.579Zm4.252-4.246a1.988,1.988,0,0,1-2.8,0l-3.594-3.6a1.981,1.981,0,1,1,2.8-2.8l3.595,3.594a1.987,1.987,0,0,1,0,2.8ZM52.18,25.625l8.432,14.6-5.434,3.142-8.431-14.6,5.434-3.142ZM32.616,30.2l-7.1,3.5a1.431,1.431,0,0,0-.8.959l-1.267,4.487a.247.247,0,0,0,.211.32l2.418.308a.239.239,0,0,0,.247-.121l1.592-2.611A3.518,3.518,0,0,1,31.3,35.316l1.2.1a3.406,3.406,0,0,1,1.785.663L42.434,42.2a3.957,3.957,0,0,1,.935.693l2.587,2.594L52.023,42l-5.687-9.855-1.508.573a4.477,4.477,0,0,1-3.082.06l-7.967-2.654a1.427,1.427,0,0,0-1.164.078ZM21.76,31.607l-7.225.085L7.979,43.054,12.164,45.5l3.588-3.588A4.024,4.024,0,0,1,22.616,45a4.017,4.017,0,0,1,4.258,4.017c0,.078,0,.151-.006.229a4.028,4.028,0,0,1,3.082,1.17c.078.078.151.163.223.247a4.043,4.043,0,0,1,2.081-.44c-.006-.078-.012-.151-.012-.229A4.017,4.017,0,0,1,36.5,45.967c-.006-.072-.006-.151-.006-.229a4.012,4.012,0,0,1,2.364-3.667l-5.8-4.348a1.369,1.369,0,0,0-.736-.265l-1.194-.1a1.5,1.5,0,0,0-1.459.754L28.074,40.72a2.271,2.271,0,0,1-2.249,1.086l-2.419-.3a2.3,2.3,0,0,1-1.924-2.913l1.261-4.481a3.5,3.5,0,0,1,1.864-2.244l3.257-1.6-.627-.326a1.474,1.474,0,0,0-1.423-.012l-2.521,1.29a3.286,3.286,0,0,1-1.532.392ZM8.431,25.625,0,40.225l5.434,3.142,8.431-14.6L8.431,25.625Zm21.874.881A11.984,11.984,0,1,0,18.322,14.522,11.984,11.984,0,0,0,30.306,26.505ZM25.758,14.57a1.021,1.021,0,0,1,1.652-1.2l1.563,2.153,5.217-4.27a1.022,1.022,0,1,1,1.3,1.58L29.437,17.79a1.034,1.034,0,0,1-.651.229.986.986,0,0,1-.826-.416Z" transform="translate(0 -2.538)" fill="#fff" fill-rule="evenodd"/>
</svg>
