<svg id="flexibility" xmlns="http://www.w3.org/2000/svg" width="48" height="48" viewBox="0 0 48 48">
  <circle id="Ellipse_746" data-name="Ellipse 746" cx="4" cy="4" r="4" transform="translate(20 26)" fill="#fff"/>
  <path id="Path_15224" data-name="Path 15224" d="M188.031,362A7.04,7.04,0,0,0,181,369.031v7.031h14.063v-7.031A7.04,7.04,0,0,0,188.031,362Z" transform="translate(-164.031 -328.062)" fill="#fff"/>
  <path id="Path_15225" data-name="Path 15225" d="M259.515,117.341,248.172,109.1v5.428h-4.219a11.112,11.112,0,0,0-10.557,7.394,6.72,6.72,0,0,1,5.875.747,5.62,5.62,0,0,1,4.681-2.515h4.219v5.428Z" transform="translate(-211.515 -98.872)" fill="#fff"/>
  <path id="Path_15226" data-name="Path 15226" d="M173.528,14.031a13.676,13.676,0,0,1,1.445.723,12.159,12.159,0,0,1,1.376.932,12.6,12.6,0,0,1,1.451-.98,13.986,13.986,0,0,1,1.354-.663V11.438h5.428L176.341,0,168.1,11.438h5.428Z" transform="translate(-152.34)" fill="#fff"/>
  <path id="Path_15227" data-name="Path 15227" d="M19.069,121.426l.17-.466a14.268,14.268,0,0,1,2.619-4.468,10.841,10.841,0,0,0-6.3-1.964H11.344V109.1L0,117.341l11.344,8.241v-5.428h4.219A5.56,5.56,0,0,1,19.069,121.426Z" transform="translate(0 -98.872)" fill="#fff"/>
</svg>
