<svg xmlns="http://www.w3.org/2000/svg" width="61.579" height="58.466" viewBox="0 0 61.579 58.466">
  <path id="best-price" d="M58.636,48.414H50.57V70.729h8.066a2.949,2.949,0,0,0,2.946-2.945V51.359a2.95,2.95,0,0,0-2.945-2.946ZM15.728,44.392A15.725,15.725,0,1,0,0,28.667,15.743,15.743,0,0,0,15.728,44.392Zm1.443-7.217v.975a1.443,1.443,0,1,1-2.887,0v-.975a4.137,4.137,0,0,1-3.215-4.028V31.355a1.443,1.443,0,0,1,2.887,0v1.792A1.246,1.246,0,0,0,15.2,34.392h1.053A1.247,1.247,0,0,0,17.5,33.147V31.355a1.247,1.247,0,0,0-1.246-1.245H15.2a4.137,4.137,0,0,1-4.132-4.131V24.187a4.136,4.136,0,0,1,3.215-4.028v-.975a1.443,1.443,0,1,1,2.887,0v.975a4.136,4.136,0,0,1,3.216,4.028v1.792a1.443,1.443,0,1,1-2.887,0V24.187a1.248,1.248,0,0,0-1.246-1.246H15.2a1.247,1.247,0,0,0-1.246,1.246v1.792A1.247,1.247,0,0,0,15.2,27.224h1.053a4.136,4.136,0,0,1,4.132,4.131v1.792a4.137,4.137,0,0,1-3.216,4.028ZM47.684,47.811V69.036A15.586,15.586,0,0,0,45.37,70.07a9.057,9.057,0,0,1-4.391,1.337h-13.5a4.062,4.062,0,0,1-3.493-6.14,4.063,4.063,0,0,1-.944-5.241,4.061,4.061,0,0,1-.944-5.241,4.063,4.063,0,0,1,2.547-7.228h7.389c-1.42-5.089-.285-9.6,3.335-13.128.03-.029.061-.058.095-.084a2.9,2.9,0,0,1,2.473-.592,2.592,2.592,0,0,1,2.147,2.468c.014,1.126.2,3.092.553,5.845a1.479,1.479,0,0,1,0,.361c-.048.381-.19,1.53,2.466,2.631a9.677,9.677,0,0,1,4.577,2.753Z" transform="translate(-0.003 -12.942)" fill="#fff" fill-rule="evenodd"/>
</svg>
