<svg xmlns="http://www.w3.org/2000/svg" width="61.769" height="50.273" viewBox="0 0 61.769 50.273">
  <g id="group" transform="translate(-1.249 -3.25)">
    <path id="Path_14329" data-name="Path 14329" d="M37.8,22.965A13.712,13.712,0,0,0,24.3,11.25H21.24a13.712,13.712,0,0,0-13.5,11.715L6.273,33.209a2.155,2.155,0,0,0,.612,1.827c.575.575,4.1,3.5,15.886,3.5s15.3-2.919,15.886-3.5a2.155,2.155,0,0,0,.612-1.827Z" transform="translate(9.368 14.982)" fill="#fff"/>
    <path id="Path_14330" data-name="Path 14330" d="M19.379,12.83a16.375,16.375,0,0,0-5.113,9.739L13.2,29.923c-8.532-.057-11.117-3.16-11.548-3.792a2.123,2.123,0,0,1-.373-1.609l.632-3.562a11.758,11.758,0,0,1,17.466-8.13Z" transform="translate(0 14.982)" fill="#fff"/>
    <path id="Path_14331" data-name="Path 14331" d="M34.538,24.522a2.123,2.123,0,0,1-.373,1.609c-.431.632-3.016,3.735-11.548,3.792l-1.063-7.354A16.375,16.375,0,0,0,16.44,12.83a11.758,11.758,0,0,1,17.466,8.13Z" transform="translate(28.448 14.982)" fill="#fff"/>
    <path id="Path_14332" data-name="Path 14332" d="M17.057,17.746a7.8,7.8,0,0,1-6.406,3.3A7.9,7.9,0,1,1,15.39,6.83a13.823,13.823,0,0,0-.431,3.447A14.392,14.392,0,0,0,17.057,17.746Z" transform="translate(2.81 3.745)" fill="#fff"/>
    <path id="Path_14333" data-name="Path 14333" d="M30.576,13.15a7.894,7.894,0,0,1-7.9,7.9,7.8,7.8,0,0,1-6.406-3.3,14.392,14.392,0,0,0,2.1-7.469,13.824,13.824,0,0,0-.431-3.447,7.9,7.9,0,0,1,12.64,6.32Z" transform="translate(28.13 3.745)" fill="#fff"/>
    <circle id="Ellipse_738" data-name="Ellipse 738" cx="10.773" cy="10.773" r="10.773" transform="translate(21.361 3.25)" fill="#fff"/>
  </g>
</svg>
