<svg xmlns="http://www.w3.org/2000/svg" width="50.713" height="51.2" viewBox="0 0 50.713 51.2">
  <g id="thumb-up" transform="translate(-2.344 -2.427)">
    <path id="Path_14335" data-name="Path 14335" d="M36.36,29.444,33.74,41.609a3.715,3.715,0,0,1-3.63,2.932H20.283c-4,0-5.717-1.495-8-3.714H9.5V25.972h1.918a20.819,20.819,0,0,0,8.063-11.609,1.82,1.82,0,0,1,1.571-1.317,5.067,5.067,0,0,1,5.318,6.377A29.662,29.662,0,0,1,24,25.97h9.556a2.871,2.871,0,0,1,2.806,3.474Z" transform="translate(6.132 9.086)" fill="#fff"/>
    <path id="Path_14336" data-name="Path 14336" d="M20.489,2.737l2.239,4.538a.554.554,0,0,0,.42.3l5.008.728a.557.557,0,0,1,.308.951L24.84,12.792a.554.554,0,0,0-.16.494l.856,4.988a.556.556,0,0,1-.808.587l-4.481-2.355a.556.556,0,0,0-.518,0l-4.481,2.355a.556.556,0,0,1-.808-.587l.856-4.988a.561.561,0,0,0-.16-.494L11.513,9.259a.557.557,0,0,1,.308-.951l5.008-.728a.559.559,0,0,0,.42-.3l2.239-4.538a.558.558,0,0,1,1,0Z" transform="translate(7.712 0)" fill="#fff"/>
    <path id="Path_14337" data-name="Path 14337" d="M29.488,5.129l2.239,4.538a.554.554,0,0,0,.42.3l5.008.728a.557.557,0,0,1,.308.951l-3.623,3.532a.554.554,0,0,0-.16.494l.856,4.988a.556.556,0,0,1-.808.587L29.249,18.9a.556.556,0,0,0-.518,0L24.25,21.251a.556.556,0,0,1-.808-.587l.856-4.988a.561.561,0,0,0-.16-.494l-3.625-3.534a.557.557,0,0,1,.308-.951L25.83,9.97a.559.559,0,0,0,.42-.3l2.239-4.538a.558.558,0,0,1,1,0Z" transform="translate(15.425 2.05)" fill="#fff"/>
    <path id="Path_14338" data-name="Path 14338" d="M11.489,5.129l2.239,4.538a.554.554,0,0,0,.42.3l5.008.728a.557.557,0,0,1,.308.951l-3.623,3.532a.554.554,0,0,0-.16.494l.856,4.988a.556.556,0,0,1-.808.587L11.25,18.9a.556.556,0,0,0-.518,0L6.251,21.251a.556.556,0,0,1-.808-.587L6.3,15.676a.561.561,0,0,0-.16-.494L2.513,11.651a.557.557,0,0,1,.308-.951l5.008-.728a.559.559,0,0,0,.422-.3L10.49,5.129a.557.557,0,0,1,1,0Z" transform="translate(0 2.05)" fill="#fff"/>
    <path id="Path_14339" data-name="Path 14339" d="M4.928,19H10.5a.929.929,0,0,1,.928.928V36.64a.929.929,0,0,1-.928.928H4.928A.929.929,0,0,1,4,36.64V19.928A.929.929,0,0,1,4.928,19Z" transform="translate(1.419 14.201)" fill="#fff"/>
  </g>
</svg>
