<svg xmlns="http://www.w3.org/2000/svg" width="47.768" height="56.758" viewBox="0 0 47.768 56.758">
  <g id="shield" transform="translate(-33.908)">
    <g id="Group_55784" data-name="Group 55784" transform="translate(33.908 0)">
      <path id="Path_14334" data-name="Path 14334" d="M81.615,14.609c-.068-1.493-.068-2.918-.068-4.344a2,2,0,0,0-2.036-2.036C71.027,8.229,64.58,5.786,59.218.56a2.094,2.094,0,0,0-2.851,0c-5.362,5.226-11.81,7.669-20.294,7.669a2,2,0,0,0-2.036,2.036c0,1.425,0,2.851-.068,4.344-.271,14.253-.679,33.8,23.144,42.012l.679.136.679-.136C82.226,48.409,81.887,28.93,81.615,14.609ZM56.164,34.36a2.19,2.19,0,0,1-1.425.543H54.67a1.91,1.91,0,0,1-1.425-.679l-6.312-6.991,3.054-2.715,4.955,5.5,11-10.452L68.72,22.55Z" transform="translate(-33.908 0)" fill="#fff"/>
    </g>
  </g>
</svg>
