<svg xmlns="http://www.w3.org/2000/svg" width="58.792" height="49.621" viewBox="0 0 58.792 49.621">
  <g id="deal" transform="translate(0 -39.938)">
    <path id="Path_14343" data-name="Path 14343" d="M189.908,58.6,179.458,40.79a1.722,1.722,0,0,0-2.347-.62l-6.262,3.616-5.641-2.075a6.369,6.369,0,0,0-.63-.194,6.3,6.3,0,0,0-4.708.652l-9.324,5.384a4.306,4.306,0,1,0,4.306,7.458L165.084,49.1a3.445,3.445,0,0,1,3.445,0S189.144,61.009,189.21,61.05l.307-.253A1.722,1.722,0,0,0,189.908,58.6Z" transform="translate(-131.352)" fill="#fdfeff"/>
    <path id="Path_14344" data-name="Path 14344" d="M55.936,83.643,35.454,71.818,25.222,77.726a7.705,7.705,0,0,1-3.863,1.042,7.8,7.8,0,0,1-2.019-.267,7.751,7.751,0,0,1-2.759-13.6l-4.223-2.438a1.723,1.723,0,0,0-2.379.677L.205,81.363a1.722,1.722,0,0,0,.657,2.306l.9.517,1.571-2.722a7.33,7.33,0,0,1,11.7-1.33A7.315,7.315,0,0,1,24.6,85.115c.056.208.1.416.138.626a7.321,7.321,0,0,1,5.427,5.239c.056.208.1.416.138.626A7.321,7.321,0,0,1,35,102.4l-2.146,3.717,4.6,2.656a3.875,3.875,0,0,0,3.875-6.713l2.983,1.722a3.875,3.875,0,0,0,3.875-6.713l1.989,1.148A3.875,3.875,0,0,0,54.049,91.5l-1.989-1.148a3.875,3.875,0,0,0,3.875-6.713Z" transform="translate(0 -19.732)" fill="#fdfeff"/>
    <path id="Path_14345" data-name="Path 14345" d="M43.154,241.977A3.875,3.875,0,0,0,37.86,243.4l1.148-1.989a3.875,3.875,0,1,0-6.712-3.875l1.148-1.989a3.875,3.875,0,1,0-6.712-3.875l-1.148,1.989a3.875,3.875,0,0,0-6.713-3.875l-4.163,7.21a3.875,3.875,0,1,0,6.712,3.875,3.875,3.875,0,1,0,6.712,3.875,3.875,3.875,0,0,0,6.713,3.875,3.875,3.875,0,1,0,6.712,3.875l3.014-5.221a3.875,3.875,0,0,0-1.418-5.294Z" transform="translate(-12.559 -166.326)" fill="#fdfeff"/>
  </g>
</svg>
