<svg xmlns="http://www.w3.org/2000/svg" width="49.833" height="49.838" viewBox="0 0 49.833 49.838">
  <g id="profits" transform="translate(-0.026)">
    <g id="Group_55786" data-name="Group 55786" transform="translate(0.026 26.379)">
      <g id="Group_55785" data-name="Group 55785">
        <path id="Path_14340" data-name="Path 14340" d="M4.5,271H1.486a1.459,1.459,0,0,0-1.46,1.46V293a1.459,1.459,0,0,0,1.46,1.46H4.5a4.385,4.385,0,0,0,4.38-4.38v-14.7A4.385,4.385,0,0,0,4.5,271Z" transform="translate(-0.026 -271)" fill="#fff"/>
      </g>
    </g>
    <g id="Group_55788" data-name="Group 55788" transform="translate(8.884)">
      <g id="Group_55787" data-name="Group 55787">
        <path id="Path_14341" data-name="Path 14341" d="M107.087,0A16.163,16.163,0,0,0,91.026,16.158a15.992,15.992,0,0,0,2.39,8.427,13.018,13.018,0,0,1,15.307,1.793h7.222a5.762,5.762,0,0,1,2.886.806,15.989,15.989,0,0,0,4.414-11.027A16.246,16.246,0,0,0,107.087,0Zm0,11.778a4.381,4.381,0,0,1,1.707,8.416c-.081.034-.165.048-.247.077V22a1.46,1.46,0,0,1-2.92,0V20.274a5.685,5.685,0,0,1-2.152-1.321,1.46,1.46,0,0,1,2.033-2.1,2,2,0,0,0,2.146.647,1.461,1.461,0,0,0-.567-2.806,4.381,4.381,0,0,1-1.5-8.5c.013,0,.026,0,.039-.007V4.38a1.46,1.46,0,0,1,2.92,0v1.8a6.063,6.063,0,0,1,2.671,1.907,1.459,1.459,0,1,1-2.236,1.876,2.247,2.247,0,0,0-2.394-1.017,1.461,1.461,0,0,0,.5,2.833Z" transform="translate(-91.026)" fill="#fff"/>
      </g>
    </g>
    <g id="Group_55790" data-name="Group 55790" transform="translate(11.804 25.806)">
      <g id="Group_55789" data-name="Group 55789">
        <path id="Path_14342" data-name="Path 14342" d="M157.889,266.239a2.911,2.911,0,0,0-3.855.38l-7.885,9.812a3.529,3.529,0,0,1-2.161.934h-9.822a1.46,1.46,0,1,1,0-2.92h8.858a2.92,2.92,0,0,0,0-5.84h-7.748c-.728,0-1.091-.461-1.665-.964a9.69,9.69,0,0,0-2.891-1.781,10.227,10.227,0,0,0-9.7,1.1v19.266h22a8.89,8.89,0,0,0,7.009-3.6l8.468-12.265A2.942,2.942,0,0,0,157.889,266.239Z" transform="translate(-121.026 -265.111)" fill="#fff"/>
      </g>
    </g>
  </g>
</svg>
