<svg xmlns="http://www.w3.org/2000/svg" width="26.341" height="19.878" viewBox="0 0 26.341 19.878">
  <g id="layer1" transform="translate(-27.873 -115.591)">
    <path id="rect6094-5-9" d="M41.04,115.593a11,11,0,0,0-9.922,6.244c-.092-.009-.181-.029-.275-.029a2.963,2.963,0,0,0-2.969,2.969v3.67a2.963,2.963,0,0,0,2.969,2.969c.094,0,.183-.02.275-.029.118.245.241.489.379.728a.821.821,0,1,0,1.424-.815,9.381,9.381,0,1,1,16.246,0l-.025.041-.016.041s-1.107,2.449-3.281,2.449l-2.751-.025a1.409,1.409,0,0,0-1.164-.639H40.157a1.433,1.433,0,0,0-1.435,1.437c0,.491.311.863,1.024.863h6.1c3.262,0,4.672-3.2,4.737-3.35v-.009c.137-.237.257-.481.375-.724.1.009.189.029.288.029a2.963,2.963,0,0,0,2.969-2.969v-3.67a2.963,2.963,0,0,0-2.969-2.969,1.978,1.978,0,0,0-.277.029,10.982,10.982,0,0,0-9.928-6.244Zm-3.579,5.217a2.037,2.037,0,0,0-1.733.631,7.965,7.965,0,0,0-2.2,5.458c0,1.713.572,3.632,1.537,3.7,1.374.1,3.541-.8,5.981-.8,2.586,0,4.867,1.012,6.22.773.82-.145,1.3-2.105,1.3-3.672a7.967,7.967,0,0,0-2.2-5.458c-1.361-1.433-3.24,0-5.317,0-1.3,0-2.518-.561-3.583-.631Zm-.3,3.53a1.374,1.374,0,1,1-1.374,1.374A1.374,1.374,0,0,1,37.156,124.34Zm7.776,0a1.374,1.374,0,1,1-1.374,1.374A1.374,1.374,0,0,1,44.932,124.34Z" transform="translate(0)" fill="#318fee" fill-rule="evenodd"/>
  </g>
</svg>
