<svg xmlns="http://www.w3.org/2000/svg" width="32" height="32" viewBox="0 0 32 32">
  <g id="Group_11" data-name="Group 11" transform="translate(-1354 -776)">
    <circle id="Ellipse_6" data-name="Ellipse 6" cx="16" cy="16" r="16" transform="translate(1354 776)" fill="#318fee"/>
    <g id="layer1" transform="translate(1332.573 669.199)">
      <path id="rect6094-5-9" d="M37.425,115.592a7.978,7.978,0,0,0-7.2,4.529c-.067-.006-.131-.021-.2-.021a2.149,2.149,0,0,0-2.154,2.154v2.662a2.15,2.15,0,0,0,2.154,2.154c.068,0,.133-.015.2-.021.086.178.175.355.275.528a.6.6,0,1,0,1.033-.591,6.8,6.8,0,1,1,11.785,0l-.018.03-.012.03s-.8,1.776-2.38,1.776l-2-.018a1.022,1.022,0,0,0-.844-.464H36.784a1.04,1.04,0,0,0-1.041,1.043c0,.356.226.626.743.626h4.425a4.023,4.023,0,0,0,3.436-2.43v-.006c.1-.172.187-.349.272-.525.07.006.137.021.209.021a2.149,2.149,0,0,0,2.154-2.154v-2.662a2.149,2.149,0,0,0-2.154-2.154,1.435,1.435,0,0,0-.2.021,7.966,7.966,0,0,0-7.2-4.529Zm-2.6,3.785a1.477,1.477,0,0,0-1.257.458,5.778,5.778,0,0,0-1.6,3.96c0,1.242.415,2.635,1.115,2.685,1,.072,2.569-.582,4.339-.582,1.876,0,3.531.734,4.512.56.595-.105.943-1.527.943-2.664a5.779,5.779,0,0,0-1.6-3.96c-.987-1.039-2.351,0-3.857,0-.941,0-1.826-.407-2.6-.458Zm-.221,2.561a1,1,0,1,1-1,1A1,1,0,0,1,34.608,121.938Zm5.641,0a1,1,0,1,1-1,1A1,1,0,0,1,40.248,121.938Z" transform="translate(0 0)" fill="#fff" fill-rule="evenodd"/>
    </g>
  </g>
</svg>
