<svg xmlns="http://www.w3.org/2000/svg" width="42.111" height="42.203" viewBox="0 0 42.111 42.203">
  <g id="Group_68957" data-name="Group 68957" transform="translate(-1.983 -1.892)">
    <path id="Path_47566" data-name="Path 47566" d="M528.643,207.8q8.048,0,16.1,0a4.712,4.712,0,0,1,4.816,3.752,5.5,5.5,0,0,1,.112,1.16q.009,16.177,0,32.353a4.7,4.7,0,0,1-3.712,4.8,5.72,5.72,0,0,1-1.245.124q-16.1.01-32.194,0a4.736,4.736,0,0,1-4.954-4.98q0-16.132,0-32.264a4.716,4.716,0,0,1,3.734-4.833,6.325,6.325,0,0,1,1.336-.117Q520.639,207.8,528.643,207.8Zm19.08,7.685h-.637q-6.882,0-13.764,0a5.866,5.866,0,0,1-5.739-3.933c-.174-.477-.347-.957-.477-1.447-.082-.311-.24-.377-.539-.377-4.708.009-9.416,0-14.123.008a2.763,2.763,0,0,0-2.949,2.947q-.006,16.221,0,32.442a2.764,2.764,0,0,0,2.953,2.943q16.163.005,32.326,0a3.581,3.581,0,0,0,.8-.067,2.792,2.792,0,0,0,2.169-2.95q0-14.536,0-29.072C547.744,215.833,547.732,215.687,547.722,215.488Zm.044-1.933a11.406,11.406,0,0,0-.09-1.62,2.747,2.747,0,0,0-2.872-2.2q-7.662-.006-15.325,0h-.437c.508,2.577,2.145,3.859,4.434,3.834,4.555-.049,9.111-.014,13.667-.014Z" transform="translate(-505.58 -205.909)" fill="#222872"/>
    <path id="Path_47570" data-name="Path 47570" d="M589.418,240.867a.922.922,0,0,1-.92.947.944.944,0,0,1-.977-.944.963.963,0,0,1,.974-.955A.944.944,0,0,1,589.418,240.867Z" transform="translate(-575.959 -234.175)" fill="#222872"/>
    <path id="Path_47571" data-name="Path 47571" d="M620.5,241.813a.925.925,0,0,1-.951-.962.945.945,0,0,1,.937-.939.964.964,0,0,1,.959.97A.948.948,0,0,1,620.5,241.813Z" transform="translate(-604.153 -234.173)" fill="#222872"/>
    <path id="Path_47572" data-name="Path 47572" d="M556.509,241.815a.949.949,0,0,1-.95-.929.956.956,0,0,1,1.912-.034A.951.951,0,0,1,556.509,241.815Z" transform="translate(-547.825 -234.175)" fill="#222872"/>
    <path id="Path_51802" data-name="Path 51802" d="M10.876,0A10.874,10.874,0,1,0,21.749,10.874,10.886,10.886,0,0,0,10.876,0ZM1.1,10.874A9.737,9.737,0,0,1,1.945,6.9L6.609,19.673A9.779,9.779,0,0,1,1.1,10.874Zm9.777,9.778a9.772,9.772,0,0,1-2.762-.4l2.933-8.524,3.006,8.233a.822.822,0,0,0,.07.135,9.763,9.763,0,0,1-3.247.554ZM12.223,6.29c.588-.031,1.119-.093,1.119-.093a.4.4,0,0,0-.063-.805s-1.583.124-2.606.124c-.96,0-2.575-.124-2.575-.124a.4.4,0,0,0-.062.805s.5.062,1.025.093l1.523,4.174-2.14,6.417L4.885,6.29C5.475,6.26,6,6.2,6,6.2a.4.4,0,0,0-.063-.8s-1.583.124-2.606.124c-.184,0-.4,0-.629-.012A9.774,9.774,0,0,1,17.478,3.664c-.042,0-.083-.008-.127-.008a1.693,1.693,0,0,0-1.642,1.735,4.577,4.577,0,0,0,.96,2.293,5.148,5.148,0,0,1,.806,2.7,11.807,11.807,0,0,1-.744,3.161L15.756,16.8Zm3.568,13.035,2.986-8.634a9.217,9.217,0,0,0,.743-3.5,7.432,7.432,0,0,0-.066-1.005,9.778,9.778,0,0,1-3.664,13.142Z" transform="translate(12.163 12.119)" fill="#009eff"/>
  </g>
</svg>
