<svg xmlns="http://www.w3.org/2000/svg" width="735.177" height="557.217" viewBox="0 0 735.177 557.217">
  <g id="Group_70237" data-name="Group 70237" transform="translate(-186.796 -4467.231)">
    <g id="Group_70236" data-name="Group 70236" transform="translate(163.407 4333.621)">
      <g id="Group_70115" data-name="Group 70115" transform="translate(23.388 522.683)">
        <ellipse id="Ellipse_977" data-name="Ellipse 977" cx="367.589" cy="44.003" rx="367.589" ry="44.003" fill="#d9e4f5"/>
      </g>
      <g id="Group_70121" data-name="Group 70121" transform="translate(46.604 183.975)">
        <g id="Group_70120" data-name="Group 70120">
          <g id="Group_70119" data-name="Group 70119">
            <g id="Group_70117" data-name="Group 70117" transform="translate(53.654)">
              <g id="Group_70116" data-name="Group 70116">
                <rect id="Rectangle_27689" data-name="Rectangle 27689" width="574.368" height="356.141" rx="14.037" fill="#3b3e7d"/>
                <path id="Path_50817" data-name="Path 50817" d="M644.4,276.038V424.713a23.128,23.128,0,0,1-23.131,23.131H93.168a23.128,23.128,0,0,1-23.131-23.131V276.038Z" transform="translate(-70.037 -91.704)" fill="#18285d"/>
              </g>
              <path id="Path_50818" data-name="Path 50818" d="M608.864,193.6V471.975a14.83,14.83,0,0,1-14.831,14.834H100.353a14.781,14.781,0,0,1-9.169-3.172,15.057,15.057,0,0,1-1.862-1.748,14.738,14.738,0,0,1-3.8-9.913V193.6a14.837,14.837,0,0,1,14.834-14.832h493.68a14.707,14.707,0,0,1,7.5,2.038,14.829,14.829,0,0,1,7.328,12.794Z" transform="translate(-60.007 -154.718)" fill="#fff"/>
            </g>
            <path id="Path_50819" data-name="Path 50819" d="M719.152,372.785v1.981a45.071,45.071,0,0,1-45.075,45.077H82.552a45.075,45.075,0,0,1-45.075-45.077v-1.981Z" transform="translate(-37.477 -29.026)" fill="#021147"/>
            <path id="Path_50820" data-name="Path 50820" d="M197.951,372.785v.453c0,3.569,2.391,6.463,5.339,6.463H342.451c2.948,0,5.337-2.894,5.337-6.463v-.453Z" transform="translate(66.486 -29.026)" fill="#fff"/>
            <g id="Group_70118" data-name="Group 70118" transform="translate(79.168 24.05)">
              <path id="Path_50821" data-name="Path 50821" d="M608.86,193.6v16.422H85.52V193.6a14.846,14.846,0,0,1,14.834-14.834H594.033A14.846,14.846,0,0,1,608.86,193.6Z" transform="translate(-85.52 -178.769)" fill="#d9e4f5"/>
              <rect id="Rectangle_27690" data-name="Rectangle 27690" width="280.145" height="8.304" rx="0.754" transform="translate(118.064 12.278)" fill="#fff"/>
              <path id="Path_50822" data-name="Path 50822" d="M119.57,190.4v3.078a1.146,1.146,0,0,1-1.72.992l-2.666-1.537-2.665-1.539a1.148,1.148,0,0,1,0-1.987l2.665-1.537,2.666-1.539a1.147,1.147,0,0,1,1.72.992Z" transform="translate(-68.401 -173.971)" fill="#3b3e7d"/>
              <path id="Path_50823" data-name="Path 50823" d="M124.988,190.4v3.078a1.146,1.146,0,0,0,1.72.992l2.666-1.537,2.665-1.539a1.148,1.148,0,0,0,0-1.987l-2.665-1.537-2.666-1.539a1.147,1.147,0,0,0-1.72.992Z" transform="translate(-59.951 -173.971)" fill="#3b3e7d"/>
            </g>
            <path id="Path_50824" data-name="Path 50824" d="M605.134,185.115H87.143A14.8,14.8,0,0,1,99.3,178.769H592.981A14.775,14.775,0,0,1,605.134,185.115Z" transform="translate(-5.301 -154.719)" fill="#b9d2f0"/>
          </g>
        </g>
      </g>
      <g id="Group_70130" data-name="Group 70130" transform="translate(289.996 133.61)">
        <g id="Group_70127" data-name="Group 70127">
          <g id="Group_70122" data-name="Group 70122">
            <rect id="Rectangle_27691" data-name="Rectangle 27691" width="165.875" height="35.979" rx="9.92" fill="#007eff"/>
          </g>
          <g id="Group_70126" data-name="Group 70126" transform="translate(137.444 7.3)">
            <g id="Group_70125" data-name="Group 70125">
              <g id="Group_70124" data-name="Group 70124">
                <g id="Group_70123" data-name="Group 70123">
                  <path id="Path_50825" data-name="Path 50825" d="M279.276,138.04a10.69,10.69,0,1,0,10.69,10.69A10.7,10.7,0,0,0,279.276,138.04Zm.43,14.636v-3.744h4.833a14.1,14.1,0,0,1-.572,3.744Zm3.029,4.266a11.917,11.917,0,0,0,1.857-3.406h3.256a9.787,9.787,0,0,1-6.4,4.78A10.889,10.889,0,0,0,282.735,156.942Zm.941-3.406a10.975,10.975,0,0,1-1.6,2.847,8.954,8.954,0,0,1-2.373,2.165l0-5.013Zm-3.97-10.07V138.91c.127,0,.255.013.382.025a13.335,13.335,0,0,1,3.352,4.532Zm4.673,0a13.982,13.982,0,0,0-1.44-2.625,14.587,14.587,0,0,0-1.351-1.668,9.893,9.893,0,0,1,5.987,4.293Zm-4.673,4.606v-3.746h4.085a12.252,12.252,0,0,1,.743,3.746Zm5.687,0a13.186,13.186,0,0,0-.689-3.746h3.36a9.726,9.726,0,0,1,1.02,3.746Zm3.711.86a9.709,9.709,0,0,1-.826,3.744h-3.414a15.152,15.152,0,0,0,.534-3.744Zm-15.313,3.744h-3.515a9.711,9.711,0,0,1-.826-3.744h3.8A15.075,15.075,0,0,0,273.79,152.676Zm1.42-9.21a13.169,13.169,0,0,1,1.195-2.114,12.742,12.742,0,0,1,2.169-2.427c.091-.007.181-.012.274-.015v4.556Zm3.637.86v3.746H274.12a12.36,12.36,0,0,1,.742-3.746Zm-7.867-.86a9.863,9.863,0,0,1,6.113-4.321,14.366,14.366,0,0,0-1.381,1.7,14.172,14.172,0,0,0-1.44,2.625Zm7.867,5.466v3.744h-4.162a14.041,14.041,0,0,1-.57-3.744Zm-9.378-.86a9.715,9.715,0,0,1,1.022-3.746h3.459a13.186,13.186,0,0,0-.69,3.746Zm4.593,5.464a11.878,11.878,0,0,0,1.857,3.406,10.688,10.688,0,0,0,1.318,1.4,9.924,9.924,0,0,1-6.532-4.808Zm4.785,0v4.952a10.111,10.111,0,0,1-3.867-4.952Z" transform="translate(-268.588 -138.04)" fill="#fff"/>
                </g>
              </g>
            </g>
          </g>
        </g>
        <g id="Group_70129" data-name="Group 70129" transform="translate(7.162 6.665)">
          <g id="Group_70128" data-name="Group 70128">
            <path id="Path_50826" data-name="Path 50826" d="M303.493,138.706a10.165,10.165,0,0,1,0,20.329H200.743a10.165,10.165,0,1,1,0-20.329h102.75m0-1.051H200.743a11.216,11.216,0,1,0,0,22.432h102.75a11.216,11.216,0,0,0,0-22.432Z" transform="translate(-189.526 -137.655)" fill="#fff"/>
          </g>
        </g>
      </g>
      <g id="Group_70149" data-name="Group 70149" transform="translate(187.947 263.505)">
        <g id="Group_70132" data-name="Group 70132" transform="translate(0 0)">
          <rect id="Rectangle_27692" data-name="Rectangle 27692" width="404.195" height="211.293" rx="7.316" transform="translate(0)" fill="#d9e4f5"/>
          <path id="Path_50827" data-name="Path 50827" d="M527.446,224.493v8.788h-404.2v-8.788a12.057,12.057,0,0,1,12.056-12.056H515.389A12.058,12.058,0,0,1,527.446,224.493Z" transform="translate(-123.251 -212.437)" fill="#b4cae3"/>
          <g id="Group_70131" data-name="Group 70131" transform="translate(357.196 6.13)">
            <path id="Path_50828" data-name="Path 50828" d="M348.189,220.244a4.087,4.087,0,1,1-4.087-4.087A4.087,4.087,0,0,1,348.189,220.244Z" transform="translate(-340.016 -216.157)" fill="#3b3e7d"/>
            <path id="Path_50829" data-name="Path 50829" d="M356.126,220.244a4.087,4.087,0,1,1-4.087-4.087A4.088,4.088,0,0,1,356.126,220.244Z" transform="translate(-334.874 -216.157)" fill="#0060e6"/>
            <path id="Path_50830" data-name="Path 50830" d="M364.062,220.244a4.087,4.087,0,1,1-4.087-4.087A4.087,4.087,0,0,1,364.062,220.244Z" transform="translate(-329.733 -216.157)" fill="#007eff"/>
          </g>
        </g>
        <g id="Group_70134" data-name="Group 70134" transform="translate(13.896 35.556)">
          <rect id="Rectangle_27693" data-name="Rectangle 27693" width="40.052" height="40.052" rx="4.628" transform="translate(5.313 5.722)" fill="#b4cae3"/>
          <rect id="Rectangle_27694" data-name="Rectangle 27694" width="40.052" height="40.052" rx="4.628" fill="#007eff"/>
          <g id="Group_70133" data-name="Group 70133" transform="translate(8.952 10.206)">
            <path id="Path_50831" data-name="Path 50831" d="M155.541,246.35l-10.947,3.757,10.947,3.757v6.142l-18.425-6.684v-6.43l18.425-6.684Z" transform="translate(-137.116 -240.208)" fill="#fff"/>
          </g>
        </g>
        <g id="Group_70136" data-name="Group 70136" transform="translate(80.05 35.556)">
          <rect id="Rectangle_27695" data-name="Rectangle 27695" width="40.052" height="40.052" rx="4.628" transform="translate(5.313 5.722)" fill="#b4cae3"/>
          <rect id="Rectangle_27696" data-name="Rectangle 27696" width="40.052" height="40.052" rx="4.628" fill="#007eff"/>
          <g id="Group_70135" data-name="Group 70135" transform="translate(12.037 7.146)">
            <path id="Path_50832" data-name="Path 50832" d="M188.266,238.351H193.8l-9.132,26.071h-5.535Z" transform="translate(-179.134 -238.351)" fill="#fff"/>
          </g>
        </g>
        <g id="Group_70138" data-name="Group 70138" transform="translate(143.858 35.556)">
          <rect id="Rectangle_27697" data-name="Rectangle 27697" width="40.052" height="40.052" rx="4.628" transform="translate(5.313 5.722)" fill="#b4cae3"/>
          <rect id="Rectangle_27698" data-name="Rectangle 27698" width="40.052" height="40.052" rx="4.628" fill="#007eff"/>
          <g id="Group_70137" data-name="Group 70137" transform="translate(10.995 10.206)">
            <path id="Path_50833" data-name="Path 50833" d="M217.224,240.208l18.425,6.684v6.43l-18.425,6.684v-6.142l10.947-3.757-10.947-3.757Z" transform="translate(-217.224 -240.208)" fill="#fff"/>
          </g>
        </g>
        <g id="Group_70143" data-name="Group 70143" transform="translate(342.483 147.946)">
          <rect id="Rectangle_27699" data-name="Rectangle 27699" width="40.052" height="40.052" rx="4.628" transform="translate(5.313 5.722)" fill="#b4cae3"/>
          <rect id="Rectangle_27700" data-name="Rectangle 27700" width="40.052" height="40.052" rx="4.628" fill="#007eff"/>
          <g id="Group_70142" data-name="Group 70142" transform="translate(6.594 6.981)">
            <g id="Group_70141" data-name="Group 70141">
              <g id="Group_70140" data-name="Group 70140">
                <g id="Group_70139" data-name="Group 70139">
                  <path id="Path_50834" data-name="Path 50834" d="M348.151,306.455a13.062,13.062,0,1,0,13.061,13.061A13.076,13.076,0,0,0,348.151,306.455Zm.526,17.884v-4.576h5.9a17.253,17.253,0,0,1-.7,4.576Zm3.7,5.214a14.561,14.561,0,0,0,2.269-4.162h3.98a11.971,11.971,0,0,1-7.821,5.842A13.275,13.275,0,0,0,352.377,329.553Zm1.15-4.162a13.481,13.481,0,0,1-1.949,3.479,10.954,10.954,0,0,1-2.9,2.646V325.39Zm-4.85-12.3v-5.568c.155,0,.311.016.466.028a16.306,16.306,0,0,1,4.1,5.54Zm5.71,0a17.129,17.129,0,0,0-1.76-3.21,17.725,17.725,0,0,0-1.653-2.035,12.063,12.063,0,0,1,7.315,5.245Zm-5.71,5.626v-4.576h4.991a15.016,15.016,0,0,1,.906,4.576Zm6.949,0a16.122,16.122,0,0,0-.844-4.576h4.1a11.852,11.852,0,0,1,1.247,4.576Zm4.533,1.051a11.9,11.9,0,0,1-1.008,4.576h-4.174a18.385,18.385,0,0,0,.654-4.576Zm-18.713,4.576h-4.294a11.865,11.865,0,0,1-1.008-4.576h4.649A18.545,18.545,0,0,0,341.446,324.339Zm1.735-11.253a16.178,16.178,0,0,1,1.462-2.585,15.5,15.5,0,0,1,2.65-2.964c.11-.008.221-.015.333-.018v5.568Zm4.444,1.05v4.576H341.85a15.083,15.083,0,0,1,.9-4.576Zm-9.612-1.05a12.049,12.049,0,0,1,7.471-5.281,17.443,17.443,0,0,0-1.687,2.071,17.129,17.129,0,0,0-1.76,3.21Zm9.612,6.677v4.576h-5.087a17.25,17.25,0,0,1-.7-4.576Zm-11.459-1.051a11.869,11.869,0,0,1,1.249-4.576h4.227a16.119,16.119,0,0,0-.844,4.576Zm5.611,6.679a14.6,14.6,0,0,0,2.271,4.162,13.394,13.394,0,0,0,1.61,1.712,12.125,12.125,0,0,1-7.98-5.875Zm5.848,0v6.051a12.373,12.373,0,0,1-4.726-6.051Z" transform="translate(-335.089 -306.455)" fill="#fff"/>
                </g>
              </g>
            </g>
          </g>
        </g>
        <g id="Group_70144" data-name="Group 70144" transform="translate(13.896 93.583)">
          <path id="Path_50835" data-name="Path 50835" d="M302.4,278.449h-166.1a4.609,4.609,0,0,1-4.611-4.611h0a4.61,4.61,0,0,1,4.611-4.611H302.4a4.611,4.611,0,0,1,4.611,4.611h0A4.61,4.61,0,0,1,302.4,278.449Z" transform="translate(-131.683 -269.228)" fill="#b4cae3"/>
          <path id="Path_50836" data-name="Path 50836" d="M302.4,288.814h-166.1a4.61,4.61,0,0,1-4.611-4.611h0a4.611,4.611,0,0,1,4.611-4.612H302.4a4.612,4.612,0,0,1,4.611,4.612h0A4.611,4.611,0,0,1,302.4,288.814Z" transform="translate(-131.683 -262.514)" fill="#b4cae3"/>
          <path id="Path_50837" data-name="Path 50837" d="M302.4,299.178h-166.1a4.611,4.611,0,0,1-4.611-4.612h0a4.61,4.61,0,0,1,4.611-4.611H302.4a4.611,4.611,0,0,1,4.611,4.611h0A4.612,4.612,0,0,1,302.4,299.178Z" transform="translate(-131.683 -255.8)" fill="#b4cae3"/>
          <path id="Path_50838" data-name="Path 50838" d="M302.4,309.54h-166.1a4.61,4.61,0,0,1-4.611-4.611h0a4.61,4.61,0,0,1,4.611-4.611H302.4a4.611,4.611,0,0,1,4.611,4.611h0A4.611,4.611,0,0,1,302.4,309.54Z" transform="translate(-131.683 -249.086)" fill="#b4cae3"/>
          <path id="Path_50839" data-name="Path 50839" d="M302.4,319.905h-166.1a4.611,4.611,0,0,1-4.611-4.612h0a4.61,4.61,0,0,1,4.611-4.611H302.4a4.611,4.611,0,0,1,4.611,4.611h0A4.612,4.612,0,0,1,302.4,319.905Z" transform="translate(-131.683 -242.372)" fill="#b4cae3"/>
          <rect id="Rectangle_27701" data-name="Rectangle 27701" width="175.327" height="9.223" rx="2.798" transform="translate(0 85.388)" fill="#b4cae3"/>
        </g>
        <g id="Group_70145" data-name="Group 70145" transform="translate(209.286 144.816)">
          <path id="Path_50840" data-name="Path 50840" d="M368.217,300.319h-113.2a4.711,4.711,0,0,0-4.764,4.525,4.611,4.611,0,0,0,4.611,4.7H368.217a4.612,4.612,0,0,0,4.612-4.611h0A4.611,4.611,0,0,0,368.217,300.319Z" transform="translate(-250.257 -300.319)" fill="#b4cae3"/>
          <path id="Path_50841" data-name="Path 50841" d="M368.217,310.682h-113.2a4.712,4.712,0,0,0-4.764,4.525,4.612,4.612,0,0,0,4.611,4.7H368.217a4.612,4.612,0,0,0,4.612-4.611v0A4.612,4.612,0,0,0,368.217,310.682Z" transform="translate(-250.257 -293.605)" fill="#b4cae3"/>
          <path id="Path_50842" data-name="Path 50842" d="M368.217,321.046h-113.2a4.711,4.711,0,0,0-4.764,4.525,4.61,4.61,0,0,0,4.611,4.7H368.217a4.611,4.611,0,0,0,4.612-4.611h0A4.612,4.612,0,0,0,368.217,321.046Z" transform="translate(-250.257 -286.891)" fill="#b4cae3"/>
        </g>
        <g id="Group_70148" data-name="Group 70148" transform="translate(208.967 35.556)">
          <path id="Path_50843" data-name="Path 50843" d="M423.631,239.645v85.536c0,.18-.008.359-.02.534a6,6,0,0,1-.845,2.61,4.949,4.949,0,0,1-4.2,2.482H255.132a5.022,5.022,0,0,1-4.518-3.085,6.06,6.06,0,0,1-.55-2.541V239.645a6.221,6.221,0,0,1,.318-1.976,5.708,5.708,0,0,1,1.444-2.292,4.775,4.775,0,0,1,3.307-1.363h163.43a4.665,4.665,0,0,1,2.74.893,5.438,5.438,0,0,1,1.753,2.131A6.1,6.1,0,0,1,423.631,239.645Z" transform="translate(-250.063 -234.014)" fill="#b4cae3"/>
          <g id="Group_70146" data-name="Group 70146" transform="translate(0.318 1.363)">
            <path id="Path_50844" data-name="Path 50844" d="M423.486,325.179a6,6,0,0,1-.845,2.61L336,282.222l-2.907-1.528-82.832-43.561a5.708,5.708,0,0,1,1.444-2.292L336,279.165l2.9,1.529h0Z" transform="translate(-250.256 -234.841)" fill="#d9e4f5"/>
          </g>
          <g id="Group_70147" data-name="Group 70147" transform="translate(0 0.893)">
            <path id="Path_50845" data-name="Path 50845" d="M423.056,236.687l-84.03,44.192h0l-2.9,1.528-85.507,44.965a6.06,6.06,0,0,1-.55-2.541V324.6l83.15-43.726,2.907-1.529L421.3,234.556A5.438,5.438,0,0,1,423.056,236.687Z" transform="translate(-250.063 -234.556)" fill="#d9e4f5"/>
          </g>
        </g>
      </g>
      <g id="Group_70182" data-name="Group 70182" transform="translate(49.562 304.5)">
        <ellipse id="Ellipse_978" data-name="Ellipse 978" cx="66.795" cy="13.025" rx="66.795" ry="13.025" transform="translate(25.417 360.278)" fill="#d9e4f5"/>
        <g id="Group_70181" data-name="Group 70181">
          <path id="Path_50846" data-name="Path 50846" d="M82.1,360.583,72.5,366.5a29.634,29.634,0,0,0-13.593-4.378,22.324,22.324,0,0,1-1.35-7.847c0-23.7,18.678-67.466,18.678-67.466l-1.7,48.9C73.289,348.182,77.3,355.882,82.1,360.583Z" transform="translate(-27.422 -205.25)" fill="#00a0ff"/>
          <g id="Group_70150" data-name="Group 70150" transform="translate(0 49.512)">
            <path id="Path_50847" data-name="Path 50847" d="M121.231,356.346,84.354,379.1a29.509,29.509,0,1,0,13.8,22.374l129.85-80.118,1.516,2.459,32.049-.938,15.1-28.007.1-.191-2.572-5.105-8.206,4.133-1.727.87-1.282.478-8.663,16.065-18.243.536-4.794-7.766-4.79-7.766.275-.508,8.388-15.557,18.243-.537,6.553-12.159-5.492.161L227.9,268.3l-15.215,28.224,1.514,2.459Zm-44.848,33.7,5.53,8.971,2.885,4.677L77.192,417.8l-16.024.468L52.75,404.631l.275-.508,7.333-13.608Z" transform="translate(-39.272 -267.362)" fill="#0060e6"/>
            <path id="Path_50848" data-name="Path 50848" d="M121.231,356.282,84.354,379.037a29.509,29.509,0,0,0-43.118,35.645,29.5,29.5,0,0,0,54.31-18.453l129.85-80.12,1.514,2.459,32.051-.938,12.332-22.884,2.88-5.344-13.8.405-8.663,16.066-18.243.536-4.8-7.766-1.9-3.091-2.885-4.677,8.663-16.065,18.243-.536,3.671-6.816-26.558.776L212.685,296.46l1.514,2.459ZM73.773,384.8l8.416,13.646-.275.508-7.331,13.6-16.025.47-5.532-8.964-2.887-4.677,7.61-14.115Z" transform="translate(-39.272 -267.299)" fill="#007eff"/>
          </g>
          <g id="Group_70161" data-name="Group 70161" transform="translate(62.388)">
            <g id="Group_70151" data-name="Group 70151" transform="translate(37.103 32.858)">
              <path id="Path_50849" data-name="Path 50849" d="M99.648,262.746a5.491,5.491,0,1,0,10.983,0,5.411,5.411,0,0,0-.115-1.125,5.587,5.587,0,0,0-.325-1.03l0,0a5.5,5.5,0,0,0-5.047-3.33,5.2,5.2,0,0,0-1.018.1h0a5.318,5.318,0,0,0-1.656.6A5.5,5.5,0,0,0,99.648,262.746Zm.857,0a4.637,4.637,0,0,1,3.167-4.393,4.557,4.557,0,0,1,1.468-.242,4.465,4.465,0,0,1,1.045.124,4.565,4.565,0,0,1,2.139,1.15,4.622,4.622,0,0,1,1.287,2.139,4.561,4.561,0,0,1,.165,1.223,4.635,4.635,0,0,1-9.271,0Z" transform="translate(-99.648 -257.255)" fill="#007eff"/>
            </g>
            <g id="Group_70152" data-name="Group 70152" transform="translate(14.802 55.026)">
              <path id="Path_50850" data-name="Path 50850" d="M86.115,270.708v10.917s3.254,5.561,7.659,5.939,8.31-4.785,8.31-4.785v-11.3Z" transform="translate(-86.115 -270.708)" fill="#fb9a83"/>
              <path id="Path_50851" data-name="Path 50851" d="M93.139,272.31a7.478,7.478,0,0,0,4.395,5.285v-5.013Z" transform="translate(-81.565 -269.67)" fill="#ff6d6b"/>
            </g>
            <path id="Path_50852" data-name="Path 50852" d="M105.369,291.917c-16.441,4.65-21.836-8.051-24.134-16.095-.252-.893-.483-1.887-.684-2.948-.008-.04-.015-.084-.026-.134-.224-1.19-.417-2.458-.58-3.765-.124-.967-.227-1.949-.321-2.938-.234-2.4-.386-4.815-.486-6.954a11.35,11.35,0,0,1,7.274-11.143c6.6-2.538,16.619-4.546,26.113.837a11.4,11.4,0,0,1,5.786,9.7s1.658,6.441.872,9.33a29.427,29.427,0,0,0-1.224,7.608c-.262,3.844-2.447,13.109-4.719,15.032S105.369,291.917,105.369,291.917Z" transform="translate(-75.842 -232.095)" fill="#fb9a83"/>
            <g id="Group_70159" data-name="Group 70159" transform="translate(31.651 35.711)">
              <g id="Group_70155" data-name="Group 70155">
                <g id="Group_70154" data-name="Group 70154">
                  <g id="Group_70153" data-name="Group 70153">
                    <path id="Path_50853" data-name="Path 50853" d="M100.331,266.056a.518.518,0,0,1-.405-.478,8.027,8.027,0,0,0-3.353-5.641.518.518,0,0,1,.568-.867,8.938,8.938,0,0,1,3.821,6.45.521.521,0,0,1-.491.547A.562.562,0,0,1,100.331,266.056Z" transform="translate(-96.339 -258.987)" fill="#ff6d6b"/>
                  </g>
                </g>
              </g>
              <g id="Group_70158" data-name="Group 70158" transform="translate(0.497 2.638)">
                <g id="Group_70157" data-name="Group 70157">
                  <g id="Group_70156" data-name="Group 70156">
                    <path id="Path_50854" data-name="Path 50854" d="M97.046,262.584a.527.527,0,0,1-.255-.142.522.522,0,0,1,0-.735,4.763,4.763,0,0,1,2.241-1.109.519.519,0,1,1,.208,1.017,3.751,3.751,0,0,0-1.719.831A.521.521,0,0,1,97.046,262.584Z" transform="translate(-96.641 -260.587)" fill="#ff6d6b"/>
                  </g>
                </g>
              </g>
            </g>
            <path id="Path_50855" data-name="Path 50855" d="M79.848,272.042c.666,8.714,4.485,18.112,4.485,18.112,4.172,9.2,11.939,7.517,16.136,6.257,3.068-.919,7.227-4.326,8.928-5.889a10.288,10.288,0,0,0,2.551-4.446,1.766,1.766,0,0,0-1.567-2.261c-1.956-.188-3.993-1.847-4.482-6.453-.827-7.817,4.387-7.824,4.387-7.824,3.161-.28,4.84,3.681,4.84,3.681a9.989,9.989,0,0,0,1.546-6.7c-.353-3.653,3.329-1.05,3.329-1.05s5.174-4.5,5.291-8.926-2.464-4.606-4.785-5.739,3.037-5.331.475-7.544-5.476-2.447-7.574-1.282-2.8-4.545-6-4.662-5.243,3.38-7.486,1.982-7.952-3.5-10.517.816-3.261,5.416-5.359,5.65-7.924,4.253-6.758,10.894S79.459,266.951,79.848,272.042Z" transform="translate(-77.132 -237.315)" fill="#021147"/>
            <g id="Group_70160" data-name="Group 70160" transform="translate(34.468 32.018)">
              <path id="Path_50856" data-name="Path 50856" d="M98.049,257.077a4.285,4.285,0,0,1,1.44.776,9.747,9.747,0,0,1,3.261.237c.252.061.5.124.748.193.409.119.814.252,1.21.4a22.01,22.01,0,0,1,2.351,1.032,30.77,30.77,0,0,1,3.587,2.139c.44.308.7.5.71.514l.194-.417a5.588,5.588,0,0,0-.325-1.03l0,0c-.43-.3-1.073-.73-1.864-1.2-.629-.374-1.353-.773-2.139-1.15-.028-.015-.056-.028-.087-.043-.623-.3-1.287-.583-1.976-.839h0a16.875,16.875,0,0,0-2.16-.636A9.833,9.833,0,0,0,98.049,257.077Z" transform="translate(-98.049 -256.746)" fill="#007eff"/>
            </g>
          </g>
          <g id="Group_70167" data-name="Group 70167" transform="translate(84.228 206.737)">
            <g id="Group_70165" data-name="Group 70165" transform="translate(31.539 151.917)">
              <path id="Path_50857" data-name="Path 50857" d="M112.633,476.158a11.512,11.512,0,0,0,3.882-.043l1.823-.592,2.992-.9s10.752-4.223,14.559-7.924,3.128-7.776-2.808-9.762-11.24-.105-14.414-1.374c0,0-9.5.8-8.973,5.875-.122,4.726-.4,7.226.227,12A3.166,3.166,0,0,0,112.633,476.158Z" transform="translate(-109.525 -454.579)" fill="#007eff"/>
              <g id="Group_70162" data-name="Group 70162" transform="translate(7.867 0.671)">
                <path id="Path_50858" data-name="Path 50858" d="M114.8,457.952a.634.634,0,0,1-.2-1.16,9.749,9.749,0,0,1,4.548-1.417,4.361,4.361,0,0,1,3.825,2.348.633.633,0,1,1-1.152.526,3.116,3.116,0,0,0-2.719-1.608,8.586,8.586,0,0,0-3.841,1.233A.632.632,0,0,1,114.8,457.952Z" transform="translate(-114.299 -455.372)" fill="#fff"/>
              </g>
              <g id="Group_70163" data-name="Group 70163" transform="translate(9.999 0.435)">
                <path id="Path_50859" data-name="Path 50859" d="M116.092,457.81a.633.633,0,0,1-.2-1.158,9.73,9.73,0,0,1,4.548-1.419,4.361,4.361,0,0,1,3.825,2.348.633.633,0,1,1-1.152.526A3.116,3.116,0,0,0,120.4,456.5a8.587,8.587,0,0,0-3.841,1.233A.625.625,0,0,1,116.092,457.81Z" transform="translate(-115.593 -455.229)" fill="#fff"/>
              </g>
              <g id="Group_70164" data-name="Group 70164" transform="translate(12.082)">
                <path id="Path_50860" data-name="Path 50860" d="M117.358,457.547a.634.634,0,0,1-.2-1.16,9.759,9.759,0,0,1,4.55-1.419,4.367,4.367,0,0,1,3.825,2.348.634.634,0,0,1-1.153.526,3.116,3.116,0,0,0-2.719-1.607,8.585,8.585,0,0,0-3.839,1.233A.632.632,0,0,1,117.358,457.547Z" transform="translate(-116.857 -454.965)" fill="#fff"/>
              </g>
            </g>
            <path id="Path_50861" data-name="Path 50861" d="M120.231,451.89l-.582,9.981c-3.69,1.02-6.461,1.491-8.556-.137l-.6-10.587Z" transform="translate(-77.357 -305.522)" fill="#fb9a83"/>
            <g id="Group_70166" data-name="Group 70166">
              <path id="Path_50862" data-name="Path 50862" d="M136.288,513.275c-5.514,3.406-14.364,1.417-14.364,1.417,1.056-.186-7.712-65.792-8.865-75.671-1.064-9.118-12.431-35.59-17.21-50.61-.331-1.043-.629-2.03-.893-2.955-.376-1.317-.733-2.572-1.069-3.757-2.113-7.354-3.5-12.029-3.5-12.029l31.538-6.9q1.406,5.309,2.663,10.472c.183.755.361,1.5.541,2.249.11.473.221.946.331,1.414C144.8,459.076,136.288,513.275,136.288,513.275Z" transform="translate(-90.386 -362.774)" fill="#3b3e7d"/>
              <path id="Path_50863" data-name="Path 50863" d="M125.128,375.5a104.454,104.454,0,0,1-31.242,6.2c-2.113-7.354-3.5-12.029-3.5-12.029l31.538-6.9q1.406,5.309,2.663,10.472C124.77,374,124.948,374.751,125.128,375.5Z" transform="translate(-90.386 -362.774)" fill="#18285d"/>
            </g>
          </g>
          <g id="Group_70173" data-name="Group 70173" transform="translate(35.226 208.394)">
            <g id="Group_70171" data-name="Group 70171" transform="translate(0 151.209)">
              <path id="Path_50864" data-name="Path 50864" d="M62.528,473.978a11.5,11.5,0,0,0,3.737,1.045l1.916-.059,3.124-.03s11.505-1.05,16.2-3.538,5.176-6.593.031-10.159-10.764-3.243-13.455-5.347c0,0-9.347-1.888-10.258,3.133-1.437,4.5-2.408,6.825-3.134,11.586A3.161,3.161,0,0,0,62.528,473.978Z" transform="translate(-60.649 -455.542)" fill="#007eff"/>
              <g id="Group_70168" data-name="Group 70168" transform="translate(11.717 0.774)">
                <path id="Path_50865" data-name="Path 50865" d="M68.092,457.545a.633.633,0,0,1,.135-1.168,9.778,9.778,0,0,1,4.764-.089,4.361,4.361,0,0,1,3.016,3.322.633.633,0,1,1-1.252.183,3.12,3.12,0,0,0-2.162-2.3,8.6,8.6,0,0,0-4.032.11A.628.628,0,0,1,68.092,457.545Z" transform="translate(-67.759 -456.012)" fill="#fff"/>
              </g>
              <g id="Group_70169" data-name="Group 70169" transform="translate(13.831 1.143)">
                <path id="Path_50866" data-name="Path 50866" d="M69.373,457.77a.627.627,0,0,1-.308-.391.634.634,0,0,1,.443-.778,9.749,9.749,0,0,1,4.764-.091,4.366,4.366,0,0,1,3.017,3.324.634.634,0,0,1-1.254.183,3.116,3.116,0,0,0-2.162-2.3,8.588,8.588,0,0,0-4.031.11A.639.639,0,0,1,69.373,457.77Z" transform="translate(-69.042 -456.236)" fill="#fff"/>
              </g>
              <g id="Group_70170" data-name="Group 70170" transform="translate(15.953 1.308)">
                <path id="Path_50867" data-name="Path 50867" d="M70.661,457.87A.633.633,0,0,1,70.8,456.7a9.749,9.749,0,0,1,4.764-.091,4.367,4.367,0,0,1,3.017,3.324.634.634,0,0,1-1.254.183,3.12,3.12,0,0,0-2.162-2.3,8.588,8.588,0,0,0-4.031.11A.631.631,0,0,1,70.661,457.87Z" transform="translate(-70.33 -456.336)" fill="#fff"/>
              </g>
            </g>
            <path id="Path_50868" data-name="Path 50868" d="M75.715,453.669l-3.348,9.421c-3.828-.053-6.621-.374-8.177-2.523l2.386-10.332Z" transform="translate(-58.355 -307.77)" fill="#fb9a83"/>
            <g id="Group_70172" data-name="Group 70172" transform="translate(4.929)">
              <path id="Path_50869" data-name="Path 50869" d="M106.093,365.973q-.133,5.492-.374,10.8c-.064,1.434-.137,2.9-.221,4.39-.145,2.559-.316,5.191-.511,7.865-1.542,21.366-4.545,45.487-6.875,57.586-1.546,8.023-20.288,67.878-20.288,67.878-6.161,1.7-13.972-2.534-14.185-2.653,1.073,0,8.926-71.843,11.4-77.1,1.556-3.306.137-12.009-1.027-49.183q-.077-2.581-.157-5.344-.052-1.822-.077-3.484c-.132-7.892.1-12.951.1-12.951Z" transform="translate(-63.64 -363.78)" fill="#3b3e7d"/>
              <path id="Path_50870" data-name="Path 50870" d="M69.911,363.78l32.212,2.193q-.133,5.492-.374,10.8c-.064,1.434-.137,2.9-.221,4.39a122.457,122.457,0,0,1-31.719-4.433C69.677,368.839,69.911,363.78,69.911,363.78Z" transform="translate(-59.67 -363.78)" fill="#18285d"/>
            </g>
          </g>
          <g id="Group_70180" data-name="Group 70180" transform="translate(45.617 64.911)">
            <g id="Group_70174" data-name="Group 70174">
              <path id="Path_50871" data-name="Path 50871" d="M140.308,420.366s-19.219,7.546-36.361,7.631-33.553-1.554-33.553-1.554-1.435-25.909-2.371-54.855q-.089-2.843-.175-5.716c-.064-2.119-.12-4.253-.18-6.384-.046-1.9-.094-3.811-.135-5.71q-.084-3.661-.145-7.274c-.035-1.921-.059-3.82-.086-5.7-.264-21.824-1.3-41.488,2.21-45.9,7.213-9.073,29.017-18.192,29.017-18.192a43.623,43.623,0,0,0,16.487,1.191s12.206,9.221,20.761,15.46c6.758,4.927,1.427,22.531,1.8,46.7.026,1.844.059,3.722.094,5.626.013.613.026,1.236.038,1.857.035,1.674.077,3.484.129,5.4.046,1.785.1,3.663.157,5.609.061,2.048.124,4.169.2,6.344.059,1.841.12,3.719.188,5.614C139.171,393.874,140.308,420.366,140.308,420.366Z" transform="translate(-66.954 -276.707)" fill="#00a0ff"/>
            </g>
            <g id="Group_70175" data-name="Group 70175" transform="translate(28.022 6.403)">
              <path id="Path_50872" data-name="Path 50872" d="M87.459,286.591a26.154,26.154,0,0,0,18.009-4.917.61.61,0,1,0-.771-.944,25.568,25.568,0,0,1-20,4.217.61.61,0,0,0-.246,1.195A27.6,27.6,0,0,0,87.459,286.591Z" transform="translate(-83.959 -280.593)" fill="#007eff"/>
            </g>
            <g id="Group_70179" data-name="Group 70179" transform="translate(0.347 63.35)">
              <g id="Group_70176" data-name="Group 70176">
                <path id="Path_50873" data-name="Path 50873" d="M137.535,320.777a204.824,204.824,0,0,1-38.652,3.769A158.955,158.955,0,0,1,67.251,321.6c-.035-1.921-.059-3.82-.086-5.7,9.187,1.964,35.373,6.107,70.276-.745C137.467,316.995,137.5,318.874,137.535,320.777Z" transform="translate(-67.165 -315.151)" fill="#007eff"/>
              </g>
              <g id="Group_70177" data-name="Group 70177" transform="translate(0.231 12.878)">
                <path id="Path_50874" data-name="Path 50874" d="M137.767,328.575a204.762,204.762,0,0,1-38.975,3.833A159.412,159.412,0,0,1,67.44,329.52c-.046-1.9-.094-3.811-.135-5.71,9.406,1.989,35.559,6.026,70.305-.844C137.657,324.751,137.708,326.629,137.767,328.575Z" transform="translate(-67.305 -322.966)" fill="#007eff"/>
              </g>
              <g id="Group_70178" data-name="Group 70178" transform="translate(0.545 24.831)">
                <path id="Path_50875" data-name="Path 50875" d="M138.027,335.834a204.967,204.967,0,0,1-39.359,3.9,159.777,159.777,0,0,1-31-2.818q-.089-2.843-.175-5.716c9.7,2.015,35.806,5.913,70.343-.984C137.9,332.061,137.96,333.939,138.027,335.834Z" transform="translate(-67.496 -330.22)" fill="#007eff"/>
              </g>
            </g>
          </g>
          <path id="Path_50876" data-name="Path 50876" d="M110.969,287.747s30.134,46.74,35.106,43.673c7.494-4.625,13.9-8.579,13.9-8.579l7.086-4.372s-4.207,27.389-20.816,32.894c-10.424,3.454-38.719-32.135-38.719-32.135S107.528,295.128,110.969,287.747Z" transform="translate(4.948 -204.643)" fill="#00a0ff"/>
        </g>
      </g>
      <g id="Group_70235" data-name="Group 70235" transform="translate(365.553 323.174)">
        <path id="Path_50877" data-name="Path 50877" d="M314.1,379.03A652.277,652.277,0,0,1,261.628,295.9l1.02,29.9s30.564,49.231,40.112,59.466C306.57,385.265,314.1,383.972,314.1,379.03Z" transform="translate(-211.21 -218.033)" fill="#007eff"/>
        <g id="Group_70186" data-name="Group 70186" transform="translate(2.125 70.688)">
          <path id="Path_50878" data-name="Path 50878" d="M253.4,291.545s-5.309,1.425-10.464,2.712a36.194,36.194,0,0,0-7.379,2.567s-.468,45.382,0,59.156-3.994,26.413-3.118,34.455c0,0,39.365,2.785,47.76-.547,0,0-3.251-35.437.419-45.39,3.727-10.1,5.68-17.149,4.807-21.269-2.241-10.576-4.907-12.158-4.212-21.895S253.4,291.545,253.4,291.545Z" transform="translate(-232.322 -291.545)" fill="#00a0ff"/>
          <g id="Group_70183" data-name="Group 70183" transform="translate(20.465 8.775)">
            <path id="Path_50879" data-name="Path 50879" d="M262.4,304.485a26.148,26.148,0,0,1-17.474-6.572.61.61,0,1,1,.857-.868,25.566,25.566,0,0,0,19.525,6.061.609.609,0,0,1,.133,1.211A27.793,27.793,0,0,1,262.4,304.485Z" transform="translate(-244.741 -296.87)" fill="#007eff"/>
          </g>
          <g id="Group_70184" data-name="Group 70184" transform="translate(12.02 55.953)">
            <path id="Path_50880" data-name="Path 50880" d="M240.224,342.466a.609.609,0,0,1-.021-1.218,39.546,39.546,0,0,0,27.585-15.508.61.61,0,0,1,.972.737,40.8,40.8,0,0,1-28.514,15.989Z" transform="translate(-239.616 -325.5)" fill="#007eff"/>
          </g>
          <g id="Group_70185" data-name="Group 70185" transform="translate(9.502 65.916)">
            <path id="Path_50881" data-name="Path 50881" d="M240.685,344.323c-1.279,0-2.022-.076-2.057-.081a.609.609,0,0,1,.135-1.211,39.536,39.536,0,0,0,29.554-11.311.609.609,0,0,1,.854.87A41.159,41.159,0,0,1,240.685,344.323Z" transform="translate(-238.088 -331.546)" fill="#007eff"/>
          </g>
        </g>
        <g id="Group_70198" data-name="Group 70198" transform="translate(31.334 160.494)">
          <g id="Group_70193" data-name="Group 70193" transform="translate(135.453 12.204)">
            <path id="Path_50882" data-name="Path 50882" d="M336.594,365.32l10.394,3.667-3.507,9.454-11.234-3.266Z" transform="translate(-332.247 -345.761)" fill="#fb9a83"/>
            <g id="Group_70192" data-name="Group 70192" transform="translate(8.756)">
              <g id="Group_70191" data-name="Group 70191">
                <path id="Path_50883" data-name="Path 50883" d="M342,377.994s-2.289-3.49-1.475-5.3,17.459-11.98,20.2-16.548,6.006-2.291,7.526-.715-15.028,38.932-15.028,38.932-11.78-3.116-14.809-5.642S341.416,382.139,342,377.994Z" transform="translate(-337.56 -353.45)" fill="#007eff"/>
                <g id="Group_70190" data-name="Group 70190" transform="translate(8.845 7.898)">
                  <g id="Group_70187" data-name="Group 70187" transform="translate(2.689 2.205)">
                    <path id="Path_50884" data-name="Path 50884" d="M348.314,369.006a.732.732,0,0,1-1.29.43,11.281,11.281,0,0,1-2.422-4.949,5.049,5.049,0,0,1,2.007-4.785.732.732,0,1,1,.8,1.224,3.6,3.6,0,0,0-1.356,3.391,9.966,9.966,0,0,0,2.086,4.171A.727.727,0,0,1,348.314,369.006Z" transform="translate(-344.56 -359.582)" fill="#fff"/>
                  </g>
                  <g id="Group_70188" data-name="Group 70188" transform="translate(0 3.547)">
                    <path id="Path_50885" data-name="Path 50885" d="M346.684,369.822a.733.733,0,0,1-1.29.43,11.306,11.306,0,0,1-2.424-4.949,5.047,5.047,0,0,1,2.009-4.787.732.732,0,1,1,.8,1.224,3.608,3.608,0,0,0-1.356,3.393,9.926,9.926,0,0,0,2.088,4.171A.726.726,0,0,1,346.684,369.822Z" transform="translate(-342.928 -360.396)" fill="#fff"/>
                  </g>
                  <g id="Group_70189" data-name="Group 70189" transform="translate(5.278)">
                    <path id="Path_50886" data-name="Path 50886" d="M349.887,367.668a.733.733,0,0,1-1.29.43,11.268,11.268,0,0,1-2.424-4.948,5.048,5.048,0,0,1,2.007-4.787.733.733,0,1,1,.8,1.226,3.6,3.6,0,0,0-1.356,3.391,9.939,9.939,0,0,0,2.086,4.171A.737.737,0,0,1,349.887,367.668Z" transform="translate(-346.131 -358.244)" fill="#fff"/>
                  </g>
                </g>
              </g>
            </g>
          </g>
          <g id="Group_70197" data-name="Group 70197">
            <g id="Group_70196" data-name="Group 70196">
              <g id="Group_70195" data-name="Group 70195">
                <g id="Group_70194" data-name="Group 70194">
                  <path id="Path_50887" data-name="Path 50887" d="M251.823,359.133s42-12.232,63.027-13.072c21.041-.829,77.683,30.437,77.683,30.437,1.353,3.287.468,6.937-1.738,10.228a13.742,13.742,0,0,1-1.012,1.346,20.08,20.08,0,0,1-2.66,2.762s-41.819-5.357-69.753-20.17c0,0-39.225,9.768-61.8,9.144,0,0-9.314-7.776-3.742-20.676" transform="translate(-250.047 -346.044)" fill="#021147"/>
                </g>
              </g>
            </g>
          </g>
        </g>
        <g id="Group_70222" data-name="Group 70222" transform="translate(1.863 0)">
          <g id="Group_70210" data-name="Group 70210">
            <circle id="Ellipse_979" data-name="Ellipse 979" cx="22.376" cy="22.376" r="22.376" transform="translate(0 35.593) rotate(-45)" fill="#021147"/>
            <circle id="Ellipse_980" data-name="Ellipse 980" cx="13.712" cy="13.712" r="13.712" transform="translate(9.763)" fill="#021147"/>
            <g id="Group_70205" data-name="Group 70205" transform="translate(45.609 40.148)">
              <path id="Path_50888" data-name="Path 50888" d="M261.925,274.639s3.4-3.553,5.351-.16-2.132,12.474-7.435,9.656Z" transform="translate(-259.84 -273.011)" fill="#ff6d6b"/>
              <path id="Path_50889" data-name="Path 50889" d="M261.379,279.87a1.014,1.014,0,1,0,1.106-.913A1.015,1.015,0,0,0,261.379,279.87Z" transform="translate(-258.846 -269.163)" fill="#fff"/>
              <g id="Group_70201" data-name="Group 70201" transform="translate(1.056 3.484)">
                <g id="Group_70200" data-name="Group 70200">
                  <g id="Group_70199" data-name="Group 70199">
                    <path id="Path_50890" data-name="Path 50890" d="M260.908,279.981a.471.471,0,0,0,.48-.282c1.132-2.816,4.4-3.69,4.436-3.7a.438.438,0,0,0,.325-.545.474.474,0,0,0-.575-.315c-.153.038-3.757.99-5.062,4.233a.444.444,0,0,0,.272.577A.554.554,0,0,0,260.908,279.981Z" transform="translate(-260.481 -275.126)" fill="#ed495c"/>
                  </g>
                </g>
              </g>
              <g id="Group_70204" data-name="Group 70204" transform="translate(2.947 4.969)">
                <g id="Group_70203" data-name="Group 70203">
                  <g id="Group_70202" data-name="Group 70202">
                    <path id="Path_50891" data-name="Path 50891" d="M263.491,278.242a.483.483,0,0,0,.26-.048.434.434,0,0,0,.2-.6,4.213,4.213,0,0,0-1.623-1.508.477.477,0,0,0-.638.165.436.436,0,0,0,.18.608,3.358,3.358,0,0,1,1.251,1.14A.475.475,0,0,0,263.491,278.242Z" transform="translate(-261.629 -276.027)" fill="#ed495c"/>
                  </g>
                </g>
              </g>
            </g>
            <path id="Path_50892" data-name="Path 50892" d="M246.21,284.559l-1.1,11.512s4.957,4.64,9.1,5.4,6.046-4.022,6.046-4.022l1.023-10.716Z" transform="translate(-223.773 -225.383)" fill="#fb9a83"/>
            <path id="Path_50893" data-name="Path 50893" d="M245.885,285.243l-.438,4.594c2.5,3.375,7.372,4.952,14.837,4.568l.669-6.988Z" transform="translate(-223.556 -224.94)" fill="#ff6d6b"/>
            <path id="Path_50894" data-name="Path 50894" d="M275.315,286.36c-.239,1.1-.5,2.215-.811,3.322-2.038,7.361-7.546,15-13.656,15.781-13.191,1.7-17.584-8.954-18.935-16.633-.148-.854.371-1.765.283-2.765-.2-2.373-.893-5.112-.859-7.743.025-1.824.091-3.62.17-5.242a10.625,10.625,0,0,1,7.534-9.739c6.161-1.794,15.353-2.8,23.413,3.021a10.718,10.718,0,0,1,4.342,9.518A80.387,80.387,0,0,1,275.315,286.36Z" transform="translate(-226.218 -240.034)" fill="#fb9a83"/>
            <g id="Group_70208" data-name="Group 70208" transform="translate(32.332 42.305)">
              <g id="Group_70207" data-name="Group 70207">
                <g id="Group_70206" data-name="Group 70206">
                  <path id="Path_50895" data-name="Path 50895" d="M252.238,282.631a.5.5,0,0,1,.013-1.005L254,281.5l-1.77-6.547a.5.5,0,0,1,.972-.264l2.089,7.728-2.971.211A.742.742,0,0,1,252.238,282.631Z" transform="translate(-251.783 -274.321)" fill="#ff6d6b"/>
                </g>
              </g>
            </g>
            <path id="Path_50896" data-name="Path 50896" d="M272.026,273.926c4.828,2.785,3.352,10.393,3.024,16.165-.013.224,1.251-4.115,1.381-4.2a79.157,79.157,0,0,0,1.524-10.681,10.857,10.857,0,0,0-4.607-9.719c-8.511-5.964-18.2-4.967-24.683-3.157a10.813,10.813,0,0,0-7.906,9.907c-.077,1.651-.142,3.482-.162,5.342.791.578,2.815,1,2.772,2.356-.114,3.582-.386,9.653.367,9.462.882-.222,1.913-8.368,1.536-10.973,0,0,1.333-1.767,6.209-3.131a91.234,91.234,0,0,0,12.389-4.635,10.9,10.9,0,0,0,3.444-2.581A10.743,10.743,0,0,0,272.026,273.926Z" transform="translate(-226.698 -240.687)" fill="#021147"/>
            <path id="Path_50897" data-name="Path 50897" d="M256.64,275.531c-.105,1.106.377,2.055,1.079,2.122s1.358-.774,1.463-1.879-.377-2.056-1.081-2.122S256.743,274.427,256.64,275.531Z" transform="translate(-216.314 -232.451)" fill="#021147"/>
            <path id="Path_50898" data-name="Path 50898" d="M247.551,274.688c-.107,1.1.377,2.055,1.079,2.121s1.358-.774,1.463-1.879-.377-2.055-1.081-2.122S247.655,273.582,247.551,274.688Z" transform="translate(-222.202 -232.998)" fill="#021147"/>
            <path id="Path_50899" data-name="Path 50899" d="M261.673,271.823a24.615,24.615,0,0,0-5.25-.956c-.582-.035-1.088.358-1.051.826v.013a.82.82,0,0,0,.867.669,27.888,27.888,0,0,1,7.211,1.147.953.953,0,0,0-.308-.827A3.1,3.1,0,0,0,261.673,271.823Z" transform="translate(-217.127 -234.254)" fill="#021147"/>
            <path id="Path_50900" data-name="Path 50900" d="M247.578,270.468a24.62,24.62,0,0,1,5.336-.018c.578.068,1.008.544.89,1l0,.012a.817.817,0,0,1-.971.506,27.928,27.928,0,0,0-7.3-.137.951.951,0,0,1,.448-.761A3.1,3.1,0,0,1,247.578,270.468Z" transform="translate(-223.504 -234.612)" fill="#021147"/>
            <path id="Path_50901" data-name="Path 50901" d="M259.788,281.93c-.541,1.722-2.085,4.84-6.247,4.443s-5.061-3.467-5.268-5.542Z" transform="translate(-221.725 -227.798)" fill="#fff"/>
            <g id="Group_70209" data-name="Group 70209" transform="translate(29.055 59.812)">
              <path id="Path_50902" data-name="Path 50902" d="M252.327,286.735a4.944,4.944,0,0,0,2.371-.453.494.494,0,0,0-.437-.887h0a3.994,3.994,0,0,1-1.841.358,4.2,4.2,0,0,1-1.837-.712.495.495,0,0,0-.59.794A5.164,5.164,0,0,0,252.327,286.735Z" transform="translate(-249.794 -284.945)" fill="#ff6d6b"/>
            </g>
          </g>
          <g id="Group_70215" data-name="Group 70215" transform="translate(10.123 36.096)">
            <path id="Path_50903" data-name="Path 50903" d="M244.776,273.231s-3.118-4.616-5.494-1.729-.3,12.281,5,10.543Z" transform="translate(-238.306 -270.553)" fill="#fb9a83"/>
            <path id="Path_50904" data-name="Path 50904" d="M239.981,277.827a1.013,1.013,0,1,0,1.106-.913A1.016,1.016,0,0,0,239.981,277.827Z" transform="translate(-237.223 -266.435)" fill="#fff"/>
            <g id="Group_70211" data-name="Group 70211" transform="translate(1.156 3.074)">
              <path id="Path_50905" data-name="Path 50905" d="M242.988,277.915a.437.437,0,0,1-.386-.354,6.687,6.687,0,0,0-3.355-4.322.433.433,0,0,1,.382-.776,7.447,7.447,0,0,1,3.825,4.945.433.433,0,0,1-.349.5A.466.466,0,0,1,242.988,277.915Z" transform="translate(-239.007 -272.418)" fill="#ff6d6b"/>
            </g>
            <g id="Group_70214" data-name="Group 70214" transform="translate(1.938 5.002)">
              <g id="Group_70213" data-name="Group 70213">
                <g id="Group_70212" data-name="Group 70212">
                  <path id="Path_50906" data-name="Path 50906" d="M239.873,275.458a.441.441,0,0,1-.226-.091.433.433,0,0,1-.073-.608,3.962,3.962,0,0,1,1.74-1.149.433.433,0,0,1,.277.821,3.144,3.144,0,0,0-1.338.863A.43.43,0,0,1,239.873,275.458Z" transform="translate(-239.482 -273.588)" fill="#ff6d6b"/>
                </g>
              </g>
            </g>
          </g>
          <g id="Group_70221" data-name="Group 70221" transform="translate(16.351 36.541)">
            <g id="Group_70216" data-name="Group 70216" transform="translate(4.29 1.113)">
              <path id="Path_50907" data-name="Path 50907" d="M256.282,274.635a2.012,2.012,0,0,0-.1-.862,2.082,2.082,0,0,0-1.73-1.4l-7.292-.86a2.082,2.082,0,0,0-2.093,1.111,2.036,2.036,0,0,0-.224.717l-.11.933a5.837,5.837,0,0,0,1.213,4.344,5.35,5.35,0,0,0,3.47,2.052l.191.023a5.939,5.939,0,0,0,6.58-5.214l.094-.788A.3.3,0,0,0,256.282,274.635Zm-.956.742a5.064,5.064,0,0,1-1.915,3.411,5.009,5.009,0,0,1-3.7,1.043l-.175-.021a4.516,4.516,0,0,1-2.915-1.738,4.964,4.964,0,0,1-1.027-3.7l.11-.933a1.22,1.22,0,0,1,1.356-1.069l7.292.859a1.223,1.223,0,0,1,1.069,1.356Z" transform="translate(-244.689 -271.498)" fill="#fff"/>
            </g>
            <g id="Group_70217" data-name="Group 70217" transform="translate(19.749 2.935)">
              <path id="Path_50908" data-name="Path 50908" d="M265.646,275.231a2.029,2.029,0,0,0-.308-.816,2.086,2.086,0,0,0-1.5-.936l-7.3-.86a2.082,2.082,0,0,0-2.042,1.015,2.028,2.028,0,0,0-.269.773c0,.015,0,.026-.008.039l-.109.933a5.836,5.836,0,0,0,1.214,4.344,5.351,5.351,0,0,0,3.467,2.052l.2.023a5.863,5.863,0,0,0,4.339-1.221,5.924,5.924,0,0,0,2.241-3.991l.092-.789A1.852,1.852,0,0,0,265.646,275.231Zm-.938,1.252a5.053,5.053,0,0,1-1.916,3.411,5,5,0,0,1-3.7,1.043l-.178-.021A4.512,4.512,0,0,1,256,279.177a4.962,4.962,0,0,1-1.027-3.7l.109-.933a1.223,1.223,0,0,1,1.356-1.069l7.3.86A1.222,1.222,0,0,1,264.8,275.7Z" transform="translate(-254.07 -272.604)" fill="#fff"/>
            </g>
            <g id="Group_70218" data-name="Group 70218">
              <path id="Path_50909" data-name="Path 50909" d="M247.309,272.385a10.444,10.444,0,0,0-5.224-1.562l.224.885a9.823,9.823,0,0,1,4.443,1.353c.211.13.323.216.328.219l.537-.679C247.6,272.585,247.492,272.5,247.309,272.385Z" transform="translate(-242.085 -270.823)" fill="#fff"/>
            </g>
            <g id="Group_70219" data-name="Group 70219" transform="translate(15.401 3.28)">
              <path id="Path_50910" data-name="Path 50910" d="M251.617,273.836l-.186-.847a8.87,8.87,0,0,1,2.635-.127,5.846,5.846,0,0,1,2.307.73l-.468.73a5.049,5.049,0,0,0-1.94-.6A8.092,8.092,0,0,0,251.617,273.836Z" transform="translate(-251.431 -272.814)" fill="#fff"/>
            </g>
            <g id="Group_70220" data-name="Group 70220" transform="translate(30.661 4.268)">
              <path id="Path_50911" data-name="Path 50911" d="M263.808,273.413a12.009,12.009,0,0,0-3.116.593l.288.816a11.518,11.518,0,0,1,3.045-.547Z" transform="translate(-260.692 -273.413)" fill="#fff"/>
            </g>
          </g>
        </g>
        <g id="Group_70230" data-name="Group 70230" transform="translate(1.499 169.065)">
          <g id="Group_70229" data-name="Group 70229" transform="translate(62.477 79.657)">
            <path id="Path_50912" data-name="Path 50912" d="M285.079,401.216l-3.726,11.043-9.752-.921,3.309-11.752Z" transform="translate(-268.725 -399.585)" fill="#fb9a83"/>
            <g id="Group_70228" data-name="Group 70228" transform="translate(0 9.073)">
              <g id="Group_70227" data-name="Group 70227">
                <path id="Path_50913" data-name="Path 50913" d="M281.8,408.312s2.482-3.355,4.462-3.217,17.283,12.23,22.515,13.217,4.23,4.841,3.278,6.812-41.728-.621-41.728-.621-1.154-12.131.166-15.846S277.708,409.2,281.8,408.312Z" transform="translate(-269.856 -405.091)" fill="#007eff"/>
                <g id="Group_70226" data-name="Group 70226" transform="translate(17.27 3.955)">
                  <g id="Group_70223" data-name="Group 70223" transform="translate(2.189 2.058)">
                    <path id="Path_50914" data-name="Path 50914" d="M282.609,414.393a.732.732,0,0,1-.85-1.061,11.282,11.282,0,0,1,3.8-3.986,5.05,5.05,0,0,1,5.186.227.732.732,0,1,1-.87,1.178,3.6,3.6,0,0,0-3.652-.1,9.985,9.985,0,0,0-3.192,3.4A.727.727,0,0,1,282.609,414.393Z" transform="translate(-281.665 -408.741)" fill="#fff"/>
                  </g>
                  <g id="Group_70224" data-name="Group 70224">
                    <path id="Path_50915" data-name="Path 50915" d="M281.28,413.146a.731.731,0,0,1-.849-1.061,11.267,11.267,0,0,1,3.8-3.988,5.049,5.049,0,0,1,5.186.227.732.732,0,1,1-.87,1.178,3.6,3.6,0,0,0-3.652-.1,9.911,9.911,0,0,0-3.19,3.4A.735.735,0,0,1,281.28,413.146Z" transform="translate(-280.336 -407.492)" fill="#fff"/>
                  </g>
                  <g id="Group_70225" data-name="Group 70225" transform="translate(5.154 3.723)">
                    <path id="Path_50916" data-name="Path 50916" d="M284.41,415.4a.732.732,0,0,1-.85-1.061,11.265,11.265,0,0,1,3.8-3.986,5.049,5.049,0,0,1,5.186.226.733.733,0,1,1-.872,1.178,3.608,3.608,0,0,0-3.652-.1,9.911,9.911,0,0,0-3.19,3.4A.737.737,0,0,1,284.41,415.4Z" transform="translate(-283.464 -409.751)" fill="#fff"/>
                  </g>
                </g>
              </g>
            </g>
          </g>
          <path id="Path_50917" data-name="Path 50917" d="M232.105,356.653a22.423,22.423,0,0,0,2.356,13.132c3.139,5.917,9.9,12.115,24.461,11.349a461.753,461.753,0,0,1,52.879,0s-3.228,10.461-6.707,25.647c-2.043,8.926-8.432,30.586-8.432,30.586,4.2,2.473,8.674,1.839,13.161,1.017,0,0,32.2-55.239,29.394-73.2s-106.537-13.42-106.537-13.42Z" transform="translate(-231.942 -351.245)" fill="#3b3e7d"/>
        </g>
        <g id="Group_70231" data-name="Group 70231" transform="translate(0 75.968)">
          <path id="Path_50918" data-name="Path 50918" d="M297.252,378.944c-14.6-9.216-37.739-26.779-37.739-26.779s-14.557-28.18-23.124-57.416c0,0-9.717,11.207-2.978,36.284,6.568,24.433,17.126,33.2,17.126,33.2s26.99,19.334,41.277,24.123C294.066,384.595,295.183,382.812,297.252,378.944Z" transform="translate(-231.032 -294.749)" fill="#007eff"/>
        </g>
        <g id="Group_70234" data-name="Group 70234" transform="translate(38.803 127.849)">
          <path id="Rectangle_27702" data-name="Rectangle 27702" d="M1.8,0H95.66a1.8,1.8,0,0,1,1.8,1.8V5.571a1.8,1.8,0,0,1-1.8,1.8H1.8A1.8,1.8,0,0,1,0,5.57V1.8A1.8,1.8,0,0,1,1.8,0Z" transform="translate(0 37.49) rotate(-0.756)" fill="#0060e6"/>
          <g id="Group_70233" data-name="Group 70233" transform="translate(12.883)">
            <g id="Group_70232" data-name="Group 70232">
              <path id="Path_50919" data-name="Path 50919" d="M345.169,369.807l-79.847,1.053L289.1,327.022l79.7-.789Z" transform="translate(-260.503 -326.233)" fill="#00a0ff"/>
              <path id="Path_50920" data-name="Path 50920" d="M342.108,369.542l-.007.015-79.7.788,23.636-43.575,4.958-.05-23.632,43.56Z" transform="translate(-262.398 -325.918)" fill="#0060e6"/>
            </g>
            <path id="Path_50921" data-name="Path 50921" d="M304.45,341.615a5.078,5.078,0,1,1-5.145-5.011A5.077,5.077,0,0,1,304.45,341.615Z" transform="translate(-241.734 -319.515)" fill="#007eff"/>
          </g>
        </g>
      </g>
    </g>
  </g>
</svg>
