<svg xmlns="http://www.w3.org/2000/svg" width="26.737" height="27.242"  fill="#3f5590" xmlns:v="https://vecta.io/nano"><path d="M0 13.62c-.022 5.186 2.898 9.936 7.535 12.259l-6.377-17.8A13.77 13.77 0 0 0 0 13.62zm13.599 1.191L9.587 26.687a13.14 13.14 0 0 0 8.216-.217 1.5 1.5 0 0 1-.1-.189zm8.794-1.878a7.27 7.27 0 0 0-1.1-3.755 6.44 6.44 0 0 1-1.316-3.194 2.34 2.34 0 0 1 2.245-2.416c.06 0 .117.008.173.011A13.21 13.21 0 0 0 11.806.092C7.935.549 4.463 2.695 2.322 5.953c.313.012 4.3.029 4.3.029.303-.012.562.218.585.521s-.198.57-.499.603c0 0-.725.086-1.531.129l4.869 14.749 2.925-8.938-2.082-5.811c-.72-.043-1.4-.061-1.4-.061a.53.53 0 1 1 .083-1.056h7.085a.53.53 0 1 1 .084 1.056l-1.529.095 4.832 14.625 1.332-4.548a12.91 12.91 0 0 0 1.017-4.413zm2.706-5.848a10.68 10.68 0 0 1 .091 1.4 13.05 13.05 0 0 1-1.018 4.878L20.09 25.392c6.276-3.797 8.479-11.845 5.01-18.308z"/></svg>