<svg xmlns="http://www.w3.org/2000/svg" width="45.006" height="45.848" viewBox="0 0 45.006 45.848">
  <g id="Group_26424" data-name="Group 26424" transform="translate(0 0)">
    <path id="Path_13463" data-name="Path 13463" d="M303.786,202.732a22.968,22.968,0,0,0,12.685,20.631l-10.735-29.957a23.187,23.187,0,0,0-1.95,9.326" transform="translate(-303.786 -179.809)" fill="#3f5590"/>
    <path id="Path_13464" data-name="Path 13464" d="M318.179,198.769l-6.753,19.989a22.135,22.135,0,0,0,13.829-.365,3.044,3.044,0,0,1-.169-.317Z" transform="translate(-295.287 -173.843)" fill="#3f5590"/>
    <path id="Path_13465" data-name="Path 13465" d="M339.42,208.735a12.258,12.258,0,0,0-1.855-6.32,10.845,10.845,0,0,1-2.212-5.376,3.936,3.936,0,0,1,3.777-4.066c.1,0,.2.015.292.019a22.224,22.224,0,0,0-31.415.991,21.966,21.966,0,0,0-2.37,3.006c.526.019,7.237.049,7.237.049a.949.949,0,0,1,.146,1.891s-1.221.146-2.579.218l8.2,24.824,4.924-15.044-3.5-9.78c-1.213-.072-2.357-.1-2.357-.1a.891.891,0,1,1,.074-1.781.654.654,0,0,1,.066,0h11.926a.892.892,0,0,1,.2,1.772c-.021,0-.042,0-.063,0,0,0-1.221.089-2.575.161l8.135,24.615,2.241-7.655a21.752,21.752,0,0,0,1.713-7.427" transform="translate(-301.727 -186.969)" fill="#3f5590"/>
    <path id="Path_13466" data-name="Path 13466" d="M328.223,192.613a17.923,17.923,0,0,1,.154,2.357,22.064,22.064,0,0,1-1.713,8.211l-6.871,20.247a23.2,23.2,0,0,0,8.432-30.815Z" transform="translate(-285.98 -180.691)" fill="#3f5590"/>
  </g>
</svg>
