<svg id="cms" xmlns="http://www.w3.org/2000/svg" width="44.79" height="44.79" viewBox="0 0 44.79 44.79">
  <path id="Path_51803" data-name="Path 51803" d="M42.551,0H2.24A2.24,2.24,0,0,0,0,2.24V35.086a2.24,2.24,0,0,0,2.24,2.24H17.095a4.014,4.014,0,0,1-3.061,3A2.982,2.982,0,0,0,11.2,43.3a1.493,1.493,0,0,0,1.493,1.493H32.1A1.493,1.493,0,0,0,33.593,43.3a2.986,2.986,0,0,0-2.837-2.971h0a3.969,3.969,0,0,1-3.061-3H42.551a2.239,2.239,0,0,0,2.239-2.239V2.24A2.24,2.24,0,0,0,42.551,0ZM2.24,1.493H42.551a.747.747,0,0,1,.746.747V31.353H1.493V2.24a.747.747,0,0,1,.747-.747ZM32.1,43.3H12.691A1.493,1.493,0,0,1,14.184,41.8H30.607A1.5,1.5,0,0,1,32.1,43.3Zm-4.418-2.986H17.107a4.927,4.927,0,0,0,1.5-2.986h7.57a4.927,4.927,0,0,0,1.5,2.986Zm14.869-4.479H2.24a.746.746,0,0,1-.747-.746v-2.24H43.3v2.24A.746.746,0,0,1,42.551,35.832Z" transform="translate(0)" fill="#222872"/>
  <path id="Path_51804" data-name="Path 51804" d="M5.493,30.874H41.325a1.493,1.493,0,0,0,1.493-1.493V5.493A1.493,1.493,0,0,0,41.325,4H5.493A1.493,1.493,0,0,0,4,5.493V29.381a1.493,1.493,0,0,0,1.493,1.493Zm9.133-6.74-.917-2.182c.229-.278.479-.544.721-.793a7.27,7.27,0,0,1,.842-.729l2.144.914a.746.746,0,0,0,.679-.047,10.2,10.2,0,0,1,2.832-1.173.746.746,0,0,0,.514-.448l.891-2.19a8.778,8.778,0,0,1,2.182.028l.864,2.163a.746.746,0,0,0,.514.448A10.2,10.2,0,0,1,28.724,21.3a.746.746,0,0,0,.679.047l2.182-.917c.278.23.544.479.793.721a7.2,7.2,0,0,1,.729.842l-.914,2.144a.746.746,0,0,0,.047.679,10.2,10.2,0,0,1,1.173,2.83.746.746,0,0,0,.448.514l2.19.891c.01.105.016.219.023.331H32.329a8.951,8.951,0,0,0-17.841,0H10.755c.011-.121.02-.242.04-.359l2.163-.863a.746.746,0,0,0,.448-.514,10.2,10.2,0,0,1,1.175-2.832.746.746,0,0,0,.045-.679Zm16.21,5.247H15.981a7.465,7.465,0,0,1,14.855,0ZM5.493,5.493H41.325V29.381H37.572c-.009-.162-.019-.322-.033-.471a1.541,1.541,0,0,0-.959-1.274l-1.815-.725a11.672,11.672,0,0,0-1.053-2.538l.767-1.8A1.5,1.5,0,0,0,34.26,21c-.229-.278-.489-.563-.827-.908-.334-.327-.619-.587-.888-.808a1.5,1.5,0,0,0-1.584-.224l-1.8.768a11.672,11.672,0,0,0-2.538-1.053L25.9,16.956A1.538,1.538,0,0,0,24.633,16a13.91,13.91,0,0,0-2.443,0,1.541,1.541,0,0,0-1.274.959l-.725,1.815a11.672,11.672,0,0,0-2.538,1.053l-1.794-.77a1.5,1.5,0,0,0-1.577.219c-.278.229-.563.489-.908.827-.327.334-.587.619-.808.888a1.506,1.506,0,0,0-.224,1.584l.766,1.8a11.672,11.672,0,0,0-1.053,2.538l-1.817.726a1.538,1.538,0,0,0-.956,1.265c-.015.154-.025.316-.034.481H5.493Z" transform="translate(-1.014 -1.014)" fill="#222872"/>
  <path id="Path_51805" data-name="Path 51805" d="M20.24,15.465a2.24,2.24,0,0,0,2.24-2.24.747.747,0,1,0-1.493,0,.747.747,0,0,1-1.493,0V10.24a.747.747,0,1,1,1.493,0,.747.747,0,1,0,1.493,0,2.24,2.24,0,0,0-4.479,0v2.986A2.24,2.24,0,0,0,20.24,15.465Z" transform="translate(-4.563 -2.028)" fill="#009eff"/>
  <path id="Path_51806" data-name="Path 51806" d="M26.747,15.465a.747.747,0,0,0,.747-.747V10.239l.6.8a1.153,1.153,0,0,0,1.792,0l.6-.8v4.479a.747.747,0,0,0,1.493,0V9.12a1.12,1.12,0,0,0-2.016-.672l-.97,1.3-.97-1.3A1.12,1.12,0,0,0,26,9.12v5.6A.747.747,0,0,0,26.747,15.465Z" transform="translate(-6.591 -2.028)" fill="#009eff"/>
  <path id="Path_51807" data-name="Path 51807" d="M38.239,12.479a.747.747,0,1,1-.647,1.12.747.747,0,0,0-1.292.747,2.24,2.24,0,1,0,1.939-3.359.747.747,0,1,1,.647-1.12.747.747,0,0,0,1.292-.747,2.24,2.24,0,1,0-1.939,3.359Z" transform="translate(-9.126 -2.028)" fill="#009eff"/>
  <path id="Path_51808" data-name="Path 51808" d="M12.733,17.493a.747.747,0,1,0,0-1.493H9.747a.747.747,0,1,0,0,1.493Z" transform="translate(-2.281 -4.056)" fill="#222872"/>
  <path id="Path_51809" data-name="Path 51809" d="M45.746,17.493h2.986a.747.747,0,1,0,0-1.493H45.746a.747.747,0,0,0,0,1.493Z" transform="translate(-11.407 -4.056)" fill="#222872"/>
</svg>
