<svg xmlns="http://www.w3.org/2000/svg" width="24.741" height="17.508"  xmlns:v="https://vecta.io/nano"><path d="M19.6 0H5.138a5.14 5.14 0 0 0-3.633 1.505A5.14 5.14 0 0 0 0 5.138v7.23a5.14 5.14 0 0 0 5.138 5.139H19.6a5.14 5.14 0 0 0 5.138-5.138v-7.23a5.14 5.14 0 0 0-1.505-3.634A5.14 5.14 0 0 0 19.6 0zm-3.473 9.107l-6.765 3.225c-.084.04-.183.034-.261-.016s-.126-.136-.127-.229V5.432c0-.094.049-.181.13-.231s.18-.054.264-.011l6.765 3.428c.093.047.151.142.15.246s-.062.198-.156.243z" fill="#06b2ff"/></svg>